ISO-10303-21;
HEADER;
/* Generated by software containing ST-Developer
 * from STEP Tools, Inc. (www.steptools.com) 
 */

FILE_DESCRIPTION(
/* description */ (''),
/* implementation_level */ '2;1');

FILE_NAME(
/* name */ 
'C:\\Users\\spcde\\OneDrive\\Desktop\\Xyla''s Car 2\\Downwind Vehicle 
by Xyla Foxlin\\Gearbox.stp',
/* time_stamp */ '2021-06-30T07:25:40-06:00',
/* author */ ('spcde'),
/* organization */ (''),
/* preprocessor_version */ 'ST-DEVELOPER v17',
/* originating_system */ 'Autodesk Inventor 2018',
/* authorisation */ '');

FILE_SCHEMA (('AUTOMOTIVE_DESIGN { 1 0 10303 214 3 1 1 }'));
ENDSEC;

DATA;
#10=MECHANICAL_DESIGN_GEOMETRIC_PRESENTATION_REPRESENTATION('',(#13),#797);
#11=SHAPE_REPRESENTATION_RELATIONSHIP('SRR','None',#807,#12);
#12=ADVANCED_BREP_SHAPE_REPRESENTATION('',(#14),#796);
#13=STYLED_ITEM('',(#816),#14);
#14=MANIFOLD_SOLID_BREP('Solid2',#458);
#15=ELLIPSE('',#493,0.101198246635086,0.09775);
#16=ELLIPSE('',#497,0.101198246635086,0.09775);
#17=FACE_BOUND('',#71,.T.);
#18=FACE_BOUND('',#78,.T.);
#19=FACE_BOUND('',#81,.T.);
#20=FACE_BOUND('',#83,.T.);
#21=FACE_BOUND('',#90,.T.);
#22=FACE_BOUND('',#92,.T.);
#23=FACE_BOUND('',#93,.T.);
#24=FACE_BOUND('',#96,.T.);
#25=FACE_BOUND('',#97,.T.);
#26=FACE_BOUND('',#98,.T.);
#27=FACE_BOUND('',#100,.T.);
#28=CYLINDRICAL_SURFACE('',#481,0.125);
#29=CYLINDRICAL_SURFACE('',#483,0.0625);
#30=CYLINDRICAL_SURFACE('',#486,0.125);
#31=CYLINDRICAL_SURFACE('',#492,0.09775);
#32=CYLINDRICAL_SURFACE('',#496,0.09775);
#33=CYLINDRICAL_SURFACE('',#500,0.25);
#34=CYLINDRICAL_SURFACE('',#506,0.89494541354599);
#35=CYLINDRICAL_SURFACE('',#513,0.5);
#36=CYLINDRICAL_SURFACE('',#515,0.5);
#37=CYLINDRICAL_SURFACE('',#517,0.25);
#38=CYLINDRICAL_SURFACE('',#519,0.25);
#39=CYLINDRICAL_SURFACE('',#524,1.14494541354599);
#40=FACE_OUTER_BOUND('',#65,.T.);
#41=FACE_OUTER_BOUND('',#66,.T.);
#42=FACE_OUTER_BOUND('',#67,.T.);
#43=FACE_OUTER_BOUND('',#68,.T.);
#44=FACE_OUTER_BOUND('',#69,.T.);
#45=FACE_OUTER_BOUND('',#70,.T.);
#46=FACE_OUTER_BOUND('',#72,.T.);
#47=FACE_OUTER_BOUND('',#73,.T.);
#48=FACE_OUTER_BOUND('',#74,.T.);
#49=FACE_OUTER_BOUND('',#75,.T.);
#50=FACE_OUTER_BOUND('',#76,.T.);
#51=FACE_OUTER_BOUND('',#77,.T.);
#52=FACE_OUTER_BOUND('',#79,.T.);
#53=FACE_OUTER_BOUND('',#80,.T.);
#54=FACE_OUTER_BOUND('',#82,.T.);
#55=FACE_OUTER_BOUND('',#84,.T.);
#56=FACE_OUTER_BOUND('',#85,.T.);
#57=FACE_OUTER_BOUND('',#86,.T.);
#58=FACE_OUTER_BOUND('',#87,.T.);
#59=FACE_OUTER_BOUND('',#88,.T.);
#60=FACE_OUTER_BOUND('',#89,.T.);
#61=FACE_OUTER_BOUND('',#91,.T.);
#62=FACE_OUTER_BOUND('',#94,.T.);
#63=FACE_OUTER_BOUND('',#95,.T.);
#64=FACE_OUTER_BOUND('',#99,.T.);
#65=EDGE_LOOP('',(#298,#299,#300,#301));
#66=EDGE_LOOP('',(#302,#303,#304,#305));
#67=EDGE_LOOP('',(#306,#307,#308,#309));
#68=EDGE_LOOP('',(#310,#311,#312,#313));
#69=EDGE_LOOP('',(#314,#315,#316,#317));
#70=EDGE_LOOP('',(#318,#319));
#71=EDGE_LOOP('',(#320));
#72=EDGE_LOOP('',(#321,#322,#323,#324));
#73=EDGE_LOOP('',(#325));
#74=EDGE_LOOP('',(#326,#327,#328,#329));
#75=EDGE_LOOP('',(#330));
#76=EDGE_LOOP('',(#331,#332,#333,#334,#335));
#77=EDGE_LOOP('',(#336,#337,#338,#339,#340));
#78=EDGE_LOOP('',(#341));
#79=EDGE_LOOP('',(#342,#343,#344,#345));
#80=EDGE_LOOP('',(#346,#347,#348,#349));
#81=EDGE_LOOP('',(#350));
#82=EDGE_LOOP('',(#351,#352,#353,#354,#355));
#83=EDGE_LOOP('',(#356));
#84=EDGE_LOOP('',(#357,#358,#359,#360,#361,#362,#363,#364));
#85=EDGE_LOOP('',(#365,#366,#367,#368));
#86=EDGE_LOOP('',(#369,#370,#371,#372));
#87=EDGE_LOOP('',(#373,#374,#375,#376));
#88=EDGE_LOOP('',(#377,#378,#379,#380));
#89=EDGE_LOOP('',(#381,#382,#383,#384,#385));
#90=EDGE_LOOP('',(#386));
#91=EDGE_LOOP('',(#387,#388,#389,#390,#391,#392,#393,#394));
#92=EDGE_LOOP('',(#395,#396,#397,#398));
#93=EDGE_LOOP('',(#399,#400,#401,#402));
#94=EDGE_LOOP('',(#403,#404,#405,#406));
#95=EDGE_LOOP('',(#407,#408,#409,#410));
#96=EDGE_LOOP('',(#411));
#97=EDGE_LOOP('',(#412));
#98=EDGE_LOOP('',(#413));
#99=EDGE_LOOP('',(#414,#415,#416,#417,#418));
#100=EDGE_LOOP('',(#419));
#101=LINE('',#672,#137);
#102=LINE('',#675,#138);
#103=LINE('',#678,#139);
#104=LINE('',#681,#140);
#105=LINE('',#684,#141);
#106=LINE('',#687,#142);
#107=LINE('',#689,#143);
#108=LINE('',#690,#144);
#109=LINE('',#695,#145);
#110=LINE('',#706,#146);
#111=LINE('',#713,#147);
#112=LINE('',#719,#148);
#113=LINE('',#723,#149);
#114=LINE('',#727,#150);
#115=LINE('',#730,#151);
#116=LINE('',#735,#152);
#117=LINE('',#737,#153);
#118=LINE('',#741,#154);
#119=LINE('',#742,#155);
#120=LINE('',#745,#156);
#121=LINE('',#748,#157);
#122=LINE('',#753,#158);
#123=LINE('',#755,#159);
#124=LINE('',#757,#160);
#125=LINE('',#759,#161);
#126=LINE('',#760,#162);
#127=LINE('',#763,#163);
#128=LINE('',#768,#164);
#129=LINE('',#771,#165);
#130=LINE('',#776,#166);
#131=LINE('',#779,#167);
#132=LINE('',#781,#168);
#133=LINE('',#785,#169);
#134=LINE('',#786,#170);
#135=LINE('',#790,#171);
#136=LINE('',#792,#172);
#137=VECTOR('',#534,0.393700787401575);
#138=VECTOR('',#537,0.393700787401575);
#139=VECTOR('',#540,0.393700787401575);
#140=VECTOR('',#543,0.393700787401575);
#141=VECTOR('',#546,0.393700787401575);
#142=VECTOR('',#549,0.393700787401575);
#143=VECTOR('',#552,0.393700787401575);
#144=VECTOR('',#553,0.393700787401575);
#145=VECTOR('',#558,0.125);
#146=VECTOR('',#571,0.09775);
#147=VECTOR('',#580,0.09775);
#148=VECTOR('',#589,0.25);
#149=VECTOR('',#592,0.393700787401575);
#150=VECTOR('',#595,0.393700787401575);
#151=VECTOR('',#598,0.393700787401575);
#152=VECTOR('',#603,0.393700787401575);
#153=VECTOR('',#604,0.393700787401575);
#154=VECTOR('',#609,0.393700787401575);
#155=VECTOR('',#610,0.393700787401575);
#156=VECTOR('',#613,0.393700787401575);
#157=VECTOR('',#616,0.393700787401575);
#158=VECTOR('',#621,0.393700787401575);
#159=VECTOR('',#622,0.393700787401575);
#160=VECTOR('',#623,0.393700787401575);
#161=VECTOR('',#624,0.393700787401575);
#162=VECTOR('',#625,0.393700787401575);
#163=VECTOR('',#628,0.393700787401575);
#164=VECTOR('',#635,0.393700787401575);
#165=VECTOR('',#638,0.25);
#166=VECTOR('',#645,0.25);
#167=VECTOR('',#648,0.393700787401575);
#168=VECTOR('',#649,0.393700787401575);
#169=VECTOR('',#654,0.393700787401575);
#170=VECTOR('',#655,0.393700787401575);
#171=VECTOR('',#660,0.393700787401575);
#172=VECTOR('',#663,0.393700787401575);
#173=CIRCLE('',#479,0.0625);
#174=CIRCLE('',#480,0.125);
#175=CIRCLE('',#482,0.125);
#176=CIRCLE('',#484,0.0625);
#177=CIRCLE('',#487,0.125);
#178=CIRCLE('',#488,0.125);
#179=CIRCLE('',#490,0.25);
#180=CIRCLE('',#491,0.25);
#181=CIRCLE('',#494,0.09775);
#182=CIRCLE('',#498,0.09775);
#183=CIRCLE('',#501,0.25);
#184=CIRCLE('',#503,0.89494541354599);
#185=CIRCLE('',#504,0.5);
#186=CIRCLE('',#505,0.25);
#187=CIRCLE('',#507,0.89494541354599);
#188=CIRCLE('',#510,0.5);
#189=CIRCLE('',#511,0.25);
#190=CIRCLE('',#514,0.5);
#191=CIRCLE('',#516,0.5);
#192=CIRCLE('',#518,0.25);
#193=CIRCLE('',#520,0.25);
#194=CIRCLE('',#522,1.14494541354599);
#195=CIRCLE('',#525,1.14494541354599);
#196=VERTEX_POINT('',#668);
#197=VERTEX_POINT('',#669);
#198=VERTEX_POINT('',#671);
#199=VERTEX_POINT('',#673);
#200=VERTEX_POINT('',#677);
#201=VERTEX_POINT('',#679);
#202=VERTEX_POINT('',#683);
#203=VERTEX_POINT('',#685);
#204=VERTEX_POINT('',#692);
#205=VERTEX_POINT('',#694);
#206=VERTEX_POINT('',#698);
#207=VERTEX_POINT('',#699);
#208=VERTEX_POINT('',#703);
#209=VERTEX_POINT('',#705);
#210=VERTEX_POINT('',#710);
#211=VERTEX_POINT('',#712);
#212=VERTEX_POINT('',#717);
#213=VERTEX_POINT('',#721);
#214=VERTEX_POINT('',#722);
#215=VERTEX_POINT('',#724);
#216=VERTEX_POINT('',#726);
#217=VERTEX_POINT('',#728);
#218=VERTEX_POINT('',#731);
#219=VERTEX_POINT('',#734);
#220=VERTEX_POINT('',#736);
#221=VERTEX_POINT('',#740);
#222=VERTEX_POINT('',#744);
#223=VERTEX_POINT('',#746);
#224=VERTEX_POINT('',#749);
#225=VERTEX_POINT('',#752);
#226=VERTEX_POINT('',#754);
#227=VERTEX_POINT('',#756);
#228=VERTEX_POINT('',#758);
#229=VERTEX_POINT('',#762);
#230=VERTEX_POINT('',#766);
#231=VERTEX_POINT('',#770);
#232=VERTEX_POINT('',#774);
#233=VERTEX_POINT('',#778);
#234=VERTEX_POINT('',#780);
#235=VERTEX_POINT('',#784);
#236=VERTEX_POINT('',#788);
#237=EDGE_CURVE('',#196,#197,#173,.T.);
#238=EDGE_CURVE('',#198,#197,#101,.T.);
#239=EDGE_CURVE('',#198,#199,#174,.T.);
#240=EDGE_CURVE('',#196,#199,#102,.T.);
#241=EDGE_CURVE('',#200,#198,#103,.T.);
#242=EDGE_CURVE('',#201,#200,#175,.T.);
#243=EDGE_CURVE('',#199,#201,#104,.T.);
#244=EDGE_CURVE('',#202,#196,#105,.T.);
#245=EDGE_CURVE('',#203,#202,#176,.T.);
#246=EDGE_CURVE('',#197,#203,#106,.T.);
#247=EDGE_CURVE('',#201,#202,#107,.T.);
#248=EDGE_CURVE('',#203,#200,#108,.T.);
#249=EDGE_CURVE('',#204,#204,#177,.T.);
#250=EDGE_CURVE('',#204,#205,#109,.T.);
#251=EDGE_CURVE('',#205,#205,#178,.T.);
#252=EDGE_CURVE('',#206,#207,#179,.T.);
#253=EDGE_CURVE('',#207,#206,#180,.T.);
#254=EDGE_CURVE('',#208,#208,#15,.T.);
#255=EDGE_CURVE('',#208,#209,#110,.T.);
#256=EDGE_CURVE('',#209,#209,#181,.T.);
#257=EDGE_CURVE('',#210,#210,#16,.T.);
#258=EDGE_CURVE('',#210,#211,#111,.T.);
#259=EDGE_CURVE('',#211,#211,#182,.T.);
#260=EDGE_CURVE('',#212,#212,#183,.T.);
#261=EDGE_CURVE('',#212,#207,#112,.T.);
#262=EDGE_CURVE('',#213,#214,#113,.F.);
#263=EDGE_CURVE('',#215,#213,#184,.F.);
#264=EDGE_CURVE('',#216,#215,#114,.T.);
#265=EDGE_CURVE('',#217,#216,#185,.T.);
#266=EDGE_CURVE('',#214,#217,#115,.T.);
#267=EDGE_CURVE('',#218,#218,#186,.T.);
#268=EDGE_CURVE('',#215,#219,#116,.T.);
#269=EDGE_CURVE('',#213,#220,#117,.F.);
#270=EDGE_CURVE('',#220,#219,#187,.F.);
#271=EDGE_CURVE('',#221,#214,#118,.T.);
#272=EDGE_CURVE('',#221,#220,#119,.F.);
#273=EDGE_CURVE('',#222,#221,#120,.T.);
#274=EDGE_CURVE('',#223,#222,#188,.T.);
#275=EDGE_CURVE('',#219,#223,#121,.T.);
#276=EDGE_CURVE('',#224,#224,#189,.T.);
#277=EDGE_CURVE('',#217,#225,#122,.T.);
#278=EDGE_CURVE('',#226,#225,#123,.T.);
#279=EDGE_CURVE('',#227,#226,#124,.T.);
#280=EDGE_CURVE('',#228,#227,#125,.T.);
#281=EDGE_CURVE('',#228,#222,#126,.T.);
#282=EDGE_CURVE('',#216,#229,#127,.T.);
#283=EDGE_CURVE('',#225,#229,#190,.T.);
#284=EDGE_CURVE('',#230,#228,#191,.T.);
#285=EDGE_CURVE('',#230,#223,#128,.T.);
#286=EDGE_CURVE('',#224,#231,#129,.T.);
#287=EDGE_CURVE('',#231,#231,#192,.T.);
#288=EDGE_CURVE('',#232,#232,#193,.T.);
#289=EDGE_CURVE('',#232,#218,#130,.T.);
#290=EDGE_CURVE('',#233,#226,#131,.T.);
#291=EDGE_CURVE('',#229,#234,#132,.T.);
#292=EDGE_CURVE('',#234,#233,#194,.T.);
#293=EDGE_CURVE('',#235,#230,#133,.T.);
#294=EDGE_CURVE('',#235,#234,#134,.T.);
#295=EDGE_CURVE('',#236,#235,#195,.T.);
#296=EDGE_CURVE('',#233,#236,#135,.T.);
#297=EDGE_CURVE('',#227,#236,#136,.T.);
#298=ORIENTED_EDGE('',*,*,#237,.T.);
#299=ORIENTED_EDGE('',*,*,#238,.F.);
#300=ORIENTED_EDGE('',*,*,#239,.T.);
#301=ORIENTED_EDGE('',*,*,#240,.F.);
#302=ORIENTED_EDGE('',*,*,#241,.F.);
#303=ORIENTED_EDGE('',*,*,#242,.F.);
#304=ORIENTED_EDGE('',*,*,#243,.F.);
#305=ORIENTED_EDGE('',*,*,#239,.F.);
#306=ORIENTED_EDGE('',*,*,#244,.F.);
#307=ORIENTED_EDGE('',*,*,#245,.F.);
#308=ORIENTED_EDGE('',*,*,#246,.F.);
#309=ORIENTED_EDGE('',*,*,#237,.F.);
#310=ORIENTED_EDGE('',*,*,#245,.T.);
#311=ORIENTED_EDGE('',*,*,#247,.F.);
#312=ORIENTED_EDGE('',*,*,#242,.T.);
#313=ORIENTED_EDGE('',*,*,#248,.F.);
#314=ORIENTED_EDGE('',*,*,#249,.F.);
#315=ORIENTED_EDGE('',*,*,#250,.T.);
#316=ORIENTED_EDGE('',*,*,#251,.F.);
#317=ORIENTED_EDGE('',*,*,#250,.F.);
#318=ORIENTED_EDGE('',*,*,#252,.F.);
#319=ORIENTED_EDGE('',*,*,#253,.F.);
#320=ORIENTED_EDGE('',*,*,#251,.T.);
#321=ORIENTED_EDGE('',*,*,#254,.F.);
#322=ORIENTED_EDGE('',*,*,#255,.T.);
#323=ORIENTED_EDGE('',*,*,#256,.T.);
#324=ORIENTED_EDGE('',*,*,#255,.F.);
#325=ORIENTED_EDGE('',*,*,#256,.F.);
#326=ORIENTED_EDGE('',*,*,#257,.F.);
#327=ORIENTED_EDGE('',*,*,#258,.T.);
#328=ORIENTED_EDGE('',*,*,#259,.T.);
#329=ORIENTED_EDGE('',*,*,#258,.F.);
#330=ORIENTED_EDGE('',*,*,#259,.F.);
#331=ORIENTED_EDGE('',*,*,#260,.F.);
#332=ORIENTED_EDGE('',*,*,#261,.T.);
#333=ORIENTED_EDGE('',*,*,#253,.T.);
#334=ORIENTED_EDGE('',*,*,#252,.T.);
#335=ORIENTED_EDGE('',*,*,#261,.F.);
#336=ORIENTED_EDGE('',*,*,#262,.F.);
#337=ORIENTED_EDGE('',*,*,#263,.F.);
#338=ORIENTED_EDGE('',*,*,#264,.F.);
#339=ORIENTED_EDGE('',*,*,#265,.F.);
#340=ORIENTED_EDGE('',*,*,#266,.F.);
#341=ORIENTED_EDGE('',*,*,#267,.F.);
#342=ORIENTED_EDGE('',*,*,#268,.F.);
#343=ORIENTED_EDGE('',*,*,#263,.T.);
#344=ORIENTED_EDGE('',*,*,#269,.T.);
#345=ORIENTED_EDGE('',*,*,#270,.T.);
#346=ORIENTED_EDGE('',*,*,#269,.F.);
#347=ORIENTED_EDGE('',*,*,#262,.T.);
#348=ORIENTED_EDGE('',*,*,#271,.F.);
#349=ORIENTED_EDGE('',*,*,#272,.T.);
#350=ORIENTED_EDGE('',*,*,#249,.T.);
#351=ORIENTED_EDGE('',*,*,#272,.F.);
#352=ORIENTED_EDGE('',*,*,#273,.F.);
#353=ORIENTED_EDGE('',*,*,#274,.F.);
#354=ORIENTED_EDGE('',*,*,#275,.F.);
#355=ORIENTED_EDGE('',*,*,#270,.F.);
#356=ORIENTED_EDGE('',*,*,#276,.F.);
#357=ORIENTED_EDGE('',*,*,#273,.T.);
#358=ORIENTED_EDGE('',*,*,#271,.T.);
#359=ORIENTED_EDGE('',*,*,#266,.T.);
#360=ORIENTED_EDGE('',*,*,#277,.T.);
#361=ORIENTED_EDGE('',*,*,#278,.F.);
#362=ORIENTED_EDGE('',*,*,#279,.F.);
#363=ORIENTED_EDGE('',*,*,#280,.F.);
#364=ORIENTED_EDGE('',*,*,#281,.T.);
#365=ORIENTED_EDGE('',*,*,#265,.T.);
#366=ORIENTED_EDGE('',*,*,#282,.T.);
#367=ORIENTED_EDGE('',*,*,#283,.F.);
#368=ORIENTED_EDGE('',*,*,#277,.F.);
#369=ORIENTED_EDGE('',*,*,#274,.T.);
#370=ORIENTED_EDGE('',*,*,#281,.F.);
#371=ORIENTED_EDGE('',*,*,#284,.F.);
#372=ORIENTED_EDGE('',*,*,#285,.T.);
#373=ORIENTED_EDGE('',*,*,#276,.T.);
#374=ORIENTED_EDGE('',*,*,#286,.T.);
#375=ORIENTED_EDGE('',*,*,#287,.F.);
#376=ORIENTED_EDGE('',*,*,#286,.F.);
#377=ORIENTED_EDGE('',*,*,#288,.F.);
#378=ORIENTED_EDGE('',*,*,#289,.T.);
#379=ORIENTED_EDGE('',*,*,#267,.T.);
#380=ORIENTED_EDGE('',*,*,#289,.F.);
#381=ORIENTED_EDGE('',*,*,#290,.T.);
#382=ORIENTED_EDGE('',*,*,#278,.T.);
#383=ORIENTED_EDGE('',*,*,#283,.T.);
#384=ORIENTED_EDGE('',*,*,#291,.T.);
#385=ORIENTED_EDGE('',*,*,#292,.T.);
#386=ORIENTED_EDGE('',*,*,#288,.T.);
#387=ORIENTED_EDGE('',*,*,#275,.T.);
#388=ORIENTED_EDGE('',*,*,#285,.F.);
#389=ORIENTED_EDGE('',*,*,#293,.F.);
#390=ORIENTED_EDGE('',*,*,#294,.T.);
#391=ORIENTED_EDGE('',*,*,#291,.F.);
#392=ORIENTED_EDGE('',*,*,#282,.F.);
#393=ORIENTED_EDGE('',*,*,#264,.T.);
#394=ORIENTED_EDGE('',*,*,#268,.T.);
#395=ORIENTED_EDGE('',*,*,#238,.T.);
#396=ORIENTED_EDGE('',*,*,#246,.T.);
#397=ORIENTED_EDGE('',*,*,#248,.T.);
#398=ORIENTED_EDGE('',*,*,#241,.T.);
#399=ORIENTED_EDGE('',*,*,#240,.T.);
#400=ORIENTED_EDGE('',*,*,#243,.T.);
#401=ORIENTED_EDGE('',*,*,#247,.T.);
#402=ORIENTED_EDGE('',*,*,#244,.T.);
#403=ORIENTED_EDGE('',*,*,#294,.F.);
#404=ORIENTED_EDGE('',*,*,#295,.F.);
#405=ORIENTED_EDGE('',*,*,#296,.F.);
#406=ORIENTED_EDGE('',*,*,#292,.F.);
#407=ORIENTED_EDGE('',*,*,#296,.T.);
#408=ORIENTED_EDGE('',*,*,#297,.F.);
#409=ORIENTED_EDGE('',*,*,#279,.T.);
#410=ORIENTED_EDGE('',*,*,#290,.F.);
#411=ORIENTED_EDGE('',*,*,#254,.T.);
#412=ORIENTED_EDGE('',*,*,#257,.T.);
#413=ORIENTED_EDGE('',*,*,#260,.T.);
#414=ORIENTED_EDGE('',*,*,#297,.T.);
#415=ORIENTED_EDGE('',*,*,#295,.T.);
#416=ORIENTED_EDGE('',*,*,#293,.T.);
#417=ORIENTED_EDGE('',*,*,#284,.T.);
#418=ORIENTED_EDGE('',*,*,#280,.T.);
#419=ORIENTED_EDGE('',*,*,#287,.T.);
#420=PLANE('',#478);
#421=PLANE('',#485);
#422=PLANE('',#489);
#423=PLANE('',#495);
#424=PLANE('',#499);
#425=PLANE('',#502);
#426=PLANE('',#508);
#427=PLANE('',#509);
#428=PLANE('',#512);
#429=PLANE('',#521);
#430=PLANE('',#523);
#431=PLANE('',#526);
#432=PLANE('',#527);
#433=ADVANCED_FACE('',(#40),#420,.F.);
#434=ADVANCED_FACE('',(#41),#28,.T.);
#435=ADVANCED_FACE('',(#42),#29,.F.);
#436=ADVANCED_FACE('',(#43),#421,.T.);
#437=ADVANCED_FACE('',(#44),#30,.F.);
#438=ADVANCED_FACE('',(#45,#17),#422,.T.);
#439=ADVANCED_FACE('',(#46),#31,.F.);
#440=ADVANCED_FACE('',(#47),#423,.F.);
#441=ADVANCED_FACE('',(#48),#32,.F.);
#442=ADVANCED_FACE('',(#49),#424,.F.);
#443=ADVANCED_FACE('',(#50),#33,.F.);
#444=ADVANCED_FACE('',(#51,#18),#425,.T.);
#445=ADVANCED_FACE('',(#52),#34,.F.);
#446=ADVANCED_FACE('',(#53,#19),#426,.F.);
#447=ADVANCED_FACE('',(#54,#20),#427,.F.);
#448=ADVANCED_FACE('',(#55),#428,.T.);
#449=ADVANCED_FACE('',(#56),#35,.T.);
#450=ADVANCED_FACE('',(#57),#36,.T.);
#451=ADVANCED_FACE('',(#58),#37,.F.);
#452=ADVANCED_FACE('',(#59),#38,.F.);
#453=ADVANCED_FACE('',(#60,#21),#429,.F.);
#454=ADVANCED_FACE('',(#61,#22,#23),#430,.T.);
#455=ADVANCED_FACE('',(#62),#39,.T.);
#456=ADVANCED_FACE('',(#63,#24,#25,#26),#431,.T.);
#457=ADVANCED_FACE('',(#64,#27),#432,.T.);
#458=CLOSED_SHELL('',(#433,#434,#435,#436,#437,#438,#439,#440,#441,#442,
#443,#444,#445,#446,#447,#448,#449,#450,#451,#452,#453,#454,#455,#456,#457));
#459=DERIVED_UNIT_ELEMENT(#461,1.);
#460=DERIVED_UNIT_ELEMENT(#801,3.);
#461=(
MASS_UNIT()
NAMED_UNIT(*)
SI_UNIT($,.GRAM.)
);
#462=DERIVED_UNIT((#459,#460));
#463=MEASURE_REPRESENTATION_ITEM('density measure',
POSITIVE_RATIO_MEASURE(1.),#462);
#464=PROPERTY_DEFINITION_REPRESENTATION(#469,#466);
#465=PROPERTY_DEFINITION_REPRESENTATION(#470,#467);
#466=REPRESENTATION('material name',(#468),#796);
#467=REPRESENTATION('density',(#463),#796);
#468=DESCRIPTIVE_REPRESENTATION_ITEM('Generic','Generic');
#469=PROPERTY_DEFINITION('material property','material name',#809);
#470=PROPERTY_DEFINITION('material property','density of part',#809);
#471=DATE_TIME_ROLE('creation_date');
#472=APPLIED_DATE_AND_TIME_ASSIGNMENT(#473,#471,(#809));
#473=DATE_AND_TIME(#474,#475);
#474=CALENDAR_DATE(2021,22,6);
#475=LOCAL_TIME(2,31,18.,#476);
#476=COORDINATED_UNIVERSAL_TIME_OFFSET(0,0,.BEHIND.);
#477=AXIS2_PLACEMENT_3D('placement',#666,#528,#529);
#478=AXIS2_PLACEMENT_3D('',#667,#530,#531);
#479=AXIS2_PLACEMENT_3D('',#670,#532,#533);
#480=AXIS2_PLACEMENT_3D('',#674,#535,#536);
#481=AXIS2_PLACEMENT_3D('',#676,#538,#539);
#482=AXIS2_PLACEMENT_3D('',#680,#541,#542);
#483=AXIS2_PLACEMENT_3D('',#682,#544,#545);
#484=AXIS2_PLACEMENT_3D('',#686,#547,#548);
#485=AXIS2_PLACEMENT_3D('',#688,#550,#551);
#486=AXIS2_PLACEMENT_3D('',#691,#554,#555);
#487=AXIS2_PLACEMENT_3D('',#693,#556,#557);
#488=AXIS2_PLACEMENT_3D('',#696,#559,#560);
#489=AXIS2_PLACEMENT_3D('',#697,#561,#562);
#490=AXIS2_PLACEMENT_3D('',#700,#563,#564);
#491=AXIS2_PLACEMENT_3D('',#701,#565,#566);
#492=AXIS2_PLACEMENT_3D('',#702,#567,#568);
#493=AXIS2_PLACEMENT_3D('',#704,#569,#570);
#494=AXIS2_PLACEMENT_3D('',#707,#572,#573);
#495=AXIS2_PLACEMENT_3D('',#708,#574,#575);
#496=AXIS2_PLACEMENT_3D('',#709,#576,#577);
#497=AXIS2_PLACEMENT_3D('',#711,#578,#579);
#498=AXIS2_PLACEMENT_3D('',#714,#581,#582);
#499=AXIS2_PLACEMENT_3D('',#715,#583,#584);
#500=AXIS2_PLACEMENT_3D('',#716,#585,#586);
#501=AXIS2_PLACEMENT_3D('',#718,#587,#588);
#502=AXIS2_PLACEMENT_3D('',#720,#590,#591);
#503=AXIS2_PLACEMENT_3D('',#725,#593,#594);
#504=AXIS2_PLACEMENT_3D('',#729,#596,#597);
#505=AXIS2_PLACEMENT_3D('',#732,#599,#600);
#506=AXIS2_PLACEMENT_3D('',#733,#601,#602);
#507=AXIS2_PLACEMENT_3D('',#738,#605,#606);
#508=AXIS2_PLACEMENT_3D('',#739,#607,#608);
#509=AXIS2_PLACEMENT_3D('',#743,#611,#612);
#510=AXIS2_PLACEMENT_3D('',#747,#614,#615);
#511=AXIS2_PLACEMENT_3D('',#750,#617,#618);
#512=AXIS2_PLACEMENT_3D('',#751,#619,#620);
#513=AXIS2_PLACEMENT_3D('',#761,#626,#627);
#514=AXIS2_PLACEMENT_3D('',#764,#629,#630);
#515=AXIS2_PLACEMENT_3D('',#765,#631,#632);
#516=AXIS2_PLACEMENT_3D('',#767,#633,#634);
#517=AXIS2_PLACEMENT_3D('',#769,#636,#637);
#518=AXIS2_PLACEMENT_3D('',#772,#639,#640);
#519=AXIS2_PLACEMENT_3D('',#773,#641,#642);
#520=AXIS2_PLACEMENT_3D('',#775,#643,#644);
#521=AXIS2_PLACEMENT_3D('',#777,#646,#647);
#522=AXIS2_PLACEMENT_3D('',#782,#650,#651);
#523=AXIS2_PLACEMENT_3D('',#783,#652,#653);
#524=AXIS2_PLACEMENT_3D('',#787,#656,#657);
#525=AXIS2_PLACEMENT_3D('',#789,#658,#659);
#526=AXIS2_PLACEMENT_3D('',#791,#661,#662);
#527=AXIS2_PLACEMENT_3D('',#793,#664,#665);
#528=DIRECTION('axis',(0.,0.,1.));
#529=DIRECTION('refdir',(1.,0.,0.));
#530=DIRECTION('center_axis',(0.,0.,1.));
#531=DIRECTION('ref_axis',(1.,0.,0.));
#532=DIRECTION('center_axis',(0.,0.,1.));
#533=DIRECTION('ref_axis',(1.,-1.3987061727561E-15,0.));
#534=DIRECTION('',(-1.,2.54618842127931E-16,0.));
#535=DIRECTION('center_axis',(0.,0.,-1.));
#536=DIRECTION('ref_axis',(-1.,6.99353086378052E-16,0.));
#537=DIRECTION('',(-1.,2.54618842127931E-16,0.));
#538=DIRECTION('center_axis',(0.,0.,1.));
#539=DIRECTION('ref_axis',(-1.,6.99353086378052E-16,0.));
#540=DIRECTION('',(0.,0.,-1.));
#541=DIRECTION('center_axis',(0.,0.,1.));
#542=DIRECTION('ref_axis',(-1.,6.99353086378052E-16,0.));
#543=DIRECTION('',(0.,0.,1.));
#544=DIRECTION('center_axis',(0.,0.,1.));
#545=DIRECTION('ref_axis',(1.,-1.3987061727561E-15,0.));
#546=DIRECTION('',(0.,0.,-1.));
#547=DIRECTION('center_axis',(0.,0.,-1.));
#548=DIRECTION('ref_axis',(1.,-1.3987061727561E-15,0.));
#549=DIRECTION('',(0.,0.,1.));
#550=DIRECTION('center_axis',(0.,0.,1.));
#551=DIRECTION('ref_axis',(1.,0.,0.));
#552=DIRECTION('',(1.,-2.54618842127931E-16,0.));
#553=DIRECTION('',(1.,-2.54618842127931E-16,0.));
#554=DIRECTION('center_axis',(-0.965925826289069,0.258819045102519,0.));
#555=DIRECTION('ref_axis',(-7.80796227996705E-18,-2.91397119324186E-17,
1.));
#556=DIRECTION('center_axis',(-0.965925826289069,0.258819045102519,0.));
#557=DIRECTION('ref_axis',(-7.80796227996705E-18,-2.91397119324186E-17,
1.));
#558=DIRECTION('',(-0.965925826289069,0.258819045102518,0.));
#559=DIRECTION('center_axis',(0.965925826289069,-0.258819045102519,0.));
#560=DIRECTION('ref_axis',(-7.80796227996705E-18,-2.91397119324186E-17,
1.));
#561=DIRECTION('center_axis',(-0.965925826289069,0.258819045102519,0.));
#562=DIRECTION('ref_axis',(0.,0.,1.));
#563=DIRECTION('center_axis',(0.965925826289069,-0.258819045102519,0.));
#564=DIRECTION('ref_axis',(0.,0.,-1.));
#565=DIRECTION('center_axis',(0.965925826289069,-0.258819045102519,0.));
#566=DIRECTION('ref_axis',(0.,0.,-1.));
#567=DIRECTION('center_axis',(1.,0.,0.));
#568=DIRECTION('ref_axis',(0.,-1.,0.));
#569=DIRECTION('center_axis',(0.965925826289069,-0.258819045102519,0.));
#570=DIRECTION('ref_axis',(-0.258819045102519,-0.965925826289069,0.));
#571=DIRECTION('',(1.,0.,0.));
#572=DIRECTION('center_axis',(1.,0.,0.));
#573=DIRECTION('ref_axis',(0.,-1.,0.));
#574=DIRECTION('center_axis',(1.,0.,0.));
#575=DIRECTION('ref_axis',(0.,0.,-1.));
#576=DIRECTION('center_axis',(1.,0.,0.));
#577=DIRECTION('ref_axis',(0.,-1.,0.));
#578=DIRECTION('center_axis',(0.965925826289069,-0.258819045102519,0.));
#579=DIRECTION('ref_axis',(-0.258819045102519,-0.965925826289069,0.));
#580=DIRECTION('',(1.,0.,0.));
#581=DIRECTION('center_axis',(1.,0.,0.));
#582=DIRECTION('ref_axis',(0.,-1.,0.));
#583=DIRECTION('center_axis',(1.,0.,0.));
#584=DIRECTION('ref_axis',(0.,0.,-1.));
#585=DIRECTION('center_axis',(0.965925826289069,-0.258819045102519,0.));
#586=DIRECTION('ref_axis',(0.,0.,-1.));
#587=DIRECTION('center_axis',(0.965925826289069,-0.258819045102519,0.));
#588=DIRECTION('ref_axis',(0.,0.,-1.));
#589=DIRECTION('',(0.965925826289069,-0.258819045102519,0.));
#590=DIRECTION('center_axis',(0.,0.,1.));
#591=DIRECTION('ref_axis',(1.,0.,0.));
#592=DIRECTION('',(-0.258819045102519,-0.965925826289069,0.));
#593=DIRECTION('center_axis',(0.,0.,1.));
#594=DIRECTION('ref_axis',(0.981979673726898,0.18898656139317,0.));
#595=DIRECTION('',(-1.,2.54618842127931E-16,0.));
#596=DIRECTION('center_axis',(0.,0.,-1.));
#597=DIRECTION('ref_axis',(-1.74838271594513E-16,1.,0.));
#598=DIRECTION('',(0.965925826289068,-0.258819045102521,0.));
#599=DIRECTION('center_axis',(0.,0.,1.));
#600=DIRECTION('ref_axis',(-1.,0.,0.));
#601=DIRECTION('center_axis',(0.,0.,1.));
#602=DIRECTION('ref_axis',(0.981979673726898,0.18898656139317,0.));
#603=DIRECTION('',(0.,0.,1.));
#604=DIRECTION('',(0.,0.,-1.));
#605=DIRECTION('center_axis',(0.,0.,-1.));
#606=DIRECTION('ref_axis',(0.981979673726898,0.18898656139317,0.));
#607=DIRECTION('center_axis',(-0.965925826289069,0.258819045102519,0.));
#608=DIRECTION('ref_axis',(-0.258819045102519,-0.965925826289069,0.));
#609=DIRECTION('',(0.,0.,-1.));
#610=DIRECTION('',(0.258819045102519,0.965925826289069,0.));
#611=DIRECTION('center_axis',(0.,0.,1.));
#612=DIRECTION('ref_axis',(1.,0.,0.));
#613=DIRECTION('',(-0.965925826289068,0.258819045102521,0.));
#614=DIRECTION('center_axis',(0.,0.,1.));
#615=DIRECTION('ref_axis',(-1.74838271594513E-16,1.,0.));
#616=DIRECTION('',(1.,-2.54618842127931E-16,0.));
#617=DIRECTION('center_axis',(0.,0.,-1.));
#618=DIRECTION('ref_axis',(-1.,0.,0.));
#619=DIRECTION('center_axis',(0.258819045102521,0.965925826289068,0.));
#620=DIRECTION('ref_axis',(-0.965925826289068,0.258819045102521,0.));
#621=DIRECTION('',(0.,0.,-1.));
#622=DIRECTION('',(0.965925826289068,-0.258819045102521,0.));
#623=DIRECTION('',(0.,0.,-1.));
#624=DIRECTION('',(-0.965925826289068,0.258819045102521,0.));
#625=DIRECTION('',(0.,0.,-1.));
#626=DIRECTION('center_axis',(0.,0.,1.));
#627=DIRECTION('ref_axis',(-1.74838271594513E-16,1.,0.));
#628=DIRECTION('',(0.,0.,-1.));
#629=DIRECTION('center_axis',(0.,0.,-1.));
#630=DIRECTION('ref_axis',(-1.74838271594513E-16,1.,0.));
#631=DIRECTION('center_axis',(0.,0.,1.));
#632=DIRECTION('ref_axis',(-1.74838271594513E-16,1.,0.));
#633=DIRECTION('center_axis',(0.,0.,1.));
#634=DIRECTION('ref_axis',(-1.74838271594513E-16,1.,0.));
#635=DIRECTION('',(0.,0.,-1.));
#636=DIRECTION('center_axis',(0.,0.,1.));
#637=DIRECTION('ref_axis',(-1.,0.,0.));
#638=DIRECTION('',(0.,0.,1.));
#639=DIRECTION('center_axis',(0.,0.,-1.));
#640=DIRECTION('ref_axis',(-1.,0.,0.));
#641=DIRECTION('center_axis',(0.,0.,1.));
#642=DIRECTION('ref_axis',(-1.,0.,0.));
#643=DIRECTION('center_axis',(0.,0.,1.));
#644=DIRECTION('ref_axis',(-1.,0.,0.));
#645=DIRECTION('',(0.,0.,1.));
#646=DIRECTION('center_axis',(0.,0.,1.));
#647=DIRECTION('ref_axis',(1.,0.,0.));
#648=DIRECTION('',(0.258819045102519,0.965925826289069,0.));
#649=DIRECTION('',(-1.,2.54618842127931E-16,0.));
#650=DIRECTION('center_axis',(0.,0.,-1.));
#651=DIRECTION('ref_axis',(0.981979673726898,0.18898656139317,0.));
#652=DIRECTION('center_axis',(-2.54618842127931E-16,-1.,0.));
#653=DIRECTION('ref_axis',(1.,-2.54618842127931E-16,0.));
#654=DIRECTION('',(1.,-2.54618842127931E-16,0.));
#655=DIRECTION('',(0.,0.,-1.));
#656=DIRECTION('center_axis',(0.,0.,1.));
#657=DIRECTION('ref_axis',(0.981979673726898,0.18898656139317,0.));
#658=DIRECTION('center_axis',(0.,0.,1.));
#659=DIRECTION('ref_axis',(0.981979673726898,0.18898656139317,0.));
#660=DIRECTION('',(0.,0.,1.));
#661=DIRECTION('center_axis',(-0.965925826289069,0.258819045102519,0.));
#662=DIRECTION('ref_axis',(-0.258819045102519,-0.965925826289069,0.));
#663=DIRECTION('',(-0.258819045102519,-0.965925826289069,0.));
#664=DIRECTION('center_axis',(0.,0.,1.));
#665=DIRECTION('ref_axis',(1.,0.,0.));
#666=CARTESIAN_POINT('',(0.,0.,0.));
#667=CARTESIAN_POINT('Origin',(-0.886244766385728,-0.551691174226242,-0.046875));
#668=CARTESIAN_POINT('',(-0.948744766385728,-0.5,-0.046875));
#669=CARTESIAN_POINT('',(-0.823744766385728,-0.5,-0.046875));
#670=CARTESIAN_POINT('Origin',(-0.886244766385728,-0.5,-0.046875));
#671=CARTESIAN_POINT('',(-0.761244766385728,-0.5,-0.046875));
#672=CARTESIAN_POINT('',(-0.958122383192864,-0.5,-0.046875));
#673=CARTESIAN_POINT('',(-1.01124476638573,-0.5,-0.046875));
#674=CARTESIAN_POINT('Origin',(-0.886244766385728,-0.5,-0.046875));
#675=CARTESIAN_POINT('',(-0.958122383192864,-0.5,-0.046875));
#676=CARTESIAN_POINT('Origin',(-0.886244766385728,-0.5,0.));
#677=CARTESIAN_POINT('',(-0.761244766385728,-0.5,0.046875));
#678=CARTESIAN_POINT('',(-0.761244766385728,-0.5,0.));
#679=CARTESIAN_POINT('',(-1.01124476638573,-0.5,0.046875));
#680=CARTESIAN_POINT('Origin',(-0.886244766385728,-0.5,0.046875));
#681=CARTESIAN_POINT('',(-1.01124476638573,-0.5,0.));
#682=CARTESIAN_POINT('Origin',(-0.886244766385728,-0.5,0.));
#683=CARTESIAN_POINT('',(-0.948744766385728,-0.5,0.046875));
#684=CARTESIAN_POINT('',(-0.948744766385728,-0.5,0.));
#685=CARTESIAN_POINT('',(-0.823744766385728,-0.5,0.046875));
#686=CARTESIAN_POINT('Origin',(-0.886244766385728,-0.5,0.046875));
#687=CARTESIAN_POINT('',(-0.823744766385728,-0.5,0.));
#688=CARTESIAN_POINT('Origin',(-0.886244766385728,-0.551691174226242,0.046875));
#689=CARTESIAN_POINT('',(-0.958122383192864,-0.5,0.046875));
#690=CARTESIAN_POINT('',(-0.958122383192864,-0.5,0.046875));
#691=CARTESIAN_POINT('Origin',(-0.753422144505474,0.201878855179964,0.));
#692=CARTESIAN_POINT('',(-0.753422144505474,0.201878855179964,-0.125));
#693=CARTESIAN_POINT('Origin',(-0.753422144505474,0.201878855179964,0.));
#694=CARTESIAN_POINT('',(-0.801718435819928,0.21481980743509,-0.125));
#695=CARTESIAN_POINT('',(-0.753422144505474,0.201878855179964,-0.125));
#696=CARTESIAN_POINT('Origin',(-0.801718435819928,0.21481980743509,0.));
#697=CARTESIAN_POINT('Origin',(-0.801718435819927,0.214819807435093,1.4023675030672E-17));
#698=CARTESIAN_POINT('',(-0.801718435819927,0.214819807435093,-0.25));
#699=CARTESIAN_POINT('',(-0.801718435819927,0.214819807435093,0.25));
#700=CARTESIAN_POINT('Origin',(-0.801718435819927,0.214819807435093,0.));
#701=CARTESIAN_POINT('Origin',(-0.801718435819927,0.214819807435093,0.));
#702=CARTESIAN_POINT('Origin',(-1.14494541354599,2.62257407391769E-16,-0.625));
#703=CARTESIAN_POINT('',(-1.04014243226224,0.0977500000000003,-0.625));
#704=CARTESIAN_POINT('Origin',(-1.06633446582239,2.62257407391769E-16,-0.625));
#705=CARTESIAN_POINT('',(-0.89494541354599,0.0977500000000003,-0.625));
#706=CARTESIAN_POINT('',(-1.14494541354599,0.0977500000000003,-0.625));
#707=CARTESIAN_POINT('Origin',(-0.89494541354599,2.62257407391769E-16,-0.625));
#708=CARTESIAN_POINT('Origin',(-0.89494541354599,2.54618004941128E-16,-0.625));
#709=CARTESIAN_POINT('Origin',(-1.14494541354599,2.62257407391769E-16,0.625));
#710=CARTESIAN_POINT('',(-1.04014243226224,0.0977500000000003,0.625));
#711=CARTESIAN_POINT('Origin',(-1.06633446582239,2.62257407391769E-16,0.625));
#712=CARTESIAN_POINT('',(-0.89494541354599,0.0977500000000003,0.625));
#713=CARTESIAN_POINT('',(-1.14494541354599,0.0977500000000003,0.625));
#714=CARTESIAN_POINT('Origin',(-0.89494541354599,2.62257407391769E-16,0.625));
#715=CARTESIAN_POINT('Origin',(-0.89494541354599,2.58285628832575E-16,0.625));
#716=CARTESIAN_POINT('Origin',(-0.994903601077741,0.266583616455596,0.));
#717=CARTESIAN_POINT('',(-0.994903601077741,0.266583616455597,0.25));
#718=CARTESIAN_POINT('Origin',(-0.994903601077741,0.266583616455596,0.));
#719=CARTESIAN_POINT('',(-0.994903601077741,0.266583616455596,0.25));
#720=CARTESIAN_POINT('Origin',(-0.407670756747221,0.0588374859364041,-0.75));
#721=CARTESIAN_POINT('',(-0.866986589580863,-0.221949423774758,-0.75));
#722=CARTESIAN_POINT('',(-0.624012621954214,0.6848417683245,-0.75));
#723=CARTESIAN_POINT('',(-0.695017078743819,0.419849528021866,-0.75));
#724=CARTESIAN_POINT('',(-0.742244766385728,-0.5,-0.75));
#725=CARTESIAN_POINT('Origin',(0.,0.,-0.75));
#726=CARTESIAN_POINT('',(8.74191357972564E-17,-0.5,-0.75));
#727=CARTESIAN_POINT('',(-0.71883537837361,-0.5,-0.75));
#728=CARTESIAN_POINT('',(0.12940952255126,0.482962913144534,-0.75));
#729=CARTESIAN_POINT('Origin',(0.,0.,-0.75));
#730=CARTESIAN_POINT('',(-0.0681261603083751,0.535892439843104,-0.75));
#731=CARTESIAN_POINT('',(0.25,3.06161699786838E-17,-0.75));
#732=CARTESIAN_POINT('Origin',(0.,0.,-0.75));
#733=CARTESIAN_POINT('Origin',(0.,0.,0.));
#734=CARTESIAN_POINT('',(-0.742244766385728,-0.5,0.75));
#735=CARTESIAN_POINT('',(-0.742244766385728,-0.5,0.));
#736=CARTESIAN_POINT('',(-0.866986589580864,-0.221949423774758,0.75));
#737=CARTESIAN_POINT('',(-0.866986589580864,-0.221949423774757,0.));
#738=CARTESIAN_POINT('Origin',(0.,0.,0.75));
#739=CARTESIAN_POINT('Origin',(-0.624012621954214,0.684841768324501,0.));
#740=CARTESIAN_POINT('',(-0.624012621954214,0.684841768324501,0.75));
#741=CARTESIAN_POINT('',(-0.624012621954214,0.684841768324501,0.));
#742=CARTESIAN_POINT('',(-0.695017078743819,0.419849528021866,0.75));
#743=CARTESIAN_POINT('Origin',(-0.407670756747221,0.0588374859364041,0.75));
#744=CARTESIAN_POINT('',(0.12940952255126,0.482962913144534,0.75));
#745=CARTESIAN_POINT('',(-0.0681261603083751,0.535892439843104,0.75));
#746=CARTESIAN_POINT('',(8.74191357972564E-17,-0.5,0.75));
#747=CARTESIAN_POINT('Origin',(0.,0.,0.75));
#748=CARTESIAN_POINT('',(-0.71883537837361,-0.5,0.75));
#749=CARTESIAN_POINT('',(0.25,3.06161699786838E-17,0.75));
#750=CARTESIAN_POINT('Origin',(0.,0.,0.75));
#751=CARTESIAN_POINT('Origin',(0.12940952255126,0.482962913144534,0.));
#752=CARTESIAN_POINT('',(0.12940952255126,0.482962913144534,-1.));
#753=CARTESIAN_POINT('',(0.12940952255126,0.482962913144534,0.));
#754=CARTESIAN_POINT('',(-0.865494078526481,0.749546529600131,-1.));
#755=CARTESIAN_POINT('',(-0.865494078526481,0.749546529600131,-1.));
#756=CARTESIAN_POINT('',(-0.865494078526481,0.749546529600131,1.));
#757=CARTESIAN_POINT('',(-0.865494078526481,0.749546529600131,0.));
#758=CARTESIAN_POINT('',(0.12940952255126,0.482962913144534,1.));
#759=CARTESIAN_POINT('',(-0.865494078526481,0.749546529600131,1.));
#760=CARTESIAN_POINT('',(0.12940952255126,0.482962913144534,0.));
#761=CARTESIAN_POINT('Origin',(0.,0.,0.));
#762=CARTESIAN_POINT('',(1.74838271594513E-16,-0.5,-1.));
#763=CARTESIAN_POINT('',(8.74191357972564E-17,-0.5,0.));
#764=CARTESIAN_POINT('Origin',(0.,0.,-1.));
#765=CARTESIAN_POINT('Origin',(0.,0.,0.));
#766=CARTESIAN_POINT('',(1.74838271594513E-16,-0.5,1.));
#767=CARTESIAN_POINT('Origin',(0.,0.,1.));
#768=CARTESIAN_POINT('',(8.74191357972564E-17,-0.5,0.));
#769=CARTESIAN_POINT('Origin',(0.,0.,0.));
#770=CARTESIAN_POINT('',(0.25,3.06161699786838E-17,1.));
#771=CARTESIAN_POINT('',(0.25,3.06161699786838E-17,0.));
#772=CARTESIAN_POINT('Origin',(0.,0.,1.));
#773=CARTESIAN_POINT('Origin',(0.,0.,0.));
#774=CARTESIAN_POINT('',(0.25,3.06161699786838E-17,-1.));
#775=CARTESIAN_POINT('Origin',(0.,0.,-1.));
#776=CARTESIAN_POINT('',(0.25,3.06161699786838E-17,0.));
#777=CARTESIAN_POINT('Origin',(-0.407670756747221,0.0588374859364041,-1.));
#778=CARTESIAN_POINT('',(-1.124313123629,-0.216379296688938,-1.));
#779=CARTESIAN_POINT('',(-1.124313123629,-0.216379296688938,-1.));
#780=CARTESIAN_POINT('',(-1.03,-0.5,-1.));
#781=CARTESIAN_POINT('',(8.74191357972564E-17,-0.5,-1.));
#782=CARTESIAN_POINT('Origin',(0.,0.,-1.));
#783=CARTESIAN_POINT('Origin',(-1.03,-0.5,0.));
#784=CARTESIAN_POINT('',(-1.03,-0.5,1.));
#785=CARTESIAN_POINT('',(8.74191357972564E-17,-0.5,1.));
#786=CARTESIAN_POINT('',(-1.03,-0.5,0.));
#787=CARTESIAN_POINT('Origin',(0.,0.,0.));
#788=CARTESIAN_POINT('',(-1.124313123629,-0.216379296688938,1.));
#789=CARTESIAN_POINT('Origin',(0.,0.,1.));
#790=CARTESIAN_POINT('',(-1.124313123629,-0.216379296688938,0.));
#791=CARTESIAN_POINT('Origin',(-0.865494078526481,0.749546529600131,0.));
#792=CARTESIAN_POINT('',(-1.124313123629,-0.216379296688938,1.));
#793=CARTESIAN_POINT('Origin',(-0.407670756747221,0.0588374859364041,1.));
#794=UNCERTAINTY_MEASURE_WITH_UNIT(LENGTH_MEASURE(0.000393700787401575),
#799,'DISTANCE_ACCURACY_VALUE',
'Maximum model space distance between geometric entities at asserted c
onnectivities');
#795=UNCERTAINTY_MEASURE_WITH_UNIT(LENGTH_MEASURE(0.000393700787401575),
#799,'DISTANCE_ACCURACY_VALUE',
'Maximum model space distance between geometric entities at asserted c
onnectivities');
#796=(
GEOMETRIC_REPRESENTATION_CONTEXT(3)
GLOBAL_UNCERTAINTY_ASSIGNED_CONTEXT((#794))
GLOBAL_UNIT_ASSIGNED_CONTEXT((#799,#804,#803))
REPRESENTATION_CONTEXT('','3D')
);
#797=(
GEOMETRIC_REPRESENTATION_CONTEXT(3)
GLOBAL_UNCERTAINTY_ASSIGNED_CONTEXT((#795))
GLOBAL_UNIT_ASSIGNED_CONTEXT((#799,#804,#803))
REPRESENTATION_CONTEXT('','3D')
);
#798=DIMENSIONAL_EXPONENTS(1.,0.,0.,0.,0.,0.,0.);
#799=(
CONVERSION_BASED_UNIT('inch',#802)
LENGTH_UNIT()
NAMED_UNIT(#798)
);
#800=(
LENGTH_UNIT()
NAMED_UNIT(*)
SI_UNIT(.MILLI.,.METRE.)
);
#801=(
LENGTH_UNIT()
NAMED_UNIT(*)
SI_UNIT(.CENTI.,.METRE.)
);
#802=LENGTH_MEASURE_WITH_UNIT(LENGTH_MEASURE(25.4),#800);
#803=(
NAMED_UNIT(*)
SI_UNIT($,.STERADIAN.)
SOLID_ANGLE_UNIT()
);
#804=(
NAMED_UNIT(*)
PLANE_ANGLE_UNIT()
SI_UNIT($,.RADIAN.)
);
#805=SHAPE_DEFINITION_REPRESENTATION(#806,#807);
#806=PRODUCT_DEFINITION_SHAPE('',$,#809);
#807=SHAPE_REPRESENTATION('',(#477),#796);
#808=PRODUCT_DEFINITION_CONTEXT('part definition',#813,'design');
#809=PRODUCT_DEFINITION('Gearbox','Gearbox',#810,#808);
#810=PRODUCT_DEFINITION_FORMATION('',$,#815);
#811=PRODUCT_RELATED_PRODUCT_CATEGORY('Gearbox','Gearbox',(#815));
#812=APPLICATION_PROTOCOL_DEFINITION('international standard',
'automotive_design',2009,#813);
#813=APPLICATION_CONTEXT(
'Core Data for Automotive Mechanical Design Process');
#814=PRODUCT_CONTEXT('part definition',#813,'mechanical');
#815=PRODUCT('Gearbox','Gearbox',$,(#814));
#816=PRESENTATION_STYLE_ASSIGNMENT((#817));
#817=SURFACE_STYLE_USAGE(.BOTH.,#818);
#818=SURFACE_SIDE_STYLE('',(#819));
#819=SURFACE_STYLE_FILL_AREA(#820);
#820=FILL_AREA_STYLE('',(#821));
#821=FILL_AREA_STYLE_COLOUR('',#822);
#822=COLOUR_RGB('',0.749019607843137,0.749019607843137,0.749019607843137);
ENDSEC;
END-ISO-10303-21;
