ISO-10303-21;
HEADER;
/* Generated by software containing ST-Developer
 * from STEP Tools, Inc. (www.steptools.com) 
 */

FILE_DESCRIPTION(
/* description */ (''),
/* implementation_level */ '2;1');

FILE_NAME(
/* name */ 
'C:\\Users\\spcde\\OneDrive\\Desktop\\Xyla''s Car 2\\Downwind Vehicle 
by Xyla Foxlin\\Wheel.stp',
/* time_stamp */ '2021-06-30T07:26:32-06:00',
/* author */ ('spcde'),
/* organization */ (''),
/* preprocessor_version */ 'ST-DEVELOPER v17',
/* originating_system */ 'Autodesk Inventor 2018',
/* authorisation */ '');

FILE_SCHEMA (('AUTOMOTIVE_DESIGN { 1 0 10303 214 3 1 1 }'));
ENDSEC;

DATA;
#10=MECHANICAL_DESIGN_GEOMETRIC_PRESENTATION_REPRESENTATION('',(#13),#856);
#11=SHAPE_REPRESENTATION_RELATIONSHIP('SRR','None',#866,#12);
#12=ADVANCED_BREP_SHAPE_REPRESENTATION('',(#14),#855);
#13=STYLED_ITEM('',(#875),#14);
#14=MANIFOLD_SOLID_BREP('Solid1',#465);
#15=LINE('',#771,#38);
#16=LINE('',#772,#39);
#17=LINE('',#776,#40);
#18=LINE('',#780,#41);
#19=LINE('',#785,#42);
#20=LINE('',#786,#43);
#21=LINE('',#790,#44);
#22=LINE('',#794,#45);
#23=LINE('',#799,#46);
#24=LINE('',#800,#47);
#25=LINE('',#804,#48);
#26=LINE('',#808,#49);
#27=LINE('',#813,#50);
#28=LINE('',#816,#51);
#29=LINE('',#819,#52);
#30=LINE('',#822,#53);
#31=LINE('',#823,#54);
#32=LINE('',#827,#55);
#33=LINE('',#831,#56);
#34=LINE('',#838,#57);
#35=LINE('',#839,#58);
#36=LINE('',#847,#59);
#37=LINE('',#850,#60);
#38=VECTOR('',#613,0.393700787401575);
#39=VECTOR('',#614,0.393700787401575);
#40=VECTOR('',#619,0.393700787401575);
#41=VECTOR('',#624,0.393700787401575);
#42=VECTOR('',#629,0.393700787401575);
#43=VECTOR('',#630,0.393700787401575);
#44=VECTOR('',#635,0.393700787401575);
#45=VECTOR('',#640,0.393700787401575);
#46=VECTOR('',#645,0.393700787401575);
#47=VECTOR('',#646,0.393700787401575);
#48=VECTOR('',#651,0.393700787401575);
#49=VECTOR('',#656,0.393700787401575);
#50=VECTOR('',#661,0.393700787401575);
#51=VECTOR('',#666,0.21875);
#52=VECTOR('',#669,0.393700787401575);
#53=VECTOR('',#672,0.393700787401575);
#54=VECTOR('',#673,0.393700787401575);
#55=VECTOR('',#678,0.393700787401575);
#56=VECTOR('',#683,0.393700787401575);
#57=VECTOR('',#692,0.393700787401575);
#58=VECTOR('',#693,0.393700787401575);
#59=VECTOR('',#706,0.09375);
#60=VECTOR('',#709,1.591549431);
#61=CYLINDRICAL_SURFACE('',#512,0.6238997155);
#62=CYLINDRICAL_SURFACE('',#514,1.466549431);
#63=CYLINDRICAL_SURFACE('',#516,0.7488997155);
#64=CYLINDRICAL_SURFACE('',#518,0.6238997155);
#65=CYLINDRICAL_SURFACE('',#520,1.466549431);
#66=CYLINDRICAL_SURFACE('',#522,0.7488997155);
#67=CYLINDRICAL_SURFACE('',#524,0.6238997155);
#68=CYLINDRICAL_SURFACE('',#526,1.466549431);
#69=CYLINDRICAL_SURFACE('',#528,0.7488997155);
#70=CYLINDRICAL_SURFACE('',#530,0.21875);
#71=CYLINDRICAL_SURFACE('',#536,0.6238997155);
#72=CYLINDRICAL_SURFACE('',#538,1.466549431);
#73=CYLINDRICAL_SURFACE('',#540,0.7488997155);
#74=CYLINDRICAL_SURFACE('',#542,1.466549431);
#75=CYLINDRICAL_SURFACE('',#544,0.7488997155);
#76=CYLINDRICAL_SURFACE('',#546,0.6238997155);
#77=CYLINDRICAL_SURFACE('',#548,0.09375);
#78=CYLINDRICAL_SURFACE('',#550,1.591549431);
#79=FACE_BOUND('',#109,.T.);
#80=FACE_BOUND('',#111,.T.);
#81=FACE_BOUND('',#131,.T.);
#82=FACE_BOUND('',#132,.T.);
#83=FACE_BOUND('',#133,.T.);
#84=FACE_BOUND('',#134,.T.);
#85=FACE_BOUND('',#135,.T.);
#86=FACE_BOUND('',#136,.T.);
#87=FACE_OUTER_BOUND('',#108,.T.);
#88=FACE_OUTER_BOUND('',#110,.T.);
#89=FACE_OUTER_BOUND('',#112,.T.);
#90=FACE_OUTER_BOUND('',#113,.T.);
#91=FACE_OUTER_BOUND('',#114,.T.);
#92=FACE_OUTER_BOUND('',#115,.T.);
#93=FACE_OUTER_BOUND('',#116,.T.);
#94=FACE_OUTER_BOUND('',#117,.T.);
#95=FACE_OUTER_BOUND('',#118,.T.);
#96=FACE_OUTER_BOUND('',#119,.T.);
#97=FACE_OUTER_BOUND('',#120,.T.);
#98=FACE_OUTER_BOUND('',#121,.T.);
#99=FACE_OUTER_BOUND('',#122,.T.);
#100=FACE_OUTER_BOUND('',#123,.T.);
#101=FACE_OUTER_BOUND('',#124,.T.);
#102=FACE_OUTER_BOUND('',#125,.T.);
#103=FACE_OUTER_BOUND('',#126,.T.);
#104=FACE_OUTER_BOUND('',#127,.T.);
#105=FACE_OUTER_BOUND('',#128,.T.);
#106=FACE_OUTER_BOUND('',#129,.T.);
#107=FACE_OUTER_BOUND('',#130,.T.);
#108=EDGE_LOOP('',(#301,#302));
#109=EDGE_LOOP('',(#303));
#110=EDGE_LOOP('',(#304));
#111=EDGE_LOOP('',(#305,#306,#307,#308,#309,#310,#311,#312,#313,#314,#315,
#316,#317,#318,#319,#320,#321,#322,#323,#324,#325));
#112=EDGE_LOOP('',(#326,#327,#328,#329));
#113=EDGE_LOOP('',(#330,#331,#332,#333));
#114=EDGE_LOOP('',(#334,#335,#336,#337));
#115=EDGE_LOOP('',(#338,#339,#340,#341));
#116=EDGE_LOOP('',(#342,#343,#344,#345));
#117=EDGE_LOOP('',(#346,#347,#348,#349));
#118=EDGE_LOOP('',(#350,#351,#352,#353));
#119=EDGE_LOOP('',(#354,#355,#356,#357));
#120=EDGE_LOOP('',(#358,#359,#360,#361));
#121=EDGE_LOOP('',(#362,#363,#364,#365,#366,#367,#368,#369,#370,#371,#372,
#373,#374,#375,#376,#377,#378,#379,#380,#381,#382,#383,#384,#385,#386));
#122=EDGE_LOOP('',(#387,#388,#389,#390));
#123=EDGE_LOOP('',(#391,#392,#393,#394));
#124=EDGE_LOOP('',(#395,#396,#397,#398));
#125=EDGE_LOOP('',(#399,#400,#401,#402));
#126=EDGE_LOOP('',(#403,#404,#405,#406));
#127=EDGE_LOOP('',(#407,#408,#409,#410));
#128=EDGE_LOOP('',(#411,#412,#413,#414));
#129=EDGE_LOOP('',(#415,#416,#417,#418));
#130=EDGE_LOOP('',(#419));
#131=EDGE_LOOP('',(#420,#421,#422,#423));
#132=EDGE_LOOP('',(#424,#425,#426,#427));
#133=EDGE_LOOP('',(#428,#429,#430,#431));
#134=EDGE_LOOP('',(#432,#433,#434,#435));
#135=EDGE_LOOP('',(#436,#437,#438,#439));
#136=EDGE_LOOP('',(#440));
#137=CIRCLE('',#486,0.21875);
#138=CIRCLE('',#487,0.21875);
#139=CIRCLE('',#488,0.09375);
#140=CIRCLE('',#490,1.591549431);
#141=CIRCLE('',#491,0.21875);
#142=CIRCLE('',#492,0.6238997155);
#143=CIRCLE('',#493,1.466549431);
#144=CIRCLE('',#494,0.7488997155);
#145=CIRCLE('',#495,0.21875);
#146=CIRCLE('',#496,0.6238997155);
#147=CIRCLE('',#497,1.466549431);
#148=CIRCLE('',#498,0.7488997155);
#149=CIRCLE('',#499,0.21875);
#150=CIRCLE('',#500,0.21875);
#151=CIRCLE('',#501,0.6238997155);
#152=CIRCLE('',#502,1.466549431);
#153=CIRCLE('',#503,0.7488997155);
#154=CIRCLE('',#504,0.21875);
#155=CIRCLE('',#505,0.6238997155);
#156=CIRCLE('',#506,1.466549431);
#157=CIRCLE('',#507,0.7488997155);
#158=CIRCLE('',#508,0.21875);
#159=CIRCLE('',#509,0.6238997155);
#160=CIRCLE('',#510,1.466549431);
#161=CIRCLE('',#511,0.7488997155);
#162=CIRCLE('',#513,0.6238997155);
#163=CIRCLE('',#515,1.466549431);
#164=CIRCLE('',#517,0.7488997155);
#165=CIRCLE('',#519,0.6238997155);
#166=CIRCLE('',#521,1.466549431);
#167=CIRCLE('',#523,0.7488997155);
#168=CIRCLE('',#525,0.6238997155);
#169=CIRCLE('',#527,1.466549431);
#170=CIRCLE('',#529,0.7488997155);
#171=CIRCLE('',#531,0.21875);
#172=CIRCLE('',#532,0.21875);
#173=CIRCLE('',#533,0.21875);
#174=CIRCLE('',#534,0.21875);
#175=CIRCLE('',#535,0.21875);
#176=CIRCLE('',#537,0.6238997155);
#177=CIRCLE('',#539,1.466549431);
#178=CIRCLE('',#541,0.7488997155);
#179=CIRCLE('',#543,1.466549431);
#180=CIRCLE('',#545,0.7488997155);
#181=CIRCLE('',#547,0.6238997155);
#182=CIRCLE('',#549,0.09375);
#183=CIRCLE('',#551,1.591549431);
#184=VERTEX_POINT('',#716);
#185=VERTEX_POINT('',#717);
#186=VERTEX_POINT('',#720);
#187=VERTEX_POINT('',#723);
#188=VERTEX_POINT('',#725);
#189=VERTEX_POINT('',#726);
#190=VERTEX_POINT('',#728);
#191=VERTEX_POINT('',#730);
#192=VERTEX_POINT('',#732);
#193=VERTEX_POINT('',#734);
#194=VERTEX_POINT('',#736);
#195=VERTEX_POINT('',#738);
#196=VERTEX_POINT('',#740);
#197=VERTEX_POINT('',#742);
#198=VERTEX_POINT('',#744);
#199=VERTEX_POINT('',#746);
#200=VERTEX_POINT('',#748);
#201=VERTEX_POINT('',#750);
#202=VERTEX_POINT('',#752);
#203=VERTEX_POINT('',#754);
#204=VERTEX_POINT('',#756);
#205=VERTEX_POINT('',#758);
#206=VERTEX_POINT('',#760);
#207=VERTEX_POINT('',#762);
#208=VERTEX_POINT('',#764);
#209=VERTEX_POINT('',#768);
#210=VERTEX_POINT('',#769);
#211=VERTEX_POINT('',#774);
#212=VERTEX_POINT('',#778);
#213=VERTEX_POINT('',#782);
#214=VERTEX_POINT('',#783);
#215=VERTEX_POINT('',#788);
#216=VERTEX_POINT('',#792);
#217=VERTEX_POINT('',#796);
#218=VERTEX_POINT('',#797);
#219=VERTEX_POINT('',#802);
#220=VERTEX_POINT('',#806);
#221=VERTEX_POINT('',#810);
#222=VERTEX_POINT('',#811);
#223=VERTEX_POINT('',#818);
#224=VERTEX_POINT('',#820);
#225=VERTEX_POINT('',#825);
#226=VERTEX_POINT('',#829);
#227=VERTEX_POINT('',#835);
#228=VERTEX_POINT('',#836);
#229=VERTEX_POINT('',#845);
#230=VERTEX_POINT('',#849);
#231=EDGE_CURVE('',#184,#185,#137,.T.);
#232=EDGE_CURVE('',#185,#184,#138,.T.);
#233=EDGE_CURVE('',#186,#186,#139,.T.);
#234=EDGE_CURVE('',#187,#187,#140,.T.);
#235=EDGE_CURVE('',#188,#189,#141,.T.);
#236=EDGE_CURVE('',#189,#190,#142,.T.);
#237=EDGE_CURVE('',#190,#191,#143,.T.);
#238=EDGE_CURVE('',#191,#192,#144,.T.);
#239=EDGE_CURVE('',#192,#193,#145,.T.);
#240=EDGE_CURVE('',#193,#194,#146,.T.);
#241=EDGE_CURVE('',#194,#195,#147,.T.);
#242=EDGE_CURVE('',#195,#196,#148,.T.);
#243=EDGE_CURVE('',#196,#197,#149,.T.);
#244=EDGE_CURVE('',#197,#198,#150,.T.);
#245=EDGE_CURVE('',#198,#199,#151,.T.);
#246=EDGE_CURVE('',#199,#200,#152,.T.);
#247=EDGE_CURVE('',#200,#201,#153,.T.);
#248=EDGE_CURVE('',#201,#202,#154,.T.);
#249=EDGE_CURVE('',#202,#203,#155,.T.);
#250=EDGE_CURVE('',#203,#204,#156,.T.);
#251=EDGE_CURVE('',#204,#205,#157,.T.);
#252=EDGE_CURVE('',#205,#206,#158,.T.);
#253=EDGE_CURVE('',#206,#207,#159,.T.);
#254=EDGE_CURVE('',#207,#208,#160,.T.);
#255=EDGE_CURVE('',#208,#188,#161,.T.);
#256=EDGE_CURVE('',#209,#210,#162,.T.);
#257=EDGE_CURVE('',#209,#194,#15,.T.);
#258=EDGE_CURVE('',#210,#193,#16,.T.);
#259=EDGE_CURVE('',#211,#209,#163,.T.);
#260=EDGE_CURVE('',#211,#195,#17,.T.);
#261=EDGE_CURVE('',#212,#211,#164,.T.);
#262=EDGE_CURVE('',#212,#196,#18,.T.);
#263=EDGE_CURVE('',#213,#214,#165,.T.);
#264=EDGE_CURVE('',#213,#199,#19,.T.);
#265=EDGE_CURVE('',#214,#198,#20,.T.);
#266=EDGE_CURVE('',#215,#213,#166,.T.);
#267=EDGE_CURVE('',#215,#200,#21,.T.);
#268=EDGE_CURVE('',#216,#215,#167,.T.);
#269=EDGE_CURVE('',#216,#201,#22,.T.);
#270=EDGE_CURVE('',#217,#218,#168,.T.);
#271=EDGE_CURVE('',#217,#203,#23,.T.);
#272=EDGE_CURVE('',#218,#202,#24,.T.);
#273=EDGE_CURVE('',#219,#217,#169,.T.);
#274=EDGE_CURVE('',#219,#204,#25,.T.);
#275=EDGE_CURVE('',#220,#219,#170,.T.);
#276=EDGE_CURVE('',#220,#205,#26,.T.);
#277=EDGE_CURVE('',#221,#222,#171,.T.);
#278=EDGE_CURVE('',#221,#206,#27,.T.);
#279=EDGE_CURVE('',#218,#220,#172,.T.);
#280=EDGE_CURVE('',#214,#216,#173,.T.);
#281=EDGE_CURVE('',#197,#185,#28,.T.);
#282=EDGE_CURVE('',#210,#212,#174,.T.);
#283=EDGE_CURVE('',#223,#192,#29,.T.);
#284=EDGE_CURVE('',#224,#223,#175,.T.);
#285=EDGE_CURVE('',#224,#189,#30,.T.);
#286=EDGE_CURVE('',#222,#188,#31,.T.);
#287=EDGE_CURVE('',#225,#221,#176,.T.);
#288=EDGE_CURVE('',#225,#207,#32,.T.);
#289=EDGE_CURVE('',#226,#225,#177,.T.);
#290=EDGE_CURVE('',#226,#208,#33,.T.);
#291=EDGE_CURVE('',#222,#226,#178,.T.);
#292=EDGE_CURVE('',#227,#228,#179,.T.);
#293=EDGE_CURVE('',#227,#191,#34,.T.);
#294=EDGE_CURVE('',#228,#190,#35,.T.);
#295=EDGE_CURVE('',#223,#227,#180,.T.);
#296=EDGE_CURVE('',#228,#224,#181,.T.);
#297=EDGE_CURVE('',#229,#229,#182,.T.);
#298=EDGE_CURVE('',#229,#186,#36,.T.);
#299=EDGE_CURVE('',#187,#230,#37,.T.);
#300=EDGE_CURVE('',#230,#230,#183,.T.);
#301=ORIENTED_EDGE('',*,*,#231,.T.);
#302=ORIENTED_EDGE('',*,*,#232,.T.);
#303=ORIENTED_EDGE('',*,*,#233,.T.);
#304=ORIENTED_EDGE('',*,*,#234,.T.);
#305=ORIENTED_EDGE('',*,*,#235,.T.);
#306=ORIENTED_EDGE('',*,*,#236,.T.);
#307=ORIENTED_EDGE('',*,*,#237,.T.);
#308=ORIENTED_EDGE('',*,*,#238,.T.);
#309=ORIENTED_EDGE('',*,*,#239,.T.);
#310=ORIENTED_EDGE('',*,*,#240,.T.);
#311=ORIENTED_EDGE('',*,*,#241,.T.);
#312=ORIENTED_EDGE('',*,*,#242,.T.);
#313=ORIENTED_EDGE('',*,*,#243,.T.);
#314=ORIENTED_EDGE('',*,*,#244,.T.);
#315=ORIENTED_EDGE('',*,*,#245,.T.);
#316=ORIENTED_EDGE('',*,*,#246,.T.);
#317=ORIENTED_EDGE('',*,*,#247,.T.);
#318=ORIENTED_EDGE('',*,*,#248,.T.);
#319=ORIENTED_EDGE('',*,*,#249,.T.);
#320=ORIENTED_EDGE('',*,*,#250,.T.);
#321=ORIENTED_EDGE('',*,*,#251,.T.);
#322=ORIENTED_EDGE('',*,*,#252,.T.);
#323=ORIENTED_EDGE('',*,*,#253,.T.);
#324=ORIENTED_EDGE('',*,*,#254,.T.);
#325=ORIENTED_EDGE('',*,*,#255,.T.);
#326=ORIENTED_EDGE('',*,*,#256,.F.);
#327=ORIENTED_EDGE('',*,*,#257,.T.);
#328=ORIENTED_EDGE('',*,*,#240,.F.);
#329=ORIENTED_EDGE('',*,*,#258,.F.);
#330=ORIENTED_EDGE('',*,*,#259,.F.);
#331=ORIENTED_EDGE('',*,*,#260,.T.);
#332=ORIENTED_EDGE('',*,*,#241,.F.);
#333=ORIENTED_EDGE('',*,*,#257,.F.);
#334=ORIENTED_EDGE('',*,*,#261,.F.);
#335=ORIENTED_EDGE('',*,*,#262,.T.);
#336=ORIENTED_EDGE('',*,*,#242,.F.);
#337=ORIENTED_EDGE('',*,*,#260,.F.);
#338=ORIENTED_EDGE('',*,*,#263,.F.);
#339=ORIENTED_EDGE('',*,*,#264,.T.);
#340=ORIENTED_EDGE('',*,*,#245,.F.);
#341=ORIENTED_EDGE('',*,*,#265,.F.);
#342=ORIENTED_EDGE('',*,*,#266,.F.);
#343=ORIENTED_EDGE('',*,*,#267,.T.);
#344=ORIENTED_EDGE('',*,*,#246,.F.);
#345=ORIENTED_EDGE('',*,*,#264,.F.);
#346=ORIENTED_EDGE('',*,*,#268,.F.);
#347=ORIENTED_EDGE('',*,*,#269,.T.);
#348=ORIENTED_EDGE('',*,*,#247,.F.);
#349=ORIENTED_EDGE('',*,*,#267,.F.);
#350=ORIENTED_EDGE('',*,*,#270,.F.);
#351=ORIENTED_EDGE('',*,*,#271,.T.);
#352=ORIENTED_EDGE('',*,*,#249,.F.);
#353=ORIENTED_EDGE('',*,*,#272,.F.);
#354=ORIENTED_EDGE('',*,*,#273,.F.);
#355=ORIENTED_EDGE('',*,*,#274,.T.);
#356=ORIENTED_EDGE('',*,*,#250,.F.);
#357=ORIENTED_EDGE('',*,*,#271,.F.);
#358=ORIENTED_EDGE('',*,*,#275,.F.);
#359=ORIENTED_EDGE('',*,*,#276,.T.);
#360=ORIENTED_EDGE('',*,*,#251,.F.);
#361=ORIENTED_EDGE('',*,*,#274,.F.);
#362=ORIENTED_EDGE('',*,*,#277,.F.);
#363=ORIENTED_EDGE('',*,*,#278,.T.);
#364=ORIENTED_EDGE('',*,*,#252,.F.);
#365=ORIENTED_EDGE('',*,*,#276,.F.);
#366=ORIENTED_EDGE('',*,*,#279,.F.);
#367=ORIENTED_EDGE('',*,*,#272,.T.);
#368=ORIENTED_EDGE('',*,*,#248,.F.);
#369=ORIENTED_EDGE('',*,*,#269,.F.);
#370=ORIENTED_EDGE('',*,*,#280,.F.);
#371=ORIENTED_EDGE('',*,*,#265,.T.);
#372=ORIENTED_EDGE('',*,*,#244,.F.);
#373=ORIENTED_EDGE('',*,*,#281,.T.);
#374=ORIENTED_EDGE('',*,*,#231,.F.);
#375=ORIENTED_EDGE('',*,*,#232,.F.);
#376=ORIENTED_EDGE('',*,*,#281,.F.);
#377=ORIENTED_EDGE('',*,*,#243,.F.);
#378=ORIENTED_EDGE('',*,*,#262,.F.);
#379=ORIENTED_EDGE('',*,*,#282,.F.);
#380=ORIENTED_EDGE('',*,*,#258,.T.);
#381=ORIENTED_EDGE('',*,*,#239,.F.);
#382=ORIENTED_EDGE('',*,*,#283,.F.);
#383=ORIENTED_EDGE('',*,*,#284,.F.);
#384=ORIENTED_EDGE('',*,*,#285,.T.);
#385=ORIENTED_EDGE('',*,*,#235,.F.);
#386=ORIENTED_EDGE('',*,*,#286,.F.);
#387=ORIENTED_EDGE('',*,*,#287,.F.);
#388=ORIENTED_EDGE('',*,*,#288,.T.);
#389=ORIENTED_EDGE('',*,*,#253,.F.);
#390=ORIENTED_EDGE('',*,*,#278,.F.);
#391=ORIENTED_EDGE('',*,*,#289,.F.);
#392=ORIENTED_EDGE('',*,*,#290,.T.);
#393=ORIENTED_EDGE('',*,*,#254,.F.);
#394=ORIENTED_EDGE('',*,*,#288,.F.);
#395=ORIENTED_EDGE('',*,*,#291,.F.);
#396=ORIENTED_EDGE('',*,*,#286,.T.);
#397=ORIENTED_EDGE('',*,*,#255,.F.);
#398=ORIENTED_EDGE('',*,*,#290,.F.);
#399=ORIENTED_EDGE('',*,*,#292,.F.);
#400=ORIENTED_EDGE('',*,*,#293,.T.);
#401=ORIENTED_EDGE('',*,*,#237,.F.);
#402=ORIENTED_EDGE('',*,*,#294,.F.);
#403=ORIENTED_EDGE('',*,*,#295,.F.);
#404=ORIENTED_EDGE('',*,*,#283,.T.);
#405=ORIENTED_EDGE('',*,*,#238,.F.);
#406=ORIENTED_EDGE('',*,*,#293,.F.);
#407=ORIENTED_EDGE('',*,*,#296,.F.);
#408=ORIENTED_EDGE('',*,*,#294,.T.);
#409=ORIENTED_EDGE('',*,*,#236,.F.);
#410=ORIENTED_EDGE('',*,*,#285,.F.);
#411=ORIENTED_EDGE('',*,*,#297,.F.);
#412=ORIENTED_EDGE('',*,*,#298,.T.);
#413=ORIENTED_EDGE('',*,*,#233,.F.);
#414=ORIENTED_EDGE('',*,*,#298,.F.);
#415=ORIENTED_EDGE('',*,*,#234,.F.);
#416=ORIENTED_EDGE('',*,*,#299,.T.);
#417=ORIENTED_EDGE('',*,*,#300,.F.);
#418=ORIENTED_EDGE('',*,*,#299,.F.);
#419=ORIENTED_EDGE('',*,*,#300,.T.);
#420=ORIENTED_EDGE('',*,*,#282,.T.);
#421=ORIENTED_EDGE('',*,*,#261,.T.);
#422=ORIENTED_EDGE('',*,*,#259,.T.);
#423=ORIENTED_EDGE('',*,*,#256,.T.);
#424=ORIENTED_EDGE('',*,*,#280,.T.);
#425=ORIENTED_EDGE('',*,*,#268,.T.);
#426=ORIENTED_EDGE('',*,*,#266,.T.);
#427=ORIENTED_EDGE('',*,*,#263,.T.);
#428=ORIENTED_EDGE('',*,*,#279,.T.);
#429=ORIENTED_EDGE('',*,*,#275,.T.);
#430=ORIENTED_EDGE('',*,*,#273,.T.);
#431=ORIENTED_EDGE('',*,*,#270,.T.);
#432=ORIENTED_EDGE('',*,*,#277,.T.);
#433=ORIENTED_EDGE('',*,*,#291,.T.);
#434=ORIENTED_EDGE('',*,*,#289,.T.);
#435=ORIENTED_EDGE('',*,*,#287,.T.);
#436=ORIENTED_EDGE('',*,*,#292,.T.);
#437=ORIENTED_EDGE('',*,*,#296,.T.);
#438=ORIENTED_EDGE('',*,*,#284,.T.);
#439=ORIENTED_EDGE('',*,*,#295,.T.);
#440=ORIENTED_EDGE('',*,*,#297,.T.);
#441=PLANE('',#485);
#442=PLANE('',#489);
#443=PLANE('',#552);
#444=ADVANCED_FACE('',(#87,#79),#441,.T.);
#445=ADVANCED_FACE('',(#88,#80),#442,.T.);
#446=ADVANCED_FACE('',(#89),#61,.F.);
#447=ADVANCED_FACE('',(#90),#62,.F.);
#448=ADVANCED_FACE('',(#91),#63,.T.);
#449=ADVANCED_FACE('',(#92),#64,.F.);
#450=ADVANCED_FACE('',(#93),#65,.F.);
#451=ADVANCED_FACE('',(#94),#66,.T.);
#452=ADVANCED_FACE('',(#95),#67,.F.);
#453=ADVANCED_FACE('',(#96),#68,.F.);
#454=ADVANCED_FACE('',(#97),#69,.T.);
#455=ADVANCED_FACE('',(#98),#70,.T.);
#456=ADVANCED_FACE('',(#99),#71,.F.);
#457=ADVANCED_FACE('',(#100),#72,.F.);
#458=ADVANCED_FACE('',(#101),#73,.T.);
#459=ADVANCED_FACE('',(#102),#74,.F.);
#460=ADVANCED_FACE('',(#103),#75,.T.);
#461=ADVANCED_FACE('',(#104),#76,.F.);
#462=ADVANCED_FACE('',(#105),#77,.F.);
#463=ADVANCED_FACE('',(#106),#78,.T.);
#464=ADVANCED_FACE('',(#107,#81,#82,#83,#84,#85,#86),#443,.F.);
#465=CLOSED_SHELL('',(#444,#445,#446,#447,#448,#449,#450,#451,#452,#453,
#454,#455,#456,#457,#458,#459,#460,#461,#462,#463,#464));
#466=DERIVED_UNIT_ELEMENT(#468,1.);
#467=DERIVED_UNIT_ELEMENT(#860,3.);
#468=(
MASS_UNIT()
NAMED_UNIT(*)
SI_UNIT($,.GRAM.)
);
#469=DERIVED_UNIT((#466,#467));
#470=MEASURE_REPRESENTATION_ITEM('density measure',
POSITIVE_RATIO_MEASURE(1.),#469);
#471=PROPERTY_DEFINITION_REPRESENTATION(#476,#473);
#472=PROPERTY_DEFINITION_REPRESENTATION(#477,#474);
#473=REPRESENTATION('material name',(#475),#855);
#474=REPRESENTATION('density',(#470),#855);
#475=DESCRIPTIVE_REPRESENTATION_ITEM('Generic','Generic');
#476=PROPERTY_DEFINITION('material property','material name',#868);
#477=PROPERTY_DEFINITION('material property','density of part',#868);
#478=DATE_TIME_ROLE('creation_date');
#479=APPLIED_DATE_AND_TIME_ASSIGNMENT(#480,#478,(#868));
#480=DATE_AND_TIME(#481,#482);
#481=CALENDAR_DATE(2021,22,6);
#482=LOCAL_TIME(2,4,3.,#483);
#483=COORDINATED_UNIVERSAL_TIME_OFFSET(0,0,.BEHIND.);
#484=AXIS2_PLACEMENT_3D('placement',#714,#553,#554);
#485=AXIS2_PLACEMENT_3D('',#715,#555,#556);
#486=AXIS2_PLACEMENT_3D('',#718,#557,#558);
#487=AXIS2_PLACEMENT_3D('',#719,#559,#560);
#488=AXIS2_PLACEMENT_3D('',#721,#561,#562);
#489=AXIS2_PLACEMENT_3D('',#722,#563,#564);
#490=AXIS2_PLACEMENT_3D('',#724,#565,#566);
#491=AXIS2_PLACEMENT_3D('',#727,#567,#568);
#492=AXIS2_PLACEMENT_3D('',#729,#569,#570);
#493=AXIS2_PLACEMENT_3D('',#731,#571,#572);
#494=AXIS2_PLACEMENT_3D('',#733,#573,#574);
#495=AXIS2_PLACEMENT_3D('',#735,#575,#576);
#496=AXIS2_PLACEMENT_3D('',#737,#577,#578);
#497=AXIS2_PLACEMENT_3D('',#739,#579,#580);
#498=AXIS2_PLACEMENT_3D('',#741,#581,#582);
#499=AXIS2_PLACEMENT_3D('',#743,#583,#584);
#500=AXIS2_PLACEMENT_3D('',#745,#585,#586);
#501=AXIS2_PLACEMENT_3D('',#747,#587,#588);
#502=AXIS2_PLACEMENT_3D('',#749,#589,#590);
#503=AXIS2_PLACEMENT_3D('',#751,#591,#592);
#504=AXIS2_PLACEMENT_3D('',#753,#593,#594);
#505=AXIS2_PLACEMENT_3D('',#755,#595,#596);
#506=AXIS2_PLACEMENT_3D('',#757,#597,#598);
#507=AXIS2_PLACEMENT_3D('',#759,#599,#600);
#508=AXIS2_PLACEMENT_3D('',#761,#601,#602);
#509=AXIS2_PLACEMENT_3D('',#763,#603,#604);
#510=AXIS2_PLACEMENT_3D('',#765,#605,#606);
#511=AXIS2_PLACEMENT_3D('',#766,#607,#608);
#512=AXIS2_PLACEMENT_3D('',#767,#609,#610);
#513=AXIS2_PLACEMENT_3D('',#770,#611,#612);
#514=AXIS2_PLACEMENT_3D('',#773,#615,#616);
#515=AXIS2_PLACEMENT_3D('',#775,#617,#618);
#516=AXIS2_PLACEMENT_3D('',#777,#620,#621);
#517=AXIS2_PLACEMENT_3D('',#779,#622,#623);
#518=AXIS2_PLACEMENT_3D('',#781,#625,#626);
#519=AXIS2_PLACEMENT_3D('',#784,#627,#628);
#520=AXIS2_PLACEMENT_3D('',#787,#631,#632);
#521=AXIS2_PLACEMENT_3D('',#789,#633,#634);
#522=AXIS2_PLACEMENT_3D('',#791,#636,#637);
#523=AXIS2_PLACEMENT_3D('',#793,#638,#639);
#524=AXIS2_PLACEMENT_3D('',#795,#641,#642);
#525=AXIS2_PLACEMENT_3D('',#798,#643,#644);
#526=AXIS2_PLACEMENT_3D('',#801,#647,#648);
#527=AXIS2_PLACEMENT_3D('',#803,#649,#650);
#528=AXIS2_PLACEMENT_3D('',#805,#652,#653);
#529=AXIS2_PLACEMENT_3D('',#807,#654,#655);
#530=AXIS2_PLACEMENT_3D('',#809,#657,#658);
#531=AXIS2_PLACEMENT_3D('',#812,#659,#660);
#532=AXIS2_PLACEMENT_3D('',#814,#662,#663);
#533=AXIS2_PLACEMENT_3D('',#815,#664,#665);
#534=AXIS2_PLACEMENT_3D('',#817,#667,#668);
#535=AXIS2_PLACEMENT_3D('',#821,#670,#671);
#536=AXIS2_PLACEMENT_3D('',#824,#674,#675);
#537=AXIS2_PLACEMENT_3D('',#826,#676,#677);
#538=AXIS2_PLACEMENT_3D('',#828,#679,#680);
#539=AXIS2_PLACEMENT_3D('',#830,#681,#682);
#540=AXIS2_PLACEMENT_3D('',#832,#684,#685);
#541=AXIS2_PLACEMENT_3D('',#833,#686,#687);
#542=AXIS2_PLACEMENT_3D('',#834,#688,#689);
#543=AXIS2_PLACEMENT_3D('',#837,#690,#691);
#544=AXIS2_PLACEMENT_3D('',#840,#694,#695);
#545=AXIS2_PLACEMENT_3D('',#841,#696,#697);
#546=AXIS2_PLACEMENT_3D('',#842,#698,#699);
#547=AXIS2_PLACEMENT_3D('',#843,#700,#701);
#548=AXIS2_PLACEMENT_3D('',#844,#702,#703);
#549=AXIS2_PLACEMENT_3D('',#846,#704,#705);
#550=AXIS2_PLACEMENT_3D('',#848,#707,#708);
#551=AXIS2_PLACEMENT_3D('',#851,#710,#711);
#552=AXIS2_PLACEMENT_3D('',#852,#712,#713);
#553=DIRECTION('axis',(0.,0.,1.));
#554=DIRECTION('refdir',(1.,0.,0.));
#555=DIRECTION('center_axis',(0.,0.,1.));
#556=DIRECTION('ref_axis',(1.,0.,0.));
#557=DIRECTION('center_axis',(0.,0.,1.));
#558=DIRECTION('ref_axis',(-1.,0.,0.));
#559=DIRECTION('center_axis',(0.,0.,1.));
#560=DIRECTION('ref_axis',(-1.,0.,0.));
#561=DIRECTION('center_axis',(0.,0.,-1.));
#562=DIRECTION('ref_axis',(-1.,0.,0.));
#563=DIRECTION('center_axis',(0.,0.,1.));
#564=DIRECTION('ref_axis',(1.,0.,0.));
#565=DIRECTION('center_axis',(0.,0.,1.));
#566=DIRECTION('ref_axis',(-1.,0.,0.));
#567=DIRECTION('center_axis',(0.,0.,-1.));
#568=DIRECTION('ref_axis',(-1.,0.,0.));
#569=DIRECTION('center_axis',(0.,0.,-1.));
#570=DIRECTION('ref_axis',(3.50293218707424E-17,1.,0.));
#571=DIRECTION('center_axis',(0.,0.,-1.));
#572=DIRECTION('ref_axis',(0.771890275020454,0.63575577333505,0.));
#573=DIRECTION('center_axis',(0.,0.,1.));
#574=DIRECTION('ref_axis',(-0.441457960128106,-0.897281934198796,0.));
#575=DIRECTION('center_axis',(0.,0.,-1.));
#576=DIRECTION('ref_axis',(-1.,0.,0.));
#577=DIRECTION('center_axis',(0.,0.,-1.));
#578=DIRECTION('ref_axis',(-0.951056516295154,-0.309016994374947,0.));
#579=DIRECTION('center_axis',(0.,0.,-1.));
#580=DIRECTION('ref_axis',(-0.843166883776636,0.537651937690544,0.));
#581=DIRECTION('center_axis',(0.,0.,1.));
#582=DIRECTION('ref_axis',(0.989783842455367,-0.142576103237149,0.));
#583=DIRECTION('center_axis',(0.,0.,-1.));
#584=DIRECTION('ref_axis',(-1.,0.,0.));
#585=DIRECTION('center_axis',(0.,0.,-1.));
#586=DIRECTION('ref_axis',(-1.,0.,0.));
#587=DIRECTION('center_axis',(0.,0.,-1.));
#588=DIRECTION('ref_axis',(-0.587785252292473,0.809016994374947,0.));
#589=DIRECTION('center_axis',(0.,0.,-1.));
#590=DIRECTION('ref_axis',(0.250784482658161,0.968042944945047,0.));
#591=DIRECTION('center_axis',(0.,0.,1.));
#592=DIRECTION('ref_axis',(0.170262096024782,-0.985398811982868,0.));
#593=DIRECTION('center_axis',(0.,0.,-1.));
#594=DIRECTION('ref_axis',(-1.,0.,0.));
#595=DIRECTION('center_axis',(0.,0.,-1.));
#596=DIRECTION('ref_axis',(0.587785252292473,0.809016994374947,0.));
#597=DIRECTION('center_axis',(0.,0.,-1.));
#598=DIRECTION('ref_axis',(0.998160217910438,0.0606315048550382,0.));
#599=DIRECTION('center_axis',(0.,0.,1.));
#600=DIRECTION('ref_axis',(-0.884556080116253,-0.46643385504203,0.));
#601=DIRECTION('center_axis',(0.,0.,-1.));
#602=DIRECTION('ref_axis',(-1.,0.,0.));
#603=DIRECTION('center_axis',(0.,0.,-1.));
#604=DIRECTION('ref_axis',(0.951056516295154,-0.309016994374948,0.));
#605=DIRECTION('center_axis',(0.,0.,-1.));
#606=DIRECTION('ref_axis',(0.366112458228491,-0.930570614155579,0.));
#607=DIRECTION('center_axis',(0.,0.,1.));
#608=DIRECTION('ref_axis',(-0.716947818492001,0.697126836063252,0.));
#609=DIRECTION('center_axis',(0.,0.,1.));
#610=DIRECTION('ref_axis',(-0.951056516295154,-0.309016994374947,0.));
#611=DIRECTION('center_axis',(0.,0.,1.));
#612=DIRECTION('ref_axis',(-0.951056516295154,-0.309016994374947,0.));
#613=DIRECTION('',(0.,0.,1.));
#614=DIRECTION('',(0.,0.,1.));
#615=DIRECTION('center_axis',(0.,0.,1.));
#616=DIRECTION('ref_axis',(-0.843166883776636,0.537651937690544,0.));
#617=DIRECTION('center_axis',(0.,0.,1.));
#618=DIRECTION('ref_axis',(-0.843166883776636,0.537651937690544,0.));
#619=DIRECTION('',(0.,0.,1.));
#620=DIRECTION('center_axis',(0.,0.,1.));
#621=DIRECTION('ref_axis',(0.989783842455367,-0.142576103237149,0.));
#622=DIRECTION('center_axis',(0.,0.,-1.));
#623=DIRECTION('ref_axis',(0.989783842455367,-0.142576103237149,0.));
#624=DIRECTION('',(0.,0.,1.));
#625=DIRECTION('center_axis',(0.,0.,1.));
#626=DIRECTION('ref_axis',(-0.587785252292473,0.809016994374947,0.));
#627=DIRECTION('center_axis',(0.,0.,1.));
#628=DIRECTION('ref_axis',(-0.587785252292473,0.809016994374947,0.));
#629=DIRECTION('',(0.,0.,1.));
#630=DIRECTION('',(0.,0.,1.));
#631=DIRECTION('center_axis',(0.,0.,1.));
#632=DIRECTION('ref_axis',(0.250784482658161,0.968042944945047,0.));
#633=DIRECTION('center_axis',(0.,0.,1.));
#634=DIRECTION('ref_axis',(0.250784482658161,0.968042944945047,0.));
#635=DIRECTION('',(0.,0.,1.));
#636=DIRECTION('center_axis',(0.,0.,1.));
#637=DIRECTION('ref_axis',(0.170262096024782,-0.985398811982868,0.));
#638=DIRECTION('center_axis',(0.,0.,-1.));
#639=DIRECTION('ref_axis',(0.170262096024782,-0.985398811982868,0.));
#640=DIRECTION('',(0.,0.,1.));
#641=DIRECTION('center_axis',(0.,0.,1.));
#642=DIRECTION('ref_axis',(0.587785252292473,0.809016994374947,0.));
#643=DIRECTION('center_axis',(0.,0.,1.));
#644=DIRECTION('ref_axis',(0.587785252292473,0.809016994374947,0.));
#645=DIRECTION('',(0.,0.,1.));
#646=DIRECTION('',(0.,0.,1.));
#647=DIRECTION('center_axis',(0.,0.,1.));
#648=DIRECTION('ref_axis',(0.998160217910438,0.0606315048550382,0.));
#649=DIRECTION('center_axis',(0.,0.,1.));
#650=DIRECTION('ref_axis',(0.998160217910438,0.0606315048550382,0.));
#651=DIRECTION('',(0.,0.,1.));
#652=DIRECTION('center_axis',(0.,0.,1.));
#653=DIRECTION('ref_axis',(-0.884556080116253,-0.46643385504203,0.));
#654=DIRECTION('center_axis',(0.,0.,-1.));
#655=DIRECTION('ref_axis',(-0.884556080116253,-0.46643385504203,0.));
#656=DIRECTION('',(0.,0.,1.));
#657=DIRECTION('center_axis',(0.,0.,1.));
#658=DIRECTION('ref_axis',(-0.845149685512829,0.534529708320844,0.));
#659=DIRECTION('center_axis',(0.,0.,-1.));
#660=DIRECTION('ref_axis',(-0.845149685512829,0.534529708320844,0.));
#661=DIRECTION('',(0.,0.,1.));
#662=DIRECTION('center_axis',(0.,0.,-1.));
#663=DIRECTION('ref_axis',(-0.769533577865993,-0.638606351782351,0.));
#664=DIRECTION('center_axis',(0.,0.,-1.));
#665=DIRECTION('ref_axis',(0.369551778907331,-0.929210139153909,0.));
#666=DIRECTION('',(0.,0.,1.));
#667=DIRECTION('center_axis',(0.,0.,-1.));
#668=DIRECTION('ref_axis',(0.99792913783371,0.0643229030942155,0.));
#669=DIRECTION('',(0.,0.,1.));
#670=DIRECTION('center_axis',(0.,0.,-1.));
#671=DIRECTION('ref_axis',(-0.247202346637781,-0.9689638795212,0.));
#672=DIRECTION('',(0.,0.,1.));
#673=DIRECTION('',(0.,0.,1.));
#674=DIRECTION('center_axis',(0.,0.,1.));
#675=DIRECTION('ref_axis',(0.951056516295154,-0.309016994374948,0.));
#676=DIRECTION('center_axis',(0.,0.,1.));
#677=DIRECTION('ref_axis',(0.951056516295154,-0.309016994374948,0.));
#678=DIRECTION('',(0.,0.,1.));
#679=DIRECTION('center_axis',(0.,0.,1.));
#680=DIRECTION('ref_axis',(0.366112458228491,-0.930570614155579,0.));
#681=DIRECTION('center_axis',(0.,0.,1.));
#682=DIRECTION('ref_axis',(0.366112458228491,-0.930570614155579,0.));
#683=DIRECTION('',(0.,0.,1.));
#684=DIRECTION('center_axis',(0.,0.,1.));
#685=DIRECTION('ref_axis',(-0.716947818492001,0.697126836063252,0.));
#686=DIRECTION('center_axis',(0.,0.,-1.));
#687=DIRECTION('ref_axis',(-0.716947818492001,0.697126836063252,0.));
#688=DIRECTION('center_axis',(0.,0.,1.));
#689=DIRECTION('ref_axis',(0.771890275020454,0.63575577333505,0.));
#690=DIRECTION('center_axis',(0.,0.,1.));
#691=DIRECTION('ref_axis',(0.771890275020454,0.63575577333505,0.));
#692=DIRECTION('',(0.,0.,1.));
#693=DIRECTION('',(0.,0.,1.));
#694=DIRECTION('center_axis',(0.,0.,1.));
#695=DIRECTION('ref_axis',(-0.441457960128106,-0.897281934198796,0.));
#696=DIRECTION('center_axis',(0.,0.,-1.));
#697=DIRECTION('ref_axis',(-0.441457960128106,-0.897281934198796,0.));
#698=DIRECTION('center_axis',(0.,0.,1.));
#699=DIRECTION('ref_axis',(3.50293218707424E-17,1.,0.));
#700=DIRECTION('center_axis',(0.,0.,1.));
#701=DIRECTION('ref_axis',(3.50293218707424E-17,1.,0.));
#702=DIRECTION('center_axis',(0.,0.,1.));
#703=DIRECTION('ref_axis',(-1.,0.,0.));
#704=DIRECTION('center_axis',(0.,0.,1.));
#705=DIRECTION('ref_axis',(-1.,0.,0.));
#706=DIRECTION('',(0.,0.,1.));
#707=DIRECTION('center_axis',(0.,0.,1.));
#708=DIRECTION('ref_axis',(-1.,0.,0.));
#709=DIRECTION('',(0.,0.,-1.));
#710=DIRECTION('center_axis',(0.,0.,-1.));
#711=DIRECTION('ref_axis',(-1.,0.,0.));
#712=DIRECTION('center_axis',(0.,0.,1.));
#713=DIRECTION('ref_axis',(1.,0.,0.));
#714=CARTESIAN_POINT('',(0.,0.,0.));
#715=CARTESIAN_POINT('Origin',(-2.18992762594286E-17,3.27780786641381E-18,
0.5));
#716=CARTESIAN_POINT('',(0.21875,2.67891487313483E-17,0.5));
#717=CARTESIAN_POINT('',(0.184876493705931,-0.116928373695185,0.5));
#718=CARTESIAN_POINT('Origin',(0.,0.,0.5));
#719=CARTESIAN_POINT('Origin',(0.,0.,0.5));
#720=CARTESIAN_POINT('',(0.09375,1.14810637420064E-17,0.5));
#721=CARTESIAN_POINT('Origin',(0.,0.,0.5));
#722=CARTESIAN_POINT('Origin',(-1.31574798296101E-16,-2.88331039149442E-17,
0.25));
#723=CARTESIAN_POINT('',(1.591549431,1.94908591635894E-16,0.25));
#724=CARTESIAN_POINT('Origin',(0.,0.,0.25));
#725=CARTESIAN_POINT('',(-0.184876493705931,0.116928373695185,0.25));
#726=CARTESIAN_POINT('',(-5.11960101057959E-18,0.21875,0.25));
#727=CARTESIAN_POINT('Origin',(0.,0.,0.25));
#728=CARTESIAN_POINT('',(0.,1.466549431,0.25));
#729=CARTESIAN_POINT('Origin',(-2.18547839493141E-17,0.8426497155,0.25));
#730=CARTESIAN_POINT('',(1.13201524362568,0.932367267639482,0.25));
#731=CARTESIAN_POINT('Origin',(0.,0.,0.25));
#732=CARTESIAN_POINT('',(0.0540755133270145,0.211960848645263,0.25));
#733=CARTESIAN_POINT('Origin',(0.801407502880532,0.260393082394714,0.25));
#734=CARTESIAN_POINT('',(0.208043612939565,0.0675974675195198,0.25));
#735=CARTESIAN_POINT('Origin',(0.,0.,0.25));
#736=CARTESIAN_POINT('',(1.3947713928215,0.453188697269909,0.25));
#737=CARTESIAN_POINT('Origin',(0.801407502880532,0.260393082394714,0.25));
#738=CARTESIAN_POINT('',(1.23654591364067,-0.788493143296114,0.25));
#739=CARTESIAN_POINT('Origin',(0.,0.,0.25));
#740=CARTESIAN_POINT('',(0.218296998901124,0.0140706350518596,0.25));
#741=CARTESIAN_POINT('Origin',(0.495297075619348,-0.681717940144714,0.25));
#742=CARTESIAN_POINT('',(0.184876493705931,-0.116928373695185,0.25));
#743=CARTESIAN_POINT('Origin',(0.,0.,0.25));
#744=CARTESIAN_POINT('',(0.128578023938979,-0.17697246751952,0.25));
#745=CARTESIAN_POINT('Origin',(0.,0.,0.25));
#746=CARTESIAN_POINT('',(0.862016127299718,-1.18646341276991,0.25));
#747=CARTESIAN_POINT('Origin',(0.495297075619348,-0.681717940144714,0.25));
#748=CARTESIAN_POINT('',(-0.367787840345955,-1.41968283009272,0.25));
#749=CARTESIAN_POINT('Origin',(0.,0.,0.25));
#750=CARTESIAN_POINT('',(0.0808394516359787,-0.203264717939918,0.25));
#751=CARTESIAN_POINT('Origin',(-0.495297075619348,-0.681717940144714,0.25));
#752=CARTESIAN_POINT('',(-0.128578023938979,-0.17697246751952,0.25));
#753=CARTESIAN_POINT('Origin',(0.,0.,0.25));
#754=CARTESIAN_POINT('',(-0.862016127299718,-1.18646341276991,0.25));
#755=CARTESIAN_POINT('Origin',(-0.495297075619348,-0.681717940144714,0.25));
#756=CARTESIAN_POINT('',(-1.46385129962339,-0.08891909894583,0.25));
#757=CARTESIAN_POINT('Origin',(0.,0.,0.25));
#758=CARTESIAN_POINT('',(-0.168335470158186,-0.139695139452389,0.25));
#759=CARTESIAN_POINT('Origin',(-0.801407502880532,0.260393082394715,0.25));
#760=CARTESIAN_POINT('',(-0.208043612939565,0.0675974675195198,0.25));
#761=CARTESIAN_POINT('Origin',(0.,0.,0.25));
#762=CARTESIAN_POINT('',(-1.3947713928215,0.453188697269909,0.25));
#763=CARTESIAN_POINT('Origin',(-0.801407502880532,0.260393082394715,0.25));
#764=CARTESIAN_POINT('',(-0.536922017297005,1.36472780469518,0.25));
#765=CARTESIAN_POINT('Origin',(0.,0.,0.25));
#766=CARTESIAN_POINT('Origin',(-2.18547839493141E-17,0.8426497155,0.25));
#767=CARTESIAN_POINT('Origin',(0.801407502880532,0.260393082394714,0.));
#768=CARTESIAN_POINT('',(1.3947713928215,0.453188697269909,0.));
#769=CARTESIAN_POINT('',(0.208043612939565,0.0675974675195197,0.));
#770=CARTESIAN_POINT('Origin',(0.801407502880532,0.260393082394714,0.));
#771=CARTESIAN_POINT('',(1.3947713928215,0.453188697269909,0.));
#772=CARTESIAN_POINT('',(0.208043612939565,0.0675974675195197,0.));
#773=CARTESIAN_POINT('Origin',(0.,0.,0.));
#774=CARTESIAN_POINT('',(1.23654591364067,-0.788493143296114,0.));
#775=CARTESIAN_POINT('Origin',(0.,0.,0.));
#776=CARTESIAN_POINT('',(1.23654591364067,-0.788493143296114,0.));
#777=CARTESIAN_POINT('Origin',(0.495297075619348,-0.681717940144714,0.));
#778=CARTESIAN_POINT('',(0.218296998901124,0.0140706350518596,0.));
#779=CARTESIAN_POINT('Origin',(0.495297075619348,-0.681717940144714,0.));
#780=CARTESIAN_POINT('',(0.218296998901124,0.0140706350518596,0.));
#781=CARTESIAN_POINT('Origin',(0.495297075619348,-0.681717940144714,0.));
#782=CARTESIAN_POINT('',(0.862016127299718,-1.18646341276991,0.));
#783=CARTESIAN_POINT('',(0.128578023938979,-0.17697246751952,0.));
#784=CARTESIAN_POINT('Origin',(0.495297075619348,-0.681717940144714,0.));
#785=CARTESIAN_POINT('',(0.862016127299718,-1.18646341276991,0.));
#786=CARTESIAN_POINT('',(0.128578023938979,-0.17697246751952,0.));
#787=CARTESIAN_POINT('Origin',(0.,0.,0.));
#788=CARTESIAN_POINT('',(-0.367787840345955,-1.41968283009272,0.));
#789=CARTESIAN_POINT('Origin',(0.,0.,0.));
#790=CARTESIAN_POINT('',(-0.367787840345955,-1.41968283009272,0.));
#791=CARTESIAN_POINT('Origin',(-0.495297075619348,-0.681717940144714,0.));
#792=CARTESIAN_POINT('',(0.0808394516359787,-0.203264717939918,0.));
#793=CARTESIAN_POINT('Origin',(-0.495297075619348,-0.681717940144714,0.));
#794=CARTESIAN_POINT('',(0.0808394516359787,-0.203264717939918,0.));
#795=CARTESIAN_POINT('Origin',(-0.495297075619348,-0.681717940144714,0.));
#796=CARTESIAN_POINT('',(-0.862016127299718,-1.18646341276991,0.));
#797=CARTESIAN_POINT('',(-0.128578023938979,-0.17697246751952,0.));
#798=CARTESIAN_POINT('Origin',(-0.495297075619348,-0.681717940144714,0.));
#799=CARTESIAN_POINT('',(-0.862016127299718,-1.18646341276991,0.));
#800=CARTESIAN_POINT('',(-0.128578023938979,-0.17697246751952,0.));
#801=CARTESIAN_POINT('Origin',(0.,0.,0.));
#802=CARTESIAN_POINT('',(-1.46385129962339,-0.08891909894583,0.));
#803=CARTESIAN_POINT('Origin',(0.,0.,0.));
#804=CARTESIAN_POINT('',(-1.46385129962339,-0.08891909894583,0.));
#805=CARTESIAN_POINT('Origin',(-0.801407502880532,0.260393082394715,0.));
#806=CARTESIAN_POINT('',(-0.168335470158186,-0.139695139452389,0.));
#807=CARTESIAN_POINT('Origin',(-0.801407502880532,0.260393082394715,0.));
#808=CARTESIAN_POINT('',(-0.168335470158186,-0.139695139452389,0.));
#809=CARTESIAN_POINT('Origin',(0.,0.,0.));
#810=CARTESIAN_POINT('',(-0.208043612939565,0.0675974675195198,0.));
#811=CARTESIAN_POINT('',(-0.184876493705931,0.116928373695185,0.));
#812=CARTESIAN_POINT('Origin',(0.,0.,0.));
#813=CARTESIAN_POINT('',(-0.208043612939565,0.0675974675195198,0.));
#814=CARTESIAN_POINT('Origin',(0.,0.,0.));
#815=CARTESIAN_POINT('Origin',(0.,0.,0.));
#816=CARTESIAN_POINT('',(0.184876493705931,-0.116928373695185,0.));
#817=CARTESIAN_POINT('Origin',(0.,0.,0.));
#818=CARTESIAN_POINT('',(0.0540755133270145,0.211960848645262,0.));
#819=CARTESIAN_POINT('',(0.0540755133270145,0.211960848645262,0.));
#820=CARTESIAN_POINT('',(-5.11960101057959E-18,0.21875,0.));
#821=CARTESIAN_POINT('Origin',(0.,0.,0.));
#822=CARTESIAN_POINT('',(-5.11960101057959E-18,0.21875,0.));
#823=CARTESIAN_POINT('',(-0.184876493705931,0.116928373695185,0.));
#824=CARTESIAN_POINT('Origin',(-0.801407502880532,0.260393082394715,0.));
#825=CARTESIAN_POINT('',(-1.3947713928215,0.453188697269909,0.));
#826=CARTESIAN_POINT('Origin',(-0.801407502880532,0.260393082394715,0.));
#827=CARTESIAN_POINT('',(-1.3947713928215,0.453188697269909,0.));
#828=CARTESIAN_POINT('Origin',(0.,0.,0.));
#829=CARTESIAN_POINT('',(-0.536922017297005,1.36472780469518,0.));
#830=CARTESIAN_POINT('Origin',(0.,0.,0.));
#831=CARTESIAN_POINT('',(-0.536922017297005,1.36472780469518,0.));
#832=CARTESIAN_POINT('Origin',(-2.18547839493141E-17,0.8426497155,0.));
#833=CARTESIAN_POINT('Origin',(-2.18547839493141E-17,0.8426497155,0.));
#834=CARTESIAN_POINT('Origin',(0.,0.,0.));
#835=CARTESIAN_POINT('',(1.13201524362568,0.932367267639482,0.));
#836=CARTESIAN_POINT('',(0.,1.466549431,0.));
#837=CARTESIAN_POINT('Origin',(0.,0.,0.));
#838=CARTESIAN_POINT('',(1.13201524362568,0.932367267639482,0.));
#839=CARTESIAN_POINT('',(0.,1.466549431,0.));
#840=CARTESIAN_POINT('Origin',(0.801407502880532,0.260393082394714,0.));
#841=CARTESIAN_POINT('Origin',(0.801407502880532,0.260393082394714,0.));
#842=CARTESIAN_POINT('Origin',(-2.18547839493141E-17,0.8426497155,0.));
#843=CARTESIAN_POINT('Origin',(-2.18547839493141E-17,0.8426497155,0.));
#844=CARTESIAN_POINT('Origin',(0.,0.,0.));
#845=CARTESIAN_POINT('',(0.09375,1.14810637420064E-17,0.));
#846=CARTESIAN_POINT('Origin',(0.,0.,0.));
#847=CARTESIAN_POINT('',(0.09375,1.14810637420064E-17,0.));
#848=CARTESIAN_POINT('Origin',(0.,0.,0.));
#849=CARTESIAN_POINT('',(1.591549431,1.94908591635894E-16,0.));
#850=CARTESIAN_POINT('',(1.591549431,1.94908591635894E-16,0.));
#851=CARTESIAN_POINT('Origin',(0.,0.,0.));
#852=CARTESIAN_POINT('Origin',(-1.31574798296101E-16,-2.88331039149442E-17,
0.));
#853=UNCERTAINTY_MEASURE_WITH_UNIT(LENGTH_MEASURE(0.000393700787401575),
#858,'DISTANCE_ACCURACY_VALUE',
'Maximum model space distance between geometric entities at asserted c
onnectivities');
#854=UNCERTAINTY_MEASURE_WITH_UNIT(LENGTH_MEASURE(0.000393700787401575),
#858,'DISTANCE_ACCURACY_VALUE',
'Maximum model space distance between geometric entities at asserted c
onnectivities');
#855=(
GEOMETRIC_REPRESENTATION_CONTEXT(3)
GLOBAL_UNCERTAINTY_ASSIGNED_CONTEXT((#853))
GLOBAL_UNIT_ASSIGNED_CONTEXT((#858,#863,#862))
REPRESENTATION_CONTEXT('','3D')
);
#856=(
GEOMETRIC_REPRESENTATION_CONTEXT(3)
GLOBAL_UNCERTAINTY_ASSIGNED_CONTEXT((#854))
GLOBAL_UNIT_ASSIGNED_CONTEXT((#858,#863,#862))
REPRESENTATION_CONTEXT('','3D')
);
#857=DIMENSIONAL_EXPONENTS(1.,0.,0.,0.,0.,0.,0.);
#858=(
CONVERSION_BASED_UNIT('inch',#861)
LENGTH_UNIT()
NAMED_UNIT(#857)
);
#859=(
LENGTH_UNIT()
NAMED_UNIT(*)
SI_UNIT(.MILLI.,.METRE.)
);
#860=(
LENGTH_UNIT()
NAMED_UNIT(*)
SI_UNIT(.CENTI.,.METRE.)
);
#861=LENGTH_MEASURE_WITH_UNIT(LENGTH_MEASURE(25.4),#859);
#862=(
NAMED_UNIT(*)
SI_UNIT($,.STERADIAN.)
SOLID_ANGLE_UNIT()
);
#863=(
NAMED_UNIT(*)
PLANE_ANGLE_UNIT()
SI_UNIT($,.RADIAN.)
);
#864=SHAPE_DEFINITION_REPRESENTATION(#865,#866);
#865=PRODUCT_DEFINITION_SHAPE('',$,#868);
#866=SHAPE_REPRESENTATION('',(#484),#855);
#867=PRODUCT_DEFINITION_CONTEXT('part definition',#872,'design');
#868=PRODUCT_DEFINITION('Wheel','Wheel',#869,#867);
#869=PRODUCT_DEFINITION_FORMATION('',$,#874);
#870=PRODUCT_RELATED_PRODUCT_CATEGORY('Wheel','Wheel',(#874));
#871=APPLICATION_PROTOCOL_DEFINITION('international standard',
'automotive_design',2009,#872);
#872=APPLICATION_CONTEXT(
'Core Data for Automotive Mechanical Design Process');
#873=PRODUCT_CONTEXT('part definition',#872,'mechanical');
#874=PRODUCT('Wheel','Wheel',$,(#873));
#875=PRESENTATION_STYLE_ASSIGNMENT((#876));
#876=SURFACE_STYLE_USAGE(.BOTH.,#877);
#877=SURFACE_SIDE_STYLE('',(#878));
#878=SURFACE_STYLE_FILL_AREA(#879);
#879=FILL_AREA_STYLE('',(#880));
#880=FILL_AREA_STYLE_COLOUR('',#881);
#881=COLOUR_RGB('',0.749019607843137,0.749019607843137,0.749019607843137);
ENDSEC;
END-ISO-10303-21;
