ISO-10303-21;
HEADER;
/* Generated by software containing ST-Developer
 * from STEP Tools, Inc. (www.steptools.com) 
 */
/* OPTION: using custom renumber hook */

FILE_DESCRIPTION(
/* description */ ('STEP AP242 Edition 2',
'CAx-IF Rec.Pracs.---Representation and Presentation of Product Manufa
cturing Information (PMI)---4.0---2014-10-13',
'CAx-IF Rec.Pracs.---3D Tessellated Geometry---0.4---2014-09-14','2;1',
'CAx-IF Rec.Pracs.---User Defined Attributes---1.5---2016-08-15'),
/* implementation_level */ '2;1');

FILE_NAME(
/* name */ '10007',
/* time_stamp */ '2026-07-13T04:31:56Z',
/* author */ (''),
/* organization */ (''),
/* preprocessor_version */ 'ST-DEVELOPER v20',
/* originating_system */ 'ONSHAPE BY PTC INC, 1.217',
/* authorisation */ '  ');

FILE_SCHEMA (('AP242_MANAGED_MODEL_BASED_3D_ENGINEERING_MIM_LF { 1 0 10303 442 3 1 4 }'));
ENDSEC;

DATA;
#10=SHAPE_REPRESENTATION_RELATIONSHIP('','',#171,#11);
#11=ADVANCED_BREP_SHAPE_REPRESENTATION('',(#169),#377);
#12=(
BOUNDED_SURFACE()
B_SPLINE_SURFACE(3,3,((#288,#289,#290,#291,#292),(#293,#294,#295,#296,#297),
(#298,#299,#300,#301,#302),(#303,#304,#305,#306,#307),(#308,#309,#310,#311,
#312),(#313,#314,#315,#316,#317),(#318,#319,#320,#321,#322)),
 .UNSPECIFIED.,.T.,.F.,.F.)
B_SPLINE_SURFACE_WITH_KNOTS((1,3,3,3,1),(4,1,4),(-0.5,0.,0.5,1.,1.5),(0.,
0.559331190816291,1.),.UNSPECIFIED.)
GEOMETRIC_REPRESENTATION_ITEM()
RATIONAL_B_SPLINE_SURFACE(((1.,1.,1.,1.,1.),(0.333333333333333,0.333333333333333,
0.333333333333333,0.333333333333333,0.333333333333333),(0.333333333333333,
0.333333333333333,0.333333333333333,0.333333333333333,0.333333333333333),
(1.,1.,1.,1.,1.),(0.333333333333333,0.333333333333333,0.333333333333333,
0.333333333333333,0.333333333333333),(0.333333333333333,0.333333333333333,
0.333333333333333,0.333333333333333,0.333333333333333),(1.,1.,1.,1.,1.)))
REPRESENTATION_ITEM('')
SURFACE()
);
#13=(
BOUNDED_SURFACE()
B_SPLINE_SURFACE(3,3,((#332,#333,#334,#335,#336),(#337,#338,#339,#340,#341),
(#342,#343,#344,#345,#346),(#347,#348,#349,#350,#351),(#352,#353,#354,#355,
#356),(#357,#358,#359,#360,#361),(#362,#363,#364,#365,#366)),
 .UNSPECIFIED.,.T.,.F.,.F.)
B_SPLINE_SURFACE_WITH_KNOTS((1,3,3,3,1),(4,1,4),(-0.5,0.,0.5,1.,1.5),(0.,
0.559321764812687,1.),.UNSPECIFIED.)
GEOMETRIC_REPRESENTATION_ITEM()
RATIONAL_B_SPLINE_SURFACE(((1.,1.,1.,1.,1.),(0.333333333333333,0.333333333333333,
0.333333333333333,0.333333333333333,0.333333333333333),(0.333333333333333,
0.333333333333333,0.333333333333333,0.333333333333333,0.333333333333333),
(1.,1.,1.,1.,1.),(0.333333333333333,0.333333333333333,0.333333333333333,
0.333333333333333,0.333333333333333),(0.333333333333333,0.333333333333333,
0.333333333333333,0.333333333333333,0.333333333333333),(1.,1.,1.,1.,1.)))
REPRESENTATION_ITEM('')
SURFACE()
);
#14=PLANE('',#193);
#15=PLANE('',#195);
#16=ELLIPSE('',#188,0.000100202637667993,0.0001);
#17=(
BOUNDED_CURVE()
B_SPLINE_CURVE(3,(#259,#260,#261,#262,#263,#264,#265),.UNSPECIFIED.,.T.,
 .F.)
B_SPLINE_CURVE_WITH_KNOTS((1,3,3,3,1),(-0.5,0.,0.5,1.,1.5),
 .PIECEWISE_BEZIER_KNOTS.)
CURVE()
GEOMETRIC_REPRESENTATION_ITEM()
RATIONAL_B_SPLINE_CURVE((1.,0.333333333333333,0.333333333333333,1.,0.333333333333333,
0.333333333333333,1.))
REPRESENTATION_ITEM('')
);
#18=(
BOUNDED_CURVE()
B_SPLINE_CURVE(3,(#323,#324,#325,#326,#327,#328,#329),.UNSPECIFIED.,.T.,
 .F.)
B_SPLINE_CURVE_WITH_KNOTS((1,3,3,3,1),(-0.5,0.,0.5,1.,1.5),
 .PIECEWISE_BEZIER_KNOTS.)
CURVE()
GEOMETRIC_REPRESENTATION_ITEM()
RATIONAL_B_SPLINE_CURVE((1.,0.333333333333333,0.333333333333333,1.,0.333333333333333,
0.333333333333333,1.))
REPRESENTATION_ITEM('')
);
#19=(
BOUNDED_CURVE()
B_SPLINE_CURVE(3,(#367,#368,#369,#370,#371,#372,#373),.UNSPECIFIED.,.T.,
 .F.)
B_SPLINE_CURVE_WITH_KNOTS((1,3,3,3,1),(-0.5,0.,0.5,1.,1.5),
 .PIECEWISE_BEZIER_KNOTS.)
CURVE()
GEOMETRIC_REPRESENTATION_ITEM()
RATIONAL_B_SPLINE_CURVE((1.,0.333333333333333,0.333333333333333,1.,0.333333333333333,
0.333333333333333,1.))
REPRESENTATION_ITEM('')
);
#20=TOROIDAL_SURFACE('',#176,0.000199127859616387,0.0001);
#21=TOROIDAL_SURFACE('',#180,0.000117608412372625,0.0001);
#22=TOROIDAL_SURFACE('',#184,0.000117608412372625,0.0001);
#23=TOROIDAL_SURFACE('',#189,0.000199127859616408,0.0001);
#24=ORIENTED_EDGE('',*,*,#52,.F.);
#25=ORIENTED_EDGE('',*,*,#53,.T.);
#26=ORIENTED_EDGE('',*,*,#54,.F.);
#27=ORIENTED_EDGE('',*,*,#52,.T.);
#28=ORIENTED_EDGE('',*,*,#55,.T.);
#29=ORIENTED_EDGE('',*,*,#56,.T.);
#30=ORIENTED_EDGE('',*,*,#57,.T.);
#31=ORIENTED_EDGE('',*,*,#55,.F.);
#32=ORIENTED_EDGE('',*,*,#58,.T.);
#33=ORIENTED_EDGE('',*,*,#57,.F.);
#34=ORIENTED_EDGE('',*,*,#59,.T.);
#35=ORIENTED_EDGE('',*,*,#58,.F.);
#36=ORIENTED_EDGE('',*,*,#60,.F.);
#37=ORIENTED_EDGE('',*,*,#61,.F.);
#38=ORIENTED_EDGE('',*,*,#62,.F.);
#39=ORIENTED_EDGE('',*,*,#60,.T.);
#40=ORIENTED_EDGE('',*,*,#62,.T.);
#41=ORIENTED_EDGE('',*,*,#63,.F.);
#42=ORIENTED_EDGE('',*,*,#63,.T.);
#43=ORIENTED_EDGE('',*,*,#61,.T.);
#44=ORIENTED_EDGE('',*,*,#64,.T.);
#45=ORIENTED_EDGE('',*,*,#64,.F.);
#46=ORIENTED_EDGE('',*,*,#59,.F.);
#47=ORIENTED_EDGE('',*,*,#56,.F.);
#48=ORIENTED_EDGE('',*,*,#65,.F.);
#49=ORIENTED_EDGE('',*,*,#53,.F.);
#50=ORIENTED_EDGE('',*,*,#65,.T.);
#51=ORIENTED_EDGE('',*,*,#54,.T.);
#52=EDGE_CURVE('',#66,#66,#80,.T.);
#53=EDGE_CURVE('',#67,#67,#81,.T.);
#54=EDGE_CURVE('',#68,#68,#82,.T.);
#55=EDGE_CURVE('',#69,#69,#83,.T.);
#56=EDGE_CURVE('',#70,#70,#17,.T.);
#57=EDGE_CURVE('',#71,#71,#84,.T.);
#58=EDGE_CURVE('',#72,#72,#85,.T.);
#59=EDGE_CURVE('',#73,#73,#86,.T.);
#60=EDGE_CURVE('',#74,#74,#87,.T.);
#61=EDGE_CURVE('',#75,#75,#16,.T.);
#62=EDGE_CURVE('',#76,#76,#88,.T.);
#63=EDGE_CURVE('',#77,#77,#89,.T.);
#64=EDGE_CURVE('',#78,#78,#18,.T.);
#65=EDGE_CURVE('',#79,#79,#19,.F.);
#66=VERTEX_POINT('',#250);
#67=VERTEX_POINT('',#252);
#68=VERTEX_POINT('',#255);
#69=VERTEX_POINT('',#258);
#70=VERTEX_POINT('',#266);
#71=VERTEX_POINT('',#269);
#72=VERTEX_POINT('',#272);
#73=VERTEX_POINT('',#275);
#74=VERTEX_POINT('',#278);
#75=VERTEX_POINT('',#280);
#76=VERTEX_POINT('',#283);
#77=VERTEX_POINT('',#286);
#78=VERTEX_POINT('',#330);
#79=VERTEX_POINT('',#374);
#80=CIRCLE('',#174,0.0001);
#81=CIRCLE('',#175,0.0001);
#82=CIRCLE('',#177,0.0001);
#83=CIRCLE('',#179,0.0001);
#84=CIRCLE('',#181,0.0001);
#85=CIRCLE('',#183,0.0001);
#86=CIRCLE('',#185,0.0001);
#87=CIRCLE('',#187,0.0001);
#88=CIRCLE('',#190,0.0001);
#89=CIRCLE('',#192,0.0001);
#90=EDGE_LOOP('',(#24));
#91=EDGE_LOOP('',(#25));
#92=EDGE_LOOP('',(#26));
#93=EDGE_LOOP('',(#27));
#94=EDGE_LOOP('',(#28));
#95=EDGE_LOOP('',(#29));
#96=EDGE_LOOP('',(#30));
#97=EDGE_LOOP('',(#31));
#98=EDGE_LOOP('',(#32));
#99=EDGE_LOOP('',(#33));
#100=EDGE_LOOP('',(#34));
#101=EDGE_LOOP('',(#35));
#102=EDGE_LOOP('',(#36));
#103=EDGE_LOOP('',(#37));
#104=EDGE_LOOP('',(#38));
#105=EDGE_LOOP('',(#39));
#106=EDGE_LOOP('',(#40));
#107=EDGE_LOOP('',(#41));
#108=EDGE_LOOP('',(#42));
#109=EDGE_LOOP('',(#43));
#110=EDGE_LOOP('',(#44));
#111=EDGE_LOOP('',(#45));
#112=EDGE_LOOP('',(#46));
#113=EDGE_LOOP('',(#47));
#114=EDGE_LOOP('',(#48));
#115=EDGE_LOOP('',(#49));
#116=EDGE_LOOP('',(#50));
#117=EDGE_LOOP('',(#51));
#118=FACE_BOUND('',#90,.T.);
#119=FACE_BOUND('',#91,.T.);
#120=FACE_BOUND('',#92,.T.);
#121=FACE_BOUND('',#93,.T.);
#122=FACE_BOUND('',#94,.T.);
#123=FACE_BOUND('',#95,.T.);
#124=FACE_BOUND('',#96,.T.);
#125=FACE_BOUND('',#97,.T.);
#126=FACE_BOUND('',#98,.T.);
#127=FACE_BOUND('',#99,.T.);
#128=FACE_BOUND('',#100,.T.);
#129=FACE_BOUND('',#101,.T.);
#130=FACE_BOUND('',#102,.T.);
#131=FACE_BOUND('',#103,.T.);
#132=FACE_BOUND('',#104,.T.);
#133=FACE_BOUND('',#105,.T.);
#134=FACE_BOUND('',#106,.T.);
#135=FACE_BOUND('',#107,.T.);
#136=FACE_BOUND('',#108,.T.);
#137=FACE_BOUND('',#109,.T.);
#138=FACE_BOUND('',#110,.T.);
#139=FACE_BOUND('',#111,.T.);
#140=FACE_BOUND('',#112,.T.);
#141=FACE_BOUND('',#113,.T.);
#142=FACE_BOUND('',#114,.T.);
#143=FACE_BOUND('',#115,.T.);
#144=FACE_BOUND('',#116,.T.);
#145=FACE_BOUND('',#117,.T.);
#146=CYLINDRICAL_SURFACE('',#173,0.0001);
#147=CYLINDRICAL_SURFACE('',#178,0.0001);
#148=CYLINDRICAL_SURFACE('',#182,0.0001);
#149=CYLINDRICAL_SURFACE('',#186,0.0001);
#150=CYLINDRICAL_SURFACE('',#191,0.0001);
#151=CYLINDRICAL_SURFACE('',#194,9.99999999999977E-5);
#152=CYLINDRICAL_SURFACE('',#196,0.0001);
#153=ADVANCED_FACE('',(#118,#119),#146,.T.);
#154=ADVANCED_FACE('',(#120,#121),#20,.T.);
#155=ADVANCED_FACE('',(#122,#123),#147,.T.);
#156=ADVANCED_FACE('',(#124,#125),#21,.T.);
#157=ADVANCED_FACE('',(#126,#127),#148,.T.);
#158=ADVANCED_FACE('',(#128,#129),#22,.T.);
#159=ADVANCED_FACE('',(#130,#131),#149,.T.);
#160=ADVANCED_FACE('',(#132,#133),#23,.T.);
#161=ADVANCED_FACE('',(#134,#135),#150,.T.);
#162=ADVANCED_FACE('',(#136),#14,.T.);
#163=ADVANCED_FACE('',(#137,#138),#12,.T.);
#164=ADVANCED_FACE('',(#139,#140),#151,.T.);
#165=ADVANCED_FACE('',(#141,#142),#13,.F.);
#166=ADVANCED_FACE('',(#143),#15,.F.);
#167=ADVANCED_FACE('',(#144,#145),#152,.T.);
#168=CLOSED_SHELL('',(#153,#154,#155,#156,#157,#158,#159,#160,#161,#162,
#163,#164,#165,#166,#167));
#169=MANIFOLD_SOLID_BREP('',#168);
#170=SHAPE_DEFINITION_REPRESENTATION(#382,#171);
#171=SHAPE_REPRESENTATION('id2',(#172),#377);
#172=AXIS2_PLACEMENT_3D('',#247,#197,#198);
#173=AXIS2_PLACEMENT_3D('',#248,#199,#200);
#174=AXIS2_PLACEMENT_3D('',#249,#201,#202);
#175=AXIS2_PLACEMENT_3D('',#251,#203,#204);
#176=AXIS2_PLACEMENT_3D('',#253,#205,#206);
#177=AXIS2_PLACEMENT_3D('',#254,#207,#208);
#178=AXIS2_PLACEMENT_3D('',#256,#209,#210);
#179=AXIS2_PLACEMENT_3D('',#257,#211,#212);
#180=AXIS2_PLACEMENT_3D('',#267,#213,#214);
#181=AXIS2_PLACEMENT_3D('',#268,#215,#216);
#182=AXIS2_PLACEMENT_3D('',#270,#217,#218);
#183=AXIS2_PLACEMENT_3D('',#271,#219,#220);
#184=AXIS2_PLACEMENT_3D('',#273,#221,#222);
#185=AXIS2_PLACEMENT_3D('',#274,#223,#224);
#186=AXIS2_PLACEMENT_3D('',#276,#225,#226);
#187=AXIS2_PLACEMENT_3D('',#277,#227,#228);
#188=AXIS2_PLACEMENT_3D('',#279,#229,#230);
#189=AXIS2_PLACEMENT_3D('',#281,#231,#232);
#190=AXIS2_PLACEMENT_3D('',#282,#233,#234);
#191=AXIS2_PLACEMENT_3D('',#284,#235,#236);
#192=AXIS2_PLACEMENT_3D('',#285,#237,#238);
#193=AXIS2_PLACEMENT_3D('',#287,#239,#240);
#194=AXIS2_PLACEMENT_3D('',#331,#241,#242);
#195=AXIS2_PLACEMENT_3D('',#375,#243,#244);
#196=AXIS2_PLACEMENT_3D('',#376,#245,#246);
#197=DIRECTION('',(0.,0.,1.));
#198=DIRECTION('',(1.,0.,0.));
#199=DIRECTION('',(0.,7.97207479768753E-18,1.));
#200=DIRECTION('',(0.,-1.,7.97207479768754E-18));
#201=DIRECTION('',(1.89936920145532E-15,-2.89149453480447E-15,-1.));
#202=DIRECTION('',(-0.99127859616408,0.131782945736434,-2.27595720048157E-15));
#203=DIRECTION('',(1.89936920145532E-15,-2.89149453480447E-15,-1.));
#204=DIRECTION('',(-0.99127859616408,0.131782945736434,-2.27595720048157E-15));
#205=DIRECTION('',(-0.99127859616408,0.131782945736434,0.));
#206=DIRECTION('',(-0.131782945736434,-0.99127859616408,0.));
#207=DIRECTION('',(0.131782945736436,0.991278596164079,1.98652593983437E-15));
#208=DIRECTION('',(-0.991278596164079,0.131782945736436,0.));
#209=DIRECTION('',(-0.131782945736434,-0.976218846897443,-0.172133721784126));
#210=DIRECTION('',(0.,0.173648177666931,-0.984807753012208));
#211=DIRECTION('',(-0.131782945736443,-0.976218846897444,-0.172133721784116));
#212=DIRECTION('',(1.80411241501588E-15,-0.173648177666921,0.98480775301221));
#213=DIRECTION('',(0.,0.173648177666927,-0.984807753012209));
#214=DIRECTION('',(0.,0.984807753012209,0.173648177666927));
#215=DIRECTION('',(1.,-6.93889390390723E-15,4.99600361081321E-15));
#216=DIRECTION('',(-6.13398221105399E-15,-0.173648177666926,0.984807753012209));
#217=DIRECTION('',(1.,-7.98803657308447E-16,4.9925228581778E-17));
#218=DIRECTION('',(7.98803657308447E-16,1.,0.));
#219=DIRECTION('',(1.,-6.93889390390723E-15,4.99600361081321E-15));
#220=DIRECTION('',(-6.13398221105399E-15,-0.173648177666926,0.984807753012209));
#221=DIRECTION('',(0.,0.173648177666927,-0.984807753012209));
#222=DIRECTION('',(0.,0.984807753012209,0.173648177666927));
#223=DIRECTION('',(-0.131782945736431,0.976218846897443,0.172133721784128));
#224=DIRECTION('',(0.,-0.173648177666933,0.984807753012208));
#225=DIRECTION('',(-0.131782945736434,0.991278596164079,-2.42549108482878E-17));
#226=DIRECTION('',(-0.991278596164079,-0.131782945736434,0.));
#227=DIRECTION('',(0.131782945736434,-0.99127859616408,1.04973287714338E-14));
#228=DIRECTION('',(0.982633255213028,0.130633613447978,-0.131782945736434));
#229=DIRECTION('',(-0.194526739257409,0.980897215230344,2.94488834351061E-5));
#230=DIRECTION('',(0.980897108163614,0.194526731905408,-0.000462353176904689));
#231=DIRECTION('',(0.99127859616408,0.131782945736434,-1.35525271560688E-16));
#232=DIRECTION('',(-0.131782945736434,0.99127859616408,0.));
#233=DIRECTION('',(0.,0.,1.));
#234=DIRECTION('',(1.,0.,0.));
#235=DIRECTION('',(6.37765983815003E-17,-1.0508141981256E-16,1.));
#236=DIRECTION('',(0.,-1.,-1.0508141981256E-16));
#237=DIRECTION('',(0.,0.,1.));
#238=DIRECTION('',(1.,0.,0.));
#239=DIRECTION('',(0.,0.,1.));
#240=DIRECTION('',(1.,0.,0.));
#241=DIRECTION('',(0.131782945736433,-0.976218846897443,-0.172133721784126));
#242=DIRECTION('',(0.,0.17364817766693,-0.984807753012208));
#243=DIRECTION('',(1.86725738173972E-15,-2.92079299656657E-15,-1.));
#244=DIRECTION('',(-0.99127859616408,0.131782945736434,-2.24820162486594E-15));
#245=DIRECTION('',(-0.131782945736434,-0.991278596164079,-1.36145015512186E-16));
#246=DIRECTION('',(0.991278596164079,-0.131782945736434,0.));
#247=CARTESIAN_POINT('',(0.,0.,0.));
#248=CARTESIAN_POINT('',(0.000350000000000152,-0.0001,0.0001));
#249=CARTESIAN_POINT('',(0.000350000000000152,-0.0001,0.0001));
#250=CARTESIAN_POINT('',(0.000250872140383744,-8.68217054263566E-5,9.99999999999998E-5));
#251=CARTESIAN_POINT('',(0.000350000000000152,-0.0001,0.0018));
#252=CARTESIAN_POINT('',(0.000250872140383744,-8.68217054263566E-5,0.0018));
#253=CARTESIAN_POINT('',(0.00037624165591859,9.7391185137691E-5,0.0001));
#254=CARTESIAN_POINT('',(0.00037624165591859,9.73911851376908E-5,-9.91278596163876E-5));
#255=CARTESIAN_POINT('',(0.000277113796302182,0.000110569479711334,-9.91278596163876E-5));
#256=CARTESIAN_POINT('',(0.00120240864931992,0.00624335833757032,0.000298245940234091));
#257=CARTESIAN_POINT('',(0.00120240864931992,0.00624335833757032,0.000298245940234091));
#258=CARTESIAN_POINT('',(0.00120240864931992,0.00622599351980363,0.000396726715535312));
#259=CARTESIAN_POINT('',(0.000998853683453174,0.00398818110698593,-9.94496955048382E-5));
#260=CARTESIAN_POINT('',(0.000998761833545386,0.00402292276402977,-0.000296409104595756));
#261=CARTESIAN_POINT('',(0.000802184878507585,0.00406129860006108,-0.000289548321881181));
#262=CARTESIAN_POINT('',(0.000802276728415373,0.00402655694301725,-9.25889127902628E-5));
#263=CARTESIAN_POINT('',(0.000802368578323165,0.00399181528597341,0.000104370496300655));
#264=CARTESIAN_POINT('',(0.000998945533360966,0.0039534394499421,9.75097135860796E-5));
#265=CARTESIAN_POINT('',(0.000998853683453174,0.00398818110698593,-9.94496955048382E-5));
#266=CARTESIAN_POINT('',(0.000998853683453174,0.00398818110698593,-9.94496955048382E-5));
#267=CARTESIAN_POINT('',(0.0010858259474061,0.00625862165925643,0.000300937275662585));
#268=CARTESIAN_POINT('',(0.0010858259474061,0.00637444333558045,0.000321359762149392));
#269=CARTESIAN_POINT('',(0.0010858259474061,0.00635707851781376,0.000419840537450613));
#270=CARTESIAN_POINT('',(-0.0010858259474061,0.00637444333558045,0.000321359762149392));
#271=CARTESIAN_POINT('',(-0.0010858259474061,0.00637444333558045,0.000321359762149392));
#272=CARTESIAN_POINT('',(-0.0010858259474061,0.00635707851781376,0.000419840537450613));
#273=CARTESIAN_POINT('',(-0.0010858259474061,0.00625862165925644,0.000300937275662585));
#274=CARTESIAN_POINT('',(-0.00120240864931992,0.00624335833757033,0.000298245940234091));
#275=CARTESIAN_POINT('',(-0.00120240864931992,0.00622599351980364,0.000396726715535312));
#276=CARTESIAN_POINT('',(-0.000376241655918441,9.73911851377086E-5,-9.91278596164078E-5));
#277=CARTESIAN_POINT('',(-0.000376241655918441,9.73911851377086E-5,-9.91278596164078E-5));
#278=CARTESIAN_POINT('',(-0.000277978330397138,0.000110454546482506,-0.000112306154190051));
#279=CARTESIAN_POINT('',(-0.000891571113557251,0.00397372782699625,-9.91278596164079E-5));
#280=CARTESIAN_POINT('',(-0.00079328263603835,0.00399321991863011,-9.91741886242679E-5));
#281=CARTESIAN_POINT('',(-0.000376241655918442,9.73911851377107E-5,0.0001));
#282=CARTESIAN_POINT('',(-0.00035,-0.0001,0.0001));
#283=CARTESIAN_POINT('',(-0.00025,-0.0001,0.0001));
#284=CARTESIAN_POINT('',(-0.00035,-0.0001,0.0001));
#285=CARTESIAN_POINT('',(-0.00035,-0.0001,0.0018));
#286=CARTESIAN_POINT('',(-0.00025,-0.0001,0.0018));
#287=CARTESIAN_POINT('',(-0.00035,-0.0001,0.0018));
#288=CARTESIAN_POINT('',(-0.000793282636038349,0.0039932199186301,-9.91741886242679E-5));
#289=CARTESIAN_POINT('',(-0.000794948564272785,0.00399947101103212,-9.88418047525957E-5));
#290=CARTESIAN_POINT('',(-0.0007980101730222,0.00401106235800287,-9.93206987485209E-5));
#291=CARTESIAN_POINT('',(-0.000801049718369058,0.00402235544232636,-9.78038724099919E-5));
#292=CARTESIAN_POINT('',(-0.000802375980939512,0.00402731999103552,-9.71000125676045E-5));
#293=CARTESIAN_POINT('',(-0.000793374485946097,0.00399320770788384,-0.000299174167160497));
#294=CARTESIAN_POINT('',(-0.000794993691652819,0.00399923489514231,-0.000298251211246527));
#295=CARTESIAN_POINT('',(-0.00080248788239362,0.00402757086013122,-0.000299270640378896));
#296=CARTESIAN_POINT('',(-0.000810002440721566,0.00405553876922169,-0.000295315012521436));
#297=CARTESIAN_POINT('',(-0.00081127774662265,0.00406027019487813,-0.000294166959416065));
#298=CARTESIAN_POINT('',(-0.000989951440983898,0.00395422352461614,-0.000299081509144778));
#299=CARTESIAN_POINT('',(-0.00099157064669062,0.00396025071187461,-0.000298158553230807));
#300=CARTESIAN_POINT('',(-0.000998990099591713,0.00398821766296416,-0.00029809929947285));
#301=CARTESIAN_POINT('',(-0.00100638145985243,0.00401564105322672,-0.000293152852273927));
#302=CARTESIAN_POINT('',(-0.00100765676575351,0.00402037247888316,-0.000292004799168557));
#303=CARTESIAN_POINT('',(-0.00098985959107615,0.00395423573536239,-9.90815306085479E-5));
#304=CARTESIAN_POINT('',(-0.00099150215804673,0.00396037487519263,-9.84538607157266E-5));
#305=CARTESIAN_POINT('',(-0.000994505423256666,0.00397167928723967,-9.81247271416645E-5));
#306=CARTESIAN_POINT('',(-0.000997454215834608,0.00398257428785775,-9.58638087939746E-5));
#307=CARTESIAN_POINT('',(-0.000998755000070377,0.00398742227504055,-9.49378523200959E-5));
#308=CARTESIAN_POINT('',(-0.000989767741168405,0.00395424794610864,0.000100918447927682));
#309=CARTESIAN_POINT('',(-0.000991433669402842,0.00396049903851066,0.000101250831799354));
#310=CARTESIAN_POINT('',(-0.000990020746921621,0.00395514091151517,0.000101849845189521));
#311=CARTESIAN_POINT('',(-0.000988526971816789,0.00394950752248878,0.000101425234685978));
#312=CARTESIAN_POINT('',(-0.000989853234387241,0.00395447207119794,0.000102129094528365));
#313=CARTESIAN_POINT('',(-0.000793190786130604,0.00399323212937637,0.000100825789911962));
#314=CARTESIAN_POINT('',(-0.000794903436892753,0.00399970712692194,0.000100567601741336));
#315=CARTESIAN_POINT('',(-0.000793532463650782,0.00399455385587454,0.000100629242881853));
#316=CARTESIAN_POINT('',(-0.000792096996016555,0.00398917211543103,9.97072677014521E-5));
#317=CARTESIAN_POINT('',(-0.000793474215256378,0.00399436978719291,9.99669342808567E-5));
#318=CARTESIAN_POINT('',(-0.000793282636038349,0.0039932199186301,-9.91741886242679E-5));
#319=CARTESIAN_POINT('',(-0.000794948564272785,0.00399947101103212,-9.88418047525957E-5));
#320=CARTESIAN_POINT('',(-0.0007980101730222,0.00401106235800287,-9.93206987485209E-5));
#321=CARTESIAN_POINT('',(-0.000801049718369058,0.00402235544232636,-9.78038724099919E-5));
#322=CARTESIAN_POINT('',(-0.000802375980939512,0.00402731999103552,-9.71000125676045E-5));
#323=CARTESIAN_POINT('',(-0.000802375980939511,0.00402731999103551,-9.71000125676054E-5));
#324=CARTESIAN_POINT('',(-0.000793474215256378,0.00399436978719288,9.99669342808558E-5));
#325=CARTESIAN_POINT('',(-0.000989853234387241,0.00395447207119791,0.000102129094528365));
#326=CARTESIAN_POINT('',(-0.000998755000070376,0.00398742227504054,-9.49378523200966E-5));
#327=CARTESIAN_POINT('',(-0.00100765676575351,0.00402037247888316,-0.000292004799168558));
#328=CARTESIAN_POINT('',(-0.00081127774662265,0.00406027019487813,-0.000294166959416066));
#329=CARTESIAN_POINT('',(-0.000802375980939511,0.00402731999103551,-9.71000125676054E-5));
#330=CARTESIAN_POINT('',(-0.000802375980939511,0.00402731999103551,-9.71000125676054E-5));
#331=CARTESIAN_POINT('',(-0.000961219878189948,0.00445668539046516,-1.67927060424558E-5));
#332=CARTESIAN_POINT('',(0.000998853683453174,0.00398818110698593,-9.94496955048382E-5));
#333=CARTESIAN_POINT('',(0.000997188656376083,0.00398197639740456,-0.000100268843923116));
#334=CARTESIAN_POINT('',(0.000994129276427596,0.00397066273586454,-0.000102862275115137));
#335=CARTESIAN_POINT('',(0.000991087792037484,0.00395928140856322,-0.000103439283938307));
#336=CARTESIAN_POINT('',(0.000989760907693509,0.00395427190512628,-0.000103656598541557));
#337=CARTESIAN_POINT('',(0.000998761833545386,0.00402292276402977,-0.000296409104595756));
#338=CARTESIAN_POINT('',(0.000997143528996004,0.00401683600621077,-0.000296607772367925));
#339=CARTESIAN_POINT('',(0.000989651396636137,0.00398912534133555,-0.000302641267692258));
#340=CARTESIAN_POINT('',(0.000982135069685239,0.00396089966051517,-0.000303712010270505));
#341=CARTESIAN_POINT('',(0.000980859142010629,0.00395604260511729,-0.000303451398511404));
#342=CARTESIAN_POINT('',(0.000802184878507585,0.00406129860006108,-0.000289548321881181));
#343=CARTESIAN_POINT('',(0.000800566573958203,0.00405521184224208,-0.00028974698965335));
#344=CARTESIAN_POINT('',(0.000793149183332755,0.00402767728455534,-0.000294654069236738));
#345=CARTESIAN_POINT('',(0.000785756050554361,0.0039998157853677,-0.000294654532420165));
#346=CARTESIAN_POINT('',(0.000784480122879754,0.00399495872996982,-0.000294393920661063));
#347=CARTESIAN_POINT('',(0.000802276728415373,0.00402655694301725,-9.25889127902628E-5));
#348=CARTESIAN_POINT('',(0.000800635062602137,0.00402041120931706,-9.30978208854866E-5));
#349=CARTESIAN_POINT('',(0.000797634029117554,0.00400923981901877,-9.48456431323064E-5));
#350=CARTESIAN_POINT('',(0.000794683294571924,0.0039981213093962,-9.46207692691427E-5));
#351=CARTESIAN_POINT('',(0.000793381888562632,0.0039931880299788,-9.45991206912171E-5));
#352=CARTESIAN_POINT('',(0.000802368578323165,0.00399181528597341,0.000104370496300655));
#353=CARTESIAN_POINT('',(0.000800703551246074,0.00398561057639205,0.000103551347882377));
#354=CARTESIAN_POINT('',(0.000802118874902356,0.00399080235348219,0.000104962782972125));
#355=CARTESIAN_POINT('',(0.000803610538589488,0.00399642683342472,0.000105412993881879));
#356=CARTESIAN_POINT('',(0.000802283654245513,0.00399141732998778,0.000105195679278629));
#357=CARTESIAN_POINT('',(0.000998945533360966,0.0039534394499421,9.75097135860796E-5));
#358=CARTESIAN_POINT('',(0.000997233783756163,0.00394711678859835,9.60700845216925E-5));
#359=CARTESIAN_POINT('',(0.000998607156219055,0.00395220013039356,9.69167174619847E-5));
#360=CARTESIAN_POINT('',(0.00100004051438973,0.00395766315661128,9.68334423938911E-5));
#361=CARTESIAN_POINT('',(0.000998662673376391,0.00395250120513525,9.61382014282894E-5));
#362=CARTESIAN_POINT('',(0.000998853683453174,0.00398818110698593,-9.94496955048382E-5));
#363=CARTESIAN_POINT('',(0.000997188656376083,0.00398197639740456,-0.000100268843923116));
#364=CARTESIAN_POINT('',(0.000994129276427596,0.00397066273586454,-0.000102862275115137));
#365=CARTESIAN_POINT('',(0.000991087792037484,0.00395928140856322,-0.000103439283938307));
#366=CARTESIAN_POINT('',(0.000989760907693509,0.00395427190512628,-0.000103656598541557));
#367=CARTESIAN_POINT('',(0.000989760907693509,0.00395427190512628,-0.000103656598541557));
#368=CARTESIAN_POINT('',(0.000980859142010629,0.00395604260511729,-0.000303451398511404));
#369=CARTESIAN_POINT('',(0.000784480122879754,0.00399495872996982,-0.000294393920661063));
#370=CARTESIAN_POINT('',(0.000793381888562632,0.0039931880299788,-9.45991206912171E-5));
#371=CARTESIAN_POINT('',(0.000802283654245513,0.00399141732998778,0.000105195679278629));
#372=CARTESIAN_POINT('',(0.000998662673376391,0.00395250120513525,9.61382014282894E-5));
#373=CARTESIAN_POINT('',(0.000989760907693509,0.00395427190512628,-0.000103656598541557));
#374=CARTESIAN_POINT('',(0.000989760907693509,0.00395427190512628,-0.000103656598541557));
#375=CARTESIAN_POINT('',(0.000251570656138686,-8.23459843944391E-5,0.0018));
#376=CARTESIAN_POINT('',(0.000788219693764167,0.00319631273924201,-9.91278596163869E-5));
#377=(
GEOMETRIC_REPRESENTATION_CONTEXT(3)
GLOBAL_UNCERTAINTY_ASSIGNED_CONTEXT((#378))
GLOBAL_UNIT_ASSIGNED_CONTEXT((#381,#380,#379))
REPRESENTATION_CONTEXT('id2','TOP_LEVEL_ASSEMBLY_PART')
);
#378=UNCERTAINTY_MEASURE_WITH_UNIT(LENGTH_MEASURE(1.E-8),#381,
'DISTANCE_ACCURACY_VALUE','Maximum Tolerance applied to model');
#379=(
NAMED_UNIT(*)
SI_UNIT($,.STERADIAN.)
SOLID_ANGLE_UNIT()
);
#380=(
NAMED_UNIT(*)
PLANE_ANGLE_UNIT()
SI_UNIT($,.RADIAN.)
);
#381=(
LENGTH_UNIT()
NAMED_UNIT(*)
SI_UNIT($,.METRE.)
);
#382=PRODUCT_DEFINITION_SHAPE('','',#383);
#383=PRODUCT_DEFINITION('','',#385,#384);
#384=PRODUCT_DEFINITION_CONTEXT('',#391,'design');
#385=PRODUCT_DEFINITION_FORMATION_WITH_SPECIFIED_SOURCE('','',#387,
 .NOT_KNOWN.);
#386=PRODUCT_RELATED_PRODUCT_CATEGORY('','',(#387));
#387=PRODUCT('id2','id2','id2',(#389));
#388=PRODUCT_CATEGORY('','');
#389=PRODUCT_CONTEXT('',#391,'mechanical');
#390=APPLICATION_PROTOCOL_DEFINITION('international standard',
'ap242_managed_model_based_3d_engineering',2020,#391);
#391=APPLICATION_CONTEXT('managed model based 3d engineering');
ENDSEC;
END-ISO-10303-21;
