ISO-10303-21;
HEADER;
/* Generated by software containing ST-Developer
 * from STEP Tools, Inc. (www.steptools.com) 
 */
/* OPTION: using custom renumber hook */

FILE_DESCRIPTION(
/* description */ ('STEP AP242 Edition 2',
'CAx-IF Rec.Pracs.---Representation and Presentation of Product Manufa
cturing Information (PMI)---4.0---2014-10-13',
'CAx-IF Rec.Pracs.---3D Tessellated Geometry---0.4---2014-09-14','2;1',
'CAx-IF Rec.Pracs.---User Defined Attributes---1.5---2016-08-15'),
/* implementation_level */ '2;1');

FILE_NAME(
/* name */ '10009',
/* time_stamp */ '2026-07-13T04:32:18Z',
/* author */ (''),
/* organization */ (''),
/* preprocessor_version */ 'ST-DEVELOPER v20',
/* originating_system */ 'ONSHAPE BY PTC INC, 1.217',
/* authorisation */ '  ');

FILE_SCHEMA (('AP242_MANAGED_MODEL_BASED_3D_ENGINEERING_MIM_LF { 1 0 10303 442 3 1 4 }'));
ENDSEC;

DATA;
#10=SHAPE_REPRESENTATION_RELATIONSHIP('','',#1176,#11);
#11=ADVANCED_BREP_SHAPE_REPRESENTATION('',(#1174),#2082);
#12=TOROIDAL_SURFACE('',#1310,0.0082,0.0002);
#13=TOROIDAL_SURFACE('',#1313,0.0082,0.0002);
#14=CONICAL_SURFACE('',#1267,0.00725,1.0471975511966);
#15=CONICAL_SURFACE('',#1273,0.00725,1.0471975511966);
#16=CONICAL_SURFACE('',#1279,0.00725,1.0471975511966);
#17=CONICAL_SURFACE('',#1290,0.00725,1.0471975511966);
#18=CONICAL_SURFACE('',#1293,0.0024,1.02974425867665);
#19=CONICAL_SURFACE('',#1307,0.,0.654498469497874);
#20=CONICAL_SURFACE('',#1308,0.00885980762113534,1.0471975511966);
#21=CONICAL_SURFACE('',#1311,0.0083,1.0471975511966);
#22=B_SPLINE_CURVE_WITH_KNOTS('',3,(#1757,#1758,#1759,#1760,#1761,#1762,
#1763,#1764,#1765,#1766,#1767,#1768,#1769,#1770,#1771),.UNSPECIFIED.,.T.,
 .F.,(1,1,1,1,1,1,1,1,1,1,1,1,1,1,1,1,1,1,1),(-0.0016829979959397,-0.0011219986639598,
-0.0005609993319799,0.,0.0011219986639598,0.0022439973279196,0.0028049966598995,
0.00336599599187939,0.00392699532385929,0.00448799465583919,0.00560999331979899,
0.00673199198375879,0.00729299131573869,0.00785399064771859,0.00841498997969849,
0.00897598931167839,0.0100979879756382,0.011219986639598,0.0117809859715779),
 .UNSPECIFIED.);
#23=B_SPLINE_CURVE_WITH_KNOTS('',3,(#1828,#1829,#1830,#1831),
 .UNSPECIFIED.,.F.,.F.,(4,4),(0.000209588644245595,0.000630840317607964),
 .UNSPECIFIED.);
#24=B_SPLINE_CURVE_WITH_KNOTS('',3,(#1833,#1834,#1835,#1836),
 .UNSPECIFIED.,.F.,.F.,(4,4),(0.00528468178986649,0.00563529428560743),
 .UNSPECIFIED.);
#25=B_SPLINE_CURVE_WITH_KNOTS('',3,(#1843,#1844,#1845,#1846),
 .UNSPECIFIED.,.F.,.F.,(4,4),(0.00449567604060655,0.00509149625270872),
 .UNSPECIFIED.);
#26=B_SPLINE_CURVE_WITH_KNOTS('',3,(#1858,#1859,#1860,#1861),
 .UNSPECIFIED.,.F.,.F.,(4,4),(0.0115866515265686,0.0119381443510272),
 .UNSPECIFIED.);
#27=B_SPLINE_CURVE_WITH_KNOTS('',3,(#1863,#1864,#1865,#1866),
 .UNSPECIFIED.,.F.,.F.,(4,4),(1.97157234857156E-7,0.000421424522963657),
 .UNSPECIFIED.);
#28=B_SPLINE_CURVE_WITH_KNOTS('',3,(#1873,#1874,#1875,#1876),
 .UNSPECIFIED.,.F.,.F.,(4,4),(0.0102890620728515,0.0108866802204762),
 .UNSPECIFIED.);
#29=B_SPLINE_CURVE_WITH_KNOTS('',3,(#1883,#1884,#1885,#1886),
 .UNSPECIFIED.,.F.,.F.,(4,4),(0.00117317008158813,0.00159426980360028),
 .UNSPECIFIED.);
#30=B_SPLINE_CURVE_WITH_KNOTS('',3,(#1888,#1889,#1890,#1891),
 .UNSPECIFIED.,.F.,.F.,(4,4),(0.0115866044794446,0.0119380972063752),
 .UNSPECIFIED.);
#31=B_SPLINE_CURVE_WITH_KNOTS('',3,(#1896,#1897,#1898,#1899),
 .UNSPECIFIED.,.F.,.F.,(4,4),(0.0044956587746152,0.00509147898673377),
 .UNSPECIFIED.);
#32=B_SPLINE_CURVE_WITH_KNOTS('',3,(#1911,#1912,#1913,#1914),
 .UNSPECIFIED.,.F.,.F.,(4,4),(0.00528466451406056,0.00563527700980691),
 .UNSPECIFIED.);
#33=B_SPLINE_CURVE_WITH_KNOTS('',3,(#1916,#1917,#1918,#1919),
 .UNSPECIFIED.,.F.,.F.,(4,4),(7.41212217653339E-5,0.000495363696379401),
 .UNSPECIFIED.);
#34=B_SPLINE_CURVE_WITH_KNOTS('',3,(#1926,#1927,#1928,#1929),
 .UNSPECIFIED.,.F.,.F.,(4,4),(0.0102890164189313,0.0108866344675981),
 .UNSPECIFIED.);
#35=B_SPLINE_CURVE_WITH_KNOTS('',3,(#1951,#1952,#1953,#1954),
 .UNSPECIFIED.,.F.,.F.,(4,4),(0.0102890164189313,0.0108866344675981),
 .UNSPECIFIED.);
#36=B_SPLINE_CURVE_WITH_KNOTS('',3,(#1969,#1970,#1971,#1972),
 .UNSPECIFIED.,.F.,.F.,(4,4),(0.00449565877461519,0.00509147898673376),
 .UNSPECIFIED.);
#37=B_SPLINE_CURVE_WITH_KNOTS('',3,(#1988,#1989,#1990,#1991),
 .UNSPECIFIED.,.F.,.F.,(4,4),(0.0102890164189313,0.0108866344675981),
 .UNSPECIFIED.);
#38=B_SPLINE_CURVE_WITH_KNOTS('',3,(#2005,#2006,#2007,#2008),
 .UNSPECIFIED.,.F.,.F.,(4,4),(0.00449565877461518,0.00509147898673375),
 .UNSPECIFIED.);
#39=B_SPLINE_CURVE_WITH_KNOTS('',3,(#2061,#2062,#2063,#2064,#2065,#2066,
#2067,#2068,#2069,#2070,#2071),.UNSPECIFIED.,.T.,.F.,(1,1,1,1,1,1,1,1,1,
1,1,1,1,1,1),(-0.00170274097821673,-0.00113516065214449,-0.000567580326072245,
0.,0.000567580326072244,0.00113516065214449,0.00170274097821673,0.00227032130428898,
0.00283790163036122,0.00340548195643347,0.00397306228250571,0.00454064260857796,
0.0051082229346502,0.00567580326072244,0.00624338358679469),
 .UNSPECIFIED.);
#40=CYLINDRICAL_SURFACE('',#1184,0.0015);
#41=CYLINDRICAL_SURFACE('',#1187,0.0015);
#42=CYLINDRICAL_SURFACE('',#1209,0.008);
#43=CYLINDRICAL_SURFACE('',#1211,0.0027);
#44=CYLINDRICAL_SURFACE('',#1214,0.01);
#45=CYLINDRICAL_SURFACE('',#1223,0.0026);
#46=CYLINDRICAL_SURFACE('',#1228,0.0023);
#47=CYLINDRICAL_SURFACE('',#1232,0.0025);
#48=CYLINDRICAL_SURFACE('',#1245,0.008);
#49=CYLINDRICAL_SURFACE('',#1251,0.008);
#50=CYLINDRICAL_SURFACE('',#1256,0.008);
#51=CYLINDRICAL_SURFACE('',#1261,0.008);
#52=CYLINDRICAL_SURFACE('',#1269,0.00725);
#53=CYLINDRICAL_SURFACE('',#1275,0.00725);
#54=CYLINDRICAL_SURFACE('',#1281,0.00725);
#55=CYLINDRICAL_SURFACE('',#1288,0.00725);
#56=CYLINDRICAL_SURFACE('',#1291,0.0024);
#57=CYLINDRICAL_SURFACE('',#1294,0.00225);
#58=CYLINDRICAL_SURFACE('',#1304,0.0017);
#59=CYLINDRICAL_SURFACE('',#1305,0.000549999999999994);
#60=CYLINDRICAL_SURFACE('',#1306,0.000549999999999994);
#61=LINE('',#1669,#137);
#62=LINE('',#1673,#138);
#63=LINE('',#1678,#139);
#64=LINE('',#1682,#140);
#65=LINE('',#1694,#141);
#66=LINE('',#1703,#142);
#67=LINE('',#1707,#143);
#68=LINE('',#1709,#144);
#69=LINE('',#1714,#145);
#70=LINE('',#1718,#146);
#71=LINE('',#1725,#147);
#72=LINE('',#1729,#148);
#73=LINE('',#1734,#149);
#74=LINE('',#1738,#150);
#75=LINE('',#1745,#151);
#76=LINE('',#1749,#152);
#77=LINE('',#1751,#153);
#78=LINE('',#1755,#154);
#79=LINE('',#1778,#155);
#80=LINE('',#1782,#156);
#81=LINE('',#1783,#157);
#82=LINE('',#1784,#158);
#83=LINE('',#1788,#159);
#84=LINE('',#1789,#160);
#85=LINE('',#1793,#161);
#86=LINE('',#1797,#162);
#87=LINE('',#1803,#163);
#88=LINE('',#1805,#164);
#89=LINE('',#1807,#165);
#90=LINE('',#1837,#166);
#91=LINE('',#1839,#167);
#92=LINE('',#1841,#168);
#93=LINE('',#1848,#169);
#94=LINE('',#1850,#170);
#95=LINE('',#1852,#171);
#96=LINE('',#1854,#172);
#97=LINE('',#1857,#173);
#98=LINE('',#1867,#174);
#99=LINE('',#1869,#175);
#100=LINE('',#1871,#176);
#101=LINE('',#1878,#177);
#102=LINE('',#1892,#178);
#103=LINE('',#1894,#179);
#104=LINE('',#1901,#180);
#105=LINE('',#1903,#181);
#106=LINE('',#1905,#182);
#107=LINE('',#1907,#183);
#108=LINE('',#1910,#184);
#109=LINE('',#1920,#185);
#110=LINE('',#1922,#186);
#111=LINE('',#1924,#187);
#112=LINE('',#1931,#188);
#113=LINE('',#1937,#189);
#114=LINE('',#1941,#190);
#115=LINE('',#1944,#191);
#116=LINE('',#1945,#192);
#117=LINE('',#1947,#193);
#118=LINE('',#1949,#194);
#119=LINE('',#1961,#195);
#120=LINE('',#1963,#196);
#121=LINE('',#1966,#197);
#122=LINE('',#1967,#198);
#123=LINE('',#1974,#199);
#124=LINE('',#1978,#200);
#125=LINE('',#1982,#201);
#126=LINE('',#1984,#202);
#127=LINE('',#1986,#203);
#128=LINE('',#1993,#204);
#129=LINE('',#1999,#205);
#130=LINE('',#2001,#206);
#131=LINE('',#2003,#207);
#132=LINE('',#2010,#208);
#133=LINE('',#2012,#209);
#134=LINE('',#2014,#210);
#135=LINE('',#2050,#211);
#136=LINE('',#2051,#212);
#137=VECTOR('',#1320,1.);
#138=VECTOR('',#1323,1.);
#139=VECTOR('',#1328,1.);
#140=VECTOR('',#1331,1.);
#141=VECTOR('',#1346,1.);
#142=VECTOR('',#1353,1.);
#143=VECTOR('',#1356,1.);
#144=VECTOR('',#1357,1.);
#145=VECTOR('',#1362,1.);
#146=VECTOR('',#1365,1.);
#147=VECTOR('',#1372,1.);
#148=VECTOR('',#1375,1.);
#149=VECTOR('',#1380,1.);
#150=VECTOR('',#1383,1.);
#151=VECTOR('',#1390,1.);
#152=VECTOR('',#1393,1.);
#153=VECTOR('',#1396,1.);
#154=VECTOR('',#1399,1.);
#155=VECTOR('',#1408,1.);
#156=VECTOR('',#1411,1.);
#157=VECTOR('',#1412,1.);
#158=VECTOR('',#1413,1.);
#159=VECTOR('',#1416,1.);
#160=VECTOR('',#1417,1.);
#161=VECTOR('',#1420,1.);
#162=VECTOR('',#1423,1.);
#163=VECTOR('',#1430,1.);
#164=VECTOR('',#1431,1.);
#165=VECTOR('',#1432,1.);
#166=VECTOR('',#1461,1.);
#167=VECTOR('',#1462,1.);
#168=VECTOR('',#1463,1.);
#169=VECTOR('',#1464,1.);
#170=VECTOR('',#1465,1.);
#171=VECTOR('',#1466,1.);
#172=VECTOR('',#1469,1.);
#173=VECTOR('',#1470,1.);
#174=VECTOR('',#1471,1.);
#175=VECTOR('',#1472,1.);
#176=VECTOR('',#1473,1.);
#177=VECTOR('',#1474,1.);
#178=VECTOR('',#1483,1.);
#179=VECTOR('',#1484,1.);
#180=VECTOR('',#1485,1.);
#181=VECTOR('',#1486,1.);
#182=VECTOR('',#1487,1.);
#183=VECTOR('',#1490,1.);
#184=VECTOR('',#1491,1.);
#185=VECTOR('',#1492,1.);
#186=VECTOR('',#1493,1.);
#187=VECTOR('',#1494,1.);
#188=VECTOR('',#1495,1.);
#189=VECTOR('',#1504,1.);
#190=VECTOR('',#1509,1.);
#191=VECTOR('',#1510,1.);
#192=VECTOR('',#1511,1.);
#193=VECTOR('',#1512,1.);
#194=VECTOR('',#1513,1.);
#195=VECTOR('',#1524,1.);
#196=VECTOR('',#1527,1.);
#197=VECTOR('',#1528,1.);
#198=VECTOR('',#1529,1.);
#199=VECTOR('',#1530,1.);
#200=VECTOR('',#1537,1.);
#201=VECTOR('',#1542,1.);
#202=VECTOR('',#1543,1.);
#203=VECTOR('',#1544,1.);
#204=VECTOR('',#1545,1.);
#205=VECTOR('',#1554,1.);
#206=VECTOR('',#1557,1.);
#207=VECTOR('',#1558,1.);
#208=VECTOR('',#1559,1.);
#209=VECTOR('',#1560,1.);
#210=VECTOR('',#1561,1.);
#211=VECTOR('',#1630,1.);
#212=VECTOR('',#1631,1.);
#213=ORIENTED_EDGE('',*,*,#539,.F.);
#214=ORIENTED_EDGE('',*,*,#540,.F.);
#215=ORIENTED_EDGE('',*,*,#541,.T.);
#216=ORIENTED_EDGE('',*,*,#542,.F.);
#217=ORIENTED_EDGE('',*,*,#543,.F.);
#218=ORIENTED_EDGE('',*,*,#544,.F.);
#219=ORIENTED_EDGE('',*,*,#545,.T.);
#220=ORIENTED_EDGE('',*,*,#546,.F.);
#221=ORIENTED_EDGE('',*,*,#547,.T.);
#222=ORIENTED_EDGE('',*,*,#548,.F.);
#223=ORIENTED_EDGE('',*,*,#549,.T.);
#224=ORIENTED_EDGE('',*,*,#550,.F.);
#225=ORIENTED_EDGE('',*,*,#551,.F.);
#226=ORIENTED_EDGE('',*,*,#552,.T.);
#227=ORIENTED_EDGE('',*,*,#553,.F.);
#228=ORIENTED_EDGE('',*,*,#554,.T.);
#229=ORIENTED_EDGE('',*,*,#555,.T.);
#230=ORIENTED_EDGE('',*,*,#556,.T.);
#231=ORIENTED_EDGE('',*,*,#557,.F.);
#232=ORIENTED_EDGE('',*,*,#558,.F.);
#233=ORIENTED_EDGE('',*,*,#559,.F.);
#234=ORIENTED_EDGE('',*,*,#560,.F.);
#235=ORIENTED_EDGE('',*,*,#561,.F.);
#236=ORIENTED_EDGE('',*,*,#562,.F.);
#237=ORIENTED_EDGE('',*,*,#563,.F.);
#238=ORIENTED_EDGE('',*,*,#564,.F.);
#239=ORIENTED_EDGE('',*,*,#565,.F.);
#240=ORIENTED_EDGE('',*,*,#566,.F.);
#241=ORIENTED_EDGE('',*,*,#567,.F.);
#242=ORIENTED_EDGE('',*,*,#568,.T.);
#243=ORIENTED_EDGE('',*,*,#569,.F.);
#244=ORIENTED_EDGE('',*,*,#570,.F.);
#245=ORIENTED_EDGE('',*,*,#571,.F.);
#246=ORIENTED_EDGE('',*,*,#572,.F.);
#247=ORIENTED_EDGE('',*,*,#573,.F.);
#248=ORIENTED_EDGE('',*,*,#574,.F.);
#249=ORIENTED_EDGE('',*,*,#575,.F.);
#250=ORIENTED_EDGE('',*,*,#576,.F.);
#251=ORIENTED_EDGE('',*,*,#577,.F.);
#252=ORIENTED_EDGE('',*,*,#578,.F.);
#253=ORIENTED_EDGE('',*,*,#579,.T.);
#254=ORIENTED_EDGE('',*,*,#575,.T.);
#255=ORIENTED_EDGE('',*,*,#580,.T.);
#256=ORIENTED_EDGE('',*,*,#581,.F.);
#257=ORIENTED_EDGE('',*,*,#582,.T.);
#258=ORIENTED_EDGE('',*,*,#583,.F.);
#259=ORIENTED_EDGE('',*,*,#584,.T.);
#260=ORIENTED_EDGE('',*,*,#585,.T.);
#261=ORIENTED_EDGE('',*,*,#556,.F.);
#262=ORIENTED_EDGE('',*,*,#586,.T.);
#263=ORIENTED_EDGE('',*,*,#541,.F.);
#264=ORIENTED_EDGE('',*,*,#587,.F.);
#265=ORIENTED_EDGE('',*,*,#588,.F.);
#266=ORIENTED_EDGE('',*,*,#589,.T.);
#267=ORIENTED_EDGE('',*,*,#545,.F.);
#268=ORIENTED_EDGE('',*,*,#590,.F.);
#269=ORIENTED_EDGE('',*,*,#591,.F.);
#270=ORIENTED_EDGE('',*,*,#592,.F.);
#271=ORIENTED_EDGE('',*,*,#593,.T.);
#272=ORIENTED_EDGE('',*,*,#594,.F.);
#273=ORIENTED_EDGE('',*,*,#552,.F.);
#274=ORIENTED_EDGE('',*,*,#595,.T.);
#275=ORIENTED_EDGE('',*,*,#596,.T.);
#276=ORIENTED_EDGE('',*,*,#584,.F.);
#277=ORIENTED_EDGE('',*,*,#597,.F.);
#278=ORIENTED_EDGE('',*,*,#598,.F.);
#279=ORIENTED_EDGE('',*,*,#599,.F.);
#280=ORIENTED_EDGE('',*,*,#600,.T.);
#281=ORIENTED_EDGE('',*,*,#601,.T.);
#282=ORIENTED_EDGE('',*,*,#600,.F.);
#283=ORIENTED_EDGE('',*,*,#581,.T.);
#284=ORIENTED_EDGE('',*,*,#601,.F.);
#285=ORIENTED_EDGE('',*,*,#602,.T.);
#286=ORIENTED_EDGE('',*,*,#582,.F.);
#287=ORIENTED_EDGE('',*,*,#603,.T.);
#288=ORIENTED_EDGE('',*,*,#602,.F.);
#289=ORIENTED_EDGE('',*,*,#604,.T.);
#290=ORIENTED_EDGE('',*,*,#603,.F.);
#291=ORIENTED_EDGE('',*,*,#605,.T.);
#292=ORIENTED_EDGE('',*,*,#604,.F.);
#293=ORIENTED_EDGE('',*,*,#549,.F.);
#294=ORIENTED_EDGE('',*,*,#605,.F.);
#295=ORIENTED_EDGE('',*,*,#569,.T.);
#296=ORIENTED_EDGE('',*,*,#606,.F.);
#297=ORIENTED_EDGE('',*,*,#607,.F.);
#298=ORIENTED_EDGE('',*,*,#546,.T.);
#299=ORIENTED_EDGE('',*,*,#589,.F.);
#300=ORIENTED_EDGE('',*,*,#608,.F.);
#301=ORIENTED_EDGE('',*,*,#609,.F.);
#302=ORIENTED_EDGE('',*,*,#610,.F.);
#303=ORIENTED_EDGE('',*,*,#611,.T.);
#304=ORIENTED_EDGE('',*,*,#612,.T.);
#305=ORIENTED_EDGE('',*,*,#613,.T.);
#306=ORIENTED_EDGE('',*,*,#614,.T.);
#307=ORIENTED_EDGE('',*,*,#615,.T.);
#308=ORIENTED_EDGE('',*,*,#616,.F.);
#309=ORIENTED_EDGE('',*,*,#587,.T.);
#310=ORIENTED_EDGE('',*,*,#540,.T.);
#311=ORIENTED_EDGE('',*,*,#617,.F.);
#312=ORIENTED_EDGE('',*,*,#618,.F.);
#313=ORIENTED_EDGE('',*,*,#562,.T.);
#314=ORIENTED_EDGE('',*,*,#619,.T.);
#315=ORIENTED_EDGE('',*,*,#620,.T.);
#316=ORIENTED_EDGE('',*,*,#621,.T.);
#317=ORIENTED_EDGE('',*,*,#622,.T.);
#318=ORIENTED_EDGE('',*,*,#623,.F.);
#319=ORIENTED_EDGE('',*,*,#616,.T.);
#320=ORIENTED_EDGE('',*,*,#624,.T.);
#321=ORIENTED_EDGE('',*,*,#578,.T.);
#322=ORIENTED_EDGE('',*,*,#625,.T.);
#323=ORIENTED_EDGE('',*,*,#608,.T.);
#324=ORIENTED_EDGE('',*,*,#588,.T.);
#325=ORIENTED_EDGE('',*,*,#560,.T.);
#326=ORIENTED_EDGE('',*,*,#626,.T.);
#327=ORIENTED_EDGE('',*,*,#627,.T.);
#328=ORIENTED_EDGE('',*,*,#542,.T.);
#329=ORIENTED_EDGE('',*,*,#586,.F.);
#330=ORIENTED_EDGE('',*,*,#555,.F.);
#331=ORIENTED_EDGE('',*,*,#628,.F.);
#332=ORIENTED_EDGE('',*,*,#629,.F.);
#333=ORIENTED_EDGE('',*,*,#630,.T.);
#334=ORIENTED_EDGE('',*,*,#631,.T.);
#335=ORIENTED_EDGE('',*,*,#632,.T.);
#336=ORIENTED_EDGE('',*,*,#633,.T.);
#337=ORIENTED_EDGE('',*,*,#634,.T.);
#338=ORIENTED_EDGE('',*,*,#635,.F.);
#339=ORIENTED_EDGE('',*,*,#590,.T.);
#340=ORIENTED_EDGE('',*,*,#544,.T.);
#341=ORIENTED_EDGE('',*,*,#636,.T.);
#342=ORIENTED_EDGE('',*,*,#637,.T.);
#343=ORIENTED_EDGE('',*,*,#571,.T.);
#344=ORIENTED_EDGE('',*,*,#638,.T.);
#345=ORIENTED_EDGE('',*,*,#639,.T.);
#346=ORIENTED_EDGE('',*,*,#640,.T.);
#347=ORIENTED_EDGE('',*,*,#641,.T.);
#348=ORIENTED_EDGE('',*,*,#642,.F.);
#349=ORIENTED_EDGE('',*,*,#643,.F.);
#350=ORIENTED_EDGE('',*,*,#591,.T.);
#351=ORIENTED_EDGE('',*,*,#635,.T.);
#352=ORIENTED_EDGE('',*,*,#644,.T.);
#353=ORIENTED_EDGE('',*,*,#554,.F.);
#354=ORIENTED_EDGE('',*,*,#645,.T.);
#355=ORIENTED_EDGE('',*,*,#646,.F.);
#356=ORIENTED_EDGE('',*,*,#628,.T.);
#357=ORIENTED_EDGE('',*,*,#647,.F.);
#358=ORIENTED_EDGE('',*,*,#648,.T.);
#359=ORIENTED_EDGE('',*,*,#567,.T.);
#360=ORIENTED_EDGE('',*,*,#649,.T.);
#361=ORIENTED_EDGE('',*,*,#650,.T.);
#362=ORIENTED_EDGE('',*,*,#651,.T.);
#363=ORIENTED_EDGE('',*,*,#652,.T.);
#364=ORIENTED_EDGE('',*,*,#653,.F.);
#365=ORIENTED_EDGE('',*,*,#647,.T.);
#366=ORIENTED_EDGE('',*,*,#654,.T.);
#367=ORIENTED_EDGE('',*,*,#629,.T.);
#368=ORIENTED_EDGE('',*,*,#646,.T.);
#369=ORIENTED_EDGE('',*,*,#624,.F.);
#370=ORIENTED_EDGE('',*,*,#615,.F.);
#371=ORIENTED_EDGE('',*,*,#655,.F.);
#372=ORIENTED_EDGE('',*,*,#656,.T.);
#373=ORIENTED_EDGE('',*,*,#657,.T.);
#374=ORIENTED_EDGE('',*,*,#658,.T.);
#375=ORIENTED_EDGE('',*,*,#576,.T.);
#376=ORIENTED_EDGE('',*,*,#579,.F.);
#377=ORIENTED_EDGE('',*,*,#656,.F.);
#378=ORIENTED_EDGE('',*,*,#659,.F.);
#379=ORIENTED_EDGE('',*,*,#660,.T.);
#380=ORIENTED_EDGE('',*,*,#661,.T.);
#381=ORIENTED_EDGE('',*,*,#662,.T.);
#382=ORIENTED_EDGE('',*,*,#659,.T.);
#383=ORIENTED_EDGE('',*,*,#655,.T.);
#384=ORIENTED_EDGE('',*,*,#623,.T.);
#385=ORIENTED_EDGE('',*,*,#625,.F.);
#386=ORIENTED_EDGE('',*,*,#663,.F.);
#387=ORIENTED_EDGE('',*,*,#664,.F.);
#388=ORIENTED_EDGE('',*,*,#609,.T.);
#389=ORIENTED_EDGE('',*,*,#574,.T.);
#390=ORIENTED_EDGE('',*,*,#665,.T.);
#391=ORIENTED_EDGE('',*,*,#666,.T.);
#392=ORIENTED_EDGE('',*,*,#667,.T.);
#393=ORIENTED_EDGE('',*,*,#668,.T.);
#394=ORIENTED_EDGE('',*,*,#669,.F.);
#395=ORIENTED_EDGE('',*,*,#663,.T.);
#396=ORIENTED_EDGE('',*,*,#577,.T.);
#397=ORIENTED_EDGE('',*,*,#670,.T.);
#398=ORIENTED_EDGE('',*,*,#610,.T.);
#399=ORIENTED_EDGE('',*,*,#664,.T.);
#400=ORIENTED_EDGE('',*,*,#669,.T.);
#401=ORIENTED_EDGE('',*,*,#671,.F.);
#402=ORIENTED_EDGE('',*,*,#672,.T.);
#403=ORIENTED_EDGE('',*,*,#644,.F.);
#404=ORIENTED_EDGE('',*,*,#634,.F.);
#405=ORIENTED_EDGE('',*,*,#565,.T.);
#406=ORIENTED_EDGE('',*,*,#673,.T.);
#407=ORIENTED_EDGE('',*,*,#674,.F.);
#408=ORIENTED_EDGE('',*,*,#675,.T.);
#409=ORIENTED_EDGE('',*,*,#676,.T.);
#410=ORIENTED_EDGE('',*,*,#677,.T.);
#411=ORIENTED_EDGE('',*,*,#678,.T.);
#412=ORIENTED_EDGE('',*,*,#679,.F.);
#413=ORIENTED_EDGE('',*,*,#671,.T.);
#414=ORIENTED_EDGE('',*,*,#642,.T.);
#415=ORIENTED_EDGE('',*,*,#680,.F.);
#416=ORIENTED_EDGE('',*,*,#674,.T.);
#417=ORIENTED_EDGE('',*,*,#681,.T.);
#418=ORIENTED_EDGE('',*,*,#675,.F.);
#419=ORIENTED_EDGE('',*,*,#680,.T.);
#420=ORIENTED_EDGE('',*,*,#641,.F.);
#421=ORIENTED_EDGE('',*,*,#682,.T.);
#422=ORIENTED_EDGE('',*,*,#676,.F.);
#423=ORIENTED_EDGE('',*,*,#681,.F.);
#424=ORIENTED_EDGE('',*,*,#640,.F.);
#425=ORIENTED_EDGE('',*,*,#639,.F.);
#426=ORIENTED_EDGE('',*,*,#683,.T.);
#427=ORIENTED_EDGE('',*,*,#677,.F.);
#428=ORIENTED_EDGE('',*,*,#682,.F.);
#429=ORIENTED_EDGE('',*,*,#670,.F.);
#430=ORIENTED_EDGE('',*,*,#668,.F.);
#431=ORIENTED_EDGE('',*,*,#684,.T.);
#432=ORIENTED_EDGE('',*,*,#611,.F.);
#433=ORIENTED_EDGE('',*,*,#684,.F.);
#434=ORIENTED_EDGE('',*,*,#667,.F.);
#435=ORIENTED_EDGE('',*,*,#685,.T.);
#436=ORIENTED_EDGE('',*,*,#612,.F.);
#437=ORIENTED_EDGE('',*,*,#666,.F.);
#438=ORIENTED_EDGE('',*,*,#686,.T.);
#439=ORIENTED_EDGE('',*,*,#613,.F.);
#440=ORIENTED_EDGE('',*,*,#685,.F.);
#441=ORIENTED_EDGE('',*,*,#687,.T.);
#442=ORIENTED_EDGE('',*,*,#660,.F.);
#443=ORIENTED_EDGE('',*,*,#662,.F.);
#444=ORIENTED_EDGE('',*,*,#622,.F.);
#445=ORIENTED_EDGE('',*,*,#688,.T.);
#446=ORIENTED_EDGE('',*,*,#661,.F.);
#447=ORIENTED_EDGE('',*,*,#687,.F.);
#448=ORIENTED_EDGE('',*,*,#621,.F.);
#449=ORIENTED_EDGE('',*,*,#620,.F.);
#450=ORIENTED_EDGE('',*,*,#689,.T.);
#451=ORIENTED_EDGE('',*,*,#657,.F.);
#452=ORIENTED_EDGE('',*,*,#688,.F.);
#453=ORIENTED_EDGE('',*,*,#650,.F.);
#454=ORIENTED_EDGE('',*,*,#690,.T.);
#455=ORIENTED_EDGE('',*,*,#632,.F.);
#456=ORIENTED_EDGE('',*,*,#691,.F.);
#457=ORIENTED_EDGE('',*,*,#692,.F.);
#458=ORIENTED_EDGE('',*,*,#651,.F.);
#459=ORIENTED_EDGE('',*,*,#691,.T.);
#460=ORIENTED_EDGE('',*,*,#631,.F.);
#461=ORIENTED_EDGE('',*,*,#654,.F.);
#462=ORIENTED_EDGE('',*,*,#652,.F.);
#463=ORIENTED_EDGE('',*,*,#692,.T.);
#464=ORIENTED_EDGE('',*,*,#630,.F.);
#465=ORIENTED_EDGE('',*,*,#693,.F.);
#466=ORIENTED_EDGE('',*,*,#573,.T.);
#467=ORIENTED_EDGE('',*,*,#658,.F.);
#468=ORIENTED_EDGE('',*,*,#689,.F.);
#469=ORIENTED_EDGE('',*,*,#619,.F.);
#470=ORIENTED_EDGE('',*,*,#561,.T.);
#471=ORIENTED_EDGE('',*,*,#633,.F.);
#472=ORIENTED_EDGE('',*,*,#690,.F.);
#473=ORIENTED_EDGE('',*,*,#649,.F.);
#474=ORIENTED_EDGE('',*,*,#566,.T.);
#475=ORIENTED_EDGE('',*,*,#678,.F.);
#476=ORIENTED_EDGE('',*,*,#683,.F.);
#477=ORIENTED_EDGE('',*,*,#638,.F.);
#478=ORIENTED_EDGE('',*,*,#570,.T.);
#479=ORIENTED_EDGE('',*,*,#614,.F.);
#480=ORIENTED_EDGE('',*,*,#686,.F.);
#481=ORIENTED_EDGE('',*,*,#665,.F.);
#482=ORIENTED_EDGE('',*,*,#693,.T.);
#483=ORIENTED_EDGE('',*,*,#547,.F.);
#484=ORIENTED_EDGE('',*,*,#594,.T.);
#485=ORIENTED_EDGE('',*,*,#694,.T.);
#486=ORIENTED_EDGE('',*,*,#592,.T.);
#487=ORIENTED_EDGE('',*,*,#643,.T.);
#488=ORIENTED_EDGE('',*,*,#672,.F.);
#489=ORIENTED_EDGE('',*,*,#679,.T.);
#490=ORIENTED_EDGE('',*,*,#673,.F.);
#491=ORIENTED_EDGE('',*,*,#564,.T.);
#492=ORIENTED_EDGE('',*,*,#648,.F.);
#493=ORIENTED_EDGE('',*,*,#653,.T.);
#494=ORIENTED_EDGE('',*,*,#645,.F.);
#495=ORIENTED_EDGE('',*,*,#553,.T.);
#496=ORIENTED_EDGE('',*,*,#694,.F.);
#497=ORIENTED_EDGE('',*,*,#593,.F.);
#498=ORIENTED_EDGE('',*,*,#598,.T.);
#499=ORIENTED_EDGE('',*,*,#695,.T.);
#500=ORIENTED_EDGE('',*,*,#558,.T.);
#501=ORIENTED_EDGE('',*,*,#696,.F.);
#502=ORIENTED_EDGE('',*,*,#597,.T.);
#503=ORIENTED_EDGE('',*,*,#583,.T.);
#504=ORIENTED_EDGE('',*,*,#551,.T.);
#505=ORIENTED_EDGE('',*,*,#695,.F.);
#506=ORIENTED_EDGE('',*,*,#599,.T.);
#507=ORIENTED_EDGE('',*,*,#696,.T.);
#508=ORIENTED_EDGE('',*,*,#557,.T.);
#509=ORIENTED_EDGE('',*,*,#585,.F.);
#510=ORIENTED_EDGE('',*,*,#697,.F.);
#511=ORIENTED_EDGE('',*,*,#548,.T.);
#512=ORIENTED_EDGE('',*,*,#698,.T.);
#513=ORIENTED_EDGE('',*,*,#550,.T.);
#514=ORIENTED_EDGE('',*,*,#699,.F.);
#515=ORIENTED_EDGE('',*,*,#697,.T.);
#516=ORIENTED_EDGE('',*,*,#698,.F.);
#517=ORIENTED_EDGE('',*,*,#596,.F.);
#518=ORIENTED_EDGE('',*,*,#572,.T.);
#519=ORIENTED_EDGE('',*,*,#595,.F.);
#520=ORIENTED_EDGE('',*,*,#563,.T.);
#521=ORIENTED_EDGE('',*,*,#699,.T.);
#522=ORIENTED_EDGE('',*,*,#580,.F.);
#523=ORIENTED_EDGE('',*,*,#543,.T.);
#524=ORIENTED_EDGE('',*,*,#607,.T.);
#525=ORIENTED_EDGE('',*,*,#700,.F.);
#526=ORIENTED_EDGE('',*,*,#636,.F.);
#527=ORIENTED_EDGE('',*,*,#700,.T.);
#528=ORIENTED_EDGE('',*,*,#606,.T.);
#529=ORIENTED_EDGE('',*,*,#568,.F.);
#530=ORIENTED_EDGE('',*,*,#637,.F.);
#531=ORIENTED_EDGE('',*,*,#539,.T.);
#532=ORIENTED_EDGE('',*,*,#627,.F.);
#533=ORIENTED_EDGE('',*,*,#701,.T.);
#534=ORIENTED_EDGE('',*,*,#617,.T.);
#535=ORIENTED_EDGE('',*,*,#559,.T.);
#536=ORIENTED_EDGE('',*,*,#618,.T.);
#537=ORIENTED_EDGE('',*,*,#701,.F.);
#538=ORIENTED_EDGE('',*,*,#626,.F.);
#539=EDGE_CURVE('',#702,#703,#817,.T.);
#540=EDGE_CURVE('',#704,#702,#61,.T.);
#541=EDGE_CURVE('',#704,#705,#818,.T.);
#542=EDGE_CURVE('',#703,#705,#62,.T.);
#543=EDGE_CURVE('',#706,#707,#819,.T.);
#544=EDGE_CURVE('',#708,#706,#63,.T.);
#545=EDGE_CURVE('',#708,#709,#820,.T.);
#546=EDGE_CURVE('',#707,#709,#64,.T.);
#547=EDGE_CURVE('',#710,#710,#821,.T.);
#548=EDGE_CURVE('',#711,#711,#822,.F.);
#549=EDGE_CURVE('',#712,#712,#823,.T.);
#550=EDGE_CURVE('',#713,#713,#824,.F.);
#551=EDGE_CURVE('',#714,#715,#65,.T.);
#552=EDGE_CURVE('',#714,#716,#825,.T.);
#553=EDGE_CURVE('',#717,#716,#826,.T.);
#554=EDGE_CURVE('',#717,#718,#827,.F.);
#555=EDGE_CURVE('',#718,#719,#66,.T.);
#556=EDGE_CURVE('',#719,#720,#828,.T.);
#557=EDGE_CURVE('',#721,#720,#67,.T.);
#558=EDGE_CURVE('',#715,#721,#68,.T.);
#559=EDGE_CURVE('',#722,#723,#829,.T.);
#560=EDGE_CURVE('',#724,#722,#69,.T.);
#561=EDGE_CURVE('',#725,#724,#830,.T.);
#562=EDGE_CURVE('',#723,#725,#70,.T.);
#563=EDGE_CURVE('',#726,#726,#831,.T.);
#564=EDGE_CURVE('',#727,#728,#832,.T.);
#565=EDGE_CURVE('',#729,#727,#71,.T.);
#566=EDGE_CURVE('',#730,#729,#833,.T.);
#567=EDGE_CURVE('',#728,#730,#72,.T.);
#568=EDGE_CURVE('',#731,#732,#834,.T.);
#569=EDGE_CURVE('',#733,#732,#73,.T.);
#570=EDGE_CURVE('',#734,#733,#835,.T.);
#571=EDGE_CURVE('',#731,#734,#74,.T.);
#572=EDGE_CURVE('',#735,#735,#836,.T.);
#573=EDGE_CURVE('',#736,#737,#837,.T.);
#574=EDGE_CURVE('',#738,#736,#75,.T.);
#575=EDGE_CURVE('',#739,#738,#838,.T.);
#576=EDGE_CURVE('',#737,#739,#76,.T.);
#577=EDGE_CURVE('',#740,#738,#77,.T.);
#578=EDGE_CURVE('',#741,#740,#839,.F.);
#579=EDGE_CURVE('',#741,#739,#78,.T.);
#580=EDGE_CURVE('',#742,#742,#22,.T.);
#581=EDGE_CURVE('',#743,#743,#840,.T.);
#582=EDGE_CURVE('',#744,#744,#841,.T.);
#583=EDGE_CURVE('',#745,#714,#79,.T.);
#584=EDGE_CURVE('',#745,#746,#842,.T.);
#585=EDGE_CURVE('',#746,#720,#80,.T.);
#586=EDGE_CURVE('',#719,#705,#81,.T.);
#587=EDGE_CURVE('',#747,#704,#82,.T.);
#588=EDGE_CURVE('',#748,#747,#843,.T.);
#589=EDGE_CURVE('',#748,#709,#83,.T.);
#590=EDGE_CURVE('',#749,#708,#84,.T.);
#591=EDGE_CURVE('',#750,#749,#844,.T.);
#592=EDGE_CURVE('',#751,#750,#85,.T.);
#593=EDGE_CURVE('',#751,#752,#845,.F.);
#594=EDGE_CURVE('',#716,#752,#86,.F.);
#595=EDGE_CURVE('',#753,#753,#846,.T.);
#596=EDGE_CURVE('',#754,#754,#847,.T.);
#597=EDGE_CURVE('',#755,#745,#87,.T.);
#598=EDGE_CURVE('',#756,#755,#88,.T.);
#599=EDGE_CURVE('',#746,#756,#89,.T.);
#600=EDGE_CURVE('',#757,#757,#848,.T.);
#601=EDGE_CURVE('',#758,#758,#849,.T.);
#602=EDGE_CURVE('',#759,#759,#850,.T.);
#603=EDGE_CURVE('',#760,#760,#851,.T.);
#604=EDGE_CURVE('',#761,#761,#852,.T.);
#605=EDGE_CURVE('',#762,#762,#853,.T.);
#606=EDGE_CURVE('',#763,#732,#23,.T.);
#607=EDGE_CURVE('',#707,#763,#24,.T.);
#608=EDGE_CURVE('',#764,#748,#90,.T.);
#609=EDGE_CURVE('',#765,#764,#91,.T.);
#610=EDGE_CURVE('',#766,#765,#92,.T.);
#611=EDGE_CURVE('',#766,#767,#25,.T.);
#612=EDGE_CURVE('',#767,#768,#93,.T.);
#613=EDGE_CURVE('',#768,#769,#94,.T.);
#614=EDGE_CURVE('',#769,#733,#95,.F.);
#615=EDGE_CURVE('',#770,#771,#96,.T.);
#616=EDGE_CURVE('',#747,#771,#97,.T.);
#617=EDGE_CURVE('',#772,#702,#26,.T.);
#618=EDGE_CURVE('',#723,#772,#27,.T.);
#619=EDGE_CURVE('',#725,#773,#98,.T.);
#620=EDGE_CURVE('',#773,#774,#99,.T.);
#621=EDGE_CURVE('',#774,#775,#100,.F.);
#622=EDGE_CURVE('',#775,#776,#28,.T.);
#623=EDGE_CURVE('',#770,#776,#101,.T.);
#624=EDGE_CURVE('',#771,#741,#854,.F.);
#625=EDGE_CURVE('',#740,#764,#855,.F.);
#626=EDGE_CURVE('',#722,#777,#29,.T.);
#627=EDGE_CURVE('',#777,#703,#30,.T.);
#628=EDGE_CURVE('',#778,#718,#102,.T.);
#629=EDGE_CURVE('',#779,#778,#103,.T.);
#630=EDGE_CURVE('',#779,#780,#31,.T.);
#631=EDGE_CURVE('',#780,#781,#104,.T.);
#632=EDGE_CURVE('',#781,#782,#105,.T.);
#633=EDGE_CURVE('',#782,#724,#106,.F.);
#634=EDGE_CURVE('',#783,#784,#107,.T.);
#635=EDGE_CURVE('',#749,#784,#108,.T.);
#636=EDGE_CURVE('',#706,#785,#32,.T.);
#637=EDGE_CURVE('',#785,#731,#33,.T.);
#638=EDGE_CURVE('',#734,#786,#109,.T.);
#639=EDGE_CURVE('',#786,#787,#110,.T.);
#640=EDGE_CURVE('',#787,#788,#111,.F.);
#641=EDGE_CURVE('',#788,#789,#34,.T.);
#642=EDGE_CURVE('',#783,#789,#112,.T.);
#643=EDGE_CURVE('',#750,#790,#856,.T.);
#644=EDGE_CURVE('',#784,#790,#857,.F.);
#645=EDGE_CURVE('',#717,#791,#113,.T.);
#646=EDGE_CURVE('',#778,#791,#858,.T.);
#647=EDGE_CURVE('',#792,#793,#114,.T.);
#648=EDGE_CURVE('',#792,#728,#115,.F.);
#649=EDGE_CURVE('',#730,#794,#116,.T.);
#650=EDGE_CURVE('',#794,#795,#117,.T.);
#651=EDGE_CURVE('',#795,#796,#118,.F.);
#652=EDGE_CURVE('',#796,#793,#35,.T.);
#653=EDGE_CURVE('',#792,#791,#859,.T.);
#654=EDGE_CURVE('',#793,#779,#860,.T.);
#655=EDGE_CURVE('',#797,#770,#861,.T.);
#656=EDGE_CURVE('',#797,#741,#119,.T.);
#657=EDGE_CURVE('',#798,#799,#120,.T.);
#658=EDGE_CURVE('',#799,#737,#121,.F.);
#659=EDGE_CURVE('',#800,#797,#122,.T.);
#660=EDGE_CURVE('',#800,#801,#36,.T.);
#661=EDGE_CURVE('',#801,#798,#123,.T.);
#662=EDGE_CURVE('',#776,#800,#862,.T.);
#663=EDGE_CURVE('',#802,#740,#124,.T.);
#664=EDGE_CURVE('',#765,#802,#863,.T.);
#665=EDGE_CURVE('',#736,#803,#125,.T.);
#666=EDGE_CURVE('',#803,#804,#126,.T.);
#667=EDGE_CURVE('',#804,#805,#127,.F.);
#668=EDGE_CURVE('',#805,#806,#37,.T.);
#669=EDGE_CURVE('',#802,#806,#128,.T.);
#670=EDGE_CURVE('',#806,#766,#864,.T.);
#671=EDGE_CURVE('',#807,#783,#865,.T.);
#672=EDGE_CURVE('',#807,#790,#129,.F.);
#673=EDGE_CURVE('',#727,#808,#130,.T.);
#674=EDGE_CURVE('',#809,#808,#131,.T.);
#675=EDGE_CURVE('',#809,#810,#38,.T.);
#676=EDGE_CURVE('',#810,#811,#132,.T.);
#677=EDGE_CURVE('',#811,#812,#133,.T.);
#678=EDGE_CURVE('',#812,#729,#134,.F.);
#679=EDGE_CURVE('',#807,#808,#866,.T.);
#680=EDGE_CURVE('',#809,#789,#867,.T.);
#681=EDGE_CURVE('',#788,#810,#868,.T.);
#682=EDGE_CURVE('',#787,#811,#869,.T.);
#683=EDGE_CURVE('',#786,#812,#870,.T.);
#684=EDGE_CURVE('',#805,#767,#871,.T.);
#685=EDGE_CURVE('',#804,#768,#872,.T.);
#686=EDGE_CURVE('',#803,#769,#873,.T.);
#687=EDGE_CURVE('',#775,#801,#874,.T.);
#688=EDGE_CURVE('',#774,#798,#875,.T.);
#689=EDGE_CURVE('',#773,#799,#876,.T.);
#690=EDGE_CURVE('',#794,#782,#877,.T.);
#691=EDGE_CURVE('',#795,#781,#878,.T.);
#692=EDGE_CURVE('',#796,#780,#879,.T.);
#693=EDGE_CURVE('',#813,#813,#880,.T.);
#694=EDGE_CURVE('',#752,#751,#881,.F.);
#695=EDGE_CURVE('',#755,#715,#135,.T.);
#696=EDGE_CURVE('',#756,#721,#136,.T.);
#697=EDGE_CURVE('',#814,#814,#882,.T.);
#698=EDGE_CURVE('',#815,#815,#883,.T.);
#699=EDGE_CURVE('',#816,#816,#39,.T.);
#700=EDGE_CURVE('',#785,#763,#884,.T.);
#701=EDGE_CURVE('',#777,#772,#885,.T.);
#702=VERTEX_POINT('',#1667);
#703=VERTEX_POINT('',#1668);
#704=VERTEX_POINT('',#1670);
#705=VERTEX_POINT('',#1672);
#706=VERTEX_POINT('',#1676);
#707=VERTEX_POINT('',#1677);
#708=VERTEX_POINT('',#1679);
#709=VERTEX_POINT('',#1681);
#710=VERTEX_POINT('',#1685);
#711=VERTEX_POINT('',#1687);
#712=VERTEX_POINT('',#1690);
#713=VERTEX_POINT('',#1692);
#714=VERTEX_POINT('',#1695);
#715=VERTEX_POINT('',#1696);
#716=VERTEX_POINT('',#1698);
#717=VERTEX_POINT('',#1700);
#718=VERTEX_POINT('',#1702);
#719=VERTEX_POINT('',#1704);
#720=VERTEX_POINT('',#1706);
#721=VERTEX_POINT('',#1708);
#722=VERTEX_POINT('',#1712);
#723=VERTEX_POINT('',#1713);
#724=VERTEX_POINT('',#1715);
#725=VERTEX_POINT('',#1717);
#726=VERTEX_POINT('',#1720);
#727=VERTEX_POINT('',#1723);
#728=VERTEX_POINT('',#1724);
#729=VERTEX_POINT('',#1726);
#730=VERTEX_POINT('',#1728);
#731=VERTEX_POINT('',#1732);
#732=VERTEX_POINT('',#1733);
#733=VERTEX_POINT('',#1735);
#734=VERTEX_POINT('',#1737);
#735=VERTEX_POINT('',#1740);
#736=VERTEX_POINT('',#1743);
#737=VERTEX_POINT('',#1744);
#738=VERTEX_POINT('',#1746);
#739=VERTEX_POINT('',#1748);
#740=VERTEX_POINT('',#1752);
#741=VERTEX_POINT('',#1754);
#742=VERTEX_POINT('',#1772);
#743=VERTEX_POINT('',#1774);
#744=VERTEX_POINT('',#1776);
#745=VERTEX_POINT('',#1779);
#746=VERTEX_POINT('',#1781);
#747=VERTEX_POINT('',#1785);
#748=VERTEX_POINT('',#1787);
#749=VERTEX_POINT('',#1790);
#750=VERTEX_POINT('',#1792);
#751=VERTEX_POINT('',#1794);
#752=VERTEX_POINT('',#1796);
#753=VERTEX_POINT('',#1800);
#754=VERTEX_POINT('',#1802);
#755=VERTEX_POINT('',#1804);
#756=VERTEX_POINT('',#1806);
#757=VERTEX_POINT('',#1809);
#758=VERTEX_POINT('',#1812);
#759=VERTEX_POINT('',#1816);
#760=VERTEX_POINT('',#1819);
#761=VERTEX_POINT('',#1822);
#762=VERTEX_POINT('',#1825);
#763=VERTEX_POINT('',#1832);
#764=VERTEX_POINT('',#1838);
#765=VERTEX_POINT('',#1840);
#766=VERTEX_POINT('',#1842);
#767=VERTEX_POINT('',#1847);
#768=VERTEX_POINT('',#1849);
#769=VERTEX_POINT('',#1851);
#770=VERTEX_POINT('',#1855);
#771=VERTEX_POINT('',#1856);
#772=VERTEX_POINT('',#1862);
#773=VERTEX_POINT('',#1868);
#774=VERTEX_POINT('',#1870);
#775=VERTEX_POINT('',#1872);
#776=VERTEX_POINT('',#1877);
#777=VERTEX_POINT('',#1887);
#778=VERTEX_POINT('',#1893);
#779=VERTEX_POINT('',#1895);
#780=VERTEX_POINT('',#1900);
#781=VERTEX_POINT('',#1902);
#782=VERTEX_POINT('',#1904);
#783=VERTEX_POINT('',#1908);
#784=VERTEX_POINT('',#1909);
#785=VERTEX_POINT('',#1915);
#786=VERTEX_POINT('',#1921);
#787=VERTEX_POINT('',#1923);
#788=VERTEX_POINT('',#1925);
#789=VERTEX_POINT('',#1930);
#790=VERTEX_POINT('',#1934);
#791=VERTEX_POINT('',#1938);
#792=VERTEX_POINT('',#1942);
#793=VERTEX_POINT('',#1943);
#794=VERTEX_POINT('',#1946);
#795=VERTEX_POINT('',#1948);
#796=VERTEX_POINT('',#1950);
#797=VERTEX_POINT('',#1960);
#798=VERTEX_POINT('',#1964);
#799=VERTEX_POINT('',#1965);
#800=VERTEX_POINT('',#1968);
#801=VERTEX_POINT('',#1973);
#802=VERTEX_POINT('',#1979);
#803=VERTEX_POINT('',#1983);
#804=VERTEX_POINT('',#1985);
#805=VERTEX_POINT('',#1987);
#806=VERTEX_POINT('',#1992);
#807=VERTEX_POINT('',#1998);
#808=VERTEX_POINT('',#2002);
#809=VERTEX_POINT('',#2004);
#810=VERTEX_POINT('',#2009);
#811=VERTEX_POINT('',#2011);
#812=VERTEX_POINT('',#2013);
#813=VERTEX_POINT('',#2044);
#814=VERTEX_POINT('',#2056);
#815=VERTEX_POINT('',#2059);
#816=VERTEX_POINT('',#2072);
#817=CIRCLE('',#1179,0.0086);
#818=CIRCLE('',#1180,0.01);
#819=CIRCLE('',#1182,0.0086);
#820=CIRCLE('',#1183,0.01);
#821=CIRCLE('',#1185,0.0015);
#822=CIRCLE('',#1186,0.0015);
#823=CIRCLE('',#1188,0.0015);
#824=CIRCLE('',#1189,0.0015);
#825=CIRCLE('',#1191,0.01);
#826=CIRCLE('',#1192,0.00225);
#827=CIRCLE('',#1193,0.008);
#828=CIRCLE('',#1194,0.01);
#829=CIRCLE('',#1196,0.008);
#830=CIRCLE('',#1197,0.0024);
#831=CIRCLE('',#1198,0.000549999999999988);
#832=CIRCLE('',#1200,0.00225);
#833=CIRCLE('',#1201,0.0024);
#834=CIRCLE('',#1203,0.008);
#835=CIRCLE('',#1204,0.0024);
#836=CIRCLE('',#1205,0.000549999999999988);
#837=CIRCLE('',#1207,0.0024);
#838=CIRCLE('',#1208,0.008);
#839=CIRCLE('',#1210,0.008);
#840=CIRCLE('',#1212,0.0027);
#841=CIRCLE('',#1213,0.0027);
#842=CIRCLE('',#1215,0.01);
#843=CIRCLE('',#1216,0.01);
#844=CIRCLE('',#1217,0.01);
#845=CIRCLE('',#1218,0.01);
#846=CIRCLE('',#1220,0.000549999999999994);
#847=CIRCLE('',#1221,0.000549999999999994);
#848=CIRCLE('',#1222,0.0026);
#849=CIRCLE('',#1224,0.0026);
#850=CIRCLE('',#1227,0.0023);
#851=CIRCLE('',#1229,0.0023);
#852=CIRCLE('',#1231,0.0025);
#853=CIRCLE('',#1233,0.0025);
#854=CIRCLE('',#1238,0.008);
#855=CIRCLE('',#1239,0.008);
#856=CIRCLE('',#1243,0.00225);
#857=CIRCLE('',#1244,0.008);
#858=CIRCLE('',#1246,0.008);
#859=CIRCLE('',#1249,0.00225);
#860=CIRCLE('',#1250,0.00775811682275085);
#861=CIRCLE('',#1252,0.008);
#862=CIRCLE('',#1255,0.00775811682275085);
#863=CIRCLE('',#1257,0.008);
#864=CIRCLE('',#1260,0.00775811682275085);
#865=CIRCLE('',#1262,0.008);
#866=CIRCLE('',#1265,0.00225);
#867=CIRCLE('',#1266,0.00775811682275085);
#868=CIRCLE('',#1268,0.00725);
#869=CIRCLE('',#1270,0.00725);
#870=CIRCLE('',#1272,0.0024);
#871=CIRCLE('',#1274,0.00725);
#872=CIRCLE('',#1276,0.00725);
#873=CIRCLE('',#1278,0.0024);
#874=CIRCLE('',#1280,0.00725);
#875=CIRCLE('',#1282,0.00725);
#876=CIRCLE('',#1284,0.0024);
#877=CIRCLE('',#1286,0.0024);
#878=CIRCLE('',#1287,0.00725);
#879=CIRCLE('',#1289,0.00725);
#880=CIRCLE('',#1292,0.0024);
#881=CIRCLE('',#1295,0.00225);
#882=CIRCLE('',#1301,0.0017);
#883=CIRCLE('',#1303,0.0017);
#884=CIRCLE('',#1309,0.0083);
#885=CIRCLE('',#1312,0.0083);
#886=EDGE_LOOP('',(#213,#214,#215,#216));
#887=EDGE_LOOP('',(#217,#218,#219,#220));
#888=EDGE_LOOP('',(#221));
#889=EDGE_LOOP('',(#222));
#890=EDGE_LOOP('',(#223));
#891=EDGE_LOOP('',(#224));
#892=EDGE_LOOP('',(#225,#226,#227,#228,#229,#230,#231,#232));
#893=EDGE_LOOP('',(#233,#234,#235,#236));
#894=EDGE_LOOP('',(#237));
#895=EDGE_LOOP('',(#238,#239,#240,#241));
#896=EDGE_LOOP('',(#242,#243,#244,#245));
#897=EDGE_LOOP('',(#246));
#898=EDGE_LOOP('',(#247,#248,#249,#250));
#899=EDGE_LOOP('',(#251,#252,#253,#254));
#900=EDGE_LOOP('',(#255));
#901=EDGE_LOOP('',(#256));
#902=EDGE_LOOP('',(#257));
#903=EDGE_LOOP('',(#258,#259,#260,#261,#262,#263,#264,#265,#266,#267,#268,
#269,#270,#271,#272,#273));
#904=EDGE_LOOP('',(#274));
#905=EDGE_LOOP('',(#275));
#906=EDGE_LOOP('',(#276,#277,#278,#279));
#907=EDGE_LOOP('',(#280));
#908=EDGE_LOOP('',(#281));
#909=EDGE_LOOP('',(#282));
#910=EDGE_LOOP('',(#283));
#911=EDGE_LOOP('',(#284));
#912=EDGE_LOOP('',(#285));
#913=EDGE_LOOP('',(#286));
#914=EDGE_LOOP('',(#287));
#915=EDGE_LOOP('',(#288));
#916=EDGE_LOOP('',(#289));
#917=EDGE_LOOP('',(#290));
#918=EDGE_LOOP('',(#291));
#919=EDGE_LOOP('',(#292));
#920=EDGE_LOOP('',(#293));
#921=EDGE_LOOP('',(#294));
#922=EDGE_LOOP('',(#295,#296,#297,#298,#299,#300,#301,#302,#303,#304,#305,
#306));
#923=EDGE_LOOP('',(#307,#308,#309,#310,#311,#312,#313,#314,#315,#316,#317,
#318));
#924=EDGE_LOOP('',(#319,#320,#321,#322,#323,#324));
#925=EDGE_LOOP('',(#325,#326,#327,#328,#329,#330,#331,#332,#333,#334,#335,
#336));
#926=EDGE_LOOP('',(#337,#338,#339,#340,#341,#342,#343,#344,#345,#346,#347,
#348));
#927=EDGE_LOOP('',(#349,#350,#351,#352));
#928=EDGE_LOOP('',(#353,#354,#355,#356));
#929=EDGE_LOOP('',(#357,#358,#359,#360,#361,#362,#363));
#930=EDGE_LOOP('',(#364,#365,#366,#367,#368));
#931=EDGE_LOOP('',(#369,#370,#371,#372));
#932=EDGE_LOOP('',(#373,#374,#375,#376,#377,#378,#379,#380));
#933=EDGE_LOOP('',(#381,#382,#383,#384));
#934=EDGE_LOOP('',(#385,#386,#387,#388));
#935=EDGE_LOOP('',(#389,#390,#391,#392,#393,#394,#395,#396));
#936=EDGE_LOOP('',(#397,#398,#399,#400));
#937=EDGE_LOOP('',(#401,#402,#403,#404));
#938=EDGE_LOOP('',(#405,#406,#407,#408,#409,#410,#411));
#939=EDGE_LOOP('',(#412,#413,#414,#415,#416));
#940=EDGE_LOOP('',(#417,#418,#419,#420));
#941=EDGE_LOOP('',(#421,#422,#423,#424));
#942=EDGE_LOOP('',(#425,#426,#427,#428));
#943=EDGE_LOOP('',(#429,#430,#431,#432));
#944=EDGE_LOOP('',(#433,#434,#435,#436));
#945=EDGE_LOOP('',(#437,#438,#439,#440));
#946=EDGE_LOOP('',(#441,#442,#443,#444));
#947=EDGE_LOOP('',(#445,#446,#447,#448));
#948=EDGE_LOOP('',(#449,#450,#451,#452));
#949=EDGE_LOOP('',(#453,#454,#455,#456));
#950=EDGE_LOOP('',(#457,#458,#459,#460));
#951=EDGE_LOOP('',(#461,#462,#463,#464));
#952=EDGE_LOOP('',(#465));
#953=EDGE_LOOP('',(#466,#467,#468,#469,#470,#471,#472,#473,#474,#475,#476,
#477,#478,#479,#480,#481));
#954=EDGE_LOOP('',(#482));
#955=EDGE_LOOP('',(#483));
#956=EDGE_LOOP('',(#484,#485,#486,#487,#488,#489,#490,#491,#492,#493,#494,
#495));
#957=EDGE_LOOP('',(#496,#497));
#958=EDGE_LOOP('',(#498,#499,#500,#501));
#959=EDGE_LOOP('',(#502,#503,#504,#505));
#960=EDGE_LOOP('',(#506,#507,#508,#509));
#961=EDGE_LOOP('',(#510));
#962=EDGE_LOOP('',(#511));
#963=EDGE_LOOP('',(#512));
#964=EDGE_LOOP('',(#513));
#965=EDGE_LOOP('',(#514));
#966=EDGE_LOOP('',(#515));
#967=EDGE_LOOP('',(#516));
#968=EDGE_LOOP('',(#517));
#969=EDGE_LOOP('',(#518));
#970=EDGE_LOOP('',(#519));
#971=EDGE_LOOP('',(#520));
#972=EDGE_LOOP('',(#521));
#973=EDGE_LOOP('',(#522));
#974=EDGE_LOOP('',(#523,#524,#525,#526));
#975=EDGE_LOOP('',(#527,#528,#529,#530));
#976=EDGE_LOOP('',(#531,#532,#533,#534));
#977=EDGE_LOOP('',(#535,#536,#537,#538));
#978=FACE_BOUND('',#886,.T.);
#979=FACE_BOUND('',#887,.T.);
#980=FACE_BOUND('',#888,.T.);
#981=FACE_BOUND('',#889,.T.);
#982=FACE_BOUND('',#890,.T.);
#983=FACE_BOUND('',#891,.T.);
#984=FACE_BOUND('',#892,.T.);
#985=FACE_BOUND('',#893,.T.);
#986=FACE_BOUND('',#894,.T.);
#987=FACE_BOUND('',#895,.T.);
#988=FACE_BOUND('',#896,.T.);
#989=FACE_BOUND('',#897,.T.);
#990=FACE_BOUND('',#898,.T.);
#991=FACE_BOUND('',#899,.T.);
#992=FACE_BOUND('',#900,.T.);
#993=FACE_BOUND('',#901,.T.);
#994=FACE_BOUND('',#902,.T.);
#995=FACE_BOUND('',#903,.T.);
#996=FACE_BOUND('',#904,.T.);
#997=FACE_BOUND('',#905,.T.);
#998=FACE_BOUND('',#906,.T.);
#999=FACE_BOUND('',#907,.T.);
#1000=FACE_BOUND('',#908,.T.);
#1001=FACE_BOUND('',#909,.T.);
#1002=FACE_BOUND('',#910,.T.);
#1003=FACE_BOUND('',#911,.T.);
#1004=FACE_BOUND('',#912,.T.);
#1005=FACE_BOUND('',#913,.T.);
#1006=FACE_BOUND('',#914,.T.);
#1007=FACE_BOUND('',#915,.T.);
#1008=FACE_BOUND('',#916,.T.);
#1009=FACE_BOUND('',#917,.T.);
#1010=FACE_BOUND('',#918,.T.);
#1011=FACE_BOUND('',#919,.T.);
#1012=FACE_BOUND('',#920,.T.);
#1013=FACE_BOUND('',#921,.T.);
#1014=FACE_BOUND('',#922,.T.);
#1015=FACE_BOUND('',#923,.T.);
#1016=FACE_BOUND('',#924,.T.);
#1017=FACE_BOUND('',#925,.T.);
#1018=FACE_BOUND('',#926,.T.);
#1019=FACE_BOUND('',#927,.T.);
#1020=FACE_BOUND('',#928,.T.);
#1021=FACE_BOUND('',#929,.T.);
#1022=FACE_BOUND('',#930,.T.);
#1023=FACE_BOUND('',#931,.T.);
#1024=FACE_BOUND('',#932,.T.);
#1025=FACE_BOUND('',#933,.T.);
#1026=FACE_BOUND('',#934,.T.);
#1027=FACE_BOUND('',#935,.T.);
#1028=FACE_BOUND('',#936,.T.);
#1029=FACE_BOUND('',#937,.T.);
#1030=FACE_BOUND('',#938,.T.);
#1031=FACE_BOUND('',#939,.T.);
#1032=FACE_BOUND('',#940,.T.);
#1033=FACE_BOUND('',#941,.T.);
#1034=FACE_BOUND('',#942,.T.);
#1035=FACE_BOUND('',#943,.T.);
#1036=FACE_BOUND('',#944,.T.);
#1037=FACE_BOUND('',#945,.T.);
#1038=FACE_BOUND('',#946,.T.);
#1039=FACE_BOUND('',#947,.T.);
#1040=FACE_BOUND('',#948,.T.);
#1041=FACE_BOUND('',#949,.T.);
#1042=FACE_BOUND('',#950,.T.);
#1043=FACE_BOUND('',#951,.T.);
#1044=FACE_BOUND('',#952,.T.);
#1045=FACE_BOUND('',#953,.T.);
#1046=FACE_BOUND('',#954,.T.);
#1047=FACE_BOUND('',#955,.T.);
#1048=FACE_BOUND('',#956,.T.);
#1049=FACE_BOUND('',#957,.T.);
#1050=FACE_BOUND('',#958,.T.);
#1051=FACE_BOUND('',#959,.T.);
#1052=FACE_BOUND('',#960,.T.);
#1053=FACE_BOUND('',#961,.T.);
#1054=FACE_BOUND('',#962,.T.);
#1055=FACE_BOUND('',#963,.T.);
#1056=FACE_BOUND('',#964,.T.);
#1057=FACE_BOUND('',#965,.T.);
#1058=FACE_BOUND('',#966,.T.);
#1059=FACE_BOUND('',#967,.T.);
#1060=FACE_BOUND('',#968,.T.);
#1061=FACE_BOUND('',#969,.T.);
#1062=FACE_BOUND('',#970,.T.);
#1063=FACE_BOUND('',#971,.T.);
#1064=FACE_BOUND('',#972,.T.);
#1065=FACE_BOUND('',#973,.T.);
#1066=FACE_BOUND('',#974,.T.);
#1067=FACE_BOUND('',#975,.T.);
#1068=FACE_BOUND('',#976,.T.);
#1069=FACE_BOUND('',#977,.T.);
#1070=PLANE('',#1178);
#1071=PLANE('',#1181);
#1072=PLANE('',#1190);
#1073=PLANE('',#1195);
#1074=PLANE('',#1199);
#1075=PLANE('',#1202);
#1076=PLANE('',#1206);
#1077=PLANE('',#1219);
#1078=PLANE('',#1225);
#1079=PLANE('',#1226);
#1080=PLANE('',#1230);
#1081=PLANE('',#1234);
#1082=PLANE('',#1235);
#1083=PLANE('',#1236);
#1084=PLANE('',#1237);
#1085=PLANE('',#1240);
#1086=PLANE('',#1241);
#1087=PLANE('',#1242);
#1088=PLANE('',#1247);
#1089=PLANE('',#1248);
#1090=PLANE('',#1253);
#1091=PLANE('',#1254);
#1092=PLANE('',#1258);
#1093=PLANE('',#1259);
#1094=PLANE('',#1263);
#1095=PLANE('',#1264);
#1096=PLANE('',#1271);
#1097=PLANE('',#1277);
#1098=PLANE('',#1283);
#1099=PLANE('',#1285);
#1100=PLANE('',#1296);
#1101=PLANE('',#1297);
#1102=PLANE('',#1298);
#1103=PLANE('',#1299);
#1104=PLANE('',#1300);
#1105=PLANE('',#1302);
#1106=ADVANCED_FACE('',(#978),#1070,.T.);
#1107=ADVANCED_FACE('',(#979),#1071,.T.);
#1108=ADVANCED_FACE('',(#980,#981),#40,.F.);
#1109=ADVANCED_FACE('',(#982,#983),#41,.F.);
#1110=ADVANCED_FACE('',(#984),#1072,.T.);
#1111=ADVANCED_FACE('',(#985,#986),#1073,.T.);
#1112=ADVANCED_FACE('',(#987),#1074,.T.);
#1113=ADVANCED_FACE('',(#988,#989),#1075,.T.);
#1114=ADVANCED_FACE('',(#990),#1076,.T.);
#1115=ADVANCED_FACE('',(#991),#42,.F.);
#1116=ADVANCED_FACE('',(#992,#993,#994),#43,.T.);
#1117=ADVANCED_FACE('',(#995),#44,.T.);
#1118=ADVANCED_FACE('',(#996,#997,#998,#999),#1077,.F.);
#1119=ADVANCED_FACE('',(#1000,#1001),#45,.T.);
#1120=ADVANCED_FACE('',(#1002,#1003),#1078,.T.);
#1121=ADVANCED_FACE('',(#1004,#1005),#1079,.T.);
#1122=ADVANCED_FACE('',(#1006,#1007),#46,.T.);
#1123=ADVANCED_FACE('',(#1008,#1009),#1080,.T.);
#1124=ADVANCED_FACE('',(#1010,#1011),#47,.T.);
#1125=ADVANCED_FACE('',(#1012,#1013),#1081,.T.);
#1126=ADVANCED_FACE('',(#1014),#1082,.F.);
#1127=ADVANCED_FACE('',(#1015),#1083,.F.);
#1128=ADVANCED_FACE('',(#1016),#1084,.T.);
#1129=ADVANCED_FACE('',(#1017),#1085,.F.);
#1130=ADVANCED_FACE('',(#1018),#1086,.F.);
#1131=ADVANCED_FACE('',(#1019),#1087,.T.);
#1132=ADVANCED_FACE('',(#1020),#48,.T.);
#1133=ADVANCED_FACE('',(#1021),#1088,.F.);
#1134=ADVANCED_FACE('',(#1022),#1089,.T.);
#1135=ADVANCED_FACE('',(#1023),#49,.T.);
#1136=ADVANCED_FACE('',(#1024),#1090,.F.);
#1137=ADVANCED_FACE('',(#1025),#1091,.T.);
#1138=ADVANCED_FACE('',(#1026),#50,.T.);
#1139=ADVANCED_FACE('',(#1027),#1092,.F.);
#1140=ADVANCED_FACE('',(#1028),#1093,.T.);
#1141=ADVANCED_FACE('',(#1029),#51,.T.);
#1142=ADVANCED_FACE('',(#1030),#1094,.F.);
#1143=ADVANCED_FACE('',(#1031),#1095,.T.);
#1144=ADVANCED_FACE('',(#1032),#14,.F.);
#1145=ADVANCED_FACE('',(#1033),#52,.F.);
#1146=ADVANCED_FACE('',(#1034),#1096,.F.);
#1147=ADVANCED_FACE('',(#1035),#15,.F.);
#1148=ADVANCED_FACE('',(#1036),#53,.F.);
#1149=ADVANCED_FACE('',(#1037),#1097,.F.);
#1150=ADVANCED_FACE('',(#1038),#16,.F.);
#1151=ADVANCED_FACE('',(#1039),#54,.F.);
#1152=ADVANCED_FACE('',(#1040),#1098,.F.);
#1153=ADVANCED_FACE('',(#1041),#1099,.F.);
#1154=ADVANCED_FACE('',(#1042),#55,.F.);
#1155=ADVANCED_FACE('',(#1043),#17,.F.);
#1156=ADVANCED_FACE('',(#1044,#1045),#56,.F.);
#1157=ADVANCED_FACE('',(#1046,#1047),#18,.F.);
#1158=ADVANCED_FACE('',(#1048),#57,.F.);
#1159=ADVANCED_FACE('',(#1049),#1100,.T.);
#1160=ADVANCED_FACE('',(#1050),#1101,.F.);
#1161=ADVANCED_FACE('',(#1051),#1102,.F.);
#1162=ADVANCED_FACE('',(#1052),#1103,.F.);
#1163=ADVANCED_FACE('',(#1053,#1054),#1104,.T.);
#1164=ADVANCED_FACE('',(#1055,#1056),#1105,.T.);
#1165=ADVANCED_FACE('',(#1057,#1058,#1059),#58,.F.);
#1166=ADVANCED_FACE('',(#1060,#1061),#59,.F.);
#1167=ADVANCED_FACE('',(#1062,#1063),#60,.F.);
#1168=ADVANCED_FACE('',(#1064,#1065),#19,.F.);
#1169=ADVANCED_FACE('',(#1066),#20,.F.);
#1170=ADVANCED_FACE('',(#1067),#12,.F.);
#1171=ADVANCED_FACE('',(#1068),#21,.F.);
#1172=ADVANCED_FACE('',(#1069),#13,.F.);
#1173=CLOSED_SHELL('',(#1106,#1107,#1108,#1109,#1110,#1111,#1112,#1113,
#1114,#1115,#1116,#1117,#1118,#1119,#1120,#1121,#1122,#1123,#1124,#1125,
#1126,#1127,#1128,#1129,#1130,#1131,#1132,#1133,#1134,#1135,#1136,#1137,
#1138,#1139,#1140,#1141,#1142,#1143,#1144,#1145,#1146,#1147,#1148,#1149,
#1150,#1151,#1152,#1153,#1154,#1155,#1156,#1157,#1158,#1159,#1160,#1161,
#1162,#1163,#1164,#1165,#1166,#1167,#1168,#1169,#1170,#1171,#1172));
#1174=MANIFOLD_SOLID_BREP('',#1173);
#1175=SHAPE_DEFINITION_REPRESENTATION(#2087,#1176);
#1176=SHAPE_REPRESENTATION('id2',(#1177),#2082);
#1177=AXIS2_PLACEMENT_3D('',#1664,#1314,#1315);
#1178=AXIS2_PLACEMENT_3D('',#1665,#1316,#1317);
#1179=AXIS2_PLACEMENT_3D('',#1666,#1318,#1319);
#1180=AXIS2_PLACEMENT_3D('',#1671,#1321,#1322);
#1181=AXIS2_PLACEMENT_3D('',#1674,#1324,#1325);
#1182=AXIS2_PLACEMENT_3D('',#1675,#1326,#1327);
#1183=AXIS2_PLACEMENT_3D('',#1680,#1329,#1330);
#1184=AXIS2_PLACEMENT_3D('',#1683,#1332,#1333);
#1185=AXIS2_PLACEMENT_3D('',#1684,#1334,#1335);
#1186=AXIS2_PLACEMENT_3D('',#1686,#1336,#1337);
#1187=AXIS2_PLACEMENT_3D('',#1688,#1338,#1339);
#1188=AXIS2_PLACEMENT_3D('',#1689,#1340,#1341);
#1189=AXIS2_PLACEMENT_3D('',#1691,#1342,#1343);
#1190=AXIS2_PLACEMENT_3D('',#1693,#1344,#1345);
#1191=AXIS2_PLACEMENT_3D('',#1697,#1347,#1348);
#1192=AXIS2_PLACEMENT_3D('',#1699,#1349,#1350);
#1193=AXIS2_PLACEMENT_3D('',#1701,#1351,#1352);
#1194=AXIS2_PLACEMENT_3D('',#1705,#1354,#1355);
#1195=AXIS2_PLACEMENT_3D('',#1710,#1358,#1359);
#1196=AXIS2_PLACEMENT_3D('',#1711,#1360,#1361);
#1197=AXIS2_PLACEMENT_3D('',#1716,#1363,#1364);
#1198=AXIS2_PLACEMENT_3D('',#1719,#1366,#1367);
#1199=AXIS2_PLACEMENT_3D('',#1721,#1368,#1369);
#1200=AXIS2_PLACEMENT_3D('',#1722,#1370,#1371);
#1201=AXIS2_PLACEMENT_3D('',#1727,#1373,#1374);
#1202=AXIS2_PLACEMENT_3D('',#1730,#1376,#1377);
#1203=AXIS2_PLACEMENT_3D('',#1731,#1378,#1379);
#1204=AXIS2_PLACEMENT_3D('',#1736,#1381,#1382);
#1205=AXIS2_PLACEMENT_3D('',#1739,#1384,#1385);
#1206=AXIS2_PLACEMENT_3D('',#1741,#1386,#1387);
#1207=AXIS2_PLACEMENT_3D('',#1742,#1388,#1389);
#1208=AXIS2_PLACEMENT_3D('',#1747,#1391,#1392);
#1209=AXIS2_PLACEMENT_3D('',#1750,#1394,#1395);
#1210=AXIS2_PLACEMENT_3D('',#1753,#1397,#1398);
#1211=AXIS2_PLACEMENT_3D('',#1756,#1400,#1401);
#1212=AXIS2_PLACEMENT_3D('',#1773,#1402,#1403);
#1213=AXIS2_PLACEMENT_3D('',#1775,#1404,#1405);
#1214=AXIS2_PLACEMENT_3D('',#1777,#1406,#1407);
#1215=AXIS2_PLACEMENT_3D('',#1780,#1409,#1410);
#1216=AXIS2_PLACEMENT_3D('',#1786,#1414,#1415);
#1217=AXIS2_PLACEMENT_3D('',#1791,#1418,#1419);
#1218=AXIS2_PLACEMENT_3D('',#1795,#1421,#1422);
#1219=AXIS2_PLACEMENT_3D('',#1798,#1424,#1425);
#1220=AXIS2_PLACEMENT_3D('',#1799,#1426,#1427);
#1221=AXIS2_PLACEMENT_3D('',#1801,#1428,#1429);
#1222=AXIS2_PLACEMENT_3D('',#1808,#1433,#1434);
#1223=AXIS2_PLACEMENT_3D('',#1810,#1435,#1436);
#1224=AXIS2_PLACEMENT_3D('',#1811,#1437,#1438);
#1225=AXIS2_PLACEMENT_3D('',#1813,#1439,#1440);
#1226=AXIS2_PLACEMENT_3D('',#1814,#1441,#1442);
#1227=AXIS2_PLACEMENT_3D('',#1815,#1443,#1444);
#1228=AXIS2_PLACEMENT_3D('',#1817,#1445,#1446);
#1229=AXIS2_PLACEMENT_3D('',#1818,#1447,#1448);
#1230=AXIS2_PLACEMENT_3D('',#1820,#1449,#1450);
#1231=AXIS2_PLACEMENT_3D('',#1821,#1451,#1452);
#1232=AXIS2_PLACEMENT_3D('',#1823,#1453,#1454);
#1233=AXIS2_PLACEMENT_3D('',#1824,#1455,#1456);
#1234=AXIS2_PLACEMENT_3D('',#1826,#1457,#1458);
#1235=AXIS2_PLACEMENT_3D('',#1827,#1459,#1460);
#1236=AXIS2_PLACEMENT_3D('',#1853,#1467,#1468);
#1237=AXIS2_PLACEMENT_3D('',#1879,#1475,#1476);
#1238=AXIS2_PLACEMENT_3D('',#1880,#1477,#1478);
#1239=AXIS2_PLACEMENT_3D('',#1881,#1479,#1480);
#1240=AXIS2_PLACEMENT_3D('',#1882,#1481,#1482);
#1241=AXIS2_PLACEMENT_3D('',#1906,#1488,#1489);
#1242=AXIS2_PLACEMENT_3D('',#1932,#1496,#1497);
#1243=AXIS2_PLACEMENT_3D('',#1933,#1498,#1499);
#1244=AXIS2_PLACEMENT_3D('',#1935,#1500,#1501);
#1245=AXIS2_PLACEMENT_3D('',#1936,#1502,#1503);
#1246=AXIS2_PLACEMENT_3D('',#1939,#1505,#1506);
#1247=AXIS2_PLACEMENT_3D('',#1940,#1507,#1508);
#1248=AXIS2_PLACEMENT_3D('',#1955,#1514,#1515);
#1249=AXIS2_PLACEMENT_3D('',#1956,#1516,#1517);
#1250=AXIS2_PLACEMENT_3D('',#1957,#1518,#1519);
#1251=AXIS2_PLACEMENT_3D('',#1958,#1520,#1521);
#1252=AXIS2_PLACEMENT_3D('',#1959,#1522,#1523);
#1253=AXIS2_PLACEMENT_3D('',#1962,#1525,#1526);
#1254=AXIS2_PLACEMENT_3D('',#1975,#1531,#1532);
#1255=AXIS2_PLACEMENT_3D('',#1976,#1533,#1534);
#1256=AXIS2_PLACEMENT_3D('',#1977,#1535,#1536);
#1257=AXIS2_PLACEMENT_3D('',#1980,#1538,#1539);
#1258=AXIS2_PLACEMENT_3D('',#1981,#1540,#1541);
#1259=AXIS2_PLACEMENT_3D('',#1994,#1546,#1547);
#1260=AXIS2_PLACEMENT_3D('',#1995,#1548,#1549);
#1261=AXIS2_PLACEMENT_3D('',#1996,#1550,#1551);
#1262=AXIS2_PLACEMENT_3D('',#1997,#1552,#1553);
#1263=AXIS2_PLACEMENT_3D('',#2000,#1555,#1556);
#1264=AXIS2_PLACEMENT_3D('',#2015,#1562,#1563);
#1265=AXIS2_PLACEMENT_3D('',#2016,#1564,#1565);
#1266=AXIS2_PLACEMENT_3D('',#2017,#1566,#1567);
#1267=AXIS2_PLACEMENT_3D('',#2018,#1568,#1569);
#1268=AXIS2_PLACEMENT_3D('',#2019,#1570,#1571);
#1269=AXIS2_PLACEMENT_3D('',#2020,#1572,#1573);
#1270=AXIS2_PLACEMENT_3D('',#2021,#1574,#1575);
#1271=AXIS2_PLACEMENT_3D('',#2022,#1576,#1577);
#1272=AXIS2_PLACEMENT_3D('',#2023,#1578,#1579);
#1273=AXIS2_PLACEMENT_3D('',#2024,#1580,#1581);
#1274=AXIS2_PLACEMENT_3D('',#2025,#1582,#1583);
#1275=AXIS2_PLACEMENT_3D('',#2026,#1584,#1585);
#1276=AXIS2_PLACEMENT_3D('',#2027,#1586,#1587);
#1277=AXIS2_PLACEMENT_3D('',#2028,#1588,#1589);
#1278=AXIS2_PLACEMENT_3D('',#2029,#1590,#1591);
#1279=AXIS2_PLACEMENT_3D('',#2030,#1592,#1593);
#1280=AXIS2_PLACEMENT_3D('',#2031,#1594,#1595);
#1281=AXIS2_PLACEMENT_3D('',#2032,#1596,#1597);
#1282=AXIS2_PLACEMENT_3D('',#2033,#1598,#1599);
#1283=AXIS2_PLACEMENT_3D('',#2034,#1600,#1601);
#1284=AXIS2_PLACEMENT_3D('',#2035,#1602,#1603);
#1285=AXIS2_PLACEMENT_3D('',#2036,#1604,#1605);
#1286=AXIS2_PLACEMENT_3D('',#2037,#1606,#1607);
#1287=AXIS2_PLACEMENT_3D('',#2038,#1608,#1609);
#1288=AXIS2_PLACEMENT_3D('',#2039,#1610,#1611);
#1289=AXIS2_PLACEMENT_3D('',#2040,#1612,#1613);
#1290=AXIS2_PLACEMENT_3D('',#2041,#1614,#1615);
#1291=AXIS2_PLACEMENT_3D('',#2042,#1616,#1617);
#1292=AXIS2_PLACEMENT_3D('',#2043,#1618,#1619);
#1293=AXIS2_PLACEMENT_3D('',#2045,#1620,#1621);
#1294=AXIS2_PLACEMENT_3D('',#2046,#1622,#1623);
#1295=AXIS2_PLACEMENT_3D('',#2047,#1624,#1625);
#1296=AXIS2_PLACEMENT_3D('',#2048,#1626,#1627);
#1297=AXIS2_PLACEMENT_3D('',#2049,#1628,#1629);
#1298=AXIS2_PLACEMENT_3D('',#2052,#1632,#1633);
#1299=AXIS2_PLACEMENT_3D('',#2053,#1634,#1635);
#1300=AXIS2_PLACEMENT_3D('',#2054,#1636,#1637);
#1301=AXIS2_PLACEMENT_3D('',#2055,#1638,#1639);
#1302=AXIS2_PLACEMENT_3D('',#2057,#1640,#1641);
#1303=AXIS2_PLACEMENT_3D('',#2058,#1642,#1643);
#1304=AXIS2_PLACEMENT_3D('',#2060,#1644,#1645);
#1305=AXIS2_PLACEMENT_3D('',#2073,#1646,#1647);
#1306=AXIS2_PLACEMENT_3D('',#2074,#1648,#1649);
#1307=AXIS2_PLACEMENT_3D('',#2075,#1650,#1651);
#1308=AXIS2_PLACEMENT_3D('',#2076,#1652,#1653);
#1309=AXIS2_PLACEMENT_3D('',#2077,#1654,#1655);
#1310=AXIS2_PLACEMENT_3D('',#2078,#1656,#1657);
#1311=AXIS2_PLACEMENT_3D('',#2079,#1658,#1659);
#1312=AXIS2_PLACEMENT_3D('',#2080,#1660,#1661);
#1313=AXIS2_PLACEMENT_3D('',#2081,#1662,#1663);
#1314=DIRECTION('',(0.,0.,1.));
#1315=DIRECTION('',(1.,0.,0.));
#1316=DIRECTION('',(0.,0.,1.));
#1317=DIRECTION('',(1.,0.,0.));
#1318=DIRECTION('',(0.,0.,1.));
#1319=DIRECTION('',(1.,0.,0.));
#1320=DIRECTION('',(0.,-1.,0.));
#1321=DIRECTION('',(0.,0.,1.));
#1322=DIRECTION('',(1.,0.,0.));
#1323=DIRECTION('',(-2.13768248730725E-16,1.,0.));
#1324=DIRECTION('',(0.,0.,1.));
#1325=DIRECTION('',(1.,0.,0.));
#1326=DIRECTION('',(0.,0.,1.));
#1327=DIRECTION('',(1.,0.,0.));
#1328=DIRECTION('',(2.13768248730725E-16,1.,0.));
#1329=DIRECTION('',(0.,0.,1.));
#1330=DIRECTION('',(1.,0.,0.));
#1331=DIRECTION('',(0.,-1.,0.));
#1332=DIRECTION('',(0.,0.,-1.));
#1333=DIRECTION('',(-1.,0.,0.));
#1334=DIRECTION('',(0.,0.,1.));
#1335=DIRECTION('',(1.,0.,0.));
#1336=DIRECTION('',(0.,-3.52759866187993E-17,-1.));
#1337=DIRECTION('',(0.,1.,-3.52759866187993E-17));
#1338=DIRECTION('',(0.,0.,-1.));
#1339=DIRECTION('',(-1.,0.,0.));
#1340=DIRECTION('',(0.,0.,-1.));
#1341=DIRECTION('',(-1.,0.,0.));
#1342=DIRECTION('',(0.,3.52759866187993E-17,1.));
#1343=DIRECTION('',(0.,-1.,3.52759866187993E-17));
#1344=DIRECTION('',(0.,0.,1.));
#1345=DIRECTION('',(1.,0.,0.));
#1346=DIRECTION('',(0.707106781186547,-0.707106781186548,0.));
#1347=DIRECTION('',(0.,0.,1.));
#1348=DIRECTION('',(1.,0.,0.));
#1349=DIRECTION('',(0.,0.,1.));
#1350=DIRECTION('',(1.,0.,0.));
#1351=DIRECTION('',(0.,0.,1.));
#1352=DIRECTION('',(1.,0.,0.));
#1353=DIRECTION('',(-2.13768248730725E-16,1.,0.));
#1354=DIRECTION('',(0.,0.,1.));
#1355=DIRECTION('',(1.,0.,0.));
#1356=DIRECTION('',(-0.707106781186546,0.707106781186549,0.));
#1357=DIRECTION('',(0.707106781186549,0.707106781186546,0.));
#1358=DIRECTION('',(0.,0.,1.));
#1359=DIRECTION('',(1.,0.,0.));
#1360=DIRECTION('',(0.,-2.35596259789184E-15,-1.));
#1361=DIRECTION('',(0.,1.,-2.35596259789184E-15));
#1362=DIRECTION('',(-2.13768248730725E-16,1.,0.));
#1363=DIRECTION('',(0.,0.,1.));
#1364=DIRECTION('',(1.,0.,0.));
#1365=DIRECTION('',(0.,-1.,0.));
#1366=DIRECTION('',(0.,0.,1.));
#1367=DIRECTION('',(1.,0.,0.));
#1368=DIRECTION('',(0.,0.,1.));
#1369=DIRECTION('',(1.,0.,0.));
#1370=DIRECTION('',(0.,0.,1.));
#1371=DIRECTION('',(1.,0.,0.));
#1372=DIRECTION('',(-1.,1.02016079670612E-14,0.));
#1373=DIRECTION('',(0.,0.,1.));
#1374=DIRECTION('',(1.,0.,0.));
#1375=DIRECTION('',(1.,0.,0.));
#1376=DIRECTION('',(0.,0.,1.));
#1377=DIRECTION('',(1.,0.,0.));
#1378=DIRECTION('',(0.,0.,1.));
#1379=DIRECTION('',(1.,0.,0.));
#1380=DIRECTION('',(0.,-1.,0.));
#1381=DIRECTION('',(0.,0.,1.));
#1382=DIRECTION('',(1.,0.,0.));
#1383=DIRECTION('',(2.13768248730725E-16,1.,0.));
#1384=DIRECTION('',(0.,0.,1.));
#1385=DIRECTION('',(1.,0.,0.));
#1386=DIRECTION('',(0.,0.,1.));
#1387=DIRECTION('',(1.,0.,0.));
#1388=DIRECTION('',(0.,0.,1.));
#1389=DIRECTION('',(1.,0.,0.));
#1390=DIRECTION('',(-1.,0.,0.));
#1391=DIRECTION('',(0.,0.,-1.));
#1392=DIRECTION('',(1.,0.,0.));
#1393=DIRECTION('',(1.,-3.21864528937491E-15,0.));
#1394=DIRECTION('',(0.,0.,-1.));
#1395=DIRECTION('',(-1.,0.,0.));
#1396=DIRECTION('',(0.,0.,-1.));
#1397=DIRECTION('',(0.,0.,1.));
#1398=DIRECTION('',(1.,0.,0.));
#1399=DIRECTION('',(0.,0.,-1.));
#1400=DIRECTION('',(0.,0.,1.));
#1401=DIRECTION('',(1.,0.,0.));
#1402=DIRECTION('',(0.,3.53304170260042E-17,1.));
#1403=DIRECTION('',(0.,-1.,3.53304170260042E-17));
#1404=DIRECTION('',(0.,3.53304170260042E-17,1.));
#1405=DIRECTION('',(0.,-1.,3.53304170260042E-17));
#1406=DIRECTION('',(0.,0.,1.));
#1407=DIRECTION('',(1.,0.,0.));
#1408=DIRECTION('',(0.,0.,1.));
#1409=DIRECTION('',(0.,0.,1.));
#1410=DIRECTION('',(1.,0.,0.));
#1411=DIRECTION('',(0.,0.,1.));
#1412=DIRECTION('',(0.,0.,-1.));
#1413=DIRECTION('',(0.,0.,-1.));
#1414=DIRECTION('',(0.,0.,1.));
#1415=DIRECTION('',(1.,0.,0.));
#1416=DIRECTION('',(0.,0.,-1.));
#1417=DIRECTION('',(0.,0.,-1.));
#1418=DIRECTION('',(0.,0.,1.));
#1419=DIRECTION('',(1.,0.,0.));
#1420=DIRECTION('',(0.,0.,1.));
#1421=DIRECTION('',(0.,0.,1.));
#1422=DIRECTION('',(1.,0.,0.));
#1423=DIRECTION('',(0.,0.,1.));
#1424=DIRECTION('',(0.,0.,1.));
#1425=DIRECTION('',(1.,0.,0.));
#1426=DIRECTION('',(0.,0.,1.));
#1427=DIRECTION('',(1.,0.,0.));
#1428=DIRECTION('',(0.,0.,1.));
#1429=DIRECTION('',(1.,0.,0.));
#1430=DIRECTION('',(-0.707106781186547,0.707106781186548,0.));
#1431=DIRECTION('',(-0.707106781186549,-0.707106781186546,0.));
#1432=DIRECTION('',(0.707106781186546,-0.707106781186549,0.));
#1433=DIRECTION('',(0.,3.53304170260042E-17,1.));
#1434=DIRECTION('',(0.,-1.,3.53304170260042E-17));
#1435=DIRECTION('',(0.,3.53304170260042E-17,1.));
#1436=DIRECTION('',(0.,-1.,3.53304170260042E-17));
#1437=DIRECTION('',(0.,3.53304170260042E-17,1.));
#1438=DIRECTION('',(0.,-1.,3.53304170260042E-17));
#1439=DIRECTION('',(0.,3.53304170260042E-17,1.));
#1440=DIRECTION('',(0.,-1.,3.53304170260042E-17));
#1441=DIRECTION('',(0.,-3.53304170260042E-17,-1.));
#1442=DIRECTION('',(0.,1.,-3.53304170260042E-17));
#1443=DIRECTION('',(0.,3.53304170260042E-17,1.));
#1444=DIRECTION('',(0.,-1.,3.53304170260042E-17));
#1445=DIRECTION('',(0.,3.53304170260042E-17,1.));
#1446=DIRECTION('',(0.,-1.,3.53304170260042E-17));
#1447=DIRECTION('',(0.,3.53304170260042E-17,1.));
#1448=DIRECTION('',(0.,-1.,3.53304170260042E-17));
#1449=DIRECTION('',(0.,3.53304170260042E-17,1.));
#1450=DIRECTION('',(0.,-1.,3.53304170260042E-17));
#1451=DIRECTION('',(0.,3.53304170260042E-17,1.));
#1452=DIRECTION('',(0.,-1.,3.53304170260042E-17));
#1453=DIRECTION('',(0.,3.53304170260042E-17,1.));
#1454=DIRECTION('',(0.,-1.,3.53304170260042E-17));
#1455=DIRECTION('',(0.,3.53304170260042E-17,1.));
#1456=DIRECTION('',(0.,-1.,3.53304170260042E-17));
#1457=DIRECTION('',(0.,0.,-1.));
#1458=DIRECTION('',(-1.,0.,0.));
#1459=DIRECTION('',(1.,0.,0.));
#1460=DIRECTION('',(0.,0.,-1.));
#1461=DIRECTION('',(0.,-1.,0.));
#1462=DIRECTION('',(0.,0.,-1.));
#1463=DIRECTION('',(2.72836049468225E-16,-1.,0.));
#1464=DIRECTION('',(0.,0.,-1.));
#1465=DIRECTION('',(0.,1.,0.));
#1466=DIRECTION('',(0.,0.,1.));
#1467=DIRECTION('',(1.,0.,0.));
#1468=DIRECTION('',(0.,0.,-1.));
#1469=DIRECTION('',(0.,0.,-1.));
#1470=DIRECTION('',(0.,-1.,0.));
#1471=DIRECTION('',(0.,0.,1.));
#1472=DIRECTION('',(0.,1.,0.));
#1473=DIRECTION('',(0.,0.,-1.));
#1474=DIRECTION('',(-3.49148133884313E-15,-1.,0.));
#1475=DIRECTION('',(0.,0.,1.));
#1476=DIRECTION('',(1.,0.,0.));
#1477=DIRECTION('',(0.,0.,1.));
#1478=DIRECTION('',(1.,0.,0.));
#1479=DIRECTION('',(0.,0.,1.));
#1480=DIRECTION('',(1.,0.,0.));
#1481=DIRECTION('',(-1.,-2.13768248730725E-16,0.));
#1482=DIRECTION('',(2.13768248730725E-16,-1.,0.));
#1483=DIRECTION('',(0.,0.,-1.));
#1484=DIRECTION('',(-2.72836049468225E-16,1.,0.));
#1485=DIRECTION('',(0.,0.,-1.));
#1486=DIRECTION('',(2.13768248730725E-16,-1.,0.));
#1487=DIRECTION('',(0.,0.,1.));
#1488=DIRECTION('',(-1.,2.13768248730725E-16,0.));
#1489=DIRECTION('',(-2.13768248730725E-16,-1.,0.));
#1490=DIRECTION('',(0.,0.,-1.));
#1491=DIRECTION('',(2.13768248730725E-16,1.,0.));
#1492=DIRECTION('',(0.,0.,1.));
#1493=DIRECTION('',(-2.13768248730725E-16,-1.,0.));
#1494=DIRECTION('',(0.,0.,-1.));
#1495=DIRECTION('',(1.04744440165294E-14,1.,0.));
#1496=DIRECTION('',(0.,0.,1.));
#1497=DIRECTION('',(1.,0.,0.));
#1498=DIRECTION('',(0.,0.,1.));
#1499=DIRECTION('',(1.,0.,0.));
#1500=DIRECTION('',(0.,0.,1.));
#1501=DIRECTION('',(1.,0.,0.));
#1502=DIRECTION('',(0.,0.,-1.));
#1503=DIRECTION('',(-1.,0.,0.));
#1504=DIRECTION('',(0.,0.,1.));
#1505=DIRECTION('',(0.,0.,1.));
#1506=DIRECTION('',(1.,0.,0.));
#1507=DIRECTION('',(0.,1.,0.));
#1508=DIRECTION('',(0.,0.,1.));
#1509=DIRECTION('',(1.,0.,0.));
#1510=DIRECTION('',(0.,0.,1.));
#1511=DIRECTION('',(0.,0.,1.));
#1512=DIRECTION('',(-1.,0.,0.));
#1513=DIRECTION('',(0.,0.,-1.));
#1514=DIRECTION('',(0.,0.,1.));
#1515=DIRECTION('',(1.,0.,0.));
#1516=DIRECTION('',(0.,0.,1.));
#1517=DIRECTION('',(1.,0.,0.));
#1518=DIRECTION('',(0.,0.,-1.));
#1519=DIRECTION('',(-1.,0.,0.));
#1520=DIRECTION('',(0.,0.,-1.));
#1521=DIRECTION('',(-1.,0.,0.));
#1522=DIRECTION('',(0.,0.,1.));
#1523=DIRECTION('',(1.,0.,0.));
#1524=DIRECTION('',(0.,0.,-1.));
#1525=DIRECTION('',(3.21864528937491E-15,1.,0.));
#1526=DIRECTION('',(-1.,3.21864528937491E-15,0.));
#1527=DIRECTION('',(-1.,3.21864528937491E-15,0.));
#1528=DIRECTION('',(0.,0.,1.));
#1529=DIRECTION('',(1.,-3.21864528937491E-15,0.));
#1530=DIRECTION('',(0.,0.,-1.));
#1531=DIRECTION('',(0.,0.,1.));
#1532=DIRECTION('',(1.,0.,0.));
#1533=DIRECTION('',(0.,0.,-1.));
#1534=DIRECTION('',(-1.,0.,0.));
#1535=DIRECTION('',(0.,0.,-1.));
#1536=DIRECTION('',(-1.,0.,0.));
#1537=DIRECTION('',(0.,0.,-1.));
#1538=DIRECTION('',(0.,0.,1.));
#1539=DIRECTION('',(1.,0.,0.));
#1540=DIRECTION('',(0.,-1.,0.));
#1541=DIRECTION('',(0.,0.,-1.));
#1542=DIRECTION('',(0.,0.,1.));
#1543=DIRECTION('',(1.,0.,0.));
#1544=DIRECTION('',(0.,0.,-1.));
#1545=DIRECTION('',(-1.,0.,0.));
#1546=DIRECTION('',(0.,0.,1.));
#1547=DIRECTION('',(1.,0.,0.));
#1548=DIRECTION('',(0.,0.,-1.));
#1549=DIRECTION('',(-1.,0.,0.));
#1550=DIRECTION('',(0.,0.,-1.));
#1551=DIRECTION('',(-1.,0.,0.));
#1552=DIRECTION('',(0.,0.,1.));
#1553=DIRECTION('',(1.,0.,0.));
#1554=DIRECTION('',(0.,0.,1.));
#1555=DIRECTION('',(-1.02016079670612E-14,-1.,0.));
#1556=DIRECTION('',(1.,-1.02016079670612E-14,0.));
#1557=DIRECTION('',(0.,0.,1.));
#1558=DIRECTION('',(-1.,1.02016079670612E-14,0.));
#1559=DIRECTION('',(0.,0.,-1.));
#1560=DIRECTION('',(1.,-1.02016079670612E-14,0.));
#1561=DIRECTION('',(0.,0.,1.));
#1562=DIRECTION('',(0.,0.,1.));
#1563=DIRECTION('',(1.,0.,0.));
#1564=DIRECTION('',(0.,0.,1.));
#1565=DIRECTION('',(1.,0.,0.));
#1566=DIRECTION('',(0.,0.,1.));
#1567=DIRECTION('',(1.,0.,0.));
#1568=DIRECTION('',(0.,0.,1.));
#1569=DIRECTION('',(1.,0.,0.));
#1570=DIRECTION('',(0.,0.,-1.));
#1571=DIRECTION('',(-1.,0.,0.));
#1572=DIRECTION('',(0.,0.,-1.));
#1573=DIRECTION('',(-1.,0.,0.));
#1574=DIRECTION('',(0.,0.,-1.));
#1575=DIRECTION('',(-1.,0.,0.));
#1576=DIRECTION('',(0.,0.,-1.));
#1577=DIRECTION('',(-1.,0.,0.));
#1578=DIRECTION('',(0.,0.,-1.));
#1579=DIRECTION('',(-1.,0.,0.));
#1580=DIRECTION('',(0.,0.,1.));
#1581=DIRECTION('',(1.,0.,0.));
#1582=DIRECTION('',(0.,0.,-1.));
#1583=DIRECTION('',(-1.,0.,0.));
#1584=DIRECTION('',(0.,0.,-1.));
#1585=DIRECTION('',(-1.,0.,0.));
#1586=DIRECTION('',(0.,0.,-1.));
#1587=DIRECTION('',(-1.,0.,0.));
#1588=DIRECTION('',(0.,0.,-1.));
#1589=DIRECTION('',(-1.,0.,0.));
#1590=DIRECTION('',(0.,0.,-1.));
#1591=DIRECTION('',(-1.,0.,0.));
#1592=DIRECTION('',(0.,0.,1.));
#1593=DIRECTION('',(1.,0.,0.));
#1594=DIRECTION('',(0.,0.,-1.));
#1595=DIRECTION('',(-1.,0.,0.));
#1596=DIRECTION('',(0.,0.,-1.));
#1597=DIRECTION('',(-1.,0.,0.));
#1598=DIRECTION('',(0.,0.,-1.));
#1599=DIRECTION('',(-1.,0.,0.));
#1600=DIRECTION('',(0.,0.,-1.));
#1601=DIRECTION('',(-1.,0.,0.));
#1602=DIRECTION('',(0.,0.,-1.));
#1603=DIRECTION('',(-1.,0.,0.));
#1604=DIRECTION('',(0.,0.,-1.));
#1605=DIRECTION('',(-1.,0.,0.));
#1606=DIRECTION('',(0.,0.,-1.));
#1607=DIRECTION('',(-1.,0.,0.));
#1608=DIRECTION('',(0.,0.,-1.));
#1609=DIRECTION('',(-1.,0.,0.));
#1610=DIRECTION('',(0.,0.,-1.));
#1611=DIRECTION('',(-1.,0.,0.));
#1612=DIRECTION('',(0.,0.,-1.));
#1613=DIRECTION('',(-1.,0.,0.));
#1614=DIRECTION('',(0.,0.,1.));
#1615=DIRECTION('',(1.,0.,0.));
#1616=DIRECTION('',(0.,0.,1.));
#1617=DIRECTION('',(1.,0.,0.));
#1618=DIRECTION('',(0.,0.,1.));
#1619=DIRECTION('',(1.,0.,0.));
#1620=DIRECTION('',(0.,0.,1.));
#1621=DIRECTION('',(1.,0.,0.));
#1622=DIRECTION('',(0.,0.,1.));
#1623=DIRECTION('',(1.,0.,0.));
#1624=DIRECTION('',(0.,0.,1.));
#1625=DIRECTION('',(1.,0.,0.));
#1626=DIRECTION('',(0.,0.,1.));
#1627=DIRECTION('',(1.,0.,0.));
#1628=DIRECTION('',(0.707106781186546,-0.707106781186549,0.));
#1629=DIRECTION('',(0.707106781186549,0.707106781186546,0.));
#1630=DIRECTION('',(0.,0.,1.));
#1631=DIRECTION('',(0.,0.,1.));
#1632=DIRECTION('',(-0.707106781186548,-0.707106781186547,0.));
#1633=DIRECTION('',(0.707106781186547,-0.707106781186548,0.));
#1634=DIRECTION('',(0.707106781186549,0.707106781186546,0.));
#1635=DIRECTION('',(-0.707106781186546,0.707106781186549,0.));
#1636=DIRECTION('',(0.,-3.52759866187993E-17,-1.));
#1637=DIRECTION('',(0.,1.,-3.52759866187993E-17));
#1638=DIRECTION('',(0.,3.52759866187993E-17,1.));
#1639=DIRECTION('',(0.,-1.,3.52759866187993E-17));
#1640=DIRECTION('',(0.,3.52759866187993E-17,1.));
#1641=DIRECTION('',(0.,-1.,3.52759866187993E-17));
#1642=DIRECTION('',(0.,3.52759866187993E-17,1.));
#1643=DIRECTION('',(0.,-1.,3.52759866187993E-17));
#1644=DIRECTION('',(0.,3.52759866187993E-17,1.));
#1645=DIRECTION('',(0.,-1.,3.52759866187993E-17));
#1646=DIRECTION('',(0.,0.,1.));
#1647=DIRECTION('',(1.,0.,0.));
#1648=DIRECTION('',(0.,0.,1.));
#1649=DIRECTION('',(1.,0.,0.));
#1650=DIRECTION('',(0.,-1.,0.));
#1651=DIRECTION('',(0.,0.,-1.));
#1652=DIRECTION('',(0.,0.,1.));
#1653=DIRECTION('',(1.,0.,0.));
#1654=DIRECTION('',(0.,0.,1.));
#1655=DIRECTION('',(1.,0.,0.));
#1656=DIRECTION('',(0.,0.,1.));
#1657=DIRECTION('',(1.,0.,0.));
#1658=DIRECTION('',(0.,2.35596259789184E-15,1.));
#1659=DIRECTION('',(0.,-1.,2.35596259789184E-15));
#1660=DIRECTION('',(0.,-2.35596259789184E-15,-1.));
#1661=DIRECTION('',(0.,1.,-2.35596259789184E-15));
#1662=DIRECTION('',(0.,-2.35596259789184E-15,-1.));
#1663=DIRECTION('',(0.,1.,-2.35596259789184E-15));
#1664=CARTESIAN_POINT('',(0.,0.,0.));
#1665=CARTESIAN_POINT('',(0.,0.,0.));
#1666=CARTESIAN_POINT('',(3.55016282064415E-17,-1.49363738033338E-17,0.));
#1667=CARTESIAN_POINT('',(0.0015,0.00846817571853584,5.59898135615772E-20));
#1668=CARTESIAN_POINT('',(-0.0015,0.00846817571853584,-2.94861764234328E-19));
#1669=CARTESIAN_POINT('',(0.0015,0.00988685996664259,0.));
#1670=CARTESIAN_POINT('',(0.0015,0.00988685996664259,0.));
#1671=CARTESIAN_POINT('',(0.,0.,0.));
#1672=CARTESIAN_POINT('',(-0.0015,0.00988685996664259,0.));
#1673=CARTESIAN_POINT('',(-0.0015,0.00988685996664259,0.));
#1674=CARTESIAN_POINT('',(0.,0.,0.));
#1675=CARTESIAN_POINT('',(0.,1.17093834628434E-17,0.));
#1676=CARTESIAN_POINT('',(-0.0015,-0.00846817571853582,3.55952389916491E-20));
#1677=CARTESIAN_POINT('',(0.0015,-0.00846817571853582,0.));
#1678=CARTESIAN_POINT('',(-0.0015,-0.00785811682275085,0.));
#1679=CARTESIAN_POINT('',(-0.0015,-0.00988685996664259,0.));
#1680=CARTESIAN_POINT('',(0.,0.,0.));
#1681=CARTESIAN_POINT('',(0.0015,-0.00988685996664259,0.));
#1682=CARTESIAN_POINT('',(0.0015,-0.00785811682275086,0.));
#1683=CARTESIAN_POINT('',(0.,0.,0.00925));
#1684=CARTESIAN_POINT('',(0.,0.,-0.000690774557124803));
#1685=CARTESIAN_POINT('',(0.0015,0.,-0.000690774557124803));
#1686=CARTESIAN_POINT('',(0.,0.,-0.00555));
#1687=CARTESIAN_POINT('',(0.,0.0015,-0.00555));
#1688=CARTESIAN_POINT('',(0.,0.,0.00925));
#1689=CARTESIAN_POINT('',(0.,0.,-0.02455));
#1690=CARTESIAN_POINT('',(-0.0015,0.,-0.02455));
#1691=CARTESIAN_POINT('',(0.,0.,-0.01855));
#1692=CARTESIAN_POINT('',(0.,-0.0015,-0.01855));
#1693=CARTESIAN_POINT('',(0.,0.,5.00000000000006E-5));
#1694=CARTESIAN_POINT('',(-0.00643467170879757,0.0050204581464245,5.00000000000006E-5));
#1695=CARTESIAN_POINT('',(-0.00774273042092168,0.00632851685854861,5.00000000000006E-5));
#1696=CARTESIAN_POINT('',(-0.00643467170879757,0.0050204581464245,5.00000000000006E-5));
#1697=CARTESIAN_POINT('',(0.,0.,5.00000000000014E-5));
#1698=CARTESIAN_POINT('',(-0.00975441594520955,0.00220258247696688,5.00000000000014E-5));
#1699=CARTESIAN_POINT('',(-0.00929492662851279,-2.16840434497101E-19,5.00000000000014E-5));
#1700=CARTESIAN_POINT('',(-0.00781787564538795,0.00169729796831609,5.00000000000014E-5));
#1701=CARTESIAN_POINT('',(0.,0.,5.00000000000014E-5));
#1702=CARTESIAN_POINT('',(-0.0015,0.00785811682275085,5.00000000000084E-5));
#1703=CARTESIAN_POINT('',(-0.0015,0.00988685996664259,5.00000000000014E-5));
#1704=CARTESIAN_POINT('',(-0.0015,0.00988685996664259,5.00000000000084E-5));
#1705=CARTESIAN_POINT('',(0.,0.,5.00000000000014E-5));
#1706=CARTESIAN_POINT('',(-0.00632851685854858,0.0077427304209217,5.00000000000006E-5));
#1707=CARTESIAN_POINT('',(-0.00502045814642448,0.00643467170879759,5.00000000000006E-5));
#1708=CARTESIAN_POINT('',(-0.00502045814642448,0.00643467170879759,5.00000000000006E-5));
#1709=CARTESIAN_POINT('',(-0.00502045814642448,0.00643467170879759,5.00000000000006E-5));
#1710=CARTESIAN_POINT('',(0.,0.,0.));
#1711=CARTESIAN_POINT('',(0.,-1.45283091113057E-17,2.71960575112732E-17));
#1712=CARTESIAN_POINT('',(-0.0015,0.00785811682275066,2.5514786504711E-17));
#1713=CARTESIAN_POINT('',(0.0015,0.00785811682275087,0.));
#1714=CARTESIAN_POINT('',(-0.0015,0.00988685996664259,0.));
#1715=CARTESIAN_POINT('',(-0.0015,0.00187349939951951,0.));
#1716=CARTESIAN_POINT('',(0.,0.,0.));
#1717=CARTESIAN_POINT('',(0.0015,0.00187349939951951,0.));
#1718=CARTESIAN_POINT('',(0.0015,0.00988685996664259,0.));
#1719=CARTESIAN_POINT('',(0.,0.0035,1.48794586096403E-18));
#1720=CARTESIAN_POINT('',(0.000549999999999988,0.0035,1.48794586096403E-18));
#1721=CARTESIAN_POINT('',(0.,0.,0.));
#1722=CARTESIAN_POINT('',(-0.00929492662851279,-2.16840434497101E-19,0.));
#1723=CARTESIAN_POINT('',(-0.00761787564538787,-0.00149999999999992,0.));
#1724=CARTESIAN_POINT('',(-0.00761787564538795,0.0015,0.));
#1725=CARTESIAN_POINT('',(-0.0015,-0.00149999999999998,0.));
#1726=CARTESIAN_POINT('',(-0.00187349939951953,-0.00149999999999998,0.));
#1727=CARTESIAN_POINT('',(0.,0.,0.));
#1728=CARTESIAN_POINT('',(-0.00187349939951951,0.0015,0.));
#1729=CARTESIAN_POINT('',(-0.00785811682275085,0.0015,0.));
#1730=CARTESIAN_POINT('',(0.,0.,0.));
#1731=CARTESIAN_POINT('',(0.,1.17093834628434E-17,8.4296718910748E-18));
#1732=CARTESIAN_POINT('',(-0.0015,-0.00785811682275086,8.4296718910748E-18));
#1733=CARTESIAN_POINT('',(0.0015,-0.00785811682275086,8.4296718910748E-18));
#1734=CARTESIAN_POINT('',(0.0015,-0.00785811682275086,0.));
#1735=CARTESIAN_POINT('',(0.0015,-0.00187349939951951,0.));
#1736=CARTESIAN_POINT('',(0.,0.,0.));
#1737=CARTESIAN_POINT('',(-0.0015,-0.00187349939951951,0.));
#1738=CARTESIAN_POINT('',(-0.0015,-0.00785811682275085,0.));
#1739=CARTESIAN_POINT('',(0.,-0.0035,1.48794586096403E-18));
#1740=CARTESIAN_POINT('',(0.000549999999999988,-0.0035,1.48794586096403E-18));
#1741=CARTESIAN_POINT('',(0.,0.,0.));
#1742=CARTESIAN_POINT('',(0.,0.,0.));
#1743=CARTESIAN_POINT('',(0.00187349939951951,-0.0015,0.));
#1744=CARTESIAN_POINT('',(0.00187349939951952,0.0015,0.));
#1745=CARTESIAN_POINT('',(0.00785811682275085,-0.0015,0.));
#1746=CARTESIAN_POINT('',(0.00785811682275085,-0.0015,0.));
#1747=CARTESIAN_POINT('',(0.,0.,0.));
#1748=CARTESIAN_POINT('',(0.00785811682275086,0.00149999999999997,0.));
#1749=CARTESIAN_POINT('',(0.0015,0.0015,0.));
#1750=CARTESIAN_POINT('',(0.,0.,0.0236732432500309));
#1751=CARTESIAN_POINT('',(0.00785811682275085,-0.0015,0.0274417350418868));
#1752=CARTESIAN_POINT('',(0.00785811682275085,-0.0015,5.00000000000014E-5));
#1753=CARTESIAN_POINT('',(0.,0.,5.00000000000014E-5));
#1754=CARTESIAN_POINT('',(0.00785811682275086,0.00149999999999997,5.00000000000014E-5));
#1755=CARTESIAN_POINT('',(0.00785811682275086,0.00149999999999997,0.0274417350418868));
#1756=CARTESIAN_POINT('',(0.,0.,-0.02455));
#1757=CARTESIAN_POINT('',(-0.00050788784980218,-0.00266940412610554,-0.0135128237203195));
#1758=CARTESIAN_POINT('',(-0.00108539295348396,-0.00249547601585167,-0.013030830952418));
#1759=CARTESIAN_POINT('',(-0.00140135330034037,-0.00230280561770916,-0.0121103360401792));
#1760=CARTESIAN_POINT('',(-0.0011402181756812,-0.00246663072703731,-0.0111684995697354));
#1761=CARTESIAN_POINT('',(-0.00061247236609388,-0.0026451099356655,-0.0106495633274639));
#1762=CARTESIAN_POINT('',(-6.6586249938935E-5,-0.0027202066733584,-0.0104628955757382));
#1763=CARTESIAN_POINT('',(0.000505656721856253,-0.00266976499614018,-0.0105863621334459));
#1764=CARTESIAN_POINT('',(0.0010819861670871,-0.00249694843782128,-0.0110644364128455));
#1765=CARTESIAN_POINT('',(0.00140225294237036,-0.00230244413405451,-0.0119870583981097));
#1766=CARTESIAN_POINT('',(0.00114051705944051,-0.00246646426913288,-0.0129310684261915));
#1767=CARTESIAN_POINT('',(0.000612540033514466,-0.00264517518614114,-0.0134506262910118));
#1768=CARTESIAN_POINT('',(6.48236068012046E-5,-0.00272033299714622,-0.013637392961983));
#1769=CARTESIAN_POINT('',(-0.00050788784980218,-0.00266940412610554,-0.0135128237203195));
#1770=CARTESIAN_POINT('',(-0.00108539295348396,-0.00249547601585167,-0.013030830952418));
#1771=CARTESIAN_POINT('',(-0.00140135330034037,-0.00230280561770916,-0.0121103360401792));
#1772=CARTESIAN_POINT('',(-0.000913955275380459,-0.00254060735939346,-0.0131301288809026));
#1773=CARTESIAN_POINT('',(0.,-1.00691688524112E-19,-0.00285));
#1774=CARTESIAN_POINT('',(0.,-0.0027,-0.00285));
#1775=CARTESIAN_POINT('',(0.,-8.21432195854598E-19,-0.02325));
#1776=CARTESIAN_POINT('',(0.,-0.0027,-0.02325));
#1777=CARTESIAN_POINT('',(0.,0.,-0.00205));
#1778=CARTESIAN_POINT('',(-0.00774273042092168,0.00632851685854861,-0.024551));
#1779=CARTESIAN_POINT('',(-0.00774273042092168,0.00632851685854861,-0.00205));
#1780=CARTESIAN_POINT('',(0.,0.,-0.00205));
#1781=CARTESIAN_POINT('',(-0.00632851685854858,0.0077427304209217,-0.00205));
#1782=CARTESIAN_POINT('',(-0.00632851685854858,0.0077427304209217,-0.024551));
#1783=CARTESIAN_POINT('',(-0.0015,0.00988685996664259,0.0236732432500309));
#1784=CARTESIAN_POINT('',(0.0015,0.00988685996664259,0.0236732432500309));
#1785=CARTESIAN_POINT('',(0.0015,0.00988685996664259,5.00000000000084E-5));
#1786=CARTESIAN_POINT('',(0.,0.,5.00000000000014E-5));
#1787=CARTESIAN_POINT('',(0.0015,-0.00988685996664259,5.00000000000084E-5));
#1788=CARTESIAN_POINT('',(0.0015,-0.00988685996664259,0.0236732432500309));
#1789=CARTESIAN_POINT('',(-0.0015,-0.00988685996664259,0.0236732432500309));
#1790=CARTESIAN_POINT('',(-0.0015,-0.00988685996664259,5.00000000000084E-5));
#1791=CARTESIAN_POINT('',(0.,0.,5.00000000000014E-5));
#1792=CARTESIAN_POINT('',(-0.00975441594520955,-0.00220258247696688,5.00000000000014E-5));
#1793=CARTESIAN_POINT('',(-0.00975441594520956,-0.00220258247696688,0.0046));
#1794=CARTESIAN_POINT('',(-0.00975441594520956,-0.00220258247696688,-5.E-5));
#1795=CARTESIAN_POINT('',(0.,0.,-5.E-5));
#1796=CARTESIAN_POINT('',(-0.00975441594520956,0.00220258247696688,-5.E-5));
#1797=CARTESIAN_POINT('',(-0.00975441594520956,0.00220258247696688,0.0046));
#1798=CARTESIAN_POINT('',(0.,0.,-0.00205));
#1799=CARTESIAN_POINT('',(0.,0.0035,-0.00205));
#1800=CARTESIAN_POINT('',(0.000549999999999994,0.0035,-0.00205));
#1801=CARTESIAN_POINT('',(0.,-0.0035,-0.00205));
#1802=CARTESIAN_POINT('',(0.000549999999999994,-0.0035,-0.00205));
#1803=CARTESIAN_POINT('',(-0.00643467170879757,0.0050204581464245,-0.00205));
#1804=CARTESIAN_POINT('',(-0.00643467170879757,0.0050204581464245,-0.00205));
#1805=CARTESIAN_POINT('',(-0.00502045814642448,0.00643467170879759,-0.00205));
#1806=CARTESIAN_POINT('',(-0.00502045814642448,0.00643467170879759,-0.00205));
#1807=CARTESIAN_POINT('',(-0.00502045814642448,0.00643467170879759,-0.00205));
#1808=CARTESIAN_POINT('',(0.,-7.24273549033086E-20,-0.00205));
#1809=CARTESIAN_POINT('',(0.,-0.0026,-0.00205));
#1810=CARTESIAN_POINT('',(0.,0.,0.));
#1811=CARTESIAN_POINT('',(0.,-1.00691688524112E-19,-0.00285));
#1812=CARTESIAN_POINT('',(0.,-0.0026,-0.00285));
#1813=CARTESIAN_POINT('',(0.,0.0027,-0.00285));
#1814=CARTESIAN_POINT('',(0.,0.0027,-0.02325));
#1815=CARTESIAN_POINT('',(0.,-8.21432195854598E-19,-0.02325));
#1816=CARTESIAN_POINT('',(0.,-0.0023,-0.02325));
#1817=CARTESIAN_POINT('',(0.,0.,0.));
#1818=CARTESIAN_POINT('',(0.,-8.46163487772801E-19,-0.02395));
#1819=CARTESIAN_POINT('',(0.,-0.0023,-0.02395));
#1820=CARTESIAN_POINT('',(0.,0.0025,-0.02395));
#1821=CARTESIAN_POINT('',(0.,-8.46163487772801E-19,-0.02395));
#1822=CARTESIAN_POINT('',(0.,-0.0025,-0.02395));
#1823=CARTESIAN_POINT('',(0.,0.,0.));
#1824=CARTESIAN_POINT('',(0.,-8.67361737988404E-19,-0.02455));
#1825=CARTESIAN_POINT('',(0.,-0.0025,-0.02455));
#1826=CARTESIAN_POINT('',(0.,0.,-0.02455));
#1827=CARTESIAN_POINT('',(0.0015,-0.00785811682275086,0.0236732432500309));
#1828=CARTESIAN_POINT('',(0.0015,-0.00816333265278342,-0.000173205080756876));
#1829=CARTESIAN_POINT('',(0.0015,-0.008040381938448,-0.000243021863296964));
#1830=CARTESIAN_POINT('',(0.0015,-0.00785811682275009,-0.000142449777530637));
#1831=CARTESIAN_POINT('',(0.0015,-0.00785811682275006,-3.34070155254638E-17));
#1832=CARTESIAN_POINT('',(0.0015,-0.00816333265278342,-0.000173205080756878));
#1833=CARTESIAN_POINT('',(0.0015,-0.00846817571853582,-1.41013490201651E-18));
#1834=CARTESIAN_POINT('',(0.0015,-0.00836657546846725,-5.77597838749213E-5));
#1835=CARTESIAN_POINT('',(0.0015,-0.00826496162717426,-0.000115495712875861));
#1836=CARTESIAN_POINT('',(0.0015,-0.00816333265278342,-0.000173205080756878));
#1837=CARTESIAN_POINT('',(0.0015,-0.00785811682275086,5.00000000000014E-5));
#1838=CARTESIAN_POINT('',(0.0015,-0.00785811682275086,5.00000000000084E-5));
#1839=CARTESIAN_POINT('',(0.0015,-0.00785811682275085,0.0274417350418868));
#1840=CARTESIAN_POINT('',(0.0015,-0.00785811682275085,0.00925));
#1841=CARTESIAN_POINT('',(0.0015,-0.0015,0.00925));
#1842=CARTESIAN_POINT('',(0.0015,-0.007611726258573,0.00925));
#1843=CARTESIAN_POINT('',(0.0015,-0.007611726258573,0.00925));
#1844=CARTESIAN_POINT('',(0.0015,-0.00743891831493835,0.00915211189498419));
#1845=CARTESIAN_POINT('',(0.0015,-0.00726605711439081,0.00905431761566404));
#1846=CARTESIAN_POINT('',(0.0015,-0.00709313047955555,0.00895663861560502));
#1847=CARTESIAN_POINT('',(0.0015,-0.00709313047955555,0.00895663861560502));
#1848=CARTESIAN_POINT('',(0.0015,-0.00709313047955555,0.));
#1849=CARTESIAN_POINT('',(0.0015,-0.00709313047955555,0.00765));
#1850=CARTESIAN_POINT('',(0.0015,-0.00785811682275086,0.00765));
#1851=CARTESIAN_POINT('',(0.0015,-0.00187349939951951,0.00765));
#1852=CARTESIAN_POINT('',(0.0015,-0.00187349939951951,0.00925));
#1853=CARTESIAN_POINT('',(0.0015,0.00988685996664259,0.0236732432500309));
#1854=CARTESIAN_POINT('',(0.00150000000000003,0.00785811682275085,0.0274417350418868));
#1855=CARTESIAN_POINT('',(0.00150000000000003,0.00785811682275085,0.00925));
#1856=CARTESIAN_POINT('',(0.00150000000000003,0.00785811682275085,5.00000000000014E-5));
#1857=CARTESIAN_POINT('',(0.0015,0.00988685996664259,5.00000000000014E-5));
#1858=CARTESIAN_POINT('',(0.0015,0.00816333265278343,-0.000173205080756862));
#1859=CARTESIAN_POINT('',(0.0015,0.00826496160430908,-0.0001154957258597));
#1860=CARTESIAN_POINT('',(0.0015,0.00836657544641216,-5.7759796413244E-5));
#1861=CARTESIAN_POINT('',(0.0015,0.00846817571853584,1.2593745416781E-17));
#1862=CARTESIAN_POINT('',(0.0015,0.00816333265278344,-0.000173205080756878));
#1863=CARTESIAN_POINT('',(0.0015,0.00785811682275084,-4.85964777420914E-18));
#1864=CARTESIAN_POINT('',(0.0015,0.00785811682275085,-0.000142421330460424));
#1865=CARTESIAN_POINT('',(0.0015,0.00804078415829591,-0.000242793465309975));
#1866=CARTESIAN_POINT('',(0.0015,0.00816333265278343,-0.000173205080756867));
#1867=CARTESIAN_POINT('',(0.0015,0.00187349939951951,0.00925));
#1868=CARTESIAN_POINT('',(0.0015,0.00187349939951951,0.00765));
#1869=CARTESIAN_POINT('',(0.0015,0.00988685996664259,0.00765));
#1870=CARTESIAN_POINT('',(0.0015,0.00709313047955555,0.00765));
#1871=CARTESIAN_POINT('',(0.0015,0.00709313047955555,0.));
#1872=CARTESIAN_POINT('',(0.0015,0.00709313047955555,0.00895663861560502));
#1873=CARTESIAN_POINT('',(0.0015,0.00709313047955555,0.00895663861560502));
#1874=CARTESIAN_POINT('',(0.0015,0.00726605718945407,0.00905431765806413));
#1875=CARTESIAN_POINT('',(0.0015,0.00743891838498903,0.00915211193466482));
#1876=CARTESIAN_POINT('',(0.0015,0.007611726258573,0.00925));
#1877=CARTESIAN_POINT('',(0.00150000000000003,0.00761172625857299,0.00925));
#1878=CARTESIAN_POINT('',(0.00150000000000003,0.00785811682275085,0.00925));
#1879=CARTESIAN_POINT('',(0.,0.,5.00000000000006E-5));
#1880=CARTESIAN_POINT('',(0.,0.,5.00000000000014E-5));
#1881=CARTESIAN_POINT('',(0.,0.,5.00000000000014E-5));
#1882=CARTESIAN_POINT('',(-0.0015,0.00988685996664259,0.0236732432500309));
#1883=CARTESIAN_POINT('',(-0.0015,0.00785811682275084,3.96765493136111E-17));
#1884=CARTESIAN_POINT('',(-0.0015,0.00785811682275082,-0.000140844305430578));
#1885=CARTESIAN_POINT('',(-0.0015,0.0080403217978014,-0.000243056013781322));
#1886=CARTESIAN_POINT('',(-0.0015,0.00816333265278343,-0.000173205080756864));
#1887=CARTESIAN_POINT('',(-0.0015,0.00816333265278344,-0.000173205080756878));
#1888=CARTESIAN_POINT('',(-0.0015,0.00816333265278343,-0.000173205080756863));
#1889=CARTESIAN_POINT('',(-0.0015,0.00826496160431092,-0.000115495725858657));
#1890=CARTESIAN_POINT('',(-0.0015,0.00836657544641393,-5.77597964122395E-5));
#1891=CARTESIAN_POINT('',(-0.0015,0.00846817571853583,9.39591231794595E-18));
#1892=CARTESIAN_POINT('',(-0.0015,0.00785811682275085,0.0274417350418868));
#1893=CARTESIAN_POINT('',(-0.0015,0.00785811682275085,0.00925));
#1894=CARTESIAN_POINT('',(-0.0015,0.0015,0.00925));
#1895=CARTESIAN_POINT('',(-0.0015,0.007611726258573,0.00925));
#1896=CARTESIAN_POINT('',(-0.0015,0.007611726258573,0.00925));
#1897=CARTESIAN_POINT('',(-0.0015,0.00743891831493644,0.00915211189498311));
#1898=CARTESIAN_POINT('',(-0.0015,0.00726605711438878,0.00905431761566289));
#1899=CARTESIAN_POINT('',(-0.0015,0.00709313047955555,0.00895663861560502));
#1900=CARTESIAN_POINT('',(-0.0015,0.00709313047955555,0.00895663861560502));
#1901=CARTESIAN_POINT('',(-0.0015,0.00709313047955555,0.));
#1902=CARTESIAN_POINT('',(-0.0015,0.00709313047955555,0.00765));
#1903=CARTESIAN_POINT('',(-0.0015,0.00988685996664259,0.00765));
#1904=CARTESIAN_POINT('',(-0.0015,0.00187349939951951,0.00765));
#1905=CARTESIAN_POINT('',(-0.0015,0.00187349939951951,0.00925));
#1906=CARTESIAN_POINT('',(-0.0015,-0.00785811682275085,0.0236732432500309));
#1907=CARTESIAN_POINT('',(-0.00150000000000008,-0.00785811682275084,0.0274417350418868));
#1908=CARTESIAN_POINT('',(-0.00150000000000008,-0.00785811682275084,0.00925));
#1909=CARTESIAN_POINT('',(-0.00150000000000008,-0.00785811682275084,5.00000000000014E-5));
#1910=CARTESIAN_POINT('',(-0.0015,-0.00785811682275085,5.00000000000014E-5));
#1911=CARTESIAN_POINT('',(-0.0015,-0.00846817571853582,-1.58773162966328E-18));
#1912=CARTESIAN_POINT('',(-0.0015,-0.00836657546846693,-5.77597838751052E-5));
#1913=CARTESIAN_POINT('',(-0.0015,-0.00826496162717392,-0.000115495712876052));
#1914=CARTESIAN_POINT('',(-0.0015,-0.00816333265278342,-0.00017320508075688));
#1915=CARTESIAN_POINT('',(-0.0015,-0.00816333265278342,-0.000173205080756879));
#1916=CARTESIAN_POINT('',(-0.0015,-0.00816333265278342,-0.000173205080756874));
#1917=CARTESIAN_POINT('',(-0.0015,-0.00804002763201359,-0.000243223053956306));
#1918=CARTESIAN_POINT('',(-0.0015,-0.00785811682275084,-0.0001409920135838));
#1919=CARTESIAN_POINT('',(-0.0015,-0.00785811682275084,1.00172477232084E-17));
#1920=CARTESIAN_POINT('',(-0.0015,-0.00187349939951951,0.00925));
#1921=CARTESIAN_POINT('',(-0.0015,-0.00187349939951951,0.00765));
#1922=CARTESIAN_POINT('',(-0.0015,-0.00785811682275085,0.00765));
#1923=CARTESIAN_POINT('',(-0.0015,-0.00709313047955555,0.00765));
#1924=CARTESIAN_POINT('',(-0.0015,-0.00709313047955555,0.));
#1925=CARTESIAN_POINT('',(-0.0015,-0.00709313047955555,0.00895663861560502));
#1926=CARTESIAN_POINT('',(-0.0015,-0.00709313047955555,0.00895663861560502));
#1927=CARTESIAN_POINT('',(-0.0015,-0.00726605718946958,0.00905431765807289));
#1928=CARTESIAN_POINT('',(-0.0015,-0.0074389183850035,0.00915211193467302));
#1929=CARTESIAN_POINT('',(-0.0015,-0.00761172625857299,0.00924999999999999));
#1930=CARTESIAN_POINT('',(-0.00150000000000008,-0.00761172625857298,0.00925));
#1931=CARTESIAN_POINT('',(-0.00150000000000008,-0.00785811682275084,0.00925));
#1932=CARTESIAN_POINT('',(0.,0.,5.00000000000006E-5));
#1933=CARTESIAN_POINT('',(-0.00929492662851279,-2.16840434497101E-19,5.00000000000014E-5));
#1934=CARTESIAN_POINT('',(-0.00781787564538795,-0.0016972979683161,5.00000000000014E-5));
#1935=CARTESIAN_POINT('',(0.,0.,5.00000000000014E-5));
#1936=CARTESIAN_POINT('',(0.,0.,0.0274417350418868));
#1937=CARTESIAN_POINT('',(-0.00781787564538795,0.00169729796831609,0.0046));
#1938=CARTESIAN_POINT('',(-0.00781787564538795,0.00169729796831609,0.00925));
#1939=CARTESIAN_POINT('',(0.,0.,0.00925));
#1940=CARTESIAN_POINT('',(-0.00785811682275085,0.0015,0.0274417350418868));
#1941=CARTESIAN_POINT('',(-0.00785811682275085,0.0015,0.00925));
#1942=CARTESIAN_POINT('',(-0.00761787564538795,0.0015,0.00925));
#1943=CARTESIAN_POINT('',(-0.007611726258573,0.0015,0.00925));
#1944=CARTESIAN_POINT('',(-0.00761787564538795,0.0015,-0.00841396103067893));
#1945=CARTESIAN_POINT('',(-0.00187349939951951,0.0015,0.00925));
#1946=CARTESIAN_POINT('',(-0.00187349939951951,0.0015,0.00765));
#1947=CARTESIAN_POINT('',(-0.00785811682275085,0.0015,0.00765));
#1948=CARTESIAN_POINT('',(-0.00709313047955555,0.0015,0.00765));
#1949=CARTESIAN_POINT('',(-0.00709313047955555,0.0015,0.));
#1950=CARTESIAN_POINT('',(-0.00709313047955555,0.0015,0.00895663861560502));
#1951=CARTESIAN_POINT('',(-0.00709313047955555,0.0015,0.00895663861560502));
#1952=CARTESIAN_POINT('',(-0.00726605718946959,0.0015,0.00905431765807289));
#1953=CARTESIAN_POINT('',(-0.00743891838500351,0.0015,0.00915211193467302));
#1954=CARTESIAN_POINT('',(-0.007611726258573,0.0015,0.00925));
#1955=CARTESIAN_POINT('',(0.,0.,0.00925));
#1956=CARTESIAN_POINT('',(-0.00929492662851279,-2.16840434497101E-19,0.00925));
#1957=CARTESIAN_POINT('',(0.,0.,0.00925));
#1958=CARTESIAN_POINT('',(0.,0.,0.0274417350418868));
#1959=CARTESIAN_POINT('',(0.,0.,0.00925));
#1960=CARTESIAN_POINT('',(0.00785811682275086,0.00149999999999997,0.00925));
#1961=CARTESIAN_POINT('',(0.00785811682275086,0.00149999999999997,0.0274417350418868));
#1962=CARTESIAN_POINT('',(0.0015,0.0015,0.0274417350418868));
#1963=CARTESIAN_POINT('',(0.0015,0.0015,0.00765));
#1964=CARTESIAN_POINT('',(0.00709313047955556,0.00149999999999997,0.00765));
#1965=CARTESIAN_POINT('',(0.00187349939951952,0.0015,0.00765));
#1966=CARTESIAN_POINT('',(0.00187349939951952,0.0015,0.00925));
#1967=CARTESIAN_POINT('',(0.0015,0.0015,0.00925));
#1968=CARTESIAN_POINT('',(0.00761172625857301,0.00149999999999997,0.00925));
#1969=CARTESIAN_POINT('',(0.00761172625857301,0.00149999999999998,0.00925));
#1970=CARTESIAN_POINT('',(0.00743891831493645,0.00149999999999998,0.00915211189498311));
#1971=CARTESIAN_POINT('',(0.00726605711438878,0.00149999999999998,0.00905431761566289));
#1972=CARTESIAN_POINT('',(0.00709313047955556,0.00149999999999998,0.00895663861560502));
#1973=CARTESIAN_POINT('',(0.00709313047955556,0.00149999999999997,0.00895663861560502));
#1974=CARTESIAN_POINT('',(0.00709313047955556,0.00149999999999997,0.));
#1975=CARTESIAN_POINT('',(0.,0.,0.00925));
#1976=CARTESIAN_POINT('',(0.,0.,0.00925));
#1977=CARTESIAN_POINT('',(0.,0.,0.0274417350418868));
#1978=CARTESIAN_POINT('',(0.00785811682275085,-0.0015,0.0274417350418868));
#1979=CARTESIAN_POINT('',(0.00785811682275085,-0.0015,0.00925));
#1980=CARTESIAN_POINT('',(0.,0.,0.00925));
#1981=CARTESIAN_POINT('',(0.00785811682275085,-0.0015,0.0274417350418868));
#1982=CARTESIAN_POINT('',(0.00187349939951951,-0.0015,0.00925));
#1983=CARTESIAN_POINT('',(0.00187349939951951,-0.0015,0.00765));
#1984=CARTESIAN_POINT('',(0.00785811682275085,-0.0015,0.00765));
#1985=CARTESIAN_POINT('',(0.00709313047955555,-0.0015,0.00765));
#1986=CARTESIAN_POINT('',(0.00709313047955555,-0.0015,0.));
#1987=CARTESIAN_POINT('',(0.00709313047955555,-0.0015,0.00895663861560502));
#1988=CARTESIAN_POINT('',(0.00709313047955555,-0.0015,0.00895663861560502));
#1989=CARTESIAN_POINT('',(0.00726605718946959,-0.0015,0.00905431765807289));
#1990=CARTESIAN_POINT('',(0.00743891838500351,-0.0015,0.00915211193467302));
#1991=CARTESIAN_POINT('',(0.007611726258573,-0.0015,0.00925));
#1992=CARTESIAN_POINT('',(0.007611726258573,-0.0015,0.00925));
#1993=CARTESIAN_POINT('',(0.00785811682275085,-0.0015,0.00925));
#1994=CARTESIAN_POINT('',(0.,0.,0.00925));
#1995=CARTESIAN_POINT('',(0.,0.,0.00925));
#1996=CARTESIAN_POINT('',(0.,0.,0.0274417350418868));
#1997=CARTESIAN_POINT('',(0.,0.,0.00925));
#1998=CARTESIAN_POINT('',(-0.00781787564538795,-0.00169729796831609,0.00925));
#1999=CARTESIAN_POINT('',(-0.00781787564538795,-0.0016972979683161,0.0046));
#2000=CARTESIAN_POINT('',(-0.0015,-0.00149999999999998,0.0274417350418868));
#2001=CARTESIAN_POINT('',(-0.00761787564538787,-0.00149999999999992,-0.00841396103067893));
#2002=CARTESIAN_POINT('',(-0.00761787564538787,-0.00149999999999992,0.00925));
#2003=CARTESIAN_POINT('',(-0.0015,-0.00149999999999998,0.00925));
#2004=CARTESIAN_POINT('',(-0.00761172625857302,-0.00149999999999992,0.00925));
#2005=CARTESIAN_POINT('',(-0.00761172625857302,-0.00149999999999992,0.00925));
#2006=CARTESIAN_POINT('',(-0.00743891831493646,-0.00149999999999992,0.00915211189498311));
#2007=CARTESIAN_POINT('',(-0.0072660571143888,-0.00149999999999992,0.00905431761566289));
#2008=CARTESIAN_POINT('',(-0.00709313047955557,-0.00149999999999992,0.00895663861560502));
#2009=CARTESIAN_POINT('',(-0.00709313047955557,-0.00149999999999993,0.00895663861560502));
#2010=CARTESIAN_POINT('',(-0.00709313047955557,-0.00149999999999993,0.));
#2011=CARTESIAN_POINT('',(-0.00709313047955557,-0.00149999999999993,0.00765));
#2012=CARTESIAN_POINT('',(-0.0015,-0.00149999999999998,0.00765));
#2013=CARTESIAN_POINT('',(-0.00187349939951953,-0.00149999999999998,0.00765));
#2014=CARTESIAN_POINT('',(-0.00187349939951953,-0.00149999999999998,0.00925));
#2015=CARTESIAN_POINT('',(0.,0.,0.00925));
#2016=CARTESIAN_POINT('',(-0.00929492662851279,-2.16840434497101E-19,0.00925));
#2017=CARTESIAN_POINT('',(0.,0.,0.00925));
#2018=CARTESIAN_POINT('',(0.,0.,0.00895663861560502));
#2019=CARTESIAN_POINT('',(0.,0.,0.00895663861560502));
#2020=CARTESIAN_POINT('',(0.,0.,0.));
#2021=CARTESIAN_POINT('',(0.,0.,0.00765));
#2022=CARTESIAN_POINT('',(0.,0.00725,0.00765));
#2023=CARTESIAN_POINT('',(0.,0.,0.00765));
#2024=CARTESIAN_POINT('',(0.,0.,0.00895663861560502));
#2025=CARTESIAN_POINT('',(0.,0.,0.00895663861560502));
#2026=CARTESIAN_POINT('',(0.,0.,0.));
#2027=CARTESIAN_POINT('',(0.,0.,0.00765));
#2028=CARTESIAN_POINT('',(0.,0.00725,0.00765));
#2029=CARTESIAN_POINT('',(0.,0.,0.00765));
#2030=CARTESIAN_POINT('',(0.,0.,0.00895663861560502));
#2031=CARTESIAN_POINT('',(0.,0.,0.00895663861560502));
#2032=CARTESIAN_POINT('',(0.,0.,0.));
#2033=CARTESIAN_POINT('',(0.,0.,0.00765));
#2034=CARTESIAN_POINT('',(0.,0.00725,0.00765));
#2035=CARTESIAN_POINT('',(0.,0.,0.00765));
#2036=CARTESIAN_POINT('',(0.,0.00725,0.00765));
#2037=CARTESIAN_POINT('',(0.,0.,0.00765));
#2038=CARTESIAN_POINT('',(0.,0.,0.00765));
#2039=CARTESIAN_POINT('',(0.,0.,0.));
#2040=CARTESIAN_POINT('',(0.,0.,0.00895663861560502));
#2041=CARTESIAN_POINT('',(0.,0.,0.00895663861560502));
#2042=CARTESIAN_POINT('',(0.,0.,0.00925));
#2043=CARTESIAN_POINT('',(0.,0.,-0.00015));
#2044=CARTESIAN_POINT('',(0.0024,0.,-0.00015));
#2045=CARTESIAN_POINT('',(0.,0.,-0.00015));
#2046=CARTESIAN_POINT('',(-0.00929492662851279,-2.16840434497101E-19,-0.00841396103067893));
#2047=CARTESIAN_POINT('',(-0.00929492662851279,-2.16840434497101E-19,-5.E-5));
#2048=CARTESIAN_POINT('',(0.,0.,-5.E-5));
#2049=CARTESIAN_POINT('',(-0.00502045814642448,0.00643467170879759,-0.024551));
#2050=CARTESIAN_POINT('',(-0.00643467170879757,0.0050204581464245,-0.024551));
#2051=CARTESIAN_POINT('',(-0.00502045814642448,0.00643467170879759,-0.024551));
#2052=CARTESIAN_POINT('',(-0.00643467170879757,0.0050204581464245,-0.024551));
#2053=CARTESIAN_POINT('',(-0.00502045814642448,0.00643467170879759,-0.024551));
#2054=CARTESIAN_POINT('',(0.,1.05773594714025E-36,-0.00555));
#2055=CARTESIAN_POINT('',(0.,-1.95781725734336E-19,-0.00555));
#2056=CARTESIAN_POINT('',(0.,-0.0017,-0.00555));
#2057=CARTESIAN_POINT('',(0.,1.05773594714025E-36,-0.01855));
#2058=CARTESIAN_POINT('',(0.,-6.54369551778727E-19,-0.01855));
#2059=CARTESIAN_POINT('',(0.,-0.0017,-0.01855));
#2060=CARTESIAN_POINT('',(0.,0.,0.));
#2061=CARTESIAN_POINT('',(3.61381130108745E-5,-0.00173696227208442,-0.0129200389099237));
#2062=CARTESIAN_POINT('',(-0.000532294910378951,-0.00163314634452008,-0.0126425909758662));
#2063=CARTESIAN_POINT('',(-0.000723263160868005,-0.00153394294740387,-0.012078967307454));
#2064=CARTESIAN_POINT('',(-0.000566352891087949,-0.00161757895252432,-0.0115077736807874));
#2065=CARTESIAN_POINT('',(-3.66119638864619E-5,-0.00173676995864154,-0.0111805105161306));
#2066=CARTESIAN_POINT('',(0.000530608337113437,-0.00163371392260757,-0.0114556451206275));
#2067=CARTESIAN_POINT('',(0.000723511475508075,-0.00153386510261333,-0.012019524401879));
#2068=CARTESIAN_POINT('',(0.000566786882578011,-0.00161743302912341,-0.0125919585450727));
#2069=CARTESIAN_POINT('',(3.61381130108745E-5,-0.00173696227208442,-0.0129200389099237));
#2070=CARTESIAN_POINT('',(-0.000532294910378951,-0.00163314634452008,-0.0126425909758662));
#2071=CARTESIAN_POINT('',(-0.000723263160868005,-0.00153394294740387,-0.012078967307454));
#2072=CARTESIAN_POINT('',(-0.000469384114895489,-0.00163391509959477,-0.0125948950201404));
#2073=CARTESIAN_POINT('',(0.,-0.0035,0.));
#2074=CARTESIAN_POINT('',(0.,0.0035,0.));
#2075=CARTESIAN_POINT('',(0.,-0.000696650460369274,-0.01205));
#2076=CARTESIAN_POINT('',(0.,1.17093834628434E-17,0.000150000000000008));
#2077=CARTESIAN_POINT('',(0.,1.17093834628434E-17,-0.000173205080756879));
#2078=CARTESIAN_POINT('',(0.,1.21430643318376E-17,8.37546178245052E-18));
#2079=CARTESIAN_POINT('',(0.,-1.49363738033338E-17,-0.000173205080756859));
#2080=CARTESIAN_POINT('',(0.,-1.49363738033338E-17,-0.000173205080756859));
#2081=CARTESIAN_POINT('',(0.,-1.38777878078145E-17,2.76672500308515E-17));
#2082=(
GEOMETRIC_REPRESENTATION_CONTEXT(3)
GLOBAL_UNCERTAINTY_ASSIGNED_CONTEXT((#2083))
GLOBAL_UNIT_ASSIGNED_CONTEXT((#2086,#2085,#2084))
REPRESENTATION_CONTEXT('id2','TOP_LEVEL_ASSEMBLY_PART')
);
#2083=UNCERTAINTY_MEASURE_WITH_UNIT(LENGTH_MEASURE(2.E-5),#2086,
'DISTANCE_ACCURACY_VALUE','Maximum Tolerance applied to model');
#2084=(
NAMED_UNIT(*)
SI_UNIT($,.STERADIAN.)
SOLID_ANGLE_UNIT()
);
#2085=(
NAMED_UNIT(*)
PLANE_ANGLE_UNIT()
SI_UNIT($,.RADIAN.)
);
#2086=(
LENGTH_UNIT()
NAMED_UNIT(*)
SI_UNIT($,.METRE.)
);
#2087=PRODUCT_DEFINITION_SHAPE('','',#2088);
#2088=PRODUCT_DEFINITION('','',#2090,#2089);
#2089=PRODUCT_DEFINITION_CONTEXT('',#2096,'design');
#2090=PRODUCT_DEFINITION_FORMATION_WITH_SPECIFIED_SOURCE('','',#2092,
 .NOT_KNOWN.);
#2091=PRODUCT_RELATED_PRODUCT_CATEGORY('','',(#2092));
#2092=PRODUCT('id2','id2','id2',(#2094));
#2093=PRODUCT_CATEGORY('','');
#2094=PRODUCT_CONTEXT('',#2096,'mechanical');
#2095=APPLICATION_PROTOCOL_DEFINITION('international standard',
'ap242_managed_model_based_3d_engineering',2020,#2096);
#2096=APPLICATION_CONTEXT('managed model based 3d engineering');
ENDSEC;
END-ISO-10303-21;
