ISO-10303-21;
HEADER;
/* Generated by software containing ST-Developer
 * from STEP Tools, Inc. (www.steptools.com) 
 */
/* OPTION: using custom renumber hook */

FILE_DESCRIPTION(
/* description */ ('STEP AP242 Edition 2',
'CAx-IF Rec.Pracs.---Representation and Presentation of Product Manufa
cturing Information (PMI)---4.0---2014-10-13',
'CAx-IF Rec.Pracs.---3D Tessellated Geometry---0.4---2014-09-14','2;1',
'CAx-IF Rec.Pracs.---User Defined Attributes---1.5---2016-08-15'),
/* implementation_level */ '2;1');

FILE_NAME(
/* name */ '10014',
/* time_stamp */ '2026-07-13T04:41:49Z',
/* author */ (''),
/* organization */ (''),
/* preprocessor_version */ 'ST-DEVELOPER v20',
/* originating_system */ 'ONSHAPE BY PTC INC, 1.217',
/* authorisation */ '  ');

FILE_SCHEMA (('AP242_MANAGED_MODEL_BASED_3D_ENGINEERING_MIM_LF { 1 0 10303 442 3 1 4 }'));
ENDSEC;

DATA;
#10=SHAPE_REPRESENTATION_RELATIONSHIP('','',#139,#11);
#11=ADVANCED_BREP_SHAPE_REPRESENTATION('',(#137),#244);
#12=CONICAL_SURFACE('',#153,0.000866025403784434,0.261799387799143);
#13=CONICAL_SURFACE('',#154,0.001,0.785398163397446);
#14=B_SPLINE_CURVE_WITH_KNOTS('',3,(#222,#223,#224,#225),.UNSPECIFIED.,
 .F.,.F.,(4,4),(0.,0.00029061089228467),.UNSPECIFIED.);
#15=B_SPLINE_CURVE_WITH_KNOTS('',3,(#227,#228,#229,#230),.UNSPECIFIED.,
 .F.,.F.,(4,4),(0.,0.000519402016886569),.UNSPECIFIED.);
#16=B_SPLINE_CURVE_WITH_KNOTS('',3,(#232,#233,#234,#235),.UNSPECIFIED.,
 .F.,.F.,(4,4),(0.,0.00029061089228467),.UNSPECIFIED.);
#17=B_SPLINE_CURVE_WITH_KNOTS('',3,(#236,#237,#238,#239),.UNSPECIFIED.,
 .F.,.F.,(4,4),(0.,0.000519402016886569),.UNSPECIFIED.);
#18=PLANE('',#144);
#19=PLANE('',#147);
#20=PLANE('',#150);
#21=PLANE('',#151);
#22=CIRCLE('',#142,0.001);
#23=CIRCLE('',#143,0.001);
#24=CIRCLE('',#145,0.000866025403784434);
#25=CIRCLE('',#146,0.0001);
#26=CIRCLE('',#148,0.000800000000000009);
#27=CIRCLE('',#149,0.0001);
#28=ORIENTED_EDGE('',*,*,#64,.F.);
#29=ORIENTED_EDGE('',*,*,#65,.T.);
#30=ORIENTED_EDGE('',*,*,#66,.T.);
#31=ORIENTED_EDGE('',*,*,#67,.T.);
#32=ORIENTED_EDGE('',*,*,#68,.F.);
#33=ORIENTED_EDGE('',*,*,#69,.T.);
#34=ORIENTED_EDGE('',*,*,#70,.F.);
#35=ORIENTED_EDGE('',*,*,#71,.T.);
#36=ORIENTED_EDGE('',*,*,#72,.T.);
#37=ORIENTED_EDGE('',*,*,#73,.T.);
#38=ORIENTED_EDGE('',*,*,#74,.T.);
#39=ORIENTED_EDGE('',*,*,#75,.T.);
#40=ORIENTED_EDGE('',*,*,#66,.F.);
#41=ORIENTED_EDGE('',*,*,#76,.T.);
#42=ORIENTED_EDGE('',*,*,#72,.F.);
#43=ORIENTED_EDGE('',*,*,#77,.T.);
#44=ORIENTED_EDGE('',*,*,#70,.T.);
#45=ORIENTED_EDGE('',*,*,#78,.T.);
#46=ORIENTED_EDGE('',*,*,#74,.F.);
#47=ORIENTED_EDGE('',*,*,#79,.T.);
#48=ORIENTED_EDGE('',*,*,#64,.T.);
#49=ORIENTED_EDGE('',*,*,#80,.T.);
#50=ORIENTED_EDGE('',*,*,#68,.T.);
#51=ORIENTED_EDGE('',*,*,#81,.T.);
#52=ORIENTED_EDGE('',*,*,#75,.F.);
#53=ORIENTED_EDGE('',*,*,#81,.F.);
#54=ORIENTED_EDGE('',*,*,#71,.F.);
#55=ORIENTED_EDGE('',*,*,#77,.F.);
#56=ORIENTED_EDGE('',*,*,#80,.F.);
#57=ORIENTED_EDGE('',*,*,#67,.F.);
#58=ORIENTED_EDGE('',*,*,#78,.F.);
#59=ORIENTED_EDGE('',*,*,#69,.F.);
#60=ORIENTED_EDGE('',*,*,#79,.F.);
#61=ORIENTED_EDGE('',*,*,#73,.F.);
#62=ORIENTED_EDGE('',*,*,#76,.F.);
#63=ORIENTED_EDGE('',*,*,#65,.F.);
#64=EDGE_CURVE('',#82,#83,#94,.T.);
#65=EDGE_CURVE('',#82,#84,#22,.T.);
#66=EDGE_CURVE('',#84,#85,#95,.T.);
#67=EDGE_CURVE('',#85,#83,#23,.F.);
#68=EDGE_CURVE('',#86,#87,#96,.T.);
#69=EDGE_CURVE('',#86,#88,#24,.T.);
#70=EDGE_CURVE('',#89,#88,#97,.T.);
#71=EDGE_CURVE('',#89,#87,#25,.F.);
#72=EDGE_CURVE('',#90,#91,#98,.T.);
#73=EDGE_CURVE('',#91,#92,#26,.F.);
#74=EDGE_CURVE('',#92,#93,#99,.T.);
#75=EDGE_CURVE('',#93,#90,#27,.T.);
#76=EDGE_CURVE('',#84,#91,#14,.T.);
#77=EDGE_CURVE('',#90,#89,#100,.T.);
#78=EDGE_CURVE('',#88,#85,#15,.T.);
#79=EDGE_CURVE('',#92,#82,#16,.T.);
#80=EDGE_CURVE('',#83,#86,#17,.T.);
#81=EDGE_CURVE('',#87,#93,#101,.F.);
#82=VERTEX_POINT('',#196);
#83=VERTEX_POINT('',#197);
#84=VERTEX_POINT('',#199);
#85=VERTEX_POINT('',#201);
#86=VERTEX_POINT('',#205);
#87=VERTEX_POINT('',#206);
#88=VERTEX_POINT('',#208);
#89=VERTEX_POINT('',#210);
#90=VERTEX_POINT('',#214);
#91=VERTEX_POINT('',#215);
#92=VERTEX_POINT('',#217);
#93=VERTEX_POINT('',#219);
#94=LINE('',#195,#102);
#95=LINE('',#200,#103);
#96=LINE('',#204,#104);
#97=LINE('',#209,#105);
#98=LINE('',#213,#106);
#99=LINE('',#218,#107);
#100=LINE('',#226,#108);
#101=LINE('',#240,#109);
#102=VECTOR('',#159,1.);
#103=VECTOR('',#162,1.);
#104=VECTOR('',#167,1.);
#105=VECTOR('',#170,1.);
#106=VECTOR('',#175,1.);
#107=VECTOR('',#178,1.);
#108=VECTOR('',#183,1.);
#109=VECTOR('',#186,1.);
#110=EDGE_LOOP('',(#28,#29,#30,#31));
#111=EDGE_LOOP('',(#32,#33,#34,#35));
#112=EDGE_LOOP('',(#36,#37,#38,#39));
#113=EDGE_LOOP('',(#40,#41,#42,#43,#44,#45));
#114=EDGE_LOOP('',(#46,#47,#48,#49,#50,#51));
#115=EDGE_LOOP('',(#52,#53,#54,#55));
#116=EDGE_LOOP('',(#56,#57,#58,#59));
#117=EDGE_LOOP('',(#60,#61,#62,#63));
#118=FACE_BOUND('',#110,.T.);
#119=FACE_BOUND('',#111,.T.);
#120=FACE_BOUND('',#112,.T.);
#121=FACE_BOUND('',#113,.T.);
#122=FACE_BOUND('',#114,.T.);
#123=FACE_BOUND('',#115,.T.);
#124=FACE_BOUND('',#116,.T.);
#125=FACE_BOUND('',#117,.T.);
#126=CYLINDRICAL_SURFACE('',#141,0.001);
#127=CYLINDRICAL_SURFACE('',#152,0.0001);
#128=ADVANCED_FACE('',(#118),#126,.T.);
#129=ADVANCED_FACE('',(#119),#18,.T.);
#130=ADVANCED_FACE('',(#120),#19,.F.);
#131=ADVANCED_FACE('',(#121),#20,.F.);
#132=ADVANCED_FACE('',(#122),#21,.F.);
#133=ADVANCED_FACE('',(#123),#127,.F.);
#134=ADVANCED_FACE('',(#124),#12,.T.);
#135=ADVANCED_FACE('',(#125),#13,.T.);
#136=CLOSED_SHELL('',(#128,#129,#130,#131,#132,#133,#134,#135));
#137=MANIFOLD_SOLID_BREP('',#136);
#138=SHAPE_DEFINITION_REPRESENTATION(#249,#139);
#139=SHAPE_REPRESENTATION('id2',(#140),#244);
#140=AXIS2_PLACEMENT_3D('',#193,#155,#156);
#141=AXIS2_PLACEMENT_3D('',#194,#157,#158);
#142=AXIS2_PLACEMENT_3D('',#198,#160,#161);
#143=AXIS2_PLACEMENT_3D('',#202,#163,#164);
#144=AXIS2_PLACEMENT_3D('',#203,#165,#166);
#145=AXIS2_PLACEMENT_3D('',#207,#168,#169);
#146=AXIS2_PLACEMENT_3D('',#211,#171,#172);
#147=AXIS2_PLACEMENT_3D('',#212,#173,#174);
#148=AXIS2_PLACEMENT_3D('',#216,#176,#177);
#149=AXIS2_PLACEMENT_3D('',#220,#179,#180);
#150=AXIS2_PLACEMENT_3D('',#221,#181,#182);
#151=AXIS2_PLACEMENT_3D('',#231,#184,#185);
#152=AXIS2_PLACEMENT_3D('',#241,#187,#188);
#153=AXIS2_PLACEMENT_3D('',#242,#189,#190);
#154=AXIS2_PLACEMENT_3D('',#243,#191,#192);
#155=DIRECTION('',(0.,0.,1.));
#156=DIRECTION('',(1.,0.,0.));
#157=DIRECTION('',(0.,-1.,0.));
#158=DIRECTION('',(0.,0.,-1.));
#159=DIRECTION('',(0.,1.,0.));
#160=DIRECTION('',(0.,1.,0.));
#161=DIRECTION('',(0.,0.,1.));
#162=DIRECTION('',(0.,1.,0.));
#163=DIRECTION('',(0.,1.,0.));
#164=DIRECTION('',(0.,0.,1.));
#165=DIRECTION('',(0.,1.,0.));
#166=DIRECTION('',(0.,0.,1.));
#167=DIRECTION('',(0.707106781186548,0.,-0.707106781186547));
#168=DIRECTION('',(0.,1.,0.));
#169=DIRECTION('',(0.,0.,1.));
#170=DIRECTION('',(-0.707106781186548,0.,-0.707106781186547));
#171=DIRECTION('',(0.,1.,0.));
#172=DIRECTION('',(0.,0.,1.));
#173=DIRECTION('',(0.,1.,0.));
#174=DIRECTION('',(0.,0.,1.));
#175=DIRECTION('',(-0.707106781186548,0.,-0.707106781186547));
#176=DIRECTION('',(0.,1.,0.));
#177=DIRECTION('',(0.,0.,1.));
#178=DIRECTION('',(0.707106781186548,0.,-0.707106781186547));
#179=DIRECTION('',(0.,1.,0.));
#180=DIRECTION('',(0.,0.,1.));
#181=DIRECTION('',(0.707106781186547,0.,-0.707106781186548));
#182=DIRECTION('',(-0.707106781186548,0.,-0.707106781186547));
#183=DIRECTION('',(0.,1.,0.));
#184=DIRECTION('',(0.707106781186547,0.,0.707106781186548));
#185=DIRECTION('',(0.707106781186548,0.,-0.707106781186547));
#186=DIRECTION('',(0.,1.,0.));
#187=DIRECTION('',(0.,-1.,0.));
#188=DIRECTION('',(0.,0.,-1.));
#189=DIRECTION('',(0.,-1.,0.));
#190=DIRECTION('',(0.,0.,-1.));
#191=DIRECTION('',(0.,1.,0.));
#192=DIRECTION('',(0.,0.,1.));
#193=CARTESIAN_POINT('',(0.,0.,0.));
#194=CARTESIAN_POINT('',(0.,0.055,0.));
#195=CARTESIAN_POINT('',(-0.000878280892974548,0.,0.000478145033473976));
#196=CARTESIAN_POINT('',(-0.000878280892974548,0.000199999999999992,0.000478145033473976));
#197=CARTESIAN_POINT('',(-0.000878280892974548,0.0545,0.000478145033473976));
#198=CARTESIAN_POINT('',(0.,0.000199999999999992,0.));
#199=CARTESIAN_POINT('',(-0.000878280892974548,0.000199999999999992,-0.000478145033473976));
#200=CARTESIAN_POINT('',(-0.000878280892974548,0.,-0.000478145033473976));
#201=CARTESIAN_POINT('',(-0.000878280892974548,0.0545,-0.000478145033473976));
#202=CARTESIAN_POINT('',(0.,0.0545,0.));
#203=CARTESIAN_POINT('',(0.,0.055,0.));
#204=CARTESIAN_POINT('',(-0.000400135859500572,0.055,1.5592143525669E-20));
#205=CARTESIAN_POINT('',(-0.000778836297480789,0.055,0.000378700437980217));
#206=CARTESIAN_POINT('',(-0.000470846537619226,0.055,7.07106781186547E-5));
#207=CARTESIAN_POINT('',(0.,0.055,0.));
#208=CARTESIAN_POINT('',(-0.000778836297480789,0.055,-0.000378700437980217));
#209=CARTESIAN_POINT('',(-0.000878280892974548,0.055,-0.000478145033473976));
#210=CARTESIAN_POINT('',(-0.000470846537619226,0.055,-7.07106781186547E-5));
#211=CARTESIAN_POINT('',(-0.000541557215737881,0.055,5.42101086242752E-20));
#212=CARTESIAN_POINT('',(0.,0.,0.));
#213=CARTESIAN_POINT('',(-0.000878280892974548,0.,-0.000478145033473976));
#214=CARTESIAN_POINT('',(-0.000470846537619226,0.,-7.07106781186547E-5));
#215=CARTESIAN_POINT('',(-0.000729192511947562,0.,-0.00032905665244699));
#216=CARTESIAN_POINT('',(0.,0.,0.));
#217=CARTESIAN_POINT('',(-0.000729192511947562,0.,0.00032905665244699));
#218=CARTESIAN_POINT('',(-0.000400135859500572,0.,1.5592143525669E-20));
#219=CARTESIAN_POINT('',(-0.000470846537619226,0.,7.07106781186547E-5));
#220=CARTESIAN_POINT('',(-0.000541557215737881,0.,5.42101086242752E-20));
#221=CARTESIAN_POINT('',(-0.000878280892974548,0.,-0.000478145033473976));
#222=CARTESIAN_POINT('',(-0.000878280892974548,0.000199999999999992,-0.000478145033473976));
#223=CARTESIAN_POINT('',(-0.000828845520334086,0.000132944578866825,-0.000428709660833514));
#224=CARTESIAN_POINT('',(-0.000779218475871313,6.61749181504258E-5,-0.000379082616370741));
#225=CARTESIAN_POINT('',(-0.000729192511947562,-1.24454699832585E-19,-0.00032905665244699));
#226=CARTESIAN_POINT('',(-0.000470846537619227,0.055,-7.07106781186547E-5));
#227=CARTESIAN_POINT('',(-0.000778836297480789,0.055,-0.000378700437980217));
#228=CARTESIAN_POINT('',(-0.000812228428598758,0.0548334303644563,-0.000412092569098186));
#229=CARTESIAN_POINT('',(-0.000845341084748658,0.0546667495598119,-0.000445205225248085));
#230=CARTESIAN_POINT('',(-0.000878280892974549,0.0545,-0.000478145033473976));
#231=CARTESIAN_POINT('',(-0.000400135859500572,0.,1.5592143525669E-20));
#232=CARTESIAN_POINT('',(-0.000729192511947562,0.,0.00032905665244699));
#233=CARTESIAN_POINT('',(-0.000779218475871313,6.61749181504259E-5,0.000379082616370741));
#234=CARTESIAN_POINT('',(-0.000828845520334086,0.000132944578866825,0.000428709660833514));
#235=CARTESIAN_POINT('',(-0.000878280892974548,0.000199999999999992,0.000478145033473976));
#236=CARTESIAN_POINT('',(-0.000878280892974548,0.0545,0.000478145033473976));
#237=CARTESIAN_POINT('',(-0.000845341084748657,0.0546667495598119,0.000445205225248085));
#238=CARTESIAN_POINT('',(-0.000812228428598758,0.0548334303644563,0.000412092569098185));
#239=CARTESIAN_POINT('',(-0.000778836297480788,0.055,0.000378700437980216));
#240=CARTESIAN_POINT('',(-0.000470846537619226,0.,7.07106781186548E-5));
#241=CARTESIAN_POINT('',(-0.000541557215737881,0.,5.42101086242752E-20));
#242=CARTESIAN_POINT('',(0.,0.055,0.));
#243=CARTESIAN_POINT('',(0.,0.000199999999999992,0.));
#244=(
GEOMETRIC_REPRESENTATION_CONTEXT(3)
GLOBAL_UNCERTAINTY_ASSIGNED_CONTEXT((#245))
GLOBAL_UNIT_ASSIGNED_CONTEXT((#248,#247,#246))
REPRESENTATION_CONTEXT('id2','TOP_LEVEL_ASSEMBLY_PART')
);
#245=UNCERTAINTY_MEASURE_WITH_UNIT(LENGTH_MEASURE(2.E-5),#248,
'DISTANCE_ACCURACY_VALUE','Maximum Tolerance applied to model');
#246=(
NAMED_UNIT(*)
SI_UNIT($,.STERADIAN.)
SOLID_ANGLE_UNIT()
);
#247=(
NAMED_UNIT(*)
PLANE_ANGLE_UNIT()
SI_UNIT($,.RADIAN.)
);
#248=(
LENGTH_UNIT()
NAMED_UNIT(*)
SI_UNIT($,.METRE.)
);
#249=PRODUCT_DEFINITION_SHAPE('','',#250);
#250=PRODUCT_DEFINITION('','',#252,#251);
#251=PRODUCT_DEFINITION_CONTEXT('',#258,'design');
#252=PRODUCT_DEFINITION_FORMATION_WITH_SPECIFIED_SOURCE('','',#254,
 .NOT_KNOWN.);
#253=PRODUCT_RELATED_PRODUCT_CATEGORY('','',(#254));
#254=PRODUCT('id2','id2','id2',(#256));
#255=PRODUCT_CATEGORY('','');
#256=PRODUCT_CONTEXT('',#258,'mechanical');
#257=APPLICATION_PROTOCOL_DEFINITION('international standard',
'ap242_managed_model_based_3d_engineering',2020,#258);
#258=APPLICATION_CONTEXT('managed model based 3d engineering');
ENDSEC;
END-ISO-10303-21;
