ISO-10303-21;
HEADER;
/* Generated by software containing ST-Developer
 * from STEP Tools, Inc. (www.steptools.com) 
 */
/* OPTION: using custom renumber hook */

FILE_DESCRIPTION(
/* description */ ('STEP AP242 Edition 2',
'CAx-IF Rec.Pracs.---Representation and Presentation of Product Manufa
cturing Information (PMI)---4.0---2014-10-13',
'CAx-IF Rec.Pracs.---3D Tessellated Geometry---0.4---2014-09-14','2;1',
'CAx-IF Rec.Pracs.---User Defined Attributes---1.5---2016-08-15'),
/* implementation_level */ '2;1');

FILE_NAME(
/* name */ '10010',
/* time_stamp */ '2026-07-13T04:41:30Z',
/* author */ (''),
/* organization */ (''),
/* preprocessor_version */ 'ST-DEVELOPER v20',
/* originating_system */ 'ONSHAPE BY PTC INC, 1.217',
/* authorisation */ '  ');

FILE_SCHEMA (('AP242_MANAGED_MODEL_BASED_3D_ENGINEERING_MIM_LF { 1 0 10303 442 3 1 4 }'));
ENDSEC;

DATA;
#10=SHAPE_REPRESENTATION_RELATIONSHIP('','',#229,#11);
#11=ADVANCED_BREP_SHAPE_REPRESENTATION('',(#227),#378);
#12=CYLINDRICAL_SURFACE('',#245,0.0009);
#13=CYLINDRICAL_SURFACE('',#247,0.0009);
#14=CYLINDRICAL_SURFACE('',#249,0.0021);
#15=CYLINDRICAL_SURFACE('',#250,0.0065);
#16=CIRCLE('',#236,0.0009);
#17=CIRCLE('',#237,0.0009);
#18=CIRCLE('',#238,0.0065);
#19=CIRCLE('',#239,0.0021);
#20=CIRCLE('',#241,0.0065);
#21=CIRCLE('',#242,0.0021);
#22=CIRCLE('',#243,0.0009);
#23=CIRCLE('',#244,0.0009);
#24=ORIENTED_EDGE('',*,*,#84,.T.);
#25=ORIENTED_EDGE('',*,*,#85,.T.);
#26=ORIENTED_EDGE('',*,*,#86,.F.);
#27=ORIENTED_EDGE('',*,*,#87,.T.);
#28=ORIENTED_EDGE('',*,*,#88,.F.);
#29=ORIENTED_EDGE('',*,*,#89,.F.);
#30=ORIENTED_EDGE('',*,*,#90,.T.);
#31=ORIENTED_EDGE('',*,*,#87,.F.);
#32=ORIENTED_EDGE('',*,*,#91,.F.);
#33=ORIENTED_EDGE('',*,*,#92,.F.);
#34=ORIENTED_EDGE('',*,*,#93,.T.);
#35=ORIENTED_EDGE('',*,*,#94,.F.);
#36=ORIENTED_EDGE('',*,*,#95,.T.);
#37=ORIENTED_EDGE('',*,*,#96,.T.);
#38=ORIENTED_EDGE('',*,*,#97,.F.);
#39=ORIENTED_EDGE('',*,*,#94,.T.);
#40=ORIENTED_EDGE('',*,*,#98,.F.);
#41=ORIENTED_EDGE('',*,*,#99,.F.);
#42=ORIENTED_EDGE('',*,*,#100,.F.);
#43=ORIENTED_EDGE('',*,*,#101,.F.);
#44=ORIENTED_EDGE('',*,*,#97,.T.);
#45=ORIENTED_EDGE('',*,*,#102,.F.);
#46=ORIENTED_EDGE('',*,*,#88,.T.);
#47=ORIENTED_EDGE('',*,*,#86,.T.);
#48=ORIENTED_EDGE('',*,*,#103,.F.);
#49=ORIENTED_EDGE('',*,*,#91,.T.);
#50=ORIENTED_EDGE('',*,*,#104,.F.);
#51=ORIENTED_EDGE('',*,*,#95,.F.);
#52=ORIENTED_EDGE('',*,*,#93,.F.);
#53=ORIENTED_EDGE('',*,*,#105,.T.);
#54=ORIENTED_EDGE('',*,*,#84,.F.);
#55=ORIENTED_EDGE('',*,*,#90,.F.);
#56=ORIENTED_EDGE('',*,*,#106,.T.);
#57=ORIENTED_EDGE('',*,*,#107,.T.);
#58=ORIENTED_EDGE('',*,*,#108,.T.);
#59=ORIENTED_EDGE('',*,*,#109,.T.);
#60=ORIENTED_EDGE('',*,*,#99,.T.);
#61=ORIENTED_EDGE('',*,*,#110,.F.);
#62=ORIENTED_EDGE('',*,*,#106,.F.);
#63=ORIENTED_EDGE('',*,*,#111,.T.);
#64=ORIENTED_EDGE('',*,*,#100,.T.);
#65=ORIENTED_EDGE('',*,*,#111,.F.);
#66=ORIENTED_EDGE('',*,*,#109,.F.);
#67=ORIENTED_EDGE('',*,*,#112,.T.);
#68=ORIENTED_EDGE('',*,*,#101,.T.);
#69=ORIENTED_EDGE('',*,*,#112,.F.);
#70=ORIENTED_EDGE('',*,*,#108,.F.);
#71=ORIENTED_EDGE('',*,*,#113,.T.);
#72=ORIENTED_EDGE('',*,*,#98,.T.);
#73=ORIENTED_EDGE('',*,*,#113,.F.);
#74=ORIENTED_EDGE('',*,*,#107,.F.);
#75=ORIENTED_EDGE('',*,*,#110,.T.);
#76=ORIENTED_EDGE('',*,*,#103,.T.);
#77=ORIENTED_EDGE('',*,*,#85,.F.);
#78=ORIENTED_EDGE('',*,*,#105,.F.);
#79=ORIENTED_EDGE('',*,*,#92,.T.);
#80=ORIENTED_EDGE('',*,*,#102,.T.);
#81=ORIENTED_EDGE('',*,*,#96,.F.);
#82=ORIENTED_EDGE('',*,*,#104,.T.);
#83=ORIENTED_EDGE('',*,*,#89,.T.);
#84=EDGE_CURVE('',#114,#115,#134,.T.);
#85=EDGE_CURVE('',#115,#116,#135,.T.);
#86=EDGE_CURVE('',#117,#116,#136,.T.);
#87=EDGE_CURVE('',#117,#114,#137,.T.);
#88=EDGE_CURVE('',#118,#117,#138,.T.);
#89=EDGE_CURVE('',#119,#118,#139,.T.);
#90=EDGE_CURVE('',#119,#114,#140,.T.);
#91=EDGE_CURVE('',#120,#121,#141,.T.);
#92=EDGE_CURVE('',#122,#120,#142,.T.);
#93=EDGE_CURVE('',#122,#123,#143,.T.);
#94=EDGE_CURVE('',#121,#123,#144,.T.);
#95=EDGE_CURVE('',#123,#124,#145,.T.);
#96=EDGE_CURVE('',#124,#125,#146,.T.);
#97=EDGE_CURVE('',#121,#125,#147,.T.);
#98=EDGE_CURVE('',#126,#127,#148,.T.);
#99=EDGE_CURVE('',#128,#126,#16,.T.);
#100=EDGE_CURVE('',#129,#128,#149,.T.);
#101=EDGE_CURVE('',#127,#129,#17,.T.);
#102=EDGE_CURVE('',#118,#125,#18,.T.);
#103=EDGE_CURVE('',#120,#116,#19,.T.);
#104=EDGE_CURVE('',#124,#119,#20,.F.);
#105=EDGE_CURVE('',#122,#115,#21,.T.);
#106=EDGE_CURVE('',#130,#131,#22,.T.);
#107=EDGE_CURVE('',#131,#132,#150,.T.);
#108=EDGE_CURVE('',#132,#133,#23,.T.);
#109=EDGE_CURVE('',#133,#130,#151,.T.);
#110=EDGE_CURVE('',#131,#126,#152,.T.);
#111=EDGE_CURVE('',#130,#128,#153,.T.);
#112=EDGE_CURVE('',#133,#129,#154,.T.);
#113=EDGE_CURVE('',#132,#127,#155,.T.);
#114=VERTEX_POINT('',#318);
#115=VERTEX_POINT('',#319);
#116=VERTEX_POINT('',#321);
#117=VERTEX_POINT('',#323);
#118=VERTEX_POINT('',#327);
#119=VERTEX_POINT('',#329);
#120=VERTEX_POINT('',#333);
#121=VERTEX_POINT('',#334);
#122=VERTEX_POINT('',#336);
#123=VERTEX_POINT('',#338);
#124=VERTEX_POINT('',#342);
#125=VERTEX_POINT('',#344);
#126=VERTEX_POINT('',#348);
#127=VERTEX_POINT('',#349);
#128=VERTEX_POINT('',#351);
#129=VERTEX_POINT('',#353);
#130=VERTEX_POINT('',#361);
#131=VERTEX_POINT('',#362);
#132=VERTEX_POINT('',#364);
#133=VERTEX_POINT('',#366);
#134=LINE('',#317,#156);
#135=LINE('',#320,#157);
#136=LINE('',#322,#158);
#137=LINE('',#324,#159);
#138=LINE('',#326,#160);
#139=LINE('',#328,#161);
#140=LINE('',#330,#162);
#141=LINE('',#332,#163);
#142=LINE('',#335,#164);
#143=LINE('',#337,#165);
#144=LINE('',#339,#166);
#145=LINE('',#341,#167);
#146=LINE('',#343,#168);
#147=LINE('',#345,#169);
#148=LINE('',#347,#170);
#149=LINE('',#352,#171);
#150=LINE('',#363,#172);
#151=LINE('',#367,#173);
#152=LINE('',#369,#174);
#153=LINE('',#370,#175);
#154=LINE('',#372,#176);
#155=LINE('',#374,#177);
#156=VECTOR('',#255,1.);
#157=VECTOR('',#256,1.);
#158=VECTOR('',#257,1.);
#159=VECTOR('',#258,1.);
#160=VECTOR('',#261,1.);
#161=VECTOR('',#262,1.);
#162=VECTOR('',#263,1.);
#163=VECTOR('',#266,1.);
#164=VECTOR('',#267,1.);
#165=VECTOR('',#268,1.);
#166=VECTOR('',#269,1.);
#167=VECTOR('',#272,1.);
#168=VECTOR('',#273,1.);
#169=VECTOR('',#274,1.);
#170=VECTOR('',#277,1.);
#171=VECTOR('',#280,1.);
#172=VECTOR('',#295,1.);
#173=VECTOR('',#298,1.);
#174=VECTOR('',#301,1.);
#175=VECTOR('',#302,1.);
#176=VECTOR('',#305,1.);
#177=VECTOR('',#308,1.);
#178=EDGE_LOOP('',(#24,#25,#26,#27));
#179=EDGE_LOOP('',(#28,#29,#30,#31));
#180=EDGE_LOOP('',(#32,#33,#34,#35));
#181=EDGE_LOOP('',(#36,#37,#38,#39));
#182=EDGE_LOOP('',(#40,#41,#42,#43));
#183=EDGE_LOOP('',(#44,#45,#46,#47,#48,#49));
#184=EDGE_LOOP('',(#50,#51,#52,#53,#54,#55));
#185=EDGE_LOOP('',(#56,#57,#58,#59));
#186=EDGE_LOOP('',(#60,#61,#62,#63));
#187=EDGE_LOOP('',(#64,#65,#66,#67));
#188=EDGE_LOOP('',(#68,#69,#70,#71));
#189=EDGE_LOOP('',(#72,#73,#74,#75));
#190=EDGE_LOOP('',(#76,#77,#78,#79));
#191=EDGE_LOOP('',(#80,#81,#82,#83));
#192=FACE_BOUND('',#178,.T.);
#193=FACE_BOUND('',#179,.T.);
#194=FACE_BOUND('',#180,.T.);
#195=FACE_BOUND('',#181,.T.);
#196=FACE_BOUND('',#182,.T.);
#197=FACE_BOUND('',#183,.T.);
#198=FACE_BOUND('',#184,.T.);
#199=FACE_BOUND('',#185,.T.);
#200=FACE_BOUND('',#186,.T.);
#201=FACE_BOUND('',#187,.T.);
#202=FACE_BOUND('',#188,.T.);
#203=FACE_BOUND('',#189,.T.);
#204=FACE_BOUND('',#190,.T.);
#205=FACE_BOUND('',#191,.T.);
#206=PLANE('',#231);
#207=PLANE('',#232);
#208=PLANE('',#233);
#209=PLANE('',#234);
#210=PLANE('',#235);
#211=PLANE('',#240);
#212=PLANE('',#246);
#213=PLANE('',#248);
#214=ADVANCED_FACE('',(#192),#206,.F.);
#215=ADVANCED_FACE('',(#193),#207,.F.);
#216=ADVANCED_FACE('',(#194),#208,.F.);
#217=ADVANCED_FACE('',(#195),#209,.F.);
#218=ADVANCED_FACE('',(#196,#197),#210,.F.);
#219=ADVANCED_FACE('',(#198,#199),#211,.T.);
#220=ADVANCED_FACE('',(#200),#12,.F.);
#221=ADVANCED_FACE('',(#201),#212,.F.);
#222=ADVANCED_FACE('',(#202),#13,.F.);
#223=ADVANCED_FACE('',(#203),#213,.F.);
#224=ADVANCED_FACE('',(#204),#14,.F.);
#225=ADVANCED_FACE('',(#205),#15,.T.);
#226=CLOSED_SHELL('',(#214,#215,#216,#217,#218,#219,#220,#221,#222,#223,
#224,#225));
#227=MANIFOLD_SOLID_BREP('',#226);
#228=SHAPE_DEFINITION_REPRESENTATION(#383,#229);
#229=SHAPE_REPRESENTATION('id2',(#230),#378);
#230=AXIS2_PLACEMENT_3D('',#315,#251,#252);
#231=AXIS2_PLACEMENT_3D('',#316,#253,#254);
#232=AXIS2_PLACEMENT_3D('',#325,#259,#260);
#233=AXIS2_PLACEMENT_3D('',#331,#264,#265);
#234=AXIS2_PLACEMENT_3D('',#340,#270,#271);
#235=AXIS2_PLACEMENT_3D('',#346,#275,#276);
#236=AXIS2_PLACEMENT_3D('',#350,#278,#279);
#237=AXIS2_PLACEMENT_3D('',#354,#281,#282);
#238=AXIS2_PLACEMENT_3D('',#355,#283,#284);
#239=AXIS2_PLACEMENT_3D('',#356,#285,#286);
#240=AXIS2_PLACEMENT_3D('',#357,#287,#288);
#241=AXIS2_PLACEMENT_3D('',#358,#289,#290);
#242=AXIS2_PLACEMENT_3D('',#359,#291,#292);
#243=AXIS2_PLACEMENT_3D('',#360,#293,#294);
#244=AXIS2_PLACEMENT_3D('',#365,#296,#297);
#245=AXIS2_PLACEMENT_3D('',#368,#299,#300);
#246=AXIS2_PLACEMENT_3D('',#371,#303,#304);
#247=AXIS2_PLACEMENT_3D('',#373,#306,#307);
#248=AXIS2_PLACEMENT_3D('',#375,#309,#310);
#249=AXIS2_PLACEMENT_3D('',#376,#311,#312);
#250=AXIS2_PLACEMENT_3D('',#377,#313,#314);
#251=DIRECTION('',(0.,0.,1.));
#252=DIRECTION('',(1.,0.,0.));
#253=DIRECTION('',(1.,0.,0.));
#254=DIRECTION('',(0.,0.,-1.));
#255=DIRECTION('',(0.,0.,1.));
#256=DIRECTION('',(0.,1.,0.));
#257=DIRECTION('',(0.,0.,1.));
#258=DIRECTION('',(0.,-1.,0.));
#259=DIRECTION('',(0.,0.,1.));
#260=DIRECTION('',(1.,0.,0.));
#261=DIRECTION('',(-1.,0.,0.));
#262=DIRECTION('',(0.,1.,0.));
#263=DIRECTION('',(-1.,0.,0.));
#264=DIRECTION('',(1.,0.,0.));
#265=DIRECTION('',(0.,0.,-1.));
#266=DIRECTION('',(0.,0.,1.));
#267=DIRECTION('',(0.,1.,0.));
#268=DIRECTION('',(0.,0.,1.));
#269=DIRECTION('',(0.,-1.,0.));
#270=DIRECTION('',(0.,0.,-1.));
#271=DIRECTION('',(-1.,0.,0.));
#272=DIRECTION('',(1.,0.,0.));
#273=DIRECTION('',(0.,1.,0.));
#274=DIRECTION('',(1.,0.,0.));
#275=DIRECTION('',(0.,-1.,0.));
#276=DIRECTION('',(0.,0.,-1.));
#277=DIRECTION('',(0.,0.,-1.));
#278=DIRECTION('',(0.,1.,0.));
#279=DIRECTION('',(0.,0.,1.));
#280=DIRECTION('',(0.,0.,1.));
#281=DIRECTION('',(0.,1.,0.));
#282=DIRECTION('',(0.,0.,1.));
#283=DIRECTION('',(0.,-1.,0.));
#284=DIRECTION('',(0.,0.,1.));
#285=DIRECTION('',(0.,1.,0.));
#286=DIRECTION('',(0.,0.,1.));
#287=DIRECTION('',(0.,-1.,0.));
#288=DIRECTION('',(0.,0.,-1.));
#289=DIRECTION('',(0.,-1.,0.));
#290=DIRECTION('',(0.,0.,-1.));
#291=DIRECTION('',(0.,1.,0.));
#292=DIRECTION('',(0.,0.,1.));
#293=DIRECTION('',(0.,1.,0.));
#294=DIRECTION('',(0.,0.,1.));
#295=DIRECTION('',(0.,0.,-1.));
#296=DIRECTION('',(0.,1.,0.));
#297=DIRECTION('',(0.,0.,1.));
#298=DIRECTION('',(0.,0.,1.));
#299=DIRECTION('',(0.,1.,0.));
#300=DIRECTION('',(0.,0.,1.));
#301=DIRECTION('',(0.,1.,0.));
#302=DIRECTION('',(0.,1.,0.));
#303=DIRECTION('',(-1.,0.,0.));
#304=DIRECTION('',(0.,0.,1.));
#305=DIRECTION('',(0.,1.,0.));
#306=DIRECTION('',(0.,1.,0.));
#307=DIRECTION('',(0.,0.,1.));
#308=DIRECTION('',(0.,1.,0.));
#309=DIRECTION('',(1.,0.,0.));
#310=DIRECTION('',(0.,0.,-1.));
#311=DIRECTION('',(0.,1.,0.));
#312=DIRECTION('',(0.,0.,1.));
#313=DIRECTION('',(0.,1.,0.));
#314=DIRECTION('',(0.,0.,1.));
#315=CARTESIAN_POINT('',(0.,0.,0.));
#316=CARTESIAN_POINT('',(-0.00275,0.001,0.00275));
#317=CARTESIAN_POINT('',(-0.00275,0.,0.00275));
#318=CARTESIAN_POINT('',(-0.00275,0.,-0.00275));
#319=CARTESIAN_POINT('',(-0.00275,0.,-0.00184661853126194));
#320=CARTESIAN_POINT('',(-0.00275,0.,-0.00184661853126194));
#321=CARTESIAN_POINT('',(-0.00275,0.001,-0.00184661853126194));
#322=CARTESIAN_POINT('',(-0.00275,0.001,0.00275));
#323=CARTESIAN_POINT('',(-0.00275,0.001,-0.00275));
#324=CARTESIAN_POINT('',(-0.00275,0.001,-0.00275));
#325=CARTESIAN_POINT('',(-0.00275,0.001,-0.00275));
#326=CARTESIAN_POINT('',(-0.00275,0.001,-0.00275));
#327=CARTESIAN_POINT('',(0.00213960949469487,0.001,-0.00275));
#328=CARTESIAN_POINT('',(0.00213960949469487,0.,-0.00275));
#329=CARTESIAN_POINT('',(0.00213960949469487,0.,-0.00275));
#330=CARTESIAN_POINT('',(-0.00275,0.,-0.00275));
#331=CARTESIAN_POINT('',(-0.00275,0.001,0.00275));
#332=CARTESIAN_POINT('',(-0.00275,0.001,0.00275));
#333=CARTESIAN_POINT('',(-0.00275,0.001,0.00184661853126194));
#334=CARTESIAN_POINT('',(-0.00275,0.001,0.00275));
#335=CARTESIAN_POINT('',(-0.00275,0.,0.00184661853126194));
#336=CARTESIAN_POINT('',(-0.00275,0.,0.00184661853126194));
#337=CARTESIAN_POINT('',(-0.00275,0.,0.00275));
#338=CARTESIAN_POINT('',(-0.00275,0.,0.00275));
#339=CARTESIAN_POINT('',(-0.00275,0.001,0.00275));
#340=CARTESIAN_POINT('',(-0.00275,0.001,0.00275));
#341=CARTESIAN_POINT('',(-0.00275,0.,0.00275));
#342=CARTESIAN_POINT('',(0.00213960949469487,0.,0.00275));
#343=CARTESIAN_POINT('',(0.00213960949469487,0.,0.00275));
#344=CARTESIAN_POINT('',(0.00213960949469487,0.001,0.00275));
#345=CARTESIAN_POINT('',(-0.00275,0.001,0.00275));
#346=CARTESIAN_POINT('',(0.,0.001,0.));
#347=CARTESIAN_POINT('',(0.00195,0.001,0.0002));
#348=CARTESIAN_POINT('',(0.00195,0.001,0.0002));
#349=CARTESIAN_POINT('',(0.00195,0.001,-0.0002));
#350=CARTESIAN_POINT('',(0.00105,0.001,0.0002));
#351=CARTESIAN_POINT('',(0.00015,0.001,0.0002));
#352=CARTESIAN_POINT('',(0.00015,0.001,0.0002));
#353=CARTESIAN_POINT('',(0.00015,0.001,-0.0002));
#354=CARTESIAN_POINT('',(0.00105,0.001,-0.0002));
#355=CARTESIAN_POINT('',(-0.00375,0.001,0.));
#356=CARTESIAN_POINT('',(-0.00375,0.001,0.));
#357=CARTESIAN_POINT('',(0.,0.,0.));
#358=CARTESIAN_POINT('',(-0.00375,0.,0.));
#359=CARTESIAN_POINT('',(-0.00375,0.,0.));
#360=CARTESIAN_POINT('',(0.00105,0.,0.0002));
#361=CARTESIAN_POINT('',(0.00015,0.,0.0002));
#362=CARTESIAN_POINT('',(0.00195,0.,0.0002));
#363=CARTESIAN_POINT('',(0.00195,0.,0.0002));
#364=CARTESIAN_POINT('',(0.00195,0.,-0.0002));
#365=CARTESIAN_POINT('',(0.00105,0.,-0.0002));
#366=CARTESIAN_POINT('',(0.00015,0.,-0.0002));
#367=CARTESIAN_POINT('',(0.00015,0.,0.0002));
#368=CARTESIAN_POINT('',(0.00105,0.,0.0002));
#369=CARTESIAN_POINT('',(0.00195,0.,0.0002));
#370=CARTESIAN_POINT('',(0.00015,0.,0.0002));
#371=CARTESIAN_POINT('',(0.00015,0.,0.0002));
#372=CARTESIAN_POINT('',(0.00015,0.,-0.0002));
#373=CARTESIAN_POINT('',(0.00105,0.,-0.0002));
#374=CARTESIAN_POINT('',(0.00195,0.,-0.0002));
#375=CARTESIAN_POINT('',(0.00195,0.,0.0002));
#376=CARTESIAN_POINT('',(-0.00375,0.,0.));
#377=CARTESIAN_POINT('',(-0.00375,0.,0.));
#378=(
GEOMETRIC_REPRESENTATION_CONTEXT(3)
GLOBAL_UNCERTAINTY_ASSIGNED_CONTEXT((#379))
GLOBAL_UNIT_ASSIGNED_CONTEXT((#382,#381,#380))
REPRESENTATION_CONTEXT('id2','TOP_LEVEL_ASSEMBLY_PART')
);
#379=UNCERTAINTY_MEASURE_WITH_UNIT(LENGTH_MEASURE(1.E-8),#382,
'DISTANCE_ACCURACY_VALUE','Maximum Tolerance applied to model');
#380=(
NAMED_UNIT(*)
SI_UNIT($,.STERADIAN.)
SOLID_ANGLE_UNIT()
);
#381=(
NAMED_UNIT(*)
PLANE_ANGLE_UNIT()
SI_UNIT($,.RADIAN.)
);
#382=(
LENGTH_UNIT()
NAMED_UNIT(*)
SI_UNIT($,.METRE.)
);
#383=PRODUCT_DEFINITION_SHAPE('','',#384);
#384=PRODUCT_DEFINITION('','',#386,#385);
#385=PRODUCT_DEFINITION_CONTEXT('',#392,'design');
#386=PRODUCT_DEFINITION_FORMATION_WITH_SPECIFIED_SOURCE('','',#388,
 .NOT_KNOWN.);
#387=PRODUCT_RELATED_PRODUCT_CATEGORY('','',(#388));
#388=PRODUCT('id2','id2','id2',(#390));
#389=PRODUCT_CATEGORY('','');
#390=PRODUCT_CONTEXT('',#392,'mechanical');
#391=APPLICATION_PROTOCOL_DEFINITION('international standard',
'ap242_managed_model_based_3d_engineering',2020,#392);
#392=APPLICATION_CONTEXT('managed model based 3d engineering');
ENDSEC;
END-ISO-10303-21;
