ISO-10303-21;
HEADER;
/* Generated by software containing ST-Developer
 * from STEP Tools, Inc. (www.steptools.com) 
 */
/* OPTION: using custom renumber hook */

FILE_DESCRIPTION(
/* description */ ('STEP AP242 Edition 2',
'CAx-IF Rec.Pracs.---Representation and Presentation of Product Manufa
cturing Information (PMI)---4.0---2014-10-13',
'CAx-IF Rec.Pracs.---3D Tessellated Geometry---0.4---2014-09-14','2;1',
'CAx-IF Rec.Pracs.---User Defined Attributes---1.5---2016-08-15'),
/* implementation_level */ '2;1');

FILE_NAME(
/* name */ '10021',
/* time_stamp */ '2026-07-13T04:42:14Z',
/* author */ (''),
/* organization */ (''),
/* preprocessor_version */ 'ST-DEVELOPER v20',
/* originating_system */ 'ONSHAPE BY PTC INC, 1.217',
/* authorisation */ '  ');

FILE_SCHEMA (('AP242_MANAGED_MODEL_BASED_3D_ENGINEERING_MIM_LF { 1 0 10303 442 3 1 4 }'));
ENDSEC;

DATA;
#10=SHAPE_REPRESENTATION_RELATIONSHIP('','',#74,#11);
#11=ADVANCED_BREP_SHAPE_REPRESENTATION('',(#72),#124);
#12=PLANE('',#80);
#13=PLANE('',#81);
#14=PLANE('',#82);
#15=PLANE('',#83);
#16=CIRCLE('',#78,0.0004);
#17=CIRCLE('',#79,0.0004);
#18=ELLIPSE('',#77,0.000565685424949241,0.0004);
#19=ORIENTED_EDGE('',*,*,#33,.T.);
#20=ORIENTED_EDGE('',*,*,#34,.T.);
#21=ORIENTED_EDGE('',*,*,#35,.T.);
#22=ORIENTED_EDGE('',*,*,#36,.F.);
#23=ORIENTED_EDGE('',*,*,#37,.T.);
#24=ORIENTED_EDGE('',*,*,#38,.F.);
#25=ORIENTED_EDGE('',*,*,#36,.T.);
#26=ORIENTED_EDGE('',*,*,#37,.F.);
#27=ORIENTED_EDGE('',*,*,#34,.F.);
#28=ORIENTED_EDGE('',*,*,#39,.T.);
#29=ORIENTED_EDGE('',*,*,#38,.T.);
#30=ORIENTED_EDGE('',*,*,#35,.F.);
#31=ORIENTED_EDGE('',*,*,#39,.F.);
#32=ORIENTED_EDGE('',*,*,#33,.F.);
#33=EDGE_CURVE('',#40,#41,#45,.T.);
#34=EDGE_CURVE('',#41,#42,#18,.T.);
#35=EDGE_CURVE('',#42,#43,#46,.F.);
#36=EDGE_CURVE('',#40,#43,#16,.T.);
#37=EDGE_CURVE('',#44,#44,#17,.T.);
#38=EDGE_CURVE('',#40,#43,#47,.T.);
#39=EDGE_CURVE('',#41,#42,#48,.T.);
#40=VERTEX_POINT('',#109);
#41=VERTEX_POINT('',#110);
#42=VERTEX_POINT('',#112);
#43=VERTEX_POINT('',#114);
#44=VERTEX_POINT('',#117);
#45=LINE('',#108,#49);
#46=LINE('',#113,#50);
#47=LINE('',#119,#51);
#48=LINE('',#122,#52);
#49=VECTOR('',#88,1.);
#50=VECTOR('',#91,1.);
#51=VECTOR('',#98,1.);
#52=VECTOR('',#103,1.);
#53=EDGE_LOOP('',(#19,#20,#21,#22));
#54=EDGE_LOOP('',(#23));
#55=EDGE_LOOP('',(#24,#25));
#56=EDGE_LOOP('',(#26));
#57=EDGE_LOOP('',(#27,#28));
#58=EDGE_LOOP('',(#29,#30,#31,#32));
#59=FACE_BOUND('',#53,.T.);
#60=FACE_BOUND('',#54,.T.);
#61=FACE_BOUND('',#55,.T.);
#62=FACE_BOUND('',#56,.T.);
#63=FACE_BOUND('',#57,.T.);
#64=FACE_BOUND('',#58,.T.);
#65=CYLINDRICAL_SURFACE('',#76,0.0004);
#66=ADVANCED_FACE('',(#59,#60),#65,.T.);
#67=ADVANCED_FACE('',(#61),#12,.T.);
#68=ADVANCED_FACE('',(#62),#13,.F.);
#69=ADVANCED_FACE('',(#63),#14,.F.);
#70=ADVANCED_FACE('',(#64),#15,.F.);
#71=CLOSED_SHELL('',(#66,#67,#68,#69,#70));
#72=MANIFOLD_SOLID_BREP('',#71);
#73=SHAPE_DEFINITION_REPRESENTATION(#129,#74);
#74=SHAPE_REPRESENTATION('id2',(#75),#124);
#75=AXIS2_PLACEMENT_3D('',#106,#84,#85);
#76=AXIS2_PLACEMENT_3D('',#107,#86,#87);
#77=AXIS2_PLACEMENT_3D('',#111,#89,#90);
#78=AXIS2_PLACEMENT_3D('',#115,#92,#93);
#79=AXIS2_PLACEMENT_3D('',#116,#94,#95);
#80=AXIS2_PLACEMENT_3D('',#118,#96,#97);
#81=AXIS2_PLACEMENT_3D('',#120,#99,#100);
#82=AXIS2_PLACEMENT_3D('',#121,#101,#102);
#83=AXIS2_PLACEMENT_3D('',#123,#104,#105);
#84=DIRECTION('',(0.,0.,1.));
#85=DIRECTION('',(1.,0.,0.));
#86=DIRECTION('',(0.,-1.,0.));
#87=DIRECTION('',(0.,0.,-1.));
#88=DIRECTION('',(0.,-1.,0.));
#89=DIRECTION('',(-0.707106781186551,-0.707106781186544,0.));
#90=DIRECTION('',(0.707106781186544,-0.707106781186551,0.));
#91=DIRECTION('',(0.,-1.,0.));
#92=DIRECTION('',(0.,1.,0.));
#93=DIRECTION('',(0.,0.,1.));
#94=DIRECTION('',(0.,1.,0.));
#95=DIRECTION('',(0.,0.,1.));
#96=DIRECTION('',(0.,1.,0.));
#97=DIRECTION('',(0.,0.,1.));
#98=DIRECTION('',(0.,0.,1.));
#99=DIRECTION('',(0.,1.,0.));
#100=DIRECTION('',(0.,0.,1.));
#101=DIRECTION('',(-0.707106781186551,-0.707106781186544,0.));
#102=DIRECTION('',(0.707106781186544,-0.707106781186551,0.));
#103=DIRECTION('',(0.,0.,1.));
#104=DIRECTION('',(-1.,-1.24231498930631E-16,0.));
#105=DIRECTION('',(1.24231498930631E-16,-1.,0.));
#106=CARTESIAN_POINT('',(0.,0.,0.));
#107=CARTESIAN_POINT('',(0.,0.0037,0.));
#108=CARTESIAN_POINT('',(-5.E-5,0.0037,-0.000396862696659689));
#109=CARTESIAN_POINT('',(-5.E-5,0.0037,-0.000396862696659689));
#110=CARTESIAN_POINT('',(-5.E-5,0.0025,-0.000396862696659689));
#111=CARTESIAN_POINT('',(0.,0.00245,0.));
#112=CARTESIAN_POINT('',(-5.E-5,0.0025,0.000396862696659689));
#113=CARTESIAN_POINT('',(-5.E-5,0.0037,0.000396862696659689));
#114=CARTESIAN_POINT('',(-5.E-5,0.0037,0.000396862696659689));
#115=CARTESIAN_POINT('',(0.,0.0037,0.));
#116=CARTESIAN_POINT('',(0.,0.,0.));
#117=CARTESIAN_POINT('',(0.,0.,0.0004));
#118=CARTESIAN_POINT('',(0.,0.0037,0.));
#119=CARTESIAN_POINT('',(-5.E-5,0.0037,0.));
#120=CARTESIAN_POINT('',(0.,0.,0.));
#121=CARTESIAN_POINT('',(-5.E-5,0.0025,-0.0004));
#122=CARTESIAN_POINT('',(-5.E-5,0.0025,-0.0004));
#123=CARTESIAN_POINT('',(-5.E-5,0.0037,-0.0004));
#124=(
GEOMETRIC_REPRESENTATION_CONTEXT(3)
GLOBAL_UNCERTAINTY_ASSIGNED_CONTEXT((#125))
GLOBAL_UNIT_ASSIGNED_CONTEXT((#128,#127,#126))
REPRESENTATION_CONTEXT('id2','TOP_LEVEL_ASSEMBLY_PART')
);
#125=UNCERTAINTY_MEASURE_WITH_UNIT(LENGTH_MEASURE(1.E-8),#128,
'DISTANCE_ACCURACY_VALUE','Maximum Tolerance applied to model');
#126=(
NAMED_UNIT(*)
SI_UNIT($,.STERADIAN.)
SOLID_ANGLE_UNIT()
);
#127=(
NAMED_UNIT(*)
PLANE_ANGLE_UNIT()
SI_UNIT($,.RADIAN.)
);
#128=(
LENGTH_UNIT()
NAMED_UNIT(*)
SI_UNIT($,.METRE.)
);
#129=PRODUCT_DEFINITION_SHAPE('','',#130);
#130=PRODUCT_DEFINITION('','',#132,#131);
#131=PRODUCT_DEFINITION_CONTEXT('',#138,'design');
#132=PRODUCT_DEFINITION_FORMATION_WITH_SPECIFIED_SOURCE('','',#134,
 .NOT_KNOWN.);
#133=PRODUCT_RELATED_PRODUCT_CATEGORY('','',(#134));
#134=PRODUCT('id2','id2','id2',(#136));
#135=PRODUCT_CATEGORY('','');
#136=PRODUCT_CONTEXT('',#138,'mechanical');
#137=APPLICATION_PROTOCOL_DEFINITION('international standard',
'ap242_managed_model_based_3d_engineering',2020,#138);
#138=APPLICATION_CONTEXT('managed model based 3d engineering');
ENDSEC;
END-ISO-10303-21;
