ISO-10303-21;
HEADER;
/* Generated by software containing ST-Developer
 * from STEP Tools, Inc. (www.steptools.com) 
 */
/* OPTION: using custom renumber hook */

FILE_DESCRIPTION(
/* description */ ('STEP AP242 Edition 2',
'CAx-IF Rec.Pracs.---Representation and Presentation of Product Manufa
cturing Information (PMI)---4.0---2014-10-13',
'CAx-IF Rec.Pracs.---3D Tessellated Geometry---0.4---2014-09-14','2;1',
'CAx-IF Rec.Pracs.---User Defined Attributes---1.5---2016-08-15'),
/* implementation_level */ '2;1');

FILE_NAME(
/* name */ '10033',
/* time_stamp */ '2026-07-13T04:44:29Z',
/* author */ (''),
/* organization */ (''),
/* preprocessor_version */ 'ST-DEVELOPER v20',
/* originating_system */ 'ONSHAPE BY PTC INC, 1.217',
/* authorisation */ '  ');

FILE_SCHEMA (('AP242_MANAGED_MODEL_BASED_3D_ENGINEERING_MIM_LF { 1 0 10303 442 3 1 4 }'));
ENDSEC;

DATA;
#10=SHAPE_REPRESENTATION_RELATIONSHIP('','',#399,#11);
#11=ADVANCED_BREP_SHAPE_REPRESENTATION('',(#397),#674);
#12=B_SPLINE_CURVE_WITH_KNOTS('',3,(#661,#662,#663,#664),.UNSPECIFIED.,
 .F.,.F.,(4,4),(0.,1.),.UNSPECIFIED.);
#13=B_SPLINE_CURVE_WITH_KNOTS('',3,(#665,#666,#667,#668),.UNSPECIFIED.,
 .F.,.F.,(4,4),(0.,1.),.UNSPECIFIED.);
#14=CYLINDRICAL_SURFACE('',#413,0.0007);
#15=CYLINDRICAL_SURFACE('',#418,0.0008);
#16=CYLINDRICAL_SURFACE('',#419,0.0008);
#17=CYLINDRICAL_SURFACE('',#420,0.0118);
#18=CYLINDRICAL_SURFACE('',#422,0.0017);
#19=CYLINDRICAL_SURFACE('',#425,0.00105);
#20=CYLINDRICAL_SURFACE('',#433,0.0118);
#21=CYLINDRICAL_SURFACE('',#438,0.004);
#22=CYLINDRICAL_SURFACE('',#439,0.00415);
#23=CIRCLE('',#403,0.0118);
#24=CIRCLE('',#404,0.0008);
#25=CIRCLE('',#405,0.0007);
#26=CIRCLE('',#406,0.0008);
#27=CIRCLE('',#409,0.0118);
#28=CIRCLE('',#410,0.0008);
#29=CIRCLE('',#411,0.0007);
#30=CIRCLE('',#412,0.0008);
#31=CIRCLE('',#423,0.0017);
#32=CIRCLE('',#424,0.0017);
#33=CIRCLE('',#426,0.00105);
#34=CIRCLE('',#427,0.00105);
#35=CIRCLE('',#429,0.0118);
#36=CIRCLE('',#432,0.0118);
#37=CIRCLE('',#436,0.00415);
#38=CIRCLE('',#437,0.004);
#39=ORIENTED_EDGE('',*,*,#147,.T.);
#40=ORIENTED_EDGE('',*,*,#148,.T.);
#41=ORIENTED_EDGE('',*,*,#149,.F.);
#42=ORIENTED_EDGE('',*,*,#150,.T.);
#43=ORIENTED_EDGE('',*,*,#151,.T.);
#44=ORIENTED_EDGE('',*,*,#152,.T.);
#45=ORIENTED_EDGE('',*,*,#147,.F.);
#46=ORIENTED_EDGE('',*,*,#153,.T.);
#47=ORIENTED_EDGE('',*,*,#154,.F.);
#48=ORIENTED_EDGE('',*,*,#155,.F.);
#49=ORIENTED_EDGE('',*,*,#156,.F.);
#50=ORIENTED_EDGE('',*,*,#157,.F.);
#51=ORIENTED_EDGE('',*,*,#158,.F.);
#52=ORIENTED_EDGE('',*,*,#159,.T.);
#53=ORIENTED_EDGE('',*,*,#160,.F.);
#54=ORIENTED_EDGE('',*,*,#161,.T.);
#55=ORIENTED_EDGE('',*,*,#160,.T.);
#56=ORIENTED_EDGE('',*,*,#162,.T.);
#57=ORIENTED_EDGE('',*,*,#163,.F.);
#58=ORIENTED_EDGE('',*,*,#164,.F.);
#59=ORIENTED_EDGE('',*,*,#165,.F.);
#60=ORIENTED_EDGE('',*,*,#163,.T.);
#61=ORIENTED_EDGE('',*,*,#166,.T.);
#62=ORIENTED_EDGE('',*,*,#167,.T.);
#63=ORIENTED_EDGE('',*,*,#168,.T.);
#64=ORIENTED_EDGE('',*,*,#169,.T.);
#65=ORIENTED_EDGE('',*,*,#170,.T.);
#66=ORIENTED_EDGE('',*,*,#171,.T.);
#67=ORIENTED_EDGE('',*,*,#172,.T.);
#68=ORIENTED_EDGE('',*,*,#149,.T.);
#69=ORIENTED_EDGE('',*,*,#156,.T.);
#70=ORIENTED_EDGE('',*,*,#173,.F.);
#71=ORIENTED_EDGE('',*,*,#169,.F.);
#72=ORIENTED_EDGE('',*,*,#174,.T.);
#73=ORIENTED_EDGE('',*,*,#155,.T.);
#74=ORIENTED_EDGE('',*,*,#175,.F.);
#75=ORIENTED_EDGE('',*,*,#170,.F.);
#76=ORIENTED_EDGE('',*,*,#173,.T.);
#77=ORIENTED_EDGE('',*,*,#154,.T.);
#78=ORIENTED_EDGE('',*,*,#176,.T.);
#79=ORIENTED_EDGE('',*,*,#171,.F.);
#80=ORIENTED_EDGE('',*,*,#175,.T.);
#81=ORIENTED_EDGE('',*,*,#167,.F.);
#82=ORIENTED_EDGE('',*,*,#177,.T.);
#83=ORIENTED_EDGE('',*,*,#158,.T.);
#84=ORIENTED_EDGE('',*,*,#178,.F.);
#85=ORIENTED_EDGE('',*,*,#157,.T.);
#86=ORIENTED_EDGE('',*,*,#174,.F.);
#87=ORIENTED_EDGE('',*,*,#168,.F.);
#88=ORIENTED_EDGE('',*,*,#178,.T.);
#89=ORIENTED_EDGE('',*,*,#172,.F.);
#90=ORIENTED_EDGE('',*,*,#176,.F.);
#91=ORIENTED_EDGE('',*,*,#153,.F.);
#92=ORIENTED_EDGE('',*,*,#150,.F.);
#93=ORIENTED_EDGE('',*,*,#166,.F.);
#94=ORIENTED_EDGE('',*,*,#162,.F.);
#95=ORIENTED_EDGE('',*,*,#159,.F.);
#96=ORIENTED_EDGE('',*,*,#177,.F.);
#97=ORIENTED_EDGE('',*,*,#179,.F.);
#98=ORIENTED_EDGE('',*,*,#151,.F.);
#99=ORIENTED_EDGE('',*,*,#161,.F.);
#100=ORIENTED_EDGE('',*,*,#165,.T.);
#101=ORIENTED_EDGE('',*,*,#180,.F.);
#102=ORIENTED_EDGE('',*,*,#181,.F.);
#103=ORIENTED_EDGE('',*,*,#182,.T.);
#104=ORIENTED_EDGE('',*,*,#183,.T.);
#105=ORIENTED_EDGE('',*,*,#184,.T.);
#106=ORIENTED_EDGE('',*,*,#182,.F.);
#107=ORIENTED_EDGE('',*,*,#185,.F.);
#108=ORIENTED_EDGE('',*,*,#186,.T.);
#109=ORIENTED_EDGE('',*,*,#187,.T.);
#110=ORIENTED_EDGE('',*,*,#188,.F.);
#111=ORIENTED_EDGE('',*,*,#187,.F.);
#112=ORIENTED_EDGE('',*,*,#189,.F.);
#113=ORIENTED_EDGE('',*,*,#190,.T.);
#114=ORIENTED_EDGE('',*,*,#191,.T.);
#115=ORIENTED_EDGE('',*,*,#185,.T.);
#116=ORIENTED_EDGE('',*,*,#181,.T.);
#117=ORIENTED_EDGE('',*,*,#192,.F.);
#118=ORIENTED_EDGE('',*,*,#193,.T.);
#119=ORIENTED_EDGE('',*,*,#186,.F.);
#120=ORIENTED_EDGE('',*,*,#191,.F.);
#121=ORIENTED_EDGE('',*,*,#194,.F.);
#122=ORIENTED_EDGE('',*,*,#195,.T.);
#123=ORIENTED_EDGE('',*,*,#183,.F.);
#124=ORIENTED_EDGE('',*,*,#184,.F.);
#125=ORIENTED_EDGE('',*,*,#193,.F.);
#126=ORIENTED_EDGE('',*,*,#188,.T.);
#127=ORIENTED_EDGE('',*,*,#195,.F.);
#128=ORIENTED_EDGE('',*,*,#196,.T.);
#129=ORIENTED_EDGE('',*,*,#189,.T.);
#130=ORIENTED_EDGE('',*,*,#180,.T.);
#131=ORIENTED_EDGE('',*,*,#196,.F.);
#132=ORIENTED_EDGE('',*,*,#197,.T.);
#133=ORIENTED_EDGE('',*,*,#179,.T.);
#134=ORIENTED_EDGE('',*,*,#198,.F.);
#135=ORIENTED_EDGE('',*,*,#199,.T.);
#136=ORIENTED_EDGE('',*,*,#192,.T.);
#137=ORIENTED_EDGE('',*,*,#200,.F.);
#138=ORIENTED_EDGE('',*,*,#148,.F.);
#139=ORIENTED_EDGE('',*,*,#164,.T.);
#140=ORIENTED_EDGE('',*,*,#200,.T.);
#141=ORIENTED_EDGE('',*,*,#190,.F.);
#142=ORIENTED_EDGE('',*,*,#198,.T.);
#143=ORIENTED_EDGE('',*,*,#152,.F.);
#144=ORIENTED_EDGE('',*,*,#197,.F.);
#145=ORIENTED_EDGE('',*,*,#194,.T.);
#146=ORIENTED_EDGE('',*,*,#199,.F.);
#147=EDGE_CURVE('',#201,#202,#235,.T.);
#148=EDGE_CURVE('',#202,#203,#236,.T.);
#149=EDGE_CURVE('',#204,#203,#237,.T.);
#150=EDGE_CURVE('',#204,#201,#238,.T.);
#151=EDGE_CURVE('',#205,#206,#23,.T.);
#152=EDGE_CURVE('',#206,#202,#239,.T.);
#153=EDGE_CURVE('',#201,#207,#24,.F.);
#154=EDGE_CURVE('',#208,#207,#240,.T.);
#155=EDGE_CURVE('',#209,#208,#241,.T.);
#156=EDGE_CURVE('',#210,#209,#25,.T.);
#157=EDGE_CURVE('',#211,#210,#242,.T.);
#158=EDGE_CURVE('',#212,#211,#243,.T.);
#159=EDGE_CURVE('',#212,#213,#26,.F.);
#160=EDGE_CURVE('',#205,#213,#244,.T.);
#161=EDGE_CURVE('',#214,#205,#245,.F.);
#162=EDGE_CURVE('',#213,#215,#246,.F.);
#163=EDGE_CURVE('',#214,#215,#247,.T.);
#164=EDGE_CURVE('',#216,#203,#248,.T.);
#165=EDGE_CURVE('',#214,#216,#27,.T.);
#166=EDGE_CURVE('',#215,#217,#28,.T.);
#167=EDGE_CURVE('',#217,#218,#249,.T.);
#168=EDGE_CURVE('',#218,#219,#250,.T.);
#169=EDGE_CURVE('',#219,#220,#29,.T.);
#170=EDGE_CURVE('',#220,#221,#251,.T.);
#171=EDGE_CURVE('',#221,#222,#252,.T.);
#172=EDGE_CURVE('',#222,#204,#30,.T.);
#173=EDGE_CURVE('',#220,#209,#253,.T.);
#174=EDGE_CURVE('',#219,#210,#254,.T.);
#175=EDGE_CURVE('',#221,#208,#255,.T.);
#176=EDGE_CURVE('',#207,#222,#256,.F.);
#177=EDGE_CURVE('',#217,#212,#257,.T.);
#178=EDGE_CURVE('',#218,#211,#258,.T.);
#179=EDGE_CURVE('',#206,#216,#259,.T.);
#180=EDGE_CURVE('',#223,#224,#260,.F.);
#181=EDGE_CURVE('',#225,#223,#261,.T.);
#182=EDGE_CURVE('',#225,#226,#262,.T.);
#183=EDGE_CURVE('',#226,#224,#263,.T.);
#184=EDGE_CURVE('',#227,#226,#31,.T.);
#185=EDGE_CURVE('',#228,#225,#32,.T.);
#186=EDGE_CURVE('',#228,#227,#264,.T.);
#187=EDGE_CURVE('',#229,#229,#33,.T.);
#188=EDGE_CURVE('',#230,#230,#34,.T.);
#189=EDGE_CURVE('',#231,#223,#35,.T.);
#190=EDGE_CURVE('',#231,#232,#265,.T.);
#191=EDGE_CURVE('',#232,#228,#266,.T.);
#192=EDGE_CURVE('',#233,#232,#267,.T.);
#193=EDGE_CURVE('',#233,#227,#268,.T.);
#194=EDGE_CURVE('',#234,#233,#269,.T.);
#195=EDGE_CURVE('',#234,#224,#36,.T.);
#196=EDGE_CURVE('',#234,#231,#270,.T.);
#197=EDGE_CURVE('',#234,#206,#12,.T.);
#198=EDGE_CURVE('',#231,#216,#13,.T.);
#199=EDGE_CURVE('',#202,#233,#37,.T.);
#200=EDGE_CURVE('',#203,#232,#38,.T.);
#201=VERTEX_POINT('',#559);
#202=VERTEX_POINT('',#560);
#203=VERTEX_POINT('',#562);
#204=VERTEX_POINT('',#564);
#205=VERTEX_POINT('',#568);
#206=VERTEX_POINT('',#569);
#207=VERTEX_POINT('',#572);
#208=VERTEX_POINT('',#574);
#209=VERTEX_POINT('',#576);
#210=VERTEX_POINT('',#578);
#211=VERTEX_POINT('',#580);
#212=VERTEX_POINT('',#582);
#213=VERTEX_POINT('',#584);
#214=VERTEX_POINT('',#588);
#215=VERTEX_POINT('',#590);
#216=VERTEX_POINT('',#594);
#217=VERTEX_POINT('',#597);
#218=VERTEX_POINT('',#599);
#219=VERTEX_POINT('',#601);
#220=VERTEX_POINT('',#603);
#221=VERTEX_POINT('',#605);
#222=VERTEX_POINT('',#607);
#223=VERTEX_POINT('',#626);
#224=VERTEX_POINT('',#627);
#225=VERTEX_POINT('',#629);
#226=VERTEX_POINT('',#631);
#227=VERTEX_POINT('',#635);
#228=VERTEX_POINT('',#637);
#229=VERTEX_POINT('',#641);
#230=VERTEX_POINT('',#643);
#231=VERTEX_POINT('',#646);
#232=VERTEX_POINT('',#648);
#233=VERTEX_POINT('',#652);
#234=VERTEX_POINT('',#656);
#235=LINE('',#558,#271);
#236=LINE('',#561,#272);
#237=LINE('',#563,#273);
#238=LINE('',#565,#274);
#239=LINE('',#570,#275);
#240=LINE('',#573,#276);
#241=LINE('',#575,#277);
#242=LINE('',#579,#278);
#243=LINE('',#581,#279);
#244=LINE('',#585,#280);
#245=LINE('',#587,#281);
#246=LINE('',#589,#282);
#247=LINE('',#591,#283);
#248=LINE('',#593,#284);
#249=LINE('',#598,#285);
#250=LINE('',#600,#286);
#251=LINE('',#604,#287);
#252=LINE('',#606,#288);
#253=LINE('',#610,#289);
#254=LINE('',#611,#290);
#255=LINE('',#613,#291);
#256=LINE('',#615,#292);
#257=LINE('',#617,#293);
#258=LINE('',#618,#294);
#259=LINE('',#623,#295);
#260=LINE('',#625,#296);
#261=LINE('',#628,#297);
#262=LINE('',#630,#298);
#263=LINE('',#632,#299);
#264=LINE('',#638,#300);
#265=LINE('',#647,#301);
#266=LINE('',#649,#302);
#267=LINE('',#651,#303);
#268=LINE('',#653,#304);
#269=LINE('',#655,#305);
#270=LINE('',#659,#306);
#271=VECTOR('',#444,1.);
#272=VECTOR('',#445,1.);
#273=VECTOR('',#446,1.);
#274=VECTOR('',#447,1.);
#275=VECTOR('',#452,1.);
#276=VECTOR('',#455,1.);
#277=VECTOR('',#456,1.);
#278=VECTOR('',#459,1.);
#279=VECTOR('',#460,1.);
#280=VECTOR('',#463,1.);
#281=VECTOR('',#466,1.);
#282=VECTOR('',#467,1.);
#283=VECTOR('',#468,1.);
#284=VECTOR('',#471,1.);
#285=VECTOR('',#476,1.);
#286=VECTOR('',#477,1.);
#287=VECTOR('',#480,1.);
#288=VECTOR('',#481,1.);
#289=VECTOR('',#486,1.);
#290=VECTOR('',#487,1.);
#291=VECTOR('',#490,1.);
#292=VECTOR('',#493,1.);
#293=VECTOR('',#496,1.);
#294=VECTOR('',#497,1.);
#295=VECTOR('',#506,1.);
#296=VECTOR('',#509,1.);
#297=VECTOR('',#510,1.);
#298=VECTOR('',#511,1.);
#299=VECTOR('',#512,1.);
#300=VECTOR('',#519,1.);
#301=VECTOR('',#530,1.);
#302=VECTOR('',#531,1.);
#303=VECTOR('',#534,1.);
#304=VECTOR('',#535,1.);
#305=VECTOR('',#538,1.);
#306=VECTOR('',#543,1.);
#307=EDGE_LOOP('',(#39,#40,#41,#42));
#308=EDGE_LOOP('',(#43,#44,#45,#46,#47,#48,#49,#50,#51,#52,#53));
#309=EDGE_LOOP('',(#54,#55,#56,#57));
#310=EDGE_LOOP('',(#58,#59,#60,#61,#62,#63,#64,#65,#66,#67,#68));
#311=EDGE_LOOP('',(#69,#70,#71,#72));
#312=EDGE_LOOP('',(#73,#74,#75,#76));
#313=EDGE_LOOP('',(#77,#78,#79,#80));
#314=EDGE_LOOP('',(#81,#82,#83,#84));
#315=EDGE_LOOP('',(#85,#86,#87,#88));
#316=EDGE_LOOP('',(#89,#90,#91,#92));
#317=EDGE_LOOP('',(#93,#94,#95,#96));
#318=EDGE_LOOP('',(#97,#98,#99,#100));
#319=EDGE_LOOP('',(#101,#102,#103,#104));
#320=EDGE_LOOP('',(#105,#106,#107,#108));
#321=EDGE_LOOP('',(#109));
#322=EDGE_LOOP('',(#110));
#323=EDGE_LOOP('',(#111));
#324=EDGE_LOOP('',(#112,#113,#114,#115,#116));
#325=EDGE_LOOP('',(#117,#118,#119,#120));
#326=EDGE_LOOP('',(#121,#122,#123,#124,#125));
#327=EDGE_LOOP('',(#126));
#328=EDGE_LOOP('',(#127,#128,#129,#130));
#329=EDGE_LOOP('',(#131,#132,#133,#134));
#330=EDGE_LOOP('',(#135,#136,#137,#138));
#331=EDGE_LOOP('',(#139,#140,#141,#142));
#332=EDGE_LOOP('',(#143,#144,#145,#146));
#333=FACE_BOUND('',#307,.T.);
#334=FACE_BOUND('',#308,.T.);
#335=FACE_BOUND('',#309,.T.);
#336=FACE_BOUND('',#310,.T.);
#337=FACE_BOUND('',#311,.T.);
#338=FACE_BOUND('',#312,.T.);
#339=FACE_BOUND('',#313,.T.);
#340=FACE_BOUND('',#314,.T.);
#341=FACE_BOUND('',#315,.T.);
#342=FACE_BOUND('',#316,.T.);
#343=FACE_BOUND('',#317,.T.);
#344=FACE_BOUND('',#318,.T.);
#345=FACE_BOUND('',#319,.T.);
#346=FACE_BOUND('',#320,.T.);
#347=FACE_BOUND('',#321,.T.);
#348=FACE_BOUND('',#322,.T.);
#349=FACE_BOUND('',#323,.T.);
#350=FACE_BOUND('',#324,.T.);
#351=FACE_BOUND('',#325,.T.);
#352=FACE_BOUND('',#326,.T.);
#353=FACE_BOUND('',#327,.T.);
#354=FACE_BOUND('',#328,.T.);
#355=FACE_BOUND('',#329,.T.);
#356=FACE_BOUND('',#330,.T.);
#357=FACE_BOUND('',#331,.T.);
#358=FACE_BOUND('',#332,.T.);
#359=PLANE('',#401);
#360=PLANE('',#402);
#361=PLANE('',#407);
#362=PLANE('',#408);
#363=PLANE('',#414);
#364=PLANE('',#415);
#365=PLANE('',#416);
#366=PLANE('',#417);
#367=PLANE('',#421);
#368=PLANE('',#428);
#369=PLANE('',#430);
#370=PLANE('',#431);
#371=PLANE('',#434);
#372=PLANE('',#435);
#373=ADVANCED_FACE('',(#333),#359,.F.);
#374=ADVANCED_FACE('',(#334),#360,.F.);
#375=ADVANCED_FACE('',(#335),#361,.F.);
#376=ADVANCED_FACE('',(#336),#362,.T.);
#377=ADVANCED_FACE('',(#337),#14,.F.);
#378=ADVANCED_FACE('',(#338),#363,.F.);
#379=ADVANCED_FACE('',(#339),#364,.F.);
#380=ADVANCED_FACE('',(#340),#365,.F.);
#381=ADVANCED_FACE('',(#341),#366,.F.);
#382=ADVANCED_FACE('',(#342),#15,.T.);
#383=ADVANCED_FACE('',(#343),#16,.T.);
#384=ADVANCED_FACE('',(#344),#17,.F.);
#385=ADVANCED_FACE('',(#345),#367,.F.);
#386=ADVANCED_FACE('',(#346),#18,.T.);
#387=ADVANCED_FACE('',(#347,#348),#19,.F.);
#388=ADVANCED_FACE('',(#349,#350),#368,.T.);
#389=ADVANCED_FACE('',(#351),#369,.F.);
#390=ADVANCED_FACE('',(#352,#353),#370,.F.);
#391=ADVANCED_FACE('',(#354),#20,.F.);
#392=ADVANCED_FACE('',(#355),#371,.T.);
#393=ADVANCED_FACE('',(#356),#372,.F.);
#394=ADVANCED_FACE('',(#357),#21,.F.);
#395=ADVANCED_FACE('',(#358),#22,.T.);
#396=CLOSED_SHELL('',(#373,#374,#375,#376,#377,#378,#379,#380,#381,#382,
#383,#384,#385,#386,#387,#388,#389,#390,#391,#392,#393,#394,#395));
#397=MANIFOLD_SOLID_BREP('',#396);
#398=SHAPE_DEFINITION_REPRESENTATION(#679,#399);
#399=SHAPE_REPRESENTATION('id2',(#400),#674);
#400=AXIS2_PLACEMENT_3D('',#556,#440,#441);
#401=AXIS2_PLACEMENT_3D('',#557,#442,#443);
#402=AXIS2_PLACEMENT_3D('',#566,#448,#449);
#403=AXIS2_PLACEMENT_3D('',#567,#450,#451);
#404=AXIS2_PLACEMENT_3D('',#571,#453,#454);
#405=AXIS2_PLACEMENT_3D('',#577,#457,#458);
#406=AXIS2_PLACEMENT_3D('',#583,#461,#462);
#407=AXIS2_PLACEMENT_3D('',#586,#464,#465);
#408=AXIS2_PLACEMENT_3D('',#592,#469,#470);
#409=AXIS2_PLACEMENT_3D('',#595,#472,#473);
#410=AXIS2_PLACEMENT_3D('',#596,#474,#475);
#411=AXIS2_PLACEMENT_3D('',#602,#478,#479);
#412=AXIS2_PLACEMENT_3D('',#608,#482,#483);
#413=AXIS2_PLACEMENT_3D('',#609,#484,#485);
#414=AXIS2_PLACEMENT_3D('',#612,#488,#489);
#415=AXIS2_PLACEMENT_3D('',#614,#491,#492);
#416=AXIS2_PLACEMENT_3D('',#616,#494,#495);
#417=AXIS2_PLACEMENT_3D('',#619,#498,#499);
#418=AXIS2_PLACEMENT_3D('',#620,#500,#501);
#419=AXIS2_PLACEMENT_3D('',#621,#502,#503);
#420=AXIS2_PLACEMENT_3D('',#622,#504,#505);
#421=AXIS2_PLACEMENT_3D('',#624,#507,#508);
#422=AXIS2_PLACEMENT_3D('',#633,#513,#514);
#423=AXIS2_PLACEMENT_3D('',#634,#515,#516);
#424=AXIS2_PLACEMENT_3D('',#636,#517,#518);
#425=AXIS2_PLACEMENT_3D('',#639,#520,#521);
#426=AXIS2_PLACEMENT_3D('',#640,#522,#523);
#427=AXIS2_PLACEMENT_3D('',#642,#524,#525);
#428=AXIS2_PLACEMENT_3D('',#644,#526,#527);
#429=AXIS2_PLACEMENT_3D('',#645,#528,#529);
#430=AXIS2_PLACEMENT_3D('',#650,#532,#533);
#431=AXIS2_PLACEMENT_3D('',#654,#536,#537);
#432=AXIS2_PLACEMENT_3D('',#657,#539,#540);
#433=AXIS2_PLACEMENT_3D('',#658,#541,#542);
#434=AXIS2_PLACEMENT_3D('',#660,#544,#545);
#435=AXIS2_PLACEMENT_3D('',#669,#546,#547);
#436=AXIS2_PLACEMENT_3D('',#670,#548,#549);
#437=AXIS2_PLACEMENT_3D('',#671,#550,#551);
#438=AXIS2_PLACEMENT_3D('',#672,#552,#553);
#439=AXIS2_PLACEMENT_3D('',#673,#554,#555);
#440=DIRECTION('',(0.,0.,1.));
#441=DIRECTION('',(1.,0.,0.));
#442=DIRECTION('',(1.,0.,0.));
#443=DIRECTION('',(0.,0.258819045102521,-0.965925826289068));
#444=DIRECTION('',(0.,-0.258819045102521,0.965925826289068));
#445=DIRECTION('',(0.,0.965925826289068,0.258819045102521));
#446=DIRECTION('',(0.,-0.258819045102521,0.965925826289068));
#447=DIRECTION('',(0.,-0.965925826289068,-0.258819045102521));
#448=DIRECTION('',(0.,0.965925826289068,0.258819045102521));
#449=DIRECTION('',(0.,-0.258819045102521,0.965925826289068));
#450=DIRECTION('',(0.,0.965925826289068,0.258819045102521));
#451=DIRECTION('',(0.,-0.258819045102521,0.965925826289068));
#452=DIRECTION('',(-1.,0.,0.));
#453=DIRECTION('',(0.,0.965925826289068,0.258819045102521));
#454=DIRECTION('',(0.,-0.258819045102521,0.965925826289068));
#455=DIRECTION('',(-1.,0.,0.));
#456=DIRECTION('',(8.34001671142695E-17,0.258819045102521,-0.965925826289068));
#457=DIRECTION('',(0.,-0.965925826289068,-0.258819045102521));
#458=DIRECTION('',(0.,-0.258819045102521,0.965925826289068));
#459=DIRECTION('',(8.34001671142695E-17,-0.258819045102521,0.965925826289068));
#460=DIRECTION('',(-1.,0.,0.));
#461=DIRECTION('',(0.,0.965925826289068,0.258819045102521));
#462=DIRECTION('',(0.,-0.258819045102521,0.965925826289068));
#463=DIRECTION('',(0.,0.258819045102521,-0.965925826289068));
#464=DIRECTION('',(-1.,0.,0.));
#465=DIRECTION('',(0.,-0.258819045102521,0.965925826289068));
#466=DIRECTION('',(0.,0.965925826289068,0.258819045102521));
#467=DIRECTION('',(0.,-0.965925826289068,-0.258819045102521));
#468=DIRECTION('',(0.,0.258819045102521,-0.965925826289068));
#469=DIRECTION('',(0.,0.965925826289068,0.258819045102521));
#470=DIRECTION('',(0.,-0.258819045102521,0.965925826289068));
#471=DIRECTION('',(-1.,0.,0.));
#472=DIRECTION('',(0.,0.965925826289068,0.258819045102521));
#473=DIRECTION('',(0.,-0.258819045102521,0.965925826289068));
#474=DIRECTION('',(0.,0.965925826289068,0.258819045102521));
#475=DIRECTION('',(0.,-0.258819045102521,0.965925826289068));
#476=DIRECTION('',(-1.,0.,0.));
#477=DIRECTION('',(8.34001671142695E-17,-0.258819045102521,0.965925826289068));
#478=DIRECTION('',(0.,-0.965925826289068,-0.258819045102521));
#479=DIRECTION('',(0.,-0.258819045102521,0.965925826289068));
#480=DIRECTION('',(8.34001671142695E-17,0.258819045102521,-0.965925826289068));
#481=DIRECTION('',(-1.,0.,0.));
#482=DIRECTION('',(0.,0.965925826289068,0.258819045102521));
#483=DIRECTION('',(0.,-0.258819045102521,0.965925826289068));
#484=DIRECTION('',(0.,-0.965925826289068,-0.258819045102521));
#485=DIRECTION('',(0.,0.258819045102521,-0.965925826289068));
#486=DIRECTION('',(0.,-0.965925826289068,-0.258819045102521));
#487=DIRECTION('',(0.,-0.965925826289068,-0.258819045102521));
#488=DIRECTION('',(-1.,2.15855516139059E-17,-8.05583753324971E-17));
#489=DIRECTION('',(-8.34001671142695E-17,-0.258819045102521,0.965925826289068));
#490=DIRECTION('',(0.,-0.965925826289068,-0.258819045102521));
#491=DIRECTION('',(0.,-0.258819045102521,0.965925826289068));
#492=DIRECTION('',(1.,0.,0.));
#493=DIRECTION('',(0.,-0.965925826289068,-0.258819045102521));
#494=DIRECTION('',(0.,-0.258819045102521,0.965925826289068));
#495=DIRECTION('',(1.,0.,0.));
#496=DIRECTION('',(0.,-0.965925826289068,-0.258819045102521));
#497=DIRECTION('',(0.,-0.965925826289068,-0.258819045102521));
#498=DIRECTION('',(1.,2.15855516139059E-17,-8.05583753324971E-17));
#499=DIRECTION('',(-8.34001671142695E-17,0.258819045102521,-0.965925826289068));
#500=DIRECTION('',(0.,-0.965925826289068,-0.258819045102521));
#501=DIRECTION('',(0.,0.258819045102521,-0.965925826289068));
#502=DIRECTION('',(0.,-0.965925826289068,-0.258819045102521));
#503=DIRECTION('',(0.,0.258819045102521,-0.965925826289068));
#504=DIRECTION('',(0.,0.965925826289068,0.258819045102521));
#505=DIRECTION('',(0.,-0.258819045102521,0.965925826289068));
#506=DIRECTION('',(0.,0.965925826289068,0.258819045102521));
#507=DIRECTION('',(-1.,0.,0.));
#508=DIRECTION('',(0.,0.,1.));
#509=DIRECTION('',(0.,1.,0.));
#510=DIRECTION('',(0.,0.,-1.));
#511=DIRECTION('',(0.,-1.,0.));
#512=DIRECTION('',(0.,0.,-1.));
#513=DIRECTION('',(0.,-1.,0.));
#514=DIRECTION('',(0.,0.,-1.));
#515=DIRECTION('',(0.,1.,0.));
#516=DIRECTION('',(0.,0.,1.));
#517=DIRECTION('',(0.,1.,0.));
#518=DIRECTION('',(0.,0.,1.));
#519=DIRECTION('',(0.,-1.,0.));
#520=DIRECTION('',(0.,-1.,0.));
#521=DIRECTION('',(0.,0.,-1.));
#522=DIRECTION('',(0.,1.,0.));
#523=DIRECTION('',(0.,0.,1.));
#524=DIRECTION('',(0.,1.,0.));
#525=DIRECTION('',(0.,0.,1.));
#526=DIRECTION('',(0.,1.,0.));
#527=DIRECTION('',(0.,0.,1.));
#528=DIRECTION('',(0.,1.,0.));
#529=DIRECTION('',(0.,0.,1.));
#530=DIRECTION('',(-1.,0.,0.));
#531=DIRECTION('',(0.,0.,1.));
#532=DIRECTION('',(1.,0.,0.));
#533=DIRECTION('',(0.,0.,-1.));
#534=DIRECTION('',(0.,1.,-6.12323399573677E-17));
#535=DIRECTION('',(0.,0.,1.));
#536=DIRECTION('',(0.,1.,0.));
#537=DIRECTION('',(0.,0.,1.));
#538=DIRECTION('',(-1.,0.,0.));
#539=DIRECTION('',(0.,1.,0.));
#540=DIRECTION('',(0.,0.,1.));
#541=DIRECTION('',(0.,1.,0.));
#542=DIRECTION('',(0.,0.,1.));
#543=DIRECTION('',(0.,1.,0.));
#544=DIRECTION('',(1.,0.,0.));
#545=DIRECTION('',(0.,0.,-1.));
#546=DIRECTION('',(1.,0.,0.));
#547=DIRECTION('',(0.,0.,-1.));
#548=DIRECTION('',(-1.,0.,0.));
#549=DIRECTION('',(0.,0.,1.));
#550=DIRECTION('',(-1.,0.,0.));
#551=DIRECTION('',(0.,0.,1.));
#552=DIRECTION('',(-1.,0.,0.));
#553=DIRECTION('',(0.,0.,1.));
#554=DIRECTION('',(-1.,0.,0.));
#555=DIRECTION('',(0.,0.,1.));
#556=CARTESIAN_POINT('',(0.,0.,0.));
#557=CARTESIAN_POINT('',(-0.0017,-0.00101644729326827,-0.000139953174880458));
#558=CARTESIAN_POINT('',(-0.0017,-0.00116133616721163,-0.000178776031645836));
#559=CARTESIAN_POINT('',(-0.0017,0.00129744476126232,-0.00935507138139198));
#560=CARTESIAN_POINT('',(-0.0017,0.000141407820900367,-0.00504068278453469));
#561=CARTESIAN_POINT('',(-0.0017,0.000286296694843728,-0.00500185992776932));
#562=CARTESIAN_POINT('',(-0.0017,0.000286296694843727,-0.00500185992776932));
#563=CARTESIAN_POINT('',(-0.0017,-0.00101644729326827,-0.000139953174880458));
#564=CARTESIAN_POINT('',(-0.0017,0.00144233363520568,-0.0093162485246266));
#565=CARTESIAN_POINT('',(-0.0017,0.00144233363520569,-0.00931624852462661));
#566=CARTESIAN_POINT('',(0.,0.00116803523871106,-0.00887210846824745));
#567=CARTESIAN_POINT('',(0.0127279220613579,3.34953574971861E-6,-0.00452544224994664));
#568=CARTESIAN_POINT('',(0.0017,0.00108992524666565,-0.00858059800935517));
#569=CARTESIAN_POINT('',(0.000939984705678592,0.000141407820900368,-0.0050406827845347));
#570=CARTESIAN_POINT('',(0.,0.000141407820900368,-0.0050406827845347));
#571=CARTESIAN_POINT('',(-0.0009,0.00129744476126233,-0.00935507138139198));
#572=CARTESIAN_POINT('',(-0.0009,0.00150449999734434,-0.0101278120424232));
#573=CARTESIAN_POINT('',(-0.0017,0.00150449999734434,-0.0101278120424232));
#574=CARTESIAN_POINT('',(-0.0007,0.00150449999734434,-0.0101278120424232));
#575=CARTESIAN_POINT('',(-0.0007,0.00116803523871106,-0.00887210846824745));
#576=CARTESIAN_POINT('',(-0.0007,0.00116803523871106,-0.00887210846824745));
#577=CARTESIAN_POINT('',(0.,0.00116803523871106,-0.00887210846824745));
#578=CARTESIAN_POINT('',(0.0007,0.00116803523871106,-0.00887210846824745));
#579=CARTESIAN_POINT('',(0.0007,0.00116803523871106,-0.00887210846824745));
#580=CARTESIAN_POINT('',(0.0007,0.00150449999734434,-0.0101278120424232));
#581=CARTESIAN_POINT('',(0.0007,0.00150449999734434,-0.0101278120424232));
#582=CARTESIAN_POINT('',(0.0009,0.00150449999734434,-0.0101278120424232));
#583=CARTESIAN_POINT('',(0.0009,0.00129744476126233,-0.00935507138139198));
#584=CARTESIAN_POINT('',(0.0017,0.00129744476126232,-0.00935507138139198));
#585=CARTESIAN_POINT('',(0.0017,-0.00116133616721163,-0.000178776031645836));
#586=CARTESIAN_POINT('',(0.0017,-0.00101644729326827,-0.000139953174880458));
#587=CARTESIAN_POINT('',(0.0017,0.00123481412060901,-0.0085417751525898));
#588=CARTESIAN_POINT('',(0.0017,0.00123481412060901,-0.0085417751525898));
#589=CARTESIAN_POINT('',(0.0017,0.00144233363520569,-0.00931624852462661));
#590=CARTESIAN_POINT('',(0.0017,0.00144233363520568,-0.0093162485246266));
#591=CARTESIAN_POINT('',(0.0017,-0.00101644729326827,-0.000139953174880458));
#592=CARTESIAN_POINT('',(0.,0.00131292411265442,-0.00883328561148207));
#593=CARTESIAN_POINT('',(0.,0.000286296694843728,-0.00500185992776932));
#594=CARTESIAN_POINT('',(0.000939984705678592,0.000286296694843728,-0.00500185992776932));
#595=CARTESIAN_POINT('',(0.0127279220613579,0.000148238409693079,-0.00448661939318126));
#596=CARTESIAN_POINT('',(0.0009,0.00144233363520569,-0.00931624852462661));
#597=CARTESIAN_POINT('',(0.0009,0.0016493888712877,-0.0100889891856579));
#598=CARTESIAN_POINT('',(0.0007,0.0016493888712877,-0.0100889891856579));
#599=CARTESIAN_POINT('',(0.0007,0.0016493888712877,-0.0100889891856579));
#600=CARTESIAN_POINT('',(0.0007,0.00131292411265442,-0.00883328561148207));
#601=CARTESIAN_POINT('',(0.0007,0.00131292411265442,-0.00883328561148207));
#602=CARTESIAN_POINT('',(0.,0.00131292411265442,-0.00883328561148207));
#603=CARTESIAN_POINT('',(-0.0007,0.00131292411265442,-0.00883328561148207));
#604=CARTESIAN_POINT('',(-0.0007,0.00131292411265442,-0.00883328561148207));
#605=CARTESIAN_POINT('',(-0.0007,0.0016493888712877,-0.0100889891856579));
#606=CARTESIAN_POINT('',(-0.0017,0.0016493888712877,-0.0100889891856579));
#607=CARTESIAN_POINT('',(-0.0009,0.0016493888712877,-0.0100889891856579));
#608=CARTESIAN_POINT('',(-0.0009,0.00144233363520569,-0.00931624852462661));
#609=CARTESIAN_POINT('',(0.,0.00131292411265442,-0.00883328561148207));
#610=CARTESIAN_POINT('',(-0.0007,0.00131292411265442,-0.00883328561148207));
#611=CARTESIAN_POINT('',(0.0007,0.00131292411265442,-0.00883328561148207));
#612=CARTESIAN_POINT('',(-0.0007,0.00131292411265442,-0.00883328561148207));
#613=CARTESIAN_POINT('',(-0.0007,0.0016493888712877,-0.0100889891856579));
#614=CARTESIAN_POINT('',(-0.0017,0.0016493888712877,-0.0100889891856579));
#615=CARTESIAN_POINT('',(-0.0009,0.0016493888712877,-0.0100889891856579));
#616=CARTESIAN_POINT('',(0.0007,0.0016493888712877,-0.0100889891856579));
#617=CARTESIAN_POINT('',(0.0009,0.0016493888712877,-0.0100889891856579));
#618=CARTESIAN_POINT('',(0.0007,0.0016493888712877,-0.0100889891856579));
#619=CARTESIAN_POINT('',(0.0007,0.00131292411265442,-0.00883328561148207));
#620=CARTESIAN_POINT('',(-0.0009,0.00144233363520569,-0.00931624852462661));
#621=CARTESIAN_POINT('',(0.0009,0.00144233363520569,-0.00931624852462661));
#622=CARTESIAN_POINT('',(0.0127279220613579,0.000148238409693079,-0.00448661939318126));
#623=CARTESIAN_POINT('',(0.00093998470567859,0.000286296694843728,-0.00500185992776932));
#624=CARTESIAN_POINT('',(0.0017,0.00015,0.));
#625=CARTESIAN_POINT('',(0.0017,0.00015,-0.000301793834431583));
#626=CARTESIAN_POINT('',(0.0017,0.00015,-0.000301793834431583));
#627=CARTESIAN_POINT('',(0.0017,0.,-0.000301793834431583));
#628=CARTESIAN_POINT('',(0.0017,0.00015,0.));
#629=CARTESIAN_POINT('',(0.0017,0.00015,1.04094977927525E-19));
#630=CARTESIAN_POINT('',(0.0017,0.00015,1.04094977927525E-19));
#631=CARTESIAN_POINT('',(0.0017,0.,1.04094977927525E-19));
#632=CARTESIAN_POINT('',(0.0017,0.,0.));
#633=CARTESIAN_POINT('',(0.,0.00015,0.));
#634=CARTESIAN_POINT('',(0.,0.,0.));
#635=CARTESIAN_POINT('',(-0.0017,0.,0.));
#636=CARTESIAN_POINT('',(0.,0.00015,0.));
#637=CARTESIAN_POINT('',(-0.0017,0.00015,0.));
#638=CARTESIAN_POINT('',(-0.0017,0.00015,0.));
#639=CARTESIAN_POINT('',(0.,0.00015,0.));
#640=CARTESIAN_POINT('',(0.,0.00015,0.));
#641=CARTESIAN_POINT('',(0.,0.00015,0.00105));
#642=CARTESIAN_POINT('',(0.,0.,0.));
#643=CARTESIAN_POINT('',(0.,0.,0.00105));
#644=CARTESIAN_POINT('',(0.,0.00015,-0.009));
#645=CARTESIAN_POINT('',(0.0127279220613579,0.00015,-0.0045));
#646=CARTESIAN_POINT('',(0.00093998470567859,0.00015,-0.00396658374735923));
#647=CARTESIAN_POINT('',(0.,0.00015,-0.00396658374735923));
#648=CARTESIAN_POINT('',(-0.0017,0.00015,-0.00396658374735923));
#649=CARTESIAN_POINT('',(-0.0017,0.00015,0.));
#650=CARTESIAN_POINT('',(-0.0017,0.00015,0.));
#651=CARTESIAN_POINT('',(-0.0017,0.00015,-0.00396658374735923));
#652=CARTESIAN_POINT('',(-0.0017,0.,-0.00396658374735923));
#653=CARTESIAN_POINT('',(-0.0017,0.,0.));
#654=CARTESIAN_POINT('',(0.,0.,-0.009));
#655=CARTESIAN_POINT('',(0.,0.,-0.00396658374735923));
#656=CARTESIAN_POINT('',(0.00093998470567859,0.,-0.00396658374735923));
#657=CARTESIAN_POINT('',(0.0127279220613579,0.,-0.0045));
#658=CARTESIAN_POINT('',(0.0127279220613579,0.00015,-0.0045));
#659=CARTESIAN_POINT('',(0.00093998470567859,0.00015,-0.00396658374735923));
#660=CARTESIAN_POINT('',(0.00093998470567859,0.00415,-0.00396658374735923));
#661=CARTESIAN_POINT('',(0.00093998470567859,0.,-0.00396658374735923));
#662=CARTESIAN_POINT('',(0.00093998470567859,6.65269448245454E-20,-0.00432873956714805));
#663=CARTESIAN_POINT('',(0.00093998470567859,4.76749974443029E-5,-0.00469086712505978));
#664=CARTESIAN_POINT('',(0.00093998470567859,0.000141407820900367,-0.00504068278453469));
#665=CARTESIAN_POINT('',(0.00093998470567859,0.00015,-0.00396658374735923));
#666=CARTESIAN_POINT('',(0.00093998470567859,0.00015,-0.0043156495977581));
#667=CARTESIAN_POINT('',(0.00093998470567859,0.000195951804765593,-0.00466468820779349));
#668=CARTESIAN_POINT('',(0.00093998470567859,0.000286296694843728,-0.00500185992776932));
#669=CARTESIAN_POINT('',(-0.0017,0.00415,-0.00396658374735923));
#670=CARTESIAN_POINT('',(-0.0017,0.00415,-0.00396658374735923));
#671=CARTESIAN_POINT('',(-0.0017,0.00415,-0.00396658374735923));
#672=CARTESIAN_POINT('',(0.00247133428963715,0.00415,-0.00396658374735923));
#673=CARTESIAN_POINT('',(0.00247133428963715,0.00415,-0.00396658374735923));
#674=(
GEOMETRIC_REPRESENTATION_CONTEXT(3)
GLOBAL_UNCERTAINTY_ASSIGNED_CONTEXT((#675))
GLOBAL_UNIT_ASSIGNED_CONTEXT((#678,#677,#676))
REPRESENTATION_CONTEXT('id2','TOP_LEVEL_ASSEMBLY_PART')
);
#675=UNCERTAINTY_MEASURE_WITH_UNIT(LENGTH_MEASURE(2.E-5),#678,
'DISTANCE_ACCURACY_VALUE','Maximum Tolerance applied to model');
#676=(
NAMED_UNIT(*)
SI_UNIT($,.STERADIAN.)
SOLID_ANGLE_UNIT()
);
#677=(
NAMED_UNIT(*)
PLANE_ANGLE_UNIT()
SI_UNIT($,.RADIAN.)
);
#678=(
LENGTH_UNIT()
NAMED_UNIT(*)
SI_UNIT($,.METRE.)
);
#679=PRODUCT_DEFINITION_SHAPE('','',#680);
#680=PRODUCT_DEFINITION('','',#682,#681);
#681=PRODUCT_DEFINITION_CONTEXT('',#688,'design');
#682=PRODUCT_DEFINITION_FORMATION_WITH_SPECIFIED_SOURCE('','',#684,
 .NOT_KNOWN.);
#683=PRODUCT_RELATED_PRODUCT_CATEGORY('','',(#684));
#684=PRODUCT('id2','id2','id2',(#686));
#685=PRODUCT_CATEGORY('','');
#686=PRODUCT_CONTEXT('',#688,'mechanical');
#687=APPLICATION_PROTOCOL_DEFINITION('international standard',
'ap242_managed_model_based_3d_engineering',2020,#688);
#688=APPLICATION_CONTEXT('managed model based 3d engineering');
ENDSEC;
END-ISO-10303-21;
