ISO-10303-21;
HEADER;
/* Generated by software containing ST-Developer
 * from STEP Tools, Inc. (www.steptools.com) 
 */
/* OPTION: using custom renumber hook */

FILE_DESCRIPTION(
/* description */ ('STEP AP242 Edition 2',
'CAx-IF Rec.Pracs.---Representation and Presentation of Product Manufa
cturing Information (PMI)---4.0---2014-10-13',
'CAx-IF Rec.Pracs.---3D Tessellated Geometry---0.4---2014-09-14','2;1',
'CAx-IF Rec.Pracs.---User Defined Attributes---1.5---2016-08-15'),
/* implementation_level */ '2;1');

FILE_NAME(
/* name */ '10039',
/* time_stamp */ '2026-07-13T04:44:56Z',
/* author */ (''),
/* organization */ (''),
/* preprocessor_version */ 'ST-DEVELOPER v20',
/* originating_system */ 'ONSHAPE BY PTC INC, 1.217',
/* authorisation */ '  ');

FILE_SCHEMA (('AP242_MANAGED_MODEL_BASED_3D_ENGINEERING_MIM_LF { 1 0 10303 442 3 1 4 }'));
ENDSEC;

DATA;
#10=SHAPE_REPRESENTATION_RELATIONSHIP('','',#141,#11);
#11=ADVANCED_BREP_SHAPE_REPRESENTATION('',(#139),#250);
#12=TOROIDAL_SURFACE('',#165,0.0006,0.0004);
#13=VERTEX_LOOP('',#62);
#14=SPHERICAL_SURFACE('',#160,0.0025);
#15=PLANE('',#149);
#16=PLANE('',#151);
#17=PLANE('',#152);
#18=PLANE('',#158);
#19=PLANE('',#164);
#20=ORIENTED_EDGE('',*,*,#42,.T.);
#21=ORIENTED_EDGE('',*,*,#43,.F.);
#22=ORIENTED_EDGE('',*,*,#44,.F.);
#23=ORIENTED_EDGE('',*,*,#45,.T.);
#24=ORIENTED_EDGE('',*,*,#46,.F.);
#25=ORIENTED_EDGE('',*,*,#44,.T.);
#26=ORIENTED_EDGE('',*,*,#45,.F.);
#27=ORIENTED_EDGE('',*,*,#43,.T.);
#28=ORIENTED_EDGE('',*,*,#47,.T.);
#29=ORIENTED_EDGE('',*,*,#46,.T.);
#30=ORIENTED_EDGE('',*,*,#47,.F.);
#31=ORIENTED_EDGE('',*,*,#48,.F.);
#32=ORIENTED_EDGE('',*,*,#49,.T.);
#33=ORIENTED_EDGE('',*,*,#50,.T.);
#34=ORIENTED_EDGE('',*,*,#48,.T.);
#35=ORIENTED_EDGE('',*,*,#51,.T.);
#36=ORIENTED_EDGE('',*,*,#51,.F.);
#37=ORIENTED_EDGE('',*,*,#52,.F.);
#38=ORIENTED_EDGE('',*,*,#52,.T.);
#39=ORIENTED_EDGE('',*,*,#49,.F.);
#40=ORIENTED_EDGE('',*,*,#50,.F.);
#41=ORIENTED_EDGE('',*,*,#42,.F.);
#42=EDGE_CURVE('',#53,#53,#65,.T.);
#43=EDGE_CURVE('',#54,#54,#66,.T.);
#44=EDGE_CURVE('',#55,#55,#67,.T.);
#45=EDGE_CURVE('',#56,#56,#68,.T.);
#46=EDGE_CURVE('',#57,#57,#69,.T.);
#47=EDGE_CURVE('',#58,#58,#70,.T.);
#48=EDGE_CURVE('',#59,#59,#71,.T.);
#49=EDGE_CURVE('',#60,#60,#72,.T.);
#50=EDGE_CURVE('',#61,#61,#73,.F.);
#51=EDGE_CURVE('',#63,#63,#74,.T.);
#52=EDGE_CURVE('',#64,#64,#75,.T.);
#53=VERTEX_POINT('',#217);
#54=VERTEX_POINT('',#219);
#55=VERTEX_POINT('',#222);
#56=VERTEX_POINT('',#224);
#57=VERTEX_POINT('',#227);
#58=VERTEX_POINT('',#231);
#59=VERTEX_POINT('',#235);
#60=VERTEX_POINT('',#237);
#61=VERTEX_POINT('',#240);
#62=VERTEX_POINT('',#242);
#63=VERTEX_POINT('',#244);
#64=VERTEX_POINT('',#247);
#65=CIRCLE('',#144,0.001);
#66=CIRCLE('',#145,0.001);
#67=CIRCLE('',#147,0.0006);
#68=CIRCLE('',#148,0.0006);
#69=CIRCLE('',#150,0.001);
#70=CIRCLE('',#153,0.001);
#71=CIRCLE('',#156,0.0005);
#72=CIRCLE('',#157,0.0005);
#73=CIRCLE('',#159,0.0006);
#74=CIRCLE('',#161,0.0015);
#75=CIRCLE('',#163,0.0015);
#76=EDGE_LOOP('',(#20));
#77=EDGE_LOOP('',(#21));
#78=EDGE_LOOP('',(#22));
#79=EDGE_LOOP('',(#23));
#80=EDGE_LOOP('',(#24));
#81=EDGE_LOOP('',(#25));
#82=EDGE_LOOP('',(#26));
#83=EDGE_LOOP('',(#27));
#84=EDGE_LOOP('',(#28));
#85=EDGE_LOOP('',(#29));
#86=EDGE_LOOP('',(#30));
#87=EDGE_LOOP('',(#31));
#88=EDGE_LOOP('',(#32));
#89=EDGE_LOOP('',(#33));
#90=EDGE_LOOP('',(#34));
#91=EDGE_LOOP('',(#35));
#92=EDGE_LOOP('',(#36));
#93=EDGE_LOOP('',(#37));
#94=EDGE_LOOP('',(#38));
#95=EDGE_LOOP('',(#39));
#96=EDGE_LOOP('',(#40));
#97=EDGE_LOOP('',(#41));
#98=FACE_BOUND('',#76,.T.);
#99=FACE_BOUND('',#77,.T.);
#100=FACE_BOUND('',#78,.T.);
#101=FACE_BOUND('',#79,.T.);
#102=FACE_BOUND('',#80,.T.);
#103=FACE_BOUND('',#81,.T.);
#104=FACE_BOUND('',#82,.T.);
#105=FACE_BOUND('',#83,.T.);
#106=FACE_BOUND('',#84,.T.);
#107=FACE_BOUND('',#85,.T.);
#108=FACE_BOUND('',#86,.T.);
#109=FACE_BOUND('',#87,.T.);
#110=FACE_BOUND('',#88,.T.);
#111=FACE_BOUND('',#89,.T.);
#112=FACE_BOUND('',#90,.T.);
#113=FACE_BOUND('',#13,.T.);
#114=FACE_BOUND('',#91,.T.);
#115=FACE_BOUND('',#92,.T.);
#116=FACE_BOUND('',#93,.T.);
#117=FACE_BOUND('',#94,.T.);
#118=FACE_BOUND('',#95,.T.);
#119=FACE_BOUND('',#96,.T.);
#120=FACE_BOUND('',#97,.T.);
#121=CYLINDRICAL_SURFACE('',#143,0.001);
#122=CYLINDRICAL_SURFACE('',#146,0.0006);
#123=CYLINDRICAL_SURFACE('',#154,0.001);
#124=CYLINDRICAL_SURFACE('',#155,0.0005);
#125=CYLINDRICAL_SURFACE('',#162,0.0015);
#126=ADVANCED_FACE('',(#98,#99),#121,.T.);
#127=ADVANCED_FACE('',(#100,#101),#122,.T.);
#128=ADVANCED_FACE('',(#102,#103),#15,.F.);
#129=ADVANCED_FACE('',(#104,#105),#16,.F.);
#130=ADVANCED_FACE('',(#106),#17,.F.);
#131=ADVANCED_FACE('',(#107,#108),#123,.T.);
#132=ADVANCED_FACE('',(#109,#110),#124,.T.);
#133=ADVANCED_FACE('',(#111,#112),#18,.F.);
#134=ADVANCED_FACE('',(#113,#114),#14,.T.);
#135=ADVANCED_FACE('',(#115,#116),#125,.T.);
#136=ADVANCED_FACE('',(#117,#118),#19,.T.);
#137=ADVANCED_FACE('',(#119,#120),#12,.T.);
#138=CLOSED_SHELL('',(#126,#127,#128,#129,#130,#131,#132,#133,#134,#135,
#136,#137));
#139=MANIFOLD_SOLID_BREP('',#138);
#140=SHAPE_DEFINITION_REPRESENTATION(#255,#141);
#141=SHAPE_REPRESENTATION('id2',(#142),#250);
#142=AXIS2_PLACEMENT_3D('',#214,#166,#167);
#143=AXIS2_PLACEMENT_3D('',#215,#168,#169);
#144=AXIS2_PLACEMENT_3D('',#216,#170,#171);
#145=AXIS2_PLACEMENT_3D('',#218,#172,#173);
#146=AXIS2_PLACEMENT_3D('',#220,#174,#175);
#147=AXIS2_PLACEMENT_3D('',#221,#176,#177);
#148=AXIS2_PLACEMENT_3D('',#223,#178,#179);
#149=AXIS2_PLACEMENT_3D('',#225,#180,#181);
#150=AXIS2_PLACEMENT_3D('',#226,#182,#183);
#151=AXIS2_PLACEMENT_3D('',#228,#184,#185);
#152=AXIS2_PLACEMENT_3D('',#229,#186,#187);
#153=AXIS2_PLACEMENT_3D('',#230,#188,#189);
#154=AXIS2_PLACEMENT_3D('',#232,#190,#191);
#155=AXIS2_PLACEMENT_3D('',#233,#192,#193);
#156=AXIS2_PLACEMENT_3D('',#234,#194,#195);
#157=AXIS2_PLACEMENT_3D('',#236,#196,#197);
#158=AXIS2_PLACEMENT_3D('',#238,#198,#199);
#159=AXIS2_PLACEMENT_3D('',#239,#200,#201);
#160=AXIS2_PLACEMENT_3D('',#241,#202,#203);
#161=AXIS2_PLACEMENT_3D('',#243,#204,#205);
#162=AXIS2_PLACEMENT_3D('',#245,#206,#207);
#163=AXIS2_PLACEMENT_3D('',#246,#208,#209);
#164=AXIS2_PLACEMENT_3D('',#248,#210,#211);
#165=AXIS2_PLACEMENT_3D('',#249,#212,#213);
#166=DIRECTION('',(0.,0.,1.));
#167=DIRECTION('',(1.,0.,0.));
#168=DIRECTION('',(0.,-1.,0.));
#169=DIRECTION('',(0.,0.,-1.));
#170=DIRECTION('',(-4.93809193204578E-17,-1.,0.));
#171=DIRECTION('',(1.,-4.93809193204578E-17,0.));
#172=DIRECTION('',(-4.93809193204578E-17,-1.,0.));
#173=DIRECTION('',(1.,-4.93809193204578E-17,0.));
#174=DIRECTION('',(-4.93809193204578E-17,-1.,0.));
#175=DIRECTION('',(1.,-4.93809193204578E-17,0.));
#176=DIRECTION('',(-4.93809193204578E-17,-1.,0.));
#177=DIRECTION('',(1.,-4.93809193204578E-17,0.));
#178=DIRECTION('',(-4.93809193204578E-17,-1.,0.));
#179=DIRECTION('',(1.,-4.93809193204578E-17,0.));
#180=DIRECTION('',(-4.93809193204578E-17,-1.,0.));
#181=DIRECTION('',(1.,-4.93809193204578E-17,0.));
#182=DIRECTION('',(-4.93809193204578E-17,-1.,0.));
#183=DIRECTION('',(1.,-4.93809193204578E-17,0.));
#184=DIRECTION('',(4.93809193204578E-17,1.,0.));
#185=DIRECTION('',(-1.,4.93809193204578E-17,0.));
#186=DIRECTION('',(0.,1.,0.));
#187=DIRECTION('',(0.,0.,1.));
#188=DIRECTION('',(0.,-1.,0.));
#189=DIRECTION('',(0.,0.,-1.));
#190=DIRECTION('',(0.,-1.,0.));
#191=DIRECTION('',(0.,0.,-1.));
#192=DIRECTION('',(-4.93809193204578E-17,-1.,0.));
#193=DIRECTION('',(1.,-4.93809193204578E-17,0.));
#194=DIRECTION('',(-4.93809193204578E-17,-1.,0.));
#195=DIRECTION('',(1.,-4.93809193204578E-17,0.));
#196=DIRECTION('',(-4.93809193204578E-17,-1.,0.));
#197=DIRECTION('',(1.,-4.93809193204578E-17,0.));
#198=DIRECTION('',(-4.93809193204578E-17,-1.,0.));
#199=DIRECTION('',(1.,-4.93809193204578E-17,0.));
#200=DIRECTION('',(-4.93809193204578E-17,-1.,0.));
#201=DIRECTION('',(1.,-4.93809193204578E-17,0.));
#202=DIRECTION('',(6.99485272571293E-17,1.,0.));
#203=DIRECTION('',(-1.,6.99485272571293E-17,0.));
#204=DIRECTION('',(6.99485272571293E-17,1.,0.));
#205=DIRECTION('',(-1.,6.99485272571293E-17,0.));
#206=DIRECTION('',(0.,-1.,0.));
#207=DIRECTION('',(0.,0.,-1.));
#208=DIRECTION('',(0.,-1.,0.));
#209=DIRECTION('',(0.,0.,-1.));
#210=DIRECTION('',(0.,-1.,0.));
#211=DIRECTION('',(0.,0.,-1.));
#212=DIRECTION('',(-4.93809193204578E-17,-1.,0.));
#213=DIRECTION('',(1.,-4.93809193204578E-17,0.));
#214=CARTESIAN_POINT('',(0.,0.,0.));
#215=CARTESIAN_POINT('',(0.,0.0054,0.));
#216=CARTESIAN_POINT('',(0.,0.0033,0.));
#217=CARTESIAN_POINT('',(0.001,0.0033,0.));
#218=CARTESIAN_POINT('',(4.4442827388412E-20,0.0009,0.));
#219=CARTESIAN_POINT('',(0.001,0.0009,0.));
#220=CARTESIAN_POINT('',(0.,0.,0.));
#221=CARTESIAN_POINT('',(2.46904596602289E-20,0.0005,0.));
#222=CARTESIAN_POINT('',(0.0006,0.0005,0.));
#223=CARTESIAN_POINT('',(4.4442827388412E-20,0.0009,0.));
#224=CARTESIAN_POINT('',(0.0006,0.0009,0.));
#225=CARTESIAN_POINT('',(0.0006,0.0005,0.));
#226=CARTESIAN_POINT('',(2.46904596602289E-20,0.0005,0.));
#227=CARTESIAN_POINT('',(0.001,0.0005,0.));
#228=CARTESIAN_POINT('',(0.0006,0.0009,0.));
#229=CARTESIAN_POINT('',(0.,0.,0.));
#230=CARTESIAN_POINT('',(0.,0.,0.));
#231=CARTESIAN_POINT('',(0.,0.,-0.001));
#232=CARTESIAN_POINT('',(0.,0.0054,0.));
#233=CARTESIAN_POINT('',(0.,0.,0.));
#234=CARTESIAN_POINT('',(1.82709401485694E-19,0.0037,0.));
#235=CARTESIAN_POINT('',(0.0005,0.0037,0.));
#236=CARTESIAN_POINT('',(2.66656964330472E-19,0.0054,0.));
#237=CARTESIAN_POINT('',(0.0005,0.0054,0.));
#238=CARTESIAN_POINT('',(0.0005,0.0037,0.));
#239=CARTESIAN_POINT('',(1.97523677281831E-20,0.0037,0.));
#240=CARTESIAN_POINT('',(0.0006,0.0037,0.));
#241=CARTESIAN_POINT('',(3.06161699786838E-19,0.0037,0.));
#242=CARTESIAN_POINT('',(3.06161699786838E-19,0.0062,0.));
#243=CARTESIAN_POINT('',(3.98706605365637E-19,0.0057,0.));
#244=CARTESIAN_POINT('',(-0.0015,0.0057,0.));
#245=CARTESIAN_POINT('',(0.,0.0062,0.));
#246=CARTESIAN_POINT('',(0.,0.0054,0.));
#247=CARTESIAN_POINT('',(0.,0.0054,-0.0015));
#248=CARTESIAN_POINT('',(0.,0.0054,0.));
#249=CARTESIAN_POINT('',(0.,0.0033,0.));
#250=(
GEOMETRIC_REPRESENTATION_CONTEXT(3)
GLOBAL_UNCERTAINTY_ASSIGNED_CONTEXT((#251))
GLOBAL_UNIT_ASSIGNED_CONTEXT((#254,#253,#252))
REPRESENTATION_CONTEXT('id2','TOP_LEVEL_ASSEMBLY_PART')
);
#251=UNCERTAINTY_MEASURE_WITH_UNIT(LENGTH_MEASURE(1.E-8),#254,
'DISTANCE_ACCURACY_VALUE','Maximum Tolerance applied to model');
#252=(
NAMED_UNIT(*)
SI_UNIT($,.STERADIAN.)
SOLID_ANGLE_UNIT()
);
#253=(
NAMED_UNIT(*)
PLANE_ANGLE_UNIT()
SI_UNIT($,.RADIAN.)
);
#254=(
LENGTH_UNIT()
NAMED_UNIT(*)
SI_UNIT($,.METRE.)
);
#255=PRODUCT_DEFINITION_SHAPE('','',#256);
#256=PRODUCT_DEFINITION('','',#258,#257);
#257=PRODUCT_DEFINITION_CONTEXT('',#264,'design');
#258=PRODUCT_DEFINITION_FORMATION_WITH_SPECIFIED_SOURCE('','',#260,
 .NOT_KNOWN.);
#259=PRODUCT_RELATED_PRODUCT_CATEGORY('','',(#260));
#260=PRODUCT('id2','id2','id2',(#262));
#261=PRODUCT_CATEGORY('','');
#262=PRODUCT_CONTEXT('',#264,'mechanical');
#263=APPLICATION_PROTOCOL_DEFINITION('international standard',
'ap242_managed_model_based_3d_engineering',2020,#264);
#264=APPLICATION_CONTEXT('managed model based 3d engineering');
ENDSEC;
END-ISO-10303-21;
