ISO-10303-21;
HEADER;
/* Generated by software containing ST-Developer
 * from STEP Tools, Inc. (www.steptools.com) 
 */
/* OPTION: using custom renumber hook */

FILE_DESCRIPTION(
/* description */ ('STEP AP242 Edition 2',
'CAx-IF Rec.Pracs.---Representation and Presentation of Product Manufa
cturing Information (PMI)---4.0---2014-10-13',
'CAx-IF Rec.Pracs.---3D Tessellated Geometry---0.4---2014-09-14','2;1',
'CAx-IF Rec.Pracs.---User Defined Attributes---1.5---2016-08-15'),
/* implementation_level */ '2;1');

FILE_NAME(
/* name */ '10036',
/* time_stamp */ '2026-07-13T04:44:45Z',
/* author */ (''),
/* organization */ (''),
/* preprocessor_version */ 'ST-DEVELOPER v20',
/* originating_system */ 'ONSHAPE BY PTC INC, 1.217',
/* authorisation */ '  ');

FILE_SCHEMA (('AP242_MANAGED_MODEL_BASED_3D_ENGINEERING_MIM_LF { 1 0 10303 442 3 1 4 }'));
ENDSEC;

DATA;
#10=SHAPE_REPRESENTATION_RELATIONSHIP('','',#223,#11);
#11=ADVANCED_BREP_SHAPE_REPRESENTATION('',(#221),#376);
#12=PLANE('',#228);
#13=PLANE('',#232);
#14=PLANE('',#236);
#15=PLANE('',#240);
#16=PLANE('',#245);
#17=PLANE('',#246);
#18=CIRCLE('',#226,0.0055);
#19=CIRCLE('',#227,0.0055);
#20=CIRCLE('',#230,0.005);
#21=CIRCLE('',#231,0.005);
#22=CIRCLE('',#234,0.0055);
#23=CIRCLE('',#235,0.0055);
#24=CIRCLE('',#237,0.00035);
#25=CIRCLE('',#238,0.00035);
#26=CIRCLE('',#239,0.0038);
#27=CIRCLE('',#241,0.00035);
#28=CIRCLE('',#242,0.00035);
#29=CIRCLE('',#243,0.0038);
#30=ORIENTED_EDGE('',*,*,#86,.F.);
#31=ORIENTED_EDGE('',*,*,#87,.T.);
#32=ORIENTED_EDGE('',*,*,#88,.T.);
#33=ORIENTED_EDGE('',*,*,#89,.F.);
#34=ORIENTED_EDGE('',*,*,#90,.T.);
#35=ORIENTED_EDGE('',*,*,#91,.F.);
#36=ORIENTED_EDGE('',*,*,#92,.F.);
#37=ORIENTED_EDGE('',*,*,#93,.T.);
#38=ORIENTED_EDGE('',*,*,#94,.F.);
#39=ORIENTED_EDGE('',*,*,#95,.F.);
#40=ORIENTED_EDGE('',*,*,#96,.T.);
#41=ORIENTED_EDGE('',*,*,#91,.T.);
#42=ORIENTED_EDGE('',*,*,#97,.F.);
#43=ORIENTED_EDGE('',*,*,#88,.F.);
#44=ORIENTED_EDGE('',*,*,#98,.T.);
#45=ORIENTED_EDGE('',*,*,#95,.T.);
#46=ORIENTED_EDGE('',*,*,#99,.T.);
#47=ORIENTED_EDGE('',*,*,#100,.F.);
#48=ORIENTED_EDGE('',*,*,#93,.F.);
#49=ORIENTED_EDGE('',*,*,#101,.T.);
#50=ORIENTED_EDGE('',*,*,#102,.T.);
#51=ORIENTED_EDGE('',*,*,#103,.T.);
#52=ORIENTED_EDGE('',*,*,#87,.F.);
#53=ORIENTED_EDGE('',*,*,#104,.T.);
#54=ORIENTED_EDGE('',*,*,#105,.T.);
#55=ORIENTED_EDGE('',*,*,#106,.T.);
#56=ORIENTED_EDGE('',*,*,#101,.F.);
#57=ORIENTED_EDGE('',*,*,#92,.T.);
#58=ORIENTED_EDGE('',*,*,#96,.F.);
#59=ORIENTED_EDGE('',*,*,#98,.F.);
#60=ORIENTED_EDGE('',*,*,#107,.F.);
#61=ORIENTED_EDGE('',*,*,#108,.F.);
#62=ORIENTED_EDGE('',*,*,#109,.F.);
#63=ORIENTED_EDGE('',*,*,#89,.T.);
#64=ORIENTED_EDGE('',*,*,#97,.T.);
#65=ORIENTED_EDGE('',*,*,#94,.T.);
#66=ORIENTED_EDGE('',*,*,#90,.F.);
#67=ORIENTED_EDGE('',*,*,#100,.T.);
#68=ORIENTED_EDGE('',*,*,#110,.F.);
#69=ORIENTED_EDGE('',*,*,#111,.F.);
#70=ORIENTED_EDGE('',*,*,#105,.F.);
#71=ORIENTED_EDGE('',*,*,#112,.T.);
#72=ORIENTED_EDGE('',*,*,#111,.T.);
#73=ORIENTED_EDGE('',*,*,#113,.F.);
#74=ORIENTED_EDGE('',*,*,#110,.T.);
#75=ORIENTED_EDGE('',*,*,#99,.F.);
#76=ORIENTED_EDGE('',*,*,#106,.F.);
#77=ORIENTED_EDGE('',*,*,#113,.T.);
#78=ORIENTED_EDGE('',*,*,#109,.T.);
#79=ORIENTED_EDGE('',*,*,#112,.F.);
#80=ORIENTED_EDGE('',*,*,#104,.F.);
#81=ORIENTED_EDGE('',*,*,#86,.T.);
#82=ORIENTED_EDGE('',*,*,#103,.F.);
#83=ORIENTED_EDGE('',*,*,#108,.T.);
#84=ORIENTED_EDGE('',*,*,#102,.F.);
#85=ORIENTED_EDGE('',*,*,#107,.T.);
#86=EDGE_CURVE('',#114,#115,#134,.T.);
#87=EDGE_CURVE('',#114,#116,#18,.T.);
#88=EDGE_CURVE('',#116,#117,#135,.T.);
#89=EDGE_CURVE('',#115,#117,#19,.T.);
#90=EDGE_CURVE('',#118,#119,#136,.T.);
#91=EDGE_CURVE('',#120,#119,#137,.T.);
#92=EDGE_CURVE('',#121,#120,#138,.T.);
#93=EDGE_CURVE('',#121,#118,#139,.T.);
#94=EDGE_CURVE('',#122,#119,#20,.T.);
#95=EDGE_CURVE('',#123,#122,#140,.T.);
#96=EDGE_CURVE('',#123,#120,#21,.T.);
#97=EDGE_CURVE('',#117,#122,#141,.T.);
#98=EDGE_CURVE('',#116,#123,#142,.T.);
#99=EDGE_CURVE('',#124,#125,#143,.T.);
#100=EDGE_CURVE('',#118,#125,#22,.T.);
#101=EDGE_CURVE('',#121,#124,#23,.T.);
#102=EDGE_CURVE('',#126,#126,#24,.T.);
#103=EDGE_CURVE('',#127,#127,#25,.T.);
#104=EDGE_CURVE('',#114,#128,#144,.T.);
#105=EDGE_CURVE('',#128,#129,#26,.T.);
#106=EDGE_CURVE('',#129,#124,#145,.T.);
#107=EDGE_CURVE('',#130,#130,#27,.T.);
#108=EDGE_CURVE('',#131,#131,#28,.T.);
#109=EDGE_CURVE('',#115,#132,#146,.T.);
#110=EDGE_CURVE('',#133,#125,#147,.T.);
#111=EDGE_CURVE('',#132,#133,#29,.T.);
#112=EDGE_CURVE('',#128,#132,#148,.T.);
#113=EDGE_CURVE('',#129,#133,#149,.T.);
#114=VERTEX_POINT('',#318);
#115=VERTEX_POINT('',#319);
#116=VERTEX_POINT('',#321);
#117=VERTEX_POINT('',#323);
#118=VERTEX_POINT('',#327);
#119=VERTEX_POINT('',#328);
#120=VERTEX_POINT('',#330);
#121=VERTEX_POINT('',#332);
#122=VERTEX_POINT('',#336);
#123=VERTEX_POINT('',#338);
#124=VERTEX_POINT('',#345);
#125=VERTEX_POINT('',#346);
#126=VERTEX_POINT('',#351);
#127=VERTEX_POINT('',#353);
#128=VERTEX_POINT('',#355);
#129=VERTEX_POINT('',#357);
#130=VERTEX_POINT('',#361);
#131=VERTEX_POINT('',#363);
#132=VERTEX_POINT('',#365);
#133=VERTEX_POINT('',#367);
#134=LINE('',#317,#150);
#135=LINE('',#322,#151);
#136=LINE('',#326,#152);
#137=LINE('',#329,#153);
#138=LINE('',#331,#154);
#139=LINE('',#333,#155);
#140=LINE('',#337,#156);
#141=LINE('',#341,#157);
#142=LINE('',#342,#158);
#143=LINE('',#344,#159);
#144=LINE('',#354,#160);
#145=LINE('',#358,#161);
#146=LINE('',#364,#162);
#147=LINE('',#366,#163);
#148=LINE('',#370,#164);
#149=LINE('',#371,#165);
#150=VECTOR('',#253,1.);
#151=VECTOR('',#256,1.);
#152=VECTOR('',#261,1.);
#153=VECTOR('',#262,1.);
#154=VECTOR('',#263,1.);
#155=VECTOR('',#264,1.);
#156=VECTOR('',#269,1.);
#157=VECTOR('',#274,1.);
#158=VECTOR('',#275,1.);
#159=VECTOR('',#278,1.);
#160=VECTOR('',#289,1.);
#161=VECTOR('',#292,1.);
#162=VECTOR('',#299,1.);
#163=VECTOR('',#300,1.);
#164=VECTOR('',#305,1.);
#165=VECTOR('',#306,1.);
#166=EDGE_LOOP('',(#30,#31,#32,#33));
#167=EDGE_LOOP('',(#34,#35,#36,#37));
#168=EDGE_LOOP('',(#38,#39,#40,#41));
#169=EDGE_LOOP('',(#42,#43,#44,#45));
#170=EDGE_LOOP('',(#46,#47,#48,#49));
#171=EDGE_LOOP('',(#50));
#172=EDGE_LOOP('',(#51));
#173=EDGE_LOOP('',(#52,#53,#54,#55,#56,#57,#58,#59));
#174=EDGE_LOOP('',(#60));
#175=EDGE_LOOP('',(#61));
#176=EDGE_LOOP('',(#62,#63,#64,#65,#66,#67,#68,#69));
#177=EDGE_LOOP('',(#70,#71,#72,#73));
#178=EDGE_LOOP('',(#74,#75,#76,#77));
#179=EDGE_LOOP('',(#78,#79,#80,#81));
#180=EDGE_LOOP('',(#82));
#181=EDGE_LOOP('',(#83));
#182=EDGE_LOOP('',(#84));
#183=EDGE_LOOP('',(#85));
#184=FACE_BOUND('',#166,.T.);
#185=FACE_BOUND('',#167,.T.);
#186=FACE_BOUND('',#168,.T.);
#187=FACE_BOUND('',#169,.T.);
#188=FACE_BOUND('',#170,.T.);
#189=FACE_BOUND('',#171,.T.);
#190=FACE_BOUND('',#172,.T.);
#191=FACE_BOUND('',#173,.T.);
#192=FACE_BOUND('',#174,.T.);
#193=FACE_BOUND('',#175,.T.);
#194=FACE_BOUND('',#176,.T.);
#195=FACE_BOUND('',#177,.T.);
#196=FACE_BOUND('',#178,.T.);
#197=FACE_BOUND('',#179,.T.);
#198=FACE_BOUND('',#180,.T.);
#199=FACE_BOUND('',#181,.T.);
#200=FACE_BOUND('',#182,.T.);
#201=FACE_BOUND('',#183,.T.);
#202=CYLINDRICAL_SURFACE('',#225,0.0055);
#203=CYLINDRICAL_SURFACE('',#229,0.005);
#204=CYLINDRICAL_SURFACE('',#233,0.0055);
#205=CYLINDRICAL_SURFACE('',#244,0.0038);
#206=CYLINDRICAL_SURFACE('',#247,0.00035);
#207=CYLINDRICAL_SURFACE('',#248,0.00035);
#208=ADVANCED_FACE('',(#184),#202,.T.);
#209=ADVANCED_FACE('',(#185),#12,.F.);
#210=ADVANCED_FACE('',(#186),#203,.T.);
#211=ADVANCED_FACE('',(#187),#13,.T.);
#212=ADVANCED_FACE('',(#188),#204,.T.);
#213=ADVANCED_FACE('',(#189,#190,#191),#14,.F.);
#214=ADVANCED_FACE('',(#192,#193,#194),#15,.T.);
#215=ADVANCED_FACE('',(#195),#205,.F.);
#216=ADVANCED_FACE('',(#196),#16,.F.);
#217=ADVANCED_FACE('',(#197),#17,.F.);
#218=ADVANCED_FACE('',(#198,#199),#206,.F.);
#219=ADVANCED_FACE('',(#200,#201),#207,.F.);
#220=CLOSED_SHELL('',(#208,#209,#210,#211,#212,#213,#214,#215,#216,#217,
#218,#219));
#221=MANIFOLD_SOLID_BREP('',#220);
#222=SHAPE_DEFINITION_REPRESENTATION(#381,#223);
#223=SHAPE_REPRESENTATION('id2',(#224),#376);
#224=AXIS2_PLACEMENT_3D('',#315,#249,#250);
#225=AXIS2_PLACEMENT_3D('',#316,#251,#252);
#226=AXIS2_PLACEMENT_3D('',#320,#254,#255);
#227=AXIS2_PLACEMENT_3D('',#324,#257,#258);
#228=AXIS2_PLACEMENT_3D('',#325,#259,#260);
#229=AXIS2_PLACEMENT_3D('',#334,#265,#266);
#230=AXIS2_PLACEMENT_3D('',#335,#267,#268);
#231=AXIS2_PLACEMENT_3D('',#339,#270,#271);
#232=AXIS2_PLACEMENT_3D('',#340,#272,#273);
#233=AXIS2_PLACEMENT_3D('',#343,#276,#277);
#234=AXIS2_PLACEMENT_3D('',#347,#279,#280);
#235=AXIS2_PLACEMENT_3D('',#348,#281,#282);
#236=AXIS2_PLACEMENT_3D('',#349,#283,#284);
#237=AXIS2_PLACEMENT_3D('',#350,#285,#286);
#238=AXIS2_PLACEMENT_3D('',#352,#287,#288);
#239=AXIS2_PLACEMENT_3D('',#356,#290,#291);
#240=AXIS2_PLACEMENT_3D('',#359,#293,#294);
#241=AXIS2_PLACEMENT_3D('',#360,#295,#296);
#242=AXIS2_PLACEMENT_3D('',#362,#297,#298);
#243=AXIS2_PLACEMENT_3D('',#368,#301,#302);
#244=AXIS2_PLACEMENT_3D('',#369,#303,#304);
#245=AXIS2_PLACEMENT_3D('',#372,#307,#308);
#246=AXIS2_PLACEMENT_3D('',#373,#309,#310);
#247=AXIS2_PLACEMENT_3D('',#374,#311,#312);
#248=AXIS2_PLACEMENT_3D('',#375,#313,#314);
#249=DIRECTION('',(0.,0.,1.));
#250=DIRECTION('',(1.,0.,0.));
#251=DIRECTION('',(0.,0.,1.));
#252=DIRECTION('',(1.,0.,0.));
#253=DIRECTION('',(0.,0.,1.));
#254=DIRECTION('',(0.,0.,1.));
#255=DIRECTION('',(1.,0.,0.));
#256=DIRECTION('',(0.,0.,1.));
#257=DIRECTION('',(0.,0.,1.));
#258=DIRECTION('',(1.,0.,0.));
#259=DIRECTION('',(-1.,0.,0.));
#260=DIRECTION('',(0.,0.,1.));
#261=DIRECTION('',(0.,-1.,0.));
#262=DIRECTION('',(0.,0.,1.));
#263=DIRECTION('',(0.,-1.,0.));
#264=DIRECTION('',(0.,0.,1.));
#265=DIRECTION('',(0.,0.,1.));
#266=DIRECTION('',(1.,0.,0.));
#267=DIRECTION('',(0.,0.,1.));
#268=DIRECTION('',(1.,0.,0.));
#269=DIRECTION('',(0.,0.,1.));
#270=DIRECTION('',(0.,0.,1.));
#271=DIRECTION('',(1.,0.,0.));
#272=DIRECTION('',(-1.,0.,0.));
#273=DIRECTION('',(0.,0.,1.));
#274=DIRECTION('',(0.,-1.,0.));
#275=DIRECTION('',(0.,-1.,0.));
#276=DIRECTION('',(0.,0.,1.));
#277=DIRECTION('',(1.,0.,0.));
#278=DIRECTION('',(0.,0.,1.));
#279=DIRECTION('',(0.,0.,1.));
#280=DIRECTION('',(1.,0.,0.));
#281=DIRECTION('',(0.,0.,1.));
#282=DIRECTION('',(1.,0.,0.));
#283=DIRECTION('',(0.,0.,1.));
#284=DIRECTION('',(1.,0.,0.));
#285=DIRECTION('',(0.,0.,1.));
#286=DIRECTION('',(1.,0.,0.));
#287=DIRECTION('',(0.,0.,1.));
#288=DIRECTION('',(1.,0.,0.));
#289=DIRECTION('',(0.,-1.,0.));
#290=DIRECTION('',(0.,0.,1.));
#291=DIRECTION('',(1.,0.,0.));
#292=DIRECTION('',(0.,1.,0.));
#293=DIRECTION('',(0.,0.,1.));
#294=DIRECTION('',(1.,0.,0.));
#295=DIRECTION('',(0.,0.,1.));
#296=DIRECTION('',(1.,0.,0.));
#297=DIRECTION('',(0.,0.,1.));
#298=DIRECTION('',(1.,0.,0.));
#299=DIRECTION('',(0.,-1.,0.));
#300=DIRECTION('',(0.,1.,0.));
#301=DIRECTION('',(0.,0.,1.));
#302=DIRECTION('',(1.,0.,0.));
#303=DIRECTION('',(0.,0.,1.));
#304=DIRECTION('',(1.,0.,0.));
#305=DIRECTION('',(0.,0.,1.));
#306=DIRECTION('',(0.,0.,1.));
#307=DIRECTION('',(1.,0.,0.));
#308=DIRECTION('',(0.,0.,-1.));
#309=DIRECTION('',(-1.,0.,0.));
#310=DIRECTION('',(0.,0.,1.));
#311=DIRECTION('',(0.,0.,1.));
#312=DIRECTION('',(1.,0.,0.));
#313=DIRECTION('',(0.,0.,1.));
#314=DIRECTION('',(1.,0.,0.));
#315=CARTESIAN_POINT('',(0.,0.,0.));
#316=CARTESIAN_POINT('',(0.,0.0003,-0.00055));
#317=CARTESIAN_POINT('',(-0.00117,0.00567411388044578,-0.00055));
#318=CARTESIAN_POINT('',(-0.00117,0.00567411388044578,-0.00055));
#319=CARTESIAN_POINT('',(-0.00117,0.00567411388044578,0.));
#320=CARTESIAN_POINT('',(0.,0.0003,-0.00055));
#321=CARTESIAN_POINT('',(-0.00325,0.00473705983732471,-0.00055));
#322=CARTESIAN_POINT('',(-0.00325,0.00473705983732471,-0.00055));
#323=CARTESIAN_POINT('',(-0.00325,0.00473705983732471,0.));
#324=CARTESIAN_POINT('',(0.,0.0003,0.));
#325=CARTESIAN_POINT('',(0.00325,0.00473705983732471,-0.00055));
#326=CARTESIAN_POINT('',(0.00325,0.00473705983732471,0.));
#327=CARTESIAN_POINT('',(0.00325,0.00473705983732471,0.));
#328=CARTESIAN_POINT('',(0.00325,0.00379967103839267,0.));
#329=CARTESIAN_POINT('',(0.00325,0.00379967103839267,-0.00055));
#330=CARTESIAN_POINT('',(0.00325,0.00379967103839267,-0.00055));
#331=CARTESIAN_POINT('',(0.00325,0.00473705983732471,-0.00055));
#332=CARTESIAN_POINT('',(0.00325,0.00473705983732471,-0.00055));
#333=CARTESIAN_POINT('',(0.00325,0.00473705983732471,-0.00055));
#334=CARTESIAN_POINT('',(0.,0.,-0.00055));
#335=CARTESIAN_POINT('',(0.,0.,0.));
#336=CARTESIAN_POINT('',(-0.00325,0.00379967103839267,0.));
#337=CARTESIAN_POINT('',(-0.00325,0.00379967103839267,-0.00055));
#338=CARTESIAN_POINT('',(-0.00325,0.00379967103839267,-0.00055));
#339=CARTESIAN_POINT('',(0.,0.,-0.00055));
#340=CARTESIAN_POINT('',(-0.00325,0.00473705983732471,-0.00055));
#341=CARTESIAN_POINT('',(-0.00325,0.00473705983732471,0.));
#342=CARTESIAN_POINT('',(-0.00325,0.00473705983732471,-0.00055));
#343=CARTESIAN_POINT('',(0.,0.0003,-0.00055));
#344=CARTESIAN_POINT('',(0.00117,0.00567411388044578,-0.00055));
#345=CARTESIAN_POINT('',(0.00117,0.00567411388044578,-0.00055));
#346=CARTESIAN_POINT('',(0.00117,0.00567411388044578,0.));
#347=CARTESIAN_POINT('',(0.,0.0003,0.));
#348=CARTESIAN_POINT('',(0.,0.0003,-0.00055));
#349=CARTESIAN_POINT('',(0.,0.,-0.00055));
#350=CARTESIAN_POINT('',(-0.00225,0.00419711431702997,-0.00055));
#351=CARTESIAN_POINT('',(-0.0019,0.00419711431702997,-0.00055));
#352=CARTESIAN_POINT('',(0.00225,0.00419711431702997,-0.00055));
#353=CARTESIAN_POINT('',(0.0026,0.00419711431702997,-0.00055));
#354=CARTESIAN_POINT('',(-0.00117,0.00567411388044578,-0.00055));
#355=CARTESIAN_POINT('',(-0.00117,0.00391539762681783,-0.00055));
#356=CARTESIAN_POINT('',(0.,0.0003,-0.00055));
#357=CARTESIAN_POINT('',(0.00117,0.00391539762681783,-0.00055));
#358=CARTESIAN_POINT('',(0.00117,0.00567411388044578,-0.00055));
#359=CARTESIAN_POINT('',(0.,0.,0.));
#360=CARTESIAN_POINT('',(-0.00225,0.00419711431702997,6.12323399573677E-21));
#361=CARTESIAN_POINT('',(-0.0019,0.00419711431702997,6.12323399573677E-21));
#362=CARTESIAN_POINT('',(0.00225,0.00419711431702997,6.12323399573677E-21));
#363=CARTESIAN_POINT('',(0.0026,0.00419711431702997,6.12323399573677E-21));
#364=CARTESIAN_POINT('',(-0.00117,0.00567411388044578,0.));
#365=CARTESIAN_POINT('',(-0.00117,0.00391539762681783,0.));
#366=CARTESIAN_POINT('',(0.00117,0.00567411388044578,0.));
#367=CARTESIAN_POINT('',(0.00117,0.00391539762681783,0.));
#368=CARTESIAN_POINT('',(0.,0.0003,0.));
#369=CARTESIAN_POINT('',(0.,0.0003,-0.00055));
#370=CARTESIAN_POINT('',(-0.00117,0.00391539762681783,-0.00055));
#371=CARTESIAN_POINT('',(0.00117,0.00391539762681783,-0.00055));
#372=CARTESIAN_POINT('',(0.00117,0.00567411388044578,-0.00055));
#373=CARTESIAN_POINT('',(-0.00117,0.00567411388044578,-0.00055));
#374=CARTESIAN_POINT('',(0.00225,0.00419711431702997,0.));
#375=CARTESIAN_POINT('',(-0.00225,0.00419711431702997,0.));
#376=(
GEOMETRIC_REPRESENTATION_CONTEXT(3)
GLOBAL_UNCERTAINTY_ASSIGNED_CONTEXT((#377))
GLOBAL_UNIT_ASSIGNED_CONTEXT((#380,#379,#378))
REPRESENTATION_CONTEXT('id2','TOP_LEVEL_ASSEMBLY_PART')
);
#377=UNCERTAINTY_MEASURE_WITH_UNIT(LENGTH_MEASURE(1.E-8),#380,
'DISTANCE_ACCURACY_VALUE','Maximum Tolerance applied to model');
#378=(
NAMED_UNIT(*)
SI_UNIT($,.STERADIAN.)
SOLID_ANGLE_UNIT()
);
#379=(
NAMED_UNIT(*)
PLANE_ANGLE_UNIT()
SI_UNIT($,.RADIAN.)
);
#380=(
LENGTH_UNIT()
NAMED_UNIT(*)
SI_UNIT($,.METRE.)
);
#381=PRODUCT_DEFINITION_SHAPE('','',#382);
#382=PRODUCT_DEFINITION('','',#384,#383);
#383=PRODUCT_DEFINITION_CONTEXT('',#390,'design');
#384=PRODUCT_DEFINITION_FORMATION_WITH_SPECIFIED_SOURCE('','',#386,
 .NOT_KNOWN.);
#385=PRODUCT_RELATED_PRODUCT_CATEGORY('','',(#386));
#386=PRODUCT('id2','id2','id2',(#388));
#387=PRODUCT_CATEGORY('','');
#388=PRODUCT_CONTEXT('',#390,'mechanical');
#389=APPLICATION_PROTOCOL_DEFINITION('international standard',
'ap242_managed_model_based_3d_engineering',2020,#390);
#390=APPLICATION_CONTEXT('managed model based 3d engineering');
ENDSEC;
END-ISO-10303-21;
