ISO-10303-21;
HEADER;
/* Generated by software containing ST-Developer
 * from STEP Tools, Inc. (www.steptools.com) 
 */
/* OPTION: using custom renumber hook */

FILE_DESCRIPTION(
/* description */ ('STEP AP242 Edition 2',
'CAx-IF Rec.Pracs.---Representation and Presentation of Product Manufa
cturing Information (PMI)---4.0---2014-10-13',
'CAx-IF Rec.Pracs.---3D Tessellated Geometry---0.4---2014-09-14','2;1',
'CAx-IF Rec.Pracs.---User Defined Attributes---1.5---2016-08-15'),
/* implementation_level */ '2;1');

FILE_NAME(
/* name */ '10049',
/* time_stamp */ '2026-07-13T04:47:06Z',
/* author */ (''),
/* organization */ (''),
/* preprocessor_version */ 'ST-DEVELOPER v20',
/* originating_system */ 'ONSHAPE BY PTC INC, 1.217',
/* authorisation */ '  ');

FILE_SCHEMA (('AP242_MANAGED_MODEL_BASED_3D_ENGINEERING_MIM_LF { 1 0 10303 442 3 1 4 }'));
ENDSEC;

DATA;
#10=SHAPE_REPRESENTATION_RELATIONSHIP('','',#349,#11);
#11=ADVANCED_BREP_SHAPE_REPRESENTATION('',(#347),#620);
#12=VERTEX_LOOP('',#227);
#13=CONICAL_SURFACE('',#398,0.,1.0471975511966);
#14=PLANE('',#366);
#15=PLANE('',#377);
#16=PLANE('',#393);
#17=PLANE('',#394);
#18=CIRCLE('',#352,0.0022);
#19=CIRCLE('',#353,0.0022);
#20=CIRCLE('',#355,0.0022);
#21=CIRCLE('',#356,0.0022);
#22=CIRCLE('',#358,0.0022);
#23=CIRCLE('',#359,0.0022);
#24=CIRCLE('',#361,0.0022);
#25=CIRCLE('',#362,0.0022);
#26=CIRCLE('',#364,0.0022);
#27=CIRCLE('',#365,0.0022);
#28=CIRCLE('',#367,0.00025);
#29=CIRCLE('',#368,0.0002);
#30=CIRCLE('',#369,0.0001);
#31=CIRCLE('',#370,0.00115);
#32=CIRCLE('',#371,0.0001);
#33=CIRCLE('',#372,0.005);
#34=CIRCLE('',#373,0.005);
#35=CIRCLE('',#374,0.005);
#36=CIRCLE('',#375,0.005);
#37=CIRCLE('',#376,0.005);
#38=CIRCLE('',#378,0.0002);
#39=CIRCLE('',#379,0.0001);
#40=CIRCLE('',#380,0.00115);
#41=CIRCLE('',#381,0.0001);
#42=CIRCLE('',#382,0.005);
#43=CIRCLE('',#383,0.005);
#44=CIRCLE('',#384,0.005);
#45=CIRCLE('',#385,0.005);
#46=CIRCLE('',#386,0.005);
#47=ORIENTED_EDGE('',*,*,#145,.T.);
#48=ORIENTED_EDGE('',*,*,#146,.F.);
#49=ORIENTED_EDGE('',*,*,#147,.F.);
#50=ORIENTED_EDGE('',*,*,#148,.T.);
#51=ORIENTED_EDGE('',*,*,#149,.F.);
#52=ORIENTED_EDGE('',*,*,#150,.T.);
#53=ORIENTED_EDGE('',*,*,#151,.T.);
#54=ORIENTED_EDGE('',*,*,#152,.F.);
#55=ORIENTED_EDGE('',*,*,#153,.T.);
#56=ORIENTED_EDGE('',*,*,#154,.F.);
#57=ORIENTED_EDGE('',*,*,#155,.F.);
#58=ORIENTED_EDGE('',*,*,#156,.T.);
#59=ORIENTED_EDGE('',*,*,#157,.T.);
#60=ORIENTED_EDGE('',*,*,#158,.F.);
#61=ORIENTED_EDGE('',*,*,#159,.F.);
#62=ORIENTED_EDGE('',*,*,#160,.T.);
#63=ORIENTED_EDGE('',*,*,#161,.T.);
#64=ORIENTED_EDGE('',*,*,#162,.F.);
#65=ORIENTED_EDGE('',*,*,#163,.F.);
#66=ORIENTED_EDGE('',*,*,#164,.T.);
#67=ORIENTED_EDGE('',*,*,#165,.F.);
#68=ORIENTED_EDGE('',*,*,#166,.F.);
#69=ORIENTED_EDGE('',*,*,#167,.T.);
#70=ORIENTED_EDGE('',*,*,#168,.F.);
#71=ORIENTED_EDGE('',*,*,#169,.T.);
#72=ORIENTED_EDGE('',*,*,#170,.F.);
#73=ORIENTED_EDGE('',*,*,#171,.T.);
#74=ORIENTED_EDGE('',*,*,#146,.T.);
#75=ORIENTED_EDGE('',*,*,#172,.T.);
#76=ORIENTED_EDGE('',*,*,#152,.T.);
#77=ORIENTED_EDGE('',*,*,#173,.T.);
#78=ORIENTED_EDGE('',*,*,#162,.T.);
#79=ORIENTED_EDGE('',*,*,#174,.T.);
#80=ORIENTED_EDGE('',*,*,#158,.T.);
#81=ORIENTED_EDGE('',*,*,#175,.T.);
#82=ORIENTED_EDGE('',*,*,#154,.T.);
#83=ORIENTED_EDGE('',*,*,#176,.T.);
#84=ORIENTED_EDGE('',*,*,#177,.F.);
#85=ORIENTED_EDGE('',*,*,#178,.T.);
#86=ORIENTED_EDGE('',*,*,#179,.F.);
#87=ORIENTED_EDGE('',*,*,#180,.T.);
#88=ORIENTED_EDGE('',*,*,#181,.F.);
#89=ORIENTED_EDGE('',*,*,#182,.T.);
#90=ORIENTED_EDGE('',*,*,#183,.F.);
#91=ORIENTED_EDGE('',*,*,#148,.F.);
#92=ORIENTED_EDGE('',*,*,#184,.F.);
#93=ORIENTED_EDGE('',*,*,#156,.F.);
#94=ORIENTED_EDGE('',*,*,#185,.F.);
#95=ORIENTED_EDGE('',*,*,#160,.F.);
#96=ORIENTED_EDGE('',*,*,#186,.F.);
#97=ORIENTED_EDGE('',*,*,#164,.F.);
#98=ORIENTED_EDGE('',*,*,#187,.F.);
#99=ORIENTED_EDGE('',*,*,#150,.F.);
#100=ORIENTED_EDGE('',*,*,#173,.F.);
#101=ORIENTED_EDGE('',*,*,#151,.F.);
#102=ORIENTED_EDGE('',*,*,#187,.T.);
#103=ORIENTED_EDGE('',*,*,#163,.T.);
#104=ORIENTED_EDGE('',*,*,#174,.F.);
#105=ORIENTED_EDGE('',*,*,#161,.F.);
#106=ORIENTED_EDGE('',*,*,#186,.T.);
#107=ORIENTED_EDGE('',*,*,#159,.T.);
#108=ORIENTED_EDGE('',*,*,#175,.F.);
#109=ORIENTED_EDGE('',*,*,#157,.F.);
#110=ORIENTED_EDGE('',*,*,#185,.T.);
#111=ORIENTED_EDGE('',*,*,#155,.T.);
#112=ORIENTED_EDGE('',*,*,#176,.F.);
#113=ORIENTED_EDGE('',*,*,#153,.F.);
#114=ORIENTED_EDGE('',*,*,#184,.T.);
#115=ORIENTED_EDGE('',*,*,#147,.T.);
#116=ORIENTED_EDGE('',*,*,#172,.F.);
#117=ORIENTED_EDGE('',*,*,#145,.F.);
#118=ORIENTED_EDGE('',*,*,#183,.T.);
#119=ORIENTED_EDGE('',*,*,#149,.T.);
#120=ORIENTED_EDGE('',*,*,#181,.T.);
#121=ORIENTED_EDGE('',*,*,#188,.T.);
#122=ORIENTED_EDGE('',*,*,#170,.T.);
#123=ORIENTED_EDGE('',*,*,#189,.T.);
#124=ORIENTED_EDGE('',*,*,#166,.T.);
#125=ORIENTED_EDGE('',*,*,#190,.T.);
#126=ORIENTED_EDGE('',*,*,#179,.T.);
#127=ORIENTED_EDGE('',*,*,#191,.T.);
#128=ORIENTED_EDGE('',*,*,#177,.T.);
#129=ORIENTED_EDGE('',*,*,#192,.T.);
#130=ORIENTED_EDGE('',*,*,#168,.T.);
#131=ORIENTED_EDGE('',*,*,#193,.T.);
#132=ORIENTED_EDGE('',*,*,#178,.F.);
#133=ORIENTED_EDGE('',*,*,#193,.F.);
#134=ORIENTED_EDGE('',*,*,#167,.F.);
#135=ORIENTED_EDGE('',*,*,#191,.F.);
#136=ORIENTED_EDGE('',*,*,#180,.F.);
#137=ORIENTED_EDGE('',*,*,#190,.F.);
#138=ORIENTED_EDGE('',*,*,#171,.F.);
#139=ORIENTED_EDGE('',*,*,#188,.F.);
#140=ORIENTED_EDGE('',*,*,#182,.F.);
#141=ORIENTED_EDGE('',*,*,#189,.F.);
#142=ORIENTED_EDGE('',*,*,#169,.F.);
#143=ORIENTED_EDGE('',*,*,#192,.F.);
#144=ORIENTED_EDGE('',*,*,#165,.T.);
#145=EDGE_CURVE('',#194,#195,#228,.T.);
#146=EDGE_CURVE('',#196,#195,#18,.T.);
#147=EDGE_CURVE('',#197,#196,#229,.T.);
#148=EDGE_CURVE('',#197,#194,#19,.T.);
#149=EDGE_CURVE('',#198,#199,#230,.T.);
#150=EDGE_CURVE('',#198,#200,#20,.T.);
#151=EDGE_CURVE('',#200,#201,#231,.T.);
#152=EDGE_CURVE('',#199,#201,#21,.T.);
#153=EDGE_CURVE('',#202,#203,#232,.T.);
#154=EDGE_CURVE('',#204,#203,#22,.T.);
#155=EDGE_CURVE('',#205,#204,#233,.T.);
#156=EDGE_CURVE('',#205,#202,#23,.T.);
#157=EDGE_CURVE('',#206,#207,#234,.T.);
#158=EDGE_CURVE('',#208,#207,#24,.T.);
#159=EDGE_CURVE('',#209,#208,#235,.T.);
#160=EDGE_CURVE('',#209,#206,#25,.T.);
#161=EDGE_CURVE('',#210,#211,#236,.T.);
#162=EDGE_CURVE('',#212,#211,#26,.T.);
#163=EDGE_CURVE('',#213,#212,#237,.T.);
#164=EDGE_CURVE('',#213,#210,#27,.T.);
#165=EDGE_CURVE('',#214,#214,#28,.T.);
#166=EDGE_CURVE('',#215,#216,#238,.T.);
#167=EDGE_CURVE('',#215,#217,#29,.T.);
#168=EDGE_CURVE('',#218,#217,#239,.T.);
#169=EDGE_CURVE('',#218,#219,#30,.F.);
#170=EDGE_CURVE('',#220,#219,#31,.T.);
#171=EDGE_CURVE('',#220,#216,#32,.F.);
#172=EDGE_CURVE('',#195,#199,#33,.T.);
#173=EDGE_CURVE('',#201,#212,#34,.T.);
#174=EDGE_CURVE('',#211,#208,#35,.T.);
#175=EDGE_CURVE('',#207,#204,#36,.T.);
#176=EDGE_CURVE('',#203,#196,#37,.T.);
#177=EDGE_CURVE('',#221,#222,#240,.T.);
#178=EDGE_CURVE('',#221,#223,#38,.F.);
#179=EDGE_CURVE('',#224,#223,#241,.T.);
#180=EDGE_CURVE('',#224,#225,#39,.T.);
#181=EDGE_CURVE('',#226,#225,#40,.F.);
#182=EDGE_CURVE('',#226,#222,#41,.T.);
#183=EDGE_CURVE('',#194,#198,#42,.T.);
#184=EDGE_CURVE('',#202,#197,#43,.T.);
#185=EDGE_CURVE('',#206,#205,#44,.T.);
#186=EDGE_CURVE('',#210,#209,#45,.T.);
#187=EDGE_CURVE('',#200,#213,#46,.T.);
#188=EDGE_CURVE('',#225,#220,#242,.T.);
#189=EDGE_CURVE('',#219,#226,#243,.F.);
#190=EDGE_CURVE('',#216,#224,#244,.T.);
#191=EDGE_CURVE('',#223,#215,#245,.T.);
#192=EDGE_CURVE('',#222,#218,#246,.F.);
#193=EDGE_CURVE('',#217,#221,#247,.F.);
#194=VERTEX_POINT('',#520);
#195=VERTEX_POINT('',#521);
#196=VERTEX_POINT('',#523);
#197=VERTEX_POINT('',#525);
#198=VERTEX_POINT('',#529);
#199=VERTEX_POINT('',#530);
#200=VERTEX_POINT('',#532);
#201=VERTEX_POINT('',#534);
#202=VERTEX_POINT('',#538);
#203=VERTEX_POINT('',#539);
#204=VERTEX_POINT('',#541);
#205=VERTEX_POINT('',#543);
#206=VERTEX_POINT('',#547);
#207=VERTEX_POINT('',#548);
#208=VERTEX_POINT('',#550);
#209=VERTEX_POINT('',#552);
#210=VERTEX_POINT('',#556);
#211=VERTEX_POINT('',#557);
#212=VERTEX_POINT('',#559);
#213=VERTEX_POINT('',#561);
#214=VERTEX_POINT('',#565);
#215=VERTEX_POINT('',#567);
#216=VERTEX_POINT('',#568);
#217=VERTEX_POINT('',#570);
#218=VERTEX_POINT('',#572);
#219=VERTEX_POINT('',#574);
#220=VERTEX_POINT('',#576);
#221=VERTEX_POINT('',#585);
#222=VERTEX_POINT('',#586);
#223=VERTEX_POINT('',#588);
#224=VERTEX_POINT('',#590);
#225=VERTEX_POINT('',#592);
#226=VERTEX_POINT('',#594);
#227=VERTEX_POINT('',#619);
#228=LINE('',#519,#248);
#229=LINE('',#524,#249);
#230=LINE('',#528,#250);
#231=LINE('',#533,#251);
#232=LINE('',#537,#252);
#233=LINE('',#542,#253);
#234=LINE('',#546,#254);
#235=LINE('',#551,#255);
#236=LINE('',#555,#256);
#237=LINE('',#560,#257);
#238=LINE('',#566,#258);
#239=LINE('',#571,#259);
#240=LINE('',#584,#260);
#241=LINE('',#589,#261);
#242=LINE('',#607,#262);
#243=LINE('',#608,#263);
#244=LINE('',#610,#264);
#245=LINE('',#611,#265);
#246=LINE('',#613,#266);
#247=LINE('',#614,#267);
#248=VECTOR('',#403,1.);
#249=VECTOR('',#406,1.);
#250=VECTOR('',#411,1.);
#251=VECTOR('',#414,1.);
#252=VECTOR('',#419,1.);
#253=VECTOR('',#422,1.);
#254=VECTOR('',#427,1.);
#255=VECTOR('',#430,1.);
#256=VECTOR('',#435,1.);
#257=VECTOR('',#438,1.);
#258=VECTOR('',#445,1.);
#259=VECTOR('',#448,1.);
#260=VECTOR('',#467,1.);
#261=VECTOR('',#470,1.);
#262=VECTOR('',#499,1.);
#263=VECTOR('',#500,1.);
#264=VECTOR('',#503,1.);
#265=VECTOR('',#504,1.);
#266=VECTOR('',#507,1.);
#267=VECTOR('',#508,1.);
#268=EDGE_LOOP('',(#47,#48,#49,#50));
#269=EDGE_LOOP('',(#51,#52,#53,#54));
#270=EDGE_LOOP('',(#55,#56,#57,#58));
#271=EDGE_LOOP('',(#59,#60,#61,#62));
#272=EDGE_LOOP('',(#63,#64,#65,#66));
#273=EDGE_LOOP('',(#67));
#274=EDGE_LOOP('',(#68,#69,#70,#71,#72,#73));
#275=EDGE_LOOP('',(#74,#75,#76,#77,#78,#79,#80,#81,#82,#83));
#276=EDGE_LOOP('',(#84,#85,#86,#87,#88,#89));
#277=EDGE_LOOP('',(#90,#91,#92,#93,#94,#95,#96,#97,#98,#99));
#278=EDGE_LOOP('',(#100,#101,#102,#103));
#279=EDGE_LOOP('',(#104,#105,#106,#107));
#280=EDGE_LOOP('',(#108,#109,#110,#111));
#281=EDGE_LOOP('',(#112,#113,#114,#115));
#282=EDGE_LOOP('',(#116,#117,#118,#119));
#283=EDGE_LOOP('',(#120,#121,#122,#123));
#284=EDGE_LOOP('',(#124,#125,#126,#127));
#285=EDGE_LOOP('',(#128,#129,#130,#131));
#286=EDGE_LOOP('',(#132,#133,#134,#135));
#287=EDGE_LOOP('',(#136,#137,#138,#139));
#288=EDGE_LOOP('',(#140,#141,#142,#143));
#289=EDGE_LOOP('',(#144));
#290=FACE_BOUND('',#268,.T.);
#291=FACE_BOUND('',#269,.T.);
#292=FACE_BOUND('',#270,.T.);
#293=FACE_BOUND('',#271,.T.);
#294=FACE_BOUND('',#272,.T.);
#295=FACE_BOUND('',#273,.T.);
#296=FACE_BOUND('',#274,.T.);
#297=FACE_BOUND('',#275,.T.);
#298=FACE_BOUND('',#276,.T.);
#299=FACE_BOUND('',#277,.T.);
#300=FACE_BOUND('',#278,.T.);
#301=FACE_BOUND('',#279,.T.);
#302=FACE_BOUND('',#280,.T.);
#303=FACE_BOUND('',#281,.T.);
#304=FACE_BOUND('',#282,.T.);
#305=FACE_BOUND('',#283,.T.);
#306=FACE_BOUND('',#284,.T.);
#307=FACE_BOUND('',#285,.T.);
#308=FACE_BOUND('',#286,.T.);
#309=FACE_BOUND('',#287,.T.);
#310=FACE_BOUND('',#288,.T.);
#311=FACE_BOUND('',#289,.T.);
#312=FACE_BOUND('',#12,.T.);
#313=CYLINDRICAL_SURFACE('',#351,0.0022);
#314=CYLINDRICAL_SURFACE('',#354,0.0022);
#315=CYLINDRICAL_SURFACE('',#357,0.0022);
#316=CYLINDRICAL_SURFACE('',#360,0.0022);
#317=CYLINDRICAL_SURFACE('',#363,0.0022);
#318=CYLINDRICAL_SURFACE('',#387,0.005);
#319=CYLINDRICAL_SURFACE('',#388,0.005);
#320=CYLINDRICAL_SURFACE('',#389,0.005);
#321=CYLINDRICAL_SURFACE('',#390,0.005);
#322=CYLINDRICAL_SURFACE('',#391,0.005);
#323=CYLINDRICAL_SURFACE('',#392,0.00115);
#324=CYLINDRICAL_SURFACE('',#395,0.0002);
#325=CYLINDRICAL_SURFACE('',#396,0.0001);
#326=CYLINDRICAL_SURFACE('',#397,0.0001);
#327=ADVANCED_FACE('',(#290),#313,.T.);
#328=ADVANCED_FACE('',(#291),#314,.T.);
#329=ADVANCED_FACE('',(#292),#315,.T.);
#330=ADVANCED_FACE('',(#293),#316,.T.);
#331=ADVANCED_FACE('',(#294),#317,.T.);
#332=ADVANCED_FACE('',(#295,#296,#297),#14,.T.);
#333=ADVANCED_FACE('',(#298,#299),#15,.F.);
#334=ADVANCED_FACE('',(#300),#318,.F.);
#335=ADVANCED_FACE('',(#301),#319,.F.);
#336=ADVANCED_FACE('',(#302),#320,.F.);
#337=ADVANCED_FACE('',(#303),#321,.F.);
#338=ADVANCED_FACE('',(#304),#322,.F.);
#339=ADVANCED_FACE('',(#305),#323,.F.);
#340=ADVANCED_FACE('',(#306),#16,.F.);
#341=ADVANCED_FACE('',(#307),#17,.F.);
#342=ADVANCED_FACE('',(#308),#324,.T.);
#343=ADVANCED_FACE('',(#309),#325,.F.);
#344=ADVANCED_FACE('',(#310),#326,.F.);
#345=ADVANCED_FACE('',(#311,#312),#13,.F.);
#346=CLOSED_SHELL('',(#327,#328,#329,#330,#331,#332,#333,#334,#335,#336,
#337,#338,#339,#340,#341,#342,#343,#344,#345));
#347=MANIFOLD_SOLID_BREP('',#346);
#348=SHAPE_DEFINITION_REPRESENTATION(#625,#349);
#349=SHAPE_REPRESENTATION('id2',(#350),#620);
#350=AXIS2_PLACEMENT_3D('',#517,#399,#400);
#351=AXIS2_PLACEMENT_3D('',#518,#401,#402);
#352=AXIS2_PLACEMENT_3D('',#522,#404,#405);
#353=AXIS2_PLACEMENT_3D('',#526,#407,#408);
#354=AXIS2_PLACEMENT_3D('',#527,#409,#410);
#355=AXIS2_PLACEMENT_3D('',#531,#412,#413);
#356=AXIS2_PLACEMENT_3D('',#535,#415,#416);
#357=AXIS2_PLACEMENT_3D('',#536,#417,#418);
#358=AXIS2_PLACEMENT_3D('',#540,#420,#421);
#359=AXIS2_PLACEMENT_3D('',#544,#423,#424);
#360=AXIS2_PLACEMENT_3D('',#545,#425,#426);
#361=AXIS2_PLACEMENT_3D('',#549,#428,#429);
#362=AXIS2_PLACEMENT_3D('',#553,#431,#432);
#363=AXIS2_PLACEMENT_3D('',#554,#433,#434);
#364=AXIS2_PLACEMENT_3D('',#558,#436,#437);
#365=AXIS2_PLACEMENT_3D('',#562,#439,#440);
#366=AXIS2_PLACEMENT_3D('',#563,#441,#442);
#367=AXIS2_PLACEMENT_3D('',#564,#443,#444);
#368=AXIS2_PLACEMENT_3D('',#569,#446,#447);
#369=AXIS2_PLACEMENT_3D('',#573,#449,#450);
#370=AXIS2_PLACEMENT_3D('',#575,#451,#452);
#371=AXIS2_PLACEMENT_3D('',#577,#453,#454);
#372=AXIS2_PLACEMENT_3D('',#578,#455,#456);
#373=AXIS2_PLACEMENT_3D('',#579,#457,#458);
#374=AXIS2_PLACEMENT_3D('',#580,#459,#460);
#375=AXIS2_PLACEMENT_3D('',#581,#461,#462);
#376=AXIS2_PLACEMENT_3D('',#582,#463,#464);
#377=AXIS2_PLACEMENT_3D('',#583,#465,#466);
#378=AXIS2_PLACEMENT_3D('',#587,#468,#469);
#379=AXIS2_PLACEMENT_3D('',#591,#471,#472);
#380=AXIS2_PLACEMENT_3D('',#593,#473,#474);
#381=AXIS2_PLACEMENT_3D('',#595,#475,#476);
#382=AXIS2_PLACEMENT_3D('',#596,#477,#478);
#383=AXIS2_PLACEMENT_3D('',#597,#479,#480);
#384=AXIS2_PLACEMENT_3D('',#598,#481,#482);
#385=AXIS2_PLACEMENT_3D('',#599,#483,#484);
#386=AXIS2_PLACEMENT_3D('',#600,#485,#486);
#387=AXIS2_PLACEMENT_3D('',#601,#487,#488);
#388=AXIS2_PLACEMENT_3D('',#602,#489,#490);
#389=AXIS2_PLACEMENT_3D('',#603,#491,#492);
#390=AXIS2_PLACEMENT_3D('',#604,#493,#494);
#391=AXIS2_PLACEMENT_3D('',#605,#495,#496);
#392=AXIS2_PLACEMENT_3D('',#606,#497,#498);
#393=AXIS2_PLACEMENT_3D('',#609,#501,#502);
#394=AXIS2_PLACEMENT_3D('',#612,#505,#506);
#395=AXIS2_PLACEMENT_3D('',#615,#509,#510);
#396=AXIS2_PLACEMENT_3D('',#616,#511,#512);
#397=AXIS2_PLACEMENT_3D('',#617,#513,#514);
#398=AXIS2_PLACEMENT_3D('',#618,#515,#516);
#399=DIRECTION('',(0.,0.,1.));
#400=DIRECTION('',(1.,0.,0.));
#401=DIRECTION('',(0.,-1.,0.));
#402=DIRECTION('',(0.,0.,-1.));
#403=DIRECTION('',(0.,1.,0.));
#404=DIRECTION('',(0.,1.,0.));
#405=DIRECTION('',(0.,0.,1.));
#406=DIRECTION('',(0.,1.,0.));
#407=DIRECTION('',(0.,1.,0.));
#408=DIRECTION('',(0.,0.,1.));
#409=DIRECTION('',(0.,-1.,0.));
#410=DIRECTION('',(0.,0.,-1.));
#411=DIRECTION('',(0.,1.,0.));
#412=DIRECTION('',(0.,1.,0.));
#413=DIRECTION('',(0.,0.,1.));
#414=DIRECTION('',(0.,1.,0.));
#415=DIRECTION('',(0.,1.,0.));
#416=DIRECTION('',(0.,0.,1.));
#417=DIRECTION('',(0.,-1.,0.));
#418=DIRECTION('',(0.,0.,-1.));
#419=DIRECTION('',(0.,1.,0.));
#420=DIRECTION('',(0.,1.,0.));
#421=DIRECTION('',(0.,0.,1.));
#422=DIRECTION('',(0.,1.,0.));
#423=DIRECTION('',(0.,1.,0.));
#424=DIRECTION('',(0.,0.,1.));
#425=DIRECTION('',(0.,-1.,0.));
#426=DIRECTION('',(0.,0.,-1.));
#427=DIRECTION('',(0.,1.,0.));
#428=DIRECTION('',(0.,1.,0.));
#429=DIRECTION('',(0.,0.,1.));
#430=DIRECTION('',(0.,1.,0.));
#431=DIRECTION('',(0.,1.,0.));
#432=DIRECTION('',(0.,0.,1.));
#433=DIRECTION('',(0.,-1.,0.));
#434=DIRECTION('',(0.,0.,-1.));
#435=DIRECTION('',(0.,1.,0.));
#436=DIRECTION('',(0.,1.,0.));
#437=DIRECTION('',(0.,0.,1.));
#438=DIRECTION('',(0.,1.,0.));
#439=DIRECTION('',(0.,1.,0.));
#440=DIRECTION('',(0.,0.,1.));
#441=DIRECTION('',(0.,1.,0.));
#442=DIRECTION('',(0.,0.,1.));
#443=DIRECTION('',(0.,1.,0.));
#444=DIRECTION('',(0.,0.,1.));
#445=DIRECTION('',(-0.707106781186548,0.,0.707106781186547));
#446=DIRECTION('',(0.,1.,0.));
#447=DIRECTION('',(0.,0.,1.));
#448=DIRECTION('',(0.707106781186548,0.,0.707106781186547));
#449=DIRECTION('',(0.,1.,0.));
#450=DIRECTION('',(0.,0.,1.));
#451=DIRECTION('',(0.,1.,0.));
#452=DIRECTION('',(0.,0.,1.));
#453=DIRECTION('',(0.,1.,0.));
#454=DIRECTION('',(0.,0.,1.));
#455=DIRECTION('',(0.,-1.,0.));
#456=DIRECTION('',(0.,0.,1.));
#457=DIRECTION('',(0.,-1.,0.));
#458=DIRECTION('',(0.,0.,1.));
#459=DIRECTION('',(0.,-1.,0.));
#460=DIRECTION('',(0.,0.,1.));
#461=DIRECTION('',(0.,-1.,0.));
#462=DIRECTION('',(0.,0.,1.));
#463=DIRECTION('',(0.,-1.,0.));
#464=DIRECTION('',(0.,0.,1.));
#465=DIRECTION('',(0.,1.,0.));
#466=DIRECTION('',(0.,0.,1.));
#467=DIRECTION('',(-0.707106781186548,0.,-0.707106781186547));
#468=DIRECTION('',(0.,1.,0.));
#469=DIRECTION('',(0.,0.,1.));
#470=DIRECTION('',(0.707106781186548,0.,-0.707106781186547));
#471=DIRECTION('',(0.,1.,0.));
#472=DIRECTION('',(0.,0.,1.));
#473=DIRECTION('',(0.,1.,0.));
#474=DIRECTION('',(0.,0.,1.));
#475=DIRECTION('',(0.,1.,0.));
#476=DIRECTION('',(0.,0.,1.));
#477=DIRECTION('',(0.,-1.,0.));
#478=DIRECTION('',(0.,0.,1.));
#479=DIRECTION('',(0.,-1.,0.));
#480=DIRECTION('',(0.,0.,1.));
#481=DIRECTION('',(0.,-1.,0.));
#482=DIRECTION('',(0.,0.,1.));
#483=DIRECTION('',(0.,-1.,0.));
#484=DIRECTION('',(0.,0.,1.));
#485=DIRECTION('',(0.,-1.,0.));
#486=DIRECTION('',(0.,0.,1.));
#487=DIRECTION('',(0.,1.,0.));
#488=DIRECTION('',(0.,0.,1.));
#489=DIRECTION('',(0.,1.,0.));
#490=DIRECTION('',(0.,0.,1.));
#491=DIRECTION('',(0.,1.,0.));
#492=DIRECTION('',(0.,0.,1.));
#493=DIRECTION('',(0.,1.,0.));
#494=DIRECTION('',(0.,0.,1.));
#495=DIRECTION('',(0.,1.,0.));
#496=DIRECTION('',(0.,0.,1.));
#497=DIRECTION('',(0.,1.,0.));
#498=DIRECTION('',(0.,0.,1.));
#499=DIRECTION('',(0.,1.,0.));
#500=DIRECTION('',(0.,1.,0.));
#501=DIRECTION('',(-0.707106781186547,0.,-0.707106781186548));
#502=DIRECTION('',(-0.707106781186548,0.,0.707106781186547));
#503=DIRECTION('',(0.,-1.,0.));
#504=DIRECTION('',(0.,1.,0.));
#505=DIRECTION('',(-0.707106781186547,0.,0.707106781186548));
#506=DIRECTION('',(0.707106781186548,0.,0.707106781186547));
#507=DIRECTION('',(0.,-1.,0.));
#508=DIRECTION('',(0.,1.,0.));
#509=DIRECTION('',(0.,1.,0.));
#510=DIRECTION('',(0.,0.,1.));
#511=DIRECTION('',(0.,1.,0.));
#512=DIRECTION('',(0.,0.,1.));
#513=DIRECTION('',(0.,1.,0.));
#514=DIRECTION('',(0.,0.,1.));
#515=DIRECTION('',(0.,1.,0.));
#516=DIRECTION('',(0.,0.,1.));
#517=CARTESIAN_POINT('',(0.,0.,0.));
#518=CARTESIAN_POINT('',(0.,0.0005,0.));
#519=CARTESIAN_POINT('',(0.000750757798918163,0.,0.0020679368286685));
#520=CARTESIAN_POINT('',(0.000750757798918164,0.,0.00206793682866851));
#521=CARTESIAN_POINT('',(0.000750757798918163,0.0005,0.0020679368286685));
#522=CARTESIAN_POINT('',(0.,0.0005,0.));
#523=CARTESIAN_POINT('',(0.000608126952579492,0.0005,0.00211428039993431));
#524=CARTESIAN_POINT('',(0.000608126952579492,0.,0.00211428039993431));
#525=CARTESIAN_POINT('',(0.000608126952579492,0.,0.00211428039993431));
#526=CARTESIAN_POINT('',(0.,0.,0.));
#527=CARTESIAN_POINT('',(0.,0.0005,0.));
#528=CARTESIAN_POINT('',(0.00219872171471716,0.,7.49854734681207E-5));
#529=CARTESIAN_POINT('',(0.00219872171471716,0.,7.49854734681207E-5));
#530=CARTESIAN_POINT('',(0.00219872171471716,0.0005,7.49854734681207E-5));
#531=CARTESIAN_POINT('',(0.,0.,0.));
#532=CARTESIAN_POINT('',(0.00219872171471716,0.,-7.4985473468122E-5));
#533=CARTESIAN_POINT('',(0.00219872171471716,0.,-7.49854734681233E-5));
#534=CARTESIAN_POINT('',(0.00219872171471716,0.0005,-7.49854734681233E-5));
#535=CARTESIAN_POINT('',(0.,0.0005,0.));
#536=CARTESIAN_POINT('',(0.,0.0005,0.));
#537=CARTESIAN_POINT('',(-0.00173472787766668,0.,0.00135304072017293));
#538=CARTESIAN_POINT('',(-0.00173472787766668,0.,0.00135304072017293));
#539=CARTESIAN_POINT('',(-0.00173472787766668,0.0005,0.00135304072017293));
#540=CARTESIAN_POINT('',(0.,0.0005,0.));
#541=CARTESIAN_POINT('',(-0.00182287858854814,0.0005,0.001231711675439));
#542=CARTESIAN_POINT('',(-0.00182287858854814,0.,0.001231711675439));
#543=CARTESIAN_POINT('',(-0.00182287858854814,0.,0.001231711675439));
#544=CARTESIAN_POINT('',(0.,0.,0.));
#545=CARTESIAN_POINT('',(0.,0.0005,0.));
#546=CARTESIAN_POINT('',(-0.00182287858854814,0.,-0.001231711675439));
#547=CARTESIAN_POINT('',(-0.00182287858854814,0.,-0.001231711675439));
#548=CARTESIAN_POINT('',(-0.00182287858854814,0.0005,-0.001231711675439));
#549=CARTESIAN_POINT('',(0.,0.0005,0.));
#550=CARTESIAN_POINT('',(-0.00173472787766668,0.0005,-0.00135304072017293));
#551=CARTESIAN_POINT('',(-0.00173472787766668,0.,-0.00135304072017293));
#552=CARTESIAN_POINT('',(-0.00173472787766668,0.,-0.00135304072017293));
#553=CARTESIAN_POINT('',(0.,0.,0.));
#554=CARTESIAN_POINT('',(0.,0.0005,0.));
#555=CARTESIAN_POINT('',(0.000608126952579491,0.,-0.00211428039993431));
#556=CARTESIAN_POINT('',(0.000608126952579491,0.,-0.00211428039993431));
#557=CARTESIAN_POINT('',(0.000608126952579491,0.0005,-0.00211428039993431));
#558=CARTESIAN_POINT('',(0.,0.0005,0.));
#559=CARTESIAN_POINT('',(0.000750757798918162,0.0005,-0.00206793682866851));
#560=CARTESIAN_POINT('',(0.000750757798918162,0.,-0.00206793682866851));
#561=CARTESIAN_POINT('',(0.000750757798918162,0.,-0.00206793682866851));
#562=CARTESIAN_POINT('',(0.,0.,0.));
#563=CARTESIAN_POINT('',(0.,0.0005,0.));
#564=CARTESIAN_POINT('',(0.0016,0.0005,0.));
#565=CARTESIAN_POINT('',(0.0016,0.0005,0.00025));
#566=CARTESIAN_POINT('',(-0.000612,0.0005,7.52142688674557E-20));
#567=CARTESIAN_POINT('',(-0.00075342135623731,0.0005,0.00014142135623731));
#568=CARTESIAN_POINT('',(-0.00101019381920649,0.0005,0.000398193819206485));
#569=CARTESIAN_POINT('',(-0.000894842712474619,0.0005,1.0842021724855E-19));
#570=CARTESIAN_POINT('',(-0.00075342135623731,0.0005,-0.00014142135623731));
#571=CARTESIAN_POINT('',(-0.00105940161932398,0.0005,-0.000447401619323982));
#572=CARTESIAN_POINT('',(-0.00101019381920649,0.0005,-0.000398193819206485));
#573=CARTESIAN_POINT('',(-0.000939483141087831,0.0005,-0.00046890449732514));
#574=CARTESIAN_POINT('',(-0.00102895772595334,0.0005,-0.000513562068498963));
#575=CARTESIAN_POINT('',(-3.04673756968415E-20,0.0005,2.65884759637652E-22));
#576=CARTESIAN_POINT('',(-0.00102895772595334,0.0005,0.000513562068498963));
#577=CARTESIAN_POINT('',(-0.000939483141087831,0.0005,0.00046890449732514));
#578=CARTESIAN_POINT('',(0.00539516685773895,0.0005,0.00391981816783239));
#579=CARTESIAN_POINT('',(0.00539516685773895,0.0005,-0.00391981816783239));
#580=CARTESIAN_POINT('',(-0.00206077036467931,0.0005,-0.00634239902527215));
#581=CARTESIAN_POINT('',(-0.00666879298611928,0.0005,-1.04068992210865E-20));
#582=CARTESIAN_POINT('',(-0.00206077036467931,0.0005,0.00634239902527215));
#583=CARTESIAN_POINT('',(0.,0.,0.));
#584=CARTESIAN_POINT('',(-0.00105940161932398,0.,-0.000447401619323982));
#585=CARTESIAN_POINT('',(-0.00075342135623731,0.,-0.00014142135623731));
#586=CARTESIAN_POINT('',(-0.00101019381920649,0.,-0.000398193819206485));
#587=CARTESIAN_POINT('',(-0.000894842712474619,0.,1.0842021724855E-19));
#588=CARTESIAN_POINT('',(-0.00075342135623731,0.,0.00014142135623731));
#589=CARTESIAN_POINT('',(-0.000612,0.,7.52142688674557E-20));
#590=CARTESIAN_POINT('',(-0.00101019381920649,0.,0.000398193819206485));
#591=CARTESIAN_POINT('',(-0.000939483141087831,0.,0.00046890449732514));
#592=CARTESIAN_POINT('',(-0.00102895772595334,0.,0.000513562068498963));
#593=CARTESIAN_POINT('',(-3.04673756968415E-20,0.,2.65884759637652E-22));
#594=CARTESIAN_POINT('',(-0.00102895772595334,0.,-0.000513562068498963));
#595=CARTESIAN_POINT('',(-0.000939483141087831,0.,-0.00046890449732514));
#596=CARTESIAN_POINT('',(0.00539516685773895,0.,0.00391981816783239));
#597=CARTESIAN_POINT('',(-0.00206077036467931,0.,0.00634239902527215));
#598=CARTESIAN_POINT('',(-0.00666879298611928,0.,-1.04068992210865E-20));
#599=CARTESIAN_POINT('',(-0.00206077036467931,0.,-0.00634239902527215));
#600=CARTESIAN_POINT('',(0.00539516685773895,0.,-0.00391981816783239));
#601=CARTESIAN_POINT('',(0.00539516685773895,0.,-0.00391981816783239));
#602=CARTESIAN_POINT('',(-0.00206077036467931,0.,-0.00634239902527215));
#603=CARTESIAN_POINT('',(-0.00666879298611928,0.,-1.04068992210865E-20));
#604=CARTESIAN_POINT('',(-0.00206077036467931,0.,0.00634239902527215));
#605=CARTESIAN_POINT('',(0.00539516685773895,0.,0.00391981816783239));
#606=CARTESIAN_POINT('',(-3.04673756968415E-20,-1.00000000000002E-6,2.65884759637652E-22));
#607=CARTESIAN_POINT('',(-0.00102895772595334,-1.00000000000002E-6,0.000513562068498963));
#608=CARTESIAN_POINT('',(-0.00102895772595334,-1.00000000000002E-6,-0.000513562068498963));
#609=CARTESIAN_POINT('',(-0.000612,-1.00000000000002E-6,7.52142688674557E-20));
#610=CARTESIAN_POINT('',(-0.00101019381920649,0.,0.000398193819206485));
#611=CARTESIAN_POINT('',(-0.00075342135623731,-1.00000000000002E-6,0.00014142135623731));
#612=CARTESIAN_POINT('',(-0.00105940161932398,-1.00000000000002E-6,-0.000447401619323982));
#613=CARTESIAN_POINT('',(-0.00101019381920649,0.0005,-0.000398193819206485));
#614=CARTESIAN_POINT('',(-0.00075342135623731,-1.00000000000002E-6,-0.00014142135623731));
#615=CARTESIAN_POINT('',(-0.000894842712474619,-1.00000000000002E-6,1.0842021724855E-19));
#616=CARTESIAN_POINT('',(-0.000939483141087831,-1.00000000000002E-6,0.00046890449732514));
#617=CARTESIAN_POINT('',(-0.000939483141087831,-1.00000000000002E-6,-0.00046890449732514));
#618=CARTESIAN_POINT('',(0.0016,0.000355662432702592,0.));
#619=CARTESIAN_POINT('',(0.0016,0.000355662432702592,0.));
#620=(
GEOMETRIC_REPRESENTATION_CONTEXT(3)
GLOBAL_UNCERTAINTY_ASSIGNED_CONTEXT((#621))
GLOBAL_UNIT_ASSIGNED_CONTEXT((#624,#623,#622))
REPRESENTATION_CONTEXT('id2','TOP_LEVEL_ASSEMBLY_PART')
);
#621=UNCERTAINTY_MEASURE_WITH_UNIT(LENGTH_MEASURE(1.E-8),#624,
'DISTANCE_ACCURACY_VALUE','Maximum Tolerance applied to model');
#622=(
NAMED_UNIT(*)
SI_UNIT($,.STERADIAN.)
SOLID_ANGLE_UNIT()
);
#623=(
NAMED_UNIT(*)
PLANE_ANGLE_UNIT()
SI_UNIT($,.RADIAN.)
);
#624=(
LENGTH_UNIT()
NAMED_UNIT(*)
SI_UNIT($,.METRE.)
);
#625=PRODUCT_DEFINITION_SHAPE('','',#626);
#626=PRODUCT_DEFINITION('','',#628,#627);
#627=PRODUCT_DEFINITION_CONTEXT('',#634,'design');
#628=PRODUCT_DEFINITION_FORMATION_WITH_SPECIFIED_SOURCE('','',#630,
 .NOT_KNOWN.);
#629=PRODUCT_RELATED_PRODUCT_CATEGORY('','',(#630));
#630=PRODUCT('id2','id2','id2',(#632));
#631=PRODUCT_CATEGORY('','');
#632=PRODUCT_CONTEXT('',#634,'mechanical');
#633=APPLICATION_PROTOCOL_DEFINITION('international standard',
'ap242_managed_model_based_3d_engineering',2020,#634);
#634=APPLICATION_CONTEXT('managed model based 3d engineering');
ENDSEC;
END-ISO-10303-21;
