ISO-10303-21;
HEADER;
/* Generated by software containing ST-Developer
 * from STEP Tools, Inc. (www.steptools.com) 
 */
/* OPTION: using custom renumber hook */

FILE_DESCRIPTION(
/* description */ ('STEP AP242 Edition 2',
'CAx-IF Rec.Pracs.---Representation and Presentation of Product Manufa
cturing Information (PMI)---4.0---2014-10-13',
'CAx-IF Rec.Pracs.---3D Tessellated Geometry---0.4---2014-09-14','2;1',
'CAx-IF Rec.Pracs.---User Defined Attributes---1.5---2016-08-15'),
/* implementation_level */ '2;1');

FILE_NAME(
/* name */ '10048',
/* time_stamp */ '2026-07-13T04:47:01Z',
/* author */ (''),
/* organization */ (''),
/* preprocessor_version */ 'ST-DEVELOPER v20',
/* originating_system */ 'ONSHAPE BY PTC INC, 1.217',
/* authorisation */ '  ');

FILE_SCHEMA (('AP242_MANAGED_MODEL_BASED_3D_ENGINEERING_MIM_LF { 1 0 10303 442 3 1 4 }'));
ENDSEC;

DATA;
#10=SHAPE_REPRESENTATION_RELATIONSHIP('','',#147,#11);
#11=ADVANCED_BREP_SHAPE_REPRESENTATION('',(#145),#252);
#12=CONICAL_SURFACE('',#166,0.00055,0.785398163397448);
#13=CYLINDRICAL_SURFACE('',#151,0.00175);
#14=CYLINDRICAL_SURFACE('',#157,0.00085);
#15=CIRCLE('',#150,0.00175);
#16=CIRCLE('',#152,0.00175);
#17=CIRCLE('',#153,0.00175);
#18=CIRCLE('',#154,0.00175);
#19=CIRCLE('',#155,0.00175);
#20=CIRCLE('',#158,0.00085);
#21=CIRCLE('',#159,0.00085);
#22=CIRCLE('',#162,0.00055);
#23=ORIENTED_EDGE('',*,*,#55,.F.);
#24=ORIENTED_EDGE('',*,*,#56,.T.);
#25=ORIENTED_EDGE('',*,*,#56,.F.);
#26=ORIENTED_EDGE('',*,*,#57,.T.);
#27=ORIENTED_EDGE('',*,*,#58,.T.);
#28=ORIENTED_EDGE('',*,*,#59,.T.);
#29=ORIENTED_EDGE('',*,*,#60,.F.);
#30=ORIENTED_EDGE('',*,*,#61,.T.);
#31=ORIENTED_EDGE('',*,*,#62,.T.);
#32=ORIENTED_EDGE('',*,*,#63,.T.);
#33=ORIENTED_EDGE('',*,*,#64,.F.);
#34=ORIENTED_EDGE('',*,*,#65,.F.);
#35=ORIENTED_EDGE('',*,*,#60,.T.);
#36=ORIENTED_EDGE('',*,*,#66,.T.);
#37=ORIENTED_EDGE('',*,*,#67,.T.);
#38=ORIENTED_EDGE('',*,*,#67,.F.);
#39=ORIENTED_EDGE('',*,*,#64,.T.);
#40=ORIENTED_EDGE('',*,*,#68,.T.);
#41=ORIENTED_EDGE('',*,*,#69,.T.);
#42=ORIENTED_EDGE('',*,*,#62,.F.);
#43=ORIENTED_EDGE('',*,*,#70,.T.);
#44=ORIENTED_EDGE('',*,*,#58,.F.);
#45=ORIENTED_EDGE('',*,*,#55,.T.);
#46=ORIENTED_EDGE('',*,*,#63,.F.);
#47=ORIENTED_EDGE('',*,*,#69,.F.);
#48=ORIENTED_EDGE('',*,*,#57,.F.);
#49=ORIENTED_EDGE('',*,*,#65,.T.);
#50=ORIENTED_EDGE('',*,*,#59,.F.);
#51=ORIENTED_EDGE('',*,*,#70,.F.);
#52=ORIENTED_EDGE('',*,*,#61,.F.);
#53=ORIENTED_EDGE('',*,*,#66,.F.);
#54=ORIENTED_EDGE('',*,*,#68,.F.);
#55=EDGE_CURVE('',#71,#72,#83,.T.);
#56=EDGE_CURVE('',#71,#72,#15,.T.);
#57=EDGE_CURVE('',#71,#73,#84,.T.);
#58=EDGE_CURVE('',#73,#74,#16,.T.);
#59=EDGE_CURVE('',#74,#75,#85,.F.);
#60=EDGE_CURVE('',#76,#75,#17,.T.);
#61=EDGE_CURVE('',#76,#77,#86,.T.);
#62=EDGE_CURVE('',#77,#78,#18,.T.);
#63=EDGE_CURVE('',#78,#72,#87,.F.);
#64=EDGE_CURVE('',#79,#79,#19,.T.);
#65=EDGE_CURVE('',#76,#75,#88,.T.);
#66=EDGE_CURVE('',#80,#80,#20,.T.);
#67=EDGE_CURVE('',#81,#81,#21,.T.);
#68=EDGE_CURVE('',#82,#82,#22,.F.);
#69=EDGE_CURVE('',#73,#78,#89,.T.);
#70=EDGE_CURVE('',#77,#74,#90,.T.);
#71=VERTEX_POINT('',#216);
#72=VERTEX_POINT('',#217);
#73=VERTEX_POINT('',#221);
#74=VERTEX_POINT('',#223);
#75=VERTEX_POINT('',#225);
#76=VERTEX_POINT('',#227);
#77=VERTEX_POINT('',#229);
#78=VERTEX_POINT('',#231);
#79=VERTEX_POINT('',#234);
#80=VERTEX_POINT('',#239);
#81=VERTEX_POINT('',#241);
#82=VERTEX_POINT('',#245);
#83=LINE('',#215,#91);
#84=LINE('',#220,#92);
#85=LINE('',#224,#93);
#86=LINE('',#228,#94);
#87=LINE('',#232,#95);
#88=LINE('',#236,#96);
#89=LINE('',#247,#97);
#90=LINE('',#248,#98);
#91=VECTOR('',#171,1.);
#92=VECTOR('',#176,1.);
#93=VECTOR('',#179,1.);
#94=VECTOR('',#182,1.);
#95=VECTOR('',#185,1.);
#96=VECTOR('',#190,1.);
#97=VECTOR('',#205,1.);
#98=VECTOR('',#206,1.);
#99=EDGE_LOOP('',(#23,#24));
#100=EDGE_LOOP('',(#25,#26,#27,#28,#29,#30,#31,#32));
#101=EDGE_LOOP('',(#33));
#102=EDGE_LOOP('',(#34,#35));
#103=EDGE_LOOP('',(#36));
#104=EDGE_LOOP('',(#37));
#105=EDGE_LOOP('',(#38));
#106=EDGE_LOOP('',(#39));
#107=EDGE_LOOP('',(#40));
#108=EDGE_LOOP('',(#41,#42,#43,#44));
#109=EDGE_LOOP('',(#45,#46,#47,#48));
#110=EDGE_LOOP('',(#49,#50,#51,#52));
#111=EDGE_LOOP('',(#53));
#112=EDGE_LOOP('',(#54));
#113=FACE_BOUND('',#99,.T.);
#114=FACE_BOUND('',#100,.T.);
#115=FACE_BOUND('',#101,.T.);
#116=FACE_BOUND('',#102,.T.);
#117=FACE_BOUND('',#103,.T.);
#118=FACE_BOUND('',#104,.T.);
#119=FACE_BOUND('',#105,.T.);
#120=FACE_BOUND('',#106,.T.);
#121=FACE_BOUND('',#107,.T.);
#122=FACE_BOUND('',#108,.T.);
#123=FACE_BOUND('',#109,.T.);
#124=FACE_BOUND('',#110,.T.);
#125=FACE_BOUND('',#111,.T.);
#126=FACE_BOUND('',#112,.T.);
#127=PLANE('',#149);
#128=PLANE('',#156);
#129=PLANE('',#160);
#130=PLANE('',#161);
#131=PLANE('',#163);
#132=PLANE('',#164);
#133=PLANE('',#165);
#134=ADVANCED_FACE('',(#113),#127,.T.);
#135=ADVANCED_FACE('',(#114,#115),#13,.T.);
#136=ADVANCED_FACE('',(#116),#128,.T.);
#137=ADVANCED_FACE('',(#117,#118),#14,.T.);
#138=ADVANCED_FACE('',(#119,#120),#129,.F.);
#139=ADVANCED_FACE('',(#121),#130,.F.);
#140=ADVANCED_FACE('',(#122),#131,.F.);
#141=ADVANCED_FACE('',(#123),#132,.F.);
#142=ADVANCED_FACE('',(#124),#133,.F.);
#143=ADVANCED_FACE('',(#125,#126),#12,.T.);
#144=CLOSED_SHELL('',(#134,#135,#136,#137,#138,#139,#140,#141,#142,#143));
#145=MANIFOLD_SOLID_BREP('',#144);
#146=SHAPE_DEFINITION_REPRESENTATION(#257,#147);
#147=SHAPE_REPRESENTATION('id2',(#148),#252);
#148=AXIS2_PLACEMENT_3D('',#213,#167,#168);
#149=AXIS2_PLACEMENT_3D('',#214,#169,#170);
#150=AXIS2_PLACEMENT_3D('',#218,#172,#173);
#151=AXIS2_PLACEMENT_3D('',#219,#174,#175);
#152=AXIS2_PLACEMENT_3D('',#222,#177,#178);
#153=AXIS2_PLACEMENT_3D('',#226,#180,#181);
#154=AXIS2_PLACEMENT_3D('',#230,#183,#184);
#155=AXIS2_PLACEMENT_3D('',#233,#186,#187);
#156=AXIS2_PLACEMENT_3D('',#235,#188,#189);
#157=AXIS2_PLACEMENT_3D('',#237,#191,#192);
#158=AXIS2_PLACEMENT_3D('',#238,#193,#194);
#159=AXIS2_PLACEMENT_3D('',#240,#195,#196);
#160=AXIS2_PLACEMENT_3D('',#242,#197,#198);
#161=AXIS2_PLACEMENT_3D('',#243,#199,#200);
#162=AXIS2_PLACEMENT_3D('',#244,#201,#202);
#163=AXIS2_PLACEMENT_3D('',#246,#203,#204);
#164=AXIS2_PLACEMENT_3D('',#249,#207,#208);
#165=AXIS2_PLACEMENT_3D('',#250,#209,#210);
#166=AXIS2_PLACEMENT_3D('',#251,#211,#212);
#167=DIRECTION('',(0.,0.,1.));
#168=DIRECTION('',(1.,0.,0.));
#169=DIRECTION('',(0.,1.,0.));
#170=DIRECTION('',(0.,0.,1.));
#171=DIRECTION('',(0.,0.,-1.));
#172=DIRECTION('',(0.,1.,0.));
#173=DIRECTION('',(0.,0.,1.));
#174=DIRECTION('',(0.,-1.,0.));
#175=DIRECTION('',(0.,0.,-1.));
#176=DIRECTION('',(0.,-1.,0.));
#177=DIRECTION('',(0.,-1.,0.));
#178=DIRECTION('',(0.,0.,-1.));
#179=DIRECTION('',(0.,-1.,0.));
#180=DIRECTION('',(0.,1.,0.));
#181=DIRECTION('',(0.,0.,1.));
#182=DIRECTION('',(0.,-1.,0.));
#183=DIRECTION('',(0.,-1.,0.));
#184=DIRECTION('',(0.,0.,-1.));
#185=DIRECTION('',(0.,-1.,0.));
#186=DIRECTION('',(0.,-1.,0.));
#187=DIRECTION('',(0.,0.,-1.));
#188=DIRECTION('',(0.,1.,0.));
#189=DIRECTION('',(0.,0.,1.));
#190=DIRECTION('',(0.,0.,1.));
#191=DIRECTION('',(0.,-1.,0.));
#192=DIRECTION('',(0.,0.,-1.));
#193=DIRECTION('',(0.,1.,0.));
#194=DIRECTION('',(0.,0.,1.));
#195=DIRECTION('',(0.,-1.,0.));
#196=DIRECTION('',(0.,0.,-1.));
#197=DIRECTION('',(0.,1.,0.));
#198=DIRECTION('',(0.,0.,1.));
#199=DIRECTION('',(0.,1.,0.));
#200=DIRECTION('',(0.,0.,1.));
#201=DIRECTION('',(0.,1.,0.));
#202=DIRECTION('',(0.,0.,1.));
#203=DIRECTION('',(0.,-1.,0.));
#204=DIRECTION('',(0.,0.,-1.));
#205=DIRECTION('',(0.,0.,-1.));
#206=DIRECTION('',(0.,0.,1.));
#207=DIRECTION('',(1.,0.,0.));
#208=DIRECTION('',(0.,0.,-1.));
#209=DIRECTION('',(-1.,0.,0.));
#210=DIRECTION('',(0.,0.,1.));
#211=DIRECTION('',(0.,1.,0.));
#212=DIRECTION('',(0.,0.,1.));
#213=CARTESIAN_POINT('',(0.,0.,0.));
#214=CARTESIAN_POINT('',(0.,0.003,0.));
#215=CARTESIAN_POINT('',(0.00025,0.003,0.));
#216=CARTESIAN_POINT('',(0.00025,0.003,0.00173205080756888));
#217=CARTESIAN_POINT('',(0.00025,0.003,-0.00173205080756888));
#218=CARTESIAN_POINT('',(0.,0.003,0.));
#219=CARTESIAN_POINT('',(0.,0.003,0.));
#220=CARTESIAN_POINT('',(0.00025,0.003,0.00173205080756888));
#221=CARTESIAN_POINT('',(0.00025,0.0027,0.00173205080756888));
#222=CARTESIAN_POINT('',(0.,0.0027,0.));
#223=CARTESIAN_POINT('',(-0.00025,0.0027,0.00173205080756888));
#224=CARTESIAN_POINT('',(-0.00025,0.003,0.00173205080756888));
#225=CARTESIAN_POINT('',(-0.00025,0.003,0.00173205080756888));
#226=CARTESIAN_POINT('',(0.,0.003,0.));
#227=CARTESIAN_POINT('',(-0.00025,0.003,-0.00173205080756888));
#228=CARTESIAN_POINT('',(-0.00025,0.003,-0.00173205080756888));
#229=CARTESIAN_POINT('',(-0.00025,0.0027,-0.00173205080756888));
#230=CARTESIAN_POINT('',(0.,0.0027,0.));
#231=CARTESIAN_POINT('',(0.00025,0.0027,-0.00173205080756888));
#232=CARTESIAN_POINT('',(0.00025,0.003,-0.00173205080756888));
#233=CARTESIAN_POINT('',(0.,0.0026,0.));
#234=CARTESIAN_POINT('',(0.,0.0026,-0.00175));
#235=CARTESIAN_POINT('',(0.,0.003,0.));
#236=CARTESIAN_POINT('',(-0.00025,0.003,0.));
#237=CARTESIAN_POINT('',(0.,0.,0.));
#238=CARTESIAN_POINT('',(0.,0.0003,0.));
#239=CARTESIAN_POINT('',(0.,0.0003,0.00085));
#240=CARTESIAN_POINT('',(0.,0.0026,0.));
#241=CARTESIAN_POINT('',(0.,0.0026,-0.00085));
#242=CARTESIAN_POINT('',(0.00175,0.0026,0.));
#243=CARTESIAN_POINT('',(0.,0.,0.));
#244=CARTESIAN_POINT('',(0.,0.,0.));
#245=CARTESIAN_POINT('',(0.,0.,0.00055));
#246=CARTESIAN_POINT('',(0.,0.0027,0.));
#247=CARTESIAN_POINT('',(0.00025,0.0027,0.00185));
#248=CARTESIAN_POINT('',(-0.00025,0.0027,0.00185));
#249=CARTESIAN_POINT('',(0.00025,0.0027,0.00185));
#250=CARTESIAN_POINT('',(-0.00025,0.0027,0.00185));
#251=CARTESIAN_POINT('',(0.,0.,0.));
#252=(
GEOMETRIC_REPRESENTATION_CONTEXT(3)
GLOBAL_UNCERTAINTY_ASSIGNED_CONTEXT((#253))
GLOBAL_UNIT_ASSIGNED_CONTEXT((#256,#255,#254))
REPRESENTATION_CONTEXT('id2','TOP_LEVEL_ASSEMBLY_PART')
);
#253=UNCERTAINTY_MEASURE_WITH_UNIT(LENGTH_MEASURE(1.E-8),#256,
'DISTANCE_ACCURACY_VALUE','Maximum Tolerance applied to model');
#254=(
NAMED_UNIT(*)
SI_UNIT($,.STERADIAN.)
SOLID_ANGLE_UNIT()
);
#255=(
NAMED_UNIT(*)
PLANE_ANGLE_UNIT()
SI_UNIT($,.RADIAN.)
);
#256=(
LENGTH_UNIT()
NAMED_UNIT(*)
SI_UNIT($,.METRE.)
);
#257=PRODUCT_DEFINITION_SHAPE('','',#258);
#258=PRODUCT_DEFINITION('','',#260,#259);
#259=PRODUCT_DEFINITION_CONTEXT('',#266,'design');
#260=PRODUCT_DEFINITION_FORMATION_WITH_SPECIFIED_SOURCE('','',#262,
 .NOT_KNOWN.);
#261=PRODUCT_RELATED_PRODUCT_CATEGORY('','',(#262));
#262=PRODUCT('id2','id2','id2',(#264));
#263=PRODUCT_CATEGORY('','');
#264=PRODUCT_CONTEXT('',#266,'mechanical');
#265=APPLICATION_PROTOCOL_DEFINITION('international standard',
'ap242_managed_model_based_3d_engineering',2020,#266);
#266=APPLICATION_CONTEXT('managed model based 3d engineering');
ENDSEC;
END-ISO-10303-21;
