ISO-10303-21;
HEADER;
/* Generated by software containing ST-Developer
 * from STEP Tools, Inc. (www.steptools.com) 
 */
/* OPTION: using custom renumber hook */

FILE_DESCRIPTION(
/* description */ ('STEP AP242 Edition 2',
'CAx-IF Rec.Pracs.---Representation and Presentation of Product Manufa
cturing Information (PMI)---4.0---2014-10-13',
'CAx-IF Rec.Pracs.---3D Tessellated Geometry---0.4---2014-09-14','2;1',
'CAx-IF Rec.Pracs.---User Defined Attributes---1.5---2016-08-15'),
/* implementation_level */ '2;1');

FILE_NAME(
/* name */ '10053',
/* time_stamp */ '2026-07-13T04:48:13Z',
/* author */ (''),
/* organization */ (''),
/* preprocessor_version */ 'ST-DEVELOPER v20',
/* originating_system */ 'ONSHAPE BY PTC INC, 1.217',
/* authorisation */ '  ');

FILE_SCHEMA (('AP242_MANAGED_MODEL_BASED_3D_ENGINEERING_MIM_LF { 1 0 10303 442 3 1 4 }'));
ENDSEC;

DATA;
#10=SHAPE_REPRESENTATION_RELATIONSHIP('','',#440,#11);
#11=ADVANCED_BREP_SHAPE_REPRESENTATION('',(#438),#761);
#12=PLANE('',#445);
#13=PLANE('',#452);
#14=PLANE('',#459);
#15=PLANE('',#466);
#16=PLANE('',#473);
#17=PLANE('',#477);
#18=PLANE('',#482);
#19=PLANE('',#488);
#20=PLANE('',#489);
#21=LINE('',#637,#56);
#22=LINE('',#641,#57);
#23=LINE('',#643,#58);
#24=LINE('',#645,#59);
#25=LINE('',#647,#60);
#26=LINE('',#651,#61);
#27=LINE('',#657,#62);
#28=LINE('',#661,#63);
#29=LINE('',#663,#64);
#30=LINE('',#665,#65);
#31=LINE('',#669,#66);
#32=LINE('',#675,#67);
#33=LINE('',#679,#68);
#34=LINE('',#681,#69);
#35=LINE('',#683,#70);
#36=LINE('',#687,#71);
#37=LINE('',#693,#72);
#38=LINE('',#697,#73);
#39=LINE('',#699,#74);
#40=LINE('',#701,#75);
#41=LINE('',#705,#76);
#42=LINE('',#711,#77);
#43=LINE('',#715,#78);
#44=LINE('',#717,#79);
#45=LINE('',#719,#80);
#46=LINE('',#724,#81);
#47=LINE('',#729,#82);
#48=LINE('',#737,#83);
#49=LINE('',#742,#84);
#50=LINE('',#750,#85);
#51=LINE('',#751,#86);
#52=LINE('',#753,#87);
#53=LINE('',#754,#88);
#54=LINE('',#756,#89);
#55=LINE('',#757,#90);
#56=VECTOR('',#499,1.);
#57=VECTOR('',#502,1.);
#58=VECTOR('',#505,1.);
#59=VECTOR('',#506,1.);
#60=VECTOR('',#507,1.);
#61=VECTOR('',#512,1.);
#62=VECTOR('',#519,1.);
#63=VECTOR('',#524,1.);
#64=VECTOR('',#525,1.);
#65=VECTOR('',#526,1.);
#66=VECTOR('',#531,1.);
#67=VECTOR('',#538,1.);
#68=VECTOR('',#543,1.);
#69=VECTOR('',#544,1.);
#70=VECTOR('',#545,1.);
#71=VECTOR('',#550,1.);
#72=VECTOR('',#557,1.);
#73=VECTOR('',#562,1.);
#74=VECTOR('',#563,1.);
#75=VECTOR('',#564,1.);
#76=VECTOR('',#569,1.);
#77=VECTOR('',#576,1.);
#78=VECTOR('',#581,1.);
#79=VECTOR('',#582,1.);
#80=VECTOR('',#583,1.);
#81=VECTOR('',#592,1.);
#82=VECTOR('',#595,1.);
#83=VECTOR('',#604,1.);
#84=VECTOR('',#607,1.);
#85=VECTOR('',#616,1.);
#86=VECTOR('',#617,1.);
#87=VECTOR('',#620,1.);
#88=VECTOR('',#621,1.);
#89=VECTOR('',#624,1.);
#90=VECTOR('',#625,1.);
#91=ORIENTED_EDGE('',*,*,#217,.T.);
#92=ORIENTED_EDGE('',*,*,#218,.F.);
#93=ORIENTED_EDGE('',*,*,#219,.F.);
#94=ORIENTED_EDGE('',*,*,#220,.T.);
#95=ORIENTED_EDGE('',*,*,#221,.T.);
#96=ORIENTED_EDGE('',*,*,#222,.F.);
#97=ORIENTED_EDGE('',*,*,#223,.F.);
#98=ORIENTED_EDGE('',*,*,#218,.T.);
#99=ORIENTED_EDGE('',*,*,#224,.T.);
#100=ORIENTED_EDGE('',*,*,#225,.F.);
#101=ORIENTED_EDGE('',*,*,#226,.F.);
#102=ORIENTED_EDGE('',*,*,#222,.T.);
#103=ORIENTED_EDGE('',*,*,#227,.T.);
#104=ORIENTED_EDGE('',*,*,#228,.F.);
#105=ORIENTED_EDGE('',*,*,#229,.F.);
#106=ORIENTED_EDGE('',*,*,#225,.T.);
#107=ORIENTED_EDGE('',*,*,#230,.T.);
#108=ORIENTED_EDGE('',*,*,#231,.F.);
#109=ORIENTED_EDGE('',*,*,#232,.F.);
#110=ORIENTED_EDGE('',*,*,#228,.T.);
#111=ORIENTED_EDGE('',*,*,#233,.T.);
#112=ORIENTED_EDGE('',*,*,#234,.F.);
#113=ORIENTED_EDGE('',*,*,#235,.F.);
#114=ORIENTED_EDGE('',*,*,#231,.T.);
#115=ORIENTED_EDGE('',*,*,#236,.T.);
#116=ORIENTED_EDGE('',*,*,#237,.F.);
#117=ORIENTED_EDGE('',*,*,#238,.F.);
#118=ORIENTED_EDGE('',*,*,#234,.T.);
#119=ORIENTED_EDGE('',*,*,#239,.T.);
#120=ORIENTED_EDGE('',*,*,#240,.F.);
#121=ORIENTED_EDGE('',*,*,#241,.F.);
#122=ORIENTED_EDGE('',*,*,#237,.T.);
#123=ORIENTED_EDGE('',*,*,#242,.T.);
#124=ORIENTED_EDGE('',*,*,#243,.F.);
#125=ORIENTED_EDGE('',*,*,#244,.F.);
#126=ORIENTED_EDGE('',*,*,#240,.T.);
#127=ORIENTED_EDGE('',*,*,#245,.T.);
#128=ORIENTED_EDGE('',*,*,#246,.F.);
#129=ORIENTED_EDGE('',*,*,#247,.F.);
#130=ORIENTED_EDGE('',*,*,#243,.T.);
#131=ORIENTED_EDGE('',*,*,#248,.T.);
#132=ORIENTED_EDGE('',*,*,#249,.F.);
#133=ORIENTED_EDGE('',*,*,#250,.F.);
#134=ORIENTED_EDGE('',*,*,#246,.T.);
#135=ORIENTED_EDGE('',*,*,#251,.T.);
#136=ORIENTED_EDGE('',*,*,#252,.F.);
#137=ORIENTED_EDGE('',*,*,#253,.F.);
#138=ORIENTED_EDGE('',*,*,#249,.T.);
#139=ORIENTED_EDGE('',*,*,#254,.T.);
#140=ORIENTED_EDGE('',*,*,#255,.F.);
#141=ORIENTED_EDGE('',*,*,#256,.F.);
#142=ORIENTED_EDGE('',*,*,#252,.T.);
#143=ORIENTED_EDGE('',*,*,#257,.T.);
#144=ORIENTED_EDGE('',*,*,#258,.F.);
#145=ORIENTED_EDGE('',*,*,#259,.F.);
#146=ORIENTED_EDGE('',*,*,#255,.T.);
#147=ORIENTED_EDGE('',*,*,#260,.T.);
#148=ORIENTED_EDGE('',*,*,#220,.F.);
#149=ORIENTED_EDGE('',*,*,#261,.F.);
#150=ORIENTED_EDGE('',*,*,#258,.T.);
#151=ORIENTED_EDGE('',*,*,#262,.F.);
#152=ORIENTED_EDGE('',*,*,#263,.T.);
#153=ORIENTED_EDGE('',*,*,#264,.F.);
#154=ORIENTED_EDGE('',*,*,#265,.T.);
#155=ORIENTED_EDGE('',*,*,#266,.F.);
#156=ORIENTED_EDGE('',*,*,#267,.T.);
#157=ORIENTED_EDGE('',*,*,#219,.T.);
#158=ORIENTED_EDGE('',*,*,#223,.T.);
#159=ORIENTED_EDGE('',*,*,#226,.T.);
#160=ORIENTED_EDGE('',*,*,#229,.T.);
#161=ORIENTED_EDGE('',*,*,#232,.T.);
#162=ORIENTED_EDGE('',*,*,#235,.T.);
#163=ORIENTED_EDGE('',*,*,#238,.T.);
#164=ORIENTED_EDGE('',*,*,#241,.T.);
#165=ORIENTED_EDGE('',*,*,#244,.T.);
#166=ORIENTED_EDGE('',*,*,#247,.T.);
#167=ORIENTED_EDGE('',*,*,#250,.T.);
#168=ORIENTED_EDGE('',*,*,#253,.T.);
#169=ORIENTED_EDGE('',*,*,#256,.T.);
#170=ORIENTED_EDGE('',*,*,#259,.T.);
#171=ORIENTED_EDGE('',*,*,#261,.T.);
#172=ORIENTED_EDGE('',*,*,#268,.F.);
#173=ORIENTED_EDGE('',*,*,#269,.T.);
#174=ORIENTED_EDGE('',*,*,#270,.F.);
#175=ORIENTED_EDGE('',*,*,#271,.T.);
#176=ORIENTED_EDGE('',*,*,#272,.F.);
#177=ORIENTED_EDGE('',*,*,#273,.T.);
#178=ORIENTED_EDGE('',*,*,#217,.F.);
#179=ORIENTED_EDGE('',*,*,#260,.F.);
#180=ORIENTED_EDGE('',*,*,#257,.F.);
#181=ORIENTED_EDGE('',*,*,#254,.F.);
#182=ORIENTED_EDGE('',*,*,#251,.F.);
#183=ORIENTED_EDGE('',*,*,#248,.F.);
#184=ORIENTED_EDGE('',*,*,#245,.F.);
#185=ORIENTED_EDGE('',*,*,#242,.F.);
#186=ORIENTED_EDGE('',*,*,#239,.F.);
#187=ORIENTED_EDGE('',*,*,#236,.F.);
#188=ORIENTED_EDGE('',*,*,#233,.F.);
#189=ORIENTED_EDGE('',*,*,#230,.F.);
#190=ORIENTED_EDGE('',*,*,#227,.F.);
#191=ORIENTED_EDGE('',*,*,#224,.F.);
#192=ORIENTED_EDGE('',*,*,#221,.F.);
#193=ORIENTED_EDGE('',*,*,#266,.T.);
#194=ORIENTED_EDGE('',*,*,#274,.T.);
#195=ORIENTED_EDGE('',*,*,#272,.T.);
#196=ORIENTED_EDGE('',*,*,#275,.T.);
#197=ORIENTED_EDGE('',*,*,#270,.T.);
#198=ORIENTED_EDGE('',*,*,#276,.T.);
#199=ORIENTED_EDGE('',*,*,#262,.T.);
#200=ORIENTED_EDGE('',*,*,#277,.T.);
#201=ORIENTED_EDGE('',*,*,#264,.T.);
#202=ORIENTED_EDGE('',*,*,#278,.T.);
#203=ORIENTED_EDGE('',*,*,#268,.T.);
#204=ORIENTED_EDGE('',*,*,#279,.T.);
#205=ORIENTED_EDGE('',*,*,#273,.F.);
#206=ORIENTED_EDGE('',*,*,#274,.F.);
#207=ORIENTED_EDGE('',*,*,#265,.F.);
#208=ORIENTED_EDGE('',*,*,#279,.F.);
#209=ORIENTED_EDGE('',*,*,#271,.F.);
#210=ORIENTED_EDGE('',*,*,#277,.F.);
#211=ORIENTED_EDGE('',*,*,#267,.F.);
#212=ORIENTED_EDGE('',*,*,#275,.F.);
#213=ORIENTED_EDGE('',*,*,#269,.F.);
#214=ORIENTED_EDGE('',*,*,#278,.F.);
#215=ORIENTED_EDGE('',*,*,#263,.F.);
#216=ORIENTED_EDGE('',*,*,#276,.F.);
#217=EDGE_CURVE('',#280,#281,#322,.T.);
#218=EDGE_CURVE('',#282,#281,#21,.T.);
#219=EDGE_CURVE('',#283,#282,#323,.T.);
#220=EDGE_CURVE('',#283,#280,#22,.T.);
#221=EDGE_CURVE('',#281,#284,#23,.T.);
#222=EDGE_CURVE('',#285,#284,#24,.T.);
#223=EDGE_CURVE('',#282,#285,#25,.T.);
#224=EDGE_CURVE('',#284,#286,#324,.T.);
#225=EDGE_CURVE('',#287,#286,#26,.T.);
#226=EDGE_CURVE('',#285,#287,#325,.T.);
#227=EDGE_CURVE('',#286,#288,#326,.T.);
#228=EDGE_CURVE('',#289,#288,#27,.T.);
#229=EDGE_CURVE('',#287,#289,#327,.T.);
#230=EDGE_CURVE('',#288,#290,#28,.T.);
#231=EDGE_CURVE('',#291,#290,#29,.T.);
#232=EDGE_CURVE('',#289,#291,#30,.T.);
#233=EDGE_CURVE('',#290,#292,#328,.T.);
#234=EDGE_CURVE('',#293,#292,#31,.T.);
#235=EDGE_CURVE('',#291,#293,#329,.T.);
#236=EDGE_CURVE('',#292,#294,#330,.T.);
#237=EDGE_CURVE('',#295,#294,#32,.T.);
#238=EDGE_CURVE('',#293,#295,#331,.T.);
#239=EDGE_CURVE('',#294,#296,#33,.T.);
#240=EDGE_CURVE('',#297,#296,#34,.T.);
#241=EDGE_CURVE('',#295,#297,#35,.T.);
#242=EDGE_CURVE('',#296,#298,#332,.T.);
#243=EDGE_CURVE('',#299,#298,#36,.T.);
#244=EDGE_CURVE('',#297,#299,#333,.T.);
#245=EDGE_CURVE('',#298,#300,#334,.T.);
#246=EDGE_CURVE('',#301,#300,#37,.T.);
#247=EDGE_CURVE('',#299,#301,#335,.T.);
#248=EDGE_CURVE('',#300,#302,#38,.T.);
#249=EDGE_CURVE('',#303,#302,#39,.T.);
#250=EDGE_CURVE('',#301,#303,#40,.T.);
#251=EDGE_CURVE('',#302,#304,#336,.T.);
#252=EDGE_CURVE('',#305,#304,#41,.T.);
#253=EDGE_CURVE('',#303,#305,#337,.T.);
#254=EDGE_CURVE('',#304,#306,#338,.T.);
#255=EDGE_CURVE('',#307,#306,#42,.T.);
#256=EDGE_CURVE('',#305,#307,#339,.T.);
#257=EDGE_CURVE('',#306,#308,#43,.T.);
#258=EDGE_CURVE('',#309,#308,#44,.T.);
#259=EDGE_CURVE('',#307,#309,#45,.T.);
#260=EDGE_CURVE('',#308,#280,#340,.T.);
#261=EDGE_CURVE('',#309,#283,#341,.T.);
#262=EDGE_CURVE('',#310,#311,#46,.T.);
#263=EDGE_CURVE('',#310,#312,#342,.T.);
#264=EDGE_CURVE('',#313,#312,#47,.T.);
#265=EDGE_CURVE('',#313,#314,#343,.F.);
#266=EDGE_CURVE('',#315,#314,#344,.T.);
#267=EDGE_CURVE('',#315,#311,#345,.F.);
#268=EDGE_CURVE('',#316,#317,#48,.T.);
#269=EDGE_CURVE('',#316,#318,#346,.F.);
#270=EDGE_CURVE('',#319,#318,#49,.T.);
#271=EDGE_CURVE('',#319,#320,#347,.T.);
#272=EDGE_CURVE('',#321,#320,#348,.F.);
#273=EDGE_CURVE('',#321,#317,#349,.T.);
#274=EDGE_CURVE('',#314,#321,#50,.F.);
#275=EDGE_CURVE('',#320,#315,#51,.T.);
#276=EDGE_CURVE('',#318,#310,#52,.T.);
#277=EDGE_CURVE('',#311,#319,#53,.T.);
#278=EDGE_CURVE('',#312,#316,#54,.F.);
#279=EDGE_CURVE('',#317,#313,#55,.F.);
#280=VERTEX_POINT('',#635);
#281=VERTEX_POINT('',#636);
#282=VERTEX_POINT('',#638);
#283=VERTEX_POINT('',#640);
#284=VERTEX_POINT('',#644);
#285=VERTEX_POINT('',#646);
#286=VERTEX_POINT('',#650);
#287=VERTEX_POINT('',#652);
#288=VERTEX_POINT('',#656);
#289=VERTEX_POINT('',#658);
#290=VERTEX_POINT('',#662);
#291=VERTEX_POINT('',#664);
#292=VERTEX_POINT('',#668);
#293=VERTEX_POINT('',#670);
#294=VERTEX_POINT('',#674);
#295=VERTEX_POINT('',#676);
#296=VERTEX_POINT('',#680);
#297=VERTEX_POINT('',#682);
#298=VERTEX_POINT('',#686);
#299=VERTEX_POINT('',#688);
#300=VERTEX_POINT('',#692);
#301=VERTEX_POINT('',#694);
#302=VERTEX_POINT('',#698);
#303=VERTEX_POINT('',#700);
#304=VERTEX_POINT('',#704);
#305=VERTEX_POINT('',#706);
#306=VERTEX_POINT('',#710);
#307=VERTEX_POINT('',#712);
#308=VERTEX_POINT('',#716);
#309=VERTEX_POINT('',#718);
#310=VERTEX_POINT('',#725);
#311=VERTEX_POINT('',#726);
#312=VERTEX_POINT('',#728);
#313=VERTEX_POINT('',#730);
#314=VERTEX_POINT('',#732);
#315=VERTEX_POINT('',#734);
#316=VERTEX_POINT('',#738);
#317=VERTEX_POINT('',#739);
#318=VERTEX_POINT('',#741);
#319=VERTEX_POINT('',#743);
#320=VERTEX_POINT('',#745);
#321=VERTEX_POINT('',#747);
#322=CIRCLE('',#443,0.0022);
#323=CIRCLE('',#444,0.0022);
#324=CIRCLE('',#447,0.00075);
#325=CIRCLE('',#448,0.00075);
#326=CIRCLE('',#450,0.0022);
#327=CIRCLE('',#451,0.0022);
#328=CIRCLE('',#454,0.000750000000000016);
#329=CIRCLE('',#455,0.000750000000000016);
#330=CIRCLE('',#457,0.0022);
#331=CIRCLE('',#458,0.0022);
#332=CIRCLE('',#461,0.00075);
#333=CIRCLE('',#462,0.00075);
#334=CIRCLE('',#464,0.0022);
#335=CIRCLE('',#465,0.0022);
#336=CIRCLE('',#468,0.00075);
#337=CIRCLE('',#469,0.00075);
#338=CIRCLE('',#471,0.0022);
#339=CIRCLE('',#472,0.0022);
#340=CIRCLE('',#475,0.00075);
#341=CIRCLE('',#476,0.00075);
#342=CIRCLE('',#478,0.0002);
#343=CIRCLE('',#479,0.0001);
#344=CIRCLE('',#480,0.00115);
#345=CIRCLE('',#481,0.0001);
#346=CIRCLE('',#483,0.0002);
#347=CIRCLE('',#484,0.0001);
#348=CIRCLE('',#485,0.00115);
#349=CIRCLE('',#486,0.0001);
#350=EDGE_LOOP('',(#91,#92,#93,#94));
#351=EDGE_LOOP('',(#95,#96,#97,#98));
#352=EDGE_LOOP('',(#99,#100,#101,#102));
#353=EDGE_LOOP('',(#103,#104,#105,#106));
#354=EDGE_LOOP('',(#107,#108,#109,#110));
#355=EDGE_LOOP('',(#111,#112,#113,#114));
#356=EDGE_LOOP('',(#115,#116,#117,#118));
#357=EDGE_LOOP('',(#119,#120,#121,#122));
#358=EDGE_LOOP('',(#123,#124,#125,#126));
#359=EDGE_LOOP('',(#127,#128,#129,#130));
#360=EDGE_LOOP('',(#131,#132,#133,#134));
#361=EDGE_LOOP('',(#135,#136,#137,#138));
#362=EDGE_LOOP('',(#139,#140,#141,#142));
#363=EDGE_LOOP('',(#143,#144,#145,#146));
#364=EDGE_LOOP('',(#147,#148,#149,#150));
#365=EDGE_LOOP('',(#151,#152,#153,#154,#155,#156));
#366=EDGE_LOOP('',(#157,#158,#159,#160,#161,#162,#163,#164,#165,#166,#167,
#168,#169,#170,#171));
#367=EDGE_LOOP('',(#172,#173,#174,#175,#176,#177));
#368=EDGE_LOOP('',(#178,#179,#180,#181,#182,#183,#184,#185,#186,#187,#188,
#189,#190,#191,#192));
#369=EDGE_LOOP('',(#193,#194,#195,#196));
#370=EDGE_LOOP('',(#197,#198,#199,#200));
#371=EDGE_LOOP('',(#201,#202,#203,#204));
#372=EDGE_LOOP('',(#205,#206,#207,#208));
#373=EDGE_LOOP('',(#209,#210,#211,#212));
#374=EDGE_LOOP('',(#213,#214,#215,#216));
#375=FACE_BOUND('',#350,.T.);
#376=FACE_BOUND('',#351,.T.);
#377=FACE_BOUND('',#352,.T.);
#378=FACE_BOUND('',#353,.T.);
#379=FACE_BOUND('',#354,.T.);
#380=FACE_BOUND('',#355,.T.);
#381=FACE_BOUND('',#356,.T.);
#382=FACE_BOUND('',#357,.T.);
#383=FACE_BOUND('',#358,.T.);
#384=FACE_BOUND('',#359,.T.);
#385=FACE_BOUND('',#360,.T.);
#386=FACE_BOUND('',#361,.T.);
#387=FACE_BOUND('',#362,.T.);
#388=FACE_BOUND('',#363,.T.);
#389=FACE_BOUND('',#364,.T.);
#390=FACE_BOUND('',#365,.T.);
#391=FACE_BOUND('',#366,.T.);
#392=FACE_BOUND('',#367,.T.);
#393=FACE_BOUND('',#368,.T.);
#394=FACE_BOUND('',#369,.T.);
#395=FACE_BOUND('',#370,.T.);
#396=FACE_BOUND('',#371,.T.);
#397=FACE_BOUND('',#372,.T.);
#398=FACE_BOUND('',#373,.T.);
#399=FACE_BOUND('',#374,.T.);
#400=CYLINDRICAL_SURFACE('',#442,0.0022);
#401=CYLINDRICAL_SURFACE('',#446,0.00075);
#402=CYLINDRICAL_SURFACE('',#449,0.0022);
#403=CYLINDRICAL_SURFACE('',#453,0.000750000000000016);
#404=CYLINDRICAL_SURFACE('',#456,0.0022);
#405=CYLINDRICAL_SURFACE('',#460,0.00075);
#406=CYLINDRICAL_SURFACE('',#463,0.0022);
#407=CYLINDRICAL_SURFACE('',#467,0.00075);
#408=CYLINDRICAL_SURFACE('',#470,0.0022);
#409=CYLINDRICAL_SURFACE('',#474,0.00075);
#410=CYLINDRICAL_SURFACE('',#487,0.00115);
#411=CYLINDRICAL_SURFACE('',#490,0.0001);
#412=CYLINDRICAL_SURFACE('',#491,0.0001);
#413=CYLINDRICAL_SURFACE('',#492,0.0002);
#414=ADVANCED_FACE('',(#375),#400,.T.);
#415=ADVANCED_FACE('',(#376),#12,.F.);
#416=ADVANCED_FACE('',(#377),#401,.T.);
#417=ADVANCED_FACE('',(#378),#402,.T.);
#418=ADVANCED_FACE('',(#379),#13,.F.);
#419=ADVANCED_FACE('',(#380),#403,.T.);
#420=ADVANCED_FACE('',(#381),#404,.T.);
#421=ADVANCED_FACE('',(#382),#14,.F.);
#422=ADVANCED_FACE('',(#383),#405,.T.);
#423=ADVANCED_FACE('',(#384),#406,.T.);
#424=ADVANCED_FACE('',(#385),#15,.F.);
#425=ADVANCED_FACE('',(#386),#407,.T.);
#426=ADVANCED_FACE('',(#387),#408,.T.);
#427=ADVANCED_FACE('',(#388),#16,.F.);
#428=ADVANCED_FACE('',(#389),#409,.T.);
#429=ADVANCED_FACE('',(#390,#391),#17,.T.);
#430=ADVANCED_FACE('',(#392,#393),#18,.F.);
#431=ADVANCED_FACE('',(#394),#410,.F.);
#432=ADVANCED_FACE('',(#395),#19,.F.);
#433=ADVANCED_FACE('',(#396),#20,.F.);
#434=ADVANCED_FACE('',(#397),#411,.F.);
#435=ADVANCED_FACE('',(#398),#412,.F.);
#436=ADVANCED_FACE('',(#399),#413,.T.);
#437=CLOSED_SHELL('',(#414,#415,#416,#417,#418,#419,#420,#421,#422,#423,
#424,#425,#426,#427,#428,#429,#430,#431,#432,#433,#434,#435,#436));
#438=MANIFOLD_SOLID_BREP('',#437);
#439=SHAPE_DEFINITION_REPRESENTATION(#766,#440);
#440=SHAPE_REPRESENTATION('id2',(#441),#761);
#441=AXIS2_PLACEMENT_3D('',#632,#493,#494);
#442=AXIS2_PLACEMENT_3D('',#633,#495,#496);
#443=AXIS2_PLACEMENT_3D('',#634,#497,#498);
#444=AXIS2_PLACEMENT_3D('',#639,#500,#501);
#445=AXIS2_PLACEMENT_3D('',#642,#503,#504);
#446=AXIS2_PLACEMENT_3D('',#648,#508,#509);
#447=AXIS2_PLACEMENT_3D('',#649,#510,#511);
#448=AXIS2_PLACEMENT_3D('',#653,#513,#514);
#449=AXIS2_PLACEMENT_3D('',#654,#515,#516);
#450=AXIS2_PLACEMENT_3D('',#655,#517,#518);
#451=AXIS2_PLACEMENT_3D('',#659,#520,#521);
#452=AXIS2_PLACEMENT_3D('',#660,#522,#523);
#453=AXIS2_PLACEMENT_3D('',#666,#527,#528);
#454=AXIS2_PLACEMENT_3D('',#667,#529,#530);
#455=AXIS2_PLACEMENT_3D('',#671,#532,#533);
#456=AXIS2_PLACEMENT_3D('',#672,#534,#535);
#457=AXIS2_PLACEMENT_3D('',#673,#536,#537);
#458=AXIS2_PLACEMENT_3D('',#677,#539,#540);
#459=AXIS2_PLACEMENT_3D('',#678,#541,#542);
#460=AXIS2_PLACEMENT_3D('',#684,#546,#547);
#461=AXIS2_PLACEMENT_3D('',#685,#548,#549);
#462=AXIS2_PLACEMENT_3D('',#689,#551,#552);
#463=AXIS2_PLACEMENT_3D('',#690,#553,#554);
#464=AXIS2_PLACEMENT_3D('',#691,#555,#556);
#465=AXIS2_PLACEMENT_3D('',#695,#558,#559);
#466=AXIS2_PLACEMENT_3D('',#696,#560,#561);
#467=AXIS2_PLACEMENT_3D('',#702,#565,#566);
#468=AXIS2_PLACEMENT_3D('',#703,#567,#568);
#469=AXIS2_PLACEMENT_3D('',#707,#570,#571);
#470=AXIS2_PLACEMENT_3D('',#708,#572,#573);
#471=AXIS2_PLACEMENT_3D('',#709,#574,#575);
#472=AXIS2_PLACEMENT_3D('',#713,#577,#578);
#473=AXIS2_PLACEMENT_3D('',#714,#579,#580);
#474=AXIS2_PLACEMENT_3D('',#720,#584,#585);
#475=AXIS2_PLACEMENT_3D('',#721,#586,#587);
#476=AXIS2_PLACEMENT_3D('',#722,#588,#589);
#477=AXIS2_PLACEMENT_3D('',#723,#590,#591);
#478=AXIS2_PLACEMENT_3D('',#727,#593,#594);
#479=AXIS2_PLACEMENT_3D('',#731,#596,#597);
#480=AXIS2_PLACEMENT_3D('',#733,#598,#599);
#481=AXIS2_PLACEMENT_3D('',#735,#600,#601);
#482=AXIS2_PLACEMENT_3D('',#736,#602,#603);
#483=AXIS2_PLACEMENT_3D('',#740,#605,#606);
#484=AXIS2_PLACEMENT_3D('',#744,#608,#609);
#485=AXIS2_PLACEMENT_3D('',#746,#610,#611);
#486=AXIS2_PLACEMENT_3D('',#748,#612,#613);
#487=AXIS2_PLACEMENT_3D('',#749,#614,#615);
#488=AXIS2_PLACEMENT_3D('',#752,#618,#619);
#489=AXIS2_PLACEMENT_3D('',#755,#622,#623);
#490=AXIS2_PLACEMENT_3D('',#758,#626,#627);
#491=AXIS2_PLACEMENT_3D('',#759,#628,#629);
#492=AXIS2_PLACEMENT_3D('',#760,#630,#631);
#493=DIRECTION('',(0.,0.,1.));
#494=DIRECTION('',(1.,0.,0.));
#495=DIRECTION('',(0.,-1.,0.));
#496=DIRECTION('',(0.,0.,-1.));
#497=DIRECTION('',(0.,1.,0.));
#498=DIRECTION('',(0.,0.,1.));
#499=DIRECTION('',(0.,-1.,0.));
#500=DIRECTION('',(0.,1.,0.));
#501=DIRECTION('',(0.,0.,1.));
#502=DIRECTION('',(0.,-1.,0.));
#503=DIRECTION('',(0.810377443811132,0.,0.585908182706246));
#504=DIRECTION('',(0.585908182706246,0.,-0.810377443811132));
#505=DIRECTION('',(-0.585908182706246,0.,0.810377443811132));
#506=DIRECTION('',(0.,-1.,0.));
#507=DIRECTION('',(-0.585908182706246,0.,0.810377443811132));
#508=DIRECTION('',(0.,-1.,0.));
#509=DIRECTION('',(0.,0.,-1.));
#510=DIRECTION('',(0.,1.,0.));
#511=DIRECTION('',(0.,0.,1.));
#512=DIRECTION('',(0.,-1.,0.));
#513=DIRECTION('',(0.,1.,0.));
#514=DIRECTION('',(0.,0.,1.));
#515=DIRECTION('',(0.,-1.,0.));
#516=DIRECTION('',(0.,0.,-1.));
#517=DIRECTION('',(0.,1.,0.));
#518=DIRECTION('',(0.,0.,1.));
#519=DIRECTION('',(0.,-1.,0.));
#520=DIRECTION('',(0.,1.,0.));
#521=DIRECTION('',(0.,0.,1.));
#522=DIRECTION('',(0.807652197109201,0.,-0.589659162995608));
#523=DIRECTION('',(-0.589659162995608,0.,-0.807652197109201));
#524=DIRECTION('',(0.589659162995608,0.,0.807652197109201));
#525=DIRECTION('',(0.,-1.,0.));
#526=DIRECTION('',(0.589659162995608,0.,0.807652197109201));
#527=DIRECTION('',(0.,-1.,0.));
#528=DIRECTION('',(0.,0.,-1.));
#529=DIRECTION('',(0.,1.,0.));
#530=DIRECTION('',(0.,0.,1.));
#531=DIRECTION('',(0.,-1.,0.));
#532=DIRECTION('',(0.,1.,0.));
#533=DIRECTION('',(0.,0.,1.));
#534=DIRECTION('',(0.,-1.,0.));
#535=DIRECTION('',(0.,0.,-1.));
#536=DIRECTION('',(0.,1.,0.));
#537=DIRECTION('',(0.,0.,1.));
#538=DIRECTION('',(0.,-1.,0.));
#539=DIRECTION('',(0.,1.,0.));
#540=DIRECTION('',(0.,0.,1.));
#541=DIRECTION('',(-0.311220934909123,0.,-0.950337587215349));
#542=DIRECTION('',(-0.950337587215349,0.,0.311220934909123));
#543=DIRECTION('',(0.950337587215349,0.,-0.311220934909123));
#544=DIRECTION('',(0.,-1.,0.));
#545=DIRECTION('',(0.950337587215349,0.,-0.311220934909123));
#546=DIRECTION('',(0.,-1.,0.));
#547=DIRECTION('',(0.,0.,-1.));
#548=DIRECTION('',(0.,1.,0.));
#549=DIRECTION('',(0.,0.,1.));
#550=DIRECTION('',(0.,-1.,0.));
#551=DIRECTION('',(0.,1.,0.));
#552=DIRECTION('',(0.,0.,1.));
#553=DIRECTION('',(0.,-1.,0.));
#554=DIRECTION('',(0.,0.,-1.));
#555=DIRECTION('',(0.,1.,0.));
#556=DIRECTION('',(0.,0.,1.));
#557=DIRECTION('',(0.,-1.,0.));
#558=DIRECTION('',(0.,1.,0.));
#559=DIRECTION('',(0.,0.,1.));
#560=DIRECTION('',(-0.99999731289355,0.,0.00231823330996412));
#561=DIRECTION('',(0.00231823330996412,0.,0.99999731289355));
#562=DIRECTION('',(-0.00231823330996412,0.,-0.99999731289355));
#563=DIRECTION('',(0.,-1.,0.));
#564=DIRECTION('',(-0.00231823330996412,0.,-0.99999731289355));
#565=DIRECTION('',(0.,-1.,0.));
#566=DIRECTION('',(0.,0.,-1.));
#567=DIRECTION('',(0.,1.,0.));
#568=DIRECTION('',(0.,0.,1.));
#569=DIRECTION('',(0.,-1.,0.));
#570=DIRECTION('',(0.,1.,0.));
#571=DIRECTION('',(0.,0.,1.));
#572=DIRECTION('',(0.,-1.,0.));
#573=DIRECTION('',(0.,0.,-1.));
#574=DIRECTION('',(0.,1.,0.));
#575=DIRECTION('',(0.,0.,1.));
#576=DIRECTION('',(0.,-1.,0.));
#577=DIRECTION('',(0.,1.,0.));
#578=DIRECTION('',(0.,0.,1.));
#579=DIRECTION('',(-0.306811393117655,0.,0.951770334194759));
#580=DIRECTION('',(0.951770334194759,0.,0.306811393117655));
#581=DIRECTION('',(-0.951770334194759,0.,-0.306811393117655));
#582=DIRECTION('',(0.,-1.,0.));
#583=DIRECTION('',(-0.951770334194759,0.,-0.306811393117655));
#584=DIRECTION('',(0.,-1.,0.));
#585=DIRECTION('',(0.,0.,-1.));
#586=DIRECTION('',(0.,1.,0.));
#587=DIRECTION('',(0.,0.,1.));
#588=DIRECTION('',(0.,1.,0.));
#589=DIRECTION('',(0.,0.,1.));
#590=DIRECTION('',(0.,1.,0.));
#591=DIRECTION('',(0.,0.,1.));
#592=DIRECTION('',(-0.707106781186548,0.,0.707106781186547));
#593=DIRECTION('',(0.,1.,0.));
#594=DIRECTION('',(0.,0.,1.));
#595=DIRECTION('',(0.707106781186548,0.,0.707106781186547));
#596=DIRECTION('',(0.,1.,0.));
#597=DIRECTION('',(0.,0.,1.));
#598=DIRECTION('',(0.,1.,0.));
#599=DIRECTION('',(0.,0.,1.));
#600=DIRECTION('',(0.,1.,0.));
#601=DIRECTION('',(0.,0.,1.));
#602=DIRECTION('',(0.,1.,0.));
#603=DIRECTION('',(0.,0.,1.));
#604=DIRECTION('',(-0.707106781186548,0.,-0.707106781186547));
#605=DIRECTION('',(0.,1.,0.));
#606=DIRECTION('',(0.,0.,1.));
#607=DIRECTION('',(0.707106781186548,0.,-0.707106781186547));
#608=DIRECTION('',(0.,1.,0.));
#609=DIRECTION('',(0.,0.,1.));
#610=DIRECTION('',(0.,1.,0.));
#611=DIRECTION('',(0.,0.,1.));
#612=DIRECTION('',(0.,1.,0.));
#613=DIRECTION('',(0.,0.,1.));
#614=DIRECTION('',(0.,1.,0.));
#615=DIRECTION('',(0.,0.,1.));
#616=DIRECTION('',(0.,1.,0.));
#617=DIRECTION('',(0.,1.,0.));
#618=DIRECTION('',(-0.707106781186547,0.,-0.707106781186548));
#619=DIRECTION('',(-0.707106781186548,0.,0.707106781186547));
#620=DIRECTION('',(0.,1.,0.));
#621=DIRECTION('',(0.,-1.,0.));
#622=DIRECTION('',(-0.707106781186547,0.,0.707106781186548));
#623=DIRECTION('',(0.707106781186548,0.,0.707106781186547));
#624=DIRECTION('',(0.,1.,0.));
#625=DIRECTION('',(0.,-1.,0.));
#626=DIRECTION('',(0.,1.,0.));
#627=DIRECTION('',(0.,0.,1.));
#628=DIRECTION('',(0.,1.,0.));
#629=DIRECTION('',(0.,0.,1.));
#630=DIRECTION('',(0.,1.,0.));
#631=DIRECTION('',(0.,0.,1.));
#632=CARTESIAN_POINT('',(0.,0.,0.));
#633=CARTESIAN_POINT('',(0.,0.0006,0.));
#634=CARTESIAN_POINT('',(0.,0.,0.));
#635=CARTESIAN_POINT('',(0.000243112339246083,0.,-0.00218652610103477));
#636=CARTESIAN_POINT('',(-0.000140209263389329,0.,-0.00219552758180348));
#637=CARTESIAN_POINT('',(-0.000140209263389329,0.0006,-0.00219552758180348));
#638=CARTESIAN_POINT('',(-0.000140209263389329,0.0006,-0.00219552758180348));
#639=CARTESIAN_POINT('',(0.,0.0006,0.));
#640=CARTESIAN_POINT('',(0.000243112339246083,0.0006,-0.00218652610103477));
#641=CARTESIAN_POINT('',(0.000243112339246083,0.0006,-0.00218652610103477));
#642=CARTESIAN_POINT('',(-0.00113452842133559,0.0006,-0.000820271455788742));
#643=CARTESIAN_POINT('',(-0.00113452842133559,0.,-0.000820271455788742));
#644=CARTESIAN_POINT('',(-0.00113452842133559,0.,-0.000820271455788742));
#645=CARTESIAN_POINT('',(-0.00113452842133559,0.0006,-0.000820271455788742));
#646=CARTESIAN_POINT('',(-0.00113452842133559,0.0006,-0.000820271455788742));
#647=CARTESIAN_POINT('',(-0.00113452842133559,0.0006,-0.000820271455788742));
#648=CARTESIAN_POINT('',(-0.00162984623689458,0.0006,-0.00025710162208858));
#649=CARTESIAN_POINT('',(-0.00162984623689458,0.,-0.00025710162208858));
#650=CARTESIAN_POINT('',(-0.00200438405206926,0.,-0.000906887298295876));
#651=CARTESIAN_POINT('',(-0.00200438405206926,0.0006,-0.000906887298295876));
#652=CARTESIAN_POINT('',(-0.00200438405206926,0.0006,-0.000906887298295876));
#653=CARTESIAN_POINT('',(-0.00162984623689458,0.0006,-0.00025710162208858));
#654=CARTESIAN_POINT('',(0.,0.0006,0.));
#655=CARTESIAN_POINT('',(0.,0.,0.));
#656=CARTESIAN_POINT('',(-0.00213139785853603,0.,-0.000545108400804861));
#657=CARTESIAN_POINT('',(-0.00213139785853603,0.0006,-0.000545108400804861));
#658=CARTESIAN_POINT('',(-0.00213139785853603,0.0006,-0.000545108400804861));
#659=CARTESIAN_POINT('',(0.,0.0006,0.));
#660=CARTESIAN_POINT('',(-0.00113071307595288,0.0006,0.000825522828193851));
#661=CARTESIAN_POINT('',(-0.00113071307595288,0.,0.000825522828193851));
#662=CARTESIAN_POINT('',(-0.00113071307595288,0.,0.000825522828193851));
#663=CARTESIAN_POINT('',(-0.00113071307595288,0.0006,0.000825522828193851));
#664=CARTESIAN_POINT('',(-0.00113071307595288,0.0006,0.000825522828193851));
#665=CARTESIAN_POINT('',(-0.00113071307595288,0.0006,0.000825522828193851));
#666=CARTESIAN_POINT('',(-0.000748168358455879,0.0006,0.00147062711365099));
#667=CARTESIAN_POINT('',(-0.000748168358455879,0.,0.00147062711365099));
#668=CARTESIAN_POINT('',(-0.00148188980993314,0.,0.00162603892672233));
#669=CARTESIAN_POINT('',(-0.00148188980993314,0.0006,0.00162603892672233));
#670=CARTESIAN_POINT('',(-0.00148188980993314,0.0006,0.00162603892672233));
#671=CARTESIAN_POINT('',(-0.000748168358455879,0.0006,0.00147062711365099));
#672=CARTESIAN_POINT('',(0.,0.0006,0.));
#673=CARTESIAN_POINT('',(0.,0.,0.));
#674=CARTESIAN_POINT('',(-0.00117706705673467,0.,0.00185863206255299));
#675=CARTESIAN_POINT('',(-0.00117706705673467,0.0006,0.00185863206255299));
#676=CARTESIAN_POINT('',(-0.00117706705673467,0.0006,0.00185863206255299));
#677=CARTESIAN_POINT('',(0.,0.0006,0.));
#678=CARTESIAN_POINT('',(0.000435709308872771,0.0006,0.00133047262210149));
#679=CARTESIAN_POINT('',(0.000435709308872771,0.,0.00133047262210149));
#680=CARTESIAN_POINT('',(0.000435709308872771,0.,0.00133047262210149));
#681=CARTESIAN_POINT('',(0.000435709308872771,0.0006,0.00133047262210149));
#682=CARTESIAN_POINT('',(0.000435709308872771,0.0006,0.00133047262210149));
#683=CARTESIAN_POINT('',(0.000435709308872771,0.0006,0.00133047262210149));
#684=CARTESIAN_POINT('',(0.00116745276206162,0.0006,0.00116599916310206));
#685=CARTESIAN_POINT('',(0.00116745276206162,0.,0.00116599916310206));
#686=CARTESIAN_POINT('',(0.00108852578194846,0.,0.00191183462204069));
#687=CARTESIAN_POINT('',(0.00108852578194846,0.0006,0.00191183462204069));
#688=CARTESIAN_POINT('',(0.00108852578194846,0.0006,0.00191183462204069));
#689=CARTESIAN_POINT('',(0.00116745276206162,0.0006,0.00116599916310206));
#690=CARTESIAN_POINT('',(0.,0.0006,0.));
#691=CARTESIAN_POINT('',(0.,0.,0.));
#692=CARTESIAN_POINT('',(0.00140393041043621,0.,0.0016938061880429));
#693=CARTESIAN_POINT('',(0.00140393041043621,0.0006,0.0016938061880429));
#694=CARTESIAN_POINT('',(0.00140393041043621,0.0006,0.0016938061880429));
#695=CARTESIAN_POINT('',(0.,0.0006,0.));
#696=CARTESIAN_POINT('',(0.00139999623805097,0.0006,-3.24552663394069E-6));
#697=CARTESIAN_POINT('',(0.00139999623805097,0.,-3.24552663394069E-6));
#698=CARTESIAN_POINT('',(0.00139999623805097,0.,-3.24552663394069E-6));
#699=CARTESIAN_POINT('',(0.00139999623805097,0.0006,-3.24552663394069E-6));
#700=CARTESIAN_POINT('',(0.00139999623805097,0.0006,-3.24552663394069E-6));
#701=CARTESIAN_POINT('',(0.00139999623805097,0.0006,-3.24552663394069E-6));
#702=CARTESIAN_POINT('',(0.00146969384566992,0.0006,-0.000749999999999983));
#703=CARTESIAN_POINT('',(0.00146969384566992,0.,-0.000749999999999983));
#704=CARTESIAN_POINT('',(0.00215463574080784,0.,-0.000444460149432384));
#705=CARTESIAN_POINT('',(0.00215463574080784,0.0006,-0.000444460149432384));
#706=CARTESIAN_POINT('',(0.00215463574080784,0.0006,-0.000444460149432384));
#707=CARTESIAN_POINT('',(0.00146969384566992,0.0006,-0.000749999999999983));
#708=CARTESIAN_POINT('',(0.,0.0006,0.));
#709=CARTESIAN_POINT('',(0.,0.,0.));
#710=CARTESIAN_POINT('',(0.00204474376822384,0.,-0.000811802267987579));
#711=CARTESIAN_POINT('',(0.00204474376822384,0.0006,-0.000811802267987579));
#712=CARTESIAN_POINT('',(0.00204474376822384,0.0006,-0.000811802267987579));
#713=CARTESIAN_POINT('',(0.,0.0006,0.));
#714=CARTESIAN_POINT('',(0.000429535950364721,0.0006,-0.00133247846787266));
#715=CARTESIAN_POINT('',(0.000429535950364721,0.,-0.00133247846787266));
#716=CARTESIAN_POINT('',(0.000429535950364721,0.,-0.00133247846787266));
#717=CARTESIAN_POINT('',(0.000429535950364721,0.0006,-0.00133247846787266));
#718=CARTESIAN_POINT('',(0.000429535950364721,0.0006,-0.00133247846787266));
#719=CARTESIAN_POINT('',(0.000429535950364721,0.0006,-0.00133247846787266));
#720=CARTESIAN_POINT('',(-0.000259132012381083,0.0006,-0.00162952465466446));
#721=CARTESIAN_POINT('',(-0.000259132012381083,0.,-0.00162952465466446));
#722=CARTESIAN_POINT('',(-0.000259132012381083,0.0006,-0.00162952465466446));
#723=CARTESIAN_POINT('',(0.,0.0006,0.));
#724=CARTESIAN_POINT('',(-0.000611,0.0006,7.48259194279033E-20));
#725=CARTESIAN_POINT('',(-0.00075242135623731,0.0006,0.00014142135623731));
#726=CARTESIAN_POINT('',(-0.00100986068482738,0.0006,0.000398860684827381));
#727=CARTESIAN_POINT('',(-0.000893842712474619,0.0006,1.35525271560688E-19));
#728=CARTESIAN_POINT('',(-0.00075242135623731,0.0006,-0.000141421356237309));
#729=CARTESIAN_POINT('',(-0.001059104505029,0.0006,-0.000448104505028997));
#730=CARTESIAN_POINT('',(-0.00100986068482738,0.0006,-0.000398860684827381));
#731=CARTESIAN_POINT('',(-0.000939150006708727,0.0006,-0.000469571362946036));
#732=CARTESIAN_POINT('',(-0.00102859286449051,0.0006,-0.000514292445131372));
#733=CARTESIAN_POINT('',(0.,0.0006,0.));
#734=CARTESIAN_POINT('',(-0.00102859286449051,0.0006,0.000514292445131373));
#735=CARTESIAN_POINT('',(-0.000939150006708727,0.0006,0.000469571362946036));
#736=CARTESIAN_POINT('',(0.,0.,0.));
#737=CARTESIAN_POINT('',(-0.001059104505029,0.,-0.000448104505028997));
#738=CARTESIAN_POINT('',(-0.000752421356237309,0.,-0.000141421356237309));
#739=CARTESIAN_POINT('',(-0.00100986068482738,0.,-0.000398860684827381));
#740=CARTESIAN_POINT('',(-0.000893842712474619,0.,1.35525271560688E-19));
#741=CARTESIAN_POINT('',(-0.00075242135623731,0.,0.00014142135623731));
#742=CARTESIAN_POINT('',(-0.000611,0.,7.48259194279033E-20));
#743=CARTESIAN_POINT('',(-0.00100986068482738,0.,0.000398860684827381));
#744=CARTESIAN_POINT('',(-0.000939150006708727,0.,0.000469571362946036));
#745=CARTESIAN_POINT('',(-0.00102859286449051,0.,0.000514292445131373));
#746=CARTESIAN_POINT('',(0.,0.,0.));
#747=CARTESIAN_POINT('',(-0.00102859286449051,0.,-0.000514292445131372));
#748=CARTESIAN_POINT('',(-0.000939150006708727,0.,-0.000469571362946036));
#749=CARTESIAN_POINT('',(0.,-1.00000000000002E-6,0.));
#750=CARTESIAN_POINT('',(-0.00102859286449051,-1.00000000000002E-6,-0.000514292445131372));
#751=CARTESIAN_POINT('',(-0.00102859286449051,-1.00000000000002E-6,0.000514292445131373));
#752=CARTESIAN_POINT('',(-0.000611,-1.00000000000002E-6,7.48259194279033E-20));
#753=CARTESIAN_POINT('',(-0.00075242135623731,-1.00000000000002E-6,0.00014142135623731));
#754=CARTESIAN_POINT('',(-0.00100986068482738,0.,0.000398860684827381));
#755=CARTESIAN_POINT('',(-0.001059104505029,-1.00000000000002E-6,-0.000448104505028997));
#756=CARTESIAN_POINT('',(-0.00075242135623731,-1.00000000000002E-6,-0.000141421356237309));
#757=CARTESIAN_POINT('',(-0.00100986068482738,0.0006,-0.000398860684827381));
#758=CARTESIAN_POINT('',(-0.000939150006708727,-1.00000000000002E-6,-0.000469571362946036));
#759=CARTESIAN_POINT('',(-0.000939150006708727,-1.00000000000002E-6,0.000469571362946036));
#760=CARTESIAN_POINT('',(-0.000893842712474619,-1.00000000000002E-6,1.35525271560688E-19));
#761=(
GEOMETRIC_REPRESENTATION_CONTEXT(3)
GLOBAL_UNCERTAINTY_ASSIGNED_CONTEXT((#762))
GLOBAL_UNIT_ASSIGNED_CONTEXT((#765,#764,#763))
REPRESENTATION_CONTEXT('id2','TOP_LEVEL_ASSEMBLY_PART')
);
#762=UNCERTAINTY_MEASURE_WITH_UNIT(LENGTH_MEASURE(1.E-8),#765,
'DISTANCE_ACCURACY_VALUE','Maximum Tolerance applied to model');
#763=(
NAMED_UNIT(*)
SI_UNIT($,.STERADIAN.)
SOLID_ANGLE_UNIT()
);
#764=(
NAMED_UNIT(*)
PLANE_ANGLE_UNIT()
SI_UNIT($,.RADIAN.)
);
#765=(
LENGTH_UNIT()
NAMED_UNIT(*)
SI_UNIT($,.METRE.)
);
#766=PRODUCT_DEFINITION_SHAPE('','',#767);
#767=PRODUCT_DEFINITION('','',#769,#768);
#768=PRODUCT_DEFINITION_CONTEXT('',#775,'design');
#769=PRODUCT_DEFINITION_FORMATION_WITH_SPECIFIED_SOURCE('','',#771,
 .NOT_KNOWN.);
#770=PRODUCT_RELATED_PRODUCT_CATEGORY('','',(#771));
#771=PRODUCT('id2','id2','id2',(#773));
#772=PRODUCT_CATEGORY('','');
#773=PRODUCT_CONTEXT('',#775,'mechanical');
#774=APPLICATION_PROTOCOL_DEFINITION('international standard',
'ap242_managed_model_based_3d_engineering',2020,#775);
#775=APPLICATION_CONTEXT('managed model based 3d engineering');
ENDSEC;
END-ISO-10303-21;
