ISO-10303-21;
HEADER;
/* Generated by software containing ST-Developer
 * from STEP Tools, Inc. (www.steptools.com) 
 */
/* OPTION: using custom renumber hook */

FILE_DESCRIPTION(
/* description */ ('STEP AP242 Edition 2',
'CAx-IF Rec.Pracs.---Representation and Presentation of Product Manufa
cturing Information (PMI)---4.0---2014-10-13',
'CAx-IF Rec.Pracs.---3D Tessellated Geometry---0.4---2014-09-14','2;1',
'CAx-IF Rec.Pracs.---User Defined Attributes---1.5---2016-08-15'),
/* implementation_level */ '2;1');

FILE_NAME(
/* name */ '10059',
/* time_stamp */ '2026-07-13T04:48:46Z',
/* author */ (''),
/* organization */ (''),
/* preprocessor_version */ 'ST-DEVELOPER v20',
/* originating_system */ 'ONSHAPE BY PTC INC, 1.217',
/* authorisation */ '  ');

FILE_SCHEMA (('AP242_MANAGED_MODEL_BASED_3D_ENGINEERING_MIM_LF { 1 0 10303 442 3 1 4 }'));
ENDSEC;

DATA;
#10=SHAPE_REPRESENTATION_RELATIONSHIP('','',#216,#11);
#11=ADVANCED_BREP_SHAPE_REPRESENTATION('',(#214),#384);
#12=TOROIDAL_SURFACE('',#245,0.00135,0.0001);
#13=CYLINDRICAL_SURFACE('',#225,0.00085);
#14=CYLINDRICAL_SURFACE('',#232,0.00125);
#15=CYLINDRICAL_SURFACE('',#236,0.0025);
#16=B_SPLINE_CURVE_WITH_KNOTS('',3,(#319,#320,#321,#322),.UNSPECIFIED.,
 .F.,.F.,(4,4),(0.004253293487806,0.00453725835672654),.UNSPECIFIED.);
#17=B_SPLINE_CURVE_WITH_KNOTS('',3,(#326,#327,#328,#329),.UNSPECIFIED.,
 .F.,.F.,(4,4),(0.0106546927073473,0.0109387704614539),.UNSPECIFIED.);
#18=B_SPLINE_CURVE_WITH_KNOTS('',3,(#369,#370,#371,#372),.UNSPECIFIED.,
 .F.,.F.,(4,4),(0.004253293487806,0.00453725835672654),.UNSPECIFIED.);
#19=B_SPLINE_CURVE_WITH_KNOTS('',3,(#373,#374,#375,#376),.UNSPECIFIED.,
 .F.,.F.,(4,4),(0.0106546927073473,0.0109387704614539),.UNSPECIFIED.);
#20=CONICAL_SURFACE('',#220,0.0023,0.785398163397449);
#21=CONICAL_SURFACE('',#240,0.0023,0.785398163397449);
#22=CONICAL_SURFACE('',#244,0.0006,0.785398163397446);
#23=CIRCLE('',#219,0.0023);
#24=CIRCLE('',#221,0.0025);
#25=CIRCLE('',#223,0.00085);
#26=CIRCLE('',#224,0.00125);
#27=CIRCLE('',#226,0.00085);
#28=CIRCLE('',#228,0.0006);
#29=CIRCLE('',#230,0.00135);
#30=CIRCLE('',#231,0.0025);
#31=CIRCLE('',#233,0.00125);
#32=CIRCLE('',#235,0.0023);
#33=CIRCLE('',#237,0.0025);
#34=CIRCLE('',#238,0.0025);
#35=CIRCLE('',#239,0.0025);
#36=ORIENTED_EDGE('',*,*,#86,.F.);
#37=ORIENTED_EDGE('',*,*,#87,.T.);
#38=ORIENTED_EDGE('',*,*,#88,.F.);
#39=ORIENTED_EDGE('',*,*,#89,.F.);
#40=ORIENTED_EDGE('',*,*,#90,.F.);
#41=ORIENTED_EDGE('',*,*,#87,.F.);
#42=ORIENTED_EDGE('',*,*,#91,.F.);
#43=ORIENTED_EDGE('',*,*,#92,.T.);
#44=ORIENTED_EDGE('',*,*,#93,.T.);
#45=ORIENTED_EDGE('',*,*,#91,.T.);
#46=ORIENTED_EDGE('',*,*,#94,.T.);
#47=ORIENTED_EDGE('',*,*,#95,.T.);
#48=ORIENTED_EDGE('',*,*,#96,.T.);
#49=ORIENTED_EDGE('',*,*,#97,.T.);
#50=ORIENTED_EDGE('',*,*,#92,.F.);
#51=ORIENTED_EDGE('',*,*,#98,.T.);
#52=ORIENTED_EDGE('',*,*,#99,.T.);
#53=ORIENTED_EDGE('',*,*,#100,.T.);
#54=ORIENTED_EDGE('',*,*,#101,.T.);
#55=ORIENTED_EDGE('',*,*,#102,.T.);
#56=ORIENTED_EDGE('',*,*,#103,.T.);
#57=ORIENTED_EDGE('',*,*,#104,.T.);
#58=ORIENTED_EDGE('',*,*,#105,.T.);
#59=ORIENTED_EDGE('',*,*,#89,.T.);
#60=ORIENTED_EDGE('',*,*,#106,.T.);
#61=ORIENTED_EDGE('',*,*,#96,.F.);
#62=ORIENTED_EDGE('',*,*,#107,.F.);
#63=ORIENTED_EDGE('',*,*,#102,.F.);
#64=ORIENTED_EDGE('',*,*,#108,.F.);
#65=ORIENTED_EDGE('',*,*,#99,.F.);
#66=ORIENTED_EDGE('',*,*,#109,.F.);
#67=ORIENTED_EDGE('',*,*,#100,.F.);
#68=ORIENTED_EDGE('',*,*,#110,.T.);
#69=ORIENTED_EDGE('',*,*,#104,.F.);
#70=ORIENTED_EDGE('',*,*,#88,.T.);
#71=ORIENTED_EDGE('',*,*,#86,.T.);
#72=ORIENTED_EDGE('',*,*,#90,.T.);
#73=ORIENTED_EDGE('',*,*,#105,.F.);
#74=ORIENTED_EDGE('',*,*,#110,.F.);
#75=ORIENTED_EDGE('',*,*,#106,.F.);
#76=ORIENTED_EDGE('',*,*,#107,.T.);
#77=ORIENTED_EDGE('',*,*,#98,.F.);
#78=ORIENTED_EDGE('',*,*,#108,.T.);
#79=ORIENTED_EDGE('',*,*,#101,.F.);
#80=ORIENTED_EDGE('',*,*,#109,.T.);
#81=ORIENTED_EDGE('',*,*,#103,.F.);
#82=ORIENTED_EDGE('',*,*,#93,.F.);
#83=ORIENTED_EDGE('',*,*,#94,.F.);
#84=ORIENTED_EDGE('',*,*,#95,.F.);
#85=ORIENTED_EDGE('',*,*,#97,.F.);
#86=EDGE_CURVE('',#111,#112,#130,.T.);
#87=EDGE_CURVE('',#111,#112,#23,.T.);
#88=EDGE_CURVE('',#113,#111,#16,.T.);
#89=EDGE_CURVE('',#114,#113,#24,.F.);
#90=EDGE_CURVE('',#112,#114,#17,.T.);
#91=EDGE_CURVE('',#115,#115,#25,.T.);
#92=EDGE_CURVE('',#116,#116,#26,.T.);
#93=EDGE_CURVE('',#117,#117,#27,.T.);
#94=EDGE_CURVE('',#118,#118,#28,.F.);
#95=EDGE_CURVE('',#119,#119,#29,.F.);
#96=EDGE_CURVE('',#120,#120,#30,.T.);
#97=EDGE_CURVE('',#121,#121,#31,.T.);
#98=EDGE_CURVE('',#122,#123,#131,.T.);
#99=EDGE_CURVE('',#123,#122,#32,.T.);
#100=EDGE_CURVE('',#124,#125,#33,.T.);
#101=EDGE_CURVE('',#125,#126,#132,.F.);
#102=EDGE_CURVE('',#126,#127,#34,.F.);
#103=EDGE_CURVE('',#127,#128,#133,.T.);
#104=EDGE_CURVE('',#128,#129,#35,.T.);
#105=EDGE_CURVE('',#129,#114,#134,.F.);
#106=EDGE_CURVE('',#113,#124,#135,.T.);
#107=EDGE_CURVE('',#127,#123,#18,.T.);
#108=EDGE_CURVE('',#122,#126,#19,.T.);
#109=EDGE_CURVE('',#125,#128,#136,.T.);
#110=EDGE_CURVE('',#124,#129,#137,.T.);
#111=VERTEX_POINT('',#315);
#112=VERTEX_POINT('',#316);
#113=VERTEX_POINT('',#323);
#114=VERTEX_POINT('',#325);
#115=VERTEX_POINT('',#332);
#116=VERTEX_POINT('',#334);
#117=VERTEX_POINT('',#337);
#118=VERTEX_POINT('',#340);
#119=VERTEX_POINT('',#343);
#120=VERTEX_POINT('',#345);
#121=VERTEX_POINT('',#348);
#122=VERTEX_POINT('',#351);
#123=VERTEX_POINT('',#352);
#124=VERTEX_POINT('',#356);
#125=VERTEX_POINT('',#357);
#126=VERTEX_POINT('',#359);
#127=VERTEX_POINT('',#361);
#128=VERTEX_POINT('',#363);
#129=VERTEX_POINT('',#365);
#130=LINE('',#314,#138);
#131=LINE('',#350,#139);
#132=LINE('',#358,#140);
#133=LINE('',#362,#141);
#134=LINE('',#366,#142);
#135=LINE('',#367,#143);
#136=LINE('',#378,#144);
#137=LINE('',#379,#145);
#138=VECTOR('',#250,1.);
#139=VECTOR('',#283,1.);
#140=VECTOR('',#290,1.);
#141=VECTOR('',#293,1.);
#142=VECTOR('',#296,1.);
#143=VECTOR('',#297,1.);
#144=VECTOR('',#302,1.);
#145=VECTOR('',#303,1.);
#146=EDGE_LOOP('',(#36,#37));
#147=EDGE_LOOP('',(#38,#39,#40,#41));
#148=EDGE_LOOP('',(#42));
#149=EDGE_LOOP('',(#43));
#150=EDGE_LOOP('',(#44));
#151=EDGE_LOOP('',(#45));
#152=EDGE_LOOP('',(#46));
#153=EDGE_LOOP('',(#47));
#154=EDGE_LOOP('',(#48));
#155=EDGE_LOOP('',(#49));
#156=EDGE_LOOP('',(#50));
#157=EDGE_LOOP('',(#51,#52));
#158=EDGE_LOOP('',(#53,#54,#55,#56,#57,#58,#59,#60));
#159=EDGE_LOOP('',(#61));
#160=EDGE_LOOP('',(#62,#63,#64,#65));
#161=EDGE_LOOP('',(#66,#67,#68,#69));
#162=EDGE_LOOP('',(#70,#71,#72,#73,#74,#75));
#163=EDGE_LOOP('',(#76,#77,#78,#79,#80,#81));
#164=EDGE_LOOP('',(#82));
#165=EDGE_LOOP('',(#83));
#166=EDGE_LOOP('',(#84));
#167=EDGE_LOOP('',(#85));
#168=FACE_BOUND('',#146,.T.);
#169=FACE_BOUND('',#147,.T.);
#170=FACE_BOUND('',#148,.T.);
#171=FACE_BOUND('',#149,.T.);
#172=FACE_BOUND('',#150,.T.);
#173=FACE_BOUND('',#151,.T.);
#174=FACE_BOUND('',#152,.T.);
#175=FACE_BOUND('',#153,.T.);
#176=FACE_BOUND('',#154,.T.);
#177=FACE_BOUND('',#155,.T.);
#178=FACE_BOUND('',#156,.T.);
#179=FACE_BOUND('',#157,.T.);
#180=FACE_BOUND('',#158,.T.);
#181=FACE_BOUND('',#159,.T.);
#182=FACE_BOUND('',#160,.T.);
#183=FACE_BOUND('',#161,.T.);
#184=FACE_BOUND('',#162,.T.);
#185=FACE_BOUND('',#163,.T.);
#186=FACE_BOUND('',#164,.T.);
#187=FACE_BOUND('',#165,.T.);
#188=FACE_BOUND('',#166,.T.);
#189=FACE_BOUND('',#167,.T.);
#190=PLANE('',#218);
#191=PLANE('',#222);
#192=PLANE('',#227);
#193=PLANE('',#229);
#194=PLANE('',#234);
#195=PLANE('',#241);
#196=PLANE('',#242);
#197=PLANE('',#243);
#198=ADVANCED_FACE('',(#168),#190,.T.);
#199=ADVANCED_FACE('',(#169),#20,.T.);
#200=ADVANCED_FACE('',(#170,#171),#191,.T.);
#201=ADVANCED_FACE('',(#172,#173),#13,.T.);
#202=ADVANCED_FACE('',(#174),#192,.F.);
#203=ADVANCED_FACE('',(#175,#176),#193,.T.);
#204=ADVANCED_FACE('',(#177,#178),#14,.T.);
#205=ADVANCED_FACE('',(#179),#194,.T.);
#206=ADVANCED_FACE('',(#180,#181),#15,.T.);
#207=ADVANCED_FACE('',(#182),#21,.T.);
#208=ADVANCED_FACE('',(#183),#195,.F.);
#209=ADVANCED_FACE('',(#184),#196,.F.);
#210=ADVANCED_FACE('',(#185),#197,.F.);
#211=ADVANCED_FACE('',(#186,#187),#22,.T.);
#212=ADVANCED_FACE('',(#188,#189),#12,.F.);
#213=CLOSED_SHELL('',(#198,#199,#200,#201,#202,#203,#204,#205,#206,#207,
#208,#209,#210,#211,#212));
#214=MANIFOLD_SOLID_BREP('',#213);
#215=SHAPE_DEFINITION_REPRESENTATION(#389,#216);
#216=SHAPE_REPRESENTATION('id2',(#217),#384);
#217=AXIS2_PLACEMENT_3D('',#312,#246,#247);
#218=AXIS2_PLACEMENT_3D('',#313,#248,#249);
#219=AXIS2_PLACEMENT_3D('',#317,#251,#252);
#220=AXIS2_PLACEMENT_3D('',#318,#253,#254);
#221=AXIS2_PLACEMENT_3D('',#324,#255,#256);
#222=AXIS2_PLACEMENT_3D('',#330,#257,#258);
#223=AXIS2_PLACEMENT_3D('',#331,#259,#260);
#224=AXIS2_PLACEMENT_3D('',#333,#261,#262);
#225=AXIS2_PLACEMENT_3D('',#335,#263,#264);
#226=AXIS2_PLACEMENT_3D('',#336,#265,#266);
#227=AXIS2_PLACEMENT_3D('',#338,#267,#268);
#228=AXIS2_PLACEMENT_3D('',#339,#269,#270);
#229=AXIS2_PLACEMENT_3D('',#341,#271,#272);
#230=AXIS2_PLACEMENT_3D('',#342,#273,#274);
#231=AXIS2_PLACEMENT_3D('',#344,#275,#276);
#232=AXIS2_PLACEMENT_3D('',#346,#277,#278);
#233=AXIS2_PLACEMENT_3D('',#347,#279,#280);
#234=AXIS2_PLACEMENT_3D('',#349,#281,#282);
#235=AXIS2_PLACEMENT_3D('',#353,#284,#285);
#236=AXIS2_PLACEMENT_3D('',#354,#286,#287);
#237=AXIS2_PLACEMENT_3D('',#355,#288,#289);
#238=AXIS2_PLACEMENT_3D('',#360,#291,#292);
#239=AXIS2_PLACEMENT_3D('',#364,#294,#295);
#240=AXIS2_PLACEMENT_3D('',#368,#298,#299);
#241=AXIS2_PLACEMENT_3D('',#377,#300,#301);
#242=AXIS2_PLACEMENT_3D('',#380,#304,#305);
#243=AXIS2_PLACEMENT_3D('',#381,#306,#307);
#244=AXIS2_PLACEMENT_3D('',#382,#308,#309);
#245=AXIS2_PLACEMENT_3D('',#383,#310,#311);
#246=DIRECTION('',(0.,0.,1.));
#247=DIRECTION('',(1.,0.,0.));
#248=DIRECTION('',(0.,1.,0.));
#249=DIRECTION('',(0.,0.,1.));
#250=DIRECTION('',(0.,0.,1.));
#251=DIRECTION('',(0.,1.,0.));
#252=DIRECTION('',(0.,0.,1.));
#253=DIRECTION('',(0.,-1.,0.));
#254=DIRECTION('',(0.,0.,-1.));
#255=DIRECTION('',(0.,1.,0.));
#256=DIRECTION('',(0.,0.,1.));
#257=DIRECTION('',(0.,-1.,0.));
#258=DIRECTION('',(0.,0.,-1.));
#259=DIRECTION('',(0.,-1.,0.));
#260=DIRECTION('',(0.,0.,-1.));
#261=DIRECTION('',(0.,-1.,0.));
#262=DIRECTION('',(0.,0.,-1.));
#263=DIRECTION('',(0.,-1.,0.));
#264=DIRECTION('',(0.,0.,-1.));
#265=DIRECTION('',(0.,1.,0.));
#266=DIRECTION('',(0.,0.,1.));
#267=DIRECTION('',(0.,1.,0.));
#268=DIRECTION('',(0.,0.,1.));
#269=DIRECTION('',(0.,1.,0.));
#270=DIRECTION('',(0.,0.,1.));
#271=DIRECTION('',(0.,-1.,0.));
#272=DIRECTION('',(0.,0.,-1.));
#273=DIRECTION('',(0.,-1.,0.));
#274=DIRECTION('',(0.,0.,-1.));
#275=DIRECTION('',(0.,-1.,0.));
#276=DIRECTION('',(0.,0.,-1.));
#277=DIRECTION('',(0.,-1.,0.));
#278=DIRECTION('',(0.,0.,-1.));
#279=DIRECTION('',(0.,-1.,0.));
#280=DIRECTION('',(0.,0.,-1.));
#281=DIRECTION('',(0.,1.,0.));
#282=DIRECTION('',(0.,0.,1.));
#283=DIRECTION('',(0.,0.,1.));
#284=DIRECTION('',(0.,1.,0.));
#285=DIRECTION('',(0.,0.,1.));
#286=DIRECTION('',(0.,-1.,0.));
#287=DIRECTION('',(0.,0.,-1.));
#288=DIRECTION('',(0.,-1.,0.));
#289=DIRECTION('',(0.,0.,-1.));
#290=DIRECTION('',(0.,-1.,0.));
#291=DIRECTION('',(0.,1.,0.));
#292=DIRECTION('',(0.,0.,1.));
#293=DIRECTION('',(0.,-1.,0.));
#294=DIRECTION('',(0.,-1.,0.));
#295=DIRECTION('',(0.,0.,-1.));
#296=DIRECTION('',(0.,-1.,0.));
#297=DIRECTION('',(0.,-1.,0.));
#298=DIRECTION('',(0.,-1.,0.));
#299=DIRECTION('',(0.,0.,-1.));
#300=DIRECTION('',(0.,-1.,0.));
#301=DIRECTION('',(0.,0.,-1.));
#302=DIRECTION('',(0.,0.,1.));
#303=DIRECTION('',(0.,0.,1.));
#304=DIRECTION('',(-1.,-1.20466908053945E-16,0.));
#305=DIRECTION('',(1.20466908053945E-16,-1.,0.));
#306=DIRECTION('',(1.,-1.20466908053945E-16,0.));
#307=DIRECTION('',(1.20466908053945E-16,1.,0.));
#308=DIRECTION('',(0.,1.,0.));
#309=DIRECTION('',(0.,0.,1.));
#310=DIRECTION('',(0.,-1.,0.));
#311=DIRECTION('',(0.,0.,-1.));
#312=CARTESIAN_POINT('',(0.,0.,0.));
#313=CARTESIAN_POINT('',(0.,0.0067,0.));
#314=CARTESIAN_POINT('',(-0.0003,0.0067,-0.0025));
#315=CARTESIAN_POINT('',(-0.0003,0.0067,-0.00228035085019828));
#316=CARTESIAN_POINT('',(-0.0003,0.0067,0.00228035085019828));
#317=CARTESIAN_POINT('',(0.,0.0067,0.));
#318=CARTESIAN_POINT('',(0.,0.0067,0.));
#319=CARTESIAN_POINT('',(-0.0003,0.0065,-0.00248193472919818));
#320=CARTESIAN_POINT('',(-0.0003,0.00656668803784993,-0.00241476128879159));
#321=CARTESIAN_POINT('',(-0.0003,0.00663335657817549,-0.00234756851987533));
#322=CARTESIAN_POINT('',(-0.0003,0.00670000000000001,-0.00228035085019829));
#323=CARTESIAN_POINT('',(-0.0003,0.0065,-0.00248193472919818));
#324=CARTESIAN_POINT('',(0.,0.0065,0.));
#325=CARTESIAN_POINT('',(-0.0003,0.0065,0.00248193472919817));
#326=CARTESIAN_POINT('',(-0.0003,0.0067,0.00228035085019828));
#327=CARTESIAN_POINT('',(-0.0003,0.00663335659024492,0.00234756850770188));
#328=CARTESIAN_POINT('',(-0.0003,0.00656668804895394,0.00241476127760675));
#329=CARTESIAN_POINT('',(-0.0003,0.0065,0.00248193472919817));
#330=CARTESIAN_POINT('',(0.,0.002,0.));
#331=CARTESIAN_POINT('',(0.,0.002,0.));
#332=CARTESIAN_POINT('',(0.,0.002,-0.00085));
#333=CARTESIAN_POINT('',(0.,0.002,0.));
#334=CARTESIAN_POINT('',(0.,0.002,-0.00125));
#335=CARTESIAN_POINT('',(0.,0.002,0.));
#336=CARTESIAN_POINT('',(0.,0.00025,0.));
#337=CARTESIAN_POINT('',(0.,0.00025,0.00085));
#338=CARTESIAN_POINT('',(0.,0.,0.));
#339=CARTESIAN_POINT('',(0.,0.,0.));
#340=CARTESIAN_POINT('',(0.,0.,0.0006));
#341=CARTESIAN_POINT('',(0.,0.00485,0.));
#342=CARTESIAN_POINT('',(0.,0.00485,0.));
#343=CARTESIAN_POINT('',(0.,0.00485,-0.00135));
#344=CARTESIAN_POINT('',(0.,0.00485,0.));
#345=CARTESIAN_POINT('',(0.,0.00485,-0.0025));
#346=CARTESIAN_POINT('',(0.,0.00485,0.));
#347=CARTESIAN_POINT('',(0.,0.00475,0.));
#348=CARTESIAN_POINT('',(0.,0.00475,-0.00125));
#349=CARTESIAN_POINT('',(0.,0.0067,0.));
#350=CARTESIAN_POINT('',(0.0003,0.0067,-0.0025));
#351=CARTESIAN_POINT('',(0.0003,0.0067,-0.00228035085019828));
#352=CARTESIAN_POINT('',(0.0003,0.0067,0.00228035085019828));
#353=CARTESIAN_POINT('',(0.,0.0067,0.));
#354=CARTESIAN_POINT('',(0.,0.0067,0.));
#355=CARTESIAN_POINT('',(0.,0.0058,0.));
#356=CARTESIAN_POINT('',(-0.0003,0.0058,-0.00248193472919817));
#357=CARTESIAN_POINT('',(0.0003,0.0058,-0.00248193472919817));
#358=CARTESIAN_POINT('',(0.0003,0.0067,-0.00248193472919817));
#359=CARTESIAN_POINT('',(0.0003,0.0065,-0.00248193472919817));
#360=CARTESIAN_POINT('',(0.,0.0065,0.));
#361=CARTESIAN_POINT('',(0.0003,0.0065,0.00248193472919818));
#362=CARTESIAN_POINT('',(0.0003,0.0067,0.00248193472919817));
#363=CARTESIAN_POINT('',(0.0003,0.0058,0.00248193472919817));
#364=CARTESIAN_POINT('',(0.,0.0058,0.));
#365=CARTESIAN_POINT('',(-0.0003,0.0058,0.00248193472919817));
#366=CARTESIAN_POINT('',(-0.0003,0.0067,0.00248193472919817));
#367=CARTESIAN_POINT('',(-0.0003,0.0067,-0.00248193472919817));
#368=CARTESIAN_POINT('',(0.,0.0067,0.));
#369=CARTESIAN_POINT('',(0.0003,0.0065,0.00248193472919818));
#370=CARTESIAN_POINT('',(0.0003,0.00656668803784993,0.00241476128879159));
#371=CARTESIAN_POINT('',(0.0003,0.00663335657817549,0.00234756851987533));
#372=CARTESIAN_POINT('',(0.0003,0.00670000000000001,0.00228035085019829));
#373=CARTESIAN_POINT('',(0.0003,0.0067,-0.00228035085019828));
#374=CARTESIAN_POINT('',(0.0003,0.00663335659024492,-0.00234756850770188));
#375=CARTESIAN_POINT('',(0.0003,0.00656668804895394,-0.00241476127760675));
#376=CARTESIAN_POINT('',(0.0003,0.0065,-0.00248193472919817));
#377=CARTESIAN_POINT('',(-0.0003,0.0058,-0.0025));
#378=CARTESIAN_POINT('',(0.0003,0.0058,-0.0025));
#379=CARTESIAN_POINT('',(-0.0003,0.0058,-0.0025));
#380=CARTESIAN_POINT('',(-0.0003,0.0067,-0.0025));
#381=CARTESIAN_POINT('',(0.0003,0.0067,-0.0025));
#382=CARTESIAN_POINT('',(0.,0.,0.));
#383=CARTESIAN_POINT('',(0.,0.00475,0.));
#384=(
GEOMETRIC_REPRESENTATION_CONTEXT(3)
GLOBAL_UNCERTAINTY_ASSIGNED_CONTEXT((#385))
GLOBAL_UNIT_ASSIGNED_CONTEXT((#388,#387,#386))
REPRESENTATION_CONTEXT('id2','TOP_LEVEL_ASSEMBLY_PART')
);
#385=UNCERTAINTY_MEASURE_WITH_UNIT(LENGTH_MEASURE(2.E-5),#388,
'DISTANCE_ACCURACY_VALUE','Maximum Tolerance applied to model');
#386=(
NAMED_UNIT(*)
SI_UNIT($,.STERADIAN.)
SOLID_ANGLE_UNIT()
);
#387=(
NAMED_UNIT(*)
PLANE_ANGLE_UNIT()
SI_UNIT($,.RADIAN.)
);
#388=(
LENGTH_UNIT()
NAMED_UNIT(*)
SI_UNIT($,.METRE.)
);
#389=PRODUCT_DEFINITION_SHAPE('','',#390);
#390=PRODUCT_DEFINITION('','',#392,#391);
#391=PRODUCT_DEFINITION_CONTEXT('',#398,'design');
#392=PRODUCT_DEFINITION_FORMATION_WITH_SPECIFIED_SOURCE('','',#394,
 .NOT_KNOWN.);
#393=PRODUCT_RELATED_PRODUCT_CATEGORY('','',(#394));
#394=PRODUCT('id2','id2','id2',(#396));
#395=PRODUCT_CATEGORY('','');
#396=PRODUCT_CONTEXT('',#398,'mechanical');
#397=APPLICATION_PROTOCOL_DEFINITION('international standard',
'ap242_managed_model_based_3d_engineering',2020,#398);
#398=APPLICATION_CONTEXT('managed model based 3d engineering');
ENDSEC;
END-ISO-10303-21;
