ISO-10303-21;
HEADER;
/* Generated by software containing ST-Developer
 * from STEP Tools, Inc. (www.steptools.com) 
 */
/* OPTION: using custom renumber hook */

FILE_DESCRIPTION(
/* description */ ('STEP AP242 Edition 2',
'CAx-IF Rec.Pracs.---Representation and Presentation of Product Manufa
cturing Information (PMI)---4.0---2014-10-13',
'CAx-IF Rec.Pracs.---3D Tessellated Geometry---0.4---2014-09-14','2;1',
'CAx-IF Rec.Pracs.---User Defined Attributes---1.5---2016-08-15'),
/* implementation_level */ '2;1');

FILE_NAME(
/* name */ '10050',
/* time_stamp */ '2026-07-13T04:47:57Z',
/* author */ (''),
/* organization */ (''),
/* preprocessor_version */ 'ST-DEVELOPER v20',
/* originating_system */ 'ONSHAPE BY PTC INC, 1.217',
/* authorisation */ '  ');

FILE_SCHEMA (('AP242_MANAGED_MODEL_BASED_3D_ENGINEERING_MIM_LF { 1 0 10303 442 3 1 4 }'));
ENDSEC;

DATA;
#10=SHAPE_REPRESENTATION_RELATIONSHIP('','',#67,#11);
#11=ADVANCED_BREP_SHAPE_REPRESENTATION('',(#65),#995);
#12=B_SPLINE_CURVE_WITH_KNOTS('',3,(#947,#948,#949,#950,#951,#952,#953,
#954,#955,#956,#957,#958,#959,#960,#961,#962,#963,#964,#965,#966,#967,#968),
 .UNSPECIFIED.,.F.,.F.,(4,1,1,1,1,1,1,1,1,1,1,1,1,1,1,1,1,1,1,4),(0.,0.000961899361117925,
0.00192379872223585,0.00240474840279481,0.00288569808335378,0.00336664776391274,
0.00360712260419222,0.0038475974444717,0.00396783486461144,0.00402795357468131,
0.00408807228475118,0.00414819099482105,0.00420830970489092,0.00432854712503066,
0.00456902196531014,0.00480949680558963,0.00529044648614859,0.00577139616670755,
0.00673329552782548,0.0076951948889434),.UNSPECIFIED.);
#13=B_SPLINE_CURVE_WITH_KNOTS('',3,(#969,#970,#971,#972,#973,#974,#975,
#976,#977,#978,#979,#980,#981,#982,#983,#984,#985,#986,#987,#988,#989,#990),
 .UNSPECIFIED.,.F.,.F.,(4,1,1,1,1,1,1,1,1,1,1,1,1,1,1,1,1,1,1,4),(0.,0.000964405430866501,
0.001928810861733,0.00241101357716625,0.0028932162925995,0.00313431765031613,
0.00337541900803275,0.00349596968689107,0.00361652036574938,0.00367679570517853,
0.00373707104460769,0.003857621723466,0.00409872308118263,0.00433982443889925,
0.00458092579661588,0.0048220271543325,0.00530422986976575,0.00578643258519901,
0.00675083801606551,0.00771524344693201),.UNSPECIFIED.);
#14=(
BOUNDED_SURFACE()
B_SPLINE_SURFACE(3,2,((#97,#98,#99,#100,#101,#102,#103,#104,#105,#106,#107,
#108,#109,#110,#111,#112,#113,#114,#115,#116,#117,#118,#119,#120,#121,#122,
#123,#124,#125,#126,#127,#128,#129,#130,#131,#132,#133,#134,#135,#136,#137,
#138,#139,#140,#141,#142,#143,#144,#145,#146,#147,#148,#149,#150,#151,#152,
#153,#154,#155,#156,#157,#158,#159,#160,#161,#162,#163,#164,#165,#166,#167,
#168,#169,#170,#171,#172,#173,#174,#175,#176,#177,#178,#179,#180,#181,#182,
#183,#184,#185,#186,#187,#188,#189,#190,#191,#192,#193,#194,#195,#196,#197,
#198,#199,#200,#201,#202,#203,#204,#205,#206,#207,#208,#209,#210,#211,#212,
#213,#214,#215,#216,#217),(#218,#219,#220,#221,#222,#223,#224,#225,#226,
#227,#228,#229,#230,#231,#232,#233,#234,#235,#236,#237,#238,#239,#240,#241,
#242,#243,#244,#245,#246,#247,#248,#249,#250,#251,#252,#253,#254,#255,#256,
#257,#258,#259,#260,#261,#262,#263,#264,#265,#266,#267,#268,#269,#270,#271,
#272,#273,#274,#275,#276,#277,#278,#279,#280,#281,#282,#283,#284,#285,#286,
#287,#288,#289,#290,#291,#292,#293,#294,#295,#296,#297,#298,#299,#300,#301,
#302,#303,#304,#305,#306,#307,#308,#309,#310,#311,#312,#313,#314,#315,#316,
#317,#318,#319,#320,#321,#322,#323,#324,#325,#326,#327,#328,#329,#330,#331,
#332,#333,#334,#335,#336,#337,#338),(#339,#340,#341,#342,#343,#344,#345,
#346,#347,#348,#349,#350,#351,#352,#353,#354,#355,#356,#357,#358,#359,#360,
#361,#362,#363,#364,#365,#366,#367,#368,#369,#370,#371,#372,#373,#374,#375,
#376,#377,#378,#379,#380,#381,#382,#383,#384,#385,#386,#387,#388,#389,#390,
#391,#392,#393,#394,#395,#396,#397,#398,#399,#400,#401,#402,#403,#404,#405,
#406,#407,#408,#409,#410,#411,#412,#413,#414,#415,#416,#417,#418,#419,#420,
#421,#422,#423,#424,#425,#426,#427,#428,#429,#430,#431,#432,#433,#434,#435,
#436,#437,#438,#439,#440,#441,#442,#443,#444,#445,#446,#447,#448,#449,#450,
#451,#452,#453,#454,#455,#456,#457,#458,#459),(#460,#461,#462,#463,#464,
#465,#466,#467,#468,#469,#470,#471,#472,#473,#474,#475,#476,#477,#478,#479,
#480,#481,#482,#483,#484,#485,#486,#487,#488,#489,#490,#491,#492,#493,#494,
#495,#496,#497,#498,#499,#500,#501,#502,#503,#504,#505,#506,#507,#508,#509,
#510,#511,#512,#513,#514,#515,#516,#517,#518,#519,#520,#521,#522,#523,#524,
#525,#526,#527,#528,#529,#530,#531,#532,#533,#534,#535,#536,#537,#538,#539,
#540,#541,#542,#543,#544,#545,#546,#547,#548,#549,#550,#551,#552,#553,#554,
#555,#556,#557,#558,#559,#560,#561,#562,#563,#564,#565,#566,#567,#568,#569,
#570,#571,#572,#573,#574,#575,#576,#577,#578,#579,#580),(#581,#582,#583,
#584,#585,#586,#587,#588,#589,#590,#591,#592,#593,#594,#595,#596,#597,#598,
#599,#600,#601,#602,#603,#604,#605,#606,#607,#608,#609,#610,#611,#612,#613,
#614,#615,#616,#617,#618,#619,#620,#621,#622,#623,#624,#625,#626,#627,#628,
#629,#630,#631,#632,#633,#634,#635,#636,#637,#638,#639,#640,#641,#642,#643,
#644,#645,#646,#647,#648,#649,#650,#651,#652,#653,#654,#655,#656,#657,#658,
#659,#660,#661,#662,#663,#664,#665,#666,#667,#668,#669,#670,#671,#672,#673,
#674,#675,#676,#677,#678,#679,#680,#681,#682,#683,#684,#685,#686,#687,#688,
#689,#690,#691,#692,#693,#694,#695,#696,#697,#698,#699,#700,#701),(#702,
#703,#704,#705,#706,#707,#708,#709,#710,#711,#712,#713,#714,#715,#716,#717,
#718,#719,#720,#721,#722,#723,#724,#725,#726,#727,#728,#729,#730,#731,#732,
#733,#734,#735,#736,#737,#738,#739,#740,#741,#742,#743,#744,#745,#746,#747,
#748,#749,#750,#751,#752,#753,#754,#755,#756,#757,#758,#759,#760,#761,#762,
#763,#764,#765,#766,#767,#768,#769,#770,#771,#772,#773,#774,#775,#776,#777,
#778,#779,#780,#781,#782,#783,#784,#785,#786,#787,#788,#789,#790,#791,#792,
#793,#794,#795,#796,#797,#798,#799,#800,#801,#802,#803,#804,#805,#806,#807,
#808,#809,#810,#811,#812,#813,#814,#815,#816,#817,#818,#819,#820,#821,#822),
(#823,#824,#825,#826,#827,#828,#829,#830,#831,#832,#833,#834,#835,#836,
#837,#838,#839,#840,#841,#842,#843,#844,#845,#846,#847,#848,#849,#850,#851,
#852,#853,#854,#855,#856,#857,#858,#859,#860,#861,#862,#863,#864,#865,#866,
#867,#868,#869,#870,#871,#872,#873,#874,#875,#876,#877,#878,#879,#880,#881,
#882,#883,#884,#885,#886,#887,#888,#889,#890,#891,#892,#893,#894,#895,#896,
#897,#898,#899,#900,#901,#902,#903,#904,#905,#906,#907,#908,#909,#910,#911,
#912,#913,#914,#915,#916,#917,#918,#919,#920,#921,#922,#923,#924,#925,#926,
#927,#928,#929,#930,#931,#932,#933,#934,#935,#936,#937,#938,#939,#940,#941,
#942,#943)),.UNSPECIFIED.,.T.,.F.,.F.)
B_SPLINE_SURFACE_WITH_KNOTS((4,3,4),(3,2,2,2,2,2,2,2,2,2,2,2,2,2,2,2,2,
2,2,2,2,2,2,2,2,2,2,2,2,2,2,2,2,2,2,2,2,2,2,2,2,2,2,2,2,2,2,2,2,2,2,2,2,
2,2,2,2,2,2,2,3),(0.,0.5,1.),(0.,0.0166666666666667,0.0333333333333333,
0.05,0.0666666666666667,0.0833333333333333,0.1,0.116666666666667,0.133333333333333,
0.15,0.166666666666667,0.183333333333333,0.2,0.216666666666667,0.233333333333333,
0.25,0.266666666666667,0.283333333333333,0.3,0.316666666666667,0.333333333333333,
0.35,0.366666666666667,0.383333333333333,0.4,0.416666666666667,0.433333333333333,
0.45,0.466666666666667,0.483333333333333,0.5,0.516666666666667,0.533333333333333,
0.55,0.566666666666667,0.583333333333333,0.6,0.616666666666667,0.633333333333333,
0.65,0.666666666666667,0.683333333333333,0.7,0.716666666666667,0.733333333333333,
0.75,0.766666666666667,0.783333333333333,0.8,0.816666666666667,0.833333333333333,
0.85,0.866666666666667,0.883333333333333,0.9,0.916666666666667,0.933333333333333,
0.95,0.966666666666667,0.983333333333333,1.),.UNSPECIFIED.)
GEOMETRIC_REPRESENTATION_ITEM()
RATIONAL_B_SPLINE_SURFACE(((1.,0.951056516295154,1.,0.951056516295154,1.,
0.951056516295154,1.,0.951056516295154,1.,0.951056516295154,1.,0.951056516295154,
1.,0.951056516295154,1.,0.951056516295154,1.,0.951056516295154,1.,0.951056516295154,
1.,0.951056516295154,1.,0.951056516295154,1.,0.951056516295154,1.,0.951056516295154,
1.,0.951056516295154,1.,0.951056516295154,1.,0.951056516295154,1.,0.951056516295154,
1.,0.951056516295154,1.,0.951056516295154,1.,0.951056516295154,1.,0.951056516295154,
1.,0.951056516295154,1.,0.951056516295154,1.,0.951056516295154,1.,0.951056516295154,
1.,0.951056516295154,1.,0.951056516295154,1.,0.951056516295154,1.,0.951056516295154,
1.,0.951056516295154,1.,0.951056516295154,1.,0.951056516295154,1.,0.951056516295154,
1.,0.951056516295154,1.,0.951056516295154,1.,0.951056516295154,1.,0.951056516295154,
1.,0.951056516295154,1.,0.951056516295154,1.,0.951056516295154,1.,0.951056516295154,
1.,0.951056516295154,1.,0.951056516295154,1.,0.951056516295154,1.,0.951056516295154,
1.,0.951056516295154,1.,0.951056516295154,1.,0.951056516295154,1.,0.951056516295154,
1.,0.951056516295154,1.,0.951056516295154,1.,0.951056516295154,1.,0.951056516295154,
1.,0.951056516295154,1.,0.951056516295154,1.,0.951056516295154,1.,0.951056516295154,
1.,0.951056516295154,1.,0.951056516295154,1.),(0.333333333333333,0.317018838765051,
0.333333333333333,0.317018838765051,0.333333333333333,0.317018838765051,
0.333333333333333,0.317018838765051,0.333333333333333,0.317018838765051,
0.333333333333333,0.317018838765051,0.333333333333333,0.317018838765051,
0.333333333333333,0.317018838765051,0.333333333333333,0.317018838765051,
0.333333333333333,0.317018838765051,0.333333333333333,0.317018838765051,
0.333333333333333,0.317018838765051,0.333333333333333,0.317018838765051,
0.333333333333333,0.317018838765051,0.333333333333333,0.317018838765051,
0.333333333333333,0.317018838765051,0.333333333333333,0.317018838765051,
0.333333333333333,0.317018838765051,0.333333333333333,0.317018838765051,
0.333333333333333,0.317018838765051,0.333333333333333,0.317018838765051,
0.333333333333333,0.317018838765051,0.333333333333333,0.317018838765051,
0.333333333333333,0.317018838765051,0.333333333333333,0.317018838765051,
0.333333333333333,0.317018838765051,0.333333333333333,0.317018838765051,
0.333333333333333,0.317018838765051,0.333333333333333,0.317018838765051,
0.333333333333333,0.317018838765051,0.333333333333333,0.317018838765051,
0.333333333333333,0.317018838765051,0.333333333333333,0.317018838765051,
0.333333333333333,0.317018838765051,0.333333333333333,0.317018838765051,
0.333333333333333,0.317018838765051,0.333333333333333,0.317018838765051,
0.333333333333333,0.317018838765051,0.333333333333333,0.317018838765051,
0.333333333333333,0.317018838765051,0.333333333333333,0.317018838765051,
0.333333333333333,0.317018838765051,0.333333333333333,0.317018838765051,
0.333333333333333,0.317018838765051,0.333333333333333,0.317018838765051,
0.333333333333333,0.317018838765051,0.333333333333333,0.317018838765051,
0.333333333333333,0.317018838765051,0.333333333333333,0.317018838765051,
0.333333333333333,0.317018838765051,0.333333333333333,0.317018838765051,
0.333333333333333,0.317018838765051,0.333333333333333,0.317018838765051,
0.333333333333333,0.317018838765051,0.333333333333333,0.317018838765051,
0.333333333333333,0.317018838765051,0.333333333333333,0.317018838765051,
0.333333333333333,0.317018838765051,0.333333333333333,0.317018838765051,
0.333333333333333,0.317018838765051,0.333333333333333),(0.333333333333333,
0.317018838765051,0.333333333333333,0.317018838765051,0.333333333333333,
0.317018838765051,0.333333333333333,0.317018838765051,0.333333333333333,
0.317018838765051,0.333333333333333,0.317018838765051,0.333333333333333,
0.317018838765051,0.333333333333333,0.317018838765051,0.333333333333333,
0.317018838765051,0.333333333333333,0.317018838765051,0.333333333333333,
0.317018838765051,0.333333333333333,0.317018838765051,0.333333333333333,
0.317018838765051,0.333333333333333,0.317018838765051,0.333333333333333,
0.317018838765051,0.333333333333333,0.317018838765051,0.333333333333333,
0.317018838765051,0.333333333333333,0.317018838765051,0.333333333333333,
0.317018838765051,0.333333333333333,0.317018838765051,0.333333333333333,
0.317018838765051,0.333333333333333,0.317018838765051,0.333333333333333,
0.317018838765051,0.333333333333333,0.317018838765051,0.333333333333333,
0.317018838765051,0.333333333333333,0.317018838765051,0.333333333333333,
0.317018838765051,0.333333333333333,0.317018838765051,0.333333333333333,
0.317018838765051,0.333333333333333,0.317018838765051,0.333333333333333,
0.317018838765051,0.333333333333333,0.317018838765051,0.333333333333333,
0.317018838765051,0.333333333333333,0.317018838765051,0.333333333333333,
0.317018838765051,0.333333333333333,0.317018838765051,0.333333333333333,
0.317018838765051,0.333333333333333,0.317018838765051,0.333333333333333,
0.317018838765051,0.333333333333333,0.317018838765051,0.333333333333333,
0.317018838765051,0.333333333333333,0.317018838765051,0.333333333333333,
0.317018838765051,0.333333333333333,0.317018838765051,0.333333333333333,
0.317018838765051,0.333333333333333,0.317018838765051,0.333333333333333,
0.317018838765051,0.333333333333333,0.317018838765051,0.333333333333333,
0.317018838765051,0.333333333333333,0.317018838765051,0.333333333333333,
0.317018838765051,0.333333333333333,0.317018838765051,0.333333333333333,
0.317018838765051,0.333333333333333,0.317018838765051,0.333333333333333,
0.317018838765051,0.333333333333333,0.317018838765051,0.333333333333333,
0.317018838765051,0.333333333333333,0.317018838765051,0.333333333333333,
0.317018838765051,0.333333333333333,0.317018838765051,0.333333333333333),
(1.,0.951056516295154,1.,0.951056516295154,1.,0.951056516295154,1.,0.951056516295154,
1.,0.951056516295154,1.,0.951056516295154,1.,0.951056516295154,1.,0.951056516295154,
1.,0.951056516295154,1.,0.951056516295154,1.,0.951056516295154,1.,0.951056516295154,
1.,0.951056516295154,1.,0.951056516295154,1.,0.951056516295154,1.,0.951056516295154,
1.,0.951056516295154,1.,0.951056516295154,1.,0.951056516295154,1.,0.951056516295154,
1.,0.951056516295154,1.,0.951056516295154,1.,0.951056516295154,1.,0.951056516295154,
1.,0.951056516295154,1.,0.951056516295154,1.,0.951056516295154,1.,0.951056516295154,
1.,0.951056516295154,1.,0.951056516295154,1.,0.951056516295154,1.,0.951056516295154,
1.,0.951056516295154,1.,0.951056516295154,1.,0.951056516295154,1.,0.951056516295154,
1.,0.951056516295154,1.,0.951056516295154,1.,0.951056516295154,1.,0.951056516295154,
1.,0.951056516295154,1.,0.951056516295154,1.,0.951056516295154,1.,0.951056516295154,
1.,0.951056516295154,1.,0.951056516295154,1.,0.951056516295154,1.,0.951056516295154,
1.,0.951056516295154,1.,0.951056516295154,1.,0.951056516295154,1.,0.951056516295154,
1.,0.951056516295154,1.,0.951056516295154,1.,0.951056516295154,1.,0.951056516295154,
1.,0.951056516295154,1.,0.951056516295154,1.,0.951056516295154,1.,0.951056516295154,
1.),(0.333333333333333,0.317018838765051,0.333333333333333,0.317018838765051,
0.333333333333333,0.317018838765051,0.333333333333333,0.317018838765051,
0.333333333333333,0.317018838765051,0.333333333333333,0.317018838765051,
0.333333333333333,0.317018838765051,0.333333333333333,0.317018838765051,
0.333333333333333,0.317018838765051,0.333333333333333,0.317018838765051,
0.333333333333333,0.317018838765051,0.333333333333333,0.317018838765051,
0.333333333333333,0.317018838765051,0.333333333333333,0.317018838765051,
0.333333333333333,0.317018838765051,0.333333333333333,0.317018838765051,
0.333333333333333,0.317018838765051,0.333333333333333,0.317018838765051,
0.333333333333333,0.317018838765051,0.333333333333333,0.317018838765051,
0.333333333333333,0.317018838765051,0.333333333333333,0.317018838765051,
0.333333333333333,0.317018838765051,0.333333333333333,0.317018838765051,
0.333333333333333,0.317018838765051,0.333333333333333,0.317018838765051,
0.333333333333333,0.317018838765051,0.333333333333333,0.317018838765051,
0.333333333333333,0.317018838765051,0.333333333333333,0.317018838765051,
0.333333333333333,0.317018838765051,0.333333333333333,0.317018838765051,
0.333333333333333,0.317018838765051,0.333333333333333,0.317018838765051,
0.333333333333333,0.317018838765051,0.333333333333333,0.317018838765051,
0.333333333333333,0.317018838765051,0.333333333333333,0.317018838765051,
0.333333333333333,0.317018838765051,0.333333333333333,0.317018838765051,
0.333333333333333,0.317018838765051,0.333333333333333,0.317018838765051,
0.333333333333333,0.317018838765051,0.333333333333333,0.317018838765051,
0.333333333333333,0.317018838765051,0.333333333333333,0.317018838765051,
0.333333333333333,0.317018838765051,0.333333333333333,0.317018838765051,
0.333333333333333,0.317018838765051,0.333333333333333,0.317018838765051,
0.333333333333333,0.317018838765051,0.333333333333333,0.317018838765051,
0.333333333333333,0.317018838765051,0.333333333333333,0.317018838765051,
0.333333333333333,0.317018838765051,0.333333333333333,0.317018838765051,
0.333333333333333,0.317018838765051,0.333333333333333,0.317018838765051,
0.333333333333333,0.317018838765051,0.333333333333333,0.317018838765051,
0.333333333333333),(0.333333333333333,0.317018838765051,0.333333333333333,
0.317018838765051,0.333333333333333,0.317018838765051,0.333333333333333,
0.317018838765051,0.333333333333333,0.317018838765051,0.333333333333333,
0.317018838765051,0.333333333333333,0.317018838765051,0.333333333333333,
0.317018838765051,0.333333333333333,0.317018838765051,0.333333333333333,
0.317018838765051,0.333333333333333,0.317018838765051,0.333333333333333,
0.317018838765051,0.333333333333333,0.317018838765051,0.333333333333333,
0.317018838765051,0.333333333333333,0.317018838765051,0.333333333333333,
0.317018838765051,0.333333333333333,0.317018838765051,0.333333333333333,
0.317018838765051,0.333333333333333,0.317018838765051,0.333333333333333,
0.317018838765051,0.333333333333333,0.317018838765051,0.333333333333333,
0.317018838765051,0.333333333333333,0.317018838765051,0.333333333333333,
0.317018838765051,0.333333333333333,0.317018838765051,0.333333333333333,
0.317018838765051,0.333333333333333,0.317018838765051,0.333333333333333,
0.317018838765051,0.333333333333333,0.317018838765051,0.333333333333333,
0.317018838765051,0.333333333333333,0.317018838765051,0.333333333333333,
0.317018838765051,0.333333333333333,0.317018838765051,0.333333333333333,
0.317018838765051,0.333333333333333,0.317018838765051,0.333333333333333,
0.317018838765051,0.333333333333333,0.317018838765051,0.333333333333333,
0.317018838765051,0.333333333333333,0.317018838765051,0.333333333333333,
0.317018838765051,0.333333333333333,0.317018838765051,0.333333333333333,
0.317018838765051,0.333333333333333,0.317018838765051,0.333333333333333,
0.317018838765051,0.333333333333333,0.317018838765051,0.333333333333333,
0.317018838765051,0.333333333333333,0.317018838765051,0.333333333333333,
0.317018838765051,0.333333333333333,0.317018838765051,0.333333333333333,
0.317018838765051,0.333333333333333,0.317018838765051,0.333333333333333,
0.317018838765051,0.333333333333333,0.317018838765051,0.333333333333333,
0.317018838765051,0.333333333333333,0.317018838765051,0.333333333333333,
0.317018838765051,0.333333333333333,0.317018838765051,0.333333333333333,
0.317018838765051,0.333333333333333,0.317018838765051,0.333333333333333,
0.317018838765051,0.333333333333333),(1.,0.951056516295154,1.,0.951056516295154,
1.,0.951056516295154,1.,0.951056516295154,1.,0.951056516295154,1.,0.951056516295154,
1.,0.951056516295154,1.,0.951056516295154,1.,0.951056516295154,1.,0.951056516295154,
1.,0.951056516295154,1.,0.951056516295154,1.,0.951056516295154,1.,0.951056516295154,
1.,0.951056516295154,1.,0.951056516295154,1.,0.951056516295154,1.,0.951056516295154,
1.,0.951056516295154,1.,0.951056516295154,1.,0.951056516295154,1.,0.951056516295154,
1.,0.951056516295154,1.,0.951056516295154,1.,0.951056516295154,1.,0.951056516295154,
1.,0.951056516295154,1.,0.951056516295154,1.,0.951056516295154,1.,0.951056516295154,
1.,0.951056516295154,1.,0.951056516295154,1.,0.951056516295154,1.,0.951056516295154,
1.,0.951056516295154,1.,0.951056516295154,1.,0.951056516295154,1.,0.951056516295154,
1.,0.951056516295154,1.,0.951056516295154,1.,0.951056516295154,1.,0.951056516295154,
1.,0.951056516295154,1.,0.951056516295154,1.,0.951056516295154,1.,0.951056516295154,
1.,0.951056516295154,1.,0.951056516295154,1.,0.951056516295154,1.,0.951056516295154,
1.,0.951056516295154,1.,0.951056516295154,1.,0.951056516295154,1.,0.951056516295154,
1.,0.951056516295154,1.,0.951056516295154,1.,0.951056516295154,1.,0.951056516295154,
1.,0.951056516295154,1.,0.951056516295154,1.)))
REPRESENTATION_ITEM('')
SURFACE()
);
#15=CIRCLE('',#70,0.0003);
#16=CIRCLE('',#71,0.0003);
#17=ORIENTED_EDGE('',*,*,#29,.F.);
#18=ORIENTED_EDGE('',*,*,#30,.T.);
#19=ORIENTED_EDGE('',*,*,#31,.F.);
#20=ORIENTED_EDGE('',*,*,#32,.T.);
#21=ORIENTED_EDGE('',*,*,#33,.F.);
#22=ORIENTED_EDGE('',*,*,#30,.F.);
#23=ORIENTED_EDGE('',*,*,#34,.F.);
#24=ORIENTED_EDGE('',*,*,#31,.T.);
#25=ORIENTED_EDGE('',*,*,#33,.T.);
#26=ORIENTED_EDGE('',*,*,#29,.T.);
#27=ORIENTED_EDGE('',*,*,#32,.F.);
#28=ORIENTED_EDGE('',*,*,#34,.T.);
#29=EDGE_CURVE('',#35,#36,#39,.T.);
#30=EDGE_CURVE('',#35,#36,#15,.T.);
#31=EDGE_CURVE('',#37,#38,#16,.T.);
#32=EDGE_CURVE('',#37,#38,#12,.T.);
#33=EDGE_CURVE('',#36,#35,#13,.T.);
#34=EDGE_CURVE('',#37,#38,#40,.T.);
#35=VERTEX_POINT('',#94);
#36=VERTEX_POINT('',#95);
#37=VERTEX_POINT('',#945);
#38=VERTEX_POINT('',#946);
#39=LINE('',#93,#41);
#40=LINE('',#992,#42);
#41=VECTOR('',#79,1.);
#42=VECTOR('',#86,1.);
#43=EDGE_LOOP('',(#17,#18));
#44=EDGE_LOOP('',(#19,#20));
#45=EDGE_LOOP('',(#21,#22));
#46=EDGE_LOOP('',(#23,#24));
#47=EDGE_LOOP('',(#25,#26));
#48=EDGE_LOOP('',(#27,#28));
#49=FACE_BOUND('',#43,.T.);
#50=FACE_BOUND('',#44,.T.);
#51=FACE_BOUND('',#45,.T.);
#52=FACE_BOUND('',#46,.T.);
#53=FACE_BOUND('',#47,.T.);
#54=FACE_BOUND('',#48,.T.);
#55=PLANE('',#69);
#56=PLANE('',#72);
#57=PLANE('',#73);
#58=PLANE('',#74);
#59=ADVANCED_FACE('',(#49),#55,.F.);
#60=ADVANCED_FACE('',(#50,#51),#14,.F.);
#61=ADVANCED_FACE('',(#52),#56,.T.);
#62=ADVANCED_FACE('',(#53),#57,.T.);
#63=ADVANCED_FACE('',(#54),#58,.F.);
#64=CLOSED_SHELL('',(#59,#60,#61,#62,#63));
#65=MANIFOLD_SOLID_BREP('',#64);
#66=SHAPE_DEFINITION_REPRESENTATION(#1000,#67);
#67=SHAPE_REPRESENTATION('id2',(#68),#995);
#68=AXIS2_PLACEMENT_3D('',#91,#75,#76);
#69=AXIS2_PLACEMENT_3D('',#92,#77,#78);
#70=AXIS2_PLACEMENT_3D('',#96,#80,#81);
#71=AXIS2_PLACEMENT_3D('',#944,#82,#83);
#72=AXIS2_PLACEMENT_3D('',#991,#84,#85);
#73=AXIS2_PLACEMENT_3D('',#993,#87,#88);
#74=AXIS2_PLACEMENT_3D('',#994,#89,#90);
#75=DIRECTION('',(0.,0.,1.));
#76=DIRECTION('',(1.,0.,0.));
#77=DIRECTION('',(0.,0.,-1.));
#78=DIRECTION('',(-1.,0.,0.));
#79=DIRECTION('',(1.,0.,0.));
#80=DIRECTION('',(0.,0.,1.));
#81=DIRECTION('',(1.,0.,0.));
#82=DIRECTION('',(0.,0.,-1.));
#83=DIRECTION('',(-1.,0.,0.));
#84=DIRECTION('',(0.,0.,-1.));
#85=DIRECTION('',(-1.,0.,0.));
#86=DIRECTION('',(1.,0.,0.));
#87=DIRECTION('',(0.,1.,0.));
#88=DIRECTION('',(0.,0.,1.));
#89=DIRECTION('',(0.,1.,0.));
#90=DIRECTION('',(0.,0.,1.));
#91=CARTESIAN_POINT('',(0.,0.,0.));
#92=CARTESIAN_POINT('',(-0.0047,3.67394039744206E-20,0.));
#93=CARTESIAN_POINT('',(-0.0047,0.,0.));
#94=CARTESIAN_POINT('',(-0.0047,0.,0.));
#95=CARTESIAN_POINT('',(-0.0041,0.,0.));
#96=CARTESIAN_POINT('',(-0.0044,1.83697019872103E-20,0.));
#97=CARTESIAN_POINT('',(-0.0041,0.,0.));
#98=CARTESIAN_POINT('',(-0.0041,-0.000108333333333334,-0.00133217075455491));
#99=CARTESIAN_POINT('',(-0.00331696967693728,-0.000216666666666667,-0.00240991953439914));
#100=CARTESIAN_POINT('',(-0.00253393935387457,-0.000325,-0.00348766831424336));
#101=CARTESIAN_POINT('',(-0.00126696967693728,-0.000433333333333333,-0.00389933171681013));
#102=CARTESIAN_POINT('',(-2.63972318704238E-19,-0.000541666666666666,-0.00431099511937689));
#103=CARTESIAN_POINT('',(0.00126696967693728,-0.00065,-0.00389933171681013));
#104=CARTESIAN_POINT('',(0.00253393935387457,-0.000758333333333332,-0.00348766831424336));
#105=CARTESIAN_POINT('',(0.00331696967693728,-0.000866666666666667,-0.00240991953439914));
#106=CARTESIAN_POINT('',(0.0041,-0.000975,-0.00133217075455492));
#107=CARTESIAN_POINT('',(0.0041,-0.00108333333333333,-5.02105187650415E-19));
#108=CARTESIAN_POINT('',(0.0041,-0.00119166666666667,0.00133217075455491));
#109=CARTESIAN_POINT('',(0.00331696967693728,-0.0013,0.00240991953439914));
#110=CARTESIAN_POINT('',(0.00253393935387457,-0.00140833333333333,0.00348766831424336));
#111=CARTESIAN_POINT('',(0.00126696967693729,-0.00151666666666667,0.00389933171681013));
#112=CARTESIAN_POINT('',(7.91916956112716E-19,-0.00162499999999999,0.00431099511937689));
#113=CARTESIAN_POINT('',(-0.00126696967693728,-0.00173333333333333,0.00389933171681013));
#114=CARTESIAN_POINT('',(-0.00253393935387457,-0.00184166666666667,0.00348766831424337));
#115=CARTESIAN_POINT('',(-0.00331696967693728,-0.00195,0.00240991953439914));
#116=CARTESIAN_POINT('',(-0.0041,-0.00205833333333333,0.00133217075455492));
#117=CARTESIAN_POINT('',(-0.0041,-0.00216666666666667,0.));
#118=CARTESIAN_POINT('',(-0.0041,-0.00227499999999999,-0.00133217075455491));
#119=CARTESIAN_POINT('',(-0.00331696967693728,-0.00238333333333333,-0.00240991953439914));
#120=CARTESIAN_POINT('',(-0.00253393935387457,-0.00249166666666667,-0.00348766831424336));
#121=CARTESIAN_POINT('',(-0.00126696967693728,-0.0026,-0.00389933171681013));
#122=CARTESIAN_POINT('',(-2.63972318704238E-19,-0.00270833333333333,-0.00431099511937689));
#123=CARTESIAN_POINT('',(0.00126696967693728,-0.00281666666666667,-0.00389933171681013));
#124=CARTESIAN_POINT('',(0.00253393935387457,-0.00292499999999999,-0.00348766831424336));
#125=CARTESIAN_POINT('',(0.00331696967693728,-0.00303333333333333,-0.00240991953439914));
#126=CARTESIAN_POINT('',(0.0041,-0.00314166666666667,-0.00133217075455492));
#127=CARTESIAN_POINT('',(0.0041,-0.00325,-5.02105187650415E-19));
#128=CARTESIAN_POINT('',(0.0041,-0.00335833333333333,0.00133217075455491));
#129=CARTESIAN_POINT('',(0.00331696967693728,-0.00346666666666667,0.00240991953439914));
#130=CARTESIAN_POINT('',(0.00253393935387457,-0.00357499999999999,0.00348766831424336));
#131=CARTESIAN_POINT('',(0.00126696967693729,-0.00368333333333333,0.00389933171681013));
#132=CARTESIAN_POINT('',(7.91916956112716E-19,-0.00379166666666667,0.00431099511937689));
#133=CARTESIAN_POINT('',(-0.00126696967693728,-0.0039,0.00389933171681013));
#134=CARTESIAN_POINT('',(-0.00253393935387457,-0.00400833333333333,0.00348766831424337));
#135=CARTESIAN_POINT('',(-0.00331696967693728,-0.00411666666666667,0.00240991953439914));
#136=CARTESIAN_POINT('',(-0.0041,-0.00422499999999999,0.00133217075455492));
#137=CARTESIAN_POINT('',(-0.0041,-0.00433333333333333,0.));
#138=CARTESIAN_POINT('',(-0.0041,-0.00444166666666667,-0.00133217075455491));
#139=CARTESIAN_POINT('',(-0.00331696967693728,-0.00455,-0.00240991953439914));
#140=CARTESIAN_POINT('',(-0.00253393935387457,-0.00465833333333333,-0.00348766831424336));
#141=CARTESIAN_POINT('',(-0.00126696967693728,-0.00476666666666667,-0.00389933171681013));
#142=CARTESIAN_POINT('',(-2.63972318704238E-19,-0.00487499999999999,-0.00431099511937689));
#143=CARTESIAN_POINT('',(0.00126696967693728,-0.00498333333333333,-0.00389933171681013));
#144=CARTESIAN_POINT('',(0.00253393935387457,-0.00509166666666667,-0.00348766831424336));
#145=CARTESIAN_POINT('',(0.00331696967693728,-0.0052,-0.00240991953439914));
#146=CARTESIAN_POINT('',(0.0041,-0.00530833333333333,-0.00133217075455492));
#147=CARTESIAN_POINT('',(0.0041,-0.00541666666666667,-5.02105187650415E-19));
#148=CARTESIAN_POINT('',(0.0041,-0.00552499999999999,0.00133217075455491));
#149=CARTESIAN_POINT('',(0.00331696967693728,-0.00563333333333333,0.00240991953439914));
#150=CARTESIAN_POINT('',(0.00253393935387457,-0.00574166666666667,0.00348766831424336));
#151=CARTESIAN_POINT('',(0.00126696967693729,-0.00585,0.00389933171681013));
#152=CARTESIAN_POINT('',(7.91916956112716E-19,-0.00595833333333333,0.00431099511937689));
#153=CARTESIAN_POINT('',(-0.00126696967693728,-0.00606666666666667,0.00389933171681013));
#154=CARTESIAN_POINT('',(-0.00253393935387457,-0.00617499999999999,0.00348766831424337));
#155=CARTESIAN_POINT('',(-0.00331696967693728,-0.00628333333333333,0.00240991953439914));
#156=CARTESIAN_POINT('',(-0.0041,-0.00639166666666667,0.00133217075455492));
#157=CARTESIAN_POINT('',(-0.0041,-0.0065,0.));
#158=CARTESIAN_POINT('',(-0.0041,-0.00660833333333333,-0.00133217075455491));
#159=CARTESIAN_POINT('',(-0.00331696967693728,-0.00671666666666667,-0.00240991953439914));
#160=CARTESIAN_POINT('',(-0.00253393935387457,-0.00682499999999999,-0.00348766831424336));
#161=CARTESIAN_POINT('',(-0.00126696967693728,-0.00693333333333333,-0.00389933171681013));
#162=CARTESIAN_POINT('',(-2.63972318704238E-19,-0.00704166666666667,-0.00431099511937689));
#163=CARTESIAN_POINT('',(0.00126696967693728,-0.00715,-0.00389933171681013));
#164=CARTESIAN_POINT('',(0.00253393935387457,-0.00725833333333333,-0.00348766831424336));
#165=CARTESIAN_POINT('',(0.00331696967693728,-0.00736666666666667,-0.00240991953439914));
#166=CARTESIAN_POINT('',(0.0041,-0.00747499999999999,-0.00133217075455492));
#167=CARTESIAN_POINT('',(0.0041,-0.00758333333333333,-5.02105187650415E-19));
#168=CARTESIAN_POINT('',(0.0041,-0.00769166666666667,0.00133217075455491));
#169=CARTESIAN_POINT('',(0.00331696967693728,-0.0078,0.00240991953439914));
#170=CARTESIAN_POINT('',(0.00253393935387457,-0.00790833333333333,0.00348766831424336));
#171=CARTESIAN_POINT('',(0.00126696967693729,-0.00801666666666667,0.00389933171681013));
#172=CARTESIAN_POINT('',(7.91916956112716E-19,-0.00812499999999999,0.00431099511937689));
#173=CARTESIAN_POINT('',(-0.00126696967693728,-0.00823333333333333,0.00389933171681013));
#174=CARTESIAN_POINT('',(-0.00253393935387457,-0.00834166666666667,0.00348766831424337));
#175=CARTESIAN_POINT('',(-0.00331696967693728,-0.00845,0.00240991953439914));
#176=CARTESIAN_POINT('',(-0.0041,-0.00855833333333333,0.00133217075455492));
#177=CARTESIAN_POINT('',(-0.0041,-0.00866666666666667,0.));
#178=CARTESIAN_POINT('',(-0.0041,-0.00877499999999999,-0.00133217075455491));
#179=CARTESIAN_POINT('',(-0.00331696967693728,-0.00888333333333333,-0.00240991953439914));
#180=CARTESIAN_POINT('',(-0.00253393935387457,-0.00899166666666667,-0.00348766831424336));
#181=CARTESIAN_POINT('',(-0.00126696967693728,-0.0091,-0.00389933171681013));
#182=CARTESIAN_POINT('',(-2.63972318704238E-19,-0.00920833333333333,-0.00431099511937689));
#183=CARTESIAN_POINT('',(0.00126696967693728,-0.00931666666666667,-0.00389933171681013));
#184=CARTESIAN_POINT('',(0.00253393935387457,-0.00942499999999999,-0.00348766831424336));
#185=CARTESIAN_POINT('',(0.00331696967693728,-0.00953333333333333,-0.00240991953439914));
#186=CARTESIAN_POINT('',(0.0041,-0.00964166666666667,-0.00133217075455492));
#187=CARTESIAN_POINT('',(0.0041,-0.00975,-5.02105187650415E-19));
#188=CARTESIAN_POINT('',(0.0041,-0.00985833333333333,0.00133217075455491));
#189=CARTESIAN_POINT('',(0.00331696967693728,-0.00996666666666667,0.00240991953439914));
#190=CARTESIAN_POINT('',(0.00253393935387457,-0.010075,0.00348766831424336));
#191=CARTESIAN_POINT('',(0.00126696967693729,-0.0101833333333333,0.00389933171681013));
#192=CARTESIAN_POINT('',(7.91916956112716E-19,-0.0102916666666667,0.00431099511937689));
#193=CARTESIAN_POINT('',(-0.00126696967693728,-0.0104,0.00389933171681013));
#194=CARTESIAN_POINT('',(-0.00253393935387457,-0.0105083333333333,0.00348766831424337));
#195=CARTESIAN_POINT('',(-0.00331696967693728,-0.0106166666666667,0.00240991953439914));
#196=CARTESIAN_POINT('',(-0.0041,-0.010725,0.00133217075455492));
#197=CARTESIAN_POINT('',(-0.0041,-0.0108333333333333,0.));
#198=CARTESIAN_POINT('',(-0.0041,-0.0109416666666667,-0.00133217075455491));
#199=CARTESIAN_POINT('',(-0.00331696967693728,-0.01105,-0.00240991953439914));
#200=CARTESIAN_POINT('',(-0.00253393935387457,-0.0111583333333333,-0.00348766831424336));
#201=CARTESIAN_POINT('',(-0.00126696967693728,-0.0112666666666667,-0.00389933171681013));
#202=CARTESIAN_POINT('',(-2.63972318704238E-19,-0.011375,-0.00431099511937689));
#203=CARTESIAN_POINT('',(0.00126696967693728,-0.0114833333333333,-0.00389933171681013));
#204=CARTESIAN_POINT('',(0.00253393935387457,-0.0115916666666667,-0.00348766831424336));
#205=CARTESIAN_POINT('',(0.00331696967693728,-0.0117,-0.00240991953439914));
#206=CARTESIAN_POINT('',(0.0041,-0.0118083333333333,-0.00133217075455492));
#207=CARTESIAN_POINT('',(0.0041,-0.0119166666666667,-5.02105187650415E-19));
#208=CARTESIAN_POINT('',(0.0041,-0.012025,0.00133217075455491));
#209=CARTESIAN_POINT('',(0.00331696967693728,-0.0121333333333333,0.00240991953439914));
#210=CARTESIAN_POINT('',(0.00253393935387457,-0.0122416666666667,0.00348766831424336));
#211=CARTESIAN_POINT('',(0.00126696967693729,-0.01235,0.00389933171681013));
#212=CARTESIAN_POINT('',(7.91916956112716E-19,-0.0124583333333333,0.00431099511937689));
#213=CARTESIAN_POINT('',(-0.00126696967693728,-0.0125666666666667,0.00389933171681013));
#214=CARTESIAN_POINT('',(-0.00253393935387457,-0.012675,0.00348766831424337));
#215=CARTESIAN_POINT('',(-0.00331696967693728,-0.0127833333333333,0.00240991953439914));
#216=CARTESIAN_POINT('',(-0.0041,-0.0128916666666667,0.00133217075455492));
#217=CARTESIAN_POINT('',(-0.0041,-0.013,0.));
#218=CARTESIAN_POINT('',(-0.00410000000000001,0.000600000000000001,0.));
#219=CARTESIAN_POINT('',(-0.0041,0.000491666666666666,-0.00133217075455492));
#220=CARTESIAN_POINT('',(-0.00331696967693727,0.000383333333333334,-0.00240991953439914));
#221=CARTESIAN_POINT('',(-0.00253393935387457,0.000275,-0.00348766831424338));
#222=CARTESIAN_POINT('',(-0.00126696967693729,0.000166666666666667,-0.00389933171681013));
#223=CARTESIAN_POINT('',(-2.63972318704239E-19,5.83333333333334E-5,-0.00431099511937691));
#224=CARTESIAN_POINT('',(0.00126696967693728,-4.99999999999999E-5,-0.00389933171681013));
#225=CARTESIAN_POINT('',(0.00253393935387457,-0.000158333333333333,-0.00348766831424338));
#226=CARTESIAN_POINT('',(0.00331696967693727,-0.000266666666666667,-0.00240991953439914));
#227=CARTESIAN_POINT('',(0.0041,-0.000375,-0.00133217075455492));
#228=CARTESIAN_POINT('',(0.00410000000000001,-0.000483333333333333,-5.02105187650416E-19));
#229=CARTESIAN_POINT('',(0.0041,-0.000591666666666666,0.00133217075455492));
#230=CARTESIAN_POINT('',(0.00331696967693727,-0.0007,0.00240991953439914));
#231=CARTESIAN_POINT('',(0.00253393935387457,-0.000808333333333333,0.00348766831424335));
#232=CARTESIAN_POINT('',(0.00126696967693729,-0.000916666666666669,0.00389933171681013));
#233=CARTESIAN_POINT('',(7.91916956112716E-19,-0.001025,0.00431099511937691));
#234=CARTESIAN_POINT('',(-0.00126696967693728,-0.00113333333333334,0.00389933171681013));
#235=CARTESIAN_POINT('',(-0.00253393935387457,-0.00124166666666667,0.00348766831424338));
#236=CARTESIAN_POINT('',(-0.00331696967693727,-0.00135,0.00240991953439914));
#237=CARTESIAN_POINT('',(-0.0041,-0.00145833333333333,0.00133217075455492));
#238=CARTESIAN_POINT('',(-0.00410000000000001,-0.00156666666666667,0.));
#239=CARTESIAN_POINT('',(-0.0041,-0.001675,-0.00133217075455492));
#240=CARTESIAN_POINT('',(-0.00331696967693727,-0.00178333333333333,-0.00240991953439914));
#241=CARTESIAN_POINT('',(-0.00253393935387457,-0.00189166666666667,-0.00348766831424338));
#242=CARTESIAN_POINT('',(-0.00126696967693729,-0.002,-0.00389933171681013));
#243=CARTESIAN_POINT('',(-2.63972318704239E-19,-0.00210833333333333,-0.00431099511937691));
#244=CARTESIAN_POINT('',(0.00126696967693728,-0.00221666666666667,-0.00389933171681013));
#245=CARTESIAN_POINT('',(0.00253393935387457,-0.002325,-0.00348766831424338));
#246=CARTESIAN_POINT('',(0.00331696967693727,-0.00243333333333334,-0.00240991953439914));
#247=CARTESIAN_POINT('',(0.0041,-0.00254166666666667,-0.00133217075455492));
#248=CARTESIAN_POINT('',(0.00410000000000001,-0.00265,-5.02105187650416E-19));
#249=CARTESIAN_POINT('',(0.0041,-0.00275833333333333,0.00133217075455492));
#250=CARTESIAN_POINT('',(0.00331696967693727,-0.00286666666666667,0.00240991953439914));
#251=CARTESIAN_POINT('',(0.00253393935387457,-0.002975,0.00348766831424335));
#252=CARTESIAN_POINT('',(0.00126696967693729,-0.00308333333333334,0.00389933171681013));
#253=CARTESIAN_POINT('',(7.91916956112716E-19,-0.00319166666666667,0.00431099511937691));
#254=CARTESIAN_POINT('',(-0.00126696967693728,-0.0033,0.00389933171681013));
#255=CARTESIAN_POINT('',(-0.00253393935387457,-0.00340833333333334,0.00348766831424338));
#256=CARTESIAN_POINT('',(-0.00331696967693727,-0.00351666666666666,0.00240991953439914));
#257=CARTESIAN_POINT('',(-0.0041,-0.003625,0.00133217075455492));
#258=CARTESIAN_POINT('',(-0.00410000000000001,-0.00373333333333332,0.));
#259=CARTESIAN_POINT('',(-0.0041,-0.00384166666666666,-0.00133217075455492));
#260=CARTESIAN_POINT('',(-0.00331696967693727,-0.00395000000000001,-0.00240991953439914));
#261=CARTESIAN_POINT('',(-0.00253393935387457,-0.00405833333333333,-0.00348766831424338));
#262=CARTESIAN_POINT('',(-0.00126696967693729,-0.00416666666666667,-0.00389933171681013));
#263=CARTESIAN_POINT('',(-2.63972318704239E-19,-0.00427499999999999,-0.00431099511937691));
#264=CARTESIAN_POINT('',(0.00126696967693728,-0.00438333333333333,-0.00389933171681013));
#265=CARTESIAN_POINT('',(0.00253393935387457,-0.00449166666666665,-0.00348766831424338));
#266=CARTESIAN_POINT('',(0.00331696967693727,-0.00459999999999999,-0.00240991953439914));
#267=CARTESIAN_POINT('',(0.0041,-0.00470833333333335,-0.00133217075455492));
#268=CARTESIAN_POINT('',(0.00410000000000001,-0.00481666666666669,-5.02105187650416E-19));
#269=CARTESIAN_POINT('',(0.0041,-0.00492500000000001,0.00133217075455492));
#270=CARTESIAN_POINT('',(0.00331696967693727,-0.00503333333333335,0.00240991953439914));
#271=CARTESIAN_POINT('',(0.00253393935387457,-0.00514166666666667,0.00348766831424335));
#272=CARTESIAN_POINT('',(0.00126696967693729,-0.00525000000000001,0.00389933171681013));
#273=CARTESIAN_POINT('',(7.91916956112716E-19,-0.00535833333333334,0.00431099511937691));
#274=CARTESIAN_POINT('',(-0.00126696967693728,-0.00546666666666667,0.00389933171681013));
#275=CARTESIAN_POINT('',(-0.00253393935387457,-0.005575,0.00348766831424338));
#276=CARTESIAN_POINT('',(-0.00331696967693727,-0.00568333333333333,0.00240991953439914));
#277=CARTESIAN_POINT('',(-0.0041,-0.00579166666666666,0.00133217075455492));
#278=CARTESIAN_POINT('',(-0.00410000000000001,-0.00590000000000002,0.));
#279=CARTESIAN_POINT('',(-0.0041,-0.00600833333333333,-0.00133217075455492));
#280=CARTESIAN_POINT('',(-0.00331696967693727,-0.00611666666666668,-0.00240991953439914));
#281=CARTESIAN_POINT('',(-0.00253393935387457,-0.00622499999999999,-0.00348766831424338));
#282=CARTESIAN_POINT('',(-0.00126696967693729,-0.00633333333333334,-0.00389933171681013));
#283=CARTESIAN_POINT('',(-2.63972318704239E-19,-0.00644166666666669,-0.00431099511937691));
#284=CARTESIAN_POINT('',(0.00126696967693728,-0.00655,-0.00389933171681013));
#285=CARTESIAN_POINT('',(0.00253393935387457,-0.00665833333333335,-0.00348766831424338));
#286=CARTESIAN_POINT('',(0.00331696967693727,-0.00676666666666669,-0.00240991953439914));
#287=CARTESIAN_POINT('',(0.0041,-0.00687500000000001,-0.00133217075455492));
#288=CARTESIAN_POINT('',(0.00410000000000001,-0.00698333333333335,-5.02105187650416E-19));
#289=CARTESIAN_POINT('',(0.0041,-0.00709166666666668,0.00133217075455492));
#290=CARTESIAN_POINT('',(0.00331696967693727,-0.00720000000000001,0.00240991953439914));
#291=CARTESIAN_POINT('',(0.00253393935387457,-0.00730833333333334,0.00348766831424335));
#292=CARTESIAN_POINT('',(0.00126696967693729,-0.00741666666666667,0.00389933171681013));
#293=CARTESIAN_POINT('',(7.91916956112716E-19,-0.007525,0.00431099511937691));
#294=CARTESIAN_POINT('',(-0.00126696967693728,-0.00763333333333333,0.00389933171681013));
#295=CARTESIAN_POINT('',(-0.00253393935387457,-0.00774166666666667,0.00348766831424338));
#296=CARTESIAN_POINT('',(-0.00331696967693727,-0.00785000000000002,0.00240991953439914));
#297=CARTESIAN_POINT('',(-0.0041,-0.00795833333333333,0.00133217075455492));
#298=CARTESIAN_POINT('',(-0.00410000000000001,-0.00806666666666668,0.));
#299=CARTESIAN_POINT('',(-0.0041,-0.00817499999999999,-0.00133217075455492));
#300=CARTESIAN_POINT('',(-0.00331696967693727,-0.00828333333333334,-0.00240991953439914));
#301=CARTESIAN_POINT('',(-0.00253393935387457,-0.00839166666666669,-0.00348766831424338));
#302=CARTESIAN_POINT('',(-0.00126696967693729,-0.0085,-0.00389933171681013));
#303=CARTESIAN_POINT('',(-2.63972318704239E-19,-0.00860833333333335,-0.00431099511937691));
#304=CARTESIAN_POINT('',(0.00126696967693728,-0.00871666666666669,-0.00389933171681013));
#305=CARTESIAN_POINT('',(0.00253393935387457,-0.00882500000000002,-0.00348766831424338));
#306=CARTESIAN_POINT('',(0.00331696967693727,-0.00893333333333335,-0.00240991953439914));
#307=CARTESIAN_POINT('',(0.0041,-0.00904166666666668,-0.00133217075455492));
#308=CARTESIAN_POINT('',(0.00410000000000001,-0.00915000000000001,-5.02105187650416E-19));
#309=CARTESIAN_POINT('',(0.0041,-0.00925833333333334,0.00133217075455492));
#310=CARTESIAN_POINT('',(0.00331696967693727,-0.00936666666666667,0.00240991953439914));
#311=CARTESIAN_POINT('',(0.00253393935387457,-0.009475,0.00348766831424335));
#312=CARTESIAN_POINT('',(0.00126696967693729,-0.00958333333333333,0.00389933171681013));
#313=CARTESIAN_POINT('',(7.91916956112716E-19,-0.00969166666666667,0.00431099511937691));
#314=CARTESIAN_POINT('',(-0.00126696967693728,-0.00980000000000002,0.00389933171681013));
#315=CARTESIAN_POINT('',(-0.00253393935387457,-0.00990833333333333,0.00348766831424338));
#316=CARTESIAN_POINT('',(-0.00331696967693727,-0.0100166666666667,0.00240991953439914));
#317=CARTESIAN_POINT('',(-0.0041,-0.010125,0.00133217075455492));
#318=CARTESIAN_POINT('',(-0.00410000000000001,-0.0102333333333333,0.));
#319=CARTESIAN_POINT('',(-0.0041,-0.0103416666666667,-0.00133217075455492));
#320=CARTESIAN_POINT('',(-0.00331696967693727,-0.01045,-0.00240991953439914));
#321=CARTESIAN_POINT('',(-0.00253393935387457,-0.0105583333333334,-0.00348766831424338));
#322=CARTESIAN_POINT('',(-0.00126696967693729,-0.0106666666666667,-0.00389933171681013));
#323=CARTESIAN_POINT('',(-2.63972318704239E-19,-0.010775,-0.00431099511937691));
#324=CARTESIAN_POINT('',(0.00126696967693728,-0.0108833333333334,-0.00389933171681013));
#325=CARTESIAN_POINT('',(0.00253393935387457,-0.0109916666666667,-0.00348766831424338));
#326=CARTESIAN_POINT('',(0.00331696967693727,-0.0111,-0.00240991953439914));
#327=CARTESIAN_POINT('',(0.0041,-0.0112083333333333,-0.00133217075455492));
#328=CARTESIAN_POINT('',(0.00410000000000001,-0.0113166666666667,-5.02105187650416E-19));
#329=CARTESIAN_POINT('',(0.0041,-0.011425,0.00133217075455492));
#330=CARTESIAN_POINT('',(0.00331696967693727,-0.0115333333333333,0.00240991953439914));
#331=CARTESIAN_POINT('',(0.00253393935387457,-0.0116416666666667,0.00348766831424335));
#332=CARTESIAN_POINT('',(0.00126696967693729,-0.01175,0.00389933171681013));
#333=CARTESIAN_POINT('',(7.91916956112716E-19,-0.0118583333333333,0.00431099511937691));
#334=CARTESIAN_POINT('',(-0.00126696967693728,-0.0119666666666667,0.00389933171681013));
#335=CARTESIAN_POINT('',(-0.00253393935387457,-0.012075,0.00348766831424338));
#336=CARTESIAN_POINT('',(-0.00331696967693727,-0.0121833333333333,0.00240991953439914));
#337=CARTESIAN_POINT('',(-0.0041,-0.0122916666666667,0.00133217075455492));
#338=CARTESIAN_POINT('',(-0.00410000000000001,-0.0124,0.));
#339=CARTESIAN_POINT('',(-0.00470000000000001,0.000600000000000001,0.));
#340=CARTESIAN_POINT('',(-0.0047,0.000491666666666666,-0.00152712257229466));
#341=CARTESIAN_POINT('',(-0.00380237987356224,0.000383333333333334,-0.00276259068577463));
#342=CARTESIAN_POINT('',(-0.00290475974712451,0.000275,-0.00399805879925458));
#343=CARTESIAN_POINT('',(-0.00145237987356225,0.000166666666666667,-0.00446996562658722));
#344=CARTESIAN_POINT('',(-3.02602414124372E-19,5.83333333333334E-5,-0.00494187245391987));
#345=CARTESIAN_POINT('',(0.00145237987356225,-4.99999999999999E-5,-0.00446996562658722));
#346=CARTESIAN_POINT('',(0.00290475974712451,-0.000158333333333333,-0.00399805879925458));
#347=CARTESIAN_POINT('',(0.00380237987356224,-0.000266666666666667,-0.00276259068577463));
#348=CARTESIAN_POINT('',(0.0047,-0.000375,-0.00152712257229466));
#349=CARTESIAN_POINT('',(0.00470000000000001,-0.000483333333333333,-5.75583995599258E-19));
#350=CARTESIAN_POINT('',(0.0047,-0.000591666666666666,0.00152712257229466));
#351=CARTESIAN_POINT('',(0.00380237987356224,-0.0007,0.00276259068577463));
#352=CARTESIAN_POINT('',(0.00290475974712451,-0.000808333333333333,0.00399805879925458));
#353=CARTESIAN_POINT('',(0.00145237987356225,-0.000916666666666669,0.00446996562658722));
#354=CARTESIAN_POINT('',(9.07807242373114E-19,-0.001025,0.00494187245391987));
#355=CARTESIAN_POINT('',(-0.00145237987356225,-0.00113333333333334,0.00446996562658722));
#356=CARTESIAN_POINT('',(-0.00290475974712451,-0.00124166666666667,0.00399805879925458));
#357=CARTESIAN_POINT('',(-0.00380237987356224,-0.00135,0.00276259068577463));
#358=CARTESIAN_POINT('',(-0.0047,-0.00145833333333333,0.00152712257229466));
#359=CARTESIAN_POINT('',(-0.00470000000000001,-0.00156666666666667,0.));
#360=CARTESIAN_POINT('',(-0.0047,-0.001675,-0.00152712257229466));
#361=CARTESIAN_POINT('',(-0.00380237987356224,-0.00178333333333333,-0.00276259068577463));
#362=CARTESIAN_POINT('',(-0.00290475974712451,-0.00189166666666667,-0.00399805879925458));
#363=CARTESIAN_POINT('',(-0.00145237987356225,-0.002,-0.00446996562658722));
#364=CARTESIAN_POINT('',(-3.02602414124372E-19,-0.00210833333333333,-0.00494187245391987));
#365=CARTESIAN_POINT('',(0.00145237987356225,-0.00221666666666667,-0.00446996562658722));
#366=CARTESIAN_POINT('',(0.00290475974712451,-0.002325,-0.00399805879925458));
#367=CARTESIAN_POINT('',(0.00380237987356224,-0.00243333333333334,-0.00276259068577463));
#368=CARTESIAN_POINT('',(0.0047,-0.00254166666666667,-0.00152712257229466));
#369=CARTESIAN_POINT('',(0.00470000000000001,-0.00265,-5.75583995599258E-19));
#370=CARTESIAN_POINT('',(0.0047,-0.00275833333333333,0.00152712257229466));
#371=CARTESIAN_POINT('',(0.00380237987356224,-0.00286666666666667,0.00276259068577463));
#372=CARTESIAN_POINT('',(0.00290475974712451,-0.002975,0.00399805879925458));
#373=CARTESIAN_POINT('',(0.00145237987356225,-0.00308333333333334,0.00446996562658722));
#374=CARTESIAN_POINT('',(9.07807242373114E-19,-0.00319166666666667,0.00494187245391987));
#375=CARTESIAN_POINT('',(-0.00145237987356225,-0.0033,0.00446996562658722));
#376=CARTESIAN_POINT('',(-0.00290475974712451,-0.00340833333333334,0.00399805879925458));
#377=CARTESIAN_POINT('',(-0.00380237987356224,-0.00351666666666666,0.00276259068577463));
#378=CARTESIAN_POINT('',(-0.0047,-0.003625,0.00152712257229466));
#379=CARTESIAN_POINT('',(-0.00470000000000001,-0.00373333333333332,0.));
#380=CARTESIAN_POINT('',(-0.0047,-0.00384166666666666,-0.00152712257229466));
#381=CARTESIAN_POINT('',(-0.00380237987356224,-0.00395000000000001,-0.00276259068577463));
#382=CARTESIAN_POINT('',(-0.00290475974712451,-0.00405833333333333,-0.00399805879925458));
#383=CARTESIAN_POINT('',(-0.00145237987356225,-0.00416666666666667,-0.00446996562658722));
#384=CARTESIAN_POINT('',(-3.02602414124372E-19,-0.00427499999999999,-0.00494187245391987));
#385=CARTESIAN_POINT('',(0.00145237987356225,-0.00438333333333333,-0.00446996562658722));
#386=CARTESIAN_POINT('',(0.00290475974712451,-0.00449166666666665,-0.00399805879925458));
#387=CARTESIAN_POINT('',(0.00380237987356224,-0.00459999999999999,-0.00276259068577463));
#388=CARTESIAN_POINT('',(0.0047,-0.00470833333333335,-0.00152712257229466));
#389=CARTESIAN_POINT('',(0.00470000000000001,-0.00481666666666669,-5.75583995599258E-19));
#390=CARTESIAN_POINT('',(0.0047,-0.00492500000000001,0.00152712257229466));
#391=CARTESIAN_POINT('',(0.00380237987356224,-0.00503333333333335,0.00276259068577463));
#392=CARTESIAN_POINT('',(0.00290475974712451,-0.00514166666666667,0.00399805879925458));
#393=CARTESIAN_POINT('',(0.00145237987356225,-0.00525000000000001,0.00446996562658722));
#394=CARTESIAN_POINT('',(9.07807242373114E-19,-0.00535833333333334,0.00494187245391987));
#395=CARTESIAN_POINT('',(-0.00145237987356225,-0.00546666666666667,0.00446996562658722));
#396=CARTESIAN_POINT('',(-0.00290475974712451,-0.005575,0.00399805879925458));
#397=CARTESIAN_POINT('',(-0.00380237987356224,-0.00568333333333333,0.00276259068577463));
#398=CARTESIAN_POINT('',(-0.0047,-0.00579166666666666,0.00152712257229466));
#399=CARTESIAN_POINT('',(-0.00470000000000001,-0.00590000000000002,0.));
#400=CARTESIAN_POINT('',(-0.0047,-0.00600833333333333,-0.00152712257229466));
#401=CARTESIAN_POINT('',(-0.00380237987356224,-0.00611666666666668,-0.00276259068577463));
#402=CARTESIAN_POINT('',(-0.00290475974712451,-0.00622499999999999,-0.00399805879925458));
#403=CARTESIAN_POINT('',(-0.00145237987356225,-0.00633333333333334,-0.00446996562658722));
#404=CARTESIAN_POINT('',(-3.02602414124372E-19,-0.00644166666666669,-0.00494187245391987));
#405=CARTESIAN_POINT('',(0.00145237987356225,-0.00655,-0.00446996562658722));
#406=CARTESIAN_POINT('',(0.00290475974712451,-0.00665833333333335,-0.00399805879925458));
#407=CARTESIAN_POINT('',(0.00380237987356224,-0.00676666666666669,-0.00276259068577463));
#408=CARTESIAN_POINT('',(0.0047,-0.00687500000000001,-0.00152712257229466));
#409=CARTESIAN_POINT('',(0.00470000000000001,-0.00698333333333335,-5.75583995599258E-19));
#410=CARTESIAN_POINT('',(0.0047,-0.00709166666666668,0.00152712257229466));
#411=CARTESIAN_POINT('',(0.00380237987356224,-0.00720000000000001,0.00276259068577463));
#412=CARTESIAN_POINT('',(0.00290475974712451,-0.00730833333333334,0.00399805879925458));
#413=CARTESIAN_POINT('',(0.00145237987356225,-0.00741666666666667,0.00446996562658722));
#414=CARTESIAN_POINT('',(9.07807242373114E-19,-0.007525,0.00494187245391987));
#415=CARTESIAN_POINT('',(-0.00145237987356225,-0.00763333333333333,0.00446996562658722));
#416=CARTESIAN_POINT('',(-0.00290475974712451,-0.00774166666666667,0.00399805879925458));
#417=CARTESIAN_POINT('',(-0.00380237987356224,-0.00785000000000002,0.00276259068577463));
#418=CARTESIAN_POINT('',(-0.0047,-0.00795833333333333,0.00152712257229466));
#419=CARTESIAN_POINT('',(-0.00470000000000001,-0.00806666666666668,0.));
#420=CARTESIAN_POINT('',(-0.0047,-0.00817499999999999,-0.00152712257229466));
#421=CARTESIAN_POINT('',(-0.00380237987356224,-0.00828333333333334,-0.00276259068577463));
#422=CARTESIAN_POINT('',(-0.00290475974712451,-0.00839166666666669,-0.00399805879925458));
#423=CARTESIAN_POINT('',(-0.00145237987356225,-0.0085,-0.00446996562658722));
#424=CARTESIAN_POINT('',(-3.02602414124372E-19,-0.00860833333333335,-0.00494187245391987));
#425=CARTESIAN_POINT('',(0.00145237987356225,-0.00871666666666669,-0.00446996562658722));
#426=CARTESIAN_POINT('',(0.00290475974712451,-0.00882500000000002,-0.00399805879925458));
#427=CARTESIAN_POINT('',(0.00380237987356224,-0.00893333333333335,-0.00276259068577463));
#428=CARTESIAN_POINT('',(0.0047,-0.00904166666666668,-0.00152712257229466));
#429=CARTESIAN_POINT('',(0.00470000000000001,-0.00915000000000001,-5.75583995599258E-19));
#430=CARTESIAN_POINT('',(0.0047,-0.00925833333333334,0.00152712257229466));
#431=CARTESIAN_POINT('',(0.00380237987356224,-0.00936666666666667,0.00276259068577463));
#432=CARTESIAN_POINT('',(0.00290475974712451,-0.009475,0.00399805879925458));
#433=CARTESIAN_POINT('',(0.00145237987356225,-0.00958333333333333,0.00446996562658722));
#434=CARTESIAN_POINT('',(9.07807242373114E-19,-0.00969166666666667,0.00494187245391987));
#435=CARTESIAN_POINT('',(-0.00145237987356225,-0.00980000000000002,0.00446996562658722));
#436=CARTESIAN_POINT('',(-0.00290475974712451,-0.00990833333333333,0.00399805879925458));
#437=CARTESIAN_POINT('',(-0.00380237987356224,-0.0100166666666667,0.00276259068577463));
#438=CARTESIAN_POINT('',(-0.0047,-0.010125,0.00152712257229466));
#439=CARTESIAN_POINT('',(-0.00470000000000001,-0.0102333333333333,0.));
#440=CARTESIAN_POINT('',(-0.0047,-0.0103416666666667,-0.00152712257229466));
#441=CARTESIAN_POINT('',(-0.00380237987356224,-0.01045,-0.00276259068577463));
#442=CARTESIAN_POINT('',(-0.00290475974712451,-0.0105583333333334,-0.00399805879925458));
#443=CARTESIAN_POINT('',(-0.00145237987356225,-0.0106666666666667,-0.00446996562658722));
#444=CARTESIAN_POINT('',(-3.02602414124372E-19,-0.010775,-0.00494187245391987));
#445=CARTESIAN_POINT('',(0.00145237987356225,-0.0108833333333334,-0.00446996562658722));
#446=CARTESIAN_POINT('',(0.00290475974712451,-0.0109916666666667,-0.00399805879925458));
#447=CARTESIAN_POINT('',(0.00380237987356224,-0.0111,-0.00276259068577463));
#448=CARTESIAN_POINT('',(0.0047,-0.0112083333333333,-0.00152712257229466));
#449=CARTESIAN_POINT('',(0.00470000000000001,-0.0113166666666667,-5.75583995599258E-19));
#450=CARTESIAN_POINT('',(0.0047,-0.011425,0.00152712257229466));
#451=CARTESIAN_POINT('',(0.00380237987356224,-0.0115333333333333,0.00276259068577463));
#452=CARTESIAN_POINT('',(0.00290475974712451,-0.0116416666666667,0.00399805879925458));
#453=CARTESIAN_POINT('',(0.00145237987356225,-0.01175,0.00446996562658722));
#454=CARTESIAN_POINT('',(9.07807242373114E-19,-0.0118583333333333,0.00494187245391987));
#455=CARTESIAN_POINT('',(-0.00145237987356225,-0.0119666666666667,0.00446996562658722));
#456=CARTESIAN_POINT('',(-0.00290475974712451,-0.012075,0.00399805879925458));
#457=CARTESIAN_POINT('',(-0.00380237987356224,-0.0121833333333333,0.00276259068577463));
#458=CARTESIAN_POINT('',(-0.0047,-0.0122916666666667,0.00152712257229466));
#459=CARTESIAN_POINT('',(-0.00470000000000001,-0.0124,0.));
#460=CARTESIAN_POINT('',(-0.0047,3.67394039744206E-20,0.));
#461=CARTESIAN_POINT('',(-0.0047,-0.000108333333333334,-0.00152712257229466));
#462=CARTESIAN_POINT('',(-0.00380237987356225,-0.000216666666666667,-0.00276259068577462));
#463=CARTESIAN_POINT('',(-0.0029047597471245,-0.000325,-0.00399805879925458));
#464=CARTESIAN_POINT('',(-0.00145237987356225,-0.000433333333333333,-0.00446996562658722));
#465=CARTESIAN_POINT('',(-3.02602414124371E-19,-0.000541666666666666,-0.00494187245391985));
#466=CARTESIAN_POINT('',(0.00145237987356225,-0.00065,-0.00446996562658722));
#467=CARTESIAN_POINT('',(0.0029047597471245,-0.000758333333333332,-0.00399805879925458));
#468=CARTESIAN_POINT('',(0.00380237987356225,-0.000866666666666667,-0.00276259068577462));
#469=CARTESIAN_POINT('',(0.0047,-0.000975,-0.00152712257229466));
#470=CARTESIAN_POINT('',(0.0047,-0.00108333333333333,-5.75583995599256E-19));
#471=CARTESIAN_POINT('',(0.0047,-0.00119166666666667,0.00152712257229466));
#472=CARTESIAN_POINT('',(0.00380237987356225,-0.0013,0.00276259068577462));
#473=CARTESIAN_POINT('',(0.0029047597471245,-0.00140833333333333,0.00399805879925458));
#474=CARTESIAN_POINT('',(0.00145237987356225,-0.00151666666666667,0.00446996562658722));
#475=CARTESIAN_POINT('',(9.07807242373114E-19,-0.00162499999999999,0.00494187245391985));
#476=CARTESIAN_POINT('',(-0.00145237987356225,-0.00173333333333333,0.00446996562658722));
#477=CARTESIAN_POINT('',(-0.0029047597471245,-0.00184166666666667,0.00399805879925458));
#478=CARTESIAN_POINT('',(-0.00380237987356225,-0.00195,0.00276259068577462));
#479=CARTESIAN_POINT('',(-0.0047,-0.00205833333333333,0.00152712257229466));
#480=CARTESIAN_POINT('',(-0.0047,-0.00216666666666667,0.));
#481=CARTESIAN_POINT('',(-0.0047,-0.00227499999999999,-0.00152712257229466));
#482=CARTESIAN_POINT('',(-0.00380237987356225,-0.00238333333333333,-0.00276259068577462));
#483=CARTESIAN_POINT('',(-0.0029047597471245,-0.00249166666666667,-0.00399805879925458));
#484=CARTESIAN_POINT('',(-0.00145237987356225,-0.0026,-0.00446996562658722));
#485=CARTESIAN_POINT('',(-3.02602414124371E-19,-0.00270833333333333,-0.00494187245391985));
#486=CARTESIAN_POINT('',(0.00145237987356225,-0.00281666666666667,-0.00446996562658722));
#487=CARTESIAN_POINT('',(0.0029047597471245,-0.00292499999999999,-0.00399805879925458));
#488=CARTESIAN_POINT('',(0.00380237987356225,-0.00303333333333333,-0.00276259068577462));
#489=CARTESIAN_POINT('',(0.0047,-0.00314166666666667,-0.00152712257229466));
#490=CARTESIAN_POINT('',(0.0047,-0.00325,-5.75583995599256E-19));
#491=CARTESIAN_POINT('',(0.0047,-0.00335833333333333,0.00152712257229466));
#492=CARTESIAN_POINT('',(0.00380237987356225,-0.00346666666666667,0.00276259068577462));
#493=CARTESIAN_POINT('',(0.0029047597471245,-0.00357499999999999,0.00399805879925458));
#494=CARTESIAN_POINT('',(0.00145237987356225,-0.00368333333333333,0.00446996562658722));
#495=CARTESIAN_POINT('',(9.07807242373114E-19,-0.00379166666666667,0.00494187245391985));
#496=CARTESIAN_POINT('',(-0.00145237987356225,-0.0039,0.00446996562658722));
#497=CARTESIAN_POINT('',(-0.0029047597471245,-0.00400833333333333,0.00399805879925458));
#498=CARTESIAN_POINT('',(-0.00380237987356225,-0.00411666666666667,0.00276259068577462));
#499=CARTESIAN_POINT('',(-0.0047,-0.00422499999999999,0.00152712257229466));
#500=CARTESIAN_POINT('',(-0.0047,-0.00433333333333333,0.));
#501=CARTESIAN_POINT('',(-0.0047,-0.00444166666666667,-0.00152712257229466));
#502=CARTESIAN_POINT('',(-0.00380237987356225,-0.00455,-0.00276259068577462));
#503=CARTESIAN_POINT('',(-0.0029047597471245,-0.00465833333333333,-0.00399805879925458));
#504=CARTESIAN_POINT('',(-0.00145237987356225,-0.00476666666666667,-0.00446996562658722));
#505=CARTESIAN_POINT('',(-3.02602414124371E-19,-0.00487499999999999,-0.00494187245391985));
#506=CARTESIAN_POINT('',(0.00145237987356225,-0.00498333333333333,-0.00446996562658722));
#507=CARTESIAN_POINT('',(0.0029047597471245,-0.00509166666666667,-0.00399805879925458));
#508=CARTESIAN_POINT('',(0.00380237987356225,-0.0052,-0.00276259068577462));
#509=CARTESIAN_POINT('',(0.0047,-0.00530833333333333,-0.00152712257229466));
#510=CARTESIAN_POINT('',(0.0047,-0.00541666666666667,-5.75583995599256E-19));
#511=CARTESIAN_POINT('',(0.0047,-0.00552499999999999,0.00152712257229466));
#512=CARTESIAN_POINT('',(0.00380237987356225,-0.00563333333333333,0.00276259068577462));
#513=CARTESIAN_POINT('',(0.0029047597471245,-0.00574166666666667,0.00399805879925458));
#514=CARTESIAN_POINT('',(0.00145237987356225,-0.00585,0.00446996562658722));
#515=CARTESIAN_POINT('',(9.07807242373114E-19,-0.00595833333333333,0.00494187245391985));
#516=CARTESIAN_POINT('',(-0.00145237987356225,-0.00606666666666667,0.00446996562658722));
#517=CARTESIAN_POINT('',(-0.0029047597471245,-0.00617499999999999,0.00399805879925458));
#518=CARTESIAN_POINT('',(-0.00380237987356225,-0.00628333333333333,0.00276259068577462));
#519=CARTESIAN_POINT('',(-0.0047,-0.00639166666666667,0.00152712257229466));
#520=CARTESIAN_POINT('',(-0.0047,-0.0065,0.));
#521=CARTESIAN_POINT('',(-0.0047,-0.00660833333333333,-0.00152712257229466));
#522=CARTESIAN_POINT('',(-0.00380237987356225,-0.00671666666666667,-0.00276259068577462));
#523=CARTESIAN_POINT('',(-0.0029047597471245,-0.00682499999999999,-0.00399805879925458));
#524=CARTESIAN_POINT('',(-0.00145237987356225,-0.00693333333333333,-0.00446996562658722));
#525=CARTESIAN_POINT('',(-3.02602414124371E-19,-0.00704166666666667,-0.00494187245391985));
#526=CARTESIAN_POINT('',(0.00145237987356225,-0.00715,-0.00446996562658722));
#527=CARTESIAN_POINT('',(0.0029047597471245,-0.00725833333333333,-0.00399805879925458));
#528=CARTESIAN_POINT('',(0.00380237987356225,-0.00736666666666667,-0.00276259068577462));
#529=CARTESIAN_POINT('',(0.0047,-0.00747499999999999,-0.00152712257229466));
#530=CARTESIAN_POINT('',(0.0047,-0.00758333333333333,-5.75583995599256E-19));
#531=CARTESIAN_POINT('',(0.0047,-0.00769166666666667,0.00152712257229466));
#532=CARTESIAN_POINT('',(0.00380237987356225,-0.0078,0.00276259068577462));
#533=CARTESIAN_POINT('',(0.0029047597471245,-0.00790833333333333,0.00399805879925458));
#534=CARTESIAN_POINT('',(0.00145237987356225,-0.00801666666666667,0.00446996562658722));
#535=CARTESIAN_POINT('',(9.07807242373114E-19,-0.00812499999999999,0.00494187245391985));
#536=CARTESIAN_POINT('',(-0.00145237987356225,-0.00823333333333333,0.00446996562658722));
#537=CARTESIAN_POINT('',(-0.0029047597471245,-0.00834166666666667,0.00399805879925458));
#538=CARTESIAN_POINT('',(-0.00380237987356225,-0.00845,0.00276259068577462));
#539=CARTESIAN_POINT('',(-0.0047,-0.00855833333333333,0.00152712257229466));
#540=CARTESIAN_POINT('',(-0.0047,-0.00866666666666667,0.));
#541=CARTESIAN_POINT('',(-0.0047,-0.00877499999999999,-0.00152712257229466));
#542=CARTESIAN_POINT('',(-0.00380237987356225,-0.00888333333333333,-0.00276259068577462));
#543=CARTESIAN_POINT('',(-0.0029047597471245,-0.00899166666666667,-0.00399805879925458));
#544=CARTESIAN_POINT('',(-0.00145237987356225,-0.0091,-0.00446996562658722));
#545=CARTESIAN_POINT('',(-3.02602414124371E-19,-0.00920833333333333,-0.00494187245391985));
#546=CARTESIAN_POINT('',(0.00145237987356225,-0.00931666666666667,-0.00446996562658722));
#547=CARTESIAN_POINT('',(0.0029047597471245,-0.00942499999999999,-0.00399805879925458));
#548=CARTESIAN_POINT('',(0.00380237987356225,-0.00953333333333333,-0.00276259068577462));
#549=CARTESIAN_POINT('',(0.0047,-0.00964166666666667,-0.00152712257229466));
#550=CARTESIAN_POINT('',(0.0047,-0.00975,-5.75583995599256E-19));
#551=CARTESIAN_POINT('',(0.0047,-0.00985833333333333,0.00152712257229466));
#552=CARTESIAN_POINT('',(0.00380237987356225,-0.00996666666666667,0.00276259068577462));
#553=CARTESIAN_POINT('',(0.0029047597471245,-0.010075,0.00399805879925458));
#554=CARTESIAN_POINT('',(0.00145237987356225,-0.0101833333333333,0.00446996562658722));
#555=CARTESIAN_POINT('',(9.07807242373114E-19,-0.0102916666666667,0.00494187245391985));
#556=CARTESIAN_POINT('',(-0.00145237987356225,-0.0104,0.00446996562658722));
#557=CARTESIAN_POINT('',(-0.0029047597471245,-0.0105083333333333,0.00399805879925458));
#558=CARTESIAN_POINT('',(-0.00380237987356225,-0.0106166666666667,0.00276259068577462));
#559=CARTESIAN_POINT('',(-0.0047,-0.010725,0.00152712257229466));
#560=CARTESIAN_POINT('',(-0.0047,-0.0108333333333333,0.));
#561=CARTESIAN_POINT('',(-0.0047,-0.0109416666666667,-0.00152712257229466));
#562=CARTESIAN_POINT('',(-0.00380237987356225,-0.01105,-0.00276259068577462));
#563=CARTESIAN_POINT('',(-0.0029047597471245,-0.0111583333333333,-0.00399805879925458));
#564=CARTESIAN_POINT('',(-0.00145237987356225,-0.0112666666666667,-0.00446996562658722));
#565=CARTESIAN_POINT('',(-3.02602414124371E-19,-0.011375,-0.00494187245391985));
#566=CARTESIAN_POINT('',(0.00145237987356225,-0.0114833333333333,-0.00446996562658722));
#567=CARTESIAN_POINT('',(0.0029047597471245,-0.0115916666666667,-0.00399805879925458));
#568=CARTESIAN_POINT('',(0.00380237987356225,-0.0117,-0.00276259068577462));
#569=CARTESIAN_POINT('',(0.0047,-0.0118083333333333,-0.00152712257229466));
#570=CARTESIAN_POINT('',(0.0047,-0.0119166666666667,-5.75583995599256E-19));
#571=CARTESIAN_POINT('',(0.0047,-0.012025,0.00152712257229466));
#572=CARTESIAN_POINT('',(0.00380237987356225,-0.0121333333333333,0.00276259068577462));
#573=CARTESIAN_POINT('',(0.0029047597471245,-0.0122416666666667,0.00399805879925458));
#574=CARTESIAN_POINT('',(0.00145237987356225,-0.01235,0.00446996562658722));
#575=CARTESIAN_POINT('',(9.07807242373114E-19,-0.0124583333333333,0.00494187245391985));
#576=CARTESIAN_POINT('',(-0.00145237987356225,-0.0125666666666667,0.00446996562658722));
#577=CARTESIAN_POINT('',(-0.0029047597471245,-0.012675,0.00399805879925458));
#578=CARTESIAN_POINT('',(-0.00380237987356225,-0.0127833333333333,0.00276259068577462));
#579=CARTESIAN_POINT('',(-0.0047,-0.0128916666666667,0.00152712257229466));
#580=CARTESIAN_POINT('',(-0.0047,-0.013,0.));
#581=CARTESIAN_POINT('',(-0.00470000000000001,-0.000600000000000001,0.));
#582=CARTESIAN_POINT('',(-0.0047,-0.000708333333333333,-0.00152712257229466));
#583=CARTESIAN_POINT('',(-0.00380237987356224,-0.000816666666666667,-0.00276259068577463));
#584=CARTESIAN_POINT('',(-0.00290475974712451,-0.000924999999999999,-0.00399805879925458));
#585=CARTESIAN_POINT('',(-0.00145237987356225,-0.00103333333333333,-0.00446996562658722));
#586=CARTESIAN_POINT('',(-3.02602414124372E-19,-0.00114166666666667,-0.00494187245391987));
#587=CARTESIAN_POINT('',(0.00145237987356225,-0.00125,-0.00446996562658722));
#588=CARTESIAN_POINT('',(0.00290475974712451,-0.00135833333333334,-0.00399805879925458));
#589=CARTESIAN_POINT('',(0.00380237987356224,-0.00146666666666667,-0.00276259068577463));
#590=CARTESIAN_POINT('',(0.0047,-0.001575,-0.00152712257229466));
#591=CARTESIAN_POINT('',(0.00470000000000001,-0.00168333333333333,-5.75583995599258E-19));
#592=CARTESIAN_POINT('',(0.0047,-0.00179166666666667,0.00152712257229466));
#593=CARTESIAN_POINT('',(0.00380237987356224,-0.0019,0.00276259068577463));
#594=CARTESIAN_POINT('',(0.00290475974712451,-0.00200833333333333,0.00399805879925458));
#595=CARTESIAN_POINT('',(0.00145237987356225,-0.00211666666666667,0.00446996562658722));
#596=CARTESIAN_POINT('',(9.07807242373114E-19,-0.002225,0.00494187245391987));
#597=CARTESIAN_POINT('',(-0.00145237987356225,-0.00233333333333334,0.00446996562658722));
#598=CARTESIAN_POINT('',(-0.00290475974712451,-0.00244166666666667,0.00399805879925458));
#599=CARTESIAN_POINT('',(-0.00380237987356224,-0.00255,0.00276259068577463));
#600=CARTESIAN_POINT('',(-0.0047,-0.00265833333333333,0.00152712257229466));
#601=CARTESIAN_POINT('',(-0.00470000000000001,-0.00276666666666667,0.));
#602=CARTESIAN_POINT('',(-0.0047,-0.002875,-0.00152712257229466));
#603=CARTESIAN_POINT('',(-0.00380237987356224,-0.00298333333333334,-0.00276259068577463));
#604=CARTESIAN_POINT('',(-0.00290475974712451,-0.00309166666666667,-0.00399805879925458));
#605=CARTESIAN_POINT('',(-0.00145237987356225,-0.00320000000000001,-0.00446996562658722));
#606=CARTESIAN_POINT('',(-3.02602414124372E-19,-0.00330833333333332,-0.00494187245391987));
#607=CARTESIAN_POINT('',(0.00145237987356225,-0.00341666666666667,-0.00446996562658722));
#608=CARTESIAN_POINT('',(0.00290475974712451,-0.00352500000000002,-0.00399805879925458));
#609=CARTESIAN_POINT('',(0.00380237987356224,-0.00363333333333333,-0.00276259068577463));
#610=CARTESIAN_POINT('',(0.0047,-0.00374166666666668,-0.00152712257229466));
#611=CARTESIAN_POINT('',(0.00470000000000001,-0.00384999999999999,-5.75583995599258E-19));
#612=CARTESIAN_POINT('',(0.0047,-0.00395833333333334,0.00152712257229466));
#613=CARTESIAN_POINT('',(0.00380237987356224,-0.00406666666666668,0.00276259068577463));
#614=CARTESIAN_POINT('',(0.00290475974712451,-0.00417500000000001,0.00399805879925458));
#615=CARTESIAN_POINT('',(0.00145237987356225,-0.00428333333333334,0.00446996562658722));
#616=CARTESIAN_POINT('',(9.07807242373114E-19,-0.00439166666666667,0.00494187245391987));
#617=CARTESIAN_POINT('',(-0.00145237987356225,-0.0045,0.00446996562658722));
#618=CARTESIAN_POINT('',(-0.00290475974712451,-0.00460833333333333,0.00399805879925458));
#619=CARTESIAN_POINT('',(-0.00380237987356224,-0.00471666666666667,0.00276259068577463));
#620=CARTESIAN_POINT('',(-0.0047,-0.004825,0.00152712257229466));
#621=CARTESIAN_POINT('',(-0.00470000000000001,-0.00493333333333333,0.));
#622=CARTESIAN_POINT('',(-0.0047,-0.00504166666666666,-0.00152712257229466));
#623=CARTESIAN_POINT('',(-0.00380237987356224,-0.00515000000000002,-0.00276259068577463));
#624=CARTESIAN_POINT('',(-0.00290475974712451,-0.00525833333333332,-0.00399805879925458));
#625=CARTESIAN_POINT('',(-0.00145237987356225,-0.00536666666666668,-0.00446996562658722));
#626=CARTESIAN_POINT('',(-3.02602414124372E-19,-0.00547500000000002,-0.00494187245391987));
#627=CARTESIAN_POINT('',(0.00145237987356225,-0.00558333333333334,-0.00446996562658722));
#628=CARTESIAN_POINT('',(0.00290475974712451,-0.00569166666666668,-0.00399805879925458));
#629=CARTESIAN_POINT('',(0.00380237987356224,-0.0058,-0.00276259068577463));
#630=CARTESIAN_POINT('',(0.0047,-0.00590833333333334,-0.00152712257229466));
#631=CARTESIAN_POINT('',(0.00470000000000001,-0.00601666666666669,-5.75583995599258E-19));
#632=CARTESIAN_POINT('',(0.0047,-0.00612500000000001,0.00152712257229466));
#633=CARTESIAN_POINT('',(0.00380237987356224,-0.00623333333333335,0.00276259068577463));
#634=CARTESIAN_POINT('',(0.00290475974712451,-0.00634166666666667,0.00399805879925458));
#635=CARTESIAN_POINT('',(0.00145237987356225,-0.00645000000000001,0.00446996562658722));
#636=CARTESIAN_POINT('',(9.07807242373114E-19,-0.00655833333333333,0.00494187245391987));
#637=CARTESIAN_POINT('',(-0.00145237987356225,-0.00666666666666667,0.00446996562658722));
#638=CARTESIAN_POINT('',(-0.00290475974712451,-0.006775,0.00399805879925458));
#639=CARTESIAN_POINT('',(-0.00380237987356224,-0.00688333333333333,0.00276259068577463));
#640=CARTESIAN_POINT('',(-0.0047,-0.00699166666666666,0.00152712257229466));
#641=CARTESIAN_POINT('',(-0.00470000000000001,-0.00710000000000002,0.));
#642=CARTESIAN_POINT('',(-0.0047,-0.00720833333333332,-0.00152712257229466));
#643=CARTESIAN_POINT('',(-0.00380237987356224,-0.00731666666666668,-0.00276259068577463));
#644=CARTESIAN_POINT('',(-0.00290475974712451,-0.00742500000000002,-0.00399805879925458));
#645=CARTESIAN_POINT('',(-0.00145237987356225,-0.00753333333333334,-0.00446996562658722));
#646=CARTESIAN_POINT('',(-3.02602414124372E-19,-0.00764166666666668,-0.00494187245391987));
#647=CARTESIAN_POINT('',(0.00145237987356225,-0.00775,-0.00446996562658722));
#648=CARTESIAN_POINT('',(0.00290475974712451,-0.00785833333333335,-0.00399805879925458));
#649=CARTESIAN_POINT('',(0.00380237987356224,-0.00796666666666669,-0.00276259068577463));
#650=CARTESIAN_POINT('',(0.0047,-0.00807500000000001,-0.00152712257229466));
#651=CARTESIAN_POINT('',(0.00470000000000001,-0.00818333333333335,-5.75583995599258E-19));
#652=CARTESIAN_POINT('',(0.0047,-0.00829166666666667,0.00152712257229466));
#653=CARTESIAN_POINT('',(0.00380237987356224,-0.00840000000000001,0.00276259068577463));
#654=CARTESIAN_POINT('',(0.00290475974712451,-0.00850833333333334,0.00399805879925458));
#655=CARTESIAN_POINT('',(0.00145237987356225,-0.00861666666666667,0.00446996562658722));
#656=CARTESIAN_POINT('',(9.07807242373114E-19,-0.008725,0.00494187245391987));
#657=CARTESIAN_POINT('',(-0.00145237987356225,-0.00883333333333333,0.00446996562658722));
#658=CARTESIAN_POINT('',(-0.00290475974712451,-0.00894166666666666,0.00399805879925458));
#659=CARTESIAN_POINT('',(-0.00380237987356224,-0.00905000000000002,0.00276259068577463));
#660=CARTESIAN_POINT('',(-0.0047,-0.00915833333333333,0.00152712257229466));
#661=CARTESIAN_POINT('',(-0.00470000000000001,-0.00926666666666668,0.));
#662=CARTESIAN_POINT('',(-0.0047,-0.00937499999999999,-0.00152712257229466));
#663=CARTESIAN_POINT('',(-0.00380237987356224,-0.00948333333333334,-0.00276259068577463));
#664=CARTESIAN_POINT('',(-0.00290475974712451,-0.00959166666666668,-0.00399805879925458));
#665=CARTESIAN_POINT('',(-0.00145237987356225,-0.0097,-0.00446996562658722));
#666=CARTESIAN_POINT('',(-3.02602414124372E-19,-0.00980833333333335,-0.00494187245391987));
#667=CARTESIAN_POINT('',(0.00145237987356225,-0.00991666666666669,-0.00446996562658722));
#668=CARTESIAN_POINT('',(0.00290475974712451,-0.010025,-0.00399805879925458));
#669=CARTESIAN_POINT('',(0.00380237987356224,-0.0101333333333334,-0.00276259068577463));
#670=CARTESIAN_POINT('',(0.0047,-0.0102416666666667,-0.00152712257229466));
#671=CARTESIAN_POINT('',(0.00470000000000001,-0.01035,-5.75583995599258E-19));
#672=CARTESIAN_POINT('',(0.0047,-0.0104583333333333,0.00152712257229466));
#673=CARTESIAN_POINT('',(0.00380237987356224,-0.0105666666666667,0.00276259068577463));
#674=CARTESIAN_POINT('',(0.00290475974712451,-0.010675,0.00399805879925458));
#675=CARTESIAN_POINT('',(0.00145237987356225,-0.0107833333333333,0.00446996562658722));
#676=CARTESIAN_POINT('',(9.07807242373114E-19,-0.0108916666666667,0.00494187245391987));
#677=CARTESIAN_POINT('',(-0.00145237987356225,-0.011,0.00446996562658722));
#678=CARTESIAN_POINT('',(-0.00290475974712451,-0.0111083333333333,0.00399805879925458));
#679=CARTESIAN_POINT('',(-0.00380237987356224,-0.0112166666666667,0.00276259068577463));
#680=CARTESIAN_POINT('',(-0.0047,-0.011325,0.00152712257229466));
#681=CARTESIAN_POINT('',(-0.00470000000000001,-0.0114333333333333,0.));
#682=CARTESIAN_POINT('',(-0.0047,-0.0115416666666667,-0.00152712257229466));
#683=CARTESIAN_POINT('',(-0.00380237987356224,-0.01165,-0.00276259068577463));
#684=CARTESIAN_POINT('',(-0.00290475974712451,-0.0117583333333333,-0.00399805879925458));
#685=CARTESIAN_POINT('',(-0.00145237987356225,-0.0118666666666667,-0.00446996562658722));
#686=CARTESIAN_POINT('',(-3.02602414124372E-19,-0.011975,-0.00494187245391987));
#687=CARTESIAN_POINT('',(0.00145237987356225,-0.0120833333333334,-0.00446996562658722));
#688=CARTESIAN_POINT('',(0.00290475974712451,-0.0121916666666667,-0.00399805879925458));
#689=CARTESIAN_POINT('',(0.00380237987356224,-0.0123,-0.00276259068577463));
#690=CARTESIAN_POINT('',(0.0047,-0.0124083333333333,-0.00152712257229466));
#691=CARTESIAN_POINT('',(0.00470000000000001,-0.0125166666666667,-5.75583995599258E-19));
#692=CARTESIAN_POINT('',(0.0047,-0.012625,0.00152712257229466));
#693=CARTESIAN_POINT('',(0.00380237987356224,-0.0127333333333333,0.00276259068577463));
#694=CARTESIAN_POINT('',(0.00290475974712451,-0.0128416666666667,0.00399805879925458));
#695=CARTESIAN_POINT('',(0.00145237987356225,-0.01295,0.00446996562658722));
#696=CARTESIAN_POINT('',(9.07807242373114E-19,-0.0130583333333333,0.00494187245391987));
#697=CARTESIAN_POINT('',(-0.00145237987356225,-0.0131666666666667,0.00446996562658722));
#698=CARTESIAN_POINT('',(-0.00290475974712451,-0.013275,0.00399805879925458));
#699=CARTESIAN_POINT('',(-0.00380237987356224,-0.0133833333333333,0.00276259068577463));
#700=CARTESIAN_POINT('',(-0.0047,-0.0134916666666667,0.00152712257229466));
#701=CARTESIAN_POINT('',(-0.00470000000000001,-0.0136,0.));
#702=CARTESIAN_POINT('',(-0.00410000000000001,-0.000600000000000001,0.));
#703=CARTESIAN_POINT('',(-0.0041,-0.000708333333333333,-0.00133217075455492));
#704=CARTESIAN_POINT('',(-0.00331696967693727,-0.000816666666666667,-0.00240991953439914));
#705=CARTESIAN_POINT('',(-0.00253393935387457,-0.000924999999999999,-0.00348766831424338));
#706=CARTESIAN_POINT('',(-0.00126696967693729,-0.00103333333333333,-0.00389933171681013));
#707=CARTESIAN_POINT('',(-2.63972318704239E-19,-0.00114166666666667,-0.00431099511937691));
#708=CARTESIAN_POINT('',(0.00126696967693728,-0.00125,-0.00389933171681013));
#709=CARTESIAN_POINT('',(0.00253393935387457,-0.00135833333333334,-0.00348766831424338));
#710=CARTESIAN_POINT('',(0.00331696967693727,-0.00146666666666667,-0.00240991953439914));
#711=CARTESIAN_POINT('',(0.0041,-0.001575,-0.00133217075455492));
#712=CARTESIAN_POINT('',(0.00410000000000001,-0.00168333333333333,-5.02105187650416E-19));
#713=CARTESIAN_POINT('',(0.0041,-0.00179166666666667,0.00133217075455492));
#714=CARTESIAN_POINT('',(0.00331696967693727,-0.0019,0.00240991953439914));
#715=CARTESIAN_POINT('',(0.00253393935387457,-0.00200833333333333,0.00348766831424335));
#716=CARTESIAN_POINT('',(0.00126696967693729,-0.00211666666666667,0.00389933171681013));
#717=CARTESIAN_POINT('',(7.91916956112716E-19,-0.002225,0.00431099511937691));
#718=CARTESIAN_POINT('',(-0.00126696967693728,-0.00233333333333334,0.00389933171681013));
#719=CARTESIAN_POINT('',(-0.00253393935387457,-0.00244166666666667,0.00348766831424338));
#720=CARTESIAN_POINT('',(-0.00331696967693727,-0.00255,0.00240991953439914));
#721=CARTESIAN_POINT('',(-0.0041,-0.00265833333333333,0.00133217075455492));
#722=CARTESIAN_POINT('',(-0.00410000000000001,-0.00276666666666667,0.));
#723=CARTESIAN_POINT('',(-0.0041,-0.002875,-0.00133217075455492));
#724=CARTESIAN_POINT('',(-0.00331696967693727,-0.00298333333333334,-0.00240991953439914));
#725=CARTESIAN_POINT('',(-0.00253393935387457,-0.00309166666666667,-0.00348766831424338));
#726=CARTESIAN_POINT('',(-0.00126696967693729,-0.00320000000000001,-0.00389933171681013));
#727=CARTESIAN_POINT('',(-2.63972318704239E-19,-0.00330833333333332,-0.00431099511937691));
#728=CARTESIAN_POINT('',(0.00126696967693728,-0.00341666666666667,-0.00389933171681013));
#729=CARTESIAN_POINT('',(0.00253393935387457,-0.00352500000000002,-0.00348766831424338));
#730=CARTESIAN_POINT('',(0.00331696967693727,-0.00363333333333333,-0.00240991953439914));
#731=CARTESIAN_POINT('',(0.0041,-0.00374166666666668,-0.00133217075455492));
#732=CARTESIAN_POINT('',(0.00410000000000001,-0.00384999999999999,-5.02105187650416E-19));
#733=CARTESIAN_POINT('',(0.0041,-0.00395833333333334,0.00133217075455492));
#734=CARTESIAN_POINT('',(0.00331696967693727,-0.00406666666666668,0.00240991953439914));
#735=CARTESIAN_POINT('',(0.00253393935387457,-0.00417500000000001,0.00348766831424335));
#736=CARTESIAN_POINT('',(0.00126696967693729,-0.00428333333333334,0.00389933171681013));
#737=CARTESIAN_POINT('',(7.91916956112716E-19,-0.00439166666666667,0.00431099511937691));
#738=CARTESIAN_POINT('',(-0.00126696967693728,-0.0045,0.00389933171681013));
#739=CARTESIAN_POINT('',(-0.00253393935387457,-0.00460833333333333,0.00348766831424338));
#740=CARTESIAN_POINT('',(-0.00331696967693727,-0.00471666666666667,0.00240991953439914));
#741=CARTESIAN_POINT('',(-0.0041,-0.004825,0.00133217075455492));
#742=CARTESIAN_POINT('',(-0.00410000000000001,-0.00493333333333333,0.));
#743=CARTESIAN_POINT('',(-0.0041,-0.00504166666666666,-0.00133217075455492));
#744=CARTESIAN_POINT('',(-0.00331696967693727,-0.00515000000000002,-0.00240991953439914));
#745=CARTESIAN_POINT('',(-0.00253393935387457,-0.00525833333333332,-0.00348766831424338));
#746=CARTESIAN_POINT('',(-0.00126696967693729,-0.00536666666666668,-0.00389933171681013));
#747=CARTESIAN_POINT('',(-2.63972318704239E-19,-0.00547500000000002,-0.00431099511937691));
#748=CARTESIAN_POINT('',(0.00126696967693728,-0.00558333333333334,-0.00389933171681013));
#749=CARTESIAN_POINT('',(0.00253393935387457,-0.00569166666666668,-0.00348766831424338));
#750=CARTESIAN_POINT('',(0.00331696967693727,-0.0058,-0.00240991953439914));
#751=CARTESIAN_POINT('',(0.0041,-0.00590833333333334,-0.00133217075455492));
#752=CARTESIAN_POINT('',(0.00410000000000001,-0.00601666666666669,-5.02105187650416E-19));
#753=CARTESIAN_POINT('',(0.0041,-0.00612500000000001,0.00133217075455492));
#754=CARTESIAN_POINT('',(0.00331696967693727,-0.00623333333333335,0.00240991953439914));
#755=CARTESIAN_POINT('',(0.00253393935387457,-0.00634166666666667,0.00348766831424335));
#756=CARTESIAN_POINT('',(0.00126696967693729,-0.00645000000000001,0.00389933171681013));
#757=CARTESIAN_POINT('',(7.91916956112716E-19,-0.00655833333333333,0.00431099511937691));
#758=CARTESIAN_POINT('',(-0.00126696967693728,-0.00666666666666667,0.00389933171681013));
#759=CARTESIAN_POINT('',(-0.00253393935387457,-0.006775,0.00348766831424338));
#760=CARTESIAN_POINT('',(-0.00331696967693727,-0.00688333333333333,0.00240991953439914));
#761=CARTESIAN_POINT('',(-0.0041,-0.00699166666666666,0.00133217075455492));
#762=CARTESIAN_POINT('',(-0.00410000000000001,-0.00710000000000002,0.));
#763=CARTESIAN_POINT('',(-0.0041,-0.00720833333333332,-0.00133217075455492));
#764=CARTESIAN_POINT('',(-0.00331696967693727,-0.00731666666666668,-0.00240991953439914));
#765=CARTESIAN_POINT('',(-0.00253393935387457,-0.00742500000000002,-0.00348766831424338));
#766=CARTESIAN_POINT('',(-0.00126696967693729,-0.00753333333333334,-0.00389933171681013));
#767=CARTESIAN_POINT('',(-2.63972318704239E-19,-0.00764166666666668,-0.00431099511937691));
#768=CARTESIAN_POINT('',(0.00126696967693728,-0.00775,-0.00389933171681013));
#769=CARTESIAN_POINT('',(0.00253393935387457,-0.00785833333333335,-0.00348766831424338));
#770=CARTESIAN_POINT('',(0.00331696967693727,-0.00796666666666669,-0.00240991953439914));
#771=CARTESIAN_POINT('',(0.0041,-0.00807500000000001,-0.00133217075455492));
#772=CARTESIAN_POINT('',(0.00410000000000001,-0.00818333333333335,-5.02105187650416E-19));
#773=CARTESIAN_POINT('',(0.0041,-0.00829166666666667,0.00133217075455492));
#774=CARTESIAN_POINT('',(0.00331696967693727,-0.00840000000000001,0.00240991953439914));
#775=CARTESIAN_POINT('',(0.00253393935387457,-0.00850833333333334,0.00348766831424335));
#776=CARTESIAN_POINT('',(0.00126696967693729,-0.00861666666666667,0.00389933171681013));
#777=CARTESIAN_POINT('',(7.91916956112716E-19,-0.008725,0.00431099511937691));
#778=CARTESIAN_POINT('',(-0.00126696967693728,-0.00883333333333333,0.00389933171681013));
#779=CARTESIAN_POINT('',(-0.00253393935387457,-0.00894166666666666,0.00348766831424338));
#780=CARTESIAN_POINT('',(-0.00331696967693727,-0.00905000000000002,0.00240991953439914));
#781=CARTESIAN_POINT('',(-0.0041,-0.00915833333333333,0.00133217075455492));
#782=CARTESIAN_POINT('',(-0.00410000000000001,-0.00926666666666668,0.));
#783=CARTESIAN_POINT('',(-0.0041,-0.00937499999999999,-0.00133217075455492));
#784=CARTESIAN_POINT('',(-0.00331696967693727,-0.00948333333333334,-0.00240991953439914));
#785=CARTESIAN_POINT('',(-0.00253393935387457,-0.00959166666666668,-0.00348766831424338));
#786=CARTESIAN_POINT('',(-0.00126696967693729,-0.0097,-0.00389933171681013));
#787=CARTESIAN_POINT('',(-2.63972318704239E-19,-0.00980833333333335,-0.00431099511937691));
#788=CARTESIAN_POINT('',(0.00126696967693728,-0.00991666666666669,-0.00389933171681013));
#789=CARTESIAN_POINT('',(0.00253393935387457,-0.010025,-0.00348766831424338));
#790=CARTESIAN_POINT('',(0.00331696967693727,-0.0101333333333334,-0.00240991953439914));
#791=CARTESIAN_POINT('',(0.0041,-0.0102416666666667,-0.00133217075455492));
#792=CARTESIAN_POINT('',(0.00410000000000001,-0.01035,-5.02105187650416E-19));
#793=CARTESIAN_POINT('',(0.0041,-0.0104583333333333,0.00133217075455492));
#794=CARTESIAN_POINT('',(0.00331696967693727,-0.0105666666666667,0.00240991953439914));
#795=CARTESIAN_POINT('',(0.00253393935387457,-0.010675,0.00348766831424335));
#796=CARTESIAN_POINT('',(0.00126696967693729,-0.0107833333333333,0.00389933171681013));
#797=CARTESIAN_POINT('',(7.91916956112716E-19,-0.0108916666666667,0.00431099511937691));
#798=CARTESIAN_POINT('',(-0.00126696967693728,-0.011,0.00389933171681013));
#799=CARTESIAN_POINT('',(-0.00253393935387457,-0.0111083333333333,0.00348766831424338));
#800=CARTESIAN_POINT('',(-0.00331696967693727,-0.0112166666666667,0.00240991953439914));
#801=CARTESIAN_POINT('',(-0.0041,-0.011325,0.00133217075455492));
#802=CARTESIAN_POINT('',(-0.00410000000000001,-0.0114333333333333,0.));
#803=CARTESIAN_POINT('',(-0.0041,-0.0115416666666667,-0.00133217075455492));
#804=CARTESIAN_POINT('',(-0.00331696967693727,-0.01165,-0.00240991953439914));
#805=CARTESIAN_POINT('',(-0.00253393935387457,-0.0117583333333333,-0.00348766831424338));
#806=CARTESIAN_POINT('',(-0.00126696967693729,-0.0118666666666667,-0.00389933171681013));
#807=CARTESIAN_POINT('',(-2.63972318704239E-19,-0.011975,-0.00431099511937691));
#808=CARTESIAN_POINT('',(0.00126696967693728,-0.0120833333333334,-0.00389933171681013));
#809=CARTESIAN_POINT('',(0.00253393935387457,-0.0121916666666667,-0.00348766831424338));
#810=CARTESIAN_POINT('',(0.00331696967693727,-0.0123,-0.00240991953439914));
#811=CARTESIAN_POINT('',(0.0041,-0.0124083333333333,-0.00133217075455492));
#812=CARTESIAN_POINT('',(0.00410000000000001,-0.0125166666666667,-5.02105187650416E-19));
#813=CARTESIAN_POINT('',(0.0041,-0.012625,0.00133217075455492));
#814=CARTESIAN_POINT('',(0.00331696967693727,-0.0127333333333333,0.00240991953439914));
#815=CARTESIAN_POINT('',(0.00253393935387457,-0.0128416666666667,0.00348766831424335));
#816=CARTESIAN_POINT('',(0.00126696967693729,-0.01295,0.00389933171681013));
#817=CARTESIAN_POINT('',(7.91916956112716E-19,-0.0130583333333333,0.00431099511937691));
#818=CARTESIAN_POINT('',(-0.00126696967693728,-0.0131666666666667,0.00389933171681013));
#819=CARTESIAN_POINT('',(-0.00253393935387457,-0.013275,0.00348766831424338));
#820=CARTESIAN_POINT('',(-0.00331696967693727,-0.0133833333333333,0.00240991953439914));
#821=CARTESIAN_POINT('',(-0.0041,-0.0134916666666667,0.00133217075455492));
#822=CARTESIAN_POINT('',(-0.00410000000000001,-0.0136,0.));
#823=CARTESIAN_POINT('',(-0.0041,0.,0.));
#824=CARTESIAN_POINT('',(-0.0041,-0.000108333333333334,-0.00133217075455491));
#825=CARTESIAN_POINT('',(-0.00331696967693728,-0.000216666666666667,-0.00240991953439914));
#826=CARTESIAN_POINT('',(-0.00253393935387457,-0.000325,-0.00348766831424336));
#827=CARTESIAN_POINT('',(-0.00126696967693728,-0.000433333333333333,-0.00389933171681013));
#828=CARTESIAN_POINT('',(-2.63972318704238E-19,-0.000541666666666666,-0.00431099511937689));
#829=CARTESIAN_POINT('',(0.00126696967693728,-0.00065,-0.00389933171681013));
#830=CARTESIAN_POINT('',(0.00253393935387457,-0.000758333333333332,-0.00348766831424336));
#831=CARTESIAN_POINT('',(0.00331696967693728,-0.000866666666666667,-0.00240991953439914));
#832=CARTESIAN_POINT('',(0.0041,-0.000975,-0.00133217075455492));
#833=CARTESIAN_POINT('',(0.0041,-0.00108333333333333,-5.02105187650415E-19));
#834=CARTESIAN_POINT('',(0.0041,-0.00119166666666667,0.00133217075455491));
#835=CARTESIAN_POINT('',(0.00331696967693728,-0.0013,0.00240991953439914));
#836=CARTESIAN_POINT('',(0.00253393935387457,-0.00140833333333333,0.00348766831424336));
#837=CARTESIAN_POINT('',(0.00126696967693729,-0.00151666666666667,0.00389933171681013));
#838=CARTESIAN_POINT('',(7.91916956112716E-19,-0.00162499999999999,0.00431099511937689));
#839=CARTESIAN_POINT('',(-0.00126696967693728,-0.00173333333333333,0.00389933171681013));
#840=CARTESIAN_POINT('',(-0.00253393935387457,-0.00184166666666667,0.00348766831424337));
#841=CARTESIAN_POINT('',(-0.00331696967693728,-0.00195,0.00240991953439914));
#842=CARTESIAN_POINT('',(-0.0041,-0.00205833333333333,0.00133217075455492));
#843=CARTESIAN_POINT('',(-0.0041,-0.00216666666666667,0.));
#844=CARTESIAN_POINT('',(-0.0041,-0.00227499999999999,-0.00133217075455491));
#845=CARTESIAN_POINT('',(-0.00331696967693728,-0.00238333333333333,-0.00240991953439914));
#846=CARTESIAN_POINT('',(-0.00253393935387457,-0.00249166666666667,-0.00348766831424336));
#847=CARTESIAN_POINT('',(-0.00126696967693728,-0.0026,-0.00389933171681013));
#848=CARTESIAN_POINT('',(-2.63972318704238E-19,-0.00270833333333333,-0.00431099511937689));
#849=CARTESIAN_POINT('',(0.00126696967693728,-0.00281666666666667,-0.00389933171681013));
#850=CARTESIAN_POINT('',(0.00253393935387457,-0.00292499999999999,-0.00348766831424336));
#851=CARTESIAN_POINT('',(0.00331696967693728,-0.00303333333333333,-0.00240991953439914));
#852=CARTESIAN_POINT('',(0.0041,-0.00314166666666667,-0.00133217075455492));
#853=CARTESIAN_POINT('',(0.0041,-0.00325,-5.02105187650415E-19));
#854=CARTESIAN_POINT('',(0.0041,-0.00335833333333333,0.00133217075455491));
#855=CARTESIAN_POINT('',(0.00331696967693728,-0.00346666666666667,0.00240991953439914));
#856=CARTESIAN_POINT('',(0.00253393935387457,-0.00357499999999999,0.00348766831424336));
#857=CARTESIAN_POINT('',(0.00126696967693729,-0.00368333333333333,0.00389933171681013));
#858=CARTESIAN_POINT('',(7.91916956112716E-19,-0.00379166666666667,0.00431099511937689));
#859=CARTESIAN_POINT('',(-0.00126696967693728,-0.0039,0.00389933171681013));
#860=CARTESIAN_POINT('',(-0.00253393935387457,-0.00400833333333333,0.00348766831424337));
#861=CARTESIAN_POINT('',(-0.00331696967693728,-0.00411666666666667,0.00240991953439914));
#862=CARTESIAN_POINT('',(-0.0041,-0.00422499999999999,0.00133217075455492));
#863=CARTESIAN_POINT('',(-0.0041,-0.00433333333333333,0.));
#864=CARTESIAN_POINT('',(-0.0041,-0.00444166666666667,-0.00133217075455491));
#865=CARTESIAN_POINT('',(-0.00331696967693728,-0.00455,-0.00240991953439914));
#866=CARTESIAN_POINT('',(-0.00253393935387457,-0.00465833333333333,-0.00348766831424336));
#867=CARTESIAN_POINT('',(-0.00126696967693728,-0.00476666666666667,-0.00389933171681013));
#868=CARTESIAN_POINT('',(-2.63972318704238E-19,-0.00487499999999999,-0.00431099511937689));
#869=CARTESIAN_POINT('',(0.00126696967693728,-0.00498333333333333,-0.00389933171681013));
#870=CARTESIAN_POINT('',(0.00253393935387457,-0.00509166666666667,-0.00348766831424336));
#871=CARTESIAN_POINT('',(0.00331696967693728,-0.0052,-0.00240991953439914));
#872=CARTESIAN_POINT('',(0.0041,-0.00530833333333333,-0.00133217075455492));
#873=CARTESIAN_POINT('',(0.0041,-0.00541666666666667,-5.02105187650415E-19));
#874=CARTESIAN_POINT('',(0.0041,-0.00552499999999999,0.00133217075455491));
#875=CARTESIAN_POINT('',(0.00331696967693728,-0.00563333333333333,0.00240991953439914));
#876=CARTESIAN_POINT('',(0.00253393935387457,-0.00574166666666667,0.00348766831424336));
#877=CARTESIAN_POINT('',(0.00126696967693729,-0.00585,0.00389933171681013));
#878=CARTESIAN_POINT('',(7.91916956112716E-19,-0.00595833333333333,0.00431099511937689));
#879=CARTESIAN_POINT('',(-0.00126696967693728,-0.00606666666666667,0.00389933171681013));
#880=CARTESIAN_POINT('',(-0.00253393935387457,-0.00617499999999999,0.00348766831424337));
#881=CARTESIAN_POINT('',(-0.00331696967693728,-0.00628333333333333,0.00240991953439914));
#882=CARTESIAN_POINT('',(-0.0041,-0.00639166666666667,0.00133217075455492));
#883=CARTESIAN_POINT('',(-0.0041,-0.0065,0.));
#884=CARTESIAN_POINT('',(-0.0041,-0.00660833333333333,-0.00133217075455491));
#885=CARTESIAN_POINT('',(-0.00331696967693728,-0.00671666666666667,-0.00240991953439914));
#886=CARTESIAN_POINT('',(-0.00253393935387457,-0.00682499999999999,-0.00348766831424336));
#887=CARTESIAN_POINT('',(-0.00126696967693728,-0.00693333333333333,-0.00389933171681013));
#888=CARTESIAN_POINT('',(-2.63972318704238E-19,-0.00704166666666667,-0.00431099511937689));
#889=CARTESIAN_POINT('',(0.00126696967693728,-0.00715,-0.00389933171681013));
#890=CARTESIAN_POINT('',(0.00253393935387457,-0.00725833333333333,-0.00348766831424336));
#891=CARTESIAN_POINT('',(0.00331696967693728,-0.00736666666666667,-0.00240991953439914));
#892=CARTESIAN_POINT('',(0.0041,-0.00747499999999999,-0.00133217075455492));
#893=CARTESIAN_POINT('',(0.0041,-0.00758333333333333,-5.02105187650415E-19));
#894=CARTESIAN_POINT('',(0.0041,-0.00769166666666667,0.00133217075455491));
#895=CARTESIAN_POINT('',(0.00331696967693728,-0.0078,0.00240991953439914));
#896=CARTESIAN_POINT('',(0.00253393935387457,-0.00790833333333333,0.00348766831424336));
#897=CARTESIAN_POINT('',(0.00126696967693729,-0.00801666666666667,0.00389933171681013));
#898=CARTESIAN_POINT('',(7.91916956112716E-19,-0.00812499999999999,0.00431099511937689));
#899=CARTESIAN_POINT('',(-0.00126696967693728,-0.00823333333333333,0.00389933171681013));
#900=CARTESIAN_POINT('',(-0.00253393935387457,-0.00834166666666667,0.00348766831424337));
#901=CARTESIAN_POINT('',(-0.00331696967693728,-0.00845,0.00240991953439914));
#902=CARTESIAN_POINT('',(-0.0041,-0.00855833333333333,0.00133217075455492));
#903=CARTESIAN_POINT('',(-0.0041,-0.00866666666666667,0.));
#904=CARTESIAN_POINT('',(-0.0041,-0.00877499999999999,-0.00133217075455491));
#905=CARTESIAN_POINT('',(-0.00331696967693728,-0.00888333333333333,-0.00240991953439914));
#906=CARTESIAN_POINT('',(-0.00253393935387457,-0.00899166666666667,-0.00348766831424336));
#907=CARTESIAN_POINT('',(-0.00126696967693728,-0.0091,-0.00389933171681013));
#908=CARTESIAN_POINT('',(-2.63972318704238E-19,-0.00920833333333333,-0.00431099511937689));
#909=CARTESIAN_POINT('',(0.00126696967693728,-0.00931666666666667,-0.00389933171681013));
#910=CARTESIAN_POINT('',(0.00253393935387457,-0.00942499999999999,-0.00348766831424336));
#911=CARTESIAN_POINT('',(0.00331696967693728,-0.00953333333333333,-0.00240991953439914));
#912=CARTESIAN_POINT('',(0.0041,-0.00964166666666667,-0.00133217075455492));
#913=CARTESIAN_POINT('',(0.0041,-0.00975,-5.02105187650415E-19));
#914=CARTESIAN_POINT('',(0.0041,-0.00985833333333333,0.00133217075455491));
#915=CARTESIAN_POINT('',(0.00331696967693728,-0.00996666666666667,0.00240991953439914));
#916=CARTESIAN_POINT('',(0.00253393935387457,-0.010075,0.00348766831424336));
#917=CARTESIAN_POINT('',(0.00126696967693729,-0.0101833333333333,0.00389933171681013));
#918=CARTESIAN_POINT('',(7.91916956112716E-19,-0.0102916666666667,0.00431099511937689));
#919=CARTESIAN_POINT('',(-0.00126696967693728,-0.0104,0.00389933171681013));
#920=CARTESIAN_POINT('',(-0.00253393935387457,-0.0105083333333333,0.00348766831424337));
#921=CARTESIAN_POINT('',(-0.00331696967693728,-0.0106166666666667,0.00240991953439914));
#922=CARTESIAN_POINT('',(-0.0041,-0.010725,0.00133217075455492));
#923=CARTESIAN_POINT('',(-0.0041,-0.0108333333333333,0.));
#924=CARTESIAN_POINT('',(-0.0041,-0.0109416666666667,-0.00133217075455491));
#925=CARTESIAN_POINT('',(-0.00331696967693728,-0.01105,-0.00240991953439914));
#926=CARTESIAN_POINT('',(-0.00253393935387457,-0.0111583333333333,-0.00348766831424336));
#927=CARTESIAN_POINT('',(-0.00126696967693728,-0.0112666666666667,-0.00389933171681013));
#928=CARTESIAN_POINT('',(-2.63972318704238E-19,-0.011375,-0.00431099511937689));
#929=CARTESIAN_POINT('',(0.00126696967693728,-0.0114833333333333,-0.00389933171681013));
#930=CARTESIAN_POINT('',(0.00253393935387457,-0.0115916666666667,-0.00348766831424336));
#931=CARTESIAN_POINT('',(0.00331696967693728,-0.0117,-0.00240991953439914));
#932=CARTESIAN_POINT('',(0.0041,-0.0118083333333333,-0.00133217075455492));
#933=CARTESIAN_POINT('',(0.0041,-0.0119166666666667,-5.02105187650415E-19));
#934=CARTESIAN_POINT('',(0.0041,-0.012025,0.00133217075455491));
#935=CARTESIAN_POINT('',(0.00331696967693728,-0.0121333333333333,0.00240991953439914));
#936=CARTESIAN_POINT('',(0.00253393935387457,-0.0122416666666667,0.00348766831424336));
#937=CARTESIAN_POINT('',(0.00126696967693729,-0.01235,0.00389933171681013));
#938=CARTESIAN_POINT('',(7.91916956112716E-19,-0.0124583333333333,0.00431099511937689));
#939=CARTESIAN_POINT('',(-0.00126696967693728,-0.0125666666666667,0.00389933171681013));
#940=CARTESIAN_POINT('',(-0.00253393935387457,-0.012675,0.00348766831424337));
#941=CARTESIAN_POINT('',(-0.00331696967693728,-0.0127833333333333,0.00240991953439914));
#942=CARTESIAN_POINT('',(-0.0041,-0.0128916666666667,0.00133217075455492));
#943=CARTESIAN_POINT('',(-0.0041,-0.013,0.));
#944=CARTESIAN_POINT('',(-0.0044,-0.013,0.));
#945=CARTESIAN_POINT('',(-0.0047,-0.013,0.));
#946=CARTESIAN_POINT('',(-0.0041,-0.013,0.));
#947=CARTESIAN_POINT('',(-0.0047,-0.013,0.));
#948=CARTESIAN_POINT('',(-0.0047,-0.013,0.000321394131810253));
#949=CARTESIAN_POINT('',(-0.00462881774943214,-0.0130000000000005,0.000962407647439193));
#950=CARTESIAN_POINT('',(-0.00436340717994108,-0.0129999999999985,0.00172511983822162));
#951=CARTESIAN_POINT('',(-0.00404993840877996,-0.0130000000000025,0.00228711853043887));
#952=CARTESIAN_POINT('',(-0.00376807797506386,-0.0129999999999905,0.00267498681105336));
#953=CARTESIAN_POINT('',(-0.00349785314767142,-0.0129999999999996,0.0029644452576775));
#954=CARTESIAN_POINT('',(-0.00325219481778791,-0.0130000000000027,0.00317129985532668));
#955=CARTESIAN_POINT('',(-0.00308764576345013,-0.0129999999999912,0.00328810580851673));
#956=CARTESIAN_POINT('',(-0.00295942929920968,-0.0129999999999969,0.00335068494472119));
#957=CARTESIAN_POINT('',(-0.00288701250991148,-0.0130000000000005,0.00338087582890662));
#958=CARTESIAN_POINT('',(-0.00281213325068443,-0.0130000000000001,0.00336863128364444));
#959=CARTESIAN_POINT('',(-0.00283896372697025,-0.0129999999999989,0.00329494874237021));
#960=CARTESIAN_POINT('',(-0.00287519999682787,-0.0130000000000012,0.00322756204894901));
#961=CARTESIAN_POINT('',(-0.00295585841565942,-0.0129999999999914,0.00310603580584337));
#962=CARTESIAN_POINT('',(-0.00307458902268326,-0.0129999999999848,0.00294218620766705));
#963=CARTESIAN_POINT('',(-0.00326203124205995,-0.0130000000000086,0.00267439364928061));
#964=CARTESIAN_POINT('',(-0.00348025357831227,-0.0129999999999972,0.00232885694041593));
#965=CARTESIAN_POINT('',(-0.00377371103452668,-0.0130000000000017,0.00174823367113954));
#966=CARTESIAN_POINT('',(-0.00402749295686344,-0.0129999999999994,0.000982588882688916));
#967=CARTESIAN_POINT('',(-0.0041,-0.013,0.000327369932609531));
#968=CARTESIAN_POINT('',(-0.0041,-0.013,0.));
#969=CARTESIAN_POINT('',(-0.0041,0.,0.));
#970=CARTESIAN_POINT('',(-0.0041,0.,-0.000322169397659088));
#971=CARTESIAN_POINT('',(-0.00402972627961787,-1.22761093537009E-16,-0.0009666559321163));
#972=CARTESIAN_POINT('',(-0.00378439448005261,3.34656981364985E-16,-0.00172068722274387));
#973=CARTESIAN_POINT('',(-0.00349744761959412,-5.75870941184255E-16,-0.00229811033022661));
#974=CARTESIAN_POINT('',(-0.0032855010986511,1.7322677875384E-15,-0.00263846198299232));
#975=CARTESIAN_POINT('',(-0.00310238301621521,-3.02200453138236E-15,-0.00290383117501255));
#976=CARTESIAN_POINT('',(-0.00298428764442282,2.92156363305799E-16,-0.00306475761841387));
#977=CARTESIAN_POINT('',(-0.0028936981330694,7.0410361613662E-17,-0.00320165971393058));
#978=CARTESIAN_POINT('',(-0.002840428258344,-6.36809822987274E-16,-0.00327673469047152));
#979=CARTESIAN_POINT('',(-0.00281716917953094,1.0557494934894E-15,-0.0033787217188694));
#980=CARTESIAN_POINT('',(-0.00292067185597669,-5.70139170697906E-15,-0.00337545137728326));
#981=CARTESIAN_POINT('',(-0.0030392511300668,4.30528278447064E-15,-0.00331077202735349));
#982=CARTESIAN_POINT('',(-0.00321591362816076,-3.09403069988457E-15,-0.0032016054930196));
#983=CARTESIAN_POINT('',(-0.00340364062500705,-5.92257410472121E-15,-0.00304535274157937));
#984=CARTESIAN_POINT('',(-0.00357839937962835,-1.9232004948894E-15,-0.00287750624011764));
#985=CARTESIAN_POINT('',(-0.00379352402845869,-6.17643487839874E-15,-0.00263786787166696));
#986=CARTESIAN_POINT('',(-0.00403472165132028,2.05079546136527E-15,-0.00231121414524452));
#987=CARTESIAN_POINT('',(-0.00435580507768579,-1.19193370640657E-15,-0.00174396865623897));
#988=CARTESIAN_POINT('',(-0.00462750105479693,4.73310760016017E-16,-0.000971524365503293));
#989=CARTESIAN_POINT('',(-0.0047,3.67394039744206E-20,-0.000325676962378448));
#990=CARTESIAN_POINT('',(-0.0047,3.67394039744206E-20,0.));
#991=CARTESIAN_POINT('',(-0.0047,-0.013,0.));
#992=CARTESIAN_POINT('',(-0.0047,-0.013,0.));
#993=CARTESIAN_POINT('',(0.,0.,0.));
#994=CARTESIAN_POINT('',(0.,-0.013,0.));
#995=(
GEOMETRIC_REPRESENTATION_CONTEXT(3)
GLOBAL_UNCERTAINTY_ASSIGNED_CONTEXT((#996))
GLOBAL_UNIT_ASSIGNED_CONTEXT((#999,#998,#997))
REPRESENTATION_CONTEXT('id2','TOP_LEVEL_ASSEMBLY_PART')
);
#996=UNCERTAINTY_MEASURE_WITH_UNIT(LENGTH_MEASURE(2.E-5),#999,
'DISTANCE_ACCURACY_VALUE','Maximum Tolerance applied to model');
#997=(
NAMED_UNIT(*)
SI_UNIT($,.STERADIAN.)
SOLID_ANGLE_UNIT()
);
#998=(
NAMED_UNIT(*)
PLANE_ANGLE_UNIT()
SI_UNIT($,.RADIAN.)
);
#999=(
LENGTH_UNIT()
NAMED_UNIT(*)
SI_UNIT($,.METRE.)
);
#1000=PRODUCT_DEFINITION_SHAPE('','',#1001);
#1001=PRODUCT_DEFINITION('','',#1003,#1002);
#1002=PRODUCT_DEFINITION_CONTEXT('',#1009,'design');
#1003=PRODUCT_DEFINITION_FORMATION_WITH_SPECIFIED_SOURCE('','',#1005,
 .NOT_KNOWN.);
#1004=PRODUCT_RELATED_PRODUCT_CATEGORY('','',(#1005));
#1005=PRODUCT('id2','id2','id2',(#1007));
#1006=PRODUCT_CATEGORY('','');
#1007=PRODUCT_CONTEXT('',#1009,'mechanical');
#1008=APPLICATION_PROTOCOL_DEFINITION('international standard',
'ap242_managed_model_based_3d_engineering',2020,#1009);
#1009=APPLICATION_CONTEXT('managed model based 3d engineering');
ENDSEC;
END-ISO-10303-21;
