ISO-10303-21;
HEADER;
/* Generated by software containing ST-Developer
 * from STEP Tools, Inc. (www.steptools.com) 
 */
/* OPTION: using custom renumber hook */

FILE_DESCRIPTION(
/* description */ ('STEP AP242 Edition 2',
'CAx-IF Rec.Pracs.---Representation and Presentation of Product Manufa
cturing Information (PMI)---4.0---2014-10-13',
'CAx-IF Rec.Pracs.---3D Tessellated Geometry---0.4---2014-09-14','2;1',
'CAx-IF Rec.Pracs.---User Defined Attributes---1.5---2016-08-15'),
/* implementation_level */ '2;1');

FILE_NAME(
/* name */ '10068',
/* time_stamp */ '2026-07-13T04:50:51Z',
/* author */ (''),
/* organization */ (''),
/* preprocessor_version */ 'ST-DEVELOPER v20',
/* originating_system */ 'ONSHAPE BY PTC INC, 1.217',
/* authorisation */ '  ');

FILE_SCHEMA (('AP242_MANAGED_MODEL_BASED_3D_ENGINEERING_MIM_LF { 1 0 10303 442 3 1 4 }'));
ENDSEC;

DATA;
#10=SHAPE_REPRESENTATION_RELATIONSHIP('','',#154,#11);
#11=ADVANCED_BREP_SHAPE_REPRESENTATION('',(#152),#260);
#12=CONICAL_SURFACE('',#173,0.0015,0.785398163397453);
#13=PLANE('',#161);
#14=PLANE('',#163);
#15=PLANE('',#169);
#16=PLANE('',#170);
#17=PLANE('',#171);
#18=PLANE('',#172);
#19=CIRCLE('',#157,0.003);
#20=CIRCLE('',#158,0.003);
#21=CIRCLE('',#159,0.003);
#22=CIRCLE('',#160,0.003);
#23=CIRCLE('',#162,0.0017);
#24=CIRCLE('',#164,0.0015);
#25=CIRCLE('',#166,0.0015);
#26=CIRCLE('',#167,0.0015);
#27=CIRCLE('',#168,0.0015);
#28=ORIENTED_EDGE('',*,*,#62,.T.);
#29=ORIENTED_EDGE('',*,*,#63,.T.);
#30=ORIENTED_EDGE('',*,*,#64,.T.);
#31=ORIENTED_EDGE('',*,*,#65,.T.);
#32=ORIENTED_EDGE('',*,*,#66,.F.);
#33=ORIENTED_EDGE('',*,*,#67,.T.);
#34=ORIENTED_EDGE('',*,*,#68,.T.);
#35=ORIENTED_EDGE('',*,*,#66,.T.);
#36=ORIENTED_EDGE('',*,*,#69,.F.);
#37=ORIENTED_EDGE('',*,*,#67,.F.);
#38=ORIENTED_EDGE('',*,*,#70,.T.);
#39=ORIENTED_EDGE('',*,*,#71,.T.);
#40=ORIENTED_EDGE('',*,*,#72,.T.);
#41=ORIENTED_EDGE('',*,*,#73,.T.);
#42=ORIENTED_EDGE('',*,*,#74,.T.);
#43=ORIENTED_EDGE('',*,*,#69,.T.);
#44=ORIENTED_EDGE('',*,*,#75,.T.);
#45=ORIENTED_EDGE('',*,*,#71,.F.);
#46=ORIENTED_EDGE('',*,*,#76,.F.);
#47=ORIENTED_EDGE('',*,*,#64,.F.);
#48=ORIENTED_EDGE('',*,*,#77,.F.);
#49=ORIENTED_EDGE('',*,*,#73,.F.);
#50=ORIENTED_EDGE('',*,*,#78,.T.);
#51=ORIENTED_EDGE('',*,*,#62,.F.);
#52=ORIENTED_EDGE('',*,*,#78,.F.);
#53=ORIENTED_EDGE('',*,*,#72,.F.);
#54=ORIENTED_EDGE('',*,*,#75,.F.);
#55=ORIENTED_EDGE('',*,*,#63,.F.);
#56=ORIENTED_EDGE('',*,*,#76,.T.);
#57=ORIENTED_EDGE('',*,*,#74,.F.);
#58=ORIENTED_EDGE('',*,*,#77,.T.);
#59=ORIENTED_EDGE('',*,*,#65,.F.);
#60=ORIENTED_EDGE('',*,*,#68,.F.);
#61=ORIENTED_EDGE('',*,*,#70,.F.);
#62=EDGE_CURVE('',#79,#80,#92,.F.);
#63=EDGE_CURVE('',#80,#81,#19,.T.);
#64=EDGE_CURVE('',#81,#82,#93,.T.);
#65=EDGE_CURVE('',#82,#79,#20,.T.);
#66=EDGE_CURVE('',#83,#83,#21,.T.);
#67=EDGE_CURVE('',#84,#84,#22,.T.);
#68=EDGE_CURVE('',#85,#85,#23,.F.);
#69=EDGE_CURVE('',#86,#86,#24,.F.);
#70=EDGE_CURVE('',#87,#87,#25,.T.);
#71=EDGE_CURVE('',#88,#89,#94,.T.);
#72=EDGE_CURVE('',#89,#90,#26,.F.);
#73=EDGE_CURVE('',#90,#91,#95,.F.);
#74=EDGE_CURVE('',#91,#88,#27,.F.);
#75=EDGE_CURVE('',#81,#89,#96,.T.);
#76=EDGE_CURVE('',#82,#88,#97,.T.);
#77=EDGE_CURVE('',#91,#79,#98,.T.);
#78=EDGE_CURVE('',#90,#80,#99,.T.);
#79=VERTEX_POINT('',#223);
#80=VERTEX_POINT('',#224);
#81=VERTEX_POINT('',#226);
#82=VERTEX_POINT('',#228);
#83=VERTEX_POINT('',#231);
#84=VERTEX_POINT('',#233);
#85=VERTEX_POINT('',#236);
#86=VERTEX_POINT('',#239);
#87=VERTEX_POINT('',#242);
#88=VERTEX_POINT('',#244);
#89=VERTEX_POINT('',#245);
#90=VERTEX_POINT('',#247);
#91=VERTEX_POINT('',#249);
#92=LINE('',#222,#100);
#93=LINE('',#227,#101);
#94=LINE('',#243,#102);
#95=LINE('',#248,#103);
#96=LINE('',#252,#104);
#97=LINE('',#253,#105);
#98=LINE('',#255,#106);
#99=LINE('',#256,#107);
#100=VECTOR('',#178,1.);
#101=VECTOR('',#181,1.);
#102=VECTOR('',#200,1.);
#103=VECTOR('',#203,1.);
#104=VECTOR('',#208,1.);
#105=VECTOR('',#209,1.);
#106=VECTOR('',#212,1.);
#107=VECTOR('',#213,1.);
#108=EDGE_LOOP('',(#28,#29,#30,#31));
#109=EDGE_LOOP('',(#32));
#110=EDGE_LOOP('',(#33));
#111=EDGE_LOOP('',(#34));
#112=EDGE_LOOP('',(#35));
#113=EDGE_LOOP('',(#36));
#114=EDGE_LOOP('',(#37));
#115=EDGE_LOOP('',(#38));
#116=EDGE_LOOP('',(#39,#40,#41,#42));
#117=EDGE_LOOP('',(#43));
#118=EDGE_LOOP('',(#44,#45,#46,#47));
#119=EDGE_LOOP('',(#48,#49,#50,#51));
#120=EDGE_LOOP('',(#52,#53,#54,#55));
#121=EDGE_LOOP('',(#56,#57,#58,#59));
#122=EDGE_LOOP('',(#60));
#123=EDGE_LOOP('',(#61));
#124=FACE_BOUND('',#108,.T.);
#125=FACE_BOUND('',#109,.T.);
#126=FACE_BOUND('',#110,.T.);
#127=FACE_BOUND('',#111,.T.);
#128=FACE_BOUND('',#112,.T.);
#129=FACE_BOUND('',#113,.T.);
#130=FACE_BOUND('',#114,.T.);
#131=FACE_BOUND('',#115,.T.);
#132=FACE_BOUND('',#116,.T.);
#133=FACE_BOUND('',#117,.T.);
#134=FACE_BOUND('',#118,.T.);
#135=FACE_BOUND('',#119,.T.);
#136=FACE_BOUND('',#120,.T.);
#137=FACE_BOUND('',#121,.T.);
#138=FACE_BOUND('',#122,.T.);
#139=FACE_BOUND('',#123,.T.);
#140=CYLINDRICAL_SURFACE('',#156,0.003);
#141=CYLINDRICAL_SURFACE('',#165,0.0015);
#142=ADVANCED_FACE('',(#124,#125,#126),#140,.T.);
#143=ADVANCED_FACE('',(#127,#128),#13,.T.);
#144=ADVANCED_FACE('',(#129,#130),#14,.F.);
#145=ADVANCED_FACE('',(#131,#132,#133),#141,.F.);
#146=ADVANCED_FACE('',(#134),#15,.F.);
#147=ADVANCED_FACE('',(#135),#16,.F.);
#148=ADVANCED_FACE('',(#136),#17,.F.);
#149=ADVANCED_FACE('',(#137),#18,.F.);
#150=ADVANCED_FACE('',(#138,#139),#12,.F.);
#151=CLOSED_SHELL('',(#142,#143,#144,#145,#146,#147,#148,#149,#150));
#152=MANIFOLD_SOLID_BREP('',#151);
#153=SHAPE_DEFINITION_REPRESENTATION(#265,#154);
#154=SHAPE_REPRESENTATION('id2',(#155),#260);
#155=AXIS2_PLACEMENT_3D('',#220,#174,#175);
#156=AXIS2_PLACEMENT_3D('',#221,#176,#177);
#157=AXIS2_PLACEMENT_3D('',#225,#179,#180);
#158=AXIS2_PLACEMENT_3D('',#229,#182,#183);
#159=AXIS2_PLACEMENT_3D('',#230,#184,#185);
#160=AXIS2_PLACEMENT_3D('',#232,#186,#187);
#161=AXIS2_PLACEMENT_3D('',#234,#188,#189);
#162=AXIS2_PLACEMENT_3D('',#235,#190,#191);
#163=AXIS2_PLACEMENT_3D('',#237,#192,#193);
#164=AXIS2_PLACEMENT_3D('',#238,#194,#195);
#165=AXIS2_PLACEMENT_3D('',#240,#196,#197);
#166=AXIS2_PLACEMENT_3D('',#241,#198,#199);
#167=AXIS2_PLACEMENT_3D('',#246,#201,#202);
#168=AXIS2_PLACEMENT_3D('',#250,#204,#205);
#169=AXIS2_PLACEMENT_3D('',#251,#206,#207);
#170=AXIS2_PLACEMENT_3D('',#254,#210,#211);
#171=AXIS2_PLACEMENT_3D('',#257,#214,#215);
#172=AXIS2_PLACEMENT_3D('',#258,#216,#217);
#173=AXIS2_PLACEMENT_3D('',#259,#218,#219);
#174=DIRECTION('',(0.,0.,1.));
#175=DIRECTION('',(1.,0.,0.));
#176=DIRECTION('',(0.,-1.,0.));
#177=DIRECTION('',(0.,0.,-1.));
#178=DIRECTION('',(0.,-1.,0.));
#179=DIRECTION('',(0.,1.,0.));
#180=DIRECTION('',(0.,0.,1.));
#181=DIRECTION('',(0.,-1.,0.));
#182=DIRECTION('',(0.,-1.,0.));
#183=DIRECTION('',(0.,0.,-1.));
#184=DIRECTION('',(0.,1.,0.));
#185=DIRECTION('',(0.,0.,1.));
#186=DIRECTION('',(0.,1.,0.));
#187=DIRECTION('',(0.,0.,1.));
#188=DIRECTION('',(0.,1.,0.));
#189=DIRECTION('',(0.,0.,1.));
#190=DIRECTION('',(0.,1.,0.));
#191=DIRECTION('',(0.,0.,1.));
#192=DIRECTION('',(0.,1.,0.));
#193=DIRECTION('',(0.,0.,1.));
#194=DIRECTION('',(0.,1.,0.));
#195=DIRECTION('',(0.,0.,1.));
#196=DIRECTION('',(0.,1.,0.));
#197=DIRECTION('',(0.,0.,1.));
#198=DIRECTION('',(0.,1.,0.));
#199=DIRECTION('',(0.,0.,1.));
#200=DIRECTION('',(0.,1.,0.));
#201=DIRECTION('',(0.,1.,0.));
#202=DIRECTION('',(0.,0.,1.));
#203=DIRECTION('',(0.,1.,0.));
#204=DIRECTION('',(0.,-1.,0.));
#205=DIRECTION('',(0.,0.,-1.));
#206=DIRECTION('',(-1.,-1.35525271560688E-16,0.));
#207=DIRECTION('',(1.35525271560688E-16,-1.,0.));
#208=DIRECTION('',(0.,0.,1.));
#209=DIRECTION('',(0.,0.,1.));
#210=DIRECTION('',(-1.,-1.35525271560688E-16,0.));
#211=DIRECTION('',(1.35525271560688E-16,-1.,0.));
#212=DIRECTION('',(0.,0.,1.));
#213=DIRECTION('',(0.,0.,1.));
#214=DIRECTION('',(0.,1.,0.));
#215=DIRECTION('',(0.,0.,1.));
#216=DIRECTION('',(0.,-1.,0.));
#217=DIRECTION('',(0.,0.,-1.));
#218=DIRECTION('',(0.,1.,0.));
#219=DIRECTION('',(0.,0.,1.));
#220=CARTESIAN_POINT('',(0.,0.,0.));
#221=CARTESIAN_POINT('',(0.,0.0072,0.));
#222=CARTESIAN_POINT('',(0.0009,0.0072,0.00286181760425084));
#223=CARTESIAN_POINT('',(0.0009,0.002,0.00286181760425084));
#224=CARTESIAN_POINT('',(0.0009,0.0044,0.00286181760425084));
#225=CARTESIAN_POINT('',(0.,0.0044,0.));
#226=CARTESIAN_POINT('',(0.0009,0.0044,-0.00286181760425084));
#227=CARTESIAN_POINT('',(0.0009,0.0072,-0.00286181760425084));
#228=CARTESIAN_POINT('',(0.0009,0.002,-0.00286181760425084));
#229=CARTESIAN_POINT('',(0.,0.002,0.));
#230=CARTESIAN_POINT('',(0.,0.0072,0.));
#231=CARTESIAN_POINT('',(0.,0.0072,0.003));
#232=CARTESIAN_POINT('',(0.,0.,0.));
#233=CARTESIAN_POINT('',(0.,0.,0.003));
#234=CARTESIAN_POINT('',(0.,0.0072,0.));
#235=CARTESIAN_POINT('',(0.,0.0072,0.));
#236=CARTESIAN_POINT('',(0.,0.0072,0.0017));
#237=CARTESIAN_POINT('',(0.,0.,0.));
#238=CARTESIAN_POINT('',(0.,0.,0.));
#239=CARTESIAN_POINT('',(0.,0.,0.0015));
#240=CARTESIAN_POINT('',(0.,-1.00000000000013E-6,0.));
#241=CARTESIAN_POINT('',(0.,0.007,0.));
#242=CARTESIAN_POINT('',(0.,0.007,0.0015));
#243=CARTESIAN_POINT('',(0.0009,-1.E-6,-0.0012));
#244=CARTESIAN_POINT('',(0.0009,0.002,-0.0012));
#245=CARTESIAN_POINT('',(0.0009,0.0044,-0.0012));
#246=CARTESIAN_POINT('',(0.,0.0044,0.));
#247=CARTESIAN_POINT('',(0.0009,0.0044,0.0012));
#248=CARTESIAN_POINT('',(0.0009,-1.E-6,0.0012));
#249=CARTESIAN_POINT('',(0.0009,0.002,0.0012));
#250=CARTESIAN_POINT('',(0.,0.002,0.));
#251=CARTESIAN_POINT('',(0.0009,0.0044,-0.003));
#252=CARTESIAN_POINT('',(0.0009,0.0044,-0.003));
#253=CARTESIAN_POINT('',(0.0009,0.002,-0.003));
#254=CARTESIAN_POINT('',(0.0009,0.0044,-0.003));
#255=CARTESIAN_POINT('',(0.0009,0.002,-0.003));
#256=CARTESIAN_POINT('',(0.0009,0.0044,-0.003));
#257=CARTESIAN_POINT('',(0.0009,0.0044,-0.003));
#258=CARTESIAN_POINT('',(0.0009,0.002,-0.003));
#259=CARTESIAN_POINT('',(0.,0.007,0.));
#260=(
GEOMETRIC_REPRESENTATION_CONTEXT(3)
GLOBAL_UNCERTAINTY_ASSIGNED_CONTEXT((#261))
GLOBAL_UNIT_ASSIGNED_CONTEXT((#264,#263,#262))
REPRESENTATION_CONTEXT('id2','TOP_LEVEL_ASSEMBLY_PART')
);
#261=UNCERTAINTY_MEASURE_WITH_UNIT(LENGTH_MEASURE(1.E-8),#264,
'DISTANCE_ACCURACY_VALUE','Maximum Tolerance applied to model');
#262=(
NAMED_UNIT(*)
SI_UNIT($,.STERADIAN.)
SOLID_ANGLE_UNIT()
);
#263=(
NAMED_UNIT(*)
PLANE_ANGLE_UNIT()
SI_UNIT($,.RADIAN.)
);
#264=(
LENGTH_UNIT()
NAMED_UNIT(*)
SI_UNIT($,.METRE.)
);
#265=PRODUCT_DEFINITION_SHAPE('','',#266);
#266=PRODUCT_DEFINITION('','',#268,#267);
#267=PRODUCT_DEFINITION_CONTEXT('',#274,'design');
#268=PRODUCT_DEFINITION_FORMATION_WITH_SPECIFIED_SOURCE('','',#270,
 .NOT_KNOWN.);
#269=PRODUCT_RELATED_PRODUCT_CATEGORY('','',(#270));
#270=PRODUCT('id2','id2','id2',(#272));
#271=PRODUCT_CATEGORY('','');
#272=PRODUCT_CONTEXT('',#274,'mechanical');
#273=APPLICATION_PROTOCOL_DEFINITION('international standard',
'ap242_managed_model_based_3d_engineering',2020,#274);
#274=APPLICATION_CONTEXT('managed model based 3d engineering');
ENDSEC;
END-ISO-10303-21;
