ISO-10303-21;
HEADER;
/* Generated by software containing ST-Developer
 * from STEP Tools, Inc. (www.steptools.com) 
 */
/* OPTION: using custom renumber hook */

FILE_DESCRIPTION(
/* description */ ('STEP AP242 Edition 2',
'CAx-IF Rec.Pracs.---Representation and Presentation of Product Manufa
cturing Information (PMI)---4.0---2014-10-13',
'CAx-IF Rec.Pracs.---3D Tessellated Geometry---0.4---2014-09-14','2;1',
'CAx-IF Rec.Pracs.---User Defined Attributes---1.5---2016-08-15'),
/* implementation_level */ '2;1');

FILE_NAME(
/* name */ '10066',
/* time_stamp */ '2026-07-13T04:50:41Z',
/* author */ (''),
/* organization */ (''),
/* preprocessor_version */ 'ST-DEVELOPER v20',
/* originating_system */ 'ONSHAPE BY PTC INC, 1.217',
/* authorisation */ '  ');

FILE_SCHEMA (('AP242_MANAGED_MODEL_BASED_3D_ENGINEERING_MIM_LF { 1 0 10303 442 3 1 4 }'));
ENDSEC;

DATA;
#10=SHAPE_REPRESENTATION_RELATIONSHIP('','',#713,#11);
#11=ADVANCED_BREP_SHAPE_REPRESENTATION('',(#711),#1189);
#12=VERTEX_LOOP('',#550);
#13=CONICAL_SURFACE('',#770,0.0009,1.02974425867665);
#14=B_SPLINE_CURVE_WITH_KNOTS('',3,(#1132,#1133,#1134,#1135,#1136,#1137,
#1138,#1139,#1140,#1141,#1142,#1143,#1144,#1145,#1146),.UNSPECIFIED.,.T.,
 .F.,(1,1,1,1,1,1,1,1,1,1,1,1,1,1,1,1,1,1,1),(-0.00146597042736386,-0.0010994778205229,
-0.00073298521368193,0.,0.00073298521368193,0.00109947782052289,0.00146597042736386,
0.00183246303420482,0.00219895564104579,0.00293194085472772,0.00366492606840965,
0.00403141867525061,0.00439791128209158,0.00476440388893254,0.00513089649577351,
0.00586388170945544,0.00659686692313737,0.00696335952997833,0.0073298521368193),
 .UNSPECIFIED.);
#15=B_SPLINE_CURVE_WITH_KNOTS('',3,(#1148,#1149,#1150,#1151,#1152,#1153,
#1154,#1155,#1156,#1157,#1158,#1159,#1160,#1161,#1162),.UNSPECIFIED.,.T.,
 .F.,(1,1,1,1,1,1,1,1,1,1,1,1,1,1,1,1,1,1,1),(-0.00146597042736386,-0.00109947782052289,
-0.000732985213681929,0.,0.00073298521368193,0.00109947782052289,0.00146597042736386,
0.00183246303420482,0.00219895564104579,0.00293194085472772,0.00366492606840965,
0.00403141867525061,0.00439791128209158,0.00476440388893254,0.00513089649577351,
0.00586388170945544,0.00659686692313737,0.00696335952997833,0.0073298521368193),
 .UNSPECIFIED.);
#16=CIRCLE('',#741,0.000899999999999989);
#17=CIRCLE('',#745,0.00175);
#18=CIRCLE('',#747,0.00125);
#19=CIRCLE('',#749,0.00175);
#20=CIRCLE('',#751,0.00125);
#21=CIRCLE('',#769,0.0009);
#22=PLANE('',#721);
#23=PLANE('',#722);
#24=PLANE('',#727);
#25=PLANE('',#732);
#26=PLANE('',#733);
#27=PLANE('',#738);
#28=PLANE('',#739);
#29=PLANE('',#740);
#30=PLANE('',#742);
#31=PLANE('',#743);
#32=PLANE('',#744);
#33=PLANE('',#746);
#34=PLANE('',#750);
#35=PLANE('',#753);
#36=PLANE('',#754);
#37=PLANE('',#755);
#38=PLANE('',#756);
#39=PLANE('',#757);
#40=PLANE('',#758);
#41=PLANE('',#759);
#42=PLANE('',#760);
#43=PLANE('',#761);
#44=PLANE('',#762);
#45=PLANE('',#763);
#46=PLANE('',#764);
#47=PLANE('',#765);
#48=PLANE('',#766);
#49=LINE('',#965,#124);
#50=LINE('',#969,#125);
#51=LINE('',#971,#126);
#52=LINE('',#976,#127);
#53=LINE('',#980,#128);
#54=LINE('',#983,#129);
#55=LINE('',#985,#130);
#56=LINE('',#987,#131);
#57=LINE('',#989,#132);
#58=LINE('',#991,#133);
#59=LINE('',#992,#134);
#60=LINE('',#994,#135);
#61=LINE('',#998,#136);
#62=LINE('',#1000,#137);
#63=LINE('',#1002,#138);
#64=LINE('',#1006,#139);
#65=LINE('',#1008,#140);
#66=LINE('',#1012,#141);
#67=LINE('',#1014,#142);
#68=LINE('',#1018,#143);
#69=LINE('',#1020,#144);
#70=LINE('',#1022,#145);
#71=LINE('',#1024,#146);
#72=LINE('',#1025,#147);
#73=LINE('',#1027,#148);
#74=LINE('',#1031,#149);
#75=LINE('',#1033,#150);
#76=LINE('',#1037,#151);
#77=LINE('',#1039,#152);
#78=LINE('',#1043,#153);
#79=LINE('',#1045,#154);
#80=LINE('',#1047,#155);
#81=LINE('',#1051,#156);
#82=LINE('',#1053,#157);
#83=LINE('',#1055,#158);
#84=LINE('',#1056,#159);
#85=LINE('',#1058,#160);
#86=LINE('',#1060,#161);
#87=LINE('',#1062,#162);
#88=LINE('',#1063,#163);
#89=LINE('',#1065,#164);
#90=LINE('',#1067,#165);
#91=LINE('',#1069,#166);
#92=LINE('',#1070,#167);
#93=LINE('',#1072,#168);
#94=LINE('',#1073,#169);
#95=LINE('',#1075,#170);
#96=LINE('',#1076,#171);
#97=LINE('',#1078,#172);
#98=LINE('',#1079,#173);
#99=LINE('',#1081,#174);
#100=LINE('',#1082,#175);
#101=LINE('',#1084,#176);
#102=LINE('',#1087,#177);
#103=LINE('',#1089,#178);
#104=LINE('',#1091,#179);
#105=LINE('',#1095,#180);
#106=LINE('',#1097,#181);
#107=LINE('',#1099,#182);
#108=LINE('',#1101,#183);
#109=LINE('',#1103,#184);
#110=LINE('',#1105,#185);
#111=LINE('',#1107,#186);
#112=LINE('',#1110,#187);
#113=LINE('',#1112,#188);
#114=LINE('',#1114,#189);
#115=LINE('',#1116,#190);
#116=LINE('',#1117,#191);
#117=LINE('',#1123,#192);
#118=LINE('',#1124,#193);
#119=LINE('',#1167,#194);
#120=LINE('',#1170,#195);
#121=LINE('',#1173,#196);
#122=LINE('',#1178,#197);
#123=LINE('',#1181,#198);
#124=VECTOR('',#777,1.);
#125=VECTOR('',#780,1.);
#126=VECTOR('',#783,1.);
#127=VECTOR('',#786,1.);
#128=VECTOR('',#791,1.);
#129=VECTOR('',#792,1.);
#130=VECTOR('',#793,1.);
#131=VECTOR('',#794,1.);
#132=VECTOR('',#797,1.);
#133=VECTOR('',#798,1.);
#134=VECTOR('',#799,1.);
#135=VECTOR('',#800,1.);
#136=VECTOR('',#803,1.);
#137=VECTOR('',#804,1.);
#138=VECTOR('',#805,1.);
#139=VECTOR('',#808,1.);
#140=VECTOR('',#809,1.);
#141=VECTOR('',#812,1.);
#142=VECTOR('',#813,1.);
#143=VECTOR('',#816,1.);
#144=VECTOR('',#817,1.);
#145=VECTOR('',#820,1.);
#146=VECTOR('',#821,1.);
#147=VECTOR('',#822,1.);
#148=VECTOR('',#823,1.);
#149=VECTOR('',#826,1.);
#150=VECTOR('',#827,1.);
#151=VECTOR('',#830,1.);
#152=VECTOR('',#831,1.);
#153=VECTOR('',#834,1.);
#154=VECTOR('',#835,1.);
#155=VECTOR('',#836,1.);
#156=VECTOR('',#839,1.);
#157=VECTOR('',#840,1.);
#158=VECTOR('',#843,1.);
#159=VECTOR('',#844,1.);
#160=VECTOR('',#845,1.);
#161=VECTOR('',#846,1.);
#162=VECTOR('',#849,1.);
#163=VECTOR('',#850,1.);
#164=VECTOR('',#851,1.);
#165=VECTOR('',#852,1.);
#166=VECTOR('',#855,1.);
#167=VECTOR('',#856,1.);
#168=VECTOR('',#859,1.);
#169=VECTOR('',#860,1.);
#170=VECTOR('',#863,1.);
#171=VECTOR('',#864,1.);
#172=VECTOR('',#867,1.);
#173=VECTOR('',#868,1.);
#174=VECTOR('',#871,1.);
#175=VECTOR('',#872,1.);
#176=VECTOR('',#875,1.);
#177=VECTOR('',#876,1.);
#178=VECTOR('',#877,1.);
#179=VECTOR('',#878,1.);
#180=VECTOR('',#883,1.);
#181=VECTOR('',#884,1.);
#182=VECTOR('',#885,1.);
#183=VECTOR('',#888,1.);
#184=VECTOR('',#889,1.);
#185=VECTOR('',#890,1.);
#186=VECTOR('',#893,1.);
#187=VECTOR('',#894,1.);
#188=VECTOR('',#895,1.);
#189=VECTOR('',#896,1.);
#190=VECTOR('',#899,1.);
#191=VECTOR('',#900,1.);
#192=VECTOR('',#907,1.);
#193=VECTOR('',#908,1.);
#194=VECTOR('',#925,1.);
#195=VECTOR('',#930,1.);
#196=VECTOR('',#935,1.);
#197=VECTOR('',#944,1.);
#198=VECTOR('',#949,1.);
#199=ORIENTED_EDGE('',*,*,#389,.T.);
#200=ORIENTED_EDGE('',*,*,#390,.F.);
#201=ORIENTED_EDGE('',*,*,#391,.T.);
#202=ORIENTED_EDGE('',*,*,#392,.F.);
#203=ORIENTED_EDGE('',*,*,#393,.T.);
#204=ORIENTED_EDGE('',*,*,#394,.T.);
#205=ORIENTED_EDGE('',*,*,#395,.T.);
#206=ORIENTED_EDGE('',*,*,#396,.T.);
#207=ORIENTED_EDGE('',*,*,#397,.T.);
#208=ORIENTED_EDGE('',*,*,#398,.T.);
#209=ORIENTED_EDGE('',*,*,#399,.T.);
#210=ORIENTED_EDGE('',*,*,#400,.T.);
#211=ORIENTED_EDGE('',*,*,#401,.F.);
#212=ORIENTED_EDGE('',*,*,#402,.T.);
#213=ORIENTED_EDGE('',*,*,#396,.F.);
#214=ORIENTED_EDGE('',*,*,#403,.F.);
#215=ORIENTED_EDGE('',*,*,#404,.T.);
#216=ORIENTED_EDGE('',*,*,#405,.F.);
#217=ORIENTED_EDGE('',*,*,#406,.F.);
#218=ORIENTED_EDGE('',*,*,#407,.F.);
#219=ORIENTED_EDGE('',*,*,#408,.T.);
#220=ORIENTED_EDGE('',*,*,#409,.F.);
#221=ORIENTED_EDGE('',*,*,#410,.F.);
#222=ORIENTED_EDGE('',*,*,#411,.T.);
#223=ORIENTED_EDGE('',*,*,#412,.F.);
#224=ORIENTED_EDGE('',*,*,#413,.F.);
#225=ORIENTED_EDGE('',*,*,#414,.T.);
#226=ORIENTED_EDGE('',*,*,#415,.F.);
#227=ORIENTED_EDGE('',*,*,#416,.F.);
#228=ORIENTED_EDGE('',*,*,#417,.T.);
#229=ORIENTED_EDGE('',*,*,#391,.F.);
#230=ORIENTED_EDGE('',*,*,#394,.F.);
#231=ORIENTED_EDGE('',*,*,#418,.T.);
#232=ORIENTED_EDGE('',*,*,#419,.F.);
#233=ORIENTED_EDGE('',*,*,#389,.F.);
#234=ORIENTED_EDGE('',*,*,#420,.T.);
#235=ORIENTED_EDGE('',*,*,#421,.F.);
#236=ORIENTED_EDGE('',*,*,#422,.F.);
#237=ORIENTED_EDGE('',*,*,#423,.T.);
#238=ORIENTED_EDGE('',*,*,#424,.F.);
#239=ORIENTED_EDGE('',*,*,#425,.F.);
#240=ORIENTED_EDGE('',*,*,#426,.T.);
#241=ORIENTED_EDGE('',*,*,#427,.F.);
#242=ORIENTED_EDGE('',*,*,#428,.F.);
#243=ORIENTED_EDGE('',*,*,#429,.T.);
#244=ORIENTED_EDGE('',*,*,#430,.T.);
#245=ORIENTED_EDGE('',*,*,#431,.F.);
#246=ORIENTED_EDGE('',*,*,#432,.F.);
#247=ORIENTED_EDGE('',*,*,#433,.T.);
#248=ORIENTED_EDGE('',*,*,#434,.F.);
#249=ORIENTED_EDGE('',*,*,#435,.F.);
#250=ORIENTED_EDGE('',*,*,#397,.F.);
#251=ORIENTED_EDGE('',*,*,#436,.T.);
#252=ORIENTED_EDGE('',*,*,#437,.T.);
#253=ORIENTED_EDGE('',*,*,#438,.T.);
#254=ORIENTED_EDGE('',*,*,#407,.T.);
#255=ORIENTED_EDGE('',*,*,#439,.F.);
#256=ORIENTED_EDGE('',*,*,#430,.F.);
#257=ORIENTED_EDGE('',*,*,#440,.T.);
#258=ORIENTED_EDGE('',*,*,#441,.T.);
#259=ORIENTED_EDGE('',*,*,#442,.F.);
#260=ORIENTED_EDGE('',*,*,#399,.F.);
#261=ORIENTED_EDGE('',*,*,#443,.F.);
#262=ORIENTED_EDGE('',*,*,#432,.T.);
#263=ORIENTED_EDGE('',*,*,#444,.T.);
#264=ORIENTED_EDGE('',*,*,#405,.T.);
#265=ORIENTED_EDGE('',*,*,#445,.T.);
#266=ORIENTED_EDGE('',*,*,#428,.T.);
#267=ORIENTED_EDGE('',*,*,#446,.F.);
#268=ORIENTED_EDGE('',*,*,#409,.T.);
#269=ORIENTED_EDGE('',*,*,#447,.T.);
#270=ORIENTED_EDGE('',*,*,#425,.T.);
#271=ORIENTED_EDGE('',*,*,#448,.F.);
#272=ORIENTED_EDGE('',*,*,#412,.T.);
#273=ORIENTED_EDGE('',*,*,#449,.T.);
#274=ORIENTED_EDGE('',*,*,#422,.T.);
#275=ORIENTED_EDGE('',*,*,#450,.T.);
#276=ORIENTED_EDGE('',*,*,#415,.T.);
#277=ORIENTED_EDGE('',*,*,#441,.F.);
#278=ORIENTED_EDGE('',*,*,#451,.T.);
#279=ORIENTED_EDGE('',*,*,#437,.F.);
#280=ORIENTED_EDGE('',*,*,#452,.F.);
#281=ORIENTED_EDGE('',*,*,#453,.F.);
#282=ORIENTED_EDGE('',*,*,#454,.F.);
#283=ORIENTED_EDGE('',*,*,#455,.T.);
#284=ORIENTED_EDGE('',*,*,#456,.F.);
#285=ORIENTED_EDGE('',*,*,#457,.F.);
#286=ORIENTED_EDGE('',*,*,#458,.T.);
#287=ORIENTED_EDGE('',*,*,#459,.F.);
#288=ORIENTED_EDGE('',*,*,#460,.F.);
#289=ORIENTED_EDGE('',*,*,#456,.T.);
#290=ORIENTED_EDGE('',*,*,#461,.T.);
#291=ORIENTED_EDGE('',*,*,#462,.T.);
#292=ORIENTED_EDGE('',*,*,#463,.F.);
#293=ORIENTED_EDGE('',*,*,#459,.T.);
#294=ORIENTED_EDGE('',*,*,#436,.F.);
#295=ORIENTED_EDGE('',*,*,#400,.F.);
#296=ORIENTED_EDGE('',*,*,#442,.T.);
#297=ORIENTED_EDGE('',*,*,#452,.T.);
#298=ORIENTED_EDGE('',*,*,#464,.F.);
#299=ORIENTED_EDGE('',*,*,#465,.F.);
#300=ORIENTED_EDGE('',*,*,#466,.T.);
#301=ORIENTED_EDGE('',*,*,#467,.T.);
#302=ORIENTED_EDGE('',*,*,#468,.F.);
#303=ORIENTED_EDGE('',*,*,#464,.T.);
#304=ORIENTED_EDGE('',*,*,#469,.F.);
#305=ORIENTED_EDGE('',*,*,#453,.T.);
#306=ORIENTED_EDGE('',*,*,#460,.T.);
#307=ORIENTED_EDGE('',*,*,#463,.T.);
#308=ORIENTED_EDGE('',*,*,#470,.F.);
#309=ORIENTED_EDGE('',*,*,#471,.T.);
#310=ORIENTED_EDGE('',*,*,#466,.F.);
#311=ORIENTED_EDGE('',*,*,#472,.T.);
#312=ORIENTED_EDGE('',*,*,#461,.F.);
#313=ORIENTED_EDGE('',*,*,#458,.F.);
#314=ORIENTED_EDGE('',*,*,#455,.F.);
#315=ORIENTED_EDGE('',*,*,#473,.T.);
#316=ORIENTED_EDGE('',*,*,#470,.T.);
#317=ORIENTED_EDGE('',*,*,#474,.F.);
#318=ORIENTED_EDGE('',*,*,#475,.F.);
#319=ORIENTED_EDGE('',*,*,#474,.T.);
#320=ORIENTED_EDGE('',*,*,#476,.T.);
#321=ORIENTED_EDGE('',*,*,#477,.T.);
#322=ORIENTED_EDGE('',*,*,#471,.F.);
#323=ORIENTED_EDGE('',*,*,#475,.T.);
#324=ORIENTED_EDGE('',*,*,#469,.T.);
#325=ORIENTED_EDGE('',*,*,#467,.F.);
#326=ORIENTED_EDGE('',*,*,#473,.F.);
#327=ORIENTED_EDGE('',*,*,#454,.T.);
#328=ORIENTED_EDGE('',*,*,#468,.T.);
#329=ORIENTED_EDGE('',*,*,#462,.F.);
#330=ORIENTED_EDGE('',*,*,#472,.F.);
#331=ORIENTED_EDGE('',*,*,#465,.T.);
#332=ORIENTED_EDGE('',*,*,#478,.T.);
#333=ORIENTED_EDGE('',*,*,#420,.F.);
#334=ORIENTED_EDGE('',*,*,#392,.T.);
#335=ORIENTED_EDGE('',*,*,#417,.F.);
#336=ORIENTED_EDGE('',*,*,#416,.T.);
#337=ORIENTED_EDGE('',*,*,#450,.F.);
#338=ORIENTED_EDGE('',*,*,#421,.T.);
#339=ORIENTED_EDGE('',*,*,#478,.F.);
#340=ORIENTED_EDGE('',*,*,#479,.T.);
#341=ORIENTED_EDGE('',*,*,#423,.F.);
#342=ORIENTED_EDGE('',*,*,#449,.F.);
#343=ORIENTED_EDGE('',*,*,#414,.F.);
#344=ORIENTED_EDGE('',*,*,#413,.T.);
#345=ORIENTED_EDGE('',*,*,#448,.T.);
#346=ORIENTED_EDGE('',*,*,#424,.T.);
#347=ORIENTED_EDGE('',*,*,#479,.F.);
#348=ORIENTED_EDGE('',*,*,#480,.T.);
#349=ORIENTED_EDGE('',*,*,#426,.F.);
#350=ORIENTED_EDGE('',*,*,#447,.F.);
#351=ORIENTED_EDGE('',*,*,#411,.F.);
#352=ORIENTED_EDGE('',*,*,#410,.T.);
#353=ORIENTED_EDGE('',*,*,#446,.T.);
#354=ORIENTED_EDGE('',*,*,#427,.T.);
#355=ORIENTED_EDGE('',*,*,#480,.F.);
#356=ORIENTED_EDGE('',*,*,#438,.F.);
#357=ORIENTED_EDGE('',*,*,#451,.F.);
#358=ORIENTED_EDGE('',*,*,#440,.F.);
#359=ORIENTED_EDGE('',*,*,#429,.F.);
#360=ORIENTED_EDGE('',*,*,#445,.F.);
#361=ORIENTED_EDGE('',*,*,#408,.F.);
#362=ORIENTED_EDGE('',*,*,#406,.T.);
#363=ORIENTED_EDGE('',*,*,#444,.F.);
#364=ORIENTED_EDGE('',*,*,#431,.T.);
#365=ORIENTED_EDGE('',*,*,#439,.T.);
#366=ORIENTED_EDGE('',*,*,#398,.F.);
#367=ORIENTED_EDGE('',*,*,#435,.T.);
#368=ORIENTED_EDGE('',*,*,#481,.T.);
#369=ORIENTED_EDGE('',*,*,#433,.F.);
#370=ORIENTED_EDGE('',*,*,#443,.T.);
#371=ORIENTED_EDGE('',*,*,#404,.F.);
#372=ORIENTED_EDGE('',*,*,#403,.T.);
#373=ORIENTED_EDGE('',*,*,#395,.F.);
#374=ORIENTED_EDGE('',*,*,#434,.T.);
#375=ORIENTED_EDGE('',*,*,#481,.F.);
#376=ORIENTED_EDGE('',*,*,#482,.T.);
#377=ORIENTED_EDGE('',*,*,#418,.F.);
#378=ORIENTED_EDGE('',*,*,#393,.F.);
#379=ORIENTED_EDGE('',*,*,#402,.F.);
#380=ORIENTED_EDGE('',*,*,#401,.T.);
#381=ORIENTED_EDGE('',*,*,#390,.T.);
#382=ORIENTED_EDGE('',*,*,#419,.T.);
#383=ORIENTED_EDGE('',*,*,#482,.F.);
#384=ORIENTED_EDGE('',*,*,#457,.T.);
#385=ORIENTED_EDGE('',*,*,#477,.F.);
#386=ORIENTED_EDGE('',*,*,#483,.F.);
#387=ORIENTED_EDGE('',*,*,#476,.F.);
#388=ORIENTED_EDGE('',*,*,#483,.T.);
#389=EDGE_CURVE('',#484,#485,#551,.T.);
#390=EDGE_CURVE('',#486,#485,#49,.T.);
#391=EDGE_CURVE('',#486,#487,#552,.T.);
#392=EDGE_CURVE('',#484,#487,#50,.F.);
#393=EDGE_CURVE('',#488,#489,#51,.T.);
#394=EDGE_CURVE('',#489,#490,#553,.T.);
#395=EDGE_CURVE('',#490,#491,#52,.F.);
#396=EDGE_CURVE('',#491,#488,#554,.T.);
#397=EDGE_CURVE('',#492,#493,#53,.T.);
#398=EDGE_CURVE('',#493,#494,#54,.T.);
#399=EDGE_CURVE('',#494,#495,#55,.T.);
#400=EDGE_CURVE('',#495,#492,#56,.T.);
#401=EDGE_CURVE('',#496,#486,#57,.T.);
#402=EDGE_CURVE('',#496,#488,#58,.T.);
#403=EDGE_CURVE('',#497,#491,#59,.T.);
#404=EDGE_CURVE('',#497,#498,#60,.T.);
#405=EDGE_CURVE('',#499,#498,#555,.T.);
#406=EDGE_CURVE('',#500,#499,#61,.T.);
#407=EDGE_CURVE('',#501,#500,#62,.T.);
#408=EDGE_CURVE('',#501,#502,#63,.T.);
#409=EDGE_CURVE('',#503,#502,#556,.T.);
#410=EDGE_CURVE('',#504,#503,#64,.T.);
#411=EDGE_CURVE('',#504,#505,#65,.T.);
#412=EDGE_CURVE('',#506,#505,#557,.T.);
#413=EDGE_CURVE('',#507,#506,#66,.T.);
#414=EDGE_CURVE('',#507,#508,#67,.T.);
#415=EDGE_CURVE('',#509,#508,#558,.T.);
#416=EDGE_CURVE('',#510,#509,#68,.T.);
#417=EDGE_CURVE('',#510,#487,#69,.T.);
#418=EDGE_CURVE('',#489,#511,#70,.T.);
#419=EDGE_CURVE('',#485,#511,#71,.T.);
#420=EDGE_CURVE('',#484,#512,#72,.T.);
#421=EDGE_CURVE('',#513,#512,#73,.T.);
#422=EDGE_CURVE('',#514,#513,#559,.T.);
#423=EDGE_CURVE('',#514,#515,#74,.T.);
#424=EDGE_CURVE('',#516,#515,#75,.T.);
#425=EDGE_CURVE('',#517,#516,#560,.T.);
#426=EDGE_CURVE('',#517,#518,#76,.T.);
#427=EDGE_CURVE('',#519,#518,#77,.T.);
#428=EDGE_CURVE('',#520,#519,#561,.T.);
#429=EDGE_CURVE('',#520,#521,#78,.T.);
#430=EDGE_CURVE('',#521,#522,#79,.T.);
#431=EDGE_CURVE('',#523,#522,#80,.T.);
#432=EDGE_CURVE('',#524,#523,#562,.T.);
#433=EDGE_CURVE('',#524,#525,#81,.T.);
#434=EDGE_CURVE('',#490,#525,#82,.T.);
#435=EDGE_CURVE('',#493,#500,#83,.T.);
#436=EDGE_CURVE('',#492,#526,#84,.T.);
#437=EDGE_CURVE('',#526,#527,#85,.T.);
#438=EDGE_CURVE('',#527,#501,#86,.T.);
#439=EDGE_CURVE('',#522,#494,#87,.T.);
#440=EDGE_CURVE('',#521,#528,#88,.T.);
#441=EDGE_CURVE('',#528,#529,#89,.T.);
#442=EDGE_CURVE('',#495,#529,#90,.T.);
#443=EDGE_CURVE('',#524,#498,#91,.F.);
#444=EDGE_CURVE('',#523,#499,#92,.F.);
#445=EDGE_CURVE('',#502,#520,#93,.T.);
#446=EDGE_CURVE('',#503,#519,#94,.T.);
#447=EDGE_CURVE('',#505,#517,#95,.T.);
#448=EDGE_CURVE('',#506,#516,#96,.T.);
#449=EDGE_CURVE('',#508,#514,#97,.T.);
#450=EDGE_CURVE('',#513,#509,#98,.F.);
#451=EDGE_CURVE('',#528,#527,#99,.T.);
#452=EDGE_CURVE('',#529,#526,#100,.T.);
#453=EDGE_CURVE('',#530,#531,#101,.T.);
#454=EDGE_CURVE('',#532,#530,#102,.T.);
#455=EDGE_CURVE('',#532,#533,#103,.T.);
#456=EDGE_CURVE('',#531,#533,#104,.T.);
#457=EDGE_CURVE('',#534,#534,#16,.T.);
#458=EDGE_CURVE('',#533,#535,#105,.T.);
#459=EDGE_CURVE('',#536,#535,#106,.T.);
#460=EDGE_CURVE('',#531,#536,#107,.T.);
#461=EDGE_CURVE('',#535,#537,#108,.T.);
#462=EDGE_CURVE('',#537,#538,#109,.T.);
#463=EDGE_CURVE('',#536,#538,#110,.T.);
#464=EDGE_CURVE('',#539,#540,#111,.T.);
#465=EDGE_CURVE('',#541,#539,#112,.T.);
#466=EDGE_CURVE('',#541,#542,#113,.T.);
#467=EDGE_CURVE('',#542,#540,#114,.T.);
#468=EDGE_CURVE('',#539,#538,#115,.T.);
#469=EDGE_CURVE('',#530,#540,#116,.T.);
#470=EDGE_CURVE('',#543,#543,#17,.T.);
#471=EDGE_CURVE('',#544,#544,#18,.T.);
#472=EDGE_CURVE('',#541,#537,#117,.T.);
#473=EDGE_CURVE('',#532,#542,#118,.T.);
#474=EDGE_CURVE('',#545,#545,#19,.T.);
#475=EDGE_CURVE('',#546,#546,#20,.T.);
#476=EDGE_CURVE('',#547,#547,#14,.T.);
#477=EDGE_CURVE('',#548,#548,#15,.T.);
#478=EDGE_CURVE('',#510,#512,#119,.T.);
#479=EDGE_CURVE('',#507,#515,#120,.T.);
#480=EDGE_CURVE('',#504,#518,#121,.T.);
#481=EDGE_CURVE('',#497,#525,#122,.T.);
#482=EDGE_CURVE('',#496,#511,#123,.T.);
#483=EDGE_CURVE('',#549,#549,#21,.T.);
#484=VERTEX_POINT('',#963);
#485=VERTEX_POINT('',#964);
#486=VERTEX_POINT('',#966);
#487=VERTEX_POINT('',#968);
#488=VERTEX_POINT('',#972);
#489=VERTEX_POINT('',#973);
#490=VERTEX_POINT('',#975);
#491=VERTEX_POINT('',#977);
#492=VERTEX_POINT('',#981);
#493=VERTEX_POINT('',#982);
#494=VERTEX_POINT('',#984);
#495=VERTEX_POINT('',#986);
#496=VERTEX_POINT('',#990);
#497=VERTEX_POINT('',#993);
#498=VERTEX_POINT('',#995);
#499=VERTEX_POINT('',#997);
#500=VERTEX_POINT('',#999);
#501=VERTEX_POINT('',#1001);
#502=VERTEX_POINT('',#1003);
#503=VERTEX_POINT('',#1005);
#504=VERTEX_POINT('',#1007);
#505=VERTEX_POINT('',#1009);
#506=VERTEX_POINT('',#1011);
#507=VERTEX_POINT('',#1013);
#508=VERTEX_POINT('',#1015);
#509=VERTEX_POINT('',#1017);
#510=VERTEX_POINT('',#1019);
#511=VERTEX_POINT('',#1023);
#512=VERTEX_POINT('',#1026);
#513=VERTEX_POINT('',#1028);
#514=VERTEX_POINT('',#1030);
#515=VERTEX_POINT('',#1032);
#516=VERTEX_POINT('',#1034);
#517=VERTEX_POINT('',#1036);
#518=VERTEX_POINT('',#1038);
#519=VERTEX_POINT('',#1040);
#520=VERTEX_POINT('',#1042);
#521=VERTEX_POINT('',#1044);
#522=VERTEX_POINT('',#1046);
#523=VERTEX_POINT('',#1048);
#524=VERTEX_POINT('',#1050);
#525=VERTEX_POINT('',#1052);
#526=VERTEX_POINT('',#1057);
#527=VERTEX_POINT('',#1059);
#528=VERTEX_POINT('',#1064);
#529=VERTEX_POINT('',#1066);
#530=VERTEX_POINT('',#1085);
#531=VERTEX_POINT('',#1086);
#532=VERTEX_POINT('',#1088);
#533=VERTEX_POINT('',#1090);
#534=VERTEX_POINT('',#1094);
#535=VERTEX_POINT('',#1096);
#536=VERTEX_POINT('',#1098);
#537=VERTEX_POINT('',#1102);
#538=VERTEX_POINT('',#1104);
#539=VERTEX_POINT('',#1108);
#540=VERTEX_POINT('',#1109);
#541=VERTEX_POINT('',#1111);
#542=VERTEX_POINT('',#1113);
#543=VERTEX_POINT('',#1119);
#544=VERTEX_POINT('',#1122);
#545=VERTEX_POINT('',#1127);
#546=VERTEX_POINT('',#1130);
#547=VERTEX_POINT('',#1147);
#548=VERTEX_POINT('',#1163);
#549=VERTEX_POINT('',#1186);
#550=VERTEX_POINT('',#1188);
#551=ELLIPSE('',#716,0.0115470053837925,0.01);
#552=ELLIPSE('',#717,0.0115470053837925,0.01);
#553=ELLIPSE('',#719,0.0115470053837925,0.01);
#554=ELLIPSE('',#720,0.0115470053837925,0.01);
#555=ELLIPSE('',#723,0.0115470053837925,0.01);
#556=ELLIPSE('',#724,0.0115470053837925,0.01);
#557=ELLIPSE('',#725,0.0115470053837925,0.01);
#558=ELLIPSE('',#726,0.0115470053837925,0.01);
#559=ELLIPSE('',#728,0.0115470053837925,0.01);
#560=ELLIPSE('',#729,0.0115470053837925,0.01);
#561=ELLIPSE('',#730,0.0115470053837925,0.01);
#562=ELLIPSE('',#731,0.0115470053837925,0.01);
#563=EDGE_LOOP('',(#199,#200,#201,#202));
#564=EDGE_LOOP('',(#203,#204,#205,#206));
#565=EDGE_LOOP('',(#207,#208,#209,#210));
#566=EDGE_LOOP('',(#211,#212,#213,#214,#215,#216,#217,#218,#219,#220,#221,
#222,#223,#224,#225,#226,#227,#228,#229));
#567=EDGE_LOOP('',(#230,#231,#232,#233,#234,#235,#236,#237,#238,#239,#240,
#241,#242,#243,#244,#245,#246,#247,#248));
#568=EDGE_LOOP('',(#249,#250,#251,#252,#253,#254));
#569=EDGE_LOOP('',(#255,#256,#257,#258,#259,#260));
#570=EDGE_LOOP('',(#261,#262,#263,#264));
#571=EDGE_LOOP('',(#265,#266,#267,#268));
#572=EDGE_LOOP('',(#269,#270,#271,#272));
#573=EDGE_LOOP('',(#273,#274,#275,#276));
#574=EDGE_LOOP('',(#277,#278,#279,#280));
#575=EDGE_LOOP('',(#281,#282,#283,#284));
#576=EDGE_LOOP('',(#285));
#577=EDGE_LOOP('',(#286,#287,#288,#289));
#578=EDGE_LOOP('',(#290,#291,#292,#293));
#579=EDGE_LOOP('',(#294,#295,#296,#297));
#580=EDGE_LOOP('',(#298,#299,#300,#301));
#581=EDGE_LOOP('',(#302,#303,#304,#305,#306,#307));
#582=EDGE_LOOP('',(#308));
#583=EDGE_LOOP('',(#309));
#584=EDGE_LOOP('',(#310,#311,#312,#313,#314,#315));
#585=EDGE_LOOP('',(#316));
#586=EDGE_LOOP('',(#317));
#587=EDGE_LOOP('',(#318));
#588=EDGE_LOOP('',(#319));
#589=EDGE_LOOP('',(#320));
#590=EDGE_LOOP('',(#321));
#591=EDGE_LOOP('',(#322));
#592=EDGE_LOOP('',(#323));
#593=EDGE_LOOP('',(#324,#325,#326,#327));
#594=EDGE_LOOP('',(#328,#329,#330,#331));
#595=EDGE_LOOP('',(#332,#333,#334,#335));
#596=EDGE_LOOP('',(#336,#337,#338,#339));
#597=EDGE_LOOP('',(#340,#341,#342,#343));
#598=EDGE_LOOP('',(#344,#345,#346,#347));
#599=EDGE_LOOP('',(#348,#349,#350,#351));
#600=EDGE_LOOP('',(#352,#353,#354,#355));
#601=EDGE_LOOP('',(#356,#357,#358,#359,#360,#361));
#602=EDGE_LOOP('',(#362,#363,#364,#365,#366,#367));
#603=EDGE_LOOP('',(#368,#369,#370,#371));
#604=EDGE_LOOP('',(#372,#373,#374,#375));
#605=EDGE_LOOP('',(#376,#377,#378,#379));
#606=EDGE_LOOP('',(#380,#381,#382,#383));
#607=EDGE_LOOP('',(#384));
#608=EDGE_LOOP('',(#385));
#609=EDGE_LOOP('',(#386));
#610=EDGE_LOOP('',(#387));
#611=EDGE_LOOP('',(#388));
#612=FACE_BOUND('',#563,.T.);
#613=FACE_BOUND('',#564,.T.);
#614=FACE_BOUND('',#565,.T.);
#615=FACE_BOUND('',#566,.T.);
#616=FACE_BOUND('',#567,.T.);
#617=FACE_BOUND('',#568,.T.);
#618=FACE_BOUND('',#569,.T.);
#619=FACE_BOUND('',#570,.T.);
#620=FACE_BOUND('',#571,.T.);
#621=FACE_BOUND('',#572,.T.);
#622=FACE_BOUND('',#573,.T.);
#623=FACE_BOUND('',#574,.T.);
#624=FACE_BOUND('',#575,.T.);
#625=FACE_BOUND('',#576,.T.);
#626=FACE_BOUND('',#577,.T.);
#627=FACE_BOUND('',#578,.T.);
#628=FACE_BOUND('',#579,.T.);
#629=FACE_BOUND('',#580,.T.);
#630=FACE_BOUND('',#581,.T.);
#631=FACE_BOUND('',#582,.T.);
#632=FACE_BOUND('',#583,.T.);
#633=FACE_BOUND('',#584,.T.);
#634=FACE_BOUND('',#585,.T.);
#635=FACE_BOUND('',#586,.T.);
#636=FACE_BOUND('',#587,.T.);
#637=FACE_BOUND('',#588,.T.);
#638=FACE_BOUND('',#589,.T.);
#639=FACE_BOUND('',#590,.T.);
#640=FACE_BOUND('',#591,.T.);
#641=FACE_BOUND('',#592,.T.);
#642=FACE_BOUND('',#593,.T.);
#643=FACE_BOUND('',#594,.T.);
#644=FACE_BOUND('',#595,.T.);
#645=FACE_BOUND('',#596,.T.);
#646=FACE_BOUND('',#597,.T.);
#647=FACE_BOUND('',#598,.T.);
#648=FACE_BOUND('',#599,.T.);
#649=FACE_BOUND('',#600,.T.);
#650=FACE_BOUND('',#601,.T.);
#651=FACE_BOUND('',#602,.T.);
#652=FACE_BOUND('',#603,.T.);
#653=FACE_BOUND('',#604,.T.);
#654=FACE_BOUND('',#605,.T.);
#655=FACE_BOUND('',#606,.T.);
#656=FACE_BOUND('',#607,.T.);
#657=FACE_BOUND('',#608,.T.);
#658=FACE_BOUND('',#609,.T.);
#659=FACE_BOUND('',#610,.T.);
#660=FACE_BOUND('',#12,.T.);
#661=FACE_BOUND('',#611,.T.);
#662=CYLINDRICAL_SURFACE('',#715,0.01);
#663=CYLINDRICAL_SURFACE('',#718,0.01);
#664=CYLINDRICAL_SURFACE('',#734,0.01);
#665=CYLINDRICAL_SURFACE('',#735,0.01);
#666=CYLINDRICAL_SURFACE('',#736,0.01);
#667=CYLINDRICAL_SURFACE('',#737,0.01);
#668=CYLINDRICAL_SURFACE('',#748,0.00175);
#669=CYLINDRICAL_SURFACE('',#752,0.00125);
#670=CYLINDRICAL_SURFACE('',#767,0.0009);
#671=CYLINDRICAL_SURFACE('',#768,0.0009);
#672=ADVANCED_FACE('',(#612),#662,.T.);
#673=ADVANCED_FACE('',(#613),#663,.T.);
#674=ADVANCED_FACE('',(#614),#22,.T.);
#675=ADVANCED_FACE('',(#615),#23,.F.);
#676=ADVANCED_FACE('',(#616),#24,.F.);
#677=ADVANCED_FACE('',(#617),#25,.F.);
#678=ADVANCED_FACE('',(#618),#26,.F.);
#679=ADVANCED_FACE('',(#619),#664,.T.);
#680=ADVANCED_FACE('',(#620),#665,.T.);
#681=ADVANCED_FACE('',(#621),#666,.T.);
#682=ADVANCED_FACE('',(#622),#667,.T.);
#683=ADVANCED_FACE('',(#623),#27,.F.);
#684=ADVANCED_FACE('',(#624),#28,.F.);
#685=ADVANCED_FACE('',(#625,#626),#29,.F.);
#686=ADVANCED_FACE('',(#627),#30,.F.);
#687=ADVANCED_FACE('',(#628,#629),#31,.F.);
#688=ADVANCED_FACE('',(#630,#631),#32,.T.);
#689=ADVANCED_FACE('',(#632,#633),#33,.F.);
#690=ADVANCED_FACE('',(#634,#635),#668,.T.);
#691=ADVANCED_FACE('',(#636,#637),#34,.T.);
#692=ADVANCED_FACE('',(#638,#639,#640,#641),#669,.F.);
#693=ADVANCED_FACE('',(#642),#35,.F.);
#694=ADVANCED_FACE('',(#643),#36,.F.);
#695=ADVANCED_FACE('',(#644),#37,.F.);
#696=ADVANCED_FACE('',(#645),#38,.T.);
#697=ADVANCED_FACE('',(#646),#39,.F.);
#698=ADVANCED_FACE('',(#647),#40,.T.);
#699=ADVANCED_FACE('',(#648),#41,.F.);
#700=ADVANCED_FACE('',(#649),#42,.T.);
#701=ADVANCED_FACE('',(#650),#43,.F.);
#702=ADVANCED_FACE('',(#651),#44,.T.);
#703=ADVANCED_FACE('',(#652),#45,.F.);
#704=ADVANCED_FACE('',(#653),#46,.T.);
#705=ADVANCED_FACE('',(#654),#47,.F.);
#706=ADVANCED_FACE('',(#655),#48,.T.);
#707=ADVANCED_FACE('',(#656,#657),#670,.F.);
#708=ADVANCED_FACE('',(#658,#659),#671,.F.);
#709=ADVANCED_FACE('',(#660,#661),#13,.F.);
#710=CLOSED_SHELL('',(#672,#673,#674,#675,#676,#677,#678,#679,#680,#681,
#682,#683,#684,#685,#686,#687,#688,#689,#690,#691,#692,#693,#694,#695,#696,
#697,#698,#699,#700,#701,#702,#703,#704,#705,#706,#707,#708,#709));
#711=MANIFOLD_SOLID_BREP('',#710);
#712=SHAPE_DEFINITION_REPRESENTATION(#1194,#713);
#713=SHAPE_REPRESENTATION('id2',(#714),#1189);
#714=AXIS2_PLACEMENT_3D('',#960,#771,#772);
#715=AXIS2_PLACEMENT_3D('',#961,#773,#774);
#716=AXIS2_PLACEMENT_3D('',#962,#775,#776);
#717=AXIS2_PLACEMENT_3D('',#967,#778,#779);
#718=AXIS2_PLACEMENT_3D('',#970,#781,#782);
#719=AXIS2_PLACEMENT_3D('',#974,#784,#785);
#720=AXIS2_PLACEMENT_3D('',#978,#787,#788);
#721=AXIS2_PLACEMENT_3D('',#979,#789,#790);
#722=AXIS2_PLACEMENT_3D('',#988,#795,#796);
#723=AXIS2_PLACEMENT_3D('',#996,#801,#802);
#724=AXIS2_PLACEMENT_3D('',#1004,#806,#807);
#725=AXIS2_PLACEMENT_3D('',#1010,#810,#811);
#726=AXIS2_PLACEMENT_3D('',#1016,#814,#815);
#727=AXIS2_PLACEMENT_3D('',#1021,#818,#819);
#728=AXIS2_PLACEMENT_3D('',#1029,#824,#825);
#729=AXIS2_PLACEMENT_3D('',#1035,#828,#829);
#730=AXIS2_PLACEMENT_3D('',#1041,#832,#833);
#731=AXIS2_PLACEMENT_3D('',#1049,#837,#838);
#732=AXIS2_PLACEMENT_3D('',#1054,#841,#842);
#733=AXIS2_PLACEMENT_3D('',#1061,#847,#848);
#734=AXIS2_PLACEMENT_3D('',#1068,#853,#854);
#735=AXIS2_PLACEMENT_3D('',#1071,#857,#858);
#736=AXIS2_PLACEMENT_3D('',#1074,#861,#862);
#737=AXIS2_PLACEMENT_3D('',#1077,#865,#866);
#738=AXIS2_PLACEMENT_3D('',#1080,#869,#870);
#739=AXIS2_PLACEMENT_3D('',#1083,#873,#874);
#740=AXIS2_PLACEMENT_3D('',#1092,#879,#880);
#741=AXIS2_PLACEMENT_3D('',#1093,#881,#882);
#742=AXIS2_PLACEMENT_3D('',#1100,#886,#887);
#743=AXIS2_PLACEMENT_3D('',#1106,#891,#892);
#744=AXIS2_PLACEMENT_3D('',#1115,#897,#898);
#745=AXIS2_PLACEMENT_3D('',#1118,#901,#902);
#746=AXIS2_PLACEMENT_3D('',#1120,#903,#904);
#747=AXIS2_PLACEMENT_3D('',#1121,#905,#906);
#748=AXIS2_PLACEMENT_3D('',#1125,#909,#910);
#749=AXIS2_PLACEMENT_3D('',#1126,#911,#912);
#750=AXIS2_PLACEMENT_3D('',#1128,#913,#914);
#751=AXIS2_PLACEMENT_3D('',#1129,#915,#916);
#752=AXIS2_PLACEMENT_3D('',#1131,#917,#918);
#753=AXIS2_PLACEMENT_3D('',#1164,#919,#920);
#754=AXIS2_PLACEMENT_3D('',#1165,#921,#922);
#755=AXIS2_PLACEMENT_3D('',#1166,#923,#924);
#756=AXIS2_PLACEMENT_3D('',#1168,#926,#927);
#757=AXIS2_PLACEMENT_3D('',#1169,#928,#929);
#758=AXIS2_PLACEMENT_3D('',#1171,#931,#932);
#759=AXIS2_PLACEMENT_3D('',#1172,#933,#934);
#760=AXIS2_PLACEMENT_3D('',#1174,#936,#937);
#761=AXIS2_PLACEMENT_3D('',#1175,#938,#939);
#762=AXIS2_PLACEMENT_3D('',#1176,#940,#941);
#763=AXIS2_PLACEMENT_3D('',#1177,#942,#943);
#764=AXIS2_PLACEMENT_3D('',#1179,#945,#946);
#765=AXIS2_PLACEMENT_3D('',#1180,#947,#948);
#766=AXIS2_PLACEMENT_3D('',#1182,#950,#951);
#767=AXIS2_PLACEMENT_3D('',#1183,#952,#953);
#768=AXIS2_PLACEMENT_3D('',#1184,#954,#955);
#769=AXIS2_PLACEMENT_3D('',#1185,#956,#957);
#770=AXIS2_PLACEMENT_3D('',#1187,#958,#959);
#771=DIRECTION('',(0.,0.,1.));
#772=DIRECTION('',(1.,0.,0.));
#773=DIRECTION('',(1.,0.,0.));
#774=DIRECTION('',(0.,0.,-1.));
#775=DIRECTION('',(-0.866025403784441,0.5,0.));
#776=DIRECTION('',(0.5,0.866025403784441,0.));
#777=DIRECTION('',(1.,0.,0.));
#778=DIRECTION('',(0.866025403784441,0.5,0.));
#779=DIRECTION('',(0.5,-0.866025403784441,0.));
#780=DIRECTION('',(1.,0.,0.));
#781=DIRECTION('',(1.,0.,0.));
#782=DIRECTION('',(0.,0.,-1.));
#783=DIRECTION('',(1.,0.,0.));
#784=DIRECTION('',(-0.866025403784441,0.5,0.));
#785=DIRECTION('',(0.5,0.866025403784441,0.));
#786=DIRECTION('',(1.,0.,0.));
#787=DIRECTION('',(0.866025403784441,0.5,0.));
#788=DIRECTION('',(0.5,-0.866025403784441,0.));
#789=DIRECTION('',(0.,0.,1.));
#790=DIRECTION('',(1.,0.,0.));
#791=DIRECTION('',(4.61362626589577E-17,-1.,0.));
#792=DIRECTION('',(1.,0.,0.));
#793=DIRECTION('',(-2.30681313294788E-16,1.,0.));
#794=DIRECTION('',(-1.,-1.97127667724637E-16,0.));
#795=DIRECTION('',(0.866025403784441,0.5,0.));
#796=DIRECTION('',(-0.5,0.866025403784441,0.));
#797=DIRECTION('',(0.409367031535523,-0.709044497563185,-0.57417291295146));
#798=DIRECTION('',(0.341495621517649,-0.591487767030887,0.730426561631688));
#799=DIRECTION('',(0.435805742593909,-0.754837688402944,-0.490197326480543));
#800=DIRECTION('',(0.299967049104866,-0.519558169646142,0.800049422101704));
#801=DIRECTION('',(0.866025403784441,0.5,0.));
#802=DIRECTION('',(0.5,-0.866025403784441,0.));
#803=DIRECTION('',(0.457444453710919,-0.792317035467911,-0.403705693638894));
#804=DIRECTION('',(0.,0.,1.));
#805=DIRECTION('',(0.457444453710922,-0.792317035467916,0.403705693638881));
#806=DIRECTION('',(0.866025403784441,0.5,0.));
#807=DIRECTION('',(0.5,-0.866025403784441,0.));
#808=DIRECTION('',(0.29996704910486,-0.519558169646131,-0.800049422101713));
#809=DIRECTION('',(0.435805742593913,-0.75483768840295,0.490197326480531));
#810=DIRECTION('',(0.866025403784441,0.5,0.));
#811=DIRECTION('',(0.5,-0.866025403784441,0.));
#812=DIRECTION('',(0.341495621517643,-0.591487767030877,-0.730426561631699));
#813=DIRECTION('',(0.409367031535527,-0.709044497563192,0.574172912951448));
#814=DIRECTION('',(0.866025403784441,0.5,0.));
#815=DIRECTION('',(0.5,-0.866025403784441,0.));
#816=DIRECTION('',(0.377964473009223,-0.654653670707978,-0.654653670707979));
#817=DIRECTION('',(0.377964473009224,-0.654653670707979,0.654653670707978));
#818=DIRECTION('',(-0.866025403784441,0.5,0.));
#819=DIRECTION('',(-0.5,-0.866025403784441,0.));
#820=DIRECTION('',(0.341495621517649,0.591487767030887,-0.730426561631688));
#821=DIRECTION('',(0.409367031535523,0.709044497563185,0.57417291295146));
#822=DIRECTION('',(0.377964473009224,0.654653670707979,-0.654653670707978));
#823=DIRECTION('',(0.377964473009223,0.654653670707978,0.654653670707979));
#824=DIRECTION('',(-0.866025403784441,0.5,0.));
#825=DIRECTION('',(0.5,0.866025403784441,0.));
#826=DIRECTION('',(0.409367031535527,0.709044497563192,-0.574172912951448));
#827=DIRECTION('',(0.341495621517643,0.591487767030877,0.730426561631699));
#828=DIRECTION('',(-0.866025403784441,0.5,0.));
#829=DIRECTION('',(0.5,0.866025403784441,0.));
#830=DIRECTION('',(0.435805742593913,0.75483768840295,-0.490197326480531));
#831=DIRECTION('',(0.29996704910486,0.519558169646131,0.800049422101713));
#832=DIRECTION('',(-0.866025403784441,0.5,0.));
#833=DIRECTION('',(0.5,0.866025403784441,0.));
#834=DIRECTION('',(0.457444453710922,0.792317035467916,-0.403705693638881));
#835=DIRECTION('',(0.,0.,1.));
#836=DIRECTION('',(0.457444453710919,0.792317035467911,0.403705693638894));
#837=DIRECTION('',(-0.866025403784441,0.5,0.));
#838=DIRECTION('',(0.5,0.866025403784441,0.));
#839=DIRECTION('',(0.299967049104866,0.519558169646142,-0.800049422101704));
#840=DIRECTION('',(0.435805742593909,0.754837688402944,0.490197326480543));
#841=DIRECTION('',(1.,4.61362626589577E-17,0.));
#842=DIRECTION('',(-4.61362626589577E-17,1.,0.));
#843=DIRECTION('',(4.11077110307991E-17,-0.891006524188362,-0.453990499739559));
#844=DIRECTION('',(0.,0.,-1.));
#845=DIRECTION('',(4.61362626589577E-17,-1.,0.));
#846=DIRECTION('',(4.11077110307995E-17,-0.891006524188369,0.453990499739545));
#847=DIRECTION('',(-1.,-2.30681313294788E-16,0.));
#848=DIRECTION('',(2.30681313294788E-16,-1.,0.));
#849=DIRECTION('',(-2.05538555153996E-16,0.891006524188362,0.453990499739559));
#850=DIRECTION('',(-2.05538555153997E-16,0.891006524188369,-0.453990499739545));
#851=DIRECTION('',(-2.30681313294788E-16,1.,0.));
#852=DIRECTION('',(0.,0.,-1.));
#853=DIRECTION('',(1.,0.,0.));
#854=DIRECTION('',(0.,0.,-1.));
#855=DIRECTION('',(1.,0.,0.));
#856=DIRECTION('',(1.,0.,0.));
#857=DIRECTION('',(1.,0.,0.));
#858=DIRECTION('',(0.,0.,-1.));
#859=DIRECTION('',(1.,0.,0.));
#860=DIRECTION('',(1.,0.,0.));
#861=DIRECTION('',(1.,0.,0.));
#862=DIRECTION('',(0.,0.,-1.));
#863=DIRECTION('',(1.,0.,0.));
#864=DIRECTION('',(1.,0.,0.));
#865=DIRECTION('',(1.,0.,0.));
#866=DIRECTION('',(0.,0.,-1.));
#867=DIRECTION('',(1.,0.,0.));
#868=DIRECTION('',(1.,0.,0.));
#869=DIRECTION('',(0.,0.,1.));
#870=DIRECTION('',(1.,0.,0.));
#871=DIRECTION('',(-1.,0.,0.));
#872=DIRECTION('',(-1.,-1.97127667724637E-16,0.));
#873=DIRECTION('',(-1.,-8.67361737988403E-17,0.));
#874=DIRECTION('',(8.67361737988403E-17,-1.,0.));
#875=DIRECTION('',(-8.67361737988404E-17,1.,0.));
#876=DIRECTION('',(0.,0.,1.));
#877=DIRECTION('',(-8.67361737988404E-17,1.,0.));
#878=DIRECTION('',(0.,0.,-1.));
#879=DIRECTION('',(0.,-1.,0.));
#880=DIRECTION('',(0.,0.,-1.));
#881=DIRECTION('',(0.,1.,0.));
#882=DIRECTION('',(0.,0.,1.));
#883=DIRECTION('',(-1.,0.,0.));
#884=DIRECTION('',(0.,0.,-1.));
#885=DIRECTION('',(-1.,0.,0.));
#886=DIRECTION('',(1.,8.67361737988403E-17,0.));
#887=DIRECTION('',(-8.67361737988403E-17,1.,0.));
#888=DIRECTION('',(8.67361737988404E-17,-1.,0.));
#889=DIRECTION('',(0.,0.,1.));
#890=DIRECTION('',(8.67361737988404E-17,-1.,0.));
#891=DIRECTION('',(0.,1.,0.));
#892=DIRECTION('',(0.,0.,1.));
#893=DIRECTION('',(1.,0.,0.));
#894=DIRECTION('',(0.,0.,1.));
#895=DIRECTION('',(1.,0.,0.));
#896=DIRECTION('',(0.,0.,1.));
#897=DIRECTION('',(0.,0.,1.));
#898=DIRECTION('',(1.,0.,0.));
#899=DIRECTION('',(-0.707106781186546,0.707106781186549,0.));
#900=DIRECTION('',(-0.707106781186546,-0.707106781186549,0.));
#901=DIRECTION('',(0.,0.,1.));
#902=DIRECTION('',(1.,0.,0.));
#903=DIRECTION('',(0.,0.,1.));
#904=DIRECTION('',(1.,0.,0.));
#905=DIRECTION('',(0.,0.,1.));
#906=DIRECTION('',(1.,0.,0.));
#907=DIRECTION('',(-0.707106781186546,0.707106781186549,0.));
#908=DIRECTION('',(-0.707106781186546,-0.707106781186549,0.));
#909=DIRECTION('',(0.,0.,-1.));
#910=DIRECTION('',(-1.,0.,0.));
#911=DIRECTION('',(0.,0.,1.));
#912=DIRECTION('',(1.,0.,0.));
#913=DIRECTION('',(0.,0.,1.));
#914=DIRECTION('',(1.,0.,0.));
#915=DIRECTION('',(0.,0.,1.));
#916=DIRECTION('',(1.,0.,0.));
#917=DIRECTION('',(0.,0.,1.));
#918=DIRECTION('',(1.,0.,0.));
#919=DIRECTION('',(-0.707106781186549,0.707106781186546,0.));
#920=DIRECTION('',(-0.707106781186546,-0.707106781186549,0.));
#921=DIRECTION('',(0.707106781186548,0.707106781186546,0.));
#922=DIRECTION('',(-0.707106781186546,0.707106781186549,0.));
#923=DIRECTION('',(0.,0.707106781186547,0.707106781186548));
#924=DIRECTION('',(0.,-0.707106781186548,0.707106781186547));
#925=DIRECTION('',(1.,0.,0.));
#926=DIRECTION('',(0.,-0.707106781186548,0.707106781186547));
#927=DIRECTION('',(0.,-0.707106781186547,-0.707106781186548));
#928=DIRECTION('',(0.,0.629320391049837,0.777145961456972));
#929=DIRECTION('',(0.,-0.777145961456972,0.629320391049837));
#930=DIRECTION('',(1.,0.,0.));
#931=DIRECTION('',(0.,-0.777145961456972,0.629320391049837));
#932=DIRECTION('',(0.,-0.629320391049837,-0.777145961456972));
#933=DIRECTION('',(0.,0.544639035015026,0.838670567945425));
#934=DIRECTION('',(0.,-0.838670567945425,0.544639035015026));
#935=DIRECTION('',(1.,0.,0.));
#936=DIRECTION('',(0.,-0.838670567945425,0.544639035015026));
#937=DIRECTION('',(0.,-0.544639035015026,-0.838670567945425));
#938=DIRECTION('',(0.,0.453990499739545,0.891006524188369));
#939=DIRECTION('',(0.,-0.891006524188369,0.453990499739545));
#940=DIRECTION('',(0.,-0.453990499739559,0.891006524188361));
#941=DIRECTION('',(0.,-0.891006524188362,-0.453990499739559));
#942=DIRECTION('',(0.,0.838670567945417,0.544639035015039));
#943=DIRECTION('',(0.,-0.544639035015039,0.838670567945417));
#944=DIRECTION('',(1.,0.,0.));
#945=DIRECTION('',(0.,-0.544639035015039,0.838670567945417));
#946=DIRECTION('',(0.,-0.838670567945417,-0.544639035015039));
#947=DIRECTION('',(0.,0.777145961456962,0.629320391049848));
#948=DIRECTION('',(0.,-0.629320391049848,0.777145961456962));
#949=DIRECTION('',(1.,0.,0.));
#950=DIRECTION('',(0.,-0.629320391049848,0.777145961456962));
#951=DIRECTION('',(0.,-0.777145961456962,-0.629320391049848));
#952=DIRECTION('',(0.,1.,0.));
#953=DIRECTION('',(0.,0.,1.));
#954=DIRECTION('',(0.,1.,0.));
#955=DIRECTION('',(0.,0.,1.));
#956=DIRECTION('',(0.,1.,0.));
#957=DIRECTION('',(0.,0.,1.));
#958=DIRECTION('',(0.,1.,0.));
#959=DIRECTION('',(0.,0.,1.));
#960=CARTESIAN_POINT('',(0.,0.,0.));
#961=CARTESIAN_POINT('',(-0.00225,0.003,0.009));
#962=CARTESIAN_POINT('',(0.0064116224765445,0.003,0.009));
#963=CARTESIAN_POINT('',(0.000645000812623169,-0.00698808170993924,0.00948808170993924));
#964=CARTESIAN_POINT('',(0.000647135464546842,-0.00698438438435096,0.00955863088486821));
#965=CARTESIAN_POINT('',(-0.00225,-0.00698438438435096,0.00955863088486821));
#966=CARTESIAN_POINT('',(-0.00064713546454684,-0.00698438438435096,0.00955863088486821));
#967=CARTESIAN_POINT('',(-0.0064116224765445,0.003,0.009));
#968=CARTESIAN_POINT('',(-0.000645000812623167,-0.00698808170993924,0.00948808170993924));
#969=CARTESIAN_POINT('',(-0.00225,-0.00698808170993924,0.00948808170993924));
#970=CARTESIAN_POINT('',(-0.00225,0.003,0.009));
#971=CARTESIAN_POINT('',(-0.00225,-0.00688234752217298,0.0105294467793949));
#972=CARTESIAN_POINT('',(-0.000706046474392562,-0.00688234752217298,0.0105294467793949));
#973=CARTESIAN_POINT('',(0.000706046474392564,-0.00688234752217298,0.0105294467793949));
#974=CARTESIAN_POINT('',(0.0064116224765445,0.003,0.009));
#975=CARTESIAN_POINT('',(0.000712427042470419,-0.00687129605408098,0.0105992230028002));
#976=CARTESIAN_POINT('',(-0.00225,-0.00687129605408098,0.0105992230028002));
#977=CARTESIAN_POINT('',(-0.000712427042470417,-0.00687129605408098,0.0105992230028002));
#978=CARTESIAN_POINT('',(-0.0064116224765445,0.003,0.009));
#979=CARTESIAN_POINT('',(0.,0.,0.0119));
#980=CARTESIAN_POINT('',(-0.0011,-0.0023,0.0119));
#981=CARTESIAN_POINT('',(-0.0011,-0.0023,0.0119));
#982=CARTESIAN_POINT('',(-0.0011,-0.00610502643446785,0.0119));
#983=CARTESIAN_POINT('',(0.,-0.00610502643446785,0.0119));
#984=CARTESIAN_POINT('',(0.0011,-0.00610502643446785,0.0119));
#985=CARTESIAN_POINT('',(0.0011,-0.0023,0.0119));
#986=CARTESIAN_POINT('',(0.0011,-0.0023,0.0119));
#987=CARTESIAN_POINT('',(-0.0011,-0.0023,0.0119));
#988=CARTESIAN_POINT('',(-0.0011,-0.0062,0.));
#989=CARTESIAN_POINT('',(0.00129602982444698,-0.0103500453923926,0.00683317233940903));
#990=CARTESIAN_POINT('',(-0.000956841378488985,-0.00644795800599861,0.00999302040104258));
#991=CARTESIAN_POINT('',(-0.00351625534107478,-0.00201492298519877,0.00451867805903672));
#992=CARTESIAN_POINT('',(0.00125745182526716,-0.0102832263377588,0.00838348956911921));
#993=CARTESIAN_POINT('',(-0.00104665156093148,-0.00629240220697118,0.0109751610627686));
#994=CARTESIAN_POINT('',(-0.00369976482906292,-0.00169707522833235,0.00389897805109095));
#995=CARTESIAN_POINT('',(-0.000829603620810077,-0.00666834026693961,0.0115540549098784));
#996=CARTESIAN_POINT('',(-0.0064116224765445,0.003,0.009));
#997=CARTESIAN_POINT('',(-0.000840160198203025,-0.006650055738541,0.0116222936988545));
#998=CARTESIAN_POINT('',(0.00108867128215493,-0.0099908898617593,0.00992005369053529));
#999=CARTESIAN_POINT('',(-0.0011,-0.0062,0.0118516085513321));
#1000=CARTESIAN_POINT('',(-0.0011,-0.0062,0.));
#1001=CARTESIAN_POINT('',(-0.0011,-0.0062,0.00614839144866775));
#1002=CARTESIAN_POINT('',(-0.00223544146660439,-0.00423335769082065,0.00514633714208839));
#1003=CARTESIAN_POINT('',(-0.000840160198203046,-0.00665005573854096,0.00637770630114538));
#1004=CARTESIAN_POINT('',(-0.0064116224765445,0.003,0.009));
#1005=CARTESIAN_POINT('',(-0.000829603620810096,-0.00666834026693958,0.00644594509012147));
#1006=CARTESIAN_POINT('',(0.000620027528083245,-0.00917917506905732,0.00257959854841403));
#1007=CARTESIAN_POINT('',(-0.00104665156093149,-0.00629240220697115,0.00702483893723128));
#1008=CARTESIAN_POINT('',(-0.00258790275265203,-0.00362287683568507,0.0052912288908847));
#1009=CARTESIAN_POINT('',(-0.000712427042470427,-0.00687129605408097,0.00740077699719971));
#1010=CARTESIAN_POINT('',(-0.0064116224765445,0.003,0.009));
#1011=CARTESIAN_POINT('',(-0.000706046474392576,-0.00688234752217296,0.00747055322060493));
#1012=CARTESIAN_POINT('',(0.000973619166398613,-0.00979161375175106,0.00387790862609547));
#1013=CARTESIAN_POINT('',(-0.000956841378488991,-0.00644795800599859,0.00800697959895729));
#1014=CARTESIAN_POINT('',(-0.00293482447288776,-0.00302199078998758,0.00523268604918203));
#1015=CARTESIAN_POINT('',(-0.000647135464546844,-0.00698438438435095,0.00844136911513165));
#1016=CARTESIAN_POINT('',(-0.0064116224765445,0.003,0.009));
#1017=CARTESIAN_POINT('',(-0.000645000812623167,-0.00698808170993924,0.00851191829006076));
#1018=CARTESIAN_POINT('',(0.00120115321577006,-0.0101857142857143,0.00531428571428569));
#1019=CARTESIAN_POINT('',(-0.000926794919243117,-0.0065,0.009));
#1020=CARTESIAN_POINT('',(-0.00325269171797844,-0.00247142857142856,0.00497142857142857));
#1021=CARTESIAN_POINT('',(0.0011,-0.0062,0.));
#1022=CARTESIAN_POINT('',(0.00351625534107478,-0.00201492298519877,0.00451867805903672));
#1023=CARTESIAN_POINT('',(0.000956841378488986,-0.00644795800599861,0.00999302040104258));
#1024=CARTESIAN_POINT('',(-0.00129602982444698,-0.0103500453923926,0.00683317233940903));
#1025=CARTESIAN_POINT('',(0.00325269171797845,-0.00247142857142856,0.00497142857142857));
#1026=CARTESIAN_POINT('',(0.000926794919243118,-0.0065,0.009));
#1027=CARTESIAN_POINT('',(-0.00120115321577006,-0.0101857142857143,0.00531428571428569));
#1028=CARTESIAN_POINT('',(0.000645000812623169,-0.00698808170993924,0.00851191829006076));
#1029=CARTESIAN_POINT('',(0.0064116224765445,0.003,0.009));
#1030=CARTESIAN_POINT('',(0.000647135464546845,-0.00698438438435095,0.00844136911513165));
#1031=CARTESIAN_POINT('',(0.00293482447288776,-0.00302199078998758,0.00523268604918203));
#1032=CARTESIAN_POINT('',(0.000956841378488992,-0.00644795800599859,0.00800697959895729));
#1033=CARTESIAN_POINT('',(-0.000973619166398611,-0.00979161375175106,0.00387790862609547));
#1034=CARTESIAN_POINT('',(0.000706046474392576,-0.00688234752217296,0.00747055322060493));
#1035=CARTESIAN_POINT('',(0.0064116224765445,0.003,0.009));
#1036=CARTESIAN_POINT('',(0.000712427042470429,-0.00687129605408097,0.00740077699719971));
#1037=CARTESIAN_POINT('',(0.00258790275265203,-0.00362287683568507,0.0052912288908847));
#1038=CARTESIAN_POINT('',(0.00104665156093149,-0.00629240220697115,0.00702483893723128));
#1039=CARTESIAN_POINT('',(-0.000620027528083243,-0.00917917506905732,0.00257959854841403));
#1040=CARTESIAN_POINT('',(0.000829603620810098,-0.00666834026693958,0.00644594509012147));
#1041=CARTESIAN_POINT('',(0.0064116224765445,0.003,0.009));
#1042=CARTESIAN_POINT('',(0.000840160198203047,-0.00665005573854096,0.00637770630114538));
#1043=CARTESIAN_POINT('',(0.00223544146660439,-0.00423335769082065,0.00514633714208839));
#1044=CARTESIAN_POINT('',(0.0011,-0.0062,0.00614839144866775));
#1045=CARTESIAN_POINT('',(0.0011,-0.0062,0.));
#1046=CARTESIAN_POINT('',(0.0011,-0.0062,0.0118516085513321));
#1047=CARTESIAN_POINT('',(-0.00108867128215493,-0.0099908898617593,0.00992005369053529));
#1048=CARTESIAN_POINT('',(0.000840160198203027,-0.006650055738541,0.0116222936988545));
#1049=CARTESIAN_POINT('',(0.0064116224765445,0.003,0.009));
#1050=CARTESIAN_POINT('',(0.000829603620810079,-0.00666834026693961,0.0115540549098784));
#1051=CARTESIAN_POINT('',(0.00369976482906292,-0.00169707522833235,0.00389897805109095));
#1052=CARTESIAN_POINT('',(0.00104665156093148,-0.00629240220697118,0.0109751610627686));
#1053=CARTESIAN_POINT('',(-0.00125745182526716,-0.0102832263377588,0.00838348956911921));
#1054=CARTESIAN_POINT('',(-0.0011,-0.0023,0.0119));
#1055=CARTESIAN_POINT('',(-0.0011,-0.00308424400585236,0.0134391655247652));
#1056=CARTESIAN_POINT('',(-0.0011,-0.0023,0.0119));
#1057=CARTESIAN_POINT('',(-0.0011,-0.0023,0.0061));
#1058=CARTESIAN_POINT('',(-0.0011,-0.0023,0.0061));
#1059=CARTESIAN_POINT('',(-0.0011,-0.00610502643446806,0.0061));
#1060=CARTESIAN_POINT('',(-0.0011,-0.0054303932895397,0.00575625724358654));
#1061=CARTESIAN_POINT('',(0.0011,-0.0023,0.0119));
#1062=CARTESIAN_POINT('',(0.0011,-0.00308424400585236,0.0134391655247652));
#1063=CARTESIAN_POINT('',(0.0011,-0.0054303932895397,0.00575625724358654));
#1064=CARTESIAN_POINT('',(0.0011,-0.00610502643446806,0.0061));
#1065=CARTESIAN_POINT('',(0.0011,-0.0023,0.0061));
#1066=CARTESIAN_POINT('',(0.0011,-0.0023,0.0061));
#1067=CARTESIAN_POINT('',(0.0011,-0.0023,0.0119));
#1068=CARTESIAN_POINT('',(-0.00225,0.003,0.009));
#1069=CARTESIAN_POINT('',(-0.00225,-0.00666834026693961,0.0115540549098784));
#1070=CARTESIAN_POINT('',(-0.00225,-0.006650055738541,0.0116222936988545));
#1071=CARTESIAN_POINT('',(-0.00225,0.003,0.009));
#1072=CARTESIAN_POINT('',(-0.00225,-0.00665005573854096,0.00637770630114538));
#1073=CARTESIAN_POINT('',(-0.00225,-0.00666834026693958,0.00644594509012147));
#1074=CARTESIAN_POINT('',(-0.00225,0.003,0.009));
#1075=CARTESIAN_POINT('',(-0.00225,-0.00687129605408096,0.00740077699719971));
#1076=CARTESIAN_POINT('',(-0.00225,-0.00688234752217296,0.00747055322060493));
#1077=CARTESIAN_POINT('',(-0.00225,0.003,0.009));
#1078=CARTESIAN_POINT('',(-0.00225,-0.00698438438435095,0.00844136911513165));
#1079=CARTESIAN_POINT('',(-0.00225,-0.00698808170993924,0.00851191829006076));
#1080=CARTESIAN_POINT('',(0.,0.,0.0061));
#1081=CARTESIAN_POINT('',(0.,-0.00610502643446806,0.0061));
#1082=CARTESIAN_POINT('',(-0.0011,-0.0023,0.0061));
#1083=CARTESIAN_POINT('',(0.00225,0.0027,0.012));
#1084=CARTESIAN_POINT('',(0.00225,0.0027,0.012));
#1085=CARTESIAN_POINT('',(0.00225,-0.0014,0.012));
#1086=CARTESIAN_POINT('',(0.00225,0.0027,0.012));
#1087=CARTESIAN_POINT('',(0.00225,-0.0014,0.));
#1088=CARTESIAN_POINT('',(0.00225,-0.0014,0.));
#1089=CARTESIAN_POINT('',(0.00225,0.0027,0.));
#1090=CARTESIAN_POINT('',(0.00225,0.0027,0.));
#1091=CARTESIAN_POINT('',(0.00225,0.0027,0.012));
#1092=CARTESIAN_POINT('',(-0.00225,0.0027,0.012));
#1093=CARTESIAN_POINT('',(0.,0.0027,0.0095));
#1094=CARTESIAN_POINT('',(0.,0.0027,0.0104));
#1095=CARTESIAN_POINT('',(-0.00225,0.0027,0.));
#1096=CARTESIAN_POINT('',(-0.00225,0.0027,0.));
#1097=CARTESIAN_POINT('',(-0.00225,0.0027,0.012));
#1098=CARTESIAN_POINT('',(-0.00225,0.0027,0.012));
#1099=CARTESIAN_POINT('',(-0.00225,0.0027,0.012));
#1100=CARTESIAN_POINT('',(-0.00225,0.0027,0.012));
#1101=CARTESIAN_POINT('',(-0.00225,0.0027,0.));
#1102=CARTESIAN_POINT('',(-0.00225,-0.0014,0.));
#1103=CARTESIAN_POINT('',(-0.00225,-0.0014,0.));
#1104=CARTESIAN_POINT('',(-0.00225,-0.0014,0.012));
#1105=CARTESIAN_POINT('',(-0.00225,0.0027,0.012));
#1106=CARTESIAN_POINT('',(-0.00225,-0.0023,0.012));
#1107=CARTESIAN_POINT('',(-0.00225,-0.0023,0.012));
#1108=CARTESIAN_POINT('',(-0.00135,-0.0023,0.012));
#1109=CARTESIAN_POINT('',(0.00135,-0.0023,0.012));
#1110=CARTESIAN_POINT('',(-0.00135,-0.0023,0.));
#1111=CARTESIAN_POINT('',(-0.00135,-0.0023,0.));
#1112=CARTESIAN_POINT('',(-0.00225,-0.0023,0.));
#1113=CARTESIAN_POINT('',(0.00135,-0.0023,0.));
#1114=CARTESIAN_POINT('',(0.00135,-0.0023,0.));
#1115=CARTESIAN_POINT('',(0.,0.,0.012));
#1116=CARTESIAN_POINT('',(-0.00135,-0.0023,0.012));
#1117=CARTESIAN_POINT('',(0.00135,-0.0023,0.012));
#1118=CARTESIAN_POINT('',(0.,0.,0.012));
#1119=CARTESIAN_POINT('',(0.00175,0.,0.012));
#1120=CARTESIAN_POINT('',(0.,0.,0.));
#1121=CARTESIAN_POINT('',(0.,0.,0.));
#1122=CARTESIAN_POINT('',(0.00125,0.,0.));
#1123=CARTESIAN_POINT('',(-0.00135,-0.0023,0.));
#1124=CARTESIAN_POINT('',(0.00135,-0.0023,0.));
#1125=CARTESIAN_POINT('',(0.,0.,0.0339497474683058));
#1126=CARTESIAN_POINT('',(0.,0.,0.0145));
#1127=CARTESIAN_POINT('',(0.00175,0.,0.0145));
#1128=CARTESIAN_POINT('',(0.,0.,0.0145));
#1129=CARTESIAN_POINT('',(0.,0.,0.0145));
#1130=CARTESIAN_POINT('',(0.00125,0.,0.0145));
#1131=CARTESIAN_POINT('',(0.,0.,0.));
#1132=CARTESIAN_POINT('',(0.000594142825035545,-0.00112910218937931,0.0102417508051686));
#1133=CARTESIAN_POINT('',(3.52184963988827E-7,-0.0013307991828924,0.0105058617018209));
#1134=CARTESIAN_POINT('',(-0.000595199379927511,-0.00112850026194348,0.0102406640893686));
#1135=CARTESIAN_POINT('',(-0.000846169989399251,-0.000925248668103711,0.00986651450058123));
#1136=CARTESIAN_POINT('',(-0.000926706468910866,-0.000838770649129539,0.00950005326383345));
#1137=CARTESIAN_POINT('',(-0.000847003573599534,-0.000924474789657525,0.00913573469171521));
#1138=CARTESIAN_POINT('',(-0.000596199426842045,-0.00112781836301123,0.00875994598567743));
#1139=CARTESIAN_POINT('',(-2.79819672085592E-6,-0.00133108509936915,0.00849389100323229));
#1140=CARTESIAN_POINT('',(0.000594834689774141,-0.00112891871931925,0.00875839158735679));
#1141=CARTESIAN_POINT('',(0.000846574305201497,-0.000924879224464739,0.00913448723840833));
#1142=CARTESIAN_POINT('',(0.000926727538861733,-0.000838729836397308,0.00949984799836125));
#1143=CARTESIAN_POINT('',(0.000846515537646855,-0.000925006903598628,0.00986598506889379));
#1144=CARTESIAN_POINT('',(0.000594142825035545,-0.00112910218937931,0.0102417508051686));
#1145=CARTESIAN_POINT('',(3.52184963988827E-7,-0.0013307991828924,0.0105058617018209));
#1146=CARTESIAN_POINT('',(-0.000595199379927511,-0.00112850026194348,0.0102406640893686));
#1147=CARTESIAN_POINT('',(0.,-0.00125,0.0104));
#1148=CARTESIAN_POINT('',(-0.000594142825035546,0.00112910218937931,0.0102417508051686));
#1149=CARTESIAN_POINT('',(-3.52184963988176E-7,0.0013307991828924,0.0105058617018209));
#1150=CARTESIAN_POINT('',(0.000595199379927511,0.00112850026194348,0.0102406640893686));
#1151=CARTESIAN_POINT('',(0.000846169989399251,0.000925248668103711,0.00986651450058123));
#1152=CARTESIAN_POINT('',(0.000926706468910866,0.000838770649129539,0.00950005326383345));
#1153=CARTESIAN_POINT('',(0.000847003573599534,0.000924474789657525,0.00913573469171522));
#1154=CARTESIAN_POINT('',(0.000596199426842045,0.00112781836301123,0.00875994598567743));
#1155=CARTESIAN_POINT('',(2.79819672085545E-6,0.00133108509936915,0.0084938910032323));
#1156=CARTESIAN_POINT('',(-0.000594834689774141,0.00112891871931925,0.00875839158735679));
#1157=CARTESIAN_POINT('',(-0.000846574305201497,0.000924879224464739,0.00913448723840833));
#1158=CARTESIAN_POINT('',(-0.000926727538861733,0.000838729836397307,0.00949984799836125));
#1159=CARTESIAN_POINT('',(-0.000846515537646854,0.000925006903598628,0.00986598506889379));
#1160=CARTESIAN_POINT('',(-0.000594142825035546,0.00112910218937931,0.0102417508051686));
#1161=CARTESIAN_POINT('',(-3.52184963988176E-7,0.0013307991828924,0.0105058617018209));
#1162=CARTESIAN_POINT('',(0.000595199379927511,0.00112850026194348,0.0102406640893686));
#1163=CARTESIAN_POINT('',(0.,0.00125,0.0104));
#1164=CARTESIAN_POINT('',(0.00135,-0.0023,0.));
#1165=CARTESIAN_POINT('',(-0.00135,-0.0023,0.));
#1166=CARTESIAN_POINT('',(-0.00225,0.00125,0.00125));
#1167=CARTESIAN_POINT('',(-0.00225,-0.0065,0.009));
#1168=CARTESIAN_POINT('',(-0.00225,-0.00775,0.00775));
#1169=CARTESIAN_POINT('',(-0.00225,0.00206968227342984,0.0011095305001775));
#1170=CARTESIAN_POINT('',(-0.00225,-0.0064479580059986,0.00800697959895729));
#1171=CARTESIAN_POINT('',(-0.00225,-0.00756044979612437,0.00663316665066237));
#1172=CARTESIAN_POINT('',(-0.00225,0.00289955730255348,0.00105551063538194));
#1173=CARTESIAN_POINT('',(-0.00225,-0.00629240220697115,0.00702483893723128));
#1174=CARTESIAN_POINT('',(-0.00225,-0.00725519709436621,0.00554226482279181));
#1175=CARTESIAN_POINT('',(-0.00225,0.00373053280288933,0.00108853225855641));
#1176=CARTESIAN_POINT('',(-0.00225,-0.00761012879314162,0.0111331120441616));
#1177=CARTESIAN_POINT('',(-0.00225,-0.000323073905121694,0.00178320155324405));
#1178=CARTESIAN_POINT('',(-0.00225,-0.00629240220697118,0.0109751610627686));
#1179=CARTESIAN_POINT('',(-0.00225,-0.00777497632141063,0.0100123661753735));
#1180=CARTESIAN_POINT('',(-0.00225,0.000449491092781316,0.00147538012161425));
#1181=CARTESIAN_POINT('',(-0.00225,-0.00644795800599861,0.00999302040104258));
#1182=CARTESIAN_POINT('',(-0.00225,-0.00782177095429351,0.00888052861091678));
#1183=CARTESIAN_POINT('',(0.,0.0027,0.0095));
#1184=CARTESIAN_POINT('',(0.,0.0027,0.0095));
#1185=CARTESIAN_POINT('',(0.,-0.0055,0.0095));
#1186=CARTESIAN_POINT('',(0.,-0.0055,0.0104));
#1187=CARTESIAN_POINT('',(0.,-0.0055,0.0095));
#1188=CARTESIAN_POINT('',(-2.1408723166903E-18,-0.0060407745571248,0.0095));
#1189=(
GEOMETRIC_REPRESENTATION_CONTEXT(3)
GLOBAL_UNCERTAINTY_ASSIGNED_CONTEXT((#1190))
GLOBAL_UNIT_ASSIGNED_CONTEXT((#1193,#1192,#1191))
REPRESENTATION_CONTEXT('id2','TOP_LEVEL_ASSEMBLY_PART')
);
#1190=UNCERTAINTY_MEASURE_WITH_UNIT(LENGTH_MEASURE(2.E-5),#1193,
'DISTANCE_ACCURACY_VALUE','Maximum Tolerance applied to model');
#1191=(
NAMED_UNIT(*)
SI_UNIT($,.STERADIAN.)
SOLID_ANGLE_UNIT()
);
#1192=(
NAMED_UNIT(*)
PLANE_ANGLE_UNIT()
SI_UNIT($,.RADIAN.)
);
#1193=(
LENGTH_UNIT()
NAMED_UNIT(*)
SI_UNIT($,.METRE.)
);
#1194=PRODUCT_DEFINITION_SHAPE('','',#1195);
#1195=PRODUCT_DEFINITION('','',#1197,#1196);
#1196=PRODUCT_DEFINITION_CONTEXT('',#1203,'design');
#1197=PRODUCT_DEFINITION_FORMATION_WITH_SPECIFIED_SOURCE('','',#1199,
 .NOT_KNOWN.);
#1198=PRODUCT_RELATED_PRODUCT_CATEGORY('','',(#1199));
#1199=PRODUCT('id2','id2','id2',(#1201));
#1200=PRODUCT_CATEGORY('','');
#1201=PRODUCT_CONTEXT('',#1203,'mechanical');
#1202=APPLICATION_PROTOCOL_DEFINITION('international standard',
'ap242_managed_model_based_3d_engineering',2020,#1203);
#1203=APPLICATION_CONTEXT('managed model based 3d engineering');
ENDSEC;
END-ISO-10303-21;
