ISO-10303-21;
HEADER;
/* Generated by software containing ST-Developer
 * from STEP Tools, Inc. (www.steptools.com) 
 */
/* OPTION: using custom renumber hook */

FILE_DESCRIPTION(
/* description */ ('STEP AP242 Edition 2',
'CAx-IF Rec.Pracs.---Representation and Presentation of Product Manufa
cturing Information (PMI)---4.0---2014-10-13',
'CAx-IF Rec.Pracs.---3D Tessellated Geometry---0.4---2014-09-14','2;1',
'CAx-IF Rec.Pracs.---User Defined Attributes---1.5---2016-08-15'),
/* implementation_level */ '2;1');

FILE_NAME(
/* name */ '10071',
/* time_stamp */ '2026-07-13T04:51:47Z',
/* author */ (''),
/* organization */ (''),
/* preprocessor_version */ 'ST-DEVELOPER v20',
/* originating_system */ 'ONSHAPE BY PTC INC, 1.217',
/* authorisation */ '  ');

FILE_SCHEMA (('AP242_MANAGED_MODEL_BASED_3D_ENGINEERING_MIM_LF { 1 0 10303 442 3 1 4 }'));
ENDSEC;

DATA;
#10=SHAPE_REPRESENTATION_RELATIONSHIP('','',#760,#11);
#11=ADVANCED_BREP_SHAPE_REPRESENTATION('',(#758),#1382);
#12=CONICAL_SURFACE('',#879,0.0175,0.785398163397431);
#13=PLANE('',#813);
#14=PLANE('',#835);
#15=LINE('',#1157,#49);
#16=LINE('',#1161,#50);
#17=LINE('',#1166,#51);
#18=LINE('',#1170,#52);
#19=LINE('',#1175,#53);
#20=LINE('',#1179,#54);
#21=LINE('',#1184,#55);
#22=LINE('',#1188,#56);
#23=LINE('',#1193,#57);
#24=LINE('',#1197,#58);
#25=LINE('',#1202,#59);
#26=LINE('',#1206,#60);
#27=LINE('',#1211,#61);
#28=LINE('',#1215,#62);
#29=LINE('',#1220,#63);
#30=LINE('',#1224,#64);
#31=LINE('',#1229,#65);
#32=LINE('',#1233,#66);
#33=LINE('',#1238,#67);
#34=LINE('',#1242,#68);
#35=LINE('',#1247,#69);
#36=LINE('',#1251,#70);
#37=LINE('',#1256,#71);
#38=LINE('',#1260,#72);
#39=LINE('',#1265,#73);
#40=LINE('',#1269,#74);
#41=LINE('',#1274,#75);
#42=LINE('',#1278,#76);
#43=LINE('',#1283,#77);
#44=LINE('',#1287,#78);
#45=LINE('',#1292,#79);
#46=LINE('',#1296,#80);
#47=LINE('',#1359,#81);
#48=LINE('',#1360,#82);
#49=VECTOR('',#886,1.);
#50=VECTOR('',#889,1.);
#51=VECTOR('',#894,1.);
#52=VECTOR('',#897,1.);
#53=VECTOR('',#902,1.);
#54=VECTOR('',#905,1.);
#55=VECTOR('',#910,1.);
#56=VECTOR('',#913,1.);
#57=VECTOR('',#918,1.);
#58=VECTOR('',#921,1.);
#59=VECTOR('',#926,1.);
#60=VECTOR('',#929,1.);
#61=VECTOR('',#934,1.);
#62=VECTOR('',#937,1.);
#63=VECTOR('',#942,1.);
#64=VECTOR('',#945,1.);
#65=VECTOR('',#950,1.);
#66=VECTOR('',#953,1.);
#67=VECTOR('',#958,1.);
#68=VECTOR('',#961,1.);
#69=VECTOR('',#966,1.);
#70=VECTOR('',#969,1.);
#71=VECTOR('',#974,1.);
#72=VECTOR('',#977,1.);
#73=VECTOR('',#982,1.);
#74=VECTOR('',#985,1.);
#75=VECTOR('',#990,1.);
#76=VECTOR('',#993,1.);
#77=VECTOR('',#998,1.);
#78=VECTOR('',#1001,1.);
#79=VECTOR('',#1006,1.);
#80=VECTOR('',#1009,1.);
#81=VECTOR('',#1108,1.);
#82=VECTOR('',#1109,1.);
#83=ORIENTED_EDGE('',*,*,#305,.T.);
#84=ORIENTED_EDGE('',*,*,#306,.F.);
#85=ORIENTED_EDGE('',*,*,#307,.T.);
#86=ORIENTED_EDGE('',*,*,#308,.F.);
#87=ORIENTED_EDGE('',*,*,#309,.T.);
#88=ORIENTED_EDGE('',*,*,#310,.F.);
#89=ORIENTED_EDGE('',*,*,#311,.T.);
#90=ORIENTED_EDGE('',*,*,#312,.F.);
#91=ORIENTED_EDGE('',*,*,#313,.T.);
#92=ORIENTED_EDGE('',*,*,#314,.F.);
#93=ORIENTED_EDGE('',*,*,#315,.T.);
#94=ORIENTED_EDGE('',*,*,#316,.F.);
#95=ORIENTED_EDGE('',*,*,#317,.T.);
#96=ORIENTED_EDGE('',*,*,#318,.F.);
#97=ORIENTED_EDGE('',*,*,#319,.T.);
#98=ORIENTED_EDGE('',*,*,#320,.F.);
#99=ORIENTED_EDGE('',*,*,#321,.T.);
#100=ORIENTED_EDGE('',*,*,#322,.F.);
#101=ORIENTED_EDGE('',*,*,#323,.T.);
#102=ORIENTED_EDGE('',*,*,#324,.F.);
#103=ORIENTED_EDGE('',*,*,#325,.T.);
#104=ORIENTED_EDGE('',*,*,#326,.F.);
#105=ORIENTED_EDGE('',*,*,#327,.T.);
#106=ORIENTED_EDGE('',*,*,#328,.F.);
#107=ORIENTED_EDGE('',*,*,#329,.T.);
#108=ORIENTED_EDGE('',*,*,#330,.F.);
#109=ORIENTED_EDGE('',*,*,#331,.T.);
#110=ORIENTED_EDGE('',*,*,#332,.F.);
#111=ORIENTED_EDGE('',*,*,#333,.T.);
#112=ORIENTED_EDGE('',*,*,#334,.F.);
#113=ORIENTED_EDGE('',*,*,#335,.T.);
#114=ORIENTED_EDGE('',*,*,#336,.F.);
#115=ORIENTED_EDGE('',*,*,#337,.T.);
#116=ORIENTED_EDGE('',*,*,#338,.F.);
#117=ORIENTED_EDGE('',*,*,#339,.T.);
#118=ORIENTED_EDGE('',*,*,#340,.F.);
#119=ORIENTED_EDGE('',*,*,#341,.T.);
#120=ORIENTED_EDGE('',*,*,#342,.F.);
#121=ORIENTED_EDGE('',*,*,#343,.T.);
#122=ORIENTED_EDGE('',*,*,#344,.F.);
#123=ORIENTED_EDGE('',*,*,#345,.T.);
#124=ORIENTED_EDGE('',*,*,#346,.F.);
#125=ORIENTED_EDGE('',*,*,#347,.T.);
#126=ORIENTED_EDGE('',*,*,#348,.F.);
#127=ORIENTED_EDGE('',*,*,#349,.T.);
#128=ORIENTED_EDGE('',*,*,#350,.F.);
#129=ORIENTED_EDGE('',*,*,#351,.T.);
#130=ORIENTED_EDGE('',*,*,#352,.F.);
#131=ORIENTED_EDGE('',*,*,#353,.T.);
#132=ORIENTED_EDGE('',*,*,#354,.F.);
#133=ORIENTED_EDGE('',*,*,#355,.T.);
#134=ORIENTED_EDGE('',*,*,#356,.F.);
#135=ORIENTED_EDGE('',*,*,#357,.T.);
#136=ORIENTED_EDGE('',*,*,#358,.F.);
#137=ORIENTED_EDGE('',*,*,#359,.T.);
#138=ORIENTED_EDGE('',*,*,#360,.F.);
#139=ORIENTED_EDGE('',*,*,#361,.T.);
#140=ORIENTED_EDGE('',*,*,#362,.F.);
#141=ORIENTED_EDGE('',*,*,#363,.T.);
#142=ORIENTED_EDGE('',*,*,#364,.F.);
#143=ORIENTED_EDGE('',*,*,#365,.T.);
#144=ORIENTED_EDGE('',*,*,#366,.F.);
#145=ORIENTED_EDGE('',*,*,#367,.T.);
#146=ORIENTED_EDGE('',*,*,#368,.F.);
#147=ORIENTED_EDGE('',*,*,#369,.T.);
#148=ORIENTED_EDGE('',*,*,#370,.F.);
#149=ORIENTED_EDGE('',*,*,#371,.F.);
#150=ORIENTED_EDGE('',*,*,#372,.F.);
#151=ORIENTED_EDGE('',*,*,#373,.F.);
#152=ORIENTED_EDGE('',*,*,#374,.F.);
#153=ORIENTED_EDGE('',*,*,#349,.F.);
#154=ORIENTED_EDGE('',*,*,#375,.F.);
#155=ORIENTED_EDGE('',*,*,#353,.F.);
#156=ORIENTED_EDGE('',*,*,#376,.F.);
#157=ORIENTED_EDGE('',*,*,#357,.F.);
#158=ORIENTED_EDGE('',*,*,#377,.F.);
#159=ORIENTED_EDGE('',*,*,#361,.F.);
#160=ORIENTED_EDGE('',*,*,#378,.F.);
#161=ORIENTED_EDGE('',*,*,#365,.F.);
#162=ORIENTED_EDGE('',*,*,#379,.F.);
#163=ORIENTED_EDGE('',*,*,#380,.F.);
#164=ORIENTED_EDGE('',*,*,#381,.F.);
#165=ORIENTED_EDGE('',*,*,#347,.F.);
#166=ORIENTED_EDGE('',*,*,#382,.F.);
#167=ORIENTED_EDGE('',*,*,#343,.F.);
#168=ORIENTED_EDGE('',*,*,#383,.F.);
#169=ORIENTED_EDGE('',*,*,#339,.F.);
#170=ORIENTED_EDGE('',*,*,#384,.F.);
#171=ORIENTED_EDGE('',*,*,#335,.F.);
#172=ORIENTED_EDGE('',*,*,#385,.F.);
#173=ORIENTED_EDGE('',*,*,#331,.F.);
#174=ORIENTED_EDGE('',*,*,#386,.F.);
#175=ORIENTED_EDGE('',*,*,#327,.F.);
#176=ORIENTED_EDGE('',*,*,#387,.F.);
#177=ORIENTED_EDGE('',*,*,#323,.F.);
#178=ORIENTED_EDGE('',*,*,#388,.F.);
#179=ORIENTED_EDGE('',*,*,#319,.F.);
#180=ORIENTED_EDGE('',*,*,#389,.F.);
#181=ORIENTED_EDGE('',*,*,#315,.F.);
#182=ORIENTED_EDGE('',*,*,#390,.F.);
#183=ORIENTED_EDGE('',*,*,#311,.F.);
#184=ORIENTED_EDGE('',*,*,#391,.F.);
#185=ORIENTED_EDGE('',*,*,#307,.F.);
#186=ORIENTED_EDGE('',*,*,#370,.T.);
#187=ORIENTED_EDGE('',*,*,#392,.T.);
#188=ORIENTED_EDGE('',*,*,#393,.T.);
#189=ORIENTED_EDGE('',*,*,#394,.T.);
#190=ORIENTED_EDGE('',*,*,#395,.T.);
#191=ORIENTED_EDGE('',*,*,#351,.F.);
#192=ORIENTED_EDGE('',*,*,#396,.F.);
#193=ORIENTED_EDGE('',*,*,#305,.F.);
#194=ORIENTED_EDGE('',*,*,#397,.F.);
#195=ORIENTED_EDGE('',*,*,#309,.F.);
#196=ORIENTED_EDGE('',*,*,#398,.F.);
#197=ORIENTED_EDGE('',*,*,#313,.F.);
#198=ORIENTED_EDGE('',*,*,#399,.F.);
#199=ORIENTED_EDGE('',*,*,#317,.F.);
#200=ORIENTED_EDGE('',*,*,#400,.F.);
#201=ORIENTED_EDGE('',*,*,#321,.F.);
#202=ORIENTED_EDGE('',*,*,#401,.F.);
#203=ORIENTED_EDGE('',*,*,#325,.F.);
#204=ORIENTED_EDGE('',*,*,#402,.F.);
#205=ORIENTED_EDGE('',*,*,#329,.F.);
#206=ORIENTED_EDGE('',*,*,#403,.F.);
#207=ORIENTED_EDGE('',*,*,#333,.F.);
#208=ORIENTED_EDGE('',*,*,#404,.F.);
#209=ORIENTED_EDGE('',*,*,#337,.F.);
#210=ORIENTED_EDGE('',*,*,#405,.F.);
#211=ORIENTED_EDGE('',*,*,#341,.F.);
#212=ORIENTED_EDGE('',*,*,#406,.F.);
#213=ORIENTED_EDGE('',*,*,#345,.F.);
#214=ORIENTED_EDGE('',*,*,#407,.F.);
#215=ORIENTED_EDGE('',*,*,#408,.F.);
#216=ORIENTED_EDGE('',*,*,#409,.F.);
#217=ORIENTED_EDGE('',*,*,#367,.F.);
#218=ORIENTED_EDGE('',*,*,#410,.F.);
#219=ORIENTED_EDGE('',*,*,#363,.F.);
#220=ORIENTED_EDGE('',*,*,#411,.F.);
#221=ORIENTED_EDGE('',*,*,#359,.F.);
#222=ORIENTED_EDGE('',*,*,#412,.F.);
#223=ORIENTED_EDGE('',*,*,#355,.F.);
#224=ORIENTED_EDGE('',*,*,#413,.F.);
#225=ORIENTED_EDGE('',*,*,#380,.T.);
#226=ORIENTED_EDGE('',*,*,#414,.F.);
#227=ORIENTED_EDGE('',*,*,#408,.T.);
#228=ORIENTED_EDGE('',*,*,#415,.F.);
#229=ORIENTED_EDGE('',*,*,#348,.T.);
#230=ORIENTED_EDGE('',*,*,#381,.T.);
#231=ORIENTED_EDGE('',*,*,#415,.T.);
#232=ORIENTED_EDGE('',*,*,#407,.T.);
#233=ORIENTED_EDGE('',*,*,#414,.T.);
#234=ORIENTED_EDGE('',*,*,#379,.T.);
#235=ORIENTED_EDGE('',*,*,#368,.T.);
#236=ORIENTED_EDGE('',*,*,#409,.T.);
#237=ORIENTED_EDGE('',*,*,#366,.T.);
#238=ORIENTED_EDGE('',*,*,#378,.T.);
#239=ORIENTED_EDGE('',*,*,#364,.T.);
#240=ORIENTED_EDGE('',*,*,#410,.T.);
#241=ORIENTED_EDGE('',*,*,#362,.T.);
#242=ORIENTED_EDGE('',*,*,#377,.T.);
#243=ORIENTED_EDGE('',*,*,#360,.T.);
#244=ORIENTED_EDGE('',*,*,#411,.T.);
#245=ORIENTED_EDGE('',*,*,#358,.T.);
#246=ORIENTED_EDGE('',*,*,#376,.T.);
#247=ORIENTED_EDGE('',*,*,#356,.T.);
#248=ORIENTED_EDGE('',*,*,#412,.T.);
#249=ORIENTED_EDGE('',*,*,#354,.T.);
#250=ORIENTED_EDGE('',*,*,#375,.T.);
#251=ORIENTED_EDGE('',*,*,#352,.T.);
#252=ORIENTED_EDGE('',*,*,#413,.T.);
#253=ORIENTED_EDGE('',*,*,#344,.T.);
#254=ORIENTED_EDGE('',*,*,#382,.T.);
#255=ORIENTED_EDGE('',*,*,#346,.T.);
#256=ORIENTED_EDGE('',*,*,#406,.T.);
#257=ORIENTED_EDGE('',*,*,#340,.T.);
#258=ORIENTED_EDGE('',*,*,#383,.T.);
#259=ORIENTED_EDGE('',*,*,#342,.T.);
#260=ORIENTED_EDGE('',*,*,#405,.T.);
#261=ORIENTED_EDGE('',*,*,#336,.T.);
#262=ORIENTED_EDGE('',*,*,#384,.T.);
#263=ORIENTED_EDGE('',*,*,#338,.T.);
#264=ORIENTED_EDGE('',*,*,#404,.T.);
#265=ORIENTED_EDGE('',*,*,#332,.T.);
#266=ORIENTED_EDGE('',*,*,#385,.T.);
#267=ORIENTED_EDGE('',*,*,#334,.T.);
#268=ORIENTED_EDGE('',*,*,#403,.T.);
#269=ORIENTED_EDGE('',*,*,#328,.T.);
#270=ORIENTED_EDGE('',*,*,#386,.T.);
#271=ORIENTED_EDGE('',*,*,#330,.T.);
#272=ORIENTED_EDGE('',*,*,#402,.T.);
#273=ORIENTED_EDGE('',*,*,#324,.T.);
#274=ORIENTED_EDGE('',*,*,#387,.T.);
#275=ORIENTED_EDGE('',*,*,#326,.T.);
#276=ORIENTED_EDGE('',*,*,#401,.T.);
#277=ORIENTED_EDGE('',*,*,#320,.T.);
#278=ORIENTED_EDGE('',*,*,#388,.T.);
#279=ORIENTED_EDGE('',*,*,#322,.T.);
#280=ORIENTED_EDGE('',*,*,#400,.T.);
#281=ORIENTED_EDGE('',*,*,#316,.T.);
#282=ORIENTED_EDGE('',*,*,#389,.T.);
#283=ORIENTED_EDGE('',*,*,#318,.T.);
#284=ORIENTED_EDGE('',*,*,#399,.T.);
#285=ORIENTED_EDGE('',*,*,#312,.T.);
#286=ORIENTED_EDGE('',*,*,#390,.T.);
#287=ORIENTED_EDGE('',*,*,#314,.T.);
#288=ORIENTED_EDGE('',*,*,#398,.T.);
#289=ORIENTED_EDGE('',*,*,#308,.T.);
#290=ORIENTED_EDGE('',*,*,#391,.T.);
#291=ORIENTED_EDGE('',*,*,#310,.T.);
#292=ORIENTED_EDGE('',*,*,#397,.T.);
#293=ORIENTED_EDGE('',*,*,#350,.T.);
#294=ORIENTED_EDGE('',*,*,#374,.T.);
#295=ORIENTED_EDGE('',*,*,#306,.T.);
#296=ORIENTED_EDGE('',*,*,#396,.T.);
#297=ORIENTED_EDGE('',*,*,#395,.F.);
#298=ORIENTED_EDGE('',*,*,#373,.T.);
#299=ORIENTED_EDGE('',*,*,#394,.F.);
#300=ORIENTED_EDGE('',*,*,#372,.T.);
#301=ORIENTED_EDGE('',*,*,#393,.F.);
#302=ORIENTED_EDGE('',*,*,#371,.T.);
#303=ORIENTED_EDGE('',*,*,#392,.F.);
#304=ORIENTED_EDGE('',*,*,#369,.F.);
#305=EDGE_CURVE('',#416,#417,#493,.F.);
#306=EDGE_CURVE('',#418,#417,#15,.F.);
#307=EDGE_CURVE('',#418,#419,#494,.T.);
#308=EDGE_CURVE('',#416,#419,#16,.T.);
#309=EDGE_CURVE('',#420,#421,#495,.F.);
#310=EDGE_CURVE('',#422,#421,#17,.F.);
#311=EDGE_CURVE('',#422,#423,#496,.T.);
#312=EDGE_CURVE('',#420,#423,#18,.T.);
#313=EDGE_CURVE('',#424,#425,#497,.F.);
#314=EDGE_CURVE('',#426,#425,#19,.F.);
#315=EDGE_CURVE('',#426,#427,#498,.T.);
#316=EDGE_CURVE('',#424,#427,#20,.T.);
#317=EDGE_CURVE('',#428,#429,#499,.F.);
#318=EDGE_CURVE('',#430,#429,#21,.F.);
#319=EDGE_CURVE('',#430,#431,#500,.T.);
#320=EDGE_CURVE('',#428,#431,#22,.T.);
#321=EDGE_CURVE('',#432,#433,#501,.F.);
#322=EDGE_CURVE('',#434,#433,#23,.F.);
#323=EDGE_CURVE('',#434,#435,#502,.T.);
#324=EDGE_CURVE('',#432,#435,#24,.T.);
#325=EDGE_CURVE('',#436,#437,#503,.F.);
#326=EDGE_CURVE('',#438,#437,#25,.F.);
#327=EDGE_CURVE('',#438,#439,#504,.T.);
#328=EDGE_CURVE('',#436,#439,#26,.T.);
#329=EDGE_CURVE('',#440,#441,#505,.F.);
#330=EDGE_CURVE('',#442,#441,#27,.F.);
#331=EDGE_CURVE('',#442,#443,#506,.T.);
#332=EDGE_CURVE('',#440,#443,#28,.T.);
#333=EDGE_CURVE('',#444,#445,#507,.F.);
#334=EDGE_CURVE('',#446,#445,#29,.F.);
#335=EDGE_CURVE('',#446,#447,#508,.T.);
#336=EDGE_CURVE('',#444,#447,#30,.T.);
#337=EDGE_CURVE('',#448,#449,#509,.F.);
#338=EDGE_CURVE('',#450,#449,#31,.F.);
#339=EDGE_CURVE('',#450,#451,#510,.T.);
#340=EDGE_CURVE('',#448,#451,#32,.T.);
#341=EDGE_CURVE('',#452,#453,#511,.F.);
#342=EDGE_CURVE('',#454,#453,#33,.F.);
#343=EDGE_CURVE('',#454,#455,#512,.T.);
#344=EDGE_CURVE('',#452,#455,#34,.T.);
#345=EDGE_CURVE('',#456,#457,#513,.F.);
#346=EDGE_CURVE('',#458,#457,#35,.F.);
#347=EDGE_CURVE('',#458,#459,#514,.T.);
#348=EDGE_CURVE('',#456,#459,#36,.T.);
#349=EDGE_CURVE('',#460,#461,#515,.T.);
#350=EDGE_CURVE('',#462,#461,#37,.T.);
#351=EDGE_CURVE('',#462,#463,#516,.F.);
#352=EDGE_CURVE('',#460,#463,#38,.F.);
#353=EDGE_CURVE('',#464,#465,#517,.T.);
#354=EDGE_CURVE('',#466,#465,#39,.T.);
#355=EDGE_CURVE('',#466,#467,#518,.F.);
#356=EDGE_CURVE('',#464,#467,#40,.F.);
#357=EDGE_CURVE('',#468,#469,#519,.T.);
#358=EDGE_CURVE('',#470,#469,#41,.T.);
#359=EDGE_CURVE('',#470,#471,#520,.F.);
#360=EDGE_CURVE('',#468,#471,#42,.F.);
#361=EDGE_CURVE('',#472,#473,#521,.T.);
#362=EDGE_CURVE('',#474,#473,#43,.T.);
#363=EDGE_CURVE('',#474,#475,#522,.F.);
#364=EDGE_CURVE('',#472,#475,#44,.F.);
#365=EDGE_CURVE('',#476,#477,#523,.T.);
#366=EDGE_CURVE('',#478,#477,#45,.T.);
#367=EDGE_CURVE('',#478,#479,#524,.F.);
#368=EDGE_CURVE('',#476,#479,#46,.F.);
#369=EDGE_CURVE('',#480,#480,#525,.T.);
#370=EDGE_CURVE('',#481,#481,#526,.T.);
#371=EDGE_CURVE('',#482,#482,#527,.T.);
#372=EDGE_CURVE('',#483,#483,#528,.T.);
#373=EDGE_CURVE('',#484,#484,#529,.T.);
#374=EDGE_CURVE('',#461,#418,#530,.T.);
#375=EDGE_CURVE('',#465,#460,#531,.T.);
#376=EDGE_CURVE('',#469,#464,#532,.T.);
#377=EDGE_CURVE('',#473,#468,#533,.T.);
#378=EDGE_CURVE('',#477,#472,#534,.T.);
#379=EDGE_CURVE('',#485,#476,#535,.T.);
#380=EDGE_CURVE('',#486,#485,#536,.T.);
#381=EDGE_CURVE('',#459,#486,#537,.T.);
#382=EDGE_CURVE('',#455,#458,#538,.T.);
#383=EDGE_CURVE('',#451,#454,#539,.T.);
#384=EDGE_CURVE('',#447,#450,#540,.T.);
#385=EDGE_CURVE('',#443,#446,#541,.T.);
#386=EDGE_CURVE('',#439,#442,#542,.T.);
#387=EDGE_CURVE('',#435,#438,#543,.T.);
#388=EDGE_CURVE('',#431,#434,#544,.T.);
#389=EDGE_CURVE('',#427,#430,#545,.T.);
#390=EDGE_CURVE('',#423,#426,#546,.T.);
#391=EDGE_CURVE('',#419,#422,#547,.T.);
#392=EDGE_CURVE('',#487,#487,#548,.F.);
#393=EDGE_CURVE('',#488,#488,#549,.T.);
#394=EDGE_CURVE('',#489,#489,#550,.T.);
#395=EDGE_CURVE('',#490,#490,#551,.T.);
#396=EDGE_CURVE('',#417,#462,#552,.F.);
#397=EDGE_CURVE('',#421,#416,#553,.F.);
#398=EDGE_CURVE('',#425,#420,#554,.F.);
#399=EDGE_CURVE('',#429,#424,#555,.F.);
#400=EDGE_CURVE('',#433,#428,#556,.F.);
#401=EDGE_CURVE('',#437,#432,#557,.F.);
#402=EDGE_CURVE('',#441,#436,#558,.F.);
#403=EDGE_CURVE('',#445,#440,#559,.F.);
#404=EDGE_CURVE('',#449,#444,#560,.F.);
#405=EDGE_CURVE('',#453,#448,#561,.F.);
#406=EDGE_CURVE('',#457,#452,#562,.F.);
#407=EDGE_CURVE('',#491,#456,#563,.F.);
#408=EDGE_CURVE('',#492,#491,#564,.F.);
#409=EDGE_CURVE('',#479,#492,#565,.F.);
#410=EDGE_CURVE('',#475,#478,#566,.F.);
#411=EDGE_CURVE('',#471,#474,#567,.F.);
#412=EDGE_CURVE('',#467,#470,#568,.F.);
#413=EDGE_CURVE('',#463,#466,#569,.F.);
#414=EDGE_CURVE('',#492,#485,#47,.T.);
#415=EDGE_CURVE('',#486,#491,#48,.F.);
#416=VERTEX_POINT('',#1155);
#417=VERTEX_POINT('',#1156);
#418=VERTEX_POINT('',#1158);
#419=VERTEX_POINT('',#1160);
#420=VERTEX_POINT('',#1164);
#421=VERTEX_POINT('',#1165);
#422=VERTEX_POINT('',#1167);
#423=VERTEX_POINT('',#1169);
#424=VERTEX_POINT('',#1173);
#425=VERTEX_POINT('',#1174);
#426=VERTEX_POINT('',#1176);
#427=VERTEX_POINT('',#1178);
#428=VERTEX_POINT('',#1182);
#429=VERTEX_POINT('',#1183);
#430=VERTEX_POINT('',#1185);
#431=VERTEX_POINT('',#1187);
#432=VERTEX_POINT('',#1191);
#433=VERTEX_POINT('',#1192);
#434=VERTEX_POINT('',#1194);
#435=VERTEX_POINT('',#1196);
#436=VERTEX_POINT('',#1200);
#437=VERTEX_POINT('',#1201);
#438=VERTEX_POINT('',#1203);
#439=VERTEX_POINT('',#1205);
#440=VERTEX_POINT('',#1209);
#441=VERTEX_POINT('',#1210);
#442=VERTEX_POINT('',#1212);
#443=VERTEX_POINT('',#1214);
#444=VERTEX_POINT('',#1218);
#445=VERTEX_POINT('',#1219);
#446=VERTEX_POINT('',#1221);
#447=VERTEX_POINT('',#1223);
#448=VERTEX_POINT('',#1227);
#449=VERTEX_POINT('',#1228);
#450=VERTEX_POINT('',#1230);
#451=VERTEX_POINT('',#1232);
#452=VERTEX_POINT('',#1236);
#453=VERTEX_POINT('',#1237);
#454=VERTEX_POINT('',#1239);
#455=VERTEX_POINT('',#1241);
#456=VERTEX_POINT('',#1245);
#457=VERTEX_POINT('',#1246);
#458=VERTEX_POINT('',#1248);
#459=VERTEX_POINT('',#1250);
#460=VERTEX_POINT('',#1254);
#461=VERTEX_POINT('',#1255);
#462=VERTEX_POINT('',#1257);
#463=VERTEX_POINT('',#1259);
#464=VERTEX_POINT('',#1263);
#465=VERTEX_POINT('',#1264);
#466=VERTEX_POINT('',#1266);
#467=VERTEX_POINT('',#1268);
#468=VERTEX_POINT('',#1272);
#469=VERTEX_POINT('',#1273);
#470=VERTEX_POINT('',#1275);
#471=VERTEX_POINT('',#1277);
#472=VERTEX_POINT('',#1281);
#473=VERTEX_POINT('',#1282);
#474=VERTEX_POINT('',#1284);
#475=VERTEX_POINT('',#1286);
#476=VERTEX_POINT('',#1290);
#477=VERTEX_POINT('',#1291);
#478=VERTEX_POINT('',#1293);
#479=VERTEX_POINT('',#1295);
#480=VERTEX_POINT('',#1299);
#481=VERTEX_POINT('',#1301);
#482=VERTEX_POINT('',#1304);
#483=VERTEX_POINT('',#1306);
#484=VERTEX_POINT('',#1308);
#485=VERTEX_POINT('',#1315);
#486=VERTEX_POINT('',#1317);
#487=VERTEX_POINT('',#1331);
#488=VERTEX_POINT('',#1333);
#489=VERTEX_POINT('',#1335);
#490=VERTEX_POINT('',#1337);
#491=VERTEX_POINT('',#1350);
#492=VERTEX_POINT('',#1352);
#493=CIRCLE('',#763,0.0135);
#494=CIRCLE('',#764,0.0135);
#495=CIRCLE('',#766,0.0135);
#496=CIRCLE('',#767,0.0135);
#497=CIRCLE('',#769,0.0135);
#498=CIRCLE('',#770,0.0135);
#499=CIRCLE('',#772,0.0135);
#500=CIRCLE('',#773,0.0135);
#501=CIRCLE('',#775,0.0135);
#502=CIRCLE('',#776,0.0135);
#503=CIRCLE('',#778,0.0135);
#504=CIRCLE('',#779,0.0135);
#505=CIRCLE('',#781,0.0135);
#506=CIRCLE('',#782,0.0135);
#507=CIRCLE('',#784,0.0135);
#508=CIRCLE('',#785,0.0135);
#509=CIRCLE('',#787,0.0135);
#510=CIRCLE('',#788,0.0135);
#511=CIRCLE('',#790,0.0135);
#512=CIRCLE('',#791,0.0135);
#513=CIRCLE('',#793,0.0135);
#514=CIRCLE('',#794,0.0135);
#515=CIRCLE('',#796,0.0135);
#516=CIRCLE('',#797,0.0135);
#517=CIRCLE('',#799,0.0135);
#518=CIRCLE('',#800,0.0135);
#519=CIRCLE('',#802,0.0135);
#520=CIRCLE('',#803,0.0135);
#521=CIRCLE('',#805,0.0135);
#522=CIRCLE('',#806,0.0135);
#523=CIRCLE('',#808,0.0135);
#524=CIRCLE('',#809,0.0135);
#525=CIRCLE('',#811,0.0175);
#526=CIRCLE('',#812,0.0175);
#527=CIRCLE('',#814,0.0005);
#528=CIRCLE('',#815,0.0005);
#529=CIRCLE('',#816,0.0005);
#530=CIRCLE('',#817,0.0016);
#531=CIRCLE('',#818,0.0016);
#532=CIRCLE('',#819,0.0016);
#533=CIRCLE('',#820,0.0016);
#534=CIRCLE('',#821,0.0016);
#535=CIRCLE('',#822,0.0016);
#536=CIRCLE('',#823,0.0135);
#537=CIRCLE('',#824,0.0016);
#538=CIRCLE('',#825,0.0016);
#539=CIRCLE('',#826,0.0016);
#540=CIRCLE('',#827,0.0016);
#541=CIRCLE('',#828,0.0016);
#542=CIRCLE('',#829,0.0016);
#543=CIRCLE('',#830,0.0016);
#544=CIRCLE('',#831,0.0016);
#545=CIRCLE('',#832,0.0016);
#546=CIRCLE('',#833,0.0016);
#547=CIRCLE('',#834,0.0016);
#548=CIRCLE('',#836,0.0173);
#549=CIRCLE('',#837,0.0005);
#550=CIRCLE('',#838,0.0005);
#551=CIRCLE('',#839,0.0005);
#552=CIRCLE('',#840,0.0016);
#553=CIRCLE('',#841,0.0016);
#554=CIRCLE('',#842,0.0016);
#555=CIRCLE('',#843,0.0016);
#556=CIRCLE('',#844,0.0016);
#557=CIRCLE('',#845,0.0016);
#558=CIRCLE('',#846,0.0016);
#559=CIRCLE('',#847,0.0016);
#560=CIRCLE('',#848,0.0016);
#561=CIRCLE('',#849,0.0016);
#562=CIRCLE('',#850,0.0016);
#563=CIRCLE('',#851,0.0016);
#564=CIRCLE('',#852,0.0135);
#565=CIRCLE('',#853,0.0016);
#566=CIRCLE('',#854,0.0016);
#567=CIRCLE('',#855,0.0016);
#568=CIRCLE('',#856,0.0016);
#569=CIRCLE('',#857,0.0016);
#570=EDGE_LOOP('',(#83,#84,#85,#86));
#571=EDGE_LOOP('',(#87,#88,#89,#90));
#572=EDGE_LOOP('',(#91,#92,#93,#94));
#573=EDGE_LOOP('',(#95,#96,#97,#98));
#574=EDGE_LOOP('',(#99,#100,#101,#102));
#575=EDGE_LOOP('',(#103,#104,#105,#106));
#576=EDGE_LOOP('',(#107,#108,#109,#110));
#577=EDGE_LOOP('',(#111,#112,#113,#114));
#578=EDGE_LOOP('',(#115,#116,#117,#118));
#579=EDGE_LOOP('',(#119,#120,#121,#122));
#580=EDGE_LOOP('',(#123,#124,#125,#126));
#581=EDGE_LOOP('',(#127,#128,#129,#130));
#582=EDGE_LOOP('',(#131,#132,#133,#134));
#583=EDGE_LOOP('',(#135,#136,#137,#138));
#584=EDGE_LOOP('',(#139,#140,#141,#142));
#585=EDGE_LOOP('',(#143,#144,#145,#146));
#586=EDGE_LOOP('',(#147));
#587=EDGE_LOOP('',(#148));
#588=EDGE_LOOP('',(#149));
#589=EDGE_LOOP('',(#150));
#590=EDGE_LOOP('',(#151));
#591=EDGE_LOOP('',(#152,#153,#154,#155,#156,#157,#158,#159,#160,#161,#162,
#163,#164,#165,#166,#167,#168,#169,#170,#171,#172,#173,#174,#175,#176,#177,
#178,#179,#180,#181,#182,#183,#184,#185));
#592=EDGE_LOOP('',(#186));
#593=EDGE_LOOP('',(#187));
#594=EDGE_LOOP('',(#188));
#595=EDGE_LOOP('',(#189));
#596=EDGE_LOOP('',(#190));
#597=EDGE_LOOP('',(#191,#192,#193,#194,#195,#196,#197,#198,#199,#200,#201,
#202,#203,#204,#205,#206,#207,#208,#209,#210,#211,#212,#213,#214,#215,#216,
#217,#218,#219,#220,#221,#222,#223,#224));
#598=EDGE_LOOP('',(#225,#226,#227,#228));
#599=EDGE_LOOP('',(#229,#230,#231,#232));
#600=EDGE_LOOP('',(#233,#234,#235,#236));
#601=EDGE_LOOP('',(#237,#238,#239,#240));
#602=EDGE_LOOP('',(#241,#242,#243,#244));
#603=EDGE_LOOP('',(#245,#246,#247,#248));
#604=EDGE_LOOP('',(#249,#250,#251,#252));
#605=EDGE_LOOP('',(#253,#254,#255,#256));
#606=EDGE_LOOP('',(#257,#258,#259,#260));
#607=EDGE_LOOP('',(#261,#262,#263,#264));
#608=EDGE_LOOP('',(#265,#266,#267,#268));
#609=EDGE_LOOP('',(#269,#270,#271,#272));
#610=EDGE_LOOP('',(#273,#274,#275,#276));
#611=EDGE_LOOP('',(#277,#278,#279,#280));
#612=EDGE_LOOP('',(#281,#282,#283,#284));
#613=EDGE_LOOP('',(#285,#286,#287,#288));
#614=EDGE_LOOP('',(#289,#290,#291,#292));
#615=EDGE_LOOP('',(#293,#294,#295,#296));
#616=EDGE_LOOP('',(#297));
#617=EDGE_LOOP('',(#298));
#618=EDGE_LOOP('',(#299));
#619=EDGE_LOOP('',(#300));
#620=EDGE_LOOP('',(#301));
#621=EDGE_LOOP('',(#302));
#622=EDGE_LOOP('',(#303));
#623=EDGE_LOOP('',(#304));
#624=FACE_BOUND('',#570,.T.);
#625=FACE_BOUND('',#571,.T.);
#626=FACE_BOUND('',#572,.T.);
#627=FACE_BOUND('',#573,.T.);
#628=FACE_BOUND('',#574,.T.);
#629=FACE_BOUND('',#575,.T.);
#630=FACE_BOUND('',#576,.T.);
#631=FACE_BOUND('',#577,.T.);
#632=FACE_BOUND('',#578,.T.);
#633=FACE_BOUND('',#579,.T.);
#634=FACE_BOUND('',#580,.T.);
#635=FACE_BOUND('',#581,.T.);
#636=FACE_BOUND('',#582,.T.);
#637=FACE_BOUND('',#583,.T.);
#638=FACE_BOUND('',#584,.T.);
#639=FACE_BOUND('',#585,.T.);
#640=FACE_BOUND('',#586,.T.);
#641=FACE_BOUND('',#587,.T.);
#642=FACE_BOUND('',#588,.T.);
#643=FACE_BOUND('',#589,.T.);
#644=FACE_BOUND('',#590,.T.);
#645=FACE_BOUND('',#591,.T.);
#646=FACE_BOUND('',#592,.T.);
#647=FACE_BOUND('',#593,.T.);
#648=FACE_BOUND('',#594,.T.);
#649=FACE_BOUND('',#595,.T.);
#650=FACE_BOUND('',#596,.T.);
#651=FACE_BOUND('',#597,.T.);
#652=FACE_BOUND('',#598,.T.);
#653=FACE_BOUND('',#599,.T.);
#654=FACE_BOUND('',#600,.T.);
#655=FACE_BOUND('',#601,.T.);
#656=FACE_BOUND('',#602,.T.);
#657=FACE_BOUND('',#603,.T.);
#658=FACE_BOUND('',#604,.T.);
#659=FACE_BOUND('',#605,.T.);
#660=FACE_BOUND('',#606,.T.);
#661=FACE_BOUND('',#607,.T.);
#662=FACE_BOUND('',#608,.T.);
#663=FACE_BOUND('',#609,.T.);
#664=FACE_BOUND('',#610,.T.);
#665=FACE_BOUND('',#611,.T.);
#666=FACE_BOUND('',#612,.T.);
#667=FACE_BOUND('',#613,.T.);
#668=FACE_BOUND('',#614,.T.);
#669=FACE_BOUND('',#615,.T.);
#670=FACE_BOUND('',#616,.T.);
#671=FACE_BOUND('',#617,.T.);
#672=FACE_BOUND('',#618,.T.);
#673=FACE_BOUND('',#619,.T.);
#674=FACE_BOUND('',#620,.T.);
#675=FACE_BOUND('',#621,.T.);
#676=FACE_BOUND('',#622,.T.);
#677=FACE_BOUND('',#623,.T.);
#678=CYLINDRICAL_SURFACE('',#762,0.0135);
#679=CYLINDRICAL_SURFACE('',#765,0.0135);
#680=CYLINDRICAL_SURFACE('',#768,0.0135);
#681=CYLINDRICAL_SURFACE('',#771,0.0135);
#682=CYLINDRICAL_SURFACE('',#774,0.0135);
#683=CYLINDRICAL_SURFACE('',#777,0.0135);
#684=CYLINDRICAL_SURFACE('',#780,0.0135);
#685=CYLINDRICAL_SURFACE('',#783,0.0135);
#686=CYLINDRICAL_SURFACE('',#786,0.0135);
#687=CYLINDRICAL_SURFACE('',#789,0.0135);
#688=CYLINDRICAL_SURFACE('',#792,0.0135);
#689=CYLINDRICAL_SURFACE('',#795,0.0135);
#690=CYLINDRICAL_SURFACE('',#798,0.0135);
#691=CYLINDRICAL_SURFACE('',#801,0.0135);
#692=CYLINDRICAL_SURFACE('',#804,0.0135);
#693=CYLINDRICAL_SURFACE('',#807,0.0135);
#694=CYLINDRICAL_SURFACE('',#810,0.0175);
#695=CYLINDRICAL_SURFACE('',#858,0.0135);
#696=CYLINDRICAL_SURFACE('',#859,0.0016);
#697=CYLINDRICAL_SURFACE('',#860,0.0016);
#698=CYLINDRICAL_SURFACE('',#861,0.0016);
#699=CYLINDRICAL_SURFACE('',#862,0.0016);
#700=CYLINDRICAL_SURFACE('',#863,0.0016);
#701=CYLINDRICAL_SURFACE('',#864,0.0016);
#702=CYLINDRICAL_SURFACE('',#865,0.0016);
#703=CYLINDRICAL_SURFACE('',#866,0.0016);
#704=CYLINDRICAL_SURFACE('',#867,0.0016);
#705=CYLINDRICAL_SURFACE('',#868,0.0016);
#706=CYLINDRICAL_SURFACE('',#869,0.0016);
#707=CYLINDRICAL_SURFACE('',#870,0.0016);
#708=CYLINDRICAL_SURFACE('',#871,0.0016);
#709=CYLINDRICAL_SURFACE('',#872,0.0016);
#710=CYLINDRICAL_SURFACE('',#873,0.0016);
#711=CYLINDRICAL_SURFACE('',#874,0.0016);
#712=CYLINDRICAL_SURFACE('',#875,0.0016);
#713=CYLINDRICAL_SURFACE('',#876,0.0005);
#714=CYLINDRICAL_SURFACE('',#877,0.0005);
#715=CYLINDRICAL_SURFACE('',#878,0.0005);
#716=ADVANCED_FACE('',(#624),#678,.F.);
#717=ADVANCED_FACE('',(#625),#679,.F.);
#718=ADVANCED_FACE('',(#626),#680,.F.);
#719=ADVANCED_FACE('',(#627),#681,.F.);
#720=ADVANCED_FACE('',(#628),#682,.F.);
#721=ADVANCED_FACE('',(#629),#683,.F.);
#722=ADVANCED_FACE('',(#630),#684,.F.);
#723=ADVANCED_FACE('',(#631),#685,.F.);
#724=ADVANCED_FACE('',(#632),#686,.F.);
#725=ADVANCED_FACE('',(#633),#687,.F.);
#726=ADVANCED_FACE('',(#634),#688,.F.);
#727=ADVANCED_FACE('',(#635),#689,.F.);
#728=ADVANCED_FACE('',(#636),#690,.F.);
#729=ADVANCED_FACE('',(#637),#691,.F.);
#730=ADVANCED_FACE('',(#638),#692,.F.);
#731=ADVANCED_FACE('',(#639),#693,.F.);
#732=ADVANCED_FACE('',(#640,#641),#694,.T.);
#733=ADVANCED_FACE('',(#642,#643,#644,#645,#646),#13,.T.);
#734=ADVANCED_FACE('',(#647,#648,#649,#650,#651),#14,.F.);
#735=ADVANCED_FACE('',(#652),#695,.F.);
#736=ADVANCED_FACE('',(#653),#696,.F.);
#737=ADVANCED_FACE('',(#654),#697,.F.);
#738=ADVANCED_FACE('',(#655),#698,.F.);
#739=ADVANCED_FACE('',(#656),#699,.F.);
#740=ADVANCED_FACE('',(#657),#700,.F.);
#741=ADVANCED_FACE('',(#658),#701,.F.);
#742=ADVANCED_FACE('',(#659),#702,.F.);
#743=ADVANCED_FACE('',(#660),#703,.F.);
#744=ADVANCED_FACE('',(#661),#704,.F.);
#745=ADVANCED_FACE('',(#662),#705,.F.);
#746=ADVANCED_FACE('',(#663),#706,.F.);
#747=ADVANCED_FACE('',(#664),#707,.F.);
#748=ADVANCED_FACE('',(#665),#708,.F.);
#749=ADVANCED_FACE('',(#666),#709,.F.);
#750=ADVANCED_FACE('',(#667),#710,.F.);
#751=ADVANCED_FACE('',(#668),#711,.F.);
#752=ADVANCED_FACE('',(#669),#712,.F.);
#753=ADVANCED_FACE('',(#670,#671),#713,.F.);
#754=ADVANCED_FACE('',(#672,#673),#714,.F.);
#755=ADVANCED_FACE('',(#674,#675),#715,.F.);
#756=ADVANCED_FACE('',(#676,#677),#12,.T.);
#757=CLOSED_SHELL('',(#716,#717,#718,#719,#720,#721,#722,#723,#724,#725,
#726,#727,#728,#729,#730,#731,#732,#733,#734,#735,#736,#737,#738,#739,#740,
#741,#742,#743,#744,#745,#746,#747,#748,#749,#750,#751,#752,#753,#754,#755,
#756));
#758=MANIFOLD_SOLID_BREP('',#757);
#759=SHAPE_DEFINITION_REPRESENTATION(#1387,#760);
#760=SHAPE_REPRESENTATION('id2',(#761),#1382);
#761=AXIS2_PLACEMENT_3D('',#1152,#880,#881);
#762=AXIS2_PLACEMENT_3D('',#1153,#882,#883);
#763=AXIS2_PLACEMENT_3D('',#1154,#884,#885);
#764=AXIS2_PLACEMENT_3D('',#1159,#887,#888);
#765=AXIS2_PLACEMENT_3D('',#1162,#890,#891);
#766=AXIS2_PLACEMENT_3D('',#1163,#892,#893);
#767=AXIS2_PLACEMENT_3D('',#1168,#895,#896);
#768=AXIS2_PLACEMENT_3D('',#1171,#898,#899);
#769=AXIS2_PLACEMENT_3D('',#1172,#900,#901);
#770=AXIS2_PLACEMENT_3D('',#1177,#903,#904);
#771=AXIS2_PLACEMENT_3D('',#1180,#906,#907);
#772=AXIS2_PLACEMENT_3D('',#1181,#908,#909);
#773=AXIS2_PLACEMENT_3D('',#1186,#911,#912);
#774=AXIS2_PLACEMENT_3D('',#1189,#914,#915);
#775=AXIS2_PLACEMENT_3D('',#1190,#916,#917);
#776=AXIS2_PLACEMENT_3D('',#1195,#919,#920);
#777=AXIS2_PLACEMENT_3D('',#1198,#922,#923);
#778=AXIS2_PLACEMENT_3D('',#1199,#924,#925);
#779=AXIS2_PLACEMENT_3D('',#1204,#927,#928);
#780=AXIS2_PLACEMENT_3D('',#1207,#930,#931);
#781=AXIS2_PLACEMENT_3D('',#1208,#932,#933);
#782=AXIS2_PLACEMENT_3D('',#1213,#935,#936);
#783=AXIS2_PLACEMENT_3D('',#1216,#938,#939);
#784=AXIS2_PLACEMENT_3D('',#1217,#940,#941);
#785=AXIS2_PLACEMENT_3D('',#1222,#943,#944);
#786=AXIS2_PLACEMENT_3D('',#1225,#946,#947);
#787=AXIS2_PLACEMENT_3D('',#1226,#948,#949);
#788=AXIS2_PLACEMENT_3D('',#1231,#951,#952);
#789=AXIS2_PLACEMENT_3D('',#1234,#954,#955);
#790=AXIS2_PLACEMENT_3D('',#1235,#956,#957);
#791=AXIS2_PLACEMENT_3D('',#1240,#959,#960);
#792=AXIS2_PLACEMENT_3D('',#1243,#962,#963);
#793=AXIS2_PLACEMENT_3D('',#1244,#964,#965);
#794=AXIS2_PLACEMENT_3D('',#1249,#967,#968);
#795=AXIS2_PLACEMENT_3D('',#1252,#970,#971);
#796=AXIS2_PLACEMENT_3D('',#1253,#972,#973);
#797=AXIS2_PLACEMENT_3D('',#1258,#975,#976);
#798=AXIS2_PLACEMENT_3D('',#1261,#978,#979);
#799=AXIS2_PLACEMENT_3D('',#1262,#980,#981);
#800=AXIS2_PLACEMENT_3D('',#1267,#983,#984);
#801=AXIS2_PLACEMENT_3D('',#1270,#986,#987);
#802=AXIS2_PLACEMENT_3D('',#1271,#988,#989);
#803=AXIS2_PLACEMENT_3D('',#1276,#991,#992);
#804=AXIS2_PLACEMENT_3D('',#1279,#994,#995);
#805=AXIS2_PLACEMENT_3D('',#1280,#996,#997);
#806=AXIS2_PLACEMENT_3D('',#1285,#999,#1000);
#807=AXIS2_PLACEMENT_3D('',#1288,#1002,#1003);
#808=AXIS2_PLACEMENT_3D('',#1289,#1004,#1005);
#809=AXIS2_PLACEMENT_3D('',#1294,#1007,#1008);
#810=AXIS2_PLACEMENT_3D('',#1297,#1010,#1011);
#811=AXIS2_PLACEMENT_3D('',#1298,#1012,#1013);
#812=AXIS2_PLACEMENT_3D('',#1300,#1014,#1015);
#813=AXIS2_PLACEMENT_3D('',#1302,#1016,#1017);
#814=AXIS2_PLACEMENT_3D('',#1303,#1018,#1019);
#815=AXIS2_PLACEMENT_3D('',#1305,#1020,#1021);
#816=AXIS2_PLACEMENT_3D('',#1307,#1022,#1023);
#817=AXIS2_PLACEMENT_3D('',#1309,#1024,#1025);
#818=AXIS2_PLACEMENT_3D('',#1310,#1026,#1027);
#819=AXIS2_PLACEMENT_3D('',#1311,#1028,#1029);
#820=AXIS2_PLACEMENT_3D('',#1312,#1030,#1031);
#821=AXIS2_PLACEMENT_3D('',#1313,#1032,#1033);
#822=AXIS2_PLACEMENT_3D('',#1314,#1034,#1035);
#823=AXIS2_PLACEMENT_3D('',#1316,#1036,#1037);
#824=AXIS2_PLACEMENT_3D('',#1318,#1038,#1039);
#825=AXIS2_PLACEMENT_3D('',#1319,#1040,#1041);
#826=AXIS2_PLACEMENT_3D('',#1320,#1042,#1043);
#827=AXIS2_PLACEMENT_3D('',#1321,#1044,#1045);
#828=AXIS2_PLACEMENT_3D('',#1322,#1046,#1047);
#829=AXIS2_PLACEMENT_3D('',#1323,#1048,#1049);
#830=AXIS2_PLACEMENT_3D('',#1324,#1050,#1051);
#831=AXIS2_PLACEMENT_3D('',#1325,#1052,#1053);
#832=AXIS2_PLACEMENT_3D('',#1326,#1054,#1055);
#833=AXIS2_PLACEMENT_3D('',#1327,#1056,#1057);
#834=AXIS2_PLACEMENT_3D('',#1328,#1058,#1059);
#835=AXIS2_PLACEMENT_3D('',#1329,#1060,#1061);
#836=AXIS2_PLACEMENT_3D('',#1330,#1062,#1063);
#837=AXIS2_PLACEMENT_3D('',#1332,#1064,#1065);
#838=AXIS2_PLACEMENT_3D('',#1334,#1066,#1067);
#839=AXIS2_PLACEMENT_3D('',#1336,#1068,#1069);
#840=AXIS2_PLACEMENT_3D('',#1338,#1070,#1071);
#841=AXIS2_PLACEMENT_3D('',#1339,#1072,#1073);
#842=AXIS2_PLACEMENT_3D('',#1340,#1074,#1075);
#843=AXIS2_PLACEMENT_3D('',#1341,#1076,#1077);
#844=AXIS2_PLACEMENT_3D('',#1342,#1078,#1079);
#845=AXIS2_PLACEMENT_3D('',#1343,#1080,#1081);
#846=AXIS2_PLACEMENT_3D('',#1344,#1082,#1083);
#847=AXIS2_PLACEMENT_3D('',#1345,#1084,#1085);
#848=AXIS2_PLACEMENT_3D('',#1346,#1086,#1087);
#849=AXIS2_PLACEMENT_3D('',#1347,#1088,#1089);
#850=AXIS2_PLACEMENT_3D('',#1348,#1090,#1091);
#851=AXIS2_PLACEMENT_3D('',#1349,#1092,#1093);
#852=AXIS2_PLACEMENT_3D('',#1351,#1094,#1095);
#853=AXIS2_PLACEMENT_3D('',#1353,#1096,#1097);
#854=AXIS2_PLACEMENT_3D('',#1354,#1098,#1099);
#855=AXIS2_PLACEMENT_3D('',#1355,#1100,#1101);
#856=AXIS2_PLACEMENT_3D('',#1356,#1102,#1103);
#857=AXIS2_PLACEMENT_3D('',#1357,#1104,#1105);
#858=AXIS2_PLACEMENT_3D('',#1358,#1106,#1107);
#859=AXIS2_PLACEMENT_3D('',#1361,#1110,#1111);
#860=AXIS2_PLACEMENT_3D('',#1362,#1112,#1113);
#861=AXIS2_PLACEMENT_3D('',#1363,#1114,#1115);
#862=AXIS2_PLACEMENT_3D('',#1364,#1116,#1117);
#863=AXIS2_PLACEMENT_3D('',#1365,#1118,#1119);
#864=AXIS2_PLACEMENT_3D('',#1366,#1120,#1121);
#865=AXIS2_PLACEMENT_3D('',#1367,#1122,#1123);
#866=AXIS2_PLACEMENT_3D('',#1368,#1124,#1125);
#867=AXIS2_PLACEMENT_3D('',#1369,#1126,#1127);
#868=AXIS2_PLACEMENT_3D('',#1370,#1128,#1129);
#869=AXIS2_PLACEMENT_3D('',#1371,#1130,#1131);
#870=AXIS2_PLACEMENT_3D('',#1372,#1132,#1133);
#871=AXIS2_PLACEMENT_3D('',#1373,#1134,#1135);
#872=AXIS2_PLACEMENT_3D('',#1374,#1136,#1137);
#873=AXIS2_PLACEMENT_3D('',#1375,#1138,#1139);
#874=AXIS2_PLACEMENT_3D('',#1376,#1140,#1141);
#875=AXIS2_PLACEMENT_3D('',#1377,#1142,#1143);
#876=AXIS2_PLACEMENT_3D('',#1378,#1144,#1145);
#877=AXIS2_PLACEMENT_3D('',#1379,#1146,#1147);
#878=AXIS2_PLACEMENT_3D('',#1380,#1148,#1149);
#879=AXIS2_PLACEMENT_3D('',#1381,#1150,#1151);
#880=DIRECTION('',(0.,0.,1.));
#881=DIRECTION('',(1.,0.,0.));
#882=DIRECTION('',(0.,1.,0.));
#883=DIRECTION('',(0.,0.,1.));
#884=DIRECTION('',(0.,1.,0.));
#885=DIRECTION('',(0.,0.,1.));
#886=DIRECTION('',(0.,1.,0.));
#887=DIRECTION('',(0.,1.,0.));
#888=DIRECTION('',(0.,0.,1.));
#889=DIRECTION('',(0.,1.,0.));
#890=DIRECTION('',(0.,1.,0.));
#891=DIRECTION('',(0.,0.,1.));
#892=DIRECTION('',(0.,1.,0.));
#893=DIRECTION('',(0.,0.,1.));
#894=DIRECTION('',(0.,1.,0.));
#895=DIRECTION('',(0.,1.,0.));
#896=DIRECTION('',(0.,0.,1.));
#897=DIRECTION('',(0.,1.,0.));
#898=DIRECTION('',(0.,1.,0.));
#899=DIRECTION('',(0.,0.,1.));
#900=DIRECTION('',(0.,1.,0.));
#901=DIRECTION('',(0.,0.,1.));
#902=DIRECTION('',(0.,1.,0.));
#903=DIRECTION('',(0.,1.,0.));
#904=DIRECTION('',(0.,0.,1.));
#905=DIRECTION('',(0.,1.,0.));
#906=DIRECTION('',(0.,1.,0.));
#907=DIRECTION('',(0.,0.,1.));
#908=DIRECTION('',(0.,1.,0.));
#909=DIRECTION('',(0.,0.,1.));
#910=DIRECTION('',(0.,1.,0.));
#911=DIRECTION('',(0.,1.,0.));
#912=DIRECTION('',(0.,0.,1.));
#913=DIRECTION('',(0.,1.,0.));
#914=DIRECTION('',(0.,1.,0.));
#915=DIRECTION('',(0.,0.,1.));
#916=DIRECTION('',(0.,1.,0.));
#917=DIRECTION('',(0.,0.,1.));
#918=DIRECTION('',(0.,1.,0.));
#919=DIRECTION('',(0.,1.,0.));
#920=DIRECTION('',(0.,0.,1.));
#921=DIRECTION('',(0.,1.,0.));
#922=DIRECTION('',(0.,1.,0.));
#923=DIRECTION('',(0.,0.,1.));
#924=DIRECTION('',(0.,1.,0.));
#925=DIRECTION('',(0.,0.,1.));
#926=DIRECTION('',(0.,1.,0.));
#927=DIRECTION('',(0.,1.,0.));
#928=DIRECTION('',(0.,0.,1.));
#929=DIRECTION('',(0.,1.,0.));
#930=DIRECTION('',(0.,1.,0.));
#931=DIRECTION('',(0.,0.,1.));
#932=DIRECTION('',(0.,1.,0.));
#933=DIRECTION('',(0.,0.,1.));
#934=DIRECTION('',(0.,1.,0.));
#935=DIRECTION('',(0.,1.,0.));
#936=DIRECTION('',(0.,0.,1.));
#937=DIRECTION('',(0.,1.,0.));
#938=DIRECTION('',(0.,1.,0.));
#939=DIRECTION('',(0.,0.,1.));
#940=DIRECTION('',(0.,1.,0.));
#941=DIRECTION('',(0.,0.,1.));
#942=DIRECTION('',(0.,1.,0.));
#943=DIRECTION('',(0.,1.,0.));
#944=DIRECTION('',(0.,0.,1.));
#945=DIRECTION('',(0.,1.,0.));
#946=DIRECTION('',(0.,1.,0.));
#947=DIRECTION('',(0.,0.,1.));
#948=DIRECTION('',(0.,1.,0.));
#949=DIRECTION('',(0.,0.,1.));
#950=DIRECTION('',(0.,1.,0.));
#951=DIRECTION('',(0.,1.,0.));
#952=DIRECTION('',(0.,0.,1.));
#953=DIRECTION('',(0.,1.,0.));
#954=DIRECTION('',(0.,1.,0.));
#955=DIRECTION('',(0.,0.,1.));
#956=DIRECTION('',(0.,1.,0.));
#957=DIRECTION('',(0.,0.,1.));
#958=DIRECTION('',(0.,1.,0.));
#959=DIRECTION('',(0.,1.,0.));
#960=DIRECTION('',(0.,0.,1.));
#961=DIRECTION('',(0.,1.,0.));
#962=DIRECTION('',(0.,1.,0.));
#963=DIRECTION('',(0.,0.,1.));
#964=DIRECTION('',(0.,1.,0.));
#965=DIRECTION('',(0.,0.,1.));
#966=DIRECTION('',(0.,1.,0.));
#967=DIRECTION('',(0.,1.,0.));
#968=DIRECTION('',(0.,0.,1.));
#969=DIRECTION('',(0.,1.,0.));
#970=DIRECTION('',(0.,1.,0.));
#971=DIRECTION('',(0.,0.,1.));
#972=DIRECTION('',(0.,1.,0.));
#973=DIRECTION('',(0.,0.,1.));
#974=DIRECTION('',(0.,1.,0.));
#975=DIRECTION('',(0.,1.,0.));
#976=DIRECTION('',(0.,0.,1.));
#977=DIRECTION('',(0.,1.,0.));
#978=DIRECTION('',(0.,1.,0.));
#979=DIRECTION('',(0.,0.,1.));
#980=DIRECTION('',(0.,1.,0.));
#981=DIRECTION('',(0.,0.,1.));
#982=DIRECTION('',(0.,1.,0.));
#983=DIRECTION('',(0.,1.,0.));
#984=DIRECTION('',(0.,0.,1.));
#985=DIRECTION('',(0.,1.,0.));
#986=DIRECTION('',(0.,1.,0.));
#987=DIRECTION('',(0.,0.,1.));
#988=DIRECTION('',(0.,1.,0.));
#989=DIRECTION('',(0.,0.,1.));
#990=DIRECTION('',(0.,1.,0.));
#991=DIRECTION('',(0.,1.,0.));
#992=DIRECTION('',(0.,0.,1.));
#993=DIRECTION('',(0.,1.,0.));
#994=DIRECTION('',(0.,1.,0.));
#995=DIRECTION('',(0.,0.,1.));
#996=DIRECTION('',(0.,1.,0.));
#997=DIRECTION('',(0.,0.,1.));
#998=DIRECTION('',(0.,1.,0.));
#999=DIRECTION('',(0.,1.,0.));
#1000=DIRECTION('',(0.,0.,1.));
#1001=DIRECTION('',(0.,1.,0.));
#1002=DIRECTION('',(0.,1.,0.));
#1003=DIRECTION('',(0.,0.,1.));
#1004=DIRECTION('',(0.,1.,0.));
#1005=DIRECTION('',(0.,0.,1.));
#1006=DIRECTION('',(0.,1.,0.));
#1007=DIRECTION('',(0.,1.,0.));
#1008=DIRECTION('',(0.,0.,1.));
#1009=DIRECTION('',(0.,1.,0.));
#1010=DIRECTION('',(0.,-1.,0.));
#1011=DIRECTION('',(0.,0.,-1.));
#1012=DIRECTION('',(0.,1.,0.));
#1013=DIRECTION('',(0.,0.,1.));
#1014=DIRECTION('',(0.,1.,0.));
#1015=DIRECTION('',(0.,0.,1.));
#1016=DIRECTION('',(0.,1.,0.));
#1017=DIRECTION('',(0.,0.,1.));
#1018=DIRECTION('',(0.,1.,0.));
#1019=DIRECTION('',(0.,0.,1.));
#1020=DIRECTION('',(0.,1.,0.));
#1021=DIRECTION('',(0.,0.,1.));
#1022=DIRECTION('',(0.,1.,0.));
#1023=DIRECTION('',(0.,0.,1.));
#1024=DIRECTION('',(0.,1.,0.));
#1025=DIRECTION('',(0.342020143325676,0.,-0.939692620785906));
#1026=DIRECTION('',(0.,1.,0.));
#1027=DIRECTION('',(0.984807753012207,0.,-0.173648177666934));
#1028=DIRECTION('',(0.,1.,0.));
#1029=DIRECTION('',(0.984807753012209,0.,0.173648177666927));
#1030=DIRECTION('',(0.,1.,0.));
#1031=DIRECTION('',(0.86602540378444,0.,0.5));
#1032=DIRECTION('',(0.,1.,0.));
#1033=DIRECTION('',(0.64278760968654,0.,0.766044443118977));
#1034=DIRECTION('',(0.,1.,0.));
#1035=DIRECTION('',(0.342020143325669,0.,0.939692620785908));
#1036=DIRECTION('',(0.,1.,0.));
#1037=DIRECTION('',(0.,0.,1.));
#1038=DIRECTION('',(0.,1.,0.));
#1039=DIRECTION('',(0.,0.,1.));
#1040=DIRECTION('',(0.,1.,0.));
#1041=DIRECTION('',(0.,0.,1.));
#1042=DIRECTION('',(0.,1.,0.));
#1043=DIRECTION('',(-0.342020143325669,0.,0.939692620785908));
#1044=DIRECTION('',(0.,1.,0.));
#1045=DIRECTION('',(-0.64278760968654,0.,0.766044443118977));
#1046=DIRECTION('',(0.,1.,0.));
#1047=DIRECTION('',(-0.86602540378444,0.,0.5));
#1048=DIRECTION('',(0.,1.,0.));
#1049=DIRECTION('',(-0.984807753012209,0.,0.173648177666927));
#1050=DIRECTION('',(0.,1.,0.));
#1051=DIRECTION('',(-0.984807753012207,0.,-0.173648177666934));
#1052=DIRECTION('',(0.,1.,0.));
#1053=DIRECTION('',(-0.866025403784436,0.,-0.5));
#1054=DIRECTION('',(0.,1.,0.));
#1055=DIRECTION('',(-0.642787609686535,0.,-0.766044443118981));
#1056=DIRECTION('',(0.,1.,0.));
#1057=DIRECTION('',(-0.342020143325663,0.,-0.93969262078591));
#1058=DIRECTION('',(0.,1.,0.));
#1059=DIRECTION('',(0.,0.,-1.));
#1060=DIRECTION('',(0.,1.,0.));
#1061=DIRECTION('',(0.,0.,1.));
#1062=DIRECTION('',(0.,1.,0.));
#1063=DIRECTION('',(0.,0.,1.));
#1064=DIRECTION('',(0.,1.,0.));
#1065=DIRECTION('',(0.,0.,1.));
#1066=DIRECTION('',(0.,1.,0.));
#1067=DIRECTION('',(0.,0.,1.));
#1068=DIRECTION('',(0.,1.,0.));
#1069=DIRECTION('',(0.,0.,1.));
#1070=DIRECTION('',(0.,1.,0.));
#1071=DIRECTION('',(0.,0.,1.));
#1072=DIRECTION('',(0.,1.,0.));
#1073=DIRECTION('',(0.,0.,1.));
#1074=DIRECTION('',(0.,1.,0.));
#1075=DIRECTION('',(0.,0.,1.));
#1076=DIRECTION('',(0.,1.,0.));
#1077=DIRECTION('',(0.,0.,1.));
#1078=DIRECTION('',(0.,1.,0.));
#1079=DIRECTION('',(0.,0.,1.));
#1080=DIRECTION('',(0.,1.,0.));
#1081=DIRECTION('',(0.,0.,1.));
#1082=DIRECTION('',(0.,1.,0.));
#1083=DIRECTION('',(0.,0.,1.));
#1084=DIRECTION('',(0.,1.,0.));
#1085=DIRECTION('',(0.,0.,1.));
#1086=DIRECTION('',(0.,1.,0.));
#1087=DIRECTION('',(0.,0.,1.));
#1088=DIRECTION('',(0.,1.,0.));
#1089=DIRECTION('',(0.,0.,1.));
#1090=DIRECTION('',(0.,1.,0.));
#1091=DIRECTION('',(0.,0.,1.));
#1092=DIRECTION('',(0.,1.,0.));
#1093=DIRECTION('',(0.,0.,1.));
#1094=DIRECTION('',(0.,1.,0.));
#1095=DIRECTION('',(0.,0.,1.));
#1096=DIRECTION('',(0.,1.,0.));
#1097=DIRECTION('',(0.,0.,1.));
#1098=DIRECTION('',(0.,1.,0.));
#1099=DIRECTION('',(0.,0.,1.));
#1100=DIRECTION('',(0.,1.,0.));
#1101=DIRECTION('',(0.,0.,1.));
#1102=DIRECTION('',(0.,1.,0.));
#1103=DIRECTION('',(0.,0.,1.));
#1104=DIRECTION('',(0.,1.,0.));
#1105=DIRECTION('',(0.,0.,1.));
#1106=DIRECTION('',(0.,1.,0.));
#1107=DIRECTION('',(0.,0.,1.));
#1108=DIRECTION('',(0.,1.,0.));
#1109=DIRECTION('',(0.,1.,0.));
#1110=DIRECTION('',(0.,1.,0.));
#1111=DIRECTION('',(0.,0.,1.));
#1112=DIRECTION('',(0.,1.,0.));
#1113=DIRECTION('',(0.,0.,1.));
#1114=DIRECTION('',(0.,1.,0.));
#1115=DIRECTION('',(0.,0.,1.));
#1116=DIRECTION('',(0.,1.,0.));
#1117=DIRECTION('',(0.,0.,1.));
#1118=DIRECTION('',(0.,1.,0.));
#1119=DIRECTION('',(0.,0.,1.));
#1120=DIRECTION('',(0.,1.,0.));
#1121=DIRECTION('',(0.,0.,1.));
#1122=DIRECTION('',(0.,1.,0.));
#1123=DIRECTION('',(0.,0.,1.));
#1124=DIRECTION('',(0.,1.,0.));
#1125=DIRECTION('',(0.,0.,1.));
#1126=DIRECTION('',(0.,1.,0.));
#1127=DIRECTION('',(0.,0.,1.));
#1128=DIRECTION('',(0.,1.,0.));
#1129=DIRECTION('',(0.,0.,1.));
#1130=DIRECTION('',(0.,1.,0.));
#1131=DIRECTION('',(0.,0.,1.));
#1132=DIRECTION('',(0.,1.,0.));
#1133=DIRECTION('',(0.,0.,1.));
#1134=DIRECTION('',(0.,1.,0.));
#1135=DIRECTION('',(0.,0.,1.));
#1136=DIRECTION('',(0.,1.,0.));
#1137=DIRECTION('',(0.,0.,1.));
#1138=DIRECTION('',(0.,1.,0.));
#1139=DIRECTION('',(0.,0.,1.));
#1140=DIRECTION('',(0.,1.,0.));
#1141=DIRECTION('',(0.,0.,1.));
#1142=DIRECTION('',(0.,1.,0.));
#1143=DIRECTION('',(0.,0.,1.));
#1144=DIRECTION('',(0.,1.,0.));
#1145=DIRECTION('',(0.,0.,1.));
#1146=DIRECTION('',(0.,1.,0.));
#1147=DIRECTION('',(0.,0.,1.));
#1148=DIRECTION('',(0.,1.,0.));
#1149=DIRECTION('',(0.,0.,1.));
#1150=DIRECTION('',(0.,1.,0.));
#1151=DIRECTION('',(0.,0.,1.));
#1152=CARTESIAN_POINT('',(0.,0.,0.));
#1153=CARTESIAN_POINT('',(0.,-1.00000000000002E-6,0.));
#1154=CARTESIAN_POINT('',(0.,0.,0.));
#1155=CARTESIAN_POINT('',(-0.0134051851851852,0.,-0.00159718820146269));
#1156=CARTESIAN_POINT('',(-0.0131430241363694,0.,-0.00308397739142346));
#1157=CARTESIAN_POINT('',(-0.0131430241363694,0.0003,-0.00308397739142346));
#1158=CARTESIAN_POINT('',(-0.0131430241363694,0.0006,-0.00308397739142346));
#1159=CARTESIAN_POINT('',(0.,0.0006,0.));
#1160=CARTESIAN_POINT('',(-0.0134051851851852,0.0006,-0.0015971882014627));
#1161=CARTESIAN_POINT('',(-0.0134051851851852,0.0003,-0.0015971882014627));
#1162=CARTESIAN_POINT('',(0.,-1.00000000000002E-6,0.));
#1163=CARTESIAN_POINT('',(0.,0.,0.));
#1164=CARTESIAN_POINT('',(-0.0131430241363695,0.,0.00308397739142328));
#1165=CARTESIAN_POINT('',(-0.0134051851851852,0.,0.00159718820146269));
#1166=CARTESIAN_POINT('',(-0.0134051851851852,0.0003,0.0015971882014627));
#1167=CARTESIAN_POINT('',(-0.0134051851851852,0.0006,0.0015971882014627));
#1168=CARTESIAN_POINT('',(0.,0.0006,0.));
#1169=CARTESIAN_POINT('',(-0.0131430241363695,0.0006,0.00308397739142328));
#1170=CARTESIAN_POINT('',(-0.0131430241363695,0.0003,0.00308397739142328));
#1171=CARTESIAN_POINT('',(0.,-1.00000000000002E-6,0.));
#1172=CARTESIAN_POINT('',(0.,0.,0.));
#1173=CARTESIAN_POINT('',(-0.0112956204063297,0.,0.00739316979624485));
#1174=CARTESIAN_POINT('',(-0.0120504830612048,0.,0.0060857093252649));
#1175=CARTESIAN_POINT('',(-0.0120504830612048,0.0003,0.00608570932526491));
#1176=CARTESIAN_POINT('',(-0.0120504830612048,0.0006,0.00608570932526491));
#1177=CARTESIAN_POINT('',(0.,0.0006,0.));
#1178=CARTESIAN_POINT('',(-0.0112956204063297,0.0006,0.00739316979624484));
#1179=CARTESIAN_POINT('',(-0.0112956204063297,0.0003,0.00739316979624484));
#1180=CARTESIAN_POINT('',(0.,-1.00000000000002E-6,0.));
#1181=CARTESIAN_POINT('',(0.,0.,0.));
#1182=CARTESIAN_POINT('',(-0.00808579814968411,0.,0.0108106368120738));
#1183=CARTESIAN_POINT('',(-0.00924231483385427,0.,0.00984020408893624));
#1184=CARTESIAN_POINT('',(-0.00924231483385426,0.0003,0.00984020408893624));
#1185=CARTESIAN_POINT('',(-0.00924231483385426,0.0006,0.00984020408893624));
#1186=CARTESIAN_POINT('',(0.,0.0006,0.));
#1187=CARTESIAN_POINT('',(-0.00808579814968412,0.0006,0.0108106368120738));
#1188=CARTESIAN_POINT('',(-0.00808579814968411,0.0003,0.0108106368120738));
#1189=CARTESIAN_POINT('',(0.,-1.00000000000002E-6,0.));
#1190=CARTESIAN_POINT('',(0.,0.,0.));
#1191=CARTESIAN_POINT('',(-0.00390070930251527,0.,0.0129241814803596));
#1192=CARTESIAN_POINT('',(-0.00531938703550118,0.,0.0124078250135365));
#1193=CARTESIAN_POINT('',(-0.00531938703550118,0.0003,0.0124078250135365));
#1194=CARTESIAN_POINT('',(-0.00531938703550118,0.0006,0.0124078250135365));
#1195=CARTESIAN_POINT('',(0.,0.0006,0.));
#1196=CARTESIAN_POINT('',(-0.00390070930251527,0.0006,0.0129241814803596));
#1197=CARTESIAN_POINT('',(-0.00390070930251527,0.0003,0.0129241814803596));
#1198=CARTESIAN_POINT('',(0.,-1.00000000000002E-6,0.));
#1199=CARTESIAN_POINT('',(0.,0.,0.));
#1200=CARTESIAN_POINT('',(0.000754862654875016,0.,0.0134788791215099));
#1201=CARTESIAN_POINT('',(-0.000754862654875107,0.,0.0134788791215099));
#1202=CARTESIAN_POINT('',(-0.000754862654875103,0.0003,0.0134788791215099));
#1203=CARTESIAN_POINT('',(-0.000754862654875103,0.0006,0.0134788791215099));
#1204=CARTESIAN_POINT('',(0.,0.0006,0.));
#1205=CARTESIAN_POINT('',(0.000754862654875012,0.0006,0.0134788791215099));
#1206=CARTESIAN_POINT('',(0.000754862654875012,0.0003,0.0134788791215099));
#1207=CARTESIAN_POINT('',(0.,-1.00000000000002E-6,0.));
#1208=CARTESIAN_POINT('',(0.,0.,0.));
#1209=CARTESIAN_POINT('',(0.0053193870355011,0.,0.0124078250135365));
#1210=CARTESIAN_POINT('',(0.00390070930251518,0.,0.0129241814803597));
#1211=CARTESIAN_POINT('',(0.00390070930251519,0.0003,0.0129241814803597));
#1212=CARTESIAN_POINT('',(0.00390070930251519,0.0006,0.0129241814803597));
#1213=CARTESIAN_POINT('',(0.,0.0006,0.));
#1214=CARTESIAN_POINT('',(0.00531938703550109,0.0006,0.0124078250135365));
#1215=CARTESIAN_POINT('',(0.00531938703550109,0.0003,0.0124078250135365));
#1216=CARTESIAN_POINT('',(0.,-1.00000000000002E-6,0.));
#1217=CARTESIAN_POINT('',(0.,0.,0.));
#1218=CARTESIAN_POINT('',(0.0092423148338542,0.,0.0098402040889363));
#1219=CARTESIAN_POINT('',(0.00808579814968404,0.,0.0108106368120738));
#1220=CARTESIAN_POINT('',(0.00808579814968404,0.0003,0.0108106368120738));
#1221=CARTESIAN_POINT('',(0.00808579814968404,0.0006,0.0108106368120738));
#1222=CARTESIAN_POINT('',(0.,0.0006,0.));
#1223=CARTESIAN_POINT('',(0.0092423148338542,0.0006,0.0098402040889363));
#1224=CARTESIAN_POINT('',(0.0092423148338542,0.0003,0.0098402040889363));
#1225=CARTESIAN_POINT('',(0.,-1.00000000000002E-6,0.));
#1226=CARTESIAN_POINT('',(0.,0.,0.));
#1227=CARTESIAN_POINT('',(0.0120504830612048,0.,0.00608570932526498));
#1228=CARTESIAN_POINT('',(0.0112956204063297,0.,0.00739316979624492));
#1229=CARTESIAN_POINT('',(0.0112956204063297,0.0003,0.00739316979624492));
#1230=CARTESIAN_POINT('',(0.0112956204063297,0.0006,0.00739316979624492));
#1231=CARTESIAN_POINT('',(0.,0.0006,0.));
#1232=CARTESIAN_POINT('',(0.0120504830612048,0.0006,0.00608570932526499));
#1233=CARTESIAN_POINT('',(0.0120504830612048,0.0003,0.00608570932526499));
#1234=CARTESIAN_POINT('',(0.,-1.00000000000002E-6,0.));
#1235=CARTESIAN_POINT('',(0.,0.,0.));
#1236=CARTESIAN_POINT('',(0.0134051851851852,0.,0.00159718820146269));
#1237=CARTESIAN_POINT('',(0.0131430241363694,0.,0.00308397739142337));
#1238=CARTESIAN_POINT('',(0.0131430241363694,0.0003,0.00308397739142337));
#1239=CARTESIAN_POINT('',(0.0131430241363694,0.0006,0.00308397739142337));
#1240=CARTESIAN_POINT('',(0.,0.0006,0.));
#1241=CARTESIAN_POINT('',(0.0134051851851852,0.0006,0.0015971882014627));
#1242=CARTESIAN_POINT('',(0.0134051851851852,0.0003,0.0015971882014627));
#1243=CARTESIAN_POINT('',(0.,-1.00000000000002E-6,0.));
#1244=CARTESIAN_POINT('',(0.,0.,0.));
#1245=CARTESIAN_POINT('',(0.0124078250135365,0.,-0.00531938703550114));
#1246=CARTESIAN_POINT('',(0.0134051851851852,0.,-0.00159718820146269));
#1247=CARTESIAN_POINT('',(0.0134051851851852,0.0003,-0.0015971882014627));
#1248=CARTESIAN_POINT('',(0.0134051851851852,0.0006,-0.0015971882014627));
#1249=CARTESIAN_POINT('',(0.,0.0006,0.));
#1250=CARTESIAN_POINT('',(0.0124078250135365,0.0006,-0.00531938703550114));
#1251=CARTESIAN_POINT('',(0.0124078250135365,0.0003,-0.00531938703550114));
#1252=CARTESIAN_POINT('',(0.,-1.00000000000002E-6,0.));
#1253=CARTESIAN_POINT('',(0.,0.0006,0.));
#1254=CARTESIAN_POINT('',(-0.00984020408893633,0.0006,-0.00924231483385416));
#1255=CARTESIAN_POINT('',(-0.0120504830612047,0.0006,-0.00608570932526507));
#1256=CARTESIAN_POINT('',(-0.0120504830612047,0.0003,-0.00608570932526507));
#1257=CARTESIAN_POINT('',(-0.0120504830612047,0.,-0.00608570932526507));
#1258=CARTESIAN_POINT('',(0.,0.,0.));
#1259=CARTESIAN_POINT('',(-0.00984020408893633,0.,-0.00924231483385416));
#1260=CARTESIAN_POINT('',(-0.00984020408893633,0.0003,-0.00924231483385416));
#1261=CARTESIAN_POINT('',(0.,-1.00000000000002E-6,0.));
#1262=CARTESIAN_POINT('',(0.,0.0006,0.));
#1263=CARTESIAN_POINT('',(-0.00608570932526503,0.0006,-0.0120504830612047));
#1264=CARTESIAN_POINT('',(-0.00739316979624496,0.0006,-0.0112956204063297));
#1265=CARTESIAN_POINT('',(-0.00739316979624496,0.0003,-0.0112956204063297));
#1266=CARTESIAN_POINT('',(-0.00739316979624496,0.,-0.0112956204063297));
#1267=CARTESIAN_POINT('',(0.,0.,0.));
#1268=CARTESIAN_POINT('',(-0.00608570932526503,0.,-0.0120504830612047));
#1269=CARTESIAN_POINT('',(-0.00608570932526503,0.0003,-0.0120504830612047));
#1270=CARTESIAN_POINT('',(0.,-1.00000000000002E-6,0.));
#1271=CARTESIAN_POINT('',(0.,0.0006,0.));
#1272=CARTESIAN_POINT('',(-0.00159718820146275,0.0006,-0.0134051851851852));
#1273=CARTESIAN_POINT('',(-0.00308397739142342,0.0006,-0.0131430241363694));
#1274=CARTESIAN_POINT('',(-0.00308397739142342,0.0003,-0.0131430241363694));
#1275=CARTESIAN_POINT('',(-0.00308397739142342,0.,-0.0131430241363694));
#1276=CARTESIAN_POINT('',(0.,0.,0.));
#1277=CARTESIAN_POINT('',(-0.00159718820146274,0.,-0.0134051851851852));
#1278=CARTESIAN_POINT('',(-0.00159718820146275,0.0003,-0.0134051851851852));
#1279=CARTESIAN_POINT('',(0.,-1.00000000000002E-6,0.));
#1280=CARTESIAN_POINT('',(0.,0.0006,0.));
#1281=CARTESIAN_POINT('',(0.00308397739142332,0.0006,-0.0131430241363694));
#1282=CARTESIAN_POINT('',(0.00159718820146264,0.0006,-0.0134051851851852));
#1283=CARTESIAN_POINT('',(0.00159718820146264,0.0003,-0.0134051851851852));
#1284=CARTESIAN_POINT('',(0.00159718820146264,0.,-0.0134051851851852));
#1285=CARTESIAN_POINT('',(0.,0.,0.));
#1286=CARTESIAN_POINT('',(0.00308397739142332,0.,-0.0131430241363694));
#1287=CARTESIAN_POINT('',(0.00308397739142332,0.0003,-0.0131430241363694));
#1288=CARTESIAN_POINT('',(0.,-1.00000000000002E-6,0.));
#1289=CARTESIAN_POINT('',(0.,0.0006,0.));
#1290=CARTESIAN_POINT('',(0.00739316979624488,0.0006,-0.0112956204063297));
#1291=CARTESIAN_POINT('',(0.00608570932526494,0.0006,-0.0120504830612048));
#1292=CARTESIAN_POINT('',(0.00608570932526494,0.0003,-0.0120504830612048));
#1293=CARTESIAN_POINT('',(0.00608570932526494,0.,-0.0120504830612048));
#1294=CARTESIAN_POINT('',(0.,0.,0.));
#1295=CARTESIAN_POINT('',(0.00739316979624487,0.,-0.0112956204063297));
#1296=CARTESIAN_POINT('',(0.00739316979624488,0.0003,-0.0112956204063297));
#1297=CARTESIAN_POINT('',(0.,0.0006,0.));
#1298=CARTESIAN_POINT('',(0.,0.000200000000000006,0.));
#1299=CARTESIAN_POINT('',(0.,0.000200000000000006,0.0175));
#1300=CARTESIAN_POINT('',(0.,0.0006,0.));
#1301=CARTESIAN_POINT('',(0.,0.0006,0.0175));
#1302=CARTESIAN_POINT('',(0.,0.0006,0.));
#1303=CARTESIAN_POINT('',(0.0158411835511407,0.0006,-0.00424463233968135));
#1304=CARTESIAN_POINT('',(0.0158411835511407,0.0006,-0.00374463233968135));
#1305=CARTESIAN_POINT('',(-0.0134340935263395,0.0006,-0.00940665355615707));
#1306=CARTESIAN_POINT('',(-0.0134340935263395,0.0006,-0.00890665355615707));
#1307=CARTESIAN_POINT('',(-0.00560913035054103,0.0006,0.0154109589808889));
#1308=CARTESIAN_POINT('',(-0.00560913035054103,0.0006,0.0159109589808889));
#1309=CARTESIAN_POINT('',(-0.0126858503806097,0.0006,-0.00461727193489662));
#1310=CARTESIAN_POINT('',(-0.00867763273076834,0.0006,-0.0103415999821062));
#1311=CARTESIAN_POINT('',(-0.00461727193489658,0.0006,-0.0126858503806097));
#1312=CARTESIAN_POINT('',(-5.11743425413158E-17,0.0006,-0.0135));
#1313=CARTESIAN_POINT('',(0.00461727193489649,0.0006,-0.0126858503806098));
#1314=CARTESIAN_POINT('',(0.00867763273076826,0.0006,-0.0103415999821062));
#1315=CARTESIAN_POINT('',(0.00984020408893627,0.0006,-0.00924231483385423));
#1316=CARTESIAN_POINT('',(0.,0.0006,0.));
#1317=CARTESIAN_POINT('',(0.0108106368120738,0.0006,-0.00808579814968408));
#1318=CARTESIAN_POINT('',(0.0116913429510899,0.0006,-0.00675));
#1319=CARTESIAN_POINT('',(0.0135,0.0006,0.));
#1320=CARTESIAN_POINT('',(0.0126858503806098,0.0006,0.00461727193489654));
#1321=CARTESIAN_POINT('',(0.0103415999821062,0.0006,0.0086776327307683));
#1322=CARTESIAN_POINT('',(0.00675,0.0006,0.0116913429510899));
#1323=CARTESIAN_POINT('',(0.00234425039850352,0.0006,0.0132949046656648));
#1324=CARTESIAN_POINT('',(-0.00234425039850361,0.0006,0.0132949046656648));
#1325=CARTESIAN_POINT('',(-0.00675,0.0006,0.0116913429510899));
#1326=CARTESIAN_POINT('',(-0.0103415999821062,0.0006,0.00867763273076823));
#1327=CARTESIAN_POINT('',(-0.0126858503806098,0.0006,0.00461727193489645));
#1328=CARTESIAN_POINT('',(-0.0135,0.0006,0.));
#1329=CARTESIAN_POINT('',(0.,0.,0.));
#1330=CARTESIAN_POINT('',(0.,0.,0.));
#1331=CARTESIAN_POINT('',(0.,0.,0.0173));
#1332=CARTESIAN_POINT('',(0.0158411835511407,0.,-0.00424463233968135));
#1333=CARTESIAN_POINT('',(0.0158411835511407,0.,-0.00374463233968135));
#1334=CARTESIAN_POINT('',(-0.0134340935263395,0.,-0.00940665355615707));
#1335=CARTESIAN_POINT('',(-0.0134340935263395,0.,-0.00890665355615707));
#1336=CARTESIAN_POINT('',(-0.00560913035054103,0.,0.0154109589808889));
#1337=CARTESIAN_POINT('',(-0.00560913035054103,0.,0.0159109589808889));
#1338=CARTESIAN_POINT('',(-0.0126858503806097,0.,-0.00461727193489662));
#1339=CARTESIAN_POINT('',(-0.0135,0.,0.));
#1340=CARTESIAN_POINT('',(-0.0126858503806098,0.,0.00461727193489645));
#1341=CARTESIAN_POINT('',(-0.0103415999821062,0.,0.00867763273076823));
#1342=CARTESIAN_POINT('',(-0.00675,0.,0.0116913429510899));
#1343=CARTESIAN_POINT('',(-0.00234425039850361,0.,0.0132949046656648));
#1344=CARTESIAN_POINT('',(0.00234425039850352,0.,0.0132949046656648));
#1345=CARTESIAN_POINT('',(0.00675,0.,0.0116913429510899));
#1346=CARTESIAN_POINT('',(0.0103415999821062,0.,0.0086776327307683));
#1347=CARTESIAN_POINT('',(0.0126858503806098,0.,0.00461727193489654));
#1348=CARTESIAN_POINT('',(0.0135,0.,0.));
#1349=CARTESIAN_POINT('',(0.0116913429510899,0.,-0.00675));
#1350=CARTESIAN_POINT('',(0.0108106368120738,0.,-0.00808579814968408));
#1351=CARTESIAN_POINT('',(0.,0.,0.));
#1352=CARTESIAN_POINT('',(0.00984020408893627,0.,-0.00924231483385423));
#1353=CARTESIAN_POINT('',(0.00867763273076826,0.,-0.0103415999821062));
#1354=CARTESIAN_POINT('',(0.00461727193489649,0.,-0.0126858503806098));
#1355=CARTESIAN_POINT('',(-5.11743425413158E-17,0.,-0.0135));
#1356=CARTESIAN_POINT('',(-0.00461727193489658,0.,-0.0126858503806097));
#1357=CARTESIAN_POINT('',(-0.00867763273076834,0.,-0.0103415999821062));
#1358=CARTESIAN_POINT('',(0.,-1.00000000000002E-6,0.));
#1359=CARTESIAN_POINT('',(0.00984020408893627,0.0003,-0.00924231483385423));
#1360=CARTESIAN_POINT('',(0.0108106368120738,0.0003,-0.00808579814968408));
#1361=CARTESIAN_POINT('',(0.0116913429510899,-1.00000000000002E-6,-0.00675));
#1362=CARTESIAN_POINT('',(0.00867763273076826,-1.00000000000002E-6,-0.0103415999821062));
#1363=CARTESIAN_POINT('',(0.00461727193489649,-1.00000000000002E-6,-0.0126858503806098));
#1364=CARTESIAN_POINT('',(-5.11743425413158E-17,-1.00000000000002E-6,-0.0135));
#1365=CARTESIAN_POINT('',(-0.00461727193489658,-1.00000000000002E-6,-0.0126858503806097));
#1366=CARTESIAN_POINT('',(-0.00867763273076834,-1.00000000000002E-6,-0.0103415999821062));
#1367=CARTESIAN_POINT('',(0.0135,-1.00000000000002E-6,0.));
#1368=CARTESIAN_POINT('',(0.0126858503806098,-1.00000000000002E-6,0.00461727193489654));
#1369=CARTESIAN_POINT('',(0.0103415999821062,-1.00000000000002E-6,0.0086776327307683));
#1370=CARTESIAN_POINT('',(0.00675,-1.00000000000002E-6,0.0116913429510899));
#1371=CARTESIAN_POINT('',(0.00234425039850352,-1.00000000000002E-6,0.0132949046656648));
#1372=CARTESIAN_POINT('',(-0.00234425039850361,-1.00000000000002E-6,0.0132949046656648));
#1373=CARTESIAN_POINT('',(-0.00675,-1.00000000000002E-6,0.0116913429510899));
#1374=CARTESIAN_POINT('',(-0.0103415999821062,-1.00000000000002E-6,0.00867763273076823));
#1375=CARTESIAN_POINT('',(-0.0126858503806098,-1.00000000000002E-6,0.00461727193489645));
#1376=CARTESIAN_POINT('',(-0.0135,-1.00000000000002E-6,0.));
#1377=CARTESIAN_POINT('',(-0.0126858503806097,-1.00000000000002E-6,-0.00461727193489662));
#1378=CARTESIAN_POINT('',(-0.00560913035054103,0.0006,0.0154109589808889));
#1379=CARTESIAN_POINT('',(-0.0134340935263395,0.0006,-0.00940665355615707));
#1380=CARTESIAN_POINT('',(0.0158411835511407,0.0006,-0.00424463233968135));
#1381=CARTESIAN_POINT('',(0.,0.000200000000000006,0.));
#1382=(
GEOMETRIC_REPRESENTATION_CONTEXT(3)
GLOBAL_UNCERTAINTY_ASSIGNED_CONTEXT((#1383))
GLOBAL_UNIT_ASSIGNED_CONTEXT((#1386,#1385,#1384))
REPRESENTATION_CONTEXT('id2','TOP_LEVEL_ASSEMBLY_PART')
);
#1383=UNCERTAINTY_MEASURE_WITH_UNIT(LENGTH_MEASURE(1.E-8),#1386,
'DISTANCE_ACCURACY_VALUE','Maximum Tolerance applied to model');
#1384=(
NAMED_UNIT(*)
SI_UNIT($,.STERADIAN.)
SOLID_ANGLE_UNIT()
);
#1385=(
NAMED_UNIT(*)
PLANE_ANGLE_UNIT()
SI_UNIT($,.RADIAN.)
);
#1386=(
LENGTH_UNIT()
NAMED_UNIT(*)
SI_UNIT($,.METRE.)
);
#1387=PRODUCT_DEFINITION_SHAPE('','',#1388);
#1388=PRODUCT_DEFINITION('','',#1390,#1389);
#1389=PRODUCT_DEFINITION_CONTEXT('',#1396,'design');
#1390=PRODUCT_DEFINITION_FORMATION_WITH_SPECIFIED_SOURCE('','',#1392,
 .NOT_KNOWN.);
#1391=PRODUCT_RELATED_PRODUCT_CATEGORY('','',(#1392));
#1392=PRODUCT('id2','id2','id2',(#1394));
#1393=PRODUCT_CATEGORY('','');
#1394=PRODUCT_CONTEXT('',#1396,'mechanical');
#1395=APPLICATION_PROTOCOL_DEFINITION('international standard',
'ap242_managed_model_based_3d_engineering',2020,#1396);
#1396=APPLICATION_CONTEXT('managed model based 3d engineering');
ENDSEC;
END-ISO-10303-21;
