ISO-10303-21;
HEADER;
/* Generated by software containing ST-Developer
 * from STEP Tools, Inc. (www.steptools.com) 
 */
/* OPTION: using custom renumber hook */

FILE_DESCRIPTION(
/* description */ ('STEP AP242 Edition 2',
'CAx-IF Rec.Pracs.---Representation and Presentation of Product Manufa
cturing Information (PMI)---4.0---2014-10-13',
'CAx-IF Rec.Pracs.---3D Tessellated Geometry---0.4---2014-09-14','2;1',
'CAx-IF Rec.Pracs.---User Defined Attributes---1.5---2016-08-15'),
/* implementation_level */ '2;1');

FILE_NAME(
/* name */ '10075',
/* time_stamp */ '2026-07-13T04:52:06Z',
/* author */ (''),
/* organization */ (''),
/* preprocessor_version */ 'ST-DEVELOPER v20',
/* originating_system */ 'ONSHAPE BY PTC INC, 1.217',
/* authorisation */ '  ');

FILE_SCHEMA (('AP242_MANAGED_MODEL_BASED_3D_ENGINEERING_MIM_LF { 1 0 10303 442 3 1 4 }'));
ENDSEC;

DATA;
#10=SHAPE_REPRESENTATION_RELATIONSHIP('','',#180,#11);
#11=ADVANCED_BREP_SHAPE_REPRESENTATION('',(#178),#312);
#12=CONICAL_SURFACE('',#202,0.0007,0.785398163397452);
#13=TOROIDAL_SURFACE('',#201,0.0002,0.0002);
#14=CYLINDRICAL_SURFACE('',#184,0.0007);
#15=CYLINDRICAL_SURFACE('',#187,0.001);
#16=CYLINDRICAL_SURFACE('',#197,0.0004);
#17=CIRCLE('',#183,0.001);
#18=CIRCLE('',#185,0.0007);
#19=CIRCLE('',#186,0.0007);
#20=CIRCLE('',#188,0.001);
#21=CIRCLE('',#189,0.001);
#22=CIRCLE('',#190,0.001);
#23=CIRCLE('',#191,0.001);
#24=CIRCLE('',#195,0.0005);
#25=CIRCLE('',#196,0.0004);
#26=CIRCLE('',#198,0.0004);
#27=CIRCLE('',#200,0.0002);
#28=ORIENTED_EDGE('',*,*,#66,.F.);
#29=ORIENTED_EDGE('',*,*,#67,.T.);
#30=ORIENTED_EDGE('',*,*,#68,.T.);
#31=ORIENTED_EDGE('',*,*,#69,.T.);
#32=ORIENTED_EDGE('',*,*,#70,.F.);
#33=ORIENTED_EDGE('',*,*,#67,.F.);
#34=ORIENTED_EDGE('',*,*,#71,.F.);
#35=ORIENTED_EDGE('',*,*,#72,.F.);
#36=ORIENTED_EDGE('',*,*,#73,.F.);
#37=ORIENTED_EDGE('',*,*,#74,.F.);
#38=ORIENTED_EDGE('',*,*,#75,.F.);
#39=ORIENTED_EDGE('',*,*,#76,.F.);
#40=ORIENTED_EDGE('',*,*,#77,.T.);
#41=ORIENTED_EDGE('',*,*,#78,.F.);
#42=ORIENTED_EDGE('',*,*,#74,.T.);
#43=ORIENTED_EDGE('',*,*,#77,.F.);
#44=ORIENTED_EDGE('',*,*,#69,.F.);
#45=ORIENTED_EDGE('',*,*,#79,.T.);
#46=ORIENTED_EDGE('',*,*,#80,.F.);
#47=ORIENTED_EDGE('',*,*,#81,.T.);
#48=ORIENTED_EDGE('',*,*,#80,.T.);
#49=ORIENTED_EDGE('',*,*,#82,.T.);
#50=ORIENTED_EDGE('',*,*,#81,.F.);
#51=ORIENTED_EDGE('',*,*,#82,.F.);
#52=ORIENTED_EDGE('',*,*,#79,.F.);
#53=ORIENTED_EDGE('',*,*,#68,.F.);
#54=ORIENTED_EDGE('',*,*,#70,.T.);
#55=ORIENTED_EDGE('',*,*,#83,.F.);
#56=ORIENTED_EDGE('',*,*,#71,.T.);
#57=ORIENTED_EDGE('',*,*,#66,.T.);
#58=ORIENTED_EDGE('',*,*,#73,.T.);
#59=ORIENTED_EDGE('',*,*,#84,.F.);
#60=ORIENTED_EDGE('',*,*,#75,.T.);
#61=ORIENTED_EDGE('',*,*,#78,.T.);
#62=ORIENTED_EDGE('',*,*,#76,.T.);
#63=ORIENTED_EDGE('',*,*,#84,.T.);
#64=ORIENTED_EDGE('',*,*,#72,.T.);
#65=ORIENTED_EDGE('',*,*,#83,.T.);
#66=EDGE_CURVE('',#85,#86,#100,.T.);
#67=EDGE_CURVE('',#85,#86,#17,.T.);
#68=EDGE_CURVE('',#87,#87,#18,.F.);
#69=EDGE_CURVE('',#88,#88,#19,.T.);
#70=EDGE_CURVE('',#86,#89,#101,.F.);
#71=EDGE_CURVE('',#90,#85,#102,.T.);
#72=EDGE_CURVE('',#91,#90,#20,.F.);
#73=EDGE_CURVE('',#92,#91,#103,.F.);
#74=EDGE_CURVE('',#93,#92,#21,.T.);
#75=EDGE_CURVE('',#94,#93,#104,.T.);
#76=EDGE_CURVE('',#89,#94,#22,.F.);
#77=EDGE_CURVE('',#95,#95,#23,.F.);
#78=EDGE_CURVE('',#93,#92,#105,.T.);
#79=EDGE_CURVE('',#96,#96,#24,.T.);
#80=EDGE_CURVE('',#97,#97,#25,.T.);
#81=EDGE_CURVE('',#98,#98,#26,.T.);
#82=EDGE_CURVE('',#99,#99,#27,.F.);
#83=EDGE_CURVE('',#90,#89,#106,.T.);
#84=EDGE_CURVE('',#94,#91,#107,.T.);
#85=VERTEX_POINT('',#267);
#86=VERTEX_POINT('',#268);
#87=VERTEX_POINT('',#272);
#88=VERTEX_POINT('',#274);
#89=VERTEX_POINT('',#277);
#90=VERTEX_POINT('',#279);
#91=VERTEX_POINT('',#281);
#92=VERTEX_POINT('',#283);
#93=VERTEX_POINT('',#285);
#94=VERTEX_POINT('',#287);
#95=VERTEX_POINT('',#290);
#96=VERTEX_POINT('',#296);
#97=VERTEX_POINT('',#298);
#98=VERTEX_POINT('',#301);
#99=VERTEX_POINT('',#304);
#100=LINE('',#266,#108);
#101=LINE('',#276,#109);
#102=LINE('',#278,#110);
#103=LINE('',#282,#111);
#104=LINE('',#286,#112);
#105=LINE('',#292,#113);
#106=LINE('',#308,#114);
#107=LINE('',#310,#115);
#108=VECTOR('',#210,1.);
#109=VECTOR('',#221,1.);
#110=VECTOR('',#222,1.);
#111=VECTOR('',#225,1.);
#112=VECTOR('',#228,1.);
#113=VECTOR('',#235,1.);
#114=VECTOR('',#258,1.);
#115=VECTOR('',#261,1.);
#116=EDGE_LOOP('',(#28,#29));
#117=EDGE_LOOP('',(#30));
#118=EDGE_LOOP('',(#31));
#119=EDGE_LOOP('',(#32,#33,#34,#35,#36,#37,#38,#39));
#120=EDGE_LOOP('',(#40));
#121=EDGE_LOOP('',(#41,#42));
#122=EDGE_LOOP('',(#43));
#123=EDGE_LOOP('',(#44));
#124=EDGE_LOOP('',(#45));
#125=EDGE_LOOP('',(#46));
#126=EDGE_LOOP('',(#47));
#127=EDGE_LOOP('',(#48));
#128=EDGE_LOOP('',(#49));
#129=EDGE_LOOP('',(#50));
#130=EDGE_LOOP('',(#51));
#131=EDGE_LOOP('',(#52));
#132=EDGE_LOOP('',(#53));
#133=EDGE_LOOP('',(#54,#55,#56,#57));
#134=EDGE_LOOP('',(#58,#59,#60,#61));
#135=EDGE_LOOP('',(#62,#63,#64,#65));
#136=FACE_BOUND('',#116,.T.);
#137=FACE_BOUND('',#117,.T.);
#138=FACE_BOUND('',#118,.T.);
#139=FACE_BOUND('',#119,.T.);
#140=FACE_BOUND('',#120,.T.);
#141=FACE_BOUND('',#121,.T.);
#142=FACE_BOUND('',#122,.T.);
#143=FACE_BOUND('',#123,.T.);
#144=FACE_BOUND('',#124,.T.);
#145=FACE_BOUND('',#125,.T.);
#146=FACE_BOUND('',#126,.T.);
#147=FACE_BOUND('',#127,.T.);
#148=FACE_BOUND('',#128,.T.);
#149=FACE_BOUND('',#129,.T.);
#150=FACE_BOUND('',#130,.T.);
#151=FACE_BOUND('',#131,.T.);
#152=FACE_BOUND('',#132,.T.);
#153=FACE_BOUND('',#133,.T.);
#154=FACE_BOUND('',#134,.T.);
#155=FACE_BOUND('',#135,.T.);
#156=PLANE('',#182);
#157=PLANE('',#192);
#158=PLANE('',#193);
#159=PLANE('',#194);
#160=PLANE('',#199);
#161=PLANE('',#203);
#162=PLANE('',#204);
#163=PLANE('',#205);
#164=ADVANCED_FACE('',(#136),#156,.T.);
#165=ADVANCED_FACE('',(#137,#138),#14,.T.);
#166=ADVANCED_FACE('',(#139,#140),#15,.T.);
#167=ADVANCED_FACE('',(#141),#157,.T.);
#168=ADVANCED_FACE('',(#142,#143),#158,.T.);
#169=ADVANCED_FACE('',(#144,#145),#159,.T.);
#170=ADVANCED_FACE('',(#146,#147),#16,.T.);
#171=ADVANCED_FACE('',(#148),#160,.F.);
#172=ADVANCED_FACE('',(#149,#150),#13,.T.);
#173=ADVANCED_FACE('',(#151,#152),#12,.T.);
#174=ADVANCED_FACE('',(#153),#161,.F.);
#175=ADVANCED_FACE('',(#154),#162,.F.);
#176=ADVANCED_FACE('',(#155),#163,.F.);
#177=CLOSED_SHELL('',(#164,#165,#166,#167,#168,#169,#170,#171,#172,#173,
#174,#175,#176));
#178=MANIFOLD_SOLID_BREP('',#177);
#179=SHAPE_DEFINITION_REPRESENTATION(#317,#180);
#180=SHAPE_REPRESENTATION('id2',(#181),#312);
#181=AXIS2_PLACEMENT_3D('',#264,#206,#207);
#182=AXIS2_PLACEMENT_3D('',#265,#208,#209);
#183=AXIS2_PLACEMENT_3D('',#269,#211,#212);
#184=AXIS2_PLACEMENT_3D('',#270,#213,#214);
#185=AXIS2_PLACEMENT_3D('',#271,#215,#216);
#186=AXIS2_PLACEMENT_3D('',#273,#217,#218);
#187=AXIS2_PLACEMENT_3D('',#275,#219,#220);
#188=AXIS2_PLACEMENT_3D('',#280,#223,#224);
#189=AXIS2_PLACEMENT_3D('',#284,#226,#227);
#190=AXIS2_PLACEMENT_3D('',#288,#229,#230);
#191=AXIS2_PLACEMENT_3D('',#289,#231,#232);
#192=AXIS2_PLACEMENT_3D('',#291,#233,#234);
#193=AXIS2_PLACEMENT_3D('',#293,#236,#237);
#194=AXIS2_PLACEMENT_3D('',#294,#238,#239);
#195=AXIS2_PLACEMENT_3D('',#295,#240,#241);
#196=AXIS2_PLACEMENT_3D('',#297,#242,#243);
#197=AXIS2_PLACEMENT_3D('',#299,#244,#245);
#198=AXIS2_PLACEMENT_3D('',#300,#246,#247);
#199=AXIS2_PLACEMENT_3D('',#302,#248,#249);
#200=AXIS2_PLACEMENT_3D('',#303,#250,#251);
#201=AXIS2_PLACEMENT_3D('',#305,#252,#253);
#202=AXIS2_PLACEMENT_3D('',#306,#254,#255);
#203=AXIS2_PLACEMENT_3D('',#307,#256,#257);
#204=AXIS2_PLACEMENT_3D('',#309,#259,#260);
#205=AXIS2_PLACEMENT_3D('',#311,#262,#263);
#206=DIRECTION('',(0.,0.,1.));
#207=DIRECTION('',(1.,0.,0.));
#208=DIRECTION('',(0.,0.,1.));
#209=DIRECTION('',(1.,0.,0.));
#210=DIRECTION('',(1.,0.,0.));
#211=DIRECTION('',(0.,0.,1.));
#212=DIRECTION('',(1.,0.,0.));
#213=DIRECTION('',(0.,0.,-1.));
#214=DIRECTION('',(-1.,0.,0.));
#215=DIRECTION('',(0.,0.,-1.));
#216=DIRECTION('',(-1.,0.,0.));
#217=DIRECTION('',(0.,0.,-1.));
#218=DIRECTION('',(-1.,0.,0.));
#219=DIRECTION('',(0.,0.,1.));
#220=DIRECTION('',(1.,0.,0.));
#221=DIRECTION('',(0.,0.,1.));
#222=DIRECTION('',(0.,0.,1.));
#223=DIRECTION('',(0.,0.,-1.));
#224=DIRECTION('',(-1.,0.,0.));
#225=DIRECTION('',(0.,0.,1.));
#226=DIRECTION('',(0.,0.,1.));
#227=DIRECTION('',(1.,0.,0.));
#228=DIRECTION('',(0.,0.,1.));
#229=DIRECTION('',(0.,0.,-1.));
#230=DIRECTION('',(-1.,0.,0.));
#231=DIRECTION('',(0.,0.,-1.));
#232=DIRECTION('',(-1.,0.,0.));
#233=DIRECTION('',(0.,0.,1.));
#234=DIRECTION('',(1.,0.,0.));
#235=DIRECTION('',(-1.,0.,0.));
#236=DIRECTION('',(0.,0.,-1.));
#237=DIRECTION('',(-1.,0.,0.));
#238=DIRECTION('',(0.,0.,-1.));
#239=DIRECTION('',(-1.,0.,0.));
#240=DIRECTION('',(0.,0.,-1.));
#241=DIRECTION('',(-1.,0.,0.));
#242=DIRECTION('',(0.,0.,-1.));
#243=DIRECTION('',(-1.,0.,0.));
#244=DIRECTION('',(0.,0.,-1.));
#245=DIRECTION('',(-1.,0.,0.));
#246=DIRECTION('',(0.,0.,1.));
#247=DIRECTION('',(1.,0.,0.));
#248=DIRECTION('',(0.,0.,1.));
#249=DIRECTION('',(1.,0.,0.));
#250=DIRECTION('',(0.,0.,1.));
#251=DIRECTION('',(1.,0.,0.));
#252=DIRECTION('',(0.,0.,1.));
#253=DIRECTION('',(1.,0.,0.));
#254=DIRECTION('',(0.,0.,1.));
#255=DIRECTION('',(1.,0.,0.));
#256=DIRECTION('',(0.,-1.,0.));
#257=DIRECTION('',(0.,0.,-1.));
#258=DIRECTION('',(1.,0.,0.));
#259=DIRECTION('',(0.,1.,0.));
#260=DIRECTION('',(0.,0.,1.));
#261=DIRECTION('',(-1.,0.,0.));
#262=DIRECTION('',(0.,0.,-1.));
#263=DIRECTION('',(-1.,0.,0.));
#264=CARTESIAN_POINT('',(0.,0.,0.));
#265=CARTESIAN_POINT('',(0.,0.,0.));
#266=CARTESIAN_POINT('',(0.,-0.0002,0.));
#267=CARTESIAN_POINT('',(-0.000979795897113271,-0.0002,0.));
#268=CARTESIAN_POINT('',(0.000979795897113271,-0.0002,0.));
#269=CARTESIAN_POINT('',(0.,0.,0.));
#270=CARTESIAN_POINT('',(0.,0.,-0.001));
#271=CARTESIAN_POINT('',(0.,0.,-0.0024));
#272=CARTESIAN_POINT('',(-0.0007,0.,-0.0024));
#273=CARTESIAN_POINT('',(0.,0.,-0.001));
#274=CARTESIAN_POINT('',(-0.0007,0.,-0.001));
#275=CARTESIAN_POINT('',(0.,0.,-0.0032));
#276=CARTESIAN_POINT('',(0.000979795897113271,-0.0002,-0.0032));
#277=CARTESIAN_POINT('',(0.000979795897113271,-0.0002,-0.0006));
#278=CARTESIAN_POINT('',(-0.000979795897113271,-0.0002,-0.0032));
#279=CARTESIAN_POINT('',(-0.000979795897113271,-0.0002,-0.0006));
#280=CARTESIAN_POINT('',(0.,0.,-0.0006));
#281=CARTESIAN_POINT('',(-0.000979795897113271,0.0002,-0.0006));
#282=CARTESIAN_POINT('',(-0.000979795897113271,0.0002,-0.0032));
#283=CARTESIAN_POINT('',(-0.000979795897113271,0.0002,0.));
#284=CARTESIAN_POINT('',(0.,0.,0.));
#285=CARTESIAN_POINT('',(0.000979795897113271,0.0002,0.));
#286=CARTESIAN_POINT('',(0.000979795897113271,0.0002,-0.0032));
#287=CARTESIAN_POINT('',(0.000979795897113271,0.0002,-0.0006));
#288=CARTESIAN_POINT('',(0.,0.,-0.0006));
#289=CARTESIAN_POINT('',(0.,0.,-0.001));
#290=CARTESIAN_POINT('',(-0.001,0.,-0.001));
#291=CARTESIAN_POINT('',(0.,0.,0.));
#292=CARTESIAN_POINT('',(0.,0.0002,0.));
#293=CARTESIAN_POINT('',(0.,0.,-0.001));
#294=CARTESIAN_POINT('',(0.,0.,-0.0026));
#295=CARTESIAN_POINT('',(0.,0.,-0.0026));
#296=CARTESIAN_POINT('',(-0.0005,0.,-0.0026));
#297=CARTESIAN_POINT('',(0.,0.,-0.0026));
#298=CARTESIAN_POINT('',(-0.0004,0.,-0.0026));
#299=CARTESIAN_POINT('',(0.,0.,-0.0026));
#300=CARTESIAN_POINT('',(0.,0.,-0.003));
#301=CARTESIAN_POINT('',(0.0004,0.,-0.003));
#302=CARTESIAN_POINT('',(0.,0.,-0.0032));
#303=CARTESIAN_POINT('',(0.,0.,-0.0032));
#304=CARTESIAN_POINT('',(0.0002,0.,-0.0032));
#305=CARTESIAN_POINT('',(0.,0.,-0.003));
#306=CARTESIAN_POINT('',(0.,0.,-0.0024));
#307=CARTESIAN_POINT('',(-0.0011,-0.0002,-0.0006));
#308=CARTESIAN_POINT('',(-0.0011,-0.0002,-0.0006));
#309=CARTESIAN_POINT('',(-0.0011,0.0002,-0.0006));
#310=CARTESIAN_POINT('',(-0.0011,0.0002,-0.0006));
#311=CARTESIAN_POINT('',(0.,0.,-0.0006));
#312=(
GEOMETRIC_REPRESENTATION_CONTEXT(3)
GLOBAL_UNCERTAINTY_ASSIGNED_CONTEXT((#313))
GLOBAL_UNIT_ASSIGNED_CONTEXT((#316,#315,#314))
REPRESENTATION_CONTEXT('id2','TOP_LEVEL_ASSEMBLY_PART')
);
#313=UNCERTAINTY_MEASURE_WITH_UNIT(LENGTH_MEASURE(1.E-8),#316,
'DISTANCE_ACCURACY_VALUE','Maximum Tolerance applied to model');
#314=(
NAMED_UNIT(*)
SI_UNIT($,.STERADIAN.)
SOLID_ANGLE_UNIT()
);
#315=(
NAMED_UNIT(*)
PLANE_ANGLE_UNIT()
SI_UNIT($,.RADIAN.)
);
#316=(
LENGTH_UNIT()
NAMED_UNIT(*)
SI_UNIT($,.METRE.)
);
#317=PRODUCT_DEFINITION_SHAPE('','',#318);
#318=PRODUCT_DEFINITION('','',#320,#319);
#319=PRODUCT_DEFINITION_CONTEXT('',#326,'design');
#320=PRODUCT_DEFINITION_FORMATION_WITH_SPECIFIED_SOURCE('','',#322,
 .NOT_KNOWN.);
#321=PRODUCT_RELATED_PRODUCT_CATEGORY('','',(#322));
#322=PRODUCT('id2','id2','id2',(#324));
#323=PRODUCT_CATEGORY('','');
#324=PRODUCT_CONTEXT('',#326,'mechanical');
#325=APPLICATION_PROTOCOL_DEFINITION('international standard',
'ap242_managed_model_based_3d_engineering',2020,#326);
#326=APPLICATION_CONTEXT('managed model based 3d engineering');
ENDSEC;
END-ISO-10303-21;
