ISO-10303-21;
HEADER;
/* Generated by software containing ST-Developer
 * from STEP Tools, Inc. (www.steptools.com) 
 */
/* OPTION: using custom renumber hook */

FILE_DESCRIPTION(
/* description */ ('STEP AP242 Edition 2',
'CAx-IF Rec.Pracs.---Representation and Presentation of Product Manufa
cturing Information (PMI)---4.0---2014-10-13',
'CAx-IF Rec.Pracs.---3D Tessellated Geometry---0.4---2014-09-14','2;1',
'CAx-IF Rec.Pracs.---User Defined Attributes---1.5---2016-08-15'),
/* implementation_level */ '2;1');

FILE_NAME(
/* name */ '10073',
/* time_stamp */ '2026-07-13T04:51:56Z',
/* author */ (''),
/* organization */ (''),
/* preprocessor_version */ 'ST-DEVELOPER v20',
/* originating_system */ 'ONSHAPE BY PTC INC, 1.217',
/* authorisation */ '  ');

FILE_SCHEMA (('AP242_MANAGED_MODEL_BASED_3D_ENGINEERING_MIM_LF { 1 0 10303 442 3 1 4 }'));
ENDSEC;

DATA;
#10=SHAPE_REPRESENTATION_RELATIONSHIP('','',#67,#11);
#11=ADVANCED_BREP_SHAPE_REPRESENTATION('',(#65),#683);
#12=B_SPLINE_CURVE_WITH_KNOTS('',3,(#650,#651,#652,#653,#654,#655,#656,
#657,#658,#659,#660,#661,#662),.UNSPECIFIED.,.F.,.F.,(4,1,1,1,1,1,1,1,1,
1,4),(0.,0.000181444116306088,0.000362888232612176,0.000544332348918265,
0.000635054407071309,0.000725776465224353,0.000771137494300875,0.000816498523377397,
0.000907220581530441,0.00108866469783653,0.00145155293044871),
 .UNSPECIFIED.);
#13=B_SPLINE_CURVE_WITH_KNOTS('',3,(#666,#667,#668,#669,#670,#671,#672,
#673,#674,#675,#676,#677,#678),.UNSPECIFIED.,.F.,.F.,(4,1,1,1,1,1,1,1,1,
1,4),(0.,0.00036799981962389,0.000551999729435835,0.000597999706888821,
0.000643999684341808,0.000689999661794794,0.00073599963924778,0.000827999594153753,
0.000919999549059725,0.00110399945887167,0.00147199927849556),
 .UNSPECIFIED.);
#14=(
BOUNDED_SURFACE()
B_SPLINE_SURFACE(3,2,((#97,#98,#99,#100,#101,#102,#103,#104,#105,#106,#107,
#108,#109,#110,#111,#112,#113,#114,#115,#116,#117,#118,#119,#120,#121,#122,
#123,#124,#125,#126,#127,#128,#129,#130,#131,#132,#133,#134,#135,#136,#137,
#138,#139,#140,#141,#142,#143,#144,#145,#146,#147,#148,#149,#150,#151,#152,
#153,#154,#155,#156,#157,#158,#159,#160,#161,#162,#163,#164,#165,#166,#167,
#168,#169,#170,#171,#172,#173,#174,#175),(#176,#177,#178,#179,#180,#181,
#182,#183,#184,#185,#186,#187,#188,#189,#190,#191,#192,#193,#194,#195,#196,
#197,#198,#199,#200,#201,#202,#203,#204,#205,#206,#207,#208,#209,#210,#211,
#212,#213,#214,#215,#216,#217,#218,#219,#220,#221,#222,#223,#224,#225,#226,
#227,#228,#229,#230,#231,#232,#233,#234,#235,#236,#237,#238,#239,#240,#241,
#242,#243,#244,#245,#246,#247,#248,#249,#250,#251,#252,#253,#254),(#255,
#256,#257,#258,#259,#260,#261,#262,#263,#264,#265,#266,#267,#268,#269,#270,
#271,#272,#273,#274,#275,#276,#277,#278,#279,#280,#281,#282,#283,#284,#285,
#286,#287,#288,#289,#290,#291,#292,#293,#294,#295,#296,#297,#298,#299,#300,
#301,#302,#303,#304,#305,#306,#307,#308,#309,#310,#311,#312,#313,#314,#315,
#316,#317,#318,#319,#320,#321,#322,#323,#324,#325,#326,#327,#328,#329,#330,
#331,#332,#333),(#334,#335,#336,#337,#338,#339,#340,#341,#342,#343,#344,
#345,#346,#347,#348,#349,#350,#351,#352,#353,#354,#355,#356,#357,#358,#359,
#360,#361,#362,#363,#364,#365,#366,#367,#368,#369,#370,#371,#372,#373,#374,
#375,#376,#377,#378,#379,#380,#381,#382,#383,#384,#385,#386,#387,#388,#389,
#390,#391,#392,#393,#394,#395,#396,#397,#398,#399,#400,#401,#402,#403,#404,
#405,#406,#407,#408,#409,#410,#411,#412),(#413,#414,#415,#416,#417,#418,
#419,#420,#421,#422,#423,#424,#425,#426,#427,#428,#429,#430,#431,#432,#433,
#434,#435,#436,#437,#438,#439,#440,#441,#442,#443,#444,#445,#446,#447,#448,
#449,#450,#451,#452,#453,#454,#455,#456,#457,#458,#459,#460,#461,#462,#463,
#464,#465,#466,#467,#468,#469,#470,#471,#472,#473,#474,#475,#476,#477,#478,
#479,#480,#481,#482,#483,#484,#485,#486,#487,#488,#489,#490,#491),(#492,
#493,#494,#495,#496,#497,#498,#499,#500,#501,#502,#503,#504,#505,#506,#507,
#508,#509,#510,#511,#512,#513,#514,#515,#516,#517,#518,#519,#520,#521,#522,
#523,#524,#525,#526,#527,#528,#529,#530,#531,#532,#533,#534,#535,#536,#537,
#538,#539,#540,#541,#542,#543,#544,#545,#546,#547,#548,#549,#550,#551,#552,
#553,#554,#555,#556,#557,#558,#559,#560,#561,#562,#563,#564,#565,#566,#567,
#568,#569,#570),(#571,#572,#573,#574,#575,#576,#577,#578,#579,#580,#581,
#582,#583,#584,#585,#586,#587,#588,#589,#590,#591,#592,#593,#594,#595,#596,
#597,#598,#599,#600,#601,#602,#603,#604,#605,#606,#607,#608,#609,#610,#611,
#612,#613,#614,#615,#616,#617,#618,#619,#620,#621,#622,#623,#624,#625,#626,
#627,#628,#629,#630,#631,#632,#633,#634,#635,#636,#637,#638,#639,#640,#641,
#642,#643,#644,#645,#646,#647,#648,#649)),.UNSPECIFIED.,.T.,.F.,.F.)
B_SPLINE_SURFACE_WITH_KNOTS((4,3,4),(3,2,2,2,2,2,2,2,2,2,2,2,2,2,2,2,2,
2,2,2,2,2,2,2,2,2,2,2,2,2,2,2,2,2,2,2,2,2,2,3),(0.,0.5,1.),(0.,0.0238095238095238,
0.0476190476190476,0.0714285714285714,0.0952380952380952,0.119047619047619,
0.142857142857143,0.166666666666667,0.19047619047619,0.214285714285714,
0.238095238095238,0.261904761904762,0.285714285714286,0.30952380952381,
0.333333333333333,0.357142857142857,0.380952380952381,0.404761904761905,
0.428571428571429,0.452380952380952,0.476190476190476,0.5,0.523809523809524,
0.547619047619048,0.571428571428571,0.595238095238095,0.619047619047619,
0.642857142857143,0.666666666666667,0.69047619047619,0.714285714285714,
0.738095238095238,0.761904761904762,0.785714285714286,0.80952380952381,
0.833333333333333,0.857142857142857,0.880952380952381,0.904761904761905,
0.928571428571429),.PIECEWISE_BEZIER_KNOTS.)
GEOMETRIC_REPRESENTATION_ITEM()
RATIONAL_B_SPLINE_SURFACE(((1.,0.866025403784439,1.,0.866025403784439,1.,
0.866025403784439,1.,0.866025403784439,1.,0.866025403784439,1.,0.866025403784439,
1.,0.866025403784439,1.,0.866025403784439,1.,0.866025403784439,1.,0.866025403784439,
1.,0.866025403784439,1.,0.866025403784439,1.,0.866025403784439,1.,0.866025403784439,
1.,0.866025403784439,1.,0.866025403784439,1.,0.866025403784439,1.,0.866025403784439,
1.,0.866025403784439,1.,0.866025403784439,1.,0.866025403784439,1.,0.866025403784439,
1.,0.866025403784439,1.,0.866025403784439,1.,0.866025403784439,1.,0.866025403784439,
1.,0.866025403784439,1.,0.866025403784439,1.,0.866025403784439,1.,0.866025403784439,
1.,0.866025403784439,1.,0.866025403784439,1.,0.866025403784439,1.,0.866025403784439,
1.,0.866025403784439,1.,0.866025403784439,1.,0.866025403784439,1.,0.866025403784439,
1.,0.866025403784439,1.),(0.333333333333333,0.288675134594813,0.333333333333333,
0.288675134594813,0.333333333333333,0.288675134594813,0.333333333333333,
0.288675134594813,0.333333333333333,0.288675134594813,0.333333333333333,
0.288675134594813,0.333333333333333,0.288675134594813,0.333333333333333,
0.288675134594813,0.333333333333333,0.288675134594813,0.333333333333333,
0.288675134594813,0.333333333333333,0.288675134594813,0.333333333333333,
0.288675134594813,0.333333333333333,0.288675134594813,0.333333333333333,
0.288675134594813,0.333333333333333,0.288675134594813,0.333333333333333,
0.288675134594813,0.333333333333333,0.288675134594813,0.333333333333333,
0.288675134594813,0.333333333333333,0.288675134594813,0.333333333333333,
0.288675134594813,0.333333333333333,0.288675134594813,0.333333333333333,
0.288675134594813,0.333333333333333,0.288675134594813,0.333333333333333,
0.288675134594813,0.333333333333333,0.288675134594813,0.333333333333333,
0.288675134594813,0.333333333333333,0.288675134594813,0.333333333333333,
0.288675134594813,0.333333333333333,0.288675134594813,0.333333333333333,
0.288675134594813,0.333333333333333,0.288675134594813,0.333333333333333,
0.288675134594813,0.333333333333333,0.288675134594813,0.333333333333333,
0.288675134594813,0.333333333333333,0.288675134594813,0.333333333333333,
0.288675134594813,0.333333333333333,0.288675134594813,0.333333333333333,
0.288675134594813,0.333333333333333,0.288675134594813,0.333333333333333),
(0.333333333333333,0.288675134594813,0.333333333333333,0.288675134594813,
0.333333333333333,0.288675134594813,0.333333333333333,0.288675134594813,
0.333333333333333,0.288675134594813,0.333333333333333,0.288675134594813,
0.333333333333333,0.288675134594813,0.333333333333333,0.288675134594813,
0.333333333333333,0.288675134594813,0.333333333333333,0.288675134594813,
0.333333333333333,0.288675134594813,0.333333333333333,0.288675134594813,
0.333333333333333,0.288675134594813,0.333333333333333,0.288675134594813,
0.333333333333333,0.288675134594813,0.333333333333333,0.288675134594813,
0.333333333333333,0.288675134594813,0.333333333333333,0.288675134594813,
0.333333333333333,0.288675134594813,0.333333333333333,0.288675134594813,
0.333333333333333,0.288675134594813,0.333333333333333,0.288675134594813,
0.333333333333333,0.288675134594813,0.333333333333333,0.288675134594813,
0.333333333333333,0.288675134594813,0.333333333333333,0.288675134594813,
0.333333333333333,0.288675134594813,0.333333333333333,0.288675134594813,
0.333333333333333,0.288675134594813,0.333333333333333,0.288675134594813,
0.333333333333333,0.288675134594813,0.333333333333333,0.288675134594813,
0.333333333333333,0.288675134594813,0.333333333333333,0.288675134594813,
0.333333333333333,0.288675134594813,0.333333333333333,0.288675134594813,
0.333333333333333,0.288675134594813,0.333333333333333,0.288675134594813,
0.333333333333333,0.288675134594813,0.333333333333333),(1.,0.866025403784439,
1.,0.866025403784439,1.,0.866025403784439,1.,0.866025403784439,1.,0.866025403784439,
1.,0.866025403784439,1.,0.866025403784439,1.,0.866025403784439,1.,0.866025403784439,
1.,0.866025403784439,1.,0.866025403784439,1.,0.866025403784439,1.,0.866025403784439,
1.,0.866025403784439,1.,0.866025403784439,1.,0.866025403784439,1.,0.866025403784439,
1.,0.866025403784439,1.,0.866025403784439,1.,0.866025403784439,1.,0.866025403784439,
1.,0.866025403784439,1.,0.866025403784439,1.,0.866025403784439,1.,0.866025403784439,
1.,0.866025403784439,1.,0.866025403784439,1.,0.866025403784439,1.,0.866025403784439,
1.,0.866025403784439,1.,0.866025403784439,1.,0.866025403784439,1.,0.866025403784439,
1.,0.866025403784439,1.,0.866025403784439,1.,0.866025403784439,1.,0.866025403784439,
1.,0.866025403784439,1.,0.866025403784439,1.),(0.333333333333333,0.288675134594813,
0.333333333333333,0.288675134594813,0.333333333333333,0.288675134594813,
0.333333333333333,0.288675134594813,0.333333333333333,0.288675134594813,
0.333333333333333,0.288675134594813,0.333333333333333,0.288675134594813,
0.333333333333333,0.288675134594813,0.333333333333333,0.288675134594813,
0.333333333333333,0.288675134594813,0.333333333333333,0.288675134594813,
0.333333333333333,0.288675134594813,0.333333333333333,0.288675134594813,
0.333333333333333,0.288675134594813,0.333333333333333,0.288675134594813,
0.333333333333333,0.288675134594813,0.333333333333333,0.288675134594813,
0.333333333333333,0.288675134594813,0.333333333333333,0.288675134594813,
0.333333333333333,0.288675134594813,0.333333333333333,0.288675134594813,
0.333333333333333,0.288675134594813,0.333333333333333,0.288675134594813,
0.333333333333333,0.288675134594813,0.333333333333333,0.288675134594813,
0.333333333333333,0.288675134594813,0.333333333333333,0.288675134594813,
0.333333333333333,0.288675134594813,0.333333333333333,0.288675134594813,
0.333333333333333,0.288675134594813,0.333333333333333,0.288675134594813,
0.333333333333333,0.288675134594813,0.333333333333333,0.288675134594813,
0.333333333333333,0.288675134594813,0.333333333333333,0.288675134594813,
0.333333333333333,0.288675134594813,0.333333333333333,0.288675134594813,
0.333333333333333,0.288675134594813,0.333333333333333,0.288675134594813,
0.333333333333333),(0.333333333333333,0.288675134594813,0.333333333333333,
0.288675134594813,0.333333333333333,0.288675134594813,0.333333333333333,
0.288675134594813,0.333333333333333,0.288675134594813,0.333333333333333,
0.288675134594813,0.333333333333333,0.288675134594813,0.333333333333333,
0.288675134594813,0.333333333333333,0.288675134594813,0.333333333333333,
0.288675134594813,0.333333333333333,0.288675134594813,0.333333333333333,
0.288675134594813,0.333333333333333,0.288675134594813,0.333333333333333,
0.288675134594813,0.333333333333333,0.288675134594813,0.333333333333333,
0.288675134594813,0.333333333333333,0.288675134594813,0.333333333333333,
0.288675134594813,0.333333333333333,0.288675134594813,0.333333333333333,
0.288675134594813,0.333333333333333,0.288675134594813,0.333333333333333,
0.288675134594813,0.333333333333333,0.288675134594813,0.333333333333333,
0.288675134594813,0.333333333333333,0.288675134594813,0.333333333333333,
0.288675134594813,0.333333333333333,0.288675134594813,0.333333333333333,
0.288675134594813,0.333333333333333,0.288675134594813,0.333333333333333,
0.288675134594813,0.333333333333333,0.288675134594813,0.333333333333333,
0.288675134594813,0.333333333333333,0.288675134594813,0.333333333333333,
0.288675134594813,0.333333333333333,0.288675134594813,0.333333333333333,
0.288675134594813,0.333333333333333,0.288675134594813,0.333333333333333,
0.288675134594813,0.333333333333333,0.288675134594813,0.333333333333333),
(1.,0.866025403784439,1.,0.866025403784439,1.,0.866025403784439,1.,0.866025403784439,
1.,0.866025403784439,1.,0.866025403784439,1.,0.866025403784439,1.,0.866025403784439,
1.,0.866025403784439,1.,0.866025403784439,1.,0.866025403784439,1.,0.866025403784439,
1.,0.866025403784439,1.,0.866025403784439,1.,0.866025403784439,1.,0.866025403784439,
1.,0.866025403784439,1.,0.866025403784439,1.,0.866025403784439,1.,0.866025403784439,
1.,0.866025403784439,1.,0.866025403784439,1.,0.866025403784439,1.,0.866025403784439,
1.,0.866025403784439,1.,0.866025403784439,1.,0.866025403784439,1.,0.866025403784439,
1.,0.866025403784439,1.,0.866025403784439,1.,0.866025403784439,1.,0.866025403784439,
1.,0.866025403784439,1.,0.866025403784439,1.,0.866025403784439,1.,0.866025403784439,
1.,0.866025403784439,1.,0.866025403784439,1.,0.866025403784439,1.)))
REPRESENTATION_ITEM('')
SURFACE()
);
#15=LINE('',#96,#17);
#16=LINE('',#680,#18);
#17=VECTOR('',#81,1.);
#18=VECTOR('',#86,1.);
#19=ORIENTED_EDGE('',*,*,#31,.T.);
#20=ORIENTED_EDGE('',*,*,#32,.T.);
#21=ORIENTED_EDGE('',*,*,#33,.F.);
#22=ORIENTED_EDGE('',*,*,#34,.T.);
#23=ORIENTED_EDGE('',*,*,#31,.F.);
#24=ORIENTED_EDGE('',*,*,#35,.T.);
#25=ORIENTED_EDGE('',*,*,#34,.F.);
#26=ORIENTED_EDGE('',*,*,#36,.T.);
#27=ORIENTED_EDGE('',*,*,#33,.T.);
#28=ORIENTED_EDGE('',*,*,#36,.F.);
#29=ORIENTED_EDGE('',*,*,#32,.F.);
#30=ORIENTED_EDGE('',*,*,#35,.F.);
#31=EDGE_CURVE('',#37,#38,#41,.T.);
#32=EDGE_CURVE('',#38,#37,#15,.T.);
#33=EDGE_CURVE('',#39,#40,#12,.T.);
#34=EDGE_CURVE('',#39,#40,#42,.T.);
#35=EDGE_CURVE('',#37,#38,#13,.T.);
#36=EDGE_CURVE('',#39,#40,#16,.T.);
#37=VERTEX_POINT('',#94);
#38=VERTEX_POINT('',#95);
#39=VERTEX_POINT('',#663);
#40=VERTEX_POINT('',#664);
#41=CIRCLE('',#70,8.5E-5);
#42=CIRCLE('',#71,8.5E-5);
#43=EDGE_LOOP('',(#19,#20));
#44=EDGE_LOOP('',(#21,#22));
#45=EDGE_LOOP('',(#23,#24));
#46=EDGE_LOOP('',(#25,#26));
#47=EDGE_LOOP('',(#27,#28));
#48=EDGE_LOOP('',(#29,#30));
#49=FACE_BOUND('',#43,.T.);
#50=FACE_BOUND('',#44,.T.);
#51=FACE_BOUND('',#45,.T.);
#52=FACE_BOUND('',#46,.T.);
#53=FACE_BOUND('',#47,.T.);
#54=FACE_BOUND('',#48,.T.);
#55=PLANE('',#69);
#56=PLANE('',#72);
#57=PLANE('',#73);
#58=PLANE('',#74);
#59=ADVANCED_FACE('',(#49),#55,.T.);
#60=ADVANCED_FACE('',(#50,#51),#14,.T.);
#61=ADVANCED_FACE('',(#52),#56,.F.);
#62=ADVANCED_FACE('',(#53),#57,.F.);
#63=ADVANCED_FACE('',(#54),#58,.T.);
#64=CLOSED_SHELL('',(#59,#60,#61,#62,#63));
#65=MANIFOLD_SOLID_BREP('',#64);
#66=SHAPE_DEFINITION_REPRESENTATION(#688,#67);
#67=SHAPE_REPRESENTATION('id2',(#68),#683);
#68=AXIS2_PLACEMENT_3D('',#91,#75,#76);
#69=AXIS2_PLACEMENT_3D('',#92,#77,#78);
#70=AXIS2_PLACEMENT_3D('',#93,#79,#80);
#71=AXIS2_PLACEMENT_3D('',#665,#82,#83);
#72=AXIS2_PLACEMENT_3D('',#679,#84,#85);
#73=AXIS2_PLACEMENT_3D('',#681,#87,#88);
#74=AXIS2_PLACEMENT_3D('',#682,#89,#90);
#75=DIRECTION('',(0.,0.,1.));
#76=DIRECTION('',(1.,0.,0.));
#77=DIRECTION('',(0.499999999999926,0.,-0.866025403784482));
#78=DIRECTION('',(-0.866025403784482,0.,-0.499999999999926));
#79=DIRECTION('',(0.499999999999926,0.,-0.866025403784482));
#80=DIRECTION('',(-0.866025403784482,0.,-0.499999999999926));
#81=DIRECTION('',(-0.866025403784482,0.,-0.499999999999926));
#82=DIRECTION('',(-0.5,0.,0.866025403784438));
#83=DIRECTION('',(0.866025403784438,0.,0.5));
#84=DIRECTION('',(-0.5,0.,0.866025403784438));
#85=DIRECTION('',(0.866025403784438,0.,0.5));
#86=DIRECTION('',(0.866025403784438,0.,0.5));
#87=DIRECTION('',(0.,-1.,0.));
#88=DIRECTION('',(-0.866025403784438,0.,-0.5));
#89=DIRECTION('',(0.,-1.,0.));
#90=DIRECTION('',(-0.866025403784438,0.,-0.5));
#91=CARTESIAN_POINT('',(0.,0.,0.));
#92=CARTESIAN_POINT('',(0.000662509433895128,-0.0037,0.000382499999999943));
#93=CARTESIAN_POINT('',(0.000662509433895128,-0.0037,0.000382499999999943));
#94=CARTESIAN_POINT('',(0.000588897274573534,-0.0037,0.0003399999999998));
#95=CARTESIAN_POINT('',(0.000736121593216863,-0.0037,0.000424999999999844));
#96=CARTESIAN_POINT('',(0.000662509433895128,-0.0037,0.000382499999999943));
#97=CARTESIAN_POINT('',(-0.000588897274573418,0.,-0.00034));
#98=CARTESIAN_POINT('',(-0.000785196366097891,-4.74358974358973E-5,-1.13841228110978E-18));
#99=CARTESIAN_POINT('',(-0.000588897274573419,-9.48717948717947E-5,0.00034));
#100=CARTESIAN_POINT('',(-0.000392598183048945,-0.000142307692307692,0.00068));
#101=CARTESIAN_POINT('',(-1.02999206386123E-18,-0.000189743589743589,0.00068));
#102=CARTESIAN_POINT('',(0.000392598183048945,-0.000237179487179487,0.000680000000000001));
#103=CARTESIAN_POINT('',(0.000588897274573418,-0.000284615384615384,0.00034));
#104=CARTESIAN_POINT('',(0.000785196366097891,-0.000332051282051281,1.30104260698261E-18));
#105=CARTESIAN_POINT('',(0.000588897274573419,-0.000379487179487179,-0.00034));
#106=CARTESIAN_POINT('',(0.000392598183048945,-0.000426923076923076,-0.00068));
#107=CARTESIAN_POINT('',(1.46367293285543E-18,-0.000474358974358973,-0.00068));
#108=CARTESIAN_POINT('',(-0.000392598183048945,-0.00052179487179487,-0.000680000000000001));
#109=CARTESIAN_POINT('',(-0.000588897274573418,-0.000569230769230768,-0.00034));
#110=CARTESIAN_POINT('',(-0.000785196366097891,-0.000616666666666666,-1.13841228110978E-18));
#111=CARTESIAN_POINT('',(-0.000588897274573419,-0.000664102564102563,0.00034));
#112=CARTESIAN_POINT('',(-0.000392598183048945,-0.00071153846153846,0.00068));
#113=CARTESIAN_POINT('',(-1.02999206386123E-18,-0.000758974358974357,0.00068));
#114=CARTESIAN_POINT('',(0.000392598183048945,-0.000806410256410255,0.000680000000000001));
#115=CARTESIAN_POINT('',(0.000588897274573418,-0.000853846153846152,0.00034));
#116=CARTESIAN_POINT('',(0.000785196366097891,-0.000901282051282049,1.30104260698261E-18));
#117=CARTESIAN_POINT('',(0.000588897274573419,-0.000948717948717947,-0.00034));
#118=CARTESIAN_POINT('',(0.000392598183048945,-0.000996153846153843,-0.00068));
#119=CARTESIAN_POINT('',(1.46367293285543E-18,-0.00104358974358974,-0.00068));
#120=CARTESIAN_POINT('',(-0.000392598183048945,-0.00109102564102564,-0.000680000000000001));
#121=CARTESIAN_POINT('',(-0.000588897274573418,-0.00113846153846154,-0.00034));
#122=CARTESIAN_POINT('',(-0.000785196366097891,-0.00118589743589744,-1.13841228110978E-18));
#123=CARTESIAN_POINT('',(-0.000588897274573419,-0.00123333333333333,0.00034));
#124=CARTESIAN_POINT('',(-0.000392598183048945,-0.00128076923076923,0.00068));
#125=CARTESIAN_POINT('',(-1.02999206386123E-18,-0.00132820512820513,0.00068));
#126=CARTESIAN_POINT('',(0.000392598183048945,-0.00137564102564103,0.000680000000000001));
#127=CARTESIAN_POINT('',(0.000588897274573418,-0.00142307692307692,0.00034));
#128=CARTESIAN_POINT('',(0.000785196366097891,-0.00147051282051282,1.30104260698261E-18));
#129=CARTESIAN_POINT('',(0.000588897274573419,-0.00151794871794871,-0.00034));
#130=CARTESIAN_POINT('',(0.000392598183048945,-0.00156538461538461,-0.00068));
#131=CARTESIAN_POINT('',(1.46367293285543E-18,-0.00161282051282051,-0.00068));
#132=CARTESIAN_POINT('',(-0.000392598183048945,-0.00166025641025641,-0.000680000000000001));
#133=CARTESIAN_POINT('',(-0.000588897274573418,-0.0017076923076923,-0.00034));
#134=CARTESIAN_POINT('',(-0.000785196366097891,-0.0017551282051282,-1.13841228110978E-18));
#135=CARTESIAN_POINT('',(-0.000588897274573419,-0.0018025641025641,0.00034));
#136=CARTESIAN_POINT('',(-0.000392598183048945,-0.00185,0.00068));
#137=CARTESIAN_POINT('',(-1.02999206386123E-18,-0.00189743589743589,0.00068));
#138=CARTESIAN_POINT('',(0.000392598183048945,-0.00194487179487179,0.000680000000000001));
#139=CARTESIAN_POINT('',(0.000588897274573418,-0.00199230769230769,0.00034));
#140=CARTESIAN_POINT('',(0.000785196366097891,-0.00203974358974359,1.30104260698261E-18));
#141=CARTESIAN_POINT('',(0.000588897274573419,-0.00208717948717948,-0.00034));
#142=CARTESIAN_POINT('',(0.000392598183048945,-0.00213461538461538,-0.00068));
#143=CARTESIAN_POINT('',(1.46367293285543E-18,-0.00218205128205128,-0.00068));
#144=CARTESIAN_POINT('',(-0.000392598183048945,-0.00222948717948717,-0.000680000000000001));
#145=CARTESIAN_POINT('',(-0.000588897274573418,-0.00227692307692307,-0.00034));
#146=CARTESIAN_POINT('',(-0.000785196366097891,-0.00232435897435897,-1.13841228110978E-18));
#147=CARTESIAN_POINT('',(-0.000588897274573419,-0.00237179487179487,0.00034));
#148=CARTESIAN_POINT('',(-0.000392598183048945,-0.00241923076923076,0.00068));
#149=CARTESIAN_POINT('',(-1.02999206386123E-18,-0.00246666666666666,0.00068));
#150=CARTESIAN_POINT('',(0.000392598183048945,-0.00251410256410256,0.000680000000000001));
#151=CARTESIAN_POINT('',(0.000588897274573418,-0.00256153846153846,0.00034));
#152=CARTESIAN_POINT('',(0.000785196366097891,-0.00260897435897435,1.30104260698261E-18));
#153=CARTESIAN_POINT('',(0.000588897274573419,-0.00265641025641025,-0.00034));
#154=CARTESIAN_POINT('',(0.000392598183048945,-0.00270384615384615,-0.00068));
#155=CARTESIAN_POINT('',(1.46367293285543E-18,-0.00275128205128204,-0.00068));
#156=CARTESIAN_POINT('',(-0.000392598183048945,-0.00279871794871794,-0.000680000000000001));
#157=CARTESIAN_POINT('',(-0.000588897274573418,-0.00284615384615384,-0.00034));
#158=CARTESIAN_POINT('',(-0.000785196366097891,-0.00289358974358973,-1.13841228110978E-18));
#159=CARTESIAN_POINT('',(-0.000588897274573419,-0.00294102564102563,0.00034));
#160=CARTESIAN_POINT('',(-0.000392598183048945,-0.00298846153846153,0.00068));
#161=CARTESIAN_POINT('',(-1.02999206386123E-18,-0.00303589743589743,0.00068));
#162=CARTESIAN_POINT('',(0.000392598183048945,-0.00308333333333332,0.000680000000000001));
#163=CARTESIAN_POINT('',(0.000588897274573418,-0.00313076923076922,0.00034));
#164=CARTESIAN_POINT('',(0.000785196366097891,-0.00317820512820512,1.30104260698261E-18));
#165=CARTESIAN_POINT('',(0.000588897274573419,-0.00322564102564102,-0.00034));
#166=CARTESIAN_POINT('',(0.000392598183048945,-0.00327307692307691,-0.00068));
#167=CARTESIAN_POINT('',(1.46367293285543E-18,-0.00332051282051281,-0.00068));
#168=CARTESIAN_POINT('',(-0.000392598183048945,-0.0033679487179487,-0.000680000000000001));
#169=CARTESIAN_POINT('',(-0.000588897274573418,-0.00341538461538461,-0.00034));
#170=CARTESIAN_POINT('',(-0.000785196366097891,-0.0034628205128205,-1.13841228110978E-18));
#171=CARTESIAN_POINT('',(-0.000588897274573419,-0.0035102564102564,0.00034));
#172=CARTESIAN_POINT('',(-0.000392598183048945,-0.0035576923076923,0.00068));
#173=CARTESIAN_POINT('',(-1.02999206386123E-18,-0.0036051282051282,0.00068));
#174=CARTESIAN_POINT('',(0.000392598183048945,-0.0036525641025641,0.000680000000000001));
#175=CARTESIAN_POINT('',(0.000588897274573418,-0.0037,0.00034));
#176=CARTESIAN_POINT('',(-0.00058889727457342,0.00017,-0.000340000000000002));
#177=CARTESIAN_POINT('',(-0.000785196366097892,0.000122564102564103,-1.13841228110978E-18));
#178=CARTESIAN_POINT('',(-0.00058889727457342,7.51282051282057E-5,0.000339999999999999));
#179=CARTESIAN_POINT('',(-0.000392598183048948,2.76923076923081E-5,0.000680000000000001));
#180=CARTESIAN_POINT('',(-1.02999206386123E-18,-1.97435897435892E-5,0.000680000000000002));
#181=CARTESIAN_POINT('',(0.000392598183048944,-6.71794871794866E-5,0.000680000000000001));
#182=CARTESIAN_POINT('',(0.00058889727457342,-0.000114615384615384,0.000340000000000002));
#183=CARTESIAN_POINT('',(0.000785196366097892,-0.000162051282051281,1.30104260698261E-18));
#184=CARTESIAN_POINT('',(0.00058889727457342,-0.000209487179487179,-0.000339999999999999));
#185=CARTESIAN_POINT('',(0.000392598183048948,-0.000256923076923076,-0.000680000000000001));
#186=CARTESIAN_POINT('',(1.46367293285543E-18,-0.000304358974358973,-0.000680000000000002));
#187=CARTESIAN_POINT('',(-0.000392598183048944,-0.00035179487179487,-0.000680000000000001));
#188=CARTESIAN_POINT('',(-0.00058889727457342,-0.000399230769230769,-0.000340000000000002));
#189=CARTESIAN_POINT('',(-0.000785196366097892,-0.000446666666666665,-1.13841228110978E-18));
#190=CARTESIAN_POINT('',(-0.00058889727457342,-0.000494102564102563,0.000339999999999999));
#191=CARTESIAN_POINT('',(-0.000392598183048948,-0.00054153846153846,0.000680000000000001));
#192=CARTESIAN_POINT('',(-1.02999206386123E-18,-0.000588974358974359,0.000680000000000002));
#193=CARTESIAN_POINT('',(0.000392598183048944,-0.000636410256410256,0.000680000000000001));
#194=CARTESIAN_POINT('',(0.00058889727457342,-0.000683846153846152,0.000340000000000002));
#195=CARTESIAN_POINT('',(0.000785196366097892,-0.000731282051282047,1.30104260698261E-18));
#196=CARTESIAN_POINT('',(0.00058889727457342,-0.000778717948717948,-0.000339999999999999));
#197=CARTESIAN_POINT('',(0.000392598183048948,-0.000826153846153843,-0.000680000000000001));
#198=CARTESIAN_POINT('',(1.46367293285543E-18,-0.000873589743589741,-0.000680000000000002));
#199=CARTESIAN_POINT('',(-0.000392598183048944,-0.000921025641025638,-0.000680000000000001));
#200=CARTESIAN_POINT('',(-0.00058889727457342,-0.000968461538461537,-0.000340000000000002));
#201=CARTESIAN_POINT('',(-0.000785196366097892,-0.00101589743589743,-1.13841228110978E-18));
#202=CARTESIAN_POINT('',(-0.00058889727457342,-0.00106333333333333,0.000339999999999999));
#203=CARTESIAN_POINT('',(-0.000392598183048948,-0.00111076923076923,0.000680000000000001));
#204=CARTESIAN_POINT('',(-1.02999206386123E-18,-0.00115820512820513,0.000680000000000002));
#205=CARTESIAN_POINT('',(0.000392598183048944,-0.00120564102564102,0.000680000000000001));
#206=CARTESIAN_POINT('',(0.00058889727457342,-0.00125307692307692,0.000340000000000002));
#207=CARTESIAN_POINT('',(0.000785196366097892,-0.00130051282051282,1.30104260698261E-18));
#208=CARTESIAN_POINT('',(0.00058889727457342,-0.00134794871794872,-0.000339999999999999));
#209=CARTESIAN_POINT('',(0.000392598183048948,-0.00139538461538461,-0.000680000000000001));
#210=CARTESIAN_POINT('',(1.46367293285543E-18,-0.00144282051282051,-0.000680000000000002));
#211=CARTESIAN_POINT('',(-0.000392598183048944,-0.00149025641025641,-0.000680000000000001));
#212=CARTESIAN_POINT('',(-0.00058889727457342,-0.0015376923076923,-0.000340000000000002));
#213=CARTESIAN_POINT('',(-0.000785196366097892,-0.0015851282051282,-1.13841228110978E-18));
#214=CARTESIAN_POINT('',(-0.00058889727457342,-0.0016325641025641,0.000339999999999999));
#215=CARTESIAN_POINT('',(-0.000392598183048948,-0.00167999999999999,0.000680000000000001));
#216=CARTESIAN_POINT('',(-1.02999206386123E-18,-0.00172743589743589,0.000680000000000002));
#217=CARTESIAN_POINT('',(0.000392598183048944,-0.00177487179487179,0.000680000000000001));
#218=CARTESIAN_POINT('',(0.00058889727457342,-0.00182230769230769,0.000340000000000002));
#219=CARTESIAN_POINT('',(0.000785196366097892,-0.00186974358974358,1.30104260698261E-18));
#220=CARTESIAN_POINT('',(0.00058889727457342,-0.00191717948717948,-0.000339999999999999));
#221=CARTESIAN_POINT('',(0.000392598183048948,-0.00196461538461538,-0.000680000000000001));
#222=CARTESIAN_POINT('',(1.46367293285543E-18,-0.00201205128205128,-0.000680000000000002));
#223=CARTESIAN_POINT('',(-0.000392598183048944,-0.00205948717948717,-0.000680000000000001));
#224=CARTESIAN_POINT('',(-0.00058889727457342,-0.00210692307692308,-0.000340000000000002));
#225=CARTESIAN_POINT('',(-0.000785196366097892,-0.00215435897435897,-1.13841228110978E-18));
#226=CARTESIAN_POINT('',(-0.00058889727457342,-0.00220179487179487,0.000339999999999999));
#227=CARTESIAN_POINT('',(-0.000392598183048948,-0.00224923076923076,0.000680000000000001));
#228=CARTESIAN_POINT('',(-1.02999206386123E-18,-0.00229666666666666,0.000680000000000002));
#229=CARTESIAN_POINT('',(0.000392598183048944,-0.00234410256410256,0.000680000000000001));
#230=CARTESIAN_POINT('',(0.00058889727457342,-0.00239153846153846,0.000340000000000002));
#231=CARTESIAN_POINT('',(0.000785196366097892,-0.00243897435897435,1.30104260698261E-18));
#232=CARTESIAN_POINT('',(0.00058889727457342,-0.00248641025641025,-0.000339999999999999));
#233=CARTESIAN_POINT('',(0.000392598183048948,-0.00253384615384615,-0.000680000000000001));
#234=CARTESIAN_POINT('',(1.46367293285543E-18,-0.00258128205128205,-0.000680000000000002));
#235=CARTESIAN_POINT('',(-0.000392598183048944,-0.00262871794871794,-0.000680000000000001));
#236=CARTESIAN_POINT('',(-0.00058889727457342,-0.00267615384615384,-0.000340000000000002));
#237=CARTESIAN_POINT('',(-0.000785196366097892,-0.00272358974358974,-1.13841228110978E-18));
#238=CARTESIAN_POINT('',(-0.00058889727457342,-0.00277102564102564,0.000339999999999999));
#239=CARTESIAN_POINT('',(-0.000392598183048948,-0.00281846153846153,0.000680000000000001));
#240=CARTESIAN_POINT('',(-1.02999206386123E-18,-0.00286589743589743,0.000680000000000002));
#241=CARTESIAN_POINT('',(0.000392598183048944,-0.00291333333333333,0.000680000000000001));
#242=CARTESIAN_POINT('',(0.00058889727457342,-0.00296076923076923,0.000340000000000002));
#243=CARTESIAN_POINT('',(0.000785196366097892,-0.00300820512820512,1.30104260698261E-18));
#244=CARTESIAN_POINT('',(0.00058889727457342,-0.00305564102564103,-0.000339999999999999));
#245=CARTESIAN_POINT('',(0.000392598183048948,-0.00310307692307692,-0.000680000000000001));
#246=CARTESIAN_POINT('',(1.46367293285543E-18,-0.00315051282051282,-0.000680000000000002));
#247=CARTESIAN_POINT('',(-0.000392598183048944,-0.00319794871794871,-0.000680000000000001));
#248=CARTESIAN_POINT('',(-0.00058889727457342,-0.00324538461538461,-0.000340000000000002));
#249=CARTESIAN_POINT('',(-0.000785196366097892,-0.0032928205128205,-1.13841228110978E-18));
#250=CARTESIAN_POINT('',(-0.00058889727457342,-0.0033402564102564,0.000339999999999999));
#251=CARTESIAN_POINT('',(-0.000392598183048948,-0.0033876923076923,0.000680000000000001));
#252=CARTESIAN_POINT('',(-1.02999206386123E-18,-0.00343512820512819,0.000680000000000002));
#253=CARTESIAN_POINT('',(0.000392598183048944,-0.00348256410256408,0.000680000000000001));
#254=CARTESIAN_POINT('',(0.00058889727457342,-0.00352999999999998,0.000340000000000002));
#255=CARTESIAN_POINT('',(-0.000736121593216774,0.00017,-0.000425000000000001));
#256=CARTESIAN_POINT('',(-0.000981495457622363,0.000122564102564103,-1.35525271560688E-18));
#257=CARTESIAN_POINT('',(-0.000736121593216774,7.51282051282057E-5,0.000424999999999998));
#258=CARTESIAN_POINT('',(-0.000490747728811183,2.76923076923081E-5,0.00085));
#259=CARTESIAN_POINT('',(-1.30104260698261E-18,-1.97435897435892E-5,0.00085));
#260=CARTESIAN_POINT('',(0.000490747728811179,-6.71794871794866E-5,0.00085));
#261=CARTESIAN_POINT('',(0.000736121593216774,-0.000114615384615384,0.000425000000000001));
#262=CARTESIAN_POINT('',(0.000981495457622363,-0.000162051282051281,1.62630325872826E-18));
#263=CARTESIAN_POINT('',(0.000736121593216774,-0.000209487179487179,-0.000424999999999998));
#264=CARTESIAN_POINT('',(0.000490747728811183,-0.000256923076923076,-0.00085));
#265=CARTESIAN_POINT('',(1.78893358460109E-18,-0.000304358974358973,-0.00085));
#266=CARTESIAN_POINT('',(-0.000490747728811179,-0.00035179487179487,-0.00085));
#267=CARTESIAN_POINT('',(-0.000736121593216774,-0.000399230769230769,-0.000425000000000001));
#268=CARTESIAN_POINT('',(-0.000981495457622363,-0.000446666666666665,-1.35525271560688E-18));
#269=CARTESIAN_POINT('',(-0.000736121593216774,-0.000494102564102563,0.000424999999999998));
#270=CARTESIAN_POINT('',(-0.000490747728811183,-0.00054153846153846,0.00085));
#271=CARTESIAN_POINT('',(-1.30104260698261E-18,-0.000588974358974359,0.00085));
#272=CARTESIAN_POINT('',(0.000490747728811179,-0.000636410256410256,0.00085));
#273=CARTESIAN_POINT('',(0.000736121593216774,-0.000683846153846152,0.000425000000000001));
#274=CARTESIAN_POINT('',(0.000981495457622363,-0.000731282051282047,1.62630325872826E-18));
#275=CARTESIAN_POINT('',(0.000736121593216774,-0.000778717948717948,-0.000424999999999998));
#276=CARTESIAN_POINT('',(0.000490747728811183,-0.000826153846153843,-0.00085));
#277=CARTESIAN_POINT('',(1.78893358460109E-18,-0.000873589743589741,-0.00085));
#278=CARTESIAN_POINT('',(-0.000490747728811179,-0.000921025641025638,-0.00085));
#279=CARTESIAN_POINT('',(-0.000736121593216774,-0.000968461538461537,-0.000425000000000001));
#280=CARTESIAN_POINT('',(-0.000981495457622363,-0.00101589743589743,-1.35525271560688E-18));
#281=CARTESIAN_POINT('',(-0.000736121593216774,-0.00106333333333333,0.000424999999999998));
#282=CARTESIAN_POINT('',(-0.000490747728811183,-0.00111076923076923,0.00085));
#283=CARTESIAN_POINT('',(-1.30104260698261E-18,-0.00115820512820513,0.00085));
#284=CARTESIAN_POINT('',(0.000490747728811179,-0.00120564102564102,0.00085));
#285=CARTESIAN_POINT('',(0.000736121593216774,-0.00125307692307692,0.000425000000000001));
#286=CARTESIAN_POINT('',(0.000981495457622363,-0.00130051282051282,1.62630325872826E-18));
#287=CARTESIAN_POINT('',(0.000736121593216774,-0.00134794871794872,-0.000424999999999998));
#288=CARTESIAN_POINT('',(0.000490747728811183,-0.00139538461538461,-0.00085));
#289=CARTESIAN_POINT('',(1.78893358460109E-18,-0.00144282051282051,-0.00085));
#290=CARTESIAN_POINT('',(-0.000490747728811179,-0.00149025641025641,-0.00085));
#291=CARTESIAN_POINT('',(-0.000736121593216774,-0.0015376923076923,-0.000425000000000001));
#292=CARTESIAN_POINT('',(-0.000981495457622363,-0.0015851282051282,-1.35525271560688E-18));
#293=CARTESIAN_POINT('',(-0.000736121593216774,-0.0016325641025641,0.000424999999999998));
#294=CARTESIAN_POINT('',(-0.000490747728811183,-0.00167999999999999,0.00085));
#295=CARTESIAN_POINT('',(-1.30104260698261E-18,-0.00172743589743589,0.00085));
#296=CARTESIAN_POINT('',(0.000490747728811179,-0.00177487179487179,0.00085));
#297=CARTESIAN_POINT('',(0.000736121593216774,-0.00182230769230769,0.000425000000000001));
#298=CARTESIAN_POINT('',(0.000981495457622363,-0.00186974358974358,1.62630325872826E-18));
#299=CARTESIAN_POINT('',(0.000736121593216774,-0.00191717948717948,-0.000424999999999998));
#300=CARTESIAN_POINT('',(0.000490747728811183,-0.00196461538461538,-0.00085));
#301=CARTESIAN_POINT('',(1.78893358460109E-18,-0.00201205128205128,-0.00085));
#302=CARTESIAN_POINT('',(-0.000490747728811179,-0.00205948717948717,-0.00085));
#303=CARTESIAN_POINT('',(-0.000736121593216774,-0.00210692307692308,-0.000425000000000001));
#304=CARTESIAN_POINT('',(-0.000981495457622363,-0.00215435897435897,-1.35525271560688E-18));
#305=CARTESIAN_POINT('',(-0.000736121593216774,-0.00220179487179487,0.000424999999999998));
#306=CARTESIAN_POINT('',(-0.000490747728811183,-0.00224923076923076,0.00085));
#307=CARTESIAN_POINT('',(-1.30104260698261E-18,-0.00229666666666666,0.00085));
#308=CARTESIAN_POINT('',(0.000490747728811179,-0.00234410256410256,0.00085));
#309=CARTESIAN_POINT('',(0.000736121593216774,-0.00239153846153846,0.000425000000000001));
#310=CARTESIAN_POINT('',(0.000981495457622363,-0.00243897435897435,1.62630325872826E-18));
#311=CARTESIAN_POINT('',(0.000736121593216774,-0.00248641025641025,-0.000424999999999998));
#312=CARTESIAN_POINT('',(0.000490747728811183,-0.00253384615384615,-0.00085));
#313=CARTESIAN_POINT('',(1.78893358460109E-18,-0.00258128205128205,-0.00085));
#314=CARTESIAN_POINT('',(-0.000490747728811179,-0.00262871794871794,-0.00085));
#315=CARTESIAN_POINT('',(-0.000736121593216774,-0.00267615384615384,-0.000425000000000001));
#316=CARTESIAN_POINT('',(-0.000981495457622363,-0.00272358974358974,-1.35525271560688E-18));
#317=CARTESIAN_POINT('',(-0.000736121593216774,-0.00277102564102564,0.000424999999999998));
#318=CARTESIAN_POINT('',(-0.000490747728811183,-0.00281846153846153,0.00085));
#319=CARTESIAN_POINT('',(-1.30104260698261E-18,-0.00286589743589743,0.00085));
#320=CARTESIAN_POINT('',(0.000490747728811179,-0.00291333333333333,0.00085));
#321=CARTESIAN_POINT('',(0.000736121593216774,-0.00296076923076923,0.000425000000000001));
#322=CARTESIAN_POINT('',(0.000981495457622363,-0.00300820512820512,1.62630325872826E-18));
#323=CARTESIAN_POINT('',(0.000736121593216774,-0.00305564102564103,-0.000424999999999998));
#324=CARTESIAN_POINT('',(0.000490747728811183,-0.00310307692307692,-0.00085));
#325=CARTESIAN_POINT('',(1.78893358460109E-18,-0.00315051282051282,-0.00085));
#326=CARTESIAN_POINT('',(-0.000490747728811179,-0.00319794871794871,-0.00085));
#327=CARTESIAN_POINT('',(-0.000736121593216774,-0.00324538461538461,-0.000425000000000001));
#328=CARTESIAN_POINT('',(-0.000981495457622363,-0.0032928205128205,-1.35525271560688E-18));
#329=CARTESIAN_POINT('',(-0.000736121593216774,-0.0033402564102564,0.000424999999999998));
#330=CARTESIAN_POINT('',(-0.000490747728811183,-0.0033876923076923,0.00085));
#331=CARTESIAN_POINT('',(-1.30104260698261E-18,-0.00343512820512819,0.00085));
#332=CARTESIAN_POINT('',(0.000490747728811179,-0.00348256410256408,0.00085));
#333=CARTESIAN_POINT('',(0.000736121593216774,-0.00352999999999998,0.000425000000000001));
#334=CARTESIAN_POINT('',(-0.000736121593216772,1.04094977927525E-20,-0.000425));
#335=CARTESIAN_POINT('',(-0.000981495457622363,-4.74358974358973E-5,-1.35525271560688E-18));
#336=CARTESIAN_POINT('',(-0.000736121593216774,-9.48717948717946E-5,0.000425));
#337=CARTESIAN_POINT('',(-0.000490747728811182,-0.000142307692307692,0.000849999999999999));
#338=CARTESIAN_POINT('',(-1.30104260698261E-18,-0.000189743589743589,0.00085));
#339=CARTESIAN_POINT('',(0.000490747728811182,-0.000237179487179487,0.000850000000000001));
#340=CARTESIAN_POINT('',(0.000736121593216772,-0.000284615384615384,0.000425));
#341=CARTESIAN_POINT('',(0.000981495457622363,-0.000332051282051281,1.62630325872826E-18));
#342=CARTESIAN_POINT('',(0.000736121593216774,-0.000379487179487179,-0.000425));
#343=CARTESIAN_POINT('',(0.000490747728811182,-0.000426923076923076,-0.000849999999999999));
#344=CARTESIAN_POINT('',(1.78893358460108E-18,-0.000474358974358973,-0.00085));
#345=CARTESIAN_POINT('',(-0.000490747728811182,-0.00052179487179487,-0.000850000000000001));
#346=CARTESIAN_POINT('',(-0.000736121593216772,-0.000569230769230768,-0.000425));
#347=CARTESIAN_POINT('',(-0.000981495457622363,-0.000616666666666666,-1.35525271560688E-18));
#348=CARTESIAN_POINT('',(-0.000736121593216774,-0.000664102564102563,0.000425));
#349=CARTESIAN_POINT('',(-0.000490747728811182,-0.00071153846153846,0.000849999999999999));
#350=CARTESIAN_POINT('',(-1.30104260698261E-18,-0.000758974358974357,0.00085));
#351=CARTESIAN_POINT('',(0.000490747728811182,-0.000806410256410255,0.000850000000000001));
#352=CARTESIAN_POINT('',(0.000736121593216772,-0.000853846153846152,0.000425));
#353=CARTESIAN_POINT('',(0.000981495457622363,-0.000901282051282049,1.62630325872826E-18));
#354=CARTESIAN_POINT('',(0.000736121593216774,-0.000948717948717947,-0.000425));
#355=CARTESIAN_POINT('',(0.000490747728811182,-0.000996153846153843,-0.000849999999999999));
#356=CARTESIAN_POINT('',(1.78893358460108E-18,-0.00104358974358974,-0.00085));
#357=CARTESIAN_POINT('',(-0.000490747728811182,-0.00109102564102564,-0.000850000000000001));
#358=CARTESIAN_POINT('',(-0.000736121593216772,-0.00113846153846154,-0.000425));
#359=CARTESIAN_POINT('',(-0.000981495457622363,-0.00118589743589744,-1.35525271560688E-18));
#360=CARTESIAN_POINT('',(-0.000736121593216774,-0.00123333333333333,0.000425));
#361=CARTESIAN_POINT('',(-0.000490747728811182,-0.00128076923076923,0.000849999999999999));
#362=CARTESIAN_POINT('',(-1.30104260698261E-18,-0.00132820512820513,0.00085));
#363=CARTESIAN_POINT('',(0.000490747728811182,-0.00137564102564103,0.000850000000000001));
#364=CARTESIAN_POINT('',(0.000736121593216772,-0.00142307692307692,0.000425));
#365=CARTESIAN_POINT('',(0.000981495457622363,-0.00147051282051282,1.62630325872826E-18));
#366=CARTESIAN_POINT('',(0.000736121593216774,-0.00151794871794871,-0.000425));
#367=CARTESIAN_POINT('',(0.000490747728811182,-0.00156538461538461,-0.000849999999999999));
#368=CARTESIAN_POINT('',(1.78893358460108E-18,-0.00161282051282051,-0.00085));
#369=CARTESIAN_POINT('',(-0.000490747728811182,-0.00166025641025641,-0.000850000000000001));
#370=CARTESIAN_POINT('',(-0.000736121593216772,-0.0017076923076923,-0.000425));
#371=CARTESIAN_POINT('',(-0.000981495457622363,-0.0017551282051282,-1.35525271560688E-18));
#372=CARTESIAN_POINT('',(-0.000736121593216774,-0.0018025641025641,0.000425));
#373=CARTESIAN_POINT('',(-0.000490747728811182,-0.00185,0.000849999999999999));
#374=CARTESIAN_POINT('',(-1.30104260698261E-18,-0.00189743589743589,0.00085));
#375=CARTESIAN_POINT('',(0.000490747728811182,-0.00194487179487179,0.000850000000000001));
#376=CARTESIAN_POINT('',(0.000736121593216772,-0.00199230769230769,0.000425));
#377=CARTESIAN_POINT('',(0.000981495457622363,-0.00203974358974359,1.62630325872826E-18));
#378=CARTESIAN_POINT('',(0.000736121593216774,-0.00208717948717948,-0.000425));
#379=CARTESIAN_POINT('',(0.000490747728811182,-0.00213461538461538,-0.000849999999999999));
#380=CARTESIAN_POINT('',(1.78893358460108E-18,-0.00218205128205128,-0.00085));
#381=CARTESIAN_POINT('',(-0.000490747728811182,-0.00222948717948717,-0.000850000000000001));
#382=CARTESIAN_POINT('',(-0.000736121593216772,-0.00227692307692307,-0.000425));
#383=CARTESIAN_POINT('',(-0.000981495457622363,-0.00232435897435897,-1.35525271560688E-18));
#384=CARTESIAN_POINT('',(-0.000736121593216774,-0.00237179487179487,0.000425));
#385=CARTESIAN_POINT('',(-0.000490747728811182,-0.00241923076923076,0.000849999999999999));
#386=CARTESIAN_POINT('',(-1.30104260698261E-18,-0.00246666666666666,0.00085));
#387=CARTESIAN_POINT('',(0.000490747728811182,-0.00251410256410256,0.000850000000000001));
#388=CARTESIAN_POINT('',(0.000736121593216772,-0.00256153846153846,0.000425));
#389=CARTESIAN_POINT('',(0.000981495457622363,-0.00260897435897435,1.62630325872826E-18));
#390=CARTESIAN_POINT('',(0.000736121593216774,-0.00265641025641025,-0.000425));
#391=CARTESIAN_POINT('',(0.000490747728811182,-0.00270384615384615,-0.000849999999999999));
#392=CARTESIAN_POINT('',(1.78893358460108E-18,-0.00275128205128204,-0.00085));
#393=CARTESIAN_POINT('',(-0.000490747728811182,-0.00279871794871794,-0.000850000000000001));
#394=CARTESIAN_POINT('',(-0.000736121593216772,-0.00284615384615384,-0.000425));
#395=CARTESIAN_POINT('',(-0.000981495457622363,-0.00289358974358973,-1.35525271560688E-18));
#396=CARTESIAN_POINT('',(-0.000736121593216774,-0.00294102564102563,0.000425));
#397=CARTESIAN_POINT('',(-0.000490747728811182,-0.00298846153846153,0.000849999999999999));
#398=CARTESIAN_POINT('',(-1.30104260698261E-18,-0.00303589743589743,0.00085));
#399=CARTESIAN_POINT('',(0.000490747728811182,-0.00308333333333332,0.000850000000000001));
#400=CARTESIAN_POINT('',(0.000736121593216772,-0.00313076923076922,0.000425));
#401=CARTESIAN_POINT('',(0.000981495457622363,-0.00317820512820512,1.62630325872826E-18));
#402=CARTESIAN_POINT('',(0.000736121593216774,-0.00322564102564102,-0.000425));
#403=CARTESIAN_POINT('',(0.000490747728811182,-0.00327307692307691,-0.000849999999999999));
#404=CARTESIAN_POINT('',(1.78893358460108E-18,-0.00332051282051281,-0.00085));
#405=CARTESIAN_POINT('',(-0.000490747728811182,-0.0033679487179487,-0.000850000000000001));
#406=CARTESIAN_POINT('',(-0.000736121593216772,-0.00341538461538461,-0.000425));
#407=CARTESIAN_POINT('',(-0.000981495457622363,-0.0034628205128205,-1.35525271560688E-18));
#408=CARTESIAN_POINT('',(-0.000736121593216774,-0.0035102564102564,0.000425));
#409=CARTESIAN_POINT('',(-0.000490747728811182,-0.0035576923076923,0.000849999999999999));
#410=CARTESIAN_POINT('',(-1.30104260698261E-18,-0.0036051282051282,0.00085));
#411=CARTESIAN_POINT('',(0.000490747728811182,-0.0036525641025641,0.000850000000000001));
#412=CARTESIAN_POINT('',(0.000736121593216772,-0.0037,0.000425));
#413=CARTESIAN_POINT('',(-0.000736121593216774,-0.00017,-0.000425000000000001));
#414=CARTESIAN_POINT('',(-0.000981495457622363,-0.000217435897435898,-1.35525271560688E-18));
#415=CARTESIAN_POINT('',(-0.000736121593216774,-0.000264871794871795,0.000424999999999998));
#416=CARTESIAN_POINT('',(-0.000490747728811183,-0.000312307692307692,0.00085));
#417=CARTESIAN_POINT('',(-1.30104260698261E-18,-0.00035974358974359,0.00085));
#418=CARTESIAN_POINT('',(0.000490747728811179,-0.000407179487179486,0.00085));
#419=CARTESIAN_POINT('',(0.000736121593216774,-0.000454615384615383,0.000425000000000001));
#420=CARTESIAN_POINT('',(0.000981495457622363,-0.000502051282051281,1.62630325872826E-18));
#421=CARTESIAN_POINT('',(0.000736121593216774,-0.00054948717948718,-0.000424999999999998));
#422=CARTESIAN_POINT('',(0.000490747728811183,-0.000596923076923076,-0.00085));
#423=CARTESIAN_POINT('',(1.78893358460109E-18,-0.000644358974358976,-0.00085));
#424=CARTESIAN_POINT('',(-0.000490747728811179,-0.000691794871794872,-0.00085));
#425=CARTESIAN_POINT('',(-0.000736121593216774,-0.000739230769230769,-0.000425000000000001));
#426=CARTESIAN_POINT('',(-0.000981495457622363,-0.000786666666666664,-1.35525271560688E-18));
#427=CARTESIAN_POINT('',(-0.000736121593216774,-0.000834102564102565,0.000424999999999998));
#428=CARTESIAN_POINT('',(-0.000490747728811183,-0.000881538461538459,0.00085));
#429=CARTESIAN_POINT('',(-1.30104260698261E-18,-0.000928974358974358,0.00085));
#430=CARTESIAN_POINT('',(0.000490747728811179,-0.000976410256410254,0.00085));
#431=CARTESIAN_POINT('',(0.000736121593216774,-0.00102384615384615,0.000425000000000001));
#432=CARTESIAN_POINT('',(0.000981495457622363,-0.00107128205128205,1.62630325872826E-18));
#433=CARTESIAN_POINT('',(0.000736121593216774,-0.00111871794871795,-0.000424999999999998));
#434=CARTESIAN_POINT('',(0.000490747728811183,-0.00116615384615384,-0.00085));
#435=CARTESIAN_POINT('',(1.78893358460109E-18,-0.00121358974358974,-0.00085));
#436=CARTESIAN_POINT('',(-0.000490747728811179,-0.00126102564102564,-0.00085));
#437=CARTESIAN_POINT('',(-0.000736121593216774,-0.00130846153846154,-0.000425000000000001));
#438=CARTESIAN_POINT('',(-0.000981495457622363,-0.00135589743589743,-1.35525271560688E-18));
#439=CARTESIAN_POINT('',(-0.000736121593216774,-0.00140333333333333,0.000424999999999998));
#440=CARTESIAN_POINT('',(-0.000490747728811183,-0.00145076923076923,0.00085));
#441=CARTESIAN_POINT('',(-1.30104260698261E-18,-0.00149820512820513,0.00085));
#442=CARTESIAN_POINT('',(0.000490747728811179,-0.00154564102564102,0.00085));
#443=CARTESIAN_POINT('',(0.000736121593216774,-0.00159307692307692,0.000425000000000001));
#444=CARTESIAN_POINT('',(0.000981495457622363,-0.00164051282051282,1.62630325872826E-18));
#445=CARTESIAN_POINT('',(0.000736121593216774,-0.00168794871794872,-0.000424999999999998));
#446=CARTESIAN_POINT('',(0.000490747728811183,-0.00173538461538461,-0.00085));
#447=CARTESIAN_POINT('',(1.78893358460109E-18,-0.00178282051282051,-0.00085));
#448=CARTESIAN_POINT('',(-0.000490747728811179,-0.00183025641025641,-0.00085));
#449=CARTESIAN_POINT('',(-0.000736121593216774,-0.00187769230769231,-0.000425000000000001));
#450=CARTESIAN_POINT('',(-0.000981495457622363,-0.0019251282051282,-1.35525271560688E-18));
#451=CARTESIAN_POINT('',(-0.000736121593216774,-0.0019725641025641,0.000424999999999998));
#452=CARTESIAN_POINT('',(-0.000490747728811183,-0.00202,0.00085));
#453=CARTESIAN_POINT('',(-1.30104260698261E-18,-0.0020674358974359,0.00085));
#454=CARTESIAN_POINT('',(0.000490747728811179,-0.00211487179487179,0.00085));
#455=CARTESIAN_POINT('',(0.000736121593216774,-0.00216230769230769,0.000425000000000001));
#456=CARTESIAN_POINT('',(0.000981495457622363,-0.00220974358974359,1.62630325872826E-18));
#457=CARTESIAN_POINT('',(0.000736121593216774,-0.00225717948717949,-0.000424999999999998));
#458=CARTESIAN_POINT('',(0.000490747728811183,-0.00230461538461538,-0.00085));
#459=CARTESIAN_POINT('',(1.78893358460109E-18,-0.00235205128205128,-0.00085));
#460=CARTESIAN_POINT('',(-0.000490747728811179,-0.00239948717948717,-0.00085));
#461=CARTESIAN_POINT('',(-0.000736121593216774,-0.00244692307692307,-0.000425000000000001));
#462=CARTESIAN_POINT('',(-0.000981495457622363,-0.00249435897435897,-1.35525271560688E-18));
#463=CARTESIAN_POINT('',(-0.000736121593216774,-0.00254179487179487,0.000424999999999998));
#464=CARTESIAN_POINT('',(-0.000490747728811183,-0.00258923076923076,0.00085));
#465=CARTESIAN_POINT('',(-1.30104260698261E-18,-0.00263666666666666,0.00085));
#466=CARTESIAN_POINT('',(0.000490747728811179,-0.00268410256410256,0.00085));
#467=CARTESIAN_POINT('',(0.000736121593216774,-0.00273153846153846,0.000425000000000001));
#468=CARTESIAN_POINT('',(0.000981495457622363,-0.00277897435897435,1.62630325872826E-18));
#469=CARTESIAN_POINT('',(0.000736121593216774,-0.00282641025641025,-0.000424999999999998));
#470=CARTESIAN_POINT('',(0.000490747728811183,-0.00287384615384615,-0.00085));
#471=CARTESIAN_POINT('',(1.78893358460109E-18,-0.00292128205128205,-0.00085));
#472=CARTESIAN_POINT('',(-0.000490747728811179,-0.00296871794871794,-0.00085));
#473=CARTESIAN_POINT('',(-0.000736121593216774,-0.00301615384615383,-0.000425000000000001));
#474=CARTESIAN_POINT('',(-0.000981495457622363,-0.00306358974358974,-1.35525271560688E-18));
#475=CARTESIAN_POINT('',(-0.000736121593216774,-0.00311102564102562,0.000424999999999998));
#476=CARTESIAN_POINT('',(-0.000490747728811183,-0.00315846153846153,0.00085));
#477=CARTESIAN_POINT('',(-1.30104260698261E-18,-0.00320589743589744,0.00085));
#478=CARTESIAN_POINT('',(0.000490747728811179,-0.00325333333333332,0.00085));
#479=CARTESIAN_POINT('',(0.000736121593216774,-0.00330076923076923,0.000425000000000001));
#480=CARTESIAN_POINT('',(0.000981495457622363,-0.00334820512820512,1.62630325872826E-18));
#481=CARTESIAN_POINT('',(0.000736121593216774,-0.00339564102564102,-0.000424999999999998));
#482=CARTESIAN_POINT('',(0.000490747728811183,-0.00344307692307692,-0.00085));
#483=CARTESIAN_POINT('',(1.78893358460109E-18,-0.00349051282051281,-0.00085));
#484=CARTESIAN_POINT('',(-0.000490747728811179,-0.00353794871794871,-0.00085));
#485=CARTESIAN_POINT('',(-0.000736121593216774,-0.0035853846153846,-0.000425000000000001));
#486=CARTESIAN_POINT('',(-0.000981495457622363,-0.00363282051282052,-1.35525271560688E-18));
#487=CARTESIAN_POINT('',(-0.000736121593216774,-0.00368025641025639,0.000424999999999998));
#488=CARTESIAN_POINT('',(-0.000490747728811183,-0.00372769230769229,0.00085));
#489=CARTESIAN_POINT('',(-1.30104260698261E-18,-0.00377512820512821,0.00085));
#490=CARTESIAN_POINT('',(0.000490747728811179,-0.00382256410256409,0.00085));
#491=CARTESIAN_POINT('',(0.000736121593216774,-0.00387,0.000425000000000001));
#492=CARTESIAN_POINT('',(-0.00058889727457342,-0.00017,-0.000340000000000002));
#493=CARTESIAN_POINT('',(-0.000785196366097892,-0.000217435897435898,-1.13841228110978E-18));
#494=CARTESIAN_POINT('',(-0.00058889727457342,-0.000264871794871795,0.000339999999999999));
#495=CARTESIAN_POINT('',(-0.000392598183048948,-0.000312307692307692,0.000680000000000001));
#496=CARTESIAN_POINT('',(-1.02999206386123E-18,-0.00035974358974359,0.000680000000000002));
#497=CARTESIAN_POINT('',(0.000392598183048944,-0.000407179487179486,0.000680000000000001));
#498=CARTESIAN_POINT('',(0.00058889727457342,-0.000454615384615383,0.000340000000000002));
#499=CARTESIAN_POINT('',(0.000785196366097892,-0.000502051282051281,1.30104260698261E-18));
#500=CARTESIAN_POINT('',(0.00058889727457342,-0.00054948717948718,-0.000339999999999999));
#501=CARTESIAN_POINT('',(0.000392598183048948,-0.000596923076923076,-0.000680000000000001));
#502=CARTESIAN_POINT('',(1.46367293285543E-18,-0.000644358974358976,-0.000680000000000002));
#503=CARTESIAN_POINT('',(-0.000392598183048944,-0.000691794871794872,-0.000680000000000001));
#504=CARTESIAN_POINT('',(-0.00058889727457342,-0.000739230769230769,-0.000340000000000002));
#505=CARTESIAN_POINT('',(-0.000785196366097892,-0.000786666666666664,-1.13841228110978E-18));
#506=CARTESIAN_POINT('',(-0.00058889727457342,-0.000834102564102565,0.000339999999999999));
#507=CARTESIAN_POINT('',(-0.000392598183048948,-0.000881538461538459,0.000680000000000001));
#508=CARTESIAN_POINT('',(-1.02999206386123E-18,-0.000928974358974358,0.000680000000000002));
#509=CARTESIAN_POINT('',(0.000392598183048944,-0.000976410256410254,0.000680000000000001));
#510=CARTESIAN_POINT('',(0.00058889727457342,-0.00102384615384615,0.000340000000000002));
#511=CARTESIAN_POINT('',(0.000785196366097892,-0.00107128205128205,1.30104260698261E-18));
#512=CARTESIAN_POINT('',(0.00058889727457342,-0.00111871794871795,-0.000339999999999999));
#513=CARTESIAN_POINT('',(0.000392598183048948,-0.00116615384615384,-0.000680000000000001));
#514=CARTESIAN_POINT('',(1.46367293285543E-18,-0.00121358974358974,-0.000680000000000002));
#515=CARTESIAN_POINT('',(-0.000392598183048944,-0.00126102564102564,-0.000680000000000001));
#516=CARTESIAN_POINT('',(-0.00058889727457342,-0.00130846153846154,-0.000340000000000002));
#517=CARTESIAN_POINT('',(-0.000785196366097892,-0.00135589743589743,-1.13841228110978E-18));
#518=CARTESIAN_POINT('',(-0.00058889727457342,-0.00140333333333333,0.000339999999999999));
#519=CARTESIAN_POINT('',(-0.000392598183048948,-0.00145076923076923,0.000680000000000001));
#520=CARTESIAN_POINT('',(-1.02999206386123E-18,-0.00149820512820513,0.000680000000000002));
#521=CARTESIAN_POINT('',(0.000392598183048944,-0.00154564102564102,0.000680000000000001));
#522=CARTESIAN_POINT('',(0.00058889727457342,-0.00159307692307692,0.000340000000000002));
#523=CARTESIAN_POINT('',(0.000785196366097892,-0.00164051282051282,1.30104260698261E-18));
#524=CARTESIAN_POINT('',(0.00058889727457342,-0.00168794871794872,-0.000339999999999999));
#525=CARTESIAN_POINT('',(0.000392598183048948,-0.00173538461538461,-0.000680000000000001));
#526=CARTESIAN_POINT('',(1.46367293285543E-18,-0.00178282051282051,-0.000680000000000002));
#527=CARTESIAN_POINT('',(-0.000392598183048944,-0.00183025641025641,-0.000680000000000001));
#528=CARTESIAN_POINT('',(-0.00058889727457342,-0.00187769230769231,-0.000340000000000002));
#529=CARTESIAN_POINT('',(-0.000785196366097892,-0.0019251282051282,-1.13841228110978E-18));
#530=CARTESIAN_POINT('',(-0.00058889727457342,-0.0019725641025641,0.000339999999999999));
#531=CARTESIAN_POINT('',(-0.000392598183048948,-0.00202,0.000680000000000001));
#532=CARTESIAN_POINT('',(-1.02999206386123E-18,-0.0020674358974359,0.000680000000000002));
#533=CARTESIAN_POINT('',(0.000392598183048944,-0.00211487179487179,0.000680000000000001));
#534=CARTESIAN_POINT('',(0.00058889727457342,-0.00216230769230769,0.000340000000000002));
#535=CARTESIAN_POINT('',(0.000785196366097892,-0.00220974358974359,1.30104260698261E-18));
#536=CARTESIAN_POINT('',(0.00058889727457342,-0.00225717948717949,-0.000339999999999999));
#537=CARTESIAN_POINT('',(0.000392598183048948,-0.00230461538461538,-0.000680000000000001));
#538=CARTESIAN_POINT('',(1.46367293285543E-18,-0.00235205128205128,-0.000680000000000002));
#539=CARTESIAN_POINT('',(-0.000392598183048944,-0.00239948717948717,-0.000680000000000001));
#540=CARTESIAN_POINT('',(-0.00058889727457342,-0.00244692307692307,-0.000340000000000002));
#541=CARTESIAN_POINT('',(-0.000785196366097892,-0.00249435897435897,-1.13841228110978E-18));
#542=CARTESIAN_POINT('',(-0.00058889727457342,-0.00254179487179487,0.000339999999999999));
#543=CARTESIAN_POINT('',(-0.000392598183048948,-0.00258923076923076,0.000680000000000001));
#544=CARTESIAN_POINT('',(-1.02999206386123E-18,-0.00263666666666666,0.000680000000000002));
#545=CARTESIAN_POINT('',(0.000392598183048944,-0.00268410256410256,0.000680000000000001));
#546=CARTESIAN_POINT('',(0.00058889727457342,-0.00273153846153846,0.000340000000000002));
#547=CARTESIAN_POINT('',(0.000785196366097892,-0.00277897435897435,1.30104260698261E-18));
#548=CARTESIAN_POINT('',(0.00058889727457342,-0.00282641025641025,-0.000339999999999999));
#549=CARTESIAN_POINT('',(0.000392598183048948,-0.00287384615384615,-0.000680000000000001));
#550=CARTESIAN_POINT('',(1.46367293285543E-18,-0.00292128205128205,-0.000680000000000002));
#551=CARTESIAN_POINT('',(-0.000392598183048944,-0.00296871794871794,-0.000680000000000001));
#552=CARTESIAN_POINT('',(-0.00058889727457342,-0.00301615384615383,-0.000340000000000002));
#553=CARTESIAN_POINT('',(-0.000785196366097892,-0.00306358974358974,-1.13841228110978E-18));
#554=CARTESIAN_POINT('',(-0.00058889727457342,-0.00311102564102562,0.000339999999999999));
#555=CARTESIAN_POINT('',(-0.000392598183048948,-0.00315846153846153,0.000680000000000001));
#556=CARTESIAN_POINT('',(-1.02999206386123E-18,-0.00320589743589744,0.000680000000000002));
#557=CARTESIAN_POINT('',(0.000392598183048944,-0.00325333333333332,0.000680000000000001));
#558=CARTESIAN_POINT('',(0.00058889727457342,-0.00330076923076923,0.000340000000000002));
#559=CARTESIAN_POINT('',(0.000785196366097892,-0.00334820512820512,1.30104260698261E-18));
#560=CARTESIAN_POINT('',(0.00058889727457342,-0.00339564102564102,-0.000339999999999999));
#561=CARTESIAN_POINT('',(0.000392598183048948,-0.00344307692307692,-0.000680000000000001));
#562=CARTESIAN_POINT('',(1.46367293285543E-18,-0.00349051282051281,-0.000680000000000002));
#563=CARTESIAN_POINT('',(-0.000392598183048944,-0.00353794871794871,-0.000680000000000001));
#564=CARTESIAN_POINT('',(-0.00058889727457342,-0.0035853846153846,-0.000340000000000002));
#565=CARTESIAN_POINT('',(-0.000785196366097892,-0.00363282051282052,-1.13841228110978E-18));
#566=CARTESIAN_POINT('',(-0.00058889727457342,-0.00368025641025639,0.000339999999999999));
#567=CARTESIAN_POINT('',(-0.000392598183048948,-0.00372769230769229,0.000680000000000001));
#568=CARTESIAN_POINT('',(-1.02999206386123E-18,-0.00377512820512821,0.000680000000000002));
#569=CARTESIAN_POINT('',(0.000392598183048944,-0.00382256410256409,0.000680000000000001));
#570=CARTESIAN_POINT('',(0.00058889727457342,-0.00387,0.000340000000000002));
#571=CARTESIAN_POINT('',(-0.000588897274573418,0.,-0.00034));
#572=CARTESIAN_POINT('',(-0.000785196366097891,-4.74358974358973E-5,-1.13841228110978E-18));
#573=CARTESIAN_POINT('',(-0.000588897274573419,-9.48717948717947E-5,0.00034));
#574=CARTESIAN_POINT('',(-0.000392598183048945,-0.000142307692307692,0.00068));
#575=CARTESIAN_POINT('',(-1.02999206386123E-18,-0.000189743589743589,0.00068));
#576=CARTESIAN_POINT('',(0.000392598183048945,-0.000237179487179487,0.000680000000000001));
#577=CARTESIAN_POINT('',(0.000588897274573418,-0.000284615384615384,0.00034));
#578=CARTESIAN_POINT('',(0.000785196366097891,-0.000332051282051281,1.30104260698261E-18));
#579=CARTESIAN_POINT('',(0.000588897274573419,-0.000379487179487179,-0.00034));
#580=CARTESIAN_POINT('',(0.000392598183048945,-0.000426923076923076,-0.00068));
#581=CARTESIAN_POINT('',(1.46367293285543E-18,-0.000474358974358973,-0.00068));
#582=CARTESIAN_POINT('',(-0.000392598183048945,-0.00052179487179487,-0.000680000000000001));
#583=CARTESIAN_POINT('',(-0.000588897274573418,-0.000569230769230768,-0.00034));
#584=CARTESIAN_POINT('',(-0.000785196366097891,-0.000616666666666666,-1.13841228110978E-18));
#585=CARTESIAN_POINT('',(-0.000588897274573419,-0.000664102564102563,0.00034));
#586=CARTESIAN_POINT('',(-0.000392598183048945,-0.00071153846153846,0.00068));
#587=CARTESIAN_POINT('',(-1.02999206386123E-18,-0.000758974358974357,0.00068));
#588=CARTESIAN_POINT('',(0.000392598183048945,-0.000806410256410255,0.000680000000000001));
#589=CARTESIAN_POINT('',(0.000588897274573418,-0.000853846153846152,0.00034));
#590=CARTESIAN_POINT('',(0.000785196366097891,-0.000901282051282049,1.30104260698261E-18));
#591=CARTESIAN_POINT('',(0.000588897274573419,-0.000948717948717947,-0.00034));
#592=CARTESIAN_POINT('',(0.000392598183048945,-0.000996153846153843,-0.00068));
#593=CARTESIAN_POINT('',(1.46367293285543E-18,-0.00104358974358974,-0.00068));
#594=CARTESIAN_POINT('',(-0.000392598183048945,-0.00109102564102564,-0.000680000000000001));
#595=CARTESIAN_POINT('',(-0.000588897274573418,-0.00113846153846154,-0.00034));
#596=CARTESIAN_POINT('',(-0.000785196366097891,-0.00118589743589744,-1.13841228110978E-18));
#597=CARTESIAN_POINT('',(-0.000588897274573419,-0.00123333333333333,0.00034));
#598=CARTESIAN_POINT('',(-0.000392598183048945,-0.00128076923076923,0.00068));
#599=CARTESIAN_POINT('',(-1.02999206386123E-18,-0.00132820512820513,0.00068));
#600=CARTESIAN_POINT('',(0.000392598183048945,-0.00137564102564103,0.000680000000000001));
#601=CARTESIAN_POINT('',(0.000588897274573418,-0.00142307692307692,0.00034));
#602=CARTESIAN_POINT('',(0.000785196366097891,-0.00147051282051282,1.30104260698261E-18));
#603=CARTESIAN_POINT('',(0.000588897274573419,-0.00151794871794871,-0.00034));
#604=CARTESIAN_POINT('',(0.000392598183048945,-0.00156538461538461,-0.00068));
#605=CARTESIAN_POINT('',(1.46367293285543E-18,-0.00161282051282051,-0.00068));
#606=CARTESIAN_POINT('',(-0.000392598183048945,-0.00166025641025641,-0.000680000000000001));
#607=CARTESIAN_POINT('',(-0.000588897274573418,-0.0017076923076923,-0.00034));
#608=CARTESIAN_POINT('',(-0.000785196366097891,-0.0017551282051282,-1.13841228110978E-18));
#609=CARTESIAN_POINT('',(-0.000588897274573419,-0.0018025641025641,0.00034));
#610=CARTESIAN_POINT('',(-0.000392598183048945,-0.00185,0.00068));
#611=CARTESIAN_POINT('',(-1.02999206386123E-18,-0.00189743589743589,0.00068));
#612=CARTESIAN_POINT('',(0.000392598183048945,-0.00194487179487179,0.000680000000000001));
#613=CARTESIAN_POINT('',(0.000588897274573418,-0.00199230769230769,0.00034));
#614=CARTESIAN_POINT('',(0.000785196366097891,-0.00203974358974359,1.30104260698261E-18));
#615=CARTESIAN_POINT('',(0.000588897274573419,-0.00208717948717948,-0.00034));
#616=CARTESIAN_POINT('',(0.000392598183048945,-0.00213461538461538,-0.00068));
#617=CARTESIAN_POINT('',(1.46367293285543E-18,-0.00218205128205128,-0.00068));
#618=CARTESIAN_POINT('',(-0.000392598183048945,-0.00222948717948717,-0.000680000000000001));
#619=CARTESIAN_POINT('',(-0.000588897274573418,-0.00227692307692307,-0.00034));
#620=CARTESIAN_POINT('',(-0.000785196366097891,-0.00232435897435897,-1.13841228110978E-18));
#621=CARTESIAN_POINT('',(-0.000588897274573419,-0.00237179487179487,0.00034));
#622=CARTESIAN_POINT('',(-0.000392598183048945,-0.00241923076923076,0.00068));
#623=CARTESIAN_POINT('',(-1.02999206386123E-18,-0.00246666666666666,0.00068));
#624=CARTESIAN_POINT('',(0.000392598183048945,-0.00251410256410256,0.000680000000000001));
#625=CARTESIAN_POINT('',(0.000588897274573418,-0.00256153846153846,0.00034));
#626=CARTESIAN_POINT('',(0.000785196366097891,-0.00260897435897435,1.30104260698261E-18));
#627=CARTESIAN_POINT('',(0.000588897274573419,-0.00265641025641025,-0.00034));
#628=CARTESIAN_POINT('',(0.000392598183048945,-0.00270384615384615,-0.00068));
#629=CARTESIAN_POINT('',(1.46367293285543E-18,-0.00275128205128204,-0.00068));
#630=CARTESIAN_POINT('',(-0.000392598183048945,-0.00279871794871794,-0.000680000000000001));
#631=CARTESIAN_POINT('',(-0.000588897274573418,-0.00284615384615384,-0.00034));
#632=CARTESIAN_POINT('',(-0.000785196366097891,-0.00289358974358973,-1.13841228110978E-18));
#633=CARTESIAN_POINT('',(-0.000588897274573419,-0.00294102564102563,0.00034));
#634=CARTESIAN_POINT('',(-0.000392598183048945,-0.00298846153846153,0.00068));
#635=CARTESIAN_POINT('',(-1.02999206386123E-18,-0.00303589743589743,0.00068));
#636=CARTESIAN_POINT('',(0.000392598183048945,-0.00308333333333332,0.000680000000000001));
#637=CARTESIAN_POINT('',(0.000588897274573418,-0.00313076923076922,0.00034));
#638=CARTESIAN_POINT('',(0.000785196366097891,-0.00317820512820512,1.30104260698261E-18));
#639=CARTESIAN_POINT('',(0.000588897274573419,-0.00322564102564102,-0.00034));
#640=CARTESIAN_POINT('',(0.000392598183048945,-0.00327307692307691,-0.00068));
#641=CARTESIAN_POINT('',(1.46367293285543E-18,-0.00332051282051281,-0.00068));
#642=CARTESIAN_POINT('',(-0.000392598183048945,-0.0033679487179487,-0.000680000000000001));
#643=CARTESIAN_POINT('',(-0.000588897274573418,-0.00341538461538461,-0.00034));
#644=CARTESIAN_POINT('',(-0.000785196366097891,-0.0034628205128205,-1.13841228110978E-18));
#645=CARTESIAN_POINT('',(-0.000588897274573419,-0.0035102564102564,0.00034));
#646=CARTESIAN_POINT('',(-0.000392598183048945,-0.0035576923076923,0.00068));
#647=CARTESIAN_POINT('',(-1.02999206386123E-18,-0.0036051282051282,0.00068));
#648=CARTESIAN_POINT('',(0.000392598183048945,-0.0036525641025641,0.000680000000000001));
#649=CARTESIAN_POINT('',(0.000588897274573418,-0.0037,0.00034));
#650=CARTESIAN_POINT('',(-0.000736121593216772,0.,-0.000425));
#651=CARTESIAN_POINT('',(-0.000766544323305411,0.,-0.000372306285781523));
#652=CARTESIAN_POINT('',(-0.000814770841813465,-2.85604515985768E-16,-0.000260100926606502));
#653=CARTESIAN_POINT('',(-0.000844448781696879,9.99839277637785E-16,-8.08848005836604E-5));
#654=CARTESIAN_POINT('',(-0.00083187311102257,-2.92772024014003E-15,6.96552320100885E-5));
#655=CARTESIAN_POINT('',(-0.000794790965530446,5.3819934730055E-16,0.000188784302223405));
#656=CARTESIAN_POINT('',(-0.000762745432640321,-2.50507194935012E-18,0.000248815375242224));
#657=CARTESIAN_POINT('',(-0.000718496283418165,-1.05169075047403E-16,0.000312906381795187));
#658=CARTESIAN_POINT('',(-0.000676505840117564,5.82311411632797E-16,0.000268107460558892));
#659=CARTESIAN_POINT('',(-0.000707817067447227,-6.84169972744796E-15,0.000151712807326631));
#660=CARTESIAN_POINT('',(-0.00069502711555204,5.1312412086367E-15,-5.28798686250806E-5));
#661=CARTESIAN_POINT('',(-0.000650103424291644,0.,-0.000233987838952366));
#662=CARTESIAN_POINT('',(-0.000588897274573418,0.,-0.00034));
#663=CARTESIAN_POINT('',(-0.000736121593216772,0.,-0.000425));
#664=CARTESIAN_POINT('',(-0.000588897274573418,0.,-0.00034));
#665=CARTESIAN_POINT('',(-0.000662509433895095,0.,-0.0003825));
#666=CARTESIAN_POINT('',(0.000588897274573534,-0.0037,0.0003399999999998));
#667=CARTESIAN_POINT('',(0.000527209685532452,-0.0037,0.000446846038415458));
#668=CARTESIAN_POINT('',(0.000400264668673466,-0.00369999999999991,0.000582482587992876));
#669=CARTESIAN_POINT('',(0.00021962493861457,-0.00370000000000004,0.000677289590738447));
#670=CARTESIAN_POINT('',(0.000141794299102102,-0.00369999999999997,0.000718792911309134));
#671=CARTESIAN_POINT('',(8.99272714081598E-5,-0.00370000000000013,0.000738060395816371));
#672=CARTESIAN_POINT('',(9.92952907645511E-5,-0.00369999999999951,0.000781985057095351));
#673=CARTESIAN_POINT('',(0.000169970426156267,-0.0037000000000026,0.000784137196510188));
#674=CARTESIAN_POINT('',(0.000240687064829087,-0.00369999999997906,0.000782036724605676));
#675=CARTESIAN_POINT('',(0.00035912314577066,-0.00370000000001186,0.000753488554029654));
#676=CARTESIAN_POINT('',(0.000549744491258425,-0.00369999999999111,0.000663217786298533));
#677=CARTESIAN_POINT('',(0.000675737607436993,-0.0037,0.000529588131334182));
#678=CARTESIAN_POINT('',(0.000736121593216917,-0.0037,0.000424999999999751));
#679=CARTESIAN_POINT('',(-0.000662509433895095,0.,-0.0003825));
#680=CARTESIAN_POINT('',(-0.000662509433895095,0.,-0.0003825));
#681=CARTESIAN_POINT('',(0.,0.,0.));
#682=CARTESIAN_POINT('',(0.,-0.0037,0.));
#683=(
GEOMETRIC_REPRESENTATION_CONTEXT(3)
GLOBAL_UNCERTAINTY_ASSIGNED_CONTEXT((#684))
GLOBAL_UNIT_ASSIGNED_CONTEXT((#687,#686,#685))
REPRESENTATION_CONTEXT('id2','TOP_LEVEL_ASSEMBLY_PART')
);
#684=UNCERTAINTY_MEASURE_WITH_UNIT(LENGTH_MEASURE(3.00000266666552E-5),
#687,'DISTANCE_ACCURACY_VALUE','Maximum Tolerance applied to model');
#685=(
NAMED_UNIT(*)
SI_UNIT($,.STERADIAN.)
SOLID_ANGLE_UNIT()
);
#686=(
NAMED_UNIT(*)
PLANE_ANGLE_UNIT()
SI_UNIT($,.RADIAN.)
);
#687=(
LENGTH_UNIT()
NAMED_UNIT(*)
SI_UNIT($,.METRE.)
);
#688=PRODUCT_DEFINITION_SHAPE('','',#689);
#689=PRODUCT_DEFINITION('','',#691,#690);
#690=PRODUCT_DEFINITION_CONTEXT('',#697,'design');
#691=PRODUCT_DEFINITION_FORMATION_WITH_SPECIFIED_SOURCE('','',#693,
 .NOT_KNOWN.);
#692=PRODUCT_RELATED_PRODUCT_CATEGORY('','',(#693));
#693=PRODUCT('id2','id2','id2',(#695));
#694=PRODUCT_CATEGORY('','');
#695=PRODUCT_CONTEXT('',#697,'mechanical');
#696=APPLICATION_PROTOCOL_DEFINITION('international standard',
'ap242_managed_model_based_3d_engineering',2020,#697);
#697=APPLICATION_CONTEXT('managed model based 3d engineering');
ENDSEC;
END-ISO-10303-21;
