ISO-10303-21;
HEADER;
/* Generated by software containing ST-Developer
 * from STEP Tools, Inc. (www.steptools.com) 
 */
/* OPTION: using custom renumber hook */

FILE_DESCRIPTION(
/* description */ ('STEP AP242 Edition 2',
'CAx-IF Rec.Pracs.---Representation and Presentation of Product Manufa
cturing Information (PMI)---4.0---2014-10-13',
'CAx-IF Rec.Pracs.---3D Tessellated Geometry---0.4---2014-09-14','2;1',
'CAx-IF Rec.Pracs.---User Defined Attributes---1.5---2016-08-15'),
/* implementation_level */ '2;1');

FILE_NAME(
/* name */ '10081',
/* time_stamp */ '2026-07-13T04:54:55Z',
/* author */ (''),
/* organization */ (''),
/* preprocessor_version */ 'ST-DEVELOPER v20',
/* originating_system */ 'ONSHAPE BY PTC INC, 1.217',
/* authorisation */ '  ');

FILE_SCHEMA (('AP242_MANAGED_MODEL_BASED_3D_ENGINEERING_MIM_LF { 1 0 10303 442 3 1 4 }'));
ENDSEC;

DATA;
#10=SHAPE_REPRESENTATION_RELATIONSHIP('','',#983,#11);
#11=ADVANCED_BREP_SHAPE_REPRESENTATION('',(#981),#1668);
#12=CYLINDRICAL_SURFACE('',#1035,0.0005);
#13=CYLINDRICAL_SURFACE('',#1036,0.0121);
#14=CYLINDRICAL_SURFACE('',#1037,0.0121);
#15=CYLINDRICAL_SURFACE('',#1038,0.0121);
#16=CYLINDRICAL_SURFACE('',#1039,0.0121);
#17=CYLINDRICAL_SURFACE('',#1040,0.0121);
#18=CYLINDRICAL_SURFACE('',#1041,0.0121);
#19=CYLINDRICAL_SURFACE('',#1042,0.0121);
#20=CYLINDRICAL_SURFACE('',#1043,0.0121);
#21=CYLINDRICAL_SURFACE('',#1044,0.0072);
#22=CYLINDRICAL_SURFACE('',#1046,0.0092);
#23=CYLINDRICAL_SURFACE('',#1048,0.0093);
#24=CYLINDRICAL_SURFACE('',#1050,0.0092);
#25=CYLINDRICAL_SURFACE('',#1052,0.0072);
#26=CYLINDRICAL_SURFACE('',#1059,0.0005);
#27=CYLINDRICAL_SURFACE('',#1062,0.0005);
#28=CYLINDRICAL_SURFACE('',#1065,0.0005);
#29=CYLINDRICAL_SURFACE('',#1068,0.0005);
#30=CYLINDRICAL_SURFACE('',#1071,0.0005);
#31=CYLINDRICAL_SURFACE('',#1074,0.0005);
#32=CYLINDRICAL_SURFACE('',#1077,0.0005);
#33=CYLINDRICAL_SURFACE('',#1080,0.0109);
#34=CYLINDRICAL_SURFACE('',#1081,0.001);
#35=CYLINDRICAL_SURFACE('',#1082,0.0109);
#36=CIRCLE('',#986,0.0109);
#37=CIRCLE('',#987,0.0005);
#38=CIRCLE('',#988,0.0121);
#39=CIRCLE('',#989,0.0005);
#40=CIRCLE('',#990,0.0121);
#41=CIRCLE('',#991,0.0005);
#42=CIRCLE('',#992,0.0121);
#43=CIRCLE('',#993,0.0005);
#44=CIRCLE('',#994,0.0121);
#45=CIRCLE('',#995,0.0005);
#46=CIRCLE('',#996,0.0121);
#47=CIRCLE('',#997,0.0005);
#48=CIRCLE('',#998,0.0121);
#49=CIRCLE('',#999,0.0005);
#50=CIRCLE('',#1000,0.0121);
#51=CIRCLE('',#1001,0.0005);
#52=CIRCLE('',#1002,0.0121);
#53=CIRCLE('',#1003,0.0109);
#54=CIRCLE('',#1004,0.001);
#55=CIRCLE('',#1005,0.0072);
#56=CIRCLE('',#1006,0.0092);
#57=CIRCLE('',#1007,0.0093);
#58=CIRCLE('',#1008,0.0092);
#59=CIRCLE('',#1009,0.0072);
#60=CIRCLE('',#1011,0.0109);
#61=CIRCLE('',#1012,0.0072);
#62=CIRCLE('',#1013,0.0092);
#63=CIRCLE('',#1014,0.0093);
#64=CIRCLE('',#1015,0.0092);
#65=CIRCLE('',#1016,0.0072);
#66=CIRCLE('',#1017,0.001);
#67=CIRCLE('',#1018,0.0109);
#68=CIRCLE('',#1019,0.0121);
#69=CIRCLE('',#1020,0.0005);
#70=CIRCLE('',#1021,0.0121);
#71=CIRCLE('',#1022,0.0005);
#72=CIRCLE('',#1023,0.0121);
#73=CIRCLE('',#1024,0.0005);
#74=CIRCLE('',#1025,0.0121);
#75=CIRCLE('',#1026,0.0005);
#76=CIRCLE('',#1027,0.0121);
#77=CIRCLE('',#1028,0.0005);
#78=CIRCLE('',#1029,0.0121);
#79=CIRCLE('',#1030,0.0005);
#80=CIRCLE('',#1031,0.0121);
#81=CIRCLE('',#1032,0.0005);
#82=CIRCLE('',#1033,0.0121);
#83=CIRCLE('',#1034,0.0005);
#84=ORIENTED_EDGE('',*,*,#372,.T.);
#85=ORIENTED_EDGE('',*,*,#373,.F.);
#86=ORIENTED_EDGE('',*,*,#374,.F.);
#87=ORIENTED_EDGE('',*,*,#375,.F.);
#88=ORIENTED_EDGE('',*,*,#376,.T.);
#89=ORIENTED_EDGE('',*,*,#377,.F.);
#90=ORIENTED_EDGE('',*,*,#378,.F.);
#91=ORIENTED_EDGE('',*,*,#379,.F.);
#92=ORIENTED_EDGE('',*,*,#380,.T.);
#93=ORIENTED_EDGE('',*,*,#381,.F.);
#94=ORIENTED_EDGE('',*,*,#382,.F.);
#95=ORIENTED_EDGE('',*,*,#383,.F.);
#96=ORIENTED_EDGE('',*,*,#384,.T.);
#97=ORIENTED_EDGE('',*,*,#385,.F.);
#98=ORIENTED_EDGE('',*,*,#386,.F.);
#99=ORIENTED_EDGE('',*,*,#387,.F.);
#100=ORIENTED_EDGE('',*,*,#388,.T.);
#101=ORIENTED_EDGE('',*,*,#389,.F.);
#102=ORIENTED_EDGE('',*,*,#390,.F.);
#103=ORIENTED_EDGE('',*,*,#391,.F.);
#104=ORIENTED_EDGE('',*,*,#392,.T.);
#105=ORIENTED_EDGE('',*,*,#393,.F.);
#106=ORIENTED_EDGE('',*,*,#394,.F.);
#107=ORIENTED_EDGE('',*,*,#395,.F.);
#108=ORIENTED_EDGE('',*,*,#396,.T.);
#109=ORIENTED_EDGE('',*,*,#397,.F.);
#110=ORIENTED_EDGE('',*,*,#398,.F.);
#111=ORIENTED_EDGE('',*,*,#399,.F.);
#112=ORIENTED_EDGE('',*,*,#400,.T.);
#113=ORIENTED_EDGE('',*,*,#401,.F.);
#114=ORIENTED_EDGE('',*,*,#402,.F.);
#115=ORIENTED_EDGE('',*,*,#403,.F.);
#116=ORIENTED_EDGE('',*,*,#404,.T.);
#117=ORIENTED_EDGE('',*,*,#405,.F.);
#118=ORIENTED_EDGE('',*,*,#406,.F.);
#119=ORIENTED_EDGE('',*,*,#407,.T.);
#120=ORIENTED_EDGE('',*,*,#408,.T.);
#121=ORIENTED_EDGE('',*,*,#409,.T.);
#122=ORIENTED_EDGE('',*,*,#410,.T.);
#123=ORIENTED_EDGE('',*,*,#411,.T.);
#124=ORIENTED_EDGE('',*,*,#412,.T.);
#125=ORIENTED_EDGE('',*,*,#413,.T.);
#126=ORIENTED_EDGE('',*,*,#414,.T.);
#127=ORIENTED_EDGE('',*,*,#415,.T.);
#128=ORIENTED_EDGE('',*,*,#416,.T.);
#129=ORIENTED_EDGE('',*,*,#417,.T.);
#130=ORIENTED_EDGE('',*,*,#418,.T.);
#131=ORIENTED_EDGE('',*,*,#419,.T.);
#132=ORIENTED_EDGE('',*,*,#420,.T.);
#133=ORIENTED_EDGE('',*,*,#421,.F.);
#134=ORIENTED_EDGE('',*,*,#422,.F.);
#135=ORIENTED_EDGE('',*,*,#423,.F.);
#136=ORIENTED_EDGE('',*,*,#424,.F.);
#137=ORIENTED_EDGE('',*,*,#425,.F.);
#138=ORIENTED_EDGE('',*,*,#426,.F.);
#139=ORIENTED_EDGE('',*,*,#427,.F.);
#140=ORIENTED_EDGE('',*,*,#428,.F.);
#141=ORIENTED_EDGE('',*,*,#429,.F.);
#142=ORIENTED_EDGE('',*,*,#430,.F.);
#143=ORIENTED_EDGE('',*,*,#431,.F.);
#144=ORIENTED_EDGE('',*,*,#432,.F.);
#145=ORIENTED_EDGE('',*,*,#433,.F.);
#146=ORIENTED_EDGE('',*,*,#434,.T.);
#147=ORIENTED_EDGE('',*,*,#435,.T.);
#148=ORIENTED_EDGE('',*,*,#436,.T.);
#149=ORIENTED_EDGE('',*,*,#437,.F.);
#150=ORIENTED_EDGE('',*,*,#438,.T.);
#151=ORIENTED_EDGE('',*,*,#439,.T.);
#152=ORIENTED_EDGE('',*,*,#440,.T.);
#153=ORIENTED_EDGE('',*,*,#441,.F.);
#154=ORIENTED_EDGE('',*,*,#442,.T.);
#155=ORIENTED_EDGE('',*,*,#443,.T.);
#156=ORIENTED_EDGE('',*,*,#444,.T.);
#157=ORIENTED_EDGE('',*,*,#445,.F.);
#158=ORIENTED_EDGE('',*,*,#446,.T.);
#159=ORIENTED_EDGE('',*,*,#447,.T.);
#160=ORIENTED_EDGE('',*,*,#448,.T.);
#161=ORIENTED_EDGE('',*,*,#449,.F.);
#162=ORIENTED_EDGE('',*,*,#450,.T.);
#163=ORIENTED_EDGE('',*,*,#451,.T.);
#164=ORIENTED_EDGE('',*,*,#452,.T.);
#165=ORIENTED_EDGE('',*,*,#453,.F.);
#166=ORIENTED_EDGE('',*,*,#454,.T.);
#167=ORIENTED_EDGE('',*,*,#455,.T.);
#168=ORIENTED_EDGE('',*,*,#456,.T.);
#169=ORIENTED_EDGE('',*,*,#457,.F.);
#170=ORIENTED_EDGE('',*,*,#458,.T.);
#171=ORIENTED_EDGE('',*,*,#459,.T.);
#172=ORIENTED_EDGE('',*,*,#460,.T.);
#173=ORIENTED_EDGE('',*,*,#461,.F.);
#174=ORIENTED_EDGE('',*,*,#462,.T.);
#175=ORIENTED_EDGE('',*,*,#463,.T.);
#176=ORIENTED_EDGE('',*,*,#464,.T.);
#177=ORIENTED_EDGE('',*,*,#465,.F.);
#178=ORIENTED_EDGE('',*,*,#466,.T.);
#179=ORIENTED_EDGE('',*,*,#467,.T.);
#180=ORIENTED_EDGE('',*,*,#468,.F.);
#181=ORIENTED_EDGE('',*,*,#467,.F.);
#182=ORIENTED_EDGE('',*,*,#469,.T.);
#183=ORIENTED_EDGE('',*,*,#374,.T.);
#184=ORIENTED_EDGE('',*,*,#437,.T.);
#185=ORIENTED_EDGE('',*,*,#470,.T.);
#186=ORIENTED_EDGE('',*,*,#404,.F.);
#187=ORIENTED_EDGE('',*,*,#471,.F.);
#188=ORIENTED_EDGE('',*,*,#441,.T.);
#189=ORIENTED_EDGE('',*,*,#472,.T.);
#190=ORIENTED_EDGE('',*,*,#400,.F.);
#191=ORIENTED_EDGE('',*,*,#473,.F.);
#192=ORIENTED_EDGE('',*,*,#445,.T.);
#193=ORIENTED_EDGE('',*,*,#474,.T.);
#194=ORIENTED_EDGE('',*,*,#396,.F.);
#195=ORIENTED_EDGE('',*,*,#475,.F.);
#196=ORIENTED_EDGE('',*,*,#449,.T.);
#197=ORIENTED_EDGE('',*,*,#476,.T.);
#198=ORIENTED_EDGE('',*,*,#392,.F.);
#199=ORIENTED_EDGE('',*,*,#477,.F.);
#200=ORIENTED_EDGE('',*,*,#453,.T.);
#201=ORIENTED_EDGE('',*,*,#478,.T.);
#202=ORIENTED_EDGE('',*,*,#388,.F.);
#203=ORIENTED_EDGE('',*,*,#479,.F.);
#204=ORIENTED_EDGE('',*,*,#457,.T.);
#205=ORIENTED_EDGE('',*,*,#480,.T.);
#206=ORIENTED_EDGE('',*,*,#384,.F.);
#207=ORIENTED_EDGE('',*,*,#481,.F.);
#208=ORIENTED_EDGE('',*,*,#461,.T.);
#209=ORIENTED_EDGE('',*,*,#482,.T.);
#210=ORIENTED_EDGE('',*,*,#380,.F.);
#211=ORIENTED_EDGE('',*,*,#483,.F.);
#212=ORIENTED_EDGE('',*,*,#465,.T.);
#213=ORIENTED_EDGE('',*,*,#484,.T.);
#214=ORIENTED_EDGE('',*,*,#376,.F.);
#215=ORIENTED_EDGE('',*,*,#485,.F.);
#216=ORIENTED_EDGE('',*,*,#431,.T.);
#217=ORIENTED_EDGE('',*,*,#486,.F.);
#218=ORIENTED_EDGE('',*,*,#410,.F.);
#219=ORIENTED_EDGE('',*,*,#487,.T.);
#220=ORIENTED_EDGE('',*,*,#430,.T.);
#221=ORIENTED_EDGE('',*,*,#488,.F.);
#222=ORIENTED_EDGE('',*,*,#411,.F.);
#223=ORIENTED_EDGE('',*,*,#486,.T.);
#224=ORIENTED_EDGE('',*,*,#429,.T.);
#225=ORIENTED_EDGE('',*,*,#489,.F.);
#226=ORIENTED_EDGE('',*,*,#412,.F.);
#227=ORIENTED_EDGE('',*,*,#488,.T.);
#228=ORIENTED_EDGE('',*,*,#428,.T.);
#229=ORIENTED_EDGE('',*,*,#490,.F.);
#230=ORIENTED_EDGE('',*,*,#413,.F.);
#231=ORIENTED_EDGE('',*,*,#489,.T.);
#232=ORIENTED_EDGE('',*,*,#427,.T.);
#233=ORIENTED_EDGE('',*,*,#491,.F.);
#234=ORIENTED_EDGE('',*,*,#414,.F.);
#235=ORIENTED_EDGE('',*,*,#490,.T.);
#236=ORIENTED_EDGE('',*,*,#426,.T.);
#237=ORIENTED_EDGE('',*,*,#492,.F.);
#238=ORIENTED_EDGE('',*,*,#415,.F.);
#239=ORIENTED_EDGE('',*,*,#491,.T.);
#240=ORIENTED_EDGE('',*,*,#425,.T.);
#241=ORIENTED_EDGE('',*,*,#493,.F.);
#242=ORIENTED_EDGE('',*,*,#416,.F.);
#243=ORIENTED_EDGE('',*,*,#492,.T.);
#244=ORIENTED_EDGE('',*,*,#424,.T.);
#245=ORIENTED_EDGE('',*,*,#494,.F.);
#246=ORIENTED_EDGE('',*,*,#417,.F.);
#247=ORIENTED_EDGE('',*,*,#493,.T.);
#248=ORIENTED_EDGE('',*,*,#423,.T.);
#249=ORIENTED_EDGE('',*,*,#495,.F.);
#250=ORIENTED_EDGE('',*,*,#418,.F.);
#251=ORIENTED_EDGE('',*,*,#494,.T.);
#252=ORIENTED_EDGE('',*,*,#422,.T.);
#253=ORIENTED_EDGE('',*,*,#496,.F.);
#254=ORIENTED_EDGE('',*,*,#419,.F.);
#255=ORIENTED_EDGE('',*,*,#495,.T.);
#256=ORIENTED_EDGE('',*,*,#421,.T.);
#257=ORIENTED_EDGE('',*,*,#497,.T.);
#258=ORIENTED_EDGE('',*,*,#372,.F.);
#259=ORIENTED_EDGE('',*,*,#496,.T.);
#260=ORIENTED_EDGE('',*,*,#408,.F.);
#261=ORIENTED_EDGE('',*,*,#498,.T.);
#262=ORIENTED_EDGE('',*,*,#433,.T.);
#263=ORIENTED_EDGE('',*,*,#499,.F.);
#264=ORIENTED_EDGE('',*,*,#432,.T.);
#265=ORIENTED_EDGE('',*,*,#487,.F.);
#266=ORIENTED_EDGE('',*,*,#409,.F.);
#267=ORIENTED_EDGE('',*,*,#499,.T.);
#268=ORIENTED_EDGE('',*,*,#485,.T.);
#269=ORIENTED_EDGE('',*,*,#375,.T.);
#270=ORIENTED_EDGE('',*,*,#469,.F.);
#271=ORIENTED_EDGE('',*,*,#466,.F.);
#272=ORIENTED_EDGE('',*,*,#500,.T.);
#273=ORIENTED_EDGE('',*,*,#377,.T.);
#274=ORIENTED_EDGE('',*,*,#484,.F.);
#275=ORIENTED_EDGE('',*,*,#464,.F.);
#276=ORIENTED_EDGE('',*,*,#501,.T.);
#277=ORIENTED_EDGE('',*,*,#378,.T.);
#278=ORIENTED_EDGE('',*,*,#500,.F.);
#279=ORIENTED_EDGE('',*,*,#463,.F.);
#280=ORIENTED_EDGE('',*,*,#483,.T.);
#281=ORIENTED_EDGE('',*,*,#379,.T.);
#282=ORIENTED_EDGE('',*,*,#501,.F.);
#283=ORIENTED_EDGE('',*,*,#462,.F.);
#284=ORIENTED_EDGE('',*,*,#502,.T.);
#285=ORIENTED_EDGE('',*,*,#381,.T.);
#286=ORIENTED_EDGE('',*,*,#482,.F.);
#287=ORIENTED_EDGE('',*,*,#460,.F.);
#288=ORIENTED_EDGE('',*,*,#503,.T.);
#289=ORIENTED_EDGE('',*,*,#382,.T.);
#290=ORIENTED_EDGE('',*,*,#502,.F.);
#291=ORIENTED_EDGE('',*,*,#459,.F.);
#292=ORIENTED_EDGE('',*,*,#481,.T.);
#293=ORIENTED_EDGE('',*,*,#383,.T.);
#294=ORIENTED_EDGE('',*,*,#503,.F.);
#295=ORIENTED_EDGE('',*,*,#458,.F.);
#296=ORIENTED_EDGE('',*,*,#504,.T.);
#297=ORIENTED_EDGE('',*,*,#385,.T.);
#298=ORIENTED_EDGE('',*,*,#480,.F.);
#299=ORIENTED_EDGE('',*,*,#456,.F.);
#300=ORIENTED_EDGE('',*,*,#505,.T.);
#301=ORIENTED_EDGE('',*,*,#386,.T.);
#302=ORIENTED_EDGE('',*,*,#504,.F.);
#303=ORIENTED_EDGE('',*,*,#455,.F.);
#304=ORIENTED_EDGE('',*,*,#479,.T.);
#305=ORIENTED_EDGE('',*,*,#387,.T.);
#306=ORIENTED_EDGE('',*,*,#505,.F.);
#307=ORIENTED_EDGE('',*,*,#454,.F.);
#308=ORIENTED_EDGE('',*,*,#506,.T.);
#309=ORIENTED_EDGE('',*,*,#389,.T.);
#310=ORIENTED_EDGE('',*,*,#478,.F.);
#311=ORIENTED_EDGE('',*,*,#452,.F.);
#312=ORIENTED_EDGE('',*,*,#507,.T.);
#313=ORIENTED_EDGE('',*,*,#390,.T.);
#314=ORIENTED_EDGE('',*,*,#506,.F.);
#315=ORIENTED_EDGE('',*,*,#451,.F.);
#316=ORIENTED_EDGE('',*,*,#477,.T.);
#317=ORIENTED_EDGE('',*,*,#391,.T.);
#318=ORIENTED_EDGE('',*,*,#507,.F.);
#319=ORIENTED_EDGE('',*,*,#450,.F.);
#320=ORIENTED_EDGE('',*,*,#508,.T.);
#321=ORIENTED_EDGE('',*,*,#393,.T.);
#322=ORIENTED_EDGE('',*,*,#476,.F.);
#323=ORIENTED_EDGE('',*,*,#448,.F.);
#324=ORIENTED_EDGE('',*,*,#509,.T.);
#325=ORIENTED_EDGE('',*,*,#394,.T.);
#326=ORIENTED_EDGE('',*,*,#508,.F.);
#327=ORIENTED_EDGE('',*,*,#447,.F.);
#328=ORIENTED_EDGE('',*,*,#475,.T.);
#329=ORIENTED_EDGE('',*,*,#395,.T.);
#330=ORIENTED_EDGE('',*,*,#509,.F.);
#331=ORIENTED_EDGE('',*,*,#446,.F.);
#332=ORIENTED_EDGE('',*,*,#510,.T.);
#333=ORIENTED_EDGE('',*,*,#397,.T.);
#334=ORIENTED_EDGE('',*,*,#474,.F.);
#335=ORIENTED_EDGE('',*,*,#444,.F.);
#336=ORIENTED_EDGE('',*,*,#511,.T.);
#337=ORIENTED_EDGE('',*,*,#398,.T.);
#338=ORIENTED_EDGE('',*,*,#510,.F.);
#339=ORIENTED_EDGE('',*,*,#443,.F.);
#340=ORIENTED_EDGE('',*,*,#473,.T.);
#341=ORIENTED_EDGE('',*,*,#399,.T.);
#342=ORIENTED_EDGE('',*,*,#511,.F.);
#343=ORIENTED_EDGE('',*,*,#442,.F.);
#344=ORIENTED_EDGE('',*,*,#512,.T.);
#345=ORIENTED_EDGE('',*,*,#401,.T.);
#346=ORIENTED_EDGE('',*,*,#472,.F.);
#347=ORIENTED_EDGE('',*,*,#440,.F.);
#348=ORIENTED_EDGE('',*,*,#513,.T.);
#349=ORIENTED_EDGE('',*,*,#402,.T.);
#350=ORIENTED_EDGE('',*,*,#512,.F.);
#351=ORIENTED_EDGE('',*,*,#439,.F.);
#352=ORIENTED_EDGE('',*,*,#471,.T.);
#353=ORIENTED_EDGE('',*,*,#403,.T.);
#354=ORIENTED_EDGE('',*,*,#513,.F.);
#355=ORIENTED_EDGE('',*,*,#438,.F.);
#356=ORIENTED_EDGE('',*,*,#436,.F.);
#357=ORIENTED_EDGE('',*,*,#514,.T.);
#358=ORIENTED_EDGE('',*,*,#405,.T.);
#359=ORIENTED_EDGE('',*,*,#470,.F.);
#360=ORIENTED_EDGE('',*,*,#435,.F.);
#361=ORIENTED_EDGE('',*,*,#515,.T.);
#362=ORIENTED_EDGE('',*,*,#406,.T.);
#363=ORIENTED_EDGE('',*,*,#514,.F.);
#364=ORIENTED_EDGE('',*,*,#434,.F.);
#365=ORIENTED_EDGE('',*,*,#498,.F.);
#366=ORIENTED_EDGE('',*,*,#407,.F.);
#367=ORIENTED_EDGE('',*,*,#515,.F.);
#368=ORIENTED_EDGE('',*,*,#468,.T.);
#369=ORIENTED_EDGE('',*,*,#373,.T.);
#370=ORIENTED_EDGE('',*,*,#497,.F.);
#371=ORIENTED_EDGE('',*,*,#420,.F.);
#372=EDGE_CURVE('',#516,#517,#612,.T.);
#373=EDGE_CURVE('',#518,#517,#36,.T.);
#374=EDGE_CURVE('',#519,#518,#37,.T.);
#375=EDGE_CURVE('',#520,#519,#613,.T.);
#376=EDGE_CURVE('',#520,#521,#38,.T.);
#377=EDGE_CURVE('',#522,#521,#614,.T.);
#378=EDGE_CURVE('',#523,#522,#39,.T.);
#379=EDGE_CURVE('',#524,#523,#615,.T.);
#380=EDGE_CURVE('',#524,#525,#40,.T.);
#381=EDGE_CURVE('',#526,#525,#616,.T.);
#382=EDGE_CURVE('',#527,#526,#41,.T.);
#383=EDGE_CURVE('',#528,#527,#617,.T.);
#384=EDGE_CURVE('',#528,#529,#42,.T.);
#385=EDGE_CURVE('',#530,#529,#618,.T.);
#386=EDGE_CURVE('',#531,#530,#43,.T.);
#387=EDGE_CURVE('',#532,#531,#619,.T.);
#388=EDGE_CURVE('',#532,#533,#44,.T.);
#389=EDGE_CURVE('',#534,#533,#620,.T.);
#390=EDGE_CURVE('',#535,#534,#45,.T.);
#391=EDGE_CURVE('',#536,#535,#621,.T.);
#392=EDGE_CURVE('',#536,#537,#46,.T.);
#393=EDGE_CURVE('',#538,#537,#622,.T.);
#394=EDGE_CURVE('',#539,#538,#47,.T.);
#395=EDGE_CURVE('',#540,#539,#623,.T.);
#396=EDGE_CURVE('',#540,#541,#48,.T.);
#397=EDGE_CURVE('',#542,#541,#624,.T.);
#398=EDGE_CURVE('',#543,#542,#49,.T.);
#399=EDGE_CURVE('',#544,#543,#625,.T.);
#400=EDGE_CURVE('',#544,#545,#50,.T.);
#401=EDGE_CURVE('',#546,#545,#626,.T.);
#402=EDGE_CURVE('',#547,#546,#51,.T.);
#403=EDGE_CURVE('',#548,#547,#627,.T.);
#404=EDGE_CURVE('',#548,#549,#52,.T.);
#405=EDGE_CURVE('',#550,#549,#628,.T.);
#406=EDGE_CURVE('',#551,#550,#53,.T.);
#407=EDGE_CURVE('',#551,#552,#54,.F.);
#408=EDGE_CURVE('',#552,#553,#629,.T.);
#409=EDGE_CURVE('',#553,#554,#630,.T.);
#410=EDGE_CURVE('',#554,#555,#55,.T.);
#411=EDGE_CURVE('',#555,#556,#631,.T.);
#412=EDGE_CURVE('',#556,#557,#56,.T.);
#413=EDGE_CURVE('',#557,#558,#632,.T.);
#414=EDGE_CURVE('',#558,#559,#57,.T.);
#415=EDGE_CURVE('',#559,#560,#633,.T.);
#416=EDGE_CURVE('',#560,#561,#58,.T.);
#417=EDGE_CURVE('',#561,#562,#634,.T.);
#418=EDGE_CURVE('',#562,#563,#59,.T.);
#419=EDGE_CURVE('',#563,#516,#635,.T.);
#420=EDGE_CURVE('',#564,#565,#60,.T.);
#421=EDGE_CURVE('',#566,#565,#636,.T.);
#422=EDGE_CURVE('',#567,#566,#637,.T.);
#423=EDGE_CURVE('',#568,#567,#61,.T.);
#424=EDGE_CURVE('',#569,#568,#638,.T.);
#425=EDGE_CURVE('',#570,#569,#62,.T.);
#426=EDGE_CURVE('',#571,#570,#639,.T.);
#427=EDGE_CURVE('',#572,#571,#63,.T.);
#428=EDGE_CURVE('',#573,#572,#640,.T.);
#429=EDGE_CURVE('',#574,#573,#64,.T.);
#430=EDGE_CURVE('',#575,#574,#641,.T.);
#431=EDGE_CURVE('',#576,#575,#65,.T.);
#432=EDGE_CURVE('',#577,#576,#642,.T.);
#433=EDGE_CURVE('',#578,#577,#643,.T.);
#434=EDGE_CURVE('',#578,#579,#66,.T.);
#435=EDGE_CURVE('',#579,#580,#67,.T.);
#436=EDGE_CURVE('',#580,#581,#644,.T.);
#437=EDGE_CURVE('',#582,#581,#68,.T.);
#438=EDGE_CURVE('',#582,#583,#645,.T.);
#439=EDGE_CURVE('',#583,#584,#69,.F.);
#440=EDGE_CURVE('',#584,#585,#646,.T.);
#441=EDGE_CURVE('',#586,#585,#70,.T.);
#442=EDGE_CURVE('',#586,#587,#647,.T.);
#443=EDGE_CURVE('',#587,#588,#71,.F.);
#444=EDGE_CURVE('',#588,#589,#648,.T.);
#445=EDGE_CURVE('',#590,#589,#72,.T.);
#446=EDGE_CURVE('',#590,#591,#649,.T.);
#447=EDGE_CURVE('',#591,#592,#73,.F.);
#448=EDGE_CURVE('',#592,#593,#650,.T.);
#449=EDGE_CURVE('',#594,#593,#74,.T.);
#450=EDGE_CURVE('',#594,#595,#651,.T.);
#451=EDGE_CURVE('',#595,#596,#75,.F.);
#452=EDGE_CURVE('',#596,#597,#652,.T.);
#453=EDGE_CURVE('',#598,#597,#76,.T.);
#454=EDGE_CURVE('',#598,#599,#653,.T.);
#455=EDGE_CURVE('',#599,#600,#77,.F.);
#456=EDGE_CURVE('',#600,#601,#654,.T.);
#457=EDGE_CURVE('',#602,#601,#78,.T.);
#458=EDGE_CURVE('',#602,#603,#655,.T.);
#459=EDGE_CURVE('',#603,#604,#79,.F.);
#460=EDGE_CURVE('',#604,#605,#656,.T.);
#461=EDGE_CURVE('',#606,#605,#80,.T.);
#462=EDGE_CURVE('',#606,#607,#657,.T.);
#463=EDGE_CURVE('',#607,#608,#81,.F.);
#464=EDGE_CURVE('',#608,#609,#658,.T.);
#465=EDGE_CURVE('',#610,#609,#82,.T.);
#466=EDGE_CURVE('',#610,#611,#659,.T.);
#467=EDGE_CURVE('',#611,#564,#83,.F.);
#468=EDGE_CURVE('',#564,#518,#660,.T.);
#469=EDGE_CURVE('',#611,#519,#661,.T.);
#470=EDGE_CURVE('',#581,#549,#662,.T.);
#471=EDGE_CURVE('',#582,#548,#663,.T.);
#472=EDGE_CURVE('',#585,#545,#664,.T.);
#473=EDGE_CURVE('',#586,#544,#665,.T.);
#474=EDGE_CURVE('',#589,#541,#666,.T.);
#475=EDGE_CURVE('',#590,#540,#667,.T.);
#476=EDGE_CURVE('',#593,#537,#668,.T.);
#477=EDGE_CURVE('',#594,#536,#669,.T.);
#478=EDGE_CURVE('',#597,#533,#670,.T.);
#479=EDGE_CURVE('',#598,#532,#671,.T.);
#480=EDGE_CURVE('',#601,#529,#672,.T.);
#481=EDGE_CURVE('',#602,#528,#673,.T.);
#482=EDGE_CURVE('',#605,#525,#674,.T.);
#483=EDGE_CURVE('',#606,#524,#675,.T.);
#484=EDGE_CURVE('',#609,#521,#676,.T.);
#485=EDGE_CURVE('',#610,#520,#677,.T.);
#486=EDGE_CURVE('',#555,#575,#678,.T.);
#487=EDGE_CURVE('',#554,#576,#679,.T.);
#488=EDGE_CURVE('',#556,#574,#680,.T.);
#489=EDGE_CURVE('',#557,#573,#681,.T.);
#490=EDGE_CURVE('',#558,#572,#682,.T.);
#491=EDGE_CURVE('',#559,#571,#683,.T.);
#492=EDGE_CURVE('',#560,#570,#684,.T.);
#493=EDGE_CURVE('',#561,#569,#685,.T.);
#494=EDGE_CURVE('',#562,#568,#686,.T.);
#495=EDGE_CURVE('',#563,#567,#687,.T.);
#496=EDGE_CURVE('',#516,#566,#688,.T.);
#497=EDGE_CURVE('',#565,#517,#689,.T.);
#498=EDGE_CURVE('',#552,#578,#690,.F.);
#499=EDGE_CURVE('',#553,#577,#691,.T.);
#500=EDGE_CURVE('',#608,#522,#692,.T.);
#501=EDGE_CURVE('',#607,#523,#693,.T.);
#502=EDGE_CURVE('',#604,#526,#694,.T.);
#503=EDGE_CURVE('',#603,#527,#695,.T.);
#504=EDGE_CURVE('',#600,#530,#696,.T.);
#505=EDGE_CURVE('',#599,#531,#697,.T.);
#506=EDGE_CURVE('',#596,#534,#698,.T.);
#507=EDGE_CURVE('',#595,#535,#699,.T.);
#508=EDGE_CURVE('',#592,#538,#700,.T.);
#509=EDGE_CURVE('',#591,#539,#701,.T.);
#510=EDGE_CURVE('',#588,#542,#702,.T.);
#511=EDGE_CURVE('',#587,#543,#703,.T.);
#512=EDGE_CURVE('',#584,#546,#704,.T.);
#513=EDGE_CURVE('',#583,#547,#705,.T.);
#514=EDGE_CURVE('',#580,#550,#706,.T.);
#515=EDGE_CURVE('',#579,#551,#707,.T.);
#516=VERTEX_POINT('',#1380);
#517=VERTEX_POINT('',#1381);
#518=VERTEX_POINT('',#1383);
#519=VERTEX_POINT('',#1385);
#520=VERTEX_POINT('',#1387);
#521=VERTEX_POINT('',#1389);
#522=VERTEX_POINT('',#1391);
#523=VERTEX_POINT('',#1393);
#524=VERTEX_POINT('',#1395);
#525=VERTEX_POINT('',#1397);
#526=VERTEX_POINT('',#1399);
#527=VERTEX_POINT('',#1401);
#528=VERTEX_POINT('',#1403);
#529=VERTEX_POINT('',#1405);
#530=VERTEX_POINT('',#1407);
#531=VERTEX_POINT('',#1409);
#532=VERTEX_POINT('',#1411);
#533=VERTEX_POINT('',#1413);
#534=VERTEX_POINT('',#1415);
#535=VERTEX_POINT('',#1417);
#536=VERTEX_POINT('',#1419);
#537=VERTEX_POINT('',#1421);
#538=VERTEX_POINT('',#1423);
#539=VERTEX_POINT('',#1425);
#540=VERTEX_POINT('',#1427);
#541=VERTEX_POINT('',#1429);
#542=VERTEX_POINT('',#1431);
#543=VERTEX_POINT('',#1433);
#544=VERTEX_POINT('',#1435);
#545=VERTEX_POINT('',#1437);
#546=VERTEX_POINT('',#1439);
#547=VERTEX_POINT('',#1441);
#548=VERTEX_POINT('',#1443);
#549=VERTEX_POINT('',#1445);
#550=VERTEX_POINT('',#1447);
#551=VERTEX_POINT('',#1449);
#552=VERTEX_POINT('',#1451);
#553=VERTEX_POINT('',#1453);
#554=VERTEX_POINT('',#1455);
#555=VERTEX_POINT('',#1457);
#556=VERTEX_POINT('',#1459);
#557=VERTEX_POINT('',#1461);
#558=VERTEX_POINT('',#1463);
#559=VERTEX_POINT('',#1465);
#560=VERTEX_POINT('',#1467);
#561=VERTEX_POINT('',#1469);
#562=VERTEX_POINT('',#1471);
#563=VERTEX_POINT('',#1473);
#564=VERTEX_POINT('',#1477);
#565=VERTEX_POINT('',#1478);
#566=VERTEX_POINT('',#1480);
#567=VERTEX_POINT('',#1482);
#568=VERTEX_POINT('',#1484);
#569=VERTEX_POINT('',#1486);
#570=VERTEX_POINT('',#1488);
#571=VERTEX_POINT('',#1490);
#572=VERTEX_POINT('',#1492);
#573=VERTEX_POINT('',#1494);
#574=VERTEX_POINT('',#1496);
#575=VERTEX_POINT('',#1498);
#576=VERTEX_POINT('',#1500);
#577=VERTEX_POINT('',#1502);
#578=VERTEX_POINT('',#1504);
#579=VERTEX_POINT('',#1506);
#580=VERTEX_POINT('',#1508);
#581=VERTEX_POINT('',#1510);
#582=VERTEX_POINT('',#1512);
#583=VERTEX_POINT('',#1514);
#584=VERTEX_POINT('',#1516);
#585=VERTEX_POINT('',#1518);
#586=VERTEX_POINT('',#1520);
#587=VERTEX_POINT('',#1522);
#588=VERTEX_POINT('',#1524);
#589=VERTEX_POINT('',#1526);
#590=VERTEX_POINT('',#1528);
#591=VERTEX_POINT('',#1530);
#592=VERTEX_POINT('',#1532);
#593=VERTEX_POINT('',#1534);
#594=VERTEX_POINT('',#1536);
#595=VERTEX_POINT('',#1538);
#596=VERTEX_POINT('',#1540);
#597=VERTEX_POINT('',#1542);
#598=VERTEX_POINT('',#1544);
#599=VERTEX_POINT('',#1546);
#600=VERTEX_POINT('',#1548);
#601=VERTEX_POINT('',#1550);
#602=VERTEX_POINT('',#1552);
#603=VERTEX_POINT('',#1554);
#604=VERTEX_POINT('',#1556);
#605=VERTEX_POINT('',#1558);
#606=VERTEX_POINT('',#1560);
#607=VERTEX_POINT('',#1562);
#608=VERTEX_POINT('',#1564);
#609=VERTEX_POINT('',#1566);
#610=VERTEX_POINT('',#1568);
#611=VERTEX_POINT('',#1570);
#612=LINE('',#1379,#708);
#613=LINE('',#1386,#709);
#614=LINE('',#1390,#710);
#615=LINE('',#1394,#711);
#616=LINE('',#1398,#712);
#617=LINE('',#1402,#713);
#618=LINE('',#1406,#714);
#619=LINE('',#1410,#715);
#620=LINE('',#1414,#716);
#621=LINE('',#1418,#717);
#622=LINE('',#1422,#718);
#623=LINE('',#1426,#719);
#624=LINE('',#1430,#720);
#625=LINE('',#1434,#721);
#626=LINE('',#1438,#722);
#627=LINE('',#1442,#723);
#628=LINE('',#1446,#724);
#629=LINE('',#1452,#725);
#630=LINE('',#1454,#726);
#631=LINE('',#1458,#727);
#632=LINE('',#1462,#728);
#633=LINE('',#1466,#729);
#634=LINE('',#1470,#730);
#635=LINE('',#1474,#731);
#636=LINE('',#1479,#732);
#637=LINE('',#1481,#733);
#638=LINE('',#1485,#734);
#639=LINE('',#1489,#735);
#640=LINE('',#1493,#736);
#641=LINE('',#1497,#737);
#642=LINE('',#1501,#738);
#643=LINE('',#1503,#739);
#644=LINE('',#1509,#740);
#645=LINE('',#1513,#741);
#646=LINE('',#1517,#742);
#647=LINE('',#1521,#743);
#648=LINE('',#1525,#744);
#649=LINE('',#1529,#745);
#650=LINE('',#1533,#746);
#651=LINE('',#1537,#747);
#652=LINE('',#1541,#748);
#653=LINE('',#1545,#749);
#654=LINE('',#1549,#750);
#655=LINE('',#1553,#751);
#656=LINE('',#1557,#752);
#657=LINE('',#1561,#753);
#658=LINE('',#1565,#754);
#659=LINE('',#1569,#755);
#660=LINE('',#1573,#756);
#661=LINE('',#1574,#757);
#662=LINE('',#1576,#758);
#663=LINE('',#1577,#759);
#664=LINE('',#1579,#760);
#665=LINE('',#1580,#761);
#666=LINE('',#1582,#762);
#667=LINE('',#1583,#763);
#668=LINE('',#1585,#764);
#669=LINE('',#1586,#765);
#670=LINE('',#1588,#766);
#671=LINE('',#1589,#767);
#672=LINE('',#1591,#768);
#673=LINE('',#1592,#769);
#674=LINE('',#1594,#770);
#675=LINE('',#1595,#771);
#676=LINE('',#1597,#772);
#677=LINE('',#1598,#773);
#678=LINE('',#1600,#774);
#679=LINE('',#1601,#775);
#680=LINE('',#1603,#776);
#681=LINE('',#1605,#777);
#682=LINE('',#1607,#778);
#683=LINE('',#1609,#779);
#684=LINE('',#1611,#780);
#685=LINE('',#1613,#781);
#686=LINE('',#1615,#782);
#687=LINE('',#1617,#783);
#688=LINE('',#1619,#784);
#689=LINE('',#1621,#785);
#690=LINE('',#1623,#786);
#691=LINE('',#1624,#787);
#692=LINE('',#1628,#788);
#693=LINE('',#1630,#789);
#694=LINE('',#1633,#790);
#695=LINE('',#1635,#791);
#696=LINE('',#1638,#792);
#697=LINE('',#1640,#793);
#698=LINE('',#1643,#794);
#699=LINE('',#1645,#795);
#700=LINE('',#1648,#796);
#701=LINE('',#1650,#797);
#702=LINE('',#1653,#798);
#703=LINE('',#1655,#799);
#704=LINE('',#1658,#800);
#705=LINE('',#1660,#801);
#706=LINE('',#1663,#802);
#707=LINE('',#1665,#803);
#708=VECTOR('',#1087,1.);
#709=VECTOR('',#1092,1.);
#710=VECTOR('',#1095,1.);
#711=VECTOR('',#1098,1.);
#712=VECTOR('',#1101,1.);
#713=VECTOR('',#1104,1.);
#714=VECTOR('',#1107,1.);
#715=VECTOR('',#1110,1.);
#716=VECTOR('',#1113,1.);
#717=VECTOR('',#1116,1.);
#718=VECTOR('',#1119,1.);
#719=VECTOR('',#1122,1.);
#720=VECTOR('',#1125,1.);
#721=VECTOR('',#1128,1.);
#722=VECTOR('',#1131,1.);
#723=VECTOR('',#1134,1.);
#724=VECTOR('',#1137,1.);
#725=VECTOR('',#1142,1.);
#726=VECTOR('',#1143,1.);
#727=VECTOR('',#1146,1.);
#728=VECTOR('',#1149,1.);
#729=VECTOR('',#1152,1.);
#730=VECTOR('',#1155,1.);
#731=VECTOR('',#1158,1.);
#732=VECTOR('',#1163,1.);
#733=VECTOR('',#1164,1.);
#734=VECTOR('',#1167,1.);
#735=VECTOR('',#1170,1.);
#736=VECTOR('',#1173,1.);
#737=VECTOR('',#1176,1.);
#738=VECTOR('',#1179,1.);
#739=VECTOR('',#1180,1.);
#740=VECTOR('',#1185,1.);
#741=VECTOR('',#1188,1.);
#742=VECTOR('',#1191,1.);
#743=VECTOR('',#1194,1.);
#744=VECTOR('',#1197,1.);
#745=VECTOR('',#1200,1.);
#746=VECTOR('',#1203,1.);
#747=VECTOR('',#1206,1.);
#748=VECTOR('',#1209,1.);
#749=VECTOR('',#1212,1.);
#750=VECTOR('',#1215,1.);
#751=VECTOR('',#1218,1.);
#752=VECTOR('',#1221,1.);
#753=VECTOR('',#1224,1.);
#754=VECTOR('',#1227,1.);
#755=VECTOR('',#1230,1.);
#756=VECTOR('',#1235,1.);
#757=VECTOR('',#1236,1.);
#758=VECTOR('',#1239,1.);
#759=VECTOR('',#1240,1.);
#760=VECTOR('',#1243,1.);
#761=VECTOR('',#1244,1.);
#762=VECTOR('',#1247,1.);
#763=VECTOR('',#1248,1.);
#764=VECTOR('',#1251,1.);
#765=VECTOR('',#1252,1.);
#766=VECTOR('',#1255,1.);
#767=VECTOR('',#1256,1.);
#768=VECTOR('',#1259,1.);
#769=VECTOR('',#1260,1.);
#770=VECTOR('',#1263,1.);
#771=VECTOR('',#1264,1.);
#772=VECTOR('',#1267,1.);
#773=VECTOR('',#1268,1.);
#774=VECTOR('',#1271,1.);
#775=VECTOR('',#1272,1.);
#776=VECTOR('',#1275,1.);
#777=VECTOR('',#1278,1.);
#778=VECTOR('',#1281,1.);
#779=VECTOR('',#1284,1.);
#780=VECTOR('',#1287,1.);
#781=VECTOR('',#1290,1.);
#782=VECTOR('',#1293,1.);
#783=VECTOR('',#1296,1.);
#784=VECTOR('',#1299,1.);
#785=VECTOR('',#1302,1.);
#786=VECTOR('',#1305,1.);
#787=VECTOR('',#1306,1.);
#788=VECTOR('',#1313,1.);
#789=VECTOR('',#1316,1.);
#790=VECTOR('',#1321,1.);
#791=VECTOR('',#1324,1.);
#792=VECTOR('',#1329,1.);
#793=VECTOR('',#1332,1.);
#794=VECTOR('',#1337,1.);
#795=VECTOR('',#1340,1.);
#796=VECTOR('',#1345,1.);
#797=VECTOR('',#1348,1.);
#798=VECTOR('',#1353,1.);
#799=VECTOR('',#1356,1.);
#800=VECTOR('',#1361,1.);
#801=VECTOR('',#1364,1.);
#802=VECTOR('',#1369,1.);
#803=VECTOR('',#1372,1.);
#804=EDGE_LOOP('',(#84,#85,#86,#87,#88,#89,#90,#91,#92,#93,#94,#95,#96,
#97,#98,#99,#100,#101,#102,#103,#104,#105,#106,#107,#108,#109,#110,#111,
#112,#113,#114,#115,#116,#117,#118,#119,#120,#121,#122,#123,#124,#125,#126,
#127,#128,#129,#130,#131));
#805=EDGE_LOOP('',(#132,#133,#134,#135,#136,#137,#138,#139,#140,#141,#142,
#143,#144,#145,#146,#147,#148,#149,#150,#151,#152,#153,#154,#155,#156,#157,
#158,#159,#160,#161,#162,#163,#164,#165,#166,#167,#168,#169,#170,#171,#172,
#173,#174,#175,#176,#177,#178,#179));
#806=EDGE_LOOP('',(#180,#181,#182,#183));
#807=EDGE_LOOP('',(#184,#185,#186,#187));
#808=EDGE_LOOP('',(#188,#189,#190,#191));
#809=EDGE_LOOP('',(#192,#193,#194,#195));
#810=EDGE_LOOP('',(#196,#197,#198,#199));
#811=EDGE_LOOP('',(#200,#201,#202,#203));
#812=EDGE_LOOP('',(#204,#205,#206,#207));
#813=EDGE_LOOP('',(#208,#209,#210,#211));
#814=EDGE_LOOP('',(#212,#213,#214,#215));
#815=EDGE_LOOP('',(#216,#217,#218,#219));
#816=EDGE_LOOP('',(#220,#221,#222,#223));
#817=EDGE_LOOP('',(#224,#225,#226,#227));
#818=EDGE_LOOP('',(#228,#229,#230,#231));
#819=EDGE_LOOP('',(#232,#233,#234,#235));
#820=EDGE_LOOP('',(#236,#237,#238,#239));
#821=EDGE_LOOP('',(#240,#241,#242,#243));
#822=EDGE_LOOP('',(#244,#245,#246,#247));
#823=EDGE_LOOP('',(#248,#249,#250,#251));
#824=EDGE_LOOP('',(#252,#253,#254,#255));
#825=EDGE_LOOP('',(#256,#257,#258,#259));
#826=EDGE_LOOP('',(#260,#261,#262,#263));
#827=EDGE_LOOP('',(#264,#265,#266,#267));
#828=EDGE_LOOP('',(#268,#269,#270,#271));
#829=EDGE_LOOP('',(#272,#273,#274,#275));
#830=EDGE_LOOP('',(#276,#277,#278,#279));
#831=EDGE_LOOP('',(#280,#281,#282,#283));
#832=EDGE_LOOP('',(#284,#285,#286,#287));
#833=EDGE_LOOP('',(#288,#289,#290,#291));
#834=EDGE_LOOP('',(#292,#293,#294,#295));
#835=EDGE_LOOP('',(#296,#297,#298,#299));
#836=EDGE_LOOP('',(#300,#301,#302,#303));
#837=EDGE_LOOP('',(#304,#305,#306,#307));
#838=EDGE_LOOP('',(#308,#309,#310,#311));
#839=EDGE_LOOP('',(#312,#313,#314,#315));
#840=EDGE_LOOP('',(#316,#317,#318,#319));
#841=EDGE_LOOP('',(#320,#321,#322,#323));
#842=EDGE_LOOP('',(#324,#325,#326,#327));
#843=EDGE_LOOP('',(#328,#329,#330,#331));
#844=EDGE_LOOP('',(#332,#333,#334,#335));
#845=EDGE_LOOP('',(#336,#337,#338,#339));
#846=EDGE_LOOP('',(#340,#341,#342,#343));
#847=EDGE_LOOP('',(#344,#345,#346,#347));
#848=EDGE_LOOP('',(#348,#349,#350,#351));
#849=EDGE_LOOP('',(#352,#353,#354,#355));
#850=EDGE_LOOP('',(#356,#357,#358,#359));
#851=EDGE_LOOP('',(#360,#361,#362,#363));
#852=EDGE_LOOP('',(#364,#365,#366,#367));
#853=EDGE_LOOP('',(#368,#369,#370,#371));
#854=FACE_BOUND('',#804,.T.);
#855=FACE_BOUND('',#805,.T.);
#856=FACE_BOUND('',#806,.T.);
#857=FACE_BOUND('',#807,.T.);
#858=FACE_BOUND('',#808,.T.);
#859=FACE_BOUND('',#809,.T.);
#860=FACE_BOUND('',#810,.T.);
#861=FACE_BOUND('',#811,.T.);
#862=FACE_BOUND('',#812,.T.);
#863=FACE_BOUND('',#813,.T.);
#864=FACE_BOUND('',#814,.T.);
#865=FACE_BOUND('',#815,.T.);
#866=FACE_BOUND('',#816,.T.);
#867=FACE_BOUND('',#817,.T.);
#868=FACE_BOUND('',#818,.T.);
#869=FACE_BOUND('',#819,.T.);
#870=FACE_BOUND('',#820,.T.);
#871=FACE_BOUND('',#821,.T.);
#872=FACE_BOUND('',#822,.T.);
#873=FACE_BOUND('',#823,.T.);
#874=FACE_BOUND('',#824,.T.);
#875=FACE_BOUND('',#825,.T.);
#876=FACE_BOUND('',#826,.T.);
#877=FACE_BOUND('',#827,.T.);
#878=FACE_BOUND('',#828,.T.);
#879=FACE_BOUND('',#829,.T.);
#880=FACE_BOUND('',#830,.T.);
#881=FACE_BOUND('',#831,.T.);
#882=FACE_BOUND('',#832,.T.);
#883=FACE_BOUND('',#833,.T.);
#884=FACE_BOUND('',#834,.T.);
#885=FACE_BOUND('',#835,.T.);
#886=FACE_BOUND('',#836,.T.);
#887=FACE_BOUND('',#837,.T.);
#888=FACE_BOUND('',#838,.T.);
#889=FACE_BOUND('',#839,.T.);
#890=FACE_BOUND('',#840,.T.);
#891=FACE_BOUND('',#841,.T.);
#892=FACE_BOUND('',#842,.T.);
#893=FACE_BOUND('',#843,.T.);
#894=FACE_BOUND('',#844,.T.);
#895=FACE_BOUND('',#845,.T.);
#896=FACE_BOUND('',#846,.T.);
#897=FACE_BOUND('',#847,.T.);
#898=FACE_BOUND('',#848,.T.);
#899=FACE_BOUND('',#849,.T.);
#900=FACE_BOUND('',#850,.T.);
#901=FACE_BOUND('',#851,.T.);
#902=FACE_BOUND('',#852,.T.);
#903=FACE_BOUND('',#853,.T.);
#904=PLANE('',#985);
#905=PLANE('',#1010);
#906=PLANE('',#1045);
#907=PLANE('',#1047);
#908=PLANE('',#1049);
#909=PLANE('',#1051);
#910=PLANE('',#1053);
#911=PLANE('',#1054);
#912=PLANE('',#1055);
#913=PLANE('',#1056);
#914=PLANE('',#1057);
#915=PLANE('',#1058);
#916=PLANE('',#1060);
#917=PLANE('',#1061);
#918=PLANE('',#1063);
#919=PLANE('',#1064);
#920=PLANE('',#1066);
#921=PLANE('',#1067);
#922=PLANE('',#1069);
#923=PLANE('',#1070);
#924=PLANE('',#1072);
#925=PLANE('',#1073);
#926=PLANE('',#1075);
#927=PLANE('',#1076);
#928=PLANE('',#1078);
#929=PLANE('',#1079);
#930=ADVANCED_FACE('',(#854),#904,.F.);
#931=ADVANCED_FACE('',(#855),#905,.T.);
#932=ADVANCED_FACE('',(#856),#12,.F.);
#933=ADVANCED_FACE('',(#857),#13,.T.);
#934=ADVANCED_FACE('',(#858),#14,.T.);
#935=ADVANCED_FACE('',(#859),#15,.T.);
#936=ADVANCED_FACE('',(#860),#16,.T.);
#937=ADVANCED_FACE('',(#861),#17,.T.);
#938=ADVANCED_FACE('',(#862),#18,.T.);
#939=ADVANCED_FACE('',(#863),#19,.T.);
#940=ADVANCED_FACE('',(#864),#20,.T.);
#941=ADVANCED_FACE('',(#865),#21,.F.);
#942=ADVANCED_FACE('',(#866),#906,.F.);
#943=ADVANCED_FACE('',(#867),#22,.F.);
#944=ADVANCED_FACE('',(#868),#907,.F.);
#945=ADVANCED_FACE('',(#869),#23,.F.);
#946=ADVANCED_FACE('',(#870),#908,.F.);
#947=ADVANCED_FACE('',(#871),#24,.F.);
#948=ADVANCED_FACE('',(#872),#909,.F.);
#949=ADVANCED_FACE('',(#873),#25,.F.);
#950=ADVANCED_FACE('',(#874),#910,.F.);
#951=ADVANCED_FACE('',(#875),#911,.F.);
#952=ADVANCED_FACE('',(#876),#912,.F.);
#953=ADVANCED_FACE('',(#877),#913,.F.);
#954=ADVANCED_FACE('',(#878),#914,.F.);
#955=ADVANCED_FACE('',(#879),#915,.F.);
#956=ADVANCED_FACE('',(#880),#26,.F.);
#957=ADVANCED_FACE('',(#881),#916,.F.);
#958=ADVANCED_FACE('',(#882),#917,.F.);
#959=ADVANCED_FACE('',(#883),#27,.F.);
#960=ADVANCED_FACE('',(#884),#918,.F.);
#961=ADVANCED_FACE('',(#885),#919,.F.);
#962=ADVANCED_FACE('',(#886),#28,.F.);
#963=ADVANCED_FACE('',(#887),#920,.F.);
#964=ADVANCED_FACE('',(#888),#921,.F.);
#965=ADVANCED_FACE('',(#889),#29,.F.);
#966=ADVANCED_FACE('',(#890),#922,.F.);
#967=ADVANCED_FACE('',(#891),#923,.F.);
#968=ADVANCED_FACE('',(#892),#30,.F.);
#969=ADVANCED_FACE('',(#893),#924,.F.);
#970=ADVANCED_FACE('',(#894),#925,.F.);
#971=ADVANCED_FACE('',(#895),#31,.F.);
#972=ADVANCED_FACE('',(#896),#926,.F.);
#973=ADVANCED_FACE('',(#897),#927,.F.);
#974=ADVANCED_FACE('',(#898),#32,.F.);
#975=ADVANCED_FACE('',(#899),#928,.F.);
#976=ADVANCED_FACE('',(#900),#929,.F.);
#977=ADVANCED_FACE('',(#901),#33,.T.);
#978=ADVANCED_FACE('',(#902),#34,.T.);
#979=ADVANCED_FACE('',(#903),#35,.T.);
#980=CLOSED_SHELL('',(#930,#931,#932,#933,#934,#935,#936,#937,#938,#939,
#940,#941,#942,#943,#944,#945,#946,#947,#948,#949,#950,#951,#952,#953,#954,
#955,#956,#957,#958,#959,#960,#961,#962,#963,#964,#965,#966,#967,#968,#969,
#970,#971,#972,#973,#974,#975,#976,#977,#978,#979));
#981=MANIFOLD_SOLID_BREP('',#980);
#982=SHAPE_DEFINITION_REPRESENTATION(#1673,#983);
#983=SHAPE_REPRESENTATION('id2',(#984),#1668);
#984=AXIS2_PLACEMENT_3D('',#1377,#1083,#1084);
#985=AXIS2_PLACEMENT_3D('',#1378,#1085,#1086);
#986=AXIS2_PLACEMENT_3D('',#1382,#1088,#1089);
#987=AXIS2_PLACEMENT_3D('',#1384,#1090,#1091);
#988=AXIS2_PLACEMENT_3D('',#1388,#1093,#1094);
#989=AXIS2_PLACEMENT_3D('',#1392,#1096,#1097);
#990=AXIS2_PLACEMENT_3D('',#1396,#1099,#1100);
#991=AXIS2_PLACEMENT_3D('',#1400,#1102,#1103);
#992=AXIS2_PLACEMENT_3D('',#1404,#1105,#1106);
#993=AXIS2_PLACEMENT_3D('',#1408,#1108,#1109);
#994=AXIS2_PLACEMENT_3D('',#1412,#1111,#1112);
#995=AXIS2_PLACEMENT_3D('',#1416,#1114,#1115);
#996=AXIS2_PLACEMENT_3D('',#1420,#1117,#1118);
#997=AXIS2_PLACEMENT_3D('',#1424,#1120,#1121);
#998=AXIS2_PLACEMENT_3D('',#1428,#1123,#1124);
#999=AXIS2_PLACEMENT_3D('',#1432,#1126,#1127);
#1000=AXIS2_PLACEMENT_3D('',#1436,#1129,#1130);
#1001=AXIS2_PLACEMENT_3D('',#1440,#1132,#1133);
#1002=AXIS2_PLACEMENT_3D('',#1444,#1135,#1136);
#1003=AXIS2_PLACEMENT_3D('',#1448,#1138,#1139);
#1004=AXIS2_PLACEMENT_3D('',#1450,#1140,#1141);
#1005=AXIS2_PLACEMENT_3D('',#1456,#1144,#1145);
#1006=AXIS2_PLACEMENT_3D('',#1460,#1147,#1148);
#1007=AXIS2_PLACEMENT_3D('',#1464,#1150,#1151);
#1008=AXIS2_PLACEMENT_3D('',#1468,#1153,#1154);
#1009=AXIS2_PLACEMENT_3D('',#1472,#1156,#1157);
#1010=AXIS2_PLACEMENT_3D('',#1475,#1159,#1160);
#1011=AXIS2_PLACEMENT_3D('',#1476,#1161,#1162);
#1012=AXIS2_PLACEMENT_3D('',#1483,#1165,#1166);
#1013=AXIS2_PLACEMENT_3D('',#1487,#1168,#1169);
#1014=AXIS2_PLACEMENT_3D('',#1491,#1171,#1172);
#1015=AXIS2_PLACEMENT_3D('',#1495,#1174,#1175);
#1016=AXIS2_PLACEMENT_3D('',#1499,#1177,#1178);
#1017=AXIS2_PLACEMENT_3D('',#1505,#1181,#1182);
#1018=AXIS2_PLACEMENT_3D('',#1507,#1183,#1184);
#1019=AXIS2_PLACEMENT_3D('',#1511,#1186,#1187);
#1020=AXIS2_PLACEMENT_3D('',#1515,#1189,#1190);
#1021=AXIS2_PLACEMENT_3D('',#1519,#1192,#1193);
#1022=AXIS2_PLACEMENT_3D('',#1523,#1195,#1196);
#1023=AXIS2_PLACEMENT_3D('',#1527,#1198,#1199);
#1024=AXIS2_PLACEMENT_3D('',#1531,#1201,#1202);
#1025=AXIS2_PLACEMENT_3D('',#1535,#1204,#1205);
#1026=AXIS2_PLACEMENT_3D('',#1539,#1207,#1208);
#1027=AXIS2_PLACEMENT_3D('',#1543,#1210,#1211);
#1028=AXIS2_PLACEMENT_3D('',#1547,#1213,#1214);
#1029=AXIS2_PLACEMENT_3D('',#1551,#1216,#1217);
#1030=AXIS2_PLACEMENT_3D('',#1555,#1219,#1220);
#1031=AXIS2_PLACEMENT_3D('',#1559,#1222,#1223);
#1032=AXIS2_PLACEMENT_3D('',#1563,#1225,#1226);
#1033=AXIS2_PLACEMENT_3D('',#1567,#1228,#1229);
#1034=AXIS2_PLACEMENT_3D('',#1571,#1231,#1232);
#1035=AXIS2_PLACEMENT_3D('',#1572,#1233,#1234);
#1036=AXIS2_PLACEMENT_3D('',#1575,#1237,#1238);
#1037=AXIS2_PLACEMENT_3D('',#1578,#1241,#1242);
#1038=AXIS2_PLACEMENT_3D('',#1581,#1245,#1246);
#1039=AXIS2_PLACEMENT_3D('',#1584,#1249,#1250);
#1040=AXIS2_PLACEMENT_3D('',#1587,#1253,#1254);
#1041=AXIS2_PLACEMENT_3D('',#1590,#1257,#1258);
#1042=AXIS2_PLACEMENT_3D('',#1593,#1261,#1262);
#1043=AXIS2_PLACEMENT_3D('',#1596,#1265,#1266);
#1044=AXIS2_PLACEMENT_3D('',#1599,#1269,#1270);
#1045=AXIS2_PLACEMENT_3D('',#1602,#1273,#1274);
#1046=AXIS2_PLACEMENT_3D('',#1604,#1276,#1277);
#1047=AXIS2_PLACEMENT_3D('',#1606,#1279,#1280);
#1048=AXIS2_PLACEMENT_3D('',#1608,#1282,#1283);
#1049=AXIS2_PLACEMENT_3D('',#1610,#1285,#1286);
#1050=AXIS2_PLACEMENT_3D('',#1612,#1288,#1289);
#1051=AXIS2_PLACEMENT_3D('',#1614,#1291,#1292);
#1052=AXIS2_PLACEMENT_3D('',#1616,#1294,#1295);
#1053=AXIS2_PLACEMENT_3D('',#1618,#1297,#1298);
#1054=AXIS2_PLACEMENT_3D('',#1620,#1300,#1301);
#1055=AXIS2_PLACEMENT_3D('',#1622,#1303,#1304);
#1056=AXIS2_PLACEMENT_3D('',#1625,#1307,#1308);
#1057=AXIS2_PLACEMENT_3D('',#1626,#1309,#1310);
#1058=AXIS2_PLACEMENT_3D('',#1627,#1311,#1312);
#1059=AXIS2_PLACEMENT_3D('',#1629,#1314,#1315);
#1060=AXIS2_PLACEMENT_3D('',#1631,#1317,#1318);
#1061=AXIS2_PLACEMENT_3D('',#1632,#1319,#1320);
#1062=AXIS2_PLACEMENT_3D('',#1634,#1322,#1323);
#1063=AXIS2_PLACEMENT_3D('',#1636,#1325,#1326);
#1064=AXIS2_PLACEMENT_3D('',#1637,#1327,#1328);
#1065=AXIS2_PLACEMENT_3D('',#1639,#1330,#1331);
#1066=AXIS2_PLACEMENT_3D('',#1641,#1333,#1334);
#1067=AXIS2_PLACEMENT_3D('',#1642,#1335,#1336);
#1068=AXIS2_PLACEMENT_3D('',#1644,#1338,#1339);
#1069=AXIS2_PLACEMENT_3D('',#1646,#1341,#1342);
#1070=AXIS2_PLACEMENT_3D('',#1647,#1343,#1344);
#1071=AXIS2_PLACEMENT_3D('',#1649,#1346,#1347);
#1072=AXIS2_PLACEMENT_3D('',#1651,#1349,#1350);
#1073=AXIS2_PLACEMENT_3D('',#1652,#1351,#1352);
#1074=AXIS2_PLACEMENT_3D('',#1654,#1354,#1355);
#1075=AXIS2_PLACEMENT_3D('',#1656,#1357,#1358);
#1076=AXIS2_PLACEMENT_3D('',#1657,#1359,#1360);
#1077=AXIS2_PLACEMENT_3D('',#1659,#1362,#1363);
#1078=AXIS2_PLACEMENT_3D('',#1661,#1365,#1366);
#1079=AXIS2_PLACEMENT_3D('',#1662,#1367,#1368);
#1080=AXIS2_PLACEMENT_3D('',#1664,#1370,#1371);
#1081=AXIS2_PLACEMENT_3D('',#1666,#1373,#1374);
#1082=AXIS2_PLACEMENT_3D('',#1667,#1375,#1376);
#1083=DIRECTION('',(0.,0.,1.));
#1084=DIRECTION('',(1.,0.,0.));
#1085=DIRECTION('',(0.,0.,-1.));
#1086=DIRECTION('',(-1.,0.,0.));
#1087=DIRECTION('',(-0.887010833178223,-0.461748613235031,0.));
#1088=DIRECTION('',(0.,0.,-1.));
#1089=DIRECTION('',(1.,0.,0.));
#1090=DIRECTION('',(0.,0.,1.));
#1091=DIRECTION('',(0.98078528040323,0.195090322016129,0.));
#1092=DIRECTION('',(0.642787609686542,0.766044443118976,0.));
#1093=DIRECTION('',(0.,0.,1.));
#1094=DIRECTION('',(1.,0.,0.));
#1095=DIRECTION('',(-0.99405633822232,-0.108866874851966,0.));
#1096=DIRECTION('',(0.,0.,1.));
#1097=DIRECTION('',(0.923879532511286,0.382683432365091,0.));
#1098=DIRECTION('',(0.480988768919391,0.876726755707506,0.));
#1099=DIRECTION('',(0.,0.,1.));
#1100=DIRECTION('',(1.,0.,0.));
#1101=DIRECTION('',(-0.953716950748226,-0.300705799504275,0.));
#1102=DIRECTION('',(0.,0.,1.));
#1103=DIRECTION('',(0.831469612302544,0.555570233019603,0.));
#1104=DIRECTION('',(0.300705799504276,0.953716950748226,0.));
#1105=DIRECTION('',(0.,0.,1.));
#1106=DIRECTION('',(1.,0.,0.));
#1107=DIRECTION('',(-0.876726755707507,-0.480988768919389,0.));
#1108=DIRECTION('',(0.,0.,1.));
#1109=DIRECTION('',(0.707106781186546,0.707106781186549,0.));
#1110=DIRECTION('',(0.108866874851967,0.994056338222319,0.));
#1111=DIRECTION('',(0.,0.,1.));
#1112=DIRECTION('',(1.,0.,0.));
#1113=DIRECTION('',(-0.766044443118976,-0.642787609686541,0.));
#1114=DIRECTION('',(0.,0.,1.));
#1115=DIRECTION('',(0.5555702330196,0.831469612302546,0.));
#1116=DIRECTION('',(-0.0871557427476559,0.996194698091746,0.));
#1117=DIRECTION('',(0.,0.,1.));
#1118=DIRECTION('',(1.,0.,0.));
#1119=DIRECTION('',(-0.625923472184057,-0.779884483092884,0.));
#1120=DIRECTION('',(0.,0.,1.));
#1121=DIRECTION('',(0.382683432365087,0.923879532511288,0.));
#1122=DIRECTION('',(-0.27982901403099,0.960049854385929,0.));
#1123=DIRECTION('',(0.,0.,1.));
#1124=DIRECTION('',(1.,0.,0.));
#1125=DIRECTION('',(-0.461748613235031,-0.887010833178223,0.));
#1126=DIRECTION('',(0.,0.,1.));
#1127=DIRECTION('',(0.195090322016125,0.980785280403231,0.));
#1128=DIRECTION('',(-0.461748613235033,0.887010833178222,0.));
#1129=DIRECTION('',(0.,0.,1.));
#1130=DIRECTION('',(1.,0.,0.));
#1131=DIRECTION('',(-0.279829014030988,-0.96004985438593,0.));
#1132=DIRECTION('',(0.,0.,1.));
#1133=DIRECTION('',(-3.49148133884313E-15,1.,0.));
#1134=DIRECTION('',(-0.625923472184058,0.779884483092882,0.));
#1135=DIRECTION('',(0.,0.,1.));
#1136=DIRECTION('',(1.,0.,0.));
#1137=DIRECTION('',(-0.0871557427476539,-0.996194698091746,0.));
#1138=DIRECTION('',(0.,0.,-1.));
#1139=DIRECTION('',(-1.,0.,0.));
#1140=DIRECTION('',(0.,0.,-1.));
#1141=DIRECTION('',(-1.,0.,0.));
#1142=DIRECTION('',(-0.887010833178223,0.461748613235032,0.));
#1143=DIRECTION('',(-1.,3.48999989809142E-16,0.));
#1144=DIRECTION('',(0.,0.,-1.));
#1145=DIRECTION('',(-1.,0.,0.));
#1146=DIRECTION('',(0.5,-0.866025403784438,0.));
#1147=DIRECTION('',(0.,0.,-1.));
#1148=DIRECTION('',(1.,0.,0.));
#1149=DIRECTION('',(0.,-1.,0.));
#1150=DIRECTION('',(0.,0.,-1.));
#1151=DIRECTION('',(1.,0.,0.));
#1152=DIRECTION('',(0.,1.,0.));
#1153=DIRECTION('',(0.,0.,-1.));
#1154=DIRECTION('',(1.,0.,0.));
#1155=DIRECTION('',(0.5,0.866025403784438,0.));
#1156=DIRECTION('',(0.,0.,-1.));
#1157=DIRECTION('',(1.,0.,0.));
#1158=DIRECTION('',(-1.,-6.97999979618284E-16,0.));
#1159=DIRECTION('',(0.,0.,-1.));
#1160=DIRECTION('',(-1.,0.,0.));
#1161=DIRECTION('',(0.,0.,-1.));
#1162=DIRECTION('',(-1.,0.,0.));
#1163=DIRECTION('',(-0.887010833178223,-0.461748613235031,0.));
#1164=DIRECTION('',(-1.,-6.97999979618284E-16,0.));
#1165=DIRECTION('',(0.,0.,-1.));
#1166=DIRECTION('',(1.,0.,0.));
#1167=DIRECTION('',(0.5,0.866025403784438,0.));
#1168=DIRECTION('',(0.,0.,-1.));
#1169=DIRECTION('',(1.,0.,0.));
#1170=DIRECTION('',(0.,1.,0.));
#1171=DIRECTION('',(0.,0.,-1.));
#1172=DIRECTION('',(1.,0.,0.));
#1173=DIRECTION('',(0.,-1.,0.));
#1174=DIRECTION('',(0.,0.,-1.));
#1175=DIRECTION('',(1.,0.,0.));
#1176=DIRECTION('',(0.5,-0.866025403784438,0.));
#1177=DIRECTION('',(0.,0.,-1.));
#1178=DIRECTION('',(-1.,0.,0.));
#1179=DIRECTION('',(-1.,3.48999989809142E-16,0.));
#1180=DIRECTION('',(-0.887010833178223,0.461748613235032,0.));
#1181=DIRECTION('',(0.,0.,-1.));
#1182=DIRECTION('',(-1.,0.,0.));
#1183=DIRECTION('',(0.,0.,-1.));
#1184=DIRECTION('',(-1.,0.,0.));
#1185=DIRECTION('',(-0.0871557427476539,-0.996194698091746,0.));
#1186=DIRECTION('',(0.,0.,1.));
#1187=DIRECTION('',(1.,0.,0.));
#1188=DIRECTION('',(-0.625923472184058,0.779884483092882,0.));
#1189=DIRECTION('',(0.,0.,-1.));
#1190=DIRECTION('',(-1.,0.,0.));
#1191=DIRECTION('',(-0.279829014030988,-0.96004985438593,0.));
#1192=DIRECTION('',(0.,0.,1.));
#1193=DIRECTION('',(1.,0.,0.));
#1194=DIRECTION('',(-0.461748613235033,0.887010833178222,0.));
#1195=DIRECTION('',(0.,0.,-1.));
#1196=DIRECTION('',(-1.,0.,0.));
#1197=DIRECTION('',(-0.461748613235031,-0.887010833178223,0.));
#1198=DIRECTION('',(0.,0.,1.));
#1199=DIRECTION('',(1.,0.,0.));
#1200=DIRECTION('',(-0.27982901403099,0.960049854385929,0.));
#1201=DIRECTION('',(0.,0.,-1.));
#1202=DIRECTION('',(-1.,0.,0.));
#1203=DIRECTION('',(-0.625923472184057,-0.779884483092884,0.));
#1204=DIRECTION('',(0.,0.,1.));
#1205=DIRECTION('',(1.,0.,0.));
#1206=DIRECTION('',(-0.0871557427476559,0.996194698091746,0.));
#1207=DIRECTION('',(0.,0.,-1.));
#1208=DIRECTION('',(-1.,0.,0.));
#1209=DIRECTION('',(-0.766044443118976,-0.642787609686541,0.));
#1210=DIRECTION('',(0.,0.,1.));
#1211=DIRECTION('',(1.,0.,0.));
#1212=DIRECTION('',(0.108866874851967,0.994056338222319,0.));
#1213=DIRECTION('',(0.,0.,-1.));
#1214=DIRECTION('',(-1.,0.,0.));
#1215=DIRECTION('',(-0.876726755707507,-0.480988768919389,0.));
#1216=DIRECTION('',(0.,0.,1.));
#1217=DIRECTION('',(1.,0.,0.));
#1218=DIRECTION('',(0.300705799504276,0.953716950748226,0.));
#1219=DIRECTION('',(0.,0.,-1.));
#1220=DIRECTION('',(-1.,0.,0.));
#1221=DIRECTION('',(-0.953716950748226,-0.300705799504275,0.));
#1222=DIRECTION('',(0.,0.,1.));
#1223=DIRECTION('',(1.,0.,0.));
#1224=DIRECTION('',(0.480988768919391,0.876726755707506,0.));
#1225=DIRECTION('',(0.,0.,-1.));
#1226=DIRECTION('',(-1.,0.,0.));
#1227=DIRECTION('',(-0.99405633822232,-0.108866874851966,0.));
#1228=DIRECTION('',(0.,0.,1.));
#1229=DIRECTION('',(1.,0.,0.));
#1230=DIRECTION('',(0.642787609686542,0.766044443118975,0.));
#1231=DIRECTION('',(0.,0.,-1.));
#1232=DIRECTION('',(-1.,0.,0.));
#1233=DIRECTION('',(0.,0.,1.));
#1234=DIRECTION('',(1.,0.,0.));
#1235=DIRECTION('',(0.,0.,1.));
#1236=DIRECTION('',(0.,0.,1.));
#1237=DIRECTION('',(0.,0.,-1.));
#1238=DIRECTION('',(-1.,0.,0.));
#1239=DIRECTION('',(0.,0.,1.));
#1240=DIRECTION('',(0.,0.,1.));
#1241=DIRECTION('',(0.,0.,-1.));
#1242=DIRECTION('',(-1.,0.,0.));
#1243=DIRECTION('',(0.,0.,1.));
#1244=DIRECTION('',(0.,0.,1.));
#1245=DIRECTION('',(0.,0.,-1.));
#1246=DIRECTION('',(-1.,0.,0.));
#1247=DIRECTION('',(0.,0.,1.));
#1248=DIRECTION('',(0.,0.,1.));
#1249=DIRECTION('',(0.,0.,-1.));
#1250=DIRECTION('',(-1.,0.,0.));
#1251=DIRECTION('',(0.,0.,1.));
#1252=DIRECTION('',(0.,0.,1.));
#1253=DIRECTION('',(0.,0.,-1.));
#1254=DIRECTION('',(-1.,0.,0.));
#1255=DIRECTION('',(0.,0.,1.));
#1256=DIRECTION('',(0.,0.,1.));
#1257=DIRECTION('',(0.,0.,-1.));
#1258=DIRECTION('',(-1.,0.,0.));
#1259=DIRECTION('',(0.,0.,1.));
#1260=DIRECTION('',(0.,0.,1.));
#1261=DIRECTION('',(0.,0.,-1.));
#1262=DIRECTION('',(-1.,0.,0.));
#1263=DIRECTION('',(0.,0.,1.));
#1264=DIRECTION('',(0.,0.,1.));
#1265=DIRECTION('',(0.,0.,-1.));
#1266=DIRECTION('',(-1.,0.,0.));
#1267=DIRECTION('',(0.,0.,1.));
#1268=DIRECTION('',(0.,0.,1.));
#1269=DIRECTION('',(0.,0.,-1.));
#1270=DIRECTION('',(-1.,0.,0.));
#1271=DIRECTION('',(0.,0.,-1.));
#1272=DIRECTION('',(0.,0.,-1.));
#1273=DIRECTION('',(0.866025403784438,0.5,0.));
#1274=DIRECTION('',(-0.5,0.866025403784438,0.));
#1275=DIRECTION('',(0.,0.,-1.));
#1276=DIRECTION('',(0.,0.,-1.));
#1277=DIRECTION('',(-1.,0.,0.));
#1278=DIRECTION('',(0.,0.,-1.));
#1279=DIRECTION('',(1.,0.,0.));
#1280=DIRECTION('',(0.,0.,-1.));
#1281=DIRECTION('',(0.,0.,-1.));
#1282=DIRECTION('',(0.,0.,-1.));
#1283=DIRECTION('',(-1.,0.,0.));
#1284=DIRECTION('',(0.,0.,-1.));
#1285=DIRECTION('',(-1.,0.,0.));
#1286=DIRECTION('',(0.,0.,1.));
#1287=DIRECTION('',(0.,0.,-1.));
#1288=DIRECTION('',(0.,0.,-1.));
#1289=DIRECTION('',(-1.,0.,0.));
#1290=DIRECTION('',(0.,0.,-1.));
#1291=DIRECTION('',(-0.866025403784438,0.5,0.));
#1292=DIRECTION('',(-0.5,-0.866025403784438,0.));
#1293=DIRECTION('',(0.,0.,-1.));
#1294=DIRECTION('',(0.,0.,-1.));
#1295=DIRECTION('',(-1.,0.,0.));
#1296=DIRECTION('',(0.,0.,-1.));
#1297=DIRECTION('',(6.97999979618284E-16,-1.,0.));
#1298=DIRECTION('',(1.,6.97999979618284E-16,0.));
#1299=DIRECTION('',(0.,0.,-1.));
#1300=DIRECTION('',(0.461748613235031,-0.887010833178223,0.));
#1301=DIRECTION('',(0.887010833178223,0.461748613235031,0.));
#1302=DIRECTION('',(0.,0.,1.));
#1303=DIRECTION('',(-0.461748613235032,-0.887010833178223,0.));
#1304=DIRECTION('',(0.887010833178223,-0.461748613235032,0.));
#1305=DIRECTION('',(0.,0.,1.));
#1306=DIRECTION('',(0.,0.,-1.));
#1307=DIRECTION('',(-3.48999989809142E-16,-1.,0.));
#1308=DIRECTION('',(1.,-3.48999989809142E-16,0.));
#1309=DIRECTION('',(0.766044443118975,-0.642787609686542,0.));
#1310=DIRECTION('',(0.642787609686542,0.766044443118975,0.));
#1311=DIRECTION('',(-0.108866874851966,0.99405633822232,0.));
#1312=DIRECTION('',(-0.99405633822232,-0.108866874851966,0.));
#1313=DIRECTION('',(0.,0.,1.));
#1314=DIRECTION('',(0.,0.,1.));
#1315=DIRECTION('',(1.,0.,0.));
#1316=DIRECTION('',(0.,0.,1.));
#1317=DIRECTION('',(0.876726755707506,-0.480988768919391,0.));
#1318=DIRECTION('',(0.480988768919391,0.876726755707506,0.));
#1319=DIRECTION('',(-0.300705799504275,0.953716950748226,0.));
#1320=DIRECTION('',(-0.953716950748227,-0.300705799504275,0.));
#1321=DIRECTION('',(0.,0.,1.));
#1322=DIRECTION('',(0.,0.,1.));
#1323=DIRECTION('',(1.,0.,0.));
#1324=DIRECTION('',(0.,0.,1.));
#1325=DIRECTION('',(0.953716950748226,-0.300705799504276,0.));
#1326=DIRECTION('',(0.300705799504276,0.953716950748226,0.));
#1327=DIRECTION('',(-0.480988768919389,0.876726755707507,0.));
#1328=DIRECTION('',(-0.876726755707507,-0.480988768919389,0.));
#1329=DIRECTION('',(0.,0.,1.));
#1330=DIRECTION('',(0.,0.,1.));
#1331=DIRECTION('',(1.,0.,0.));
#1332=DIRECTION('',(0.,0.,1.));
#1333=DIRECTION('',(0.994056338222319,-0.108866874851967,0.));
#1334=DIRECTION('',(0.108866874851967,0.994056338222319,0.));
#1335=DIRECTION('',(-0.642787609686541,0.766044443118976,0.));
#1336=DIRECTION('',(-0.766044443118976,-0.642787609686541,0.));
#1337=DIRECTION('',(0.,0.,1.));
#1338=DIRECTION('',(0.,0.,1.));
#1339=DIRECTION('',(1.,0.,0.));
#1340=DIRECTION('',(0.,0.,1.));
#1341=DIRECTION('',(0.996194698091746,0.0871557427476558,0.));
#1342=DIRECTION('',(-0.0871557427476559,0.996194698091746,0.));
#1343=DIRECTION('',(-0.779884483092884,0.625923472184057,0.));
#1344=DIRECTION('',(-0.625923472184057,-0.779884483092884,0.));
#1345=DIRECTION('',(0.,0.,1.));
#1346=DIRECTION('',(0.,0.,1.));
#1347=DIRECTION('',(1.,0.,0.));
#1348=DIRECTION('',(0.,0.,1.));
#1349=DIRECTION('',(0.960049854385929,0.27982901403099,0.));
#1350=DIRECTION('',(-0.27982901403099,0.960049854385929,0.));
#1351=DIRECTION('',(-0.887010833178223,0.461748613235031,0.));
#1352=DIRECTION('',(-0.461748613235031,-0.887010833178223,0.));
#1353=DIRECTION('',(0.,0.,1.));
#1354=DIRECTION('',(0.,0.,1.));
#1355=DIRECTION('',(1.,0.,0.));
#1356=DIRECTION('',(0.,0.,1.));
#1357=DIRECTION('',(0.887010833178222,0.461748613235033,0.));
#1358=DIRECTION('',(-0.461748613235033,0.887010833178222,0.));
#1359=DIRECTION('',(-0.96004985438593,0.279829014030988,0.));
#1360=DIRECTION('',(-0.279829014030988,-0.96004985438593,0.));
#1361=DIRECTION('',(0.,0.,1.));
#1362=DIRECTION('',(0.,0.,1.));
#1363=DIRECTION('',(1.,0.,0.));
#1364=DIRECTION('',(0.,0.,1.));
#1365=DIRECTION('',(0.779884483092882,0.625923472184058,0.));
#1366=DIRECTION('',(-0.625923472184058,0.779884483092882,0.));
#1367=DIRECTION('',(-0.996194698091746,0.0871557427476539,0.));
#1368=DIRECTION('',(-0.0871557427476539,-0.996194698091746,0.));
#1369=DIRECTION('',(0.,0.,1.));
#1370=DIRECTION('',(0.,0.,1.));
#1371=DIRECTION('',(1.,0.,0.));
#1372=DIRECTION('',(0.,0.,1.));
#1373=DIRECTION('',(0.,0.,1.));
#1374=DIRECTION('',(1.,0.,0.));
#1375=DIRECTION('',(0.,0.,1.));
#1376=DIRECTION('',(1.,0.,0.));
#1377=CARTESIAN_POINT('',(0.,0.,0.));
#1378=CARTESIAN_POINT('',(0.,0.,0.0005));
#1379=CARTESIAN_POINT('',(-0.00826022314597606,-0.0043,0.0005));
#1380=CARTESIAN_POINT('',(-0.00826022314597606,-0.0043,0.0005));
#1381=CARTESIAN_POINT('',(-0.00966841808164263,-0.00503305988426184,0.0005));
#1382=CARTESIAN_POINT('',(0.,0.,0.0005));
#1383=CARTESIAN_POINT('',(-0.00736586572075106,-0.00803455177243039,0.0005));
#1384=CARTESIAN_POINT('',(-0.00770374946940937,-0.00840310919318409,0.0005));
#1385=CARTESIAN_POINT('',(-0.00732072724784988,-0.00872450299802736,0.0005));
#1386=CARTESIAN_POINT('',(-0.00732072724784988,-0.00872450299802736,0.0005));
#1387=CARTESIAN_POINT('',(-0.00777773007720716,-0.00926913776173961,0.0005));
#1388=CARTESIAN_POINT('',(0.,0.,0.0005));
#1389=CARTESIAN_POINT('',(-0.00758846889078041,-0.00942470900843406,0.0005));
#1390=CARTESIAN_POINT('',(-0.00758846889078041,-0.00942470900843406,0.0005));
#1391=CARTESIAN_POINT('',(-0.00597079224250192,-0.00924754460190351,0.0005));
#1392=CARTESIAN_POINT('',(-0.00591635880507593,-0.00974457277101467,0.0005));
#1393=CARTESIAN_POINT('',(-0.00547799542722218,-0.00998506715547437,0.0005));
#1394=CARTESIAN_POINT('',(-0.00547799542722218,-0.00998506715547437,0.0005));
#1395=CARTESIAN_POINT('',(-0.00581996410392463,-0.0106083937440608,0.0005));
#1396=CARTESIAN_POINT('',(0.,0.,0.0005));
#1397=CARTESIAN_POINT('',(-0.00560398907351154,-0.0107240527070676,0.0005));
#1398=CARTESIAN_POINT('',(-0.00560398907351154,-0.0107240527070676,0.0005));
#1399=CARTESIAN_POINT('',(-0.00405195868954781,-0.0102346994067004,0.0005));
#1400=CARTESIAN_POINT('',(-0.00390160578979567,-0.0107115578820745,0.0005));
#1401=CARTESIAN_POINT('',(-0.00342474731442155,-0.0108619107818267,0.0005));
#1402=CARTESIAN_POINT('',(-0.00342474731442155,-0.0108619107818267,0.0005));
#1403=CARTESIAN_POINT('',(-0.00363854017400174,-0.0115399751040535,0.0005));
#1404=CARTESIAN_POINT('',(0.,0.,0.0005));
#1405=CARTESIAN_POINT('',(-0.00340415109890091,-0.0116112770742865,0.0005));
#1406=CARTESIAN_POINT('',(-0.00340415109890091,-0.0116112770742865,0.0005));
#1407=CARTESIAN_POINT('',(-0.00197741063651898,-0.0108285404529834,0.0005));
#1408=CARTESIAN_POINT('',(-0.00173691625205929,-0.0112669038308371,0.0005));
#1409=CARTESIAN_POINT('',(-0.00123988808294813,-0.0113213372682631,0.0005));
#1410=CARTESIAN_POINT('',(-0.00123988808294813,-0.0113213372682631,0.0005));
#1411=CARTESIAN_POINT('',(-0.0013172891857088,-0.0120280816924901,0.0005));
#1412=CARTESIAN_POINT('',(0.,0.,0.0005));
#1413=CARTESIAN_POINT('',(-0.00107349350662944,-0.0120522865752198,0.0005));
#1414=CARTESIAN_POINT('',(-0.00107349350662944,-0.0120522865752198,0.0005));
#1415=CARTESIAN_POINT('',(0.0001731281983266,-0.0110062467623736,0.0005));
#1416=CARTESIAN_POINT('',(0.00049452200316987,-0.0113892689839331,0.0005));
#1417=CARTESIAN_POINT('',(0.000992619352215745,-0.0113456911125593,0.0005));
#1418=CARTESIAN_POINT('',(0.000992619352215745,-0.0113456911125593,0.0005));
#1419=CARTESIAN_POINT('',(0.00105458448724664,-0.0120539558469101,0.0005));
#1420=CARTESIAN_POINT('',(0.,0.,0.0005));
#1421=CARTESIAN_POINT('',(0.0012984178390797,-0.0120301334620676,0.0005));
#1422=CARTESIAN_POINT('',(0.0012984178390797,-0.0120301334620676,0.0005));
#1423=CARTESIAN_POINT('',(0.0023170138136019,-0.0107609891810602,0.0005));
#1424=CARTESIAN_POINT('',(0.00270695605514835,-0.0110739509171522,0.0005));
#1425=CARTESIAN_POINT('',(0.00318698098234131,-0.0109340364101367,0.0005));
#1426=CARTESIAN_POINT('',(0.00318698098234131,-0.0109340364101367,0.0005));
#1427=CARTESIAN_POINT('',(0.00338593106977499,-0.0116166032380697,0.0005));
#1428=CARTESIAN_POINT('',(0.,0.,0.0005));
#1429=CARTESIAN_POINT('',(0.00362043171539412,-0.0115456690665448,0.0005));
#1430=CARTESIAN_POINT('',(0.00362043171539412,-0.0115456690665448,0.0005));
#1431=CARTESIAN_POINT('',(0.00437185788741681,-0.0101021928203508,0.0005));
#1432=CARTESIAN_POINT('',(0.00481536330400592,-0.0103330671269683,0.0005));
#1433=CARTESIAN_POINT('',(0.00525886872059503,-0.0101021928203508,0.0005));
#1434=CARTESIAN_POINT('',(0.00525886872059503,-0.0101021928203508,0.0005));
#1435=CARTESIAN_POINT('',(0.0055871582201439,-0.0107328310814565,0.0005));
#1436=CARTESIAN_POINT('',(0.,0.,0.0005));
#1437=CARTESIAN_POINT('',(0.00580331443124744,-0.0106175110836804,0.0005));
#1438=CARTESIAN_POINT('',(0.00580331443124744,-0.0106175110836804,0.0005));
#1439=CARTESIAN_POINT('',(0.00625869391438443,-0.00905517485493036,0.0005));
#1440=CARTESIAN_POINT('',(0.00673871884157739,-0.00919508936194586,0.0005));
#1441=CARTESIAN_POINT('',(0.00712866108312383,-0.00888212762585383,0.0005));
#1442=CARTESIAN_POINT('',(0.00712866108312383,-0.00888212762585383,0.0005));
#1443=CARTESIAN_POINT('',(0.00757367401342711,-0.00943660224542387,0.0005));
#1444=CARTESIAN_POINT('',(0.,0.,0.0005));
#1445=CARTESIAN_POINT('',(0.00776317902804415,-0.00928132810423893,0.0005));
#1446=CARTESIAN_POINT('',(0.00776317902804415,-0.00928132810423893,0.0005));
#1447=CARTESIAN_POINT('',(0.00791999592597633,-0.00748890275891725,0.0005));
#1448=CARTESIAN_POINT('',(0.,0.,0.0005));
#1449=CARTESIAN_POINT('',(0.00911057810497608,-0.00598392568412496,0.0005));
#1450=CARTESIAN_POINT('',(0.00827474525130855,-0.00543494167640707,0.0005));
#1451=CARTESIAN_POINT('',(0.00873649386454358,-0.00454793084322885,0.0005));
#1452=CARTESIAN_POINT('',(0.00826022314597607,-0.0043,0.0005));
#1453=CARTESIAN_POINT('',(0.00826022314597607,-0.0043,0.0005));
#1454=CARTESIAN_POINT('',(0.00577494588719236,-0.0043,0.0005));
#1455=CARTESIAN_POINT('',(0.00577494588719236,-0.0043,0.0005));
#1456=CARTESIAN_POINT('',(0.,0.,0.0005));
#1457=CARTESIAN_POINT('',(0.00553923133011576,-0.0045996647999027,0.0005));
#1458=CARTESIAN_POINT('',(0.00553923133011576,-0.0045996647999027,0.0005));
#1459=CARTESIAN_POINT('',(0.00659,-0.00641964952314377,0.0005));
#1460=CARTESIAN_POINT('',(0.,0.,0.0005));
#1461=CARTESIAN_POINT('',(0.005,-0.00772269383052313,0.0005));
#1462=CARTESIAN_POINT('',(0.005,-0.00772269383052313,0.0005));
#1463=CARTESIAN_POINT('',(0.005,-0.00784155596804614,0.0005));
#1464=CARTESIAN_POINT('',(0.,0.,0.0005));
#1465=CARTESIAN_POINT('',(-0.005,-0.00784155596804614,0.0005));
#1466=CARTESIAN_POINT('',(-0.005,-0.00772269383052313,0.0005));
#1467=CARTESIAN_POINT('',(-0.005,-0.00772269383052313,0.0005));
#1468=CARTESIAN_POINT('',(0.,0.,0.0005));
#1469=CARTESIAN_POINT('',(-0.00659,-0.00641964952314377,0.0005));
#1470=CARTESIAN_POINT('',(-0.00553923133011576,-0.0045996647999027,0.0005));
#1471=CARTESIAN_POINT('',(-0.00553923133011576,-0.0045996647999027,0.0005));
#1472=CARTESIAN_POINT('',(0.,0.,0.0005));
#1473=CARTESIAN_POINT('',(-0.00577494588719236,-0.0043,0.0005));
#1474=CARTESIAN_POINT('',(-0.00826022314597606,-0.0043,0.0005));
#1475=CARTESIAN_POINT('',(0.,0.,0.));
#1476=CARTESIAN_POINT('',(0.,0.,0.));
#1477=CARTESIAN_POINT('',(-0.00736586572075107,-0.0080345517724304,0.));
#1478=CARTESIAN_POINT('',(-0.00966841808164263,-0.00503305988426184,0.));
#1479=CARTESIAN_POINT('',(-0.00826022314597606,-0.0043,0.));
#1480=CARTESIAN_POINT('',(-0.00826022314597606,-0.0043,0.));
#1481=CARTESIAN_POINT('',(-0.00826022314597606,-0.0043,0.));
#1482=CARTESIAN_POINT('',(-0.00577494588719236,-0.0043,0.));
#1483=CARTESIAN_POINT('',(0.,0.,0.));
#1484=CARTESIAN_POINT('',(-0.00553923133011576,-0.0045996647999027,0.));
#1485=CARTESIAN_POINT('',(-0.00553923133011576,-0.0045996647999027,0.));
#1486=CARTESIAN_POINT('',(-0.00659,-0.00641964952314377,0.));
#1487=CARTESIAN_POINT('',(0.,0.,0.));
#1488=CARTESIAN_POINT('',(-0.005,-0.00772269383052313,0.));
#1489=CARTESIAN_POINT('',(-0.005,-0.00772269383052313,0.));
#1490=CARTESIAN_POINT('',(-0.005,-0.00784155596804614,0.));
#1491=CARTESIAN_POINT('',(0.,0.,0.));
#1492=CARTESIAN_POINT('',(0.005,-0.00784155596804614,0.));
#1493=CARTESIAN_POINT('',(0.005,-0.00772269383052313,0.));
#1494=CARTESIAN_POINT('',(0.005,-0.00772269383052313,0.));
#1495=CARTESIAN_POINT('',(0.,0.,0.));
#1496=CARTESIAN_POINT('',(0.00659,-0.00641964952314377,0.));
#1497=CARTESIAN_POINT('',(0.00553923133011576,-0.0045996647999027,0.));
#1498=CARTESIAN_POINT('',(0.00553923133011576,-0.0045996647999027,0.));
#1499=CARTESIAN_POINT('',(0.,0.,0.));
#1500=CARTESIAN_POINT('',(0.00577494588719236,-0.0043,0.));
#1501=CARTESIAN_POINT('',(0.00577494588719236,-0.0043,0.));
#1502=CARTESIAN_POINT('',(0.00826022314597607,-0.0043,0.));
#1503=CARTESIAN_POINT('',(0.00826022314597607,-0.0043,0.));
#1504=CARTESIAN_POINT('',(0.00873649386454358,-0.00454793084322885,0.));
#1505=CARTESIAN_POINT('',(0.00827474525130855,-0.00543494167640707,0.));
#1506=CARTESIAN_POINT('',(0.00911057810497608,-0.00598392568412496,0.));
#1507=CARTESIAN_POINT('',(0.,0.,0.));
#1508=CARTESIAN_POINT('',(0.00791999592597633,-0.00748890275891725,0.));
#1509=CARTESIAN_POINT('',(0.00776317902804415,-0.00928132810423893,0.));
#1510=CARTESIAN_POINT('',(0.00776317902804415,-0.00928132810423893,0.));
#1511=CARTESIAN_POINT('',(0.,0.,0.));
#1512=CARTESIAN_POINT('',(0.00757367401342711,-0.00943660224542387,0.));
#1513=CARTESIAN_POINT('',(0.00712866108312383,-0.00888212762585383,0.));
#1514=CARTESIAN_POINT('',(0.00712866108312383,-0.00888212762585383,0.));
#1515=CARTESIAN_POINT('',(0.00673871884157739,-0.00919508936194586,0.));
#1516=CARTESIAN_POINT('',(0.00625869391438443,-0.00905517485493036,0.));
#1517=CARTESIAN_POINT('',(0.00580331443124744,-0.0106175110836804,0.));
#1518=CARTESIAN_POINT('',(0.00580331443124744,-0.0106175110836804,0.));
#1519=CARTESIAN_POINT('',(0.,0.,0.));
#1520=CARTESIAN_POINT('',(0.0055871582201439,-0.0107328310814565,0.));
#1521=CARTESIAN_POINT('',(0.00525886872059503,-0.0101021928203508,0.));
#1522=CARTESIAN_POINT('',(0.00525886872059503,-0.0101021928203508,0.));
#1523=CARTESIAN_POINT('',(0.00481536330400592,-0.0103330671269683,0.));
#1524=CARTESIAN_POINT('',(0.00437185788741681,-0.0101021928203508,0.));
#1525=CARTESIAN_POINT('',(0.00362043171539412,-0.0115456690665448,0.));
#1526=CARTESIAN_POINT('',(0.00362043171539412,-0.0115456690665448,0.));
#1527=CARTESIAN_POINT('',(0.,0.,0.));
#1528=CARTESIAN_POINT('',(0.00338593106977499,-0.0116166032380697,0.));
#1529=CARTESIAN_POINT('',(0.00318698098234131,-0.0109340364101367,0.));
#1530=CARTESIAN_POINT('',(0.00318698098234131,-0.0109340364101367,0.));
#1531=CARTESIAN_POINT('',(0.00270695605514835,-0.0110739509171522,0.));
#1532=CARTESIAN_POINT('',(0.0023170138136019,-0.0107609891810602,0.));
#1533=CARTESIAN_POINT('',(0.0012984178390797,-0.0120301334620676,0.));
#1534=CARTESIAN_POINT('',(0.0012984178390797,-0.0120301334620676,0.));
#1535=CARTESIAN_POINT('',(0.,0.,0.));
#1536=CARTESIAN_POINT('',(0.00105458448724664,-0.0120539558469101,0.));
#1537=CARTESIAN_POINT('',(0.000992619352215745,-0.0113456911125593,0.));
#1538=CARTESIAN_POINT('',(0.000992619352215745,-0.0113456911125593,0.));
#1539=CARTESIAN_POINT('',(0.00049452200316987,-0.0113892689839331,0.));
#1540=CARTESIAN_POINT('',(0.0001731281983266,-0.0110062467623736,0.));
#1541=CARTESIAN_POINT('',(-0.00107349350662944,-0.0120522865752198,0.));
#1542=CARTESIAN_POINT('',(-0.00107349350662944,-0.0120522865752198,0.));
#1543=CARTESIAN_POINT('',(0.,0.,0.));
#1544=CARTESIAN_POINT('',(-0.0013172891857088,-0.0120280816924901,0.));
#1545=CARTESIAN_POINT('',(-0.00123988808294813,-0.0113213372682631,0.));
#1546=CARTESIAN_POINT('',(-0.00123988808294813,-0.0113213372682631,0.));
#1547=CARTESIAN_POINT('',(-0.00173691625205929,-0.0112669038308371,0.));
#1548=CARTESIAN_POINT('',(-0.00197741063651898,-0.0108285404529834,0.));
#1549=CARTESIAN_POINT('',(-0.00340415109890091,-0.0116112770742865,0.));
#1550=CARTESIAN_POINT('',(-0.00340415109890091,-0.0116112770742865,0.));
#1551=CARTESIAN_POINT('',(0.,0.,0.));
#1552=CARTESIAN_POINT('',(-0.00363854017400174,-0.0115399751040535,0.));
#1553=CARTESIAN_POINT('',(-0.00342474731442155,-0.0108619107818267,0.));
#1554=CARTESIAN_POINT('',(-0.00342474731442156,-0.0108619107818267,0.));
#1555=CARTESIAN_POINT('',(-0.00390160578979567,-0.0107115578820745,0.));
#1556=CARTESIAN_POINT('',(-0.00405195868954781,-0.0102346994067004,0.));
#1557=CARTESIAN_POINT('',(-0.00560398907351154,-0.0107240527070676,0.));
#1558=CARTESIAN_POINT('',(-0.00560398907351154,-0.0107240527070676,0.));
#1559=CARTESIAN_POINT('',(0.,0.,0.));
#1560=CARTESIAN_POINT('',(-0.00581996410392463,-0.0106083937440608,0.));
#1561=CARTESIAN_POINT('',(-0.00547799542722218,-0.00998506715547437,0.));
#1562=CARTESIAN_POINT('',(-0.00547799542722218,-0.00998506715547437,0.));
#1563=CARTESIAN_POINT('',(-0.00591635880507593,-0.00974457277101467,0.));
#1564=CARTESIAN_POINT('',(-0.00597079224250192,-0.00924754460190351,0.));
#1565=CARTESIAN_POINT('',(-0.00758846889078041,-0.00942470900843406,0.));
#1566=CARTESIAN_POINT('',(-0.0075884688907804,-0.00942470900843406,0.));
#1567=CARTESIAN_POINT('',(0.,0.,0.));
#1568=CARTESIAN_POINT('',(-0.00777773007720716,-0.0092691377617396,0.));
#1569=CARTESIAN_POINT('',(-0.00732072724784988,-0.00872450299802736,0.));
#1570=CARTESIAN_POINT('',(-0.00732072724784988,-0.00872450299802736,0.));
#1571=CARTESIAN_POINT('',(-0.00770374946940937,-0.00840310919318409,0.));
#1572=CARTESIAN_POINT('',(-0.00770374946940937,-0.00840310919318409,-1.00000000000002E-6));
#1573=CARTESIAN_POINT('',(-0.00736586572075106,-0.00803455177243039,-1.00000000000002E-6));
#1574=CARTESIAN_POINT('',(-0.00732072724784988,-0.00872450299802736,-1.00000000000002E-6));
#1575=CARTESIAN_POINT('',(0.,0.,0.0005));
#1576=CARTESIAN_POINT('',(0.00776317902804415,-0.00928132810423893,-1.00000000000002E-6));
#1577=CARTESIAN_POINT('',(0.00757367401342711,-0.00943660224542387,-1.00000000000002E-6));
#1578=CARTESIAN_POINT('',(0.,0.,0.0005));
#1579=CARTESIAN_POINT('',(0.00580331443124744,-0.0106175110836804,-1.00000000000002E-6));
#1580=CARTESIAN_POINT('',(0.0055871582201439,-0.0107328310814565,-1.00000000000002E-6));
#1581=CARTESIAN_POINT('',(0.,0.,0.0005));
#1582=CARTESIAN_POINT('',(0.00362043171539412,-0.0115456690665448,-1.00000000000002E-6));
#1583=CARTESIAN_POINT('',(0.00338593106977499,-0.0116166032380697,-1.00000000000002E-6));
#1584=CARTESIAN_POINT('',(0.,0.,0.0005));
#1585=CARTESIAN_POINT('',(0.0012984178390797,-0.0120301334620676,-1.00000000000002E-6));
#1586=CARTESIAN_POINT('',(0.00105458448724664,-0.0120539558469101,-1.00000000000002E-6));
#1587=CARTESIAN_POINT('',(0.,0.,0.0005));
#1588=CARTESIAN_POINT('',(-0.00107349350662944,-0.0120522865752198,-1.00000000000002E-6));
#1589=CARTESIAN_POINT('',(-0.0013172891857088,-0.0120280816924901,-1.00000000000002E-6));
#1590=CARTESIAN_POINT('',(0.,0.,0.0005));
#1591=CARTESIAN_POINT('',(-0.00340415109890091,-0.0116112770742865,-1.00000000000002E-6));
#1592=CARTESIAN_POINT('',(-0.00363854017400174,-0.0115399751040535,-1.00000000000002E-6));
#1593=CARTESIAN_POINT('',(0.,0.,0.0005));
#1594=CARTESIAN_POINT('',(-0.00560398907351154,-0.0107240527070676,-1.00000000000002E-6));
#1595=CARTESIAN_POINT('',(-0.00581996410392463,-0.0106083937440608,-1.00000000000002E-6));
#1596=CARTESIAN_POINT('',(0.,0.,0.0005));
#1597=CARTESIAN_POINT('',(-0.00758846889078041,-0.00942470900843406,-1.00000000000002E-6));
#1598=CARTESIAN_POINT('',(-0.00777773007720716,-0.00926913776173961,-1.00000000000002E-6));
#1599=CARTESIAN_POINT('',(0.,0.,0.0005));
#1600=CARTESIAN_POINT('',(0.00553923133011576,-0.0045996647999027,0.0005));
#1601=CARTESIAN_POINT('',(0.00577494588719236,-0.0043,0.0005));
#1602=CARTESIAN_POINT('',(0.00553923133011576,-0.0045996647999027,0.0005));
#1603=CARTESIAN_POINT('',(0.00659,-0.00641964952314377,0.0005));
#1604=CARTESIAN_POINT('',(0.,0.,0.0005));
#1605=CARTESIAN_POINT('',(0.005,-0.00772269383052313,0.0005));
#1606=CARTESIAN_POINT('',(0.005,-0.00772269383052313,0.0005));
#1607=CARTESIAN_POINT('',(0.005,-0.00784155596804614,0.0005));
#1608=CARTESIAN_POINT('',(0.,0.,0.0005));
#1609=CARTESIAN_POINT('',(-0.005,-0.00784155596804614,0.0005));
#1610=CARTESIAN_POINT('',(-0.005,-0.00772269383052313,0.0005));
#1611=CARTESIAN_POINT('',(-0.005,-0.00772269383052313,0.0005));
#1612=CARTESIAN_POINT('',(0.,0.,0.0005));
#1613=CARTESIAN_POINT('',(-0.00659,-0.00641964952314377,0.0005));
#1614=CARTESIAN_POINT('',(-0.00553923133011576,-0.0045996647999027,0.0005));
#1615=CARTESIAN_POINT('',(-0.00553923133011576,-0.0045996647999027,0.0005));
#1616=CARTESIAN_POINT('',(0.,0.,0.0005));
#1617=CARTESIAN_POINT('',(-0.00577494588719236,-0.0043,0.0005));
#1618=CARTESIAN_POINT('',(-0.00826022314597606,-0.0043,0.0005));
#1619=CARTESIAN_POINT('',(-0.00826022314597606,-0.0043,0.0005));
#1620=CARTESIAN_POINT('',(-0.00826022314597606,-0.0043,0.0005));
#1621=CARTESIAN_POINT('',(-0.00966841808164263,-0.00503305988426184,-1.00000000000002E-6));
#1622=CARTESIAN_POINT('',(0.00826022314597607,-0.0043,0.0005));
#1623=CARTESIAN_POINT('',(0.00873649386454358,-0.00454793084322885,0.0005));
#1624=CARTESIAN_POINT('',(0.00826022314597607,-0.0043,0.0005));
#1625=CARTESIAN_POINT('',(0.00577494588719236,-0.0043,0.0005));
#1626=CARTESIAN_POINT('',(-0.00732072724784988,-0.00872450299802736,-1.00000000000002E-6));
#1627=CARTESIAN_POINT('',(-0.00758846889078041,-0.00942470900843406,-1.00000000000002E-6));
#1628=CARTESIAN_POINT('',(-0.00597079224250192,-0.00924754460190351,-1.00000000000002E-6));
#1629=CARTESIAN_POINT('',(-0.00591635880507593,-0.00974457277101467,-1.00000000000002E-6));
#1630=CARTESIAN_POINT('',(-0.00547799542722218,-0.00998506715547437,-1.00000000000002E-6));
#1631=CARTESIAN_POINT('',(-0.00547799542722218,-0.00998506715547437,-1.00000000000002E-6));
#1632=CARTESIAN_POINT('',(-0.00560398907351154,-0.0107240527070676,-1.00000000000002E-6));
#1633=CARTESIAN_POINT('',(-0.00405195868954781,-0.0102346994067004,-1.00000000000002E-6));
#1634=CARTESIAN_POINT('',(-0.00390160578979567,-0.0107115578820745,-1.00000000000002E-6));
#1635=CARTESIAN_POINT('',(-0.00342474731442155,-0.0108619107818267,-1.00000000000002E-6));
#1636=CARTESIAN_POINT('',(-0.00342474731442155,-0.0108619107818267,-1.00000000000002E-6));
#1637=CARTESIAN_POINT('',(-0.00340415109890091,-0.0116112770742865,-1.00000000000002E-6));
#1638=CARTESIAN_POINT('',(-0.00197741063651898,-0.0108285404529834,-1.00000000000002E-6));
#1639=CARTESIAN_POINT('',(-0.00173691625205929,-0.0112669038308371,-1.00000000000002E-6));
#1640=CARTESIAN_POINT('',(-0.00123988808294813,-0.0113213372682631,-1.00000000000002E-6));
#1641=CARTESIAN_POINT('',(-0.00123988808294813,-0.0113213372682631,-1.00000000000002E-6));
#1642=CARTESIAN_POINT('',(-0.00107349350662944,-0.0120522865752198,-1.00000000000002E-6));
#1643=CARTESIAN_POINT('',(0.0001731281983266,-0.0110062467623736,-1.00000000000002E-6));
#1644=CARTESIAN_POINT('',(0.00049452200316987,-0.0113892689839331,-1.00000000000002E-6));
#1645=CARTESIAN_POINT('',(0.000992619352215745,-0.0113456911125593,-1.00000000000002E-6));
#1646=CARTESIAN_POINT('',(0.000992619352215745,-0.0113456911125593,-1.00000000000002E-6));
#1647=CARTESIAN_POINT('',(0.0012984178390797,-0.0120301334620676,-1.00000000000002E-6));
#1648=CARTESIAN_POINT('',(0.0023170138136019,-0.0107609891810602,-1.00000000000002E-6));
#1649=CARTESIAN_POINT('',(0.00270695605514835,-0.0110739509171522,-1.00000000000002E-6));
#1650=CARTESIAN_POINT('',(0.00318698098234131,-0.0109340364101367,-1.00000000000002E-6));
#1651=CARTESIAN_POINT('',(0.00318698098234131,-0.0109340364101367,-1.00000000000002E-6));
#1652=CARTESIAN_POINT('',(0.00362043171539412,-0.0115456690665448,-1.00000000000002E-6));
#1653=CARTESIAN_POINT('',(0.00437185788741681,-0.0101021928203508,-1.00000000000002E-6));
#1654=CARTESIAN_POINT('',(0.00481536330400592,-0.0103330671269683,-1.00000000000002E-6));
#1655=CARTESIAN_POINT('',(0.00525886872059503,-0.0101021928203508,-1.00000000000002E-6));
#1656=CARTESIAN_POINT('',(0.00525886872059503,-0.0101021928203508,-1.00000000000002E-6));
#1657=CARTESIAN_POINT('',(0.00580331443124744,-0.0106175110836804,-1.00000000000002E-6));
#1658=CARTESIAN_POINT('',(0.00625869391438443,-0.00905517485493036,-1.00000000000002E-6));
#1659=CARTESIAN_POINT('',(0.00673871884157739,-0.00919508936194586,-1.00000000000002E-6));
#1660=CARTESIAN_POINT('',(0.00712866108312383,-0.00888212762585383,-1.00000000000002E-6));
#1661=CARTESIAN_POINT('',(0.00712866108312383,-0.00888212762585383,-1.00000000000002E-6));
#1662=CARTESIAN_POINT('',(0.00776317902804415,-0.00928132810423893,-1.00000000000002E-6));
#1663=CARTESIAN_POINT('',(0.00791999592597633,-0.00748890275891725,-1.00000000000002E-6));
#1664=CARTESIAN_POINT('',(0.,0.,-1.00000000000002E-6));
#1665=CARTESIAN_POINT('',(0.00911057810497608,-0.00598392568412496,-1.00000000000002E-6));
#1666=CARTESIAN_POINT('',(0.00827474525130855,-0.00543494167640707,-1.00000000000002E-6));
#1667=CARTESIAN_POINT('',(0.,0.,-1.00000000000002E-6));
#1668=(
GEOMETRIC_REPRESENTATION_CONTEXT(3)
GLOBAL_UNCERTAINTY_ASSIGNED_CONTEXT((#1669))
GLOBAL_UNIT_ASSIGNED_CONTEXT((#1672,#1671,#1670))
REPRESENTATION_CONTEXT('id2','TOP_LEVEL_ASSEMBLY_PART')
);
#1669=UNCERTAINTY_MEASURE_WITH_UNIT(LENGTH_MEASURE(1.E-8),#1672,
'DISTANCE_ACCURACY_VALUE','Maximum Tolerance applied to model');
#1670=(
NAMED_UNIT(*)
SI_UNIT($,.STERADIAN.)
SOLID_ANGLE_UNIT()
);
#1671=(
NAMED_UNIT(*)
PLANE_ANGLE_UNIT()
SI_UNIT($,.RADIAN.)
);
#1672=(
LENGTH_UNIT()
NAMED_UNIT(*)
SI_UNIT($,.METRE.)
);
#1673=PRODUCT_DEFINITION_SHAPE('','',#1674);
#1674=PRODUCT_DEFINITION('','',#1676,#1675);
#1675=PRODUCT_DEFINITION_CONTEXT('',#1682,'design');
#1676=PRODUCT_DEFINITION_FORMATION_WITH_SPECIFIED_SOURCE('','',#1678,
 .NOT_KNOWN.);
#1677=PRODUCT_RELATED_PRODUCT_CATEGORY('','',(#1678));
#1678=PRODUCT('id2','id2','id2',(#1680));
#1679=PRODUCT_CATEGORY('','');
#1680=PRODUCT_CONTEXT('',#1682,'mechanical');
#1681=APPLICATION_PROTOCOL_DEFINITION('international standard',
'ap242_managed_model_based_3d_engineering',2020,#1682);
#1682=APPLICATION_CONTEXT('managed model based 3d engineering');
ENDSEC;
END-ISO-10303-21;
