ISO-10303-21;
HEADER;
/* Generated by software containing ST-Developer
 * from STEP Tools, Inc. (www.steptools.com) 
 */
/* OPTION: using custom renumber hook */

FILE_DESCRIPTION(
/* description */ ('STEP AP242 Edition 2',
'CAx-IF Rec.Pracs.---Representation and Presentation of Product Manufa
cturing Information (PMI)---4.0---2014-10-13',
'CAx-IF Rec.Pracs.---3D Tessellated Geometry---0.4---2014-09-14','2;1',
'CAx-IF Rec.Pracs.---User Defined Attributes---1.5---2016-08-15'),
/* implementation_level */ '2;1');

FILE_NAME(
/* name */ '10085',
/* time_stamp */ '2026-07-13T04:55:16Z',
/* author */ (''),
/* organization */ (''),
/* preprocessor_version */ 'ST-DEVELOPER v20',
/* originating_system */ 'ONSHAPE BY PTC INC, 1.217',
/* authorisation */ '  ');

FILE_SCHEMA (('AP242_MANAGED_MODEL_BASED_3D_ENGINEERING_MIM_LF { 1 0 10303 442 3 1 4 }'));
ENDSEC;

DATA;
#10=SHAPE_REPRESENTATION_RELATIONSHIP('','',#726,#11);
#11=ADVANCED_BREP_SHAPE_REPRESENTATION('',(#724),#1343);
#12=CONICAL_SURFACE('',#775,0.0009,0.785398163397452);
#13=CONICAL_SURFACE('',#780,0.0009,0.785398163397452);
#14=CONICAL_SURFACE('',#785,0.0009,0.785398163397452);
#15=CONICAL_SURFACE('',#786,0.02295,0.785398163397449);
#16=STYLED_ITEM('',(#23),#701);
#17=STYLED_ITEM('',(#24),#703);
#18=STYLED_ITEM('',(#25),#704);
#19=STYLED_ITEM('',(#26),#705);
#20=STYLED_ITEM('',(#27),#706);
#21=STYLED_ITEM('',(#28),#707);
#22=STYLED_ITEM('',(#29),#708);
#23=PRESENTATION_STYLE_ASSIGNMENT((#30));
#24=PRESENTATION_STYLE_ASSIGNMENT((#31));
#25=PRESENTATION_STYLE_ASSIGNMENT((#32));
#26=PRESENTATION_STYLE_ASSIGNMENT((#33));
#27=PRESENTATION_STYLE_ASSIGNMENT((#34));
#28=PRESENTATION_STYLE_ASSIGNMENT((#35));
#29=PRESENTATION_STYLE_ASSIGNMENT((#36));
#30=SURFACE_STYLE_USAGE(.BOTH.,#37);
#31=SURFACE_STYLE_USAGE(.BOTH.,#38);
#32=SURFACE_STYLE_USAGE(.BOTH.,#39);
#33=SURFACE_STYLE_USAGE(.BOTH.,#40);
#34=SURFACE_STYLE_USAGE(.BOTH.,#41);
#35=SURFACE_STYLE_USAGE(.BOTH.,#42);
#36=SURFACE_STYLE_USAGE(.BOTH.,#43);
#37=SURFACE_SIDE_STYLE('',(#44));
#38=SURFACE_SIDE_STYLE('',(#45));
#39=SURFACE_SIDE_STYLE('',(#46));
#40=SURFACE_SIDE_STYLE('',(#47));
#41=SURFACE_SIDE_STYLE('',(#48));
#42=SURFACE_SIDE_STYLE('',(#49));
#43=SURFACE_SIDE_STYLE('',(#50));
#44=SURFACE_STYLE_FILL_AREA(#51);
#45=SURFACE_STYLE_FILL_AREA(#52);
#46=SURFACE_STYLE_FILL_AREA(#53);
#47=SURFACE_STYLE_FILL_AREA(#54);
#48=SURFACE_STYLE_FILL_AREA(#55);
#49=SURFACE_STYLE_FILL_AREA(#56);
#50=SURFACE_STYLE_FILL_AREA(#57);
#51=FILL_AREA_STYLE('',(#58));
#52=FILL_AREA_STYLE('',(#59));
#53=FILL_AREA_STYLE('',(#60));
#54=FILL_AREA_STYLE('',(#61));
#55=FILL_AREA_STYLE('',(#62));
#56=FILL_AREA_STYLE('',(#63));
#57=FILL_AREA_STYLE('',(#64));
#58=FILL_AREA_STYLE_COLOUR('',#65);
#59=FILL_AREA_STYLE_COLOUR('',#65);
#60=FILL_AREA_STYLE_COLOUR('',#65);
#61=FILL_AREA_STYLE_COLOUR('',#65);
#62=FILL_AREA_STYLE_COLOUR('',#65);
#63=FILL_AREA_STYLE_COLOUR('',#65);
#64=FILL_AREA_STYLE_COLOUR('',#65);
#65=DRAUGHTING_PRE_DEFINED_COLOUR('white');
#66=PLANE('',#748);
#67=PLANE('',#767);
#68=PLANE('',#768);
#69=LINE('',#979,#88);
#70=LINE('',#983,#89);
#71=LINE('',#1007,#90);
#72=LINE('',#1011,#91);
#73=LINE('',#1095,#92);
#74=LINE('',#1103,#93);
#75=LINE('',#1113,#94);
#76=LINE('',#1127,#95);
#77=LINE('',#1135,#96);
#78=LINE('',#1151,#97);
#79=LINE('',#1159,#98);
#80=LINE('',#1189,#99);
#81=LINE('',#1197,#100);
#82=LINE('',#1213,#101);
#83=LINE('',#1221,#102);
#84=LINE('',#1225,#103);
#85=LINE('',#1242,#104);
#86=LINE('',#1246,#105);
#87=LINE('',#1267,#106);
#88=VECTOR('',#795,1.);
#89=VECTOR('',#798,1.);
#90=VECTOR('',#801,1.);
#91=VECTOR('',#804,1.);
#92=VECTOR('',#817,1.);
#93=VECTOR('',#818,1.);
#94=VECTOR('',#821,1.);
#95=VECTOR('',#824,1.);
#96=VECTOR('',#825,1.);
#97=VECTOR('',#828,1.);
#98=VECTOR('',#829,1.);
#99=VECTOR('',#834,1.);
#100=VECTOR('',#835,1.);
#101=VECTOR('',#838,1.);
#102=VECTOR('',#839,1.);
#103=VECTOR('',#842,1.);
#104=VECTOR('',#855,1.);
#105=VECTOR('',#858,1.);
#106=VECTOR('',#867,1.);
#107=B_SPLINE_CURVE_WITH_KNOTS('',3,(#930,#931,#932,#933,#934,#935,#936,
#937,#938,#939,#940),.UNSPECIFIED.,.T.,.F.,(1,1,1,1,1,1,1,1,1,1,1,1,1,1,
1),(-0.00211030772391324,-0.00140687181594216,-0.000703435907971081,0.,
0.000703435907971081,0.00140687181594216,0.00211030772391324,0.00281374363188432,
0.0035171795398554,0.00422061544782648,0.00492405135579757,0.00562748726376865,
0.00633092317173973,0.00703435907971081,0.00773779498768189),
 .UNSPECIFIED.);
#108=B_SPLINE_CURVE_WITH_KNOTS('',3,(#942,#943,#944,#945,#946,#947,#948,
#949,#950,#951,#952),.UNSPECIFIED.,.T.,.F.,(1,1,1,1,1,1,1,1,1,1,1,1,1,1,
1),(-0.00211030772391338,-0.00140687181594225,-0.000703435907971127,0.,
0.000703435907971127,0.00140687181594225,0.00211030772391338,0.00281374363188451,
0.00351717953985563,0.00422061544782676,0.00492405135579789,0.00562748726376901,
0.00633092317174014,0.00703435907971127,0.00773779498768239),
 .UNSPECIFIED.);
#109=B_SPLINE_CURVE_WITH_KNOTS('',3,(#954,#955,#956,#957,#958,#959,#960,
#961,#962,#963,#964),.UNSPECIFIED.,.T.,.F.,(1,1,1,1,1,1,1,1,1,1,1,1,1,1,
1),(-0.00211030772391332,-0.00140687181594221,-0.000703435907971106,0.,
0.000703435907971106,0.00140687181594221,0.00211030772391332,0.00281374363188442,
0.00351717953985553,0.00422061544782663,0.00492405135579774,0.00562748726376885,
0.00633092317173995,0.00703435907971106,0.00773779498768216),
 .UNSPECIFIED.);
#110=B_SPLINE_CURVE_WITH_KNOTS('',3,(#969,#970,#971,#972),.UNSPECIFIED.,
 .F.,.F.,(4,4),(0.,1.),.UNSPECIFIED.);
#111=B_SPLINE_CURVE_WITH_KNOTS('',3,(#974,#975,#976,#977),.UNSPECIFIED.,
 .F.,.F.,(4,4),(0.,1.),.UNSPECIFIED.);
#112=B_SPLINE_CURVE_WITH_KNOTS('',3,(#985,#986,#987,#988),.UNSPECIFIED.,
 .F.,.F.,(4,4),(0.,1.),.UNSPECIFIED.);
#113=B_SPLINE_CURVE_WITH_KNOTS('',3,(#990,#991,#992,#993),.UNSPECIFIED.,
 .F.,.F.,(4,4),(0.,1.),.UNSPECIFIED.);
#114=B_SPLINE_CURVE_WITH_KNOTS('',3,(#997,#998,#999,#1000),
 .UNSPECIFIED.,.F.,.F.,(4,4),(0.,1.),.UNSPECIFIED.);
#115=B_SPLINE_CURVE_WITH_KNOTS('',3,(#1002,#1003,#1004,#1005),
 .UNSPECIFIED.,.F.,.F.,(4,4),(0.,1.),.UNSPECIFIED.);
#116=B_SPLINE_CURVE_WITH_KNOTS('',3,(#1013,#1014,#1015,#1016),
 .UNSPECIFIED.,.F.,.F.,(4,4),(0.,1.),.UNSPECIFIED.);
#117=B_SPLINE_CURVE_WITH_KNOTS('',3,(#1018,#1019,#1020,#1021),
 .UNSPECIFIED.,.F.,.F.,(4,4),(0.,1.),.UNSPECIFIED.);
#118=B_SPLINE_CURVE_WITH_KNOTS('',3,(#1022,#1023,#1024,#1025,#1026),
 .UNSPECIFIED.,.F.,.F.,(4,1,4),(0.,0.5,1.),.UNSPECIFIED.);
#119=B_SPLINE_CURVE_WITH_KNOTS('',3,(#1029,#1030,#1031,#1032),
 .UNSPECIFIED.,.F.,.F.,(4,4),(0.,1.),.UNSPECIFIED.);
#120=B_SPLINE_CURVE_WITH_KNOTS('',3,(#1036,#1037,#1038,#1039,#1040,#1041,
#1042),.UNSPECIFIED.,.F.,.F.,(4,1,1,1,4),(0.,0.25,0.5,0.75,1.),
 .UNSPECIFIED.);
#121=B_SPLINE_CURVE_WITH_KNOTS('',3,(#1046,#1047,#1048,#1049),
 .UNSPECIFIED.,.F.,.F.,(4,4),(0.,1.),.UNSPECIFIED.);
#122=B_SPLINE_CURVE_WITH_KNOTS('',3,(#1051,#1052,#1053,#1054,#1055),
 .UNSPECIFIED.,.F.,.F.,(4,1,4),(0.,0.5,1.),.UNSPECIFIED.);
#123=B_SPLINE_CURVE_WITH_KNOTS('',3,(#1057,#1058,#1059,#1060),
 .UNSPECIFIED.,.F.,.F.,(4,4),(0.,1.),.UNSPECIFIED.);
#124=B_SPLINE_CURVE_WITH_KNOTS('',3,(#1064,#1065,#1066,#1067,#1068,#1069,
#1070),.UNSPECIFIED.,.F.,.F.,(4,1,1,1,4),(0.,0.25,0.5,0.75,1.),
 .UNSPECIFIED.);
#125=B_SPLINE_CURVE_WITH_KNOTS('',3,(#1074,#1075,#1076,#1077),
 .UNSPECIFIED.,.F.,.F.,(4,4),(0.,1.),.UNSPECIFIED.);
#126=B_SPLINE_CURVE_WITH_KNOTS('',3,(#1078,#1079,#1080,#1081,#1082),
 .UNSPECIFIED.,.F.,.F.,(4,1,4),(0.,0.5,1.),.UNSPECIFIED.);
#127=B_SPLINE_CURVE_WITH_KNOTS('',3,(#1087,#1088,#1089,#1090,#1091),
 .UNSPECIFIED.,.F.,.F.,(4,1,4),(0.,0.5,1.),.UNSPECIFIED.);
#128=B_SPLINE_CURVE_WITH_KNOTS('',3,(#1097,#1098,#1099,#1100,#1101),
 .UNSPECIFIED.,.F.,.F.,(4,1,4),(0.,0.5,1.),.UNSPECIFIED.);
#129=B_SPLINE_CURVE_WITH_KNOTS('',3,(#1106,#1107,#1108,#1109,#1110),
 .UNSPECIFIED.,.F.,.F.,(4,1,4),(0.,0.5,1.),.UNSPECIFIED.);
#130=B_SPLINE_CURVE_WITH_KNOTS('',3,(#1115,#1116,#1117,#1118),
 .UNSPECIFIED.,.F.,.F.,(4,4),(0.,1.),.UNSPECIFIED.);
#131=B_SPLINE_CURVE_WITH_KNOTS('',3,(#1122,#1123,#1124,#1125),
 .UNSPECIFIED.,.F.,.F.,(4,4),(0.,1.),.UNSPECIFIED.);
#132=B_SPLINE_CURVE_WITH_KNOTS('',3,(#1129,#1130,#1131,#1132,#1133),
 .UNSPECIFIED.,.F.,.F.,(4,1,4),(0.,0.5,1.),.UNSPECIFIED.);
#133=B_SPLINE_CURVE_WITH_KNOTS('',3,(#1137,#1138,#1139,#1140,#1141),
 .UNSPECIFIED.,.F.,.F.,(4,1,4),(0.,0.5,1.),.UNSPECIFIED.);
#134=B_SPLINE_CURVE_WITH_KNOTS('',3,(#1145,#1146,#1147,#1148,#1149),
 .UNSPECIFIED.,.F.,.F.,(4,1,4),(0.,0.5,1.),.UNSPECIFIED.);
#135=B_SPLINE_CURVE_WITH_KNOTS('',3,(#1152,#1153,#1154,#1155,#1156),
 .UNSPECIFIED.,.F.,.F.,(4,1,4),(0.,0.5,1.),.UNSPECIFIED.);
#136=B_SPLINE_CURVE_WITH_KNOTS('',3,(#1163,#1164,#1165,#1166,#1167,#1168,
#1169),.UNSPECIFIED.,.F.,.F.,(4,1,1,1,4),(0.,0.25,0.5,0.75,1.),
 .UNSPECIFIED.);
#137=B_SPLINE_CURVE_WITH_KNOTS('',3,(#1171,#1172,#1173,#1174),
 .UNSPECIFIED.,.F.,.F.,(4,4),(0.,1.),.UNSPECIFIED.);
#138=B_SPLINE_CURVE_WITH_KNOTS('',3,(#1176,#1177,#1178,#1179,#1180),
 .UNSPECIFIED.,.F.,.F.,(4,1,4),(0.,0.5,1.),.UNSPECIFIED.);
#139=B_SPLINE_CURVE_WITH_KNOTS('',3,(#1182,#1183,#1184,#1185),
 .UNSPECIFIED.,.F.,.F.,(4,4),(0.,1.),.UNSPECIFIED.);
#140=B_SPLINE_CURVE_WITH_KNOTS('',3,(#1190,#1191,#1192,#1193,#1194),
 .UNSPECIFIED.,.F.,.F.,(4,1,4),(0.,0.5,1.),.UNSPECIFIED.);
#141=B_SPLINE_CURVE_WITH_KNOTS('',3,(#1199,#1200,#1201,#1202,#1203),
 .UNSPECIFIED.,.F.,.F.,(4,1,4),(0.,0.5,1.),.UNSPECIFIED.);
#142=B_SPLINE_CURVE_WITH_KNOTS('',3,(#1207,#1208,#1209,#1210,#1211),
 .UNSPECIFIED.,.F.,.F.,(4,1,4),(0.,0.5,1.),.UNSPECIFIED.);
#143=B_SPLINE_CURVE_WITH_KNOTS('',3,(#1215,#1216,#1217,#1218,#1219),
 .UNSPECIFIED.,.F.,.F.,(4,1,4),(0.,0.5,1.),.UNSPECIFIED.);
#144=B_SPLINE_CURVE_WITH_KNOTS('',3,(#1237,#1238,#1239,#1240),
 .UNSPECIFIED.,.F.,.F.,(4,4),(0.,1.),.UNSPECIFIED.);
#145=B_SPLINE_CURVE_WITH_KNOTS('',3,(#1248,#1249,#1250,#1251),
 .UNSPECIFIED.,.F.,.F.,(4,4),(0.,1.),.UNSPECIFIED.);
#146=B_SPLINE_CURVE_WITH_KNOTS('',3,(#1257,#1258,#1259,#1260,#1261,#1262,
#1263),.UNSPECIFIED.,.F.,.F.,(4,1,1,1,4),(0.,0.25,0.5,0.75,1.),
 .UNSPECIFIED.);
#147=B_SPLINE_CURVE_WITH_KNOTS('',3,(#1275,#1276,#1277,#1278,#1279,#1280,
#1281,#1282,#1283,#1284,#1285),.UNSPECIFIED.,.T.,.F.,(1,1,1,1,1,1,1,1,1,
1,1,1,1,1,1),(-0.00140680772652574,-0.000937871817683826,-0.000468935908841913,
0.,0.000468935908841913,0.000937871817683826,0.00140680772652574,0.00187574363536765,
0.00234467954420957,0.00281361545305148,0.00328255136189339,0.00375148727073531,
0.00422042317957722,0.00468935908841913,0.00515829499726104),
 .UNSPECIFIED.);
#148=B_SPLINE_CURVE_WITH_KNOTS('',3,(#1287,#1288,#1289,#1290,#1291,#1292,
#1293,#1294,#1295,#1296,#1297),.UNSPECIFIED.,.T.,.F.,(1,1,1,1,1,1,1,1,1,
1,1,1,1,1,1),(-0.00140680772652575,-0.000937871817683835,-0.000468935908841917,
0.,0.000468935908841917,0.000937871817683835,0.00140680772652575,0.00187574363536767,
0.00234467954420959,0.0028136154530515,0.00328255136189342,0.00375148727073534,
0.00422042317957726,0.00468935908841917,0.00515829499726109),
 .UNSPECIFIED.);
#149=B_SPLINE_CURVE_WITH_KNOTS('',3,(#1299,#1300,#1301,#1302,#1303,#1304,
#1305,#1306,#1307,#1308,#1309),.UNSPECIFIED.,.T.,.F.,(1,1,1,1,1,1,1,1,1,
1,1,1,1,1,1),(-0.0014068077265257,-0.000937871817683796,-0.000468935908841898,
0.,0.000468935908841898,0.000937871817683797,0.0014068077265257,0.00187574363536759,
0.00234467954420949,0.00281361545305139,0.00328255136189329,0.00375148727073519,
0.00422042317957709,0.00468935908841898,0.00515829499726088),
 .UNSPECIFIED.);
#150=ORIENTED_EDGE('',*,*,#342,.F.);
#151=ORIENTED_EDGE('',*,*,#343,.T.);
#152=ORIENTED_EDGE('',*,*,#344,.T.);
#153=ORIENTED_EDGE('',*,*,#345,.T.);
#154=ORIENTED_EDGE('',*,*,#346,.F.);
#155=ORIENTED_EDGE('',*,*,#347,.F.);
#156=ORIENTED_EDGE('',*,*,#348,.F.);
#157=ORIENTED_EDGE('',*,*,#349,.F.);
#158=ORIENTED_EDGE('',*,*,#350,.T.);
#159=ORIENTED_EDGE('',*,*,#351,.F.);
#160=ORIENTED_EDGE('',*,*,#352,.F.);
#161=ORIENTED_EDGE('',*,*,#353,.F.);
#162=ORIENTED_EDGE('',*,*,#354,.F.);
#163=ORIENTED_EDGE('',*,*,#355,.F.);
#164=ORIENTED_EDGE('',*,*,#356,.F.);
#165=ORIENTED_EDGE('',*,*,#357,.F.);
#166=ORIENTED_EDGE('',*,*,#358,.T.);
#167=ORIENTED_EDGE('',*,*,#359,.F.);
#168=ORIENTED_EDGE('',*,*,#360,.F.);
#169=ORIENTED_EDGE('',*,*,#361,.F.);
#170=ORIENTED_EDGE('',*,*,#362,.F.);
#171=ORIENTED_EDGE('',*,*,#363,.F.);
#172=ORIENTED_EDGE('',*,*,#364,.T.);
#173=ORIENTED_EDGE('',*,*,#365,.F.);
#174=ORIENTED_EDGE('',*,*,#366,.F.);
#175=ORIENTED_EDGE('',*,*,#367,.F.);
#176=ORIENTED_EDGE('',*,*,#368,.F.);
#177=ORIENTED_EDGE('',*,*,#369,.F.);
#178=ORIENTED_EDGE('',*,*,#370,.T.);
#179=ORIENTED_EDGE('',*,*,#371,.F.);
#180=ORIENTED_EDGE('',*,*,#372,.F.);
#181=ORIENTED_EDGE('',*,*,#373,.F.);
#182=ORIENTED_EDGE('',*,*,#374,.F.);
#183=ORIENTED_EDGE('',*,*,#375,.F.);
#184=ORIENTED_EDGE('',*,*,#376,.F.);
#185=ORIENTED_EDGE('',*,*,#377,.T.);
#186=ORIENTED_EDGE('',*,*,#378,.F.);
#187=ORIENTED_EDGE('',*,*,#379,.F.);
#188=ORIENTED_EDGE('',*,*,#380,.F.);
#189=ORIENTED_EDGE('',*,*,#381,.T.);
#190=ORIENTED_EDGE('',*,*,#382,.F.);
#191=ORIENTED_EDGE('',*,*,#383,.F.);
#192=ORIENTED_EDGE('',*,*,#384,.F.);
#193=ORIENTED_EDGE('',*,*,#385,.F.);
#194=ORIENTED_EDGE('',*,*,#386,.F.);
#195=ORIENTED_EDGE('',*,*,#387,.F.);
#196=ORIENTED_EDGE('',*,*,#388,.F.);
#197=ORIENTED_EDGE('',*,*,#389,.F.);
#198=ORIENTED_EDGE('',*,*,#390,.F.);
#199=ORIENTED_EDGE('',*,*,#391,.T.);
#200=ORIENTED_EDGE('',*,*,#392,.F.);
#201=ORIENTED_EDGE('',*,*,#393,.F.);
#202=ORIENTED_EDGE('',*,*,#394,.F.);
#203=ORIENTED_EDGE('',*,*,#395,.F.);
#204=ORIENTED_EDGE('',*,*,#396,.F.);
#205=ORIENTED_EDGE('',*,*,#397,.F.);
#206=ORIENTED_EDGE('',*,*,#398,.F.);
#207=ORIENTED_EDGE('',*,*,#399,.F.);
#208=ORIENTED_EDGE('',*,*,#400,.F.);
#209=ORIENTED_EDGE('',*,*,#401,.T.);
#210=ORIENTED_EDGE('',*,*,#402,.F.);
#211=ORIENTED_EDGE('',*,*,#403,.F.);
#212=ORIENTED_EDGE('',*,*,#404,.F.);
#213=ORIENTED_EDGE('',*,*,#405,.F.);
#214=ORIENTED_EDGE('',*,*,#406,.F.);
#215=ORIENTED_EDGE('',*,*,#407,.F.);
#216=ORIENTED_EDGE('',*,*,#408,.F.);
#217=ORIENTED_EDGE('',*,*,#409,.F.);
#218=ORIENTED_EDGE('',*,*,#410,.F.);
#219=ORIENTED_EDGE('',*,*,#411,.T.);
#220=ORIENTED_EDGE('',*,*,#412,.F.);
#221=ORIENTED_EDGE('',*,*,#413,.F.);
#222=ORIENTED_EDGE('',*,*,#414,.F.);
#223=ORIENTED_EDGE('',*,*,#415,.T.);
#224=ORIENTED_EDGE('',*,*,#416,.T.);
#225=ORIENTED_EDGE('',*,*,#417,.T.);
#226=ORIENTED_EDGE('',*,*,#418,.T.);
#227=ORIENTED_EDGE('',*,*,#419,.F.);
#228=ORIENTED_EDGE('',*,*,#420,.T.);
#229=ORIENTED_EDGE('',*,*,#421,.T.);
#230=ORIENTED_EDGE('',*,*,#417,.F.);
#231=ORIENTED_EDGE('',*,*,#416,.F.);
#232=ORIENTED_EDGE('',*,*,#421,.F.);
#233=ORIENTED_EDGE('',*,*,#420,.F.);
#234=ORIENTED_EDGE('',*,*,#419,.T.);
#235=ORIENTED_EDGE('',*,*,#418,.F.);
#236=ORIENTED_EDGE('',*,*,#404,.T.);
#237=ORIENTED_EDGE('',*,*,#403,.T.);
#238=ORIENTED_EDGE('',*,*,#412,.T.);
#239=ORIENTED_EDGE('',*,*,#411,.F.);
#240=ORIENTED_EDGE('',*,*,#410,.T.);
#241=ORIENTED_EDGE('',*,*,#409,.T.);
#242=ORIENTED_EDGE('',*,*,#408,.T.);
#243=ORIENTED_EDGE('',*,*,#407,.T.);
#244=ORIENTED_EDGE('',*,*,#406,.T.);
#245=ORIENTED_EDGE('',*,*,#405,.T.);
#246=ORIENTED_EDGE('',*,*,#422,.F.);
#247=ORIENTED_EDGE('',*,*,#423,.T.);
#248=ORIENTED_EDGE('',*,*,#424,.T.);
#249=ORIENTED_EDGE('',*,*,#425,.T.);
#250=ORIENTED_EDGE('',*,*,#423,.F.);
#251=ORIENTED_EDGE('',*,*,#422,.T.);
#252=ORIENTED_EDGE('',*,*,#425,.F.);
#253=ORIENTED_EDGE('',*,*,#424,.F.);
#254=ORIENTED_EDGE('',*,*,#395,.T.);
#255=ORIENTED_EDGE('',*,*,#394,.T.);
#256=ORIENTED_EDGE('',*,*,#402,.T.);
#257=ORIENTED_EDGE('',*,*,#401,.F.);
#258=ORIENTED_EDGE('',*,*,#400,.T.);
#259=ORIENTED_EDGE('',*,*,#399,.T.);
#260=ORIENTED_EDGE('',*,*,#398,.T.);
#261=ORIENTED_EDGE('',*,*,#397,.T.);
#262=ORIENTED_EDGE('',*,*,#396,.T.);
#263=ORIENTED_EDGE('',*,*,#383,.T.);
#264=ORIENTED_EDGE('',*,*,#382,.T.);
#265=ORIENTED_EDGE('',*,*,#393,.T.);
#266=ORIENTED_EDGE('',*,*,#392,.T.);
#267=ORIENTED_EDGE('',*,*,#391,.F.);
#268=ORIENTED_EDGE('',*,*,#390,.T.);
#269=ORIENTED_EDGE('',*,*,#389,.T.);
#270=ORIENTED_EDGE('',*,*,#388,.T.);
#271=ORIENTED_EDGE('',*,*,#387,.T.);
#272=ORIENTED_EDGE('',*,*,#386,.T.);
#273=ORIENTED_EDGE('',*,*,#385,.T.);
#274=ORIENTED_EDGE('',*,*,#384,.T.);
#275=ORIENTED_EDGE('',*,*,#375,.T.);
#276=ORIENTED_EDGE('',*,*,#374,.T.);
#277=ORIENTED_EDGE('',*,*,#381,.F.);
#278=ORIENTED_EDGE('',*,*,#380,.T.);
#279=ORIENTED_EDGE('',*,*,#379,.T.);
#280=ORIENTED_EDGE('',*,*,#378,.T.);
#281=ORIENTED_EDGE('',*,*,#377,.F.);
#282=ORIENTED_EDGE('',*,*,#376,.T.);
#283=ORIENTED_EDGE('',*,*,#363,.T.);
#284=ORIENTED_EDGE('',*,*,#362,.T.);
#285=ORIENTED_EDGE('',*,*,#373,.T.);
#286=ORIENTED_EDGE('',*,*,#372,.T.);
#287=ORIENTED_EDGE('',*,*,#371,.T.);
#288=ORIENTED_EDGE('',*,*,#370,.F.);
#289=ORIENTED_EDGE('',*,*,#369,.T.);
#290=ORIENTED_EDGE('',*,*,#368,.T.);
#291=ORIENTED_EDGE('',*,*,#367,.T.);
#292=ORIENTED_EDGE('',*,*,#366,.T.);
#293=ORIENTED_EDGE('',*,*,#365,.T.);
#294=ORIENTED_EDGE('',*,*,#364,.F.);
#295=ORIENTED_EDGE('',*,*,#355,.T.);
#296=ORIENTED_EDGE('',*,*,#354,.T.);
#297=ORIENTED_EDGE('',*,*,#361,.T.);
#298=ORIENTED_EDGE('',*,*,#360,.T.);
#299=ORIENTED_EDGE('',*,*,#359,.T.);
#300=ORIENTED_EDGE('',*,*,#358,.F.);
#301=ORIENTED_EDGE('',*,*,#357,.T.);
#302=ORIENTED_EDGE('',*,*,#356,.T.);
#303=ORIENTED_EDGE('',*,*,#347,.T.);
#304=ORIENTED_EDGE('',*,*,#346,.T.);
#305=ORIENTED_EDGE('',*,*,#353,.T.);
#306=ORIENTED_EDGE('',*,*,#352,.T.);
#307=ORIENTED_EDGE('',*,*,#351,.T.);
#308=ORIENTED_EDGE('',*,*,#350,.F.);
#309=ORIENTED_EDGE('',*,*,#349,.T.);
#310=ORIENTED_EDGE('',*,*,#348,.T.);
#311=ORIENTED_EDGE('',*,*,#426,.T.);
#312=ORIENTED_EDGE('',*,*,#427,.T.);
#313=ORIENTED_EDGE('',*,*,#428,.T.);
#314=ORIENTED_EDGE('',*,*,#429,.T.);
#315=ORIENTED_EDGE('',*,*,#430,.F.);
#316=ORIENTED_EDGE('',*,*,#429,.F.);
#317=ORIENTED_EDGE('',*,*,#342,.T.);
#318=ORIENTED_EDGE('',*,*,#431,.T.);
#319=ORIENTED_EDGE('',*,*,#430,.T.);
#320=ORIENTED_EDGE('',*,*,#431,.F.);
#321=ORIENTED_EDGE('',*,*,#414,.T.);
#322=ORIENTED_EDGE('',*,*,#432,.F.);
#323=ORIENTED_EDGE('',*,*,#343,.F.);
#324=ORIENTED_EDGE('',*,*,#428,.F.);
#325=ORIENTED_EDGE('',*,*,#433,.T.);
#326=ORIENTED_EDGE('',*,*,#433,.F.);
#327=ORIENTED_EDGE('',*,*,#432,.T.);
#328=ORIENTED_EDGE('',*,*,#434,.F.);
#329=ORIENTED_EDGE('',*,*,#344,.F.);
#330=ORIENTED_EDGE('',*,*,#427,.F.);
#331=ORIENTED_EDGE('',*,*,#435,.T.);
#332=ORIENTED_EDGE('',*,*,#435,.F.);
#333=ORIENTED_EDGE('',*,*,#434,.T.);
#334=ORIENTED_EDGE('',*,*,#436,.F.);
#335=ORIENTED_EDGE('',*,*,#345,.F.);
#336=ORIENTED_EDGE('',*,*,#426,.F.);
#337=ORIENTED_EDGE('',*,*,#437,.T.);
#338=ORIENTED_EDGE('',*,*,#437,.F.);
#339=ORIENTED_EDGE('',*,*,#436,.T.);
#340=ORIENTED_EDGE('',*,*,#413,.T.);
#341=ORIENTED_EDGE('',*,*,#415,.F.);
#342=EDGE_CURVE('',#438,#438,#534,.T.);
#343=EDGE_CURVE('',#439,#439,#107,.T.);
#344=EDGE_CURVE('',#440,#440,#108,.T.);
#345=EDGE_CURVE('',#441,#441,#109,.T.);
#346=EDGE_CURVE('',#442,#443,#535,.T.);
#347=EDGE_CURVE('',#444,#442,#110,.T.);
#348=EDGE_CURVE('',#445,#444,#111,.T.);
#349=EDGE_CURVE('',#446,#445,#69,.T.);
#350=EDGE_CURVE('',#446,#447,#536,.T.);
#351=EDGE_CURVE('',#448,#447,#70,.T.);
#352=EDGE_CURVE('',#449,#448,#112,.T.);
#353=EDGE_CURVE('',#443,#449,#113,.T.);
#354=EDGE_CURVE('',#450,#451,#537,.T.);
#355=EDGE_CURVE('',#452,#450,#114,.T.);
#356=EDGE_CURVE('',#453,#452,#115,.T.);
#357=EDGE_CURVE('',#454,#453,#71,.T.);
#358=EDGE_CURVE('',#454,#455,#538,.T.);
#359=EDGE_CURVE('',#456,#455,#72,.T.);
#360=EDGE_CURVE('',#457,#456,#116,.T.);
#361=EDGE_CURVE('',#451,#457,#117,.T.);
#362=EDGE_CURVE('',#458,#459,#118,.T.);
#363=EDGE_CURVE('',#460,#458,#119,.T.);
#364=EDGE_CURVE('',#460,#461,#539,.T.);
#365=EDGE_CURVE('',#462,#461,#120,.T.);
#366=EDGE_CURVE('',#463,#462,#540,.T.);
#367=EDGE_CURVE('',#464,#463,#121,.T.);
#368=EDGE_CURVE('',#465,#464,#122,.T.);
#369=EDGE_CURVE('',#466,#465,#123,.T.);
#370=EDGE_CURVE('',#466,#467,#541,.T.);
#371=EDGE_CURVE('',#468,#467,#124,.T.);
#372=EDGE_CURVE('',#469,#468,#542,.T.);
#373=EDGE_CURVE('',#459,#469,#125,.T.);
#374=EDGE_CURVE('',#470,#471,#126,.T.);
#375=EDGE_CURVE('',#472,#470,#543,.T.);
#376=EDGE_CURVE('',#473,#472,#127,.T.);
#377=EDGE_CURVE('',#473,#474,#544,.T.);
#378=EDGE_CURVE('',#475,#474,#73,.T.);
#379=EDGE_CURVE('',#476,#475,#128,.T.);
#380=EDGE_CURVE('',#477,#476,#74,.T.);
#381=EDGE_CURVE('',#477,#471,#545,.T.);
#382=EDGE_CURVE('',#478,#479,#129,.T.);
#383=EDGE_CURVE('',#480,#478,#75,.T.);
#384=EDGE_CURVE('',#481,#480,#130,.T.);
#385=EDGE_CURVE('',#482,#481,#546,.T.);
#386=EDGE_CURVE('',#483,#482,#131,.T.);
#387=EDGE_CURVE('',#484,#483,#76,.T.);
#388=EDGE_CURVE('',#485,#484,#132,.T.);
#389=EDGE_CURVE('',#486,#485,#77,.T.);
#390=EDGE_CURVE('',#487,#486,#133,.T.);
#391=EDGE_CURVE('',#487,#488,#547,.T.);
#392=EDGE_CURVE('',#489,#488,#134,.T.);
#393=EDGE_CURVE('',#479,#489,#78,.T.);
#394=EDGE_CURVE('',#490,#491,#135,.T.);
#395=EDGE_CURVE('',#492,#490,#79,.T.);
#396=EDGE_CURVE('',#493,#492,#548,.T.);
#397=EDGE_CURVE('',#494,#493,#136,.T.);
#398=EDGE_CURVE('',#495,#494,#137,.T.);
#399=EDGE_CURVE('',#496,#495,#138,.T.);
#400=EDGE_CURVE('',#497,#496,#139,.T.);
#401=EDGE_CURVE('',#497,#498,#549,.T.);
#402=EDGE_CURVE('',#491,#498,#80,.T.);
#403=EDGE_CURVE('',#499,#500,#140,.T.);
#404=EDGE_CURVE('',#501,#499,#81,.T.);
#405=EDGE_CURVE('',#502,#501,#141,.T.);
#406=EDGE_CURVE('',#503,#502,#550,.T.);
#407=EDGE_CURVE('',#504,#503,#142,.T.);
#408=EDGE_CURVE('',#505,#504,#82,.T.);
#409=EDGE_CURVE('',#506,#505,#143,.T.);
#410=EDGE_CURVE('',#507,#506,#83,.T.);
#411=EDGE_CURVE('',#507,#508,#551,.T.);
#412=EDGE_CURVE('',#500,#508,#84,.T.);
#413=EDGE_CURVE('',#509,#509,#552,.T.);
#414=EDGE_CURVE('',#510,#510,#553,.T.);
#415=EDGE_CURVE('',#511,#511,#554,.T.);
#416=EDGE_CURVE('',#512,#513,#555,.T.);
#417=EDGE_CURVE('',#513,#514,#144,.T.);
#418=EDGE_CURVE('',#514,#515,#85,.T.);
#419=EDGE_CURVE('',#516,#515,#556,.T.);
#420=EDGE_CURVE('',#516,#517,#86,.T.);
#421=EDGE_CURVE('',#517,#512,#145,.T.);
#422=EDGE_CURVE('',#518,#519,#557,.T.);
#423=EDGE_CURVE('',#518,#520,#146,.T.);
#424=EDGE_CURVE('',#520,#521,#558,.T.);
#425=EDGE_CURVE('',#521,#519,#87,.T.);
#426=EDGE_CURVE('',#522,#522,#147,.T.);
#427=EDGE_CURVE('',#523,#523,#148,.T.);
#428=EDGE_CURVE('',#524,#524,#149,.T.);
#429=EDGE_CURVE('',#525,#525,#559,.T.);
#430=EDGE_CURVE('',#526,#526,#560,.F.);
#431=EDGE_CURVE('',#527,#527,#561,.T.);
#432=EDGE_CURVE('',#528,#528,#562,.T.);
#433=EDGE_CURVE('',#529,#529,#563,.T.);
#434=EDGE_CURVE('',#530,#530,#564,.T.);
#435=EDGE_CURVE('',#531,#531,#565,.T.);
#436=EDGE_CURVE('',#532,#532,#566,.T.);
#437=EDGE_CURVE('',#533,#533,#567,.T.);
#438=VERTEX_POINT('',#929);
#439=VERTEX_POINT('',#941);
#440=VERTEX_POINT('',#953);
#441=VERTEX_POINT('',#965);
#442=VERTEX_POINT('',#967);
#443=VERTEX_POINT('',#968);
#444=VERTEX_POINT('',#973);
#445=VERTEX_POINT('',#978);
#446=VERTEX_POINT('',#980);
#447=VERTEX_POINT('',#982);
#448=VERTEX_POINT('',#984);
#449=VERTEX_POINT('',#989);
#450=VERTEX_POINT('',#995);
#451=VERTEX_POINT('',#996);
#452=VERTEX_POINT('',#1001);
#453=VERTEX_POINT('',#1006);
#454=VERTEX_POINT('',#1008);
#455=VERTEX_POINT('',#1010);
#456=VERTEX_POINT('',#1012);
#457=VERTEX_POINT('',#1017);
#458=VERTEX_POINT('',#1027);
#459=VERTEX_POINT('',#1028);
#460=VERTEX_POINT('',#1033);
#461=VERTEX_POINT('',#1035);
#462=VERTEX_POINT('',#1043);
#463=VERTEX_POINT('',#1045);
#464=VERTEX_POINT('',#1050);
#465=VERTEX_POINT('',#1056);
#466=VERTEX_POINT('',#1061);
#467=VERTEX_POINT('',#1063);
#468=VERTEX_POINT('',#1071);
#469=VERTEX_POINT('',#1073);
#470=VERTEX_POINT('',#1083);
#471=VERTEX_POINT('',#1084);
#472=VERTEX_POINT('',#1086);
#473=VERTEX_POINT('',#1092);
#474=VERTEX_POINT('',#1094);
#475=VERTEX_POINT('',#1096);
#476=VERTEX_POINT('',#1102);
#477=VERTEX_POINT('',#1104);
#478=VERTEX_POINT('',#1111);
#479=VERTEX_POINT('',#1112);
#480=VERTEX_POINT('',#1114);
#481=VERTEX_POINT('',#1119);
#482=VERTEX_POINT('',#1121);
#483=VERTEX_POINT('',#1126);
#484=VERTEX_POINT('',#1128);
#485=VERTEX_POINT('',#1134);
#486=VERTEX_POINT('',#1136);
#487=VERTEX_POINT('',#1142);
#488=VERTEX_POINT('',#1144);
#489=VERTEX_POINT('',#1150);
#490=VERTEX_POINT('',#1157);
#491=VERTEX_POINT('',#1158);
#492=VERTEX_POINT('',#1160);
#493=VERTEX_POINT('',#1162);
#494=VERTEX_POINT('',#1170);
#495=VERTEX_POINT('',#1175);
#496=VERTEX_POINT('',#1181);
#497=VERTEX_POINT('',#1186);
#498=VERTEX_POINT('',#1188);
#499=VERTEX_POINT('',#1195);
#500=VERTEX_POINT('',#1196);
#501=VERTEX_POINT('',#1198);
#502=VERTEX_POINT('',#1204);
#503=VERTEX_POINT('',#1206);
#504=VERTEX_POINT('',#1212);
#505=VERTEX_POINT('',#1214);
#506=VERTEX_POINT('',#1220);
#507=VERTEX_POINT('',#1222);
#508=VERTEX_POINT('',#1224);
#509=VERTEX_POINT('',#1227);
#510=VERTEX_POINT('',#1230);
#511=VERTEX_POINT('',#1232);
#512=VERTEX_POINT('',#1235);
#513=VERTEX_POINT('',#1236);
#514=VERTEX_POINT('',#1241);
#515=VERTEX_POINT('',#1243);
#516=VERTEX_POINT('',#1245);
#517=VERTEX_POINT('',#1247);
#518=VERTEX_POINT('',#1255);
#519=VERTEX_POINT('',#1256);
#520=VERTEX_POINT('',#1264);
#521=VERTEX_POINT('',#1266);
#522=VERTEX_POINT('',#1286);
#523=VERTEX_POINT('',#1298);
#524=VERTEX_POINT('',#1310);
#525=VERTEX_POINT('',#1312);
#526=VERTEX_POINT('',#1314);
#527=VERTEX_POINT('',#1318);
#528=VERTEX_POINT('',#1322);
#529=VERTEX_POINT('',#1325);
#530=VERTEX_POINT('',#1329);
#531=VERTEX_POINT('',#1332);
#532=VERTEX_POINT('',#1336);
#533=VERTEX_POINT('',#1339);
#534=CIRCLE('',#729,0.02375);
#535=CIRCLE('',#730,0.02375);
#536=CIRCLE('',#731,0.02375);
#537=CIRCLE('',#732,0.02375);
#538=CIRCLE('',#733,0.02375);
#539=CIRCLE('',#734,0.02375);
#540=CIRCLE('',#735,0.02375);
#541=CIRCLE('',#736,0.02375);
#542=CIRCLE('',#737,0.02375);
#543=CIRCLE('',#738,0.02375);
#544=CIRCLE('',#739,0.02375);
#545=CIRCLE('',#740,0.02375);
#546=CIRCLE('',#741,0.02375);
#547=CIRCLE('',#742,0.02375);
#548=CIRCLE('',#743,0.02375);
#549=CIRCLE('',#744,0.02375);
#550=CIRCLE('',#745,0.02375);
#551=CIRCLE('',#746,0.02375);
#552=CIRCLE('',#747,0.02375);
#553=CIRCLE('',#749,0.02285);
#554=CIRCLE('',#750,0.02295);
#555=CIRCLE('',#752,0.02375);
#556=CIRCLE('',#753,0.02375);
#557=CIRCLE('',#756,0.02375);
#558=CIRCLE('',#757,0.02375);
#559=CIRCLE('',#765,0.0227);
#560=CIRCLE('',#766,0.0227);
#561=CIRCLE('',#769,0.02285);
#562=CIRCLE('',#772,0.0009);
#563=CIRCLE('',#774,0.0006);
#564=CIRCLE('',#777,0.0009);
#565=CIRCLE('',#779,0.0006);
#566=CIRCLE('',#782,0.0009);
#567=CIRCLE('',#784,0.0006);
#568=EDGE_LOOP('',(#150));
#569=EDGE_LOOP('',(#151));
#570=EDGE_LOOP('',(#152));
#571=EDGE_LOOP('',(#153));
#572=EDGE_LOOP('',(#154,#155,#156,#157,#158,#159,#160,#161));
#573=EDGE_LOOP('',(#162,#163,#164,#165,#166,#167,#168,#169));
#574=EDGE_LOOP('',(#170,#171,#172,#173,#174,#175,#176,#177,#178,#179,#180,
#181));
#575=EDGE_LOOP('',(#182,#183,#184,#185,#186,#187,#188,#189));
#576=EDGE_LOOP('',(#190,#191,#192,#193,#194,#195,#196,#197,#198,#199,#200,
#201));
#577=EDGE_LOOP('',(#202,#203,#204,#205,#206,#207,#208,#209,#210));
#578=EDGE_LOOP('',(#211,#212,#213,#214,#215,#216,#217,#218,#219,#220));
#579=EDGE_LOOP('',(#221));
#580=EDGE_LOOP('',(#222));
#581=EDGE_LOOP('',(#223));
#582=EDGE_LOOP('',(#224,#225,#226,#227,#228,#229));
#583=EDGE_LOOP('',(#230,#231,#232,#233,#234,#235));
#584=EDGE_LOOP('',(#236,#237,#238,#239,#240,#241,#242,#243,#244,#245));
#585=EDGE_LOOP('',(#246,#247,#248,#249));
#586=EDGE_LOOP('',(#250,#251,#252,#253));
#587=EDGE_LOOP('',(#254,#255,#256,#257,#258,#259,#260,#261,#262));
#588=EDGE_LOOP('',(#263,#264,#265,#266,#267,#268,#269,#270,#271,#272,#273,
#274));
#589=EDGE_LOOP('',(#275,#276,#277,#278,#279,#280,#281,#282));
#590=EDGE_LOOP('',(#283,#284,#285,#286,#287,#288,#289,#290,#291,#292,#293,
#294));
#591=EDGE_LOOP('',(#295,#296,#297,#298,#299,#300,#301,#302));
#592=EDGE_LOOP('',(#303,#304,#305,#306,#307,#308,#309,#310));
#593=EDGE_LOOP('',(#311));
#594=EDGE_LOOP('',(#312));
#595=EDGE_LOOP('',(#313));
#596=EDGE_LOOP('',(#314));
#597=EDGE_LOOP('',(#315));
#598=EDGE_LOOP('',(#316));
#599=EDGE_LOOP('',(#317));
#600=EDGE_LOOP('',(#318));
#601=EDGE_LOOP('',(#319));
#602=EDGE_LOOP('',(#320));
#603=EDGE_LOOP('',(#321));
#604=EDGE_LOOP('',(#322));
#605=EDGE_LOOP('',(#323));
#606=EDGE_LOOP('',(#324));
#607=EDGE_LOOP('',(#325));
#608=EDGE_LOOP('',(#326));
#609=EDGE_LOOP('',(#327));
#610=EDGE_LOOP('',(#328));
#611=EDGE_LOOP('',(#329));
#612=EDGE_LOOP('',(#330));
#613=EDGE_LOOP('',(#331));
#614=EDGE_LOOP('',(#332));
#615=EDGE_LOOP('',(#333));
#616=EDGE_LOOP('',(#334));
#617=EDGE_LOOP('',(#335));
#618=EDGE_LOOP('',(#336));
#619=EDGE_LOOP('',(#337));
#620=EDGE_LOOP('',(#338));
#621=EDGE_LOOP('',(#339));
#622=EDGE_LOOP('',(#340));
#623=EDGE_LOOP('',(#341));
#624=FACE_BOUND('',#568,.T.);
#625=FACE_BOUND('',#569,.T.);
#626=FACE_BOUND('',#570,.T.);
#627=FACE_BOUND('',#571,.T.);
#628=FACE_BOUND('',#572,.T.);
#629=FACE_BOUND('',#573,.T.);
#630=FACE_BOUND('',#574,.T.);
#631=FACE_BOUND('',#575,.T.);
#632=FACE_BOUND('',#576,.T.);
#633=FACE_BOUND('',#577,.T.);
#634=FACE_BOUND('',#578,.T.);
#635=FACE_BOUND('',#579,.T.);
#636=FACE_BOUND('',#580,.T.);
#637=FACE_BOUND('',#581,.T.);
#638=FACE_BOUND('',#582,.T.);
#639=FACE_BOUND('',#583,.T.);
#640=FACE_BOUND('',#584,.T.);
#641=FACE_BOUND('',#585,.T.);
#642=FACE_BOUND('',#586,.T.);
#643=FACE_BOUND('',#587,.T.);
#644=FACE_BOUND('',#588,.T.);
#645=FACE_BOUND('',#589,.T.);
#646=FACE_BOUND('',#590,.T.);
#647=FACE_BOUND('',#591,.T.);
#648=FACE_BOUND('',#592,.T.);
#649=FACE_BOUND('',#593,.T.);
#650=FACE_BOUND('',#594,.T.);
#651=FACE_BOUND('',#595,.T.);
#652=FACE_BOUND('',#596,.T.);
#653=FACE_BOUND('',#597,.T.);
#654=FACE_BOUND('',#598,.T.);
#655=FACE_BOUND('',#599,.T.);
#656=FACE_BOUND('',#600,.T.);
#657=FACE_BOUND('',#601,.T.);
#658=FACE_BOUND('',#602,.T.);
#659=FACE_BOUND('',#603,.T.);
#660=FACE_BOUND('',#604,.T.);
#661=FACE_BOUND('',#605,.T.);
#662=FACE_BOUND('',#606,.T.);
#663=FACE_BOUND('',#607,.T.);
#664=FACE_BOUND('',#608,.T.);
#665=FACE_BOUND('',#609,.T.);
#666=FACE_BOUND('',#610,.T.);
#667=FACE_BOUND('',#611,.T.);
#668=FACE_BOUND('',#612,.T.);
#669=FACE_BOUND('',#613,.T.);
#670=FACE_BOUND('',#614,.T.);
#671=FACE_BOUND('',#615,.T.);
#672=FACE_BOUND('',#616,.T.);
#673=FACE_BOUND('',#617,.T.);
#674=FACE_BOUND('',#618,.T.);
#675=FACE_BOUND('',#619,.T.);
#676=FACE_BOUND('',#620,.T.);
#677=FACE_BOUND('',#621,.T.);
#678=FACE_BOUND('',#622,.T.);
#679=FACE_BOUND('',#623,.T.);
#680=CYLINDRICAL_SURFACE('',#728,0.02375);
#681=CYLINDRICAL_SURFACE('',#751,0.02375);
#682=CYLINDRICAL_SURFACE('',#754,0.02375);
#683=CYLINDRICAL_SURFACE('',#755,0.02375);
#684=CYLINDRICAL_SURFACE('',#758,0.02375);
#685=CYLINDRICAL_SURFACE('',#759,0.02375);
#686=CYLINDRICAL_SURFACE('',#760,0.02375);
#687=CYLINDRICAL_SURFACE('',#761,0.02375);
#688=CYLINDRICAL_SURFACE('',#762,0.02375);
#689=CYLINDRICAL_SURFACE('',#763,0.02375);
#690=CYLINDRICAL_SURFACE('',#764,0.0227);
#691=CYLINDRICAL_SURFACE('',#770,0.02285);
#692=CYLINDRICAL_SURFACE('',#771,0.0009);
#693=CYLINDRICAL_SURFACE('',#773,0.0006);
#694=CYLINDRICAL_SURFACE('',#776,0.0009);
#695=CYLINDRICAL_SURFACE('',#778,0.0006);
#696=CYLINDRICAL_SURFACE('',#781,0.0009);
#697=CYLINDRICAL_SURFACE('',#783,0.0006);
#698=ADVANCED_FACE('',(#624,#625,#626,#627,#628,#629,#630,#631,#632,#633,
#634,#635),#680,.T.);
#699=ADVANCED_FACE('',(#636,#637),#66,.F.);
#700=ADVANCED_FACE('',(#638),#681,.T.);
#701=ADVANCED_FACE('',(#639,#640),#682,.T.);
#702=ADVANCED_FACE('',(#641),#683,.T.);
#703=ADVANCED_FACE('',(#642,#643),#684,.T.);
#704=ADVANCED_FACE('',(#644),#685,.T.);
#705=ADVANCED_FACE('',(#645),#686,.T.);
#706=ADVANCED_FACE('',(#646),#687,.T.);
#707=ADVANCED_FACE('',(#647),#688,.T.);
#708=ADVANCED_FACE('',(#648),#689,.T.);
#709=ADVANCED_FACE('',(#649,#650,#651,#652,#653),#690,.F.);
#710=ADVANCED_FACE('',(#654,#655),#67,.T.);
#711=ADVANCED_FACE('',(#656,#657),#68,.T.);
#712=ADVANCED_FACE('',(#658,#659),#691,.F.);
#713=ADVANCED_FACE('',(#660,#661),#692,.F.);
#714=ADVANCED_FACE('',(#662,#663),#693,.F.);
#715=ADVANCED_FACE('',(#664,#665),#12,.F.);
#716=ADVANCED_FACE('',(#666,#667),#694,.F.);
#717=ADVANCED_FACE('',(#668,#669),#695,.F.);
#718=ADVANCED_FACE('',(#670,#671),#13,.F.);
#719=ADVANCED_FACE('',(#672,#673),#696,.F.);
#720=ADVANCED_FACE('',(#674,#675),#697,.F.);
#721=ADVANCED_FACE('',(#676,#677),#14,.F.);
#722=ADVANCED_FACE('',(#678,#679),#15,.T.);
#723=CLOSED_SHELL('',(#698,#699,#700,#701,#702,#703,#704,#705,#706,#707,
#708,#709,#710,#711,#712,#713,#714,#715,#716,#717,#718,#719,#720,#721,#722));
#724=MANIFOLD_SOLID_BREP('',#723);
#725=SHAPE_DEFINITION_REPRESENTATION(#1348,#726);
#726=SHAPE_REPRESENTATION('id2',(#727),#1343);
#727=AXIS2_PLACEMENT_3D('',#926,#787,#788);
#728=AXIS2_PLACEMENT_3D('',#927,#789,#790);
#729=AXIS2_PLACEMENT_3D('',#928,#791,#792);
#730=AXIS2_PLACEMENT_3D('',#966,#793,#794);
#731=AXIS2_PLACEMENT_3D('',#981,#796,#797);
#732=AXIS2_PLACEMENT_3D('',#994,#799,#800);
#733=AXIS2_PLACEMENT_3D('',#1009,#802,#803);
#734=AXIS2_PLACEMENT_3D('',#1034,#805,#806);
#735=AXIS2_PLACEMENT_3D('',#1044,#807,#808);
#736=AXIS2_PLACEMENT_3D('',#1062,#809,#810);
#737=AXIS2_PLACEMENT_3D('',#1072,#811,#812);
#738=AXIS2_PLACEMENT_3D('',#1085,#813,#814);
#739=AXIS2_PLACEMENT_3D('',#1093,#815,#816);
#740=AXIS2_PLACEMENT_3D('',#1105,#819,#820);
#741=AXIS2_PLACEMENT_3D('',#1120,#822,#823);
#742=AXIS2_PLACEMENT_3D('',#1143,#826,#827);
#743=AXIS2_PLACEMENT_3D('',#1161,#830,#831);
#744=AXIS2_PLACEMENT_3D('',#1187,#832,#833);
#745=AXIS2_PLACEMENT_3D('',#1205,#836,#837);
#746=AXIS2_PLACEMENT_3D('',#1223,#840,#841);
#747=AXIS2_PLACEMENT_3D('',#1226,#843,#844);
#748=AXIS2_PLACEMENT_3D('',#1228,#845,#846);
#749=AXIS2_PLACEMENT_3D('',#1229,#847,#848);
#750=AXIS2_PLACEMENT_3D('',#1231,#849,#850);
#751=AXIS2_PLACEMENT_3D('',#1233,#851,#852);
#752=AXIS2_PLACEMENT_3D('',#1234,#853,#854);
#753=AXIS2_PLACEMENT_3D('',#1244,#856,#857);
#754=AXIS2_PLACEMENT_3D('',#1252,#859,#860);
#755=AXIS2_PLACEMENT_3D('',#1253,#861,#862);
#756=AXIS2_PLACEMENT_3D('',#1254,#863,#864);
#757=AXIS2_PLACEMENT_3D('',#1265,#865,#866);
#758=AXIS2_PLACEMENT_3D('',#1268,#868,#869);
#759=AXIS2_PLACEMENT_3D('',#1269,#870,#871);
#760=AXIS2_PLACEMENT_3D('',#1270,#872,#873);
#761=AXIS2_PLACEMENT_3D('',#1271,#874,#875);
#762=AXIS2_PLACEMENT_3D('',#1272,#876,#877);
#763=AXIS2_PLACEMENT_3D('',#1273,#878,#879);
#764=AXIS2_PLACEMENT_3D('',#1274,#880,#881);
#765=AXIS2_PLACEMENT_3D('',#1311,#882,#883);
#766=AXIS2_PLACEMENT_3D('',#1313,#884,#885);
#767=AXIS2_PLACEMENT_3D('',#1315,#886,#887);
#768=AXIS2_PLACEMENT_3D('',#1316,#888,#889);
#769=AXIS2_PLACEMENT_3D('',#1317,#890,#891);
#770=AXIS2_PLACEMENT_3D('',#1319,#892,#893);
#771=AXIS2_PLACEMENT_3D('',#1320,#894,#895);
#772=AXIS2_PLACEMENT_3D('',#1321,#896,#897);
#773=AXIS2_PLACEMENT_3D('',#1323,#898,#899);
#774=AXIS2_PLACEMENT_3D('',#1324,#900,#901);
#775=AXIS2_PLACEMENT_3D('',#1326,#902,#903);
#776=AXIS2_PLACEMENT_3D('',#1327,#904,#905);
#777=AXIS2_PLACEMENT_3D('',#1328,#906,#907);
#778=AXIS2_PLACEMENT_3D('',#1330,#908,#909);
#779=AXIS2_PLACEMENT_3D('',#1331,#910,#911);
#780=AXIS2_PLACEMENT_3D('',#1333,#912,#913);
#781=AXIS2_PLACEMENT_3D('',#1334,#914,#915);
#782=AXIS2_PLACEMENT_3D('',#1335,#916,#917);
#783=AXIS2_PLACEMENT_3D('',#1337,#918,#919);
#784=AXIS2_PLACEMENT_3D('',#1338,#920,#921);
#785=AXIS2_PLACEMENT_3D('',#1340,#922,#923);
#786=AXIS2_PLACEMENT_3D('',#1341,#924,#925);
#787=DIRECTION('',(0.,0.,1.));
#788=DIRECTION('',(1.,0.,0.));
#789=DIRECTION('',(0.,-1.,0.));
#790=DIRECTION('',(0.,0.,-1.));
#791=DIRECTION('',(0.,1.,0.));
#792=DIRECTION('',(0.,0.,1.));
#793=DIRECTION('',(0.,-1.,0.));
#794=DIRECTION('',(0.999992769773572,0.,0.00380268333934923));
#795=DIRECTION('',(0.,1.,0.));
#796=DIRECTION('',(0.,-1.,0.));
#797=DIRECTION('',(0.999992769773572,0.,0.00380268333934923));
#798=DIRECTION('',(0.,-1.,0.));
#799=DIRECTION('',(0.,-1.,0.));
#800=DIRECTION('',(-0.639869937745519,0.,-0.768483222178302));
#801=DIRECTION('',(0.,1.,0.));
#802=DIRECTION('',(0.,-1.,0.));
#803=DIRECTION('',(-0.639869937745519,0.,-0.768483222178302));
#804=DIRECTION('',(0.,-1.,0.));
#805=DIRECTION('',(0.,-1.,0.));
#806=DIRECTION('',(-0.212427996542042,0.,0.977176722136346));
#807=DIRECTION('',(0.,-1.,0.));
#808=DIRECTION('',(-0.212427996542042,7.30409884621813E-16,0.977176722136346));
#809=DIRECTION('',(0.,-1.,0.));
#810=DIRECTION('',(-0.212427996542042,0.,0.977176722136346));
#811=DIRECTION('',(0.,-1.,0.));
#812=DIRECTION('',(-0.212427996542042,1.46081976924363E-16,0.977176722136346));
#813=DIRECTION('',(0.,-1.,0.));
#814=DIRECTION('',(0.510197737731268,0.,0.860057130901138));
#815=DIRECTION('',(0.,-1.,0.));
#816=DIRECTION('',(0.584152704320172,0.,0.811643775332153));
#817=DIRECTION('',(0.,1.,0.));
#818=DIRECTION('',(0.,-1.,0.));
#819=DIRECTION('',(0.,-1.,0.));
#820=DIRECTION('',(0.510197737731268,0.,0.860057130901138));
#821=DIRECTION('',(0.,1.,0.));
#822=DIRECTION('',(0.,-1.,0.));
#823=DIRECTION('',(0.0511817884644289,0.,0.998689353367494));
#824=DIRECTION('',(3.78485122031303E-14,-1.,-6.30808536718838E-15));
#825=DIRECTION('',(0.,1.,0.));
#826=DIRECTION('',(0.,-1.,0.));
#827=DIRECTION('',(0.0511817884644289,0.,0.998689353367494));
#828=DIRECTION('',(0.,-1.,0.));
#829=DIRECTION('',(0.,-1.,0.));
#830=DIRECTION('',(0.,-1.,0.));
#831=DIRECTION('',(0.258752481184038,0.,0.965943659579121));
#832=DIRECTION('',(0.,-1.,0.));
#833=DIRECTION('',(0.274983539330323,0.,0.961448934211989));
#834=DIRECTION('',(0.,1.,0.));
#835=DIRECTION('',(0.,-1.,0.));
#836=DIRECTION('',(0.,-1.,0.));
#837=DIRECTION('',(0.746497854800845,0.,0.665387821332595));
#838=DIRECTION('',(0.,1.,0.));
#839=DIRECTION('',(0.,-1.,0.));
#840=DIRECTION('',(0.,-1.,0.));
#841=DIRECTION('',(0.723665571601715,0.,0.690150809952696));
#842=DIRECTION('',(0.,1.,0.));
#843=DIRECTION('',(0.,-1.,0.));
#844=DIRECTION('',(0.,0.,-1.));
#845=DIRECTION('',(0.,1.,0.));
#846=DIRECTION('',(0.,0.,1.));
#847=DIRECTION('',(0.,-1.,0.));
#848=DIRECTION('',(0.,0.,-1.));
#849=DIRECTION('',(0.,-1.,0.));
#850=DIRECTION('',(0.,0.,-1.));
#851=DIRECTION('',(0.,-1.,0.));
#852=DIRECTION('',(0.,0.,-1.));
#853=DIRECTION('',(0.,-1.,0.));
#854=DIRECTION('',(0.746497854800845,0.,0.665387821332595));
#855=DIRECTION('',(0.,-1.,0.));
#856=DIRECTION('',(0.,-1.,0.));
#857=DIRECTION('',(0.723665571601715,0.,0.690150809952696));
#858=DIRECTION('',(0.,1.,0.));
#859=DIRECTION('',(0.,-1.,0.));
#860=DIRECTION('',(0.,0.,-1.));
#861=DIRECTION('',(0.,-1.,0.));
#862=DIRECTION('',(0.,0.,-1.));
#863=DIRECTION('',(0.,-1.,0.));
#864=DIRECTION('',(0.274983539330323,0.,0.961448934211989));
#865=DIRECTION('',(0.,-1.,0.));
#866=DIRECTION('',(0.274983539330323,0.,0.961448934211989));
#867=DIRECTION('',(0.,-1.,0.));
#868=DIRECTION('',(0.,-1.,0.));
#869=DIRECTION('',(0.,0.,-1.));
#870=DIRECTION('',(0.,-1.,0.));
#871=DIRECTION('',(0.,0.,-1.));
#872=DIRECTION('',(0.,-1.,0.));
#873=DIRECTION('',(0.,0.,-1.));
#874=DIRECTION('',(0.,-1.,0.));
#875=DIRECTION('',(0.,0.,-1.));
#876=DIRECTION('',(0.,-1.,0.));
#877=DIRECTION('',(0.,0.,-1.));
#878=DIRECTION('',(0.,-1.,0.));
#879=DIRECTION('',(0.,0.,-1.));
#880=DIRECTION('',(0.,1.,0.));
#881=DIRECTION('',(0.,0.,1.));
#882=DIRECTION('',(0.,1.,0.));
#883=DIRECTION('',(0.,0.,1.));
#884=DIRECTION('',(0.,-1.,0.));
#885=DIRECTION('',(0.,0.,-1.));
#886=DIRECTION('',(0.,1.,0.));
#887=DIRECTION('',(0.,0.,1.));
#888=DIRECTION('',(0.,-1.,0.));
#889=DIRECTION('',(0.,0.,-1.));
#890=DIRECTION('',(0.,-1.,0.));
#891=DIRECTION('',(0.,0.,-1.));
#892=DIRECTION('',(0.,-1.,0.));
#893=DIRECTION('',(0.,0.,-1.));
#894=DIRECTION('',(0.939692620785908,0.,0.34202014332567));
#895=DIRECTION('',(0.34202014332567,0.,-0.939692620785908));
#896=DIRECTION('',(0.939692620785908,0.,0.34202014332567));
#897=DIRECTION('',(0.34202014332567,0.,-0.939692620785908));
#898=DIRECTION('',(0.939692620785908,0.,0.34202014332567));
#899=DIRECTION('',(0.34202014332567,0.,-0.939692620785908));
#900=DIRECTION('',(0.939692620785908,0.,0.34202014332567));
#901=DIRECTION('',(0.34202014332567,0.,-0.939692620785908));
#902=DIRECTION('',(0.939692620785908,0.,0.34202014332567));
#903=DIRECTION('',(0.34202014332567,0.,-0.939692620785908));
#904=DIRECTION('',(-0.719339800338655,0.,0.694658370458993));
#905=DIRECTION('',(0.694658370458993,0.,0.719339800338655));
#906=DIRECTION('',(-0.719339800338655,0.,0.694658370458993));
#907=DIRECTION('',(0.694658370458993,0.,0.719339800338655));
#908=DIRECTION('',(-0.719339800338655,0.,0.694658370458993));
#909=DIRECTION('',(0.694658370458993,0.,0.719339800338655));
#910=DIRECTION('',(-0.719339800338655,0.,0.694658370458993));
#911=DIRECTION('',(0.694658370458993,0.,0.719339800338655));
#912=DIRECTION('',(-0.719339800338655,0.,0.694658370458993));
#913=DIRECTION('',(0.694658370458993,0.,0.719339800338655));
#914=DIRECTION('',(-0.766044443118973,0.,-0.642787609686546));
#915=DIRECTION('',(-0.642787609686546,0.,0.766044443118973));
#916=DIRECTION('',(-0.766044443118973,0.,-0.642787609686546));
#917=DIRECTION('',(-0.642787609686546,0.,0.766044443118973));
#918=DIRECTION('',(-0.766044443118973,0.,-0.642787609686546));
#919=DIRECTION('',(-0.642787609686546,0.,0.766044443118973));
#920=DIRECTION('',(-0.766044443118973,0.,-0.642787609686546));
#921=DIRECTION('',(-0.642787609686546,0.,0.766044443118973));
#922=DIRECTION('',(-0.766044443118973,0.,-0.642787609686546));
#923=DIRECTION('',(-0.642787609686546,0.,0.766044443118973));
#924=DIRECTION('',(0.,1.,0.));
#925=DIRECTION('',(0.,0.,1.));
#926=CARTESIAN_POINT('',(0.,0.,0.));
#927=CARTESIAN_POINT('',(0.,0.0215,0.));
#928=CARTESIAN_POINT('',(0.,0.0215,0.));
#929=CARTESIAN_POINT('',(0.,0.0215,0.02375));
#930=CARTESIAN_POINT('',(0.022550729188407,0.0207060503803996,0.00745786985899016));
#931=CARTESIAN_POINT('',(0.0226388517783273,0.0199998192628555,0.00717825061815894));
#932=CARTESIAN_POINT('',(0.0225507910006084,0.0192946725681782,0.00745765130706461));
#933=CARTESIAN_POINT('',(0.0223219524408661,0.0190027647021736,0.00812374539240931));
#934=CARTESIAN_POINT('',(0.022068582447956,0.0192942693907523,0.00878253188366492));
#935=CARTESIAN_POINT('',(0.0219565772557361,0.0199998646813782,0.00905281346617826));
#936=CARTESIAN_POINT('',(0.0220682184123723,0.020704352190997,0.00878341787858032));
#937=CARTESIAN_POINT('',(0.022321345455598,0.0209973986659506,0.00812542938049044));
#938=CARTESIAN_POINT('',(0.022550729188407,0.0207060503803996,0.00745786985899016));
#939=CARTESIAN_POINT('',(0.0226388517783273,0.0199998192628555,0.00717825061815894));
#940=CARTESIAN_POINT('',(0.0225507910006084,0.0192946725681782,0.00745765130706461));
#941=CARTESIAN_POINT('',(0.0226094878837208,0.02,0.00727142060644842));
#942=CARTESIAN_POINT('',(-0.0165886780425864,0.0207060503803997,0.0169991461715557));
#943=CARTESIAN_POINT('',(-0.0163759883344979,0.0199998192628555,0.0172009272379881));
#944=CARTESIAN_POINT('',(-0.0165885087061025,0.0192946725681782,0.0169992975348526));
#945=CARTESIAN_POINT('',(-0.0170868738824216,0.0190027647021736,0.0165016223717306));
#946=CARTESIAN_POINT('',(-0.0175679171641905,0.0192942693907523,0.0159851019409312));
#947=CARTESIAN_POINT('',(-0.017761744796818,0.0199998646813782,0.015765948693727));
#948=CARTESIAN_POINT('',(-0.0175685539084492,0.020704352190997,0.0159843863533088));
#949=CARTESIAN_POINT('',(-0.0170881213560549,0.0209973986659506,0.0165003386051991));
#950=CARTESIAN_POINT('',(-0.0165886780425864,0.0207060503803997,0.0169991461715557));
#951=CARTESIAN_POINT('',(-0.0163759883344979,0.0199998192628555,0.0172009272379881));
#952=CARTESIAN_POINT('',(-0.0165885087061025,0.0192946725681782,0.0169992975348526));
#953=CARTESIAN_POINT('',(-0.0164468566811134,0.02,0.0171336921097268));
#954=CARTESIAN_POINT('',(-0.0186400120936113,0.0207060503803997,-0.0147209089023922));
#955=CARTESIAN_POINT('',(-0.0188184556539097,0.0199998192628555,-0.0144882924659881));
#956=CARTESIAN_POINT('',(-0.0186401449272418,0.0192946725681782,-0.0147207246717785));
#957=CARTESIAN_POINT('',(-0.0181972894267627,0.0190027647021736,-0.0152683809715245));
#958=CARTESIAN_POINT('',(-0.0177338812639362,0.0192942693907523,-0.0158007801347413));
#959=CARTESIAN_POINT('',(-0.0175361890657279,0.0199998646813783,-0.0160164537114671));
#960=CARTESIAN_POINT('',(-0.0177332361542766,0.020704352190997,-0.0158014881901228));
#961=CARTESIAN_POINT('',(-0.0181961430893405,0.0209973986659506,-0.0152697558015094));
#962=CARTESIAN_POINT('',(-0.0186400120936113,0.0207060503803997,-0.0147209089023922));
#963=CARTESIAN_POINT('',(-0.0188184556539097,0.0199998192628555,-0.0144882924659881));
#964=CARTESIAN_POINT('',(-0.0186401449272418,0.0192946725681782,-0.0147207246717785));
#965=CARTESIAN_POINT('',(-0.018758996606082,0.02,-0.0145658005730205));
#966=CARTESIAN_POINT('',(0.,0.0113,0.));
#967=CARTESIAN_POINT('',(0.0237497467156033,0.0113,-0.000109685663107134));
#968=CARTESIAN_POINT('',(0.0237498282821223,0.0113,9.03137293095448E-5));
#969=CARTESIAN_POINT('',(0.0237412262399096,0.0093,-0.000645504938345532));
#970=CARTESIAN_POINT('',(0.0237460813283851,0.00996666666666667,-0.000466938134182455));
#971=CARTESIAN_POINT('',(0.0237489217279583,0.0106333333333333,-0.000288316553012769));
#972=CARTESIAN_POINT('',(0.0237497467156033,0.0113,-0.00010968566310706));
#973=CARTESIAN_POINT('',(0.0237412262399096,0.0093,-0.000645504938345495));
#974=CARTESIAN_POINT('',(0.0237497467156033,0.0098358983848622,-0.00010968566310706));
#975=CARTESIAN_POINT('',(0.0237489217279583,0.00965726558990813,-0.000288316553012769));
#976=CARTESIAN_POINT('',(0.0237460813283851,0.00947863279495407,-0.000466938134182455));
#977=CARTESIAN_POINT('',(0.0237412262399096,0.0093,-0.000645504938345532));
#978=CARTESIAN_POINT('',(0.0237497467156033,0.00983589838486224,-0.000109685663107134));
#979=CARTESIAN_POINT('',(0.0237497467156033,0.0043,-0.000109685663107134));
#980=CARTESIAN_POINT('',(0.0237497467156033,0.0043,-0.00010968566310714));
#981=CARTESIAN_POINT('',(0.,0.0043,0.));
#982=CARTESIAN_POINT('',(0.0237498282821223,0.0043,9.03137293095442E-5));
#983=CARTESIAN_POINT('',(0.0237498282821223,0.00983589838486224,9.03137293095442E-5));
#984=CARTESIAN_POINT('',(0.0237498282821223,0.00983589838486224,9.03137293095448E-5));
#985=CARTESIAN_POINT('',(0.0237417448596493,0.0093,0.000626139776179322));
#986=CARTESIAN_POINT('',(0.0237464542953652,0.00947863279495407,0.00044756907127975));
#987=CARTESIAN_POINT('',(0.0237491489981691,0.00965726558990813,0.000268945232708118));
#988=CARTESIAN_POINT('',(0.0237498282821223,0.0098358983848622,9.03137293096344E-5));
#989=CARTESIAN_POINT('',(0.0237417448596493,0.0093,0.000626139776179359));
#990=CARTESIAN_POINT('',(0.0237498282821223,0.0113,9.03137293096344E-5));
#991=CARTESIAN_POINT('',(0.0237491489981691,0.0106333333333333,0.000268945232708118));
#992=CARTESIAN_POINT('',(0.0237464542953652,0.00996666666666667,0.00044756907127975));
#993=CARTESIAN_POINT('',(0.0237417448596493,0.0093,0.000626139776179322));
#994=CARTESIAN_POINT('',(0.,0.0113,0.));
#995=CARTESIAN_POINT('',(-0.0153500670146962,0.0113,-0.0181228569117657));
#996=CARTESIAN_POINT('',(-0.0151969110214561,0.0113,-0.0182514765267347));
#997=CARTESIAN_POINT('',(-0.0157550515368041,0.0093,-0.0177719118575534));
#998=CARTESIAN_POINT('',(-0.0156213822194654,0.00996666666666667,-0.0178904116003183));
#999=CARTESIAN_POINT('',(-0.0154863759234415,0.0106333333333333,-0.0180074032118261));
#1000=CARTESIAN_POINT('',(-0.0153500670146961,0.0113,-0.0181228569117658));
#1001=CARTESIAN_POINT('',(-0.0157550515368041,0.0093,-0.0177719118575534));
#1002=CARTESIAN_POINT('',(-0.0153500670146961,0.0098358983848622,-0.0181228569117658));
#1003=CARTESIAN_POINT('',(-0.0154863759234415,0.00965726558990813,-0.0180074032118261));
#1004=CARTESIAN_POINT('',(-0.0156213822194654,0.00947863279495407,-0.0178904116003183));
#1005=CARTESIAN_POINT('',(-0.0157550515368041,0.0093,-0.0177719118575534));
#1006=CARTESIAN_POINT('',(-0.0153500670146962,0.00983589838486224,-0.0181228569117657));
#1007=CARTESIAN_POINT('',(-0.0153500670146962,0.0043,-0.0181228569117657));
#1008=CARTESIAN_POINT('',(-0.0153500670146962,0.0043,-0.0181228569117657));
#1009=CARTESIAN_POINT('',(0.,0.0043,0.));
#1010=CARTESIAN_POINT('',(-0.0151969110214561,0.0043,-0.0182514765267347));
#1011=CARTESIAN_POINT('',(-0.0151969110214561,0.00983589838486224,-0.0182514765267347));
#1012=CARTESIAN_POINT('',(-0.0151969110214561,0.00983589838486224,-0.0182514765267347));
#1013=CARTESIAN_POINT('',(-0.0147812485319635,0.0093,-0.0185897066097431));
#1014=CARTESIAN_POINT('',(-0.0149210687950825,0.00947863279495407,-0.0184785312102409));
#1015=CARTESIAN_POINT('',(-0.0150596347156031,0.00965726558990813,-0.0183657782821212));
#1016=CARTESIAN_POINT('',(-0.0151969110214562,0.0098358983848622,-0.0182514765267346));
#1017=CARTESIAN_POINT('',(-0.0147812485319635,0.0093,-0.0185897066097431));
#1018=CARTESIAN_POINT('',(-0.0151969110214562,0.0113,-0.0182514765267346));
#1019=CARTESIAN_POINT('',(-0.0150596347156031,0.0106333333333333,-0.0183657782821212));
#1020=CARTESIAN_POINT('',(-0.0149210687950825,0.00996666666666667,-0.0184785312102409));
#1021=CARTESIAN_POINT('',(-0.0147812485319635,0.0093,-0.0185897066097431));
#1022=CARTESIAN_POINT('',(-0.00225323450659716,0.0050971940194082,0.0236428728004505));
#1023=CARTESIAN_POINT('',(-0.00216827013615085,0.00516969954767593,0.0236509701519414));
#1024=CARTESIAN_POINT('',(-0.00215863523258943,0.00543470298566638,0.0236520736620671));
#1025=CARTESIAN_POINT('',(-0.00241985875238402,0.0054758732533601,0.0236265607832516));
#1026=CARTESIAN_POINT('',(-0.00250649754002457,0.0054057497057441,0.0236173658582377));
#1027=CARTESIAN_POINT('',(-0.00225323450659708,0.00509719401940817,0.0236428728004505));
#1028=CARTESIAN_POINT('',(-0.00250649754002454,0.00540574970574412,0.0236173658582377));
#1029=CARTESIAN_POINT('',(-0.00307524240465793,0.0048,0.0235500612345827));
#1030=CARTESIAN_POINT('',(-0.00277405156878334,0.00480067450094733,0.0235893916983615));
#1031=CARTESIAN_POINT('',(-0.00248637780356464,0.00490459124797567,0.0236206535665129));
#1032=CARTESIAN_POINT('',(-0.00225323450659716,0.0050971940194082,0.0236428728004505));
#1033=CARTESIAN_POINT('',(-0.00307524240465777,0.0048,0.0235500612345827));
#1034=CARTESIAN_POINT('',(0.,0.0048,0.));
#1035=CARTESIAN_POINT('',(-0.00504516491787349,0.0048,0.0232079471507382));
#1036=CARTESIAN_POINT('',(-0.00504516491787342,0.0074,0.0232079471507382));
#1037=CARTESIAN_POINT('',(-0.00538385938633432,0.00739923033058667,0.0231343185165873));
#1038=CARTESIAN_POINT('',(-0.00603329453368752,0.00711904062916858,0.0229749331389132));
#1039=CARTESIAN_POINT('',(-0.00644420560540676,0.00609994517619897,0.0228583115491327));
#1040=CARTESIAN_POINT('',(-0.00603370902607185,0.00508117864087932,0.022974843033008));
#1041=CARTESIAN_POINT('',(-0.00538289221445417,0.00480033111400533,0.0231345287696358));
#1042=CARTESIAN_POINT('',(-0.00504516491787342,0.0048,0.0232079471507382));
#1043=CARTESIAN_POINT('',(-0.0050451649178735,0.0074,0.0232079471507382));
#1044=CARTESIAN_POINT('',(0.,0.0074,0.));
#1045=CARTESIAN_POINT('',(-0.00307524240465777,0.0074,0.0235500612345827));
#1046=CARTESIAN_POINT('',(-0.00225323450659716,0.0071028059805918,0.0236428728004505));
#1047=CARTESIAN_POINT('',(-0.00248691280187798,0.00729557981467846,0.0236206025796184));
#1048=CARTESIAN_POINT('',(-0.00277457058227501,0.00739953553924413,0.0235893239239178));
#1049=CARTESIAN_POINT('',(-0.00307524240465769,0.0074,0.0235500612345827));
#1050=CARTESIAN_POINT('',(-0.00225323450659704,0.00710280598059182,0.0236428728004505));
#1051=CARTESIAN_POINT('',(-0.00250649754002457,0.0067942502942559,0.0236173658582377));
#1052=CARTESIAN_POINT('',(-0.00241952181053605,0.0067241933035095,0.0236265965426973));
#1053=CARTESIAN_POINT('',(-0.00215885940707729,0.00676513882569808,0.0236520504732341));
#1054=CARTESIAN_POINT('',(-0.00216815803416936,0.00703055111874033,0.0236509808355861));
#1055=CARTESIAN_POINT('',(-0.00225323450659693,0.0071028059805918,0.0236428728004505));
#1056=CARTESIAN_POINT('',(-0.0025064975400245,0.00679425029425588,0.0236173658582377));
#1057=CARTESIAN_POINT('',(-0.00307524240465769,0.007,0.0235500612345827));
#1058=CARTESIAN_POINT('',(-0.00286614758546004,0.0069993236236476,0.0235773655056071));
#1059=CARTESIAN_POINT('',(-0.00266700706899722,0.00692732942293496,0.0236003310736671));
#1060=CARTESIAN_POINT('',(-0.00250649754002457,0.0067942502942559,0.0236173658582377));
#1061=CARTESIAN_POINT('',(-0.00307524240465777,0.007,0.0235500612345827));
#1062=CARTESIAN_POINT('',(0.,0.007,0.));
#1063=CARTESIAN_POINT('',(-0.00504516491787349,0.007,0.0232079471507382));
#1064=CARTESIAN_POINT('',(-0.00504516491787342,0.0052,0.0232079471507382));
#1065=CARTESIAN_POINT('',(-0.00528019842039941,0.00520077148987266,0.02315685332612));
#1066=CARTESIAN_POINT('',(-0.00572982016065021,0.0053944121979215,0.0230503848040294));
#1067=CARTESIAN_POINT('',(-0.00601623687667325,0.00610002347944857,0.0229750357496992));
#1068=CARTESIAN_POINT('',(-0.00572998117963455,0.00680549393583321,0.023050349800757));
#1069=CARTESIAN_POINT('',(-0.00527982266230607,0.00699941627410693,0.0231569350119985));
#1070=CARTESIAN_POINT('',(-0.00504516491787342,0.007,0.0232079471507382));
#1071=CARTESIAN_POINT('',(-0.0050451649178735,0.0052,0.0232079471507382));
#1072=CARTESIAN_POINT('',(0.,0.0052,0.));
#1073=CARTESIAN_POINT('',(-0.00307524240465777,0.0052,0.0235500612345827));
#1074=CARTESIAN_POINT('',(-0.00250649754002457,0.0054057497057441,0.0236173658582377));
#1075=CARTESIAN_POINT('',(-0.00266868001271761,0.0052720814407997,0.0236001535251062));
#1076=CARTESIAN_POINT('',(-0.00286780614729905,0.00520006025042613,0.0235771489252914));
#1077=CARTESIAN_POINT('',(-0.00307524240465769,0.0052,0.0235500612345827));
#1078=CARTESIAN_POINT('',(0.0121171962711175,0.0074,0.0204263568589021));
#1079=CARTESIAN_POINT('',(0.0120208263125581,0.0073983821825628,0.0204835248458598));
#1080=CARTESIAN_POINT('',(0.0118685939890469,0.00720013320727006,0.0205718729146253));
#1081=CARTESIAN_POINT('',(0.0120210146810401,0.00700135085450107,0.0204834131030814));
#1082=CARTESIAN_POINT('',(0.0121171962711175,0.007,0.0204263568589021));
#1083=CARTESIAN_POINT('',(0.0121171962711176,0.0074,0.020426356858902));
#1084=CARTESIAN_POINT('',(0.0121171962711176,0.007,0.020426356858902));
#1085=CARTESIAN_POINT('',(0.,0.0074,0.));
#1086=CARTESIAN_POINT('',(0.0152167172992876,0.0074,0.0182349668119677));
#1087=CARTESIAN_POINT('',(0.0152167172992875,0.007,0.0182349668119677));
#1088=CARTESIAN_POINT('',(0.0153027484505151,0.00700161781743706,0.01816317552654));
#1089=CARTESIAN_POINT('',(0.0154368027501949,0.00719986679272986,0.0180491163036841));
#1090=CARTESIAN_POINT('',(0.0153025802906575,0.0073986491454992,0.0181633158525982));
#1091=CARTESIAN_POINT('',(0.0152167172992875,0.0074,0.0182349668119677));
#1092=CARTESIAN_POINT('',(0.0152167172992876,0.007,0.0182349668119677));
#1093=CARTESIAN_POINT('',(0.,0.007,0.));
#1094=CARTESIAN_POINT('',(0.0138736267276041,0.007,0.0192765396641386));
#1095=CARTESIAN_POINT('',(0.0138736267276041,0.005,0.0192765396641386));
#1096=CARTESIAN_POINT('',(0.0138736267276041,0.005,0.0192765396641386));
#1097=CARTESIAN_POINT('',(0.0135470169400338,0.005,0.019507455806087));
#1098=CARTESIAN_POINT('',(0.013548472463654,0.00488779504610586,0.0195064450129146));
#1099=CARTESIAN_POINT('',(0.0137111889071176,0.0047121095906752,0.0193934302821892));
#1100=CARTESIAN_POINT('',(0.0138723820736151,0.00488798578479533,0.019277435461058));
#1101=CARTESIAN_POINT('',(0.013873626727604,0.005,0.0192765396641387));
#1102=CARTESIAN_POINT('',(0.0135470169400338,0.005,0.019507455806087));
#1103=CARTESIAN_POINT('',(0.0135470169400338,0.007,0.019507455806087));
#1104=CARTESIAN_POINT('',(0.0135470169400338,0.007,0.019507455806087));
#1105=CARTESIAN_POINT('',(0.,0.007,0.));
#1106=CARTESIAN_POINT('',(0.000316089482157662,0.0072,0.0237478964845156));
#1107=CARTESIAN_POINT('',(0.000314317563532033,0.0073122049539132,0.0237479200691241));
#1108=CARTESIAN_POINT('',(0.000116221409496151,0.00748789040931513,0.0237505438241058));
#1109=CARTESIAN_POINT('',(-8.23675227945744E-5,0.00731201421520533,0.0237498572194193));
#1110=CARTESIAN_POINT('',(-8.39010110821807E-5,0.0072,0.0237498518020711));
#1111=CARTESIAN_POINT('',(0.000316089482157616,0.0072,0.0237478964845156));
#1112=CARTESIAN_POINT('',(-8.39010110822065E-5,0.0072,0.0237498518020711));
#1113=CARTESIAN_POINT('',(0.000316089482157616,0.0061,0.0237478964845156));
#1114=CARTESIAN_POINT('',(0.000316089482157616,0.0061,0.0237478964845156));
#1115=CARTESIAN_POINT('',(0.00121556747603012,0.0052,0.023718872142478));
#1116=CARTESIAN_POINT('',(0.000735151901923493,0.00520154297975412,0.0237434929399322));
#1117=CARTESIAN_POINT('',(0.000316698078452909,0.0056210718656472,0.0237478883839713));
#1118=CARTESIAN_POINT('',(0.000316089482157662,0.0061,0.0237478964845156));
#1119=CARTESIAN_POINT('',(0.00121556747603019,0.0052,0.023718872142478));
#1120=CARTESIAN_POINT('',(0.,0.0052,0.));
#1121=CARTESIAN_POINT('',(0.00280950464821115,0.0052,0.0235832394643247));
#1122=CARTESIAN_POINT('',(0.00370095442921696,0.0061,0.0234598686337511));
#1123=CARTESIAN_POINT('',(0.0036994302986012,0.005618953947772,0.0234601090757604));
#1124=CARTESIAN_POINT('',(0.00328506999361241,0.00520060865020266,0.0235265846925977));
#1125=CARTESIAN_POINT('',(0.00280950464821125,0.0052,0.0235832394643246));
#1126=CARTESIAN_POINT('',(0.00370095442921698,0.0061,0.0234598686337511));
#1127=CARTESIAN_POINT('',(0.00370095442921693,0.0072,0.0234598686337511));
#1128=CARTESIAN_POINT('',(0.00370095442921693,0.0072,0.0234598686337511));
#1129=CARTESIAN_POINT('',(0.00409552443954791,0.0072,0.023394212522867));
#1130=CARTESIAN_POINT('',(0.00409377891059461,0.0073122049539072,0.0233945181051336));
#1131=CARTESIAN_POINT('',(0.00389863099453689,0.0074878904093094,0.0234286686716346));
#1132=CARTESIAN_POINT('',(0.00370246919377447,0.0073120142152228,0.0234596296693014));
#1133=CARTESIAN_POINT('',(0.00370095442921696,0.0072,0.0234598686337511));
#1134=CARTESIAN_POINT('',(0.00409552443954786,0.0072,0.023394212522867));
#1135=CARTESIAN_POINT('',(0.00409552443954786,0.0061,0.023394212522867));
#1136=CARTESIAN_POINT('',(0.00409552443954786,0.0061,0.023394212522867));
#1137=CARTESIAN_POINT('',(0.00280950464821125,0.0048,0.0235832394643246));
#1138=CARTESIAN_POINT('',(0.00315367609545577,0.00480076966941347,0.0235422378333877));
#1139=CARTESIAN_POINT('',(0.00381539805918841,0.00508375219116959,0.0234454859792082));
#1140=CARTESIAN_POINT('',(0.00409535582333159,0.00575477069965933,0.0233942420417847));
#1141=CARTESIAN_POINT('',(0.00409552443954791,0.0061,0.023394212522867));
#1142=CARTESIAN_POINT('',(0.00280950464821115,0.0048,0.0235832394643247));
#1143=CARTESIAN_POINT('',(0.,0.0048,0.));
#1144=CARTESIAN_POINT('',(0.00121556747603019,0.0048,0.023718872142478));
#1145=CARTESIAN_POINT('',(-8.39010110821807E-5,0.0061,0.0237498518020711));
#1146=CARTESIAN_POINT('',(-8.31313464757857E-5,0.0057533948685364,0.0237498545210623));
#1147=CARTESIAN_POINT('',(0.000199874887740187,0.0050847393443448,0.023753091427486));
#1148=CARTESIAN_POINT('',(0.000870790646919615,0.0048001711805916,0.0237365415956222));
#1149=CARTESIAN_POINT('',(0.00121556747603012,0.0048,0.023718872142478));
#1150=CARTESIAN_POINT('',(-8.39010110822018E-5,0.0061,0.0237498518020711));
#1151=CARTESIAN_POINT('',(-8.39010110822065E-5,0.0072,0.0237498518020711));
#1152=CARTESIAN_POINT('',(0.00614537142812096,0.005,0.0229411619150041));
#1153=CARTESIAN_POINT('',(0.00614708315328735,0.00488779504609386,0.0229407033860521));
#1154=CARTESIAN_POINT('',(0.00633844631039173,0.0047121095906904,0.0228894285146458));
#1155=CARTESIAN_POINT('',(0.00652938467921593,0.00488798578477693,0.0228348338742027));
#1156=CARTESIAN_POINT('',(0.00653085905909507,0.005,0.0228344121875348));
#1157=CARTESIAN_POINT('',(0.00614537142812089,0.005,0.0229411619150041));
#1158=CARTESIAN_POINT('',(0.00653085905909517,0.005,0.0228344121875347));
#1159=CARTESIAN_POINT('',(0.00614537142812089,0.0074,0.0229411619150041));
#1160=CARTESIAN_POINT('',(0.00614537142812089,0.0074,0.0229411619150041));
#1161=CARTESIAN_POINT('',(0.,0.0074,0.));
#1162=CARTESIAN_POINT('',(0.00926351149393039,0.0074,0.0218689244088917));
#1163=CARTESIAN_POINT('',(0.0093165003407087,0.0056018435749176,0.0218464029396506));
#1164=CARTESIAN_POINT('',(0.00953267250305281,0.005617665853704,0.0217542153136284));
#1165=CARTESIAN_POINT('',(0.00993429429326541,0.00583170170667594,0.0215742328807156));
#1166=CARTESIAN_POINT('',(0.010170325985989,0.00653183054970262,0.0214619007308816));
#1167=CARTESIAN_POINT('',(0.00989417653964395,0.00721379367249759,0.0215929585274664));
#1168=CARTESIAN_POINT('',(0.00948042732557596,0.00739925818035693,0.0217770404980924));
#1169=CARTESIAN_POINT('',(0.0092635114939304,0.0074,0.0218689244088917));
#1170=CARTESIAN_POINT('',(0.00931650034070862,0.00560184357491763,0.0218464029396506));
#1171=CARTESIAN_POINT('',(0.00999475484047331,0.0051732050807569,0.0215445439886491));
#1172=CARTESIAN_POINT('',(0.00977026110033423,0.00531608457881046,0.0216486891447078));
#1173=CARTESIAN_POINT('',(0.00954413944539764,0.00545896407686403,0.021749325182628));
#1174=CARTESIAN_POINT('',(0.0093165003407087,0.0056018435749176,0.0218464029396506));
#1175=CARTESIAN_POINT('',(0.00999475484047324,0.00517320508075691,0.0215445439886491));
#1176=CARTESIAN_POINT('',(0.00981297486334727,0.0048267949192431,0.0216279454486855));
#1177=CARTESIAN_POINT('',(0.00990207982789904,0.00477217066631803,0.0215875169771314));
#1178=CARTESIAN_POINT('',(0.0101301807064704,0.00485586143958833,0.0214814796682904));
#1179=CARTESIAN_POINT('',(0.0100820166718298,0.0051161069377573,0.0215040622494302));
#1180=CARTESIAN_POINT('',(0.00999475484047331,0.0051732050807569,0.0215445439886491));
#1181=CARTESIAN_POINT('',(0.00981297486334722,0.00482679491924313,0.0216279454486855));
#1182=CARTESIAN_POINT('',(0.00857845345219123,0.0056,0.0221466168154097));
#1183=CARTESIAN_POINT('',(0.00899472607490917,0.00534226497308103,0.0219853743399937));
#1184=CARTESIAN_POINT('',(0.00940645130035952,0.00508452994616206,0.0218123922568403));
#1185=CARTESIAN_POINT('',(0.00981297486334727,0.0048267949192431,0.0216279454486855));
#1186=CARTESIAN_POINT('',(0.0085784534521912,0.0056,0.0221466168154097));
#1187=CARTESIAN_POINT('',(0.,0.0056,0.));
#1188=CARTESIAN_POINT('',(0.00653085905909517,0.0056,0.0228344121875347));
#1189=CARTESIAN_POINT('',(0.00653085905909517,0.005,0.0228344121875347));
#1190=CARTESIAN_POINT('',(0.0169085724996992,0.005,0.0166782096168149));
#1191=CARTESIAN_POINT('',(0.0169098169227686,0.00488779504611853,0.0166769480055165));
#1192=CARTESIAN_POINT('',(0.0170489310310088,0.0047121095906692,0.0165358939902475));
#1193=CARTESIAN_POINT('',(0.017185998980753,0.00488798578479467,0.0163921914759794));
#1194=CARTESIAN_POINT('',(0.0171870573255408,0.005,0.0163910817363765));
#1195=CARTESIAN_POINT('',(0.0169085724996992,0.005,0.0166782096168149));
#1196=CARTESIAN_POINT('',(0.0171870573255407,0.005,0.0163910817363765));
#1197=CARTESIAN_POINT('',(0.0169085724996992,0.0062,0.0166782096168149));
#1198=CARTESIAN_POINT('',(0.0169085724996992,0.0062,0.0166782096168149));
#1199=CARTESIAN_POINT('',(0.01772932405152,0.0074,0.0158029607566492));
#1200=CARTESIAN_POINT('',(0.0175163438389435,0.00739922999009907,0.0160419030196515));
#1201=CARTESIAN_POINT('',(0.0170944611740133,0.0071378123847888,0.0164924170238446));
#1202=CARTESIAN_POINT('',(0.0169088527470744,0.00651925776843413,0.0166779254986049));
#1203=CARTESIAN_POINT('',(0.0169085724996992,0.0062,0.0166782096168149));
#1204=CARTESIAN_POINT('',(0.0177293240515201,0.0074,0.0158029607566491));
#1205=CARTESIAN_POINT('',(0.,0.0074,0.));
#1206=CARTESIAN_POINT('',(0.018874981211226,0.0074,0.0144151858911311));
#1207=CARTESIAN_POINT('',(0.0195789296594218,0.0062,0.0134435119441095));
#1208=CARTESIAN_POINT('',(0.0195784938010123,0.00652008432428533,0.013444146721776));
#1209=CARTESIAN_POINT('',(0.0194320648486793,0.00713721365528547,0.0136607450483685));
#1210=CARTESIAN_POINT('',(0.0190687563737879,0.00739960092387933,0.0141614602312485));
#1211=CARTESIAN_POINT('',(0.018874981211226,0.0074,0.0144151858911312));
#1212=CARTESIAN_POINT('',(0.0195789296594218,0.0062,0.0134435119441095));
#1213=CARTESIAN_POINT('',(0.0195789296594218,0.005,0.0134435119441095));
#1214=CARTESIAN_POINT('',(0.0195789296594218,0.005,0.0134435119441095));
#1215=CARTESIAN_POINT('',(0.0193497465403253,0.005,0.0137713401245183));
#1216=CARTESIAN_POINT('',(0.0193507740710824,0.0048877950461116,0.0137698963681713));
#1217=CARTESIAN_POINT('',(0.0194656388414906,0.00471210959067267,0.0136084805856293));
#1218=CARTESIAN_POINT('',(0.0195780616342955,0.00488798578479467,0.0134447761229164));
#1219=CARTESIAN_POINT('',(0.0195789296594218,0.005,0.0134435119441095));
#1220=CARTESIAN_POINT('',(0.0193497465403253,0.005,0.0137713401245184));
#1221=CARTESIAN_POINT('',(0.0193497465403253,0.0056,0.0137713401245183));
#1222=CARTESIAN_POINT('',(0.0193497465403253,0.0056,0.0137713401245183));
#1223=CARTESIAN_POINT('',(0.,0.0056,0.));
#1224=CARTESIAN_POINT('',(0.0171870573255407,0.0056,0.0163910817363765));
#1225=CARTESIAN_POINT('',(0.0171870573255407,0.005,0.0163910817363765));
#1226=CARTESIAN_POINT('',(0.,0.0008,0.));
#1227=CARTESIAN_POINT('',(0.,0.0008,-0.02375));
#1228=CARTESIAN_POINT('',(0.,0.,0.));
#1229=CARTESIAN_POINT('',(0.,0.,0.));
#1230=CARTESIAN_POINT('',(0.,0.,-0.02285));
#1231=CARTESIAN_POINT('',(0.,0.,0.));
#1232=CARTESIAN_POINT('',(0.,0.,-0.02295));
#1233=CARTESIAN_POINT('',(0.,0.0215,0.));
#1234=CARTESIAN_POINT('',(0.,0.007,0.));
#1235=CARTESIAN_POINT('',(0.018874981211226,0.007,0.0144151858911311));
#1236=CARTESIAN_POINT('',(0.0177293240515201,0.007,0.0158029607566491));
#1237=CARTESIAN_POINT('',(0.01772932405152,0.007,0.0158029607566492));
#1238=CARTESIAN_POINT('',(0.0174445337942998,0.00699845553470933,0.0161224666286642));
#1239=CARTESIAN_POINT('',(0.0171877829800927,0.00662695359249546,0.0163903208429478));
#1240=CARTESIAN_POINT('',(0.0171870573255408,0.0062,0.0163910817363765));
#1241=CARTESIAN_POINT('',(0.0171870573255407,0.0062,0.0163910817363765));
#1242=CARTESIAN_POINT('',(0.0171870573255407,0.0062,0.0163910817363765));
#1243=CARTESIAN_POINT('',(0.0171870573255407,0.006,0.0163910817363765));
#1244=CARTESIAN_POINT('',(0.,0.006,0.));
#1245=CARTESIAN_POINT('',(0.0193497465403253,0.006,0.0137713401245183));
#1246=CARTESIAN_POINT('',(0.0193497465403253,0.006,0.0137713401245183));
#1247=CARTESIAN_POINT('',(0.0193497465403253,0.0062,0.0137713401245183));
#1248=CARTESIAN_POINT('',(0.0193497465403253,0.0062,0.0137713401245183));
#1249=CARTESIAN_POINT('',(0.0193488509884667,0.00662800641395866,0.0137725984407985));
#1250=CARTESIAN_POINT('',(0.0191341229141049,0.0069989485565424,0.0140758704768295));
#1251=CARTESIAN_POINT('',(0.018874981211226,0.007,0.0144151858911312));
#1252=CARTESIAN_POINT('',(0.,0.0215,0.));
#1253=CARTESIAN_POINT('',(0.,0.0215,0.));
#1254=CARTESIAN_POINT('',(0.,0.006,0.));
#1255=CARTESIAN_POINT('',(0.00926351149393039,0.006,0.0218689244088917));
#1256=CARTESIAN_POINT('',(0.00653085905909517,0.006,0.0228344121875347));
#1257=CARTESIAN_POINT('',(0.0092635114939304,0.006,0.0218689244088917));
#1258=CARTESIAN_POINT('',(0.00938731096892112,0.0060007762758616,0.0218164838846996));
#1259=CARTESIAN_POINT('',(0.00962153482625573,0.00610783616245419,0.0217144104880201));
#1260=CARTESIAN_POINT('',(0.00977180505751945,0.00650008869205875,0.0216464705628335));
#1261=CARTESIAN_POINT('',(0.00962218362812046,0.00689180910761121,0.0217141356606912));
#1262=CARTESIAN_POINT('',(0.00938579706499505,0.0069999332074864,0.0218171251629883));
#1263=CARTESIAN_POINT('',(0.0092635114939304,0.007,0.0218689244088917));
#1264=CARTESIAN_POINT('',(0.00926351149393039,0.007,0.0218689244088917));
#1265=CARTESIAN_POINT('',(0.,0.007,0.));
#1266=CARTESIAN_POINT('',(0.00653085905909517,0.007,0.0228344121875347));
#1267=CARTESIAN_POINT('',(0.00653085905909517,0.007,0.0228344121875347));
#1268=CARTESIAN_POINT('',(0.,0.0215,0.));
#1269=CARTESIAN_POINT('',(0.,0.0215,0.));
#1270=CARTESIAN_POINT('',(0.,0.0215,0.));
#1271=CARTESIAN_POINT('',(0.,0.0215,0.));
#1272=CARTESIAN_POINT('',(0.,0.0215,0.));
#1273=CARTESIAN_POINT('',(0.,0.0215,0.));
#1274=CARTESIAN_POINT('',(0.,0.,0.));
#1275=CARTESIAN_POINT('',(-0.017688160865743,0.0195292991557068,-0.0142288493611833));
#1276=CARTESIAN_POINT('',(-0.0178091057003589,0.0200001207270024,-0.0140754368783325));
#1277=CARTESIAN_POINT('',(-0.0176882523452858,0.0204702179362836,-0.0142287282607148));
#1278=CARTESIAN_POINT('',(-0.0173910386089769,0.0206648224902669,-0.0145921788042539));
#1279=CARTESIAN_POINT('',(-0.0170840775714862,0.0204704915930869,-0.0149487616537488));
#1280=CARTESIAN_POINT('',(-0.0169542591295767,0.0200000879408972,-0.0150942104962706));
#1281=CARTESIAN_POINT('',(-0.017083651282881,0.019530432707633,-0.01494924131745));
#1282=CARTESIAN_POINT('',(-0.0173902721494833,0.0193350674991976,-0.0145930962931952));
#1283=CARTESIAN_POINT('',(-0.017688160865743,0.0195292991557068,-0.0142288493611833));
#1284=CARTESIAN_POINT('',(-0.0178091057003589,0.0200001207270024,-0.0140754368783325));
#1285=CARTESIAN_POINT('',(-0.0176882523452858,0.0204702179362836,-0.0142287282607148));
#1286=CARTESIAN_POINT('',(-0.0177688060020774,0.02,-0.0141265541892047));
#1287=CARTESIAN_POINT('',(-0.0159998185089207,0.0195292991557069,0.0161039435119863));
#1288=CARTESIAN_POINT('',(-0.0158598886134055,0.0200001207270024,0.0162402617692221));
#1289=CARTESIAN_POINT('',(-0.0159997076340693,0.0204702179362836,0.0161040471488405));
#1290=CARTESIAN_POINT('',(-0.0163300998623841,0.0206648224902669,0.0157704706536871));
#1291=CARTESIAN_POINT('',(-0.0166526431481876,0.0204704915930869,0.0154279181235923));
#1292=CARTESIAN_POINT('',(-0.016783725484495,0.0200000879408972,0.0152836072966979));
#1293=CARTESIAN_POINT('',(-0.016653075624948,0.019530432707633,0.0154274440317311));
#1294=CARTESIAN_POINT('',(-0.0163309322083919,0.0193350674991976,0.0157696124892297));
#1295=CARTESIAN_POINT('',(-0.0159998185089207,0.0195292991557069,0.0161039435119863));
#1296=CARTESIAN_POINT('',(-0.0158598886134055,0.0200001207270024,0.0162402617692221));
#1297=CARTESIAN_POINT('',(-0.0159997076340693,0.0204702179362836,0.0161040471488405));
#1298=CARTESIAN_POINT('',(-0.0159065134327687,0.02,0.0161948396229525));
#1299=CARTESIAN_POINT('',(0.0214879873386841,0.0195292991557068,0.00732103743250908));
#1300=CARTESIAN_POINT('',(0.0215491681479223,0.0200001207270024,0.00713551128476804));
#1301=CARTESIAN_POINT('',(0.0214880318825358,0.0204702179362836,0.00732089234744613));
#1302=CARTESIAN_POINT('',(0.0213330497347232,0.0206648224902669,0.00776407722592125));
#1303=CARTESIAN_POINT('',(0.0211665592302161,0.0204704915930869,0.00820414235632835));
#1304=CARTESIAN_POINT('',(0.0210943162322777,0.0200000879408972,0.0083852200824562));
#1305=CARTESIAN_POINT('',(0.0211663227046073,0.019530432707633,0.00820473889205867));
#1306=CARTESIAN_POINT('',(0.0213326432980921,0.0193350674991976,0.00776520152809487));
#1307=CARTESIAN_POINT('',(0.0214879873386841,0.0195292991557068,0.00732103743250908));
#1308=CARTESIAN_POINT('',(0.0215491681479223,0.0200001207270024,0.00713551128476804));
#1309=CARTESIAN_POINT('',(0.0214880318825358,0.0204702179362836,0.00732089234744613));
#1310=CARTESIAN_POINT('',(0.0215287819688182,0.02,0.00719732915317123));
#1311=CARTESIAN_POINT('',(0.,0.0215,0.));
#1312=CARTESIAN_POINT('',(0.,0.0215,0.0227));
#1313=CARTESIAN_POINT('',(0.,0.011,0.));
#1314=CARTESIAN_POINT('',(0.,0.011,-0.0227));
#1315=CARTESIAN_POINT('',(0.,0.0215,0.));
#1316=CARTESIAN_POINT('',(0.,0.011,0.));
#1317=CARTESIAN_POINT('',(0.,0.011,0.));
#1318=CARTESIAN_POINT('',(0.,0.011,-0.02285));
#1319=CARTESIAN_POINT('',(0.,0.011,0.));
#1320=CARTESIAN_POINT('',(0.0223176997436653,0.02,0.00812297840398465));
#1321=CARTESIAN_POINT('',(0.0218478534332724,0.02,0.00795196833232182));
#1322=CARTESIAN_POINT('',(0.0221556715622655,0.02,0.0071062449736145));
#1323=CARTESIAN_POINT('',(0.0223176997436653,0.02,0.00812297840398465));
#1324=CARTESIAN_POINT('',(0.0215659456470366,0.02,0.00784936228932412));
#1325=CARTESIAN_POINT('',(0.021771157733032,0.02,0.00728554671685257));
#1326=CARTESIAN_POINT('',(0.0218478534332724,0.02,0.00795196833232182));
#1327=CARTESIAN_POINT('',(-0.0170843202580431,0.02,0.0164981362984011));
#1328=CARTESIAN_POINT('',(-0.0167246503578737,0.02,0.0161508071131716));
#1329=CARTESIAN_POINT('',(-0.0160994578244606,0.02,0.0167982129334764));
#1330=CARTESIAN_POINT('',(-0.0170843202580431,0.02,0.0164981362984011));
#1331=CARTESIAN_POINT('',(-0.0165088484177721,0.02,0.0159424096020339));
#1332=CARTESIAN_POINT('',(-0.0160920533954967,0.02,0.0163740134822371));
#1333=CARTESIAN_POINT('',(-0.0167246503578737,0.02,0.0161508071131716));
#1334=CARTESIAN_POINT('',(-0.0181935555240756,0.02,-0.0152662057300555));
#1335=CARTESIAN_POINT('',(-0.0178105333025161,0.02,-0.0149448119252122));
#1336=CARTESIAN_POINT('',(-0.018389042151234,0.02,-0.0142553719264051));
#1337=CARTESIAN_POINT('',(-0.0181935555240756,0.02,-0.0152662057300555));
#1338=CARTESIAN_POINT('',(-0.0175807199695804,0.02,-0.0147519756423062));
#1339=CARTESIAN_POINT('',(-0.0179663925353923,0.02,-0.0142923489764348));
#1340=CARTESIAN_POINT('',(-0.0178105333025161,0.02,-0.0149448119252122));
#1341=CARTESIAN_POINT('',(0.,0.,0.));
#1342=MECHANICAL_DESIGN_GEOMETRIC_PRESENTATION_REPRESENTATION('',(#16,#17,
#18,#19,#20,#21,#22),#1343);
#1343=(
GEOMETRIC_REPRESENTATION_CONTEXT(3)
GLOBAL_UNCERTAINTY_ASSIGNED_CONTEXT((#1344))
GLOBAL_UNIT_ASSIGNED_CONTEXT((#1347,#1346,#1345))
REPRESENTATION_CONTEXT('id2','TOP_LEVEL_ASSEMBLY_PART')
);
#1344=UNCERTAINTY_MEASURE_WITH_UNIT(LENGTH_MEASURE(2.E-5),#1347,
'DISTANCE_ACCURACY_VALUE','Maximum Tolerance applied to model');
#1345=(
NAMED_UNIT(*)
SI_UNIT($,.STERADIAN.)
SOLID_ANGLE_UNIT()
);
#1346=(
NAMED_UNIT(*)
PLANE_ANGLE_UNIT()
SI_UNIT($,.RADIAN.)
);
#1347=(
LENGTH_UNIT()
NAMED_UNIT(*)
SI_UNIT($,.METRE.)
);
#1348=PRODUCT_DEFINITION_SHAPE('','',#1349);
#1349=PRODUCT_DEFINITION('','',#1351,#1350);
#1350=PRODUCT_DEFINITION_CONTEXT('',#1357,'design');
#1351=PRODUCT_DEFINITION_FORMATION_WITH_SPECIFIED_SOURCE('','',#1353,
 .NOT_KNOWN.);
#1352=PRODUCT_RELATED_PRODUCT_CATEGORY('','',(#1353));
#1353=PRODUCT('id2','id2','id2',(#1355));
#1354=PRODUCT_CATEGORY('','');
#1355=PRODUCT_CONTEXT('',#1357,'mechanical');
#1356=APPLICATION_PROTOCOL_DEFINITION('international standard',
'ap242_managed_model_based_3d_engineering',2020,#1357);
#1357=APPLICATION_CONTEXT('managed model based 3d engineering');
ENDSEC;
END-ISO-10303-21;
