ISO-10303-21;
HEADER;
/* Generated by software containing ST-Developer
 * from STEP Tools, Inc. (www.steptools.com) 
 */
/* OPTION: using custom renumber hook */

FILE_DESCRIPTION(
/* description */ ('STEP AP242 Edition 2',
'CAx-IF Rec.Pracs.---Representation and Presentation of Product Manufa
cturing Information (PMI)---4.0---2014-10-13',
'CAx-IF Rec.Pracs.---3D Tessellated Geometry---0.4---2014-09-14','2;1',
'CAx-IF Rec.Pracs.---User Defined Attributes---1.5---2016-08-15'),
/* implementation_level */ '2;1');

FILE_NAME(
/* name */ '10084',
/* time_stamp */ '2026-07-13T04:55:11Z',
/* author */ (''),
/* organization */ (''),
/* preprocessor_version */ 'ST-DEVELOPER v20',
/* originating_system */ 'ONSHAPE BY PTC INC, 1.217',
/* authorisation */ '  ');

FILE_SCHEMA (('AP242_MANAGED_MODEL_BASED_3D_ENGINEERING_MIM_LF { 1 0 10303 442 3 1 4 }'));
ENDSEC;

DATA;
#10=SHAPE_REPRESENTATION_RELATIONSHIP('','',#663,#11);
#11=ADVANCED_BREP_SHAPE_REPRESENTATION('',(#661),#1124);
#12=PLANE('',#683);
#13=PLANE('',#687);
#14=PLANE('',#691);
#15=PLANE('',#695);
#16=PLANE('',#699);
#17=PLANE('',#700);
#18=PLANE('',#701);
#19=PLANE('',#702);
#20=PLANE('',#703);
#21=PLANE('',#710);
#22=PLANE('',#717);
#23=PLANE('',#718);
#24=PLANE('',#720);
#25=PLANE('',#721);
#26=PLANE('',#723);
#27=PLANE('',#724);
#28=PLANE('',#726);
#29=PLANE('',#727);
#30=CIRCLE('',#666,0.0005);
#31=CIRCLE('',#667,0.0005);
#32=CIRCLE('',#669,0.0121);
#33=CIRCLE('',#670,0.0121);
#34=CIRCLE('',#672,0.0121);
#35=CIRCLE('',#673,0.0121);
#36=CIRCLE('',#675,0.0121);
#37=CIRCLE('',#676,0.0121);
#38=CIRCLE('',#678,0.0121);
#39=CIRCLE('',#679,0.0121);
#40=CIRCLE('',#681,0.0072);
#41=CIRCLE('',#682,0.0072);
#42=CIRCLE('',#685,0.0092);
#43=CIRCLE('',#686,0.0092);
#44=CIRCLE('',#689,0.0093);
#45=CIRCLE('',#690,0.0093);
#46=CIRCLE('',#693,0.0092);
#47=CIRCLE('',#694,0.0092);
#48=CIRCLE('',#697,0.0072);
#49=CIRCLE('',#698,0.0072);
#50=CIRCLE('',#704,0.0109);
#51=CIRCLE('',#705,0.0005);
#52=CIRCLE('',#706,0.0005);
#53=CIRCLE('',#707,0.0005);
#54=CIRCLE('',#708,0.0109);
#55=CIRCLE('',#709,0.001);
#56=CIRCLE('',#711,0.0109);
#57=CIRCLE('',#712,0.001);
#58=CIRCLE('',#713,0.0109);
#59=CIRCLE('',#714,0.0005);
#60=CIRCLE('',#715,0.0005);
#61=CIRCLE('',#716,0.0005);
#62=ORIENTED_EDGE('',*,*,#254,.F.);
#63=ORIENTED_EDGE('',*,*,#255,.F.);
#64=ORIENTED_EDGE('',*,*,#256,.T.);
#65=ORIENTED_EDGE('',*,*,#257,.T.);
#66=ORIENTED_EDGE('',*,*,#258,.T.);
#67=ORIENTED_EDGE('',*,*,#259,.T.);
#68=ORIENTED_EDGE('',*,*,#260,.F.);
#69=ORIENTED_EDGE('',*,*,#261,.F.);
#70=ORIENTED_EDGE('',*,*,#262,.T.);
#71=ORIENTED_EDGE('',*,*,#263,.T.);
#72=ORIENTED_EDGE('',*,*,#264,.F.);
#73=ORIENTED_EDGE('',*,*,#265,.F.);
#74=ORIENTED_EDGE('',*,*,#266,.T.);
#75=ORIENTED_EDGE('',*,*,#267,.T.);
#76=ORIENTED_EDGE('',*,*,#268,.F.);
#77=ORIENTED_EDGE('',*,*,#269,.F.);
#78=ORIENTED_EDGE('',*,*,#270,.T.);
#79=ORIENTED_EDGE('',*,*,#271,.T.);
#80=ORIENTED_EDGE('',*,*,#272,.F.);
#81=ORIENTED_EDGE('',*,*,#273,.F.);
#82=ORIENTED_EDGE('',*,*,#274,.T.);
#83=ORIENTED_EDGE('',*,*,#275,.F.);
#84=ORIENTED_EDGE('',*,*,#276,.F.);
#85=ORIENTED_EDGE('',*,*,#277,.T.);
#86=ORIENTED_EDGE('',*,*,#278,.T.);
#87=ORIENTED_EDGE('',*,*,#279,.F.);
#88=ORIENTED_EDGE('',*,*,#280,.F.);
#89=ORIENTED_EDGE('',*,*,#275,.T.);
#90=ORIENTED_EDGE('',*,*,#281,.T.);
#91=ORIENTED_EDGE('',*,*,#282,.F.);
#92=ORIENTED_EDGE('',*,*,#283,.F.);
#93=ORIENTED_EDGE('',*,*,#279,.T.);
#94=ORIENTED_EDGE('',*,*,#284,.T.);
#95=ORIENTED_EDGE('',*,*,#285,.F.);
#96=ORIENTED_EDGE('',*,*,#286,.F.);
#97=ORIENTED_EDGE('',*,*,#282,.T.);
#98=ORIENTED_EDGE('',*,*,#287,.T.);
#99=ORIENTED_EDGE('',*,*,#288,.F.);
#100=ORIENTED_EDGE('',*,*,#289,.F.);
#101=ORIENTED_EDGE('',*,*,#285,.T.);
#102=ORIENTED_EDGE('',*,*,#290,.T.);
#103=ORIENTED_EDGE('',*,*,#291,.F.);
#104=ORIENTED_EDGE('',*,*,#292,.F.);
#105=ORIENTED_EDGE('',*,*,#288,.T.);
#106=ORIENTED_EDGE('',*,*,#293,.T.);
#107=ORIENTED_EDGE('',*,*,#294,.F.);
#108=ORIENTED_EDGE('',*,*,#295,.F.);
#109=ORIENTED_EDGE('',*,*,#291,.T.);
#110=ORIENTED_EDGE('',*,*,#296,.T.);
#111=ORIENTED_EDGE('',*,*,#297,.F.);
#112=ORIENTED_EDGE('',*,*,#298,.F.);
#113=ORIENTED_EDGE('',*,*,#294,.T.);
#114=ORIENTED_EDGE('',*,*,#299,.T.);
#115=ORIENTED_EDGE('',*,*,#300,.F.);
#116=ORIENTED_EDGE('',*,*,#301,.F.);
#117=ORIENTED_EDGE('',*,*,#297,.T.);
#118=ORIENTED_EDGE('',*,*,#302,.T.);
#119=ORIENTED_EDGE('',*,*,#303,.F.);
#120=ORIENTED_EDGE('',*,*,#304,.F.);
#121=ORIENTED_EDGE('',*,*,#300,.T.);
#122=ORIENTED_EDGE('',*,*,#305,.T.);
#123=ORIENTED_EDGE('',*,*,#306,.T.);
#124=ORIENTED_EDGE('',*,*,#307,.F.);
#125=ORIENTED_EDGE('',*,*,#303,.T.);
#126=ORIENTED_EDGE('',*,*,#308,.F.);
#127=ORIENTED_EDGE('',*,*,#309,.T.);
#128=ORIENTED_EDGE('',*,*,#310,.T.);
#129=ORIENTED_EDGE('',*,*,#311,.F.);
#130=ORIENTED_EDGE('',*,*,#312,.T.);
#131=ORIENTED_EDGE('',*,*,#277,.F.);
#132=ORIENTED_EDGE('',*,*,#313,.F.);
#133=ORIENTED_EDGE('',*,*,#311,.T.);
#134=ORIENTED_EDGE('',*,*,#307,.T.);
#135=ORIENTED_EDGE('',*,*,#314,.F.);
#136=ORIENTED_EDGE('',*,*,#257,.F.);
#137=ORIENTED_EDGE('',*,*,#315,.F.);
#138=ORIENTED_EDGE('',*,*,#272,.T.);
#139=ORIENTED_EDGE('',*,*,#316,.F.);
#140=ORIENTED_EDGE('',*,*,#317,.F.);
#141=ORIENTED_EDGE('',*,*,#318,.F.);
#142=ORIENTED_EDGE('',*,*,#268,.T.);
#143=ORIENTED_EDGE('',*,*,#319,.F.);
#144=ORIENTED_EDGE('',*,*,#320,.F.);
#145=ORIENTED_EDGE('',*,*,#321,.F.);
#146=ORIENTED_EDGE('',*,*,#264,.T.);
#147=ORIENTED_EDGE('',*,*,#322,.F.);
#148=ORIENTED_EDGE('',*,*,#323,.F.);
#149=ORIENTED_EDGE('',*,*,#324,.F.);
#150=ORIENTED_EDGE('',*,*,#260,.T.);
#151=ORIENTED_EDGE('',*,*,#325,.F.);
#152=ORIENTED_EDGE('',*,*,#326,.F.);
#153=ORIENTED_EDGE('',*,*,#327,.T.);
#154=ORIENTED_EDGE('',*,*,#308,.T.);
#155=ORIENTED_EDGE('',*,*,#313,.T.);
#156=ORIENTED_EDGE('',*,*,#276,.T.);
#157=ORIENTED_EDGE('',*,*,#280,.T.);
#158=ORIENTED_EDGE('',*,*,#283,.T.);
#159=ORIENTED_EDGE('',*,*,#286,.T.);
#160=ORIENTED_EDGE('',*,*,#289,.T.);
#161=ORIENTED_EDGE('',*,*,#292,.T.);
#162=ORIENTED_EDGE('',*,*,#295,.T.);
#163=ORIENTED_EDGE('',*,*,#298,.T.);
#164=ORIENTED_EDGE('',*,*,#301,.T.);
#165=ORIENTED_EDGE('',*,*,#304,.T.);
#166=ORIENTED_EDGE('',*,*,#328,.T.);
#167=ORIENTED_EDGE('',*,*,#305,.F.);
#168=ORIENTED_EDGE('',*,*,#302,.F.);
#169=ORIENTED_EDGE('',*,*,#299,.F.);
#170=ORIENTED_EDGE('',*,*,#296,.F.);
#171=ORIENTED_EDGE('',*,*,#293,.F.);
#172=ORIENTED_EDGE('',*,*,#290,.F.);
#173=ORIENTED_EDGE('',*,*,#287,.F.);
#174=ORIENTED_EDGE('',*,*,#284,.F.);
#175=ORIENTED_EDGE('',*,*,#281,.F.);
#176=ORIENTED_EDGE('',*,*,#278,.F.);
#177=ORIENTED_EDGE('',*,*,#274,.F.);
#178=ORIENTED_EDGE('',*,*,#312,.F.);
#179=ORIENTED_EDGE('',*,*,#310,.F.);
#180=ORIENTED_EDGE('',*,*,#329,.T.);
#181=ORIENTED_EDGE('',*,*,#330,.T.);
#182=ORIENTED_EDGE('',*,*,#331,.T.);
#183=ORIENTED_EDGE('',*,*,#258,.F.);
#184=ORIENTED_EDGE('',*,*,#332,.T.);
#185=ORIENTED_EDGE('',*,*,#333,.T.);
#186=ORIENTED_EDGE('',*,*,#334,.T.);
#187=ORIENTED_EDGE('',*,*,#262,.F.);
#188=ORIENTED_EDGE('',*,*,#335,.T.);
#189=ORIENTED_EDGE('',*,*,#336,.T.);
#190=ORIENTED_EDGE('',*,*,#337,.T.);
#191=ORIENTED_EDGE('',*,*,#266,.F.);
#192=ORIENTED_EDGE('',*,*,#338,.T.);
#193=ORIENTED_EDGE('',*,*,#339,.T.);
#194=ORIENTED_EDGE('',*,*,#340,.T.);
#195=ORIENTED_EDGE('',*,*,#270,.F.);
#196=ORIENTED_EDGE('',*,*,#341,.T.);
#197=ORIENTED_EDGE('',*,*,#255,.T.);
#198=ORIENTED_EDGE('',*,*,#273,.T.);
#199=ORIENTED_EDGE('',*,*,#315,.T.);
#200=ORIENTED_EDGE('',*,*,#256,.F.);
#201=ORIENTED_EDGE('',*,*,#341,.F.);
#202=ORIENTED_EDGE('',*,*,#342,.T.);
#203=ORIENTED_EDGE('',*,*,#316,.T.);
#204=ORIENTED_EDGE('',*,*,#271,.F.);
#205=ORIENTED_EDGE('',*,*,#340,.F.);
#206=ORIENTED_EDGE('',*,*,#343,.T.);
#207=ORIENTED_EDGE('',*,*,#317,.T.);
#208=ORIENTED_EDGE('',*,*,#342,.F.);
#209=ORIENTED_EDGE('',*,*,#339,.F.);
#210=ORIENTED_EDGE('',*,*,#269,.T.);
#211=ORIENTED_EDGE('',*,*,#318,.T.);
#212=ORIENTED_EDGE('',*,*,#343,.F.);
#213=ORIENTED_EDGE('',*,*,#338,.F.);
#214=ORIENTED_EDGE('',*,*,#344,.T.);
#215=ORIENTED_EDGE('',*,*,#319,.T.);
#216=ORIENTED_EDGE('',*,*,#267,.F.);
#217=ORIENTED_EDGE('',*,*,#337,.F.);
#218=ORIENTED_EDGE('',*,*,#345,.T.);
#219=ORIENTED_EDGE('',*,*,#320,.T.);
#220=ORIENTED_EDGE('',*,*,#344,.F.);
#221=ORIENTED_EDGE('',*,*,#336,.F.);
#222=ORIENTED_EDGE('',*,*,#265,.T.);
#223=ORIENTED_EDGE('',*,*,#321,.T.);
#224=ORIENTED_EDGE('',*,*,#345,.F.);
#225=ORIENTED_EDGE('',*,*,#335,.F.);
#226=ORIENTED_EDGE('',*,*,#346,.T.);
#227=ORIENTED_EDGE('',*,*,#322,.T.);
#228=ORIENTED_EDGE('',*,*,#263,.F.);
#229=ORIENTED_EDGE('',*,*,#334,.F.);
#230=ORIENTED_EDGE('',*,*,#347,.T.);
#231=ORIENTED_EDGE('',*,*,#323,.T.);
#232=ORIENTED_EDGE('',*,*,#346,.F.);
#233=ORIENTED_EDGE('',*,*,#333,.F.);
#234=ORIENTED_EDGE('',*,*,#261,.T.);
#235=ORIENTED_EDGE('',*,*,#324,.T.);
#236=ORIENTED_EDGE('',*,*,#347,.F.);
#237=ORIENTED_EDGE('',*,*,#332,.F.);
#238=ORIENTED_EDGE('',*,*,#331,.F.);
#239=ORIENTED_EDGE('',*,*,#348,.T.);
#240=ORIENTED_EDGE('',*,*,#325,.T.);
#241=ORIENTED_EDGE('',*,*,#259,.F.);
#242=ORIENTED_EDGE('',*,*,#330,.F.);
#243=ORIENTED_EDGE('',*,*,#349,.T.);
#244=ORIENTED_EDGE('',*,*,#326,.T.);
#245=ORIENTED_EDGE('',*,*,#348,.F.);
#246=ORIENTED_EDGE('',*,*,#329,.F.);
#247=ORIENTED_EDGE('',*,*,#309,.F.);
#248=ORIENTED_EDGE('',*,*,#327,.F.);
#249=ORIENTED_EDGE('',*,*,#349,.F.);
#250=ORIENTED_EDGE('',*,*,#328,.F.);
#251=ORIENTED_EDGE('',*,*,#254,.T.);
#252=ORIENTED_EDGE('',*,*,#314,.T.);
#253=ORIENTED_EDGE('',*,*,#306,.F.);
#254=EDGE_CURVE('',#350,#351,#414,.T.);
#255=EDGE_CURVE('',#352,#350,#30,.F.);
#256=EDGE_CURVE('',#352,#353,#415,.T.);
#257=EDGE_CURVE('',#353,#351,#31,.T.);
#258=EDGE_CURVE('',#354,#355,#32,.T.);
#259=EDGE_CURVE('',#355,#356,#416,.T.);
#260=EDGE_CURVE('',#357,#356,#33,.T.);
#261=EDGE_CURVE('',#354,#357,#417,.T.);
#262=EDGE_CURVE('',#358,#359,#34,.T.);
#263=EDGE_CURVE('',#359,#360,#418,.T.);
#264=EDGE_CURVE('',#361,#360,#35,.T.);
#265=EDGE_CURVE('',#358,#361,#419,.T.);
#266=EDGE_CURVE('',#362,#363,#36,.T.);
#267=EDGE_CURVE('',#363,#364,#420,.T.);
#268=EDGE_CURVE('',#365,#364,#37,.T.);
#269=EDGE_CURVE('',#362,#365,#421,.T.);
#270=EDGE_CURVE('',#366,#367,#38,.T.);
#271=EDGE_CURVE('',#367,#368,#422,.T.);
#272=EDGE_CURVE('',#369,#368,#39,.T.);
#273=EDGE_CURVE('',#366,#369,#423,.T.);
#274=EDGE_CURVE('',#370,#371,#40,.T.);
#275=EDGE_CURVE('',#372,#371,#424,.T.);
#276=EDGE_CURVE('',#373,#372,#41,.T.);
#277=EDGE_CURVE('',#373,#370,#425,.T.);
#278=EDGE_CURVE('',#371,#374,#426,.T.);
#279=EDGE_CURVE('',#375,#374,#427,.T.);
#280=EDGE_CURVE('',#372,#375,#428,.T.);
#281=EDGE_CURVE('',#374,#376,#42,.T.);
#282=EDGE_CURVE('',#377,#376,#429,.T.);
#283=EDGE_CURVE('',#375,#377,#43,.T.);
#284=EDGE_CURVE('',#376,#378,#430,.T.);
#285=EDGE_CURVE('',#379,#378,#431,.T.);
#286=EDGE_CURVE('',#377,#379,#432,.T.);
#287=EDGE_CURVE('',#378,#380,#44,.T.);
#288=EDGE_CURVE('',#381,#380,#433,.T.);
#289=EDGE_CURVE('',#379,#381,#45,.T.);
#290=EDGE_CURVE('',#380,#382,#434,.T.);
#291=EDGE_CURVE('',#383,#382,#435,.T.);
#292=EDGE_CURVE('',#381,#383,#436,.T.);
#293=EDGE_CURVE('',#382,#384,#46,.T.);
#294=EDGE_CURVE('',#385,#384,#437,.T.);
#295=EDGE_CURVE('',#383,#385,#47,.T.);
#296=EDGE_CURVE('',#384,#386,#438,.T.);
#297=EDGE_CURVE('',#387,#386,#439,.T.);
#298=EDGE_CURVE('',#385,#387,#440,.T.);
#299=EDGE_CURVE('',#386,#388,#48,.T.);
#300=EDGE_CURVE('',#389,#388,#441,.T.);
#301=EDGE_CURVE('',#387,#389,#49,.T.);
#302=EDGE_CURVE('',#388,#390,#442,.T.);
#303=EDGE_CURVE('',#391,#390,#443,.T.);
#304=EDGE_CURVE('',#389,#391,#444,.T.);
#305=EDGE_CURVE('',#390,#392,#445,.T.);
#306=EDGE_CURVE('',#392,#393,#446,.T.);
#307=EDGE_CURVE('',#391,#393,#447,.T.);
#308=EDGE_CURVE('',#394,#395,#448,.T.);
#309=EDGE_CURVE('',#394,#396,#449,.F.);
#310=EDGE_CURVE('',#396,#397,#450,.T.);
#311=EDGE_CURVE('',#395,#397,#451,.T.);
#312=EDGE_CURVE('',#397,#370,#452,.T.);
#313=EDGE_CURVE('',#395,#373,#453,.T.);
#314=EDGE_CURVE('',#351,#393,#50,.T.);
#315=EDGE_CURVE('',#369,#353,#454,.T.);
#316=EDGE_CURVE('',#398,#368,#455,.T.);
#317=EDGE_CURVE('',#399,#398,#51,.T.);
#318=EDGE_CURVE('',#365,#399,#456,.T.);
#319=EDGE_CURVE('',#400,#364,#457,.T.);
#320=EDGE_CURVE('',#401,#400,#52,.T.);
#321=EDGE_CURVE('',#361,#401,#458,.T.);
#322=EDGE_CURVE('',#402,#360,#459,.T.);
#323=EDGE_CURVE('',#403,#402,#53,.T.);
#324=EDGE_CURVE('',#357,#403,#460,.T.);
#325=EDGE_CURVE('',#404,#356,#461,.T.);
#326=EDGE_CURVE('',#405,#404,#54,.T.);
#327=EDGE_CURVE('',#405,#394,#55,.F.);
#328=EDGE_CURVE('',#350,#392,#56,.T.);
#329=EDGE_CURVE('',#396,#406,#57,.T.);
#330=EDGE_CURVE('',#406,#407,#58,.T.);
#331=EDGE_CURVE('',#407,#355,#462,.T.);
#332=EDGE_CURVE('',#354,#408,#463,.T.);
#333=EDGE_CURVE('',#408,#409,#59,.F.);
#334=EDGE_CURVE('',#409,#359,#464,.T.);
#335=EDGE_CURVE('',#358,#410,#465,.T.);
#336=EDGE_CURVE('',#410,#411,#60,.F.);
#337=EDGE_CURVE('',#411,#363,#466,.T.);
#338=EDGE_CURVE('',#362,#412,#467,.T.);
#339=EDGE_CURVE('',#412,#413,#61,.F.);
#340=EDGE_CURVE('',#413,#367,#468,.T.);
#341=EDGE_CURVE('',#366,#352,#469,.T.);
#342=EDGE_CURVE('',#413,#398,#470,.T.);
#343=EDGE_CURVE('',#412,#399,#471,.T.);
#344=EDGE_CURVE('',#411,#400,#472,.T.);
#345=EDGE_CURVE('',#410,#401,#473,.T.);
#346=EDGE_CURVE('',#409,#402,#474,.T.);
#347=EDGE_CURVE('',#408,#403,#475,.T.);
#348=EDGE_CURVE('',#407,#404,#476,.T.);
#349=EDGE_CURVE('',#406,#405,#477,.T.);
#350=VERTEX_POINT('',#932);
#351=VERTEX_POINT('',#933);
#352=VERTEX_POINT('',#935);
#353=VERTEX_POINT('',#937);
#354=VERTEX_POINT('',#941);
#355=VERTEX_POINT('',#942);
#356=VERTEX_POINT('',#944);
#357=VERTEX_POINT('',#946);
#358=VERTEX_POINT('',#950);
#359=VERTEX_POINT('',#951);
#360=VERTEX_POINT('',#953);
#361=VERTEX_POINT('',#955);
#362=VERTEX_POINT('',#959);
#363=VERTEX_POINT('',#960);
#364=VERTEX_POINT('',#962);
#365=VERTEX_POINT('',#964);
#366=VERTEX_POINT('',#968);
#367=VERTEX_POINT('',#969);
#368=VERTEX_POINT('',#971);
#369=VERTEX_POINT('',#973);
#370=VERTEX_POINT('',#977);
#371=VERTEX_POINT('',#978);
#372=VERTEX_POINT('',#980);
#373=VERTEX_POINT('',#982);
#374=VERTEX_POINT('',#986);
#375=VERTEX_POINT('',#988);
#376=VERTEX_POINT('',#992);
#377=VERTEX_POINT('',#994);
#378=VERTEX_POINT('',#998);
#379=VERTEX_POINT('',#1000);
#380=VERTEX_POINT('',#1004);
#381=VERTEX_POINT('',#1006);
#382=VERTEX_POINT('',#1010);
#383=VERTEX_POINT('',#1012);
#384=VERTEX_POINT('',#1016);
#385=VERTEX_POINT('',#1018);
#386=VERTEX_POINT('',#1022);
#387=VERTEX_POINT('',#1024);
#388=VERTEX_POINT('',#1028);
#389=VERTEX_POINT('',#1030);
#390=VERTEX_POINT('',#1034);
#391=VERTEX_POINT('',#1036);
#392=VERTEX_POINT('',#1040);
#393=VERTEX_POINT('',#1042);
#394=VERTEX_POINT('',#1046);
#395=VERTEX_POINT('',#1047);
#396=VERTEX_POINT('',#1049);
#397=VERTEX_POINT('',#1051);
#398=VERTEX_POINT('',#1060);
#399=VERTEX_POINT('',#1062);
#400=VERTEX_POINT('',#1065);
#401=VERTEX_POINT('',#1067);
#402=VERTEX_POINT('',#1070);
#403=VERTEX_POINT('',#1072);
#404=VERTEX_POINT('',#1075);
#405=VERTEX_POINT('',#1077);
#406=VERTEX_POINT('',#1082);
#407=VERTEX_POINT('',#1084);
#408=VERTEX_POINT('',#1087);
#409=VERTEX_POINT('',#1089);
#410=VERTEX_POINT('',#1092);
#411=VERTEX_POINT('',#1094);
#412=VERTEX_POINT('',#1097);
#413=VERTEX_POINT('',#1099);
#414=LINE('',#931,#478);
#415=LINE('',#936,#479);
#416=LINE('',#943,#480);
#417=LINE('',#947,#481);
#418=LINE('',#952,#482);
#419=LINE('',#956,#483);
#420=LINE('',#961,#484);
#421=LINE('',#965,#485);
#422=LINE('',#970,#486);
#423=LINE('',#974,#487);
#424=LINE('',#979,#488);
#425=LINE('',#983,#489);
#426=LINE('',#985,#490);
#427=LINE('',#987,#491);
#428=LINE('',#989,#492);
#429=LINE('',#993,#493);
#430=LINE('',#997,#494);
#431=LINE('',#999,#495);
#432=LINE('',#1001,#496);
#433=LINE('',#1005,#497);
#434=LINE('',#1009,#498);
#435=LINE('',#1011,#499);
#436=LINE('',#1013,#500);
#437=LINE('',#1017,#501);
#438=LINE('',#1021,#502);
#439=LINE('',#1023,#503);
#440=LINE('',#1025,#504);
#441=LINE('',#1029,#505);
#442=LINE('',#1033,#506);
#443=LINE('',#1035,#507);
#444=LINE('',#1037,#508);
#445=LINE('',#1039,#509);
#446=LINE('',#1041,#510);
#447=LINE('',#1043,#511);
#448=LINE('',#1045,#512);
#449=LINE('',#1048,#513);
#450=LINE('',#1050,#514);
#451=LINE('',#1052,#515);
#452=LINE('',#1054,#516);
#453=LINE('',#1055,#517);
#454=LINE('',#1058,#518);
#455=LINE('',#1059,#519);
#456=LINE('',#1063,#520);
#457=LINE('',#1064,#521);
#458=LINE('',#1068,#522);
#459=LINE('',#1069,#523);
#460=LINE('',#1073,#524);
#461=LINE('',#1074,#525);
#462=LINE('',#1085,#526);
#463=LINE('',#1086,#527);
#464=LINE('',#1090,#528);
#465=LINE('',#1091,#529);
#466=LINE('',#1095,#530);
#467=LINE('',#1096,#531);
#468=LINE('',#1100,#532);
#469=LINE('',#1101,#533);
#470=LINE('',#1104,#534);
#471=LINE('',#1106,#535);
#472=LINE('',#1109,#536);
#473=LINE('',#1111,#537);
#474=LINE('',#1114,#538);
#475=LINE('',#1116,#539);
#476=LINE('',#1119,#540);
#477=LINE('',#1121,#541);
#478=VECTOR('',#735,1.);
#479=VECTOR('',#738,1.);
#480=VECTOR('',#745,1.);
#481=VECTOR('',#748,1.);
#482=VECTOR('',#753,1.);
#483=VECTOR('',#756,1.);
#484=VECTOR('',#761,1.);
#485=VECTOR('',#764,1.);
#486=VECTOR('',#769,1.);
#487=VECTOR('',#772,1.);
#488=VECTOR('',#777,1.);
#489=VECTOR('',#780,1.);
#490=VECTOR('',#783,1.);
#491=VECTOR('',#784,1.);
#492=VECTOR('',#785,1.);
#493=VECTOR('',#790,1.);
#494=VECTOR('',#795,1.);
#495=VECTOR('',#796,1.);
#496=VECTOR('',#797,1.);
#497=VECTOR('',#802,1.);
#498=VECTOR('',#807,1.);
#499=VECTOR('',#808,1.);
#500=VECTOR('',#809,1.);
#501=VECTOR('',#814,1.);
#502=VECTOR('',#819,1.);
#503=VECTOR('',#820,1.);
#504=VECTOR('',#821,1.);
#505=VECTOR('',#826,1.);
#506=VECTOR('',#831,1.);
#507=VECTOR('',#832,1.);
#508=VECTOR('',#833,1.);
#509=VECTOR('',#836,1.);
#510=VECTOR('',#837,1.);
#511=VECTOR('',#838,1.);
#512=VECTOR('',#841,1.);
#513=VECTOR('',#842,1.);
#514=VECTOR('',#843,1.);
#515=VECTOR('',#844,1.);
#516=VECTOR('',#847,1.);
#517=VECTOR('',#848,1.);
#518=VECTOR('',#853,1.);
#519=VECTOR('',#854,1.);
#520=VECTOR('',#857,1.);
#521=VECTOR('',#858,1.);
#522=VECTOR('',#861,1.);
#523=VECTOR('',#862,1.);
#524=VECTOR('',#865,1.);
#525=VECTOR('',#866,1.);
#526=VECTOR('',#879,1.);
#527=VECTOR('',#880,1.);
#528=VECTOR('',#883,1.);
#529=VECTOR('',#884,1.);
#530=VECTOR('',#887,1.);
#531=VECTOR('',#888,1.);
#532=VECTOR('',#891,1.);
#533=VECTOR('',#892,1.);
#534=VECTOR('',#897,1.);
#535=VECTOR('',#900,1.);
#536=VECTOR('',#905,1.);
#537=VECTOR('',#908,1.);
#538=VECTOR('',#913,1.);
#539=VECTOR('',#916,1.);
#540=VECTOR('',#921,1.);
#541=VECTOR('',#924,1.);
#542=EDGE_LOOP('',(#62,#63,#64,#65));
#543=EDGE_LOOP('',(#66,#67,#68,#69));
#544=EDGE_LOOP('',(#70,#71,#72,#73));
#545=EDGE_LOOP('',(#74,#75,#76,#77));
#546=EDGE_LOOP('',(#78,#79,#80,#81));
#547=EDGE_LOOP('',(#82,#83,#84,#85));
#548=EDGE_LOOP('',(#86,#87,#88,#89));
#549=EDGE_LOOP('',(#90,#91,#92,#93));
#550=EDGE_LOOP('',(#94,#95,#96,#97));
#551=EDGE_LOOP('',(#98,#99,#100,#101));
#552=EDGE_LOOP('',(#102,#103,#104,#105));
#553=EDGE_LOOP('',(#106,#107,#108,#109));
#554=EDGE_LOOP('',(#110,#111,#112,#113));
#555=EDGE_LOOP('',(#114,#115,#116,#117));
#556=EDGE_LOOP('',(#118,#119,#120,#121));
#557=EDGE_LOOP('',(#122,#123,#124,#125));
#558=EDGE_LOOP('',(#126,#127,#128,#129));
#559=EDGE_LOOP('',(#130,#131,#132,#133));
#560=EDGE_LOOP('',(#134,#135,#136,#137,#138,#139,#140,#141,#142,#143,#144,
#145,#146,#147,#148,#149,#150,#151,#152,#153,#154,#155,#156,#157,#158,#159,
#160,#161,#162,#163,#164,#165));
#561=EDGE_LOOP('',(#166,#167,#168,#169,#170,#171,#172,#173,#174,#175,#176,
#177,#178,#179,#180,#181,#182,#183,#184,#185,#186,#187,#188,#189,#190,#191,
#192,#193,#194,#195,#196,#197));
#562=EDGE_LOOP('',(#198,#199,#200,#201));
#563=EDGE_LOOP('',(#202,#203,#204,#205));
#564=EDGE_LOOP('',(#206,#207,#208,#209));
#565=EDGE_LOOP('',(#210,#211,#212,#213));
#566=EDGE_LOOP('',(#214,#215,#216,#217));
#567=EDGE_LOOP('',(#218,#219,#220,#221));
#568=EDGE_LOOP('',(#222,#223,#224,#225));
#569=EDGE_LOOP('',(#226,#227,#228,#229));
#570=EDGE_LOOP('',(#230,#231,#232,#233));
#571=EDGE_LOOP('',(#234,#235,#236,#237));
#572=EDGE_LOOP('',(#238,#239,#240,#241));
#573=EDGE_LOOP('',(#242,#243,#244,#245));
#574=EDGE_LOOP('',(#246,#247,#248,#249));
#575=EDGE_LOOP('',(#250,#251,#252,#253));
#576=FACE_BOUND('',#542,.T.);
#577=FACE_BOUND('',#543,.T.);
#578=FACE_BOUND('',#544,.T.);
#579=FACE_BOUND('',#545,.T.);
#580=FACE_BOUND('',#546,.T.);
#581=FACE_BOUND('',#547,.T.);
#582=FACE_BOUND('',#548,.T.);
#583=FACE_BOUND('',#549,.T.);
#584=FACE_BOUND('',#550,.T.);
#585=FACE_BOUND('',#551,.T.);
#586=FACE_BOUND('',#552,.T.);
#587=FACE_BOUND('',#553,.T.);
#588=FACE_BOUND('',#554,.T.);
#589=FACE_BOUND('',#555,.T.);
#590=FACE_BOUND('',#556,.T.);
#591=FACE_BOUND('',#557,.T.);
#592=FACE_BOUND('',#558,.T.);
#593=FACE_BOUND('',#559,.T.);
#594=FACE_BOUND('',#560,.T.);
#595=FACE_BOUND('',#561,.T.);
#596=FACE_BOUND('',#562,.T.);
#597=FACE_BOUND('',#563,.T.);
#598=FACE_BOUND('',#564,.T.);
#599=FACE_BOUND('',#565,.T.);
#600=FACE_BOUND('',#566,.T.);
#601=FACE_BOUND('',#567,.T.);
#602=FACE_BOUND('',#568,.T.);
#603=FACE_BOUND('',#569,.T.);
#604=FACE_BOUND('',#570,.T.);
#605=FACE_BOUND('',#571,.T.);
#606=FACE_BOUND('',#572,.T.);
#607=FACE_BOUND('',#573,.T.);
#608=FACE_BOUND('',#574,.T.);
#609=FACE_BOUND('',#575,.T.);
#610=CYLINDRICAL_SURFACE('',#665,0.0005);
#611=CYLINDRICAL_SURFACE('',#668,0.0121);
#612=CYLINDRICAL_SURFACE('',#671,0.0121);
#613=CYLINDRICAL_SURFACE('',#674,0.0121);
#614=CYLINDRICAL_SURFACE('',#677,0.0121);
#615=CYLINDRICAL_SURFACE('',#680,0.0072);
#616=CYLINDRICAL_SURFACE('',#684,0.0092);
#617=CYLINDRICAL_SURFACE('',#688,0.0093);
#618=CYLINDRICAL_SURFACE('',#692,0.0092);
#619=CYLINDRICAL_SURFACE('',#696,0.0072);
#620=CYLINDRICAL_SURFACE('',#719,0.0005);
#621=CYLINDRICAL_SURFACE('',#722,0.0005);
#622=CYLINDRICAL_SURFACE('',#725,0.0005);
#623=CYLINDRICAL_SURFACE('',#728,0.0109);
#624=CYLINDRICAL_SURFACE('',#729,0.001);
#625=CYLINDRICAL_SURFACE('',#730,0.0109);
#626=ADVANCED_FACE('',(#576),#610,.F.);
#627=ADVANCED_FACE('',(#577),#611,.T.);
#628=ADVANCED_FACE('',(#578),#612,.T.);
#629=ADVANCED_FACE('',(#579),#613,.T.);
#630=ADVANCED_FACE('',(#580),#614,.T.);
#631=ADVANCED_FACE('',(#581),#615,.F.);
#632=ADVANCED_FACE('',(#582),#12,.F.);
#633=ADVANCED_FACE('',(#583),#616,.F.);
#634=ADVANCED_FACE('',(#584),#13,.F.);
#635=ADVANCED_FACE('',(#585),#617,.F.);
#636=ADVANCED_FACE('',(#586),#14,.F.);
#637=ADVANCED_FACE('',(#587),#618,.F.);
#638=ADVANCED_FACE('',(#588),#15,.F.);
#639=ADVANCED_FACE('',(#589),#619,.F.);
#640=ADVANCED_FACE('',(#590),#16,.F.);
#641=ADVANCED_FACE('',(#591),#17,.F.);
#642=ADVANCED_FACE('',(#592),#18,.F.);
#643=ADVANCED_FACE('',(#593),#19,.F.);
#644=ADVANCED_FACE('',(#594),#20,.F.);
#645=ADVANCED_FACE('',(#595),#21,.T.);
#646=ADVANCED_FACE('',(#596),#22,.F.);
#647=ADVANCED_FACE('',(#597),#23,.F.);
#648=ADVANCED_FACE('',(#598),#620,.F.);
#649=ADVANCED_FACE('',(#599),#24,.F.);
#650=ADVANCED_FACE('',(#600),#25,.F.);
#651=ADVANCED_FACE('',(#601),#621,.F.);
#652=ADVANCED_FACE('',(#602),#26,.F.);
#653=ADVANCED_FACE('',(#603),#27,.F.);
#654=ADVANCED_FACE('',(#604),#622,.F.);
#655=ADVANCED_FACE('',(#605),#28,.F.);
#656=ADVANCED_FACE('',(#606),#29,.F.);
#657=ADVANCED_FACE('',(#607),#623,.T.);
#658=ADVANCED_FACE('',(#608),#624,.T.);
#659=ADVANCED_FACE('',(#609),#625,.T.);
#660=CLOSED_SHELL('',(#626,#627,#628,#629,#630,#631,#632,#633,#634,#635,
#636,#637,#638,#639,#640,#641,#642,#643,#644,#645,#646,#647,#648,#649,#650,
#651,#652,#653,#654,#655,#656,#657,#658,#659));
#661=MANIFOLD_SOLID_BREP('',#660);
#662=SHAPE_DEFINITION_REPRESENTATION(#1129,#663);
#663=SHAPE_REPRESENTATION('id2',(#664),#1124);
#664=AXIS2_PLACEMENT_3D('',#929,#731,#732);
#665=AXIS2_PLACEMENT_3D('',#930,#733,#734);
#666=AXIS2_PLACEMENT_3D('',#934,#736,#737);
#667=AXIS2_PLACEMENT_3D('',#938,#739,#740);
#668=AXIS2_PLACEMENT_3D('',#939,#741,#742);
#669=AXIS2_PLACEMENT_3D('',#940,#743,#744);
#670=AXIS2_PLACEMENT_3D('',#945,#746,#747);
#671=AXIS2_PLACEMENT_3D('',#948,#749,#750);
#672=AXIS2_PLACEMENT_3D('',#949,#751,#752);
#673=AXIS2_PLACEMENT_3D('',#954,#754,#755);
#674=AXIS2_PLACEMENT_3D('',#957,#757,#758);
#675=AXIS2_PLACEMENT_3D('',#958,#759,#760);
#676=AXIS2_PLACEMENT_3D('',#963,#762,#763);
#677=AXIS2_PLACEMENT_3D('',#966,#765,#766);
#678=AXIS2_PLACEMENT_3D('',#967,#767,#768);
#679=AXIS2_PLACEMENT_3D('',#972,#770,#771);
#680=AXIS2_PLACEMENT_3D('',#975,#773,#774);
#681=AXIS2_PLACEMENT_3D('',#976,#775,#776);
#682=AXIS2_PLACEMENT_3D('',#981,#778,#779);
#683=AXIS2_PLACEMENT_3D('',#984,#781,#782);
#684=AXIS2_PLACEMENT_3D('',#990,#786,#787);
#685=AXIS2_PLACEMENT_3D('',#991,#788,#789);
#686=AXIS2_PLACEMENT_3D('',#995,#791,#792);
#687=AXIS2_PLACEMENT_3D('',#996,#793,#794);
#688=AXIS2_PLACEMENT_3D('',#1002,#798,#799);
#689=AXIS2_PLACEMENT_3D('',#1003,#800,#801);
#690=AXIS2_PLACEMENT_3D('',#1007,#803,#804);
#691=AXIS2_PLACEMENT_3D('',#1008,#805,#806);
#692=AXIS2_PLACEMENT_3D('',#1014,#810,#811);
#693=AXIS2_PLACEMENT_3D('',#1015,#812,#813);
#694=AXIS2_PLACEMENT_3D('',#1019,#815,#816);
#695=AXIS2_PLACEMENT_3D('',#1020,#817,#818);
#696=AXIS2_PLACEMENT_3D('',#1026,#822,#823);
#697=AXIS2_PLACEMENT_3D('',#1027,#824,#825);
#698=AXIS2_PLACEMENT_3D('',#1031,#827,#828);
#699=AXIS2_PLACEMENT_3D('',#1032,#829,#830);
#700=AXIS2_PLACEMENT_3D('',#1038,#834,#835);
#701=AXIS2_PLACEMENT_3D('',#1044,#839,#840);
#702=AXIS2_PLACEMENT_3D('',#1053,#845,#846);
#703=AXIS2_PLACEMENT_3D('',#1056,#849,#850);
#704=AXIS2_PLACEMENT_3D('',#1057,#851,#852);
#705=AXIS2_PLACEMENT_3D('',#1061,#855,#856);
#706=AXIS2_PLACEMENT_3D('',#1066,#859,#860);
#707=AXIS2_PLACEMENT_3D('',#1071,#863,#864);
#708=AXIS2_PLACEMENT_3D('',#1076,#867,#868);
#709=AXIS2_PLACEMENT_3D('',#1078,#869,#870);
#710=AXIS2_PLACEMENT_3D('',#1079,#871,#872);
#711=AXIS2_PLACEMENT_3D('',#1080,#873,#874);
#712=AXIS2_PLACEMENT_3D('',#1081,#875,#876);
#713=AXIS2_PLACEMENT_3D('',#1083,#877,#878);
#714=AXIS2_PLACEMENT_3D('',#1088,#881,#882);
#715=AXIS2_PLACEMENT_3D('',#1093,#885,#886);
#716=AXIS2_PLACEMENT_3D('',#1098,#889,#890);
#717=AXIS2_PLACEMENT_3D('',#1102,#893,#894);
#718=AXIS2_PLACEMENT_3D('',#1103,#895,#896);
#719=AXIS2_PLACEMENT_3D('',#1105,#898,#899);
#720=AXIS2_PLACEMENT_3D('',#1107,#901,#902);
#721=AXIS2_PLACEMENT_3D('',#1108,#903,#904);
#722=AXIS2_PLACEMENT_3D('',#1110,#906,#907);
#723=AXIS2_PLACEMENT_3D('',#1112,#909,#910);
#724=AXIS2_PLACEMENT_3D('',#1113,#911,#912);
#725=AXIS2_PLACEMENT_3D('',#1115,#914,#915);
#726=AXIS2_PLACEMENT_3D('',#1117,#917,#918);
#727=AXIS2_PLACEMENT_3D('',#1118,#919,#920);
#728=AXIS2_PLACEMENT_3D('',#1120,#922,#923);
#729=AXIS2_PLACEMENT_3D('',#1122,#925,#926);
#730=AXIS2_PLACEMENT_3D('',#1123,#927,#928);
#731=DIRECTION('',(0.,0.,1.));
#732=DIRECTION('',(1.,0.,0.));
#733=DIRECTION('',(0.,0.,1.));
#734=DIRECTION('',(1.,0.,0.));
#735=DIRECTION('',(0.,0.,1.));
#736=DIRECTION('',(0.,0.,-1.));
#737=DIRECTION('',(-1.,0.,0.));
#738=DIRECTION('',(0.,0.,1.));
#739=DIRECTION('',(0.,0.,1.));
#740=DIRECTION('',(0.5555702330196,0.831469612302546,0.));
#741=DIRECTION('',(0.,0.,-1.));
#742=DIRECTION('',(-1.,0.,0.));
#743=DIRECTION('',(0.,0.,1.));
#744=DIRECTION('',(1.,0.,0.));
#745=DIRECTION('',(0.,0.,1.));
#746=DIRECTION('',(0.,0.,1.));
#747=DIRECTION('',(1.,0.,0.));
#748=DIRECTION('',(0.,0.,1.));
#749=DIRECTION('',(0.,0.,-1.));
#750=DIRECTION('',(-1.,0.,0.));
#751=DIRECTION('',(0.,0.,1.));
#752=DIRECTION('',(1.,0.,0.));
#753=DIRECTION('',(0.,0.,1.));
#754=DIRECTION('',(0.,0.,1.));
#755=DIRECTION('',(1.,0.,0.));
#756=DIRECTION('',(0.,0.,1.));
#757=DIRECTION('',(0.,0.,-1.));
#758=DIRECTION('',(-1.,0.,0.));
#759=DIRECTION('',(0.,0.,1.));
#760=DIRECTION('',(1.,0.,0.));
#761=DIRECTION('',(0.,0.,1.));
#762=DIRECTION('',(0.,0.,1.));
#763=DIRECTION('',(1.,0.,0.));
#764=DIRECTION('',(0.,0.,1.));
#765=DIRECTION('',(0.,0.,-1.));
#766=DIRECTION('',(-1.,0.,0.));
#767=DIRECTION('',(0.,0.,1.));
#768=DIRECTION('',(1.,0.,0.));
#769=DIRECTION('',(0.,0.,1.));
#770=DIRECTION('',(0.,0.,1.));
#771=DIRECTION('',(1.,0.,0.));
#772=DIRECTION('',(0.,0.,1.));
#773=DIRECTION('',(0.,0.,-1.));
#774=DIRECTION('',(-1.,0.,0.));
#775=DIRECTION('',(0.,0.,-1.));
#776=DIRECTION('',(-1.,0.,0.));
#777=DIRECTION('',(0.,0.,-1.));
#778=DIRECTION('',(0.,0.,-1.));
#779=DIRECTION('',(-1.,0.,0.));
#780=DIRECTION('',(0.,0.,-1.));
#781=DIRECTION('',(0.866025403784438,0.5,0.));
#782=DIRECTION('',(-0.5,0.866025403784438,0.));
#783=DIRECTION('',(0.5,-0.866025403784438,0.));
#784=DIRECTION('',(0.,0.,-1.));
#785=DIRECTION('',(0.5,-0.866025403784438,0.));
#786=DIRECTION('',(0.,0.,-1.));
#787=DIRECTION('',(-1.,0.,0.));
#788=DIRECTION('',(0.,0.,-1.));
#789=DIRECTION('',(1.,0.,0.));
#790=DIRECTION('',(0.,0.,-1.));
#791=DIRECTION('',(0.,0.,-1.));
#792=DIRECTION('',(1.,0.,0.));
#793=DIRECTION('',(1.,0.,0.));
#794=DIRECTION('',(0.,0.,-1.));
#795=DIRECTION('',(0.,-1.,0.));
#796=DIRECTION('',(0.,0.,-1.));
#797=DIRECTION('',(0.,-1.,0.));
#798=DIRECTION('',(0.,0.,-1.));
#799=DIRECTION('',(-1.,0.,0.));
#800=DIRECTION('',(0.,0.,-1.));
#801=DIRECTION('',(1.,0.,0.));
#802=DIRECTION('',(0.,0.,-1.));
#803=DIRECTION('',(0.,0.,-1.));
#804=DIRECTION('',(1.,0.,0.));
#805=DIRECTION('',(-1.,0.,0.));
#806=DIRECTION('',(0.,0.,1.));
#807=DIRECTION('',(0.,1.,0.));
#808=DIRECTION('',(0.,0.,-1.));
#809=DIRECTION('',(0.,1.,0.));
#810=DIRECTION('',(0.,0.,-1.));
#811=DIRECTION('',(-1.,0.,0.));
#812=DIRECTION('',(0.,0.,-1.));
#813=DIRECTION('',(1.,0.,0.));
#814=DIRECTION('',(0.,0.,-1.));
#815=DIRECTION('',(0.,0.,-1.));
#816=DIRECTION('',(1.,0.,0.));
#817=DIRECTION('',(-0.866025403784438,0.5,0.));
#818=DIRECTION('',(-0.5,-0.866025403784438,0.));
#819=DIRECTION('',(0.5,0.866025403784438,0.));
#820=DIRECTION('',(0.,0.,-1.));
#821=DIRECTION('',(0.5,0.866025403784438,0.));
#822=DIRECTION('',(0.,0.,-1.));
#823=DIRECTION('',(-1.,0.,0.));
#824=DIRECTION('',(0.,0.,-1.));
#825=DIRECTION('',(1.,0.,0.));
#826=DIRECTION('',(0.,0.,-1.));
#827=DIRECTION('',(0.,0.,-1.));
#828=DIRECTION('',(1.,0.,0.));
#829=DIRECTION('',(6.97999979618284E-16,-1.,0.));
#830=DIRECTION('',(1.,6.97999979618284E-16,0.));
#831=DIRECTION('',(-1.,-6.97999979618284E-16,0.));
#832=DIRECTION('',(0.,0.,-1.));
#833=DIRECTION('',(-1.,-6.97999979618284E-16,0.));
#834=DIRECTION('',(0.461748613235031,-0.887010833178223,0.));
#835=DIRECTION('',(0.887010833178223,0.461748613235031,0.));
#836=DIRECTION('',(-0.887010833178223,-0.461748613235031,0.));
#837=DIRECTION('',(0.,0.,1.));
#838=DIRECTION('',(-0.887010833178223,-0.461748613235031,0.));
#839=DIRECTION('',(-0.461748613235032,-0.887010833178223,0.));
#840=DIRECTION('',(0.887010833178223,-0.461748613235032,0.));
#841=DIRECTION('',(-0.887010833178223,0.461748613235032,0.));
#842=DIRECTION('',(0.,0.,1.));
#843=DIRECTION('',(-0.887010833178223,0.461748613235032,0.));
#844=DIRECTION('',(0.,0.,-1.));
#845=DIRECTION('',(-3.48999989809142E-16,-1.,0.));
#846=DIRECTION('',(1.,-3.48999989809142E-16,0.));
#847=DIRECTION('',(-1.,3.48999989809142E-16,0.));
#848=DIRECTION('',(-1.,3.48999989809142E-16,0.));
#849=DIRECTION('',(0.,0.,-1.));
#850=DIRECTION('',(-1.,0.,0.));
#851=DIRECTION('',(0.,0.,-1.));
#852=DIRECTION('',(1.,0.,0.));
#853=DIRECTION('',(-0.0871557427476559,0.996194698091746,0.));
#854=DIRECTION('',(-0.625923472184057,-0.779884483092884,0.));
#855=DIRECTION('',(0.,0.,1.));
#856=DIRECTION('',(0.382683432365087,0.923879532511288,0.));
#857=DIRECTION('',(-0.27982901403099,0.960049854385929,0.));
#858=DIRECTION('',(-0.461748613235031,-0.887010833178223,0.));
#859=DIRECTION('',(0.,0.,1.));
#860=DIRECTION('',(0.195090322016125,0.980785280403231,0.));
#861=DIRECTION('',(-0.461748613235033,0.887010833178222,0.));
#862=DIRECTION('',(-0.279829014030988,-0.96004985438593,0.));
#863=DIRECTION('',(0.,0.,1.));
#864=DIRECTION('',(-3.49148133884313E-15,1.,0.));
#865=DIRECTION('',(-0.625923472184058,0.779884483092882,0.));
#866=DIRECTION('',(-0.0871557427476539,-0.996194698091746,0.));
#867=DIRECTION('',(0.,0.,-1.));
#868=DIRECTION('',(-1.,0.,0.));
#869=DIRECTION('',(0.,0.,-1.));
#870=DIRECTION('',(-1.,0.,0.));
#871=DIRECTION('',(0.,0.,-1.));
#872=DIRECTION('',(-1.,0.,0.));
#873=DIRECTION('',(0.,0.,-1.));
#874=DIRECTION('',(-1.,0.,0.));
#875=DIRECTION('',(0.,0.,-1.));
#876=DIRECTION('',(-1.,0.,0.));
#877=DIRECTION('',(0.,0.,-1.));
#878=DIRECTION('',(-1.,0.,0.));
#879=DIRECTION('',(-0.0871557427476539,-0.996194698091746,0.));
#880=DIRECTION('',(-0.625923472184058,0.779884483092882,0.));
#881=DIRECTION('',(0.,0.,-1.));
#882=DIRECTION('',(-1.,0.,0.));
#883=DIRECTION('',(-0.279829014030988,-0.96004985438593,0.));
#884=DIRECTION('',(-0.461748613235033,0.887010833178222,0.));
#885=DIRECTION('',(0.,0.,-1.));
#886=DIRECTION('',(-1.,0.,0.));
#887=DIRECTION('',(-0.461748613235031,-0.887010833178223,0.));
#888=DIRECTION('',(-0.27982901403099,0.960049854385929,0.));
#889=DIRECTION('',(0.,0.,-1.));
#890=DIRECTION('',(-1.,0.,0.));
#891=DIRECTION('',(-0.625923472184057,-0.779884483092884,0.));
#892=DIRECTION('',(-0.0871557427476559,0.996194698091746,0.));
#893=DIRECTION('',(0.996194698091746,0.0871557427476558,0.));
#894=DIRECTION('',(-0.0871557427476559,0.996194698091746,0.));
#895=DIRECTION('',(-0.779884483092884,0.625923472184057,0.));
#896=DIRECTION('',(-0.625923472184057,-0.779884483092884,0.));
#897=DIRECTION('',(0.,0.,1.));
#898=DIRECTION('',(0.,0.,1.));
#899=DIRECTION('',(1.,0.,0.));
#900=DIRECTION('',(0.,0.,1.));
#901=DIRECTION('',(0.960049854385929,0.27982901403099,0.));
#902=DIRECTION('',(-0.27982901403099,0.960049854385929,0.));
#903=DIRECTION('',(-0.887010833178223,0.461748613235031,0.));
#904=DIRECTION('',(-0.461748613235031,-0.887010833178223,0.));
#905=DIRECTION('',(0.,0.,1.));
#906=DIRECTION('',(0.,0.,1.));
#907=DIRECTION('',(1.,0.,0.));
#908=DIRECTION('',(0.,0.,1.));
#909=DIRECTION('',(0.887010833178222,0.461748613235033,0.));
#910=DIRECTION('',(-0.461748613235033,0.887010833178222,0.));
#911=DIRECTION('',(-0.96004985438593,0.279829014030988,0.));
#912=DIRECTION('',(-0.279829014030988,-0.96004985438593,0.));
#913=DIRECTION('',(0.,0.,1.));
#914=DIRECTION('',(0.,0.,1.));
#915=DIRECTION('',(1.,0.,0.));
#916=DIRECTION('',(0.,0.,1.));
#917=DIRECTION('',(0.779884483092882,0.625923472184058,0.));
#918=DIRECTION('',(-0.625923472184058,0.779884483092882,0.));
#919=DIRECTION('',(-0.996194698091746,0.0871557427476539,0.));
#920=DIRECTION('',(-0.0871557427476539,-0.996194698091746,0.));
#921=DIRECTION('',(0.,0.,1.));
#922=DIRECTION('',(0.,0.,1.));
#923=DIRECTION('',(1.,0.,0.));
#924=DIRECTION('',(0.,0.,1.));
#925=DIRECTION('',(0.,0.,1.));
#926=DIRECTION('',(1.,0.,0.));
#927=DIRECTION('',(0.,0.,1.));
#928=DIRECTION('',(1.,0.,0.));
#929=CARTESIAN_POINT('',(0.,0.,0.));
#930=CARTESIAN_POINT('',(0.00049452200316987,-0.0113892689839331,-1.00000000000002E-6));
#931=CARTESIAN_POINT('',(0.000472832441627336,-0.0108897396425325,-1.00000000000002E-6));
#932=CARTESIAN_POINT('',(0.000472832441627336,-0.0108897396425325,0.));
#933=CARTESIAN_POINT('',(0.000472832441627336,-0.0108897396425325,0.0005));
#934=CARTESIAN_POINT('',(0.00049452200316987,-0.0113892689839331,0.));
#935=CARTESIAN_POINT('',(0.000992619352215745,-0.0113456911125593,0.));
#936=CARTESIAN_POINT('',(0.000992619352215745,-0.0113456911125593,-1.00000000000002E-6));
#937=CARTESIAN_POINT('',(0.000992619352215745,-0.0113456911125593,0.0005));
#938=CARTESIAN_POINT('',(0.00049452200316987,-0.0113892689839331,0.0005));
#939=CARTESIAN_POINT('',(0.,0.,0.0005));
#940=CARTESIAN_POINT('',(0.,0.,0.));
#941=CARTESIAN_POINT('',(0.00757367401342711,-0.00943660224542387,0.));
#942=CARTESIAN_POINT('',(0.00776317902804415,-0.00928132810423893,0.));
#943=CARTESIAN_POINT('',(0.00776317902804415,-0.00928132810423893,-1.00000000000002E-6));
#944=CARTESIAN_POINT('',(0.00776317902804415,-0.00928132810423893,0.0005));
#945=CARTESIAN_POINT('',(0.,0.,0.0005));
#946=CARTESIAN_POINT('',(0.00757367401342711,-0.00943660224542387,0.0005));
#947=CARTESIAN_POINT('',(0.00757367401342711,-0.00943660224542387,-1.00000000000002E-6));
#948=CARTESIAN_POINT('',(0.,0.,0.0005));
#949=CARTESIAN_POINT('',(0.,0.,0.));
#950=CARTESIAN_POINT('',(0.0055871582201439,-0.0107328310814565,0.));
#951=CARTESIAN_POINT('',(0.00580331443124744,-0.0106175110836804,0.));
#952=CARTESIAN_POINT('',(0.00580331443124744,-0.0106175110836804,-1.00000000000002E-6));
#953=CARTESIAN_POINT('',(0.00580331443124744,-0.0106175110836804,0.0005));
#954=CARTESIAN_POINT('',(0.,0.,0.0005));
#955=CARTESIAN_POINT('',(0.0055871582201439,-0.0107328310814565,0.0005));
#956=CARTESIAN_POINT('',(0.0055871582201439,-0.0107328310814565,-1.00000000000002E-6));
#957=CARTESIAN_POINT('',(0.,0.,0.0005));
#958=CARTESIAN_POINT('',(0.,0.,0.));
#959=CARTESIAN_POINT('',(0.00338593106977499,-0.0116166032380697,0.));
#960=CARTESIAN_POINT('',(0.00362043171539412,-0.0115456690665448,0.));
#961=CARTESIAN_POINT('',(0.00362043171539412,-0.0115456690665448,-1.00000000000002E-6));
#962=CARTESIAN_POINT('',(0.00362043171539412,-0.0115456690665448,0.0005));
#963=CARTESIAN_POINT('',(0.,0.,0.0005));
#964=CARTESIAN_POINT('',(0.00338593106977499,-0.0116166032380697,0.0005));
#965=CARTESIAN_POINT('',(0.00338593106977499,-0.0116166032380697,-1.00000000000002E-6));
#966=CARTESIAN_POINT('',(0.,0.,0.0005));
#967=CARTESIAN_POINT('',(0.,0.,0.));
#968=CARTESIAN_POINT('',(0.00105458448724664,-0.0120539558469101,0.));
#969=CARTESIAN_POINT('',(0.0012984178390797,-0.0120301334620676,0.));
#970=CARTESIAN_POINT('',(0.0012984178390797,-0.0120301334620676,-1.00000000000002E-6));
#971=CARTESIAN_POINT('',(0.0012984178390797,-0.0120301334620676,0.0005));
#972=CARTESIAN_POINT('',(0.,0.,0.0005));
#973=CARTESIAN_POINT('',(0.00105458448724664,-0.0120539558469101,0.0005));
#974=CARTESIAN_POINT('',(0.00105458448724664,-0.0120539558469101,-1.00000000000002E-6));
#975=CARTESIAN_POINT('',(0.,0.,0.0005));
#976=CARTESIAN_POINT('',(0.,0.,0.));
#977=CARTESIAN_POINT('',(0.00577494588719236,-0.0043,0.));
#978=CARTESIAN_POINT('',(0.00553923133011576,-0.0045996647999027,0.));
#979=CARTESIAN_POINT('',(0.00553923133011576,-0.0045996647999027,0.0005));
#980=CARTESIAN_POINT('',(0.00553923133011576,-0.0045996647999027,0.0005));
#981=CARTESIAN_POINT('',(0.,0.,0.0005));
#982=CARTESIAN_POINT('',(0.00577494588719236,-0.0043,0.0005));
#983=CARTESIAN_POINT('',(0.00577494588719236,-0.0043,0.0005));
#984=CARTESIAN_POINT('',(0.00553923133011576,-0.0045996647999027,0.0005));
#985=CARTESIAN_POINT('',(0.00553923133011576,-0.0045996647999027,0.));
#986=CARTESIAN_POINT('',(0.00659,-0.00641964952314377,0.));
#987=CARTESIAN_POINT('',(0.00659,-0.00641964952314377,0.0005));
#988=CARTESIAN_POINT('',(0.00659,-0.00641964952314377,0.0005));
#989=CARTESIAN_POINT('',(0.00553923133011576,-0.0045996647999027,0.0005));
#990=CARTESIAN_POINT('',(0.,0.,0.0005));
#991=CARTESIAN_POINT('',(0.,0.,0.));
#992=CARTESIAN_POINT('',(0.005,-0.00772269383052313,0.));
#993=CARTESIAN_POINT('',(0.005,-0.00772269383052313,0.0005));
#994=CARTESIAN_POINT('',(0.005,-0.00772269383052313,0.0005));
#995=CARTESIAN_POINT('',(0.,0.,0.0005));
#996=CARTESIAN_POINT('',(0.005,-0.00772269383052313,0.0005));
#997=CARTESIAN_POINT('',(0.005,-0.00772269383052313,0.));
#998=CARTESIAN_POINT('',(0.005,-0.00784155596804614,0.));
#999=CARTESIAN_POINT('',(0.005,-0.00784155596804614,0.0005));
#1000=CARTESIAN_POINT('',(0.005,-0.00784155596804614,0.0005));
#1001=CARTESIAN_POINT('',(0.005,-0.00772269383052313,0.0005));
#1002=CARTESIAN_POINT('',(0.,0.,0.0005));
#1003=CARTESIAN_POINT('',(0.,0.,0.));
#1004=CARTESIAN_POINT('',(-0.005,-0.00784155596804614,0.));
#1005=CARTESIAN_POINT('',(-0.005,-0.00784155596804614,0.0005));
#1006=CARTESIAN_POINT('',(-0.005,-0.00784155596804614,0.0005));
#1007=CARTESIAN_POINT('',(0.,0.,0.0005));
#1008=CARTESIAN_POINT('',(-0.005,-0.00772269383052313,0.0005));
#1009=CARTESIAN_POINT('',(-0.005,-0.00772269383052313,0.));
#1010=CARTESIAN_POINT('',(-0.005,-0.00772269383052313,0.));
#1011=CARTESIAN_POINT('',(-0.005,-0.00772269383052313,0.0005));
#1012=CARTESIAN_POINT('',(-0.005,-0.00772269383052313,0.0005));
#1013=CARTESIAN_POINT('',(-0.005,-0.00772269383052313,0.0005));
#1014=CARTESIAN_POINT('',(0.,0.,0.0005));
#1015=CARTESIAN_POINT('',(0.,0.,0.));
#1016=CARTESIAN_POINT('',(-0.00659,-0.00641964952314377,0.));
#1017=CARTESIAN_POINT('',(-0.00659,-0.00641964952314377,0.0005));
#1018=CARTESIAN_POINT('',(-0.00659,-0.00641964952314377,0.0005));
#1019=CARTESIAN_POINT('',(0.,0.,0.0005));
#1020=CARTESIAN_POINT('',(-0.00553923133011576,-0.0045996647999027,0.0005));
#1021=CARTESIAN_POINT('',(-0.00553923133011576,-0.0045996647999027,0.));
#1022=CARTESIAN_POINT('',(-0.00553923133011576,-0.0045996647999027,0.));
#1023=CARTESIAN_POINT('',(-0.00553923133011576,-0.0045996647999027,0.0005));
#1024=CARTESIAN_POINT('',(-0.00553923133011576,-0.0045996647999027,0.0005));
#1025=CARTESIAN_POINT('',(-0.00553923133011576,-0.0045996647999027,0.0005));
#1026=CARTESIAN_POINT('',(0.,0.,0.0005));
#1027=CARTESIAN_POINT('',(0.,0.,0.));
#1028=CARTESIAN_POINT('',(-0.00577494588719236,-0.0043,0.));
#1029=CARTESIAN_POINT('',(-0.00577494588719236,-0.0043,0.0005));
#1030=CARTESIAN_POINT('',(-0.00577494588719236,-0.0043,0.0005));
#1031=CARTESIAN_POINT('',(0.,0.,0.0005));
#1032=CARTESIAN_POINT('',(-0.00826022314597606,-0.0043,0.0005));
#1033=CARTESIAN_POINT('',(-0.00826022314597606,-0.0043,0.));
#1034=CARTESIAN_POINT('',(-0.00826022314597606,-0.0043,0.));
#1035=CARTESIAN_POINT('',(-0.00826022314597606,-0.0043,0.0005));
#1036=CARTESIAN_POINT('',(-0.00826022314597606,-0.0043,0.0005));
#1037=CARTESIAN_POINT('',(-0.00826022314597606,-0.0043,0.0005));
#1038=CARTESIAN_POINT('',(-0.00826022314597606,-0.0043,0.0005));
#1039=CARTESIAN_POINT('',(-0.00826022314597606,-0.0043,0.));
#1040=CARTESIAN_POINT('',(-0.00966841808164263,-0.00503305988426184,0.));
#1041=CARTESIAN_POINT('',(-0.00966841808164263,-0.00503305988426184,-1.00000000000002E-6));
#1042=CARTESIAN_POINT('',(-0.00966841808164263,-0.00503305988426184,0.0005));
#1043=CARTESIAN_POINT('',(-0.00826022314597606,-0.0043,0.0005));
#1044=CARTESIAN_POINT('',(0.00826022314597607,-0.0043,0.0005));
#1045=CARTESIAN_POINT('',(0.00826022314597607,-0.0043,0.0005));
#1046=CARTESIAN_POINT('',(0.00873649386454358,-0.00454793084322885,0.0005));
#1047=CARTESIAN_POINT('',(0.00826022314597607,-0.0043,0.0005));
#1048=CARTESIAN_POINT('',(0.00873649386454358,-0.00454793084322885,0.0005));
#1049=CARTESIAN_POINT('',(0.00873649386454358,-0.00454793084322885,0.));
#1050=CARTESIAN_POINT('',(0.00826022314597607,-0.0043,0.));
#1051=CARTESIAN_POINT('',(0.00826022314597607,-0.0043,0.));
#1052=CARTESIAN_POINT('',(0.00826022314597607,-0.0043,0.0005));
#1053=CARTESIAN_POINT('',(0.00577494588719236,-0.0043,0.0005));
#1054=CARTESIAN_POINT('',(0.00577494588719236,-0.0043,0.));
#1055=CARTESIAN_POINT('',(0.00577494588719236,-0.0043,0.0005));
#1056=CARTESIAN_POINT('',(0.,0.,0.0005));
#1057=CARTESIAN_POINT('',(0.,0.,0.0005));
#1058=CARTESIAN_POINT('',(0.000992619352215745,-0.0113456911125593,0.0005));
#1059=CARTESIAN_POINT('',(0.0012984178390797,-0.0120301334620676,0.0005));
#1060=CARTESIAN_POINT('',(0.0023170138136019,-0.0107609891810602,0.0005));
#1061=CARTESIAN_POINT('',(0.00270695605514835,-0.0110739509171522,0.0005));
#1062=CARTESIAN_POINT('',(0.00318698098234131,-0.0109340364101367,0.0005));
#1063=CARTESIAN_POINT('',(0.00318698098234131,-0.0109340364101367,0.0005));
#1064=CARTESIAN_POINT('',(0.00362043171539412,-0.0115456690665448,0.0005));
#1065=CARTESIAN_POINT('',(0.00437185788741681,-0.0101021928203508,0.0005));
#1066=CARTESIAN_POINT('',(0.00481536330400592,-0.0103330671269683,0.0005));
#1067=CARTESIAN_POINT('',(0.00525886872059503,-0.0101021928203508,0.0005));
#1068=CARTESIAN_POINT('',(0.00525886872059503,-0.0101021928203508,0.0005));
#1069=CARTESIAN_POINT('',(0.00580331443124744,-0.0106175110836804,0.0005));
#1070=CARTESIAN_POINT('',(0.00625869391438443,-0.00905517485493036,0.0005));
#1071=CARTESIAN_POINT('',(0.00673871884157739,-0.00919508936194586,0.0005));
#1072=CARTESIAN_POINT('',(0.00712866108312383,-0.00888212762585383,0.0005));
#1073=CARTESIAN_POINT('',(0.00712866108312383,-0.00888212762585383,0.0005));
#1074=CARTESIAN_POINT('',(0.00776317902804415,-0.00928132810423893,0.0005));
#1075=CARTESIAN_POINT('',(0.00791999592597633,-0.00748890275891725,0.0005));
#1076=CARTESIAN_POINT('',(0.,0.,0.0005));
#1077=CARTESIAN_POINT('',(0.00911057810497608,-0.00598392568412496,0.0005));
#1078=CARTESIAN_POINT('',(0.00827474525130855,-0.00543494167640707,0.0005));
#1079=CARTESIAN_POINT('',(0.,0.,0.));
#1080=CARTESIAN_POINT('',(0.,0.,0.));
#1081=CARTESIAN_POINT('',(0.00827474525130855,-0.00543494167640707,0.));
#1082=CARTESIAN_POINT('',(0.00911057810497608,-0.00598392568412496,0.));
#1083=CARTESIAN_POINT('',(0.,0.,0.));
#1084=CARTESIAN_POINT('',(0.00791999592597633,-0.00748890275891725,0.));
#1085=CARTESIAN_POINT('',(0.00776317902804415,-0.00928132810423893,0.));
#1086=CARTESIAN_POINT('',(0.00712866108312383,-0.00888212762585383,0.));
#1087=CARTESIAN_POINT('',(0.00712866108312383,-0.00888212762585383,0.));
#1088=CARTESIAN_POINT('',(0.00673871884157739,-0.00919508936194586,0.));
#1089=CARTESIAN_POINT('',(0.00625869391438443,-0.00905517485493036,0.));
#1090=CARTESIAN_POINT('',(0.00580331443124744,-0.0106175110836804,0.));
#1091=CARTESIAN_POINT('',(0.00525886872059503,-0.0101021928203508,0.));
#1092=CARTESIAN_POINT('',(0.00525886872059503,-0.0101021928203508,0.));
#1093=CARTESIAN_POINT('',(0.00481536330400592,-0.0103330671269683,0.));
#1094=CARTESIAN_POINT('',(0.00437185788741681,-0.0101021928203508,0.));
#1095=CARTESIAN_POINT('',(0.00362043171539412,-0.0115456690665448,0.));
#1096=CARTESIAN_POINT('',(0.00318698098234131,-0.0109340364101367,0.));
#1097=CARTESIAN_POINT('',(0.00318698098234131,-0.0109340364101367,0.));
#1098=CARTESIAN_POINT('',(0.00270695605514835,-0.0110739509171522,0.));
#1099=CARTESIAN_POINT('',(0.0023170138136019,-0.0107609891810602,0.));
#1100=CARTESIAN_POINT('',(0.0012984178390797,-0.0120301334620676,0.));
#1101=CARTESIAN_POINT('',(0.000992619352215745,-0.0113456911125593,0.));
#1102=CARTESIAN_POINT('',(0.000992619352215745,-0.0113456911125593,-1.00000000000002E-6));
#1103=CARTESIAN_POINT('',(0.0012984178390797,-0.0120301334620676,-1.00000000000002E-6));
#1104=CARTESIAN_POINT('',(0.0023170138136019,-0.0107609891810602,-1.00000000000002E-6));
#1105=CARTESIAN_POINT('',(0.00270695605514835,-0.0110739509171522,-1.00000000000002E-6));
#1106=CARTESIAN_POINT('',(0.00318698098234131,-0.0109340364101367,-1.00000000000002E-6));
#1107=CARTESIAN_POINT('',(0.00318698098234131,-0.0109340364101367,-1.00000000000002E-6));
#1108=CARTESIAN_POINT('',(0.00362043171539412,-0.0115456690665448,-1.00000000000002E-6));
#1109=CARTESIAN_POINT('',(0.00437185788741681,-0.0101021928203508,-1.00000000000002E-6));
#1110=CARTESIAN_POINT('',(0.00481536330400592,-0.0103330671269683,-1.00000000000002E-6));
#1111=CARTESIAN_POINT('',(0.00525886872059503,-0.0101021928203508,-1.00000000000002E-6));
#1112=CARTESIAN_POINT('',(0.00525886872059503,-0.0101021928203508,-1.00000000000002E-6));
#1113=CARTESIAN_POINT('',(0.00580331443124744,-0.0106175110836804,-1.00000000000002E-6));
#1114=CARTESIAN_POINT('',(0.00625869391438443,-0.00905517485493036,-1.00000000000002E-6));
#1115=CARTESIAN_POINT('',(0.00673871884157739,-0.00919508936194586,-1.00000000000002E-6));
#1116=CARTESIAN_POINT('',(0.00712866108312383,-0.00888212762585383,-1.00000000000002E-6));
#1117=CARTESIAN_POINT('',(0.00712866108312383,-0.00888212762585383,-1.00000000000002E-6));
#1118=CARTESIAN_POINT('',(0.00776317902804415,-0.00928132810423893,-1.00000000000002E-6));
#1119=CARTESIAN_POINT('',(0.00791999592597633,-0.00748890275891725,-1.00000000000002E-6));
#1120=CARTESIAN_POINT('',(0.,0.,-1.00000000000002E-6));
#1121=CARTESIAN_POINT('',(0.00911057810497608,-0.00598392568412496,-1.00000000000002E-6));
#1122=CARTESIAN_POINT('',(0.00827474525130855,-0.00543494167640707,-1.00000000000002E-6));
#1123=CARTESIAN_POINT('',(0.,0.,-1.00000000000002E-6));
#1124=(
GEOMETRIC_REPRESENTATION_CONTEXT(3)
GLOBAL_UNCERTAINTY_ASSIGNED_CONTEXT((#1125))
GLOBAL_UNIT_ASSIGNED_CONTEXT((#1128,#1127,#1126))
REPRESENTATION_CONTEXT('id2','TOP_LEVEL_ASSEMBLY_PART')
);
#1125=UNCERTAINTY_MEASURE_WITH_UNIT(LENGTH_MEASURE(1.E-8),#1128,
'DISTANCE_ACCURACY_VALUE','Maximum Tolerance applied to model');
#1126=(
NAMED_UNIT(*)
SI_UNIT($,.STERADIAN.)
SOLID_ANGLE_UNIT()
);
#1127=(
NAMED_UNIT(*)
PLANE_ANGLE_UNIT()
SI_UNIT($,.RADIAN.)
);
#1128=(
LENGTH_UNIT()
NAMED_UNIT(*)
SI_UNIT($,.METRE.)
);
#1129=PRODUCT_DEFINITION_SHAPE('','',#1130);
#1130=PRODUCT_DEFINITION('','',#1132,#1131);
#1131=PRODUCT_DEFINITION_CONTEXT('',#1138,'design');
#1132=PRODUCT_DEFINITION_FORMATION_WITH_SPECIFIED_SOURCE('','',#1134,
 .NOT_KNOWN.);
#1133=PRODUCT_RELATED_PRODUCT_CATEGORY('','',(#1134));
#1134=PRODUCT('id2','id2','id2',(#1136));
#1135=PRODUCT_CATEGORY('','');
#1136=PRODUCT_CONTEXT('',#1138,'mechanical');
#1137=APPLICATION_PROTOCOL_DEFINITION('international standard',
'ap242_managed_model_based_3d_engineering',2020,#1138);
#1138=APPLICATION_CONTEXT('managed model based 3d engineering');
ENDSEC;
END-ISO-10303-21;
