ISO-10303-21;
HEADER;
/* Generated by software containing ST-Developer
 * from STEP Tools, Inc. (www.steptools.com) 
 */
/* OPTION: using custom renumber hook */

FILE_DESCRIPTION(
/* description */ ('STEP AP242 Edition 2',
'CAx-IF Rec.Pracs.---Representation and Presentation of Product Manufa
cturing Information (PMI)---4.0---2014-10-13',
'CAx-IF Rec.Pracs.---3D Tessellated Geometry---0.4---2014-09-14','2;1',
'CAx-IF Rec.Pracs.---User Defined Attributes---1.5---2016-08-15'),
/* implementation_level */ '2;1');

FILE_NAME(
/* name */ '10093',
/* time_stamp */ '2026-07-13T04:56:37Z',
/* author */ (''),
/* organization */ (''),
/* preprocessor_version */ 'ST-DEVELOPER v20',
/* originating_system */ 'ONSHAPE BY PTC INC, 1.217',
/* authorisation */ '  ');

FILE_SCHEMA (('AP242_MANAGED_MODEL_BASED_3D_ENGINEERING_MIM_LF { 1 0 10303 442 3 1 4 }'));
ENDSEC;

DATA;
#10=SHAPE_REPRESENTATION_RELATIONSHIP('','',#111,#11);
#11=ADVANCED_BREP_SHAPE_REPRESENTATION('',(#109),#194);
#12=CONICAL_SURFACE('',#128,0.00175,0.785398163397453);
#13=CONICAL_SURFACE('',#129,0.0008,0.785398163397448);
#14=VERTEX_LOOP('',#50);
#15=VERTEX_LOOP('',#53);
#16=SPHERICAL_SURFACE('',#124,0.003);
#17=CYLINDRICAL_SURFACE('',#116,0.001);
#18=CYLINDRICAL_SURFACE('',#123,0.00125);
#19=CYLINDRICAL_SURFACE('',#126,0.00175);
#20=ORIENTED_EDGE('',*,*,#36,.F.);
#21=ORIENTED_EDGE('',*,*,#37,.T.);
#22=ORIENTED_EDGE('',*,*,#36,.T.);
#23=ORIENTED_EDGE('',*,*,#38,.F.);
#24=ORIENTED_EDGE('',*,*,#39,.T.);
#25=ORIENTED_EDGE('',*,*,#38,.T.);
#26=ORIENTED_EDGE('',*,*,#40,.T.);
#27=ORIENTED_EDGE('',*,*,#41,.F.);
#28=ORIENTED_EDGE('',*,*,#41,.T.);
#29=ORIENTED_EDGE('',*,*,#37,.F.);
#30=ORIENTED_EDGE('',*,*,#42,.T.);
#31=ORIENTED_EDGE('',*,*,#43,.T.);
#32=ORIENTED_EDGE('',*,*,#42,.F.);
#33=ORIENTED_EDGE('',*,*,#40,.F.);
#34=ORIENTED_EDGE('',*,*,#43,.F.);
#35=ORIENTED_EDGE('',*,*,#39,.F.);
#36=EDGE_CURVE('',#44,#44,#54,.T.);
#37=EDGE_CURVE('',#45,#45,#55,.T.);
#38=EDGE_CURVE('',#46,#46,#56,.T.);
#39=EDGE_CURVE('',#47,#47,#57,.T.);
#40=EDGE_CURVE('',#48,#48,#58,.T.);
#41=EDGE_CURVE('',#49,#49,#59,.T.);
#42=EDGE_CURVE('',#51,#51,#60,.T.);
#43=EDGE_CURVE('',#52,#52,#61,.F.);
#44=VERTEX_POINT('',#169);
#45=VERTEX_POINT('',#171);
#46=VERTEX_POINT('',#174);
#47=VERTEX_POINT('',#177);
#48=VERTEX_POINT('',#180);
#49=VERTEX_POINT('',#182);
#50=VERTEX_POINT('',#185);
#51=VERTEX_POINT('',#187);
#52=VERTEX_POINT('',#190);
#53=VERTEX_POINT('',#193);
#54=CIRCLE('',#114,0.001);
#55=CIRCLE('',#115,0.00125);
#56=CIRCLE('',#117,0.001);
#57=CIRCLE('',#119,0.0008);
#58=CIRCLE('',#121,0.00165);
#59=CIRCLE('',#122,0.00125);
#60=CIRCLE('',#125,0.00175);
#61=CIRCLE('',#127,0.00175);
#62=EDGE_LOOP('',(#20));
#63=EDGE_LOOP('',(#21));
#64=EDGE_LOOP('',(#22));
#65=EDGE_LOOP('',(#23));
#66=EDGE_LOOP('',(#24));
#67=EDGE_LOOP('',(#25));
#68=EDGE_LOOP('',(#26));
#69=EDGE_LOOP('',(#27));
#70=EDGE_LOOP('',(#28));
#71=EDGE_LOOP('',(#29));
#72=EDGE_LOOP('',(#30));
#73=EDGE_LOOP('',(#31));
#74=EDGE_LOOP('',(#32));
#75=EDGE_LOOP('',(#33));
#76=EDGE_LOOP('',(#34));
#77=EDGE_LOOP('',(#35));
#78=FACE_BOUND('',#62,.T.);
#79=FACE_BOUND('',#63,.T.);
#80=FACE_BOUND('',#64,.T.);
#81=FACE_BOUND('',#65,.T.);
#82=FACE_BOUND('',#66,.T.);
#83=FACE_BOUND('',#67,.T.);
#84=FACE_BOUND('',#68,.T.);
#85=FACE_BOUND('',#69,.T.);
#86=FACE_BOUND('',#70,.T.);
#87=FACE_BOUND('',#71,.T.);
#88=FACE_BOUND('',#14,.T.);
#89=FACE_BOUND('',#72,.T.);
#90=FACE_BOUND('',#73,.T.);
#91=FACE_BOUND('',#74,.T.);
#92=FACE_BOUND('',#75,.T.);
#93=FACE_BOUND('',#76,.T.);
#94=FACE_BOUND('',#15,.T.);
#95=FACE_BOUND('',#77,.T.);
#96=PLANE('',#113);
#97=PLANE('',#118);
#98=PLANE('',#120);
#99=ADVANCED_FACE('',(#78,#79),#96,.T.);
#100=ADVANCED_FACE('',(#80,#81),#17,.T.);
#101=ADVANCED_FACE('',(#82,#83),#97,.F.);
#102=ADVANCED_FACE('',(#84,#85),#98,.T.);
#103=ADVANCED_FACE('',(#86,#87),#18,.T.);
#104=ADVANCED_FACE('',(#88,#89),#16,.T.);
#105=ADVANCED_FACE('',(#90,#91),#19,.T.);
#106=ADVANCED_FACE('',(#92,#93),#12,.T.);
#107=ADVANCED_FACE('',(#94,#95),#13,.F.);
#108=CLOSED_SHELL('',(#99,#100,#101,#102,#103,#104,#105,#106,#107));
#109=MANIFOLD_SOLID_BREP('',#108);
#110=SHAPE_DEFINITION_REPRESENTATION(#199,#111);
#111=SHAPE_REPRESENTATION('id2',(#112),#194);
#112=AXIS2_PLACEMENT_3D('',#166,#130,#131);
#113=AXIS2_PLACEMENT_3D('',#167,#132,#133);
#114=AXIS2_PLACEMENT_3D('',#168,#134,#135);
#115=AXIS2_PLACEMENT_3D('',#170,#136,#137);
#116=AXIS2_PLACEMENT_3D('',#172,#138,#139);
#117=AXIS2_PLACEMENT_3D('',#173,#140,#141);
#118=AXIS2_PLACEMENT_3D('',#175,#142,#143);
#119=AXIS2_PLACEMENT_3D('',#176,#144,#145);
#120=AXIS2_PLACEMENT_3D('',#178,#146,#147);
#121=AXIS2_PLACEMENT_3D('',#179,#148,#149);
#122=AXIS2_PLACEMENT_3D('',#181,#150,#151);
#123=AXIS2_PLACEMENT_3D('',#183,#152,#153);
#124=AXIS2_PLACEMENT_3D('',#184,#154,#155);
#125=AXIS2_PLACEMENT_3D('',#186,#156,#157);
#126=AXIS2_PLACEMENT_3D('',#188,#158,#159);
#127=AXIS2_PLACEMENT_3D('',#189,#160,#161);
#128=AXIS2_PLACEMENT_3D('',#191,#162,#163);
#129=AXIS2_PLACEMENT_3D('',#192,#164,#165);
#130=DIRECTION('',(0.,0.,1.));
#131=DIRECTION('',(1.,0.,0.));
#132=DIRECTION('',(0.,0.,-1.));
#133=DIRECTION('',(-1.,0.,0.));
#134=DIRECTION('',(0.,0.,-1.));
#135=DIRECTION('',(-1.,0.,0.));
#136=DIRECTION('',(0.,0.,-1.));
#137=DIRECTION('',(-1.,0.,0.));
#138=DIRECTION('',(0.,0.,-1.));
#139=DIRECTION('',(-1.,0.,0.));
#140=DIRECTION('',(0.,0.,-1.));
#141=DIRECTION('',(-1.,0.,0.));
#142=DIRECTION('',(0.,0.,1.));
#143=DIRECTION('',(1.,0.,0.));
#144=DIRECTION('',(0.,0.,1.));
#145=DIRECTION('',(1.,0.,0.));
#146=DIRECTION('',(0.,0.,-1.));
#147=DIRECTION('',(-1.,0.,0.));
#148=DIRECTION('',(0.,0.,-1.));
#149=DIRECTION('',(-1.,0.,0.));
#150=DIRECTION('',(0.,0.,-1.));
#151=DIRECTION('',(-1.,0.,0.));
#152=DIRECTION('',(0.,0.,-1.));
#153=DIRECTION('',(-1.,0.,0.));
#154=DIRECTION('',(0.,0.,1.));
#155=DIRECTION('',(0.,-1.,0.));
#156=DIRECTION('',(0.,0.,1.));
#157=DIRECTION('',(1.,0.,0.));
#158=DIRECTION('',(0.,0.,1.));
#159=DIRECTION('',(1.,0.,0.));
#160=DIRECTION('',(0.,0.,-1.));
#161=DIRECTION('',(-1.,0.,0.));
#162=DIRECTION('',(0.,0.,1.));
#163=DIRECTION('',(1.,0.,0.));
#164=DIRECTION('',(0.,0.,-1.));
#165=DIRECTION('',(-1.,0.,0.));
#166=CARTESIAN_POINT('',(0.,0.,0.));
#167=CARTESIAN_POINT('',(0.,0.,-0.003));
#168=CARTESIAN_POINT('',(0.,0.,-0.003));
#169=CARTESIAN_POINT('',(-0.001,0.,-0.003));
#170=CARTESIAN_POINT('',(0.,0.,-0.003));
#171=CARTESIAN_POINT('',(-0.00125,0.,-0.003));
#172=CARTESIAN_POINT('',(0.,0.,-0.003));
#173=CARTESIAN_POINT('',(0.,0.,-0.0052));
#174=CARTESIAN_POINT('',(-0.001,0.,-0.0052));
#175=CARTESIAN_POINT('',(0.,0.,-0.0052));
#176=CARTESIAN_POINT('',(0.,0.,-0.0052));
#177=CARTESIAN_POINT('',(0.0008,0.,-0.0052));
#178=CARTESIAN_POINT('',(0.,0.,-0.001));
#179=CARTESIAN_POINT('',(0.,0.,-0.001));
#180=CARTESIAN_POINT('',(-0.00165,0.,-0.001));
#181=CARTESIAN_POINT('',(0.,0.,-0.001));
#182=CARTESIAN_POINT('',(-0.00125,0.,-0.001));
#183=CARTESIAN_POINT('',(0.,0.,-0.001));
#184=CARTESIAN_POINT('',(0.,0.,-0.003));
#185=CARTESIAN_POINT('',(0.,0.,0.));
#186=CARTESIAN_POINT('',(0.,0.,-0.000563301413797759));
#187=CARTESIAN_POINT('',(0.00175,0.,-0.000563301413797759));
#188=CARTESIAN_POINT('',(0.,0.,-0.0052));
#189=CARTESIAN_POINT('',(0.,0.,-0.0009));
#190=CARTESIAN_POINT('',(-0.00175,0.,-0.0009));
#191=CARTESIAN_POINT('',(0.,0.,-0.0009));
#192=CARTESIAN_POINT('',(0.,0.,-0.0052));
#193=CARTESIAN_POINT('',(0.,-8.13316865480925E-23,-0.0044));
#194=(
GEOMETRIC_REPRESENTATION_CONTEXT(3)
GLOBAL_UNCERTAINTY_ASSIGNED_CONTEXT((#195))
GLOBAL_UNIT_ASSIGNED_CONTEXT((#198,#197,#196))
REPRESENTATION_CONTEXT('id2','TOP_LEVEL_ASSEMBLY_PART')
);
#195=UNCERTAINTY_MEASURE_WITH_UNIT(LENGTH_MEASURE(1.E-8),#198,
'DISTANCE_ACCURACY_VALUE','Maximum Tolerance applied to model');
#196=(
NAMED_UNIT(*)
SI_UNIT($,.STERADIAN.)
SOLID_ANGLE_UNIT()
);
#197=(
NAMED_UNIT(*)
PLANE_ANGLE_UNIT()
SI_UNIT($,.RADIAN.)
);
#198=(
LENGTH_UNIT()
NAMED_UNIT(*)
SI_UNIT($,.METRE.)
);
#199=PRODUCT_DEFINITION_SHAPE('','',#200);
#200=PRODUCT_DEFINITION('','',#202,#201);
#201=PRODUCT_DEFINITION_CONTEXT('',#208,'design');
#202=PRODUCT_DEFINITION_FORMATION_WITH_SPECIFIED_SOURCE('','',#204,
 .NOT_KNOWN.);
#203=PRODUCT_RELATED_PRODUCT_CATEGORY('','',(#204));
#204=PRODUCT('id2','id2','id2',(#206));
#205=PRODUCT_CATEGORY('','');
#206=PRODUCT_CONTEXT('',#208,'mechanical');
#207=APPLICATION_PROTOCOL_DEFINITION('international standard',
'ap242_managed_model_based_3d_engineering',2020,#208);
#208=APPLICATION_CONTEXT('managed model based 3d engineering');
ENDSEC;
END-ISO-10303-21;
