ISO-10303-21;
HEADER;
/* Generated by software containing ST-Developer
 * from STEP Tools, Inc. (www.steptools.com) 
 */
/* OPTION: using custom renumber hook */

FILE_DESCRIPTION(
/* description */ ('STEP AP242 Edition 2',
'CAx-IF Rec.Pracs.---Representation and Presentation of Product Manufa
cturing Information (PMI)---4.0---2014-10-13',
'CAx-IF Rec.Pracs.---3D Tessellated Geometry---0.4---2014-09-14','2;1',
'CAx-IF Rec.Pracs.---User Defined Attributes---1.5---2016-08-15'),
/* implementation_level */ '2;1');

FILE_NAME(
/* name */ '10106',
/* time_stamp */ '2026-07-13T05:00:54Z',
/* author */ (''),
/* organization */ (''),
/* preprocessor_version */ 'ST-DEVELOPER v20',
/* originating_system */ 'ONSHAPE BY PTC INC, 1.217',
/* authorisation */ '  ');

FILE_SCHEMA (('AP242_MANAGED_MODEL_BASED_3D_ENGINEERING_MIM_LF { 1 0 10303 442 3 1 4 }'));
ENDSEC;

DATA;
#10=SHAPE_REPRESENTATION_RELATIONSHIP('','',#244,#11);
#11=ADVANCED_BREP_SHAPE_REPRESENTATION('',(#242),#417);
#12=CYLINDRICAL_SURFACE('',#262,0.0118);
#13=CYLINDRICAL_SURFACE('',#263,0.00299999999999996);
#14=CYLINDRICAL_SURFACE('',#264,0.0105);
#15=CYLINDRICAL_SURFACE('',#265,0.001);
#16=CYLINDRICAL_SURFACE('',#268,0.008);
#17=CYLINDRICAL_SURFACE('',#271,0.0001);
#18=CYLINDRICAL_SURFACE('',#272,0.0001);
#19=LINE('',#359,#38);
#20=LINE('',#365,#39);
#21=LINE('',#367,#40);
#22=LINE('',#369,#41);
#23=LINE('',#376,#42);
#24=LINE('',#383,#43);
#25=LINE('',#392,#44);
#26=LINE('',#394,#45);
#27=LINE('',#396,#46);
#28=LINE('',#397,#47);
#29=LINE('',#399,#48);
#30=LINE('',#401,#49);
#31=LINE('',#403,#50);
#32=LINE('',#406,#51);
#33=LINE('',#407,#52);
#34=LINE('',#409,#53);
#35=LINE('',#410,#54);
#36=LINE('',#412,#55);
#37=LINE('',#413,#56);
#38=VECTOR('',#285,1.);
#39=VECTOR('',#290,1.);
#40=VECTOR('',#291,1.);
#41=VECTOR('',#292,1.);
#42=VECTOR('',#299,1.);
#43=VECTOR('',#306,1.);
#44=VECTOR('',#313,1.);
#45=VECTOR('',#314,1.);
#46=VECTOR('',#317,1.);
#47=VECTOR('',#318,1.);
#48=VECTOR('',#321,1.);
#49=VECTOR('',#324,1.);
#50=VECTOR('',#327,1.);
#51=VECTOR('',#332,1.);
#52=VECTOR('',#333,1.);
#53=VECTOR('',#336,1.);
#54=VECTOR('',#337,1.);
#55=VECTOR('',#340,1.);
#56=VECTOR('',#341,1.);
#57=ORIENTED_EDGE('',*,*,#123,.T.);
#58=ORIENTED_EDGE('',*,*,#124,.T.);
#59=ORIENTED_EDGE('',*,*,#125,.T.);
#60=ORIENTED_EDGE('',*,*,#126,.T.);
#61=ORIENTED_EDGE('',*,*,#127,.T.);
#62=ORIENTED_EDGE('',*,*,#128,.F.);
#63=ORIENTED_EDGE('',*,*,#129,.T.);
#64=ORIENTED_EDGE('',*,*,#130,.F.);
#65=ORIENTED_EDGE('',*,*,#131,.F.);
#66=ORIENTED_EDGE('',*,*,#132,.F.);
#67=ORIENTED_EDGE('',*,*,#133,.T.);
#68=ORIENTED_EDGE('',*,*,#134,.F.);
#69=ORIENTED_EDGE('',*,*,#135,.F.);
#70=ORIENTED_EDGE('',*,*,#136,.F.);
#71=ORIENTED_EDGE('',*,*,#137,.F.);
#72=ORIENTED_EDGE('',*,*,#138,.F.);
#73=ORIENTED_EDGE('',*,*,#139,.T.);
#74=ORIENTED_EDGE('',*,*,#140,.T.);
#75=ORIENTED_EDGE('',*,*,#141,.T.);
#76=ORIENTED_EDGE('',*,*,#142,.T.);
#77=ORIENTED_EDGE('',*,*,#143,.T.);
#78=ORIENTED_EDGE('',*,*,#144,.T.);
#79=ORIENTED_EDGE('',*,*,#134,.T.);
#80=ORIENTED_EDGE('',*,*,#145,.F.);
#81=ORIENTED_EDGE('',*,*,#123,.F.);
#82=ORIENTED_EDGE('',*,*,#146,.T.);
#83=ORIENTED_EDGE('',*,*,#138,.T.);
#84=ORIENTED_EDGE('',*,*,#147,.F.);
#85=ORIENTED_EDGE('',*,*,#124,.F.);
#86=ORIENTED_EDGE('',*,*,#145,.T.);
#87=ORIENTED_EDGE('',*,*,#137,.T.);
#88=ORIENTED_EDGE('',*,*,#148,.F.);
#89=ORIENTED_EDGE('',*,*,#125,.F.);
#90=ORIENTED_EDGE('',*,*,#147,.T.);
#91=ORIENTED_EDGE('',*,*,#136,.T.);
#92=ORIENTED_EDGE('',*,*,#149,.F.);
#93=ORIENTED_EDGE('',*,*,#126,.F.);
#94=ORIENTED_EDGE('',*,*,#148,.T.);
#95=ORIENTED_EDGE('',*,*,#135,.T.);
#96=ORIENTED_EDGE('',*,*,#146,.F.);
#97=ORIENTED_EDGE('',*,*,#127,.F.);
#98=ORIENTED_EDGE('',*,*,#149,.T.);
#99=ORIENTED_EDGE('',*,*,#130,.T.);
#100=ORIENTED_EDGE('',*,*,#150,.T.);
#101=ORIENTED_EDGE('',*,*,#139,.F.);
#102=ORIENTED_EDGE('',*,*,#151,.F.);
#103=ORIENTED_EDGE('',*,*,#141,.F.);
#104=ORIENTED_EDGE('',*,*,#152,.T.);
#105=ORIENTED_EDGE('',*,*,#128,.T.);
#106=ORIENTED_EDGE('',*,*,#153,.T.);
#107=ORIENTED_EDGE('',*,*,#143,.F.);
#108=ORIENTED_EDGE('',*,*,#154,.T.);
#109=ORIENTED_EDGE('',*,*,#132,.T.);
#110=ORIENTED_EDGE('',*,*,#155,.T.);
#111=ORIENTED_EDGE('',*,*,#144,.F.);
#112=ORIENTED_EDGE('',*,*,#155,.F.);
#113=ORIENTED_EDGE('',*,*,#131,.T.);
#114=ORIENTED_EDGE('',*,*,#151,.T.);
#115=ORIENTED_EDGE('',*,*,#129,.F.);
#116=ORIENTED_EDGE('',*,*,#152,.F.);
#117=ORIENTED_EDGE('',*,*,#140,.F.);
#118=ORIENTED_EDGE('',*,*,#150,.F.);
#119=ORIENTED_EDGE('',*,*,#133,.F.);
#120=ORIENTED_EDGE('',*,*,#154,.F.);
#121=ORIENTED_EDGE('',*,*,#142,.F.);
#122=ORIENTED_EDGE('',*,*,#153,.F.);
#123=EDGE_CURVE('',#156,#157,#178,.T.);
#124=EDGE_CURVE('',#157,#158,#179,.T.);
#125=EDGE_CURVE('',#158,#159,#180,.T.);
#126=EDGE_CURVE('',#159,#160,#181,.T.);
#127=EDGE_CURVE('',#160,#156,#19,.T.);
#128=EDGE_CURVE('',#161,#162,#182,.T.);
#129=EDGE_CURVE('',#161,#163,#183,.F.);
#130=EDGE_CURVE('',#164,#163,#20,.T.);
#131=EDGE_CURVE('',#165,#164,#21,.T.);
#132=EDGE_CURVE('',#166,#165,#22,.T.);
#133=EDGE_CURVE('',#166,#162,#184,.F.);
#134=EDGE_CURVE('',#167,#168,#185,.T.);
#135=EDGE_CURVE('',#169,#167,#23,.T.);
#136=EDGE_CURVE('',#170,#169,#186,.T.);
#137=EDGE_CURVE('',#171,#170,#187,.T.);
#138=EDGE_CURVE('',#168,#171,#188,.T.);
#139=EDGE_CURVE('',#172,#173,#24,.T.);
#140=EDGE_CURVE('',#173,#174,#189,.T.);
#141=EDGE_CURVE('',#174,#175,#190,.T.);
#142=EDGE_CURVE('',#175,#176,#191,.T.);
#143=EDGE_CURVE('',#176,#177,#25,.T.);
#144=EDGE_CURVE('',#177,#172,#26,.T.);
#145=EDGE_CURVE('',#157,#168,#27,.T.);
#146=EDGE_CURVE('',#156,#167,#28,.T.);
#147=EDGE_CURVE('',#158,#171,#29,.T.);
#148=EDGE_CURVE('',#159,#170,#30,.T.);
#149=EDGE_CURVE('',#160,#169,#31,.T.);
#150=EDGE_CURVE('',#163,#173,#32,.F.);
#151=EDGE_CURVE('',#164,#172,#33,.T.);
#152=EDGE_CURVE('',#174,#161,#34,.F.);
#153=EDGE_CURVE('',#162,#175,#35,.T.);
#154=EDGE_CURVE('',#176,#166,#36,.T.);
#155=EDGE_CURVE('',#165,#177,#37,.T.);
#156=VERTEX_POINT('',#351);
#157=VERTEX_POINT('',#352);
#158=VERTEX_POINT('',#354);
#159=VERTEX_POINT('',#356);
#160=VERTEX_POINT('',#358);
#161=VERTEX_POINT('',#361);
#162=VERTEX_POINT('',#362);
#163=VERTEX_POINT('',#364);
#164=VERTEX_POINT('',#366);
#165=VERTEX_POINT('',#368);
#166=VERTEX_POINT('',#370);
#167=VERTEX_POINT('',#374);
#168=VERTEX_POINT('',#375);
#169=VERTEX_POINT('',#377);
#170=VERTEX_POINT('',#379);
#171=VERTEX_POINT('',#381);
#172=VERTEX_POINT('',#384);
#173=VERTEX_POINT('',#385);
#174=VERTEX_POINT('',#387);
#175=VERTEX_POINT('',#389);
#176=VERTEX_POINT('',#391);
#177=VERTEX_POINT('',#393);
#178=CIRCLE('',#247,0.0118);
#179=CIRCLE('',#248,0.00299999999999996);
#180=CIRCLE('',#249,0.0105);
#181=CIRCLE('',#250,0.001);
#182=CIRCLE('',#251,0.008);
#183=CIRCLE('',#252,0.0001);
#184=CIRCLE('',#253,0.0001);
#185=CIRCLE('',#255,0.0118);
#186=CIRCLE('',#256,0.001);
#187=CIRCLE('',#257,0.0105);
#188=CIRCLE('',#258,0.00299999999999996);
#189=CIRCLE('',#259,0.0001);
#190=CIRCLE('',#260,0.008);
#191=CIRCLE('',#261,0.0001);
#192=EDGE_LOOP('',(#57,#58,#59,#60,#61));
#193=EDGE_LOOP('',(#62,#63,#64,#65,#66,#67));
#194=EDGE_LOOP('',(#68,#69,#70,#71,#72));
#195=EDGE_LOOP('',(#73,#74,#75,#76,#77,#78));
#196=EDGE_LOOP('',(#79,#80,#81,#82));
#197=EDGE_LOOP('',(#83,#84,#85,#86));
#198=EDGE_LOOP('',(#87,#88,#89,#90));
#199=EDGE_LOOP('',(#91,#92,#93,#94));
#200=EDGE_LOOP('',(#95,#96,#97,#98));
#201=EDGE_LOOP('',(#99,#100,#101,#102));
#202=EDGE_LOOP('',(#103,#104,#105,#106));
#203=EDGE_LOOP('',(#107,#108,#109,#110));
#204=EDGE_LOOP('',(#111,#112,#113,#114));
#205=EDGE_LOOP('',(#115,#116,#117,#118));
#206=EDGE_LOOP('',(#119,#120,#121,#122));
#207=FACE_BOUND('',#192,.T.);
#208=FACE_BOUND('',#193,.T.);
#209=FACE_BOUND('',#194,.T.);
#210=FACE_BOUND('',#195,.T.);
#211=FACE_BOUND('',#196,.T.);
#212=FACE_BOUND('',#197,.T.);
#213=FACE_BOUND('',#198,.T.);
#214=FACE_BOUND('',#199,.T.);
#215=FACE_BOUND('',#200,.T.);
#216=FACE_BOUND('',#201,.T.);
#217=FACE_BOUND('',#202,.T.);
#218=FACE_BOUND('',#203,.T.);
#219=FACE_BOUND('',#204,.T.);
#220=FACE_BOUND('',#205,.T.);
#221=FACE_BOUND('',#206,.T.);
#222=PLANE('',#246);
#223=PLANE('',#254);
#224=PLANE('',#266);
#225=PLANE('',#267);
#226=PLANE('',#269);
#227=PLANE('',#270);
#228=ADVANCED_FACE('',(#207,#208),#222,.T.);
#229=ADVANCED_FACE('',(#209,#210),#223,.F.);
#230=ADVANCED_FACE('',(#211),#12,.T.);
#231=ADVANCED_FACE('',(#212),#13,.F.);
#232=ADVANCED_FACE('',(#213),#14,.T.);
#233=ADVANCED_FACE('',(#214),#15,.F.);
#234=ADVANCED_FACE('',(#215),#224,.F.);
#235=ADVANCED_FACE('',(#216),#225,.T.);
#236=ADVANCED_FACE('',(#217),#16,.F.);
#237=ADVANCED_FACE('',(#218),#226,.T.);
#238=ADVANCED_FACE('',(#219),#227,.T.);
#239=ADVANCED_FACE('',(#220),#17,.F.);
#240=ADVANCED_FACE('',(#221),#18,.F.);
#241=CLOSED_SHELL('',(#228,#229,#230,#231,#232,#233,#234,#235,#236,#237,
#238,#239,#240));
#242=MANIFOLD_SOLID_BREP('',#241);
#243=SHAPE_DEFINITION_REPRESENTATION(#422,#244);
#244=SHAPE_REPRESENTATION('id2',(#245),#417);
#245=AXIS2_PLACEMENT_3D('',#348,#273,#274);
#246=AXIS2_PLACEMENT_3D('',#349,#275,#276);
#247=AXIS2_PLACEMENT_3D('',#350,#277,#278);
#248=AXIS2_PLACEMENT_3D('',#353,#279,#280);
#249=AXIS2_PLACEMENT_3D('',#355,#281,#282);
#250=AXIS2_PLACEMENT_3D('',#357,#283,#284);
#251=AXIS2_PLACEMENT_3D('',#360,#286,#287);
#252=AXIS2_PLACEMENT_3D('',#363,#288,#289);
#253=AXIS2_PLACEMENT_3D('',#371,#293,#294);
#254=AXIS2_PLACEMENT_3D('',#372,#295,#296);
#255=AXIS2_PLACEMENT_3D('',#373,#297,#298);
#256=AXIS2_PLACEMENT_3D('',#378,#300,#301);
#257=AXIS2_PLACEMENT_3D('',#380,#302,#303);
#258=AXIS2_PLACEMENT_3D('',#382,#304,#305);
#259=AXIS2_PLACEMENT_3D('',#386,#307,#308);
#260=AXIS2_PLACEMENT_3D('',#388,#309,#310);
#261=AXIS2_PLACEMENT_3D('',#390,#311,#312);
#262=AXIS2_PLACEMENT_3D('',#395,#315,#316);
#263=AXIS2_PLACEMENT_3D('',#398,#319,#320);
#264=AXIS2_PLACEMENT_3D('',#400,#322,#323);
#265=AXIS2_PLACEMENT_3D('',#402,#325,#326);
#266=AXIS2_PLACEMENT_3D('',#404,#328,#329);
#267=AXIS2_PLACEMENT_3D('',#405,#330,#331);
#268=AXIS2_PLACEMENT_3D('',#408,#334,#335);
#269=AXIS2_PLACEMENT_3D('',#411,#338,#339);
#270=AXIS2_PLACEMENT_3D('',#414,#342,#343);
#271=AXIS2_PLACEMENT_3D('',#415,#344,#345);
#272=AXIS2_PLACEMENT_3D('',#416,#346,#347);
#273=DIRECTION('',(0.,0.,1.));
#274=DIRECTION('',(1.,0.,0.));
#275=DIRECTION('',(0.,1.,0.));
#276=DIRECTION('',(0.,0.,1.));
#277=DIRECTION('',(0.,1.,0.));
#278=DIRECTION('',(0.,0.,1.));
#279=DIRECTION('',(0.,-1.,0.));
#280=DIRECTION('',(0.,0.,-1.));
#281=DIRECTION('',(0.,1.,0.));
#282=DIRECTION('',(0.,0.,1.));
#283=DIRECTION('',(0.,-1.,0.));
#284=DIRECTION('',(0.,0.,-1.));
#285=DIRECTION('',(-0.920504853452439,0.,0.390731128489277));
#286=DIRECTION('',(0.,1.,0.));
#287=DIRECTION('',(0.,0.,1.));
#288=DIRECTION('',(0.,1.,0.));
#289=DIRECTION('',(0.,0.,1.));
#290=DIRECTION('',(1.5966257899515E-16,0.,-1.));
#291=DIRECTION('',(-1.,0.,0.));
#292=DIRECTION('',(4.78987736985451E-16,0.,1.));
#293=DIRECTION('',(0.,1.,0.));
#294=DIRECTION('',(0.,0.,1.));
#295=DIRECTION('',(0.,1.,0.));
#296=DIRECTION('',(0.,0.,1.));
#297=DIRECTION('',(0.,1.,0.));
#298=DIRECTION('',(0.,0.,1.));
#299=DIRECTION('',(-0.920504853452439,0.,0.390731128489277));
#300=DIRECTION('',(0.,-1.,0.));
#301=DIRECTION('',(0.,0.,-1.));
#302=DIRECTION('',(0.,1.,0.));
#303=DIRECTION('',(0.,0.,1.));
#304=DIRECTION('',(0.,-1.,0.));
#305=DIRECTION('',(0.,0.,-1.));
#306=DIRECTION('',(1.5966257899515E-16,0.,-1.));
#307=DIRECTION('',(0.,1.,0.));
#308=DIRECTION('',(0.,0.,1.));
#309=DIRECTION('',(0.,1.,0.));
#310=DIRECTION('',(0.,0.,1.));
#311=DIRECTION('',(0.,1.,0.));
#312=DIRECTION('',(0.,0.,1.));
#313=DIRECTION('',(4.78987736985451E-16,0.,1.));
#314=DIRECTION('',(-1.,0.,0.));
#315=DIRECTION('',(0.,-1.,0.));
#316=DIRECTION('',(0.,0.,-1.));
#317=DIRECTION('',(0.,-1.,0.));
#318=DIRECTION('',(0.,-1.,0.));
#319=DIRECTION('',(0.,-1.,0.));
#320=DIRECTION('',(0.,0.,-1.));
#321=DIRECTION('',(0.,-1.,0.));
#322=DIRECTION('',(0.,-1.,0.));
#323=DIRECTION('',(0.,0.,-1.));
#324=DIRECTION('',(0.,-1.,0.));
#325=DIRECTION('',(0.,-1.,0.));
#326=DIRECTION('',(0.,0.,-1.));
#327=DIRECTION('',(0.,-1.,0.));
#328=DIRECTION('',(0.390731128489277,0.,0.920504853452439));
#329=DIRECTION('',(0.920504853452439,0.,-0.390731128489277));
#330=DIRECTION('',(-1.,0.,-1.5966257899515E-16));
#331=DIRECTION('',(-1.5966257899515E-16,0.,1.));
#332=DIRECTION('',(0.,1.,0.));
#333=DIRECTION('',(0.,-1.,0.));
#334=DIRECTION('',(0.,-1.,0.));
#335=DIRECTION('',(0.,0.,-1.));
#336=DIRECTION('',(0.,-1.,0.));
#337=DIRECTION('',(0.,-1.,0.));
#338=DIRECTION('',(1.,0.,-4.78987736985451E-16));
#339=DIRECTION('',(-4.78987736985451E-16,0.,-1.));
#340=DIRECTION('',(0.,1.,0.));
#341=DIRECTION('',(0.,-1.,0.));
#342=DIRECTION('',(0.,0.,1.));
#343=DIRECTION('',(1.,0.,0.));
#344=DIRECTION('',(0.,-1.,0.));
#345=DIRECTION('',(0.,0.,-1.));
#346=DIRECTION('',(0.,-1.,0.));
#347=DIRECTION('',(0.,0.,-1.));
#348=CARTESIAN_POINT('',(0.,0.,0.));
#349=CARTESIAN_POINT('',(0.,0.0005,0.));
#350=CARTESIAN_POINT('',(0.,0.0005,0.));
#351=CARTESIAN_POINT('',(-0.0074058337822459,0.0005,-0.00918660034995239));
#352=CARTESIAN_POINT('',(0.0116851632111505,0.0005,-0.00164224259132877));
#353=CARTESIAN_POINT('',(0.0127460476105327,0.0005,-0.00444840087110333));
#354=CARTESIAN_POINT('',(0.00991359258596991,0.0005,-0.00345986734419149));
#355=CARTESIAN_POINT('',(0.,0.0005,0.));
#356=CARTESIAN_POINT('',(-0.00489225939759349,0.0005,-0.00929062957967103));
#357=CARTESIAN_POINT('',(-0.00535818886403097,0.0005,-0.0101754514444016));
#358=CARTESIAN_POINT('',(-0.00623004667628436,0.0005,-0.00968569236565704));
#359=CARTESIAN_POINT('',(-0.0074058337822459,0.0005,-0.00918660034995239));
#360=CARTESIAN_POINT('',(0.,0.0005,0.));
#361=CARTESIAN_POINT('',(-0.00162025316455696,0.0005,-0.00783420574677122));
#362=CARTESIAN_POINT('',(0.00162025316455696,0.0005,-0.00783420574677122));
#363=CARTESIAN_POINT('',(-0.0016,0.0005,-0.00773627817493658));
#364=CARTESIAN_POINT('',(-0.0015,0.0005,-0.00773627817493658));
#365=CARTESIAN_POINT('',(-0.0015,0.0005,-0.0065));
#366=CARTESIAN_POINT('',(-0.0015,0.0005,-0.0065));
#367=CARTESIAN_POINT('',(-0.0015,0.0005,-0.0065));
#368=CARTESIAN_POINT('',(0.0015,0.0005,-0.0065));
#369=CARTESIAN_POINT('',(0.0015,0.0005,-0.0065));
#370=CARTESIAN_POINT('',(0.0015,0.0005,-0.00773627817493658));
#371=CARTESIAN_POINT('',(0.0016,0.0005,-0.00773627817493658));
#372=CARTESIAN_POINT('',(0.,0.,0.));
#373=CARTESIAN_POINT('',(0.,0.,0.));
#374=CARTESIAN_POINT('',(-0.0074058337822459,0.,-0.00918660034995239));
#375=CARTESIAN_POINT('',(0.0116851632111505,0.,-0.00164224259132877));
#376=CARTESIAN_POINT('',(-0.0074058337822459,0.,-0.00918660034995239));
#377=CARTESIAN_POINT('',(-0.00623004667628436,0.,-0.00968569236565704));
#378=CARTESIAN_POINT('',(-0.00535818886403097,0.,-0.0101754514444016));
#379=CARTESIAN_POINT('',(-0.00489225939759349,0.,-0.00929062957967103));
#380=CARTESIAN_POINT('',(0.,0.,0.));
#381=CARTESIAN_POINT('',(0.00991359258596991,0.,-0.00345986734419149));
#382=CARTESIAN_POINT('',(0.0127460476105327,0.,-0.00444840087110333));
#383=CARTESIAN_POINT('',(-0.0015,0.,-0.0065));
#384=CARTESIAN_POINT('',(-0.0015,0.,-0.0065));
#385=CARTESIAN_POINT('',(-0.0015,0.,-0.00773627817493658));
#386=CARTESIAN_POINT('',(-0.0016,0.,-0.00773627817493658));
#387=CARTESIAN_POINT('',(-0.00162025316455696,0.,-0.00783420574677122));
#388=CARTESIAN_POINT('',(0.,0.,0.));
#389=CARTESIAN_POINT('',(0.00162025316455696,0.,-0.00783420574677122));
#390=CARTESIAN_POINT('',(0.0016,0.,-0.00773627817493658));
#391=CARTESIAN_POINT('',(0.0015,0.,-0.00773627817493658));
#392=CARTESIAN_POINT('',(0.0015,0.,-0.0065));
#393=CARTESIAN_POINT('',(0.0015,0.,-0.0065));
#394=CARTESIAN_POINT('',(-0.0015,0.,-0.0065));
#395=CARTESIAN_POINT('',(0.,0.0005,0.));
#396=CARTESIAN_POINT('',(0.0116851632111505,0.0005,-0.00164224259132877));
#397=CARTESIAN_POINT('',(-0.0074058337822459,0.0005,-0.00918660034995239));
#398=CARTESIAN_POINT('',(0.0127460476105327,0.0005,-0.00444840087110333));
#399=CARTESIAN_POINT('',(0.00991359258596991,0.0005,-0.00345986734419149));
#400=CARTESIAN_POINT('',(0.,0.0005,0.));
#401=CARTESIAN_POINT('',(-0.00489225939759349,0.0005,-0.00929062957967103));
#402=CARTESIAN_POINT('',(-0.00535818886403097,0.0005,-0.0101754514444016));
#403=CARTESIAN_POINT('',(-0.00623004667628436,0.0005,-0.00968569236565704));
#404=CARTESIAN_POINT('',(-0.0074058337822459,0.0005,-0.00918660034995239));
#405=CARTESIAN_POINT('',(-0.0015,0.0005,-0.0065));
#406=CARTESIAN_POINT('',(-0.0015,0.,-0.00773627817493658));
#407=CARTESIAN_POINT('',(-0.0015,0.0005,-0.0065));
#408=CARTESIAN_POINT('',(0.,0.0005,0.));
#409=CARTESIAN_POINT('',(-0.00162025316455696,0.0005,-0.00783420574677122));
#410=CARTESIAN_POINT('',(0.00162025316455696,0.0005,-0.00783420574677122));
#411=CARTESIAN_POINT('',(0.0015,0.0005,-0.0065));
#412=CARTESIAN_POINT('',(0.0015,0.0005,-0.00773627817493658));
#413=CARTESIAN_POINT('',(0.0015,0.0005,-0.0065));
#414=CARTESIAN_POINT('',(-0.0015,0.0005,-0.0065));
#415=CARTESIAN_POINT('',(-0.0016,0.0005,-0.00773627817493658));
#416=CARTESIAN_POINT('',(0.0016,0.0005,-0.00773627817493658));
#417=(
GEOMETRIC_REPRESENTATION_CONTEXT(3)
GLOBAL_UNCERTAINTY_ASSIGNED_CONTEXT((#418))
GLOBAL_UNIT_ASSIGNED_CONTEXT((#421,#420,#419))
REPRESENTATION_CONTEXT('id2','TOP_LEVEL_ASSEMBLY_PART')
);
#418=UNCERTAINTY_MEASURE_WITH_UNIT(LENGTH_MEASURE(1.E-8),#421,
'DISTANCE_ACCURACY_VALUE','Maximum Tolerance applied to model');
#419=(
NAMED_UNIT(*)
SI_UNIT($,.STERADIAN.)
SOLID_ANGLE_UNIT()
);
#420=(
NAMED_UNIT(*)
PLANE_ANGLE_UNIT()
SI_UNIT($,.RADIAN.)
);
#421=(
LENGTH_UNIT()
NAMED_UNIT(*)
SI_UNIT($,.METRE.)
);
#422=PRODUCT_DEFINITION_SHAPE('','',#423);
#423=PRODUCT_DEFINITION('','',#425,#424);
#424=PRODUCT_DEFINITION_CONTEXT('',#431,'design');
#425=PRODUCT_DEFINITION_FORMATION_WITH_SPECIFIED_SOURCE('','',#427,
 .NOT_KNOWN.);
#426=PRODUCT_RELATED_PRODUCT_CATEGORY('','',(#427));
#427=PRODUCT('id2','id2','id2',(#429));
#428=PRODUCT_CATEGORY('','');
#429=PRODUCT_CONTEXT('',#431,'mechanical');
#430=APPLICATION_PROTOCOL_DEFINITION('international standard',
'ap242_managed_model_based_3d_engineering',2020,#431);
#431=APPLICATION_CONTEXT('managed model based 3d engineering');
ENDSEC;
END-ISO-10303-21;
