ISO-10303-21;
HEADER;
/* Generated by software containing ST-Developer
 * from STEP Tools, Inc. (www.steptools.com) 
 */
/* OPTION: using custom renumber hook */

FILE_DESCRIPTION(
/* description */ ('STEP AP242 Edition 2',
'CAx-IF Rec.Pracs.---Representation and Presentation of Product Manufa
cturing Information (PMI)---4.0---2014-10-13',
'CAx-IF Rec.Pracs.---3D Tessellated Geometry---0.4---2014-09-14','2;1',
'CAx-IF Rec.Pracs.---User Defined Attributes---1.5---2016-08-15'),
/* implementation_level */ '2;1');

FILE_NAME(
/* name */ '10109',
/* time_stamp */ '2026-07-13T05:01:04Z',
/* author */ (''),
/* organization */ (''),
/* preprocessor_version */ 'ST-DEVELOPER v20',
/* originating_system */ 'ONSHAPE BY PTC INC, 1.217',
/* authorisation */ '  ');

FILE_SCHEMA (('AP242_MANAGED_MODEL_BASED_3D_ENGINEERING_MIM_LF { 1 0 10303 442 3 1 4 }'));
ENDSEC;

DATA;
#10=SHAPE_REPRESENTATION_RELATIONSHIP('','',#156,#11);
#11=ADVANCED_BREP_SHAPE_REPRESENTATION('',(#154),#274);
#12=CONICAL_SURFACE('',#176,0.0007,0.78539816339745);
#13=PLANE('',#171);
#14=PLANE('',#175);
#15=PLANE('',#177);
#16=PLANE('',#178);
#17=PLANE('',#179);
#18=LINE('',#247,#24);
#19=LINE('',#248,#25);
#20=LINE('',#252,#26);
#21=LINE('',#256,#27);
#22=LINE('',#270,#28);
#23=LINE('',#271,#29);
#24=VECTOR('',#198,1.);
#25=VECTOR('',#199,1.);
#26=VECTOR('',#202,1.);
#27=VECTOR('',#205,1.);
#28=VECTOR('',#226,1.);
#29=VECTOR('',#227,1.);
#30=CYLINDRICAL_SURFACE('',#161,0.0007);
#31=CYLINDRICAL_SURFACE('',#164,0.00125);
#32=CYLINDRICAL_SURFACE('',#172,0.00045);
#33=ORIENTED_EDGE('',*,*,#67,.T.);
#34=ORIENTED_EDGE('',*,*,#68,.F.);
#35=ORIENTED_EDGE('',*,*,#69,.T.);
#36=ORIENTED_EDGE('',*,*,#70,.T.);
#37=ORIENTED_EDGE('',*,*,#71,.T.);
#38=ORIENTED_EDGE('',*,*,#72,.T.);
#39=ORIENTED_EDGE('',*,*,#68,.T.);
#40=ORIENTED_EDGE('',*,*,#73,.T.);
#41=ORIENTED_EDGE('',*,*,#74,.T.);
#42=ORIENTED_EDGE('',*,*,#75,.T.);
#43=ORIENTED_EDGE('',*,*,#76,.T.);
#44=ORIENTED_EDGE('',*,*,#77,.T.);
#45=ORIENTED_EDGE('',*,*,#78,.F.);
#46=ORIENTED_EDGE('',*,*,#76,.F.);
#47=ORIENTED_EDGE('',*,*,#79,.T.);
#48=ORIENTED_EDGE('',*,*,#70,.F.);
#49=ORIENTED_EDGE('',*,*,#78,.T.);
#50=ORIENTED_EDGE('',*,*,#80,.T.);
#51=ORIENTED_EDGE('',*,*,#81,.F.);
#52=ORIENTED_EDGE('',*,*,#81,.T.);
#53=ORIENTED_EDGE('',*,*,#80,.F.);
#54=ORIENTED_EDGE('',*,*,#69,.F.);
#55=ORIENTED_EDGE('',*,*,#82,.F.);
#56=ORIENTED_EDGE('',*,*,#71,.F.);
#57=ORIENTED_EDGE('',*,*,#83,.T.);
#58=ORIENTED_EDGE('',*,*,#74,.F.);
#59=ORIENTED_EDGE('',*,*,#73,.F.);
#60=ORIENTED_EDGE('',*,*,#67,.F.);
#61=ORIENTED_EDGE('',*,*,#72,.F.);
#62=ORIENTED_EDGE('',*,*,#82,.T.);
#63=ORIENTED_EDGE('',*,*,#79,.F.);
#64=ORIENTED_EDGE('',*,*,#75,.F.);
#65=ORIENTED_EDGE('',*,*,#83,.F.);
#66=ORIENTED_EDGE('',*,*,#77,.F.);
#67=EDGE_CURVE('',#84,#85,#97,.T.);
#68=EDGE_CURVE('',#84,#85,#98,.T.);
#69=EDGE_CURVE('',#86,#86,#99,.F.);
#70=EDGE_CURVE('',#87,#87,#100,.T.);
#71=EDGE_CURVE('',#88,#89,#101,.T.);
#72=EDGE_CURVE('',#89,#84,#18,.F.);
#73=EDGE_CURVE('',#85,#90,#19,.T.);
#74=EDGE_CURVE('',#90,#91,#102,.T.);
#75=EDGE_CURVE('',#91,#92,#20,.F.);
#76=EDGE_CURVE('',#92,#93,#103,.T.);
#77=EDGE_CURVE('',#93,#88,#21,.T.);
#78=EDGE_CURVE('',#94,#94,#104,.T.);
#79=EDGE_CURVE('',#92,#93,#105,.T.);
#80=EDGE_CURVE('',#95,#95,#106,.T.);
#81=EDGE_CURVE('',#96,#96,#107,.T.);
#82=EDGE_CURVE('',#89,#90,#22,.T.);
#83=EDGE_CURVE('',#88,#91,#23,.T.);
#84=VERTEX_POINT('',#235);
#85=VERTEX_POINT('',#236);
#86=VERTEX_POINT('',#240);
#87=VERTEX_POINT('',#242);
#88=VERTEX_POINT('',#245);
#89=VERTEX_POINT('',#246);
#90=VERTEX_POINT('',#249);
#91=VERTEX_POINT('',#251);
#92=VERTEX_POINT('',#253);
#93=VERTEX_POINT('',#255);
#94=VERTEX_POINT('',#258);
#95=VERTEX_POINT('',#264);
#96=VERTEX_POINT('',#266);
#97=CIRCLE('',#159,0.00399718651053463);
#98=CIRCLE('',#160,0.00125);
#99=CIRCLE('',#162,0.0007);
#100=CIRCLE('',#163,0.0007);
#101=CIRCLE('',#165,0.00125);
#102=CIRCLE('',#166,0.00125);
#103=CIRCLE('',#167,0.00125);
#104=CIRCLE('',#168,0.00125);
#105=CIRCLE('',#170,0.00399718651053463);
#106=CIRCLE('',#173,0.00045);
#107=CIRCLE('',#174,0.00045);
#108=EDGE_LOOP('',(#33,#34));
#109=EDGE_LOOP('',(#35));
#110=EDGE_LOOP('',(#36));
#111=EDGE_LOOP('',(#37,#38,#39,#40,#41,#42,#43,#44));
#112=EDGE_LOOP('',(#45));
#113=EDGE_LOOP('',(#46,#47));
#114=EDGE_LOOP('',(#48));
#115=EDGE_LOOP('',(#49));
#116=EDGE_LOOP('',(#50));
#117=EDGE_LOOP('',(#51));
#118=EDGE_LOOP('',(#52));
#119=EDGE_LOOP('',(#53));
#120=EDGE_LOOP('',(#54));
#121=EDGE_LOOP('',(#55,#56,#57,#58));
#122=EDGE_LOOP('',(#59,#60,#61,#62));
#123=EDGE_LOOP('',(#63,#64,#65,#66));
#124=FACE_BOUND('',#108,.T.);
#125=FACE_BOUND('',#109,.T.);
#126=FACE_BOUND('',#110,.T.);
#127=FACE_BOUND('',#111,.T.);
#128=FACE_BOUND('',#112,.T.);
#129=FACE_BOUND('',#113,.T.);
#130=FACE_BOUND('',#114,.T.);
#131=FACE_BOUND('',#115,.T.);
#132=FACE_BOUND('',#116,.T.);
#133=FACE_BOUND('',#117,.T.);
#134=FACE_BOUND('',#118,.T.);
#135=FACE_BOUND('',#119,.T.);
#136=FACE_BOUND('',#120,.T.);
#137=FACE_BOUND('',#121,.T.);
#138=FACE_BOUND('',#122,.T.);
#139=FACE_BOUND('',#123,.T.);
#140=SPHERICAL_SURFACE('',#158,0.004);
#141=SPHERICAL_SURFACE('',#169,0.004);
#142=ADVANCED_FACE('',(#124),#140,.T.);
#143=ADVANCED_FACE('',(#125,#126),#30,.T.);
#144=ADVANCED_FACE('',(#127,#128),#31,.T.);
#145=ADVANCED_FACE('',(#129),#141,.T.);
#146=ADVANCED_FACE('',(#130,#131),#13,.T.);
#147=ADVANCED_FACE('',(#132,#133),#32,.T.);
#148=ADVANCED_FACE('',(#134),#14,.F.);
#149=ADVANCED_FACE('',(#135,#136),#12,.T.);
#150=ADVANCED_FACE('',(#137),#15,.F.);
#151=ADVANCED_FACE('',(#138),#16,.F.);
#152=ADVANCED_FACE('',(#139),#17,.F.);
#153=CLOSED_SHELL('',(#142,#143,#144,#145,#146,#147,#148,#149,#150,#151,
#152));
#154=MANIFOLD_SOLID_BREP('',#153);
#155=SHAPE_DEFINITION_REPRESENTATION(#279,#156);
#156=SHAPE_REPRESENTATION('id2',(#157),#274);
#157=AXIS2_PLACEMENT_3D('',#232,#180,#181);
#158=AXIS2_PLACEMENT_3D('',#233,#182,#183);
#159=AXIS2_PLACEMENT_3D('',#234,#184,#185);
#160=AXIS2_PLACEMENT_3D('',#237,#186,#187);
#161=AXIS2_PLACEMENT_3D('',#238,#188,#189);
#162=AXIS2_PLACEMENT_3D('',#239,#190,#191);
#163=AXIS2_PLACEMENT_3D('',#241,#192,#193);
#164=AXIS2_PLACEMENT_3D('',#243,#194,#195);
#165=AXIS2_PLACEMENT_3D('',#244,#196,#197);
#166=AXIS2_PLACEMENT_3D('',#250,#200,#201);
#167=AXIS2_PLACEMENT_3D('',#254,#203,#204);
#168=AXIS2_PLACEMENT_3D('',#257,#206,#207);
#169=AXIS2_PLACEMENT_3D('',#259,#208,#209);
#170=AXIS2_PLACEMENT_3D('',#260,#210,#211);
#171=AXIS2_PLACEMENT_3D('',#261,#212,#213);
#172=AXIS2_PLACEMENT_3D('',#262,#214,#215);
#173=AXIS2_PLACEMENT_3D('',#263,#216,#217);
#174=AXIS2_PLACEMENT_3D('',#265,#218,#219);
#175=AXIS2_PLACEMENT_3D('',#267,#220,#221);
#176=AXIS2_PLACEMENT_3D('',#268,#222,#223);
#177=AXIS2_PLACEMENT_3D('',#269,#224,#225);
#178=AXIS2_PLACEMENT_3D('',#272,#228,#229);
#179=AXIS2_PLACEMENT_3D('',#273,#230,#231);
#180=DIRECTION('',(0.,0.,1.));
#181=DIRECTION('',(1.,0.,0.));
#182=DIRECTION('',(0.,-1.,0.));
#183=DIRECTION('',(-1.,0.,0.));
#184=DIRECTION('',(1.,-1.36163763752158E-16,0.));
#185=DIRECTION('',(1.36163763752158E-16,1.,0.));
#186=DIRECTION('',(0.,-1.,0.));
#187=DIRECTION('',(0.,0.,-1.));
#188=DIRECTION('',(0.,-1.,0.));
#189=DIRECTION('',(0.,0.,-1.));
#190=DIRECTION('',(0.,-1.,0.));
#191=DIRECTION('',(0.,0.,-1.));
#192=DIRECTION('',(0.,-1.,0.));
#193=DIRECTION('',(0.,0.,-1.));
#194=DIRECTION('',(0.,-1.,0.));
#195=DIRECTION('',(0.,0.,-1.));
#196=DIRECTION('',(0.,-1.,0.));
#197=DIRECTION('',(0.,0.,-1.));
#198=DIRECTION('',(0.,-1.,0.));
#199=DIRECTION('',(0.,-1.,0.));
#200=DIRECTION('',(0.,-1.,0.));
#201=DIRECTION('',(0.,0.,-1.));
#202=DIRECTION('',(0.,-1.,0.));
#203=DIRECTION('',(0.,-1.,0.));
#204=DIRECTION('',(0.,0.,-1.));
#205=DIRECTION('',(0.,-1.,0.));
#206=DIRECTION('',(0.,-1.,0.));
#207=DIRECTION('',(0.,0.,-1.));
#208=DIRECTION('',(0.,-1.,0.));
#209=DIRECTION('',(-1.,0.,0.));
#210=DIRECTION('',(-1.,-1.36163763752158E-16,0.));
#211=DIRECTION('',(1.36163763752158E-16,-1.,0.));
#212=DIRECTION('',(0.,-1.,0.));
#213=DIRECTION('',(0.,0.,-1.));
#214=DIRECTION('',(0.,-1.,0.));
#215=DIRECTION('',(0.,0.,-1.));
#216=DIRECTION('',(0.,-1.,0.));
#217=DIRECTION('',(0.,0.,-1.));
#218=DIRECTION('',(0.,-1.,0.));
#219=DIRECTION('',(0.,0.,-1.));
#220=DIRECTION('',(0.,1.,0.));
#221=DIRECTION('',(0.,0.,1.));
#222=DIRECTION('',(0.,1.,0.));
#223=DIRECTION('',(0.,0.,1.));
#224=DIRECTION('',(0.,-1.,0.));
#225=DIRECTION('',(0.,0.,-1.));
#226=DIRECTION('',(0.,0.,1.));
#227=DIRECTION('',(0.,0.,1.));
#228=DIRECTION('',(1.,-1.36163763752158E-16,0.));
#229=DIRECTION('',(1.36163763752158E-16,1.,0.));
#230=DIRECTION('',(-1.,-1.36163763752158E-16,0.));
#231=DIRECTION('',(1.36163763752158E-16,-1.,0.));
#232=CARTESIAN_POINT('',(0.,0.,0.));
#233=CARTESIAN_POINT('',(4.89858719658941E-19,-0.0009,0.));
#234=CARTESIAN_POINT('',(0.00015,-0.0009,0.));
#235=CARTESIAN_POINT('',(0.00015,0.00289967103839267,-0.00124096736459908));
#236=CARTESIAN_POINT('',(0.00015,0.00289967103839267,0.00124096736459908));
#237=CARTESIAN_POINT('',(0.,0.00289967103839267,0.));
#238=CARTESIAN_POINT('',(0.,0.002,0.));
#239=CARTESIAN_POINT('',(0.,0.00085,0.));
#240=CARTESIAN_POINT('',(0.,0.00085,-0.0007));
#241=CARTESIAN_POINT('',(0.,0.002,0.));
#242=CARTESIAN_POINT('',(0.,0.002,-0.0007));
#243=CARTESIAN_POINT('',(0.,0.0031,0.));
#244=CARTESIAN_POINT('',(0.,0.0025,0.));
#245=CARTESIAN_POINT('',(-0.00015,0.0025,-0.00124096736459909));
#246=CARTESIAN_POINT('',(0.00015,0.0025,-0.00124096736459909));
#247=CARTESIAN_POINT('',(0.00015,0.0031,-0.00124096736459909));
#248=CARTESIAN_POINT('',(0.00015,0.0031,0.00124096736459909));
#249=CARTESIAN_POINT('',(0.00015,0.0025,0.00124096736459909));
#250=CARTESIAN_POINT('',(0.,0.0025,0.));
#251=CARTESIAN_POINT('',(-0.00015,0.0025,0.00124096736459909));
#252=CARTESIAN_POINT('',(-0.00015,0.0031,0.00124096736459909));
#253=CARTESIAN_POINT('',(-0.00015,0.00289967103839267,0.00124096736459908));
#254=CARTESIAN_POINT('',(0.,0.00289967103839267,0.));
#255=CARTESIAN_POINT('',(-0.00015,0.00289967103839267,-0.00124096736459908));
#256=CARTESIAN_POINT('',(-0.00015,0.0031,-0.00124096736459909));
#257=CARTESIAN_POINT('',(0.,0.002,0.));
#258=CARTESIAN_POINT('',(0.,0.002,-0.00125));
#259=CARTESIAN_POINT('',(4.89858719658941E-19,-0.0009,0.));
#260=CARTESIAN_POINT('',(-0.00015,-0.0009,0.));
#261=CARTESIAN_POINT('',(0.,0.002,0.));
#262=CARTESIAN_POINT('',(0.,0.0006,0.));
#263=CARTESIAN_POINT('',(0.,0.0006,0.));
#264=CARTESIAN_POINT('',(0.,0.0006,-0.00045));
#265=CARTESIAN_POINT('',(0.,0.,0.));
#266=CARTESIAN_POINT('',(0.,0.,-0.00045));
#267=CARTESIAN_POINT('',(0.,0.,0.));
#268=CARTESIAN_POINT('',(0.,0.00085,0.));
#269=CARTESIAN_POINT('',(-0.00015,0.0025,-0.00125));
#270=CARTESIAN_POINT('',(0.00015,0.0025,-0.00125));
#271=CARTESIAN_POINT('',(-0.00015,0.0025,-0.00125));
#272=CARTESIAN_POINT('',(0.00015,0.00309718651053463,-0.00125));
#273=CARTESIAN_POINT('',(-0.00015,0.00309718651053463,-0.00125));
#274=(
GEOMETRIC_REPRESENTATION_CONTEXT(3)
GLOBAL_UNCERTAINTY_ASSIGNED_CONTEXT((#275))
GLOBAL_UNIT_ASSIGNED_CONTEXT((#278,#277,#276))
REPRESENTATION_CONTEXT('id2','TOP_LEVEL_ASSEMBLY_PART')
);
#275=UNCERTAINTY_MEASURE_WITH_UNIT(LENGTH_MEASURE(1.E-8),#278,
'DISTANCE_ACCURACY_VALUE','Maximum Tolerance applied to model');
#276=(
NAMED_UNIT(*)
SI_UNIT($,.STERADIAN.)
SOLID_ANGLE_UNIT()
);
#277=(
NAMED_UNIT(*)
PLANE_ANGLE_UNIT()
SI_UNIT($,.RADIAN.)
);
#278=(
LENGTH_UNIT()
NAMED_UNIT(*)
SI_UNIT($,.METRE.)
);
#279=PRODUCT_DEFINITION_SHAPE('','',#280);
#280=PRODUCT_DEFINITION('','',#282,#281);
#281=PRODUCT_DEFINITION_CONTEXT('',#288,'design');
#282=PRODUCT_DEFINITION_FORMATION_WITH_SPECIFIED_SOURCE('','',#284,
 .NOT_KNOWN.);
#283=PRODUCT_RELATED_PRODUCT_CATEGORY('','',(#284));
#284=PRODUCT('id2','id2','id2',(#286));
#285=PRODUCT_CATEGORY('','');
#286=PRODUCT_CONTEXT('',#288,'mechanical');
#287=APPLICATION_PROTOCOL_DEFINITION('international standard',
'ap242_managed_model_based_3d_engineering',2020,#288);
#288=APPLICATION_CONTEXT('managed model based 3d engineering');
ENDSEC;
END-ISO-10303-21;
