ISO-10303-21;
HEADER;
/* Generated by software containing ST-Developer
 * from STEP Tools, Inc. (www.steptools.com) 
 */
/* OPTION: using custom renumber hook */

FILE_DESCRIPTION(
/* description */ ('STEP AP242 Edition 2',
'CAx-IF Rec.Pracs.---Representation and Presentation of Product Manufa
cturing Information (PMI)---4.0---2014-10-13',
'CAx-IF Rec.Pracs.---3D Tessellated Geometry---0.4---2014-09-14','2;1',
'CAx-IF Rec.Pracs.---User Defined Attributes---1.5---2016-08-15'),
/* implementation_level */ '2;1');

FILE_NAME(
/* name */ '10100',
/* time_stamp */ '2026-07-13T05:00:21Z',
/* author */ (''),
/* organization */ (''),
/* preprocessor_version */ 'ST-DEVELOPER v20',
/* originating_system */ 'ONSHAPE BY PTC INC, 1.217',
/* authorisation */ '  ');

FILE_SCHEMA (('AP242_MANAGED_MODEL_BASED_3D_ENGINEERING_MIM_LF { 1 0 10303 442 3 1 4 }'));
ENDSEC;

DATA;
#10=SHAPE_REPRESENTATION_RELATIONSHIP('','',#410,#11);
#11=ADVANCED_BREP_SHAPE_REPRESENTATION('',(#408),#719);
#12=B_SPLINE_SURFACE_WITH_KNOTS('',3,1,((#651,#652),(#653,#654),(#655,#656),
(#657,#658),(#659,#660),(#661,#662)),.RULED_SURF.,.F.,.F.,.F.,(4,2,4),(2,
2),(0.,0.5,1.),(0.,1.),.UNSPECIFIED.);
#13=B_SPLINE_SURFACE_WITH_KNOTS('',3,1,((#676,#677),(#678,#679),(#680,#681),
(#682,#683),(#684,#685),(#686,#687)),.RULED_SURF.,.F.,.F.,.F.,(4,2,4),(2,
2),(0.,0.5,1.),(0.,1.),.UNSPECIFIED.);
#14=B_SPLINE_SURFACE_WITH_KNOTS('',3,1,((#692,#693),(#694,#695),(#696,#697),
(#698,#699),(#700,#701),(#702,#703)),.RULED_SURF.,.F.,.F.,.F.,(4,2,4),(2,
2),(0.,0.5,1.),(0.,1.),.UNSPECIFIED.);
#15=B_SPLINE_SURFACE_WITH_KNOTS('',3,1,((#707,#708),(#709,#710),(#711,#712),
(#713,#714),(#715,#716),(#717,#718)),.RULED_SURF.,.F.,.F.,.F.,(4,2,4),(2,
2),(0.,0.5,1.),(0.,1.),.UNSPECIFIED.);
#16=PLANE('',#418);
#17=PLANE('',#425);
#18=PLANE('',#434);
#19=PLANE('',#436);
#20=PLANE('',#437);
#21=PLANE('',#438);
#22=PLANE('',#439);
#23=PLANE('',#443);
#24=PLANE('',#444);
#25=PLANE('',#445);
#26=PLANE('',#446);
#27=LINE('',#565,#68);
#28=LINE('',#569,#69);
#29=LINE('',#574,#70);
#30=LINE('',#578,#71);
#31=LINE('',#580,#72);
#32=LINE('',#586,#73);
#33=LINE('',#588,#74);
#34=LINE('',#590,#75);
#35=LINE('',#596,#76);
#36=LINE('',#597,#77);
#37=LINE('',#601,#78);
#38=LINE('',#608,#79);
#39=LINE('',#611,#80);
#40=LINE('',#615,#81);
#41=LINE('',#616,#82);
#42=LINE('',#622,#83);
#43=LINE('',#624,#84);
#44=LINE('',#626,#85);
#45=LINE('',#630,#86);
#46=LINE('',#631,#87);
#47=LINE('',#633,#88);
#48=LINE('',#634,#89);
#49=LINE('',#636,#90);
#50=LINE('',#638,#91);
#51=LINE('',#640,#92);
#52=LINE('',#642,#93);
#53=LINE('',#643,#94);
#54=LINE('',#645,#95);
#55=LINE('',#647,#96);
#56=LINE('',#663,#97);
#57=LINE('',#665,#98);
#58=LINE('',#667,#99);
#59=LINE('',#669,#100);
#60=LINE('',#671,#101);
#61=LINE('',#673,#102);
#62=LINE('',#675,#103);
#63=LINE('',#688,#104);
#64=LINE('',#690,#105);
#65=LINE('',#691,#106);
#66=LINE('',#704,#107);
#67=LINE('',#706,#108);
#68=VECTOR('',#453,1.);
#69=VECTOR('',#456,1.);
#70=VECTOR('',#461,1.);
#71=VECTOR('',#464,1.);
#72=VECTOR('',#467,1.);
#73=VECTOR('',#472,1.);
#74=VECTOR('',#473,1.);
#75=VECTOR('',#474,1.);
#76=VECTOR('',#479,1.);
#77=VECTOR('',#480,1.);
#78=VECTOR('',#483,1.);
#79=VECTOR('',#490,1.);
#80=VECTOR('',#493,1.);
#81=VECTOR('',#496,1.);
#82=VECTOR('',#497,1.);
#83=VECTOR('',#502,1.);
#84=VECTOR('',#503,1.);
#85=VECTOR('',#504,1.);
#86=VECTOR('',#509,1.);
#87=VECTOR('',#510,1.);
#88=VECTOR('',#513,1.);
#89=VECTOR('',#514,1.);
#90=VECTOR('',#517,1.);
#91=VECTOR('',#520,1.);
#92=VECTOR('',#523,1.);
#93=VECTOR('',#526,1.);
#94=VECTOR('',#527,1.);
#95=VECTOR('',#530,1.);
#96=VECTOR('',#533,1.);
#97=VECTOR('',#540,1.);
#98=VECTOR('',#541,1.);
#99=VECTOR('',#542,1.);
#100=VECTOR('',#545,1.);
#101=VECTOR('',#546,1.);
#102=VECTOR('',#549,1.);
#103=VECTOR('',#550,1.);
#104=VECTOR('',#551,1.);
#105=VECTOR('',#554,1.);
#106=VECTOR('',#555,1.);
#107=VECTOR('',#556,1.);
#108=VECTOR('',#559,1.);
#109=ORIENTED_EDGE('',*,*,#223,.F.);
#110=ORIENTED_EDGE('',*,*,#224,.T.);
#111=ORIENTED_EDGE('',*,*,#225,.T.);
#112=ORIENTED_EDGE('',*,*,#226,.T.);
#113=ORIENTED_EDGE('',*,*,#227,.T.);
#114=ORIENTED_EDGE('',*,*,#228,.F.);
#115=ORIENTED_EDGE('',*,*,#229,.F.);
#116=ORIENTED_EDGE('',*,*,#230,.F.);
#117=ORIENTED_EDGE('',*,*,#231,.T.);
#118=ORIENTED_EDGE('',*,*,#232,.T.);
#119=ORIENTED_EDGE('',*,*,#233,.T.);
#120=ORIENTED_EDGE('',*,*,#234,.T.);
#121=ORIENTED_EDGE('',*,*,#235,.T.);
#122=ORIENTED_EDGE('',*,*,#236,.T.);
#123=ORIENTED_EDGE('',*,*,#237,.T.);
#124=ORIENTED_EDGE('',*,*,#238,.T.);
#125=ORIENTED_EDGE('',*,*,#239,.T.);
#126=ORIENTED_EDGE('',*,*,#227,.F.);
#127=ORIENTED_EDGE('',*,*,#240,.F.);
#128=ORIENTED_EDGE('',*,*,#241,.F.);
#129=ORIENTED_EDGE('',*,*,#242,.F.);
#130=ORIENTED_EDGE('',*,*,#243,.T.);
#131=ORIENTED_EDGE('',*,*,#225,.F.);
#132=ORIENTED_EDGE('',*,*,#244,.F.);
#133=ORIENTED_EDGE('',*,*,#245,.F.);
#134=ORIENTED_EDGE('',*,*,#223,.T.);
#135=ORIENTED_EDGE('',*,*,#246,.T.);
#136=ORIENTED_EDGE('',*,*,#247,.T.);
#137=ORIENTED_EDGE('',*,*,#248,.T.);
#138=ORIENTED_EDGE('',*,*,#249,.T.);
#139=ORIENTED_EDGE('',*,*,#229,.T.);
#140=ORIENTED_EDGE('',*,*,#250,.F.);
#141=ORIENTED_EDGE('',*,*,#251,.F.);
#142=ORIENTED_EDGE('',*,*,#252,.T.);
#143=ORIENTED_EDGE('',*,*,#253,.F.);
#144=ORIENTED_EDGE('',*,*,#254,.F.);
#145=ORIENTED_EDGE('',*,*,#255,.F.);
#146=ORIENTED_EDGE('',*,*,#256,.T.);
#147=ORIENTED_EDGE('',*,*,#257,.F.);
#148=ORIENTED_EDGE('',*,*,#244,.T.);
#149=ORIENTED_EDGE('',*,*,#258,.T.);
#150=ORIENTED_EDGE('',*,*,#232,.F.);
#151=ORIENTED_EDGE('',*,*,#259,.T.);
#152=ORIENTED_EDGE('',*,*,#238,.F.);
#153=ORIENTED_EDGE('',*,*,#260,.T.);
#154=ORIENTED_EDGE('',*,*,#251,.T.);
#155=ORIENTED_EDGE('',*,*,#249,.F.);
#156=ORIENTED_EDGE('',*,*,#261,.F.);
#157=ORIENTED_EDGE('',*,*,#240,.T.);
#158=ORIENTED_EDGE('',*,*,#230,.T.);
#159=ORIENTED_EDGE('',*,*,#248,.F.);
#160=ORIENTED_EDGE('',*,*,#262,.F.);
#161=ORIENTED_EDGE('',*,*,#241,.T.);
#162=ORIENTED_EDGE('',*,*,#261,.T.);
#163=ORIENTED_EDGE('',*,*,#247,.F.);
#164=ORIENTED_EDGE('',*,*,#263,.T.);
#165=ORIENTED_EDGE('',*,*,#242,.T.);
#166=ORIENTED_EDGE('',*,*,#262,.T.);
#167=ORIENTED_EDGE('',*,*,#254,.T.);
#168=ORIENTED_EDGE('',*,*,#264,.F.);
#169=ORIENTED_EDGE('',*,*,#235,.F.);
#170=ORIENTED_EDGE('',*,*,#265,.T.);
#171=ORIENTED_EDGE('',*,*,#234,.F.);
#172=ORIENTED_EDGE('',*,*,#266,.T.);
#173=ORIENTED_EDGE('',*,*,#255,.T.);
#174=ORIENTED_EDGE('',*,*,#265,.F.);
#175=ORIENTED_EDGE('',*,*,#253,.T.);
#176=ORIENTED_EDGE('',*,*,#267,.T.);
#177=ORIENTED_EDGE('',*,*,#236,.F.);
#178=ORIENTED_EDGE('',*,*,#264,.T.);
#179=ORIENTED_EDGE('',*,*,#233,.F.);
#180=ORIENTED_EDGE('',*,*,#258,.F.);
#181=ORIENTED_EDGE('',*,*,#256,.F.);
#182=ORIENTED_EDGE('',*,*,#266,.F.);
#183=ORIENTED_EDGE('',*,*,#237,.F.);
#184=ORIENTED_EDGE('',*,*,#267,.F.);
#185=ORIENTED_EDGE('',*,*,#252,.F.);
#186=ORIENTED_EDGE('',*,*,#260,.F.);
#187=ORIENTED_EDGE('',*,*,#243,.F.);
#188=ORIENTED_EDGE('',*,*,#263,.F.);
#189=ORIENTED_EDGE('',*,*,#246,.F.);
#190=ORIENTED_EDGE('',*,*,#226,.F.);
#191=ORIENTED_EDGE('',*,*,#250,.T.);
#192=ORIENTED_EDGE('',*,*,#268,.T.);
#193=ORIENTED_EDGE('',*,*,#269,.F.);
#194=ORIENTED_EDGE('',*,*,#270,.T.);
#195=ORIENTED_EDGE('',*,*,#271,.T.);
#196=ORIENTED_EDGE('',*,*,#272,.F.);
#197=ORIENTED_EDGE('',*,*,#268,.F.);
#198=ORIENTED_EDGE('',*,*,#228,.T.);
#199=ORIENTED_EDGE('',*,*,#270,.F.);
#200=ORIENTED_EDGE('',*,*,#273,.F.);
#201=ORIENTED_EDGE('',*,*,#274,.F.);
#202=ORIENTED_EDGE('',*,*,#259,.F.);
#203=ORIENTED_EDGE('',*,*,#239,.F.);
#204=ORIENTED_EDGE('',*,*,#274,.T.);
#205=ORIENTED_EDGE('',*,*,#275,.F.);
#206=ORIENTED_EDGE('',*,*,#271,.F.);
#207=ORIENTED_EDGE('',*,*,#276,.F.);
#208=ORIENTED_EDGE('',*,*,#224,.F.);
#209=ORIENTED_EDGE('',*,*,#277,.T.);
#210=ORIENTED_EDGE('',*,*,#272,.T.);
#211=ORIENTED_EDGE('',*,*,#245,.T.);
#212=ORIENTED_EDGE('',*,*,#278,.F.);
#213=ORIENTED_EDGE('',*,*,#269,.T.);
#214=ORIENTED_EDGE('',*,*,#277,.F.);
#215=ORIENTED_EDGE('',*,*,#278,.T.);
#216=ORIENTED_EDGE('',*,*,#257,.T.);
#217=ORIENTED_EDGE('',*,*,#279,.T.);
#218=ORIENTED_EDGE('',*,*,#273,.T.);
#219=ORIENTED_EDGE('',*,*,#231,.F.);
#220=ORIENTED_EDGE('',*,*,#276,.T.);
#221=ORIENTED_EDGE('',*,*,#275,.T.);
#222=ORIENTED_EDGE('',*,*,#279,.F.);
#223=EDGE_CURVE('',#280,#281,#314,.T.);
#224=EDGE_CURVE('',#280,#282,#27,.T.);
#225=EDGE_CURVE('',#282,#283,#315,.T.);
#226=EDGE_CURVE('',#283,#281,#28,.T.);
#227=EDGE_CURVE('',#284,#285,#316,.T.);
#228=EDGE_CURVE('',#286,#285,#29,.F.);
#229=EDGE_CURVE('',#287,#286,#317,.T.);
#230=EDGE_CURVE('',#284,#287,#30,.T.);
#231=EDGE_CURVE('',#282,#288,#31,.T.);
#232=EDGE_CURVE('',#288,#289,#318,.T.);
#233=EDGE_CURVE('',#289,#290,#319,.T.);
#234=EDGE_CURVE('',#290,#291,#32,.T.);
#235=EDGE_CURVE('',#291,#292,#33,.T.);
#236=EDGE_CURVE('',#292,#293,#34,.T.);
#237=EDGE_CURVE('',#293,#294,#320,.T.);
#238=EDGE_CURVE('',#294,#295,#321,.T.);
#239=EDGE_CURVE('',#295,#285,#35,.T.);
#240=EDGE_CURVE('',#296,#284,#36,.T.);
#241=EDGE_CURVE('',#297,#296,#322,.T.);
#242=EDGE_CURVE('',#298,#297,#37,.T.);
#243=EDGE_CURVE('',#298,#283,#323,.T.);
#244=EDGE_CURVE('',#299,#300,#324,.T.);
#245=EDGE_CURVE('',#280,#299,#38,.T.);
#246=EDGE_CURVE('',#281,#301,#325,.F.);
#247=EDGE_CURVE('',#301,#302,#39,.T.);
#248=EDGE_CURVE('',#302,#303,#326,.T.);
#249=EDGE_CURVE('',#303,#287,#40,.T.);
#250=EDGE_CURVE('',#304,#286,#41,.F.);
#251=EDGE_CURVE('',#305,#304,#327,.T.);
#252=EDGE_CURVE('',#305,#306,#328,.F.);
#253=EDGE_CURVE('',#307,#306,#42,.T.);
#254=EDGE_CURVE('',#308,#307,#43,.T.);
#255=EDGE_CURVE('',#309,#308,#44,.T.);
#256=EDGE_CURVE('',#309,#300,#329,.F.);
#257=EDGE_CURVE('',#299,#288,#45,.T.);
#258=EDGE_CURVE('',#300,#289,#46,.F.);
#259=EDGE_CURVE('',#304,#295,#47,.F.);
#260=EDGE_CURVE('',#294,#305,#48,.T.);
#261=EDGE_CURVE('',#296,#303,#49,.T.);
#262=EDGE_CURVE('',#297,#302,#50,.T.);
#263=EDGE_CURVE('',#301,#298,#51,.T.);
#264=EDGE_CURVE('',#292,#307,#52,.T.);
#265=EDGE_CURVE('',#291,#308,#53,.T.);
#266=EDGE_CURVE('',#290,#309,#54,.F.);
#267=EDGE_CURVE('',#306,#293,#55,.T.);
#268=EDGE_CURVE('',#286,#310,#56,.T.);
#269=EDGE_CURVE('',#311,#310,#57,.T.);
#270=EDGE_CURVE('',#311,#304,#58,.T.);
#271=EDGE_CURVE('',#285,#312,#59,.T.);
#272=EDGE_CURVE('',#310,#312,#60,.T.);
#273=EDGE_CURVE('',#313,#311,#61,.T.);
#274=EDGE_CURVE('',#295,#313,#62,.T.);
#275=EDGE_CURVE('',#312,#313,#63,.T.);
#276=EDGE_CURVE('',#282,#312,#64,.T.);
#277=EDGE_CURVE('',#280,#310,#65,.T.);
#278=EDGE_CURVE('',#311,#299,#66,.T.);
#279=EDGE_CURVE('',#288,#313,#67,.T.);
#280=VERTEX_POINT('',#563);
#281=VERTEX_POINT('',#564);
#282=VERTEX_POINT('',#566);
#283=VERTEX_POINT('',#568);
#284=VERTEX_POINT('',#572);
#285=VERTEX_POINT('',#573);
#286=VERTEX_POINT('',#575);
#287=VERTEX_POINT('',#577);
#288=VERTEX_POINT('',#581);
#289=VERTEX_POINT('',#583);
#290=VERTEX_POINT('',#585);
#291=VERTEX_POINT('',#587);
#292=VERTEX_POINT('',#589);
#293=VERTEX_POINT('',#591);
#294=VERTEX_POINT('',#593);
#295=VERTEX_POINT('',#595);
#296=VERTEX_POINT('',#598);
#297=VERTEX_POINT('',#600);
#298=VERTEX_POINT('',#602);
#299=VERTEX_POINT('',#606);
#300=VERTEX_POINT('',#607);
#301=VERTEX_POINT('',#610);
#302=VERTEX_POINT('',#612);
#303=VERTEX_POINT('',#614);
#304=VERTEX_POINT('',#617);
#305=VERTEX_POINT('',#619);
#306=VERTEX_POINT('',#621);
#307=VERTEX_POINT('',#623);
#308=VERTEX_POINT('',#625);
#309=VERTEX_POINT('',#627);
#310=VERTEX_POINT('',#664);
#311=VERTEX_POINT('',#666);
#312=VERTEX_POINT('',#670);
#313=VERTEX_POINT('',#674);
#314=CIRCLE('',#413,0.0105);
#315=CIRCLE('',#414,0.0105);
#316=CIRCLE('',#416,0.0105);
#317=CIRCLE('',#417,0.0105);
#318=CIRCLE('',#419,0.008);
#319=CIRCLE('',#420,0.0001);
#320=CIRCLE('',#421,0.0001);
#321=CIRCLE('',#422,0.008);
#322=CIRCLE('',#423,0.012);
#323=CIRCLE('',#424,0.0005);
#324=CIRCLE('',#426,0.008);
#325=CIRCLE('',#427,0.0005);
#326=CIRCLE('',#428,0.012);
#327=CIRCLE('',#429,0.008);
#328=CIRCLE('',#430,0.0001);
#329=CIRCLE('',#431,0.0001);
#330=EDGE_LOOP('',(#109,#110,#111,#112));
#331=EDGE_LOOP('',(#113,#114,#115,#116));
#332=EDGE_LOOP('',(#117,#118,#119,#120,#121,#122,#123,#124,#125,#126,#127,
#128,#129,#130,#131));
#333=EDGE_LOOP('',(#132,#133,#134,#135,#136,#137,#138,#139,#140,#141,#142,
#143,#144,#145,#146));
#334=EDGE_LOOP('',(#147,#148,#149,#150));
#335=EDGE_LOOP('',(#151,#152,#153,#154));
#336=EDGE_LOOP('',(#155,#156,#157,#158));
#337=EDGE_LOOP('',(#159,#160,#161,#162));
#338=EDGE_LOOP('',(#163,#164,#165,#166));
#339=EDGE_LOOP('',(#167,#168,#169,#170));
#340=EDGE_LOOP('',(#171,#172,#173,#174));
#341=EDGE_LOOP('',(#175,#176,#177,#178));
#342=EDGE_LOOP('',(#179,#180,#181,#182));
#343=EDGE_LOOP('',(#183,#184,#185,#186));
#344=EDGE_LOOP('',(#187,#188,#189,#190));
#345=EDGE_LOOP('',(#191,#192,#193,#194));
#346=EDGE_LOOP('',(#195,#196,#197,#198));
#347=EDGE_LOOP('',(#199,#200,#201,#202));
#348=EDGE_LOOP('',(#203,#204,#205,#206));
#349=EDGE_LOOP('',(#207,#208,#209,#210));
#350=EDGE_LOOP('',(#211,#212,#213,#214));
#351=EDGE_LOOP('',(#215,#216,#217,#218));
#352=EDGE_LOOP('',(#219,#220,#221,#222));
#353=FACE_BOUND('',#330,.T.);
#354=FACE_BOUND('',#331,.T.);
#355=FACE_BOUND('',#332,.T.);
#356=FACE_BOUND('',#333,.T.);
#357=FACE_BOUND('',#334,.T.);
#358=FACE_BOUND('',#335,.T.);
#359=FACE_BOUND('',#336,.T.);
#360=FACE_BOUND('',#337,.T.);
#361=FACE_BOUND('',#338,.T.);
#362=FACE_BOUND('',#339,.T.);
#363=FACE_BOUND('',#340,.T.);
#364=FACE_BOUND('',#341,.T.);
#365=FACE_BOUND('',#342,.T.);
#366=FACE_BOUND('',#343,.T.);
#367=FACE_BOUND('',#344,.T.);
#368=FACE_BOUND('',#345,.T.);
#369=FACE_BOUND('',#346,.T.);
#370=FACE_BOUND('',#347,.T.);
#371=FACE_BOUND('',#348,.T.);
#372=FACE_BOUND('',#349,.T.);
#373=FACE_BOUND('',#350,.T.);
#374=FACE_BOUND('',#351,.T.);
#375=FACE_BOUND('',#352,.T.);
#376=CYLINDRICAL_SURFACE('',#412,0.0105);
#377=CYLINDRICAL_SURFACE('',#415,0.0105);
#378=CYLINDRICAL_SURFACE('',#432,0.008);
#379=CYLINDRICAL_SURFACE('',#433,0.008);
#380=CYLINDRICAL_SURFACE('',#435,0.012);
#381=CYLINDRICAL_SURFACE('',#440,0.0001);
#382=CYLINDRICAL_SURFACE('',#441,0.0001);
#383=CYLINDRICAL_SURFACE('',#442,0.0005);
#384=ADVANCED_FACE('',(#353),#376,.T.);
#385=ADVANCED_FACE('',(#354),#377,.T.);
#386=ADVANCED_FACE('',(#355),#16,.F.);
#387=ADVANCED_FACE('',(#356),#17,.T.);
#388=ADVANCED_FACE('',(#357),#378,.F.);
#389=ADVANCED_FACE('',(#358),#379,.F.);
#390=ADVANCED_FACE('',(#359),#18,.T.);
#391=ADVANCED_FACE('',(#360),#380,.T.);
#392=ADVANCED_FACE('',(#361),#19,.T.);
#393=ADVANCED_FACE('',(#362),#20,.F.);
#394=ADVANCED_FACE('',(#363),#21,.F.);
#395=ADVANCED_FACE('',(#364),#22,.F.);
#396=ADVANCED_FACE('',(#365),#381,.F.);
#397=ADVANCED_FACE('',(#366),#382,.F.);
#398=ADVANCED_FACE('',(#367),#383,.F.);
#399=ADVANCED_FACE('',(#368),#12,.T.);
#400=ADVANCED_FACE('',(#369),#23,.F.);
#401=ADVANCED_FACE('',(#370),#24,.F.);
#402=ADVANCED_FACE('',(#371),#13,.T.);
#403=ADVANCED_FACE('',(#372),#25,.F.);
#404=ADVANCED_FACE('',(#373),#14,.F.);
#405=ADVANCED_FACE('',(#374),#26,.F.);
#406=ADVANCED_FACE('',(#375),#15,.F.);
#407=CLOSED_SHELL('',(#384,#385,#386,#387,#388,#389,#390,#391,#392,#393,
#394,#395,#396,#397,#398,#399,#400,#401,#402,#403,#404,#405,#406));
#408=MANIFOLD_SOLID_BREP('',#407);
#409=SHAPE_DEFINITION_REPRESENTATION(#724,#410);
#410=SHAPE_REPRESENTATION('id2',(#411),#719);
#411=AXIS2_PLACEMENT_3D('',#560,#447,#448);
#412=AXIS2_PLACEMENT_3D('',#561,#449,#450);
#413=AXIS2_PLACEMENT_3D('',#562,#451,#452);
#414=AXIS2_PLACEMENT_3D('',#567,#454,#455);
#415=AXIS2_PLACEMENT_3D('',#570,#457,#458);
#416=AXIS2_PLACEMENT_3D('',#571,#459,#460);
#417=AXIS2_PLACEMENT_3D('',#576,#462,#463);
#418=AXIS2_PLACEMENT_3D('',#579,#465,#466);
#419=AXIS2_PLACEMENT_3D('',#582,#468,#469);
#420=AXIS2_PLACEMENT_3D('',#584,#470,#471);
#421=AXIS2_PLACEMENT_3D('',#592,#475,#476);
#422=AXIS2_PLACEMENT_3D('',#594,#477,#478);
#423=AXIS2_PLACEMENT_3D('',#599,#481,#482);
#424=AXIS2_PLACEMENT_3D('',#603,#484,#485);
#425=AXIS2_PLACEMENT_3D('',#604,#486,#487);
#426=AXIS2_PLACEMENT_3D('',#605,#488,#489);
#427=AXIS2_PLACEMENT_3D('',#609,#491,#492);
#428=AXIS2_PLACEMENT_3D('',#613,#494,#495);
#429=AXIS2_PLACEMENT_3D('',#618,#498,#499);
#430=AXIS2_PLACEMENT_3D('',#620,#500,#501);
#431=AXIS2_PLACEMENT_3D('',#628,#505,#506);
#432=AXIS2_PLACEMENT_3D('',#629,#507,#508);
#433=AXIS2_PLACEMENT_3D('',#632,#511,#512);
#434=AXIS2_PLACEMENT_3D('',#635,#515,#516);
#435=AXIS2_PLACEMENT_3D('',#637,#518,#519);
#436=AXIS2_PLACEMENT_3D('',#639,#521,#522);
#437=AXIS2_PLACEMENT_3D('',#641,#524,#525);
#438=AXIS2_PLACEMENT_3D('',#644,#528,#529);
#439=AXIS2_PLACEMENT_3D('',#646,#531,#532);
#440=AXIS2_PLACEMENT_3D('',#648,#534,#535);
#441=AXIS2_PLACEMENT_3D('',#649,#536,#537);
#442=AXIS2_PLACEMENT_3D('',#650,#538,#539);
#443=AXIS2_PLACEMENT_3D('',#668,#543,#544);
#444=AXIS2_PLACEMENT_3D('',#672,#547,#548);
#445=AXIS2_PLACEMENT_3D('',#689,#552,#553);
#446=AXIS2_PLACEMENT_3D('',#705,#557,#558);
#447=DIRECTION('',(0.,0.,1.));
#448=DIRECTION('',(1.,0.,0.));
#449=DIRECTION('',(0.,0.,1.));
#450=DIRECTION('',(1.,0.,0.));
#451=DIRECTION('',(0.,0.,1.));
#452=DIRECTION('',(1.,0.,0.));
#453=DIRECTION('',(0.,0.,-1.));
#454=DIRECTION('',(0.,0.,1.));
#455=DIRECTION('',(1.,0.,0.));
#456=DIRECTION('',(0.,0.,1.));
#457=DIRECTION('',(0.,0.,1.));
#458=DIRECTION('',(1.,0.,0.));
#459=DIRECTION('',(0.,0.,1.));
#460=DIRECTION('',(1.,0.,0.));
#461=DIRECTION('',(0.,0.,1.));
#462=DIRECTION('',(0.,0.,1.));
#463=DIRECTION('',(1.,0.,0.));
#464=DIRECTION('',(0.,0.,1.));
#465=DIRECTION('',(0.,0.,1.));
#466=DIRECTION('',(1.,0.,0.));
#467=DIRECTION('',(-0.31904761904762,0.947738685915081,0.));
#468=DIRECTION('',(0.,0.,1.));
#469=DIRECTION('',(1.,0.,0.));
#470=DIRECTION('',(0.,0.,1.));
#471=DIRECTION('',(1.,0.,0.));
#472=DIRECTION('',(0.976296007119934,0.2164396139381,0.));
#473=DIRECTION('',(0.2164396139381,-0.976296007119934,0.));
#474=DIRECTION('',(-0.976296007119934,-0.2164396139381,0.));
#475=DIRECTION('',(0.,0.,1.));
#476=DIRECTION('',(1.,0.,0.));
#477=DIRECTION('',(0.,0.,1.));
#478=DIRECTION('',(1.,0.,0.));
#479=DIRECTION('',(-0.319047619047619,-0.947738685915081,0.));
#480=DIRECTION('',(-0.989779692430382,-0.142604910337683,0.));
#481=DIRECTION('',(0.,0.,1.));
#482=DIRECTION('',(1.,0.,0.));
#483=DIRECTION('',(0.584249665637441,0.811573981965008,0.));
#484=DIRECTION('',(0.,0.,1.));
#485=DIRECTION('',(1.,0.,0.));
#486=DIRECTION('',(0.,0.,1.));
#487=DIRECTION('',(1.,0.,0.));
#488=DIRECTION('',(0.,0.,1.));
#489=DIRECTION('',(1.,0.,0.));
#490=DIRECTION('',(-0.31904761904762,0.947738685915081,0.));
#491=DIRECTION('',(0.,0.,1.));
#492=DIRECTION('',(1.,0.,0.));
#493=DIRECTION('',(0.584249665637441,0.811573981965008,0.));
#494=DIRECTION('',(0.,0.,1.));
#495=DIRECTION('',(1.,0.,0.));
#496=DIRECTION('',(-0.989779692430382,-0.142604910337683,0.));
#497=DIRECTION('',(0.319047619047619,0.947738685915081,0.));
#498=DIRECTION('',(0.,0.,1.));
#499=DIRECTION('',(1.,0.,0.));
#500=DIRECTION('',(0.,0.,1.));
#501=DIRECTION('',(1.,0.,0.));
#502=DIRECTION('',(-0.976296007119934,-0.2164396139381,0.));
#503=DIRECTION('',(0.2164396139381,-0.976296007119934,0.));
#504=DIRECTION('',(0.976296007119934,0.2164396139381,0.));
#505=DIRECTION('',(0.,0.,1.));
#506=DIRECTION('',(1.,0.,0.));
#507=DIRECTION('',(0.,0.,1.));
#508=DIRECTION('',(1.,0.,0.));
#509=DIRECTION('',(0.,0.,-1.));
#510=DIRECTION('',(0.,0.,1.));
#511=DIRECTION('',(0.,0.,1.));
#512=DIRECTION('',(1.,0.,0.));
#513=DIRECTION('',(0.,0.,1.));
#514=DIRECTION('',(0.,0.,1.));
#515=DIRECTION('',(-0.142604910337682,0.989779692430382,0.));
#516=DIRECTION('',(-0.989779692430382,-0.142604910337682,0.));
#517=DIRECTION('',(0.,0.,1.));
#518=DIRECTION('',(0.,0.,1.));
#519=DIRECTION('',(1.,0.,0.));
#520=DIRECTION('',(0.,0.,1.));
#521=DIRECTION('',(0.811573981965008,-0.584249665637441,0.));
#522=DIRECTION('',(0.584249665637441,0.811573981965008,0.));
#523=DIRECTION('',(0.,0.,-1.));
#524=DIRECTION('',(-0.976296007119934,-0.2164396139381,0.));
#525=DIRECTION('',(0.2164396139381,-0.976296007119934,0.));
#526=DIRECTION('',(0.,0.,1.));
#527=DIRECTION('',(0.,0.,1.));
#528=DIRECTION('',(0.2164396139381,-0.976296007119934,0.));
#529=DIRECTION('',(0.976296007119934,0.2164396139381,0.));
#530=DIRECTION('',(0.,0.,-1.));
#531=DIRECTION('',(-0.2164396139381,0.976296007119934,0.));
#532=DIRECTION('',(-0.976296007119934,-0.2164396139381,0.));
#533=DIRECTION('',(0.,0.,-1.));
#534=DIRECTION('',(0.,0.,1.));
#535=DIRECTION('',(1.,0.,0.));
#536=DIRECTION('',(0.,0.,1.));
#537=DIRECTION('',(1.,0.,0.));
#538=DIRECTION('',(0.,0.,1.));
#539=DIRECTION('',(1.,0.,0.));
#540=DIRECTION('',(0.946629142920687,-0.155061752561556,0.282575863558414));
#541=DIRECTION('',(0.,-1.,0.));
#542=DIRECTION('',(-0.920445135939133,0.150772704371981,-0.360622161468691));
#543=DIRECTION('',(0.161649797532998,0.986848186377996,0.));
#544=DIRECTION('',(-0.986848186377996,0.161649797532998,0.));
#545=DIRECTION('',(0.946629142920687,-0.155061752561556,0.282575863558414));
#546=DIRECTION('',(0.,0.,-1.));
#547=DIRECTION('',(-0.161649797532999,-0.986848186377996,0.));
#548=DIRECTION('',(0.986848186377996,-0.161649797532999,0.));
#549=DIRECTION('',(0.,0.,1.));
#550=DIRECTION('',(0.920445135939133,-0.15077270437198,0.360622161468691));
#551=DIRECTION('',(0.,1.,1.30104260698261E-16));
#552=DIRECTION('',(-0.161649797532998,0.986848186377996,0.));
#553=DIRECTION('',(0.986848186377996,0.161649797532998,0.));
#554=DIRECTION('',(-0.946629142920687,-0.155061752561556,0.282575863558414));
#555=DIRECTION('',(-0.946629142920687,-0.155061752561556,0.282575863558414));
#556=DIRECTION('',(0.920445135939133,0.150772704371981,-0.360622161468691));
#557=DIRECTION('',(0.161649797532999,-0.986848186377996,0.));
#558=DIRECTION('',(-0.986848186377996,-0.161649797532999,0.));
#559=DIRECTION('',(-0.920445135939133,-0.15077270437198,0.360622161468691));
#560=CARTESIAN_POINT('',(0.,0.,0.));
#561=CARTESIAN_POINT('',(0.,0.,-0.0005));
#562=CARTESIAN_POINT('',(0.,0.,0.));
#563=CARTESIAN_POINT('',(0.00335,-0.00995125620210835,2.71050543121376E-20));
#564=CARTESIAN_POINT('',(0.00651562292120914,0.0082338725973028,0.));
#565=CARTESIAN_POINT('',(0.00335,-0.00995125620210835,0.));
#566=CARTESIAN_POINT('',(0.00335,-0.00995125620210835,-0.0005));
#567=CARTESIAN_POINT('',(0.,0.,-0.0005));
#568=CARTESIAN_POINT('',(0.00651562292120914,0.0082338725973028,-0.0005));
#569=CARTESIAN_POINT('',(0.00651562292120914,0.0082338725973028,-0.0005));
#570=CARTESIAN_POINT('',(0.,0.,-0.0005));
#571=CARTESIAN_POINT('',(0.,0.,-0.0005));
#572=CARTESIAN_POINT('',(0.00439592724414307,0.00953550332516332,-0.0005));
#573=CARTESIAN_POINT('',(-0.00335,-0.00995125620210835,-0.0005));
#574=CARTESIAN_POINT('',(-0.00335,-0.00995125620210835,0.));
#575=CARTESIAN_POINT('',(-0.00335,-0.00995125620210835,2.71050543121376E-20));
#576=CARTESIAN_POINT('',(0.,0.,0.));
#577=CARTESIAN_POINT('',(0.00439592724414307,0.00953550332516332,0.));
#578=CARTESIAN_POINT('',(0.00439592724414307,0.00953550332516332,-0.0005));
#579=CARTESIAN_POINT('',(0.,0.,-0.0005));
#580=CARTESIAN_POINT('',(0.00255238095238095,-0.00758190948732065,-0.0005));
#581=CARTESIAN_POINT('',(0.00255238095238095,-0.00758190948732065,-0.0005));
#582=CARTESIAN_POINT('',(0.,0.,-0.0005));
#583=CARTESIAN_POINT('',(-0.00799919075894747,-0.000113785772262406,-0.0005));
#584=CARTESIAN_POINT('',(-0.00789920087446063,-0.000112363450109126,-0.0005));
#585=CARTESIAN_POINT('',(-0.00787755691306682,-0.00020999305082112,-0.0005));
#586=CARTESIAN_POINT('',(-0.00667058346718672,5.75865200822516E-5,-0.0005));
#587=CARTESIAN_POINT('',(-0.00667058346718672,5.75865200822516E-5,-0.0005));
#588=CARTESIAN_POINT('',(-0.00667058346718672,5.75865200822516E-5,-0.0005));
#589=CARTESIAN_POINT('',(-0.00602126462537242,-0.00287130150127755,-0.0005));
#590=CARTESIAN_POINT('',(-0.00602126462537242,-0.00287130150127755,-0.0005));
#591=CARTESIAN_POINT('',(-0.00722823807125252,-0.00313888107218092,-0.0005));
#592=CARTESIAN_POINT('',(-0.00720659410985871,-0.00323651067289292,-0.0005));
#593=CARTESIAN_POINT('',(-0.00729781682011008,-0.0032774791624232,-0.0005));
#594=CARTESIAN_POINT('',(0.,0.,-0.0005));
#595=CARTESIAN_POINT('',(-0.00255238095238095,-0.00758190948732065,-0.0005));
#596=CARTESIAN_POINT('',(-0.00255238095238095,-0.00758190948732065,-0.0005));
#597=CARTESIAN_POINT('',(0.00439592724414307,0.00953550332516332,-0.0005));
#598=CARTESIAN_POINT('',(0.00680659574026715,0.0098828262368908,-0.0005));
#599=CARTESIAN_POINT('',(0.,0.,-0.0005));
#600=CARTESIAN_POINT('',(0.00701099598764929,0.00973888778358009,-0.0005));
#601=CARTESIAN_POINT('',(0.00613462148919313,0.00852152681063258,-0.0005));
#602=CARTESIAN_POINT('',(0.00642010368837946,0.00891808660142166,-0.0005));
#603=CARTESIAN_POINT('',(0.00682589067936196,0.00862596176860294,-0.0005));
#604=CARTESIAN_POINT('',(0.,0.,0.));
#605=CARTESIAN_POINT('',(0.,0.,0.));
#606=CARTESIAN_POINT('',(0.00255238095238095,-0.00758190948732065,0.));
#607=CARTESIAN_POINT('',(-0.00799919075894747,-0.000113785772262406,0.));
#608=CARTESIAN_POINT('',(0.00255238095238095,-0.00758190948732065,0.));
#609=CARTESIAN_POINT('',(0.00682589067936196,0.00862596176860294,0.));
#610=CARTESIAN_POINT('',(0.00642010368837946,0.00891808660142166,0.));
#611=CARTESIAN_POINT('',(0.00613462148919313,0.00852152681063258,0.));
#612=CARTESIAN_POINT('',(0.00701099598764929,0.00973888778358009,0.));
#613=CARTESIAN_POINT('',(0.,0.,0.));
#614=CARTESIAN_POINT('',(0.00680659574026715,0.0098828262368908,0.));
#615=CARTESIAN_POINT('',(0.00439592724414307,0.00953550332516332,0.));
#616=CARTESIAN_POINT('',(-0.00335,-0.00995125620210835,0.));
#617=CARTESIAN_POINT('',(-0.00255238095238095,-0.00758190948732065,0.));
#618=CARTESIAN_POINT('',(0.,0.,0.));
#619=CARTESIAN_POINT('',(-0.00729781682011008,-0.0032774791624232,0.));
#620=CARTESIAN_POINT('',(-0.00720659410985871,-0.00323651067289292,0.));
#621=CARTESIAN_POINT('',(-0.00722823807125252,-0.00313888107218092,0.));
#622=CARTESIAN_POINT('',(-0.00602126462537242,-0.00287130150127755,0.));
#623=CARTESIAN_POINT('',(-0.00602126462537242,-0.00287130150127755,0.));
#624=CARTESIAN_POINT('',(-0.00667058346718672,5.75865200822516E-5,0.));
#625=CARTESIAN_POINT('',(-0.00667058346718672,5.75865200822516E-5,0.));
#626=CARTESIAN_POINT('',(-0.00667058346718672,5.75865200822516E-5,0.));
#627=CARTESIAN_POINT('',(-0.00787755691306682,-0.00020999305082112,0.));
#628=CARTESIAN_POINT('',(-0.00789920087446063,-0.000112363450109126,0.));
#629=CARTESIAN_POINT('',(0.,0.,-0.0005));
#630=CARTESIAN_POINT('',(0.00255238095238095,-0.00758190948732065,0.));
#631=CARTESIAN_POINT('',(-0.00799919075894747,-0.000113785772262406,-0.0005));
#632=CARTESIAN_POINT('',(0.,0.,-0.0005));
#633=CARTESIAN_POINT('',(-0.00255238095238095,-0.00758190948732065,-0.0005));
#634=CARTESIAN_POINT('',(-0.00729781682011008,-0.00327747916242321,-0.0005));
#635=CARTESIAN_POINT('',(0.00439592724414307,0.00953550332516332,-0.0005));
#636=CARTESIAN_POINT('',(0.00680659574026715,0.0098828262368908,-0.0005));
#637=CARTESIAN_POINT('',(0.,0.,-0.0005));
#638=CARTESIAN_POINT('',(0.00701099598764929,0.00973888778358009,-0.0005));
#639=CARTESIAN_POINT('',(0.00613462148919313,0.00852152681063258,-0.0005));
#640=CARTESIAN_POINT('',(0.00642010368837946,0.00891808660142166,-0.0005));
#641=CARTESIAN_POINT('',(-0.00667058346718672,5.75865200822516E-5,-0.0005));
#642=CARTESIAN_POINT('',(-0.00602126462537242,-0.00287130150127755,-0.0005));
#643=CARTESIAN_POINT('',(-0.00667058346718672,5.75865200822516E-5,-0.0005));
#644=CARTESIAN_POINT('',(-0.00667058346718672,5.75865200822516E-5,-0.0005));
#645=CARTESIAN_POINT('',(-0.00787755691306682,-0.00020999305082112,0.));
#646=CARTESIAN_POINT('',(-0.00602126462537242,-0.00287130150127755,-0.0005));
#647=CARTESIAN_POINT('',(-0.00722823807125252,-0.00313888107218092,-0.0005));
#648=CARTESIAN_POINT('',(-0.00789920087446063,-0.000112363450109126,-0.0005));
#649=CARTESIAN_POINT('',(-0.00720659410985871,-0.00323651067289292,-0.0005));
#650=CARTESIAN_POINT('',(0.00682589067936196,0.00862596176860294,-0.0005));
#651=CARTESIAN_POINT('',(-0.00255238095238095,-0.00758190948732065,0.));
#652=CARTESIAN_POINT('',(0.,-0.008,0.001));
#653=CARTESIAN_POINT('',(-0.00268531746031746,-0.00797680060645194,0.));
#654=CARTESIAN_POINT('',(0.,-0.00841666666666663,0.001));
#655=CARTESIAN_POINT('',(-0.00281825396825397,-0.00837169172558323,0.));
#656=CARTESIAN_POINT('',(0.,-0.00883333333333328,0.001));
#657=CARTESIAN_POINT('',(-0.00308412698412699,-0.0091614739638458,0.));
#658=CARTESIAN_POINT('',(0.,-0.00966666666666661,0.001));
#659=CARTESIAN_POINT('',(-0.00321706349206349,-0.00955636508297708,0.));
#660=CARTESIAN_POINT('',(0.,-0.0100833333333333,0.001));
#661=CARTESIAN_POINT('',(-0.00335,-0.00995125620210835,0.));
#662=CARTESIAN_POINT('',(0.,-0.0105,0.001));
#663=CARTESIAN_POINT('',(-0.001675,-0.0102256281010542,0.0005));
#664=CARTESIAN_POINT('',(0.,-0.0105,0.001));
#665=CARTESIAN_POINT('',(0.,-0.008,0.001));
#666=CARTESIAN_POINT('',(0.,-0.008,0.001));
#667=CARTESIAN_POINT('',(-0.00127619047619047,-0.00779095474366032,0.0005));
#668=CARTESIAN_POINT('',(-0.001675,-0.0102256281010542,0.));
#669=CARTESIAN_POINT('',(-0.00335,-0.00995125620210835,-0.0005));
#670=CARTESIAN_POINT('',(0.,-0.0105,0.0005));
#671=CARTESIAN_POINT('',(0.,-0.0105,0.001));
#672=CARTESIAN_POINT('',(-0.00127619047619049,-0.00779095474366032,0.));
#673=CARTESIAN_POINT('',(0.,-0.008,0.001));
#674=CARTESIAN_POINT('',(0.,-0.008,0.0005));
#675=CARTESIAN_POINT('',(-0.00127619047619048,-0.00779095474366033,-5.42101086242752E-20));
#676=CARTESIAN_POINT('',(-0.00335,-0.00995125620210835,-0.0005));
#677=CARTESIAN_POINT('',(0.,-0.0105,0.0005));
#678=CARTESIAN_POINT('',(-0.00321706349206349,-0.00955636508297708,-0.0005));
#679=CARTESIAN_POINT('',(0.,-0.0100833333333332,0.0005));
#680=CARTESIAN_POINT('',(-0.00308412698412699,-0.0091614739638458,-0.0005));
#681=CARTESIAN_POINT('',(0.,-0.00966666666666649,0.0005));
#682=CARTESIAN_POINT('',(-0.00281825396825397,-0.00837169172558323,-0.0005));
#683=CARTESIAN_POINT('',(0.,-0.00883333333333316,0.0005));
#684=CARTESIAN_POINT('',(-0.00268531746031746,-0.00797680060645194,-0.0005));
#685=CARTESIAN_POINT('',(0.,-0.00841666666666655,0.0005));
#686=CARTESIAN_POINT('',(-0.00255238095238095,-0.00758190948732065,-0.0005));
#687=CARTESIAN_POINT('',(0.,-0.008,0.0005));
#688=CARTESIAN_POINT('',(0.,-0.008,0.0005));
#689=CARTESIAN_POINT('',(0.001675,-0.0102256281010542,0.));
#690=CARTESIAN_POINT('',(0.00335,-0.00995125620210835,-0.0005));
#691=CARTESIAN_POINT('',(0.001675,-0.0102256281010542,0.0005));
#692=CARTESIAN_POINT('',(0.00255238095238095,-0.00758190948732065,0.));
#693=CARTESIAN_POINT('',(0.,-0.008,0.001));
#694=CARTESIAN_POINT('',(0.00268531746031746,-0.00797680060645194,0.));
#695=CARTESIAN_POINT('',(0.,-0.00841666666666663,0.001));
#696=CARTESIAN_POINT('',(0.00281825396825397,-0.00837169172558323,0.));
#697=CARTESIAN_POINT('',(0.,-0.00883333333333328,0.001));
#698=CARTESIAN_POINT('',(0.00308412698412699,-0.0091614739638458,0.));
#699=CARTESIAN_POINT('',(0.,-0.00966666666666661,0.001));
#700=CARTESIAN_POINT('',(0.00321706349206349,-0.00955636508297708,0.));
#701=CARTESIAN_POINT('',(0.,-0.0100833333333333,0.001));
#702=CARTESIAN_POINT('',(0.00335,-0.00995125620210835,0.));
#703=CARTESIAN_POINT('',(0.,-0.0105,0.001));
#704=CARTESIAN_POINT('',(0.00127619047619047,-0.00779095474366032,0.0005));
#705=CARTESIAN_POINT('',(0.00127619047619049,-0.00779095474366032,0.));
#706=CARTESIAN_POINT('',(0.00127619047619048,-0.00779095474366033,-5.42101086242752E-20));
#707=CARTESIAN_POINT('',(0.00335,-0.00995125620210835,-0.0005));
#708=CARTESIAN_POINT('',(0.,-0.0105,0.0005));
#709=CARTESIAN_POINT('',(0.00321706349206349,-0.00955636508297708,-0.0005));
#710=CARTESIAN_POINT('',(0.,-0.0100833333333332,0.0005));
#711=CARTESIAN_POINT('',(0.00308412698412699,-0.0091614739638458,-0.0005));
#712=CARTESIAN_POINT('',(0.,-0.00966666666666649,0.0005));
#713=CARTESIAN_POINT('',(0.00281825396825397,-0.00837169172558323,-0.0005));
#714=CARTESIAN_POINT('',(0.,-0.00883333333333316,0.0005));
#715=CARTESIAN_POINT('',(0.00268531746031746,-0.00797680060645194,-0.0005));
#716=CARTESIAN_POINT('',(0.,-0.00841666666666655,0.0005));
#717=CARTESIAN_POINT('',(0.00255238095238095,-0.00758190948732065,-0.0005));
#718=CARTESIAN_POINT('',(0.,-0.008,0.0005));
#719=(
GEOMETRIC_REPRESENTATION_CONTEXT(3)
GLOBAL_UNCERTAINTY_ASSIGNED_CONTEXT((#720))
GLOBAL_UNIT_ASSIGNED_CONTEXT((#723,#722,#721))
REPRESENTATION_CONTEXT('id2','TOP_LEVEL_ASSEMBLY_PART')
);
#720=UNCERTAINTY_MEASURE_WITH_UNIT(LENGTH_MEASURE(4.E-8),#723,
'DISTANCE_ACCURACY_VALUE','Maximum Tolerance applied to model');
#721=(
NAMED_UNIT(*)
SI_UNIT($,.STERADIAN.)
SOLID_ANGLE_UNIT()
);
#722=(
NAMED_UNIT(*)
PLANE_ANGLE_UNIT()
SI_UNIT($,.RADIAN.)
);
#723=(
LENGTH_UNIT()
NAMED_UNIT(*)
SI_UNIT($,.METRE.)
);
#724=PRODUCT_DEFINITION_SHAPE('','',#725);
#725=PRODUCT_DEFINITION('','',#727,#726);
#726=PRODUCT_DEFINITION_CONTEXT('',#733,'design');
#727=PRODUCT_DEFINITION_FORMATION_WITH_SPECIFIED_SOURCE('','',#729,
 .NOT_KNOWN.);
#728=PRODUCT_RELATED_PRODUCT_CATEGORY('','',(#729));
#729=PRODUCT('id2','id2','id2',(#731));
#730=PRODUCT_CATEGORY('','');
#731=PRODUCT_CONTEXT('',#733,'mechanical');
#732=APPLICATION_PROTOCOL_DEFINITION('international standard',
'ap242_managed_model_based_3d_engineering',2020,#733);
#733=APPLICATION_CONTEXT('managed model based 3d engineering');
ENDSEC;
END-ISO-10303-21;
