ISO-10303-21;
HEADER;
/* Generated by software containing ST-Developer
 * from STEP Tools, Inc. (www.steptools.com) 
 */
/* OPTION: using custom renumber hook */

FILE_DESCRIPTION(
/* description */ ('STEP AP242 Edition 2',
'CAx-IF Rec.Pracs.---Representation and Presentation of Product Manufa
cturing Information (PMI)---4.0---2014-10-13',
'CAx-IF Rec.Pracs.---3D Tessellated Geometry---0.4---2014-09-14','2;1',
'CAx-IF Rec.Pracs.---User Defined Attributes---1.5---2016-08-15'),
/* implementation_level */ '2;1');

FILE_NAME(
/* name */ '10101',
/* time_stamp */ '2026-07-13T05:00:26Z',
/* author */ (''),
/* organization */ (''),
/* preprocessor_version */ 'ST-DEVELOPER v20',
/* originating_system */ 'ONSHAPE BY PTC INC, 1.217',
/* authorisation */ '  ');

FILE_SCHEMA (('AP242_MANAGED_MODEL_BASED_3D_ENGINEERING_MIM_LF { 1 0 10303 442 3 1 4 }'));
ENDSEC;

DATA;
#10=SHAPE_REPRESENTATION_RELATIONSHIP('','',#372,#11);
#11=ADVANCED_BREP_SHAPE_REPRESENTATION('',(#370),#649);
#12=B_SPLINE_SURFACE_WITH_KNOTS('',3,1,((#580,#581),(#582,#583),(#584,#585),
(#586,#587),(#588,#589),(#590,#591)),.RULED_SURF.,.F.,.F.,.F.,(4,2,4),(2,
2),(0.,0.5,1.),(0.,1.),.UNSPECIFIED.);
#13=B_SPLINE_SURFACE_WITH_KNOTS('',3,1,((#605,#606),(#607,#608),(#609,#610),
(#611,#612),(#613,#614),(#615,#616)),.RULED_SURF.,.F.,.F.,.F.,(4,2,4),(2,
2),(0.,0.5,1.),(0.,1.),.UNSPECIFIED.);
#14=B_SPLINE_SURFACE_WITH_KNOTS('',3,1,((#621,#622),(#623,#624),(#625,#626),
(#627,#628),(#629,#630),(#631,#632)),.RULED_SURF.,.F.,.F.,.F.,(4,2,4),(2,
2),(0.,0.5,1.),(0.,1.),.UNSPECIFIED.);
#15=B_SPLINE_SURFACE_WITH_KNOTS('',3,1,((#636,#637),(#638,#639),(#640,#641),
(#642,#643),(#644,#645),(#646,#647)),.RULED_SURF.,.F.,.F.,.F.,(4,2,4),(2,
2),(0.,0.5,1.),(0.,1.),.UNSPECIFIED.);
#16=PLANE('',#380);
#17=PLANE('',#385);
#18=PLANE('',#392);
#19=PLANE('',#394);
#20=PLANE('',#395);
#21=PLANE('',#396);
#22=PLANE('',#397);
#23=PLANE('',#398);
#24=PLANE('',#399);
#25=PLANE('',#400);
#26=PLANE('',#401);
#27=LINE('',#507,#66);
#28=LINE('',#511,#67);
#29=LINE('',#516,#68);
#30=LINE('',#520,#69);
#31=LINE('',#522,#70);
#32=LINE('',#526,#71);
#33=LINE('',#528,#72);
#34=LINE('',#530,#73);
#35=LINE('',#534,#74);
#36=LINE('',#535,#75);
#37=LINE('',#539,#76);
#38=LINE('',#546,#77);
#39=LINE('',#549,#78);
#40=LINE('',#553,#79);
#41=LINE('',#554,#80);
#42=LINE('',#558,#81);
#43=LINE('',#560,#82);
#44=LINE('',#562,#83);
#45=LINE('',#564,#84);
#46=LINE('',#565,#85);
#47=LINE('',#567,#86);
#48=LINE('',#568,#87);
#49=LINE('',#570,#88);
#50=LINE('',#572,#89);
#51=LINE('',#574,#90);
#52=LINE('',#576,#91);
#53=LINE('',#578,#92);
#54=LINE('',#592,#93);
#55=LINE('',#594,#94);
#56=LINE('',#596,#95);
#57=LINE('',#598,#96);
#58=LINE('',#600,#97);
#59=LINE('',#602,#98);
#60=LINE('',#604,#99);
#61=LINE('',#617,#100);
#62=LINE('',#619,#101);
#63=LINE('',#620,#102);
#64=LINE('',#633,#103);
#65=LINE('',#635,#104);
#66=VECTOR('',#409,1.);
#67=VECTOR('',#412,1.);
#68=VECTOR('',#417,1.);
#69=VECTOR('',#420,1.);
#70=VECTOR('',#423,1.);
#71=VECTOR('',#426,1.);
#72=VECTOR('',#427,1.);
#73=VECTOR('',#428,1.);
#74=VECTOR('',#431,1.);
#75=VECTOR('',#432,1.);
#76=VECTOR('',#435,1.);
#77=VECTOR('',#442,1.);
#78=VECTOR('',#445,1.);
#79=VECTOR('',#448,1.);
#80=VECTOR('',#449,1.);
#81=VECTOR('',#452,1.);
#82=VECTOR('',#453,1.);
#83=VECTOR('',#454,1.);
#84=VECTOR('',#457,1.);
#85=VECTOR('',#458,1.);
#86=VECTOR('',#461,1.);
#87=VECTOR('',#462,1.);
#88=VECTOR('',#465,1.);
#89=VECTOR('',#468,1.);
#90=VECTOR('',#471,1.);
#91=VECTOR('',#474,1.);
#92=VECTOR('',#477,1.);
#93=VECTOR('',#480,1.);
#94=VECTOR('',#481,1.);
#95=VECTOR('',#482,1.);
#96=VECTOR('',#485,1.);
#97=VECTOR('',#486,1.);
#98=VECTOR('',#489,1.);
#99=VECTOR('',#490,1.);
#100=VECTOR('',#491,1.);
#101=VECTOR('',#494,1.);
#102=VECTOR('',#495,1.);
#103=VECTOR('',#496,1.);
#104=VECTOR('',#499,1.);
#105=ORIENTED_EDGE('',*,*,#207,.T.);
#106=ORIENTED_EDGE('',*,*,#208,.T.);
#107=ORIENTED_EDGE('',*,*,#209,.F.);
#108=ORIENTED_EDGE('',*,*,#210,.T.);
#109=ORIENTED_EDGE('',*,*,#211,.T.);
#110=ORIENTED_EDGE('',*,*,#212,.F.);
#111=ORIENTED_EDGE('',*,*,#213,.F.);
#112=ORIENTED_EDGE('',*,*,#214,.F.);
#113=ORIENTED_EDGE('',*,*,#215,.T.);
#114=ORIENTED_EDGE('',*,*,#216,.T.);
#115=ORIENTED_EDGE('',*,*,#217,.F.);
#116=ORIENTED_EDGE('',*,*,#218,.F.);
#117=ORIENTED_EDGE('',*,*,#219,.F.);
#118=ORIENTED_EDGE('',*,*,#220,.T.);
#119=ORIENTED_EDGE('',*,*,#221,.T.);
#120=ORIENTED_EDGE('',*,*,#211,.F.);
#121=ORIENTED_EDGE('',*,*,#222,.F.);
#122=ORIENTED_EDGE('',*,*,#223,.F.);
#123=ORIENTED_EDGE('',*,*,#224,.F.);
#124=ORIENTED_EDGE('',*,*,#225,.T.);
#125=ORIENTED_EDGE('',*,*,#207,.F.);
#126=ORIENTED_EDGE('',*,*,#226,.F.);
#127=ORIENTED_EDGE('',*,*,#227,.F.);
#128=ORIENTED_EDGE('',*,*,#209,.T.);
#129=ORIENTED_EDGE('',*,*,#228,.T.);
#130=ORIENTED_EDGE('',*,*,#229,.T.);
#131=ORIENTED_EDGE('',*,*,#230,.T.);
#132=ORIENTED_EDGE('',*,*,#231,.T.);
#133=ORIENTED_EDGE('',*,*,#213,.T.);
#134=ORIENTED_EDGE('',*,*,#232,.F.);
#135=ORIENTED_EDGE('',*,*,#233,.F.);
#136=ORIENTED_EDGE('',*,*,#234,.T.);
#137=ORIENTED_EDGE('',*,*,#235,.T.);
#138=ORIENTED_EDGE('',*,*,#236,.T.);
#139=ORIENTED_EDGE('',*,*,#237,.F.);
#140=ORIENTED_EDGE('',*,*,#226,.T.);
#141=ORIENTED_EDGE('',*,*,#238,.T.);
#142=ORIENTED_EDGE('',*,*,#216,.F.);
#143=ORIENTED_EDGE('',*,*,#239,.T.);
#144=ORIENTED_EDGE('',*,*,#220,.F.);
#145=ORIENTED_EDGE('',*,*,#240,.T.);
#146=ORIENTED_EDGE('',*,*,#233,.T.);
#147=ORIENTED_EDGE('',*,*,#231,.F.);
#148=ORIENTED_EDGE('',*,*,#241,.F.);
#149=ORIENTED_EDGE('',*,*,#222,.T.);
#150=ORIENTED_EDGE('',*,*,#214,.T.);
#151=ORIENTED_EDGE('',*,*,#230,.F.);
#152=ORIENTED_EDGE('',*,*,#242,.F.);
#153=ORIENTED_EDGE('',*,*,#223,.T.);
#154=ORIENTED_EDGE('',*,*,#241,.T.);
#155=ORIENTED_EDGE('',*,*,#229,.F.);
#156=ORIENTED_EDGE('',*,*,#243,.T.);
#157=ORIENTED_EDGE('',*,*,#224,.T.);
#158=ORIENTED_EDGE('',*,*,#242,.T.);
#159=ORIENTED_EDGE('',*,*,#238,.F.);
#160=ORIENTED_EDGE('',*,*,#236,.F.);
#161=ORIENTED_EDGE('',*,*,#244,.F.);
#162=ORIENTED_EDGE('',*,*,#217,.T.);
#163=ORIENTED_EDGE('',*,*,#240,.F.);
#164=ORIENTED_EDGE('',*,*,#219,.T.);
#165=ORIENTED_EDGE('',*,*,#245,.T.);
#166=ORIENTED_EDGE('',*,*,#234,.F.);
#167=ORIENTED_EDGE('',*,*,#235,.F.);
#168=ORIENTED_EDGE('',*,*,#245,.F.);
#169=ORIENTED_EDGE('',*,*,#218,.T.);
#170=ORIENTED_EDGE('',*,*,#244,.T.);
#171=ORIENTED_EDGE('',*,*,#232,.T.);
#172=ORIENTED_EDGE('',*,*,#246,.T.);
#173=ORIENTED_EDGE('',*,*,#247,.F.);
#174=ORIENTED_EDGE('',*,*,#248,.T.);
#175=ORIENTED_EDGE('',*,*,#249,.T.);
#176=ORIENTED_EDGE('',*,*,#250,.F.);
#177=ORIENTED_EDGE('',*,*,#246,.F.);
#178=ORIENTED_EDGE('',*,*,#212,.T.);
#179=ORIENTED_EDGE('',*,*,#248,.F.);
#180=ORIENTED_EDGE('',*,*,#251,.F.);
#181=ORIENTED_EDGE('',*,*,#252,.F.);
#182=ORIENTED_EDGE('',*,*,#239,.F.);
#183=ORIENTED_EDGE('',*,*,#221,.F.);
#184=ORIENTED_EDGE('',*,*,#252,.T.);
#185=ORIENTED_EDGE('',*,*,#253,.F.);
#186=ORIENTED_EDGE('',*,*,#249,.F.);
#187=ORIENTED_EDGE('',*,*,#254,.F.);
#188=ORIENTED_EDGE('',*,*,#210,.F.);
#189=ORIENTED_EDGE('',*,*,#255,.T.);
#190=ORIENTED_EDGE('',*,*,#250,.T.);
#191=ORIENTED_EDGE('',*,*,#227,.T.);
#192=ORIENTED_EDGE('',*,*,#256,.F.);
#193=ORIENTED_EDGE('',*,*,#247,.T.);
#194=ORIENTED_EDGE('',*,*,#255,.F.);
#195=ORIENTED_EDGE('',*,*,#256,.T.);
#196=ORIENTED_EDGE('',*,*,#237,.T.);
#197=ORIENTED_EDGE('',*,*,#257,.T.);
#198=ORIENTED_EDGE('',*,*,#251,.T.);
#199=ORIENTED_EDGE('',*,*,#215,.F.);
#200=ORIENTED_EDGE('',*,*,#254,.T.);
#201=ORIENTED_EDGE('',*,*,#253,.T.);
#202=ORIENTED_EDGE('',*,*,#257,.F.);
#203=ORIENTED_EDGE('',*,*,#225,.F.);
#204=ORIENTED_EDGE('',*,*,#243,.F.);
#205=ORIENTED_EDGE('',*,*,#228,.F.);
#206=ORIENTED_EDGE('',*,*,#208,.F.);
#207=EDGE_CURVE('',#258,#259,#288,.T.);
#208=EDGE_CURVE('',#259,#260,#27,.T.);
#209=EDGE_CURVE('',#261,#260,#289,.T.);
#210=EDGE_CURVE('',#261,#258,#28,.T.);
#211=EDGE_CURVE('',#262,#263,#290,.T.);
#212=EDGE_CURVE('',#264,#263,#29,.F.);
#213=EDGE_CURVE('',#265,#264,#291,.T.);
#214=EDGE_CURVE('',#262,#265,#30,.T.);
#215=EDGE_CURVE('',#258,#266,#31,.T.);
#216=EDGE_CURVE('',#266,#267,#292,.T.);
#217=EDGE_CURVE('',#268,#267,#32,.T.);
#218=EDGE_CURVE('',#269,#268,#33,.T.);
#219=EDGE_CURVE('',#270,#269,#34,.T.);
#220=EDGE_CURVE('',#270,#271,#293,.T.);
#221=EDGE_CURVE('',#271,#263,#35,.T.);
#222=EDGE_CURVE('',#272,#262,#36,.T.);
#223=EDGE_CURVE('',#273,#272,#294,.T.);
#224=EDGE_CURVE('',#274,#273,#37,.T.);
#225=EDGE_CURVE('',#274,#259,#295,.T.);
#226=EDGE_CURVE('',#275,#276,#296,.T.);
#227=EDGE_CURVE('',#261,#275,#38,.T.);
#228=EDGE_CURVE('',#260,#277,#297,.F.);
#229=EDGE_CURVE('',#277,#278,#39,.T.);
#230=EDGE_CURVE('',#278,#279,#298,.T.);
#231=EDGE_CURVE('',#279,#265,#40,.T.);
#232=EDGE_CURVE('',#280,#264,#41,.F.);
#233=EDGE_CURVE('',#281,#280,#299,.T.);
#234=EDGE_CURVE('',#281,#282,#42,.T.);
#235=EDGE_CURVE('',#282,#283,#43,.T.);
#236=EDGE_CURVE('',#283,#276,#44,.T.);
#237=EDGE_CURVE('',#275,#266,#45,.T.);
#238=EDGE_CURVE('',#276,#267,#46,.F.);
#239=EDGE_CURVE('',#280,#271,#47,.F.);
#240=EDGE_CURVE('',#270,#281,#48,.T.);
#241=EDGE_CURVE('',#272,#279,#49,.T.);
#242=EDGE_CURVE('',#273,#278,#50,.T.);
#243=EDGE_CURVE('',#277,#274,#51,.T.);
#244=EDGE_CURVE('',#268,#283,#52,.T.);
#245=EDGE_CURVE('',#269,#282,#53,.T.);
#246=EDGE_CURVE('',#264,#284,#54,.T.);
#247=EDGE_CURVE('',#285,#284,#55,.T.);
#248=EDGE_CURVE('',#285,#280,#56,.T.);
#249=EDGE_CURVE('',#263,#286,#57,.T.);
#250=EDGE_CURVE('',#284,#286,#58,.T.);
#251=EDGE_CURVE('',#287,#285,#59,.T.);
#252=EDGE_CURVE('',#271,#287,#60,.T.);
#253=EDGE_CURVE('',#286,#287,#61,.T.);
#254=EDGE_CURVE('',#258,#286,#62,.T.);
#255=EDGE_CURVE('',#261,#284,#63,.T.);
#256=EDGE_CURVE('',#285,#275,#64,.T.);
#257=EDGE_CURVE('',#266,#287,#65,.T.);
#258=VERTEX_POINT('',#505);
#259=VERTEX_POINT('',#506);
#260=VERTEX_POINT('',#508);
#261=VERTEX_POINT('',#510);
#262=VERTEX_POINT('',#514);
#263=VERTEX_POINT('',#515);
#264=VERTEX_POINT('',#517);
#265=VERTEX_POINT('',#519);
#266=VERTEX_POINT('',#523);
#267=VERTEX_POINT('',#525);
#268=VERTEX_POINT('',#527);
#269=VERTEX_POINT('',#529);
#270=VERTEX_POINT('',#531);
#271=VERTEX_POINT('',#533);
#272=VERTEX_POINT('',#536);
#273=VERTEX_POINT('',#538);
#274=VERTEX_POINT('',#540);
#275=VERTEX_POINT('',#544);
#276=VERTEX_POINT('',#545);
#277=VERTEX_POINT('',#548);
#278=VERTEX_POINT('',#550);
#279=VERTEX_POINT('',#552);
#280=VERTEX_POINT('',#555);
#281=VERTEX_POINT('',#557);
#282=VERTEX_POINT('',#559);
#283=VERTEX_POINT('',#561);
#284=VERTEX_POINT('',#593);
#285=VERTEX_POINT('',#595);
#286=VERTEX_POINT('',#599);
#287=VERTEX_POINT('',#603);
#288=CIRCLE('',#375,0.0105);
#289=CIRCLE('',#376,0.0105);
#290=CIRCLE('',#378,0.0105);
#291=CIRCLE('',#379,0.0105);
#292=CIRCLE('',#381,0.008);
#293=CIRCLE('',#382,0.008);
#294=CIRCLE('',#383,0.012);
#295=CIRCLE('',#384,0.0005);
#296=CIRCLE('',#386,0.008);
#297=CIRCLE('',#387,0.0005);
#298=CIRCLE('',#388,0.012);
#299=CIRCLE('',#389,0.008);
#300=EDGE_LOOP('',(#105,#106,#107,#108));
#301=EDGE_LOOP('',(#109,#110,#111,#112));
#302=EDGE_LOOP('',(#113,#114,#115,#116,#117,#118,#119,#120,#121,#122,#123,
#124,#125));
#303=EDGE_LOOP('',(#126,#127,#128,#129,#130,#131,#132,#133,#134,#135,#136,
#137,#138));
#304=EDGE_LOOP('',(#139,#140,#141,#142));
#305=EDGE_LOOP('',(#143,#144,#145,#146));
#306=EDGE_LOOP('',(#147,#148,#149,#150));
#307=EDGE_LOOP('',(#151,#152,#153,#154));
#308=EDGE_LOOP('',(#155,#156,#157,#158));
#309=EDGE_LOOP('',(#159,#160,#161,#162));
#310=EDGE_LOOP('',(#163,#164,#165,#166));
#311=EDGE_LOOP('',(#167,#168,#169,#170));
#312=EDGE_LOOP('',(#171,#172,#173,#174));
#313=EDGE_LOOP('',(#175,#176,#177,#178));
#314=EDGE_LOOP('',(#179,#180,#181,#182));
#315=EDGE_LOOP('',(#183,#184,#185,#186));
#316=EDGE_LOOP('',(#187,#188,#189,#190));
#317=EDGE_LOOP('',(#191,#192,#193,#194));
#318=EDGE_LOOP('',(#195,#196,#197,#198));
#319=EDGE_LOOP('',(#199,#200,#201,#202));
#320=EDGE_LOOP('',(#203,#204,#205,#206));
#321=FACE_BOUND('',#300,.T.);
#322=FACE_BOUND('',#301,.T.);
#323=FACE_BOUND('',#302,.T.);
#324=FACE_BOUND('',#303,.T.);
#325=FACE_BOUND('',#304,.T.);
#326=FACE_BOUND('',#305,.T.);
#327=FACE_BOUND('',#306,.T.);
#328=FACE_BOUND('',#307,.T.);
#329=FACE_BOUND('',#308,.T.);
#330=FACE_BOUND('',#309,.T.);
#331=FACE_BOUND('',#310,.T.);
#332=FACE_BOUND('',#311,.T.);
#333=FACE_BOUND('',#312,.T.);
#334=FACE_BOUND('',#313,.T.);
#335=FACE_BOUND('',#314,.T.);
#336=FACE_BOUND('',#315,.T.);
#337=FACE_BOUND('',#316,.T.);
#338=FACE_BOUND('',#317,.T.);
#339=FACE_BOUND('',#318,.T.);
#340=FACE_BOUND('',#319,.T.);
#341=FACE_BOUND('',#320,.T.);
#342=CYLINDRICAL_SURFACE('',#374,0.0105);
#343=CYLINDRICAL_SURFACE('',#377,0.0105);
#344=CYLINDRICAL_SURFACE('',#390,0.008);
#345=CYLINDRICAL_SURFACE('',#391,0.008);
#346=CYLINDRICAL_SURFACE('',#393,0.012);
#347=CYLINDRICAL_SURFACE('',#402,0.0005);
#348=ADVANCED_FACE('',(#321),#342,.T.);
#349=ADVANCED_FACE('',(#322),#343,.T.);
#350=ADVANCED_FACE('',(#323),#16,.F.);
#351=ADVANCED_FACE('',(#324),#17,.T.);
#352=ADVANCED_FACE('',(#325),#344,.F.);
#353=ADVANCED_FACE('',(#326),#345,.F.);
#354=ADVANCED_FACE('',(#327),#18,.T.);
#355=ADVANCED_FACE('',(#328),#346,.T.);
#356=ADVANCED_FACE('',(#329),#19,.T.);
#357=ADVANCED_FACE('',(#330),#20,.T.);
#358=ADVANCED_FACE('',(#331),#21,.T.);
#359=ADVANCED_FACE('',(#332),#22,.T.);
#360=ADVANCED_FACE('',(#333),#12,.T.);
#361=ADVANCED_FACE('',(#334),#23,.F.);
#362=ADVANCED_FACE('',(#335),#24,.F.);
#363=ADVANCED_FACE('',(#336),#13,.T.);
#364=ADVANCED_FACE('',(#337),#25,.F.);
#365=ADVANCED_FACE('',(#338),#14,.F.);
#366=ADVANCED_FACE('',(#339),#26,.F.);
#367=ADVANCED_FACE('',(#340),#15,.F.);
#368=ADVANCED_FACE('',(#341),#347,.F.);
#369=CLOSED_SHELL('',(#348,#349,#350,#351,#352,#353,#354,#355,#356,#357,
#358,#359,#360,#361,#362,#363,#364,#365,#366,#367,#368));
#370=MANIFOLD_SOLID_BREP('',#369);
#371=SHAPE_DEFINITION_REPRESENTATION(#654,#372);
#372=SHAPE_REPRESENTATION('id2',(#373),#649);
#373=AXIS2_PLACEMENT_3D('',#502,#403,#404);
#374=AXIS2_PLACEMENT_3D('',#503,#405,#406);
#375=AXIS2_PLACEMENT_3D('',#504,#407,#408);
#376=AXIS2_PLACEMENT_3D('',#509,#410,#411);
#377=AXIS2_PLACEMENT_3D('',#512,#413,#414);
#378=AXIS2_PLACEMENT_3D('',#513,#415,#416);
#379=AXIS2_PLACEMENT_3D('',#518,#418,#419);
#380=AXIS2_PLACEMENT_3D('',#521,#421,#422);
#381=AXIS2_PLACEMENT_3D('',#524,#424,#425);
#382=AXIS2_PLACEMENT_3D('',#532,#429,#430);
#383=AXIS2_PLACEMENT_3D('',#537,#433,#434);
#384=AXIS2_PLACEMENT_3D('',#541,#436,#437);
#385=AXIS2_PLACEMENT_3D('',#542,#438,#439);
#386=AXIS2_PLACEMENT_3D('',#543,#440,#441);
#387=AXIS2_PLACEMENT_3D('',#547,#443,#444);
#388=AXIS2_PLACEMENT_3D('',#551,#446,#447);
#389=AXIS2_PLACEMENT_3D('',#556,#450,#451);
#390=AXIS2_PLACEMENT_3D('',#563,#455,#456);
#391=AXIS2_PLACEMENT_3D('',#566,#459,#460);
#392=AXIS2_PLACEMENT_3D('',#569,#463,#464);
#393=AXIS2_PLACEMENT_3D('',#571,#466,#467);
#394=AXIS2_PLACEMENT_3D('',#573,#469,#470);
#395=AXIS2_PLACEMENT_3D('',#575,#472,#473);
#396=AXIS2_PLACEMENT_3D('',#577,#475,#476);
#397=AXIS2_PLACEMENT_3D('',#579,#478,#479);
#398=AXIS2_PLACEMENT_3D('',#597,#483,#484);
#399=AXIS2_PLACEMENT_3D('',#601,#487,#488);
#400=AXIS2_PLACEMENT_3D('',#618,#492,#493);
#401=AXIS2_PLACEMENT_3D('',#634,#497,#498);
#402=AXIS2_PLACEMENT_3D('',#648,#500,#501);
#403=DIRECTION('',(0.,0.,1.));
#404=DIRECTION('',(1.,0.,0.));
#405=DIRECTION('',(0.,0.,1.));
#406=DIRECTION('',(1.,0.,0.));
#407=DIRECTION('',(0.,0.,1.));
#408=DIRECTION('',(1.,0.,0.));
#409=DIRECTION('',(0.,0.,1.));
#410=DIRECTION('',(0.,0.,1.));
#411=DIRECTION('',(1.,0.,0.));
#412=DIRECTION('',(0.,0.,-1.));
#413=DIRECTION('',(0.,0.,1.));
#414=DIRECTION('',(1.,0.,0.));
#415=DIRECTION('',(0.,0.,1.));
#416=DIRECTION('',(1.,0.,0.));
#417=DIRECTION('',(0.,0.,1.));
#418=DIRECTION('',(0.,0.,1.));
#419=DIRECTION('',(1.,0.,0.));
#420=DIRECTION('',(0.,0.,1.));
#421=DIRECTION('',(0.,0.,1.));
#422=DIRECTION('',(1.,0.,0.));
#423=DIRECTION('',(-0.319047619047619,0.947738685915081,0.));
#424=DIRECTION('',(0.,0.,1.));
#425=DIRECTION('',(1.,0.,0.));
#426=DIRECTION('',(0.976296007119932,0.216439613938107,0.));
#427=DIRECTION('',(0.216439613938107,-0.976296007119932,0.));
#428=DIRECTION('',(-0.976296007119932,-0.216439613938107,0.));
#429=DIRECTION('',(0.,0.,1.));
#430=DIRECTION('',(1.,0.,0.));
#431=DIRECTION('',(-0.319047619047619,-0.947738685915082,0.));
#432=DIRECTION('',(-0.992655061391107,-0.120979044030846,0.));
#433=DIRECTION('',(0.,0.,1.));
#434=DIRECTION('',(1.,0.,0.));
#435=DIRECTION('',(0.601815023152048,0.798635510047293,0.));
#436=DIRECTION('',(0.,0.,1.));
#437=DIRECTION('',(1.,0.,0.));
#438=DIRECTION('',(0.,0.,1.));
#439=DIRECTION('',(1.,0.,0.));
#440=DIRECTION('',(0.,0.,1.));
#441=DIRECTION('',(1.,0.,0.));
#442=DIRECTION('',(-0.319047619047619,0.947738685915081,0.));
#443=DIRECTION('',(0.,0.,1.));
#444=DIRECTION('',(1.,0.,0.));
#445=DIRECTION('',(0.601815023152048,0.798635510047293,0.));
#446=DIRECTION('',(0.,0.,1.));
#447=DIRECTION('',(1.,0.,0.));
#448=DIRECTION('',(-0.992655061391107,-0.120979044030846,0.));
#449=DIRECTION('',(0.319047619047619,0.947738685915082,0.));
#450=DIRECTION('',(0.,0.,1.));
#451=DIRECTION('',(1.,0.,0.));
#452=DIRECTION('',(-0.976296007119932,-0.216439613938107,0.));
#453=DIRECTION('',(0.216439613938107,-0.976296007119932,0.));
#454=DIRECTION('',(0.976296007119932,0.216439613938107,0.));
#455=DIRECTION('',(0.,0.,1.));
#456=DIRECTION('',(1.,0.,0.));
#457=DIRECTION('',(0.,0.,-1.));
#458=DIRECTION('',(0.,0.,1.));
#459=DIRECTION('',(0.,0.,1.));
#460=DIRECTION('',(1.,0.,0.));
#461=DIRECTION('',(0.,0.,1.));
#462=DIRECTION('',(0.,0.,1.));
#463=DIRECTION('',(-0.120979044030846,0.992655061391107,0.));
#464=DIRECTION('',(-0.992655061391107,-0.120979044030846,0.));
#465=DIRECTION('',(0.,0.,1.));
#466=DIRECTION('',(0.,0.,1.));
#467=DIRECTION('',(1.,0.,0.));
#468=DIRECTION('',(0.,0.,1.));
#469=DIRECTION('',(0.798635510047293,-0.601815023152048,0.));
#470=DIRECTION('',(0.601815023152048,0.798635510047293,0.));
#471=DIRECTION('',(0.,0.,-1.));
#472=DIRECTION('',(0.216439613938107,-0.976296007119932,0.));
#473=DIRECTION('',(0.976296007119932,0.216439613938107,0.));
#474=DIRECTION('',(0.,0.,1.));
#475=DIRECTION('',(-0.216439613938107,0.976296007119932,0.));
#476=DIRECTION('',(-0.976296007119932,-0.216439613938107,0.));
#477=DIRECTION('',(0.,0.,1.));
#478=DIRECTION('',(-0.976296007119933,-0.216439613938107,0.));
#479=DIRECTION('',(0.216439613938107,-0.976296007119932,0.));
#480=DIRECTION('',(0.946629142920687,-0.155061752561556,0.282575863558414));
#481=DIRECTION('',(0.,-1.,0.));
#482=DIRECTION('',(-0.920445135939133,0.150772704371981,-0.36062216146869));
#483=DIRECTION('',(0.161649797532998,0.986848186377996,0.));
#484=DIRECTION('',(-0.986848186377996,0.161649797532998,0.));
#485=DIRECTION('',(0.946629142920687,-0.155061752561556,0.282575863558414));
#486=DIRECTION('',(0.,0.,-1.));
#487=DIRECTION('',(-0.161649797533001,-0.986848186377996,3.42381743227009E-15));
#488=DIRECTION('',(0.986848186377996,-0.161649797533001,0.));
#489=DIRECTION('',(0.,3.46944695195361E-15,1.));
#490=DIRECTION('',(0.920445135939133,-0.150772704371981,0.36062216146869));
#491=DIRECTION('',(0.,1.,1.30104260698261E-16));
#492=DIRECTION('',(-0.161649797532998,0.986848186377996,0.));
#493=DIRECTION('',(0.986848186377996,0.161649797532998,0.));
#494=DIRECTION('',(-0.946629142920687,-0.155061752561556,0.282575863558414));
#495=DIRECTION('',(-0.946629142920687,-0.155061752561556,0.282575863558414));
#496=DIRECTION('',(0.920445135939133,0.150772704371981,-0.36062216146869));
#497=DIRECTION('',(0.161649797533001,-0.986848186377996,3.42381743227009E-15));
#498=DIRECTION('',(-0.986848186377996,-0.161649797533001,0.));
#499=DIRECTION('',(-0.920445135939133,-0.150772704371981,0.36062216146869));
#500=DIRECTION('',(0.,0.,1.));
#501=DIRECTION('',(1.,0.,0.));
#502=CARTESIAN_POINT('',(0.,0.,0.));
#503=CARTESIAN_POINT('',(0.,0.,-0.0005));
#504=CARTESIAN_POINT('',(0.,0.,-0.0005));
#505=CARTESIAN_POINT('',(0.00335,-0.00995125620210835,-0.0005));
#506=CARTESIAN_POINT('',(0.0066936933634957,0.00808977559364249,-0.0005));
#507=CARTESIAN_POINT('',(0.0066936933634957,0.00808977559364249,-0.0005));
#508=CARTESIAN_POINT('',(0.0066936933634957,0.00808977559364249,0.));
#509=CARTESIAN_POINT('',(0.,0.,0.));
#510=CARTESIAN_POINT('',(0.00335,-0.00995125620210835,0.));
#511=CARTESIAN_POINT('',(0.00335,-0.00995125620210835,0.));
#512=CARTESIAN_POINT('',(0.,0.,-0.0005));
#513=CARTESIAN_POINT('',(0.,0.,-0.0005));
#514=CARTESIAN_POINT('',(0.00460289704128531,0.00943733748614125,-0.0005));
#515=CARTESIAN_POINT('',(-0.00335,-0.00995125620210835,-0.0005));
#516=CARTESIAN_POINT('',(-0.00335,-0.00995125620210835,0.));
#517=CARTESIAN_POINT('',(-0.00335,-0.00995125620210835,0.));
#518=CARTESIAN_POINT('',(0.,0.,0.));
#519=CARTESIAN_POINT('',(0.00460289704128531,0.00943733748614125,0.));
#520=CARTESIAN_POINT('',(0.00460289704128531,0.00943733748614125,-0.0005));
#521=CARTESIAN_POINT('',(0.,0.,-0.0005));
#522=CARTESIAN_POINT('',(0.00255238095238095,-0.00758190948732065,-0.0005));
#523=CARTESIAN_POINT('',(0.00255238095238095,-0.00758190948732065,-0.0005));
#524=CARTESIAN_POINT('',(0.,0.,-0.0005));
#525=CARTESIAN_POINT('',(0.00799650749844079,0.000236363760716841,-0.0005));
#526=CARTESIAN_POINT('',(0.00667058346718672,-5.75865200822017E-5,-0.0005));
#527=CARTESIAN_POINT('',(0.00667058346718672,-5.75865200822017E-5,-0.0005));
#528=CARTESIAN_POINT('',(0.0060212646253724,0.0028713015012776,-0.0005));
#529=CARTESIAN_POINT('',(0.0060212646253724,0.0028713015012776,-0.0005));
#530=CARTESIAN_POINT('',(0.0060212646253724,0.0028713015012776,-0.0005));
#531=CARTESIAN_POINT('',(0.00734718865662647,0.00316525178207664,-0.0005));
#532=CARTESIAN_POINT('',(0.,0.,-0.0005));
#533=CARTESIAN_POINT('',(-0.00255238095238095,-0.00758190948732065,-0.0005));
#534=CARTESIAN_POINT('',(-0.00255238095238095,-0.00758190948732065,-0.0005));
#535=CARTESIAN_POINT('',(0.00460289704128531,0.00943733748614125,-0.0005));
#536=CARTESIAN_POINT('',(0.0070205686729772,0.00973198928832185,-0.0005));
#537=CARTESIAN_POINT('',(0.,0.,-0.0005));
#538=CARTESIAN_POINT('',(0.00722178027782459,0.00958362612056751,-0.0005));
#539=CARTESIAN_POINT('',(0.00631905774309651,0.00838567285549657,-0.0005));
#540=CARTESIAN_POINT('',(0.00661312291149565,0.00877591051443959,-0.0005));
#541=CARTESIAN_POINT('',(0.0070124406665193,0.00847500300286356,-0.0005));
#542=CARTESIAN_POINT('',(0.,0.,0.));
#543=CARTESIAN_POINT('',(0.,0.,0.));
#544=CARTESIAN_POINT('',(0.00255238095238095,-0.00758190948732065,5.6920614055489E-19));
#545=CARTESIAN_POINT('',(0.00799650749844079,0.000236363760716841,0.));
#546=CARTESIAN_POINT('',(0.00255238095238095,-0.00758190948732065,0.));
#547=CARTESIAN_POINT('',(0.0070124406665193,0.00847500300286356,0.));
#548=CARTESIAN_POINT('',(0.00661312291149565,0.00877591051443959,0.));
#549=CARTESIAN_POINT('',(0.00631905774309651,0.00838567285549657,0.));
#550=CARTESIAN_POINT('',(0.00722178027782459,0.00958362612056751,0.));
#551=CARTESIAN_POINT('',(0.,0.,0.));
#552=CARTESIAN_POINT('',(0.0070205686729772,0.00973198928832185,0.));
#553=CARTESIAN_POINT('',(0.00460289704128531,0.00943733748614125,0.));
#554=CARTESIAN_POINT('',(-0.00335,-0.00995125620210835,0.));
#555=CARTESIAN_POINT('',(-0.00255238095238095,-0.00758190948732065,5.6920614055489E-19));
#556=CARTESIAN_POINT('',(0.,0.,0.));
#557=CARTESIAN_POINT('',(0.00734718865662646,0.00316525178207664,0.));
#558=CARTESIAN_POINT('',(0.0060212646253724,0.0028713015012776,0.));
#559=CARTESIAN_POINT('',(0.0060212646253724,0.0028713015012776,0.));
#560=CARTESIAN_POINT('',(0.0060212646253724,0.0028713015012776,0.));
#561=CARTESIAN_POINT('',(0.00667058346718672,-5.75865200822017E-5,0.));
#562=CARTESIAN_POINT('',(0.00667058346718672,-5.75865200822017E-5,0.));
#563=CARTESIAN_POINT('',(0.,0.,-0.0005));
#564=CARTESIAN_POINT('',(0.00255238095238095,-0.00758190948732065,0.));
#565=CARTESIAN_POINT('',(0.00799650749844079,0.000236363760716841,-0.0005));
#566=CARTESIAN_POINT('',(0.,0.,-0.0005));
#567=CARTESIAN_POINT('',(-0.00255238095238095,-0.00758190948732065,-0.0005));
#568=CARTESIAN_POINT('',(0.00734718865662647,0.00316525178207664,-0.0005));
#569=CARTESIAN_POINT('',(0.00460289704128531,0.00943733748614125,-0.0005));
#570=CARTESIAN_POINT('',(0.0070205686729772,0.00973198928832185,-0.0005));
#571=CARTESIAN_POINT('',(0.,0.,-0.0005));
#572=CARTESIAN_POINT('',(0.00722178027782459,0.00958362612056751,-0.0005));
#573=CARTESIAN_POINT('',(0.00631905774309651,0.00838567285549657,-0.0005));
#574=CARTESIAN_POINT('',(0.00661312291149565,0.00877591051443959,-0.0005));
#575=CARTESIAN_POINT('',(0.00667058346718672,-5.75865200822017E-5,-0.0005));
#576=CARTESIAN_POINT('',(0.00667058346718672,-5.75865200822017E-5,-0.0005));
#577=CARTESIAN_POINT('',(0.0060212646253724,0.0028713015012776,-0.0005));
#578=CARTESIAN_POINT('',(0.0060212646253724,0.0028713015012776,-0.0005));
#579=CARTESIAN_POINT('',(0.0060212646253724,0.0028713015012776,-0.0005));
#580=CARTESIAN_POINT('',(-0.00255238095238095,-0.00758190948732065,0.));
#581=CARTESIAN_POINT('',(0.,-0.008,0.001));
#582=CARTESIAN_POINT('',(-0.00268531746031746,-0.00797680060645193,0.));
#583=CARTESIAN_POINT('',(0.,-0.00841666666666663,0.001));
#584=CARTESIAN_POINT('',(-0.00281825396825396,-0.00837169172558321,0.));
#585=CARTESIAN_POINT('',(0.,-0.00883333333333328,0.001));
#586=CARTESIAN_POINT('',(-0.00308412698412698,-0.00916147396384578,0.));
#587=CARTESIAN_POINT('',(0.,-0.00966666666666661,0.001));
#588=CARTESIAN_POINT('',(-0.00321706349206349,-0.00955636508297707,0.));
#589=CARTESIAN_POINT('',(0.,-0.0100833333333333,0.001));
#590=CARTESIAN_POINT('',(-0.00335,-0.00995125620210835,0.));
#591=CARTESIAN_POINT('',(0.,-0.0105,0.001));
#592=CARTESIAN_POINT('',(-0.001675,-0.0102256281010542,0.0005));
#593=CARTESIAN_POINT('',(0.,-0.0105,0.001));
#594=CARTESIAN_POINT('',(0.,-0.008,0.001));
#595=CARTESIAN_POINT('',(0.,-0.008,0.001));
#596=CARTESIAN_POINT('',(-0.00127619047619048,-0.00779095474366032,0.0005));
#597=CARTESIAN_POINT('',(-0.001675,-0.0102256281010542,0.));
#598=CARTESIAN_POINT('',(-0.00335,-0.00995125620210835,-0.0005));
#599=CARTESIAN_POINT('',(0.,-0.0105,0.0005));
#600=CARTESIAN_POINT('',(0.,-0.0105,0.001));
#601=CARTESIAN_POINT('',(-0.0012761904761905,-0.00779095474366032,2.70303041882009E-17));
#602=CARTESIAN_POINT('',(0.,-0.008,0.001));
#603=CARTESIAN_POINT('',(0.,-0.008,0.0005));
#604=CARTESIAN_POINT('',(-0.00127619047619048,-0.00779095474366033,0.));
#605=CARTESIAN_POINT('',(-0.00335,-0.00995125620210835,-0.0005));
#606=CARTESIAN_POINT('',(0.,-0.0105,0.0005));
#607=CARTESIAN_POINT('',(-0.00321706349206349,-0.00955636508297706,-0.0005));
#608=CARTESIAN_POINT('',(0.,-0.0100833333333333,0.0005));
#609=CARTESIAN_POINT('',(-0.00308412698412698,-0.00916147396384577,-0.0005));
#610=CARTESIAN_POINT('',(0.,-0.00966666666666667,0.0005));
#611=CARTESIAN_POINT('',(-0.00281825396825396,-0.00837169172558321,-0.0005));
#612=CARTESIAN_POINT('',(0.,-0.00883333333333334,0.0005));
#613=CARTESIAN_POINT('',(-0.00268531746031746,-0.00797680060645193,-0.0005));
#614=CARTESIAN_POINT('',(0.,-0.00841666666666667,0.0005));
#615=CARTESIAN_POINT('',(-0.00255238095238095,-0.00758190948732065,-0.0005));
#616=CARTESIAN_POINT('',(0.,-0.008,0.0005));
#617=CARTESIAN_POINT('',(0.,-0.008,0.0005));
#618=CARTESIAN_POINT('',(0.001675,-0.0102256281010542,0.));
#619=CARTESIAN_POINT('',(0.00335,-0.00995125620210835,-0.0005));
#620=CARTESIAN_POINT('',(0.001675,-0.0102256281010542,0.0005));
#621=CARTESIAN_POINT('',(0.00255238095238095,-0.00758190948732065,0.));
#622=CARTESIAN_POINT('',(0.,-0.008,0.001));
#623=CARTESIAN_POINT('',(0.00268531746031746,-0.00797680060645193,0.));
#624=CARTESIAN_POINT('',(0.,-0.00841666666666663,0.001));
#625=CARTESIAN_POINT('',(0.00281825396825396,-0.00837169172558321,0.));
#626=CARTESIAN_POINT('',(0.,-0.00883333333333328,0.001));
#627=CARTESIAN_POINT('',(0.00308412698412698,-0.00916147396384578,0.));
#628=CARTESIAN_POINT('',(0.,-0.00966666666666661,0.001));
#629=CARTESIAN_POINT('',(0.00321706349206349,-0.00955636508297707,0.));
#630=CARTESIAN_POINT('',(0.,-0.0100833333333333,0.001));
#631=CARTESIAN_POINT('',(0.00335,-0.00995125620210835,0.));
#632=CARTESIAN_POINT('',(0.,-0.0105,0.001));
#633=CARTESIAN_POINT('',(0.00127619047619048,-0.00779095474366032,0.0005));
#634=CARTESIAN_POINT('',(0.0012761904761905,-0.00779095474366032,2.70303041882009E-17));
#635=CARTESIAN_POINT('',(0.00127619047619048,-0.00779095474366033,0.));
#636=CARTESIAN_POINT('',(0.00335,-0.00995125620210835,-0.0005));
#637=CARTESIAN_POINT('',(0.,-0.0105,0.0005));
#638=CARTESIAN_POINT('',(0.00321706349206349,-0.00955636508297706,-0.0005));
#639=CARTESIAN_POINT('',(0.,-0.0100833333333333,0.0005));
#640=CARTESIAN_POINT('',(0.00308412698412698,-0.00916147396384577,-0.0005));
#641=CARTESIAN_POINT('',(0.,-0.00966666666666667,0.0005));
#642=CARTESIAN_POINT('',(0.00281825396825396,-0.00837169172558321,-0.0005));
#643=CARTESIAN_POINT('',(0.,-0.00883333333333334,0.0005));
#644=CARTESIAN_POINT('',(0.00268531746031746,-0.00797680060645193,-0.0005));
#645=CARTESIAN_POINT('',(0.,-0.00841666666666667,0.0005));
#646=CARTESIAN_POINT('',(0.00255238095238095,-0.00758190948732065,-0.0005));
#647=CARTESIAN_POINT('',(0.,-0.008,0.0005));
#648=CARTESIAN_POINT('',(0.0070124406665193,0.00847500300286356,-0.0005));
#649=(
GEOMETRIC_REPRESENTATION_CONTEXT(3)
GLOBAL_UNCERTAINTY_ASSIGNED_CONTEXT((#650))
GLOBAL_UNIT_ASSIGNED_CONTEXT((#653,#652,#651))
REPRESENTATION_CONTEXT('id2','TOP_LEVEL_ASSEMBLY_PART')
);
#650=UNCERTAINTY_MEASURE_WITH_UNIT(LENGTH_MEASURE(4.E-8),#653,
'DISTANCE_ACCURACY_VALUE','Maximum Tolerance applied to model');
#651=(
NAMED_UNIT(*)
SI_UNIT($,.STERADIAN.)
SOLID_ANGLE_UNIT()
);
#652=(
NAMED_UNIT(*)
PLANE_ANGLE_UNIT()
SI_UNIT($,.RADIAN.)
);
#653=(
LENGTH_UNIT()
NAMED_UNIT(*)
SI_UNIT($,.METRE.)
);
#654=PRODUCT_DEFINITION_SHAPE('','',#655);
#655=PRODUCT_DEFINITION('','',#657,#656);
#656=PRODUCT_DEFINITION_CONTEXT('',#663,'design');
#657=PRODUCT_DEFINITION_FORMATION_WITH_SPECIFIED_SOURCE('','',#659,
 .NOT_KNOWN.);
#658=PRODUCT_RELATED_PRODUCT_CATEGORY('','',(#659));
#659=PRODUCT('id2','id2','id2',(#661));
#660=PRODUCT_CATEGORY('','');
#661=PRODUCT_CONTEXT('',#663,'mechanical');
#662=APPLICATION_PROTOCOL_DEFINITION('international standard',
'ap242_managed_model_based_3d_engineering',2020,#663);
#663=APPLICATION_CONTEXT('managed model based 3d engineering');
ENDSEC;
END-ISO-10303-21;
