ISO-10303-21;
HEADER;
/* Generated by software containing ST-Developer
 * from STEP Tools, Inc. (www.steptools.com) 
 */
/* OPTION: using custom renumber hook */

FILE_DESCRIPTION(
/* description */ ('STEP AP242 Edition 2',
'CAx-IF Rec.Pracs.---Representation and Presentation of Product Manufa
cturing Information (PMI)---4.0---2014-10-13',
'CAx-IF Rec.Pracs.---3D Tessellated Geometry---0.4---2014-09-14','2;1',
'CAx-IF Rec.Pracs.---User Defined Attributes---1.5---2016-08-15'),
/* implementation_level */ '2;1');

FILE_NAME(
/* name */ '10114',
/* time_stamp */ '2026-07-13T05:02:36Z',
/* author */ (''),
/* organization */ (''),
/* preprocessor_version */ 'ST-DEVELOPER v20',
/* originating_system */ 'ONSHAPE BY PTC INC, 1.217',
/* authorisation */ '  ');

FILE_SCHEMA (('AP242_MANAGED_MODEL_BASED_3D_ENGINEERING_MIM_LF { 1 0 10303 442 3 1 4 }'));
ENDSEC;

DATA;
#10=SHAPE_REPRESENTATION_RELATIONSHIP('','',#236,#11);
#11=ADVANCED_BREP_SHAPE_REPRESENTATION('',(#234),#402);
#12=CONICAL_SURFACE('',#263,0.00085,0.78539816339745);
#13=CONICAL_SURFACE('',#264,0.00165,0.785398163397453);
#14=CONICAL_SURFACE('',#265,0.00195,0.785398163397445);
#15=PLANE('',#241);
#16=PLANE('',#245);
#17=PLANE('',#246);
#18=PLANE('',#252);
#19=LINE('',#346,#27);
#20=LINE('',#350,#28);
#21=LINE('',#352,#29);
#22=LINE('',#354,#30);
#23=LINE('',#356,#31);
#24=LINE('',#360,#32);
#25=LINE('',#364,#33);
#26=LINE('',#365,#34);
#27=VECTOR('',#275,1.);
#28=VECTOR('',#278,1.);
#29=VECTOR('',#281,1.);
#30=VECTOR('',#282,1.);
#31=VECTOR('',#283,1.);
#32=VECTOR('',#288,1.);
#33=VECTOR('',#293,1.);
#34=VECTOR('',#294,1.);
#35=ORIENTED_EDGE('',*,*,#85,.F.);
#36=ORIENTED_EDGE('',*,*,#86,.F.);
#37=ORIENTED_EDGE('',*,*,#87,.T.);
#38=ORIENTED_EDGE('',*,*,#88,.T.);
#39=ORIENTED_EDGE('',*,*,#89,.F.);
#40=ORIENTED_EDGE('',*,*,#90,.F.);
#41=ORIENTED_EDGE('',*,*,#91,.T.);
#42=ORIENTED_EDGE('',*,*,#86,.T.);
#43=ORIENTED_EDGE('',*,*,#92,.F.);
#44=ORIENTED_EDGE('',*,*,#93,.F.);
#45=ORIENTED_EDGE('',*,*,#94,.T.);
#46=ORIENTED_EDGE('',*,*,#90,.T.);
#47=ORIENTED_EDGE('',*,*,#95,.F.);
#48=ORIENTED_EDGE('',*,*,#88,.F.);
#49=ORIENTED_EDGE('',*,*,#96,.T.);
#50=ORIENTED_EDGE('',*,*,#93,.T.);
#51=ORIENTED_EDGE('',*,*,#97,.T.);
#52=ORIENTED_EDGE('',*,*,#98,.T.);
#53=ORIENTED_EDGE('',*,*,#99,.T.);
#54=ORIENTED_EDGE('',*,*,#100,.T.);
#55=ORIENTED_EDGE('',*,*,#101,.T.);
#56=ORIENTED_EDGE('',*,*,#87,.F.);
#57=ORIENTED_EDGE('',*,*,#91,.F.);
#58=ORIENTED_EDGE('',*,*,#94,.F.);
#59=ORIENTED_EDGE('',*,*,#96,.F.);
#60=ORIENTED_EDGE('',*,*,#102,.F.);
#61=ORIENTED_EDGE('',*,*,#103,.F.);
#62=ORIENTED_EDGE('',*,*,#104,.F.);
#63=ORIENTED_EDGE('',*,*,#105,.T.);
#64=ORIENTED_EDGE('',*,*,#106,.T.);
#65=ORIENTED_EDGE('',*,*,#85,.T.);
#66=ORIENTED_EDGE('',*,*,#95,.T.);
#67=ORIENTED_EDGE('',*,*,#92,.T.);
#68=ORIENTED_EDGE('',*,*,#89,.T.);
#69=ORIENTED_EDGE('',*,*,#107,.T.);
#70=ORIENTED_EDGE('',*,*,#108,.T.);
#71=ORIENTED_EDGE('',*,*,#109,.T.);
#72=ORIENTED_EDGE('',*,*,#101,.F.);
#73=ORIENTED_EDGE('',*,*,#105,.F.);
#74=ORIENTED_EDGE('',*,*,#109,.F.);
#75=ORIENTED_EDGE('',*,*,#106,.F.);
#76=ORIENTED_EDGE('',*,*,#108,.F.);
#77=ORIENTED_EDGE('',*,*,#107,.F.);
#78=ORIENTED_EDGE('',*,*,#100,.F.);
#79=ORIENTED_EDGE('',*,*,#99,.F.);
#80=ORIENTED_EDGE('',*,*,#104,.T.);
#81=ORIENTED_EDGE('',*,*,#98,.F.);
#82=ORIENTED_EDGE('',*,*,#103,.T.);
#83=ORIENTED_EDGE('',*,*,#97,.F.);
#84=ORIENTED_EDGE('',*,*,#102,.T.);
#85=EDGE_CURVE('',#110,#111,#131,.T.);
#86=EDGE_CURVE('',#112,#110,#19,.T.);
#87=EDGE_CURVE('',#112,#113,#132,.T.);
#88=EDGE_CURVE('',#113,#111,#20,.T.);
#89=EDGE_CURVE('',#114,#110,#21,.T.);
#90=EDGE_CURVE('',#115,#114,#22,.T.);
#91=EDGE_CURVE('',#115,#112,#23,.T.);
#92=EDGE_CURVE('',#116,#114,#133,.T.);
#93=EDGE_CURVE('',#117,#116,#24,.T.);
#94=EDGE_CURVE('',#117,#115,#134,.T.);
#95=EDGE_CURVE('',#111,#116,#25,.T.);
#96=EDGE_CURVE('',#113,#117,#26,.T.);
#97=EDGE_CURVE('',#118,#118,#135,.T.);
#98=EDGE_CURVE('',#119,#119,#136,.T.);
#99=EDGE_CURVE('',#120,#120,#137,.T.);
#100=EDGE_CURVE('',#121,#121,#138,.T.);
#101=EDGE_CURVE('',#122,#122,#139,.T.);
#102=EDGE_CURVE('',#123,#123,#140,.T.);
#103=EDGE_CURVE('',#124,#124,#141,.T.);
#104=EDGE_CURVE('',#125,#125,#142,.T.);
#105=EDGE_CURVE('',#126,#126,#143,.F.);
#106=EDGE_CURVE('',#127,#127,#144,.F.);
#107=EDGE_CURVE('',#128,#128,#145,.F.);
#108=EDGE_CURVE('',#129,#129,#146,.T.);
#109=EDGE_CURVE('',#130,#130,#147,.T.);
#110=VERTEX_POINT('',#344);
#111=VERTEX_POINT('',#345);
#112=VERTEX_POINT('',#347);
#113=VERTEX_POINT('',#349);
#114=VERTEX_POINT('',#353);
#115=VERTEX_POINT('',#355);
#116=VERTEX_POINT('',#359);
#117=VERTEX_POINT('',#361);
#118=VERTEX_POINT('',#368);
#119=VERTEX_POINT('',#370);
#120=VERTEX_POINT('',#372);
#121=VERTEX_POINT('',#374);
#122=VERTEX_POINT('',#376);
#123=VERTEX_POINT('',#379);
#124=VERTEX_POINT('',#381);
#125=VERTEX_POINT('',#383);
#126=VERTEX_POINT('',#385);
#127=VERTEX_POINT('',#387);
#128=VERTEX_POINT('',#390);
#129=VERTEX_POINT('',#392);
#130=VERTEX_POINT('',#395);
#131=CIRCLE('',#239,0.003);
#132=CIRCLE('',#240,0.003);
#133=CIRCLE('',#243,0.002);
#134=CIRCLE('',#244,0.002);
#135=CIRCLE('',#247,0.00045);
#136=CIRCLE('',#248,0.00045);
#137=CIRCLE('',#249,0.00045);
#138=CIRCLE('',#250,0.00195);
#139=CIRCLE('',#251,0.00085);
#140=CIRCLE('',#253,0.00045);
#141=CIRCLE('',#254,0.00045);
#142=CIRCLE('',#255,0.00045);
#143=CIRCLE('',#256,0.001);
#144=CIRCLE('',#257,0.0018);
#145=CIRCLE('',#259,0.00165);
#146=CIRCLE('',#260,0.00165);
#147=CIRCLE('',#262,0.00085);
#148=EDGE_LOOP('',(#35,#36,#37,#38));
#149=EDGE_LOOP('',(#39,#40,#41,#42));
#150=EDGE_LOOP('',(#43,#44,#45,#46));
#151=EDGE_LOOP('',(#47,#48,#49,#50));
#152=EDGE_LOOP('',(#51));
#153=EDGE_LOOP('',(#52));
#154=EDGE_LOOP('',(#53));
#155=EDGE_LOOP('',(#54));
#156=EDGE_LOOP('',(#55));
#157=EDGE_LOOP('',(#56,#57,#58,#59));
#158=EDGE_LOOP('',(#60));
#159=EDGE_LOOP('',(#61));
#160=EDGE_LOOP('',(#62));
#161=EDGE_LOOP('',(#63));
#162=EDGE_LOOP('',(#64));
#163=EDGE_LOOP('',(#65,#66,#67,#68));
#164=EDGE_LOOP('',(#69));
#165=EDGE_LOOP('',(#70));
#166=EDGE_LOOP('',(#71));
#167=EDGE_LOOP('',(#72));
#168=EDGE_LOOP('',(#73));
#169=EDGE_LOOP('',(#74));
#170=EDGE_LOOP('',(#75));
#171=EDGE_LOOP('',(#76));
#172=EDGE_LOOP('',(#77));
#173=EDGE_LOOP('',(#78));
#174=EDGE_LOOP('',(#79));
#175=EDGE_LOOP('',(#80));
#176=EDGE_LOOP('',(#81));
#177=EDGE_LOOP('',(#82));
#178=EDGE_LOOP('',(#83));
#179=EDGE_LOOP('',(#84));
#180=FACE_BOUND('',#148,.T.);
#181=FACE_BOUND('',#149,.T.);
#182=FACE_BOUND('',#150,.T.);
#183=FACE_BOUND('',#151,.T.);
#184=FACE_BOUND('',#152,.T.);
#185=FACE_BOUND('',#153,.T.);
#186=FACE_BOUND('',#154,.T.);
#187=FACE_BOUND('',#155,.T.);
#188=FACE_BOUND('',#156,.T.);
#189=FACE_BOUND('',#157,.T.);
#190=FACE_BOUND('',#158,.T.);
#191=FACE_BOUND('',#159,.T.);
#192=FACE_BOUND('',#160,.T.);
#193=FACE_BOUND('',#161,.T.);
#194=FACE_BOUND('',#162,.T.);
#195=FACE_BOUND('',#163,.T.);
#196=FACE_BOUND('',#164,.T.);
#197=FACE_BOUND('',#165,.T.);
#198=FACE_BOUND('',#166,.T.);
#199=FACE_BOUND('',#167,.T.);
#200=FACE_BOUND('',#168,.T.);
#201=FACE_BOUND('',#169,.T.);
#202=FACE_BOUND('',#170,.T.);
#203=FACE_BOUND('',#171,.T.);
#204=FACE_BOUND('',#172,.T.);
#205=FACE_BOUND('',#173,.T.);
#206=FACE_BOUND('',#174,.T.);
#207=FACE_BOUND('',#175,.T.);
#208=FACE_BOUND('',#176,.T.);
#209=FACE_BOUND('',#177,.T.);
#210=FACE_BOUND('',#178,.T.);
#211=FACE_BOUND('',#179,.T.);
#212=CYLINDRICAL_SURFACE('',#238,0.003);
#213=CYLINDRICAL_SURFACE('',#242,0.002);
#214=CYLINDRICAL_SURFACE('',#258,0.00165);
#215=CYLINDRICAL_SURFACE('',#261,0.00085);
#216=CYLINDRICAL_SURFACE('',#266,0.00045);
#217=CYLINDRICAL_SURFACE('',#267,0.00045);
#218=CYLINDRICAL_SURFACE('',#268,0.00045);
#219=ADVANCED_FACE('',(#180),#212,.T.);
#220=ADVANCED_FACE('',(#181),#15,.T.);
#221=ADVANCED_FACE('',(#182),#213,.T.);
#222=ADVANCED_FACE('',(#183),#16,.T.);
#223=ADVANCED_FACE('',(#184,#185,#186,#187,#188,#189),#17,.F.);
#224=ADVANCED_FACE('',(#190,#191,#192,#193,#194,#195),#18,.T.);
#225=ADVANCED_FACE('',(#196,#197),#214,.F.);
#226=ADVANCED_FACE('',(#198,#199),#215,.F.);
#227=ADVANCED_FACE('',(#200,#201),#12,.F.);
#228=ADVANCED_FACE('',(#202,#203),#13,.F.);
#229=ADVANCED_FACE('',(#204,#205),#14,.F.);
#230=ADVANCED_FACE('',(#206,#207),#216,.F.);
#231=ADVANCED_FACE('',(#208,#209),#217,.F.);
#232=ADVANCED_FACE('',(#210,#211),#218,.F.);
#233=CLOSED_SHELL('',(#219,#220,#221,#222,#223,#224,#225,#226,#227,#228,
#229,#230,#231,#232));
#234=MANIFOLD_SOLID_BREP('',#233);
#235=SHAPE_DEFINITION_REPRESENTATION(#407,#236);
#236=SHAPE_REPRESENTATION('id2',(#237),#402);
#237=AXIS2_PLACEMENT_3D('',#341,#269,#270);
#238=AXIS2_PLACEMENT_3D('',#342,#271,#272);
#239=AXIS2_PLACEMENT_3D('',#343,#273,#274);
#240=AXIS2_PLACEMENT_3D('',#348,#276,#277);
#241=AXIS2_PLACEMENT_3D('',#351,#279,#280);
#242=AXIS2_PLACEMENT_3D('',#357,#284,#285);
#243=AXIS2_PLACEMENT_3D('',#358,#286,#287);
#244=AXIS2_PLACEMENT_3D('',#362,#289,#290);
#245=AXIS2_PLACEMENT_3D('',#363,#291,#292);
#246=AXIS2_PLACEMENT_3D('',#366,#295,#296);
#247=AXIS2_PLACEMENT_3D('',#367,#297,#298);
#248=AXIS2_PLACEMENT_3D('',#369,#299,#300);
#249=AXIS2_PLACEMENT_3D('',#371,#301,#302);
#250=AXIS2_PLACEMENT_3D('',#373,#303,#304);
#251=AXIS2_PLACEMENT_3D('',#375,#305,#306);
#252=AXIS2_PLACEMENT_3D('',#377,#307,#308);
#253=AXIS2_PLACEMENT_3D('',#378,#309,#310);
#254=AXIS2_PLACEMENT_3D('',#380,#311,#312);
#255=AXIS2_PLACEMENT_3D('',#382,#313,#314);
#256=AXIS2_PLACEMENT_3D('',#384,#315,#316);
#257=AXIS2_PLACEMENT_3D('',#386,#317,#318);
#258=AXIS2_PLACEMENT_3D('',#388,#319,#320);
#259=AXIS2_PLACEMENT_3D('',#389,#321,#322);
#260=AXIS2_PLACEMENT_3D('',#391,#323,#324);
#261=AXIS2_PLACEMENT_3D('',#393,#325,#326);
#262=AXIS2_PLACEMENT_3D('',#394,#327,#328);
#263=AXIS2_PLACEMENT_3D('',#396,#329,#330);
#264=AXIS2_PLACEMENT_3D('',#397,#331,#332);
#265=AXIS2_PLACEMENT_3D('',#398,#333,#334);
#266=AXIS2_PLACEMENT_3D('',#399,#335,#336);
#267=AXIS2_PLACEMENT_3D('',#400,#337,#338);
#268=AXIS2_PLACEMENT_3D('',#401,#339,#340);
#269=DIRECTION('',(0.,0.,1.));
#270=DIRECTION('',(1.,0.,0.));
#271=DIRECTION('',(0.,0.,1.));
#272=DIRECTION('',(1.,0.,0.));
#273=DIRECTION('',(0.,0.,1.));
#274=DIRECTION('',(1.,0.,0.));
#275=DIRECTION('',(0.,0.,1.));
#276=DIRECTION('',(0.,0.,1.));
#277=DIRECTION('',(1.,0.,0.));
#278=DIRECTION('',(0.,0.,1.));
#279=DIRECTION('',(0.0892857142857142,0.996006054813167,0.));
#280=DIRECTION('',(-0.996006054813167,0.0892857142857142,0.));
#281=DIRECTION('',(-0.996006054813167,0.0892857142857143,0.));
#282=DIRECTION('',(0.,0.,1.));
#283=DIRECTION('',(-0.996006054813167,0.0892857142857143,0.));
#284=DIRECTION('',(0.,0.,1.));
#285=DIRECTION('',(1.,0.,0.));
#286=DIRECTION('',(0.,0.,1.));
#287=DIRECTION('',(1.,0.,0.));
#288=DIRECTION('',(0.,0.,1.));
#289=DIRECTION('',(0.,0.,1.));
#290=DIRECTION('',(1.,0.,0.));
#291=DIRECTION('',(0.0892857142857142,-0.996006054813167,0.));
#292=DIRECTION('',(0.996006054813167,0.0892857142857142,0.));
#293=DIRECTION('',(0.996006054813167,0.0892857142857143,0.));
#294=DIRECTION('',(0.996006054813167,0.0892857142857143,0.));
#295=DIRECTION('',(0.,0.,1.));
#296=DIRECTION('',(1.,0.,0.));
#297=DIRECTION('',(0.,0.,1.));
#298=DIRECTION('',(1.,0.,0.));
#299=DIRECTION('',(0.,0.,1.));
#300=DIRECTION('',(1.,0.,0.));
#301=DIRECTION('',(0.,0.,1.));
#302=DIRECTION('',(1.,0.,0.));
#303=DIRECTION('',(0.,0.,1.));
#304=DIRECTION('',(1.,0.,0.));
#305=DIRECTION('',(0.,0.,1.));
#306=DIRECTION('',(1.,0.,0.));
#307=DIRECTION('',(0.,0.,1.));
#308=DIRECTION('',(1.,0.,0.));
#309=DIRECTION('',(0.,0.,1.));
#310=DIRECTION('',(1.,0.,0.));
#311=DIRECTION('',(0.,0.,1.));
#312=DIRECTION('',(1.,0.,0.));
#313=DIRECTION('',(0.,0.,1.));
#314=DIRECTION('',(1.,0.,0.));
#315=DIRECTION('',(0.,0.,1.));
#316=DIRECTION('',(1.,0.,0.));
#317=DIRECTION('',(0.,0.,1.));
#318=DIRECTION('',(1.,0.,0.));
#319=DIRECTION('',(0.,0.,1.));
#320=DIRECTION('',(1.,0.,0.));
#321=DIRECTION('',(0.,0.,1.));
#322=DIRECTION('',(1.,0.,0.));
#323=DIRECTION('',(0.,0.,1.));
#324=DIRECTION('',(1.,0.,0.));
#325=DIRECTION('',(0.,0.,1.));
#326=DIRECTION('',(1.,0.,0.));
#327=DIRECTION('',(0.,0.,1.));
#328=DIRECTION('',(1.,0.,0.));
#329=DIRECTION('',(0.,0.,1.));
#330=DIRECTION('',(1.,0.,0.));
#331=DIRECTION('',(0.,0.,1.));
#332=DIRECTION('',(1.,0.,0.));
#333=DIRECTION('',(0.,0.,-1.));
#334=DIRECTION('',(-1.,0.,0.));
#335=DIRECTION('',(0.,0.,1.));
#336=DIRECTION('',(1.,0.,0.));
#337=DIRECTION('',(0.,0.,1.));
#338=DIRECTION('',(1.,0.,0.));
#339=DIRECTION('',(0.,0.,1.));
#340=DIRECTION('',(1.,0.,0.));
#341=CARTESIAN_POINT('',(0.,0.,0.));
#342=CARTESIAN_POINT('',(0.,0.,-0.001));
#343=CARTESIAN_POINT('',(0.,0.,0.));
#344=CARTESIAN_POINT('',(0.000267857142857143,0.0029880181644395,0.));
#345=CARTESIAN_POINT('',(0.000267857142857143,-0.0029880181644395,0.));
#346=CARTESIAN_POINT('',(0.000267857142857143,0.0029880181644395,-0.001));
#347=CARTESIAN_POINT('',(0.000267857142857143,0.0029880181644395,-0.001));
#348=CARTESIAN_POINT('',(0.,0.,-0.001));
#349=CARTESIAN_POINT('',(0.000267857142857143,-0.0029880181644395,-0.001));
#350=CARTESIAN_POINT('',(0.000267857142857143,-0.0029880181644395,-0.001));
#351=CARTESIAN_POINT('',(0.000267857142857143,0.0029880181644395,-0.001));
#352=CARTESIAN_POINT('',(0.000267857142857143,0.0029880181644395,0.));
#353=CARTESIAN_POINT('',(0.0113785714285714,0.00199201210962634,0.));
#354=CARTESIAN_POINT('',(0.0113785714285714,0.00199201210962634,-0.001));
#355=CARTESIAN_POINT('',(0.0113785714285714,0.00199201210962634,-0.001));
#356=CARTESIAN_POINT('',(0.000267857142857143,0.0029880181644395,-0.001));
#357=CARTESIAN_POINT('',(0.0112,0.,-0.001));
#358=CARTESIAN_POINT('',(0.0112,0.,0.));
#359=CARTESIAN_POINT('',(0.0113785714285714,-0.00199201210962634,0.));
#360=CARTESIAN_POINT('',(0.0113785714285714,-0.00199201210962634,-0.001));
#361=CARTESIAN_POINT('',(0.0113785714285714,-0.00199201210962634,-0.001));
#362=CARTESIAN_POINT('',(0.0112,0.,-0.001));
#363=CARTESIAN_POINT('',(0.000267857142857143,-0.0029880181644395,-0.001));
#364=CARTESIAN_POINT('',(0.000267857142857143,-0.0029880181644395,0.));
#365=CARTESIAN_POINT('',(0.000267857142857143,-0.0029880181644395,-0.001));
#366=CARTESIAN_POINT('',(0.,0.,-0.001));
#367=CARTESIAN_POINT('',(0.0029,0.,-0.001));
#368=CARTESIAN_POINT('',(0.00335,0.,-0.001));
#369=CARTESIAN_POINT('',(0.00251147367097487,0.00145,-0.001));
#370=CARTESIAN_POINT('',(0.00296147367097487,0.00145,-0.001));
#371=CARTESIAN_POINT('',(0.00251147367097487,-0.00145,-0.001));
#372=CARTESIAN_POINT('',(0.00296147367097487,-0.00145,-0.001));
#373=CARTESIAN_POINT('',(0.,0.,-0.001));
#374=CARTESIAN_POINT('',(0.00195,0.,-0.001));
#375=CARTESIAN_POINT('',(0.0112,0.,-0.001));
#376=CARTESIAN_POINT('',(0.01205,0.,-0.001));
#377=CARTESIAN_POINT('',(0.,0.,0.));
#378=CARTESIAN_POINT('',(0.0029,0.,3.6739403974419E-20));
#379=CARTESIAN_POINT('',(0.00335,0.,3.6739403974419E-20));
#380=CARTESIAN_POINT('',(0.00251147367097487,0.00145,3.6739403974419E-20));
#381=CARTESIAN_POINT('',(0.00296147367097487,0.00145,3.6739403974419E-20));
#382=CARTESIAN_POINT('',(0.00251147367097487,-0.00145,3.6739403974419E-20));
#383=CARTESIAN_POINT('',(0.00296147367097487,-0.00145,3.6739403974419E-20));
#384=CARTESIAN_POINT('',(0.0112,0.,0.));
#385=CARTESIAN_POINT('',(0.0122,0.,0.));
#386=CARTESIAN_POINT('',(0.,0.,0.));
#387=CARTESIAN_POINT('',(0.0018,0.,0.));
#388=CARTESIAN_POINT('',(0.,0.,-0.001));
#389=CARTESIAN_POINT('',(0.,0.,-0.0007));
#390=CARTESIAN_POINT('',(0.00165,0.,-0.0007));
#391=CARTESIAN_POINT('',(0.,0.,-0.00015));
#392=CARTESIAN_POINT('',(0.00165,0.,-0.00015));
#393=CARTESIAN_POINT('',(0.0112,0.,-0.001));
#394=CARTESIAN_POINT('',(0.0112,0.,-0.00015));
#395=CARTESIAN_POINT('',(0.01205,0.,-0.00015));
#396=CARTESIAN_POINT('',(0.0112,0.,-0.00015));
#397=CARTESIAN_POINT('',(0.,0.,-0.00015));
#398=CARTESIAN_POINT('',(0.,0.,-0.001));
#399=CARTESIAN_POINT('',(0.00251147367097487,-0.00145,0.));
#400=CARTESIAN_POINT('',(0.00251147367097487,0.00145,0.));
#401=CARTESIAN_POINT('',(0.0029,0.,0.));
#402=(
GEOMETRIC_REPRESENTATION_CONTEXT(3)
GLOBAL_UNCERTAINTY_ASSIGNED_CONTEXT((#403))
GLOBAL_UNIT_ASSIGNED_CONTEXT((#406,#405,#404))
REPRESENTATION_CONTEXT('id2','TOP_LEVEL_ASSEMBLY_PART')
);
#403=UNCERTAINTY_MEASURE_WITH_UNIT(LENGTH_MEASURE(1.E-8),#406,
'DISTANCE_ACCURACY_VALUE','Maximum Tolerance applied to model');
#404=(
NAMED_UNIT(*)
SI_UNIT($,.STERADIAN.)
SOLID_ANGLE_UNIT()
);
#405=(
NAMED_UNIT(*)
PLANE_ANGLE_UNIT()
SI_UNIT($,.RADIAN.)
);
#406=(
LENGTH_UNIT()
NAMED_UNIT(*)
SI_UNIT($,.METRE.)
);
#407=PRODUCT_DEFINITION_SHAPE('','',#408);
#408=PRODUCT_DEFINITION('','',#410,#409);
#409=PRODUCT_DEFINITION_CONTEXT('',#416,'design');
#410=PRODUCT_DEFINITION_FORMATION_WITH_SPECIFIED_SOURCE('','',#412,
 .NOT_KNOWN.);
#411=PRODUCT_RELATED_PRODUCT_CATEGORY('','',(#412));
#412=PRODUCT('id2','id2','id2',(#414));
#413=PRODUCT_CATEGORY('','');
#414=PRODUCT_CONTEXT('',#416,'mechanical');
#415=APPLICATION_PROTOCOL_DEFINITION('international standard',
'ap242_managed_model_based_3d_engineering',2020,#416);
#416=APPLICATION_CONTEXT('managed model based 3d engineering');
ENDSEC;
END-ISO-10303-21;
