ISO-10303-21;
HEADER;
/* Generated by software containing ST-Developer
 * from STEP Tools, Inc. (www.steptools.com) 
 */
/* OPTION: using custom renumber hook */

FILE_DESCRIPTION(
/* description */ ('STEP AP242 Edition 2',
'CAx-IF Rec.Pracs.---Representation and Presentation of Product Manufa
cturing Information (PMI)---4.0---2014-10-13',
'CAx-IF Rec.Pracs.---3D Tessellated Geometry---0.4---2014-09-14','2;1',
'CAx-IF Rec.Pracs.---User Defined Attributes---1.5---2016-08-15'),
/* implementation_level */ '2;1');

FILE_NAME(
/* name */ '10119',
/* time_stamp */ '2026-07-13T05:02:54Z',
/* author */ (''),
/* organization */ (''),
/* preprocessor_version */ 'ST-DEVELOPER v20',
/* originating_system */ 'ONSHAPE BY PTC INC, 1.217',
/* authorisation */ '  ');

FILE_SCHEMA (('AP242_MANAGED_MODEL_BASED_3D_ENGINEERING_MIM_LF { 1 0 10303 442 3 1 4 }'));
ENDSEC;

DATA;
#10=SHAPE_REPRESENTATION_RELATIONSHIP('','',#205,#11);
#11=ADVANCED_BREP_SHAPE_REPRESENTATION('',(#203),#340);
#12=CIRCLE('',#209,0.0105);
#13=CIRCLE('',#210,0.0105);
#14=CIRCLE('',#212,0.00075);
#15=CIRCLE('',#213,0.00075);
#16=CIRCLE('',#214,0.00075);
#17=CIRCLE('',#215,0.0072);
#18=CIRCLE('',#217,0.00075);
#19=CIRCLE('',#218,0.00075);
#20=CIRCLE('',#219,0.00075);
#21=CIRCLE('',#220,0.0072);
#22=CYLINDRICAL_SURFACE('',#208,0.0105);
#23=CYLINDRICAL_SURFACE('',#221,0.0072);
#24=CYLINDRICAL_SURFACE('',#223,0.00075);
#25=CYLINDRICAL_SURFACE('',#224,0.00075);
#26=CYLINDRICAL_SURFACE('',#225,0.00075);
#27=ORIENTED_EDGE('',*,*,#75,.F.);
#28=ORIENTED_EDGE('',*,*,#76,.F.);
#29=ORIENTED_EDGE('',*,*,#77,.T.);
#30=ORIENTED_EDGE('',*,*,#78,.T.);
#31=ORIENTED_EDGE('',*,*,#79,.T.);
#32=ORIENTED_EDGE('',*,*,#80,.T.);
#33=ORIENTED_EDGE('',*,*,#81,.F.);
#34=ORIENTED_EDGE('',*,*,#82,.F.);
#35=ORIENTED_EDGE('',*,*,#83,.T.);
#36=ORIENTED_EDGE('',*,*,#84,.T.);
#37=ORIENTED_EDGE('',*,*,#85,.T.);
#38=ORIENTED_EDGE('',*,*,#86,.F.);
#39=ORIENTED_EDGE('',*,*,#79,.F.);
#40=ORIENTED_EDGE('',*,*,#87,.T.);
#41=ORIENTED_EDGE('',*,*,#88,.F.);
#42=ORIENTED_EDGE('',*,*,#89,.F.);
#43=ORIENTED_EDGE('',*,*,#77,.F.);
#44=ORIENTED_EDGE('',*,*,#90,.F.);
#45=ORIENTED_EDGE('',*,*,#91,.F.);
#46=ORIENTED_EDGE('',*,*,#92,.F.);
#47=ORIENTED_EDGE('',*,*,#81,.T.);
#48=ORIENTED_EDGE('',*,*,#93,.T.);
#49=ORIENTED_EDGE('',*,*,#75,.T.);
#50=ORIENTED_EDGE('',*,*,#94,.T.);
#51=ORIENTED_EDGE('',*,*,#95,.T.);
#52=ORIENTED_EDGE('',*,*,#96,.F.);
#53=ORIENTED_EDGE('',*,*,#94,.F.);
#54=ORIENTED_EDGE('',*,*,#78,.F.);
#55=ORIENTED_EDGE('',*,*,#89,.T.);
#56=ORIENTED_EDGE('',*,*,#97,.T.);
#57=ORIENTED_EDGE('',*,*,#98,.T.);
#58=ORIENTED_EDGE('',*,*,#95,.F.);
#59=ORIENTED_EDGE('',*,*,#97,.F.);
#60=ORIENTED_EDGE('',*,*,#88,.T.);
#61=ORIENTED_EDGE('',*,*,#83,.F.);
#62=ORIENTED_EDGE('',*,*,#92,.T.);
#63=ORIENTED_EDGE('',*,*,#84,.F.);
#64=ORIENTED_EDGE('',*,*,#91,.T.);
#65=ORIENTED_EDGE('',*,*,#85,.F.);
#66=ORIENTED_EDGE('',*,*,#90,.T.);
#67=ORIENTED_EDGE('',*,*,#96,.T.);
#68=ORIENTED_EDGE('',*,*,#98,.F.);
#69=ORIENTED_EDGE('',*,*,#87,.F.);
#70=ORIENTED_EDGE('',*,*,#82,.T.);
#71=ORIENTED_EDGE('',*,*,#93,.F.);
#72=ORIENTED_EDGE('',*,*,#80,.F.);
#73=ORIENTED_EDGE('',*,*,#86,.T.);
#74=ORIENTED_EDGE('',*,*,#76,.T.);
#75=EDGE_CURVE('',#99,#100,#117,.T.);
#76=EDGE_CURVE('',#101,#99,#118,.T.);
#77=EDGE_CURVE('',#101,#102,#119,.T.);
#78=EDGE_CURVE('',#102,#100,#120,.T.);
#79=EDGE_CURVE('',#103,#104,#12,.T.);
#80=EDGE_CURVE('',#104,#105,#121,.T.);
#81=EDGE_CURVE('',#106,#105,#13,.T.);
#82=EDGE_CURVE('',#103,#106,#122,.T.);
#83=EDGE_CURVE('',#107,#107,#14,.T.);
#84=EDGE_CURVE('',#108,#108,#15,.T.);
#85=EDGE_CURVE('',#109,#109,#16,.T.);
#86=EDGE_CURVE('',#104,#101,#123,.T.);
#87=EDGE_CURVE('',#103,#110,#124,.T.);
#88=EDGE_CURVE('',#111,#110,#125,.T.);
#89=EDGE_CURVE('',#102,#111,#17,.T.);
#90=EDGE_CURVE('',#112,#112,#18,.T.);
#91=EDGE_CURVE('',#113,#113,#19,.T.);
#92=EDGE_CURVE('',#114,#114,#20,.T.);
#93=EDGE_CURVE('',#105,#99,#126,.T.);
#94=EDGE_CURVE('',#100,#115,#21,.T.);
#95=EDGE_CURVE('',#115,#116,#127,.T.);
#96=EDGE_CURVE('',#106,#116,#128,.T.);
#97=EDGE_CURVE('',#111,#115,#129,.T.);
#98=EDGE_CURVE('',#110,#116,#130,.T.);
#99=VERTEX_POINT('',#289);
#100=VERTEX_POINT('',#290);
#101=VERTEX_POINT('',#292);
#102=VERTEX_POINT('',#294);
#103=VERTEX_POINT('',#298);
#104=VERTEX_POINT('',#299);
#105=VERTEX_POINT('',#301);
#106=VERTEX_POINT('',#303);
#107=VERTEX_POINT('',#307);
#108=VERTEX_POINT('',#309);
#109=VERTEX_POINT('',#311);
#110=VERTEX_POINT('',#314);
#111=VERTEX_POINT('',#316);
#112=VERTEX_POINT('',#320);
#113=VERTEX_POINT('',#322);
#114=VERTEX_POINT('',#324);
#115=VERTEX_POINT('',#327);
#116=VERTEX_POINT('',#329);
#117=LINE('',#288,#131);
#118=LINE('',#291,#132);
#119=LINE('',#293,#133);
#120=LINE('',#295,#134);
#121=LINE('',#300,#135);
#122=LINE('',#304,#136);
#123=LINE('',#312,#137);
#124=LINE('',#313,#138);
#125=LINE('',#315,#139);
#126=LINE('',#325,#140);
#127=LINE('',#328,#141);
#128=LINE('',#330,#142);
#129=LINE('',#332,#143);
#130=LINE('',#334,#144);
#131=VECTOR('',#232,1.);
#132=VECTOR('',#233,1.);
#133=VECTOR('',#234,1.);
#134=VECTOR('',#235,1.);
#135=VECTOR('',#240,1.);
#136=VECTOR('',#243,1.);
#137=VECTOR('',#252,1.);
#138=VECTOR('',#253,1.);
#139=VECTOR('',#254,1.);
#140=VECTOR('',#265,1.);
#141=VECTOR('',#268,1.);
#142=VECTOR('',#269,1.);
#143=VECTOR('',#272,1.);
#144=VECTOR('',#275,1.);
#145=EDGE_LOOP('',(#27,#28,#29,#30));
#146=EDGE_LOOP('',(#31,#32,#33,#34));
#147=EDGE_LOOP('',(#35));
#148=EDGE_LOOP('',(#36));
#149=EDGE_LOOP('',(#37));
#150=EDGE_LOOP('',(#38,#39,#40,#41,#42,#43));
#151=EDGE_LOOP('',(#44));
#152=EDGE_LOOP('',(#45));
#153=EDGE_LOOP('',(#46));
#154=EDGE_LOOP('',(#47,#48,#49,#50,#51,#52));
#155=EDGE_LOOP('',(#53,#54,#55,#56));
#156=EDGE_LOOP('',(#57,#58,#59,#60));
#157=EDGE_LOOP('',(#61));
#158=EDGE_LOOP('',(#62));
#159=EDGE_LOOP('',(#63));
#160=EDGE_LOOP('',(#64));
#161=EDGE_LOOP('',(#65));
#162=EDGE_LOOP('',(#66));
#163=EDGE_LOOP('',(#67,#68,#69,#70));
#164=EDGE_LOOP('',(#71,#72,#73,#74));
#165=FACE_BOUND('',#145,.T.);
#166=FACE_BOUND('',#146,.T.);
#167=FACE_BOUND('',#147,.T.);
#168=FACE_BOUND('',#148,.T.);
#169=FACE_BOUND('',#149,.T.);
#170=FACE_BOUND('',#150,.T.);
#171=FACE_BOUND('',#151,.T.);
#172=FACE_BOUND('',#152,.T.);
#173=FACE_BOUND('',#153,.T.);
#174=FACE_BOUND('',#154,.T.);
#175=FACE_BOUND('',#155,.T.);
#176=FACE_BOUND('',#156,.T.);
#177=FACE_BOUND('',#157,.T.);
#178=FACE_BOUND('',#158,.T.);
#179=FACE_BOUND('',#159,.T.);
#180=FACE_BOUND('',#160,.T.);
#181=FACE_BOUND('',#161,.T.);
#182=FACE_BOUND('',#162,.T.);
#183=FACE_BOUND('',#163,.T.);
#184=FACE_BOUND('',#164,.T.);
#185=PLANE('',#207);
#186=PLANE('',#211);
#187=PLANE('',#216);
#188=PLANE('',#222);
#189=PLANE('',#226);
#190=PLANE('',#227);
#191=ADVANCED_FACE('',(#165),#185,.T.);
#192=ADVANCED_FACE('',(#166),#22,.T.);
#193=ADVANCED_FACE('',(#167,#168,#169,#170),#186,.F.);
#194=ADVANCED_FACE('',(#171,#172,#173,#174),#187,.T.);
#195=ADVANCED_FACE('',(#175),#23,.F.);
#196=ADVANCED_FACE('',(#176),#188,.T.);
#197=ADVANCED_FACE('',(#177,#178),#24,.F.);
#198=ADVANCED_FACE('',(#179,#180),#25,.F.);
#199=ADVANCED_FACE('',(#181,#182),#26,.F.);
#200=ADVANCED_FACE('',(#183),#189,.F.);
#201=ADVANCED_FACE('',(#184),#190,.T.);
#202=CLOSED_SHELL('',(#191,#192,#193,#194,#195,#196,#197,#198,#199,#200,
#201));
#203=MANIFOLD_SOLID_BREP('',#202);
#204=SHAPE_DEFINITION_REPRESENTATION(#345,#205);
#205=SHAPE_REPRESENTATION('id2',(#206),#340);
#206=AXIS2_PLACEMENT_3D('',#286,#228,#229);
#207=AXIS2_PLACEMENT_3D('',#287,#230,#231);
#208=AXIS2_PLACEMENT_3D('',#296,#236,#237);
#209=AXIS2_PLACEMENT_3D('',#297,#238,#239);
#210=AXIS2_PLACEMENT_3D('',#302,#241,#242);
#211=AXIS2_PLACEMENT_3D('',#305,#244,#245);
#212=AXIS2_PLACEMENT_3D('',#306,#246,#247);
#213=AXIS2_PLACEMENT_3D('',#308,#248,#249);
#214=AXIS2_PLACEMENT_3D('',#310,#250,#251);
#215=AXIS2_PLACEMENT_3D('',#317,#255,#256);
#216=AXIS2_PLACEMENT_3D('',#318,#257,#258);
#217=AXIS2_PLACEMENT_3D('',#319,#259,#260);
#218=AXIS2_PLACEMENT_3D('',#321,#261,#262);
#219=AXIS2_PLACEMENT_3D('',#323,#263,#264);
#220=AXIS2_PLACEMENT_3D('',#326,#266,#267);
#221=AXIS2_PLACEMENT_3D('',#331,#270,#271);
#222=AXIS2_PLACEMENT_3D('',#333,#273,#274);
#223=AXIS2_PLACEMENT_3D('',#335,#276,#277);
#224=AXIS2_PLACEMENT_3D('',#336,#278,#279);
#225=AXIS2_PLACEMENT_3D('',#337,#280,#281);
#226=AXIS2_PLACEMENT_3D('',#338,#282,#283);
#227=AXIS2_PLACEMENT_3D('',#339,#284,#285);
#228=DIRECTION('',(0.,0.,1.));
#229=DIRECTION('',(1.,0.,0.));
#230=DIRECTION('',(0.,1.,0.));
#231=DIRECTION('',(0.,0.,1.));
#232=DIRECTION('',(-1.,0.,0.));
#233=DIRECTION('',(0.,0.,1.));
#234=DIRECTION('',(-1.,0.,0.));
#235=DIRECTION('',(0.,0.,1.));
#236=DIRECTION('',(0.,0.,1.));
#237=DIRECTION('',(1.,0.,0.));
#238=DIRECTION('',(0.,0.,1.));
#239=DIRECTION('',(1.,0.,0.));
#240=DIRECTION('',(0.,0.,1.));
#241=DIRECTION('',(0.,0.,1.));
#242=DIRECTION('',(1.,0.,0.));
#243=DIRECTION('',(0.,0.,1.));
#244=DIRECTION('',(0.,0.,1.));
#245=DIRECTION('',(1.,0.,0.));
#246=DIRECTION('',(0.,0.,1.));
#247=DIRECTION('',(1.,0.,0.));
#248=DIRECTION('',(0.,0.,1.));
#249=DIRECTION('',(1.,0.,0.));
#250=DIRECTION('',(0.,0.,1.));
#251=DIRECTION('',(1.,0.,0.));
#252=DIRECTION('',(-0.887010833178223,0.461748613235031,0.));
#253=DIRECTION('',(0.887010833178223,0.461748613235031,0.));
#254=DIRECTION('',(-1.,0.,0.));
#255=DIRECTION('',(0.,0.,-1.));
#256=DIRECTION('',(1.,0.,0.));
#257=DIRECTION('',(0.,0.,1.));
#258=DIRECTION('',(1.,0.,0.));
#259=DIRECTION('',(0.,0.,1.));
#260=DIRECTION('',(1.,0.,0.));
#261=DIRECTION('',(0.,0.,1.));
#262=DIRECTION('',(1.,0.,0.));
#263=DIRECTION('',(0.,0.,1.));
#264=DIRECTION('',(1.,0.,0.));
#265=DIRECTION('',(-0.887010833178223,0.461748613235031,0.));
#266=DIRECTION('',(0.,0.,-1.));
#267=DIRECTION('',(1.,0.,0.));
#268=DIRECTION('',(-1.,0.,0.));
#269=DIRECTION('',(0.887010833178223,0.461748613235031,0.));
#270=DIRECTION('',(0.,0.,1.));
#271=DIRECTION('',(1.,0.,0.));
#272=DIRECTION('',(0.,0.,1.));
#273=DIRECTION('',(0.,1.,0.));
#274=DIRECTION('',(0.,0.,1.));
#275=DIRECTION('',(0.,0.,1.));
#276=DIRECTION('',(0.,0.,1.));
#277=DIRECTION('',(1.,0.,0.));
#278=DIRECTION('',(0.,0.,1.));
#279=DIRECTION('',(1.,0.,0.));
#280=DIRECTION('',(0.,0.,1.));
#281=DIRECTION('',(1.,0.,0.));
#282=DIRECTION('',(0.461748613235031,-0.887010833178223,0.));
#283=DIRECTION('',(0.887010833178223,0.461748613235031,0.));
#284=DIRECTION('',(0.461748613235031,0.887010833178223,0.));
#285=DIRECTION('',(-0.887010833178223,0.461748613235031,0.));
#286=CARTESIAN_POINT('',(0.,0.,0.));
#287=CARTESIAN_POINT('',(0.00584807660688538,-0.0042,-0.001));
#288=CARTESIAN_POINT('',(0.00584807660688538,-0.0042,0.));
#289=CARTESIAN_POINT('',(0.00790332208631282,-0.0042,0.));
#290=CARTESIAN_POINT('',(0.00584807660688538,-0.0042,0.));
#291=CARTESIAN_POINT('',(0.00790332208631282,-0.0042,-0.001));
#292=CARTESIAN_POINT('',(0.00790332208631282,-0.0042,-0.001));
#293=CARTESIAN_POINT('',(0.00584807660688538,-0.0042,-0.001));
#294=CARTESIAN_POINT('',(0.00584807660688538,-0.0042,-0.001));
#295=CARTESIAN_POINT('',(0.00584807660688538,-0.0042,-0.001));
#296=CARTESIAN_POINT('',(0.,0.,-0.001));
#297=CARTESIAN_POINT('',(0.,0.,-0.001));
#298=CARTESIAN_POINT('',(-0.00927823124000227,-0.00491573240291271,-0.001));
#299=CARTESIAN_POINT('',(0.00927823124000227,-0.00491573240291271,-0.001));
#300=CARTESIAN_POINT('',(0.00927823124000227,-0.00491573240291271,-0.001));
#301=CARTESIAN_POINT('',(0.00927823124000227,-0.00491573240291271,0.));
#302=CARTESIAN_POINT('',(0.,0.,0.));
#303=CARTESIAN_POINT('',(-0.00927823124000227,-0.00491573240291271,0.));
#304=CARTESIAN_POINT('',(-0.00927823124000227,-0.00491573240291271,-0.001));
#305=CARTESIAN_POINT('',(0.,0.,-0.001));
#306=CARTESIAN_POINT('',(0.0053,-0.00625699608438426,-0.001));
#307=CARTESIAN_POINT('',(0.00605,-0.00625699608438426,-0.001));
#308=CARTESIAN_POINT('',(-0.0053,-0.00625699608438426,-0.001));
#309=CARTESIAN_POINT('',(-0.00455,-0.00625699608438426,-0.001));
#310=CARTESIAN_POINT('',(0.,-0.0082,-0.001));
#311=CARTESIAN_POINT('',(0.00075,-0.0082,-0.001));
#312=CARTESIAN_POINT('',(0.00790332208631282,-0.0042,-0.001));
#313=CARTESIAN_POINT('',(-0.00790332208631282,-0.0042,-0.001));
#314=CARTESIAN_POINT('',(-0.00790332208631282,-0.0042,-0.001));
#315=CARTESIAN_POINT('',(-0.00962340895940726,-0.0042,-0.001));
#316=CARTESIAN_POINT('',(-0.00584807660688538,-0.0042,-0.001));
#317=CARTESIAN_POINT('',(0.,0.,-0.001));
#318=CARTESIAN_POINT('',(0.,0.,0.));
#319=CARTESIAN_POINT('',(0.,-0.0082,-3.06161699786853E-20));
#320=CARTESIAN_POINT('',(0.00075,-0.0082,-3.06161699786853E-20));
#321=CARTESIAN_POINT('',(-0.0053,-0.00625699608438426,-3.06161699786853E-20));
#322=CARTESIAN_POINT('',(-0.00455,-0.00625699608438426,-3.06161699786853E-20));
#323=CARTESIAN_POINT('',(0.0053,-0.00625699608438426,-3.06161699786853E-20));
#324=CARTESIAN_POINT('',(0.00605,-0.00625699608438426,-3.06161699786853E-20));
#325=CARTESIAN_POINT('',(0.00790332208631282,-0.0042,0.));
#326=CARTESIAN_POINT('',(0.,0.,0.));
#327=CARTESIAN_POINT('',(-0.00584807660688538,-0.0042,0.));
#328=CARTESIAN_POINT('',(-0.00962340895940726,-0.0042,0.));
#329=CARTESIAN_POINT('',(-0.00790332208631282,-0.0042,0.));
#330=CARTESIAN_POINT('',(-0.00790332208631282,-0.0042,0.));
#331=CARTESIAN_POINT('',(0.,0.,-0.001));
#332=CARTESIAN_POINT('',(-0.00584807660688538,-0.0042,-0.001));
#333=CARTESIAN_POINT('',(-0.00962340895940726,-0.0042,-0.001));
#334=CARTESIAN_POINT('',(-0.00790332208631282,-0.0042,-0.001));
#335=CARTESIAN_POINT('',(0.0053,-0.00625699608438426,0.));
#336=CARTESIAN_POINT('',(-0.0053,-0.00625699608438426,0.));
#337=CARTESIAN_POINT('',(0.,-0.0082,0.));
#338=CARTESIAN_POINT('',(-0.00790332208631282,-0.0042,-0.001));
#339=CARTESIAN_POINT('',(0.00790332208631282,-0.0042,-0.001));
#340=(
GEOMETRIC_REPRESENTATION_CONTEXT(3)
GLOBAL_UNCERTAINTY_ASSIGNED_CONTEXT((#341))
GLOBAL_UNIT_ASSIGNED_CONTEXT((#344,#343,#342))
REPRESENTATION_CONTEXT('id2','TOP_LEVEL_ASSEMBLY_PART')
);
#341=UNCERTAINTY_MEASURE_WITH_UNIT(LENGTH_MEASURE(1.E-8),#344,
'DISTANCE_ACCURACY_VALUE','Maximum Tolerance applied to model');
#342=(
NAMED_UNIT(*)
SI_UNIT($,.STERADIAN.)
SOLID_ANGLE_UNIT()
);
#343=(
NAMED_UNIT(*)
PLANE_ANGLE_UNIT()
SI_UNIT($,.RADIAN.)
);
#344=(
LENGTH_UNIT()
NAMED_UNIT(*)
SI_UNIT($,.METRE.)
);
#345=PRODUCT_DEFINITION_SHAPE('','',#346);
#346=PRODUCT_DEFINITION('','',#348,#347);
#347=PRODUCT_DEFINITION_CONTEXT('',#354,'design');
#348=PRODUCT_DEFINITION_FORMATION_WITH_SPECIFIED_SOURCE('','',#350,
 .NOT_KNOWN.);
#349=PRODUCT_RELATED_PRODUCT_CATEGORY('','',(#350));
#350=PRODUCT('id2','id2','id2',(#352));
#351=PRODUCT_CATEGORY('','');
#352=PRODUCT_CONTEXT('',#354,'mechanical');
#353=APPLICATION_PROTOCOL_DEFINITION('international standard',
'ap242_managed_model_based_3d_engineering',2020,#354);
#354=APPLICATION_CONTEXT('managed model based 3d engineering');
ENDSEC;
END-ISO-10303-21;
