ISO-10303-21;
HEADER;
/* Generated by software containing ST-Developer
 * from STEP Tools, Inc. (www.steptools.com) 
 */
/* OPTION: using custom renumber hook */

FILE_DESCRIPTION(
/* description */ ('STEP AP242 Edition 2',
'CAx-IF Rec.Pracs.---Representation and Presentation of Product Manufa
cturing Information (PMI)---4.0---2014-10-13',
'CAx-IF Rec.Pracs.---3D Tessellated Geometry---0.4---2014-09-14','2;1',
'CAx-IF Rec.Pracs.---User Defined Attributes---1.5---2016-08-15'),
/* implementation_level */ '2;1');

FILE_NAME(
/* name */ '10115',
/* time_stamp */ '2026-07-13T05:02:40Z',
/* author */ (''),
/* organization */ (''),
/* preprocessor_version */ 'ST-DEVELOPER v20',
/* originating_system */ 'ONSHAPE BY PTC INC, 1.217',
/* authorisation */ '  ');

FILE_SCHEMA (('AP242_MANAGED_MODEL_BASED_3D_ENGINEERING_MIM_LF { 1 0 10303 442 3 1 4 }'));
ENDSEC;

DATA;
#10=SHAPE_REPRESENTATION_RELATIONSHIP('','',#93,#11);
#11=ADVANCED_BREP_SHAPE_REPRESENTATION('',(#91),#778);
#12=LINE('',#650,#14);
#13=LINE('',#777,#15);
#14=VECTOR('',#113,1.);
#15=VECTOR('',#122,1.);
#16=CYLINDRICAL_SURFACE('',#98,0.000350435188957767);
#17=CYLINDRICAL_SURFACE('',#102,0.00035043518886802);
#18=PLANE('',#96);
#19=PLANE('',#100);
#20=ELLIPSE('',#95,0.00121612113801176,0.000792166029604967);
#21=ELLIPSE('',#97,0.000350694210818921,0.000350435188957767);
#22=ELLIPSE('',#99,0.00121700916677758,0.000792904158856162);
#23=ELLIPSE('',#101,0.000350694210729107,0.00035043518886802);
#24=B_SPLINE_SURFACE_WITH_KNOTS('',3,3,((#575,#576,#577,#578,#579,#580),
(#581,#582,#583,#584,#585,#586),(#587,#588,#589,#590,#591,#592),(#593,#594,
#595,#596,#597,#598),(#599,#600,#601,#602,#603,#604),(#605,#606,#607,#608,
#609,#610),(#611,#612,#613,#614,#615,#616),(#617,#618,#619,#620,#621,#622),
(#623,#624,#625,#626,#627,#628),(#629,#630,#631,#632,#633,#634)),
 .UNSPECIFIED.,.T.,.F.,.F.,(2,2,2,2,2,2,2),(4,2,4),(-0.25,0.,0.25,0.5,0.75,
1.,1.25),(0.,0.5,1.),.UNSPECIFIED.);
#25=B_SPLINE_SURFACE_WITH_KNOTS('',3,3,((#651,#652,#653,#654,#655,#656),
(#657,#658,#659,#660,#661,#662),(#663,#664,#665,#666,#667,#668),(#669,#670,
#671,#672,#673,#674),(#675,#676,#677,#678,#679,#680),(#681,#682,#683,#684,
#685,#686),(#687,#688,#689,#690,#691,#692),(#693,#694,#695,#696,#697,#698),
(#699,#700,#701,#702,#703,#704),(#705,#706,#707,#708,#709,#710),(#711,#712,
#713,#714,#715,#716),(#717,#718,#719,#720,#721,#722),(#723,#724,#725,#726,
#727,#728),(#729,#730,#731,#732,#733,#734),(#735,#736,#737,#738,#739,#740),
(#741,#742,#743,#744,#745,#746),(#747,#748,#749,#750,#751,#752),(#753,#754,
#755,#756,#757,#758)),.UNSPECIFIED.,.T.,.F.,.F.,(2,2,2,2,2,2,2,2,2,2,2),
(4,2,4),(-0.124980030176097,0.,0.125020189206297,0.250020152681255,0.375020115823447,
0.500020078993058,0.625020043626901,0.750020006731947,0.875019969823903,
1.,1.1250201892063),(0.,0.5,1.),.UNSPECIFIED.);
#26=ORIENTED_EDGE('',*,*,#46,.T.);
#27=ORIENTED_EDGE('',*,*,#47,.F.);
#28=ORIENTED_EDGE('',*,*,#47,.T.);
#29=ORIENTED_EDGE('',*,*,#48,.T.);
#30=ORIENTED_EDGE('',*,*,#49,.F.);
#31=ORIENTED_EDGE('',*,*,#48,.F.);
#32=ORIENTED_EDGE('',*,*,#50,.T.);
#33=ORIENTED_EDGE('',*,*,#49,.T.);
#34=ORIENTED_EDGE('',*,*,#51,.T.);
#35=ORIENTED_EDGE('',*,*,#50,.F.);
#36=ORIENTED_EDGE('',*,*,#51,.F.);
#37=ORIENTED_EDGE('',*,*,#46,.F.);
#38=ORIENTED_EDGE('',*,*,#52,.T.);
#39=ORIENTED_EDGE('',*,*,#53,.F.);
#40=ORIENTED_EDGE('',*,*,#52,.F.);
#41=ORIENTED_EDGE('',*,*,#54,.T.);
#42=ORIENTED_EDGE('',*,*,#53,.T.);
#43=ORIENTED_EDGE('',*,*,#55,.T.);
#44=ORIENTED_EDGE('',*,*,#54,.F.);
#45=ORIENTED_EDGE('',*,*,#55,.F.);
#46=EDGE_CURVE('',#56,#56,#62,.T.);
#47=EDGE_CURVE('',#57,#57,#63,.F.);
#48=EDGE_CURVE('',#57,#58,#20,.T.);
#49=EDGE_CURVE('',#58,#58,#64,.T.);
#50=EDGE_CURVE('',#59,#59,#21,.T.);
#51=EDGE_CURVE('',#58,#59,#12,.T.);
#52=EDGE_CURVE('',#56,#60,#22,.T.);
#53=EDGE_CURVE('',#60,#60,#65,.T.);
#54=EDGE_CURVE('',#61,#61,#23,.F.);
#55=EDGE_CURVE('',#60,#61,#13,.F.);
#56=VERTEX_POINT('',#562);
#57=VERTEX_POINT('',#574);
#58=VERTEX_POINT('',#636);
#59=VERTEX_POINT('',#648);
#60=VERTEX_POINT('',#760);
#61=VERTEX_POINT('',#775);
#62=B_SPLINE_CURVE_WITH_KNOTS('',3,(#551,#552,#553,#554,#555,#556,#557,
#558,#559,#560,#561),.UNSPECIFIED.,.T.,.F.,(1,1,1,1,1,1,1,1,1,1,1,1,1,1,
1),(-0.375,-0.25,-0.125,0.,0.125,0.25,0.375,0.5,0.625,0.75,0.875,1.,1.125,
1.25,1.375),.UNSPECIFIED.);
#63=B_SPLINE_CURVE_WITH_KNOTS('',3,(#563,#564,#565,#566,#567,#568,#569,
#570,#571,#572,#573),.UNSPECIFIED.,.T.,.F.,(1,1,1,1,1,1,1,1,1,1,1,1,1,1,
1),(-0.375,-0.25,-0.125,0.,0.125,0.25,0.375,0.5,0.625,0.75,0.875,1.,1.125,
1.25,1.375),.UNSPECIFIED.);
#64=B_SPLINE_CURVE_WITH_KNOTS('',3,(#637,#638,#639,#640,#641,#642,#643,
#644,#645),.UNSPECIFIED.,.T.,.F.,(1,1,1,1,1,1,1,1,1,1,1,1,1),(-0.39375,
-0.2625,-0.13125,0.,0.2375,0.475,0.60625,0.7375,0.86875,1.,1.2375,1.475,
1.60625),.UNSPECIFIED.);
#65=B_SPLINE_CURVE_WITH_KNOTS('',3,(#761,#762,#763,#764,#765,#766,#767,
#768,#769,#770,#771,#772),.UNSPECIFIED.,.T.,.F.,(1,1,1,1,1,1,1,1,1,1,1,
1,1,1,1,1),(-0.381482188415527,-0.262453085327149,-0.131226542663574,0.,
0.11875,0.2375,0.3621875,0.486875,0.499488708496094,0.618517811584473,0.737546914672851,
0.868773457336426,1.,1.11875,1.2375,1.3621875),.UNSPECIFIED.);
#66=EDGE_LOOP('',(#26));
#67=EDGE_LOOP('',(#27));
#68=EDGE_LOOP('',(#28,#29,#30,#31));
#69=EDGE_LOOP('',(#32));
#70=EDGE_LOOP('',(#33,#34,#35,#36));
#71=EDGE_LOOP('',(#37,#38,#39,#40));
#72=EDGE_LOOP('',(#41));
#73=EDGE_LOOP('',(#42,#43,#44,#45));
#74=FACE_BOUND('',#66,.T.);
#75=FACE_BOUND('',#67,.T.);
#76=FACE_BOUND('',#68,.T.);
#77=FACE_BOUND('',#69,.T.);
#78=FACE_BOUND('',#70,.T.);
#79=FACE_BOUND('',#71,.T.);
#80=FACE_BOUND('',#72,.T.);
#81=FACE_BOUND('',#73,.T.);
#82=(
BOUNDED_SURFACE()
B_SPLINE_SURFACE(3,2,((#124,#125,#126,#127,#128,#129,#130,#131,#132,#133,
#134,#135,#136,#137,#138,#139,#140,#141,#142,#143,#144,#145,#146,#147,#148,
#149,#150,#151,#152,#153,#154,#155,#156,#157,#158,#159,#160,#161,#162,#163,
#164,#165,#166,#167,#168,#169,#170,#171,#172,#173,#174,#175,#176,#177,#178,
#179,#180,#181,#182,#183,#184),(#185,#186,#187,#188,#189,#190,#191,#192,
#193,#194,#195,#196,#197,#198,#199,#200,#201,#202,#203,#204,#205,#206,#207,
#208,#209,#210,#211,#212,#213,#214,#215,#216,#217,#218,#219,#220,#221,#222,
#223,#224,#225,#226,#227,#228,#229,#230,#231,#232,#233,#234,#235,#236,#237,
#238,#239,#240,#241,#242,#243,#244,#245),(#246,#247,#248,#249,#250,#251,
#252,#253,#254,#255,#256,#257,#258,#259,#260,#261,#262,#263,#264,#265,#266,
#267,#268,#269,#270,#271,#272,#273,#274,#275,#276,#277,#278,#279,#280,#281,
#282,#283,#284,#285,#286,#287,#288,#289,#290,#291,#292,#293,#294,#295,#296,
#297,#298,#299,#300,#301,#302,#303,#304,#305,#306),(#307,#308,#309,#310,
#311,#312,#313,#314,#315,#316,#317,#318,#319,#320,#321,#322,#323,#324,#325,
#326,#327,#328,#329,#330,#331,#332,#333,#334,#335,#336,#337,#338,#339,#340,
#341,#342,#343,#344,#345,#346,#347,#348,#349,#350,#351,#352,#353,#354,#355,
#356,#357,#358,#359,#360,#361,#362,#363,#364,#365,#366,#367),(#368,#369,
#370,#371,#372,#373,#374,#375,#376,#377,#378,#379,#380,#381,#382,#383,#384,
#385,#386,#387,#388,#389,#390,#391,#392,#393,#394,#395,#396,#397,#398,#399,
#400,#401,#402,#403,#404,#405,#406,#407,#408,#409,#410,#411,#412,#413,#414,
#415,#416,#417,#418,#419,#420,#421,#422,#423,#424,#425,#426,#427,#428),
(#429,#430,#431,#432,#433,#434,#435,#436,#437,#438,#439,#440,#441,#442,
#443,#444,#445,#446,#447,#448,#449,#450,#451,#452,#453,#454,#455,#456,#457,
#458,#459,#460,#461,#462,#463,#464,#465,#466,#467,#468,#469,#470,#471,#472,
#473,#474,#475,#476,#477,#478,#479,#480,#481,#482,#483,#484,#485,#486,#487,
#488,#489),(#490,#491,#492,#493,#494,#495,#496,#497,#498,#499,#500,#501,
#502,#503,#504,#505,#506,#507,#508,#509,#510,#511,#512,#513,#514,#515,#516,
#517,#518,#519,#520,#521,#522,#523,#524,#525,#526,#527,#528,#529,#530,#531,
#532,#533,#534,#535,#536,#537,#538,#539,#540,#541,#542,#543,#544,#545,#546,
#547,#548,#549,#550)),.UNSPECIFIED.,.T.,.F.,.F.)
B_SPLINE_SURFACE_WITH_KNOTS((4,3,4),(3,2,2,2,2,2,2,2,2,2,2,2,2,2,2,2,2,
2,2,2,2,2,2,2,2,2,2,2,2,2,3),(0.,0.5,1.),(0.,0.0333333333333333,0.0666666666666667,
0.1,0.133333333333333,0.166666666666667,0.2,0.233333333333333,0.266666666666667,
0.3,0.333333333333333,0.366666666666667,0.4,0.433333333333333,0.466666666666667,
0.5,0.533333333333333,0.566666666666667,0.6,0.633333333333333,0.666666666666667,
0.7,0.733333333333333,0.766666666666667,0.8,0.833333333333333,0.866666666666667,
0.9,0.933333333333333,0.966666666666667,0.971564507033356),
 .PIECEWISE_BEZIER_KNOTS.)
GEOMETRIC_REPRESENTATION_ITEM()
RATIONAL_B_SPLINE_SURFACE(((1.,0.866025403784439,1.,0.866025403784439,1.,
0.866025403784439,1.,0.866025403784439,1.,0.866025403784439,1.,0.866025403784439,
1.,0.866025403784439,1.,0.866025403784439,1.,0.866025403784439,1.,0.866025403784439,
1.,0.866025403784439,1.,0.866025403784439,1.,0.866025403784439,1.,0.866025403784439,
1.,0.866025403784439,1.,0.866025403784439,1.,0.866025403784439,1.,0.866025403784439,
1.,0.866025403784439,1.,0.866025403784439,1.,0.866025403784439,1.,0.866025403784439,
1.,0.866025403784439,1.,0.866025403784439,1.,0.866025403784439,1.,0.866025403784439,
1.,0.866025403784439,1.,0.866025403784439,1.,0.866025403784439,1.,0.980314414436337,
0.966413840209611),(0.333333333333333,0.288675134594813,0.333333333333333,
0.288675134594813,0.333333333333333,0.288675134594813,0.333333333333333,
0.288675134594813,0.333333333333333,0.288675134594813,0.333333333333333,
0.288675134594813,0.333333333333333,0.288675134594813,0.333333333333333,
0.288675134594813,0.333333333333333,0.288675134594813,0.333333333333333,
0.288675134594813,0.333333333333333,0.288675134594813,0.333333333333333,
0.288675134594813,0.333333333333333,0.288675134594813,0.333333333333333,
0.288675134594813,0.333333333333333,0.288675134594813,0.333333333333333,
0.288675134594813,0.333333333333333,0.288675134594813,0.333333333333333,
0.288675134594813,0.333333333333333,0.288675134594813,0.333333333333333,
0.288675134594813,0.333333333333333,0.288675134594813,0.333333333333333,
0.288675134594813,0.333333333333333,0.288675134594813,0.333333333333333,
0.288675134594813,0.333333333333333,0.288675134594813,0.333333333333333,
0.288675134594813,0.333333333333333,0.288675134594813,0.333333333333333,
0.288675134594813,0.333333333333333,0.288675134594813,0.333333333333333,
0.326771471478779,0.322137946736537),(0.333333333333333,0.288675134594813,
0.333333333333333,0.288675134594813,0.333333333333333,0.288675134594813,
0.333333333333333,0.288675134594813,0.333333333333333,0.288675134594813,
0.333333333333333,0.288675134594813,0.333333333333333,0.288675134594813,
0.333333333333333,0.288675134594813,0.333333333333333,0.288675134594813,
0.333333333333333,0.288675134594813,0.333333333333333,0.288675134594813,
0.333333333333333,0.288675134594813,0.333333333333333,0.288675134594813,
0.333333333333333,0.288675134594813,0.333333333333333,0.288675134594813,
0.333333333333333,0.288675134594813,0.333333333333333,0.288675134594813,
0.333333333333333,0.288675134594813,0.333333333333333,0.288675134594813,
0.333333333333333,0.288675134594813,0.333333333333333,0.288675134594813,
0.333333333333333,0.288675134594813,0.333333333333333,0.288675134594813,
0.333333333333333,0.288675134594813,0.333333333333333,0.288675134594813,
0.333333333333333,0.288675134594813,0.333333333333333,0.288675134594813,
0.333333333333333,0.288675134594813,0.333333333333333,0.288675134594813,
0.333333333333333,0.326771471478779,0.322137946736537),(1.,0.866025403784439,
1.,0.866025403784439,1.,0.866025403784439,1.,0.866025403784439,1.,0.866025403784439,
1.,0.866025403784439,1.,0.866025403784439,1.,0.866025403784439,1.,0.866025403784439,
1.,0.866025403784439,1.,0.866025403784439,1.,0.866025403784439,1.,0.866025403784439,
1.,0.866025403784439,1.,0.866025403784439,1.,0.866025403784439,1.,0.866025403784439,
1.,0.866025403784439,1.,0.866025403784439,1.,0.866025403784439,1.,0.866025403784439,
1.,0.866025403784439,1.,0.866025403784439,1.,0.866025403784439,1.,0.866025403784439,
1.,0.866025403784439,1.,0.866025403784439,1.,0.866025403784439,1.,0.866025403784439,
1.,0.980314414436337,0.966413840209611),(0.333333333333333,0.288675134594813,
0.333333333333333,0.288675134594813,0.333333333333333,0.288675134594813,
0.333333333333333,0.288675134594813,0.333333333333333,0.288675134594813,
0.333333333333333,0.288675134594813,0.333333333333333,0.288675134594813,
0.333333333333333,0.288675134594813,0.333333333333333,0.288675134594813,
0.333333333333333,0.288675134594813,0.333333333333333,0.288675134594813,
0.333333333333333,0.288675134594813,0.333333333333333,0.288675134594813,
0.333333333333333,0.288675134594813,0.333333333333333,0.288675134594813,
0.333333333333333,0.288675134594813,0.333333333333333,0.288675134594813,
0.333333333333333,0.288675134594813,0.333333333333333,0.288675134594813,
0.333333333333333,0.288675134594813,0.333333333333333,0.288675134594813,
0.333333333333333,0.288675134594813,0.333333333333333,0.288675134594813,
0.333333333333333,0.288675134594813,0.333333333333333,0.288675134594813,
0.333333333333333,0.288675134594813,0.333333333333333,0.288675134594813,
0.333333333333333,0.288675134594813,0.333333333333333,0.288675134594813,
0.333333333333333,0.326771471478779,0.322137946736537),(0.333333333333333,
0.288675134594813,0.333333333333333,0.288675134594813,0.333333333333333,
0.288675134594813,0.333333333333333,0.288675134594813,0.333333333333333,
0.288675134594813,0.333333333333333,0.288675134594813,0.333333333333333,
0.288675134594813,0.333333333333333,0.288675134594813,0.333333333333333,
0.288675134594813,0.333333333333333,0.288675134594813,0.333333333333333,
0.288675134594813,0.333333333333333,0.288675134594813,0.333333333333333,
0.288675134594813,0.333333333333333,0.288675134594813,0.333333333333333,
0.288675134594813,0.333333333333333,0.288675134594813,0.333333333333333,
0.288675134594813,0.333333333333333,0.288675134594813,0.333333333333333,
0.288675134594813,0.333333333333333,0.288675134594813,0.333333333333333,
0.288675134594813,0.333333333333333,0.288675134594813,0.333333333333333,
0.288675134594813,0.333333333333333,0.288675134594813,0.333333333333333,
0.288675134594813,0.333333333333333,0.288675134594813,0.333333333333333,
0.288675134594813,0.333333333333333,0.288675134594813,0.333333333333333,
0.288675134594813,0.333333333333333,0.326771471478779,0.322137946736537),
(1.,0.866025403784439,1.,0.866025403784439,1.,0.866025403784439,1.,0.866025403784439,
1.,0.866025403784439,1.,0.866025403784439,1.,0.866025403784439,1.,0.866025403784439,
1.,0.866025403784439,1.,0.866025403784439,1.,0.866025403784439,1.,0.866025403784439,
1.,0.866025403784439,1.,0.866025403784439,1.,0.866025403784439,1.,0.866025403784439,
1.,0.866025403784439,1.,0.866025403784439,1.,0.866025403784439,1.,0.866025403784439,
1.,0.866025403784439,1.,0.866025403784439,1.,0.866025403784439,1.,0.866025403784439,
1.,0.866025403784439,1.,0.866025403784439,1.,0.866025403784439,1.,0.866025403784439,
1.,0.866025403784439,1.,0.980314414436337,0.966413840209611)))
REPRESENTATION_ITEM('')
SURFACE()
);
#83=ADVANCED_FACE('',(#74,#75),#82,.F.);
#84=ADVANCED_FACE('',(#76),#24,.T.);
#85=ADVANCED_FACE('',(#77),#18,.T.);
#86=ADVANCED_FACE('',(#78),#16,.T.);
#87=ADVANCED_FACE('',(#79),#25,.T.);
#88=ADVANCED_FACE('',(#80),#19,.F.);
#89=ADVANCED_FACE('',(#81),#17,.T.);
#90=CLOSED_SHELL('',(#83,#84,#85,#86,#87,#88,#89));
#91=MANIFOLD_SOLID_BREP('',#90);
#92=SHAPE_DEFINITION_REPRESENTATION(#783,#93);
#93=SHAPE_REPRESENTATION('id2',(#94),#778);
#94=AXIS2_PLACEMENT_3D('',#123,#103,#104);
#95=AXIS2_PLACEMENT_3D('',#635,#105,#106);
#96=AXIS2_PLACEMENT_3D('',#646,#107,#108);
#97=AXIS2_PLACEMENT_3D('',#647,#109,#110);
#98=AXIS2_PLACEMENT_3D('',#649,#111,#112);
#99=AXIS2_PLACEMENT_3D('',#759,#114,#115);
#100=AXIS2_PLACEMENT_3D('',#773,#116,#117);
#101=AXIS2_PLACEMENT_3D('',#774,#118,#119);
#102=AXIS2_PLACEMENT_3D('',#776,#120,#121);
#103=DIRECTION('',(0.,0.,1.));
#104=DIRECTION('',(1.,0.,0.));
#105=DIRECTION('',(1.,0.,0.));
#106=DIRECTION('',(-4.24572035028283E-17,-0.720573317118391,0.693378752672014));
#107=DIRECTION('',(-6.44376318771624E-16,-0.999261402517741,0.038427196596649));
#108=DIRECTION('',(1.,-6.44852605282314E-16,0.));
#109=DIRECTION('',(-6.44376318771624E-16,-0.999261402517741,0.038427196596649));
#110=DIRECTION('',(1.67563715564181E-14,-0.038427196596649,-0.999261402517741));
#111=DIRECTION('',(-8.90095619059082E-30,-1.,1.98185568723762E-15));
#112=DIRECTION('',(-0.999999614760257,0.,0.000877769524406101));
#113=DIRECTION('',(-8.90095619059082E-30,-1.,1.98185568723762E-15));
#114=DIRECTION('',(0.623489801858755,2.77440719641071E-14,-0.781831482468013));
#115=DIRECTION('',(0.542112073449872,-0.720565027325289,0.432319952368135));
#116=DIRECTION('',(0.0300435920822526,-0.999261402517741,0.0239589651920277));
#117=DIRECTION('',(0.623489801858734,5.32907051820075E-15,-0.781831482468029));
#118=DIRECTION('',(0.0300435920822526,-0.999261402517741,0.0239589651920277));
#119=DIRECTION('',(-0.781254023703615,-0.03842719659665,-0.623029293860758));
#120=DIRECTION('',(-8.66805833524099E-16,-1.,-6.87254569043449E-16));
#121=DIRECTION('',(-0.620592176718672,0.,0.784133502788639));
#122=DIRECTION('',(-8.66805833524099E-16,-1.,-6.87254569043449E-16));
#123=CARTESIAN_POINT('',(0.,0.,0.));
#124=CARTESIAN_POINT('',(-0.0026,0.,-5.41906208622704E-19));
#125=CARTESIAN_POINT('',(-0.0026,6.04166666666666E-5,-0.00150111069989303));
#126=CARTESIAN_POINT('',(-0.0013,0.000120833333333333,-0.00225166604983954));
#127=CARTESIAN_POINT('',(4.41906349468711E-19,0.000181250000000001,-0.00300222139978605));
#128=CARTESIAN_POINT('',(0.0013,0.000241666666666667,-0.00225166604983954));
#129=CARTESIAN_POINT('',(0.0026,0.000302083333333333,-0.00150111069989303));
#130=CARTESIAN_POINT('',(0.0026,0.0003625,2.23498040844392E-19));
#131=CARTESIAN_POINT('',(0.0026,0.000422916666666667,0.00150111069989303));
#132=CARTESIAN_POINT('',(0.0013,0.000483333333333333,0.00225166604983954));
#133=CARTESIAN_POINT('',(-7.42402667107434E-20,0.00054375,0.00300222139978605));
#134=CARTESIAN_POINT('',(-0.0013,0.000604166666666667,0.00225166604983954));
#135=CARTESIAN_POINT('',(-0.0026,0.000664583333333333,0.00150111069989303));
#136=CARTESIAN_POINT('',(-0.0026,0.000725,-5.41906208622704E-19));
#137=CARTESIAN_POINT('',(-0.0026,0.000785416666666667,-0.00150111069989303));
#138=CARTESIAN_POINT('',(-0.0013,0.000845833333333333,-0.00225166604983954));
#139=CARTESIAN_POINT('',(4.41906349468711E-19,0.00090625,-0.00300222139978605));
#140=CARTESIAN_POINT('',(0.0013,0.000966666666666667,-0.00225166604983954));
#141=CARTESIAN_POINT('',(0.0026,0.00102708333333333,-0.00150111069989303));
#142=CARTESIAN_POINT('',(0.0026,0.0010875,2.23498040844392E-19));
#143=CARTESIAN_POINT('',(0.0026,0.00114791666666667,0.00150111069989303));
#144=CARTESIAN_POINT('',(0.0013,0.00120833333333333,0.00225166604983954));
#145=CARTESIAN_POINT('',(-7.42402667107434E-20,0.00126875,0.00300222139978605));
#146=CARTESIAN_POINT('',(-0.0013,0.00132916666666667,0.00225166604983954));
#147=CARTESIAN_POINT('',(-0.0026,0.00138958333333334,0.00150111069989303));
#148=CARTESIAN_POINT('',(-0.0026,0.00145,-5.41906208622704E-19));
#149=CARTESIAN_POINT('',(-0.0026,0.00151041666666667,-0.00150111069989303));
#150=CARTESIAN_POINT('',(-0.0013,0.00157083333333333,-0.00225166604983954));
#151=CARTESIAN_POINT('',(4.41906349468711E-19,0.00163125,-0.00300222139978605));
#152=CARTESIAN_POINT('',(0.0013,0.00169166666666667,-0.00225166604983954));
#153=CARTESIAN_POINT('',(0.0026,0.00175208333333334,-0.00150111069989303));
#154=CARTESIAN_POINT('',(0.0026,0.0018125,2.23498040844392E-19));
#155=CARTESIAN_POINT('',(0.0026,0.00187291666666666,0.00150111069989303));
#156=CARTESIAN_POINT('',(0.0013,0.00193333333333333,0.00225166604983954));
#157=CARTESIAN_POINT('',(-7.42402667107434E-20,0.00199374999999999,0.00300222139978605));
#158=CARTESIAN_POINT('',(-0.0013,0.00205416666666667,0.00225166604983954));
#159=CARTESIAN_POINT('',(-0.0026,0.00211458333333333,0.00150111069989303));
#160=CARTESIAN_POINT('',(-0.0026,0.002175,-5.41906208622704E-19));
#161=CARTESIAN_POINT('',(-0.0026,0.00223541666666666,-0.00150111069989303));
#162=CARTESIAN_POINT('',(-0.0013,0.00229583333333333,-0.00225166604983954));
#163=CARTESIAN_POINT('',(4.41906349468711E-19,0.00235625,-0.00300222139978605));
#164=CARTESIAN_POINT('',(0.0013,0.00241666666666667,-0.00225166604983954));
#165=CARTESIAN_POINT('',(0.0026,0.00247708333333333,-0.00150111069989303));
#166=CARTESIAN_POINT('',(0.0026,0.0025375,2.23498040844392E-19));
#167=CARTESIAN_POINT('',(0.0026,0.00259791666666666,0.00150111069989303));
#168=CARTESIAN_POINT('',(0.0013,0.00265833333333333,0.00225166604983954));
#169=CARTESIAN_POINT('',(-7.42402667107434E-20,0.00271875,0.00300222139978605));
#170=CARTESIAN_POINT('',(-0.0013,0.00277916666666667,0.00225166604983954));
#171=CARTESIAN_POINT('',(-0.0026,0.00283958333333333,0.00150111069989303));
#172=CARTESIAN_POINT('',(-0.0026,0.0029,-5.41906208622704E-19));
#173=CARTESIAN_POINT('',(-0.0026,0.00296041666666666,-0.00150111069989303));
#174=CARTESIAN_POINT('',(-0.0013,0.00302083333333333,-0.00225166604983954));
#175=CARTESIAN_POINT('',(4.41906349468711E-19,0.00308125,-0.00300222139978605));
#176=CARTESIAN_POINT('',(0.0013,0.00314166666666667,-0.00225166604983954));
#177=CARTESIAN_POINT('',(0.0026,0.00320208333333333,-0.00150111069989303));
#178=CARTESIAN_POINT('',(0.0026,0.0032625,2.23498040844392E-19));
#179=CARTESIAN_POINT('',(0.0026,0.00332291666666666,0.00150111069989303));
#180=CARTESIAN_POINT('',(0.0013,0.00338333333333333,0.00225166604983954));
#181=CARTESIAN_POINT('',(-7.42402667107434E-20,0.00344375,0.00300222139978605));
#182=CARTESIAN_POINT('',(-0.0013,0.00350416666666667,0.00225166604983954));
#183=CARTESIAN_POINT('',(-0.00146874638445791,0.00351200904671359,0.00215424027934799));
#184=CARTESIAN_POINT('',(-0.00162108666583829,0.00352043868891458,0.00203275134284577));
#185=CARTESIAN_POINT('',(-0.0026,0.0007,-5.41906208622706E-19));
#186=CARTESIAN_POINT('',(-0.0026,0.000760416666666667,-0.00150111069989303));
#187=CARTESIAN_POINT('',(-0.0013,0.000820833333333334,-0.00225166604983954));
#188=CARTESIAN_POINT('',(4.41906349468712E-19,0.00088125,-0.00300222139978605));
#189=CARTESIAN_POINT('',(0.0013,0.000941666666666668,-0.00225166604983954));
#190=CARTESIAN_POINT('',(0.0026,0.00100208333333333,-0.00150111069989303));
#191=CARTESIAN_POINT('',(0.0026,0.0010625,2.23498040844392E-19));
#192=CARTESIAN_POINT('',(0.0026,0.00112291666666667,0.00150111069989303));
#193=CARTESIAN_POINT('',(0.0013,0.00118333333333333,0.00225166604983954));
#194=CARTESIAN_POINT('',(-7.42402667107435E-20,0.00124375,0.00300222139978605));
#195=CARTESIAN_POINT('',(-0.0013,0.00130416666666667,0.00225166604983954));
#196=CARTESIAN_POINT('',(-0.0026,0.00136458333333333,0.00150111069989303));
#197=CARTESIAN_POINT('',(-0.0026,0.001425,-5.41906208622706E-19));
#198=CARTESIAN_POINT('',(-0.0026,0.00148541666666667,-0.00150111069989303));
#199=CARTESIAN_POINT('',(-0.0013,0.00154583333333334,-0.00225166604983954));
#200=CARTESIAN_POINT('',(4.41906349468712E-19,0.00160625,-0.00300222139978605));
#201=CARTESIAN_POINT('',(0.0013,0.00166666666666667,-0.00225166604983954));
#202=CARTESIAN_POINT('',(0.0026,0.00172708333333333,-0.00150111069989303));
#203=CARTESIAN_POINT('',(0.0026,0.0017875,2.23498040844392E-19));
#204=CARTESIAN_POINT('',(0.0026,0.00184791666666667,0.00150111069989303));
#205=CARTESIAN_POINT('',(0.0013,0.00190833333333333,0.00225166604983954));
#206=CARTESIAN_POINT('',(-7.42402667107435E-20,0.00196875,0.00300222139978605));
#207=CARTESIAN_POINT('',(-0.0013,0.00202916666666667,0.00225166604983954));
#208=CARTESIAN_POINT('',(-0.0026,0.00208958333333333,0.00150111069989303));
#209=CARTESIAN_POINT('',(-0.0026,0.00215,-5.41906208622706E-19));
#210=CARTESIAN_POINT('',(-0.0026,0.00221041666666667,-0.00150111069989303));
#211=CARTESIAN_POINT('',(-0.0013,0.00227083333333333,-0.00225166604983954));
#212=CARTESIAN_POINT('',(4.41906349468712E-19,0.00233125,-0.00300222139978605));
#213=CARTESIAN_POINT('',(0.0013,0.00239166666666667,-0.00225166604983954));
#214=CARTESIAN_POINT('',(0.0026,0.00245208333333333,-0.00150111069989303));
#215=CARTESIAN_POINT('',(0.0026,0.0025125,2.23498040844392E-19));
#216=CARTESIAN_POINT('',(0.0026,0.00257291666666666,0.00150111069989303));
#217=CARTESIAN_POINT('',(0.0013,0.00263333333333334,0.00225166604983954));
#218=CARTESIAN_POINT('',(-7.42402667107435E-20,0.00269375,0.00300222139978605));
#219=CARTESIAN_POINT('',(-0.0013,0.00275416666666667,0.00225166604983954));
#220=CARTESIAN_POINT('',(-0.0026,0.00281458333333333,0.00150111069989303));
#221=CARTESIAN_POINT('',(-0.0026,0.002875,-5.41906208622706E-19));
#222=CARTESIAN_POINT('',(-0.0026,0.00293541666666667,-0.00150111069989303));
#223=CARTESIAN_POINT('',(-0.0013,0.00299583333333334,-0.00225166604983954));
#224=CARTESIAN_POINT('',(4.41906349468712E-19,0.00305625,-0.00300222139978605));
#225=CARTESIAN_POINT('',(0.0013,0.00311666666666667,-0.00225166604983954));
#226=CARTESIAN_POINT('',(0.0026,0.00317708333333333,-0.00150111069989303));
#227=CARTESIAN_POINT('',(0.0026,0.00323750000000001,2.23498040844392E-19));
#228=CARTESIAN_POINT('',(0.0026,0.00329791666666667,0.00150111069989303));
#229=CARTESIAN_POINT('',(0.0013,0.00335833333333332,0.00225166604983954));
#230=CARTESIAN_POINT('',(-7.42402667107435E-20,0.00341875,0.00300222139978605));
#231=CARTESIAN_POINT('',(-0.0013,0.00347916666666666,0.00225166604983954));
#232=CARTESIAN_POINT('',(-0.0026,0.00353958333333334,0.00150111069989303));
#233=CARTESIAN_POINT('',(-0.0026,0.0036,-5.41906208622706E-19));
#234=CARTESIAN_POINT('',(-0.0026,0.00366041666666668,-0.00150111069989303));
#235=CARTESIAN_POINT('',(-0.0013,0.00372083333333334,-0.00225166604983954));
#236=CARTESIAN_POINT('',(4.41906349468712E-19,0.00378125000000001,-0.00300222139978605));
#237=CARTESIAN_POINT('',(0.0013,0.00384166666666668,-0.00225166604983954));
#238=CARTESIAN_POINT('',(0.0026,0.00390208333333335,-0.00150111069989303));
#239=CARTESIAN_POINT('',(0.0026,0.00396249999999999,2.23498040844392E-19));
#240=CARTESIAN_POINT('',(0.0026,0.00402291666666668,0.00150111069989303));
#241=CARTESIAN_POINT('',(0.0013,0.00408333333333333,0.00225166604983954));
#242=CARTESIAN_POINT('',(-7.42402667107435E-20,0.00414375000000001,0.00300222139978605));
#243=CARTESIAN_POINT('',(-0.0013,0.00420416666666667,0.00225166604983954));
#244=CARTESIAN_POINT('',(-0.00146874638445791,0.0042120090467136,0.00215424027934799));
#245=CARTESIAN_POINT('',(-0.00162108666583829,0.00422043868891459,0.00203275134284578));
#246=CARTESIAN_POINT('',(-0.0033,0.0007,-5.41906208622706E-19));
#247=CARTESIAN_POINT('',(-0.0033,0.000760416666666667,-0.00190525588832576));
#248=CARTESIAN_POINT('',(-0.00165,0.000820833333333334,-0.00285788383248865));
#249=CARTESIAN_POINT('',(3.92412838328215E-19,0.00088125,-0.00381051177665153));
#250=CARTESIAN_POINT('',(0.00165,0.000941666666666668,-0.00285788383248865));
#251=CARTESIAN_POINT('',(0.0033,0.00100208333333333,-0.00190525588832576));
#252=CARTESIAN_POINT('',(0.0033,0.0010625,1.37772764904077E-19));
#253=CARTESIAN_POINT('',(0.0033,0.00112291666666667,0.00190525588832576));
#254=CARTESIAN_POINT('',(0.00165,0.00118333333333333,0.00285788383248865));
#255=CARTESIAN_POINT('',(7.42402667107435E-20,0.00124375,0.00381051177665153));
#256=CARTESIAN_POINT('',(-0.00165,0.00130416666666667,0.00285788383248865));
#257=CARTESIAN_POINT('',(-0.0033,0.00136458333333333,0.00190525588832576));
#258=CARTESIAN_POINT('',(-0.0033,0.001425,-5.41906208622706E-19));
#259=CARTESIAN_POINT('',(-0.0033,0.00148541666666667,-0.00190525588832576));
#260=CARTESIAN_POINT('',(-0.00165,0.00154583333333334,-0.00285788383248865));
#261=CARTESIAN_POINT('',(3.92412838328215E-19,0.00160625,-0.00381051177665153));
#262=CARTESIAN_POINT('',(0.00165,0.00166666666666667,-0.00285788383248865));
#263=CARTESIAN_POINT('',(0.0033,0.00172708333333333,-0.00190525588832576));
#264=CARTESIAN_POINT('',(0.0033,0.0017875,1.37772764904077E-19));
#265=CARTESIAN_POINT('',(0.0033,0.00184791666666667,0.00190525588832576));
#266=CARTESIAN_POINT('',(0.00165,0.00190833333333333,0.00285788383248865));
#267=CARTESIAN_POINT('',(7.42402667107435E-20,0.00196875,0.00381051177665153));
#268=CARTESIAN_POINT('',(-0.00165,0.00202916666666667,0.00285788383248865));
#269=CARTESIAN_POINT('',(-0.0033,0.00208958333333333,0.00190525588832576));
#270=CARTESIAN_POINT('',(-0.0033,0.00215,-5.41906208622706E-19));
#271=CARTESIAN_POINT('',(-0.0033,0.00221041666666667,-0.00190525588832576));
#272=CARTESIAN_POINT('',(-0.00165,0.00227083333333333,-0.00285788383248865));
#273=CARTESIAN_POINT('',(3.92412838328215E-19,0.00233125,-0.00381051177665153));
#274=CARTESIAN_POINT('',(0.00165,0.00239166666666667,-0.00285788383248865));
#275=CARTESIAN_POINT('',(0.0033,0.00245208333333333,-0.00190525588832576));
#276=CARTESIAN_POINT('',(0.0033,0.0025125,1.37772764904077E-19));
#277=CARTESIAN_POINT('',(0.0033,0.00257291666666666,0.00190525588832576));
#278=CARTESIAN_POINT('',(0.00165,0.00263333333333334,0.00285788383248865));
#279=CARTESIAN_POINT('',(7.42402667107435E-20,0.00269375,0.00381051177665153));
#280=CARTESIAN_POINT('',(-0.00165,0.00275416666666667,0.00285788383248865));
#281=CARTESIAN_POINT('',(-0.0033,0.00281458333333333,0.00190525588832576));
#282=CARTESIAN_POINT('',(-0.0033,0.002875,-5.41906208622706E-19));
#283=CARTESIAN_POINT('',(-0.0033,0.00293541666666667,-0.00190525588832576));
#284=CARTESIAN_POINT('',(-0.00165,0.00299583333333334,-0.00285788383248865));
#285=CARTESIAN_POINT('',(3.92412838328215E-19,0.00305625,-0.00381051177665153));
#286=CARTESIAN_POINT('',(0.00165,0.00311666666666667,-0.00285788383248865));
#287=CARTESIAN_POINT('',(0.0033,0.00317708333333333,-0.00190525588832576));
#288=CARTESIAN_POINT('',(0.0033,0.00323750000000001,1.37772764904077E-19));
#289=CARTESIAN_POINT('',(0.0033,0.00329791666666667,0.00190525588832576));
#290=CARTESIAN_POINT('',(0.00165,0.00335833333333332,0.00285788383248865));
#291=CARTESIAN_POINT('',(7.42402667107435E-20,0.00341875,0.00381051177665153));
#292=CARTESIAN_POINT('',(-0.00165,0.00347916666666666,0.00285788383248865));
#293=CARTESIAN_POINT('',(-0.0033,0.00353958333333334,0.00190525588832576));
#294=CARTESIAN_POINT('',(-0.0033,0.0036,-5.41906208622706E-19));
#295=CARTESIAN_POINT('',(-0.0033,0.00366041666666668,-0.00190525588832576));
#296=CARTESIAN_POINT('',(-0.00165,0.00372083333333334,-0.00285788383248865));
#297=CARTESIAN_POINT('',(3.92412838328215E-19,0.00378125000000001,-0.00381051177665153));
#298=CARTESIAN_POINT('',(0.00165,0.00384166666666668,-0.00285788383248865));
#299=CARTESIAN_POINT('',(0.0033,0.00390208333333335,-0.00190525588832576));
#300=CARTESIAN_POINT('',(0.0033,0.00396249999999999,1.37772764904077E-19));
#301=CARTESIAN_POINT('',(0.0033,0.00402291666666668,0.00190525588832576));
#302=CARTESIAN_POINT('',(0.00165,0.00408333333333333,0.00285788383248865));
#303=CARTESIAN_POINT('',(7.42402667107435E-20,0.00414375000000001,0.00381051177665153));
#304=CARTESIAN_POINT('',(-0.00165,0.00420416666666667,0.00285788383248865));
#305=CARTESIAN_POINT('',(-0.00186417810335043,0.0042120090467136,0.00273422804686476));
#306=CARTESIAN_POINT('',(-0.00205753307587168,0.00422043868891459,0.00258003055053502));
#307=CARTESIAN_POINT('',(-0.0033,4.28626379701574E-20,-5.41906208622704E-19));
#308=CARTESIAN_POINT('',(-0.0033,6.04166666666667E-5,-0.00190525588832576));
#309=CARTESIAN_POINT('',(-0.00165,0.000120833333333333,-0.00285788383248865));
#310=CARTESIAN_POINT('',(3.92412838328215E-19,0.000181250000000001,-0.00381051177665153));
#311=CARTESIAN_POINT('',(0.00165,0.000241666666666667,-0.00285788383248865));
#312=CARTESIAN_POINT('',(0.0033,0.000302083333333333,-0.00190525588832576));
#313=CARTESIAN_POINT('',(0.0033,0.0003625,1.37772764904077E-19));
#314=CARTESIAN_POINT('',(0.0033,0.000422916666666667,0.00190525588832576));
#315=CARTESIAN_POINT('',(0.00165,0.000483333333333333,0.00285788383248865));
#316=CARTESIAN_POINT('',(7.42402667107435E-20,0.00054375,0.00381051177665153));
#317=CARTESIAN_POINT('',(-0.00165,0.000604166666666667,0.00285788383248865));
#318=CARTESIAN_POINT('',(-0.0033,0.000664583333333333,0.00190525588832576));
#319=CARTESIAN_POINT('',(-0.0033,0.000725,-5.41906208622704E-19));
#320=CARTESIAN_POINT('',(-0.0033,0.000785416666666667,-0.00190525588832576));
#321=CARTESIAN_POINT('',(-0.00165,0.000845833333333333,-0.00285788383248865));
#322=CARTESIAN_POINT('',(3.92412838328215E-19,0.00090625,-0.00381051177665153));
#323=CARTESIAN_POINT('',(0.00165,0.000966666666666667,-0.00285788383248865));
#324=CARTESIAN_POINT('',(0.0033,0.00102708333333333,-0.00190525588832576));
#325=CARTESIAN_POINT('',(0.0033,0.0010875,1.37772764904077E-19));
#326=CARTESIAN_POINT('',(0.0033,0.00114791666666667,0.00190525588832576));
#327=CARTESIAN_POINT('',(0.00165,0.00120833333333333,0.00285788383248865));
#328=CARTESIAN_POINT('',(7.42402667107435E-20,0.00126875,0.00381051177665153));
#329=CARTESIAN_POINT('',(-0.00165,0.00132916666666667,0.00285788383248865));
#330=CARTESIAN_POINT('',(-0.0033,0.00138958333333334,0.00190525588832576));
#331=CARTESIAN_POINT('',(-0.0033,0.00145,-5.41906208622704E-19));
#332=CARTESIAN_POINT('',(-0.0033,0.00151041666666667,-0.00190525588832576));
#333=CARTESIAN_POINT('',(-0.00165,0.00157083333333333,-0.00285788383248865));
#334=CARTESIAN_POINT('',(3.92412838328215E-19,0.00163125,-0.00381051177665153));
#335=CARTESIAN_POINT('',(0.00165,0.00169166666666667,-0.00285788383248865));
#336=CARTESIAN_POINT('',(0.0033,0.00175208333333334,-0.00190525588832576));
#337=CARTESIAN_POINT('',(0.0033,0.0018125,1.37772764904077E-19));
#338=CARTESIAN_POINT('',(0.0033,0.00187291666666666,0.00190525588832576));
#339=CARTESIAN_POINT('',(0.00165,0.00193333333333333,0.00285788383248865));
#340=CARTESIAN_POINT('',(7.42402667107435E-20,0.00199374999999999,0.00381051177665153));
#341=CARTESIAN_POINT('',(-0.00165,0.00205416666666667,0.00285788383248865));
#342=CARTESIAN_POINT('',(-0.0033,0.00211458333333333,0.00190525588832576));
#343=CARTESIAN_POINT('',(-0.0033,0.002175,-5.41906208622704E-19));
#344=CARTESIAN_POINT('',(-0.0033,0.00223541666666666,-0.00190525588832576));
#345=CARTESIAN_POINT('',(-0.00165,0.00229583333333333,-0.00285788383248865));
#346=CARTESIAN_POINT('',(3.92412838328215E-19,0.00235625,-0.00381051177665153));
#347=CARTESIAN_POINT('',(0.00165,0.00241666666666667,-0.00285788383248865));
#348=CARTESIAN_POINT('',(0.0033,0.00247708333333333,-0.00190525588832576));
#349=CARTESIAN_POINT('',(0.0033,0.0025375,1.37772764904077E-19));
#350=CARTESIAN_POINT('',(0.0033,0.00259791666666666,0.00190525588832576));
#351=CARTESIAN_POINT('',(0.00165,0.00265833333333333,0.00285788383248865));
#352=CARTESIAN_POINT('',(7.42402667107435E-20,0.00271875,0.00381051177665153));
#353=CARTESIAN_POINT('',(-0.00165,0.00277916666666667,0.00285788383248865));
#354=CARTESIAN_POINT('',(-0.0033,0.00283958333333333,0.00190525588832576));
#355=CARTESIAN_POINT('',(-0.0033,0.0029,-5.41906208622704E-19));
#356=CARTESIAN_POINT('',(-0.0033,0.00296041666666666,-0.00190525588832576));
#357=CARTESIAN_POINT('',(-0.00165,0.00302083333333333,-0.00285788383248865));
#358=CARTESIAN_POINT('',(3.92412838328215E-19,0.00308125,-0.00381051177665153));
#359=CARTESIAN_POINT('',(0.00165,0.00314166666666667,-0.00285788383248865));
#360=CARTESIAN_POINT('',(0.0033,0.00320208333333333,-0.00190525588832576));
#361=CARTESIAN_POINT('',(0.0033,0.0032625,1.37772764904077E-19));
#362=CARTESIAN_POINT('',(0.0033,0.00332291666666666,0.00190525588832576));
#363=CARTESIAN_POINT('',(0.00165,0.00338333333333333,0.00285788383248865));
#364=CARTESIAN_POINT('',(7.42402667107435E-20,0.00344375,0.00381051177665153));
#365=CARTESIAN_POINT('',(-0.00165,0.00350416666666667,0.00285788383248865));
#366=CARTESIAN_POINT('',(-0.00186417810335043,0.00351200904671359,0.00273422804686476));
#367=CARTESIAN_POINT('',(-0.00205753307587168,0.00352043868891458,0.00258003055053502));
#368=CARTESIAN_POINT('',(-0.0033,-0.0007,-5.41906208622706E-19));
#369=CARTESIAN_POINT('',(-0.0033,-0.000639583333333333,-0.00190525588832576));
#370=CARTESIAN_POINT('',(-0.00165,-0.000579166666666669,-0.00285788383248865));
#371=CARTESIAN_POINT('',(3.92412838328215E-19,-0.000518749999999999,-0.00381051177665153));
#372=CARTESIAN_POINT('',(0.00165,-0.000458333333333335,-0.00285788383248865));
#373=CARTESIAN_POINT('',(0.0033,-0.000397916666666666,-0.00190525588832576));
#374=CARTESIAN_POINT('',(0.0033,-0.0003375,1.37772764904077E-19));
#375=CARTESIAN_POINT('',(0.0033,-0.000277083333333333,0.00190525588832576));
#376=CARTESIAN_POINT('',(0.00165,-0.000216666666666667,0.00285788383248865));
#377=CARTESIAN_POINT('',(7.42402667107435E-20,-0.00015625,0.00381051177665153));
#378=CARTESIAN_POINT('',(-0.00165,-9.58333333333336E-5,0.00285788383248865));
#379=CARTESIAN_POINT('',(-0.0033,-3.54166666666669E-5,0.00190525588832576));
#380=CARTESIAN_POINT('',(-0.0033,2.5E-5,-5.41906208622706E-19));
#381=CARTESIAN_POINT('',(-0.0033,8.54166666666668E-5,-0.00190525588832576));
#382=CARTESIAN_POINT('',(-0.00165,0.000145833333333333,-0.00285788383248865));
#383=CARTESIAN_POINT('',(3.92412838328215E-19,0.00020625,-0.00381051177665153));
#384=CARTESIAN_POINT('',(0.00165,0.000266666666666667,-0.00285788383248865));
#385=CARTESIAN_POINT('',(0.0033,0.000327083333333333,-0.00190525588832576));
#386=CARTESIAN_POINT('',(0.0033,0.000387500000000001,1.37772764904077E-19));
#387=CARTESIAN_POINT('',(0.0033,0.000447916666666667,0.00190525588832576));
#388=CARTESIAN_POINT('',(0.00165,0.000508333333333333,0.00285788383248865));
#389=CARTESIAN_POINT('',(7.42402667107435E-20,0.00056875,0.00381051177665153));
#390=CARTESIAN_POINT('',(-0.00165,0.000629166666666667,0.00285788383248865));
#391=CARTESIAN_POINT('',(-0.0033,0.000689583333333334,0.00190525588832576));
#392=CARTESIAN_POINT('',(-0.0033,0.000750000000000001,-5.41906208622706E-19));
#393=CARTESIAN_POINT('',(-0.0033,0.000810416666666668,-0.00190525588832576));
#394=CARTESIAN_POINT('',(-0.00165,0.000870833333333335,-0.00285788383248865));
#395=CARTESIAN_POINT('',(3.92412838328215E-19,0.000931250000000001,-0.00381051177665153));
#396=CARTESIAN_POINT('',(0.00165,0.000991666666666666,-0.00285788383248865));
#397=CARTESIAN_POINT('',(0.0033,0.00105208333333333,-0.00190525588832576));
#398=CARTESIAN_POINT('',(0.0033,0.0011125,1.37772764904077E-19));
#399=CARTESIAN_POINT('',(0.0033,0.00117291666666667,0.00190525588832576));
#400=CARTESIAN_POINT('',(0.00165,0.00123333333333333,0.00285788383248865));
#401=CARTESIAN_POINT('',(7.42402667107435E-20,0.00129375,0.00381051177665153));
#402=CARTESIAN_POINT('',(-0.00165,0.00135416666666667,0.00285788383248865));
#403=CARTESIAN_POINT('',(-0.0033,0.00141458333333333,0.00190525588832576));
#404=CARTESIAN_POINT('',(-0.0033,0.001475,-5.41906208622706E-19));
#405=CARTESIAN_POINT('',(-0.0033,0.00153541666666667,-0.00190525588832576));
#406=CARTESIAN_POINT('',(-0.00165,0.00159583333333333,-0.00285788383248865));
#407=CARTESIAN_POINT('',(3.92412838328215E-19,0.00165625,-0.00381051177665153));
#408=CARTESIAN_POINT('',(0.00165,0.00171666666666667,-0.00285788383248865));
#409=CARTESIAN_POINT('',(0.0033,0.00177708333333333,-0.00190525588832576));
#410=CARTESIAN_POINT('',(0.0033,0.0018375,1.37772764904077E-19));
#411=CARTESIAN_POINT('',(0.0033,0.00189791666666667,0.00190525588832576));
#412=CARTESIAN_POINT('',(0.00165,0.00195833333333334,0.00285788383248865));
#413=CARTESIAN_POINT('',(7.42402667107435E-20,0.00201875,0.00381051177665153));
#414=CARTESIAN_POINT('',(-0.00165,0.00207916666666667,0.00285788383248865));
#415=CARTESIAN_POINT('',(-0.0033,0.00213958333333333,0.00190525588832576));
#416=CARTESIAN_POINT('',(-0.0033,0.0022,-5.41906208622706E-19));
#417=CARTESIAN_POINT('',(-0.0033,0.00226041666666666,-0.00190525588832576));
#418=CARTESIAN_POINT('',(-0.00165,0.00232083333333334,-0.00285788383248865));
#419=CARTESIAN_POINT('',(3.92412838328215E-19,0.00238125,-0.00381051177665153));
#420=CARTESIAN_POINT('',(0.00165,0.00244166666666667,-0.00285788383248865));
#421=CARTESIAN_POINT('',(0.0033,0.00250208333333333,-0.00190525588832576));
#422=CARTESIAN_POINT('',(0.0033,0.0025625,1.37772764904077E-19));
#423=CARTESIAN_POINT('',(0.0033,0.00262291666666667,0.00190525588832576));
#424=CARTESIAN_POINT('',(0.00165,0.00268333333333333,0.00285788383248865));
#425=CARTESIAN_POINT('',(7.42402667107435E-20,0.00274375,0.00381051177665153));
#426=CARTESIAN_POINT('',(-0.00165,0.00280416666666667,0.00285788383248865));
#427=CARTESIAN_POINT('',(-0.00186417810335043,0.00281200904671359,0.00273422804686476));
#428=CARTESIAN_POINT('',(-0.00205753307587168,0.00282043868891458,0.00258003055053502));
#429=CARTESIAN_POINT('',(-0.0026,-0.0007,-5.41906208622706E-19));
#430=CARTESIAN_POINT('',(-0.0026,-0.000639583333333333,-0.00150111069989303));
#431=CARTESIAN_POINT('',(-0.0013,-0.000579166666666669,-0.00225166604983954));
#432=CARTESIAN_POINT('',(4.41906349468712E-19,-0.000518749999999999,-0.00300222139978605));
#433=CARTESIAN_POINT('',(0.0013,-0.000458333333333335,-0.00225166604983954));
#434=CARTESIAN_POINT('',(0.0026,-0.000397916666666666,-0.00150111069989303));
#435=CARTESIAN_POINT('',(0.0026,-0.0003375,2.23498040844392E-19));
#436=CARTESIAN_POINT('',(0.0026,-0.000277083333333333,0.00150111069989303));
#437=CARTESIAN_POINT('',(0.0013,-0.000216666666666667,0.00225166604983954));
#438=CARTESIAN_POINT('',(-7.42402667107435E-20,-0.00015625,0.00300222139978605));
#439=CARTESIAN_POINT('',(-0.0013,-9.58333333333336E-5,0.00225166604983954));
#440=CARTESIAN_POINT('',(-0.0026,-3.54166666666669E-5,0.00150111069989303));
#441=CARTESIAN_POINT('',(-0.0026,2.5E-5,-5.41906208622706E-19));
#442=CARTESIAN_POINT('',(-0.0026,8.54166666666668E-5,-0.00150111069989303));
#443=CARTESIAN_POINT('',(-0.0013,0.000145833333333333,-0.00225166604983954));
#444=CARTESIAN_POINT('',(4.41906349468712E-19,0.00020625,-0.00300222139978605));
#445=CARTESIAN_POINT('',(0.0013,0.000266666666666667,-0.00225166604983954));
#446=CARTESIAN_POINT('',(0.0026,0.000327083333333333,-0.00150111069989303));
#447=CARTESIAN_POINT('',(0.0026,0.000387500000000001,2.23498040844392E-19));
#448=CARTESIAN_POINT('',(0.0026,0.000447916666666667,0.00150111069989303));
#449=CARTESIAN_POINT('',(0.0013,0.000508333333333333,0.00225166604983954));
#450=CARTESIAN_POINT('',(-7.42402667107435E-20,0.00056875,0.00300222139978605));
#451=CARTESIAN_POINT('',(-0.0013,0.000629166666666667,0.00225166604983954));
#452=CARTESIAN_POINT('',(-0.0026,0.000689583333333334,0.00150111069989303));
#453=CARTESIAN_POINT('',(-0.0026,0.000750000000000001,-5.41906208622706E-19));
#454=CARTESIAN_POINT('',(-0.0026,0.000810416666666668,-0.00150111069989303));
#455=CARTESIAN_POINT('',(-0.0013,0.000870833333333335,-0.00225166604983954));
#456=CARTESIAN_POINT('',(4.41906349468712E-19,0.000931250000000001,-0.00300222139978605));
#457=CARTESIAN_POINT('',(0.0013,0.000991666666666666,-0.00225166604983954));
#458=CARTESIAN_POINT('',(0.0026,0.00105208333333333,-0.00150111069989303));
#459=CARTESIAN_POINT('',(0.0026,0.0011125,2.23498040844392E-19));
#460=CARTESIAN_POINT('',(0.0026,0.00117291666666667,0.00150111069989303));
#461=CARTESIAN_POINT('',(0.0013,0.00123333333333333,0.00225166604983954));
#462=CARTESIAN_POINT('',(-7.42402667107435E-20,0.00129375,0.00300222139978605));
#463=CARTESIAN_POINT('',(-0.0013,0.00135416666666667,0.00225166604983954));
#464=CARTESIAN_POINT('',(-0.0026,0.00141458333333333,0.00150111069989303));
#465=CARTESIAN_POINT('',(-0.0026,0.001475,-5.41906208622706E-19));
#466=CARTESIAN_POINT('',(-0.0026,0.00153541666666667,-0.00150111069989303));
#467=CARTESIAN_POINT('',(-0.0013,0.00159583333333333,-0.00225166604983954));
#468=CARTESIAN_POINT('',(4.41906349468712E-19,0.00165625,-0.00300222139978605));
#469=CARTESIAN_POINT('',(0.0013,0.00171666666666667,-0.00225166604983954));
#470=CARTESIAN_POINT('',(0.0026,0.00177708333333333,-0.00150111069989303));
#471=CARTESIAN_POINT('',(0.0026,0.0018375,2.23498040844392E-19));
#472=CARTESIAN_POINT('',(0.0026,0.00189791666666667,0.00150111069989303));
#473=CARTESIAN_POINT('',(0.0013,0.00195833333333334,0.00225166604983954));
#474=CARTESIAN_POINT('',(-7.42402667107435E-20,0.00201875,0.00300222139978605));
#475=CARTESIAN_POINT('',(-0.0013,0.00207916666666667,0.00225166604983954));
#476=CARTESIAN_POINT('',(-0.0026,0.00213958333333333,0.00150111069989303));
#477=CARTESIAN_POINT('',(-0.0026,0.0022,-5.41906208622706E-19));
#478=CARTESIAN_POINT('',(-0.0026,0.00226041666666666,-0.00150111069989303));
#479=CARTESIAN_POINT('',(-0.0013,0.00232083333333334,-0.00225166604983954));
#480=CARTESIAN_POINT('',(4.41906349468712E-19,0.00238125,-0.00300222139978605));
#481=CARTESIAN_POINT('',(0.0013,0.00244166666666667,-0.00225166604983954));
#482=CARTESIAN_POINT('',(0.0026,0.00250208333333333,-0.00150111069989303));
#483=CARTESIAN_POINT('',(0.0026,0.0025625,2.23498040844392E-19));
#484=CARTESIAN_POINT('',(0.0026,0.00262291666666667,0.00150111069989303));
#485=CARTESIAN_POINT('',(0.0013,0.00268333333333333,0.00225166604983954));
#486=CARTESIAN_POINT('',(-7.42402667107435E-20,0.00274375,0.00300222139978605));
#487=CARTESIAN_POINT('',(-0.0013,0.00280416666666667,0.00225166604983954));
#488=CARTESIAN_POINT('',(-0.00146874638445791,0.00281200904671359,0.00215424027934799));
#489=CARTESIAN_POINT('',(-0.00162108666583829,0.00282043868891458,0.00203275134284578));
#490=CARTESIAN_POINT('',(-0.0026,0.,-5.41906208622704E-19));
#491=CARTESIAN_POINT('',(-0.0026,6.04166666666666E-5,-0.00150111069989303));
#492=CARTESIAN_POINT('',(-0.0013,0.000120833333333333,-0.00225166604983954));
#493=CARTESIAN_POINT('',(4.41906349468711E-19,0.000181250000000001,-0.00300222139978605));
#494=CARTESIAN_POINT('',(0.0013,0.000241666666666667,-0.00225166604983954));
#495=CARTESIAN_POINT('',(0.0026,0.000302083333333333,-0.00150111069989303));
#496=CARTESIAN_POINT('',(0.0026,0.0003625,2.23498040844392E-19));
#497=CARTESIAN_POINT('',(0.0026,0.000422916666666667,0.00150111069989303));
#498=CARTESIAN_POINT('',(0.0013,0.000483333333333333,0.00225166604983954));
#499=CARTESIAN_POINT('',(-7.42402667107434E-20,0.00054375,0.00300222139978605));
#500=CARTESIAN_POINT('',(-0.0013,0.000604166666666667,0.00225166604983954));
#501=CARTESIAN_POINT('',(-0.0026,0.000664583333333333,0.00150111069989303));
#502=CARTESIAN_POINT('',(-0.0026,0.000725,-5.41906208622704E-19));
#503=CARTESIAN_POINT('',(-0.0026,0.000785416666666667,-0.00150111069989303));
#504=CARTESIAN_POINT('',(-0.0013,0.000845833333333333,-0.00225166604983954));
#505=CARTESIAN_POINT('',(4.41906349468711E-19,0.00090625,-0.00300222139978605));
#506=CARTESIAN_POINT('',(0.0013,0.000966666666666667,-0.00225166604983954));
#507=CARTESIAN_POINT('',(0.0026,0.00102708333333333,-0.00150111069989303));
#508=CARTESIAN_POINT('',(0.0026,0.0010875,2.23498040844392E-19));
#509=CARTESIAN_POINT('',(0.0026,0.00114791666666667,0.00150111069989303));
#510=CARTESIAN_POINT('',(0.0013,0.00120833333333333,0.00225166604983954));
#511=CARTESIAN_POINT('',(-7.42402667107434E-20,0.00126875,0.00300222139978605));
#512=CARTESIAN_POINT('',(-0.0013,0.00132916666666667,0.00225166604983954));
#513=CARTESIAN_POINT('',(-0.0026,0.00138958333333334,0.00150111069989303));
#514=CARTESIAN_POINT('',(-0.0026,0.00145,-5.41906208622704E-19));
#515=CARTESIAN_POINT('',(-0.0026,0.00151041666666667,-0.00150111069989303));
#516=CARTESIAN_POINT('',(-0.0013,0.00157083333333333,-0.00225166604983954));
#517=CARTESIAN_POINT('',(4.41906349468711E-19,0.00163125,-0.00300222139978605));
#518=CARTESIAN_POINT('',(0.0013,0.00169166666666667,-0.00225166604983954));
#519=CARTESIAN_POINT('',(0.0026,0.00175208333333334,-0.00150111069989303));
#520=CARTESIAN_POINT('',(0.0026,0.0018125,2.23498040844392E-19));
#521=CARTESIAN_POINT('',(0.0026,0.00187291666666666,0.00150111069989303));
#522=CARTESIAN_POINT('',(0.0013,0.00193333333333333,0.00225166604983954));
#523=CARTESIAN_POINT('',(-7.42402667107434E-20,0.00199374999999999,0.00300222139978605));
#524=CARTESIAN_POINT('',(-0.0013,0.00205416666666667,0.00225166604983954));
#525=CARTESIAN_POINT('',(-0.0026,0.00211458333333333,0.00150111069989303));
#526=CARTESIAN_POINT('',(-0.0026,0.002175,-5.41906208622704E-19));
#527=CARTESIAN_POINT('',(-0.0026,0.00223541666666666,-0.00150111069989303));
#528=CARTESIAN_POINT('',(-0.0013,0.00229583333333333,-0.00225166604983954));
#529=CARTESIAN_POINT('',(4.41906349468711E-19,0.00235625,-0.00300222139978605));
#530=CARTESIAN_POINT('',(0.0013,0.00241666666666667,-0.00225166604983954));
#531=CARTESIAN_POINT('',(0.0026,0.00247708333333333,-0.00150111069989303));
#532=CARTESIAN_POINT('',(0.0026,0.0025375,2.23498040844392E-19));
#533=CARTESIAN_POINT('',(0.0026,0.00259791666666666,0.00150111069989303));
#534=CARTESIAN_POINT('',(0.0013,0.00265833333333333,0.00225166604983954));
#535=CARTESIAN_POINT('',(-7.42402667107434E-20,0.00271875,0.00300222139978605));
#536=CARTESIAN_POINT('',(-0.0013,0.00277916666666667,0.00225166604983954));
#537=CARTESIAN_POINT('',(-0.0026,0.00283958333333333,0.00150111069989303));
#538=CARTESIAN_POINT('',(-0.0026,0.0029,-5.41906208622704E-19));
#539=CARTESIAN_POINT('',(-0.0026,0.00296041666666666,-0.00150111069989303));
#540=CARTESIAN_POINT('',(-0.0013,0.00302083333333333,-0.00225166604983954));
#541=CARTESIAN_POINT('',(4.41906349468711E-19,0.00308125,-0.00300222139978605));
#542=CARTESIAN_POINT('',(0.0013,0.00314166666666667,-0.00225166604983954));
#543=CARTESIAN_POINT('',(0.0026,0.00320208333333333,-0.00150111069989303));
#544=CARTESIAN_POINT('',(0.0026,0.0032625,2.23498040844392E-19));
#545=CARTESIAN_POINT('',(0.0026,0.00332291666666666,0.00150111069989303));
#546=CARTESIAN_POINT('',(0.0013,0.00338333333333333,0.00225166604983954));
#547=CARTESIAN_POINT('',(-7.42402667107434E-20,0.00344375,0.00300222139978605));
#548=CARTESIAN_POINT('',(-0.0013,0.00350416666666667,0.00225166604983954));
#549=CARTESIAN_POINT('',(-0.00146874638445791,0.00351200904671359,0.00215424027934799));
#550=CARTESIAN_POINT('',(-0.00162108666583829,0.00352043868891458,0.00203275134284577));
#551=CARTESIAN_POINT('',(-0.00163355565147254,0.00331044196344808,0.00204838674829699));
#552=CARTESIAN_POINT('',(-0.00161485171712138,0.00352043983342232,0.00202493306844753));
#553=CARTESIAN_POINT('',(-0.00163355747509004,0.0037304419634563,0.00204838903501059));
#554=CARTESIAN_POINT('',(-0.00183931288378824,0.00394043868888305,0.00230639472473895));
#555=CARTESIAN_POINT('',(-0.00204506409023743,0.00373043541438108,0.0025643951450838));
#556=CARTESIAN_POINT('',(-0.00206376802458858,0.00352043754440684,0.00258784882493327));
#557=CARTESIAN_POINT('',(-0.00204506226661993,0.00331043541437286,0.00256439285837021));
#558=CARTESIAN_POINT('',(-0.00183930685792172,0.00310043868894611,0.00230638716864185));
#559=CARTESIAN_POINT('',(-0.00163355565147254,0.00331044196344808,0.00204838674829699));
#560=CARTESIAN_POINT('',(-0.00161485171712138,0.00352043983342232,0.00202493306844753));
#561=CARTESIAN_POINT('',(-0.00163355747509004,0.0037304419634563,0.00204838903501059));
#562=CARTESIAN_POINT('',(-0.00162107435561911,0.00352043981406601,0.0020327629463485));
#563=CARTESIAN_POINT('',(-0.00262,0.00021,-5.41906208622705E-19));
#564=CARTESIAN_POINT('',(-0.00259,1.01643953670516E-20,-5.41906208622704E-19));
#565=CARTESIAN_POINT('',(-0.00262,-0.00021,-5.41906208622705E-19));
#566=CARTESIAN_POINT('',(-0.00295,-0.00042,-5.41906208622705E-19));
#567=CARTESIAN_POINT('',(-0.00328,-0.00021,-5.41906208622705E-19));
#568=CARTESIAN_POINT('',(-0.00331,6.15157677943436E-20,-5.41906208622704E-19));
#569=CARTESIAN_POINT('',(-0.00328,0.00021,-5.41906208622705E-19));
#570=CARTESIAN_POINT('',(-0.00295,0.00042,-5.41906208622705E-19));
#571=CARTESIAN_POINT('',(-0.00262,0.00021,-5.41906208622705E-19));
#572=CARTESIAN_POINT('',(-0.00259,1.01643953670516E-20,-5.41906208622704E-19));
#573=CARTESIAN_POINT('',(-0.00262,-0.00021,-5.41906208622705E-19));
#574=CARTESIAN_POINT('',(-0.0026,0.,-5.41906208622704E-19));
#575=CARTESIAN_POINT('',(-0.0026,-0.000183259571459405,-5.41906208622704E-19));
#576=CARTESIAN_POINT('',(-0.0026,-0.00019613705153643,0.000269063253018468));
#577=CARTESIAN_POINT('',(-0.0026,-0.000366058988887183,0.000585465978824869));
#578=CARTESIAN_POINT('',(-0.0026,-0.000866827025879404,0.00106338294481415));
#579=CARTESIAN_POINT('',(-0.0026,-0.00119114158567284,0.00121837353622635));
#580=CARTESIAN_POINT('',(-0.0026,-0.001460840226816,0.00121584174712351));
#581=CARTESIAN_POINT('',(-0.0026,0.000183259571459405,-5.41906208622704E-19));
#582=CARTESIAN_POINT('',(-0.0026,0.000170309862737211,0.000402912535901577));
#583=CARTESIAN_POINT('',(-0.0026,-5.04198692735933E-5,0.000786047450872069));
#584=CARTESIAN_POINT('',(-0.0026,-0.000654264576299461,0.00137108115050869));
#585=CARTESIAN_POINT('',(-0.0026,-0.00104387134018495,0.00157954872442739));
#586=CARTESIAN_POINT('',(-0.0026,-0.00144675592365462,0.00158209017992616));
#587=CARTESIAN_POINT('',(-0.0027667404285406,0.00035,-5.41906208622704E-19));
#588=CARTESIAN_POINT('',(-0.0027667404285406,0.000337032546511525,0.000463751842395345));
#589=CARTESIAN_POINT('',(-0.0027667404285406,9.31737276376334E-5,0.000877297911462238));
#590=CARTESIAN_POINT('',(-0.0027667404285406,-0.000557563613691175,0.00151106219016217));
#591=CARTESIAN_POINT('',(-0.0027667404285406,-0.000976819783286474,0.00174384827910775));
#592=CARTESIAN_POINT('',(-0.0027667404285406,-0.00144034855642648,0.00174870745440605));
#593=CARTESIAN_POINT('',(-0.0031332595714594,0.00035,-5.41906208622704E-19));
#594=CARTESIAN_POINT('',(-0.0031332595714594,0.000337032546511527,0.000463751842395282));
#595=CARTESIAN_POINT('',(-0.00313325957145941,9.31737276375818E-5,0.000877297911462321));
#596=CARTESIAN_POINT('',(-0.00313325957145941,-0.000557563613691123,0.00151106219016208));
#597=CARTESIAN_POINT('',(-0.00313325957145941,-0.000976819783286513,0.00174384827910775));
#598=CARTESIAN_POINT('',(-0.00313325957145941,-0.00144034855642648,0.00174870745440605));
#599=CARTESIAN_POINT('',(-0.0033,0.000183259571459405,-5.41906208622704E-19));
#600=CARTESIAN_POINT('',(-0.0033,0.000170309862737214,0.000402912535901482));
#601=CARTESIAN_POINT('',(-0.0033,-5.04198692737174E-5,0.000786047450872193));
#602=CARTESIAN_POINT('',(-0.0033,-0.000654264576299336,0.00137108115050856));
#603=CARTESIAN_POINT('',(-0.0033,-0.00104387134018504,0.0015795487244275));
#604=CARTESIAN_POINT('',(-0.0033,-0.00144675592365462,0.00158209017992616));
#605=CARTESIAN_POINT('',(-0.0033,-0.000183259571459405,-5.41906208622704E-19));
#606=CARTESIAN_POINT('',(-0.0033,-0.000196137051536427,0.000269063253018403));
#607=CARTESIAN_POINT('',(-0.0033,-0.000366058988887265,0.000585465978824952));
#608=CARTESIAN_POINT('',(-0.0033,-0.00086682702587932,0.00106338294481407));
#609=CARTESIAN_POINT('',(-0.0033,-0.0011911415856729,0.00121837353622646));
#610=CARTESIAN_POINT('',(-0.0033,-0.001460840226816,0.00121584174712351));
#611=CARTESIAN_POINT('',(-0.0031332595714594,-0.00035,-5.41906208622704E-19));
#612=CARTESIAN_POINT('',(-0.0031332595714594,-0.000362807532310946,0.00020805657266645));
#613=CARTESIAN_POINT('',(-0.00313325957145941,-0.000509652585798502,0.000494215518234761));
#614=CARTESIAN_POINT('',(-0.00313325957145941,-0.000963527988487596,0.000923401905160607));
#615=CARTESIAN_POINT('',(-0.00313325957145941,-0.00125801993291144,0.00105404678545211));
#616=CARTESIAN_POINT('',(-0.00313325957145941,-0.00146724759404414,0.00104922447264363));
#617=CARTESIAN_POINT('',(-0.0027667404285406,-0.00035,-5.41906208622704E-19));
#618=CARTESIAN_POINT('',(-0.0027667404285406,-0.000362807532310948,0.000208056572666482));
#619=CARTESIAN_POINT('',(-0.0027667404285406,-0.000509652585798482,0.00049421551823472));
#620=CARTESIAN_POINT('',(-0.0027667404285406,-0.000963527988487617,0.000923401905160649));
#621=CARTESIAN_POINT('',(-0.0027667404285406,-0.00125801993291143,0.001054046785452));
#622=CARTESIAN_POINT('',(-0.0027667404285406,-0.00146724759404414,0.00104922447264363));
#623=CARTESIAN_POINT('',(-0.0026,-0.000183259571459405,-5.41906208622704E-19));
#624=CARTESIAN_POINT('',(-0.0026,-0.00019613705153643,0.000269063253018468));
#625=CARTESIAN_POINT('',(-0.0026,-0.000366058988887183,0.000585465978824869));
#626=CARTESIAN_POINT('',(-0.0026,-0.000866827025879404,0.00106338294481415));
#627=CARTESIAN_POINT('',(-0.0026,-0.00119114158567284,0.00121837353622635));
#628=CARTESIAN_POINT('',(-0.0026,-0.001460840226816,0.00121584174712351));
#629=CARTESIAN_POINT('',(-0.0026,0.000183259571459405,-5.41906208622704E-19));
#630=CARTESIAN_POINT('',(-0.0026,0.000170309862737211,0.000402912535901577));
#631=CARTESIAN_POINT('',(-0.0026,-5.04198692735933E-5,0.000786047450872069));
#632=CARTESIAN_POINT('',(-0.0026,-0.000654264576299461,0.00137108115050869));
#633=CARTESIAN_POINT('',(-0.0026,-0.00104387134018495,0.00157954872442739));
#634=CARTESIAN_POINT('',(-0.0026,-0.00144675592365462,0.00158209017992616));
#635=CARTESIAN_POINT('',(-0.0026,-0.00103366767273775,0.000380701290778413));
#636=CARTESIAN_POINT('',(-0.0026,-0.00145379807523531,0.00139896596352484));
#637=CARTESIAN_POINT('',(-0.00268444998897209,-0.00146331406035122,0.00111028950748891));
#638=CARTESIAN_POINT('',(-0.0025187504357462,-0.00145090355159393,0.00147955517641684));
#639=CARTESIAN_POINT('',(-0.00291018593891356,-0.00143919475236928,0.00189977473681388));
#640=CARTESIAN_POINT('',(-0.00336344191560974,-0.00144816503858851,0.00154660554409364));
#641=CARTESIAN_POINT('',(-0.00325752942600822,-0.00146223529879636,0.00115521417910147));
#642=CARTESIAN_POINT('',(-0.00298065174208277,-0.00146513133919284,0.00100800609512187));
#643=CARTESIAN_POINT('',(-0.00268444998897209,-0.00146331406035122,0.00111028950748891));
#644=CARTESIAN_POINT('',(-0.0025187504357462,-0.00145090355159393,0.00147955517641684));
#645=CARTESIAN_POINT('',(-0.00291018593891356,-0.00143919475236928,0.00189977473681388));
#646=CARTESIAN_POINT('',(-0.00295,-0.00350379807523531,0.00139896596352484));
#647=CARTESIAN_POINT('',(-0.00295004149013764,-0.0035037986432393,0.00139895119314047));
#648=CARTESIAN_POINT('',(-0.00259960630149185,-0.00350379807459646,0.00139896598013738));
#649=CARTESIAN_POINT('',(-0.00295004149013764,-0.00247879986508044,0.00139895119314047));
#650=CARTESIAN_POINT('',(-0.00259960630149185,-0.00247879986508044,0.00139896598013738));
#651=CARTESIAN_POINT('',(-0.00162090414856213,0.0036170726642189,0.00203254951344987));
#652=CARTESIAN_POINT('',(-0.00185629928037949,0.00362997410162578,0.0018448281599529));
#653=CARTESIAN_POINT('',(-0.00211612752648972,0.00381203482316461,0.00163762204800007));
#654=CARTESIAN_POINT('',(-0.00250979762217928,0.00433744307870711,0.00132368062268903));
#655=CARTESIAN_POINT('',(-0.00264097166303355,0.0046773883454313,0.00121907281579622));
#656=CARTESIAN_POINT('',(-0.00263993744941116,0.00497890198102083,0.00121989757363777));
#657=CARTESIAN_POINT('',(-0.00162124461736762,0.00342377591350018,0.00203297644782816));
#658=CARTESIAN_POINT('',(-0.00191182590451238,0.00343671396113975,0.00180124560402261));
#659=CARTESIAN_POINT('',(-0.00219917301320506,0.00364557144082898,0.00157209393146822));
#660=CARTESIAN_POINT('',(-0.00263701015625098,0.00422534080077036,0.00122293046122497));
#661=CARTESIAN_POINT('',(-0.00279023368838098,0.00459971562080981,0.00110073877180044));
#662=CARTESIAN_POINT('',(-0.00279129178248447,0.00497147412877947,0.00109989496991018));
#663=CARTESIAN_POINT('',(-0.00164253588718255,0.00334135267341618,0.00205967485571455));
#664=CARTESIAN_POINT('',(-0.00195663721541054,0.00335430198473733,0.00180918740504007));
#665=CARTESIAN_POINT('',(-0.00225573034684146,0.00357459015802709,0.00157066859192636));
#666=CARTESIAN_POINT('',(-0.00271240066289482,0.00417753951629984,0.00120648616738145));
#667=CARTESIAN_POINT('',(-0.00287502411524357,0.00456657994601431,0.00107679829172583));
#668=CARTESIAN_POINT('',(-0.00287697654026169,0.00496830683472863,0.00107524128472931));
#669=CARTESIAN_POINT('',(-0.00172830836431416,0.00320514440243497,0.00216723014010067));
#670=CARTESIAN_POINT('',(-0.00208126728549118,0.00321810869500897,0.00188575479309309));
#671=CARTESIAN_POINT('',(-0.00239978164888397,0.00345729025823397,0.00163174806431083));
#672=CARTESIAN_POINT('',(-0.00288757466685738,0.00409854565119853,0.00124274611319431));
#673=CARTESIAN_POINT('',(-0.00306572988596026,0.00451180817620456,0.00110067206686958));
#674=CARTESIAN_POINT('',(-0.00306916227715908,0.00496307273272155,0.001097934826228));
#675=CARTESIAN_POINT('',(-0.00177965289974651,0.00317094983261268,0.00223161415108856));
#676=CARTESIAN_POINT('',(-0.00214236523832793,0.00318391732964902,0.00194236071325014));
#677=CARTESIAN_POINT('',(-0.00246575686227158,0.00342784256328323,0.00168446449896801));
#678=CARTESIAN_POINT('',(-0.00296136311652068,0.00407871454097093,0.00128923169984074));
#679=CARTESIAN_POINT('',(-0.00314341719443824,0.00449805581053577,0.00114404841736387));
#680=CARTESIAN_POINT('',(-0.0031472214578539,0.00496175873126445,0.00114101461852563));
#681=CARTESIAN_POINT('',(-0.00190016989132372,0.0031719101035091,0.00238273767854081));
#682=CARTESIAN_POINT('',(-0.00226260833679814,0.00318487751315941,0.00209370266316668));
#683=CARTESIAN_POINT('',(-0.00258586298702676,0.00342866952980379,0.00183591568177737));
#684=CARTESIAN_POINT('',(-0.00308124982563634,0.00407927144921963,0.00144085786078339));
#685=CARTESIAN_POINT('',(-0.00326319441524932,0.00449844202217677,0.0012957618923158));
#686=CARTESIAN_POINT('',(-0.00326698823392944,0.00496179563178297,0.0012927364228764));
#687=CARTESIAN_POINT('',(-0.00195163855861947,0.00320596199929018,0.00244727734596204));
#688=CARTESIAN_POINT('',(-0.00230436426708479,0.00321892621283944,0.00216598797988616));
#689=CARTESIAN_POINT('',(-0.00262276202167237,0.00345799435665996,0.00191207424352277));
#690=CARTESIAN_POINT('',(-0.00311036822409459,0.00409901981576434,0.00152322127283699));
#691=CARTESIAN_POINT('',(-0.00328843021946741,0.0045121369878721,0.00138122156995617));
#692=CARTESIAN_POINT('',(-0.00329185372063149,0.00496310415067664,0.00137849141888073));
#693=CARTESIAN_POINT('',(-0.00203643358226857,0.00334332068596075,0.00255360694244919));
#694=CARTESIAN_POINT('',(-0.00234997338649702,0.00335626975033783,0.0023035672922213));
#695=CARTESIAN_POINT('',(-0.00264878599718467,0.00357628497195139,0.0020652721869358));
#696=CARTESIAN_POINT('',(-0.00310500663520192,0.00417868086341737,0.00170144836865795));
#697=CARTESIAN_POINT('',(-0.00326740565845506,0.00456737120447478,0.00157193946923355));
#698=CARTESIAN_POINT('',(-0.00326933671762858,0.00496838245993358,0.0015703995009299));
#699=CARTESIAN_POINT('',(-0.00205781483490112,0.00342577020600572,0.00258041818521995));
#700=CARTESIAN_POINT('',(-0.00234782696577356,0.00343870795561432,0.00234914122839593));
#701=CARTESIAN_POINT('',(-0.00263488994170611,0.00364728888654186,0.00212021614415647));
#702=CARTESIAN_POINT('',(-0.00307227140191622,0.00422649738892777,0.00177141606884842));
#703=CARTESIAN_POINT('',(-0.00322526748230705,0.00460051727059838,0.00164940576613357));
#704=CARTESIAN_POINT('',(-0.00322630395097357,0.00497155076384965,0.00164857920995344));
#705=CARTESIAN_POINT('',(-0.00205721611579018,0.00361906445270865,0.00257966741520143));
#706=CARTESIAN_POINT('',(-0.00229204232528213,0.00363196541009022,0.00239239976211946));
#707=CARTESIAN_POINT('',(-0.00255158727606743,0.0038137501124678,0.00218541957064939));
#708=CARTESIAN_POINT('',(-0.00294480226107237,0.00433859821466304,0.00187184108399819));
#709=CARTESIAN_POINT('',(-0.00307574905108559,0.00467818835657735,0.00176741450360302));
#710=CARTESIAN_POINT('',(-0.00307469332386722,0.0049789785198687,0.00176825641796562));
#711=CARTESIAN_POINT('',(-0.00203598510630544,0.00370161378462274,0.00255304457137903));
#712=CARTESIAN_POINT('',(-0.00224722588783683,0.00371449221620969,0.00238458566946082));
#713=CARTESIAN_POINT('',(-0.00249503625241275,0.00388483998308839,0.00218696349822246));
#714=CARTESIAN_POINT('',(-0.00286938925324904,0.00438647262597781,0.00188842694200728));
#715=CARTESIAN_POINT('',(-0.00299091662417451,0.00471133601481466,0.00179151209767345));
#716=CARTESIAN_POINT('',(-0.00298897031667056,0.00498215065927509,0.00179306422611434));
#717=CARTESIAN_POINT('',(-0.00195034336596961,0.00383761444316807,0.00244565322574949));
#718=CARTESIAN_POINT('',(-0.00212268937007676,0.00385043982174213,0.00230821187379372));
#719=CARTESIAN_POINT('',(-0.00235120451737226,0.00400196109111091,0.00212597712486919));
#720=CARTESIAN_POINT('',(-0.00269448225437654,0.00446534608643246,0.00185222226461234));
#721=CARTESIAN_POINT('',(-0.00280048560938526,0.00476589684666334,0.00176768740986079));
#722=CARTESIAN_POINT('',(-0.00279707751461986,0.00498737678331829,0.00177040527474291));
#723=CARTESIAN_POINT('',(-0.00189893693114295,0.00387190731024384,0.00238119159537622));
#724=CARTESIAN_POINT('',(-0.00206146501114706,0.00388471457201983,0.00225157977662666));
#725=CARTESIAN_POINT('',(-0.00228512534658333,0.00403149343773426,0.00207321661096795));
#726=CARTESIAN_POINT('',(-0.00262056738703022,0.0044852342040646,0.00180571051019895));
#727=CARTESIAN_POINT('',(-0.00272265499829141,0.00477964031659436,0.00172429835688351));
#728=CARTESIAN_POINT('',(-0.00271887963940593,0.00498869456206327,0.00172730910512832));
#729=CARTESIAN_POINT('',(-0.00177841993956573,0.00387094703934743,0.00223006806792395));
#730=CARTESIAN_POINT('',(-0.00194122301564269,0.00388375484323527,0.00210023694712426));
#731=CARTESIAN_POINT('',(-0.00216501922182814,0.00403066647121395,0.00192176542815857));
#732=CARTESIAN_POINT('',(-0.00250068067791455,0.00448467729581565,0.00165408434925628));
#733=CARTESIAN_POINT('',(-0.00260287794637437,0.00477925557139858,0.00157258474724319));
#734=CARTESIAN_POINT('',(-0.00259911286333038,0.00498865766154475,0.00157558730077755));
#735=CARTESIAN_POINT('',(-0.0017268908828467,0.00383679731916529,0.00216545267456111));
#736=CARTESIAN_POINT('',(-0.00189947076387667,0.00384962310021922,0.00202782481198292));
#737=CARTESIAN_POINT('',(-0.002128101653449,0.00400125739989628,0.00184549776167278));
#738=CARTESIAN_POINT('',(-0.00247156609796078,0.0044648721960969,0.00157159400714734));
#739=CARTESIAN_POINT('',(-0.00257766274931417,0.0047655692849594,0.0014869847510439));
#740=CARTESIAN_POINT('',(-0.00257426341291199,0.00498734538353359,0.00148969563136408));
#741=CARTESIAN_POINT('',(-0.00164222338942795,0.00369964521755353,0.00205928299592468));
#742=CARTESIAN_POINT('',(-0.00185402678106064,0.00371252425364398,0.00189037542742238));
#743=CARTESIAN_POINT('',(-0.00210211681753995,0.00388314469161826,0.00169253022528346));
#744=CARTESIAN_POINT('',(-0.00247691962311784,0.00438533095726426,0.00139363496175662));
#745=CARTESIAN_POINT('',(-0.00259867164602923,0.00471054575598497,0.00129654096344241));
#746=CARTESIAN_POINT('',(-0.00259674655073682,0.00498207501276131,0.00129807617570895));
#747=CARTESIAN_POINT('',(-0.00162090414856213,0.0036170726642189,0.00203254951344987));
#748=CARTESIAN_POINT('',(-0.00185629928037949,0.00362997410162578,0.0018448281599529));
#749=CARTESIAN_POINT('',(-0.00211612752648972,0.00381203482316461,0.00163762204800007));
#750=CARTESIAN_POINT('',(-0.00250979762217928,0.00433744307870711,0.00132368062268903));
#751=CARTESIAN_POINT('',(-0.00264097166303355,0.0046773883454313,0.00121907281579622));
#752=CARTESIAN_POINT('',(-0.00263993744941116,0.00497890198102083,0.00121989757363777));
#753=CARTESIAN_POINT('',(-0.00162124461736762,0.00342377591350018,0.00203297644782816));
#754=CARTESIAN_POINT('',(-0.00191182590451238,0.00343671396113975,0.00180124560402261));
#755=CARTESIAN_POINT('',(-0.00219917301320506,0.00364557144082898,0.00157209393146822));
#756=CARTESIAN_POINT('',(-0.00263701015625098,0.00422534080077036,0.00122293046122497));
#757=CARTESIAN_POINT('',(-0.00279023368838098,0.00459971562080981,0.00110073877180044));
#758=CARTESIAN_POINT('',(-0.00279129178248447,0.00497147412877947,0.00109989496991018));
#759=CARTESIAN_POINT('',(-0.00191885538149851,0.00455491773925009,0.00179529050249559));
#760=CARTESIAN_POINT('',(-0.00271560245947202,0.00497518865149032,0.00115990591014189));
#761=CARTESIAN_POINT('',(-0.00254264071020717,0.00498716673376361,0.00147075358869201));
#762=CARTESIAN_POINT('',(-0.00266751804058924,0.00497562165470208,0.00111922646206323));
#763=CARTESIAN_POINT('',(-0.00302249621436231,0.00496415930037164,0.00105687440995235));
#764=CARTESIAN_POINT('',(-0.00321195338007545,0.00496080776639812,0.00119473870494789));
#765=CARTESIAN_POINT('',(-0.00331312816178646,0.00496340387706121,0.00138751203332016));
#766=CARTESIAN_POINT('',(-0.00325696105936555,0.00496990307121578,0.00161565421660842));
#767=CARTESIAN_POINT('',(-0.00307787310574368,0.00497898818655637,0.00177431801753321));
#768=CARTESIAN_POINT('',(-0.00284674429702227,0.00498608695627794,0.00180951173455168));
#769=CARTESIAN_POINT('',(-0.00265123662492344,0.00498969303299822,0.00167150759439541));
#770=CARTESIAN_POINT('',(-0.00254264071020717,0.00498716673376361,0.00147075358869201));
#771=CARTESIAN_POINT('',(-0.00266751804058924,0.00497562165470208,0.00111922646206323));
#772=CARTESIAN_POINT('',(-0.00302249621436231,0.00496415930037164,0.00105687440995235));
#773=CARTESIAN_POINT('',(-0.0029330505486682,0.00682522664666387,0.00143416186187548));
#774=CARTESIAN_POINT('',(-0.00293308790007984,0.00682522608314635,0.00143418519632509));
#775=CARTESIAN_POINT('',(-0.0027153578482183,0.00682518860939,0.00115959742144547));
#776=CARTESIAN_POINT('',(-0.00293308790007984,0.0059002628521768,0.00143418519632508));
#777=CARTESIAN_POINT('',(-0.0027153578482183,0.0059002628521768,0.00115959742144547));
#778=(
GEOMETRIC_REPRESENTATION_CONTEXT(3)
GLOBAL_UNCERTAINTY_ASSIGNED_CONTEXT((#779))
GLOBAL_UNIT_ASSIGNED_CONTEXT((#782,#781,#780))
REPRESENTATION_CONTEXT('id2','TOP_LEVEL_ASSEMBLY_PART')
);
#779=UNCERTAINTY_MEASURE_WITH_UNIT(LENGTH_MEASURE(7.00000114285704E-5),
#782,'DISTANCE_ACCURACY_VALUE','Maximum Tolerance applied to model');
#780=(
NAMED_UNIT(*)
SI_UNIT($,.STERADIAN.)
SOLID_ANGLE_UNIT()
);
#781=(
NAMED_UNIT(*)
PLANE_ANGLE_UNIT()
SI_UNIT($,.RADIAN.)
);
#782=(
LENGTH_UNIT()
NAMED_UNIT(*)
SI_UNIT($,.METRE.)
);
#783=PRODUCT_DEFINITION_SHAPE('','',#784);
#784=PRODUCT_DEFINITION('','',#786,#785);
#785=PRODUCT_DEFINITION_CONTEXT('',#792,'design');
#786=PRODUCT_DEFINITION_FORMATION_WITH_SPECIFIED_SOURCE('','',#788,
 .NOT_KNOWN.);
#787=PRODUCT_RELATED_PRODUCT_CATEGORY('','',(#788));
#788=PRODUCT('id2','id2','id2',(#790));
#789=PRODUCT_CATEGORY('','');
#790=PRODUCT_CONTEXT('',#792,'mechanical');
#791=APPLICATION_PROTOCOL_DEFINITION('international standard',
'ap242_managed_model_based_3d_engineering',2020,#792);
#792=APPLICATION_CONTEXT('managed model based 3d engineering');
ENDSEC;
END-ISO-10303-21;
