ISO-10303-21;
HEADER;
/* Generated by software containing ST-Developer
 * from STEP Tools, Inc. (www.steptools.com) 
 */
/* OPTION: using custom renumber hook */

FILE_DESCRIPTION(
/* description */ ('STEP AP242 Edition 2',
'CAx-IF Rec.Pracs.---Representation and Presentation of Product Manufa
cturing Information (PMI)---4.0---2014-10-13',
'CAx-IF Rec.Pracs.---3D Tessellated Geometry---0.4---2014-09-14','2;1',
'CAx-IF Rec.Pracs.---User Defined Attributes---1.5---2016-08-15'),
/* implementation_level */ '2;1');

FILE_NAME(
/* name */ '10116',
/* time_stamp */ '2026-07-13T05:02:45Z',
/* author */ (''),
/* organization */ (''),
/* preprocessor_version */ 'ST-DEVELOPER v20',
/* originating_system */ 'ONSHAPE BY PTC INC, 1.217',
/* authorisation */ '  ');

FILE_SCHEMA (('AP242_MANAGED_MODEL_BASED_3D_ENGINEERING_MIM_LF { 1 0 10303 442 3 1 4 }'));
ENDSEC;

DATA;
#10=SHAPE_REPRESENTATION_RELATIONSHIP('','',#227,#11);
#11=ADVANCED_BREP_SHAPE_REPRESENTATION('',(#225),#404);
#12=CONICAL_SURFACE('',#256,0.0022,0.785398163397445);
#13=CONICAL_SURFACE('',#257,0.0022,0.785398163397445);
#14=CONICAL_SURFACE('',#258,0.0006,0.785398163397445);
#15=TOROIDAL_SURFACE('',#254,0.00095,0.0001);
#16=TOROIDAL_SURFACE('',#255,0.00135,0.0001);
#17=B_SPLINE_CURVE_WITH_KNOTS('',3,(#379,#380,#381,#382),.UNSPECIFIED.,
 .F.,.F.,(4,4),(0.,0.000284066303521346),.UNSPECIFIED.);
#18=B_SPLINE_CURVE_WITH_KNOTS('',3,(#384,#385,#386,#387),.UNSPECIFIED.,
 .F.,.F.,(4,4),(0.,0.000284066303521346),.UNSPECIFIED.);
#19=B_SPLINE_CURVE_WITH_KNOTS('',3,(#389,#390,#391,#392),.UNSPECIFIED.,
 .F.,.F.,(4,4),(0.,0.000284066303521346),.UNSPECIFIED.);
#20=B_SPLINE_CURVE_WITH_KNOTS('',3,(#394,#395,#396,#397),.UNSPECIFIED.,
 .F.,.F.,(4,4),(0.,0.000284066303521346),.UNSPECIFIED.);
#21=PLANE('',#235);
#22=PLANE('',#240);
#23=PLANE('',#242);
#24=PLANE('',#244);
#25=PLANE('',#249);
#26=PLANE('',#251);
#27=PLANE('',#252);
#28=PLANE('',#253);
#29=LINE('',#333,#37);
#30=LINE('',#338,#38);
#31=LINE('',#342,#39);
#32=LINE('',#346,#40);
#33=LINE('',#350,#41);
#34=LINE('',#360,#42);
#35=LINE('',#383,#43);
#36=LINE('',#393,#44);
#37=VECTOR('',#265,1.);
#38=VECTOR('',#268,1.);
#39=VECTOR('',#271,1.);
#40=VECTOR('',#274,1.);
#41=VECTOR('',#279,1.);
#42=VECTOR('',#290,1.);
#43=VECTOR('',#313,1.);
#44=VECTOR('',#316,1.);
#45=ORIENTED_EDGE('',*,*,#97,.T.);
#46=ORIENTED_EDGE('',*,*,#98,.F.);
#47=ORIENTED_EDGE('',*,*,#99,.T.);
#48=ORIENTED_EDGE('',*,*,#100,.F.);
#49=ORIENTED_EDGE('',*,*,#101,.F.);
#50=ORIENTED_EDGE('',*,*,#102,.T.);
#51=ORIENTED_EDGE('',*,*,#103,.T.);
#52=ORIENTED_EDGE('',*,*,#104,.T.);
#53=ORIENTED_EDGE('',*,*,#105,.F.);
#54=ORIENTED_EDGE('',*,*,#106,.T.);
#55=ORIENTED_EDGE('',*,*,#107,.T.);
#56=ORIENTED_EDGE('',*,*,#108,.T.);
#57=ORIENTED_EDGE('',*,*,#109,.T.);
#58=ORIENTED_EDGE('',*,*,#110,.F.);
#59=ORIENTED_EDGE('',*,*,#111,.T.);
#60=ORIENTED_EDGE('',*,*,#112,.T.);
#61=ORIENTED_EDGE('',*,*,#97,.F.);
#62=ORIENTED_EDGE('',*,*,#113,.T.);
#63=ORIENTED_EDGE('',*,*,#109,.F.);
#64=ORIENTED_EDGE('',*,*,#114,.T.);
#65=ORIENTED_EDGE('',*,*,#115,.T.);
#66=ORIENTED_EDGE('',*,*,#116,.T.);
#67=ORIENTED_EDGE('',*,*,#106,.F.);
#68=ORIENTED_EDGE('',*,*,#117,.T.);
#69=ORIENTED_EDGE('',*,*,#102,.F.);
#70=ORIENTED_EDGE('',*,*,#118,.T.);
#71=ORIENTED_EDGE('',*,*,#104,.F.);
#72=ORIENTED_EDGE('',*,*,#119,.T.);
#73=ORIENTED_EDGE('',*,*,#110,.T.);
#74=ORIENTED_EDGE('',*,*,#120,.T.);
#75=ORIENTED_EDGE('',*,*,#98,.T.);
#76=ORIENTED_EDGE('',*,*,#121,.F.);
#77=ORIENTED_EDGE('',*,*,#100,.T.);
#78=ORIENTED_EDGE('',*,*,#122,.T.);
#79=ORIENTED_EDGE('',*,*,#105,.T.);
#80=ORIENTED_EDGE('',*,*,#118,.F.);
#81=ORIENTED_EDGE('',*,*,#101,.T.);
#82=ORIENTED_EDGE('',*,*,#121,.T.);
#83=ORIENTED_EDGE('',*,*,#113,.F.);
#84=ORIENTED_EDGE('',*,*,#115,.F.);
#85=ORIENTED_EDGE('',*,*,#112,.F.);
#86=ORIENTED_EDGE('',*,*,#108,.F.);
#87=ORIENTED_EDGE('',*,*,#122,.F.);
#88=ORIENTED_EDGE('',*,*,#99,.F.);
#89=ORIENTED_EDGE('',*,*,#120,.F.);
#90=ORIENTED_EDGE('',*,*,#111,.F.);
#91=ORIENTED_EDGE('',*,*,#119,.F.);
#92=ORIENTED_EDGE('',*,*,#103,.F.);
#93=ORIENTED_EDGE('',*,*,#117,.F.);
#94=ORIENTED_EDGE('',*,*,#107,.F.);
#95=ORIENTED_EDGE('',*,*,#114,.F.);
#96=ORIENTED_EDGE('',*,*,#116,.F.);
#97=EDGE_CURVE('',#123,#123,#143,.F.);
#98=EDGE_CURVE('',#124,#125,#29,.F.);
#99=EDGE_CURVE('',#124,#126,#144,.F.);
#100=EDGE_CURVE('',#127,#126,#30,.T.);
#101=EDGE_CURVE('',#128,#127,#145,.F.);
#102=EDGE_CURVE('',#128,#129,#31,.T.);
#103=EDGE_CURVE('',#129,#130,#146,.F.);
#104=EDGE_CURVE('',#130,#131,#32,.F.);
#105=EDGE_CURVE('',#125,#131,#147,.F.);
#106=EDGE_CURVE('',#132,#133,#33,.T.);
#107=EDGE_CURVE('',#133,#132,#148,.T.);
#108=EDGE_CURVE('',#134,#134,#149,.T.);
#109=EDGE_CURVE('',#135,#135,#150,.F.);
#110=EDGE_CURVE('',#136,#137,#34,.T.);
#111=EDGE_CURVE('',#136,#137,#151,.T.);
#112=EDGE_CURVE('',#138,#138,#152,.F.);
#113=EDGE_CURVE('',#139,#139,#153,.F.);
#114=EDGE_CURVE('',#140,#140,#154,.T.);
#115=EDGE_CURVE('',#141,#141,#155,.T.);
#116=EDGE_CURVE('',#142,#142,#156,.F.);
#117=EDGE_CURVE('',#132,#129,#17,.T.);
#118=EDGE_CURVE('',#128,#131,#35,.T.);
#119=EDGE_CURVE('',#130,#133,#18,.T.);
#120=EDGE_CURVE('',#137,#124,#19,.T.);
#121=EDGE_CURVE('',#127,#125,#36,.T.);
#122=EDGE_CURVE('',#126,#136,#20,.T.);
#123=VERTEX_POINT('',#332);
#124=VERTEX_POINT('',#334);
#125=VERTEX_POINT('',#335);
#126=VERTEX_POINT('',#337);
#127=VERTEX_POINT('',#339);
#128=VERTEX_POINT('',#341);
#129=VERTEX_POINT('',#343);
#130=VERTEX_POINT('',#345);
#131=VERTEX_POINT('',#347);
#132=VERTEX_POINT('',#351);
#133=VERTEX_POINT('',#352);
#134=VERTEX_POINT('',#356);
#135=VERTEX_POINT('',#358);
#136=VERTEX_POINT('',#361);
#137=VERTEX_POINT('',#362);
#138=VERTEX_POINT('',#366);
#139=VERTEX_POINT('',#369);
#140=VERTEX_POINT('',#372);
#141=VERTEX_POINT('',#374);
#142=VERTEX_POINT('',#377);
#143=CIRCLE('',#230,0.0024);
#144=CIRCLE('',#231,0.0024);
#145=CIRCLE('',#232,0.0024);
#146=CIRCLE('',#233,0.0024);
#147=CIRCLE('',#234,0.0024);
#148=CIRCLE('',#236,0.0022);
#149=CIRCLE('',#238,0.00125);
#150=CIRCLE('',#239,0.00125);
#151=CIRCLE('',#241,0.0022);
#152=CIRCLE('',#243,0.00135);
#153=CIRCLE('',#245,0.00095);
#154=CIRCLE('',#247,0.00085);
#155=CIRCLE('',#248,0.00085);
#156=CIRCLE('',#250,0.0006);
#157=EDGE_LOOP('',(#45));
#158=EDGE_LOOP('',(#46,#47,#48,#49,#50,#51,#52,#53));
#159=EDGE_LOOP('',(#54,#55));
#160=EDGE_LOOP('',(#56));
#161=EDGE_LOOP('',(#57));
#162=EDGE_LOOP('',(#58,#59));
#163=EDGE_LOOP('',(#60));
#164=EDGE_LOOP('',(#61));
#165=EDGE_LOOP('',(#62));
#166=EDGE_LOOP('',(#63));
#167=EDGE_LOOP('',(#64));
#168=EDGE_LOOP('',(#65));
#169=EDGE_LOOP('',(#66));
#170=EDGE_LOOP('',(#67,#68,#69,#70,#71,#72));
#171=EDGE_LOOP('',(#73,#74,#75,#76,#77,#78));
#172=EDGE_LOOP('',(#79,#80,#81,#82));
#173=EDGE_LOOP('',(#83));
#174=EDGE_LOOP('',(#84));
#175=EDGE_LOOP('',(#85));
#176=EDGE_LOOP('',(#86));
#177=EDGE_LOOP('',(#87,#88,#89,#90));
#178=EDGE_LOOP('',(#91,#92,#93,#94));
#179=EDGE_LOOP('',(#95));
#180=EDGE_LOOP('',(#96));
#181=FACE_BOUND('',#157,.T.);
#182=FACE_BOUND('',#158,.T.);
#183=FACE_BOUND('',#159,.T.);
#184=FACE_BOUND('',#160,.T.);
#185=FACE_BOUND('',#161,.T.);
#186=FACE_BOUND('',#162,.T.);
#187=FACE_BOUND('',#163,.T.);
#188=FACE_BOUND('',#164,.T.);
#189=FACE_BOUND('',#165,.T.);
#190=FACE_BOUND('',#166,.T.);
#191=FACE_BOUND('',#167,.T.);
#192=FACE_BOUND('',#168,.T.);
#193=FACE_BOUND('',#169,.T.);
#194=FACE_BOUND('',#170,.T.);
#195=FACE_BOUND('',#171,.T.);
#196=FACE_BOUND('',#172,.T.);
#197=FACE_BOUND('',#173,.T.);
#198=FACE_BOUND('',#174,.T.);
#199=FACE_BOUND('',#175,.T.);
#200=FACE_BOUND('',#176,.T.);
#201=FACE_BOUND('',#177,.T.);
#202=FACE_BOUND('',#178,.T.);
#203=FACE_BOUND('',#179,.T.);
#204=FACE_BOUND('',#180,.T.);
#205=CYLINDRICAL_SURFACE('',#229,0.0024);
#206=CYLINDRICAL_SURFACE('',#237,0.00125);
#207=CYLINDRICAL_SURFACE('',#246,0.00085);
#208=ADVANCED_FACE('',(#181,#182),#205,.T.);
#209=ADVANCED_FACE('',(#183),#21,.T.);
#210=ADVANCED_FACE('',(#184,#185),#206,.T.);
#211=ADVANCED_FACE('',(#186),#22,.T.);
#212=ADVANCED_FACE('',(#187,#188),#23,.T.);
#213=ADVANCED_FACE('',(#189,#190),#24,.T.);
#214=ADVANCED_FACE('',(#191,#192),#207,.T.);
#215=ADVANCED_FACE('',(#193),#25,.F.);
#216=ADVANCED_FACE('',(#194),#26,.T.);
#217=ADVANCED_FACE('',(#195),#27,.F.);
#218=ADVANCED_FACE('',(#196),#28,.F.);
#219=ADVANCED_FACE('',(#197,#198),#15,.F.);
#220=ADVANCED_FACE('',(#199,#200),#16,.F.);
#221=ADVANCED_FACE('',(#201),#12,.T.);
#222=ADVANCED_FACE('',(#202),#13,.T.);
#223=ADVANCED_FACE('',(#203,#204),#14,.T.);
#224=CLOSED_SHELL('',(#208,#209,#210,#211,#212,#213,#214,#215,#216,#217,
#218,#219,#220,#221,#222,#223));
#225=MANIFOLD_SOLID_BREP('',#224);
#226=SHAPE_DEFINITION_REPRESENTATION(#409,#227);
#227=SHAPE_REPRESENTATION('id2',(#228),#404);
#228=AXIS2_PLACEMENT_3D('',#329,#259,#260);
#229=AXIS2_PLACEMENT_3D('',#330,#261,#262);
#230=AXIS2_PLACEMENT_3D('',#331,#263,#264);
#231=AXIS2_PLACEMENT_3D('',#336,#266,#267);
#232=AXIS2_PLACEMENT_3D('',#340,#269,#270);
#233=AXIS2_PLACEMENT_3D('',#344,#272,#273);
#234=AXIS2_PLACEMENT_3D('',#348,#275,#276);
#235=AXIS2_PLACEMENT_3D('',#349,#277,#278);
#236=AXIS2_PLACEMENT_3D('',#353,#280,#281);
#237=AXIS2_PLACEMENT_3D('',#354,#282,#283);
#238=AXIS2_PLACEMENT_3D('',#355,#284,#285);
#239=AXIS2_PLACEMENT_3D('',#357,#286,#287);
#240=AXIS2_PLACEMENT_3D('',#359,#288,#289);
#241=AXIS2_PLACEMENT_3D('',#363,#291,#292);
#242=AXIS2_PLACEMENT_3D('',#364,#293,#294);
#243=AXIS2_PLACEMENT_3D('',#365,#295,#296);
#244=AXIS2_PLACEMENT_3D('',#367,#297,#298);
#245=AXIS2_PLACEMENT_3D('',#368,#299,#300);
#246=AXIS2_PLACEMENT_3D('',#370,#301,#302);
#247=AXIS2_PLACEMENT_3D('',#371,#303,#304);
#248=AXIS2_PLACEMENT_3D('',#373,#305,#306);
#249=AXIS2_PLACEMENT_3D('',#375,#307,#308);
#250=AXIS2_PLACEMENT_3D('',#376,#309,#310);
#251=AXIS2_PLACEMENT_3D('',#378,#311,#312);
#252=AXIS2_PLACEMENT_3D('',#388,#314,#315);
#253=AXIS2_PLACEMENT_3D('',#398,#317,#318);
#254=AXIS2_PLACEMENT_3D('',#399,#319,#320);
#255=AXIS2_PLACEMENT_3D('',#400,#321,#322);
#256=AXIS2_PLACEMENT_3D('',#401,#323,#324);
#257=AXIS2_PLACEMENT_3D('',#402,#325,#326);
#258=AXIS2_PLACEMENT_3D('',#403,#327,#328);
#259=DIRECTION('',(0.,0.,1.));
#260=DIRECTION('',(1.,0.,0.));
#261=DIRECTION('',(0.,0.,1.));
#262=DIRECTION('',(1.,0.,0.));
#263=DIRECTION('',(0.,0.,-1.));
#264=DIRECTION('',(-1.,0.,0.));
#265=DIRECTION('',(0.,0.,1.));
#266=DIRECTION('',(0.,0.,1.));
#267=DIRECTION('',(1.,0.,0.));
#268=DIRECTION('',(0.,0.,1.));
#269=DIRECTION('',(0.,0.,-1.));
#270=DIRECTION('',(-1.,0.,0.));
#271=DIRECTION('',(0.,0.,1.));
#272=DIRECTION('',(0.,0.,1.));
#273=DIRECTION('',(1.,0.,0.));
#274=DIRECTION('',(0.,0.,1.));
#275=DIRECTION('',(0.,0.,-1.));
#276=DIRECTION('',(-1.,0.,0.));
#277=DIRECTION('',(0.,0.,1.));
#278=DIRECTION('',(1.,0.,0.));
#279=DIRECTION('',(1.,0.,0.));
#280=DIRECTION('',(0.,0.,1.));
#281=DIRECTION('',(1.,0.,0.));
#282=DIRECTION('',(0.,0.,-1.));
#283=DIRECTION('',(-1.,0.,0.));
#284=DIRECTION('',(0.,0.,-1.));
#285=DIRECTION('',(-1.,0.,0.));
#286=DIRECTION('',(0.,0.,-1.));
#287=DIRECTION('',(-1.,0.,0.));
#288=DIRECTION('',(0.,0.,1.));
#289=DIRECTION('',(1.,0.,0.));
#290=DIRECTION('',(1.,0.,0.));
#291=DIRECTION('',(0.,0.,1.));
#292=DIRECTION('',(1.,0.,0.));
#293=DIRECTION('',(0.,0.,-1.));
#294=DIRECTION('',(-1.,0.,0.));
#295=DIRECTION('',(0.,0.,-1.));
#296=DIRECTION('',(-1.,0.,0.));
#297=DIRECTION('',(0.,0.,-1.));
#298=DIRECTION('',(-1.,0.,0.));
#299=DIRECTION('',(0.,0.,-1.));
#300=DIRECTION('',(-1.,0.,0.));
#301=DIRECTION('',(0.,0.,-1.));
#302=DIRECTION('',(-1.,0.,0.));
#303=DIRECTION('',(0.,0.,1.));
#304=DIRECTION('',(1.,0.,0.));
#305=DIRECTION('',(0.,0.,-1.));
#306=DIRECTION('',(-1.,0.,0.));
#307=DIRECTION('',(0.,0.,1.));
#308=DIRECTION('',(1.,0.,0.));
#309=DIRECTION('',(0.,0.,1.));
#310=DIRECTION('',(1.,0.,0.));
#311=DIRECTION('',(0.,-1.,0.));
#312=DIRECTION('',(0.,0.,-1.));
#313=DIRECTION('',(1.,0.,0.));
#314=DIRECTION('',(0.,-1.,0.));
#315=DIRECTION('',(0.,0.,-1.));
#316=DIRECTION('',(1.,0.,0.));
#317=DIRECTION('',(0.,0.,-1.));
#318=DIRECTION('',(-1.,0.,0.));
#319=DIRECTION('',(0.,0.,-1.));
#320=DIRECTION('',(-1.,0.,0.));
#321=DIRECTION('',(0.,0.,-1.));
#322=DIRECTION('',(-1.,0.,0.));
#323=DIRECTION('',(0.,0.,-1.));
#324=DIRECTION('',(-1.,0.,0.));
#325=DIRECTION('',(0.,0.,-1.));
#326=DIRECTION('',(-1.,0.,0.));
#327=DIRECTION('',(0.,0.,1.));
#328=DIRECTION('',(1.,0.,0.));
#329=CARTESIAN_POINT('',(0.,0.,0.));
#330=CARTESIAN_POINT('',(0.,0.,-0.0112));
#331=CARTESIAN_POINT('',(0.,0.,-0.0019));
#332=CARTESIAN_POINT('',(-0.0024,0.,-0.0019));
#333=CARTESIAN_POINT('',(0.00238117617995813,-0.0003,-0.0112));
#334=CARTESIAN_POINT('',(0.00238117617995813,-0.0003,-0.0002));
#335=CARTESIAN_POINT('',(0.00238117617995813,-0.0003,-0.0009));
#336=CARTESIAN_POINT('',(0.,0.,-0.0002));
#337=CARTESIAN_POINT('',(-0.00238117617995813,-0.0003,-0.0002));
#338=CARTESIAN_POINT('',(-0.00238117617995813,-0.0003,-0.0112));
#339=CARTESIAN_POINT('',(-0.00238117617995813,-0.0003,-0.0009));
#340=CARTESIAN_POINT('',(0.,0.,-0.0009));
#341=CARTESIAN_POINT('',(-0.00238117617995813,0.0003,-0.0009));
#342=CARTESIAN_POINT('',(-0.00238117617995813,0.0003,-0.0112));
#343=CARTESIAN_POINT('',(-0.00238117617995813,0.0003,-0.0002));
#344=CARTESIAN_POINT('',(0.,0.,-0.0002));
#345=CARTESIAN_POINT('',(0.00238117617995813,0.0003,-0.0002));
#346=CARTESIAN_POINT('',(0.00238117617995813,0.0003,-0.0112));
#347=CARTESIAN_POINT('',(0.00238117617995813,0.0003,-0.0009));
#348=CARTESIAN_POINT('',(0.,0.,-0.0009));
#349=CARTESIAN_POINT('',(0.,0.,0.));
#350=CARTESIAN_POINT('',(0.,0.0003,0.));
#351=CARTESIAN_POINT('',(-0.00217944947177034,0.0003,0.));
#352=CARTESIAN_POINT('',(0.00217944947177034,0.0003,0.));
#353=CARTESIAN_POINT('',(0.,0.,0.));
#354=CARTESIAN_POINT('',(0.,0.,-0.0019));
#355=CARTESIAN_POINT('',(0.,0.,-0.002));
#356=CARTESIAN_POINT('',(-0.00125,0.,-0.002));
#357=CARTESIAN_POINT('',(0.,0.,-0.0078));
#358=CARTESIAN_POINT('',(-0.00125,0.,-0.0078));
#359=CARTESIAN_POINT('',(0.,0.,0.));
#360=CARTESIAN_POINT('',(0.,-0.0003,0.));
#361=CARTESIAN_POINT('',(-0.00217944947177034,-0.0003,0.));
#362=CARTESIAN_POINT('',(0.00217944947177034,-0.0003,0.));
#363=CARTESIAN_POINT('',(0.,0.,0.));
#364=CARTESIAN_POINT('',(0.,0.,-0.0019));
#365=CARTESIAN_POINT('',(0.,0.,-0.0019));
#366=CARTESIAN_POINT('',(-0.00135,0.,-0.0019));
#367=CARTESIAN_POINT('',(0.,0.,-0.0078));
#368=CARTESIAN_POINT('',(0.,0.,-0.0078));
#369=CARTESIAN_POINT('',(-0.00095,0.,-0.0078));
#370=CARTESIAN_POINT('',(0.,0.,-0.0078));
#371=CARTESIAN_POINT('',(0.,0.,-0.01095));
#372=CARTESIAN_POINT('',(0.00085,0.,-0.01095));
#373=CARTESIAN_POINT('',(0.,0.,-0.0079));
#374=CARTESIAN_POINT('',(-0.00085,0.,-0.0079));
#375=CARTESIAN_POINT('',(0.,0.,-0.0112));
#376=CARTESIAN_POINT('',(0.,0.,-0.0112));
#377=CARTESIAN_POINT('',(0.0006,0.,-0.0112));
#378=CARTESIAN_POINT('',(-0.0025,0.0003,-0.0009));
#379=CARTESIAN_POINT('',(-0.00217944947177034,0.0003,0.));
#380=CARTESIAN_POINT('',(-0.00224671799231417,0.0003,-6.66401552572859E-5));
#381=CARTESIAN_POINT('',(-0.00231395801996529,0.0003,-0.000133309049401845));
#382=CARTESIAN_POINT('',(-0.00238117617995813,0.0003,-0.0002));
#383=CARTESIAN_POINT('',(-0.0025,0.0003,-0.0009));
#384=CARTESIAN_POINT('',(0.00238117617995813,0.0003,-0.0002));
#385=CARTESIAN_POINT('',(0.00231395801996529,0.0003,-0.000133309049401845));
#386=CARTESIAN_POINT('',(0.00224671799231417,0.0003,-6.6640155257286E-5));
#387=CARTESIAN_POINT('',(0.00217944947177034,0.0003,-8.92714714556406E-20));
#388=CARTESIAN_POINT('',(-0.0025,-0.0003,-0.0009));
#389=CARTESIAN_POINT('',(0.00217944947177034,-0.0003,0.));
#390=CARTESIAN_POINT('',(0.00224671799231417,-0.0003,-6.66401552572859E-5));
#391=CARTESIAN_POINT('',(0.00231395801996529,-0.0003,-0.000133309049401845));
#392=CARTESIAN_POINT('',(0.00238117617995813,-0.0003,-0.0002));
#393=CARTESIAN_POINT('',(-0.0025,-0.0003,-0.0009));
#394=CARTESIAN_POINT('',(-0.00238117617995813,-0.0003,-0.0002));
#395=CARTESIAN_POINT('',(-0.00231395801996529,-0.0003,-0.000133309049401845));
#396=CARTESIAN_POINT('',(-0.00224671799231417,-0.0003,-6.6640155257286E-5));
#397=CARTESIAN_POINT('',(-0.00217944947177034,-0.0003,-8.92714714556406E-20));
#398=CARTESIAN_POINT('',(0.,0.,-0.0009));
#399=CARTESIAN_POINT('',(0.,0.,-0.0079));
#400=CARTESIAN_POINT('',(0.,0.,-0.002));
#401=CARTESIAN_POINT('',(0.,0.,0.));
#402=CARTESIAN_POINT('',(0.,0.,0.));
#403=CARTESIAN_POINT('',(0.,0.,-0.0112));
#404=(
GEOMETRIC_REPRESENTATION_CONTEXT(3)
GLOBAL_UNCERTAINTY_ASSIGNED_CONTEXT((#405))
GLOBAL_UNIT_ASSIGNED_CONTEXT((#408,#407,#406))
REPRESENTATION_CONTEXT('id2','TOP_LEVEL_ASSEMBLY_PART')
);
#405=UNCERTAINTY_MEASURE_WITH_UNIT(LENGTH_MEASURE(2.E-5),#408,
'DISTANCE_ACCURACY_VALUE','Maximum Tolerance applied to model');
#406=(
NAMED_UNIT(*)
SI_UNIT($,.STERADIAN.)
SOLID_ANGLE_UNIT()
);
#407=(
NAMED_UNIT(*)
PLANE_ANGLE_UNIT()
SI_UNIT($,.RADIAN.)
);
#408=(
LENGTH_UNIT()
NAMED_UNIT(*)
SI_UNIT($,.METRE.)
);
#409=PRODUCT_DEFINITION_SHAPE('','',#410);
#410=PRODUCT_DEFINITION('','',#412,#411);
#411=PRODUCT_DEFINITION_CONTEXT('',#418,'design');
#412=PRODUCT_DEFINITION_FORMATION_WITH_SPECIFIED_SOURCE('','',#414,
 .NOT_KNOWN.);
#413=PRODUCT_RELATED_PRODUCT_CATEGORY('','',(#414));
#414=PRODUCT('id2','id2','id2',(#416));
#415=PRODUCT_CATEGORY('','');
#416=PRODUCT_CONTEXT('',#418,'mechanical');
#417=APPLICATION_PROTOCOL_DEFINITION('international standard',
'ap242_managed_model_based_3d_engineering',2020,#418);
#418=APPLICATION_CONTEXT('managed model based 3d engineering');
ENDSEC;
END-ISO-10303-21;
