ISO-10303-21;
HEADER;
/* Generated by software containing ST-Developer
 * from STEP Tools, Inc. (www.steptools.com) 
 */
/* OPTION: using custom renumber hook */

FILE_DESCRIPTION(
/* description */ ('STEP AP242 Edition 2',
'CAx-IF Rec.Pracs.---Representation and Presentation of Product Manufa
cturing Information (PMI)---4.0---2014-10-13',
'CAx-IF Rec.Pracs.---3D Tessellated Geometry---0.4---2014-09-14','2;1',
'CAx-IF Rec.Pracs.---User Defined Attributes---1.5---2016-08-15'),
/* implementation_level */ '2;1');

FILE_NAME(
/* name */ '10120',
/* time_stamp */ '2026-07-13T05:04:27Z',
/* author */ (''),
/* organization */ (''),
/* preprocessor_version */ 'ST-DEVELOPER v20',
/* originating_system */ 'ONSHAPE BY PTC INC, 1.217',
/* authorisation */ '  ');

FILE_SCHEMA (('AP242_MANAGED_MODEL_BASED_3D_ENGINEERING_MIM_LF { 1 0 10303 442 3 1 4 }'));
ENDSEC;

DATA;
#10=SHAPE_REPRESENTATION_RELATIONSHIP('','',#391,#11);
#11=ADVANCED_BREP_SHAPE_REPRESENTATION('',(#389),#648);
#12=PLANE('',#399);
#13=PLANE('',#405);
#14=PLANE('',#411);
#15=PLANE('',#412);
#16=PLANE('',#413);
#17=PLANE('',#414);
#18=PLANE('',#415);
#19=PLANE('',#417);
#20=PLANE('',#418);
#21=PLANE('',#419);
#22=PLANE('',#421);
#23=PLANE('',#422);
#24=PLANE('',#424);
#25=LINE('',#542,#65);
#26=LINE('',#546,#66);
#27=LINE('',#551,#67);
#28=LINE('',#555,#68);
#29=LINE('',#557,#69);
#30=LINE('',#561,#70);
#31=LINE('',#562,#71);
#32=LINE('',#566,#72);
#33=LINE('',#570,#73);
#34=LINE('',#571,#74);
#35=LINE('',#574,#75);
#36=LINE('',#578,#76);
#37=LINE('',#580,#77);
#38=LINE('',#582,#78);
#39=LINE('',#586,#79);
#40=LINE('',#588,#80);
#41=LINE('',#591,#81);
#42=LINE('',#593,#82);
#43=LINE('',#597,#83);
#44=LINE('',#599,#84);
#45=LINE('',#601,#85);
#46=LINE('',#607,#86);
#47=LINE('',#608,#87);
#48=LINE('',#612,#88);
#49=LINE('',#616,#89);
#50=LINE('',#617,#90);
#51=LINE('',#619,#91);
#52=LINE('',#621,#92);
#53=LINE('',#622,#93);
#54=LINE('',#624,#94);
#55=LINE('',#626,#95);
#56=LINE('',#627,#96);
#57=LINE('',#629,#97);
#58=LINE('',#631,#98);
#59=LINE('',#633,#99);
#60=LINE('',#635,#100);
#61=LINE('',#637,#101);
#62=LINE('',#639,#102);
#63=LINE('',#642,#103);
#64=LINE('',#644,#104);
#65=VECTOR('',#433,1.);
#66=VECTOR('',#436,1.);
#67=VECTOR('',#441,1.);
#68=VECTOR('',#444,1.);
#69=VECTOR('',#447,1.);
#70=VECTOR('',#450,1.);
#71=VECTOR('',#451,1.);
#72=VECTOR('',#454,1.);
#73=VECTOR('',#457,1.);
#74=VECTOR('',#458,1.);
#75=VECTOR('',#459,1.);
#76=VECTOR('',#462,1.);
#77=VECTOR('',#463,1.);
#78=VECTOR('',#464,1.);
#79=VECTOR('',#467,1.);
#80=VECTOR('',#470,1.);
#81=VECTOR('',#471,1.);
#82=VECTOR('',#472,1.);
#83=VECTOR('',#475,1.);
#84=VECTOR('',#476,1.);
#85=VECTOR('',#477,1.);
#86=VECTOR('',#482,1.);
#87=VECTOR('',#483,1.);
#88=VECTOR('',#486,1.);
#89=VECTOR('',#489,1.);
#90=VECTOR('',#490,1.);
#91=VECTOR('',#493,1.);
#92=VECTOR('',#496,1.);
#93=VECTOR('',#497,1.);
#94=VECTOR('',#500,1.);
#95=VECTOR('',#503,1.);
#96=VECTOR('',#504,1.);
#97=VECTOR('',#507,1.);
#98=VECTOR('',#510,1.);
#99=VECTOR('',#513,1.);
#100=VECTOR('',#516,1.);
#101=VECTOR('',#519,1.);
#102=VECTOR('',#522,1.);
#103=VECTOR('',#527,1.);
#104=VECTOR('',#530,1.);
#105=ORIENTED_EDGE('',*,*,#213,.T.);
#106=ORIENTED_EDGE('',*,*,#214,.T.);
#107=ORIENTED_EDGE('',*,*,#215,.F.);
#108=ORIENTED_EDGE('',*,*,#216,.F.);
#109=ORIENTED_EDGE('',*,*,#217,.F.);
#110=ORIENTED_EDGE('',*,*,#218,.F.);
#111=ORIENTED_EDGE('',*,*,#219,.T.);
#112=ORIENTED_EDGE('',*,*,#220,.T.);
#113=ORIENTED_EDGE('',*,*,#221,.F.);
#114=ORIENTED_EDGE('',*,*,#222,.F.);
#115=ORIENTED_EDGE('',*,*,#223,.F.);
#116=ORIENTED_EDGE('',*,*,#217,.T.);
#117=ORIENTED_EDGE('',*,*,#224,.F.);
#118=ORIENTED_EDGE('',*,*,#225,.T.);
#119=ORIENTED_EDGE('',*,*,#226,.F.);
#120=ORIENTED_EDGE('',*,*,#227,.T.);
#121=ORIENTED_EDGE('',*,*,#228,.F.);
#122=ORIENTED_EDGE('',*,*,#215,.T.);
#123=ORIENTED_EDGE('',*,*,#229,.F.);
#124=ORIENTED_EDGE('',*,*,#230,.F.);
#125=ORIENTED_EDGE('',*,*,#231,.F.);
#126=ORIENTED_EDGE('',*,*,#232,.F.);
#127=ORIENTED_EDGE('',*,*,#233,.F.);
#128=ORIENTED_EDGE('',*,*,#234,.F.);
#129=ORIENTED_EDGE('',*,*,#235,.F.);
#130=ORIENTED_EDGE('',*,*,#236,.F.);
#131=ORIENTED_EDGE('',*,*,#237,.T.);
#132=ORIENTED_EDGE('',*,*,#238,.T.);
#133=ORIENTED_EDGE('',*,*,#239,.T.);
#134=ORIENTED_EDGE('',*,*,#240,.T.);
#135=ORIENTED_EDGE('',*,*,#241,.T.);
#136=ORIENTED_EDGE('',*,*,#242,.T.);
#137=ORIENTED_EDGE('',*,*,#243,.T.);
#138=ORIENTED_EDGE('',*,*,#244,.T.);
#139=ORIENTED_EDGE('',*,*,#245,.T.);
#140=ORIENTED_EDGE('',*,*,#246,.T.);
#141=ORIENTED_EDGE('',*,*,#213,.F.);
#142=ORIENTED_EDGE('',*,*,#247,.T.);
#143=ORIENTED_EDGE('',*,*,#248,.T.);
#144=ORIENTED_EDGE('',*,*,#249,.T.);
#145=ORIENTED_EDGE('',*,*,#250,.T.);
#146=ORIENTED_EDGE('',*,*,#251,.T.);
#147=ORIENTED_EDGE('',*,*,#219,.F.);
#148=ORIENTED_EDGE('',*,*,#252,.T.);
#149=ORIENTED_EDGE('',*,*,#251,.F.);
#150=ORIENTED_EDGE('',*,*,#253,.T.);
#151=ORIENTED_EDGE('',*,*,#224,.T.);
#152=ORIENTED_EDGE('',*,*,#220,.F.);
#153=ORIENTED_EDGE('',*,*,#226,.T.);
#154=ORIENTED_EDGE('',*,*,#254,.T.);
#155=ORIENTED_EDGE('',*,*,#249,.F.);
#156=ORIENTED_EDGE('',*,*,#255,.T.);
#157=ORIENTED_EDGE('',*,*,#228,.T.);
#158=ORIENTED_EDGE('',*,*,#256,.T.);
#159=ORIENTED_EDGE('',*,*,#247,.F.);
#160=ORIENTED_EDGE('',*,*,#216,.T.);
#161=ORIENTED_EDGE('',*,*,#229,.T.);
#162=ORIENTED_EDGE('',*,*,#257,.F.);
#163=ORIENTED_EDGE('',*,*,#238,.F.);
#164=ORIENTED_EDGE('',*,*,#258,.T.);
#165=ORIENTED_EDGE('',*,*,#230,.T.);
#166=ORIENTED_EDGE('',*,*,#258,.F.);
#167=ORIENTED_EDGE('',*,*,#237,.F.);
#168=ORIENTED_EDGE('',*,*,#259,.T.);
#169=ORIENTED_EDGE('',*,*,#231,.T.);
#170=ORIENTED_EDGE('',*,*,#259,.F.);
#171=ORIENTED_EDGE('',*,*,#244,.F.);
#172=ORIENTED_EDGE('',*,*,#260,.T.);
#173=ORIENTED_EDGE('',*,*,#232,.T.);
#174=ORIENTED_EDGE('',*,*,#260,.F.);
#175=ORIENTED_EDGE('',*,*,#243,.F.);
#176=ORIENTED_EDGE('',*,*,#261,.T.);
#177=ORIENTED_EDGE('',*,*,#233,.T.);
#178=ORIENTED_EDGE('',*,*,#261,.F.);
#179=ORIENTED_EDGE('',*,*,#242,.F.);
#180=ORIENTED_EDGE('',*,*,#262,.T.);
#181=ORIENTED_EDGE('',*,*,#234,.T.);
#182=ORIENTED_EDGE('',*,*,#262,.F.);
#183=ORIENTED_EDGE('',*,*,#241,.F.);
#184=ORIENTED_EDGE('',*,*,#263,.T.);
#185=ORIENTED_EDGE('',*,*,#235,.T.);
#186=ORIENTED_EDGE('',*,*,#263,.F.);
#187=ORIENTED_EDGE('',*,*,#240,.F.);
#188=ORIENTED_EDGE('',*,*,#264,.T.);
#189=ORIENTED_EDGE('',*,*,#236,.T.);
#190=ORIENTED_EDGE('',*,*,#264,.F.);
#191=ORIENTED_EDGE('',*,*,#239,.F.);
#192=ORIENTED_EDGE('',*,*,#257,.T.);
#193=ORIENTED_EDGE('',*,*,#221,.T.);
#194=ORIENTED_EDGE('',*,*,#214,.F.);
#195=ORIENTED_EDGE('',*,*,#246,.F.);
#196=ORIENTED_EDGE('',*,*,#265,.T.);
#197=ORIENTED_EDGE('',*,*,#222,.T.);
#198=ORIENTED_EDGE('',*,*,#265,.F.);
#199=ORIENTED_EDGE('',*,*,#245,.F.);
#200=ORIENTED_EDGE('',*,*,#266,.T.);
#201=ORIENTED_EDGE('',*,*,#223,.T.);
#202=ORIENTED_EDGE('',*,*,#266,.F.);
#203=ORIENTED_EDGE('',*,*,#252,.F.);
#204=ORIENTED_EDGE('',*,*,#218,.T.);
#205=ORIENTED_EDGE('',*,*,#250,.F.);
#206=ORIENTED_EDGE('',*,*,#254,.F.);
#207=ORIENTED_EDGE('',*,*,#225,.F.);
#208=ORIENTED_EDGE('',*,*,#253,.F.);
#209=ORIENTED_EDGE('',*,*,#248,.F.);
#210=ORIENTED_EDGE('',*,*,#256,.F.);
#211=ORIENTED_EDGE('',*,*,#227,.F.);
#212=ORIENTED_EDGE('',*,*,#255,.F.);
#213=EDGE_CURVE('',#267,#268,#303,.T.);
#214=EDGE_CURVE('',#268,#269,#25,.T.);
#215=EDGE_CURVE('',#270,#269,#304,.T.);
#216=EDGE_CURVE('',#267,#270,#26,.T.);
#217=EDGE_CURVE('',#271,#272,#305,.T.);
#218=EDGE_CURVE('',#273,#271,#27,.T.);
#219=EDGE_CURVE('',#273,#274,#306,.T.);
#220=EDGE_CURVE('',#274,#272,#28,.T.);
#221=EDGE_CURVE('',#275,#269,#29,.T.);
#222=EDGE_CURVE('',#276,#275,#307,.T.);
#223=EDGE_CURVE('',#271,#276,#30,.T.);
#224=EDGE_CURVE('',#277,#272,#31,.T.);
#225=EDGE_CURVE('',#277,#278,#308,.F.);
#226=EDGE_CURVE('',#279,#278,#32,.T.);
#227=EDGE_CURVE('',#279,#280,#309,.F.);
#228=EDGE_CURVE('',#270,#280,#33,.T.);
#229=EDGE_CURVE('',#281,#282,#34,.T.);
#230=EDGE_CURVE('',#283,#281,#35,.T.);
#231=EDGE_CURVE('',#284,#283,#310,.T.);
#232=EDGE_CURVE('',#285,#284,#36,.T.);
#233=EDGE_CURVE('',#286,#285,#37,.T.);
#234=EDGE_CURVE('',#287,#286,#38,.T.);
#235=EDGE_CURVE('',#288,#287,#311,.T.);
#236=EDGE_CURVE('',#282,#288,#39,.T.);
#237=EDGE_CURVE('',#289,#290,#40,.T.);
#238=EDGE_CURVE('',#290,#291,#41,.T.);
#239=EDGE_CURVE('',#291,#292,#42,.T.);
#240=EDGE_CURVE('',#292,#293,#312,.T.);
#241=EDGE_CURVE('',#293,#294,#43,.T.);
#242=EDGE_CURVE('',#294,#295,#44,.T.);
#243=EDGE_CURVE('',#295,#296,#45,.T.);
#244=EDGE_CURVE('',#296,#289,#313,.T.);
#245=EDGE_CURVE('',#297,#298,#314,.T.);
#246=EDGE_CURVE('',#298,#268,#46,.T.);
#247=EDGE_CURVE('',#267,#299,#47,.T.);
#248=EDGE_CURVE('',#299,#300,#315,.T.);
#249=EDGE_CURVE('',#300,#301,#48,.T.);
#250=EDGE_CURVE('',#301,#302,#316,.T.);
#251=EDGE_CURVE('',#302,#274,#49,.T.);
#252=EDGE_CURVE('',#273,#297,#50,.T.);
#253=EDGE_CURVE('',#302,#277,#51,.T.);
#254=EDGE_CURVE('',#278,#301,#52,.F.);
#255=EDGE_CURVE('',#300,#279,#53,.T.);
#256=EDGE_CURVE('',#280,#299,#54,.F.);
#257=EDGE_CURVE('',#291,#282,#55,.T.);
#258=EDGE_CURVE('',#290,#281,#56,.T.);
#259=EDGE_CURVE('',#289,#283,#57,.T.);
#260=EDGE_CURVE('',#296,#284,#58,.T.);
#261=EDGE_CURVE('',#295,#285,#59,.T.);
#262=EDGE_CURVE('',#294,#286,#60,.T.);
#263=EDGE_CURVE('',#293,#287,#61,.T.);
#264=EDGE_CURVE('',#292,#288,#62,.T.);
#265=EDGE_CURVE('',#298,#275,#63,.T.);
#266=EDGE_CURVE('',#297,#276,#64,.T.);
#267=VERTEX_POINT('',#540);
#268=VERTEX_POINT('',#541);
#269=VERTEX_POINT('',#543);
#270=VERTEX_POINT('',#545);
#271=VERTEX_POINT('',#549);
#272=VERTEX_POINT('',#550);
#273=VERTEX_POINT('',#552);
#274=VERTEX_POINT('',#554);
#275=VERTEX_POINT('',#558);
#276=VERTEX_POINT('',#560);
#277=VERTEX_POINT('',#563);
#278=VERTEX_POINT('',#565);
#279=VERTEX_POINT('',#567);
#280=VERTEX_POINT('',#569);
#281=VERTEX_POINT('',#572);
#282=VERTEX_POINT('',#573);
#283=VERTEX_POINT('',#575);
#284=VERTEX_POINT('',#577);
#285=VERTEX_POINT('',#579);
#286=VERTEX_POINT('',#581);
#287=VERTEX_POINT('',#583);
#288=VERTEX_POINT('',#585);
#289=VERTEX_POINT('',#589);
#290=VERTEX_POINT('',#590);
#291=VERTEX_POINT('',#592);
#292=VERTEX_POINT('',#594);
#293=VERTEX_POINT('',#596);
#294=VERTEX_POINT('',#598);
#295=VERTEX_POINT('',#600);
#296=VERTEX_POINT('',#602);
#297=VERTEX_POINT('',#605);
#298=VERTEX_POINT('',#606);
#299=VERTEX_POINT('',#609);
#300=VERTEX_POINT('',#611);
#301=VERTEX_POINT('',#613);
#302=VERTEX_POINT('',#615);
#303=CIRCLE('',#394,0.00726);
#304=CIRCLE('',#395,0.00726);
#305=CIRCLE('',#397,0.00726);
#306=CIRCLE('',#398,0.00726);
#307=CIRCLE('',#400,0.0018);
#308=CIRCLE('',#401,0.0003);
#309=CIRCLE('',#402,0.0003);
#310=CIRCLE('',#403,0.0025);
#311=CIRCLE('',#404,0.0025);
#312=CIRCLE('',#406,0.0025);
#313=CIRCLE('',#407,0.0025);
#314=CIRCLE('',#408,0.0018);
#315=CIRCLE('',#409,0.0003);
#316=CIRCLE('',#410,0.0003);
#317=EDGE_LOOP('',(#105,#106,#107,#108));
#318=EDGE_LOOP('',(#109,#110,#111,#112));
#319=EDGE_LOOP('',(#113,#114,#115,#116,#117,#118,#119,#120,#121,#122));
#320=EDGE_LOOP('',(#123,#124,#125,#126,#127,#128,#129,#130));
#321=EDGE_LOOP('',(#131,#132,#133,#134,#135,#136,#137,#138));
#322=EDGE_LOOP('',(#139,#140,#141,#142,#143,#144,#145,#146,#147,#148));
#323=EDGE_LOOP('',(#149,#150,#151,#152));
#324=EDGE_LOOP('',(#153,#154,#155,#156));
#325=EDGE_LOOP('',(#157,#158,#159,#160));
#326=EDGE_LOOP('',(#161,#162,#163,#164));
#327=EDGE_LOOP('',(#165,#166,#167,#168));
#328=EDGE_LOOP('',(#169,#170,#171,#172));
#329=EDGE_LOOP('',(#173,#174,#175,#176));
#330=EDGE_LOOP('',(#177,#178,#179,#180));
#331=EDGE_LOOP('',(#181,#182,#183,#184));
#332=EDGE_LOOP('',(#185,#186,#187,#188));
#333=EDGE_LOOP('',(#189,#190,#191,#192));
#334=EDGE_LOOP('',(#193,#194,#195,#196));
#335=EDGE_LOOP('',(#197,#198,#199,#200));
#336=EDGE_LOOP('',(#201,#202,#203,#204));
#337=EDGE_LOOP('',(#205,#206,#207,#208));
#338=EDGE_LOOP('',(#209,#210,#211,#212));
#339=FACE_BOUND('',#317,.T.);
#340=FACE_BOUND('',#318,.T.);
#341=FACE_BOUND('',#319,.T.);
#342=FACE_BOUND('',#320,.T.);
#343=FACE_BOUND('',#321,.T.);
#344=FACE_BOUND('',#322,.T.);
#345=FACE_BOUND('',#323,.T.);
#346=FACE_BOUND('',#324,.T.);
#347=FACE_BOUND('',#325,.T.);
#348=FACE_BOUND('',#326,.T.);
#349=FACE_BOUND('',#327,.T.);
#350=FACE_BOUND('',#328,.T.);
#351=FACE_BOUND('',#329,.T.);
#352=FACE_BOUND('',#330,.T.);
#353=FACE_BOUND('',#331,.T.);
#354=FACE_BOUND('',#332,.T.);
#355=FACE_BOUND('',#333,.T.);
#356=FACE_BOUND('',#334,.T.);
#357=FACE_BOUND('',#335,.T.);
#358=FACE_BOUND('',#336,.T.);
#359=FACE_BOUND('',#337,.T.);
#360=FACE_BOUND('',#338,.T.);
#361=CYLINDRICAL_SURFACE('',#393,0.00726);
#362=CYLINDRICAL_SURFACE('',#396,0.00726);
#363=CYLINDRICAL_SURFACE('',#416,0.0025);
#364=CYLINDRICAL_SURFACE('',#420,0.0025);
#365=CYLINDRICAL_SURFACE('',#423,0.0018);
#366=CYLINDRICAL_SURFACE('',#425,0.0003);
#367=CYLINDRICAL_SURFACE('',#426,0.0003);
#368=ADVANCED_FACE('',(#339),#361,.T.);
#369=ADVANCED_FACE('',(#340),#362,.T.);
#370=ADVANCED_FACE('',(#341,#342),#12,.T.);
#371=ADVANCED_FACE('',(#343,#344),#13,.F.);
#372=ADVANCED_FACE('',(#345),#14,.F.);
#373=ADVANCED_FACE('',(#346),#15,.F.);
#374=ADVANCED_FACE('',(#347),#16,.F.);
#375=ADVANCED_FACE('',(#348),#17,.F.);
#376=ADVANCED_FACE('',(#349),#18,.F.);
#377=ADVANCED_FACE('',(#350),#363,.F.);
#378=ADVANCED_FACE('',(#351),#19,.F.);
#379=ADVANCED_FACE('',(#352),#20,.F.);
#380=ADVANCED_FACE('',(#353),#21,.F.);
#381=ADVANCED_FACE('',(#354),#364,.F.);
#382=ADVANCED_FACE('',(#355),#22,.F.);
#383=ADVANCED_FACE('',(#356),#23,.F.);
#384=ADVANCED_FACE('',(#357),#365,.F.);
#385=ADVANCED_FACE('',(#358),#24,.F.);
#386=ADVANCED_FACE('',(#359),#366,.F.);
#387=ADVANCED_FACE('',(#360),#367,.F.);
#388=CLOSED_SHELL('',(#368,#369,#370,#371,#372,#373,#374,#375,#376,#377,
#378,#379,#380,#381,#382,#383,#384,#385,#386,#387));
#389=MANIFOLD_SOLID_BREP('',#388);
#390=SHAPE_DEFINITION_REPRESENTATION(#653,#391);
#391=SHAPE_REPRESENTATION('id2',(#392),#648);
#392=AXIS2_PLACEMENT_3D('',#537,#427,#428);
#393=AXIS2_PLACEMENT_3D('',#538,#429,#430);
#394=AXIS2_PLACEMENT_3D('',#539,#431,#432);
#395=AXIS2_PLACEMENT_3D('',#544,#434,#435);
#396=AXIS2_PLACEMENT_3D('',#547,#437,#438);
#397=AXIS2_PLACEMENT_3D('',#548,#439,#440);
#398=AXIS2_PLACEMENT_3D('',#553,#442,#443);
#399=AXIS2_PLACEMENT_3D('',#556,#445,#446);
#400=AXIS2_PLACEMENT_3D('',#559,#448,#449);
#401=AXIS2_PLACEMENT_3D('',#564,#452,#453);
#402=AXIS2_PLACEMENT_3D('',#568,#455,#456);
#403=AXIS2_PLACEMENT_3D('',#576,#460,#461);
#404=AXIS2_PLACEMENT_3D('',#584,#465,#466);
#405=AXIS2_PLACEMENT_3D('',#587,#468,#469);
#406=AXIS2_PLACEMENT_3D('',#595,#473,#474);
#407=AXIS2_PLACEMENT_3D('',#603,#478,#479);
#408=AXIS2_PLACEMENT_3D('',#604,#480,#481);
#409=AXIS2_PLACEMENT_3D('',#610,#484,#485);
#410=AXIS2_PLACEMENT_3D('',#614,#487,#488);
#411=AXIS2_PLACEMENT_3D('',#618,#491,#492);
#412=AXIS2_PLACEMENT_3D('',#620,#494,#495);
#413=AXIS2_PLACEMENT_3D('',#623,#498,#499);
#414=AXIS2_PLACEMENT_3D('',#625,#501,#502);
#415=AXIS2_PLACEMENT_3D('',#628,#505,#506);
#416=AXIS2_PLACEMENT_3D('',#630,#508,#509);
#417=AXIS2_PLACEMENT_3D('',#632,#511,#512);
#418=AXIS2_PLACEMENT_3D('',#634,#514,#515);
#419=AXIS2_PLACEMENT_3D('',#636,#517,#518);
#420=AXIS2_PLACEMENT_3D('',#638,#520,#521);
#421=AXIS2_PLACEMENT_3D('',#640,#523,#524);
#422=AXIS2_PLACEMENT_3D('',#641,#525,#526);
#423=AXIS2_PLACEMENT_3D('',#643,#528,#529);
#424=AXIS2_PLACEMENT_3D('',#645,#531,#532);
#425=AXIS2_PLACEMENT_3D('',#646,#533,#534);
#426=AXIS2_PLACEMENT_3D('',#647,#535,#536);
#427=DIRECTION('',(0.,0.,1.));
#428=DIRECTION('',(1.,0.,0.));
#429=DIRECTION('',(0.,-1.,0.));
#430=DIRECTION('',(0.,0.,-1.));
#431=DIRECTION('',(0.,1.,0.));
#432=DIRECTION('',(0.,0.,1.));
#433=DIRECTION('',(0.,1.,0.));
#434=DIRECTION('',(0.,1.,0.));
#435=DIRECTION('',(0.,0.,1.));
#436=DIRECTION('',(0.,1.,0.));
#437=DIRECTION('',(0.,-1.,0.));
#438=DIRECTION('',(0.,0.,-1.));
#439=DIRECTION('',(0.,1.,0.));
#440=DIRECTION('',(0.,0.,1.));
#441=DIRECTION('',(0.,1.,0.));
#442=DIRECTION('',(0.,1.,0.));
#443=DIRECTION('',(0.,0.,1.));
#444=DIRECTION('',(0.,1.,0.));
#445=DIRECTION('',(0.,1.,0.));
#446=DIRECTION('',(0.,0.,1.));
#447=DIRECTION('',(3.42386465779127E-16,0.,1.));
#448=DIRECTION('',(0.,1.,0.));
#449=DIRECTION('',(0.,0.,1.));
#450=DIRECTION('',(3.42386465779127E-16,0.,-1.));
#451=DIRECTION('',(-1.96528911712405E-16,0.,-1.));
#452=DIRECTION('',(0.,1.,0.));
#453=DIRECTION('',(0.,0.,1.));
#454=DIRECTION('',(1.,0.,0.));
#455=DIRECTION('',(0.,1.,0.));
#456=DIRECTION('',(0.,0.,1.));
#457=DIRECTION('',(1.96528911712405E-16,0.,1.));
#458=DIRECTION('',(0.,0.,-1.));
#459=DIRECTION('',(1.,0.,0.));
#460=DIRECTION('',(0.,1.,0.));
#461=DIRECTION('',(0.,0.,1.));
#462=DIRECTION('',(1.,0.,0.));
#463=DIRECTION('',(0.,0.,1.));
#464=DIRECTION('',(-1.,0.,0.));
#465=DIRECTION('',(0.,1.,0.));
#466=DIRECTION('',(0.,0.,1.));
#467=DIRECTION('',(-1.,0.,0.));
#468=DIRECTION('',(0.,1.,0.));
#469=DIRECTION('',(0.,0.,1.));
#470=DIRECTION('',(1.,0.,0.));
#471=DIRECTION('',(0.,0.,-1.));
#472=DIRECTION('',(-1.,0.,0.));
#473=DIRECTION('',(0.,1.,0.));
#474=DIRECTION('',(0.,0.,1.));
#475=DIRECTION('',(-1.,0.,0.));
#476=DIRECTION('',(0.,0.,1.));
#477=DIRECTION('',(1.,0.,0.));
#478=DIRECTION('',(0.,1.,0.));
#479=DIRECTION('',(0.,0.,1.));
#480=DIRECTION('',(0.,1.,0.));
#481=DIRECTION('',(0.,0.,1.));
#482=DIRECTION('',(3.42386465779127E-16,0.,1.));
#483=DIRECTION('',(1.96528911712405E-16,0.,1.));
#484=DIRECTION('',(0.,1.,0.));
#485=DIRECTION('',(0.,0.,1.));
#486=DIRECTION('',(1.,0.,0.));
#487=DIRECTION('',(0.,1.,0.));
#488=DIRECTION('',(0.,0.,1.));
#489=DIRECTION('',(-1.96528911712405E-16,0.,-1.));
#490=DIRECTION('',(3.42386465779127E-16,0.,-1.));
#491=DIRECTION('',(1.,0.,-1.96528911712405E-16));
#492=DIRECTION('',(-1.96528911712405E-16,0.,-1.));
#493=DIRECTION('',(0.,1.,0.));
#494=DIRECTION('',(0.,0.,1.));
#495=DIRECTION('',(1.,0.,0.));
#496=DIRECTION('',(0.,1.,0.));
#497=DIRECTION('',(0.,1.,0.));
#498=DIRECTION('',(-1.,0.,1.96528911712405E-16));
#499=DIRECTION('',(1.96528911712405E-16,0.,1.));
#500=DIRECTION('',(0.,1.,0.));
#501=DIRECTION('',(1.,0.,0.));
#502=DIRECTION('',(0.,0.,-1.));
#503=DIRECTION('',(0.,1.,0.));
#504=DIRECTION('',(0.,1.,0.));
#505=DIRECTION('',(0.,0.,1.));
#506=DIRECTION('',(1.,0.,0.));
#507=DIRECTION('',(0.,1.,0.));
#508=DIRECTION('',(0.,1.,0.));
#509=DIRECTION('',(0.,0.,1.));
#510=DIRECTION('',(0.,1.,0.));
#511=DIRECTION('',(0.,0.,1.));
#512=DIRECTION('',(1.,0.,0.));
#513=DIRECTION('',(0.,1.,0.));
#514=DIRECTION('',(-1.,0.,0.));
#515=DIRECTION('',(0.,0.,1.));
#516=DIRECTION('',(0.,1.,0.));
#517=DIRECTION('',(0.,0.,-1.));
#518=DIRECTION('',(-1.,0.,0.));
#519=DIRECTION('',(0.,1.,0.));
#520=DIRECTION('',(0.,1.,0.));
#521=DIRECTION('',(0.,0.,1.));
#522=DIRECTION('',(0.,1.,0.));
#523=DIRECTION('',(0.,0.,-1.));
#524=DIRECTION('',(-1.,0.,0.));
#525=DIRECTION('',(-1.,0.,3.42386465779127E-16));
#526=DIRECTION('',(3.42386465779127E-16,0.,1.));
#527=DIRECTION('',(0.,1.,0.));
#528=DIRECTION('',(0.,1.,0.));
#529=DIRECTION('',(0.,0.,1.));
#530=DIRECTION('',(0.,1.,0.));
#531=DIRECTION('',(1.,0.,3.42386465779127E-16));
#532=DIRECTION('',(3.42386465779127E-16,0.,-1.));
#533=DIRECTION('',(0.,-1.,0.));
#534=DIRECTION('',(0.,0.,-1.));
#535=DIRECTION('',(0.,-1.,0.));
#536=DIRECTION('',(0.,0.,-1.));
#537=CARTESIAN_POINT('',(0.,0.,0.));
#538=CARTESIAN_POINT('',(0.,0.001,0.));
#539=CARTESIAN_POINT('',(0.,0.,0.));
#540=CARTESIAN_POINT('',(-0.0015,0.,-0.0071033513217354));
#541=CARTESIAN_POINT('',(-0.0018,0.,0.00703332069509133));
#542=CARTESIAN_POINT('',(-0.0018,0.,0.00703332069509133));
#543=CARTESIAN_POINT('',(-0.0018,0.001,0.00703332069509133));
#544=CARTESIAN_POINT('',(0.,0.001,0.));
#545=CARTESIAN_POINT('',(-0.0015,0.001,-0.0071033513217354));
#546=CARTESIAN_POINT('',(-0.0015,0.,-0.0071033513217354));
#547=CARTESIAN_POINT('',(0.,0.001,0.));
#548=CARTESIAN_POINT('',(0.,0.001,0.));
#549=CARTESIAN_POINT('',(0.0018,0.001,0.00703332069509133));
#550=CARTESIAN_POINT('',(0.0015,0.001,-0.0071033513217354));
#551=CARTESIAN_POINT('',(0.0018,0.,0.00703332069509133));
#552=CARTESIAN_POINT('',(0.0018,0.,0.00703332069509133));
#553=CARTESIAN_POINT('',(0.,0.,0.));
#554=CARTESIAN_POINT('',(0.0015,0.,-0.0071033513217354));
#555=CARTESIAN_POINT('',(0.0015,0.,-0.0071033513217354));
#556=CARTESIAN_POINT('',(0.,0.001,0.));
#557=CARTESIAN_POINT('',(-0.0018,0.001,0.0064));
#558=CARTESIAN_POINT('',(-0.0018,0.001,0.0064));
#559=CARTESIAN_POINT('',(7.83773951454306E-19,0.001,0.0064));
#560=CARTESIAN_POINT('',(0.0018,0.001,0.0064));
#561=CARTESIAN_POINT('',(0.0018,0.001,0.0064));
#562=CARTESIAN_POINT('',(0.0015,0.001,-0.0071033513217354));
#563=CARTESIAN_POINT('',(0.0015,0.001,-0.0063));
#564=CARTESIAN_POINT('',(0.0012,0.001,-0.0063));
#565=CARTESIAN_POINT('',(0.0012,0.001,-0.006));
#566=CARTESIAN_POINT('',(-0.0015,0.001,-0.006));
#567=CARTESIAN_POINT('',(-0.0012,0.001,-0.006));
#568=CARTESIAN_POINT('',(-0.0012,0.001,-0.0063));
#569=CARTESIAN_POINT('',(-0.0015,0.001,-0.0063));
#570=CARTESIAN_POINT('',(-0.0015,0.001,-0.0071033513217354));
#571=CARTESIAN_POINT('',(0.006,0.001,0.0015));
#572=CARTESIAN_POINT('',(0.006,0.001,0.0015));
#573=CARTESIAN_POINT('',(0.006,0.001,-0.0015));
#574=CARTESIAN_POINT('',(0.002,0.001,0.0015));
#575=CARTESIAN_POINT('',(0.002,0.001,0.0015));
#576=CARTESIAN_POINT('',(8.67361737988404E-19,0.001,-2.16840434497101E-19));
#577=CARTESIAN_POINT('',(-0.002,0.001,0.0015));
#578=CARTESIAN_POINT('',(-0.006,0.001,0.0015));
#579=CARTESIAN_POINT('',(-0.006,0.001,0.0015));
#580=CARTESIAN_POINT('',(-0.006,0.001,0.0015));
#581=CARTESIAN_POINT('',(-0.006,0.001,-0.0015));
#582=CARTESIAN_POINT('',(-0.006,0.001,-0.0015));
#583=CARTESIAN_POINT('',(-0.002,0.001,-0.0015));
#584=CARTESIAN_POINT('',(8.67361737988404E-19,0.001,-2.16840434497101E-19));
#585=CARTESIAN_POINT('',(0.002,0.001,-0.0015));
#586=CARTESIAN_POINT('',(0.002,0.001,-0.0015));
#587=CARTESIAN_POINT('',(0.,0.,0.));
#588=CARTESIAN_POINT('',(0.002,0.,0.0015));
#589=CARTESIAN_POINT('',(0.002,0.,0.0015));
#590=CARTESIAN_POINT('',(0.006,0.,0.0015));
#591=CARTESIAN_POINT('',(0.006,0.,0.0015));
#592=CARTESIAN_POINT('',(0.006,0.,-0.0015));
#593=CARTESIAN_POINT('',(0.002,0.,-0.0015));
#594=CARTESIAN_POINT('',(0.002,0.,-0.0015));
#595=CARTESIAN_POINT('',(8.67361737988404E-19,0.,-2.16840434497101E-19));
#596=CARTESIAN_POINT('',(-0.002,0.,-0.0015));
#597=CARTESIAN_POINT('',(-0.006,0.,-0.0015));
#598=CARTESIAN_POINT('',(-0.006,0.,-0.0015));
#599=CARTESIAN_POINT('',(-0.006,0.,0.0015));
#600=CARTESIAN_POINT('',(-0.006,0.,0.0015));
#601=CARTESIAN_POINT('',(-0.006,0.,0.0015));
#602=CARTESIAN_POINT('',(-0.002,0.,0.0015));
#603=CARTESIAN_POINT('',(8.67361737988404E-19,0.,-2.16840434497101E-19));
#604=CARTESIAN_POINT('',(7.83773951454306E-19,0.,0.0064));
#605=CARTESIAN_POINT('',(0.0018,0.,0.0064));
#606=CARTESIAN_POINT('',(-0.0018,0.,0.0064));
#607=CARTESIAN_POINT('',(-0.0018,0.,0.0064));
#608=CARTESIAN_POINT('',(-0.0015,0.,-0.0071033513217354));
#609=CARTESIAN_POINT('',(-0.0015,0.,-0.0063));
#610=CARTESIAN_POINT('',(-0.0012,0.,-0.0063));
#611=CARTESIAN_POINT('',(-0.0012,0.,-0.006));
#612=CARTESIAN_POINT('',(-0.0015,0.,-0.006));
#613=CARTESIAN_POINT('',(0.0012,0.,-0.006));
#614=CARTESIAN_POINT('',(0.0012,0.,-0.0063));
#615=CARTESIAN_POINT('',(0.0015,0.,-0.0063));
#616=CARTESIAN_POINT('',(0.0015,0.,-0.0071033513217354));
#617=CARTESIAN_POINT('',(0.0018,0.,0.0064));
#618=CARTESIAN_POINT('',(0.0015,0.,-0.0071033513217354));
#619=CARTESIAN_POINT('',(0.0015,0.001,-0.0063));
#620=CARTESIAN_POINT('',(-0.0015,0.,-0.006));
#621=CARTESIAN_POINT('',(0.0012,0.,-0.006));
#622=CARTESIAN_POINT('',(-0.0012,0.001,-0.006));
#623=CARTESIAN_POINT('',(-0.0015,0.,-0.0071033513217354));
#624=CARTESIAN_POINT('',(-0.0015,0.,-0.0063));
#625=CARTESIAN_POINT('',(0.006,0.,0.0015));
#626=CARTESIAN_POINT('',(0.006,0.,-0.0015));
#627=CARTESIAN_POINT('',(0.006,0.,0.0015));
#628=CARTESIAN_POINT('',(0.002,0.,0.0015));
#629=CARTESIAN_POINT('',(0.002,0.,0.0015));
#630=CARTESIAN_POINT('',(8.67361737988404E-19,0.,-2.16840434497101E-19));
#631=CARTESIAN_POINT('',(-0.002,0.,0.0015));
#632=CARTESIAN_POINT('',(-0.006,0.,0.0015));
#633=CARTESIAN_POINT('',(-0.006,0.,0.0015));
#634=CARTESIAN_POINT('',(-0.006,0.,0.0015));
#635=CARTESIAN_POINT('',(-0.006,0.,-0.0015));
#636=CARTESIAN_POINT('',(-0.006,0.,-0.0015));
#637=CARTESIAN_POINT('',(-0.002,0.,-0.0015));
#638=CARTESIAN_POINT('',(8.67361737988404E-19,0.,-2.16840434497101E-19));
#639=CARTESIAN_POINT('',(0.002,0.,-0.0015));
#640=CARTESIAN_POINT('',(0.002,0.,-0.0015));
#641=CARTESIAN_POINT('',(-0.0018,0.,0.0064));
#642=CARTESIAN_POINT('',(-0.0018,0.,0.0064));
#643=CARTESIAN_POINT('',(7.83773951454306E-19,0.,0.0064));
#644=CARTESIAN_POINT('',(0.0018,0.,0.0064));
#645=CARTESIAN_POINT('',(0.0018,0.,0.0064));
#646=CARTESIAN_POINT('',(0.0012,0.,-0.0063));
#647=CARTESIAN_POINT('',(-0.0012,0.,-0.0063));
#648=(
GEOMETRIC_REPRESENTATION_CONTEXT(3)
GLOBAL_UNCERTAINTY_ASSIGNED_CONTEXT((#649))
GLOBAL_UNIT_ASSIGNED_CONTEXT((#652,#651,#650))
REPRESENTATION_CONTEXT('id2','TOP_LEVEL_ASSEMBLY_PART')
);
#649=UNCERTAINTY_MEASURE_WITH_UNIT(LENGTH_MEASURE(1.E-8),#652,
'DISTANCE_ACCURACY_VALUE','Maximum Tolerance applied to model');
#650=(
NAMED_UNIT(*)
SI_UNIT($,.STERADIAN.)
SOLID_ANGLE_UNIT()
);
#651=(
NAMED_UNIT(*)
PLANE_ANGLE_UNIT()
SI_UNIT($,.RADIAN.)
);
#652=(
LENGTH_UNIT()
NAMED_UNIT(*)
SI_UNIT($,.METRE.)
);
#653=PRODUCT_DEFINITION_SHAPE('','',#654);
#654=PRODUCT_DEFINITION('','',#656,#655);
#655=PRODUCT_DEFINITION_CONTEXT('',#662,'design');
#656=PRODUCT_DEFINITION_FORMATION_WITH_SPECIFIED_SOURCE('','',#658,
 .NOT_KNOWN.);
#657=PRODUCT_RELATED_PRODUCT_CATEGORY('','',(#658));
#658=PRODUCT('id2','id2','id2',(#660));
#659=PRODUCT_CATEGORY('','');
#660=PRODUCT_CONTEXT('',#662,'mechanical');
#661=APPLICATION_PROTOCOL_DEFINITION('international standard',
'ap242_managed_model_based_3d_engineering',2020,#662);
#662=APPLICATION_CONTEXT('managed model based 3d engineering');
ENDSEC;
END-ISO-10303-21;
