ISO-10303-21;
HEADER;
/* Generated by software containing ST-Developer
 * from STEP Tools, Inc. (www.steptools.com) 
 */
/* OPTION: using custom renumber hook */

FILE_DESCRIPTION(
/* description */ ('STEP AP242 Edition 2',
'CAx-IF Rec.Pracs.---Representation and Presentation of Product Manufa
cturing Information (PMI)---4.0---2014-10-13',
'CAx-IF Rec.Pracs.---3D Tessellated Geometry---0.4---2014-09-14','2;1',
'CAx-IF Rec.Pracs.---User Defined Attributes---1.5---2016-08-15'),
/* implementation_level */ '2;1');

FILE_NAME(
/* name */ '10136',
/* time_stamp */ '2026-07-13T05:06:22Z',
/* author */ (''),
/* organization */ (''),
/* preprocessor_version */ 'ST-DEVELOPER v20',
/* originating_system */ 'ONSHAPE BY PTC INC, 1.217',
/* authorisation */ '  ');

FILE_SCHEMA (('AP242_MANAGED_MODEL_BASED_3D_ENGINEERING_MIM_LF { 1 0 10303 442 3 1 4 }'));
ENDSEC;

DATA;
#10=SHAPE_REPRESENTATION_RELATIONSHIP('','',#259,#11);
#11=ADVANCED_BREP_SHAPE_REPRESENTATION('',(#257),#448);
#12=PLANE('',#279);
#13=PLANE('',#282);
#14=PLANE('',#285);
#15=PLANE('',#287);
#16=PLANE('',#289);
#17=PLANE('',#290);
#18=CIRCLE('',#262,0.0178);
#19=CIRCLE('',#263,0.0178);
#20=CIRCLE('',#265,0.0178);
#21=CIRCLE('',#266,0.0178);
#22=CIRCLE('',#268,0.0015);
#23=CIRCLE('',#269,0.0015);
#24=CIRCLE('',#271,0.0178);
#25=CIRCLE('',#272,0.0178);
#26=CIRCLE('',#274,0.0015);
#27=CIRCLE('',#275,0.0015);
#28=CIRCLE('',#277,0.0208);
#29=CIRCLE('',#278,0.0208);
#30=CIRCLE('',#280,0.0008);
#31=CIRCLE('',#281,0.0008);
#32=CIRCLE('',#283,0.0008);
#33=CIRCLE('',#284,0.0008);
#34=ORIENTED_EDGE('',*,*,#106,.F.);
#35=ORIENTED_EDGE('',*,*,#107,.T.);
#36=ORIENTED_EDGE('',*,*,#108,.T.);
#37=ORIENTED_EDGE('',*,*,#109,.F.);
#38=ORIENTED_EDGE('',*,*,#110,.T.);
#39=ORIENTED_EDGE('',*,*,#111,.F.);
#40=ORIENTED_EDGE('',*,*,#112,.F.);
#41=ORIENTED_EDGE('',*,*,#113,.T.);
#42=ORIENTED_EDGE('',*,*,#114,.F.);
#43=ORIENTED_EDGE('',*,*,#115,.F.);
#44=ORIENTED_EDGE('',*,*,#116,.T.);
#45=ORIENTED_EDGE('',*,*,#117,.T.);
#46=ORIENTED_EDGE('',*,*,#118,.F.);
#47=ORIENTED_EDGE('',*,*,#119,.T.);
#48=ORIENTED_EDGE('',*,*,#115,.T.);
#49=ORIENTED_EDGE('',*,*,#120,.F.);
#50=ORIENTED_EDGE('',*,*,#121,.F.);
#51=ORIENTED_EDGE('',*,*,#122,.F.);
#52=ORIENTED_EDGE('',*,*,#123,.T.);
#53=ORIENTED_EDGE('',*,*,#112,.T.);
#54=ORIENTED_EDGE('',*,*,#124,.F.);
#55=ORIENTED_EDGE('',*,*,#117,.F.);
#56=ORIENTED_EDGE('',*,*,#125,.T.);
#57=ORIENTED_EDGE('',*,*,#122,.T.);
#58=ORIENTED_EDGE('',*,*,#107,.F.);
#59=ORIENTED_EDGE('',*,*,#126,.T.);
#60=ORIENTED_EDGE('',*,*,#127,.T.);
#61=ORIENTED_EDGE('',*,*,#128,.T.);
#62=ORIENTED_EDGE('',*,*,#113,.F.);
#63=ORIENTED_EDGE('',*,*,#123,.F.);
#64=ORIENTED_EDGE('',*,*,#125,.F.);
#65=ORIENTED_EDGE('',*,*,#116,.F.);
#66=ORIENTED_EDGE('',*,*,#119,.F.);
#67=ORIENTED_EDGE('',*,*,#129,.T.);
#68=ORIENTED_EDGE('',*,*,#130,.T.);
#69=ORIENTED_EDGE('',*,*,#131,.T.);
#70=ORIENTED_EDGE('',*,*,#132,.F.);
#71=ORIENTED_EDGE('',*,*,#109,.T.);
#72=ORIENTED_EDGE('',*,*,#133,.F.);
#73=ORIENTED_EDGE('',*,*,#134,.F.);
#74=ORIENTED_EDGE('',*,*,#135,.F.);
#75=ORIENTED_EDGE('',*,*,#120,.T.);
#76=ORIENTED_EDGE('',*,*,#114,.T.);
#77=ORIENTED_EDGE('',*,*,#124,.T.);
#78=ORIENTED_EDGE('',*,*,#121,.T.);
#79=ORIENTED_EDGE('',*,*,#111,.T.);
#80=ORIENTED_EDGE('',*,*,#136,.F.);
#81=ORIENTED_EDGE('',*,*,#137,.F.);
#82=ORIENTED_EDGE('',*,*,#133,.T.);
#83=ORIENTED_EDGE('',*,*,#108,.F.);
#84=ORIENTED_EDGE('',*,*,#131,.F.);
#85=ORIENTED_EDGE('',*,*,#138,.T.);
#86=ORIENTED_EDGE('',*,*,#134,.T.);
#87=ORIENTED_EDGE('',*,*,#138,.F.);
#88=ORIENTED_EDGE('',*,*,#130,.F.);
#89=ORIENTED_EDGE('',*,*,#139,.T.);
#90=ORIENTED_EDGE('',*,*,#135,.T.);
#91=ORIENTED_EDGE('',*,*,#139,.F.);
#92=ORIENTED_EDGE('',*,*,#129,.F.);
#93=ORIENTED_EDGE('',*,*,#118,.T.);
#94=ORIENTED_EDGE('',*,*,#137,.T.);
#95=ORIENTED_EDGE('',*,*,#140,.F.);
#96=ORIENTED_EDGE('',*,*,#127,.F.);
#97=ORIENTED_EDGE('',*,*,#141,.T.);
#98=ORIENTED_EDGE('',*,*,#132,.T.);
#99=ORIENTED_EDGE('',*,*,#141,.F.);
#100=ORIENTED_EDGE('',*,*,#126,.F.);
#101=ORIENTED_EDGE('',*,*,#106,.T.);
#102=ORIENTED_EDGE('',*,*,#136,.T.);
#103=ORIENTED_EDGE('',*,*,#110,.F.);
#104=ORIENTED_EDGE('',*,*,#128,.F.);
#105=ORIENTED_EDGE('',*,*,#140,.T.);
#106=EDGE_CURVE('',#142,#143,#166,.T.);
#107=EDGE_CURVE('',#142,#144,#18,.T.);
#108=EDGE_CURVE('',#144,#145,#167,.T.);
#109=EDGE_CURVE('',#143,#145,#19,.T.);
#110=EDGE_CURVE('',#146,#147,#168,.T.);
#111=EDGE_CURVE('',#148,#147,#20,.T.);
#112=EDGE_CURVE('',#149,#148,#169,.T.);
#113=EDGE_CURVE('',#149,#146,#21,.T.);
#114=EDGE_CURVE('',#150,#151,#22,.T.);
#115=EDGE_CURVE('',#152,#150,#170,.T.);
#116=EDGE_CURVE('',#152,#153,#23,.T.);
#117=EDGE_CURVE('',#153,#151,#171,.T.);
#118=EDGE_CURVE('',#154,#155,#172,.T.);
#119=EDGE_CURVE('',#154,#152,#24,.T.);
#120=EDGE_CURVE('',#155,#150,#25,.T.);
#121=EDGE_CURVE('',#156,#148,#26,.T.);
#122=EDGE_CURVE('',#157,#156,#173,.T.);
#123=EDGE_CURVE('',#157,#149,#27,.T.);
#124=EDGE_CURVE('',#151,#156,#28,.T.);
#125=EDGE_CURVE('',#153,#157,#29,.T.);
#126=EDGE_CURVE('',#142,#158,#174,.T.);
#127=EDGE_CURVE('',#158,#159,#30,.T.);
#128=EDGE_CURVE('',#159,#146,#175,.T.);
#129=EDGE_CURVE('',#154,#160,#176,.T.);
#130=EDGE_CURVE('',#160,#161,#31,.T.);
#131=EDGE_CURVE('',#161,#144,#177,.T.);
#132=EDGE_CURVE('',#143,#162,#178,.T.);
#133=EDGE_CURVE('',#163,#145,#179,.T.);
#134=EDGE_CURVE('',#164,#163,#32,.T.);
#135=EDGE_CURVE('',#155,#164,#180,.T.);
#136=EDGE_CURVE('',#165,#147,#181,.T.);
#137=EDGE_CURVE('',#162,#165,#33,.T.);
#138=EDGE_CURVE('',#161,#163,#182,.T.);
#139=EDGE_CURVE('',#160,#164,#183,.T.);
#140=EDGE_CURVE('',#159,#165,#184,.T.);
#141=EDGE_CURVE('',#158,#162,#185,.T.);
#142=VERTEX_POINT('',#376);
#143=VERTEX_POINT('',#377);
#144=VERTEX_POINT('',#379);
#145=VERTEX_POINT('',#381);
#146=VERTEX_POINT('',#385);
#147=VERTEX_POINT('',#386);
#148=VERTEX_POINT('',#388);
#149=VERTEX_POINT('',#390);
#150=VERTEX_POINT('',#394);
#151=VERTEX_POINT('',#395);
#152=VERTEX_POINT('',#397);
#153=VERTEX_POINT('',#399);
#154=VERTEX_POINT('',#403);
#155=VERTEX_POINT('',#404);
#156=VERTEX_POINT('',#409);
#157=VERTEX_POINT('',#411);
#158=VERTEX_POINT('',#418);
#159=VERTEX_POINT('',#420);
#160=VERTEX_POINT('',#423);
#161=VERTEX_POINT('',#425);
#162=VERTEX_POINT('',#429);
#163=VERTEX_POINT('',#431);
#164=VERTEX_POINT('',#433);
#165=VERTEX_POINT('',#436);
#166=LINE('',#375,#186);
#167=LINE('',#380,#187);
#168=LINE('',#384,#188);
#169=LINE('',#389,#189);
#170=LINE('',#396,#190);
#171=LINE('',#400,#191);
#172=LINE('',#402,#192);
#173=LINE('',#410,#193);
#174=LINE('',#417,#194);
#175=LINE('',#421,#195);
#176=LINE('',#422,#196);
#177=LINE('',#426,#197);
#178=LINE('',#428,#198);
#179=LINE('',#430,#199);
#180=LINE('',#434,#200);
#181=LINE('',#435,#201);
#182=LINE('',#439,#202);
#183=LINE('',#441,#203);
#184=LINE('',#444,#204);
#185=LINE('',#445,#205);
#186=VECTOR('',#295,1.);
#187=VECTOR('',#298,1.);
#188=VECTOR('',#303,1.);
#189=VECTOR('',#306,1.);
#190=VECTOR('',#313,1.);
#191=VECTOR('',#316,1.);
#192=VECTOR('',#319,1.);
#193=VECTOR('',#328,1.);
#194=VECTOR('',#339,1.);
#195=VECTOR('',#342,1.);
#196=VECTOR('',#343,1.);
#197=VECTOR('',#346,1.);
#198=VECTOR('',#349,1.);
#199=VECTOR('',#350,1.);
#200=VECTOR('',#353,1.);
#201=VECTOR('',#354,1.);
#202=VECTOR('',#359,1.);
#203=VECTOR('',#362,1.);
#204=VECTOR('',#367,1.);
#205=VECTOR('',#368,1.);
#206=EDGE_LOOP('',(#34,#35,#36,#37));
#207=EDGE_LOOP('',(#38,#39,#40,#41));
#208=EDGE_LOOP('',(#42,#43,#44,#45));
#209=EDGE_LOOP('',(#46,#47,#48,#49));
#210=EDGE_LOOP('',(#50,#51,#52,#53));
#211=EDGE_LOOP('',(#54,#55,#56,#57));
#212=EDGE_LOOP('',(#58,#59,#60,#61,#62,#63,#64,#65,#66,#67,#68,#69));
#213=EDGE_LOOP('',(#70,#71,#72,#73,#74,#75,#76,#77,#78,#79,#80,#81));
#214=EDGE_LOOP('',(#82,#83,#84,#85));
#215=EDGE_LOOP('',(#86,#87,#88,#89));
#216=EDGE_LOOP('',(#90,#91,#92,#93));
#217=EDGE_LOOP('',(#94,#95,#96,#97));
#218=EDGE_LOOP('',(#98,#99,#100,#101));
#219=EDGE_LOOP('',(#102,#103,#104,#105));
#220=FACE_BOUND('',#206,.T.);
#221=FACE_BOUND('',#207,.T.);
#222=FACE_BOUND('',#208,.T.);
#223=FACE_BOUND('',#209,.T.);
#224=FACE_BOUND('',#210,.T.);
#225=FACE_BOUND('',#211,.T.);
#226=FACE_BOUND('',#212,.T.);
#227=FACE_BOUND('',#213,.T.);
#228=FACE_BOUND('',#214,.T.);
#229=FACE_BOUND('',#215,.T.);
#230=FACE_BOUND('',#216,.T.);
#231=FACE_BOUND('',#217,.T.);
#232=FACE_BOUND('',#218,.T.);
#233=FACE_BOUND('',#219,.T.);
#234=CYLINDRICAL_SURFACE('',#261,0.0178);
#235=CYLINDRICAL_SURFACE('',#264,0.0178);
#236=CYLINDRICAL_SURFACE('',#267,0.0015);
#237=CYLINDRICAL_SURFACE('',#270,0.0178);
#238=CYLINDRICAL_SURFACE('',#273,0.0015);
#239=CYLINDRICAL_SURFACE('',#276,0.0208);
#240=CYLINDRICAL_SURFACE('',#286,0.0008);
#241=CYLINDRICAL_SURFACE('',#288,0.0008);
#242=ADVANCED_FACE('',(#220),#234,.F.);
#243=ADVANCED_FACE('',(#221),#235,.F.);
#244=ADVANCED_FACE('',(#222),#236,.T.);
#245=ADVANCED_FACE('',(#223),#237,.F.);
#246=ADVANCED_FACE('',(#224),#238,.T.);
#247=ADVANCED_FACE('',(#225),#239,.T.);
#248=ADVANCED_FACE('',(#226),#12,.F.);
#249=ADVANCED_FACE('',(#227),#13,.T.);
#250=ADVANCED_FACE('',(#228),#14,.F.);
#251=ADVANCED_FACE('',(#229),#240,.F.);
#252=ADVANCED_FACE('',(#230),#15,.F.);
#253=ADVANCED_FACE('',(#231),#241,.F.);
#254=ADVANCED_FACE('',(#232),#16,.F.);
#255=ADVANCED_FACE('',(#233),#17,.F.);
#256=CLOSED_SHELL('',(#242,#243,#244,#245,#246,#247,#248,#249,#250,#251,
#252,#253,#254,#255));
#257=MANIFOLD_SOLID_BREP('',#256);
#258=SHAPE_DEFINITION_REPRESENTATION(#453,#259);
#259=SHAPE_REPRESENTATION('id2',(#260),#448);
#260=AXIS2_PLACEMENT_3D('',#373,#291,#292);
#261=AXIS2_PLACEMENT_3D('',#374,#293,#294);
#262=AXIS2_PLACEMENT_3D('',#378,#296,#297);
#263=AXIS2_PLACEMENT_3D('',#382,#299,#300);
#264=AXIS2_PLACEMENT_3D('',#383,#301,#302);
#265=AXIS2_PLACEMENT_3D('',#387,#304,#305);
#266=AXIS2_PLACEMENT_3D('',#391,#307,#308);
#267=AXIS2_PLACEMENT_3D('',#392,#309,#310);
#268=AXIS2_PLACEMENT_3D('',#393,#311,#312);
#269=AXIS2_PLACEMENT_3D('',#398,#314,#315);
#270=AXIS2_PLACEMENT_3D('',#401,#317,#318);
#271=AXIS2_PLACEMENT_3D('',#405,#320,#321);
#272=AXIS2_PLACEMENT_3D('',#406,#322,#323);
#273=AXIS2_PLACEMENT_3D('',#407,#324,#325);
#274=AXIS2_PLACEMENT_3D('',#408,#326,#327);
#275=AXIS2_PLACEMENT_3D('',#412,#329,#330);
#276=AXIS2_PLACEMENT_3D('',#413,#331,#332);
#277=AXIS2_PLACEMENT_3D('',#414,#333,#334);
#278=AXIS2_PLACEMENT_3D('',#415,#335,#336);
#279=AXIS2_PLACEMENT_3D('',#416,#337,#338);
#280=AXIS2_PLACEMENT_3D('',#419,#340,#341);
#281=AXIS2_PLACEMENT_3D('',#424,#344,#345);
#282=AXIS2_PLACEMENT_3D('',#427,#347,#348);
#283=AXIS2_PLACEMENT_3D('',#432,#351,#352);
#284=AXIS2_PLACEMENT_3D('',#437,#355,#356);
#285=AXIS2_PLACEMENT_3D('',#438,#357,#358);
#286=AXIS2_PLACEMENT_3D('',#440,#360,#361);
#287=AXIS2_PLACEMENT_3D('',#442,#363,#364);
#288=AXIS2_PLACEMENT_3D('',#443,#365,#366);
#289=AXIS2_PLACEMENT_3D('',#446,#369,#370);
#290=AXIS2_PLACEMENT_3D('',#447,#371,#372);
#291=DIRECTION('',(0.,0.,1.));
#292=DIRECTION('',(1.,0.,0.));
#293=DIRECTION('',(0.,0.,1.));
#294=DIRECTION('',(1.,0.,0.));
#295=DIRECTION('',(0.,0.,1.));
#296=DIRECTION('',(0.,0.,-1.));
#297=DIRECTION('',(1.,0.,0.));
#298=DIRECTION('',(0.,0.,1.));
#299=DIRECTION('',(0.,0.,-1.));
#300=DIRECTION('',(1.,0.,0.));
#301=DIRECTION('',(0.,0.,1.));
#302=DIRECTION('',(1.,0.,0.));
#303=DIRECTION('',(0.,0.,1.));
#304=DIRECTION('',(0.,0.,-1.));
#305=DIRECTION('',(1.,0.,0.));
#306=DIRECTION('',(0.,0.,1.));
#307=DIRECTION('',(0.,0.,-1.));
#308=DIRECTION('',(1.,0.,0.));
#309=DIRECTION('',(0.,0.,1.));
#310=DIRECTION('',(1.,0.,0.));
#311=DIRECTION('',(0.,0.,1.));
#312=DIRECTION('',(1.,0.,0.));
#313=DIRECTION('',(0.,0.,1.));
#314=DIRECTION('',(0.,0.,1.));
#315=DIRECTION('',(1.,0.,0.));
#316=DIRECTION('',(0.,0.,1.));
#317=DIRECTION('',(0.,0.,1.));
#318=DIRECTION('',(1.,0.,0.));
#319=DIRECTION('',(0.,0.,1.));
#320=DIRECTION('',(0.,0.,-1.));
#321=DIRECTION('',(1.,0.,0.));
#322=DIRECTION('',(0.,0.,-1.));
#323=DIRECTION('',(1.,0.,0.));
#324=DIRECTION('',(0.,0.,1.));
#325=DIRECTION('',(1.,0.,0.));
#326=DIRECTION('',(0.,0.,1.));
#327=DIRECTION('',(-1.,0.,0.));
#328=DIRECTION('',(0.,0.,1.));
#329=DIRECTION('',(0.,0.,1.));
#330=DIRECTION('',(-1.,0.,0.));
#331=DIRECTION('',(0.,0.,1.));
#332=DIRECTION('',(1.,0.,0.));
#333=DIRECTION('',(0.,0.,1.));
#334=DIRECTION('',(1.,0.,0.));
#335=DIRECTION('',(0.,0.,1.));
#336=DIRECTION('',(1.,0.,0.));
#337=DIRECTION('',(0.,0.,1.));
#338=DIRECTION('',(1.,0.,0.));
#339=DIRECTION('',(1.22546999557961E-14,-1.,0.));
#340=DIRECTION('',(0.,0.,1.));
#341=DIRECTION('',(-1.,0.,0.));
#342=DIRECTION('',(-6.9631128491748E-15,1.,0.));
#343=DIRECTION('',(-5.35624065321137E-16,-1.,0.));
#344=DIRECTION('',(0.,0.,1.));
#345=DIRECTION('',(1.,0.,0.));
#346=DIRECTION('',(0.,1.,0.));
#347=DIRECTION('',(0.,0.,1.));
#348=DIRECTION('',(1.,0.,0.));
#349=DIRECTION('',(1.22546999557961E-14,-1.,0.));
#350=DIRECTION('',(0.,1.,0.));
#351=DIRECTION('',(0.,0.,1.));
#352=DIRECTION('',(1.,0.,0.));
#353=DIRECTION('',(-5.35624065321137E-16,-1.,0.));
#354=DIRECTION('',(-6.9631128491748E-15,1.,0.));
#355=DIRECTION('',(0.,0.,1.));
#356=DIRECTION('',(-1.,0.,0.));
#357=DIRECTION('',(1.,0.,0.));
#358=DIRECTION('',(0.,0.,-1.));
#359=DIRECTION('',(0.,0.,1.));
#360=DIRECTION('',(0.,0.,1.));
#361=DIRECTION('',(1.,0.,0.));
#362=DIRECTION('',(0.,0.,1.));
#363=DIRECTION('',(-1.,5.35624065321138E-16,0.));
#364=DIRECTION('',(-5.35624065321138E-16,-1.,0.));
#365=DIRECTION('',(0.,0.,1.));
#366=DIRECTION('',(1.,0.,0.));
#367=DIRECTION('',(0.,0.,1.));
#368=DIRECTION('',(0.,0.,1.));
#369=DIRECTION('',(-1.,-1.22546999557961E-14,0.));
#370=DIRECTION('',(1.22546999557961E-14,-1.,0.));
#371=DIRECTION('',(1.,6.9631128491748E-15,0.));
#372=DIRECTION('',(-6.9631128491748E-15,1.,0.));
#373=CARTESIAN_POINT('',(0.,0.,0.));
#374=CARTESIAN_POINT('',(0.,0.,-0.001));
#375=CARTESIAN_POINT('',(0.0057,-0.0168626806884315,-0.001));
#376=CARTESIAN_POINT('',(0.0057,-0.0168626806884315,-0.001));
#377=CARTESIAN_POINT('',(0.0057,-0.0168626806884315,0.));
#378=CARTESIAN_POINT('',(0.,0.,-0.001));
#379=CARTESIAN_POINT('',(-0.0057,-0.0168626806884315,-0.001));
#380=CARTESIAN_POINT('',(-0.0057,-0.0168626806884315,-0.001));
#381=CARTESIAN_POINT('',(-0.0057,-0.0168626806884315,0.));
#382=CARTESIAN_POINT('',(0.,0.,0.));
#383=CARTESIAN_POINT('',(0.,0.,-0.001));
#384=CARTESIAN_POINT('',(0.0073,-0.016234223110454,-0.001));
#385=CARTESIAN_POINT('',(0.0073,-0.016234223110454,-0.001));
#386=CARTESIAN_POINT('',(0.0073,-0.016234223110454,0.));
#387=CARTESIAN_POINT('',(0.,0.,0.));
#388=CARTESIAN_POINT('',(0.00894611398963731,-0.0153885361384511,0.));
#389=CARTESIAN_POINT('',(0.00894611398963731,-0.0153885361384511,-0.001));
#390=CARTESIAN_POINT('',(0.00894611398963731,-0.0153885361384511,-0.001));
#391=CARTESIAN_POINT('',(0.,0.,-0.001));
#392=CARTESIAN_POINT('',(-0.0097,-0.0166853228916914,-0.001));
#393=CARTESIAN_POINT('',(-0.0097,-0.0166853228916914,0.));
#394=CARTESIAN_POINT('',(-0.00894611398963732,-0.0153885361384511,0.));
#395=CARTESIAN_POINT('',(-0.0104538860103627,-0.0179821096449316,0.));
#396=CARTESIAN_POINT('',(-0.00894611398963732,-0.0153885361384511,-0.001));
#397=CARTESIAN_POINT('',(-0.00894611398963732,-0.0153885361384511,-0.001));
#398=CARTESIAN_POINT('',(-0.0097,-0.0166853228916914,-0.001));
#399=CARTESIAN_POINT('',(-0.0104538860103627,-0.0179821096449316,-0.001));
#400=CARTESIAN_POINT('',(-0.0104538860103627,-0.0179821096449316,-0.001));
#401=CARTESIAN_POINT('',(0.,0.,-0.001));
#402=CARTESIAN_POINT('',(-0.0073,-0.016234223110454,-0.001));
#403=CARTESIAN_POINT('',(-0.0073,-0.016234223110454,-0.001));
#404=CARTESIAN_POINT('',(-0.0073,-0.016234223110454,0.));
#405=CARTESIAN_POINT('',(0.,0.,-0.001));
#406=CARTESIAN_POINT('',(0.,0.,0.));
#407=CARTESIAN_POINT('',(0.0097,-0.0166853228916914,-0.001));
#408=CARTESIAN_POINT('',(0.0097,-0.0166853228916914,0.));
#409=CARTESIAN_POINT('',(0.0104538860103627,-0.0179821096449316,0.));
#410=CARTESIAN_POINT('',(0.0104538860103627,-0.0179821096449316,-0.001));
#411=CARTESIAN_POINT('',(0.0104538860103627,-0.0179821096449316,-0.001));
#412=CARTESIAN_POINT('',(0.0097,-0.0166853228916914,-0.001));
#413=CARTESIAN_POINT('',(0.,0.,-0.001));
#414=CARTESIAN_POINT('',(0.,0.,0.));
#415=CARTESIAN_POINT('',(0.,0.,-0.001));
#416=CARTESIAN_POINT('',(-0.00485,-0.00834266144584568,-0.001));
#417=CARTESIAN_POINT('',(0.0057,-0.0178535710713571,-0.001));
#418=CARTESIAN_POINT('',(0.0057,-0.0178535710713571,-0.001));
#419=CARTESIAN_POINT('',(0.0065,-0.0178535710713571,-0.001));
#420=CARTESIAN_POINT('',(0.0073,-0.0178535710713571,-0.001));
#421=CARTESIAN_POINT('',(0.0073,-0.0178535710713571,-0.001));
#422=CARTESIAN_POINT('',(-0.0073,-0.0178535710713571,-0.001));
#423=CARTESIAN_POINT('',(-0.0073,-0.0178535710713571,-0.001));
#424=CARTESIAN_POINT('',(-0.0065,-0.0178535710713571,-0.001));
#425=CARTESIAN_POINT('',(-0.0057,-0.0178535710713571,-0.001));
#426=CARTESIAN_POINT('',(-0.0057,-0.0178535710713571,-0.001));
#427=CARTESIAN_POINT('',(-0.00485,-0.00834266144584568,0.));
#428=CARTESIAN_POINT('',(0.0057,-0.0178535710713571,0.));
#429=CARTESIAN_POINT('',(0.0057,-0.0178535710713571,0.));
#430=CARTESIAN_POINT('',(-0.0057,-0.0178535710713571,0.));
#431=CARTESIAN_POINT('',(-0.0057,-0.0178535710713571,0.));
#432=CARTESIAN_POINT('',(-0.0065,-0.0178535710713571,0.));
#433=CARTESIAN_POINT('',(-0.0073,-0.0178535710713571,0.));
#434=CARTESIAN_POINT('',(-0.0073,-0.0178535710713571,0.));
#435=CARTESIAN_POINT('',(0.0073,-0.0178535710713571,0.));
#436=CARTESIAN_POINT('',(0.0073,-0.0178535710713571,0.));
#437=CARTESIAN_POINT('',(0.0065,-0.0178535710713571,0.));
#438=CARTESIAN_POINT('',(-0.0057,-0.0178535710713571,-0.001));
#439=CARTESIAN_POINT('',(-0.0057,-0.0178535710713571,-0.001));
#440=CARTESIAN_POINT('',(-0.0065,-0.0178535710713571,-0.001));
#441=CARTESIAN_POINT('',(-0.0073,-0.0178535710713571,-0.001));
#442=CARTESIAN_POINT('',(-0.0073,-0.0178535710713571,-0.001));
#443=CARTESIAN_POINT('',(0.0065,-0.0178535710713571,-0.001));
#444=CARTESIAN_POINT('',(0.0073,-0.0178535710713571,-0.001));
#445=CARTESIAN_POINT('',(0.0057,-0.0178535710713571,-0.001));
#446=CARTESIAN_POINT('',(0.0057,-0.0178535710713571,-0.001));
#447=CARTESIAN_POINT('',(0.0073,-0.0178535710713571,-0.001));
#448=(
GEOMETRIC_REPRESENTATION_CONTEXT(3)
GLOBAL_UNCERTAINTY_ASSIGNED_CONTEXT((#449))
GLOBAL_UNIT_ASSIGNED_CONTEXT((#452,#451,#450))
REPRESENTATION_CONTEXT('id2','TOP_LEVEL_ASSEMBLY_PART')
);
#449=UNCERTAINTY_MEASURE_WITH_UNIT(LENGTH_MEASURE(1.E-8),#452,
'DISTANCE_ACCURACY_VALUE','Maximum Tolerance applied to model');
#450=(
NAMED_UNIT(*)
SI_UNIT($,.STERADIAN.)
SOLID_ANGLE_UNIT()
);
#451=(
NAMED_UNIT(*)
PLANE_ANGLE_UNIT()
SI_UNIT($,.RADIAN.)
);
#452=(
LENGTH_UNIT()
NAMED_UNIT(*)
SI_UNIT($,.METRE.)
);
#453=PRODUCT_DEFINITION_SHAPE('','',#454);
#454=PRODUCT_DEFINITION('','',#456,#455);
#455=PRODUCT_DEFINITION_CONTEXT('',#462,'design');
#456=PRODUCT_DEFINITION_FORMATION_WITH_SPECIFIED_SOURCE('','',#458,
 .NOT_KNOWN.);
#457=PRODUCT_RELATED_PRODUCT_CATEGORY('','',(#458));
#458=PRODUCT('id2','id2','id2',(#460));
#459=PRODUCT_CATEGORY('','');
#460=PRODUCT_CONTEXT('',#462,'mechanical');
#461=APPLICATION_PROTOCOL_DEFINITION('international standard',
'ap242_managed_model_based_3d_engineering',2020,#462);
#462=APPLICATION_CONTEXT('managed model based 3d engineering');
ENDSEC;
END-ISO-10303-21;
