ISO-10303-21;
HEADER;
/* Generated by software containing ST-Developer
 * from STEP Tools, Inc. (www.steptools.com) 
 */
/* OPTION: using custom renumber hook */

FILE_DESCRIPTION(
/* description */ ('STEP AP242 Edition 2',
'CAx-IF Rec.Pracs.---Representation and Presentation of Product Manufa
cturing Information (PMI)---4.0---2014-10-13',
'CAx-IF Rec.Pracs.---3D Tessellated Geometry---0.4---2014-09-14','2;1',
'CAx-IF Rec.Pracs.---User Defined Attributes---1.5---2016-08-15'),
/* implementation_level */ '2;1');

FILE_NAME(
/* name */ '10143',
/* time_stamp */ '2026-07-13T05:06:51Z',
/* author */ (''),
/* organization */ (''),
/* preprocessor_version */ 'ST-DEVELOPER v20',
/* originating_system */ 'ONSHAPE BY PTC INC, 1.217',
/* authorisation */ '  ');

FILE_SCHEMA (('AP242_MANAGED_MODEL_BASED_3D_ENGINEERING_MIM_LF { 1 0 10303 442 3 1 4 }'));
ENDSEC;

DATA;
#10=SHAPE_REPRESENTATION_RELATIONSHIP('','',#107,#11);
#11=ADVANCED_BREP_SHAPE_REPRESENTATION('',(#105),#168);
#12=ORIENTED_EDGE('',*,*,#36,.F.);
#13=ORIENTED_EDGE('',*,*,#37,.F.);
#14=ORIENTED_EDGE('',*,*,#38,.T.);
#15=ORIENTED_EDGE('',*,*,#39,.T.);
#16=ORIENTED_EDGE('',*,*,#40,.F.);
#17=ORIENTED_EDGE('',*,*,#41,.F.);
#18=ORIENTED_EDGE('',*,*,#42,.T.);
#19=ORIENTED_EDGE('',*,*,#37,.T.);
#20=ORIENTED_EDGE('',*,*,#43,.F.);
#21=ORIENTED_EDGE('',*,*,#44,.F.);
#22=ORIENTED_EDGE('',*,*,#45,.T.);
#23=ORIENTED_EDGE('',*,*,#41,.T.);
#24=ORIENTED_EDGE('',*,*,#46,.F.);
#25=ORIENTED_EDGE('',*,*,#39,.F.);
#26=ORIENTED_EDGE('',*,*,#47,.T.);
#27=ORIENTED_EDGE('',*,*,#44,.T.);
#28=ORIENTED_EDGE('',*,*,#38,.F.);
#29=ORIENTED_EDGE('',*,*,#42,.F.);
#30=ORIENTED_EDGE('',*,*,#45,.F.);
#31=ORIENTED_EDGE('',*,*,#47,.F.);
#32=ORIENTED_EDGE('',*,*,#36,.T.);
#33=ORIENTED_EDGE('',*,*,#46,.T.);
#34=ORIENTED_EDGE('',*,*,#43,.T.);
#35=ORIENTED_EDGE('',*,*,#40,.T.);
#36=EDGE_CURVE('',#48,#49,#56,.T.);
#37=EDGE_CURVE('',#50,#48,#57,.T.);
#38=EDGE_CURVE('',#50,#51,#58,.T.);
#39=EDGE_CURVE('',#51,#49,#59,.T.);
#40=EDGE_CURVE('',#52,#48,#60,.T.);
#41=EDGE_CURVE('',#53,#52,#61,.T.);
#42=EDGE_CURVE('',#53,#50,#62,.T.);
#43=EDGE_CURVE('',#54,#52,#63,.T.);
#44=EDGE_CURVE('',#55,#54,#64,.T.);
#45=EDGE_CURVE('',#55,#53,#65,.T.);
#46=EDGE_CURVE('',#49,#54,#66,.T.);
#47=EDGE_CURVE('',#51,#55,#67,.T.);
#48=VERTEX_POINT('',#144);
#49=VERTEX_POINT('',#145);
#50=VERTEX_POINT('',#147);
#51=VERTEX_POINT('',#149);
#52=VERTEX_POINT('',#153);
#53=VERTEX_POINT('',#155);
#54=VERTEX_POINT('',#159);
#55=VERTEX_POINT('',#161);
#56=LINE('',#143,#68);
#57=LINE('',#146,#69);
#58=LINE('',#148,#70);
#59=LINE('',#150,#71);
#60=LINE('',#152,#72);
#61=LINE('',#154,#73);
#62=LINE('',#156,#74);
#63=LINE('',#158,#75);
#64=LINE('',#160,#76);
#65=LINE('',#162,#77);
#66=LINE('',#164,#78);
#67=LINE('',#165,#79);
#68=VECTOR('',#119,1.);
#69=VECTOR('',#120,1.);
#70=VECTOR('',#121,1.);
#71=VECTOR('',#122,1.);
#72=VECTOR('',#125,1.);
#73=VECTOR('',#126,1.);
#74=VECTOR('',#127,1.);
#75=VECTOR('',#130,1.);
#76=VECTOR('',#131,1.);
#77=VECTOR('',#132,1.);
#78=VECTOR('',#135,1.);
#79=VECTOR('',#136,1.);
#80=EDGE_LOOP('',(#12,#13,#14,#15));
#81=EDGE_LOOP('',(#16,#17,#18,#19));
#82=EDGE_LOOP('',(#20,#21,#22,#23));
#83=EDGE_LOOP('',(#24,#25,#26,#27));
#84=EDGE_LOOP('',(#28,#29,#30,#31));
#85=EDGE_LOOP('',(#32,#33,#34,#35));
#86=FACE_BOUND('',#80,.T.);
#87=FACE_BOUND('',#81,.T.);
#88=FACE_BOUND('',#82,.T.);
#89=FACE_BOUND('',#83,.T.);
#90=FACE_BOUND('',#84,.T.);
#91=FACE_BOUND('',#85,.T.);
#92=PLANE('',#109);
#93=PLANE('',#110);
#94=PLANE('',#111);
#95=PLANE('',#112);
#96=PLANE('',#113);
#97=PLANE('',#114);
#98=ADVANCED_FACE('',(#86),#92,.T.);
#99=ADVANCED_FACE('',(#87),#93,.T.);
#100=ADVANCED_FACE('',(#88),#94,.T.);
#101=ADVANCED_FACE('',(#89),#95,.T.);
#102=ADVANCED_FACE('',(#90),#96,.T.);
#103=ADVANCED_FACE('',(#91),#97,.F.);
#104=CLOSED_SHELL('',(#98,#99,#100,#101,#102,#103));
#105=MANIFOLD_SOLID_BREP('',#104);
#106=SHAPE_DEFINITION_REPRESENTATION(#173,#107);
#107=SHAPE_REPRESENTATION('id2',(#108),#168);
#108=AXIS2_PLACEMENT_3D('',#141,#115,#116);
#109=AXIS2_PLACEMENT_3D('',#142,#117,#118);
#110=AXIS2_PLACEMENT_3D('',#151,#123,#124);
#111=AXIS2_PLACEMENT_3D('',#157,#128,#129);
#112=AXIS2_PLACEMENT_3D('',#163,#133,#134);
#113=AXIS2_PLACEMENT_3D('',#166,#137,#138);
#114=AXIS2_PLACEMENT_3D('',#167,#139,#140);
#115=DIRECTION('',(0.,0.,1.));
#116=DIRECTION('',(1.,0.,0.));
#117=DIRECTION('',(1.,0.,0.));
#118=DIRECTION('',(0.,0.,-1.));
#119=DIRECTION('',(0.,1.,0.));
#120=DIRECTION('',(0.,0.,1.));
#121=DIRECTION('',(0.,1.,0.));
#122=DIRECTION('',(0.,0.,1.));
#123=DIRECTION('',(0.,-1.,0.));
#124=DIRECTION('',(0.,0.,-1.));
#125=DIRECTION('',(1.,0.,0.));
#126=DIRECTION('',(0.,0.,1.));
#127=DIRECTION('',(1.,0.,0.));
#128=DIRECTION('',(-1.,0.,0.));
#129=DIRECTION('',(0.,0.,1.));
#130=DIRECTION('',(0.,-1.,0.));
#131=DIRECTION('',(0.,0.,1.));
#132=DIRECTION('',(0.,-1.,0.));
#133=DIRECTION('',(0.,1.,0.));
#134=DIRECTION('',(0.,0.,1.));
#135=DIRECTION('',(-1.,0.,0.));
#136=DIRECTION('',(-1.,0.,0.));
#137=DIRECTION('',(0.,0.,-1.));
#138=DIRECTION('',(-1.,0.,0.));
#139=DIRECTION('',(0.,0.,-1.));
#140=DIRECTION('',(-1.,0.,0.));
#141=CARTESIAN_POINT('',(0.,0.,0.));
#142=CARTESIAN_POINT('',(0.00115,-0.01175,-0.0005));
#143=CARTESIAN_POINT('',(0.00115,-0.01175,0.));
#144=CARTESIAN_POINT('',(0.00115,-0.01175,0.));
#145=CARTESIAN_POINT('',(0.00115,0.01175,0.));
#146=CARTESIAN_POINT('',(0.00115,-0.01175,-0.0005));
#147=CARTESIAN_POINT('',(0.00115,-0.01175,-0.0005));
#148=CARTESIAN_POINT('',(0.00115,-0.01175,-0.0005));
#149=CARTESIAN_POINT('',(0.00115,0.01175,-0.0005));
#150=CARTESIAN_POINT('',(0.00115,0.01175,-0.0005));
#151=CARTESIAN_POINT('',(-0.00115,-0.01175,-0.0005));
#152=CARTESIAN_POINT('',(-0.00115,-0.01175,0.));
#153=CARTESIAN_POINT('',(-0.00115,-0.01175,0.));
#154=CARTESIAN_POINT('',(-0.00115,-0.01175,-0.0005));
#155=CARTESIAN_POINT('',(-0.00115,-0.01175,-0.0005));
#156=CARTESIAN_POINT('',(-0.00115,-0.01175,-0.0005));
#157=CARTESIAN_POINT('',(-0.00115,-0.01175,-0.0005));
#158=CARTESIAN_POINT('',(-0.00115,-0.01175,0.));
#159=CARTESIAN_POINT('',(-0.00115,0.01175,0.));
#160=CARTESIAN_POINT('',(-0.00115,0.01175,-0.0005));
#161=CARTESIAN_POINT('',(-0.00115,0.01175,-0.0005));
#162=CARTESIAN_POINT('',(-0.00115,-0.01175,-0.0005));
#163=CARTESIAN_POINT('',(-0.00115,0.01175,-0.0005));
#164=CARTESIAN_POINT('',(-0.00115,0.01175,0.));
#165=CARTESIAN_POINT('',(-0.00115,0.01175,-0.0005));
#166=CARTESIAN_POINT('',(0.,0.,-0.0005));
#167=CARTESIAN_POINT('',(0.,0.,0.));
#168=(
GEOMETRIC_REPRESENTATION_CONTEXT(3)
GLOBAL_UNCERTAINTY_ASSIGNED_CONTEXT((#169))
GLOBAL_UNIT_ASSIGNED_CONTEXT((#172,#171,#170))
REPRESENTATION_CONTEXT('id2','TOP_LEVEL_ASSEMBLY_PART')
);
#169=UNCERTAINTY_MEASURE_WITH_UNIT(LENGTH_MEASURE(1.E-8),#172,
'DISTANCE_ACCURACY_VALUE','Maximum Tolerance applied to model');
#170=(
NAMED_UNIT(*)
SI_UNIT($,.STERADIAN.)
SOLID_ANGLE_UNIT()
);
#171=(
NAMED_UNIT(*)
PLANE_ANGLE_UNIT()
SI_UNIT($,.RADIAN.)
);
#172=(
LENGTH_UNIT()
NAMED_UNIT(*)
SI_UNIT($,.METRE.)
);
#173=PRODUCT_DEFINITION_SHAPE('','',#174);
#174=PRODUCT_DEFINITION('','',#176,#175);
#175=PRODUCT_DEFINITION_CONTEXT('',#182,'design');
#176=PRODUCT_DEFINITION_FORMATION_WITH_SPECIFIED_SOURCE('','',#178,
 .NOT_KNOWN.);
#177=PRODUCT_RELATED_PRODUCT_CATEGORY('','',(#178));
#178=PRODUCT('id2','id2','id2',(#180));
#179=PRODUCT_CATEGORY('','');
#180=PRODUCT_CONTEXT('',#182,'mechanical');
#181=APPLICATION_PROTOCOL_DEFINITION('international standard',
'ap242_managed_model_based_3d_engineering',2020,#182);
#182=APPLICATION_CONTEXT('managed model based 3d engineering');
ENDSEC;
END-ISO-10303-21;
