ISO-10303-21;
HEADER;
/* Generated by software containing ST-Developer
 * from STEP Tools, Inc. (www.steptools.com) 
 */
/* OPTION: using custom renumber hook */

FILE_DESCRIPTION(
/* description */ ('STEP AP242 Edition 2',
'CAx-IF Rec.Pracs.---Representation and Presentation of Product Manufa
cturing Information (PMI)---4.0---2014-10-13',
'CAx-IF Rec.Pracs.---3D Tessellated Geometry---0.4---2014-09-14','2;1',
'CAx-IF Rec.Pracs.---User Defined Attributes---1.5---2016-08-15'),
/* implementation_level */ '2;1');

FILE_NAME(
/* name */ '10148',
/* time_stamp */ '2026-07-13T05:07:05Z',
/* author */ (''),
/* organization */ (''),
/* preprocessor_version */ 'ST-DEVELOPER v20',
/* originating_system */ 'ONSHAPE BY PTC INC, 1.217',
/* authorisation */ '  ');

FILE_SCHEMA (('AP242_MANAGED_MODEL_BASED_3D_ENGINEERING_MIM_LF { 1 0 10303 442 3 1 4 }'));
ENDSEC;

DATA;
#10=SHAPE_REPRESENTATION_RELATIONSHIP('','',#67,#11);
#11=ADVANCED_BREP_SHAPE_REPRESENTATION('',(#65),#114);
#12=VERTEX_LOOP('',#33);
#13=VERTEX_LOOP('',#35);
#14=SPHERICAL_SURFACE('',#74,0.001);
#15=SPHERICAL_SURFACE('',#77,0.001);
#16=CONICAL_SURFACE('',#72,0.0005,0.209439510239313);
#17=CONICAL_SURFACE('',#75,0.000412664059976236,0.209439510239313);
#18=ORIENTED_EDGE('',*,*,#26,.T.);
#19=ORIENTED_EDGE('',*,*,#27,.F.);
#20=ORIENTED_EDGE('',*,*,#28,.T.);
#21=ORIENTED_EDGE('',*,*,#26,.F.);
#22=ORIENTED_EDGE('',*,*,#28,.F.);
#23=ORIENTED_EDGE('',*,*,#27,.T.);
#24=ORIENTED_EDGE('',*,*,#29,.F.);
#25=ORIENTED_EDGE('',*,*,#29,.T.);
#26=EDGE_CURVE('',#30,#30,#36,.T.);
#27=EDGE_CURVE('',#31,#31,#37,.T.);
#28=EDGE_CURVE('',#32,#32,#38,.T.);
#29=EDGE_CURVE('',#34,#34,#39,.T.);
#30=VERTEX_POINT('',#101);
#31=VERTEX_POINT('',#103);
#32=VERTEX_POINT('',#106);
#33=VERTEX_POINT('',#108);
#34=VERTEX_POINT('',#111);
#35=VERTEX_POINT('',#113);
#36=CIRCLE('',#70,0.0005);
#37=CIRCLE('',#71,0.0005);
#38=CIRCLE('',#73,0.000412664059976236);
#39=CIRCLE('',#76,0.000412664059976236);
#40=EDGE_LOOP('',(#18));
#41=EDGE_LOOP('',(#19));
#42=EDGE_LOOP('',(#20));
#43=EDGE_LOOP('',(#21));
#44=EDGE_LOOP('',(#22));
#45=EDGE_LOOP('',(#23));
#46=EDGE_LOOP('',(#24));
#47=EDGE_LOOP('',(#25));
#48=FACE_BOUND('',#40,.T.);
#49=FACE_BOUND('',#41,.T.);
#50=FACE_BOUND('',#42,.T.);
#51=FACE_BOUND('',#43,.T.);
#52=FACE_BOUND('',#12,.T.);
#53=FACE_BOUND('',#44,.T.);
#54=FACE_BOUND('',#45,.T.);
#55=FACE_BOUND('',#46,.T.);
#56=FACE_BOUND('',#13,.T.);
#57=FACE_BOUND('',#47,.T.);
#58=CYLINDRICAL_SURFACE('',#69,0.0005);
#59=ADVANCED_FACE('',(#48,#49),#58,.T.);
#60=ADVANCED_FACE('',(#50,#51),#16,.T.);
#61=ADVANCED_FACE('',(#52,#53),#14,.T.);
#62=ADVANCED_FACE('',(#54,#55),#17,.T.);
#63=ADVANCED_FACE('',(#56,#57),#15,.T.);
#64=CLOSED_SHELL('',(#59,#60,#61,#62,#63));
#65=MANIFOLD_SOLID_BREP('',#64);
#66=SHAPE_DEFINITION_REPRESENTATION(#119,#67);
#67=SHAPE_REPRESENTATION('id2',(#68),#114);
#68=AXIS2_PLACEMENT_3D('',#98,#78,#79);
#69=AXIS2_PLACEMENT_3D('',#99,#80,#81);
#70=AXIS2_PLACEMENT_3D('',#100,#82,#83);
#71=AXIS2_PLACEMENT_3D('',#102,#84,#85);
#72=AXIS2_PLACEMENT_3D('',#104,#86,#87);
#73=AXIS2_PLACEMENT_3D('',#105,#88,#89);
#74=AXIS2_PLACEMENT_3D('',#107,#90,#91);
#75=AXIS2_PLACEMENT_3D('',#109,#92,#93);
#76=AXIS2_PLACEMENT_3D('',#110,#94,#95);
#77=AXIS2_PLACEMENT_3D('',#112,#96,#97);
#78=DIRECTION('',(0.,0.,1.));
#79=DIRECTION('',(1.,0.,0.));
#80=DIRECTION('',(0.,-1.,0.));
#81=DIRECTION('',(0.,0.,-1.));
#82=DIRECTION('',(-3.25260651745656E-19,-1.,0.));
#83=DIRECTION('',(1.,-3.25260651745656E-19,0.));
#84=DIRECTION('',(-3.25260651745656E-19,-1.,0.));
#85=DIRECTION('',(1.,-3.25260651745656E-19,0.));
#86=DIRECTION('',(-3.25260651745656E-19,-1.,0.));
#87=DIRECTION('',(1.,-3.25260651745656E-19,0.));
#88=DIRECTION('',(-3.25260651745656E-19,-1.,0.));
#89=DIRECTION('',(1.,-3.25260651745656E-19,0.));
#90=DIRECTION('',(-3.25260651745659E-19,-1.,0.));
#91=DIRECTION('',(1.,-3.25260651745659E-19,0.));
#92=DIRECTION('',(3.25260651745656E-19,1.,0.));
#93=DIRECTION('',(-1.,3.25260651745656E-19,0.));
#94=DIRECTION('',(-3.25260651745656E-19,-1.,0.));
#95=DIRECTION('',(1.,-3.25260651745656E-19,0.));
#96=DIRECTION('',(-3.25260651745659E-19,-1.,0.));
#97=DIRECTION('',(1.,-3.25260651745659E-19,0.));
#98=CARTESIAN_POINT('',(0.,0.,0.));
#99=CARTESIAN_POINT('',(0.,0.01,0.));
#100=CARTESIAN_POINT('',(3.08997619158374E-21,0.0095,0.));
#101=CARTESIAN_POINT('',(0.0005,0.0095,0.));
#102=CARTESIAN_POINT('',(1.62630325872828E-22,0.0005,0.));
#103=CARTESIAN_POINT('',(0.0005,0.0005,0.));
#104=CARTESIAN_POINT('',(3.08997619158374E-21,0.0095,0.));
#105=CARTESIAN_POINT('',(3.22362035928085E-21,0.00991088329307542,0.));
#106=CARTESIAN_POINT('',(0.000412664059976236,0.00991088329307542,0.));
#107=CARTESIAN_POINT('',(-7.18212232778757E-21,0.009,0.));
#108=CARTESIAN_POINT('',(-7.18212232778757E-21,0.01,0.));
#109=CARTESIAN_POINT('',(2.89861581757144E-23,8.91167069245764E-5,0.));
#110=CARTESIAN_POINT('',(2.89861581757144E-23,8.91167069245764E-5,0.));
#111=CARTESIAN_POINT('',(0.000412664059976236,8.91167069245764E-5,0.));
#112=CARTESIAN_POINT('',(-5.90287849464329E-21,0.001,0.));
#113=CARTESIAN_POINT('',(-5.90287849464329E-21,0.,0.));
#114=(
GEOMETRIC_REPRESENTATION_CONTEXT(3)
GLOBAL_UNCERTAINTY_ASSIGNED_CONTEXT((#115))
GLOBAL_UNIT_ASSIGNED_CONTEXT((#118,#117,#116))
REPRESENTATION_CONTEXT('id2','TOP_LEVEL_ASSEMBLY_PART')
);
#115=UNCERTAINTY_MEASURE_WITH_UNIT(LENGTH_MEASURE(1.E-8),#118,
'DISTANCE_ACCURACY_VALUE','Maximum Tolerance applied to model');
#116=(
NAMED_UNIT(*)
SI_UNIT($,.STERADIAN.)
SOLID_ANGLE_UNIT()
);
#117=(
NAMED_UNIT(*)
PLANE_ANGLE_UNIT()
SI_UNIT($,.RADIAN.)
);
#118=(
LENGTH_UNIT()
NAMED_UNIT(*)
SI_UNIT($,.METRE.)
);
#119=PRODUCT_DEFINITION_SHAPE('','',#120);
#120=PRODUCT_DEFINITION('','',#122,#121);
#121=PRODUCT_DEFINITION_CONTEXT('',#128,'design');
#122=PRODUCT_DEFINITION_FORMATION_WITH_SPECIFIED_SOURCE('','',#124,
 .NOT_KNOWN.);
#123=PRODUCT_RELATED_PRODUCT_CATEGORY('','',(#124));
#124=PRODUCT('id2','id2','id2',(#126));
#125=PRODUCT_CATEGORY('','');
#126=PRODUCT_CONTEXT('',#128,'mechanical');
#127=APPLICATION_PROTOCOL_DEFINITION('international standard',
'ap242_managed_model_based_3d_engineering',2020,#128);
#128=APPLICATION_CONTEXT('managed model based 3d engineering');
ENDSEC;
END-ISO-10303-21;
