ISO-10303-21;
HEADER;
/* Generated by software containing ST-Developer
 * from STEP Tools, Inc. (www.steptools.com) 
 */
/* OPTION: using custom renumber hook */

FILE_DESCRIPTION(
/* description */ ('STEP AP242 Edition 2',
'CAx-IF Rec.Pracs.---Representation and Presentation of Product Manufa
cturing Information (PMI)---4.0---2014-10-13',
'CAx-IF Rec.Pracs.---3D Tessellated Geometry---0.4---2014-09-14','2;1',
'CAx-IF Rec.Pracs.---User Defined Attributes---1.5---2016-08-15'),
/* implementation_level */ '2;1');

FILE_NAME(
/* name */ '10156',
/* time_stamp */ '2026-07-13T05:08:41Z',
/* author */ (''),
/* organization */ (''),
/* preprocessor_version */ 'ST-DEVELOPER v20',
/* originating_system */ 'ONSHAPE BY PTC INC, 1.217',
/* authorisation */ '  ');

FILE_SCHEMA (('AP242_MANAGED_MODEL_BASED_3D_ENGINEERING_MIM_LF { 1 0 10303 442 3 1 4 }'));
ENDSEC;

DATA;
#10=SHAPE_REPRESENTATION_RELATIONSHIP('','',#1186,#11);
#11=ADVANCED_BREP_SHAPE_REPRESENTATION('',(#1184),#1876);
#12=CYLINDRICAL_SURFACE('',#1250,0.0015);
#13=CYLINDRICAL_SURFACE('',#1251,0.0015);
#14=CYLINDRICAL_SURFACE('',#1252,0.0015);
#15=CYLINDRICAL_SURFACE('',#1253,0.0015);
#16=CYLINDRICAL_SURFACE('',#1254,0.0015);
#17=CYLINDRICAL_SURFACE('',#1255,0.0015);
#18=ELLIPSE('',#1197,0.0015,0.001);
#19=B_SPLINE_CURVE_WITH_KNOTS('',3,(#1606,#1607,#1608,#1609,#1610,#1611,
#1612,#1613,#1614,#1615,#1616),.UNSPECIFIED.,.T.,.F.,(1,1,1,1,1,1,1,1,1,
1,1,1,1,1,1),(-2.35619449019234,-1.5707963267949,-0.785398163397448,0.,
0.785398163397448,1.5707963267949,2.35619449019234,3.14159265358979,3.92699081698724,
4.71238898038469,5.49778714378214,6.28318530717959,7.06858347057703,7.85398163397448,
8.63937979737193),.UNIFORM_KNOTS.);
#20=CIRCLE('',#1192,0.0005);
#21=CIRCLE('',#1194,0.0007);
#22=CIRCLE('',#1200,0.0014);
#23=CIRCLE('',#1201,0.0014);
#24=CIRCLE('',#1203,0.002);
#25=CIRCLE('',#1204,0.002);
#26=CIRCLE('',#1207,0.0009);
#27=CIRCLE('',#1209,0.0015);
#28=CIRCLE('',#1211,0.002);
#29=CIRCLE('',#1212,0.002);
#30=CIRCLE('',#1213,0.0014);
#31=CIRCLE('',#1214,0.0014);
#32=CIRCLE('',#1216,0.002);
#33=CIRCLE('',#1217,0.002);
#34=CIRCLE('',#1218,0.0014);
#35=CIRCLE('',#1219,0.0014);
#36=CIRCLE('',#1220,0.0014);
#37=CIRCLE('',#1221,0.002);
#38=CIRCLE('',#1223,0.0012);
#39=CIRCLE('',#1224,0.0012);
#40=CIRCLE('',#1226,0.001);
#41=CIRCLE('',#1227,0.001);
#42=CIRCLE('',#1228,0.001);
#43=CIRCLE('',#1229,0.001);
#44=CIRCLE('',#1235,0.0015);
#45=CIRCLE('',#1236,0.0015);
#46=CIRCLE('',#1237,0.0015);
#47=CIRCLE('',#1238,0.0015);
#48=CIRCLE('',#1239,0.0015);
#49=CIRCLE('',#1240,0.0015);
#50=CIRCLE('',#1242,0.0015);
#51=CIRCLE('',#1243,0.0015);
#52=CIRCLE('',#1244,0.0015);
#53=CIRCLE('',#1245,0.0015);
#54=CIRCLE('',#1246,0.0015);
#55=CIRCLE('',#1247,0.0015);
#56=ORIENTED_EDGE('',*,*,#382,.T.);
#57=ORIENTED_EDGE('',*,*,#383,.T.);
#58=ORIENTED_EDGE('',*,*,#384,.T.);
#59=ORIENTED_EDGE('',*,*,#385,.T.);
#60=ORIENTED_EDGE('',*,*,#386,.T.);
#61=ORIENTED_EDGE('',*,*,#387,.T.);
#62=ORIENTED_EDGE('',*,*,#388,.T.);
#63=ORIENTED_EDGE('',*,*,#389,.T.);
#64=ORIENTED_EDGE('',*,*,#390,.T.);
#65=ORIENTED_EDGE('',*,*,#391,.T.);
#66=ORIENTED_EDGE('',*,*,#392,.T.);
#67=ORIENTED_EDGE('',*,*,#393,.T.);
#68=ORIENTED_EDGE('',*,*,#394,.T.);
#69=ORIENTED_EDGE('',*,*,#395,.T.);
#70=ORIENTED_EDGE('',*,*,#396,.T.);
#71=ORIENTED_EDGE('',*,*,#397,.T.);
#72=ORIENTED_EDGE('',*,*,#398,.T.);
#73=ORIENTED_EDGE('',*,*,#399,.T.);
#74=ORIENTED_EDGE('',*,*,#400,.T.);
#75=ORIENTED_EDGE('',*,*,#401,.T.);
#76=ORIENTED_EDGE('',*,*,#402,.T.);
#77=ORIENTED_EDGE('',*,*,#403,.T.);
#78=ORIENTED_EDGE('',*,*,#404,.T.);
#79=ORIENTED_EDGE('',*,*,#405,.T.);
#80=ORIENTED_EDGE('',*,*,#406,.T.);
#81=ORIENTED_EDGE('',*,*,#407,.T.);
#82=ORIENTED_EDGE('',*,*,#408,.T.);
#83=ORIENTED_EDGE('',*,*,#409,.T.);
#84=ORIENTED_EDGE('',*,*,#410,.T.);
#85=ORIENTED_EDGE('',*,*,#411,.T.);
#86=ORIENTED_EDGE('',*,*,#412,.T.);
#87=ORIENTED_EDGE('',*,*,#413,.T.);
#88=ORIENTED_EDGE('',*,*,#414,.T.);
#89=ORIENTED_EDGE('',*,*,#415,.T.);
#90=ORIENTED_EDGE('',*,*,#413,.F.);
#91=ORIENTED_EDGE('',*,*,#412,.F.);
#92=ORIENTED_EDGE('',*,*,#415,.F.);
#93=ORIENTED_EDGE('',*,*,#414,.F.);
#94=ORIENTED_EDGE('',*,*,#416,.T.);
#95=ORIENTED_EDGE('',*,*,#417,.T.);
#96=ORIENTED_EDGE('',*,*,#418,.T.);
#97=ORIENTED_EDGE('',*,*,#419,.T.);
#98=ORIENTED_EDGE('',*,*,#420,.T.);
#99=ORIENTED_EDGE('',*,*,#421,.T.);
#100=ORIENTED_EDGE('',*,*,#422,.T.);
#101=ORIENTED_EDGE('',*,*,#422,.F.);
#102=ORIENTED_EDGE('',*,*,#423,.T.);
#103=ORIENTED_EDGE('',*,*,#424,.T.);
#104=ORIENTED_EDGE('',*,*,#425,.T.);
#105=ORIENTED_EDGE('',*,*,#426,.T.);
#106=ORIENTED_EDGE('',*,*,#427,.T.);
#107=ORIENTED_EDGE('',*,*,#428,.T.);
#108=ORIENTED_EDGE('',*,*,#429,.T.);
#109=ORIENTED_EDGE('',*,*,#430,.T.);
#110=ORIENTED_EDGE('',*,*,#431,.T.);
#111=ORIENTED_EDGE('',*,*,#432,.T.);
#112=ORIENTED_EDGE('',*,*,#433,.T.);
#113=ORIENTED_EDGE('',*,*,#434,.T.);
#114=ORIENTED_EDGE('',*,*,#435,.T.);
#115=ORIENTED_EDGE('',*,*,#436,.T.);
#116=ORIENTED_EDGE('',*,*,#437,.T.);
#117=ORIENTED_EDGE('',*,*,#438,.T.);
#118=ORIENTED_EDGE('',*,*,#439,.T.);
#119=ORIENTED_EDGE('',*,*,#435,.F.);
#120=ORIENTED_EDGE('',*,*,#434,.F.);
#121=ORIENTED_EDGE('',*,*,#439,.F.);
#122=ORIENTED_EDGE('',*,*,#438,.F.);
#123=ORIENTED_EDGE('',*,*,#437,.F.);
#124=ORIENTED_EDGE('',*,*,#436,.F.);
#125=ORIENTED_EDGE('',*,*,#440,.T.);
#126=ORIENTED_EDGE('',*,*,#441,.T.);
#127=ORIENTED_EDGE('',*,*,#442,.T.);
#128=ORIENTED_EDGE('',*,*,#443,.T.);
#129=ORIENTED_EDGE('',*,*,#444,.T.);
#130=ORIENTED_EDGE('',*,*,#445,.T.);
#131=ORIENTED_EDGE('',*,*,#446,.T.);
#132=ORIENTED_EDGE('',*,*,#447,.T.);
#133=ORIENTED_EDGE('',*,*,#448,.T.);
#134=ORIENTED_EDGE('',*,*,#449,.T.);
#135=ORIENTED_EDGE('',*,*,#450,.T.);
#136=ORIENTED_EDGE('',*,*,#451,.T.);
#137=ORIENTED_EDGE('',*,*,#452,.T.);
#138=ORIENTED_EDGE('',*,*,#453,.T.);
#139=ORIENTED_EDGE('',*,*,#454,.T.);
#140=ORIENTED_EDGE('',*,*,#455,.T.);
#141=ORIENTED_EDGE('',*,*,#456,.T.);
#142=ORIENTED_EDGE('',*,*,#457,.T.);
#143=ORIENTED_EDGE('',*,*,#458,.T.);
#144=ORIENTED_EDGE('',*,*,#459,.T.);
#145=ORIENTED_EDGE('',*,*,#460,.T.);
#146=ORIENTED_EDGE('',*,*,#461,.T.);
#147=ORIENTED_EDGE('',*,*,#459,.F.);
#148=ORIENTED_EDGE('',*,*,#458,.F.);
#149=ORIENTED_EDGE('',*,*,#461,.F.);
#150=ORIENTED_EDGE('',*,*,#460,.F.);
#151=ORIENTED_EDGE('',*,*,#462,.T.);
#152=ORIENTED_EDGE('',*,*,#463,.T.);
#153=ORIENTED_EDGE('',*,*,#464,.T.);
#154=ORIENTED_EDGE('',*,*,#465,.T.);
#155=ORIENTED_EDGE('',*,*,#466,.T.);
#156=ORIENTED_EDGE('',*,*,#467,.T.);
#157=ORIENTED_EDGE('',*,*,#468,.T.);
#158=ORIENTED_EDGE('',*,*,#469,.T.);
#159=ORIENTED_EDGE('',*,*,#470,.T.);
#160=ORIENTED_EDGE('',*,*,#471,.T.);
#161=ORIENTED_EDGE('',*,*,#472,.T.);
#162=ORIENTED_EDGE('',*,*,#473,.T.);
#163=ORIENTED_EDGE('',*,*,#474,.T.);
#164=ORIENTED_EDGE('',*,*,#475,.T.);
#165=ORIENTED_EDGE('',*,*,#476,.T.);
#166=ORIENTED_EDGE('',*,*,#477,.T.);
#167=ORIENTED_EDGE('',*,*,#478,.T.);
#168=ORIENTED_EDGE('',*,*,#479,.T.);
#169=ORIENTED_EDGE('',*,*,#480,.T.);
#170=ORIENTED_EDGE('',*,*,#481,.T.);
#171=ORIENTED_EDGE('',*,*,#482,.T.);
#172=ORIENTED_EDGE('',*,*,#483,.T.);
#173=ORIENTED_EDGE('',*,*,#484,.T.);
#174=ORIENTED_EDGE('',*,*,#485,.T.);
#175=ORIENTED_EDGE('',*,*,#486,.T.);
#176=ORIENTED_EDGE('',*,*,#487,.T.);
#177=ORIENTED_EDGE('',*,*,#488,.T.);
#178=ORIENTED_EDGE('',*,*,#489,.T.);
#179=ORIENTED_EDGE('',*,*,#490,.T.);
#180=ORIENTED_EDGE('',*,*,#491,.T.);
#181=ORIENTED_EDGE('',*,*,#492,.T.);
#182=ORIENTED_EDGE('',*,*,#493,.T.);
#183=ORIENTED_EDGE('',*,*,#494,.T.);
#184=ORIENTED_EDGE('',*,*,#383,.F.);
#185=ORIENTED_EDGE('',*,*,#382,.F.);
#186=ORIENTED_EDGE('',*,*,#390,.F.);
#187=ORIENTED_EDGE('',*,*,#389,.F.);
#188=ORIENTED_EDGE('',*,*,#388,.F.);
#189=ORIENTED_EDGE('',*,*,#387,.F.);
#190=ORIENTED_EDGE('',*,*,#386,.F.);
#191=ORIENTED_EDGE('',*,*,#385,.F.);
#192=ORIENTED_EDGE('',*,*,#384,.F.);
#193=ORIENTED_EDGE('',*,*,#392,.F.);
#194=ORIENTED_EDGE('',*,*,#391,.F.);
#195=ORIENTED_EDGE('',*,*,#399,.F.);
#196=ORIENTED_EDGE('',*,*,#398,.F.);
#197=ORIENTED_EDGE('',*,*,#397,.F.);
#198=ORIENTED_EDGE('',*,*,#396,.F.);
#199=ORIENTED_EDGE('',*,*,#395,.F.);
#200=ORIENTED_EDGE('',*,*,#394,.F.);
#201=ORIENTED_EDGE('',*,*,#393,.F.);
#202=ORIENTED_EDGE('',*,*,#401,.F.);
#203=ORIENTED_EDGE('',*,*,#400,.F.);
#204=ORIENTED_EDGE('',*,*,#411,.F.);
#205=ORIENTED_EDGE('',*,*,#410,.F.);
#206=ORIENTED_EDGE('',*,*,#409,.F.);
#207=ORIENTED_EDGE('',*,*,#408,.F.);
#208=ORIENTED_EDGE('',*,*,#407,.F.);
#209=ORIENTED_EDGE('',*,*,#406,.F.);
#210=ORIENTED_EDGE('',*,*,#405,.F.);
#211=ORIENTED_EDGE('',*,*,#404,.F.);
#212=ORIENTED_EDGE('',*,*,#403,.F.);
#213=ORIENTED_EDGE('',*,*,#402,.F.);
#214=ORIENTED_EDGE('',*,*,#417,.F.);
#215=ORIENTED_EDGE('',*,*,#416,.F.);
#216=ORIENTED_EDGE('',*,*,#421,.F.);
#217=ORIENTED_EDGE('',*,*,#420,.F.);
#218=ORIENTED_EDGE('',*,*,#419,.F.);
#219=ORIENTED_EDGE('',*,*,#418,.F.);
#220=ORIENTED_EDGE('',*,*,#423,.F.);
#221=ORIENTED_EDGE('',*,*,#425,.F.);
#222=ORIENTED_EDGE('',*,*,#424,.F.);
#223=ORIENTED_EDGE('',*,*,#433,.F.);
#224=ORIENTED_EDGE('',*,*,#432,.F.);
#225=ORIENTED_EDGE('',*,*,#431,.F.);
#226=ORIENTED_EDGE('',*,*,#430,.F.);
#227=ORIENTED_EDGE('',*,*,#429,.F.);
#228=ORIENTED_EDGE('',*,*,#428,.F.);
#229=ORIENTED_EDGE('',*,*,#427,.F.);
#230=ORIENTED_EDGE('',*,*,#426,.F.);
#231=ORIENTED_EDGE('',*,*,#495,.T.);
#232=ORIENTED_EDGE('',*,*,#496,.T.);
#233=ORIENTED_EDGE('',*,*,#497,.T.);
#234=ORIENTED_EDGE('',*,*,#498,.T.);
#235=ORIENTED_EDGE('',*,*,#499,.T.);
#236=ORIENTED_EDGE('',*,*,#500,.T.);
#237=ORIENTED_EDGE('',*,*,#441,.F.);
#238=ORIENTED_EDGE('',*,*,#440,.F.);
#239=ORIENTED_EDGE('',*,*,#449,.F.);
#240=ORIENTED_EDGE('',*,*,#448,.F.);
#241=ORIENTED_EDGE('',*,*,#447,.F.);
#242=ORIENTED_EDGE('',*,*,#446,.F.);
#243=ORIENTED_EDGE('',*,*,#445,.F.);
#244=ORIENTED_EDGE('',*,*,#444,.F.);
#245=ORIENTED_EDGE('',*,*,#443,.F.);
#246=ORIENTED_EDGE('',*,*,#442,.F.);
#247=ORIENTED_EDGE('',*,*,#451,.F.);
#248=ORIENTED_EDGE('',*,*,#450,.F.);
#249=ORIENTED_EDGE('',*,*,#457,.F.);
#250=ORIENTED_EDGE('',*,*,#456,.F.);
#251=ORIENTED_EDGE('',*,*,#455,.F.);
#252=ORIENTED_EDGE('',*,*,#454,.F.);
#253=ORIENTED_EDGE('',*,*,#453,.F.);
#254=ORIENTED_EDGE('',*,*,#452,.F.);
#255=ORIENTED_EDGE('',*,*,#463,.F.);
#256=ORIENTED_EDGE('',*,*,#462,.F.);
#257=ORIENTED_EDGE('',*,*,#470,.F.);
#258=ORIENTED_EDGE('',*,*,#469,.F.);
#259=ORIENTED_EDGE('',*,*,#468,.F.);
#260=ORIENTED_EDGE('',*,*,#467,.F.);
#261=ORIENTED_EDGE('',*,*,#466,.F.);
#262=ORIENTED_EDGE('',*,*,#465,.F.);
#263=ORIENTED_EDGE('',*,*,#464,.F.);
#264=ORIENTED_EDGE('',*,*,#472,.F.);
#265=ORIENTED_EDGE('',*,*,#471,.F.);
#266=ORIENTED_EDGE('',*,*,#482,.F.);
#267=ORIENTED_EDGE('',*,*,#481,.F.);
#268=ORIENTED_EDGE('',*,*,#480,.F.);
#269=ORIENTED_EDGE('',*,*,#479,.F.);
#270=ORIENTED_EDGE('',*,*,#478,.F.);
#271=ORIENTED_EDGE('',*,*,#477,.F.);
#272=ORIENTED_EDGE('',*,*,#476,.F.);
#273=ORIENTED_EDGE('',*,*,#475,.F.);
#274=ORIENTED_EDGE('',*,*,#474,.F.);
#275=ORIENTED_EDGE('',*,*,#473,.F.);
#276=ORIENTED_EDGE('',*,*,#484,.F.);
#277=ORIENTED_EDGE('',*,*,#483,.F.);
#278=ORIENTED_EDGE('',*,*,#494,.F.);
#279=ORIENTED_EDGE('',*,*,#493,.F.);
#280=ORIENTED_EDGE('',*,*,#492,.F.);
#281=ORIENTED_EDGE('',*,*,#491,.F.);
#282=ORIENTED_EDGE('',*,*,#490,.F.);
#283=ORIENTED_EDGE('',*,*,#489,.F.);
#284=ORIENTED_EDGE('',*,*,#488,.F.);
#285=ORIENTED_EDGE('',*,*,#487,.F.);
#286=ORIENTED_EDGE('',*,*,#486,.F.);
#287=ORIENTED_EDGE('',*,*,#485,.F.);
#288=ORIENTED_EDGE('',*,*,#501,.T.);
#289=ORIENTED_EDGE('',*,*,#502,.T.);
#290=ORIENTED_EDGE('',*,*,#503,.T.);
#291=ORIENTED_EDGE('',*,*,#504,.T.);
#292=ORIENTED_EDGE('',*,*,#505,.T.);
#293=ORIENTED_EDGE('',*,*,#506,.T.);
#294=ORIENTED_EDGE('',*,*,#507,.T.);
#295=ORIENTED_EDGE('',*,*,#508,.T.);
#296=ORIENTED_EDGE('',*,*,#509,.T.);
#297=ORIENTED_EDGE('',*,*,#510,.T.);
#298=ORIENTED_EDGE('',*,*,#511,.F.);
#299=ORIENTED_EDGE('',*,*,#512,.T.);
#300=ORIENTED_EDGE('',*,*,#513,.T.);
#301=ORIENTED_EDGE('',*,*,#514,.T.);
#302=ORIENTED_EDGE('',*,*,#515,.F.);
#303=ORIENTED_EDGE('',*,*,#516,.T.);
#304=ORIENTED_EDGE('',*,*,#517,.F.);
#305=ORIENTED_EDGE('',*,*,#518,.T.);
#306=ORIENTED_EDGE('',*,*,#519,.T.);
#307=ORIENTED_EDGE('',*,*,#520,.T.);
#308=ORIENTED_EDGE('',*,*,#521,.F.);
#309=ORIENTED_EDGE('',*,*,#522,.T.);
#310=ORIENTED_EDGE('',*,*,#523,.T.);
#311=ORIENTED_EDGE('',*,*,#524,.T.);
#312=ORIENTED_EDGE('',*,*,#523,.F.);
#313=ORIENTED_EDGE('',*,*,#525,.T.);
#314=ORIENTED_EDGE('',*,*,#509,.F.);
#315=ORIENTED_EDGE('',*,*,#526,.T.);
#316=ORIENTED_EDGE('',*,*,#527,.T.);
#317=ORIENTED_EDGE('',*,*,#528,.T.);
#318=ORIENTED_EDGE('',*,*,#513,.F.);
#319=ORIENTED_EDGE('',*,*,#529,.T.);
#320=ORIENTED_EDGE('',*,*,#530,.T.);
#321=ORIENTED_EDGE('',*,*,#531,.T.);
#322=ORIENTED_EDGE('',*,*,#519,.F.);
#323=ORIENTED_EDGE('',*,*,#532,.T.);
#324=ORIENTED_EDGE('',*,*,#496,.F.);
#325=ORIENTED_EDGE('',*,*,#495,.F.);
#326=ORIENTED_EDGE('',*,*,#500,.F.);
#327=ORIENTED_EDGE('',*,*,#499,.F.);
#328=ORIENTED_EDGE('',*,*,#498,.F.);
#329=ORIENTED_EDGE('',*,*,#497,.F.);
#330=ORIENTED_EDGE('',*,*,#502,.F.);
#331=ORIENTED_EDGE('',*,*,#501,.F.);
#332=ORIENTED_EDGE('',*,*,#508,.F.);
#333=ORIENTED_EDGE('',*,*,#507,.F.);
#334=ORIENTED_EDGE('',*,*,#506,.F.);
#335=ORIENTED_EDGE('',*,*,#505,.F.);
#336=ORIENTED_EDGE('',*,*,#504,.F.);
#337=ORIENTED_EDGE('',*,*,#503,.F.);
#338=ORIENTED_EDGE('',*,*,#511,.T.);
#339=ORIENTED_EDGE('',*,*,#533,.T.);
#340=ORIENTED_EDGE('',*,*,#521,.T.);
#341=ORIENTED_EDGE('',*,*,#534,.T.);
#342=ORIENTED_EDGE('',*,*,#517,.T.);
#343=ORIENTED_EDGE('',*,*,#535,.T.);
#344=ORIENTED_EDGE('',*,*,#536,.F.);
#345=ORIENTED_EDGE('',*,*,#537,.T.);
#346=ORIENTED_EDGE('',*,*,#515,.T.);
#347=ORIENTED_EDGE('',*,*,#538,.T.);
#348=ORIENTED_EDGE('',*,*,#539,.F.);
#349=ORIENTED_EDGE('',*,*,#540,.T.);
#350=ORIENTED_EDGE('',*,*,#530,.F.);
#351=ORIENTED_EDGE('',*,*,#541,.T.);
#352=ORIENTED_EDGE('',*,*,#536,.T.);
#353=ORIENTED_EDGE('',*,*,#542,.T.);
#354=ORIENTED_EDGE('',*,*,#527,.F.);
#355=ORIENTED_EDGE('',*,*,#543,.T.);
#356=ORIENTED_EDGE('',*,*,#539,.T.);
#357=ORIENTED_EDGE('',*,*,#544,.T.);
#358=ORIENTED_EDGE('',*,*,#525,.F.);
#359=ORIENTED_EDGE('',*,*,#522,.F.);
#360=ORIENTED_EDGE('',*,*,#533,.F.);
#361=ORIENTED_EDGE('',*,*,#510,.F.);
#362=ORIENTED_EDGE('',*,*,#532,.F.);
#363=ORIENTED_EDGE('',*,*,#518,.F.);
#364=ORIENTED_EDGE('',*,*,#534,.F.);
#365=ORIENTED_EDGE('',*,*,#524,.F.);
#366=ORIENTED_EDGE('',*,*,#526,.F.);
#367=ORIENTED_EDGE('',*,*,#512,.F.);
#368=ORIENTED_EDGE('',*,*,#540,.F.);
#369=ORIENTED_EDGE('',*,*,#543,.F.);
#370=ORIENTED_EDGE('',*,*,#528,.F.);
#371=ORIENTED_EDGE('',*,*,#544,.F.);
#372=ORIENTED_EDGE('',*,*,#538,.F.);
#373=ORIENTED_EDGE('',*,*,#514,.F.);
#374=ORIENTED_EDGE('',*,*,#529,.F.);
#375=ORIENTED_EDGE('',*,*,#516,.F.);
#376=ORIENTED_EDGE('',*,*,#537,.F.);
#377=ORIENTED_EDGE('',*,*,#541,.F.);
#378=ORIENTED_EDGE('',*,*,#531,.F.);
#379=ORIENTED_EDGE('',*,*,#542,.F.);
#380=ORIENTED_EDGE('',*,*,#535,.F.);
#381=ORIENTED_EDGE('',*,*,#520,.F.);
#382=EDGE_CURVE('',#545,#546,#696,.T.);
#383=EDGE_CURVE('',#546,#547,#697,.T.);
#384=EDGE_CURVE('',#547,#548,#698,.T.);
#385=EDGE_CURVE('',#548,#549,#699,.T.);
#386=EDGE_CURVE('',#549,#550,#700,.T.);
#387=EDGE_CURVE('',#550,#551,#701,.T.);
#388=EDGE_CURVE('',#551,#552,#702,.T.);
#389=EDGE_CURVE('',#552,#553,#703,.T.);
#390=EDGE_CURVE('',#553,#545,#704,.T.);
#391=EDGE_CURVE('',#554,#555,#705,.T.);
#392=EDGE_CURVE('',#555,#556,#706,.T.);
#393=EDGE_CURVE('',#556,#557,#707,.T.);
#394=EDGE_CURVE('',#557,#558,#708,.T.);
#395=EDGE_CURVE('',#558,#559,#709,.T.);
#396=EDGE_CURVE('',#559,#560,#710,.T.);
#397=EDGE_CURVE('',#560,#561,#711,.T.);
#398=EDGE_CURVE('',#561,#562,#712,.T.);
#399=EDGE_CURVE('',#562,#554,#713,.T.);
#400=EDGE_CURVE('',#563,#564,#714,.T.);
#401=EDGE_CURVE('',#564,#565,#715,.T.);
#402=EDGE_CURVE('',#565,#566,#716,.T.);
#403=EDGE_CURVE('',#566,#567,#717,.T.);
#404=EDGE_CURVE('',#567,#568,#718,.T.);
#405=EDGE_CURVE('',#568,#569,#719,.T.);
#406=EDGE_CURVE('',#569,#570,#720,.T.);
#407=EDGE_CURVE('',#570,#571,#721,.T.);
#408=EDGE_CURVE('',#571,#572,#722,.T.);
#409=EDGE_CURVE('',#572,#573,#723,.T.);
#410=EDGE_CURVE('',#573,#574,#724,.T.);
#411=EDGE_CURVE('',#574,#563,#725,.T.);
#412=EDGE_CURVE('',#575,#576,#726,.T.);
#413=EDGE_CURVE('',#576,#577,#20,.F.);
#414=EDGE_CURVE('',#577,#578,#727,.T.);
#415=EDGE_CURVE('',#578,#575,#728,.T.);
#416=EDGE_CURVE('',#579,#580,#21,.F.);
#417=EDGE_CURVE('',#580,#581,#729,.T.);
#418=EDGE_CURVE('',#581,#582,#730,.T.);
#419=EDGE_CURVE('',#582,#583,#731,.T.);
#420=EDGE_CURVE('',#583,#584,#732,.T.);
#421=EDGE_CURVE('',#584,#579,#733,.T.);
#422=EDGE_CURVE('',#585,#585,#19,.T.);
#423=EDGE_CURVE('',#586,#586,#18,.F.);
#424=EDGE_CURVE('',#587,#588,#734,.T.);
#425=EDGE_CURVE('',#588,#589,#735,.T.);
#426=EDGE_CURVE('',#589,#590,#736,.T.);
#427=EDGE_CURVE('',#590,#591,#737,.T.);
#428=EDGE_CURVE('',#591,#592,#738,.T.);
#429=EDGE_CURVE('',#592,#593,#739,.T.);
#430=EDGE_CURVE('',#593,#594,#740,.T.);
#431=EDGE_CURVE('',#594,#595,#741,.T.);
#432=EDGE_CURVE('',#595,#596,#742,.T.);
#433=EDGE_CURVE('',#596,#587,#743,.T.);
#434=EDGE_CURVE('',#597,#598,#744,.T.);
#435=EDGE_CURVE('',#598,#599,#22,.F.);
#436=EDGE_CURVE('',#599,#600,#745,.T.);
#437=EDGE_CURVE('',#600,#601,#746,.T.);
#438=EDGE_CURVE('',#601,#602,#747,.T.);
#439=EDGE_CURVE('',#602,#597,#23,.F.);
#440=EDGE_CURVE('',#603,#604,#748,.T.);
#441=EDGE_CURVE('',#604,#605,#749,.T.);
#442=EDGE_CURVE('',#605,#606,#750,.T.);
#443=EDGE_CURVE('',#606,#607,#751,.T.);
#444=EDGE_CURVE('',#607,#608,#752,.T.);
#445=EDGE_CURVE('',#608,#609,#753,.T.);
#446=EDGE_CURVE('',#609,#610,#754,.T.);
#447=EDGE_CURVE('',#610,#611,#24,.F.);
#448=EDGE_CURVE('',#611,#612,#755,.T.);
#449=EDGE_CURVE('',#612,#603,#25,.F.);
#450=EDGE_CURVE('',#613,#614,#756,.T.);
#451=EDGE_CURVE('',#614,#615,#757,.T.);
#452=EDGE_CURVE('',#615,#616,#758,.T.);
#453=EDGE_CURVE('',#616,#617,#759,.T.);
#454=EDGE_CURVE('',#617,#618,#760,.T.);
#455=EDGE_CURVE('',#618,#619,#761,.T.);
#456=EDGE_CURVE('',#619,#620,#762,.T.);
#457=EDGE_CURVE('',#620,#613,#763,.T.);
#458=EDGE_CURVE('',#621,#622,#764,.T.);
#459=EDGE_CURVE('',#622,#623,#26,.F.);
#460=EDGE_CURVE('',#623,#624,#765,.T.);
#461=EDGE_CURVE('',#624,#621,#766,.T.);
#462=EDGE_CURVE('',#625,#626,#27,.F.);
#463=EDGE_CURVE('',#626,#627,#767,.T.);
#464=EDGE_CURVE('',#627,#628,#768,.T.);
#465=EDGE_CURVE('',#628,#629,#769,.T.);
#466=EDGE_CURVE('',#629,#630,#770,.T.);
#467=EDGE_CURVE('',#630,#631,#771,.T.);
#468=EDGE_CURVE('',#631,#632,#772,.T.);
#469=EDGE_CURVE('',#632,#633,#773,.T.);
#470=EDGE_CURVE('',#633,#625,#774,.T.);
#471=EDGE_CURVE('',#634,#635,#775,.T.);
#472=EDGE_CURVE('',#635,#636,#776,.T.);
#473=EDGE_CURVE('',#636,#637,#777,.T.);
#474=EDGE_CURVE('',#637,#638,#28,.F.);
#475=EDGE_CURVE('',#638,#639,#778,.T.);
#476=EDGE_CURVE('',#639,#640,#29,.F.);
#477=EDGE_CURVE('',#640,#641,#779,.T.);
#478=EDGE_CURVE('',#641,#642,#780,.T.);
#479=EDGE_CURVE('',#642,#643,#781,.T.);
#480=EDGE_CURVE('',#643,#644,#30,.T.);
#481=EDGE_CURVE('',#644,#645,#782,.T.);
#482=EDGE_CURVE('',#645,#634,#31,.T.);
#483=EDGE_CURVE('',#646,#647,#783,.T.);
#484=EDGE_CURVE('',#647,#648,#32,.F.);
#485=EDGE_CURVE('',#648,#649,#784,.T.);
#486=EDGE_CURVE('',#649,#650,#33,.F.);
#487=EDGE_CURVE('',#650,#651,#785,.T.);
#488=EDGE_CURVE('',#651,#652,#34,.T.);
#489=EDGE_CURVE('',#652,#653,#786,.T.);
#490=EDGE_CURVE('',#653,#654,#35,.T.);
#491=EDGE_CURVE('',#654,#655,#787,.T.);
#492=EDGE_CURVE('',#655,#656,#36,.T.);
#493=EDGE_CURVE('',#656,#657,#788,.T.);
#494=EDGE_CURVE('',#657,#646,#37,.F.);
#495=EDGE_CURVE('',#658,#659,#38,.F.);
#496=EDGE_CURVE('',#659,#660,#789,.T.);
#497=EDGE_CURVE('',#660,#661,#790,.T.);
#498=EDGE_CURVE('',#661,#662,#791,.T.);
#499=EDGE_CURVE('',#662,#663,#39,.F.);
#500=EDGE_CURVE('',#663,#658,#792,.T.);
#501=EDGE_CURVE('',#664,#665,#793,.T.);
#502=EDGE_CURVE('',#665,#666,#40,.F.);
#503=EDGE_CURVE('',#666,#667,#794,.T.);
#504=EDGE_CURVE('',#667,#668,#41,.F.);
#505=EDGE_CURVE('',#668,#669,#795,.T.);
#506=EDGE_CURVE('',#669,#670,#42,.F.);
#507=EDGE_CURVE('',#670,#671,#796,.T.);
#508=EDGE_CURVE('',#671,#664,#43,.F.);
#509=EDGE_CURVE('',#672,#673,#797,.T.);
#510=EDGE_CURVE('',#673,#674,#798,.T.);
#511=EDGE_CURVE('',#675,#674,#799,.T.);
#512=EDGE_CURVE('',#675,#672,#800,.F.);
#513=EDGE_CURVE('',#676,#677,#801,.T.);
#514=EDGE_CURVE('',#677,#678,#802,.T.);
#515=EDGE_CURVE('',#679,#678,#803,.T.);
#516=EDGE_CURVE('',#679,#676,#804,.F.);
#517=EDGE_CURVE('',#680,#681,#805,.T.);
#518=EDGE_CURVE('',#680,#682,#806,.F.);
#519=EDGE_CURVE('',#682,#683,#807,.T.);
#520=EDGE_CURVE('',#683,#681,#808,.T.);
#521=EDGE_CURVE('',#684,#685,#809,.T.);
#522=EDGE_CURVE('',#684,#686,#810,.F.);
#523=EDGE_CURVE('',#686,#687,#811,.T.);
#524=EDGE_CURVE('',#687,#685,#812,.T.);
#525=EDGE_CURVE('',#686,#673,#44,.T.);
#526=EDGE_CURVE('',#672,#688,#45,.T.);
#527=EDGE_CURVE('',#688,#689,#813,.T.);
#528=EDGE_CURVE('',#689,#677,#46,.T.);
#529=EDGE_CURVE('',#676,#690,#47,.T.);
#530=EDGE_CURVE('',#690,#691,#814,.T.);
#531=EDGE_CURVE('',#691,#683,#48,.T.);
#532=EDGE_CURVE('',#682,#687,#49,.T.);
#533=EDGE_CURVE('',#674,#684,#50,.F.);
#534=EDGE_CURVE('',#685,#680,#51,.F.);
#535=EDGE_CURVE('',#681,#692,#52,.F.);
#536=EDGE_CURVE('',#693,#692,#815,.T.);
#537=EDGE_CURVE('',#693,#679,#53,.F.);
#538=EDGE_CURVE('',#678,#694,#54,.F.);
#539=EDGE_CURVE('',#695,#694,#816,.T.);
#540=EDGE_CURVE('',#695,#675,#55,.F.);
#541=EDGE_CURVE('',#690,#693,#817,.T.);
#542=EDGE_CURVE('',#692,#691,#818,.F.);
#543=EDGE_CURVE('',#688,#695,#819,.T.);
#544=EDGE_CURVE('',#694,#689,#820,.F.);
#545=VERTEX_POINT('',#1522);
#546=VERTEX_POINT('',#1523);
#547=VERTEX_POINT('',#1525);
#548=VERTEX_POINT('',#1527);
#549=VERTEX_POINT('',#1529);
#550=VERTEX_POINT('',#1531);
#551=VERTEX_POINT('',#1533);
#552=VERTEX_POINT('',#1535);
#553=VERTEX_POINT('',#1537);
#554=VERTEX_POINT('',#1541);
#555=VERTEX_POINT('',#1542);
#556=VERTEX_POINT('',#1544);
#557=VERTEX_POINT('',#1546);
#558=VERTEX_POINT('',#1548);
#559=VERTEX_POINT('',#1550);
#560=VERTEX_POINT('',#1552);
#561=VERTEX_POINT('',#1554);
#562=VERTEX_POINT('',#1556);
#563=VERTEX_POINT('',#1560);
#564=VERTEX_POINT('',#1561);
#565=VERTEX_POINT('',#1563);
#566=VERTEX_POINT('',#1565);
#567=VERTEX_POINT('',#1567);
#568=VERTEX_POINT('',#1569);
#569=VERTEX_POINT('',#1571);
#570=VERTEX_POINT('',#1573);
#571=VERTEX_POINT('',#1575);
#572=VERTEX_POINT('',#1577);
#573=VERTEX_POINT('',#1579);
#574=VERTEX_POINT('',#1581);
#575=VERTEX_POINT('',#1585);
#576=VERTEX_POINT('',#1586);
#577=VERTEX_POINT('',#1588);
#578=VERTEX_POINT('',#1590);
#579=VERTEX_POINT('',#1594);
#580=VERTEX_POINT('',#1595);
#581=VERTEX_POINT('',#1597);
#582=VERTEX_POINT('',#1599);
#583=VERTEX_POINT('',#1601);
#584=VERTEX_POINT('',#1603);
#585=VERTEX_POINT('',#1617);
#586=VERTEX_POINT('',#1620);
#587=VERTEX_POINT('',#1623);
#588=VERTEX_POINT('',#1624);
#589=VERTEX_POINT('',#1626);
#590=VERTEX_POINT('',#1628);
#591=VERTEX_POINT('',#1630);
#592=VERTEX_POINT('',#1632);
#593=VERTEX_POINT('',#1634);
#594=VERTEX_POINT('',#1636);
#595=VERTEX_POINT('',#1638);
#596=VERTEX_POINT('',#1640);
#597=VERTEX_POINT('',#1644);
#598=VERTEX_POINT('',#1645);
#599=VERTEX_POINT('',#1647);
#600=VERTEX_POINT('',#1649);
#601=VERTEX_POINT('',#1651);
#602=VERTEX_POINT('',#1653);
#603=VERTEX_POINT('',#1657);
#604=VERTEX_POINT('',#1658);
#605=VERTEX_POINT('',#1660);
#606=VERTEX_POINT('',#1662);
#607=VERTEX_POINT('',#1664);
#608=VERTEX_POINT('',#1666);
#609=VERTEX_POINT('',#1668);
#610=VERTEX_POINT('',#1670);
#611=VERTEX_POINT('',#1672);
#612=VERTEX_POINT('',#1674);
#613=VERTEX_POINT('',#1678);
#614=VERTEX_POINT('',#1679);
#615=VERTEX_POINT('',#1681);
#616=VERTEX_POINT('',#1683);
#617=VERTEX_POINT('',#1685);
#618=VERTEX_POINT('',#1687);
#619=VERTEX_POINT('',#1689);
#620=VERTEX_POINT('',#1691);
#621=VERTEX_POINT('',#1695);
#622=VERTEX_POINT('',#1696);
#623=VERTEX_POINT('',#1698);
#624=VERTEX_POINT('',#1700);
#625=VERTEX_POINT('',#1704);
#626=VERTEX_POINT('',#1705);
#627=VERTEX_POINT('',#1707);
#628=VERTEX_POINT('',#1709);
#629=VERTEX_POINT('',#1711);
#630=VERTEX_POINT('',#1713);
#631=VERTEX_POINT('',#1715);
#632=VERTEX_POINT('',#1717);
#633=VERTEX_POINT('',#1719);
#634=VERTEX_POINT('',#1723);
#635=VERTEX_POINT('',#1724);
#636=VERTEX_POINT('',#1726);
#637=VERTEX_POINT('',#1728);
#638=VERTEX_POINT('',#1730);
#639=VERTEX_POINT('',#1732);
#640=VERTEX_POINT('',#1734);
#641=VERTEX_POINT('',#1736);
#642=VERTEX_POINT('',#1738);
#643=VERTEX_POINT('',#1740);
#644=VERTEX_POINT('',#1742);
#645=VERTEX_POINT('',#1744);
#646=VERTEX_POINT('',#1748);
#647=VERTEX_POINT('',#1749);
#648=VERTEX_POINT('',#1751);
#649=VERTEX_POINT('',#1753);
#650=VERTEX_POINT('',#1755);
#651=VERTEX_POINT('',#1757);
#652=VERTEX_POINT('',#1759);
#653=VERTEX_POINT('',#1761);
#654=VERTEX_POINT('',#1763);
#655=VERTEX_POINT('',#1765);
#656=VERTEX_POINT('',#1767);
#657=VERTEX_POINT('',#1769);
#658=VERTEX_POINT('',#1773);
#659=VERTEX_POINT('',#1774);
#660=VERTEX_POINT('',#1776);
#661=VERTEX_POINT('',#1778);
#662=VERTEX_POINT('',#1780);
#663=VERTEX_POINT('',#1782);
#664=VERTEX_POINT('',#1786);
#665=VERTEX_POINT('',#1787);
#666=VERTEX_POINT('',#1789);
#667=VERTEX_POINT('',#1791);
#668=VERTEX_POINT('',#1793);
#669=VERTEX_POINT('',#1795);
#670=VERTEX_POINT('',#1797);
#671=VERTEX_POINT('',#1799);
#672=VERTEX_POINT('',#1803);
#673=VERTEX_POINT('',#1804);
#674=VERTEX_POINT('',#1806);
#675=VERTEX_POINT('',#1808);
#676=VERTEX_POINT('',#1812);
#677=VERTEX_POINT('',#1813);
#678=VERTEX_POINT('',#1815);
#679=VERTEX_POINT('',#1817);
#680=VERTEX_POINT('',#1821);
#681=VERTEX_POINT('',#1822);
#682=VERTEX_POINT('',#1824);
#683=VERTEX_POINT('',#1826);
#684=VERTEX_POINT('',#1830);
#685=VERTEX_POINT('',#1831);
#686=VERTEX_POINT('',#1833);
#687=VERTEX_POINT('',#1835);
#688=VERTEX_POINT('',#1840);
#689=VERTEX_POINT('',#1842);
#690=VERTEX_POINT('',#1845);
#691=VERTEX_POINT('',#1847);
#692=VERTEX_POINT('',#1854);
#693=VERTEX_POINT('',#1856);
#694=VERTEX_POINT('',#1859);
#695=VERTEX_POINT('',#1861);
#696=LINE('',#1521,#821);
#697=LINE('',#1524,#822);
#698=LINE('',#1526,#823);
#699=LINE('',#1528,#824);
#700=LINE('',#1530,#825);
#701=LINE('',#1532,#826);
#702=LINE('',#1534,#827);
#703=LINE('',#1536,#828);
#704=LINE('',#1538,#829);
#705=LINE('',#1540,#830);
#706=LINE('',#1543,#831);
#707=LINE('',#1545,#832);
#708=LINE('',#1547,#833);
#709=LINE('',#1549,#834);
#710=LINE('',#1551,#835);
#711=LINE('',#1553,#836);
#712=LINE('',#1555,#837);
#713=LINE('',#1557,#838);
#714=LINE('',#1559,#839);
#715=LINE('',#1562,#840);
#716=LINE('',#1564,#841);
#717=LINE('',#1566,#842);
#718=LINE('',#1568,#843);
#719=LINE('',#1570,#844);
#720=LINE('',#1572,#845);
#721=LINE('',#1574,#846);
#722=LINE('',#1576,#847);
#723=LINE('',#1578,#848);
#724=LINE('',#1580,#849);
#725=LINE('',#1582,#850);
#726=LINE('',#1584,#851);
#727=LINE('',#1589,#852);
#728=LINE('',#1591,#853);
#729=LINE('',#1596,#854);
#730=LINE('',#1598,#855);
#731=LINE('',#1600,#856);
#732=LINE('',#1602,#857);
#733=LINE('',#1604,#858);
#734=LINE('',#1622,#859);
#735=LINE('',#1625,#860);
#736=LINE('',#1627,#861);
#737=LINE('',#1629,#862);
#738=LINE('',#1631,#863);
#739=LINE('',#1633,#864);
#740=LINE('',#1635,#865);
#741=LINE('',#1637,#866);
#742=LINE('',#1639,#867);
#743=LINE('',#1641,#868);
#744=LINE('',#1643,#869);
#745=LINE('',#1648,#870);
#746=LINE('',#1650,#871);
#747=LINE('',#1652,#872);
#748=LINE('',#1656,#873);
#749=LINE('',#1659,#874);
#750=LINE('',#1661,#875);
#751=LINE('',#1663,#876);
#752=LINE('',#1665,#877);
#753=LINE('',#1667,#878);
#754=LINE('',#1669,#879);
#755=LINE('',#1673,#880);
#756=LINE('',#1677,#881);
#757=LINE('',#1680,#882);
#758=LINE('',#1682,#883);
#759=LINE('',#1684,#884);
#760=LINE('',#1686,#885);
#761=LINE('',#1688,#886);
#762=LINE('',#1690,#887);
#763=LINE('',#1692,#888);
#764=LINE('',#1694,#889);
#765=LINE('',#1699,#890);
#766=LINE('',#1701,#891);
#767=LINE('',#1706,#892);
#768=LINE('',#1708,#893);
#769=LINE('',#1710,#894);
#770=LINE('',#1712,#895);
#771=LINE('',#1714,#896);
#772=LINE('',#1716,#897);
#773=LINE('',#1718,#898);
#774=LINE('',#1720,#899);
#775=LINE('',#1722,#900);
#776=LINE('',#1725,#901);
#777=LINE('',#1727,#902);
#778=LINE('',#1731,#903);
#779=LINE('',#1735,#904);
#780=LINE('',#1737,#905);
#781=LINE('',#1739,#906);
#782=LINE('',#1743,#907);
#783=LINE('',#1747,#908);
#784=LINE('',#1752,#909);
#785=LINE('',#1756,#910);
#786=LINE('',#1760,#911);
#787=LINE('',#1764,#912);
#788=LINE('',#1768,#913);
#789=LINE('',#1775,#914);
#790=LINE('',#1777,#915);
#791=LINE('',#1779,#916);
#792=LINE('',#1783,#917);
#793=LINE('',#1785,#918);
#794=LINE('',#1790,#919);
#795=LINE('',#1794,#920);
#796=LINE('',#1798,#921);
#797=LINE('',#1802,#922);
#798=LINE('',#1805,#923);
#799=LINE('',#1807,#924);
#800=LINE('',#1809,#925);
#801=LINE('',#1811,#926);
#802=LINE('',#1814,#927);
#803=LINE('',#1816,#928);
#804=LINE('',#1818,#929);
#805=LINE('',#1820,#930);
#806=LINE('',#1823,#931);
#807=LINE('',#1825,#932);
#808=LINE('',#1827,#933);
#809=LINE('',#1829,#934);
#810=LINE('',#1832,#935);
#811=LINE('',#1834,#936);
#812=LINE('',#1836,#937);
#813=LINE('',#1841,#938);
#814=LINE('',#1846,#939);
#815=LINE('',#1855,#940);
#816=LINE('',#1860,#941);
#817=LINE('',#1864,#942);
#818=LINE('',#1865,#943);
#819=LINE('',#1867,#944);
#820=LINE('',#1868,#945);
#821=VECTOR('',#1260,1.);
#822=VECTOR('',#1261,1.);
#823=VECTOR('',#1262,1.);
#824=VECTOR('',#1263,1.);
#825=VECTOR('',#1264,1.);
#826=VECTOR('',#1265,1.);
#827=VECTOR('',#1266,1.);
#828=VECTOR('',#1267,1.);
#829=VECTOR('',#1268,1.);
#830=VECTOR('',#1271,1.);
#831=VECTOR('',#1272,1.);
#832=VECTOR('',#1273,1.);
#833=VECTOR('',#1274,1.);
#834=VECTOR('',#1275,1.);
#835=VECTOR('',#1276,1.);
#836=VECTOR('',#1277,1.);
#837=VECTOR('',#1278,1.);
#838=VECTOR('',#1279,1.);
#839=VECTOR('',#1282,1.);
#840=VECTOR('',#1283,1.);
#841=VECTOR('',#1284,1.);
#842=VECTOR('',#1285,1.);
#843=VECTOR('',#1286,1.);
#844=VECTOR('',#1287,1.);
#845=VECTOR('',#1288,1.);
#846=VECTOR('',#1289,1.);
#847=VECTOR('',#1290,1.);
#848=VECTOR('',#1291,1.);
#849=VECTOR('',#1292,1.);
#850=VECTOR('',#1293,1.);
#851=VECTOR('',#1296,1.);
#852=VECTOR('',#1299,1.);
#853=VECTOR('',#1300,1.);
#854=VECTOR('',#1305,1.);
#855=VECTOR('',#1306,1.);
#856=VECTOR('',#1307,1.);
#857=VECTOR('',#1308,1.);
#858=VECTOR('',#1309,1.);
#859=VECTOR('',#1318,1.);
#860=VECTOR('',#1319,1.);
#861=VECTOR('',#1320,1.);
#862=VECTOR('',#1321,1.);
#863=VECTOR('',#1322,1.);
#864=VECTOR('',#1323,1.);
#865=VECTOR('',#1324,1.);
#866=VECTOR('',#1325,1.);
#867=VECTOR('',#1326,1.);
#868=VECTOR('',#1327,1.);
#869=VECTOR('',#1330,1.);
#870=VECTOR('',#1333,1.);
#871=VECTOR('',#1334,1.);
#872=VECTOR('',#1335,1.);
#873=VECTOR('',#1340,1.);
#874=VECTOR('',#1341,1.);
#875=VECTOR('',#1342,1.);
#876=VECTOR('',#1343,1.);
#877=VECTOR('',#1344,1.);
#878=VECTOR('',#1345,1.);
#879=VECTOR('',#1346,1.);
#880=VECTOR('',#1349,1.);
#881=VECTOR('',#1354,1.);
#882=VECTOR('',#1355,1.);
#883=VECTOR('',#1356,1.);
#884=VECTOR('',#1357,1.);
#885=VECTOR('',#1358,1.);
#886=VECTOR('',#1359,1.);
#887=VECTOR('',#1360,1.);
#888=VECTOR('',#1361,1.);
#889=VECTOR('',#1364,1.);
#890=VECTOR('',#1367,1.);
#891=VECTOR('',#1368,1.);
#892=VECTOR('',#1373,1.);
#893=VECTOR('',#1374,1.);
#894=VECTOR('',#1375,1.);
#895=VECTOR('',#1376,1.);
#896=VECTOR('',#1377,1.);
#897=VECTOR('',#1378,1.);
#898=VECTOR('',#1379,1.);
#899=VECTOR('',#1380,1.);
#900=VECTOR('',#1383,1.);
#901=VECTOR('',#1384,1.);
#902=VECTOR('',#1385,1.);
#903=VECTOR('',#1388,1.);
#904=VECTOR('',#1391,1.);
#905=VECTOR('',#1392,1.);
#906=VECTOR('',#1393,1.);
#907=VECTOR('',#1396,1.);
#908=VECTOR('',#1401,1.);
#909=VECTOR('',#1404,1.);
#910=VECTOR('',#1407,1.);
#911=VECTOR('',#1410,1.);
#912=VECTOR('',#1413,1.);
#913=VECTOR('',#1416,1.);
#914=VECTOR('',#1423,1.);
#915=VECTOR('',#1424,1.);
#916=VECTOR('',#1425,1.);
#917=VECTOR('',#1428,1.);
#918=VECTOR('',#1431,1.);
#919=VECTOR('',#1434,1.);
#920=VECTOR('',#1437,1.);
#921=VECTOR('',#1440,1.);
#922=VECTOR('',#1445,1.);
#923=VECTOR('',#1446,1.);
#924=VECTOR('',#1447,1.);
#925=VECTOR('',#1448,1.);
#926=VECTOR('',#1451,1.);
#927=VECTOR('',#1452,1.);
#928=VECTOR('',#1453,1.);
#929=VECTOR('',#1454,1.);
#930=VECTOR('',#1457,1.);
#931=VECTOR('',#1458,1.);
#932=VECTOR('',#1459,1.);
#933=VECTOR('',#1460,1.);
#934=VECTOR('',#1463,1.);
#935=VECTOR('',#1464,1.);
#936=VECTOR('',#1465,1.);
#937=VECTOR('',#1466,1.);
#938=VECTOR('',#1473,1.);
#939=VECTOR('',#1478,1.);
#940=VECTOR('',#1491,1.);
#941=VECTOR('',#1496,1.);
#942=VECTOR('',#1501,1.);
#943=VECTOR('',#1502,1.);
#944=VECTOR('',#1505,1.);
#945=VECTOR('',#1506,1.);
#946=EDGE_LOOP('',(#56,#57,#58,#59,#60,#61,#62,#63,#64));
#947=EDGE_LOOP('',(#65,#66,#67,#68,#69,#70,#71,#72,#73));
#948=EDGE_LOOP('',(#74,#75,#76,#77,#78,#79,#80,#81,#82,#83,#84,#85));
#949=EDGE_LOOP('',(#86,#87,#88,#89));
#950=EDGE_LOOP('',(#90,#91,#92,#93));
#951=EDGE_LOOP('',(#94,#95,#96,#97,#98,#99));
#952=EDGE_LOOP('',(#100));
#953=EDGE_LOOP('',(#101));
#954=EDGE_LOOP('',(#102));
#955=EDGE_LOOP('',(#103,#104,#105,#106,#107,#108,#109,#110,#111,#112));
#956=EDGE_LOOP('',(#113,#114,#115,#116,#117,#118));
#957=EDGE_LOOP('',(#119,#120,#121,#122,#123,#124));
#958=EDGE_LOOP('',(#125,#126,#127,#128,#129,#130,#131,#132,#133,#134));
#959=EDGE_LOOP('',(#135,#136,#137,#138,#139,#140,#141,#142));
#960=EDGE_LOOP('',(#143,#144,#145,#146));
#961=EDGE_LOOP('',(#147,#148,#149,#150));
#962=EDGE_LOOP('',(#151,#152,#153,#154,#155,#156,#157,#158,#159));
#963=EDGE_LOOP('',(#160,#161,#162,#163,#164,#165,#166,#167,#168,#169,#170,
#171));
#964=EDGE_LOOP('',(#172,#173,#174,#175,#176,#177,#178,#179,#180,#181,#182,
#183));
#965=EDGE_LOOP('',(#184,#185,#186,#187,#188,#189,#190,#191,#192));
#966=EDGE_LOOP('',(#193,#194,#195,#196,#197,#198,#199,#200,#201));
#967=EDGE_LOOP('',(#202,#203,#204,#205,#206,#207,#208,#209,#210,#211,#212,
#213));
#968=EDGE_LOOP('',(#214,#215,#216,#217,#218,#219));
#969=EDGE_LOOP('',(#220));
#970=EDGE_LOOP('',(#221,#222,#223,#224,#225,#226,#227,#228,#229,#230));
#971=EDGE_LOOP('',(#231,#232,#233,#234,#235,#236));
#972=EDGE_LOOP('',(#237,#238,#239,#240,#241,#242,#243,#244,#245,#246));
#973=EDGE_LOOP('',(#247,#248,#249,#250,#251,#252,#253,#254));
#974=EDGE_LOOP('',(#255,#256,#257,#258,#259,#260,#261,#262,#263));
#975=EDGE_LOOP('',(#264,#265,#266,#267,#268,#269,#270,#271,#272,#273,#274,
#275));
#976=EDGE_LOOP('',(#276,#277,#278,#279,#280,#281,#282,#283,#284,#285,#286,
#287));
#977=EDGE_LOOP('',(#288,#289,#290,#291,#292,#293,#294,#295));
#978=EDGE_LOOP('',(#296,#297,#298,#299));
#979=EDGE_LOOP('',(#300,#301,#302,#303));
#980=EDGE_LOOP('',(#304,#305,#306,#307));
#981=EDGE_LOOP('',(#308,#309,#310,#311));
#982=EDGE_LOOP('',(#312,#313,#314,#315,#316,#317,#318,#319,#320,#321,#322,
#323));
#983=EDGE_LOOP('',(#324,#325,#326,#327,#328,#329));
#984=EDGE_LOOP('',(#330,#331,#332,#333,#334,#335,#336,#337));
#985=EDGE_LOOP('',(#338,#339,#340,#341,#342,#343,#344,#345,#346,#347,#348,
#349));
#986=EDGE_LOOP('',(#350,#351,#352,#353));
#987=EDGE_LOOP('',(#354,#355,#356,#357));
#988=EDGE_LOOP('',(#358,#359,#360,#361));
#989=EDGE_LOOP('',(#362,#363,#364,#365));
#990=EDGE_LOOP('',(#366,#367,#368,#369));
#991=EDGE_LOOP('',(#370,#371,#372,#373));
#992=EDGE_LOOP('',(#374,#375,#376,#377));
#993=EDGE_LOOP('',(#378,#379,#380,#381));
#994=FACE_BOUND('',#946,.T.);
#995=FACE_BOUND('',#947,.T.);
#996=FACE_BOUND('',#948,.T.);
#997=FACE_BOUND('',#949,.T.);
#998=FACE_BOUND('',#950,.T.);
#999=FACE_BOUND('',#951,.T.);
#1000=FACE_BOUND('',#952,.T.);
#1001=FACE_BOUND('',#953,.T.);
#1002=FACE_BOUND('',#954,.T.);
#1003=FACE_BOUND('',#955,.T.);
#1004=FACE_BOUND('',#956,.T.);
#1005=FACE_BOUND('',#957,.T.);
#1006=FACE_BOUND('',#958,.T.);
#1007=FACE_BOUND('',#959,.T.);
#1008=FACE_BOUND('',#960,.T.);
#1009=FACE_BOUND('',#961,.T.);
#1010=FACE_BOUND('',#962,.T.);
#1011=FACE_BOUND('',#963,.T.);
#1012=FACE_BOUND('',#964,.T.);
#1013=FACE_BOUND('',#965,.T.);
#1014=FACE_BOUND('',#966,.T.);
#1015=FACE_BOUND('',#967,.T.);
#1016=FACE_BOUND('',#968,.T.);
#1017=FACE_BOUND('',#969,.T.);
#1018=FACE_BOUND('',#970,.T.);
#1019=FACE_BOUND('',#971,.T.);
#1020=FACE_BOUND('',#972,.T.);
#1021=FACE_BOUND('',#973,.T.);
#1022=FACE_BOUND('',#974,.T.);
#1023=FACE_BOUND('',#975,.T.);
#1024=FACE_BOUND('',#976,.T.);
#1025=FACE_BOUND('',#977,.T.);
#1026=FACE_BOUND('',#978,.T.);
#1027=FACE_BOUND('',#979,.T.);
#1028=FACE_BOUND('',#980,.T.);
#1029=FACE_BOUND('',#981,.T.);
#1030=FACE_BOUND('',#982,.T.);
#1031=FACE_BOUND('',#983,.T.);
#1032=FACE_BOUND('',#984,.T.);
#1033=FACE_BOUND('',#985,.T.);
#1034=FACE_BOUND('',#986,.T.);
#1035=FACE_BOUND('',#987,.T.);
#1036=FACE_BOUND('',#988,.T.);
#1037=FACE_BOUND('',#989,.T.);
#1038=FACE_BOUND('',#990,.T.);
#1039=FACE_BOUND('',#991,.T.);
#1040=FACE_BOUND('',#992,.T.);
#1041=FACE_BOUND('',#993,.T.);
#1042=PLANE('',#1188);
#1043=PLANE('',#1189);
#1044=PLANE('',#1190);
#1045=PLANE('',#1191);
#1046=PLANE('',#1193);
#1047=PLANE('',#1195);
#1048=PLANE('',#1196);
#1049=PLANE('',#1198);
#1050=PLANE('',#1199);
#1051=PLANE('',#1202);
#1052=PLANE('',#1205);
#1053=PLANE('',#1206);
#1054=PLANE('',#1208);
#1055=PLANE('',#1210);
#1056=PLANE('',#1215);
#1057=PLANE('',#1222);
#1058=PLANE('',#1225);
#1059=PLANE('',#1230);
#1060=PLANE('',#1231);
#1061=PLANE('',#1232);
#1062=PLANE('',#1233);
#1063=PLANE('',#1234);
#1064=PLANE('',#1241);
#1065=PLANE('',#1248);
#1066=PLANE('',#1249);
#1067=STYLED_ITEM('',(#1079),#1152);
#1068=STYLED_ITEM('',(#1080),#1153);
#1069=STYLED_ITEM('',(#1081),#1154);
#1070=STYLED_ITEM('',(#1082),#1156);
#1071=STYLED_ITEM('',(#1083),#1158);
#1072=STYLED_ITEM('',(#1084),#1159);
#1073=STYLED_ITEM('',(#1085),#1161);
#1074=STYLED_ITEM('',(#1086),#1162);
#1075=STYLED_ITEM('',(#1087),#1164);
#1076=STYLED_ITEM('',(#1088),#1165);
#1077=STYLED_ITEM('',(#1089),#1166);
#1078=STYLED_ITEM('',(#1090),#1174);
#1079=PRESENTATION_STYLE_ASSIGNMENT((#1091));
#1080=PRESENTATION_STYLE_ASSIGNMENT((#1092));
#1081=PRESENTATION_STYLE_ASSIGNMENT((#1093));
#1082=PRESENTATION_STYLE_ASSIGNMENT((#1094));
#1083=PRESENTATION_STYLE_ASSIGNMENT((#1095));
#1084=PRESENTATION_STYLE_ASSIGNMENT((#1096));
#1085=PRESENTATION_STYLE_ASSIGNMENT((#1097));
#1086=PRESENTATION_STYLE_ASSIGNMENT((#1098));
#1087=PRESENTATION_STYLE_ASSIGNMENT((#1099));
#1088=PRESENTATION_STYLE_ASSIGNMENT((#1100));
#1089=PRESENTATION_STYLE_ASSIGNMENT((#1101));
#1090=PRESENTATION_STYLE_ASSIGNMENT((#1102));
#1091=SURFACE_STYLE_USAGE(.BOTH.,#1103);
#1092=SURFACE_STYLE_USAGE(.BOTH.,#1104);
#1093=SURFACE_STYLE_USAGE(.BOTH.,#1105);
#1094=SURFACE_STYLE_USAGE(.BOTH.,#1106);
#1095=SURFACE_STYLE_USAGE(.BOTH.,#1107);
#1096=SURFACE_STYLE_USAGE(.BOTH.,#1108);
#1097=SURFACE_STYLE_USAGE(.BOTH.,#1109);
#1098=SURFACE_STYLE_USAGE(.BOTH.,#1110);
#1099=SURFACE_STYLE_USAGE(.BOTH.,#1111);
#1100=SURFACE_STYLE_USAGE(.BOTH.,#1112);
#1101=SURFACE_STYLE_USAGE(.BOTH.,#1113);
#1102=SURFACE_STYLE_USAGE(.BOTH.,#1114);
#1103=SURFACE_SIDE_STYLE('',(#1115));
#1104=SURFACE_SIDE_STYLE('',(#1116));
#1105=SURFACE_SIDE_STYLE('',(#1117));
#1106=SURFACE_SIDE_STYLE('',(#1118));
#1107=SURFACE_SIDE_STYLE('',(#1119));
#1108=SURFACE_SIDE_STYLE('',(#1120));
#1109=SURFACE_SIDE_STYLE('',(#1121));
#1110=SURFACE_SIDE_STYLE('',(#1122));
#1111=SURFACE_SIDE_STYLE('',(#1123));
#1112=SURFACE_SIDE_STYLE('',(#1124));
#1113=SURFACE_SIDE_STYLE('',(#1125));
#1114=SURFACE_SIDE_STYLE('',(#1126));
#1115=SURFACE_STYLE_FILL_AREA(#1127);
#1116=SURFACE_STYLE_FILL_AREA(#1128);
#1117=SURFACE_STYLE_FILL_AREA(#1129);
#1118=SURFACE_STYLE_FILL_AREA(#1130);
#1119=SURFACE_STYLE_FILL_AREA(#1131);
#1120=SURFACE_STYLE_FILL_AREA(#1132);
#1121=SURFACE_STYLE_FILL_AREA(#1133);
#1122=SURFACE_STYLE_FILL_AREA(#1134);
#1123=SURFACE_STYLE_FILL_AREA(#1135);
#1124=SURFACE_STYLE_FILL_AREA(#1136);
#1125=SURFACE_STYLE_FILL_AREA(#1137);
#1126=SURFACE_STYLE_FILL_AREA(#1138);
#1127=FILL_AREA_STYLE('',(#1139));
#1128=FILL_AREA_STYLE('',(#1140));
#1129=FILL_AREA_STYLE('',(#1141));
#1130=FILL_AREA_STYLE('',(#1142));
#1131=FILL_AREA_STYLE('',(#1143));
#1132=FILL_AREA_STYLE('',(#1144));
#1133=FILL_AREA_STYLE('',(#1145));
#1134=FILL_AREA_STYLE('',(#1146));
#1135=FILL_AREA_STYLE('',(#1147));
#1136=FILL_AREA_STYLE('',(#1148));
#1137=FILL_AREA_STYLE('',(#1149));
#1138=FILL_AREA_STYLE('',(#1150));
#1139=FILL_AREA_STYLE_COLOUR('',#1151);
#1140=FILL_AREA_STYLE_COLOUR('',#1151);
#1141=FILL_AREA_STYLE_COLOUR('',#1151);
#1142=FILL_AREA_STYLE_COLOUR('',#1151);
#1143=FILL_AREA_STYLE_COLOUR('',#1151);
#1144=FILL_AREA_STYLE_COLOUR('',#1151);
#1145=FILL_AREA_STYLE_COLOUR('',#1151);
#1146=FILL_AREA_STYLE_COLOUR('',#1151);
#1147=FILL_AREA_STYLE_COLOUR('',#1151);
#1148=FILL_AREA_STYLE_COLOUR('',#1151);
#1149=FILL_AREA_STYLE_COLOUR('',#1151);
#1150=FILL_AREA_STYLE_COLOUR('',#1151);
#1151=DRAUGHTING_PRE_DEFINED_COLOUR('white');
#1152=ADVANCED_FACE('',(#994),#1042,.F.);
#1153=ADVANCED_FACE('',(#995),#1043,.F.);
#1154=ADVANCED_FACE('',(#996),#1044,.F.);
#1155=ADVANCED_FACE('',(#997),#1045,.F.);
#1156=ADVANCED_FACE('',(#998,#999),#1046,.F.);
#1157=ADVANCED_FACE('',(#1000),#1047,.F.);
#1158=ADVANCED_FACE('',(#1001,#1002),#1048,.F.);
#1159=ADVANCED_FACE('',(#1003),#1049,.F.);
#1160=ADVANCED_FACE('',(#1004),#1050,.F.);
#1161=ADVANCED_FACE('',(#1005,#1006),#1051,.F.);
#1162=ADVANCED_FACE('',(#1007),#1052,.F.);
#1163=ADVANCED_FACE('',(#1008),#1053,.F.);
#1164=ADVANCED_FACE('',(#1009,#1010),#1054,.F.);
#1165=ADVANCED_FACE('',(#1011),#1055,.F.);
#1166=ADVANCED_FACE('',(#1012),#1056,.F.);
#1167=ADVANCED_FACE('',(#1013,#1014,#1015,#1016,#1017,#1018,#1019),#1057,
 .F.);
#1168=ADVANCED_FACE('',(#1020,#1021,#1022,#1023,#1024,#1025),#1058,.F.);
#1169=ADVANCED_FACE('',(#1026),#1059,.T.);
#1170=ADVANCED_FACE('',(#1027),#1060,.T.);
#1171=ADVANCED_FACE('',(#1028),#1061,.T.);
#1172=ADVANCED_FACE('',(#1029),#1062,.T.);
#1173=ADVANCED_FACE('',(#1030),#1063,.T.);
#1174=ADVANCED_FACE('',(#1031,#1032,#1033),#1064,.F.);
#1175=ADVANCED_FACE('',(#1034),#1065,.F.);
#1176=ADVANCED_FACE('',(#1035),#1066,.F.);
#1177=ADVANCED_FACE('',(#1036),#12,.T.);
#1178=ADVANCED_FACE('',(#1037),#13,.T.);
#1179=ADVANCED_FACE('',(#1038),#14,.T.);
#1180=ADVANCED_FACE('',(#1039),#15,.T.);
#1181=ADVANCED_FACE('',(#1040),#16,.T.);
#1182=ADVANCED_FACE('',(#1041),#17,.T.);
#1183=CLOSED_SHELL('',(#1152,#1153,#1154,#1155,#1156,#1157,#1158,#1159,
#1160,#1161,#1162,#1163,#1164,#1165,#1166,#1167,#1168,#1169,#1170,#1171,
#1172,#1173,#1174,#1175,#1176,#1177,#1178,#1179,#1180,#1181,#1182));
#1184=MANIFOLD_SOLID_BREP('',#1183);
#1185=SHAPE_DEFINITION_REPRESENTATION(#1881,#1186);
#1186=SHAPE_REPRESENTATION('id2',(#1187),#1876);
#1187=AXIS2_PLACEMENT_3D('',#1519,#1256,#1257);
#1188=AXIS2_PLACEMENT_3D('',#1520,#1258,#1259);
#1189=AXIS2_PLACEMENT_3D('',#1539,#1269,#1270);
#1190=AXIS2_PLACEMENT_3D('',#1558,#1280,#1281);
#1191=AXIS2_PLACEMENT_3D('',#1583,#1294,#1295);
#1192=AXIS2_PLACEMENT_3D('',#1587,#1297,#1298);
#1193=AXIS2_PLACEMENT_3D('',#1592,#1301,#1302);
#1194=AXIS2_PLACEMENT_3D('',#1593,#1303,#1304);
#1195=AXIS2_PLACEMENT_3D('',#1605,#1310,#1311);
#1196=AXIS2_PLACEMENT_3D('',#1618,#1312,#1313);
#1197=AXIS2_PLACEMENT_3D('',#1619,#1314,#1315);
#1198=AXIS2_PLACEMENT_3D('',#1621,#1316,#1317);
#1199=AXIS2_PLACEMENT_3D('',#1642,#1328,#1329);
#1200=AXIS2_PLACEMENT_3D('',#1646,#1331,#1332);
#1201=AXIS2_PLACEMENT_3D('',#1654,#1336,#1337);
#1202=AXIS2_PLACEMENT_3D('',#1655,#1338,#1339);
#1203=AXIS2_PLACEMENT_3D('',#1671,#1347,#1348);
#1204=AXIS2_PLACEMENT_3D('',#1675,#1350,#1351);
#1205=AXIS2_PLACEMENT_3D('',#1676,#1352,#1353);
#1206=AXIS2_PLACEMENT_3D('',#1693,#1362,#1363);
#1207=AXIS2_PLACEMENT_3D('',#1697,#1365,#1366);
#1208=AXIS2_PLACEMENT_3D('',#1702,#1369,#1370);
#1209=AXIS2_PLACEMENT_3D('',#1703,#1371,#1372);
#1210=AXIS2_PLACEMENT_3D('',#1721,#1381,#1382);
#1211=AXIS2_PLACEMENT_3D('',#1729,#1386,#1387);
#1212=AXIS2_PLACEMENT_3D('',#1733,#1389,#1390);
#1213=AXIS2_PLACEMENT_3D('',#1741,#1394,#1395);
#1214=AXIS2_PLACEMENT_3D('',#1745,#1397,#1398);
#1215=AXIS2_PLACEMENT_3D('',#1746,#1399,#1400);
#1216=AXIS2_PLACEMENT_3D('',#1750,#1402,#1403);
#1217=AXIS2_PLACEMENT_3D('',#1754,#1405,#1406);
#1218=AXIS2_PLACEMENT_3D('',#1758,#1408,#1409);
#1219=AXIS2_PLACEMENT_3D('',#1762,#1411,#1412);
#1220=AXIS2_PLACEMENT_3D('',#1766,#1414,#1415);
#1221=AXIS2_PLACEMENT_3D('',#1770,#1417,#1418);
#1222=AXIS2_PLACEMENT_3D('',#1771,#1419,#1420);
#1223=AXIS2_PLACEMENT_3D('',#1772,#1421,#1422);
#1224=AXIS2_PLACEMENT_3D('',#1781,#1426,#1427);
#1225=AXIS2_PLACEMENT_3D('',#1784,#1429,#1430);
#1226=AXIS2_PLACEMENT_3D('',#1788,#1432,#1433);
#1227=AXIS2_PLACEMENT_3D('',#1792,#1435,#1436);
#1228=AXIS2_PLACEMENT_3D('',#1796,#1438,#1439);
#1229=AXIS2_PLACEMENT_3D('',#1800,#1441,#1442);
#1230=AXIS2_PLACEMENT_3D('',#1801,#1443,#1444);
#1231=AXIS2_PLACEMENT_3D('',#1810,#1449,#1450);
#1232=AXIS2_PLACEMENT_3D('',#1819,#1455,#1456);
#1233=AXIS2_PLACEMENT_3D('',#1828,#1461,#1462);
#1234=AXIS2_PLACEMENT_3D('',#1837,#1467,#1468);
#1235=AXIS2_PLACEMENT_3D('',#1838,#1469,#1470);
#1236=AXIS2_PLACEMENT_3D('',#1839,#1471,#1472);
#1237=AXIS2_PLACEMENT_3D('',#1843,#1474,#1475);
#1238=AXIS2_PLACEMENT_3D('',#1844,#1476,#1477);
#1239=AXIS2_PLACEMENT_3D('',#1848,#1479,#1480);
#1240=AXIS2_PLACEMENT_3D('',#1849,#1481,#1482);
#1241=AXIS2_PLACEMENT_3D('',#1850,#1483,#1484);
#1242=AXIS2_PLACEMENT_3D('',#1851,#1485,#1486);
#1243=AXIS2_PLACEMENT_3D('',#1852,#1487,#1488);
#1244=AXIS2_PLACEMENT_3D('',#1853,#1489,#1490);
#1245=AXIS2_PLACEMENT_3D('',#1857,#1492,#1493);
#1246=AXIS2_PLACEMENT_3D('',#1858,#1494,#1495);
#1247=AXIS2_PLACEMENT_3D('',#1862,#1497,#1498);
#1248=AXIS2_PLACEMENT_3D('',#1863,#1499,#1500);
#1249=AXIS2_PLACEMENT_3D('',#1866,#1503,#1504);
#1250=AXIS2_PLACEMENT_3D('',#1869,#1507,#1508);
#1251=AXIS2_PLACEMENT_3D('',#1870,#1509,#1510);
#1252=AXIS2_PLACEMENT_3D('',#1871,#1511,#1512);
#1253=AXIS2_PLACEMENT_3D('',#1872,#1513,#1514);
#1254=AXIS2_PLACEMENT_3D('',#1873,#1515,#1516);
#1255=AXIS2_PLACEMENT_3D('',#1874,#1517,#1518);
#1256=DIRECTION('',(0.,0.,1.));
#1257=DIRECTION('',(1.,0.,0.));
#1258=DIRECTION('',(0.,0.,-1.));
#1259=DIRECTION('',(-1.,0.,0.));
#1260=DIRECTION('',(-1.,0.,0.));
#1261=DIRECTION('',(0.,-1.,0.));
#1262=DIRECTION('',(1.,0.,0.));
#1263=DIRECTION('',(0.965925826289068,-0.258819045102521,0.));
#1264=DIRECTION('',(0.,1.,0.));
#1265=DIRECTION('',(-0.965925826289068,0.258819045102521,0.));
#1266=DIRECTION('',(0.965925826289068,0.258819045102522,0.));
#1267=DIRECTION('',(0.,1.,0.));
#1268=DIRECTION('',(-0.965925826289068,-0.258819045102521,0.));
#1269=DIRECTION('',(0.,0.,-1.));
#1270=DIRECTION('',(-1.,0.,0.));
#1271=DIRECTION('',(0.,1.,0.));
#1272=DIRECTION('',(-0.965925826289068,-0.258819045102521,0.));
#1273=DIRECTION('',(0.965925826289068,-0.258819045102521,0.));
#1274=DIRECTION('',(0.,1.,0.));
#1275=DIRECTION('',(-0.965925826289068,0.258819045102522,0.));
#1276=DIRECTION('',(1.,2.04545964640935E-16,0.));
#1277=DIRECTION('',(0.,1.,0.));
#1278=DIRECTION('',(-1.,1.02272982320468E-16,0.));
#1279=DIRECTION('',(0.965925826289068,0.258819045102521,0.));
#1280=DIRECTION('',(0.,0.,-1.));
#1281=DIRECTION('',(-1.,0.,0.));
#1282=DIRECTION('',(-4.33680868994202E-15,1.,0.));
#1283=DIRECTION('',(-1.,0.,0.));
#1284=DIRECTION('',(0.,-1.,0.));
#1285=DIRECTION('',(1.,0.,0.));
#1286=DIRECTION('',(0.,1.,0.));
#1287=DIRECTION('',(-1.,0.,0.));
#1288=DIRECTION('',(-1.54886024640786E-16,1.,0.));
#1289=DIRECTION('',(1.,0.,0.));
#1290=DIRECTION('',(0.,1.,0.));
#1291=DIRECTION('',(-1.,0.,0.));
#1292=DIRECTION('',(-1.54886024640786E-16,1.,0.));
#1293=DIRECTION('',(1.,0.,0.));
#1294=DIRECTION('',(0.,0.,-1.));
#1295=DIRECTION('',(-1.,0.,0.));
#1296=DIRECTION('',(1.,0.,0.));
#1297=DIRECTION('',(0.,0.,-1.));
#1298=DIRECTION('',(-1.,0.,0.));
#1299=DIRECTION('',(-1.,-2.06514699521048E-16,0.));
#1300=DIRECTION('',(4.33680868994202E-16,-1.,0.));
#1301=DIRECTION('',(0.,0.,-1.));
#1302=DIRECTION('',(-1.,0.,0.));
#1303=DIRECTION('',(0.,0.,-1.));
#1304=DIRECTION('',(-1.,0.,0.));
#1305=DIRECTION('',(-1.,-1.88556899562696E-16,0.));
#1306=DIRECTION('',(0.,-1.,0.));
#1307=DIRECTION('',(1.,0.,0.));
#1308=DIRECTION('',(7.22801448323669E-16,1.,0.));
#1309=DIRECTION('',(1.,0.,0.));
#1310=DIRECTION('',(0.,0.,-1.));
#1311=DIRECTION('',(-1.,0.,0.));
#1312=DIRECTION('',(0.,0.,-1.));
#1313=DIRECTION('',(-1.,0.,0.));
#1314=DIRECTION('',(0.,0.,-1.));
#1315=DIRECTION('',(-1.,0.,0.));
#1316=DIRECTION('',(0.,0.,-1.));
#1317=DIRECTION('',(-1.,0.,0.));
#1318=DIRECTION('',(0.,1.,0.));
#1319=DIRECTION('',(-1.,0.,0.));
#1320=DIRECTION('',(4.93225911231591E-16,-1.,0.));
#1321=DIRECTION('',(-0.828324059734884,0.560249276719141,0.));
#1322=DIRECTION('',(-1.,0.,0.));
#1323=DIRECTION('',(0.,-1.,0.));
#1324=DIRECTION('',(1.,0.,0.));
#1325=DIRECTION('',(0.,1.,0.));
#1326=DIRECTION('',(0.828324059734884,-0.560249276719141,0.));
#1327=DIRECTION('',(1.,0.,0.));
#1328=DIRECTION('',(0.,0.,-1.));
#1329=DIRECTION('',(-1.,0.,0.));
#1330=DIRECTION('',(-1.,8.67361737988412E-16,0.));
#1331=DIRECTION('',(0.,0.,-1.));
#1332=DIRECTION('',(-1.,0.,0.));
#1333=DIRECTION('',(0.,-1.,0.));
#1334=DIRECTION('',(1.,0.,0.));
#1335=DIRECTION('',(0.,1.,0.));
#1336=DIRECTION('',(0.,0.,-1.));
#1337=DIRECTION('',(-1.,0.,0.));
#1338=DIRECTION('',(0.,0.,-1.));
#1339=DIRECTION('',(-1.,0.,0.));
#1340=DIRECTION('',(0.,-1.,0.));
#1341=DIRECTION('',(1.,0.,0.));
#1342=DIRECTION('',(0.,1.,0.));
#1343=DIRECTION('',(1.,0.,0.));
#1344=DIRECTION('',(-3.46944695195361E-15,-1.,0.));
#1345=DIRECTION('',(1.,0.,0.));
#1346=DIRECTION('',(0.,1.,0.));
#1347=DIRECTION('',(0.,0.,-1.));
#1348=DIRECTION('',(-1.,0.,0.));
#1349=DIRECTION('',(-1.,-8.67361737988415E-16,0.));
#1350=DIRECTION('',(0.,0.,-1.));
#1351=DIRECTION('',(-1.,0.,0.));
#1352=DIRECTION('',(0.,0.,-1.));
#1353=DIRECTION('',(-1.,0.,0.));
#1354=DIRECTION('',(-1.,-1.73472347597681E-16,0.));
#1355=DIRECTION('',(0.,-1.,0.));
#1356=DIRECTION('',(1.,0.,0.));
#1357=DIRECTION('',(0.,-1.,0.));
#1358=DIRECTION('',(1.,0.,0.));
#1359=DIRECTION('',(0.,1.,0.));
#1360=DIRECTION('',(1.,0.,0.));
#1361=DIRECTION('',(0.,1.,0.));
#1362=DIRECTION('',(0.,0.,-1.));
#1363=DIRECTION('',(-1.,0.,0.));
#1364=DIRECTION('',(1.,0.,0.));
#1365=DIRECTION('',(0.,0.,-1.));
#1366=DIRECTION('',(-1.,0.,0.));
#1367=DIRECTION('',(-1.,0.,0.));
#1368=DIRECTION('',(-1.20466908053945E-16,-1.,0.));
#1369=DIRECTION('',(0.,0.,-1.));
#1370=DIRECTION('',(-1.,0.,0.));
#1371=DIRECTION('',(0.,0.,-1.));
#1372=DIRECTION('',(-1.,0.,0.));
#1373=DIRECTION('',(-1.,0.,0.));
#1374=DIRECTION('',(0.,-1.,0.));
#1375=DIRECTION('',(1.,0.,0.));
#1376=DIRECTION('',(0.,1.,0.));
#1377=DIRECTION('',(1.,0.,0.));
#1378=DIRECTION('',(0.707106781186548,-0.707106781186547,0.));
#1379=DIRECTION('',(1.,0.,0.));
#1380=DIRECTION('',(-0.707106781186546,0.707106781186549,0.));
#1381=DIRECTION('',(0.,0.,-1.));
#1382=DIRECTION('',(-1.,0.,0.));
#1383=DIRECTION('',(0.,1.,0.));
#1384=DIRECTION('',(-1.,0.,0.));
#1385=DIRECTION('',(0.,-1.,0.));
#1386=DIRECTION('',(0.,0.,-1.));
#1387=DIRECTION('',(-1.,0.,0.));
#1388=DIRECTION('',(1.,0.,0.));
#1389=DIRECTION('',(0.,0.,-1.));
#1390=DIRECTION('',(-1.,0.,0.));
#1391=DIRECTION('',(0.,1.,0.));
#1392=DIRECTION('',(-1.,0.,0.));
#1393=DIRECTION('',(0.,-1.,0.));
#1394=DIRECTION('',(0.,0.,-1.));
#1395=DIRECTION('',(-1.,0.,0.));
#1396=DIRECTION('',(-1.,0.,0.));
#1397=DIRECTION('',(0.,0.,-1.));
#1398=DIRECTION('',(-1.,0.,0.));
#1399=DIRECTION('',(0.,0.,-1.));
#1400=DIRECTION('',(-1.,0.,0.));
#1401=DIRECTION('',(-1.,0.,0.));
#1402=DIRECTION('',(0.,0.,-1.));
#1403=DIRECTION('',(-1.,0.,0.));
#1404=DIRECTION('',(1.,0.,0.));
#1405=DIRECTION('',(0.,0.,-1.));
#1406=DIRECTION('',(-1.,0.,0.));
#1407=DIRECTION('',(0.,1.,0.));
#1408=DIRECTION('',(0.,0.,-1.));
#1409=DIRECTION('',(-1.,0.,0.));
#1410=DIRECTION('',(-1.,0.,0.));
#1411=DIRECTION('',(0.,0.,-1.));
#1412=DIRECTION('',(-1.,0.,0.));
#1413=DIRECTION('',(1.,0.,0.));
#1414=DIRECTION('',(0.,0.,-1.));
#1415=DIRECTION('',(-1.,0.,0.));
#1416=DIRECTION('',(0.,1.,0.));
#1417=DIRECTION('',(0.,0.,-1.));
#1418=DIRECTION('',(-1.,0.,0.));
#1419=DIRECTION('',(0.,0.,-1.));
#1420=DIRECTION('',(-1.,0.,0.));
#1421=DIRECTION('',(0.,0.,-1.));
#1422=DIRECTION('',(-1.,0.,0.));
#1423=DIRECTION('',(0.866025403784438,0.5,0.));
#1424=DIRECTION('',(-1.,3.70667409396754E-17,0.));
#1425=DIRECTION('',(0.866025403784438,-0.5,0.));
#1426=DIRECTION('',(0.,0.,-1.));
#1427=DIRECTION('',(-1.,0.,0.));
#1428=DIRECTION('',(1.,6.56805054360911E-17,0.));
#1429=DIRECTION('',(0.,0.,-1.));
#1430=DIRECTION('',(-1.,0.,0.));
#1431=DIRECTION('',(0.,-1.,0.));
#1432=DIRECTION('',(0.,0.,-1.));
#1433=DIRECTION('',(-1.,0.,0.));
#1434=DIRECTION('',(1.,0.,0.));
#1435=DIRECTION('',(0.,0.,-1.));
#1436=DIRECTION('',(-1.,0.,0.));
#1437=DIRECTION('',(0.,1.,0.));
#1438=DIRECTION('',(0.,0.,-1.));
#1439=DIRECTION('',(-1.,0.,0.));
#1440=DIRECTION('',(-1.,0.,0.));
#1441=DIRECTION('',(0.,0.,-1.));
#1442=DIRECTION('',(-1.,0.,0.));
#1443=DIRECTION('',(1.,0.,0.));
#1444=DIRECTION('',(0.,0.,-1.));
#1445=DIRECTION('',(0.,1.,0.));
#1446=DIRECTION('',(0.,0.,1.));
#1447=DIRECTION('',(0.,1.,0.));
#1448=DIRECTION('',(0.,0.,1.));
#1449=DIRECTION('',(0.,-1.,0.));
#1450=DIRECTION('',(0.,0.,-1.));
#1451=DIRECTION('',(1.,0.,0.));
#1452=DIRECTION('',(0.,0.,1.));
#1453=DIRECTION('',(1.,0.,0.));
#1454=DIRECTION('',(0.,0.,1.));
#1455=DIRECTION('',(-1.,0.,0.));
#1456=DIRECTION('',(0.,0.,1.));
#1457=DIRECTION('',(0.,-1.,0.));
#1458=DIRECTION('',(0.,0.,1.));
#1459=DIRECTION('',(0.,-1.,0.));
#1460=DIRECTION('',(0.,0.,1.));
#1461=DIRECTION('',(0.,1.,0.));
#1462=DIRECTION('',(0.,0.,1.));
#1463=DIRECTION('',(-1.,0.,0.));
#1464=DIRECTION('',(0.,0.,1.));
#1465=DIRECTION('',(-1.,0.,0.));
#1466=DIRECTION('',(0.,0.,1.));
#1467=DIRECTION('',(0.,0.,-1.));
#1468=DIRECTION('',(-1.,0.,0.));
#1469=DIRECTION('',(0.,0.,-1.));
#1470=DIRECTION('',(-1.,0.,0.));
#1471=DIRECTION('',(0.,0.,-1.));
#1472=DIRECTION('',(-1.,0.,0.));
#1473=DIRECTION('',(-0.866025403784438,-0.5,0.));
#1474=DIRECTION('',(0.,0.,-1.));
#1475=DIRECTION('',(-1.,0.,0.));
#1476=DIRECTION('',(0.,0.,-1.));
#1477=DIRECTION('',(-1.,0.,0.));
#1478=DIRECTION('',(-0.866025403784438,0.5,0.));
#1479=DIRECTION('',(0.,0.,-1.));
#1480=DIRECTION('',(-1.,0.,0.));
#1481=DIRECTION('',(0.,0.,-1.));
#1482=DIRECTION('',(-1.,0.,0.));
#1483=DIRECTION('',(0.,0.,-1.));
#1484=DIRECTION('',(-1.,0.,0.));
#1485=DIRECTION('',(0.,0.,-1.));
#1486=DIRECTION('',(-1.,0.,0.));
#1487=DIRECTION('',(0.,0.,-1.));
#1488=DIRECTION('',(-1.,0.,0.));
#1489=DIRECTION('',(0.,0.,-1.));
#1490=DIRECTION('',(-1.,0.,0.));
#1491=DIRECTION('',(-0.866025403784438,0.5,0.));
#1492=DIRECTION('',(0.,0.,-1.));
#1493=DIRECTION('',(-1.,0.,0.));
#1494=DIRECTION('',(0.,0.,-1.));
#1495=DIRECTION('',(-1.,0.,0.));
#1496=DIRECTION('',(-0.866025403784438,-0.5,0.));
#1497=DIRECTION('',(0.,0.,-1.));
#1498=DIRECTION('',(-1.,0.,0.));
#1499=DIRECTION('',(0.5,0.866025403784438,0.));
#1500=DIRECTION('',(-0.866025403784438,0.5,0.));
#1501=DIRECTION('',(0.,0.,1.));
#1502=DIRECTION('',(0.,0.,1.));
#1503=DIRECTION('',(-0.5,0.866025403784438,0.));
#1504=DIRECTION('',(-0.866025403784438,-0.5,0.));
#1505=DIRECTION('',(0.,0.,1.));
#1506=DIRECTION('',(0.,0.,1.));
#1507=DIRECTION('',(0.,0.,1.));
#1508=DIRECTION('',(1.,0.,0.));
#1509=DIRECTION('',(0.,0.,1.));
#1510=DIRECTION('',(1.,0.,0.));
#1511=DIRECTION('',(0.,0.,-1.));
#1512=DIRECTION('',(-1.,0.,0.));
#1513=DIRECTION('',(0.,0.,-1.));
#1514=DIRECTION('',(-1.,0.,0.));
#1515=DIRECTION('',(0.,0.,-1.));
#1516=DIRECTION('',(-1.,0.,0.));
#1517=DIRECTION('',(0.,0.,-1.));
#1518=DIRECTION('',(-1.,0.,0.));
#1519=CARTESIAN_POINT('',(0.,0.,0.));
#1520=CARTESIAN_POINT('',(0.,0.,0.));
#1521=CARTESIAN_POINT('',(0.009,-0.0038,0.));
#1522=CARTESIAN_POINT('',(0.0109868347502413,-0.0038,0.));
#1523=CARTESIAN_POINT('',(0.009,-0.0038,0.));
#1524=CARTESIAN_POINT('',(0.009,-0.0038,0.));
#1525=CARTESIAN_POINT('',(0.009,-0.004,0.));
#1526=CARTESIAN_POINT('',(0.009,-0.004,0.));
#1527=CARTESIAN_POINT('',(0.0109868347502413,-0.004,0.));
#1528=CARTESIAN_POINT('',(0.0109868347502413,-0.004,0.));
#1529=CARTESIAN_POINT('',(0.014,-0.00480737519533438,0.));
#1530=CARTESIAN_POINT('',(0.014,-0.00480737519533438,0.));
#1531=CARTESIAN_POINT('',(0.014,-0.00460031995925236,0.));
#1532=CARTESIAN_POINT('',(0.0113863703305156,-0.0039,0.));
#1533=CARTESIAN_POINT('',(0.0113863703305156,-0.0039,0.));
#1534=CARTESIAN_POINT('',(0.0113863703305156,-0.0039,0.));
#1535=CARTESIAN_POINT('',(0.014,-0.00319968004074764,0.));
#1536=CARTESIAN_POINT('',(0.014,-0.00319968004074764,0.));
#1537=CARTESIAN_POINT('',(0.014,-0.00299262480466562,0.));
#1538=CARTESIAN_POINT('',(0.0109868347502413,-0.0038,0.));
#1539=CARTESIAN_POINT('',(0.,0.,0.));
#1540=CARTESIAN_POINT('',(-0.011,-0.00299262480466563,0.));
#1541=CARTESIAN_POINT('',(-0.011,-0.00319968004074764,0.));
#1542=CARTESIAN_POINT('',(-0.011,-0.00299262480466563,0.));
#1543=CARTESIAN_POINT('',(-0.0143863703305156,-0.0039,0.));
#1544=CARTESIAN_POINT('',(-0.0143863703305156,-0.0039,0.));
#1545=CARTESIAN_POINT('',(-0.0143863703305156,-0.0039,0.));
#1546=CARTESIAN_POINT('',(-0.011,-0.00480737519533438,0.));
#1547=CARTESIAN_POINT('',(-0.011,-0.00460031995925237,0.));
#1548=CARTESIAN_POINT('',(-0.011,-0.00460031995925237,0.));
#1549=CARTESIAN_POINT('',(-0.0132404245887275,-0.004,0.));
#1550=CARTESIAN_POINT('',(-0.0132404245887275,-0.004,0.));
#1551=CARTESIAN_POINT('',(-0.009,-0.004,0.));
#1552=CARTESIAN_POINT('',(-0.009,-0.004,0.));
#1553=CARTESIAN_POINT('',(-0.009,-0.0038,0.));
#1554=CARTESIAN_POINT('',(-0.009,-0.0038,0.));
#1555=CARTESIAN_POINT('',(-0.009,-0.0038,0.));
#1556=CARTESIAN_POINT('',(-0.0132404245887275,-0.0038,0.));
#1557=CARTESIAN_POINT('',(-0.0132404245887275,-0.0038,0.));
#1558=CARTESIAN_POINT('',(0.,0.,0.));
#1559=CARTESIAN_POINT('',(0.0035,-0.0029,0.));
#1560=CARTESIAN_POINT('',(0.0035,-0.0031,0.));
#1561=CARTESIAN_POINT('',(0.0035,-0.0029,0.));
#1562=CARTESIAN_POINT('',(0.0005,-0.0029,0.));
#1563=CARTESIAN_POINT('',(0.0005,-0.0029,0.));
#1564=CARTESIAN_POINT('',(0.0005,-0.0029,0.));
#1565=CARTESIAN_POINT('',(0.0005,-0.0049,0.));
#1566=CARTESIAN_POINT('',(0.0005,-0.0049,0.));
#1567=CARTESIAN_POINT('',(0.0035,-0.0049,0.));
#1568=CARTESIAN_POINT('',(0.0035,-0.0047,0.));
#1569=CARTESIAN_POINT('',(0.0035,-0.0047,0.));
#1570=CARTESIAN_POINT('',(0.0007,-0.0047,0.));
#1571=CARTESIAN_POINT('',(0.0007,-0.0047,0.));
#1572=CARTESIAN_POINT('',(0.0007,-0.004,0.));
#1573=CARTESIAN_POINT('',(0.0007,-0.004,0.));
#1574=CARTESIAN_POINT('',(0.0007,-0.004,0.));
#1575=CARTESIAN_POINT('',(0.002,-0.004,0.));
#1576=CARTESIAN_POINT('',(0.002,-0.0038,0.));
#1577=CARTESIAN_POINT('',(0.002,-0.0038,0.));
#1578=CARTESIAN_POINT('',(0.0007,-0.0038,0.));
#1579=CARTESIAN_POINT('',(0.0007,-0.0038,0.));
#1580=CARTESIAN_POINT('',(0.0007,-0.0031,0.));
#1581=CARTESIAN_POINT('',(0.0007,-0.0031,0.));
#1582=CARTESIAN_POINT('',(0.0007,-0.0031,0.));
#1583=CARTESIAN_POINT('',(0.,0.,0.));
#1584=CARTESIAN_POINT('',(-0.0012,-0.0041,0.));
#1585=CARTESIAN_POINT('',(-0.0033,-0.0041,0.));
#1586=CARTESIAN_POINT('',(-0.0012,-0.0041,0.));
#1587=CARTESIAN_POINT('',(-0.0012,-0.0036,0.));
#1588=CARTESIAN_POINT('',(-0.0012,-0.0031,0.));
#1589=CARTESIAN_POINT('',(-0.0033,-0.0031,0.));
#1590=CARTESIAN_POINT('',(-0.0033,-0.0031,0.));
#1591=CARTESIAN_POINT('',(-0.0033,-0.0031,0.));
#1592=CARTESIAN_POINT('',(0.,0.,0.));
#1593=CARTESIAN_POINT('',(-0.0012,-0.0036,0.));
#1594=CARTESIAN_POINT('',(-0.0012,-0.0043,0.));
#1595=CARTESIAN_POINT('',(-0.0012,-0.0029,0.));
#1596=CARTESIAN_POINT('',(-0.0035,-0.0029,0.));
#1597=CARTESIAN_POINT('',(-0.0035,-0.0029,0.));
#1598=CARTESIAN_POINT('',(-0.0035,-0.0029,0.));
#1599=CARTESIAN_POINT('',(-0.0035,-0.0049,0.));
#1600=CARTESIAN_POINT('',(-0.0035,-0.0049,0.));
#1601=CARTESIAN_POINT('',(-0.0033,-0.0049,0.));
#1602=CARTESIAN_POINT('',(-0.0033,-0.0043,0.));
#1603=CARTESIAN_POINT('',(-0.0033,-0.0043,0.));
#1604=CARTESIAN_POINT('',(-0.0012,-0.0043,0.));
#1605=CARTESIAN_POINT('',(0.,0.,0.));
#1606=CARTESIAN_POINT('',(-0.00707094879863104,-0.00331594847602461,0.));
#1607=CARTESIAN_POINT('',(-0.00741452560068448,-0.0039,0.));
#1608=CARTESIAN_POINT('',(-0.00707094879863104,-0.0044840515239754,0.));
#1609=CARTESIAN_POINT('',(-0.006,-0.00480797423801231,0.));
#1610=CARTESIAN_POINT('',(-0.00492905120136896,-0.0044840515239754,0.));
#1611=CARTESIAN_POINT('',(-0.00458547439931552,-0.0039,0.));
#1612=CARTESIAN_POINT('',(-0.00492905120136896,-0.00331594847602461,0.));
#1613=CARTESIAN_POINT('',(-0.006,-0.0029920257619877,0.));
#1614=CARTESIAN_POINT('',(-0.00707094879863104,-0.00331594847602461,0.));
#1615=CARTESIAN_POINT('',(-0.00741452560068448,-0.0039,0.));
#1616=CARTESIAN_POINT('',(-0.00707094879863104,-0.0044840515239754,0.));
#1617=CARTESIAN_POINT('',(-0.0073,-0.0039,0.));
#1618=CARTESIAN_POINT('',(0.,0.,0.));
#1619=CARTESIAN_POINT('',(-0.006,-0.0039,0.));
#1620=CARTESIAN_POINT('',(-0.0075,-0.0039,0.));
#1621=CARTESIAN_POINT('',(0.,0.,0.));
#1622=CARTESIAN_POINT('',(0.0075,-0.0049,0.));
#1623=CARTESIAN_POINT('',(0.0075,-0.0049,0.));
#1624=CARTESIAN_POINT('',(0.0075,-0.0029,0.));
#1625=CARTESIAN_POINT('',(0.0073,-0.0029,0.));
#1626=CARTESIAN_POINT('',(0.0073,-0.0029,0.));
#1627=CARTESIAN_POINT('',(0.0073,-0.00465854860468014,0.));
#1628=CARTESIAN_POINT('',(0.0073,-0.00465854860468014,0.));
#1629=CARTESIAN_POINT('',(0.0047,-0.0029,0.));
#1630=CARTESIAN_POINT('',(0.0047,-0.0029,0.));
#1631=CARTESIAN_POINT('',(0.0045,-0.0029,0.));
#1632=CARTESIAN_POINT('',(0.0045,-0.0029,0.));
#1633=CARTESIAN_POINT('',(0.0045,-0.0029,0.));
#1634=CARTESIAN_POINT('',(0.0045,-0.0049,0.));
#1635=CARTESIAN_POINT('',(0.0045,-0.0049,0.));
#1636=CARTESIAN_POINT('',(0.0047,-0.0049,0.));
#1637=CARTESIAN_POINT('',(0.0047,-0.00314145139531987,0.));
#1638=CARTESIAN_POINT('',(0.0047,-0.00314145139531987,0.));
#1639=CARTESIAN_POINT('',(0.0047,-0.00314145139531987,0.));
#1640=CARTESIAN_POINT('',(0.0073,-0.0049,0.));
#1641=CARTESIAN_POINT('',(0.0073,-0.0049,0.));
#1642=CARTESIAN_POINT('',(0.,0.,0.));
#1643=CARTESIAN_POINT('',(0.0175,0.0049,0.));
#1644=CARTESIAN_POINT('',(0.0185,0.0049,0.));
#1645=CARTESIAN_POINT('',(0.0175,0.0049,0.));
#1646=CARTESIAN_POINT('',(0.0175,0.0035,0.));
#1647=CARTESIAN_POINT('',(0.0161,0.0035,0.));
#1648=CARTESIAN_POINT('',(0.0161,0.0035,0.));
#1649=CARTESIAN_POINT('',(0.0161,0.0031,0.));
#1650=CARTESIAN_POINT('',(0.0161,0.0031,0.));
#1651=CARTESIAN_POINT('',(0.0199,0.0031,0.));
#1652=CARTESIAN_POINT('',(0.0199,0.0035,0.));
#1653=CARTESIAN_POINT('',(0.0199,0.0035,0.));
#1654=CARTESIAN_POINT('',(0.0185,0.0035,0.));
#1655=CARTESIAN_POINT('',(0.,0.,0.));
#1656=CARTESIAN_POINT('',(0.0155,0.0035,0.));
#1657=CARTESIAN_POINT('',(0.0155,0.0035,0.));
#1658=CARTESIAN_POINT('',(0.0155,0.0015,0.));
#1659=CARTESIAN_POINT('',(0.0155,0.0015,0.));
#1660=CARTESIAN_POINT('',(0.0161,0.0015,0.));
#1661=CARTESIAN_POINT('',(0.0161,0.0025,0.));
#1662=CARTESIAN_POINT('',(0.0161,0.0025,0.));
#1663=CARTESIAN_POINT('',(0.0161,0.0025,0.));
#1664=CARTESIAN_POINT('',(0.0199,0.0025,0.));
#1665=CARTESIAN_POINT('',(0.0199,0.0025,0.));
#1666=CARTESIAN_POINT('',(0.0199,0.0015,0.));
#1667=CARTESIAN_POINT('',(0.0199,0.0015,0.));
#1668=CARTESIAN_POINT('',(0.0205,0.0015,0.));
#1669=CARTESIAN_POINT('',(0.0205,0.0035,0.));
#1670=CARTESIAN_POINT('',(0.0205,0.0035,0.));
#1671=CARTESIAN_POINT('',(0.0185,0.0035,0.));
#1672=CARTESIAN_POINT('',(0.0185,0.0055,0.));
#1673=CARTESIAN_POINT('',(0.0175,0.0055,0.));
#1674=CARTESIAN_POINT('',(0.0175,0.0055,0.));
#1675=CARTESIAN_POINT('',(0.0175,0.0035,0.));
#1676=CARTESIAN_POINT('',(0.,0.,0.));
#1677=CARTESIAN_POINT('',(0.0065,0.0055,0.));
#1678=CARTESIAN_POINT('',(0.0115,0.0055,0.));
#1679=CARTESIAN_POINT('',(0.0065,0.0055,0.));
#1680=CARTESIAN_POINT('',(0.0065,0.0055,0.));
#1681=CARTESIAN_POINT('',(0.0065,0.0049,0.));
#1682=CARTESIAN_POINT('',(0.0065,0.0049,0.));
#1683=CARTESIAN_POINT('',(0.0087,0.0049,0.));
#1684=CARTESIAN_POINT('',(0.0087,0.0049,0.));
#1685=CARTESIAN_POINT('',(0.0087,0.0015,0.));
#1686=CARTESIAN_POINT('',(0.0087,0.0015,0.));
#1687=CARTESIAN_POINT('',(0.0093,0.0015,0.));
#1688=CARTESIAN_POINT('',(0.0093,0.0049,0.));
#1689=CARTESIAN_POINT('',(0.0093,0.0049,0.));
#1690=CARTESIAN_POINT('',(0.0093,0.0049,0.));
#1691=CARTESIAN_POINT('',(0.0115,0.0049,0.));
#1692=CARTESIAN_POINT('',(0.0115,0.0055,0.));
#1693=CARTESIAN_POINT('',(0.,0.,0.));
#1694=CARTESIAN_POINT('',(-0.0019,0.0031,0.));
#1695=CARTESIAN_POINT('',(-0.0019,0.0031,0.));
#1696=CARTESIAN_POINT('',(0.001,0.0031,0.));
#1697=CARTESIAN_POINT('',(0.001,0.004,0.));
#1698=CARTESIAN_POINT('',(0.001,0.0049,0.));
#1699=CARTESIAN_POINT('',(-0.0019,0.0049,0.));
#1700=CARTESIAN_POINT('',(-0.0019,0.0049,0.));
#1701=CARTESIAN_POINT('',(-0.0019,0.0049,0.));
#1702=CARTESIAN_POINT('',(0.,0.,0.));
#1703=CARTESIAN_POINT('',(0.001,0.004,0.));
#1704=CARTESIAN_POINT('',(0.00143541434669348,0.00256458565330652,0.));
#1705=CARTESIAN_POINT('',(0.001,0.0055,0.));
#1706=CARTESIAN_POINT('',(-0.0025,0.0055,0.));
#1707=CARTESIAN_POINT('',(-0.0025,0.0055,0.));
#1708=CARTESIAN_POINT('',(-0.0025,0.0055,0.));
#1709=CARTESIAN_POINT('',(-0.0025,0.0015,0.));
#1710=CARTESIAN_POINT('',(-0.0025,0.0015,0.));
#1711=CARTESIAN_POINT('',(-0.0019,0.0015,0.));
#1712=CARTESIAN_POINT('',(-0.0019,0.0025,0.));
#1713=CARTESIAN_POINT('',(-0.0019,0.0025,0.));
#1714=CARTESIAN_POINT('',(-0.0019,0.0025,0.));
#1715=CARTESIAN_POINT('',(0.000651471862576145,0.0025,0.));
#1716=CARTESIAN_POINT('',(0.000651471862576145,0.0025,0.));
#1717=CARTESIAN_POINT('',(0.00165147186257615,0.0015,0.));
#1718=CARTESIAN_POINT('',(0.0025,0.0015,0.));
#1719=CARTESIAN_POINT('',(0.0025,0.0015,0.));
#1720=CARTESIAN_POINT('',(0.00143541434669348,0.00256458565330652,0.));
#1721=CARTESIAN_POINT('',(0.,0.,0.));
#1722=CARTESIAN_POINT('',(-0.0109,0.0055,0.));
#1723=CARTESIAN_POINT('',(-0.0109,0.0035,0.));
#1724=CARTESIAN_POINT('',(-0.0109,0.0055,0.));
#1725=CARTESIAN_POINT('',(-0.0115,0.0055,0.));
#1726=CARTESIAN_POINT('',(-0.0115,0.0055,0.));
#1727=CARTESIAN_POINT('',(-0.0115,0.0055,0.));
#1728=CARTESIAN_POINT('',(-0.0115,0.0035,0.));
#1729=CARTESIAN_POINT('',(-0.0095,0.0035,0.));
#1730=CARTESIAN_POINT('',(-0.0095,0.0015,0.));
#1731=CARTESIAN_POINT('',(-0.0095,0.0015,0.));
#1732=CARTESIAN_POINT('',(-0.0085,0.0015,0.));
#1733=CARTESIAN_POINT('',(-0.0085,0.0035,0.));
#1734=CARTESIAN_POINT('',(-0.0065,0.0035,0.));
#1735=CARTESIAN_POINT('',(-0.0065,0.0055,0.));
#1736=CARTESIAN_POINT('',(-0.0065,0.0055,0.));
#1737=CARTESIAN_POINT('',(-0.0071,0.0055,0.));
#1738=CARTESIAN_POINT('',(-0.0071,0.0055,0.));
#1739=CARTESIAN_POINT('',(-0.0071,0.0055,0.));
#1740=CARTESIAN_POINT('',(-0.0071,0.0035,0.));
#1741=CARTESIAN_POINT('',(-0.0085,0.0035,0.));
#1742=CARTESIAN_POINT('',(-0.0085,0.0021,0.));
#1743=CARTESIAN_POINT('',(-0.0095,0.0021,0.));
#1744=CARTESIAN_POINT('',(-0.0095,0.0021,0.));
#1745=CARTESIAN_POINT('',(-0.0095,0.0035,0.));
#1746=CARTESIAN_POINT('',(0.,0.,0.));
#1747=CARTESIAN_POINT('',(-0.0185,0.0055,0.));
#1748=CARTESIAN_POINT('',(-0.0163,0.0055,0.));
#1749=CARTESIAN_POINT('',(-0.0185,0.0055,0.));
#1750=CARTESIAN_POINT('',(-0.0185,0.0035,0.));
#1751=CARTESIAN_POINT('',(-0.0185,0.0015,0.));
#1752=CARTESIAN_POINT('',(-0.0185,0.0015,0.));
#1753=CARTESIAN_POINT('',(-0.0163,0.0015,0.));
#1754=CARTESIAN_POINT('',(-0.0163,0.0035,0.));
#1755=CARTESIAN_POINT('',(-0.0155,0.00166696972201766,0.));
#1756=CARTESIAN_POINT('',(-0.0155,0.00235108747069239,0.));
#1757=CARTESIAN_POINT('',(-0.0155,0.00235108747069239,0.));
#1758=CARTESIAN_POINT('',(-0.0163,0.0035,0.));
#1759=CARTESIAN_POINT('',(-0.0163,0.0021,0.));
#1760=CARTESIAN_POINT('',(-0.0185,0.0021,0.));
#1761=CARTESIAN_POINT('',(-0.0185,0.0021,0.));
#1762=CARTESIAN_POINT('',(-0.0185,0.0035,0.));
#1763=CARTESIAN_POINT('',(-0.0185,0.0049,0.));
#1764=CARTESIAN_POINT('',(-0.0185,0.0049,0.));
#1765=CARTESIAN_POINT('',(-0.0163,0.0049,0.));
#1766=CARTESIAN_POINT('',(-0.0163,0.0035,0.));
#1767=CARTESIAN_POINT('',(-0.0155,0.00464891252930761,0.));
#1768=CARTESIAN_POINT('',(-0.0155,0.00533303027798234,0.));
#1769=CARTESIAN_POINT('',(-0.0155,0.00533303027798234,0.));
#1770=CARTESIAN_POINT('',(-0.0163,0.0035,0.));
#1771=CARTESIAN_POINT('',(0.,0.,0.));
#1772=CARTESIAN_POINT('',(0.0132057713659401,-0.0055,0.));
#1773=CARTESIAN_POINT('',(0.0132057713659401,-0.0067,0.));
#1774=CARTESIAN_POINT('',(0.0138057713659401,-0.00653923048454133,0.));
#1775=CARTESIAN_POINT('',(0.0138057713659401,-0.00653923048454132,0.));
#1776=CARTESIAN_POINT('',(0.0234,-0.001,0.));
#1777=CARTESIAN_POINT('',(-0.0234,-0.001,0.));
#1778=CARTESIAN_POINT('',(-0.0234,-0.001,0.));
#1779=CARTESIAN_POINT('',(-0.0138057713659401,-0.00653923048454133,0.));
#1780=CARTESIAN_POINT('',(-0.0138057713659401,-0.00653923048454133,0.));
#1781=CARTESIAN_POINT('',(-0.0132057713659401,-0.0055,0.));
#1782=CARTESIAN_POINT('',(-0.0132057713659401,-0.0067,0.));
#1783=CARTESIAN_POINT('',(-0.0132057713659401,-0.0067,0.));
#1784=CARTESIAN_POINT('',(0.,0.,0.));
#1785=CARTESIAN_POINT('',(-0.0235,0.0055,0.));
#1786=CARTESIAN_POINT('',(-0.0235,0.0055,0.));
#1787=CARTESIAN_POINT('',(-0.0235,0.0005,0.));
#1788=CARTESIAN_POINT('',(-0.0225,0.0005,0.));
#1789=CARTESIAN_POINT('',(-0.0225,-0.0005,0.));
#1790=CARTESIAN_POINT('',(-0.0225,-0.0005,0.));
#1791=CARTESIAN_POINT('',(0.0225,-0.0005,0.));
#1792=CARTESIAN_POINT('',(0.0225,0.0005,0.));
#1793=CARTESIAN_POINT('',(0.0235,0.0005,0.));
#1794=CARTESIAN_POINT('',(0.0235,0.0005,0.));
#1795=CARTESIAN_POINT('',(0.0235,0.0055,0.));
#1796=CARTESIAN_POINT('',(0.0225,0.0055,0.));
#1797=CARTESIAN_POINT('',(0.0225,0.0065,0.));
#1798=CARTESIAN_POINT('',(0.0225,0.0065,0.));
#1799=CARTESIAN_POINT('',(-0.0225,0.0065,0.));
#1800=CARTESIAN_POINT('',(-0.0225,0.0055,0.));
#1801=CARTESIAN_POINT('',(0.024,-0.007,-0.0005));
#1802=CARTESIAN_POINT('',(0.024,-0.007,-0.0005));
#1803=CARTESIAN_POINT('',(0.024,-0.000133974596215555,-0.0005));
#1804=CARTESIAN_POINT('',(0.024,0.0055,-0.0005));
#1805=CARTESIAN_POINT('',(0.024,0.0055,-0.0005));
#1806=CARTESIAN_POINT('',(0.024,0.0055,0.));
#1807=CARTESIAN_POINT('',(0.024,-0.007,0.));
#1808=CARTESIAN_POINT('',(0.024,-0.000133974596215555,0.));
#1809=CARTESIAN_POINT('',(0.024,-0.000133974596215555,-0.0005));
#1810=CARTESIAN_POINT('',(-0.024,-0.007,-0.0005));
#1811=CARTESIAN_POINT('',(-0.024,-0.007,-0.0005));
#1812=CARTESIAN_POINT('',(-0.0132057713659401,-0.007,-0.0005));
#1813=CARTESIAN_POINT('',(0.0132057713659401,-0.007,-0.0005));
#1814=CARTESIAN_POINT('',(0.0132057713659401,-0.007,0.));
#1815=CARTESIAN_POINT('',(0.0132057713659401,-0.007,0.));
#1816=CARTESIAN_POINT('',(-0.024,-0.007,0.));
#1817=CARTESIAN_POINT('',(-0.0132057713659401,-0.007,0.));
#1818=CARTESIAN_POINT('',(-0.0132057713659401,-0.007,-0.0005));
#1819=CARTESIAN_POINT('',(-0.024,-0.007,-0.0005));
#1820=CARTESIAN_POINT('',(-0.024,-0.007,0.));
#1821=CARTESIAN_POINT('',(-0.024,0.0055,0.));
#1822=CARTESIAN_POINT('',(-0.024,-0.000133974596215565,0.));
#1823=CARTESIAN_POINT('',(-0.024,0.0055,-0.0005));
#1824=CARTESIAN_POINT('',(-0.024,0.0055,-0.0005));
#1825=CARTESIAN_POINT('',(-0.024,-0.007,-0.0005));
#1826=CARTESIAN_POINT('',(-0.024,-0.000133974596215565,-0.0005));
#1827=CARTESIAN_POINT('',(-0.024,-0.000133974596215565,0.));
#1828=CARTESIAN_POINT('',(-0.024,0.007,-0.0005));
#1829=CARTESIAN_POINT('',(-0.024,0.007,0.));
#1830=CARTESIAN_POINT('',(0.0225,0.007,0.));
#1831=CARTESIAN_POINT('',(-0.0225,0.007,0.));
#1832=CARTESIAN_POINT('',(0.0225,0.007,-0.0005));
#1833=CARTESIAN_POINT('',(0.0225,0.007,-0.0005));
#1834=CARTESIAN_POINT('',(-0.024,0.007,-0.0005));
#1835=CARTESIAN_POINT('',(-0.0225,0.007,-0.0005));
#1836=CARTESIAN_POINT('',(-0.0225,0.007,-0.0005));
#1837=CARTESIAN_POINT('',(0.,0.,-0.0005));
#1838=CARTESIAN_POINT('',(0.0225,0.0055,-0.0005));
#1839=CARTESIAN_POINT('',(0.0225,-0.000133974596215555,-0.0005));
#1840=CARTESIAN_POINT('',(0.02325,-0.00143301270189221,-0.0005));
#1841=CARTESIAN_POINT('',(0.024,-0.001,-0.0005));
#1842=CARTESIAN_POINT('',(0.0139557713659401,-0.00679903810567665,-0.0005));
#1843=CARTESIAN_POINT('',(0.0132057713659401,-0.0055,-0.0005));
#1844=CARTESIAN_POINT('',(-0.0132057713659401,-0.0055,-0.0005));
#1845=CARTESIAN_POINT('',(-0.0139557713659401,-0.00679903810567666,-0.0005));
#1846=CARTESIAN_POINT('',(-0.024,-0.001,-0.0005));
#1847=CARTESIAN_POINT('',(-0.02325,-0.00143301270189222,-0.0005));
#1848=CARTESIAN_POINT('',(-0.0225,-0.000133974596215565,-0.0005));
#1849=CARTESIAN_POINT('',(-0.0225,0.0055,-0.0005));
#1850=CARTESIAN_POINT('',(0.,0.,0.));
#1851=CARTESIAN_POINT('',(0.0225,0.0055,0.));
#1852=CARTESIAN_POINT('',(-0.0225,0.0055,0.));
#1853=CARTESIAN_POINT('',(-0.0225,-0.000133974596215565,0.));
#1854=CARTESIAN_POINT('',(-0.02325,-0.00143301270189222,0.));
#1855=CARTESIAN_POINT('',(-0.024,-0.001,0.));
#1856=CARTESIAN_POINT('',(-0.0139557713659401,-0.00679903810567666,0.));
#1857=CARTESIAN_POINT('',(-0.0132057713659401,-0.0055,0.));
#1858=CARTESIAN_POINT('',(0.0132057713659401,-0.0055,0.));
#1859=CARTESIAN_POINT('',(0.0139557713659401,-0.00679903810567665,0.));
#1860=CARTESIAN_POINT('',(0.024,-0.001,0.));
#1861=CARTESIAN_POINT('',(0.02325,-0.00143301270189221,0.));
#1862=CARTESIAN_POINT('',(0.0225,-0.000133974596215555,0.));
#1863=CARTESIAN_POINT('',(-0.024,-0.001,-0.0005));
#1864=CARTESIAN_POINT('',(-0.0139557713659401,-0.00679903810567666,0.));
#1865=CARTESIAN_POINT('',(-0.02325,-0.00143301270189222,-0.0005));
#1866=CARTESIAN_POINT('',(0.024,-0.001,-0.0005));
#1867=CARTESIAN_POINT('',(0.02325,-0.00143301270189221,0.));
#1868=CARTESIAN_POINT('',(0.0139557713659401,-0.00679903810567665,-0.0005));
#1869=CARTESIAN_POINT('',(0.0225,0.0055,-0.0005));
#1870=CARTESIAN_POINT('',(-0.0225,0.0055,-0.0005));
#1871=CARTESIAN_POINT('',(0.0225,-0.000133974596215555,-0.0005));
#1872=CARTESIAN_POINT('',(0.0132057713659401,-0.0055,-0.0005));
#1873=CARTESIAN_POINT('',(-0.0132057713659401,-0.0055,-0.0005));
#1874=CARTESIAN_POINT('',(-0.0225,-0.000133974596215565,-0.0005));
#1875=MECHANICAL_DESIGN_GEOMETRIC_PRESENTATION_REPRESENTATION('',(#1067,
#1068,#1069,#1070,#1071,#1072,#1073,#1074,#1075,#1076,#1077,#1078),#1876);
#1876=(
GEOMETRIC_REPRESENTATION_CONTEXT(3)
GLOBAL_UNCERTAINTY_ASSIGNED_CONTEXT((#1877))
GLOBAL_UNIT_ASSIGNED_CONTEXT((#1880,#1879,#1878))
REPRESENTATION_CONTEXT('id2','TOP_LEVEL_ASSEMBLY_PART')
);
#1877=UNCERTAINTY_MEASURE_WITH_UNIT(LENGTH_MEASURE(1.E-8),#1880,
'DISTANCE_ACCURACY_VALUE','Maximum Tolerance applied to model');
#1878=(
NAMED_UNIT(*)
SI_UNIT($,.STERADIAN.)
SOLID_ANGLE_UNIT()
);
#1879=(
NAMED_UNIT(*)
PLANE_ANGLE_UNIT()
SI_UNIT($,.RADIAN.)
);
#1880=(
LENGTH_UNIT()
NAMED_UNIT(*)
SI_UNIT($,.METRE.)
);
#1881=PRODUCT_DEFINITION_SHAPE('','',#1882);
#1882=PRODUCT_DEFINITION('','',#1884,#1883);
#1883=PRODUCT_DEFINITION_CONTEXT('',#1890,'design');
#1884=PRODUCT_DEFINITION_FORMATION_WITH_SPECIFIED_SOURCE('','',#1886,
 .NOT_KNOWN.);
#1885=PRODUCT_RELATED_PRODUCT_CATEGORY('','',(#1886));
#1886=PRODUCT('id2','id2','id2',(#1888));
#1887=PRODUCT_CATEGORY('','');
#1888=PRODUCT_CONTEXT('',#1890,'mechanical');
#1889=APPLICATION_PROTOCOL_DEFINITION('international standard',
'ap242_managed_model_based_3d_engineering',2020,#1890);
#1890=APPLICATION_CONTEXT('managed model based 3d engineering');
ENDSEC;
END-ISO-10303-21;
