ISO-10303-21;
HEADER;
/* Generated by software containing ST-Developer
 * from STEP Tools, Inc. (www.steptools.com) 
 */
/* OPTION: using custom renumber hook */

FILE_DESCRIPTION(
/* description */ ('STEP AP242 Edition 2',
'CAx-IF Rec.Pracs.---Representation and Presentation of Product Manufa
cturing Information (PMI)---4.0---2014-10-13',
'CAx-IF Rec.Pracs.---3D Tessellated Geometry---0.4---2014-09-14','2;1',
'CAx-IF Rec.Pracs.---User Defined Attributes---1.5---2016-08-15'),
/* implementation_level */ '2;1');

FILE_NAME(
/* name */ '2074',
/* time_stamp */ '2026-07-13T05:10:20Z',
/* author */ (''),
/* organization */ (''),
/* preprocessor_version */ 'ST-DEVELOPER v20',
/* originating_system */ 'ONSHAPE BY PTC INC, 1.217',
/* authorisation */ '  ');

FILE_SCHEMA (('AP242_MANAGED_MODEL_BASED_3D_ENGINEERING_MIM_LF { 1 0 10303 442 3 1 4 }'));
ENDSEC;

DATA;
#10=SHAPE_REPRESENTATION_RELATIONSHIP('','',#190,#11);
#11=ADVANCED_BREP_SHAPE_REPRESENTATION('',(#188),#352);
#12=CYLINDRICAL_SURFACE('',#206,0.000625);
#13=CIRCLE('',#199,0.00129903810567667);
#14=CIRCLE('',#201,0.000798205080756887);
#15=CIRCLE('',#203,0.00129903810567667);
#16=CIRCLE('',#205,0.000625);
#17=CIRCLE('',#207,0.000625);
#18=CONICAL_SURFACE('',#198,0.00173205080756889,1.0471975511966);
#19=CONICAL_SURFACE('',#202,0.00129903810567667,1.0471975511966);
#20=CONICAL_SURFACE('',#208,0.000625,1.0471975511966);
#21=LINE('',#260,#27);
#22=LINE('',#268,#28);
#23=LINE('',#282,#29);
#24=LINE('',#296,#30);
#25=LINE('',#310,#31);
#26=LINE('',#324,#32);
#27=VECTOR('',#213,1.);
#28=VECTOR('',#214,1.);
#29=VECTOR('',#217,1.);
#30=VECTOR('',#220,1.);
#31=VECTOR('',#223,1.);
#32=VECTOR('',#226,1.);
#33=ORIENTED_EDGE('',*,*,#79,.F.);
#34=ORIENTED_EDGE('',*,*,#80,.T.);
#35=ORIENTED_EDGE('',*,*,#81,.F.);
#36=ORIENTED_EDGE('',*,*,#82,.F.);
#37=ORIENTED_EDGE('',*,*,#83,.F.);
#38=ORIENTED_EDGE('',*,*,#82,.T.);
#39=ORIENTED_EDGE('',*,*,#84,.F.);
#40=ORIENTED_EDGE('',*,*,#85,.F.);
#41=ORIENTED_EDGE('',*,*,#86,.F.);
#42=ORIENTED_EDGE('',*,*,#85,.T.);
#43=ORIENTED_EDGE('',*,*,#87,.F.);
#44=ORIENTED_EDGE('',*,*,#88,.F.);
#45=ORIENTED_EDGE('',*,*,#89,.F.);
#46=ORIENTED_EDGE('',*,*,#88,.T.);
#47=ORIENTED_EDGE('',*,*,#90,.F.);
#48=ORIENTED_EDGE('',*,*,#91,.F.);
#49=ORIENTED_EDGE('',*,*,#92,.F.);
#50=ORIENTED_EDGE('',*,*,#91,.T.);
#51=ORIENTED_EDGE('',*,*,#93,.F.);
#52=ORIENTED_EDGE('',*,*,#94,.F.);
#53=ORIENTED_EDGE('',*,*,#95,.F.);
#54=ORIENTED_EDGE('',*,*,#94,.T.);
#55=ORIENTED_EDGE('',*,*,#96,.F.);
#56=ORIENTED_EDGE('',*,*,#80,.F.);
#57=ORIENTED_EDGE('',*,*,#81,.T.);
#58=ORIENTED_EDGE('',*,*,#96,.T.);
#59=ORIENTED_EDGE('',*,*,#93,.T.);
#60=ORIENTED_EDGE('',*,*,#90,.T.);
#61=ORIENTED_EDGE('',*,*,#87,.T.);
#62=ORIENTED_EDGE('',*,*,#84,.T.);
#63=ORIENTED_EDGE('',*,*,#97,.F.);
#64=ORIENTED_EDGE('',*,*,#98,.T.);
#65=ORIENTED_EDGE('',*,*,#97,.T.);
#66=ORIENTED_EDGE('',*,*,#79,.T.);
#67=ORIENTED_EDGE('',*,*,#83,.T.);
#68=ORIENTED_EDGE('',*,*,#86,.T.);
#69=ORIENTED_EDGE('',*,*,#89,.T.);
#70=ORIENTED_EDGE('',*,*,#92,.T.);
#71=ORIENTED_EDGE('',*,*,#95,.T.);
#72=ORIENTED_EDGE('',*,*,#99,.T.);
#73=ORIENTED_EDGE('',*,*,#100,.T.);
#74=ORIENTED_EDGE('',*,*,#99,.F.);
#75=ORIENTED_EDGE('',*,*,#101,.T.);
#76=ORIENTED_EDGE('',*,*,#100,.F.);
#77=ORIENTED_EDGE('',*,*,#98,.F.);
#78=ORIENTED_EDGE('',*,*,#101,.F.);
#79=EDGE_CURVE('',#102,#103,#119,.T.);
#80=EDGE_CURVE('',#102,#104,#21,.T.);
#81=EDGE_CURVE('',#105,#104,#120,.T.);
#82=EDGE_CURVE('',#103,#105,#22,.T.);
#83=EDGE_CURVE('',#103,#106,#121,.F.);
#84=EDGE_CURVE('',#107,#105,#122,.T.);
#85=EDGE_CURVE('',#106,#107,#23,.T.);
#86=EDGE_CURVE('',#106,#108,#123,.T.);
#87=EDGE_CURVE('',#109,#107,#124,.T.);
#88=EDGE_CURVE('',#108,#109,#24,.T.);
#89=EDGE_CURVE('',#108,#110,#125,.T.);
#90=EDGE_CURVE('',#111,#109,#126,.T.);
#91=EDGE_CURVE('',#110,#111,#25,.T.);
#92=EDGE_CURVE('',#110,#112,#127,.T.);
#93=EDGE_CURVE('',#113,#111,#128,.F.);
#94=EDGE_CURVE('',#112,#113,#26,.T.);
#95=EDGE_CURVE('',#112,#102,#129,.T.);
#96=EDGE_CURVE('',#104,#113,#130,.T.);
#97=EDGE_CURVE('',#114,#114,#13,.T.);
#98=EDGE_CURVE('',#115,#115,#14,.F.);
#99=EDGE_CURVE('',#116,#116,#15,.T.);
#100=EDGE_CURVE('',#117,#117,#16,.T.);
#101=EDGE_CURVE('',#118,#118,#17,.T.);
#102=VERTEX_POINT('',#258);
#103=VERTEX_POINT('',#259);
#104=VERTEX_POINT('',#261);
#105=VERTEX_POINT('',#267);
#106=VERTEX_POINT('',#275);
#107=VERTEX_POINT('',#281);
#108=VERTEX_POINT('',#289);
#109=VERTEX_POINT('',#295);
#110=VERTEX_POINT('',#303);
#111=VERTEX_POINT('',#309);
#112=VERTEX_POINT('',#317);
#113=VERTEX_POINT('',#323);
#114=VERTEX_POINT('',#338);
#115=VERTEX_POINT('',#341);
#116=VERTEX_POINT('',#344);
#117=VERTEX_POINT('',#347);
#118=VERTEX_POINT('',#350);
#119=B_SPLINE_CURVE_WITH_KNOTS('',3,(#253,#254,#255,#256,#257),
 .UNSPECIFIED.,.F.,.F.,(4,1,4),(2.38075742050517E-7,0.000874879421645512,
0.00174952076754897),.UNSPECIFIED.);
#120=B_SPLINE_CURVE_WITH_KNOTS('',3,(#262,#263,#264,#265,#266),
 .UNSPECIFIED.,.F.,.F.,(4,1,4),(2.38075742042788E-7,0.000874879421645518,
0.00174952076754899),.UNSPECIFIED.);
#121=B_SPLINE_CURVE_WITH_KNOTS('',3,(#270,#271,#272,#273,#274),
 .UNSPECIFIED.,.F.,.F.,(4,1,4),(0.00152728241073943,0.00240345154119415,
0.00327962067164887),.UNSPECIFIED.);
#122=B_SPLINE_CURVE_WITH_KNOTS('',3,(#276,#277,#278,#279,#280),
 .UNSPECIFIED.,.F.,.F.,(4,1,4),(0.00152728241073943,0.00240345154119415,
0.00327962067164887),.UNSPECIFIED.);
#123=B_SPLINE_CURVE_WITH_KNOTS('',3,(#284,#285,#286,#287,#288),
 .UNSPECIFIED.,.F.,.F.,(4,1,4),(2.38075742018069E-7,0.000874879421645508,
0.001749520767549),.UNSPECIFIED.);
#124=B_SPLINE_CURVE_WITH_KNOTS('',3,(#290,#291,#292,#293,#294),
 .UNSPECIFIED.,.F.,.F.,(4,1,4),(2.38075742023116E-7,0.000874879421645513,
0.001749520767549),.UNSPECIFIED.);
#125=B_SPLINE_CURVE_WITH_KNOTS('',3,(#298,#299,#300,#301,#302),
 .UNSPECIFIED.,.F.,.F.,(4,1,4),(2.38075742023751E-7,0.000874879421645514,
0.00174952076754901),.UNSPECIFIED.);
#126=B_SPLINE_CURVE_WITH_KNOTS('',3,(#304,#305,#306,#307,#308),
 .UNSPECIFIED.,.F.,.F.,(4,1,4),(2.38075742028899E-7,0.000874879421645518,
0.00174952076754901),.UNSPECIFIED.);
#127=B_SPLINE_CURVE_WITH_KNOTS('',3,(#312,#313,#314,#315,#316),
 .UNSPECIFIED.,.F.,.F.,(4,1,4),(0.00152728241073941,0.00240345154119411,
0.00327962067164882),.UNSPECIFIED.);
#128=B_SPLINE_CURVE_WITH_KNOTS('',3,(#318,#319,#320,#321,#322),
 .UNSPECIFIED.,.F.,.F.,(4,1,4),(0.00152728241073941,0.0024034515411941,
0.0032796206716488),.UNSPECIFIED.);
#129=B_SPLINE_CURVE_WITH_KNOTS('',3,(#326,#327,#328,#329,#330),
 .UNSPECIFIED.,.F.,.F.,(4,1,4),(2.38075742020734E-7,0.000874879421645543,
0.00174952076754906),.UNSPECIFIED.);
#130=B_SPLINE_CURVE_WITH_KNOTS('',3,(#331,#332,#333,#334,#335),
 .UNSPECIFIED.,.F.,.F.,(4,1,4),(2.38075742022984E-7,0.000874879421645538,
0.00174952076754905),.UNSPECIFIED.);
#131=EDGE_LOOP('',(#33,#34,#35,#36));
#132=EDGE_LOOP('',(#37,#38,#39,#40));
#133=EDGE_LOOP('',(#41,#42,#43,#44));
#134=EDGE_LOOP('',(#45,#46,#47,#48));
#135=EDGE_LOOP('',(#49,#50,#51,#52));
#136=EDGE_LOOP('',(#53,#54,#55,#56));
#137=EDGE_LOOP('',(#57,#58,#59,#60,#61,#62));
#138=EDGE_LOOP('',(#63));
#139=EDGE_LOOP('',(#64));
#140=EDGE_LOOP('',(#65));
#141=EDGE_LOOP('',(#66,#67,#68,#69,#70,#71));
#142=EDGE_LOOP('',(#72));
#143=EDGE_LOOP('',(#73));
#144=EDGE_LOOP('',(#74));
#145=EDGE_LOOP('',(#75));
#146=EDGE_LOOP('',(#76));
#147=EDGE_LOOP('',(#77));
#148=EDGE_LOOP('',(#78));
#149=FACE_BOUND('',#131,.T.);
#150=FACE_BOUND('',#132,.T.);
#151=FACE_BOUND('',#133,.T.);
#152=FACE_BOUND('',#134,.T.);
#153=FACE_BOUND('',#135,.T.);
#154=FACE_BOUND('',#136,.T.);
#155=FACE_BOUND('',#137,.T.);
#156=FACE_BOUND('',#138,.T.);
#157=FACE_BOUND('',#139,.T.);
#158=FACE_BOUND('',#140,.T.);
#159=FACE_BOUND('',#141,.T.);
#160=FACE_BOUND('',#142,.T.);
#161=FACE_BOUND('',#143,.T.);
#162=FACE_BOUND('',#144,.T.);
#163=FACE_BOUND('',#145,.T.);
#164=FACE_BOUND('',#146,.T.);
#165=FACE_BOUND('',#147,.T.);
#166=FACE_BOUND('',#148,.T.);
#167=PLANE('',#192);
#168=PLANE('',#193);
#169=PLANE('',#194);
#170=PLANE('',#195);
#171=PLANE('',#196);
#172=PLANE('',#197);
#173=PLANE('',#200);
#174=PLANE('',#204);
#175=ADVANCED_FACE('',(#149),#167,.T.);
#176=ADVANCED_FACE('',(#150),#168,.T.);
#177=ADVANCED_FACE('',(#151),#169,.T.);
#178=ADVANCED_FACE('',(#152),#170,.T.);
#179=ADVANCED_FACE('',(#153),#171,.T.);
#180=ADVANCED_FACE('',(#154),#172,.T.);
#181=ADVANCED_FACE('',(#155,#156),#18,.T.);
#182=ADVANCED_FACE('',(#157,#158),#173,.T.);
#183=ADVANCED_FACE('',(#159,#160),#19,.T.);
#184=ADVANCED_FACE('',(#161,#162),#174,.F.);
#185=ADVANCED_FACE('',(#163,#164),#12,.F.);
#186=ADVANCED_FACE('',(#165,#166),#20,.F.);
#187=CLOSED_SHELL('',(#175,#176,#177,#178,#179,#180,#181,#182,#183,#184,
#185,#186));
#188=MANIFOLD_SOLID_BREP('',#187);
#189=SHAPE_DEFINITION_REPRESENTATION(#357,#190);
#190=SHAPE_REPRESENTATION('id2',(#191),#352);
#191=AXIS2_PLACEMENT_3D('',#251,#209,#210);
#192=AXIS2_PLACEMENT_3D('',#252,#211,#212);
#193=AXIS2_PLACEMENT_3D('',#269,#215,#216);
#194=AXIS2_PLACEMENT_3D('',#283,#218,#219);
#195=AXIS2_PLACEMENT_3D('',#297,#221,#222);
#196=AXIS2_PLACEMENT_3D('',#311,#224,#225);
#197=AXIS2_PLACEMENT_3D('',#325,#227,#228);
#198=AXIS2_PLACEMENT_3D('',#336,#229,#230);
#199=AXIS2_PLACEMENT_3D('',#337,#231,#232);
#200=AXIS2_PLACEMENT_3D('',#339,#233,#234);
#201=AXIS2_PLACEMENT_3D('',#340,#235,#236);
#202=AXIS2_PLACEMENT_3D('',#342,#237,#238);
#203=AXIS2_PLACEMENT_3D('',#343,#239,#240);
#204=AXIS2_PLACEMENT_3D('',#345,#241,#242);
#205=AXIS2_PLACEMENT_3D('',#346,#243,#244);
#206=AXIS2_PLACEMENT_3D('',#348,#245,#246);
#207=AXIS2_PLACEMENT_3D('',#349,#247,#248);
#208=AXIS2_PLACEMENT_3D('',#351,#249,#250);
#209=DIRECTION('',(0.,0.,1.));
#210=DIRECTION('',(1.,0.,0.));
#211=DIRECTION('',(0.5,0.866025403784442,0.));
#212=DIRECTION('',(-0.866025403784442,0.5,0.));
#213=DIRECTION('',(0.,0.,1.));
#214=DIRECTION('',(0.,0.,1.));
#215=DIRECTION('',(1.,1.0391009307932E-14,0.));
#216=DIRECTION('',(-1.0391009307932E-14,1.,0.));
#217=DIRECTION('',(0.,0.,1.));
#218=DIRECTION('',(0.500000000000007,-0.866025403784435,0.));
#219=DIRECTION('',(0.866025403784435,0.500000000000007,0.));
#220=DIRECTION('',(0.,0.,1.));
#221=DIRECTION('',(-0.5,-0.866025403784442,0.));
#222=DIRECTION('',(0.866025403784441,-0.5,0.));
#223=DIRECTION('',(0.,0.,1.));
#224=DIRECTION('',(-1.,-3.63059361361479E-15,0.));
#225=DIRECTION('',(3.63059361361479E-15,-1.,0.));
#226=DIRECTION('',(0.,0.,1.));
#227=DIRECTION('',(-0.5,0.866025403784438,0.));
#228=DIRECTION('',(-0.866025403784438,-0.5,0.));
#229=DIRECTION('',(0.,0.,-1.));
#230=DIRECTION('',(-1.,0.,0.));
#231=DIRECTION('',(0.,0.,1.));
#232=DIRECTION('',(1.,0.,0.));
#233=DIRECTION('',(0.,0.,1.));
#234=DIRECTION('',(1.,0.,0.));
#235=DIRECTION('',(0.,0.,1.));
#236=DIRECTION('',(1.,0.,0.));
#237=DIRECTION('',(0.,0.,1.));
#238=DIRECTION('',(1.,0.,0.));
#239=DIRECTION('',(0.,0.,1.));
#240=DIRECTION('',(1.,0.,0.));
#241=DIRECTION('',(0.,0.,1.));
#242=DIRECTION('',(1.,0.,0.));
#243=DIRECTION('',(0.,0.,1.));
#244=DIRECTION('',(1.,0.,0.));
#245=DIRECTION('',(0.,0.,1.));
#246=DIRECTION('',(1.,0.,0.));
#247=DIRECTION('',(0.,0.,1.));
#248=DIRECTION('',(1.,0.,0.));
#249=DIRECTION('',(0.,0.,1.));
#250=DIRECTION('',(1.,0.,0.));
#251=CARTESIAN_POINT('',(0.,0.,0.));
#252=CARTESIAN_POINT('',(0.0015,0.000866025403784457,-0.0014));
#253=CARTESIAN_POINT('',(-2.58788169566706E-16,0.00173205080756904,-0.00115000000000233));
#254=CARTESIAN_POINT('',(0.000244920607231656,0.00159064582905361,-0.00123164020241299));
#255=CARTESIAN_POINT('',(0.000747291482430857,0.00130060186902432,-0.00133625711107059));
#256=CARTESIAN_POINT('',(0.00125477442015765,0.00100760645831862,-0.00123174185994871));
#257=CARTESIAN_POINT('',(0.00150000000000015,0.000866025403784369,-0.00115000000000119));
#258=CARTESIAN_POINT('',(5.24753851482984E-17,0.00173205080756891,-0.00115));
#259=CARTESIAN_POINT('',(0.0015,0.000866025403784502,-0.00115));
#260=CARTESIAN_POINT('',(0.,0.00173205080756888,-0.0014));
#261=CARTESIAN_POINT('',(0.,0.00173205080756888,-0.000249999999999983));
#262=CARTESIAN_POINT('',(0.00150000000000027,0.000866025403784301,-0.00024999999999767));
#263=CARTESIAN_POINT('',(0.00125507939276835,0.00100743038229973,-0.000168359797587009));
#264=CARTESIAN_POINT('',(0.000752708517569144,0.00129747434232903,-6.37428889294109E-5));
#265=CARTESIAN_POINT('',(0.000245225579842348,0.00159046975303473,-0.000168258140051295));
#266=CARTESIAN_POINT('',(-1.62849496061518E-16,0.00173205080756899,-0.000249999999998811));
#267=CARTESIAN_POINT('',(0.0015,0.000866025403784503,-0.00025));
#268=CARTESIAN_POINT('',(0.0015,0.000866025403784457,-0.0014));
#269=CARTESIAN_POINT('',(0.0015,-0.000866025403784425,-0.0014));
#270=CARTESIAN_POINT('',(0.0015,-0.000866025403784424,-0.00115000000000001));
#271=CARTESIAN_POINT('',(0.0015,-0.00058434916605169,-0.00123131292583967));
#272=CARTESIAN_POINT('',(0.00149999999999999,-3.70905762266268E-7,-0.00133688284122449));
#273=CARTESIAN_POINT('',(0.00149999999999998,0.000586057640960398,-0.00123081973161547));
#274=CARTESIAN_POINT('',(0.00149999999999998,0.000866025403784504,-0.00115000000000001));
#275=CARTESIAN_POINT('',(0.0015,-0.000866025403784418,-0.00115));
#276=CARTESIAN_POINT('',(0.0015,-0.000866025403784424,-0.000249999999999986));
#277=CARTESIAN_POINT('',(0.0015,-0.00058434916605169,-0.000168687074160327));
#278=CARTESIAN_POINT('',(0.00149999999999999,-3.70905762265888E-7,-6.31171587755089E-5));
#279=CARTESIAN_POINT('',(0.00149999999999998,0.000586057640960398,-0.000169180268384536));
#280=CARTESIAN_POINT('',(0.00149999999999998,0.000866025403784504,-0.000249999999999996));
#281=CARTESIAN_POINT('',(0.0015,-0.000866025403784418,-0.00025));
#282=CARTESIAN_POINT('',(0.0015,-0.000866025403784425,-0.0014));
#283=CARTESIAN_POINT('',(1.20948461451098E-17,-0.00173205080756888,-0.0014));
#284=CARTESIAN_POINT('',(0.0015000000000003,-0.000866025403784262,-0.00115000000000232));
#285=CARTESIAN_POINT('',(0.00125507939276837,-0.0010074303822997,-0.00123164020241298));
#286=CARTESIAN_POINT('',(0.00075270851756916,-0.001297474342329,-0.00133625711107058));
#287=CARTESIAN_POINT('',(0.000245225579842356,-0.00159046975303472,-0.0012317418599487));
#288=CARTESIAN_POINT('',(-1.57534803136812E-16,-0.00173205080756898,-0.00115000000000118));
#289=CARTESIAN_POINT('',(1.14925430283463E-17,-0.00173205080756888,-0.00115));
#290=CARTESIAN_POINT('',(-2.75899242607229E-16,-0.00173205080756905,-0.000249999999997686));
#291=CARTESIAN_POINT('',(0.000244920607231645,-0.00159064582905361,-0.000168359797587022));
#292=CARTESIAN_POINT('',(0.000747291482430858,-0.00130060186902431,-6.37428889294171E-5));
#293=CARTESIAN_POINT('',(0.00125477442015766,-0.00100760645831859,-0.000168258140051301));
#294=CARTESIAN_POINT('',(0.00150000000000018,-0.000866025403784331,-0.000249999999998818));
#295=CARTESIAN_POINT('',(1.21430643318376E-17,-0.00173205080756888,-0.00025));
#296=CARTESIAN_POINT('',(1.20948461451098E-17,-0.00173205080756888,-0.0014));
#297=CARTESIAN_POINT('',(-0.0015,-0.000866025403784446,-0.0014));
#298=CARTESIAN_POINT('',(2.95596710899859E-16,-0.00173205080756905,-0.00115000000000231));
#299=CARTESIAN_POINT('',(-0.000244920607231627,-0.00159064582905362,-0.00123164020241298));
#300=CARTESIAN_POINT('',(-0.000747291482430844,-0.00130060186902432,-0.00133625711107058));
#301=CARTESIAN_POINT('',(-0.00125477442015765,-0.00100760645831861,-0.0012317418599487));
#302=CARTESIAN_POINT('',(-0.00150000000000016,-0.000866025403784352,-0.00115000000000118));
#303=CARTESIAN_POINT('',(-0.0015,-0.00086602540378446,-0.00115));
#304=CARTESIAN_POINT('',(-0.00150000000000028,-0.000866025403784283,-0.00024999999999768));
#305=CARTESIAN_POINT('',(-0.00125507939276836,-0.00100743038229972,-0.000168359797587018));
#306=CARTESIAN_POINT('',(-0.000752708517569142,-0.00129747434232901,-6.37428889294195E-5));
#307=CARTESIAN_POINT('',(-0.000245225579842337,-0.00159046975303473,-0.000168258140051308));
#308=CARTESIAN_POINT('',(1.76994977299938E-16,-0.00173205080756898,-0.000249999999998827));
#309=CARTESIAN_POINT('',(-0.0015,-0.000866025403784461,-0.00025));
#310=CARTESIAN_POINT('',(-0.0015,-0.000866025403784446,-0.0014));
#311=CARTESIAN_POINT('',(-0.0015,0.000866025403784436,-0.0014));
#312=CARTESIAN_POINT('',(-0.00149999999999999,-0.000866025403784462,-0.00115000000000001));
#313=CARTESIAN_POINT('',(-0.00149999999999999,-0.000584349166051733,-0.00123131292583967));
#314=CARTESIAN_POINT('',(-0.0015,-3.70905762319014E-7,-0.00133688284122449));
#315=CARTESIAN_POINT('',(-0.0015,0.000586057640960337,-0.00123081973161547));
#316=CARTESIAN_POINT('',(-0.0015,0.00086602540378444,-0.00115000000000001));
#317=CARTESIAN_POINT('',(-0.0015,0.000866025403784436,-0.00115));
#318=CARTESIAN_POINT('',(-0.00149999999999999,-0.000866025403784463,-0.000249999999999994));
#319=CARTESIAN_POINT('',(-0.00149999999999999,-0.000584349166051737,-0.000168687074160337));
#320=CARTESIAN_POINT('',(-0.0015,-3.70905762331049E-7,-6.31171587755155E-5));
#321=CARTESIAN_POINT('',(-0.0015,0.000586057640960319,-0.000169180268384527));
#322=CARTESIAN_POINT('',(-0.0015,0.000866025403784419,-0.00024999999999998));
#323=CARTESIAN_POINT('',(-0.00150000000000004,0.000866025403784413,-0.00025));
#324=CARTESIAN_POINT('',(-0.0015,0.000866025403784436,-0.0014));
#325=CARTESIAN_POINT('',(0.,0.00173205080756888,-0.0014));
#326=CARTESIAN_POINT('',(-0.00150000000000029,0.000866025403784272,-0.00115000000000233));
#327=CARTESIAN_POINT('',(-0.00125507939276836,0.00100743038229971,-0.001231640202413));
#328=CARTESIAN_POINT('',(-0.000752708517569126,0.00129747434232902,-0.0013362571110706));
#329=CARTESIAN_POINT('',(-0.000245225579842302,0.00159046975303474,-0.0012317418599487));
#330=CARTESIAN_POINT('',(2.20915814822397E-16,0.00173205080756901,-0.00115000000000118));
#331=CARTESIAN_POINT('',(2.88047369284416E-16,0.00173205080756905,-0.000249999999997668));
#332=CARTESIAN_POINT('',(-0.000244920607231641,0.00159064582905361,-0.000168359797587002));
#333=CARTESIAN_POINT('',(-0.000747291482430872,0.0013006018690243,-6.37428889293983E-5));
#334=CARTESIAN_POINT('',(-0.00125477442015769,0.00100760645831858,-0.000168258140051299));
#335=CARTESIAN_POINT('',(-0.00150000000000021,0.000866025403784319,-0.000249999999998823));
#336=CARTESIAN_POINT('',(0.,1.55040910665427E-17,-0.00025));
#337=CARTESIAN_POINT('',(0.,1.55040910665427E-17,0.));
#338=CARTESIAN_POINT('',(0.00129903810567667,1.55040910665427E-17,0.));
#339=CARTESIAN_POINT('',(0.,0.,0.));
#340=CARTESIAN_POINT('',(0.,0.,0.));
#341=CARTESIAN_POINT('',(0.000798205080756887,0.,0.));
#342=CARTESIAN_POINT('',(0.,1.55040910665427E-17,-0.0014));
#343=CARTESIAN_POINT('',(0.,1.55040910665427E-17,-0.0014));
#344=CARTESIAN_POINT('',(0.00129903810567667,1.55040910665427E-17,-0.0014));
#345=CARTESIAN_POINT('',(0.,0.,-0.0014));
#346=CARTESIAN_POINT('',(0.,0.,-0.0014));
#347=CARTESIAN_POINT('',(0.000625,0.,-0.0014));
#348=CARTESIAN_POINT('',(0.,0.,0.));
#349=CARTESIAN_POINT('',(0.,0.,-0.0001));
#350=CARTESIAN_POINT('',(0.000625,0.,-0.0001));
#351=CARTESIAN_POINT('',(0.,0.,-0.0001));
#352=(
GEOMETRIC_REPRESENTATION_CONTEXT(3)
GLOBAL_UNCERTAINTY_ASSIGNED_CONTEXT((#353))
GLOBAL_UNIT_ASSIGNED_CONTEXT((#356,#355,#354))
REPRESENTATION_CONTEXT('id2','TOP_LEVEL_ASSEMBLY_PART')
);
#353=UNCERTAINTY_MEASURE_WITH_UNIT(LENGTH_MEASURE(2.E-5),#356,
'DISTANCE_ACCURACY_VALUE','Maximum Tolerance applied to model');
#354=(
NAMED_UNIT(*)
SI_UNIT($,.STERADIAN.)
SOLID_ANGLE_UNIT()
);
#355=(
NAMED_UNIT(*)
PLANE_ANGLE_UNIT()
SI_UNIT($,.RADIAN.)
);
#356=(
LENGTH_UNIT()
NAMED_UNIT(*)
SI_UNIT($,.METRE.)
);
#357=PRODUCT_DEFINITION_SHAPE('','',#358);
#358=PRODUCT_DEFINITION('','',#360,#359);
#359=PRODUCT_DEFINITION_CONTEXT('',#366,'design');
#360=PRODUCT_DEFINITION_FORMATION_WITH_SPECIFIED_SOURCE('','',#362,
 .NOT_KNOWN.);
#361=PRODUCT_RELATED_PRODUCT_CATEGORY('','',(#362));
#362=PRODUCT('id2','id2','id2',(#364));
#363=PRODUCT_CATEGORY('','');
#364=PRODUCT_CONTEXT('',#366,'mechanical');
#365=APPLICATION_PROTOCOL_DEFINITION('international standard',
'ap242_managed_model_based_3d_engineering',2020,#366);
#366=APPLICATION_CONTEXT('managed model based 3d engineering');
ENDSEC;
END-ISO-10303-21;
