ISO-10303-21;
HEADER;
/* Generated by software containing ST-Developer
 * from STEP Tools, Inc. (www.steptools.com) 
 */
/* OPTION: using custom renumber hook */

FILE_DESCRIPTION(
/* description */ ('STEP AP242 Edition 2',
'CAx-IF Rec.Pracs.---Representation and Presentation of Product Manufa
cturing Information (PMI)---4.0---2014-10-13',
'CAx-IF Rec.Pracs.---3D Tessellated Geometry---0.4---2014-09-14','2;1',
'CAx-IF Rec.Pracs.---User Defined Attributes---1.5---2016-08-15'),
/* implementation_level */ '2;1');

FILE_NAME(
/* name */ '2118',
/* time_stamp */ '2026-07-13T05:10:24Z',
/* author */ (''),
/* organization */ (''),
/* preprocessor_version */ 'ST-DEVELOPER v20',
/* originating_system */ 'ONSHAPE BY PTC INC, 1.217',
/* authorisation */ '  ');

FILE_SCHEMA (('AP242_MANAGED_MODEL_BASED_3D_ENGINEERING_MIM_LF { 1 0 10303 442 3 1 4 }'));
ENDSEC;

DATA;
#10=SHAPE_REPRESENTATION_RELATIONSHIP('','',#158,#11);
#11=ADVANCED_BREP_SHAPE_REPRESENTATION('',(#156),#272);
#12=CONICAL_SURFACE('',#178,0.00125,0.785398163397449);
#13=CONICAL_SURFACE('',#179,0.0004,0.785398163397446);
#14=CYLINDRICAL_SURFACE('',#162,0.00125);
#15=CYLINDRICAL_SURFACE('',#171,0.0007);
#16=CIRCLE('',#161,0.00125);
#17=CIRCLE('',#163,0.00125);
#18=CIRCLE('',#164,0.00125);
#19=CIRCLE('',#165,0.00125);
#20=CIRCLE('',#166,0.00125);
#21=CIRCLE('',#169,0.00105);
#22=CIRCLE('',#170,0.0007);
#23=CIRCLE('',#172,0.0007);
#24=CIRCLE('',#174,0.0004);
#25=ORIENTED_EDGE('',*,*,#59,.F.);
#26=ORIENTED_EDGE('',*,*,#60,.T.);
#27=ORIENTED_EDGE('',*,*,#61,.T.);
#28=ORIENTED_EDGE('',*,*,#62,.F.);
#29=ORIENTED_EDGE('',*,*,#60,.F.);
#30=ORIENTED_EDGE('',*,*,#63,.F.);
#31=ORIENTED_EDGE('',*,*,#64,.F.);
#32=ORIENTED_EDGE('',*,*,#65,.F.);
#33=ORIENTED_EDGE('',*,*,#66,.F.);
#34=ORIENTED_EDGE('',*,*,#67,.F.);
#35=ORIENTED_EDGE('',*,*,#68,.F.);
#36=ORIENTED_EDGE('',*,*,#69,.F.);
#37=ORIENTED_EDGE('',*,*,#66,.T.);
#38=ORIENTED_EDGE('',*,*,#70,.T.);
#39=ORIENTED_EDGE('',*,*,#71,.F.);
#40=ORIENTED_EDGE('',*,*,#72,.T.);
#41=ORIENTED_EDGE('',*,*,#71,.T.);
#42=ORIENTED_EDGE('',*,*,#73,.T.);
#43=ORIENTED_EDGE('',*,*,#62,.T.);
#44=ORIENTED_EDGE('',*,*,#74,.F.);
#45=ORIENTED_EDGE('',*,*,#63,.T.);
#46=ORIENTED_EDGE('',*,*,#59,.T.);
#47=ORIENTED_EDGE('',*,*,#65,.T.);
#48=ORIENTED_EDGE('',*,*,#75,.F.);
#49=ORIENTED_EDGE('',*,*,#67,.T.);
#50=ORIENTED_EDGE('',*,*,#69,.T.);
#51=ORIENTED_EDGE('',*,*,#68,.T.);
#52=ORIENTED_EDGE('',*,*,#75,.T.);
#53=ORIENTED_EDGE('',*,*,#64,.T.);
#54=ORIENTED_EDGE('',*,*,#74,.T.);
#55=ORIENTED_EDGE('',*,*,#70,.F.);
#56=ORIENTED_EDGE('',*,*,#61,.F.);
#57=ORIENTED_EDGE('',*,*,#72,.F.);
#58=ORIENTED_EDGE('',*,*,#73,.F.);
#59=EDGE_CURVE('',#76,#77,#89,.T.);
#60=EDGE_CURVE('',#76,#77,#16,.T.);
#61=EDGE_CURVE('',#78,#78,#17,.F.);
#62=EDGE_CURVE('',#77,#79,#90,.F.);
#63=EDGE_CURVE('',#80,#76,#91,.T.);
#64=EDGE_CURVE('',#81,#80,#18,.F.);
#65=EDGE_CURVE('',#82,#81,#92,.F.);
#66=EDGE_CURVE('',#83,#82,#19,.T.);
#67=EDGE_CURVE('',#84,#83,#93,.T.);
#68=EDGE_CURVE('',#79,#84,#20,.F.);
#69=EDGE_CURVE('',#83,#82,#94,.T.);
#70=EDGE_CURVE('',#85,#85,#21,.T.);
#71=EDGE_CURVE('',#86,#86,#22,.T.);
#72=EDGE_CURVE('',#87,#87,#23,.T.);
#73=EDGE_CURVE('',#88,#88,#24,.F.);
#74=EDGE_CURVE('',#80,#79,#95,.T.);
#75=EDGE_CURVE('',#84,#81,#96,.T.);
#76=VERTEX_POINT('',#233);
#77=VERTEX_POINT('',#234);
#78=VERTEX_POINT('',#238);
#79=VERTEX_POINT('',#240);
#80=VERTEX_POINT('',#242);
#81=VERTEX_POINT('',#244);
#82=VERTEX_POINT('',#246);
#83=VERTEX_POINT('',#248);
#84=VERTEX_POINT('',#250);
#85=VERTEX_POINT('',#256);
#86=VERTEX_POINT('',#258);
#87=VERTEX_POINT('',#261);
#88=VERTEX_POINT('',#264);
#89=LINE('',#232,#97);
#90=LINE('',#239,#98);
#91=LINE('',#241,#99);
#92=LINE('',#245,#100);
#93=LINE('',#249,#101);
#94=LINE('',#253,#102);
#95=LINE('',#266,#103);
#96=LINE('',#268,#104);
#97=VECTOR('',#184,1.);
#98=VECTOR('',#191,1.);
#99=VECTOR('',#192,1.);
#100=VECTOR('',#195,1.);
#101=VECTOR('',#198,1.);
#102=VECTOR('',#203,1.);
#103=VECTOR('',#220,1.);
#104=VECTOR('',#223,1.);
#105=EDGE_LOOP('',(#25,#26));
#106=EDGE_LOOP('',(#27));
#107=EDGE_LOOP('',(#28,#29,#30,#31,#32,#33,#34,#35));
#108=EDGE_LOOP('',(#36,#37));
#109=EDGE_LOOP('',(#38));
#110=EDGE_LOOP('',(#39));
#111=EDGE_LOOP('',(#40));
#112=EDGE_LOOP('',(#41));
#113=EDGE_LOOP('',(#42));
#114=EDGE_LOOP('',(#43,#44,#45,#46));
#115=EDGE_LOOP('',(#47,#48,#49,#50));
#116=EDGE_LOOP('',(#51,#52,#53,#54));
#117=EDGE_LOOP('',(#55));
#118=EDGE_LOOP('',(#56));
#119=EDGE_LOOP('',(#57));
#120=EDGE_LOOP('',(#58));
#121=FACE_BOUND('',#105,.T.);
#122=FACE_BOUND('',#106,.T.);
#123=FACE_BOUND('',#107,.T.);
#124=FACE_BOUND('',#108,.T.);
#125=FACE_BOUND('',#109,.T.);
#126=FACE_BOUND('',#110,.T.);
#127=FACE_BOUND('',#111,.T.);
#128=FACE_BOUND('',#112,.T.);
#129=FACE_BOUND('',#113,.T.);
#130=FACE_BOUND('',#114,.T.);
#131=FACE_BOUND('',#115,.T.);
#132=FACE_BOUND('',#116,.T.);
#133=FACE_BOUND('',#117,.T.);
#134=FACE_BOUND('',#118,.T.);
#135=FACE_BOUND('',#119,.T.);
#136=FACE_BOUND('',#120,.T.);
#137=PLANE('',#160);
#138=PLANE('',#167);
#139=PLANE('',#168);
#140=PLANE('',#173);
#141=PLANE('',#175);
#142=PLANE('',#176);
#143=PLANE('',#177);
#144=ADVANCED_FACE('',(#121),#137,.T.);
#145=ADVANCED_FACE('',(#122,#123),#14,.T.);
#146=ADVANCED_FACE('',(#124),#138,.T.);
#147=ADVANCED_FACE('',(#125,#126),#139,.T.);
#148=ADVANCED_FACE('',(#127,#128),#15,.T.);
#149=ADVANCED_FACE('',(#129),#140,.F.);
#150=ADVANCED_FACE('',(#130),#141,.F.);
#151=ADVANCED_FACE('',(#131),#142,.F.);
#152=ADVANCED_FACE('',(#132),#143,.F.);
#153=ADVANCED_FACE('',(#133,#134),#12,.T.);
#154=ADVANCED_FACE('',(#135,#136),#13,.T.);
#155=CLOSED_SHELL('',(#144,#145,#146,#147,#148,#149,#150,#151,#152,#153,
#154));
#156=MANIFOLD_SOLID_BREP('',#155);
#157=SHAPE_DEFINITION_REPRESENTATION(#277,#158);
#158=SHAPE_REPRESENTATION('id2',(#159),#272);
#159=AXIS2_PLACEMENT_3D('',#230,#180,#181);
#160=AXIS2_PLACEMENT_3D('',#231,#182,#183);
#161=AXIS2_PLACEMENT_3D('',#235,#185,#186);
#162=AXIS2_PLACEMENT_3D('',#236,#187,#188);
#163=AXIS2_PLACEMENT_3D('',#237,#189,#190);
#164=AXIS2_PLACEMENT_3D('',#243,#193,#194);
#165=AXIS2_PLACEMENT_3D('',#247,#196,#197);
#166=AXIS2_PLACEMENT_3D('',#251,#199,#200);
#167=AXIS2_PLACEMENT_3D('',#252,#201,#202);
#168=AXIS2_PLACEMENT_3D('',#254,#204,#205);
#169=AXIS2_PLACEMENT_3D('',#255,#206,#207);
#170=AXIS2_PLACEMENT_3D('',#257,#208,#209);
#171=AXIS2_PLACEMENT_3D('',#259,#210,#211);
#172=AXIS2_PLACEMENT_3D('',#260,#212,#213);
#173=AXIS2_PLACEMENT_3D('',#262,#214,#215);
#174=AXIS2_PLACEMENT_3D('',#263,#216,#217);
#175=AXIS2_PLACEMENT_3D('',#265,#218,#219);
#176=AXIS2_PLACEMENT_3D('',#267,#221,#222);
#177=AXIS2_PLACEMENT_3D('',#269,#224,#225);
#178=AXIS2_PLACEMENT_3D('',#270,#226,#227);
#179=AXIS2_PLACEMENT_3D('',#271,#228,#229);
#180=DIRECTION('',(0.,0.,1.));
#181=DIRECTION('',(1.,0.,0.));
#182=DIRECTION('',(0.,0.,1.));
#183=DIRECTION('',(1.,0.,0.));
#184=DIRECTION('',(1.,0.,0.));
#185=DIRECTION('',(0.,0.,1.));
#186=DIRECTION('',(1.,0.,0.));
#187=DIRECTION('',(0.,0.,1.));
#188=DIRECTION('',(1.,0.,0.));
#189=DIRECTION('',(0.,0.,-1.));
#190=DIRECTION('',(-1.,0.,0.));
#191=DIRECTION('',(0.,0.,1.));
#192=DIRECTION('',(0.,0.,1.));
#193=DIRECTION('',(0.,0.,-1.));
#194=DIRECTION('',(-1.,0.,0.));
#195=DIRECTION('',(0.,0.,1.));
#196=DIRECTION('',(0.,0.,1.));
#197=DIRECTION('',(1.,0.,0.));
#198=DIRECTION('',(0.,0.,1.));
#199=DIRECTION('',(0.,0.,-1.));
#200=DIRECTION('',(-1.,0.,0.));
#201=DIRECTION('',(0.,0.,1.));
#202=DIRECTION('',(1.,0.,0.));
#203=DIRECTION('',(-1.,0.,0.));
#204=DIRECTION('',(0.,0.,-1.));
#205=DIRECTION('',(-1.,0.,0.));
#206=DIRECTION('',(0.,0.,-1.));
#207=DIRECTION('',(-1.,0.,0.));
#208=DIRECTION('',(0.,0.,-1.));
#209=DIRECTION('',(-1.,0.,0.));
#210=DIRECTION('',(0.,0.,-1.));
#211=DIRECTION('',(-1.,0.,0.));
#212=DIRECTION('',(0.,0.,1.));
#213=DIRECTION('',(1.,0.,0.));
#214=DIRECTION('',(0.,0.,1.));
#215=DIRECTION('',(1.,0.,0.));
#216=DIRECTION('',(0.,0.,1.));
#217=DIRECTION('',(1.,0.,0.));
#218=DIRECTION('',(0.,-1.,0.));
#219=DIRECTION('',(0.,0.,-1.));
#220=DIRECTION('',(1.,0.,0.));
#221=DIRECTION('',(0.,1.,0.));
#222=DIRECTION('',(0.,0.,1.));
#223=DIRECTION('',(-1.,0.,0.));
#224=DIRECTION('',(0.,0.,-1.));
#225=DIRECTION('',(-1.,0.,0.));
#226=DIRECTION('',(0.,0.,1.));
#227=DIRECTION('',(1.,0.,0.));
#228=DIRECTION('',(0.,0.,1.));
#229=DIRECTION('',(1.,0.,0.));
#230=CARTESIAN_POINT('',(0.,0.,0.));
#231=CARTESIAN_POINT('',(0.,0.,0.));
#232=CARTESIAN_POINT('',(0.,-0.0002,0.));
#233=CARTESIAN_POINT('',(-0.00123389626792531,-0.0002,0.));
#234=CARTESIAN_POINT('',(0.00123389626792531,-0.0002,0.));
#235=CARTESIAN_POINT('',(0.,0.,0.));
#236=CARTESIAN_POINT('',(0.,0.,-0.002));
#237=CARTESIAN_POINT('',(0.,0.,-0.0007));
#238=CARTESIAN_POINT('',(-0.00125,0.,-0.0007));
#239=CARTESIAN_POINT('',(0.00123389626792531,-0.0002,-0.002));
#240=CARTESIAN_POINT('',(0.00123389626792531,-0.0002,-0.0005));
#241=CARTESIAN_POINT('',(-0.00123389626792531,-0.0002,-0.002));
#242=CARTESIAN_POINT('',(-0.00123389626792531,-0.0002,-0.0005));
#243=CARTESIAN_POINT('',(0.,0.,-0.0005));
#244=CARTESIAN_POINT('',(-0.00123389626792531,0.0002,-0.0005));
#245=CARTESIAN_POINT('',(-0.00123389626792531,0.0002,-0.002));
#246=CARTESIAN_POINT('',(-0.00123389626792531,0.0002,0.));
#247=CARTESIAN_POINT('',(0.,0.,0.));
#248=CARTESIAN_POINT('',(0.00123389626792531,0.0002,0.));
#249=CARTESIAN_POINT('',(0.00123389626792531,0.0002,-0.002));
#250=CARTESIAN_POINT('',(0.00123389626792531,0.0002,-0.0005));
#251=CARTESIAN_POINT('',(0.,0.,-0.0005));
#252=CARTESIAN_POINT('',(0.,0.,0.));
#253=CARTESIAN_POINT('',(0.,0.0002,0.));
#254=CARTESIAN_POINT('',(0.,0.,-0.0009));
#255=CARTESIAN_POINT('',(0.,0.,-0.0009));
#256=CARTESIAN_POINT('',(-0.00105,0.,-0.0009));
#257=CARTESIAN_POINT('',(0.,0.,-0.0009));
#258=CARTESIAN_POINT('',(-0.0007,0.,-0.0009));
#259=CARTESIAN_POINT('',(0.,0.,-0.0009));
#260=CARTESIAN_POINT('',(0.,0.,-0.0017));
#261=CARTESIAN_POINT('',(0.0007,0.,-0.0017));
#262=CARTESIAN_POINT('',(0.,0.,-0.002));
#263=CARTESIAN_POINT('',(0.,0.,-0.002));
#264=CARTESIAN_POINT('',(0.0004,0.,-0.002));
#265=CARTESIAN_POINT('',(-0.00135,-0.0002,-0.0005));
#266=CARTESIAN_POINT('',(-0.00135,-0.0002,-0.0005));
#267=CARTESIAN_POINT('',(-0.00135,0.0002,-0.0005));
#268=CARTESIAN_POINT('',(-0.00135,0.0002,-0.0005));
#269=CARTESIAN_POINT('',(0.,0.,-0.0005));
#270=CARTESIAN_POINT('',(0.,0.,-0.0007));
#271=CARTESIAN_POINT('',(0.,0.,-0.002));
#272=(
GEOMETRIC_REPRESENTATION_CONTEXT(3)
GLOBAL_UNCERTAINTY_ASSIGNED_CONTEXT((#273))
GLOBAL_UNIT_ASSIGNED_CONTEXT((#276,#275,#274))
REPRESENTATION_CONTEXT('id2','TOP_LEVEL_ASSEMBLY_PART')
);
#273=UNCERTAINTY_MEASURE_WITH_UNIT(LENGTH_MEASURE(1.E-8),#276,
'DISTANCE_ACCURACY_VALUE','Maximum Tolerance applied to model');
#274=(
NAMED_UNIT(*)
SI_UNIT($,.STERADIAN.)
SOLID_ANGLE_UNIT()
);
#275=(
NAMED_UNIT(*)
PLANE_ANGLE_UNIT()
SI_UNIT($,.RADIAN.)
);
#276=(
LENGTH_UNIT()
NAMED_UNIT(*)
SI_UNIT($,.METRE.)
);
#277=PRODUCT_DEFINITION_SHAPE('','',#278);
#278=PRODUCT_DEFINITION('','',#280,#279);
#279=PRODUCT_DEFINITION_CONTEXT('',#286,'design');
#280=PRODUCT_DEFINITION_FORMATION_WITH_SPECIFIED_SOURCE('','',#282,
 .NOT_KNOWN.);
#281=PRODUCT_RELATED_PRODUCT_CATEGORY('','',(#282));
#282=PRODUCT('id2','id2','id2',(#284));
#283=PRODUCT_CATEGORY('','');
#284=PRODUCT_CONTEXT('',#286,'mechanical');
#285=APPLICATION_PROTOCOL_DEFINITION('international standard',
'ap242_managed_model_based_3d_engineering',2020,#286);
#286=APPLICATION_CONTEXT('managed model based 3d engineering');
ENDSEC;
END-ISO-10303-21;
