ISO-10303-21;
HEADER;
/* Generated by software containing ST-Developer
 * from STEP Tools, Inc. (www.steptools.com) 
 */
/* OPTION: using custom renumber hook */

FILE_DESCRIPTION(
/* description */ ('STEP AP203'),
/* implementation_level */ '2;1');

FILE_NAME(
/* name */ '6a545bbf9ed6ccb7c5190ceb',
/* time_stamp */ '2026-07-13T03:30:08Z',
/* author */ (''),
/* organization */ (''),
/* preprocessor_version */ 'ST-DEVELOPER v20',
/* originating_system */ 'ONSHAPE BY PTC INC, 1.217',
/* authorisation */ '  ');

FILE_SCHEMA (('CONFIG_CONTROL_DESIGN'));
ENDSEC;

DATA;
#10=PROPERTY_DEFINITION_REPRESENTATION(#14,#12);
#11=PROPERTY_DEFINITION_REPRESENTATION(#15,#13);
#12=REPRESENTATION('',(#16),#2090);
#13=REPRESENTATION('',(#17),#2090);
#14=PROPERTY_DEFINITION('pmi validation property','',#2095);
#15=PROPERTY_DEFINITION('pmi validation property','',#2095);
#16=VALUE_REPRESENTATION_ITEM('number of annotations',COUNT_MEASURE(0.));
#17=VALUE_REPRESENTATION_ITEM('number of views',COUNT_MEASURE(0.));
#18=SHAPE_REPRESENTATION_RELATIONSHIP('','',#1184,#19);
#19=ADVANCED_BREP_SHAPE_REPRESENTATION('',(#1182),#2090);
#20=TOROIDAL_SURFACE('',#1318,0.0082,0.0002);
#21=TOROIDAL_SURFACE('',#1321,0.0082,0.0002);
#22=CONICAL_SURFACE('',#1275,0.00725,1.0471975511966);
#23=CONICAL_SURFACE('',#1281,0.00725,1.0471975511966);
#24=CONICAL_SURFACE('',#1287,0.00725,1.0471975511966);
#25=CONICAL_SURFACE('',#1298,0.00725,1.0471975511966);
#26=CONICAL_SURFACE('',#1301,0.0024,1.02974425867665);
#27=CONICAL_SURFACE('',#1315,0.,0.654498469497874);
#28=CONICAL_SURFACE('',#1316,0.00885980762113534,1.0471975511966);
#29=CONICAL_SURFACE('',#1319,0.0083,1.0471975511966);
#30=B_SPLINE_CURVE_WITH_KNOTS('',3,(#1765,#1766,#1767,#1768,#1769,#1770,
#1771,#1772,#1773,#1774,#1775,#1776,#1777,#1778,#1779),.UNSPECIFIED.,.T.,
 .F.,(1,1,1,1,1,1,1,1,1,1,1,1,1,1,1,1,1,1,1),(-0.0016829979959397,-0.0011219986639598,
-0.0005609993319799,0.,0.0011219986639598,0.0022439973279196,0.0028049966598995,
0.00336599599187939,0.00392699532385929,0.00448799465583919,0.00560999331979899,
0.00673199198375879,0.00729299131573869,0.00785399064771859,0.00841498997969849,
0.00897598931167839,0.0100979879756382,0.011219986639598,0.0117809859715779),
 .UNSPECIFIED.);
#31=B_SPLINE_CURVE_WITH_KNOTS('',3,(#1836,#1837,#1838,#1839),
 .UNSPECIFIED.,.F.,.F.,(4,4),(0.000209588644245595,0.000630840317607964),
 .UNSPECIFIED.);
#32=B_SPLINE_CURVE_WITH_KNOTS('',3,(#1841,#1842,#1843,#1844),
 .UNSPECIFIED.,.F.,.F.,(4,4),(0.00528468178986649,0.00563529428560743),
 .UNSPECIFIED.);
#33=B_SPLINE_CURVE_WITH_KNOTS('',3,(#1851,#1852,#1853,#1854),
 .UNSPECIFIED.,.F.,.F.,(4,4),(0.00449567604060655,0.00509149625270872),
 .UNSPECIFIED.);
#34=B_SPLINE_CURVE_WITH_KNOTS('',3,(#1866,#1867,#1868,#1869),
 .UNSPECIFIED.,.F.,.F.,(4,4),(0.0115866515265686,0.0119381443510272),
 .UNSPECIFIED.);
#35=B_SPLINE_CURVE_WITH_KNOTS('',3,(#1871,#1872,#1873,#1874),
 .UNSPECIFIED.,.F.,.F.,(4,4),(1.97157234857156E-7,0.000421424522963657),
 .UNSPECIFIED.);
#36=B_SPLINE_CURVE_WITH_KNOTS('',3,(#1881,#1882,#1883,#1884),
 .UNSPECIFIED.,.F.,.F.,(4,4),(0.0102890620728515,0.0108866802204762),
 .UNSPECIFIED.);
#37=B_SPLINE_CURVE_WITH_KNOTS('',3,(#1891,#1892,#1893,#1894),
 .UNSPECIFIED.,.F.,.F.,(4,4),(0.00117317008158813,0.00159426980360028),
 .UNSPECIFIED.);
#38=B_SPLINE_CURVE_WITH_KNOTS('',3,(#1896,#1897,#1898,#1899),
 .UNSPECIFIED.,.F.,.F.,(4,4),(0.0115866044794446,0.0119380972063752),
 .UNSPECIFIED.);
#39=B_SPLINE_CURVE_WITH_KNOTS('',3,(#1904,#1905,#1906,#1907),
 .UNSPECIFIED.,.F.,.F.,(4,4),(0.0044956587746152,0.00509147898673377),
 .UNSPECIFIED.);
#40=B_SPLINE_CURVE_WITH_KNOTS('',3,(#1919,#1920,#1921,#1922),
 .UNSPECIFIED.,.F.,.F.,(4,4),(0.00528466451406056,0.00563527700980691),
 .UNSPECIFIED.);
#41=B_SPLINE_CURVE_WITH_KNOTS('',3,(#1924,#1925,#1926,#1927),
 .UNSPECIFIED.,.F.,.F.,(4,4),(7.41212217653339E-5,0.000495363696379401),
 .UNSPECIFIED.);
#42=B_SPLINE_CURVE_WITH_KNOTS('',3,(#1934,#1935,#1936,#1937),
 .UNSPECIFIED.,.F.,.F.,(4,4),(0.0102890164189313,0.0108866344675981),
 .UNSPECIFIED.);
#43=B_SPLINE_CURVE_WITH_KNOTS('',3,(#1959,#1960,#1961,#1962),
 .UNSPECIFIED.,.F.,.F.,(4,4),(0.0102890164189313,0.0108866344675981),
 .UNSPECIFIED.);
#44=B_SPLINE_CURVE_WITH_KNOTS('',3,(#1977,#1978,#1979,#1980),
 .UNSPECIFIED.,.F.,.F.,(4,4),(0.00449565877461519,0.00509147898673376),
 .UNSPECIFIED.);
#45=B_SPLINE_CURVE_WITH_KNOTS('',3,(#1996,#1997,#1998,#1999),
 .UNSPECIFIED.,.F.,.F.,(4,4),(0.0102890164189313,0.0108866344675981),
 .UNSPECIFIED.);
#46=B_SPLINE_CURVE_WITH_KNOTS('',3,(#2013,#2014,#2015,#2016),
 .UNSPECIFIED.,.F.,.F.,(4,4),(0.00449565877461518,0.00509147898673375),
 .UNSPECIFIED.);
#47=B_SPLINE_CURVE_WITH_KNOTS('',3,(#2069,#2070,#2071,#2072,#2073,#2074,
#2075,#2076,#2077,#2078,#2079),.UNSPECIFIED.,.T.,.F.,(1,1,1,1,1,1,1,1,1,
1,1,1,1,1,1),(-0.00170274097821673,-0.00113516065214449,-0.000567580326072245,
0.,0.000567580326072244,0.00113516065214449,0.00170274097821673,0.00227032130428898,
0.00283790163036122,0.00340548195643347,0.00397306228250571,0.00454064260857796,
0.0051082229346502,0.00567580326072244,0.00624338358679469),
 .UNSPECIFIED.);
#48=CYLINDRICAL_SURFACE('',#1192,0.0015);
#49=CYLINDRICAL_SURFACE('',#1195,0.0015);
#50=CYLINDRICAL_SURFACE('',#1217,0.008);
#51=CYLINDRICAL_SURFACE('',#1219,0.0027);
#52=CYLINDRICAL_SURFACE('',#1222,0.01);
#53=CYLINDRICAL_SURFACE('',#1231,0.0026);
#54=CYLINDRICAL_SURFACE('',#1236,0.0023);
#55=CYLINDRICAL_SURFACE('',#1240,0.0025);
#56=CYLINDRICAL_SURFACE('',#1253,0.008);
#57=CYLINDRICAL_SURFACE('',#1259,0.008);
#58=CYLINDRICAL_SURFACE('',#1264,0.008);
#59=CYLINDRICAL_SURFACE('',#1269,0.008);
#60=CYLINDRICAL_SURFACE('',#1277,0.00725);
#61=CYLINDRICAL_SURFACE('',#1283,0.00725);
#62=CYLINDRICAL_SURFACE('',#1289,0.00725);
#63=CYLINDRICAL_SURFACE('',#1296,0.00725);
#64=CYLINDRICAL_SURFACE('',#1299,0.0024);
#65=CYLINDRICAL_SURFACE('',#1302,0.00225);
#66=CYLINDRICAL_SURFACE('',#1312,0.0017);
#67=CYLINDRICAL_SURFACE('',#1313,0.000549999999999994);
#68=CYLINDRICAL_SURFACE('',#1314,0.000549999999999994);
#69=LINE('',#1677,#145);
#70=LINE('',#1681,#146);
#71=LINE('',#1686,#147);
#72=LINE('',#1690,#148);
#73=LINE('',#1702,#149);
#74=LINE('',#1711,#150);
#75=LINE('',#1715,#151);
#76=LINE('',#1717,#152);
#77=LINE('',#1722,#153);
#78=LINE('',#1726,#154);
#79=LINE('',#1733,#155);
#80=LINE('',#1737,#156);
#81=LINE('',#1742,#157);
#82=LINE('',#1746,#158);
#83=LINE('',#1753,#159);
#84=LINE('',#1757,#160);
#85=LINE('',#1759,#161);
#86=LINE('',#1763,#162);
#87=LINE('',#1786,#163);
#88=LINE('',#1790,#164);
#89=LINE('',#1791,#165);
#90=LINE('',#1792,#166);
#91=LINE('',#1796,#167);
#92=LINE('',#1797,#168);
#93=LINE('',#1801,#169);
#94=LINE('',#1805,#170);
#95=LINE('',#1811,#171);
#96=LINE('',#1813,#172);
#97=LINE('',#1815,#173);
#98=LINE('',#1845,#174);
#99=LINE('',#1847,#175);
#100=LINE('',#1849,#176);
#101=LINE('',#1856,#177);
#102=LINE('',#1858,#178);
#103=LINE('',#1860,#179);
#104=LINE('',#1862,#180);
#105=LINE('',#1865,#181);
#106=LINE('',#1875,#182);
#107=LINE('',#1877,#183);
#108=LINE('',#1879,#184);
#109=LINE('',#1886,#185);
#110=LINE('',#1900,#186);
#111=LINE('',#1902,#187);
#112=LINE('',#1909,#188);
#113=LINE('',#1911,#189);
#114=LINE('',#1913,#190);
#115=LINE('',#1915,#191);
#116=LINE('',#1918,#192);
#117=LINE('',#1928,#193);
#118=LINE('',#1930,#194);
#119=LINE('',#1932,#195);
#120=LINE('',#1939,#196);
#121=LINE('',#1945,#197);
#122=LINE('',#1949,#198);
#123=LINE('',#1952,#199);
#124=LINE('',#1953,#200);
#125=LINE('',#1955,#201);
#126=LINE('',#1957,#202);
#127=LINE('',#1969,#203);
#128=LINE('',#1971,#204);
#129=LINE('',#1974,#205);
#130=LINE('',#1975,#206);
#131=LINE('',#1982,#207);
#132=LINE('',#1986,#208);
#133=LINE('',#1990,#209);
#134=LINE('',#1992,#210);
#135=LINE('',#1994,#211);
#136=LINE('',#2001,#212);
#137=LINE('',#2007,#213);
#138=LINE('',#2009,#214);
#139=LINE('',#2011,#215);
#140=LINE('',#2018,#216);
#141=LINE('',#2020,#217);
#142=LINE('',#2022,#218);
#143=LINE('',#2058,#219);
#144=LINE('',#2059,#220);
#145=VECTOR('',#1328,1.);
#146=VECTOR('',#1331,1.);
#147=VECTOR('',#1336,1.);
#148=VECTOR('',#1339,1.);
#149=VECTOR('',#1354,1.);
#150=VECTOR('',#1361,1.);
#151=VECTOR('',#1364,1.);
#152=VECTOR('',#1365,1.);
#153=VECTOR('',#1370,1.);
#154=VECTOR('',#1373,1.);
#155=VECTOR('',#1380,1.);
#156=VECTOR('',#1383,1.);
#157=VECTOR('',#1388,1.);
#158=VECTOR('',#1391,1.);
#159=VECTOR('',#1398,1.);
#160=VECTOR('',#1401,1.);
#161=VECTOR('',#1404,1.);
#162=VECTOR('',#1407,1.);
#163=VECTOR('',#1416,1.);
#164=VECTOR('',#1419,1.);
#165=VECTOR('',#1420,1.);
#166=VECTOR('',#1421,1.);
#167=VECTOR('',#1424,1.);
#168=VECTOR('',#1425,1.);
#169=VECTOR('',#1428,1.);
#170=VECTOR('',#1431,1.);
#171=VECTOR('',#1438,1.);
#172=VECTOR('',#1439,1.);
#173=VECTOR('',#1440,1.);
#174=VECTOR('',#1469,1.);
#175=VECTOR('',#1470,1.);
#176=VECTOR('',#1471,1.);
#177=VECTOR('',#1472,1.);
#178=VECTOR('',#1473,1.);
#179=VECTOR('',#1474,1.);
#180=VECTOR('',#1477,1.);
#181=VECTOR('',#1478,1.);
#182=VECTOR('',#1479,1.);
#183=VECTOR('',#1480,1.);
#184=VECTOR('',#1481,1.);
#185=VECTOR('',#1482,1.);
#186=VECTOR('',#1491,1.);
#187=VECTOR('',#1492,1.);
#188=VECTOR('',#1493,1.);
#189=VECTOR('',#1494,1.);
#190=VECTOR('',#1495,1.);
#191=VECTOR('',#1498,1.);
#192=VECTOR('',#1499,1.);
#193=VECTOR('',#1500,1.);
#194=VECTOR('',#1501,1.);
#195=VECTOR('',#1502,1.);
#196=VECTOR('',#1503,1.);
#197=VECTOR('',#1512,1.);
#198=VECTOR('',#1517,1.);
#199=VECTOR('',#1518,1.);
#200=VECTOR('',#1519,1.);
#201=VECTOR('',#1520,1.);
#202=VECTOR('',#1521,1.);
#203=VECTOR('',#1532,1.);
#204=VECTOR('',#1535,1.);
#205=VECTOR('',#1536,1.);
#206=VECTOR('',#1537,1.);
#207=VECTOR('',#1538,1.);
#208=VECTOR('',#1545,1.);
#209=VECTOR('',#1550,1.);
#210=VECTOR('',#1551,1.);
#211=VECTOR('',#1552,1.);
#212=VECTOR('',#1553,1.);
#213=VECTOR('',#1562,1.);
#214=VECTOR('',#1565,1.);
#215=VECTOR('',#1566,1.);
#216=VECTOR('',#1567,1.);
#217=VECTOR('',#1568,1.);
#218=VECTOR('',#1569,1.);
#219=VECTOR('',#1638,1.);
#220=VECTOR('',#1639,1.);
#221=ORIENTED_EDGE('',*,*,#547,.F.);
#222=ORIENTED_EDGE('',*,*,#548,.F.);
#223=ORIENTED_EDGE('',*,*,#549,.T.);
#224=ORIENTED_EDGE('',*,*,#550,.F.);
#225=ORIENTED_EDGE('',*,*,#551,.F.);
#226=ORIENTED_EDGE('',*,*,#552,.F.);
#227=ORIENTED_EDGE('',*,*,#553,.T.);
#228=ORIENTED_EDGE('',*,*,#554,.F.);
#229=ORIENTED_EDGE('',*,*,#555,.T.);
#230=ORIENTED_EDGE('',*,*,#556,.F.);
#231=ORIENTED_EDGE('',*,*,#557,.T.);
#232=ORIENTED_EDGE('',*,*,#558,.F.);
#233=ORIENTED_EDGE('',*,*,#559,.F.);
#234=ORIENTED_EDGE('',*,*,#560,.T.);
#235=ORIENTED_EDGE('',*,*,#561,.F.);
#236=ORIENTED_EDGE('',*,*,#562,.T.);
#237=ORIENTED_EDGE('',*,*,#563,.T.);
#238=ORIENTED_EDGE('',*,*,#564,.T.);
#239=ORIENTED_EDGE('',*,*,#565,.F.);
#240=ORIENTED_EDGE('',*,*,#566,.F.);
#241=ORIENTED_EDGE('',*,*,#567,.F.);
#242=ORIENTED_EDGE('',*,*,#568,.F.);
#243=ORIENTED_EDGE('',*,*,#569,.F.);
#244=ORIENTED_EDGE('',*,*,#570,.F.);
#245=ORIENTED_EDGE('',*,*,#571,.F.);
#246=ORIENTED_EDGE('',*,*,#572,.F.);
#247=ORIENTED_EDGE('',*,*,#573,.F.);
#248=ORIENTED_EDGE('',*,*,#574,.F.);
#249=ORIENTED_EDGE('',*,*,#575,.F.);
#250=ORIENTED_EDGE('',*,*,#576,.T.);
#251=ORIENTED_EDGE('',*,*,#577,.F.);
#252=ORIENTED_EDGE('',*,*,#578,.F.);
#253=ORIENTED_EDGE('',*,*,#579,.F.);
#254=ORIENTED_EDGE('',*,*,#580,.F.);
#255=ORIENTED_EDGE('',*,*,#581,.F.);
#256=ORIENTED_EDGE('',*,*,#582,.F.);
#257=ORIENTED_EDGE('',*,*,#583,.F.);
#258=ORIENTED_EDGE('',*,*,#584,.F.);
#259=ORIENTED_EDGE('',*,*,#585,.F.);
#260=ORIENTED_EDGE('',*,*,#586,.F.);
#261=ORIENTED_EDGE('',*,*,#587,.T.);
#262=ORIENTED_EDGE('',*,*,#583,.T.);
#263=ORIENTED_EDGE('',*,*,#588,.T.);
#264=ORIENTED_EDGE('',*,*,#589,.F.);
#265=ORIENTED_EDGE('',*,*,#590,.T.);
#266=ORIENTED_EDGE('',*,*,#591,.F.);
#267=ORIENTED_EDGE('',*,*,#592,.T.);
#268=ORIENTED_EDGE('',*,*,#593,.T.);
#269=ORIENTED_EDGE('',*,*,#564,.F.);
#270=ORIENTED_EDGE('',*,*,#594,.T.);
#271=ORIENTED_EDGE('',*,*,#549,.F.);
#272=ORIENTED_EDGE('',*,*,#595,.F.);
#273=ORIENTED_EDGE('',*,*,#596,.F.);
#274=ORIENTED_EDGE('',*,*,#597,.T.);
#275=ORIENTED_EDGE('',*,*,#553,.F.);
#276=ORIENTED_EDGE('',*,*,#598,.F.);
#277=ORIENTED_EDGE('',*,*,#599,.F.);
#278=ORIENTED_EDGE('',*,*,#600,.F.);
#279=ORIENTED_EDGE('',*,*,#601,.T.);
#280=ORIENTED_EDGE('',*,*,#602,.F.);
#281=ORIENTED_EDGE('',*,*,#560,.F.);
#282=ORIENTED_EDGE('',*,*,#603,.T.);
#283=ORIENTED_EDGE('',*,*,#604,.T.);
#284=ORIENTED_EDGE('',*,*,#592,.F.);
#285=ORIENTED_EDGE('',*,*,#605,.F.);
#286=ORIENTED_EDGE('',*,*,#606,.F.);
#287=ORIENTED_EDGE('',*,*,#607,.F.);
#288=ORIENTED_EDGE('',*,*,#608,.T.);
#289=ORIENTED_EDGE('',*,*,#609,.T.);
#290=ORIENTED_EDGE('',*,*,#608,.F.);
#291=ORIENTED_EDGE('',*,*,#589,.T.);
#292=ORIENTED_EDGE('',*,*,#609,.F.);
#293=ORIENTED_EDGE('',*,*,#610,.T.);
#294=ORIENTED_EDGE('',*,*,#590,.F.);
#295=ORIENTED_EDGE('',*,*,#611,.T.);
#296=ORIENTED_EDGE('',*,*,#610,.F.);
#297=ORIENTED_EDGE('',*,*,#612,.T.);
#298=ORIENTED_EDGE('',*,*,#611,.F.);
#299=ORIENTED_EDGE('',*,*,#613,.T.);
#300=ORIENTED_EDGE('',*,*,#612,.F.);
#301=ORIENTED_EDGE('',*,*,#557,.F.);
#302=ORIENTED_EDGE('',*,*,#613,.F.);
#303=ORIENTED_EDGE('',*,*,#577,.T.);
#304=ORIENTED_EDGE('',*,*,#614,.F.);
#305=ORIENTED_EDGE('',*,*,#615,.F.);
#306=ORIENTED_EDGE('',*,*,#554,.T.);
#307=ORIENTED_EDGE('',*,*,#597,.F.);
#308=ORIENTED_EDGE('',*,*,#616,.F.);
#309=ORIENTED_EDGE('',*,*,#617,.F.);
#310=ORIENTED_EDGE('',*,*,#618,.F.);
#311=ORIENTED_EDGE('',*,*,#619,.T.);
#312=ORIENTED_EDGE('',*,*,#620,.T.);
#313=ORIENTED_EDGE('',*,*,#621,.T.);
#314=ORIENTED_EDGE('',*,*,#622,.T.);
#315=ORIENTED_EDGE('',*,*,#623,.T.);
#316=ORIENTED_EDGE('',*,*,#624,.F.);
#317=ORIENTED_EDGE('',*,*,#595,.T.);
#318=ORIENTED_EDGE('',*,*,#548,.T.);
#319=ORIENTED_EDGE('',*,*,#625,.F.);
#320=ORIENTED_EDGE('',*,*,#626,.F.);
#321=ORIENTED_EDGE('',*,*,#570,.T.);
#322=ORIENTED_EDGE('',*,*,#627,.T.);
#323=ORIENTED_EDGE('',*,*,#628,.T.);
#324=ORIENTED_EDGE('',*,*,#629,.T.);
#325=ORIENTED_EDGE('',*,*,#630,.T.);
#326=ORIENTED_EDGE('',*,*,#631,.F.);
#327=ORIENTED_EDGE('',*,*,#624,.T.);
#328=ORIENTED_EDGE('',*,*,#632,.T.);
#329=ORIENTED_EDGE('',*,*,#586,.T.);
#330=ORIENTED_EDGE('',*,*,#633,.T.);
#331=ORIENTED_EDGE('',*,*,#616,.T.);
#332=ORIENTED_EDGE('',*,*,#596,.T.);
#333=ORIENTED_EDGE('',*,*,#568,.T.);
#334=ORIENTED_EDGE('',*,*,#634,.T.);
#335=ORIENTED_EDGE('',*,*,#635,.T.);
#336=ORIENTED_EDGE('',*,*,#550,.T.);
#337=ORIENTED_EDGE('',*,*,#594,.F.);
#338=ORIENTED_EDGE('',*,*,#563,.F.);
#339=ORIENTED_EDGE('',*,*,#636,.F.);
#340=ORIENTED_EDGE('',*,*,#637,.F.);
#341=ORIENTED_EDGE('',*,*,#638,.T.);
#342=ORIENTED_EDGE('',*,*,#639,.T.);
#343=ORIENTED_EDGE('',*,*,#640,.T.);
#344=ORIENTED_EDGE('',*,*,#641,.T.);
#345=ORIENTED_EDGE('',*,*,#642,.T.);
#346=ORIENTED_EDGE('',*,*,#643,.F.);
#347=ORIENTED_EDGE('',*,*,#598,.T.);
#348=ORIENTED_EDGE('',*,*,#552,.T.);
#349=ORIENTED_EDGE('',*,*,#644,.T.);
#350=ORIENTED_EDGE('',*,*,#645,.T.);
#351=ORIENTED_EDGE('',*,*,#579,.T.);
#352=ORIENTED_EDGE('',*,*,#646,.T.);
#353=ORIENTED_EDGE('',*,*,#647,.T.);
#354=ORIENTED_EDGE('',*,*,#648,.T.);
#355=ORIENTED_EDGE('',*,*,#649,.T.);
#356=ORIENTED_EDGE('',*,*,#650,.F.);
#357=ORIENTED_EDGE('',*,*,#651,.F.);
#358=ORIENTED_EDGE('',*,*,#599,.T.);
#359=ORIENTED_EDGE('',*,*,#643,.T.);
#360=ORIENTED_EDGE('',*,*,#652,.T.);
#361=ORIENTED_EDGE('',*,*,#562,.F.);
#362=ORIENTED_EDGE('',*,*,#653,.T.);
#363=ORIENTED_EDGE('',*,*,#654,.F.);
#364=ORIENTED_EDGE('',*,*,#636,.T.);
#365=ORIENTED_EDGE('',*,*,#655,.F.);
#366=ORIENTED_EDGE('',*,*,#656,.T.);
#367=ORIENTED_EDGE('',*,*,#575,.T.);
#368=ORIENTED_EDGE('',*,*,#657,.T.);
#369=ORIENTED_EDGE('',*,*,#658,.T.);
#370=ORIENTED_EDGE('',*,*,#659,.T.);
#371=ORIENTED_EDGE('',*,*,#660,.T.);
#372=ORIENTED_EDGE('',*,*,#661,.F.);
#373=ORIENTED_EDGE('',*,*,#655,.T.);
#374=ORIENTED_EDGE('',*,*,#662,.T.);
#375=ORIENTED_EDGE('',*,*,#637,.T.);
#376=ORIENTED_EDGE('',*,*,#654,.T.);
#377=ORIENTED_EDGE('',*,*,#632,.F.);
#378=ORIENTED_EDGE('',*,*,#623,.F.);
#379=ORIENTED_EDGE('',*,*,#663,.F.);
#380=ORIENTED_EDGE('',*,*,#664,.T.);
#381=ORIENTED_EDGE('',*,*,#665,.T.);
#382=ORIENTED_EDGE('',*,*,#666,.T.);
#383=ORIENTED_EDGE('',*,*,#584,.T.);
#384=ORIENTED_EDGE('',*,*,#587,.F.);
#385=ORIENTED_EDGE('',*,*,#664,.F.);
#386=ORIENTED_EDGE('',*,*,#667,.F.);
#387=ORIENTED_EDGE('',*,*,#668,.T.);
#388=ORIENTED_EDGE('',*,*,#669,.T.);
#389=ORIENTED_EDGE('',*,*,#670,.T.);
#390=ORIENTED_EDGE('',*,*,#667,.T.);
#391=ORIENTED_EDGE('',*,*,#663,.T.);
#392=ORIENTED_EDGE('',*,*,#631,.T.);
#393=ORIENTED_EDGE('',*,*,#633,.F.);
#394=ORIENTED_EDGE('',*,*,#671,.F.);
#395=ORIENTED_EDGE('',*,*,#672,.F.);
#396=ORIENTED_EDGE('',*,*,#617,.T.);
#397=ORIENTED_EDGE('',*,*,#582,.T.);
#398=ORIENTED_EDGE('',*,*,#673,.T.);
#399=ORIENTED_EDGE('',*,*,#674,.T.);
#400=ORIENTED_EDGE('',*,*,#675,.T.);
#401=ORIENTED_EDGE('',*,*,#676,.T.);
#402=ORIENTED_EDGE('',*,*,#677,.F.);
#403=ORIENTED_EDGE('',*,*,#671,.T.);
#404=ORIENTED_EDGE('',*,*,#585,.T.);
#405=ORIENTED_EDGE('',*,*,#678,.T.);
#406=ORIENTED_EDGE('',*,*,#618,.T.);
#407=ORIENTED_EDGE('',*,*,#672,.T.);
#408=ORIENTED_EDGE('',*,*,#677,.T.);
#409=ORIENTED_EDGE('',*,*,#679,.F.);
#410=ORIENTED_EDGE('',*,*,#680,.T.);
#411=ORIENTED_EDGE('',*,*,#652,.F.);
#412=ORIENTED_EDGE('',*,*,#642,.F.);
#413=ORIENTED_EDGE('',*,*,#573,.T.);
#414=ORIENTED_EDGE('',*,*,#681,.T.);
#415=ORIENTED_EDGE('',*,*,#682,.F.);
#416=ORIENTED_EDGE('',*,*,#683,.T.);
#417=ORIENTED_EDGE('',*,*,#684,.T.);
#418=ORIENTED_EDGE('',*,*,#685,.T.);
#419=ORIENTED_EDGE('',*,*,#686,.T.);
#420=ORIENTED_EDGE('',*,*,#687,.F.);
#421=ORIENTED_EDGE('',*,*,#679,.T.);
#422=ORIENTED_EDGE('',*,*,#650,.T.);
#423=ORIENTED_EDGE('',*,*,#688,.F.);
#424=ORIENTED_EDGE('',*,*,#682,.T.);
#425=ORIENTED_EDGE('',*,*,#689,.T.);
#426=ORIENTED_EDGE('',*,*,#683,.F.);
#427=ORIENTED_EDGE('',*,*,#688,.T.);
#428=ORIENTED_EDGE('',*,*,#649,.F.);
#429=ORIENTED_EDGE('',*,*,#690,.T.);
#430=ORIENTED_EDGE('',*,*,#684,.F.);
#431=ORIENTED_EDGE('',*,*,#689,.F.);
#432=ORIENTED_EDGE('',*,*,#648,.F.);
#433=ORIENTED_EDGE('',*,*,#647,.F.);
#434=ORIENTED_EDGE('',*,*,#691,.T.);
#435=ORIENTED_EDGE('',*,*,#685,.F.);
#436=ORIENTED_EDGE('',*,*,#690,.F.);
#437=ORIENTED_EDGE('',*,*,#678,.F.);
#438=ORIENTED_EDGE('',*,*,#676,.F.);
#439=ORIENTED_EDGE('',*,*,#692,.T.);
#440=ORIENTED_EDGE('',*,*,#619,.F.);
#441=ORIENTED_EDGE('',*,*,#692,.F.);
#442=ORIENTED_EDGE('',*,*,#675,.F.);
#443=ORIENTED_EDGE('',*,*,#693,.T.);
#444=ORIENTED_EDGE('',*,*,#620,.F.);
#445=ORIENTED_EDGE('',*,*,#674,.F.);
#446=ORIENTED_EDGE('',*,*,#694,.T.);
#447=ORIENTED_EDGE('',*,*,#621,.F.);
#448=ORIENTED_EDGE('',*,*,#693,.F.);
#449=ORIENTED_EDGE('',*,*,#695,.T.);
#450=ORIENTED_EDGE('',*,*,#668,.F.);
#451=ORIENTED_EDGE('',*,*,#670,.F.);
#452=ORIENTED_EDGE('',*,*,#630,.F.);
#453=ORIENTED_EDGE('',*,*,#696,.T.);
#454=ORIENTED_EDGE('',*,*,#669,.F.);
#455=ORIENTED_EDGE('',*,*,#695,.F.);
#456=ORIENTED_EDGE('',*,*,#629,.F.);
#457=ORIENTED_EDGE('',*,*,#628,.F.);
#458=ORIENTED_EDGE('',*,*,#697,.T.);
#459=ORIENTED_EDGE('',*,*,#665,.F.);
#460=ORIENTED_EDGE('',*,*,#696,.F.);
#461=ORIENTED_EDGE('',*,*,#658,.F.);
#462=ORIENTED_EDGE('',*,*,#698,.T.);
#463=ORIENTED_EDGE('',*,*,#640,.F.);
#464=ORIENTED_EDGE('',*,*,#699,.F.);
#465=ORIENTED_EDGE('',*,*,#700,.F.);
#466=ORIENTED_EDGE('',*,*,#659,.F.);
#467=ORIENTED_EDGE('',*,*,#699,.T.);
#468=ORIENTED_EDGE('',*,*,#639,.F.);
#469=ORIENTED_EDGE('',*,*,#662,.F.);
#470=ORIENTED_EDGE('',*,*,#660,.F.);
#471=ORIENTED_EDGE('',*,*,#700,.T.);
#472=ORIENTED_EDGE('',*,*,#638,.F.);
#473=ORIENTED_EDGE('',*,*,#701,.F.);
#474=ORIENTED_EDGE('',*,*,#581,.T.);
#475=ORIENTED_EDGE('',*,*,#666,.F.);
#476=ORIENTED_EDGE('',*,*,#697,.F.);
#477=ORIENTED_EDGE('',*,*,#627,.F.);
#478=ORIENTED_EDGE('',*,*,#569,.T.);
#479=ORIENTED_EDGE('',*,*,#641,.F.);
#480=ORIENTED_EDGE('',*,*,#698,.F.);
#481=ORIENTED_EDGE('',*,*,#657,.F.);
#482=ORIENTED_EDGE('',*,*,#574,.T.);
#483=ORIENTED_EDGE('',*,*,#686,.F.);
#484=ORIENTED_EDGE('',*,*,#691,.F.);
#485=ORIENTED_EDGE('',*,*,#646,.F.);
#486=ORIENTED_EDGE('',*,*,#578,.T.);
#487=ORIENTED_EDGE('',*,*,#622,.F.);
#488=ORIENTED_EDGE('',*,*,#694,.F.);
#489=ORIENTED_EDGE('',*,*,#673,.F.);
#490=ORIENTED_EDGE('',*,*,#701,.T.);
#491=ORIENTED_EDGE('',*,*,#555,.F.);
#492=ORIENTED_EDGE('',*,*,#602,.T.);
#493=ORIENTED_EDGE('',*,*,#702,.T.);
#494=ORIENTED_EDGE('',*,*,#600,.T.);
#495=ORIENTED_EDGE('',*,*,#651,.T.);
#496=ORIENTED_EDGE('',*,*,#680,.F.);
#497=ORIENTED_EDGE('',*,*,#687,.T.);
#498=ORIENTED_EDGE('',*,*,#681,.F.);
#499=ORIENTED_EDGE('',*,*,#572,.T.);
#500=ORIENTED_EDGE('',*,*,#656,.F.);
#501=ORIENTED_EDGE('',*,*,#661,.T.);
#502=ORIENTED_EDGE('',*,*,#653,.F.);
#503=ORIENTED_EDGE('',*,*,#561,.T.);
#504=ORIENTED_EDGE('',*,*,#702,.F.);
#505=ORIENTED_EDGE('',*,*,#601,.F.);
#506=ORIENTED_EDGE('',*,*,#606,.T.);
#507=ORIENTED_EDGE('',*,*,#703,.T.);
#508=ORIENTED_EDGE('',*,*,#566,.T.);
#509=ORIENTED_EDGE('',*,*,#704,.F.);
#510=ORIENTED_EDGE('',*,*,#605,.T.);
#511=ORIENTED_EDGE('',*,*,#591,.T.);
#512=ORIENTED_EDGE('',*,*,#559,.T.);
#513=ORIENTED_EDGE('',*,*,#703,.F.);
#514=ORIENTED_EDGE('',*,*,#607,.T.);
#515=ORIENTED_EDGE('',*,*,#704,.T.);
#516=ORIENTED_EDGE('',*,*,#565,.T.);
#517=ORIENTED_EDGE('',*,*,#593,.F.);
#518=ORIENTED_EDGE('',*,*,#705,.F.);
#519=ORIENTED_EDGE('',*,*,#556,.T.);
#520=ORIENTED_EDGE('',*,*,#706,.T.);
#521=ORIENTED_EDGE('',*,*,#558,.T.);
#522=ORIENTED_EDGE('',*,*,#707,.F.);
#523=ORIENTED_EDGE('',*,*,#705,.T.);
#524=ORIENTED_EDGE('',*,*,#706,.F.);
#525=ORIENTED_EDGE('',*,*,#604,.F.);
#526=ORIENTED_EDGE('',*,*,#580,.T.);
#527=ORIENTED_EDGE('',*,*,#603,.F.);
#528=ORIENTED_EDGE('',*,*,#571,.T.);
#529=ORIENTED_EDGE('',*,*,#707,.T.);
#530=ORIENTED_EDGE('',*,*,#588,.F.);
#531=ORIENTED_EDGE('',*,*,#551,.T.);
#532=ORIENTED_EDGE('',*,*,#615,.T.);
#533=ORIENTED_EDGE('',*,*,#708,.F.);
#534=ORIENTED_EDGE('',*,*,#644,.F.);
#535=ORIENTED_EDGE('',*,*,#708,.T.);
#536=ORIENTED_EDGE('',*,*,#614,.T.);
#537=ORIENTED_EDGE('',*,*,#576,.F.);
#538=ORIENTED_EDGE('',*,*,#645,.F.);
#539=ORIENTED_EDGE('',*,*,#547,.T.);
#540=ORIENTED_EDGE('',*,*,#635,.F.);
#541=ORIENTED_EDGE('',*,*,#709,.T.);
#542=ORIENTED_EDGE('',*,*,#625,.T.);
#543=ORIENTED_EDGE('',*,*,#567,.T.);
#544=ORIENTED_EDGE('',*,*,#626,.T.);
#545=ORIENTED_EDGE('',*,*,#709,.F.);
#546=ORIENTED_EDGE('',*,*,#634,.F.);
#547=EDGE_CURVE('',#710,#711,#825,.T.);
#548=EDGE_CURVE('',#712,#710,#69,.T.);
#549=EDGE_CURVE('',#712,#713,#826,.T.);
#550=EDGE_CURVE('',#711,#713,#70,.T.);
#551=EDGE_CURVE('',#714,#715,#827,.T.);
#552=EDGE_CURVE('',#716,#714,#71,.T.);
#553=EDGE_CURVE('',#716,#717,#828,.T.);
#554=EDGE_CURVE('',#715,#717,#72,.T.);
#555=EDGE_CURVE('',#718,#718,#829,.T.);
#556=EDGE_CURVE('',#719,#719,#830,.F.);
#557=EDGE_CURVE('',#720,#720,#831,.T.);
#558=EDGE_CURVE('',#721,#721,#832,.F.);
#559=EDGE_CURVE('',#722,#723,#73,.T.);
#560=EDGE_CURVE('',#722,#724,#833,.T.);
#561=EDGE_CURVE('',#725,#724,#834,.T.);
#562=EDGE_CURVE('',#725,#726,#835,.F.);
#563=EDGE_CURVE('',#726,#727,#74,.T.);
#564=EDGE_CURVE('',#727,#728,#836,.T.);
#565=EDGE_CURVE('',#729,#728,#75,.T.);
#566=EDGE_CURVE('',#723,#729,#76,.T.);
#567=EDGE_CURVE('',#730,#731,#837,.T.);
#568=EDGE_CURVE('',#732,#730,#77,.T.);
#569=EDGE_CURVE('',#733,#732,#838,.T.);
#570=EDGE_CURVE('',#731,#733,#78,.T.);
#571=EDGE_CURVE('',#734,#734,#839,.T.);
#572=EDGE_CURVE('',#735,#736,#840,.T.);
#573=EDGE_CURVE('',#737,#735,#79,.T.);
#574=EDGE_CURVE('',#738,#737,#841,.T.);
#575=EDGE_CURVE('',#736,#738,#80,.T.);
#576=EDGE_CURVE('',#739,#740,#842,.T.);
#577=EDGE_CURVE('',#741,#740,#81,.T.);
#578=EDGE_CURVE('',#742,#741,#843,.T.);
#579=EDGE_CURVE('',#739,#742,#82,.T.);
#580=EDGE_CURVE('',#743,#743,#844,.T.);
#581=EDGE_CURVE('',#744,#745,#845,.T.);
#582=EDGE_CURVE('',#746,#744,#83,.T.);
#583=EDGE_CURVE('',#747,#746,#846,.T.);
#584=EDGE_CURVE('',#745,#747,#84,.T.);
#585=EDGE_CURVE('',#748,#746,#85,.T.);
#586=EDGE_CURVE('',#749,#748,#847,.F.);
#587=EDGE_CURVE('',#749,#747,#86,.T.);
#588=EDGE_CURVE('',#750,#750,#30,.T.);
#589=EDGE_CURVE('',#751,#751,#848,.T.);
#590=EDGE_CURVE('',#752,#752,#849,.T.);
#591=EDGE_CURVE('',#753,#722,#87,.T.);
#592=EDGE_CURVE('',#753,#754,#850,.T.);
#593=EDGE_CURVE('',#754,#728,#88,.T.);
#594=EDGE_CURVE('',#727,#713,#89,.T.);
#595=EDGE_CURVE('',#755,#712,#90,.T.);
#596=EDGE_CURVE('',#756,#755,#851,.T.);
#597=EDGE_CURVE('',#756,#717,#91,.T.);
#598=EDGE_CURVE('',#757,#716,#92,.T.);
#599=EDGE_CURVE('',#758,#757,#852,.T.);
#600=EDGE_CURVE('',#759,#758,#93,.T.);
#601=EDGE_CURVE('',#759,#760,#853,.F.);
#602=EDGE_CURVE('',#724,#760,#94,.F.);
#603=EDGE_CURVE('',#761,#761,#854,.T.);
#604=EDGE_CURVE('',#762,#762,#855,.T.);
#605=EDGE_CURVE('',#763,#753,#95,.T.);
#606=EDGE_CURVE('',#764,#763,#96,.T.);
#607=EDGE_CURVE('',#754,#764,#97,.T.);
#608=EDGE_CURVE('',#765,#765,#856,.T.);
#609=EDGE_CURVE('',#766,#766,#857,.T.);
#610=EDGE_CURVE('',#767,#767,#858,.T.);
#611=EDGE_CURVE('',#768,#768,#859,.T.);
#612=EDGE_CURVE('',#769,#769,#860,.T.);
#613=EDGE_CURVE('',#770,#770,#861,.T.);
#614=EDGE_CURVE('',#771,#740,#31,.T.);
#615=EDGE_CURVE('',#715,#771,#32,.T.);
#616=EDGE_CURVE('',#772,#756,#98,.T.);
#617=EDGE_CURVE('',#773,#772,#99,.T.);
#618=EDGE_CURVE('',#774,#773,#100,.T.);
#619=EDGE_CURVE('',#774,#775,#33,.T.);
#620=EDGE_CURVE('',#775,#776,#101,.T.);
#621=EDGE_CURVE('',#776,#777,#102,.T.);
#622=EDGE_CURVE('',#777,#741,#103,.F.);
#623=EDGE_CURVE('',#778,#779,#104,.T.);
#624=EDGE_CURVE('',#755,#779,#105,.T.);
#625=EDGE_CURVE('',#780,#710,#34,.T.);
#626=EDGE_CURVE('',#731,#780,#35,.T.);
#627=EDGE_CURVE('',#733,#781,#106,.T.);
#628=EDGE_CURVE('',#781,#782,#107,.T.);
#629=EDGE_CURVE('',#782,#783,#108,.F.);
#630=EDGE_CURVE('',#783,#784,#36,.T.);
#631=EDGE_CURVE('',#778,#784,#109,.T.);
#632=EDGE_CURVE('',#779,#749,#862,.F.);
#633=EDGE_CURVE('',#748,#772,#863,.F.);
#634=EDGE_CURVE('',#730,#785,#37,.T.);
#635=EDGE_CURVE('',#785,#711,#38,.T.);
#636=EDGE_CURVE('',#786,#726,#110,.T.);
#637=EDGE_CURVE('',#787,#786,#111,.T.);
#638=EDGE_CURVE('',#787,#788,#39,.T.);
#639=EDGE_CURVE('',#788,#789,#112,.T.);
#640=EDGE_CURVE('',#789,#790,#113,.T.);
#641=EDGE_CURVE('',#790,#732,#114,.F.);
#642=EDGE_CURVE('',#791,#792,#115,.T.);
#643=EDGE_CURVE('',#757,#792,#116,.T.);
#644=EDGE_CURVE('',#714,#793,#40,.T.);
#645=EDGE_CURVE('',#793,#739,#41,.T.);
#646=EDGE_CURVE('',#742,#794,#117,.T.);
#647=EDGE_CURVE('',#794,#795,#118,.T.);
#648=EDGE_CURVE('',#795,#796,#119,.F.);
#649=EDGE_CURVE('',#796,#797,#42,.T.);
#650=EDGE_CURVE('',#791,#797,#120,.T.);
#651=EDGE_CURVE('',#758,#798,#864,.T.);
#652=EDGE_CURVE('',#792,#798,#865,.F.);
#653=EDGE_CURVE('',#725,#799,#121,.T.);
#654=EDGE_CURVE('',#786,#799,#866,.T.);
#655=EDGE_CURVE('',#800,#801,#122,.T.);
#656=EDGE_CURVE('',#800,#736,#123,.F.);
#657=EDGE_CURVE('',#738,#802,#124,.T.);
#658=EDGE_CURVE('',#802,#803,#125,.T.);
#659=EDGE_CURVE('',#803,#804,#126,.F.);
#660=EDGE_CURVE('',#804,#801,#43,.T.);
#661=EDGE_CURVE('',#800,#799,#867,.T.);
#662=EDGE_CURVE('',#801,#787,#868,.T.);
#663=EDGE_CURVE('',#805,#778,#869,.T.);
#664=EDGE_CURVE('',#805,#749,#127,.T.);
#665=EDGE_CURVE('',#806,#807,#128,.T.);
#666=EDGE_CURVE('',#807,#745,#129,.F.);
#667=EDGE_CURVE('',#808,#805,#130,.T.);
#668=EDGE_CURVE('',#808,#809,#44,.T.);
#669=EDGE_CURVE('',#809,#806,#131,.T.);
#670=EDGE_CURVE('',#784,#808,#870,.T.);
#671=EDGE_CURVE('',#810,#748,#132,.T.);
#672=EDGE_CURVE('',#773,#810,#871,.T.);
#673=EDGE_CURVE('',#744,#811,#133,.T.);
#674=EDGE_CURVE('',#811,#812,#134,.T.);
#675=EDGE_CURVE('',#812,#813,#135,.F.);
#676=EDGE_CURVE('',#813,#814,#45,.T.);
#677=EDGE_CURVE('',#810,#814,#136,.T.);
#678=EDGE_CURVE('',#814,#774,#872,.T.);
#679=EDGE_CURVE('',#815,#791,#873,.T.);
#680=EDGE_CURVE('',#815,#798,#137,.F.);
#681=EDGE_CURVE('',#735,#816,#138,.T.);
#682=EDGE_CURVE('',#817,#816,#139,.T.);
#683=EDGE_CURVE('',#817,#818,#46,.T.);
#684=EDGE_CURVE('',#818,#819,#140,.T.);
#685=EDGE_CURVE('',#819,#820,#141,.T.);
#686=EDGE_CURVE('',#820,#737,#142,.F.);
#687=EDGE_CURVE('',#815,#816,#874,.T.);
#688=EDGE_CURVE('',#817,#797,#875,.T.);
#689=EDGE_CURVE('',#796,#818,#876,.T.);
#690=EDGE_CURVE('',#795,#819,#877,.T.);
#691=EDGE_CURVE('',#794,#820,#878,.T.);
#692=EDGE_CURVE('',#813,#775,#879,.T.);
#693=EDGE_CURVE('',#812,#776,#880,.T.);
#694=EDGE_CURVE('',#811,#777,#881,.T.);
#695=EDGE_CURVE('',#783,#809,#882,.T.);
#696=EDGE_CURVE('',#782,#806,#883,.T.);
#697=EDGE_CURVE('',#781,#807,#884,.T.);
#698=EDGE_CURVE('',#802,#790,#885,.T.);
#699=EDGE_CURVE('',#803,#789,#886,.T.);
#700=EDGE_CURVE('',#804,#788,#887,.T.);
#701=EDGE_CURVE('',#821,#821,#888,.T.);
#702=EDGE_CURVE('',#760,#759,#889,.F.);
#703=EDGE_CURVE('',#763,#723,#143,.T.);
#704=EDGE_CURVE('',#764,#729,#144,.T.);
#705=EDGE_CURVE('',#822,#822,#890,.T.);
#706=EDGE_CURVE('',#823,#823,#891,.T.);
#707=EDGE_CURVE('',#824,#824,#47,.T.);
#708=EDGE_CURVE('',#793,#771,#892,.T.);
#709=EDGE_CURVE('',#785,#780,#893,.T.);
#710=VERTEX_POINT('',#1675);
#711=VERTEX_POINT('',#1676);
#712=VERTEX_POINT('',#1678);
#713=VERTEX_POINT('',#1680);
#714=VERTEX_POINT('',#1684);
#715=VERTEX_POINT('',#1685);
#716=VERTEX_POINT('',#1687);
#717=VERTEX_POINT('',#1689);
#718=VERTEX_POINT('',#1693);
#719=VERTEX_POINT('',#1695);
#720=VERTEX_POINT('',#1698);
#721=VERTEX_POINT('',#1700);
#722=VERTEX_POINT('',#1703);
#723=VERTEX_POINT('',#1704);
#724=VERTEX_POINT('',#1706);
#725=VERTEX_POINT('',#1708);
#726=VERTEX_POINT('',#1710);
#727=VERTEX_POINT('',#1712);
#728=VERTEX_POINT('',#1714);
#729=VERTEX_POINT('',#1716);
#730=VERTEX_POINT('',#1720);
#731=VERTEX_POINT('',#1721);
#732=VERTEX_POINT('',#1723);
#733=VERTEX_POINT('',#1725);
#734=VERTEX_POINT('',#1728);
#735=VERTEX_POINT('',#1731);
#736=VERTEX_POINT('',#1732);
#737=VERTEX_POINT('',#1734);
#738=VERTEX_POINT('',#1736);
#739=VERTEX_POINT('',#1740);
#740=VERTEX_POINT('',#1741);
#741=VERTEX_POINT('',#1743);
#742=VERTEX_POINT('',#1745);
#743=VERTEX_POINT('',#1748);
#744=VERTEX_POINT('',#1751);
#745=VERTEX_POINT('',#1752);
#746=VERTEX_POINT('',#1754);
#747=VERTEX_POINT('',#1756);
#748=VERTEX_POINT('',#1760);
#749=VERTEX_POINT('',#1762);
#750=VERTEX_POINT('',#1780);
#751=VERTEX_POINT('',#1782);
#752=VERTEX_POINT('',#1784);
#753=VERTEX_POINT('',#1787);
#754=VERTEX_POINT('',#1789);
#755=VERTEX_POINT('',#1793);
#756=VERTEX_POINT('',#1795);
#757=VERTEX_POINT('',#1798);
#758=VERTEX_POINT('',#1800);
#759=VERTEX_POINT('',#1802);
#760=VERTEX_POINT('',#1804);
#761=VERTEX_POINT('',#1808);
#762=VERTEX_POINT('',#1810);
#763=VERTEX_POINT('',#1812);
#764=VERTEX_POINT('',#1814);
#765=VERTEX_POINT('',#1817);
#766=VERTEX_POINT('',#1820);
#767=VERTEX_POINT('',#1824);
#768=VERTEX_POINT('',#1827);
#769=VERTEX_POINT('',#1830);
#770=VERTEX_POINT('',#1833);
#771=VERTEX_POINT('',#1840);
#772=VERTEX_POINT('',#1846);
#773=VERTEX_POINT('',#1848);
#774=VERTEX_POINT('',#1850);
#775=VERTEX_POINT('',#1855);
#776=VERTEX_POINT('',#1857);
#777=VERTEX_POINT('',#1859);
#778=VERTEX_POINT('',#1863);
#779=VERTEX_POINT('',#1864);
#780=VERTEX_POINT('',#1870);
#781=VERTEX_POINT('',#1876);
#782=VERTEX_POINT('',#1878);
#783=VERTEX_POINT('',#1880);
#784=VERTEX_POINT('',#1885);
#785=VERTEX_POINT('',#1895);
#786=VERTEX_POINT('',#1901);
#787=VERTEX_POINT('',#1903);
#788=VERTEX_POINT('',#1908);
#789=VERTEX_POINT('',#1910);
#790=VERTEX_POINT('',#1912);
#791=VERTEX_POINT('',#1916);
#792=VERTEX_POINT('',#1917);
#793=VERTEX_POINT('',#1923);
#794=VERTEX_POINT('',#1929);
#795=VERTEX_POINT('',#1931);
#796=VERTEX_POINT('',#1933);
#797=VERTEX_POINT('',#1938);
#798=VERTEX_POINT('',#1942);
#799=VERTEX_POINT('',#1946);
#800=VERTEX_POINT('',#1950);
#801=VERTEX_POINT('',#1951);
#802=VERTEX_POINT('',#1954);
#803=VERTEX_POINT('',#1956);
#804=VERTEX_POINT('',#1958);
#805=VERTEX_POINT('',#1968);
#806=VERTEX_POINT('',#1972);
#807=VERTEX_POINT('',#1973);
#808=VERTEX_POINT('',#1976);
#809=VERTEX_POINT('',#1981);
#810=VERTEX_POINT('',#1987);
#811=VERTEX_POINT('',#1991);
#812=VERTEX_POINT('',#1993);
#813=VERTEX_POINT('',#1995);
#814=VERTEX_POINT('',#2000);
#815=VERTEX_POINT('',#2006);
#816=VERTEX_POINT('',#2010);
#817=VERTEX_POINT('',#2012);
#818=VERTEX_POINT('',#2017);
#819=VERTEX_POINT('',#2019);
#820=VERTEX_POINT('',#2021);
#821=VERTEX_POINT('',#2052);
#822=VERTEX_POINT('',#2064);
#823=VERTEX_POINT('',#2067);
#824=VERTEX_POINT('',#2080);
#825=CIRCLE('',#1187,0.0086);
#826=CIRCLE('',#1188,0.01);
#827=CIRCLE('',#1190,0.0086);
#828=CIRCLE('',#1191,0.01);
#829=CIRCLE('',#1193,0.0015);
#830=CIRCLE('',#1194,0.0015);
#831=CIRCLE('',#1196,0.0015);
#832=CIRCLE('',#1197,0.0015);
#833=CIRCLE('',#1199,0.01);
#834=CIRCLE('',#1200,0.00225);
#835=CIRCLE('',#1201,0.008);
#836=CIRCLE('',#1202,0.01);
#837=CIRCLE('',#1204,0.008);
#838=CIRCLE('',#1205,0.0024);
#839=CIRCLE('',#1206,0.000549999999999988);
#840=CIRCLE('',#1208,0.00225);
#841=CIRCLE('',#1209,0.0024);
#842=CIRCLE('',#1211,0.008);
#843=CIRCLE('',#1212,0.0024);
#844=CIRCLE('',#1213,0.000549999999999988);
#845=CIRCLE('',#1215,0.0024);
#846=CIRCLE('',#1216,0.008);
#847=CIRCLE('',#1218,0.008);
#848=CIRCLE('',#1220,0.0027);
#849=CIRCLE('',#1221,0.0027);
#850=CIRCLE('',#1223,0.01);
#851=CIRCLE('',#1224,0.01);
#852=CIRCLE('',#1225,0.01);
#853=CIRCLE('',#1226,0.01);
#854=CIRCLE('',#1228,0.000549999999999994);
#855=CIRCLE('',#1229,0.000549999999999994);
#856=CIRCLE('',#1230,0.0026);
#857=CIRCLE('',#1232,0.0026);
#858=CIRCLE('',#1235,0.0023);
#859=CIRCLE('',#1237,0.0023);
#860=CIRCLE('',#1239,0.0025);
#861=CIRCLE('',#1241,0.0025);
#862=CIRCLE('',#1246,0.008);
#863=CIRCLE('',#1247,0.008);
#864=CIRCLE('',#1251,0.00225);
#865=CIRCLE('',#1252,0.008);
#866=CIRCLE('',#1254,0.008);
#867=CIRCLE('',#1257,0.00225);
#868=CIRCLE('',#1258,0.00775811682275085);
#869=CIRCLE('',#1260,0.008);
#870=CIRCLE('',#1263,0.00775811682275085);
#871=CIRCLE('',#1265,0.008);
#872=CIRCLE('',#1268,0.00775811682275085);
#873=CIRCLE('',#1270,0.008);
#874=CIRCLE('',#1273,0.00225);
#875=CIRCLE('',#1274,0.00775811682275085);
#876=CIRCLE('',#1276,0.00725);
#877=CIRCLE('',#1278,0.00725);
#878=CIRCLE('',#1280,0.0024);
#879=CIRCLE('',#1282,0.00725);
#880=CIRCLE('',#1284,0.00725);
#881=CIRCLE('',#1286,0.0024);
#882=CIRCLE('',#1288,0.00725);
#883=CIRCLE('',#1290,0.00725);
#884=CIRCLE('',#1292,0.0024);
#885=CIRCLE('',#1294,0.0024);
#886=CIRCLE('',#1295,0.00725);
#887=CIRCLE('',#1297,0.00725);
#888=CIRCLE('',#1300,0.0024);
#889=CIRCLE('',#1303,0.00225);
#890=CIRCLE('',#1309,0.0017);
#891=CIRCLE('',#1311,0.0017);
#892=CIRCLE('',#1317,0.0083);
#893=CIRCLE('',#1320,0.0083);
#894=EDGE_LOOP('',(#221,#222,#223,#224));
#895=EDGE_LOOP('',(#225,#226,#227,#228));
#896=EDGE_LOOP('',(#229));
#897=EDGE_LOOP('',(#230));
#898=EDGE_LOOP('',(#231));
#899=EDGE_LOOP('',(#232));
#900=EDGE_LOOP('',(#233,#234,#235,#236,#237,#238,#239,#240));
#901=EDGE_LOOP('',(#241,#242,#243,#244));
#902=EDGE_LOOP('',(#245));
#903=EDGE_LOOP('',(#246,#247,#248,#249));
#904=EDGE_LOOP('',(#250,#251,#252,#253));
#905=EDGE_LOOP('',(#254));
#906=EDGE_LOOP('',(#255,#256,#257,#258));
#907=EDGE_LOOP('',(#259,#260,#261,#262));
#908=EDGE_LOOP('',(#263));
#909=EDGE_LOOP('',(#264));
#910=EDGE_LOOP('',(#265));
#911=EDGE_LOOP('',(#266,#267,#268,#269,#270,#271,#272,#273,#274,#275,#276,
#277,#278,#279,#280,#281));
#912=EDGE_LOOP('',(#282));
#913=EDGE_LOOP('',(#283));
#914=EDGE_LOOP('',(#284,#285,#286,#287));
#915=EDGE_LOOP('',(#288));
#916=EDGE_LOOP('',(#289));
#917=EDGE_LOOP('',(#290));
#918=EDGE_LOOP('',(#291));
#919=EDGE_LOOP('',(#292));
#920=EDGE_LOOP('',(#293));
#921=EDGE_LOOP('',(#294));
#922=EDGE_LOOP('',(#295));
#923=EDGE_LOOP('',(#296));
#924=EDGE_LOOP('',(#297));
#925=EDGE_LOOP('',(#298));
#926=EDGE_LOOP('',(#299));
#927=EDGE_LOOP('',(#300));
#928=EDGE_LOOP('',(#301));
#929=EDGE_LOOP('',(#302));
#930=EDGE_LOOP('',(#303,#304,#305,#306,#307,#308,#309,#310,#311,#312,#313,
#314));
#931=EDGE_LOOP('',(#315,#316,#317,#318,#319,#320,#321,#322,#323,#324,#325,
#326));
#932=EDGE_LOOP('',(#327,#328,#329,#330,#331,#332));
#933=EDGE_LOOP('',(#333,#334,#335,#336,#337,#338,#339,#340,#341,#342,#343,
#344));
#934=EDGE_LOOP('',(#345,#346,#347,#348,#349,#350,#351,#352,#353,#354,#355,
#356));
#935=EDGE_LOOP('',(#357,#358,#359,#360));
#936=EDGE_LOOP('',(#361,#362,#363,#364));
#937=EDGE_LOOP('',(#365,#366,#367,#368,#369,#370,#371));
#938=EDGE_LOOP('',(#372,#373,#374,#375,#376));
#939=EDGE_LOOP('',(#377,#378,#379,#380));
#940=EDGE_LOOP('',(#381,#382,#383,#384,#385,#386,#387,#388));
#941=EDGE_LOOP('',(#389,#390,#391,#392));
#942=EDGE_LOOP('',(#393,#394,#395,#396));
#943=EDGE_LOOP('',(#397,#398,#399,#400,#401,#402,#403,#404));
#944=EDGE_LOOP('',(#405,#406,#407,#408));
#945=EDGE_LOOP('',(#409,#410,#411,#412));
#946=EDGE_LOOP('',(#413,#414,#415,#416,#417,#418,#419));
#947=EDGE_LOOP('',(#420,#421,#422,#423,#424));
#948=EDGE_LOOP('',(#425,#426,#427,#428));
#949=EDGE_LOOP('',(#429,#430,#431,#432));
#950=EDGE_LOOP('',(#433,#434,#435,#436));
#951=EDGE_LOOP('',(#437,#438,#439,#440));
#952=EDGE_LOOP('',(#441,#442,#443,#444));
#953=EDGE_LOOP('',(#445,#446,#447,#448));
#954=EDGE_LOOP('',(#449,#450,#451,#452));
#955=EDGE_LOOP('',(#453,#454,#455,#456));
#956=EDGE_LOOP('',(#457,#458,#459,#460));
#957=EDGE_LOOP('',(#461,#462,#463,#464));
#958=EDGE_LOOP('',(#465,#466,#467,#468));
#959=EDGE_LOOP('',(#469,#470,#471,#472));
#960=EDGE_LOOP('',(#473));
#961=EDGE_LOOP('',(#474,#475,#476,#477,#478,#479,#480,#481,#482,#483,#484,
#485,#486,#487,#488,#489));
#962=EDGE_LOOP('',(#490));
#963=EDGE_LOOP('',(#491));
#964=EDGE_LOOP('',(#492,#493,#494,#495,#496,#497,#498,#499,#500,#501,#502,
#503));
#965=EDGE_LOOP('',(#504,#505));
#966=EDGE_LOOP('',(#506,#507,#508,#509));
#967=EDGE_LOOP('',(#510,#511,#512,#513));
#968=EDGE_LOOP('',(#514,#515,#516,#517));
#969=EDGE_LOOP('',(#518));
#970=EDGE_LOOP('',(#519));
#971=EDGE_LOOP('',(#520));
#972=EDGE_LOOP('',(#521));
#973=EDGE_LOOP('',(#522));
#974=EDGE_LOOP('',(#523));
#975=EDGE_LOOP('',(#524));
#976=EDGE_LOOP('',(#525));
#977=EDGE_LOOP('',(#526));
#978=EDGE_LOOP('',(#527));
#979=EDGE_LOOP('',(#528));
#980=EDGE_LOOP('',(#529));
#981=EDGE_LOOP('',(#530));
#982=EDGE_LOOP('',(#531,#532,#533,#534));
#983=EDGE_LOOP('',(#535,#536,#537,#538));
#984=EDGE_LOOP('',(#539,#540,#541,#542));
#985=EDGE_LOOP('',(#543,#544,#545,#546));
#986=FACE_BOUND('',#894,.T.);
#987=FACE_BOUND('',#895,.T.);
#988=FACE_BOUND('',#896,.T.);
#989=FACE_BOUND('',#897,.T.);
#990=FACE_BOUND('',#898,.T.);
#991=FACE_BOUND('',#899,.T.);
#992=FACE_BOUND('',#900,.T.);
#993=FACE_BOUND('',#901,.T.);
#994=FACE_BOUND('',#902,.T.);
#995=FACE_BOUND('',#903,.T.);
#996=FACE_BOUND('',#904,.T.);
#997=FACE_BOUND('',#905,.T.);
#998=FACE_BOUND('',#906,.T.);
#999=FACE_BOUND('',#907,.T.);
#1000=FACE_BOUND('',#908,.T.);
#1001=FACE_BOUND('',#909,.T.);
#1002=FACE_BOUND('',#910,.T.);
#1003=FACE_BOUND('',#911,.T.);
#1004=FACE_BOUND('',#912,.T.);
#1005=FACE_BOUND('',#913,.T.);
#1006=FACE_BOUND('',#914,.T.);
#1007=FACE_BOUND('',#915,.T.);
#1008=FACE_BOUND('',#916,.T.);
#1009=FACE_BOUND('',#917,.T.);
#1010=FACE_BOUND('',#918,.T.);
#1011=FACE_BOUND('',#919,.T.);
#1012=FACE_BOUND('',#920,.T.);
#1013=FACE_BOUND('',#921,.T.);
#1014=FACE_BOUND('',#922,.T.);
#1015=FACE_BOUND('',#923,.T.);
#1016=FACE_BOUND('',#924,.T.);
#1017=FACE_BOUND('',#925,.T.);
#1018=FACE_BOUND('',#926,.T.);
#1019=FACE_BOUND('',#927,.T.);
#1020=FACE_BOUND('',#928,.T.);
#1021=FACE_BOUND('',#929,.T.);
#1022=FACE_BOUND('',#930,.T.);
#1023=FACE_BOUND('',#931,.T.);
#1024=FACE_BOUND('',#932,.T.);
#1025=FACE_BOUND('',#933,.T.);
#1026=FACE_BOUND('',#934,.T.);
#1027=FACE_BOUND('',#935,.T.);
#1028=FACE_BOUND('',#936,.T.);
#1029=FACE_BOUND('',#937,.T.);
#1030=FACE_BOUND('',#938,.T.);
#1031=FACE_BOUND('',#939,.T.);
#1032=FACE_BOUND('',#940,.T.);
#1033=FACE_BOUND('',#941,.T.);
#1034=FACE_BOUND('',#942,.T.);
#1035=FACE_BOUND('',#943,.T.);
#1036=FACE_BOUND('',#944,.T.);
#1037=FACE_BOUND('',#945,.T.);
#1038=FACE_BOUND('',#946,.T.);
#1039=FACE_BOUND('',#947,.T.);
#1040=FACE_BOUND('',#948,.T.);
#1041=FACE_BOUND('',#949,.T.);
#1042=FACE_BOUND('',#950,.T.);
#1043=FACE_BOUND('',#951,.T.);
#1044=FACE_BOUND('',#952,.T.);
#1045=FACE_BOUND('',#953,.T.);
#1046=FACE_BOUND('',#954,.T.);
#1047=FACE_BOUND('',#955,.T.);
#1048=FACE_BOUND('',#956,.T.);
#1049=FACE_BOUND('',#957,.T.);
#1050=FACE_BOUND('',#958,.T.);
#1051=FACE_BOUND('',#959,.T.);
#1052=FACE_BOUND('',#960,.T.);
#1053=FACE_BOUND('',#961,.T.);
#1054=FACE_BOUND('',#962,.T.);
#1055=FACE_BOUND('',#963,.T.);
#1056=FACE_BOUND('',#964,.T.);
#1057=FACE_BOUND('',#965,.T.);
#1058=FACE_BOUND('',#966,.T.);
#1059=FACE_BOUND('',#967,.T.);
#1060=FACE_BOUND('',#968,.T.);
#1061=FACE_BOUND('',#969,.T.);
#1062=FACE_BOUND('',#970,.T.);
#1063=FACE_BOUND('',#971,.T.);
#1064=FACE_BOUND('',#972,.T.);
#1065=FACE_BOUND('',#973,.T.);
#1066=FACE_BOUND('',#974,.T.);
#1067=FACE_BOUND('',#975,.T.);
#1068=FACE_BOUND('',#976,.T.);
#1069=FACE_BOUND('',#977,.T.);
#1070=FACE_BOUND('',#978,.T.);
#1071=FACE_BOUND('',#979,.T.);
#1072=FACE_BOUND('',#980,.T.);
#1073=FACE_BOUND('',#981,.T.);
#1074=FACE_BOUND('',#982,.T.);
#1075=FACE_BOUND('',#983,.T.);
#1076=FACE_BOUND('',#984,.T.);
#1077=FACE_BOUND('',#985,.T.);
#1078=PLANE('',#1186);
#1079=PLANE('',#1189);
#1080=PLANE('',#1198);
#1081=PLANE('',#1203);
#1082=PLANE('',#1207);
#1083=PLANE('',#1210);
#1084=PLANE('',#1214);
#1085=PLANE('',#1227);
#1086=PLANE('',#1233);
#1087=PLANE('',#1234);
#1088=PLANE('',#1238);
#1089=PLANE('',#1242);
#1090=PLANE('',#1243);
#1091=PLANE('',#1244);
#1092=PLANE('',#1245);
#1093=PLANE('',#1248);
#1094=PLANE('',#1249);
#1095=PLANE('',#1250);
#1096=PLANE('',#1255);
#1097=PLANE('',#1256);
#1098=PLANE('',#1261);
#1099=PLANE('',#1262);
#1100=PLANE('',#1266);
#1101=PLANE('',#1267);
#1102=PLANE('',#1271);
#1103=PLANE('',#1272);
#1104=PLANE('',#1279);
#1105=PLANE('',#1285);
#1106=PLANE('',#1291);
#1107=PLANE('',#1293);
#1108=PLANE('',#1304);
#1109=PLANE('',#1305);
#1110=PLANE('',#1306);
#1111=PLANE('',#1307);
#1112=PLANE('',#1308);
#1113=PLANE('',#1310);
#1114=ADVANCED_FACE('',(#986),#1078,.T.);
#1115=ADVANCED_FACE('',(#987),#1079,.T.);
#1116=ADVANCED_FACE('',(#988,#989),#48,.F.);
#1117=ADVANCED_FACE('',(#990,#991),#49,.F.);
#1118=ADVANCED_FACE('',(#992),#1080,.T.);
#1119=ADVANCED_FACE('',(#993,#994),#1081,.T.);
#1120=ADVANCED_FACE('',(#995),#1082,.T.);
#1121=ADVANCED_FACE('',(#996,#997),#1083,.T.);
#1122=ADVANCED_FACE('',(#998),#1084,.T.);
#1123=ADVANCED_FACE('',(#999),#50,.F.);
#1124=ADVANCED_FACE('',(#1000,#1001,#1002),#51,.T.);
#1125=ADVANCED_FACE('',(#1003),#52,.T.);
#1126=ADVANCED_FACE('',(#1004,#1005,#1006,#1007),#1085,.F.);
#1127=ADVANCED_FACE('',(#1008,#1009),#53,.T.);
#1128=ADVANCED_FACE('',(#1010,#1011),#1086,.T.);
#1129=ADVANCED_FACE('',(#1012,#1013),#1087,.T.);
#1130=ADVANCED_FACE('',(#1014,#1015),#54,.T.);
#1131=ADVANCED_FACE('',(#1016,#1017),#1088,.T.);
#1132=ADVANCED_FACE('',(#1018,#1019),#55,.T.);
#1133=ADVANCED_FACE('',(#1020,#1021),#1089,.T.);
#1134=ADVANCED_FACE('',(#1022),#1090,.F.);
#1135=ADVANCED_FACE('',(#1023),#1091,.F.);
#1136=ADVANCED_FACE('',(#1024),#1092,.T.);
#1137=ADVANCED_FACE('',(#1025),#1093,.F.);
#1138=ADVANCED_FACE('',(#1026),#1094,.F.);
#1139=ADVANCED_FACE('',(#1027),#1095,.T.);
#1140=ADVANCED_FACE('',(#1028),#56,.T.);
#1141=ADVANCED_FACE('',(#1029),#1096,.F.);
#1142=ADVANCED_FACE('',(#1030),#1097,.T.);
#1143=ADVANCED_FACE('',(#1031),#57,.T.);
#1144=ADVANCED_FACE('',(#1032),#1098,.F.);
#1145=ADVANCED_FACE('',(#1033),#1099,.T.);
#1146=ADVANCED_FACE('',(#1034),#58,.T.);
#1147=ADVANCED_FACE('',(#1035),#1100,.F.);
#1148=ADVANCED_FACE('',(#1036),#1101,.T.);
#1149=ADVANCED_FACE('',(#1037),#59,.T.);
#1150=ADVANCED_FACE('',(#1038),#1102,.F.);
#1151=ADVANCED_FACE('',(#1039),#1103,.T.);
#1152=ADVANCED_FACE('',(#1040),#22,.F.);
#1153=ADVANCED_FACE('',(#1041),#60,.F.);
#1154=ADVANCED_FACE('',(#1042),#1104,.F.);
#1155=ADVANCED_FACE('',(#1043),#23,.F.);
#1156=ADVANCED_FACE('',(#1044),#61,.F.);
#1157=ADVANCED_FACE('',(#1045),#1105,.F.);
#1158=ADVANCED_FACE('',(#1046),#24,.F.);
#1159=ADVANCED_FACE('',(#1047),#62,.F.);
#1160=ADVANCED_FACE('',(#1048),#1106,.F.);
#1161=ADVANCED_FACE('',(#1049),#1107,.F.);
#1162=ADVANCED_FACE('',(#1050),#63,.F.);
#1163=ADVANCED_FACE('',(#1051),#25,.F.);
#1164=ADVANCED_FACE('',(#1052,#1053),#64,.F.);
#1165=ADVANCED_FACE('',(#1054,#1055),#26,.F.);
#1166=ADVANCED_FACE('',(#1056),#65,.F.);
#1167=ADVANCED_FACE('',(#1057),#1108,.T.);
#1168=ADVANCED_FACE('',(#1058),#1109,.F.);
#1169=ADVANCED_FACE('',(#1059),#1110,.F.);
#1170=ADVANCED_FACE('',(#1060),#1111,.F.);
#1171=ADVANCED_FACE('',(#1061,#1062),#1112,.T.);
#1172=ADVANCED_FACE('',(#1063,#1064),#1113,.T.);
#1173=ADVANCED_FACE('',(#1065,#1066,#1067),#66,.F.);
#1174=ADVANCED_FACE('',(#1068,#1069),#67,.F.);
#1175=ADVANCED_FACE('',(#1070,#1071),#68,.F.);
#1176=ADVANCED_FACE('',(#1072,#1073),#27,.F.);
#1177=ADVANCED_FACE('',(#1074),#28,.F.);
#1178=ADVANCED_FACE('',(#1075),#20,.F.);
#1179=ADVANCED_FACE('',(#1076),#29,.F.);
#1180=ADVANCED_FACE('',(#1077),#21,.F.);
#1181=CLOSED_SHELL('',(#1114,#1115,#1116,#1117,#1118,#1119,#1120,#1121,
#1122,#1123,#1124,#1125,#1126,#1127,#1128,#1129,#1130,#1131,#1132,#1133,
#1134,#1135,#1136,#1137,#1138,#1139,#1140,#1141,#1142,#1143,#1144,#1145,
#1146,#1147,#1148,#1149,#1150,#1151,#1152,#1153,#1154,#1155,#1156,#1157,
#1158,#1159,#1160,#1161,#1162,#1163,#1164,#1165,#1166,#1167,#1168,#1169,
#1170,#1171,#1172,#1173,#1174,#1175,#1176,#1177,#1178,#1179,#1180));
#1182=MANIFOLD_SOLID_BREP('',#1181);
#1183=SHAPE_DEFINITION_REPRESENTATION(#2095,#1184);
#1184=SHAPE_REPRESENTATION('id2',(#1185),#2090);
#1185=AXIS2_PLACEMENT_3D('',#1672,#1322,#1323);
#1186=AXIS2_PLACEMENT_3D('',#1673,#1324,#1325);
#1187=AXIS2_PLACEMENT_3D('',#1674,#1326,#1327);
#1188=AXIS2_PLACEMENT_3D('',#1679,#1329,#1330);
#1189=AXIS2_PLACEMENT_3D('',#1682,#1332,#1333);
#1190=AXIS2_PLACEMENT_3D('',#1683,#1334,#1335);
#1191=AXIS2_PLACEMENT_3D('',#1688,#1337,#1338);
#1192=AXIS2_PLACEMENT_3D('',#1691,#1340,#1341);
#1193=AXIS2_PLACEMENT_3D('',#1692,#1342,#1343);
#1194=AXIS2_PLACEMENT_3D('',#1694,#1344,#1345);
#1195=AXIS2_PLACEMENT_3D('',#1696,#1346,#1347);
#1196=AXIS2_PLACEMENT_3D('',#1697,#1348,#1349);
#1197=AXIS2_PLACEMENT_3D('',#1699,#1350,#1351);
#1198=AXIS2_PLACEMENT_3D('',#1701,#1352,#1353);
#1199=AXIS2_PLACEMENT_3D('',#1705,#1355,#1356);
#1200=AXIS2_PLACEMENT_3D('',#1707,#1357,#1358);
#1201=AXIS2_PLACEMENT_3D('',#1709,#1359,#1360);
#1202=AXIS2_PLACEMENT_3D('',#1713,#1362,#1363);
#1203=AXIS2_PLACEMENT_3D('',#1718,#1366,#1367);
#1204=AXIS2_PLACEMENT_3D('',#1719,#1368,#1369);
#1205=AXIS2_PLACEMENT_3D('',#1724,#1371,#1372);
#1206=AXIS2_PLACEMENT_3D('',#1727,#1374,#1375);
#1207=AXIS2_PLACEMENT_3D('',#1729,#1376,#1377);
#1208=AXIS2_PLACEMENT_3D('',#1730,#1378,#1379);
#1209=AXIS2_PLACEMENT_3D('',#1735,#1381,#1382);
#1210=AXIS2_PLACEMENT_3D('',#1738,#1384,#1385);
#1211=AXIS2_PLACEMENT_3D('',#1739,#1386,#1387);
#1212=AXIS2_PLACEMENT_3D('',#1744,#1389,#1390);
#1213=AXIS2_PLACEMENT_3D('',#1747,#1392,#1393);
#1214=AXIS2_PLACEMENT_3D('',#1749,#1394,#1395);
#1215=AXIS2_PLACEMENT_3D('',#1750,#1396,#1397);
#1216=AXIS2_PLACEMENT_3D('',#1755,#1399,#1400);
#1217=AXIS2_PLACEMENT_3D('',#1758,#1402,#1403);
#1218=AXIS2_PLACEMENT_3D('',#1761,#1405,#1406);
#1219=AXIS2_PLACEMENT_3D('',#1764,#1408,#1409);
#1220=AXIS2_PLACEMENT_3D('',#1781,#1410,#1411);
#1221=AXIS2_PLACEMENT_3D('',#1783,#1412,#1413);
#1222=AXIS2_PLACEMENT_3D('',#1785,#1414,#1415);
#1223=AXIS2_PLACEMENT_3D('',#1788,#1417,#1418);
#1224=AXIS2_PLACEMENT_3D('',#1794,#1422,#1423);
#1225=AXIS2_PLACEMENT_3D('',#1799,#1426,#1427);
#1226=AXIS2_PLACEMENT_3D('',#1803,#1429,#1430);
#1227=AXIS2_PLACEMENT_3D('',#1806,#1432,#1433);
#1228=AXIS2_PLACEMENT_3D('',#1807,#1434,#1435);
#1229=AXIS2_PLACEMENT_3D('',#1809,#1436,#1437);
#1230=AXIS2_PLACEMENT_3D('',#1816,#1441,#1442);
#1231=AXIS2_PLACEMENT_3D('',#1818,#1443,#1444);
#1232=AXIS2_PLACEMENT_3D('',#1819,#1445,#1446);
#1233=AXIS2_PLACEMENT_3D('',#1821,#1447,#1448);
#1234=AXIS2_PLACEMENT_3D('',#1822,#1449,#1450);
#1235=AXIS2_PLACEMENT_3D('',#1823,#1451,#1452);
#1236=AXIS2_PLACEMENT_3D('',#1825,#1453,#1454);
#1237=AXIS2_PLACEMENT_3D('',#1826,#1455,#1456);
#1238=AXIS2_PLACEMENT_3D('',#1828,#1457,#1458);
#1239=AXIS2_PLACEMENT_3D('',#1829,#1459,#1460);
#1240=AXIS2_PLACEMENT_3D('',#1831,#1461,#1462);
#1241=AXIS2_PLACEMENT_3D('',#1832,#1463,#1464);
#1242=AXIS2_PLACEMENT_3D('',#1834,#1465,#1466);
#1243=AXIS2_PLACEMENT_3D('',#1835,#1467,#1468);
#1244=AXIS2_PLACEMENT_3D('',#1861,#1475,#1476);
#1245=AXIS2_PLACEMENT_3D('',#1887,#1483,#1484);
#1246=AXIS2_PLACEMENT_3D('',#1888,#1485,#1486);
#1247=AXIS2_PLACEMENT_3D('',#1889,#1487,#1488);
#1248=AXIS2_PLACEMENT_3D('',#1890,#1489,#1490);
#1249=AXIS2_PLACEMENT_3D('',#1914,#1496,#1497);
#1250=AXIS2_PLACEMENT_3D('',#1940,#1504,#1505);
#1251=AXIS2_PLACEMENT_3D('',#1941,#1506,#1507);
#1252=AXIS2_PLACEMENT_3D('',#1943,#1508,#1509);
#1253=AXIS2_PLACEMENT_3D('',#1944,#1510,#1511);
#1254=AXIS2_PLACEMENT_3D('',#1947,#1513,#1514);
#1255=AXIS2_PLACEMENT_3D('',#1948,#1515,#1516);
#1256=AXIS2_PLACEMENT_3D('',#1963,#1522,#1523);
#1257=AXIS2_PLACEMENT_3D('',#1964,#1524,#1525);
#1258=AXIS2_PLACEMENT_3D('',#1965,#1526,#1527);
#1259=AXIS2_PLACEMENT_3D('',#1966,#1528,#1529);
#1260=AXIS2_PLACEMENT_3D('',#1967,#1530,#1531);
#1261=AXIS2_PLACEMENT_3D('',#1970,#1533,#1534);
#1262=AXIS2_PLACEMENT_3D('',#1983,#1539,#1540);
#1263=AXIS2_PLACEMENT_3D('',#1984,#1541,#1542);
#1264=AXIS2_PLACEMENT_3D('',#1985,#1543,#1544);
#1265=AXIS2_PLACEMENT_3D('',#1988,#1546,#1547);
#1266=AXIS2_PLACEMENT_3D('',#1989,#1548,#1549);
#1267=AXIS2_PLACEMENT_3D('',#2002,#1554,#1555);
#1268=AXIS2_PLACEMENT_3D('',#2003,#1556,#1557);
#1269=AXIS2_PLACEMENT_3D('',#2004,#1558,#1559);
#1270=AXIS2_PLACEMENT_3D('',#2005,#1560,#1561);
#1271=AXIS2_PLACEMENT_3D('',#2008,#1563,#1564);
#1272=AXIS2_PLACEMENT_3D('',#2023,#1570,#1571);
#1273=AXIS2_PLACEMENT_3D('',#2024,#1572,#1573);
#1274=AXIS2_PLACEMENT_3D('',#2025,#1574,#1575);
#1275=AXIS2_PLACEMENT_3D('',#2026,#1576,#1577);
#1276=AXIS2_PLACEMENT_3D('',#2027,#1578,#1579);
#1277=AXIS2_PLACEMENT_3D('',#2028,#1580,#1581);
#1278=AXIS2_PLACEMENT_3D('',#2029,#1582,#1583);
#1279=AXIS2_PLACEMENT_3D('',#2030,#1584,#1585);
#1280=AXIS2_PLACEMENT_3D('',#2031,#1586,#1587);
#1281=AXIS2_PLACEMENT_3D('',#2032,#1588,#1589);
#1282=AXIS2_PLACEMENT_3D('',#2033,#1590,#1591);
#1283=AXIS2_PLACEMENT_3D('',#2034,#1592,#1593);
#1284=AXIS2_PLACEMENT_3D('',#2035,#1594,#1595);
#1285=AXIS2_PLACEMENT_3D('',#2036,#1596,#1597);
#1286=AXIS2_PLACEMENT_3D('',#2037,#1598,#1599);
#1287=AXIS2_PLACEMENT_3D('',#2038,#1600,#1601);
#1288=AXIS2_PLACEMENT_3D('',#2039,#1602,#1603);
#1289=AXIS2_PLACEMENT_3D('',#2040,#1604,#1605);
#1290=AXIS2_PLACEMENT_3D('',#2041,#1606,#1607);
#1291=AXIS2_PLACEMENT_3D('',#2042,#1608,#1609);
#1292=AXIS2_PLACEMENT_3D('',#2043,#1610,#1611);
#1293=AXIS2_PLACEMENT_3D('',#2044,#1612,#1613);
#1294=AXIS2_PLACEMENT_3D('',#2045,#1614,#1615);
#1295=AXIS2_PLACEMENT_3D('',#2046,#1616,#1617);
#1296=AXIS2_PLACEMENT_3D('',#2047,#1618,#1619);
#1297=AXIS2_PLACEMENT_3D('',#2048,#1620,#1621);
#1298=AXIS2_PLACEMENT_3D('',#2049,#1622,#1623);
#1299=AXIS2_PLACEMENT_3D('',#2050,#1624,#1625);
#1300=AXIS2_PLACEMENT_3D('',#2051,#1626,#1627);
#1301=AXIS2_PLACEMENT_3D('',#2053,#1628,#1629);
#1302=AXIS2_PLACEMENT_3D('',#2054,#1630,#1631);
#1303=AXIS2_PLACEMENT_3D('',#2055,#1632,#1633);
#1304=AXIS2_PLACEMENT_3D('',#2056,#1634,#1635);
#1305=AXIS2_PLACEMENT_3D('',#2057,#1636,#1637);
#1306=AXIS2_PLACEMENT_3D('',#2060,#1640,#1641);
#1307=AXIS2_PLACEMENT_3D('',#2061,#1642,#1643);
#1308=AXIS2_PLACEMENT_3D('',#2062,#1644,#1645);
#1309=AXIS2_PLACEMENT_3D('',#2063,#1646,#1647);
#1310=AXIS2_PLACEMENT_3D('',#2065,#1648,#1649);
#1311=AXIS2_PLACEMENT_3D('',#2066,#1650,#1651);
#1312=AXIS2_PLACEMENT_3D('',#2068,#1652,#1653);
#1313=AXIS2_PLACEMENT_3D('',#2081,#1654,#1655);
#1314=AXIS2_PLACEMENT_3D('',#2082,#1656,#1657);
#1315=AXIS2_PLACEMENT_3D('',#2083,#1658,#1659);
#1316=AXIS2_PLACEMENT_3D('',#2084,#1660,#1661);
#1317=AXIS2_PLACEMENT_3D('',#2085,#1662,#1663);
#1318=AXIS2_PLACEMENT_3D('',#2086,#1664,#1665);
#1319=AXIS2_PLACEMENT_3D('',#2087,#1666,#1667);
#1320=AXIS2_PLACEMENT_3D('',#2088,#1668,#1669);
#1321=AXIS2_PLACEMENT_3D('',#2089,#1670,#1671);
#1322=DIRECTION('',(0.,0.,1.));
#1323=DIRECTION('',(1.,0.,0.));
#1324=DIRECTION('',(0.,0.,1.));
#1325=DIRECTION('',(1.,0.,0.));
#1326=DIRECTION('',(0.,0.,1.));
#1327=DIRECTION('',(1.,0.,0.));
#1328=DIRECTION('',(0.,-1.,0.));
#1329=DIRECTION('',(0.,0.,1.));
#1330=DIRECTION('',(1.,0.,0.));
#1331=DIRECTION('',(-2.13768248730725E-16,1.,0.));
#1332=DIRECTION('',(0.,0.,1.));
#1333=DIRECTION('',(1.,0.,0.));
#1334=DIRECTION('',(0.,0.,1.));
#1335=DIRECTION('',(1.,0.,0.));
#1336=DIRECTION('',(2.13768248730725E-16,1.,0.));
#1337=DIRECTION('',(0.,0.,1.));
#1338=DIRECTION('',(1.,0.,0.));
#1339=DIRECTION('',(0.,-1.,0.));
#1340=DIRECTION('',(0.,0.,-1.));
#1341=DIRECTION('',(-1.,0.,0.));
#1342=DIRECTION('',(0.,0.,1.));
#1343=DIRECTION('',(1.,0.,0.));
#1344=DIRECTION('',(0.,-3.52759866187993E-17,-1.));
#1345=DIRECTION('',(0.,1.,-3.52759866187993E-17));
#1346=DIRECTION('',(0.,0.,-1.));
#1347=DIRECTION('',(-1.,0.,0.));
#1348=DIRECTION('',(0.,0.,-1.));
#1349=DIRECTION('',(-1.,0.,0.));
#1350=DIRECTION('',(0.,3.52759866187993E-17,1.));
#1351=DIRECTION('',(0.,-1.,3.52759866187993E-17));
#1352=DIRECTION('',(0.,0.,1.));
#1353=DIRECTION('',(1.,0.,0.));
#1354=DIRECTION('',(0.707106781186547,-0.707106781186548,0.));
#1355=DIRECTION('',(0.,0.,1.));
#1356=DIRECTION('',(1.,0.,0.));
#1357=DIRECTION('',(0.,0.,1.));
#1358=DIRECTION('',(1.,0.,0.));
#1359=DIRECTION('',(0.,0.,1.));
#1360=DIRECTION('',(1.,0.,0.));
#1361=DIRECTION('',(-2.13768248730725E-16,1.,0.));
#1362=DIRECTION('',(0.,0.,1.));
#1363=DIRECTION('',(1.,0.,0.));
#1364=DIRECTION('',(-0.707106781186546,0.707106781186549,0.));
#1365=DIRECTION('',(0.707106781186549,0.707106781186546,0.));
#1366=DIRECTION('',(0.,0.,1.));
#1367=DIRECTION('',(1.,0.,0.));
#1368=DIRECTION('',(0.,-2.35596259789184E-15,-1.));
#1369=DIRECTION('',(0.,1.,-2.35596259789184E-15));
#1370=DIRECTION('',(-2.13768248730725E-16,1.,0.));
#1371=DIRECTION('',(0.,0.,1.));
#1372=DIRECTION('',(1.,0.,0.));
#1373=DIRECTION('',(0.,-1.,0.));
#1374=DIRECTION('',(0.,0.,1.));
#1375=DIRECTION('',(1.,0.,0.));
#1376=DIRECTION('',(0.,0.,1.));
#1377=DIRECTION('',(1.,0.,0.));
#1378=DIRECTION('',(0.,0.,1.));
#1379=DIRECTION('',(1.,0.,0.));
#1380=DIRECTION('',(-1.,1.02016079670612E-14,0.));
#1381=DIRECTION('',(0.,0.,1.));
#1382=DIRECTION('',(1.,0.,0.));
#1383=DIRECTION('',(1.,0.,0.));
#1384=DIRECTION('',(0.,0.,1.));
#1385=DIRECTION('',(1.,0.,0.));
#1386=DIRECTION('',(0.,0.,1.));
#1387=DIRECTION('',(1.,0.,0.));
#1388=DIRECTION('',(0.,-1.,0.));
#1389=DIRECTION('',(0.,0.,1.));
#1390=DIRECTION('',(1.,0.,0.));
#1391=DIRECTION('',(2.13768248730725E-16,1.,0.));
#1392=DIRECTION('',(0.,0.,1.));
#1393=DIRECTION('',(1.,0.,0.));
#1394=DIRECTION('',(0.,0.,1.));
#1395=DIRECTION('',(1.,0.,0.));
#1396=DIRECTION('',(0.,0.,1.));
#1397=DIRECTION('',(1.,0.,0.));
#1398=DIRECTION('',(-1.,0.,0.));
#1399=DIRECTION('',(0.,0.,-1.));
#1400=DIRECTION('',(1.,0.,0.));
#1401=DIRECTION('',(1.,-3.21864528937491E-15,0.));
#1402=DIRECTION('',(0.,0.,-1.));
#1403=DIRECTION('',(-1.,0.,0.));
#1404=DIRECTION('',(0.,0.,-1.));
#1405=DIRECTION('',(0.,0.,1.));
#1406=DIRECTION('',(1.,0.,0.));
#1407=DIRECTION('',(0.,0.,-1.));
#1408=DIRECTION('',(0.,0.,1.));
#1409=DIRECTION('',(1.,0.,0.));
#1410=DIRECTION('',(0.,3.53304170260042E-17,1.));
#1411=DIRECTION('',(0.,-1.,3.53304170260042E-17));
#1412=DIRECTION('',(0.,3.53304170260042E-17,1.));
#1413=DIRECTION('',(0.,-1.,3.53304170260042E-17));
#1414=DIRECTION('',(0.,0.,1.));
#1415=DIRECTION('',(1.,0.,0.));
#1416=DIRECTION('',(0.,0.,1.));
#1417=DIRECTION('',(0.,0.,1.));
#1418=DIRECTION('',(1.,0.,0.));
#1419=DIRECTION('',(0.,0.,1.));
#1420=DIRECTION('',(0.,0.,-1.));
#1421=DIRECTION('',(0.,0.,-1.));
#1422=DIRECTION('',(0.,0.,1.));
#1423=DIRECTION('',(1.,0.,0.));
#1424=DIRECTION('',(0.,0.,-1.));
#1425=DIRECTION('',(0.,0.,-1.));
#1426=DIRECTION('',(0.,0.,1.));
#1427=DIRECTION('',(1.,0.,0.));
#1428=DIRECTION('',(0.,0.,1.));
#1429=DIRECTION('',(0.,0.,1.));
#1430=DIRECTION('',(1.,0.,0.));
#1431=DIRECTION('',(0.,0.,1.));
#1432=DIRECTION('',(0.,0.,1.));
#1433=DIRECTION('',(1.,0.,0.));
#1434=DIRECTION('',(0.,0.,1.));
#1435=DIRECTION('',(1.,0.,0.));
#1436=DIRECTION('',(0.,0.,1.));
#1437=DIRECTION('',(1.,0.,0.));
#1438=DIRECTION('',(-0.707106781186547,0.707106781186548,0.));
#1439=DIRECTION('',(-0.707106781186549,-0.707106781186546,0.));
#1440=DIRECTION('',(0.707106781186546,-0.707106781186549,0.));
#1441=DIRECTION('',(0.,3.53304170260042E-17,1.));
#1442=DIRECTION('',(0.,-1.,3.53304170260042E-17));
#1443=DIRECTION('',(0.,3.53304170260042E-17,1.));
#1444=DIRECTION('',(0.,-1.,3.53304170260042E-17));
#1445=DIRECTION('',(0.,3.53304170260042E-17,1.));
#1446=DIRECTION('',(0.,-1.,3.53304170260042E-17));
#1447=DIRECTION('',(0.,3.53304170260042E-17,1.));
#1448=DIRECTION('',(0.,-1.,3.53304170260042E-17));
#1449=DIRECTION('',(0.,-3.53304170260042E-17,-1.));
#1450=DIRECTION('',(0.,1.,-3.53304170260042E-17));
#1451=DIRECTION('',(0.,3.53304170260042E-17,1.));
#1452=DIRECTION('',(0.,-1.,3.53304170260042E-17));
#1453=DIRECTION('',(0.,3.53304170260042E-17,1.));
#1454=DIRECTION('',(0.,-1.,3.53304170260042E-17));
#1455=DIRECTION('',(0.,3.53304170260042E-17,1.));
#1456=DIRECTION('',(0.,-1.,3.53304170260042E-17));
#1457=DIRECTION('',(0.,3.53304170260042E-17,1.));
#1458=DIRECTION('',(0.,-1.,3.53304170260042E-17));
#1459=DIRECTION('',(0.,3.53304170260042E-17,1.));
#1460=DIRECTION('',(0.,-1.,3.53304170260042E-17));
#1461=DIRECTION('',(0.,3.53304170260042E-17,1.));
#1462=DIRECTION('',(0.,-1.,3.53304170260042E-17));
#1463=DIRECTION('',(0.,3.53304170260042E-17,1.));
#1464=DIRECTION('',(0.,-1.,3.53304170260042E-17));
#1465=DIRECTION('',(0.,0.,-1.));
#1466=DIRECTION('',(-1.,0.,0.));
#1467=DIRECTION('',(1.,0.,0.));
#1468=DIRECTION('',(0.,0.,-1.));
#1469=DIRECTION('',(0.,-1.,0.));
#1470=DIRECTION('',(0.,0.,-1.));
#1471=DIRECTION('',(2.72836049468225E-16,-1.,0.));
#1472=DIRECTION('',(0.,0.,-1.));
#1473=DIRECTION('',(0.,1.,0.));
#1474=DIRECTION('',(0.,0.,1.));
#1475=DIRECTION('',(1.,0.,0.));
#1476=DIRECTION('',(0.,0.,-1.));
#1477=DIRECTION('',(0.,0.,-1.));
#1478=DIRECTION('',(0.,-1.,0.));
#1479=DIRECTION('',(0.,0.,1.));
#1480=DIRECTION('',(0.,1.,0.));
#1481=DIRECTION('',(0.,0.,-1.));
#1482=DIRECTION('',(-3.49148133884313E-15,-1.,0.));
#1483=DIRECTION('',(0.,0.,1.));
#1484=DIRECTION('',(1.,0.,0.));
#1485=DIRECTION('',(0.,0.,1.));
#1486=DIRECTION('',(1.,0.,0.));
#1487=DIRECTION('',(0.,0.,1.));
#1488=DIRECTION('',(1.,0.,0.));
#1489=DIRECTION('',(-1.,-2.13768248730725E-16,0.));
#1490=DIRECTION('',(2.13768248730725E-16,-1.,0.));
#1491=DIRECTION('',(0.,0.,-1.));
#1492=DIRECTION('',(-2.72836049468225E-16,1.,0.));
#1493=DIRECTION('',(0.,0.,-1.));
#1494=DIRECTION('',(2.13768248730725E-16,-1.,0.));
#1495=DIRECTION('',(0.,0.,1.));
#1496=DIRECTION('',(-1.,2.13768248730725E-16,0.));
#1497=DIRECTION('',(-2.13768248730725E-16,-1.,0.));
#1498=DIRECTION('',(0.,0.,-1.));
#1499=DIRECTION('',(2.13768248730725E-16,1.,0.));
#1500=DIRECTION('',(0.,0.,1.));
#1501=DIRECTION('',(-2.13768248730725E-16,-1.,0.));
#1502=DIRECTION('',(0.,0.,-1.));
#1503=DIRECTION('',(1.04744440165294E-14,1.,0.));
#1504=DIRECTION('',(0.,0.,1.));
#1505=DIRECTION('',(1.,0.,0.));
#1506=DIRECTION('',(0.,0.,1.));
#1507=DIRECTION('',(1.,0.,0.));
#1508=DIRECTION('',(0.,0.,1.));
#1509=DIRECTION('',(1.,0.,0.));
#1510=DIRECTION('',(0.,0.,-1.));
#1511=DIRECTION('',(-1.,0.,0.));
#1512=DIRECTION('',(0.,0.,1.));
#1513=DIRECTION('',(0.,0.,1.));
#1514=DIRECTION('',(1.,0.,0.));
#1515=DIRECTION('',(0.,1.,0.));
#1516=DIRECTION('',(0.,0.,1.));
#1517=DIRECTION('',(1.,0.,0.));
#1518=DIRECTION('',(0.,0.,1.));
#1519=DIRECTION('',(0.,0.,1.));
#1520=DIRECTION('',(-1.,0.,0.));
#1521=DIRECTION('',(0.,0.,-1.));
#1522=DIRECTION('',(0.,0.,1.));
#1523=DIRECTION('',(1.,0.,0.));
#1524=DIRECTION('',(0.,0.,1.));
#1525=DIRECTION('',(1.,0.,0.));
#1526=DIRECTION('',(0.,0.,-1.));
#1527=DIRECTION('',(-1.,0.,0.));
#1528=DIRECTION('',(0.,0.,-1.));
#1529=DIRECTION('',(-1.,0.,0.));
#1530=DIRECTION('',(0.,0.,1.));
#1531=DIRECTION('',(1.,0.,0.));
#1532=DIRECTION('',(0.,0.,-1.));
#1533=DIRECTION('',(3.21864528937491E-15,1.,0.));
#1534=DIRECTION('',(-1.,3.21864528937491E-15,0.));
#1535=DIRECTION('',(-1.,3.21864528937491E-15,0.));
#1536=DIRECTION('',(0.,0.,1.));
#1537=DIRECTION('',(1.,-3.21864528937491E-15,0.));
#1538=DIRECTION('',(0.,0.,-1.));
#1539=DIRECTION('',(0.,0.,1.));
#1540=DIRECTION('',(1.,0.,0.));
#1541=DIRECTION('',(0.,0.,-1.));
#1542=DIRECTION('',(-1.,0.,0.));
#1543=DIRECTION('',(0.,0.,-1.));
#1544=DIRECTION('',(-1.,0.,0.));
#1545=DIRECTION('',(0.,0.,-1.));
#1546=DIRECTION('',(0.,0.,1.));
#1547=DIRECTION('',(1.,0.,0.));
#1548=DIRECTION('',(0.,-1.,0.));
#1549=DIRECTION('',(0.,0.,-1.));
#1550=DIRECTION('',(0.,0.,1.));
#1551=DIRECTION('',(1.,0.,0.));
#1552=DIRECTION('',(0.,0.,-1.));
#1553=DIRECTION('',(-1.,0.,0.));
#1554=DIRECTION('',(0.,0.,1.));
#1555=DIRECTION('',(1.,0.,0.));
#1556=DIRECTION('',(0.,0.,-1.));
#1557=DIRECTION('',(-1.,0.,0.));
#1558=DIRECTION('',(0.,0.,-1.));
#1559=DIRECTION('',(-1.,0.,0.));
#1560=DIRECTION('',(0.,0.,1.));
#1561=DIRECTION('',(1.,0.,0.));
#1562=DIRECTION('',(0.,0.,1.));
#1563=DIRECTION('',(-1.02016079670612E-14,-1.,0.));
#1564=DIRECTION('',(1.,-1.02016079670612E-14,0.));
#1565=DIRECTION('',(0.,0.,1.));
#1566=DIRECTION('',(-1.,1.02016079670612E-14,0.));
#1567=DIRECTION('',(0.,0.,-1.));
#1568=DIRECTION('',(1.,-1.02016079670612E-14,0.));
#1569=DIRECTION('',(0.,0.,1.));
#1570=DIRECTION('',(0.,0.,1.));
#1571=DIRECTION('',(1.,0.,0.));
#1572=DIRECTION('',(0.,0.,1.));
#1573=DIRECTION('',(1.,0.,0.));
#1574=DIRECTION('',(0.,0.,1.));
#1575=DIRECTION('',(1.,0.,0.));
#1576=DIRECTION('',(0.,0.,1.));
#1577=DIRECTION('',(1.,0.,0.));
#1578=DIRECTION('',(0.,0.,-1.));
#1579=DIRECTION('',(-1.,0.,0.));
#1580=DIRECTION('',(0.,0.,-1.));
#1581=DIRECTION('',(-1.,0.,0.));
#1582=DIRECTION('',(0.,0.,-1.));
#1583=DIRECTION('',(-1.,0.,0.));
#1584=DIRECTION('',(0.,0.,-1.));
#1585=DIRECTION('',(-1.,0.,0.));
#1586=DIRECTION('',(0.,0.,-1.));
#1587=DIRECTION('',(-1.,0.,0.));
#1588=DIRECTION('',(0.,0.,1.));
#1589=DIRECTION('',(1.,0.,0.));
#1590=DIRECTION('',(0.,0.,-1.));
#1591=DIRECTION('',(-1.,0.,0.));
#1592=DIRECTION('',(0.,0.,-1.));
#1593=DIRECTION('',(-1.,0.,0.));
#1594=DIRECTION('',(0.,0.,-1.));
#1595=DIRECTION('',(-1.,0.,0.));
#1596=DIRECTION('',(0.,0.,-1.));
#1597=DIRECTION('',(-1.,0.,0.));
#1598=DIRECTION('',(0.,0.,-1.));
#1599=DIRECTION('',(-1.,0.,0.));
#1600=DIRECTION('',(0.,0.,1.));
#1601=DIRECTION('',(1.,0.,0.));
#1602=DIRECTION('',(0.,0.,-1.));
#1603=DIRECTION('',(-1.,0.,0.));
#1604=DIRECTION('',(0.,0.,-1.));
#1605=DIRECTION('',(-1.,0.,0.));
#1606=DIRECTION('',(0.,0.,-1.));
#1607=DIRECTION('',(-1.,0.,0.));
#1608=DIRECTION('',(0.,0.,-1.));
#1609=DIRECTION('',(-1.,0.,0.));
#1610=DIRECTION('',(0.,0.,-1.));
#1611=DIRECTION('',(-1.,0.,0.));
#1612=DIRECTION('',(0.,0.,-1.));
#1613=DIRECTION('',(-1.,0.,0.));
#1614=DIRECTION('',(0.,0.,-1.));
#1615=DIRECTION('',(-1.,0.,0.));
#1616=DIRECTION('',(0.,0.,-1.));
#1617=DIRECTION('',(-1.,0.,0.));
#1618=DIRECTION('',(0.,0.,-1.));
#1619=DIRECTION('',(-1.,0.,0.));
#1620=DIRECTION('',(0.,0.,-1.));
#1621=DIRECTION('',(-1.,0.,0.));
#1622=DIRECTION('',(0.,0.,1.));
#1623=DIRECTION('',(1.,0.,0.));
#1624=DIRECTION('',(0.,0.,1.));
#1625=DIRECTION('',(1.,0.,0.));
#1626=DIRECTION('',(0.,0.,1.));
#1627=DIRECTION('',(1.,0.,0.));
#1628=DIRECTION('',(0.,0.,1.));
#1629=DIRECTION('',(1.,0.,0.));
#1630=DIRECTION('',(0.,0.,1.));
#1631=DIRECTION('',(1.,0.,0.));
#1632=DIRECTION('',(0.,0.,1.));
#1633=DIRECTION('',(1.,0.,0.));
#1634=DIRECTION('',(0.,0.,1.));
#1635=DIRECTION('',(1.,0.,0.));
#1636=DIRECTION('',(0.707106781186546,-0.707106781186549,0.));
#1637=DIRECTION('',(0.707106781186549,0.707106781186546,0.));
#1638=DIRECTION('',(0.,0.,1.));
#1639=DIRECTION('',(0.,0.,1.));
#1640=DIRECTION('',(-0.707106781186548,-0.707106781186547,0.));
#1641=DIRECTION('',(0.707106781186547,-0.707106781186548,0.));
#1642=DIRECTION('',(0.707106781186549,0.707106781186546,0.));
#1643=DIRECTION('',(-0.707106781186546,0.707106781186549,0.));
#1644=DIRECTION('',(0.,-3.52759866187993E-17,-1.));
#1645=DIRECTION('',(0.,1.,-3.52759866187993E-17));
#1646=DIRECTION('',(0.,3.52759866187993E-17,1.));
#1647=DIRECTION('',(0.,-1.,3.52759866187993E-17));
#1648=DIRECTION('',(0.,3.52759866187993E-17,1.));
#1649=DIRECTION('',(0.,-1.,3.52759866187993E-17));
#1650=DIRECTION('',(0.,3.52759866187993E-17,1.));
#1651=DIRECTION('',(0.,-1.,3.52759866187993E-17));
#1652=DIRECTION('',(0.,3.52759866187993E-17,1.));
#1653=DIRECTION('',(0.,-1.,3.52759866187993E-17));
#1654=DIRECTION('',(0.,0.,1.));
#1655=DIRECTION('',(1.,0.,0.));
#1656=DIRECTION('',(0.,0.,1.));
#1657=DIRECTION('',(1.,0.,0.));
#1658=DIRECTION('',(0.,-1.,0.));
#1659=DIRECTION('',(0.,0.,-1.));
#1660=DIRECTION('',(0.,0.,1.));
#1661=DIRECTION('',(1.,0.,0.));
#1662=DIRECTION('',(0.,0.,1.));
#1663=DIRECTION('',(1.,0.,0.));
#1664=DIRECTION('',(0.,0.,1.));
#1665=DIRECTION('',(1.,0.,0.));
#1666=DIRECTION('',(0.,2.35596259789184E-15,1.));
#1667=DIRECTION('',(0.,-1.,2.35596259789184E-15));
#1668=DIRECTION('',(0.,-2.35596259789184E-15,-1.));
#1669=DIRECTION('',(0.,1.,-2.35596259789184E-15));
#1670=DIRECTION('',(0.,-2.35596259789184E-15,-1.));
#1671=DIRECTION('',(0.,1.,-2.35596259789184E-15));
#1672=CARTESIAN_POINT('',(0.,0.,0.));
#1673=CARTESIAN_POINT('',(0.,0.,0.));
#1674=CARTESIAN_POINT('',(3.55016282064415E-17,-1.49363738033338E-17,0.));
#1675=CARTESIAN_POINT('',(0.0015,0.00846817571853584,5.59898135615772E-20));
#1676=CARTESIAN_POINT('',(-0.0015,0.00846817571853584,-2.94861764234328E-19));
#1677=CARTESIAN_POINT('',(0.0015,0.00988685996664259,0.));
#1678=CARTESIAN_POINT('',(0.0015,0.00988685996664259,0.));
#1679=CARTESIAN_POINT('',(0.,0.,0.));
#1680=CARTESIAN_POINT('',(-0.0015,0.00988685996664259,0.));
#1681=CARTESIAN_POINT('',(-0.0015,0.00988685996664259,0.));
#1682=CARTESIAN_POINT('',(0.,0.,0.));
#1683=CARTESIAN_POINT('',(0.,1.17093834628434E-17,0.));
#1684=CARTESIAN_POINT('',(-0.0015,-0.00846817571853582,3.55952389916491E-20));
#1685=CARTESIAN_POINT('',(0.0015,-0.00846817571853582,0.));
#1686=CARTESIAN_POINT('',(-0.0015,-0.00785811682275085,0.));
#1687=CARTESIAN_POINT('',(-0.0015,-0.00988685996664259,0.));
#1688=CARTESIAN_POINT('',(0.,0.,0.));
#1689=CARTESIAN_POINT('',(0.0015,-0.00988685996664259,0.));
#1690=CARTESIAN_POINT('',(0.0015,-0.00785811682275086,0.));
#1691=CARTESIAN_POINT('',(0.,0.,0.00925));
#1692=CARTESIAN_POINT('',(0.,0.,-0.000690774557124803));
#1693=CARTESIAN_POINT('',(0.0015,0.,-0.000690774557124803));
#1694=CARTESIAN_POINT('',(0.,0.,-0.00555));
#1695=CARTESIAN_POINT('',(0.,0.0015,-0.00555));
#1696=CARTESIAN_POINT('',(0.,0.,0.00925));
#1697=CARTESIAN_POINT('',(0.,0.,-0.02455));
#1698=CARTESIAN_POINT('',(-0.0015,0.,-0.02455));
#1699=CARTESIAN_POINT('',(0.,0.,-0.01855));
#1700=CARTESIAN_POINT('',(0.,-0.0015,-0.01855));
#1701=CARTESIAN_POINT('',(0.,0.,5.00000000000006E-5));
#1702=CARTESIAN_POINT('',(-0.00643467170879757,0.0050204581464245,5.00000000000006E-5));
#1703=CARTESIAN_POINT('',(-0.00774273042092168,0.00632851685854861,5.00000000000006E-5));
#1704=CARTESIAN_POINT('',(-0.00643467170879757,0.0050204581464245,5.00000000000006E-5));
#1705=CARTESIAN_POINT('',(0.,0.,5.00000000000014E-5));
#1706=CARTESIAN_POINT('',(-0.00975441594520955,0.00220258247696688,5.00000000000014E-5));
#1707=CARTESIAN_POINT('',(-0.00929492662851279,-2.16840434497101E-19,5.00000000000014E-5));
#1708=CARTESIAN_POINT('',(-0.00781787564538795,0.00169729796831609,5.00000000000014E-5));
#1709=CARTESIAN_POINT('',(0.,0.,5.00000000000014E-5));
#1710=CARTESIAN_POINT('',(-0.0015,0.00785811682275085,5.00000000000084E-5));
#1711=CARTESIAN_POINT('',(-0.0015,0.00988685996664259,5.00000000000014E-5));
#1712=CARTESIAN_POINT('',(-0.0015,0.00988685996664259,5.00000000000084E-5));
#1713=CARTESIAN_POINT('',(0.,0.,5.00000000000014E-5));
#1714=CARTESIAN_POINT('',(-0.00632851685854858,0.0077427304209217,5.00000000000006E-5));
#1715=CARTESIAN_POINT('',(-0.00502045814642448,0.00643467170879759,5.00000000000006E-5));
#1716=CARTESIAN_POINT('',(-0.00502045814642448,0.00643467170879759,5.00000000000006E-5));
#1717=CARTESIAN_POINT('',(-0.00502045814642448,0.00643467170879759,5.00000000000006E-5));
#1718=CARTESIAN_POINT('',(0.,0.,0.));
#1719=CARTESIAN_POINT('',(0.,-1.45283091113057E-17,2.71960575112732E-17));
#1720=CARTESIAN_POINT('',(-0.0015,0.00785811682275066,2.5514786504711E-17));
#1721=CARTESIAN_POINT('',(0.0015,0.00785811682275087,0.));
#1722=CARTESIAN_POINT('',(-0.0015,0.00988685996664259,0.));
#1723=CARTESIAN_POINT('',(-0.0015,0.00187349939951951,0.));
#1724=CARTESIAN_POINT('',(0.,0.,0.));
#1725=CARTESIAN_POINT('',(0.0015,0.00187349939951951,0.));
#1726=CARTESIAN_POINT('',(0.0015,0.00988685996664259,0.));
#1727=CARTESIAN_POINT('',(0.,0.0035,1.48794586096403E-18));
#1728=CARTESIAN_POINT('',(0.000549999999999988,0.0035,1.48794586096403E-18));
#1729=CARTESIAN_POINT('',(0.,0.,0.));
#1730=CARTESIAN_POINT('',(-0.00929492662851279,-2.16840434497101E-19,0.));
#1731=CARTESIAN_POINT('',(-0.00761787564538787,-0.00149999999999992,0.));
#1732=CARTESIAN_POINT('',(-0.00761787564538795,0.0015,0.));
#1733=CARTESIAN_POINT('',(-0.0015,-0.00149999999999998,0.));
#1734=CARTESIAN_POINT('',(-0.00187349939951953,-0.00149999999999998,0.));
#1735=CARTESIAN_POINT('',(0.,0.,0.));
#1736=CARTESIAN_POINT('',(-0.00187349939951951,0.0015,0.));
#1737=CARTESIAN_POINT('',(-0.00785811682275085,0.0015,0.));
#1738=CARTESIAN_POINT('',(0.,0.,0.));
#1739=CARTESIAN_POINT('',(0.,1.17093834628434E-17,8.4296718910748E-18));
#1740=CARTESIAN_POINT('',(-0.0015,-0.00785811682275086,8.4296718910748E-18));
#1741=CARTESIAN_POINT('',(0.0015,-0.00785811682275086,8.4296718910748E-18));
#1742=CARTESIAN_POINT('',(0.0015,-0.00785811682275086,0.));
#1743=CARTESIAN_POINT('',(0.0015,-0.00187349939951951,0.));
#1744=CARTESIAN_POINT('',(0.,0.,0.));
#1745=CARTESIAN_POINT('',(-0.0015,-0.00187349939951951,0.));
#1746=CARTESIAN_POINT('',(-0.0015,-0.00785811682275085,0.));
#1747=CARTESIAN_POINT('',(0.,-0.0035,1.48794586096403E-18));
#1748=CARTESIAN_POINT('',(0.000549999999999988,-0.0035,1.48794586096403E-18));
#1749=CARTESIAN_POINT('',(0.,0.,0.));
#1750=CARTESIAN_POINT('',(0.,0.,0.));
#1751=CARTESIAN_POINT('',(0.00187349939951951,-0.0015,0.));
#1752=CARTESIAN_POINT('',(0.00187349939951952,0.0015,0.));
#1753=CARTESIAN_POINT('',(0.00785811682275085,-0.0015,0.));
#1754=CARTESIAN_POINT('',(0.00785811682275085,-0.0015,0.));
#1755=CARTESIAN_POINT('',(0.,0.,0.));
#1756=CARTESIAN_POINT('',(0.00785811682275086,0.00149999999999997,0.));
#1757=CARTESIAN_POINT('',(0.0015,0.0015,0.));
#1758=CARTESIAN_POINT('',(0.,0.,0.0236732432500309));
#1759=CARTESIAN_POINT('',(0.00785811682275085,-0.0015,0.0274417350418868));
#1760=CARTESIAN_POINT('',(0.00785811682275085,-0.0015,5.00000000000014E-5));
#1761=CARTESIAN_POINT('',(0.,0.,5.00000000000014E-5));
#1762=CARTESIAN_POINT('',(0.00785811682275086,0.00149999999999997,5.00000000000014E-5));
#1763=CARTESIAN_POINT('',(0.00785811682275086,0.00149999999999997,0.0274417350418868));
#1764=CARTESIAN_POINT('',(0.,0.,-0.02455));
#1765=CARTESIAN_POINT('',(-0.00050788784980218,-0.00266940412610554,-0.0135128237203195));
#1766=CARTESIAN_POINT('',(-0.00108539295348396,-0.00249547601585167,-0.013030830952418));
#1767=CARTESIAN_POINT('',(-0.00140135330034037,-0.00230280561770916,-0.0121103360401792));
#1768=CARTESIAN_POINT('',(-0.0011402181756812,-0.00246663072703731,-0.0111684995697354));
#1769=CARTESIAN_POINT('',(-0.00061247236609388,-0.0026451099356655,-0.0106495633274639));
#1770=CARTESIAN_POINT('',(-6.6586249938935E-5,-0.0027202066733584,-0.0104628955757382));
#1771=CARTESIAN_POINT('',(0.000505656721856253,-0.00266976499614018,-0.0105863621334459));
#1772=CARTESIAN_POINT('',(0.0010819861670871,-0.00249694843782128,-0.0110644364128455));
#1773=CARTESIAN_POINT('',(0.00140225294237036,-0.00230244413405451,-0.0119870583981097));
#1774=CARTESIAN_POINT('',(0.00114051705944051,-0.00246646426913288,-0.0129310684261915));
#1775=CARTESIAN_POINT('',(0.000612540033514466,-0.00264517518614114,-0.0134506262910118));
#1776=CARTESIAN_POINT('',(6.48236068012046E-5,-0.00272033299714622,-0.013637392961983));
#1777=CARTESIAN_POINT('',(-0.00050788784980218,-0.00266940412610554,-0.0135128237203195));
#1778=CARTESIAN_POINT('',(-0.00108539295348396,-0.00249547601585167,-0.013030830952418));
#1779=CARTESIAN_POINT('',(-0.00140135330034037,-0.00230280561770916,-0.0121103360401792));
#1780=CARTESIAN_POINT('',(-0.000913955275380459,-0.00254060735939346,-0.0131301288809026));
#1781=CARTESIAN_POINT('',(0.,-1.00691688524112E-19,-0.00285));
#1782=CARTESIAN_POINT('',(0.,-0.0027,-0.00285));
#1783=CARTESIAN_POINT('',(0.,-8.21432195854598E-19,-0.02325));
#1784=CARTESIAN_POINT('',(0.,-0.0027,-0.02325));
#1785=CARTESIAN_POINT('',(0.,0.,-0.00205));
#1786=CARTESIAN_POINT('',(-0.00774273042092168,0.00632851685854861,-0.024551));
#1787=CARTESIAN_POINT('',(-0.00774273042092168,0.00632851685854861,-0.00205));
#1788=CARTESIAN_POINT('',(0.,0.,-0.00205));
#1789=CARTESIAN_POINT('',(-0.00632851685854858,0.0077427304209217,-0.00205));
#1790=CARTESIAN_POINT('',(-0.00632851685854858,0.0077427304209217,-0.024551));
#1791=CARTESIAN_POINT('',(-0.0015,0.00988685996664259,0.0236732432500309));
#1792=CARTESIAN_POINT('',(0.0015,0.00988685996664259,0.0236732432500309));
#1793=CARTESIAN_POINT('',(0.0015,0.00988685996664259,5.00000000000084E-5));
#1794=CARTESIAN_POINT('',(0.,0.,5.00000000000014E-5));
#1795=CARTESIAN_POINT('',(0.0015,-0.00988685996664259,5.00000000000084E-5));
#1796=CARTESIAN_POINT('',(0.0015,-0.00988685996664259,0.0236732432500309));
#1797=CARTESIAN_POINT('',(-0.0015,-0.00988685996664259,0.0236732432500309));
#1798=CARTESIAN_POINT('',(-0.0015,-0.00988685996664259,5.00000000000084E-5));
#1799=CARTESIAN_POINT('',(0.,0.,5.00000000000014E-5));
#1800=CARTESIAN_POINT('',(-0.00975441594520955,-0.00220258247696688,5.00000000000014E-5));
#1801=CARTESIAN_POINT('',(-0.00975441594520956,-0.00220258247696688,0.0046));
#1802=CARTESIAN_POINT('',(-0.00975441594520956,-0.00220258247696688,-5.E-5));
#1803=CARTESIAN_POINT('',(0.,0.,-5.E-5));
#1804=CARTESIAN_POINT('',(-0.00975441594520956,0.00220258247696688,-5.E-5));
#1805=CARTESIAN_POINT('',(-0.00975441594520956,0.00220258247696688,0.0046));
#1806=CARTESIAN_POINT('',(0.,0.,-0.00205));
#1807=CARTESIAN_POINT('',(0.,0.0035,-0.00205));
#1808=CARTESIAN_POINT('',(0.000549999999999994,0.0035,-0.00205));
#1809=CARTESIAN_POINT('',(0.,-0.0035,-0.00205));
#1810=CARTESIAN_POINT('',(0.000549999999999994,-0.0035,-0.00205));
#1811=CARTESIAN_POINT('',(-0.00643467170879757,0.0050204581464245,-0.00205));
#1812=CARTESIAN_POINT('',(-0.00643467170879757,0.0050204581464245,-0.00205));
#1813=CARTESIAN_POINT('',(-0.00502045814642448,0.00643467170879759,-0.00205));
#1814=CARTESIAN_POINT('',(-0.00502045814642448,0.00643467170879759,-0.00205));
#1815=CARTESIAN_POINT('',(-0.00502045814642448,0.00643467170879759,-0.00205));
#1816=CARTESIAN_POINT('',(0.,-7.24273549033086E-20,-0.00205));
#1817=CARTESIAN_POINT('',(0.,-0.0026,-0.00205));
#1818=CARTESIAN_POINT('',(0.,0.,0.));
#1819=CARTESIAN_POINT('',(0.,-1.00691688524112E-19,-0.00285));
#1820=CARTESIAN_POINT('',(0.,-0.0026,-0.00285));
#1821=CARTESIAN_POINT('',(0.,0.0027,-0.00285));
#1822=CARTESIAN_POINT('',(0.,0.0027,-0.02325));
#1823=CARTESIAN_POINT('',(0.,-8.21432195854598E-19,-0.02325));
#1824=CARTESIAN_POINT('',(0.,-0.0023,-0.02325));
#1825=CARTESIAN_POINT('',(0.,0.,0.));
#1826=CARTESIAN_POINT('',(0.,-8.46163487772801E-19,-0.02395));
#1827=CARTESIAN_POINT('',(0.,-0.0023,-0.02395));
#1828=CARTESIAN_POINT('',(0.,0.0025,-0.02395));
#1829=CARTESIAN_POINT('',(0.,-8.46163487772801E-19,-0.02395));
#1830=CARTESIAN_POINT('',(0.,-0.0025,-0.02395));
#1831=CARTESIAN_POINT('',(0.,0.,0.));
#1832=CARTESIAN_POINT('',(0.,-8.67361737988404E-19,-0.02455));
#1833=CARTESIAN_POINT('',(0.,-0.0025,-0.02455));
#1834=CARTESIAN_POINT('',(0.,0.,-0.02455));
#1835=CARTESIAN_POINT('',(0.0015,-0.00785811682275086,0.0236732432500309));
#1836=CARTESIAN_POINT('',(0.0015,-0.00816333265278342,-0.000173205080756876));
#1837=CARTESIAN_POINT('',(0.0015,-0.008040381938448,-0.000243021863296964));
#1838=CARTESIAN_POINT('',(0.0015,-0.00785811682275009,-0.000142449777530637));
#1839=CARTESIAN_POINT('',(0.0015,-0.00785811682275006,-3.34070155254638E-17));
#1840=CARTESIAN_POINT('',(0.0015,-0.00816333265278342,-0.000173205080756878));
#1841=CARTESIAN_POINT('',(0.0015,-0.00846817571853582,-1.41013490201651E-18));
#1842=CARTESIAN_POINT('',(0.0015,-0.00836657546846725,-5.77597838749213E-5));
#1843=CARTESIAN_POINT('',(0.0015,-0.00826496162717426,-0.000115495712875861));
#1844=CARTESIAN_POINT('',(0.0015,-0.00816333265278342,-0.000173205080756878));
#1845=CARTESIAN_POINT('',(0.0015,-0.00785811682275086,5.00000000000014E-5));
#1846=CARTESIAN_POINT('',(0.0015,-0.00785811682275086,5.00000000000084E-5));
#1847=CARTESIAN_POINT('',(0.0015,-0.00785811682275085,0.0274417350418868));
#1848=CARTESIAN_POINT('',(0.0015,-0.00785811682275085,0.00925));
#1849=CARTESIAN_POINT('',(0.0015,-0.0015,0.00925));
#1850=CARTESIAN_POINT('',(0.0015,-0.007611726258573,0.00925));
#1851=CARTESIAN_POINT('',(0.0015,-0.007611726258573,0.00925));
#1852=CARTESIAN_POINT('',(0.0015,-0.00743891831493835,0.00915211189498419));
#1853=CARTESIAN_POINT('',(0.0015,-0.00726605711439081,0.00905431761566404));
#1854=CARTESIAN_POINT('',(0.0015,-0.00709313047955555,0.00895663861560502));
#1855=CARTESIAN_POINT('',(0.0015,-0.00709313047955555,0.00895663861560502));
#1856=CARTESIAN_POINT('',(0.0015,-0.00709313047955555,0.));
#1857=CARTESIAN_POINT('',(0.0015,-0.00709313047955555,0.00765));
#1858=CARTESIAN_POINT('',(0.0015,-0.00785811682275086,0.00765));
#1859=CARTESIAN_POINT('',(0.0015,-0.00187349939951951,0.00765));
#1860=CARTESIAN_POINT('',(0.0015,-0.00187349939951951,0.00925));
#1861=CARTESIAN_POINT('',(0.0015,0.00988685996664259,0.0236732432500309));
#1862=CARTESIAN_POINT('',(0.00150000000000003,0.00785811682275085,0.0274417350418868));
#1863=CARTESIAN_POINT('',(0.00150000000000003,0.00785811682275085,0.00925));
#1864=CARTESIAN_POINT('',(0.00150000000000003,0.00785811682275085,5.00000000000014E-5));
#1865=CARTESIAN_POINT('',(0.0015,0.00988685996664259,5.00000000000014E-5));
#1866=CARTESIAN_POINT('',(0.0015,0.00816333265278343,-0.000173205080756862));
#1867=CARTESIAN_POINT('',(0.0015,0.00826496160430908,-0.0001154957258597));
#1868=CARTESIAN_POINT('',(0.0015,0.00836657544641216,-5.7759796413244E-5));
#1869=CARTESIAN_POINT('',(0.0015,0.00846817571853584,1.2593745416781E-17));
#1870=CARTESIAN_POINT('',(0.0015,0.00816333265278344,-0.000173205080756878));
#1871=CARTESIAN_POINT('',(0.0015,0.00785811682275084,-4.85964777420914E-18));
#1872=CARTESIAN_POINT('',(0.0015,0.00785811682275085,-0.000142421330460424));
#1873=CARTESIAN_POINT('',(0.0015,0.00804078415829591,-0.000242793465309975));
#1874=CARTESIAN_POINT('',(0.0015,0.00816333265278343,-0.000173205080756867));
#1875=CARTESIAN_POINT('',(0.0015,0.00187349939951951,0.00925));
#1876=CARTESIAN_POINT('',(0.0015,0.00187349939951951,0.00765));
#1877=CARTESIAN_POINT('',(0.0015,0.00988685996664259,0.00765));
#1878=CARTESIAN_POINT('',(0.0015,0.00709313047955555,0.00765));
#1879=CARTESIAN_POINT('',(0.0015,0.00709313047955555,0.));
#1880=CARTESIAN_POINT('',(0.0015,0.00709313047955555,0.00895663861560502));
#1881=CARTESIAN_POINT('',(0.0015,0.00709313047955555,0.00895663861560502));
#1882=CARTESIAN_POINT('',(0.0015,0.00726605718945407,0.00905431765806413));
#1883=CARTESIAN_POINT('',(0.0015,0.00743891838498903,0.00915211193466482));
#1884=CARTESIAN_POINT('',(0.0015,0.007611726258573,0.00925));
#1885=CARTESIAN_POINT('',(0.00150000000000003,0.00761172625857299,0.00925));
#1886=CARTESIAN_POINT('',(0.00150000000000003,0.00785811682275085,0.00925));
#1887=CARTESIAN_POINT('',(0.,0.,5.00000000000006E-5));
#1888=CARTESIAN_POINT('',(0.,0.,5.00000000000014E-5));
#1889=CARTESIAN_POINT('',(0.,0.,5.00000000000014E-5));
#1890=CARTESIAN_POINT('',(-0.0015,0.00988685996664259,0.0236732432500309));
#1891=CARTESIAN_POINT('',(-0.0015,0.00785811682275084,3.96765493136111E-17));
#1892=CARTESIAN_POINT('',(-0.0015,0.00785811682275082,-0.000140844305430578));
#1893=CARTESIAN_POINT('',(-0.0015,0.0080403217978014,-0.000243056013781322));
#1894=CARTESIAN_POINT('',(-0.0015,0.00816333265278343,-0.000173205080756864));
#1895=CARTESIAN_POINT('',(-0.0015,0.00816333265278344,-0.000173205080756878));
#1896=CARTESIAN_POINT('',(-0.0015,0.00816333265278343,-0.000173205080756863));
#1897=CARTESIAN_POINT('',(-0.0015,0.00826496160431092,-0.000115495725858657));
#1898=CARTESIAN_POINT('',(-0.0015,0.00836657544641393,-5.77597964122395E-5));
#1899=CARTESIAN_POINT('',(-0.0015,0.00846817571853583,9.39591231794595E-18));
#1900=CARTESIAN_POINT('',(-0.0015,0.00785811682275085,0.0274417350418868));
#1901=CARTESIAN_POINT('',(-0.0015,0.00785811682275085,0.00925));
#1902=CARTESIAN_POINT('',(-0.0015,0.0015,0.00925));
#1903=CARTESIAN_POINT('',(-0.0015,0.007611726258573,0.00925));
#1904=CARTESIAN_POINT('',(-0.0015,0.007611726258573,0.00925));
#1905=CARTESIAN_POINT('',(-0.0015,0.00743891831493644,0.00915211189498311));
#1906=CARTESIAN_POINT('',(-0.0015,0.00726605711438878,0.00905431761566289));
#1907=CARTESIAN_POINT('',(-0.0015,0.00709313047955555,0.00895663861560502));
#1908=CARTESIAN_POINT('',(-0.0015,0.00709313047955555,0.00895663861560502));
#1909=CARTESIAN_POINT('',(-0.0015,0.00709313047955555,0.));
#1910=CARTESIAN_POINT('',(-0.0015,0.00709313047955555,0.00765));
#1911=CARTESIAN_POINT('',(-0.0015,0.00988685996664259,0.00765));
#1912=CARTESIAN_POINT('',(-0.0015,0.00187349939951951,0.00765));
#1913=CARTESIAN_POINT('',(-0.0015,0.00187349939951951,0.00925));
#1914=CARTESIAN_POINT('',(-0.0015,-0.00785811682275085,0.0236732432500309));
#1915=CARTESIAN_POINT('',(-0.00150000000000008,-0.00785811682275084,0.0274417350418868));
#1916=CARTESIAN_POINT('',(-0.00150000000000008,-0.00785811682275084,0.00925));
#1917=CARTESIAN_POINT('',(-0.00150000000000008,-0.00785811682275084,5.00000000000014E-5));
#1918=CARTESIAN_POINT('',(-0.0015,-0.00785811682275085,5.00000000000014E-5));
#1919=CARTESIAN_POINT('',(-0.0015,-0.00846817571853582,-1.58773162966328E-18));
#1920=CARTESIAN_POINT('',(-0.0015,-0.00836657546846693,-5.77597838751052E-5));
#1921=CARTESIAN_POINT('',(-0.0015,-0.00826496162717392,-0.000115495712876052));
#1922=CARTESIAN_POINT('',(-0.0015,-0.00816333265278342,-0.00017320508075688));
#1923=CARTESIAN_POINT('',(-0.0015,-0.00816333265278342,-0.000173205080756879));
#1924=CARTESIAN_POINT('',(-0.0015,-0.00816333265278342,-0.000173205080756874));
#1925=CARTESIAN_POINT('',(-0.0015,-0.00804002763201359,-0.000243223053956306));
#1926=CARTESIAN_POINT('',(-0.0015,-0.00785811682275084,-0.0001409920135838));
#1927=CARTESIAN_POINT('',(-0.0015,-0.00785811682275084,1.00172477232084E-17));
#1928=CARTESIAN_POINT('',(-0.0015,-0.00187349939951951,0.00925));
#1929=CARTESIAN_POINT('',(-0.0015,-0.00187349939951951,0.00765));
#1930=CARTESIAN_POINT('',(-0.0015,-0.00785811682275085,0.00765));
#1931=CARTESIAN_POINT('',(-0.0015,-0.00709313047955555,0.00765));
#1932=CARTESIAN_POINT('',(-0.0015,-0.00709313047955555,0.));
#1933=CARTESIAN_POINT('',(-0.0015,-0.00709313047955555,0.00895663861560502));
#1934=CARTESIAN_POINT('',(-0.0015,-0.00709313047955555,0.00895663861560502));
#1935=CARTESIAN_POINT('',(-0.0015,-0.00726605718946958,0.00905431765807289));
#1936=CARTESIAN_POINT('',(-0.0015,-0.0074389183850035,0.00915211193467302));
#1937=CARTESIAN_POINT('',(-0.0015,-0.00761172625857299,0.00924999999999999));
#1938=CARTESIAN_POINT('',(-0.00150000000000008,-0.00761172625857298,0.00925));
#1939=CARTESIAN_POINT('',(-0.00150000000000008,-0.00785811682275084,0.00925));
#1940=CARTESIAN_POINT('',(0.,0.,5.00000000000006E-5));
#1941=CARTESIAN_POINT('',(-0.00929492662851279,-2.16840434497101E-19,5.00000000000014E-5));
#1942=CARTESIAN_POINT('',(-0.00781787564538795,-0.0016972979683161,5.00000000000014E-5));
#1943=CARTESIAN_POINT('',(0.,0.,5.00000000000014E-5));
#1944=CARTESIAN_POINT('',(0.,0.,0.0274417350418868));
#1945=CARTESIAN_POINT('',(-0.00781787564538795,0.00169729796831609,0.0046));
#1946=CARTESIAN_POINT('',(-0.00781787564538795,0.00169729796831609,0.00925));
#1947=CARTESIAN_POINT('',(0.,0.,0.00925));
#1948=CARTESIAN_POINT('',(-0.00785811682275085,0.0015,0.0274417350418868));
#1949=CARTESIAN_POINT('',(-0.00785811682275085,0.0015,0.00925));
#1950=CARTESIAN_POINT('',(-0.00761787564538795,0.0015,0.00925));
#1951=CARTESIAN_POINT('',(-0.007611726258573,0.0015,0.00925));
#1952=CARTESIAN_POINT('',(-0.00761787564538795,0.0015,-0.00841396103067893));
#1953=CARTESIAN_POINT('',(-0.00187349939951951,0.0015,0.00925));
#1954=CARTESIAN_POINT('',(-0.00187349939951951,0.0015,0.00765));
#1955=CARTESIAN_POINT('',(-0.00785811682275085,0.0015,0.00765));
#1956=CARTESIAN_POINT('',(-0.00709313047955555,0.0015,0.00765));
#1957=CARTESIAN_POINT('',(-0.00709313047955555,0.0015,0.));
#1958=CARTESIAN_POINT('',(-0.00709313047955555,0.0015,0.00895663861560502));
#1959=CARTESIAN_POINT('',(-0.00709313047955555,0.0015,0.00895663861560502));
#1960=CARTESIAN_POINT('',(-0.00726605718946959,0.0015,0.00905431765807289));
#1961=CARTESIAN_POINT('',(-0.00743891838500351,0.0015,0.00915211193467302));
#1962=CARTESIAN_POINT('',(-0.007611726258573,0.0015,0.00925));
#1963=CARTESIAN_POINT('',(0.,0.,0.00925));
#1964=CARTESIAN_POINT('',(-0.00929492662851279,-2.16840434497101E-19,0.00925));
#1965=CARTESIAN_POINT('',(0.,0.,0.00925));
#1966=CARTESIAN_POINT('',(0.,0.,0.0274417350418868));
#1967=CARTESIAN_POINT('',(0.,0.,0.00925));
#1968=CARTESIAN_POINT('',(0.00785811682275086,0.00149999999999997,0.00925));
#1969=CARTESIAN_POINT('',(0.00785811682275086,0.00149999999999997,0.0274417350418868));
#1970=CARTESIAN_POINT('',(0.0015,0.0015,0.0274417350418868));
#1971=CARTESIAN_POINT('',(0.0015,0.0015,0.00765));
#1972=CARTESIAN_POINT('',(0.00709313047955556,0.00149999999999997,0.00765));
#1973=CARTESIAN_POINT('',(0.00187349939951952,0.0015,0.00765));
#1974=CARTESIAN_POINT('',(0.00187349939951952,0.0015,0.00925));
#1975=CARTESIAN_POINT('',(0.0015,0.0015,0.00925));
#1976=CARTESIAN_POINT('',(0.00761172625857301,0.00149999999999997,0.00925));
#1977=CARTESIAN_POINT('',(0.00761172625857301,0.00149999999999998,0.00925));
#1978=CARTESIAN_POINT('',(0.00743891831493645,0.00149999999999998,0.00915211189498311));
#1979=CARTESIAN_POINT('',(0.00726605711438878,0.00149999999999998,0.00905431761566289));
#1980=CARTESIAN_POINT('',(0.00709313047955556,0.00149999999999998,0.00895663861560502));
#1981=CARTESIAN_POINT('',(0.00709313047955556,0.00149999999999997,0.00895663861560502));
#1982=CARTESIAN_POINT('',(0.00709313047955556,0.00149999999999997,0.));
#1983=CARTESIAN_POINT('',(0.,0.,0.00925));
#1984=CARTESIAN_POINT('',(0.,0.,0.00925));
#1985=CARTESIAN_POINT('',(0.,0.,0.0274417350418868));
#1986=CARTESIAN_POINT('',(0.00785811682275085,-0.0015,0.0274417350418868));
#1987=CARTESIAN_POINT('',(0.00785811682275085,-0.0015,0.00925));
#1988=CARTESIAN_POINT('',(0.,0.,0.00925));
#1989=CARTESIAN_POINT('',(0.00785811682275085,-0.0015,0.0274417350418868));
#1990=CARTESIAN_POINT('',(0.00187349939951951,-0.0015,0.00925));
#1991=CARTESIAN_POINT('',(0.00187349939951951,-0.0015,0.00765));
#1992=CARTESIAN_POINT('',(0.00785811682275085,-0.0015,0.00765));
#1993=CARTESIAN_POINT('',(0.00709313047955555,-0.0015,0.00765));
#1994=CARTESIAN_POINT('',(0.00709313047955555,-0.0015,0.));
#1995=CARTESIAN_POINT('',(0.00709313047955555,-0.0015,0.00895663861560502));
#1996=CARTESIAN_POINT('',(0.00709313047955555,-0.0015,0.00895663861560502));
#1997=CARTESIAN_POINT('',(0.00726605718946959,-0.0015,0.00905431765807289));
#1998=CARTESIAN_POINT('',(0.00743891838500351,-0.0015,0.00915211193467302));
#1999=CARTESIAN_POINT('',(0.007611726258573,-0.0015,0.00925));
#2000=CARTESIAN_POINT('',(0.007611726258573,-0.0015,0.00925));
#2001=CARTESIAN_POINT('',(0.00785811682275085,-0.0015,0.00925));
#2002=CARTESIAN_POINT('',(0.,0.,0.00925));
#2003=CARTESIAN_POINT('',(0.,0.,0.00925));
#2004=CARTESIAN_POINT('',(0.,0.,0.0274417350418868));
#2005=CARTESIAN_POINT('',(0.,0.,0.00925));
#2006=CARTESIAN_POINT('',(-0.00781787564538795,-0.00169729796831609,0.00925));
#2007=CARTESIAN_POINT('',(-0.00781787564538795,-0.0016972979683161,0.0046));
#2008=CARTESIAN_POINT('',(-0.0015,-0.00149999999999998,0.0274417350418868));
#2009=CARTESIAN_POINT('',(-0.00761787564538787,-0.00149999999999992,-0.00841396103067893));
#2010=CARTESIAN_POINT('',(-0.00761787564538787,-0.00149999999999992,0.00925));
#2011=CARTESIAN_POINT('',(-0.0015,-0.00149999999999998,0.00925));
#2012=CARTESIAN_POINT('',(-0.00761172625857302,-0.00149999999999992,0.00925));
#2013=CARTESIAN_POINT('',(-0.00761172625857302,-0.00149999999999992,0.00925));
#2014=CARTESIAN_POINT('',(-0.00743891831493646,-0.00149999999999992,0.00915211189498311));
#2015=CARTESIAN_POINT('',(-0.0072660571143888,-0.00149999999999992,0.00905431761566289));
#2016=CARTESIAN_POINT('',(-0.00709313047955557,-0.00149999999999992,0.00895663861560502));
#2017=CARTESIAN_POINT('',(-0.00709313047955557,-0.00149999999999993,0.00895663861560502));
#2018=CARTESIAN_POINT('',(-0.00709313047955557,-0.00149999999999993,0.));
#2019=CARTESIAN_POINT('',(-0.00709313047955557,-0.00149999999999993,0.00765));
#2020=CARTESIAN_POINT('',(-0.0015,-0.00149999999999998,0.00765));
#2021=CARTESIAN_POINT('',(-0.00187349939951953,-0.00149999999999998,0.00765));
#2022=CARTESIAN_POINT('',(-0.00187349939951953,-0.00149999999999998,0.00925));
#2023=CARTESIAN_POINT('',(0.,0.,0.00925));
#2024=CARTESIAN_POINT('',(-0.00929492662851279,-2.16840434497101E-19,0.00925));
#2025=CARTESIAN_POINT('',(0.,0.,0.00925));
#2026=CARTESIAN_POINT('',(0.,0.,0.00895663861560502));
#2027=CARTESIAN_POINT('',(0.,0.,0.00895663861560502));
#2028=CARTESIAN_POINT('',(0.,0.,0.));
#2029=CARTESIAN_POINT('',(0.,0.,0.00765));
#2030=CARTESIAN_POINT('',(0.,0.00725,0.00765));
#2031=CARTESIAN_POINT('',(0.,0.,0.00765));
#2032=CARTESIAN_POINT('',(0.,0.,0.00895663861560502));
#2033=CARTESIAN_POINT('',(0.,0.,0.00895663861560502));
#2034=CARTESIAN_POINT('',(0.,0.,0.));
#2035=CARTESIAN_POINT('',(0.,0.,0.00765));
#2036=CARTESIAN_POINT('',(0.,0.00725,0.00765));
#2037=CARTESIAN_POINT('',(0.,0.,0.00765));
#2038=CARTESIAN_POINT('',(0.,0.,0.00895663861560502));
#2039=CARTESIAN_POINT('',(0.,0.,0.00895663861560502));
#2040=CARTESIAN_POINT('',(0.,0.,0.));
#2041=CARTESIAN_POINT('',(0.,0.,0.00765));
#2042=CARTESIAN_POINT('',(0.,0.00725,0.00765));
#2043=CARTESIAN_POINT('',(0.,0.,0.00765));
#2044=CARTESIAN_POINT('',(0.,0.00725,0.00765));
#2045=CARTESIAN_POINT('',(0.,0.,0.00765));
#2046=CARTESIAN_POINT('',(0.,0.,0.00765));
#2047=CARTESIAN_POINT('',(0.,0.,0.));
#2048=CARTESIAN_POINT('',(0.,0.,0.00895663861560502));
#2049=CARTESIAN_POINT('',(0.,0.,0.00895663861560502));
#2050=CARTESIAN_POINT('',(0.,0.,0.00925));
#2051=CARTESIAN_POINT('',(0.,0.,-0.00015));
#2052=CARTESIAN_POINT('',(0.0024,0.,-0.00015));
#2053=CARTESIAN_POINT('',(0.,0.,-0.00015));
#2054=CARTESIAN_POINT('',(-0.00929492662851279,-2.16840434497101E-19,-0.00841396103067893));
#2055=CARTESIAN_POINT('',(-0.00929492662851279,-2.16840434497101E-19,-5.E-5));
#2056=CARTESIAN_POINT('',(0.,0.,-5.E-5));
#2057=CARTESIAN_POINT('',(-0.00502045814642448,0.00643467170879759,-0.024551));
#2058=CARTESIAN_POINT('',(-0.00643467170879757,0.0050204581464245,-0.024551));
#2059=CARTESIAN_POINT('',(-0.00502045814642448,0.00643467170879759,-0.024551));
#2060=CARTESIAN_POINT('',(-0.00643467170879757,0.0050204581464245,-0.024551));
#2061=CARTESIAN_POINT('',(-0.00502045814642448,0.00643467170879759,-0.024551));
#2062=CARTESIAN_POINT('',(0.,1.05773594714025E-36,-0.00555));
#2063=CARTESIAN_POINT('',(0.,-1.95781725734336E-19,-0.00555));
#2064=CARTESIAN_POINT('',(0.,-0.0017,-0.00555));
#2065=CARTESIAN_POINT('',(0.,1.05773594714025E-36,-0.01855));
#2066=CARTESIAN_POINT('',(0.,-6.54369551778727E-19,-0.01855));
#2067=CARTESIAN_POINT('',(0.,-0.0017,-0.01855));
#2068=CARTESIAN_POINT('',(0.,0.,0.));
#2069=CARTESIAN_POINT('',(3.61381130108745E-5,-0.00173696227208442,-0.0129200389099237));
#2070=CARTESIAN_POINT('',(-0.000532294910378951,-0.00163314634452008,-0.0126425909758662));
#2071=CARTESIAN_POINT('',(-0.000723263160868005,-0.00153394294740387,-0.012078967307454));
#2072=CARTESIAN_POINT('',(-0.000566352891087949,-0.00161757895252432,-0.0115077736807874));
#2073=CARTESIAN_POINT('',(-3.66119638864619E-5,-0.00173676995864154,-0.0111805105161306));
#2074=CARTESIAN_POINT('',(0.000530608337113437,-0.00163371392260757,-0.0114556451206275));
#2075=CARTESIAN_POINT('',(0.000723511475508075,-0.00153386510261333,-0.012019524401879));
#2076=CARTESIAN_POINT('',(0.000566786882578011,-0.00161743302912341,-0.0125919585450727));
#2077=CARTESIAN_POINT('',(3.61381130108745E-5,-0.00173696227208442,-0.0129200389099237));
#2078=CARTESIAN_POINT('',(-0.000532294910378951,-0.00163314634452008,-0.0126425909758662));
#2079=CARTESIAN_POINT('',(-0.000723263160868005,-0.00153394294740387,-0.012078967307454));
#2080=CARTESIAN_POINT('',(-0.000469384114895489,-0.00163391509959477,-0.0125948950201404));
#2081=CARTESIAN_POINT('',(0.,-0.0035,0.));
#2082=CARTESIAN_POINT('',(0.,0.0035,0.));
#2083=CARTESIAN_POINT('',(0.,-0.000696650460369274,-0.01205));
#2084=CARTESIAN_POINT('',(0.,1.17093834628434E-17,0.000150000000000008));
#2085=CARTESIAN_POINT('',(0.,1.17093834628434E-17,-0.000173205080756879));
#2086=CARTESIAN_POINT('',(0.,1.21430643318376E-17,8.37546178245052E-18));
#2087=CARTESIAN_POINT('',(0.,-1.49363738033338E-17,-0.000173205080756859));
#2088=CARTESIAN_POINT('',(0.,-1.49363738033338E-17,-0.000173205080756859));
#2089=CARTESIAN_POINT('',(0.,-1.38777878078145E-17,2.76672500308515E-17));
#2090=(
GEOMETRIC_REPRESENTATION_CONTEXT(3)
GLOBAL_UNCERTAINTY_ASSIGNED_CONTEXT((#2091))
GLOBAL_UNIT_ASSIGNED_CONTEXT((#2094,#2093,#2092))
REPRESENTATION_CONTEXT('id2','TOP_LEVEL_ASSEMBLY_PART')
);
#2091=UNCERTAINTY_MEASURE_WITH_UNIT(LENGTH_MEASURE(2.E-5),#2094,
'DISTANCE_ACCURACY_VALUE','Maximum Tolerance applied to model');
#2092=(
NAMED_UNIT(*)
SI_UNIT($,.STERADIAN.)
SOLID_ANGLE_UNIT()
);
#2093=(
NAMED_UNIT(*)
PLANE_ANGLE_UNIT()
SI_UNIT($,.RADIAN.)
);
#2094=(
LENGTH_UNIT()
NAMED_UNIT(*)
SI_UNIT($,.METRE.)
);
#2095=PRODUCT_DEFINITION_SHAPE('','',#2096);
#2096=PRODUCT_DEFINITION('','',#2098,#2097);
#2097=DESIGN_CONTEXT('',#2104,'design');
#2098=PRODUCT_DEFINITION_FORMATION_WITH_SPECIFIED_SOURCE('','',#2100,
 .NOT_KNOWN.);
#2099=PRODUCT_RELATED_PRODUCT_CATEGORY('','',(#2100));
#2100=PRODUCT('id2','id2','id2',(#2102));
#2101=PRODUCT_CATEGORY('','');
#2102=MECHANICAL_CONTEXT('',#2104,'mechanical');
#2103=APPLICATION_PROTOCOL_DEFINITION('international standard',
'config_control_design',2010,#2104);
#2104=APPLICATION_CONTEXT(
'configuration controlled 3D designs of mechanical parts and assemblie
s');
ENDSEC;
END-ISO-10303-21;
