ISO-10303-21;
HEADER;
/* Generated by software containing ST-Developer
 * from STEP Tools, Inc. (www.steptools.com) 
 */
/* OPTION: using custom renumber hook */

FILE_DESCRIPTION(
/* description */ ('STEP AP203'),
/* implementation_level */ '2;1');

FILE_NAME(
/* name */ '6a545b7d3a50d7d3af541c43',
/* time_stamp */ '2026-07-13T03:29:01Z',
/* author */ (''),
/* organization */ (''),
/* preprocessor_version */ 'ST-DEVELOPER v20',
/* originating_system */ 'ONSHAPE BY PTC INC, 1.217',
/* authorisation */ '  ');

FILE_SCHEMA (('CONFIG_CONTROL_DESIGN'));
ENDSEC;

DATA;
#10=PROPERTY_DEFINITION_REPRESENTATION(#14,#12);
#11=PROPERTY_DEFINITION_REPRESENTATION(#15,#13);
#12=REPRESENTATION('',(#16),#385);
#13=REPRESENTATION('',(#17),#385);
#14=PROPERTY_DEFINITION('pmi validation property','',#390);
#15=PROPERTY_DEFINITION('pmi validation property','',#390);
#16=VALUE_REPRESENTATION_ITEM('number of annotations',COUNT_MEASURE(0.));
#17=VALUE_REPRESENTATION_ITEM('number of views',COUNT_MEASURE(0.));
#18=SHAPE_REPRESENTATION_RELATIONSHIP('','',#179,#19);
#19=ADVANCED_BREP_SHAPE_REPRESENTATION('',(#177),#385);
#20=(
BOUNDED_SURFACE()
B_SPLINE_SURFACE(3,3,((#296,#297,#298,#299,#300),(#301,#302,#303,#304,#305),
(#306,#307,#308,#309,#310),(#311,#312,#313,#314,#315),(#316,#317,#318,#319,
#320),(#321,#322,#323,#324,#325),(#326,#327,#328,#329,#330)),
 .UNSPECIFIED.,.T.,.F.,.F.)
B_SPLINE_SURFACE_WITH_KNOTS((1,3,3,3,1),(4,1,4),(-0.5,0.,0.5,1.,1.5),(0.,
0.559331190816291,1.),.UNSPECIFIED.)
GEOMETRIC_REPRESENTATION_ITEM()
RATIONAL_B_SPLINE_SURFACE(((1.,1.,1.,1.,1.),(0.333333333333333,0.333333333333333,
0.333333333333333,0.333333333333333,0.333333333333333),(0.333333333333333,
0.333333333333333,0.333333333333333,0.333333333333333,0.333333333333333),
(1.,1.,1.,1.,1.),(0.333333333333333,0.333333333333333,0.333333333333333,
0.333333333333333,0.333333333333333),(0.333333333333333,0.333333333333333,
0.333333333333333,0.333333333333333,0.333333333333333),(1.,1.,1.,1.,1.)))
REPRESENTATION_ITEM('')
SURFACE()
);
#21=(
BOUNDED_SURFACE()
B_SPLINE_SURFACE(3,3,((#340,#341,#342,#343,#344),(#345,#346,#347,#348,#349),
(#350,#351,#352,#353,#354),(#355,#356,#357,#358,#359),(#360,#361,#362,#363,
#364),(#365,#366,#367,#368,#369),(#370,#371,#372,#373,#374)),
 .UNSPECIFIED.,.T.,.F.,.F.)
B_SPLINE_SURFACE_WITH_KNOTS((1,3,3,3,1),(4,1,4),(-0.5,0.,0.5,1.,1.5),(0.,
0.559321764812687,1.),.UNSPECIFIED.)
GEOMETRIC_REPRESENTATION_ITEM()
RATIONAL_B_SPLINE_SURFACE(((1.,1.,1.,1.,1.),(0.333333333333333,0.333333333333333,
0.333333333333333,0.333333333333333,0.333333333333333),(0.333333333333333,
0.333333333333333,0.333333333333333,0.333333333333333,0.333333333333333),
(1.,1.,1.,1.,1.),(0.333333333333333,0.333333333333333,0.333333333333333,
0.333333333333333,0.333333333333333),(0.333333333333333,0.333333333333333,
0.333333333333333,0.333333333333333,0.333333333333333),(1.,1.,1.,1.,1.)))
REPRESENTATION_ITEM('')
SURFACE()
);
#22=PLANE('',#201);
#23=PLANE('',#203);
#24=ELLIPSE('',#196,0.000100202637667993,0.0001);
#25=(
BOUNDED_CURVE()
B_SPLINE_CURVE(3,(#267,#268,#269,#270,#271,#272,#273),.UNSPECIFIED.,.T.,
 .F.)
B_SPLINE_CURVE_WITH_KNOTS((1,3,3,3,1),(-0.5,0.,0.5,1.,1.5),
 .PIECEWISE_BEZIER_KNOTS.)
CURVE()
GEOMETRIC_REPRESENTATION_ITEM()
RATIONAL_B_SPLINE_CURVE((1.,0.333333333333333,0.333333333333333,1.,0.333333333333333,
0.333333333333333,1.))
REPRESENTATION_ITEM('')
);
#26=(
BOUNDED_CURVE()
B_SPLINE_CURVE(3,(#331,#332,#333,#334,#335,#336,#337),.UNSPECIFIED.,.T.,
 .F.)
B_SPLINE_CURVE_WITH_KNOTS((1,3,3,3,1),(-0.5,0.,0.5,1.,1.5),
 .PIECEWISE_BEZIER_KNOTS.)
CURVE()
GEOMETRIC_REPRESENTATION_ITEM()
RATIONAL_B_SPLINE_CURVE((1.,0.333333333333333,0.333333333333333,1.,0.333333333333333,
0.333333333333333,1.))
REPRESENTATION_ITEM('')
);
#27=(
BOUNDED_CURVE()
B_SPLINE_CURVE(3,(#375,#376,#377,#378,#379,#380,#381),.UNSPECIFIED.,.T.,
 .F.)
B_SPLINE_CURVE_WITH_KNOTS((1,3,3,3,1),(-0.5,0.,0.5,1.,1.5),
 .PIECEWISE_BEZIER_KNOTS.)
CURVE()
GEOMETRIC_REPRESENTATION_ITEM()
RATIONAL_B_SPLINE_CURVE((1.,0.333333333333333,0.333333333333333,1.,0.333333333333333,
0.333333333333333,1.))
REPRESENTATION_ITEM('')
);
#28=TOROIDAL_SURFACE('',#184,0.000199127859616387,0.0001);
#29=TOROIDAL_SURFACE('',#188,0.000117608412372625,0.0001);
#30=TOROIDAL_SURFACE('',#192,0.000117608412372625,0.0001);
#31=TOROIDAL_SURFACE('',#197,0.000199127859616408,0.0001);
#32=ORIENTED_EDGE('',*,*,#60,.F.);
#33=ORIENTED_EDGE('',*,*,#61,.T.);
#34=ORIENTED_EDGE('',*,*,#62,.F.);
#35=ORIENTED_EDGE('',*,*,#60,.T.);
#36=ORIENTED_EDGE('',*,*,#63,.T.);
#37=ORIENTED_EDGE('',*,*,#64,.T.);
#38=ORIENTED_EDGE('',*,*,#65,.T.);
#39=ORIENTED_EDGE('',*,*,#63,.F.);
#40=ORIENTED_EDGE('',*,*,#66,.T.);
#41=ORIENTED_EDGE('',*,*,#65,.F.);
#42=ORIENTED_EDGE('',*,*,#67,.T.);
#43=ORIENTED_EDGE('',*,*,#66,.F.);
#44=ORIENTED_EDGE('',*,*,#68,.F.);
#45=ORIENTED_EDGE('',*,*,#69,.F.);
#46=ORIENTED_EDGE('',*,*,#70,.F.);
#47=ORIENTED_EDGE('',*,*,#68,.T.);
#48=ORIENTED_EDGE('',*,*,#70,.T.);
#49=ORIENTED_EDGE('',*,*,#71,.F.);
#50=ORIENTED_EDGE('',*,*,#71,.T.);
#51=ORIENTED_EDGE('',*,*,#69,.T.);
#52=ORIENTED_EDGE('',*,*,#72,.T.);
#53=ORIENTED_EDGE('',*,*,#72,.F.);
#54=ORIENTED_EDGE('',*,*,#67,.F.);
#55=ORIENTED_EDGE('',*,*,#64,.F.);
#56=ORIENTED_EDGE('',*,*,#73,.F.);
#57=ORIENTED_EDGE('',*,*,#61,.F.);
#58=ORIENTED_EDGE('',*,*,#73,.T.);
#59=ORIENTED_EDGE('',*,*,#62,.T.);
#60=EDGE_CURVE('',#74,#74,#88,.T.);
#61=EDGE_CURVE('',#75,#75,#89,.T.);
#62=EDGE_CURVE('',#76,#76,#90,.T.);
#63=EDGE_CURVE('',#77,#77,#91,.T.);
#64=EDGE_CURVE('',#78,#78,#25,.T.);
#65=EDGE_CURVE('',#79,#79,#92,.T.);
#66=EDGE_CURVE('',#80,#80,#93,.T.);
#67=EDGE_CURVE('',#81,#81,#94,.T.);
#68=EDGE_CURVE('',#82,#82,#95,.T.);
#69=EDGE_CURVE('',#83,#83,#24,.T.);
#70=EDGE_CURVE('',#84,#84,#96,.T.);
#71=EDGE_CURVE('',#85,#85,#97,.T.);
#72=EDGE_CURVE('',#86,#86,#26,.T.);
#73=EDGE_CURVE('',#87,#87,#27,.F.);
#74=VERTEX_POINT('',#258);
#75=VERTEX_POINT('',#260);
#76=VERTEX_POINT('',#263);
#77=VERTEX_POINT('',#266);
#78=VERTEX_POINT('',#274);
#79=VERTEX_POINT('',#277);
#80=VERTEX_POINT('',#280);
#81=VERTEX_POINT('',#283);
#82=VERTEX_POINT('',#286);
#83=VERTEX_POINT('',#288);
#84=VERTEX_POINT('',#291);
#85=VERTEX_POINT('',#294);
#86=VERTEX_POINT('',#338);
#87=VERTEX_POINT('',#382);
#88=CIRCLE('',#182,0.0001);
#89=CIRCLE('',#183,0.0001);
#90=CIRCLE('',#185,0.0001);
#91=CIRCLE('',#187,0.0001);
#92=CIRCLE('',#189,0.0001);
#93=CIRCLE('',#191,0.0001);
#94=CIRCLE('',#193,0.0001);
#95=CIRCLE('',#195,0.0001);
#96=CIRCLE('',#198,0.0001);
#97=CIRCLE('',#200,0.0001);
#98=EDGE_LOOP('',(#32));
#99=EDGE_LOOP('',(#33));
#100=EDGE_LOOP('',(#34));
#101=EDGE_LOOP('',(#35));
#102=EDGE_LOOP('',(#36));
#103=EDGE_LOOP('',(#37));
#104=EDGE_LOOP('',(#38));
#105=EDGE_LOOP('',(#39));
#106=EDGE_LOOP('',(#40));
#107=EDGE_LOOP('',(#41));
#108=EDGE_LOOP('',(#42));
#109=EDGE_LOOP('',(#43));
#110=EDGE_LOOP('',(#44));
#111=EDGE_LOOP('',(#45));
#112=EDGE_LOOP('',(#46));
#113=EDGE_LOOP('',(#47));
#114=EDGE_LOOP('',(#48));
#115=EDGE_LOOP('',(#49));
#116=EDGE_LOOP('',(#50));
#117=EDGE_LOOP('',(#51));
#118=EDGE_LOOP('',(#52));
#119=EDGE_LOOP('',(#53));
#120=EDGE_LOOP('',(#54));
#121=EDGE_LOOP('',(#55));
#122=EDGE_LOOP('',(#56));
#123=EDGE_LOOP('',(#57));
#124=EDGE_LOOP('',(#58));
#125=EDGE_LOOP('',(#59));
#126=FACE_BOUND('',#98,.T.);
#127=FACE_BOUND('',#99,.T.);
#128=FACE_BOUND('',#100,.T.);
#129=FACE_BOUND('',#101,.T.);
#130=FACE_BOUND('',#102,.T.);
#131=FACE_BOUND('',#103,.T.);
#132=FACE_BOUND('',#104,.T.);
#133=FACE_BOUND('',#105,.T.);
#134=FACE_BOUND('',#106,.T.);
#135=FACE_BOUND('',#107,.T.);
#136=FACE_BOUND('',#108,.T.);
#137=FACE_BOUND('',#109,.T.);
#138=FACE_BOUND('',#110,.T.);
#139=FACE_BOUND('',#111,.T.);
#140=FACE_BOUND('',#112,.T.);
#141=FACE_BOUND('',#113,.T.);
#142=FACE_BOUND('',#114,.T.);
#143=FACE_BOUND('',#115,.T.);
#144=FACE_BOUND('',#116,.T.);
#145=FACE_BOUND('',#117,.T.);
#146=FACE_BOUND('',#118,.T.);
#147=FACE_BOUND('',#119,.T.);
#148=FACE_BOUND('',#120,.T.);
#149=FACE_BOUND('',#121,.T.);
#150=FACE_BOUND('',#122,.T.);
#151=FACE_BOUND('',#123,.T.);
#152=FACE_BOUND('',#124,.T.);
#153=FACE_BOUND('',#125,.T.);
#154=CYLINDRICAL_SURFACE('',#181,0.0001);
#155=CYLINDRICAL_SURFACE('',#186,0.0001);
#156=CYLINDRICAL_SURFACE('',#190,0.0001);
#157=CYLINDRICAL_SURFACE('',#194,0.0001);
#158=CYLINDRICAL_SURFACE('',#199,0.0001);
#159=CYLINDRICAL_SURFACE('',#202,9.99999999999977E-5);
#160=CYLINDRICAL_SURFACE('',#204,0.0001);
#161=ADVANCED_FACE('',(#126,#127),#154,.T.);
#162=ADVANCED_FACE('',(#128,#129),#28,.T.);
#163=ADVANCED_FACE('',(#130,#131),#155,.T.);
#164=ADVANCED_FACE('',(#132,#133),#29,.T.);
#165=ADVANCED_FACE('',(#134,#135),#156,.T.);
#166=ADVANCED_FACE('',(#136,#137),#30,.T.);
#167=ADVANCED_FACE('',(#138,#139),#157,.T.);
#168=ADVANCED_FACE('',(#140,#141),#31,.T.);
#169=ADVANCED_FACE('',(#142,#143),#158,.T.);
#170=ADVANCED_FACE('',(#144),#22,.T.);
#171=ADVANCED_FACE('',(#145,#146),#20,.T.);
#172=ADVANCED_FACE('',(#147,#148),#159,.T.);
#173=ADVANCED_FACE('',(#149,#150),#21,.F.);
#174=ADVANCED_FACE('',(#151),#23,.F.);
#175=ADVANCED_FACE('',(#152,#153),#160,.T.);
#176=CLOSED_SHELL('',(#161,#162,#163,#164,#165,#166,#167,#168,#169,#170,
#171,#172,#173,#174,#175));
#177=MANIFOLD_SOLID_BREP('',#176);
#178=SHAPE_DEFINITION_REPRESENTATION(#390,#179);
#179=SHAPE_REPRESENTATION('id2',(#180),#385);
#180=AXIS2_PLACEMENT_3D('',#255,#205,#206);
#181=AXIS2_PLACEMENT_3D('',#256,#207,#208);
#182=AXIS2_PLACEMENT_3D('',#257,#209,#210);
#183=AXIS2_PLACEMENT_3D('',#259,#211,#212);
#184=AXIS2_PLACEMENT_3D('',#261,#213,#214);
#185=AXIS2_PLACEMENT_3D('',#262,#215,#216);
#186=AXIS2_PLACEMENT_3D('',#264,#217,#218);
#187=AXIS2_PLACEMENT_3D('',#265,#219,#220);
#188=AXIS2_PLACEMENT_3D('',#275,#221,#222);
#189=AXIS2_PLACEMENT_3D('',#276,#223,#224);
#190=AXIS2_PLACEMENT_3D('',#278,#225,#226);
#191=AXIS2_PLACEMENT_3D('',#279,#227,#228);
#192=AXIS2_PLACEMENT_3D('',#281,#229,#230);
#193=AXIS2_PLACEMENT_3D('',#282,#231,#232);
#194=AXIS2_PLACEMENT_3D('',#284,#233,#234);
#195=AXIS2_PLACEMENT_3D('',#285,#235,#236);
#196=AXIS2_PLACEMENT_3D('',#287,#237,#238);
#197=AXIS2_PLACEMENT_3D('',#289,#239,#240);
#198=AXIS2_PLACEMENT_3D('',#290,#241,#242);
#199=AXIS2_PLACEMENT_3D('',#292,#243,#244);
#200=AXIS2_PLACEMENT_3D('',#293,#245,#246);
#201=AXIS2_PLACEMENT_3D('',#295,#247,#248);
#202=AXIS2_PLACEMENT_3D('',#339,#249,#250);
#203=AXIS2_PLACEMENT_3D('',#383,#251,#252);
#204=AXIS2_PLACEMENT_3D('',#384,#253,#254);
#205=DIRECTION('',(0.,0.,1.));
#206=DIRECTION('',(1.,0.,0.));
#207=DIRECTION('',(0.,7.97207479768753E-18,1.));
#208=DIRECTION('',(0.,-1.,7.97207479768754E-18));
#209=DIRECTION('',(1.89936920145532E-15,-2.89149453480447E-15,-1.));
#210=DIRECTION('',(-0.99127859616408,0.131782945736434,-2.27595720048157E-15));
#211=DIRECTION('',(1.89936920145532E-15,-2.89149453480447E-15,-1.));
#212=DIRECTION('',(-0.99127859616408,0.131782945736434,-2.27595720048157E-15));
#213=DIRECTION('',(-0.99127859616408,0.131782945736434,0.));
#214=DIRECTION('',(-0.131782945736434,-0.99127859616408,0.));
#215=DIRECTION('',(0.131782945736436,0.991278596164079,1.98652593983437E-15));
#216=DIRECTION('',(-0.991278596164079,0.131782945736436,0.));
#217=DIRECTION('',(-0.131782945736434,-0.976218846897443,-0.172133721784126));
#218=DIRECTION('',(0.,0.173648177666931,-0.984807753012208));
#219=DIRECTION('',(-0.131782945736443,-0.976218846897444,-0.172133721784116));
#220=DIRECTION('',(1.80411241501588E-15,-0.173648177666921,0.98480775301221));
#221=DIRECTION('',(0.,0.173648177666927,-0.984807753012209));
#222=DIRECTION('',(0.,0.984807753012209,0.173648177666927));
#223=DIRECTION('',(1.,-6.93889390390723E-15,4.99600361081321E-15));
#224=DIRECTION('',(-6.13398221105399E-15,-0.173648177666926,0.984807753012209));
#225=DIRECTION('',(1.,-7.98803657308447E-16,4.9925228581778E-17));
#226=DIRECTION('',(7.98803657308447E-16,1.,0.));
#227=DIRECTION('',(1.,-6.93889390390723E-15,4.99600361081321E-15));
#228=DIRECTION('',(-6.13398221105399E-15,-0.173648177666926,0.984807753012209));
#229=DIRECTION('',(0.,0.173648177666927,-0.984807753012209));
#230=DIRECTION('',(0.,0.984807753012209,0.173648177666927));
#231=DIRECTION('',(-0.131782945736431,0.976218846897443,0.172133721784128));
#232=DIRECTION('',(0.,-0.173648177666933,0.984807753012208));
#233=DIRECTION('',(-0.131782945736434,0.991278596164079,-2.42549108482878E-17));
#234=DIRECTION('',(-0.991278596164079,-0.131782945736434,0.));
#235=DIRECTION('',(0.131782945736434,-0.99127859616408,1.04973287714338E-14));
#236=DIRECTION('',(0.982633255213028,0.130633613447978,-0.131782945736434));
#237=DIRECTION('',(-0.194526739257409,0.980897215230344,2.94488834351061E-5));
#238=DIRECTION('',(0.980897108163614,0.194526731905408,-0.000462353176904689));
#239=DIRECTION('',(0.99127859616408,0.131782945736434,-1.35525271560688E-16));
#240=DIRECTION('',(-0.131782945736434,0.99127859616408,0.));
#241=DIRECTION('',(0.,0.,1.));
#242=DIRECTION('',(1.,0.,0.));
#243=DIRECTION('',(6.37765983815003E-17,-1.0508141981256E-16,1.));
#244=DIRECTION('',(0.,-1.,-1.0508141981256E-16));
#245=DIRECTION('',(0.,0.,1.));
#246=DIRECTION('',(1.,0.,0.));
#247=DIRECTION('',(0.,0.,1.));
#248=DIRECTION('',(1.,0.,0.));
#249=DIRECTION('',(0.131782945736433,-0.976218846897443,-0.172133721784126));
#250=DIRECTION('',(0.,0.17364817766693,-0.984807753012208));
#251=DIRECTION('',(1.86725738173972E-15,-2.92079299656657E-15,-1.));
#252=DIRECTION('',(-0.99127859616408,0.131782945736434,-2.24820162486594E-15));
#253=DIRECTION('',(-0.131782945736434,-0.991278596164079,-1.36145015512186E-16));
#254=DIRECTION('',(0.991278596164079,-0.131782945736434,0.));
#255=CARTESIAN_POINT('',(0.,0.,0.));
#256=CARTESIAN_POINT('',(0.000350000000000152,-0.0001,0.0001));
#257=CARTESIAN_POINT('',(0.000350000000000152,-0.0001,0.0001));
#258=CARTESIAN_POINT('',(0.000250872140383744,-8.68217054263566E-5,9.99999999999998E-5));
#259=CARTESIAN_POINT('',(0.000350000000000152,-0.0001,0.0018));
#260=CARTESIAN_POINT('',(0.000250872140383744,-8.68217054263566E-5,0.0018));
#261=CARTESIAN_POINT('',(0.00037624165591859,9.7391185137691E-5,0.0001));
#262=CARTESIAN_POINT('',(0.00037624165591859,9.73911851376908E-5,-9.91278596163876E-5));
#263=CARTESIAN_POINT('',(0.000277113796302182,0.000110569479711334,-9.91278596163876E-5));
#264=CARTESIAN_POINT('',(0.00120240864931992,0.00624335833757032,0.000298245940234091));
#265=CARTESIAN_POINT('',(0.00120240864931992,0.00624335833757032,0.000298245940234091));
#266=CARTESIAN_POINT('',(0.00120240864931992,0.00622599351980363,0.000396726715535312));
#267=CARTESIAN_POINT('',(0.000998853683453174,0.00398818110698593,-9.94496955048382E-5));
#268=CARTESIAN_POINT('',(0.000998761833545386,0.00402292276402977,-0.000296409104595756));
#269=CARTESIAN_POINT('',(0.000802184878507585,0.00406129860006108,-0.000289548321881181));
#270=CARTESIAN_POINT('',(0.000802276728415373,0.00402655694301725,-9.25889127902628E-5));
#271=CARTESIAN_POINT('',(0.000802368578323165,0.00399181528597341,0.000104370496300655));
#272=CARTESIAN_POINT('',(0.000998945533360966,0.0039534394499421,9.75097135860796E-5));
#273=CARTESIAN_POINT('',(0.000998853683453174,0.00398818110698593,-9.94496955048382E-5));
#274=CARTESIAN_POINT('',(0.000998853683453174,0.00398818110698593,-9.94496955048382E-5));
#275=CARTESIAN_POINT('',(0.0010858259474061,0.00625862165925643,0.000300937275662585));
#276=CARTESIAN_POINT('',(0.0010858259474061,0.00637444333558045,0.000321359762149392));
#277=CARTESIAN_POINT('',(0.0010858259474061,0.00635707851781376,0.000419840537450613));
#278=CARTESIAN_POINT('',(-0.0010858259474061,0.00637444333558045,0.000321359762149392));
#279=CARTESIAN_POINT('',(-0.0010858259474061,0.00637444333558045,0.000321359762149392));
#280=CARTESIAN_POINT('',(-0.0010858259474061,0.00635707851781376,0.000419840537450613));
#281=CARTESIAN_POINT('',(-0.0010858259474061,0.00625862165925644,0.000300937275662585));
#282=CARTESIAN_POINT('',(-0.00120240864931992,0.00624335833757033,0.000298245940234091));
#283=CARTESIAN_POINT('',(-0.00120240864931992,0.00622599351980364,0.000396726715535312));
#284=CARTESIAN_POINT('',(-0.000376241655918441,9.73911851377086E-5,-9.91278596164078E-5));
#285=CARTESIAN_POINT('',(-0.000376241655918441,9.73911851377086E-5,-9.91278596164078E-5));
#286=CARTESIAN_POINT('',(-0.000277978330397138,0.000110454546482506,-0.000112306154190051));
#287=CARTESIAN_POINT('',(-0.000891571113557251,0.00397372782699625,-9.91278596164079E-5));
#288=CARTESIAN_POINT('',(-0.00079328263603835,0.00399321991863011,-9.91741886242679E-5));
#289=CARTESIAN_POINT('',(-0.000376241655918442,9.73911851377107E-5,0.0001));
#290=CARTESIAN_POINT('',(-0.00035,-0.0001,0.0001));
#291=CARTESIAN_POINT('',(-0.00025,-0.0001,0.0001));
#292=CARTESIAN_POINT('',(-0.00035,-0.0001,0.0001));
#293=CARTESIAN_POINT('',(-0.00035,-0.0001,0.0018));
#294=CARTESIAN_POINT('',(-0.00025,-0.0001,0.0018));
#295=CARTESIAN_POINT('',(-0.00035,-0.0001,0.0018));
#296=CARTESIAN_POINT('',(-0.000793282636038349,0.0039932199186301,-9.91741886242679E-5));
#297=CARTESIAN_POINT('',(-0.000794948564272785,0.00399947101103212,-9.88418047525957E-5));
#298=CARTESIAN_POINT('',(-0.0007980101730222,0.00401106235800287,-9.93206987485209E-5));
#299=CARTESIAN_POINT('',(-0.000801049718369058,0.00402235544232636,-9.78038724099919E-5));
#300=CARTESIAN_POINT('',(-0.000802375980939512,0.00402731999103552,-9.71000125676045E-5));
#301=CARTESIAN_POINT('',(-0.000793374485946097,0.00399320770788384,-0.000299174167160497));
#302=CARTESIAN_POINT('',(-0.000794993691652819,0.00399923489514231,-0.000298251211246527));
#303=CARTESIAN_POINT('',(-0.00080248788239362,0.00402757086013122,-0.000299270640378896));
#304=CARTESIAN_POINT('',(-0.000810002440721566,0.00405553876922169,-0.000295315012521436));
#305=CARTESIAN_POINT('',(-0.00081127774662265,0.00406027019487813,-0.000294166959416065));
#306=CARTESIAN_POINT('',(-0.000989951440983898,0.00395422352461614,-0.000299081509144778));
#307=CARTESIAN_POINT('',(-0.00099157064669062,0.00396025071187461,-0.000298158553230807));
#308=CARTESIAN_POINT('',(-0.000998990099591713,0.00398821766296416,-0.00029809929947285));
#309=CARTESIAN_POINT('',(-0.00100638145985243,0.00401564105322672,-0.000293152852273927));
#310=CARTESIAN_POINT('',(-0.00100765676575351,0.00402037247888316,-0.000292004799168557));
#311=CARTESIAN_POINT('',(-0.00098985959107615,0.00395423573536239,-9.90815306085479E-5));
#312=CARTESIAN_POINT('',(-0.00099150215804673,0.00396037487519263,-9.84538607157266E-5));
#313=CARTESIAN_POINT('',(-0.000994505423256666,0.00397167928723967,-9.81247271416645E-5));
#314=CARTESIAN_POINT('',(-0.000997454215834608,0.00398257428785775,-9.58638087939746E-5));
#315=CARTESIAN_POINT('',(-0.000998755000070377,0.00398742227504055,-9.49378523200959E-5));
#316=CARTESIAN_POINT('',(-0.000989767741168405,0.00395424794610864,0.000100918447927682));
#317=CARTESIAN_POINT('',(-0.000991433669402842,0.00396049903851066,0.000101250831799354));
#318=CARTESIAN_POINT('',(-0.000990020746921621,0.00395514091151517,0.000101849845189521));
#319=CARTESIAN_POINT('',(-0.000988526971816789,0.00394950752248878,0.000101425234685978));
#320=CARTESIAN_POINT('',(-0.000989853234387241,0.00395447207119794,0.000102129094528365));
#321=CARTESIAN_POINT('',(-0.000793190786130604,0.00399323212937637,0.000100825789911962));
#322=CARTESIAN_POINT('',(-0.000794903436892753,0.00399970712692194,0.000100567601741336));
#323=CARTESIAN_POINT('',(-0.000793532463650782,0.00399455385587454,0.000100629242881853));
#324=CARTESIAN_POINT('',(-0.000792096996016555,0.00398917211543103,9.97072677014521E-5));
#325=CARTESIAN_POINT('',(-0.000793474215256378,0.00399436978719291,9.99669342808567E-5));
#326=CARTESIAN_POINT('',(-0.000793282636038349,0.0039932199186301,-9.91741886242679E-5));
#327=CARTESIAN_POINT('',(-0.000794948564272785,0.00399947101103212,-9.88418047525957E-5));
#328=CARTESIAN_POINT('',(-0.0007980101730222,0.00401106235800287,-9.93206987485209E-5));
#329=CARTESIAN_POINT('',(-0.000801049718369058,0.00402235544232636,-9.78038724099919E-5));
#330=CARTESIAN_POINT('',(-0.000802375980939512,0.00402731999103552,-9.71000125676045E-5));
#331=CARTESIAN_POINT('',(-0.000802375980939511,0.00402731999103551,-9.71000125676054E-5));
#332=CARTESIAN_POINT('',(-0.000793474215256378,0.00399436978719288,9.99669342808558E-5));
#333=CARTESIAN_POINT('',(-0.000989853234387241,0.00395447207119791,0.000102129094528365));
#334=CARTESIAN_POINT('',(-0.000998755000070376,0.00398742227504054,-9.49378523200966E-5));
#335=CARTESIAN_POINT('',(-0.00100765676575351,0.00402037247888316,-0.000292004799168558));
#336=CARTESIAN_POINT('',(-0.00081127774662265,0.00406027019487813,-0.000294166959416066));
#337=CARTESIAN_POINT('',(-0.000802375980939511,0.00402731999103551,-9.71000125676054E-5));
#338=CARTESIAN_POINT('',(-0.000802375980939511,0.00402731999103551,-9.71000125676054E-5));
#339=CARTESIAN_POINT('',(-0.000961219878189948,0.00445668539046516,-1.67927060424558E-5));
#340=CARTESIAN_POINT('',(0.000998853683453174,0.00398818110698593,-9.94496955048382E-5));
#341=CARTESIAN_POINT('',(0.000997188656376083,0.00398197639740456,-0.000100268843923116));
#342=CARTESIAN_POINT('',(0.000994129276427596,0.00397066273586454,-0.000102862275115137));
#343=CARTESIAN_POINT('',(0.000991087792037484,0.00395928140856322,-0.000103439283938307));
#344=CARTESIAN_POINT('',(0.000989760907693509,0.00395427190512628,-0.000103656598541557));
#345=CARTESIAN_POINT('',(0.000998761833545386,0.00402292276402977,-0.000296409104595756));
#346=CARTESIAN_POINT('',(0.000997143528996004,0.00401683600621077,-0.000296607772367925));
#347=CARTESIAN_POINT('',(0.000989651396636137,0.00398912534133555,-0.000302641267692258));
#348=CARTESIAN_POINT('',(0.000982135069685239,0.00396089966051517,-0.000303712010270505));
#349=CARTESIAN_POINT('',(0.000980859142010629,0.00395604260511729,-0.000303451398511404));
#350=CARTESIAN_POINT('',(0.000802184878507585,0.00406129860006108,-0.000289548321881181));
#351=CARTESIAN_POINT('',(0.000800566573958203,0.00405521184224208,-0.00028974698965335));
#352=CARTESIAN_POINT('',(0.000793149183332755,0.00402767728455534,-0.000294654069236738));
#353=CARTESIAN_POINT('',(0.000785756050554361,0.0039998157853677,-0.000294654532420165));
#354=CARTESIAN_POINT('',(0.000784480122879754,0.00399495872996982,-0.000294393920661063));
#355=CARTESIAN_POINT('',(0.000802276728415373,0.00402655694301725,-9.25889127902628E-5));
#356=CARTESIAN_POINT('',(0.000800635062602137,0.00402041120931706,-9.30978208854866E-5));
#357=CARTESIAN_POINT('',(0.000797634029117554,0.00400923981901877,-9.48456431323064E-5));
#358=CARTESIAN_POINT('',(0.000794683294571924,0.0039981213093962,-9.46207692691427E-5));
#359=CARTESIAN_POINT('',(0.000793381888562632,0.0039931880299788,-9.45991206912171E-5));
#360=CARTESIAN_POINT('',(0.000802368578323165,0.00399181528597341,0.000104370496300655));
#361=CARTESIAN_POINT('',(0.000800703551246074,0.00398561057639205,0.000103551347882377));
#362=CARTESIAN_POINT('',(0.000802118874902356,0.00399080235348219,0.000104962782972125));
#363=CARTESIAN_POINT('',(0.000803610538589488,0.00399642683342472,0.000105412993881879));
#364=CARTESIAN_POINT('',(0.000802283654245513,0.00399141732998778,0.000105195679278629));
#365=CARTESIAN_POINT('',(0.000998945533360966,0.0039534394499421,9.75097135860796E-5));
#366=CARTESIAN_POINT('',(0.000997233783756163,0.00394711678859835,9.60700845216925E-5));
#367=CARTESIAN_POINT('',(0.000998607156219055,0.00395220013039356,9.69167174619847E-5));
#368=CARTESIAN_POINT('',(0.00100004051438973,0.00395766315661128,9.68334423938911E-5));
#369=CARTESIAN_POINT('',(0.000998662673376391,0.00395250120513525,9.61382014282894E-5));
#370=CARTESIAN_POINT('',(0.000998853683453174,0.00398818110698593,-9.94496955048382E-5));
#371=CARTESIAN_POINT('',(0.000997188656376083,0.00398197639740456,-0.000100268843923116));
#372=CARTESIAN_POINT('',(0.000994129276427596,0.00397066273586454,-0.000102862275115137));
#373=CARTESIAN_POINT('',(0.000991087792037484,0.00395928140856322,-0.000103439283938307));
#374=CARTESIAN_POINT('',(0.000989760907693509,0.00395427190512628,-0.000103656598541557));
#375=CARTESIAN_POINT('',(0.000989760907693509,0.00395427190512628,-0.000103656598541557));
#376=CARTESIAN_POINT('',(0.000980859142010629,0.00395604260511729,-0.000303451398511404));
#377=CARTESIAN_POINT('',(0.000784480122879754,0.00399495872996982,-0.000294393920661063));
#378=CARTESIAN_POINT('',(0.000793381888562632,0.0039931880299788,-9.45991206912171E-5));
#379=CARTESIAN_POINT('',(0.000802283654245513,0.00399141732998778,0.000105195679278629));
#380=CARTESIAN_POINT('',(0.000998662673376391,0.00395250120513525,9.61382014282894E-5));
#381=CARTESIAN_POINT('',(0.000989760907693509,0.00395427190512628,-0.000103656598541557));
#382=CARTESIAN_POINT('',(0.000989760907693509,0.00395427190512628,-0.000103656598541557));
#383=CARTESIAN_POINT('',(0.000251570656138686,-8.23459843944391E-5,0.0018));
#384=CARTESIAN_POINT('',(0.000788219693764167,0.00319631273924201,-9.91278596163869E-5));
#385=(
GEOMETRIC_REPRESENTATION_CONTEXT(3)
GLOBAL_UNCERTAINTY_ASSIGNED_CONTEXT((#386))
GLOBAL_UNIT_ASSIGNED_CONTEXT((#389,#388,#387))
REPRESENTATION_CONTEXT('id2','TOP_LEVEL_ASSEMBLY_PART')
);
#386=UNCERTAINTY_MEASURE_WITH_UNIT(LENGTH_MEASURE(1.E-8),#389,
'DISTANCE_ACCURACY_VALUE','Maximum Tolerance applied to model');
#387=(
NAMED_UNIT(*)
SI_UNIT($,.STERADIAN.)
SOLID_ANGLE_UNIT()
);
#388=(
NAMED_UNIT(*)
PLANE_ANGLE_UNIT()
SI_UNIT($,.RADIAN.)
);
#389=(
LENGTH_UNIT()
NAMED_UNIT(*)
SI_UNIT($,.METRE.)
);
#390=PRODUCT_DEFINITION_SHAPE('','',#391);
#391=PRODUCT_DEFINITION('','',#393,#392);
#392=DESIGN_CONTEXT('',#399,'design');
#393=PRODUCT_DEFINITION_FORMATION_WITH_SPECIFIED_SOURCE('','',#395,
 .NOT_KNOWN.);
#394=PRODUCT_RELATED_PRODUCT_CATEGORY('','',(#395));
#395=PRODUCT('id2','id2','id2',(#397));
#396=PRODUCT_CATEGORY('','');
#397=MECHANICAL_CONTEXT('',#399,'mechanical');
#398=APPLICATION_PROTOCOL_DEFINITION('international standard',
'config_control_design',2010,#399);
#399=APPLICATION_CONTEXT(
'configuration controlled 3D designs of mechanical parts and assemblie
s');
ENDSEC;
END-ISO-10303-21;
