ISO-10303-21;
HEADER;
/* Generated by software containing ST-Developer
 * from STEP Tools, Inc. (www.steptools.com) 
 */
/* OPTION: using custom renumber hook */

FILE_DESCRIPTION(
/* description */ ('STEP AP203'),
/* implementation_level */ '2;1');

FILE_NAME(
/* name */ '6a545b5f880ffe4da20ea330',
/* time_stamp */ '2026-07-13T03:28:31Z',
/* author */ (''),
/* organization */ (''),
/* preprocessor_version */ 'ST-DEVELOPER v20',
/* originating_system */ 'ONSHAPE BY PTC INC, 1.217',
/* authorisation */ '  ');

FILE_SCHEMA (('CONFIG_CONTROL_DESIGN'));
ENDSEC;

DATA;
#10=PROPERTY_DEFINITION_REPRESENTATION(#14,#12);
#11=PROPERTY_DEFINITION_REPRESENTATION(#15,#13);
#12=REPRESENTATION('',(#16),#1700);
#13=REPRESENTATION('',(#17),#1700);
#14=PROPERTY_DEFINITION('pmi validation property','',#1705);
#15=PROPERTY_DEFINITION('pmi validation property','',#1705);
#16=VALUE_REPRESENTATION_ITEM('number of annotations',COUNT_MEASURE(0.));
#17=VALUE_REPRESENTATION_ITEM('number of views',COUNT_MEASURE(0.));
#18=SHAPE_REPRESENTATION_RELATIONSHIP('','',#1042,#19);
#19=ADVANCED_BREP_SHAPE_REPRESENTATION('',(#1040),#1700);
#20=CYLINDRICAL_SURFACE('',#1057,0.000735);
#21=CYLINDRICAL_SURFACE('',#1060,0.000245);
#22=CYLINDRICAL_SURFACE('',#1089,0.000245);
#23=CYLINDRICAL_SURFACE('',#1091,0.000735);
#24=CYLINDRICAL_SURFACE('',#1096,0.0002);
#25=CYLINDRICAL_SURFACE('',#1098,0.00024142135623731);
#26=CYLINDRICAL_SURFACE('',#1104,0.00024142135623731);
#27=CYLINDRICAL_SURFACE('',#1109,0.0002);
#28=CYLINDRICAL_SURFACE('',#1116,0.0004);
#29=CYLINDRICAL_SURFACE('',#1117,0.0004);
#30=CYLINDRICAL_SURFACE('',#1118,0.00025);
#31=CYLINDRICAL_SURFACE('',#1123,0.0001);
#32=CYLINDRICAL_SURFACE('',#1124,0.0001);
#33=CIRCLE('',#1047,0.0001);
#34=CIRCLE('',#1048,0.00024142135623731);
#35=CIRCLE('',#1049,0.00024142135623731);
#36=CIRCLE('',#1050,0.0001);
#37=CIRCLE('',#1051,0.0002);
#38=CIRCLE('',#1052,0.0002);
#39=CIRCLE('',#1053,0.0004);
#40=CIRCLE('',#1054,0.0004);
#41=CIRCLE('',#1058,0.000735);
#42=CIRCLE('',#1059,0.000735);
#43=CIRCLE('',#1061,0.000245);
#44=CIRCLE('',#1062,0.000245);
#45=CIRCLE('',#1065,0.0001);
#46=CIRCLE('',#1066,0.0002);
#47=CIRCLE('',#1067,0.0002);
#48=CIRCLE('',#1068,0.0001);
#49=CIRCLE('',#1069,0.00024142135623731);
#50=CIRCLE('',#1070,0.00024142135623731);
#51=CIRCLE('',#1071,0.0004);
#52=CIRCLE('',#1072,0.0004);
#53=CIRCLE('',#1078,0.00025);
#54=CIRCLE('',#1082,0.000735);
#55=CIRCLE('',#1083,0.000245);
#56=CIRCLE('',#1086,0.000735);
#57=CIRCLE('',#1087,0.000245);
#58=CIRCLE('',#1119,0.00025);
#59=ORIENTED_EDGE('',*,*,#347,.F.);
#60=ORIENTED_EDGE('',*,*,#348,.F.);
#61=ORIENTED_EDGE('',*,*,#349,.F.);
#62=ORIENTED_EDGE('',*,*,#350,.T.);
#63=ORIENTED_EDGE('',*,*,#351,.T.);
#64=ORIENTED_EDGE('',*,*,#349,.T.);
#65=ORIENTED_EDGE('',*,*,#352,.F.);
#66=ORIENTED_EDGE('',*,*,#353,.F.);
#67=ORIENTED_EDGE('',*,*,#354,.T.);
#68=ORIENTED_EDGE('',*,*,#355,.F.);
#69=ORIENTED_EDGE('',*,*,#356,.T.);
#70=ORIENTED_EDGE('',*,*,#357,.T.);
#71=ORIENTED_EDGE('',*,*,#358,.T.);
#72=ORIENTED_EDGE('',*,*,#359,.F.);
#73=ORIENTED_EDGE('',*,*,#360,.T.);
#74=ORIENTED_EDGE('',*,*,#361,.T.);
#75=ORIENTED_EDGE('',*,*,#362,.F.);
#76=ORIENTED_EDGE('',*,*,#363,.F.);
#77=ORIENTED_EDGE('',*,*,#364,.T.);
#78=ORIENTED_EDGE('',*,*,#365,.F.);
#79=ORIENTED_EDGE('',*,*,#366,.T.);
#80=ORIENTED_EDGE('',*,*,#367,.T.);
#81=ORIENTED_EDGE('',*,*,#368,.F.);
#82=ORIENTED_EDGE('',*,*,#369,.F.);
#83=ORIENTED_EDGE('',*,*,#370,.T.);
#84=ORIENTED_EDGE('',*,*,#371,.T.);
#85=ORIENTED_EDGE('',*,*,#372,.F.);
#86=ORIENTED_EDGE('',*,*,#373,.F.);
#87=ORIENTED_EDGE('',*,*,#374,.T.);
#88=ORIENTED_EDGE('',*,*,#375,.F.);
#89=ORIENTED_EDGE('',*,*,#376,.F.);
#90=ORIENTED_EDGE('',*,*,#377,.T.);
#91=ORIENTED_EDGE('',*,*,#378,.F.);
#92=ORIENTED_EDGE('',*,*,#379,.F.);
#93=ORIENTED_EDGE('',*,*,#380,.F.);
#94=ORIENTED_EDGE('',*,*,#381,.F.);
#95=ORIENTED_EDGE('',*,*,#382,.T.);
#96=ORIENTED_EDGE('',*,*,#383,.T.);
#97=ORIENTED_EDGE('',*,*,#384,.T.);
#98=ORIENTED_EDGE('',*,*,#385,.F.);
#99=ORIENTED_EDGE('',*,*,#386,.F.);
#100=ORIENTED_EDGE('',*,*,#387,.F.);
#101=ORIENTED_EDGE('',*,*,#388,.T.);
#102=ORIENTED_EDGE('',*,*,#389,.F.);
#103=ORIENTED_EDGE('',*,*,#390,.F.);
#104=ORIENTED_EDGE('',*,*,#350,.F.);
#105=ORIENTED_EDGE('',*,*,#351,.F.);
#106=ORIENTED_EDGE('',*,*,#391,.T.);
#107=ORIENTED_EDGE('',*,*,#392,.T.);
#108=ORIENTED_EDGE('',*,*,#393,.T.);
#109=ORIENTED_EDGE('',*,*,#394,.T.);
#110=ORIENTED_EDGE('',*,*,#395,.F.);
#111=ORIENTED_EDGE('',*,*,#396,.F.);
#112=ORIENTED_EDGE('',*,*,#397,.F.);
#113=ORIENTED_EDGE('',*,*,#353,.T.);
#114=ORIENTED_EDGE('',*,*,#398,.F.);
#115=ORIENTED_EDGE('',*,*,#399,.F.);
#116=ORIENTED_EDGE('',*,*,#391,.F.);
#117=ORIENTED_EDGE('',*,*,#400,.F.);
#118=ORIENTED_EDGE('',*,*,#401,.T.);
#119=ORIENTED_EDGE('',*,*,#397,.T.);
#120=ORIENTED_EDGE('',*,*,#402,.F.);
#121=ORIENTED_EDGE('',*,*,#403,.F.);
#122=ORIENTED_EDGE('',*,*,#404,.T.);
#123=ORIENTED_EDGE('',*,*,#388,.F.);
#124=ORIENTED_EDGE('',*,*,#405,.F.);
#125=ORIENTED_EDGE('',*,*,#395,.T.);
#126=ORIENTED_EDGE('',*,*,#406,.T.);
#127=ORIENTED_EDGE('',*,*,#407,.F.);
#128=ORIENTED_EDGE('',*,*,#408,.T.);
#129=ORIENTED_EDGE('',*,*,#409,.T.);
#130=ORIENTED_EDGE('',*,*,#410,.F.);
#131=ORIENTED_EDGE('',*,*,#411,.F.);
#132=ORIENTED_EDGE('',*,*,#412,.F.);
#133=ORIENTED_EDGE('',*,*,#413,.T.);
#134=ORIENTED_EDGE('',*,*,#414,.T.);
#135=ORIENTED_EDGE('',*,*,#415,.T.);
#136=ORIENTED_EDGE('',*,*,#416,.T.);
#137=ORIENTED_EDGE('',*,*,#417,.F.);
#138=ORIENTED_EDGE('',*,*,#418,.T.);
#139=ORIENTED_EDGE('',*,*,#419,.T.);
#140=ORIENTED_EDGE('',*,*,#420,.F.);
#141=ORIENTED_EDGE('',*,*,#421,.T.);
#142=ORIENTED_EDGE('',*,*,#422,.T.);
#143=ORIENTED_EDGE('',*,*,#423,.F.);
#144=ORIENTED_EDGE('',*,*,#424,.T.);
#145=ORIENTED_EDGE('',*,*,#425,.T.);
#146=ORIENTED_EDGE('',*,*,#426,.T.);
#147=ORIENTED_EDGE('',*,*,#427,.F.);
#148=ORIENTED_EDGE('',*,*,#428,.F.);
#149=ORIENTED_EDGE('',*,*,#429,.T.);
#150=ORIENTED_EDGE('',*,*,#430,.F.);
#151=ORIENTED_EDGE('',*,*,#431,.T.);
#152=ORIENTED_EDGE('',*,*,#432,.T.);
#153=ORIENTED_EDGE('',*,*,#433,.F.);
#154=ORIENTED_EDGE('',*,*,#434,.F.);
#155=ORIENTED_EDGE('',*,*,#435,.T.);
#156=ORIENTED_EDGE('',*,*,#436,.F.);
#157=ORIENTED_EDGE('',*,*,#437,.F.);
#158=ORIENTED_EDGE('',*,*,#438,.F.);
#159=ORIENTED_EDGE('',*,*,#420,.T.);
#160=ORIENTED_EDGE('',*,*,#439,.F.);
#161=ORIENTED_EDGE('',*,*,#374,.F.);
#162=ORIENTED_EDGE('',*,*,#440,.T.);
#163=ORIENTED_EDGE('',*,*,#382,.F.);
#164=ORIENTED_EDGE('',*,*,#441,.T.);
#165=ORIENTED_EDGE('',*,*,#412,.T.);
#166=ORIENTED_EDGE('',*,*,#442,.F.);
#167=ORIENTED_EDGE('',*,*,#415,.F.);
#168=ORIENTED_EDGE('',*,*,#443,.F.);
#169=ORIENTED_EDGE('',*,*,#379,.T.);
#170=ORIENTED_EDGE('',*,*,#444,.F.);
#171=ORIENTED_EDGE('',*,*,#445,.F.);
#172=ORIENTED_EDGE('',*,*,#430,.T.);
#173=ORIENTED_EDGE('',*,*,#446,.F.);
#174=ORIENTED_EDGE('',*,*,#364,.F.);
#175=ORIENTED_EDGE('',*,*,#447,.F.);
#176=ORIENTED_EDGE('',*,*,#347,.T.);
#177=ORIENTED_EDGE('',*,*,#390,.T.);
#178=ORIENTED_EDGE('',*,*,#448,.F.);
#179=ORIENTED_EDGE('',*,*,#393,.F.);
#180=ORIENTED_EDGE('',*,*,#354,.F.);
#181=ORIENTED_EDGE('',*,*,#404,.F.);
#182=ORIENTED_EDGE('',*,*,#449,.T.);
#183=ORIENTED_EDGE('',*,*,#400,.T.);
#184=ORIENTED_EDGE('',*,*,#449,.F.);
#185=ORIENTED_EDGE('',*,*,#450,.F.);
#186=ORIENTED_EDGE('',*,*,#451,.T.);
#187=ORIENTED_EDGE('',*,*,#452,.T.);
#188=ORIENTED_EDGE('',*,*,#451,.F.);
#189=ORIENTED_EDGE('',*,*,#453,.F.);
#190=ORIENTED_EDGE('',*,*,#444,.T.);
#191=ORIENTED_EDGE('',*,*,#454,.T.);
#192=ORIENTED_EDGE('',*,*,#377,.F.);
#193=ORIENTED_EDGE('',*,*,#455,.T.);
#194=ORIENTED_EDGE('',*,*,#417,.T.);
#195=ORIENTED_EDGE('',*,*,#456,.T.);
#196=ORIENTED_EDGE('',*,*,#456,.F.);
#197=ORIENTED_EDGE('',*,*,#457,.T.);
#198=ORIENTED_EDGE('',*,*,#458,.T.);
#199=ORIENTED_EDGE('',*,*,#459,.F.);
#200=ORIENTED_EDGE('',*,*,#460,.F.);
#201=ORIENTED_EDGE('',*,*,#461,.F.);
#202=ORIENTED_EDGE('',*,*,#458,.F.);
#203=ORIENTED_EDGE('',*,*,#462,.T.);
#204=ORIENTED_EDGE('',*,*,#459,.T.);
#205=ORIENTED_EDGE('',*,*,#463,.F.);
#206=ORIENTED_EDGE('',*,*,#454,.F.);
#207=ORIENTED_EDGE('',*,*,#378,.T.);
#208=ORIENTED_EDGE('',*,*,#461,.T.);
#209=ORIENTED_EDGE('',*,*,#464,.F.);
#210=ORIENTED_EDGE('',*,*,#465,.F.);
#211=ORIENTED_EDGE('',*,*,#401,.F.);
#212=ORIENTED_EDGE('',*,*,#452,.F.);
#213=ORIENTED_EDGE('',*,*,#463,.T.);
#214=ORIENTED_EDGE('',*,*,#457,.F.);
#215=ORIENTED_EDGE('',*,*,#416,.F.);
#216=ORIENTED_EDGE('',*,*,#453,.T.);
#217=ORIENTED_EDGE('',*,*,#466,.T.);
#218=ORIENTED_EDGE('',*,*,#467,.T.);
#219=ORIENTED_EDGE('',*,*,#462,.F.);
#220=ORIENTED_EDGE('',*,*,#466,.F.);
#221=ORIENTED_EDGE('',*,*,#450,.T.);
#222=ORIENTED_EDGE('',*,*,#403,.T.);
#223=ORIENTED_EDGE('',*,*,#468,.F.);
#224=ORIENTED_EDGE('',*,*,#389,.T.);
#225=ORIENTED_EDGE('',*,*,#406,.F.);
#226=ORIENTED_EDGE('',*,*,#394,.F.);
#227=ORIENTED_EDGE('',*,*,#448,.T.);
#228=ORIENTED_EDGE('',*,*,#371,.F.);
#229=ORIENTED_EDGE('',*,*,#469,.T.);
#230=ORIENTED_EDGE('',*,*,#423,.T.);
#231=ORIENTED_EDGE('',*,*,#470,.F.);
#232=ORIENTED_EDGE('',*,*,#440,.F.);
#233=ORIENTED_EDGE('',*,*,#373,.T.);
#234=ORIENTED_EDGE('',*,*,#471,.T.);
#235=ORIENTED_EDGE('',*,*,#421,.F.);
#236=ORIENTED_EDGE('',*,*,#372,.T.);
#237=ORIENTED_EDGE('',*,*,#470,.T.);
#238=ORIENTED_EDGE('',*,*,#422,.F.);
#239=ORIENTED_EDGE('',*,*,#471,.F.);
#240=ORIENTED_EDGE('',*,*,#425,.F.);
#241=ORIENTED_EDGE('',*,*,#472,.T.);
#242=ORIENTED_EDGE('',*,*,#369,.T.);
#243=ORIENTED_EDGE('',*,*,#473,.T.);
#244=ORIENTED_EDGE('',*,*,#473,.F.);
#245=ORIENTED_EDGE('',*,*,#368,.T.);
#246=ORIENTED_EDGE('',*,*,#474,.T.);
#247=ORIENTED_EDGE('',*,*,#426,.F.);
#248=ORIENTED_EDGE('',*,*,#474,.F.);
#249=ORIENTED_EDGE('',*,*,#367,.F.);
#250=ORIENTED_EDGE('',*,*,#475,.T.);
#251=ORIENTED_EDGE('',*,*,#427,.T.);
#252=ORIENTED_EDGE('',*,*,#475,.F.);
#253=ORIENTED_EDGE('',*,*,#366,.F.);
#254=ORIENTED_EDGE('',*,*,#476,.T.);
#255=ORIENTED_EDGE('',*,*,#428,.T.);
#256=ORIENTED_EDGE('',*,*,#476,.F.);
#257=ORIENTED_EDGE('',*,*,#365,.T.);
#258=ORIENTED_EDGE('',*,*,#446,.T.);
#259=ORIENTED_EDGE('',*,*,#429,.F.);
#260=ORIENTED_EDGE('',*,*,#477,.F.);
#261=ORIENTED_EDGE('',*,*,#360,.F.);
#262=ORIENTED_EDGE('',*,*,#478,.T.);
#263=ORIENTED_EDGE('',*,*,#434,.T.);
#264=ORIENTED_EDGE('',*,*,#478,.F.);
#265=ORIENTED_EDGE('',*,*,#359,.T.);
#266=ORIENTED_EDGE('',*,*,#479,.T.);
#267=ORIENTED_EDGE('',*,*,#435,.F.);
#268=ORIENTED_EDGE('',*,*,#479,.F.);
#269=ORIENTED_EDGE('',*,*,#358,.F.);
#270=ORIENTED_EDGE('',*,*,#480,.T.);
#271=ORIENTED_EDGE('',*,*,#436,.T.);
#272=ORIENTED_EDGE('',*,*,#357,.F.);
#273=ORIENTED_EDGE('',*,*,#481,.T.);
#274=ORIENTED_EDGE('',*,*,#407,.T.);
#275=ORIENTED_EDGE('',*,*,#480,.F.);
#276=ORIENTED_EDGE('',*,*,#482,.T.);
#277=ORIENTED_EDGE('',*,*,#361,.F.);
#278=ORIENTED_EDGE('',*,*,#477,.T.);
#279=ORIENTED_EDGE('',*,*,#433,.T.);
#280=ORIENTED_EDGE('',*,*,#483,.F.);
#281=ORIENTED_EDGE('',*,*,#383,.F.);
#282=ORIENTED_EDGE('',*,*,#442,.T.);
#283=ORIENTED_EDGE('',*,*,#411,.T.);
#284=ORIENTED_EDGE('',*,*,#409,.F.);
#285=ORIENTED_EDGE('',*,*,#484,.T.);
#286=ORIENTED_EDGE('',*,*,#355,.T.);
#287=ORIENTED_EDGE('',*,*,#485,.T.);
#288=ORIENTED_EDGE('',*,*,#384,.F.);
#289=ORIENTED_EDGE('',*,*,#483,.T.);
#290=ORIENTED_EDGE('',*,*,#410,.T.);
#291=ORIENTED_EDGE('',*,*,#485,.F.);
#292=ORIENTED_EDGE('',*,*,#441,.F.);
#293=ORIENTED_EDGE('',*,*,#381,.T.);
#294=ORIENTED_EDGE('',*,*,#486,.T.);
#295=ORIENTED_EDGE('',*,*,#413,.F.);
#296=ORIENTED_EDGE('',*,*,#486,.F.);
#297=ORIENTED_EDGE('',*,*,#380,.T.);
#298=ORIENTED_EDGE('',*,*,#443,.T.);
#299=ORIENTED_EDGE('',*,*,#414,.F.);
#300=ORIENTED_EDGE('',*,*,#487,.F.);
#301=ORIENTED_EDGE('',*,*,#375,.T.);
#302=ORIENTED_EDGE('',*,*,#439,.T.);
#303=ORIENTED_EDGE('',*,*,#419,.F.);
#304=ORIENTED_EDGE('',*,*,#376,.T.);
#305=ORIENTED_EDGE('',*,*,#487,.T.);
#306=ORIENTED_EDGE('',*,*,#418,.F.);
#307=ORIENTED_EDGE('',*,*,#455,.F.);
#308=ORIENTED_EDGE('',*,*,#460,.T.);
#309=ORIENTED_EDGE('',*,*,#467,.F.);
#310=ORIENTED_EDGE('',*,*,#488,.F.);
#311=ORIENTED_EDGE('',*,*,#464,.T.);
#312=ORIENTED_EDGE('',*,*,#396,.T.);
#313=ORIENTED_EDGE('',*,*,#405,.T.);
#314=ORIENTED_EDGE('',*,*,#387,.T.);
#315=ORIENTED_EDGE('',*,*,#399,.T.);
#316=ORIENTED_EDGE('',*,*,#465,.T.);
#317=ORIENTED_EDGE('',*,*,#488,.T.);
#318=ORIENTED_EDGE('',*,*,#468,.T.);
#319=ORIENTED_EDGE('',*,*,#402,.T.);
#320=ORIENTED_EDGE('',*,*,#385,.T.);
#321=ORIENTED_EDGE('',*,*,#438,.T.);
#322=ORIENTED_EDGE('',*,*,#386,.T.);
#323=ORIENTED_EDGE('',*,*,#437,.T.);
#324=ORIENTED_EDGE('',*,*,#447,.T.);
#325=ORIENTED_EDGE('',*,*,#392,.F.);
#326=ORIENTED_EDGE('',*,*,#489,.F.);
#327=ORIENTED_EDGE('',*,*,#348,.T.);
#328=ORIENTED_EDGE('',*,*,#398,.T.);
#329=ORIENTED_EDGE('',*,*,#352,.T.);
#330=ORIENTED_EDGE('',*,*,#489,.T.);
#331=ORIENTED_EDGE('',*,*,#362,.T.);
#332=ORIENTED_EDGE('',*,*,#482,.F.);
#333=ORIENTED_EDGE('',*,*,#432,.F.);
#334=ORIENTED_EDGE('',*,*,#490,.T.);
#335=ORIENTED_EDGE('',*,*,#363,.T.);
#336=ORIENTED_EDGE('',*,*,#490,.F.);
#337=ORIENTED_EDGE('',*,*,#431,.F.);
#338=ORIENTED_EDGE('',*,*,#445,.T.);
#339=ORIENTED_EDGE('',*,*,#356,.F.);
#340=ORIENTED_EDGE('',*,*,#484,.F.);
#341=ORIENTED_EDGE('',*,*,#408,.F.);
#342=ORIENTED_EDGE('',*,*,#481,.F.);
#343=ORIENTED_EDGE('',*,*,#370,.F.);
#344=ORIENTED_EDGE('',*,*,#472,.F.);
#345=ORIENTED_EDGE('',*,*,#424,.F.);
#346=ORIENTED_EDGE('',*,*,#469,.F.);
#347=EDGE_CURVE('',#491,#492,#584,.T.);
#348=EDGE_CURVE('',#493,#491,#585,.T.);
#349=EDGE_CURVE('',#494,#493,#586,.T.);
#350=EDGE_CURVE('',#494,#492,#587,.T.);
#351=EDGE_CURVE('',#495,#494,#588,.T.);
#352=EDGE_CURVE('',#496,#493,#589,.T.);
#353=EDGE_CURVE('',#497,#496,#590,.F.);
#354=EDGE_CURVE('',#497,#495,#591,.T.);
#355=EDGE_CURVE('',#498,#499,#592,.T.);
#356=EDGE_CURVE('',#498,#500,#33,.F.);
#357=EDGE_CURVE('',#500,#501,#593,.T.);
#358=EDGE_CURVE('',#501,#502,#34,.F.);
#359=EDGE_CURVE('',#503,#502,#594,.T.);
#360=EDGE_CURVE('',#503,#504,#595,.T.);
#361=EDGE_CURVE('',#504,#505,#596,.T.);
#362=EDGE_CURVE('',#506,#505,#597,.T.);
#363=EDGE_CURVE('',#507,#506,#598,.T.);
#364=EDGE_CURVE('',#507,#508,#599,.T.);
#365=EDGE_CURVE('',#509,#508,#600,.T.);
#366=EDGE_CURVE('',#509,#510,#601,.T.);
#367=EDGE_CURVE('',#510,#511,#602,.T.);
#368=EDGE_CURVE('',#512,#511,#35,.T.);
#369=EDGE_CURVE('',#513,#512,#603,.T.);
#370=EDGE_CURVE('',#513,#514,#36,.F.);
#371=EDGE_CURVE('',#514,#515,#604,.T.);
#372=EDGE_CURVE('',#516,#515,#37,.T.);
#373=EDGE_CURVE('',#517,#516,#605,.T.);
#374=EDGE_CURVE('',#517,#518,#606,.T.);
#375=EDGE_CURVE('',#519,#518,#607,.T.);
#376=EDGE_CURVE('',#520,#519,#608,.T.);
#377=EDGE_CURVE('',#520,#521,#609,.T.);
#378=EDGE_CURVE('',#522,#521,#610,.T.);
#379=EDGE_CURVE('',#523,#522,#611,.T.);
#380=EDGE_CURVE('',#524,#523,#612,.T.);
#381=EDGE_CURVE('',#525,#524,#613,.T.);
#382=EDGE_CURVE('',#525,#526,#614,.T.);
#383=EDGE_CURVE('',#526,#527,#615,.T.);
#384=EDGE_CURVE('',#527,#499,#38,.F.);
#385=EDGE_CURVE('',#528,#528,#39,.T.);
#386=EDGE_CURVE('',#529,#529,#40,.T.);
#387=EDGE_CURVE('',#530,#531,#616,.T.);
#388=EDGE_CURVE('',#530,#532,#617,.T.);
#389=EDGE_CURVE('',#533,#532,#618,.T.);
#390=EDGE_CURVE('',#492,#533,#619,.T.);
#391=EDGE_CURVE('',#495,#531,#620,.T.);
#392=EDGE_CURVE('',#534,#535,#621,.T.);
#393=EDGE_CURVE('',#535,#536,#622,.F.);
#394=EDGE_CURVE('',#536,#537,#623,.T.);
#395=EDGE_CURVE('',#538,#537,#624,.T.);
#396=EDGE_CURVE('',#539,#538,#625,.T.);
#397=EDGE_CURVE('',#497,#539,#626,.F.);
#398=EDGE_CURVE('',#534,#496,#627,.T.);
#399=EDGE_CURVE('',#531,#540,#41,.T.);
#400=EDGE_CURVE('',#541,#495,#42,.T.);
#401=EDGE_CURVE('',#541,#540,#628,.T.);
#402=EDGE_CURVE('',#542,#539,#43,.T.);
#403=EDGE_CURVE('',#543,#542,#629,.T.);
#404=EDGE_CURVE('',#543,#497,#44,.F.);
#405=EDGE_CURVE('',#538,#530,#630,.T.);
#406=EDGE_CURVE('',#537,#532,#631,.T.);
#407=EDGE_CURVE('',#544,#545,#632,.T.);
#408=EDGE_CURVE('',#544,#546,#45,.T.);
#409=EDGE_CURVE('',#546,#547,#633,.T.);
#410=EDGE_CURVE('',#548,#547,#46,.F.);
#411=EDGE_CURVE('',#549,#548,#634,.T.);
#412=EDGE_CURVE('',#550,#549,#635,.F.);
#413=EDGE_CURVE('',#550,#551,#636,.T.);
#414=EDGE_CURVE('',#551,#552,#637,.T.);
#415=EDGE_CURVE('',#552,#553,#638,.T.);
#416=EDGE_CURVE('',#553,#554,#639,.T.);
#417=EDGE_CURVE('',#555,#554,#640,.T.);
#418=EDGE_CURVE('',#555,#556,#641,.F.);
#419=EDGE_CURVE('',#556,#557,#642,.T.);
#420=EDGE_CURVE('',#558,#557,#643,.T.);
#421=EDGE_CURVE('',#558,#559,#644,.T.);
#422=EDGE_CURVE('',#559,#560,#47,.T.);
#423=EDGE_CURVE('',#561,#560,#645,.T.);
#424=EDGE_CURVE('',#561,#562,#48,.T.);
#425=EDGE_CURVE('',#562,#563,#646,.T.);
#426=EDGE_CURVE('',#563,#564,#49,.T.);
#427=EDGE_CURVE('',#565,#564,#647,.T.);
#428=EDGE_CURVE('',#566,#565,#648,.F.);
#429=EDGE_CURVE('',#566,#567,#649,.F.);
#430=EDGE_CURVE('',#568,#567,#650,.T.);
#431=EDGE_CURVE('',#568,#569,#651,.T.);
#432=EDGE_CURVE('',#569,#570,#652,.T.);
#433=EDGE_CURVE('',#571,#570,#653,.F.);
#434=EDGE_CURVE('',#572,#571,#654,.F.);
#435=EDGE_CURVE('',#572,#573,#655,.T.);
#436=EDGE_CURVE('',#545,#573,#50,.F.);
#437=EDGE_CURVE('',#574,#574,#51,.T.);
#438=EDGE_CURVE('',#575,#575,#52,.T.);
#439=EDGE_CURVE('',#518,#557,#656,.F.);
#440=EDGE_CURVE('',#517,#558,#657,.F.);
#441=EDGE_CURVE('',#525,#550,#658,.F.);
#442=EDGE_CURVE('',#526,#549,#659,.F.);
#443=EDGE_CURVE('',#523,#552,#660,.F.);
#444=EDGE_CURVE('',#553,#522,#661,.T.);
#445=EDGE_CURVE('',#568,#507,#662,.T.);
#446=EDGE_CURVE('',#508,#567,#663,.F.);
#447=EDGE_CURVE('',#491,#535,#53,.T.);
#448=EDGE_CURVE('',#536,#533,#664,.T.);
#449=EDGE_CURVE('',#543,#541,#665,.T.);
#450=EDGE_CURVE('',#576,#543,#666,.F.);
#451=EDGE_CURVE('',#576,#577,#667,.T.);
#452=EDGE_CURVE('',#577,#541,#668,.T.);
#453=EDGE_CURVE('',#553,#576,#54,.T.);
#454=EDGE_CURVE('',#522,#577,#55,.F.);
#455=EDGE_CURVE('',#520,#555,#669,.F.);
#456=EDGE_CURVE('',#554,#521,#670,.T.);
#457=EDGE_CURVE('',#554,#578,#56,.T.);
#458=EDGE_CURVE('',#578,#579,#671,.T.);
#459=EDGE_CURVE('',#521,#579,#57,.F.);
#460=EDGE_CURVE('',#580,#581,#672,.T.);
#461=EDGE_CURVE('',#579,#580,#673,.T.);
#462=EDGE_CURVE('',#578,#581,#674,.F.);
#463=EDGE_CURVE('',#577,#579,#675,.T.);
#464=EDGE_CURVE('',#582,#580,#676,.T.);
#465=EDGE_CURVE('',#540,#582,#677,.T.);
#466=EDGE_CURVE('',#576,#578,#678,.F.);
#467=EDGE_CURVE('',#583,#581,#679,.T.);
#468=EDGE_CURVE('',#583,#542,#680,.T.);
#469=EDGE_CURVE('',#514,#561,#681,.T.);
#470=EDGE_CURVE('',#515,#560,#682,.F.);
#471=EDGE_CURVE('',#516,#559,#683,.F.);
#472=EDGE_CURVE('',#562,#513,#684,.T.);
#473=EDGE_CURVE('',#512,#563,#685,.F.);
#474=EDGE_CURVE('',#511,#564,#686,.F.);
#475=EDGE_CURVE('',#510,#565,#687,.F.);
#476=EDGE_CURVE('',#509,#566,#688,.F.);
#477=EDGE_CURVE('',#504,#571,#689,.F.);
#478=EDGE_CURVE('',#503,#572,#690,.F.);
#479=EDGE_CURVE('',#502,#573,#691,.F.);
#480=EDGE_CURVE('',#501,#545,#692,.F.);
#481=EDGE_CURVE('',#500,#544,#693,.T.);
#482=EDGE_CURVE('',#570,#505,#694,.T.);
#483=EDGE_CURVE('',#527,#548,#695,.F.);
#484=EDGE_CURVE('',#546,#498,#696,.T.);
#485=EDGE_CURVE('',#499,#547,#697,.F.);
#486=EDGE_CURVE('',#524,#551,#698,.F.);
#487=EDGE_CURVE('',#519,#556,#699,.F.);
#488=EDGE_CURVE('',#582,#583,#700,.T.);
#489=EDGE_CURVE('',#493,#534,#58,.T.);
#490=EDGE_CURVE('',#569,#506,#701,.T.);
#491=VERTEX_POINT('',#1410);
#492=VERTEX_POINT('',#1411);
#493=VERTEX_POINT('',#1413);
#494=VERTEX_POINT('',#1415);
#495=VERTEX_POINT('',#1419);
#496=VERTEX_POINT('',#1421);
#497=VERTEX_POINT('',#1423);
#498=VERTEX_POINT('',#1427);
#499=VERTEX_POINT('',#1428);
#500=VERTEX_POINT('',#1430);
#501=VERTEX_POINT('',#1432);
#502=VERTEX_POINT('',#1434);
#503=VERTEX_POINT('',#1436);
#504=VERTEX_POINT('',#1438);
#505=VERTEX_POINT('',#1440);
#506=VERTEX_POINT('',#1442);
#507=VERTEX_POINT('',#1444);
#508=VERTEX_POINT('',#1446);
#509=VERTEX_POINT('',#1448);
#510=VERTEX_POINT('',#1450);
#511=VERTEX_POINT('',#1452);
#512=VERTEX_POINT('',#1454);
#513=VERTEX_POINT('',#1456);
#514=VERTEX_POINT('',#1458);
#515=VERTEX_POINT('',#1460);
#516=VERTEX_POINT('',#1462);
#517=VERTEX_POINT('',#1464);
#518=VERTEX_POINT('',#1466);
#519=VERTEX_POINT('',#1468);
#520=VERTEX_POINT('',#1470);
#521=VERTEX_POINT('',#1472);
#522=VERTEX_POINT('',#1474);
#523=VERTEX_POINT('',#1476);
#524=VERTEX_POINT('',#1478);
#525=VERTEX_POINT('',#1480);
#526=VERTEX_POINT('',#1482);
#527=VERTEX_POINT('',#1484);
#528=VERTEX_POINT('',#1487);
#529=VERTEX_POINT('',#1489);
#530=VERTEX_POINT('',#1492);
#531=VERTEX_POINT('',#1493);
#532=VERTEX_POINT('',#1495);
#533=VERTEX_POINT('',#1497);
#534=VERTEX_POINT('',#1502);
#535=VERTEX_POINT('',#1503);
#536=VERTEX_POINT('',#1505);
#537=VERTEX_POINT('',#1507);
#538=VERTEX_POINT('',#1509);
#539=VERTEX_POINT('',#1511);
#540=VERTEX_POINT('',#1516);
#541=VERTEX_POINT('',#1518);
#542=VERTEX_POINT('',#1522);
#543=VERTEX_POINT('',#1524);
#544=VERTEX_POINT('',#1531);
#545=VERTEX_POINT('',#1532);
#546=VERTEX_POINT('',#1534);
#547=VERTEX_POINT('',#1536);
#548=VERTEX_POINT('',#1538);
#549=VERTEX_POINT('',#1540);
#550=VERTEX_POINT('',#1542);
#551=VERTEX_POINT('',#1544);
#552=VERTEX_POINT('',#1546);
#553=VERTEX_POINT('',#1548);
#554=VERTEX_POINT('',#1550);
#555=VERTEX_POINT('',#1552);
#556=VERTEX_POINT('',#1554);
#557=VERTEX_POINT('',#1556);
#558=VERTEX_POINT('',#1558);
#559=VERTEX_POINT('',#1560);
#560=VERTEX_POINT('',#1562);
#561=VERTEX_POINT('',#1564);
#562=VERTEX_POINT('',#1566);
#563=VERTEX_POINT('',#1568);
#564=VERTEX_POINT('',#1570);
#565=VERTEX_POINT('',#1572);
#566=VERTEX_POINT('',#1574);
#567=VERTEX_POINT('',#1576);
#568=VERTEX_POINT('',#1578);
#569=VERTEX_POINT('',#1580);
#570=VERTEX_POINT('',#1582);
#571=VERTEX_POINT('',#1584);
#572=VERTEX_POINT('',#1586);
#573=VERTEX_POINT('',#1588);
#574=VERTEX_POINT('',#1591);
#575=VERTEX_POINT('',#1593);
#576=VERTEX_POINT('',#1613);
#577=VERTEX_POINT('',#1615);
#578=VERTEX_POINT('',#1625);
#579=VERTEX_POINT('',#1627);
#580=VERTEX_POINT('',#1631);
#581=VERTEX_POINT('',#1632);
#582=VERTEX_POINT('',#1639);
#583=VERTEX_POINT('',#1645);
#584=LINE('',#1409,#702);
#585=LINE('',#1412,#703);
#586=LINE('',#1414,#704);
#587=LINE('',#1416,#705);
#588=LINE('',#1418,#706);
#589=LINE('',#1420,#707);
#590=LINE('',#1422,#708);
#591=LINE('',#1424,#709);
#592=LINE('',#1426,#710);
#593=LINE('',#1431,#711);
#594=LINE('',#1435,#712);
#595=LINE('',#1437,#713);
#596=LINE('',#1439,#714);
#597=LINE('',#1441,#715);
#598=LINE('',#1443,#716);
#599=LINE('',#1445,#717);
#600=LINE('',#1447,#718);
#601=LINE('',#1449,#719);
#602=LINE('',#1451,#720);
#603=LINE('',#1455,#721);
#604=LINE('',#1459,#722);
#605=LINE('',#1463,#723);
#606=LINE('',#1465,#724);
#607=LINE('',#1467,#725);
#608=LINE('',#1469,#726);
#609=LINE('',#1471,#727);
#610=LINE('',#1473,#728);
#611=LINE('',#1475,#729);
#612=LINE('',#1477,#730);
#613=LINE('',#1479,#731);
#614=LINE('',#1481,#732);
#615=LINE('',#1483,#733);
#616=LINE('',#1491,#734);
#617=LINE('',#1494,#735);
#618=LINE('',#1496,#736);
#619=LINE('',#1498,#737);
#620=LINE('',#1499,#738);
#621=LINE('',#1501,#739);
#622=LINE('',#1504,#740);
#623=LINE('',#1506,#741);
#624=LINE('',#1508,#742);
#625=LINE('',#1510,#743);
#626=LINE('',#1512,#744);
#627=LINE('',#1513,#745);
#628=LINE('',#1519,#746);
#629=LINE('',#1523,#747);
#630=LINE('',#1527,#748);
#631=LINE('',#1528,#749);
#632=LINE('',#1530,#750);
#633=LINE('',#1535,#751);
#634=LINE('',#1539,#752);
#635=LINE('',#1541,#753);
#636=LINE('',#1543,#754);
#637=LINE('',#1545,#755);
#638=LINE('',#1547,#756);
#639=LINE('',#1549,#757);
#640=LINE('',#1551,#758);
#641=LINE('',#1553,#759);
#642=LINE('',#1555,#760);
#643=LINE('',#1557,#761);
#644=LINE('',#1559,#762);
#645=LINE('',#1563,#763);
#646=LINE('',#1567,#764);
#647=LINE('',#1571,#765);
#648=LINE('',#1573,#766);
#649=LINE('',#1575,#767);
#650=LINE('',#1577,#768);
#651=LINE('',#1579,#769);
#652=LINE('',#1581,#770);
#653=LINE('',#1583,#771);
#654=LINE('',#1585,#772);
#655=LINE('',#1587,#773);
#656=LINE('',#1595,#774);
#657=LINE('',#1596,#775);
#658=LINE('',#1598,#776);
#659=LINE('',#1599,#777);
#660=LINE('',#1601,#778);
#661=LINE('',#1602,#779);
#662=LINE('',#1604,#780);
#663=LINE('',#1605,#781);
#664=LINE('',#1608,#782);
#665=LINE('',#1610,#783);
#666=LINE('',#1612,#784);
#667=LINE('',#1614,#785);
#668=LINE('',#1616,#786);
#669=LINE('',#1621,#787);
#670=LINE('',#1622,#788);
#671=LINE('',#1626,#789);
#672=LINE('',#1630,#790);
#673=LINE('',#1633,#791);
#674=LINE('',#1634,#792);
#675=LINE('',#1636,#793);
#676=LINE('',#1638,#794);
#677=LINE('',#1640,#795);
#678=LINE('',#1642,#796);
#679=LINE('',#1644,#797);
#680=LINE('',#1646,#798);
#681=LINE('',#1649,#799);
#682=LINE('',#1650,#800);
#683=LINE('',#1652,#801);
#684=LINE('',#1655,#802);
#685=LINE('',#1656,#803);
#686=LINE('',#1658,#804);
#687=LINE('',#1660,#805);
#688=LINE('',#1662,#806);
#689=LINE('',#1665,#807);
#690=LINE('',#1666,#808);
#691=LINE('',#1668,#809);
#692=LINE('',#1670,#810);
#693=LINE('',#1672,#811);
#694=LINE('',#1674,#812);
#695=LINE('',#1676,#813);
#696=LINE('',#1678,#814);
#697=LINE('',#1679,#815);
#698=LINE('',#1682,#816);
#699=LINE('',#1685,#817);
#700=LINE('',#1688,#818);
#701=LINE('',#1696,#819);
#702=VECTOR('',#1129,1.);
#703=VECTOR('',#1130,1.);
#704=VECTOR('',#1131,1.);
#705=VECTOR('',#1132,1.);
#706=VECTOR('',#1135,1.);
#707=VECTOR('',#1136,1.);
#708=VECTOR('',#1137,1.);
#709=VECTOR('',#1138,1.);
#710=VECTOR('',#1141,1.);
#711=VECTOR('',#1144,1.);
#712=VECTOR('',#1147,1.);
#713=VECTOR('',#1148,1.);
#714=VECTOR('',#1149,1.);
#715=VECTOR('',#1150,1.);
#716=VECTOR('',#1151,1.);
#717=VECTOR('',#1152,1.);
#718=VECTOR('',#1153,1.);
#719=VECTOR('',#1154,1.);
#720=VECTOR('',#1155,1.);
#721=VECTOR('',#1158,1.);
#722=VECTOR('',#1161,1.);
#723=VECTOR('',#1164,1.);
#724=VECTOR('',#1165,1.);
#725=VECTOR('',#1166,1.);
#726=VECTOR('',#1167,1.);
#727=VECTOR('',#1168,1.);
#728=VECTOR('',#1169,1.);
#729=VECTOR('',#1170,1.);
#730=VECTOR('',#1171,1.);
#731=VECTOR('',#1172,1.);
#732=VECTOR('',#1173,1.);
#733=VECTOR('',#1174,1.);
#734=VECTOR('',#1183,1.);
#735=VECTOR('',#1184,1.);
#736=VECTOR('',#1185,1.);
#737=VECTOR('',#1186,1.);
#738=VECTOR('',#1187,1.);
#739=VECTOR('',#1190,1.);
#740=VECTOR('',#1191,1.);
#741=VECTOR('',#1192,1.);
#742=VECTOR('',#1193,1.);
#743=VECTOR('',#1194,1.);
#744=VECTOR('',#1195,1.);
#745=VECTOR('',#1196,1.);
#746=VECTOR('',#1203,1.);
#747=VECTOR('',#1208,1.);
#748=VECTOR('',#1213,1.);
#749=VECTOR('',#1214,1.);
#750=VECTOR('',#1217,1.);
#751=VECTOR('',#1220,1.);
#752=VECTOR('',#1223,1.);
#753=VECTOR('',#1224,1.);
#754=VECTOR('',#1225,1.);
#755=VECTOR('',#1226,1.);
#756=VECTOR('',#1227,1.);
#757=VECTOR('',#1228,1.);
#758=VECTOR('',#1229,1.);
#759=VECTOR('',#1230,1.);
#760=VECTOR('',#1231,1.);
#761=VECTOR('',#1232,1.);
#762=VECTOR('',#1233,1.);
#763=VECTOR('',#1236,1.);
#764=VECTOR('',#1239,1.);
#765=VECTOR('',#1242,1.);
#766=VECTOR('',#1243,1.);
#767=VECTOR('',#1244,1.);
#768=VECTOR('',#1245,1.);
#769=VECTOR('',#1246,1.);
#770=VECTOR('',#1247,1.);
#771=VECTOR('',#1248,1.);
#772=VECTOR('',#1249,1.);
#773=VECTOR('',#1250,1.);
#774=VECTOR('',#1259,1.);
#775=VECTOR('',#1260,1.);
#776=VECTOR('',#1263,1.);
#777=VECTOR('',#1264,1.);
#778=VECTOR('',#1267,1.);
#779=VECTOR('',#1268,1.);
#780=VECTOR('',#1271,1.);
#781=VECTOR('',#1272,1.);
#782=VECTOR('',#1277,1.);
#783=VECTOR('',#1280,1.);
#784=VECTOR('',#1283,1.);
#785=VECTOR('',#1284,1.);
#786=VECTOR('',#1285,1.);
#787=VECTOR('',#1294,1.);
#788=VECTOR('',#1295,1.);
#789=VECTOR('',#1300,1.);
#790=VECTOR('',#1305,1.);
#791=VECTOR('',#1306,1.);
#792=VECTOR('',#1307,1.);
#793=VECTOR('',#1310,1.);
#794=VECTOR('',#1313,1.);
#795=VECTOR('',#1314,1.);
#796=VECTOR('',#1317,1.);
#797=VECTOR('',#1320,1.);
#798=VECTOR('',#1321,1.);
#799=VECTOR('',#1326,1.);
#800=VECTOR('',#1327,1.);
#801=VECTOR('',#1330,1.);
#802=VECTOR('',#1335,1.);
#803=VECTOR('',#1336,1.);
#804=VECTOR('',#1339,1.);
#805=VECTOR('',#1342,1.);
#806=VECTOR('',#1345,1.);
#807=VECTOR('',#1350,1.);
#808=VECTOR('',#1351,1.);
#809=VECTOR('',#1354,1.);
#810=VECTOR('',#1357,1.);
#811=VECTOR('',#1360,1.);
#812=VECTOR('',#1363,1.);
#813=VECTOR('',#1366,1.);
#814=VECTOR('',#1369,1.);
#815=VECTOR('',#1370,1.);
#816=VECTOR('',#1375,1.);
#817=VECTOR('',#1380,1.);
#818=VECTOR('',#1385,1.);
#819=VECTOR('',#1400,1.);
#820=EDGE_LOOP('',(#59,#60,#61,#62));
#821=EDGE_LOOP('',(#63,#64,#65,#66,#67));
#822=EDGE_LOOP('',(#68,#69,#70,#71,#72,#73,#74,#75,#76,#77,#78,#79,#80,
#81,#82,#83,#84,#85,#86,#87,#88,#89,#90,#91,#92,#93,#94,#95,#96,#97));
#823=EDGE_LOOP('',(#98));
#824=EDGE_LOOP('',(#99));
#825=EDGE_LOOP('',(#100,#101,#102,#103,#104,#105,#106));
#826=EDGE_LOOP('',(#107,#108,#109,#110,#111,#112,#113,#114));
#827=EDGE_LOOP('',(#115,#116,#117,#118));
#828=EDGE_LOOP('',(#119,#120,#121,#122));
#829=EDGE_LOOP('',(#123,#124,#125,#126));
#830=EDGE_LOOP('',(#127,#128,#129,#130,#131,#132,#133,#134,#135,#136,#137,
#138,#139,#140,#141,#142,#143,#144,#145,#146,#147,#148,#149,#150,#151,#152,
#153,#154,#155,#156));
#831=EDGE_LOOP('',(#157));
#832=EDGE_LOOP('',(#158));
#833=EDGE_LOOP('',(#159,#160,#161,#162));
#834=EDGE_LOOP('',(#163,#164,#165,#166));
#835=EDGE_LOOP('',(#167,#168,#169,#170));
#836=EDGE_LOOP('',(#171,#172,#173,#174));
#837=EDGE_LOOP('',(#175,#176,#177,#178,#179));
#838=EDGE_LOOP('',(#180,#181,#182,#183));
#839=EDGE_LOOP('',(#184,#185,#186,#187));
#840=EDGE_LOOP('',(#188,#189,#190,#191));
#841=EDGE_LOOP('',(#192,#193,#194,#195));
#842=EDGE_LOOP('',(#196,#197,#198,#199));
#843=EDGE_LOOP('',(#200,#201,#202,#203));
#844=EDGE_LOOP('',(#204,#205,#206,#207));
#845=EDGE_LOOP('',(#208,#209,#210,#211,#212,#213));
#846=EDGE_LOOP('',(#214,#215,#216,#217));
#847=EDGE_LOOP('',(#218,#219,#220,#221,#222,#223));
#848=EDGE_LOOP('',(#224,#225,#226,#227));
#849=EDGE_LOOP('',(#228,#229,#230,#231));
#850=EDGE_LOOP('',(#232,#233,#234,#235));
#851=EDGE_LOOP('',(#236,#237,#238,#239));
#852=EDGE_LOOP('',(#240,#241,#242,#243));
#853=EDGE_LOOP('',(#244,#245,#246,#247));
#854=EDGE_LOOP('',(#248,#249,#250,#251));
#855=EDGE_LOOP('',(#252,#253,#254,#255));
#856=EDGE_LOOP('',(#256,#257,#258,#259));
#857=EDGE_LOOP('',(#260,#261,#262,#263));
#858=EDGE_LOOP('',(#264,#265,#266,#267));
#859=EDGE_LOOP('',(#268,#269,#270,#271));
#860=EDGE_LOOP('',(#272,#273,#274,#275));
#861=EDGE_LOOP('',(#276,#277,#278,#279));
#862=EDGE_LOOP('',(#280,#281,#282,#283));
#863=EDGE_LOOP('',(#284,#285,#286,#287));
#864=EDGE_LOOP('',(#288,#289,#290,#291));
#865=EDGE_LOOP('',(#292,#293,#294,#295));
#866=EDGE_LOOP('',(#296,#297,#298,#299));
#867=EDGE_LOOP('',(#300,#301,#302,#303));
#868=EDGE_LOOP('',(#304,#305,#306,#307));
#869=EDGE_LOOP('',(#308,#309,#310,#311));
#870=EDGE_LOOP('',(#312,#313,#314,#315,#316,#317,#318,#319));
#871=EDGE_LOOP('',(#320));
#872=EDGE_LOOP('',(#321));
#873=EDGE_LOOP('',(#322));
#874=EDGE_LOOP('',(#323));
#875=EDGE_LOOP('',(#324,#325,#326,#327));
#876=EDGE_LOOP('',(#328,#329,#330));
#877=EDGE_LOOP('',(#331,#332,#333,#334));
#878=EDGE_LOOP('',(#335,#336,#337,#338));
#879=EDGE_LOOP('',(#339,#340,#341,#342));
#880=EDGE_LOOP('',(#343,#344,#345,#346));
#881=FACE_BOUND('',#820,.T.);
#882=FACE_BOUND('',#821,.T.);
#883=FACE_BOUND('',#822,.T.);
#884=FACE_BOUND('',#823,.T.);
#885=FACE_BOUND('',#824,.T.);
#886=FACE_BOUND('',#825,.T.);
#887=FACE_BOUND('',#826,.T.);
#888=FACE_BOUND('',#827,.T.);
#889=FACE_BOUND('',#828,.T.);
#890=FACE_BOUND('',#829,.T.);
#891=FACE_BOUND('',#830,.T.);
#892=FACE_BOUND('',#831,.T.);
#893=FACE_BOUND('',#832,.T.);
#894=FACE_BOUND('',#833,.T.);
#895=FACE_BOUND('',#834,.T.);
#896=FACE_BOUND('',#835,.T.);
#897=FACE_BOUND('',#836,.T.);
#898=FACE_BOUND('',#837,.T.);
#899=FACE_BOUND('',#838,.T.);
#900=FACE_BOUND('',#839,.T.);
#901=FACE_BOUND('',#840,.T.);
#902=FACE_BOUND('',#841,.T.);
#903=FACE_BOUND('',#842,.T.);
#904=FACE_BOUND('',#843,.T.);
#905=FACE_BOUND('',#844,.T.);
#906=FACE_BOUND('',#845,.T.);
#907=FACE_BOUND('',#846,.T.);
#908=FACE_BOUND('',#847,.T.);
#909=FACE_BOUND('',#848,.T.);
#910=FACE_BOUND('',#849,.T.);
#911=FACE_BOUND('',#850,.T.);
#912=FACE_BOUND('',#851,.T.);
#913=FACE_BOUND('',#852,.T.);
#914=FACE_BOUND('',#853,.T.);
#915=FACE_BOUND('',#854,.T.);
#916=FACE_BOUND('',#855,.T.);
#917=FACE_BOUND('',#856,.T.);
#918=FACE_BOUND('',#857,.T.);
#919=FACE_BOUND('',#858,.T.);
#920=FACE_BOUND('',#859,.T.);
#921=FACE_BOUND('',#860,.T.);
#922=FACE_BOUND('',#861,.T.);
#923=FACE_BOUND('',#862,.T.);
#924=FACE_BOUND('',#863,.T.);
#925=FACE_BOUND('',#864,.T.);
#926=FACE_BOUND('',#865,.T.);
#927=FACE_BOUND('',#866,.T.);
#928=FACE_BOUND('',#867,.T.);
#929=FACE_BOUND('',#868,.T.);
#930=FACE_BOUND('',#869,.T.);
#931=FACE_BOUND('',#870,.T.);
#932=FACE_BOUND('',#871,.T.);
#933=FACE_BOUND('',#872,.T.);
#934=FACE_BOUND('',#873,.T.);
#935=FACE_BOUND('',#874,.T.);
#936=FACE_BOUND('',#875,.T.);
#937=FACE_BOUND('',#876,.T.);
#938=FACE_BOUND('',#877,.T.);
#939=FACE_BOUND('',#878,.T.);
#940=FACE_BOUND('',#879,.T.);
#941=FACE_BOUND('',#880,.T.);
#942=PLANE('',#1044);
#943=PLANE('',#1045);
#944=PLANE('',#1046);
#945=PLANE('',#1055);
#946=PLANE('',#1056);
#947=PLANE('',#1063);
#948=PLANE('',#1064);
#949=PLANE('',#1073);
#950=PLANE('',#1074);
#951=PLANE('',#1075);
#952=PLANE('',#1076);
#953=PLANE('',#1077);
#954=PLANE('',#1079);
#955=PLANE('',#1080);
#956=PLANE('',#1081);
#957=PLANE('',#1084);
#958=PLANE('',#1085);
#959=PLANE('',#1088);
#960=PLANE('',#1090);
#961=PLANE('',#1092);
#962=PLANE('',#1093);
#963=PLANE('',#1094);
#964=PLANE('',#1095);
#965=PLANE('',#1097);
#966=PLANE('',#1099);
#967=PLANE('',#1100);
#968=PLANE('',#1101);
#969=PLANE('',#1102);
#970=PLANE('',#1103);
#971=PLANE('',#1105);
#972=PLANE('',#1106);
#973=PLANE('',#1107);
#974=PLANE('',#1108);
#975=PLANE('',#1110);
#976=PLANE('',#1111);
#977=PLANE('',#1112);
#978=PLANE('',#1113);
#979=PLANE('',#1114);
#980=PLANE('',#1115);
#981=PLANE('',#1120);
#982=PLANE('',#1121);
#983=PLANE('',#1122);
#984=ADVANCED_FACE('',(#881),#942,.T.);
#985=ADVANCED_FACE('',(#882),#943,.T.);
#986=ADVANCED_FACE('',(#883,#884,#885),#944,.F.);
#987=ADVANCED_FACE('',(#886),#945,.F.);
#988=ADVANCED_FACE('',(#887),#946,.T.);
#989=ADVANCED_FACE('',(#888),#20,.T.);
#990=ADVANCED_FACE('',(#889),#21,.F.);
#991=ADVANCED_FACE('',(#890),#947,.T.);
#992=ADVANCED_FACE('',(#891,#892,#893),#948,.T.);
#993=ADVANCED_FACE('',(#894),#949,.T.);
#994=ADVANCED_FACE('',(#895),#950,.F.);
#995=ADVANCED_FACE('',(#896),#951,.T.);
#996=ADVANCED_FACE('',(#897),#952,.T.);
#997=ADVANCED_FACE('',(#898),#953,.T.);
#998=ADVANCED_FACE('',(#899),#954,.F.);
#999=ADVANCED_FACE('',(#900),#955,.T.);
#1000=ADVANCED_FACE('',(#901),#956,.F.);
#1001=ADVANCED_FACE('',(#902),#957,.F.);
#1002=ADVANCED_FACE('',(#903),#958,.T.);
#1003=ADVANCED_FACE('',(#904),#959,.F.);
#1004=ADVANCED_FACE('',(#905),#22,.F.);
#1005=ADVANCED_FACE('',(#906),#960,.F.);
#1006=ADVANCED_FACE('',(#907),#23,.T.);
#1007=ADVANCED_FACE('',(#908),#961,.T.);
#1008=ADVANCED_FACE('',(#909),#962,.F.);
#1009=ADVANCED_FACE('',(#910),#963,.F.);
#1010=ADVANCED_FACE('',(#911),#964,.T.);
#1011=ADVANCED_FACE('',(#912),#24,.F.);
#1012=ADVANCED_FACE('',(#913),#965,.T.);
#1013=ADVANCED_FACE('',(#914),#25,.F.);
#1014=ADVANCED_FACE('',(#915),#966,.F.);
#1015=ADVANCED_FACE('',(#916),#967,.F.);
#1016=ADVANCED_FACE('',(#917),#968,.T.);
#1017=ADVANCED_FACE('',(#918),#969,.F.);
#1018=ADVANCED_FACE('',(#919),#970,.T.);
#1019=ADVANCED_FACE('',(#920),#26,.F.);
#1020=ADVANCED_FACE('',(#921),#971,.F.);
#1021=ADVANCED_FACE('',(#922),#972,.F.);
#1022=ADVANCED_FACE('',(#923),#973,.F.);
#1023=ADVANCED_FACE('',(#924),#974,.T.);
#1024=ADVANCED_FACE('',(#925),#27,.F.);
#1025=ADVANCED_FACE('',(#926),#975,.T.);
#1026=ADVANCED_FACE('',(#927),#976,.T.);
#1027=ADVANCED_FACE('',(#928),#977,.T.);
#1028=ADVANCED_FACE('',(#929),#978,.T.);
#1029=ADVANCED_FACE('',(#930),#979,.F.);
#1030=ADVANCED_FACE('',(#931),#980,.T.);
#1031=ADVANCED_FACE('',(#932,#933),#28,.F.);
#1032=ADVANCED_FACE('',(#934,#935),#29,.F.);
#1033=ADVANCED_FACE('',(#936),#30,.T.);
#1034=ADVANCED_FACE('',(#937),#981,.T.);
#1035=ADVANCED_FACE('',(#938),#982,.F.);
#1036=ADVANCED_FACE('',(#939),#983,.F.);
#1037=ADVANCED_FACE('',(#940),#31,.T.);
#1038=ADVANCED_FACE('',(#941),#32,.T.);
#1039=CLOSED_SHELL('',(#984,#985,#986,#987,#988,#989,#990,#991,#992,#993,
#994,#995,#996,#997,#998,#999,#1000,#1001,#1002,#1003,#1004,#1005,#1006,
#1007,#1008,#1009,#1010,#1011,#1012,#1013,#1014,#1015,#1016,#1017,#1018,
#1019,#1020,#1021,#1022,#1023,#1024,#1025,#1026,#1027,#1028,#1029,#1030,
#1031,#1032,#1033,#1034,#1035,#1036,#1037,#1038));
#1040=MANIFOLD_SOLID_BREP('',#1039);
#1041=SHAPE_DEFINITION_REPRESENTATION(#1705,#1042);
#1042=SHAPE_REPRESENTATION('id2',(#1043),#1700);
#1043=AXIS2_PLACEMENT_3D('',#1407,#1125,#1126);
#1044=AXIS2_PLACEMENT_3D('',#1408,#1127,#1128);
#1045=AXIS2_PLACEMENT_3D('',#1417,#1133,#1134);
#1046=AXIS2_PLACEMENT_3D('',#1425,#1139,#1140);
#1047=AXIS2_PLACEMENT_3D('',#1429,#1142,#1143);
#1048=AXIS2_PLACEMENT_3D('',#1433,#1145,#1146);
#1049=AXIS2_PLACEMENT_3D('',#1453,#1156,#1157);
#1050=AXIS2_PLACEMENT_3D('',#1457,#1159,#1160);
#1051=AXIS2_PLACEMENT_3D('',#1461,#1162,#1163);
#1052=AXIS2_PLACEMENT_3D('',#1485,#1175,#1176);
#1053=AXIS2_PLACEMENT_3D('',#1486,#1177,#1178);
#1054=AXIS2_PLACEMENT_3D('',#1488,#1179,#1180);
#1055=AXIS2_PLACEMENT_3D('',#1490,#1181,#1182);
#1056=AXIS2_PLACEMENT_3D('',#1500,#1188,#1189);
#1057=AXIS2_PLACEMENT_3D('',#1514,#1197,#1198);
#1058=AXIS2_PLACEMENT_3D('',#1515,#1199,#1200);
#1059=AXIS2_PLACEMENT_3D('',#1517,#1201,#1202);
#1060=AXIS2_PLACEMENT_3D('',#1520,#1204,#1205);
#1061=AXIS2_PLACEMENT_3D('',#1521,#1206,#1207);
#1062=AXIS2_PLACEMENT_3D('',#1525,#1209,#1210);
#1063=AXIS2_PLACEMENT_3D('',#1526,#1211,#1212);
#1064=AXIS2_PLACEMENT_3D('',#1529,#1215,#1216);
#1065=AXIS2_PLACEMENT_3D('',#1533,#1218,#1219);
#1066=AXIS2_PLACEMENT_3D('',#1537,#1221,#1222);
#1067=AXIS2_PLACEMENT_3D('',#1561,#1234,#1235);
#1068=AXIS2_PLACEMENT_3D('',#1565,#1237,#1238);
#1069=AXIS2_PLACEMENT_3D('',#1569,#1240,#1241);
#1070=AXIS2_PLACEMENT_3D('',#1589,#1251,#1252);
#1071=AXIS2_PLACEMENT_3D('',#1590,#1253,#1254);
#1072=AXIS2_PLACEMENT_3D('',#1592,#1255,#1256);
#1073=AXIS2_PLACEMENT_3D('',#1594,#1257,#1258);
#1074=AXIS2_PLACEMENT_3D('',#1597,#1261,#1262);
#1075=AXIS2_PLACEMENT_3D('',#1600,#1265,#1266);
#1076=AXIS2_PLACEMENT_3D('',#1603,#1269,#1270);
#1077=AXIS2_PLACEMENT_3D('',#1606,#1273,#1274);
#1078=AXIS2_PLACEMENT_3D('',#1607,#1275,#1276);
#1079=AXIS2_PLACEMENT_3D('',#1609,#1278,#1279);
#1080=AXIS2_PLACEMENT_3D('',#1611,#1281,#1282);
#1081=AXIS2_PLACEMENT_3D('',#1617,#1286,#1287);
#1082=AXIS2_PLACEMENT_3D('',#1618,#1288,#1289);
#1083=AXIS2_PLACEMENT_3D('',#1619,#1290,#1291);
#1084=AXIS2_PLACEMENT_3D('',#1620,#1292,#1293);
#1085=AXIS2_PLACEMENT_3D('',#1623,#1296,#1297);
#1086=AXIS2_PLACEMENT_3D('',#1624,#1298,#1299);
#1087=AXIS2_PLACEMENT_3D('',#1628,#1301,#1302);
#1088=AXIS2_PLACEMENT_3D('',#1629,#1303,#1304);
#1089=AXIS2_PLACEMENT_3D('',#1635,#1308,#1309);
#1090=AXIS2_PLACEMENT_3D('',#1637,#1311,#1312);
#1091=AXIS2_PLACEMENT_3D('',#1641,#1315,#1316);
#1092=AXIS2_PLACEMENT_3D('',#1643,#1318,#1319);
#1093=AXIS2_PLACEMENT_3D('',#1647,#1322,#1323);
#1094=AXIS2_PLACEMENT_3D('',#1648,#1324,#1325);
#1095=AXIS2_PLACEMENT_3D('',#1651,#1328,#1329);
#1096=AXIS2_PLACEMENT_3D('',#1653,#1331,#1332);
#1097=AXIS2_PLACEMENT_3D('',#1654,#1333,#1334);
#1098=AXIS2_PLACEMENT_3D('',#1657,#1337,#1338);
#1099=AXIS2_PLACEMENT_3D('',#1659,#1340,#1341);
#1100=AXIS2_PLACEMENT_3D('',#1661,#1343,#1344);
#1101=AXIS2_PLACEMENT_3D('',#1663,#1346,#1347);
#1102=AXIS2_PLACEMENT_3D('',#1664,#1348,#1349);
#1103=AXIS2_PLACEMENT_3D('',#1667,#1352,#1353);
#1104=AXIS2_PLACEMENT_3D('',#1669,#1355,#1356);
#1105=AXIS2_PLACEMENT_3D('',#1671,#1358,#1359);
#1106=AXIS2_PLACEMENT_3D('',#1673,#1361,#1362);
#1107=AXIS2_PLACEMENT_3D('',#1675,#1364,#1365);
#1108=AXIS2_PLACEMENT_3D('',#1677,#1367,#1368);
#1109=AXIS2_PLACEMENT_3D('',#1680,#1371,#1372);
#1110=AXIS2_PLACEMENT_3D('',#1681,#1373,#1374);
#1111=AXIS2_PLACEMENT_3D('',#1683,#1376,#1377);
#1112=AXIS2_PLACEMENT_3D('',#1684,#1378,#1379);
#1113=AXIS2_PLACEMENT_3D('',#1686,#1381,#1382);
#1114=AXIS2_PLACEMENT_3D('',#1687,#1383,#1384);
#1115=AXIS2_PLACEMENT_3D('',#1689,#1386,#1387);
#1116=AXIS2_PLACEMENT_3D('',#1690,#1388,#1389);
#1117=AXIS2_PLACEMENT_3D('',#1691,#1390,#1391);
#1118=AXIS2_PLACEMENT_3D('',#1692,#1392,#1393);
#1119=AXIS2_PLACEMENT_3D('',#1693,#1394,#1395);
#1120=AXIS2_PLACEMENT_3D('',#1694,#1396,#1397);
#1121=AXIS2_PLACEMENT_3D('',#1695,#1398,#1399);
#1122=AXIS2_PLACEMENT_3D('',#1697,#1401,#1402);
#1123=AXIS2_PLACEMENT_3D('',#1698,#1403,#1404);
#1124=AXIS2_PLACEMENT_3D('',#1699,#1405,#1406);
#1125=DIRECTION('',(0.,0.,1.));
#1126=DIRECTION('',(1.,0.,0.));
#1127=DIRECTION('',(0.,0.,1.));
#1128=DIRECTION('',(-0.121869343405148,0.992546151641322,0.));
#1129=DIRECTION('',(0.992546151641322,0.121869343405148,0.));
#1130=DIRECTION('',(-0.121869343405148,0.992546151641322,0.));
#1131=DIRECTION('',(-0.992546151641323,-0.121869343405143,0.));
#1132=DIRECTION('',(-0.121869343405148,0.992546151641322,0.));
#1133=DIRECTION('',(0.,0.,1.));
#1134=DIRECTION('',(-0.121869343405148,0.992546151641322,0.));
#1135=DIRECTION('',(-0.121869343405148,0.992546151641322,0.));
#1136=DIRECTION('',(0.992546151641322,0.121869343405148,0.));
#1137=DIRECTION('',(0.121869343405148,-0.992546151641322,0.));
#1138=DIRECTION('',(0.992546151641321,0.121869343405154,0.));
#1139=DIRECTION('',(-1.,0.,0.));
#1140=DIRECTION('',(0.,0.,1.));
#1141=DIRECTION('',(0.,0.707106781186549,0.707106781186546));
#1142=DIRECTION('',(-1.,0.,0.));
#1143=DIRECTION('',(0.,0.,1.));
#1144=DIRECTION('',(0.,0.707106781186549,-0.707106781186546));
#1145=DIRECTION('',(1.,0.,0.));
#1146=DIRECTION('',(0.,0.,-1.));
#1147=DIRECTION('',(0.,2.78363176731816E-16,1.));
#1148=DIRECTION('',(0.,-1.,0.));
#1149=DIRECTION('',(0.,-2.98155597433514E-16,-1.));
#1150=DIRECTION('',(0.,-1.,0.));
#1151=DIRECTION('',(0.,0.,1.));
#1152=DIRECTION('',(0.,1.,0.));
#1153=DIRECTION('',(0.,0.,-1.));
#1154=DIRECTION('',(0.,-1.,0.));
#1155=DIRECTION('',(0.,-7.95323362090903E-17,1.));
#1156=DIRECTION('',(1.,0.,0.));
#1157=DIRECTION('',(0.,0.,-1.));
#1158=DIRECTION('',(0.,-0.707106781186547,-0.707106781186548));
#1159=DIRECTION('',(-1.,0.,0.));
#1160=DIRECTION('',(0.,0.,1.));
#1161=DIRECTION('',(0.,-0.707106781186548,0.707106781186547));
#1162=DIRECTION('',(1.,0.,0.));
#1163=DIRECTION('',(0.,0.,-1.));
#1164=DIRECTION('',(0.,-0.707106781186548,-0.707106781186548));
#1165=DIRECTION('',(0.,0.,1.));
#1166=DIRECTION('',(0.,1.,2.60208521396519E-15));
#1167=DIRECTION('',(0.,-1.44560289664734E-16,-1.));
#1168=DIRECTION('',(0.,1.,0.));
#1169=DIRECTION('',(0.,0.,-1.));
#1170=DIRECTION('',(0.,1.,0.));
#1171=DIRECTION('',(0.,-2.38524477946811E-16,1.));
#1172=DIRECTION('',(0.,1.,-3.46944695195363E-15));
#1173=DIRECTION('',(0.,0.,-1.));
#1174=DIRECTION('',(0.,0.707106781186548,-0.707106781186548));
#1175=DIRECTION('',(1.,0.,0.));
#1176=DIRECTION('',(0.,0.,-1.));
#1177=DIRECTION('',(1.,0.,0.));
#1178=DIRECTION('',(0.,0.,-1.));
#1179=DIRECTION('',(1.,0.,0.));
#1180=DIRECTION('',(0.,0.,-1.));
#1181=DIRECTION('',(-0.992546151641322,-0.121869343405148,0.));
#1182=DIRECTION('',(0.121869343405148,-0.992546151641322,0.));
#1183=DIRECTION('',(0.121869343405148,-0.992546151641322,0.));
#1184=DIRECTION('',(0.,0.,1.));
#1185=DIRECTION('',(0.121869343405148,-0.992546151641322,-1.97127667724637E-16));
#1186=DIRECTION('',(0.,0.,-1.));
#1187=DIRECTION('',(0.,0.,-1.));
#1188=DIRECTION('',(-0.992546151641322,-0.121869343405148,0.));
#1189=DIRECTION('',(0.121869343405148,-0.992546151641322,0.));
#1190=DIRECTION('',(-0.121869343405148,0.992546151641322,0.));
#1191=DIRECTION('',(0.,0.,1.));
#1192=DIRECTION('',(0.121869343405148,-0.992546151641322,-1.97127667724637E-16));
#1193=DIRECTION('',(0.,0.,1.));
#1194=DIRECTION('',(-0.121869343405147,0.992546151641322,0.));
#1195=DIRECTION('',(0.,0.,1.));
#1196=DIRECTION('',(0.,0.,1.));
#1197=DIRECTION('',(0.,0.,-1.));
#1198=DIRECTION('',(-1.,0.,0.));
#1199=DIRECTION('',(0.,0.,-1.));
#1200=DIRECTION('',(-1.,0.,0.));
#1201=DIRECTION('',(0.,0.,1.));
#1202=DIRECTION('',(1.,0.,0.));
#1203=DIRECTION('',(0.,0.,-1.));
#1204=DIRECTION('',(0.,0.,-1.));
#1205=DIRECTION('',(-1.,0.,0.));
#1206=DIRECTION('',(0.,0.,1.));
#1207=DIRECTION('',(-1.,0.,0.));
#1208=DIRECTION('',(0.,0.,-1.));
#1209=DIRECTION('',(0.,0.,-1.));
#1210=DIRECTION('',(-1.,0.,0.));
#1211=DIRECTION('',(-0.121869343405148,0.992546151641322,0.));
#1212=DIRECTION('',(-0.992546151641322,-0.121869343405148,0.));
#1213=DIRECTION('',(0.992546151641322,0.121869343405147,0.));
#1214=DIRECTION('',(0.992546151641322,0.121869343405148,0.));
#1215=DIRECTION('',(-1.,0.,0.));
#1216=DIRECTION('',(0.,0.,1.));
#1217=DIRECTION('',(0.,0.707106781186549,-0.707106781186546));
#1218=DIRECTION('',(-1.,0.,0.));
#1219=DIRECTION('',(0.,0.,1.));
#1220=DIRECTION('',(0.,0.707106781186549,0.707106781186546));
#1221=DIRECTION('',(1.,0.,0.));
#1222=DIRECTION('',(0.,0.,-1.));
#1223=DIRECTION('',(0.,0.707106781186548,-0.707106781186548));
#1224=DIRECTION('',(0.,0.,1.));
#1225=DIRECTION('',(0.,1.,0.));
#1226=DIRECTION('',(0.,0.,1.));
#1227=DIRECTION('',(0.,1.,0.));
#1228=DIRECTION('',(0.,0.,-1.));
#1229=DIRECTION('',(0.,1.,0.));
#1230=DIRECTION('',(0.,0.,1.));
#1231=DIRECTION('',(0.,1.,0.));
#1232=DIRECTION('',(0.,0.,1.));
#1233=DIRECTION('',(0.,-0.707106781186548,-0.707106781186548));
#1234=DIRECTION('',(1.,0.,0.));
#1235=DIRECTION('',(0.,0.,-1.));
#1236=DIRECTION('',(0.,-0.707106781186548,0.707106781186547));
#1237=DIRECTION('',(-1.,0.,0.));
#1238=DIRECTION('',(0.,0.,1.));
#1239=DIRECTION('',(0.,-0.707106781186547,-0.707106781186548));
#1240=DIRECTION('',(1.,0.,0.));
#1241=DIRECTION('',(0.,0.,-1.));
#1242=DIRECTION('',(0.,0.,1.));
#1243=DIRECTION('',(0.,1.,0.));
#1244=DIRECTION('',(0.,0.,1.));
#1245=DIRECTION('',(0.,1.,0.));
#1246=DIRECTION('',(0.,0.,1.));
#1247=DIRECTION('',(0.,-1.,0.));
#1248=DIRECTION('',(0.,0.,1.));
#1249=DIRECTION('',(0.,1.,0.));
#1250=DIRECTION('',(0.,0.,1.));
#1251=DIRECTION('',(1.,0.,0.));
#1252=DIRECTION('',(0.,0.,-1.));
#1253=DIRECTION('',(-1.,0.,0.));
#1254=DIRECTION('',(0.,0.,1.));
#1255=DIRECTION('',(-1.,0.,0.));
#1256=DIRECTION('',(0.,0.,1.));
#1257=DIRECTION('',(0.,1.,0.));
#1258=DIRECTION('',(0.,0.,1.));
#1259=DIRECTION('',(1.,0.,0.));
#1260=DIRECTION('',(1.,0.,0.));
#1261=DIRECTION('',(0.,1.,0.));
#1262=DIRECTION('',(0.,0.,-1.));
#1263=DIRECTION('',(1.,0.,0.));
#1264=DIRECTION('',(1.,0.,0.));
#1265=DIRECTION('',(0.,0.,1.));
#1266=DIRECTION('',(0.,1.,0.));
#1267=DIRECTION('',(1.,0.,0.));
#1268=DIRECTION('',(1.,0.,0.));
#1269=DIRECTION('',(0.,0.,-1.));
#1270=DIRECTION('',(-1.,0.,0.));
#1271=DIRECTION('',(1.,0.,0.));
#1272=DIRECTION('',(1.,0.,0.));
#1273=DIRECTION('',(-0.121869343405148,0.992546151641322,0.));
#1274=DIRECTION('',(0.,0.,-1.));
#1275=DIRECTION('',(0.121869343405148,-0.992546151641322,0.));
#1276=DIRECTION('',(-0.992546151641322,-0.121869343405148,0.));
#1277=DIRECTION('',(0.992546151641322,0.121869343405148,0.));
#1278=DIRECTION('',(0.,0.,-1.));
#1279=DIRECTION('',(-1.,0.,0.));
#1280=DIRECTION('',(0.866025403784439,-0.5,0.));
#1281=DIRECTION('',(0.,0.,1.));
#1282=DIRECTION('',(0.5,0.866025403784439,0.));
#1283=DIRECTION('',(-0.5,-0.866025403784439,0.));
#1284=DIRECTION('',(0.866025403784437,-0.5,0.));
#1285=DIRECTION('',(0.5,0.866025403784439,0.));
#1286=DIRECTION('',(0.,0.,-1.));
#1287=DIRECTION('',(-1.,0.,0.));
#1288=DIRECTION('',(0.,0.,-1.));
#1289=DIRECTION('',(-1.,0.,0.));
#1290=DIRECTION('',(0.,0.,1.));
#1291=DIRECTION('',(1.,0.,0.));
#1292=DIRECTION('',(0.,0.,1.));
#1293=DIRECTION('',(0.,1.,0.));
#1294=DIRECTION('',(1.,0.,0.));
#1295=DIRECTION('',(1.,-1.7701259958947E-15,0.));
#1296=DIRECTION('',(0.,0.,-1.));
#1297=DIRECTION('',(-1.,0.,0.));
#1298=DIRECTION('',(0.,0.,-1.));
#1299=DIRECTION('',(-1.,0.,0.));
#1300=DIRECTION('',(0.866025403784439,-0.5,0.));
#1301=DIRECTION('',(0.,0.,1.));
#1302=DIRECTION('',(1.,0.,0.));
#1303=DIRECTION('',(0.,0.,1.));
#1304=DIRECTION('',(0.5,0.866025403784439,0.));
#1305=DIRECTION('',(-0.866025403784438,0.5,0.));
#1306=DIRECTION('',(0.5,0.866025403784439,0.));
#1307=DIRECTION('',(-0.5,-0.866025403784439,0.));
#1308=DIRECTION('',(0.,0.,-1.));
#1309=DIRECTION('',(-1.,0.,0.));
#1310=DIRECTION('',(0.,0.,-1.));
#1311=DIRECTION('',(-0.866025403784439,0.5,0.));
#1312=DIRECTION('',(-0.5,-0.866025403784439,0.));
#1313=DIRECTION('',(0.,0.,-1.));
#1314=DIRECTION('',(-0.5,-0.866025403784438,0.));
#1315=DIRECTION('',(0.,0.,-1.));
#1316=DIRECTION('',(-1.,0.,0.));
#1317=DIRECTION('',(0.,0.,1.));
#1318=DIRECTION('',(-0.866025403784439,0.5,0.));
#1319=DIRECTION('',(-0.5,-0.866025403784439,0.));
#1320=DIRECTION('',(0.,0.,-1.));
#1321=DIRECTION('',(0.5,0.866025403784439,0.));
#1322=DIRECTION('',(2.40238194325897E-17,-1.95658307982118E-16,1.));
#1323=DIRECTION('',(0.,-1.,-1.95658307982118E-16));
#1324=DIRECTION('',(0.,-0.707106781186547,-0.707106781186548));
#1325=DIRECTION('',(0.,-0.707106781186548,0.707106781186547));
#1326=DIRECTION('',(-1.,0.,0.));
#1327=DIRECTION('',(1.,0.,0.));
#1328=DIRECTION('',(0.,0.707106781186548,-0.707106781186548));
#1329=DIRECTION('',(0.,-0.707106781186548,-0.707106781186548));
#1330=DIRECTION('',(1.,0.,0.));
#1331=DIRECTION('',(1.,0.,0.));
#1332=DIRECTION('',(0.,0.,-1.));
#1333=DIRECTION('',(0.,0.707106781186548,-0.707106781186547));
#1334=DIRECTION('',(0.,-0.707106781186547,-0.707106781186548));
#1335=DIRECTION('',(1.,0.,0.));
#1336=DIRECTION('',(1.,0.,0.));
#1337=DIRECTION('',(1.,0.,0.));
#1338=DIRECTION('',(0.,0.,-1.));
#1339=DIRECTION('',(1.,0.,0.));
#1340=DIRECTION('',(0.,-1.,-7.95323362090903E-17));
#1341=DIRECTION('',(0.,-7.95323362090903E-17,1.));
#1342=DIRECTION('',(1.,0.,0.));
#1343=DIRECTION('',(0.,0.,-1.));
#1344=DIRECTION('',(0.,-1.,0.));
#1345=DIRECTION('',(1.,0.,0.));
#1346=DIRECTION('',(0.,1.,0.));
#1347=DIRECTION('',(0.,0.,-1.));
#1348=DIRECTION('',(0.,0.,-1.));
#1349=DIRECTION('',(0.,-1.,0.));
#1350=DIRECTION('',(1.,0.,0.));
#1351=DIRECTION('',(1.,0.,0.));
#1352=DIRECTION('',(0.,-1.,2.78363176731816E-16));
#1353=DIRECTION('',(0.,2.78363176731816E-16,1.));
#1354=DIRECTION('',(1.,0.,0.));
#1355=DIRECTION('',(1.,0.,0.));
#1356=DIRECTION('',(0.,0.,-1.));
#1357=DIRECTION('',(1.,0.,0.));
#1358=DIRECTION('',(0.,0.707106781186546,0.707106781186549));
#1359=DIRECTION('',(0.,0.707106781186549,-0.707106781186546));
#1360=DIRECTION('',(-1.,0.,0.));
#1361=DIRECTION('',(0.,1.,-2.98155597433514E-16));
#1362=DIRECTION('',(0.,-2.98155597433514E-16,-1.));
#1363=DIRECTION('',(1.,0.,0.));
#1364=DIRECTION('',(0.,0.707106781186548,0.707106781186548));
#1365=DIRECTION('',(0.,0.707106781186548,-0.707106781186548));
#1366=DIRECTION('',(1.,0.,0.));
#1367=DIRECTION('',(0.,-0.707106781186546,0.707106781186549));
#1368=DIRECTION('',(0.,0.707106781186549,0.707106781186546));
#1369=DIRECTION('',(1.,0.,0.));
#1370=DIRECTION('',(1.,0.,0.));
#1371=DIRECTION('',(1.,0.,0.));
#1372=DIRECTION('',(0.,0.,-1.));
#1373=DIRECTION('',(0.,3.46944695195363E-15,1.));
#1374=DIRECTION('',(0.,1.,-3.46944695195363E-15));
#1375=DIRECTION('',(1.,0.,0.));
#1376=DIRECTION('',(0.,-1.,-2.38524477946811E-16));
#1377=DIRECTION('',(0.,-2.38524477946811E-16,1.));
#1378=DIRECTION('',(0.,-2.60208521396519E-15,1.));
#1379=DIRECTION('',(0.,1.,2.60208521396519E-15));
#1380=DIRECTION('',(1.,0.,0.));
#1381=DIRECTION('',(0.,1.,-1.44560289664734E-16));
#1382=DIRECTION('',(0.,-1.44560289664734E-16,-1.));
#1383=DIRECTION('',(-0.5,-0.866025403784438,0.));
#1384=DIRECTION('',(0.866025403784438,-0.5,0.));
#1385=DIRECTION('',(-0.866025403784438,0.5,0.));
#1386=DIRECTION('',(0.,0.,-1.));
#1387=DIRECTION('',(-1.,0.,0.));
#1388=DIRECTION('',(1.,0.,0.));
#1389=DIRECTION('',(0.,0.,-1.));
#1390=DIRECTION('',(1.,0.,0.));
#1391=DIRECTION('',(0.,0.,-1.));
#1392=DIRECTION('',(-0.121869343405148,0.992546151641322,0.));
#1393=DIRECTION('',(-0.992546151641322,-0.121869343405148,0.));
#1394=DIRECTION('',(0.121869343405148,-0.992546151641322,0.));
#1395=DIRECTION('',(-0.992546151641322,-0.121869343405148,0.));
#1396=DIRECTION('',(-0.121869343405148,0.992546151641322,0.));
#1397=DIRECTION('',(-0.992546151641322,-0.121869343405148,0.));
#1398=DIRECTION('',(0.,0.,1.));
#1399=DIRECTION('',(1.,0.,0.));
#1400=DIRECTION('',(1.,0.,0.));
#1401=DIRECTION('',(0.,1.,0.));
#1402=DIRECTION('',(0.,0.,1.));
#1403=DIRECTION('',(1.,0.,0.));
#1404=DIRECTION('',(0.,0.,-1.));
#1405=DIRECTION('',(1.,0.,0.));
#1406=DIRECTION('',(0.,0.,-1.));
#1407=CARTESIAN_POINT('',(0.,0.,0.));
#1408=CARTESIAN_POINT('',(0.00137789365870324,0.00569258762453147,0.002));
#1409=CARTESIAN_POINT('',(0.000691032153781519,0.0112866256686539,0.002));
#1410=CARTESIAN_POINT('',(0.000452821077387602,0.0112573770262367,0.002));
#1411=CARTESIAN_POINT('',(0.000691032153781519,0.0112866256686539,0.002));
#1412=CARTESIAN_POINT('',(0.000757494435900472,0.00877601164713339,0.002));
#1413=CARTESIAN_POINT('',(0.000757494435900472,0.00877601164713339,0.002));
#1414=CARTESIAN_POINT('',(0.000995705512294405,0.00880526028955063,0.002));
#1415=CARTESIAN_POINT('',(0.00099570551229439,0.00880526028955062,0.002));
#1416=CARTESIAN_POINT('',(0.00137789365870324,0.00569258762453147,0.002));
#1417=CARTESIAN_POINT('',(0.00137789365870324,0.00569258762453147,0.002));
#1418=CARTESIAN_POINT('',(0.00137789365870324,0.00569258762453147,0.002));
#1419=CARTESIAN_POINT('',(0.00137789365870324,0.00569258762453147,0.002));
#1420=CARTESIAN_POINT('',(0.000509357897990142,0.00874554431128211,0.002));
#1421=CARTESIAN_POINT('',(0.000509357897990142,0.0087455443112821,0.002));
#1422=CARTESIAN_POINT('',(0.000891546044398995,0.00563287164626294,0.002));
#1423=CARTESIAN_POINT('',(0.000891546044398995,0.00563287164626294,0.002));
#1424=CARTESIAN_POINT('',(0.00137789365870324,0.00569258762453147,0.002));
#1425=CARTESIAN_POINT('',(0.000245,0.,0.002));
#1426=CARTESIAN_POINT('',(0.000245,0.0037,-0.0037));
#1427=CARTESIAN_POINT('',(0.000245,7.0710678118654E-5,-0.00732928932188135));
#1428=CARTESIAN_POINT('',(0.000245,0.000558578643762691,-0.00684142135623731));
#1429=CARTESIAN_POINT('',(0.000245,0.000141421356237308,-0.0074));
#1430=CARTESIAN_POINT('',(0.000245,7.07106781186544E-5,-0.00747071067811866));
#1431=CARTESIAN_POINT('',(0.000245,-0.0037,-0.0037));
#1432=CARTESIAN_POINT('',(0.000245,0.000529289321881345,-0.00792928932188135));
#1433=CARTESIAN_POINT('',(0.000245,0.000358578643762689,-0.0081));
#1434=CARTESIAN_POINT('',(0.000245,0.00055,-0.00824711266302984));
#1435=CARTESIAN_POINT('',(0.000245,0.00055,-1.530997472025E-19));
#1436=CARTESIAN_POINT('',(0.000245,0.00055,-0.0137));
#1437=CARTESIAN_POINT('',(0.000245,0.,-0.0137));
#1438=CARTESIAN_POINT('',(0.000245,0.0005,-0.0137));
#1439=CARTESIAN_POINT('',(0.000245,0.0005,-1.49077798716758E-19));
#1440=CARTESIAN_POINT('',(0.000245,0.0005,-0.0157));
#1441=CARTESIAN_POINT('',(0.000245,0.0005,-0.0157));
#1442=CARTESIAN_POINT('',(0.000245,0.001,-0.0157));
#1443=CARTESIAN_POINT('',(0.000245,0.001,-0.0177));
#1444=CARTESIAN_POINT('',(0.000245,0.001,-0.0177));
#1445=CARTESIAN_POINT('',(0.000245,0.,-0.0177));
#1446=CARTESIAN_POINT('',(0.000245,0.0025,-0.0177));
#1447=CARTESIAN_POINT('',(0.000245,0.0025,0.));
#1448=CARTESIAN_POINT('',(0.000245,0.0025,-0.0137));
#1449=CARTESIAN_POINT('',(0.000245,0.,-0.0137));
#1450=CARTESIAN_POINT('',(0.000245,0.00245,-0.0137));
#1451=CARTESIAN_POINT('',(0.000245,0.00245,1.94854223712271E-19));
#1452=CARTESIAN_POINT('',(0.000245,0.00245,-0.00824711266302984));
#1453=CARTESIAN_POINT('',(0.000245,0.00264142135623731,-0.0081));
#1454=CARTESIAN_POINT('',(0.000245,0.00247071067811866,-0.00792928932188135));
#1455=CARTESIAN_POINT('',(0.000245,0.0052,-0.0052));
#1456=CARTESIAN_POINT('',(0.000245,0.00292928932188135,-0.00747071067811865));
#1457=CARTESIAN_POINT('',(0.000245,0.00285857864376269,-0.0074));
#1458=CARTESIAN_POINT('',(0.000245,0.00292928932188135,-0.00732928932188135));
#1459=CARTESIAN_POINT('',(0.000245,-0.0022,-0.0022));
#1460=CARTESIAN_POINT('',(0.000245,0.00244142135623731,-0.00684142135623731));
#1461=CARTESIAN_POINT('',(0.000245,0.00258284271247462,-0.0067));
#1462=CARTESIAN_POINT('',(0.000245,0.00244142135623731,-0.00655857864376269));
#1463=CARTESIAN_POINT('',(0.000245,0.0045,-0.0045));
#1464=CARTESIAN_POINT('',(0.000245,0.003,-0.006));
#1465=CARTESIAN_POINT('',(0.000245,0.003,0.));
#1466=CARTESIAN_POINT('',(0.000245,0.003,-0.003));
#1467=CARTESIAN_POINT('',(0.000245,0.003,-0.003));
#1468=CARTESIAN_POINT('',(0.000245,0.0025,-0.003));
#1469=CARTESIAN_POINT('',(0.000245,0.0025,-6.12323399573681E-20));
#1470=CARTESIAN_POINT('',(0.000245,0.0025,-6.12323399573681E-20));
#1471=CARTESIAN_POINT('',(0.000245,0.,0.));
#1472=CARTESIAN_POINT('',(0.000245,0.00336870489570875,0.));
#1473=CARTESIAN_POINT('',(0.000245,0.00336870489570875,0.002));
#1474=CARTESIAN_POINT('',(0.000245,0.00336870489570875,0.002));
#1475=CARTESIAN_POINT('',(0.000245,0.,0.002));
#1476=CARTESIAN_POINT('',(0.000245,0.0005,0.002));
#1477=CARTESIAN_POINT('',(0.000245,0.0005,0.002));
#1478=CARTESIAN_POINT('',(0.000245,0.0005,-0.003));
#1479=CARTESIAN_POINT('',(0.000245,0.,-0.003));
#1480=CARTESIAN_POINT('',(0.000245,0.,-0.003));
#1481=CARTESIAN_POINT('',(0.000245,0.,0.002));
#1482=CARTESIAN_POINT('',(0.000245,-4.33680868994202E-19,-0.006));
#1483=CARTESIAN_POINT('',(0.000245,-0.003,-0.003));
#1484=CARTESIAN_POINT('',(0.000245,0.00055857864376269,-0.00655857864376269));
#1485=CARTESIAN_POINT('',(0.000245,0.000417157287525381,-0.0067));
#1486=CARTESIAN_POINT('',(0.000245,0.0015,-0.0127));
#1487=CARTESIAN_POINT('',(0.000245,0.0015,-0.0131));
#1488=CARTESIAN_POINT('',(0.000245,0.0015,0.001));
#1489=CARTESIAN_POINT('',(0.000245,0.0015,0.0006));
#1490=CARTESIAN_POINT('',(0.00137789365870324,0.00569258762453147,0.002));
#1491=CARTESIAN_POINT('',(0.00137789365870324,0.00569258762453147,0.00015));
#1492=CARTESIAN_POINT('',(0.000959144709272846,0.00910302413504302,0.00015));
#1493=CARTESIAN_POINT('',(0.00137789365870324,0.00569258762453147,0.00015));
#1494=CARTESIAN_POINT('',(0.000959144709272846,0.00910302413504302,-2.69422295812418E-19));
#1495=CARTESIAN_POINT('',(0.000959144709272846,0.00910302413504302,0.001));
#1496=CARTESIAN_POINT('',(0.00069103215378152,0.0112866256686539,0.001));
#1497=CARTESIAN_POINT('',(0.00069103215378152,0.0112866256686539,0.001));
#1498=CARTESIAN_POINT('',(0.000691032153781519,0.0112866256686539,0.002));
#1499=CARTESIAN_POINT('',(0.00137789365870324,0.00569258762453147,0.002));
#1500=CARTESIAN_POINT('',(0.000891546044398995,0.00563287164626294,0.002));
#1501=CARTESIAN_POINT('',(0.000509357897990142,0.00874554431128211,0.00175));
#1502=CARTESIAN_POINT('',(0.000509357897990142,0.00874554431128211,0.00175));
#1503=CARTESIAN_POINT('',(0.000204684539477272,0.0112269096903854,0.00175));
#1504=CARTESIAN_POINT('',(0.000204684539477271,0.0112269096903854,0.002));
#1505=CARTESIAN_POINT('',(0.000204684539477272,0.0112269096903854,0.001));
#1506=CARTESIAN_POINT('',(0.000204684539477272,0.0112269096903854,0.001));
#1507=CARTESIAN_POINT('',(0.000472797094968597,0.0090433081567745,0.001));
#1508=CARTESIAN_POINT('',(0.000472797094968598,0.0090433081567745,-2.69422295812418E-19));
#1509=CARTESIAN_POINT('',(0.000472797094968598,0.0090433081567745,0.00015));
#1510=CARTESIAN_POINT('',(0.000891546044398994,0.00563287164626294,0.00015));
#1511=CARTESIAN_POINT('',(0.000891546044398993,0.00563287164626294,0.00015));
#1512=CARTESIAN_POINT('',(0.000891546044398995,0.00563287164626294,0.002));
#1513=CARTESIAN_POINT('',(0.000509357897990142,0.00874554431128211,0.002));
#1514=CARTESIAN_POINT('',(0.000648372237246872,0.00560301365712868,0.002));
#1515=CARTESIAN_POINT('',(0.000648372237246872,0.00560301365712868,0.00015));
#1516=CARTESIAN_POINT('',(0.00128490090902844,0.00523551365712868,0.00015));
#1517=CARTESIAN_POINT('',(0.000648372237246872,0.00560301365712868,0.002));
#1518=CARTESIAN_POINT('',(0.00128490090902844,0.00523551365712868,0.002));
#1519=CARTESIAN_POINT('',(0.00128490090902844,0.00523551365712868,0.002));
#1520=CARTESIAN_POINT('',(0.000648372237246872,0.00560301365712868,0.002));
#1521=CARTESIAN_POINT('',(0.000648372237246872,0.00560301365712868,0.00015));
#1522=CARTESIAN_POINT('',(0.000860548461174059,0.00548051365712868,0.00015));
#1523=CARTESIAN_POINT('',(0.000860548461174058,0.00548051365712868,0.002));
#1524=CARTESIAN_POINT('',(0.000860548461174059,0.00548051365712868,0.002));
#1525=CARTESIAN_POINT('',(0.000648372237246872,0.00560301365712868,0.002));
#1526=CARTESIAN_POINT('',(0.000472797094968598,0.0090433081567745,-2.69422295812418E-19));
#1527=CARTESIAN_POINT('',(0.000472797094968598,0.0090433081567745,0.00015));
#1528=CARTESIAN_POINT('',(0.000472797094968598,0.0090433081567745,0.001));
#1529=CARTESIAN_POINT('',(-0.000245,0.,0.002));
#1530=CARTESIAN_POINT('',(-0.000245,-0.0037,-0.0037));
#1531=CARTESIAN_POINT('',(-0.000245,7.07106781186544E-5,-0.00747071067811866));
#1532=CARTESIAN_POINT('',(-0.000245,0.000529289321881345,-0.00792928932188135));
#1533=CARTESIAN_POINT('',(-0.000245,0.000141421356237308,-0.0074));
#1534=CARTESIAN_POINT('',(-0.000245,7.0710678118654E-5,-0.00732928932188135));
#1535=CARTESIAN_POINT('',(-0.000245,0.0037,-0.0037));
#1536=CARTESIAN_POINT('',(-0.000245,0.000558578643762691,-0.00684142135623731));
#1537=CARTESIAN_POINT('',(-0.000245,0.000417157287525381,-0.0067));
#1538=CARTESIAN_POINT('',(-0.000245,0.00055857864376269,-0.00655857864376269));
#1539=CARTESIAN_POINT('',(-0.000245,-0.003,-0.003));
#1540=CARTESIAN_POINT('',(-0.000245,-4.33680868994202E-19,-0.006));
#1541=CARTESIAN_POINT('',(-0.000245,0.,0.002));
#1542=CARTESIAN_POINT('',(-0.000245,0.,-0.003));
#1543=CARTESIAN_POINT('',(-0.000245,0.,-0.003));
#1544=CARTESIAN_POINT('',(-0.000245,0.0005,-0.003));
#1545=CARTESIAN_POINT('',(-0.000245,0.0005,0.002));
#1546=CARTESIAN_POINT('',(-0.000245,0.0005,0.002));
#1547=CARTESIAN_POINT('',(-0.000245,0.,0.002));
#1548=CARTESIAN_POINT('',(-0.000245,0.00336870489570875,0.002));
#1549=CARTESIAN_POINT('',(-0.000245,0.00336870489570875,0.002));
#1550=CARTESIAN_POINT('',(-0.000245,0.00336870489570875,0.));
#1551=CARTESIAN_POINT('',(-0.000245,0.,0.));
#1552=CARTESIAN_POINT('',(-0.000245,0.0025,0.));
#1553=CARTESIAN_POINT('',(-0.000245,0.0025,0.002));
#1554=CARTESIAN_POINT('',(-0.000245,0.0025,-0.003));
#1555=CARTESIAN_POINT('',(-0.000245,0.,-0.003));
#1556=CARTESIAN_POINT('',(-0.000245,0.003,-0.003));
#1557=CARTESIAN_POINT('',(-0.000245,0.003,0.));
#1558=CARTESIAN_POINT('',(-0.000245,0.003,-0.006));
#1559=CARTESIAN_POINT('',(-0.000245,0.0045,-0.0045));
#1560=CARTESIAN_POINT('',(-0.000245,0.00244142135623731,-0.00655857864376269));
#1561=CARTESIAN_POINT('',(-0.000245,0.00258284271247462,-0.0067));
#1562=CARTESIAN_POINT('',(-0.000245,0.00244142135623731,-0.00684142135623731));
#1563=CARTESIAN_POINT('',(-0.000245,-0.0022,-0.0022));
#1564=CARTESIAN_POINT('',(-0.000245,0.00292928932188135,-0.00732928932188135));
#1565=CARTESIAN_POINT('',(-0.000245,0.00285857864376269,-0.0074));
#1566=CARTESIAN_POINT('',(-0.000245,0.00292928932188135,-0.00747071067811865));
#1567=CARTESIAN_POINT('',(-0.000245,0.0052,-0.0052));
#1568=CARTESIAN_POINT('',(-0.000245,0.00247071067811866,-0.00792928932188135));
#1569=CARTESIAN_POINT('',(-0.000245,0.00264142135623731,-0.0081));
#1570=CARTESIAN_POINT('',(-0.000245,0.00245,-0.00824711266302984));
#1571=CARTESIAN_POINT('',(-0.000245,0.00245,0.002));
#1572=CARTESIAN_POINT('',(-0.000245,0.00245,-0.0137));
#1573=CARTESIAN_POINT('',(-0.000245,0.,-0.0137));
#1574=CARTESIAN_POINT('',(-0.000245,0.0025,-0.0137));
#1575=CARTESIAN_POINT('',(-0.000245,0.0025,0.002));
#1576=CARTESIAN_POINT('',(-0.000245,0.0025,-0.0177));
#1577=CARTESIAN_POINT('',(-0.000245,0.,-0.0177));
#1578=CARTESIAN_POINT('',(-0.000245,0.001,-0.0177));
#1579=CARTESIAN_POINT('',(-0.000245,0.001,-0.0177));
#1580=CARTESIAN_POINT('',(-0.000245,0.001,-0.0157));
#1581=CARTESIAN_POINT('',(-0.000245,0.0005,-0.0157));
#1582=CARTESIAN_POINT('',(-0.000245,0.0005,-0.0157));
#1583=CARTESIAN_POINT('',(-0.000245,0.0005,0.002));
#1584=CARTESIAN_POINT('',(-0.000245,0.0005,-0.0137));
#1585=CARTESIAN_POINT('',(-0.000245,0.,-0.0137));
#1586=CARTESIAN_POINT('',(-0.000245,0.00055,-0.0137));
#1587=CARTESIAN_POINT('',(-0.000245,0.00055,0.002));
#1588=CARTESIAN_POINT('',(-0.000245,0.00055,-0.00824711266302984));
#1589=CARTESIAN_POINT('',(-0.000245,0.000358578643762689,-0.0081));
#1590=CARTESIAN_POINT('',(-0.000245,0.0015,0.001));
#1591=CARTESIAN_POINT('',(-0.000245,0.0015,0.0014));
#1592=CARTESIAN_POINT('',(-0.000245,0.0015,-0.0127));
#1593=CARTESIAN_POINT('',(-0.000245,0.0015,-0.0123));
#1594=CARTESIAN_POINT('',(-0.000245,0.003,0.));
#1595=CARTESIAN_POINT('',(0.000245,0.003,-0.003));
#1596=CARTESIAN_POINT('',(0.000245,0.003,-0.006));
#1597=CARTESIAN_POINT('',(0.000245,0.,0.002));
#1598=CARTESIAN_POINT('',(0.000245,0.,-0.003));
#1599=CARTESIAN_POINT('',(0.000245,-4.33680868994202E-19,-0.006));
#1600=CARTESIAN_POINT('',(0.000245,0.,0.002));
#1601=CARTESIAN_POINT('',(0.000245,0.0005,0.002));
#1602=CARTESIAN_POINT('',(0.000245,0.00336870489570875,0.002));
#1603=CARTESIAN_POINT('',(-0.000245,0.,-0.0177));
#1604=CARTESIAN_POINT('',(-0.000245,0.001,-0.0177));
#1605=CARTESIAN_POINT('',(0.000245,0.0025,-0.0177));
#1606=CARTESIAN_POINT('',(0.000691032153781519,0.0112866256686539,0.002));
#1607=CARTESIAN_POINT('',(0.000452821077387602,0.0112573770262367,0.00175));
#1608=CARTESIAN_POINT('',(0.000204684539477272,0.0112269096903854,0.001));
#1609=CARTESIAN_POINT('',(0.000648372237246872,0.00560301365712868,0.002));
#1610=CARTESIAN_POINT('',(0.00128490090902844,0.00523551365712868,0.002));
#1611=CARTESIAN_POINT('',(0.000277823776072813,0.00349120489570875,0.002));
#1612=CARTESIAN_POINT('',(-0.000146528671781562,0.00373620489570875,0.002));
#1613=CARTESIAN_POINT('',(-0.000146528671781562,0.00373620489570875,0.002));
#1614=CARTESIAN_POINT('',(0.000277823776072813,0.00349120489570875,0.002));
#1615=CARTESIAN_POINT('',(0.000277823776072813,0.00349120489570875,0.002));
#1616=CARTESIAN_POINT('',(0.000277823776072813,0.00349120489570875,0.002));
#1617=CARTESIAN_POINT('',(0.00049,0.00336870489570875,0.002));
#1618=CARTESIAN_POINT('',(0.00049,0.00336870489570875,0.002));
#1619=CARTESIAN_POINT('',(0.00049,0.00336870489570875,0.002));
#1620=CARTESIAN_POINT('',(0.000245,0.,0.));
#1621=CARTESIAN_POINT('',(0.000245,0.0025,-6.12323399573681E-20));
#1622=CARTESIAN_POINT('',(0.000245,0.00336870489570875,0.));
#1623=CARTESIAN_POINT('',(0.00049,0.00336870489570875,0.));
#1624=CARTESIAN_POINT('',(0.00049,0.00336870489570875,0.));
#1625=CARTESIAN_POINT('',(-0.000146528671781562,0.00373620489570875,0.));
#1626=CARTESIAN_POINT('',(0.000277823776072813,0.00349120489570875,0.));
#1627=CARTESIAN_POINT('',(0.000277823776072813,0.00349120489570875,0.));
#1628=CARTESIAN_POINT('',(0.00049,0.00336870489570875,0.));
#1629=CARTESIAN_POINT('',(0.000277823776072813,0.00349120489570875,0.));
#1630=CARTESIAN_POINT('',(0.000387823776072813,0.00466173048454133,0.));
#1631=CARTESIAN_POINT('',(0.000812176223927188,0.00441673048454133,0.));
#1632=CARTESIAN_POINT('',(0.000387823776072813,0.00466173048454133,0.));
#1633=CARTESIAN_POINT('',(0.000277823776072813,0.00349120489570875,0.));
#1634=CARTESIAN_POINT('',(-0.000146528671781562,0.00373620489570875,0.));
#1635=CARTESIAN_POINT('',(0.00049,0.00336870489570875,0.002));
#1636=CARTESIAN_POINT('',(0.000277823776072813,0.00349120489570875,0.002));
#1637=CARTESIAN_POINT('',(0.000277823776072813,0.00349120489570875,0.002));
#1638=CARTESIAN_POINT('',(0.000812176223927188,0.00441673048454133,0.00015));
#1639=CARTESIAN_POINT('',(0.000812176223927188,0.00441673048454133,0.00015));
#1640=CARTESIAN_POINT('',(0.000812176223927188,0.00441673048454133,0.00015));
#1641=CARTESIAN_POINT('',(0.00049,0.00336870489570875,0.002));
#1642=CARTESIAN_POINT('',(-0.000146528671781562,0.00373620489570875,0.002));
#1643=CARTESIAN_POINT('',(-0.000146528671781562,0.00373620489570875,0.002));
#1644=CARTESIAN_POINT('',(0.000387823776072813,0.00466173048454133,0.00015));
#1645=CARTESIAN_POINT('',(0.000387823776072813,0.00466173048454133,0.00015));
#1646=CARTESIAN_POINT('',(0.000387823776072813,0.00466173048454133,0.00015));
#1647=CARTESIAN_POINT('',(0.000204684539477272,0.0112269096903854,0.001));
#1648=CARTESIAN_POINT('',(0.000245,-0.0022,-0.0022));
#1649=CARTESIAN_POINT('',(0.000245,0.00292928932188135,-0.00732928932188135));
#1650=CARTESIAN_POINT('',(0.000245,0.00244142135623731,-0.00684142135623731));
#1651=CARTESIAN_POINT('',(0.000245,0.0045,-0.0045));
#1652=CARTESIAN_POINT('',(0.000245,0.00244142135623731,-0.00655857864376269));
#1653=CARTESIAN_POINT('',(0.000245,0.00258284271247462,-0.0067));
#1654=CARTESIAN_POINT('',(0.000245,0.0052,-0.0052));
#1655=CARTESIAN_POINT('',(0.000245,0.00292928932188135,-0.00747071067811865));
#1656=CARTESIAN_POINT('',(0.000245,0.00247071067811866,-0.00792928932188135));
#1657=CARTESIAN_POINT('',(0.000245,0.00264142135623731,-0.0081));
#1658=CARTESIAN_POINT('',(0.000245,0.00245,-0.00824711266302984));
#1659=CARTESIAN_POINT('',(0.000245,0.00245,1.94854223712271E-19));
#1660=CARTESIAN_POINT('',(0.000245,0.00245,-0.0137));
#1661=CARTESIAN_POINT('',(0.000245,0.,-0.0137));
#1662=CARTESIAN_POINT('',(0.000245,0.0025,-0.0137));
#1663=CARTESIAN_POINT('',(0.000245,0.0025,0.));
#1664=CARTESIAN_POINT('',(0.000245,0.,-0.0137));
#1665=CARTESIAN_POINT('',(0.000245,0.0005,-0.0137));
#1666=CARTESIAN_POINT('',(0.000245,0.00055,-0.0137));
#1667=CARTESIAN_POINT('',(0.000245,0.00055,-1.530997472025E-19));
#1668=CARTESIAN_POINT('',(0.000245,0.00055,-0.00824711266302984));
#1669=CARTESIAN_POINT('',(0.000245,0.000358578643762689,-0.0081));
#1670=CARTESIAN_POINT('',(0.000245,0.000529289321881345,-0.00792928932188135));
#1671=CARTESIAN_POINT('',(0.000245,-0.0037,-0.0037));
#1672=CARTESIAN_POINT('',(0.000245,7.07106781186535E-5,-0.00747071067811866));
#1673=CARTESIAN_POINT('',(0.000245,0.0005,-1.49077798716758E-19));
#1674=CARTESIAN_POINT('',(-0.000245,0.0005,-0.0157));
#1675=CARTESIAN_POINT('',(0.000245,-0.003,-0.003));
#1676=CARTESIAN_POINT('',(0.000245,0.00055857864376269,-0.00655857864376269));
#1677=CARTESIAN_POINT('',(0.000245,0.0037,-0.0037));
#1678=CARTESIAN_POINT('',(0.000245,7.0710678118654E-5,-0.00732928932188135));
#1679=CARTESIAN_POINT('',(0.000245,0.000558578643762691,-0.00684142135623731));
#1680=CARTESIAN_POINT('',(0.000245,0.000417157287525381,-0.0067));
#1681=CARTESIAN_POINT('',(0.000245,0.,-0.003));
#1682=CARTESIAN_POINT('',(0.000245,0.0005,-0.003));
#1683=CARTESIAN_POINT('',(0.000245,0.0005,0.002));
#1684=CARTESIAN_POINT('',(0.000245,0.003,-0.003));
#1685=CARTESIAN_POINT('',(0.000245,0.0025,-0.003));
#1686=CARTESIAN_POINT('',(0.000245,0.0025,-6.12323399573681E-20));
#1687=CARTESIAN_POINT('',(0.000387823776072813,0.00466173048454133,0.00015));
#1688=CARTESIAN_POINT('',(0.000387823776072813,0.00466173048454133,0.00015));
#1689=CARTESIAN_POINT('',(0.000648372237246872,0.00560301365712868,0.00015));
#1690=CARTESIAN_POINT('',(0.000245,0.0015,-0.0127));
#1691=CARTESIAN_POINT('',(0.000245,0.0015,0.001));
#1692=CARTESIAN_POINT('',(0.000757494435900472,0.00877601164713339,0.00175));
#1693=CARTESIAN_POINT('',(0.000757494435900472,0.00877601164713339,0.00175));
#1694=CARTESIAN_POINT('',(0.000757494435900472,0.00877601164713339,0.00175));
#1695=CARTESIAN_POINT('',(-0.000245,0.0005,-0.0157));
#1696=CARTESIAN_POINT('',(-0.000245,0.001,-0.0157));
#1697=CARTESIAN_POINT('',(-0.000245,0.001,-0.0177));
#1698=CARTESIAN_POINT('',(0.000245,0.000141421356237308,-0.0074));
#1699=CARTESIAN_POINT('',(0.000245,0.00285857864376269,-0.0074));
#1700=(
GEOMETRIC_REPRESENTATION_CONTEXT(3)
GLOBAL_UNCERTAINTY_ASSIGNED_CONTEXT((#1701))
GLOBAL_UNIT_ASSIGNED_CONTEXT((#1704,#1703,#1702))
REPRESENTATION_CONTEXT('id2','TOP_LEVEL_ASSEMBLY_PART')
);
#1701=UNCERTAINTY_MEASURE_WITH_UNIT(LENGTH_MEASURE(1.E-8),#1704,
'DISTANCE_ACCURACY_VALUE','Maximum Tolerance applied to model');
#1702=(
NAMED_UNIT(*)
SI_UNIT($,.STERADIAN.)
SOLID_ANGLE_UNIT()
);
#1703=(
NAMED_UNIT(*)
PLANE_ANGLE_UNIT()
SI_UNIT($,.RADIAN.)
);
#1704=(
LENGTH_UNIT()
NAMED_UNIT(*)
SI_UNIT($,.METRE.)
);
#1705=PRODUCT_DEFINITION_SHAPE('','',#1706);
#1706=PRODUCT_DEFINITION('','',#1708,#1707);
#1707=DESIGN_CONTEXT('',#1714,'design');
#1708=PRODUCT_DEFINITION_FORMATION_WITH_SPECIFIED_SOURCE('','',#1710,
 .NOT_KNOWN.);
#1709=PRODUCT_RELATED_PRODUCT_CATEGORY('','',(#1710));
#1710=PRODUCT('id2','id2','id2',(#1712));
#1711=PRODUCT_CATEGORY('','');
#1712=MECHANICAL_CONTEXT('',#1714,'mechanical');
#1713=APPLICATION_PROTOCOL_DEFINITION('international standard',
'config_control_design',2010,#1714);
#1714=APPLICATION_CONTEXT(
'configuration controlled 3D designs of mechanical parts and assemblie
s');
ENDSEC;
END-ISO-10303-21;
