ISO-10303-21;
HEADER;
/* Generated by software containing ST-Developer
 * from STEP Tools, Inc. (www.steptools.com) 
 */
/* OPTION: using custom renumber hook */

FILE_DESCRIPTION(
/* description */ ('STEP AP203'),
/* implementation_level */ '2;1');

FILE_NAME(
/* name */ '6a545cb7a930e3b0a213d5df',
/* time_stamp */ '2026-07-13T03:34:15Z',
/* author */ (''),
/* organization */ (''),
/* preprocessor_version */ 'ST-DEVELOPER v20',
/* originating_system */ 'ONSHAPE BY PTC INC, 1.217',
/* authorisation */ '  ');

FILE_SCHEMA (('CONFIG_CONTROL_DESIGN'));
ENDSEC;

DATA;
#10=PROPERTY_DEFINITION_REPRESENTATION(#14,#12);
#11=PROPERTY_DEFINITION_REPRESENTATION(#15,#13);
#12=REPRESENTATION('',(#16),#300);
#13=REPRESENTATION('',(#17),#300);
#14=PROPERTY_DEFINITION('pmi validation property','',#305);
#15=PROPERTY_DEFINITION('pmi validation property','',#305);
#16=VALUE_REPRESENTATION_ITEM('number of annotations',COUNT_MEASURE(0.));
#17=VALUE_REPRESENTATION_ITEM('number of views',COUNT_MEASURE(0.));
#18=SHAPE_REPRESENTATION_RELATIONSHIP('','',#177,#19);
#19=ADVANCED_BREP_SHAPE_REPRESENTATION('',(#175),#300);
#20=CONICAL_SURFACE('',#200,0.00055,0.785398163397448);
#21=PLANE('',#185);
#22=PLANE('',#189);
#23=PLANE('',#190);
#24=PLANE('',#191);
#25=PLANE('',#195);
#26=PLANE('',#197);
#27=PLANE('',#198);
#28=PLANE('',#199);
#29=LINE('',#262,#37);
#30=LINE('',#266,#38);
#31=LINE('',#270,#39);
#32=LINE('',#274,#40);
#33=LINE('',#276,#41);
#34=LINE('',#283,#42);
#35=LINE('',#295,#43);
#36=LINE('',#297,#44);
#37=VECTOR('',#209,1.);
#38=VECTOR('',#212,1.);
#39=VECTOR('',#215,1.);
#40=VECTOR('',#218,1.);
#41=VECTOR('',#221,1.);
#42=VECTOR('',#230,1.);
#43=VECTOR('',#247,1.);
#44=VECTOR('',#250,1.);
#45=ORIENTED_EDGE('',*,*,#81,.T.);
#46=ORIENTED_EDGE('',*,*,#82,.F.);
#47=ORIENTED_EDGE('',*,*,#83,.T.);
#48=ORIENTED_EDGE('',*,*,#84,.F.);
#49=ORIENTED_EDGE('',*,*,#85,.F.);
#50=ORIENTED_EDGE('',*,*,#86,.F.);
#51=ORIENTED_EDGE('',*,*,#87,.F.);
#52=ORIENTED_EDGE('',*,*,#88,.F.);
#53=ORIENTED_EDGE('',*,*,#89,.T.);
#54=ORIENTED_EDGE('',*,*,#82,.T.);
#55=ORIENTED_EDGE('',*,*,#90,.T.);
#56=ORIENTED_EDGE('',*,*,#91,.T.);
#57=ORIENTED_EDGE('',*,*,#92,.T.);
#58=ORIENTED_EDGE('',*,*,#93,.F.);
#59=ORIENTED_EDGE('',*,*,#86,.T.);
#60=ORIENTED_EDGE('',*,*,#81,.F.);
#61=ORIENTED_EDGE('',*,*,#91,.F.);
#62=ORIENTED_EDGE('',*,*,#92,.F.);
#63=ORIENTED_EDGE('',*,*,#94,.F.);
#64=ORIENTED_EDGE('',*,*,#95,.T.);
#65=ORIENTED_EDGE('',*,*,#94,.T.);
#66=ORIENTED_EDGE('',*,*,#96,.T.);
#67=ORIENTED_EDGE('',*,*,#90,.F.);
#68=ORIENTED_EDGE('',*,*,#89,.F.);
#69=ORIENTED_EDGE('',*,*,#97,.T.);
#70=ORIENTED_EDGE('',*,*,#83,.F.);
#71=ORIENTED_EDGE('',*,*,#85,.T.);
#72=ORIENTED_EDGE('',*,*,#98,.F.);
#73=ORIENTED_EDGE('',*,*,#87,.T.);
#74=ORIENTED_EDGE('',*,*,#93,.T.);
#75=ORIENTED_EDGE('',*,*,#84,.T.);
#76=ORIENTED_EDGE('',*,*,#97,.F.);
#77=ORIENTED_EDGE('',*,*,#88,.T.);
#78=ORIENTED_EDGE('',*,*,#98,.T.);
#79=ORIENTED_EDGE('',*,*,#95,.F.);
#80=ORIENTED_EDGE('',*,*,#96,.F.);
#81=EDGE_CURVE('',#99,#99,#113,.F.);
#82=EDGE_CURVE('',#100,#101,#114,.T.);
#83=EDGE_CURVE('',#100,#102,#29,.F.);
#84=EDGE_CURVE('',#103,#102,#115,.F.);
#85=EDGE_CURVE('',#104,#103,#30,.F.);
#86=EDGE_CURVE('',#105,#104,#116,.T.);
#87=EDGE_CURVE('',#106,#105,#31,.T.);
#88=EDGE_CURVE('',#107,#106,#117,.F.);
#89=EDGE_CURVE('',#107,#101,#32,.T.);
#90=EDGE_CURVE('',#101,#100,#33,.T.);
#91=EDGE_CURVE('',#108,#108,#118,.T.);
#92=EDGE_CURVE('',#109,#109,#119,.F.);
#93=EDGE_CURVE('',#105,#104,#34,.T.);
#94=EDGE_CURVE('',#110,#110,#120,.T.);
#95=EDGE_CURVE('',#111,#111,#121,.T.);
#96=EDGE_CURVE('',#112,#112,#122,.F.);
#97=EDGE_CURVE('',#107,#102,#35,.T.);
#98=EDGE_CURVE('',#106,#103,#36,.T.);
#99=VERTEX_POINT('',#258);
#100=VERTEX_POINT('',#260);
#101=VERTEX_POINT('',#261);
#102=VERTEX_POINT('',#263);
#103=VERTEX_POINT('',#265);
#104=VERTEX_POINT('',#267);
#105=VERTEX_POINT('',#269);
#106=VERTEX_POINT('',#271);
#107=VERTEX_POINT('',#273);
#108=VERTEX_POINT('',#279);
#109=VERTEX_POINT('',#281);
#110=VERTEX_POINT('',#287);
#111=VERTEX_POINT('',#290);
#112=VERTEX_POINT('',#293);
#113=CIRCLE('',#180,0.0015);
#114=CIRCLE('',#181,0.0015);
#115=CIRCLE('',#182,0.0015);
#116=CIRCLE('',#183,0.0015);
#117=CIRCLE('',#184,0.0015);
#118=CIRCLE('',#187,0.0009);
#119=CIRCLE('',#188,0.0009);
#120=CIRCLE('',#192,0.00085);
#121=CIRCLE('',#194,0.00085);
#122=CIRCLE('',#196,0.00055);
#123=EDGE_LOOP('',(#45));
#124=EDGE_LOOP('',(#46,#47,#48,#49,#50,#51,#52,#53));
#125=EDGE_LOOP('',(#54,#55));
#126=EDGE_LOOP('',(#56));
#127=EDGE_LOOP('',(#57));
#128=EDGE_LOOP('',(#58,#59));
#129=EDGE_LOOP('',(#60));
#130=EDGE_LOOP('',(#61));
#131=EDGE_LOOP('',(#62));
#132=EDGE_LOOP('',(#63));
#133=EDGE_LOOP('',(#64));
#134=EDGE_LOOP('',(#65));
#135=EDGE_LOOP('',(#66));
#136=EDGE_LOOP('',(#67,#68,#69,#70));
#137=EDGE_LOOP('',(#71,#72,#73,#74));
#138=EDGE_LOOP('',(#75,#76,#77,#78));
#139=EDGE_LOOP('',(#79));
#140=EDGE_LOOP('',(#80));
#141=FACE_BOUND('',#123,.T.);
#142=FACE_BOUND('',#124,.T.);
#143=FACE_BOUND('',#125,.T.);
#144=FACE_BOUND('',#126,.T.);
#145=FACE_BOUND('',#127,.T.);
#146=FACE_BOUND('',#128,.T.);
#147=FACE_BOUND('',#129,.T.);
#148=FACE_BOUND('',#130,.T.);
#149=FACE_BOUND('',#131,.T.);
#150=FACE_BOUND('',#132,.T.);
#151=FACE_BOUND('',#133,.T.);
#152=FACE_BOUND('',#134,.T.);
#153=FACE_BOUND('',#135,.T.);
#154=FACE_BOUND('',#136,.T.);
#155=FACE_BOUND('',#137,.T.);
#156=FACE_BOUND('',#138,.T.);
#157=FACE_BOUND('',#139,.T.);
#158=FACE_BOUND('',#140,.T.);
#159=CYLINDRICAL_SURFACE('',#179,0.0015);
#160=CYLINDRICAL_SURFACE('',#186,0.0009);
#161=CYLINDRICAL_SURFACE('',#193,0.00085);
#162=ADVANCED_FACE('',(#141,#142),#159,.T.);
#163=ADVANCED_FACE('',(#143),#21,.T.);
#164=ADVANCED_FACE('',(#144,#145),#160,.T.);
#165=ADVANCED_FACE('',(#146),#22,.T.);
#166=ADVANCED_FACE('',(#147,#148),#23,.T.);
#167=ADVANCED_FACE('',(#149,#150),#24,.T.);
#168=ADVANCED_FACE('',(#151,#152),#161,.T.);
#169=ADVANCED_FACE('',(#153),#25,.F.);
#170=ADVANCED_FACE('',(#154),#26,.T.);
#171=ADVANCED_FACE('',(#155),#27,.F.);
#172=ADVANCED_FACE('',(#156),#28,.F.);
#173=ADVANCED_FACE('',(#157,#158),#20,.T.);
#174=CLOSED_SHELL('',(#162,#163,#164,#165,#166,#167,#168,#169,#170,#171,
#172,#173));
#175=MANIFOLD_SOLID_BREP('',#174);
#176=SHAPE_DEFINITION_REPRESENTATION(#305,#177);
#177=SHAPE_REPRESENTATION('id2',(#178),#300);
#178=AXIS2_PLACEMENT_3D('',#255,#201,#202);
#179=AXIS2_PLACEMENT_3D('',#256,#203,#204);
#180=AXIS2_PLACEMENT_3D('',#257,#205,#206);
#181=AXIS2_PLACEMENT_3D('',#259,#207,#208);
#182=AXIS2_PLACEMENT_3D('',#264,#210,#211);
#183=AXIS2_PLACEMENT_3D('',#268,#213,#214);
#184=AXIS2_PLACEMENT_3D('',#272,#216,#217);
#185=AXIS2_PLACEMENT_3D('',#275,#219,#220);
#186=AXIS2_PLACEMENT_3D('',#277,#222,#223);
#187=AXIS2_PLACEMENT_3D('',#278,#224,#225);
#188=AXIS2_PLACEMENT_3D('',#280,#226,#227);
#189=AXIS2_PLACEMENT_3D('',#282,#228,#229);
#190=AXIS2_PLACEMENT_3D('',#284,#231,#232);
#191=AXIS2_PLACEMENT_3D('',#285,#233,#234);
#192=AXIS2_PLACEMENT_3D('',#286,#235,#236);
#193=AXIS2_PLACEMENT_3D('',#288,#237,#238);
#194=AXIS2_PLACEMENT_3D('',#289,#239,#240);
#195=AXIS2_PLACEMENT_3D('',#291,#241,#242);
#196=AXIS2_PLACEMENT_3D('',#292,#243,#244);
#197=AXIS2_PLACEMENT_3D('',#294,#245,#246);
#198=AXIS2_PLACEMENT_3D('',#296,#248,#249);
#199=AXIS2_PLACEMENT_3D('',#298,#251,#252);
#200=AXIS2_PLACEMENT_3D('',#299,#253,#254);
#201=DIRECTION('',(0.,0.,1.));
#202=DIRECTION('',(1.,0.,0.));
#203=DIRECTION('',(0.,0.,1.));
#204=DIRECTION('',(1.,0.,0.));
#205=DIRECTION('',(0.,0.,-1.));
#206=DIRECTION('',(-1.,0.,0.));
#207=DIRECTION('',(0.,0.,1.));
#208=DIRECTION('',(1.,0.,0.));
#209=DIRECTION('',(0.,0.,1.));
#210=DIRECTION('',(0.,0.,-1.));
#211=DIRECTION('',(-1.,0.,0.));
#212=DIRECTION('',(0.,0.,1.));
#213=DIRECTION('',(0.,0.,1.));
#214=DIRECTION('',(1.,0.,0.));
#215=DIRECTION('',(0.,0.,1.));
#216=DIRECTION('',(0.,0.,-1.));
#217=DIRECTION('',(-1.,0.,0.));
#218=DIRECTION('',(0.,0.,1.));
#219=DIRECTION('',(0.,0.,1.));
#220=DIRECTION('',(1.,0.,0.));
#221=DIRECTION('',(1.,0.,0.));
#222=DIRECTION('',(0.,0.,-1.));
#223=DIRECTION('',(-1.,0.,0.));
#224=DIRECTION('',(0.,0.,-1.));
#225=DIRECTION('',(-1.,0.,0.));
#226=DIRECTION('',(0.,0.,-1.));
#227=DIRECTION('',(-1.,0.,0.));
#228=DIRECTION('',(0.,0.,1.));
#229=DIRECTION('',(1.,0.,0.));
#230=DIRECTION('',(1.,0.,0.));
#231=DIRECTION('',(0.,0.,-1.));
#232=DIRECTION('',(-1.,0.,0.));
#233=DIRECTION('',(0.,0.,-1.));
#234=DIRECTION('',(-1.,0.,0.));
#235=DIRECTION('',(0.,0.,-1.));
#236=DIRECTION('',(-1.,0.,0.));
#237=DIRECTION('',(0.,0.,-1.));
#238=DIRECTION('',(-1.,0.,0.));
#239=DIRECTION('',(0.,0.,1.));
#240=DIRECTION('',(1.,0.,0.));
#241=DIRECTION('',(0.,0.,1.));
#242=DIRECTION('',(1.,0.,0.));
#243=DIRECTION('',(0.,0.,1.));
#244=DIRECTION('',(1.,0.,0.));
#245=DIRECTION('',(0.,-1.,0.));
#246=DIRECTION('',(0.,0.,-1.));
#247=DIRECTION('',(1.,0.,0.));
#248=DIRECTION('',(0.,-1.,0.));
#249=DIRECTION('',(0.,0.,-1.));
#250=DIRECTION('',(1.,0.,0.));
#251=DIRECTION('',(0.,0.,-1.));
#252=DIRECTION('',(-1.,0.,0.));
#253=DIRECTION('',(0.,0.,1.));
#254=DIRECTION('',(1.,0.,0.));
#255=CARTESIAN_POINT('',(0.,0.,0.));
#256=CARTESIAN_POINT('',(0.,0.,-0.007));
#257=CARTESIAN_POINT('',(0.,0.,-0.0012));
#258=CARTESIAN_POINT('',(-0.0015,0.,-0.0012));
#259=CARTESIAN_POINT('',(0.,0.,0.));
#260=CARTESIAN_POINT('',(0.00148660687473185,0.0002,0.));
#261=CARTESIAN_POINT('',(-0.00148660687473185,0.0002,0.));
#262=CARTESIAN_POINT('',(0.00148660687473185,0.0002,-0.007));
#263=CARTESIAN_POINT('',(0.00148660687473185,0.0002,-0.0005));
#264=CARTESIAN_POINT('',(0.,0.,-0.0005));
#265=CARTESIAN_POINT('',(0.00148660687473185,-0.0002,-0.0005));
#266=CARTESIAN_POINT('',(0.00148660687473185,-0.0002,-0.007));
#267=CARTESIAN_POINT('',(0.00148660687473185,-0.0002,0.));
#268=CARTESIAN_POINT('',(0.,0.,0.));
#269=CARTESIAN_POINT('',(-0.00148660687473185,-0.0002,0.));
#270=CARTESIAN_POINT('',(-0.00148660687473185,-0.0002,-0.007));
#271=CARTESIAN_POINT('',(-0.00148660687473185,-0.0002,-0.0005));
#272=CARTESIAN_POINT('',(0.,0.,-0.0005));
#273=CARTESIAN_POINT('',(-0.00148660687473185,0.0002,-0.0005));
#274=CARTESIAN_POINT('',(-0.00148660687473185,0.0002,-0.007));
#275=CARTESIAN_POINT('',(0.,0.,0.));
#276=CARTESIAN_POINT('',(0.,0.0002,0.));
#277=CARTESIAN_POINT('',(0.,0.,-0.0012));
#278=CARTESIAN_POINT('',(0.,0.,-0.0012));
#279=CARTESIAN_POINT('',(-0.0009,0.,-0.0012));
#280=CARTESIAN_POINT('',(0.,0.,-0.0032));
#281=CARTESIAN_POINT('',(-0.0009,0.,-0.0032));
#282=CARTESIAN_POINT('',(0.,0.,0.));
#283=CARTESIAN_POINT('',(0.,-0.0002,0.));
#284=CARTESIAN_POINT('',(0.,0.,-0.0012));
#285=CARTESIAN_POINT('',(0.,0.,-0.0032));
#286=CARTESIAN_POINT('',(0.,0.,-0.0032));
#287=CARTESIAN_POINT('',(-0.00085,0.,-0.0032));
#288=CARTESIAN_POINT('',(0.,0.,-0.0032));
#289=CARTESIAN_POINT('',(0.,0.,-0.0067));
#290=CARTESIAN_POINT('',(0.00085,0.,-0.0067));
#291=CARTESIAN_POINT('',(0.,0.,-0.007));
#292=CARTESIAN_POINT('',(0.,0.,-0.007));
#293=CARTESIAN_POINT('',(0.00055,0.,-0.007));
#294=CARTESIAN_POINT('',(-0.0016,0.0002,-0.0005));
#295=CARTESIAN_POINT('',(-0.0016,0.0002,-0.0005));
#296=CARTESIAN_POINT('',(-0.0016,-0.0002,-0.0005));
#297=CARTESIAN_POINT('',(-0.0016,-0.0002,-0.0005));
#298=CARTESIAN_POINT('',(0.,0.,-0.0005));
#299=CARTESIAN_POINT('',(0.,0.,-0.007));
#300=(
GEOMETRIC_REPRESENTATION_CONTEXT(3)
GLOBAL_UNCERTAINTY_ASSIGNED_CONTEXT((#301))
GLOBAL_UNIT_ASSIGNED_CONTEXT((#304,#303,#302))
REPRESENTATION_CONTEXT('id2','TOP_LEVEL_ASSEMBLY_PART')
);
#301=UNCERTAINTY_MEASURE_WITH_UNIT(LENGTH_MEASURE(1.E-8),#304,
'DISTANCE_ACCURACY_VALUE','Maximum Tolerance applied to model');
#302=(
NAMED_UNIT(*)
SI_UNIT($,.STERADIAN.)
SOLID_ANGLE_UNIT()
);
#303=(
NAMED_UNIT(*)
PLANE_ANGLE_UNIT()
SI_UNIT($,.RADIAN.)
);
#304=(
LENGTH_UNIT()
NAMED_UNIT(*)
SI_UNIT($,.METRE.)
);
#305=PRODUCT_DEFINITION_SHAPE('','',#306);
#306=PRODUCT_DEFINITION('','',#308,#307);
#307=DESIGN_CONTEXT('',#314,'design');
#308=PRODUCT_DEFINITION_FORMATION_WITH_SPECIFIED_SOURCE('','',#310,
 .NOT_KNOWN.);
#309=PRODUCT_RELATED_PRODUCT_CATEGORY('','',(#310));
#310=PRODUCT('id2','id2','id2',(#312));
#311=PRODUCT_CATEGORY('','');
#312=MECHANICAL_CONTEXT('',#314,'mechanical');
#313=APPLICATION_PROTOCOL_DEFINITION('international standard',
'config_control_design',2010,#314);
#314=APPLICATION_CONTEXT(
'configuration controlled 3D designs of mechanical parts and assemblie
s');
ENDSEC;
END-ISO-10303-21;
