ISO-10303-21;
HEADER;
/* Generated by software containing ST-Developer
 * from STEP Tools, Inc. (www.steptools.com) 
 */
/* OPTION: using custom renumber hook */

FILE_DESCRIPTION(
/* description */ ('STEP AP203'),
/* implementation_level */ '2;1');

FILE_NAME(
/* name */ '6a545cce2b462b644a0cde91',
/* time_stamp */ '2026-07-13T03:34:38Z',
/* author */ (''),
/* organization */ (''),
/* preprocessor_version */ 'ST-DEVELOPER v20',
/* originating_system */ 'ONSHAPE BY PTC INC, 1.217',
/* authorisation */ '  ');

FILE_SCHEMA (('CONFIG_CONTROL_DESIGN'));
ENDSEC;

DATA;
#10=PROPERTY_DEFINITION_REPRESENTATION(#14,#12);
#11=PROPERTY_DEFINITION_REPRESENTATION(#15,#13);
#12=REPRESENTATION('',(#16),#1364);
#13=REPRESENTATION('',(#17),#1364);
#14=PROPERTY_DEFINITION('pmi validation property','',#1369);
#15=PROPERTY_DEFINITION('pmi validation property','',#1369);
#16=VALUE_REPRESENTATION_ITEM('number of annotations',COUNT_MEASURE(0.));
#17=VALUE_REPRESENTATION_ITEM('number of views',COUNT_MEASURE(0.));
#18=SHAPE_REPRESENTATION_RELATIONSHIP('','',#871,#19);
#19=ADVANCED_BREP_SHAPE_REPRESENTATION('',(#869),#1364);
#20=ORIENTED_EDGE('',*,*,#260,.T.);
#21=ORIENTED_EDGE('',*,*,#261,.T.);
#22=ORIENTED_EDGE('',*,*,#262,.T.);
#23=ORIENTED_EDGE('',*,*,#263,.F.);
#24=ORIENTED_EDGE('',*,*,#264,.F.);
#25=ORIENTED_EDGE('',*,*,#265,.T.);
#26=ORIENTED_EDGE('',*,*,#260,.F.);
#27=ORIENTED_EDGE('',*,*,#266,.T.);
#28=ORIENTED_EDGE('',*,*,#262,.F.);
#29=ORIENTED_EDGE('',*,*,#267,.T.);
#30=ORIENTED_EDGE('',*,*,#268,.T.);
#31=ORIENTED_EDGE('',*,*,#269,.T.);
#32=ORIENTED_EDGE('',*,*,#270,.F.);
#33=ORIENTED_EDGE('',*,*,#271,.T.);
#34=ORIENTED_EDGE('',*,*,#264,.T.);
#35=ORIENTED_EDGE('',*,*,#272,.T.);
#36=ORIENTED_EDGE('',*,*,#268,.F.);
#37=ORIENTED_EDGE('',*,*,#273,.T.);
#38=ORIENTED_EDGE('',*,*,#274,.T.);
#39=ORIENTED_EDGE('',*,*,#275,.T.);
#40=ORIENTED_EDGE('',*,*,#276,.T.);
#41=ORIENTED_EDGE('',*,*,#277,.F.);
#42=ORIENTED_EDGE('',*,*,#278,.F.);
#43=ORIENTED_EDGE('',*,*,#279,.F.);
#44=ORIENTED_EDGE('',*,*,#280,.T.);
#45=ORIENTED_EDGE('',*,*,#281,.F.);
#46=ORIENTED_EDGE('',*,*,#282,.F.);
#47=ORIENTED_EDGE('',*,*,#283,.F.);
#48=ORIENTED_EDGE('',*,*,#284,.F.);
#49=ORIENTED_EDGE('',*,*,#285,.F.);
#50=ORIENTED_EDGE('',*,*,#286,.F.);
#51=ORIENTED_EDGE('',*,*,#287,.F.);
#52=ORIENTED_EDGE('',*,*,#288,.F.);
#53=ORIENTED_EDGE('',*,*,#289,.F.);
#54=ORIENTED_EDGE('',*,*,#290,.T.);
#55=ORIENTED_EDGE('',*,*,#291,.T.);
#56=ORIENTED_EDGE('',*,*,#292,.T.);
#57=ORIENTED_EDGE('',*,*,#293,.T.);
#58=ORIENTED_EDGE('',*,*,#283,.T.);
#59=ORIENTED_EDGE('',*,*,#294,.T.);
#60=ORIENTED_EDGE('',*,*,#295,.F.);
#61=ORIENTED_EDGE('',*,*,#296,.T.);
#62=ORIENTED_EDGE('',*,*,#297,.T.);
#63=ORIENTED_EDGE('',*,*,#298,.T.);
#64=ORIENTED_EDGE('',*,*,#299,.T.);
#65=ORIENTED_EDGE('',*,*,#270,.T.);
#66=ORIENTED_EDGE('',*,*,#300,.F.);
#67=ORIENTED_EDGE('',*,*,#279,.T.);
#68=ORIENTED_EDGE('',*,*,#301,.T.);
#69=ORIENTED_EDGE('',*,*,#302,.T.);
#70=ORIENTED_EDGE('',*,*,#303,.F.);
#71=ORIENTED_EDGE('',*,*,#304,.T.);
#72=ORIENTED_EDGE('',*,*,#305,.T.);
#73=ORIENTED_EDGE('',*,*,#306,.T.);
#74=ORIENTED_EDGE('',*,*,#263,.T.);
#75=ORIENTED_EDGE('',*,*,#269,.F.);
#76=ORIENTED_EDGE('',*,*,#275,.F.);
#77=ORIENTED_EDGE('',*,*,#307,.F.);
#78=ORIENTED_EDGE('',*,*,#297,.F.);
#79=ORIENTED_EDGE('',*,*,#308,.F.);
#80=ORIENTED_EDGE('',*,*,#309,.F.);
#81=ORIENTED_EDGE('',*,*,#310,.F.);
#82=ORIENTED_EDGE('',*,*,#276,.F.);
#83=ORIENTED_EDGE('',*,*,#300,.T.);
#84=ORIENTED_EDGE('',*,*,#272,.F.);
#85=ORIENTED_EDGE('',*,*,#266,.F.);
#86=ORIENTED_EDGE('',*,*,#274,.F.);
#87=ORIENTED_EDGE('',*,*,#311,.F.);
#88=ORIENTED_EDGE('',*,*,#312,.F.);
#89=ORIENTED_EDGE('',*,*,#313,.F.);
#90=ORIENTED_EDGE('',*,*,#314,.F.);
#91=ORIENTED_EDGE('',*,*,#315,.T.);
#92=ORIENTED_EDGE('',*,*,#316,.F.);
#93=ORIENTED_EDGE('',*,*,#317,.F.);
#94=ORIENTED_EDGE('',*,*,#298,.F.);
#95=ORIENTED_EDGE('',*,*,#307,.T.);
#96=ORIENTED_EDGE('',*,*,#318,.T.);
#97=ORIENTED_EDGE('',*,*,#319,.F.);
#98=ORIENTED_EDGE('',*,*,#320,.T.);
#99=ORIENTED_EDGE('',*,*,#321,.T.);
#100=ORIENTED_EDGE('',*,*,#294,.F.);
#101=ORIENTED_EDGE('',*,*,#282,.T.);
#102=ORIENTED_EDGE('',*,*,#322,.T.);
#103=ORIENTED_EDGE('',*,*,#323,.T.);
#104=ORIENTED_EDGE('',*,*,#324,.T.);
#105=ORIENTED_EDGE('',*,*,#325,.T.);
#106=ORIENTED_EDGE('',*,*,#286,.T.);
#107=ORIENTED_EDGE('',*,*,#326,.T.);
#108=ORIENTED_EDGE('',*,*,#325,.F.);
#109=ORIENTED_EDGE('',*,*,#327,.T.);
#110=ORIENTED_EDGE('',*,*,#328,.T.);
#111=ORIENTED_EDGE('',*,*,#287,.T.);
#112=ORIENTED_EDGE('',*,*,#329,.T.);
#113=ORIENTED_EDGE('',*,*,#330,.F.);
#114=ORIENTED_EDGE('',*,*,#331,.T.);
#115=ORIENTED_EDGE('',*,*,#332,.T.);
#116=ORIENTED_EDGE('',*,*,#278,.T.);
#117=ORIENTED_EDGE('',*,*,#333,.T.);
#118=ORIENTED_EDGE('',*,*,#334,.T.);
#119=ORIENTED_EDGE('',*,*,#335,.T.);
#120=ORIENTED_EDGE('',*,*,#295,.T.);
#121=ORIENTED_EDGE('',*,*,#317,.T.);
#122=ORIENTED_EDGE('',*,*,#336,.F.);
#123=ORIENTED_EDGE('',*,*,#301,.F.);
#124=ORIENTED_EDGE('',*,*,#337,.T.);
#125=ORIENTED_EDGE('',*,*,#338,.T.);
#126=ORIENTED_EDGE('',*,*,#280,.F.);
#127=ORIENTED_EDGE('',*,*,#293,.F.);
#128=ORIENTED_EDGE('',*,*,#339,.T.);
#129=ORIENTED_EDGE('',*,*,#288,.T.);
#130=ORIENTED_EDGE('',*,*,#328,.F.);
#131=ORIENTED_EDGE('',*,*,#340,.T.);
#132=ORIENTED_EDGE('',*,*,#341,.F.);
#133=ORIENTED_EDGE('',*,*,#342,.F.);
#134=ORIENTED_EDGE('',*,*,#289,.T.);
#135=ORIENTED_EDGE('',*,*,#339,.F.);
#136=ORIENTED_EDGE('',*,*,#292,.F.);
#137=ORIENTED_EDGE('',*,*,#343,.F.);
#138=ORIENTED_EDGE('',*,*,#344,.F.);
#139=ORIENTED_EDGE('',*,*,#345,.F.);
#140=ORIENTED_EDGE('',*,*,#302,.F.);
#141=ORIENTED_EDGE('',*,*,#336,.T.);
#142=ORIENTED_EDGE('',*,*,#316,.T.);
#143=ORIENTED_EDGE('',*,*,#346,.F.);
#144=ORIENTED_EDGE('',*,*,#347,.T.);
#145=ORIENTED_EDGE('',*,*,#348,.F.);
#146=ORIENTED_EDGE('',*,*,#349,.T.);
#147=ORIENTED_EDGE('',*,*,#350,.T.);
#148=ORIENTED_EDGE('',*,*,#330,.T.);
#149=ORIENTED_EDGE('',*,*,#351,.T.);
#150=ORIENTED_EDGE('',*,*,#350,.F.);
#151=ORIENTED_EDGE('',*,*,#352,.T.);
#152=ORIENTED_EDGE('',*,*,#353,.T.);
#153=ORIENTED_EDGE('',*,*,#354,.T.);
#154=ORIENTED_EDGE('',*,*,#332,.F.);
#155=ORIENTED_EDGE('',*,*,#355,.T.);
#156=ORIENTED_EDGE('',*,*,#319,.T.);
#157=ORIENTED_EDGE('',*,*,#356,.T.);
#158=ORIENTED_EDGE('',*,*,#353,.F.);
#159=ORIENTED_EDGE('',*,*,#357,.T.);
#160=ORIENTED_EDGE('',*,*,#291,.F.);
#161=ORIENTED_EDGE('',*,*,#358,.T.);
#162=ORIENTED_EDGE('',*,*,#359,.T.);
#163=ORIENTED_EDGE('',*,*,#343,.T.);
#164=ORIENTED_EDGE('',*,*,#349,.F.);
#165=ORIENTED_EDGE('',*,*,#360,.T.);
#166=ORIENTED_EDGE('',*,*,#361,.F.);
#167=ORIENTED_EDGE('',*,*,#362,.T.);
#168=ORIENTED_EDGE('',*,*,#344,.T.);
#169=ORIENTED_EDGE('',*,*,#359,.F.);
#170=ORIENTED_EDGE('',*,*,#363,.F.);
#171=ORIENTED_EDGE('',*,*,#320,.F.);
#172=ORIENTED_EDGE('',*,*,#357,.F.);
#173=ORIENTED_EDGE('',*,*,#355,.F.);
#174=ORIENTED_EDGE('',*,*,#331,.F.);
#175=ORIENTED_EDGE('',*,*,#352,.F.);
#176=ORIENTED_EDGE('',*,*,#362,.F.);
#177=ORIENTED_EDGE('',*,*,#364,.T.);
#178=ORIENTED_EDGE('',*,*,#303,.T.);
#179=ORIENTED_EDGE('',*,*,#345,.T.);
#180=ORIENTED_EDGE('',*,*,#365,.F.);
#181=ORIENTED_EDGE('',*,*,#366,.T.);
#182=ORIENTED_EDGE('',*,*,#284,.T.);
#183=ORIENTED_EDGE('',*,*,#342,.T.);
#184=ORIENTED_EDGE('',*,*,#315,.F.);
#185=ORIENTED_EDGE('',*,*,#367,.T.);
#186=ORIENTED_EDGE('',*,*,#368,.T.);
#187=ORIENTED_EDGE('',*,*,#346,.T.);
#188=ORIENTED_EDGE('',*,*,#369,.T.);
#189=ORIENTED_EDGE('',*,*,#370,.T.);
#190=ORIENTED_EDGE('',*,*,#347,.F.);
#191=ORIENTED_EDGE('',*,*,#351,.F.);
#192=ORIENTED_EDGE('',*,*,#329,.F.);
#193=ORIENTED_EDGE('',*,*,#354,.F.);
#194=ORIENTED_EDGE('',*,*,#356,.F.);
#195=ORIENTED_EDGE('',*,*,#318,.F.);
#196=ORIENTED_EDGE('',*,*,#371,.T.);
#197=ORIENTED_EDGE('',*,*,#365,.T.);
#198=ORIENTED_EDGE('',*,*,#341,.T.);
#199=ORIENTED_EDGE('',*,*,#368,.F.);
#200=ORIENTED_EDGE('',*,*,#372,.F.);
#201=ORIENTED_EDGE('',*,*,#323,.F.);
#202=ORIENTED_EDGE('',*,*,#373,.T.);
#203=ORIENTED_EDGE('',*,*,#337,.F.);
#204=ORIENTED_EDGE('',*,*,#327,.F.);
#205=ORIENTED_EDGE('',*,*,#324,.F.);
#206=ORIENTED_EDGE('',*,*,#372,.T.);
#207=ORIENTED_EDGE('',*,*,#340,.F.);
#208=ORIENTED_EDGE('',*,*,#373,.F.);
#209=ORIENTED_EDGE('',*,*,#322,.F.);
#210=ORIENTED_EDGE('',*,*,#281,.T.);
#211=ORIENTED_EDGE('',*,*,#338,.F.);
#212=ORIENTED_EDGE('',*,*,#277,.T.);
#213=ORIENTED_EDGE('',*,*,#310,.T.);
#214=ORIENTED_EDGE('',*,*,#374,.F.);
#215=ORIENTED_EDGE('',*,*,#333,.F.);
#216=ORIENTED_EDGE('',*,*,#375,.T.);
#217=ORIENTED_EDGE('',*,*,#308,.T.);
#218=ORIENTED_EDGE('',*,*,#296,.F.);
#219=ORIENTED_EDGE('',*,*,#335,.F.);
#220=ORIENTED_EDGE('',*,*,#374,.T.);
#221=ORIENTED_EDGE('',*,*,#309,.T.);
#222=ORIENTED_EDGE('',*,*,#375,.F.);
#223=ORIENTED_EDGE('',*,*,#334,.F.);
#224=ORIENTED_EDGE('',*,*,#361,.T.);
#225=ORIENTED_EDGE('',*,*,#376,.T.);
#226=ORIENTED_EDGE('',*,*,#304,.F.);
#227=ORIENTED_EDGE('',*,*,#364,.F.);
#228=ORIENTED_EDGE('',*,*,#290,.F.);
#229=ORIENTED_EDGE('',*,*,#321,.F.);
#230=ORIENTED_EDGE('',*,*,#363,.T.);
#231=ORIENTED_EDGE('',*,*,#358,.F.);
#232=ORIENTED_EDGE('',*,*,#314,.T.);
#233=ORIENTED_EDGE('',*,*,#377,.T.);
#234=ORIENTED_EDGE('',*,*,#369,.F.);
#235=ORIENTED_EDGE('',*,*,#367,.F.);
#236=ORIENTED_EDGE('',*,*,#371,.F.);
#237=ORIENTED_EDGE('',*,*,#326,.F.);
#238=ORIENTED_EDGE('',*,*,#285,.T.);
#239=ORIENTED_EDGE('',*,*,#366,.F.);
#240=ORIENTED_EDGE('',*,*,#271,.F.);
#241=ORIENTED_EDGE('',*,*,#299,.F.);
#242=ORIENTED_EDGE('',*,*,#378,.T.);
#243=ORIENTED_EDGE('',*,*,#311,.T.);
#244=ORIENTED_EDGE('',*,*,#273,.F.);
#245=ORIENTED_EDGE('',*,*,#267,.F.);
#246=ORIENTED_EDGE('',*,*,#261,.F.);
#247=ORIENTED_EDGE('',*,*,#265,.F.);
#248=ORIENTED_EDGE('',*,*,#348,.T.);
#249=ORIENTED_EDGE('',*,*,#370,.F.);
#250=ORIENTED_EDGE('',*,*,#377,.F.);
#251=ORIENTED_EDGE('',*,*,#313,.T.);
#252=ORIENTED_EDGE('',*,*,#379,.F.);
#253=ORIENTED_EDGE('',*,*,#305,.F.);
#254=ORIENTED_EDGE('',*,*,#376,.F.);
#255=ORIENTED_EDGE('',*,*,#360,.F.);
#256=ORIENTED_EDGE('',*,*,#312,.T.);
#257=ORIENTED_EDGE('',*,*,#378,.F.);
#258=ORIENTED_EDGE('',*,*,#306,.F.);
#259=ORIENTED_EDGE('',*,*,#379,.T.);
#260=EDGE_CURVE('',#380,#381,#460,.T.);
#261=EDGE_CURVE('',#381,#382,#461,.T.);
#262=EDGE_CURVE('',#382,#383,#462,.T.);
#263=EDGE_CURVE('',#380,#383,#463,.T.);
#264=EDGE_CURVE('',#384,#385,#464,.T.);
#265=EDGE_CURVE('',#384,#381,#465,.T.);
#266=EDGE_CURVE('',#380,#385,#466,.T.);
#267=EDGE_CURVE('',#382,#386,#467,.T.);
#268=EDGE_CURVE('',#386,#387,#468,.T.);
#269=EDGE_CURVE('',#387,#383,#469,.T.);
#270=EDGE_CURVE('',#388,#389,#470,.T.);
#271=EDGE_CURVE('',#388,#384,#471,.T.);
#272=EDGE_CURVE('',#385,#389,#472,.T.);
#273=EDGE_CURVE('',#386,#390,#473,.T.);
#274=EDGE_CURVE('',#390,#391,#474,.T.);
#275=EDGE_CURVE('',#391,#387,#475,.T.);
#276=EDGE_CURVE('',#392,#393,#476,.T.);
#277=EDGE_CURVE('',#394,#393,#477,.T.);
#278=EDGE_CURVE('',#395,#394,#478,.T.);
#279=EDGE_CURVE('',#392,#395,#479,.T.);
#280=EDGE_CURVE('',#396,#397,#480,.T.);
#281=EDGE_CURVE('',#398,#397,#481,.T.);
#282=EDGE_CURVE('',#399,#398,#482,.T.);
#283=EDGE_CURVE('',#396,#399,#483,.T.);
#284=EDGE_CURVE('',#400,#401,#484,.T.);
#285=EDGE_CURVE('',#402,#400,#485,.T.);
#286=EDGE_CURVE('',#403,#402,#486,.T.);
#287=EDGE_CURVE('',#404,#403,#487,.T.);
#288=EDGE_CURVE('',#405,#404,#488,.T.);
#289=EDGE_CURVE('',#401,#405,#489,.T.);
#290=EDGE_CURVE('',#406,#407,#490,.T.);
#291=EDGE_CURVE('',#407,#408,#491,.T.);
#292=EDGE_CURVE('',#408,#409,#492,.T.);
#293=EDGE_CURVE('',#409,#396,#493,.T.);
#294=EDGE_CURVE('',#399,#406,#494,.T.);
#295=EDGE_CURVE('',#410,#411,#495,.T.);
#296=EDGE_CURVE('',#410,#412,#496,.T.);
#297=EDGE_CURVE('',#412,#413,#497,.T.);
#298=EDGE_CURVE('',#413,#411,#498,.T.);
#299=EDGE_CURVE('',#414,#388,#499,.T.);
#300=EDGE_CURVE('',#392,#389,#500,.T.);
#301=EDGE_CURVE('',#395,#415,#501,.T.);
#302=EDGE_CURVE('',#415,#416,#502,.T.);
#303=EDGE_CURVE('',#417,#416,#503,.T.);
#304=EDGE_CURVE('',#417,#418,#504,.T.);
#305=EDGE_CURVE('',#418,#419,#505,.T.);
#306=EDGE_CURVE('',#419,#414,#506,.T.);
#307=EDGE_CURVE('',#413,#391,#507,.T.);
#308=EDGE_CURVE('',#420,#412,#508,.T.);
#309=EDGE_CURVE('',#421,#420,#509,.T.);
#310=EDGE_CURVE('',#393,#421,#510,.T.);
#311=EDGE_CURVE('',#422,#390,#511,.T.);
#312=EDGE_CURVE('',#423,#422,#512,.T.);
#313=EDGE_CURVE('',#424,#423,#513,.T.);
#314=EDGE_CURVE('',#425,#424,#514,.T.);
#315=EDGE_CURVE('',#425,#426,#515,.T.);
#316=EDGE_CURVE('',#427,#426,#516,.T.);
#317=EDGE_CURVE('',#411,#427,#517,.T.);
#318=EDGE_CURVE('',#428,#429,#518,.T.);
#319=EDGE_CURVE('',#430,#429,#519,.T.);
#320=EDGE_CURVE('',#430,#431,#520,.T.);
#321=EDGE_CURVE('',#431,#406,#521,.T.);
#322=EDGE_CURVE('',#398,#432,#522,.T.);
#323=EDGE_CURVE('',#432,#433,#523,.T.);
#324=EDGE_CURVE('',#433,#434,#524,.T.);
#325=EDGE_CURVE('',#434,#403,#525,.T.);
#326=EDGE_CURVE('',#402,#428,#526,.T.);
#327=EDGE_CURVE('',#434,#435,#527,.T.);
#328=EDGE_CURVE('',#435,#404,#528,.T.);
#329=EDGE_CURVE('',#436,#437,#529,.T.);
#330=EDGE_CURVE('',#438,#437,#530,.T.);
#331=EDGE_CURVE('',#438,#439,#531,.T.);
#332=EDGE_CURVE('',#439,#436,#532,.T.);
#333=EDGE_CURVE('',#394,#440,#533,.T.);
#334=EDGE_CURVE('',#440,#441,#534,.T.);
#335=EDGE_CURVE('',#441,#410,#535,.T.);
#336=EDGE_CURVE('',#415,#427,#536,.T.);
#337=EDGE_CURVE('',#442,#443,#537,.T.);
#338=EDGE_CURVE('',#443,#397,#538,.T.);
#339=EDGE_CURVE('',#409,#405,#539,.T.);
#340=EDGE_CURVE('',#435,#442,#540,.T.);
#341=EDGE_CURVE('',#444,#445,#541,.T.);
#342=EDGE_CURVE('',#401,#444,#542,.T.);
#343=EDGE_CURVE('',#446,#408,#543,.T.);
#344=EDGE_CURVE('',#447,#446,#544,.T.);
#345=EDGE_CURVE('',#416,#447,#545,.T.);
#346=EDGE_CURVE('',#445,#426,#546,.T.);
#347=EDGE_CURVE('',#448,#449,#547,.T.);
#348=EDGE_CURVE('',#450,#449,#548,.T.);
#349=EDGE_CURVE('',#450,#451,#549,.T.);
#350=EDGE_CURVE('',#451,#448,#550,.T.);
#351=EDGE_CURVE('',#437,#448,#551,.T.);
#352=EDGE_CURVE('',#451,#438,#552,.T.);
#353=EDGE_CURVE('',#452,#453,#553,.T.);
#354=EDGE_CURVE('',#453,#436,#554,.T.);
#355=EDGE_CURVE('',#439,#452,#555,.T.);
#356=EDGE_CURVE('',#429,#453,#556,.T.);
#357=EDGE_CURVE('',#452,#430,#557,.T.);
#358=EDGE_CURVE('',#407,#454,#558,.T.);
#359=EDGE_CURVE('',#454,#446,#559,.T.);
#360=EDGE_CURVE('',#450,#455,#560,.T.);
#361=EDGE_CURVE('',#456,#455,#561,.T.);
#362=EDGE_CURVE('',#456,#447,#562,.T.);
#363=EDGE_CURVE('',#431,#454,#563,.T.);
#364=EDGE_CURVE('',#456,#417,#564,.T.);
#365=EDGE_CURVE('',#457,#444,#565,.T.);
#366=EDGE_CURVE('',#457,#400,#566,.T.);
#367=EDGE_CURVE('',#425,#458,#567,.T.);
#368=EDGE_CURVE('',#458,#445,#568,.T.);
#369=EDGE_CURVE('',#458,#459,#569,.T.);
#370=EDGE_CURVE('',#459,#449,#570,.T.);
#371=EDGE_CURVE('',#428,#457,#571,.T.);
#372=EDGE_CURVE('',#433,#442,#572,.T.);
#373=EDGE_CURVE('',#432,#443,#573,.T.);
#374=EDGE_CURVE('',#440,#421,#574,.T.);
#375=EDGE_CURVE('',#441,#420,#575,.T.);
#376=EDGE_CURVE('',#455,#418,#576,.T.);
#377=EDGE_CURVE('',#424,#459,#577,.T.);
#378=EDGE_CURVE('',#414,#422,#578,.T.);
#379=EDGE_CURVE('',#419,#423,#579,.T.);
#380=VERTEX_POINT('',#1124);
#381=VERTEX_POINT('',#1125);
#382=VERTEX_POINT('',#1127);
#383=VERTEX_POINT('',#1129);
#384=VERTEX_POINT('',#1133);
#385=VERTEX_POINT('',#1134);
#386=VERTEX_POINT('',#1139);
#387=VERTEX_POINT('',#1141);
#388=VERTEX_POINT('',#1145);
#389=VERTEX_POINT('',#1146);
#390=VERTEX_POINT('',#1151);
#391=VERTEX_POINT('',#1153);
#392=VERTEX_POINT('',#1157);
#393=VERTEX_POINT('',#1158);
#394=VERTEX_POINT('',#1160);
#395=VERTEX_POINT('',#1162);
#396=VERTEX_POINT('',#1166);
#397=VERTEX_POINT('',#1167);
#398=VERTEX_POINT('',#1169);
#399=VERTEX_POINT('',#1171);
#400=VERTEX_POINT('',#1175);
#401=VERTEX_POINT('',#1176);
#402=VERTEX_POINT('',#1178);
#403=VERTEX_POINT('',#1180);
#404=VERTEX_POINT('',#1182);
#405=VERTEX_POINT('',#1184);
#406=VERTEX_POINT('',#1188);
#407=VERTEX_POINT('',#1189);
#408=VERTEX_POINT('',#1191);
#409=VERTEX_POINT('',#1193);
#410=VERTEX_POINT('',#1198);
#411=VERTEX_POINT('',#1199);
#412=VERTEX_POINT('',#1201);
#413=VERTEX_POINT('',#1203);
#414=VERTEX_POINT('',#1207);
#415=VERTEX_POINT('',#1210);
#416=VERTEX_POINT('',#1212);
#417=VERTEX_POINT('',#1214);
#418=VERTEX_POINT('',#1216);
#419=VERTEX_POINT('',#1218);
#420=VERTEX_POINT('',#1223);
#421=VERTEX_POINT('',#1225);
#422=VERTEX_POINT('',#1229);
#423=VERTEX_POINT('',#1231);
#424=VERTEX_POINT('',#1233);
#425=VERTEX_POINT('',#1235);
#426=VERTEX_POINT('',#1237);
#427=VERTEX_POINT('',#1239);
#428=VERTEX_POINT('',#1243);
#429=VERTEX_POINT('',#1244);
#430=VERTEX_POINT('',#1246);
#431=VERTEX_POINT('',#1248);
#432=VERTEX_POINT('',#1251);
#433=VERTEX_POINT('',#1253);
#434=VERTEX_POINT('',#1255);
#435=VERTEX_POINT('',#1260);
#436=VERTEX_POINT('',#1264);
#437=VERTEX_POINT('',#1265);
#438=VERTEX_POINT('',#1267);
#439=VERTEX_POINT('',#1269);
#440=VERTEX_POINT('',#1273);
#441=VERTEX_POINT('',#1275);
#442=VERTEX_POINT('',#1280);
#443=VERTEX_POINT('',#1281);
#444=VERTEX_POINT('',#1287);
#445=VERTEX_POINT('',#1288);
#446=VERTEX_POINT('',#1291);
#447=VERTEX_POINT('',#1293);
#448=VERTEX_POINT('',#1298);
#449=VERTEX_POINT('',#1299);
#450=VERTEX_POINT('',#1301);
#451=VERTEX_POINT('',#1303);
#452=VERTEX_POINT('',#1310);
#453=VERTEX_POINT('',#1311);
#454=VERTEX_POINT('',#1319);
#455=VERTEX_POINT('',#1323);
#456=VERTEX_POINT('',#1325);
#457=VERTEX_POINT('',#1332);
#458=VERTEX_POINT('',#1336);
#459=VERTEX_POINT('',#1340);
#460=LINE('',#1123,#580);
#461=LINE('',#1126,#581);
#462=LINE('',#1128,#582);
#463=LINE('',#1130,#583);
#464=LINE('',#1132,#584);
#465=LINE('',#1135,#585);
#466=LINE('',#1136,#586);
#467=LINE('',#1138,#587);
#468=LINE('',#1140,#588);
#469=LINE('',#1142,#589);
#470=LINE('',#1144,#590);
#471=LINE('',#1147,#591);
#472=LINE('',#1148,#592);
#473=LINE('',#1150,#593);
#474=LINE('',#1152,#594);
#475=LINE('',#1154,#595);
#476=LINE('',#1156,#596);
#477=LINE('',#1159,#597);
#478=LINE('',#1161,#598);
#479=LINE('',#1163,#599);
#480=LINE('',#1165,#600);
#481=LINE('',#1168,#601);
#482=LINE('',#1170,#602);
#483=LINE('',#1172,#603);
#484=LINE('',#1174,#604);
#485=LINE('',#1177,#605);
#486=LINE('',#1179,#606);
#487=LINE('',#1181,#607);
#488=LINE('',#1183,#608);
#489=LINE('',#1185,#609);
#490=LINE('',#1187,#610);
#491=LINE('',#1190,#611);
#492=LINE('',#1192,#612);
#493=LINE('',#1194,#613);
#494=LINE('',#1195,#614);
#495=LINE('',#1197,#615);
#496=LINE('',#1200,#616);
#497=LINE('',#1202,#617);
#498=LINE('',#1204,#618);
#499=LINE('',#1206,#619);
#500=LINE('',#1208,#620);
#501=LINE('',#1209,#621);
#502=LINE('',#1211,#622);
#503=LINE('',#1213,#623);
#504=LINE('',#1215,#624);
#505=LINE('',#1217,#625);
#506=LINE('',#1219,#626);
#507=LINE('',#1221,#627);
#508=LINE('',#1222,#628);
#509=LINE('',#1224,#629);
#510=LINE('',#1226,#630);
#511=LINE('',#1228,#631);
#512=LINE('',#1230,#632);
#513=LINE('',#1232,#633);
#514=LINE('',#1234,#634);
#515=LINE('',#1236,#635);
#516=LINE('',#1238,#636);
#517=LINE('',#1240,#637);
#518=LINE('',#1242,#638);
#519=LINE('',#1245,#639);
#520=LINE('',#1247,#640);
#521=LINE('',#1249,#641);
#522=LINE('',#1250,#642);
#523=LINE('',#1252,#643);
#524=LINE('',#1254,#644);
#525=LINE('',#1256,#645);
#526=LINE('',#1257,#646);
#527=LINE('',#1259,#647);
#528=LINE('',#1261,#648);
#529=LINE('',#1263,#649);
#530=LINE('',#1266,#650);
#531=LINE('',#1268,#651);
#532=LINE('',#1270,#652);
#533=LINE('',#1272,#653);
#534=LINE('',#1274,#654);
#535=LINE('',#1276,#655);
#536=LINE('',#1277,#656);
#537=LINE('',#1279,#657);
#538=LINE('',#1282,#658);
#539=LINE('',#1283,#659);
#540=LINE('',#1284,#660);
#541=LINE('',#1286,#661);
#542=LINE('',#1289,#662);
#543=LINE('',#1290,#663);
#544=LINE('',#1292,#664);
#545=LINE('',#1294,#665);
#546=LINE('',#1295,#666);
#547=LINE('',#1297,#667);
#548=LINE('',#1300,#668);
#549=LINE('',#1302,#669);
#550=LINE('',#1304,#670);
#551=LINE('',#1306,#671);
#552=LINE('',#1307,#672);
#553=LINE('',#1309,#673);
#554=LINE('',#1312,#674);
#555=LINE('',#1313,#675);
#556=LINE('',#1315,#676);
#557=LINE('',#1316,#677);
#558=LINE('',#1318,#678);
#559=LINE('',#1320,#679);
#560=LINE('',#1322,#680);
#561=LINE('',#1324,#681);
#562=LINE('',#1326,#682);
#563=LINE('',#1327,#683);
#564=LINE('',#1329,#684);
#565=LINE('',#1331,#685);
#566=LINE('',#1333,#686);
#567=LINE('',#1335,#687);
#568=LINE('',#1337,#688);
#569=LINE('',#1339,#689);
#570=LINE('',#1341,#690);
#571=LINE('',#1342,#691);
#572=LINE('',#1344,#692);
#573=LINE('',#1345,#693);
#574=LINE('',#1349,#694);
#575=LINE('',#1351,#695);
#576=LINE('',#1354,#696);
#577=LINE('',#1357,#697);
#578=LINE('',#1360,#698);
#579=LINE('',#1362,#699);
#580=VECTOR('',#919,1.);
#581=VECTOR('',#920,1.);
#582=VECTOR('',#921,1.);
#583=VECTOR('',#922,1.);
#584=VECTOR('',#925,1.);
#585=VECTOR('',#926,1.);
#586=VECTOR('',#927,1.);
#587=VECTOR('',#930,1.);
#588=VECTOR('',#931,1.);
#589=VECTOR('',#932,1.);
#590=VECTOR('',#935,1.);
#591=VECTOR('',#936,1.);
#592=VECTOR('',#937,1.);
#593=VECTOR('',#940,1.);
#594=VECTOR('',#941,1.);
#595=VECTOR('',#942,1.);
#596=VECTOR('',#945,1.);
#597=VECTOR('',#946,1.);
#598=VECTOR('',#947,1.);
#599=VECTOR('',#948,1.);
#600=VECTOR('',#951,1.);
#601=VECTOR('',#952,1.);
#602=VECTOR('',#953,1.);
#603=VECTOR('',#954,1.);
#604=VECTOR('',#957,1.);
#605=VECTOR('',#958,1.);
#606=VECTOR('',#959,1.);
#607=VECTOR('',#960,1.);
#608=VECTOR('',#961,1.);
#609=VECTOR('',#962,1.);
#610=VECTOR('',#965,1.);
#611=VECTOR('',#966,1.);
#612=VECTOR('',#967,1.);
#613=VECTOR('',#968,1.);
#614=VECTOR('',#969,1.);
#615=VECTOR('',#972,1.);
#616=VECTOR('',#973,1.);
#617=VECTOR('',#974,1.);
#618=VECTOR('',#975,1.);
#619=VECTOR('',#978,1.);
#620=VECTOR('',#979,1.);
#621=VECTOR('',#980,1.);
#622=VECTOR('',#981,1.);
#623=VECTOR('',#982,1.);
#624=VECTOR('',#983,1.);
#625=VECTOR('',#984,1.);
#626=VECTOR('',#985,1.);
#627=VECTOR('',#988,1.);
#628=VECTOR('',#989,1.);
#629=VECTOR('',#990,1.);
#630=VECTOR('',#991,1.);
#631=VECTOR('',#994,1.);
#632=VECTOR('',#995,1.);
#633=VECTOR('',#996,1.);
#634=VECTOR('',#997,1.);
#635=VECTOR('',#998,1.);
#636=VECTOR('',#999,1.);
#637=VECTOR('',#1000,1.);
#638=VECTOR('',#1003,1.);
#639=VECTOR('',#1004,1.);
#640=VECTOR('',#1005,1.);
#641=VECTOR('',#1006,1.);
#642=VECTOR('',#1007,1.);
#643=VECTOR('',#1008,1.);
#644=VECTOR('',#1009,1.);
#645=VECTOR('',#1010,1.);
#646=VECTOR('',#1011,1.);
#647=VECTOR('',#1014,1.);
#648=VECTOR('',#1015,1.);
#649=VECTOR('',#1018,1.);
#650=VECTOR('',#1019,1.);
#651=VECTOR('',#1020,1.);
#652=VECTOR('',#1021,1.);
#653=VECTOR('',#1024,1.);
#654=VECTOR('',#1025,1.);
#655=VECTOR('',#1026,1.);
#656=VECTOR('',#1027,1.);
#657=VECTOR('',#1030,1.);
#658=VECTOR('',#1031,1.);
#659=VECTOR('',#1032,1.);
#660=VECTOR('',#1033,1.);
#661=VECTOR('',#1036,1.);
#662=VECTOR('',#1037,1.);
#663=VECTOR('',#1038,1.);
#664=VECTOR('',#1039,1.);
#665=VECTOR('',#1040,1.);
#666=VECTOR('',#1041,1.);
#667=VECTOR('',#1044,1.);
#668=VECTOR('',#1045,1.);
#669=VECTOR('',#1046,1.);
#670=VECTOR('',#1047,1.);
#671=VECTOR('',#1050,1.);
#672=VECTOR('',#1051,1.);
#673=VECTOR('',#1054,1.);
#674=VECTOR('',#1055,1.);
#675=VECTOR('',#1056,1.);
#676=VECTOR('',#1059,1.);
#677=VECTOR('',#1060,1.);
#678=VECTOR('',#1063,1.);
#679=VECTOR('',#1064,1.);
#680=VECTOR('',#1067,1.);
#681=VECTOR('',#1068,1.);
#682=VECTOR('',#1069,1.);
#683=VECTOR('',#1070,1.);
#684=VECTOR('',#1073,1.);
#685=VECTOR('',#1076,1.);
#686=VECTOR('',#1077,1.);
#687=VECTOR('',#1080,1.);
#688=VECTOR('',#1081,1.);
#689=VECTOR('',#1084,1.);
#690=VECTOR('',#1085,1.);
#691=VECTOR('',#1086,1.);
#692=VECTOR('',#1089,1.);
#693=VECTOR('',#1090,1.);
#694=VECTOR('',#1097,1.);
#695=VECTOR('',#1100,1.);
#696=VECTOR('',#1105,1.);
#697=VECTOR('',#1110,1.);
#698=VECTOR('',#1115,1.);
#699=VECTOR('',#1118,1.);
#700=EDGE_LOOP('',(#20,#21,#22,#23));
#701=EDGE_LOOP('',(#24,#25,#26,#27));
#702=EDGE_LOOP('',(#28,#29,#30,#31));
#703=EDGE_LOOP('',(#32,#33,#34,#35));
#704=EDGE_LOOP('',(#36,#37,#38,#39));
#705=EDGE_LOOP('',(#40,#41,#42,#43));
#706=EDGE_LOOP('',(#44,#45,#46,#47));
#707=EDGE_LOOP('',(#48,#49,#50,#51,#52,#53));
#708=EDGE_LOOP('',(#54,#55,#56,#57,#58,#59));
#709=EDGE_LOOP('',(#60,#61,#62,#63));
#710=EDGE_LOOP('',(#64,#65,#66,#67,#68,#69,#70,#71,#72,#73));
#711=EDGE_LOOP('',(#74,#75,#76,#77,#78,#79,#80,#81,#82,#83,#84,#85));
#712=EDGE_LOOP('',(#86,#87,#88,#89,#90,#91,#92,#93,#94,#95));
#713=EDGE_LOOP('',(#96,#97,#98,#99,#100,#101,#102,#103,#104,#105,#106,#107));
#714=EDGE_LOOP('',(#108,#109,#110,#111));
#715=EDGE_LOOP('',(#112,#113,#114,#115));
#716=EDGE_LOOP('',(#116,#117,#118,#119,#120,#121,#122,#123));
#717=EDGE_LOOP('',(#124,#125,#126,#127,#128,#129,#130,#131));
#718=EDGE_LOOP('',(#132,#133,#134,#135,#136,#137,#138,#139,#140,#141,#142,
#143));
#719=EDGE_LOOP('',(#144,#145,#146,#147));
#720=EDGE_LOOP('',(#148,#149,#150,#151));
#721=EDGE_LOOP('',(#152,#153,#154,#155));
#722=EDGE_LOOP('',(#156,#157,#158,#159));
#723=EDGE_LOOP('',(#160,#161,#162,#163));
#724=EDGE_LOOP('',(#164,#165,#166,#167,#168,#169,#170,#171,#172,#173,#174,
#175));
#725=EDGE_LOOP('',(#176,#177,#178,#179));
#726=EDGE_LOOP('',(#180,#181,#182,#183));
#727=EDGE_LOOP('',(#184,#185,#186,#187));
#728=EDGE_LOOP('',(#188,#189,#190,#191,#192,#193,#194,#195,#196,#197,#198,
#199));
#729=EDGE_LOOP('',(#200,#201,#202,#203));
#730=EDGE_LOOP('',(#204,#205,#206,#207));
#731=EDGE_LOOP('',(#208,#209,#210,#211));
#732=EDGE_LOOP('',(#212,#213,#214,#215));
#733=EDGE_LOOP('',(#216,#217,#218,#219));
#734=EDGE_LOOP('',(#220,#221,#222,#223));
#735=EDGE_LOOP('',(#224,#225,#226,#227));
#736=EDGE_LOOP('',(#228,#229,#230,#231));
#737=EDGE_LOOP('',(#232,#233,#234,#235));
#738=EDGE_LOOP('',(#236,#237,#238,#239));
#739=EDGE_LOOP('',(#240,#241,#242,#243,#244,#245,#246,#247));
#740=EDGE_LOOP('',(#248,#249,#250,#251,#252,#253,#254,#255));
#741=EDGE_LOOP('',(#256,#257,#258,#259));
#742=FACE_BOUND('',#700,.T.);
#743=FACE_BOUND('',#701,.T.);
#744=FACE_BOUND('',#702,.T.);
#745=FACE_BOUND('',#703,.T.);
#746=FACE_BOUND('',#704,.T.);
#747=FACE_BOUND('',#705,.T.);
#748=FACE_BOUND('',#706,.T.);
#749=FACE_BOUND('',#707,.T.);
#750=FACE_BOUND('',#708,.T.);
#751=FACE_BOUND('',#709,.T.);
#752=FACE_BOUND('',#710,.T.);
#753=FACE_BOUND('',#711,.T.);
#754=FACE_BOUND('',#712,.T.);
#755=FACE_BOUND('',#713,.T.);
#756=FACE_BOUND('',#714,.T.);
#757=FACE_BOUND('',#715,.T.);
#758=FACE_BOUND('',#716,.T.);
#759=FACE_BOUND('',#717,.T.);
#760=FACE_BOUND('',#718,.T.);
#761=FACE_BOUND('',#719,.T.);
#762=FACE_BOUND('',#720,.T.);
#763=FACE_BOUND('',#721,.T.);
#764=FACE_BOUND('',#722,.T.);
#765=FACE_BOUND('',#723,.T.);
#766=FACE_BOUND('',#724,.T.);
#767=FACE_BOUND('',#725,.T.);
#768=FACE_BOUND('',#726,.T.);
#769=FACE_BOUND('',#727,.T.);
#770=FACE_BOUND('',#728,.T.);
#771=FACE_BOUND('',#729,.T.);
#772=FACE_BOUND('',#730,.T.);
#773=FACE_BOUND('',#731,.T.);
#774=FACE_BOUND('',#732,.T.);
#775=FACE_BOUND('',#733,.T.);
#776=FACE_BOUND('',#734,.T.);
#777=FACE_BOUND('',#735,.T.);
#778=FACE_BOUND('',#736,.T.);
#779=FACE_BOUND('',#737,.T.);
#780=FACE_BOUND('',#738,.T.);
#781=FACE_BOUND('',#739,.T.);
#782=FACE_BOUND('',#740,.T.);
#783=FACE_BOUND('',#741,.T.);
#784=PLANE('',#873);
#785=PLANE('',#874);
#786=PLANE('',#875);
#787=PLANE('',#876);
#788=PLANE('',#877);
#789=PLANE('',#878);
#790=PLANE('',#879);
#791=PLANE('',#880);
#792=PLANE('',#881);
#793=PLANE('',#882);
#794=PLANE('',#883);
#795=PLANE('',#884);
#796=PLANE('',#885);
#797=PLANE('',#886);
#798=PLANE('',#887);
#799=PLANE('',#888);
#800=PLANE('',#889);
#801=PLANE('',#890);
#802=PLANE('',#891);
#803=PLANE('',#892);
#804=PLANE('',#893);
#805=PLANE('',#894);
#806=PLANE('',#895);
#807=PLANE('',#896);
#808=PLANE('',#897);
#809=PLANE('',#898);
#810=PLANE('',#899);
#811=PLANE('',#900);
#812=PLANE('',#901);
#813=PLANE('',#902);
#814=PLANE('',#903);
#815=PLANE('',#904);
#816=PLANE('',#905);
#817=PLANE('',#906);
#818=PLANE('',#907);
#819=PLANE('',#908);
#820=PLANE('',#909);
#821=PLANE('',#910);
#822=PLANE('',#911);
#823=PLANE('',#912);
#824=PLANE('',#913);
#825=PLANE('',#914);
#826=ADVANCED_FACE('',(#742),#784,.F.);
#827=ADVANCED_FACE('',(#743),#785,.F.);
#828=ADVANCED_FACE('',(#744),#786,.F.);
#829=ADVANCED_FACE('',(#745),#787,.F.);
#830=ADVANCED_FACE('',(#746),#788,.F.);
#831=ADVANCED_FACE('',(#747),#789,.F.);
#832=ADVANCED_FACE('',(#748),#790,.F.);
#833=ADVANCED_FACE('',(#749),#791,.F.);
#834=ADVANCED_FACE('',(#750),#792,.T.);
#835=ADVANCED_FACE('',(#751),#793,.F.);
#836=ADVANCED_FACE('',(#752),#794,.T.);
#837=ADVANCED_FACE('',(#753),#795,.F.);
#838=ADVANCED_FACE('',(#754),#796,.F.);
#839=ADVANCED_FACE('',(#755),#797,.T.);
#840=ADVANCED_FACE('',(#756),#798,.F.);
#841=ADVANCED_FACE('',(#757),#799,.T.);
#842=ADVANCED_FACE('',(#758),#800,.F.);
#843=ADVANCED_FACE('',(#759),#801,.F.);
#844=ADVANCED_FACE('',(#760),#802,.F.);
#845=ADVANCED_FACE('',(#761),#803,.F.);
#846=ADVANCED_FACE('',(#762),#804,.F.);
#847=ADVANCED_FACE('',(#763),#805,.F.);
#848=ADVANCED_FACE('',(#764),#806,.F.);
#849=ADVANCED_FACE('',(#765),#807,.F.);
#850=ADVANCED_FACE('',(#766),#808,.F.);
#851=ADVANCED_FACE('',(#767),#809,.F.);
#852=ADVANCED_FACE('',(#768),#810,.F.);
#853=ADVANCED_FACE('',(#769),#811,.F.);
#854=ADVANCED_FACE('',(#770),#812,.F.);
#855=ADVANCED_FACE('',(#771),#813,.F.);
#856=ADVANCED_FACE('',(#772),#814,.F.);
#857=ADVANCED_FACE('',(#773),#815,.F.);
#858=ADVANCED_FACE('',(#774),#816,.F.);
#859=ADVANCED_FACE('',(#775),#817,.F.);
#860=ADVANCED_FACE('',(#776),#818,.F.);
#861=ADVANCED_FACE('',(#777),#819,.F.);
#862=ADVANCED_FACE('',(#778),#820,.F.);
#863=ADVANCED_FACE('',(#779),#821,.F.);
#864=ADVANCED_FACE('',(#780),#822,.F.);
#865=ADVANCED_FACE('',(#781),#823,.F.);
#866=ADVANCED_FACE('',(#782),#824,.F.);
#867=ADVANCED_FACE('',(#783),#825,.F.);
#868=CLOSED_SHELL('',(#826,#827,#828,#829,#830,#831,#832,#833,#834,#835,
#836,#837,#838,#839,#840,#841,#842,#843,#844,#845,#846,#847,#848,#849,#850,
#851,#852,#853,#854,#855,#856,#857,#858,#859,#860,#861,#862,#863,#864,#865,
#866,#867));
#869=MANIFOLD_SOLID_BREP('',#868);
#870=SHAPE_DEFINITION_REPRESENTATION(#1369,#871);
#871=SHAPE_REPRESENTATION('id2',(#872),#1364);
#872=AXIS2_PLACEMENT_3D('',#1121,#915,#916);
#873=AXIS2_PLACEMENT_3D('',#1122,#917,#918);
#874=AXIS2_PLACEMENT_3D('',#1131,#923,#924);
#875=AXIS2_PLACEMENT_3D('',#1137,#928,#929);
#876=AXIS2_PLACEMENT_3D('',#1143,#933,#934);
#877=AXIS2_PLACEMENT_3D('',#1149,#938,#939);
#878=AXIS2_PLACEMENT_3D('',#1155,#943,#944);
#879=AXIS2_PLACEMENT_3D('',#1164,#949,#950);
#880=AXIS2_PLACEMENT_3D('',#1173,#955,#956);
#881=AXIS2_PLACEMENT_3D('',#1186,#963,#964);
#882=AXIS2_PLACEMENT_3D('',#1196,#970,#971);
#883=AXIS2_PLACEMENT_3D('',#1205,#976,#977);
#884=AXIS2_PLACEMENT_3D('',#1220,#986,#987);
#885=AXIS2_PLACEMENT_3D('',#1227,#992,#993);
#886=AXIS2_PLACEMENT_3D('',#1241,#1001,#1002);
#887=AXIS2_PLACEMENT_3D('',#1258,#1012,#1013);
#888=AXIS2_PLACEMENT_3D('',#1262,#1016,#1017);
#889=AXIS2_PLACEMENT_3D('',#1271,#1022,#1023);
#890=AXIS2_PLACEMENT_3D('',#1278,#1028,#1029);
#891=AXIS2_PLACEMENT_3D('',#1285,#1034,#1035);
#892=AXIS2_PLACEMENT_3D('',#1296,#1042,#1043);
#893=AXIS2_PLACEMENT_3D('',#1305,#1048,#1049);
#894=AXIS2_PLACEMENT_3D('',#1308,#1052,#1053);
#895=AXIS2_PLACEMENT_3D('',#1314,#1057,#1058);
#896=AXIS2_PLACEMENT_3D('',#1317,#1061,#1062);
#897=AXIS2_PLACEMENT_3D('',#1321,#1065,#1066);
#898=AXIS2_PLACEMENT_3D('',#1328,#1071,#1072);
#899=AXIS2_PLACEMENT_3D('',#1330,#1074,#1075);
#900=AXIS2_PLACEMENT_3D('',#1334,#1078,#1079);
#901=AXIS2_PLACEMENT_3D('',#1338,#1082,#1083);
#902=AXIS2_PLACEMENT_3D('',#1343,#1087,#1088);
#903=AXIS2_PLACEMENT_3D('',#1346,#1091,#1092);
#904=AXIS2_PLACEMENT_3D('',#1347,#1093,#1094);
#905=AXIS2_PLACEMENT_3D('',#1348,#1095,#1096);
#906=AXIS2_PLACEMENT_3D('',#1350,#1098,#1099);
#907=AXIS2_PLACEMENT_3D('',#1352,#1101,#1102);
#908=AXIS2_PLACEMENT_3D('',#1353,#1103,#1104);
#909=AXIS2_PLACEMENT_3D('',#1355,#1106,#1107);
#910=AXIS2_PLACEMENT_3D('',#1356,#1108,#1109);
#911=AXIS2_PLACEMENT_3D('',#1358,#1111,#1112);
#912=AXIS2_PLACEMENT_3D('',#1359,#1113,#1114);
#913=AXIS2_PLACEMENT_3D('',#1361,#1116,#1117);
#914=AXIS2_PLACEMENT_3D('',#1363,#1119,#1120);
#915=DIRECTION('',(0.,0.,1.));
#916=DIRECTION('',(1.,0.,0.));
#917=DIRECTION('',(0.,1.,0.));
#918=DIRECTION('',(0.,0.,1.));
#919=DIRECTION('',(0.,0.,-1.));
#920=DIRECTION('',(1.,0.,0.));
#921=DIRECTION('',(0.,0.,1.));
#922=DIRECTION('',(1.,0.,0.));
#923=DIRECTION('',(1.,0.,-1.0842021724855E-16));
#924=DIRECTION('',(-1.0842021724855E-16,0.,-1.));
#925=DIRECTION('',(0.,0.,1.));
#926=DIRECTION('',(0.,-1.,0.));
#927=DIRECTION('',(0.,1.,0.));
#928=DIRECTION('',(-1.,0.,-1.0842021724855E-16));
#929=DIRECTION('',(-1.0842021724855E-16,0.,1.));
#930=DIRECTION('',(0.,1.,0.));
#931=DIRECTION('',(0.,0.,1.));
#932=DIRECTION('',(0.,-1.,0.));
#933=DIRECTION('',(0.,1.,0.));
#934=DIRECTION('',(0.,0.,1.));
#935=DIRECTION('',(0.,0.,1.));
#936=DIRECTION('',(1.,0.,0.));
#937=DIRECTION('',(-1.,0.,0.));
#938=DIRECTION('',(0.,1.,0.));
#939=DIRECTION('',(0.,0.,1.));
#940=DIRECTION('',(1.,0.,0.));
#941=DIRECTION('',(0.,0.,1.));
#942=DIRECTION('',(-1.,0.,0.));
#943=DIRECTION('',(0.,-1.,0.));
#944=DIRECTION('',(0.,0.,-1.));
#945=DIRECTION('',(1.,0.,0.));
#946=DIRECTION('',(0.,0.,1.));
#947=DIRECTION('',(1.,0.,0.));
#948=DIRECTION('',(0.,0.,-1.));
#949=DIRECTION('',(0.,-1.,0.));
#950=DIRECTION('',(0.,0.,-1.));
#951=DIRECTION('',(1.,0.,0.));
#952=DIRECTION('',(0.,0.,1.));
#953=DIRECTION('',(1.,0.,0.));
#954=DIRECTION('',(0.,0.,-1.));
#955=DIRECTION('',(-1.,0.,0.));
#956=DIRECTION('',(0.,0.,1.));
#957=DIRECTION('',(0.,1.,0.));
#958=DIRECTION('',(0.,0.,1.));
#959=DIRECTION('',(0.,-1.,0.));
#960=DIRECTION('',(0.,0.,-1.));
#961=DIRECTION('',(0.,1.,0.));
#962=DIRECTION('',(0.,0.,-1.));
#963=DIRECTION('',(-1.,0.,0.));
#964=DIRECTION('',(0.,0.,1.));
#965=DIRECTION('',(0.,0.,1.));
#966=DIRECTION('',(0.,1.,0.));
#967=DIRECTION('',(0.,0.,-1.));
#968=DIRECTION('',(0.,1.,0.));
#969=DIRECTION('',(0.,-1.,0.));
#970=DIRECTION('',(0.,-1.,0.));
#971=DIRECTION('',(0.,0.,-1.));
#972=DIRECTION('',(1.,0.,0.));
#973=DIRECTION('',(0.,0.,1.));
#974=DIRECTION('',(1.,0.,0.));
#975=DIRECTION('',(0.,0.,-1.));
#976=DIRECTION('',(-1.,0.,0.));
#977=DIRECTION('',(0.,0.,1.));
#978=DIRECTION('',(0.,-1.,0.));
#979=DIRECTION('',(0.,-1.,0.));
#980=DIRECTION('',(0.,-1.,0.));
#981=DIRECTION('',(0.,0.,-1.));
#982=DIRECTION('',(0.,1.,0.));
#983=DIRECTION('',(0.,0.,1.));
#984=DIRECTION('',(0.,1.,0.));
#985=DIRECTION('',(0.,0.,1.));
#986=DIRECTION('',(0.,0.,-1.));
#987=DIRECTION('',(-1.,0.,0.));
#988=DIRECTION('',(0.,-1.,0.));
#989=DIRECTION('',(0.,1.,0.));
#990=DIRECTION('',(1.,0.,0.));
#991=DIRECTION('',(0.,-1.,0.));
#992=DIRECTION('',(-1.,0.,0.));
#993=DIRECTION('',(0.,0.,1.));
#994=DIRECTION('',(0.,-1.,0.));
#995=DIRECTION('',(0.,0.,1.));
#996=DIRECTION('',(0.,1.,0.));
#997=DIRECTION('',(0.,0.,1.));
#998=DIRECTION('',(0.,1.,0.));
#999=DIRECTION('',(0.,0.,-1.));
#1000=DIRECTION('',(0.,-1.,0.));
#1001=DIRECTION('',(0.,0.,-1.));
#1002=DIRECTION('',(-1.,0.,0.));
#1003=DIRECTION('',(0.,-1.,0.));
#1004=DIRECTION('',(1.,0.,0.));
#1005=DIRECTION('',(0.,1.,0.));
#1006=DIRECTION('',(-1.,0.,0.));
#1007=DIRECTION('',(0.,-1.,0.));
#1008=DIRECTION('',(1.,0.,0.));
#1009=DIRECTION('',(0.,1.,0.));
#1010=DIRECTION('',(1.,0.,0.));
#1011=DIRECTION('',(-1.,0.,0.));
#1012=DIRECTION('',(0.,-1.,0.));
#1013=DIRECTION('',(0.,0.,-1.));
#1014=DIRECTION('',(0.,0.,1.));
#1015=DIRECTION('',(1.,0.,0.));
#1016=DIRECTION('',(0.,-1.,0.));
#1017=DIRECTION('',(0.,0.,-1.));
#1018=DIRECTION('',(-1.0842021724855E-16,0.,1.));
#1019=DIRECTION('',(1.,0.,0.));
#1020=DIRECTION('',(-1.0842021724855E-16,0.,-1.));
#1021=DIRECTION('',(1.,0.,0.));
#1022=DIRECTION('',(0.,0.,1.));
#1023=DIRECTION('',(1.,0.,0.));
#1024=DIRECTION('',(0.,-1.,0.));
#1025=DIRECTION('',(1.,0.,0.));
#1026=DIRECTION('',(0.,1.,0.));
#1027=DIRECTION('',(1.,0.,0.));
#1028=DIRECTION('',(0.,0.,-1.));
#1029=DIRECTION('',(-1.,0.,0.));
#1030=DIRECTION('',(-1.,0.,0.));
#1031=DIRECTION('',(0.,1.,0.));
#1032=DIRECTION('',(1.,0.,0.));
#1033=DIRECTION('',(0.,-1.,0.));
#1034=DIRECTION('',(0.,-1.,0.));
#1035=DIRECTION('',(0.,0.,-1.));
#1036=DIRECTION('',(-1.0842021724855E-16,0.,1.));
#1037=DIRECTION('',(-1.,0.,0.));
#1038=DIRECTION('',(-1.,0.,0.));
#1039=DIRECTION('',(-1.0842021724855E-16,0.,-1.));
#1040=DIRECTION('',(1.,0.,0.));
#1041=DIRECTION('',(1.,0.,0.));
#1042=DIRECTION('',(0.,1.,0.));
#1043=DIRECTION('',(0.,0.,1.));
#1044=DIRECTION('',(0.,0.,1.));
#1045=DIRECTION('',(1.,0.,0.));
#1046=DIRECTION('',(0.,0.,-1.));
#1047=DIRECTION('',(1.,0.,0.));
#1048=DIRECTION('',(0.,0.,-1.));
#1049=DIRECTION('',(-1.,0.,0.));
#1050=DIRECTION('',(0.,1.,0.));
#1051=DIRECTION('',(0.,-1.,0.));
#1052=DIRECTION('',(0.,0.,1.));
#1053=DIRECTION('',(1.,0.,0.));
#1054=DIRECTION('',(1.,0.,0.));
#1055=DIRECTION('',(0.,-1.,0.));
#1056=DIRECTION('',(0.,1.,0.));
#1057=DIRECTION('',(0.,1.,1.26490253456642E-16));
#1058=DIRECTION('',(0.,-1.26490253456642E-16,1.));
#1059=DIRECTION('',(0.,-1.26490253456642E-16,1.));
#1060=DIRECTION('',(0.,1.26490253456642E-16,-1.));
#1061=DIRECTION('',(0.,0.,-1.));
#1062=DIRECTION('',(-1.,0.,0.));
#1063=DIRECTION('',(1.,0.,0.));
#1064=DIRECTION('',(0.,1.,0.));
#1065=DIRECTION('',(1.,0.,-1.0842021724855E-16));
#1066=DIRECTION('',(-1.0842021724855E-16,0.,-1.));
#1067=DIRECTION('',(0.,1.,0.));
#1068=DIRECTION('',(0.,0.,1.));
#1069=DIRECTION('',(0.,1.,0.));
#1070=DIRECTION('',(0.,0.,1.));
#1071=DIRECTION('',(0.,0.,1.));
#1072=DIRECTION('',(1.,0.,0.));
#1073=DIRECTION('',(-1.,0.,0.));
#1074=DIRECTION('',(0.,0.,-1.));
#1075=DIRECTION('',(-1.,0.,0.));
#1076=DIRECTION('',(0.,1.,0.));
#1077=DIRECTION('',(1.,0.,0.));
#1078=DIRECTION('',(0.,0.,1.));
#1079=DIRECTION('',(1.,0.,0.));
#1080=DIRECTION('',(-1.,0.,0.));
#1081=DIRECTION('',(0.,1.,0.));
#1082=DIRECTION('',(-1.,0.,-1.0842021724855E-16));
#1083=DIRECTION('',(-1.0842021724855E-16,0.,1.));
#1084=DIRECTION('',(0.,0.,1.));
#1085=DIRECTION('',(0.,-1.,0.));
#1086=DIRECTION('',(0.,0.,1.));
#1087=DIRECTION('',(0.,-1.,0.));
#1088=DIRECTION('',(0.,0.,-1.));
#1089=DIRECTION('',(0.,0.,1.));
#1090=DIRECTION('',(0.,0.,1.));
#1091=DIRECTION('',(1.,0.,0.));
#1092=DIRECTION('',(0.,0.,-1.));
#1093=DIRECTION('',(-1.,0.,0.));
#1094=DIRECTION('',(0.,0.,1.));
#1095=DIRECTION('',(-1.,0.,0.));
#1096=DIRECTION('',(0.,0.,1.));
#1097=DIRECTION('',(0.,0.,1.));
#1098=DIRECTION('',(1.,0.,0.));
#1099=DIRECTION('',(0.,0.,-1.));
#1100=DIRECTION('',(0.,0.,1.));
#1101=DIRECTION('',(0.,-1.,0.));
#1102=DIRECTION('',(0.,0.,-1.));
#1103=DIRECTION('',(0.,1.,0.));
#1104=DIRECTION('',(0.,0.,1.));
#1105=DIRECTION('',(-1.,0.,0.));
#1106=DIRECTION('',(0.,1.,0.));
#1107=DIRECTION('',(0.,0.,1.));
#1108=DIRECTION('',(0.,1.,0.));
#1109=DIRECTION('',(0.,0.,1.));
#1110=DIRECTION('',(-1.,0.,0.));
#1111=DIRECTION('',(0.,1.,0.));
#1112=DIRECTION('',(0.,0.,1.));
#1113=DIRECTION('',(0.,0.,1.));
#1114=DIRECTION('',(1.,0.,0.));
#1115=DIRECTION('',(1.,0.,0.));
#1116=DIRECTION('',(0.,0.,-1.));
#1117=DIRECTION('',(-1.,0.,0.));
#1118=DIRECTION('',(1.,0.,0.));
#1119=DIRECTION('',(0.,1.,0.));
#1120=DIRECTION('',(0.,0.,1.));
#1121=CARTESIAN_POINT('',(0.,0.,0.));
#1122=CARTESIAN_POINT('',(-0.0015,0.0003,0.));
#1123=CARTESIAN_POINT('',(-0.001,0.0003,0.));
#1124=CARTESIAN_POINT('',(-0.001,0.0003,0.));
#1125=CARTESIAN_POINT('',(-0.001,0.0003,-0.0003));
#1126=CARTESIAN_POINT('',(-0.0015,0.0003,-0.0003));
#1127=CARTESIAN_POINT('',(0.001,0.0003,-0.0003));
#1128=CARTESIAN_POINT('',(0.001,0.0003,0.));
#1129=CARTESIAN_POINT('',(0.001,0.0003,0.));
#1130=CARTESIAN_POINT('',(-0.0015,0.0003,0.));
#1131=CARTESIAN_POINT('',(-0.001,-4.33680868994202E-19,-0.0078));
#1132=CARTESIAN_POINT('',(-0.001,0.0005,-0.0153));
#1133=CARTESIAN_POINT('',(-0.001,0.0005,-0.0003));
#1134=CARTESIAN_POINT('',(-0.001,0.0005,0.));
#1135=CARTESIAN_POINT('',(-0.001,-4.33680868994202E-19,-0.0003));
#1136=CARTESIAN_POINT('',(-0.001,0.,0.));
#1137=CARTESIAN_POINT('',(0.001,-4.33680868994202E-19,-0.0078));
#1138=CARTESIAN_POINT('',(0.001,-4.33680868994202E-19,-0.0003));
#1139=CARTESIAN_POINT('',(0.001,0.0005,-0.0003));
#1140=CARTESIAN_POINT('',(0.001,0.0005,-0.0153));
#1141=CARTESIAN_POINT('',(0.001,0.0005,0.));
#1142=CARTESIAN_POINT('',(0.001,0.,0.));
#1143=CARTESIAN_POINT('',(-0.0015,0.0005,-0.0153));
#1144=CARTESIAN_POINT('',(-0.0015,0.0005,-0.0153));
#1145=CARTESIAN_POINT('',(-0.0015,0.0005,-0.0003));
#1146=CARTESIAN_POINT('',(-0.0015,0.0005,0.));
#1147=CARTESIAN_POINT('',(-0.0015,0.0005,-0.0003));
#1148=CARTESIAN_POINT('',(-0.0015,0.0005,0.));
#1149=CARTESIAN_POINT('',(0.0015,0.0005,-0.0153));
#1150=CARTESIAN_POINT('',(0.0015,0.0005,-0.0003));
#1151=CARTESIAN_POINT('',(0.0015,0.0005,-0.0003));
#1152=CARTESIAN_POINT('',(0.0015,0.0005,-0.0153));
#1153=CARTESIAN_POINT('',(0.0015,0.0005,0.));
#1154=CARTESIAN_POINT('',(0.0015,0.0005,0.));
#1155=CARTESIAN_POINT('',(0.,0.0018,0.));
#1156=CARTESIAN_POINT('',(-0.0015,0.0018,0.));
#1157=CARTESIAN_POINT('',(-0.0015,0.0018,0.));
#1158=CARTESIAN_POINT('',(-0.001,0.0018,0.));
#1159=CARTESIAN_POINT('',(-0.001,0.0018,-0.0153));
#1160=CARTESIAN_POINT('',(-0.001,0.0018,-0.0016));
#1161=CARTESIAN_POINT('',(-0.0015,0.0018,-0.0016));
#1162=CARTESIAN_POINT('',(-0.0015,0.0018,-0.0016));
#1163=CARTESIAN_POINT('',(-0.0015,0.0018,0.));
#1164=CARTESIAN_POINT('',(0.,0.0018,0.));
#1165=CARTESIAN_POINT('',(-0.0015,0.0018,-0.0136));
#1166=CARTESIAN_POINT('',(-0.0015,0.0018,-0.0136));
#1167=CARTESIAN_POINT('',(-0.001,0.0018,-0.0136));
#1168=CARTESIAN_POINT('',(-0.001,0.0018,-0.0153));
#1169=CARTESIAN_POINT('',(-0.001,0.0018,-0.0153));
#1170=CARTESIAN_POINT('',(-0.0015,0.0018,-0.0153));
#1171=CARTESIAN_POINT('',(-0.0015,0.0018,-0.0153));
#1172=CARTESIAN_POINT('',(-0.0015,0.0018,0.));
#1173=CARTESIAN_POINT('',(0.0015,0.0018,0.));
#1174=CARTESIAN_POINT('',(0.0015,-4.33680868994202E-19,-0.0078));
#1175=CARTESIAN_POINT('',(0.0015,0.0005,-0.0078));
#1176=CARTESIAN_POINT('',(0.0015,0.0012,-0.0078));
#1177=CARTESIAN_POINT('',(0.0015,0.0005,-0.0153));
#1178=CARTESIAN_POINT('',(0.0015,0.0005,-0.0153));
#1179=CARTESIAN_POINT('',(0.0015,0.0018,-0.0153));
#1180=CARTESIAN_POINT('',(0.0015,0.0018,-0.0153));
#1181=CARTESIAN_POINT('',(0.0015,0.0018,0.));
#1182=CARTESIAN_POINT('',(0.0015,0.0018,-0.0136));
#1183=CARTESIAN_POINT('',(0.0015,0.0018,-0.0136));
#1184=CARTESIAN_POINT('',(0.0015,0.0012,-0.0136));
#1185=CARTESIAN_POINT('',(0.0015,0.0012,-0.0016));
#1186=CARTESIAN_POINT('',(-0.0015,0.0018,0.));
#1187=CARTESIAN_POINT('',(-0.0015,0.0005,-0.0153));
#1188=CARTESIAN_POINT('',(-0.0015,0.0005,-0.0153));
#1189=CARTESIAN_POINT('',(-0.0015,0.0005,-0.0078));
#1190=CARTESIAN_POINT('',(-0.0015,-4.33680868994202E-19,-0.0078));
#1191=CARTESIAN_POINT('',(-0.0015,0.0012,-0.0078));
#1192=CARTESIAN_POINT('',(-0.0015,0.0012,-0.0016));
#1193=CARTESIAN_POINT('',(-0.0015,0.0012,-0.0136));
#1194=CARTESIAN_POINT('',(-0.0015,0.0018,-0.0136));
#1195=CARTESIAN_POINT('',(-0.0015,0.0018,-0.0153));
#1196=CARTESIAN_POINT('',(0.,0.0018,0.));
#1197=CARTESIAN_POINT('',(-0.0015,0.0018,-0.0016));
#1198=CARTESIAN_POINT('',(0.001,0.0018,-0.0016));
#1199=CARTESIAN_POINT('',(0.0015,0.0018,-0.0016));
#1200=CARTESIAN_POINT('',(0.001,0.0018,-0.0153));
#1201=CARTESIAN_POINT('',(0.001,0.0018,0.));
#1202=CARTESIAN_POINT('',(-0.0015,0.0018,0.));
#1203=CARTESIAN_POINT('',(0.0015,0.0018,0.));
#1204=CARTESIAN_POINT('',(0.0015,0.0018,0.));
#1205=CARTESIAN_POINT('',(-0.0015,0.0018,0.));
#1206=CARTESIAN_POINT('',(-0.0015,0.0006,-0.0003));
#1207=CARTESIAN_POINT('',(-0.0015,0.0006,-0.0003));
#1208=CARTESIAN_POINT('',(-0.0015,0.0018,0.));
#1209=CARTESIAN_POINT('',(-0.0015,0.0018,-0.0016));
#1210=CARTESIAN_POINT('',(-0.0015,0.0012,-0.0016));
#1211=CARTESIAN_POINT('',(-0.0015,0.0012,-0.0016));
#1212=CARTESIAN_POINT('',(-0.0015,0.0012,-0.0058));
#1213=CARTESIAN_POINT('',(-0.0015,-4.33680868994202E-19,-0.0058));
#1214=CARTESIAN_POINT('',(-0.0015,0.0005,-0.0058));
#1215=CARTESIAN_POINT('',(-0.0015,0.0005,-0.0153));
#1216=CARTESIAN_POINT('',(-0.0015,0.0005,-0.0005));
#1217=CARTESIAN_POINT('',(-0.0015,0.0006,-0.0005));
#1218=CARTESIAN_POINT('',(-0.0015,0.0006,-0.0005));
#1219=CARTESIAN_POINT('',(-0.0015,0.0006,-0.0003));
#1220=CARTESIAN_POINT('',(-0.0015,0.0018,0.));
#1221=CARTESIAN_POINT('',(0.0015,0.0018,0.));
#1222=CARTESIAN_POINT('',(0.001,0.0018,0.));
#1223=CARTESIAN_POINT('',(0.001,0.0013,0.));
#1224=CARTESIAN_POINT('',(-0.001,0.0013,0.));
#1225=CARTESIAN_POINT('',(-0.001,0.0013,0.));
#1226=CARTESIAN_POINT('',(-0.001,0.0018,0.));
#1227=CARTESIAN_POINT('',(0.0015,0.0018,0.));
#1228=CARTESIAN_POINT('',(0.0015,0.0006,-0.0003));
#1229=CARTESIAN_POINT('',(0.0015,0.0006,-0.0003));
#1230=CARTESIAN_POINT('',(0.0015,0.0006,-0.0003));
#1231=CARTESIAN_POINT('',(0.0015,0.0006,-0.0005));
#1232=CARTESIAN_POINT('',(0.0015,0.0006,-0.0005));
#1233=CARTESIAN_POINT('',(0.0015,0.0005,-0.0005));
#1234=CARTESIAN_POINT('',(0.0015,0.0005,-0.0153));
#1235=CARTESIAN_POINT('',(0.0015,0.0005,-0.0058));
#1236=CARTESIAN_POINT('',(0.0015,-4.33680868994202E-19,-0.0058));
#1237=CARTESIAN_POINT('',(0.0015,0.0012,-0.0058));
#1238=CARTESIAN_POINT('',(0.0015,0.0012,-0.0016));
#1239=CARTESIAN_POINT('',(0.0015,0.0012,-0.0016));
#1240=CARTESIAN_POINT('',(0.0015,0.0018,-0.0016));
#1241=CARTESIAN_POINT('',(-0.0015,0.0018,-0.0153));
#1242=CARTESIAN_POINT('',(0.001,0.,-0.0153));
#1243=CARTESIAN_POINT('',(0.001,0.0005,-0.0153));
#1244=CARTESIAN_POINT('',(0.001,0.0003,-0.0153));
#1245=CARTESIAN_POINT('',(-0.0015,0.0003,-0.0153));
#1246=CARTESIAN_POINT('',(-0.001,0.0003,-0.0153));
#1247=CARTESIAN_POINT('',(-0.001,0.,-0.0153));
#1248=CARTESIAN_POINT('',(-0.001,0.0005,-0.0153));
#1249=CARTESIAN_POINT('',(-0.0015,0.0005,-0.0153));
#1250=CARTESIAN_POINT('',(-0.001,0.0018,-0.0153));
#1251=CARTESIAN_POINT('',(-0.001,0.0013,-0.0153));
#1252=CARTESIAN_POINT('',(-0.001,0.0013,-0.0153));
#1253=CARTESIAN_POINT('',(0.001,0.0013,-0.0153));
#1254=CARTESIAN_POINT('',(0.001,0.0018,-0.0153));
#1255=CARTESIAN_POINT('',(0.001,0.0018,-0.0153));
#1256=CARTESIAN_POINT('',(-0.0015,0.0018,-0.0153));
#1257=CARTESIAN_POINT('',(0.0015,0.0005,-0.0153));
#1258=CARTESIAN_POINT('',(0.,0.0018,0.));
#1259=CARTESIAN_POINT('',(0.001,0.0018,-0.0153));
#1260=CARTESIAN_POINT('',(0.001,0.0018,-0.0136));
#1261=CARTESIAN_POINT('',(-0.0015,0.0018,-0.0136));
#1262=CARTESIAN_POINT('',(0.,0.,0.));
#1263=CARTESIAN_POINT('',(0.001,-4.33680868994202E-19,-0.0078));
#1264=CARTESIAN_POINT('',(0.001,0.,-0.0123));
#1265=CARTESIAN_POINT('',(0.001,0.,-0.0023));
#1266=CARTESIAN_POINT('',(-0.0015,0.,-0.0023));
#1267=CARTESIAN_POINT('',(-0.001,0.,-0.0023));
#1268=CARTESIAN_POINT('',(-0.001,-4.33680868994202E-19,-0.0078));
#1269=CARTESIAN_POINT('',(-0.001,0.,-0.0123));
#1270=CARTESIAN_POINT('',(-0.0015,-3.67394039744206E-19,-0.0123));
#1271=CARTESIAN_POINT('',(-0.0015,0.0018,-0.0016));
#1272=CARTESIAN_POINT('',(-0.001,0.0018,-0.0016));
#1273=CARTESIAN_POINT('',(-0.001,0.0013,-0.0016));
#1274=CARTESIAN_POINT('',(-0.0015,0.0013,-0.0016));
#1275=CARTESIAN_POINT('',(0.001,0.0013,-0.0016));
#1276=CARTESIAN_POINT('',(0.001,0.0018,-0.0016));
#1277=CARTESIAN_POINT('',(-0.0015,0.0012,-0.0016));
#1278=CARTESIAN_POINT('',(-0.0015,0.0018,-0.0136));
#1279=CARTESIAN_POINT('',(-0.0015,0.0013,-0.0136));
#1280=CARTESIAN_POINT('',(0.001,0.0013,-0.0136));
#1281=CARTESIAN_POINT('',(-0.001,0.0013,-0.0136));
#1282=CARTESIAN_POINT('',(-0.001,0.0018,-0.0136));
#1283=CARTESIAN_POINT('',(-0.0015,0.0012,-0.0136));
#1284=CARTESIAN_POINT('',(0.001,0.0018,-0.0136));
#1285=CARTESIAN_POINT('',(-0.0015,0.0012,-0.0016));
#1286=CARTESIAN_POINT('',(0.001,0.0012,-0.0078));
#1287=CARTESIAN_POINT('',(0.001,0.0012,-0.0078));
#1288=CARTESIAN_POINT('',(0.001,0.0012,-0.0058));
#1289=CARTESIAN_POINT('',(0.0015,0.0012,-0.0078));
#1290=CARTESIAN_POINT('',(-0.0015,0.0012,-0.0078));
#1291=CARTESIAN_POINT('',(-0.001,0.0012,-0.0078));
#1292=CARTESIAN_POINT('',(-0.001,0.0012,-0.0078));
#1293=CARTESIAN_POINT('',(-0.001,0.0012,-0.0058));
#1294=CARTESIAN_POINT('',(-0.0015,0.0012,-0.0058));
#1295=CARTESIAN_POINT('',(0.0015,0.0012,-0.0058));
#1296=CARTESIAN_POINT('',(-0.0015,0.0003,0.));
#1297=CARTESIAN_POINT('',(0.001,0.0003,0.));
#1298=CARTESIAN_POINT('',(0.001,0.0003,-0.0023));
#1299=CARTESIAN_POINT('',(0.001,0.0003,-0.0005));
#1300=CARTESIAN_POINT('',(-0.0015,0.0003,-0.0005));
#1301=CARTESIAN_POINT('',(-0.001,0.0003,-0.0005));
#1302=CARTESIAN_POINT('',(-0.001,0.0003,0.));
#1303=CARTESIAN_POINT('',(-0.001,0.0003,-0.0023));
#1304=CARTESIAN_POINT('',(-0.0015,0.0003,-0.0023));
#1305=CARTESIAN_POINT('',(-0.0015,0.0003,-0.0023));
#1306=CARTESIAN_POINT('',(0.001,0.0003,-0.0023));
#1307=CARTESIAN_POINT('',(-0.001,0.0003,-0.0023));
#1308=CARTESIAN_POINT('',(-0.0015,-3.67394039744206E-19,-0.0123));
#1309=CARTESIAN_POINT('',(-0.0015,0.0003,-0.0123));
#1310=CARTESIAN_POINT('',(-0.001,0.0003,-0.0123));
#1311=CARTESIAN_POINT('',(0.001,0.0003,-0.0123));
#1312=CARTESIAN_POINT('',(0.001,-3.67394039744206E-19,-0.0123));
#1313=CARTESIAN_POINT('',(-0.001,-3.67394039744206E-19,-0.0123));
#1314=CARTESIAN_POINT('',(-0.0015,0.0003,-0.0153));
#1315=CARTESIAN_POINT('',(0.001,0.0003,-0.0153));
#1316=CARTESIAN_POINT('',(-0.001,0.0003,-0.0153));
#1317=CARTESIAN_POINT('',(-0.0015,-4.33680868994202E-19,-0.0078));
#1318=CARTESIAN_POINT('',(-0.0015,0.0005,-0.0078));
#1319=CARTESIAN_POINT('',(-0.001,0.0005,-0.0078));
#1320=CARTESIAN_POINT('',(-0.001,-4.33680868994202E-19,-0.0078));
#1321=CARTESIAN_POINT('',(-0.001,-4.33680868994202E-19,-0.0078));
#1322=CARTESIAN_POINT('',(-0.001,-4.33680868994202E-19,-0.0005));
#1323=CARTESIAN_POINT('',(-0.001,0.0005,-0.0005));
#1324=CARTESIAN_POINT('',(-0.001,0.0005,-0.0153));
#1325=CARTESIAN_POINT('',(-0.001,0.0005,-0.0058));
#1326=CARTESIAN_POINT('',(-0.001,-4.33680868994202E-19,-0.0058));
#1327=CARTESIAN_POINT('',(-0.001,0.0005,-0.0153));
#1328=CARTESIAN_POINT('',(-0.0015,-4.33680868994202E-19,-0.0058));
#1329=CARTESIAN_POINT('',(-0.0015,0.0005,-0.0058));
#1330=CARTESIAN_POINT('',(0.0015,-4.33680868994202E-19,-0.0078));
#1331=CARTESIAN_POINT('',(0.001,-4.33680868994202E-19,-0.0078));
#1332=CARTESIAN_POINT('',(0.001,0.0005,-0.0078));
#1333=CARTESIAN_POINT('',(0.0015,0.0005,-0.0078));
#1334=CARTESIAN_POINT('',(0.0015,-4.33680868994202E-19,-0.0058));
#1335=CARTESIAN_POINT('',(0.0015,0.0005,-0.0058));
#1336=CARTESIAN_POINT('',(0.001,0.0005,-0.0058));
#1337=CARTESIAN_POINT('',(0.001,-4.33680868994202E-19,-0.0058));
#1338=CARTESIAN_POINT('',(0.001,-4.33680868994202E-19,-0.0078));
#1339=CARTESIAN_POINT('',(0.001,0.0005,-0.0153));
#1340=CARTESIAN_POINT('',(0.001,0.0005,-0.0005));
#1341=CARTESIAN_POINT('',(0.001,-4.33680868994202E-19,-0.0005));
#1342=CARTESIAN_POINT('',(0.001,0.0005,-0.0153));
#1343=CARTESIAN_POINT('',(-0.001,0.0013,-0.0153));
#1344=CARTESIAN_POINT('',(0.001,0.0013,-0.0153));
#1345=CARTESIAN_POINT('',(-0.001,0.0013,-0.0153));
#1346=CARTESIAN_POINT('',(0.001,0.0018,-0.0153));
#1347=CARTESIAN_POINT('',(-0.001,0.0018,-0.0153));
#1348=CARTESIAN_POINT('',(-0.001,0.0018,-0.0153));
#1349=CARTESIAN_POINT('',(-0.001,0.0013,-0.0153));
#1350=CARTESIAN_POINT('',(0.001,0.0018,-0.0153));
#1351=CARTESIAN_POINT('',(0.001,0.0013,-0.0153));
#1352=CARTESIAN_POINT('',(-0.001,0.0013,-0.0153));
#1353=CARTESIAN_POINT('',(-0.0015,0.0005,-0.0153));
#1354=CARTESIAN_POINT('',(-0.0015,0.0005,-0.0005));
#1355=CARTESIAN_POINT('',(-0.0015,0.0005,-0.0153));
#1356=CARTESIAN_POINT('',(0.0015,0.0005,-0.0153));
#1357=CARTESIAN_POINT('',(0.0015,0.0005,-0.0005));
#1358=CARTESIAN_POINT('',(0.0015,0.0005,-0.0153));
#1359=CARTESIAN_POINT('',(-0.0015,0.0006,-0.0003));
#1360=CARTESIAN_POINT('',(-0.0015,0.0006,-0.0003));
#1361=CARTESIAN_POINT('',(-0.0015,0.0006,-0.0005));
#1362=CARTESIAN_POINT('',(-0.0015,0.0006,-0.0005));
#1363=CARTESIAN_POINT('',(-0.0015,0.0006,-0.0003));
#1364=(
GEOMETRIC_REPRESENTATION_CONTEXT(3)
GLOBAL_UNCERTAINTY_ASSIGNED_CONTEXT((#1365))
GLOBAL_UNIT_ASSIGNED_CONTEXT((#1368,#1367,#1366))
REPRESENTATION_CONTEXT('id2','TOP_LEVEL_ASSEMBLY_PART')
);
#1365=UNCERTAINTY_MEASURE_WITH_UNIT(LENGTH_MEASURE(1.E-8),#1368,
'DISTANCE_ACCURACY_VALUE','Maximum Tolerance applied to model');
#1366=(
NAMED_UNIT(*)
SI_UNIT($,.STERADIAN.)
SOLID_ANGLE_UNIT()
);
#1367=(
NAMED_UNIT(*)
PLANE_ANGLE_UNIT()
SI_UNIT($,.RADIAN.)
);
#1368=(
LENGTH_UNIT()
NAMED_UNIT(*)
SI_UNIT($,.METRE.)
);
#1369=PRODUCT_DEFINITION_SHAPE('','',#1370);
#1370=PRODUCT_DEFINITION('','',#1372,#1371);
#1371=DESIGN_CONTEXT('',#1378,'design');
#1372=PRODUCT_DEFINITION_FORMATION_WITH_SPECIFIED_SOURCE('','',#1374,
 .NOT_KNOWN.);
#1373=PRODUCT_RELATED_PRODUCT_CATEGORY('','',(#1374));
#1374=PRODUCT('id2','id2','id2',(#1376));
#1375=PRODUCT_CATEGORY('','');
#1376=MECHANICAL_CONTEXT('',#1378,'mechanical');
#1377=APPLICATION_PROTOCOL_DEFINITION('international standard',
'config_control_design',2010,#1378);
#1378=APPLICATION_CONTEXT(
'configuration controlled 3D designs of mechanical parts and assemblie
s');
ENDSEC;
END-ISO-10303-21;
