ISO-10303-21;
HEADER;
/* Generated by software containing ST-Developer
 * from STEP Tools, Inc. (www.steptools.com) 
 */
/* OPTION: using custom renumber hook */

FILE_DESCRIPTION(
/* description */ ('STEP AP203'),
/* implementation_level */ '2;1');

FILE_NAME(
/* name */ '6a545bd9880ffe4da20ea482',
/* time_stamp */ '2026-07-13T03:30:33Z',
/* author */ (''),
/* organization */ (''),
/* preprocessor_version */ 'ST-DEVELOPER v20',
/* originating_system */ 'ONSHAPE BY PTC INC, 1.217',
/* authorisation */ '  ');

FILE_SCHEMA (('CONFIG_CONTROL_DESIGN'));
ENDSEC;

DATA;
#10=PROPERTY_DEFINITION_REPRESENTATION(#14,#12);
#11=PROPERTY_DEFINITION_REPRESENTATION(#15,#13);
#12=REPRESENTATION('',(#16),#386);
#13=REPRESENTATION('',(#17),#386);
#14=PROPERTY_DEFINITION('pmi validation property','',#391);
#15=PROPERTY_DEFINITION('pmi validation property','',#391);
#16=VALUE_REPRESENTATION_ITEM('number of annotations',COUNT_MEASURE(0.));
#17=VALUE_REPRESENTATION_ITEM('number of views',COUNT_MEASURE(0.));
#18=SHAPE_REPRESENTATION_RELATIONSHIP('','',#237,#19);
#19=ADVANCED_BREP_SHAPE_REPRESENTATION('',(#235),#386);
#20=CYLINDRICAL_SURFACE('',#253,0.0009);
#21=CYLINDRICAL_SURFACE('',#255,0.0009);
#22=CYLINDRICAL_SURFACE('',#257,0.0021);
#23=CYLINDRICAL_SURFACE('',#258,0.0065);
#24=CIRCLE('',#244,0.0009);
#25=CIRCLE('',#245,0.0009);
#26=CIRCLE('',#246,0.0065);
#27=CIRCLE('',#247,0.0021);
#28=CIRCLE('',#249,0.0065);
#29=CIRCLE('',#250,0.0021);
#30=CIRCLE('',#251,0.0009);
#31=CIRCLE('',#252,0.0009);
#32=ORIENTED_EDGE('',*,*,#92,.T.);
#33=ORIENTED_EDGE('',*,*,#93,.T.);
#34=ORIENTED_EDGE('',*,*,#94,.F.);
#35=ORIENTED_EDGE('',*,*,#95,.T.);
#36=ORIENTED_EDGE('',*,*,#96,.F.);
#37=ORIENTED_EDGE('',*,*,#97,.F.);
#38=ORIENTED_EDGE('',*,*,#98,.T.);
#39=ORIENTED_EDGE('',*,*,#95,.F.);
#40=ORIENTED_EDGE('',*,*,#99,.F.);
#41=ORIENTED_EDGE('',*,*,#100,.F.);
#42=ORIENTED_EDGE('',*,*,#101,.T.);
#43=ORIENTED_EDGE('',*,*,#102,.F.);
#44=ORIENTED_EDGE('',*,*,#103,.T.);
#45=ORIENTED_EDGE('',*,*,#104,.T.);
#46=ORIENTED_EDGE('',*,*,#105,.F.);
#47=ORIENTED_EDGE('',*,*,#102,.T.);
#48=ORIENTED_EDGE('',*,*,#106,.F.);
#49=ORIENTED_EDGE('',*,*,#107,.F.);
#50=ORIENTED_EDGE('',*,*,#108,.F.);
#51=ORIENTED_EDGE('',*,*,#109,.F.);
#52=ORIENTED_EDGE('',*,*,#105,.T.);
#53=ORIENTED_EDGE('',*,*,#110,.F.);
#54=ORIENTED_EDGE('',*,*,#96,.T.);
#55=ORIENTED_EDGE('',*,*,#94,.T.);
#56=ORIENTED_EDGE('',*,*,#111,.F.);
#57=ORIENTED_EDGE('',*,*,#99,.T.);
#58=ORIENTED_EDGE('',*,*,#112,.F.);
#59=ORIENTED_EDGE('',*,*,#103,.F.);
#60=ORIENTED_EDGE('',*,*,#101,.F.);
#61=ORIENTED_EDGE('',*,*,#113,.T.);
#62=ORIENTED_EDGE('',*,*,#92,.F.);
#63=ORIENTED_EDGE('',*,*,#98,.F.);
#64=ORIENTED_EDGE('',*,*,#114,.T.);
#65=ORIENTED_EDGE('',*,*,#115,.T.);
#66=ORIENTED_EDGE('',*,*,#116,.T.);
#67=ORIENTED_EDGE('',*,*,#117,.T.);
#68=ORIENTED_EDGE('',*,*,#107,.T.);
#69=ORIENTED_EDGE('',*,*,#118,.F.);
#70=ORIENTED_EDGE('',*,*,#114,.F.);
#71=ORIENTED_EDGE('',*,*,#119,.T.);
#72=ORIENTED_EDGE('',*,*,#108,.T.);
#73=ORIENTED_EDGE('',*,*,#119,.F.);
#74=ORIENTED_EDGE('',*,*,#117,.F.);
#75=ORIENTED_EDGE('',*,*,#120,.T.);
#76=ORIENTED_EDGE('',*,*,#109,.T.);
#77=ORIENTED_EDGE('',*,*,#120,.F.);
#78=ORIENTED_EDGE('',*,*,#116,.F.);
#79=ORIENTED_EDGE('',*,*,#121,.T.);
#80=ORIENTED_EDGE('',*,*,#106,.T.);
#81=ORIENTED_EDGE('',*,*,#121,.F.);
#82=ORIENTED_EDGE('',*,*,#115,.F.);
#83=ORIENTED_EDGE('',*,*,#118,.T.);
#84=ORIENTED_EDGE('',*,*,#111,.T.);
#85=ORIENTED_EDGE('',*,*,#93,.F.);
#86=ORIENTED_EDGE('',*,*,#113,.F.);
#87=ORIENTED_EDGE('',*,*,#100,.T.);
#88=ORIENTED_EDGE('',*,*,#110,.T.);
#89=ORIENTED_EDGE('',*,*,#104,.F.);
#90=ORIENTED_EDGE('',*,*,#112,.T.);
#91=ORIENTED_EDGE('',*,*,#97,.T.);
#92=EDGE_CURVE('',#122,#123,#142,.T.);
#93=EDGE_CURVE('',#123,#124,#143,.T.);
#94=EDGE_CURVE('',#125,#124,#144,.T.);
#95=EDGE_CURVE('',#125,#122,#145,.T.);
#96=EDGE_CURVE('',#126,#125,#146,.T.);
#97=EDGE_CURVE('',#127,#126,#147,.T.);
#98=EDGE_CURVE('',#127,#122,#148,.T.);
#99=EDGE_CURVE('',#128,#129,#149,.T.);
#100=EDGE_CURVE('',#130,#128,#150,.T.);
#101=EDGE_CURVE('',#130,#131,#151,.T.);
#102=EDGE_CURVE('',#129,#131,#152,.T.);
#103=EDGE_CURVE('',#131,#132,#153,.T.);
#104=EDGE_CURVE('',#132,#133,#154,.T.);
#105=EDGE_CURVE('',#129,#133,#155,.T.);
#106=EDGE_CURVE('',#134,#135,#156,.T.);
#107=EDGE_CURVE('',#136,#134,#24,.T.);
#108=EDGE_CURVE('',#137,#136,#157,.T.);
#109=EDGE_CURVE('',#135,#137,#25,.T.);
#110=EDGE_CURVE('',#126,#133,#26,.T.);
#111=EDGE_CURVE('',#128,#124,#27,.T.);
#112=EDGE_CURVE('',#132,#127,#28,.F.);
#113=EDGE_CURVE('',#130,#123,#29,.T.);
#114=EDGE_CURVE('',#138,#139,#30,.T.);
#115=EDGE_CURVE('',#139,#140,#158,.T.);
#116=EDGE_CURVE('',#140,#141,#31,.T.);
#117=EDGE_CURVE('',#141,#138,#159,.T.);
#118=EDGE_CURVE('',#139,#134,#160,.T.);
#119=EDGE_CURVE('',#138,#136,#161,.T.);
#120=EDGE_CURVE('',#141,#137,#162,.T.);
#121=EDGE_CURVE('',#140,#135,#163,.T.);
#122=VERTEX_POINT('',#326);
#123=VERTEX_POINT('',#327);
#124=VERTEX_POINT('',#329);
#125=VERTEX_POINT('',#331);
#126=VERTEX_POINT('',#335);
#127=VERTEX_POINT('',#337);
#128=VERTEX_POINT('',#341);
#129=VERTEX_POINT('',#342);
#130=VERTEX_POINT('',#344);
#131=VERTEX_POINT('',#346);
#132=VERTEX_POINT('',#350);
#133=VERTEX_POINT('',#352);
#134=VERTEX_POINT('',#356);
#135=VERTEX_POINT('',#357);
#136=VERTEX_POINT('',#359);
#137=VERTEX_POINT('',#361);
#138=VERTEX_POINT('',#369);
#139=VERTEX_POINT('',#370);
#140=VERTEX_POINT('',#372);
#141=VERTEX_POINT('',#374);
#142=LINE('',#325,#164);
#143=LINE('',#328,#165);
#144=LINE('',#330,#166);
#145=LINE('',#332,#167);
#146=LINE('',#334,#168);
#147=LINE('',#336,#169);
#148=LINE('',#338,#170);
#149=LINE('',#340,#171);
#150=LINE('',#343,#172);
#151=LINE('',#345,#173);
#152=LINE('',#347,#174);
#153=LINE('',#349,#175);
#154=LINE('',#351,#176);
#155=LINE('',#353,#177);
#156=LINE('',#355,#178);
#157=LINE('',#360,#179);
#158=LINE('',#371,#180);
#159=LINE('',#375,#181);
#160=LINE('',#377,#182);
#161=LINE('',#378,#183);
#162=LINE('',#380,#184);
#163=LINE('',#382,#185);
#164=VECTOR('',#263,1.);
#165=VECTOR('',#264,1.);
#166=VECTOR('',#265,1.);
#167=VECTOR('',#266,1.);
#168=VECTOR('',#269,1.);
#169=VECTOR('',#270,1.);
#170=VECTOR('',#271,1.);
#171=VECTOR('',#274,1.);
#172=VECTOR('',#275,1.);
#173=VECTOR('',#276,1.);
#174=VECTOR('',#277,1.);
#175=VECTOR('',#280,1.);
#176=VECTOR('',#281,1.);
#177=VECTOR('',#282,1.);
#178=VECTOR('',#285,1.);
#179=VECTOR('',#288,1.);
#180=VECTOR('',#303,1.);
#181=VECTOR('',#306,1.);
#182=VECTOR('',#309,1.);
#183=VECTOR('',#310,1.);
#184=VECTOR('',#313,1.);
#185=VECTOR('',#316,1.);
#186=EDGE_LOOP('',(#32,#33,#34,#35));
#187=EDGE_LOOP('',(#36,#37,#38,#39));
#188=EDGE_LOOP('',(#40,#41,#42,#43));
#189=EDGE_LOOP('',(#44,#45,#46,#47));
#190=EDGE_LOOP('',(#48,#49,#50,#51));
#191=EDGE_LOOP('',(#52,#53,#54,#55,#56,#57));
#192=EDGE_LOOP('',(#58,#59,#60,#61,#62,#63));
#193=EDGE_LOOP('',(#64,#65,#66,#67));
#194=EDGE_LOOP('',(#68,#69,#70,#71));
#195=EDGE_LOOP('',(#72,#73,#74,#75));
#196=EDGE_LOOP('',(#76,#77,#78,#79));
#197=EDGE_LOOP('',(#80,#81,#82,#83));
#198=EDGE_LOOP('',(#84,#85,#86,#87));
#199=EDGE_LOOP('',(#88,#89,#90,#91));
#200=FACE_BOUND('',#186,.T.);
#201=FACE_BOUND('',#187,.T.);
#202=FACE_BOUND('',#188,.T.);
#203=FACE_BOUND('',#189,.T.);
#204=FACE_BOUND('',#190,.T.);
#205=FACE_BOUND('',#191,.T.);
#206=FACE_BOUND('',#192,.T.);
#207=FACE_BOUND('',#193,.T.);
#208=FACE_BOUND('',#194,.T.);
#209=FACE_BOUND('',#195,.T.);
#210=FACE_BOUND('',#196,.T.);
#211=FACE_BOUND('',#197,.T.);
#212=FACE_BOUND('',#198,.T.);
#213=FACE_BOUND('',#199,.T.);
#214=PLANE('',#239);
#215=PLANE('',#240);
#216=PLANE('',#241);
#217=PLANE('',#242);
#218=PLANE('',#243);
#219=PLANE('',#248);
#220=PLANE('',#254);
#221=PLANE('',#256);
#222=ADVANCED_FACE('',(#200),#214,.F.);
#223=ADVANCED_FACE('',(#201),#215,.F.);
#224=ADVANCED_FACE('',(#202),#216,.F.);
#225=ADVANCED_FACE('',(#203),#217,.F.);
#226=ADVANCED_FACE('',(#204,#205),#218,.F.);
#227=ADVANCED_FACE('',(#206,#207),#219,.T.);
#228=ADVANCED_FACE('',(#208),#20,.F.);
#229=ADVANCED_FACE('',(#209),#220,.F.);
#230=ADVANCED_FACE('',(#210),#21,.F.);
#231=ADVANCED_FACE('',(#211),#221,.F.);
#232=ADVANCED_FACE('',(#212),#22,.F.);
#233=ADVANCED_FACE('',(#213),#23,.T.);
#234=CLOSED_SHELL('',(#222,#223,#224,#225,#226,#227,#228,#229,#230,#231,
#232,#233));
#235=MANIFOLD_SOLID_BREP('',#234);
#236=SHAPE_DEFINITION_REPRESENTATION(#391,#237);
#237=SHAPE_REPRESENTATION('id2',(#238),#386);
#238=AXIS2_PLACEMENT_3D('',#323,#259,#260);
#239=AXIS2_PLACEMENT_3D('',#324,#261,#262);
#240=AXIS2_PLACEMENT_3D('',#333,#267,#268);
#241=AXIS2_PLACEMENT_3D('',#339,#272,#273);
#242=AXIS2_PLACEMENT_3D('',#348,#278,#279);
#243=AXIS2_PLACEMENT_3D('',#354,#283,#284);
#244=AXIS2_PLACEMENT_3D('',#358,#286,#287);
#245=AXIS2_PLACEMENT_3D('',#362,#289,#290);
#246=AXIS2_PLACEMENT_3D('',#363,#291,#292);
#247=AXIS2_PLACEMENT_3D('',#364,#293,#294);
#248=AXIS2_PLACEMENT_3D('',#365,#295,#296);
#249=AXIS2_PLACEMENT_3D('',#366,#297,#298);
#250=AXIS2_PLACEMENT_3D('',#367,#299,#300);
#251=AXIS2_PLACEMENT_3D('',#368,#301,#302);
#252=AXIS2_PLACEMENT_3D('',#373,#304,#305);
#253=AXIS2_PLACEMENT_3D('',#376,#307,#308);
#254=AXIS2_PLACEMENT_3D('',#379,#311,#312);
#255=AXIS2_PLACEMENT_3D('',#381,#314,#315);
#256=AXIS2_PLACEMENT_3D('',#383,#317,#318);
#257=AXIS2_PLACEMENT_3D('',#384,#319,#320);
#258=AXIS2_PLACEMENT_3D('',#385,#321,#322);
#259=DIRECTION('',(0.,0.,1.));
#260=DIRECTION('',(1.,0.,0.));
#261=DIRECTION('',(1.,0.,0.));
#262=DIRECTION('',(0.,0.,-1.));
#263=DIRECTION('',(0.,0.,1.));
#264=DIRECTION('',(0.,1.,0.));
#265=DIRECTION('',(0.,0.,1.));
#266=DIRECTION('',(0.,-1.,0.));
#267=DIRECTION('',(0.,0.,1.));
#268=DIRECTION('',(1.,0.,0.));
#269=DIRECTION('',(-1.,0.,0.));
#270=DIRECTION('',(0.,1.,0.));
#271=DIRECTION('',(-1.,0.,0.));
#272=DIRECTION('',(1.,0.,0.));
#273=DIRECTION('',(0.,0.,-1.));
#274=DIRECTION('',(0.,0.,1.));
#275=DIRECTION('',(0.,1.,0.));
#276=DIRECTION('',(0.,0.,1.));
#277=DIRECTION('',(0.,-1.,0.));
#278=DIRECTION('',(0.,0.,-1.));
#279=DIRECTION('',(-1.,0.,0.));
#280=DIRECTION('',(1.,0.,0.));
#281=DIRECTION('',(0.,1.,0.));
#282=DIRECTION('',(1.,0.,0.));
#283=DIRECTION('',(0.,-1.,0.));
#284=DIRECTION('',(0.,0.,-1.));
#285=DIRECTION('',(0.,0.,-1.));
#286=DIRECTION('',(0.,1.,0.));
#287=DIRECTION('',(0.,0.,1.));
#288=DIRECTION('',(0.,0.,1.));
#289=DIRECTION('',(0.,1.,0.));
#290=DIRECTION('',(0.,0.,1.));
#291=DIRECTION('',(0.,-1.,0.));
#292=DIRECTION('',(0.,0.,1.));
#293=DIRECTION('',(0.,1.,0.));
#294=DIRECTION('',(0.,0.,1.));
#295=DIRECTION('',(0.,-1.,0.));
#296=DIRECTION('',(0.,0.,-1.));
#297=DIRECTION('',(0.,-1.,0.));
#298=DIRECTION('',(0.,0.,-1.));
#299=DIRECTION('',(0.,1.,0.));
#300=DIRECTION('',(0.,0.,1.));
#301=DIRECTION('',(0.,1.,0.));
#302=DIRECTION('',(0.,0.,1.));
#303=DIRECTION('',(0.,0.,-1.));
#304=DIRECTION('',(0.,1.,0.));
#305=DIRECTION('',(0.,0.,1.));
#306=DIRECTION('',(0.,0.,1.));
#307=DIRECTION('',(0.,1.,0.));
#308=DIRECTION('',(0.,0.,1.));
#309=DIRECTION('',(0.,1.,0.));
#310=DIRECTION('',(0.,1.,0.));
#311=DIRECTION('',(-1.,0.,0.));
#312=DIRECTION('',(0.,0.,1.));
#313=DIRECTION('',(0.,1.,0.));
#314=DIRECTION('',(0.,1.,0.));
#315=DIRECTION('',(0.,0.,1.));
#316=DIRECTION('',(0.,1.,0.));
#317=DIRECTION('',(1.,0.,0.));
#318=DIRECTION('',(0.,0.,-1.));
#319=DIRECTION('',(0.,1.,0.));
#320=DIRECTION('',(0.,0.,1.));
#321=DIRECTION('',(0.,1.,0.));
#322=DIRECTION('',(0.,0.,1.));
#323=CARTESIAN_POINT('',(0.,0.,0.));
#324=CARTESIAN_POINT('',(-0.00275,0.001,0.00275));
#325=CARTESIAN_POINT('',(-0.00275,0.,0.00275));
#326=CARTESIAN_POINT('',(-0.00275,0.,-0.00275));
#327=CARTESIAN_POINT('',(-0.00275,0.,-0.00184661853126194));
#328=CARTESIAN_POINT('',(-0.00275,0.,-0.00184661853126194));
#329=CARTESIAN_POINT('',(-0.00275,0.001,-0.00184661853126194));
#330=CARTESIAN_POINT('',(-0.00275,0.001,0.00275));
#331=CARTESIAN_POINT('',(-0.00275,0.001,-0.00275));
#332=CARTESIAN_POINT('',(-0.00275,0.001,-0.00275));
#333=CARTESIAN_POINT('',(-0.00275,0.001,-0.00275));
#334=CARTESIAN_POINT('',(-0.00275,0.001,-0.00275));
#335=CARTESIAN_POINT('',(0.00213960949469487,0.001,-0.00275));
#336=CARTESIAN_POINT('',(0.00213960949469487,0.,-0.00275));
#337=CARTESIAN_POINT('',(0.00213960949469487,0.,-0.00275));
#338=CARTESIAN_POINT('',(-0.00275,0.,-0.00275));
#339=CARTESIAN_POINT('',(-0.00275,0.001,0.00275));
#340=CARTESIAN_POINT('',(-0.00275,0.001,0.00275));
#341=CARTESIAN_POINT('',(-0.00275,0.001,0.00184661853126194));
#342=CARTESIAN_POINT('',(-0.00275,0.001,0.00275));
#343=CARTESIAN_POINT('',(-0.00275,0.,0.00184661853126194));
#344=CARTESIAN_POINT('',(-0.00275,0.,0.00184661853126194));
#345=CARTESIAN_POINT('',(-0.00275,0.,0.00275));
#346=CARTESIAN_POINT('',(-0.00275,0.,0.00275));
#347=CARTESIAN_POINT('',(-0.00275,0.001,0.00275));
#348=CARTESIAN_POINT('',(-0.00275,0.001,0.00275));
#349=CARTESIAN_POINT('',(-0.00275,0.,0.00275));
#350=CARTESIAN_POINT('',(0.00213960949469487,0.,0.00275));
#351=CARTESIAN_POINT('',(0.00213960949469487,0.,0.00275));
#352=CARTESIAN_POINT('',(0.00213960949469487,0.001,0.00275));
#353=CARTESIAN_POINT('',(-0.00275,0.001,0.00275));
#354=CARTESIAN_POINT('',(0.,0.001,0.));
#355=CARTESIAN_POINT('',(0.00195,0.001,0.0002));
#356=CARTESIAN_POINT('',(0.00195,0.001,0.0002));
#357=CARTESIAN_POINT('',(0.00195,0.001,-0.0002));
#358=CARTESIAN_POINT('',(0.00105,0.001,0.0002));
#359=CARTESIAN_POINT('',(0.00015,0.001,0.0002));
#360=CARTESIAN_POINT('',(0.00015,0.001,0.0002));
#361=CARTESIAN_POINT('',(0.00015,0.001,-0.0002));
#362=CARTESIAN_POINT('',(0.00105,0.001,-0.0002));
#363=CARTESIAN_POINT('',(-0.00375,0.001,0.));
#364=CARTESIAN_POINT('',(-0.00375,0.001,0.));
#365=CARTESIAN_POINT('',(0.,0.,0.));
#366=CARTESIAN_POINT('',(-0.00375,0.,0.));
#367=CARTESIAN_POINT('',(-0.00375,0.,0.));
#368=CARTESIAN_POINT('',(0.00105,0.,0.0002));
#369=CARTESIAN_POINT('',(0.00015,0.,0.0002));
#370=CARTESIAN_POINT('',(0.00195,0.,0.0002));
#371=CARTESIAN_POINT('',(0.00195,0.,0.0002));
#372=CARTESIAN_POINT('',(0.00195,0.,-0.0002));
#373=CARTESIAN_POINT('',(0.00105,0.,-0.0002));
#374=CARTESIAN_POINT('',(0.00015,0.,-0.0002));
#375=CARTESIAN_POINT('',(0.00015,0.,0.0002));
#376=CARTESIAN_POINT('',(0.00105,0.,0.0002));
#377=CARTESIAN_POINT('',(0.00195,0.,0.0002));
#378=CARTESIAN_POINT('',(0.00015,0.,0.0002));
#379=CARTESIAN_POINT('',(0.00015,0.,0.0002));
#380=CARTESIAN_POINT('',(0.00015,0.,-0.0002));
#381=CARTESIAN_POINT('',(0.00105,0.,-0.0002));
#382=CARTESIAN_POINT('',(0.00195,0.,-0.0002));
#383=CARTESIAN_POINT('',(0.00195,0.,0.0002));
#384=CARTESIAN_POINT('',(-0.00375,0.,0.));
#385=CARTESIAN_POINT('',(-0.00375,0.,0.));
#386=(
GEOMETRIC_REPRESENTATION_CONTEXT(3)
GLOBAL_UNCERTAINTY_ASSIGNED_CONTEXT((#387))
GLOBAL_UNIT_ASSIGNED_CONTEXT((#390,#389,#388))
REPRESENTATION_CONTEXT('id2','TOP_LEVEL_ASSEMBLY_PART')
);
#387=UNCERTAINTY_MEASURE_WITH_UNIT(LENGTH_MEASURE(1.E-8),#390,
'DISTANCE_ACCURACY_VALUE','Maximum Tolerance applied to model');
#388=(
NAMED_UNIT(*)
SI_UNIT($,.STERADIAN.)
SOLID_ANGLE_UNIT()
);
#389=(
NAMED_UNIT(*)
PLANE_ANGLE_UNIT()
SI_UNIT($,.RADIAN.)
);
#390=(
LENGTH_UNIT()
NAMED_UNIT(*)
SI_UNIT($,.METRE.)
);
#391=PRODUCT_DEFINITION_SHAPE('','',#392);
#392=PRODUCT_DEFINITION('','',#394,#393);
#393=DESIGN_CONTEXT('',#400,'design');
#394=PRODUCT_DEFINITION_FORMATION_WITH_SPECIFIED_SOURCE('','',#396,
 .NOT_KNOWN.);
#395=PRODUCT_RELATED_PRODUCT_CATEGORY('','',(#396));
#396=PRODUCT('id2','id2','id2',(#398));
#397=PRODUCT_CATEGORY('','');
#398=MECHANICAL_CONTEXT('',#400,'mechanical');
#399=APPLICATION_PROTOCOL_DEFINITION('international standard',
'config_control_design',2010,#400);
#400=APPLICATION_CONTEXT(
'configuration controlled 3D designs of mechanical parts and assemblie
s');
ENDSEC;
END-ISO-10303-21;
