ISO-10303-21;
HEADER;
/* Generated by software containing ST-Developer
 * from STEP Tools, Inc. (www.steptools.com) 
 */
/* OPTION: using custom renumber hook */

FILE_DESCRIPTION(
/* description */ ('STEP AP203'),
/* implementation_level */ '2;1');

FILE_NAME(
/* name */ '6a545db1a930e3b0a213e7e3',
/* time_stamp */ '2026-07-13T03:38:25Z',
/* author */ (''),
/* organization */ (''),
/* preprocessor_version */ 'ST-DEVELOPER v20',
/* originating_system */ 'ONSHAPE BY PTC INC, 1.217',
/* authorisation */ '  ');

FILE_SCHEMA (('CONFIG_CONTROL_DESIGN'));
ENDSEC;

DATA;
#10=PROPERTY_DEFINITION_REPRESENTATION(#14,#12);
#11=PROPERTY_DEFINITION_REPRESENTATION(#15,#13);
#12=REPRESENTATION('',(#16),#276);
#13=REPRESENTATION('',(#17),#276);
#14=PROPERTY_DEFINITION('pmi validation property','',#281);
#15=PROPERTY_DEFINITION('pmi validation property','',#281);
#16=VALUE_REPRESENTATION_ITEM('number of annotations',COUNT_MEASURE(0.));
#17=VALUE_REPRESENTATION_ITEM('number of views',COUNT_MEASURE(0.));
#18=SHAPE_REPRESENTATION_RELATIONSHIP('','',#162,#19);
#19=ADVANCED_BREP_SHAPE_REPRESENTATION('',(#160),#276);
#20=CONICAL_SURFACE('',#175,0.0225,1.0471975511966);
#21=CONICAL_SURFACE('',#183,0.00205,0.785398163397449);
#22=CONICAL_SURFACE('',#186,0.00205,0.785398163397449);
#23=PLANE('',#167);
#24=PLANE('',#171);
#25=PLANE('',#177);
#26=ORIENTED_EDGE('',*,*,#52,.T.);
#27=ORIENTED_EDGE('',*,*,#53,.F.);
#28=ORIENTED_EDGE('',*,*,#54,.T.);
#29=ORIENTED_EDGE('',*,*,#55,.T.);
#30=ORIENTED_EDGE('',*,*,#56,.T.);
#31=ORIENTED_EDGE('',*,*,#52,.F.);
#32=ORIENTED_EDGE('',*,*,#57,.F.);
#33=ORIENTED_EDGE('',*,*,#53,.T.);
#34=ORIENTED_EDGE('',*,*,#57,.T.);
#35=ORIENTED_EDGE('',*,*,#58,.F.);
#36=ORIENTED_EDGE('',*,*,#59,.F.);
#37=ORIENTED_EDGE('',*,*,#58,.T.);
#38=ORIENTED_EDGE('',*,*,#60,.F.);
#39=ORIENTED_EDGE('',*,*,#61,.F.);
#40=ORIENTED_EDGE('',*,*,#62,.F.);
#41=ORIENTED_EDGE('',*,*,#59,.T.);
#42=ORIENTED_EDGE('',*,*,#56,.F.);
#43=ORIENTED_EDGE('',*,*,#63,.T.);
#44=ORIENTED_EDGE('',*,*,#63,.F.);
#45=ORIENTED_EDGE('',*,*,#62,.T.);
#46=ORIENTED_EDGE('',*,*,#55,.F.);
#47=ORIENTED_EDGE('',*,*,#64,.T.);
#48=ORIENTED_EDGE('',*,*,#64,.F.);
#49=ORIENTED_EDGE('',*,*,#61,.T.);
#50=ORIENTED_EDGE('',*,*,#54,.F.);
#51=ORIENTED_EDGE('',*,*,#60,.T.);
#52=EDGE_CURVE('',#65,#65,#78,.T.);
#53=EDGE_CURVE('',#66,#66,#79,.T.);
#54=EDGE_CURVE('',#67,#67,#80,.T.);
#55=EDGE_CURVE('',#68,#68,#81,.T.);
#56=EDGE_CURVE('',#69,#69,#82,.T.);
#57=EDGE_CURVE('',#70,#70,#83,.T.);
#58=EDGE_CURVE('',#71,#71,#84,.T.);
#59=EDGE_CURVE('',#72,#72,#85,.T.);
#60=EDGE_CURVE('',#73,#73,#86,.T.);
#61=EDGE_CURVE('',#74,#74,#87,.T.);
#62=EDGE_CURVE('',#75,#75,#88,.T.);
#63=EDGE_CURVE('',#76,#76,#89,.T.);
#64=EDGE_CURVE('',#77,#77,#90,.T.);
#65=VERTEX_POINT('',#241);
#66=VERTEX_POINT('',#243);
#67=VERTEX_POINT('',#246);
#68=VERTEX_POINT('',#248);
#69=VERTEX_POINT('',#250);
#70=VERTEX_POINT('',#253);
#71=VERTEX_POINT('',#256);
#72=VERTEX_POINT('',#259);
#73=VERTEX_POINT('',#262);
#74=VERTEX_POINT('',#264);
#75=VERTEX_POINT('',#266);
#76=VERTEX_POINT('',#269);
#77=VERTEX_POINT('',#273);
#78=CIRCLE('',#165,0.0241);
#79=CIRCLE('',#166,0.0241);
#80=CIRCLE('',#168,0.0011);
#81=CIRCLE('',#169,0.0011);
#82=CIRCLE('',#170,0.0011);
#83=CIRCLE('',#172,0.0225);
#84=CIRCLE('',#174,0.0225);
#85=CIRCLE('',#176,0.0219803847577293);
#86=CIRCLE('',#178,0.0011);
#87=CIRCLE('',#179,0.00205);
#88=CIRCLE('',#180,0.00205);
#89=CIRCLE('',#182,0.0011);
#90=CIRCLE('',#185,0.0011);
#91=EDGE_LOOP('',(#26));
#92=EDGE_LOOP('',(#27));
#93=EDGE_LOOP('',(#28));
#94=EDGE_LOOP('',(#29));
#95=EDGE_LOOP('',(#30));
#96=EDGE_LOOP('',(#31));
#97=EDGE_LOOP('',(#32));
#98=EDGE_LOOP('',(#33));
#99=EDGE_LOOP('',(#34));
#100=EDGE_LOOP('',(#35));
#101=EDGE_LOOP('',(#36));
#102=EDGE_LOOP('',(#37));
#103=EDGE_LOOP('',(#38));
#104=EDGE_LOOP('',(#39));
#105=EDGE_LOOP('',(#40));
#106=EDGE_LOOP('',(#41));
#107=EDGE_LOOP('',(#42));
#108=EDGE_LOOP('',(#43));
#109=EDGE_LOOP('',(#44));
#110=EDGE_LOOP('',(#45));
#111=EDGE_LOOP('',(#46));
#112=EDGE_LOOP('',(#47));
#113=EDGE_LOOP('',(#48));
#114=EDGE_LOOP('',(#49));
#115=EDGE_LOOP('',(#50));
#116=EDGE_LOOP('',(#51));
#117=FACE_BOUND('',#91,.T.);
#118=FACE_BOUND('',#92,.T.);
#119=FACE_BOUND('',#93,.T.);
#120=FACE_BOUND('',#94,.T.);
#121=FACE_BOUND('',#95,.T.);
#122=FACE_BOUND('',#96,.T.);
#123=FACE_BOUND('',#97,.T.);
#124=FACE_BOUND('',#98,.T.);
#125=FACE_BOUND('',#99,.T.);
#126=FACE_BOUND('',#100,.T.);
#127=FACE_BOUND('',#101,.T.);
#128=FACE_BOUND('',#102,.T.);
#129=FACE_BOUND('',#103,.T.);
#130=FACE_BOUND('',#104,.T.);
#131=FACE_BOUND('',#105,.T.);
#132=FACE_BOUND('',#106,.T.);
#133=FACE_BOUND('',#107,.T.);
#134=FACE_BOUND('',#108,.T.);
#135=FACE_BOUND('',#109,.T.);
#136=FACE_BOUND('',#110,.T.);
#137=FACE_BOUND('',#111,.T.);
#138=FACE_BOUND('',#112,.T.);
#139=FACE_BOUND('',#113,.T.);
#140=FACE_BOUND('',#114,.T.);
#141=FACE_BOUND('',#115,.T.);
#142=FACE_BOUND('',#116,.T.);
#143=CYLINDRICAL_SURFACE('',#164,0.0241);
#144=CYLINDRICAL_SURFACE('',#173,0.0225);
#145=CYLINDRICAL_SURFACE('',#181,0.0011);
#146=CYLINDRICAL_SURFACE('',#184,0.0011);
#147=CYLINDRICAL_SURFACE('',#187,0.0011);
#148=ADVANCED_FACE('',(#117,#118),#143,.T.);
#149=ADVANCED_FACE('',(#119,#120,#121,#122),#23,.F.);
#150=ADVANCED_FACE('',(#123,#124),#24,.T.);
#151=ADVANCED_FACE('',(#125,#126),#144,.F.);
#152=ADVANCED_FACE('',(#127,#128),#20,.T.);
#153=ADVANCED_FACE('',(#129,#130,#131,#132),#25,.T.);
#154=ADVANCED_FACE('',(#133,#134),#145,.F.);
#155=ADVANCED_FACE('',(#135,#136),#21,.F.);
#156=ADVANCED_FACE('',(#137,#138),#146,.F.);
#157=ADVANCED_FACE('',(#139,#140),#22,.F.);
#158=ADVANCED_FACE('',(#141,#142),#147,.F.);
#159=CLOSED_SHELL('',(#148,#149,#150,#151,#152,#153,#154,#155,#156,#157,
#158));
#160=MANIFOLD_SOLID_BREP('',#159);
#161=SHAPE_DEFINITION_REPRESENTATION(#281,#162);
#162=SHAPE_REPRESENTATION('id2',(#163),#276);
#163=AXIS2_PLACEMENT_3D('',#238,#188,#189);
#164=AXIS2_PLACEMENT_3D('',#239,#190,#191);
#165=AXIS2_PLACEMENT_3D('',#240,#192,#193);
#166=AXIS2_PLACEMENT_3D('',#242,#194,#195);
#167=AXIS2_PLACEMENT_3D('',#244,#196,#197);
#168=AXIS2_PLACEMENT_3D('',#245,#198,#199);
#169=AXIS2_PLACEMENT_3D('',#247,#200,#201);
#170=AXIS2_PLACEMENT_3D('',#249,#202,#203);
#171=AXIS2_PLACEMENT_3D('',#251,#204,#205);
#172=AXIS2_PLACEMENT_3D('',#252,#206,#207);
#173=AXIS2_PLACEMENT_3D('',#254,#208,#209);
#174=AXIS2_PLACEMENT_3D('',#255,#210,#211);
#175=AXIS2_PLACEMENT_3D('',#257,#212,#213);
#176=AXIS2_PLACEMENT_3D('',#258,#214,#215);
#177=AXIS2_PLACEMENT_3D('',#260,#216,#217);
#178=AXIS2_PLACEMENT_3D('',#261,#218,#219);
#179=AXIS2_PLACEMENT_3D('',#263,#220,#221);
#180=AXIS2_PLACEMENT_3D('',#265,#222,#223);
#181=AXIS2_PLACEMENT_3D('',#267,#224,#225);
#182=AXIS2_PLACEMENT_3D('',#268,#226,#227);
#183=AXIS2_PLACEMENT_3D('',#270,#228,#229);
#184=AXIS2_PLACEMENT_3D('',#271,#230,#231);
#185=AXIS2_PLACEMENT_3D('',#272,#232,#233);
#186=AXIS2_PLACEMENT_3D('',#274,#234,#235);
#187=AXIS2_PLACEMENT_3D('',#275,#236,#237);
#188=DIRECTION('',(0.,0.,1.));
#189=DIRECTION('',(1.,0.,0.));
#190=DIRECTION('',(0.,0.,1.));
#191=DIRECTION('',(1.,0.,0.));
#192=DIRECTION('',(0.,0.,1.));
#193=DIRECTION('',(1.,0.,0.));
#194=DIRECTION('',(0.,0.,1.));
#195=DIRECTION('',(1.,0.,0.));
#196=DIRECTION('',(0.,0.,1.));
#197=DIRECTION('',(1.,0.,0.));
#198=DIRECTION('',(0.,0.,1.));
#199=DIRECTION('',(1.,0.,0.));
#200=DIRECTION('',(0.,0.,1.));
#201=DIRECTION('',(1.,0.,0.));
#202=DIRECTION('',(0.,0.,1.));
#203=DIRECTION('',(1.,0.,0.));
#204=DIRECTION('',(0.,0.,1.));
#205=DIRECTION('',(1.,0.,0.));
#206=DIRECTION('',(0.,0.,1.));
#207=DIRECTION('',(1.,0.,0.));
#208=DIRECTION('',(0.,0.,1.));
#209=DIRECTION('',(1.,0.,0.));
#210=DIRECTION('',(0.,0.,1.));
#211=DIRECTION('',(1.,0.,0.));
#212=DIRECTION('',(0.,0.,-1.));
#213=DIRECTION('',(-1.,0.,0.));
#214=DIRECTION('',(0.,0.,1.));
#215=DIRECTION('',(1.,0.,0.));
#216=DIRECTION('',(0.,0.,1.));
#217=DIRECTION('',(1.,0.,0.));
#218=DIRECTION('',(0.,0.,1.));
#219=DIRECTION('',(1.,0.,0.));
#220=DIRECTION('',(0.,0.,1.));
#221=DIRECTION('',(1.,0.,0.));
#222=DIRECTION('',(0.,0.,1.));
#223=DIRECTION('',(1.,0.,0.));
#224=DIRECTION('',(0.,0.,1.));
#225=DIRECTION('',(1.,0.,0.));
#226=DIRECTION('',(0.,0.,1.));
#227=DIRECTION('',(1.,0.,0.));
#228=DIRECTION('',(0.,0.,1.));
#229=DIRECTION('',(1.,0.,0.));
#230=DIRECTION('',(0.,0.,1.));
#231=DIRECTION('',(1.,0.,0.));
#232=DIRECTION('',(0.,0.,1.));
#233=DIRECTION('',(1.,0.,0.));
#234=DIRECTION('',(0.,0.,1.));
#235=DIRECTION('',(1.,0.,0.));
#236=DIRECTION('',(0.,0.,1.));
#237=DIRECTION('',(1.,0.,0.));
#238=CARTESIAN_POINT('',(0.,0.,0.));
#239=CARTESIAN_POINT('',(0.,0.,-0.002));
#240=CARTESIAN_POINT('',(0.,0.,-0.002));
#241=CARTESIAN_POINT('',(0.0241,0.,-0.002));
#242=CARTESIAN_POINT('',(0.,0.,0.));
#243=CARTESIAN_POINT('',(0.0241,0.,0.));
#244=CARTESIAN_POINT('',(0.,0.,-0.002));
#245=CARTESIAN_POINT('',(-0.019,0.,-0.002));
#246=CARTESIAN_POINT('',(-0.0179,0.,-0.002));
#247=CARTESIAN_POINT('',(0.,0.019,-0.002));
#248=CARTESIAN_POINT('',(0.0011,0.019,-0.002));
#249=CARTESIAN_POINT('',(0.,-0.019,-0.002));
#250=CARTESIAN_POINT('',(0.0011,-0.019,-0.002));
#251=CARTESIAN_POINT('',(0.,0.,0.));
#252=CARTESIAN_POINT('',(0.,0.,0.));
#253=CARTESIAN_POINT('',(0.0225,0.,0.));
#254=CARTESIAN_POINT('',(0.,0.,-0.0006));
#255=CARTESIAN_POINT('',(0.,0.,-0.0009));
#256=CARTESIAN_POINT('',(0.0225,0.,-0.0009));
#257=CARTESIAN_POINT('',(0.,0.,-0.0009));
#258=CARTESIAN_POINT('',(0.,0.,-0.0006));
#259=CARTESIAN_POINT('',(0.0219803847577293,0.,-0.0006));
#260=CARTESIAN_POINT('',(0.,0.,-0.0006));
#261=CARTESIAN_POINT('',(-0.019,0.,-0.0006));
#262=CARTESIAN_POINT('',(-0.0179,0.,-0.0006));
#263=CARTESIAN_POINT('',(0.,0.019,-0.0006));
#264=CARTESIAN_POINT('',(0.00205,0.019,-0.0006));
#265=CARTESIAN_POINT('',(0.,-0.019,-0.0006));
#266=CARTESIAN_POINT('',(0.00205,-0.019,-0.0006));
#267=CARTESIAN_POINT('',(0.,-0.019,-0.0006));
#268=CARTESIAN_POINT('',(0.,-0.019,-0.00155));
#269=CARTESIAN_POINT('',(0.0011,-0.019,-0.00155));
#270=CARTESIAN_POINT('',(0.,-0.019,-0.0006));
#271=CARTESIAN_POINT('',(0.,0.019,-0.0006));
#272=CARTESIAN_POINT('',(0.,0.019,-0.00155));
#273=CARTESIAN_POINT('',(0.0011,0.019,-0.00155));
#274=CARTESIAN_POINT('',(0.,0.019,-0.0006));
#275=CARTESIAN_POINT('',(-0.019,0.,-0.0006));
#276=(
GEOMETRIC_REPRESENTATION_CONTEXT(3)
GLOBAL_UNCERTAINTY_ASSIGNED_CONTEXT((#277))
GLOBAL_UNIT_ASSIGNED_CONTEXT((#280,#279,#278))
REPRESENTATION_CONTEXT('id2','TOP_LEVEL_ASSEMBLY_PART')
);
#277=UNCERTAINTY_MEASURE_WITH_UNIT(LENGTH_MEASURE(1.E-8),#280,
'DISTANCE_ACCURACY_VALUE','Maximum Tolerance applied to model');
#278=(
NAMED_UNIT(*)
SI_UNIT($,.STERADIAN.)
SOLID_ANGLE_UNIT()
);
#279=(
NAMED_UNIT(*)
PLANE_ANGLE_UNIT()
SI_UNIT($,.RADIAN.)
);
#280=(
LENGTH_UNIT()
NAMED_UNIT(*)
SI_UNIT($,.METRE.)
);
#281=PRODUCT_DEFINITION_SHAPE('','',#282);
#282=PRODUCT_DEFINITION('','',#284,#283);
#283=DESIGN_CONTEXT('',#290,'design');
#284=PRODUCT_DEFINITION_FORMATION_WITH_SPECIFIED_SOURCE('','',#286,
 .NOT_KNOWN.);
#285=PRODUCT_RELATED_PRODUCT_CATEGORY('','',(#286));
#286=PRODUCT('id2','id2','id2',(#288));
#287=PRODUCT_CATEGORY('','');
#288=MECHANICAL_CONTEXT('',#290,'mechanical');
#289=APPLICATION_PROTOCOL_DEFINITION('international standard',
'config_control_design',2010,#290);
#290=APPLICATION_CONTEXT(
'configuration controlled 3D designs of mechanical parts and assemblie
s');
ENDSEC;
END-ISO-10303-21;
