ISO-10303-21;
HEADER;
/* Generated by software containing ST-Developer
 * from STEP Tools, Inc. (www.steptools.com) 
 */
/* OPTION: using custom renumber hook */

FILE_DESCRIPTION(
/* description */ ('STEP AP203'),
/* implementation_level */ '2;1');

FILE_NAME(
/* name */ '6a545d9b2327ac15b30e01fd',
/* time_stamp */ '2026-07-13T03:38:04Z',
/* author */ (''),
/* organization */ (''),
/* preprocessor_version */ 'ST-DEVELOPER v20',
/* originating_system */ 'ONSHAPE BY PTC INC, 1.217',
/* authorisation */ '  ');

FILE_SCHEMA (('CONFIG_CONTROL_DESIGN'));
ENDSEC;

DATA;
#10=PROPERTY_DEFINITION_REPRESENTATION(#14,#12);
#11=PROPERTY_DEFINITION_REPRESENTATION(#15,#13);
#12=REPRESENTATION('',(#16),#390);
#13=REPRESENTATION('',(#17),#390);
#14=PROPERTY_DEFINITION('pmi validation property','',#395);
#15=PROPERTY_DEFINITION('pmi validation property','',#395);
#16=VALUE_REPRESENTATION_ITEM('number of annotations',COUNT_MEASURE(0.));
#17=VALUE_REPRESENTATION_ITEM('number of views',COUNT_MEASURE(0.));
#18=SHAPE_REPRESENTATION_RELATIONSHIP('','',#233,#19);
#19=ADVANCED_BREP_SHAPE_REPRESENTATION('',(#231),#390);
#20=CYLINDRICAL_SURFACE('',#238,0.007);
#21=CYLINDRICAL_SURFACE('',#247,0.00625);
#22=CYLINDRICAL_SURFACE('',#251,0.005);
#23=LINE('',#333,#39);
#24=LINE('',#337,#40);
#25=LINE('',#342,#41);
#26=LINE('',#343,#42);
#27=LINE('',#347,#43);
#28=LINE('',#351,#44);
#29=LINE('',#358,#45);
#30=LINE('',#362,#46);
#31=LINE('',#373,#47);
#32=LINE('',#374,#48);
#33=LINE('',#378,#49);
#34=LINE('',#379,#50);
#35=LINE('',#381,#51);
#36=LINE('',#382,#52);
#37=LINE('',#386,#53);
#38=LINE('',#388,#54);
#39=VECTOR('',#266,1.);
#40=VECTOR('',#269,1.);
#41=VECTOR('',#274,1.);
#42=VECTOR('',#275,1.);
#43=VECTOR('',#278,1.);
#44=VECTOR('',#281,1.);
#45=VECTOR('',#290,1.);
#46=VECTOR('',#293,1.);
#47=VECTOR('',#306,1.);
#48=VECTOR('',#307,1.);
#49=VECTOR('',#310,1.);
#50=VECTOR('',#311,1.);
#51=VECTOR('',#314,1.);
#52=VECTOR('',#315,1.);
#53=VECTOR('',#322,1.);
#54=VECTOR('',#325,1.);
#55=ORIENTED_EDGE('',*,*,#111,.F.);
#56=ORIENTED_EDGE('',*,*,#112,.F.);
#57=ORIENTED_EDGE('',*,*,#113,.F.);
#58=ORIENTED_EDGE('',*,*,#114,.F.);
#59=ORIENTED_EDGE('',*,*,#115,.T.);
#60=ORIENTED_EDGE('',*,*,#116,.T.);
#61=ORIENTED_EDGE('',*,*,#111,.T.);
#62=ORIENTED_EDGE('',*,*,#117,.T.);
#63=ORIENTED_EDGE('',*,*,#118,.T.);
#64=ORIENTED_EDGE('',*,*,#119,.T.);
#65=ORIENTED_EDGE('',*,*,#120,.T.);
#66=ORIENTED_EDGE('',*,*,#121,.T.);
#67=ORIENTED_EDGE('',*,*,#122,.F.);
#68=ORIENTED_EDGE('',*,*,#123,.F.);
#69=ORIENTED_EDGE('',*,*,#122,.T.);
#70=ORIENTED_EDGE('',*,*,#120,.F.);
#71=ORIENTED_EDGE('',*,*,#124,.F.);
#72=ORIENTED_EDGE('',*,*,#125,.F.);
#73=ORIENTED_EDGE('',*,*,#126,.F.);
#74=ORIENTED_EDGE('',*,*,#127,.F.);
#75=ORIENTED_EDGE('',*,*,#123,.T.);
#76=ORIENTED_EDGE('',*,*,#128,.F.);
#77=ORIENTED_EDGE('',*,*,#127,.T.);
#78=ORIENTED_EDGE('',*,*,#129,.T.);
#79=ORIENTED_EDGE('',*,*,#130,.T.);
#80=ORIENTED_EDGE('',*,*,#113,.T.);
#81=ORIENTED_EDGE('',*,*,#131,.T.);
#82=ORIENTED_EDGE('',*,*,#132,.T.);
#83=ORIENTED_EDGE('',*,*,#133,.T.);
#84=ORIENTED_EDGE('',*,*,#125,.T.);
#85=ORIENTED_EDGE('',*,*,#134,.T.);
#86=ORIENTED_EDGE('',*,*,#128,.T.);
#87=ORIENTED_EDGE('',*,*,#135,.T.);
#88=ORIENTED_EDGE('',*,*,#132,.F.);
#89=ORIENTED_EDGE('',*,*,#136,.T.);
#90=ORIENTED_EDGE('',*,*,#115,.F.);
#91=ORIENTED_EDGE('',*,*,#126,.T.);
#92=ORIENTED_EDGE('',*,*,#133,.F.);
#93=ORIENTED_EDGE('',*,*,#135,.F.);
#94=ORIENTED_EDGE('',*,*,#121,.F.);
#95=ORIENTED_EDGE('',*,*,#136,.F.);
#96=ORIENTED_EDGE('',*,*,#131,.F.);
#97=ORIENTED_EDGE('',*,*,#112,.T.);
#98=ORIENTED_EDGE('',*,*,#116,.F.);
#99=ORIENTED_EDGE('',*,*,#114,.T.);
#100=ORIENTED_EDGE('',*,*,#130,.F.);
#101=ORIENTED_EDGE('',*,*,#137,.F.);
#102=ORIENTED_EDGE('',*,*,#117,.F.);
#103=ORIENTED_EDGE('',*,*,#138,.F.);
#104=ORIENTED_EDGE('',*,*,#134,.F.);
#105=ORIENTED_EDGE('',*,*,#124,.T.);
#106=ORIENTED_EDGE('',*,*,#119,.F.);
#107=ORIENTED_EDGE('',*,*,#137,.T.);
#108=ORIENTED_EDGE('',*,*,#129,.F.);
#109=ORIENTED_EDGE('',*,*,#138,.T.);
#110=ORIENTED_EDGE('',*,*,#118,.F.);
#111=EDGE_CURVE('',#139,#140,#159,.T.);
#112=EDGE_CURVE('',#141,#139,#23,.T.);
#113=EDGE_CURVE('',#142,#141,#160,.T.);
#114=EDGE_CURVE('',#140,#142,#24,.T.);
#115=EDGE_CURVE('',#143,#144,#161,.T.);
#116=EDGE_CURVE('',#144,#139,#25,.T.);
#117=EDGE_CURVE('',#140,#145,#26,.F.);
#118=EDGE_CURVE('',#145,#146,#162,.T.);
#119=EDGE_CURVE('',#146,#147,#27,.T.);
#120=EDGE_CURVE('',#147,#148,#163,.T.);
#121=EDGE_CURVE('',#148,#143,#28,.F.);
#122=EDGE_CURVE('',#149,#149,#164,.T.);
#123=EDGE_CURVE('',#150,#150,#165,.T.);
#124=EDGE_CURVE('',#151,#147,#29,.T.);
#125=EDGE_CURVE('',#152,#151,#166,.T.);
#126=EDGE_CURVE('',#148,#152,#30,.T.);
#127=EDGE_CURVE('',#153,#153,#167,.T.);
#128=EDGE_CURVE('',#154,#154,#168,.T.);
#129=EDGE_CURVE('',#155,#156,#169,.F.);
#130=EDGE_CURVE('',#156,#142,#31,.T.);
#131=EDGE_CURVE('',#141,#157,#32,.F.);
#132=EDGE_CURVE('',#157,#158,#170,.F.);
#133=EDGE_CURVE('',#158,#152,#33,.T.);
#134=EDGE_CURVE('',#151,#155,#34,.F.);
#135=EDGE_CURVE('',#143,#158,#35,.T.);
#136=EDGE_CURVE('',#157,#144,#36,.T.);
#137=EDGE_CURVE('',#145,#156,#37,.T.);
#138=EDGE_CURVE('',#155,#146,#38,.T.);
#139=VERTEX_POINT('',#331);
#140=VERTEX_POINT('',#332);
#141=VERTEX_POINT('',#334);
#142=VERTEX_POINT('',#336);
#143=VERTEX_POINT('',#340);
#144=VERTEX_POINT('',#341);
#145=VERTEX_POINT('',#344);
#146=VERTEX_POINT('',#346);
#147=VERTEX_POINT('',#348);
#148=VERTEX_POINT('',#350);
#149=VERTEX_POINT('',#353);
#150=VERTEX_POINT('',#356);
#151=VERTEX_POINT('',#359);
#152=VERTEX_POINT('',#361);
#153=VERTEX_POINT('',#365);
#154=VERTEX_POINT('',#368);
#155=VERTEX_POINT('',#371);
#156=VERTEX_POINT('',#372);
#157=VERTEX_POINT('',#375);
#158=VERTEX_POINT('',#377);
#159=CIRCLE('',#236,0.007);
#160=CIRCLE('',#237,0.005);
#161=CIRCLE('',#239,0.007);
#162=CIRCLE('',#240,0.007);
#163=CIRCLE('',#241,0.007);
#164=CIRCLE('',#242,0.007);
#165=CIRCLE('',#244,0.00625);
#166=CIRCLE('',#246,0.005);
#167=CIRCLE('',#248,0.00625);
#168=CIRCLE('',#250,0.005);
#169=CIRCLE('',#252,0.005);
#170=CIRCLE('',#253,0.005);
#171=EDGE_LOOP('',(#55,#56,#57,#58));
#172=EDGE_LOOP('',(#59,#60,#61,#62,#63,#64,#65,#66));
#173=EDGE_LOOP('',(#67));
#174=EDGE_LOOP('',(#68));
#175=EDGE_LOOP('',(#69));
#176=EDGE_LOOP('',(#70,#71,#72,#73));
#177=EDGE_LOOP('',(#74));
#178=EDGE_LOOP('',(#75));
#179=EDGE_LOOP('',(#76));
#180=EDGE_LOOP('',(#77));
#181=EDGE_LOOP('',(#78,#79,#80,#81,#82,#83,#84,#85));
#182=EDGE_LOOP('',(#86));
#183=EDGE_LOOP('',(#87,#88,#89,#90));
#184=EDGE_LOOP('',(#91,#92,#93,#94));
#185=EDGE_LOOP('',(#95,#96,#97,#98));
#186=EDGE_LOOP('',(#99,#100,#101,#102));
#187=EDGE_LOOP('',(#103,#104,#105,#106));
#188=EDGE_LOOP('',(#107,#108,#109,#110));
#189=FACE_BOUND('',#171,.T.);
#190=FACE_BOUND('',#172,.T.);
#191=FACE_BOUND('',#173,.T.);
#192=FACE_BOUND('',#174,.T.);
#193=FACE_BOUND('',#175,.T.);
#194=FACE_BOUND('',#176,.T.);
#195=FACE_BOUND('',#177,.T.);
#196=FACE_BOUND('',#178,.T.);
#197=FACE_BOUND('',#179,.T.);
#198=FACE_BOUND('',#180,.T.);
#199=FACE_BOUND('',#181,.T.);
#200=FACE_BOUND('',#182,.T.);
#201=FACE_BOUND('',#183,.T.);
#202=FACE_BOUND('',#184,.T.);
#203=FACE_BOUND('',#185,.T.);
#204=FACE_BOUND('',#186,.T.);
#205=FACE_BOUND('',#187,.T.);
#206=FACE_BOUND('',#188,.T.);
#207=PLANE('',#235);
#208=PLANE('',#243);
#209=PLANE('',#245);
#210=PLANE('',#249);
#211=PLANE('',#254);
#212=PLANE('',#255);
#213=PLANE('',#256);
#214=PLANE('',#257);
#215=PLANE('',#258);
#216=PLANE('',#259);
#217=ADVANCED_FACE('',(#189),#207,.F.);
#218=ADVANCED_FACE('',(#190,#191),#20,.T.);
#219=ADVANCED_FACE('',(#192,#193),#208,.T.);
#220=ADVANCED_FACE('',(#194),#209,.F.);
#221=ADVANCED_FACE('',(#195,#196),#21,.F.);
#222=ADVANCED_FACE('',(#197,#198),#210,.T.);
#223=ADVANCED_FACE('',(#199,#200),#22,.F.);
#224=ADVANCED_FACE('',(#201),#211,.F.);
#225=ADVANCED_FACE('',(#202),#212,.F.);
#226=ADVANCED_FACE('',(#203),#213,.F.);
#227=ADVANCED_FACE('',(#204),#214,.F.);
#228=ADVANCED_FACE('',(#205),#215,.F.);
#229=ADVANCED_FACE('',(#206),#216,.F.);
#230=CLOSED_SHELL('',(#217,#218,#219,#220,#221,#222,#223,#224,#225,#226,
#227,#228,#229));
#231=MANIFOLD_SOLID_BREP('',#230);
#232=SHAPE_DEFINITION_REPRESENTATION(#395,#233);
#233=SHAPE_REPRESENTATION('id2',(#234),#390);
#234=AXIS2_PLACEMENT_3D('',#328,#260,#261);
#235=AXIS2_PLACEMENT_3D('',#329,#262,#263);
#236=AXIS2_PLACEMENT_3D('',#330,#264,#265);
#237=AXIS2_PLACEMENT_3D('',#335,#267,#268);
#238=AXIS2_PLACEMENT_3D('',#338,#270,#271);
#239=AXIS2_PLACEMENT_3D('',#339,#272,#273);
#240=AXIS2_PLACEMENT_3D('',#345,#276,#277);
#241=AXIS2_PLACEMENT_3D('',#349,#279,#280);
#242=AXIS2_PLACEMENT_3D('',#352,#282,#283);
#243=AXIS2_PLACEMENT_3D('',#354,#284,#285);
#244=AXIS2_PLACEMENT_3D('',#355,#286,#287);
#245=AXIS2_PLACEMENT_3D('',#357,#288,#289);
#246=AXIS2_PLACEMENT_3D('',#360,#291,#292);
#247=AXIS2_PLACEMENT_3D('',#363,#294,#295);
#248=AXIS2_PLACEMENT_3D('',#364,#296,#297);
#249=AXIS2_PLACEMENT_3D('',#366,#298,#299);
#250=AXIS2_PLACEMENT_3D('',#367,#300,#301);
#251=AXIS2_PLACEMENT_3D('',#369,#302,#303);
#252=AXIS2_PLACEMENT_3D('',#370,#304,#305);
#253=AXIS2_PLACEMENT_3D('',#376,#308,#309);
#254=AXIS2_PLACEMENT_3D('',#380,#312,#313);
#255=AXIS2_PLACEMENT_3D('',#383,#316,#317);
#256=AXIS2_PLACEMENT_3D('',#384,#318,#319);
#257=AXIS2_PLACEMENT_3D('',#385,#320,#321);
#258=AXIS2_PLACEMENT_3D('',#387,#323,#324);
#259=AXIS2_PLACEMENT_3D('',#389,#326,#327);
#260=DIRECTION('',(0.,0.,1.));
#261=DIRECTION('',(1.,0.,0.));
#262=DIRECTION('',(0.,1.,0.));
#263=DIRECTION('',(0.,0.,1.));
#264=DIRECTION('',(0.,1.,0.));
#265=DIRECTION('',(0.,0.,1.));
#266=DIRECTION('',(1.,0.,0.));
#267=DIRECTION('',(0.,-1.,0.));
#268=DIRECTION('',(0.,0.,-1.));
#269=DIRECTION('',(1.,0.,0.));
#270=DIRECTION('',(0.,-1.,0.));
#271=DIRECTION('',(0.,0.,-1.));
#272=DIRECTION('',(0.,1.,0.));
#273=DIRECTION('',(0.,0.,1.));
#274=DIRECTION('',(0.,-1.,0.));
#275=DIRECTION('',(0.,-1.,0.));
#276=DIRECTION('',(0.,1.,0.));
#277=DIRECTION('',(0.,0.,1.));
#278=DIRECTION('',(0.,-1.,0.));
#279=DIRECTION('',(0.,1.,0.));
#280=DIRECTION('',(0.,0.,1.));
#281=DIRECTION('',(0.,-1.,0.));
#282=DIRECTION('',(0.,1.,0.));
#283=DIRECTION('',(0.,0.,1.));
#284=DIRECTION('',(0.,1.,0.));
#285=DIRECTION('',(0.,0.,1.));
#286=DIRECTION('',(0.,1.,0.));
#287=DIRECTION('',(0.,0.,1.));
#288=DIRECTION('',(0.,1.,0.));
#289=DIRECTION('',(0.,0.,1.));
#290=DIRECTION('',(-1.,0.,0.));
#291=DIRECTION('',(0.,-1.,0.));
#292=DIRECTION('',(0.,0.,-1.));
#293=DIRECTION('',(-1.,0.,0.));
#294=DIRECTION('',(0.,1.,0.));
#295=DIRECTION('',(0.,0.,1.));
#296=DIRECTION('',(0.,1.,0.));
#297=DIRECTION('',(0.,0.,1.));
#298=DIRECTION('',(0.,1.,0.));
#299=DIRECTION('',(0.,0.,1.));
#300=DIRECTION('',(0.,1.,0.));
#301=DIRECTION('',(0.,0.,1.));
#302=DIRECTION('',(0.,-1.,0.));
#303=DIRECTION('',(0.,0.,-1.));
#304=DIRECTION('',(0.,1.,0.));
#305=DIRECTION('',(0.,0.,1.));
#306=DIRECTION('',(0.,-1.,0.));
#307=DIRECTION('',(0.,-1.,0.));
#308=DIRECTION('',(0.,1.,0.));
#309=DIRECTION('',(0.,0.,1.));
#310=DIRECTION('',(0.,-1.,0.));
#311=DIRECTION('',(0.,-1.,0.));
#312=DIRECTION('',(0.,1.,0.));
#313=DIRECTION('',(0.,0.,1.));
#314=DIRECTION('',(-1.,0.,0.));
#315=DIRECTION('',(1.,0.,0.));
#316=DIRECTION('',(0.,0.,1.));
#317=DIRECTION('',(1.,0.,0.));
#318=DIRECTION('',(0.,0.,-1.));
#319=DIRECTION('',(-1.,0.,0.));
#320=DIRECTION('',(0.,0.,-1.));
#321=DIRECTION('',(-1.,0.,0.));
#322=DIRECTION('',(1.,0.,0.));
#323=DIRECTION('',(0.,0.,1.));
#324=DIRECTION('',(1.,0.,0.));
#325=DIRECTION('',(-1.,0.,0.));
#326=DIRECTION('',(0.,1.,0.));
#327=DIRECTION('',(0.,0.,1.));
#328=CARTESIAN_POINT('',(0.,0.,0.));
#329=CARTESIAN_POINT('',(0.,0.,0.));
#330=CARTESIAN_POINT('',(0.,0.,0.));
#331=CARTESIAN_POINT('',(0.00698212002188447,0.,-0.0005));
#332=CARTESIAN_POINT('',(-0.00698212002188447,0.,-0.0005));
#333=CARTESIAN_POINT('',(-0.008,0.,-0.0005));
#334=CARTESIAN_POINT('',(0.0049749371855331,0.,-0.0005));
#335=CARTESIAN_POINT('',(0.,0.,0.));
#336=CARTESIAN_POINT('',(-0.0049749371855331,0.,-0.0005));
#337=CARTESIAN_POINT('',(-0.008,0.,-0.0005));
#338=CARTESIAN_POINT('',(0.,0.004,0.));
#339=CARTESIAN_POINT('',(0.,0.001,0.));
#340=CARTESIAN_POINT('',(0.00698212002188447,0.001,0.0005));
#341=CARTESIAN_POINT('',(0.00698212002188447,0.001,-0.0005));
#342=CARTESIAN_POINT('',(0.00698212002188447,0.004,-0.0005));
#343=CARTESIAN_POINT('',(-0.00698212002188447,0.004,-0.0005));
#344=CARTESIAN_POINT('',(-0.00698212002188447,0.001,-0.0005));
#345=CARTESIAN_POINT('',(0.,0.001,0.));
#346=CARTESIAN_POINT('',(-0.00698212002188447,0.001,0.0005));
#347=CARTESIAN_POINT('',(-0.00698212002188447,0.004,0.0005));
#348=CARTESIAN_POINT('',(-0.00698212002188447,0.,0.0005));
#349=CARTESIAN_POINT('',(0.,0.,0.));
#350=CARTESIAN_POINT('',(0.00698212002188447,0.,0.0005));
#351=CARTESIAN_POINT('',(0.00698212002188447,0.004,0.0005));
#352=CARTESIAN_POINT('',(0.,0.004,0.));
#353=CARTESIAN_POINT('',(0.,0.004,0.007));
#354=CARTESIAN_POINT('',(0.,0.004,0.));
#355=CARTESIAN_POINT('',(0.,0.004,0.));
#356=CARTESIAN_POINT('',(0.,0.004,0.00625));
#357=CARTESIAN_POINT('',(0.,0.,0.));
#358=CARTESIAN_POINT('',(-0.008,0.,0.0005));
#359=CARTESIAN_POINT('',(-0.0049749371855331,0.,0.0005));
#360=CARTESIAN_POINT('',(0.,0.,0.));
#361=CARTESIAN_POINT('',(0.0049749371855331,0.,0.0005));
#362=CARTESIAN_POINT('',(-0.008,0.,0.0005));
#363=CARTESIAN_POINT('',(0.,0.0025,0.));
#364=CARTESIAN_POINT('',(0.,0.0025,0.));
#365=CARTESIAN_POINT('',(0.,0.0025,0.00625));
#366=CARTESIAN_POINT('',(0.,0.0025,0.));
#367=CARTESIAN_POINT('',(0.,0.0025,0.));
#368=CARTESIAN_POINT('',(0.,0.0025,0.005));
#369=CARTESIAN_POINT('',(0.,0.004,0.));
#370=CARTESIAN_POINT('',(0.,0.001,0.));
#371=CARTESIAN_POINT('',(-0.0049749371855331,0.001,0.0005));
#372=CARTESIAN_POINT('',(-0.0049749371855331,0.001,-0.0005));
#373=CARTESIAN_POINT('',(-0.0049749371855331,0.004,-0.0005));
#374=CARTESIAN_POINT('',(0.0049749371855331,0.004,-0.0005));
#375=CARTESIAN_POINT('',(0.0049749371855331,0.001,-0.0005));
#376=CARTESIAN_POINT('',(0.,0.001,0.));
#377=CARTESIAN_POINT('',(0.0049749371855331,0.001,0.0005));
#378=CARTESIAN_POINT('',(0.0049749371855331,0.004,0.0005));
#379=CARTESIAN_POINT('',(-0.0049749371855331,0.004,0.0005));
#380=CARTESIAN_POINT('',(0.,0.001,0.));
#381=CARTESIAN_POINT('',(-0.008,0.001,0.0005));
#382=CARTESIAN_POINT('',(-0.008,0.001,-0.0005));
#383=CARTESIAN_POINT('',(-0.008,0.001,0.0005));
#384=CARTESIAN_POINT('',(-0.008,0.001,-0.0005));
#385=CARTESIAN_POINT('',(-0.008,0.001,-0.0005));
#386=CARTESIAN_POINT('',(-0.008,0.001,-0.0005));
#387=CARTESIAN_POINT('',(-0.008,0.001,0.0005));
#388=CARTESIAN_POINT('',(-0.008,0.001,0.0005));
#389=CARTESIAN_POINT('',(0.,0.001,0.));
#390=(
GEOMETRIC_REPRESENTATION_CONTEXT(3)
GLOBAL_UNCERTAINTY_ASSIGNED_CONTEXT((#391))
GLOBAL_UNIT_ASSIGNED_CONTEXT((#394,#393,#392))
REPRESENTATION_CONTEXT('id2','TOP_LEVEL_ASSEMBLY_PART')
);
#391=UNCERTAINTY_MEASURE_WITH_UNIT(LENGTH_MEASURE(1.E-8),#394,
'DISTANCE_ACCURACY_VALUE','Maximum Tolerance applied to model');
#392=(
NAMED_UNIT(*)
SI_UNIT($,.STERADIAN.)
SOLID_ANGLE_UNIT()
);
#393=(
NAMED_UNIT(*)
PLANE_ANGLE_UNIT()
SI_UNIT($,.RADIAN.)
);
#394=(
LENGTH_UNIT()
NAMED_UNIT(*)
SI_UNIT($,.METRE.)
);
#395=PRODUCT_DEFINITION_SHAPE('','',#396);
#396=PRODUCT_DEFINITION('','',#398,#397);
#397=DESIGN_CONTEXT('',#404,'design');
#398=PRODUCT_DEFINITION_FORMATION_WITH_SPECIFIED_SOURCE('','',#400,
 .NOT_KNOWN.);
#399=PRODUCT_RELATED_PRODUCT_CATEGORY('','',(#400));
#400=PRODUCT('id2','id2','id2',(#402));
#401=PRODUCT_CATEGORY('','');
#402=MECHANICAL_CONTEXT('',#404,'mechanical');
#403=APPLICATION_PROTOCOL_DEFINITION('international standard',
'config_control_design',2010,#404);
#404=APPLICATION_CONTEXT(
'configuration controlled 3D designs of mechanical parts and assemblie
s');
ENDSEC;
END-ISO-10303-21;
