ISO-10303-21;
HEADER;
/* Generated by software containing ST-Developer
 * from STEP Tools, Inc. (www.steptools.com) 
 */
/* OPTION: using custom renumber hook */

FILE_DESCRIPTION(
/* description */ ('STEP AP203'),
/* implementation_level */ '2;1');

FILE_NAME(
/* name */ '6a545e876767ab7b8f9f25e4',
/* time_stamp */ '2026-07-13T03:42:00Z',
/* author */ (''),
/* organization */ (''),
/* preprocessor_version */ 'ST-DEVELOPER v20',
/* originating_system */ 'ONSHAPE BY PTC INC, 1.217',
/* authorisation */ '  ');

FILE_SCHEMA (('CONFIG_CONTROL_DESIGN'));
ENDSEC;

DATA;
#10=PROPERTY_DEFINITION_REPRESENTATION(#14,#12);
#11=PROPERTY_DEFINITION_REPRESENTATION(#15,#13);
#12=REPRESENTATION('',(#16),#258);
#13=REPRESENTATION('',(#17),#258);
#14=PROPERTY_DEFINITION('pmi validation property','',#263);
#15=PROPERTY_DEFINITION('pmi validation property','',#263);
#16=VALUE_REPRESENTATION_ITEM('number of annotations',COUNT_MEASURE(0.));
#17=VALUE_REPRESENTATION_ITEM('number of views',COUNT_MEASURE(0.));
#18=SHAPE_REPRESENTATION_RELATIONSHIP('','',#149,#19);
#19=ADVANCED_BREP_SHAPE_REPRESENTATION('',(#147),#258);
#20=TOROIDAL_SURFACE('',#173,0.0006,0.0004);
#21=VERTEX_LOOP('',#70);
#22=SPHERICAL_SURFACE('',#168,0.0025);
#23=PLANE('',#157);
#24=PLANE('',#159);
#25=PLANE('',#160);
#26=PLANE('',#166);
#27=PLANE('',#172);
#28=ORIENTED_EDGE('',*,*,#50,.T.);
#29=ORIENTED_EDGE('',*,*,#51,.F.);
#30=ORIENTED_EDGE('',*,*,#52,.F.);
#31=ORIENTED_EDGE('',*,*,#53,.T.);
#32=ORIENTED_EDGE('',*,*,#54,.F.);
#33=ORIENTED_EDGE('',*,*,#52,.T.);
#34=ORIENTED_EDGE('',*,*,#53,.F.);
#35=ORIENTED_EDGE('',*,*,#51,.T.);
#36=ORIENTED_EDGE('',*,*,#55,.T.);
#37=ORIENTED_EDGE('',*,*,#54,.T.);
#38=ORIENTED_EDGE('',*,*,#55,.F.);
#39=ORIENTED_EDGE('',*,*,#56,.F.);
#40=ORIENTED_EDGE('',*,*,#57,.T.);
#41=ORIENTED_EDGE('',*,*,#58,.T.);
#42=ORIENTED_EDGE('',*,*,#56,.T.);
#43=ORIENTED_EDGE('',*,*,#59,.T.);
#44=ORIENTED_EDGE('',*,*,#59,.F.);
#45=ORIENTED_EDGE('',*,*,#60,.F.);
#46=ORIENTED_EDGE('',*,*,#60,.T.);
#47=ORIENTED_EDGE('',*,*,#57,.F.);
#48=ORIENTED_EDGE('',*,*,#58,.F.);
#49=ORIENTED_EDGE('',*,*,#50,.F.);
#50=EDGE_CURVE('',#61,#61,#73,.T.);
#51=EDGE_CURVE('',#62,#62,#74,.T.);
#52=EDGE_CURVE('',#63,#63,#75,.T.);
#53=EDGE_CURVE('',#64,#64,#76,.T.);
#54=EDGE_CURVE('',#65,#65,#77,.T.);
#55=EDGE_CURVE('',#66,#66,#78,.T.);
#56=EDGE_CURVE('',#67,#67,#79,.T.);
#57=EDGE_CURVE('',#68,#68,#80,.T.);
#58=EDGE_CURVE('',#69,#69,#81,.F.);
#59=EDGE_CURVE('',#71,#71,#82,.T.);
#60=EDGE_CURVE('',#72,#72,#83,.T.);
#61=VERTEX_POINT('',#225);
#62=VERTEX_POINT('',#227);
#63=VERTEX_POINT('',#230);
#64=VERTEX_POINT('',#232);
#65=VERTEX_POINT('',#235);
#66=VERTEX_POINT('',#239);
#67=VERTEX_POINT('',#243);
#68=VERTEX_POINT('',#245);
#69=VERTEX_POINT('',#248);
#70=VERTEX_POINT('',#250);
#71=VERTEX_POINT('',#252);
#72=VERTEX_POINT('',#255);
#73=CIRCLE('',#152,0.001);
#74=CIRCLE('',#153,0.001);
#75=CIRCLE('',#155,0.0006);
#76=CIRCLE('',#156,0.0006);
#77=CIRCLE('',#158,0.001);
#78=CIRCLE('',#161,0.001);
#79=CIRCLE('',#164,0.0005);
#80=CIRCLE('',#165,0.0005);
#81=CIRCLE('',#167,0.0006);
#82=CIRCLE('',#169,0.0015);
#83=CIRCLE('',#171,0.0015);
#84=EDGE_LOOP('',(#28));
#85=EDGE_LOOP('',(#29));
#86=EDGE_LOOP('',(#30));
#87=EDGE_LOOP('',(#31));
#88=EDGE_LOOP('',(#32));
#89=EDGE_LOOP('',(#33));
#90=EDGE_LOOP('',(#34));
#91=EDGE_LOOP('',(#35));
#92=EDGE_LOOP('',(#36));
#93=EDGE_LOOP('',(#37));
#94=EDGE_LOOP('',(#38));
#95=EDGE_LOOP('',(#39));
#96=EDGE_LOOP('',(#40));
#97=EDGE_LOOP('',(#41));
#98=EDGE_LOOP('',(#42));
#99=EDGE_LOOP('',(#43));
#100=EDGE_LOOP('',(#44));
#101=EDGE_LOOP('',(#45));
#102=EDGE_LOOP('',(#46));
#103=EDGE_LOOP('',(#47));
#104=EDGE_LOOP('',(#48));
#105=EDGE_LOOP('',(#49));
#106=FACE_BOUND('',#84,.T.);
#107=FACE_BOUND('',#85,.T.);
#108=FACE_BOUND('',#86,.T.);
#109=FACE_BOUND('',#87,.T.);
#110=FACE_BOUND('',#88,.T.);
#111=FACE_BOUND('',#89,.T.);
#112=FACE_BOUND('',#90,.T.);
#113=FACE_BOUND('',#91,.T.);
#114=FACE_BOUND('',#92,.T.);
#115=FACE_BOUND('',#93,.T.);
#116=FACE_BOUND('',#94,.T.);
#117=FACE_BOUND('',#95,.T.);
#118=FACE_BOUND('',#96,.T.);
#119=FACE_BOUND('',#97,.T.);
#120=FACE_BOUND('',#98,.T.);
#121=FACE_BOUND('',#21,.T.);
#122=FACE_BOUND('',#99,.T.);
#123=FACE_BOUND('',#100,.T.);
#124=FACE_BOUND('',#101,.T.);
#125=FACE_BOUND('',#102,.T.);
#126=FACE_BOUND('',#103,.T.);
#127=FACE_BOUND('',#104,.T.);
#128=FACE_BOUND('',#105,.T.);
#129=CYLINDRICAL_SURFACE('',#151,0.001);
#130=CYLINDRICAL_SURFACE('',#154,0.0006);
#131=CYLINDRICAL_SURFACE('',#162,0.001);
#132=CYLINDRICAL_SURFACE('',#163,0.0005);
#133=CYLINDRICAL_SURFACE('',#170,0.0015);
#134=ADVANCED_FACE('',(#106,#107),#129,.T.);
#135=ADVANCED_FACE('',(#108,#109),#130,.T.);
#136=ADVANCED_FACE('',(#110,#111),#23,.F.);
#137=ADVANCED_FACE('',(#112,#113),#24,.F.);
#138=ADVANCED_FACE('',(#114),#25,.F.);
#139=ADVANCED_FACE('',(#115,#116),#131,.T.);
#140=ADVANCED_FACE('',(#117,#118),#132,.T.);
#141=ADVANCED_FACE('',(#119,#120),#26,.F.);
#142=ADVANCED_FACE('',(#121,#122),#22,.T.);
#143=ADVANCED_FACE('',(#123,#124),#133,.T.);
#144=ADVANCED_FACE('',(#125,#126),#27,.T.);
#145=ADVANCED_FACE('',(#127,#128),#20,.T.);
#146=CLOSED_SHELL('',(#134,#135,#136,#137,#138,#139,#140,#141,#142,#143,
#144,#145));
#147=MANIFOLD_SOLID_BREP('',#146);
#148=SHAPE_DEFINITION_REPRESENTATION(#263,#149);
#149=SHAPE_REPRESENTATION('id2',(#150),#258);
#150=AXIS2_PLACEMENT_3D('',#222,#174,#175);
#151=AXIS2_PLACEMENT_3D('',#223,#176,#177);
#152=AXIS2_PLACEMENT_3D('',#224,#178,#179);
#153=AXIS2_PLACEMENT_3D('',#226,#180,#181);
#154=AXIS2_PLACEMENT_3D('',#228,#182,#183);
#155=AXIS2_PLACEMENT_3D('',#229,#184,#185);
#156=AXIS2_PLACEMENT_3D('',#231,#186,#187);
#157=AXIS2_PLACEMENT_3D('',#233,#188,#189);
#158=AXIS2_PLACEMENT_3D('',#234,#190,#191);
#159=AXIS2_PLACEMENT_3D('',#236,#192,#193);
#160=AXIS2_PLACEMENT_3D('',#237,#194,#195);
#161=AXIS2_PLACEMENT_3D('',#238,#196,#197);
#162=AXIS2_PLACEMENT_3D('',#240,#198,#199);
#163=AXIS2_PLACEMENT_3D('',#241,#200,#201);
#164=AXIS2_PLACEMENT_3D('',#242,#202,#203);
#165=AXIS2_PLACEMENT_3D('',#244,#204,#205);
#166=AXIS2_PLACEMENT_3D('',#246,#206,#207);
#167=AXIS2_PLACEMENT_3D('',#247,#208,#209);
#168=AXIS2_PLACEMENT_3D('',#249,#210,#211);
#169=AXIS2_PLACEMENT_3D('',#251,#212,#213);
#170=AXIS2_PLACEMENT_3D('',#253,#214,#215);
#171=AXIS2_PLACEMENT_3D('',#254,#216,#217);
#172=AXIS2_PLACEMENT_3D('',#256,#218,#219);
#173=AXIS2_PLACEMENT_3D('',#257,#220,#221);
#174=DIRECTION('',(0.,0.,1.));
#175=DIRECTION('',(1.,0.,0.));
#176=DIRECTION('',(0.,-1.,0.));
#177=DIRECTION('',(0.,0.,-1.));
#178=DIRECTION('',(-4.93809193204578E-17,-1.,0.));
#179=DIRECTION('',(1.,-4.93809193204578E-17,0.));
#180=DIRECTION('',(-4.93809193204578E-17,-1.,0.));
#181=DIRECTION('',(1.,-4.93809193204578E-17,0.));
#182=DIRECTION('',(-4.93809193204578E-17,-1.,0.));
#183=DIRECTION('',(1.,-4.93809193204578E-17,0.));
#184=DIRECTION('',(-4.93809193204578E-17,-1.,0.));
#185=DIRECTION('',(1.,-4.93809193204578E-17,0.));
#186=DIRECTION('',(-4.93809193204578E-17,-1.,0.));
#187=DIRECTION('',(1.,-4.93809193204578E-17,0.));
#188=DIRECTION('',(-4.93809193204578E-17,-1.,0.));
#189=DIRECTION('',(1.,-4.93809193204578E-17,0.));
#190=DIRECTION('',(-4.93809193204578E-17,-1.,0.));
#191=DIRECTION('',(1.,-4.93809193204578E-17,0.));
#192=DIRECTION('',(4.93809193204578E-17,1.,0.));
#193=DIRECTION('',(-1.,4.93809193204578E-17,0.));
#194=DIRECTION('',(0.,1.,0.));
#195=DIRECTION('',(0.,0.,1.));
#196=DIRECTION('',(0.,-1.,0.));
#197=DIRECTION('',(0.,0.,-1.));
#198=DIRECTION('',(0.,-1.,0.));
#199=DIRECTION('',(0.,0.,-1.));
#200=DIRECTION('',(-4.93809193204578E-17,-1.,0.));
#201=DIRECTION('',(1.,-4.93809193204578E-17,0.));
#202=DIRECTION('',(-4.93809193204578E-17,-1.,0.));
#203=DIRECTION('',(1.,-4.93809193204578E-17,0.));
#204=DIRECTION('',(-4.93809193204578E-17,-1.,0.));
#205=DIRECTION('',(1.,-4.93809193204578E-17,0.));
#206=DIRECTION('',(-4.93809193204578E-17,-1.,0.));
#207=DIRECTION('',(1.,-4.93809193204578E-17,0.));
#208=DIRECTION('',(-4.93809193204578E-17,-1.,0.));
#209=DIRECTION('',(1.,-4.93809193204578E-17,0.));
#210=DIRECTION('',(6.99485272571293E-17,1.,0.));
#211=DIRECTION('',(-1.,6.99485272571293E-17,0.));
#212=DIRECTION('',(6.99485272571293E-17,1.,0.));
#213=DIRECTION('',(-1.,6.99485272571293E-17,0.));
#214=DIRECTION('',(0.,-1.,0.));
#215=DIRECTION('',(0.,0.,-1.));
#216=DIRECTION('',(0.,-1.,0.));
#217=DIRECTION('',(0.,0.,-1.));
#218=DIRECTION('',(0.,-1.,0.));
#219=DIRECTION('',(0.,0.,-1.));
#220=DIRECTION('',(-4.93809193204578E-17,-1.,0.));
#221=DIRECTION('',(1.,-4.93809193204578E-17,0.));
#222=CARTESIAN_POINT('',(0.,0.,0.));
#223=CARTESIAN_POINT('',(0.,0.0054,0.));
#224=CARTESIAN_POINT('',(0.,0.0033,0.));
#225=CARTESIAN_POINT('',(0.001,0.0033,0.));
#226=CARTESIAN_POINT('',(4.4442827388412E-20,0.0009,0.));
#227=CARTESIAN_POINT('',(0.001,0.0009,0.));
#228=CARTESIAN_POINT('',(0.,0.,0.));
#229=CARTESIAN_POINT('',(2.46904596602289E-20,0.0005,0.));
#230=CARTESIAN_POINT('',(0.0006,0.0005,0.));
#231=CARTESIAN_POINT('',(4.4442827388412E-20,0.0009,0.));
#232=CARTESIAN_POINT('',(0.0006,0.0009,0.));
#233=CARTESIAN_POINT('',(0.0006,0.0005,0.));
#234=CARTESIAN_POINT('',(2.46904596602289E-20,0.0005,0.));
#235=CARTESIAN_POINT('',(0.001,0.0005,0.));
#236=CARTESIAN_POINT('',(0.0006,0.0009,0.));
#237=CARTESIAN_POINT('',(0.,0.,0.));
#238=CARTESIAN_POINT('',(0.,0.,0.));
#239=CARTESIAN_POINT('',(0.,0.,-0.001));
#240=CARTESIAN_POINT('',(0.,0.0054,0.));
#241=CARTESIAN_POINT('',(0.,0.,0.));
#242=CARTESIAN_POINT('',(1.82709401485694E-19,0.0037,0.));
#243=CARTESIAN_POINT('',(0.0005,0.0037,0.));
#244=CARTESIAN_POINT('',(2.66656964330472E-19,0.0054,0.));
#245=CARTESIAN_POINT('',(0.0005,0.0054,0.));
#246=CARTESIAN_POINT('',(0.0005,0.0037,0.));
#247=CARTESIAN_POINT('',(1.97523677281831E-20,0.0037,0.));
#248=CARTESIAN_POINT('',(0.0006,0.0037,0.));
#249=CARTESIAN_POINT('',(3.06161699786838E-19,0.0037,0.));
#250=CARTESIAN_POINT('',(3.06161699786838E-19,0.0062,0.));
#251=CARTESIAN_POINT('',(3.98706605365637E-19,0.0057,0.));
#252=CARTESIAN_POINT('',(-0.0015,0.0057,0.));
#253=CARTESIAN_POINT('',(0.,0.0062,0.));
#254=CARTESIAN_POINT('',(0.,0.0054,0.));
#255=CARTESIAN_POINT('',(0.,0.0054,-0.0015));
#256=CARTESIAN_POINT('',(0.,0.0054,0.));
#257=CARTESIAN_POINT('',(0.,0.0033,0.));
#258=(
GEOMETRIC_REPRESENTATION_CONTEXT(3)
GLOBAL_UNCERTAINTY_ASSIGNED_CONTEXT((#259))
GLOBAL_UNIT_ASSIGNED_CONTEXT((#262,#261,#260))
REPRESENTATION_CONTEXT('id2','TOP_LEVEL_ASSEMBLY_PART')
);
#259=UNCERTAINTY_MEASURE_WITH_UNIT(LENGTH_MEASURE(1.E-8),#262,
'DISTANCE_ACCURACY_VALUE','Maximum Tolerance applied to model');
#260=(
NAMED_UNIT(*)
SI_UNIT($,.STERADIAN.)
SOLID_ANGLE_UNIT()
);
#261=(
NAMED_UNIT(*)
PLANE_ANGLE_UNIT()
SI_UNIT($,.RADIAN.)
);
#262=(
LENGTH_UNIT()
NAMED_UNIT(*)
SI_UNIT($,.METRE.)
);
#263=PRODUCT_DEFINITION_SHAPE('','',#264);
#264=PRODUCT_DEFINITION('','',#266,#265);
#265=DESIGN_CONTEXT('',#272,'design');
#266=PRODUCT_DEFINITION_FORMATION_WITH_SPECIFIED_SOURCE('','',#268,
 .NOT_KNOWN.);
#267=PRODUCT_RELATED_PRODUCT_CATEGORY('','',(#268));
#268=PRODUCT('id2','id2','id2',(#270));
#269=PRODUCT_CATEGORY('','');
#270=MECHANICAL_CONTEXT('',#272,'mechanical');
#271=APPLICATION_PROTOCOL_DEFINITION('international standard',
'config_control_design',2010,#272);
#272=APPLICATION_CONTEXT(
'configuration controlled 3D designs of mechanical parts and assemblie
s');
ENDSEC;
END-ISO-10303-21;
