ISO-10303-21;
HEADER;
/* Generated by software containing ST-Developer
 * from STEP Tools, Inc. (www.steptools.com) 
 */
/* OPTION: using custom renumber hook */

FILE_DESCRIPTION(
/* description */ ('STEP AP203'),
/* implementation_level */ '2;1');

FILE_NAME(
/* name */ '6a545e12c707001bd729903b',
/* time_stamp */ '2026-07-13T03:40:02Z',
/* author */ (''),
/* organization */ (''),
/* preprocessor_version */ 'ST-DEVELOPER v20',
/* originating_system */ 'ONSHAPE BY PTC INC, 1.217',
/* authorisation */ '  ');

FILE_SCHEMA (('CONFIG_CONTROL_DESIGN'));
ENDSEC;

DATA;
#10=PROPERTY_DEFINITION_REPRESENTATION(#14,#12);
#11=PROPERTY_DEFINITION_REPRESENTATION(#15,#13);
#12=REPRESENTATION('',(#16),#682);
#13=REPRESENTATION('',(#17),#682);
#14=PROPERTY_DEFINITION('pmi validation property','',#687);
#15=PROPERTY_DEFINITION('pmi validation property','',#687);
#16=VALUE_REPRESENTATION_ITEM('number of annotations',COUNT_MEASURE(0.));
#17=VALUE_REPRESENTATION_ITEM('number of views',COUNT_MEASURE(0.));
#18=SHAPE_REPRESENTATION_RELATIONSHIP('','',#407,#19);
#19=ADVANCED_BREP_SHAPE_REPRESENTATION('',(#405),#682);
#20=B_SPLINE_CURVE_WITH_KNOTS('',3,(#669,#670,#671,#672),.UNSPECIFIED.,
 .F.,.F.,(4,4),(0.,1.),.UNSPECIFIED.);
#21=B_SPLINE_CURVE_WITH_KNOTS('',3,(#673,#674,#675,#676),.UNSPECIFIED.,
 .F.,.F.,(4,4),(0.,1.),.UNSPECIFIED.);
#22=CYLINDRICAL_SURFACE('',#421,0.0007);
#23=CYLINDRICAL_SURFACE('',#426,0.0008);
#24=CYLINDRICAL_SURFACE('',#427,0.0008);
#25=CYLINDRICAL_SURFACE('',#428,0.0118);
#26=CYLINDRICAL_SURFACE('',#430,0.0017);
#27=CYLINDRICAL_SURFACE('',#433,0.00105);
#28=CYLINDRICAL_SURFACE('',#441,0.0118);
#29=CYLINDRICAL_SURFACE('',#446,0.004);
#30=CYLINDRICAL_SURFACE('',#447,0.00415);
#31=CIRCLE('',#411,0.0118);
#32=CIRCLE('',#412,0.0008);
#33=CIRCLE('',#413,0.0007);
#34=CIRCLE('',#414,0.0008);
#35=CIRCLE('',#417,0.0118);
#36=CIRCLE('',#418,0.0008);
#37=CIRCLE('',#419,0.0007);
#38=CIRCLE('',#420,0.0008);
#39=CIRCLE('',#431,0.0017);
#40=CIRCLE('',#432,0.0017);
#41=CIRCLE('',#434,0.00105);
#42=CIRCLE('',#435,0.00105);
#43=CIRCLE('',#437,0.0118);
#44=CIRCLE('',#440,0.0118);
#45=CIRCLE('',#444,0.00415);
#46=CIRCLE('',#445,0.004);
#47=ORIENTED_EDGE('',*,*,#155,.T.);
#48=ORIENTED_EDGE('',*,*,#156,.T.);
#49=ORIENTED_EDGE('',*,*,#157,.F.);
#50=ORIENTED_EDGE('',*,*,#158,.T.);
#51=ORIENTED_EDGE('',*,*,#159,.T.);
#52=ORIENTED_EDGE('',*,*,#160,.T.);
#53=ORIENTED_EDGE('',*,*,#155,.F.);
#54=ORIENTED_EDGE('',*,*,#161,.T.);
#55=ORIENTED_EDGE('',*,*,#162,.F.);
#56=ORIENTED_EDGE('',*,*,#163,.F.);
#57=ORIENTED_EDGE('',*,*,#164,.F.);
#58=ORIENTED_EDGE('',*,*,#165,.F.);
#59=ORIENTED_EDGE('',*,*,#166,.F.);
#60=ORIENTED_EDGE('',*,*,#167,.T.);
#61=ORIENTED_EDGE('',*,*,#168,.F.);
#62=ORIENTED_EDGE('',*,*,#169,.T.);
#63=ORIENTED_EDGE('',*,*,#168,.T.);
#64=ORIENTED_EDGE('',*,*,#170,.T.);
#65=ORIENTED_EDGE('',*,*,#171,.F.);
#66=ORIENTED_EDGE('',*,*,#172,.F.);
#67=ORIENTED_EDGE('',*,*,#173,.F.);
#68=ORIENTED_EDGE('',*,*,#171,.T.);
#69=ORIENTED_EDGE('',*,*,#174,.T.);
#70=ORIENTED_EDGE('',*,*,#175,.T.);
#71=ORIENTED_EDGE('',*,*,#176,.T.);
#72=ORIENTED_EDGE('',*,*,#177,.T.);
#73=ORIENTED_EDGE('',*,*,#178,.T.);
#74=ORIENTED_EDGE('',*,*,#179,.T.);
#75=ORIENTED_EDGE('',*,*,#180,.T.);
#76=ORIENTED_EDGE('',*,*,#157,.T.);
#77=ORIENTED_EDGE('',*,*,#164,.T.);
#78=ORIENTED_EDGE('',*,*,#181,.F.);
#79=ORIENTED_EDGE('',*,*,#177,.F.);
#80=ORIENTED_EDGE('',*,*,#182,.T.);
#81=ORIENTED_EDGE('',*,*,#163,.T.);
#82=ORIENTED_EDGE('',*,*,#183,.F.);
#83=ORIENTED_EDGE('',*,*,#178,.F.);
#84=ORIENTED_EDGE('',*,*,#181,.T.);
#85=ORIENTED_EDGE('',*,*,#162,.T.);
#86=ORIENTED_EDGE('',*,*,#184,.T.);
#87=ORIENTED_EDGE('',*,*,#179,.F.);
#88=ORIENTED_EDGE('',*,*,#183,.T.);
#89=ORIENTED_EDGE('',*,*,#175,.F.);
#90=ORIENTED_EDGE('',*,*,#185,.T.);
#91=ORIENTED_EDGE('',*,*,#166,.T.);
#92=ORIENTED_EDGE('',*,*,#186,.F.);
#93=ORIENTED_EDGE('',*,*,#165,.T.);
#94=ORIENTED_EDGE('',*,*,#182,.F.);
#95=ORIENTED_EDGE('',*,*,#176,.F.);
#96=ORIENTED_EDGE('',*,*,#186,.T.);
#97=ORIENTED_EDGE('',*,*,#180,.F.);
#98=ORIENTED_EDGE('',*,*,#184,.F.);
#99=ORIENTED_EDGE('',*,*,#161,.F.);
#100=ORIENTED_EDGE('',*,*,#158,.F.);
#101=ORIENTED_EDGE('',*,*,#174,.F.);
#102=ORIENTED_EDGE('',*,*,#170,.F.);
#103=ORIENTED_EDGE('',*,*,#167,.F.);
#104=ORIENTED_EDGE('',*,*,#185,.F.);
#105=ORIENTED_EDGE('',*,*,#187,.F.);
#106=ORIENTED_EDGE('',*,*,#159,.F.);
#107=ORIENTED_EDGE('',*,*,#169,.F.);
#108=ORIENTED_EDGE('',*,*,#173,.T.);
#109=ORIENTED_EDGE('',*,*,#188,.F.);
#110=ORIENTED_EDGE('',*,*,#189,.F.);
#111=ORIENTED_EDGE('',*,*,#190,.T.);
#112=ORIENTED_EDGE('',*,*,#191,.T.);
#113=ORIENTED_EDGE('',*,*,#192,.T.);
#114=ORIENTED_EDGE('',*,*,#190,.F.);
#115=ORIENTED_EDGE('',*,*,#193,.F.);
#116=ORIENTED_EDGE('',*,*,#194,.T.);
#117=ORIENTED_EDGE('',*,*,#195,.T.);
#118=ORIENTED_EDGE('',*,*,#196,.F.);
#119=ORIENTED_EDGE('',*,*,#195,.F.);
#120=ORIENTED_EDGE('',*,*,#197,.F.);
#121=ORIENTED_EDGE('',*,*,#198,.T.);
#122=ORIENTED_EDGE('',*,*,#199,.T.);
#123=ORIENTED_EDGE('',*,*,#193,.T.);
#124=ORIENTED_EDGE('',*,*,#189,.T.);
#125=ORIENTED_EDGE('',*,*,#200,.F.);
#126=ORIENTED_EDGE('',*,*,#201,.T.);
#127=ORIENTED_EDGE('',*,*,#194,.F.);
#128=ORIENTED_EDGE('',*,*,#199,.F.);
#129=ORIENTED_EDGE('',*,*,#202,.F.);
#130=ORIENTED_EDGE('',*,*,#203,.T.);
#131=ORIENTED_EDGE('',*,*,#191,.F.);
#132=ORIENTED_EDGE('',*,*,#192,.F.);
#133=ORIENTED_EDGE('',*,*,#201,.F.);
#134=ORIENTED_EDGE('',*,*,#196,.T.);
#135=ORIENTED_EDGE('',*,*,#203,.F.);
#136=ORIENTED_EDGE('',*,*,#204,.T.);
#137=ORIENTED_EDGE('',*,*,#197,.T.);
#138=ORIENTED_EDGE('',*,*,#188,.T.);
#139=ORIENTED_EDGE('',*,*,#204,.F.);
#140=ORIENTED_EDGE('',*,*,#205,.T.);
#141=ORIENTED_EDGE('',*,*,#187,.T.);
#142=ORIENTED_EDGE('',*,*,#206,.F.);
#143=ORIENTED_EDGE('',*,*,#207,.T.);
#144=ORIENTED_EDGE('',*,*,#200,.T.);
#145=ORIENTED_EDGE('',*,*,#208,.F.);
#146=ORIENTED_EDGE('',*,*,#156,.F.);
#147=ORIENTED_EDGE('',*,*,#172,.T.);
#148=ORIENTED_EDGE('',*,*,#208,.T.);
#149=ORIENTED_EDGE('',*,*,#198,.F.);
#150=ORIENTED_EDGE('',*,*,#206,.T.);
#151=ORIENTED_EDGE('',*,*,#160,.F.);
#152=ORIENTED_EDGE('',*,*,#205,.F.);
#153=ORIENTED_EDGE('',*,*,#202,.T.);
#154=ORIENTED_EDGE('',*,*,#207,.F.);
#155=EDGE_CURVE('',#209,#210,#243,.T.);
#156=EDGE_CURVE('',#210,#211,#244,.T.);
#157=EDGE_CURVE('',#212,#211,#245,.T.);
#158=EDGE_CURVE('',#212,#209,#246,.T.);
#159=EDGE_CURVE('',#213,#214,#31,.T.);
#160=EDGE_CURVE('',#214,#210,#247,.T.);
#161=EDGE_CURVE('',#209,#215,#32,.F.);
#162=EDGE_CURVE('',#216,#215,#248,.T.);
#163=EDGE_CURVE('',#217,#216,#249,.T.);
#164=EDGE_CURVE('',#218,#217,#33,.T.);
#165=EDGE_CURVE('',#219,#218,#250,.T.);
#166=EDGE_CURVE('',#220,#219,#251,.T.);
#167=EDGE_CURVE('',#220,#221,#34,.F.);
#168=EDGE_CURVE('',#213,#221,#252,.T.);
#169=EDGE_CURVE('',#222,#213,#253,.F.);
#170=EDGE_CURVE('',#221,#223,#254,.F.);
#171=EDGE_CURVE('',#222,#223,#255,.T.);
#172=EDGE_CURVE('',#224,#211,#256,.T.);
#173=EDGE_CURVE('',#222,#224,#35,.T.);
#174=EDGE_CURVE('',#223,#225,#36,.T.);
#175=EDGE_CURVE('',#225,#226,#257,.T.);
#176=EDGE_CURVE('',#226,#227,#258,.T.);
#177=EDGE_CURVE('',#227,#228,#37,.T.);
#178=EDGE_CURVE('',#228,#229,#259,.T.);
#179=EDGE_CURVE('',#229,#230,#260,.T.);
#180=EDGE_CURVE('',#230,#212,#38,.T.);
#181=EDGE_CURVE('',#228,#217,#261,.T.);
#182=EDGE_CURVE('',#227,#218,#262,.T.);
#183=EDGE_CURVE('',#229,#216,#263,.T.);
#184=EDGE_CURVE('',#215,#230,#264,.F.);
#185=EDGE_CURVE('',#225,#220,#265,.T.);
#186=EDGE_CURVE('',#226,#219,#266,.T.);
#187=EDGE_CURVE('',#214,#224,#267,.T.);
#188=EDGE_CURVE('',#231,#232,#268,.F.);
#189=EDGE_CURVE('',#233,#231,#269,.T.);
#190=EDGE_CURVE('',#233,#234,#270,.T.);
#191=EDGE_CURVE('',#234,#232,#271,.T.);
#192=EDGE_CURVE('',#235,#234,#39,.T.);
#193=EDGE_CURVE('',#236,#233,#40,.T.);
#194=EDGE_CURVE('',#236,#235,#272,.T.);
#195=EDGE_CURVE('',#237,#237,#41,.T.);
#196=EDGE_CURVE('',#238,#238,#42,.T.);
#197=EDGE_CURVE('',#239,#231,#43,.T.);
#198=EDGE_CURVE('',#239,#240,#273,.T.);
#199=EDGE_CURVE('',#240,#236,#274,.T.);
#200=EDGE_CURVE('',#241,#240,#275,.T.);
#201=EDGE_CURVE('',#241,#235,#276,.T.);
#202=EDGE_CURVE('',#242,#241,#277,.T.);
#203=EDGE_CURVE('',#242,#232,#44,.T.);
#204=EDGE_CURVE('',#242,#239,#278,.T.);
#205=EDGE_CURVE('',#242,#214,#20,.T.);
#206=EDGE_CURVE('',#239,#224,#21,.T.);
#207=EDGE_CURVE('',#210,#241,#45,.T.);
#208=EDGE_CURVE('',#211,#240,#46,.T.);
#209=VERTEX_POINT('',#567);
#210=VERTEX_POINT('',#568);
#211=VERTEX_POINT('',#570);
#212=VERTEX_POINT('',#572);
#213=VERTEX_POINT('',#576);
#214=VERTEX_POINT('',#577);
#215=VERTEX_POINT('',#580);
#216=VERTEX_POINT('',#582);
#217=VERTEX_POINT('',#584);
#218=VERTEX_POINT('',#586);
#219=VERTEX_POINT('',#588);
#220=VERTEX_POINT('',#590);
#221=VERTEX_POINT('',#592);
#222=VERTEX_POINT('',#596);
#223=VERTEX_POINT('',#598);
#224=VERTEX_POINT('',#602);
#225=VERTEX_POINT('',#605);
#226=VERTEX_POINT('',#607);
#227=VERTEX_POINT('',#609);
#228=VERTEX_POINT('',#611);
#229=VERTEX_POINT('',#613);
#230=VERTEX_POINT('',#615);
#231=VERTEX_POINT('',#634);
#232=VERTEX_POINT('',#635);
#233=VERTEX_POINT('',#637);
#234=VERTEX_POINT('',#639);
#235=VERTEX_POINT('',#643);
#236=VERTEX_POINT('',#645);
#237=VERTEX_POINT('',#649);
#238=VERTEX_POINT('',#651);
#239=VERTEX_POINT('',#654);
#240=VERTEX_POINT('',#656);
#241=VERTEX_POINT('',#660);
#242=VERTEX_POINT('',#664);
#243=LINE('',#566,#279);
#244=LINE('',#569,#280);
#245=LINE('',#571,#281);
#246=LINE('',#573,#282);
#247=LINE('',#578,#283);
#248=LINE('',#581,#284);
#249=LINE('',#583,#285);
#250=LINE('',#587,#286);
#251=LINE('',#589,#287);
#252=LINE('',#593,#288);
#253=LINE('',#595,#289);
#254=LINE('',#597,#290);
#255=LINE('',#599,#291);
#256=LINE('',#601,#292);
#257=LINE('',#606,#293);
#258=LINE('',#608,#294);
#259=LINE('',#612,#295);
#260=LINE('',#614,#296);
#261=LINE('',#618,#297);
#262=LINE('',#619,#298);
#263=LINE('',#621,#299);
#264=LINE('',#623,#300);
#265=LINE('',#625,#301);
#266=LINE('',#626,#302);
#267=LINE('',#631,#303);
#268=LINE('',#633,#304);
#269=LINE('',#636,#305);
#270=LINE('',#638,#306);
#271=LINE('',#640,#307);
#272=LINE('',#646,#308);
#273=LINE('',#655,#309);
#274=LINE('',#657,#310);
#275=LINE('',#659,#311);
#276=LINE('',#661,#312);
#277=LINE('',#663,#313);
#278=LINE('',#667,#314);
#279=VECTOR('',#452,1.);
#280=VECTOR('',#453,1.);
#281=VECTOR('',#454,1.);
#282=VECTOR('',#455,1.);
#283=VECTOR('',#460,1.);
#284=VECTOR('',#463,1.);
#285=VECTOR('',#464,1.);
#286=VECTOR('',#467,1.);
#287=VECTOR('',#468,1.);
#288=VECTOR('',#471,1.);
#289=VECTOR('',#474,1.);
#290=VECTOR('',#475,1.);
#291=VECTOR('',#476,1.);
#292=VECTOR('',#479,1.);
#293=VECTOR('',#484,1.);
#294=VECTOR('',#485,1.);
#295=VECTOR('',#488,1.);
#296=VECTOR('',#489,1.);
#297=VECTOR('',#494,1.);
#298=VECTOR('',#495,1.);
#299=VECTOR('',#498,1.);
#300=VECTOR('',#501,1.);
#301=VECTOR('',#504,1.);
#302=VECTOR('',#505,1.);
#303=VECTOR('',#514,1.);
#304=VECTOR('',#517,1.);
#305=VECTOR('',#518,1.);
#306=VECTOR('',#519,1.);
#307=VECTOR('',#520,1.);
#308=VECTOR('',#527,1.);
#309=VECTOR('',#538,1.);
#310=VECTOR('',#539,1.);
#311=VECTOR('',#542,1.);
#312=VECTOR('',#543,1.);
#313=VECTOR('',#546,1.);
#314=VECTOR('',#551,1.);
#315=EDGE_LOOP('',(#47,#48,#49,#50));
#316=EDGE_LOOP('',(#51,#52,#53,#54,#55,#56,#57,#58,#59,#60,#61));
#317=EDGE_LOOP('',(#62,#63,#64,#65));
#318=EDGE_LOOP('',(#66,#67,#68,#69,#70,#71,#72,#73,#74,#75,#76));
#319=EDGE_LOOP('',(#77,#78,#79,#80));
#320=EDGE_LOOP('',(#81,#82,#83,#84));
#321=EDGE_LOOP('',(#85,#86,#87,#88));
#322=EDGE_LOOP('',(#89,#90,#91,#92));
#323=EDGE_LOOP('',(#93,#94,#95,#96));
#324=EDGE_LOOP('',(#97,#98,#99,#100));
#325=EDGE_LOOP('',(#101,#102,#103,#104));
#326=EDGE_LOOP('',(#105,#106,#107,#108));
#327=EDGE_LOOP('',(#109,#110,#111,#112));
#328=EDGE_LOOP('',(#113,#114,#115,#116));
#329=EDGE_LOOP('',(#117));
#330=EDGE_LOOP('',(#118));
#331=EDGE_LOOP('',(#119));
#332=EDGE_LOOP('',(#120,#121,#122,#123,#124));
#333=EDGE_LOOP('',(#125,#126,#127,#128));
#334=EDGE_LOOP('',(#129,#130,#131,#132,#133));
#335=EDGE_LOOP('',(#134));
#336=EDGE_LOOP('',(#135,#136,#137,#138));
#337=EDGE_LOOP('',(#139,#140,#141,#142));
#338=EDGE_LOOP('',(#143,#144,#145,#146));
#339=EDGE_LOOP('',(#147,#148,#149,#150));
#340=EDGE_LOOP('',(#151,#152,#153,#154));
#341=FACE_BOUND('',#315,.T.);
#342=FACE_BOUND('',#316,.T.);
#343=FACE_BOUND('',#317,.T.);
#344=FACE_BOUND('',#318,.T.);
#345=FACE_BOUND('',#319,.T.);
#346=FACE_BOUND('',#320,.T.);
#347=FACE_BOUND('',#321,.T.);
#348=FACE_BOUND('',#322,.T.);
#349=FACE_BOUND('',#323,.T.);
#350=FACE_BOUND('',#324,.T.);
#351=FACE_BOUND('',#325,.T.);
#352=FACE_BOUND('',#326,.T.);
#353=FACE_BOUND('',#327,.T.);
#354=FACE_BOUND('',#328,.T.);
#355=FACE_BOUND('',#329,.T.);
#356=FACE_BOUND('',#330,.T.);
#357=FACE_BOUND('',#331,.T.);
#358=FACE_BOUND('',#332,.T.);
#359=FACE_BOUND('',#333,.T.);
#360=FACE_BOUND('',#334,.T.);
#361=FACE_BOUND('',#335,.T.);
#362=FACE_BOUND('',#336,.T.);
#363=FACE_BOUND('',#337,.T.);
#364=FACE_BOUND('',#338,.T.);
#365=FACE_BOUND('',#339,.T.);
#366=FACE_BOUND('',#340,.T.);
#367=PLANE('',#409);
#368=PLANE('',#410);
#369=PLANE('',#415);
#370=PLANE('',#416);
#371=PLANE('',#422);
#372=PLANE('',#423);
#373=PLANE('',#424);
#374=PLANE('',#425);
#375=PLANE('',#429);
#376=PLANE('',#436);
#377=PLANE('',#438);
#378=PLANE('',#439);
#379=PLANE('',#442);
#380=PLANE('',#443);
#381=ADVANCED_FACE('',(#341),#367,.F.);
#382=ADVANCED_FACE('',(#342),#368,.F.);
#383=ADVANCED_FACE('',(#343),#369,.F.);
#384=ADVANCED_FACE('',(#344),#370,.T.);
#385=ADVANCED_FACE('',(#345),#22,.F.);
#386=ADVANCED_FACE('',(#346),#371,.F.);
#387=ADVANCED_FACE('',(#347),#372,.F.);
#388=ADVANCED_FACE('',(#348),#373,.F.);
#389=ADVANCED_FACE('',(#349),#374,.F.);
#390=ADVANCED_FACE('',(#350),#23,.T.);
#391=ADVANCED_FACE('',(#351),#24,.T.);
#392=ADVANCED_FACE('',(#352),#25,.F.);
#393=ADVANCED_FACE('',(#353),#375,.F.);
#394=ADVANCED_FACE('',(#354),#26,.T.);
#395=ADVANCED_FACE('',(#355,#356),#27,.F.);
#396=ADVANCED_FACE('',(#357,#358),#376,.T.);
#397=ADVANCED_FACE('',(#359),#377,.F.);
#398=ADVANCED_FACE('',(#360,#361),#378,.F.);
#399=ADVANCED_FACE('',(#362),#28,.F.);
#400=ADVANCED_FACE('',(#363),#379,.T.);
#401=ADVANCED_FACE('',(#364),#380,.F.);
#402=ADVANCED_FACE('',(#365),#29,.F.);
#403=ADVANCED_FACE('',(#366),#30,.T.);
#404=CLOSED_SHELL('',(#381,#382,#383,#384,#385,#386,#387,#388,#389,#390,
#391,#392,#393,#394,#395,#396,#397,#398,#399,#400,#401,#402,#403));
#405=MANIFOLD_SOLID_BREP('',#404);
#406=SHAPE_DEFINITION_REPRESENTATION(#687,#407);
#407=SHAPE_REPRESENTATION('id2',(#408),#682);
#408=AXIS2_PLACEMENT_3D('',#564,#448,#449);
#409=AXIS2_PLACEMENT_3D('',#565,#450,#451);
#410=AXIS2_PLACEMENT_3D('',#574,#456,#457);
#411=AXIS2_PLACEMENT_3D('',#575,#458,#459);
#412=AXIS2_PLACEMENT_3D('',#579,#461,#462);
#413=AXIS2_PLACEMENT_3D('',#585,#465,#466);
#414=AXIS2_PLACEMENT_3D('',#591,#469,#470);
#415=AXIS2_PLACEMENT_3D('',#594,#472,#473);
#416=AXIS2_PLACEMENT_3D('',#600,#477,#478);
#417=AXIS2_PLACEMENT_3D('',#603,#480,#481);
#418=AXIS2_PLACEMENT_3D('',#604,#482,#483);
#419=AXIS2_PLACEMENT_3D('',#610,#486,#487);
#420=AXIS2_PLACEMENT_3D('',#616,#490,#491);
#421=AXIS2_PLACEMENT_3D('',#617,#492,#493);
#422=AXIS2_PLACEMENT_3D('',#620,#496,#497);
#423=AXIS2_PLACEMENT_3D('',#622,#499,#500);
#424=AXIS2_PLACEMENT_3D('',#624,#502,#503);
#425=AXIS2_PLACEMENT_3D('',#627,#506,#507);
#426=AXIS2_PLACEMENT_3D('',#628,#508,#509);
#427=AXIS2_PLACEMENT_3D('',#629,#510,#511);
#428=AXIS2_PLACEMENT_3D('',#630,#512,#513);
#429=AXIS2_PLACEMENT_3D('',#632,#515,#516);
#430=AXIS2_PLACEMENT_3D('',#641,#521,#522);
#431=AXIS2_PLACEMENT_3D('',#642,#523,#524);
#432=AXIS2_PLACEMENT_3D('',#644,#525,#526);
#433=AXIS2_PLACEMENT_3D('',#647,#528,#529);
#434=AXIS2_PLACEMENT_3D('',#648,#530,#531);
#435=AXIS2_PLACEMENT_3D('',#650,#532,#533);
#436=AXIS2_PLACEMENT_3D('',#652,#534,#535);
#437=AXIS2_PLACEMENT_3D('',#653,#536,#537);
#438=AXIS2_PLACEMENT_3D('',#658,#540,#541);
#439=AXIS2_PLACEMENT_3D('',#662,#544,#545);
#440=AXIS2_PLACEMENT_3D('',#665,#547,#548);
#441=AXIS2_PLACEMENT_3D('',#666,#549,#550);
#442=AXIS2_PLACEMENT_3D('',#668,#552,#553);
#443=AXIS2_PLACEMENT_3D('',#677,#554,#555);
#444=AXIS2_PLACEMENT_3D('',#678,#556,#557);
#445=AXIS2_PLACEMENT_3D('',#679,#558,#559);
#446=AXIS2_PLACEMENT_3D('',#680,#560,#561);
#447=AXIS2_PLACEMENT_3D('',#681,#562,#563);
#448=DIRECTION('',(0.,0.,1.));
#449=DIRECTION('',(1.,0.,0.));
#450=DIRECTION('',(1.,0.,0.));
#451=DIRECTION('',(0.,0.258819045102521,-0.965925826289068));
#452=DIRECTION('',(0.,-0.258819045102521,0.965925826289068));
#453=DIRECTION('',(0.,0.965925826289068,0.258819045102521));
#454=DIRECTION('',(0.,-0.258819045102521,0.965925826289068));
#455=DIRECTION('',(0.,-0.965925826289068,-0.258819045102521));
#456=DIRECTION('',(0.,0.965925826289068,0.258819045102521));
#457=DIRECTION('',(0.,-0.258819045102521,0.965925826289068));
#458=DIRECTION('',(0.,0.965925826289068,0.258819045102521));
#459=DIRECTION('',(0.,-0.258819045102521,0.965925826289068));
#460=DIRECTION('',(-1.,0.,0.));
#461=DIRECTION('',(0.,0.965925826289068,0.258819045102521));
#462=DIRECTION('',(0.,-0.258819045102521,0.965925826289068));
#463=DIRECTION('',(-1.,0.,0.));
#464=DIRECTION('',(8.34001671142695E-17,0.258819045102521,-0.965925826289068));
#465=DIRECTION('',(0.,-0.965925826289068,-0.258819045102521));
#466=DIRECTION('',(0.,-0.258819045102521,0.965925826289068));
#467=DIRECTION('',(8.34001671142695E-17,-0.258819045102521,0.965925826289068));
#468=DIRECTION('',(-1.,0.,0.));
#469=DIRECTION('',(0.,0.965925826289068,0.258819045102521));
#470=DIRECTION('',(0.,-0.258819045102521,0.965925826289068));
#471=DIRECTION('',(0.,0.258819045102521,-0.965925826289068));
#472=DIRECTION('',(-1.,0.,0.));
#473=DIRECTION('',(0.,-0.258819045102521,0.965925826289068));
#474=DIRECTION('',(0.,0.965925826289068,0.258819045102521));
#475=DIRECTION('',(0.,-0.965925826289068,-0.258819045102521));
#476=DIRECTION('',(0.,0.258819045102521,-0.965925826289068));
#477=DIRECTION('',(0.,0.965925826289068,0.258819045102521));
#478=DIRECTION('',(0.,-0.258819045102521,0.965925826289068));
#479=DIRECTION('',(-1.,0.,0.));
#480=DIRECTION('',(0.,0.965925826289068,0.258819045102521));
#481=DIRECTION('',(0.,-0.258819045102521,0.965925826289068));
#482=DIRECTION('',(0.,0.965925826289068,0.258819045102521));
#483=DIRECTION('',(0.,-0.258819045102521,0.965925826289068));
#484=DIRECTION('',(-1.,0.,0.));
#485=DIRECTION('',(8.34001671142695E-17,-0.258819045102521,0.965925826289068));
#486=DIRECTION('',(0.,-0.965925826289068,-0.258819045102521));
#487=DIRECTION('',(0.,-0.258819045102521,0.965925826289068));
#488=DIRECTION('',(8.34001671142695E-17,0.258819045102521,-0.965925826289068));
#489=DIRECTION('',(-1.,0.,0.));
#490=DIRECTION('',(0.,0.965925826289068,0.258819045102521));
#491=DIRECTION('',(0.,-0.258819045102521,0.965925826289068));
#492=DIRECTION('',(0.,-0.965925826289068,-0.258819045102521));
#493=DIRECTION('',(0.,0.258819045102521,-0.965925826289068));
#494=DIRECTION('',(0.,-0.965925826289068,-0.258819045102521));
#495=DIRECTION('',(0.,-0.965925826289068,-0.258819045102521));
#496=DIRECTION('',(-1.,2.15855516139059E-17,-8.05583753324971E-17));
#497=DIRECTION('',(-8.34001671142695E-17,-0.258819045102521,0.965925826289068));
#498=DIRECTION('',(0.,-0.965925826289068,-0.258819045102521));
#499=DIRECTION('',(0.,-0.258819045102521,0.965925826289068));
#500=DIRECTION('',(1.,0.,0.));
#501=DIRECTION('',(0.,-0.965925826289068,-0.258819045102521));
#502=DIRECTION('',(0.,-0.258819045102521,0.965925826289068));
#503=DIRECTION('',(1.,0.,0.));
#504=DIRECTION('',(0.,-0.965925826289068,-0.258819045102521));
#505=DIRECTION('',(0.,-0.965925826289068,-0.258819045102521));
#506=DIRECTION('',(1.,2.15855516139059E-17,-8.05583753324971E-17));
#507=DIRECTION('',(-8.34001671142695E-17,0.258819045102521,-0.965925826289068));
#508=DIRECTION('',(0.,-0.965925826289068,-0.258819045102521));
#509=DIRECTION('',(0.,0.258819045102521,-0.965925826289068));
#510=DIRECTION('',(0.,-0.965925826289068,-0.258819045102521));
#511=DIRECTION('',(0.,0.258819045102521,-0.965925826289068));
#512=DIRECTION('',(0.,0.965925826289068,0.258819045102521));
#513=DIRECTION('',(0.,-0.258819045102521,0.965925826289068));
#514=DIRECTION('',(0.,0.965925826289068,0.258819045102521));
#515=DIRECTION('',(-1.,0.,0.));
#516=DIRECTION('',(0.,0.,1.));
#517=DIRECTION('',(0.,1.,0.));
#518=DIRECTION('',(0.,0.,-1.));
#519=DIRECTION('',(0.,-1.,0.));
#520=DIRECTION('',(0.,0.,-1.));
#521=DIRECTION('',(0.,-1.,0.));
#522=DIRECTION('',(0.,0.,-1.));
#523=DIRECTION('',(0.,1.,0.));
#524=DIRECTION('',(0.,0.,1.));
#525=DIRECTION('',(0.,1.,0.));
#526=DIRECTION('',(0.,0.,1.));
#527=DIRECTION('',(0.,-1.,0.));
#528=DIRECTION('',(0.,-1.,0.));
#529=DIRECTION('',(0.,0.,-1.));
#530=DIRECTION('',(0.,1.,0.));
#531=DIRECTION('',(0.,0.,1.));
#532=DIRECTION('',(0.,1.,0.));
#533=DIRECTION('',(0.,0.,1.));
#534=DIRECTION('',(0.,1.,0.));
#535=DIRECTION('',(0.,0.,1.));
#536=DIRECTION('',(0.,1.,0.));
#537=DIRECTION('',(0.,0.,1.));
#538=DIRECTION('',(-1.,0.,0.));
#539=DIRECTION('',(0.,0.,1.));
#540=DIRECTION('',(1.,0.,0.));
#541=DIRECTION('',(0.,0.,-1.));
#542=DIRECTION('',(0.,1.,-6.12323399573677E-17));
#543=DIRECTION('',(0.,0.,1.));
#544=DIRECTION('',(0.,1.,0.));
#545=DIRECTION('',(0.,0.,1.));
#546=DIRECTION('',(-1.,0.,0.));
#547=DIRECTION('',(0.,1.,0.));
#548=DIRECTION('',(0.,0.,1.));
#549=DIRECTION('',(0.,1.,0.));
#550=DIRECTION('',(0.,0.,1.));
#551=DIRECTION('',(0.,1.,0.));
#552=DIRECTION('',(1.,0.,0.));
#553=DIRECTION('',(0.,0.,-1.));
#554=DIRECTION('',(1.,0.,0.));
#555=DIRECTION('',(0.,0.,-1.));
#556=DIRECTION('',(-1.,0.,0.));
#557=DIRECTION('',(0.,0.,1.));
#558=DIRECTION('',(-1.,0.,0.));
#559=DIRECTION('',(0.,0.,1.));
#560=DIRECTION('',(-1.,0.,0.));
#561=DIRECTION('',(0.,0.,1.));
#562=DIRECTION('',(-1.,0.,0.));
#563=DIRECTION('',(0.,0.,1.));
#564=CARTESIAN_POINT('',(0.,0.,0.));
#565=CARTESIAN_POINT('',(-0.0017,-0.00101644729326827,-0.000139953174880458));
#566=CARTESIAN_POINT('',(-0.0017,-0.00116133616721163,-0.000178776031645836));
#567=CARTESIAN_POINT('',(-0.0017,0.00129744476126232,-0.00935507138139198));
#568=CARTESIAN_POINT('',(-0.0017,0.000141407820900367,-0.00504068278453469));
#569=CARTESIAN_POINT('',(-0.0017,0.000286296694843728,-0.00500185992776932));
#570=CARTESIAN_POINT('',(-0.0017,0.000286296694843727,-0.00500185992776932));
#571=CARTESIAN_POINT('',(-0.0017,-0.00101644729326827,-0.000139953174880458));
#572=CARTESIAN_POINT('',(-0.0017,0.00144233363520568,-0.0093162485246266));
#573=CARTESIAN_POINT('',(-0.0017,0.00144233363520569,-0.00931624852462661));
#574=CARTESIAN_POINT('',(0.,0.00116803523871106,-0.00887210846824745));
#575=CARTESIAN_POINT('',(0.0127279220613579,3.34953574971861E-6,-0.00452544224994664));
#576=CARTESIAN_POINT('',(0.0017,0.00108992524666565,-0.00858059800935517));
#577=CARTESIAN_POINT('',(0.000939984705678592,0.000141407820900368,-0.0050406827845347));
#578=CARTESIAN_POINT('',(0.,0.000141407820900368,-0.0050406827845347));
#579=CARTESIAN_POINT('',(-0.0009,0.00129744476126233,-0.00935507138139198));
#580=CARTESIAN_POINT('',(-0.0009,0.00150449999734434,-0.0101278120424232));
#581=CARTESIAN_POINT('',(-0.0017,0.00150449999734434,-0.0101278120424232));
#582=CARTESIAN_POINT('',(-0.0007,0.00150449999734434,-0.0101278120424232));
#583=CARTESIAN_POINT('',(-0.0007,0.00116803523871106,-0.00887210846824745));
#584=CARTESIAN_POINT('',(-0.0007,0.00116803523871106,-0.00887210846824745));
#585=CARTESIAN_POINT('',(0.,0.00116803523871106,-0.00887210846824745));
#586=CARTESIAN_POINT('',(0.0007,0.00116803523871106,-0.00887210846824745));
#587=CARTESIAN_POINT('',(0.0007,0.00116803523871106,-0.00887210846824745));
#588=CARTESIAN_POINT('',(0.0007,0.00150449999734434,-0.0101278120424232));
#589=CARTESIAN_POINT('',(0.0007,0.00150449999734434,-0.0101278120424232));
#590=CARTESIAN_POINT('',(0.0009,0.00150449999734434,-0.0101278120424232));
#591=CARTESIAN_POINT('',(0.0009,0.00129744476126233,-0.00935507138139198));
#592=CARTESIAN_POINT('',(0.0017,0.00129744476126232,-0.00935507138139198));
#593=CARTESIAN_POINT('',(0.0017,-0.00116133616721163,-0.000178776031645836));
#594=CARTESIAN_POINT('',(0.0017,-0.00101644729326827,-0.000139953174880458));
#595=CARTESIAN_POINT('',(0.0017,0.00123481412060901,-0.0085417751525898));
#596=CARTESIAN_POINT('',(0.0017,0.00123481412060901,-0.0085417751525898));
#597=CARTESIAN_POINT('',(0.0017,0.00144233363520569,-0.00931624852462661));
#598=CARTESIAN_POINT('',(0.0017,0.00144233363520568,-0.0093162485246266));
#599=CARTESIAN_POINT('',(0.0017,-0.00101644729326827,-0.000139953174880458));
#600=CARTESIAN_POINT('',(0.,0.00131292411265442,-0.00883328561148207));
#601=CARTESIAN_POINT('',(0.,0.000286296694843728,-0.00500185992776932));
#602=CARTESIAN_POINT('',(0.000939984705678592,0.000286296694843728,-0.00500185992776932));
#603=CARTESIAN_POINT('',(0.0127279220613579,0.000148238409693079,-0.00448661939318126));
#604=CARTESIAN_POINT('',(0.0009,0.00144233363520569,-0.00931624852462661));
#605=CARTESIAN_POINT('',(0.0009,0.0016493888712877,-0.0100889891856579));
#606=CARTESIAN_POINT('',(0.0007,0.0016493888712877,-0.0100889891856579));
#607=CARTESIAN_POINT('',(0.0007,0.0016493888712877,-0.0100889891856579));
#608=CARTESIAN_POINT('',(0.0007,0.00131292411265442,-0.00883328561148207));
#609=CARTESIAN_POINT('',(0.0007,0.00131292411265442,-0.00883328561148207));
#610=CARTESIAN_POINT('',(0.,0.00131292411265442,-0.00883328561148207));
#611=CARTESIAN_POINT('',(-0.0007,0.00131292411265442,-0.00883328561148207));
#612=CARTESIAN_POINT('',(-0.0007,0.00131292411265442,-0.00883328561148207));
#613=CARTESIAN_POINT('',(-0.0007,0.0016493888712877,-0.0100889891856579));
#614=CARTESIAN_POINT('',(-0.0017,0.0016493888712877,-0.0100889891856579));
#615=CARTESIAN_POINT('',(-0.0009,0.0016493888712877,-0.0100889891856579));
#616=CARTESIAN_POINT('',(-0.0009,0.00144233363520569,-0.00931624852462661));
#617=CARTESIAN_POINT('',(0.,0.00131292411265442,-0.00883328561148207));
#618=CARTESIAN_POINT('',(-0.0007,0.00131292411265442,-0.00883328561148207));
#619=CARTESIAN_POINT('',(0.0007,0.00131292411265442,-0.00883328561148207));
#620=CARTESIAN_POINT('',(-0.0007,0.00131292411265442,-0.00883328561148207));
#621=CARTESIAN_POINT('',(-0.0007,0.0016493888712877,-0.0100889891856579));
#622=CARTESIAN_POINT('',(-0.0017,0.0016493888712877,-0.0100889891856579));
#623=CARTESIAN_POINT('',(-0.0009,0.0016493888712877,-0.0100889891856579));
#624=CARTESIAN_POINT('',(0.0007,0.0016493888712877,-0.0100889891856579));
#625=CARTESIAN_POINT('',(0.0009,0.0016493888712877,-0.0100889891856579));
#626=CARTESIAN_POINT('',(0.0007,0.0016493888712877,-0.0100889891856579));
#627=CARTESIAN_POINT('',(0.0007,0.00131292411265442,-0.00883328561148207));
#628=CARTESIAN_POINT('',(-0.0009,0.00144233363520569,-0.00931624852462661));
#629=CARTESIAN_POINT('',(0.0009,0.00144233363520569,-0.00931624852462661));
#630=CARTESIAN_POINT('',(0.0127279220613579,0.000148238409693079,-0.00448661939318126));
#631=CARTESIAN_POINT('',(0.00093998470567859,0.000286296694843728,-0.00500185992776932));
#632=CARTESIAN_POINT('',(0.0017,0.00015,0.));
#633=CARTESIAN_POINT('',(0.0017,0.00015,-0.000301793834431583));
#634=CARTESIAN_POINT('',(0.0017,0.00015,-0.000301793834431583));
#635=CARTESIAN_POINT('',(0.0017,0.,-0.000301793834431583));
#636=CARTESIAN_POINT('',(0.0017,0.00015,0.));
#637=CARTESIAN_POINT('',(0.0017,0.00015,1.04094977927525E-19));
#638=CARTESIAN_POINT('',(0.0017,0.00015,1.04094977927525E-19));
#639=CARTESIAN_POINT('',(0.0017,0.,1.04094977927525E-19));
#640=CARTESIAN_POINT('',(0.0017,0.,0.));
#641=CARTESIAN_POINT('',(0.,0.00015,0.));
#642=CARTESIAN_POINT('',(0.,0.,0.));
#643=CARTESIAN_POINT('',(-0.0017,0.,0.));
#644=CARTESIAN_POINT('',(0.,0.00015,0.));
#645=CARTESIAN_POINT('',(-0.0017,0.00015,0.));
#646=CARTESIAN_POINT('',(-0.0017,0.00015,0.));
#647=CARTESIAN_POINT('',(0.,0.00015,0.));
#648=CARTESIAN_POINT('',(0.,0.00015,0.));
#649=CARTESIAN_POINT('',(0.,0.00015,0.00105));
#650=CARTESIAN_POINT('',(0.,0.,0.));
#651=CARTESIAN_POINT('',(0.,0.,0.00105));
#652=CARTESIAN_POINT('',(0.,0.00015,-0.009));
#653=CARTESIAN_POINT('',(0.0127279220613579,0.00015,-0.0045));
#654=CARTESIAN_POINT('',(0.00093998470567859,0.00015,-0.00396658374735923));
#655=CARTESIAN_POINT('',(0.,0.00015,-0.00396658374735923));
#656=CARTESIAN_POINT('',(-0.0017,0.00015,-0.00396658374735923));
#657=CARTESIAN_POINT('',(-0.0017,0.00015,0.));
#658=CARTESIAN_POINT('',(-0.0017,0.00015,0.));
#659=CARTESIAN_POINT('',(-0.0017,0.00015,-0.00396658374735923));
#660=CARTESIAN_POINT('',(-0.0017,0.,-0.00396658374735923));
#661=CARTESIAN_POINT('',(-0.0017,0.,0.));
#662=CARTESIAN_POINT('',(0.,0.,-0.009));
#663=CARTESIAN_POINT('',(0.,0.,-0.00396658374735923));
#664=CARTESIAN_POINT('',(0.00093998470567859,0.,-0.00396658374735923));
#665=CARTESIAN_POINT('',(0.0127279220613579,0.,-0.0045));
#666=CARTESIAN_POINT('',(0.0127279220613579,0.00015,-0.0045));
#667=CARTESIAN_POINT('',(0.00093998470567859,0.00015,-0.00396658374735923));
#668=CARTESIAN_POINT('',(0.00093998470567859,0.00415,-0.00396658374735923));
#669=CARTESIAN_POINT('',(0.00093998470567859,0.,-0.00396658374735923));
#670=CARTESIAN_POINT('',(0.00093998470567859,6.65269448245454E-20,-0.00432873956714805));
#671=CARTESIAN_POINT('',(0.00093998470567859,4.76749974443029E-5,-0.00469086712505978));
#672=CARTESIAN_POINT('',(0.00093998470567859,0.000141407820900367,-0.00504068278453469));
#673=CARTESIAN_POINT('',(0.00093998470567859,0.00015,-0.00396658374735923));
#674=CARTESIAN_POINT('',(0.00093998470567859,0.00015,-0.0043156495977581));
#675=CARTESIAN_POINT('',(0.00093998470567859,0.000195951804765593,-0.00466468820779349));
#676=CARTESIAN_POINT('',(0.00093998470567859,0.000286296694843728,-0.00500185992776932));
#677=CARTESIAN_POINT('',(-0.0017,0.00415,-0.00396658374735923));
#678=CARTESIAN_POINT('',(-0.0017,0.00415,-0.00396658374735923));
#679=CARTESIAN_POINT('',(-0.0017,0.00415,-0.00396658374735923));
#680=CARTESIAN_POINT('',(0.00247133428963715,0.00415,-0.00396658374735923));
#681=CARTESIAN_POINT('',(0.00247133428963715,0.00415,-0.00396658374735923));
#682=(
GEOMETRIC_REPRESENTATION_CONTEXT(3)
GLOBAL_UNCERTAINTY_ASSIGNED_CONTEXT((#683))
GLOBAL_UNIT_ASSIGNED_CONTEXT((#686,#685,#684))
REPRESENTATION_CONTEXT('id2','TOP_LEVEL_ASSEMBLY_PART')
);
#683=UNCERTAINTY_MEASURE_WITH_UNIT(LENGTH_MEASURE(2.E-5),#686,
'DISTANCE_ACCURACY_VALUE','Maximum Tolerance applied to model');
#684=(
NAMED_UNIT(*)
SI_UNIT($,.STERADIAN.)
SOLID_ANGLE_UNIT()
);
#685=(
NAMED_UNIT(*)
PLANE_ANGLE_UNIT()
SI_UNIT($,.RADIAN.)
);
#686=(
LENGTH_UNIT()
NAMED_UNIT(*)
SI_UNIT($,.METRE.)
);
#687=PRODUCT_DEFINITION_SHAPE('','',#688);
#688=PRODUCT_DEFINITION('','',#690,#689);
#689=DESIGN_CONTEXT('',#696,'design');
#690=PRODUCT_DEFINITION_FORMATION_WITH_SPECIFIED_SOURCE('','',#692,
 .NOT_KNOWN.);
#691=PRODUCT_RELATED_PRODUCT_CATEGORY('','',(#692));
#692=PRODUCT('id2','id2','id2',(#694));
#693=PRODUCT_CATEGORY('','');
#694=MECHANICAL_CONTEXT('',#696,'mechanical');
#695=APPLICATION_PROTOCOL_DEFINITION('international standard',
'config_control_design',2010,#696);
#696=APPLICATION_CONTEXT(
'configuration controlled 3D designs of mechanical parts and assemblie
s');
ENDSEC;
END-ISO-10303-21;
