ISO-10303-21;
HEADER;
/* Generated by software containing ST-Developer
 * from STEP Tools, Inc. (www.steptools.com) 
 */
/* OPTION: using custom renumber hook */

FILE_DESCRIPTION(
/* description */ ('STEP AP203'),
/* implementation_level */ '2;1');

FILE_NAME(
/* name */ '6a545fa18b3b9652dc939bd3',
/* time_stamp */ '2026-07-13T03:46:41Z',
/* author */ (''),
/* organization */ (''),
/* preprocessor_version */ 'ST-DEVELOPER v20',
/* originating_system */ 'ONSHAPE BY PTC INC, 1.217',
/* authorisation */ '  ');

FILE_SCHEMA (('CONFIG_CONTROL_DESIGN'));
ENDSEC;

DATA;
#10=PROPERTY_DEFINITION_REPRESENTATION(#14,#12);
#11=PROPERTY_DEFINITION_REPRESENTATION(#15,#13);
#12=REPRESENTATION('',(#16),#628);
#13=REPRESENTATION('',(#17),#628);
#14=PROPERTY_DEFINITION('pmi validation property','',#633);
#15=PROPERTY_DEFINITION('pmi validation property','',#633);
#16=VALUE_REPRESENTATION_ITEM('number of annotations',COUNT_MEASURE(0.));
#17=VALUE_REPRESENTATION_ITEM('number of views',COUNT_MEASURE(0.));
#18=SHAPE_REPRESENTATION_RELATIONSHIP('','',#357,#19);
#19=ADVANCED_BREP_SHAPE_REPRESENTATION('',(#355),#628);
#20=VERTEX_LOOP('',#235);
#21=CONICAL_SURFACE('',#406,0.,1.0471975511966);
#22=PLANE('',#374);
#23=PLANE('',#385);
#24=PLANE('',#401);
#25=PLANE('',#402);
#26=CIRCLE('',#360,0.0022);
#27=CIRCLE('',#361,0.0022);
#28=CIRCLE('',#363,0.0022);
#29=CIRCLE('',#364,0.0022);
#30=CIRCLE('',#366,0.0022);
#31=CIRCLE('',#367,0.0022);
#32=CIRCLE('',#369,0.0022);
#33=CIRCLE('',#370,0.0022);
#34=CIRCLE('',#372,0.0022);
#35=CIRCLE('',#373,0.0022);
#36=CIRCLE('',#375,0.00025);
#37=CIRCLE('',#376,0.0002);
#38=CIRCLE('',#377,0.0001);
#39=CIRCLE('',#378,0.00115);
#40=CIRCLE('',#379,0.0001);
#41=CIRCLE('',#380,0.005);
#42=CIRCLE('',#381,0.005);
#43=CIRCLE('',#382,0.005);
#44=CIRCLE('',#383,0.005);
#45=CIRCLE('',#384,0.005);
#46=CIRCLE('',#386,0.0002);
#47=CIRCLE('',#387,0.0001);
#48=CIRCLE('',#388,0.00115);
#49=CIRCLE('',#389,0.0001);
#50=CIRCLE('',#390,0.005);
#51=CIRCLE('',#391,0.005);
#52=CIRCLE('',#392,0.005);
#53=CIRCLE('',#393,0.005);
#54=CIRCLE('',#394,0.005);
#55=ORIENTED_EDGE('',*,*,#153,.T.);
#56=ORIENTED_EDGE('',*,*,#154,.F.);
#57=ORIENTED_EDGE('',*,*,#155,.F.);
#58=ORIENTED_EDGE('',*,*,#156,.T.);
#59=ORIENTED_EDGE('',*,*,#157,.F.);
#60=ORIENTED_EDGE('',*,*,#158,.T.);
#61=ORIENTED_EDGE('',*,*,#159,.T.);
#62=ORIENTED_EDGE('',*,*,#160,.F.);
#63=ORIENTED_EDGE('',*,*,#161,.T.);
#64=ORIENTED_EDGE('',*,*,#162,.F.);
#65=ORIENTED_EDGE('',*,*,#163,.F.);
#66=ORIENTED_EDGE('',*,*,#164,.T.);
#67=ORIENTED_EDGE('',*,*,#165,.T.);
#68=ORIENTED_EDGE('',*,*,#166,.F.);
#69=ORIENTED_EDGE('',*,*,#167,.F.);
#70=ORIENTED_EDGE('',*,*,#168,.T.);
#71=ORIENTED_EDGE('',*,*,#169,.T.);
#72=ORIENTED_EDGE('',*,*,#170,.F.);
#73=ORIENTED_EDGE('',*,*,#171,.F.);
#74=ORIENTED_EDGE('',*,*,#172,.T.);
#75=ORIENTED_EDGE('',*,*,#173,.F.);
#76=ORIENTED_EDGE('',*,*,#174,.F.);
#77=ORIENTED_EDGE('',*,*,#175,.T.);
#78=ORIENTED_EDGE('',*,*,#176,.F.);
#79=ORIENTED_EDGE('',*,*,#177,.T.);
#80=ORIENTED_EDGE('',*,*,#178,.F.);
#81=ORIENTED_EDGE('',*,*,#179,.T.);
#82=ORIENTED_EDGE('',*,*,#154,.T.);
#83=ORIENTED_EDGE('',*,*,#180,.T.);
#84=ORIENTED_EDGE('',*,*,#160,.T.);
#85=ORIENTED_EDGE('',*,*,#181,.T.);
#86=ORIENTED_EDGE('',*,*,#170,.T.);
#87=ORIENTED_EDGE('',*,*,#182,.T.);
#88=ORIENTED_EDGE('',*,*,#166,.T.);
#89=ORIENTED_EDGE('',*,*,#183,.T.);
#90=ORIENTED_EDGE('',*,*,#162,.T.);
#91=ORIENTED_EDGE('',*,*,#184,.T.);
#92=ORIENTED_EDGE('',*,*,#185,.F.);
#93=ORIENTED_EDGE('',*,*,#186,.T.);
#94=ORIENTED_EDGE('',*,*,#187,.F.);
#95=ORIENTED_EDGE('',*,*,#188,.T.);
#96=ORIENTED_EDGE('',*,*,#189,.F.);
#97=ORIENTED_EDGE('',*,*,#190,.T.);
#98=ORIENTED_EDGE('',*,*,#191,.F.);
#99=ORIENTED_EDGE('',*,*,#156,.F.);
#100=ORIENTED_EDGE('',*,*,#192,.F.);
#101=ORIENTED_EDGE('',*,*,#164,.F.);
#102=ORIENTED_EDGE('',*,*,#193,.F.);
#103=ORIENTED_EDGE('',*,*,#168,.F.);
#104=ORIENTED_EDGE('',*,*,#194,.F.);
#105=ORIENTED_EDGE('',*,*,#172,.F.);
#106=ORIENTED_EDGE('',*,*,#195,.F.);
#107=ORIENTED_EDGE('',*,*,#158,.F.);
#108=ORIENTED_EDGE('',*,*,#181,.F.);
#109=ORIENTED_EDGE('',*,*,#159,.F.);
#110=ORIENTED_EDGE('',*,*,#195,.T.);
#111=ORIENTED_EDGE('',*,*,#171,.T.);
#112=ORIENTED_EDGE('',*,*,#182,.F.);
#113=ORIENTED_EDGE('',*,*,#169,.F.);
#114=ORIENTED_EDGE('',*,*,#194,.T.);
#115=ORIENTED_EDGE('',*,*,#167,.T.);
#116=ORIENTED_EDGE('',*,*,#183,.F.);
#117=ORIENTED_EDGE('',*,*,#165,.F.);
#118=ORIENTED_EDGE('',*,*,#193,.T.);
#119=ORIENTED_EDGE('',*,*,#163,.T.);
#120=ORIENTED_EDGE('',*,*,#184,.F.);
#121=ORIENTED_EDGE('',*,*,#161,.F.);
#122=ORIENTED_EDGE('',*,*,#192,.T.);
#123=ORIENTED_EDGE('',*,*,#155,.T.);
#124=ORIENTED_EDGE('',*,*,#180,.F.);
#125=ORIENTED_EDGE('',*,*,#153,.F.);
#126=ORIENTED_EDGE('',*,*,#191,.T.);
#127=ORIENTED_EDGE('',*,*,#157,.T.);
#128=ORIENTED_EDGE('',*,*,#189,.T.);
#129=ORIENTED_EDGE('',*,*,#196,.T.);
#130=ORIENTED_EDGE('',*,*,#178,.T.);
#131=ORIENTED_EDGE('',*,*,#197,.T.);
#132=ORIENTED_EDGE('',*,*,#174,.T.);
#133=ORIENTED_EDGE('',*,*,#198,.T.);
#134=ORIENTED_EDGE('',*,*,#187,.T.);
#135=ORIENTED_EDGE('',*,*,#199,.T.);
#136=ORIENTED_EDGE('',*,*,#185,.T.);
#137=ORIENTED_EDGE('',*,*,#200,.T.);
#138=ORIENTED_EDGE('',*,*,#176,.T.);
#139=ORIENTED_EDGE('',*,*,#201,.T.);
#140=ORIENTED_EDGE('',*,*,#186,.F.);
#141=ORIENTED_EDGE('',*,*,#201,.F.);
#142=ORIENTED_EDGE('',*,*,#175,.F.);
#143=ORIENTED_EDGE('',*,*,#199,.F.);
#144=ORIENTED_EDGE('',*,*,#188,.F.);
#145=ORIENTED_EDGE('',*,*,#198,.F.);
#146=ORIENTED_EDGE('',*,*,#179,.F.);
#147=ORIENTED_EDGE('',*,*,#196,.F.);
#148=ORIENTED_EDGE('',*,*,#190,.F.);
#149=ORIENTED_EDGE('',*,*,#197,.F.);
#150=ORIENTED_EDGE('',*,*,#177,.F.);
#151=ORIENTED_EDGE('',*,*,#200,.F.);
#152=ORIENTED_EDGE('',*,*,#173,.T.);
#153=EDGE_CURVE('',#202,#203,#236,.T.);
#154=EDGE_CURVE('',#204,#203,#26,.T.);
#155=EDGE_CURVE('',#205,#204,#237,.T.);
#156=EDGE_CURVE('',#205,#202,#27,.T.);
#157=EDGE_CURVE('',#206,#207,#238,.T.);
#158=EDGE_CURVE('',#206,#208,#28,.T.);
#159=EDGE_CURVE('',#208,#209,#239,.T.);
#160=EDGE_CURVE('',#207,#209,#29,.T.);
#161=EDGE_CURVE('',#210,#211,#240,.T.);
#162=EDGE_CURVE('',#212,#211,#30,.T.);
#163=EDGE_CURVE('',#213,#212,#241,.T.);
#164=EDGE_CURVE('',#213,#210,#31,.T.);
#165=EDGE_CURVE('',#214,#215,#242,.T.);
#166=EDGE_CURVE('',#216,#215,#32,.T.);
#167=EDGE_CURVE('',#217,#216,#243,.T.);
#168=EDGE_CURVE('',#217,#214,#33,.T.);
#169=EDGE_CURVE('',#218,#219,#244,.T.);
#170=EDGE_CURVE('',#220,#219,#34,.T.);
#171=EDGE_CURVE('',#221,#220,#245,.T.);
#172=EDGE_CURVE('',#221,#218,#35,.T.);
#173=EDGE_CURVE('',#222,#222,#36,.T.);
#174=EDGE_CURVE('',#223,#224,#246,.T.);
#175=EDGE_CURVE('',#223,#225,#37,.T.);
#176=EDGE_CURVE('',#226,#225,#247,.T.);
#177=EDGE_CURVE('',#226,#227,#38,.F.);
#178=EDGE_CURVE('',#228,#227,#39,.T.);
#179=EDGE_CURVE('',#228,#224,#40,.F.);
#180=EDGE_CURVE('',#203,#207,#41,.T.);
#181=EDGE_CURVE('',#209,#220,#42,.T.);
#182=EDGE_CURVE('',#219,#216,#43,.T.);
#183=EDGE_CURVE('',#215,#212,#44,.T.);
#184=EDGE_CURVE('',#211,#204,#45,.T.);
#185=EDGE_CURVE('',#229,#230,#248,.T.);
#186=EDGE_CURVE('',#229,#231,#46,.F.);
#187=EDGE_CURVE('',#232,#231,#249,.T.);
#188=EDGE_CURVE('',#232,#233,#47,.T.);
#189=EDGE_CURVE('',#234,#233,#48,.F.);
#190=EDGE_CURVE('',#234,#230,#49,.T.);
#191=EDGE_CURVE('',#202,#206,#50,.T.);
#192=EDGE_CURVE('',#210,#205,#51,.T.);
#193=EDGE_CURVE('',#214,#213,#52,.T.);
#194=EDGE_CURVE('',#218,#217,#53,.T.);
#195=EDGE_CURVE('',#208,#221,#54,.T.);
#196=EDGE_CURVE('',#233,#228,#250,.T.);
#197=EDGE_CURVE('',#227,#234,#251,.F.);
#198=EDGE_CURVE('',#224,#232,#252,.T.);
#199=EDGE_CURVE('',#231,#223,#253,.T.);
#200=EDGE_CURVE('',#230,#226,#254,.F.);
#201=EDGE_CURVE('',#225,#229,#255,.F.);
#202=VERTEX_POINT('',#528);
#203=VERTEX_POINT('',#529);
#204=VERTEX_POINT('',#531);
#205=VERTEX_POINT('',#533);
#206=VERTEX_POINT('',#537);
#207=VERTEX_POINT('',#538);
#208=VERTEX_POINT('',#540);
#209=VERTEX_POINT('',#542);
#210=VERTEX_POINT('',#546);
#211=VERTEX_POINT('',#547);
#212=VERTEX_POINT('',#549);
#213=VERTEX_POINT('',#551);
#214=VERTEX_POINT('',#555);
#215=VERTEX_POINT('',#556);
#216=VERTEX_POINT('',#558);
#217=VERTEX_POINT('',#560);
#218=VERTEX_POINT('',#564);
#219=VERTEX_POINT('',#565);
#220=VERTEX_POINT('',#567);
#221=VERTEX_POINT('',#569);
#222=VERTEX_POINT('',#573);
#223=VERTEX_POINT('',#575);
#224=VERTEX_POINT('',#576);
#225=VERTEX_POINT('',#578);
#226=VERTEX_POINT('',#580);
#227=VERTEX_POINT('',#582);
#228=VERTEX_POINT('',#584);
#229=VERTEX_POINT('',#593);
#230=VERTEX_POINT('',#594);
#231=VERTEX_POINT('',#596);
#232=VERTEX_POINT('',#598);
#233=VERTEX_POINT('',#600);
#234=VERTEX_POINT('',#602);
#235=VERTEX_POINT('',#627);
#236=LINE('',#527,#256);
#237=LINE('',#532,#257);
#238=LINE('',#536,#258);
#239=LINE('',#541,#259);
#240=LINE('',#545,#260);
#241=LINE('',#550,#261);
#242=LINE('',#554,#262);
#243=LINE('',#559,#263);
#244=LINE('',#563,#264);
#245=LINE('',#568,#265);
#246=LINE('',#574,#266);
#247=LINE('',#579,#267);
#248=LINE('',#592,#268);
#249=LINE('',#597,#269);
#250=LINE('',#615,#270);
#251=LINE('',#616,#271);
#252=LINE('',#618,#272);
#253=LINE('',#619,#273);
#254=LINE('',#621,#274);
#255=LINE('',#622,#275);
#256=VECTOR('',#411,1.);
#257=VECTOR('',#414,1.);
#258=VECTOR('',#419,1.);
#259=VECTOR('',#422,1.);
#260=VECTOR('',#427,1.);
#261=VECTOR('',#430,1.);
#262=VECTOR('',#435,1.);
#263=VECTOR('',#438,1.);
#264=VECTOR('',#443,1.);
#265=VECTOR('',#446,1.);
#266=VECTOR('',#453,1.);
#267=VECTOR('',#456,1.);
#268=VECTOR('',#475,1.);
#269=VECTOR('',#478,1.);
#270=VECTOR('',#507,1.);
#271=VECTOR('',#508,1.);
#272=VECTOR('',#511,1.);
#273=VECTOR('',#512,1.);
#274=VECTOR('',#515,1.);
#275=VECTOR('',#516,1.);
#276=EDGE_LOOP('',(#55,#56,#57,#58));
#277=EDGE_LOOP('',(#59,#60,#61,#62));
#278=EDGE_LOOP('',(#63,#64,#65,#66));
#279=EDGE_LOOP('',(#67,#68,#69,#70));
#280=EDGE_LOOP('',(#71,#72,#73,#74));
#281=EDGE_LOOP('',(#75));
#282=EDGE_LOOP('',(#76,#77,#78,#79,#80,#81));
#283=EDGE_LOOP('',(#82,#83,#84,#85,#86,#87,#88,#89,#90,#91));
#284=EDGE_LOOP('',(#92,#93,#94,#95,#96,#97));
#285=EDGE_LOOP('',(#98,#99,#100,#101,#102,#103,#104,#105,#106,#107));
#286=EDGE_LOOP('',(#108,#109,#110,#111));
#287=EDGE_LOOP('',(#112,#113,#114,#115));
#288=EDGE_LOOP('',(#116,#117,#118,#119));
#289=EDGE_LOOP('',(#120,#121,#122,#123));
#290=EDGE_LOOP('',(#124,#125,#126,#127));
#291=EDGE_LOOP('',(#128,#129,#130,#131));
#292=EDGE_LOOP('',(#132,#133,#134,#135));
#293=EDGE_LOOP('',(#136,#137,#138,#139));
#294=EDGE_LOOP('',(#140,#141,#142,#143));
#295=EDGE_LOOP('',(#144,#145,#146,#147));
#296=EDGE_LOOP('',(#148,#149,#150,#151));
#297=EDGE_LOOP('',(#152));
#298=FACE_BOUND('',#276,.T.);
#299=FACE_BOUND('',#277,.T.);
#300=FACE_BOUND('',#278,.T.);
#301=FACE_BOUND('',#279,.T.);
#302=FACE_BOUND('',#280,.T.);
#303=FACE_BOUND('',#281,.T.);
#304=FACE_BOUND('',#282,.T.);
#305=FACE_BOUND('',#283,.T.);
#306=FACE_BOUND('',#284,.T.);
#307=FACE_BOUND('',#285,.T.);
#308=FACE_BOUND('',#286,.T.);
#309=FACE_BOUND('',#287,.T.);
#310=FACE_BOUND('',#288,.T.);
#311=FACE_BOUND('',#289,.T.);
#312=FACE_BOUND('',#290,.T.);
#313=FACE_BOUND('',#291,.T.);
#314=FACE_BOUND('',#292,.T.);
#315=FACE_BOUND('',#293,.T.);
#316=FACE_BOUND('',#294,.T.);
#317=FACE_BOUND('',#295,.T.);
#318=FACE_BOUND('',#296,.T.);
#319=FACE_BOUND('',#297,.T.);
#320=FACE_BOUND('',#20,.T.);
#321=CYLINDRICAL_SURFACE('',#359,0.0022);
#322=CYLINDRICAL_SURFACE('',#362,0.0022);
#323=CYLINDRICAL_SURFACE('',#365,0.0022);
#324=CYLINDRICAL_SURFACE('',#368,0.0022);
#325=CYLINDRICAL_SURFACE('',#371,0.0022);
#326=CYLINDRICAL_SURFACE('',#395,0.005);
#327=CYLINDRICAL_SURFACE('',#396,0.005);
#328=CYLINDRICAL_SURFACE('',#397,0.005);
#329=CYLINDRICAL_SURFACE('',#398,0.005);
#330=CYLINDRICAL_SURFACE('',#399,0.005);
#331=CYLINDRICAL_SURFACE('',#400,0.00115);
#332=CYLINDRICAL_SURFACE('',#403,0.0002);
#333=CYLINDRICAL_SURFACE('',#404,0.0001);
#334=CYLINDRICAL_SURFACE('',#405,0.0001);
#335=ADVANCED_FACE('',(#298),#321,.T.);
#336=ADVANCED_FACE('',(#299),#322,.T.);
#337=ADVANCED_FACE('',(#300),#323,.T.);
#338=ADVANCED_FACE('',(#301),#324,.T.);
#339=ADVANCED_FACE('',(#302),#325,.T.);
#340=ADVANCED_FACE('',(#303,#304,#305),#22,.T.);
#341=ADVANCED_FACE('',(#306,#307),#23,.F.);
#342=ADVANCED_FACE('',(#308),#326,.F.);
#343=ADVANCED_FACE('',(#309),#327,.F.);
#344=ADVANCED_FACE('',(#310),#328,.F.);
#345=ADVANCED_FACE('',(#311),#329,.F.);
#346=ADVANCED_FACE('',(#312),#330,.F.);
#347=ADVANCED_FACE('',(#313),#331,.F.);
#348=ADVANCED_FACE('',(#314),#24,.F.);
#349=ADVANCED_FACE('',(#315),#25,.F.);
#350=ADVANCED_FACE('',(#316),#332,.T.);
#351=ADVANCED_FACE('',(#317),#333,.F.);
#352=ADVANCED_FACE('',(#318),#334,.F.);
#353=ADVANCED_FACE('',(#319,#320),#21,.F.);
#354=CLOSED_SHELL('',(#335,#336,#337,#338,#339,#340,#341,#342,#343,#344,
#345,#346,#347,#348,#349,#350,#351,#352,#353));
#355=MANIFOLD_SOLID_BREP('',#354);
#356=SHAPE_DEFINITION_REPRESENTATION(#633,#357);
#357=SHAPE_REPRESENTATION('id2',(#358),#628);
#358=AXIS2_PLACEMENT_3D('',#525,#407,#408);
#359=AXIS2_PLACEMENT_3D('',#526,#409,#410);
#360=AXIS2_PLACEMENT_3D('',#530,#412,#413);
#361=AXIS2_PLACEMENT_3D('',#534,#415,#416);
#362=AXIS2_PLACEMENT_3D('',#535,#417,#418);
#363=AXIS2_PLACEMENT_3D('',#539,#420,#421);
#364=AXIS2_PLACEMENT_3D('',#543,#423,#424);
#365=AXIS2_PLACEMENT_3D('',#544,#425,#426);
#366=AXIS2_PLACEMENT_3D('',#548,#428,#429);
#367=AXIS2_PLACEMENT_3D('',#552,#431,#432);
#368=AXIS2_PLACEMENT_3D('',#553,#433,#434);
#369=AXIS2_PLACEMENT_3D('',#557,#436,#437);
#370=AXIS2_PLACEMENT_3D('',#561,#439,#440);
#371=AXIS2_PLACEMENT_3D('',#562,#441,#442);
#372=AXIS2_PLACEMENT_3D('',#566,#444,#445);
#373=AXIS2_PLACEMENT_3D('',#570,#447,#448);
#374=AXIS2_PLACEMENT_3D('',#571,#449,#450);
#375=AXIS2_PLACEMENT_3D('',#572,#451,#452);
#376=AXIS2_PLACEMENT_3D('',#577,#454,#455);
#377=AXIS2_PLACEMENT_3D('',#581,#457,#458);
#378=AXIS2_PLACEMENT_3D('',#583,#459,#460);
#379=AXIS2_PLACEMENT_3D('',#585,#461,#462);
#380=AXIS2_PLACEMENT_3D('',#586,#463,#464);
#381=AXIS2_PLACEMENT_3D('',#587,#465,#466);
#382=AXIS2_PLACEMENT_3D('',#588,#467,#468);
#383=AXIS2_PLACEMENT_3D('',#589,#469,#470);
#384=AXIS2_PLACEMENT_3D('',#590,#471,#472);
#385=AXIS2_PLACEMENT_3D('',#591,#473,#474);
#386=AXIS2_PLACEMENT_3D('',#595,#476,#477);
#387=AXIS2_PLACEMENT_3D('',#599,#479,#480);
#388=AXIS2_PLACEMENT_3D('',#601,#481,#482);
#389=AXIS2_PLACEMENT_3D('',#603,#483,#484);
#390=AXIS2_PLACEMENT_3D('',#604,#485,#486);
#391=AXIS2_PLACEMENT_3D('',#605,#487,#488);
#392=AXIS2_PLACEMENT_3D('',#606,#489,#490);
#393=AXIS2_PLACEMENT_3D('',#607,#491,#492);
#394=AXIS2_PLACEMENT_3D('',#608,#493,#494);
#395=AXIS2_PLACEMENT_3D('',#609,#495,#496);
#396=AXIS2_PLACEMENT_3D('',#610,#497,#498);
#397=AXIS2_PLACEMENT_3D('',#611,#499,#500);
#398=AXIS2_PLACEMENT_3D('',#612,#501,#502);
#399=AXIS2_PLACEMENT_3D('',#613,#503,#504);
#400=AXIS2_PLACEMENT_3D('',#614,#505,#506);
#401=AXIS2_PLACEMENT_3D('',#617,#509,#510);
#402=AXIS2_PLACEMENT_3D('',#620,#513,#514);
#403=AXIS2_PLACEMENT_3D('',#623,#517,#518);
#404=AXIS2_PLACEMENT_3D('',#624,#519,#520);
#405=AXIS2_PLACEMENT_3D('',#625,#521,#522);
#406=AXIS2_PLACEMENT_3D('',#626,#523,#524);
#407=DIRECTION('',(0.,0.,1.));
#408=DIRECTION('',(1.,0.,0.));
#409=DIRECTION('',(0.,-1.,0.));
#410=DIRECTION('',(0.,0.,-1.));
#411=DIRECTION('',(0.,1.,0.));
#412=DIRECTION('',(0.,1.,0.));
#413=DIRECTION('',(0.,0.,1.));
#414=DIRECTION('',(0.,1.,0.));
#415=DIRECTION('',(0.,1.,0.));
#416=DIRECTION('',(0.,0.,1.));
#417=DIRECTION('',(0.,-1.,0.));
#418=DIRECTION('',(0.,0.,-1.));
#419=DIRECTION('',(0.,1.,0.));
#420=DIRECTION('',(0.,1.,0.));
#421=DIRECTION('',(0.,0.,1.));
#422=DIRECTION('',(0.,1.,0.));
#423=DIRECTION('',(0.,1.,0.));
#424=DIRECTION('',(0.,0.,1.));
#425=DIRECTION('',(0.,-1.,0.));
#426=DIRECTION('',(0.,0.,-1.));
#427=DIRECTION('',(0.,1.,0.));
#428=DIRECTION('',(0.,1.,0.));
#429=DIRECTION('',(0.,0.,1.));
#430=DIRECTION('',(0.,1.,0.));
#431=DIRECTION('',(0.,1.,0.));
#432=DIRECTION('',(0.,0.,1.));
#433=DIRECTION('',(0.,-1.,0.));
#434=DIRECTION('',(0.,0.,-1.));
#435=DIRECTION('',(0.,1.,0.));
#436=DIRECTION('',(0.,1.,0.));
#437=DIRECTION('',(0.,0.,1.));
#438=DIRECTION('',(0.,1.,0.));
#439=DIRECTION('',(0.,1.,0.));
#440=DIRECTION('',(0.,0.,1.));
#441=DIRECTION('',(0.,-1.,0.));
#442=DIRECTION('',(0.,0.,-1.));
#443=DIRECTION('',(0.,1.,0.));
#444=DIRECTION('',(0.,1.,0.));
#445=DIRECTION('',(0.,0.,1.));
#446=DIRECTION('',(0.,1.,0.));
#447=DIRECTION('',(0.,1.,0.));
#448=DIRECTION('',(0.,0.,1.));
#449=DIRECTION('',(0.,1.,0.));
#450=DIRECTION('',(0.,0.,1.));
#451=DIRECTION('',(0.,1.,0.));
#452=DIRECTION('',(0.,0.,1.));
#453=DIRECTION('',(-0.707106781186548,0.,0.707106781186547));
#454=DIRECTION('',(0.,1.,0.));
#455=DIRECTION('',(0.,0.,1.));
#456=DIRECTION('',(0.707106781186548,0.,0.707106781186547));
#457=DIRECTION('',(0.,1.,0.));
#458=DIRECTION('',(0.,0.,1.));
#459=DIRECTION('',(0.,1.,0.));
#460=DIRECTION('',(0.,0.,1.));
#461=DIRECTION('',(0.,1.,0.));
#462=DIRECTION('',(0.,0.,1.));
#463=DIRECTION('',(0.,-1.,0.));
#464=DIRECTION('',(0.,0.,1.));
#465=DIRECTION('',(0.,-1.,0.));
#466=DIRECTION('',(0.,0.,1.));
#467=DIRECTION('',(0.,-1.,0.));
#468=DIRECTION('',(0.,0.,1.));
#469=DIRECTION('',(0.,-1.,0.));
#470=DIRECTION('',(0.,0.,1.));
#471=DIRECTION('',(0.,-1.,0.));
#472=DIRECTION('',(0.,0.,1.));
#473=DIRECTION('',(0.,1.,0.));
#474=DIRECTION('',(0.,0.,1.));
#475=DIRECTION('',(-0.707106781186548,0.,-0.707106781186547));
#476=DIRECTION('',(0.,1.,0.));
#477=DIRECTION('',(0.,0.,1.));
#478=DIRECTION('',(0.707106781186548,0.,-0.707106781186547));
#479=DIRECTION('',(0.,1.,0.));
#480=DIRECTION('',(0.,0.,1.));
#481=DIRECTION('',(0.,1.,0.));
#482=DIRECTION('',(0.,0.,1.));
#483=DIRECTION('',(0.,1.,0.));
#484=DIRECTION('',(0.,0.,1.));
#485=DIRECTION('',(0.,-1.,0.));
#486=DIRECTION('',(0.,0.,1.));
#487=DIRECTION('',(0.,-1.,0.));
#488=DIRECTION('',(0.,0.,1.));
#489=DIRECTION('',(0.,-1.,0.));
#490=DIRECTION('',(0.,0.,1.));
#491=DIRECTION('',(0.,-1.,0.));
#492=DIRECTION('',(0.,0.,1.));
#493=DIRECTION('',(0.,-1.,0.));
#494=DIRECTION('',(0.,0.,1.));
#495=DIRECTION('',(0.,1.,0.));
#496=DIRECTION('',(0.,0.,1.));
#497=DIRECTION('',(0.,1.,0.));
#498=DIRECTION('',(0.,0.,1.));
#499=DIRECTION('',(0.,1.,0.));
#500=DIRECTION('',(0.,0.,1.));
#501=DIRECTION('',(0.,1.,0.));
#502=DIRECTION('',(0.,0.,1.));
#503=DIRECTION('',(0.,1.,0.));
#504=DIRECTION('',(0.,0.,1.));
#505=DIRECTION('',(0.,1.,0.));
#506=DIRECTION('',(0.,0.,1.));
#507=DIRECTION('',(0.,1.,0.));
#508=DIRECTION('',(0.,1.,0.));
#509=DIRECTION('',(-0.707106781186547,0.,-0.707106781186548));
#510=DIRECTION('',(-0.707106781186548,0.,0.707106781186547));
#511=DIRECTION('',(0.,-1.,0.));
#512=DIRECTION('',(0.,1.,0.));
#513=DIRECTION('',(-0.707106781186547,0.,0.707106781186548));
#514=DIRECTION('',(0.707106781186548,0.,0.707106781186547));
#515=DIRECTION('',(0.,-1.,0.));
#516=DIRECTION('',(0.,1.,0.));
#517=DIRECTION('',(0.,1.,0.));
#518=DIRECTION('',(0.,0.,1.));
#519=DIRECTION('',(0.,1.,0.));
#520=DIRECTION('',(0.,0.,1.));
#521=DIRECTION('',(0.,1.,0.));
#522=DIRECTION('',(0.,0.,1.));
#523=DIRECTION('',(0.,1.,0.));
#524=DIRECTION('',(0.,0.,1.));
#525=CARTESIAN_POINT('',(0.,0.,0.));
#526=CARTESIAN_POINT('',(0.,0.0005,0.));
#527=CARTESIAN_POINT('',(0.000750757798918163,0.,0.0020679368286685));
#528=CARTESIAN_POINT('',(0.000750757798918164,0.,0.00206793682866851));
#529=CARTESIAN_POINT('',(0.000750757798918163,0.0005,0.0020679368286685));
#530=CARTESIAN_POINT('',(0.,0.0005,0.));
#531=CARTESIAN_POINT('',(0.000608126952579492,0.0005,0.00211428039993431));
#532=CARTESIAN_POINT('',(0.000608126952579492,0.,0.00211428039993431));
#533=CARTESIAN_POINT('',(0.000608126952579492,0.,0.00211428039993431));
#534=CARTESIAN_POINT('',(0.,0.,0.));
#535=CARTESIAN_POINT('',(0.,0.0005,0.));
#536=CARTESIAN_POINT('',(0.00219872171471716,0.,7.49854734681207E-5));
#537=CARTESIAN_POINT('',(0.00219872171471716,0.,7.49854734681207E-5));
#538=CARTESIAN_POINT('',(0.00219872171471716,0.0005,7.49854734681207E-5));
#539=CARTESIAN_POINT('',(0.,0.,0.));
#540=CARTESIAN_POINT('',(0.00219872171471716,0.,-7.4985473468122E-5));
#541=CARTESIAN_POINT('',(0.00219872171471716,0.,-7.49854734681233E-5));
#542=CARTESIAN_POINT('',(0.00219872171471716,0.0005,-7.49854734681233E-5));
#543=CARTESIAN_POINT('',(0.,0.0005,0.));
#544=CARTESIAN_POINT('',(0.,0.0005,0.));
#545=CARTESIAN_POINT('',(-0.00173472787766668,0.,0.00135304072017293));
#546=CARTESIAN_POINT('',(-0.00173472787766668,0.,0.00135304072017293));
#547=CARTESIAN_POINT('',(-0.00173472787766668,0.0005,0.00135304072017293));
#548=CARTESIAN_POINT('',(0.,0.0005,0.));
#549=CARTESIAN_POINT('',(-0.00182287858854814,0.0005,0.001231711675439));
#550=CARTESIAN_POINT('',(-0.00182287858854814,0.,0.001231711675439));
#551=CARTESIAN_POINT('',(-0.00182287858854814,0.,0.001231711675439));
#552=CARTESIAN_POINT('',(0.,0.,0.));
#553=CARTESIAN_POINT('',(0.,0.0005,0.));
#554=CARTESIAN_POINT('',(-0.00182287858854814,0.,-0.001231711675439));
#555=CARTESIAN_POINT('',(-0.00182287858854814,0.,-0.001231711675439));
#556=CARTESIAN_POINT('',(-0.00182287858854814,0.0005,-0.001231711675439));
#557=CARTESIAN_POINT('',(0.,0.0005,0.));
#558=CARTESIAN_POINT('',(-0.00173472787766668,0.0005,-0.00135304072017293));
#559=CARTESIAN_POINT('',(-0.00173472787766668,0.,-0.00135304072017293));
#560=CARTESIAN_POINT('',(-0.00173472787766668,0.,-0.00135304072017293));
#561=CARTESIAN_POINT('',(0.,0.,0.));
#562=CARTESIAN_POINT('',(0.,0.0005,0.));
#563=CARTESIAN_POINT('',(0.000608126952579491,0.,-0.00211428039993431));
#564=CARTESIAN_POINT('',(0.000608126952579491,0.,-0.00211428039993431));
#565=CARTESIAN_POINT('',(0.000608126952579491,0.0005,-0.00211428039993431));
#566=CARTESIAN_POINT('',(0.,0.0005,0.));
#567=CARTESIAN_POINT('',(0.000750757798918162,0.0005,-0.00206793682866851));
#568=CARTESIAN_POINT('',(0.000750757798918162,0.,-0.00206793682866851));
#569=CARTESIAN_POINT('',(0.000750757798918162,0.,-0.00206793682866851));
#570=CARTESIAN_POINT('',(0.,0.,0.));
#571=CARTESIAN_POINT('',(0.,0.0005,0.));
#572=CARTESIAN_POINT('',(0.0016,0.0005,0.));
#573=CARTESIAN_POINT('',(0.0016,0.0005,0.00025));
#574=CARTESIAN_POINT('',(-0.000612,0.0005,7.52142688674557E-20));
#575=CARTESIAN_POINT('',(-0.00075342135623731,0.0005,0.00014142135623731));
#576=CARTESIAN_POINT('',(-0.00101019381920649,0.0005,0.000398193819206485));
#577=CARTESIAN_POINT('',(-0.000894842712474619,0.0005,1.0842021724855E-19));
#578=CARTESIAN_POINT('',(-0.00075342135623731,0.0005,-0.00014142135623731));
#579=CARTESIAN_POINT('',(-0.00105940161932398,0.0005,-0.000447401619323982));
#580=CARTESIAN_POINT('',(-0.00101019381920649,0.0005,-0.000398193819206485));
#581=CARTESIAN_POINT('',(-0.000939483141087831,0.0005,-0.00046890449732514));
#582=CARTESIAN_POINT('',(-0.00102895772595334,0.0005,-0.000513562068498963));
#583=CARTESIAN_POINT('',(-3.04673756968415E-20,0.0005,2.65884759637652E-22));
#584=CARTESIAN_POINT('',(-0.00102895772595334,0.0005,0.000513562068498963));
#585=CARTESIAN_POINT('',(-0.000939483141087831,0.0005,0.00046890449732514));
#586=CARTESIAN_POINT('',(0.00539516685773895,0.0005,0.00391981816783239));
#587=CARTESIAN_POINT('',(0.00539516685773895,0.0005,-0.00391981816783239));
#588=CARTESIAN_POINT('',(-0.00206077036467931,0.0005,-0.00634239902527215));
#589=CARTESIAN_POINT('',(-0.00666879298611928,0.0005,-1.04068992210865E-20));
#590=CARTESIAN_POINT('',(-0.00206077036467931,0.0005,0.00634239902527215));
#591=CARTESIAN_POINT('',(0.,0.,0.));
#592=CARTESIAN_POINT('',(-0.00105940161932398,0.,-0.000447401619323982));
#593=CARTESIAN_POINT('',(-0.00075342135623731,0.,-0.00014142135623731));
#594=CARTESIAN_POINT('',(-0.00101019381920649,0.,-0.000398193819206485));
#595=CARTESIAN_POINT('',(-0.000894842712474619,0.,1.0842021724855E-19));
#596=CARTESIAN_POINT('',(-0.00075342135623731,0.,0.00014142135623731));
#597=CARTESIAN_POINT('',(-0.000612,0.,7.52142688674557E-20));
#598=CARTESIAN_POINT('',(-0.00101019381920649,0.,0.000398193819206485));
#599=CARTESIAN_POINT('',(-0.000939483141087831,0.,0.00046890449732514));
#600=CARTESIAN_POINT('',(-0.00102895772595334,0.,0.000513562068498963));
#601=CARTESIAN_POINT('',(-3.04673756968415E-20,0.,2.65884759637652E-22));
#602=CARTESIAN_POINT('',(-0.00102895772595334,0.,-0.000513562068498963));
#603=CARTESIAN_POINT('',(-0.000939483141087831,0.,-0.00046890449732514));
#604=CARTESIAN_POINT('',(0.00539516685773895,0.,0.00391981816783239));
#605=CARTESIAN_POINT('',(-0.00206077036467931,0.,0.00634239902527215));
#606=CARTESIAN_POINT('',(-0.00666879298611928,0.,-1.04068992210865E-20));
#607=CARTESIAN_POINT('',(-0.00206077036467931,0.,-0.00634239902527215));
#608=CARTESIAN_POINT('',(0.00539516685773895,0.,-0.00391981816783239));
#609=CARTESIAN_POINT('',(0.00539516685773895,0.,-0.00391981816783239));
#610=CARTESIAN_POINT('',(-0.00206077036467931,0.,-0.00634239902527215));
#611=CARTESIAN_POINT('',(-0.00666879298611928,0.,-1.04068992210865E-20));
#612=CARTESIAN_POINT('',(-0.00206077036467931,0.,0.00634239902527215));
#613=CARTESIAN_POINT('',(0.00539516685773895,0.,0.00391981816783239));
#614=CARTESIAN_POINT('',(-3.04673756968415E-20,-1.00000000000002E-6,2.65884759637652E-22));
#615=CARTESIAN_POINT('',(-0.00102895772595334,-1.00000000000002E-6,0.000513562068498963));
#616=CARTESIAN_POINT('',(-0.00102895772595334,-1.00000000000002E-6,-0.000513562068498963));
#617=CARTESIAN_POINT('',(-0.000612,-1.00000000000002E-6,7.52142688674557E-20));
#618=CARTESIAN_POINT('',(-0.00101019381920649,0.,0.000398193819206485));
#619=CARTESIAN_POINT('',(-0.00075342135623731,-1.00000000000002E-6,0.00014142135623731));
#620=CARTESIAN_POINT('',(-0.00105940161932398,-1.00000000000002E-6,-0.000447401619323982));
#621=CARTESIAN_POINT('',(-0.00101019381920649,0.0005,-0.000398193819206485));
#622=CARTESIAN_POINT('',(-0.00075342135623731,-1.00000000000002E-6,-0.00014142135623731));
#623=CARTESIAN_POINT('',(-0.000894842712474619,-1.00000000000002E-6,1.0842021724855E-19));
#624=CARTESIAN_POINT('',(-0.000939483141087831,-1.00000000000002E-6,0.00046890449732514));
#625=CARTESIAN_POINT('',(-0.000939483141087831,-1.00000000000002E-6,-0.00046890449732514));
#626=CARTESIAN_POINT('',(0.0016,0.000355662432702592,0.));
#627=CARTESIAN_POINT('',(0.0016,0.000355662432702592,0.));
#628=(
GEOMETRIC_REPRESENTATION_CONTEXT(3)
GLOBAL_UNCERTAINTY_ASSIGNED_CONTEXT((#629))
GLOBAL_UNIT_ASSIGNED_CONTEXT((#632,#631,#630))
REPRESENTATION_CONTEXT('id2','TOP_LEVEL_ASSEMBLY_PART')
);
#629=UNCERTAINTY_MEASURE_WITH_UNIT(LENGTH_MEASURE(1.E-8),#632,
'DISTANCE_ACCURACY_VALUE','Maximum Tolerance applied to model');
#630=(
NAMED_UNIT(*)
SI_UNIT($,.STERADIAN.)
SOLID_ANGLE_UNIT()
);
#631=(
NAMED_UNIT(*)
PLANE_ANGLE_UNIT()
SI_UNIT($,.RADIAN.)
);
#632=(
LENGTH_UNIT()
NAMED_UNIT(*)
SI_UNIT($,.METRE.)
);
#633=PRODUCT_DEFINITION_SHAPE('','',#634);
#634=PRODUCT_DEFINITION('','',#636,#635);
#635=DESIGN_CONTEXT('',#642,'design');
#636=PRODUCT_DEFINITION_FORMATION_WITH_SPECIFIED_SOURCE('','',#638,
 .NOT_KNOWN.);
#637=PRODUCT_RELATED_PRODUCT_CATEGORY('','',(#638));
#638=PRODUCT('id2','id2','id2',(#640));
#639=PRODUCT_CATEGORY('','');
#640=MECHANICAL_CONTEXT('',#642,'mechanical');
#641=APPLICATION_PROTOCOL_DEFINITION('international standard',
'config_control_design',2010,#642);
#642=APPLICATION_CONTEXT(
'configuration controlled 3D designs of mechanical parts and assemblie
s');
ENDSEC;
END-ISO-10303-21;
