ISO-10303-21;
HEADER;
/* Generated by software containing ST-Developer
 * from STEP Tools, Inc. (www.steptools.com) 
 */
/* OPTION: using custom renumber hook */

FILE_DESCRIPTION(
/* description */ ('STEP AP203'),
/* implementation_level */ '2;1');

FILE_NAME(
/* name */ '6a5463a53a50d7d3af543c1d',
/* time_stamp */ '2026-07-13T04:03:49Z',
/* author */ (''),
/* organization */ (''),
/* preprocessor_version */ 'ST-DEVELOPER v20',
/* originating_system */ 'ONSHAPE BY PTC INC, 1.217',
/* authorisation */ '  ');

FILE_SCHEMA (('CONFIG_CONTROL_DESIGN'));
ENDSEC;

DATA;
#10=PROPERTY_DEFINITION_REPRESENTATION(#14,#12);
#11=PROPERTY_DEFINITION_REPRESENTATION(#15,#13);
#12=REPRESENTATION('',(#16),#554);
#13=REPRESENTATION('',(#17),#554);
#14=PROPERTY_DEFINITION('pmi validation property','',#559);
#15=PROPERTY_DEFINITION('pmi validation property','',#559);
#16=VALUE_REPRESENTATION_ITEM('number of annotations',COUNT_MEASURE(0.));
#17=VALUE_REPRESENTATION_ITEM('number of views',COUNT_MEASURE(0.));
#18=SHAPE_REPRESENTATION_RELATIONSHIP('','',#311,#19);
#19=ADVANCED_BREP_SHAPE_REPRESENTATION('',(#309),#554);
#20=CONICAL_SURFACE('',#336,0.0014,0.785398163397452);
#21=CONICAL_SURFACE('',#338,0.0015,0.78539816339745);
#22=CONICAL_SURFACE('',#339,0.0014,0.785398163397452);
#23=CONICAL_SURFACE('',#341,0.0015,0.78539816339745);
#24=CONICAL_SURFACE('',#342,0.0014,0.785398163397452);
#25=CONICAL_SURFACE('',#344,0.0015,0.78539816339745);
#26=CONICAL_SURFACE('',#345,0.0014,0.785398163397452);
#27=CONICAL_SURFACE('',#347,0.0015,0.78539816339745);
#28=CONICAL_SURFACE('',#362,0.0005,0.78539816339745);
#29=CONICAL_SURFACE('',#363,0.0005,0.785398163397442);
#30=CONICAL_SURFACE('',#364,0.0015,0.785398163397402);
#31=CONICAL_SURFACE('',#365,0.00145,0.785398163397474);
#32=PLANE('',#328);
#33=PLANE('',#330);
#34=PLANE('',#334);
#35=PLANE('',#349);
#36=PLANE('',#354);
#37=PLANE('',#358);
#38=ORIENTED_EDGE('',*,*,#90,.T.);
#39=ORIENTED_EDGE('',*,*,#91,.F.);
#40=ORIENTED_EDGE('',*,*,#92,.T.);
#41=ORIENTED_EDGE('',*,*,#93,.F.);
#42=ORIENTED_EDGE('',*,*,#94,.T.);
#43=ORIENTED_EDGE('',*,*,#95,.F.);
#44=ORIENTED_EDGE('',*,*,#96,.T.);
#45=ORIENTED_EDGE('',*,*,#97,.T.);
#46=ORIENTED_EDGE('',*,*,#98,.T.);
#47=ORIENTED_EDGE('',*,*,#99,.T.);
#48=ORIENTED_EDGE('',*,*,#100,.T.);
#49=ORIENTED_EDGE('',*,*,#98,.F.);
#50=ORIENTED_EDGE('',*,*,#99,.F.);
#51=ORIENTED_EDGE('',*,*,#101,.F.);
#52=ORIENTED_EDGE('',*,*,#102,.T.);
#53=ORIENTED_EDGE('',*,*,#101,.T.);
#54=ORIENTED_EDGE('',*,*,#103,.T.);
#55=ORIENTED_EDGE('',*,*,#97,.F.);
#56=ORIENTED_EDGE('',*,*,#104,.T.);
#57=ORIENTED_EDGE('',*,*,#104,.F.);
#58=ORIENTED_EDGE('',*,*,#95,.T.);
#59=ORIENTED_EDGE('',*,*,#94,.F.);
#60=ORIENTED_EDGE('',*,*,#105,.T.);
#61=ORIENTED_EDGE('',*,*,#105,.F.);
#62=ORIENTED_EDGE('',*,*,#93,.T.);
#63=ORIENTED_EDGE('',*,*,#92,.F.);
#64=ORIENTED_EDGE('',*,*,#106,.T.);
#65=ORIENTED_EDGE('',*,*,#106,.F.);
#66=ORIENTED_EDGE('',*,*,#91,.T.);
#67=ORIENTED_EDGE('',*,*,#90,.F.);
#68=ORIENTED_EDGE('',*,*,#107,.T.);
#69=ORIENTED_EDGE('',*,*,#107,.F.);
#70=ORIENTED_EDGE('',*,*,#108,.T.);
#71=ORIENTED_EDGE('',*,*,#109,.T.);
#72=ORIENTED_EDGE('',*,*,#110,.T.);
#73=ORIENTED_EDGE('',*,*,#111,.T.);
#74=ORIENTED_EDGE('',*,*,#112,.T.);
#75=ORIENTED_EDGE('',*,*,#111,.F.);
#76=ORIENTED_EDGE('',*,*,#112,.F.);
#77=ORIENTED_EDGE('',*,*,#113,.T.);
#78=ORIENTED_EDGE('',*,*,#114,.T.);
#79=ORIENTED_EDGE('',*,*,#113,.F.);
#80=ORIENTED_EDGE('',*,*,#115,.T.);
#81=ORIENTED_EDGE('',*,*,#108,.F.);
#82=ORIENTED_EDGE('',*,*,#102,.F.);
#83=ORIENTED_EDGE('',*,*,#103,.F.);
#84=ORIENTED_EDGE('',*,*,#110,.F.);
#85=ORIENTED_EDGE('',*,*,#109,.F.);
#86=ORIENTED_EDGE('',*,*,#114,.F.);
#87=ORIENTED_EDGE('',*,*,#115,.F.);
#88=ORIENTED_EDGE('',*,*,#96,.F.);
#89=ORIENTED_EDGE('',*,*,#100,.F.);
#90=EDGE_CURVE('',#116,#116,#142,.T.);
#91=EDGE_CURVE('',#117,#117,#143,.T.);
#92=EDGE_CURVE('',#118,#118,#144,.T.);
#93=EDGE_CURVE('',#119,#119,#145,.T.);
#94=EDGE_CURVE('',#120,#120,#146,.T.);
#95=EDGE_CURVE('',#121,#121,#147,.T.);
#96=EDGE_CURVE('',#122,#122,#148,.F.);
#97=EDGE_CURVE('',#123,#123,#149,.T.);
#98=EDGE_CURVE('',#124,#124,#150,.T.);
#99=EDGE_CURVE('',#125,#125,#151,.F.);
#100=EDGE_CURVE('',#126,#126,#152,.T.);
#101=EDGE_CURVE('',#127,#127,#153,.T.);
#102=EDGE_CURVE('',#128,#128,#154,.F.);
#103=EDGE_CURVE('',#129,#129,#155,.T.);
#104=EDGE_CURVE('',#130,#130,#156,.T.);
#105=EDGE_CURVE('',#131,#131,#157,.T.);
#106=EDGE_CURVE('',#132,#132,#158,.T.);
#107=EDGE_CURVE('',#133,#133,#159,.T.);
#108=EDGE_CURVE('',#134,#134,#160,.T.);
#109=EDGE_CURVE('',#135,#135,#161,.F.);
#110=EDGE_CURVE('',#136,#136,#162,.T.);
#111=EDGE_CURVE('',#137,#137,#163,.F.);
#112=EDGE_CURVE('',#138,#138,#164,.F.);
#113=EDGE_CURVE('',#139,#139,#165,.F.);
#114=EDGE_CURVE('',#140,#140,#166,.F.);
#115=EDGE_CURVE('',#141,#141,#167,.T.);
#116=VERTEX_POINT('',#477);
#117=VERTEX_POINT('',#479);
#118=VERTEX_POINT('',#482);
#119=VERTEX_POINT('',#484);
#120=VERTEX_POINT('',#487);
#121=VERTEX_POINT('',#489);
#122=VERTEX_POINT('',#492);
#123=VERTEX_POINT('',#494);
#124=VERTEX_POINT('',#497);
#125=VERTEX_POINT('',#499);
#126=VERTEX_POINT('',#502);
#127=VERTEX_POINT('',#505);
#128=VERTEX_POINT('',#508);
#129=VERTEX_POINT('',#511);
#130=VERTEX_POINT('',#514);
#131=VERTEX_POINT('',#518);
#132=VERTEX_POINT('',#522);
#133=VERTEX_POINT('',#526);
#134=VERTEX_POINT('',#529);
#135=VERTEX_POINT('',#532);
#136=VERTEX_POINT('',#535);
#137=VERTEX_POINT('',#537);
#138=VERTEX_POINT('',#540);
#139=VERTEX_POINT('',#543);
#140=VERTEX_POINT('',#546);
#141=VERTEX_POINT('',#549);
#142=CIRCLE('',#314,0.0015);
#143=CIRCLE('',#315,0.0015);
#144=CIRCLE('',#317,0.0015);
#145=CIRCLE('',#318,0.0015);
#146=CIRCLE('',#320,0.0015);
#147=CIRCLE('',#321,0.0015);
#148=CIRCLE('',#323,0.0015);
#149=CIRCLE('',#324,0.0015);
#150=CIRCLE('',#326,0.001);
#151=CIRCLE('',#327,0.001);
#152=CIRCLE('',#329,0.00145);
#153=CIRCLE('',#331,0.0007);
#154=CIRCLE('',#333,0.0007);
#155=CIRCLE('',#335,0.0005);
#156=CIRCLE('',#337,0.0014);
#157=CIRCLE('',#340,0.0014);
#158=CIRCLE('',#343,0.0014);
#159=CIRCLE('',#346,0.0014);
#160=CIRCLE('',#348,0.0015);
#161=CIRCLE('',#350,0.0005);
#162=CIRCLE('',#352,0.0007);
#163=CIRCLE('',#353,0.0007);
#164=CIRCLE('',#355,0.001);
#165=CIRCLE('',#357,0.001);
#166=CIRCLE('',#359,0.00145);
#167=CIRCLE('',#361,0.0015);
#168=EDGE_LOOP('',(#38));
#169=EDGE_LOOP('',(#39));
#170=EDGE_LOOP('',(#40));
#171=EDGE_LOOP('',(#41));
#172=EDGE_LOOP('',(#42));
#173=EDGE_LOOP('',(#43));
#174=EDGE_LOOP('',(#44));
#175=EDGE_LOOP('',(#45));
#176=EDGE_LOOP('',(#46));
#177=EDGE_LOOP('',(#47));
#178=EDGE_LOOP('',(#48));
#179=EDGE_LOOP('',(#49));
#180=EDGE_LOOP('',(#50));
#181=EDGE_LOOP('',(#51));
#182=EDGE_LOOP('',(#52));
#183=EDGE_LOOP('',(#53));
#184=EDGE_LOOP('',(#54));
#185=EDGE_LOOP('',(#55));
#186=EDGE_LOOP('',(#56));
#187=EDGE_LOOP('',(#57));
#188=EDGE_LOOP('',(#58));
#189=EDGE_LOOP('',(#59));
#190=EDGE_LOOP('',(#60));
#191=EDGE_LOOP('',(#61));
#192=EDGE_LOOP('',(#62));
#193=EDGE_LOOP('',(#63));
#194=EDGE_LOOP('',(#64));
#195=EDGE_LOOP('',(#65));
#196=EDGE_LOOP('',(#66));
#197=EDGE_LOOP('',(#67));
#198=EDGE_LOOP('',(#68));
#199=EDGE_LOOP('',(#69));
#200=EDGE_LOOP('',(#70));
#201=EDGE_LOOP('',(#71));
#202=EDGE_LOOP('',(#72));
#203=EDGE_LOOP('',(#73));
#204=EDGE_LOOP('',(#74));
#205=EDGE_LOOP('',(#75));
#206=EDGE_LOOP('',(#76));
#207=EDGE_LOOP('',(#77));
#208=EDGE_LOOP('',(#78));
#209=EDGE_LOOP('',(#79));
#210=EDGE_LOOP('',(#80));
#211=EDGE_LOOP('',(#81));
#212=EDGE_LOOP('',(#82));
#213=EDGE_LOOP('',(#83));
#214=EDGE_LOOP('',(#84));
#215=EDGE_LOOP('',(#85));
#216=EDGE_LOOP('',(#86));
#217=EDGE_LOOP('',(#87));
#218=EDGE_LOOP('',(#88));
#219=EDGE_LOOP('',(#89));
#220=FACE_BOUND('',#168,.T.);
#221=FACE_BOUND('',#169,.T.);
#222=FACE_BOUND('',#170,.T.);
#223=FACE_BOUND('',#171,.T.);
#224=FACE_BOUND('',#172,.T.);
#225=FACE_BOUND('',#173,.T.);
#226=FACE_BOUND('',#174,.T.);
#227=FACE_BOUND('',#175,.T.);
#228=FACE_BOUND('',#176,.T.);
#229=FACE_BOUND('',#177,.T.);
#230=FACE_BOUND('',#178,.T.);
#231=FACE_BOUND('',#179,.T.);
#232=FACE_BOUND('',#180,.T.);
#233=FACE_BOUND('',#181,.T.);
#234=FACE_BOUND('',#182,.T.);
#235=FACE_BOUND('',#183,.T.);
#236=FACE_BOUND('',#184,.T.);
#237=FACE_BOUND('',#185,.T.);
#238=FACE_BOUND('',#186,.T.);
#239=FACE_BOUND('',#187,.T.);
#240=FACE_BOUND('',#188,.T.);
#241=FACE_BOUND('',#189,.T.);
#242=FACE_BOUND('',#190,.T.);
#243=FACE_BOUND('',#191,.T.);
#244=FACE_BOUND('',#192,.T.);
#245=FACE_BOUND('',#193,.T.);
#246=FACE_BOUND('',#194,.T.);
#247=FACE_BOUND('',#195,.T.);
#248=FACE_BOUND('',#196,.T.);
#249=FACE_BOUND('',#197,.T.);
#250=FACE_BOUND('',#198,.T.);
#251=FACE_BOUND('',#199,.T.);
#252=FACE_BOUND('',#200,.T.);
#253=FACE_BOUND('',#201,.T.);
#254=FACE_BOUND('',#202,.T.);
#255=FACE_BOUND('',#203,.T.);
#256=FACE_BOUND('',#204,.T.);
#257=FACE_BOUND('',#205,.T.);
#258=FACE_BOUND('',#206,.T.);
#259=FACE_BOUND('',#207,.T.);
#260=FACE_BOUND('',#208,.T.);
#261=FACE_BOUND('',#209,.T.);
#262=FACE_BOUND('',#210,.T.);
#263=FACE_BOUND('',#211,.T.);
#264=FACE_BOUND('',#212,.T.);
#265=FACE_BOUND('',#213,.T.);
#266=FACE_BOUND('',#214,.T.);
#267=FACE_BOUND('',#215,.T.);
#268=FACE_BOUND('',#216,.T.);
#269=FACE_BOUND('',#217,.T.);
#270=FACE_BOUND('',#218,.T.);
#271=FACE_BOUND('',#219,.T.);
#272=CYLINDRICAL_SURFACE('',#313,0.0015);
#273=CYLINDRICAL_SURFACE('',#316,0.0015);
#274=CYLINDRICAL_SURFACE('',#319,0.0015);
#275=CYLINDRICAL_SURFACE('',#322,0.0015);
#276=CYLINDRICAL_SURFACE('',#325,0.001);
#277=CYLINDRICAL_SURFACE('',#332,0.0007);
#278=CYLINDRICAL_SURFACE('',#351,0.0007);
#279=CYLINDRICAL_SURFACE('',#356,0.001);
#280=CYLINDRICAL_SURFACE('',#360,0.0015);
#281=ADVANCED_FACE('',(#220,#221),#272,.T.);
#282=ADVANCED_FACE('',(#222,#223),#273,.T.);
#283=ADVANCED_FACE('',(#224,#225),#274,.T.);
#284=ADVANCED_FACE('',(#226,#227),#275,.T.);
#285=ADVANCED_FACE('',(#228,#229),#276,.T.);
#286=ADVANCED_FACE('',(#230,#231),#32,.T.);
#287=ADVANCED_FACE('',(#232,#233),#33,.T.);
#288=ADVANCED_FACE('',(#234,#235),#277,.T.);
#289=ADVANCED_FACE('',(#236),#34,.T.);
#290=ADVANCED_FACE('',(#237,#238),#20,.T.);
#291=ADVANCED_FACE('',(#239,#240),#21,.T.);
#292=ADVANCED_FACE('',(#241,#242),#22,.T.);
#293=ADVANCED_FACE('',(#243,#244),#23,.T.);
#294=ADVANCED_FACE('',(#245,#246),#24,.T.);
#295=ADVANCED_FACE('',(#247,#248),#25,.T.);
#296=ADVANCED_FACE('',(#249,#250),#26,.T.);
#297=ADVANCED_FACE('',(#251,#252),#27,.T.);
#298=ADVANCED_FACE('',(#253),#35,.F.);
#299=ADVANCED_FACE('',(#254,#255),#278,.T.);
#300=ADVANCED_FACE('',(#256,#257),#36,.F.);
#301=ADVANCED_FACE('',(#258,#259),#279,.T.);
#302=ADVANCED_FACE('',(#260,#261),#37,.F.);
#303=ADVANCED_FACE('',(#262,#263),#280,.T.);
#304=ADVANCED_FACE('',(#264,#265),#28,.T.);
#305=ADVANCED_FACE('',(#266,#267),#29,.T.);
#306=ADVANCED_FACE('',(#268,#269),#30,.T.);
#307=ADVANCED_FACE('',(#270,#271),#31,.T.);
#308=CLOSED_SHELL('',(#281,#282,#283,#284,#285,#286,#287,#288,#289,#290,
#291,#292,#293,#294,#295,#296,#297,#298,#299,#300,#301,#302,#303,#304,#305,
#306,#307));
#309=MANIFOLD_SOLID_BREP('',#308);
#310=SHAPE_DEFINITION_REPRESENTATION(#559,#311);
#311=SHAPE_REPRESENTATION('id2',(#312),#554);
#312=AXIS2_PLACEMENT_3D('',#474,#366,#367);
#313=AXIS2_PLACEMENT_3D('',#475,#368,#369);
#314=AXIS2_PLACEMENT_3D('',#476,#370,#371);
#315=AXIS2_PLACEMENT_3D('',#478,#372,#373);
#316=AXIS2_PLACEMENT_3D('',#480,#374,#375);
#317=AXIS2_PLACEMENT_3D('',#481,#376,#377);
#318=AXIS2_PLACEMENT_3D('',#483,#378,#379);
#319=AXIS2_PLACEMENT_3D('',#485,#380,#381);
#320=AXIS2_PLACEMENT_3D('',#486,#382,#383);
#321=AXIS2_PLACEMENT_3D('',#488,#384,#385);
#322=AXIS2_PLACEMENT_3D('',#490,#386,#387);
#323=AXIS2_PLACEMENT_3D('',#491,#388,#389);
#324=AXIS2_PLACEMENT_3D('',#493,#390,#391);
#325=AXIS2_PLACEMENT_3D('',#495,#392,#393);
#326=AXIS2_PLACEMENT_3D('',#496,#394,#395);
#327=AXIS2_PLACEMENT_3D('',#498,#396,#397);
#328=AXIS2_PLACEMENT_3D('',#500,#398,#399);
#329=AXIS2_PLACEMENT_3D('',#501,#400,#401);
#330=AXIS2_PLACEMENT_3D('',#503,#402,#403);
#331=AXIS2_PLACEMENT_3D('',#504,#404,#405);
#332=AXIS2_PLACEMENT_3D('',#506,#406,#407);
#333=AXIS2_PLACEMENT_3D('',#507,#408,#409);
#334=AXIS2_PLACEMENT_3D('',#509,#410,#411);
#335=AXIS2_PLACEMENT_3D('',#510,#412,#413);
#336=AXIS2_PLACEMENT_3D('',#512,#414,#415);
#337=AXIS2_PLACEMENT_3D('',#513,#416,#417);
#338=AXIS2_PLACEMENT_3D('',#515,#418,#419);
#339=AXIS2_PLACEMENT_3D('',#516,#420,#421);
#340=AXIS2_PLACEMENT_3D('',#517,#422,#423);
#341=AXIS2_PLACEMENT_3D('',#519,#424,#425);
#342=AXIS2_PLACEMENT_3D('',#520,#426,#427);
#343=AXIS2_PLACEMENT_3D('',#521,#428,#429);
#344=AXIS2_PLACEMENT_3D('',#523,#430,#431);
#345=AXIS2_PLACEMENT_3D('',#524,#432,#433);
#346=AXIS2_PLACEMENT_3D('',#525,#434,#435);
#347=AXIS2_PLACEMENT_3D('',#527,#436,#437);
#348=AXIS2_PLACEMENT_3D('',#528,#438,#439);
#349=AXIS2_PLACEMENT_3D('',#530,#440,#441);
#350=AXIS2_PLACEMENT_3D('',#531,#442,#443);
#351=AXIS2_PLACEMENT_3D('',#533,#444,#445);
#352=AXIS2_PLACEMENT_3D('',#534,#446,#447);
#353=AXIS2_PLACEMENT_3D('',#536,#448,#449);
#354=AXIS2_PLACEMENT_3D('',#538,#450,#451);
#355=AXIS2_PLACEMENT_3D('',#539,#452,#453);
#356=AXIS2_PLACEMENT_3D('',#541,#454,#455);
#357=AXIS2_PLACEMENT_3D('',#542,#456,#457);
#358=AXIS2_PLACEMENT_3D('',#544,#458,#459);
#359=AXIS2_PLACEMENT_3D('',#545,#460,#461);
#360=AXIS2_PLACEMENT_3D('',#547,#462,#463);
#361=AXIS2_PLACEMENT_3D('',#548,#464,#465);
#362=AXIS2_PLACEMENT_3D('',#550,#466,#467);
#363=AXIS2_PLACEMENT_3D('',#551,#468,#469);
#364=AXIS2_PLACEMENT_3D('',#552,#470,#471);
#365=AXIS2_PLACEMENT_3D('',#553,#472,#473);
#366=DIRECTION('',(0.,0.,1.));
#367=DIRECTION('',(1.,0.,0.));
#368=DIRECTION('',(0.,-1.,0.));
#369=DIRECTION('',(0.,0.,-1.));
#370=DIRECTION('',(0.,1.,0.));
#371=DIRECTION('',(0.,0.,1.));
#372=DIRECTION('',(0.,1.,0.));
#373=DIRECTION('',(0.,0.,1.));
#374=DIRECTION('',(0.,-1.,0.));
#375=DIRECTION('',(0.,0.,-1.));
#376=DIRECTION('',(0.,1.,0.));
#377=DIRECTION('',(0.,0.,1.));
#378=DIRECTION('',(0.,1.,0.));
#379=DIRECTION('',(0.,0.,1.));
#380=DIRECTION('',(0.,-1.,0.));
#381=DIRECTION('',(0.,0.,-1.));
#382=DIRECTION('',(0.,1.,0.));
#383=DIRECTION('',(0.,0.,1.));
#384=DIRECTION('',(0.,1.,0.));
#385=DIRECTION('',(0.,0.,1.));
#386=DIRECTION('',(0.,-1.,0.));
#387=DIRECTION('',(0.,0.,-1.));
#388=DIRECTION('',(0.,1.,0.));
#389=DIRECTION('',(0.,0.,1.));
#390=DIRECTION('',(0.,1.,0.));
#391=DIRECTION('',(0.,0.,1.));
#392=DIRECTION('',(0.,1.,0.));
#393=DIRECTION('',(0.,0.,1.));
#394=DIRECTION('',(0.,1.,0.));
#395=DIRECTION('',(0.,0.,1.));
#396=DIRECTION('',(0.,1.,0.));
#397=DIRECTION('',(0.,0.,1.));
#398=DIRECTION('',(0.,1.,0.));
#399=DIRECTION('',(0.,0.,1.));
#400=DIRECTION('',(0.,1.,0.));
#401=DIRECTION('',(0.,0.,1.));
#402=DIRECTION('',(0.,1.,0.));
#403=DIRECTION('',(0.,0.,1.));
#404=DIRECTION('',(0.,1.,0.));
#405=DIRECTION('',(0.,0.,1.));
#406=DIRECTION('',(0.,1.,0.));
#407=DIRECTION('',(0.,0.,1.));
#408=DIRECTION('',(0.,1.,0.));
#409=DIRECTION('',(0.,0.,1.));
#410=DIRECTION('',(0.,1.,0.));
#411=DIRECTION('',(0.,0.,1.));
#412=DIRECTION('',(0.,1.,0.));
#413=DIRECTION('',(0.,0.,1.));
#414=DIRECTION('',(0.,1.,0.));
#415=DIRECTION('',(0.,0.,1.));
#416=DIRECTION('',(0.,1.,0.));
#417=DIRECTION('',(0.,0.,1.));
#418=DIRECTION('',(0.,-1.,0.));
#419=DIRECTION('',(0.,0.,-1.));
#420=DIRECTION('',(0.,1.,0.));
#421=DIRECTION('',(0.,0.,1.));
#422=DIRECTION('',(0.,1.,0.));
#423=DIRECTION('',(0.,0.,1.));
#424=DIRECTION('',(0.,-1.,0.));
#425=DIRECTION('',(0.,0.,-1.));
#426=DIRECTION('',(0.,1.,0.));
#427=DIRECTION('',(0.,0.,1.));
#428=DIRECTION('',(0.,1.,0.));
#429=DIRECTION('',(0.,0.,1.));
#430=DIRECTION('',(0.,-1.,0.));
#431=DIRECTION('',(0.,0.,-1.));
#432=DIRECTION('',(0.,1.,0.));
#433=DIRECTION('',(0.,0.,1.));
#434=DIRECTION('',(0.,1.,0.));
#435=DIRECTION('',(0.,0.,1.));
#436=DIRECTION('',(0.,-1.,0.));
#437=DIRECTION('',(0.,0.,-1.));
#438=DIRECTION('',(0.,1.,0.));
#439=DIRECTION('',(0.,0.,1.));
#440=DIRECTION('',(0.,1.,0.));
#441=DIRECTION('',(0.,0.,1.));
#442=DIRECTION('',(0.,1.,0.));
#443=DIRECTION('',(0.,0.,1.));
#444=DIRECTION('',(0.,-1.,0.));
#445=DIRECTION('',(0.,0.,-1.));
#446=DIRECTION('',(0.,1.,0.));
#447=DIRECTION('',(0.,0.,1.));
#448=DIRECTION('',(0.,1.,0.));
#449=DIRECTION('',(0.,0.,1.));
#450=DIRECTION('',(0.,1.,0.));
#451=DIRECTION('',(0.,0.,1.));
#452=DIRECTION('',(0.,1.,0.));
#453=DIRECTION('',(0.,0.,1.));
#454=DIRECTION('',(0.,-1.,0.));
#455=DIRECTION('',(0.,0.,-1.));
#456=DIRECTION('',(0.,1.,0.));
#457=DIRECTION('',(0.,0.,1.));
#458=DIRECTION('',(0.,1.,0.));
#459=DIRECTION('',(0.,0.,1.));
#460=DIRECTION('',(0.,1.,0.));
#461=DIRECTION('',(0.,0.,1.));
#462=DIRECTION('',(0.,-1.,0.));
#463=DIRECTION('',(0.,0.,-1.));
#464=DIRECTION('',(0.,1.,0.));
#465=DIRECTION('',(0.,0.,1.));
#466=DIRECTION('',(0.,-1.,0.));
#467=DIRECTION('',(0.,0.,-1.));
#468=DIRECTION('',(0.,1.,0.));
#469=DIRECTION('',(0.,0.,1.));
#470=DIRECTION('',(0.,1.,0.));
#471=DIRECTION('',(0.,0.,1.));
#472=DIRECTION('',(0.,-1.,0.));
#473=DIRECTION('',(0.,0.,-1.));
#474=CARTESIAN_POINT('',(0.,0.,0.));
#475=CARTESIAN_POINT('',(0.,0.04375,0.));
#476=CARTESIAN_POINT('',(0.,0.020475,0.));
#477=CARTESIAN_POINT('',(0.,0.020475,0.0015));
#478=CARTESIAN_POINT('',(0.,0.021275,0.));
#479=CARTESIAN_POINT('',(0.,0.021275,0.0015));
#480=CARTESIAN_POINT('',(0.,0.04375,0.));
#481=CARTESIAN_POINT('',(0.,0.021475,0.));
#482=CARTESIAN_POINT('',(0.,0.021475,0.0015));
#483=CARTESIAN_POINT('',(0.,0.022275,0.));
#484=CARTESIAN_POINT('',(0.,0.022275,0.0015));
#485=CARTESIAN_POINT('',(0.,0.04375,0.));
#486=CARTESIAN_POINT('',(0.,0.022475,0.));
#487=CARTESIAN_POINT('',(0.,0.022475,0.0015));
#488=CARTESIAN_POINT('',(0.,0.023275,0.));
#489=CARTESIAN_POINT('',(0.,0.023275,0.0015));
#490=CARTESIAN_POINT('',(0.,0.04375,0.));
#491=CARTESIAN_POINT('',(0.,0.0402,0.));
#492=CARTESIAN_POINT('',(0.,0.0402,0.0015));
#493=CARTESIAN_POINT('',(0.,0.023475,0.));
#494=CARTESIAN_POINT('',(0.,0.023475,0.0015));
#495=CARTESIAN_POINT('',(0.,0.04025,0.));
#496=CARTESIAN_POINT('',(0.,0.04025,0.));
#497=CARTESIAN_POINT('',(0.,0.04025,0.001));
#498=CARTESIAN_POINT('',(0.,0.04175,0.));
#499=CARTESIAN_POINT('',(0.,0.04175,0.001));
#500=CARTESIAN_POINT('',(0.,0.04025,0.));
#501=CARTESIAN_POINT('',(0.,0.04025,0.));
#502=CARTESIAN_POINT('',(0.,0.04025,0.00145));
#503=CARTESIAN_POINT('',(0.,0.04175,0.));
#504=CARTESIAN_POINT('',(0.,0.04175,0.));
#505=CARTESIAN_POINT('',(0.,0.04175,0.0007));
#506=CARTESIAN_POINT('',(0.,0.04175,0.));
#507=CARTESIAN_POINT('',(0.,0.04355,0.));
#508=CARTESIAN_POINT('',(0.,0.04355,0.0007));
#509=CARTESIAN_POINT('',(0.,0.04375,0.));
#510=CARTESIAN_POINT('',(0.,0.04375,0.));
#511=CARTESIAN_POINT('',(0.,0.04375,0.0005));
#512=CARTESIAN_POINT('',(0.,0.023375,0.));
#513=CARTESIAN_POINT('',(0.,0.023375,0.));
#514=CARTESIAN_POINT('',(0.,0.023375,0.0014));
#515=CARTESIAN_POINT('',(0.,0.023275,0.));
#516=CARTESIAN_POINT('',(0.,0.022375,0.));
#517=CARTESIAN_POINT('',(0.,0.022375,0.));
#518=CARTESIAN_POINT('',(0.,0.022375,0.0014));
#519=CARTESIAN_POINT('',(0.,0.022275,0.));
#520=CARTESIAN_POINT('',(0.,0.021375,0.));
#521=CARTESIAN_POINT('',(0.,0.021375,0.));
#522=CARTESIAN_POINT('',(0.,0.021375,0.0014));
#523=CARTESIAN_POINT('',(0.,0.021275,0.));
#524=CARTESIAN_POINT('',(0.,0.020375,0.));
#525=CARTESIAN_POINT('',(0.,0.020375,0.));
#526=CARTESIAN_POINT('',(0.,0.020375,0.0014));
#527=CARTESIAN_POINT('',(0.,0.020275,0.));
#528=CARTESIAN_POINT('',(0.,0.020275,0.));
#529=CARTESIAN_POINT('',(0.,0.020275,0.0015));
#530=CARTESIAN_POINT('',(0.,0.,0.));
#531=CARTESIAN_POINT('',(0.,0.,0.));
#532=CARTESIAN_POINT('',(0.,0.,0.0005));
#533=CARTESIAN_POINT('',(0.,0.00788406204335659,0.));
#534=CARTESIAN_POINT('',(0.,0.0002,0.));
#535=CARTESIAN_POINT('',(0.,0.0002,0.0007));
#536=CARTESIAN_POINT('',(0.,0.002,0.));
#537=CARTESIAN_POINT('',(0.,0.002,0.0007));
#538=CARTESIAN_POINT('',(0.,0.002,0.));
#539=CARTESIAN_POINT('',(0.,0.002,0.));
#540=CARTESIAN_POINT('',(0.,0.002,0.001));
#541=CARTESIAN_POINT('',(0.,0.0446340620433566,0.));
#542=CARTESIAN_POINT('',(0.,0.0035,0.));
#543=CARTESIAN_POINT('',(0.,0.0035,0.001));
#544=CARTESIAN_POINT('',(0.,0.0035,0.));
#545=CARTESIAN_POINT('',(0.,0.0035,0.));
#546=CARTESIAN_POINT('',(0.,0.0035,0.00145));
#547=CARTESIAN_POINT('',(0.,0.04375,0.));
#548=CARTESIAN_POINT('',(0.,0.00355,0.));
#549=CARTESIAN_POINT('',(0.,0.00355,0.0015));
#550=CARTESIAN_POINT('',(0.,0.04375,0.));
#551=CARTESIAN_POINT('',(0.,0.,0.));
#552=CARTESIAN_POINT('',(0.,0.00355,0.));
#553=CARTESIAN_POINT('',(0.,0.04025,0.));
#554=(
GEOMETRIC_REPRESENTATION_CONTEXT(3)
GLOBAL_UNCERTAINTY_ASSIGNED_CONTEXT((#555))
GLOBAL_UNIT_ASSIGNED_CONTEXT((#558,#557,#556))
REPRESENTATION_CONTEXT('id2','TOP_LEVEL_ASSEMBLY_PART')
);
#555=UNCERTAINTY_MEASURE_WITH_UNIT(LENGTH_MEASURE(1.E-8),#558,
'DISTANCE_ACCURACY_VALUE','Maximum Tolerance applied to model');
#556=(
NAMED_UNIT(*)
SI_UNIT($,.STERADIAN.)
SOLID_ANGLE_UNIT()
);
#557=(
NAMED_UNIT(*)
PLANE_ANGLE_UNIT()
SI_UNIT($,.RADIAN.)
);
#558=(
LENGTH_UNIT()
NAMED_UNIT(*)
SI_UNIT($,.METRE.)
);
#559=PRODUCT_DEFINITION_SHAPE('','',#560);
#560=PRODUCT_DEFINITION('','',#562,#561);
#561=DESIGN_CONTEXT('',#568,'design');
#562=PRODUCT_DEFINITION_FORMATION_WITH_SPECIFIED_SOURCE('','',#564,
 .NOT_KNOWN.);
#563=PRODUCT_RELATED_PRODUCT_CATEGORY('','',(#564));
#564=PRODUCT('id2','id2','id2',(#566));
#565=PRODUCT_CATEGORY('','');
#566=MECHANICAL_CONTEXT('',#568,'mechanical');
#567=APPLICATION_PROTOCOL_DEFINITION('international standard',
'config_control_design',2010,#568);
#568=APPLICATION_CONTEXT(
'configuration controlled 3D designs of mechanical parts and assemblie
s');
ENDSEC;
END-ISO-10303-21;
