ISO-10303-21;
HEADER;
/* Generated by software containing ST-Developer
 * from STEP Tools, Inc. (www.steptools.com) 
 */
/* OPTION: using custom renumber hook */

FILE_DESCRIPTION(
/* description */ ('STEP AP203'),
/* implementation_level */ '2;1');

FILE_NAME(
/* name */ '6a5463aaab75d8074af2877d',
/* time_stamp */ '2026-07-13T04:03:55Z',
/* author */ (''),
/* organization */ (''),
/* preprocessor_version */ 'ST-DEVELOPER v20',
/* originating_system */ 'ONSHAPE BY PTC INC, 1.217',
/* authorisation */ '  ');

FILE_SCHEMA (('CONFIG_CONTROL_DESIGN'));
ENDSEC;

DATA;
#10=PROPERTY_DEFINITION_REPRESENTATION(#14,#12);
#11=PROPERTY_DEFINITION_REPRESENTATION(#15,#13);
#12=REPRESENTATION('',(#16),#416);
#13=REPRESENTATION('',(#17),#416);
#14=PROPERTY_DEFINITION('pmi validation property','',#421);
#15=PROPERTY_DEFINITION('pmi validation property','',#421);
#16=VALUE_REPRESENTATION_ITEM('number of annotations',COUNT_MEASURE(0.));
#17=VALUE_REPRESENTATION_ITEM('number of views',COUNT_MEASURE(0.));
#18=SHAPE_REPRESENTATION_RELATIONSHIP('','',#222,#19);
#19=ADVANCED_BREP_SHAPE_REPRESENTATION('',(#220),#416);
#20=VERTEX_LOOP('',#142);
#21=VERTEX_LOOP('',#143);
#22=CONICAL_SURFACE('',#242,0.0005,0.785398163397442);
#23=CONICAL_SURFACE('',#249,0.00192335829539504,1.09955742875643);
#24=CONICAL_SURFACE('',#250,0.00192335829539504,1.09955742875643);
#25=PLANE('',#234);
#26=PLANE('',#235);
#27=PLANE('',#236);
#28=PLANE('',#240);
#29=PLANE('',#243);
#30=PLANE('',#244);
#31=PLANE('',#245);
#32=PLANE('',#246);
#33=PLANE('',#247);
#34=PLANE('',#248);
#35=LINE('',#344,#43);
#36=LINE('',#348,#44);
#37=LINE('',#349,#45);
#38=LINE('',#354,#46);
#39=LINE('',#403,#47);
#40=LINE('',#404,#48);
#41=LINE('',#408,#49);
#42=LINE('',#410,#50);
#43=VECTOR('',#257,1.);
#44=VECTOR('',#260,1.);
#45=VECTOR('',#261,1.);
#46=VECTOR('',#264,1.);
#47=VECTOR('',#297,1.);
#48=VECTOR('',#298,1.);
#49=VECTOR('',#305,1.);
#50=VECTOR('',#308,1.);
#51=CIRCLE('',#225,0.00125);
#52=CIRCLE('',#226,0.00125);
#53=CIRCLE('',#227,0.00125);
#54=CIRCLE('',#228,0.00125);
#55=CIRCLE('',#229,0.00125);
#56=CIRCLE('',#230,0.00125);
#57=CIRCLE('',#232,0.001);
#58=CIRCLE('',#233,0.001);
#59=CIRCLE('',#237,0.0007);
#60=CIRCLE('',#239,0.0007);
#61=CIRCLE('',#241,0.0005);
#62=ORIENTED_EDGE('',*,*,#104,.F.);
#63=ORIENTED_EDGE('',*,*,#105,.T.);
#64=ORIENTED_EDGE('',*,*,#106,.T.);
#65=ORIENTED_EDGE('',*,*,#107,.T.);
#66=ORIENTED_EDGE('',*,*,#108,.T.);
#67=ORIENTED_EDGE('',*,*,#109,.T.);
#68=ORIENTED_EDGE('',*,*,#110,.T.);
#69=ORIENTED_EDGE('',*,*,#111,.T.);
#70=ORIENTED_EDGE('',*,*,#112,.T.);
#71=ORIENTED_EDGE('',*,*,#113,.T.);
#72=ORIENTED_EDGE('',*,*,#114,.F.);
#73=ORIENTED_EDGE('',*,*,#115,.F.);
#74=ORIENTED_EDGE('',*,*,#116,.T.);
#75=ORIENTED_EDGE('',*,*,#117,.T.);
#76=ORIENTED_EDGE('',*,*,#113,.F.);
#77=ORIENTED_EDGE('',*,*,#116,.F.);
#78=ORIENTED_EDGE('',*,*,#114,.T.);
#79=ORIENTED_EDGE('',*,*,#117,.F.);
#80=ORIENTED_EDGE('',*,*,#118,.F.);
#81=ORIENTED_EDGE('',*,*,#119,.T.);
#82=ORIENTED_EDGE('',*,*,#118,.T.);
#83=ORIENTED_EDGE('',*,*,#120,.T.);
#84=ORIENTED_EDGE('',*,*,#119,.F.);
#85=ORIENTED_EDGE('',*,*,#120,.F.);
#86=ORIENTED_EDGE('',*,*,#121,.T.);
#87=ORIENTED_EDGE('',*,*,#109,.F.);
#88=ORIENTED_EDGE('',*,*,#122,.F.);
#89=ORIENTED_EDGE('',*,*,#111,.F.);
#90=ORIENTED_EDGE('',*,*,#121,.F.);
#91=ORIENTED_EDGE('',*,*,#110,.F.);
#92=ORIENTED_EDGE('',*,*,#112,.F.);
#93=ORIENTED_EDGE('',*,*,#122,.T.);
#94=ORIENTED_EDGE('',*,*,#123,.F.);
#95=ORIENTED_EDGE('',*,*,#107,.F.);
#96=ORIENTED_EDGE('',*,*,#105,.F.);
#97=ORIENTED_EDGE('',*,*,#124,.T.);
#98=ORIENTED_EDGE('',*,*,#124,.F.);
#99=ORIENTED_EDGE('',*,*,#108,.F.);
#100=ORIENTED_EDGE('',*,*,#123,.T.);
#101=ORIENTED_EDGE('',*,*,#106,.F.);
#102=ORIENTED_EDGE('',*,*,#104,.T.);
#103=ORIENTED_EDGE('',*,*,#115,.T.);
#104=EDGE_CURVE('',#125,#125,#144,.T.);
#105=EDGE_CURVE('',#126,#127,#51,.T.);
#106=EDGE_CURVE('',#127,#128,#35,.T.);
#107=EDGE_CURVE('',#128,#129,#52,.T.);
#108=EDGE_CURVE('',#129,#126,#36,.F.);
#109=EDGE_CURVE('',#130,#131,#37,.F.);
#110=EDGE_CURVE('',#131,#132,#53,.T.);
#111=EDGE_CURVE('',#132,#133,#38,.T.);
#112=EDGE_CURVE('',#133,#130,#54,.T.);
#113=EDGE_CURVE('',#134,#134,#55,.T.);
#114=EDGE_CURVE('',#135,#135,#56,.T.);
#115=EDGE_CURVE('',#136,#136,#145,.T.);
#116=EDGE_CURVE('',#137,#137,#57,.T.);
#117=EDGE_CURVE('',#138,#138,#58,.F.);
#118=EDGE_CURVE('',#139,#139,#59,.T.);
#119=EDGE_CURVE('',#140,#140,#60,.F.);
#120=EDGE_CURVE('',#141,#141,#61,.T.);
#121=EDGE_CURVE('',#132,#131,#39,.T.);
#122=EDGE_CURVE('',#133,#130,#40,.T.);
#123=EDGE_CURVE('',#129,#128,#41,.T.);
#124=EDGE_CURVE('',#126,#127,#42,.T.);
#125=VERTEX_POINT('',#340);
#126=VERTEX_POINT('',#342);
#127=VERTEX_POINT('',#343);
#128=VERTEX_POINT('',#345);
#129=VERTEX_POINT('',#347);
#130=VERTEX_POINT('',#350);
#131=VERTEX_POINT('',#351);
#132=VERTEX_POINT('',#353);
#133=VERTEX_POINT('',#355);
#134=VERTEX_POINT('',#358);
#135=VERTEX_POINT('',#360);
#136=VERTEX_POINT('',#384);
#137=VERTEX_POINT('',#387);
#138=VERTEX_POINT('',#389);
#139=VERTEX_POINT('',#394);
#140=VERTEX_POINT('',#397);
#141=VERTEX_POINT('',#400);
#142=VERTEX_POINT('',#413);
#143=VERTEX_POINT('',#415);
#144=B_SPLINE_CURVE_WITH_KNOTS('',3,(#317,#318,#319,#320,#321,#322,#323,
#324,#325,#326,#327,#328,#329,#330,#331,#332,#333,#334,#335,#336,#337,#338,
#339),.UNSPECIFIED.,.T.,.F.,(1,1,1,1,1,1,1,1,1,1,1,1,1,1,1,1,1,1,1,1,1,
1,1,1,1,1,1),(-0.000894715042919861,-0.000596476695279907,-0.000298238347639953,
0.,0.000596476695279908,0.00119295339055982,0.00178943008583972,0.00238590678111963,
0.00298238347639954,0.00357886017167945,0.0038770985193194,0.00417533686695936,
0.00447357521459931,0.00477181356223926,0.00536829025751917,0.00596476695279908,
0.00656124364807899,0.0071577203433589,0.0077541970386388,0.00835067373391871,
0.00864891208155867,0.00894715042919862,0.00924538877683858,0.00954362712447853,
0.0101401038197584,0.0107365805150383,0.0113330572103183),.UNSPECIFIED.);
#145=B_SPLINE_CURVE_WITH_KNOTS('',3,(#361,#362,#363,#364,#365,#366,#367,
#368,#369,#370,#371,#372,#373,#374,#375,#376,#377,#378,#379,#380,#381,#382,
#383),.UNSPECIFIED.,.T.,.F.,(1,1,1,1,1,1,1,1,1,1,1,1,1,1,1,1,1,1,1,1,1,
1,1,1,1,1,1),(-0.000894715042919866,-0.00059647669527991,-0.000298238347639956,
0.,0.000596476695279912,0.00119295339055982,0.00178943008583974,0.00238590678111965,
0.00298238347639956,0.00357886017167947,0.00387709851931943,0.00417533686695938,
0.00447357521459934,0.00477181356223929,0.00536829025751921,0.00596476695279912,
0.00656124364807903,0.00715772034335894,0.00775419703863885,0.00835067373391877,
0.00864891208155872,0.00894715042919868,0.00924538877683863,0.00954362712447859,
0.0101401038197585,0.0107365805150384,0.0113330572103183),.UNSPECIFIED.);
#146=EDGE_LOOP('',(#62));
#147=EDGE_LOOP('',(#63,#64,#65,#66));
#148=EDGE_LOOP('',(#67,#68,#69,#70));
#149=EDGE_LOOP('',(#71));
#150=EDGE_LOOP('',(#72));
#151=EDGE_LOOP('',(#73));
#152=EDGE_LOOP('',(#74));
#153=EDGE_LOOP('',(#75));
#154=EDGE_LOOP('',(#76));
#155=EDGE_LOOP('',(#77));
#156=EDGE_LOOP('',(#78));
#157=EDGE_LOOP('',(#79));
#158=EDGE_LOOP('',(#80));
#159=EDGE_LOOP('',(#81));
#160=EDGE_LOOP('',(#82));
#161=EDGE_LOOP('',(#83));
#162=EDGE_LOOP('',(#84));
#163=EDGE_LOOP('',(#85));
#164=EDGE_LOOP('',(#86,#87,#88,#89));
#165=EDGE_LOOP('',(#90,#91));
#166=EDGE_LOOP('',(#92,#93));
#167=EDGE_LOOP('',(#94,#95));
#168=EDGE_LOOP('',(#96,#97));
#169=EDGE_LOOP('',(#98,#99,#100,#101));
#170=EDGE_LOOP('',(#102));
#171=EDGE_LOOP('',(#103));
#172=FACE_BOUND('',#146,.T.);
#173=FACE_BOUND('',#147,.T.);
#174=FACE_BOUND('',#148,.T.);
#175=FACE_BOUND('',#149,.T.);
#176=FACE_BOUND('',#150,.T.);
#177=FACE_BOUND('',#151,.T.);
#178=FACE_BOUND('',#152,.T.);
#179=FACE_BOUND('',#153,.T.);
#180=FACE_BOUND('',#154,.T.);
#181=FACE_BOUND('',#155,.T.);
#182=FACE_BOUND('',#156,.T.);
#183=FACE_BOUND('',#157,.T.);
#184=FACE_BOUND('',#158,.T.);
#185=FACE_BOUND('',#159,.T.);
#186=FACE_BOUND('',#160,.T.);
#187=FACE_BOUND('',#161,.T.);
#188=FACE_BOUND('',#162,.T.);
#189=FACE_BOUND('',#163,.T.);
#190=FACE_BOUND('',#164,.T.);
#191=FACE_BOUND('',#165,.T.);
#192=FACE_BOUND('',#166,.T.);
#193=FACE_BOUND('',#167,.T.);
#194=FACE_BOUND('',#168,.T.);
#195=FACE_BOUND('',#169,.T.);
#196=FACE_BOUND('',#20,.T.);
#197=FACE_BOUND('',#170,.T.);
#198=FACE_BOUND('',#21,.T.);
#199=FACE_BOUND('',#171,.T.);
#200=CYLINDRICAL_SURFACE('',#224,0.00125);
#201=CYLINDRICAL_SURFACE('',#231,0.001);
#202=CYLINDRICAL_SURFACE('',#238,0.0007);
#203=ADVANCED_FACE('',(#172,#173,#174,#175,#176,#177),#200,.T.);
#204=ADVANCED_FACE('',(#178,#179),#201,.T.);
#205=ADVANCED_FACE('',(#180),#25,.F.);
#206=ADVANCED_FACE('',(#181,#182),#26,.T.);
#207=ADVANCED_FACE('',(#183,#184),#27,.T.);
#208=ADVANCED_FACE('',(#185,#186),#202,.T.);
#209=ADVANCED_FACE('',(#187),#28,.T.);
#210=ADVANCED_FACE('',(#188,#189),#22,.T.);
#211=ADVANCED_FACE('',(#190),#29,.F.);
#212=ADVANCED_FACE('',(#191),#30,.F.);
#213=ADVANCED_FACE('',(#192),#31,.F.);
#214=ADVANCED_FACE('',(#193),#32,.F.);
#215=ADVANCED_FACE('',(#194),#33,.F.);
#216=ADVANCED_FACE('',(#195),#34,.F.);
#217=ADVANCED_FACE('',(#196,#197),#23,.F.);
#218=ADVANCED_FACE('',(#198,#199),#24,.F.);
#219=CLOSED_SHELL('',(#203,#204,#205,#206,#207,#208,#209,#210,#211,#212,
#213,#214,#215,#216,#217,#218));
#220=MANIFOLD_SOLID_BREP('',#219);
#221=SHAPE_DEFINITION_REPRESENTATION(#421,#222);
#222=SHAPE_REPRESENTATION('id2',(#223),#416);
#223=AXIS2_PLACEMENT_3D('',#315,#251,#252);
#224=AXIS2_PLACEMENT_3D('',#316,#253,#254);
#225=AXIS2_PLACEMENT_3D('',#341,#255,#256);
#226=AXIS2_PLACEMENT_3D('',#346,#258,#259);
#227=AXIS2_PLACEMENT_3D('',#352,#262,#263);
#228=AXIS2_PLACEMENT_3D('',#356,#265,#266);
#229=AXIS2_PLACEMENT_3D('',#357,#267,#268);
#230=AXIS2_PLACEMENT_3D('',#359,#269,#270);
#231=AXIS2_PLACEMENT_3D('',#385,#271,#272);
#232=AXIS2_PLACEMENT_3D('',#386,#273,#274);
#233=AXIS2_PLACEMENT_3D('',#388,#275,#276);
#234=AXIS2_PLACEMENT_3D('',#390,#277,#278);
#235=AXIS2_PLACEMENT_3D('',#391,#279,#280);
#236=AXIS2_PLACEMENT_3D('',#392,#281,#282);
#237=AXIS2_PLACEMENT_3D('',#393,#283,#284);
#238=AXIS2_PLACEMENT_3D('',#395,#285,#286);
#239=AXIS2_PLACEMENT_3D('',#396,#287,#288);
#240=AXIS2_PLACEMENT_3D('',#398,#289,#290);
#241=AXIS2_PLACEMENT_3D('',#399,#291,#292);
#242=AXIS2_PLACEMENT_3D('',#401,#293,#294);
#243=AXIS2_PLACEMENT_3D('',#402,#295,#296);
#244=AXIS2_PLACEMENT_3D('',#405,#299,#300);
#245=AXIS2_PLACEMENT_3D('',#406,#301,#302);
#246=AXIS2_PLACEMENT_3D('',#407,#303,#304);
#247=AXIS2_PLACEMENT_3D('',#409,#306,#307);
#248=AXIS2_PLACEMENT_3D('',#411,#309,#310);
#249=AXIS2_PLACEMENT_3D('',#412,#311,#312);
#250=AXIS2_PLACEMENT_3D('',#414,#313,#314);
#251=DIRECTION('',(0.,0.,1.));
#252=DIRECTION('',(1.,0.,0.));
#253=DIRECTION('',(0.,-1.,0.));
#254=DIRECTION('',(0.,0.,-1.));
#255=DIRECTION('',(0.,1.,0.));
#256=DIRECTION('',(0.,0.,1.));
#257=DIRECTION('',(0.,-1.,0.));
#258=DIRECTION('',(0.,-1.,0.));
#259=DIRECTION('',(0.,0.,-1.));
#260=DIRECTION('',(0.,-1.,0.));
#261=DIRECTION('',(0.,-1.,0.));
#262=DIRECTION('',(0.,1.,0.));
#263=DIRECTION('',(0.,0.,1.));
#264=DIRECTION('',(0.,-1.,0.));
#265=DIRECTION('',(0.,-1.,0.));
#266=DIRECTION('',(0.,0.,-1.));
#267=DIRECTION('',(0.,1.,0.));
#268=DIRECTION('',(0.,0.,1.));
#269=DIRECTION('',(0.,1.,0.));
#270=DIRECTION('',(0.,0.,1.));
#271=DIRECTION('',(0.,1.,0.));
#272=DIRECTION('',(0.,0.,1.));
#273=DIRECTION('',(0.,1.,0.));
#274=DIRECTION('',(0.,0.,1.));
#275=DIRECTION('',(0.,1.,0.));
#276=DIRECTION('',(0.,0.,1.));
#277=DIRECTION('',(0.,1.,0.));
#278=DIRECTION('',(0.,0.,1.));
#279=DIRECTION('',(0.,1.,0.));
#280=DIRECTION('',(0.,0.,1.));
#281=DIRECTION('',(0.,1.,0.));
#282=DIRECTION('',(0.,0.,1.));
#283=DIRECTION('',(0.,1.,0.));
#284=DIRECTION('',(0.,0.,1.));
#285=DIRECTION('',(0.,1.,0.));
#286=DIRECTION('',(0.,0.,1.));
#287=DIRECTION('',(0.,1.,0.));
#288=DIRECTION('',(0.,0.,1.));
#289=DIRECTION('',(0.,1.,0.));
#290=DIRECTION('',(0.,0.,1.));
#291=DIRECTION('',(0.,1.,0.));
#292=DIRECTION('',(0.,0.,1.));
#293=DIRECTION('',(0.,-1.,0.));
#294=DIRECTION('',(0.,0.,-1.));
#295=DIRECTION('',(0.,-1.21972744404619E-16,1.));
#296=DIRECTION('',(0.,-1.,-1.21972744404619E-16));
#297=DIRECTION('',(1.,0.,0.));
#298=DIRECTION('',(1.,0.,0.));
#299=DIRECTION('',(0.,1.,0.));
#300=DIRECTION('',(0.,0.,1.));
#301=DIRECTION('',(0.,-1.,0.));
#302=DIRECTION('',(0.,0.,-1.));
#303=DIRECTION('',(0.,-1.,0.));
#304=DIRECTION('',(0.,0.,-1.));
#305=DIRECTION('',(1.,0.,0.));
#306=DIRECTION('',(0.,1.,0.));
#307=DIRECTION('',(0.,0.,1.));
#308=DIRECTION('',(1.,0.,0.));
#309=DIRECTION('',(0.,-1.21972744404619E-16,-1.));
#310=DIRECTION('',(0.,1.,-1.21972744404619E-16));
#311=DIRECTION('',(1.,0.,0.));
#312=DIRECTION('',(0.,0.,-1.));
#313=DIRECTION('',(1.,0.,0.));
#314=DIRECTION('',(0.,0.,-1.));
#315=CARTESIAN_POINT('',(0.,0.,0.));
#316=CARTESIAN_POINT('',(0.,0.0425,0.));
#317=CARTESIAN_POINT('',(0.0012474979151925,0.028282957090887,-0.000188652804961544));
#318=CARTESIAN_POINT('',(0.00115671000978286,0.0285223166440029,-0.000512598755304995));
#319=CARTESIAN_POINT('',(0.00100723349841922,0.0289399500620979,-0.000756783581013957));
#320=CARTESIAN_POINT('',(0.000845648029153807,0.029487273626943,-0.000926343758304768));
#321=CARTESIAN_POINT('',(0.000750849409064089,0.0300776725024197,-0.000998927385511845));
#322=CARTESIAN_POINT('',(0.000794434496297393,0.0306786813166311,-0.000967606451096008));
#323=CARTESIAN_POINT('',(0.00093874553115355,0.0312464825961441,-0.000836702382322719));
#324=CARTESIAN_POINT('',(0.00108643090461562,0.0316835548364639,-0.000639614274159416));
#325=CARTESIAN_POINT('',(0.00119547727320032,0.0319804547476614,-0.000388661990026063));
#326=CARTESIAN_POINT('',(0.00125580817695175,0.0321385677507905,-0.000128417949169108));
#327=CARTESIAN_POINT('',(0.00124734294900892,0.0321166374823147,0.000189554966720175));
#328=CARTESIAN_POINT('',(0.00115661282012181,0.0318774228704432,0.000512653534934737));
#329=CARTESIAN_POINT('',(0.0010069220635538,0.0314591258853952,0.000757260804182635));
#330=CARTESIAN_POINT('',(0.000845537322681018,0.0309121999364335,0.000926399759170617));
#331=CARTESIAN_POINT('',(0.000750850251196381,0.030322027867879,0.000998935275173123));
#332=CARTESIAN_POINT('',(0.000794461892049566,0.0297212411731442,0.000967581918111909));
#333=CARTESIAN_POINT('',(0.000938714059524621,0.0291536438704841,0.000836725275374067));
#334=CARTESIAN_POINT('',(0.00108629612038435,0.0287168303773738,0.000639806152438544));
#335=CARTESIAN_POINT('',(0.00119533861043154,0.0284199143870082,0.000389069745522893));
#336=CARTESIAN_POINT('',(0.00125571529529349,0.0282616738530658,0.000129018235311442));
#337=CARTESIAN_POINT('',(0.0012474979151925,0.028282957090887,-0.000188652804961544));
#338=CARTESIAN_POINT('',(0.00115671000978286,0.0285223166440029,-0.000512598755304995));
#339=CARTESIAN_POINT('',(0.00100723349841922,0.0289399500620979,-0.000756783581013957));
#340=CARTESIAN_POINT('',(0.00117700754416183,0.0284703723541706,-0.000420895760237775));
#341=CARTESIAN_POINT('',(0.,0.0065,0.));
#342=CARTESIAN_POINT('',(-0.00116619037896906,0.0065,0.00045));
#343=CARTESIAN_POINT('',(0.00116619037896906,0.0065,0.00045));
#344=CARTESIAN_POINT('',(0.00116619037896906,0.0425,0.00045));
#345=CARTESIAN_POINT('',(0.00116619037896906,0.0025,0.00045));
#346=CARTESIAN_POINT('',(0.,0.0025,0.));
#347=CARTESIAN_POINT('',(-0.00116619037896906,0.0025,0.00045));
#348=CARTESIAN_POINT('',(-0.00116619037896906,0.0425,0.00045));
#349=CARTESIAN_POINT('',(0.00116619037896906,0.0425,-0.00045));
#350=CARTESIAN_POINT('',(0.00116619037896906,0.0025,-0.00045));
#351=CARTESIAN_POINT('',(0.00116619037896906,0.0065,-0.00045));
#352=CARTESIAN_POINT('',(0.,0.0065,0.));
#353=CARTESIAN_POINT('',(-0.00116619037896906,0.0065,-0.00045));
#354=CARTESIAN_POINT('',(-0.00116619037896906,0.0425,-0.00045));
#355=CARTESIAN_POINT('',(-0.00116619037896906,0.0025,-0.00045));
#356=CARTESIAN_POINT('',(0.,0.0025,0.));
#357=CARTESIAN_POINT('',(0.,0.,0.));
#358=CARTESIAN_POINT('',(0.,0.,0.00125));
#359=CARTESIAN_POINT('',(0.,0.039,0.));
#360=CARTESIAN_POINT('',(0.,0.039,0.00125));
#361=CARTESIAN_POINT('',(0.0012474979151925,0.024332957090887,-0.00018865280496155));
#362=CARTESIAN_POINT('',(0.00115671000978286,0.0245723166440029,-0.000512598755304993));
#363=CARTESIAN_POINT('',(0.00100723349841922,0.0249899500620979,-0.000756783581013959));
#364=CARTESIAN_POINT('',(0.000845648029153804,0.025537273626943,-0.000926343758304771));
#365=CARTESIAN_POINT('',(0.000750849409064089,0.0261276725024197,-0.000998927385511845));
#366=CARTESIAN_POINT('',(0.000794434496297395,0.0267286813166311,-0.000967606451096006));
#367=CARTESIAN_POINT('',(0.000938745531153556,0.0272964825961442,-0.000836702382322713));
#368=CARTESIAN_POINT('',(0.00108643090461562,0.0277335548364639,-0.000639614274159409));
#369=CARTESIAN_POINT('',(0.00119547727320033,0.0280304547476614,-0.000388661990026046));
#370=CARTESIAN_POINT('',(0.00125580817695176,0.0281885677507905,-0.000128417949169079));
#371=CARTESIAN_POINT('',(0.00124734294900892,0.0281666374823147,0.000189554966720208));
#372=CARTESIAN_POINT('',(0.0011566128201218,0.0279274228704432,0.00051265353493475));
#373=CARTESIAN_POINT('',(0.00100692206355379,0.0275091258853951,0.000757260804182652));
#374=CARTESIAN_POINT('',(0.000845537322681012,0.0269621999364335,0.00092639975917062));
#375=CARTESIAN_POINT('',(0.00075085025119638,0.026372027867879,0.000998935275173124));
#376=CARTESIAN_POINT('',(0.000794461892049569,0.0257712411731442,0.000967581918111906));
#377=CARTESIAN_POINT('',(0.000938714059524622,0.0252036438704841,0.000836725275374064));
#378=CARTESIAN_POINT('',(0.00108629612038435,0.0247668303773738,0.000639806152438534));
#379=CARTESIAN_POINT('',(0.00119533861043154,0.0244699143870082,0.00038906974552289));
#380=CARTESIAN_POINT('',(0.00125571529529349,0.0243116738530658,0.000129018235311419));
#381=CARTESIAN_POINT('',(0.0012474979151925,0.024332957090887,-0.00018865280496155));
#382=CARTESIAN_POINT('',(0.00115671000978286,0.0245723166440029,-0.000512598755304993));
#383=CARTESIAN_POINT('',(0.00100723349841922,0.0249899500620979,-0.000756783581013959));
#384=CARTESIAN_POINT('',(0.00117700754416183,0.0245203723541706,-0.000420895760237776));
#385=CARTESIAN_POINT('',(0.,0.039,0.));
#386=CARTESIAN_POINT('',(0.,0.039,0.));
#387=CARTESIAN_POINT('',(0.,0.039,0.001));
#388=CARTESIAN_POINT('',(0.,0.0405,0.));
#389=CARTESIAN_POINT('',(0.,0.0405,0.001));
#390=CARTESIAN_POINT('',(0.,0.,0.));
#391=CARTESIAN_POINT('',(0.,0.039,0.));
#392=CARTESIAN_POINT('',(0.,0.0405,0.));
#393=CARTESIAN_POINT('',(0.,0.0405,0.));
#394=CARTESIAN_POINT('',(0.,0.0405,0.0007));
#395=CARTESIAN_POINT('',(0.,0.0405,0.));
#396=CARTESIAN_POINT('',(0.,0.0423,0.));
#397=CARTESIAN_POINT('',(0.,0.0423,0.0007));
#398=CARTESIAN_POINT('',(0.,0.0425,0.));
#399=CARTESIAN_POINT('',(0.,0.0425,0.));
#400=CARTESIAN_POINT('',(0.,0.0425,0.0005));
#401=CARTESIAN_POINT('',(0.,0.0425,0.));
#402=CARTESIAN_POINT('',(-0.00125,0.0065,-0.00045));
#403=CARTESIAN_POINT('',(-0.00125,0.0065,-0.00045));
#404=CARTESIAN_POINT('',(-0.00125,0.0025,-0.00045));
#405=CARTESIAN_POINT('',(-0.00125,0.0065,-0.00045));
#406=CARTESIAN_POINT('',(-0.00125,0.0025,-0.00045));
#407=CARTESIAN_POINT('',(-0.00125,0.0025,0.00045));
#408=CARTESIAN_POINT('',(-0.00125,0.0025,0.00045));
#409=CARTESIAN_POINT('',(-0.00125,0.0065,0.00045));
#410=CARTESIAN_POINT('',(-0.00125,0.0065,0.00045));
#411=CARTESIAN_POINT('',(-0.00125,0.0065,0.00045));
#412=CARTESIAN_POINT('',(0.00125,0.0302,0.));
#413=CARTESIAN_POINT('',(0.00027,0.0302,0.));
#414=CARTESIAN_POINT('',(0.00125,0.02625,0.));
#415=CARTESIAN_POINT('',(0.00027,0.02625,0.));
#416=(
GEOMETRIC_REPRESENTATION_CONTEXT(3)
GLOBAL_UNCERTAINTY_ASSIGNED_CONTEXT((#417))
GLOBAL_UNIT_ASSIGNED_CONTEXT((#420,#419,#418))
REPRESENTATION_CONTEXT('id2','TOP_LEVEL_ASSEMBLY_PART')
);
#417=UNCERTAINTY_MEASURE_WITH_UNIT(LENGTH_MEASURE(2.E-5),#420,
'DISTANCE_ACCURACY_VALUE','Maximum Tolerance applied to model');
#418=(
NAMED_UNIT(*)
SI_UNIT($,.STERADIAN.)
SOLID_ANGLE_UNIT()
);
#419=(
NAMED_UNIT(*)
PLANE_ANGLE_UNIT()
SI_UNIT($,.RADIAN.)
);
#420=(
LENGTH_UNIT()
NAMED_UNIT(*)
SI_UNIT($,.METRE.)
);
#421=PRODUCT_DEFINITION_SHAPE('','',#422);
#422=PRODUCT_DEFINITION('','',#424,#423);
#423=DESIGN_CONTEXT('',#430,'design');
#424=PRODUCT_DEFINITION_FORMATION_WITH_SPECIFIED_SOURCE('','',#426,
 .NOT_KNOWN.);
#425=PRODUCT_RELATED_PRODUCT_CATEGORY('','',(#426));
#426=PRODUCT('id2','id2','id2',(#428));
#427=PRODUCT_CATEGORY('','');
#428=MECHANICAL_CONTEXT('',#430,'mechanical');
#429=APPLICATION_PROTOCOL_DEFINITION('international standard',
'config_control_design',2010,#430);
#430=APPLICATION_CONTEXT(
'configuration controlled 3D designs of mechanical parts and assemblie
s');
ENDSEC;
END-ISO-10303-21;
