ISO-10303-21;
HEADER;
/* Generated by software containing ST-Developer
 * from STEP Tools, Inc. (www.steptools.com) 
 */
/* OPTION: using custom renumber hook */

FILE_DESCRIPTION(
/* description */ ('STEP AP203'),
/* implementation_level */ '2;1');

FILE_NAME(
/* name */ '6a5463b64d5ff01c8d2c12b3',
/* time_stamp */ '2026-07-13T04:04:06Z',
/* author */ (''),
/* organization */ (''),
/* preprocessor_version */ 'ST-DEVELOPER v20',
/* originating_system */ 'ONSHAPE BY PTC INC, 1.217',
/* authorisation */ '  ');

FILE_SCHEMA (('CONFIG_CONTROL_DESIGN'));
ENDSEC;

DATA;
#10=PROPERTY_DEFINITION_REPRESENTATION(#14,#12);
#11=PROPERTY_DEFINITION_REPRESENTATION(#15,#13);
#12=REPRESENTATION('',(#16),#1872);
#13=REPRESENTATION('',(#17),#1872);
#14=PROPERTY_DEFINITION('pmi validation property','',#1877);
#15=PROPERTY_DEFINITION('pmi validation property','',#1877);
#16=VALUE_REPRESENTATION_ITEM('number of annotations',COUNT_MEASURE(0.));
#17=VALUE_REPRESENTATION_ITEM('number of views',COUNT_MEASURE(0.));
#18=SHAPE_REPRESENTATION_RELATIONSHIP('','',#1081,#19);
#19=ADVANCED_BREP_SHAPE_REPRESENTATION('',(#1079),#1872);
#20=CONICAL_SURFACE('',#1196,0.00195,0.785398163397445);
#21=ELLIPSE('',#1104,0.00247487373415292,0.00175);
#22=ELLIPSE('',#1105,0.00247487373415292,0.00175);
#23=ELLIPSE('',#1106,0.00247487373415292,0.00175);
#24=ELLIPSE('',#1107,0.00247487373415292,0.00175);
#25=ELLIPSE('',#1108,0.00247487373415292,0.00175);
#26=ELLIPSE('',#1109,0.00247487373415292,0.00175);
#27=ELLIPSE('',#1110,0.00247487373415292,0.00175);
#28=ELLIPSE('',#1111,0.00247487373415292,0.00175);
#29=CYLINDRICAL_SURFACE('',#1102,0.00175);
#30=CYLINDRICAL_SURFACE('',#1112,0.0016);
#31=CYLINDRICAL_SURFACE('',#1115,0.0016);
#32=CYLINDRICAL_SURFACE('',#1117,0.0016);
#33=CYLINDRICAL_SURFACE('',#1120,0.0016);
#34=CYLINDRICAL_SURFACE('',#1122,0.0016);
#35=CYLINDRICAL_SURFACE('',#1125,0.0016);
#36=CYLINDRICAL_SURFACE('',#1166,0.016);
#37=CYLINDRICAL_SURFACE('',#1167,0.016);
#38=CYLINDRICAL_SURFACE('',#1168,0.0016);
#39=CYLINDRICAL_SURFACE('',#1169,0.0016);
#40=CYLINDRICAL_SURFACE('',#1170,0.0016);
#41=CYLINDRICAL_SURFACE('',#1171,0.0016);
#42=CYLINDRICAL_SURFACE('',#1172,0.0016);
#43=CYLINDRICAL_SURFACE('',#1173,0.0016);
#44=CYLINDRICAL_SURFACE('',#1175,0.000725675350944113);
#45=CYLINDRICAL_SURFACE('',#1176,0.000725675350944113);
#46=CYLINDRICAL_SURFACE('',#1179,0.000683368407077697);
#47=CYLINDRICAL_SURFACE('',#1180,0.000683368407077697);
#48=CYLINDRICAL_SURFACE('',#1182,0.00026049727272568);
#49=CYLINDRICAL_SURFACE('',#1184,0.00026049727272568);
#50=CYLINDRICAL_SURFACE('',#1186,0.000724296887812924);
#51=CYLINDRICAL_SURFACE('',#1188,0.000724296887812924);
#52=CYLINDRICAL_SURFACE('',#1190,0.000797527904036957);
#53=CYLINDRICAL_SURFACE('',#1191,0.000797527904036957);
#54=CYLINDRICAL_SURFACE('',#1192,0.000797527904036949);
#55=CYLINDRICAL_SURFACE('',#1193,0.000797527904036954);
#56=CYLINDRICAL_SURFACE('',#1194,0.000797527904036949);
#57=CYLINDRICAL_SURFACE('',#1195,0.000797527904036954);
#58=LINE('',#1558,#146);
#59=LINE('',#1564,#147);
#60=LINE('',#1580,#148);
#61=LINE('',#1584,#149);
#62=LINE('',#1588,#150);
#63=LINE('',#1592,#151);
#64=LINE('',#1593,#152);
#65=LINE('',#1596,#153);
#66=LINE('',#1600,#154);
#67=LINE('',#1602,#155);
#68=LINE('',#1604,#156);
#69=LINE('',#1608,#157);
#70=LINE('',#1610,#158);
#71=LINE('',#1612,#159);
#72=LINE('',#1616,#160);
#73=LINE('',#1618,#161);
#74=LINE('',#1620,#162);
#75=LINE('',#1624,#163);
#76=LINE('',#1641,#164);
#77=LINE('',#1646,#165);
#78=LINE('',#1650,#166);
#79=LINE('',#1654,#167);
#80=LINE('',#1656,#168);
#81=LINE('',#1661,#169);
#82=LINE('',#1665,#170);
#83=LINE('',#1669,#171);
#84=LINE('',#1671,#172);
#85=LINE('',#1676,#173);
#86=LINE('',#1680,#174);
#87=LINE('',#1684,#175);
#88=LINE('',#1686,#176);
#89=LINE('',#1689,#177);
#90=LINE('',#1691,#178);
#91=LINE('',#1692,#179);
#92=LINE('',#1694,#180);
#93=LINE('',#1696,#181);
#94=LINE('',#1698,#182);
#95=LINE('',#1707,#183);
#96=LINE('',#1711,#184);
#97=LINE('',#1716,#185);
#98=LINE('',#1723,#186);
#99=LINE('',#1729,#187);
#100=LINE('',#1736,#188);
#101=LINE('',#1742,#189);
#102=LINE('',#1749,#190);
#103=LINE('',#1754,#191);
#104=LINE('',#1758,#192);
#105=LINE('',#1760,#193);
#106=LINE('',#1767,#194);
#107=LINE('',#1771,#195);
#108=LINE('',#1776,#196);
#109=LINE('',#1783,#197);
#110=LINE('',#1789,#198);
#111=LINE('',#1790,#199);
#112=LINE('',#1791,#200);
#113=LINE('',#1792,#201);
#114=LINE('',#1796,#202);
#115=LINE('',#1797,#203);
#116=LINE('',#1799,#204);
#117=LINE('',#1800,#205);
#118=LINE('',#1802,#206);
#119=LINE('',#1803,#207);
#120=LINE('',#1805,#208);
#121=LINE('',#1806,#209);
#122=LINE('',#1808,#210);
#123=LINE('',#1809,#211);
#124=LINE('',#1811,#212);
#125=LINE('',#1812,#213);
#126=LINE('',#1814,#214);
#127=LINE('',#1817,#215);
#128=LINE('',#1820,#216);
#129=LINE('',#1823,#217);
#130=LINE('',#1826,#218);
#131=LINE('',#1829,#219);
#132=LINE('',#1832,#220);
#133=LINE('',#1835,#221);
#134=LINE('',#1845,#222);
#135=LINE('',#1847,#223);
#136=LINE('',#1849,#224);
#137=LINE('',#1852,#225);
#138=LINE('',#1854,#226);
#139=LINE('',#1856,#227);
#140=LINE('',#1859,#228);
#141=LINE('',#1861,#229);
#142=LINE('',#1863,#230);
#143=LINE('',#1866,#231);
#144=LINE('',#1868,#232);
#145=LINE('',#1870,#233);
#146=VECTOR('',#1217,1.);
#147=VECTOR('',#1222,1.);
#148=VECTOR('',#1237,1.);
#149=VECTOR('',#1240,1.);
#150=VECTOR('',#1243,1.);
#151=VECTOR('',#1246,1.);
#152=VECTOR('',#1247,1.);
#153=VECTOR('',#1248,1.);
#154=VECTOR('',#1251,1.);
#155=VECTOR('',#1252,1.);
#156=VECTOR('',#1253,1.);
#157=VECTOR('',#1256,1.);
#158=VECTOR('',#1257,1.);
#159=VECTOR('',#1258,1.);
#160=VECTOR('',#1261,1.);
#161=VECTOR('',#1262,1.);
#162=VECTOR('',#1263,1.);
#163=VECTOR('',#1266,1.);
#164=VECTOR('',#1289,1.);
#165=VECTOR('',#1292,1.);
#166=VECTOR('',#1297,1.);
#167=VECTOR('',#1300,1.);
#168=VECTOR('',#1303,1.);
#169=VECTOR('',#1306,1.);
#170=VECTOR('',#1311,1.);
#171=VECTOR('',#1314,1.);
#172=VECTOR('',#1317,1.);
#173=VECTOR('',#1320,1.);
#174=VECTOR('',#1325,1.);
#175=VECTOR('',#1328,1.);
#176=VECTOR('',#1331,1.);
#177=VECTOR('',#1332,1.);
#178=VECTOR('',#1333,1.);
#179=VECTOR('',#1334,1.);
#180=VECTOR('',#1335,1.);
#181=VECTOR('',#1336,1.);
#182=VECTOR('',#1337,1.);
#183=VECTOR('',#1346,1.);
#184=VECTOR('',#1349,1.);
#185=VECTOR('',#1354,1.);
#186=VECTOR('',#1363,1.);
#187=VECTOR('',#1368,1.);
#188=VECTOR('',#1375,1.);
#189=VECTOR('',#1380,1.);
#190=VECTOR('',#1389,1.);
#191=VECTOR('',#1394,1.);
#192=VECTOR('',#1397,1.);
#193=VECTOR('',#1400,1.);
#194=VECTOR('',#1405,1.);
#195=VECTOR('',#1408,1.);
#196=VECTOR('',#1413,1.);
#197=VECTOR('',#1422,1.);
#198=VECTOR('',#1429,1.);
#199=VECTOR('',#1430,1.);
#200=VECTOR('',#1431,1.);
#201=VECTOR('',#1432,1.);
#202=VECTOR('',#1439,1.);
#203=VECTOR('',#1440,1.);
#204=VECTOR('',#1443,1.);
#205=VECTOR('',#1444,1.);
#206=VECTOR('',#1447,1.);
#207=VECTOR('',#1448,1.);
#208=VECTOR('',#1451,1.);
#209=VECTOR('',#1452,1.);
#210=VECTOR('',#1455,1.);
#211=VECTOR('',#1456,1.);
#212=VECTOR('',#1459,1.);
#213=VECTOR('',#1460,1.);
#214=VECTOR('',#1463,1.);
#215=VECTOR('',#1468,1.);
#216=VECTOR('',#1473,1.);
#217=VECTOR('',#1478,1.);
#218=VECTOR('',#1483,1.);
#219=VECTOR('',#1488,1.);
#220=VECTOR('',#1493,1.);
#221=VECTOR('',#1498,1.);
#222=VECTOR('',#1517,1.);
#223=VECTOR('',#1518,1.);
#224=VECTOR('',#1521,1.);
#225=VECTOR('',#1526,1.);
#226=VECTOR('',#1527,1.);
#227=VECTOR('',#1530,1.);
#228=VECTOR('',#1535,1.);
#229=VECTOR('',#1536,1.);
#230=VECTOR('',#1539,1.);
#231=VECTOR('',#1544,1.);
#232=VECTOR('',#1545,1.);
#233=VECTOR('',#1548,1.);
#234=ORIENTED_EDGE('',*,*,#550,.F.);
#235=ORIENTED_EDGE('',*,*,#551,.F.);
#236=ORIENTED_EDGE('',*,*,#552,.F.);
#237=ORIENTED_EDGE('',*,*,#553,.F.);
#238=ORIENTED_EDGE('',*,*,#554,.F.);
#239=ORIENTED_EDGE('',*,*,#555,.F.);
#240=ORIENTED_EDGE('',*,*,#556,.F.);
#241=ORIENTED_EDGE('',*,*,#557,.F.);
#242=ORIENTED_EDGE('',*,*,#558,.F.);
#243=ORIENTED_EDGE('',*,*,#559,.F.);
#244=ORIENTED_EDGE('',*,*,#560,.F.);
#245=ORIENTED_EDGE('',*,*,#561,.F.);
#246=ORIENTED_EDGE('',*,*,#562,.F.);
#247=ORIENTED_EDGE('',*,*,#563,.T.);
#248=ORIENTED_EDGE('',*,*,#564,.T.);
#249=ORIENTED_EDGE('',*,*,#565,.T.);
#250=ORIENTED_EDGE('',*,*,#566,.F.);
#251=ORIENTED_EDGE('',*,*,#567,.T.);
#252=ORIENTED_EDGE('',*,*,#568,.F.);
#253=ORIENTED_EDGE('',*,*,#569,.F.);
#254=ORIENTED_EDGE('',*,*,#570,.F.);
#255=ORIENTED_EDGE('',*,*,#571,.T.);
#256=ORIENTED_EDGE('',*,*,#572,.F.);
#257=ORIENTED_EDGE('',*,*,#573,.F.);
#258=ORIENTED_EDGE('',*,*,#574,.F.);
#259=ORIENTED_EDGE('',*,*,#575,.T.);
#260=ORIENTED_EDGE('',*,*,#576,.F.);
#261=ORIENTED_EDGE('',*,*,#577,.F.);
#262=ORIENTED_EDGE('',*,*,#578,.T.);
#263=ORIENTED_EDGE('',*,*,#579,.T.);
#264=ORIENTED_EDGE('',*,*,#580,.F.);
#265=ORIENTED_EDGE('',*,*,#581,.F.);
#266=ORIENTED_EDGE('',*,*,#582,.T.);
#267=ORIENTED_EDGE('',*,*,#583,.T.);
#268=ORIENTED_EDGE('',*,*,#584,.F.);
#269=ORIENTED_EDGE('',*,*,#585,.F.);
#270=ORIENTED_EDGE('',*,*,#586,.T.);
#271=ORIENTED_EDGE('',*,*,#572,.T.);
#272=ORIENTED_EDGE('',*,*,#587,.T.);
#273=ORIENTED_EDGE('',*,*,#588,.T.);
#274=ORIENTED_EDGE('',*,*,#584,.T.);
#275=ORIENTED_EDGE('',*,*,#589,.F.);
#276=ORIENTED_EDGE('',*,*,#590,.F.);
#277=ORIENTED_EDGE('',*,*,#580,.T.);
#278=ORIENTED_EDGE('',*,*,#591,.F.);
#279=ORIENTED_EDGE('',*,*,#592,.F.);
#280=ORIENTED_EDGE('',*,*,#576,.T.);
#281=ORIENTED_EDGE('',*,*,#593,.T.);
#282=ORIENTED_EDGE('',*,*,#594,.T.);
#283=ORIENTED_EDGE('',*,*,#595,.F.);
#284=ORIENTED_EDGE('',*,*,#596,.F.);
#285=ORIENTED_EDGE('',*,*,#597,.T.);
#286=ORIENTED_EDGE('',*,*,#598,.T.);
#287=ORIENTED_EDGE('',*,*,#599,.F.);
#288=ORIENTED_EDGE('',*,*,#600,.F.);
#289=ORIENTED_EDGE('',*,*,#601,.F.);
#290=ORIENTED_EDGE('',*,*,#562,.T.);
#291=ORIENTED_EDGE('',*,*,#602,.F.);
#292=ORIENTED_EDGE('',*,*,#603,.F.);
#293=ORIENTED_EDGE('',*,*,#604,.T.);
#294=ORIENTED_EDGE('',*,*,#605,.T.);
#295=ORIENTED_EDGE('',*,*,#606,.F.);
#296=ORIENTED_EDGE('',*,*,#607,.F.);
#297=ORIENTED_EDGE('',*,*,#608,.T.);
#298=ORIENTED_EDGE('',*,*,#558,.T.);
#299=ORIENTED_EDGE('',*,*,#609,.F.);
#300=ORIENTED_EDGE('',*,*,#610,.F.);
#301=ORIENTED_EDGE('',*,*,#611,.T.);
#302=ORIENTED_EDGE('',*,*,#612,.T.);
#303=ORIENTED_EDGE('',*,*,#613,.F.);
#304=ORIENTED_EDGE('',*,*,#614,.F.);
#305=ORIENTED_EDGE('',*,*,#615,.T.);
#306=ORIENTED_EDGE('',*,*,#560,.T.);
#307=ORIENTED_EDGE('',*,*,#616,.F.);
#308=ORIENTED_EDGE('',*,*,#617,.T.);
#309=ORIENTED_EDGE('',*,*,#618,.T.);
#310=ORIENTED_EDGE('',*,*,#565,.F.);
#311=ORIENTED_EDGE('',*,*,#619,.F.);
#312=ORIENTED_EDGE('',*,*,#620,.T.);
#313=ORIENTED_EDGE('',*,*,#621,.T.);
#314=ORIENTED_EDGE('',*,*,#622,.F.);
#315=ORIENTED_EDGE('',*,*,#623,.T.);
#316=ORIENTED_EDGE('',*,*,#624,.T.);
#317=ORIENTED_EDGE('',*,*,#625,.T.);
#318=ORIENTED_EDGE('',*,*,#626,.T.);
#319=ORIENTED_EDGE('',*,*,#627,.T.);
#320=ORIENTED_EDGE('',*,*,#628,.F.);
#321=ORIENTED_EDGE('',*,*,#629,.T.);
#322=ORIENTED_EDGE('',*,*,#617,.F.);
#323=ORIENTED_EDGE('',*,*,#630,.F.);
#324=ORIENTED_EDGE('',*,*,#631,.F.);
#325=ORIENTED_EDGE('',*,*,#596,.T.);
#326=ORIENTED_EDGE('',*,*,#632,.T.);
#327=ORIENTED_EDGE('',*,*,#610,.T.);
#328=ORIENTED_EDGE('',*,*,#633,.T.);
#329=ORIENTED_EDGE('',*,*,#603,.T.);
#330=ORIENTED_EDGE('',*,*,#634,.T.);
#331=ORIENTED_EDGE('',*,*,#635,.T.);
#332=ORIENTED_EDGE('',*,*,#636,.T.);
#333=ORIENTED_EDGE('',*,*,#637,.T.);
#334=ORIENTED_EDGE('',*,*,#638,.T.);
#335=ORIENTED_EDGE('',*,*,#639,.T.);
#336=ORIENTED_EDGE('',*,*,#640,.F.);
#337=ORIENTED_EDGE('',*,*,#641,.F.);
#338=ORIENTED_EDGE('',*,*,#642,.F.);
#339=ORIENTED_EDGE('',*,*,#643,.F.);
#340=ORIENTED_EDGE('',*,*,#644,.F.);
#341=ORIENTED_EDGE('',*,*,#645,.F.);
#342=ORIENTED_EDGE('',*,*,#646,.F.);
#343=ORIENTED_EDGE('',*,*,#647,.F.);
#344=ORIENTED_EDGE('',*,*,#605,.F.);
#345=ORIENTED_EDGE('',*,*,#648,.F.);
#346=ORIENTED_EDGE('',*,*,#612,.F.);
#347=ORIENTED_EDGE('',*,*,#649,.F.);
#348=ORIENTED_EDGE('',*,*,#598,.F.);
#349=ORIENTED_EDGE('',*,*,#650,.T.);
#350=ORIENTED_EDGE('',*,*,#651,.T.);
#351=ORIENTED_EDGE('',*,*,#622,.T.);
#352=ORIENTED_EDGE('',*,*,#652,.T.);
#353=ORIENTED_EDGE('',*,*,#653,.T.);
#354=ORIENTED_EDGE('',*,*,#654,.F.);
#355=ORIENTED_EDGE('',*,*,#655,.F.);
#356=ORIENTED_EDGE('',*,*,#656,.T.);
#357=ORIENTED_EDGE('',*,*,#657,.T.);
#358=ORIENTED_EDGE('',*,*,#658,.T.);
#359=ORIENTED_EDGE('',*,*,#659,.T.);
#360=ORIENTED_EDGE('',*,*,#660,.T.);
#361=ORIENTED_EDGE('',*,*,#661,.F.);
#362=ORIENTED_EDGE('',*,*,#662,.F.);
#363=ORIENTED_EDGE('',*,*,#620,.F.);
#364=ORIENTED_EDGE('',*,*,#663,.F.);
#365=ORIENTED_EDGE('',*,*,#664,.F.);
#366=ORIENTED_EDGE('',*,*,#600,.T.);
#367=ORIENTED_EDGE('',*,*,#665,.T.);
#368=ORIENTED_EDGE('',*,*,#614,.T.);
#369=ORIENTED_EDGE('',*,*,#666,.T.);
#370=ORIENTED_EDGE('',*,*,#607,.T.);
#371=ORIENTED_EDGE('',*,*,#667,.T.);
#372=ORIENTED_EDGE('',*,*,#668,.T.);
#373=ORIENTED_EDGE('',*,*,#669,.T.);
#374=ORIENTED_EDGE('',*,*,#670,.T.);
#375=ORIENTED_EDGE('',*,*,#671,.T.);
#376=ORIENTED_EDGE('',*,*,#672,.T.);
#377=ORIENTED_EDGE('',*,*,#567,.F.);
#378=ORIENTED_EDGE('',*,*,#673,.F.);
#379=ORIENTED_EDGE('',*,*,#628,.T.);
#380=ORIENTED_EDGE('',*,*,#674,.T.);
#381=ORIENTED_EDGE('',*,*,#653,.F.);
#382=ORIENTED_EDGE('',*,*,#675,.T.);
#383=ORIENTED_EDGE('',*,*,#661,.T.);
#384=ORIENTED_EDGE('',*,*,#629,.F.);
#385=ORIENTED_EDGE('',*,*,#673,.T.);
#386=ORIENTED_EDGE('',*,*,#566,.T.);
#387=ORIENTED_EDGE('',*,*,#618,.F.);
#388=ORIENTED_EDGE('',*,*,#662,.T.);
#389=ORIENTED_EDGE('',*,*,#675,.F.);
#390=ORIENTED_EDGE('',*,*,#652,.F.);
#391=ORIENTED_EDGE('',*,*,#621,.F.);
#392=ORIENTED_EDGE('',*,*,#556,.T.);
#393=ORIENTED_EDGE('',*,*,#676,.F.);
#394=ORIENTED_EDGE('',*,*,#668,.F.);
#395=ORIENTED_EDGE('',*,*,#677,.T.);
#396=ORIENTED_EDGE('',*,*,#646,.T.);
#397=ORIENTED_EDGE('',*,*,#678,.F.);
#398=ORIENTED_EDGE('',*,*,#635,.F.);
#399=ORIENTED_EDGE('',*,*,#679,.T.);
#400=ORIENTED_EDGE('',*,*,#553,.T.);
#401=ORIENTED_EDGE('',*,*,#680,.F.);
#402=ORIENTED_EDGE('',*,*,#671,.F.);
#403=ORIENTED_EDGE('',*,*,#681,.T.);
#404=ORIENTED_EDGE('',*,*,#643,.T.);
#405=ORIENTED_EDGE('',*,*,#682,.F.);
#406=ORIENTED_EDGE('',*,*,#638,.F.);
#407=ORIENTED_EDGE('',*,*,#683,.T.);
#408=ORIENTED_EDGE('',*,*,#658,.F.);
#409=ORIENTED_EDGE('',*,*,#684,.T.);
#410=ORIENTED_EDGE('',*,*,#550,.T.);
#411=ORIENTED_EDGE('',*,*,#685,.F.);
#412=ORIENTED_EDGE('',*,*,#625,.F.);
#413=ORIENTED_EDGE('',*,*,#686,.T.);
#414=ORIENTED_EDGE('',*,*,#640,.T.);
#415=ORIENTED_EDGE('',*,*,#687,.F.);
#416=ORIENTED_EDGE('',*,*,#655,.T.);
#417=ORIENTED_EDGE('',*,*,#688,.F.);
#418=ORIENTED_EDGE('',*,*,#626,.F.);
#419=ORIENTED_EDGE('',*,*,#687,.T.);
#420=ORIENTED_EDGE('',*,*,#654,.T.);
#421=ORIENTED_EDGE('',*,*,#674,.F.);
#422=ORIENTED_EDGE('',*,*,#627,.F.);
#423=ORIENTED_EDGE('',*,*,#688,.T.);
#424=ORIENTED_EDGE('',*,*,#568,.T.);
#425=ORIENTED_EDGE('',*,*,#672,.F.);
#426=ORIENTED_EDGE('',*,*,#660,.F.);
#427=ORIENTED_EDGE('',*,*,#689,.T.);
#428=ORIENTED_EDGE('',*,*,#685,.T.);
#429=ORIENTED_EDGE('',*,*,#569,.T.);
#430=ORIENTED_EDGE('',*,*,#689,.F.);
#431=ORIENTED_EDGE('',*,*,#659,.F.);
#432=ORIENTED_EDGE('',*,*,#664,.T.);
#433=ORIENTED_EDGE('',*,*,#690,.T.);
#434=ORIENTED_EDGE('',*,*,#563,.F.);
#435=ORIENTED_EDGE('',*,*,#601,.T.);
#436=ORIENTED_EDGE('',*,*,#663,.T.);
#437=ORIENTED_EDGE('',*,*,#619,.T.);
#438=ORIENTED_EDGE('',*,*,#564,.F.);
#439=ORIENTED_EDGE('',*,*,#690,.F.);
#440=ORIENTED_EDGE('',*,*,#691,.F.);
#441=ORIENTED_EDGE('',*,*,#630,.T.);
#442=ORIENTED_EDGE('',*,*,#616,.T.);
#443=ORIENTED_EDGE('',*,*,#651,.F.);
#444=ORIENTED_EDGE('',*,*,#597,.F.);
#445=ORIENTED_EDGE('',*,*,#631,.T.);
#446=ORIENTED_EDGE('',*,*,#691,.T.);
#447=ORIENTED_EDGE('',*,*,#650,.F.);
#448=ORIENTED_EDGE('',*,*,#641,.T.);
#449=ORIENTED_EDGE('',*,*,#686,.F.);
#450=ORIENTED_EDGE('',*,*,#624,.F.);
#451=ORIENTED_EDGE('',*,*,#692,.T.);
#452=ORIENTED_EDGE('',*,*,#642,.T.);
#453=ORIENTED_EDGE('',*,*,#692,.F.);
#454=ORIENTED_EDGE('',*,*,#639,.F.);
#455=ORIENTED_EDGE('',*,*,#682,.T.);
#456=ORIENTED_EDGE('',*,*,#657,.F.);
#457=ORIENTED_EDGE('',*,*,#693,.T.);
#458=ORIENTED_EDGE('',*,*,#551,.T.);
#459=ORIENTED_EDGE('',*,*,#684,.F.);
#460=ORIENTED_EDGE('',*,*,#680,.T.);
#461=ORIENTED_EDGE('',*,*,#552,.T.);
#462=ORIENTED_EDGE('',*,*,#693,.F.);
#463=ORIENTED_EDGE('',*,*,#656,.F.);
#464=ORIENTED_EDGE('',*,*,#644,.T.);
#465=ORIENTED_EDGE('',*,*,#683,.F.);
#466=ORIENTED_EDGE('',*,*,#637,.F.);
#467=ORIENTED_EDGE('',*,*,#694,.T.);
#468=ORIENTED_EDGE('',*,*,#645,.T.);
#469=ORIENTED_EDGE('',*,*,#694,.F.);
#470=ORIENTED_EDGE('',*,*,#636,.F.);
#471=ORIENTED_EDGE('',*,*,#678,.T.);
#472=ORIENTED_EDGE('',*,*,#670,.F.);
#473=ORIENTED_EDGE('',*,*,#695,.T.);
#474=ORIENTED_EDGE('',*,*,#554,.T.);
#475=ORIENTED_EDGE('',*,*,#681,.F.);
#476=ORIENTED_EDGE('',*,*,#676,.T.);
#477=ORIENTED_EDGE('',*,*,#555,.T.);
#478=ORIENTED_EDGE('',*,*,#695,.F.);
#479=ORIENTED_EDGE('',*,*,#669,.F.);
#480=ORIENTED_EDGE('',*,*,#647,.T.);
#481=ORIENTED_EDGE('',*,*,#679,.F.);
#482=ORIENTED_EDGE('',*,*,#634,.F.);
#483=ORIENTED_EDGE('',*,*,#602,.T.);
#484=ORIENTED_EDGE('',*,*,#606,.T.);
#485=ORIENTED_EDGE('',*,*,#557,.T.);
#486=ORIENTED_EDGE('',*,*,#677,.F.);
#487=ORIENTED_EDGE('',*,*,#667,.F.);
#488=ORIENTED_EDGE('',*,*,#599,.T.);
#489=ORIENTED_EDGE('',*,*,#561,.T.);
#490=ORIENTED_EDGE('',*,*,#615,.F.);
#491=ORIENTED_EDGE('',*,*,#665,.F.);
#492=ORIENTED_EDGE('',*,*,#613,.T.);
#493=ORIENTED_EDGE('',*,*,#559,.T.);
#494=ORIENTED_EDGE('',*,*,#608,.F.);
#495=ORIENTED_EDGE('',*,*,#666,.F.);
#496=ORIENTED_EDGE('',*,*,#649,.T.);
#497=ORIENTED_EDGE('',*,*,#611,.F.);
#498=ORIENTED_EDGE('',*,*,#632,.F.);
#499=ORIENTED_EDGE('',*,*,#595,.T.);
#500=ORIENTED_EDGE('',*,*,#648,.T.);
#501=ORIENTED_EDGE('',*,*,#604,.F.);
#502=ORIENTED_EDGE('',*,*,#633,.F.);
#503=ORIENTED_EDGE('',*,*,#609,.T.);
#504=ORIENTED_EDGE('',*,*,#586,.F.);
#505=ORIENTED_EDGE('',*,*,#623,.F.);
#506=ORIENTED_EDGE('',*,*,#589,.T.);
#507=ORIENTED_EDGE('',*,*,#583,.F.);
#508=ORIENTED_EDGE('',*,*,#696,.T.);
#509=ORIENTED_EDGE('',*,*,#697,.T.);
#510=ORIENTED_EDGE('',*,*,#590,.T.);
#511=ORIENTED_EDGE('',*,*,#697,.F.);
#512=ORIENTED_EDGE('',*,*,#698,.T.);
#513=ORIENTED_EDGE('',*,*,#581,.T.);
#514=ORIENTED_EDGE('',*,*,#582,.F.);
#515=ORIENTED_EDGE('',*,*,#698,.F.);
#516=ORIENTED_EDGE('',*,*,#696,.F.);
#517=ORIENTED_EDGE('',*,*,#591,.T.);
#518=ORIENTED_EDGE('',*,*,#579,.F.);
#519=ORIENTED_EDGE('',*,*,#699,.T.);
#520=ORIENTED_EDGE('',*,*,#700,.T.);
#521=ORIENTED_EDGE('',*,*,#592,.T.);
#522=ORIENTED_EDGE('',*,*,#700,.F.);
#523=ORIENTED_EDGE('',*,*,#701,.T.);
#524=ORIENTED_EDGE('',*,*,#577,.T.);
#525=ORIENTED_EDGE('',*,*,#578,.F.);
#526=ORIENTED_EDGE('',*,*,#701,.F.);
#527=ORIENTED_EDGE('',*,*,#699,.F.);
#528=ORIENTED_EDGE('',*,*,#702,.F.);
#529=ORIENTED_EDGE('',*,*,#703,.F.);
#530=ORIENTED_EDGE('',*,*,#573,.T.);
#531=ORIENTED_EDGE('',*,*,#594,.F.);
#532=ORIENTED_EDGE('',*,*,#575,.F.);
#533=ORIENTED_EDGE('',*,*,#704,.F.);
#534=ORIENTED_EDGE('',*,*,#702,.T.);
#535=ORIENTED_EDGE('',*,*,#593,.F.);
#536=ORIENTED_EDGE('',*,*,#574,.T.);
#537=ORIENTED_EDGE('',*,*,#703,.T.);
#538=ORIENTED_EDGE('',*,*,#704,.T.);
#539=ORIENTED_EDGE('',*,*,#571,.F.);
#540=ORIENTED_EDGE('',*,*,#705,.F.);
#541=ORIENTED_EDGE('',*,*,#706,.T.);
#542=ORIENTED_EDGE('',*,*,#587,.F.);
#543=ORIENTED_EDGE('',*,*,#706,.F.);
#544=ORIENTED_EDGE('',*,*,#707,.F.);
#545=ORIENTED_EDGE('',*,*,#585,.T.);
#546=ORIENTED_EDGE('',*,*,#588,.F.);
#547=ORIENTED_EDGE('',*,*,#570,.T.);
#548=ORIENTED_EDGE('',*,*,#707,.T.);
#549=ORIENTED_EDGE('',*,*,#705,.T.);
#550=EDGE_CURVE('',#708,#709,#814,.T.);
#551=EDGE_CURVE('',#710,#708,#815,.T.);
#552=EDGE_CURVE('',#711,#710,#58,.T.);
#553=EDGE_CURVE('',#712,#711,#816,.T.);
#554=EDGE_CURVE('',#713,#712,#817,.T.);
#555=EDGE_CURVE('',#714,#713,#59,.T.);
#556=EDGE_CURVE('',#715,#714,#818,.T.);
#557=EDGE_CURVE('',#716,#715,#819,.T.);
#558=EDGE_CURVE('',#717,#716,#820,.T.);
#559=EDGE_CURVE('',#718,#717,#821,.T.);
#560=EDGE_CURVE('',#719,#718,#822,.T.);
#561=EDGE_CURVE('',#720,#719,#823,.T.);
#562=EDGE_CURVE('',#721,#720,#824,.T.);
#563=EDGE_CURVE('',#721,#722,#60,.T.);
#564=EDGE_CURVE('',#722,#723,#825,.T.);
#565=EDGE_CURVE('',#723,#724,#61,.T.);
#566=EDGE_CURVE('',#725,#724,#826,.T.);
#567=EDGE_CURVE('',#725,#726,#62,.T.);
#568=EDGE_CURVE('',#727,#726,#827,.T.);
#569=EDGE_CURVE('',#709,#727,#63,.T.);
#570=EDGE_CURVE('',#728,#729,#64,.T.);
#571=EDGE_CURVE('',#728,#730,#65,.T.);
#572=EDGE_CURVE('',#731,#730,#828,.T.);
#573=EDGE_CURVE('',#732,#731,#66,.T.);
#574=EDGE_CURVE('',#733,#732,#67,.T.);
#575=EDGE_CURVE('',#733,#734,#68,.T.);
#576=EDGE_CURVE('',#735,#734,#829,.T.);
#577=EDGE_CURVE('',#736,#735,#69,.T.);
#578=EDGE_CURVE('',#736,#737,#70,.T.);
#579=EDGE_CURVE('',#737,#738,#71,.T.);
#580=EDGE_CURVE('',#739,#738,#830,.T.);
#581=EDGE_CURVE('',#740,#739,#72,.T.);
#582=EDGE_CURVE('',#740,#741,#73,.T.);
#583=EDGE_CURVE('',#741,#742,#74,.T.);
#584=EDGE_CURVE('',#743,#742,#831,.T.);
#585=EDGE_CURVE('',#729,#743,#75,.T.);
#586=EDGE_CURVE('',#744,#744,#832,.T.);
#587=EDGE_CURVE('',#730,#745,#21,.F.);
#588=EDGE_CURVE('',#745,#743,#22,.F.);
#589=EDGE_CURVE('',#746,#742,#23,.F.);
#590=EDGE_CURVE('',#739,#746,#24,.F.);
#591=EDGE_CURVE('',#747,#738,#25,.F.);
#592=EDGE_CURVE('',#735,#747,#26,.F.);
#593=EDGE_CURVE('',#734,#748,#27,.F.);
#594=EDGE_CURVE('',#748,#731,#28,.F.);
#595=EDGE_CURVE('',#749,#750,#76,.T.);
#596=EDGE_CURVE('',#751,#749,#833,.T.);
#597=EDGE_CURVE('',#751,#752,#77,.T.);
#598=EDGE_CURVE('',#752,#750,#834,.T.);
#599=EDGE_CURVE('',#753,#720,#78,.T.);
#600=EDGE_CURVE('',#754,#753,#835,.T.);
#601=EDGE_CURVE('',#721,#754,#79,.F.);
#602=EDGE_CURVE('',#755,#756,#80,.T.);
#603=EDGE_CURVE('',#757,#755,#836,.T.);
#604=EDGE_CURVE('',#757,#758,#81,.T.);
#605=EDGE_CURVE('',#758,#756,#837,.T.);
#606=EDGE_CURVE('',#759,#716,#82,.T.);
#607=EDGE_CURVE('',#760,#759,#838,.T.);
#608=EDGE_CURVE('',#760,#717,#83,.T.);
#609=EDGE_CURVE('',#761,#762,#84,.T.);
#610=EDGE_CURVE('',#763,#761,#839,.T.);
#611=EDGE_CURVE('',#763,#764,#85,.T.);
#612=EDGE_CURVE('',#764,#762,#840,.T.);
#613=EDGE_CURVE('',#765,#718,#86,.T.);
#614=EDGE_CURVE('',#766,#765,#841,.T.);
#615=EDGE_CURVE('',#766,#719,#87,.T.);
#616=EDGE_CURVE('',#767,#768,#88,.T.);
#617=EDGE_CURVE('',#767,#769,#89,.T.);
#618=EDGE_CURVE('',#769,#724,#90,.T.);
#619=EDGE_CURVE('',#770,#723,#91,.T.);
#620=EDGE_CURVE('',#770,#771,#92,.T.);
#621=EDGE_CURVE('',#771,#772,#93,.F.);
#622=EDGE_CURVE('',#768,#772,#94,.T.);
#623=EDGE_CURVE('',#773,#773,#842,.F.);
#624=EDGE_CURVE('',#774,#775,#843,.T.);
#625=EDGE_CURVE('',#775,#776,#844,.T.);
#626=EDGE_CURVE('',#776,#777,#95,.T.);
#627=EDGE_CURVE('',#777,#778,#845,.T.);
#628=EDGE_CURVE('',#779,#778,#96,.T.);
#629=EDGE_CURVE('',#779,#769,#846,.T.);
#630=EDGE_CURVE('',#780,#767,#847,.T.);
#631=EDGE_CURVE('',#751,#780,#97,.T.);
#632=EDGE_CURVE('',#749,#763,#848,.T.);
#633=EDGE_CURVE('',#761,#757,#849,.T.);
#634=EDGE_CURVE('',#755,#781,#850,.T.);
#635=EDGE_CURVE('',#781,#782,#851,.T.);
#636=EDGE_CURVE('',#782,#783,#98,.T.);
#637=EDGE_CURVE('',#783,#784,#852,.T.);
#638=EDGE_CURVE('',#784,#785,#853,.T.);
#639=EDGE_CURVE('',#785,#774,#99,.T.);
#640=EDGE_CURVE('',#786,#787,#854,.T.);
#641=EDGE_CURVE('',#788,#786,#855,.F.);
#642=EDGE_CURVE('',#789,#788,#100,.T.);
#643=EDGE_CURVE('',#790,#789,#856,.T.);
#644=EDGE_CURVE('',#791,#790,#857,.F.);
#645=EDGE_CURVE('',#792,#791,#101,.T.);
#646=EDGE_CURVE('',#793,#792,#858,.T.);
#647=EDGE_CURVE('',#756,#793,#859,.F.);
#648=EDGE_CURVE('',#762,#758,#860,.F.);
#649=EDGE_CURVE('',#750,#764,#861,.F.);
#650=EDGE_CURVE('',#752,#794,#102,.T.);
#651=EDGE_CURVE('',#794,#768,#862,.T.);
#652=EDGE_CURVE('',#772,#795,#863,.T.);
#653=EDGE_CURVE('',#795,#796,#103,.T.);
#654=EDGE_CURVE('',#797,#796,#864,.F.);
#655=EDGE_CURVE('',#787,#797,#104,.T.);
#656=EDGE_CURVE('',#798,#799,#105,.T.);
#657=EDGE_CURVE('',#799,#800,#865,.F.);
#658=EDGE_CURVE('',#800,#801,#866,.T.);
#659=EDGE_CURVE('',#801,#802,#106,.T.);
#660=EDGE_CURVE('',#802,#803,#867,.F.);
#661=EDGE_CURVE('',#804,#803,#107,.T.);
#662=EDGE_CURVE('',#771,#804,#868,.T.);
#663=EDGE_CURVE('',#805,#770,#869,.T.);
#664=EDGE_CURVE('',#754,#805,#108,.T.);
#665=EDGE_CURVE('',#753,#766,#870,.F.);
#666=EDGE_CURVE('',#765,#760,#871,.F.);
#667=EDGE_CURVE('',#759,#806,#872,.F.);
#668=EDGE_CURVE('',#806,#807,#873,.T.);
#669=EDGE_CURVE('',#807,#808,#109,.T.);
#670=EDGE_CURVE('',#808,#809,#874,.F.);
#671=EDGE_CURVE('',#809,#798,#875,.T.);
#672=EDGE_CURVE('',#803,#726,#110,.T.);
#673=EDGE_CURVE('',#779,#725,#111,.T.);
#674=EDGE_CURVE('',#778,#796,#112,.T.);
#675=EDGE_CURVE('',#795,#804,#113,.T.);
#676=EDGE_CURVE('',#807,#714,#114,.T.);
#677=EDGE_CURVE('',#806,#715,#115,.T.);
#678=EDGE_CURVE('',#782,#792,#116,.T.);
#679=EDGE_CURVE('',#781,#793,#117,.T.);
#680=EDGE_CURVE('',#798,#711,#118,.T.);
#681=EDGE_CURVE('',#809,#712,#119,.T.);
#682=EDGE_CURVE('',#785,#789,#120,.T.);
#683=EDGE_CURVE('',#784,#790,#121,.T.);
#684=EDGE_CURVE('',#800,#708,#122,.T.);
#685=EDGE_CURVE('',#801,#709,#123,.T.);
#686=EDGE_CURVE('',#775,#786,#124,.T.);
#687=EDGE_CURVE('',#776,#787,#125,.T.);
#688=EDGE_CURVE('',#777,#797,#126,.T.);
#689=EDGE_CURVE('',#802,#727,#127,.T.);
#690=EDGE_CURVE('',#805,#722,#128,.T.);
#691=EDGE_CURVE('',#780,#794,#129,.T.);
#692=EDGE_CURVE('',#774,#788,#130,.T.);
#693=EDGE_CURVE('',#799,#710,#131,.T.);
#694=EDGE_CURVE('',#783,#791,#132,.T.);
#695=EDGE_CURVE('',#808,#713,#133,.T.);
#696=EDGE_CURVE('',#741,#810,#134,.T.);
#697=EDGE_CURVE('',#810,#746,#135,.T.);
#698=EDGE_CURVE('',#810,#740,#136,.T.);
#699=EDGE_CURVE('',#737,#811,#137,.T.);
#700=EDGE_CURVE('',#811,#747,#138,.T.);
#701=EDGE_CURVE('',#811,#736,#139,.T.);
#702=EDGE_CURVE('',#812,#748,#140,.T.);
#703=EDGE_CURVE('',#732,#812,#141,.T.);
#704=EDGE_CURVE('',#812,#733,#142,.T.);
#705=EDGE_CURVE('',#813,#728,#143,.T.);
#706=EDGE_CURVE('',#813,#745,#144,.T.);
#707=EDGE_CURVE('',#729,#813,#145,.T.);
#708=VERTEX_POINT('',#1554);
#709=VERTEX_POINT('',#1555);
#710=VERTEX_POINT('',#1557);
#711=VERTEX_POINT('',#1559);
#712=VERTEX_POINT('',#1561);
#713=VERTEX_POINT('',#1563);
#714=VERTEX_POINT('',#1565);
#715=VERTEX_POINT('',#1567);
#716=VERTEX_POINT('',#1569);
#717=VERTEX_POINT('',#1571);
#718=VERTEX_POINT('',#1573);
#719=VERTEX_POINT('',#1575);
#720=VERTEX_POINT('',#1577);
#721=VERTEX_POINT('',#1579);
#722=VERTEX_POINT('',#1581);
#723=VERTEX_POINT('',#1583);
#724=VERTEX_POINT('',#1585);
#725=VERTEX_POINT('',#1587);
#726=VERTEX_POINT('',#1589);
#727=VERTEX_POINT('',#1591);
#728=VERTEX_POINT('',#1594);
#729=VERTEX_POINT('',#1595);
#730=VERTEX_POINT('',#1597);
#731=VERTEX_POINT('',#1599);
#732=VERTEX_POINT('',#1601);
#733=VERTEX_POINT('',#1603);
#734=VERTEX_POINT('',#1605);
#735=VERTEX_POINT('',#1607);
#736=VERTEX_POINT('',#1609);
#737=VERTEX_POINT('',#1611);
#738=VERTEX_POINT('',#1613);
#739=VERTEX_POINT('',#1615);
#740=VERTEX_POINT('',#1617);
#741=VERTEX_POINT('',#1619);
#742=VERTEX_POINT('',#1621);
#743=VERTEX_POINT('',#1623);
#744=VERTEX_POINT('',#1627);
#745=VERTEX_POINT('',#1629);
#746=VERTEX_POINT('',#1632);
#747=VERTEX_POINT('',#1635);
#748=VERTEX_POINT('',#1638);
#749=VERTEX_POINT('',#1642);
#750=VERTEX_POINT('',#1643);
#751=VERTEX_POINT('',#1645);
#752=VERTEX_POINT('',#1647);
#753=VERTEX_POINT('',#1651);
#754=VERTEX_POINT('',#1653);
#755=VERTEX_POINT('',#1657);
#756=VERTEX_POINT('',#1658);
#757=VERTEX_POINT('',#1660);
#758=VERTEX_POINT('',#1662);
#759=VERTEX_POINT('',#1666);
#760=VERTEX_POINT('',#1668);
#761=VERTEX_POINT('',#1672);
#762=VERTEX_POINT('',#1673);
#763=VERTEX_POINT('',#1675);
#764=VERTEX_POINT('',#1677);
#765=VERTEX_POINT('',#1681);
#766=VERTEX_POINT('',#1683);
#767=VERTEX_POINT('',#1687);
#768=VERTEX_POINT('',#1688);
#769=VERTEX_POINT('',#1690);
#770=VERTEX_POINT('',#1693);
#771=VERTEX_POINT('',#1695);
#772=VERTEX_POINT('',#1697);
#773=VERTEX_POINT('',#1701);
#774=VERTEX_POINT('',#1703);
#775=VERTEX_POINT('',#1704);
#776=VERTEX_POINT('',#1706);
#777=VERTEX_POINT('',#1708);
#778=VERTEX_POINT('',#1710);
#779=VERTEX_POINT('',#1712);
#780=VERTEX_POINT('',#1715);
#781=VERTEX_POINT('',#1720);
#782=VERTEX_POINT('',#1722);
#783=VERTEX_POINT('',#1724);
#784=VERTEX_POINT('',#1726);
#785=VERTEX_POINT('',#1728);
#786=VERTEX_POINT('',#1732);
#787=VERTEX_POINT('',#1733);
#788=VERTEX_POINT('',#1735);
#789=VERTEX_POINT('',#1737);
#790=VERTEX_POINT('',#1739);
#791=VERTEX_POINT('',#1741);
#792=VERTEX_POINT('',#1743);
#793=VERTEX_POINT('',#1745);
#794=VERTEX_POINT('',#1750);
#795=VERTEX_POINT('',#1753);
#796=VERTEX_POINT('',#1755);
#797=VERTEX_POINT('',#1757);
#798=VERTEX_POINT('',#1761);
#799=VERTEX_POINT('',#1762);
#800=VERTEX_POINT('',#1764);
#801=VERTEX_POINT('',#1766);
#802=VERTEX_POINT('',#1768);
#803=VERTEX_POINT('',#1770);
#804=VERTEX_POINT('',#1772);
#805=VERTEX_POINT('',#1775);
#806=VERTEX_POINT('',#1780);
#807=VERTEX_POINT('',#1782);
#808=VERTEX_POINT('',#1784);
#809=VERTEX_POINT('',#1786);
#810=VERTEX_POINT('',#1846);
#811=VERTEX_POINT('',#1853);
#812=VERTEX_POINT('',#1860);
#813=VERTEX_POINT('',#1867);
#814=CIRCLE('',#1084,0.0016);
#815=CIRCLE('',#1085,0.00026049727272568);
#816=CIRCLE('',#1086,0.0016);
#817=CIRCLE('',#1087,0.000724296887812924);
#818=CIRCLE('',#1088,0.0016);
#819=CIRCLE('',#1089,0.000797527904036957);
#820=CIRCLE('',#1090,0.0016);
#821=CIRCLE('',#1091,0.000797527904036954);
#822=CIRCLE('',#1092,0.0016);
#823=CIRCLE('',#1093,0.000797527904036949);
#824=CIRCLE('',#1094,0.0016);
#825=CIRCLE('',#1095,0.000683368407077697);
#826=CIRCLE('',#1096,0.016);
#827=CIRCLE('',#1097,0.000725675350944113);
#828=CIRCLE('',#1098,0.00175);
#829=CIRCLE('',#1099,0.00175);
#830=CIRCLE('',#1100,0.00175);
#831=CIRCLE('',#1101,0.00175);
#832=CIRCLE('',#1103,0.00175);
#833=CIRCLE('',#1113,0.0016);
#834=CIRCLE('',#1114,0.0016);
#835=CIRCLE('',#1116,0.0016);
#836=CIRCLE('',#1118,0.0016);
#837=CIRCLE('',#1119,0.0016);
#838=CIRCLE('',#1121,0.0016);
#839=CIRCLE('',#1123,0.0016);
#840=CIRCLE('',#1124,0.0016);
#841=CIRCLE('',#1126,0.0016);
#842=CIRCLE('',#1129,0.00195);
#843=CIRCLE('',#1130,0.00026049727272568);
#844=CIRCLE('',#1131,0.0016);
#845=CIRCLE('',#1132,0.000725675350944113);
#846=CIRCLE('',#1133,0.016);
#847=CIRCLE('',#1134,0.000683368407077697);
#848=CIRCLE('',#1135,0.000797527904036949);
#849=CIRCLE('',#1136,0.000797527904036954);
#850=CIRCLE('',#1137,0.000797527904036957);
#851=CIRCLE('',#1138,0.0016);
#852=CIRCLE('',#1139,0.000724296887812924);
#853=CIRCLE('',#1140,0.0016);
#854=CIRCLE('',#1142,0.0016);
#855=CIRCLE('',#1143,0.00026049727272568);
#856=CIRCLE('',#1144,0.0016);
#857=CIRCLE('',#1145,0.000724296887812924);
#858=CIRCLE('',#1146,0.0016);
#859=CIRCLE('',#1147,0.000797527904036957);
#860=CIRCLE('',#1148,0.000797527904036954);
#861=CIRCLE('',#1149,0.000797527904036949);
#862=CIRCLE('',#1150,0.000683368407077697);
#863=CIRCLE('',#1151,0.016);
#864=CIRCLE('',#1152,0.000725675350944113);
#865=CIRCLE('',#1154,0.00026049727272568);
#866=CIRCLE('',#1155,0.0016);
#867=CIRCLE('',#1156,0.000725675350944113);
#868=CIRCLE('',#1157,0.016);
#869=CIRCLE('',#1158,0.000683368407077697);
#870=CIRCLE('',#1159,0.000797527904036949);
#871=CIRCLE('',#1160,0.000797527904036954);
#872=CIRCLE('',#1161,0.000797527904036957);
#873=CIRCLE('',#1162,0.0016);
#874=CIRCLE('',#1163,0.000724296887812924);
#875=CIRCLE('',#1164,0.0016);
#876=EDGE_LOOP('',(#234,#235,#236,#237,#238,#239,#240,#241,#242,#243,#244,
#245,#246,#247,#248,#249,#250,#251,#252,#253));
#877=EDGE_LOOP('',(#254,#255,#256,#257,#258,#259,#260,#261,#262,#263,#264,
#265,#266,#267,#268,#269));
#878=EDGE_LOOP('',(#270));
#879=EDGE_LOOP('',(#271,#272,#273,#274,#275,#276,#277,#278,#279,#280,#281,
#282));
#880=EDGE_LOOP('',(#283,#284,#285,#286));
#881=EDGE_LOOP('',(#287,#288,#289,#290));
#882=EDGE_LOOP('',(#291,#292,#293,#294));
#883=EDGE_LOOP('',(#295,#296,#297,#298));
#884=EDGE_LOOP('',(#299,#300,#301,#302));
#885=EDGE_LOOP('',(#303,#304,#305,#306));
#886=EDGE_LOOP('',(#307,#308,#309,#310,#311,#312,#313,#314));
#887=EDGE_LOOP('',(#315));
#888=EDGE_LOOP('',(#316,#317,#318,#319,#320,#321,#322,#323,#324,#325,#326,
#327,#328,#329,#330,#331,#332,#333,#334,#335));
#889=EDGE_LOOP('',(#336,#337,#338,#339,#340,#341,#342,#343,#344,#345,#346,
#347,#348,#349,#350,#351,#352,#353,#354,#355));
#890=EDGE_LOOP('',(#356,#357,#358,#359,#360,#361,#362,#363,#364,#365,#366,
#367,#368,#369,#370,#371,#372,#373,#374,#375));
#891=EDGE_LOOP('',(#376,#377,#378,#379,#380,#381,#382,#383));
#892=EDGE_LOOP('',(#384,#385,#386,#387));
#893=EDGE_LOOP('',(#388,#389,#390,#391));
#894=EDGE_LOOP('',(#392,#393,#394,#395));
#895=EDGE_LOOP('',(#396,#397,#398,#399));
#896=EDGE_LOOP('',(#400,#401,#402,#403));
#897=EDGE_LOOP('',(#404,#405,#406,#407));
#898=EDGE_LOOP('',(#408,#409,#410,#411));
#899=EDGE_LOOP('',(#412,#413,#414,#415));
#900=EDGE_LOOP('',(#416,#417,#418,#419));
#901=EDGE_LOOP('',(#420,#421,#422,#423));
#902=EDGE_LOOP('',(#424,#425,#426,#427));
#903=EDGE_LOOP('',(#428,#429,#430,#431));
#904=EDGE_LOOP('',(#432,#433,#434,#435));
#905=EDGE_LOOP('',(#436,#437,#438,#439));
#906=EDGE_LOOP('',(#440,#441,#442,#443));
#907=EDGE_LOOP('',(#444,#445,#446,#447));
#908=EDGE_LOOP('',(#448,#449,#450,#451));
#909=EDGE_LOOP('',(#452,#453,#454,#455));
#910=EDGE_LOOP('',(#456,#457,#458,#459));
#911=EDGE_LOOP('',(#460,#461,#462,#463));
#912=EDGE_LOOP('',(#464,#465,#466,#467));
#913=EDGE_LOOP('',(#468,#469,#470,#471));
#914=EDGE_LOOP('',(#472,#473,#474,#475));
#915=EDGE_LOOP('',(#476,#477,#478,#479));
#916=EDGE_LOOP('',(#480,#481,#482,#483));
#917=EDGE_LOOP('',(#484,#485,#486,#487));
#918=EDGE_LOOP('',(#488,#489,#490,#491));
#919=EDGE_LOOP('',(#492,#493,#494,#495));
#920=EDGE_LOOP('',(#496,#497,#498,#499));
#921=EDGE_LOOP('',(#500,#501,#502,#503));
#922=EDGE_LOOP('',(#504));
#923=EDGE_LOOP('',(#505));
#924=EDGE_LOOP('',(#506,#507,#508,#509));
#925=EDGE_LOOP('',(#510,#511,#512,#513));
#926=EDGE_LOOP('',(#514,#515,#516));
#927=EDGE_LOOP('',(#517,#518,#519,#520));
#928=EDGE_LOOP('',(#521,#522,#523,#524));
#929=EDGE_LOOP('',(#525,#526,#527));
#930=EDGE_LOOP('',(#528,#529,#530,#531));
#931=EDGE_LOOP('',(#532,#533,#534,#535));
#932=EDGE_LOOP('',(#536,#537,#538));
#933=EDGE_LOOP('',(#539,#540,#541,#542));
#934=EDGE_LOOP('',(#543,#544,#545,#546));
#935=EDGE_LOOP('',(#547,#548,#549));
#936=FACE_BOUND('',#876,.T.);
#937=FACE_BOUND('',#877,.T.);
#938=FACE_BOUND('',#878,.T.);
#939=FACE_BOUND('',#879,.T.);
#940=FACE_BOUND('',#880,.T.);
#941=FACE_BOUND('',#881,.T.);
#942=FACE_BOUND('',#882,.T.);
#943=FACE_BOUND('',#883,.T.);
#944=FACE_BOUND('',#884,.T.);
#945=FACE_BOUND('',#885,.T.);
#946=FACE_BOUND('',#886,.T.);
#947=FACE_BOUND('',#887,.T.);
#948=FACE_BOUND('',#888,.T.);
#949=FACE_BOUND('',#889,.T.);
#950=FACE_BOUND('',#890,.T.);
#951=FACE_BOUND('',#891,.T.);
#952=FACE_BOUND('',#892,.T.);
#953=FACE_BOUND('',#893,.T.);
#954=FACE_BOUND('',#894,.T.);
#955=FACE_BOUND('',#895,.T.);
#956=FACE_BOUND('',#896,.T.);
#957=FACE_BOUND('',#897,.T.);
#958=FACE_BOUND('',#898,.T.);
#959=FACE_BOUND('',#899,.T.);
#960=FACE_BOUND('',#900,.T.);
#961=FACE_BOUND('',#901,.T.);
#962=FACE_BOUND('',#902,.T.);
#963=FACE_BOUND('',#903,.T.);
#964=FACE_BOUND('',#904,.T.);
#965=FACE_BOUND('',#905,.T.);
#966=FACE_BOUND('',#906,.T.);
#967=FACE_BOUND('',#907,.T.);
#968=FACE_BOUND('',#908,.T.);
#969=FACE_BOUND('',#909,.T.);
#970=FACE_BOUND('',#910,.T.);
#971=FACE_BOUND('',#911,.T.);
#972=FACE_BOUND('',#912,.T.);
#973=FACE_BOUND('',#913,.T.);
#974=FACE_BOUND('',#914,.T.);
#975=FACE_BOUND('',#915,.T.);
#976=FACE_BOUND('',#916,.T.);
#977=FACE_BOUND('',#917,.T.);
#978=FACE_BOUND('',#918,.T.);
#979=FACE_BOUND('',#919,.T.);
#980=FACE_BOUND('',#920,.T.);
#981=FACE_BOUND('',#921,.T.);
#982=FACE_BOUND('',#922,.T.);
#983=FACE_BOUND('',#923,.T.);
#984=FACE_BOUND('',#924,.T.);
#985=FACE_BOUND('',#925,.T.);
#986=FACE_BOUND('',#926,.T.);
#987=FACE_BOUND('',#927,.T.);
#988=FACE_BOUND('',#928,.T.);
#989=FACE_BOUND('',#929,.T.);
#990=FACE_BOUND('',#930,.T.);
#991=FACE_BOUND('',#931,.T.);
#992=FACE_BOUND('',#932,.T.);
#993=FACE_BOUND('',#933,.T.);
#994=FACE_BOUND('',#934,.T.);
#995=FACE_BOUND('',#935,.T.);
#996=PLANE('',#1083);
#997=PLANE('',#1127);
#998=PLANE('',#1128);
#999=PLANE('',#1141);
#1000=PLANE('',#1153);
#1001=PLANE('',#1165);
#1002=PLANE('',#1174);
#1003=PLANE('',#1177);
#1004=PLANE('',#1178);
#1005=PLANE('',#1181);
#1006=PLANE('',#1183);
#1007=PLANE('',#1185);
#1008=PLANE('',#1187);
#1009=PLANE('',#1189);
#1010=PLANE('',#1197);
#1011=PLANE('',#1198);
#1012=PLANE('',#1199);
#1013=PLANE('',#1200);
#1014=PLANE('',#1201);
#1015=PLANE('',#1202);
#1016=PLANE('',#1203);
#1017=PLANE('',#1204);
#1018=PLANE('',#1205);
#1019=PLANE('',#1206);
#1020=PLANE('',#1207);
#1021=PLANE('',#1208);
#1022=ADVANCED_FACE('',(#936,#937),#996,.F.);
#1023=ADVANCED_FACE('',(#938,#939),#29,.F.);
#1024=ADVANCED_FACE('',(#940),#30,.F.);
#1025=ADVANCED_FACE('',(#941),#31,.F.);
#1026=ADVANCED_FACE('',(#942),#32,.F.);
#1027=ADVANCED_FACE('',(#943),#33,.F.);
#1028=ADVANCED_FACE('',(#944),#34,.F.);
#1029=ADVANCED_FACE('',(#945),#35,.F.);
#1030=ADVANCED_FACE('',(#946),#997,.F.);
#1031=ADVANCED_FACE('',(#947,#948),#998,.T.);
#1032=ADVANCED_FACE('',(#949),#999,.T.);
#1033=ADVANCED_FACE('',(#950),#1000,.F.);
#1034=ADVANCED_FACE('',(#951),#1001,.F.);
#1035=ADVANCED_FACE('',(#952),#36,.T.);
#1036=ADVANCED_FACE('',(#953),#37,.F.);
#1037=ADVANCED_FACE('',(#954),#38,.F.);
#1038=ADVANCED_FACE('',(#955),#39,.F.);
#1039=ADVANCED_FACE('',(#956),#40,.F.);
#1040=ADVANCED_FACE('',(#957),#41,.F.);
#1041=ADVANCED_FACE('',(#958),#42,.F.);
#1042=ADVANCED_FACE('',(#959),#43,.F.);
#1043=ADVANCED_FACE('',(#960),#1002,.F.);
#1044=ADVANCED_FACE('',(#961),#44,.T.);
#1045=ADVANCED_FACE('',(#962),#45,.T.);
#1046=ADVANCED_FACE('',(#963),#1003,.F.);
#1047=ADVANCED_FACE('',(#964),#1004,.T.);
#1048=ADVANCED_FACE('',(#965),#46,.T.);
#1049=ADVANCED_FACE('',(#966),#47,.T.);
#1050=ADVANCED_FACE('',(#967),#1005,.T.);
#1051=ADVANCED_FACE('',(#968),#48,.T.);
#1052=ADVANCED_FACE('',(#969),#1006,.F.);
#1053=ADVANCED_FACE('',(#970),#49,.T.);
#1054=ADVANCED_FACE('',(#971),#1007,.F.);
#1055=ADVANCED_FACE('',(#972),#50,.T.);
#1056=ADVANCED_FACE('',(#973),#1008,.F.);
#1057=ADVANCED_FACE('',(#974),#51,.T.);
#1058=ADVANCED_FACE('',(#975),#1009,.F.);
#1059=ADVANCED_FACE('',(#976),#52,.T.);
#1060=ADVANCED_FACE('',(#977),#53,.T.);
#1061=ADVANCED_FACE('',(#978),#54,.T.);
#1062=ADVANCED_FACE('',(#979),#55,.T.);
#1063=ADVANCED_FACE('',(#980),#56,.T.);
#1064=ADVANCED_FACE('',(#981),#57,.T.);
#1065=ADVANCED_FACE('',(#982,#983),#20,.F.);
#1066=ADVANCED_FACE('',(#984),#1010,.T.);
#1067=ADVANCED_FACE('',(#985),#1011,.T.);
#1068=ADVANCED_FACE('',(#986),#1012,.F.);
#1069=ADVANCED_FACE('',(#987),#1013,.T.);
#1070=ADVANCED_FACE('',(#988),#1014,.T.);
#1071=ADVANCED_FACE('',(#989),#1015,.F.);
#1072=ADVANCED_FACE('',(#990),#1016,.F.);
#1073=ADVANCED_FACE('',(#991),#1017,.F.);
#1074=ADVANCED_FACE('',(#992),#1018,.F.);
#1075=ADVANCED_FACE('',(#993),#1019,.F.);
#1076=ADVANCED_FACE('',(#994),#1020,.F.);
#1077=ADVANCED_FACE('',(#995),#1021,.F.);
#1078=CLOSED_SHELL('',(#1022,#1023,#1024,#1025,#1026,#1027,#1028,#1029,
#1030,#1031,#1032,#1033,#1034,#1035,#1036,#1037,#1038,#1039,#1040,#1041,
#1042,#1043,#1044,#1045,#1046,#1047,#1048,#1049,#1050,#1051,#1052,#1053,
#1054,#1055,#1056,#1057,#1058,#1059,#1060,#1061,#1062,#1063,#1064,#1065,
#1066,#1067,#1068,#1069,#1070,#1071,#1072,#1073,#1074,#1075,#1076,#1077));
#1079=MANIFOLD_SOLID_BREP('',#1078);
#1080=SHAPE_DEFINITION_REPRESENTATION(#1877,#1081);
#1081=SHAPE_REPRESENTATION('id2',(#1082),#1872);
#1082=AXIS2_PLACEMENT_3D('',#1551,#1209,#1210);
#1083=AXIS2_PLACEMENT_3D('',#1552,#1211,#1212);
#1084=AXIS2_PLACEMENT_3D('',#1553,#1213,#1214);
#1085=AXIS2_PLACEMENT_3D('',#1556,#1215,#1216);
#1086=AXIS2_PLACEMENT_3D('',#1560,#1218,#1219);
#1087=AXIS2_PLACEMENT_3D('',#1562,#1220,#1221);
#1088=AXIS2_PLACEMENT_3D('',#1566,#1223,#1224);
#1089=AXIS2_PLACEMENT_3D('',#1568,#1225,#1226);
#1090=AXIS2_PLACEMENT_3D('',#1570,#1227,#1228);
#1091=AXIS2_PLACEMENT_3D('',#1572,#1229,#1230);
#1092=AXIS2_PLACEMENT_3D('',#1574,#1231,#1232);
#1093=AXIS2_PLACEMENT_3D('',#1576,#1233,#1234);
#1094=AXIS2_PLACEMENT_3D('',#1578,#1235,#1236);
#1095=AXIS2_PLACEMENT_3D('',#1582,#1238,#1239);
#1096=AXIS2_PLACEMENT_3D('',#1586,#1241,#1242);
#1097=AXIS2_PLACEMENT_3D('',#1590,#1244,#1245);
#1098=AXIS2_PLACEMENT_3D('',#1598,#1249,#1250);
#1099=AXIS2_PLACEMENT_3D('',#1606,#1254,#1255);
#1100=AXIS2_PLACEMENT_3D('',#1614,#1259,#1260);
#1101=AXIS2_PLACEMENT_3D('',#1622,#1264,#1265);
#1102=AXIS2_PLACEMENT_3D('',#1625,#1267,#1268);
#1103=AXIS2_PLACEMENT_3D('',#1626,#1269,#1270);
#1104=AXIS2_PLACEMENT_3D('',#1628,#1271,#1272);
#1105=AXIS2_PLACEMENT_3D('',#1630,#1273,#1274);
#1106=AXIS2_PLACEMENT_3D('',#1631,#1275,#1276);
#1107=AXIS2_PLACEMENT_3D('',#1633,#1277,#1278);
#1108=AXIS2_PLACEMENT_3D('',#1634,#1279,#1280);
#1109=AXIS2_PLACEMENT_3D('',#1636,#1281,#1282);
#1110=AXIS2_PLACEMENT_3D('',#1637,#1283,#1284);
#1111=AXIS2_PLACEMENT_3D('',#1639,#1285,#1286);
#1112=AXIS2_PLACEMENT_3D('',#1640,#1287,#1288);
#1113=AXIS2_PLACEMENT_3D('',#1644,#1290,#1291);
#1114=AXIS2_PLACEMENT_3D('',#1648,#1293,#1294);
#1115=AXIS2_PLACEMENT_3D('',#1649,#1295,#1296);
#1116=AXIS2_PLACEMENT_3D('',#1652,#1298,#1299);
#1117=AXIS2_PLACEMENT_3D('',#1655,#1301,#1302);
#1118=AXIS2_PLACEMENT_3D('',#1659,#1304,#1305);
#1119=AXIS2_PLACEMENT_3D('',#1663,#1307,#1308);
#1120=AXIS2_PLACEMENT_3D('',#1664,#1309,#1310);
#1121=AXIS2_PLACEMENT_3D('',#1667,#1312,#1313);
#1122=AXIS2_PLACEMENT_3D('',#1670,#1315,#1316);
#1123=AXIS2_PLACEMENT_3D('',#1674,#1318,#1319);
#1124=AXIS2_PLACEMENT_3D('',#1678,#1321,#1322);
#1125=AXIS2_PLACEMENT_3D('',#1679,#1323,#1324);
#1126=AXIS2_PLACEMENT_3D('',#1682,#1326,#1327);
#1127=AXIS2_PLACEMENT_3D('',#1685,#1329,#1330);
#1128=AXIS2_PLACEMENT_3D('',#1699,#1338,#1339);
#1129=AXIS2_PLACEMENT_3D('',#1700,#1340,#1341);
#1130=AXIS2_PLACEMENT_3D('',#1702,#1342,#1343);
#1131=AXIS2_PLACEMENT_3D('',#1705,#1344,#1345);
#1132=AXIS2_PLACEMENT_3D('',#1709,#1347,#1348);
#1133=AXIS2_PLACEMENT_3D('',#1713,#1350,#1351);
#1134=AXIS2_PLACEMENT_3D('',#1714,#1352,#1353);
#1135=AXIS2_PLACEMENT_3D('',#1717,#1355,#1356);
#1136=AXIS2_PLACEMENT_3D('',#1718,#1357,#1358);
#1137=AXIS2_PLACEMENT_3D('',#1719,#1359,#1360);
#1138=AXIS2_PLACEMENT_3D('',#1721,#1361,#1362);
#1139=AXIS2_PLACEMENT_3D('',#1725,#1364,#1365);
#1140=AXIS2_PLACEMENT_3D('',#1727,#1366,#1367);
#1141=AXIS2_PLACEMENT_3D('',#1730,#1369,#1370);
#1142=AXIS2_PLACEMENT_3D('',#1731,#1371,#1372);
#1143=AXIS2_PLACEMENT_3D('',#1734,#1373,#1374);
#1144=AXIS2_PLACEMENT_3D('',#1738,#1376,#1377);
#1145=AXIS2_PLACEMENT_3D('',#1740,#1378,#1379);
#1146=AXIS2_PLACEMENT_3D('',#1744,#1381,#1382);
#1147=AXIS2_PLACEMENT_3D('',#1746,#1383,#1384);
#1148=AXIS2_PLACEMENT_3D('',#1747,#1385,#1386);
#1149=AXIS2_PLACEMENT_3D('',#1748,#1387,#1388);
#1150=AXIS2_PLACEMENT_3D('',#1751,#1390,#1391);
#1151=AXIS2_PLACEMENT_3D('',#1752,#1392,#1393);
#1152=AXIS2_PLACEMENT_3D('',#1756,#1395,#1396);
#1153=AXIS2_PLACEMENT_3D('',#1759,#1398,#1399);
#1154=AXIS2_PLACEMENT_3D('',#1763,#1401,#1402);
#1155=AXIS2_PLACEMENT_3D('',#1765,#1403,#1404);
#1156=AXIS2_PLACEMENT_3D('',#1769,#1406,#1407);
#1157=AXIS2_PLACEMENT_3D('',#1773,#1409,#1410);
#1158=AXIS2_PLACEMENT_3D('',#1774,#1411,#1412);
#1159=AXIS2_PLACEMENT_3D('',#1777,#1414,#1415);
#1160=AXIS2_PLACEMENT_3D('',#1778,#1416,#1417);
#1161=AXIS2_PLACEMENT_3D('',#1779,#1418,#1419);
#1162=AXIS2_PLACEMENT_3D('',#1781,#1420,#1421);
#1163=AXIS2_PLACEMENT_3D('',#1785,#1423,#1424);
#1164=AXIS2_PLACEMENT_3D('',#1787,#1425,#1426);
#1165=AXIS2_PLACEMENT_3D('',#1788,#1427,#1428);
#1166=AXIS2_PLACEMENT_3D('',#1793,#1433,#1434);
#1167=AXIS2_PLACEMENT_3D('',#1794,#1435,#1436);
#1168=AXIS2_PLACEMENT_3D('',#1795,#1437,#1438);
#1169=AXIS2_PLACEMENT_3D('',#1798,#1441,#1442);
#1170=AXIS2_PLACEMENT_3D('',#1801,#1445,#1446);
#1171=AXIS2_PLACEMENT_3D('',#1804,#1449,#1450);
#1172=AXIS2_PLACEMENT_3D('',#1807,#1453,#1454);
#1173=AXIS2_PLACEMENT_3D('',#1810,#1457,#1458);
#1174=AXIS2_PLACEMENT_3D('',#1813,#1461,#1462);
#1175=AXIS2_PLACEMENT_3D('',#1815,#1464,#1465);
#1176=AXIS2_PLACEMENT_3D('',#1816,#1466,#1467);
#1177=AXIS2_PLACEMENT_3D('',#1818,#1469,#1470);
#1178=AXIS2_PLACEMENT_3D('',#1819,#1471,#1472);
#1179=AXIS2_PLACEMENT_3D('',#1821,#1474,#1475);
#1180=AXIS2_PLACEMENT_3D('',#1822,#1476,#1477);
#1181=AXIS2_PLACEMENT_3D('',#1824,#1479,#1480);
#1182=AXIS2_PLACEMENT_3D('',#1825,#1481,#1482);
#1183=AXIS2_PLACEMENT_3D('',#1827,#1484,#1485);
#1184=AXIS2_PLACEMENT_3D('',#1828,#1486,#1487);
#1185=AXIS2_PLACEMENT_3D('',#1830,#1489,#1490);
#1186=AXIS2_PLACEMENT_3D('',#1831,#1491,#1492);
#1187=AXIS2_PLACEMENT_3D('',#1833,#1494,#1495);
#1188=AXIS2_PLACEMENT_3D('',#1834,#1496,#1497);
#1189=AXIS2_PLACEMENT_3D('',#1836,#1499,#1500);
#1190=AXIS2_PLACEMENT_3D('',#1837,#1501,#1502);
#1191=AXIS2_PLACEMENT_3D('',#1838,#1503,#1504);
#1192=AXIS2_PLACEMENT_3D('',#1839,#1505,#1506);
#1193=AXIS2_PLACEMENT_3D('',#1840,#1507,#1508);
#1194=AXIS2_PLACEMENT_3D('',#1841,#1509,#1510);
#1195=AXIS2_PLACEMENT_3D('',#1842,#1511,#1512);
#1196=AXIS2_PLACEMENT_3D('',#1843,#1513,#1514);
#1197=AXIS2_PLACEMENT_3D('',#1844,#1515,#1516);
#1198=AXIS2_PLACEMENT_3D('',#1848,#1519,#1520);
#1199=AXIS2_PLACEMENT_3D('',#1850,#1522,#1523);
#1200=AXIS2_PLACEMENT_3D('',#1851,#1524,#1525);
#1201=AXIS2_PLACEMENT_3D('',#1855,#1528,#1529);
#1202=AXIS2_PLACEMENT_3D('',#1857,#1531,#1532);
#1203=AXIS2_PLACEMENT_3D('',#1858,#1533,#1534);
#1204=AXIS2_PLACEMENT_3D('',#1862,#1537,#1538);
#1205=AXIS2_PLACEMENT_3D('',#1864,#1540,#1541);
#1206=AXIS2_PLACEMENT_3D('',#1865,#1542,#1543);
#1207=AXIS2_PLACEMENT_3D('',#1869,#1546,#1547);
#1208=AXIS2_PLACEMENT_3D('',#1871,#1549,#1550);
#1209=DIRECTION('',(0.,0.,1.));
#1210=DIRECTION('',(1.,0.,0.));
#1211=DIRECTION('',(0.,0.,-1.));
#1212=DIRECTION('',(-1.,0.,0.));
#1213=DIRECTION('',(0.,0.,1.));
#1214=DIRECTION('',(1.,0.,0.));
#1215=DIRECTION('',(0.,0.,-1.));
#1216=DIRECTION('',(1.,0.,0.));
#1217=DIRECTION('',(0.,-1.,0.));
#1218=DIRECTION('',(0.,0.,1.));
#1219=DIRECTION('',(1.,0.,0.));
#1220=DIRECTION('',(0.,0.,-1.));
#1221=DIRECTION('',(1.,0.,0.));
#1222=DIRECTION('',(0.,-1.,0.));
#1223=DIRECTION('',(0.,0.,1.));
#1224=DIRECTION('',(1.,0.,0.));
#1225=DIRECTION('',(0.,0.,-1.));
#1226=DIRECTION('',(1.,0.,0.));
#1227=DIRECTION('',(0.,0.,1.));
#1228=DIRECTION('',(1.,0.,0.));
#1229=DIRECTION('',(0.,0.,-1.));
#1230=DIRECTION('',(1.,0.,0.));
#1231=DIRECTION('',(0.,0.,1.));
#1232=DIRECTION('',(1.,0.,0.));
#1233=DIRECTION('',(0.,0.,-1.));
#1234=DIRECTION('',(1.,0.,0.));
#1235=DIRECTION('',(0.,0.,1.));
#1236=DIRECTION('',(1.,0.,0.));
#1237=DIRECTION('',(0.,-1.,0.));
#1238=DIRECTION('',(0.,0.,1.));
#1239=DIRECTION('',(1.,0.,0.));
#1240=DIRECTION('',(0.,1.,0.));
#1241=DIRECTION('',(0.,0.,-1.));
#1242=DIRECTION('',(1.,0.,0.));
#1243=DIRECTION('',(0.,-1.,0.));
#1244=DIRECTION('',(0.,0.,-1.));
#1245=DIRECTION('',(1.,0.,0.));
#1246=DIRECTION('',(0.,-1.,0.));
#1247=DIRECTION('',(0.,1.,0.));
#1248=DIRECTION('',(-1.,0.,0.));
#1249=DIRECTION('',(0.,0.,1.));
#1250=DIRECTION('',(1.,0.,0.));
#1251=DIRECTION('',(-0.707106781186546,0.707106781186549,0.));
#1252=DIRECTION('',(0.707106781186549,0.707106781186546,0.));
#1253=DIRECTION('',(-0.707106781186546,0.707106781186549,0.));
#1254=DIRECTION('',(0.,0.,1.));
#1255=DIRECTION('',(1.,0.,0.));
#1256=DIRECTION('',(0.707106781186546,0.707106781186549,0.));
#1257=DIRECTION('',(-0.707106781186549,0.707106781186546,0.));
#1258=DIRECTION('',(0.707106781186546,0.707106781186549,0.));
#1259=DIRECTION('',(0.,0.,1.));
#1260=DIRECTION('',(1.,0.,0.));
#1261=DIRECTION('',(1.,0.,0.));
#1262=DIRECTION('',(0.,1.,0.));
#1263=DIRECTION('',(1.,0.,0.));
#1264=DIRECTION('',(0.,0.,1.));
#1265=DIRECTION('',(1.,0.,0.));
#1266=DIRECTION('',(-1.,0.,0.));
#1267=DIRECTION('',(0.,0.,1.));
#1268=DIRECTION('',(1.,0.,0.));
#1269=DIRECTION('',(0.,0.,-1.));
#1270=DIRECTION('',(-1.,0.,0.));
#1271=DIRECTION('',(0.,-0.707106781186547,-0.707106781186548));
#1272=DIRECTION('',(0.,-0.707106781186548,0.707106781186547));
#1273=DIRECTION('',(0.,0.707106781186548,-0.707106781186547));
#1274=DIRECTION('',(0.,0.707106781186547,0.707106781186548));
#1275=DIRECTION('',(0.,-0.707106781186548,0.707106781186547));
#1276=DIRECTION('',(0.,0.707106781186547,0.707106781186548));
#1277=DIRECTION('',(0.,0.707106781186547,0.707106781186548));
#1278=DIRECTION('',(0.,-0.707106781186548,0.707106781186547));
#1279=DIRECTION('',(0.5,-0.5,0.707106781186547));
#1280=DIRECTION('',(-0.5,0.5,0.707106781186548));
#1281=DIRECTION('',(-0.5,0.5,0.707106781186548));
#1282=DIRECTION('',(0.5,-0.5,0.707106781186547));
#1283=DIRECTION('',(-0.5,-0.5,-0.707106781186548));
#1284=DIRECTION('',(-0.5,-0.5,0.707106781186547));
#1285=DIRECTION('',(0.5,0.5,-0.707106781186547));
#1286=DIRECTION('',(0.5,0.5,0.707106781186548));
#1287=DIRECTION('',(0.,0.,1.));
#1288=DIRECTION('',(1.,0.,0.));
#1289=DIRECTION('',(0.,0.,1.));
#1290=DIRECTION('',(0.,0.,1.));
#1291=DIRECTION('',(1.,0.,0.));
#1292=DIRECTION('',(0.,0.,1.));
#1293=DIRECTION('',(0.,0.,1.));
#1294=DIRECTION('',(1.,0.,0.));
#1295=DIRECTION('',(0.,0.,1.));
#1296=DIRECTION('',(1.,0.,0.));
#1297=DIRECTION('',(0.,0.,1.));
#1298=DIRECTION('',(0.,0.,1.));
#1299=DIRECTION('',(1.,0.,0.));
#1300=DIRECTION('',(0.,0.,1.));
#1301=DIRECTION('',(0.,0.,1.));
#1302=DIRECTION('',(1.,0.,0.));
#1303=DIRECTION('',(0.,0.,1.));
#1304=DIRECTION('',(0.,0.,1.));
#1305=DIRECTION('',(1.,0.,0.));
#1306=DIRECTION('',(0.,0.,1.));
#1307=DIRECTION('',(0.,0.,1.));
#1308=DIRECTION('',(1.,0.,0.));
#1309=DIRECTION('',(0.,0.,1.));
#1310=DIRECTION('',(1.,0.,0.));
#1311=DIRECTION('',(0.,0.,1.));
#1312=DIRECTION('',(0.,0.,1.));
#1313=DIRECTION('',(1.,0.,0.));
#1314=DIRECTION('',(0.,0.,1.));
#1315=DIRECTION('',(0.,0.,1.));
#1316=DIRECTION('',(1.,0.,0.));
#1317=DIRECTION('',(0.,0.,1.));
#1318=DIRECTION('',(0.,0.,1.));
#1319=DIRECTION('',(1.,0.,0.));
#1320=DIRECTION('',(0.,0.,1.));
#1321=DIRECTION('',(0.,0.,1.));
#1322=DIRECTION('',(1.,0.,0.));
#1323=DIRECTION('',(0.,0.,1.));
#1324=DIRECTION('',(1.,0.,0.));
#1325=DIRECTION('',(0.,0.,1.));
#1326=DIRECTION('',(0.,0.,1.));
#1327=DIRECTION('',(1.,0.,0.));
#1328=DIRECTION('',(0.,0.,1.));
#1329=DIRECTION('',(-1.,0.,0.));
#1330=DIRECTION('',(0.,0.,1.));
#1331=DIRECTION('',(0.,0.,1.));
#1332=DIRECTION('',(0.,1.,0.));
#1333=DIRECTION('',(0.,0.,1.));
#1334=DIRECTION('',(0.,0.,1.));
#1335=DIRECTION('',(0.,1.,0.));
#1336=DIRECTION('',(0.,0.,1.));
#1337=DIRECTION('',(0.,1.,0.));
#1338=DIRECTION('',(0.,0.,-1.));
#1339=DIRECTION('',(-1.,0.,0.));
#1340=DIRECTION('',(0.,0.,-1.));
#1341=DIRECTION('',(-1.,0.,0.));
#1342=DIRECTION('',(0.,0.,-1.));
#1343=DIRECTION('',(1.,0.,0.));
#1344=DIRECTION('',(0.,0.,1.));
#1345=DIRECTION('',(1.,0.,0.));
#1346=DIRECTION('',(0.,-1.,0.));
#1347=DIRECTION('',(0.,0.,-1.));
#1348=DIRECTION('',(1.,0.,0.));
#1349=DIRECTION('',(0.,-1.,0.));
#1350=DIRECTION('',(0.,0.,-1.));
#1351=DIRECTION('',(-1.,0.,0.));
#1352=DIRECTION('',(0.,0.,1.));
#1353=DIRECTION('',(1.,0.,0.));
#1354=DIRECTION('',(0.,-1.,0.));
#1355=DIRECTION('',(0.,0.,-1.));
#1356=DIRECTION('',(1.,0.,0.));
#1357=DIRECTION('',(0.,0.,-1.));
#1358=DIRECTION('',(1.,0.,0.));
#1359=DIRECTION('',(0.,0.,-1.));
#1360=DIRECTION('',(1.,0.,0.));
#1361=DIRECTION('',(0.,0.,1.));
#1362=DIRECTION('',(1.,0.,0.));
#1363=DIRECTION('',(0.,-1.,0.));
#1364=DIRECTION('',(0.,0.,-1.));
#1365=DIRECTION('',(1.,0.,0.));
#1366=DIRECTION('',(0.,0.,1.));
#1367=DIRECTION('',(1.,0.,0.));
#1368=DIRECTION('',(0.,-1.,0.));
#1369=DIRECTION('',(0.,0.,1.));
#1370=DIRECTION('',(1.,0.,0.));
#1371=DIRECTION('',(0.,0.,1.));
#1372=DIRECTION('',(1.,0.,0.));
#1373=DIRECTION('',(0.,0.,1.));
#1374=DIRECTION('',(1.,0.,0.));
#1375=DIRECTION('',(0.,-1.,0.));
#1376=DIRECTION('',(0.,0.,1.));
#1377=DIRECTION('',(1.,0.,0.));
#1378=DIRECTION('',(0.,0.,1.));
#1379=DIRECTION('',(1.,0.,0.));
#1380=DIRECTION('',(0.,-1.,0.));
#1381=DIRECTION('',(0.,0.,1.));
#1382=DIRECTION('',(1.,0.,0.));
#1383=DIRECTION('',(0.,0.,1.));
#1384=DIRECTION('',(1.,0.,0.));
#1385=DIRECTION('',(0.,0.,1.));
#1386=DIRECTION('',(1.,0.,0.));
#1387=DIRECTION('',(0.,0.,1.));
#1388=DIRECTION('',(1.,0.,0.));
#1389=DIRECTION('',(0.,-1.,0.));
#1390=DIRECTION('',(0.,0.,1.));
#1391=DIRECTION('',(1.,0.,0.));
#1392=DIRECTION('',(0.,0.,1.));
#1393=DIRECTION('',(1.,0.,0.));
#1394=DIRECTION('',(0.,-1.,0.));
#1395=DIRECTION('',(0.,0.,1.));
#1396=DIRECTION('',(1.,0.,0.));
#1397=DIRECTION('',(0.,-1.,0.));
#1398=DIRECTION('',(0.,0.,1.));
#1399=DIRECTION('',(1.,0.,0.));
#1400=DIRECTION('',(0.,-1.,0.));
#1401=DIRECTION('',(0.,0.,1.));
#1402=DIRECTION('',(1.,0.,0.));
#1403=DIRECTION('',(0.,0.,1.));
#1404=DIRECTION('',(1.,0.,0.));
#1405=DIRECTION('',(0.,-1.,0.));
#1406=DIRECTION('',(0.,0.,1.));
#1407=DIRECTION('',(1.,0.,0.));
#1408=DIRECTION('',(0.,-1.,0.));
#1409=DIRECTION('',(0.,0.,1.));
#1410=DIRECTION('',(1.,0.,0.));
#1411=DIRECTION('',(0.,0.,1.));
#1412=DIRECTION('',(1.,0.,0.));
#1413=DIRECTION('',(0.,-1.,0.));
#1414=DIRECTION('',(0.,0.,1.));
#1415=DIRECTION('',(1.,0.,0.));
#1416=DIRECTION('',(0.,0.,1.));
#1417=DIRECTION('',(1.,0.,0.));
#1418=DIRECTION('',(0.,0.,1.));
#1419=DIRECTION('',(1.,0.,0.));
#1420=DIRECTION('',(0.,0.,1.));
#1421=DIRECTION('',(1.,0.,0.));
#1422=DIRECTION('',(0.,-1.,0.));
#1423=DIRECTION('',(0.,0.,1.));
#1424=DIRECTION('',(1.,0.,0.));
#1425=DIRECTION('',(0.,0.,1.));
#1426=DIRECTION('',(1.,0.,0.));
#1427=DIRECTION('',(1.,0.,0.));
#1428=DIRECTION('',(0.,0.,-1.));
#1429=DIRECTION('',(0.,0.,1.));
#1430=DIRECTION('',(0.,0.,1.));
#1431=DIRECTION('',(0.,0.,1.));
#1432=DIRECTION('',(0.,0.,1.));
#1433=DIRECTION('',(0.,0.,1.));
#1434=DIRECTION('',(1.,0.,0.));
#1435=DIRECTION('',(0.,0.,1.));
#1436=DIRECTION('',(1.,0.,0.));
#1437=DIRECTION('',(0.,0.,1.));
#1438=DIRECTION('',(1.,0.,0.));
#1439=DIRECTION('',(0.,0.,1.));
#1440=DIRECTION('',(0.,0.,1.));
#1441=DIRECTION('',(0.,0.,1.));
#1442=DIRECTION('',(1.,0.,0.));
#1443=DIRECTION('',(0.,0.,1.));
#1444=DIRECTION('',(0.,0.,1.));
#1445=DIRECTION('',(0.,0.,1.));
#1446=DIRECTION('',(1.,0.,0.));
#1447=DIRECTION('',(0.,0.,1.));
#1448=DIRECTION('',(0.,0.,1.));
#1449=DIRECTION('',(0.,0.,1.));
#1450=DIRECTION('',(1.,0.,0.));
#1451=DIRECTION('',(0.,0.,1.));
#1452=DIRECTION('',(0.,0.,1.));
#1453=DIRECTION('',(0.,0.,1.));
#1454=DIRECTION('',(1.,0.,0.));
#1455=DIRECTION('',(0.,0.,1.));
#1456=DIRECTION('',(0.,0.,1.));
#1457=DIRECTION('',(0.,0.,1.));
#1458=DIRECTION('',(1.,0.,0.));
#1459=DIRECTION('',(0.,0.,1.));
#1460=DIRECTION('',(0.,0.,1.));
#1461=DIRECTION('',(-1.,0.,0.));
#1462=DIRECTION('',(0.,0.,1.));
#1463=DIRECTION('',(0.,0.,1.));
#1464=DIRECTION('',(0.,0.,1.));
#1465=DIRECTION('',(1.,0.,0.));
#1466=DIRECTION('',(0.,0.,1.));
#1467=DIRECTION('',(1.,0.,0.));
#1468=DIRECTION('',(0.,0.,1.));
#1469=DIRECTION('',(-1.,0.,0.));
#1470=DIRECTION('',(0.,0.,1.));
#1471=DIRECTION('',(-1.,0.,0.));
#1472=DIRECTION('',(0.,0.,1.));
#1473=DIRECTION('',(0.,0.,1.));
#1474=DIRECTION('',(0.,0.,1.));
#1475=DIRECTION('',(1.,0.,0.));
#1476=DIRECTION('',(0.,0.,1.));
#1477=DIRECTION('',(1.,0.,0.));
#1478=DIRECTION('',(0.,0.,1.));
#1479=DIRECTION('',(-1.,0.,0.));
#1480=DIRECTION('',(0.,0.,1.));
#1481=DIRECTION('',(0.,0.,1.));
#1482=DIRECTION('',(1.,0.,0.));
#1483=DIRECTION('',(0.,0.,1.));
#1484=DIRECTION('',(-1.,0.,0.));
#1485=DIRECTION('',(0.,0.,1.));
#1486=DIRECTION('',(0.,0.,1.));
#1487=DIRECTION('',(1.,0.,0.));
#1488=DIRECTION('',(0.,0.,1.));
#1489=DIRECTION('',(-1.,0.,0.));
#1490=DIRECTION('',(0.,0.,1.));
#1491=DIRECTION('',(0.,0.,1.));
#1492=DIRECTION('',(1.,0.,0.));
#1493=DIRECTION('',(0.,0.,1.));
#1494=DIRECTION('',(-1.,0.,0.));
#1495=DIRECTION('',(0.,0.,1.));
#1496=DIRECTION('',(0.,0.,1.));
#1497=DIRECTION('',(1.,0.,0.));
#1498=DIRECTION('',(0.,0.,1.));
#1499=DIRECTION('',(-1.,0.,0.));
#1500=DIRECTION('',(0.,0.,1.));
#1501=DIRECTION('',(0.,0.,1.));
#1502=DIRECTION('',(1.,0.,0.));
#1503=DIRECTION('',(0.,0.,1.));
#1504=DIRECTION('',(1.,0.,0.));
#1505=DIRECTION('',(0.,0.,1.));
#1506=DIRECTION('',(1.,0.,0.));
#1507=DIRECTION('',(0.,0.,1.));
#1508=DIRECTION('',(1.,0.,0.));
#1509=DIRECTION('',(0.,0.,1.));
#1510=DIRECTION('',(1.,0.,0.));
#1511=DIRECTION('',(0.,0.,1.));
#1512=DIRECTION('',(1.,0.,0.));
#1513=DIRECTION('',(0.,0.,-1.));
#1514=DIRECTION('',(-1.,0.,0.));
#1515=DIRECTION('',(0.,-0.707106781186548,0.707106781186547));
#1516=DIRECTION('',(0.,-0.707106781186547,-0.707106781186548));
#1517=DIRECTION('',(0.,-0.707106781186547,-0.707106781186548));
#1518=DIRECTION('',(1.,0.,0.));
#1519=DIRECTION('',(0.,0.707106781186547,0.707106781186548));
#1520=DIRECTION('',(0.,-0.707106781186548,0.707106781186547));
#1521=DIRECTION('',(0.,-0.707106781186548,0.707106781186547));
#1522=DIRECTION('',(-1.,0.,0.));
#1523=DIRECTION('',(0.,0.,1.));
#1524=DIRECTION('',(0.5,-0.5,0.707106781186547));
#1525=DIRECTION('',(0.816496580927725,0.,-0.577350269189627));
#1526=DIRECTION('',(0.5,-0.5,-0.707106781186548));
#1527=DIRECTION('',(0.707106781186546,0.707106781186549,0.));
#1528=DIRECTION('',(-0.5,0.5,0.707106781186548));
#1529=DIRECTION('',(0.816496580927726,0.,0.577350269189626));
#1530=DIRECTION('',(0.5,-0.5,0.707106781186547));
#1531=DIRECTION('',(-0.707106781186546,-0.707106781186549,0.));
#1532=DIRECTION('',(0.,0.,1.));
#1533=DIRECTION('',(0.5,0.5,-0.707106781186547));
#1534=DIRECTION('',(-0.816496580927725,0.,-0.577350269189627));
#1535=DIRECTION('',(-0.707106781186546,0.707106781186549,0.));
#1536=DIRECTION('',(-0.5,-0.5,-0.707106781186548));
#1537=DIRECTION('',(-0.5,-0.5,-0.707106781186548));
#1538=DIRECTION('',(-0.816496580927726,0.,0.577350269189626));
#1539=DIRECTION('',(-0.5,-0.5,0.707106781186547));
#1540=DIRECTION('',(0.707106781186546,-0.707106781186549,0.));
#1541=DIRECTION('',(0.,0.,1.));
#1542=DIRECTION('',(0.,-0.707106781186547,-0.707106781186548));
#1543=DIRECTION('',(0.,0.707106781186548,-0.707106781186547));
#1544=DIRECTION('',(0.,-0.707106781186548,0.707106781186547));
#1545=DIRECTION('',(-1.,0.,0.));
#1546=DIRECTION('',(0.,0.707106781186548,-0.707106781186547));
#1547=DIRECTION('',(0.,0.707106781186547,0.707106781186548));
#1548=DIRECTION('',(0.,-0.707106781186547,-0.707106781186548));
#1549=DIRECTION('',(1.,0.,0.));
#1550=DIRECTION('',(0.,0.,1.));
#1551=CARTESIAN_POINT('',(0.,0.,0.));
#1552=CARTESIAN_POINT('',(0.,0.,0.00075));
#1553=CARTESIAN_POINT('',(-0.0101986492981118,-0.00639608993285176,0.00075));
#1554=CARTESIAN_POINT('',(-0.00910068726208508,-0.00523226891248646,0.00075));
#1555=CARTESIAN_POINT('',(-0.0117986492981118,-0.00639608993285176,0.00075));
#1556=CARTESIAN_POINT('',(-0.00892192718961871,-0.00504278628639197,0.00075));
#1557=CARTESIAN_POINT('',(-0.0086614299168964,-0.00504278628639197,0.00075));
#1558=CARTESIAN_POINT('',(-0.0086614299168964,-0.00291185482630927,0.00075));
#1559=CARTESIAN_POINT('',(-0.0086614299168964,-0.00291185482630927,0.00075));
#1560=CARTESIAN_POINT('',(-0.0070614299168964,-0.00291185482630926,0.00075));
#1561=CARTESIAN_POINT('',(-0.00581174198620875,-0.00191271515844815,0.00075));
#1562=CARTESIAN_POINT('',(-0.00524602631187473,-0.00146041906349674,0.00075));
#1563=CARTESIAN_POINT('',(-0.0045217294240618,-0.00146041906349674,0.00075));
#1564=CARTESIAN_POINT('',(-0.0045217294240618,-0.00071073703001544,0.00075));
#1565=CARTESIAN_POINT('',(-0.0045217294240618,-0.000710737030015439,0.00075));
#1566=CARTESIAN_POINT('',(-0.0029217294240618,-0.000710737030015429,0.00075));
#1567=CARTESIAN_POINT('',(-0.00141919196368329,-0.000160845058661697,0.00075));
#1568=CARTESIAN_POINT('',(-0.000670244743987862,0.000113251310938611,0.00075));
#1569=CARTESIAN_POINT('',(0.000125240729140524,5.62108011294245E-5,0.00075));
#1570=CARTESIAN_POINT('',(0.00172114320548377,-5.82238352422067E-5,0.00075));
#1571=CARTESIAN_POINT('',(0.00332114070031189,-5.5392485082537E-5,0.00075));
#1572=CARTESIAN_POINT('',(0.00411866735563355,-5.39811846085149E-5,0.00075));
#1573=CARTESIAN_POINT('',(0.00484667018133436,-0.000379653786294928,0.00075));
#1574=CARTESIAN_POINT('',(0.00630718901111483,-0.00103301796334837,0.00075));
#1575=CARTESIAN_POINT('',(0.00781166322906817,-0.0015775887369983,0.00075));
#1576=CARTESIAN_POINT('',(0.00856157583514439,-0.00184903272931631,0.00075));
#1577=CARTESIAN_POINT('',(0.00913428812846071,-0.00240405650070086,0.00075));
#1578=CARTESIAN_POINT('',(0.0102832631858446,-0.00351754485605519,0.00075));
#1579=CARTESIAN_POINT('',(0.0118832631858446,-0.00351754485605519,0.00075));
#1580=CARTESIAN_POINT('',(0.0118832631858446,-0.00351754485605519,0.00075));
#1581=CARTESIAN_POINT('',(0.0118832631858446,-0.0045666315929223,0.00075));
#1582=CARTESIAN_POINT('',(0.0125666315929223,-0.0045666315929223,0.00075));
#1583=CARTESIAN_POINT('',(0.01325,-0.0045666315929223,0.00075));
#1584=CARTESIAN_POINT('',(0.01325,-0.00775,0.00075));
#1585=CARTESIAN_POINT('',(0.01325,0.00233300524425837,0.00075));
#1586=CARTESIAN_POINT('',(0.00125,-0.00825,0.00075));
#1587=CARTESIAN_POINT('',(-0.01325,-0.00148612537076565,0.00075));
#1588=CARTESIAN_POINT('',(-0.01325,-0.00775,0.00075));
#1589=CARTESIAN_POINT('',(-0.01325,-0.00702432464905589,0.00075));
#1590=CARTESIAN_POINT('',(-0.0125243246490559,-0.00702432464905589,0.00075));
#1591=CARTESIAN_POINT('',(-0.0117986492981118,-0.00702432464905589,0.00075));
#1592=CARTESIAN_POINT('',(-0.0117986492981118,-0.00639608993285176,0.00075));
#1593=CARTESIAN_POINT('',(0.00375,0.00505,0.00075));
#1594=CARTESIAN_POINT('',(0.00375,0.00505,0.00075));
#1595=CARTESIAN_POINT('',(0.00375,0.00585,0.00075));
#1596=CARTESIAN_POINT('',(0.00375,0.00505,0.00075));
#1597=CARTESIAN_POINT('',(0.00295367250374008,0.00505,0.00075));
#1598=CARTESIAN_POINT('',(0.00125,0.00545,0.00075));
#1599=CARTESIAN_POINT('',(0.00273752109279029,0.00452816433215894,0.00075));
#1600=CARTESIAN_POINT('',(0.00330060966544099,0.00396507575950825,0.00075));
#1601=CARTESIAN_POINT('',(0.00330060966544099,0.00396507575950825,0.00075));
#1602=CARTESIAN_POINT('',(0.00273492424049175,0.00339939033455901,0.00075));
#1603=CARTESIAN_POINT('',(0.00273492424049175,0.00339939033455901,0.00075));
#1604=CARTESIAN_POINT('',(0.00273492424049175,0.00339939033455901,0.00075));
#1605=CARTESIAN_POINT('',(0.00217183566784106,0.00396247890720971,0.00075));
#1606=CARTESIAN_POINT('',(0.00125,0.00545,0.00075));
#1607=CARTESIAN_POINT('',(0.000328164332158947,0.00396247890720971,0.00075));
#1608=CARTESIAN_POINT('',(-0.000234924240491746,0.00339939033455901,0.00075));
#1609=CARTESIAN_POINT('',(-0.000234924240491746,0.00339939033455901,0.00075));
#1610=CARTESIAN_POINT('',(-0.000234924240491746,0.00339939033455901,0.00075));
#1611=CARTESIAN_POINT('',(-0.000800609665440984,0.00396507575950825,0.00075));
#1612=CARTESIAN_POINT('',(-0.000800609665440984,0.00396507575950825,0.00075));
#1613=CARTESIAN_POINT('',(-0.000237521092790291,0.00452816433215894,0.00075));
#1614=CARTESIAN_POINT('',(0.00125,0.00545,0.00075));
#1615=CARTESIAN_POINT('',(-0.000453672503740081,0.00505,0.00075));
#1616=CARTESIAN_POINT('',(-0.00125,0.00505,0.00075));
#1617=CARTESIAN_POINT('',(-0.00125,0.00505,0.00075));
#1618=CARTESIAN_POINT('',(-0.00125,0.00505,0.00075));
#1619=CARTESIAN_POINT('',(-0.00125,0.00585,0.00075));
#1620=CARTESIAN_POINT('',(-0.00125,0.00585,0.00075));
#1621=CARTESIAN_POINT('',(-0.000453672503740081,0.00585,0.00075));
#1622=CARTESIAN_POINT('',(0.00125,0.00545,0.00075));
#1623=CARTESIAN_POINT('',(0.00295367250374008,0.00585,0.00075));
#1624=CARTESIAN_POINT('',(0.00375,0.00585,0.00075));
#1625=CARTESIAN_POINT('',(0.00125,0.00545,-0.00075));
#1626=CARTESIAN_POINT('',(0.00125,0.00545,-0.00055));
#1627=CARTESIAN_POINT('',(-0.0005,0.00545,-0.00055));
#1628=CARTESIAN_POINT('',(0.00125,0.00545,0.00035));
#1629=CARTESIAN_POINT('',(0.003,0.00545,0.00035));
#1630=CARTESIAN_POINT('',(0.00125,0.00545,0.00035));
#1631=CARTESIAN_POINT('',(0.00125,0.00545,0.00035));
#1632=CARTESIAN_POINT('',(-0.0005,0.00545,0.00035));
#1633=CARTESIAN_POINT('',(0.00125,0.00545,0.00035));
#1634=CARTESIAN_POINT('',(0.00125,0.00545,0.00035));
#1635=CARTESIAN_POINT('',(1.25631329235452E-5,0.00421256313292354,0.00035));
#1636=CARTESIAN_POINT('',(0.00125,0.00545,0.00035));
#1637=CARTESIAN_POINT('',(0.00125,0.00545,0.00035));
#1638=CARTESIAN_POINT('',(0.00248743686707646,0.00421256313292354,0.00035));
#1639=CARTESIAN_POINT('',(0.00125,0.00545,0.00035));
#1640=CARTESIAN_POINT('',(0.0102832631858446,-0.00351754485605519,-0.00075));
#1641=CARTESIAN_POINT('',(0.00913428812846071,-0.00240405650070086,-0.00075));
#1642=CARTESIAN_POINT('',(0.00913428812846071,-0.00240405650070086,-0.00075));
#1643=CARTESIAN_POINT('',(0.00913428812846071,-0.00240405650070086,-0.00025));
#1644=CARTESIAN_POINT('',(0.0102832631858446,-0.00351754485605519,-0.00075));
#1645=CARTESIAN_POINT('',(0.0118832631858446,-0.00351754485605519,-0.00075));
#1646=CARTESIAN_POINT('',(0.0118832631858446,-0.00351754485605519,-0.00075));
#1647=CARTESIAN_POINT('',(0.0118832631858446,-0.00351754485605519,-0.00025));
#1648=CARTESIAN_POINT('',(0.0102832631858446,-0.00351754485605519,-0.00025));
#1649=CARTESIAN_POINT('',(0.0102832631858446,-0.00351754485605519,-0.00075));
#1650=CARTESIAN_POINT('',(0.00913428812846071,-0.00240405650070086,-0.00075));
#1651=CARTESIAN_POINT('',(0.00913428812846071,-0.00240405650070086,0.00025));
#1652=CARTESIAN_POINT('',(0.0102832631858446,-0.00351754485605519,0.00025));
#1653=CARTESIAN_POINT('',(0.0118832631858446,-0.00351754485605519,0.00025));
#1654=CARTESIAN_POINT('',(0.0118832631858446,-0.00351754485605519,-0.00075));
#1655=CARTESIAN_POINT('',(0.00172114320548377,-5.82238352422067E-5,-0.00075));
#1656=CARTESIAN_POINT('',(0.000125240729140524,5.62108011294245E-5,-0.00075));
#1657=CARTESIAN_POINT('',(0.000125240729140524,5.62108011294245E-5,-0.00075));
#1658=CARTESIAN_POINT('',(0.000125240729140524,5.62108011294245E-5,-0.00025));
#1659=CARTESIAN_POINT('',(0.00172114320548377,-5.82238352422067E-5,-0.00075));
#1660=CARTESIAN_POINT('',(0.00332114070031189,-5.5392485082537E-5,-0.00075));
#1661=CARTESIAN_POINT('',(0.00332114070031189,-5.5392485082537E-5,-0.00075));
#1662=CARTESIAN_POINT('',(0.00332114070031189,-5.5392485082537E-5,-0.00025));
#1663=CARTESIAN_POINT('',(0.00172114320548377,-5.82238352422067E-5,-0.00025));
#1664=CARTESIAN_POINT('',(0.00172114320548377,-5.82238352422067E-5,-0.00075));
#1665=CARTESIAN_POINT('',(0.000125240729140524,5.62108011294245E-5,-0.00075));
#1666=CARTESIAN_POINT('',(0.000125240729140524,5.62108011294245E-5,0.00025));
#1667=CARTESIAN_POINT('',(0.00172114320548377,-5.82238352422067E-5,0.00025));
#1668=CARTESIAN_POINT('',(0.00332114070031189,-5.5392485082537E-5,0.00025));
#1669=CARTESIAN_POINT('',(0.00332114070031189,-5.5392485082537E-5,-0.00075));
#1670=CARTESIAN_POINT('',(0.00630718901111483,-0.00103301796334837,-0.00075));
#1671=CARTESIAN_POINT('',(0.00484667018133436,-0.000379653786294928,-0.00075));
#1672=CARTESIAN_POINT('',(0.00484667018133437,-0.000379653786294928,-0.00075));
#1673=CARTESIAN_POINT('',(0.00484667018133436,-0.000379653786294928,-0.00025));
#1674=CARTESIAN_POINT('',(0.00630718901111483,-0.00103301796334837,-0.00075));
#1675=CARTESIAN_POINT('',(0.00781166322906817,-0.0015775887369983,-0.00075));
#1676=CARTESIAN_POINT('',(0.00781166322906817,-0.0015775887369983,-0.00075));
#1677=CARTESIAN_POINT('',(0.00781166322906817,-0.0015775887369983,-0.00025));
#1678=CARTESIAN_POINT('',(0.00630718901111483,-0.00103301796334837,-0.00025));
#1679=CARTESIAN_POINT('',(0.00630718901111483,-0.00103301796334837,-0.00075));
#1680=CARTESIAN_POINT('',(0.00484667018133437,-0.000379653786294928,0.));
#1681=CARTESIAN_POINT('',(0.00484667018133437,-0.000379653786294928,0.00025));
#1682=CARTESIAN_POINT('',(0.00630718901111483,-0.00103301796334837,0.00025));
#1683=CARTESIAN_POINT('',(0.00781166322906817,-0.0015775887369983,0.00025));
#1684=CARTESIAN_POINT('',(0.00781166322906817,-0.0015775887369983,0.));
#1685=CARTESIAN_POINT('',(0.01325,-0.00775,0.00075));
#1686=CARTESIAN_POINT('',(0.01325,-0.0045666315929223,-0.00075));
#1687=CARTESIAN_POINT('',(0.01325,-0.0045666315929223,-0.00075));
#1688=CARTESIAN_POINT('',(0.01325,-0.0045666315929223,-0.00025));
#1689=CARTESIAN_POINT('',(0.01325,-0.00775,-0.00075));
#1690=CARTESIAN_POINT('',(0.01325,0.00233300524425837,-0.00075));
#1691=CARTESIAN_POINT('',(0.01325,0.00233300524425837,-0.000751));
#1692=CARTESIAN_POINT('',(0.01325,-0.0045666315929223,-0.00075));
#1693=CARTESIAN_POINT('',(0.01325,-0.0045666315929223,0.00025));
#1694=CARTESIAN_POINT('',(0.01325,-0.00775,0.00025));
#1695=CARTESIAN_POINT('',(0.01325,-0.00296699475574163,0.00025));
#1696=CARTESIAN_POINT('',(0.01325,-0.00296699475574163,-0.00025));
#1697=CARTESIAN_POINT('',(0.01325,-0.00296699475574163,-0.00025));
#1698=CARTESIAN_POINT('',(0.01325,-0.00775,-0.00025));
#1699=CARTESIAN_POINT('',(0.,0.,-0.00075));
#1700=CARTESIAN_POINT('',(0.00125,0.00545,-0.00075));
#1701=CARTESIAN_POINT('',(-0.0007,0.00545,-0.00075));
#1702=CARTESIAN_POINT('',(-0.00892192718961871,-0.00504278628639197,-0.00075));
#1703=CARTESIAN_POINT('',(-0.0086614299168964,-0.00504278628639197,-0.00075));
#1704=CARTESIAN_POINT('',(-0.00910068726208201,-0.0052322689124832,-0.00075));
#1705=CARTESIAN_POINT('',(-0.0101986492981118,-0.00639608993285176,-0.00075));
#1706=CARTESIAN_POINT('',(-0.0117986492981118,-0.00639608993285176,-0.00075));
#1707=CARTESIAN_POINT('',(-0.0117986492981118,-0.00639608993285176,-0.00075));
#1708=CARTESIAN_POINT('',(-0.0117986492981118,-0.00702432464905589,-0.00075));
#1709=CARTESIAN_POINT('',(-0.0125243246490559,-0.00702432464905589,-0.00075));
#1710=CARTESIAN_POINT('',(-0.01325,-0.00702432464905589,-0.00075));
#1711=CARTESIAN_POINT('',(-0.01325,-0.00775,-0.00075));
#1712=CARTESIAN_POINT('',(-0.01325,-0.00148612537076565,-0.00075));
#1713=CARTESIAN_POINT('',(0.00125,-0.00825,-0.00075));
#1714=CARTESIAN_POINT('',(0.0125666315929223,-0.0045666315929223,-0.00075));
#1715=CARTESIAN_POINT('',(0.0118832631858446,-0.0045666315929223,-0.00075));
#1716=CARTESIAN_POINT('',(0.0118832631858446,-0.00351754485605519,-0.00075));
#1717=CARTESIAN_POINT('',(0.00856157583514439,-0.00184903272931631,-0.00075));
#1718=CARTESIAN_POINT('',(0.00411866735563355,-5.39811846085149E-5,-0.00075));
#1719=CARTESIAN_POINT('',(-0.000670244743987862,0.000113251310938611,-0.00075));
#1720=CARTESIAN_POINT('',(-0.00141919196368329,-0.000160845058661697,-0.00075));
#1721=CARTESIAN_POINT('',(-0.0029217294240618,-0.000710737030015429,-0.00075));
#1722=CARTESIAN_POINT('',(-0.0045217294240618,-0.000710737030015439,-0.00075));
#1723=CARTESIAN_POINT('',(-0.0045217294240618,-0.00071073703001544,-0.00075));
#1724=CARTESIAN_POINT('',(-0.0045217294240618,-0.00146041906349674,-0.00075));
#1725=CARTESIAN_POINT('',(-0.00524602631187473,-0.00146041906349674,-0.00075));
#1726=CARTESIAN_POINT('',(-0.00581174198620875,-0.00191271515844815,-0.00075));
#1727=CARTESIAN_POINT('',(-0.0070614299168964,-0.00291185482630926,-0.00075));
#1728=CARTESIAN_POINT('',(-0.0086614299168964,-0.00291185482630927,-0.00075));
#1729=CARTESIAN_POINT('',(-0.0086614299168964,-0.00291185482630927,-0.00075));
#1730=CARTESIAN_POINT('',(0.00125,-0.01355,-0.00025));
#1731=CARTESIAN_POINT('',(-0.0101986492981118,-0.00639608993285176,-0.00025));
#1732=CARTESIAN_POINT('',(-0.00910068726208508,-0.00523226891248646,-0.00025));
#1733=CARTESIAN_POINT('',(-0.0117986492981118,-0.00639608993285176,-0.00025));
#1734=CARTESIAN_POINT('',(-0.00892192718961871,-0.00504278628639197,-0.00025));
#1735=CARTESIAN_POINT('',(-0.0086614299168964,-0.00504278628639197,-0.00025));
#1736=CARTESIAN_POINT('',(-0.0086614299168964,-0.01355,-0.00025));
#1737=CARTESIAN_POINT('',(-0.0086614299168964,-0.00291185482630927,-0.00025));
#1738=CARTESIAN_POINT('',(-0.0070614299168964,-0.00291185482630926,-0.00025));
#1739=CARTESIAN_POINT('',(-0.00581174198620875,-0.00191271515844815,-0.00025));
#1740=CARTESIAN_POINT('',(-0.00524602631187473,-0.00146041906349674,-0.00025));
#1741=CARTESIAN_POINT('',(-0.0045217294240618,-0.00146041906349674,-0.00025));
#1742=CARTESIAN_POINT('',(-0.0045217294240618,-0.01355,-0.00025));
#1743=CARTESIAN_POINT('',(-0.0045217294240618,-0.000710737030015439,-0.00025));
#1744=CARTESIAN_POINT('',(-0.0029217294240618,-0.000710737030015429,-0.00025));
#1745=CARTESIAN_POINT('',(-0.00141919196368329,-0.000160845058661697,-0.00025));
#1746=CARTESIAN_POINT('',(-0.000670244743987862,0.000113251310938611,-0.00025));
#1747=CARTESIAN_POINT('',(0.00411866735563355,-5.39811846085149E-5,-0.00025));
#1748=CARTESIAN_POINT('',(0.00856157583514439,-0.00184903272931631,-0.00025));
#1749=CARTESIAN_POINT('',(0.0118832631858446,-0.01355,-0.00025));
#1750=CARTESIAN_POINT('',(0.0118832631858446,-0.0045666315929223,-0.00025));
#1751=CARTESIAN_POINT('',(0.0125666315929223,-0.0045666315929223,-0.00025));
#1752=CARTESIAN_POINT('',(0.00125,-0.01355,-0.00025));
#1753=CARTESIAN_POINT('',(-0.01325,-0.00678612537076565,-0.00025));
#1754=CARTESIAN_POINT('',(-0.01325,-0.00775,-0.00025));
#1755=CARTESIAN_POINT('',(-0.01325,-0.00702432464905589,-0.00025));
#1756=CARTESIAN_POINT('',(-0.0125243246490559,-0.00702432464905589,-0.00025));
#1757=CARTESIAN_POINT('',(-0.0117986492981118,-0.00702432464905589,-0.00025));
#1758=CARTESIAN_POINT('',(-0.0117986492981118,-0.01355,-0.00025));
#1759=CARTESIAN_POINT('',(0.00125,-0.01355,0.00025));
#1760=CARTESIAN_POINT('',(-0.0086614299168964,-0.01355,0.00025));
#1761=CARTESIAN_POINT('',(-0.0086614299168964,-0.00291185482630927,0.00025));
#1762=CARTESIAN_POINT('',(-0.0086614299168964,-0.00504278628639197,0.00025));
#1763=CARTESIAN_POINT('',(-0.00892192718961871,-0.00504278628639197,0.00025));
#1764=CARTESIAN_POINT('',(-0.00910068726208201,-0.0052322689124832,0.00025));
#1765=CARTESIAN_POINT('',(-0.0101986492981118,-0.00639608993285176,0.00025));
#1766=CARTESIAN_POINT('',(-0.0117986492981118,-0.00639608993285176,0.00025));
#1767=CARTESIAN_POINT('',(-0.0117986492981118,-0.01355,0.00025));
#1768=CARTESIAN_POINT('',(-0.0117986492981118,-0.00702432464905589,0.00025));
#1769=CARTESIAN_POINT('',(-0.0125243246490559,-0.00702432464905589,0.00025));
#1770=CARTESIAN_POINT('',(-0.01325,-0.00702432464905589,0.00025));
#1771=CARTESIAN_POINT('',(-0.01325,-0.00775,0.00025));
#1772=CARTESIAN_POINT('',(-0.01325,-0.00678612537076565,0.00025));
#1773=CARTESIAN_POINT('',(0.00125,-0.01355,0.00025));
#1774=CARTESIAN_POINT('',(0.0125666315929223,-0.0045666315929223,0.00025));
#1775=CARTESIAN_POINT('',(0.0118832631858446,-0.0045666315929223,0.00025));
#1776=CARTESIAN_POINT('',(0.0118832631858446,-0.01355,0.00025));
#1777=CARTESIAN_POINT('',(0.00856157583514439,-0.00184903272931631,0.00025));
#1778=CARTESIAN_POINT('',(0.00411866735563355,-5.39811846085149E-5,0.00025));
#1779=CARTESIAN_POINT('',(-0.000670244743987862,0.000113251310938611,0.00025));
#1780=CARTESIAN_POINT('',(-0.00141919196368329,-0.000160845058661697,0.00025));
#1781=CARTESIAN_POINT('',(-0.0029217294240618,-0.000710737030015429,0.00025));
#1782=CARTESIAN_POINT('',(-0.0045217294240618,-0.000710737030015439,0.00025));
#1783=CARTESIAN_POINT('',(-0.0045217294240618,-0.01355,0.00025));
#1784=CARTESIAN_POINT('',(-0.0045217294240618,-0.00146041906349674,0.00025));
#1785=CARTESIAN_POINT('',(-0.00524602631187473,-0.00146041906349674,0.00025));
#1786=CARTESIAN_POINT('',(-0.00581174198620875,-0.00191271515844815,0.00025));
#1787=CARTESIAN_POINT('',(-0.0070614299168964,-0.00291185482630926,0.00025));
#1788=CARTESIAN_POINT('',(-0.01325,-0.00775,0.00075));
#1789=CARTESIAN_POINT('',(-0.01325,-0.00702432464905589,-0.00075));
#1790=CARTESIAN_POINT('',(-0.01325,-0.00148612537076565,-0.000751));
#1791=CARTESIAN_POINT('',(-0.01325,-0.00702432464905589,-0.00075));
#1792=CARTESIAN_POINT('',(-0.01325,-0.00678612537076565,-0.00025));
#1793=CARTESIAN_POINT('',(0.00125,-0.00825,-0.000751));
#1794=CARTESIAN_POINT('',(0.00125,-0.01355,-0.00025));
#1795=CARTESIAN_POINT('',(-0.0029217294240618,-0.000710737030015429,-0.00075));
#1796=CARTESIAN_POINT('',(-0.0045217294240618,-0.000710737030015439,-0.00075));
#1797=CARTESIAN_POINT('',(-0.00141919196368329,-0.000160845058661697,-0.00075));
#1798=CARTESIAN_POINT('',(-0.0029217294240618,-0.000710737030015429,-0.00075));
#1799=CARTESIAN_POINT('',(-0.0045217294240618,-0.000710737030015439,-0.00075));
#1800=CARTESIAN_POINT('',(-0.00141919196368329,-0.000160845058661697,-0.00075));
#1801=CARTESIAN_POINT('',(-0.0070614299168964,-0.00291185482630926,-0.00075));
#1802=CARTESIAN_POINT('',(-0.0086614299168964,-0.00291185482630927,-0.00075));
#1803=CARTESIAN_POINT('',(-0.00581174198620875,-0.00191271515844815,-0.00075));
#1804=CARTESIAN_POINT('',(-0.0070614299168964,-0.00291185482630926,-0.00075));
#1805=CARTESIAN_POINT('',(-0.0086614299168964,-0.00291185482630927,-0.00075));
#1806=CARTESIAN_POINT('',(-0.00581174198620875,-0.00191271515844815,-0.00075));
#1807=CARTESIAN_POINT('',(-0.0101986492981118,-0.00639608993285176,-0.00075));
#1808=CARTESIAN_POINT('',(-0.00910068726208201,-0.0052322689124832,-0.00075));
#1809=CARTESIAN_POINT('',(-0.0117986492981118,-0.00639608993285176,-0.00075));
#1810=CARTESIAN_POINT('',(-0.0101986492981118,-0.00639608993285176,-0.00075));
#1811=CARTESIAN_POINT('',(-0.00910068726208201,-0.0052322689124832,-0.00075));
#1812=CARTESIAN_POINT('',(-0.0117986492981118,-0.00639608993285176,-0.00075));
#1813=CARTESIAN_POINT('',(-0.0117986492981118,-0.00639608993285176,-0.00075));
#1814=CARTESIAN_POINT('',(-0.0117986492981118,-0.00702432464905589,-0.00075));
#1815=CARTESIAN_POINT('',(-0.0125243246490559,-0.00702432464905589,-0.00075));
#1816=CARTESIAN_POINT('',(-0.0125243246490559,-0.00702432464905589,-0.00075));
#1817=CARTESIAN_POINT('',(-0.0117986492981118,-0.00702432464905589,-0.00075));
#1818=CARTESIAN_POINT('',(-0.0117986492981118,-0.00639608993285176,-0.00075));
#1819=CARTESIAN_POINT('',(0.0118832631858446,-0.00351754485605519,-0.00075));
#1820=CARTESIAN_POINT('',(0.0118832631858446,-0.0045666315929223,-0.00075));
#1821=CARTESIAN_POINT('',(0.0125666315929223,-0.0045666315929223,-0.00075));
#1822=CARTESIAN_POINT('',(0.0125666315929223,-0.0045666315929223,-0.00075));
#1823=CARTESIAN_POINT('',(0.0118832631858446,-0.0045666315929223,-0.00075));
#1824=CARTESIAN_POINT('',(0.0118832631858446,-0.00351754485605519,-0.00075));
#1825=CARTESIAN_POINT('',(-0.00892192718961871,-0.00504278628639197,-0.00075));
#1826=CARTESIAN_POINT('',(-0.0086614299168964,-0.00504278628639197,-0.00075));
#1827=CARTESIAN_POINT('',(-0.0086614299168964,-0.00291185482630927,-0.00075));
#1828=CARTESIAN_POINT('',(-0.00892192718961871,-0.00504278628639197,-0.00075));
#1829=CARTESIAN_POINT('',(-0.0086614299168964,-0.00504278628639197,-0.00075));
#1830=CARTESIAN_POINT('',(-0.0086614299168964,-0.00291185482630927,-0.00075));
#1831=CARTESIAN_POINT('',(-0.00524602631187473,-0.00146041906349674,-0.00075));
#1832=CARTESIAN_POINT('',(-0.0045217294240618,-0.00146041906349674,-0.00075));
#1833=CARTESIAN_POINT('',(-0.0045217294240618,-0.00071073703001544,-0.00075));
#1834=CARTESIAN_POINT('',(-0.00524602631187473,-0.00146041906349674,-0.00075));
#1835=CARTESIAN_POINT('',(-0.0045217294240618,-0.00146041906349674,-0.00075));
#1836=CARTESIAN_POINT('',(-0.0045217294240618,-0.00071073703001544,-0.00075));
#1837=CARTESIAN_POINT('',(-0.000670244743987862,0.000113251310938611,-0.00075));
#1838=CARTESIAN_POINT('',(-0.000670244743987862,0.000113251310938611,-0.00075));
#1839=CARTESIAN_POINT('',(0.00856157583514439,-0.00184903272931631,-0.00075));
#1840=CARTESIAN_POINT('',(0.00411866735563355,-5.39811846085149E-5,-0.00075));
#1841=CARTESIAN_POINT('',(0.00856157583514439,-0.00184903272931631,-0.00075));
#1842=CARTESIAN_POINT('',(0.00411866735563355,-5.39811846085149E-5,-0.00075));
#1843=CARTESIAN_POINT('',(0.00125,0.00545,-0.00075));
#1844=CARTESIAN_POINT('',(-0.00125,0.00585,0.00075));
#1845=CARTESIAN_POINT('',(-0.00125,0.00585,0.00075));
#1846=CARTESIAN_POINT('',(-0.00125,0.00545,0.00035));
#1847=CARTESIAN_POINT('',(-0.00125,0.00545,0.00035));
#1848=CARTESIAN_POINT('',(-0.00125,0.00545,0.00035));
#1849=CARTESIAN_POINT('',(-0.00125,0.00545,0.00035));
#1850=CARTESIAN_POINT('',(-0.00125,0.,0.));
#1851=CARTESIAN_POINT('',(-0.000800609665440984,0.00396507575950825,0.00075));
#1852=CARTESIAN_POINT('',(-0.000800609665440984,0.00396507575950825,0.00075));
#1853=CARTESIAN_POINT('',(-0.000517766952966365,0.00368223304703363,0.00035));
#1854=CARTESIAN_POINT('',(-0.000517766952966365,0.00368223304703363,0.00035));
#1855=CARTESIAN_POINT('',(-0.000517766952966365,0.00368223304703363,0.00035));
#1856=CARTESIAN_POINT('',(-0.000517766952966365,0.00368223304703363,0.00035));
#1857=CARTESIAN_POINT('',(0.00333596500450033,-0.000171498910433049,0.));
#1858=CARTESIAN_POINT('',(0.00330060966544099,0.00396507575950825,0.00075));
#1859=CARTESIAN_POINT('',(0.00301776695296637,0.00368223304703363,0.00035));
#1860=CARTESIAN_POINT('',(0.00301776695296637,0.00368223304703363,0.00035));
#1861=CARTESIAN_POINT('',(0.00330060966544099,0.00396507575950825,0.00075));
#1862=CARTESIAN_POINT('',(0.00301776695296637,0.00368223304703363,0.00035));
#1863=CARTESIAN_POINT('',(0.00301776695296637,0.00368223304703363,0.00035));
#1864=CARTESIAN_POINT('',(-0.000835965004500326,-0.000171498910433049,0.));
#1865=CARTESIAN_POINT('',(0.00375,0.00545,0.00035));
#1866=CARTESIAN_POINT('',(0.00375,0.00545,0.00035));
#1867=CARTESIAN_POINT('',(0.00375,0.00545,0.00035));
#1868=CARTESIAN_POINT('',(0.00375,0.00545,0.00035));
#1869=CARTESIAN_POINT('',(0.00375,0.00585,0.00075));
#1870=CARTESIAN_POINT('',(0.00375,0.00585,0.00075));
#1871=CARTESIAN_POINT('',(0.00375,0.,0.));
#1872=(
GEOMETRIC_REPRESENTATION_CONTEXT(3)
GLOBAL_UNCERTAINTY_ASSIGNED_CONTEXT((#1873))
GLOBAL_UNIT_ASSIGNED_CONTEXT((#1876,#1875,#1874))
REPRESENTATION_CONTEXT('id2','TOP_LEVEL_ASSEMBLY_PART')
);
#1873=UNCERTAINTY_MEASURE_WITH_UNIT(LENGTH_MEASURE(1.E-8),#1876,
'DISTANCE_ACCURACY_VALUE','Maximum Tolerance applied to model');
#1874=(
NAMED_UNIT(*)
SI_UNIT($,.STERADIAN.)
SOLID_ANGLE_UNIT()
);
#1875=(
NAMED_UNIT(*)
PLANE_ANGLE_UNIT()
SI_UNIT($,.RADIAN.)
);
#1876=(
LENGTH_UNIT()
NAMED_UNIT(*)
SI_UNIT($,.METRE.)
);
#1877=PRODUCT_DEFINITION_SHAPE('','',#1878);
#1878=PRODUCT_DEFINITION('','',#1880,#1879);
#1879=DESIGN_CONTEXT('',#1886,'design');
#1880=PRODUCT_DEFINITION_FORMATION_WITH_SPECIFIED_SOURCE('','',#1882,
 .NOT_KNOWN.);
#1881=PRODUCT_RELATED_PRODUCT_CATEGORY('','',(#1882));
#1882=PRODUCT('id2','id2','id2',(#1884));
#1883=PRODUCT_CATEGORY('','');
#1884=MECHANICAL_CONTEXT('',#1886,'mechanical');
#1885=APPLICATION_PROTOCOL_DEFINITION('international standard',
'config_control_design',2010,#1886);
#1886=APPLICATION_CONTEXT(
'configuration controlled 3D designs of mechanical parts and assemblie
s');
ENDSEC;
END-ISO-10303-21;
