ISO-10303-21;
HEADER;
/* Generated by software containing ST-Developer
 * from STEP Tools, Inc. (www.steptools.com) 
 */
/* OPTION: using custom renumber hook */

FILE_DESCRIPTION(
/* description */ ('STEP AP203'),
/* implementation_level */ '2;1');

FILE_NAME(
/* name */ '6a54646174afeff7201e56dc',
/* time_stamp */ '2026-07-13T04:06:57Z',
/* author */ (''),
/* organization */ (''),
/* preprocessor_version */ 'ST-DEVELOPER v20',
/* originating_system */ 'ONSHAPE BY PTC INC, 1.217',
/* authorisation */ '  ');

FILE_SCHEMA (('CONFIG_CONTROL_DESIGN'));
ENDSEC;

DATA;
#10=PROPERTY_DEFINITION_REPRESENTATION(#14,#12);
#11=PROPERTY_DEFINITION_REPRESENTATION(#15,#13);
#12=REPRESENTATION('',(#16),#320);
#13=REPRESENTATION('',(#17),#320);
#14=PROPERTY_DEFINITION('pmi validation property','',#325);
#15=PROPERTY_DEFINITION('pmi validation property','',#325);
#16=VALUE_REPRESENTATION_ITEM('number of annotations',COUNT_MEASURE(0.));
#17=VALUE_REPRESENTATION_ITEM('number of views',COUNT_MEASURE(0.));
#18=SHAPE_REPRESENTATION_RELATIONSHIP('','',#188,#19);
#19=ADVANCED_BREP_SHAPE_REPRESENTATION('',(#186),#320);
#20=CONICAL_SURFACE('',#210,0.0007,0.785398163397452);
#21=TOROIDAL_SURFACE('',#209,0.0002,0.0002);
#22=CYLINDRICAL_SURFACE('',#192,0.0007);
#23=CYLINDRICAL_SURFACE('',#195,0.001);
#24=CYLINDRICAL_SURFACE('',#205,0.0004);
#25=CIRCLE('',#191,0.001);
#26=CIRCLE('',#193,0.0007);
#27=CIRCLE('',#194,0.0007);
#28=CIRCLE('',#196,0.001);
#29=CIRCLE('',#197,0.001);
#30=CIRCLE('',#198,0.001);
#31=CIRCLE('',#199,0.001);
#32=CIRCLE('',#203,0.0005);
#33=CIRCLE('',#204,0.0004);
#34=CIRCLE('',#206,0.0004);
#35=CIRCLE('',#208,0.0002);
#36=ORIENTED_EDGE('',*,*,#74,.F.);
#37=ORIENTED_EDGE('',*,*,#75,.T.);
#38=ORIENTED_EDGE('',*,*,#76,.T.);
#39=ORIENTED_EDGE('',*,*,#77,.T.);
#40=ORIENTED_EDGE('',*,*,#78,.F.);
#41=ORIENTED_EDGE('',*,*,#75,.F.);
#42=ORIENTED_EDGE('',*,*,#79,.F.);
#43=ORIENTED_EDGE('',*,*,#80,.F.);
#44=ORIENTED_EDGE('',*,*,#81,.F.);
#45=ORIENTED_EDGE('',*,*,#82,.F.);
#46=ORIENTED_EDGE('',*,*,#83,.F.);
#47=ORIENTED_EDGE('',*,*,#84,.F.);
#48=ORIENTED_EDGE('',*,*,#85,.T.);
#49=ORIENTED_EDGE('',*,*,#86,.F.);
#50=ORIENTED_EDGE('',*,*,#82,.T.);
#51=ORIENTED_EDGE('',*,*,#85,.F.);
#52=ORIENTED_EDGE('',*,*,#77,.F.);
#53=ORIENTED_EDGE('',*,*,#87,.T.);
#54=ORIENTED_EDGE('',*,*,#88,.F.);
#55=ORIENTED_EDGE('',*,*,#89,.T.);
#56=ORIENTED_EDGE('',*,*,#88,.T.);
#57=ORIENTED_EDGE('',*,*,#90,.T.);
#58=ORIENTED_EDGE('',*,*,#89,.F.);
#59=ORIENTED_EDGE('',*,*,#90,.F.);
#60=ORIENTED_EDGE('',*,*,#87,.F.);
#61=ORIENTED_EDGE('',*,*,#76,.F.);
#62=ORIENTED_EDGE('',*,*,#78,.T.);
#63=ORIENTED_EDGE('',*,*,#91,.F.);
#64=ORIENTED_EDGE('',*,*,#79,.T.);
#65=ORIENTED_EDGE('',*,*,#74,.T.);
#66=ORIENTED_EDGE('',*,*,#81,.T.);
#67=ORIENTED_EDGE('',*,*,#92,.F.);
#68=ORIENTED_EDGE('',*,*,#83,.T.);
#69=ORIENTED_EDGE('',*,*,#86,.T.);
#70=ORIENTED_EDGE('',*,*,#84,.T.);
#71=ORIENTED_EDGE('',*,*,#92,.T.);
#72=ORIENTED_EDGE('',*,*,#80,.T.);
#73=ORIENTED_EDGE('',*,*,#91,.T.);
#74=EDGE_CURVE('',#93,#94,#108,.T.);
#75=EDGE_CURVE('',#93,#94,#25,.T.);
#76=EDGE_CURVE('',#95,#95,#26,.F.);
#77=EDGE_CURVE('',#96,#96,#27,.T.);
#78=EDGE_CURVE('',#94,#97,#109,.F.);
#79=EDGE_CURVE('',#98,#93,#110,.T.);
#80=EDGE_CURVE('',#99,#98,#28,.F.);
#81=EDGE_CURVE('',#100,#99,#111,.F.);
#82=EDGE_CURVE('',#101,#100,#29,.T.);
#83=EDGE_CURVE('',#102,#101,#112,.T.);
#84=EDGE_CURVE('',#97,#102,#30,.F.);
#85=EDGE_CURVE('',#103,#103,#31,.F.);
#86=EDGE_CURVE('',#101,#100,#113,.T.);
#87=EDGE_CURVE('',#104,#104,#32,.T.);
#88=EDGE_CURVE('',#105,#105,#33,.T.);
#89=EDGE_CURVE('',#106,#106,#34,.T.);
#90=EDGE_CURVE('',#107,#107,#35,.F.);
#91=EDGE_CURVE('',#98,#97,#114,.T.);
#92=EDGE_CURVE('',#102,#99,#115,.T.);
#93=VERTEX_POINT('',#275);
#94=VERTEX_POINT('',#276);
#95=VERTEX_POINT('',#280);
#96=VERTEX_POINT('',#282);
#97=VERTEX_POINT('',#285);
#98=VERTEX_POINT('',#287);
#99=VERTEX_POINT('',#289);
#100=VERTEX_POINT('',#291);
#101=VERTEX_POINT('',#293);
#102=VERTEX_POINT('',#295);
#103=VERTEX_POINT('',#298);
#104=VERTEX_POINT('',#304);
#105=VERTEX_POINT('',#306);
#106=VERTEX_POINT('',#309);
#107=VERTEX_POINT('',#312);
#108=LINE('',#274,#116);
#109=LINE('',#284,#117);
#110=LINE('',#286,#118);
#111=LINE('',#290,#119);
#112=LINE('',#294,#120);
#113=LINE('',#300,#121);
#114=LINE('',#316,#122);
#115=LINE('',#318,#123);
#116=VECTOR('',#218,1.);
#117=VECTOR('',#229,1.);
#118=VECTOR('',#230,1.);
#119=VECTOR('',#233,1.);
#120=VECTOR('',#236,1.);
#121=VECTOR('',#243,1.);
#122=VECTOR('',#266,1.);
#123=VECTOR('',#269,1.);
#124=EDGE_LOOP('',(#36,#37));
#125=EDGE_LOOP('',(#38));
#126=EDGE_LOOP('',(#39));
#127=EDGE_LOOP('',(#40,#41,#42,#43,#44,#45,#46,#47));
#128=EDGE_LOOP('',(#48));
#129=EDGE_LOOP('',(#49,#50));
#130=EDGE_LOOP('',(#51));
#131=EDGE_LOOP('',(#52));
#132=EDGE_LOOP('',(#53));
#133=EDGE_LOOP('',(#54));
#134=EDGE_LOOP('',(#55));
#135=EDGE_LOOP('',(#56));
#136=EDGE_LOOP('',(#57));
#137=EDGE_LOOP('',(#58));
#138=EDGE_LOOP('',(#59));
#139=EDGE_LOOP('',(#60));
#140=EDGE_LOOP('',(#61));
#141=EDGE_LOOP('',(#62,#63,#64,#65));
#142=EDGE_LOOP('',(#66,#67,#68,#69));
#143=EDGE_LOOP('',(#70,#71,#72,#73));
#144=FACE_BOUND('',#124,.T.);
#145=FACE_BOUND('',#125,.T.);
#146=FACE_BOUND('',#126,.T.);
#147=FACE_BOUND('',#127,.T.);
#148=FACE_BOUND('',#128,.T.);
#149=FACE_BOUND('',#129,.T.);
#150=FACE_BOUND('',#130,.T.);
#151=FACE_BOUND('',#131,.T.);
#152=FACE_BOUND('',#132,.T.);
#153=FACE_BOUND('',#133,.T.);
#154=FACE_BOUND('',#134,.T.);
#155=FACE_BOUND('',#135,.T.);
#156=FACE_BOUND('',#136,.T.);
#157=FACE_BOUND('',#137,.T.);
#158=FACE_BOUND('',#138,.T.);
#159=FACE_BOUND('',#139,.T.);
#160=FACE_BOUND('',#140,.T.);
#161=FACE_BOUND('',#141,.T.);
#162=FACE_BOUND('',#142,.T.);
#163=FACE_BOUND('',#143,.T.);
#164=PLANE('',#190);
#165=PLANE('',#200);
#166=PLANE('',#201);
#167=PLANE('',#202);
#168=PLANE('',#207);
#169=PLANE('',#211);
#170=PLANE('',#212);
#171=PLANE('',#213);
#172=ADVANCED_FACE('',(#144),#164,.T.);
#173=ADVANCED_FACE('',(#145,#146),#22,.T.);
#174=ADVANCED_FACE('',(#147,#148),#23,.T.);
#175=ADVANCED_FACE('',(#149),#165,.T.);
#176=ADVANCED_FACE('',(#150,#151),#166,.T.);
#177=ADVANCED_FACE('',(#152,#153),#167,.T.);
#178=ADVANCED_FACE('',(#154,#155),#24,.T.);
#179=ADVANCED_FACE('',(#156),#168,.F.);
#180=ADVANCED_FACE('',(#157,#158),#21,.T.);
#181=ADVANCED_FACE('',(#159,#160),#20,.T.);
#182=ADVANCED_FACE('',(#161),#169,.F.);
#183=ADVANCED_FACE('',(#162),#170,.F.);
#184=ADVANCED_FACE('',(#163),#171,.F.);
#185=CLOSED_SHELL('',(#172,#173,#174,#175,#176,#177,#178,#179,#180,#181,
#182,#183,#184));
#186=MANIFOLD_SOLID_BREP('',#185);
#187=SHAPE_DEFINITION_REPRESENTATION(#325,#188);
#188=SHAPE_REPRESENTATION('id2',(#189),#320);
#189=AXIS2_PLACEMENT_3D('',#272,#214,#215);
#190=AXIS2_PLACEMENT_3D('',#273,#216,#217);
#191=AXIS2_PLACEMENT_3D('',#277,#219,#220);
#192=AXIS2_PLACEMENT_3D('',#278,#221,#222);
#193=AXIS2_PLACEMENT_3D('',#279,#223,#224);
#194=AXIS2_PLACEMENT_3D('',#281,#225,#226);
#195=AXIS2_PLACEMENT_3D('',#283,#227,#228);
#196=AXIS2_PLACEMENT_3D('',#288,#231,#232);
#197=AXIS2_PLACEMENT_3D('',#292,#234,#235);
#198=AXIS2_PLACEMENT_3D('',#296,#237,#238);
#199=AXIS2_PLACEMENT_3D('',#297,#239,#240);
#200=AXIS2_PLACEMENT_3D('',#299,#241,#242);
#201=AXIS2_PLACEMENT_3D('',#301,#244,#245);
#202=AXIS2_PLACEMENT_3D('',#302,#246,#247);
#203=AXIS2_PLACEMENT_3D('',#303,#248,#249);
#204=AXIS2_PLACEMENT_3D('',#305,#250,#251);
#205=AXIS2_PLACEMENT_3D('',#307,#252,#253);
#206=AXIS2_PLACEMENT_3D('',#308,#254,#255);
#207=AXIS2_PLACEMENT_3D('',#310,#256,#257);
#208=AXIS2_PLACEMENT_3D('',#311,#258,#259);
#209=AXIS2_PLACEMENT_3D('',#313,#260,#261);
#210=AXIS2_PLACEMENT_3D('',#314,#262,#263);
#211=AXIS2_PLACEMENT_3D('',#315,#264,#265);
#212=AXIS2_PLACEMENT_3D('',#317,#267,#268);
#213=AXIS2_PLACEMENT_3D('',#319,#270,#271);
#214=DIRECTION('',(0.,0.,1.));
#215=DIRECTION('',(1.,0.,0.));
#216=DIRECTION('',(0.,0.,1.));
#217=DIRECTION('',(1.,0.,0.));
#218=DIRECTION('',(1.,0.,0.));
#219=DIRECTION('',(0.,0.,1.));
#220=DIRECTION('',(1.,0.,0.));
#221=DIRECTION('',(0.,0.,-1.));
#222=DIRECTION('',(-1.,0.,0.));
#223=DIRECTION('',(0.,0.,-1.));
#224=DIRECTION('',(-1.,0.,0.));
#225=DIRECTION('',(0.,0.,-1.));
#226=DIRECTION('',(-1.,0.,0.));
#227=DIRECTION('',(0.,0.,1.));
#228=DIRECTION('',(1.,0.,0.));
#229=DIRECTION('',(0.,0.,1.));
#230=DIRECTION('',(0.,0.,1.));
#231=DIRECTION('',(0.,0.,-1.));
#232=DIRECTION('',(-1.,0.,0.));
#233=DIRECTION('',(0.,0.,1.));
#234=DIRECTION('',(0.,0.,1.));
#235=DIRECTION('',(1.,0.,0.));
#236=DIRECTION('',(0.,0.,1.));
#237=DIRECTION('',(0.,0.,-1.));
#238=DIRECTION('',(-1.,0.,0.));
#239=DIRECTION('',(0.,0.,-1.));
#240=DIRECTION('',(-1.,0.,0.));
#241=DIRECTION('',(0.,0.,1.));
#242=DIRECTION('',(1.,0.,0.));
#243=DIRECTION('',(-1.,0.,0.));
#244=DIRECTION('',(0.,0.,-1.));
#245=DIRECTION('',(-1.,0.,0.));
#246=DIRECTION('',(0.,0.,-1.));
#247=DIRECTION('',(-1.,0.,0.));
#248=DIRECTION('',(0.,0.,-1.));
#249=DIRECTION('',(-1.,0.,0.));
#250=DIRECTION('',(0.,0.,-1.));
#251=DIRECTION('',(-1.,0.,0.));
#252=DIRECTION('',(0.,0.,-1.));
#253=DIRECTION('',(-1.,0.,0.));
#254=DIRECTION('',(0.,0.,1.));
#255=DIRECTION('',(1.,0.,0.));
#256=DIRECTION('',(0.,0.,1.));
#257=DIRECTION('',(1.,0.,0.));
#258=DIRECTION('',(0.,0.,1.));
#259=DIRECTION('',(1.,0.,0.));
#260=DIRECTION('',(0.,0.,1.));
#261=DIRECTION('',(1.,0.,0.));
#262=DIRECTION('',(0.,0.,1.));
#263=DIRECTION('',(1.,0.,0.));
#264=DIRECTION('',(0.,-1.,0.));
#265=DIRECTION('',(0.,0.,-1.));
#266=DIRECTION('',(1.,0.,0.));
#267=DIRECTION('',(0.,1.,0.));
#268=DIRECTION('',(0.,0.,1.));
#269=DIRECTION('',(-1.,0.,0.));
#270=DIRECTION('',(0.,0.,-1.));
#271=DIRECTION('',(-1.,0.,0.));
#272=CARTESIAN_POINT('',(0.,0.,0.));
#273=CARTESIAN_POINT('',(0.,0.,0.));
#274=CARTESIAN_POINT('',(0.,-0.0002,0.));
#275=CARTESIAN_POINT('',(-0.000979795897113271,-0.0002,0.));
#276=CARTESIAN_POINT('',(0.000979795897113271,-0.0002,0.));
#277=CARTESIAN_POINT('',(0.,0.,0.));
#278=CARTESIAN_POINT('',(0.,0.,-0.001));
#279=CARTESIAN_POINT('',(0.,0.,-0.0024));
#280=CARTESIAN_POINT('',(-0.0007,0.,-0.0024));
#281=CARTESIAN_POINT('',(0.,0.,-0.001));
#282=CARTESIAN_POINT('',(-0.0007,0.,-0.001));
#283=CARTESIAN_POINT('',(0.,0.,-0.0032));
#284=CARTESIAN_POINT('',(0.000979795897113271,-0.0002,-0.0032));
#285=CARTESIAN_POINT('',(0.000979795897113271,-0.0002,-0.0006));
#286=CARTESIAN_POINT('',(-0.000979795897113271,-0.0002,-0.0032));
#287=CARTESIAN_POINT('',(-0.000979795897113271,-0.0002,-0.0006));
#288=CARTESIAN_POINT('',(0.,0.,-0.0006));
#289=CARTESIAN_POINT('',(-0.000979795897113271,0.0002,-0.0006));
#290=CARTESIAN_POINT('',(-0.000979795897113271,0.0002,-0.0032));
#291=CARTESIAN_POINT('',(-0.000979795897113271,0.0002,0.));
#292=CARTESIAN_POINT('',(0.,0.,0.));
#293=CARTESIAN_POINT('',(0.000979795897113271,0.0002,0.));
#294=CARTESIAN_POINT('',(0.000979795897113271,0.0002,-0.0032));
#295=CARTESIAN_POINT('',(0.000979795897113271,0.0002,-0.0006));
#296=CARTESIAN_POINT('',(0.,0.,-0.0006));
#297=CARTESIAN_POINT('',(0.,0.,-0.001));
#298=CARTESIAN_POINT('',(-0.001,0.,-0.001));
#299=CARTESIAN_POINT('',(0.,0.,0.));
#300=CARTESIAN_POINT('',(0.,0.0002,0.));
#301=CARTESIAN_POINT('',(0.,0.,-0.001));
#302=CARTESIAN_POINT('',(0.,0.,-0.0026));
#303=CARTESIAN_POINT('',(0.,0.,-0.0026));
#304=CARTESIAN_POINT('',(-0.0005,0.,-0.0026));
#305=CARTESIAN_POINT('',(0.,0.,-0.0026));
#306=CARTESIAN_POINT('',(-0.0004,0.,-0.0026));
#307=CARTESIAN_POINT('',(0.,0.,-0.0026));
#308=CARTESIAN_POINT('',(0.,0.,-0.003));
#309=CARTESIAN_POINT('',(0.0004,0.,-0.003));
#310=CARTESIAN_POINT('',(0.,0.,-0.0032));
#311=CARTESIAN_POINT('',(0.,0.,-0.0032));
#312=CARTESIAN_POINT('',(0.0002,0.,-0.0032));
#313=CARTESIAN_POINT('',(0.,0.,-0.003));
#314=CARTESIAN_POINT('',(0.,0.,-0.0024));
#315=CARTESIAN_POINT('',(-0.0011,-0.0002,-0.0006));
#316=CARTESIAN_POINT('',(-0.0011,-0.0002,-0.0006));
#317=CARTESIAN_POINT('',(-0.0011,0.0002,-0.0006));
#318=CARTESIAN_POINT('',(-0.0011,0.0002,-0.0006));
#319=CARTESIAN_POINT('',(0.,0.,-0.0006));
#320=(
GEOMETRIC_REPRESENTATION_CONTEXT(3)
GLOBAL_UNCERTAINTY_ASSIGNED_CONTEXT((#321))
GLOBAL_UNIT_ASSIGNED_CONTEXT((#324,#323,#322))
REPRESENTATION_CONTEXT('id2','TOP_LEVEL_ASSEMBLY_PART')
);
#321=UNCERTAINTY_MEASURE_WITH_UNIT(LENGTH_MEASURE(1.E-8),#324,
'DISTANCE_ACCURACY_VALUE','Maximum Tolerance applied to model');
#322=(
NAMED_UNIT(*)
SI_UNIT($,.STERADIAN.)
SOLID_ANGLE_UNIT()
);
#323=(
NAMED_UNIT(*)
PLANE_ANGLE_UNIT()
SI_UNIT($,.RADIAN.)
);
#324=(
LENGTH_UNIT()
NAMED_UNIT(*)
SI_UNIT($,.METRE.)
);
#325=PRODUCT_DEFINITION_SHAPE('','',#326);
#326=PRODUCT_DEFINITION('','',#328,#327);
#327=DESIGN_CONTEXT('',#334,'design');
#328=PRODUCT_DEFINITION_FORMATION_WITH_SPECIFIED_SOURCE('','',#330,
 .NOT_KNOWN.);
#329=PRODUCT_RELATED_PRODUCT_CATEGORY('','',(#330));
#330=PRODUCT('id2','id2','id2',(#332));
#331=PRODUCT_CATEGORY('','');
#332=MECHANICAL_CONTEXT('',#334,'mechanical');
#333=APPLICATION_PROTOCOL_DEFINITION('international standard',
'config_control_design',2010,#334);
#334=APPLICATION_CONTEXT(
'configuration controlled 3D designs of mechanical parts and assemblie
s');
ENDSEC;
END-ISO-10303-21;
