ISO-10303-21;
HEADER;
/* Generated by software containing ST-Developer
 * from STEP Tools, Inc. (www.steptools.com) 
 */
/* OPTION: using custom renumber hook */

FILE_DESCRIPTION(
/* description */ ('STEP AP203'),
/* implementation_level */ '2;1');

FILE_NAME(
/* name */ '6a54646b9ed6ccb7c5192638',
/* time_stamp */ '2026-07-13T04:07:08Z',
/* author */ (''),
/* organization */ (''),
/* preprocessor_version */ 'ST-DEVELOPER v20',
/* originating_system */ 'ONSHAPE BY PTC INC, 1.217',
/* authorisation */ '  ');

FILE_SCHEMA (('CONFIG_CONTROL_DESIGN'));
ENDSEC;

DATA;
#10=PROPERTY_DEFINITION_REPRESENTATION(#14,#12);
#11=PROPERTY_DEFINITION_REPRESENTATION(#15,#13);
#12=REPRESENTATION('',(#16),#2314);
#13=REPRESENTATION('',(#17),#2314);
#14=PROPERTY_DEFINITION('pmi validation property','',#2319);
#15=PROPERTY_DEFINITION('pmi validation property','',#2319);
#16=VALUE_REPRESENTATION_ITEM('number of annotations',COUNT_MEASURE(0.));
#17=VALUE_REPRESENTATION_ITEM('number of views',COUNT_MEASURE(0.));
#18=SHAPE_REPRESENTATION_RELATIONSHIP('','',#1345,#19);
#19=ADVANCED_BREP_SHAPE_REPRESENTATION('',(#1343),#2314);
#20=CONICAL_SURFACE('',#1535,0.0038,0.78539816339745);
#21=(
BOUNDED_SURFACE()
B_SPLINE_SURFACE(3,2,((#2301,#2302,#2303),(#2304,#2305,#2306),(#2307,#2308,
#2309),(#2310,#2311,#2312)),.UNSPECIFIED.,.F.,.F.,.F.)
B_SPLINE_SURFACE_WITH_KNOTS((4,4),(3,3),(0.000443758690883137,0.000944673220742008),
(0.,1.),.PIECEWISE_BEZIER_KNOTS.)
GEOMETRIC_REPRESENTATION_ITEM()
RATIONAL_B_SPLINE_SURFACE(((1.,0.707106781186554,1.),(1.,0.81181245765677,
1.),(1.,0.812199545601511,1.),(1.,0.707106781186554,1.)))
REPRESENTATION_ITEM('')
SURFACE()
);
#22=TOROIDAL_SURFACE('',#1498,0.0075,0.001);
#23=TOROIDAL_SURFACE('',#1532,0.0042,0.0002);
#24=B_SPLINE_CURVE_WITH_KNOTS('',3,(#2157,#2158,#2159,#2160),
 .UNSPECIFIED.,.F.,.F.,(4,4),(0.,0.000474953875216592),.UNSPECIFIED.);
#25=PLANE('',#1350);
#26=PLANE('',#1391);
#27=PLANE('',#1436);
#28=PLANE('',#1450);
#29=PLANE('',#1452);
#30=PLANE('',#1459);
#31=PLANE('',#1462);
#32=PLANE('',#1466);
#33=PLANE('',#1467);
#34=PLANE('',#1468);
#35=PLANE('',#1469);
#36=PLANE('',#1470);
#37=PLANE('',#1471);
#38=PLANE('',#1473);
#39=PLANE('',#1476);
#40=PLANE('',#1479);
#41=PLANE('',#1480);
#42=PLANE('',#1521);
#43=PLANE('',#1527);
#44=PLANE('',#1530);
#45=PLANE('',#1531);
#46=LINE('',#1953,#78);
#47=LINE('',#1957,#79);
#48=LINE('',#2037,#80);
#49=LINE('',#2041,#81);
#50=LINE('',#2126,#82);
#51=LINE('',#2130,#83);
#52=LINE('',#2134,#84);
#53=LINE('',#2135,#85);
#54=LINE('',#2137,#86);
#55=LINE('',#2138,#87);
#56=LINE('',#2140,#88);
#57=LINE('',#2145,#89);
#58=LINE('',#2169,#90);
#59=LINE('',#2170,#91);
#60=LINE('',#2174,#92);
#61=LINE('',#2178,#93);
#62=LINE('',#2180,#94);
#63=LINE('',#2182,#95);
#64=LINE('',#2196,#96);
#65=LINE('',#2197,#97);
#66=LINE('',#2201,#98);
#67=LINE('',#2202,#99);
#68=LINE('',#2215,#100);
#69=LINE('',#2217,#101);
#70=LINE('',#2220,#102);
#71=LINE('',#2224,#103);
#72=LINE('',#2227,#104);
#73=LINE('',#2231,#105);
#74=LINE('',#2233,#106);
#75=LINE('',#2235,#107);
#76=LINE('',#2239,#108);
#77=LINE('',#2241,#109);
#78=VECTOR('',#1542,1.);
#79=VECTOR('',#1545,1.);
#80=VECTOR('',#1626,1.);
#81=VECTOR('',#1629,1.);
#82=VECTOR('',#1714,1.);
#83=VECTOR('',#1717,1.);
#84=VECTOR('',#1720,1.);
#85=VECTOR('',#1721,1.);
#86=VECTOR('',#1724,1.);
#87=VECTOR('',#1725,1.);
#88=VECTOR('',#1728,1.);
#89=VECTOR('',#1731,1.);
#90=VECTOR('',#1752,1.);
#91=VECTOR('',#1753,1.);
#92=VECTOR('',#1756,1.);
#93=VECTOR('',#1759,1.);
#94=VECTOR('',#1762,1.);
#95=VECTOR('',#1763,1.);
#96=VECTOR('',#1778,1.);
#97=VECTOR('',#1779,1.);
#98=VECTOR('',#1782,1.);
#99=VECTOR('',#1783,1.);
#100=VECTOR('',#1802,1.);
#101=VECTOR('',#1805,1.);
#102=VECTOR('',#1810,1.);
#103=VECTOR('',#1815,1.);
#104=VECTOR('',#1820,1.);
#105=VECTOR('',#1823,1.);
#106=VECTOR('',#1826,1.);
#107=VECTOR('',#1827,1.);
#108=VECTOR('',#1832,1.);
#109=VECTOR('',#1835,1.);
#110=ORIENTED_EDGE('',*,*,#404,.F.);
#111=ORIENTED_EDGE('',*,*,#405,.T.);
#112=ORIENTED_EDGE('',*,*,#406,.T.);
#113=ORIENTED_EDGE('',*,*,#407,.F.);
#114=ORIENTED_EDGE('',*,*,#408,.F.);
#115=ORIENTED_EDGE('',*,*,#409,.F.);
#116=ORIENTED_EDGE('',*,*,#410,.F.);
#117=ORIENTED_EDGE('',*,*,#411,.F.);
#118=ORIENTED_EDGE('',*,*,#412,.F.);
#119=ORIENTED_EDGE('',*,*,#413,.F.);
#120=ORIENTED_EDGE('',*,*,#414,.F.);
#121=ORIENTED_EDGE('',*,*,#415,.F.);
#122=ORIENTED_EDGE('',*,*,#416,.F.);
#123=ORIENTED_EDGE('',*,*,#417,.F.);
#124=ORIENTED_EDGE('',*,*,#418,.F.);
#125=ORIENTED_EDGE('',*,*,#419,.F.);
#126=ORIENTED_EDGE('',*,*,#420,.F.);
#127=ORIENTED_EDGE('',*,*,#421,.F.);
#128=ORIENTED_EDGE('',*,*,#422,.F.);
#129=ORIENTED_EDGE('',*,*,#423,.F.);
#130=ORIENTED_EDGE('',*,*,#424,.F.);
#131=ORIENTED_EDGE('',*,*,#425,.T.);
#132=ORIENTED_EDGE('',*,*,#426,.F.);
#133=ORIENTED_EDGE('',*,*,#427,.F.);
#134=ORIENTED_EDGE('',*,*,#428,.F.);
#135=ORIENTED_EDGE('',*,*,#429,.F.);
#136=ORIENTED_EDGE('',*,*,#430,.F.);
#137=ORIENTED_EDGE('',*,*,#431,.F.);
#138=ORIENTED_EDGE('',*,*,#432,.F.);
#139=ORIENTED_EDGE('',*,*,#433,.F.);
#140=ORIENTED_EDGE('',*,*,#434,.F.);
#141=ORIENTED_EDGE('',*,*,#435,.F.);
#142=ORIENTED_EDGE('',*,*,#436,.F.);
#143=ORIENTED_EDGE('',*,*,#437,.F.);
#144=ORIENTED_EDGE('',*,*,#438,.F.);
#145=ORIENTED_EDGE('',*,*,#439,.F.);
#146=ORIENTED_EDGE('',*,*,#440,.F.);
#147=ORIENTED_EDGE('',*,*,#441,.F.);
#148=ORIENTED_EDGE('',*,*,#442,.F.);
#149=ORIENTED_EDGE('',*,*,#443,.F.);
#150=ORIENTED_EDGE('',*,*,#444,.T.);
#151=ORIENTED_EDGE('',*,*,#445,.T.);
#152=ORIENTED_EDGE('',*,*,#446,.T.);
#153=ORIENTED_EDGE('',*,*,#447,.T.);
#154=ORIENTED_EDGE('',*,*,#448,.F.);
#155=ORIENTED_EDGE('',*,*,#449,.T.);
#156=ORIENTED_EDGE('',*,*,#406,.F.);
#157=ORIENTED_EDGE('',*,*,#450,.F.);
#158=ORIENTED_EDGE('',*,*,#451,.T.);
#159=ORIENTED_EDGE('',*,*,#452,.F.);
#160=ORIENTED_EDGE('',*,*,#453,.F.);
#161=ORIENTED_EDGE('',*,*,#454,.F.);
#162=ORIENTED_EDGE('',*,*,#455,.F.);
#163=ORIENTED_EDGE('',*,*,#456,.F.);
#164=ORIENTED_EDGE('',*,*,#457,.F.);
#165=ORIENTED_EDGE('',*,*,#458,.F.);
#166=ORIENTED_EDGE('',*,*,#459,.F.);
#167=ORIENTED_EDGE('',*,*,#460,.F.);
#168=ORIENTED_EDGE('',*,*,#461,.F.);
#169=ORIENTED_EDGE('',*,*,#462,.F.);
#170=ORIENTED_EDGE('',*,*,#463,.F.);
#171=ORIENTED_EDGE('',*,*,#464,.F.);
#172=ORIENTED_EDGE('',*,*,#465,.F.);
#173=ORIENTED_EDGE('',*,*,#466,.F.);
#174=ORIENTED_EDGE('',*,*,#467,.F.);
#175=ORIENTED_EDGE('',*,*,#468,.F.);
#176=ORIENTED_EDGE('',*,*,#469,.F.);
#177=ORIENTED_EDGE('',*,*,#470,.F.);
#178=ORIENTED_EDGE('',*,*,#471,.F.);
#179=ORIENTED_EDGE('',*,*,#472,.F.);
#180=ORIENTED_EDGE('',*,*,#473,.F.);
#181=ORIENTED_EDGE('',*,*,#474,.F.);
#182=ORIENTED_EDGE('',*,*,#475,.F.);
#183=ORIENTED_EDGE('',*,*,#476,.F.);
#184=ORIENTED_EDGE('',*,*,#477,.F.);
#185=ORIENTED_EDGE('',*,*,#478,.F.);
#186=ORIENTED_EDGE('',*,*,#479,.F.);
#187=ORIENTED_EDGE('',*,*,#480,.F.);
#188=ORIENTED_EDGE('',*,*,#481,.F.);
#189=ORIENTED_EDGE('',*,*,#482,.F.);
#190=ORIENTED_EDGE('',*,*,#483,.F.);
#191=ORIENTED_EDGE('',*,*,#484,.F.);
#192=ORIENTED_EDGE('',*,*,#485,.F.);
#193=ORIENTED_EDGE('',*,*,#486,.F.);
#194=ORIENTED_EDGE('',*,*,#487,.F.);
#195=ORIENTED_EDGE('',*,*,#488,.F.);
#196=ORIENTED_EDGE('',*,*,#489,.F.);
#197=ORIENTED_EDGE('',*,*,#490,.F.);
#198=ORIENTED_EDGE('',*,*,#491,.F.);
#199=ORIENTED_EDGE('',*,*,#492,.F.);
#200=ORIENTED_EDGE('',*,*,#493,.F.);
#201=ORIENTED_EDGE('',*,*,#494,.F.);
#202=ORIENTED_EDGE('',*,*,#495,.T.);
#203=ORIENTED_EDGE('',*,*,#404,.T.);
#204=ORIENTED_EDGE('',*,*,#496,.T.);
#205=ORIENTED_EDGE('',*,*,#497,.F.);
#206=ORIENTED_EDGE('',*,*,#494,.T.);
#207=ORIENTED_EDGE('',*,*,#498,.F.);
#208=ORIENTED_EDGE('',*,*,#448,.T.);
#209=ORIENTED_EDGE('',*,*,#499,.T.);
#210=ORIENTED_EDGE('',*,*,#500,.T.);
#211=ORIENTED_EDGE('',*,*,#501,.T.);
#212=ORIENTED_EDGE('',*,*,#502,.F.);
#213=ORIENTED_EDGE('',*,*,#503,.T.);
#214=ORIENTED_EDGE('',*,*,#504,.T.);
#215=ORIENTED_EDGE('',*,*,#505,.T.);
#216=ORIENTED_EDGE('',*,*,#506,.T.);
#217=ORIENTED_EDGE('',*,*,#507,.F.);
#218=ORIENTED_EDGE('',*,*,#508,.T.);
#219=ORIENTED_EDGE('',*,*,#509,.T.);
#220=ORIENTED_EDGE('',*,*,#510,.T.);
#221=ORIENTED_EDGE('',*,*,#500,.F.);
#222=ORIENTED_EDGE('',*,*,#511,.T.);
#223=ORIENTED_EDGE('',*,*,#512,.T.);
#224=ORIENTED_EDGE('',*,*,#513,.T.);
#225=ORIENTED_EDGE('',*,*,#514,.F.);
#226=ORIENTED_EDGE('',*,*,#515,.T.);
#227=ORIENTED_EDGE('',*,*,#516,.F.);
#228=ORIENTED_EDGE('',*,*,#514,.T.);
#229=ORIENTED_EDGE('',*,*,#517,.F.);
#230=ORIENTED_EDGE('',*,*,#518,.F.);
#231=ORIENTED_EDGE('',*,*,#519,.T.);
#232=ORIENTED_EDGE('',*,*,#520,.F.);
#233=ORIENTED_EDGE('',*,*,#521,.F.);
#234=ORIENTED_EDGE('',*,*,#522,.T.);
#235=ORIENTED_EDGE('',*,*,#523,.T.);
#236=ORIENTED_EDGE('',*,*,#502,.T.);
#237=ORIENTED_EDGE('',*,*,#524,.T.);
#238=ORIENTED_EDGE('',*,*,#525,.T.);
#239=ORIENTED_EDGE('',*,*,#526,.T.);
#240=ORIENTED_EDGE('',*,*,#518,.T.);
#241=ORIENTED_EDGE('',*,*,#527,.T.);
#242=ORIENTED_EDGE('',*,*,#528,.T.);
#243=ORIENTED_EDGE('',*,*,#521,.T.);
#244=ORIENTED_EDGE('',*,*,#528,.F.);
#245=ORIENTED_EDGE('',*,*,#520,.T.);
#246=ORIENTED_EDGE('',*,*,#529,.T.);
#247=ORIENTED_EDGE('',*,*,#504,.F.);
#248=ORIENTED_EDGE('',*,*,#530,.T.);
#249=ORIENTED_EDGE('',*,*,#529,.F.);
#250=ORIENTED_EDGE('',*,*,#507,.T.);
#251=ORIENTED_EDGE('',*,*,#530,.F.);
#252=ORIENTED_EDGE('',*,*,#516,.T.);
#253=ORIENTED_EDGE('',*,*,#526,.F.);
#254=ORIENTED_EDGE('',*,*,#531,.F.);
#255=ORIENTED_EDGE('',*,*,#515,.F.);
#256=ORIENTED_EDGE('',*,*,#531,.T.);
#257=ORIENTED_EDGE('',*,*,#525,.F.);
#258=ORIENTED_EDGE('',*,*,#532,.F.);
#259=ORIENTED_EDGE('',*,*,#509,.F.);
#260=ORIENTED_EDGE('',*,*,#532,.T.);
#261=ORIENTED_EDGE('',*,*,#524,.F.);
#262=ORIENTED_EDGE('',*,*,#501,.F.);
#263=ORIENTED_EDGE('',*,*,#510,.F.);
#264=ORIENTED_EDGE('',*,*,#499,.F.);
#265=ORIENTED_EDGE('',*,*,#523,.F.);
#266=ORIENTED_EDGE('',*,*,#533,.T.);
#267=ORIENTED_EDGE('',*,*,#511,.F.);
#268=ORIENTED_EDGE('',*,*,#534,.F.);
#269=ORIENTED_EDGE('',*,*,#533,.F.);
#270=ORIENTED_EDGE('',*,*,#522,.F.);
#271=ORIENTED_EDGE('',*,*,#535,.T.);
#272=ORIENTED_EDGE('',*,*,#512,.F.);
#273=ORIENTED_EDGE('',*,*,#535,.F.);
#274=ORIENTED_EDGE('',*,*,#527,.F.);
#275=ORIENTED_EDGE('',*,*,#517,.T.);
#276=ORIENTED_EDGE('',*,*,#513,.F.);
#277=ORIENTED_EDGE('',*,*,#490,.T.);
#278=ORIENTED_EDGE('',*,*,#536,.F.);
#279=ORIENTED_EDGE('',*,*,#537,.F.);
#280=ORIENTED_EDGE('',*,*,#538,.T.);
#281=ORIENTED_EDGE('',*,*,#491,.T.);
#282=ORIENTED_EDGE('',*,*,#538,.F.);
#283=ORIENTED_EDGE('',*,*,#539,.F.);
#284=ORIENTED_EDGE('',*,*,#540,.T.);
#285=ORIENTED_EDGE('',*,*,#492,.T.);
#286=ORIENTED_EDGE('',*,*,#540,.F.);
#287=ORIENTED_EDGE('',*,*,#541,.F.);
#288=ORIENTED_EDGE('',*,*,#542,.T.);
#289=ORIENTED_EDGE('',*,*,#493,.T.);
#290=ORIENTED_EDGE('',*,*,#542,.F.);
#291=ORIENTED_EDGE('',*,*,#543,.F.);
#292=ORIENTED_EDGE('',*,*,#536,.T.);
#293=ORIENTED_EDGE('',*,*,#537,.T.);
#294=ORIENTED_EDGE('',*,*,#543,.T.);
#295=ORIENTED_EDGE('',*,*,#541,.T.);
#296=ORIENTED_EDGE('',*,*,#539,.T.);
#297=ORIENTED_EDGE('',*,*,#489,.T.);
#298=ORIENTED_EDGE('',*,*,#408,.T.);
#299=ORIENTED_EDGE('',*,*,#488,.T.);
#300=ORIENTED_EDGE('',*,*,#409,.T.);
#301=ORIENTED_EDGE('',*,*,#487,.T.);
#302=ORIENTED_EDGE('',*,*,#410,.T.);
#303=ORIENTED_EDGE('',*,*,#486,.T.);
#304=ORIENTED_EDGE('',*,*,#411,.T.);
#305=ORIENTED_EDGE('',*,*,#485,.T.);
#306=ORIENTED_EDGE('',*,*,#412,.T.);
#307=ORIENTED_EDGE('',*,*,#484,.T.);
#308=ORIENTED_EDGE('',*,*,#413,.T.);
#309=ORIENTED_EDGE('',*,*,#483,.T.);
#310=ORIENTED_EDGE('',*,*,#414,.T.);
#311=ORIENTED_EDGE('',*,*,#482,.T.);
#312=ORIENTED_EDGE('',*,*,#415,.T.);
#313=ORIENTED_EDGE('',*,*,#481,.T.);
#314=ORIENTED_EDGE('',*,*,#416,.T.);
#315=ORIENTED_EDGE('',*,*,#480,.T.);
#316=ORIENTED_EDGE('',*,*,#417,.T.);
#317=ORIENTED_EDGE('',*,*,#479,.T.);
#318=ORIENTED_EDGE('',*,*,#418,.T.);
#319=ORIENTED_EDGE('',*,*,#478,.T.);
#320=ORIENTED_EDGE('',*,*,#419,.T.);
#321=ORIENTED_EDGE('',*,*,#477,.T.);
#322=ORIENTED_EDGE('',*,*,#420,.T.);
#323=ORIENTED_EDGE('',*,*,#476,.T.);
#324=ORIENTED_EDGE('',*,*,#421,.T.);
#325=ORIENTED_EDGE('',*,*,#475,.T.);
#326=ORIENTED_EDGE('',*,*,#422,.T.);
#327=ORIENTED_EDGE('',*,*,#474,.T.);
#328=ORIENTED_EDGE('',*,*,#423,.T.);
#329=ORIENTED_EDGE('',*,*,#473,.T.);
#330=ORIENTED_EDGE('',*,*,#424,.T.);
#331=ORIENTED_EDGE('',*,*,#425,.F.);
#332=ORIENTED_EDGE('',*,*,#508,.F.);
#333=ORIENTED_EDGE('',*,*,#472,.T.);
#334=ORIENTED_EDGE('',*,*,#426,.T.);
#335=ORIENTED_EDGE('',*,*,#471,.T.);
#336=ORIENTED_EDGE('',*,*,#427,.T.);
#337=ORIENTED_EDGE('',*,*,#470,.T.);
#338=ORIENTED_EDGE('',*,*,#428,.T.);
#339=ORIENTED_EDGE('',*,*,#469,.T.);
#340=ORIENTED_EDGE('',*,*,#429,.T.);
#341=ORIENTED_EDGE('',*,*,#468,.T.);
#342=ORIENTED_EDGE('',*,*,#430,.T.);
#343=ORIENTED_EDGE('',*,*,#467,.T.);
#344=ORIENTED_EDGE('',*,*,#431,.T.);
#345=ORIENTED_EDGE('',*,*,#466,.T.);
#346=ORIENTED_EDGE('',*,*,#432,.T.);
#347=ORIENTED_EDGE('',*,*,#465,.T.);
#348=ORIENTED_EDGE('',*,*,#433,.T.);
#349=ORIENTED_EDGE('',*,*,#464,.T.);
#350=ORIENTED_EDGE('',*,*,#434,.T.);
#351=ORIENTED_EDGE('',*,*,#463,.T.);
#352=ORIENTED_EDGE('',*,*,#435,.T.);
#353=ORIENTED_EDGE('',*,*,#462,.T.);
#354=ORIENTED_EDGE('',*,*,#436,.T.);
#355=ORIENTED_EDGE('',*,*,#461,.T.);
#356=ORIENTED_EDGE('',*,*,#437,.T.);
#357=ORIENTED_EDGE('',*,*,#460,.T.);
#358=ORIENTED_EDGE('',*,*,#438,.T.);
#359=ORIENTED_EDGE('',*,*,#459,.T.);
#360=ORIENTED_EDGE('',*,*,#439,.T.);
#361=ORIENTED_EDGE('',*,*,#458,.T.);
#362=ORIENTED_EDGE('',*,*,#440,.T.);
#363=ORIENTED_EDGE('',*,*,#457,.T.);
#364=ORIENTED_EDGE('',*,*,#441,.T.);
#365=ORIENTED_EDGE('',*,*,#456,.T.);
#366=ORIENTED_EDGE('',*,*,#442,.T.);
#367=ORIENTED_EDGE('',*,*,#455,.T.);
#368=ORIENTED_EDGE('',*,*,#443,.T.);
#369=ORIENTED_EDGE('',*,*,#454,.T.);
#370=ORIENTED_EDGE('',*,*,#444,.F.);
#371=ORIENTED_EDGE('',*,*,#453,.T.);
#372=ORIENTED_EDGE('',*,*,#445,.F.);
#373=ORIENTED_EDGE('',*,*,#544,.T.);
#374=ORIENTED_EDGE('',*,*,#446,.F.);
#375=ORIENTED_EDGE('',*,*,#544,.F.);
#376=ORIENTED_EDGE('',*,*,#545,.T.);
#377=ORIENTED_EDGE('',*,*,#545,.F.);
#378=ORIENTED_EDGE('',*,*,#452,.T.);
#379=ORIENTED_EDGE('',*,*,#546,.T.);
#380=ORIENTED_EDGE('',*,*,#450,.T.);
#381=ORIENTED_EDGE('',*,*,#547,.T.);
#382=ORIENTED_EDGE('',*,*,#547,.F.);
#383=ORIENTED_EDGE('',*,*,#548,.T.);
#384=ORIENTED_EDGE('',*,*,#548,.F.);
#385=ORIENTED_EDGE('',*,*,#534,.T.);
#386=ORIENTED_EDGE('',*,*,#407,.T.);
#387=ORIENTED_EDGE('',*,*,#449,.F.);
#388=ORIENTED_EDGE('',*,*,#498,.T.);
#389=ORIENTED_EDGE('',*,*,#496,.F.);
#390=ORIENTED_EDGE('',*,*,#497,.T.);
#391=ORIENTED_EDGE('',*,*,#447,.F.);
#392=ORIENTED_EDGE('',*,*,#405,.F.);
#393=ORIENTED_EDGE('',*,*,#495,.F.);
#394=ORIENTED_EDGE('',*,*,#549,.F.);
#395=ORIENTED_EDGE('',*,*,#451,.F.);
#396=ORIENTED_EDGE('',*,*,#550,.F.);
#397=ORIENTED_EDGE('',*,*,#505,.F.);
#398=ORIENTED_EDGE('',*,*,#550,.T.);
#399=ORIENTED_EDGE('',*,*,#546,.F.);
#400=ORIENTED_EDGE('',*,*,#549,.T.);
#401=ORIENTED_EDGE('',*,*,#506,.F.);
#402=ORIENTED_EDGE('',*,*,#503,.F.);
#403=ORIENTED_EDGE('',*,*,#519,.F.);
#404=EDGE_CURVE('',#551,#552,#679,.T.);
#405=EDGE_CURVE('',#551,#553,#46,.T.);
#406=EDGE_CURVE('',#553,#554,#680,.T.);
#407=EDGE_CURVE('',#552,#554,#47,.T.);
#408=EDGE_CURVE('',#555,#555,#681,.T.);
#409=EDGE_CURVE('',#556,#556,#682,.T.);
#410=EDGE_CURVE('',#557,#557,#683,.T.);
#411=EDGE_CURVE('',#558,#558,#684,.T.);
#412=EDGE_CURVE('',#559,#559,#685,.T.);
#413=EDGE_CURVE('',#560,#560,#686,.T.);
#414=EDGE_CURVE('',#561,#561,#687,.T.);
#415=EDGE_CURVE('',#562,#562,#688,.T.);
#416=EDGE_CURVE('',#563,#563,#689,.T.);
#417=EDGE_CURVE('',#564,#564,#690,.T.);
#418=EDGE_CURVE('',#565,#565,#691,.T.);
#419=EDGE_CURVE('',#566,#566,#692,.T.);
#420=EDGE_CURVE('',#567,#567,#693,.T.);
#421=EDGE_CURVE('',#568,#568,#694,.T.);
#422=EDGE_CURVE('',#569,#569,#695,.T.);
#423=EDGE_CURVE('',#570,#570,#696,.T.);
#424=EDGE_CURVE('',#571,#571,#697,.T.);
#425=EDGE_CURVE('',#572,#572,#698,.T.);
#426=EDGE_CURVE('',#573,#573,#699,.T.);
#427=EDGE_CURVE('',#574,#574,#700,.T.);
#428=EDGE_CURVE('',#575,#575,#701,.T.);
#429=EDGE_CURVE('',#576,#576,#702,.T.);
#430=EDGE_CURVE('',#577,#577,#703,.T.);
#431=EDGE_CURVE('',#578,#578,#704,.T.);
#432=EDGE_CURVE('',#579,#579,#705,.T.);
#433=EDGE_CURVE('',#580,#580,#706,.T.);
#434=EDGE_CURVE('',#581,#581,#707,.T.);
#435=EDGE_CURVE('',#582,#582,#708,.T.);
#436=EDGE_CURVE('',#583,#583,#709,.T.);
#437=EDGE_CURVE('',#584,#584,#710,.T.);
#438=EDGE_CURVE('',#585,#585,#711,.T.);
#439=EDGE_CURVE('',#586,#586,#712,.T.);
#440=EDGE_CURVE('',#587,#587,#713,.T.);
#441=EDGE_CURVE('',#588,#588,#714,.T.);
#442=EDGE_CURVE('',#589,#589,#715,.T.);
#443=EDGE_CURVE('',#590,#590,#716,.T.);
#444=EDGE_CURVE('',#591,#591,#717,.T.);
#445=EDGE_CURVE('',#592,#592,#718,.T.);
#446=EDGE_CURVE('',#593,#593,#719,.T.);
#447=EDGE_CURVE('',#553,#594,#48,.T.);
#448=EDGE_CURVE('',#595,#594,#720,.T.);
#449=EDGE_CURVE('',#595,#554,#49,.T.);
#450=EDGE_CURVE('',#596,#597,#721,.T.);
#451=EDGE_CURVE('',#596,#597,#722,.F.);
#452=EDGE_CURVE('',#598,#598,#723,.T.);
#453=EDGE_CURVE('',#599,#599,#724,.T.);
#454=EDGE_CURVE('',#600,#600,#725,.T.);
#455=EDGE_CURVE('',#601,#601,#726,.T.);
#456=EDGE_CURVE('',#602,#602,#727,.T.);
#457=EDGE_CURVE('',#603,#603,#728,.T.);
#458=EDGE_CURVE('',#604,#604,#729,.T.);
#459=EDGE_CURVE('',#605,#605,#730,.T.);
#460=EDGE_CURVE('',#606,#606,#731,.T.);
#461=EDGE_CURVE('',#607,#607,#732,.T.);
#462=EDGE_CURVE('',#608,#608,#733,.T.);
#463=EDGE_CURVE('',#609,#609,#734,.T.);
#464=EDGE_CURVE('',#610,#610,#735,.T.);
#465=EDGE_CURVE('',#611,#611,#736,.T.);
#466=EDGE_CURVE('',#612,#612,#737,.T.);
#467=EDGE_CURVE('',#613,#613,#738,.T.);
#468=EDGE_CURVE('',#614,#614,#739,.T.);
#469=EDGE_CURVE('',#615,#615,#740,.T.);
#470=EDGE_CURVE('',#616,#616,#741,.T.);
#471=EDGE_CURVE('',#617,#617,#742,.T.);
#472=EDGE_CURVE('',#618,#618,#743,.T.);
#473=EDGE_CURVE('',#619,#619,#744,.T.);
#474=EDGE_CURVE('',#620,#620,#745,.T.);
#475=EDGE_CURVE('',#621,#621,#746,.T.);
#476=EDGE_CURVE('',#622,#622,#747,.T.);
#477=EDGE_CURVE('',#623,#623,#748,.T.);
#478=EDGE_CURVE('',#624,#624,#749,.T.);
#479=EDGE_CURVE('',#625,#625,#750,.T.);
#480=EDGE_CURVE('',#626,#626,#751,.T.);
#481=EDGE_CURVE('',#627,#627,#752,.T.);
#482=EDGE_CURVE('',#628,#628,#753,.T.);
#483=EDGE_CURVE('',#629,#629,#754,.T.);
#484=EDGE_CURVE('',#630,#630,#755,.T.);
#485=EDGE_CURVE('',#631,#631,#756,.T.);
#486=EDGE_CURVE('',#632,#632,#757,.T.);
#487=EDGE_CURVE('',#633,#633,#758,.T.);
#488=EDGE_CURVE('',#634,#634,#759,.T.);
#489=EDGE_CURVE('',#635,#635,#760,.T.);
#490=EDGE_CURVE('',#636,#637,#761,.T.);
#491=EDGE_CURVE('',#638,#636,#50,.T.);
#492=EDGE_CURVE('',#639,#638,#762,.T.);
#493=EDGE_CURVE('',#637,#639,#51,.T.);
#494=EDGE_CURVE('',#640,#641,#763,.T.);
#495=EDGE_CURVE('',#640,#551,#52,.T.);
#496=EDGE_CURVE('',#552,#641,#53,.T.);
#497=EDGE_CURVE('',#640,#594,#54,.T.);
#498=EDGE_CURVE('',#595,#641,#55,.F.);
#499=EDGE_CURVE('',#642,#643,#56,.T.);
#500=EDGE_CURVE('',#643,#644,#764,.T.);
#501=EDGE_CURVE('',#644,#645,#57,.T.);
#502=EDGE_CURVE('',#642,#645,#765,.T.);
#503=EDGE_CURVE('',#646,#646,#766,.F.);
#504=EDGE_CURVE('',#647,#647,#767,.T.);
#505=EDGE_CURVE('',#648,#649,#768,.T.);
#506=EDGE_CURVE('',#649,#648,#24,.T.);
#507=EDGE_CURVE('',#650,#650,#769,.T.);
#508=EDGE_CURVE('',#651,#651,#770,.F.);
#509=EDGE_CURVE('',#652,#653,#771,.T.);
#510=EDGE_CURVE('',#653,#644,#58,.F.);
#511=EDGE_CURVE('',#643,#654,#59,.T.);
#512=EDGE_CURVE('',#654,#655,#772,.T.);
#513=EDGE_CURVE('',#655,#656,#60,.F.);
#514=EDGE_CURVE('',#657,#656,#773,.T.);
#515=EDGE_CURVE('',#657,#652,#61,.T.);
#516=EDGE_CURVE('',#657,#658,#62,.T.);
#517=EDGE_CURVE('',#659,#656,#63,.T.);
#518=EDGE_CURVE('',#658,#659,#774,.T.);
#519=EDGE_CURVE('',#660,#660,#775,.T.);
#520=EDGE_CURVE('',#661,#661,#776,.T.);
#521=EDGE_CURVE('',#662,#662,#777,.T.);
#522=EDGE_CURVE('',#663,#664,#778,.F.);
#523=EDGE_CURVE('',#664,#642,#64,.T.);
#524=EDGE_CURVE('',#645,#665,#65,.F.);
#525=EDGE_CURVE('',#665,#666,#779,.F.);
#526=EDGE_CURVE('',#666,#658,#66,.T.);
#527=EDGE_CURVE('',#659,#663,#67,.F.);
#528=EDGE_CURVE('',#667,#667,#780,.F.);
#529=EDGE_CURVE('',#668,#668,#781,.T.);
#530=EDGE_CURVE('',#669,#669,#782,.T.);
#531=EDGE_CURVE('',#652,#666,#68,.T.);
#532=EDGE_CURVE('',#653,#665,#69,.T.);
#533=EDGE_CURVE('',#664,#654,#70,.T.);
#534=EDGE_CURVE('',#670,#670,#783,.T.);
#535=EDGE_CURVE('',#663,#655,#71,.T.);
#536=EDGE_CURVE('',#671,#637,#72,.T.);
#537=EDGE_CURVE('',#672,#671,#784,.T.);
#538=EDGE_CURVE('',#672,#636,#73,.T.);
#539=EDGE_CURVE('',#673,#672,#74,.T.);
#540=EDGE_CURVE('',#673,#638,#75,.T.);
#541=EDGE_CURVE('',#674,#673,#785,.T.);
#542=EDGE_CURVE('',#674,#639,#76,.T.);
#543=EDGE_CURVE('',#671,#674,#77,.T.);
#544=EDGE_CURVE('',#675,#675,#786,.T.);
#545=EDGE_CURVE('',#676,#676,#787,.T.);
#546=EDGE_CURVE('',#597,#596,#788,.T.);
#547=EDGE_CURVE('',#677,#677,#789,.T.);
#548=EDGE_CURVE('',#678,#678,#790,.T.);
#549=EDGE_CURVE('',#597,#648,#791,.T.);
#550=EDGE_CURVE('',#649,#596,#792,.T.);
#551=VERTEX_POINT('',#1951);
#552=VERTEX_POINT('',#1952);
#553=VERTEX_POINT('',#1954);
#554=VERTEX_POINT('',#1956);
#555=VERTEX_POINT('',#1960);
#556=VERTEX_POINT('',#1962);
#557=VERTEX_POINT('',#1964);
#558=VERTEX_POINT('',#1966);
#559=VERTEX_POINT('',#1968);
#560=VERTEX_POINT('',#1970);
#561=VERTEX_POINT('',#1972);
#562=VERTEX_POINT('',#1974);
#563=VERTEX_POINT('',#1976);
#564=VERTEX_POINT('',#1978);
#565=VERTEX_POINT('',#1980);
#566=VERTEX_POINT('',#1982);
#567=VERTEX_POINT('',#1984);
#568=VERTEX_POINT('',#1986);
#569=VERTEX_POINT('',#1988);
#570=VERTEX_POINT('',#1990);
#571=VERTEX_POINT('',#1992);
#572=VERTEX_POINT('',#1994);
#573=VERTEX_POINT('',#1996);
#574=VERTEX_POINT('',#1998);
#575=VERTEX_POINT('',#2000);
#576=VERTEX_POINT('',#2002);
#577=VERTEX_POINT('',#2004);
#578=VERTEX_POINT('',#2006);
#579=VERTEX_POINT('',#2008);
#580=VERTEX_POINT('',#2010);
#581=VERTEX_POINT('',#2012);
#582=VERTEX_POINT('',#2014);
#583=VERTEX_POINT('',#2016);
#584=VERTEX_POINT('',#2018);
#585=VERTEX_POINT('',#2020);
#586=VERTEX_POINT('',#2022);
#587=VERTEX_POINT('',#2024);
#588=VERTEX_POINT('',#2026);
#589=VERTEX_POINT('',#2028);
#590=VERTEX_POINT('',#2030);
#591=VERTEX_POINT('',#2032);
#592=VERTEX_POINT('',#2034);
#593=VERTEX_POINT('',#2036);
#594=VERTEX_POINT('',#2038);
#595=VERTEX_POINT('',#2040);
#596=VERTEX_POINT('',#2044);
#597=VERTEX_POINT('',#2045);
#598=VERTEX_POINT('',#2048);
#599=VERTEX_POINT('',#2050);
#600=VERTEX_POINT('',#2052);
#601=VERTEX_POINT('',#2054);
#602=VERTEX_POINT('',#2056);
#603=VERTEX_POINT('',#2058);
#604=VERTEX_POINT('',#2060);
#605=VERTEX_POINT('',#2062);
#606=VERTEX_POINT('',#2064);
#607=VERTEX_POINT('',#2066);
#608=VERTEX_POINT('',#2068);
#609=VERTEX_POINT('',#2070);
#610=VERTEX_POINT('',#2072);
#611=VERTEX_POINT('',#2074);
#612=VERTEX_POINT('',#2076);
#613=VERTEX_POINT('',#2078);
#614=VERTEX_POINT('',#2080);
#615=VERTEX_POINT('',#2082);
#616=VERTEX_POINT('',#2084);
#617=VERTEX_POINT('',#2086);
#618=VERTEX_POINT('',#2088);
#619=VERTEX_POINT('',#2090);
#620=VERTEX_POINT('',#2092);
#621=VERTEX_POINT('',#2094);
#622=VERTEX_POINT('',#2096);
#623=VERTEX_POINT('',#2098);
#624=VERTEX_POINT('',#2100);
#625=VERTEX_POINT('',#2102);
#626=VERTEX_POINT('',#2104);
#627=VERTEX_POINT('',#2106);
#628=VERTEX_POINT('',#2108);
#629=VERTEX_POINT('',#2110);
#630=VERTEX_POINT('',#2112);
#631=VERTEX_POINT('',#2114);
#632=VERTEX_POINT('',#2116);
#633=VERTEX_POINT('',#2118);
#634=VERTEX_POINT('',#2120);
#635=VERTEX_POINT('',#2122);
#636=VERTEX_POINT('',#2124);
#637=VERTEX_POINT('',#2125);
#638=VERTEX_POINT('',#2127);
#639=VERTEX_POINT('',#2129);
#640=VERTEX_POINT('',#2132);
#641=VERTEX_POINT('',#2133);
#642=VERTEX_POINT('',#2141);
#643=VERTEX_POINT('',#2142);
#644=VERTEX_POINT('',#2144);
#645=VERTEX_POINT('',#2146);
#646=VERTEX_POINT('',#2150);
#647=VERTEX_POINT('',#2152);
#648=VERTEX_POINT('',#2155);
#649=VERTEX_POINT('',#2156);
#650=VERTEX_POINT('',#2162);
#651=VERTEX_POINT('',#2165);
#652=VERTEX_POINT('',#2167);
#653=VERTEX_POINT('',#2168);
#654=VERTEX_POINT('',#2171);
#655=VERTEX_POINT('',#2173);
#656=VERTEX_POINT('',#2175);
#657=VERTEX_POINT('',#2177);
#658=VERTEX_POINT('',#2181);
#659=VERTEX_POINT('',#2183);
#660=VERTEX_POINT('',#2187);
#661=VERTEX_POINT('',#2189);
#662=VERTEX_POINT('',#2192);
#663=VERTEX_POINT('',#2194);
#664=VERTEX_POINT('',#2195);
#665=VERTEX_POINT('',#2198);
#666=VERTEX_POINT('',#2200);
#667=VERTEX_POINT('',#2205);
#668=VERTEX_POINT('',#2209);
#669=VERTEX_POINT('',#2212);
#670=VERTEX_POINT('',#2223);
#671=VERTEX_POINT('',#2228);
#672=VERTEX_POINT('',#2230);
#673=VERTEX_POINT('',#2234);
#674=VERTEX_POINT('',#2238);
#675=VERTEX_POINT('',#2283);
#676=VERTEX_POINT('',#2286);
#677=VERTEX_POINT('',#2291);
#678=VERTEX_POINT('',#2294);
#679=CIRCLE('',#1348,0.0214);
#680=CIRCLE('',#1349,0.0214);
#681=CIRCLE('',#1351,0.000999999999999987);
#682=CIRCLE('',#1352,0.000999999999999987);
#683=CIRCLE('',#1353,0.000999999999999987);
#684=CIRCLE('',#1354,0.000999999999999987);
#685=CIRCLE('',#1355,0.000999999999999987);
#686=CIRCLE('',#1356,0.000999999999999987);
#687=CIRCLE('',#1357,0.000999999999999987);
#688=CIRCLE('',#1358,0.000999999999999987);
#689=CIRCLE('',#1359,0.000999999999999987);
#690=CIRCLE('',#1360,0.000999999999999987);
#691=CIRCLE('',#1361,0.000999999999999987);
#692=CIRCLE('',#1362,0.000999999999999987);
#693=CIRCLE('',#1363,0.000999999999999987);
#694=CIRCLE('',#1364,0.000999999999999987);
#695=CIRCLE('',#1365,0.000999999999999987);
#696=CIRCLE('',#1366,0.000999999999999987);
#697=CIRCLE('',#1367,0.000999999999999987);
#698=CIRCLE('',#1368,0.0075);
#699=CIRCLE('',#1369,0.00115);
#700=CIRCLE('',#1370,0.00115);
#701=CIRCLE('',#1371,0.00115);
#702=CIRCLE('',#1372,0.00115);
#703=CIRCLE('',#1373,0.00115);
#704=CIRCLE('',#1374,0.00115);
#705=CIRCLE('',#1375,0.00115);
#706=CIRCLE('',#1376,0.00115);
#707=CIRCLE('',#1377,0.001);
#708=CIRCLE('',#1378,0.001);
#709=CIRCLE('',#1379,0.001);
#710=CIRCLE('',#1380,0.0005);
#711=CIRCLE('',#1381,0.0005);
#712=CIRCLE('',#1382,0.00085);
#713=CIRCLE('',#1383,0.000549999999999988);
#714=CIRCLE('',#1384,0.000549999999999988);
#715=CIRCLE('',#1385,0.000549999999999988);
#716=CIRCLE('',#1386,0.000549999999999988);
#717=CIRCLE('',#1387,0.0008);
#718=CIRCLE('',#1388,0.0008);
#719=CIRCLE('',#1389,0.00075);
#720=CIRCLE('',#1390,0.00125);
#721=CIRCLE('',#1392,0.00075);
#722=CIRCLE('',#1393,0.0042);
#723=CIRCLE('',#1394,0.0009);
#724=CIRCLE('',#1395,0.0008);
#725=CIRCLE('',#1396,0.0008);
#726=CIRCLE('',#1397,0.000549999999999993);
#727=CIRCLE('',#1398,0.000549999999999993);
#728=CIRCLE('',#1399,0.000549999999999993);
#729=CIRCLE('',#1400,0.000549999999999993);
#730=CIRCLE('',#1401,0.00085);
#731=CIRCLE('',#1402,0.0005);
#732=CIRCLE('',#1403,0.0005);
#733=CIRCLE('',#1404,0.001);
#734=CIRCLE('',#1405,0.001);
#735=CIRCLE('',#1406,0.001);
#736=CIRCLE('',#1407,0.00115);
#737=CIRCLE('',#1408,0.00115);
#738=CIRCLE('',#1409,0.00115);
#739=CIRCLE('',#1410,0.00115);
#740=CIRCLE('',#1411,0.00115);
#741=CIRCLE('',#1412,0.00115);
#742=CIRCLE('',#1413,0.00115);
#743=CIRCLE('',#1414,0.00115);
#744=CIRCLE('',#1415,0.001);
#745=CIRCLE('',#1416,0.001);
#746=CIRCLE('',#1417,0.001);
#747=CIRCLE('',#1418,0.001);
#748=CIRCLE('',#1419,0.001);
#749=CIRCLE('',#1420,0.001);
#750=CIRCLE('',#1421,0.001);
#751=CIRCLE('',#1422,0.001);
#752=CIRCLE('',#1423,0.001);
#753=CIRCLE('',#1424,0.001);
#754=CIRCLE('',#1425,0.001);
#755=CIRCLE('',#1426,0.001);
#756=CIRCLE('',#1427,0.001);
#757=CIRCLE('',#1428,0.001);
#758=CIRCLE('',#1429,0.001);
#759=CIRCLE('',#1430,0.001);
#760=CIRCLE('',#1431,0.001);
#761=CIRCLE('',#1432,0.0015);
#762=CIRCLE('',#1433,0.0015);
#763=CIRCLE('',#1434,0.00125);
#764=CIRCLE('',#1437,0.0065);
#765=CIRCLE('',#1438,0.00325);
#766=CIRCLE('',#1440,0.004);
#767=CIRCLE('',#1441,0.004);
#768=CIRCLE('',#1443,0.004);
#769=CIRCLE('',#1444,0.004);
#770=CIRCLE('',#1446,0.0065);
#771=CIRCLE('',#1447,0.0065);
#772=CIRCLE('',#1448,0.0065);
#773=CIRCLE('',#1449,0.0065);
#774=CIRCLE('',#1451,0.00325);
#775=CIRCLE('',#1453,0.0038);
#776=CIRCLE('',#1454,0.0015);
#777=CIRCLE('',#1456,0.00325);
#778=CIRCLE('',#1457,0.00325);
#779=CIRCLE('',#1458,0.00325);
#780=CIRCLE('',#1460,0.0015);
#781=CIRCLE('',#1463,0.003);
#782=CIRCLE('',#1465,0.003);
#783=CIRCLE('',#1472,0.0009);
#784=CIRCLE('',#1475,0.0015);
#785=CIRCLE('',#1478,0.0015);
#786=CIRCLE('',#1520,0.00075);
#787=CIRCLE('',#1522,0.0009);
#788=CIRCLE('',#1525,0.00075);
#789=CIRCLE('',#1526,0.00075);
#790=CIRCLE('',#1528,0.0009);
#791=CIRCLE('',#1533,0.0002);
#792=CIRCLE('',#1534,0.0002);
#793=EDGE_LOOP('',(#110,#111,#112,#113));
#794=EDGE_LOOP('',(#114));
#795=EDGE_LOOP('',(#115));
#796=EDGE_LOOP('',(#116));
#797=EDGE_LOOP('',(#117));
#798=EDGE_LOOP('',(#118));
#799=EDGE_LOOP('',(#119));
#800=EDGE_LOOP('',(#120));
#801=EDGE_LOOP('',(#121));
#802=EDGE_LOOP('',(#122));
#803=EDGE_LOOP('',(#123));
#804=EDGE_LOOP('',(#124));
#805=EDGE_LOOP('',(#125));
#806=EDGE_LOOP('',(#126));
#807=EDGE_LOOP('',(#127));
#808=EDGE_LOOP('',(#128));
#809=EDGE_LOOP('',(#129));
#810=EDGE_LOOP('',(#130));
#811=EDGE_LOOP('',(#131));
#812=EDGE_LOOP('',(#132));
#813=EDGE_LOOP('',(#133));
#814=EDGE_LOOP('',(#134));
#815=EDGE_LOOP('',(#135));
#816=EDGE_LOOP('',(#136));
#817=EDGE_LOOP('',(#137));
#818=EDGE_LOOP('',(#138));
#819=EDGE_LOOP('',(#139));
#820=EDGE_LOOP('',(#140));
#821=EDGE_LOOP('',(#141));
#822=EDGE_LOOP('',(#142));
#823=EDGE_LOOP('',(#143));
#824=EDGE_LOOP('',(#144));
#825=EDGE_LOOP('',(#145));
#826=EDGE_LOOP('',(#146));
#827=EDGE_LOOP('',(#147));
#828=EDGE_LOOP('',(#148));
#829=EDGE_LOOP('',(#149));
#830=EDGE_LOOP('',(#150));
#831=EDGE_LOOP('',(#151));
#832=EDGE_LOOP('',(#152));
#833=EDGE_LOOP('',(#153,#154,#155,#156));
#834=EDGE_LOOP('',(#157,#158));
#835=EDGE_LOOP('',(#159));
#836=EDGE_LOOP('',(#160));
#837=EDGE_LOOP('',(#161));
#838=EDGE_LOOP('',(#162));
#839=EDGE_LOOP('',(#163));
#840=EDGE_LOOP('',(#164));
#841=EDGE_LOOP('',(#165));
#842=EDGE_LOOP('',(#166));
#843=EDGE_LOOP('',(#167));
#844=EDGE_LOOP('',(#168));
#845=EDGE_LOOP('',(#169));
#846=EDGE_LOOP('',(#170));
#847=EDGE_LOOP('',(#171));
#848=EDGE_LOOP('',(#172));
#849=EDGE_LOOP('',(#173));
#850=EDGE_LOOP('',(#174));
#851=EDGE_LOOP('',(#175));
#852=EDGE_LOOP('',(#176));
#853=EDGE_LOOP('',(#177));
#854=EDGE_LOOP('',(#178));
#855=EDGE_LOOP('',(#179));
#856=EDGE_LOOP('',(#180));
#857=EDGE_LOOP('',(#181));
#858=EDGE_LOOP('',(#182));
#859=EDGE_LOOP('',(#183));
#860=EDGE_LOOP('',(#184));
#861=EDGE_LOOP('',(#185));
#862=EDGE_LOOP('',(#186));
#863=EDGE_LOOP('',(#187));
#864=EDGE_LOOP('',(#188));
#865=EDGE_LOOP('',(#189));
#866=EDGE_LOOP('',(#190));
#867=EDGE_LOOP('',(#191));
#868=EDGE_LOOP('',(#192));
#869=EDGE_LOOP('',(#193));
#870=EDGE_LOOP('',(#194));
#871=EDGE_LOOP('',(#195));
#872=EDGE_LOOP('',(#196));
#873=EDGE_LOOP('',(#197,#198,#199,#200));
#874=EDGE_LOOP('',(#201,#202,#203,#204));
#875=EDGE_LOOP('',(#205,#206,#207,#208));
#876=EDGE_LOOP('',(#209,#210,#211,#212));
#877=EDGE_LOOP('',(#213));
#878=EDGE_LOOP('',(#214));
#879=EDGE_LOOP('',(#215,#216));
#880=EDGE_LOOP('',(#217));
#881=EDGE_LOOP('',(#218));
#882=EDGE_LOOP('',(#219,#220,#221,#222,#223,#224,#225,#226));
#883=EDGE_LOOP('',(#227,#228,#229,#230));
#884=EDGE_LOOP('',(#231));
#885=EDGE_LOOP('',(#232));
#886=EDGE_LOOP('',(#233));
#887=EDGE_LOOP('',(#234,#235,#236,#237,#238,#239,#240,#241));
#888=EDGE_LOOP('',(#242));
#889=EDGE_LOOP('',(#243));
#890=EDGE_LOOP('',(#244));
#891=EDGE_LOOP('',(#245));
#892=EDGE_LOOP('',(#246));
#893=EDGE_LOOP('',(#247));
#894=EDGE_LOOP('',(#248));
#895=EDGE_LOOP('',(#249));
#896=EDGE_LOOP('',(#250));
#897=EDGE_LOOP('',(#251));
#898=EDGE_LOOP('',(#252,#253,#254,#255));
#899=EDGE_LOOP('',(#256,#257,#258,#259));
#900=EDGE_LOOP('',(#260,#261,#262,#263));
#901=EDGE_LOOP('',(#264,#265,#266,#267));
#902=EDGE_LOOP('',(#268));
#903=EDGE_LOOP('',(#269,#270,#271,#272));
#904=EDGE_LOOP('',(#273,#274,#275,#276));
#905=EDGE_LOOP('',(#277,#278,#279,#280));
#906=EDGE_LOOP('',(#281,#282,#283,#284));
#907=EDGE_LOOP('',(#285,#286,#287,#288));
#908=EDGE_LOOP('',(#289,#290,#291,#292));
#909=EDGE_LOOP('',(#293,#294,#295,#296));
#910=EDGE_LOOP('',(#297));
#911=EDGE_LOOP('',(#298));
#912=EDGE_LOOP('',(#299));
#913=EDGE_LOOP('',(#300));
#914=EDGE_LOOP('',(#301));
#915=EDGE_LOOP('',(#302));
#916=EDGE_LOOP('',(#303));
#917=EDGE_LOOP('',(#304));
#918=EDGE_LOOP('',(#305));
#919=EDGE_LOOP('',(#306));
#920=EDGE_LOOP('',(#307));
#921=EDGE_LOOP('',(#308));
#922=EDGE_LOOP('',(#309));
#923=EDGE_LOOP('',(#310));
#924=EDGE_LOOP('',(#311));
#925=EDGE_LOOP('',(#312));
#926=EDGE_LOOP('',(#313));
#927=EDGE_LOOP('',(#314));
#928=EDGE_LOOP('',(#315));
#929=EDGE_LOOP('',(#316));
#930=EDGE_LOOP('',(#317));
#931=EDGE_LOOP('',(#318));
#932=EDGE_LOOP('',(#319));
#933=EDGE_LOOP('',(#320));
#934=EDGE_LOOP('',(#321));
#935=EDGE_LOOP('',(#322));
#936=EDGE_LOOP('',(#323));
#937=EDGE_LOOP('',(#324));
#938=EDGE_LOOP('',(#325));
#939=EDGE_LOOP('',(#326));
#940=EDGE_LOOP('',(#327));
#941=EDGE_LOOP('',(#328));
#942=EDGE_LOOP('',(#329));
#943=EDGE_LOOP('',(#330));
#944=EDGE_LOOP('',(#331));
#945=EDGE_LOOP('',(#332));
#946=EDGE_LOOP('',(#333));
#947=EDGE_LOOP('',(#334));
#948=EDGE_LOOP('',(#335));
#949=EDGE_LOOP('',(#336));
#950=EDGE_LOOP('',(#337));
#951=EDGE_LOOP('',(#338));
#952=EDGE_LOOP('',(#339));
#953=EDGE_LOOP('',(#340));
#954=EDGE_LOOP('',(#341));
#955=EDGE_LOOP('',(#342));
#956=EDGE_LOOP('',(#343));
#957=EDGE_LOOP('',(#344));
#958=EDGE_LOOP('',(#345));
#959=EDGE_LOOP('',(#346));
#960=EDGE_LOOP('',(#347));
#961=EDGE_LOOP('',(#348));
#962=EDGE_LOOP('',(#349));
#963=EDGE_LOOP('',(#350));
#964=EDGE_LOOP('',(#351));
#965=EDGE_LOOP('',(#352));
#966=EDGE_LOOP('',(#353));
#967=EDGE_LOOP('',(#354));
#968=EDGE_LOOP('',(#355));
#969=EDGE_LOOP('',(#356));
#970=EDGE_LOOP('',(#357));
#971=EDGE_LOOP('',(#358));
#972=EDGE_LOOP('',(#359));
#973=EDGE_LOOP('',(#360));
#974=EDGE_LOOP('',(#361));
#975=EDGE_LOOP('',(#362));
#976=EDGE_LOOP('',(#363));
#977=EDGE_LOOP('',(#364));
#978=EDGE_LOOP('',(#365));
#979=EDGE_LOOP('',(#366));
#980=EDGE_LOOP('',(#367));
#981=EDGE_LOOP('',(#368));
#982=EDGE_LOOP('',(#369));
#983=EDGE_LOOP('',(#370));
#984=EDGE_LOOP('',(#371));
#985=EDGE_LOOP('',(#372));
#986=EDGE_LOOP('',(#373));
#987=EDGE_LOOP('',(#374));
#988=EDGE_LOOP('',(#375));
#989=EDGE_LOOP('',(#376));
#990=EDGE_LOOP('',(#377));
#991=EDGE_LOOP('',(#378));
#992=EDGE_LOOP('',(#379,#380));
#993=EDGE_LOOP('',(#381));
#994=EDGE_LOOP('',(#382));
#995=EDGE_LOOP('',(#383));
#996=EDGE_LOOP('',(#384));
#997=EDGE_LOOP('',(#385));
#998=EDGE_LOOP('',(#386,#387,#388,#389));
#999=EDGE_LOOP('',(#390,#391,#392,#393));
#1000=EDGE_LOOP('',(#394,#395,#396,#397));
#1001=EDGE_LOOP('',(#398,#399,#400,#401));
#1002=EDGE_LOOP('',(#402));
#1003=EDGE_LOOP('',(#403));
#1004=FACE_BOUND('',#793,.T.);
#1005=FACE_BOUND('',#794,.T.);
#1006=FACE_BOUND('',#795,.T.);
#1007=FACE_BOUND('',#796,.T.);
#1008=FACE_BOUND('',#797,.T.);
#1009=FACE_BOUND('',#798,.T.);
#1010=FACE_BOUND('',#799,.T.);
#1011=FACE_BOUND('',#800,.T.);
#1012=FACE_BOUND('',#801,.T.);
#1013=FACE_BOUND('',#802,.T.);
#1014=FACE_BOUND('',#803,.T.);
#1015=FACE_BOUND('',#804,.T.);
#1016=FACE_BOUND('',#805,.T.);
#1017=FACE_BOUND('',#806,.T.);
#1018=FACE_BOUND('',#807,.T.);
#1019=FACE_BOUND('',#808,.T.);
#1020=FACE_BOUND('',#809,.T.);
#1021=FACE_BOUND('',#810,.T.);
#1022=FACE_BOUND('',#811,.T.);
#1023=FACE_BOUND('',#812,.T.);
#1024=FACE_BOUND('',#813,.T.);
#1025=FACE_BOUND('',#814,.T.);
#1026=FACE_BOUND('',#815,.T.);
#1027=FACE_BOUND('',#816,.T.);
#1028=FACE_BOUND('',#817,.T.);
#1029=FACE_BOUND('',#818,.T.);
#1030=FACE_BOUND('',#819,.T.);
#1031=FACE_BOUND('',#820,.T.);
#1032=FACE_BOUND('',#821,.T.);
#1033=FACE_BOUND('',#822,.T.);
#1034=FACE_BOUND('',#823,.T.);
#1035=FACE_BOUND('',#824,.T.);
#1036=FACE_BOUND('',#825,.T.);
#1037=FACE_BOUND('',#826,.T.);
#1038=FACE_BOUND('',#827,.T.);
#1039=FACE_BOUND('',#828,.T.);
#1040=FACE_BOUND('',#829,.T.);
#1041=FACE_BOUND('',#830,.T.);
#1042=FACE_BOUND('',#831,.T.);
#1043=FACE_BOUND('',#832,.T.);
#1044=FACE_BOUND('',#833,.T.);
#1045=FACE_BOUND('',#834,.T.);
#1046=FACE_BOUND('',#835,.T.);
#1047=FACE_BOUND('',#836,.T.);
#1048=FACE_BOUND('',#837,.T.);
#1049=FACE_BOUND('',#838,.T.);
#1050=FACE_BOUND('',#839,.T.);
#1051=FACE_BOUND('',#840,.T.);
#1052=FACE_BOUND('',#841,.T.);
#1053=FACE_BOUND('',#842,.T.);
#1054=FACE_BOUND('',#843,.T.);
#1055=FACE_BOUND('',#844,.T.);
#1056=FACE_BOUND('',#845,.T.);
#1057=FACE_BOUND('',#846,.T.);
#1058=FACE_BOUND('',#847,.T.);
#1059=FACE_BOUND('',#848,.T.);
#1060=FACE_BOUND('',#849,.T.);
#1061=FACE_BOUND('',#850,.T.);
#1062=FACE_BOUND('',#851,.T.);
#1063=FACE_BOUND('',#852,.T.);
#1064=FACE_BOUND('',#853,.T.);
#1065=FACE_BOUND('',#854,.T.);
#1066=FACE_BOUND('',#855,.T.);
#1067=FACE_BOUND('',#856,.T.);
#1068=FACE_BOUND('',#857,.T.);
#1069=FACE_BOUND('',#858,.T.);
#1070=FACE_BOUND('',#859,.T.);
#1071=FACE_BOUND('',#860,.T.);
#1072=FACE_BOUND('',#861,.T.);
#1073=FACE_BOUND('',#862,.T.);
#1074=FACE_BOUND('',#863,.T.);
#1075=FACE_BOUND('',#864,.T.);
#1076=FACE_BOUND('',#865,.T.);
#1077=FACE_BOUND('',#866,.T.);
#1078=FACE_BOUND('',#867,.T.);
#1079=FACE_BOUND('',#868,.T.);
#1080=FACE_BOUND('',#869,.T.);
#1081=FACE_BOUND('',#870,.T.);
#1082=FACE_BOUND('',#871,.T.);
#1083=FACE_BOUND('',#872,.T.);
#1084=FACE_BOUND('',#873,.T.);
#1085=FACE_BOUND('',#874,.T.);
#1086=FACE_BOUND('',#875,.T.);
#1087=FACE_BOUND('',#876,.T.);
#1088=FACE_BOUND('',#877,.T.);
#1089=FACE_BOUND('',#878,.T.);
#1090=FACE_BOUND('',#879,.T.);
#1091=FACE_BOUND('',#880,.T.);
#1092=FACE_BOUND('',#881,.T.);
#1093=FACE_BOUND('',#882,.T.);
#1094=FACE_BOUND('',#883,.T.);
#1095=FACE_BOUND('',#884,.T.);
#1096=FACE_BOUND('',#885,.T.);
#1097=FACE_BOUND('',#886,.T.);
#1098=FACE_BOUND('',#887,.T.);
#1099=FACE_BOUND('',#888,.T.);
#1100=FACE_BOUND('',#889,.T.);
#1101=FACE_BOUND('',#890,.T.);
#1102=FACE_BOUND('',#891,.T.);
#1103=FACE_BOUND('',#892,.T.);
#1104=FACE_BOUND('',#893,.T.);
#1105=FACE_BOUND('',#894,.T.);
#1106=FACE_BOUND('',#895,.T.);
#1107=FACE_BOUND('',#896,.T.);
#1108=FACE_BOUND('',#897,.T.);
#1109=FACE_BOUND('',#898,.T.);
#1110=FACE_BOUND('',#899,.T.);
#1111=FACE_BOUND('',#900,.T.);
#1112=FACE_BOUND('',#901,.T.);
#1113=FACE_BOUND('',#902,.T.);
#1114=FACE_BOUND('',#903,.T.);
#1115=FACE_BOUND('',#904,.T.);
#1116=FACE_BOUND('',#905,.T.);
#1117=FACE_BOUND('',#906,.T.);
#1118=FACE_BOUND('',#907,.T.);
#1119=FACE_BOUND('',#908,.T.);
#1120=FACE_BOUND('',#909,.T.);
#1121=FACE_BOUND('',#910,.T.);
#1122=FACE_BOUND('',#911,.T.);
#1123=FACE_BOUND('',#912,.T.);
#1124=FACE_BOUND('',#913,.T.);
#1125=FACE_BOUND('',#914,.T.);
#1126=FACE_BOUND('',#915,.T.);
#1127=FACE_BOUND('',#916,.T.);
#1128=FACE_BOUND('',#917,.T.);
#1129=FACE_BOUND('',#918,.T.);
#1130=FACE_BOUND('',#919,.T.);
#1131=FACE_BOUND('',#920,.T.);
#1132=FACE_BOUND('',#921,.T.);
#1133=FACE_BOUND('',#922,.T.);
#1134=FACE_BOUND('',#923,.T.);
#1135=FACE_BOUND('',#924,.T.);
#1136=FACE_BOUND('',#925,.T.);
#1137=FACE_BOUND('',#926,.T.);
#1138=FACE_BOUND('',#927,.T.);
#1139=FACE_BOUND('',#928,.T.);
#1140=FACE_BOUND('',#929,.T.);
#1141=FACE_BOUND('',#930,.T.);
#1142=FACE_BOUND('',#931,.T.);
#1143=FACE_BOUND('',#932,.T.);
#1144=FACE_BOUND('',#933,.T.);
#1145=FACE_BOUND('',#934,.T.);
#1146=FACE_BOUND('',#935,.T.);
#1147=FACE_BOUND('',#936,.T.);
#1148=FACE_BOUND('',#937,.T.);
#1149=FACE_BOUND('',#938,.T.);
#1150=FACE_BOUND('',#939,.T.);
#1151=FACE_BOUND('',#940,.T.);
#1152=FACE_BOUND('',#941,.T.);
#1153=FACE_BOUND('',#942,.T.);
#1154=FACE_BOUND('',#943,.T.);
#1155=FACE_BOUND('',#944,.T.);
#1156=FACE_BOUND('',#945,.T.);
#1157=FACE_BOUND('',#946,.T.);
#1158=FACE_BOUND('',#947,.T.);
#1159=FACE_BOUND('',#948,.T.);
#1160=FACE_BOUND('',#949,.T.);
#1161=FACE_BOUND('',#950,.T.);
#1162=FACE_BOUND('',#951,.T.);
#1163=FACE_BOUND('',#952,.T.);
#1164=FACE_BOUND('',#953,.T.);
#1165=FACE_BOUND('',#954,.T.);
#1166=FACE_BOUND('',#955,.T.);
#1167=FACE_BOUND('',#956,.T.);
#1168=FACE_BOUND('',#957,.T.);
#1169=FACE_BOUND('',#958,.T.);
#1170=FACE_BOUND('',#959,.T.);
#1171=FACE_BOUND('',#960,.T.);
#1172=FACE_BOUND('',#961,.T.);
#1173=FACE_BOUND('',#962,.T.);
#1174=FACE_BOUND('',#963,.T.);
#1175=FACE_BOUND('',#964,.T.);
#1176=FACE_BOUND('',#965,.T.);
#1177=FACE_BOUND('',#966,.T.);
#1178=FACE_BOUND('',#967,.T.);
#1179=FACE_BOUND('',#968,.T.);
#1180=FACE_BOUND('',#969,.T.);
#1181=FACE_BOUND('',#970,.T.);
#1182=FACE_BOUND('',#971,.T.);
#1183=FACE_BOUND('',#972,.T.);
#1184=FACE_BOUND('',#973,.T.);
#1185=FACE_BOUND('',#974,.T.);
#1186=FACE_BOUND('',#975,.T.);
#1187=FACE_BOUND('',#976,.T.);
#1188=FACE_BOUND('',#977,.T.);
#1189=FACE_BOUND('',#978,.T.);
#1190=FACE_BOUND('',#979,.T.);
#1191=FACE_BOUND('',#980,.T.);
#1192=FACE_BOUND('',#981,.T.);
#1193=FACE_BOUND('',#982,.T.);
#1194=FACE_BOUND('',#983,.T.);
#1195=FACE_BOUND('',#984,.T.);
#1196=FACE_BOUND('',#985,.T.);
#1197=FACE_BOUND('',#986,.T.);
#1198=FACE_BOUND('',#987,.T.);
#1199=FACE_BOUND('',#988,.T.);
#1200=FACE_BOUND('',#989,.T.);
#1201=FACE_BOUND('',#990,.T.);
#1202=FACE_BOUND('',#991,.T.);
#1203=FACE_BOUND('',#992,.T.);
#1204=FACE_BOUND('',#993,.T.);
#1205=FACE_BOUND('',#994,.T.);
#1206=FACE_BOUND('',#995,.T.);
#1207=FACE_BOUND('',#996,.T.);
#1208=FACE_BOUND('',#997,.T.);
#1209=FACE_BOUND('',#998,.T.);
#1210=FACE_BOUND('',#999,.T.);
#1211=FACE_BOUND('',#1000,.T.);
#1212=FACE_BOUND('',#1001,.T.);
#1213=FACE_BOUND('',#1002,.T.);
#1214=FACE_BOUND('',#1003,.T.);
#1215=CYLINDRICAL_SURFACE('',#1347,0.0214);
#1216=CYLINDRICAL_SURFACE('',#1435,0.00125);
#1217=CYLINDRICAL_SURFACE('',#1439,0.004);
#1218=CYLINDRICAL_SURFACE('',#1442,0.004);
#1219=CYLINDRICAL_SURFACE('',#1445,0.0065);
#1220=CYLINDRICAL_SURFACE('',#1455,0.00325);
#1221=CYLINDRICAL_SURFACE('',#1461,0.0015);
#1222=CYLINDRICAL_SURFACE('',#1464,0.003);
#1223=CYLINDRICAL_SURFACE('',#1474,0.0015);
#1224=CYLINDRICAL_SURFACE('',#1477,0.0015);
#1225=CYLINDRICAL_SURFACE('',#1481,0.001);
#1226=CYLINDRICAL_SURFACE('',#1482,0.001);
#1227=CYLINDRICAL_SURFACE('',#1483,0.001);
#1228=CYLINDRICAL_SURFACE('',#1484,0.001);
#1229=CYLINDRICAL_SURFACE('',#1485,0.001);
#1230=CYLINDRICAL_SURFACE('',#1486,0.001);
#1231=CYLINDRICAL_SURFACE('',#1487,0.001);
#1232=CYLINDRICAL_SURFACE('',#1488,0.001);
#1233=CYLINDRICAL_SURFACE('',#1489,0.001);
#1234=CYLINDRICAL_SURFACE('',#1490,0.001);
#1235=CYLINDRICAL_SURFACE('',#1491,0.001);
#1236=CYLINDRICAL_SURFACE('',#1492,0.001);
#1237=CYLINDRICAL_SURFACE('',#1493,0.001);
#1238=CYLINDRICAL_SURFACE('',#1494,0.001);
#1239=CYLINDRICAL_SURFACE('',#1495,0.001);
#1240=CYLINDRICAL_SURFACE('',#1496,0.001);
#1241=CYLINDRICAL_SURFACE('',#1497,0.001);
#1242=CYLINDRICAL_SURFACE('',#1499,0.00115);
#1243=CYLINDRICAL_SURFACE('',#1500,0.00115);
#1244=CYLINDRICAL_SURFACE('',#1501,0.00115);
#1245=CYLINDRICAL_SURFACE('',#1502,0.00115);
#1246=CYLINDRICAL_SURFACE('',#1503,0.00115);
#1247=CYLINDRICAL_SURFACE('',#1504,0.00115);
#1248=CYLINDRICAL_SURFACE('',#1505,0.00115);
#1249=CYLINDRICAL_SURFACE('',#1506,0.00115);
#1250=CYLINDRICAL_SURFACE('',#1507,0.001);
#1251=CYLINDRICAL_SURFACE('',#1508,0.001);
#1252=CYLINDRICAL_SURFACE('',#1509,0.001);
#1253=CYLINDRICAL_SURFACE('',#1510,0.0005);
#1254=CYLINDRICAL_SURFACE('',#1511,0.0005);
#1255=CYLINDRICAL_SURFACE('',#1512,0.00085);
#1256=CYLINDRICAL_SURFACE('',#1513,0.000549999999999993);
#1257=CYLINDRICAL_SURFACE('',#1514,0.000549999999999993);
#1258=CYLINDRICAL_SURFACE('',#1515,0.000549999999999993);
#1259=CYLINDRICAL_SURFACE('',#1516,0.000549999999999993);
#1260=CYLINDRICAL_SURFACE('',#1517,0.0008);
#1261=CYLINDRICAL_SURFACE('',#1518,0.0008);
#1262=CYLINDRICAL_SURFACE('',#1519,0.00075);
#1263=CYLINDRICAL_SURFACE('',#1523,0.0009);
#1264=CYLINDRICAL_SURFACE('',#1524,0.00075);
#1265=CYLINDRICAL_SURFACE('',#1529,0.0009);
#1266=ADVANCED_FACE('',(#1004),#1215,.T.);
#1267=ADVANCED_FACE('',(#1005,#1006,#1007,#1008,#1009,#1010,#1011,#1012,
#1013,#1014,#1015,#1016,#1017,#1018,#1019,#1020,#1021,#1022,#1023,#1024,
#1025,#1026,#1027,#1028,#1029,#1030,#1031,#1032,#1033,#1034,#1035,#1036,
#1037,#1038,#1039,#1040,#1041,#1042,#1043,#1044),#25,.F.);
#1268=ADVANCED_FACE('',(#1045,#1046,#1047,#1048,#1049,#1050,#1051,#1052,
#1053,#1054,#1055,#1056,#1057,#1058,#1059,#1060,#1061,#1062,#1063,#1064,
#1065,#1066,#1067,#1068,#1069,#1070,#1071,#1072,#1073,#1074,#1075,#1076,
#1077,#1078,#1079,#1080,#1081,#1082,#1083,#1084,#1085),#26,.T.);
#1269=ADVANCED_FACE('',(#1086),#1216,.F.);
#1270=ADVANCED_FACE('',(#1087),#27,.T.);
#1271=ADVANCED_FACE('',(#1088,#1089),#1217,.T.);
#1272=ADVANCED_FACE('',(#1090,#1091),#1218,.T.);
#1273=ADVANCED_FACE('',(#1092,#1093),#1219,.T.);
#1274=ADVANCED_FACE('',(#1094),#28,.T.);
#1275=ADVANCED_FACE('',(#1095,#1096),#29,.T.);
#1276=ADVANCED_FACE('',(#1097,#1098),#1220,.F.);
#1277=ADVANCED_FACE('',(#1099,#1100),#30,.T.);
#1278=ADVANCED_FACE('',(#1101,#1102),#1221,.F.);
#1279=ADVANCED_FACE('',(#1103,#1104),#31,.T.);
#1280=ADVANCED_FACE('',(#1105,#1106),#1222,.T.);
#1281=ADVANCED_FACE('',(#1107,#1108),#32,.T.);
#1282=ADVANCED_FACE('',(#1109),#33,.F.);
#1283=ADVANCED_FACE('',(#1110),#34,.F.);
#1284=ADVANCED_FACE('',(#1111),#35,.F.);
#1285=ADVANCED_FACE('',(#1112),#36,.F.);
#1286=ADVANCED_FACE('',(#1113,#1114),#37,.F.);
#1287=ADVANCED_FACE('',(#1115),#38,.F.);
#1288=ADVANCED_FACE('',(#1116),#1223,.F.);
#1289=ADVANCED_FACE('',(#1117),#39,.F.);
#1290=ADVANCED_FACE('',(#1118),#1224,.F.);
#1291=ADVANCED_FACE('',(#1119),#40,.F.);
#1292=ADVANCED_FACE('',(#1120),#41,.T.);
#1293=ADVANCED_FACE('',(#1121,#1122),#1225,.F.);
#1294=ADVANCED_FACE('',(#1123,#1124),#1226,.F.);
#1295=ADVANCED_FACE('',(#1125,#1126),#1227,.F.);
#1296=ADVANCED_FACE('',(#1127,#1128),#1228,.F.);
#1297=ADVANCED_FACE('',(#1129,#1130),#1229,.F.);
#1298=ADVANCED_FACE('',(#1131,#1132),#1230,.F.);
#1299=ADVANCED_FACE('',(#1133,#1134),#1231,.F.);
#1300=ADVANCED_FACE('',(#1135,#1136),#1232,.F.);
#1301=ADVANCED_FACE('',(#1137,#1138),#1233,.F.);
#1302=ADVANCED_FACE('',(#1139,#1140),#1234,.F.);
#1303=ADVANCED_FACE('',(#1141,#1142),#1235,.F.);
#1304=ADVANCED_FACE('',(#1143,#1144),#1236,.F.);
#1305=ADVANCED_FACE('',(#1145,#1146),#1237,.F.);
#1306=ADVANCED_FACE('',(#1147,#1148),#1238,.F.);
#1307=ADVANCED_FACE('',(#1149,#1150),#1239,.F.);
#1308=ADVANCED_FACE('',(#1151,#1152),#1240,.F.);
#1309=ADVANCED_FACE('',(#1153,#1154),#1241,.F.);
#1310=ADVANCED_FACE('',(#1155,#1156),#22,.F.);
#1311=ADVANCED_FACE('',(#1157,#1158),#1242,.F.);
#1312=ADVANCED_FACE('',(#1159,#1160),#1243,.F.);
#1313=ADVANCED_FACE('',(#1161,#1162),#1244,.F.);
#1314=ADVANCED_FACE('',(#1163,#1164),#1245,.F.);
#1315=ADVANCED_FACE('',(#1165,#1166),#1246,.F.);
#1316=ADVANCED_FACE('',(#1167,#1168),#1247,.F.);
#1317=ADVANCED_FACE('',(#1169,#1170),#1248,.F.);
#1318=ADVANCED_FACE('',(#1171,#1172),#1249,.F.);
#1319=ADVANCED_FACE('',(#1173,#1174),#1250,.F.);
#1320=ADVANCED_FACE('',(#1175,#1176),#1251,.F.);
#1321=ADVANCED_FACE('',(#1177,#1178),#1252,.F.);
#1322=ADVANCED_FACE('',(#1179,#1180),#1253,.F.);
#1323=ADVANCED_FACE('',(#1181,#1182),#1254,.F.);
#1324=ADVANCED_FACE('',(#1183,#1184),#1255,.F.);
#1325=ADVANCED_FACE('',(#1185,#1186),#1256,.F.);
#1326=ADVANCED_FACE('',(#1187,#1188),#1257,.F.);
#1327=ADVANCED_FACE('',(#1189,#1190),#1258,.F.);
#1328=ADVANCED_FACE('',(#1191,#1192),#1259,.F.);
#1329=ADVANCED_FACE('',(#1193,#1194),#1260,.F.);
#1330=ADVANCED_FACE('',(#1195,#1196),#1261,.F.);
#1331=ADVANCED_FACE('',(#1197,#1198),#1262,.F.);
#1332=ADVANCED_FACE('',(#1199,#1200),#42,.F.);
#1333=ADVANCED_FACE('',(#1201,#1202),#1263,.F.);
#1334=ADVANCED_FACE('',(#1203,#1204),#1264,.F.);
#1335=ADVANCED_FACE('',(#1205,#1206),#43,.F.);
#1336=ADVANCED_FACE('',(#1207,#1208),#1265,.F.);
#1337=ADVANCED_FACE('',(#1209),#44,.T.);
#1338=ADVANCED_FACE('',(#1210),#45,.T.);
#1339=ADVANCED_FACE('',(#1211),#23,.F.);
#1340=ADVANCED_FACE('',(#1212),#21,.F.);
#1341=ADVANCED_FACE('',(#1213,#1214),#20,.T.);
#1342=CLOSED_SHELL('',(#1266,#1267,#1268,#1269,#1270,#1271,#1272,#1273,
#1274,#1275,#1276,#1277,#1278,#1279,#1280,#1281,#1282,#1283,#1284,#1285,
#1286,#1287,#1288,#1289,#1290,#1291,#1292,#1293,#1294,#1295,#1296,#1297,
#1298,#1299,#1300,#1301,#1302,#1303,#1304,#1305,#1306,#1307,#1308,#1309,
#1310,#1311,#1312,#1313,#1314,#1315,#1316,#1317,#1318,#1319,#1320,#1321,
#1322,#1323,#1324,#1325,#1326,#1327,#1328,#1329,#1330,#1331,#1332,#1333,
#1334,#1335,#1336,#1337,#1338,#1339,#1340,#1341));
#1343=MANIFOLD_SOLID_BREP('',#1342);
#1344=SHAPE_DEFINITION_REPRESENTATION(#2319,#1345);
#1345=SHAPE_REPRESENTATION('id2',(#1346),#2314);
#1346=AXIS2_PLACEMENT_3D('',#1948,#1536,#1537);
#1347=AXIS2_PLACEMENT_3D('',#1949,#1538,#1539);
#1348=AXIS2_PLACEMENT_3D('',#1950,#1540,#1541);
#1349=AXIS2_PLACEMENT_3D('',#1955,#1543,#1544);
#1350=AXIS2_PLACEMENT_3D('',#1958,#1546,#1547);
#1351=AXIS2_PLACEMENT_3D('',#1959,#1548,#1549);
#1352=AXIS2_PLACEMENT_3D('',#1961,#1550,#1551);
#1353=AXIS2_PLACEMENT_3D('',#1963,#1552,#1553);
#1354=AXIS2_PLACEMENT_3D('',#1965,#1554,#1555);
#1355=AXIS2_PLACEMENT_3D('',#1967,#1556,#1557);
#1356=AXIS2_PLACEMENT_3D('',#1969,#1558,#1559);
#1357=AXIS2_PLACEMENT_3D('',#1971,#1560,#1561);
#1358=AXIS2_PLACEMENT_3D('',#1973,#1562,#1563);
#1359=AXIS2_PLACEMENT_3D('',#1975,#1564,#1565);
#1360=AXIS2_PLACEMENT_3D('',#1977,#1566,#1567);
#1361=AXIS2_PLACEMENT_3D('',#1979,#1568,#1569);
#1362=AXIS2_PLACEMENT_3D('',#1981,#1570,#1571);
#1363=AXIS2_PLACEMENT_3D('',#1983,#1572,#1573);
#1364=AXIS2_PLACEMENT_3D('',#1985,#1574,#1575);
#1365=AXIS2_PLACEMENT_3D('',#1987,#1576,#1577);
#1366=AXIS2_PLACEMENT_3D('',#1989,#1578,#1579);
#1367=AXIS2_PLACEMENT_3D('',#1991,#1580,#1581);
#1368=AXIS2_PLACEMENT_3D('',#1993,#1582,#1583);
#1369=AXIS2_PLACEMENT_3D('',#1995,#1584,#1585);
#1370=AXIS2_PLACEMENT_3D('',#1997,#1586,#1587);
#1371=AXIS2_PLACEMENT_3D('',#1999,#1588,#1589);
#1372=AXIS2_PLACEMENT_3D('',#2001,#1590,#1591);
#1373=AXIS2_PLACEMENT_3D('',#2003,#1592,#1593);
#1374=AXIS2_PLACEMENT_3D('',#2005,#1594,#1595);
#1375=AXIS2_PLACEMENT_3D('',#2007,#1596,#1597);
#1376=AXIS2_PLACEMENT_3D('',#2009,#1598,#1599);
#1377=AXIS2_PLACEMENT_3D('',#2011,#1600,#1601);
#1378=AXIS2_PLACEMENT_3D('',#2013,#1602,#1603);
#1379=AXIS2_PLACEMENT_3D('',#2015,#1604,#1605);
#1380=AXIS2_PLACEMENT_3D('',#2017,#1606,#1607);
#1381=AXIS2_PLACEMENT_3D('',#2019,#1608,#1609);
#1382=AXIS2_PLACEMENT_3D('',#2021,#1610,#1611);
#1383=AXIS2_PLACEMENT_3D('',#2023,#1612,#1613);
#1384=AXIS2_PLACEMENT_3D('',#2025,#1614,#1615);
#1385=AXIS2_PLACEMENT_3D('',#2027,#1616,#1617);
#1386=AXIS2_PLACEMENT_3D('',#2029,#1618,#1619);
#1387=AXIS2_PLACEMENT_3D('',#2031,#1620,#1621);
#1388=AXIS2_PLACEMENT_3D('',#2033,#1622,#1623);
#1389=AXIS2_PLACEMENT_3D('',#2035,#1624,#1625);
#1390=AXIS2_PLACEMENT_3D('',#2039,#1627,#1628);
#1391=AXIS2_PLACEMENT_3D('',#2042,#1630,#1631);
#1392=AXIS2_PLACEMENT_3D('',#2043,#1632,#1633);
#1393=AXIS2_PLACEMENT_3D('',#2046,#1634,#1635);
#1394=AXIS2_PLACEMENT_3D('',#2047,#1636,#1637);
#1395=AXIS2_PLACEMENT_3D('',#2049,#1638,#1639);
#1396=AXIS2_PLACEMENT_3D('',#2051,#1640,#1641);
#1397=AXIS2_PLACEMENT_3D('',#2053,#1642,#1643);
#1398=AXIS2_PLACEMENT_3D('',#2055,#1644,#1645);
#1399=AXIS2_PLACEMENT_3D('',#2057,#1646,#1647);
#1400=AXIS2_PLACEMENT_3D('',#2059,#1648,#1649);
#1401=AXIS2_PLACEMENT_3D('',#2061,#1650,#1651);
#1402=AXIS2_PLACEMENT_3D('',#2063,#1652,#1653);
#1403=AXIS2_PLACEMENT_3D('',#2065,#1654,#1655);
#1404=AXIS2_PLACEMENT_3D('',#2067,#1656,#1657);
#1405=AXIS2_PLACEMENT_3D('',#2069,#1658,#1659);
#1406=AXIS2_PLACEMENT_3D('',#2071,#1660,#1661);
#1407=AXIS2_PLACEMENT_3D('',#2073,#1662,#1663);
#1408=AXIS2_PLACEMENT_3D('',#2075,#1664,#1665);
#1409=AXIS2_PLACEMENT_3D('',#2077,#1666,#1667);
#1410=AXIS2_PLACEMENT_3D('',#2079,#1668,#1669);
#1411=AXIS2_PLACEMENT_3D('',#2081,#1670,#1671);
#1412=AXIS2_PLACEMENT_3D('',#2083,#1672,#1673);
#1413=AXIS2_PLACEMENT_3D('',#2085,#1674,#1675);
#1414=AXIS2_PLACEMENT_3D('',#2087,#1676,#1677);
#1415=AXIS2_PLACEMENT_3D('',#2089,#1678,#1679);
#1416=AXIS2_PLACEMENT_3D('',#2091,#1680,#1681);
#1417=AXIS2_PLACEMENT_3D('',#2093,#1682,#1683);
#1418=AXIS2_PLACEMENT_3D('',#2095,#1684,#1685);
#1419=AXIS2_PLACEMENT_3D('',#2097,#1686,#1687);
#1420=AXIS2_PLACEMENT_3D('',#2099,#1688,#1689);
#1421=AXIS2_PLACEMENT_3D('',#2101,#1690,#1691);
#1422=AXIS2_PLACEMENT_3D('',#2103,#1692,#1693);
#1423=AXIS2_PLACEMENT_3D('',#2105,#1694,#1695);
#1424=AXIS2_PLACEMENT_3D('',#2107,#1696,#1697);
#1425=AXIS2_PLACEMENT_3D('',#2109,#1698,#1699);
#1426=AXIS2_PLACEMENT_3D('',#2111,#1700,#1701);
#1427=AXIS2_PLACEMENT_3D('',#2113,#1702,#1703);
#1428=AXIS2_PLACEMENT_3D('',#2115,#1704,#1705);
#1429=AXIS2_PLACEMENT_3D('',#2117,#1706,#1707);
#1430=AXIS2_PLACEMENT_3D('',#2119,#1708,#1709);
#1431=AXIS2_PLACEMENT_3D('',#2121,#1710,#1711);
#1432=AXIS2_PLACEMENT_3D('',#2123,#1712,#1713);
#1433=AXIS2_PLACEMENT_3D('',#2128,#1715,#1716);
#1434=AXIS2_PLACEMENT_3D('',#2131,#1718,#1719);
#1435=AXIS2_PLACEMENT_3D('',#2136,#1722,#1723);
#1436=AXIS2_PLACEMENT_3D('',#2139,#1726,#1727);
#1437=AXIS2_PLACEMENT_3D('',#2143,#1729,#1730);
#1438=AXIS2_PLACEMENT_3D('',#2147,#1732,#1733);
#1439=AXIS2_PLACEMENT_3D('',#2148,#1734,#1735);
#1440=AXIS2_PLACEMENT_3D('',#2149,#1736,#1737);
#1441=AXIS2_PLACEMENT_3D('',#2151,#1738,#1739);
#1442=AXIS2_PLACEMENT_3D('',#2153,#1740,#1741);
#1443=AXIS2_PLACEMENT_3D('',#2154,#1742,#1743);
#1444=AXIS2_PLACEMENT_3D('',#2161,#1744,#1745);
#1445=AXIS2_PLACEMENT_3D('',#2163,#1746,#1747);
#1446=AXIS2_PLACEMENT_3D('',#2164,#1748,#1749);
#1447=AXIS2_PLACEMENT_3D('',#2166,#1750,#1751);
#1448=AXIS2_PLACEMENT_3D('',#2172,#1754,#1755);
#1449=AXIS2_PLACEMENT_3D('',#2176,#1757,#1758);
#1450=AXIS2_PLACEMENT_3D('',#2179,#1760,#1761);
#1451=AXIS2_PLACEMENT_3D('',#2184,#1764,#1765);
#1452=AXIS2_PLACEMENT_3D('',#2185,#1766,#1767);
#1453=AXIS2_PLACEMENT_3D('',#2186,#1768,#1769);
#1454=AXIS2_PLACEMENT_3D('',#2188,#1770,#1771);
#1455=AXIS2_PLACEMENT_3D('',#2190,#1772,#1773);
#1456=AXIS2_PLACEMENT_3D('',#2191,#1774,#1775);
#1457=AXIS2_PLACEMENT_3D('',#2193,#1776,#1777);
#1458=AXIS2_PLACEMENT_3D('',#2199,#1780,#1781);
#1459=AXIS2_PLACEMENT_3D('',#2203,#1784,#1785);
#1460=AXIS2_PLACEMENT_3D('',#2204,#1786,#1787);
#1461=AXIS2_PLACEMENT_3D('',#2206,#1788,#1789);
#1462=AXIS2_PLACEMENT_3D('',#2207,#1790,#1791);
#1463=AXIS2_PLACEMENT_3D('',#2208,#1792,#1793);
#1464=AXIS2_PLACEMENT_3D('',#2210,#1794,#1795);
#1465=AXIS2_PLACEMENT_3D('',#2211,#1796,#1797);
#1466=AXIS2_PLACEMENT_3D('',#2213,#1798,#1799);
#1467=AXIS2_PLACEMENT_3D('',#2214,#1800,#1801);
#1468=AXIS2_PLACEMENT_3D('',#2216,#1803,#1804);
#1469=AXIS2_PLACEMENT_3D('',#2218,#1806,#1807);
#1470=AXIS2_PLACEMENT_3D('',#2219,#1808,#1809);
#1471=AXIS2_PLACEMENT_3D('',#2221,#1811,#1812);
#1472=AXIS2_PLACEMENT_3D('',#2222,#1813,#1814);
#1473=AXIS2_PLACEMENT_3D('',#2225,#1816,#1817);
#1474=AXIS2_PLACEMENT_3D('',#2226,#1818,#1819);
#1475=AXIS2_PLACEMENT_3D('',#2229,#1821,#1822);
#1476=AXIS2_PLACEMENT_3D('',#2232,#1824,#1825);
#1477=AXIS2_PLACEMENT_3D('',#2236,#1828,#1829);
#1478=AXIS2_PLACEMENT_3D('',#2237,#1830,#1831);
#1479=AXIS2_PLACEMENT_3D('',#2240,#1833,#1834);
#1480=AXIS2_PLACEMENT_3D('',#2242,#1836,#1837);
#1481=AXIS2_PLACEMENT_3D('',#2243,#1838,#1839);
#1482=AXIS2_PLACEMENT_3D('',#2244,#1840,#1841);
#1483=AXIS2_PLACEMENT_3D('',#2245,#1842,#1843);
#1484=AXIS2_PLACEMENT_3D('',#2246,#1844,#1845);
#1485=AXIS2_PLACEMENT_3D('',#2247,#1846,#1847);
#1486=AXIS2_PLACEMENT_3D('',#2248,#1848,#1849);
#1487=AXIS2_PLACEMENT_3D('',#2249,#1850,#1851);
#1488=AXIS2_PLACEMENT_3D('',#2250,#1852,#1853);
#1489=AXIS2_PLACEMENT_3D('',#2251,#1854,#1855);
#1490=AXIS2_PLACEMENT_3D('',#2252,#1856,#1857);
#1491=AXIS2_PLACEMENT_3D('',#2253,#1858,#1859);
#1492=AXIS2_PLACEMENT_3D('',#2254,#1860,#1861);
#1493=AXIS2_PLACEMENT_3D('',#2255,#1862,#1863);
#1494=AXIS2_PLACEMENT_3D('',#2256,#1864,#1865);
#1495=AXIS2_PLACEMENT_3D('',#2257,#1866,#1867);
#1496=AXIS2_PLACEMENT_3D('',#2258,#1868,#1869);
#1497=AXIS2_PLACEMENT_3D('',#2259,#1870,#1871);
#1498=AXIS2_PLACEMENT_3D('',#2260,#1872,#1873);
#1499=AXIS2_PLACEMENT_3D('',#2261,#1874,#1875);
#1500=AXIS2_PLACEMENT_3D('',#2262,#1876,#1877);
#1501=AXIS2_PLACEMENT_3D('',#2263,#1878,#1879);
#1502=AXIS2_PLACEMENT_3D('',#2264,#1880,#1881);
#1503=AXIS2_PLACEMENT_3D('',#2265,#1882,#1883);
#1504=AXIS2_PLACEMENT_3D('',#2266,#1884,#1885);
#1505=AXIS2_PLACEMENT_3D('',#2267,#1886,#1887);
#1506=AXIS2_PLACEMENT_3D('',#2268,#1888,#1889);
#1507=AXIS2_PLACEMENT_3D('',#2269,#1890,#1891);
#1508=AXIS2_PLACEMENT_3D('',#2270,#1892,#1893);
#1509=AXIS2_PLACEMENT_3D('',#2271,#1894,#1895);
#1510=AXIS2_PLACEMENT_3D('',#2272,#1896,#1897);
#1511=AXIS2_PLACEMENT_3D('',#2273,#1898,#1899);
#1512=AXIS2_PLACEMENT_3D('',#2274,#1900,#1901);
#1513=AXIS2_PLACEMENT_3D('',#2275,#1902,#1903);
#1514=AXIS2_PLACEMENT_3D('',#2276,#1904,#1905);
#1515=AXIS2_PLACEMENT_3D('',#2277,#1906,#1907);
#1516=AXIS2_PLACEMENT_3D('',#2278,#1908,#1909);
#1517=AXIS2_PLACEMENT_3D('',#2279,#1910,#1911);
#1518=AXIS2_PLACEMENT_3D('',#2280,#1912,#1913);
#1519=AXIS2_PLACEMENT_3D('',#2281,#1914,#1915);
#1520=AXIS2_PLACEMENT_3D('',#2282,#1916,#1917);
#1521=AXIS2_PLACEMENT_3D('',#2284,#1918,#1919);
#1522=AXIS2_PLACEMENT_3D('',#2285,#1920,#1921);
#1523=AXIS2_PLACEMENT_3D('',#2287,#1922,#1923);
#1524=AXIS2_PLACEMENT_3D('',#2288,#1924,#1925);
#1525=AXIS2_PLACEMENT_3D('',#2289,#1926,#1927);
#1526=AXIS2_PLACEMENT_3D('',#2290,#1928,#1929);
#1527=AXIS2_PLACEMENT_3D('',#2292,#1930,#1931);
#1528=AXIS2_PLACEMENT_3D('',#2293,#1932,#1933);
#1529=AXIS2_PLACEMENT_3D('',#2295,#1934,#1935);
#1530=AXIS2_PLACEMENT_3D('',#2296,#1936,#1937);
#1531=AXIS2_PLACEMENT_3D('',#2297,#1938,#1939);
#1532=AXIS2_PLACEMENT_3D('',#2298,#1940,#1941);
#1533=AXIS2_PLACEMENT_3D('',#2299,#1942,#1943);
#1534=AXIS2_PLACEMENT_3D('',#2300,#1944,#1945);
#1535=AXIS2_PLACEMENT_3D('',#2313,#1946,#1947);
#1536=DIRECTION('',(0.,0.,1.));
#1537=DIRECTION('',(1.,0.,0.));
#1538=DIRECTION('',(0.,0.,1.));
#1539=DIRECTION('',(1.,0.,0.));
#1540=DIRECTION('',(0.,0.,1.));
#1541=DIRECTION('',(1.,0.,0.));
#1542=DIRECTION('',(0.,0.,-1.));
#1543=DIRECTION('',(0.,0.,1.));
#1544=DIRECTION('',(1.,0.,0.));
#1545=DIRECTION('',(0.,0.,-1.));
#1546=DIRECTION('',(0.,0.,1.));
#1547=DIRECTION('',(1.,0.,0.));
#1548=DIRECTION('',(0.,0.,-1.));
#1549=DIRECTION('',(-1.,0.,0.));
#1550=DIRECTION('',(0.,0.,-1.));
#1551=DIRECTION('',(-1.,0.,0.));
#1552=DIRECTION('',(0.,0.,-1.));
#1553=DIRECTION('',(-1.,0.,0.));
#1554=DIRECTION('',(0.,0.,-1.));
#1555=DIRECTION('',(-1.,0.,0.));
#1556=DIRECTION('',(0.,0.,-1.));
#1557=DIRECTION('',(-1.,0.,0.));
#1558=DIRECTION('',(0.,0.,-1.));
#1559=DIRECTION('',(-1.,0.,0.));
#1560=DIRECTION('',(0.,0.,-1.));
#1561=DIRECTION('',(-1.,0.,0.));
#1562=DIRECTION('',(0.,0.,-1.));
#1563=DIRECTION('',(-1.,0.,0.));
#1564=DIRECTION('',(0.,0.,-1.));
#1565=DIRECTION('',(-1.,0.,0.));
#1566=DIRECTION('',(0.,0.,-1.));
#1567=DIRECTION('',(-1.,0.,0.));
#1568=DIRECTION('',(0.,0.,-1.));
#1569=DIRECTION('',(-1.,0.,0.));
#1570=DIRECTION('',(0.,0.,-1.));
#1571=DIRECTION('',(-1.,0.,0.));
#1572=DIRECTION('',(0.,0.,-1.));
#1573=DIRECTION('',(-1.,0.,0.));
#1574=DIRECTION('',(0.,0.,-1.));
#1575=DIRECTION('',(-1.,0.,0.));
#1576=DIRECTION('',(0.,0.,-1.));
#1577=DIRECTION('',(-1.,0.,0.));
#1578=DIRECTION('',(0.,0.,-1.));
#1579=DIRECTION('',(-1.,0.,0.));
#1580=DIRECTION('',(0.,0.,-1.));
#1581=DIRECTION('',(-1.,0.,0.));
#1582=DIRECTION('',(0.,0.,1.));
#1583=DIRECTION('',(1.,0.,0.));
#1584=DIRECTION('',(0.,0.,-1.));
#1585=DIRECTION('',(-1.,0.,0.));
#1586=DIRECTION('',(0.,0.,-1.));
#1587=DIRECTION('',(-1.,0.,0.));
#1588=DIRECTION('',(0.,0.,-1.));
#1589=DIRECTION('',(-1.,0.,0.));
#1590=DIRECTION('',(0.,0.,-1.));
#1591=DIRECTION('',(-1.,0.,0.));
#1592=DIRECTION('',(0.,0.,-1.));
#1593=DIRECTION('',(-1.,0.,0.));
#1594=DIRECTION('',(0.,0.,-1.));
#1595=DIRECTION('',(-1.,0.,0.));
#1596=DIRECTION('',(0.,0.,-1.));
#1597=DIRECTION('',(-1.,0.,0.));
#1598=DIRECTION('',(0.,0.,-1.));
#1599=DIRECTION('',(-1.,0.,0.));
#1600=DIRECTION('',(0.,0.,-1.));
#1601=DIRECTION('',(-1.,0.,0.));
#1602=DIRECTION('',(0.,0.,-1.));
#1603=DIRECTION('',(-1.,0.,0.));
#1604=DIRECTION('',(0.,0.,-1.));
#1605=DIRECTION('',(-1.,0.,0.));
#1606=DIRECTION('',(0.,0.,-1.));
#1607=DIRECTION('',(-1.,0.,0.));
#1608=DIRECTION('',(0.,0.,-1.));
#1609=DIRECTION('',(-1.,0.,0.));
#1610=DIRECTION('',(0.,0.,-1.));
#1611=DIRECTION('',(-1.,0.,0.));
#1612=DIRECTION('',(0.,0.,-1.));
#1613=DIRECTION('',(-1.,0.,0.));
#1614=DIRECTION('',(0.,0.,-1.));
#1615=DIRECTION('',(-1.,0.,0.));
#1616=DIRECTION('',(0.,0.,-1.));
#1617=DIRECTION('',(-1.,0.,0.));
#1618=DIRECTION('',(0.,0.,-1.));
#1619=DIRECTION('',(-1.,0.,0.));
#1620=DIRECTION('',(0.,0.,1.));
#1621=DIRECTION('',(1.,0.,0.));
#1622=DIRECTION('',(0.,0.,1.));
#1623=DIRECTION('',(1.,0.,0.));
#1624=DIRECTION('',(0.,0.,1.));
#1625=DIRECTION('',(1.,0.,0.));
#1626=DIRECTION('',(0.309016994374955,-0.951056516295151,0.));
#1627=DIRECTION('',(0.,0.,-1.));
#1628=DIRECTION('',(-1.,0.,0.));
#1629=DIRECTION('',(-0.309016994374952,0.951056516295152,0.));
#1630=DIRECTION('',(0.,0.,1.));
#1631=DIRECTION('',(1.,0.,0.));
#1632=DIRECTION('',(0.,0.,1.));
#1633=DIRECTION('',(1.,0.,0.));
#1634=DIRECTION('',(0.,0.,1.));
#1635=DIRECTION('',(1.,0.,0.));
#1636=DIRECTION('',(0.,0.,1.));
#1637=DIRECTION('',(1.,0.,0.));
#1638=DIRECTION('',(0.,0.,1.));
#1639=DIRECTION('',(1.,0.,0.));
#1640=DIRECTION('',(0.,0.,1.));
#1641=DIRECTION('',(1.,0.,0.));
#1642=DIRECTION('',(0.,0.,1.));
#1643=DIRECTION('',(1.,0.,0.));
#1644=DIRECTION('',(0.,0.,1.));
#1645=DIRECTION('',(1.,0.,0.));
#1646=DIRECTION('',(0.,0.,1.));
#1647=DIRECTION('',(1.,0.,0.));
#1648=DIRECTION('',(0.,0.,1.));
#1649=DIRECTION('',(1.,0.,0.));
#1650=DIRECTION('',(0.,0.,1.));
#1651=DIRECTION('',(1.,0.,0.));
#1652=DIRECTION('',(0.,0.,1.));
#1653=DIRECTION('',(1.,0.,0.));
#1654=DIRECTION('',(0.,0.,1.));
#1655=DIRECTION('',(1.,0.,0.));
#1656=DIRECTION('',(0.,0.,1.));
#1657=DIRECTION('',(1.,0.,0.));
#1658=DIRECTION('',(0.,0.,1.));
#1659=DIRECTION('',(1.,0.,0.));
#1660=DIRECTION('',(0.,0.,1.));
#1661=DIRECTION('',(1.,0.,0.));
#1662=DIRECTION('',(0.,0.,1.));
#1663=DIRECTION('',(1.,0.,0.));
#1664=DIRECTION('',(0.,0.,1.));
#1665=DIRECTION('',(1.,0.,0.));
#1666=DIRECTION('',(0.,0.,1.));
#1667=DIRECTION('',(1.,0.,0.));
#1668=DIRECTION('',(0.,0.,1.));
#1669=DIRECTION('',(1.,0.,0.));
#1670=DIRECTION('',(0.,0.,1.));
#1671=DIRECTION('',(1.,0.,0.));
#1672=DIRECTION('',(0.,0.,1.));
#1673=DIRECTION('',(1.,0.,0.));
#1674=DIRECTION('',(0.,0.,1.));
#1675=DIRECTION('',(1.,0.,0.));
#1676=DIRECTION('',(0.,0.,1.));
#1677=DIRECTION('',(1.,0.,0.));
#1678=DIRECTION('',(0.,0.,1.));
#1679=DIRECTION('',(1.,0.,0.));
#1680=DIRECTION('',(0.,0.,1.));
#1681=DIRECTION('',(1.,0.,0.));
#1682=DIRECTION('',(0.,0.,1.));
#1683=DIRECTION('',(1.,0.,0.));
#1684=DIRECTION('',(0.,0.,1.));
#1685=DIRECTION('',(1.,0.,0.));
#1686=DIRECTION('',(0.,0.,1.));
#1687=DIRECTION('',(1.,0.,0.));
#1688=DIRECTION('',(0.,0.,1.));
#1689=DIRECTION('',(1.,0.,0.));
#1690=DIRECTION('',(0.,0.,1.));
#1691=DIRECTION('',(1.,0.,0.));
#1692=DIRECTION('',(0.,0.,1.));
#1693=DIRECTION('',(1.,0.,0.));
#1694=DIRECTION('',(0.,0.,1.));
#1695=DIRECTION('',(1.,0.,0.));
#1696=DIRECTION('',(0.,0.,1.));
#1697=DIRECTION('',(1.,0.,0.));
#1698=DIRECTION('',(0.,0.,1.));
#1699=DIRECTION('',(1.,0.,0.));
#1700=DIRECTION('',(0.,0.,1.));
#1701=DIRECTION('',(1.,0.,0.));
#1702=DIRECTION('',(0.,0.,1.));
#1703=DIRECTION('',(1.,0.,0.));
#1704=DIRECTION('',(0.,0.,1.));
#1705=DIRECTION('',(1.,0.,0.));
#1706=DIRECTION('',(0.,0.,1.));
#1707=DIRECTION('',(1.,0.,0.));
#1708=DIRECTION('',(0.,0.,1.));
#1709=DIRECTION('',(1.,0.,0.));
#1710=DIRECTION('',(0.,0.,1.));
#1711=DIRECTION('',(1.,0.,0.));
#1712=DIRECTION('',(0.,0.,1.));
#1713=DIRECTION('',(1.,0.,0.));
#1714=DIRECTION('',(-1.,0.,0.));
#1715=DIRECTION('',(0.,0.,1.));
#1716=DIRECTION('',(1.,0.,0.));
#1717=DIRECTION('',(1.,0.,0.));
#1718=DIRECTION('',(0.,0.,1.));
#1719=DIRECTION('',(1.,0.,0.));
#1720=DIRECTION('',(-0.309016994374955,0.951056516295151,0.));
#1721=DIRECTION('',(0.309016994374952,-0.951056516295152,0.));
#1722=DIRECTION('',(0.,0.,-1.));
#1723=DIRECTION('',(-1.,0.,0.));
#1724=DIRECTION('',(0.,0.,-1.));
#1725=DIRECTION('',(0.,0.,-1.));
#1726=DIRECTION('',(0.,0.,-1.));
#1727=DIRECTION('',(-1.,0.,0.));
#1728=DIRECTION('',(1.,0.,0.));
#1729=DIRECTION('',(0.,0.,-1.));
#1730=DIRECTION('',(-1.,0.,0.));
#1731=DIRECTION('',(1.,0.,0.));
#1732=DIRECTION('',(0.,0.,-1.));
#1733=DIRECTION('',(-1.,0.,0.));
#1734=DIRECTION('',(0.,0.,-1.));
#1735=DIRECTION('',(-1.,0.,0.));
#1736=DIRECTION('',(0.,0.,1.));
#1737=DIRECTION('',(1.,0.,0.));
#1738=DIRECTION('',(0.,0.,1.));
#1739=DIRECTION('',(1.,0.,0.));
#1740=DIRECTION('',(0.,0.,-1.));
#1741=DIRECTION('',(-1.,0.,0.));
#1742=DIRECTION('',(0.,0.,1.));
#1743=DIRECTION('',(1.,0.,0.));
#1744=DIRECTION('',(0.,0.,1.));
#1745=DIRECTION('',(1.,0.,0.));
#1746=DIRECTION('',(0.,0.,1.));
#1747=DIRECTION('',(1.,0.,0.));
#1748=DIRECTION('',(0.,0.,1.));
#1749=DIRECTION('',(1.,0.,0.));
#1750=DIRECTION('',(0.,0.,1.));
#1751=DIRECTION('',(1.,0.,0.));
#1752=DIRECTION('',(0.,0.,1.));
#1753=DIRECTION('',(0.,0.,1.));
#1754=DIRECTION('',(0.,0.,1.));
#1755=DIRECTION('',(1.,0.,0.));
#1756=DIRECTION('',(0.,0.,1.));
#1757=DIRECTION('',(0.,0.,-1.));
#1758=DIRECTION('',(-1.,0.,0.));
#1759=DIRECTION('',(0.,0.,1.));
#1760=DIRECTION('',(0.,0.,-1.));
#1761=DIRECTION('',(-1.,0.,0.));
#1762=DIRECTION('',(1.,0.,0.));
#1763=DIRECTION('',(1.,0.,0.));
#1764=DIRECTION('',(0.,0.,-1.));
#1765=DIRECTION('',(-1.,0.,0.));
#1766=DIRECTION('',(0.,0.,1.));
#1767=DIRECTION('',(1.,0.,0.));
#1768=DIRECTION('',(0.,0.,1.));
#1769=DIRECTION('',(1.,0.,0.));
#1770=DIRECTION('',(0.,0.,1.));
#1771=DIRECTION('',(1.,0.,0.));
#1772=DIRECTION('',(0.,0.,-1.));
#1773=DIRECTION('',(-1.,0.,0.));
#1774=DIRECTION('',(0.,0.,-1.));
#1775=DIRECTION('',(-1.,0.,0.));
#1776=DIRECTION('',(0.,0.,1.));
#1777=DIRECTION('',(1.,0.,0.));
#1778=DIRECTION('',(0.,0.,-1.));
#1779=DIRECTION('',(0.,0.,-1.));
#1780=DIRECTION('',(0.,0.,1.));
#1781=DIRECTION('',(1.,0.,0.));
#1782=DIRECTION('',(0.,0.,-1.));
#1783=DIRECTION('',(0.,0.,-1.));
#1784=DIRECTION('',(0.,0.,-1.));
#1785=DIRECTION('',(-1.,0.,0.));
#1786=DIRECTION('',(0.,0.,-1.));
#1787=DIRECTION('',(-1.,0.,0.));
#1788=DIRECTION('',(0.,0.,1.));
#1789=DIRECTION('',(1.,0.,0.));
#1790=DIRECTION('',(0.,0.,-1.));
#1791=DIRECTION('',(-1.,0.,0.));
#1792=DIRECTION('',(0.,0.,1.));
#1793=DIRECTION('',(1.,0.,0.));
#1794=DIRECTION('',(0.,0.,1.));
#1795=DIRECTION('',(1.,0.,0.));
#1796=DIRECTION('',(0.,0.,1.));
#1797=DIRECTION('',(1.,0.,0.));
#1798=DIRECTION('',(0.,0.,1.));
#1799=DIRECTION('',(1.,0.,0.));
#1800=DIRECTION('',(0.,1.,0.));
#1801=DIRECTION('',(0.,0.,1.));
#1802=DIRECTION('',(1.,0.,0.));
#1803=DIRECTION('',(0.,0.,1.));
#1804=DIRECTION('',(1.,0.,0.));
#1805=DIRECTION('',(1.,0.,0.));
#1806=DIRECTION('',(0.,-1.,0.));
#1807=DIRECTION('',(0.,0.,-1.));
#1808=DIRECTION('',(0.,-1.,0.));
#1809=DIRECTION('',(0.,0.,-1.));
#1810=DIRECTION('',(1.,0.,0.));
#1811=DIRECTION('',(0.,0.,1.));
#1812=DIRECTION('',(1.,0.,0.));
#1813=DIRECTION('',(0.,0.,-1.));
#1814=DIRECTION('',(-1.,0.,0.));
#1815=DIRECTION('',(1.,0.,0.));
#1816=DIRECTION('',(0.,1.,0.));
#1817=DIRECTION('',(0.,0.,1.));
#1818=DIRECTION('',(0.,0.,1.));
#1819=DIRECTION('',(1.,0.,0.));
#1820=DIRECTION('',(0.,0.,1.));
#1821=DIRECTION('',(0.,0.,1.));
#1822=DIRECTION('',(1.,0.,0.));
#1823=DIRECTION('',(0.,0.,1.));
#1824=DIRECTION('',(0.,1.,0.));
#1825=DIRECTION('',(0.,0.,1.));
#1826=DIRECTION('',(-1.,0.,0.));
#1827=DIRECTION('',(0.,0.,1.));
#1828=DIRECTION('',(0.,0.,1.));
#1829=DIRECTION('',(1.,0.,0.));
#1830=DIRECTION('',(0.,0.,1.));
#1831=DIRECTION('',(1.,0.,0.));
#1832=DIRECTION('',(0.,0.,1.));
#1833=DIRECTION('',(0.,-1.,0.));
#1834=DIRECTION('',(0.,0.,-1.));
#1835=DIRECTION('',(1.,0.,0.));
#1836=DIRECTION('',(0.,0.,1.));
#1837=DIRECTION('',(1.,0.,0.));
#1838=DIRECTION('',(0.,0.,-1.));
#1839=DIRECTION('',(-1.,0.,0.));
#1840=DIRECTION('',(0.,0.,-1.));
#1841=DIRECTION('',(-1.,0.,0.));
#1842=DIRECTION('',(0.,0.,-1.));
#1843=DIRECTION('',(-1.,0.,0.));
#1844=DIRECTION('',(0.,0.,-1.));
#1845=DIRECTION('',(-1.,0.,0.));
#1846=DIRECTION('',(0.,0.,-1.));
#1847=DIRECTION('',(-1.,0.,0.));
#1848=DIRECTION('',(0.,0.,-1.));
#1849=DIRECTION('',(-1.,0.,0.));
#1850=DIRECTION('',(0.,0.,-1.));
#1851=DIRECTION('',(-1.,0.,0.));
#1852=DIRECTION('',(0.,0.,-1.));
#1853=DIRECTION('',(-1.,0.,0.));
#1854=DIRECTION('',(0.,0.,-1.));
#1855=DIRECTION('',(-1.,0.,0.));
#1856=DIRECTION('',(0.,0.,-1.));
#1857=DIRECTION('',(-1.,0.,0.));
#1858=DIRECTION('',(0.,0.,-1.));
#1859=DIRECTION('',(-1.,0.,0.));
#1860=DIRECTION('',(0.,0.,-1.));
#1861=DIRECTION('',(-1.,0.,0.));
#1862=DIRECTION('',(0.,0.,-1.));
#1863=DIRECTION('',(-1.,0.,0.));
#1864=DIRECTION('',(0.,0.,-1.));
#1865=DIRECTION('',(-1.,0.,0.));
#1866=DIRECTION('',(0.,0.,-1.));
#1867=DIRECTION('',(-1.,0.,0.));
#1868=DIRECTION('',(0.,0.,-1.));
#1869=DIRECTION('',(-1.,0.,0.));
#1870=DIRECTION('',(0.,0.,-1.));
#1871=DIRECTION('',(-1.,0.,0.));
#1872=DIRECTION('',(0.,0.,1.));
#1873=DIRECTION('',(1.,0.,0.));
#1874=DIRECTION('',(0.,0.,-1.));
#1875=DIRECTION('',(-1.,0.,0.));
#1876=DIRECTION('',(0.,0.,-1.));
#1877=DIRECTION('',(-1.,0.,0.));
#1878=DIRECTION('',(0.,0.,-1.));
#1879=DIRECTION('',(-1.,0.,0.));
#1880=DIRECTION('',(0.,0.,-1.));
#1881=DIRECTION('',(-1.,0.,0.));
#1882=DIRECTION('',(0.,0.,-1.));
#1883=DIRECTION('',(-1.,0.,0.));
#1884=DIRECTION('',(0.,0.,-1.));
#1885=DIRECTION('',(-1.,0.,0.));
#1886=DIRECTION('',(0.,0.,-1.));
#1887=DIRECTION('',(-1.,0.,0.));
#1888=DIRECTION('',(0.,0.,-1.));
#1889=DIRECTION('',(-1.,0.,0.));
#1890=DIRECTION('',(0.,0.,-1.));
#1891=DIRECTION('',(-1.,0.,0.));
#1892=DIRECTION('',(0.,0.,-1.));
#1893=DIRECTION('',(-1.,0.,0.));
#1894=DIRECTION('',(0.,0.,-1.));
#1895=DIRECTION('',(-1.,0.,0.));
#1896=DIRECTION('',(0.,0.,-1.));
#1897=DIRECTION('',(-1.,0.,0.));
#1898=DIRECTION('',(0.,0.,-1.));
#1899=DIRECTION('',(-1.,0.,0.));
#1900=DIRECTION('',(0.,0.,-1.));
#1901=DIRECTION('',(-1.,0.,0.));
#1902=DIRECTION('',(0.,0.,-1.));
#1903=DIRECTION('',(-1.,0.,0.));
#1904=DIRECTION('',(0.,0.,-1.));
#1905=DIRECTION('',(-1.,0.,0.));
#1906=DIRECTION('',(0.,0.,-1.));
#1907=DIRECTION('',(-1.,0.,0.));
#1908=DIRECTION('',(0.,0.,-1.));
#1909=DIRECTION('',(-1.,0.,0.));
#1910=DIRECTION('',(0.,0.,1.));
#1911=DIRECTION('',(1.,0.,0.));
#1912=DIRECTION('',(0.,0.,1.));
#1913=DIRECTION('',(1.,0.,0.));
#1914=DIRECTION('',(0.,0.,1.));
#1915=DIRECTION('',(1.,0.,0.));
#1916=DIRECTION('',(0.,0.,1.));
#1917=DIRECTION('',(1.,0.,0.));
#1918=DIRECTION('',(0.,0.,-1.));
#1919=DIRECTION('',(-1.,0.,0.));
#1920=DIRECTION('',(0.,0.,1.));
#1921=DIRECTION('',(1.,0.,0.));
#1922=DIRECTION('',(0.,0.,1.));
#1923=DIRECTION('',(1.,0.,0.));
#1924=DIRECTION('',(0.,0.,-1.));
#1925=DIRECTION('',(-1.,0.,0.));
#1926=DIRECTION('',(0.,0.,1.));
#1927=DIRECTION('',(1.,0.,0.));
#1928=DIRECTION('',(0.,0.,-1.));
#1929=DIRECTION('',(-1.,0.,0.));
#1930=DIRECTION('',(0.,0.,1.));
#1931=DIRECTION('',(1.,0.,0.));
#1932=DIRECTION('',(0.,0.,-1.));
#1933=DIRECTION('',(-1.,0.,0.));
#1934=DIRECTION('',(0.,0.,-1.));
#1935=DIRECTION('',(-1.,0.,0.));
#1936=DIRECTION('',(-0.951056516295152,-0.309016994374952,0.));
#1937=DIRECTION('',(0.309016994374952,-0.951056516295152,0.));
#1938=DIRECTION('',(0.951056516295151,0.309016994374955,0.));
#1939=DIRECTION('',(-0.309016994374955,0.951056516295151,0.));
#1940=DIRECTION('',(0.,0.,1.));
#1941=DIRECTION('',(1.,0.,0.));
#1942=DIRECTION('',(-0.0593273554958789,0.998238581146745,0.));
#1943=DIRECTION('',(-0.998238581146744,-0.0593273554958789,0.));
#1944=DIRECTION('',(-0.0593273554958786,-0.998238581146745,2.57291390865808E-16));
#1945=DIRECTION('',(0.998238581146745,-0.0593273554958786,0.));
#1946=DIRECTION('',(0.,0.,-1.));
#1947=DIRECTION('',(-1.,0.,0.));
#1948=CARTESIAN_POINT('',(0.,0.,0.));
#1949=CARTESIAN_POINT('',(0.,0.,-0.002));
#1950=CARTESIAN_POINT('',(0.,0.,0.));
#1951=CARTESIAN_POINT('',(-0.00708668668555822,0.0201925449565113,0.));
#1952=CARTESIAN_POINT('',(-0.00613563016926306,0.0205015619508863,0.));
#1953=CARTESIAN_POINT('',(-0.00708668668555822,0.0201925449565113,0.0045));
#1954=CARTESIAN_POINT('',(-0.00708668668555822,0.0201925449565113,-0.002));
#1955=CARTESIAN_POINT('',(0.,0.,-0.002));
#1956=CARTESIAN_POINT('',(-0.00613563016926306,0.0205015619508863,-0.002));
#1957=CARTESIAN_POINT('',(-0.00613563016926306,0.0205015619508863,0.0045));
#1958=CARTESIAN_POINT('',(0.,0.,-0.002));
#1959=CARTESIAN_POINT('',(-0.00234425039850352,-0.0132949046656648,-0.002));
#1960=CARTESIAN_POINT('',(-0.00334425039850351,-0.0132949046656648,-0.002));
#1961=CARTESIAN_POINT('',(-0.0135,0.,-0.002));
#1962=CARTESIAN_POINT('',(-0.0145,0.,-0.002));
#1963=CARTESIAN_POINT('',(0.0126858503806098,0.00461727193489653,-0.002));
#1964=CARTESIAN_POINT('',(0.0116858503806098,0.00461727193489653,-0.002));
#1965=CARTESIAN_POINT('',(0.0135,0.,-0.002));
#1966=CARTESIAN_POINT('',(0.0125,0.,-0.002));
#1967=CARTESIAN_POINT('',(0.0126858503806098,-0.00461727193489654,-0.002));
#1968=CARTESIAN_POINT('',(0.0116858503806098,-0.00461727193489654,-0.002));
#1969=CARTESIAN_POINT('',(0.0103415999821062,-0.0086776327307683,-0.002));
#1970=CARTESIAN_POINT('',(0.00934159998210621,-0.0086776327307683,-0.002));
#1971=CARTESIAN_POINT('',(0.00675,-0.0116913429510899,-0.002));
#1972=CARTESIAN_POINT('',(0.00575000000000001,-0.0116913429510899,-0.002));
#1973=CARTESIAN_POINT('',(0.00234425039850361,-0.0132949046656648,-0.002));
#1974=CARTESIAN_POINT('',(0.00134425039850362,-0.0132949046656648,-0.002));
#1975=CARTESIAN_POINT('',(-0.00675,-0.0116913429510899,-0.002));
#1976=CARTESIAN_POINT('',(-0.00774999999999999,-0.0116913429510899,-0.002));
#1977=CARTESIAN_POINT('',(-0.0103415999821062,-0.0086776327307683,-0.002));
#1978=CARTESIAN_POINT('',(-0.0113415999821062,-0.0086776327307683,-0.002));
#1979=CARTESIAN_POINT('',(-0.0126858503806098,-0.00461727193489654,-0.002));
#1980=CARTESIAN_POINT('',(-0.0136858503806098,-0.00461727193489654,-0.002));
#1981=CARTESIAN_POINT('',(0.00867763273076825,0.0103415999821062,-0.002));
#1982=CARTESIAN_POINT('',(0.00767763273076826,0.0103415999821062,-0.002));
#1983=CARTESIAN_POINT('',(0.,0.0135,-0.002));
#1984=CARTESIAN_POINT('',(-0.000999999999999987,0.0135,-0.002));
#1985=CARTESIAN_POINT('',(0.00461727193489648,0.0126858503806098,-0.002));
#1986=CARTESIAN_POINT('',(0.00361727193489649,0.0126858503806098,-0.002));
#1987=CARTESIAN_POINT('',(-0.00461727193489649,0.0126858503806098,-0.002));
#1988=CARTESIAN_POINT('',(-0.00561727193489648,0.0126858503806098,-0.002));
#1989=CARTESIAN_POINT('',(-0.00867763273076834,0.0103415999821062,-0.002));
#1990=CARTESIAN_POINT('',(-0.00967763273076833,0.0103415999821062,-0.002));
#1991=CARTESIAN_POINT('',(-0.0116913429510899,0.00675,-0.002));
#1992=CARTESIAN_POINT('',(-0.0126913429510899,0.00675,-0.002));
#1993=CARTESIAN_POINT('',(0.,0.,-0.002));
#1994=CARTESIAN_POINT('',(0.0075,0.,-0.002));
#1995=CARTESIAN_POINT('',(0.0149378666408201,-0.0125343583888875,-0.002));
#1996=CARTESIAN_POINT('',(0.0137878666408201,-0.0125343583888875,-0.002));
#1997=CARTESIAN_POINT('',(0.00975,-0.0168874953737965,-0.002));
#1998=CARTESIAN_POINT('',(0.0086,-0.0168874953737965,-0.002));
#1999=CARTESIAN_POINT('',(0.00338613946450522,-0.019203751183738,-0.002));
#2000=CARTESIAN_POINT('',(0.00223613946450522,-0.019203751183738,-0.002));
#2001=CARTESIAN_POINT('',(-0.00338613946450508,-0.0192037511837381,-0.002));
#2002=CARTESIAN_POINT('',(-0.00453613946450508,-0.0192037511837381,-0.002));
#2003=CARTESIAN_POINT('',(-0.00975,-0.0168874953737966,-0.002));
#2004=CARTESIAN_POINT('',(-0.0109,-0.0168874953737966,-0.002));
#2005=CARTESIAN_POINT('',(-0.0149378666408201,-0.0125343583888875,-0.002));
#2006=CARTESIAN_POINT('',(-0.0160878666408201,-0.0125343583888875,-0.002));
#2007=CARTESIAN_POINT('',(-0.0183240061053252,-0.00666939279485056,-0.002));
#2008=CARTESIAN_POINT('',(-0.0194740061053252,-0.00666939279485056,-0.002));
#2009=CARTESIAN_POINT('',(-0.0195,2.38806125833734E-18,-0.002));
#2010=CARTESIAN_POINT('',(-0.02065,2.38806125833734E-18,-0.002));
#2011=CARTESIAN_POINT('',(0.017616493236769,-0.00711752527490222,-0.002));
#2012=CARTESIAN_POINT('',(0.016616493236769,-0.00711752527490222,-0.002));
#2013=CARTESIAN_POINT('',(0.0127134815208183,0.0141197516840705,-0.002));
#2014=CARTESIAN_POINT('',(0.0117134815208183,0.0141197516840705,-0.002));
#2015=CARTESIAN_POINT('',(-0.017616493236769,0.00711752527490234,-0.002));
#2016=CARTESIAN_POINT('',(-0.018616493236769,0.00711752527490234,-0.002));
#2017=CARTESIAN_POINT('',(-0.0111842488695371,0.00938469910142349,-0.002));
#2018=CARTESIAN_POINT('',(-0.0116842488695371,0.00938469910142349,-0.002));
#2019=CARTESIAN_POINT('',(0.0143781931939783,0.00253526339393709,-0.002));
#2020=CARTESIAN_POINT('',(0.0138781931939783,0.00253526339393709,-0.002));
#2021=CARTESIAN_POINT('',(-0.0135,0.0112,-0.002));
#2022=CARTESIAN_POINT('',(-0.01435,0.0112,-0.002));
#2023=CARTESIAN_POINT('',(2.16840434497101E-18,-0.019,-0.002));
#2024=CARTESIAN_POINT('',(-0.000549999999999986,-0.019,-0.002));
#2025=CARTESIAN_POINT('',(-0.0122129645840442,-0.0145548444192606,-0.002));
#2026=CARTESIAN_POINT('',(-0.0127629645840442,-0.0145548444192606,-0.002));
#2027=CARTESIAN_POINT('',(0.0122129645840442,-0.0145548444192606,-0.002));
#2028=CARTESIAN_POINT('',(0.0116629645840442,-0.0145548444192606,-0.002));
#2029=CARTESIAN_POINT('',(-0.018711347307232,-0.0032993153756717,-0.002));
#2030=CARTESIAN_POINT('',(-0.019261347307232,-0.0032993153756717,-0.002));
#2031=CARTESIAN_POINT('',(-0.00649838272318772,-0.0178541597949323,-0.002));
#2032=CARTESIAN_POINT('',(-0.00569838272318772,-0.0178541597949323,-0.002));
#2033=CARTESIAN_POINT('',(0.00649838272318759,0.0178541597949323,-0.002));
#2034=CARTESIAN_POINT('',(0.00729838272318759,0.0178541597949323,-0.002));
#2035=CARTESIAN_POINT('',(0.0172341356777136,0.0030388431091713,-0.002));
#2036=CARTESIAN_POINT('',(0.0179841356777136,0.0030388431091713,-0.002));
#2037=CARTESIAN_POINT('',(-0.0067008745932094,0.0190051374314463,-0.002));
#2038=CARTESIAN_POINT('',(-0.0067008745932094,0.0190051374314463,-0.002));
#2039=CARTESIAN_POINT('',(-0.00587132289312409,0.0180700738096079,-0.002));
#2040=CARTESIAN_POINT('',(-0.00574981807691425,0.0193141544258212,-0.002));
#2041=CARTESIAN_POINT('',(-0.00574981807691425,0.0193141544258212,-0.002));
#2042=CARTESIAN_POINT('',(0.,0.,0.));
#2043=CARTESIAN_POINT('',(0.0049,0.,0.));
#2044=CARTESIAN_POINT('',(0.00419260204081633,-0.00024917489308269,0.));
#2045=CARTESIAN_POINT('',(0.00419260204081633,0.00024917489308269,0.));
#2046=CARTESIAN_POINT('',(0.,0.,0.));
#2047=CARTESIAN_POINT('',(0.0172341356777136,0.0030388431091713,0.));
#2048=CARTESIAN_POINT('',(0.0181341356777136,0.0030388431091713,0.));
#2049=CARTESIAN_POINT('',(0.00649838272318759,0.0178541597949323,-2.14313189850787E-20));
#2050=CARTESIAN_POINT('',(0.00729838272318759,0.0178541597949323,-2.14313189850787E-20));
#2051=CARTESIAN_POINT('',(-0.00649838272318772,-0.0178541597949323,-2.14313189850787E-20));
#2052=CARTESIAN_POINT('',(-0.00569838272318772,-0.0178541597949323,-2.14313189850787E-20));
#2053=CARTESIAN_POINT('',(-0.018711347307232,-0.0032993153756717,0.));
#2054=CARTESIAN_POINT('',(-0.018161347307232,-0.0032993153756717,0.));
#2055=CARTESIAN_POINT('',(0.0122129645840442,-0.0145548444192606,0.));
#2056=CARTESIAN_POINT('',(0.0127629645840442,-0.0145548444192606,0.));
#2057=CARTESIAN_POINT('',(-0.0122129645840442,-0.0145548444192606,0.));
#2058=CARTESIAN_POINT('',(-0.0116629645840442,-0.0145548444192606,0.));
#2059=CARTESIAN_POINT('',(2.16840434497101E-18,-0.019,0.));
#2060=CARTESIAN_POINT('',(0.000549999999999995,-0.019,0.));
#2061=CARTESIAN_POINT('',(-0.0135,0.0112,0.));
#2062=CARTESIAN_POINT('',(-0.01265,0.0112,0.));
#2063=CARTESIAN_POINT('',(0.0143781931939783,0.00253526339393709,0.));
#2064=CARTESIAN_POINT('',(0.0148781931939783,0.00253526339393709,0.));
#2065=CARTESIAN_POINT('',(-0.0111842488695371,0.00938469910142349,0.));
#2066=CARTESIAN_POINT('',(-0.0106842488695371,0.00938469910142349,0.));
#2067=CARTESIAN_POINT('',(-0.017616493236769,0.00711752527490234,0.));
#2068=CARTESIAN_POINT('',(-0.016616493236769,0.00711752527490234,0.));
#2069=CARTESIAN_POINT('',(0.0127134815208183,0.0141197516840705,0.));
#2070=CARTESIAN_POINT('',(0.0137134815208183,0.0141197516840705,0.));
#2071=CARTESIAN_POINT('',(0.017616493236769,-0.00711752527490222,0.));
#2072=CARTESIAN_POINT('',(0.018616493236769,-0.00711752527490222,0.));
#2073=CARTESIAN_POINT('',(-0.0195,2.38806125833734E-18,0.));
#2074=CARTESIAN_POINT('',(-0.01835,2.38806125833734E-18,0.));
#2075=CARTESIAN_POINT('',(-0.0183240061053252,-0.00666939279485056,0.));
#2076=CARTESIAN_POINT('',(-0.0171740061053252,-0.00666939279485056,0.));
#2077=CARTESIAN_POINT('',(-0.0149378666408201,-0.0125343583888875,0.));
#2078=CARTESIAN_POINT('',(-0.0137878666408201,-0.0125343583888875,0.));
#2079=CARTESIAN_POINT('',(-0.00975,-0.0168874953737966,0.));
#2080=CARTESIAN_POINT('',(-0.0086,-0.0168874953737966,0.));
#2081=CARTESIAN_POINT('',(-0.00338613946450508,-0.0192037511837381,0.));
#2082=CARTESIAN_POINT('',(-0.00223613946450508,-0.0192037511837381,0.));
#2083=CARTESIAN_POINT('',(0.00338613946450522,-0.019203751183738,0.));
#2084=CARTESIAN_POINT('',(0.00453613946450522,-0.019203751183738,0.));
#2085=CARTESIAN_POINT('',(0.00975,-0.0168874953737965,0.));
#2086=CARTESIAN_POINT('',(0.0109,-0.0168874953737965,0.));
#2087=CARTESIAN_POINT('',(0.0149378666408201,-0.0125343583888875,0.));
#2088=CARTESIAN_POINT('',(0.0160878666408201,-0.0125343583888875,0.));
#2089=CARTESIAN_POINT('',(-0.0116913429510899,0.00675,0.));
#2090=CARTESIAN_POINT('',(-0.0106913429510899,0.00675,0.));
#2091=CARTESIAN_POINT('',(-0.00867763273076834,0.0103415999821062,0.));
#2092=CARTESIAN_POINT('',(-0.00767763273076834,0.0103415999821062,0.));
#2093=CARTESIAN_POINT('',(-0.00461727193489649,0.0126858503806098,0.));
#2094=CARTESIAN_POINT('',(-0.00361727193489649,0.0126858503806098,0.));
#2095=CARTESIAN_POINT('',(0.00461727193489648,0.0126858503806098,0.));
#2096=CARTESIAN_POINT('',(0.00561727193489648,0.0126858503806098,0.));
#2097=CARTESIAN_POINT('',(0.,0.0135,0.));
#2098=CARTESIAN_POINT('',(0.001,0.0135,0.));
#2099=CARTESIAN_POINT('',(0.00867763273076825,0.0103415999821062,0.));
#2100=CARTESIAN_POINT('',(0.00967763273076825,0.0103415999821062,0.));
#2101=CARTESIAN_POINT('',(-0.0126858503806098,-0.00461727193489654,0.));
#2102=CARTESIAN_POINT('',(-0.0116858503806098,-0.00461727193489654,0.));
#2103=CARTESIAN_POINT('',(-0.0103415999821062,-0.0086776327307683,0.));
#2104=CARTESIAN_POINT('',(-0.0093415999821062,-0.0086776327307683,0.));
#2105=CARTESIAN_POINT('',(-0.00675,-0.0116913429510899,0.));
#2106=CARTESIAN_POINT('',(-0.00575,-0.0116913429510899,0.));
#2107=CARTESIAN_POINT('',(0.00234425039850361,-0.0132949046656648,0.));
#2108=CARTESIAN_POINT('',(0.00334425039850361,-0.0132949046656648,0.));
#2109=CARTESIAN_POINT('',(0.00675,-0.0116913429510899,0.));
#2110=CARTESIAN_POINT('',(0.00775,-0.0116913429510899,0.));
#2111=CARTESIAN_POINT('',(0.0103415999821062,-0.0086776327307683,0.));
#2112=CARTESIAN_POINT('',(0.0113415999821062,-0.0086776327307683,0.));
#2113=CARTESIAN_POINT('',(0.0126858503806098,-0.00461727193489654,0.));
#2114=CARTESIAN_POINT('',(0.0136858503806098,-0.00461727193489654,0.));
#2115=CARTESIAN_POINT('',(0.0135,0.,0.));
#2116=CARTESIAN_POINT('',(0.0145,0.,0.));
#2117=CARTESIAN_POINT('',(0.0126858503806098,0.00461727193489653,0.));
#2118=CARTESIAN_POINT('',(0.0136858503806098,0.00461727193489653,0.));
#2119=CARTESIAN_POINT('',(-0.0135,0.,0.));
#2120=CARTESIAN_POINT('',(-0.0125,0.,0.));
#2121=CARTESIAN_POINT('',(-0.00234425039850352,-0.0132949046656648,0.));
#2122=CARTESIAN_POINT('',(-0.00134425039850352,-0.0132949046656648,0.));
#2123=CARTESIAN_POINT('',(-0.0026,0.0175,0.));
#2124=CARTESIAN_POINT('',(-0.0026,0.019,0.));
#2125=CARTESIAN_POINT('',(-0.0026,0.016,0.));
#2126=CARTESIAN_POINT('',(-0.0026,0.019,0.));
#2127=CARTESIAN_POINT('',(0.0034,0.019,0.));
#2128=CARTESIAN_POINT('',(0.0034,0.0175,0.));
#2129=CARTESIAN_POINT('',(0.0034,0.016,0.));
#2130=CARTESIAN_POINT('',(-0.0026,0.016,0.));
#2131=CARTESIAN_POINT('',(-0.00587132289312409,0.0180700738096079,0.));
#2132=CARTESIAN_POINT('',(-0.0067008745932094,0.0190051374314463,0.));
#2133=CARTESIAN_POINT('',(-0.00574981807691425,0.0193141544258212,0.));
#2134=CARTESIAN_POINT('',(-0.000475528258147515,-0.000154508497187458,0.));
#2135=CARTESIAN_POINT('',(0.000475528258147583,0.000154508497187478,0.));
#2136=CARTESIAN_POINT('',(-0.00587132289312409,0.0180700738096079,-0.002));
#2137=CARTESIAN_POINT('',(-0.0067008745932094,0.0190051374314463,-0.002));
#2138=CARTESIAN_POINT('',(-0.00574981807691425,0.0193141544258212,-0.002));
#2139=CARTESIAN_POINT('',(0.,0.,-0.0067));
#2140=CARTESIAN_POINT('',(-0.0214,-0.00275,-0.0067));
#2141=CARTESIAN_POINT('',(0.00173205080756888,-0.00275,-0.0067));
#2142=CARTESIAN_POINT('',(0.00588960949469487,-0.00275,-0.0067));
#2143=CARTESIAN_POINT('',(0.,0.,-0.0067));
#2144=CARTESIAN_POINT('',(-0.00588960949469487,-0.00275,-0.0067));
#2145=CARTESIAN_POINT('',(-0.0214,-0.00275,-0.0067));
#2146=CARTESIAN_POINT('',(-0.00173205080756888,-0.00275,-0.0067));
#2147=CARTESIAN_POINT('',(0.,0.,-0.0067));
#2148=CARTESIAN_POINT('',(0.,0.,0.0223137084989848));
#2149=CARTESIAN_POINT('',(0.,0.,0.0043));
#2150=CARTESIAN_POINT('',(0.004,0.,0.0043));
#2151=CARTESIAN_POINT('',(0.,0.,0.00165));
#2152=CARTESIAN_POINT('',(0.004,0.,0.00165));
#2153=CARTESIAN_POINT('',(0.,0.,0.0223137084989848));
#2154=CARTESIAN_POINT('',(0.,0.,0.0002));
#2155=CARTESIAN_POINT('',(0.00399295432458698,0.000237309421983515,0.0002));
#2156=CARTESIAN_POINT('',(0.00399295432458698,-0.000237309421983515,0.0002));
#2157=CARTESIAN_POINT('',(0.00399295432458698,-0.000237309421983515,0.0002));
#2158=CARTESIAN_POINT('',(0.00400234888930823,-7.92370305977533E-5,0.000199999999999998));
#2159=CARTESIAN_POINT('',(0.00400236145177423,7.90256552864653E-5,0.000199999999999998));
#2160=CARTESIAN_POINT('',(0.00399295432458698,0.000237309421983515,0.0002));
#2161=CARTESIAN_POINT('',(0.,0.,0.0008));
#2162=CARTESIAN_POINT('',(0.004,0.,0.0008));
#2163=CARTESIAN_POINT('',(0.,0.,-0.0067));
#2164=CARTESIAN_POINT('',(0.,0.,-0.003));
#2165=CARTESIAN_POINT('',(0.0065,0.,-0.003));
#2166=CARTESIAN_POINT('',(0.,0.,-0.0062));
#2167=CARTESIAN_POINT('',(-0.00588960949469487,0.00275,-0.0062));
#2168=CARTESIAN_POINT('',(-0.00588960949469487,-0.00275,-0.0062));
#2169=CARTESIAN_POINT('',(-0.00588960949469487,-0.00275,-0.0067));
#2170=CARTESIAN_POINT('',(0.00588960949469487,-0.00275,-0.0067));
#2171=CARTESIAN_POINT('',(0.00588960949469487,-0.00275,-0.0062));
#2172=CARTESIAN_POINT('',(0.,0.,-0.0062));
#2173=CARTESIAN_POINT('',(0.00588960949469487,0.00275,-0.0062));
#2174=CARTESIAN_POINT('',(0.00588960949469487,0.00275,-0.0067));
#2175=CARTESIAN_POINT('',(0.00588960949469487,0.00275,-0.0067));
#2176=CARTESIAN_POINT('',(0.,0.,-0.0067));
#2177=CARTESIAN_POINT('',(-0.00588960949469487,0.00275,-0.0067));
#2178=CARTESIAN_POINT('',(-0.00588960949469487,0.00275,-0.0067));
#2179=CARTESIAN_POINT('',(0.,0.,-0.0067));
#2180=CARTESIAN_POINT('',(-0.0214,0.00275,-0.0067));
#2181=CARTESIAN_POINT('',(-0.00173205080756888,0.00275,-0.0067));
#2182=CARTESIAN_POINT('',(-0.0214,0.00275,-0.0067));
#2183=CARTESIAN_POINT('',(0.00173205080756888,0.00275,-0.0067));
#2184=CARTESIAN_POINT('',(0.,0.,-0.0067));
#2185=CARTESIAN_POINT('',(0.,0.,0.0045));
#2186=CARTESIAN_POINT('',(0.,0.,0.0045));
#2187=CARTESIAN_POINT('',(0.0038,0.,0.0045));
#2188=CARTESIAN_POINT('',(0.,0.,0.0045));
#2189=CARTESIAN_POINT('',(0.0015,0.,0.0045));
#2190=CARTESIAN_POINT('',(0.,0.,-0.0015));
#2191=CARTESIAN_POINT('',(0.,0.,-0.0015));
#2192=CARTESIAN_POINT('',(-0.00325,0.,-0.0015));
#2193=CARTESIAN_POINT('',(0.,0.,-0.0062));
#2194=CARTESIAN_POINT('',(0.00173205080756888,0.00275,-0.0062));
#2195=CARTESIAN_POINT('',(0.00173205080756888,-0.00275,-0.0062));
#2196=CARTESIAN_POINT('',(0.00173205080756888,-0.00275,-0.0015));
#2197=CARTESIAN_POINT('',(-0.00173205080756888,-0.00275,-0.0015));
#2198=CARTESIAN_POINT('',(-0.00173205080756888,-0.00275,-0.0062));
#2199=CARTESIAN_POINT('',(0.,0.,-0.0062));
#2200=CARTESIAN_POINT('',(-0.00173205080756888,0.00275,-0.0062));
#2201=CARTESIAN_POINT('',(-0.00173205080756888,0.00275,-0.0015));
#2202=CARTESIAN_POINT('',(0.00173205080756888,0.00275,-0.0015));
#2203=CARTESIAN_POINT('',(0.,0.,-0.0015));
#2204=CARTESIAN_POINT('',(0.,0.,-0.0015));
#2205=CARTESIAN_POINT('',(-0.0015,0.,-0.0015));
#2206=CARTESIAN_POINT('',(0.,0.,-0.006701));
#2207=CARTESIAN_POINT('',(0.,0.004,0.00165));
#2208=CARTESIAN_POINT('',(0.,0.,0.00165));
#2209=CARTESIAN_POINT('',(0.003,0.,0.00165));
#2210=CARTESIAN_POINT('',(0.,0.,0.0045));
#2211=CARTESIAN_POINT('',(0.,0.,0.0008));
#2212=CARTESIAN_POINT('',(0.003,0.,0.0008));
#2213=CARTESIAN_POINT('',(0.,0.004,0.0008));
#2214=CARTESIAN_POINT('',(-0.0214,0.00275,-0.0067));
#2215=CARTESIAN_POINT('',(-0.0214,0.00275,-0.0062));
#2216=CARTESIAN_POINT('',(-0.0214,0.00275,-0.0062));
#2217=CARTESIAN_POINT('',(-0.0214,-0.00275,-0.0062));
#2218=CARTESIAN_POINT('',(-0.0214,-0.00275,-0.0067));
#2219=CARTESIAN_POINT('',(-0.0214,-0.00275,-0.0067));
#2220=CARTESIAN_POINT('',(-0.0214,-0.00275,-0.0062));
#2221=CARTESIAN_POINT('',(-0.0214,0.00275,-0.0062));
#2222=CARTESIAN_POINT('',(0.0049,0.,-0.0062));
#2223=CARTESIAN_POINT('',(0.004,0.,-0.0062));
#2224=CARTESIAN_POINT('',(-0.0214,0.00275,-0.0062));
#2225=CARTESIAN_POINT('',(-0.0214,0.00275,-0.0067));
#2226=CARTESIAN_POINT('',(-0.0026,0.0175,-0.0007));
#2227=CARTESIAN_POINT('',(-0.0026,0.016,-0.0007));
#2228=CARTESIAN_POINT('',(-0.0026,0.016,-0.0007));
#2229=CARTESIAN_POINT('',(-0.0026,0.0175,-0.0007));
#2230=CARTESIAN_POINT('',(-0.0026,0.019,-0.0007));
#2231=CARTESIAN_POINT('',(-0.0026,0.019,-0.0007));
#2232=CARTESIAN_POINT('',(-0.0026,0.019,-0.0007));
#2233=CARTESIAN_POINT('',(-0.0026,0.019,-0.0007));
#2234=CARTESIAN_POINT('',(0.0034,0.019,-0.0007));
#2235=CARTESIAN_POINT('',(0.0034,0.019,-0.0007));
#2236=CARTESIAN_POINT('',(0.0034,0.0175,-0.0007));
#2237=CARTESIAN_POINT('',(0.0034,0.0175,-0.0007));
#2238=CARTESIAN_POINT('',(0.0034,0.016,-0.0007));
#2239=CARTESIAN_POINT('',(0.0034,0.016,-0.0007));
#2240=CARTESIAN_POINT('',(-0.0026,0.016,-0.0007));
#2241=CARTESIAN_POINT('',(-0.0026,0.016,-0.0007));
#2242=CARTESIAN_POINT('',(-0.0026,0.0175,-0.0007));
#2243=CARTESIAN_POINT('',(-0.00234425039850352,-0.0132949046656648,-0.002));
#2244=CARTESIAN_POINT('',(-0.0135,0.,-0.002));
#2245=CARTESIAN_POINT('',(0.0126858503806098,0.00461727193489653,-0.002));
#2246=CARTESIAN_POINT('',(0.0135,0.,-0.002));
#2247=CARTESIAN_POINT('',(0.0126858503806098,-0.00461727193489654,-0.002));
#2248=CARTESIAN_POINT('',(0.0103415999821062,-0.0086776327307683,-0.002));
#2249=CARTESIAN_POINT('',(0.00675,-0.0116913429510899,-0.002));
#2250=CARTESIAN_POINT('',(0.00234425039850361,-0.0132949046656648,-0.002));
#2251=CARTESIAN_POINT('',(-0.00675,-0.0116913429510899,-0.002));
#2252=CARTESIAN_POINT('',(-0.0103415999821062,-0.0086776327307683,-0.002));
#2253=CARTESIAN_POINT('',(-0.0126858503806098,-0.00461727193489654,-0.002));
#2254=CARTESIAN_POINT('',(0.00867763273076825,0.0103415999821062,-0.002));
#2255=CARTESIAN_POINT('',(0.,0.0135,-0.002));
#2256=CARTESIAN_POINT('',(0.00461727193489648,0.0126858503806098,-0.002));
#2257=CARTESIAN_POINT('',(-0.00461727193489649,0.0126858503806098,-0.002));
#2258=CARTESIAN_POINT('',(-0.00867763273076834,0.0103415999821062,-0.002));
#2259=CARTESIAN_POINT('',(-0.0116913429510899,0.00675,-0.002));
#2260=CARTESIAN_POINT('',(0.,0.,-0.003));
#2261=CARTESIAN_POINT('',(0.0149378666408201,-0.0125343583888875,-0.002));
#2262=CARTESIAN_POINT('',(0.00975,-0.0168874953737965,-0.002));
#2263=CARTESIAN_POINT('',(0.00338613946450522,-0.019203751183738,-0.002));
#2264=CARTESIAN_POINT('',(-0.00338613946450508,-0.0192037511837381,-0.002));
#2265=CARTESIAN_POINT('',(-0.00975,-0.0168874953737966,-0.002));
#2266=CARTESIAN_POINT('',(-0.0149378666408201,-0.0125343583888875,-0.002));
#2267=CARTESIAN_POINT('',(-0.0183240061053252,-0.00666939279485056,-0.002));
#2268=CARTESIAN_POINT('',(-0.0195,2.38806125833734E-18,-0.002));
#2269=CARTESIAN_POINT('',(0.017616493236769,-0.00711752527490222,-0.002));
#2270=CARTESIAN_POINT('',(0.0127134815208183,0.0141197516840705,-0.002));
#2271=CARTESIAN_POINT('',(-0.017616493236769,0.00711752527490234,-0.002));
#2272=CARTESIAN_POINT('',(-0.0111842488695371,0.00938469910142349,-0.002));
#2273=CARTESIAN_POINT('',(0.0143781931939783,0.00253526339393709,-0.002));
#2274=CARTESIAN_POINT('',(-0.0135,0.0112,-0.002));
#2275=CARTESIAN_POINT('',(2.16840434497101E-18,-0.019,-0.002));
#2276=CARTESIAN_POINT('',(-0.0122129645840442,-0.0145548444192606,-0.002));
#2277=CARTESIAN_POINT('',(0.0122129645840442,-0.0145548444192606,-0.002));
#2278=CARTESIAN_POINT('',(-0.018711347307232,-0.0032993153756717,-0.002));
#2279=CARTESIAN_POINT('',(-0.00649838272318772,-0.0178541597949323,0.));
#2280=CARTESIAN_POINT('',(0.00649838272318759,0.0178541597949323,0.));
#2281=CARTESIAN_POINT('',(0.0172341356777136,0.0030388431091713,0.));
#2282=CARTESIAN_POINT('',(0.0172341356777136,0.0030388431091713,-0.0005));
#2283=CARTESIAN_POINT('',(0.0179841356777136,0.0030388431091713,-0.0005));
#2284=CARTESIAN_POINT('',(0.0179841356777136,0.0030388431091713,-0.0005));
#2285=CARTESIAN_POINT('',(0.0172341356777136,0.0030388431091713,-0.0005));
#2286=CARTESIAN_POINT('',(0.0181341356777136,0.0030388431091713,-0.0005));
#2287=CARTESIAN_POINT('',(0.0172341356777136,0.0030388431091713,0.));
#2288=CARTESIAN_POINT('',(0.0049,0.,-0.0062));
#2289=CARTESIAN_POINT('',(0.0049,0.,0.));
#2290=CARTESIAN_POINT('',(0.0049,0.,-0.005));
#2291=CARTESIAN_POINT('',(0.00415,0.,-0.005));
#2292=CARTESIAN_POINT('',(0.00565,0.,-0.005));
#2293=CARTESIAN_POINT('',(0.0049,0.,-0.005));
#2294=CARTESIAN_POINT('',(0.004,0.,-0.005));
#2295=CARTESIAN_POINT('',(0.0049,0.,-0.0062));
#2296=CARTESIAN_POINT('',(-0.00574981807691425,0.0193141544258212,0.0045));
#2297=CARTESIAN_POINT('',(-0.0067008745932094,0.0190051374314463,0.0045));
#2298=CARTESIAN_POINT('',(0.,0.,0.0002));
#2299=CARTESIAN_POINT('',(0.00419260204081633,0.000249174893082691,0.0002));
#2300=CARTESIAN_POINT('',(0.00419260204081633,-0.000249174893082691,0.0002));
#2301=CARTESIAN_POINT('',(0.00399295432458698,-0.000237309421983514,0.000199999999999999));
#2302=CARTESIAN_POINT('',(0.00399295432458698,-0.000237309421983516,2.54787510534094E-18));
#2303=CARTESIAN_POINT('',(0.00419260204081632,-0.000249174893082692,0.));
#2304=CARTESIAN_POINT('',(0.00400232069171901,-7.97114815692504E-5,0.000199999573188332));
#2305=CARTESIAN_POINT('',(0.00399982580515416,-0.000121691869896841,5.15910741824747E-5));
#2306=CARTESIAN_POINT('',(0.00414183293928841,-0.000105044034116108,-8.1740562404977E-20));
#2307=CARTESIAN_POINT('',(0.00400235531741602,7.91288716353813E-5,0.000199999575594463));
#2308=CARTESIAN_POINT('',(0.00399984792048589,0.000121319776201934,5.17571246745017E-5));
#2309=CARTESIAN_POINT('',(0.00414164525154613,0.000104511216772927,1.14013187083779E-19));
#2310=CARTESIAN_POINT('',(0.00399295432458698,0.000237309421983515,0.000199999999999999));
#2311=CARTESIAN_POINT('',(0.00399295432458698,0.000237309421983516,2.54787510534094E-18));
#2312=CARTESIAN_POINT('',(0.00419260204081632,0.000249174893082692,0.));
#2313=CARTESIAN_POINT('',(0.,0.,0.0045));
#2314=(
GEOMETRIC_REPRESENTATION_CONTEXT(3)
GLOBAL_UNCERTAINTY_ASSIGNED_CONTEXT((#2315))
GLOBAL_UNIT_ASSIGNED_CONTEXT((#2318,#2317,#2316))
REPRESENTATION_CONTEXT('id2','TOP_LEVEL_ASSEMBLY_PART')
);
#2315=UNCERTAINTY_MEASURE_WITH_UNIT(LENGTH_MEASURE(2.E-5),#2318,
'DISTANCE_ACCURACY_VALUE','Maximum Tolerance applied to model');
#2316=(
NAMED_UNIT(*)
SI_UNIT($,.STERADIAN.)
SOLID_ANGLE_UNIT()
);
#2317=(
NAMED_UNIT(*)
PLANE_ANGLE_UNIT()
SI_UNIT($,.RADIAN.)
);
#2318=(
LENGTH_UNIT()
NAMED_UNIT(*)
SI_UNIT($,.METRE.)
);
#2319=PRODUCT_DEFINITION_SHAPE('','',#2320);
#2320=PRODUCT_DEFINITION('','',#2322,#2321);
#2321=DESIGN_CONTEXT('',#2328,'design');
#2322=PRODUCT_DEFINITION_FORMATION_WITH_SPECIFIED_SOURCE('','',#2324,
 .NOT_KNOWN.);
#2323=PRODUCT_RELATED_PRODUCT_CATEGORY('','',(#2324));
#2324=PRODUCT('id2','id2','id2',(#2326));
#2325=PRODUCT_CATEGORY('','');
#2326=MECHANICAL_CONTEXT('',#2328,'mechanical');
#2327=APPLICATION_PROTOCOL_DEFINITION('international standard',
'config_control_design',2010,#2328);
#2328=APPLICATION_CONTEXT(
'configuration controlled 3D designs of mechanical parts and assemblie
s');
ENDSEC;
END-ISO-10303-21;
