ISO-10303-21;
HEADER;
/* Generated by software containing ST-Developer
 * from STEP Tools, Inc. (www.steptools.com) 
 */
/* OPTION: using custom renumber hook */

FILE_DESCRIPTION(
/* description */ ('STEP AP203'),
/* implementation_level */ '2;1');

FILE_NAME(
/* name */ '6a546477b91097225593a0a1',
/* time_stamp */ '2026-07-13T04:07:19Z',
/* author */ (''),
/* organization */ (''),
/* preprocessor_version */ 'ST-DEVELOPER v20',
/* originating_system */ 'ONSHAPE BY PTC INC, 1.217',
/* authorisation */ '  ');

FILE_SCHEMA (('CONFIG_CONTROL_DESIGN'));
ENDSEC;

DATA;
#10=PROPERTY_DEFINITION_REPRESENTATION(#14,#12);
#11=PROPERTY_DEFINITION_REPRESENTATION(#15,#13);
#12=REPRESENTATION('',(#16),#1812);
#13=REPRESENTATION('',(#17),#1812);
#14=PROPERTY_DEFINITION('pmi validation property','',#1817);
#15=PROPERTY_DEFINITION('pmi validation property','',#1817);
#16=VALUE_REPRESENTATION_ITEM('number of annotations',COUNT_MEASURE(0.));
#17=VALUE_REPRESENTATION_ITEM('number of views',COUNT_MEASURE(0.));
#18=SHAPE_REPRESENTATION_RELATIONSHIP('','',#1071,#19);
#19=ADVANCED_BREP_SHAPE_REPRESENTATION('',(#1069),#1812);
#20=CYLINDRICAL_SURFACE('',#1127,0.0005);
#21=CYLINDRICAL_SURFACE('',#1128,0.0121);
#22=CYLINDRICAL_SURFACE('',#1129,0.0121);
#23=CYLINDRICAL_SURFACE('',#1130,0.0121);
#24=CYLINDRICAL_SURFACE('',#1131,0.0121);
#25=CYLINDRICAL_SURFACE('',#1132,0.0121);
#26=CYLINDRICAL_SURFACE('',#1133,0.0121);
#27=CYLINDRICAL_SURFACE('',#1134,0.0121);
#28=CYLINDRICAL_SURFACE('',#1135,0.0121);
#29=CYLINDRICAL_SURFACE('',#1136,0.0121);
#30=CYLINDRICAL_SURFACE('',#1137,0.0072);
#31=CYLINDRICAL_SURFACE('',#1139,0.0092);
#32=CYLINDRICAL_SURFACE('',#1141,0.0093);
#33=CYLINDRICAL_SURFACE('',#1143,0.0092);
#34=CYLINDRICAL_SURFACE('',#1145,0.0072);
#35=CYLINDRICAL_SURFACE('',#1152,0.0005);
#36=CYLINDRICAL_SURFACE('',#1155,0.0005);
#37=CYLINDRICAL_SURFACE('',#1158,0.0005);
#38=CYLINDRICAL_SURFACE('',#1161,0.0005);
#39=CYLINDRICAL_SURFACE('',#1164,0.0005);
#40=CYLINDRICAL_SURFACE('',#1167,0.0005);
#41=CYLINDRICAL_SURFACE('',#1170,0.0005);
#42=CYLINDRICAL_SURFACE('',#1173,0.0005);
#43=CYLINDRICAL_SURFACE('',#1176,0.0109);
#44=CYLINDRICAL_SURFACE('',#1177,0.001);
#45=CYLINDRICAL_SURFACE('',#1178,0.0109);
#46=CIRCLE('',#1074,0.0109);
#47=CIRCLE('',#1075,0.0005);
#48=CIRCLE('',#1076,0.0121);
#49=CIRCLE('',#1077,0.0005);
#50=CIRCLE('',#1078,0.0121);
#51=CIRCLE('',#1079,0.0005);
#52=CIRCLE('',#1080,0.0121);
#53=CIRCLE('',#1081,0.0005);
#54=CIRCLE('',#1082,0.0121);
#55=CIRCLE('',#1083,0.0005);
#56=CIRCLE('',#1084,0.0121);
#57=CIRCLE('',#1085,0.0005);
#58=CIRCLE('',#1086,0.0121);
#59=CIRCLE('',#1087,0.0005);
#60=CIRCLE('',#1088,0.0121);
#61=CIRCLE('',#1089,0.0005);
#62=CIRCLE('',#1090,0.0121);
#63=CIRCLE('',#1091,0.0005);
#64=CIRCLE('',#1092,0.0121);
#65=CIRCLE('',#1093,0.0109);
#66=CIRCLE('',#1094,0.001);
#67=CIRCLE('',#1095,0.0072);
#68=CIRCLE('',#1096,0.0092);
#69=CIRCLE('',#1097,0.0093);
#70=CIRCLE('',#1098,0.0092);
#71=CIRCLE('',#1099,0.0072);
#72=CIRCLE('',#1101,0.0109);
#73=CIRCLE('',#1102,0.0072);
#74=CIRCLE('',#1103,0.0092);
#75=CIRCLE('',#1104,0.0093);
#76=CIRCLE('',#1105,0.0092);
#77=CIRCLE('',#1106,0.0072);
#78=CIRCLE('',#1107,0.001);
#79=CIRCLE('',#1108,0.0109);
#80=CIRCLE('',#1109,0.0121);
#81=CIRCLE('',#1110,0.0005);
#82=CIRCLE('',#1111,0.0121);
#83=CIRCLE('',#1112,0.0005);
#84=CIRCLE('',#1113,0.0121);
#85=CIRCLE('',#1114,0.0005);
#86=CIRCLE('',#1115,0.0121);
#87=CIRCLE('',#1116,0.0005);
#88=CIRCLE('',#1117,0.0121);
#89=CIRCLE('',#1118,0.0005);
#90=CIRCLE('',#1119,0.0121);
#91=CIRCLE('',#1120,0.0005);
#92=CIRCLE('',#1121,0.0121);
#93=CIRCLE('',#1122,0.0005);
#94=CIRCLE('',#1123,0.0121);
#95=CIRCLE('',#1124,0.0005);
#96=CIRCLE('',#1125,0.0121);
#97=CIRCLE('',#1126,0.0005);
#98=ORIENTED_EDGE('',*,*,#410,.T.);
#99=ORIENTED_EDGE('',*,*,#411,.F.);
#100=ORIENTED_EDGE('',*,*,#412,.F.);
#101=ORIENTED_EDGE('',*,*,#413,.F.);
#102=ORIENTED_EDGE('',*,*,#414,.T.);
#103=ORIENTED_EDGE('',*,*,#415,.F.);
#104=ORIENTED_EDGE('',*,*,#416,.F.);
#105=ORIENTED_EDGE('',*,*,#417,.F.);
#106=ORIENTED_EDGE('',*,*,#418,.T.);
#107=ORIENTED_EDGE('',*,*,#419,.F.);
#108=ORIENTED_EDGE('',*,*,#420,.F.);
#109=ORIENTED_EDGE('',*,*,#421,.F.);
#110=ORIENTED_EDGE('',*,*,#422,.T.);
#111=ORIENTED_EDGE('',*,*,#423,.F.);
#112=ORIENTED_EDGE('',*,*,#424,.F.);
#113=ORIENTED_EDGE('',*,*,#425,.F.);
#114=ORIENTED_EDGE('',*,*,#426,.T.);
#115=ORIENTED_EDGE('',*,*,#427,.F.);
#116=ORIENTED_EDGE('',*,*,#428,.F.);
#117=ORIENTED_EDGE('',*,*,#429,.F.);
#118=ORIENTED_EDGE('',*,*,#430,.T.);
#119=ORIENTED_EDGE('',*,*,#431,.F.);
#120=ORIENTED_EDGE('',*,*,#432,.F.);
#121=ORIENTED_EDGE('',*,*,#433,.F.);
#122=ORIENTED_EDGE('',*,*,#434,.T.);
#123=ORIENTED_EDGE('',*,*,#435,.F.);
#124=ORIENTED_EDGE('',*,*,#436,.F.);
#125=ORIENTED_EDGE('',*,*,#437,.F.);
#126=ORIENTED_EDGE('',*,*,#438,.T.);
#127=ORIENTED_EDGE('',*,*,#439,.F.);
#128=ORIENTED_EDGE('',*,*,#440,.F.);
#129=ORIENTED_EDGE('',*,*,#441,.F.);
#130=ORIENTED_EDGE('',*,*,#442,.T.);
#131=ORIENTED_EDGE('',*,*,#443,.F.);
#132=ORIENTED_EDGE('',*,*,#444,.F.);
#133=ORIENTED_EDGE('',*,*,#445,.F.);
#134=ORIENTED_EDGE('',*,*,#446,.T.);
#135=ORIENTED_EDGE('',*,*,#447,.F.);
#136=ORIENTED_EDGE('',*,*,#448,.F.);
#137=ORIENTED_EDGE('',*,*,#449,.T.);
#138=ORIENTED_EDGE('',*,*,#450,.T.);
#139=ORIENTED_EDGE('',*,*,#451,.T.);
#140=ORIENTED_EDGE('',*,*,#452,.T.);
#141=ORIENTED_EDGE('',*,*,#453,.T.);
#142=ORIENTED_EDGE('',*,*,#454,.T.);
#143=ORIENTED_EDGE('',*,*,#455,.T.);
#144=ORIENTED_EDGE('',*,*,#456,.T.);
#145=ORIENTED_EDGE('',*,*,#457,.T.);
#146=ORIENTED_EDGE('',*,*,#458,.T.);
#147=ORIENTED_EDGE('',*,*,#459,.T.);
#148=ORIENTED_EDGE('',*,*,#460,.T.);
#149=ORIENTED_EDGE('',*,*,#461,.T.);
#150=ORIENTED_EDGE('',*,*,#462,.T.);
#151=ORIENTED_EDGE('',*,*,#463,.F.);
#152=ORIENTED_EDGE('',*,*,#464,.F.);
#153=ORIENTED_EDGE('',*,*,#465,.F.);
#154=ORIENTED_EDGE('',*,*,#466,.F.);
#155=ORIENTED_EDGE('',*,*,#467,.F.);
#156=ORIENTED_EDGE('',*,*,#468,.F.);
#157=ORIENTED_EDGE('',*,*,#469,.F.);
#158=ORIENTED_EDGE('',*,*,#470,.F.);
#159=ORIENTED_EDGE('',*,*,#471,.F.);
#160=ORIENTED_EDGE('',*,*,#472,.F.);
#161=ORIENTED_EDGE('',*,*,#473,.F.);
#162=ORIENTED_EDGE('',*,*,#474,.F.);
#163=ORIENTED_EDGE('',*,*,#475,.F.);
#164=ORIENTED_EDGE('',*,*,#476,.T.);
#165=ORIENTED_EDGE('',*,*,#477,.T.);
#166=ORIENTED_EDGE('',*,*,#478,.T.);
#167=ORIENTED_EDGE('',*,*,#479,.F.);
#168=ORIENTED_EDGE('',*,*,#480,.T.);
#169=ORIENTED_EDGE('',*,*,#481,.T.);
#170=ORIENTED_EDGE('',*,*,#482,.T.);
#171=ORIENTED_EDGE('',*,*,#483,.F.);
#172=ORIENTED_EDGE('',*,*,#484,.T.);
#173=ORIENTED_EDGE('',*,*,#485,.T.);
#174=ORIENTED_EDGE('',*,*,#486,.T.);
#175=ORIENTED_EDGE('',*,*,#487,.F.);
#176=ORIENTED_EDGE('',*,*,#488,.T.);
#177=ORIENTED_EDGE('',*,*,#489,.T.);
#178=ORIENTED_EDGE('',*,*,#490,.T.);
#179=ORIENTED_EDGE('',*,*,#491,.F.);
#180=ORIENTED_EDGE('',*,*,#492,.T.);
#181=ORIENTED_EDGE('',*,*,#493,.T.);
#182=ORIENTED_EDGE('',*,*,#494,.T.);
#183=ORIENTED_EDGE('',*,*,#495,.F.);
#184=ORIENTED_EDGE('',*,*,#496,.T.);
#185=ORIENTED_EDGE('',*,*,#497,.T.);
#186=ORIENTED_EDGE('',*,*,#498,.T.);
#187=ORIENTED_EDGE('',*,*,#499,.F.);
#188=ORIENTED_EDGE('',*,*,#500,.T.);
#189=ORIENTED_EDGE('',*,*,#501,.T.);
#190=ORIENTED_EDGE('',*,*,#502,.T.);
#191=ORIENTED_EDGE('',*,*,#503,.F.);
#192=ORIENTED_EDGE('',*,*,#504,.T.);
#193=ORIENTED_EDGE('',*,*,#505,.T.);
#194=ORIENTED_EDGE('',*,*,#506,.T.);
#195=ORIENTED_EDGE('',*,*,#507,.F.);
#196=ORIENTED_EDGE('',*,*,#508,.T.);
#197=ORIENTED_EDGE('',*,*,#509,.T.);
#198=ORIENTED_EDGE('',*,*,#510,.T.);
#199=ORIENTED_EDGE('',*,*,#511,.F.);
#200=ORIENTED_EDGE('',*,*,#512,.T.);
#201=ORIENTED_EDGE('',*,*,#513,.T.);
#202=ORIENTED_EDGE('',*,*,#514,.F.);
#203=ORIENTED_EDGE('',*,*,#513,.F.);
#204=ORIENTED_EDGE('',*,*,#515,.T.);
#205=ORIENTED_EDGE('',*,*,#412,.T.);
#206=ORIENTED_EDGE('',*,*,#479,.T.);
#207=ORIENTED_EDGE('',*,*,#516,.T.);
#208=ORIENTED_EDGE('',*,*,#446,.F.);
#209=ORIENTED_EDGE('',*,*,#517,.F.);
#210=ORIENTED_EDGE('',*,*,#483,.T.);
#211=ORIENTED_EDGE('',*,*,#518,.T.);
#212=ORIENTED_EDGE('',*,*,#442,.F.);
#213=ORIENTED_EDGE('',*,*,#519,.F.);
#214=ORIENTED_EDGE('',*,*,#487,.T.);
#215=ORIENTED_EDGE('',*,*,#520,.T.);
#216=ORIENTED_EDGE('',*,*,#438,.F.);
#217=ORIENTED_EDGE('',*,*,#521,.F.);
#218=ORIENTED_EDGE('',*,*,#491,.T.);
#219=ORIENTED_EDGE('',*,*,#522,.T.);
#220=ORIENTED_EDGE('',*,*,#434,.F.);
#221=ORIENTED_EDGE('',*,*,#523,.F.);
#222=ORIENTED_EDGE('',*,*,#495,.T.);
#223=ORIENTED_EDGE('',*,*,#524,.T.);
#224=ORIENTED_EDGE('',*,*,#430,.F.);
#225=ORIENTED_EDGE('',*,*,#525,.F.);
#226=ORIENTED_EDGE('',*,*,#499,.T.);
#227=ORIENTED_EDGE('',*,*,#526,.T.);
#228=ORIENTED_EDGE('',*,*,#426,.F.);
#229=ORIENTED_EDGE('',*,*,#527,.F.);
#230=ORIENTED_EDGE('',*,*,#503,.T.);
#231=ORIENTED_EDGE('',*,*,#528,.T.);
#232=ORIENTED_EDGE('',*,*,#422,.F.);
#233=ORIENTED_EDGE('',*,*,#529,.F.);
#234=ORIENTED_EDGE('',*,*,#507,.T.);
#235=ORIENTED_EDGE('',*,*,#530,.T.);
#236=ORIENTED_EDGE('',*,*,#418,.F.);
#237=ORIENTED_EDGE('',*,*,#531,.F.);
#238=ORIENTED_EDGE('',*,*,#511,.T.);
#239=ORIENTED_EDGE('',*,*,#532,.T.);
#240=ORIENTED_EDGE('',*,*,#414,.F.);
#241=ORIENTED_EDGE('',*,*,#533,.F.);
#242=ORIENTED_EDGE('',*,*,#473,.T.);
#243=ORIENTED_EDGE('',*,*,#534,.F.);
#244=ORIENTED_EDGE('',*,*,#452,.F.);
#245=ORIENTED_EDGE('',*,*,#535,.T.);
#246=ORIENTED_EDGE('',*,*,#472,.T.);
#247=ORIENTED_EDGE('',*,*,#536,.F.);
#248=ORIENTED_EDGE('',*,*,#453,.F.);
#249=ORIENTED_EDGE('',*,*,#534,.T.);
#250=ORIENTED_EDGE('',*,*,#471,.T.);
#251=ORIENTED_EDGE('',*,*,#537,.F.);
#252=ORIENTED_EDGE('',*,*,#454,.F.);
#253=ORIENTED_EDGE('',*,*,#536,.T.);
#254=ORIENTED_EDGE('',*,*,#470,.T.);
#255=ORIENTED_EDGE('',*,*,#538,.F.);
#256=ORIENTED_EDGE('',*,*,#455,.F.);
#257=ORIENTED_EDGE('',*,*,#537,.T.);
#258=ORIENTED_EDGE('',*,*,#469,.T.);
#259=ORIENTED_EDGE('',*,*,#539,.F.);
#260=ORIENTED_EDGE('',*,*,#456,.F.);
#261=ORIENTED_EDGE('',*,*,#538,.T.);
#262=ORIENTED_EDGE('',*,*,#468,.T.);
#263=ORIENTED_EDGE('',*,*,#540,.F.);
#264=ORIENTED_EDGE('',*,*,#457,.F.);
#265=ORIENTED_EDGE('',*,*,#539,.T.);
#266=ORIENTED_EDGE('',*,*,#467,.T.);
#267=ORIENTED_EDGE('',*,*,#541,.F.);
#268=ORIENTED_EDGE('',*,*,#458,.F.);
#269=ORIENTED_EDGE('',*,*,#540,.T.);
#270=ORIENTED_EDGE('',*,*,#466,.T.);
#271=ORIENTED_EDGE('',*,*,#542,.F.);
#272=ORIENTED_EDGE('',*,*,#459,.F.);
#273=ORIENTED_EDGE('',*,*,#541,.T.);
#274=ORIENTED_EDGE('',*,*,#465,.T.);
#275=ORIENTED_EDGE('',*,*,#543,.F.);
#276=ORIENTED_EDGE('',*,*,#460,.F.);
#277=ORIENTED_EDGE('',*,*,#542,.T.);
#278=ORIENTED_EDGE('',*,*,#464,.T.);
#279=ORIENTED_EDGE('',*,*,#544,.F.);
#280=ORIENTED_EDGE('',*,*,#461,.F.);
#281=ORIENTED_EDGE('',*,*,#543,.T.);
#282=ORIENTED_EDGE('',*,*,#463,.T.);
#283=ORIENTED_EDGE('',*,*,#545,.T.);
#284=ORIENTED_EDGE('',*,*,#410,.F.);
#285=ORIENTED_EDGE('',*,*,#544,.T.);
#286=ORIENTED_EDGE('',*,*,#450,.F.);
#287=ORIENTED_EDGE('',*,*,#546,.T.);
#288=ORIENTED_EDGE('',*,*,#475,.T.);
#289=ORIENTED_EDGE('',*,*,#547,.F.);
#290=ORIENTED_EDGE('',*,*,#474,.T.);
#291=ORIENTED_EDGE('',*,*,#535,.F.);
#292=ORIENTED_EDGE('',*,*,#451,.F.);
#293=ORIENTED_EDGE('',*,*,#547,.T.);
#294=ORIENTED_EDGE('',*,*,#533,.T.);
#295=ORIENTED_EDGE('',*,*,#413,.T.);
#296=ORIENTED_EDGE('',*,*,#515,.F.);
#297=ORIENTED_EDGE('',*,*,#512,.F.);
#298=ORIENTED_EDGE('',*,*,#548,.T.);
#299=ORIENTED_EDGE('',*,*,#415,.T.);
#300=ORIENTED_EDGE('',*,*,#532,.F.);
#301=ORIENTED_EDGE('',*,*,#510,.F.);
#302=ORIENTED_EDGE('',*,*,#549,.T.);
#303=ORIENTED_EDGE('',*,*,#416,.T.);
#304=ORIENTED_EDGE('',*,*,#548,.F.);
#305=ORIENTED_EDGE('',*,*,#509,.F.);
#306=ORIENTED_EDGE('',*,*,#531,.T.);
#307=ORIENTED_EDGE('',*,*,#417,.T.);
#308=ORIENTED_EDGE('',*,*,#549,.F.);
#309=ORIENTED_EDGE('',*,*,#508,.F.);
#310=ORIENTED_EDGE('',*,*,#550,.T.);
#311=ORIENTED_EDGE('',*,*,#419,.T.);
#312=ORIENTED_EDGE('',*,*,#530,.F.);
#313=ORIENTED_EDGE('',*,*,#506,.F.);
#314=ORIENTED_EDGE('',*,*,#551,.T.);
#315=ORIENTED_EDGE('',*,*,#420,.T.);
#316=ORIENTED_EDGE('',*,*,#550,.F.);
#317=ORIENTED_EDGE('',*,*,#505,.F.);
#318=ORIENTED_EDGE('',*,*,#529,.T.);
#319=ORIENTED_EDGE('',*,*,#421,.T.);
#320=ORIENTED_EDGE('',*,*,#551,.F.);
#321=ORIENTED_EDGE('',*,*,#504,.F.);
#322=ORIENTED_EDGE('',*,*,#552,.T.);
#323=ORIENTED_EDGE('',*,*,#423,.T.);
#324=ORIENTED_EDGE('',*,*,#528,.F.);
#325=ORIENTED_EDGE('',*,*,#502,.F.);
#326=ORIENTED_EDGE('',*,*,#553,.T.);
#327=ORIENTED_EDGE('',*,*,#424,.T.);
#328=ORIENTED_EDGE('',*,*,#552,.F.);
#329=ORIENTED_EDGE('',*,*,#501,.F.);
#330=ORIENTED_EDGE('',*,*,#527,.T.);
#331=ORIENTED_EDGE('',*,*,#425,.T.);
#332=ORIENTED_EDGE('',*,*,#553,.F.);
#333=ORIENTED_EDGE('',*,*,#500,.F.);
#334=ORIENTED_EDGE('',*,*,#554,.T.);
#335=ORIENTED_EDGE('',*,*,#427,.T.);
#336=ORIENTED_EDGE('',*,*,#526,.F.);
#337=ORIENTED_EDGE('',*,*,#498,.F.);
#338=ORIENTED_EDGE('',*,*,#555,.T.);
#339=ORIENTED_EDGE('',*,*,#428,.T.);
#340=ORIENTED_EDGE('',*,*,#554,.F.);
#341=ORIENTED_EDGE('',*,*,#497,.F.);
#342=ORIENTED_EDGE('',*,*,#525,.T.);
#343=ORIENTED_EDGE('',*,*,#429,.T.);
#344=ORIENTED_EDGE('',*,*,#555,.F.);
#345=ORIENTED_EDGE('',*,*,#496,.F.);
#346=ORIENTED_EDGE('',*,*,#556,.T.);
#347=ORIENTED_EDGE('',*,*,#431,.T.);
#348=ORIENTED_EDGE('',*,*,#524,.F.);
#349=ORIENTED_EDGE('',*,*,#494,.F.);
#350=ORIENTED_EDGE('',*,*,#557,.T.);
#351=ORIENTED_EDGE('',*,*,#432,.T.);
#352=ORIENTED_EDGE('',*,*,#556,.F.);
#353=ORIENTED_EDGE('',*,*,#493,.F.);
#354=ORIENTED_EDGE('',*,*,#523,.T.);
#355=ORIENTED_EDGE('',*,*,#433,.T.);
#356=ORIENTED_EDGE('',*,*,#557,.F.);
#357=ORIENTED_EDGE('',*,*,#492,.F.);
#358=ORIENTED_EDGE('',*,*,#558,.T.);
#359=ORIENTED_EDGE('',*,*,#435,.T.);
#360=ORIENTED_EDGE('',*,*,#522,.F.);
#361=ORIENTED_EDGE('',*,*,#490,.F.);
#362=ORIENTED_EDGE('',*,*,#559,.T.);
#363=ORIENTED_EDGE('',*,*,#436,.T.);
#364=ORIENTED_EDGE('',*,*,#558,.F.);
#365=ORIENTED_EDGE('',*,*,#489,.F.);
#366=ORIENTED_EDGE('',*,*,#521,.T.);
#367=ORIENTED_EDGE('',*,*,#437,.T.);
#368=ORIENTED_EDGE('',*,*,#559,.F.);
#369=ORIENTED_EDGE('',*,*,#488,.F.);
#370=ORIENTED_EDGE('',*,*,#560,.T.);
#371=ORIENTED_EDGE('',*,*,#439,.T.);
#372=ORIENTED_EDGE('',*,*,#520,.F.);
#373=ORIENTED_EDGE('',*,*,#486,.F.);
#374=ORIENTED_EDGE('',*,*,#561,.T.);
#375=ORIENTED_EDGE('',*,*,#440,.T.);
#376=ORIENTED_EDGE('',*,*,#560,.F.);
#377=ORIENTED_EDGE('',*,*,#485,.F.);
#378=ORIENTED_EDGE('',*,*,#519,.T.);
#379=ORIENTED_EDGE('',*,*,#441,.T.);
#380=ORIENTED_EDGE('',*,*,#561,.F.);
#381=ORIENTED_EDGE('',*,*,#484,.F.);
#382=ORIENTED_EDGE('',*,*,#562,.T.);
#383=ORIENTED_EDGE('',*,*,#443,.T.);
#384=ORIENTED_EDGE('',*,*,#518,.F.);
#385=ORIENTED_EDGE('',*,*,#482,.F.);
#386=ORIENTED_EDGE('',*,*,#563,.T.);
#387=ORIENTED_EDGE('',*,*,#444,.T.);
#388=ORIENTED_EDGE('',*,*,#562,.F.);
#389=ORIENTED_EDGE('',*,*,#481,.F.);
#390=ORIENTED_EDGE('',*,*,#517,.T.);
#391=ORIENTED_EDGE('',*,*,#445,.T.);
#392=ORIENTED_EDGE('',*,*,#563,.F.);
#393=ORIENTED_EDGE('',*,*,#480,.F.);
#394=ORIENTED_EDGE('',*,*,#478,.F.);
#395=ORIENTED_EDGE('',*,*,#564,.T.);
#396=ORIENTED_EDGE('',*,*,#447,.T.);
#397=ORIENTED_EDGE('',*,*,#516,.F.);
#398=ORIENTED_EDGE('',*,*,#477,.F.);
#399=ORIENTED_EDGE('',*,*,#565,.T.);
#400=ORIENTED_EDGE('',*,*,#448,.T.);
#401=ORIENTED_EDGE('',*,*,#564,.F.);
#402=ORIENTED_EDGE('',*,*,#476,.F.);
#403=ORIENTED_EDGE('',*,*,#546,.F.);
#404=ORIENTED_EDGE('',*,*,#449,.F.);
#405=ORIENTED_EDGE('',*,*,#565,.F.);
#406=ORIENTED_EDGE('',*,*,#514,.T.);
#407=ORIENTED_EDGE('',*,*,#411,.T.);
#408=ORIENTED_EDGE('',*,*,#545,.F.);
#409=ORIENTED_EDGE('',*,*,#462,.F.);
#410=EDGE_CURVE('',#566,#567,#670,.T.);
#411=EDGE_CURVE('',#568,#567,#46,.T.);
#412=EDGE_CURVE('',#569,#568,#47,.T.);
#413=EDGE_CURVE('',#570,#569,#671,.T.);
#414=EDGE_CURVE('',#570,#571,#48,.T.);
#415=EDGE_CURVE('',#572,#571,#672,.T.);
#416=EDGE_CURVE('',#573,#572,#49,.T.);
#417=EDGE_CURVE('',#574,#573,#673,.T.);
#418=EDGE_CURVE('',#574,#575,#50,.T.);
#419=EDGE_CURVE('',#576,#575,#674,.T.);
#420=EDGE_CURVE('',#577,#576,#51,.T.);
#421=EDGE_CURVE('',#578,#577,#675,.T.);
#422=EDGE_CURVE('',#578,#579,#52,.T.);
#423=EDGE_CURVE('',#580,#579,#676,.T.);
#424=EDGE_CURVE('',#581,#580,#53,.T.);
#425=EDGE_CURVE('',#582,#581,#677,.T.);
#426=EDGE_CURVE('',#582,#583,#54,.T.);
#427=EDGE_CURVE('',#584,#583,#678,.T.);
#428=EDGE_CURVE('',#585,#584,#55,.T.);
#429=EDGE_CURVE('',#586,#585,#679,.T.);
#430=EDGE_CURVE('',#586,#587,#56,.T.);
#431=EDGE_CURVE('',#588,#587,#680,.T.);
#432=EDGE_CURVE('',#589,#588,#57,.T.);
#433=EDGE_CURVE('',#590,#589,#681,.T.);
#434=EDGE_CURVE('',#590,#591,#58,.T.);
#435=EDGE_CURVE('',#592,#591,#682,.T.);
#436=EDGE_CURVE('',#593,#592,#59,.T.);
#437=EDGE_CURVE('',#594,#593,#683,.T.);
#438=EDGE_CURVE('',#594,#595,#60,.T.);
#439=EDGE_CURVE('',#596,#595,#684,.T.);
#440=EDGE_CURVE('',#597,#596,#61,.T.);
#441=EDGE_CURVE('',#598,#597,#685,.T.);
#442=EDGE_CURVE('',#598,#599,#62,.T.);
#443=EDGE_CURVE('',#600,#599,#686,.T.);
#444=EDGE_CURVE('',#601,#600,#63,.T.);
#445=EDGE_CURVE('',#602,#601,#687,.T.);
#446=EDGE_CURVE('',#602,#603,#64,.T.);
#447=EDGE_CURVE('',#604,#603,#688,.T.);
#448=EDGE_CURVE('',#605,#604,#65,.T.);
#449=EDGE_CURVE('',#605,#606,#66,.F.);
#450=EDGE_CURVE('',#606,#607,#689,.T.);
#451=EDGE_CURVE('',#607,#608,#690,.T.);
#452=EDGE_CURVE('',#608,#609,#67,.T.);
#453=EDGE_CURVE('',#609,#610,#691,.T.);
#454=EDGE_CURVE('',#610,#611,#68,.T.);
#455=EDGE_CURVE('',#611,#612,#692,.T.);
#456=EDGE_CURVE('',#612,#613,#69,.T.);
#457=EDGE_CURVE('',#613,#614,#693,.T.);
#458=EDGE_CURVE('',#614,#615,#70,.T.);
#459=EDGE_CURVE('',#615,#616,#694,.T.);
#460=EDGE_CURVE('',#616,#617,#71,.T.);
#461=EDGE_CURVE('',#617,#566,#695,.T.);
#462=EDGE_CURVE('',#618,#619,#72,.T.);
#463=EDGE_CURVE('',#620,#619,#696,.T.);
#464=EDGE_CURVE('',#621,#620,#697,.T.);
#465=EDGE_CURVE('',#622,#621,#73,.T.);
#466=EDGE_CURVE('',#623,#622,#698,.T.);
#467=EDGE_CURVE('',#624,#623,#74,.T.);
#468=EDGE_CURVE('',#625,#624,#699,.T.);
#469=EDGE_CURVE('',#626,#625,#75,.T.);
#470=EDGE_CURVE('',#627,#626,#700,.T.);
#471=EDGE_CURVE('',#628,#627,#76,.T.);
#472=EDGE_CURVE('',#629,#628,#701,.T.);
#473=EDGE_CURVE('',#630,#629,#77,.T.);
#474=EDGE_CURVE('',#631,#630,#702,.T.);
#475=EDGE_CURVE('',#632,#631,#703,.T.);
#476=EDGE_CURVE('',#632,#633,#78,.T.);
#477=EDGE_CURVE('',#633,#634,#79,.T.);
#478=EDGE_CURVE('',#634,#635,#704,.T.);
#479=EDGE_CURVE('',#636,#635,#80,.T.);
#480=EDGE_CURVE('',#636,#637,#705,.T.);
#481=EDGE_CURVE('',#637,#638,#81,.F.);
#482=EDGE_CURVE('',#638,#639,#706,.T.);
#483=EDGE_CURVE('',#640,#639,#82,.T.);
#484=EDGE_CURVE('',#640,#641,#707,.T.);
#485=EDGE_CURVE('',#641,#642,#83,.F.);
#486=EDGE_CURVE('',#642,#643,#708,.T.);
#487=EDGE_CURVE('',#644,#643,#84,.T.);
#488=EDGE_CURVE('',#644,#645,#709,.T.);
#489=EDGE_CURVE('',#645,#646,#85,.F.);
#490=EDGE_CURVE('',#646,#647,#710,.T.);
#491=EDGE_CURVE('',#648,#647,#86,.T.);
#492=EDGE_CURVE('',#648,#649,#711,.T.);
#493=EDGE_CURVE('',#649,#650,#87,.F.);
#494=EDGE_CURVE('',#650,#651,#712,.T.);
#495=EDGE_CURVE('',#652,#651,#88,.T.);
#496=EDGE_CURVE('',#652,#653,#713,.T.);
#497=EDGE_CURVE('',#653,#654,#89,.F.);
#498=EDGE_CURVE('',#654,#655,#714,.T.);
#499=EDGE_CURVE('',#656,#655,#90,.T.);
#500=EDGE_CURVE('',#656,#657,#715,.T.);
#501=EDGE_CURVE('',#657,#658,#91,.F.);
#502=EDGE_CURVE('',#658,#659,#716,.T.);
#503=EDGE_CURVE('',#660,#659,#92,.T.);
#504=EDGE_CURVE('',#660,#661,#717,.T.);
#505=EDGE_CURVE('',#661,#662,#93,.F.);
#506=EDGE_CURVE('',#662,#663,#718,.T.);
#507=EDGE_CURVE('',#664,#663,#94,.T.);
#508=EDGE_CURVE('',#664,#665,#719,.T.);
#509=EDGE_CURVE('',#665,#666,#95,.F.);
#510=EDGE_CURVE('',#666,#667,#720,.T.);
#511=EDGE_CURVE('',#668,#667,#96,.T.);
#512=EDGE_CURVE('',#668,#669,#721,.T.);
#513=EDGE_CURVE('',#669,#618,#97,.F.);
#514=EDGE_CURVE('',#618,#568,#722,.T.);
#515=EDGE_CURVE('',#669,#569,#723,.T.);
#516=EDGE_CURVE('',#635,#603,#724,.T.);
#517=EDGE_CURVE('',#636,#602,#725,.T.);
#518=EDGE_CURVE('',#639,#599,#726,.T.);
#519=EDGE_CURVE('',#640,#598,#727,.T.);
#520=EDGE_CURVE('',#643,#595,#728,.T.);
#521=EDGE_CURVE('',#644,#594,#729,.T.);
#522=EDGE_CURVE('',#647,#591,#730,.T.);
#523=EDGE_CURVE('',#648,#590,#731,.T.);
#524=EDGE_CURVE('',#651,#587,#732,.T.);
#525=EDGE_CURVE('',#652,#586,#733,.T.);
#526=EDGE_CURVE('',#655,#583,#734,.T.);
#527=EDGE_CURVE('',#656,#582,#735,.T.);
#528=EDGE_CURVE('',#659,#579,#736,.T.);
#529=EDGE_CURVE('',#660,#578,#737,.T.);
#530=EDGE_CURVE('',#663,#575,#738,.T.);
#531=EDGE_CURVE('',#664,#574,#739,.T.);
#532=EDGE_CURVE('',#667,#571,#740,.T.);
#533=EDGE_CURVE('',#668,#570,#741,.T.);
#534=EDGE_CURVE('',#609,#629,#742,.T.);
#535=EDGE_CURVE('',#608,#630,#743,.T.);
#536=EDGE_CURVE('',#610,#628,#744,.T.);
#537=EDGE_CURVE('',#611,#627,#745,.T.);
#538=EDGE_CURVE('',#612,#626,#746,.T.);
#539=EDGE_CURVE('',#613,#625,#747,.T.);
#540=EDGE_CURVE('',#614,#624,#748,.T.);
#541=EDGE_CURVE('',#615,#623,#749,.T.);
#542=EDGE_CURVE('',#616,#622,#750,.T.);
#543=EDGE_CURVE('',#617,#621,#751,.T.);
#544=EDGE_CURVE('',#566,#620,#752,.T.);
#545=EDGE_CURVE('',#619,#567,#753,.T.);
#546=EDGE_CURVE('',#606,#632,#754,.F.);
#547=EDGE_CURVE('',#607,#631,#755,.T.);
#548=EDGE_CURVE('',#666,#572,#756,.T.);
#549=EDGE_CURVE('',#665,#573,#757,.T.);
#550=EDGE_CURVE('',#662,#576,#758,.T.);
#551=EDGE_CURVE('',#661,#577,#759,.T.);
#552=EDGE_CURVE('',#658,#580,#760,.T.);
#553=EDGE_CURVE('',#657,#581,#761,.T.);
#554=EDGE_CURVE('',#654,#584,#762,.T.);
#555=EDGE_CURVE('',#653,#585,#763,.T.);
#556=EDGE_CURVE('',#650,#588,#764,.T.);
#557=EDGE_CURVE('',#649,#589,#765,.T.);
#558=EDGE_CURVE('',#646,#592,#766,.T.);
#559=EDGE_CURVE('',#645,#593,#767,.T.);
#560=EDGE_CURVE('',#642,#596,#768,.T.);
#561=EDGE_CURVE('',#641,#597,#769,.T.);
#562=EDGE_CURVE('',#638,#600,#770,.T.);
#563=EDGE_CURVE('',#637,#601,#771,.T.);
#564=EDGE_CURVE('',#634,#604,#772,.T.);
#565=EDGE_CURVE('',#633,#605,#773,.T.);
#566=VERTEX_POINT('',#1500);
#567=VERTEX_POINT('',#1501);
#568=VERTEX_POINT('',#1503);
#569=VERTEX_POINT('',#1505);
#570=VERTEX_POINT('',#1507);
#571=VERTEX_POINT('',#1509);
#572=VERTEX_POINT('',#1511);
#573=VERTEX_POINT('',#1513);
#574=VERTEX_POINT('',#1515);
#575=VERTEX_POINT('',#1517);
#576=VERTEX_POINT('',#1519);
#577=VERTEX_POINT('',#1521);
#578=VERTEX_POINT('',#1523);
#579=VERTEX_POINT('',#1525);
#580=VERTEX_POINT('',#1527);
#581=VERTEX_POINT('',#1529);
#582=VERTEX_POINT('',#1531);
#583=VERTEX_POINT('',#1533);
#584=VERTEX_POINT('',#1535);
#585=VERTEX_POINT('',#1537);
#586=VERTEX_POINT('',#1539);
#587=VERTEX_POINT('',#1541);
#588=VERTEX_POINT('',#1543);
#589=VERTEX_POINT('',#1545);
#590=VERTEX_POINT('',#1547);
#591=VERTEX_POINT('',#1549);
#592=VERTEX_POINT('',#1551);
#593=VERTEX_POINT('',#1553);
#594=VERTEX_POINT('',#1555);
#595=VERTEX_POINT('',#1557);
#596=VERTEX_POINT('',#1559);
#597=VERTEX_POINT('',#1561);
#598=VERTEX_POINT('',#1563);
#599=VERTEX_POINT('',#1565);
#600=VERTEX_POINT('',#1567);
#601=VERTEX_POINT('',#1569);
#602=VERTEX_POINT('',#1571);
#603=VERTEX_POINT('',#1573);
#604=VERTEX_POINT('',#1575);
#605=VERTEX_POINT('',#1577);
#606=VERTEX_POINT('',#1579);
#607=VERTEX_POINT('',#1581);
#608=VERTEX_POINT('',#1583);
#609=VERTEX_POINT('',#1585);
#610=VERTEX_POINT('',#1587);
#611=VERTEX_POINT('',#1589);
#612=VERTEX_POINT('',#1591);
#613=VERTEX_POINT('',#1593);
#614=VERTEX_POINT('',#1595);
#615=VERTEX_POINT('',#1597);
#616=VERTEX_POINT('',#1599);
#617=VERTEX_POINT('',#1601);
#618=VERTEX_POINT('',#1605);
#619=VERTEX_POINT('',#1606);
#620=VERTEX_POINT('',#1608);
#621=VERTEX_POINT('',#1610);
#622=VERTEX_POINT('',#1612);
#623=VERTEX_POINT('',#1614);
#624=VERTEX_POINT('',#1616);
#625=VERTEX_POINT('',#1618);
#626=VERTEX_POINT('',#1620);
#627=VERTEX_POINT('',#1622);
#628=VERTEX_POINT('',#1624);
#629=VERTEX_POINT('',#1626);
#630=VERTEX_POINT('',#1628);
#631=VERTEX_POINT('',#1630);
#632=VERTEX_POINT('',#1632);
#633=VERTEX_POINT('',#1634);
#634=VERTEX_POINT('',#1636);
#635=VERTEX_POINT('',#1638);
#636=VERTEX_POINT('',#1640);
#637=VERTEX_POINT('',#1642);
#638=VERTEX_POINT('',#1644);
#639=VERTEX_POINT('',#1646);
#640=VERTEX_POINT('',#1648);
#641=VERTEX_POINT('',#1650);
#642=VERTEX_POINT('',#1652);
#643=VERTEX_POINT('',#1654);
#644=VERTEX_POINT('',#1656);
#645=VERTEX_POINT('',#1658);
#646=VERTEX_POINT('',#1660);
#647=VERTEX_POINT('',#1662);
#648=VERTEX_POINT('',#1664);
#649=VERTEX_POINT('',#1666);
#650=VERTEX_POINT('',#1668);
#651=VERTEX_POINT('',#1670);
#652=VERTEX_POINT('',#1672);
#653=VERTEX_POINT('',#1674);
#654=VERTEX_POINT('',#1676);
#655=VERTEX_POINT('',#1678);
#656=VERTEX_POINT('',#1680);
#657=VERTEX_POINT('',#1682);
#658=VERTEX_POINT('',#1684);
#659=VERTEX_POINT('',#1686);
#660=VERTEX_POINT('',#1688);
#661=VERTEX_POINT('',#1690);
#662=VERTEX_POINT('',#1692);
#663=VERTEX_POINT('',#1694);
#664=VERTEX_POINT('',#1696);
#665=VERTEX_POINT('',#1698);
#666=VERTEX_POINT('',#1700);
#667=VERTEX_POINT('',#1702);
#668=VERTEX_POINT('',#1704);
#669=VERTEX_POINT('',#1706);
#670=LINE('',#1499,#774);
#671=LINE('',#1506,#775);
#672=LINE('',#1510,#776);
#673=LINE('',#1514,#777);
#674=LINE('',#1518,#778);
#675=LINE('',#1522,#779);
#676=LINE('',#1526,#780);
#677=LINE('',#1530,#781);
#678=LINE('',#1534,#782);
#679=LINE('',#1538,#783);
#680=LINE('',#1542,#784);
#681=LINE('',#1546,#785);
#682=LINE('',#1550,#786);
#683=LINE('',#1554,#787);
#684=LINE('',#1558,#788);
#685=LINE('',#1562,#789);
#686=LINE('',#1566,#790);
#687=LINE('',#1570,#791);
#688=LINE('',#1574,#792);
#689=LINE('',#1580,#793);
#690=LINE('',#1582,#794);
#691=LINE('',#1586,#795);
#692=LINE('',#1590,#796);
#693=LINE('',#1594,#797);
#694=LINE('',#1598,#798);
#695=LINE('',#1602,#799);
#696=LINE('',#1607,#800);
#697=LINE('',#1609,#801);
#698=LINE('',#1613,#802);
#699=LINE('',#1617,#803);
#700=LINE('',#1621,#804);
#701=LINE('',#1625,#805);
#702=LINE('',#1629,#806);
#703=LINE('',#1631,#807);
#704=LINE('',#1637,#808);
#705=LINE('',#1641,#809);
#706=LINE('',#1645,#810);
#707=LINE('',#1649,#811);
#708=LINE('',#1653,#812);
#709=LINE('',#1657,#813);
#710=LINE('',#1661,#814);
#711=LINE('',#1665,#815);
#712=LINE('',#1669,#816);
#713=LINE('',#1673,#817);
#714=LINE('',#1677,#818);
#715=LINE('',#1681,#819);
#716=LINE('',#1685,#820);
#717=LINE('',#1689,#821);
#718=LINE('',#1693,#822);
#719=LINE('',#1697,#823);
#720=LINE('',#1701,#824);
#721=LINE('',#1705,#825);
#722=LINE('',#1709,#826);
#723=LINE('',#1710,#827);
#724=LINE('',#1712,#828);
#725=LINE('',#1713,#829);
#726=LINE('',#1715,#830);
#727=LINE('',#1716,#831);
#728=LINE('',#1718,#832);
#729=LINE('',#1719,#833);
#730=LINE('',#1721,#834);
#731=LINE('',#1722,#835);
#732=LINE('',#1724,#836);
#733=LINE('',#1725,#837);
#734=LINE('',#1727,#838);
#735=LINE('',#1728,#839);
#736=LINE('',#1730,#840);
#737=LINE('',#1731,#841);
#738=LINE('',#1733,#842);
#739=LINE('',#1734,#843);
#740=LINE('',#1736,#844);
#741=LINE('',#1737,#845);
#742=LINE('',#1739,#846);
#743=LINE('',#1740,#847);
#744=LINE('',#1742,#848);
#745=LINE('',#1744,#849);
#746=LINE('',#1746,#850);
#747=LINE('',#1748,#851);
#748=LINE('',#1750,#852);
#749=LINE('',#1752,#853);
#750=LINE('',#1754,#854);
#751=LINE('',#1756,#855);
#752=LINE('',#1758,#856);
#753=LINE('',#1760,#857);
#754=LINE('',#1762,#858);
#755=LINE('',#1763,#859);
#756=LINE('',#1767,#860);
#757=LINE('',#1769,#861);
#758=LINE('',#1772,#862);
#759=LINE('',#1774,#863);
#760=LINE('',#1777,#864);
#761=LINE('',#1779,#865);
#762=LINE('',#1782,#866);
#763=LINE('',#1784,#867);
#764=LINE('',#1787,#868);
#765=LINE('',#1789,#869);
#766=LINE('',#1792,#870);
#767=LINE('',#1794,#871);
#768=LINE('',#1797,#872);
#769=LINE('',#1799,#873);
#770=LINE('',#1802,#874);
#771=LINE('',#1804,#875);
#772=LINE('',#1807,#876);
#773=LINE('',#1809,#877);
#774=VECTOR('',#1183,1.);
#775=VECTOR('',#1188,1.);
#776=VECTOR('',#1191,1.);
#777=VECTOR('',#1194,1.);
#778=VECTOR('',#1197,1.);
#779=VECTOR('',#1200,1.);
#780=VECTOR('',#1203,1.);
#781=VECTOR('',#1206,1.);
#782=VECTOR('',#1209,1.);
#783=VECTOR('',#1212,1.);
#784=VECTOR('',#1215,1.);
#785=VECTOR('',#1218,1.);
#786=VECTOR('',#1221,1.);
#787=VECTOR('',#1224,1.);
#788=VECTOR('',#1227,1.);
#789=VECTOR('',#1230,1.);
#790=VECTOR('',#1233,1.);
#791=VECTOR('',#1236,1.);
#792=VECTOR('',#1239,1.);
#793=VECTOR('',#1244,1.);
#794=VECTOR('',#1245,1.);
#795=VECTOR('',#1248,1.);
#796=VECTOR('',#1251,1.);
#797=VECTOR('',#1254,1.);
#798=VECTOR('',#1257,1.);
#799=VECTOR('',#1260,1.);
#800=VECTOR('',#1265,1.);
#801=VECTOR('',#1266,1.);
#802=VECTOR('',#1269,1.);
#803=VECTOR('',#1272,1.);
#804=VECTOR('',#1275,1.);
#805=VECTOR('',#1278,1.);
#806=VECTOR('',#1281,1.);
#807=VECTOR('',#1282,1.);
#808=VECTOR('',#1287,1.);
#809=VECTOR('',#1290,1.);
#810=VECTOR('',#1293,1.);
#811=VECTOR('',#1296,1.);
#812=VECTOR('',#1299,1.);
#813=VECTOR('',#1302,1.);
#814=VECTOR('',#1305,1.);
#815=VECTOR('',#1308,1.);
#816=VECTOR('',#1311,1.);
#817=VECTOR('',#1314,1.);
#818=VECTOR('',#1317,1.);
#819=VECTOR('',#1320,1.);
#820=VECTOR('',#1323,1.);
#821=VECTOR('',#1326,1.);
#822=VECTOR('',#1329,1.);
#823=VECTOR('',#1332,1.);
#824=VECTOR('',#1335,1.);
#825=VECTOR('',#1338,1.);
#826=VECTOR('',#1343,1.);
#827=VECTOR('',#1344,1.);
#828=VECTOR('',#1347,1.);
#829=VECTOR('',#1348,1.);
#830=VECTOR('',#1351,1.);
#831=VECTOR('',#1352,1.);
#832=VECTOR('',#1355,1.);
#833=VECTOR('',#1356,1.);
#834=VECTOR('',#1359,1.);
#835=VECTOR('',#1360,1.);
#836=VECTOR('',#1363,1.);
#837=VECTOR('',#1364,1.);
#838=VECTOR('',#1367,1.);
#839=VECTOR('',#1368,1.);
#840=VECTOR('',#1371,1.);
#841=VECTOR('',#1372,1.);
#842=VECTOR('',#1375,1.);
#843=VECTOR('',#1376,1.);
#844=VECTOR('',#1379,1.);
#845=VECTOR('',#1380,1.);
#846=VECTOR('',#1383,1.);
#847=VECTOR('',#1384,1.);
#848=VECTOR('',#1387,1.);
#849=VECTOR('',#1390,1.);
#850=VECTOR('',#1393,1.);
#851=VECTOR('',#1396,1.);
#852=VECTOR('',#1399,1.);
#853=VECTOR('',#1402,1.);
#854=VECTOR('',#1405,1.);
#855=VECTOR('',#1408,1.);
#856=VECTOR('',#1411,1.);
#857=VECTOR('',#1414,1.);
#858=VECTOR('',#1417,1.);
#859=VECTOR('',#1418,1.);
#860=VECTOR('',#1425,1.);
#861=VECTOR('',#1428,1.);
#862=VECTOR('',#1433,1.);
#863=VECTOR('',#1436,1.);
#864=VECTOR('',#1441,1.);
#865=VECTOR('',#1444,1.);
#866=VECTOR('',#1449,1.);
#867=VECTOR('',#1452,1.);
#868=VECTOR('',#1457,1.);
#869=VECTOR('',#1460,1.);
#870=VECTOR('',#1465,1.);
#871=VECTOR('',#1468,1.);
#872=VECTOR('',#1473,1.);
#873=VECTOR('',#1476,1.);
#874=VECTOR('',#1481,1.);
#875=VECTOR('',#1484,1.);
#876=VECTOR('',#1489,1.);
#877=VECTOR('',#1492,1.);
#878=EDGE_LOOP('',(#98,#99,#100,#101,#102,#103,#104,#105,#106,#107,#108,
#109,#110,#111,#112,#113,#114,#115,#116,#117,#118,#119,#120,#121,#122,#123,
#124,#125,#126,#127,#128,#129,#130,#131,#132,#133,#134,#135,#136,#137,#138,
#139,#140,#141,#142,#143,#144,#145,#146,#147,#148,#149));
#879=EDGE_LOOP('',(#150,#151,#152,#153,#154,#155,#156,#157,#158,#159,#160,
#161,#162,#163,#164,#165,#166,#167,#168,#169,#170,#171,#172,#173,#174,#175,
#176,#177,#178,#179,#180,#181,#182,#183,#184,#185,#186,#187,#188,#189,#190,
#191,#192,#193,#194,#195,#196,#197,#198,#199,#200,#201));
#880=EDGE_LOOP('',(#202,#203,#204,#205));
#881=EDGE_LOOP('',(#206,#207,#208,#209));
#882=EDGE_LOOP('',(#210,#211,#212,#213));
#883=EDGE_LOOP('',(#214,#215,#216,#217));
#884=EDGE_LOOP('',(#218,#219,#220,#221));
#885=EDGE_LOOP('',(#222,#223,#224,#225));
#886=EDGE_LOOP('',(#226,#227,#228,#229));
#887=EDGE_LOOP('',(#230,#231,#232,#233));
#888=EDGE_LOOP('',(#234,#235,#236,#237));
#889=EDGE_LOOP('',(#238,#239,#240,#241));
#890=EDGE_LOOP('',(#242,#243,#244,#245));
#891=EDGE_LOOP('',(#246,#247,#248,#249));
#892=EDGE_LOOP('',(#250,#251,#252,#253));
#893=EDGE_LOOP('',(#254,#255,#256,#257));
#894=EDGE_LOOP('',(#258,#259,#260,#261));
#895=EDGE_LOOP('',(#262,#263,#264,#265));
#896=EDGE_LOOP('',(#266,#267,#268,#269));
#897=EDGE_LOOP('',(#270,#271,#272,#273));
#898=EDGE_LOOP('',(#274,#275,#276,#277));
#899=EDGE_LOOP('',(#278,#279,#280,#281));
#900=EDGE_LOOP('',(#282,#283,#284,#285));
#901=EDGE_LOOP('',(#286,#287,#288,#289));
#902=EDGE_LOOP('',(#290,#291,#292,#293));
#903=EDGE_LOOP('',(#294,#295,#296,#297));
#904=EDGE_LOOP('',(#298,#299,#300,#301));
#905=EDGE_LOOP('',(#302,#303,#304,#305));
#906=EDGE_LOOP('',(#306,#307,#308,#309));
#907=EDGE_LOOP('',(#310,#311,#312,#313));
#908=EDGE_LOOP('',(#314,#315,#316,#317));
#909=EDGE_LOOP('',(#318,#319,#320,#321));
#910=EDGE_LOOP('',(#322,#323,#324,#325));
#911=EDGE_LOOP('',(#326,#327,#328,#329));
#912=EDGE_LOOP('',(#330,#331,#332,#333));
#913=EDGE_LOOP('',(#334,#335,#336,#337));
#914=EDGE_LOOP('',(#338,#339,#340,#341));
#915=EDGE_LOOP('',(#342,#343,#344,#345));
#916=EDGE_LOOP('',(#346,#347,#348,#349));
#917=EDGE_LOOP('',(#350,#351,#352,#353));
#918=EDGE_LOOP('',(#354,#355,#356,#357));
#919=EDGE_LOOP('',(#358,#359,#360,#361));
#920=EDGE_LOOP('',(#362,#363,#364,#365));
#921=EDGE_LOOP('',(#366,#367,#368,#369));
#922=EDGE_LOOP('',(#370,#371,#372,#373));
#923=EDGE_LOOP('',(#374,#375,#376,#377));
#924=EDGE_LOOP('',(#378,#379,#380,#381));
#925=EDGE_LOOP('',(#382,#383,#384,#385));
#926=EDGE_LOOP('',(#386,#387,#388,#389));
#927=EDGE_LOOP('',(#390,#391,#392,#393));
#928=EDGE_LOOP('',(#394,#395,#396,#397));
#929=EDGE_LOOP('',(#398,#399,#400,#401));
#930=EDGE_LOOP('',(#402,#403,#404,#405));
#931=EDGE_LOOP('',(#406,#407,#408,#409));
#932=FACE_BOUND('',#878,.T.);
#933=FACE_BOUND('',#879,.T.);
#934=FACE_BOUND('',#880,.T.);
#935=FACE_BOUND('',#881,.T.);
#936=FACE_BOUND('',#882,.T.);
#937=FACE_BOUND('',#883,.T.);
#938=FACE_BOUND('',#884,.T.);
#939=FACE_BOUND('',#885,.T.);
#940=FACE_BOUND('',#886,.T.);
#941=FACE_BOUND('',#887,.T.);
#942=FACE_BOUND('',#888,.T.);
#943=FACE_BOUND('',#889,.T.);
#944=FACE_BOUND('',#890,.T.);
#945=FACE_BOUND('',#891,.T.);
#946=FACE_BOUND('',#892,.T.);
#947=FACE_BOUND('',#893,.T.);
#948=FACE_BOUND('',#894,.T.);
#949=FACE_BOUND('',#895,.T.);
#950=FACE_BOUND('',#896,.T.);
#951=FACE_BOUND('',#897,.T.);
#952=FACE_BOUND('',#898,.T.);
#953=FACE_BOUND('',#899,.T.);
#954=FACE_BOUND('',#900,.T.);
#955=FACE_BOUND('',#901,.T.);
#956=FACE_BOUND('',#902,.T.);
#957=FACE_BOUND('',#903,.T.);
#958=FACE_BOUND('',#904,.T.);
#959=FACE_BOUND('',#905,.T.);
#960=FACE_BOUND('',#906,.T.);
#961=FACE_BOUND('',#907,.T.);
#962=FACE_BOUND('',#908,.T.);
#963=FACE_BOUND('',#909,.T.);
#964=FACE_BOUND('',#910,.T.);
#965=FACE_BOUND('',#911,.T.);
#966=FACE_BOUND('',#912,.T.);
#967=FACE_BOUND('',#913,.T.);
#968=FACE_BOUND('',#914,.T.);
#969=FACE_BOUND('',#915,.T.);
#970=FACE_BOUND('',#916,.T.);
#971=FACE_BOUND('',#917,.T.);
#972=FACE_BOUND('',#918,.T.);
#973=FACE_BOUND('',#919,.T.);
#974=FACE_BOUND('',#920,.T.);
#975=FACE_BOUND('',#921,.T.);
#976=FACE_BOUND('',#922,.T.);
#977=FACE_BOUND('',#923,.T.);
#978=FACE_BOUND('',#924,.T.);
#979=FACE_BOUND('',#925,.T.);
#980=FACE_BOUND('',#926,.T.);
#981=FACE_BOUND('',#927,.T.);
#982=FACE_BOUND('',#928,.T.);
#983=FACE_BOUND('',#929,.T.);
#984=FACE_BOUND('',#930,.T.);
#985=FACE_BOUND('',#931,.T.);
#986=PLANE('',#1073);
#987=PLANE('',#1100);
#988=PLANE('',#1138);
#989=PLANE('',#1140);
#990=PLANE('',#1142);
#991=PLANE('',#1144);
#992=PLANE('',#1146);
#993=PLANE('',#1147);
#994=PLANE('',#1148);
#995=PLANE('',#1149);
#996=PLANE('',#1150);
#997=PLANE('',#1151);
#998=PLANE('',#1153);
#999=PLANE('',#1154);
#1000=PLANE('',#1156);
#1001=PLANE('',#1157);
#1002=PLANE('',#1159);
#1003=PLANE('',#1160);
#1004=PLANE('',#1162);
#1005=PLANE('',#1163);
#1006=PLANE('',#1165);
#1007=PLANE('',#1166);
#1008=PLANE('',#1168);
#1009=PLANE('',#1169);
#1010=PLANE('',#1171);
#1011=PLANE('',#1172);
#1012=PLANE('',#1174);
#1013=PLANE('',#1175);
#1014=ADVANCED_FACE('',(#932),#986,.F.);
#1015=ADVANCED_FACE('',(#933),#987,.T.);
#1016=ADVANCED_FACE('',(#934),#20,.F.);
#1017=ADVANCED_FACE('',(#935),#21,.T.);
#1018=ADVANCED_FACE('',(#936),#22,.T.);
#1019=ADVANCED_FACE('',(#937),#23,.T.);
#1020=ADVANCED_FACE('',(#938),#24,.T.);
#1021=ADVANCED_FACE('',(#939),#25,.T.);
#1022=ADVANCED_FACE('',(#940),#26,.T.);
#1023=ADVANCED_FACE('',(#941),#27,.T.);
#1024=ADVANCED_FACE('',(#942),#28,.T.);
#1025=ADVANCED_FACE('',(#943),#29,.T.);
#1026=ADVANCED_FACE('',(#944),#30,.F.);
#1027=ADVANCED_FACE('',(#945),#988,.F.);
#1028=ADVANCED_FACE('',(#946),#31,.F.);
#1029=ADVANCED_FACE('',(#947),#989,.F.);
#1030=ADVANCED_FACE('',(#948),#32,.F.);
#1031=ADVANCED_FACE('',(#949),#990,.F.);
#1032=ADVANCED_FACE('',(#950),#33,.F.);
#1033=ADVANCED_FACE('',(#951),#991,.F.);
#1034=ADVANCED_FACE('',(#952),#34,.F.);
#1035=ADVANCED_FACE('',(#953),#992,.F.);
#1036=ADVANCED_FACE('',(#954),#993,.F.);
#1037=ADVANCED_FACE('',(#955),#994,.F.);
#1038=ADVANCED_FACE('',(#956),#995,.F.);
#1039=ADVANCED_FACE('',(#957),#996,.F.);
#1040=ADVANCED_FACE('',(#958),#997,.F.);
#1041=ADVANCED_FACE('',(#959),#35,.F.);
#1042=ADVANCED_FACE('',(#960),#998,.F.);
#1043=ADVANCED_FACE('',(#961),#999,.F.);
#1044=ADVANCED_FACE('',(#962),#36,.F.);
#1045=ADVANCED_FACE('',(#963),#1000,.F.);
#1046=ADVANCED_FACE('',(#964),#1001,.F.);
#1047=ADVANCED_FACE('',(#965),#37,.F.);
#1048=ADVANCED_FACE('',(#966),#1002,.F.);
#1049=ADVANCED_FACE('',(#967),#1003,.F.);
#1050=ADVANCED_FACE('',(#968),#38,.F.);
#1051=ADVANCED_FACE('',(#969),#1004,.F.);
#1052=ADVANCED_FACE('',(#970),#1005,.F.);
#1053=ADVANCED_FACE('',(#971),#39,.F.);
#1054=ADVANCED_FACE('',(#972),#1006,.F.);
#1055=ADVANCED_FACE('',(#973),#1007,.F.);
#1056=ADVANCED_FACE('',(#974),#40,.F.);
#1057=ADVANCED_FACE('',(#975),#1008,.F.);
#1058=ADVANCED_FACE('',(#976),#1009,.F.);
#1059=ADVANCED_FACE('',(#977),#41,.F.);
#1060=ADVANCED_FACE('',(#978),#1010,.F.);
#1061=ADVANCED_FACE('',(#979),#1011,.F.);
#1062=ADVANCED_FACE('',(#980),#42,.F.);
#1063=ADVANCED_FACE('',(#981),#1012,.F.);
#1064=ADVANCED_FACE('',(#982),#1013,.F.);
#1065=ADVANCED_FACE('',(#983),#43,.T.);
#1066=ADVANCED_FACE('',(#984),#44,.T.);
#1067=ADVANCED_FACE('',(#985),#45,.T.);
#1068=CLOSED_SHELL('',(#1014,#1015,#1016,#1017,#1018,#1019,#1020,#1021,
#1022,#1023,#1024,#1025,#1026,#1027,#1028,#1029,#1030,#1031,#1032,#1033,
#1034,#1035,#1036,#1037,#1038,#1039,#1040,#1041,#1042,#1043,#1044,#1045,
#1046,#1047,#1048,#1049,#1050,#1051,#1052,#1053,#1054,#1055,#1056,#1057,
#1058,#1059,#1060,#1061,#1062,#1063,#1064,#1065,#1066,#1067));
#1069=MANIFOLD_SOLID_BREP('',#1068);
#1070=SHAPE_DEFINITION_REPRESENTATION(#1817,#1071);
#1071=SHAPE_REPRESENTATION('id2',(#1072),#1812);
#1072=AXIS2_PLACEMENT_3D('',#1497,#1179,#1180);
#1073=AXIS2_PLACEMENT_3D('',#1498,#1181,#1182);
#1074=AXIS2_PLACEMENT_3D('',#1502,#1184,#1185);
#1075=AXIS2_PLACEMENT_3D('',#1504,#1186,#1187);
#1076=AXIS2_PLACEMENT_3D('',#1508,#1189,#1190);
#1077=AXIS2_PLACEMENT_3D('',#1512,#1192,#1193);
#1078=AXIS2_PLACEMENT_3D('',#1516,#1195,#1196);
#1079=AXIS2_PLACEMENT_3D('',#1520,#1198,#1199);
#1080=AXIS2_PLACEMENT_3D('',#1524,#1201,#1202);
#1081=AXIS2_PLACEMENT_3D('',#1528,#1204,#1205);
#1082=AXIS2_PLACEMENT_3D('',#1532,#1207,#1208);
#1083=AXIS2_PLACEMENT_3D('',#1536,#1210,#1211);
#1084=AXIS2_PLACEMENT_3D('',#1540,#1213,#1214);
#1085=AXIS2_PLACEMENT_3D('',#1544,#1216,#1217);
#1086=AXIS2_PLACEMENT_3D('',#1548,#1219,#1220);
#1087=AXIS2_PLACEMENT_3D('',#1552,#1222,#1223);
#1088=AXIS2_PLACEMENT_3D('',#1556,#1225,#1226);
#1089=AXIS2_PLACEMENT_3D('',#1560,#1228,#1229);
#1090=AXIS2_PLACEMENT_3D('',#1564,#1231,#1232);
#1091=AXIS2_PLACEMENT_3D('',#1568,#1234,#1235);
#1092=AXIS2_PLACEMENT_3D('',#1572,#1237,#1238);
#1093=AXIS2_PLACEMENT_3D('',#1576,#1240,#1241);
#1094=AXIS2_PLACEMENT_3D('',#1578,#1242,#1243);
#1095=AXIS2_PLACEMENT_3D('',#1584,#1246,#1247);
#1096=AXIS2_PLACEMENT_3D('',#1588,#1249,#1250);
#1097=AXIS2_PLACEMENT_3D('',#1592,#1252,#1253);
#1098=AXIS2_PLACEMENT_3D('',#1596,#1255,#1256);
#1099=AXIS2_PLACEMENT_3D('',#1600,#1258,#1259);
#1100=AXIS2_PLACEMENT_3D('',#1603,#1261,#1262);
#1101=AXIS2_PLACEMENT_3D('',#1604,#1263,#1264);
#1102=AXIS2_PLACEMENT_3D('',#1611,#1267,#1268);
#1103=AXIS2_PLACEMENT_3D('',#1615,#1270,#1271);
#1104=AXIS2_PLACEMENT_3D('',#1619,#1273,#1274);
#1105=AXIS2_PLACEMENT_3D('',#1623,#1276,#1277);
#1106=AXIS2_PLACEMENT_3D('',#1627,#1279,#1280);
#1107=AXIS2_PLACEMENT_3D('',#1633,#1283,#1284);
#1108=AXIS2_PLACEMENT_3D('',#1635,#1285,#1286);
#1109=AXIS2_PLACEMENT_3D('',#1639,#1288,#1289);
#1110=AXIS2_PLACEMENT_3D('',#1643,#1291,#1292);
#1111=AXIS2_PLACEMENT_3D('',#1647,#1294,#1295);
#1112=AXIS2_PLACEMENT_3D('',#1651,#1297,#1298);
#1113=AXIS2_PLACEMENT_3D('',#1655,#1300,#1301);
#1114=AXIS2_PLACEMENT_3D('',#1659,#1303,#1304);
#1115=AXIS2_PLACEMENT_3D('',#1663,#1306,#1307);
#1116=AXIS2_PLACEMENT_3D('',#1667,#1309,#1310);
#1117=AXIS2_PLACEMENT_3D('',#1671,#1312,#1313);
#1118=AXIS2_PLACEMENT_3D('',#1675,#1315,#1316);
#1119=AXIS2_PLACEMENT_3D('',#1679,#1318,#1319);
#1120=AXIS2_PLACEMENT_3D('',#1683,#1321,#1322);
#1121=AXIS2_PLACEMENT_3D('',#1687,#1324,#1325);
#1122=AXIS2_PLACEMENT_3D('',#1691,#1327,#1328);
#1123=AXIS2_PLACEMENT_3D('',#1695,#1330,#1331);
#1124=AXIS2_PLACEMENT_3D('',#1699,#1333,#1334);
#1125=AXIS2_PLACEMENT_3D('',#1703,#1336,#1337);
#1126=AXIS2_PLACEMENT_3D('',#1707,#1339,#1340);
#1127=AXIS2_PLACEMENT_3D('',#1708,#1341,#1342);
#1128=AXIS2_PLACEMENT_3D('',#1711,#1345,#1346);
#1129=AXIS2_PLACEMENT_3D('',#1714,#1349,#1350);
#1130=AXIS2_PLACEMENT_3D('',#1717,#1353,#1354);
#1131=AXIS2_PLACEMENT_3D('',#1720,#1357,#1358);
#1132=AXIS2_PLACEMENT_3D('',#1723,#1361,#1362);
#1133=AXIS2_PLACEMENT_3D('',#1726,#1365,#1366);
#1134=AXIS2_PLACEMENT_3D('',#1729,#1369,#1370);
#1135=AXIS2_PLACEMENT_3D('',#1732,#1373,#1374);
#1136=AXIS2_PLACEMENT_3D('',#1735,#1377,#1378);
#1137=AXIS2_PLACEMENT_3D('',#1738,#1381,#1382);
#1138=AXIS2_PLACEMENT_3D('',#1741,#1385,#1386);
#1139=AXIS2_PLACEMENT_3D('',#1743,#1388,#1389);
#1140=AXIS2_PLACEMENT_3D('',#1745,#1391,#1392);
#1141=AXIS2_PLACEMENT_3D('',#1747,#1394,#1395);
#1142=AXIS2_PLACEMENT_3D('',#1749,#1397,#1398);
#1143=AXIS2_PLACEMENT_3D('',#1751,#1400,#1401);
#1144=AXIS2_PLACEMENT_3D('',#1753,#1403,#1404);
#1145=AXIS2_PLACEMENT_3D('',#1755,#1406,#1407);
#1146=AXIS2_PLACEMENT_3D('',#1757,#1409,#1410);
#1147=AXIS2_PLACEMENT_3D('',#1759,#1412,#1413);
#1148=AXIS2_PLACEMENT_3D('',#1761,#1415,#1416);
#1149=AXIS2_PLACEMENT_3D('',#1764,#1419,#1420);
#1150=AXIS2_PLACEMENT_3D('',#1765,#1421,#1422);
#1151=AXIS2_PLACEMENT_3D('',#1766,#1423,#1424);
#1152=AXIS2_PLACEMENT_3D('',#1768,#1426,#1427);
#1153=AXIS2_PLACEMENT_3D('',#1770,#1429,#1430);
#1154=AXIS2_PLACEMENT_3D('',#1771,#1431,#1432);
#1155=AXIS2_PLACEMENT_3D('',#1773,#1434,#1435);
#1156=AXIS2_PLACEMENT_3D('',#1775,#1437,#1438);
#1157=AXIS2_PLACEMENT_3D('',#1776,#1439,#1440);
#1158=AXIS2_PLACEMENT_3D('',#1778,#1442,#1443);
#1159=AXIS2_PLACEMENT_3D('',#1780,#1445,#1446);
#1160=AXIS2_PLACEMENT_3D('',#1781,#1447,#1448);
#1161=AXIS2_PLACEMENT_3D('',#1783,#1450,#1451);
#1162=AXIS2_PLACEMENT_3D('',#1785,#1453,#1454);
#1163=AXIS2_PLACEMENT_3D('',#1786,#1455,#1456);
#1164=AXIS2_PLACEMENT_3D('',#1788,#1458,#1459);
#1165=AXIS2_PLACEMENT_3D('',#1790,#1461,#1462);
#1166=AXIS2_PLACEMENT_3D('',#1791,#1463,#1464);
#1167=AXIS2_PLACEMENT_3D('',#1793,#1466,#1467);
#1168=AXIS2_PLACEMENT_3D('',#1795,#1469,#1470);
#1169=AXIS2_PLACEMENT_3D('',#1796,#1471,#1472);
#1170=AXIS2_PLACEMENT_3D('',#1798,#1474,#1475);
#1171=AXIS2_PLACEMENT_3D('',#1800,#1477,#1478);
#1172=AXIS2_PLACEMENT_3D('',#1801,#1479,#1480);
#1173=AXIS2_PLACEMENT_3D('',#1803,#1482,#1483);
#1174=AXIS2_PLACEMENT_3D('',#1805,#1485,#1486);
#1175=AXIS2_PLACEMENT_3D('',#1806,#1487,#1488);
#1176=AXIS2_PLACEMENT_3D('',#1808,#1490,#1491);
#1177=AXIS2_PLACEMENT_3D('',#1810,#1493,#1494);
#1178=AXIS2_PLACEMENT_3D('',#1811,#1495,#1496);
#1179=DIRECTION('',(0.,0.,1.));
#1180=DIRECTION('',(1.,0.,0.));
#1181=DIRECTION('',(0.,0.,-1.));
#1182=DIRECTION('',(-1.,0.,0.));
#1183=DIRECTION('',(-0.887010833178223,-0.461748613235031,0.));
#1184=DIRECTION('',(0.,0.,-1.));
#1185=DIRECTION('',(1.,0.,0.));
#1186=DIRECTION('',(0.,0.,1.));
#1187=DIRECTION('',(1.,0.,0.));
#1188=DIRECTION('',(0.779884483092885,0.625923472184056,0.));
#1189=DIRECTION('',(0.,0.,1.));
#1190=DIRECTION('',(1.,0.,0.));
#1191=DIRECTION('',(-0.996194698091746,0.0871557427476574,0.));
#1192=DIRECTION('',(0.,0.,1.));
#1193=DIRECTION('',(0.98078528040323,0.195090322016129,0.));
#1194=DIRECTION('',(0.642787609686542,0.766044443118976,0.));
#1195=DIRECTION('',(0.,0.,1.));
#1196=DIRECTION('',(1.,0.,0.));
#1197=DIRECTION('',(-0.99405633822232,-0.108866874851966,0.));
#1198=DIRECTION('',(0.,0.,1.));
#1199=DIRECTION('',(0.923879532511286,0.382683432365091,0.));
#1200=DIRECTION('',(0.480988768919391,0.876726755707506,0.));
#1201=DIRECTION('',(0.,0.,1.));
#1202=DIRECTION('',(1.,0.,0.));
#1203=DIRECTION('',(-0.953716950748226,-0.300705799504275,0.));
#1204=DIRECTION('',(0.,0.,1.));
#1205=DIRECTION('',(0.831469612302544,0.555570233019603,0.));
#1206=DIRECTION('',(0.300705799504276,0.953716950748226,0.));
#1207=DIRECTION('',(0.,0.,1.));
#1208=DIRECTION('',(1.,0.,0.));
#1209=DIRECTION('',(-0.876726755707507,-0.480988768919389,0.));
#1210=DIRECTION('',(0.,0.,1.));
#1211=DIRECTION('',(0.707106781186546,0.707106781186549,0.));
#1212=DIRECTION('',(0.108866874851967,0.994056338222319,0.));
#1213=DIRECTION('',(0.,0.,1.));
#1214=DIRECTION('',(1.,0.,0.));
#1215=DIRECTION('',(-0.766044443118976,-0.642787609686541,0.));
#1216=DIRECTION('',(0.,0.,1.));
#1217=DIRECTION('',(0.5555702330196,0.831469612302546,0.));
#1218=DIRECTION('',(-0.0871557427476559,0.996194698091746,0.));
#1219=DIRECTION('',(0.,0.,1.));
#1220=DIRECTION('',(1.,0.,0.));
#1221=DIRECTION('',(-0.625923472184057,-0.779884483092884,0.));
#1222=DIRECTION('',(0.,0.,1.));
#1223=DIRECTION('',(0.382683432365087,0.923879532511288,0.));
#1224=DIRECTION('',(-0.27982901403099,0.960049854385929,0.));
#1225=DIRECTION('',(0.,0.,1.));
#1226=DIRECTION('',(1.,0.,0.));
#1227=DIRECTION('',(-0.461748613235031,-0.887010833178223,0.));
#1228=DIRECTION('',(0.,0.,1.));
#1229=DIRECTION('',(0.195090322016125,0.980785280403231,0.));
#1230=DIRECTION('',(-0.461748613235033,0.887010833178222,0.));
#1231=DIRECTION('',(0.,0.,1.));
#1232=DIRECTION('',(1.,0.,0.));
#1233=DIRECTION('',(-0.279829014030988,-0.96004985438593,0.));
#1234=DIRECTION('',(0.,0.,1.));
#1235=DIRECTION('',(-3.49148133884313E-15,1.,0.));
#1236=DIRECTION('',(-0.625923472184058,0.779884483092882,0.));
#1237=DIRECTION('',(0.,0.,1.));
#1238=DIRECTION('',(1.,0.,0.));
#1239=DIRECTION('',(-0.0871557427476539,-0.996194698091746,0.));
#1240=DIRECTION('',(0.,0.,-1.));
#1241=DIRECTION('',(-1.,0.,0.));
#1242=DIRECTION('',(0.,0.,-1.));
#1243=DIRECTION('',(-1.,0.,0.));
#1244=DIRECTION('',(-0.887010833178223,0.461748613235032,0.));
#1245=DIRECTION('',(-1.,3.48999989809142E-16,0.));
#1246=DIRECTION('',(0.,0.,-1.));
#1247=DIRECTION('',(-1.,0.,0.));
#1248=DIRECTION('',(0.5,-0.866025403784438,0.));
#1249=DIRECTION('',(0.,0.,-1.));
#1250=DIRECTION('',(1.,0.,0.));
#1251=DIRECTION('',(0.,-1.,0.));
#1252=DIRECTION('',(0.,0.,-1.));
#1253=DIRECTION('',(1.,0.,0.));
#1254=DIRECTION('',(0.,1.,0.));
#1255=DIRECTION('',(0.,0.,-1.));
#1256=DIRECTION('',(1.,0.,0.));
#1257=DIRECTION('',(0.5,0.866025403784438,0.));
#1258=DIRECTION('',(0.,0.,-1.));
#1259=DIRECTION('',(1.,0.,0.));
#1260=DIRECTION('',(-1.,-6.97999979618284E-16,0.));
#1261=DIRECTION('',(0.,0.,-1.));
#1262=DIRECTION('',(-1.,0.,0.));
#1263=DIRECTION('',(0.,0.,-1.));
#1264=DIRECTION('',(-1.,0.,0.));
#1265=DIRECTION('',(-0.887010833178223,-0.461748613235031,0.));
#1266=DIRECTION('',(-1.,-6.97999979618284E-16,0.));
#1267=DIRECTION('',(0.,0.,-1.));
#1268=DIRECTION('',(1.,0.,0.));
#1269=DIRECTION('',(0.5,0.866025403784438,0.));
#1270=DIRECTION('',(0.,0.,-1.));
#1271=DIRECTION('',(1.,0.,0.));
#1272=DIRECTION('',(0.,1.,0.));
#1273=DIRECTION('',(0.,0.,-1.));
#1274=DIRECTION('',(1.,0.,0.));
#1275=DIRECTION('',(0.,-1.,0.));
#1276=DIRECTION('',(0.,0.,-1.));
#1277=DIRECTION('',(1.,0.,0.));
#1278=DIRECTION('',(0.5,-0.866025403784438,0.));
#1279=DIRECTION('',(0.,0.,-1.));
#1280=DIRECTION('',(-1.,0.,0.));
#1281=DIRECTION('',(-1.,3.48999989809142E-16,0.));
#1282=DIRECTION('',(-0.887010833178223,0.461748613235032,0.));
#1283=DIRECTION('',(0.,0.,-1.));
#1284=DIRECTION('',(-1.,0.,0.));
#1285=DIRECTION('',(0.,0.,-1.));
#1286=DIRECTION('',(-1.,0.,0.));
#1287=DIRECTION('',(-0.0871557427476539,-0.996194698091746,0.));
#1288=DIRECTION('',(0.,0.,1.));
#1289=DIRECTION('',(1.,0.,0.));
#1290=DIRECTION('',(-0.625923472184058,0.779884483092882,0.));
#1291=DIRECTION('',(0.,0.,-1.));
#1292=DIRECTION('',(-1.,0.,0.));
#1293=DIRECTION('',(-0.279829014030988,-0.96004985438593,0.));
#1294=DIRECTION('',(0.,0.,1.));
#1295=DIRECTION('',(1.,0.,0.));
#1296=DIRECTION('',(-0.461748613235033,0.887010833178222,0.));
#1297=DIRECTION('',(0.,0.,-1.));
#1298=DIRECTION('',(-1.,0.,0.));
#1299=DIRECTION('',(-0.461748613235031,-0.887010833178223,0.));
#1300=DIRECTION('',(0.,0.,1.));
#1301=DIRECTION('',(1.,0.,0.));
#1302=DIRECTION('',(-0.27982901403099,0.960049854385929,0.));
#1303=DIRECTION('',(0.,0.,-1.));
#1304=DIRECTION('',(-1.,0.,0.));
#1305=DIRECTION('',(-0.625923472184057,-0.779884483092884,0.));
#1306=DIRECTION('',(0.,0.,1.));
#1307=DIRECTION('',(1.,0.,0.));
#1308=DIRECTION('',(-0.0871557427476559,0.996194698091746,0.));
#1309=DIRECTION('',(0.,0.,-1.));
#1310=DIRECTION('',(-1.,0.,0.));
#1311=DIRECTION('',(-0.766044443118976,-0.642787609686541,0.));
#1312=DIRECTION('',(0.,0.,1.));
#1313=DIRECTION('',(1.,0.,0.));
#1314=DIRECTION('',(0.108866874851967,0.994056338222319,0.));
#1315=DIRECTION('',(0.,0.,-1.));
#1316=DIRECTION('',(-1.,0.,0.));
#1317=DIRECTION('',(-0.876726755707507,-0.480988768919389,0.));
#1318=DIRECTION('',(0.,0.,1.));
#1319=DIRECTION('',(1.,0.,0.));
#1320=DIRECTION('',(0.300705799504276,0.953716950748226,0.));
#1321=DIRECTION('',(0.,0.,-1.));
#1322=DIRECTION('',(-1.,0.,0.));
#1323=DIRECTION('',(-0.953716950748226,-0.300705799504275,0.));
#1324=DIRECTION('',(0.,0.,1.));
#1325=DIRECTION('',(1.,0.,0.));
#1326=DIRECTION('',(0.480988768919391,0.876726755707506,0.));
#1327=DIRECTION('',(0.,0.,-1.));
#1328=DIRECTION('',(-1.,0.,0.));
#1329=DIRECTION('',(-0.99405633822232,-0.108866874851966,0.));
#1330=DIRECTION('',(0.,0.,1.));
#1331=DIRECTION('',(1.,0.,0.));
#1332=DIRECTION('',(0.642787609686542,0.766044443118975,0.));
#1333=DIRECTION('',(0.,0.,-1.));
#1334=DIRECTION('',(-1.,0.,0.));
#1335=DIRECTION('',(-0.996194698091746,0.0871557427476574,0.));
#1336=DIRECTION('',(0.,0.,1.));
#1337=DIRECTION('',(1.,0.,0.));
#1338=DIRECTION('',(0.779884483092885,0.625923472184056,0.));
#1339=DIRECTION('',(0.,0.,-1.));
#1340=DIRECTION('',(-1.,0.,0.));
#1341=DIRECTION('',(0.,0.,1.));
#1342=DIRECTION('',(1.,0.,0.));
#1343=DIRECTION('',(0.,0.,1.));
#1344=DIRECTION('',(0.,0.,1.));
#1345=DIRECTION('',(0.,0.,-1.));
#1346=DIRECTION('',(-1.,0.,0.));
#1347=DIRECTION('',(0.,0.,1.));
#1348=DIRECTION('',(0.,0.,1.));
#1349=DIRECTION('',(0.,0.,-1.));
#1350=DIRECTION('',(-1.,0.,0.));
#1351=DIRECTION('',(0.,0.,1.));
#1352=DIRECTION('',(0.,0.,1.));
#1353=DIRECTION('',(0.,0.,-1.));
#1354=DIRECTION('',(-1.,0.,0.));
#1355=DIRECTION('',(0.,0.,1.));
#1356=DIRECTION('',(0.,0.,1.));
#1357=DIRECTION('',(0.,0.,-1.));
#1358=DIRECTION('',(-1.,0.,0.));
#1359=DIRECTION('',(0.,0.,1.));
#1360=DIRECTION('',(0.,0.,1.));
#1361=DIRECTION('',(0.,0.,-1.));
#1362=DIRECTION('',(-1.,0.,0.));
#1363=DIRECTION('',(0.,0.,1.));
#1364=DIRECTION('',(0.,0.,1.));
#1365=DIRECTION('',(0.,0.,-1.));
#1366=DIRECTION('',(-1.,0.,0.));
#1367=DIRECTION('',(0.,0.,1.));
#1368=DIRECTION('',(0.,0.,1.));
#1369=DIRECTION('',(0.,0.,-1.));
#1370=DIRECTION('',(-1.,0.,0.));
#1371=DIRECTION('',(0.,0.,1.));
#1372=DIRECTION('',(0.,0.,1.));
#1373=DIRECTION('',(0.,0.,-1.));
#1374=DIRECTION('',(-1.,0.,0.));
#1375=DIRECTION('',(0.,0.,1.));
#1376=DIRECTION('',(0.,0.,1.));
#1377=DIRECTION('',(0.,0.,-1.));
#1378=DIRECTION('',(-1.,0.,0.));
#1379=DIRECTION('',(0.,0.,1.));
#1380=DIRECTION('',(0.,0.,1.));
#1381=DIRECTION('',(0.,0.,-1.));
#1382=DIRECTION('',(-1.,0.,0.));
#1383=DIRECTION('',(0.,0.,-1.));
#1384=DIRECTION('',(0.,0.,-1.));
#1385=DIRECTION('',(0.866025403784438,0.5,0.));
#1386=DIRECTION('',(-0.5,0.866025403784438,0.));
#1387=DIRECTION('',(0.,0.,-1.));
#1388=DIRECTION('',(0.,0.,-1.));
#1389=DIRECTION('',(-1.,0.,0.));
#1390=DIRECTION('',(0.,0.,-1.));
#1391=DIRECTION('',(1.,0.,0.));
#1392=DIRECTION('',(0.,0.,-1.));
#1393=DIRECTION('',(0.,0.,-1.));
#1394=DIRECTION('',(0.,0.,-1.));
#1395=DIRECTION('',(-1.,0.,0.));
#1396=DIRECTION('',(0.,0.,-1.));
#1397=DIRECTION('',(-1.,0.,0.));
#1398=DIRECTION('',(0.,0.,1.));
#1399=DIRECTION('',(0.,0.,-1.));
#1400=DIRECTION('',(0.,0.,-1.));
#1401=DIRECTION('',(-1.,0.,0.));
#1402=DIRECTION('',(0.,0.,-1.));
#1403=DIRECTION('',(-0.866025403784438,0.5,0.));
#1404=DIRECTION('',(-0.5,-0.866025403784438,0.));
#1405=DIRECTION('',(0.,0.,-1.));
#1406=DIRECTION('',(0.,0.,-1.));
#1407=DIRECTION('',(-1.,0.,0.));
#1408=DIRECTION('',(0.,0.,-1.));
#1409=DIRECTION('',(6.97999979618284E-16,-1.,0.));
#1410=DIRECTION('',(1.,6.97999979618284E-16,0.));
#1411=DIRECTION('',(0.,0.,-1.));
#1412=DIRECTION('',(0.461748613235031,-0.887010833178223,0.));
#1413=DIRECTION('',(0.887010833178223,0.461748613235031,0.));
#1414=DIRECTION('',(0.,0.,1.));
#1415=DIRECTION('',(-0.461748613235032,-0.887010833178223,0.));
#1416=DIRECTION('',(0.887010833178223,-0.461748613235032,0.));
#1417=DIRECTION('',(0.,0.,1.));
#1418=DIRECTION('',(0.,0.,-1.));
#1419=DIRECTION('',(-3.48999989809142E-16,-1.,0.));
#1420=DIRECTION('',(1.,-3.48999989809142E-16,0.));
#1421=DIRECTION('',(0.625923472184056,-0.779884483092885,0.));
#1422=DIRECTION('',(0.779884483092885,0.625923472184056,0.));
#1423=DIRECTION('',(0.0871557427476574,0.996194698091746,0.));
#1424=DIRECTION('',(-0.996194698091746,0.0871557427476574,0.));
#1425=DIRECTION('',(0.,0.,1.));
#1426=DIRECTION('',(0.,0.,1.));
#1427=DIRECTION('',(1.,0.,0.));
#1428=DIRECTION('',(0.,0.,1.));
#1429=DIRECTION('',(0.766044443118975,-0.642787609686542,0.));
#1430=DIRECTION('',(0.642787609686542,0.766044443118975,0.));
#1431=DIRECTION('',(-0.108866874851966,0.99405633822232,0.));
#1432=DIRECTION('',(-0.99405633822232,-0.108866874851966,0.));
#1433=DIRECTION('',(0.,0.,1.));
#1434=DIRECTION('',(0.,0.,1.));
#1435=DIRECTION('',(1.,0.,0.));
#1436=DIRECTION('',(0.,0.,1.));
#1437=DIRECTION('',(0.876726755707506,-0.480988768919391,0.));
#1438=DIRECTION('',(0.480988768919391,0.876726755707506,0.));
#1439=DIRECTION('',(-0.300705799504275,0.953716950748226,0.));
#1440=DIRECTION('',(-0.953716950748227,-0.300705799504275,0.));
#1441=DIRECTION('',(0.,0.,1.));
#1442=DIRECTION('',(0.,0.,1.));
#1443=DIRECTION('',(1.,0.,0.));
#1444=DIRECTION('',(0.,0.,1.));
#1445=DIRECTION('',(0.953716950748226,-0.300705799504276,0.));
#1446=DIRECTION('',(0.300705799504276,0.953716950748226,0.));
#1447=DIRECTION('',(-0.480988768919389,0.876726755707507,0.));
#1448=DIRECTION('',(-0.876726755707507,-0.480988768919389,0.));
#1449=DIRECTION('',(0.,0.,1.));
#1450=DIRECTION('',(0.,0.,1.));
#1451=DIRECTION('',(1.,0.,0.));
#1452=DIRECTION('',(0.,0.,1.));
#1453=DIRECTION('',(0.994056338222319,-0.108866874851967,0.));
#1454=DIRECTION('',(0.108866874851967,0.994056338222319,0.));
#1455=DIRECTION('',(-0.642787609686541,0.766044443118976,0.));
#1456=DIRECTION('',(-0.766044443118976,-0.642787609686541,0.));
#1457=DIRECTION('',(0.,0.,1.));
#1458=DIRECTION('',(0.,0.,1.));
#1459=DIRECTION('',(1.,0.,0.));
#1460=DIRECTION('',(0.,0.,1.));
#1461=DIRECTION('',(0.996194698091746,0.0871557427476558,0.));
#1462=DIRECTION('',(-0.0871557427476559,0.996194698091746,0.));
#1463=DIRECTION('',(-0.779884483092884,0.625923472184057,0.));
#1464=DIRECTION('',(-0.625923472184057,-0.779884483092884,0.));
#1465=DIRECTION('',(0.,0.,1.));
#1466=DIRECTION('',(0.,0.,1.));
#1467=DIRECTION('',(1.,0.,0.));
#1468=DIRECTION('',(0.,0.,1.));
#1469=DIRECTION('',(0.960049854385929,0.27982901403099,0.));
#1470=DIRECTION('',(-0.27982901403099,0.960049854385929,0.));
#1471=DIRECTION('',(-0.887010833178223,0.461748613235031,0.));
#1472=DIRECTION('',(-0.461748613235031,-0.887010833178223,0.));
#1473=DIRECTION('',(0.,0.,1.));
#1474=DIRECTION('',(0.,0.,1.));
#1475=DIRECTION('',(1.,0.,0.));
#1476=DIRECTION('',(0.,0.,1.));
#1477=DIRECTION('',(0.887010833178222,0.461748613235033,0.));
#1478=DIRECTION('',(-0.461748613235033,0.887010833178222,0.));
#1479=DIRECTION('',(-0.96004985438593,0.279829014030988,0.));
#1480=DIRECTION('',(-0.279829014030988,-0.96004985438593,0.));
#1481=DIRECTION('',(0.,0.,1.));
#1482=DIRECTION('',(0.,0.,1.));
#1483=DIRECTION('',(1.,0.,0.));
#1484=DIRECTION('',(0.,0.,1.));
#1485=DIRECTION('',(0.779884483092882,0.625923472184058,0.));
#1486=DIRECTION('',(-0.625923472184058,0.779884483092882,0.));
#1487=DIRECTION('',(-0.996194698091746,0.0871557427476539,0.));
#1488=DIRECTION('',(-0.0871557427476539,-0.996194698091746,0.));
#1489=DIRECTION('',(0.,0.,1.));
#1490=DIRECTION('',(0.,0.,1.));
#1491=DIRECTION('',(1.,0.,0.));
#1492=DIRECTION('',(0.,0.,1.));
#1493=DIRECTION('',(0.,0.,1.));
#1494=DIRECTION('',(1.,0.,0.));
#1495=DIRECTION('',(0.,0.,1.));
#1496=DIRECTION('',(1.,0.,0.));
#1497=CARTESIAN_POINT('',(0.,0.,0.));
#1498=CARTESIAN_POINT('',(0.,0.,0.0005));
#1499=CARTESIAN_POINT('',(-0.00826022314597606,-0.0043,0.0005));
#1500=CARTESIAN_POINT('',(-0.00826022314597606,-0.0043,0.0005));
#1501=CARTESIAN_POINT('',(-0.00966841808164263,-0.00503305988426184,0.0005));
#1502=CARTESIAN_POINT('',(0.,0.,0.0005));
#1503=CARTESIAN_POINT('',(-0.00879179596887808,-0.00644316099764852,0.0005));
#1504=CARTESIAN_POINT('',(-0.00919508936194588,-0.00673871884157736,0.0005));
#1505=CARTESIAN_POINT('',(-0.00888212762585385,-0.0071286610831238,0.0005));
#1506=CARTESIAN_POINT('',(-0.00888212762585385,-0.0071286610831238,0.0005));
#1507=CARTESIAN_POINT('',(-0.0094366022454239,-0.00757367401342708,0.0005));
#1508=CARTESIAN_POINT('',(0.,0.,0.0005));
#1509=CARTESIAN_POINT('',(-0.00928132810423896,-0.00776317902804412,0.0005));
#1510=CARTESIAN_POINT('',(-0.00928132810423896,-0.00776317902804412,0.0005));
#1511=CARTESIAN_POINT('',(-0.00766017159803554,-0.00790501184413821,0.0005));
#1512=CARTESIAN_POINT('',(-0.00770374946940937,-0.00840310919318409,0.0005));
#1513=CARTESIAN_POINT('',(-0.00732072724784988,-0.00872450299802736,0.0005));
#1514=CARTESIAN_POINT('',(-0.00732072724784988,-0.00872450299802736,0.0005));
#1515=CARTESIAN_POINT('',(-0.00777773007720716,-0.00926913776173961,0.0005));
#1516=CARTESIAN_POINT('',(0.,0.,0.0005));
#1517=CARTESIAN_POINT('',(-0.00758846889078041,-0.00942470900843406,0.0005));
#1518=CARTESIAN_POINT('',(-0.00758846889078041,-0.00942470900843406,0.0005));
#1519=CARTESIAN_POINT('',(-0.00597079224250192,-0.00924754460190351,0.0005));
#1520=CARTESIAN_POINT('',(-0.00591635880507593,-0.00974457277101467,0.0005));
#1521=CARTESIAN_POINT('',(-0.00547799542722218,-0.00998506715547437,0.0005));
#1522=CARTESIAN_POINT('',(-0.00547799542722218,-0.00998506715547437,0.0005));
#1523=CARTESIAN_POINT('',(-0.00581996410392463,-0.0106083937440608,0.0005));
#1524=CARTESIAN_POINT('',(0.,0.,0.0005));
#1525=CARTESIAN_POINT('',(-0.00560398907351154,-0.0107240527070676,0.0005));
#1526=CARTESIAN_POINT('',(-0.00560398907351154,-0.0107240527070676,0.0005));
#1527=CARTESIAN_POINT('',(-0.00405195868954781,-0.0102346994067004,0.0005));
#1528=CARTESIAN_POINT('',(-0.00390160578979567,-0.0107115578820745,0.0005));
#1529=CARTESIAN_POINT('',(-0.00342474731442155,-0.0108619107818267,0.0005));
#1530=CARTESIAN_POINT('',(-0.00342474731442155,-0.0108619107818267,0.0005));
#1531=CARTESIAN_POINT('',(-0.00363854017400174,-0.0115399751040535,0.0005));
#1532=CARTESIAN_POINT('',(0.,0.,0.0005));
#1533=CARTESIAN_POINT('',(-0.00340415109890091,-0.0116112770742865,0.0005));
#1534=CARTESIAN_POINT('',(-0.00340415109890091,-0.0116112770742865,0.0005));
#1535=CARTESIAN_POINT('',(-0.00197741063651898,-0.0108285404529834,0.0005));
#1536=CARTESIAN_POINT('',(-0.00173691625205929,-0.0112669038308371,0.0005));
#1537=CARTESIAN_POINT('',(-0.00123988808294813,-0.0113213372682631,0.0005));
#1538=CARTESIAN_POINT('',(-0.00123988808294813,-0.0113213372682631,0.0005));
#1539=CARTESIAN_POINT('',(-0.0013172891857088,-0.0120280816924901,0.0005));
#1540=CARTESIAN_POINT('',(0.,0.,0.0005));
#1541=CARTESIAN_POINT('',(-0.00107349350662944,-0.0120522865752198,0.0005));
#1542=CARTESIAN_POINT('',(-0.00107349350662944,-0.0120522865752198,0.0005));
#1543=CARTESIAN_POINT('',(0.0001731281983266,-0.0110062467623736,0.0005));
#1544=CARTESIAN_POINT('',(0.00049452200316987,-0.0113892689839331,0.0005));
#1545=CARTESIAN_POINT('',(0.000992619352215745,-0.0113456911125593,0.0005));
#1546=CARTESIAN_POINT('',(0.000992619352215745,-0.0113456911125593,0.0005));
#1547=CARTESIAN_POINT('',(0.00105458448724664,-0.0120539558469101,0.0005));
#1548=CARTESIAN_POINT('',(0.,0.,0.0005));
#1549=CARTESIAN_POINT('',(0.0012984178390797,-0.0120301334620676,0.0005));
#1550=CARTESIAN_POINT('',(0.0012984178390797,-0.0120301334620676,0.0005));
#1551=CARTESIAN_POINT('',(0.0023170138136019,-0.0107609891810602,0.0005));
#1552=CARTESIAN_POINT('',(0.00270695605514835,-0.0110739509171522,0.0005));
#1553=CARTESIAN_POINT('',(0.00318698098234131,-0.0109340364101367,0.0005));
#1554=CARTESIAN_POINT('',(0.00318698098234131,-0.0109340364101367,0.0005));
#1555=CARTESIAN_POINT('',(0.00338593106977499,-0.0116166032380697,0.0005));
#1556=CARTESIAN_POINT('',(0.,0.,0.0005));
#1557=CARTESIAN_POINT('',(0.00362043171539412,-0.0115456690665448,0.0005));
#1558=CARTESIAN_POINT('',(0.00362043171539412,-0.0115456690665448,0.0005));
#1559=CARTESIAN_POINT('',(0.00437185788741681,-0.0101021928203508,0.0005));
#1560=CARTESIAN_POINT('',(0.00481536330400592,-0.0103330671269683,0.0005));
#1561=CARTESIAN_POINT('',(0.00525886872059503,-0.0101021928203508,0.0005));
#1562=CARTESIAN_POINT('',(0.00525886872059503,-0.0101021928203508,0.0005));
#1563=CARTESIAN_POINT('',(0.0055871582201439,-0.0107328310814565,0.0005));
#1564=CARTESIAN_POINT('',(0.,0.,0.0005));
#1565=CARTESIAN_POINT('',(0.00580331443124744,-0.0106175110836804,0.0005));
#1566=CARTESIAN_POINT('',(0.00580331443124744,-0.0106175110836804,0.0005));
#1567=CARTESIAN_POINT('',(0.00625869391438443,-0.00905517485493036,0.0005));
#1568=CARTESIAN_POINT('',(0.00673871884157739,-0.00919508936194586,0.0005));
#1569=CARTESIAN_POINT('',(0.00712866108312383,-0.00888212762585383,0.0005));
#1570=CARTESIAN_POINT('',(0.00712866108312383,-0.00888212762585383,0.0005));
#1571=CARTESIAN_POINT('',(0.00757367401342711,-0.00943660224542387,0.0005));
#1572=CARTESIAN_POINT('',(0.,0.,0.0005));
#1573=CARTESIAN_POINT('',(0.00776317902804415,-0.00928132810423893,0.0005));
#1574=CARTESIAN_POINT('',(0.00776317902804415,-0.00928132810423893,0.0005));
#1575=CARTESIAN_POINT('',(0.00791999592597633,-0.00748890275891725,0.0005));
#1576=CARTESIAN_POINT('',(0.,0.,0.0005));
#1577=CARTESIAN_POINT('',(0.00911057810497608,-0.00598392568412496,0.0005));
#1578=CARTESIAN_POINT('',(0.00827474525130855,-0.00543494167640707,0.0005));
#1579=CARTESIAN_POINT('',(0.00873649386454358,-0.00454793084322885,0.0005));
#1580=CARTESIAN_POINT('',(0.00826022314597607,-0.0043,0.0005));
#1581=CARTESIAN_POINT('',(0.00826022314597607,-0.0043,0.0005));
#1582=CARTESIAN_POINT('',(0.00577494588719236,-0.0043,0.0005));
#1583=CARTESIAN_POINT('',(0.00577494588719236,-0.0043,0.0005));
#1584=CARTESIAN_POINT('',(0.,0.,0.0005));
#1585=CARTESIAN_POINT('',(0.00553923133011576,-0.0045996647999027,0.0005));
#1586=CARTESIAN_POINT('',(0.00553923133011576,-0.0045996647999027,0.0005));
#1587=CARTESIAN_POINT('',(0.00659,-0.00641964952314377,0.0005));
#1588=CARTESIAN_POINT('',(0.,0.,0.0005));
#1589=CARTESIAN_POINT('',(0.005,-0.00772269383052313,0.0005));
#1590=CARTESIAN_POINT('',(0.005,-0.00772269383052313,0.0005));
#1591=CARTESIAN_POINT('',(0.005,-0.00784155596804614,0.0005));
#1592=CARTESIAN_POINT('',(0.,0.,0.0005));
#1593=CARTESIAN_POINT('',(-0.005,-0.00784155596804614,0.0005));
#1594=CARTESIAN_POINT('',(-0.005,-0.00772269383052313,0.0005));
#1595=CARTESIAN_POINT('',(-0.005,-0.00772269383052313,0.0005));
#1596=CARTESIAN_POINT('',(0.,0.,0.0005));
#1597=CARTESIAN_POINT('',(-0.00659,-0.00641964952314377,0.0005));
#1598=CARTESIAN_POINT('',(-0.00553923133011576,-0.0045996647999027,0.0005));
#1599=CARTESIAN_POINT('',(-0.00553923133011576,-0.0045996647999027,0.0005));
#1600=CARTESIAN_POINT('',(0.,0.,0.0005));
#1601=CARTESIAN_POINT('',(-0.00577494588719236,-0.0043,0.0005));
#1602=CARTESIAN_POINT('',(-0.00826022314597606,-0.0043,0.0005));
#1603=CARTESIAN_POINT('',(0.,0.,0.));
#1604=CARTESIAN_POINT('',(0.,0.,0.));
#1605=CARTESIAN_POINT('',(-0.00879179596887808,-0.00644316099764853,0.));
#1606=CARTESIAN_POINT('',(-0.00966841808164263,-0.00503305988426184,0.));
#1607=CARTESIAN_POINT('',(-0.00826022314597606,-0.0043,0.));
#1608=CARTESIAN_POINT('',(-0.00826022314597606,-0.0043,0.));
#1609=CARTESIAN_POINT('',(-0.00826022314597606,-0.0043,0.));
#1610=CARTESIAN_POINT('',(-0.00577494588719236,-0.0043,0.));
#1611=CARTESIAN_POINT('',(0.,0.,0.));
#1612=CARTESIAN_POINT('',(-0.00553923133011576,-0.0045996647999027,0.));
#1613=CARTESIAN_POINT('',(-0.00553923133011576,-0.0045996647999027,0.));
#1614=CARTESIAN_POINT('',(-0.00659,-0.00641964952314377,0.));
#1615=CARTESIAN_POINT('',(0.,0.,0.));
#1616=CARTESIAN_POINT('',(-0.005,-0.00772269383052313,0.));
#1617=CARTESIAN_POINT('',(-0.005,-0.00772269383052313,0.));
#1618=CARTESIAN_POINT('',(-0.005,-0.00784155596804614,0.));
#1619=CARTESIAN_POINT('',(0.,0.,0.));
#1620=CARTESIAN_POINT('',(0.005,-0.00784155596804614,0.));
#1621=CARTESIAN_POINT('',(0.005,-0.00772269383052313,0.));
#1622=CARTESIAN_POINT('',(0.005,-0.00772269383052313,0.));
#1623=CARTESIAN_POINT('',(0.,0.,0.));
#1624=CARTESIAN_POINT('',(0.00659,-0.00641964952314377,0.));
#1625=CARTESIAN_POINT('',(0.00553923133011576,-0.0045996647999027,0.));
#1626=CARTESIAN_POINT('',(0.00553923133011576,-0.0045996647999027,0.));
#1627=CARTESIAN_POINT('',(0.,0.,0.));
#1628=CARTESIAN_POINT('',(0.00577494588719236,-0.0043,0.));
#1629=CARTESIAN_POINT('',(0.00577494588719236,-0.0043,0.));
#1630=CARTESIAN_POINT('',(0.00826022314597607,-0.0043,0.));
#1631=CARTESIAN_POINT('',(0.00826022314597607,-0.0043,0.));
#1632=CARTESIAN_POINT('',(0.00873649386454358,-0.00454793084322885,0.));
#1633=CARTESIAN_POINT('',(0.00827474525130855,-0.00543494167640707,0.));
#1634=CARTESIAN_POINT('',(0.00911057810497608,-0.00598392568412496,0.));
#1635=CARTESIAN_POINT('',(0.,0.,0.));
#1636=CARTESIAN_POINT('',(0.00791999592597633,-0.00748890275891725,0.));
#1637=CARTESIAN_POINT('',(0.00776317902804415,-0.00928132810423893,0.));
#1638=CARTESIAN_POINT('',(0.00776317902804415,-0.00928132810423893,0.));
#1639=CARTESIAN_POINT('',(0.,0.,0.));
#1640=CARTESIAN_POINT('',(0.00757367401342711,-0.00943660224542387,0.));
#1641=CARTESIAN_POINT('',(0.00712866108312383,-0.00888212762585383,0.));
#1642=CARTESIAN_POINT('',(0.00712866108312383,-0.00888212762585383,0.));
#1643=CARTESIAN_POINT('',(0.00673871884157739,-0.00919508936194586,0.));
#1644=CARTESIAN_POINT('',(0.00625869391438443,-0.00905517485493036,0.));
#1645=CARTESIAN_POINT('',(0.00580331443124744,-0.0106175110836804,0.));
#1646=CARTESIAN_POINT('',(0.00580331443124744,-0.0106175110836804,0.));
#1647=CARTESIAN_POINT('',(0.,0.,0.));
#1648=CARTESIAN_POINT('',(0.0055871582201439,-0.0107328310814565,0.));
#1649=CARTESIAN_POINT('',(0.00525886872059503,-0.0101021928203508,0.));
#1650=CARTESIAN_POINT('',(0.00525886872059503,-0.0101021928203508,0.));
#1651=CARTESIAN_POINT('',(0.00481536330400592,-0.0103330671269683,0.));
#1652=CARTESIAN_POINT('',(0.00437185788741681,-0.0101021928203508,0.));
#1653=CARTESIAN_POINT('',(0.00362043171539412,-0.0115456690665448,0.));
#1654=CARTESIAN_POINT('',(0.00362043171539412,-0.0115456690665448,0.));
#1655=CARTESIAN_POINT('',(0.,0.,0.));
#1656=CARTESIAN_POINT('',(0.00338593106977499,-0.0116166032380697,0.));
#1657=CARTESIAN_POINT('',(0.00318698098234131,-0.0109340364101367,0.));
#1658=CARTESIAN_POINT('',(0.00318698098234131,-0.0109340364101367,0.));
#1659=CARTESIAN_POINT('',(0.00270695605514835,-0.0110739509171522,0.));
#1660=CARTESIAN_POINT('',(0.0023170138136019,-0.0107609891810602,0.));
#1661=CARTESIAN_POINT('',(0.0012984178390797,-0.0120301334620676,0.));
#1662=CARTESIAN_POINT('',(0.0012984178390797,-0.0120301334620676,0.));
#1663=CARTESIAN_POINT('',(0.,0.,0.));
#1664=CARTESIAN_POINT('',(0.00105458448724664,-0.0120539558469101,0.));
#1665=CARTESIAN_POINT('',(0.000992619352215745,-0.0113456911125593,0.));
#1666=CARTESIAN_POINT('',(0.000992619352215745,-0.0113456911125593,0.));
#1667=CARTESIAN_POINT('',(0.00049452200316987,-0.0113892689839331,0.));
#1668=CARTESIAN_POINT('',(0.0001731281983266,-0.0110062467623736,0.));
#1669=CARTESIAN_POINT('',(-0.00107349350662944,-0.0120522865752198,0.));
#1670=CARTESIAN_POINT('',(-0.00107349350662944,-0.0120522865752198,0.));
#1671=CARTESIAN_POINT('',(0.,0.,0.));
#1672=CARTESIAN_POINT('',(-0.0013172891857088,-0.0120280816924901,0.));
#1673=CARTESIAN_POINT('',(-0.00123988808294813,-0.0113213372682631,0.));
#1674=CARTESIAN_POINT('',(-0.00123988808294813,-0.0113213372682631,0.));
#1675=CARTESIAN_POINT('',(-0.00173691625205929,-0.0112669038308371,0.));
#1676=CARTESIAN_POINT('',(-0.00197741063651898,-0.0108285404529834,0.));
#1677=CARTESIAN_POINT('',(-0.00340415109890091,-0.0116112770742865,0.));
#1678=CARTESIAN_POINT('',(-0.00340415109890091,-0.0116112770742865,0.));
#1679=CARTESIAN_POINT('',(0.,0.,0.));
#1680=CARTESIAN_POINT('',(-0.00363854017400174,-0.0115399751040535,0.));
#1681=CARTESIAN_POINT('',(-0.00342474731442155,-0.0108619107818267,0.));
#1682=CARTESIAN_POINT('',(-0.00342474731442156,-0.0108619107818267,0.));
#1683=CARTESIAN_POINT('',(-0.00390160578979567,-0.0107115578820745,0.));
#1684=CARTESIAN_POINT('',(-0.00405195868954781,-0.0102346994067004,0.));
#1685=CARTESIAN_POINT('',(-0.00560398907351154,-0.0107240527070676,0.));
#1686=CARTESIAN_POINT('',(-0.00560398907351154,-0.0107240527070676,0.));
#1687=CARTESIAN_POINT('',(0.,0.,0.));
#1688=CARTESIAN_POINT('',(-0.00581996410392463,-0.0106083937440608,0.));
#1689=CARTESIAN_POINT('',(-0.00547799542722218,-0.00998506715547437,0.));
#1690=CARTESIAN_POINT('',(-0.00547799542722218,-0.00998506715547437,0.));
#1691=CARTESIAN_POINT('',(-0.00591635880507593,-0.00974457277101467,0.));
#1692=CARTESIAN_POINT('',(-0.00597079224250192,-0.00924754460190351,0.));
#1693=CARTESIAN_POINT('',(-0.00758846889078041,-0.00942470900843406,0.));
#1694=CARTESIAN_POINT('',(-0.0075884688907804,-0.00942470900843406,0.));
#1695=CARTESIAN_POINT('',(0.,0.,0.));
#1696=CARTESIAN_POINT('',(-0.00777773007720716,-0.0092691377617396,0.));
#1697=CARTESIAN_POINT('',(-0.00732072724784988,-0.00872450299802736,0.));
#1698=CARTESIAN_POINT('',(-0.00732072724784988,-0.00872450299802736,0.));
#1699=CARTESIAN_POINT('',(-0.00770374946940937,-0.00840310919318409,0.));
#1700=CARTESIAN_POINT('',(-0.00766017159803554,-0.00790501184413821,0.));
#1701=CARTESIAN_POINT('',(-0.00928132810423896,-0.00776317902804412,0.));
#1702=CARTESIAN_POINT('',(-0.00928132810423896,-0.00776317902804412,0.));
#1703=CARTESIAN_POINT('',(0.,0.,0.));
#1704=CARTESIAN_POINT('',(-0.0094366022454239,-0.00757367401342708,0.));
#1705=CARTESIAN_POINT('',(-0.00888212762585385,-0.0071286610831238,0.));
#1706=CARTESIAN_POINT('',(-0.00888212762585385,-0.0071286610831238,0.));
#1707=CARTESIAN_POINT('',(-0.00919508936194588,-0.00673871884157736,0.));
#1708=CARTESIAN_POINT('',(-0.00919508936194588,-0.00673871884157736,-1.00000000000002E-6));
#1709=CARTESIAN_POINT('',(-0.00879179596887808,-0.00644316099764852,-1.00000000000002E-6));
#1710=CARTESIAN_POINT('',(-0.00888212762585385,-0.0071286610831238,-1.00000000000002E-6));
#1711=CARTESIAN_POINT('',(0.,0.,0.0005));
#1712=CARTESIAN_POINT('',(0.00776317902804415,-0.00928132810423893,-1.00000000000002E-6));
#1713=CARTESIAN_POINT('',(0.00757367401342711,-0.00943660224542387,-1.00000000000002E-6));
#1714=CARTESIAN_POINT('',(0.,0.,0.0005));
#1715=CARTESIAN_POINT('',(0.00580331443124744,-0.0106175110836804,-1.00000000000002E-6));
#1716=CARTESIAN_POINT('',(0.0055871582201439,-0.0107328310814565,-1.00000000000002E-6));
#1717=CARTESIAN_POINT('',(0.,0.,0.0005));
#1718=CARTESIAN_POINT('',(0.00362043171539412,-0.0115456690665448,-1.00000000000002E-6));
#1719=CARTESIAN_POINT('',(0.00338593106977499,-0.0116166032380697,-1.00000000000002E-6));
#1720=CARTESIAN_POINT('',(0.,0.,0.0005));
#1721=CARTESIAN_POINT('',(0.0012984178390797,-0.0120301334620676,-1.00000000000002E-6));
#1722=CARTESIAN_POINT('',(0.00105458448724664,-0.0120539558469101,-1.00000000000002E-6));
#1723=CARTESIAN_POINT('',(0.,0.,0.0005));
#1724=CARTESIAN_POINT('',(-0.00107349350662944,-0.0120522865752198,-1.00000000000002E-6));
#1725=CARTESIAN_POINT('',(-0.0013172891857088,-0.0120280816924901,-1.00000000000002E-6));
#1726=CARTESIAN_POINT('',(0.,0.,0.0005));
#1727=CARTESIAN_POINT('',(-0.00340415109890091,-0.0116112770742865,-1.00000000000002E-6));
#1728=CARTESIAN_POINT('',(-0.00363854017400174,-0.0115399751040535,-1.00000000000002E-6));
#1729=CARTESIAN_POINT('',(0.,0.,0.0005));
#1730=CARTESIAN_POINT('',(-0.00560398907351154,-0.0107240527070676,-1.00000000000002E-6));
#1731=CARTESIAN_POINT('',(-0.00581996410392463,-0.0106083937440608,-1.00000000000002E-6));
#1732=CARTESIAN_POINT('',(0.,0.,0.0005));
#1733=CARTESIAN_POINT('',(-0.00758846889078041,-0.00942470900843406,-1.00000000000002E-6));
#1734=CARTESIAN_POINT('',(-0.00777773007720716,-0.00926913776173961,-1.00000000000002E-6));
#1735=CARTESIAN_POINT('',(0.,0.,0.0005));
#1736=CARTESIAN_POINT('',(-0.00928132810423896,-0.00776317902804412,-1.00000000000002E-6));
#1737=CARTESIAN_POINT('',(-0.0094366022454239,-0.00757367401342708,-1.00000000000002E-6));
#1738=CARTESIAN_POINT('',(0.,0.,0.0005));
#1739=CARTESIAN_POINT('',(0.00553923133011576,-0.0045996647999027,0.0005));
#1740=CARTESIAN_POINT('',(0.00577494588719236,-0.0043,0.0005));
#1741=CARTESIAN_POINT('',(0.00553923133011576,-0.0045996647999027,0.0005));
#1742=CARTESIAN_POINT('',(0.00659,-0.00641964952314377,0.0005));
#1743=CARTESIAN_POINT('',(0.,0.,0.0005));
#1744=CARTESIAN_POINT('',(0.005,-0.00772269383052313,0.0005));
#1745=CARTESIAN_POINT('',(0.005,-0.00772269383052313,0.0005));
#1746=CARTESIAN_POINT('',(0.005,-0.00784155596804614,0.0005));
#1747=CARTESIAN_POINT('',(0.,0.,0.0005));
#1748=CARTESIAN_POINT('',(-0.005,-0.00784155596804614,0.0005));
#1749=CARTESIAN_POINT('',(-0.005,-0.00772269383052313,0.0005));
#1750=CARTESIAN_POINT('',(-0.005,-0.00772269383052313,0.0005));
#1751=CARTESIAN_POINT('',(0.,0.,0.0005));
#1752=CARTESIAN_POINT('',(-0.00659,-0.00641964952314377,0.0005));
#1753=CARTESIAN_POINT('',(-0.00553923133011576,-0.0045996647999027,0.0005));
#1754=CARTESIAN_POINT('',(-0.00553923133011576,-0.0045996647999027,0.0005));
#1755=CARTESIAN_POINT('',(0.,0.,0.0005));
#1756=CARTESIAN_POINT('',(-0.00577494588719236,-0.0043,0.0005));
#1757=CARTESIAN_POINT('',(-0.00826022314597606,-0.0043,0.0005));
#1758=CARTESIAN_POINT('',(-0.00826022314597606,-0.0043,0.0005));
#1759=CARTESIAN_POINT('',(-0.00826022314597606,-0.0043,0.0005));
#1760=CARTESIAN_POINT('',(-0.00966841808164263,-0.00503305988426184,-1.00000000000002E-6));
#1761=CARTESIAN_POINT('',(0.00826022314597607,-0.0043,0.0005));
#1762=CARTESIAN_POINT('',(0.00873649386454358,-0.00454793084322885,0.0005));
#1763=CARTESIAN_POINT('',(0.00826022314597607,-0.0043,0.0005));
#1764=CARTESIAN_POINT('',(0.00577494588719236,-0.0043,0.0005));
#1765=CARTESIAN_POINT('',(-0.00888212762585385,-0.0071286610831238,-1.00000000000002E-6));
#1766=CARTESIAN_POINT('',(-0.00928132810423896,-0.00776317902804412,-1.00000000000002E-6));
#1767=CARTESIAN_POINT('',(-0.00766017159803554,-0.00790501184413821,-1.00000000000002E-6));
#1768=CARTESIAN_POINT('',(-0.00770374946940937,-0.00840310919318409,-1.00000000000002E-6));
#1769=CARTESIAN_POINT('',(-0.00732072724784988,-0.00872450299802736,-1.00000000000002E-6));
#1770=CARTESIAN_POINT('',(-0.00732072724784988,-0.00872450299802736,-1.00000000000002E-6));
#1771=CARTESIAN_POINT('',(-0.00758846889078041,-0.00942470900843406,-1.00000000000002E-6));
#1772=CARTESIAN_POINT('',(-0.00597079224250192,-0.00924754460190351,-1.00000000000002E-6));
#1773=CARTESIAN_POINT('',(-0.00591635880507593,-0.00974457277101467,-1.00000000000002E-6));
#1774=CARTESIAN_POINT('',(-0.00547799542722218,-0.00998506715547437,-1.00000000000002E-6));
#1775=CARTESIAN_POINT('',(-0.00547799542722218,-0.00998506715547437,-1.00000000000002E-6));
#1776=CARTESIAN_POINT('',(-0.00560398907351154,-0.0107240527070676,-1.00000000000002E-6));
#1777=CARTESIAN_POINT('',(-0.00405195868954781,-0.0102346994067004,-1.00000000000002E-6));
#1778=CARTESIAN_POINT('',(-0.00390160578979567,-0.0107115578820745,-1.00000000000002E-6));
#1779=CARTESIAN_POINT('',(-0.00342474731442155,-0.0108619107818267,-1.00000000000002E-6));
#1780=CARTESIAN_POINT('',(-0.00342474731442155,-0.0108619107818267,-1.00000000000002E-6));
#1781=CARTESIAN_POINT('',(-0.00340415109890091,-0.0116112770742865,-1.00000000000002E-6));
#1782=CARTESIAN_POINT('',(-0.00197741063651898,-0.0108285404529834,-1.00000000000002E-6));
#1783=CARTESIAN_POINT('',(-0.00173691625205929,-0.0112669038308371,-1.00000000000002E-6));
#1784=CARTESIAN_POINT('',(-0.00123988808294813,-0.0113213372682631,-1.00000000000002E-6));
#1785=CARTESIAN_POINT('',(-0.00123988808294813,-0.0113213372682631,-1.00000000000002E-6));
#1786=CARTESIAN_POINT('',(-0.00107349350662944,-0.0120522865752198,-1.00000000000002E-6));
#1787=CARTESIAN_POINT('',(0.0001731281983266,-0.0110062467623736,-1.00000000000002E-6));
#1788=CARTESIAN_POINT('',(0.00049452200316987,-0.0113892689839331,-1.00000000000002E-6));
#1789=CARTESIAN_POINT('',(0.000992619352215745,-0.0113456911125593,-1.00000000000002E-6));
#1790=CARTESIAN_POINT('',(0.000992619352215745,-0.0113456911125593,-1.00000000000002E-6));
#1791=CARTESIAN_POINT('',(0.0012984178390797,-0.0120301334620676,-1.00000000000002E-6));
#1792=CARTESIAN_POINT('',(0.0023170138136019,-0.0107609891810602,-1.00000000000002E-6));
#1793=CARTESIAN_POINT('',(0.00270695605514835,-0.0110739509171522,-1.00000000000002E-6));
#1794=CARTESIAN_POINT('',(0.00318698098234131,-0.0109340364101367,-1.00000000000002E-6));
#1795=CARTESIAN_POINT('',(0.00318698098234131,-0.0109340364101367,-1.00000000000002E-6));
#1796=CARTESIAN_POINT('',(0.00362043171539412,-0.0115456690665448,-1.00000000000002E-6));
#1797=CARTESIAN_POINT('',(0.00437185788741681,-0.0101021928203508,-1.00000000000002E-6));
#1798=CARTESIAN_POINT('',(0.00481536330400592,-0.0103330671269683,-1.00000000000002E-6));
#1799=CARTESIAN_POINT('',(0.00525886872059503,-0.0101021928203508,-1.00000000000002E-6));
#1800=CARTESIAN_POINT('',(0.00525886872059503,-0.0101021928203508,-1.00000000000002E-6));
#1801=CARTESIAN_POINT('',(0.00580331443124744,-0.0106175110836804,-1.00000000000002E-6));
#1802=CARTESIAN_POINT('',(0.00625869391438443,-0.00905517485493036,-1.00000000000002E-6));
#1803=CARTESIAN_POINT('',(0.00673871884157739,-0.00919508936194586,-1.00000000000002E-6));
#1804=CARTESIAN_POINT('',(0.00712866108312383,-0.00888212762585383,-1.00000000000002E-6));
#1805=CARTESIAN_POINT('',(0.00712866108312383,-0.00888212762585383,-1.00000000000002E-6));
#1806=CARTESIAN_POINT('',(0.00776317902804415,-0.00928132810423893,-1.00000000000002E-6));
#1807=CARTESIAN_POINT('',(0.00791999592597633,-0.00748890275891725,-1.00000000000002E-6));
#1808=CARTESIAN_POINT('',(0.,0.,-1.00000000000002E-6));
#1809=CARTESIAN_POINT('',(0.00911057810497608,-0.00598392568412496,-1.00000000000002E-6));
#1810=CARTESIAN_POINT('',(0.00827474525130855,-0.00543494167640707,-1.00000000000002E-6));
#1811=CARTESIAN_POINT('',(0.,0.,-1.00000000000002E-6));
#1812=(
GEOMETRIC_REPRESENTATION_CONTEXT(3)
GLOBAL_UNCERTAINTY_ASSIGNED_CONTEXT((#1813))
GLOBAL_UNIT_ASSIGNED_CONTEXT((#1816,#1815,#1814))
REPRESENTATION_CONTEXT('id2','TOP_LEVEL_ASSEMBLY_PART')
);
#1813=UNCERTAINTY_MEASURE_WITH_UNIT(LENGTH_MEASURE(1.E-8),#1816,
'DISTANCE_ACCURACY_VALUE','Maximum Tolerance applied to model');
#1814=(
NAMED_UNIT(*)
SI_UNIT($,.STERADIAN.)
SOLID_ANGLE_UNIT()
);
#1815=(
NAMED_UNIT(*)
PLANE_ANGLE_UNIT()
SI_UNIT($,.RADIAN.)
);
#1816=(
LENGTH_UNIT()
NAMED_UNIT(*)
SI_UNIT($,.METRE.)
);
#1817=PRODUCT_DEFINITION_SHAPE('','',#1818);
#1818=PRODUCT_DEFINITION('','',#1820,#1819);
#1819=DESIGN_CONTEXT('',#1826,'design');
#1820=PRODUCT_DEFINITION_FORMATION_WITH_SPECIFIED_SOURCE('','',#1822,
 .NOT_KNOWN.);
#1821=PRODUCT_RELATED_PRODUCT_CATEGORY('','',(#1822));
#1822=PRODUCT('id2','id2','id2',(#1824));
#1823=PRODUCT_CATEGORY('','');
#1824=MECHANICAL_CONTEXT('',#1826,'mechanical');
#1825=APPLICATION_PROTOCOL_DEFINITION('international standard',
'config_control_design',2010,#1826);
#1826=APPLICATION_CONTEXT(
'configuration controlled 3D designs of mechanical parts and assemblie
s');
ENDSEC;
END-ISO-10303-21;
