ISO-10303-21;
HEADER;
/* Generated by software containing ST-Developer
 * from STEP Tools, Inc. (www.steptools.com) 
 */
/* OPTION: using custom renumber hook */

FILE_DESCRIPTION(
/* description */ ('STEP AP203'),
/* implementation_level */ '2;1');

FILE_NAME(
/* name */ '6a546443880ffe4da20ebdf8',
/* time_stamp */ '2026-07-13T04:06:28Z',
/* author */ (''),
/* organization */ (''),
/* preprocessor_version */ 'ST-DEVELOPER v20',
/* originating_system */ 'ONSHAPE BY PTC INC, 1.217',
/* authorisation */ '  ');

FILE_SCHEMA (('CONFIG_CONTROL_DESIGN'));
ENDSEC;

DATA;
#10=PROPERTY_DEFINITION_REPRESENTATION(#14,#12);
#11=PROPERTY_DEFINITION_REPRESENTATION(#15,#13);
#12=REPRESENTATION('',(#16),#1594);
#13=REPRESENTATION('',(#17),#1594);
#14=PROPERTY_DEFINITION('pmi validation property','',#1599);
#15=PROPERTY_DEFINITION('pmi validation property','',#1599);
#16=VALUE_REPRESENTATION_ITEM('number of annotations',COUNT_MEASURE(0.));
#17=VALUE_REPRESENTATION_ITEM('number of views',COUNT_MEASURE(0.));
#18=SHAPE_REPRESENTATION_RELATIONSHIP('','',#947,#19);
#19=ADVANCED_BREP_SHAPE_REPRESENTATION('',(#945),#1594);
#20=CYLINDRICAL_SURFACE('',#1011,0.00065);
#21=CYLINDRICAL_SURFACE('',#1013,0.0001);
#22=CYLINDRICAL_SURFACE('',#1015,0.0001);
#23=CYLINDRICAL_SURFACE('',#1022,0.0001);
#24=CYLINDRICAL_SURFACE('',#1024,0.0001);
#25=CYLINDRICAL_SURFACE('',#1026,0.00065);
#26=CYLINDRICAL_SURFACE('',#1031,0.000299999999999995);
#27=CYLINDRICAL_SURFACE('',#1033,0.00045);
#28=CYLINDRICAL_SURFACE('',#1035,0.00045);
#29=CYLINDRICAL_SURFACE('',#1036,0.00045);
#30=CYLINDRICAL_SURFACE('',#1038,0.00045);
#31=CYLINDRICAL_SURFACE('',#1040,0.0003);
#32=CYLINDRICAL_SURFACE('',#1041,0.002);
#33=CYLINDRICAL_SURFACE('',#1042,0.002);
#34=CYLINDRICAL_SURFACE('',#1043,0.0016);
#35=CYLINDRICAL_SURFACE('',#1044,0.0007);
#36=CYLINDRICAL_SURFACE('',#1045,0.0007);
#37=CYLINDRICAL_SURFACE('',#1046,0.00115);
#38=CYLINDRICAL_SURFACE('',#1047,0.00115);
#39=LINE('',#1341,#127);
#40=LINE('',#1343,#128);
#41=LINE('',#1345,#129);
#42=LINE('',#1347,#130);
#43=LINE('',#1352,#131);
#44=LINE('',#1354,#132);
#45=LINE('',#1356,#133);
#46=LINE('',#1357,#134);
#47=LINE('',#1359,#135);
#48=LINE('',#1362,#136);
#49=LINE('',#1364,#137);
#50=LINE('',#1366,#138);
#51=LINE('',#1368,#139);
#52=LINE('',#1371,#140);
#53=LINE('',#1373,#141);
#54=LINE('',#1375,#142);
#55=LINE('',#1379,#143);
#56=LINE('',#1384,#144);
#57=LINE('',#1386,#145);
#58=LINE('',#1388,#146);
#59=LINE('',#1392,#147);
#60=LINE('',#1394,#148);
#61=LINE('',#1400,#149);
#62=LINE('',#1402,#150);
#63=LINE('',#1404,#151);
#64=LINE('',#1406,#152);
#65=LINE('',#1408,#153);
#66=LINE('',#1410,#154);
#67=LINE('',#1412,#155);
#68=LINE('',#1415,#156);
#69=LINE('',#1419,#157);
#70=LINE('',#1421,#158);
#71=LINE('',#1427,#159);
#72=LINE('',#1429,#160);
#73=LINE('',#1431,#161);
#74=LINE('',#1433,#162);
#75=LINE('',#1438,#163);
#76=LINE('',#1441,#164);
#77=LINE('',#1443,#165);
#78=LINE('',#1445,#166);
#79=LINE('',#1449,#167);
#80=LINE('',#1453,#168);
#81=LINE('',#1455,#169);
#82=LINE('',#1457,#170);
#83=LINE('',#1461,#171);
#84=LINE('',#1465,#172);
#85=LINE('',#1467,#173);
#86=LINE('',#1469,#174);
#87=LINE('',#1475,#175);
#88=LINE('',#1477,#176);
#89=LINE('',#1479,#177);
#90=LINE('',#1481,#178);
#91=LINE('',#1487,#179);
#92=LINE('',#1489,#180);
#93=LINE('',#1491,#181);
#94=LINE('',#1495,#182);
#95=LINE('',#1499,#183);
#96=LINE('',#1505,#184);
#97=LINE('',#1506,#185);
#98=LINE('',#1508,#186);
#99=LINE('',#1514,#187);
#100=LINE('',#1515,#188);
#101=LINE('',#1517,#189);
#102=LINE('',#1523,#190);
#103=LINE('',#1524,#191);
#104=LINE('',#1526,#192);
#105=LINE('',#1532,#193);
#106=LINE('',#1533,#194);
#107=LINE('',#1535,#195);
#108=LINE('',#1537,#196);
#109=LINE('',#1539,#197);
#110=LINE('',#1541,#198);
#111=LINE('',#1543,#199);
#112=LINE('',#1551,#200);
#113=LINE('',#1555,#201);
#114=LINE('',#1557,#202);
#115=LINE('',#1559,#203);
#116=LINE('',#1561,#204);
#117=LINE('',#1563,#205);
#118=LINE('',#1568,#206);
#119=LINE('',#1570,#207);
#120=LINE('',#1572,#208);
#121=LINE('',#1574,#209);
#122=LINE('',#1576,#210);
#123=LINE('',#1579,#211);
#124=LINE('',#1581,#212);
#125=LINE('',#1583,#213);
#126=LINE('',#1585,#214);
#127=VECTOR('',#1054,1.);
#128=VECTOR('',#1055,1.);
#129=VECTOR('',#1056,1.);
#130=VECTOR('',#1059,1.);
#131=VECTOR('',#1062,1.);
#132=VECTOR('',#1063,1.);
#133=VECTOR('',#1066,1.);
#134=VECTOR('',#1067,1.);
#135=VECTOR('',#1070,1.);
#136=VECTOR('',#1071,1.);
#137=VECTOR('',#1072,1.);
#138=VECTOR('',#1073,1.);
#139=VECTOR('',#1076,1.);
#140=VECTOR('',#1077,1.);
#141=VECTOR('',#1078,1.);
#142=VECTOR('',#1079,1.);
#143=VECTOR('',#1084,1.);
#144=VECTOR('',#1087,1.);
#145=VECTOR('',#1088,1.);
#146=VECTOR('',#1089,1.);
#147=VECTOR('',#1092,1.);
#148=VECTOR('',#1093,1.);
#149=VECTOR('',#1100,1.);
#150=VECTOR('',#1101,1.);
#151=VECTOR('',#1102,1.);
#152=VECTOR('',#1105,1.);
#153=VECTOR('',#1106,1.);
#154=VECTOR('',#1107,1.);
#155=VECTOR('',#1110,1.);
#156=VECTOR('',#1113,1.);
#157=VECTOR('',#1118,1.);
#158=VECTOR('',#1121,1.);
#159=VECTOR('',#1128,1.);
#160=VECTOR('',#1129,1.);
#161=VECTOR('',#1130,1.);
#162=VECTOR('',#1133,1.);
#163=VECTOR('',#1136,1.);
#164=VECTOR('',#1141,1.);
#165=VECTOR('',#1142,1.);
#166=VECTOR('',#1143,1.);
#167=VECTOR('',#1148,1.);
#168=VECTOR('',#1153,1.);
#169=VECTOR('',#1154,1.);
#170=VECTOR('',#1155,1.);
#171=VECTOR('',#1160,1.);
#172=VECTOR('',#1165,1.);
#173=VECTOR('',#1166,1.);
#174=VECTOR('',#1169,1.);
#175=VECTOR('',#1176,1.);
#176=VECTOR('',#1177,1.);
#177=VECTOR('',#1178,1.);
#178=VECTOR('',#1181,1.);
#179=VECTOR('',#1188,1.);
#180=VECTOR('',#1189,1.);
#181=VECTOR('',#1190,1.);
#182=VECTOR('',#1195,1.);
#183=VECTOR('',#1200,1.);
#184=VECTOR('',#1207,1.);
#185=VECTOR('',#1208,1.);
#186=VECTOR('',#1211,1.);
#187=VECTOR('',#1218,1.);
#188=VECTOR('',#1219,1.);
#189=VECTOR('',#1222,1.);
#190=VECTOR('',#1229,1.);
#191=VECTOR('',#1230,1.);
#192=VECTOR('',#1233,1.);
#193=VECTOR('',#1240,1.);
#194=VECTOR('',#1241,1.);
#195=VECTOR('',#1244,1.);
#196=VECTOR('',#1247,1.);
#197=VECTOR('',#1250,1.);
#198=VECTOR('',#1253,1.);
#199=VECTOR('',#1256,1.);
#200=VECTOR('',#1265,1.);
#201=VECTOR('',#1272,1.);
#202=VECTOR('',#1275,1.);
#203=VECTOR('',#1278,1.);
#204=VECTOR('',#1281,1.);
#205=VECTOR('',#1284,1.);
#206=VECTOR('',#1293,1.);
#207=VECTOR('',#1296,1.);
#208=VECTOR('',#1299,1.);
#209=VECTOR('',#1302,1.);
#210=VECTOR('',#1305,1.);
#211=VECTOR('',#1310,1.);
#212=VECTOR('',#1313,1.);
#213=VECTOR('',#1316,1.);
#214=VECTOR('',#1319,1.);
#215=ORIENTED_EDGE('',*,*,#467,.T.);
#216=ORIENTED_EDGE('',*,*,#468,.F.);
#217=ORIENTED_EDGE('',*,*,#469,.T.);
#218=ORIENTED_EDGE('',*,*,#470,.T.);
#219=ORIENTED_EDGE('',*,*,#471,.T.);
#220=ORIENTED_EDGE('',*,*,#472,.F.);
#221=ORIENTED_EDGE('',*,*,#473,.F.);
#222=ORIENTED_EDGE('',*,*,#474,.F.);
#223=ORIENTED_EDGE('',*,*,#473,.T.);
#224=ORIENTED_EDGE('',*,*,#475,.T.);
#225=ORIENTED_EDGE('',*,*,#470,.F.);
#226=ORIENTED_EDGE('',*,*,#476,.T.);
#227=ORIENTED_EDGE('',*,*,#477,.F.);
#228=ORIENTED_EDGE('',*,*,#478,.F.);
#229=ORIENTED_EDGE('',*,*,#479,.T.);
#230=ORIENTED_EDGE('',*,*,#480,.T.);
#231=ORIENTED_EDGE('',*,*,#481,.T.);
#232=ORIENTED_EDGE('',*,*,#482,.T.);
#233=ORIENTED_EDGE('',*,*,#483,.T.);
#234=ORIENTED_EDGE('',*,*,#484,.F.);
#235=ORIENTED_EDGE('',*,*,#485,.F.);
#236=ORIENTED_EDGE('',*,*,#486,.T.);
#237=ORIENTED_EDGE('',*,*,#487,.T.);
#238=ORIENTED_EDGE('',*,*,#488,.T.);
#239=ORIENTED_EDGE('',*,*,#489,.F.);
#240=ORIENTED_EDGE('',*,*,#490,.F.);
#241=ORIENTED_EDGE('',*,*,#491,.T.);
#242=ORIENTED_EDGE('',*,*,#492,.F.);
#243=ORIENTED_EDGE('',*,*,#493,.T.);
#244=ORIENTED_EDGE('',*,*,#494,.F.);
#245=ORIENTED_EDGE('',*,*,#495,.F.);
#246=ORIENTED_EDGE('',*,*,#496,.F.);
#247=ORIENTED_EDGE('',*,*,#497,.T.);
#248=ORIENTED_EDGE('',*,*,#498,.T.);
#249=ORIENTED_EDGE('',*,*,#488,.F.);
#250=ORIENTED_EDGE('',*,*,#499,.F.);
#251=ORIENTED_EDGE('',*,*,#500,.F.);
#252=ORIENTED_EDGE('',*,*,#501,.T.);
#253=ORIENTED_EDGE('',*,*,#492,.T.);
#254=ORIENTED_EDGE('',*,*,#502,.F.);
#255=ORIENTED_EDGE('',*,*,#503,.F.);
#256=ORIENTED_EDGE('',*,*,#504,.F.);
#257=ORIENTED_EDGE('',*,*,#505,.T.);
#258=ORIENTED_EDGE('',*,*,#506,.F.);
#259=ORIENTED_EDGE('',*,*,#471,.F.);
#260=ORIENTED_EDGE('',*,*,#502,.T.);
#261=ORIENTED_EDGE('',*,*,#468,.T.);
#262=ORIENTED_EDGE('',*,*,#507,.F.);
#263=ORIENTED_EDGE('',*,*,#508,.T.);
#264=ORIENTED_EDGE('',*,*,#476,.F.);
#265=ORIENTED_EDGE('',*,*,#509,.F.);
#266=ORIENTED_EDGE('',*,*,#510,.T.);
#267=ORIENTED_EDGE('',*,*,#507,.T.);
#268=ORIENTED_EDGE('',*,*,#511,.F.);
#269=ORIENTED_EDGE('',*,*,#512,.T.);
#270=ORIENTED_EDGE('',*,*,#513,.F.);
#271=ORIENTED_EDGE('',*,*,#514,.F.);
#272=ORIENTED_EDGE('',*,*,#515,.F.);
#273=ORIENTED_EDGE('',*,*,#516,.T.);
#274=ORIENTED_EDGE('',*,*,#517,.F.);
#275=ORIENTED_EDGE('',*,*,#513,.T.);
#276=ORIENTED_EDGE('',*,*,#518,.T.);
#277=ORIENTED_EDGE('',*,*,#519,.T.);
#278=ORIENTED_EDGE('',*,*,#498,.F.);
#279=ORIENTED_EDGE('',*,*,#520,.T.);
#280=ORIENTED_EDGE('',*,*,#521,.F.);
#281=ORIENTED_EDGE('',*,*,#522,.F.);
#282=ORIENTED_EDGE('',*,*,#523,.T.);
#283=ORIENTED_EDGE('',*,*,#486,.F.);
#284=ORIENTED_EDGE('',*,*,#524,.T.);
#285=ORIENTED_EDGE('',*,*,#525,.T.);
#286=ORIENTED_EDGE('',*,*,#501,.F.);
#287=ORIENTED_EDGE('',*,*,#526,.F.);
#288=ORIENTED_EDGE('',*,*,#527,.F.);
#289=ORIENTED_EDGE('',*,*,#528,.T.);
#290=ORIENTED_EDGE('',*,*,#529,.T.);
#291=ORIENTED_EDGE('',*,*,#490,.T.);
#292=ORIENTED_EDGE('',*,*,#515,.T.);
#293=ORIENTED_EDGE('',*,*,#530,.F.);
#294=ORIENTED_EDGE('',*,*,#531,.F.);
#295=ORIENTED_EDGE('',*,*,#532,.T.);
#296=ORIENTED_EDGE('',*,*,#524,.F.);
#297=ORIENTED_EDGE('',*,*,#533,.F.);
#298=ORIENTED_EDGE('',*,*,#534,.T.);
#299=ORIENTED_EDGE('',*,*,#531,.T.);
#300=ORIENTED_EDGE('',*,*,#535,.F.);
#301=ORIENTED_EDGE('',*,*,#536,.T.);
#302=ORIENTED_EDGE('',*,*,#537,.F.);
#303=ORIENTED_EDGE('',*,*,#538,.F.);
#304=ORIENTED_EDGE('',*,*,#483,.F.);
#305=ORIENTED_EDGE('',*,*,#539,.T.);
#306=ORIENTED_EDGE('',*,*,#540,.F.);
#307=ORIENTED_EDGE('',*,*,#537,.T.);
#308=ORIENTED_EDGE('',*,*,#541,.T.);
#309=ORIENTED_EDGE('',*,*,#542,.T.);
#310=ORIENTED_EDGE('',*,*,#480,.F.);
#311=ORIENTED_EDGE('',*,*,#543,.T.);
#312=ORIENTED_EDGE('',*,*,#544,.F.);
#313=ORIENTED_EDGE('',*,*,#545,.F.);
#314=ORIENTED_EDGE('',*,*,#546,.F.);
#315=ORIENTED_EDGE('',*,*,#547,.F.);
#316=ORIENTED_EDGE('',*,*,#519,.F.);
#317=ORIENTED_EDGE('',*,*,#548,.T.);
#318=ORIENTED_EDGE('',*,*,#549,.F.);
#319=ORIENTED_EDGE('',*,*,#546,.T.);
#320=ORIENTED_EDGE('',*,*,#550,.T.);
#321=ORIENTED_EDGE('',*,*,#504,.T.);
#322=ORIENTED_EDGE('',*,*,#551,.F.);
#323=ORIENTED_EDGE('',*,*,#552,.T.);
#324=ORIENTED_EDGE('',*,*,#512,.F.);
#325=ORIENTED_EDGE('',*,*,#553,.F.);
#326=ORIENTED_EDGE('',*,*,#554,.T.);
#327=ORIENTED_EDGE('',*,*,#551,.T.);
#328=ORIENTED_EDGE('',*,*,#555,.F.);
#329=ORIENTED_EDGE('',*,*,#521,.T.);
#330=ORIENTED_EDGE('',*,*,#556,.F.);
#331=ORIENTED_EDGE('',*,*,#557,.F.);
#332=ORIENTED_EDGE('',*,*,#542,.F.);
#333=ORIENTED_EDGE('',*,*,#558,.T.);
#334=ORIENTED_EDGE('',*,*,#559,.F.);
#335=ORIENTED_EDGE('',*,*,#556,.T.);
#336=ORIENTED_EDGE('',*,*,#560,.T.);
#337=ORIENTED_EDGE('',*,*,#527,.T.);
#338=ORIENTED_EDGE('',*,*,#561,.F.);
#339=ORIENTED_EDGE('',*,*,#562,.T.);
#340=ORIENTED_EDGE('',*,*,#536,.F.);
#341=ORIENTED_EDGE('',*,*,#563,.F.);
#342=ORIENTED_EDGE('',*,*,#564,.T.);
#343=ORIENTED_EDGE('',*,*,#561,.T.);
#344=ORIENTED_EDGE('',*,*,#565,.F.);
#345=ORIENTED_EDGE('',*,*,#544,.T.);
#346=ORIENTED_EDGE('',*,*,#508,.F.);
#347=ORIENTED_EDGE('',*,*,#566,.F.);
#348=ORIENTED_EDGE('',*,*,#503,.T.);
#349=ORIENTED_EDGE('',*,*,#474,.T.);
#350=ORIENTED_EDGE('',*,*,#510,.F.);
#351=ORIENTED_EDGE('',*,*,#567,.F.);
#352=ORIENTED_EDGE('',*,*,#549,.T.);
#353=ORIENTED_EDGE('',*,*,#566,.T.);
#354=ORIENTED_EDGE('',*,*,#552,.F.);
#355=ORIENTED_EDGE('',*,*,#568,.F.);
#356=ORIENTED_EDGE('',*,*,#547,.T.);
#357=ORIENTED_EDGE('',*,*,#567,.T.);
#358=ORIENTED_EDGE('',*,*,#554,.F.);
#359=ORIENTED_EDGE('',*,*,#569,.F.);
#360=ORIENTED_EDGE('',*,*,#517,.T.);
#361=ORIENTED_EDGE('',*,*,#568,.T.);
#362=ORIENTED_EDGE('',*,*,#520,.F.);
#363=ORIENTED_EDGE('',*,*,#570,.F.);
#364=ORIENTED_EDGE('',*,*,#514,.T.);
#365=ORIENTED_EDGE('',*,*,#569,.T.);
#366=ORIENTED_EDGE('',*,*,#571,.F.);
#367=ORIENTED_EDGE('',*,*,#572,.F.);
#368=ORIENTED_EDGE('',*,*,#573,.F.);
#369=ORIENTED_EDGE('',*,*,#525,.F.);
#370=ORIENTED_EDGE('',*,*,#574,.F.);
#371=ORIENTED_EDGE('',*,*,#500,.T.);
#372=ORIENTED_EDGE('',*,*,#575,.F.);
#373=ORIENTED_EDGE('',*,*,#530,.T.);
#374=ORIENTED_EDGE('',*,*,#570,.T.);
#375=ORIENTED_EDGE('',*,*,#497,.F.);
#376=ORIENTED_EDGE('',*,*,#576,.F.);
#377=ORIENTED_EDGE('',*,*,#532,.F.);
#378=ORIENTED_EDGE('',*,*,#577,.F.);
#379=ORIENTED_EDGE('',*,*,#526,.T.);
#380=ORIENTED_EDGE('',*,*,#574,.T.);
#381=ORIENTED_EDGE('',*,*,#534,.F.);
#382=ORIENTED_EDGE('',*,*,#578,.F.);
#383=ORIENTED_EDGE('',*,*,#559,.T.);
#384=ORIENTED_EDGE('',*,*,#577,.T.);
#385=ORIENTED_EDGE('',*,*,#562,.F.);
#386=ORIENTED_EDGE('',*,*,#579,.F.);
#387=ORIENTED_EDGE('',*,*,#557,.T.);
#388=ORIENTED_EDGE('',*,*,#578,.T.);
#389=ORIENTED_EDGE('',*,*,#564,.F.);
#390=ORIENTED_EDGE('',*,*,#580,.F.);
#391=ORIENTED_EDGE('',*,*,#540,.T.);
#392=ORIENTED_EDGE('',*,*,#579,.T.);
#393=ORIENTED_EDGE('',*,*,#543,.F.);
#394=ORIENTED_EDGE('',*,*,#581,.F.);
#395=ORIENTED_EDGE('',*,*,#538,.T.);
#396=ORIENTED_EDGE('',*,*,#580,.T.);
#397=ORIENTED_EDGE('',*,*,#479,.F.);
#398=ORIENTED_EDGE('',*,*,#582,.T.);
#399=ORIENTED_EDGE('',*,*,#484,.T.);
#400=ORIENTED_EDGE('',*,*,#581,.T.);
#401=ORIENTED_EDGE('',*,*,#482,.F.);
#402=ORIENTED_EDGE('',*,*,#583,.F.);
#403=ORIENTED_EDGE('',*,*,#477,.T.);
#404=ORIENTED_EDGE('',*,*,#584,.F.);
#405=ORIENTED_EDGE('',*,*,#545,.T.);
#406=ORIENTED_EDGE('',*,*,#585,.F.);
#407=ORIENTED_EDGE('',*,*,#539,.F.);
#408=ORIENTED_EDGE('',*,*,#584,.T.);
#409=ORIENTED_EDGE('',*,*,#565,.T.);
#410=ORIENTED_EDGE('',*,*,#586,.F.);
#411=ORIENTED_EDGE('',*,*,#541,.F.);
#412=ORIENTED_EDGE('',*,*,#585,.T.);
#413=ORIENTED_EDGE('',*,*,#563,.T.);
#414=ORIENTED_EDGE('',*,*,#587,.F.);
#415=ORIENTED_EDGE('',*,*,#558,.F.);
#416=ORIENTED_EDGE('',*,*,#586,.T.);
#417=ORIENTED_EDGE('',*,*,#535,.T.);
#418=ORIENTED_EDGE('',*,*,#588,.F.);
#419=ORIENTED_EDGE('',*,*,#560,.F.);
#420=ORIENTED_EDGE('',*,*,#587,.T.);
#421=ORIENTED_EDGE('',*,*,#533,.T.);
#422=ORIENTED_EDGE('',*,*,#493,.F.);
#423=ORIENTED_EDGE('',*,*,#528,.F.);
#424=ORIENTED_EDGE('',*,*,#588,.T.);
#425=ORIENTED_EDGE('',*,*,#522,.T.);
#426=ORIENTED_EDGE('',*,*,#589,.F.);
#427=ORIENTED_EDGE('',*,*,#516,.F.);
#428=ORIENTED_EDGE('',*,*,#489,.T.);
#429=ORIENTED_EDGE('',*,*,#555,.T.);
#430=ORIENTED_EDGE('',*,*,#590,.F.);
#431=ORIENTED_EDGE('',*,*,#518,.F.);
#432=ORIENTED_EDGE('',*,*,#589,.T.);
#433=ORIENTED_EDGE('',*,*,#553,.T.);
#434=ORIENTED_EDGE('',*,*,#591,.F.);
#435=ORIENTED_EDGE('',*,*,#548,.F.);
#436=ORIENTED_EDGE('',*,*,#590,.T.);
#437=ORIENTED_EDGE('',*,*,#511,.T.);
#438=ORIENTED_EDGE('',*,*,#592,.F.);
#439=ORIENTED_EDGE('',*,*,#550,.F.);
#440=ORIENTED_EDGE('',*,*,#591,.T.);
#441=ORIENTED_EDGE('',*,*,#509,.T.);
#442=ORIENTED_EDGE('',*,*,#469,.F.);
#443=ORIENTED_EDGE('',*,*,#505,.F.);
#444=ORIENTED_EDGE('',*,*,#592,.T.);
#445=ORIENTED_EDGE('',*,*,#491,.F.);
#446=ORIENTED_EDGE('',*,*,#529,.F.);
#447=ORIENTED_EDGE('',*,*,#575,.T.);
#448=ORIENTED_EDGE('',*,*,#499,.T.);
#449=ORIENTED_EDGE('',*,*,#487,.F.);
#450=ORIENTED_EDGE('',*,*,#523,.F.);
#451=ORIENTED_EDGE('',*,*,#576,.T.);
#452=ORIENTED_EDGE('',*,*,#496,.T.);
#453=ORIENTED_EDGE('',*,*,#494,.T.);
#454=ORIENTED_EDGE('',*,*,#573,.T.);
#455=ORIENTED_EDGE('',*,*,#495,.T.);
#456=ORIENTED_EDGE('',*,*,#572,.T.);
#457=ORIENTED_EDGE('',*,*,#485,.T.);
#458=ORIENTED_EDGE('',*,*,#571,.T.);
#459=ORIENTED_EDGE('',*,*,#583,.T.);
#460=ORIENTED_EDGE('',*,*,#481,.F.);
#461=ORIENTED_EDGE('',*,*,#582,.F.);
#462=ORIENTED_EDGE('',*,*,#478,.T.);
#463=ORIENTED_EDGE('',*,*,#475,.F.);
#464=ORIENTED_EDGE('',*,*,#472,.T.);
#465=ORIENTED_EDGE('',*,*,#506,.T.);
#466=ORIENTED_EDGE('',*,*,#467,.F.);
#467=EDGE_CURVE('',#593,#594,#663,.T.);
#468=EDGE_CURVE('',#595,#594,#39,.T.);
#469=EDGE_CURVE('',#595,#596,#40,.T.);
#470=EDGE_CURVE('',#596,#593,#41,.T.);
#471=EDGE_CURVE('',#597,#598,#42,.T.);
#472=EDGE_CURVE('',#599,#598,#664,.T.);
#473=EDGE_CURVE('',#600,#599,#43,.T.);
#474=EDGE_CURVE('',#597,#600,#44,.T.);
#475=EDGE_CURVE('',#599,#593,#45,.T.);
#476=EDGE_CURVE('',#596,#600,#46,.T.);
#477=EDGE_CURVE('',#601,#602,#47,.T.);
#478=EDGE_CURVE('',#603,#601,#48,.T.);
#479=EDGE_CURVE('',#603,#604,#49,.T.);
#480=EDGE_CURVE('',#604,#602,#50,.T.);
#481=EDGE_CURVE('',#605,#606,#51,.T.);
#482=EDGE_CURVE('',#606,#607,#52,.T.);
#483=EDGE_CURVE('',#607,#608,#53,.T.);
#484=EDGE_CURVE('',#605,#608,#54,.T.);
#485=EDGE_CURVE('',#609,#609,#665,.T.);
#486=EDGE_CURVE('',#610,#611,#55,.T.);
#487=EDGE_CURVE('',#611,#612,#666,.T.);
#488=EDGE_CURVE('',#612,#613,#56,.T.);
#489=EDGE_CURVE('',#614,#613,#57,.T.);
#490=EDGE_CURVE('',#615,#614,#58,.T.);
#491=EDGE_CURVE('',#615,#616,#667,.T.);
#492=EDGE_CURVE('',#617,#616,#59,.T.);
#493=EDGE_CURVE('',#617,#610,#60,.T.);
#494=EDGE_CURVE('',#618,#618,#668,.T.);
#495=EDGE_CURVE('',#619,#619,#669,.T.);
#496=EDGE_CURVE('',#620,#612,#61,.T.);
#497=EDGE_CURVE('',#620,#621,#62,.T.);
#498=EDGE_CURVE('',#621,#613,#63,.T.);
#499=EDGE_CURVE('',#622,#616,#64,.T.);
#500=EDGE_CURVE('',#623,#622,#65,.T.);
#501=EDGE_CURVE('',#623,#617,#66,.T.);
#502=EDGE_CURVE('',#597,#595,#67,.T.);
#503=EDGE_CURVE('',#624,#597,#670,.T.);
#504=EDGE_CURVE('',#625,#624,#68,.T.);
#505=EDGE_CURVE('',#625,#595,#671,.F.);
#506=EDGE_CURVE('',#598,#594,#69,.T.);
#507=EDGE_CURVE('',#626,#627,#70,.T.);
#508=EDGE_CURVE('',#626,#600,#672,.T.);
#509=EDGE_CURVE('',#627,#596,#673,.F.);
#510=EDGE_CURVE('',#628,#626,#71,.T.);
#511=EDGE_CURVE('',#629,#627,#72,.T.);
#512=EDGE_CURVE('',#629,#628,#73,.T.);
#513=EDGE_CURVE('',#630,#631,#74,.T.);
#514=EDGE_CURVE('',#632,#630,#674,.T.);
#515=EDGE_CURVE('',#614,#632,#75,.T.);
#516=EDGE_CURVE('',#614,#631,#675,.T.);
#517=EDGE_CURVE('',#630,#633,#76,.T.);
#518=EDGE_CURVE('',#631,#634,#77,.T.);
#519=EDGE_CURVE('',#634,#633,#78,.T.);
#520=EDGE_CURVE('',#621,#635,#676,.T.);
#521=EDGE_CURVE('',#636,#635,#79,.T.);
#522=EDGE_CURVE('',#613,#636,#677,.T.);
#523=EDGE_CURVE('',#637,#611,#80,.T.);
#524=EDGE_CURVE('',#610,#638,#81,.T.);
#525=EDGE_CURVE('',#638,#637,#82,.T.);
#526=EDGE_CURVE('',#639,#623,#678,.T.);
#527=EDGE_CURVE('',#640,#639,#83,.T.);
#528=EDGE_CURVE('',#640,#617,#679,.T.);
#529=EDGE_CURVE('',#641,#615,#84,.T.);
#530=EDGE_CURVE('',#641,#632,#85,.T.);
#531=EDGE_CURVE('',#642,#643,#86,.T.);
#532=EDGE_CURVE('',#642,#638,#680,.T.);
#533=EDGE_CURVE('',#643,#610,#681,.T.);
#534=EDGE_CURVE('',#644,#642,#87,.T.);
#535=EDGE_CURVE('',#645,#643,#88,.T.);
#536=EDGE_CURVE('',#645,#644,#89,.T.);
#537=EDGE_CURVE('',#646,#647,#90,.T.);
#538=EDGE_CURVE('',#608,#646,#682,.T.);
#539=EDGE_CURVE('',#607,#647,#683,.F.);
#540=EDGE_CURVE('',#646,#648,#91,.T.);
#541=EDGE_CURVE('',#647,#649,#92,.T.);
#542=EDGE_CURVE('',#649,#648,#93,.T.);
#543=EDGE_CURVE('',#604,#650,#684,.T.);
#544=EDGE_CURVE('',#651,#650,#94,.T.);
#545=EDGE_CURVE('',#602,#651,#685,.F.);
#546=EDGE_CURVE('',#652,#653,#95,.T.);
#547=EDGE_CURVE('',#633,#652,#686,.T.);
#548=EDGE_CURVE('',#634,#653,#687,.T.);
#549=EDGE_CURVE('',#652,#624,#96,.T.);
#550=EDGE_CURVE('',#653,#625,#97,.T.);
#551=EDGE_CURVE('',#654,#655,#98,.T.);
#552=EDGE_CURVE('',#654,#628,#688,.T.);
#553=EDGE_CURVE('',#655,#629,#689,.T.);
#554=EDGE_CURVE('',#635,#654,#99,.T.);
#555=EDGE_CURVE('',#636,#655,#100,.T.);
#556=EDGE_CURVE('',#656,#657,#101,.T.);
#557=EDGE_CURVE('',#648,#656,#690,.T.);
#558=EDGE_CURVE('',#649,#657,#691,.T.);
#559=EDGE_CURVE('',#656,#639,#102,.T.);
#560=EDGE_CURVE('',#657,#640,#103,.T.);
#561=EDGE_CURVE('',#658,#659,#104,.T.);
#562=EDGE_CURVE('',#658,#644,#692,.T.);
#563=EDGE_CURVE('',#659,#645,#693,.T.);
#564=EDGE_CURVE('',#650,#658,#105,.T.);
#565=EDGE_CURVE('',#651,#659,#106,.T.);
#566=EDGE_CURVE('',#624,#626,#107,.T.);
#567=EDGE_CURVE('',#652,#628,#108,.T.);
#568=EDGE_CURVE('',#633,#654,#109,.T.);
#569=EDGE_CURVE('',#630,#635,#110,.T.);
#570=EDGE_CURVE('',#632,#621,#111,.T.);
#571=EDGE_CURVE('',#660,#660,#694,.T.);
#572=EDGE_CURVE('',#661,#661,#695,.T.);
#573=EDGE_CURVE('',#662,#662,#696,.T.);
#574=EDGE_CURVE('',#623,#638,#112,.T.);
#575=EDGE_CURVE('',#641,#622,#697,.T.);
#576=EDGE_CURVE('',#637,#620,#698,.T.);
#577=EDGE_CURVE('',#639,#642,#113,.T.);
#578=EDGE_CURVE('',#656,#644,#114,.T.);
#579=EDGE_CURVE('',#648,#658,#115,.T.);
#580=EDGE_CURVE('',#646,#650,#116,.T.);
#581=EDGE_CURVE('',#608,#604,#117,.T.);
#582=EDGE_CURVE('',#603,#605,#699,.T.);
#583=EDGE_CURVE('',#601,#606,#700,.T.);
#584=EDGE_CURVE('',#607,#602,#118,.T.);
#585=EDGE_CURVE('',#647,#651,#119,.T.);
#586=EDGE_CURVE('',#649,#659,#120,.T.);
#587=EDGE_CURVE('',#657,#645,#121,.T.);
#588=EDGE_CURVE('',#640,#643,#122,.T.);
#589=EDGE_CURVE('',#631,#636,#123,.T.);
#590=EDGE_CURVE('',#634,#655,#124,.T.);
#591=EDGE_CURVE('',#653,#629,#125,.T.);
#592=EDGE_CURVE('',#625,#627,#126,.T.);
#593=VERTEX_POINT('',#1339);
#594=VERTEX_POINT('',#1340);
#595=VERTEX_POINT('',#1342);
#596=VERTEX_POINT('',#1344);
#597=VERTEX_POINT('',#1348);
#598=VERTEX_POINT('',#1349);
#599=VERTEX_POINT('',#1351);
#600=VERTEX_POINT('',#1353);
#601=VERTEX_POINT('',#1360);
#602=VERTEX_POINT('',#1361);
#603=VERTEX_POINT('',#1363);
#604=VERTEX_POINT('',#1365);
#605=VERTEX_POINT('',#1369);
#606=VERTEX_POINT('',#1370);
#607=VERTEX_POINT('',#1372);
#608=VERTEX_POINT('',#1374);
#609=VERTEX_POINT('',#1378);
#610=VERTEX_POINT('',#1380);
#611=VERTEX_POINT('',#1381);
#612=VERTEX_POINT('',#1383);
#613=VERTEX_POINT('',#1385);
#614=VERTEX_POINT('',#1387);
#615=VERTEX_POINT('',#1389);
#616=VERTEX_POINT('',#1391);
#617=VERTEX_POINT('',#1393);
#618=VERTEX_POINT('',#1396);
#619=VERTEX_POINT('',#1398);
#620=VERTEX_POINT('',#1401);
#621=VERTEX_POINT('',#1403);
#622=VERTEX_POINT('',#1407);
#623=VERTEX_POINT('',#1409);
#624=VERTEX_POINT('',#1414);
#625=VERTEX_POINT('',#1416);
#626=VERTEX_POINT('',#1422);
#627=VERTEX_POINT('',#1423);
#628=VERTEX_POINT('',#1428);
#629=VERTEX_POINT('',#1430);
#630=VERTEX_POINT('',#1434);
#631=VERTEX_POINT('',#1435);
#632=VERTEX_POINT('',#1437);
#633=VERTEX_POINT('',#1442);
#634=VERTEX_POINT('',#1444);
#635=VERTEX_POINT('',#1448);
#636=VERTEX_POINT('',#1450);
#637=VERTEX_POINT('',#1454);
#638=VERTEX_POINT('',#1456);
#639=VERTEX_POINT('',#1460);
#640=VERTEX_POINT('',#1462);
#641=VERTEX_POINT('',#1466);
#642=VERTEX_POINT('',#1470);
#643=VERTEX_POINT('',#1471);
#644=VERTEX_POINT('',#1476);
#645=VERTEX_POINT('',#1478);
#646=VERTEX_POINT('',#1482);
#647=VERTEX_POINT('',#1483);
#648=VERTEX_POINT('',#1488);
#649=VERTEX_POINT('',#1490);
#650=VERTEX_POINT('',#1494);
#651=VERTEX_POINT('',#1496);
#652=VERTEX_POINT('',#1500);
#653=VERTEX_POINT('',#1501);
#654=VERTEX_POINT('',#1509);
#655=VERTEX_POINT('',#1510);
#656=VERTEX_POINT('',#1518);
#657=VERTEX_POINT('',#1519);
#658=VERTEX_POINT('',#1527);
#659=VERTEX_POINT('',#1528);
#660=VERTEX_POINT('',#1546);
#661=VERTEX_POINT('',#1548);
#662=VERTEX_POINT('',#1550);
#663=CIRCLE('',#950,0.00115);
#664=CIRCLE('',#952,0.00115);
#665=CIRCLE('',#957,0.000699999999999987);
#666=CIRCLE('',#958,0.002);
#667=CIRCLE('',#959,0.002);
#668=CIRCLE('',#960,0.0016);
#669=CIRCLE('',#961,0.000699999999999987);
#670=CIRCLE('',#965,0.00065);
#671=CIRCLE('',#966,0.0003);
#672=CIRCLE('',#969,0.00065);
#673=CIRCLE('',#970,0.0003);
#674=CIRCLE('',#973,0.0001);
#675=CIRCLE('',#974,0.00045);
#676=CIRCLE('',#977,0.0001);
#677=CIRCLE('',#978,0.00045);
#678=CIRCLE('',#981,0.0001);
#679=CIRCLE('',#982,0.00045);
#680=CIRCLE('',#985,0.0001);
#681=CIRCLE('',#986,0.00045);
#682=CIRCLE('',#989,0.00065);
#683=CIRCLE('',#990,0.000299999999999995);
#684=CIRCLE('',#993,0.00065);
#685=CIRCLE('',#994,0.000299999999999995);
#686=CIRCLE('',#996,0.0001);
#687=CIRCLE('',#997,0.00045);
#688=CIRCLE('',#1000,0.0001);
#689=CIRCLE('',#1001,0.00045);
#690=CIRCLE('',#1004,0.0001);
#691=CIRCLE('',#1005,0.00045);
#692=CIRCLE('',#1008,0.0001);
#693=CIRCLE('',#1009,0.00045);
#694=CIRCLE('',#1017,0.0007);
#695=CIRCLE('',#1018,0.0007);
#696=CIRCLE('',#1019,0.0016);
#697=CIRCLE('',#1020,0.002);
#698=CIRCLE('',#1021,0.002);
#699=CIRCLE('',#1028,0.00115);
#700=CIRCLE('',#1030,0.00115);
#701=EDGE_LOOP('',(#215,#216,#217,#218));
#702=EDGE_LOOP('',(#219,#220,#221,#222));
#703=EDGE_LOOP('',(#223,#224,#225,#226));
#704=EDGE_LOOP('',(#227,#228,#229,#230));
#705=EDGE_LOOP('',(#231,#232,#233,#234));
#706=EDGE_LOOP('',(#235));
#707=EDGE_LOOP('',(#236,#237,#238,#239,#240,#241,#242,#243));
#708=EDGE_LOOP('',(#244));
#709=EDGE_LOOP('',(#245));
#710=EDGE_LOOP('',(#246,#247,#248,#249));
#711=EDGE_LOOP('',(#250,#251,#252,#253));
#712=EDGE_LOOP('',(#254,#255,#256,#257));
#713=EDGE_LOOP('',(#258,#259,#260,#261));
#714=EDGE_LOOP('',(#262,#263,#264,#265));
#715=EDGE_LOOP('',(#266,#267,#268,#269));
#716=EDGE_LOOP('',(#270,#271,#272,#273));
#717=EDGE_LOOP('',(#274,#275,#276,#277));
#718=EDGE_LOOP('',(#278,#279,#280,#281));
#719=EDGE_LOOP('',(#282,#283,#284,#285));
#720=EDGE_LOOP('',(#286,#287,#288,#289));
#721=EDGE_LOOP('',(#290,#291,#292,#293));
#722=EDGE_LOOP('',(#294,#295,#296,#297));
#723=EDGE_LOOP('',(#298,#299,#300,#301));
#724=EDGE_LOOP('',(#302,#303,#304,#305));
#725=EDGE_LOOP('',(#306,#307,#308,#309));
#726=EDGE_LOOP('',(#310,#311,#312,#313));
#727=EDGE_LOOP('',(#314,#315,#316,#317));
#728=EDGE_LOOP('',(#318,#319,#320,#321));
#729=EDGE_LOOP('',(#322,#323,#324,#325));
#730=EDGE_LOOP('',(#326,#327,#328,#329));
#731=EDGE_LOOP('',(#330,#331,#332,#333));
#732=EDGE_LOOP('',(#334,#335,#336,#337));
#733=EDGE_LOOP('',(#338,#339,#340,#341));
#734=EDGE_LOOP('',(#342,#343,#344,#345));
#735=EDGE_LOOP('',(#346,#347,#348,#349));
#736=EDGE_LOOP('',(#350,#351,#352,#353));
#737=EDGE_LOOP('',(#354,#355,#356,#357));
#738=EDGE_LOOP('',(#358,#359,#360,#361));
#739=EDGE_LOOP('',(#362,#363,#364,#365));
#740=EDGE_LOOP('',(#366));
#741=EDGE_LOOP('',(#367));
#742=EDGE_LOOP('',(#368));
#743=EDGE_LOOP('',(#369,#370,#371,#372,#373,#374,#375,#376));
#744=EDGE_LOOP('',(#377,#378,#379,#380));
#745=EDGE_LOOP('',(#381,#382,#383,#384));
#746=EDGE_LOOP('',(#385,#386,#387,#388));
#747=EDGE_LOOP('',(#389,#390,#391,#392));
#748=EDGE_LOOP('',(#393,#394,#395,#396));
#749=EDGE_LOOP('',(#397,#398,#399,#400));
#750=EDGE_LOOP('',(#401,#402,#403,#404));
#751=EDGE_LOOP('',(#405,#406,#407,#408));
#752=EDGE_LOOP('',(#409,#410,#411,#412));
#753=EDGE_LOOP('',(#413,#414,#415,#416));
#754=EDGE_LOOP('',(#417,#418,#419,#420));
#755=EDGE_LOOP('',(#421,#422,#423,#424));
#756=EDGE_LOOP('',(#425,#426,#427,#428));
#757=EDGE_LOOP('',(#429,#430,#431,#432));
#758=EDGE_LOOP('',(#433,#434,#435,#436));
#759=EDGE_LOOP('',(#437,#438,#439,#440));
#760=EDGE_LOOP('',(#441,#442,#443,#444));
#761=EDGE_LOOP('',(#445,#446,#447,#448));
#762=EDGE_LOOP('',(#449,#450,#451,#452));
#763=EDGE_LOOP('',(#453));
#764=EDGE_LOOP('',(#454));
#765=EDGE_LOOP('',(#455));
#766=EDGE_LOOP('',(#456));
#767=EDGE_LOOP('',(#457));
#768=EDGE_LOOP('',(#458));
#769=EDGE_LOOP('',(#459,#460,#461,#462));
#770=EDGE_LOOP('',(#463,#464,#465,#466));
#771=FACE_BOUND('',#701,.T.);
#772=FACE_BOUND('',#702,.T.);
#773=FACE_BOUND('',#703,.T.);
#774=FACE_BOUND('',#704,.T.);
#775=FACE_BOUND('',#705,.T.);
#776=FACE_BOUND('',#706,.T.);
#777=FACE_BOUND('',#707,.T.);
#778=FACE_BOUND('',#708,.T.);
#779=FACE_BOUND('',#709,.T.);
#780=FACE_BOUND('',#710,.T.);
#781=FACE_BOUND('',#711,.T.);
#782=FACE_BOUND('',#712,.T.);
#783=FACE_BOUND('',#713,.T.);
#784=FACE_BOUND('',#714,.T.);
#785=FACE_BOUND('',#715,.T.);
#786=FACE_BOUND('',#716,.T.);
#787=FACE_BOUND('',#717,.T.);
#788=FACE_BOUND('',#718,.T.);
#789=FACE_BOUND('',#719,.T.);
#790=FACE_BOUND('',#720,.T.);
#791=FACE_BOUND('',#721,.T.);
#792=FACE_BOUND('',#722,.T.);
#793=FACE_BOUND('',#723,.T.);
#794=FACE_BOUND('',#724,.T.);
#795=FACE_BOUND('',#725,.T.);
#796=FACE_BOUND('',#726,.T.);
#797=FACE_BOUND('',#727,.T.);
#798=FACE_BOUND('',#728,.T.);
#799=FACE_BOUND('',#729,.T.);
#800=FACE_BOUND('',#730,.T.);
#801=FACE_BOUND('',#731,.T.);
#802=FACE_BOUND('',#732,.T.);
#803=FACE_BOUND('',#733,.T.);
#804=FACE_BOUND('',#734,.T.);
#805=FACE_BOUND('',#735,.T.);
#806=FACE_BOUND('',#736,.T.);
#807=FACE_BOUND('',#737,.T.);
#808=FACE_BOUND('',#738,.T.);
#809=FACE_BOUND('',#739,.T.);
#810=FACE_BOUND('',#740,.T.);
#811=FACE_BOUND('',#741,.T.);
#812=FACE_BOUND('',#742,.T.);
#813=FACE_BOUND('',#743,.T.);
#814=FACE_BOUND('',#744,.T.);
#815=FACE_BOUND('',#745,.T.);
#816=FACE_BOUND('',#746,.T.);
#817=FACE_BOUND('',#747,.T.);
#818=FACE_BOUND('',#748,.T.);
#819=FACE_BOUND('',#749,.T.);
#820=FACE_BOUND('',#750,.T.);
#821=FACE_BOUND('',#751,.T.);
#822=FACE_BOUND('',#752,.T.);
#823=FACE_BOUND('',#753,.T.);
#824=FACE_BOUND('',#754,.T.);
#825=FACE_BOUND('',#755,.T.);
#826=FACE_BOUND('',#756,.T.);
#827=FACE_BOUND('',#757,.T.);
#828=FACE_BOUND('',#758,.T.);
#829=FACE_BOUND('',#759,.T.);
#830=FACE_BOUND('',#760,.T.);
#831=FACE_BOUND('',#761,.T.);
#832=FACE_BOUND('',#762,.T.);
#833=FACE_BOUND('',#763,.T.);
#834=FACE_BOUND('',#764,.T.);
#835=FACE_BOUND('',#765,.T.);
#836=FACE_BOUND('',#766,.T.);
#837=FACE_BOUND('',#767,.T.);
#838=FACE_BOUND('',#768,.T.);
#839=FACE_BOUND('',#769,.T.);
#840=FACE_BOUND('',#770,.T.);
#841=PLANE('',#949);
#842=PLANE('',#951);
#843=PLANE('',#953);
#844=PLANE('',#954);
#845=PLANE('',#955);
#846=PLANE('',#956);
#847=PLANE('',#962);
#848=PLANE('',#963);
#849=PLANE('',#964);
#850=PLANE('',#967);
#851=PLANE('',#968);
#852=PLANE('',#971);
#853=PLANE('',#972);
#854=PLANE('',#975);
#855=PLANE('',#976);
#856=PLANE('',#979);
#857=PLANE('',#980);
#858=PLANE('',#983);
#859=PLANE('',#984);
#860=PLANE('',#987);
#861=PLANE('',#988);
#862=PLANE('',#991);
#863=PLANE('',#992);
#864=PLANE('',#995);
#865=PLANE('',#998);
#866=PLANE('',#999);
#867=PLANE('',#1002);
#868=PLANE('',#1003);
#869=PLANE('',#1006);
#870=PLANE('',#1007);
#871=PLANE('',#1010);
#872=PLANE('',#1012);
#873=PLANE('',#1014);
#874=PLANE('',#1016);
#875=PLANE('',#1023);
#876=PLANE('',#1025);
#877=PLANE('',#1027);
#878=PLANE('',#1029);
#879=PLANE('',#1032);
#880=PLANE('',#1034);
#881=PLANE('',#1037);
#882=PLANE('',#1039);
#883=ADVANCED_FACE('',(#771),#841,.F.);
#884=ADVANCED_FACE('',(#772),#842,.T.);
#885=ADVANCED_FACE('',(#773),#843,.T.);
#886=ADVANCED_FACE('',(#774),#844,.T.);
#887=ADVANCED_FACE('',(#775),#845,.F.);
#888=ADVANCED_FACE('',(#776,#777,#778,#779),#846,.F.);
#889=ADVANCED_FACE('',(#780),#847,.T.);
#890=ADVANCED_FACE('',(#781),#848,.T.);
#891=ADVANCED_FACE('',(#782),#849,.T.);
#892=ADVANCED_FACE('',(#783),#850,.T.);
#893=ADVANCED_FACE('',(#784),#851,.T.);
#894=ADVANCED_FACE('',(#785),#852,.T.);
#895=ADVANCED_FACE('',(#786),#853,.T.);
#896=ADVANCED_FACE('',(#787),#854,.T.);
#897=ADVANCED_FACE('',(#788),#855,.T.);
#898=ADVANCED_FACE('',(#789),#856,.T.);
#899=ADVANCED_FACE('',(#790),#857,.T.);
#900=ADVANCED_FACE('',(#791),#858,.T.);
#901=ADVANCED_FACE('',(#792),#859,.T.);
#902=ADVANCED_FACE('',(#793),#860,.T.);
#903=ADVANCED_FACE('',(#794),#861,.T.);
#904=ADVANCED_FACE('',(#795),#862,.T.);
#905=ADVANCED_FACE('',(#796),#863,.T.);
#906=ADVANCED_FACE('',(#797),#864,.T.);
#907=ADVANCED_FACE('',(#798),#865,.T.);
#908=ADVANCED_FACE('',(#799),#866,.T.);
#909=ADVANCED_FACE('',(#800),#867,.T.);
#910=ADVANCED_FACE('',(#801),#868,.T.);
#911=ADVANCED_FACE('',(#802),#869,.T.);
#912=ADVANCED_FACE('',(#803),#870,.T.);
#913=ADVANCED_FACE('',(#804),#871,.T.);
#914=ADVANCED_FACE('',(#805),#20,.T.);
#915=ADVANCED_FACE('',(#806),#872,.T.);
#916=ADVANCED_FACE('',(#807),#21,.F.);
#917=ADVANCED_FACE('',(#808),#873,.T.);
#918=ADVANCED_FACE('',(#809),#22,.F.);
#919=ADVANCED_FACE('',(#810,#811,#812,#813),#874,.T.);
#920=ADVANCED_FACE('',(#814),#23,.F.);
#921=ADVANCED_FACE('',(#815),#875,.T.);
#922=ADVANCED_FACE('',(#816),#24,.F.);
#923=ADVANCED_FACE('',(#817),#876,.T.);
#924=ADVANCED_FACE('',(#818),#25,.T.);
#925=ADVANCED_FACE('',(#819),#877,.T.);
#926=ADVANCED_FACE('',(#820),#878,.F.);
#927=ADVANCED_FACE('',(#821),#26,.F.);
#928=ADVANCED_FACE('',(#822),#879,.F.);
#929=ADVANCED_FACE('',(#823),#27,.T.);
#930=ADVANCED_FACE('',(#824),#880,.F.);
#931=ADVANCED_FACE('',(#825),#28,.T.);
#932=ADVANCED_FACE('',(#826),#29,.T.);
#933=ADVANCED_FACE('',(#827),#881,.F.);
#934=ADVANCED_FACE('',(#828),#30,.T.);
#935=ADVANCED_FACE('',(#829),#882,.F.);
#936=ADVANCED_FACE('',(#830),#31,.F.);
#937=ADVANCED_FACE('',(#831),#32,.T.);
#938=ADVANCED_FACE('',(#832),#33,.T.);
#939=ADVANCED_FACE('',(#833,#834),#34,.F.);
#940=ADVANCED_FACE('',(#835,#836),#35,.F.);
#941=ADVANCED_FACE('',(#837,#838),#36,.F.);
#942=ADVANCED_FACE('',(#839),#37,.T.);
#943=ADVANCED_FACE('',(#840),#38,.T.);
#944=CLOSED_SHELL('',(#883,#884,#885,#886,#887,#888,#889,#890,#891,#892,
#893,#894,#895,#896,#897,#898,#899,#900,#901,#902,#903,#904,#905,#906,#907,
#908,#909,#910,#911,#912,#913,#914,#915,#916,#917,#918,#919,#920,#921,#922,
#923,#924,#925,#926,#927,#928,#929,#930,#931,#932,#933,#934,#935,#936,#937,
#938,#939,#940,#941,#942,#943));
#945=MANIFOLD_SOLID_BREP('',#944);
#946=SHAPE_DEFINITION_REPRESENTATION(#1599,#947);
#947=SHAPE_REPRESENTATION('id2',(#948),#1594);
#948=AXIS2_PLACEMENT_3D('',#1336,#1048,#1049);
#949=AXIS2_PLACEMENT_3D('',#1337,#1050,#1051);
#950=AXIS2_PLACEMENT_3D('',#1338,#1052,#1053);
#951=AXIS2_PLACEMENT_3D('',#1346,#1057,#1058);
#952=AXIS2_PLACEMENT_3D('',#1350,#1060,#1061);
#953=AXIS2_PLACEMENT_3D('',#1355,#1064,#1065);
#954=AXIS2_PLACEMENT_3D('',#1358,#1068,#1069);
#955=AXIS2_PLACEMENT_3D('',#1367,#1074,#1075);
#956=AXIS2_PLACEMENT_3D('',#1376,#1080,#1081);
#957=AXIS2_PLACEMENT_3D('',#1377,#1082,#1083);
#958=AXIS2_PLACEMENT_3D('',#1382,#1085,#1086);
#959=AXIS2_PLACEMENT_3D('',#1390,#1090,#1091);
#960=AXIS2_PLACEMENT_3D('',#1395,#1094,#1095);
#961=AXIS2_PLACEMENT_3D('',#1397,#1096,#1097);
#962=AXIS2_PLACEMENT_3D('',#1399,#1098,#1099);
#963=AXIS2_PLACEMENT_3D('',#1405,#1103,#1104);
#964=AXIS2_PLACEMENT_3D('',#1411,#1108,#1109);
#965=AXIS2_PLACEMENT_3D('',#1413,#1111,#1112);
#966=AXIS2_PLACEMENT_3D('',#1417,#1114,#1115);
#967=AXIS2_PLACEMENT_3D('',#1418,#1116,#1117);
#968=AXIS2_PLACEMENT_3D('',#1420,#1119,#1120);
#969=AXIS2_PLACEMENT_3D('',#1424,#1122,#1123);
#970=AXIS2_PLACEMENT_3D('',#1425,#1124,#1125);
#971=AXIS2_PLACEMENT_3D('',#1426,#1126,#1127);
#972=AXIS2_PLACEMENT_3D('',#1432,#1131,#1132);
#973=AXIS2_PLACEMENT_3D('',#1436,#1134,#1135);
#974=AXIS2_PLACEMENT_3D('',#1439,#1137,#1138);
#975=AXIS2_PLACEMENT_3D('',#1440,#1139,#1140);
#976=AXIS2_PLACEMENT_3D('',#1446,#1144,#1145);
#977=AXIS2_PLACEMENT_3D('',#1447,#1146,#1147);
#978=AXIS2_PLACEMENT_3D('',#1451,#1149,#1150);
#979=AXIS2_PLACEMENT_3D('',#1452,#1151,#1152);
#980=AXIS2_PLACEMENT_3D('',#1458,#1156,#1157);
#981=AXIS2_PLACEMENT_3D('',#1459,#1158,#1159);
#982=AXIS2_PLACEMENT_3D('',#1463,#1161,#1162);
#983=AXIS2_PLACEMENT_3D('',#1464,#1163,#1164);
#984=AXIS2_PLACEMENT_3D('',#1468,#1167,#1168);
#985=AXIS2_PLACEMENT_3D('',#1472,#1170,#1171);
#986=AXIS2_PLACEMENT_3D('',#1473,#1172,#1173);
#987=AXIS2_PLACEMENT_3D('',#1474,#1174,#1175);
#988=AXIS2_PLACEMENT_3D('',#1480,#1179,#1180);
#989=AXIS2_PLACEMENT_3D('',#1484,#1182,#1183);
#990=AXIS2_PLACEMENT_3D('',#1485,#1184,#1185);
#991=AXIS2_PLACEMENT_3D('',#1486,#1186,#1187);
#992=AXIS2_PLACEMENT_3D('',#1492,#1191,#1192);
#993=AXIS2_PLACEMENT_3D('',#1493,#1193,#1194);
#994=AXIS2_PLACEMENT_3D('',#1497,#1196,#1197);
#995=AXIS2_PLACEMENT_3D('',#1498,#1198,#1199);
#996=AXIS2_PLACEMENT_3D('',#1502,#1201,#1202);
#997=AXIS2_PLACEMENT_3D('',#1503,#1203,#1204);
#998=AXIS2_PLACEMENT_3D('',#1504,#1205,#1206);
#999=AXIS2_PLACEMENT_3D('',#1507,#1209,#1210);
#1000=AXIS2_PLACEMENT_3D('',#1511,#1212,#1213);
#1001=AXIS2_PLACEMENT_3D('',#1512,#1214,#1215);
#1002=AXIS2_PLACEMENT_3D('',#1513,#1216,#1217);
#1003=AXIS2_PLACEMENT_3D('',#1516,#1220,#1221);
#1004=AXIS2_PLACEMENT_3D('',#1520,#1223,#1224);
#1005=AXIS2_PLACEMENT_3D('',#1521,#1225,#1226);
#1006=AXIS2_PLACEMENT_3D('',#1522,#1227,#1228);
#1007=AXIS2_PLACEMENT_3D('',#1525,#1231,#1232);
#1008=AXIS2_PLACEMENT_3D('',#1529,#1234,#1235);
#1009=AXIS2_PLACEMENT_3D('',#1530,#1236,#1237);
#1010=AXIS2_PLACEMENT_3D('',#1531,#1238,#1239);
#1011=AXIS2_PLACEMENT_3D('',#1534,#1242,#1243);
#1012=AXIS2_PLACEMENT_3D('',#1536,#1245,#1246);
#1013=AXIS2_PLACEMENT_3D('',#1538,#1248,#1249);
#1014=AXIS2_PLACEMENT_3D('',#1540,#1251,#1252);
#1015=AXIS2_PLACEMENT_3D('',#1542,#1254,#1255);
#1016=AXIS2_PLACEMENT_3D('',#1544,#1257,#1258);
#1017=AXIS2_PLACEMENT_3D('',#1545,#1259,#1260);
#1018=AXIS2_PLACEMENT_3D('',#1547,#1261,#1262);
#1019=AXIS2_PLACEMENT_3D('',#1549,#1263,#1264);
#1020=AXIS2_PLACEMENT_3D('',#1552,#1266,#1267);
#1021=AXIS2_PLACEMENT_3D('',#1553,#1268,#1269);
#1022=AXIS2_PLACEMENT_3D('',#1554,#1270,#1271);
#1023=AXIS2_PLACEMENT_3D('',#1556,#1273,#1274);
#1024=AXIS2_PLACEMENT_3D('',#1558,#1276,#1277);
#1025=AXIS2_PLACEMENT_3D('',#1560,#1279,#1280);
#1026=AXIS2_PLACEMENT_3D('',#1562,#1282,#1283);
#1027=AXIS2_PLACEMENT_3D('',#1564,#1285,#1286);
#1028=AXIS2_PLACEMENT_3D('',#1565,#1287,#1288);
#1029=AXIS2_PLACEMENT_3D('',#1566,#1289,#1290);
#1030=AXIS2_PLACEMENT_3D('',#1567,#1291,#1292);
#1031=AXIS2_PLACEMENT_3D('',#1569,#1294,#1295);
#1032=AXIS2_PLACEMENT_3D('',#1571,#1297,#1298);
#1033=AXIS2_PLACEMENT_3D('',#1573,#1300,#1301);
#1034=AXIS2_PLACEMENT_3D('',#1575,#1303,#1304);
#1035=AXIS2_PLACEMENT_3D('',#1577,#1306,#1307);
#1036=AXIS2_PLACEMENT_3D('',#1578,#1308,#1309);
#1037=AXIS2_PLACEMENT_3D('',#1580,#1311,#1312);
#1038=AXIS2_PLACEMENT_3D('',#1582,#1314,#1315);
#1039=AXIS2_PLACEMENT_3D('',#1584,#1317,#1318);
#1040=AXIS2_PLACEMENT_3D('',#1586,#1320,#1321);
#1041=AXIS2_PLACEMENT_3D('',#1587,#1322,#1323);
#1042=AXIS2_PLACEMENT_3D('',#1588,#1324,#1325);
#1043=AXIS2_PLACEMENT_3D('',#1589,#1326,#1327);
#1044=AXIS2_PLACEMENT_3D('',#1590,#1328,#1329);
#1045=AXIS2_PLACEMENT_3D('',#1591,#1330,#1331);
#1046=AXIS2_PLACEMENT_3D('',#1592,#1332,#1333);
#1047=AXIS2_PLACEMENT_3D('',#1593,#1334,#1335);
#1048=DIRECTION('',(0.,0.,1.));
#1049=DIRECTION('',(1.,0.,0.));
#1050=DIRECTION('',(0.766636940959733,-0.642080836620984,0.));
#1051=DIRECTION('',(0.642080836620984,0.766636940959733,0.));
#1052=DIRECTION('',(-0.766636940959735,0.642080836620982,0.));
#1053=DIRECTION('',(0.642080836620982,0.766636940959735,0.));
#1054=DIRECTION('',(-0.642080836620984,-0.766636940959733,0.));
#1055=DIRECTION('',(0.,0.,-1.));
#1056=DIRECTION('',(-0.642080836620984,-0.766636940959733,0.));
#1057=DIRECTION('',(0.766636940959733,-0.642080836620984,0.));
#1058=DIRECTION('',(0.642080836620984,0.766636940959733,0.));
#1059=DIRECTION('',(-0.642080836620984,-0.766636940959733,0.));
#1060=DIRECTION('',(-0.766636940959735,0.642080836620982,0.));
#1061=DIRECTION('',(0.642080836620982,0.766636940959735,0.));
#1062=DIRECTION('',(-0.642080836620984,-0.766636940959733,0.));
#1063=DIRECTION('',(0.,0.,-1.));
#1064=DIRECTION('',(0.,0.,-1.));
#1065=DIRECTION('',(-1.,0.,0.));
#1066=DIRECTION('',(-0.766636940959735,0.642080836620982,0.));
#1067=DIRECTION('',(0.766636940959735,-0.642080836620982,0.));
#1068=DIRECTION('',(0.,0.,-1.));
#1069=DIRECTION('',(-1.,0.,0.));
#1070=DIRECTION('',(-0.642080836620982,0.766636940959735,0.));
#1071=DIRECTION('',(0.766636940959735,0.642080836620982,0.));
#1072=DIRECTION('',(-0.642080836620982,0.766636940959735,0.));
#1073=DIRECTION('',(0.766636940959732,0.642080836620986,0.));
#1074=DIRECTION('',(0.,0.,-1.));
#1075=DIRECTION('',(-1.,0.,0.));
#1076=DIRECTION('',(0.766636940959735,0.642080836620982,0.));
#1077=DIRECTION('',(-0.642080836620982,0.766636940959735,0.));
#1078=DIRECTION('',(-0.766636940959732,-0.642080836620986,0.));
#1079=DIRECTION('',(-0.642080836620982,0.766636940959735,0.));
#1080=DIRECTION('',(1.20909801098261E-16,-1.,0.));
#1081=DIRECTION('',(1.,1.20909801098261E-16,0.));
#1082=DIRECTION('',(0.,1.,0.));
#1083=DIRECTION('',(0.,0.,1.));
#1084=DIRECTION('',(-1.,-1.20909801098261E-16,0.));
#1085=DIRECTION('',(-1.20909801098261E-16,1.,0.));
#1086=DIRECTION('',(-1.,-1.20909801098261E-16,0.));
#1087=DIRECTION('',(-1.,-1.20909801098261E-16,0.));
#1088=DIRECTION('',(0.,0.,-1.));
#1089=DIRECTION('',(-1.,-1.20909801098261E-16,0.));
#1090=DIRECTION('',(-1.20909801098261E-16,1.,0.));
#1091=DIRECTION('',(-1.,-1.20909801098261E-16,0.));
#1092=DIRECTION('',(-1.,-1.20909801098261E-16,0.));
#1093=DIRECTION('',(0.,0.,-1.));
#1094=DIRECTION('',(0.,1.,0.));
#1095=DIRECTION('',(0.,0.,1.));
#1096=DIRECTION('',(0.,1.,0.));
#1097=DIRECTION('',(0.,0.,1.));
#1098=DIRECTION('',(0.,0.,-1.));
#1099=DIRECTION('',(-1.,0.,0.));
#1100=DIRECTION('',(-1.20909801098261E-16,1.,0.));
#1101=DIRECTION('',(-1.,-1.20909801098261E-16,0.));
#1102=DIRECTION('',(0.,1.,0.));
#1103=DIRECTION('',(0.,0.,1.));
#1104=DIRECTION('',(1.,0.,0.));
#1105=DIRECTION('',(-1.20909801098261E-16,1.,0.));
#1106=DIRECTION('',(-1.,-1.20909801098261E-16,0.));
#1107=DIRECTION('',(0.,1.,0.));
#1108=DIRECTION('',(0.,0.,1.));
#1109=DIRECTION('',(1.,0.,0.));
#1110=DIRECTION('',(-0.766636940959735,0.642080836620982,0.));
#1111=DIRECTION('',(0.,0.,-1.));
#1112=DIRECTION('',(1.,0.,0.));
#1113=DIRECTION('',(0.642080836620983,0.766636940959734,0.));
#1114=DIRECTION('',(0.,0.,1.));
#1115=DIRECTION('',(1.,0.,0.));
#1116=DIRECTION('',(0.,0.,1.));
#1117=DIRECTION('',(1.,0.,0.));
#1118=DIRECTION('',(-0.766636940959735,0.642080836620982,0.));
#1119=DIRECTION('',(0.,0.,-1.));
#1120=DIRECTION('',(-1.,0.,0.));
#1121=DIRECTION('',(-0.642080836620983,-0.766636940959734,0.));
#1122=DIRECTION('',(0.,0.,-1.));
#1123=DIRECTION('',(1.,0.,0.));
#1124=DIRECTION('',(0.,0.,1.));
#1125=DIRECTION('',(1.,0.,0.));
#1126=DIRECTION('',(0.,0.,-1.));
#1127=DIRECTION('',(-1.,0.,0.));
#1128=DIRECTION('',(0.766636940959735,-0.642080836620982,0.));
#1129=DIRECTION('',(0.766636940959735,-0.642080836620982,0.));
#1130=DIRECTION('',(0.642080836620983,0.766636940959734,0.));
#1131=DIRECTION('',(0.,0.,1.));
#1132=DIRECTION('',(1.,0.,0.));
#1133=DIRECTION('',(-0.996113893305367,-0.0880744660161119,0.));
#1134=DIRECTION('',(0.,0.,1.));
#1135=DIRECTION('',(1.,0.,0.));
#1136=DIRECTION('',(0.,-1.,0.));
#1137=DIRECTION('',(0.,0.,1.));
#1138=DIRECTION('',(1.,0.,0.));
#1139=DIRECTION('',(0.,0.,1.));
#1140=DIRECTION('',(1.,0.,0.));
#1141=DIRECTION('',(0.0880744660161119,-0.996113893305367,0.));
#1142=DIRECTION('',(0.0880744660161119,-0.996113893305367,0.));
#1143=DIRECTION('',(0.996113893305364,0.0880744660161485,0.));
#1144=DIRECTION('',(0.,0.,-1.));
#1145=DIRECTION('',(-1.,0.,0.));
#1146=DIRECTION('',(0.,0.,1.));
#1147=DIRECTION('',(1.,0.,0.));
#1148=DIRECTION('',(0.996113893305367,0.0880744660161119,0.));
#1149=DIRECTION('',(0.,0.,1.));
#1150=DIRECTION('',(1.,0.,0.));
#1151=DIRECTION('',(0.,0.,-1.));
#1152=DIRECTION('',(-1.,0.,0.));
#1153=DIRECTION('',(-1.20909801098261E-16,1.,0.));
#1154=DIRECTION('',(0.,-1.,0.));
#1155=DIRECTION('',(-1.,-1.20909801098261E-16,0.));
#1156=DIRECTION('',(0.,0.,1.));
#1157=DIRECTION('',(1.,0.,0.));
#1158=DIRECTION('',(0.,0.,1.));
#1159=DIRECTION('',(1.,0.,0.));
#1160=DIRECTION('',(-0.996113893305367,0.0880744660161119,0.));
#1161=DIRECTION('',(0.,0.,1.));
#1162=DIRECTION('',(1.,0.,0.));
#1163=DIRECTION('',(0.,0.,1.));
#1164=DIRECTION('',(1.,0.,0.));
#1165=DIRECTION('',(-1.20909801098261E-16,1.,0.));
#1166=DIRECTION('',(-1.,-1.20909801098261E-16,0.));
#1167=DIRECTION('',(0.,0.,-1.));
#1168=DIRECTION('',(-1.,0.,0.));
#1169=DIRECTION('',(0.996113893305367,-0.0880744660161119,0.));
#1170=DIRECTION('',(0.,0.,1.));
#1171=DIRECTION('',(1.,0.,0.));
#1172=DIRECTION('',(0.,0.,1.));
#1173=DIRECTION('',(1.,0.,0.));
#1174=DIRECTION('',(0.,0.,-1.));
#1175=DIRECTION('',(-1.,0.,0.));
#1176=DIRECTION('',(0.0880744660161117,0.996113893305367,0.));
#1177=DIRECTION('',(0.0880744660161117,0.996113893305367,0.));
#1178=DIRECTION('',(-0.996113893305367,0.088074466016114,0.));
#1179=DIRECTION('',(0.,0.,1.));
#1180=DIRECTION('',(1.,0.,0.));
#1181=DIRECTION('',(0.642080836620982,-0.766636940959735,0.));
#1182=DIRECTION('',(0.,0.,-1.));
#1183=DIRECTION('',(1.,0.,0.));
#1184=DIRECTION('',(0.,0.,1.));
#1185=DIRECTION('',(1.,0.,0.));
#1186=DIRECTION('',(0.,0.,1.));
#1187=DIRECTION('',(1.,0.,0.));
#1188=DIRECTION('',(0.766636940959734,0.642080836620983,0.));
#1189=DIRECTION('',(0.766636940959734,0.642080836620983,0.));
#1190=DIRECTION('',(-0.642080836620985,0.766636940959732,0.));
#1191=DIRECTION('',(0.,0.,-1.));
#1192=DIRECTION('',(-1.,0.,0.));
#1193=DIRECTION('',(0.,0.,-1.));
#1194=DIRECTION('',(1.,0.,0.));
#1195=DIRECTION('',(-0.642080836620982,0.766636940959735,0.));
#1196=DIRECTION('',(0.,0.,1.));
#1197=DIRECTION('',(1.,0.,0.));
#1198=DIRECTION('',(0.,0.,1.));
#1199=DIRECTION('',(1.,0.,0.));
#1200=DIRECTION('',(-0.642080836620983,-0.766636940959734,0.));
#1201=DIRECTION('',(0.,0.,1.));
#1202=DIRECTION('',(1.,0.,0.));
#1203=DIRECTION('',(0.,0.,1.));
#1204=DIRECTION('',(1.,0.,0.));
#1205=DIRECTION('',(0.,0.,1.));
#1206=DIRECTION('',(1.,0.,0.));
#1207=DIRECTION('',(0.766636940959735,-0.642080836620982,0.));
#1208=DIRECTION('',(0.766636940959735,-0.642080836620982,0.));
#1209=DIRECTION('',(0.,0.,-1.));
#1210=DIRECTION('',(-1.,0.,0.));
#1211=DIRECTION('',(-0.996113893305364,-0.0880744660161485,0.));
#1212=DIRECTION('',(0.,0.,1.));
#1213=DIRECTION('',(1.,0.,0.));
#1214=DIRECTION('',(0.,0.,1.));
#1215=DIRECTION('',(1.,0.,0.));
#1216=DIRECTION('',(0.,0.,-1.));
#1217=DIRECTION('',(-1.,0.,0.));
#1218=DIRECTION('',(0.0880744660161119,-0.996113893305367,0.));
#1219=DIRECTION('',(0.0880744660161119,-0.996113893305367,0.));
#1220=DIRECTION('',(0.,0.,1.));
#1221=DIRECTION('',(1.,0.,0.));
#1222=DIRECTION('',(0.996113893305367,-0.088074466016114,0.));
#1223=DIRECTION('',(0.,0.,1.));
#1224=DIRECTION('',(1.,0.,0.));
#1225=DIRECTION('',(0.,0.,1.));
#1226=DIRECTION('',(1.,0.,0.));
#1227=DIRECTION('',(0.,0.,1.));
#1228=DIRECTION('',(1.,0.,0.));
#1229=DIRECTION('',(0.0880744660161117,0.996113893305367,0.));
#1230=DIRECTION('',(0.0880744660161117,0.996113893305367,0.));
#1231=DIRECTION('',(0.,0.,-1.));
#1232=DIRECTION('',(-1.,0.,0.));
#1233=DIRECTION('',(0.642080836620985,-0.766636940959732,0.));
#1234=DIRECTION('',(0.,0.,1.));
#1235=DIRECTION('',(1.,0.,0.));
#1236=DIRECTION('',(0.,0.,1.));
#1237=DIRECTION('',(1.,0.,0.));
#1238=DIRECTION('',(0.,0.,-1.));
#1239=DIRECTION('',(-1.,0.,0.));
#1240=DIRECTION('',(0.766636940959734,0.642080836620983,0.));
#1241=DIRECTION('',(0.766636940959734,0.642080836620983,0.));
#1242=DIRECTION('',(0.,0.,-1.));
#1243=DIRECTION('',(-1.,0.,0.));
#1244=DIRECTION('',(0.,0.,-1.));
#1245=DIRECTION('',(0.642080836620982,0.766636940959735,0.));
#1246=DIRECTION('',(-0.766636940959735,0.642080836620982,0.));
#1247=DIRECTION('',(0.,0.,-1.));
#1248=DIRECTION('',(0.,0.,-1.));
#1249=DIRECTION('',(-1.,0.,0.));
#1250=DIRECTION('',(0.,0.,-1.));
#1251=DIRECTION('',(0.996113893305367,0.0880744660161119,0.));
#1252=DIRECTION('',(-0.0880744660161119,0.996113893305367,0.));
#1253=DIRECTION('',(0.,0.,-1.));
#1254=DIRECTION('',(0.,0.,-1.));
#1255=DIRECTION('',(-1.,0.,0.));
#1256=DIRECTION('',(0.,0.,-1.));
#1257=DIRECTION('',(1.20909801098261E-16,-1.,0.));
#1258=DIRECTION('',(1.,1.20909801098261E-16,0.));
#1259=DIRECTION('',(1.20909801098261E-16,-1.,0.));
#1260=DIRECTION('',(1.,1.20909801098261E-16,0.));
#1261=DIRECTION('',(1.20909801098261E-16,-1.,0.));
#1262=DIRECTION('',(1.,1.20909801098261E-16,0.));
#1263=DIRECTION('',(1.20909801098261E-16,-1.,0.));
#1264=DIRECTION('',(1.,1.20909801098261E-16,0.));
#1265=DIRECTION('',(0.,0.,-1.));
#1266=DIRECTION('',(-1.20909801098261E-16,1.,0.));
#1267=DIRECTION('',(-1.,-1.20909801098261E-16,0.));
#1268=DIRECTION('',(-1.20909801098261E-16,1.,0.));
#1269=DIRECTION('',(-1.,-1.20909801098261E-16,0.));
#1270=DIRECTION('',(0.,0.,-1.));
#1271=DIRECTION('',(-1.,0.,0.));
#1272=DIRECTION('',(0.,0.,-1.));
#1273=DIRECTION('',(-0.996113893305367,0.0880744660161116,0.));
#1274=DIRECTION('',(-0.0880744660161117,-0.996113893305367,0.));
#1275=DIRECTION('',(0.,0.,-1.));
#1276=DIRECTION('',(0.,0.,-1.));
#1277=DIRECTION('',(-1.,0.,0.));
#1278=DIRECTION('',(0.,0.,-1.));
#1279=DIRECTION('',(-0.642080836620983,0.766636940959734,0.));
#1280=DIRECTION('',(-0.766636940959734,-0.642080836620983,0.));
#1281=DIRECTION('',(0.,0.,-1.));
#1282=DIRECTION('',(0.,0.,-1.));
#1283=DIRECTION('',(-1.,0.,0.));
#1284=DIRECTION('',(0.,0.,-1.));
#1285=DIRECTION('',(-0.766636940959735,-0.642080836620982,0.));
#1286=DIRECTION('',(0.642080836620982,-0.766636940959735,0.));
#1287=DIRECTION('',(-0.766636940959735,-0.642080836620982,0.));
#1288=DIRECTION('',(-0.642080836620982,0.766636940959735,0.));
#1289=DIRECTION('',(-0.766636940959735,-0.642080836620982,0.));
#1290=DIRECTION('',(0.642080836620982,-0.766636940959735,0.));
#1291=DIRECTION('',(-0.766636940959735,-0.642080836620982,0.));
#1292=DIRECTION('',(-0.642080836620982,0.766636940959735,0.));
#1293=DIRECTION('',(0.,0.,-1.));
#1294=DIRECTION('',(0.,0.,-1.));
#1295=DIRECTION('',(-1.,0.,0.));
#1296=DIRECTION('',(0.,0.,-1.));
#1297=DIRECTION('',(-0.642080836620983,0.766636940959734,0.));
#1298=DIRECTION('',(-0.766636940959734,-0.642080836620983,0.));
#1299=DIRECTION('',(0.,0.,-1.));
#1300=DIRECTION('',(0.,0.,-1.));
#1301=DIRECTION('',(-1.,0.,0.));
#1302=DIRECTION('',(0.,0.,-1.));
#1303=DIRECTION('',(-0.996113893305367,0.0880744660161116,0.));
#1304=DIRECTION('',(-0.0880744660161117,-0.996113893305367,0.));
#1305=DIRECTION('',(0.,0.,-1.));
#1306=DIRECTION('',(0.,0.,-1.));
#1307=DIRECTION('',(-1.,0.,0.));
#1308=DIRECTION('',(0.,0.,-1.));
#1309=DIRECTION('',(-1.,0.,0.));
#1310=DIRECTION('',(0.,0.,-1.));
#1311=DIRECTION('',(0.996113893305367,0.0880744660161119,0.));
#1312=DIRECTION('',(-0.0880744660161119,0.996113893305367,0.));
#1313=DIRECTION('',(0.,0.,-1.));
#1314=DIRECTION('',(0.,0.,-1.));
#1315=DIRECTION('',(-1.,0.,0.));
#1316=DIRECTION('',(0.,0.,-1.));
#1317=DIRECTION('',(0.642080836620982,0.766636940959735,0.));
#1318=DIRECTION('',(-0.766636940959735,0.642080836620982,0.));
#1319=DIRECTION('',(0.,0.,-1.));
#1320=DIRECTION('',(0.,0.,-1.));
#1321=DIRECTION('',(-1.,0.,0.));
#1322=DIRECTION('',(-1.20909801098261E-16,1.,0.));
#1323=DIRECTION('',(-1.,-1.20909801098261E-16,0.));
#1324=DIRECTION('',(-1.20909801098261E-16,1.,0.));
#1325=DIRECTION('',(-1.,-1.20909801098261E-16,0.));
#1326=DIRECTION('',(0.,1.,0.));
#1327=DIRECTION('',(0.,0.,1.));
#1328=DIRECTION('',(0.,1.,0.));
#1329=DIRECTION('',(0.,0.,1.));
#1330=DIRECTION('',(0.,1.,0.));
#1331=DIRECTION('',(0.,0.,1.));
#1332=DIRECTION('',(0.766636940959735,0.642080836620982,0.));
#1333=DIRECTION('',(-0.642080836620982,0.766636940959735,0.));
#1334=DIRECTION('',(-0.766636940959735,0.642080836620982,0.));
#1335=DIRECTION('',(-0.642080836620982,-0.766636940959735,0.));
#1336=CARTESIAN_POINT('',(0.,0.,0.));
#1337=CARTESIAN_POINT('',(-0.00401239905021176,-0.0167238373860346,0.00115));
#1338=CARTESIAN_POINT('',(-0.00327400608809763,-0.0158422049039309,0.));
#1339=CARTESIAN_POINT('',(-0.00327400608809763,-0.0158422049039309,-0.00115));
#1340=CARTESIAN_POINT('',(-0.00327400608809763,-0.0158422049039309,0.00115));
#1341=CARTESIAN_POINT('',(-0.00401239905021176,-0.0167238373860346,0.00115));
#1342=CARTESIAN_POINT('',(-0.00302000891771208,-0.0155389352802156,0.00115));
#1343=CARTESIAN_POINT('',(-0.00302000891771208,-0.0155389352802156,0.00115));
#1344=CARTESIAN_POINT('',(-0.00302000891771208,-0.0155389352802156,-0.00115));
#1345=CARTESIAN_POINT('',(-0.00401239905021176,-0.0167238373860346,-0.00115));
#1346=CARTESIAN_POINT('',(-0.00374407612087585,-0.0169485656788519,0.00115));
#1347=CARTESIAN_POINT('',(-0.00374407612087585,-0.0169485656788519,0.00115));
#1348=CARTESIAN_POINT('',(-0.00275168598837617,-0.015763663573033,0.00115));
#1349=CARTESIAN_POINT('',(-0.00300568315876172,-0.0160669331967482,0.00115));
#1350=CARTESIAN_POINT('',(-0.00300568315876172,-0.0160669331967482,0.));
#1351=CARTESIAN_POINT('',(-0.00300568315876172,-0.0160669331967482,-0.00115));
#1352=CARTESIAN_POINT('',(-0.00374407612087585,-0.0169485656788519,-0.00115));
#1353=CARTESIAN_POINT('',(-0.00275168598837617,-0.015763663573033,-0.00115));
#1354=CARTESIAN_POINT('',(-0.00275168598837617,-0.015763663573033,0.00115));
#1355=CARTESIAN_POINT('',(-0.00325,-0.0153463110292293,-0.00115));
#1356=CARTESIAN_POINT('',(-0.00300568315876172,-0.0160669331967482,-0.00115));
#1357=CARTESIAN_POINT('',(-0.00302000891771208,-0.0155389352802156,-0.00115));
#1358=CARTESIAN_POINT('',(0.00305737574901371,-0.0151163199469414,-0.00115));
#1359=CARTESIAN_POINT('',(0.00401239905021176,-0.0167238373860346,-0.00115));
#1360=CARTESIAN_POINT('',(0.00327400608809763,-0.0158422049039309,-0.00115));
#1361=CARTESIAN_POINT('',(0.00302000891771208,-0.0155389352802156,-0.00115));
#1362=CARTESIAN_POINT('',(0.00300568315876172,-0.0160669331967482,-0.00115));
#1363=CARTESIAN_POINT('',(0.00300568315876172,-0.0160669331967482,-0.00115));
#1364=CARTESIAN_POINT('',(0.00374407612087585,-0.0169485656788519,-0.00115));
#1365=CARTESIAN_POINT('',(0.00275168598837618,-0.015763663573033,-0.00115));
#1366=CARTESIAN_POINT('',(0.00275168598837618,-0.015763663573033,-0.00115));
#1367=CARTESIAN_POINT('',(-0.00325,-0.0153463110292293,0.00115));
#1368=CARTESIAN_POINT('',(0.00300568315876172,-0.0160669331967482,0.00115));
#1369=CARTESIAN_POINT('',(0.00300568315876172,-0.0160669331967482,0.00115));
#1370=CARTESIAN_POINT('',(0.00327400608809763,-0.0158422049039309,0.00115));
#1371=CARTESIAN_POINT('',(0.00401239905021176,-0.0167238373860346,0.00115));
#1372=CARTESIAN_POINT('',(0.00302000891771208,-0.0155389352802156,0.00115));
#1373=CARTESIAN_POINT('',(0.00302000891771208,-0.0155389352802156,0.00115));
#1374=CARTESIAN_POINT('',(0.00275168598837618,-0.015763663573033,0.00115));
#1375=CARTESIAN_POINT('',(0.00374407612087585,-0.0169485656788519,0.00115));
#1376=CARTESIAN_POINT('',(-0.0051,0.00035,0.00115));
#1377=CARTESIAN_POINT('',(-0.0035,0.00035,1.04470593288591E-20));
#1378=CARTESIAN_POINT('',(-0.0035,0.00035,0.000699999999999987));
#1379=CARTESIAN_POINT('',(-0.0051,0.00035,-0.00115));
#1380=CARTESIAN_POINT('',(0.0051,0.00035,-0.00115));
#1381=CARTESIAN_POINT('',(0.00163630681719536,0.00035,-0.00115));
#1382=CARTESIAN_POINT('',(-4.23184303843914E-20,0.00035,0.));
#1383=CARTESIAN_POINT('',(-0.00163630681719536,0.00035,-0.00115));
#1384=CARTESIAN_POINT('',(-0.0051,0.00035,-0.00115));
#1385=CARTESIAN_POINT('',(-0.0051,0.00035,-0.00115));
#1386=CARTESIAN_POINT('',(-0.0051,0.00035,0.00115));
#1387=CARTESIAN_POINT('',(-0.0051,0.00035,0.00115));
#1388=CARTESIAN_POINT('',(-0.0051,0.00035,0.00115));
#1389=CARTESIAN_POINT('',(-0.00163630681719536,0.00035,0.00115));
#1390=CARTESIAN_POINT('',(-4.23184303843914E-20,0.00035,0.));
#1391=CARTESIAN_POINT('',(0.00163630681719536,0.00035,0.00115));
#1392=CARTESIAN_POINT('',(-0.0051,0.00035,0.00115));
#1393=CARTESIAN_POINT('',(0.0051,0.00035,0.00115));
#1394=CARTESIAN_POINT('',(0.0051,0.00035,0.00115));
#1395=CARTESIAN_POINT('',(-4.23184303843914E-20,0.00035,0.));
#1396=CARTESIAN_POINT('',(-4.23184303843914E-20,0.00035,0.0016));
#1397=CARTESIAN_POINT('',(0.0035,0.00035,-8.46805700074288E-19));
#1398=CARTESIAN_POINT('',(0.0035,0.00035,0.000699999999999986));
#1399=CARTESIAN_POINT('',(-0.00554825125198742,-0.00013963350970725,-0.00115));
#1400=CARTESIAN_POINT('',(-0.00163630681719536,2.71050543121376E-19,-0.00115));
#1401=CARTESIAN_POINT('',(-0.00163630681719536,2.71050543121376E-19,-0.00115));
#1402=CARTESIAN_POINT('',(-0.0051,-1.21972744404619E-19,-0.00115));
#1403=CARTESIAN_POINT('',(-0.0051,0.,-0.00115));
#1404=CARTESIAN_POINT('',(-0.0051,0.,-0.00115));
#1405=CARTESIAN_POINT('',(0.00554825125198742,-0.000139633509707249,0.00115));
#1406=CARTESIAN_POINT('',(0.00163630681719536,7.04731412115578E-19,0.00115));
#1407=CARTESIAN_POINT('',(0.00163630681719536,6.9251277299933E-19,0.00115));
#1408=CARTESIAN_POINT('',(-0.0051,-1.21972744404619E-19,0.00115));
#1409=CARTESIAN_POINT('',(0.0051,1.11130722679764E-18,0.00115));
#1410=CARTESIAN_POINT('',(0.0051,1.11130722679764E-18,0.00115));
#1411=CARTESIAN_POINT('',(-0.00275168598837617,-0.015763663573033,0.00115));
#1412=CARTESIAN_POINT('',(-0.00275168598837617,-0.015763663573033,0.00115));
#1413=CARTESIAN_POINT('',(-0.00325,-0.0153463110292293,0.00115));
#1414=CARTESIAN_POINT('',(-0.00283264745619636,-0.0148479970176055,0.00115));
#1415=CARTESIAN_POINT('',(-0.0030573757490137,-0.0151163199469414,0.00115));
#1416=CARTESIAN_POINT('',(-0.0030573757490137,-0.0151163199469414,0.00115));
#1417=CARTESIAN_POINT('',(-0.00325,-0.0153463110292293,0.00115));
#1418=CARTESIAN_POINT('',(-0.0030573757490137,-0.0151163199469414,0.00115));
#1419=CARTESIAN_POINT('',(-0.00300568315876172,-0.0160669331967482,0.00115));
#1420=CARTESIAN_POINT('',(-0.00283264745619636,-0.0148479970176055,-0.00115));
#1421=CARTESIAN_POINT('',(-0.00283264745619636,-0.0148479970176055,-0.00115));
#1422=CARTESIAN_POINT('',(-0.00283264745619636,-0.0148479970176055,-0.00115));
#1423=CARTESIAN_POINT('',(-0.0030573757490137,-0.0151163199469414,-0.00115));
#1424=CARTESIAN_POINT('',(-0.00325,-0.0153463110292293,-0.00115));
#1425=CARTESIAN_POINT('',(-0.00325,-0.0153463110292293,-0.00115));
#1426=CARTESIAN_POINT('',(-0.00302000891771208,-0.0155389352802156,-0.00115));
#1427=CARTESIAN_POINT('',(-0.00398147448341308,-0.0138858208174283,-0.00115));
#1428=CARTESIAN_POINT('',(-0.0039497193415769,-0.0139124166764951,-0.00115));
#1429=CARTESIAN_POINT('',(-0.00420620277623042,-0.0141541437467642,-0.00115));
#1430=CARTESIAN_POINT('',(-0.00417444763439425,-0.014180739605831,-0.00115));
#1431=CARTESIAN_POINT('',(-0.00417444763439425,-0.014180739605831,-0.00115));
#1432=CARTESIAN_POINT('',(-0.00519961138933054,-0.000108807446601611,0.00115));
#1433=CARTESIAN_POINT('',(-0.00519961138933054,-0.000108807446601611,0.00115));
#1434=CARTESIAN_POINT('',(-0.00519961138933054,-0.000108807446601611,0.00115));
#1435=CARTESIAN_POINT('',(-0.00554825125198742,-0.00013963350970725,0.00115));
#1436=CARTESIAN_POINT('',(-0.0051,-0.0001,0.00115));
#1437=CARTESIAN_POINT('',(-0.0051,0.,0.00115));
#1438=CARTESIAN_POINT('',(-0.0051,0.00035,0.00115));
#1439=CARTESIAN_POINT('',(-0.0051,-0.0001,0.00115));
#1440=CARTESIAN_POINT('',(-0.0051,0.00035,0.00115));
#1441=CARTESIAN_POINT('',(-0.00519961138933054,-0.000108807446601611,0.00115));
#1442=CARTESIAN_POINT('',(-0.00398512264724534,-0.0138445604290008,0.00115));
#1443=CARTESIAN_POINT('',(-0.00554825125198742,-0.00013963350970725,0.00115));
#1444=CARTESIAN_POINT('',(-0.00433376250990222,-0.0138753864921064,0.00115));
#1445=CARTESIAN_POINT('',(-0.00433376250990222,-0.0138753864921064,0.00115));
#1446=CARTESIAN_POINT('',(-0.0051,0.,-0.00115));
#1447=CARTESIAN_POINT('',(-0.0051,-0.0001,-0.00115));
#1448=CARTESIAN_POINT('',(-0.00519961138933054,-0.000108807446601611,-0.00115));
#1449=CARTESIAN_POINT('',(-0.00554825125198742,-0.00013963350970725,-0.00115));
#1450=CARTESIAN_POINT('',(-0.00554825125198742,-0.00013963350970725,-0.00115));
#1451=CARTESIAN_POINT('',(-0.0051,-0.0001,-0.00115));
#1452=CARTESIAN_POINT('',(-0.00554825125198742,-0.00013963350970725,-0.00115));
#1453=CARTESIAN_POINT('',(0.00163630681719536,7.04731412115578E-19,-0.00115));
#1454=CARTESIAN_POINT('',(0.00163630681719536,7.04731412115578E-19,-0.00115));
#1455=CARTESIAN_POINT('',(0.0051,0.00035,-0.00115));
#1456=CARTESIAN_POINT('',(0.0051,1.11130722679764E-18,-0.00115));
#1457=CARTESIAN_POINT('',(-0.0051,-1.21972744404619E-19,-0.00115));
#1458=CARTESIAN_POINT('',(0.0051,1.11130722679764E-18,0.00115));
#1459=CARTESIAN_POINT('',(0.0051,-9.99999999999988E-5,0.00115));
#1460=CARTESIAN_POINT('',(0.00519961138933054,-0.00010880744660161,0.00115));
#1461=CARTESIAN_POINT('',(0.00554825125198742,-0.000139633509707249,0.00115));
#1462=CARTESIAN_POINT('',(0.00554825125198742,-0.000139633509707249,0.00115));
#1463=CARTESIAN_POINT('',(0.0051,-9.99999999999988E-5,0.00115));
#1464=CARTESIAN_POINT('',(0.00554825125198742,-0.000139633509707249,0.00115));
#1465=CARTESIAN_POINT('',(-0.00163630681719536,2.71050543121376E-19,0.00115));
#1466=CARTESIAN_POINT('',(-0.00163630681719536,2.96821709393692E-19,0.00115));
#1467=CARTESIAN_POINT('',(-0.0051,-1.21972744404619E-19,0.00115));
#1468=CARTESIAN_POINT('',(0.00519961138933054,-0.00010880744660161,-0.00115));
#1469=CARTESIAN_POINT('',(0.00519961138933054,-0.00010880744660161,-0.00115));
#1470=CARTESIAN_POINT('',(0.00519961138933054,-0.00010880744660161,-0.00115));
#1471=CARTESIAN_POINT('',(0.00554825125198742,-0.000139633509707249,-0.00115));
#1472=CARTESIAN_POINT('',(0.0051,-9.99999999999988E-5,-0.00115));
#1473=CARTESIAN_POINT('',(0.0051,-9.99999999999988E-5,-0.00115));
#1474=CARTESIAN_POINT('',(0.0051,0.00035,-0.00115));
#1475=CARTESIAN_POINT('',(0.00519961138933054,-0.00010880744660161,-0.00115));
#1476=CARTESIAN_POINT('',(0.00398512264724535,-0.0138445604290008,-0.00115));
#1477=CARTESIAN_POINT('',(0.00554825125198742,-0.000139633509707249,-0.00115));
#1478=CARTESIAN_POINT('',(0.00433376250990223,-0.0138753864921064,-0.00115));
#1479=CARTESIAN_POINT('',(0.00433376250990223,-0.0138753864921064,-0.00115));
#1480=CARTESIAN_POINT('',(0.00283264745619636,-0.0148479970176055,0.00115));
#1481=CARTESIAN_POINT('',(0.00283264745619636,-0.0148479970176055,0.00115));
#1482=CARTESIAN_POINT('',(0.00283264745619636,-0.0148479970176055,0.00115));
#1483=CARTESIAN_POINT('',(0.00305737574901371,-0.0151163199469414,0.00115));
#1484=CARTESIAN_POINT('',(0.00325,-0.0153463110292293,0.00115));
#1485=CARTESIAN_POINT('',(0.00325,-0.0153463110292293,0.00115));
#1486=CARTESIAN_POINT('',(0.00302000891771208,-0.0155389352802156,0.00115));
#1487=CARTESIAN_POINT('',(0.00398147448341308,-0.0138858208174283,0.00115));
#1488=CARTESIAN_POINT('',(0.00394971934157691,-0.0139124166764951,0.00115));
#1489=CARTESIAN_POINT('',(0.00420620277623043,-0.0141541437467642,0.00115));
#1490=CARTESIAN_POINT('',(0.00417444763439425,-0.014180739605831,0.00115));
#1491=CARTESIAN_POINT('',(0.00417444763439425,-0.014180739605831,0.00115));
#1492=CARTESIAN_POINT('',(0.00275168598837618,-0.015763663573033,-0.00115));
#1493=CARTESIAN_POINT('',(0.00325,-0.0153463110292293,-0.00115));
#1494=CARTESIAN_POINT('',(0.00283264745619636,-0.0148479970176055,-0.00115));
#1495=CARTESIAN_POINT('',(0.00305737574901371,-0.0151163199469414,-0.00115));
#1496=CARTESIAN_POINT('',(0.00305737574901371,-0.0151163199469414,-0.00115));
#1497=CARTESIAN_POINT('',(0.00325,-0.0153463110292293,-0.00115));
#1498=CARTESIAN_POINT('',(-0.0039497193415769,-0.0139124166764951,0.00115));
#1499=CARTESIAN_POINT('',(-0.0039497193415769,-0.0139124166764951,0.00115));
#1500=CARTESIAN_POINT('',(-0.0039497193415769,-0.0139124166764951,0.00115));
#1501=CARTESIAN_POINT('',(-0.00417444763439425,-0.014180739605831,0.00115));
#1502=CARTESIAN_POINT('',(-0.00388551125791481,-0.0138357529823992,0.00115));
#1503=CARTESIAN_POINT('',(-0.00388551125791481,-0.0138357529823992,0.00115));
#1504=CARTESIAN_POINT('',(-0.00433376250990222,-0.0138753864921064,0.00115));
#1505=CARTESIAN_POINT('',(-0.00398147448341308,-0.0138858208174283,0.00115));
#1506=CARTESIAN_POINT('',(-0.00420620277623042,-0.0141541437467642,0.00115));
#1507=CARTESIAN_POINT('',(-0.00398512264724534,-0.0138445604290008,-0.00115));
#1508=CARTESIAN_POINT('',(-0.00398512264724534,-0.0138445604290008,-0.00115));
#1509=CARTESIAN_POINT('',(-0.00398512264724534,-0.0138445604290008,-0.00115));
#1510=CARTESIAN_POINT('',(-0.00433376250990222,-0.0138753864921064,-0.00115));
#1511=CARTESIAN_POINT('',(-0.00388551125791481,-0.0138357529823992,-0.00115));
#1512=CARTESIAN_POINT('',(-0.00388551125791481,-0.0138357529823992,-0.00115));
#1513=CARTESIAN_POINT('',(-0.00417444763439425,-0.014180739605831,-0.00115));
#1514=CARTESIAN_POINT('',(-0.00519961138933054,-0.000108807446601611,-0.00115));
#1515=CARTESIAN_POINT('',(-0.00554825125198742,-0.00013963350970725,-0.00115));
#1516=CARTESIAN_POINT('',(0.00398512264724535,-0.0138445604290008,0.00115));
#1517=CARTESIAN_POINT('',(0.00398512264724535,-0.0138445604290008,0.00115));
#1518=CARTESIAN_POINT('',(0.00398512264724535,-0.0138445604290008,0.00115));
#1519=CARTESIAN_POINT('',(0.00433376250990223,-0.0138753864921064,0.00115));
#1520=CARTESIAN_POINT('',(0.00388551125791481,-0.0138357529823992,0.00115));
#1521=CARTESIAN_POINT('',(0.00388551125791481,-0.0138357529823992,0.00115));
#1522=CARTESIAN_POINT('',(0.00417444763439425,-0.014180739605831,0.00115));
#1523=CARTESIAN_POINT('',(0.00519961138933054,-0.00010880744660161,0.00115));
#1524=CARTESIAN_POINT('',(0.00554825125198742,-0.000139633509707249,0.00115));
#1525=CARTESIAN_POINT('',(0.00394971934157691,-0.0139124166764951,-0.00115));
#1526=CARTESIAN_POINT('',(0.00394971934157691,-0.0139124166764951,-0.00115));
#1527=CARTESIAN_POINT('',(0.00394971934157691,-0.0139124166764951,-0.00115));
#1528=CARTESIAN_POINT('',(0.00417444763439425,-0.014180739605831,-0.00115));
#1529=CARTESIAN_POINT('',(0.00388551125791481,-0.0138357529823992,-0.00115));
#1530=CARTESIAN_POINT('',(0.00388551125791481,-0.0138357529823992,-0.00115));
#1531=CARTESIAN_POINT('',(0.00433376250990223,-0.0138753864921064,-0.00115));
#1532=CARTESIAN_POINT('',(0.00398147448341308,-0.0138858208174283,-0.00115));
#1533=CARTESIAN_POINT('',(0.00420620277623043,-0.0141541437467642,-0.00115));
#1534=CARTESIAN_POINT('',(-0.00325,-0.0153463110292293,0.00115));
#1535=CARTESIAN_POINT('',(-0.00283264745619636,-0.0148479970176055,0.00115));
#1536=CARTESIAN_POINT('',(-0.00398147448341308,-0.0138858208174283,0.00115));
#1537=CARTESIAN_POINT('',(-0.0039497193415769,-0.0139124166764951,0.00115));
#1538=CARTESIAN_POINT('',(-0.00388551125791481,-0.0138357529823992,0.00115));
#1539=CARTESIAN_POINT('',(-0.00398512264724534,-0.0138445604290008,0.00115));
#1540=CARTESIAN_POINT('',(-0.00519961138933054,-0.000108807446601611,0.00115));
#1541=CARTESIAN_POINT('',(-0.00519961138933054,-0.000108807446601611,0.00115));
#1542=CARTESIAN_POINT('',(-0.0051,-0.0001,0.00115));
#1543=CARTESIAN_POINT('',(-0.0051,0.,0.00115));
#1544=CARTESIAN_POINT('',(-0.0051,-1.21972744404619E-19,0.00115));
#1545=CARTESIAN_POINT('',(-0.0035,1.0842021724855E-19,1.04470593288591E-20));
#1546=CARTESIAN_POINT('',(-0.0028,1.93057078017333E-19,1.04470593288591E-20));
#1547=CARTESIAN_POINT('',(0.0035,9.21571846612679E-19,-8.46805700074288E-19));
#1548=CARTESIAN_POINT('',(0.0042,1.00620870738146E-18,-8.46805700074288E-19));
#1549=CARTESIAN_POINT('',(-4.23184303843914E-20,4.87890977618477E-19,0.));
#1550=CARTESIAN_POINT('',(0.0016,6.81346659375695E-19,0.));
#1551=CARTESIAN_POINT('',(0.0051,1.11130722679764E-18,0.00115));
#1552=CARTESIAN_POINT('',(-6.01853107621011E-35,4.87890977618477E-19,0.));
#1553=CARTESIAN_POINT('',(-6.01853107621011E-35,4.87890977618477E-19,0.));
#1554=CARTESIAN_POINT('',(0.0051,-9.99999999999988E-5,0.00115));
#1555=CARTESIAN_POINT('',(0.00519961138933054,-0.00010880744660161,0.00115));
#1556=CARTESIAN_POINT('',(0.00519961138933054,-0.00010880744660161,0.00115));
#1557=CARTESIAN_POINT('',(0.00398512264724535,-0.0138445604290008,0.00115));
#1558=CARTESIAN_POINT('',(0.00388551125791481,-0.0138357529823992,0.00115));
#1559=CARTESIAN_POINT('',(0.00394971934157691,-0.0139124166764951,0.00115));
#1560=CARTESIAN_POINT('',(0.00398147448341308,-0.0138858208174283,0.00115));
#1561=CARTESIAN_POINT('',(0.00283264745619636,-0.0148479970176055,0.00115));
#1562=CARTESIAN_POINT('',(0.00325,-0.0153463110292293,0.00115));
#1563=CARTESIAN_POINT('',(0.00275168598837618,-0.015763663573033,0.00115));
#1564=CARTESIAN_POINT('',(0.00374407612087585,-0.0169485656788519,0.00115));
#1565=CARTESIAN_POINT('',(0.00300568315876172,-0.0160669331967482,0.));
#1566=CARTESIAN_POINT('',(0.00401239905021176,-0.0167238373860346,0.00115));
#1567=CARTESIAN_POINT('',(0.00327400608809763,-0.0158422049039309,0.));
#1568=CARTESIAN_POINT('',(0.00302000891771208,-0.0155389352802156,0.00115));
#1569=CARTESIAN_POINT('',(0.00325,-0.0153463110292293,0.00115));
#1570=CARTESIAN_POINT('',(0.00305737574901371,-0.0151163199469414,0.00115));
#1571=CARTESIAN_POINT('',(0.00420620277623043,-0.0141541437467642,0.00115));
#1572=CARTESIAN_POINT('',(0.00417444763439425,-0.014180739605831,0.00115));
#1573=CARTESIAN_POINT('',(0.00388551125791481,-0.0138357529823992,0.00115));
#1574=CARTESIAN_POINT('',(0.00433376250990223,-0.0138753864921064,0.00115));
#1575=CARTESIAN_POINT('',(0.00554825125198742,-0.000139633509707249,0.00115));
#1576=CARTESIAN_POINT('',(0.00554825125198742,-0.000139633509707249,0.00115));
#1577=CARTESIAN_POINT('',(0.0051,-9.99999999999988E-5,0.00115));
#1578=CARTESIAN_POINT('',(-0.0051,-0.0001,0.00115));
#1579=CARTESIAN_POINT('',(-0.00554825125198742,-0.00013963350970725,0.00115));
#1580=CARTESIAN_POINT('',(-0.00554825125198742,-0.00013963350970725,0.00115));
#1581=CARTESIAN_POINT('',(-0.00433376250990222,-0.0138753864921064,0.00115));
#1582=CARTESIAN_POINT('',(-0.00388551125791481,-0.0138357529823992,0.00115));
#1583=CARTESIAN_POINT('',(-0.00417444763439425,-0.014180739605831,0.00115));
#1584=CARTESIAN_POINT('',(-0.00420620277623042,-0.0141541437467642,0.00115));
#1585=CARTESIAN_POINT('',(-0.0030573757490137,-0.0151163199469414,0.00115));
#1586=CARTESIAN_POINT('',(-0.00325,-0.0153463110292293,0.00115));
#1587=CARTESIAN_POINT('',(-6.01853107621011E-35,4.87890977618477E-19,0.));
#1588=CARTESIAN_POINT('',(-6.01853107621011E-35,4.87890977618477E-19,0.));
#1589=CARTESIAN_POINT('',(-4.23184303843914E-20,0.00035,0.));
#1590=CARTESIAN_POINT('',(0.0035,0.00035,-8.46805700074288E-19));
#1591=CARTESIAN_POINT('',(-0.0035,0.00035,1.04470593288591E-20));
#1592=CARTESIAN_POINT('',(0.00300568315876172,-0.0160669331967482,0.));
#1593=CARTESIAN_POINT('',(-0.00300568315876172,-0.0160669331967482,0.));
#1594=(
GEOMETRIC_REPRESENTATION_CONTEXT(3)
GLOBAL_UNCERTAINTY_ASSIGNED_CONTEXT((#1595))
GLOBAL_UNIT_ASSIGNED_CONTEXT((#1598,#1597,#1596))
REPRESENTATION_CONTEXT('id2','TOP_LEVEL_ASSEMBLY_PART')
);
#1595=UNCERTAINTY_MEASURE_WITH_UNIT(LENGTH_MEASURE(1.E-8),#1598,
'DISTANCE_ACCURACY_VALUE','Maximum Tolerance applied to model');
#1596=(
NAMED_UNIT(*)
SI_UNIT($,.STERADIAN.)
SOLID_ANGLE_UNIT()
);
#1597=(
NAMED_UNIT(*)
PLANE_ANGLE_UNIT()
SI_UNIT($,.RADIAN.)
);
#1598=(
LENGTH_UNIT()
NAMED_UNIT(*)
SI_UNIT($,.METRE.)
);
#1599=PRODUCT_DEFINITION_SHAPE('','',#1600);
#1600=PRODUCT_DEFINITION('','',#1602,#1601);
#1601=DESIGN_CONTEXT('',#1608,'design');
#1602=PRODUCT_DEFINITION_FORMATION_WITH_SPECIFIED_SOURCE('','',#1604,
 .NOT_KNOWN.);
#1603=PRODUCT_RELATED_PRODUCT_CATEGORY('','',(#1604));
#1604=PRODUCT('id2','id2','id2',(#1606));
#1605=PRODUCT_CATEGORY('','');
#1606=MECHANICAL_CONTEXT('',#1608,'mechanical');
#1607=APPLICATION_PROTOCOL_DEFINITION('international standard',
'config_control_design',2010,#1608);
#1608=APPLICATION_CONTEXT(
'configuration controlled 3D designs of mechanical parts and assemblie
s');
ENDSEC;
END-ISO-10303-21;
