ISO-10303-21;
HEADER;
/* Generated by software containing ST-Developer
 * from STEP Tools, Inc. (www.steptools.com) 
 */
/* OPTION: using custom renumber hook */

FILE_DESCRIPTION(
/* description */ ('STEP AP203'),
/* implementation_level */ '2;1');

FILE_NAME(
/* name */ '6a54646674afeff7201e56e7',
/* time_stamp */ '2026-07-13T04:07:02Z',
/* author */ (''),
/* organization */ (''),
/* preprocessor_version */ 'ST-DEVELOPER v20',
/* originating_system */ 'ONSHAPE BY PTC INC, 1.217',
/* authorisation */ '  ');

FILE_SCHEMA (('CONFIG_CONTROL_DESIGN'));
ENDSEC;

DATA;
#10=PROPERTY_DEFINITION_REPRESENTATION(#14,#12);
#11=PROPERTY_DEFINITION_REPRESENTATION(#15,#13);
#12=REPRESENTATION('',(#16),#1845);
#13=REPRESENTATION('',(#17),#1845);
#14=PROPERTY_DEFINITION('pmi validation property','',#1850);
#15=PROPERTY_DEFINITION('pmi validation property','',#1850);
#16=VALUE_REPRESENTATION_ITEM('number of annotations',COUNT_MEASURE(0.));
#17=VALUE_REPRESENTATION_ITEM('number of views',COUNT_MEASURE(0.));
#18=SHAPE_REPRESENTATION_RELATIONSHIP('','',#1092,#19);
#19=ADVANCED_BREP_SHAPE_REPRESENTATION('',(#1090),#1845);
#20=PLANE('',#1127);
#21=PLANE('',#1131);
#22=PLANE('',#1135);
#23=PLANE('',#1139);
#24=PLANE('',#1143);
#25=PLANE('',#1144);
#26=PLANE('',#1145);
#27=PLANE('',#1146);
#28=PLANE('',#1147);
#29=PLANE('',#1159);
#30=PLANE('',#1171);
#31=PLANE('',#1173);
#32=PLANE('',#1174);
#33=PLANE('',#1176);
#34=PLANE('',#1177);
#35=PLANE('',#1179);
#36=PLANE('',#1180);
#37=PLANE('',#1182);
#38=PLANE('',#1183);
#39=PLANE('',#1185);
#40=PLANE('',#1186);
#41=PLANE('',#1188);
#42=PLANE('',#1189);
#43=PLANE('',#1191);
#44=PLANE('',#1192);
#45=PLANE('',#1194);
#46=PLANE('',#1195);
#47=PLANE('',#1197);
#48=PLANE('',#1198);
#49=LINE('',#1529,#156);
#50=LINE('',#1533,#157);
#51=LINE('',#1538,#158);
#52=LINE('',#1542,#159);
#53=LINE('',#1547,#160);
#54=LINE('',#1551,#161);
#55=LINE('',#1556,#162);
#56=LINE('',#1560,#163);
#57=LINE('',#1565,#164);
#58=LINE('',#1569,#165);
#59=LINE('',#1574,#166);
#60=LINE('',#1578,#167);
#61=LINE('',#1583,#168);
#62=LINE('',#1587,#169);
#63=LINE('',#1592,#170);
#64=LINE('',#1596,#171);
#65=LINE('',#1601,#172);
#66=LINE('',#1605,#173);
#67=LINE('',#1610,#174);
#68=LINE('',#1614,#175);
#69=LINE('',#1619,#176);
#70=LINE('',#1623,#177);
#71=LINE('',#1625,#178);
#72=LINE('',#1627,#179);
#73=LINE('',#1629,#180);
#74=LINE('',#1633,#181);
#75=LINE('',#1637,#182);
#76=LINE('',#1639,#183);
#77=LINE('',#1641,#184);
#78=LINE('',#1645,#185);
#79=LINE('',#1649,#186);
#80=LINE('',#1651,#187);
#81=LINE('',#1653,#188);
#82=LINE('',#1657,#189);
#83=LINE('',#1661,#190);
#84=LINE('',#1663,#191);
#85=LINE('',#1665,#192);
#86=LINE('',#1669,#193);
#87=LINE('',#1673,#194);
#88=LINE('',#1675,#195);
#89=LINE('',#1677,#196);
#90=LINE('',#1679,#197);
#91=LINE('',#1680,#198);
#92=LINE('',#1682,#199);
#93=LINE('',#1685,#200);
#94=LINE('',#1687,#201);
#95=LINE('',#1689,#202);
#96=LINE('',#1691,#203);
#97=LINE('',#1692,#204);
#98=LINE('',#1698,#205);
#99=LINE('',#1702,#206);
#100=LINE('',#1703,#207);
#101=LINE('',#1707,#208);
#102=LINE('',#1708,#209);
#103=LINE('',#1712,#210);
#104=LINE('',#1713,#211);
#105=LINE('',#1717,#212);
#106=LINE('',#1718,#213);
#107=LINE('',#1722,#214);
#108=LINE('',#1723,#215);
#109=LINE('',#1727,#216);
#110=LINE('',#1728,#217);
#111=LINE('',#1732,#218);
#112=LINE('',#1733,#219);
#113=LINE('',#1737,#220);
#114=LINE('',#1738,#221);
#115=LINE('',#1742,#222);
#116=LINE('',#1743,#223);
#117=LINE('',#1749,#224);
#118=LINE('',#1750,#225);
#119=LINE('',#1754,#226);
#120=LINE('',#1755,#227);
#121=LINE('',#1759,#228);
#122=LINE('',#1760,#229);
#123=LINE('',#1764,#230);
#124=LINE('',#1765,#231);
#125=LINE('',#1769,#232);
#126=LINE('',#1770,#233);
#127=LINE('',#1774,#234);
#128=LINE('',#1775,#235);
#129=LINE('',#1779,#236);
#130=LINE('',#1780,#237);
#131=LINE('',#1784,#238);
#132=LINE('',#1785,#239);
#133=LINE('',#1789,#240);
#134=LINE('',#1790,#241);
#135=LINE('',#1794,#242);
#136=LINE('',#1796,#243);
#137=LINE('',#1798,#244);
#138=LINE('',#1801,#245);
#139=LINE('',#1803,#246);
#140=LINE('',#1806,#247);
#141=LINE('',#1808,#248);
#142=LINE('',#1811,#249);
#143=LINE('',#1813,#250);
#144=LINE('',#1816,#251);
#145=LINE('',#1818,#252);
#146=LINE('',#1821,#253);
#147=LINE('',#1823,#254);
#148=LINE('',#1826,#255);
#149=LINE('',#1828,#256);
#150=LINE('',#1831,#257);
#151=LINE('',#1833,#258);
#152=LINE('',#1836,#259);
#153=LINE('',#1838,#260);
#154=LINE('',#1841,#261);
#155=LINE('',#1843,#262);
#156=VECTOR('',#1207,1.);
#157=VECTOR('',#1210,1.);
#158=VECTOR('',#1215,1.);
#159=VECTOR('',#1218,1.);
#160=VECTOR('',#1223,1.);
#161=VECTOR('',#1226,1.);
#162=VECTOR('',#1231,1.);
#163=VECTOR('',#1234,1.);
#164=VECTOR('',#1239,1.);
#165=VECTOR('',#1242,1.);
#166=VECTOR('',#1247,1.);
#167=VECTOR('',#1250,1.);
#168=VECTOR('',#1255,1.);
#169=VECTOR('',#1258,1.);
#170=VECTOR('',#1263,1.);
#171=VECTOR('',#1266,1.);
#172=VECTOR('',#1271,1.);
#173=VECTOR('',#1274,1.);
#174=VECTOR('',#1279,1.);
#175=VECTOR('',#1282,1.);
#176=VECTOR('',#1287,1.);
#177=VECTOR('',#1290,1.);
#178=VECTOR('',#1293,1.);
#179=VECTOR('',#1294,1.);
#180=VECTOR('',#1295,1.);
#181=VECTOR('',#1300,1.);
#182=VECTOR('',#1305,1.);
#183=VECTOR('',#1306,1.);
#184=VECTOR('',#1307,1.);
#185=VECTOR('',#1312,1.);
#186=VECTOR('',#1317,1.);
#187=VECTOR('',#1318,1.);
#188=VECTOR('',#1319,1.);
#189=VECTOR('',#1324,1.);
#190=VECTOR('',#1329,1.);
#191=VECTOR('',#1330,1.);
#192=VECTOR('',#1331,1.);
#193=VECTOR('',#1336,1.);
#194=VECTOR('',#1341,1.);
#195=VECTOR('',#1342,1.);
#196=VECTOR('',#1343,1.);
#197=VECTOR('',#1346,1.);
#198=VECTOR('',#1347,1.);
#199=VECTOR('',#1350,1.);
#200=VECTOR('',#1351,1.);
#201=VECTOR('',#1352,1.);
#202=VECTOR('',#1353,1.);
#203=VECTOR('',#1356,1.);
#204=VECTOR('',#1357,1.);
#205=VECTOR('',#1364,1.);
#206=VECTOR('',#1367,1.);
#207=VECTOR('',#1368,1.);
#208=VECTOR('',#1371,1.);
#209=VECTOR('',#1372,1.);
#210=VECTOR('',#1375,1.);
#211=VECTOR('',#1376,1.);
#212=VECTOR('',#1379,1.);
#213=VECTOR('',#1380,1.);
#214=VECTOR('',#1383,1.);
#215=VECTOR('',#1384,1.);
#216=VECTOR('',#1387,1.);
#217=VECTOR('',#1388,1.);
#218=VECTOR('',#1391,1.);
#219=VECTOR('',#1392,1.);
#220=VECTOR('',#1395,1.);
#221=VECTOR('',#1396,1.);
#222=VECTOR('',#1399,1.);
#223=VECTOR('',#1400,1.);
#224=VECTOR('',#1407,1.);
#225=VECTOR('',#1408,1.);
#226=VECTOR('',#1411,1.);
#227=VECTOR('',#1412,1.);
#228=VECTOR('',#1415,1.);
#229=VECTOR('',#1416,1.);
#230=VECTOR('',#1419,1.);
#231=VECTOR('',#1420,1.);
#232=VECTOR('',#1423,1.);
#233=VECTOR('',#1424,1.);
#234=VECTOR('',#1427,1.);
#235=VECTOR('',#1428,1.);
#236=VECTOR('',#1431,1.);
#237=VECTOR('',#1432,1.);
#238=VECTOR('',#1435,1.);
#239=VECTOR('',#1436,1.);
#240=VECTOR('',#1439,1.);
#241=VECTOR('',#1440,1.);
#242=VECTOR('',#1443,1.);
#243=VECTOR('',#1446,1.);
#244=VECTOR('',#1449,1.);
#245=VECTOR('',#1454,1.);
#246=VECTOR('',#1457,1.);
#247=VECTOR('',#1462,1.);
#248=VECTOR('',#1465,1.);
#249=VECTOR('',#1470,1.);
#250=VECTOR('',#1473,1.);
#251=VECTOR('',#1478,1.);
#252=VECTOR('',#1481,1.);
#253=VECTOR('',#1486,1.);
#254=VECTOR('',#1489,1.);
#255=VECTOR('',#1494,1.);
#256=VECTOR('',#1497,1.);
#257=VECTOR('',#1502,1.);
#258=VECTOR('',#1505,1.);
#259=VECTOR('',#1510,1.);
#260=VECTOR('',#1513,1.);
#261=VECTOR('',#1518,1.);
#262=VECTOR('',#1521,1.);
#263=ORIENTED_EDGE('',*,*,#581,.T.);
#264=ORIENTED_EDGE('',*,*,#582,.T.);
#265=ORIENTED_EDGE('',*,*,#583,.F.);
#266=ORIENTED_EDGE('',*,*,#584,.F.);
#267=ORIENTED_EDGE('',*,*,#585,.T.);
#268=ORIENTED_EDGE('',*,*,#586,.T.);
#269=ORIENTED_EDGE('',*,*,#587,.F.);
#270=ORIENTED_EDGE('',*,*,#588,.F.);
#271=ORIENTED_EDGE('',*,*,#589,.T.);
#272=ORIENTED_EDGE('',*,*,#590,.T.);
#273=ORIENTED_EDGE('',*,*,#591,.F.);
#274=ORIENTED_EDGE('',*,*,#592,.F.);
#275=ORIENTED_EDGE('',*,*,#593,.T.);
#276=ORIENTED_EDGE('',*,*,#594,.T.);
#277=ORIENTED_EDGE('',*,*,#595,.F.);
#278=ORIENTED_EDGE('',*,*,#596,.F.);
#279=ORIENTED_EDGE('',*,*,#597,.T.);
#280=ORIENTED_EDGE('',*,*,#598,.T.);
#281=ORIENTED_EDGE('',*,*,#599,.F.);
#282=ORIENTED_EDGE('',*,*,#600,.F.);
#283=ORIENTED_EDGE('',*,*,#601,.T.);
#284=ORIENTED_EDGE('',*,*,#602,.T.);
#285=ORIENTED_EDGE('',*,*,#603,.F.);
#286=ORIENTED_EDGE('',*,*,#604,.F.);
#287=ORIENTED_EDGE('',*,*,#605,.T.);
#288=ORIENTED_EDGE('',*,*,#606,.T.);
#289=ORIENTED_EDGE('',*,*,#607,.F.);
#290=ORIENTED_EDGE('',*,*,#608,.F.);
#291=ORIENTED_EDGE('',*,*,#609,.T.);
#292=ORIENTED_EDGE('',*,*,#610,.T.);
#293=ORIENTED_EDGE('',*,*,#611,.F.);
#294=ORIENTED_EDGE('',*,*,#612,.F.);
#295=ORIENTED_EDGE('',*,*,#613,.T.);
#296=ORIENTED_EDGE('',*,*,#614,.T.);
#297=ORIENTED_EDGE('',*,*,#615,.F.);
#298=ORIENTED_EDGE('',*,*,#616,.F.);
#299=ORIENTED_EDGE('',*,*,#617,.T.);
#300=ORIENTED_EDGE('',*,*,#618,.T.);
#301=ORIENTED_EDGE('',*,*,#619,.F.);
#302=ORIENTED_EDGE('',*,*,#620,.T.);
#303=ORIENTED_EDGE('',*,*,#621,.T.);
#304=ORIENTED_EDGE('',*,*,#622,.F.);
#305=ORIENTED_EDGE('',*,*,#623,.F.);
#306=ORIENTED_EDGE('',*,*,#624,.T.);
#307=ORIENTED_EDGE('',*,*,#625,.T.);
#308=ORIENTED_EDGE('',*,*,#626,.F.);
#309=ORIENTED_EDGE('',*,*,#627,.F.);
#310=ORIENTED_EDGE('',*,*,#622,.T.);
#311=ORIENTED_EDGE('',*,*,#628,.T.);
#312=ORIENTED_EDGE('',*,*,#629,.F.);
#313=ORIENTED_EDGE('',*,*,#630,.F.);
#314=ORIENTED_EDGE('',*,*,#626,.T.);
#315=ORIENTED_EDGE('',*,*,#631,.T.);
#316=ORIENTED_EDGE('',*,*,#632,.F.);
#317=ORIENTED_EDGE('',*,*,#633,.F.);
#318=ORIENTED_EDGE('',*,*,#629,.T.);
#319=ORIENTED_EDGE('',*,*,#634,.T.);
#320=ORIENTED_EDGE('',*,*,#635,.F.);
#321=ORIENTED_EDGE('',*,*,#636,.F.);
#322=ORIENTED_EDGE('',*,*,#632,.T.);
#323=ORIENTED_EDGE('',*,*,#637,.T.);
#324=ORIENTED_EDGE('',*,*,#638,.F.);
#325=ORIENTED_EDGE('',*,*,#639,.F.);
#326=ORIENTED_EDGE('',*,*,#635,.T.);
#327=ORIENTED_EDGE('',*,*,#640,.T.);
#328=ORIENTED_EDGE('',*,*,#641,.F.);
#329=ORIENTED_EDGE('',*,*,#642,.F.);
#330=ORIENTED_EDGE('',*,*,#638,.T.);
#331=ORIENTED_EDGE('',*,*,#643,.T.);
#332=ORIENTED_EDGE('',*,*,#644,.F.);
#333=ORIENTED_EDGE('',*,*,#645,.F.);
#334=ORIENTED_EDGE('',*,*,#641,.T.);
#335=ORIENTED_EDGE('',*,*,#646,.T.);
#336=ORIENTED_EDGE('',*,*,#647,.F.);
#337=ORIENTED_EDGE('',*,*,#648,.F.);
#338=ORIENTED_EDGE('',*,*,#644,.T.);
#339=ORIENTED_EDGE('',*,*,#649,.T.);
#340=ORIENTED_EDGE('',*,*,#650,.F.);
#341=ORIENTED_EDGE('',*,*,#651,.F.);
#342=ORIENTED_EDGE('',*,*,#647,.T.);
#343=ORIENTED_EDGE('',*,*,#652,.T.);
#344=ORIENTED_EDGE('',*,*,#620,.F.);
#345=ORIENTED_EDGE('',*,*,#653,.F.);
#346=ORIENTED_EDGE('',*,*,#650,.T.);
#347=ORIENTED_EDGE('',*,*,#654,.F.);
#348=ORIENTED_EDGE('',*,*,#655,.T.);
#349=ORIENTED_EDGE('',*,*,#656,.T.);
#350=ORIENTED_EDGE('',*,*,#657,.F.);
#351=ORIENTED_EDGE('',*,*,#658,.T.);
#352=ORIENTED_EDGE('',*,*,#624,.F.);
#353=ORIENTED_EDGE('',*,*,#659,.F.);
#354=ORIENTED_EDGE('',*,*,#657,.T.);
#355=ORIENTED_EDGE('',*,*,#660,.F.);
#356=ORIENTED_EDGE('',*,*,#661,.T.);
#357=ORIENTED_EDGE('',*,*,#654,.T.);
#358=ORIENTED_EDGE('',*,*,#659,.T.);
#359=ORIENTED_EDGE('',*,*,#623,.T.);
#360=ORIENTED_EDGE('',*,*,#627,.T.);
#361=ORIENTED_EDGE('',*,*,#630,.T.);
#362=ORIENTED_EDGE('',*,*,#633,.T.);
#363=ORIENTED_EDGE('',*,*,#636,.T.);
#364=ORIENTED_EDGE('',*,*,#639,.T.);
#365=ORIENTED_EDGE('',*,*,#642,.T.);
#366=ORIENTED_EDGE('',*,*,#645,.T.);
#367=ORIENTED_EDGE('',*,*,#648,.T.);
#368=ORIENTED_EDGE('',*,*,#651,.T.);
#369=ORIENTED_EDGE('',*,*,#653,.T.);
#370=ORIENTED_EDGE('',*,*,#619,.T.);
#371=ORIENTED_EDGE('',*,*,#662,.F.);
#372=ORIENTED_EDGE('',*,*,#663,.F.);
#373=ORIENTED_EDGE('',*,*,#664,.F.);
#374=ORIENTED_EDGE('',*,*,#615,.T.);
#375=ORIENTED_EDGE('',*,*,#665,.F.);
#376=ORIENTED_EDGE('',*,*,#666,.F.);
#377=ORIENTED_EDGE('',*,*,#667,.F.);
#378=ORIENTED_EDGE('',*,*,#611,.T.);
#379=ORIENTED_EDGE('',*,*,#668,.F.);
#380=ORIENTED_EDGE('',*,*,#669,.F.);
#381=ORIENTED_EDGE('',*,*,#670,.F.);
#382=ORIENTED_EDGE('',*,*,#607,.T.);
#383=ORIENTED_EDGE('',*,*,#671,.F.);
#384=ORIENTED_EDGE('',*,*,#672,.F.);
#385=ORIENTED_EDGE('',*,*,#673,.F.);
#386=ORIENTED_EDGE('',*,*,#603,.T.);
#387=ORIENTED_EDGE('',*,*,#674,.F.);
#388=ORIENTED_EDGE('',*,*,#675,.F.);
#389=ORIENTED_EDGE('',*,*,#676,.F.);
#390=ORIENTED_EDGE('',*,*,#599,.T.);
#391=ORIENTED_EDGE('',*,*,#677,.F.);
#392=ORIENTED_EDGE('',*,*,#678,.F.);
#393=ORIENTED_EDGE('',*,*,#679,.F.);
#394=ORIENTED_EDGE('',*,*,#595,.T.);
#395=ORIENTED_EDGE('',*,*,#680,.F.);
#396=ORIENTED_EDGE('',*,*,#681,.F.);
#397=ORIENTED_EDGE('',*,*,#682,.F.);
#398=ORIENTED_EDGE('',*,*,#591,.T.);
#399=ORIENTED_EDGE('',*,*,#683,.F.);
#400=ORIENTED_EDGE('',*,*,#684,.F.);
#401=ORIENTED_EDGE('',*,*,#685,.F.);
#402=ORIENTED_EDGE('',*,*,#587,.T.);
#403=ORIENTED_EDGE('',*,*,#686,.F.);
#404=ORIENTED_EDGE('',*,*,#687,.F.);
#405=ORIENTED_EDGE('',*,*,#688,.F.);
#406=ORIENTED_EDGE('',*,*,#583,.T.);
#407=ORIENTED_EDGE('',*,*,#689,.F.);
#408=ORIENTED_EDGE('',*,*,#656,.F.);
#409=ORIENTED_EDGE('',*,*,#690,.T.);
#410=ORIENTED_EDGE('',*,*,#691,.T.);
#411=ORIENTED_EDGE('',*,*,#692,.T.);
#412=ORIENTED_EDGE('',*,*,#581,.F.);
#413=ORIENTED_EDGE('',*,*,#693,.T.);
#414=ORIENTED_EDGE('',*,*,#694,.T.);
#415=ORIENTED_EDGE('',*,*,#695,.T.);
#416=ORIENTED_EDGE('',*,*,#585,.F.);
#417=ORIENTED_EDGE('',*,*,#696,.T.);
#418=ORIENTED_EDGE('',*,*,#697,.T.);
#419=ORIENTED_EDGE('',*,*,#698,.T.);
#420=ORIENTED_EDGE('',*,*,#589,.F.);
#421=ORIENTED_EDGE('',*,*,#699,.T.);
#422=ORIENTED_EDGE('',*,*,#700,.T.);
#423=ORIENTED_EDGE('',*,*,#701,.T.);
#424=ORIENTED_EDGE('',*,*,#593,.F.);
#425=ORIENTED_EDGE('',*,*,#702,.T.);
#426=ORIENTED_EDGE('',*,*,#703,.T.);
#427=ORIENTED_EDGE('',*,*,#704,.T.);
#428=ORIENTED_EDGE('',*,*,#597,.F.);
#429=ORIENTED_EDGE('',*,*,#705,.T.);
#430=ORIENTED_EDGE('',*,*,#706,.T.);
#431=ORIENTED_EDGE('',*,*,#707,.T.);
#432=ORIENTED_EDGE('',*,*,#601,.F.);
#433=ORIENTED_EDGE('',*,*,#708,.T.);
#434=ORIENTED_EDGE('',*,*,#709,.T.);
#435=ORIENTED_EDGE('',*,*,#710,.T.);
#436=ORIENTED_EDGE('',*,*,#605,.F.);
#437=ORIENTED_EDGE('',*,*,#711,.T.);
#438=ORIENTED_EDGE('',*,*,#712,.T.);
#439=ORIENTED_EDGE('',*,*,#713,.T.);
#440=ORIENTED_EDGE('',*,*,#609,.F.);
#441=ORIENTED_EDGE('',*,*,#714,.T.);
#442=ORIENTED_EDGE('',*,*,#715,.T.);
#443=ORIENTED_EDGE('',*,*,#716,.T.);
#444=ORIENTED_EDGE('',*,*,#613,.F.);
#445=ORIENTED_EDGE('',*,*,#717,.T.);
#446=ORIENTED_EDGE('',*,*,#718,.T.);
#447=ORIENTED_EDGE('',*,*,#719,.T.);
#448=ORIENTED_EDGE('',*,*,#617,.F.);
#449=ORIENTED_EDGE('',*,*,#652,.F.);
#450=ORIENTED_EDGE('',*,*,#649,.F.);
#451=ORIENTED_EDGE('',*,*,#646,.F.);
#452=ORIENTED_EDGE('',*,*,#643,.F.);
#453=ORIENTED_EDGE('',*,*,#640,.F.);
#454=ORIENTED_EDGE('',*,*,#637,.F.);
#455=ORIENTED_EDGE('',*,*,#634,.F.);
#456=ORIENTED_EDGE('',*,*,#631,.F.);
#457=ORIENTED_EDGE('',*,*,#628,.F.);
#458=ORIENTED_EDGE('',*,*,#625,.F.);
#459=ORIENTED_EDGE('',*,*,#621,.F.);
#460=ORIENTED_EDGE('',*,*,#658,.F.);
#461=ORIENTED_EDGE('',*,*,#720,.T.);
#462=ORIENTED_EDGE('',*,*,#662,.T.);
#463=ORIENTED_EDGE('',*,*,#618,.F.);
#464=ORIENTED_EDGE('',*,*,#719,.F.);
#465=ORIENTED_EDGE('',*,*,#721,.T.);
#466=ORIENTED_EDGE('',*,*,#663,.T.);
#467=ORIENTED_EDGE('',*,*,#720,.F.);
#468=ORIENTED_EDGE('',*,*,#718,.F.);
#469=ORIENTED_EDGE('',*,*,#616,.T.);
#470=ORIENTED_EDGE('',*,*,#664,.T.);
#471=ORIENTED_EDGE('',*,*,#721,.F.);
#472=ORIENTED_EDGE('',*,*,#717,.F.);
#473=ORIENTED_EDGE('',*,*,#722,.T.);
#474=ORIENTED_EDGE('',*,*,#665,.T.);
#475=ORIENTED_EDGE('',*,*,#614,.F.);
#476=ORIENTED_EDGE('',*,*,#716,.F.);
#477=ORIENTED_EDGE('',*,*,#723,.T.);
#478=ORIENTED_EDGE('',*,*,#666,.T.);
#479=ORIENTED_EDGE('',*,*,#722,.F.);
#480=ORIENTED_EDGE('',*,*,#715,.F.);
#481=ORIENTED_EDGE('',*,*,#612,.T.);
#482=ORIENTED_EDGE('',*,*,#667,.T.);
#483=ORIENTED_EDGE('',*,*,#723,.F.);
#484=ORIENTED_EDGE('',*,*,#714,.F.);
#485=ORIENTED_EDGE('',*,*,#724,.T.);
#486=ORIENTED_EDGE('',*,*,#668,.T.);
#487=ORIENTED_EDGE('',*,*,#610,.F.);
#488=ORIENTED_EDGE('',*,*,#713,.F.);
#489=ORIENTED_EDGE('',*,*,#725,.T.);
#490=ORIENTED_EDGE('',*,*,#669,.T.);
#491=ORIENTED_EDGE('',*,*,#724,.F.);
#492=ORIENTED_EDGE('',*,*,#712,.F.);
#493=ORIENTED_EDGE('',*,*,#608,.T.);
#494=ORIENTED_EDGE('',*,*,#670,.T.);
#495=ORIENTED_EDGE('',*,*,#725,.F.);
#496=ORIENTED_EDGE('',*,*,#711,.F.);
#497=ORIENTED_EDGE('',*,*,#726,.T.);
#498=ORIENTED_EDGE('',*,*,#671,.T.);
#499=ORIENTED_EDGE('',*,*,#606,.F.);
#500=ORIENTED_EDGE('',*,*,#710,.F.);
#501=ORIENTED_EDGE('',*,*,#727,.T.);
#502=ORIENTED_EDGE('',*,*,#672,.T.);
#503=ORIENTED_EDGE('',*,*,#726,.F.);
#504=ORIENTED_EDGE('',*,*,#709,.F.);
#505=ORIENTED_EDGE('',*,*,#604,.T.);
#506=ORIENTED_EDGE('',*,*,#673,.T.);
#507=ORIENTED_EDGE('',*,*,#727,.F.);
#508=ORIENTED_EDGE('',*,*,#708,.F.);
#509=ORIENTED_EDGE('',*,*,#728,.T.);
#510=ORIENTED_EDGE('',*,*,#674,.T.);
#511=ORIENTED_EDGE('',*,*,#602,.F.);
#512=ORIENTED_EDGE('',*,*,#707,.F.);
#513=ORIENTED_EDGE('',*,*,#729,.T.);
#514=ORIENTED_EDGE('',*,*,#675,.T.);
#515=ORIENTED_EDGE('',*,*,#728,.F.);
#516=ORIENTED_EDGE('',*,*,#706,.F.);
#517=ORIENTED_EDGE('',*,*,#600,.T.);
#518=ORIENTED_EDGE('',*,*,#676,.T.);
#519=ORIENTED_EDGE('',*,*,#729,.F.);
#520=ORIENTED_EDGE('',*,*,#705,.F.);
#521=ORIENTED_EDGE('',*,*,#730,.T.);
#522=ORIENTED_EDGE('',*,*,#677,.T.);
#523=ORIENTED_EDGE('',*,*,#598,.F.);
#524=ORIENTED_EDGE('',*,*,#704,.F.);
#525=ORIENTED_EDGE('',*,*,#731,.T.);
#526=ORIENTED_EDGE('',*,*,#678,.T.);
#527=ORIENTED_EDGE('',*,*,#730,.F.);
#528=ORIENTED_EDGE('',*,*,#703,.F.);
#529=ORIENTED_EDGE('',*,*,#596,.T.);
#530=ORIENTED_EDGE('',*,*,#679,.T.);
#531=ORIENTED_EDGE('',*,*,#731,.F.);
#532=ORIENTED_EDGE('',*,*,#702,.F.);
#533=ORIENTED_EDGE('',*,*,#732,.T.);
#534=ORIENTED_EDGE('',*,*,#680,.T.);
#535=ORIENTED_EDGE('',*,*,#594,.F.);
#536=ORIENTED_EDGE('',*,*,#701,.F.);
#537=ORIENTED_EDGE('',*,*,#733,.T.);
#538=ORIENTED_EDGE('',*,*,#681,.T.);
#539=ORIENTED_EDGE('',*,*,#732,.F.);
#540=ORIENTED_EDGE('',*,*,#700,.F.);
#541=ORIENTED_EDGE('',*,*,#592,.T.);
#542=ORIENTED_EDGE('',*,*,#682,.T.);
#543=ORIENTED_EDGE('',*,*,#733,.F.);
#544=ORIENTED_EDGE('',*,*,#699,.F.);
#545=ORIENTED_EDGE('',*,*,#734,.T.);
#546=ORIENTED_EDGE('',*,*,#683,.T.);
#547=ORIENTED_EDGE('',*,*,#590,.F.);
#548=ORIENTED_EDGE('',*,*,#698,.F.);
#549=ORIENTED_EDGE('',*,*,#735,.T.);
#550=ORIENTED_EDGE('',*,*,#684,.T.);
#551=ORIENTED_EDGE('',*,*,#734,.F.);
#552=ORIENTED_EDGE('',*,*,#697,.F.);
#553=ORIENTED_EDGE('',*,*,#588,.T.);
#554=ORIENTED_EDGE('',*,*,#685,.T.);
#555=ORIENTED_EDGE('',*,*,#735,.F.);
#556=ORIENTED_EDGE('',*,*,#696,.F.);
#557=ORIENTED_EDGE('',*,*,#736,.T.);
#558=ORIENTED_EDGE('',*,*,#686,.T.);
#559=ORIENTED_EDGE('',*,*,#586,.F.);
#560=ORIENTED_EDGE('',*,*,#695,.F.);
#561=ORIENTED_EDGE('',*,*,#737,.T.);
#562=ORIENTED_EDGE('',*,*,#687,.T.);
#563=ORIENTED_EDGE('',*,*,#736,.F.);
#564=ORIENTED_EDGE('',*,*,#694,.F.);
#565=ORIENTED_EDGE('',*,*,#584,.T.);
#566=ORIENTED_EDGE('',*,*,#688,.T.);
#567=ORIENTED_EDGE('',*,*,#737,.F.);
#568=ORIENTED_EDGE('',*,*,#693,.F.);
#569=ORIENTED_EDGE('',*,*,#692,.F.);
#570=ORIENTED_EDGE('',*,*,#738,.T.);
#571=ORIENTED_EDGE('',*,*,#689,.T.);
#572=ORIENTED_EDGE('',*,*,#582,.F.);
#573=ORIENTED_EDGE('',*,*,#691,.F.);
#574=ORIENTED_EDGE('',*,*,#739,.T.);
#575=ORIENTED_EDGE('',*,*,#660,.T.);
#576=ORIENTED_EDGE('',*,*,#738,.F.);
#577=ORIENTED_EDGE('',*,*,#690,.F.);
#578=ORIENTED_EDGE('',*,*,#655,.F.);
#579=ORIENTED_EDGE('',*,*,#661,.F.);
#580=ORIENTED_EDGE('',*,*,#739,.F.);
#581=EDGE_CURVE('',#740,#741,#846,.T.);
#582=EDGE_CURVE('',#741,#742,#49,.T.);
#583=EDGE_CURVE('',#743,#742,#847,.T.);
#584=EDGE_CURVE('',#740,#743,#50,.T.);
#585=EDGE_CURVE('',#744,#745,#848,.T.);
#586=EDGE_CURVE('',#745,#746,#51,.T.);
#587=EDGE_CURVE('',#747,#746,#849,.T.);
#588=EDGE_CURVE('',#744,#747,#52,.T.);
#589=EDGE_CURVE('',#748,#749,#850,.T.);
#590=EDGE_CURVE('',#749,#750,#53,.T.);
#591=EDGE_CURVE('',#751,#750,#851,.T.);
#592=EDGE_CURVE('',#748,#751,#54,.T.);
#593=EDGE_CURVE('',#752,#753,#852,.T.);
#594=EDGE_CURVE('',#753,#754,#55,.T.);
#595=EDGE_CURVE('',#755,#754,#853,.T.);
#596=EDGE_CURVE('',#752,#755,#56,.T.);
#597=EDGE_CURVE('',#756,#757,#854,.T.);
#598=EDGE_CURVE('',#757,#758,#57,.T.);
#599=EDGE_CURVE('',#759,#758,#855,.T.);
#600=EDGE_CURVE('',#756,#759,#58,.T.);
#601=EDGE_CURVE('',#760,#761,#856,.T.);
#602=EDGE_CURVE('',#761,#762,#59,.T.);
#603=EDGE_CURVE('',#763,#762,#857,.T.);
#604=EDGE_CURVE('',#760,#763,#60,.T.);
#605=EDGE_CURVE('',#764,#765,#858,.T.);
#606=EDGE_CURVE('',#765,#766,#61,.T.);
#607=EDGE_CURVE('',#767,#766,#859,.T.);
#608=EDGE_CURVE('',#764,#767,#62,.T.);
#609=EDGE_CURVE('',#768,#769,#860,.T.);
#610=EDGE_CURVE('',#769,#770,#63,.T.);
#611=EDGE_CURVE('',#771,#770,#861,.T.);
#612=EDGE_CURVE('',#768,#771,#64,.T.);
#613=EDGE_CURVE('',#772,#773,#862,.T.);
#614=EDGE_CURVE('',#773,#774,#65,.T.);
#615=EDGE_CURVE('',#775,#774,#863,.T.);
#616=EDGE_CURVE('',#772,#775,#66,.T.);
#617=EDGE_CURVE('',#776,#777,#864,.T.);
#618=EDGE_CURVE('',#777,#778,#67,.T.);
#619=EDGE_CURVE('',#779,#778,#865,.T.);
#620=EDGE_CURVE('',#779,#776,#68,.T.);
#621=EDGE_CURVE('',#780,#781,#866,.T.);
#622=EDGE_CURVE('',#782,#781,#69,.T.);
#623=EDGE_CURVE('',#783,#782,#867,.T.);
#624=EDGE_CURVE('',#783,#780,#70,.T.);
#625=EDGE_CURVE('',#781,#784,#71,.T.);
#626=EDGE_CURVE('',#785,#784,#72,.T.);
#627=EDGE_CURVE('',#782,#785,#73,.T.);
#628=EDGE_CURVE('',#784,#786,#868,.T.);
#629=EDGE_CURVE('',#787,#786,#74,.T.);
#630=EDGE_CURVE('',#785,#787,#869,.T.);
#631=EDGE_CURVE('',#786,#788,#75,.T.);
#632=EDGE_CURVE('',#789,#788,#76,.T.);
#633=EDGE_CURVE('',#787,#789,#77,.T.);
#634=EDGE_CURVE('',#788,#790,#870,.T.);
#635=EDGE_CURVE('',#791,#790,#78,.T.);
#636=EDGE_CURVE('',#789,#791,#871,.T.);
#637=EDGE_CURVE('',#790,#792,#79,.T.);
#638=EDGE_CURVE('',#793,#792,#80,.T.);
#639=EDGE_CURVE('',#791,#793,#81,.T.);
#640=EDGE_CURVE('',#792,#794,#872,.T.);
#641=EDGE_CURVE('',#795,#794,#82,.T.);
#642=EDGE_CURVE('',#793,#795,#873,.T.);
#643=EDGE_CURVE('',#794,#796,#83,.T.);
#644=EDGE_CURVE('',#797,#796,#84,.T.);
#645=EDGE_CURVE('',#795,#797,#85,.T.);
#646=EDGE_CURVE('',#796,#798,#874,.T.);
#647=EDGE_CURVE('',#799,#798,#86,.T.);
#648=EDGE_CURVE('',#797,#799,#875,.T.);
#649=EDGE_CURVE('',#798,#800,#87,.T.);
#650=EDGE_CURVE('',#801,#800,#88,.T.);
#651=EDGE_CURVE('',#799,#801,#89,.T.);
#652=EDGE_CURVE('',#800,#776,#90,.T.);
#653=EDGE_CURVE('',#801,#779,#91,.T.);
#654=EDGE_CURVE('',#802,#803,#92,.T.);
#655=EDGE_CURVE('',#802,#804,#93,.F.);
#656=EDGE_CURVE('',#804,#805,#94,.T.);
#657=EDGE_CURVE('',#803,#805,#95,.T.);
#658=EDGE_CURVE('',#805,#780,#96,.T.);
#659=EDGE_CURVE('',#803,#783,#97,.T.);
#660=EDGE_CURVE('',#806,#807,#876,.T.);
#661=EDGE_CURVE('',#806,#802,#877,.F.);
#662=EDGE_CURVE('',#808,#778,#98,.T.);
#663=EDGE_CURVE('',#809,#808,#878,.T.);
#664=EDGE_CURVE('',#775,#809,#99,.T.);
#665=EDGE_CURVE('',#810,#774,#100,.T.);
#666=EDGE_CURVE('',#811,#810,#879,.T.);
#667=EDGE_CURVE('',#771,#811,#101,.T.);
#668=EDGE_CURVE('',#812,#770,#102,.T.);
#669=EDGE_CURVE('',#813,#812,#880,.T.);
#670=EDGE_CURVE('',#767,#813,#103,.T.);
#671=EDGE_CURVE('',#814,#766,#104,.T.);
#672=EDGE_CURVE('',#815,#814,#881,.T.);
#673=EDGE_CURVE('',#763,#815,#105,.T.);
#674=EDGE_CURVE('',#816,#762,#106,.T.);
#675=EDGE_CURVE('',#817,#816,#882,.T.);
#676=EDGE_CURVE('',#759,#817,#107,.T.);
#677=EDGE_CURVE('',#818,#758,#108,.T.);
#678=EDGE_CURVE('',#819,#818,#883,.T.);
#679=EDGE_CURVE('',#755,#819,#109,.T.);
#680=EDGE_CURVE('',#820,#754,#110,.T.);
#681=EDGE_CURVE('',#821,#820,#884,.T.);
#682=EDGE_CURVE('',#751,#821,#111,.T.);
#683=EDGE_CURVE('',#822,#750,#112,.T.);
#684=EDGE_CURVE('',#823,#822,#885,.T.);
#685=EDGE_CURVE('',#747,#823,#113,.T.);
#686=EDGE_CURVE('',#824,#746,#114,.T.);
#687=EDGE_CURVE('',#825,#824,#886,.T.);
#688=EDGE_CURVE('',#743,#825,#115,.T.);
#689=EDGE_CURVE('',#807,#742,#116,.T.);
#690=EDGE_CURVE('',#804,#826,#887,.T.);
#691=EDGE_CURVE('',#826,#827,#888,.T.);
#692=EDGE_CURVE('',#827,#741,#117,.T.);
#693=EDGE_CURVE('',#740,#828,#118,.T.);
#694=EDGE_CURVE('',#828,#829,#889,.F.);
#695=EDGE_CURVE('',#829,#745,#119,.T.);
#696=EDGE_CURVE('',#744,#830,#120,.T.);
#697=EDGE_CURVE('',#830,#831,#890,.F.);
#698=EDGE_CURVE('',#831,#749,#121,.T.);
#699=EDGE_CURVE('',#748,#832,#122,.T.);
#700=EDGE_CURVE('',#832,#833,#891,.F.);
#701=EDGE_CURVE('',#833,#753,#123,.T.);
#702=EDGE_CURVE('',#752,#834,#124,.T.);
#703=EDGE_CURVE('',#834,#835,#892,.F.);
#704=EDGE_CURVE('',#835,#757,#125,.T.);
#705=EDGE_CURVE('',#756,#836,#126,.T.);
#706=EDGE_CURVE('',#836,#837,#893,.F.);
#707=EDGE_CURVE('',#837,#761,#127,.T.);
#708=EDGE_CURVE('',#760,#838,#128,.T.);
#709=EDGE_CURVE('',#838,#839,#894,.F.);
#710=EDGE_CURVE('',#839,#765,#129,.T.);
#711=EDGE_CURVE('',#764,#840,#130,.T.);
#712=EDGE_CURVE('',#840,#841,#895,.F.);
#713=EDGE_CURVE('',#841,#769,#131,.T.);
#714=EDGE_CURVE('',#768,#842,#132,.T.);
#715=EDGE_CURVE('',#842,#843,#896,.F.);
#716=EDGE_CURVE('',#843,#773,#133,.T.);
#717=EDGE_CURVE('',#772,#844,#134,.T.);
#718=EDGE_CURVE('',#844,#845,#897,.F.);
#719=EDGE_CURVE('',#845,#777,#135,.T.);
#720=EDGE_CURVE('',#845,#808,#136,.T.);
#721=EDGE_CURVE('',#844,#809,#137,.T.);
#722=EDGE_CURVE('',#843,#810,#138,.T.);
#723=EDGE_CURVE('',#842,#811,#139,.T.);
#724=EDGE_CURVE('',#841,#812,#140,.T.);
#725=EDGE_CURVE('',#840,#813,#141,.T.);
#726=EDGE_CURVE('',#839,#814,#142,.T.);
#727=EDGE_CURVE('',#838,#815,#143,.T.);
#728=EDGE_CURVE('',#837,#816,#144,.T.);
#729=EDGE_CURVE('',#836,#817,#145,.T.);
#730=EDGE_CURVE('',#835,#818,#146,.T.);
#731=EDGE_CURVE('',#834,#819,#147,.T.);
#732=EDGE_CURVE('',#833,#820,#148,.T.);
#733=EDGE_CURVE('',#832,#821,#149,.T.);
#734=EDGE_CURVE('',#831,#822,#150,.T.);
#735=EDGE_CURVE('',#830,#823,#151,.T.);
#736=EDGE_CURVE('',#829,#824,#152,.T.);
#737=EDGE_CURVE('',#828,#825,#153,.T.);
#738=EDGE_CURVE('',#827,#807,#154,.T.);
#739=EDGE_CURVE('',#826,#806,#155,.T.);
#740=VERTEX_POINT('',#1527);
#741=VERTEX_POINT('',#1528);
#742=VERTEX_POINT('',#1530);
#743=VERTEX_POINT('',#1532);
#744=VERTEX_POINT('',#1536);
#745=VERTEX_POINT('',#1537);
#746=VERTEX_POINT('',#1539);
#747=VERTEX_POINT('',#1541);
#748=VERTEX_POINT('',#1545);
#749=VERTEX_POINT('',#1546);
#750=VERTEX_POINT('',#1548);
#751=VERTEX_POINT('',#1550);
#752=VERTEX_POINT('',#1554);
#753=VERTEX_POINT('',#1555);
#754=VERTEX_POINT('',#1557);
#755=VERTEX_POINT('',#1559);
#756=VERTEX_POINT('',#1563);
#757=VERTEX_POINT('',#1564);
#758=VERTEX_POINT('',#1566);
#759=VERTEX_POINT('',#1568);
#760=VERTEX_POINT('',#1572);
#761=VERTEX_POINT('',#1573);
#762=VERTEX_POINT('',#1575);
#763=VERTEX_POINT('',#1577);
#764=VERTEX_POINT('',#1581);
#765=VERTEX_POINT('',#1582);
#766=VERTEX_POINT('',#1584);
#767=VERTEX_POINT('',#1586);
#768=VERTEX_POINT('',#1590);
#769=VERTEX_POINT('',#1591);
#770=VERTEX_POINT('',#1593);
#771=VERTEX_POINT('',#1595);
#772=VERTEX_POINT('',#1599);
#773=VERTEX_POINT('',#1600);
#774=VERTEX_POINT('',#1602);
#775=VERTEX_POINT('',#1604);
#776=VERTEX_POINT('',#1608);
#777=VERTEX_POINT('',#1609);
#778=VERTEX_POINT('',#1611);
#779=VERTEX_POINT('',#1613);
#780=VERTEX_POINT('',#1617);
#781=VERTEX_POINT('',#1618);
#782=VERTEX_POINT('',#1620);
#783=VERTEX_POINT('',#1622);
#784=VERTEX_POINT('',#1626);
#785=VERTEX_POINT('',#1628);
#786=VERTEX_POINT('',#1632);
#787=VERTEX_POINT('',#1634);
#788=VERTEX_POINT('',#1638);
#789=VERTEX_POINT('',#1640);
#790=VERTEX_POINT('',#1644);
#791=VERTEX_POINT('',#1646);
#792=VERTEX_POINT('',#1650);
#793=VERTEX_POINT('',#1652);
#794=VERTEX_POINT('',#1656);
#795=VERTEX_POINT('',#1658);
#796=VERTEX_POINT('',#1662);
#797=VERTEX_POINT('',#1664);
#798=VERTEX_POINT('',#1668);
#799=VERTEX_POINT('',#1670);
#800=VERTEX_POINT('',#1674);
#801=VERTEX_POINT('',#1676);
#802=VERTEX_POINT('',#1683);
#803=VERTEX_POINT('',#1684);
#804=VERTEX_POINT('',#1686);
#805=VERTEX_POINT('',#1688);
#806=VERTEX_POINT('',#1695);
#807=VERTEX_POINT('',#1696);
#808=VERTEX_POINT('',#1699);
#809=VERTEX_POINT('',#1701);
#810=VERTEX_POINT('',#1704);
#811=VERTEX_POINT('',#1706);
#812=VERTEX_POINT('',#1709);
#813=VERTEX_POINT('',#1711);
#814=VERTEX_POINT('',#1714);
#815=VERTEX_POINT('',#1716);
#816=VERTEX_POINT('',#1719);
#817=VERTEX_POINT('',#1721);
#818=VERTEX_POINT('',#1724);
#819=VERTEX_POINT('',#1726);
#820=VERTEX_POINT('',#1729);
#821=VERTEX_POINT('',#1731);
#822=VERTEX_POINT('',#1734);
#823=VERTEX_POINT('',#1736);
#824=VERTEX_POINT('',#1739);
#825=VERTEX_POINT('',#1741);
#826=VERTEX_POINT('',#1746);
#827=VERTEX_POINT('',#1748);
#828=VERTEX_POINT('',#1751);
#829=VERTEX_POINT('',#1753);
#830=VERTEX_POINT('',#1756);
#831=VERTEX_POINT('',#1758);
#832=VERTEX_POINT('',#1761);
#833=VERTEX_POINT('',#1763);
#834=VERTEX_POINT('',#1766);
#835=VERTEX_POINT('',#1768);
#836=VERTEX_POINT('',#1771);
#837=VERTEX_POINT('',#1773);
#838=VERTEX_POINT('',#1776);
#839=VERTEX_POINT('',#1778);
#840=VERTEX_POINT('',#1781);
#841=VERTEX_POINT('',#1783);
#842=VERTEX_POINT('',#1786);
#843=VERTEX_POINT('',#1788);
#844=VERTEX_POINT('',#1791);
#845=VERTEX_POINT('',#1793);
#846=CIRCLE('',#1095,0.0121);
#847=CIRCLE('',#1096,0.0121);
#848=CIRCLE('',#1098,0.0121);
#849=CIRCLE('',#1099,0.0121);
#850=CIRCLE('',#1101,0.0121);
#851=CIRCLE('',#1102,0.0121);
#852=CIRCLE('',#1104,0.0121);
#853=CIRCLE('',#1105,0.0121);
#854=CIRCLE('',#1107,0.0121);
#855=CIRCLE('',#1108,0.0121);
#856=CIRCLE('',#1110,0.0121);
#857=CIRCLE('',#1111,0.0121);
#858=CIRCLE('',#1113,0.0121);
#859=CIRCLE('',#1114,0.0121);
#860=CIRCLE('',#1116,0.0121);
#861=CIRCLE('',#1117,0.0121);
#862=CIRCLE('',#1119,0.0121);
#863=CIRCLE('',#1120,0.0121);
#864=CIRCLE('',#1122,0.0121);
#865=CIRCLE('',#1123,0.0121);
#866=CIRCLE('',#1125,0.0072);
#867=CIRCLE('',#1126,0.0072);
#868=CIRCLE('',#1129,0.0092);
#869=CIRCLE('',#1130,0.0092);
#870=CIRCLE('',#1133,0.0093);
#871=CIRCLE('',#1134,0.0093);
#872=CIRCLE('',#1137,0.0092);
#873=CIRCLE('',#1138,0.0092);
#874=CIRCLE('',#1141,0.0072);
#875=CIRCLE('',#1142,0.0072);
#876=CIRCLE('',#1148,0.0109);
#877=CIRCLE('',#1149,0.001);
#878=CIRCLE('',#1150,0.0005);
#879=CIRCLE('',#1151,0.0005);
#880=CIRCLE('',#1152,0.0005);
#881=CIRCLE('',#1153,0.0005);
#882=CIRCLE('',#1154,0.0005);
#883=CIRCLE('',#1155,0.0005);
#884=CIRCLE('',#1156,0.0005);
#885=CIRCLE('',#1157,0.0005);
#886=CIRCLE('',#1158,0.0005);
#887=CIRCLE('',#1160,0.001);
#888=CIRCLE('',#1161,0.0109);
#889=CIRCLE('',#1162,0.0005);
#890=CIRCLE('',#1163,0.0005);
#891=CIRCLE('',#1164,0.0005);
#892=CIRCLE('',#1165,0.0005);
#893=CIRCLE('',#1166,0.0005);
#894=CIRCLE('',#1167,0.0005);
#895=CIRCLE('',#1168,0.0005);
#896=CIRCLE('',#1169,0.0005);
#897=CIRCLE('',#1170,0.0005);
#898=EDGE_LOOP('',(#263,#264,#265,#266));
#899=EDGE_LOOP('',(#267,#268,#269,#270));
#900=EDGE_LOOP('',(#271,#272,#273,#274));
#901=EDGE_LOOP('',(#275,#276,#277,#278));
#902=EDGE_LOOP('',(#279,#280,#281,#282));
#903=EDGE_LOOP('',(#283,#284,#285,#286));
#904=EDGE_LOOP('',(#287,#288,#289,#290));
#905=EDGE_LOOP('',(#291,#292,#293,#294));
#906=EDGE_LOOP('',(#295,#296,#297,#298));
#907=EDGE_LOOP('',(#299,#300,#301,#302));
#908=EDGE_LOOP('',(#303,#304,#305,#306));
#909=EDGE_LOOP('',(#307,#308,#309,#310));
#910=EDGE_LOOP('',(#311,#312,#313,#314));
#911=EDGE_LOOP('',(#315,#316,#317,#318));
#912=EDGE_LOOP('',(#319,#320,#321,#322));
#913=EDGE_LOOP('',(#323,#324,#325,#326));
#914=EDGE_LOOP('',(#327,#328,#329,#330));
#915=EDGE_LOOP('',(#331,#332,#333,#334));
#916=EDGE_LOOP('',(#335,#336,#337,#338));
#917=EDGE_LOOP('',(#339,#340,#341,#342));
#918=EDGE_LOOP('',(#343,#344,#345,#346));
#919=EDGE_LOOP('',(#347,#348,#349,#350));
#920=EDGE_LOOP('',(#351,#352,#353,#354));
#921=EDGE_LOOP('',(#355,#356,#357,#358,#359,#360,#361,#362,#363,#364,#365,
#366,#367,#368,#369,#370,#371,#372,#373,#374,#375,#376,#377,#378,#379,#380,
#381,#382,#383,#384,#385,#386,#387,#388,#389,#390,#391,#392,#393,#394,#395,
#396,#397,#398,#399,#400,#401,#402,#403,#404,#405,#406,#407));
#922=EDGE_LOOP('',(#408,#409,#410,#411,#412,#413,#414,#415,#416,#417,#418,
#419,#420,#421,#422,#423,#424,#425,#426,#427,#428,#429,#430,#431,#432,#433,
#434,#435,#436,#437,#438,#439,#440,#441,#442,#443,#444,#445,#446,#447,#448,
#449,#450,#451,#452,#453,#454,#455,#456,#457,#458,#459,#460));
#923=EDGE_LOOP('',(#461,#462,#463,#464));
#924=EDGE_LOOP('',(#465,#466,#467,#468));
#925=EDGE_LOOP('',(#469,#470,#471,#472));
#926=EDGE_LOOP('',(#473,#474,#475,#476));
#927=EDGE_LOOP('',(#477,#478,#479,#480));
#928=EDGE_LOOP('',(#481,#482,#483,#484));
#929=EDGE_LOOP('',(#485,#486,#487,#488));
#930=EDGE_LOOP('',(#489,#490,#491,#492));
#931=EDGE_LOOP('',(#493,#494,#495,#496));
#932=EDGE_LOOP('',(#497,#498,#499,#500));
#933=EDGE_LOOP('',(#501,#502,#503,#504));
#934=EDGE_LOOP('',(#505,#506,#507,#508));
#935=EDGE_LOOP('',(#509,#510,#511,#512));
#936=EDGE_LOOP('',(#513,#514,#515,#516));
#937=EDGE_LOOP('',(#517,#518,#519,#520));
#938=EDGE_LOOP('',(#521,#522,#523,#524));
#939=EDGE_LOOP('',(#525,#526,#527,#528));
#940=EDGE_LOOP('',(#529,#530,#531,#532));
#941=EDGE_LOOP('',(#533,#534,#535,#536));
#942=EDGE_LOOP('',(#537,#538,#539,#540));
#943=EDGE_LOOP('',(#541,#542,#543,#544));
#944=EDGE_LOOP('',(#545,#546,#547,#548));
#945=EDGE_LOOP('',(#549,#550,#551,#552));
#946=EDGE_LOOP('',(#553,#554,#555,#556));
#947=EDGE_LOOP('',(#557,#558,#559,#560));
#948=EDGE_LOOP('',(#561,#562,#563,#564));
#949=EDGE_LOOP('',(#565,#566,#567,#568));
#950=EDGE_LOOP('',(#569,#570,#571,#572));
#951=EDGE_LOOP('',(#573,#574,#575,#576));
#952=EDGE_LOOP('',(#577,#578,#579,#580));
#953=FACE_BOUND('',#898,.T.);
#954=FACE_BOUND('',#899,.T.);
#955=FACE_BOUND('',#900,.T.);
#956=FACE_BOUND('',#901,.T.);
#957=FACE_BOUND('',#902,.T.);
#958=FACE_BOUND('',#903,.T.);
#959=FACE_BOUND('',#904,.T.);
#960=FACE_BOUND('',#905,.T.);
#961=FACE_BOUND('',#906,.T.);
#962=FACE_BOUND('',#907,.T.);
#963=FACE_BOUND('',#908,.T.);
#964=FACE_BOUND('',#909,.T.);
#965=FACE_BOUND('',#910,.T.);
#966=FACE_BOUND('',#911,.T.);
#967=FACE_BOUND('',#912,.T.);
#968=FACE_BOUND('',#913,.T.);
#969=FACE_BOUND('',#914,.T.);
#970=FACE_BOUND('',#915,.T.);
#971=FACE_BOUND('',#916,.T.);
#972=FACE_BOUND('',#917,.T.);
#973=FACE_BOUND('',#918,.T.);
#974=FACE_BOUND('',#919,.T.);
#975=FACE_BOUND('',#920,.T.);
#976=FACE_BOUND('',#921,.T.);
#977=FACE_BOUND('',#922,.T.);
#978=FACE_BOUND('',#923,.T.);
#979=FACE_BOUND('',#924,.T.);
#980=FACE_BOUND('',#925,.T.);
#981=FACE_BOUND('',#926,.T.);
#982=FACE_BOUND('',#927,.T.);
#983=FACE_BOUND('',#928,.T.);
#984=FACE_BOUND('',#929,.T.);
#985=FACE_BOUND('',#930,.T.);
#986=FACE_BOUND('',#931,.T.);
#987=FACE_BOUND('',#932,.T.);
#988=FACE_BOUND('',#933,.T.);
#989=FACE_BOUND('',#934,.T.);
#990=FACE_BOUND('',#935,.T.);
#991=FACE_BOUND('',#936,.T.);
#992=FACE_BOUND('',#937,.T.);
#993=FACE_BOUND('',#938,.T.);
#994=FACE_BOUND('',#939,.T.);
#995=FACE_BOUND('',#940,.T.);
#996=FACE_BOUND('',#941,.T.);
#997=FACE_BOUND('',#942,.T.);
#998=FACE_BOUND('',#943,.T.);
#999=FACE_BOUND('',#944,.T.);
#1000=FACE_BOUND('',#945,.T.);
#1001=FACE_BOUND('',#946,.T.);
#1002=FACE_BOUND('',#947,.T.);
#1003=FACE_BOUND('',#948,.T.);
#1004=FACE_BOUND('',#949,.T.);
#1005=FACE_BOUND('',#950,.T.);
#1006=FACE_BOUND('',#951,.T.);
#1007=FACE_BOUND('',#952,.T.);
#1008=CYLINDRICAL_SURFACE('',#1094,0.0121);
#1009=CYLINDRICAL_SURFACE('',#1097,0.0121);
#1010=CYLINDRICAL_SURFACE('',#1100,0.0121);
#1011=CYLINDRICAL_SURFACE('',#1103,0.0121);
#1012=CYLINDRICAL_SURFACE('',#1106,0.0121);
#1013=CYLINDRICAL_SURFACE('',#1109,0.0121);
#1014=CYLINDRICAL_SURFACE('',#1112,0.0121);
#1015=CYLINDRICAL_SURFACE('',#1115,0.0121);
#1016=CYLINDRICAL_SURFACE('',#1118,0.0121);
#1017=CYLINDRICAL_SURFACE('',#1121,0.0121);
#1018=CYLINDRICAL_SURFACE('',#1124,0.0072);
#1019=CYLINDRICAL_SURFACE('',#1128,0.0092);
#1020=CYLINDRICAL_SURFACE('',#1132,0.0093);
#1021=CYLINDRICAL_SURFACE('',#1136,0.0092);
#1022=CYLINDRICAL_SURFACE('',#1140,0.0072);
#1023=CYLINDRICAL_SURFACE('',#1172,0.0005);
#1024=CYLINDRICAL_SURFACE('',#1175,0.0005);
#1025=CYLINDRICAL_SURFACE('',#1178,0.0005);
#1026=CYLINDRICAL_SURFACE('',#1181,0.0005);
#1027=CYLINDRICAL_SURFACE('',#1184,0.0005);
#1028=CYLINDRICAL_SURFACE('',#1187,0.0005);
#1029=CYLINDRICAL_SURFACE('',#1190,0.0005);
#1030=CYLINDRICAL_SURFACE('',#1193,0.0005);
#1031=CYLINDRICAL_SURFACE('',#1196,0.0005);
#1032=CYLINDRICAL_SURFACE('',#1199,0.0109);
#1033=CYLINDRICAL_SURFACE('',#1200,0.001);
#1034=ADVANCED_FACE('',(#953),#1008,.T.);
#1035=ADVANCED_FACE('',(#954),#1009,.T.);
#1036=ADVANCED_FACE('',(#955),#1010,.T.);
#1037=ADVANCED_FACE('',(#956),#1011,.T.);
#1038=ADVANCED_FACE('',(#957),#1012,.T.);
#1039=ADVANCED_FACE('',(#958),#1013,.T.);
#1040=ADVANCED_FACE('',(#959),#1014,.T.);
#1041=ADVANCED_FACE('',(#960),#1015,.T.);
#1042=ADVANCED_FACE('',(#961),#1016,.T.);
#1043=ADVANCED_FACE('',(#962),#1017,.T.);
#1044=ADVANCED_FACE('',(#963),#1018,.F.);
#1045=ADVANCED_FACE('',(#964),#20,.F.);
#1046=ADVANCED_FACE('',(#965),#1019,.F.);
#1047=ADVANCED_FACE('',(#966),#21,.F.);
#1048=ADVANCED_FACE('',(#967),#1020,.F.);
#1049=ADVANCED_FACE('',(#968),#22,.F.);
#1050=ADVANCED_FACE('',(#969),#1021,.F.);
#1051=ADVANCED_FACE('',(#970),#23,.F.);
#1052=ADVANCED_FACE('',(#971),#1022,.F.);
#1053=ADVANCED_FACE('',(#972),#24,.F.);
#1054=ADVANCED_FACE('',(#973),#25,.F.);
#1055=ADVANCED_FACE('',(#974),#26,.F.);
#1056=ADVANCED_FACE('',(#975),#27,.F.);
#1057=ADVANCED_FACE('',(#976),#28,.F.);
#1058=ADVANCED_FACE('',(#977),#29,.T.);
#1059=ADVANCED_FACE('',(#978),#30,.F.);
#1060=ADVANCED_FACE('',(#979),#1023,.F.);
#1061=ADVANCED_FACE('',(#980),#31,.F.);
#1062=ADVANCED_FACE('',(#981),#32,.F.);
#1063=ADVANCED_FACE('',(#982),#1024,.F.);
#1064=ADVANCED_FACE('',(#983),#33,.F.);
#1065=ADVANCED_FACE('',(#984),#34,.F.);
#1066=ADVANCED_FACE('',(#985),#1025,.F.);
#1067=ADVANCED_FACE('',(#986),#35,.F.);
#1068=ADVANCED_FACE('',(#987),#36,.F.);
#1069=ADVANCED_FACE('',(#988),#1026,.F.);
#1070=ADVANCED_FACE('',(#989),#37,.F.);
#1071=ADVANCED_FACE('',(#990),#38,.F.);
#1072=ADVANCED_FACE('',(#991),#1027,.F.);
#1073=ADVANCED_FACE('',(#992),#39,.F.);
#1074=ADVANCED_FACE('',(#993),#40,.F.);
#1075=ADVANCED_FACE('',(#994),#1028,.F.);
#1076=ADVANCED_FACE('',(#995),#41,.F.);
#1077=ADVANCED_FACE('',(#996),#42,.F.);
#1078=ADVANCED_FACE('',(#997),#1029,.F.);
#1079=ADVANCED_FACE('',(#998),#43,.F.);
#1080=ADVANCED_FACE('',(#999),#44,.F.);
#1081=ADVANCED_FACE('',(#1000),#1030,.F.);
#1082=ADVANCED_FACE('',(#1001),#45,.F.);
#1083=ADVANCED_FACE('',(#1002),#46,.F.);
#1084=ADVANCED_FACE('',(#1003),#1031,.F.);
#1085=ADVANCED_FACE('',(#1004),#47,.F.);
#1086=ADVANCED_FACE('',(#1005),#48,.F.);
#1087=ADVANCED_FACE('',(#1006),#1032,.T.);
#1088=ADVANCED_FACE('',(#1007),#1033,.T.);
#1089=CLOSED_SHELL('',(#1034,#1035,#1036,#1037,#1038,#1039,#1040,#1041,
#1042,#1043,#1044,#1045,#1046,#1047,#1048,#1049,#1050,#1051,#1052,#1053,
#1054,#1055,#1056,#1057,#1058,#1059,#1060,#1061,#1062,#1063,#1064,#1065,
#1066,#1067,#1068,#1069,#1070,#1071,#1072,#1073,#1074,#1075,#1076,#1077,
#1078,#1079,#1080,#1081,#1082,#1083,#1084,#1085,#1086,#1087,#1088));
#1090=MANIFOLD_SOLID_BREP('',#1089);
#1091=SHAPE_DEFINITION_REPRESENTATION(#1850,#1092);
#1092=SHAPE_REPRESENTATION('id2',(#1093),#1845);
#1093=AXIS2_PLACEMENT_3D('',#1524,#1201,#1202);
#1094=AXIS2_PLACEMENT_3D('',#1525,#1203,#1204);
#1095=AXIS2_PLACEMENT_3D('',#1526,#1205,#1206);
#1096=AXIS2_PLACEMENT_3D('',#1531,#1208,#1209);
#1097=AXIS2_PLACEMENT_3D('',#1534,#1211,#1212);
#1098=AXIS2_PLACEMENT_3D('',#1535,#1213,#1214);
#1099=AXIS2_PLACEMENT_3D('',#1540,#1216,#1217);
#1100=AXIS2_PLACEMENT_3D('',#1543,#1219,#1220);
#1101=AXIS2_PLACEMENT_3D('',#1544,#1221,#1222);
#1102=AXIS2_PLACEMENT_3D('',#1549,#1224,#1225);
#1103=AXIS2_PLACEMENT_3D('',#1552,#1227,#1228);
#1104=AXIS2_PLACEMENT_3D('',#1553,#1229,#1230);
#1105=AXIS2_PLACEMENT_3D('',#1558,#1232,#1233);
#1106=AXIS2_PLACEMENT_3D('',#1561,#1235,#1236);
#1107=AXIS2_PLACEMENT_3D('',#1562,#1237,#1238);
#1108=AXIS2_PLACEMENT_3D('',#1567,#1240,#1241);
#1109=AXIS2_PLACEMENT_3D('',#1570,#1243,#1244);
#1110=AXIS2_PLACEMENT_3D('',#1571,#1245,#1246);
#1111=AXIS2_PLACEMENT_3D('',#1576,#1248,#1249);
#1112=AXIS2_PLACEMENT_3D('',#1579,#1251,#1252);
#1113=AXIS2_PLACEMENT_3D('',#1580,#1253,#1254);
#1114=AXIS2_PLACEMENT_3D('',#1585,#1256,#1257);
#1115=AXIS2_PLACEMENT_3D('',#1588,#1259,#1260);
#1116=AXIS2_PLACEMENT_3D('',#1589,#1261,#1262);
#1117=AXIS2_PLACEMENT_3D('',#1594,#1264,#1265);
#1118=AXIS2_PLACEMENT_3D('',#1597,#1267,#1268);
#1119=AXIS2_PLACEMENT_3D('',#1598,#1269,#1270);
#1120=AXIS2_PLACEMENT_3D('',#1603,#1272,#1273);
#1121=AXIS2_PLACEMENT_3D('',#1606,#1275,#1276);
#1122=AXIS2_PLACEMENT_3D('',#1607,#1277,#1278);
#1123=AXIS2_PLACEMENT_3D('',#1612,#1280,#1281);
#1124=AXIS2_PLACEMENT_3D('',#1615,#1283,#1284);
#1125=AXIS2_PLACEMENT_3D('',#1616,#1285,#1286);
#1126=AXIS2_PLACEMENT_3D('',#1621,#1288,#1289);
#1127=AXIS2_PLACEMENT_3D('',#1624,#1291,#1292);
#1128=AXIS2_PLACEMENT_3D('',#1630,#1296,#1297);
#1129=AXIS2_PLACEMENT_3D('',#1631,#1298,#1299);
#1130=AXIS2_PLACEMENT_3D('',#1635,#1301,#1302);
#1131=AXIS2_PLACEMENT_3D('',#1636,#1303,#1304);
#1132=AXIS2_PLACEMENT_3D('',#1642,#1308,#1309);
#1133=AXIS2_PLACEMENT_3D('',#1643,#1310,#1311);
#1134=AXIS2_PLACEMENT_3D('',#1647,#1313,#1314);
#1135=AXIS2_PLACEMENT_3D('',#1648,#1315,#1316);
#1136=AXIS2_PLACEMENT_3D('',#1654,#1320,#1321);
#1137=AXIS2_PLACEMENT_3D('',#1655,#1322,#1323);
#1138=AXIS2_PLACEMENT_3D('',#1659,#1325,#1326);
#1139=AXIS2_PLACEMENT_3D('',#1660,#1327,#1328);
#1140=AXIS2_PLACEMENT_3D('',#1666,#1332,#1333);
#1141=AXIS2_PLACEMENT_3D('',#1667,#1334,#1335);
#1142=AXIS2_PLACEMENT_3D('',#1671,#1337,#1338);
#1143=AXIS2_PLACEMENT_3D('',#1672,#1339,#1340);
#1144=AXIS2_PLACEMENT_3D('',#1678,#1344,#1345);
#1145=AXIS2_PLACEMENT_3D('',#1681,#1348,#1349);
#1146=AXIS2_PLACEMENT_3D('',#1690,#1354,#1355);
#1147=AXIS2_PLACEMENT_3D('',#1693,#1358,#1359);
#1148=AXIS2_PLACEMENT_3D('',#1694,#1360,#1361);
#1149=AXIS2_PLACEMENT_3D('',#1697,#1362,#1363);
#1150=AXIS2_PLACEMENT_3D('',#1700,#1365,#1366);
#1151=AXIS2_PLACEMENT_3D('',#1705,#1369,#1370);
#1152=AXIS2_PLACEMENT_3D('',#1710,#1373,#1374);
#1153=AXIS2_PLACEMENT_3D('',#1715,#1377,#1378);
#1154=AXIS2_PLACEMENT_3D('',#1720,#1381,#1382);
#1155=AXIS2_PLACEMENT_3D('',#1725,#1385,#1386);
#1156=AXIS2_PLACEMENT_3D('',#1730,#1389,#1390);
#1157=AXIS2_PLACEMENT_3D('',#1735,#1393,#1394);
#1158=AXIS2_PLACEMENT_3D('',#1740,#1397,#1398);
#1159=AXIS2_PLACEMENT_3D('',#1744,#1401,#1402);
#1160=AXIS2_PLACEMENT_3D('',#1745,#1403,#1404);
#1161=AXIS2_PLACEMENT_3D('',#1747,#1405,#1406);
#1162=AXIS2_PLACEMENT_3D('',#1752,#1409,#1410);
#1163=AXIS2_PLACEMENT_3D('',#1757,#1413,#1414);
#1164=AXIS2_PLACEMENT_3D('',#1762,#1417,#1418);
#1165=AXIS2_PLACEMENT_3D('',#1767,#1421,#1422);
#1166=AXIS2_PLACEMENT_3D('',#1772,#1425,#1426);
#1167=AXIS2_PLACEMENT_3D('',#1777,#1429,#1430);
#1168=AXIS2_PLACEMENT_3D('',#1782,#1433,#1434);
#1169=AXIS2_PLACEMENT_3D('',#1787,#1437,#1438);
#1170=AXIS2_PLACEMENT_3D('',#1792,#1441,#1442);
#1171=AXIS2_PLACEMENT_3D('',#1795,#1444,#1445);
#1172=AXIS2_PLACEMENT_3D('',#1797,#1447,#1448);
#1173=AXIS2_PLACEMENT_3D('',#1799,#1450,#1451);
#1174=AXIS2_PLACEMENT_3D('',#1800,#1452,#1453);
#1175=AXIS2_PLACEMENT_3D('',#1802,#1455,#1456);
#1176=AXIS2_PLACEMENT_3D('',#1804,#1458,#1459);
#1177=AXIS2_PLACEMENT_3D('',#1805,#1460,#1461);
#1178=AXIS2_PLACEMENT_3D('',#1807,#1463,#1464);
#1179=AXIS2_PLACEMENT_3D('',#1809,#1466,#1467);
#1180=AXIS2_PLACEMENT_3D('',#1810,#1468,#1469);
#1181=AXIS2_PLACEMENT_3D('',#1812,#1471,#1472);
#1182=AXIS2_PLACEMENT_3D('',#1814,#1474,#1475);
#1183=AXIS2_PLACEMENT_3D('',#1815,#1476,#1477);
#1184=AXIS2_PLACEMENT_3D('',#1817,#1479,#1480);
#1185=AXIS2_PLACEMENT_3D('',#1819,#1482,#1483);
#1186=AXIS2_PLACEMENT_3D('',#1820,#1484,#1485);
#1187=AXIS2_PLACEMENT_3D('',#1822,#1487,#1488);
#1188=AXIS2_PLACEMENT_3D('',#1824,#1490,#1491);
#1189=AXIS2_PLACEMENT_3D('',#1825,#1492,#1493);
#1190=AXIS2_PLACEMENT_3D('',#1827,#1495,#1496);
#1191=AXIS2_PLACEMENT_3D('',#1829,#1498,#1499);
#1192=AXIS2_PLACEMENT_3D('',#1830,#1500,#1501);
#1193=AXIS2_PLACEMENT_3D('',#1832,#1503,#1504);
#1194=AXIS2_PLACEMENT_3D('',#1834,#1506,#1507);
#1195=AXIS2_PLACEMENT_3D('',#1835,#1508,#1509);
#1196=AXIS2_PLACEMENT_3D('',#1837,#1511,#1512);
#1197=AXIS2_PLACEMENT_3D('',#1839,#1514,#1515);
#1198=AXIS2_PLACEMENT_3D('',#1840,#1516,#1517);
#1199=AXIS2_PLACEMENT_3D('',#1842,#1519,#1520);
#1200=AXIS2_PLACEMENT_3D('',#1844,#1522,#1523);
#1201=DIRECTION('',(0.,0.,1.));
#1202=DIRECTION('',(1.,0.,0.));
#1203=DIRECTION('',(0.,0.,-1.));
#1204=DIRECTION('',(-1.,0.,0.));
#1205=DIRECTION('',(0.,0.,1.));
#1206=DIRECTION('',(1.,0.,0.));
#1207=DIRECTION('',(0.,0.,1.));
#1208=DIRECTION('',(0.,0.,1.));
#1209=DIRECTION('',(1.,0.,0.));
#1210=DIRECTION('',(0.,0.,1.));
#1211=DIRECTION('',(0.,0.,-1.));
#1212=DIRECTION('',(-1.,0.,0.));
#1213=DIRECTION('',(0.,0.,1.));
#1214=DIRECTION('',(1.,0.,0.));
#1215=DIRECTION('',(0.,0.,1.));
#1216=DIRECTION('',(0.,0.,1.));
#1217=DIRECTION('',(1.,0.,0.));
#1218=DIRECTION('',(0.,0.,1.));
#1219=DIRECTION('',(0.,0.,-1.));
#1220=DIRECTION('',(-1.,0.,0.));
#1221=DIRECTION('',(0.,0.,1.));
#1222=DIRECTION('',(1.,0.,0.));
#1223=DIRECTION('',(0.,0.,1.));
#1224=DIRECTION('',(0.,0.,1.));
#1225=DIRECTION('',(1.,0.,0.));
#1226=DIRECTION('',(0.,0.,1.));
#1227=DIRECTION('',(0.,0.,-1.));
#1228=DIRECTION('',(-1.,0.,0.));
#1229=DIRECTION('',(0.,0.,1.));
#1230=DIRECTION('',(1.,0.,0.));
#1231=DIRECTION('',(0.,0.,1.));
#1232=DIRECTION('',(0.,0.,1.));
#1233=DIRECTION('',(1.,0.,0.));
#1234=DIRECTION('',(0.,0.,1.));
#1235=DIRECTION('',(0.,0.,-1.));
#1236=DIRECTION('',(-1.,0.,0.));
#1237=DIRECTION('',(0.,0.,1.));
#1238=DIRECTION('',(1.,0.,0.));
#1239=DIRECTION('',(0.,0.,1.));
#1240=DIRECTION('',(0.,0.,1.));
#1241=DIRECTION('',(1.,0.,0.));
#1242=DIRECTION('',(0.,0.,1.));
#1243=DIRECTION('',(0.,0.,-1.));
#1244=DIRECTION('',(-1.,0.,0.));
#1245=DIRECTION('',(0.,0.,1.));
#1246=DIRECTION('',(1.,0.,0.));
#1247=DIRECTION('',(0.,0.,1.));
#1248=DIRECTION('',(0.,0.,1.));
#1249=DIRECTION('',(1.,0.,0.));
#1250=DIRECTION('',(0.,0.,1.));
#1251=DIRECTION('',(0.,0.,-1.));
#1252=DIRECTION('',(-1.,0.,0.));
#1253=DIRECTION('',(0.,0.,1.));
#1254=DIRECTION('',(1.,0.,0.));
#1255=DIRECTION('',(0.,0.,1.));
#1256=DIRECTION('',(0.,0.,1.));
#1257=DIRECTION('',(1.,0.,0.));
#1258=DIRECTION('',(0.,0.,1.));
#1259=DIRECTION('',(0.,0.,-1.));
#1260=DIRECTION('',(-1.,0.,0.));
#1261=DIRECTION('',(0.,0.,1.));
#1262=DIRECTION('',(1.,0.,0.));
#1263=DIRECTION('',(0.,0.,1.));
#1264=DIRECTION('',(0.,0.,1.));
#1265=DIRECTION('',(1.,0.,0.));
#1266=DIRECTION('',(0.,0.,1.));
#1267=DIRECTION('',(0.,0.,-1.));
#1268=DIRECTION('',(-1.,0.,0.));
#1269=DIRECTION('',(0.,0.,1.));
#1270=DIRECTION('',(1.,0.,0.));
#1271=DIRECTION('',(0.,0.,1.));
#1272=DIRECTION('',(0.,0.,1.));
#1273=DIRECTION('',(1.,0.,0.));
#1274=DIRECTION('',(0.,0.,1.));
#1275=DIRECTION('',(0.,0.,-1.));
#1276=DIRECTION('',(-1.,0.,0.));
#1277=DIRECTION('',(0.,0.,1.));
#1278=DIRECTION('',(1.,0.,0.));
#1279=DIRECTION('',(0.,0.,1.));
#1280=DIRECTION('',(0.,0.,1.));
#1281=DIRECTION('',(1.,0.,0.));
#1282=DIRECTION('',(0.,0.,-1.));
#1283=DIRECTION('',(0.,0.,-1.));
#1284=DIRECTION('',(-1.,0.,0.));
#1285=DIRECTION('',(0.,0.,-1.));
#1286=DIRECTION('',(-1.,0.,0.));
#1287=DIRECTION('',(0.,0.,-1.));
#1288=DIRECTION('',(0.,0.,-1.));
#1289=DIRECTION('',(-1.,0.,0.));
#1290=DIRECTION('',(0.,0.,-1.));
#1291=DIRECTION('',(0.866025403784438,0.5,0.));
#1292=DIRECTION('',(-0.5,0.866025403784438,0.));
#1293=DIRECTION('',(0.5,-0.866025403784438,0.));
#1294=DIRECTION('',(0.,0.,-1.));
#1295=DIRECTION('',(0.5,-0.866025403784438,0.));
#1296=DIRECTION('',(0.,0.,-1.));
#1297=DIRECTION('',(-1.,0.,0.));
#1298=DIRECTION('',(0.,0.,-1.));
#1299=DIRECTION('',(1.,0.,0.));
#1300=DIRECTION('',(0.,0.,-1.));
#1301=DIRECTION('',(0.,0.,-1.));
#1302=DIRECTION('',(1.,0.,0.));
#1303=DIRECTION('',(1.,0.,0.));
#1304=DIRECTION('',(0.,0.,-1.));
#1305=DIRECTION('',(0.,-1.,0.));
#1306=DIRECTION('',(0.,0.,-1.));
#1307=DIRECTION('',(0.,-1.,0.));
#1308=DIRECTION('',(0.,0.,-1.));
#1309=DIRECTION('',(-1.,0.,0.));
#1310=DIRECTION('',(0.,0.,-1.));
#1311=DIRECTION('',(1.,0.,0.));
#1312=DIRECTION('',(0.,0.,-1.));
#1313=DIRECTION('',(0.,0.,-1.));
#1314=DIRECTION('',(1.,0.,0.));
#1315=DIRECTION('',(-1.,0.,0.));
#1316=DIRECTION('',(0.,0.,1.));
#1317=DIRECTION('',(0.,1.,0.));
#1318=DIRECTION('',(0.,0.,-1.));
#1319=DIRECTION('',(0.,1.,0.));
#1320=DIRECTION('',(0.,0.,-1.));
#1321=DIRECTION('',(-1.,0.,0.));
#1322=DIRECTION('',(0.,0.,-1.));
#1323=DIRECTION('',(1.,0.,0.));
#1324=DIRECTION('',(0.,0.,-1.));
#1325=DIRECTION('',(0.,0.,-1.));
#1326=DIRECTION('',(1.,0.,0.));
#1327=DIRECTION('',(-0.866025403784438,0.5,0.));
#1328=DIRECTION('',(-0.5,-0.866025403784438,0.));
#1329=DIRECTION('',(0.5,0.866025403784438,0.));
#1330=DIRECTION('',(0.,0.,-1.));
#1331=DIRECTION('',(0.5,0.866025403784438,0.));
#1332=DIRECTION('',(0.,0.,-1.));
#1333=DIRECTION('',(-1.,0.,0.));
#1334=DIRECTION('',(0.,0.,-1.));
#1335=DIRECTION('',(1.,0.,0.));
#1336=DIRECTION('',(0.,0.,-1.));
#1337=DIRECTION('',(0.,0.,-1.));
#1338=DIRECTION('',(1.,0.,0.));
#1339=DIRECTION('',(6.97999979618284E-16,-1.,0.));
#1340=DIRECTION('',(1.,6.97999979618284E-16,0.));
#1341=DIRECTION('',(-1.,-6.97999979618284E-16,0.));
#1342=DIRECTION('',(0.,0.,-1.));
#1343=DIRECTION('',(-1.,-6.97999979618284E-16,0.));
#1344=DIRECTION('',(0.461748613235031,-0.887010833178223,0.));
#1345=DIRECTION('',(0.887010833178223,0.461748613235031,0.));
#1346=DIRECTION('',(-0.887010833178223,-0.461748613235031,0.));
#1347=DIRECTION('',(-0.887010833178223,-0.461748613235031,0.));
#1348=DIRECTION('',(-0.461748613235032,-0.887010833178223,0.));
#1349=DIRECTION('',(0.887010833178223,-0.461748613235032,0.));
#1350=DIRECTION('',(-0.887010833178223,0.461748613235032,0.));
#1351=DIRECTION('',(0.,0.,1.));
#1352=DIRECTION('',(-0.887010833178223,0.461748613235032,0.));
#1353=DIRECTION('',(0.,0.,-1.));
#1354=DIRECTION('',(-3.48999989809142E-16,-1.,0.));
#1355=DIRECTION('',(1.,-3.48999989809142E-16,0.));
#1356=DIRECTION('',(-1.,3.48999989809142E-16,0.));
#1357=DIRECTION('',(-1.,3.48999989809142E-16,0.));
#1358=DIRECTION('',(0.,0.,-1.));
#1359=DIRECTION('',(-1.,0.,0.));
#1360=DIRECTION('',(0.,0.,-1.));
#1361=DIRECTION('',(-1.,0.,0.));
#1362=DIRECTION('',(0.,0.,-1.));
#1363=DIRECTION('',(-1.,0.,0.));
#1364=DIRECTION('',(-0.960049854385929,0.279829014030992,0.));
#1365=DIRECTION('',(0.,0.,1.));
#1366=DIRECTION('',(1.,0.,0.));
#1367=DIRECTION('',(0.779884483092885,0.625923472184056,0.));
#1368=DIRECTION('',(-0.996194698091746,0.0871557427476574,0.));
#1369=DIRECTION('',(0.,0.,1.));
#1370=DIRECTION('',(0.98078528040323,0.195090322016129,0.));
#1371=DIRECTION('',(0.642787609686542,0.766044443118976,0.));
#1372=DIRECTION('',(-0.99405633822232,-0.108866874851966,0.));
#1373=DIRECTION('',(0.,0.,1.));
#1374=DIRECTION('',(0.923879532511286,0.382683432365091,0.));
#1375=DIRECTION('',(0.480988768919391,0.876726755707506,0.));
#1376=DIRECTION('',(-0.953716950748226,-0.300705799504275,0.));
#1377=DIRECTION('',(0.,0.,1.));
#1378=DIRECTION('',(0.831469612302544,0.555570233019603,0.));
#1379=DIRECTION('',(0.300705799504276,0.953716950748226,0.));
#1380=DIRECTION('',(-0.876726755707507,-0.480988768919389,0.));
#1381=DIRECTION('',(0.,0.,1.));
#1382=DIRECTION('',(0.707106781186546,0.707106781186549,0.));
#1383=DIRECTION('',(0.108866874851967,0.994056338222319,0.));
#1384=DIRECTION('',(-0.766044443118976,-0.642787609686541,0.));
#1385=DIRECTION('',(0.,0.,1.));
#1386=DIRECTION('',(0.5555702330196,0.831469612302546,0.));
#1387=DIRECTION('',(-0.0871557427476559,0.996194698091746,0.));
#1388=DIRECTION('',(-0.625923472184057,-0.779884483092884,0.));
#1389=DIRECTION('',(0.,0.,1.));
#1390=DIRECTION('',(0.382683432365087,0.923879532511288,0.));
#1391=DIRECTION('',(-0.27982901403099,0.960049854385929,0.));
#1392=DIRECTION('',(-0.461748613235031,-0.887010833178223,0.));
#1393=DIRECTION('',(0.,0.,1.));
#1394=DIRECTION('',(0.195090322016125,0.980785280403231,0.));
#1395=DIRECTION('',(-0.461748613235033,0.887010833178222,0.));
#1396=DIRECTION('',(-0.279829014030988,-0.96004985438593,0.));
#1397=DIRECTION('',(0.,0.,1.));
#1398=DIRECTION('',(-3.49148133884313E-15,1.,0.));
#1399=DIRECTION('',(-0.625923472184058,0.779884483092882,0.));
#1400=DIRECTION('',(-0.0871557427476539,-0.996194698091746,0.));
#1401=DIRECTION('',(0.,0.,-1.));
#1402=DIRECTION('',(-1.,0.,0.));
#1403=DIRECTION('',(0.,0.,-1.));
#1404=DIRECTION('',(-1.,0.,0.));
#1405=DIRECTION('',(0.,0.,-1.));
#1406=DIRECTION('',(-1.,0.,0.));
#1407=DIRECTION('',(-0.0871557427476539,-0.996194698091746,0.));
#1408=DIRECTION('',(-0.625923472184058,0.779884483092882,0.));
#1409=DIRECTION('',(0.,0.,-1.));
#1410=DIRECTION('',(-1.,0.,0.));
#1411=DIRECTION('',(-0.279829014030988,-0.96004985438593,0.));
#1412=DIRECTION('',(-0.461748613235033,0.887010833178222,0.));
#1413=DIRECTION('',(0.,0.,-1.));
#1414=DIRECTION('',(-1.,0.,0.));
#1415=DIRECTION('',(-0.461748613235031,-0.887010833178223,0.));
#1416=DIRECTION('',(-0.27982901403099,0.960049854385929,0.));
#1417=DIRECTION('',(0.,0.,-1.));
#1418=DIRECTION('',(-1.,0.,0.));
#1419=DIRECTION('',(-0.625923472184057,-0.779884483092884,0.));
#1420=DIRECTION('',(-0.0871557427476559,0.996194698091746,0.));
#1421=DIRECTION('',(0.,0.,-1.));
#1422=DIRECTION('',(-1.,0.,0.));
#1423=DIRECTION('',(-0.766044443118976,-0.642787609686541,0.));
#1424=DIRECTION('',(0.108866874851967,0.994056338222319,0.));
#1425=DIRECTION('',(0.,0.,-1.));
#1426=DIRECTION('',(-1.,0.,0.));
#1427=DIRECTION('',(-0.876726755707507,-0.480988768919389,0.));
#1428=DIRECTION('',(0.300705799504276,0.953716950748226,0.));
#1429=DIRECTION('',(0.,0.,-1.));
#1430=DIRECTION('',(-1.,0.,0.));
#1431=DIRECTION('',(-0.953716950748226,-0.300705799504275,0.));
#1432=DIRECTION('',(0.480988768919391,0.876726755707506,0.));
#1433=DIRECTION('',(0.,0.,-1.));
#1434=DIRECTION('',(-1.,0.,0.));
#1435=DIRECTION('',(-0.99405633822232,-0.108866874851966,0.));
#1436=DIRECTION('',(0.642787609686542,0.766044443118975,0.));
#1437=DIRECTION('',(0.,0.,-1.));
#1438=DIRECTION('',(-1.,0.,0.));
#1439=DIRECTION('',(-0.996194698091746,0.0871557427476574,0.));
#1440=DIRECTION('',(0.779884483092885,0.625923472184056,0.));
#1441=DIRECTION('',(0.,0.,-1.));
#1442=DIRECTION('',(-1.,0.,0.));
#1443=DIRECTION('',(-0.960049854385929,0.279829014030992,0.));
#1444=DIRECTION('',(0.279829014030992,0.960049854385929,0.));
#1445=DIRECTION('',(-0.960049854385929,0.279829014030992,0.));
#1446=DIRECTION('',(0.,0.,1.));
#1447=DIRECTION('',(0.,0.,1.));
#1448=DIRECTION('',(1.,0.,0.));
#1449=DIRECTION('',(0.,0.,1.));
#1450=DIRECTION('',(0.625923472184056,-0.779884483092885,0.));
#1451=DIRECTION('',(0.779884483092885,0.625923472184056,0.));
#1452=DIRECTION('',(0.0871557427476574,0.996194698091746,0.));
#1453=DIRECTION('',(-0.996194698091746,0.0871557427476574,0.));
#1454=DIRECTION('',(0.,0.,1.));
#1455=DIRECTION('',(0.,0.,1.));
#1456=DIRECTION('',(1.,0.,0.));
#1457=DIRECTION('',(0.,0.,1.));
#1458=DIRECTION('',(0.766044443118975,-0.642787609686542,0.));
#1459=DIRECTION('',(0.642787609686542,0.766044443118975,0.));
#1460=DIRECTION('',(-0.108866874851966,0.99405633822232,0.));
#1461=DIRECTION('',(-0.99405633822232,-0.108866874851966,0.));
#1462=DIRECTION('',(0.,0.,1.));
#1463=DIRECTION('',(0.,0.,1.));
#1464=DIRECTION('',(1.,0.,0.));
#1465=DIRECTION('',(0.,0.,1.));
#1466=DIRECTION('',(0.876726755707506,-0.480988768919391,0.));
#1467=DIRECTION('',(0.480988768919391,0.876726755707506,0.));
#1468=DIRECTION('',(-0.300705799504275,0.953716950748226,0.));
#1469=DIRECTION('',(-0.953716950748227,-0.300705799504275,0.));
#1470=DIRECTION('',(0.,0.,1.));
#1471=DIRECTION('',(0.,0.,1.));
#1472=DIRECTION('',(1.,0.,0.));
#1473=DIRECTION('',(0.,0.,1.));
#1474=DIRECTION('',(0.953716950748226,-0.300705799504276,0.));
#1475=DIRECTION('',(0.300705799504276,0.953716950748226,0.));
#1476=DIRECTION('',(-0.480988768919389,0.876726755707507,0.));
#1477=DIRECTION('',(-0.876726755707507,-0.480988768919389,0.));
#1478=DIRECTION('',(0.,0.,1.));
#1479=DIRECTION('',(0.,0.,1.));
#1480=DIRECTION('',(1.,0.,0.));
#1481=DIRECTION('',(0.,0.,1.));
#1482=DIRECTION('',(0.994056338222319,-0.108866874851967,0.));
#1483=DIRECTION('',(0.108866874851967,0.994056338222319,0.));
#1484=DIRECTION('',(-0.642787609686541,0.766044443118976,0.));
#1485=DIRECTION('',(-0.766044443118976,-0.642787609686541,0.));
#1486=DIRECTION('',(0.,0.,1.));
#1487=DIRECTION('',(0.,0.,1.));
#1488=DIRECTION('',(1.,0.,0.));
#1489=DIRECTION('',(0.,0.,1.));
#1490=DIRECTION('',(0.996194698091746,0.0871557427476558,0.));
#1491=DIRECTION('',(-0.0871557427476559,0.996194698091746,0.));
#1492=DIRECTION('',(-0.779884483092884,0.625923472184057,0.));
#1493=DIRECTION('',(-0.625923472184057,-0.779884483092884,0.));
#1494=DIRECTION('',(0.,0.,1.));
#1495=DIRECTION('',(0.,0.,1.));
#1496=DIRECTION('',(1.,0.,0.));
#1497=DIRECTION('',(0.,0.,1.));
#1498=DIRECTION('',(0.960049854385929,0.27982901403099,0.));
#1499=DIRECTION('',(-0.27982901403099,0.960049854385929,0.));
#1500=DIRECTION('',(-0.887010833178223,0.461748613235031,0.));
#1501=DIRECTION('',(-0.461748613235031,-0.887010833178223,0.));
#1502=DIRECTION('',(0.,0.,1.));
#1503=DIRECTION('',(0.,0.,1.));
#1504=DIRECTION('',(1.,0.,0.));
#1505=DIRECTION('',(0.,0.,1.));
#1506=DIRECTION('',(0.887010833178222,0.461748613235033,0.));
#1507=DIRECTION('',(-0.461748613235033,0.887010833178222,0.));
#1508=DIRECTION('',(-0.96004985438593,0.279829014030988,0.));
#1509=DIRECTION('',(-0.279829014030988,-0.96004985438593,0.));
#1510=DIRECTION('',(0.,0.,1.));
#1511=DIRECTION('',(0.,0.,1.));
#1512=DIRECTION('',(1.,0.,0.));
#1513=DIRECTION('',(0.,0.,1.));
#1514=DIRECTION('',(0.779884483092882,0.625923472184058,0.));
#1515=DIRECTION('',(-0.625923472184058,0.779884483092882,0.));
#1516=DIRECTION('',(-0.996194698091746,0.0871557427476539,0.));
#1517=DIRECTION('',(-0.0871557427476539,-0.996194698091746,0.));
#1518=DIRECTION('',(0.,0.,1.));
#1519=DIRECTION('',(0.,0.,1.));
#1520=DIRECTION('',(1.,0.,0.));
#1521=DIRECTION('',(0.,0.,1.));
#1522=DIRECTION('',(0.,0.,1.));
#1523=DIRECTION('',(1.,0.,0.));
#1524=CARTESIAN_POINT('',(0.,0.,0.));
#1525=CARTESIAN_POINT('',(0.,0.,0.0005));
#1526=CARTESIAN_POINT('',(0.,0.,0.));
#1527=CARTESIAN_POINT('',(0.00757367401342711,-0.00943660224542387,0.));
#1528=CARTESIAN_POINT('',(0.00776317902804415,-0.00928132810423893,0.));
#1529=CARTESIAN_POINT('',(0.00776317902804415,-0.00928132810423893,-1.00000000000002E-6));
#1530=CARTESIAN_POINT('',(0.00776317902804415,-0.00928132810423893,0.0005));
#1531=CARTESIAN_POINT('',(0.,0.,0.0005));
#1532=CARTESIAN_POINT('',(0.00757367401342711,-0.00943660224542387,0.0005));
#1533=CARTESIAN_POINT('',(0.00757367401342711,-0.00943660224542387,-1.00000000000002E-6));
#1534=CARTESIAN_POINT('',(0.,0.,0.0005));
#1535=CARTESIAN_POINT('',(0.,0.,0.));
#1536=CARTESIAN_POINT('',(0.0055871582201439,-0.0107328310814565,0.));
#1537=CARTESIAN_POINT('',(0.00580331443124744,-0.0106175110836804,0.));
#1538=CARTESIAN_POINT('',(0.00580331443124744,-0.0106175110836804,-1.00000000000002E-6));
#1539=CARTESIAN_POINT('',(0.00580331443124744,-0.0106175110836804,0.0005));
#1540=CARTESIAN_POINT('',(0.,0.,0.0005));
#1541=CARTESIAN_POINT('',(0.0055871582201439,-0.0107328310814565,0.0005));
#1542=CARTESIAN_POINT('',(0.0055871582201439,-0.0107328310814565,-1.00000000000002E-6));
#1543=CARTESIAN_POINT('',(0.,0.,0.0005));
#1544=CARTESIAN_POINT('',(0.,0.,0.));
#1545=CARTESIAN_POINT('',(0.00338593106977499,-0.0116166032380697,0.));
#1546=CARTESIAN_POINT('',(0.00362043171539412,-0.0115456690665448,0.));
#1547=CARTESIAN_POINT('',(0.00362043171539412,-0.0115456690665448,-1.00000000000002E-6));
#1548=CARTESIAN_POINT('',(0.00362043171539412,-0.0115456690665448,0.0005));
#1549=CARTESIAN_POINT('',(0.,0.,0.0005));
#1550=CARTESIAN_POINT('',(0.00338593106977499,-0.0116166032380697,0.0005));
#1551=CARTESIAN_POINT('',(0.00338593106977499,-0.0116166032380697,-1.00000000000002E-6));
#1552=CARTESIAN_POINT('',(0.,0.,0.0005));
#1553=CARTESIAN_POINT('',(0.,0.,0.));
#1554=CARTESIAN_POINT('',(0.00105458448724664,-0.0120539558469101,0.));
#1555=CARTESIAN_POINT('',(0.0012984178390797,-0.0120301334620676,0.));
#1556=CARTESIAN_POINT('',(0.0012984178390797,-0.0120301334620676,-1.00000000000002E-6));
#1557=CARTESIAN_POINT('',(0.0012984178390797,-0.0120301334620676,0.0005));
#1558=CARTESIAN_POINT('',(0.,0.,0.0005));
#1559=CARTESIAN_POINT('',(0.00105458448724664,-0.0120539558469101,0.0005));
#1560=CARTESIAN_POINT('',(0.00105458448724664,-0.0120539558469101,-1.00000000000002E-6));
#1561=CARTESIAN_POINT('',(0.,0.,0.0005));
#1562=CARTESIAN_POINT('',(0.,0.,0.));
#1563=CARTESIAN_POINT('',(-0.0013172891857088,-0.0120280816924901,0.));
#1564=CARTESIAN_POINT('',(-0.00107349350662944,-0.0120522865752198,0.));
#1565=CARTESIAN_POINT('',(-0.00107349350662944,-0.0120522865752198,-1.00000000000002E-6));
#1566=CARTESIAN_POINT('',(-0.00107349350662944,-0.0120522865752198,0.0005));
#1567=CARTESIAN_POINT('',(0.,0.,0.0005));
#1568=CARTESIAN_POINT('',(-0.0013172891857088,-0.0120280816924901,0.0005));
#1569=CARTESIAN_POINT('',(-0.0013172891857088,-0.0120280816924901,-1.00000000000002E-6));
#1570=CARTESIAN_POINT('',(0.,0.,0.0005));
#1571=CARTESIAN_POINT('',(0.,0.,0.));
#1572=CARTESIAN_POINT('',(-0.00363854017400174,-0.0115399751040535,0.));
#1573=CARTESIAN_POINT('',(-0.00340415109890091,-0.0116112770742865,0.));
#1574=CARTESIAN_POINT('',(-0.00340415109890091,-0.0116112770742865,-1.00000000000002E-6));
#1575=CARTESIAN_POINT('',(-0.00340415109890091,-0.0116112770742865,0.0005));
#1576=CARTESIAN_POINT('',(0.,0.,0.0005));
#1577=CARTESIAN_POINT('',(-0.00363854017400174,-0.0115399751040535,0.0005));
#1578=CARTESIAN_POINT('',(-0.00363854017400174,-0.0115399751040535,-1.00000000000002E-6));
#1579=CARTESIAN_POINT('',(0.,0.,0.0005));
#1580=CARTESIAN_POINT('',(0.,0.,0.));
#1581=CARTESIAN_POINT('',(-0.00581996410392463,-0.0106083937440608,0.));
#1582=CARTESIAN_POINT('',(-0.00560398907351154,-0.0107240527070676,0.));
#1583=CARTESIAN_POINT('',(-0.00560398907351154,-0.0107240527070676,-1.00000000000002E-6));
#1584=CARTESIAN_POINT('',(-0.00560398907351154,-0.0107240527070676,0.0005));
#1585=CARTESIAN_POINT('',(0.,0.,0.0005));
#1586=CARTESIAN_POINT('',(-0.00581996410392463,-0.0106083937440608,0.0005));
#1587=CARTESIAN_POINT('',(-0.00581996410392463,-0.0106083937440608,-1.00000000000002E-6));
#1588=CARTESIAN_POINT('',(0.,0.,0.0005));
#1589=CARTESIAN_POINT('',(0.,0.,0.));
#1590=CARTESIAN_POINT('',(-0.00777773007720716,-0.0092691377617396,0.));
#1591=CARTESIAN_POINT('',(-0.0075884688907804,-0.00942470900843406,0.));
#1592=CARTESIAN_POINT('',(-0.00758846889078041,-0.00942470900843406,-1.00000000000002E-6));
#1593=CARTESIAN_POINT('',(-0.00758846889078041,-0.00942470900843406,0.0005));
#1594=CARTESIAN_POINT('',(0.,0.,0.0005));
#1595=CARTESIAN_POINT('',(-0.00777773007720716,-0.00926913776173961,0.0005));
#1596=CARTESIAN_POINT('',(-0.00777773007720716,-0.00926913776173961,-1.00000000000002E-6));
#1597=CARTESIAN_POINT('',(0.,0.,0.0005));
#1598=CARTESIAN_POINT('',(0.,0.,0.));
#1599=CARTESIAN_POINT('',(-0.0094366022454239,-0.00757367401342708,0.));
#1600=CARTESIAN_POINT('',(-0.00928132810423896,-0.00776317902804412,0.));
#1601=CARTESIAN_POINT('',(-0.00928132810423896,-0.00776317902804412,-1.00000000000002E-6));
#1602=CARTESIAN_POINT('',(-0.00928132810423896,-0.00776317902804412,0.0005));
#1603=CARTESIAN_POINT('',(0.,0.,0.0005));
#1604=CARTESIAN_POINT('',(-0.0094366022454239,-0.00757367401342708,0.0005));
#1605=CARTESIAN_POINT('',(-0.0094366022454239,-0.00757367401342708,-1.00000000000002E-6));
#1606=CARTESIAN_POINT('',(0.,0.,0.0005));
#1607=CARTESIAN_POINT('',(0.,0.,0.));
#1608=CARTESIAN_POINT('',(-0.0107328310814565,-0.00558715822014388,0.));
#1609=CARTESIAN_POINT('',(-0.0106175110836804,-0.00580331443124741,0.));
#1610=CARTESIAN_POINT('',(-0.0106175110836804,-0.0058033144312474,-1.00000000000002E-6));
#1611=CARTESIAN_POINT('',(-0.0106175110836804,-0.0058033144312474,0.0005));
#1612=CARTESIAN_POINT('',(0.,0.,0.0005));
#1613=CARTESIAN_POINT('',(-0.0107328310814565,-0.00558715822014388,0.0005));
#1614=CARTESIAN_POINT('',(-0.0107328310814565,-0.00558715822014388,0.0005));
#1615=CARTESIAN_POINT('',(0.,0.,0.0005));
#1616=CARTESIAN_POINT('',(0.,0.,0.));
#1617=CARTESIAN_POINT('',(0.00577494588719236,-0.0043,0.));
#1618=CARTESIAN_POINT('',(0.00553923133011576,-0.0045996647999027,0.));
#1619=CARTESIAN_POINT('',(0.00553923133011576,-0.0045996647999027,0.0005));
#1620=CARTESIAN_POINT('',(0.00553923133011576,-0.0045996647999027,0.0005));
#1621=CARTESIAN_POINT('',(0.,0.,0.0005));
#1622=CARTESIAN_POINT('',(0.00577494588719236,-0.0043,0.0005));
#1623=CARTESIAN_POINT('',(0.00577494588719236,-0.0043,0.0005));
#1624=CARTESIAN_POINT('',(0.00553923133011576,-0.0045996647999027,0.0005));
#1625=CARTESIAN_POINT('',(0.00553923133011576,-0.0045996647999027,0.));
#1626=CARTESIAN_POINT('',(0.00659,-0.00641964952314377,0.));
#1627=CARTESIAN_POINT('',(0.00659,-0.00641964952314377,0.0005));
#1628=CARTESIAN_POINT('',(0.00659,-0.00641964952314377,0.0005));
#1629=CARTESIAN_POINT('',(0.00553923133011576,-0.0045996647999027,0.0005));
#1630=CARTESIAN_POINT('',(0.,0.,0.0005));
#1631=CARTESIAN_POINT('',(0.,0.,0.));
#1632=CARTESIAN_POINT('',(0.005,-0.00772269383052313,0.));
#1633=CARTESIAN_POINT('',(0.005,-0.00772269383052313,0.0005));
#1634=CARTESIAN_POINT('',(0.005,-0.00772269383052313,0.0005));
#1635=CARTESIAN_POINT('',(0.,0.,0.0005));
#1636=CARTESIAN_POINT('',(0.005,-0.00772269383052313,0.0005));
#1637=CARTESIAN_POINT('',(0.005,-0.00772269383052313,0.));
#1638=CARTESIAN_POINT('',(0.005,-0.00784155596804614,0.));
#1639=CARTESIAN_POINT('',(0.005,-0.00784155596804614,0.0005));
#1640=CARTESIAN_POINT('',(0.005,-0.00784155596804614,0.0005));
#1641=CARTESIAN_POINT('',(0.005,-0.00772269383052313,0.0005));
#1642=CARTESIAN_POINT('',(0.,0.,0.0005));
#1643=CARTESIAN_POINT('',(0.,0.,0.));
#1644=CARTESIAN_POINT('',(-0.005,-0.00784155596804614,0.));
#1645=CARTESIAN_POINT('',(-0.005,-0.00784155596804614,0.0005));
#1646=CARTESIAN_POINT('',(-0.005,-0.00784155596804614,0.0005));
#1647=CARTESIAN_POINT('',(0.,0.,0.0005));
#1648=CARTESIAN_POINT('',(-0.005,-0.00772269383052313,0.0005));
#1649=CARTESIAN_POINT('',(-0.005,-0.00772269383052313,0.));
#1650=CARTESIAN_POINT('',(-0.005,-0.00772269383052313,0.));
#1651=CARTESIAN_POINT('',(-0.005,-0.00772269383052313,0.0005));
#1652=CARTESIAN_POINT('',(-0.005,-0.00772269383052313,0.0005));
#1653=CARTESIAN_POINT('',(-0.005,-0.00772269383052313,0.0005));
#1654=CARTESIAN_POINT('',(0.,0.,0.0005));
#1655=CARTESIAN_POINT('',(0.,0.,0.));
#1656=CARTESIAN_POINT('',(-0.00659,-0.00641964952314377,0.));
#1657=CARTESIAN_POINT('',(-0.00659,-0.00641964952314377,0.0005));
#1658=CARTESIAN_POINT('',(-0.00659,-0.00641964952314377,0.0005));
#1659=CARTESIAN_POINT('',(0.,0.,0.0005));
#1660=CARTESIAN_POINT('',(-0.00553923133011576,-0.0045996647999027,0.0005));
#1661=CARTESIAN_POINT('',(-0.00553923133011576,-0.0045996647999027,0.));
#1662=CARTESIAN_POINT('',(-0.00553923133011576,-0.0045996647999027,0.));
#1663=CARTESIAN_POINT('',(-0.00553923133011576,-0.0045996647999027,0.0005));
#1664=CARTESIAN_POINT('',(-0.00553923133011576,-0.0045996647999027,0.0005));
#1665=CARTESIAN_POINT('',(-0.00553923133011576,-0.0045996647999027,0.0005));
#1666=CARTESIAN_POINT('',(0.,0.,0.0005));
#1667=CARTESIAN_POINT('',(0.,0.,0.));
#1668=CARTESIAN_POINT('',(-0.00577494588719236,-0.0043,0.));
#1669=CARTESIAN_POINT('',(-0.00577494588719236,-0.0043,0.0005));
#1670=CARTESIAN_POINT('',(-0.00577494588719236,-0.0043,0.0005));
#1671=CARTESIAN_POINT('',(0.,0.,0.0005));
#1672=CARTESIAN_POINT('',(-0.00826022314597606,-0.0043,0.0005));
#1673=CARTESIAN_POINT('',(-0.00826022314597606,-0.0043,0.));
#1674=CARTESIAN_POINT('',(-0.00826022314597606,-0.0043,0.));
#1675=CARTESIAN_POINT('',(-0.00826022314597606,-0.0043,0.0005));
#1676=CARTESIAN_POINT('',(-0.00826022314597606,-0.0043,0.0005));
#1677=CARTESIAN_POINT('',(-0.00826022314597606,-0.0043,0.0005));
#1678=CARTESIAN_POINT('',(-0.00826022314597606,-0.0043,0.0005));
#1679=CARTESIAN_POINT('',(-0.00826022314597606,-0.0043,0.));
#1680=CARTESIAN_POINT('',(-0.00826022314597606,-0.0043,0.0005));
#1681=CARTESIAN_POINT('',(0.00826022314597607,-0.0043,0.0005));
#1682=CARTESIAN_POINT('',(0.00826022314597607,-0.0043,0.0005));
#1683=CARTESIAN_POINT('',(0.00873649386454358,-0.00454793084322885,0.0005));
#1684=CARTESIAN_POINT('',(0.00826022314597607,-0.0043,0.0005));
#1685=CARTESIAN_POINT('',(0.00873649386454358,-0.00454793084322885,0.0005));
#1686=CARTESIAN_POINT('',(0.00873649386454358,-0.00454793084322885,0.));
#1687=CARTESIAN_POINT('',(0.00826022314597607,-0.0043,0.));
#1688=CARTESIAN_POINT('',(0.00826022314597607,-0.0043,0.));
#1689=CARTESIAN_POINT('',(0.00826022314597607,-0.0043,0.0005));
#1690=CARTESIAN_POINT('',(0.00577494588719236,-0.0043,0.0005));
#1691=CARTESIAN_POINT('',(0.00577494588719236,-0.0043,0.));
#1692=CARTESIAN_POINT('',(0.00577494588719236,-0.0043,0.0005));
#1693=CARTESIAN_POINT('',(0.,0.,0.0005));
#1694=CARTESIAN_POINT('',(0.,0.,0.0005));
#1695=CARTESIAN_POINT('',(0.00911057810497608,-0.00598392568412496,0.0005));
#1696=CARTESIAN_POINT('',(0.00791999592597633,-0.00748890275891725,0.0005));
#1697=CARTESIAN_POINT('',(0.00827474525130855,-0.00543494167640707,0.0005));
#1698=CARTESIAN_POINT('',(-0.0106175110836804,-0.0058033144312474,0.0005));
#1699=CARTESIAN_POINT('',(-0.00905517485493039,-0.00625869391438439,0.0005));
#1700=CARTESIAN_POINT('',(-0.00919508936194588,-0.00673871884157736,0.0005));
#1701=CARTESIAN_POINT('',(-0.00888212762585385,-0.0071286610831238,0.0005));
#1702=CARTESIAN_POINT('',(-0.00888212762585385,-0.0071286610831238,0.0005));
#1703=CARTESIAN_POINT('',(-0.00928132810423896,-0.00776317902804412,0.0005));
#1704=CARTESIAN_POINT('',(-0.00766017159803554,-0.00790501184413821,0.0005));
#1705=CARTESIAN_POINT('',(-0.00770374946940937,-0.00840310919318409,0.0005));
#1706=CARTESIAN_POINT('',(-0.00732072724784988,-0.00872450299802736,0.0005));
#1707=CARTESIAN_POINT('',(-0.00732072724784988,-0.00872450299802736,0.0005));
#1708=CARTESIAN_POINT('',(-0.00758846889078041,-0.00942470900843406,0.0005));
#1709=CARTESIAN_POINT('',(-0.00597079224250192,-0.00924754460190351,0.0005));
#1710=CARTESIAN_POINT('',(-0.00591635880507593,-0.00974457277101467,0.0005));
#1711=CARTESIAN_POINT('',(-0.00547799542722218,-0.00998506715547437,0.0005));
#1712=CARTESIAN_POINT('',(-0.00547799542722218,-0.00998506715547437,0.0005));
#1713=CARTESIAN_POINT('',(-0.00560398907351154,-0.0107240527070676,0.0005));
#1714=CARTESIAN_POINT('',(-0.00405195868954781,-0.0102346994067004,0.0005));
#1715=CARTESIAN_POINT('',(-0.00390160578979567,-0.0107115578820745,0.0005));
#1716=CARTESIAN_POINT('',(-0.00342474731442155,-0.0108619107818267,0.0005));
#1717=CARTESIAN_POINT('',(-0.00342474731442155,-0.0108619107818267,0.0005));
#1718=CARTESIAN_POINT('',(-0.00340415109890091,-0.0116112770742865,0.0005));
#1719=CARTESIAN_POINT('',(-0.00197741063651898,-0.0108285404529834,0.0005));
#1720=CARTESIAN_POINT('',(-0.00173691625205929,-0.0112669038308371,0.0005));
#1721=CARTESIAN_POINT('',(-0.00123988808294813,-0.0113213372682631,0.0005));
#1722=CARTESIAN_POINT('',(-0.00123988808294813,-0.0113213372682631,0.0005));
#1723=CARTESIAN_POINT('',(-0.00107349350662944,-0.0120522865752198,0.0005));
#1724=CARTESIAN_POINT('',(0.0001731281983266,-0.0110062467623736,0.0005));
#1725=CARTESIAN_POINT('',(0.00049452200316987,-0.0113892689839331,0.0005));
#1726=CARTESIAN_POINT('',(0.000992619352215745,-0.0113456911125593,0.0005));
#1727=CARTESIAN_POINT('',(0.000992619352215745,-0.0113456911125593,0.0005));
#1728=CARTESIAN_POINT('',(0.0012984178390797,-0.0120301334620676,0.0005));
#1729=CARTESIAN_POINT('',(0.0023170138136019,-0.0107609891810602,0.0005));
#1730=CARTESIAN_POINT('',(0.00270695605514835,-0.0110739509171522,0.0005));
#1731=CARTESIAN_POINT('',(0.00318698098234131,-0.0109340364101367,0.0005));
#1732=CARTESIAN_POINT('',(0.00318698098234131,-0.0109340364101367,0.0005));
#1733=CARTESIAN_POINT('',(0.00362043171539412,-0.0115456690665448,0.0005));
#1734=CARTESIAN_POINT('',(0.00437185788741681,-0.0101021928203508,0.0005));
#1735=CARTESIAN_POINT('',(0.00481536330400592,-0.0103330671269683,0.0005));
#1736=CARTESIAN_POINT('',(0.00525886872059503,-0.0101021928203508,0.0005));
#1737=CARTESIAN_POINT('',(0.00525886872059503,-0.0101021928203508,0.0005));
#1738=CARTESIAN_POINT('',(0.00580331443124744,-0.0106175110836804,0.0005));
#1739=CARTESIAN_POINT('',(0.00625869391438443,-0.00905517485493036,0.0005));
#1740=CARTESIAN_POINT('',(0.00673871884157739,-0.00919508936194586,0.0005));
#1741=CARTESIAN_POINT('',(0.00712866108312383,-0.00888212762585383,0.0005));
#1742=CARTESIAN_POINT('',(0.00712866108312383,-0.00888212762585383,0.0005));
#1743=CARTESIAN_POINT('',(0.00776317902804415,-0.00928132810423893,0.0005));
#1744=CARTESIAN_POINT('',(0.,0.,0.));
#1745=CARTESIAN_POINT('',(0.00827474525130855,-0.00543494167640707,0.));
#1746=CARTESIAN_POINT('',(0.00911057810497608,-0.00598392568412496,0.));
#1747=CARTESIAN_POINT('',(0.,0.,0.));
#1748=CARTESIAN_POINT('',(0.00791999592597633,-0.00748890275891725,0.));
#1749=CARTESIAN_POINT('',(0.00776317902804415,-0.00928132810423893,0.));
#1750=CARTESIAN_POINT('',(0.00712866108312383,-0.00888212762585383,0.));
#1751=CARTESIAN_POINT('',(0.00712866108312383,-0.00888212762585383,0.));
#1752=CARTESIAN_POINT('',(0.00673871884157739,-0.00919508936194586,0.));
#1753=CARTESIAN_POINT('',(0.00625869391438443,-0.00905517485493036,0.));
#1754=CARTESIAN_POINT('',(0.00580331443124744,-0.0106175110836804,0.));
#1755=CARTESIAN_POINT('',(0.00525886872059503,-0.0101021928203508,0.));
#1756=CARTESIAN_POINT('',(0.00525886872059503,-0.0101021928203508,0.));
#1757=CARTESIAN_POINT('',(0.00481536330400592,-0.0103330671269683,0.));
#1758=CARTESIAN_POINT('',(0.00437185788741681,-0.0101021928203508,0.));
#1759=CARTESIAN_POINT('',(0.00362043171539412,-0.0115456690665448,0.));
#1760=CARTESIAN_POINT('',(0.00318698098234131,-0.0109340364101367,0.));
#1761=CARTESIAN_POINT('',(0.00318698098234131,-0.0109340364101367,0.));
#1762=CARTESIAN_POINT('',(0.00270695605514835,-0.0110739509171522,0.));
#1763=CARTESIAN_POINT('',(0.0023170138136019,-0.0107609891810602,0.));
#1764=CARTESIAN_POINT('',(0.0012984178390797,-0.0120301334620676,0.));
#1765=CARTESIAN_POINT('',(0.000992619352215745,-0.0113456911125593,0.));
#1766=CARTESIAN_POINT('',(0.000992619352215745,-0.0113456911125593,0.));
#1767=CARTESIAN_POINT('',(0.00049452200316987,-0.0113892689839331,0.));
#1768=CARTESIAN_POINT('',(0.0001731281983266,-0.0110062467623736,0.));
#1769=CARTESIAN_POINT('',(-0.00107349350662944,-0.0120522865752198,0.));
#1770=CARTESIAN_POINT('',(-0.00123988808294813,-0.0113213372682631,0.));
#1771=CARTESIAN_POINT('',(-0.00123988808294813,-0.0113213372682631,0.));
#1772=CARTESIAN_POINT('',(-0.00173691625205929,-0.0112669038308371,0.));
#1773=CARTESIAN_POINT('',(-0.00197741063651898,-0.0108285404529834,0.));
#1774=CARTESIAN_POINT('',(-0.00340415109890091,-0.0116112770742865,0.));
#1775=CARTESIAN_POINT('',(-0.00342474731442155,-0.0108619107818267,0.));
#1776=CARTESIAN_POINT('',(-0.00342474731442156,-0.0108619107818267,0.));
#1777=CARTESIAN_POINT('',(-0.00390160578979567,-0.0107115578820745,0.));
#1778=CARTESIAN_POINT('',(-0.00405195868954781,-0.0102346994067004,0.));
#1779=CARTESIAN_POINT('',(-0.00560398907351154,-0.0107240527070676,0.));
#1780=CARTESIAN_POINT('',(-0.00547799542722218,-0.00998506715547437,0.));
#1781=CARTESIAN_POINT('',(-0.00547799542722218,-0.00998506715547437,0.));
#1782=CARTESIAN_POINT('',(-0.00591635880507593,-0.00974457277101467,0.));
#1783=CARTESIAN_POINT('',(-0.00597079224250192,-0.00924754460190351,0.));
#1784=CARTESIAN_POINT('',(-0.00758846889078041,-0.00942470900843406,0.));
#1785=CARTESIAN_POINT('',(-0.00732072724784988,-0.00872450299802736,0.));
#1786=CARTESIAN_POINT('',(-0.00732072724784988,-0.00872450299802736,0.));
#1787=CARTESIAN_POINT('',(-0.00770374946940937,-0.00840310919318409,0.));
#1788=CARTESIAN_POINT('',(-0.00766017159803554,-0.00790501184413821,0.));
#1789=CARTESIAN_POINT('',(-0.00928132810423896,-0.00776317902804412,0.));
#1790=CARTESIAN_POINT('',(-0.00888212762585385,-0.0071286610831238,0.));
#1791=CARTESIAN_POINT('',(-0.00888212762585385,-0.0071286610831238,0.));
#1792=CARTESIAN_POINT('',(-0.00919508936194588,-0.00673871884157736,0.));
#1793=CARTESIAN_POINT('',(-0.00905517485493039,-0.00625869391438439,0.));
#1794=CARTESIAN_POINT('',(-0.0106175110836804,-0.0058033144312474,0.));
#1795=CARTESIAN_POINT('',(-0.0106175110836804,-0.0058033144312474,-1.00000000000002E-6));
#1796=CARTESIAN_POINT('',(-0.00905517485493039,-0.00625869391438439,-1.00000000000002E-6));
#1797=CARTESIAN_POINT('',(-0.00919508936194588,-0.00673871884157736,-1.00000000000002E-6));
#1798=CARTESIAN_POINT('',(-0.00888212762585385,-0.0071286610831238,-1.00000000000002E-6));
#1799=CARTESIAN_POINT('',(-0.00888212762585385,-0.0071286610831238,-1.00000000000002E-6));
#1800=CARTESIAN_POINT('',(-0.00928132810423896,-0.00776317902804412,-1.00000000000002E-6));
#1801=CARTESIAN_POINT('',(-0.00766017159803554,-0.00790501184413821,-1.00000000000002E-6));
#1802=CARTESIAN_POINT('',(-0.00770374946940937,-0.00840310919318409,-1.00000000000002E-6));
#1803=CARTESIAN_POINT('',(-0.00732072724784988,-0.00872450299802736,-1.00000000000002E-6));
#1804=CARTESIAN_POINT('',(-0.00732072724784988,-0.00872450299802736,-1.00000000000002E-6));
#1805=CARTESIAN_POINT('',(-0.00758846889078041,-0.00942470900843406,-1.00000000000002E-6));
#1806=CARTESIAN_POINT('',(-0.00597079224250192,-0.00924754460190351,-1.00000000000002E-6));
#1807=CARTESIAN_POINT('',(-0.00591635880507593,-0.00974457277101467,-1.00000000000002E-6));
#1808=CARTESIAN_POINT('',(-0.00547799542722218,-0.00998506715547437,-1.00000000000002E-6));
#1809=CARTESIAN_POINT('',(-0.00547799542722218,-0.00998506715547437,-1.00000000000002E-6));
#1810=CARTESIAN_POINT('',(-0.00560398907351154,-0.0107240527070676,-1.00000000000002E-6));
#1811=CARTESIAN_POINT('',(-0.00405195868954781,-0.0102346994067004,-1.00000000000002E-6));
#1812=CARTESIAN_POINT('',(-0.00390160578979567,-0.0107115578820745,-1.00000000000002E-6));
#1813=CARTESIAN_POINT('',(-0.00342474731442155,-0.0108619107818267,-1.00000000000002E-6));
#1814=CARTESIAN_POINT('',(-0.00342474731442155,-0.0108619107818267,-1.00000000000002E-6));
#1815=CARTESIAN_POINT('',(-0.00340415109890091,-0.0116112770742865,-1.00000000000002E-6));
#1816=CARTESIAN_POINT('',(-0.00197741063651898,-0.0108285404529834,-1.00000000000002E-6));
#1817=CARTESIAN_POINT('',(-0.00173691625205929,-0.0112669038308371,-1.00000000000002E-6));
#1818=CARTESIAN_POINT('',(-0.00123988808294813,-0.0113213372682631,-1.00000000000002E-6));
#1819=CARTESIAN_POINT('',(-0.00123988808294813,-0.0113213372682631,-1.00000000000002E-6));
#1820=CARTESIAN_POINT('',(-0.00107349350662944,-0.0120522865752198,-1.00000000000002E-6));
#1821=CARTESIAN_POINT('',(0.0001731281983266,-0.0110062467623736,-1.00000000000002E-6));
#1822=CARTESIAN_POINT('',(0.00049452200316987,-0.0113892689839331,-1.00000000000002E-6));
#1823=CARTESIAN_POINT('',(0.000992619352215745,-0.0113456911125593,-1.00000000000002E-6));
#1824=CARTESIAN_POINT('',(0.000992619352215745,-0.0113456911125593,-1.00000000000002E-6));
#1825=CARTESIAN_POINT('',(0.0012984178390797,-0.0120301334620676,-1.00000000000002E-6));
#1826=CARTESIAN_POINT('',(0.0023170138136019,-0.0107609891810602,-1.00000000000002E-6));
#1827=CARTESIAN_POINT('',(0.00270695605514835,-0.0110739509171522,-1.00000000000002E-6));
#1828=CARTESIAN_POINT('',(0.00318698098234131,-0.0109340364101367,-1.00000000000002E-6));
#1829=CARTESIAN_POINT('',(0.00318698098234131,-0.0109340364101367,-1.00000000000002E-6));
#1830=CARTESIAN_POINT('',(0.00362043171539412,-0.0115456690665448,-1.00000000000002E-6));
#1831=CARTESIAN_POINT('',(0.00437185788741681,-0.0101021928203508,-1.00000000000002E-6));
#1832=CARTESIAN_POINT('',(0.00481536330400592,-0.0103330671269683,-1.00000000000002E-6));
#1833=CARTESIAN_POINT('',(0.00525886872059503,-0.0101021928203508,-1.00000000000002E-6));
#1834=CARTESIAN_POINT('',(0.00525886872059503,-0.0101021928203508,-1.00000000000002E-6));
#1835=CARTESIAN_POINT('',(0.00580331443124744,-0.0106175110836804,-1.00000000000002E-6));
#1836=CARTESIAN_POINT('',(0.00625869391438443,-0.00905517485493036,-1.00000000000002E-6));
#1837=CARTESIAN_POINT('',(0.00673871884157739,-0.00919508936194586,-1.00000000000002E-6));
#1838=CARTESIAN_POINT('',(0.00712866108312383,-0.00888212762585383,-1.00000000000002E-6));
#1839=CARTESIAN_POINT('',(0.00712866108312383,-0.00888212762585383,-1.00000000000002E-6));
#1840=CARTESIAN_POINT('',(0.00776317902804415,-0.00928132810423893,-1.00000000000002E-6));
#1841=CARTESIAN_POINT('',(0.00791999592597633,-0.00748890275891725,-1.00000000000002E-6));
#1842=CARTESIAN_POINT('',(0.,0.,-1.00000000000002E-6));
#1843=CARTESIAN_POINT('',(0.00911057810497608,-0.00598392568412496,-1.00000000000002E-6));
#1844=CARTESIAN_POINT('',(0.00827474525130855,-0.00543494167640707,-1.00000000000002E-6));
#1845=(
GEOMETRIC_REPRESENTATION_CONTEXT(3)
GLOBAL_UNCERTAINTY_ASSIGNED_CONTEXT((#1846))
GLOBAL_UNIT_ASSIGNED_CONTEXT((#1849,#1848,#1847))
REPRESENTATION_CONTEXT('id2','TOP_LEVEL_ASSEMBLY_PART')
);
#1846=UNCERTAINTY_MEASURE_WITH_UNIT(LENGTH_MEASURE(1.E-8),#1849,
'DISTANCE_ACCURACY_VALUE','Maximum Tolerance applied to model');
#1847=(
NAMED_UNIT(*)
SI_UNIT($,.STERADIAN.)
SOLID_ANGLE_UNIT()
);
#1848=(
NAMED_UNIT(*)
PLANE_ANGLE_UNIT()
SI_UNIT($,.RADIAN.)
);
#1849=(
LENGTH_UNIT()
NAMED_UNIT(*)
SI_UNIT($,.METRE.)
);
#1850=PRODUCT_DEFINITION_SHAPE('','',#1851);
#1851=PRODUCT_DEFINITION('','',#1853,#1852);
#1852=DESIGN_CONTEXT('',#1859,'design');
#1853=PRODUCT_DEFINITION_FORMATION_WITH_SPECIFIED_SOURCE('','',#1855,
 .NOT_KNOWN.);
#1854=PRODUCT_RELATED_PRODUCT_CATEGORY('','',(#1855));
#1855=PRODUCT('id2','id2','id2',(#1857));
#1856=PRODUCT_CATEGORY('','');
#1857=MECHANICAL_CONTEXT('',#1859,'mechanical');
#1858=APPLICATION_PROTOCOL_DEFINITION('international standard',
'config_control_design',2010,#1859);
#1859=APPLICATION_CONTEXT(
'configuration controlled 3D designs of mechanical parts and assemblie
s');
ENDSEC;
END-ISO-10303-21;
