ISO-10303-21;
HEADER;
/* Generated by software containing ST-Developer
 * from STEP Tools, Inc. (www.steptools.com) 
 */
/* OPTION: using custom renumber hook */

FILE_DESCRIPTION(
/* description */ ('STEP AP203'),
/* implementation_level */ '2;1');

FILE_NAME(
/* name */ '6a5464486767ab7b8f9f5820',
/* time_stamp */ '2026-07-13T04:06:32Z',
/* author */ (''),
/* organization */ (''),
/* preprocessor_version */ 'ST-DEVELOPER v20',
/* originating_system */ 'ONSHAPE BY PTC INC, 1.217',
/* authorisation */ '  ');

FILE_SCHEMA (('CONFIG_CONTROL_DESIGN'));
ENDSEC;

DATA;
#10=PROPERTY_DEFINITION_REPRESENTATION(#14,#12);
#11=PROPERTY_DEFINITION_REPRESENTATION(#15,#13);
#12=REPRESENTATION('',(#16),#1390);
#13=REPRESENTATION('',(#17),#1390);
#14=PROPERTY_DEFINITION('pmi validation property','',#1395);
#15=PROPERTY_DEFINITION('pmi validation property','',#1395);
#16=VALUE_REPRESENTATION_ITEM('number of annotations',COUNT_MEASURE(0.));
#17=VALUE_REPRESENTATION_ITEM('number of views',COUNT_MEASURE(0.));
#18=SHAPE_REPRESENTATION_RELATIONSHIP('','',#768,#19);
#19=ADVANCED_BREP_SHAPE_REPRESENTATION('',(#766),#1390);
#20=CONICAL_SURFACE('',#887,0.0175,0.785398163397431);
#21=PLANE('',#821);
#22=PLANE('',#843);
#23=LINE('',#1165,#57);
#24=LINE('',#1169,#58);
#25=LINE('',#1174,#59);
#26=LINE('',#1178,#60);
#27=LINE('',#1183,#61);
#28=LINE('',#1187,#62);
#29=LINE('',#1192,#63);
#30=LINE('',#1196,#64);
#31=LINE('',#1201,#65);
#32=LINE('',#1205,#66);
#33=LINE('',#1210,#67);
#34=LINE('',#1214,#68);
#35=LINE('',#1219,#69);
#36=LINE('',#1223,#70);
#37=LINE('',#1228,#71);
#38=LINE('',#1232,#72);
#39=LINE('',#1237,#73);
#40=LINE('',#1241,#74);
#41=LINE('',#1246,#75);
#42=LINE('',#1250,#76);
#43=LINE('',#1255,#77);
#44=LINE('',#1259,#78);
#45=LINE('',#1264,#79);
#46=LINE('',#1268,#80);
#47=LINE('',#1273,#81);
#48=LINE('',#1277,#82);
#49=LINE('',#1282,#83);
#50=LINE('',#1286,#84);
#51=LINE('',#1291,#85);
#52=LINE('',#1295,#86);
#53=LINE('',#1300,#87);
#54=LINE('',#1304,#88);
#55=LINE('',#1367,#89);
#56=LINE('',#1368,#90);
#57=VECTOR('',#894,1.);
#58=VECTOR('',#897,1.);
#59=VECTOR('',#902,1.);
#60=VECTOR('',#905,1.);
#61=VECTOR('',#910,1.);
#62=VECTOR('',#913,1.);
#63=VECTOR('',#918,1.);
#64=VECTOR('',#921,1.);
#65=VECTOR('',#926,1.);
#66=VECTOR('',#929,1.);
#67=VECTOR('',#934,1.);
#68=VECTOR('',#937,1.);
#69=VECTOR('',#942,1.);
#70=VECTOR('',#945,1.);
#71=VECTOR('',#950,1.);
#72=VECTOR('',#953,1.);
#73=VECTOR('',#958,1.);
#74=VECTOR('',#961,1.);
#75=VECTOR('',#966,1.);
#76=VECTOR('',#969,1.);
#77=VECTOR('',#974,1.);
#78=VECTOR('',#977,1.);
#79=VECTOR('',#982,1.);
#80=VECTOR('',#985,1.);
#81=VECTOR('',#990,1.);
#82=VECTOR('',#993,1.);
#83=VECTOR('',#998,1.);
#84=VECTOR('',#1001,1.);
#85=VECTOR('',#1006,1.);
#86=VECTOR('',#1009,1.);
#87=VECTOR('',#1014,1.);
#88=VECTOR('',#1017,1.);
#89=VECTOR('',#1116,1.);
#90=VECTOR('',#1117,1.);
#91=ORIENTED_EDGE('',*,*,#313,.T.);
#92=ORIENTED_EDGE('',*,*,#314,.F.);
#93=ORIENTED_EDGE('',*,*,#315,.T.);
#94=ORIENTED_EDGE('',*,*,#316,.F.);
#95=ORIENTED_EDGE('',*,*,#317,.T.);
#96=ORIENTED_EDGE('',*,*,#318,.F.);
#97=ORIENTED_EDGE('',*,*,#319,.T.);
#98=ORIENTED_EDGE('',*,*,#320,.F.);
#99=ORIENTED_EDGE('',*,*,#321,.T.);
#100=ORIENTED_EDGE('',*,*,#322,.F.);
#101=ORIENTED_EDGE('',*,*,#323,.T.);
#102=ORIENTED_EDGE('',*,*,#324,.F.);
#103=ORIENTED_EDGE('',*,*,#325,.T.);
#104=ORIENTED_EDGE('',*,*,#326,.F.);
#105=ORIENTED_EDGE('',*,*,#327,.T.);
#106=ORIENTED_EDGE('',*,*,#328,.F.);
#107=ORIENTED_EDGE('',*,*,#329,.T.);
#108=ORIENTED_EDGE('',*,*,#330,.F.);
#109=ORIENTED_EDGE('',*,*,#331,.T.);
#110=ORIENTED_EDGE('',*,*,#332,.F.);
#111=ORIENTED_EDGE('',*,*,#333,.T.);
#112=ORIENTED_EDGE('',*,*,#334,.F.);
#113=ORIENTED_EDGE('',*,*,#335,.T.);
#114=ORIENTED_EDGE('',*,*,#336,.F.);
#115=ORIENTED_EDGE('',*,*,#337,.T.);
#116=ORIENTED_EDGE('',*,*,#338,.F.);
#117=ORIENTED_EDGE('',*,*,#339,.T.);
#118=ORIENTED_EDGE('',*,*,#340,.F.);
#119=ORIENTED_EDGE('',*,*,#341,.T.);
#120=ORIENTED_EDGE('',*,*,#342,.F.);
#121=ORIENTED_EDGE('',*,*,#343,.T.);
#122=ORIENTED_EDGE('',*,*,#344,.F.);
#123=ORIENTED_EDGE('',*,*,#345,.T.);
#124=ORIENTED_EDGE('',*,*,#346,.F.);
#125=ORIENTED_EDGE('',*,*,#347,.T.);
#126=ORIENTED_EDGE('',*,*,#348,.F.);
#127=ORIENTED_EDGE('',*,*,#349,.T.);
#128=ORIENTED_EDGE('',*,*,#350,.F.);
#129=ORIENTED_EDGE('',*,*,#351,.T.);
#130=ORIENTED_EDGE('',*,*,#352,.F.);
#131=ORIENTED_EDGE('',*,*,#353,.T.);
#132=ORIENTED_EDGE('',*,*,#354,.F.);
#133=ORIENTED_EDGE('',*,*,#355,.T.);
#134=ORIENTED_EDGE('',*,*,#356,.F.);
#135=ORIENTED_EDGE('',*,*,#357,.T.);
#136=ORIENTED_EDGE('',*,*,#358,.F.);
#137=ORIENTED_EDGE('',*,*,#359,.T.);
#138=ORIENTED_EDGE('',*,*,#360,.F.);
#139=ORIENTED_EDGE('',*,*,#361,.T.);
#140=ORIENTED_EDGE('',*,*,#362,.F.);
#141=ORIENTED_EDGE('',*,*,#363,.T.);
#142=ORIENTED_EDGE('',*,*,#364,.F.);
#143=ORIENTED_EDGE('',*,*,#365,.T.);
#144=ORIENTED_EDGE('',*,*,#366,.F.);
#145=ORIENTED_EDGE('',*,*,#367,.T.);
#146=ORIENTED_EDGE('',*,*,#368,.F.);
#147=ORIENTED_EDGE('',*,*,#369,.T.);
#148=ORIENTED_EDGE('',*,*,#370,.F.);
#149=ORIENTED_EDGE('',*,*,#371,.T.);
#150=ORIENTED_EDGE('',*,*,#372,.F.);
#151=ORIENTED_EDGE('',*,*,#373,.T.);
#152=ORIENTED_EDGE('',*,*,#374,.F.);
#153=ORIENTED_EDGE('',*,*,#375,.T.);
#154=ORIENTED_EDGE('',*,*,#376,.F.);
#155=ORIENTED_EDGE('',*,*,#377,.T.);
#156=ORIENTED_EDGE('',*,*,#378,.F.);
#157=ORIENTED_EDGE('',*,*,#379,.F.);
#158=ORIENTED_EDGE('',*,*,#380,.F.);
#159=ORIENTED_EDGE('',*,*,#381,.F.);
#160=ORIENTED_EDGE('',*,*,#382,.F.);
#161=ORIENTED_EDGE('',*,*,#357,.F.);
#162=ORIENTED_EDGE('',*,*,#383,.F.);
#163=ORIENTED_EDGE('',*,*,#361,.F.);
#164=ORIENTED_EDGE('',*,*,#384,.F.);
#165=ORIENTED_EDGE('',*,*,#365,.F.);
#166=ORIENTED_EDGE('',*,*,#385,.F.);
#167=ORIENTED_EDGE('',*,*,#369,.F.);
#168=ORIENTED_EDGE('',*,*,#386,.F.);
#169=ORIENTED_EDGE('',*,*,#373,.F.);
#170=ORIENTED_EDGE('',*,*,#387,.F.);
#171=ORIENTED_EDGE('',*,*,#388,.F.);
#172=ORIENTED_EDGE('',*,*,#389,.F.);
#173=ORIENTED_EDGE('',*,*,#355,.F.);
#174=ORIENTED_EDGE('',*,*,#390,.F.);
#175=ORIENTED_EDGE('',*,*,#351,.F.);
#176=ORIENTED_EDGE('',*,*,#391,.F.);
#177=ORIENTED_EDGE('',*,*,#347,.F.);
#178=ORIENTED_EDGE('',*,*,#392,.F.);
#179=ORIENTED_EDGE('',*,*,#343,.F.);
#180=ORIENTED_EDGE('',*,*,#393,.F.);
#181=ORIENTED_EDGE('',*,*,#339,.F.);
#182=ORIENTED_EDGE('',*,*,#394,.F.);
#183=ORIENTED_EDGE('',*,*,#335,.F.);
#184=ORIENTED_EDGE('',*,*,#395,.F.);
#185=ORIENTED_EDGE('',*,*,#331,.F.);
#186=ORIENTED_EDGE('',*,*,#396,.F.);
#187=ORIENTED_EDGE('',*,*,#327,.F.);
#188=ORIENTED_EDGE('',*,*,#397,.F.);
#189=ORIENTED_EDGE('',*,*,#323,.F.);
#190=ORIENTED_EDGE('',*,*,#398,.F.);
#191=ORIENTED_EDGE('',*,*,#319,.F.);
#192=ORIENTED_EDGE('',*,*,#399,.F.);
#193=ORIENTED_EDGE('',*,*,#315,.F.);
#194=ORIENTED_EDGE('',*,*,#378,.T.);
#195=ORIENTED_EDGE('',*,*,#400,.T.);
#196=ORIENTED_EDGE('',*,*,#401,.T.);
#197=ORIENTED_EDGE('',*,*,#402,.T.);
#198=ORIENTED_EDGE('',*,*,#403,.T.);
#199=ORIENTED_EDGE('',*,*,#359,.F.);
#200=ORIENTED_EDGE('',*,*,#404,.F.);
#201=ORIENTED_EDGE('',*,*,#313,.F.);
#202=ORIENTED_EDGE('',*,*,#405,.F.);
#203=ORIENTED_EDGE('',*,*,#317,.F.);
#204=ORIENTED_EDGE('',*,*,#406,.F.);
#205=ORIENTED_EDGE('',*,*,#321,.F.);
#206=ORIENTED_EDGE('',*,*,#407,.F.);
#207=ORIENTED_EDGE('',*,*,#325,.F.);
#208=ORIENTED_EDGE('',*,*,#408,.F.);
#209=ORIENTED_EDGE('',*,*,#329,.F.);
#210=ORIENTED_EDGE('',*,*,#409,.F.);
#211=ORIENTED_EDGE('',*,*,#333,.F.);
#212=ORIENTED_EDGE('',*,*,#410,.F.);
#213=ORIENTED_EDGE('',*,*,#337,.F.);
#214=ORIENTED_EDGE('',*,*,#411,.F.);
#215=ORIENTED_EDGE('',*,*,#341,.F.);
#216=ORIENTED_EDGE('',*,*,#412,.F.);
#217=ORIENTED_EDGE('',*,*,#345,.F.);
#218=ORIENTED_EDGE('',*,*,#413,.F.);
#219=ORIENTED_EDGE('',*,*,#349,.F.);
#220=ORIENTED_EDGE('',*,*,#414,.F.);
#221=ORIENTED_EDGE('',*,*,#353,.F.);
#222=ORIENTED_EDGE('',*,*,#415,.F.);
#223=ORIENTED_EDGE('',*,*,#416,.F.);
#224=ORIENTED_EDGE('',*,*,#417,.F.);
#225=ORIENTED_EDGE('',*,*,#375,.F.);
#226=ORIENTED_EDGE('',*,*,#418,.F.);
#227=ORIENTED_EDGE('',*,*,#371,.F.);
#228=ORIENTED_EDGE('',*,*,#419,.F.);
#229=ORIENTED_EDGE('',*,*,#367,.F.);
#230=ORIENTED_EDGE('',*,*,#420,.F.);
#231=ORIENTED_EDGE('',*,*,#363,.F.);
#232=ORIENTED_EDGE('',*,*,#421,.F.);
#233=ORIENTED_EDGE('',*,*,#388,.T.);
#234=ORIENTED_EDGE('',*,*,#422,.F.);
#235=ORIENTED_EDGE('',*,*,#416,.T.);
#236=ORIENTED_EDGE('',*,*,#423,.F.);
#237=ORIENTED_EDGE('',*,*,#356,.T.);
#238=ORIENTED_EDGE('',*,*,#389,.T.);
#239=ORIENTED_EDGE('',*,*,#423,.T.);
#240=ORIENTED_EDGE('',*,*,#415,.T.);
#241=ORIENTED_EDGE('',*,*,#422,.T.);
#242=ORIENTED_EDGE('',*,*,#387,.T.);
#243=ORIENTED_EDGE('',*,*,#376,.T.);
#244=ORIENTED_EDGE('',*,*,#417,.T.);
#245=ORIENTED_EDGE('',*,*,#374,.T.);
#246=ORIENTED_EDGE('',*,*,#386,.T.);
#247=ORIENTED_EDGE('',*,*,#372,.T.);
#248=ORIENTED_EDGE('',*,*,#418,.T.);
#249=ORIENTED_EDGE('',*,*,#370,.T.);
#250=ORIENTED_EDGE('',*,*,#385,.T.);
#251=ORIENTED_EDGE('',*,*,#368,.T.);
#252=ORIENTED_EDGE('',*,*,#419,.T.);
#253=ORIENTED_EDGE('',*,*,#366,.T.);
#254=ORIENTED_EDGE('',*,*,#384,.T.);
#255=ORIENTED_EDGE('',*,*,#364,.T.);
#256=ORIENTED_EDGE('',*,*,#420,.T.);
#257=ORIENTED_EDGE('',*,*,#362,.T.);
#258=ORIENTED_EDGE('',*,*,#383,.T.);
#259=ORIENTED_EDGE('',*,*,#360,.T.);
#260=ORIENTED_EDGE('',*,*,#421,.T.);
#261=ORIENTED_EDGE('',*,*,#352,.T.);
#262=ORIENTED_EDGE('',*,*,#390,.T.);
#263=ORIENTED_EDGE('',*,*,#354,.T.);
#264=ORIENTED_EDGE('',*,*,#414,.T.);
#265=ORIENTED_EDGE('',*,*,#348,.T.);
#266=ORIENTED_EDGE('',*,*,#391,.T.);
#267=ORIENTED_EDGE('',*,*,#350,.T.);
#268=ORIENTED_EDGE('',*,*,#413,.T.);
#269=ORIENTED_EDGE('',*,*,#344,.T.);
#270=ORIENTED_EDGE('',*,*,#392,.T.);
#271=ORIENTED_EDGE('',*,*,#346,.T.);
#272=ORIENTED_EDGE('',*,*,#412,.T.);
#273=ORIENTED_EDGE('',*,*,#340,.T.);
#274=ORIENTED_EDGE('',*,*,#393,.T.);
#275=ORIENTED_EDGE('',*,*,#342,.T.);
#276=ORIENTED_EDGE('',*,*,#411,.T.);
#277=ORIENTED_EDGE('',*,*,#336,.T.);
#278=ORIENTED_EDGE('',*,*,#394,.T.);
#279=ORIENTED_EDGE('',*,*,#338,.T.);
#280=ORIENTED_EDGE('',*,*,#410,.T.);
#281=ORIENTED_EDGE('',*,*,#332,.T.);
#282=ORIENTED_EDGE('',*,*,#395,.T.);
#283=ORIENTED_EDGE('',*,*,#334,.T.);
#284=ORIENTED_EDGE('',*,*,#409,.T.);
#285=ORIENTED_EDGE('',*,*,#328,.T.);
#286=ORIENTED_EDGE('',*,*,#396,.T.);
#287=ORIENTED_EDGE('',*,*,#330,.T.);
#288=ORIENTED_EDGE('',*,*,#408,.T.);
#289=ORIENTED_EDGE('',*,*,#324,.T.);
#290=ORIENTED_EDGE('',*,*,#397,.T.);
#291=ORIENTED_EDGE('',*,*,#326,.T.);
#292=ORIENTED_EDGE('',*,*,#407,.T.);
#293=ORIENTED_EDGE('',*,*,#320,.T.);
#294=ORIENTED_EDGE('',*,*,#398,.T.);
#295=ORIENTED_EDGE('',*,*,#322,.T.);
#296=ORIENTED_EDGE('',*,*,#406,.T.);
#297=ORIENTED_EDGE('',*,*,#316,.T.);
#298=ORIENTED_EDGE('',*,*,#399,.T.);
#299=ORIENTED_EDGE('',*,*,#318,.T.);
#300=ORIENTED_EDGE('',*,*,#405,.T.);
#301=ORIENTED_EDGE('',*,*,#358,.T.);
#302=ORIENTED_EDGE('',*,*,#382,.T.);
#303=ORIENTED_EDGE('',*,*,#314,.T.);
#304=ORIENTED_EDGE('',*,*,#404,.T.);
#305=ORIENTED_EDGE('',*,*,#403,.F.);
#306=ORIENTED_EDGE('',*,*,#381,.T.);
#307=ORIENTED_EDGE('',*,*,#402,.F.);
#308=ORIENTED_EDGE('',*,*,#380,.T.);
#309=ORIENTED_EDGE('',*,*,#401,.F.);
#310=ORIENTED_EDGE('',*,*,#379,.T.);
#311=ORIENTED_EDGE('',*,*,#400,.F.);
#312=ORIENTED_EDGE('',*,*,#377,.F.);
#313=EDGE_CURVE('',#424,#425,#501,.F.);
#314=EDGE_CURVE('',#426,#425,#23,.F.);
#315=EDGE_CURVE('',#426,#427,#502,.T.);
#316=EDGE_CURVE('',#424,#427,#24,.T.);
#317=EDGE_CURVE('',#428,#429,#503,.F.);
#318=EDGE_CURVE('',#430,#429,#25,.F.);
#319=EDGE_CURVE('',#430,#431,#504,.T.);
#320=EDGE_CURVE('',#428,#431,#26,.T.);
#321=EDGE_CURVE('',#432,#433,#505,.F.);
#322=EDGE_CURVE('',#434,#433,#27,.F.);
#323=EDGE_CURVE('',#434,#435,#506,.T.);
#324=EDGE_CURVE('',#432,#435,#28,.T.);
#325=EDGE_CURVE('',#436,#437,#507,.F.);
#326=EDGE_CURVE('',#438,#437,#29,.F.);
#327=EDGE_CURVE('',#438,#439,#508,.T.);
#328=EDGE_CURVE('',#436,#439,#30,.T.);
#329=EDGE_CURVE('',#440,#441,#509,.F.);
#330=EDGE_CURVE('',#442,#441,#31,.F.);
#331=EDGE_CURVE('',#442,#443,#510,.T.);
#332=EDGE_CURVE('',#440,#443,#32,.T.);
#333=EDGE_CURVE('',#444,#445,#511,.F.);
#334=EDGE_CURVE('',#446,#445,#33,.F.);
#335=EDGE_CURVE('',#446,#447,#512,.T.);
#336=EDGE_CURVE('',#444,#447,#34,.T.);
#337=EDGE_CURVE('',#448,#449,#513,.F.);
#338=EDGE_CURVE('',#450,#449,#35,.F.);
#339=EDGE_CURVE('',#450,#451,#514,.T.);
#340=EDGE_CURVE('',#448,#451,#36,.T.);
#341=EDGE_CURVE('',#452,#453,#515,.F.);
#342=EDGE_CURVE('',#454,#453,#37,.F.);
#343=EDGE_CURVE('',#454,#455,#516,.T.);
#344=EDGE_CURVE('',#452,#455,#38,.T.);
#345=EDGE_CURVE('',#456,#457,#517,.F.);
#346=EDGE_CURVE('',#458,#457,#39,.F.);
#347=EDGE_CURVE('',#458,#459,#518,.T.);
#348=EDGE_CURVE('',#456,#459,#40,.T.);
#349=EDGE_CURVE('',#460,#461,#519,.F.);
#350=EDGE_CURVE('',#462,#461,#41,.F.);
#351=EDGE_CURVE('',#462,#463,#520,.T.);
#352=EDGE_CURVE('',#460,#463,#42,.T.);
#353=EDGE_CURVE('',#464,#465,#521,.F.);
#354=EDGE_CURVE('',#466,#465,#43,.F.);
#355=EDGE_CURVE('',#466,#467,#522,.T.);
#356=EDGE_CURVE('',#464,#467,#44,.T.);
#357=EDGE_CURVE('',#468,#469,#523,.T.);
#358=EDGE_CURVE('',#470,#469,#45,.T.);
#359=EDGE_CURVE('',#470,#471,#524,.F.);
#360=EDGE_CURVE('',#468,#471,#46,.F.);
#361=EDGE_CURVE('',#472,#473,#525,.T.);
#362=EDGE_CURVE('',#474,#473,#47,.T.);
#363=EDGE_CURVE('',#474,#475,#526,.F.);
#364=EDGE_CURVE('',#472,#475,#48,.F.);
#365=EDGE_CURVE('',#476,#477,#527,.T.);
#366=EDGE_CURVE('',#478,#477,#49,.T.);
#367=EDGE_CURVE('',#478,#479,#528,.F.);
#368=EDGE_CURVE('',#476,#479,#50,.F.);
#369=EDGE_CURVE('',#480,#481,#529,.T.);
#370=EDGE_CURVE('',#482,#481,#51,.T.);
#371=EDGE_CURVE('',#482,#483,#530,.F.);
#372=EDGE_CURVE('',#480,#483,#52,.F.);
#373=EDGE_CURVE('',#484,#485,#531,.T.);
#374=EDGE_CURVE('',#486,#485,#53,.T.);
#375=EDGE_CURVE('',#486,#487,#532,.F.);
#376=EDGE_CURVE('',#484,#487,#54,.F.);
#377=EDGE_CURVE('',#488,#488,#533,.T.);
#378=EDGE_CURVE('',#489,#489,#534,.T.);
#379=EDGE_CURVE('',#490,#490,#535,.T.);
#380=EDGE_CURVE('',#491,#491,#536,.T.);
#381=EDGE_CURVE('',#492,#492,#537,.T.);
#382=EDGE_CURVE('',#469,#426,#538,.T.);
#383=EDGE_CURVE('',#473,#468,#539,.T.);
#384=EDGE_CURVE('',#477,#472,#540,.T.);
#385=EDGE_CURVE('',#481,#476,#541,.T.);
#386=EDGE_CURVE('',#485,#480,#542,.T.);
#387=EDGE_CURVE('',#493,#484,#543,.T.);
#388=EDGE_CURVE('',#494,#493,#544,.T.);
#389=EDGE_CURVE('',#467,#494,#545,.T.);
#390=EDGE_CURVE('',#463,#466,#546,.T.);
#391=EDGE_CURVE('',#459,#462,#547,.T.);
#392=EDGE_CURVE('',#455,#458,#548,.T.);
#393=EDGE_CURVE('',#451,#454,#549,.T.);
#394=EDGE_CURVE('',#447,#450,#550,.T.);
#395=EDGE_CURVE('',#443,#446,#551,.T.);
#396=EDGE_CURVE('',#439,#442,#552,.T.);
#397=EDGE_CURVE('',#435,#438,#553,.T.);
#398=EDGE_CURVE('',#431,#434,#554,.T.);
#399=EDGE_CURVE('',#427,#430,#555,.T.);
#400=EDGE_CURVE('',#495,#495,#556,.F.);
#401=EDGE_CURVE('',#496,#496,#557,.T.);
#402=EDGE_CURVE('',#497,#497,#558,.T.);
#403=EDGE_CURVE('',#498,#498,#559,.T.);
#404=EDGE_CURVE('',#425,#470,#560,.F.);
#405=EDGE_CURVE('',#429,#424,#561,.F.);
#406=EDGE_CURVE('',#433,#428,#562,.F.);
#407=EDGE_CURVE('',#437,#432,#563,.F.);
#408=EDGE_CURVE('',#441,#436,#564,.F.);
#409=EDGE_CURVE('',#445,#440,#565,.F.);
#410=EDGE_CURVE('',#449,#444,#566,.F.);
#411=EDGE_CURVE('',#453,#448,#567,.F.);
#412=EDGE_CURVE('',#457,#452,#568,.F.);
#413=EDGE_CURVE('',#461,#456,#569,.F.);
#414=EDGE_CURVE('',#465,#460,#570,.F.);
#415=EDGE_CURVE('',#499,#464,#571,.F.);
#416=EDGE_CURVE('',#500,#499,#572,.F.);
#417=EDGE_CURVE('',#487,#500,#573,.F.);
#418=EDGE_CURVE('',#483,#486,#574,.F.);
#419=EDGE_CURVE('',#479,#482,#575,.F.);
#420=EDGE_CURVE('',#475,#478,#576,.F.);
#421=EDGE_CURVE('',#471,#474,#577,.F.);
#422=EDGE_CURVE('',#500,#493,#55,.T.);
#423=EDGE_CURVE('',#494,#499,#56,.F.);
#424=VERTEX_POINT('',#1163);
#425=VERTEX_POINT('',#1164);
#426=VERTEX_POINT('',#1166);
#427=VERTEX_POINT('',#1168);
#428=VERTEX_POINT('',#1172);
#429=VERTEX_POINT('',#1173);
#430=VERTEX_POINT('',#1175);
#431=VERTEX_POINT('',#1177);
#432=VERTEX_POINT('',#1181);
#433=VERTEX_POINT('',#1182);
#434=VERTEX_POINT('',#1184);
#435=VERTEX_POINT('',#1186);
#436=VERTEX_POINT('',#1190);
#437=VERTEX_POINT('',#1191);
#438=VERTEX_POINT('',#1193);
#439=VERTEX_POINT('',#1195);
#440=VERTEX_POINT('',#1199);
#441=VERTEX_POINT('',#1200);
#442=VERTEX_POINT('',#1202);
#443=VERTEX_POINT('',#1204);
#444=VERTEX_POINT('',#1208);
#445=VERTEX_POINT('',#1209);
#446=VERTEX_POINT('',#1211);
#447=VERTEX_POINT('',#1213);
#448=VERTEX_POINT('',#1217);
#449=VERTEX_POINT('',#1218);
#450=VERTEX_POINT('',#1220);
#451=VERTEX_POINT('',#1222);
#452=VERTEX_POINT('',#1226);
#453=VERTEX_POINT('',#1227);
#454=VERTEX_POINT('',#1229);
#455=VERTEX_POINT('',#1231);
#456=VERTEX_POINT('',#1235);
#457=VERTEX_POINT('',#1236);
#458=VERTEX_POINT('',#1238);
#459=VERTEX_POINT('',#1240);
#460=VERTEX_POINT('',#1244);
#461=VERTEX_POINT('',#1245);
#462=VERTEX_POINT('',#1247);
#463=VERTEX_POINT('',#1249);
#464=VERTEX_POINT('',#1253);
#465=VERTEX_POINT('',#1254);
#466=VERTEX_POINT('',#1256);
#467=VERTEX_POINT('',#1258);
#468=VERTEX_POINT('',#1262);
#469=VERTEX_POINT('',#1263);
#470=VERTEX_POINT('',#1265);
#471=VERTEX_POINT('',#1267);
#472=VERTEX_POINT('',#1271);
#473=VERTEX_POINT('',#1272);
#474=VERTEX_POINT('',#1274);
#475=VERTEX_POINT('',#1276);
#476=VERTEX_POINT('',#1280);
#477=VERTEX_POINT('',#1281);
#478=VERTEX_POINT('',#1283);
#479=VERTEX_POINT('',#1285);
#480=VERTEX_POINT('',#1289);
#481=VERTEX_POINT('',#1290);
#482=VERTEX_POINT('',#1292);
#483=VERTEX_POINT('',#1294);
#484=VERTEX_POINT('',#1298);
#485=VERTEX_POINT('',#1299);
#486=VERTEX_POINT('',#1301);
#487=VERTEX_POINT('',#1303);
#488=VERTEX_POINT('',#1307);
#489=VERTEX_POINT('',#1309);
#490=VERTEX_POINT('',#1312);
#491=VERTEX_POINT('',#1314);
#492=VERTEX_POINT('',#1316);
#493=VERTEX_POINT('',#1323);
#494=VERTEX_POINT('',#1325);
#495=VERTEX_POINT('',#1339);
#496=VERTEX_POINT('',#1341);
#497=VERTEX_POINT('',#1343);
#498=VERTEX_POINT('',#1345);
#499=VERTEX_POINT('',#1358);
#500=VERTEX_POINT('',#1360);
#501=CIRCLE('',#771,0.0135);
#502=CIRCLE('',#772,0.0135);
#503=CIRCLE('',#774,0.0135);
#504=CIRCLE('',#775,0.0135);
#505=CIRCLE('',#777,0.0135);
#506=CIRCLE('',#778,0.0135);
#507=CIRCLE('',#780,0.0135);
#508=CIRCLE('',#781,0.0135);
#509=CIRCLE('',#783,0.0135);
#510=CIRCLE('',#784,0.0135);
#511=CIRCLE('',#786,0.0135);
#512=CIRCLE('',#787,0.0135);
#513=CIRCLE('',#789,0.0135);
#514=CIRCLE('',#790,0.0135);
#515=CIRCLE('',#792,0.0135);
#516=CIRCLE('',#793,0.0135);
#517=CIRCLE('',#795,0.0135);
#518=CIRCLE('',#796,0.0135);
#519=CIRCLE('',#798,0.0135);
#520=CIRCLE('',#799,0.0135);
#521=CIRCLE('',#801,0.0135);
#522=CIRCLE('',#802,0.0135);
#523=CIRCLE('',#804,0.0135);
#524=CIRCLE('',#805,0.0135);
#525=CIRCLE('',#807,0.0135);
#526=CIRCLE('',#808,0.0135);
#527=CIRCLE('',#810,0.0135);
#528=CIRCLE('',#811,0.0135);
#529=CIRCLE('',#813,0.0135);
#530=CIRCLE('',#814,0.0135);
#531=CIRCLE('',#816,0.0135);
#532=CIRCLE('',#817,0.0135);
#533=CIRCLE('',#819,0.0175);
#534=CIRCLE('',#820,0.0175);
#535=CIRCLE('',#822,0.0005);
#536=CIRCLE('',#823,0.0005);
#537=CIRCLE('',#824,0.0005);
#538=CIRCLE('',#825,0.0016);
#539=CIRCLE('',#826,0.0016);
#540=CIRCLE('',#827,0.0016);
#541=CIRCLE('',#828,0.0016);
#542=CIRCLE('',#829,0.0016);
#543=CIRCLE('',#830,0.0016);
#544=CIRCLE('',#831,0.0135);
#545=CIRCLE('',#832,0.0016);
#546=CIRCLE('',#833,0.0016);
#547=CIRCLE('',#834,0.0016);
#548=CIRCLE('',#835,0.0016);
#549=CIRCLE('',#836,0.0016);
#550=CIRCLE('',#837,0.0016);
#551=CIRCLE('',#838,0.0016);
#552=CIRCLE('',#839,0.0016);
#553=CIRCLE('',#840,0.0016);
#554=CIRCLE('',#841,0.0016);
#555=CIRCLE('',#842,0.0016);
#556=CIRCLE('',#844,0.0173);
#557=CIRCLE('',#845,0.0005);
#558=CIRCLE('',#846,0.0005);
#559=CIRCLE('',#847,0.0005);
#560=CIRCLE('',#848,0.0016);
#561=CIRCLE('',#849,0.0016);
#562=CIRCLE('',#850,0.0016);
#563=CIRCLE('',#851,0.0016);
#564=CIRCLE('',#852,0.0016);
#565=CIRCLE('',#853,0.0016);
#566=CIRCLE('',#854,0.0016);
#567=CIRCLE('',#855,0.0016);
#568=CIRCLE('',#856,0.0016);
#569=CIRCLE('',#857,0.0016);
#570=CIRCLE('',#858,0.0016);
#571=CIRCLE('',#859,0.0016);
#572=CIRCLE('',#860,0.0135);
#573=CIRCLE('',#861,0.0016);
#574=CIRCLE('',#862,0.0016);
#575=CIRCLE('',#863,0.0016);
#576=CIRCLE('',#864,0.0016);
#577=CIRCLE('',#865,0.0016);
#578=EDGE_LOOP('',(#91,#92,#93,#94));
#579=EDGE_LOOP('',(#95,#96,#97,#98));
#580=EDGE_LOOP('',(#99,#100,#101,#102));
#581=EDGE_LOOP('',(#103,#104,#105,#106));
#582=EDGE_LOOP('',(#107,#108,#109,#110));
#583=EDGE_LOOP('',(#111,#112,#113,#114));
#584=EDGE_LOOP('',(#115,#116,#117,#118));
#585=EDGE_LOOP('',(#119,#120,#121,#122));
#586=EDGE_LOOP('',(#123,#124,#125,#126));
#587=EDGE_LOOP('',(#127,#128,#129,#130));
#588=EDGE_LOOP('',(#131,#132,#133,#134));
#589=EDGE_LOOP('',(#135,#136,#137,#138));
#590=EDGE_LOOP('',(#139,#140,#141,#142));
#591=EDGE_LOOP('',(#143,#144,#145,#146));
#592=EDGE_LOOP('',(#147,#148,#149,#150));
#593=EDGE_LOOP('',(#151,#152,#153,#154));
#594=EDGE_LOOP('',(#155));
#595=EDGE_LOOP('',(#156));
#596=EDGE_LOOP('',(#157));
#597=EDGE_LOOP('',(#158));
#598=EDGE_LOOP('',(#159));
#599=EDGE_LOOP('',(#160,#161,#162,#163,#164,#165,#166,#167,#168,#169,#170,
#171,#172,#173,#174,#175,#176,#177,#178,#179,#180,#181,#182,#183,#184,#185,
#186,#187,#188,#189,#190,#191,#192,#193));
#600=EDGE_LOOP('',(#194));
#601=EDGE_LOOP('',(#195));
#602=EDGE_LOOP('',(#196));
#603=EDGE_LOOP('',(#197));
#604=EDGE_LOOP('',(#198));
#605=EDGE_LOOP('',(#199,#200,#201,#202,#203,#204,#205,#206,#207,#208,#209,
#210,#211,#212,#213,#214,#215,#216,#217,#218,#219,#220,#221,#222,#223,#224,
#225,#226,#227,#228,#229,#230,#231,#232));
#606=EDGE_LOOP('',(#233,#234,#235,#236));
#607=EDGE_LOOP('',(#237,#238,#239,#240));
#608=EDGE_LOOP('',(#241,#242,#243,#244));
#609=EDGE_LOOP('',(#245,#246,#247,#248));
#610=EDGE_LOOP('',(#249,#250,#251,#252));
#611=EDGE_LOOP('',(#253,#254,#255,#256));
#612=EDGE_LOOP('',(#257,#258,#259,#260));
#613=EDGE_LOOP('',(#261,#262,#263,#264));
#614=EDGE_LOOP('',(#265,#266,#267,#268));
#615=EDGE_LOOP('',(#269,#270,#271,#272));
#616=EDGE_LOOP('',(#273,#274,#275,#276));
#617=EDGE_LOOP('',(#277,#278,#279,#280));
#618=EDGE_LOOP('',(#281,#282,#283,#284));
#619=EDGE_LOOP('',(#285,#286,#287,#288));
#620=EDGE_LOOP('',(#289,#290,#291,#292));
#621=EDGE_LOOP('',(#293,#294,#295,#296));
#622=EDGE_LOOP('',(#297,#298,#299,#300));
#623=EDGE_LOOP('',(#301,#302,#303,#304));
#624=EDGE_LOOP('',(#305));
#625=EDGE_LOOP('',(#306));
#626=EDGE_LOOP('',(#307));
#627=EDGE_LOOP('',(#308));
#628=EDGE_LOOP('',(#309));
#629=EDGE_LOOP('',(#310));
#630=EDGE_LOOP('',(#311));
#631=EDGE_LOOP('',(#312));
#632=FACE_BOUND('',#578,.T.);
#633=FACE_BOUND('',#579,.T.);
#634=FACE_BOUND('',#580,.T.);
#635=FACE_BOUND('',#581,.T.);
#636=FACE_BOUND('',#582,.T.);
#637=FACE_BOUND('',#583,.T.);
#638=FACE_BOUND('',#584,.T.);
#639=FACE_BOUND('',#585,.T.);
#640=FACE_BOUND('',#586,.T.);
#641=FACE_BOUND('',#587,.T.);
#642=FACE_BOUND('',#588,.T.);
#643=FACE_BOUND('',#589,.T.);
#644=FACE_BOUND('',#590,.T.);
#645=FACE_BOUND('',#591,.T.);
#646=FACE_BOUND('',#592,.T.);
#647=FACE_BOUND('',#593,.T.);
#648=FACE_BOUND('',#594,.T.);
#649=FACE_BOUND('',#595,.T.);
#650=FACE_BOUND('',#596,.T.);
#651=FACE_BOUND('',#597,.T.);
#652=FACE_BOUND('',#598,.T.);
#653=FACE_BOUND('',#599,.T.);
#654=FACE_BOUND('',#600,.T.);
#655=FACE_BOUND('',#601,.T.);
#656=FACE_BOUND('',#602,.T.);
#657=FACE_BOUND('',#603,.T.);
#658=FACE_BOUND('',#604,.T.);
#659=FACE_BOUND('',#605,.T.);
#660=FACE_BOUND('',#606,.T.);
#661=FACE_BOUND('',#607,.T.);
#662=FACE_BOUND('',#608,.T.);
#663=FACE_BOUND('',#609,.T.);
#664=FACE_BOUND('',#610,.T.);
#665=FACE_BOUND('',#611,.T.);
#666=FACE_BOUND('',#612,.T.);
#667=FACE_BOUND('',#613,.T.);
#668=FACE_BOUND('',#614,.T.);
#669=FACE_BOUND('',#615,.T.);
#670=FACE_BOUND('',#616,.T.);
#671=FACE_BOUND('',#617,.T.);
#672=FACE_BOUND('',#618,.T.);
#673=FACE_BOUND('',#619,.T.);
#674=FACE_BOUND('',#620,.T.);
#675=FACE_BOUND('',#621,.T.);
#676=FACE_BOUND('',#622,.T.);
#677=FACE_BOUND('',#623,.T.);
#678=FACE_BOUND('',#624,.T.);
#679=FACE_BOUND('',#625,.T.);
#680=FACE_BOUND('',#626,.T.);
#681=FACE_BOUND('',#627,.T.);
#682=FACE_BOUND('',#628,.T.);
#683=FACE_BOUND('',#629,.T.);
#684=FACE_BOUND('',#630,.T.);
#685=FACE_BOUND('',#631,.T.);
#686=CYLINDRICAL_SURFACE('',#770,0.0135);
#687=CYLINDRICAL_SURFACE('',#773,0.0135);
#688=CYLINDRICAL_SURFACE('',#776,0.0135);
#689=CYLINDRICAL_SURFACE('',#779,0.0135);
#690=CYLINDRICAL_SURFACE('',#782,0.0135);
#691=CYLINDRICAL_SURFACE('',#785,0.0135);
#692=CYLINDRICAL_SURFACE('',#788,0.0135);
#693=CYLINDRICAL_SURFACE('',#791,0.0135);
#694=CYLINDRICAL_SURFACE('',#794,0.0135);
#695=CYLINDRICAL_SURFACE('',#797,0.0135);
#696=CYLINDRICAL_SURFACE('',#800,0.0135);
#697=CYLINDRICAL_SURFACE('',#803,0.0135);
#698=CYLINDRICAL_SURFACE('',#806,0.0135);
#699=CYLINDRICAL_SURFACE('',#809,0.0135);
#700=CYLINDRICAL_SURFACE('',#812,0.0135);
#701=CYLINDRICAL_SURFACE('',#815,0.0135);
#702=CYLINDRICAL_SURFACE('',#818,0.0175);
#703=CYLINDRICAL_SURFACE('',#866,0.0135);
#704=CYLINDRICAL_SURFACE('',#867,0.0016);
#705=CYLINDRICAL_SURFACE('',#868,0.0016);
#706=CYLINDRICAL_SURFACE('',#869,0.0016);
#707=CYLINDRICAL_SURFACE('',#870,0.0016);
#708=CYLINDRICAL_SURFACE('',#871,0.0016);
#709=CYLINDRICAL_SURFACE('',#872,0.0016);
#710=CYLINDRICAL_SURFACE('',#873,0.0016);
#711=CYLINDRICAL_SURFACE('',#874,0.0016);
#712=CYLINDRICAL_SURFACE('',#875,0.0016);
#713=CYLINDRICAL_SURFACE('',#876,0.0016);
#714=CYLINDRICAL_SURFACE('',#877,0.0016);
#715=CYLINDRICAL_SURFACE('',#878,0.0016);
#716=CYLINDRICAL_SURFACE('',#879,0.0016);
#717=CYLINDRICAL_SURFACE('',#880,0.0016);
#718=CYLINDRICAL_SURFACE('',#881,0.0016);
#719=CYLINDRICAL_SURFACE('',#882,0.0016);
#720=CYLINDRICAL_SURFACE('',#883,0.0016);
#721=CYLINDRICAL_SURFACE('',#884,0.0005);
#722=CYLINDRICAL_SURFACE('',#885,0.0005);
#723=CYLINDRICAL_SURFACE('',#886,0.0005);
#724=ADVANCED_FACE('',(#632),#686,.F.);
#725=ADVANCED_FACE('',(#633),#687,.F.);
#726=ADVANCED_FACE('',(#634),#688,.F.);
#727=ADVANCED_FACE('',(#635),#689,.F.);
#728=ADVANCED_FACE('',(#636),#690,.F.);
#729=ADVANCED_FACE('',(#637),#691,.F.);
#730=ADVANCED_FACE('',(#638),#692,.F.);
#731=ADVANCED_FACE('',(#639),#693,.F.);
#732=ADVANCED_FACE('',(#640),#694,.F.);
#733=ADVANCED_FACE('',(#641),#695,.F.);
#734=ADVANCED_FACE('',(#642),#696,.F.);
#735=ADVANCED_FACE('',(#643),#697,.F.);
#736=ADVANCED_FACE('',(#644),#698,.F.);
#737=ADVANCED_FACE('',(#645),#699,.F.);
#738=ADVANCED_FACE('',(#646),#700,.F.);
#739=ADVANCED_FACE('',(#647),#701,.F.);
#740=ADVANCED_FACE('',(#648,#649),#702,.T.);
#741=ADVANCED_FACE('',(#650,#651,#652,#653,#654),#21,.T.);
#742=ADVANCED_FACE('',(#655,#656,#657,#658,#659),#22,.F.);
#743=ADVANCED_FACE('',(#660),#703,.F.);
#744=ADVANCED_FACE('',(#661),#704,.F.);
#745=ADVANCED_FACE('',(#662),#705,.F.);
#746=ADVANCED_FACE('',(#663),#706,.F.);
#747=ADVANCED_FACE('',(#664),#707,.F.);
#748=ADVANCED_FACE('',(#665),#708,.F.);
#749=ADVANCED_FACE('',(#666),#709,.F.);
#750=ADVANCED_FACE('',(#667),#710,.F.);
#751=ADVANCED_FACE('',(#668),#711,.F.);
#752=ADVANCED_FACE('',(#669),#712,.F.);
#753=ADVANCED_FACE('',(#670),#713,.F.);
#754=ADVANCED_FACE('',(#671),#714,.F.);
#755=ADVANCED_FACE('',(#672),#715,.F.);
#756=ADVANCED_FACE('',(#673),#716,.F.);
#757=ADVANCED_FACE('',(#674),#717,.F.);
#758=ADVANCED_FACE('',(#675),#718,.F.);
#759=ADVANCED_FACE('',(#676),#719,.F.);
#760=ADVANCED_FACE('',(#677),#720,.F.);
#761=ADVANCED_FACE('',(#678,#679),#721,.F.);
#762=ADVANCED_FACE('',(#680,#681),#722,.F.);
#763=ADVANCED_FACE('',(#682,#683),#723,.F.);
#764=ADVANCED_FACE('',(#684,#685),#20,.T.);
#765=CLOSED_SHELL('',(#724,#725,#726,#727,#728,#729,#730,#731,#732,#733,
#734,#735,#736,#737,#738,#739,#740,#741,#742,#743,#744,#745,#746,#747,#748,
#749,#750,#751,#752,#753,#754,#755,#756,#757,#758,#759,#760,#761,#762,#763,
#764));
#766=MANIFOLD_SOLID_BREP('',#765);
#767=SHAPE_DEFINITION_REPRESENTATION(#1395,#768);
#768=SHAPE_REPRESENTATION('id2',(#769),#1390);
#769=AXIS2_PLACEMENT_3D('',#1160,#888,#889);
#770=AXIS2_PLACEMENT_3D('',#1161,#890,#891);
#771=AXIS2_PLACEMENT_3D('',#1162,#892,#893);
#772=AXIS2_PLACEMENT_3D('',#1167,#895,#896);
#773=AXIS2_PLACEMENT_3D('',#1170,#898,#899);
#774=AXIS2_PLACEMENT_3D('',#1171,#900,#901);
#775=AXIS2_PLACEMENT_3D('',#1176,#903,#904);
#776=AXIS2_PLACEMENT_3D('',#1179,#906,#907);
#777=AXIS2_PLACEMENT_3D('',#1180,#908,#909);
#778=AXIS2_PLACEMENT_3D('',#1185,#911,#912);
#779=AXIS2_PLACEMENT_3D('',#1188,#914,#915);
#780=AXIS2_PLACEMENT_3D('',#1189,#916,#917);
#781=AXIS2_PLACEMENT_3D('',#1194,#919,#920);
#782=AXIS2_PLACEMENT_3D('',#1197,#922,#923);
#783=AXIS2_PLACEMENT_3D('',#1198,#924,#925);
#784=AXIS2_PLACEMENT_3D('',#1203,#927,#928);
#785=AXIS2_PLACEMENT_3D('',#1206,#930,#931);
#786=AXIS2_PLACEMENT_3D('',#1207,#932,#933);
#787=AXIS2_PLACEMENT_3D('',#1212,#935,#936);
#788=AXIS2_PLACEMENT_3D('',#1215,#938,#939);
#789=AXIS2_PLACEMENT_3D('',#1216,#940,#941);
#790=AXIS2_PLACEMENT_3D('',#1221,#943,#944);
#791=AXIS2_PLACEMENT_3D('',#1224,#946,#947);
#792=AXIS2_PLACEMENT_3D('',#1225,#948,#949);
#793=AXIS2_PLACEMENT_3D('',#1230,#951,#952);
#794=AXIS2_PLACEMENT_3D('',#1233,#954,#955);
#795=AXIS2_PLACEMENT_3D('',#1234,#956,#957);
#796=AXIS2_PLACEMENT_3D('',#1239,#959,#960);
#797=AXIS2_PLACEMENT_3D('',#1242,#962,#963);
#798=AXIS2_PLACEMENT_3D('',#1243,#964,#965);
#799=AXIS2_PLACEMENT_3D('',#1248,#967,#968);
#800=AXIS2_PLACEMENT_3D('',#1251,#970,#971);
#801=AXIS2_PLACEMENT_3D('',#1252,#972,#973);
#802=AXIS2_PLACEMENT_3D('',#1257,#975,#976);
#803=AXIS2_PLACEMENT_3D('',#1260,#978,#979);
#804=AXIS2_PLACEMENT_3D('',#1261,#980,#981);
#805=AXIS2_PLACEMENT_3D('',#1266,#983,#984);
#806=AXIS2_PLACEMENT_3D('',#1269,#986,#987);
#807=AXIS2_PLACEMENT_3D('',#1270,#988,#989);
#808=AXIS2_PLACEMENT_3D('',#1275,#991,#992);
#809=AXIS2_PLACEMENT_3D('',#1278,#994,#995);
#810=AXIS2_PLACEMENT_3D('',#1279,#996,#997);
#811=AXIS2_PLACEMENT_3D('',#1284,#999,#1000);
#812=AXIS2_PLACEMENT_3D('',#1287,#1002,#1003);
#813=AXIS2_PLACEMENT_3D('',#1288,#1004,#1005);
#814=AXIS2_PLACEMENT_3D('',#1293,#1007,#1008);
#815=AXIS2_PLACEMENT_3D('',#1296,#1010,#1011);
#816=AXIS2_PLACEMENT_3D('',#1297,#1012,#1013);
#817=AXIS2_PLACEMENT_3D('',#1302,#1015,#1016);
#818=AXIS2_PLACEMENT_3D('',#1305,#1018,#1019);
#819=AXIS2_PLACEMENT_3D('',#1306,#1020,#1021);
#820=AXIS2_PLACEMENT_3D('',#1308,#1022,#1023);
#821=AXIS2_PLACEMENT_3D('',#1310,#1024,#1025);
#822=AXIS2_PLACEMENT_3D('',#1311,#1026,#1027);
#823=AXIS2_PLACEMENT_3D('',#1313,#1028,#1029);
#824=AXIS2_PLACEMENT_3D('',#1315,#1030,#1031);
#825=AXIS2_PLACEMENT_3D('',#1317,#1032,#1033);
#826=AXIS2_PLACEMENT_3D('',#1318,#1034,#1035);
#827=AXIS2_PLACEMENT_3D('',#1319,#1036,#1037);
#828=AXIS2_PLACEMENT_3D('',#1320,#1038,#1039);
#829=AXIS2_PLACEMENT_3D('',#1321,#1040,#1041);
#830=AXIS2_PLACEMENT_3D('',#1322,#1042,#1043);
#831=AXIS2_PLACEMENT_3D('',#1324,#1044,#1045);
#832=AXIS2_PLACEMENT_3D('',#1326,#1046,#1047);
#833=AXIS2_PLACEMENT_3D('',#1327,#1048,#1049);
#834=AXIS2_PLACEMENT_3D('',#1328,#1050,#1051);
#835=AXIS2_PLACEMENT_3D('',#1329,#1052,#1053);
#836=AXIS2_PLACEMENT_3D('',#1330,#1054,#1055);
#837=AXIS2_PLACEMENT_3D('',#1331,#1056,#1057);
#838=AXIS2_PLACEMENT_3D('',#1332,#1058,#1059);
#839=AXIS2_PLACEMENT_3D('',#1333,#1060,#1061);
#840=AXIS2_PLACEMENT_3D('',#1334,#1062,#1063);
#841=AXIS2_PLACEMENT_3D('',#1335,#1064,#1065);
#842=AXIS2_PLACEMENT_3D('',#1336,#1066,#1067);
#843=AXIS2_PLACEMENT_3D('',#1337,#1068,#1069);
#844=AXIS2_PLACEMENT_3D('',#1338,#1070,#1071);
#845=AXIS2_PLACEMENT_3D('',#1340,#1072,#1073);
#846=AXIS2_PLACEMENT_3D('',#1342,#1074,#1075);
#847=AXIS2_PLACEMENT_3D('',#1344,#1076,#1077);
#848=AXIS2_PLACEMENT_3D('',#1346,#1078,#1079);
#849=AXIS2_PLACEMENT_3D('',#1347,#1080,#1081);
#850=AXIS2_PLACEMENT_3D('',#1348,#1082,#1083);
#851=AXIS2_PLACEMENT_3D('',#1349,#1084,#1085);
#852=AXIS2_PLACEMENT_3D('',#1350,#1086,#1087);
#853=AXIS2_PLACEMENT_3D('',#1351,#1088,#1089);
#854=AXIS2_PLACEMENT_3D('',#1352,#1090,#1091);
#855=AXIS2_PLACEMENT_3D('',#1353,#1092,#1093);
#856=AXIS2_PLACEMENT_3D('',#1354,#1094,#1095);
#857=AXIS2_PLACEMENT_3D('',#1355,#1096,#1097);
#858=AXIS2_PLACEMENT_3D('',#1356,#1098,#1099);
#859=AXIS2_PLACEMENT_3D('',#1357,#1100,#1101);
#860=AXIS2_PLACEMENT_3D('',#1359,#1102,#1103);
#861=AXIS2_PLACEMENT_3D('',#1361,#1104,#1105);
#862=AXIS2_PLACEMENT_3D('',#1362,#1106,#1107);
#863=AXIS2_PLACEMENT_3D('',#1363,#1108,#1109);
#864=AXIS2_PLACEMENT_3D('',#1364,#1110,#1111);
#865=AXIS2_PLACEMENT_3D('',#1365,#1112,#1113);
#866=AXIS2_PLACEMENT_3D('',#1366,#1114,#1115);
#867=AXIS2_PLACEMENT_3D('',#1369,#1118,#1119);
#868=AXIS2_PLACEMENT_3D('',#1370,#1120,#1121);
#869=AXIS2_PLACEMENT_3D('',#1371,#1122,#1123);
#870=AXIS2_PLACEMENT_3D('',#1372,#1124,#1125);
#871=AXIS2_PLACEMENT_3D('',#1373,#1126,#1127);
#872=AXIS2_PLACEMENT_3D('',#1374,#1128,#1129);
#873=AXIS2_PLACEMENT_3D('',#1375,#1130,#1131);
#874=AXIS2_PLACEMENT_3D('',#1376,#1132,#1133);
#875=AXIS2_PLACEMENT_3D('',#1377,#1134,#1135);
#876=AXIS2_PLACEMENT_3D('',#1378,#1136,#1137);
#877=AXIS2_PLACEMENT_3D('',#1379,#1138,#1139);
#878=AXIS2_PLACEMENT_3D('',#1380,#1140,#1141);
#879=AXIS2_PLACEMENT_3D('',#1381,#1142,#1143);
#880=AXIS2_PLACEMENT_3D('',#1382,#1144,#1145);
#881=AXIS2_PLACEMENT_3D('',#1383,#1146,#1147);
#882=AXIS2_PLACEMENT_3D('',#1384,#1148,#1149);
#883=AXIS2_PLACEMENT_3D('',#1385,#1150,#1151);
#884=AXIS2_PLACEMENT_3D('',#1386,#1152,#1153);
#885=AXIS2_PLACEMENT_3D('',#1387,#1154,#1155);
#886=AXIS2_PLACEMENT_3D('',#1388,#1156,#1157);
#887=AXIS2_PLACEMENT_3D('',#1389,#1158,#1159);
#888=DIRECTION('',(0.,0.,1.));
#889=DIRECTION('',(1.,0.,0.));
#890=DIRECTION('',(0.,1.,0.));
#891=DIRECTION('',(0.,0.,1.));
#892=DIRECTION('',(0.,1.,0.));
#893=DIRECTION('',(0.,0.,1.));
#894=DIRECTION('',(0.,1.,0.));
#895=DIRECTION('',(0.,1.,0.));
#896=DIRECTION('',(0.,0.,1.));
#897=DIRECTION('',(0.,1.,0.));
#898=DIRECTION('',(0.,1.,0.));
#899=DIRECTION('',(0.,0.,1.));
#900=DIRECTION('',(0.,1.,0.));
#901=DIRECTION('',(0.,0.,1.));
#902=DIRECTION('',(0.,1.,0.));
#903=DIRECTION('',(0.,1.,0.));
#904=DIRECTION('',(0.,0.,1.));
#905=DIRECTION('',(0.,1.,0.));
#906=DIRECTION('',(0.,1.,0.));
#907=DIRECTION('',(0.,0.,1.));
#908=DIRECTION('',(0.,1.,0.));
#909=DIRECTION('',(0.,0.,1.));
#910=DIRECTION('',(0.,1.,0.));
#911=DIRECTION('',(0.,1.,0.));
#912=DIRECTION('',(0.,0.,1.));
#913=DIRECTION('',(0.,1.,0.));
#914=DIRECTION('',(0.,1.,0.));
#915=DIRECTION('',(0.,0.,1.));
#916=DIRECTION('',(0.,1.,0.));
#917=DIRECTION('',(0.,0.,1.));
#918=DIRECTION('',(0.,1.,0.));
#919=DIRECTION('',(0.,1.,0.));
#920=DIRECTION('',(0.,0.,1.));
#921=DIRECTION('',(0.,1.,0.));
#922=DIRECTION('',(0.,1.,0.));
#923=DIRECTION('',(0.,0.,1.));
#924=DIRECTION('',(0.,1.,0.));
#925=DIRECTION('',(0.,0.,1.));
#926=DIRECTION('',(0.,1.,0.));
#927=DIRECTION('',(0.,1.,0.));
#928=DIRECTION('',(0.,0.,1.));
#929=DIRECTION('',(0.,1.,0.));
#930=DIRECTION('',(0.,1.,0.));
#931=DIRECTION('',(0.,0.,1.));
#932=DIRECTION('',(0.,1.,0.));
#933=DIRECTION('',(0.,0.,1.));
#934=DIRECTION('',(0.,1.,0.));
#935=DIRECTION('',(0.,1.,0.));
#936=DIRECTION('',(0.,0.,1.));
#937=DIRECTION('',(0.,1.,0.));
#938=DIRECTION('',(0.,1.,0.));
#939=DIRECTION('',(0.,0.,1.));
#940=DIRECTION('',(0.,1.,0.));
#941=DIRECTION('',(0.,0.,1.));
#942=DIRECTION('',(0.,1.,0.));
#943=DIRECTION('',(0.,1.,0.));
#944=DIRECTION('',(0.,0.,1.));
#945=DIRECTION('',(0.,1.,0.));
#946=DIRECTION('',(0.,1.,0.));
#947=DIRECTION('',(0.,0.,1.));
#948=DIRECTION('',(0.,1.,0.));
#949=DIRECTION('',(0.,0.,1.));
#950=DIRECTION('',(0.,1.,0.));
#951=DIRECTION('',(0.,1.,0.));
#952=DIRECTION('',(0.,0.,1.));
#953=DIRECTION('',(0.,1.,0.));
#954=DIRECTION('',(0.,1.,0.));
#955=DIRECTION('',(0.,0.,1.));
#956=DIRECTION('',(0.,1.,0.));
#957=DIRECTION('',(0.,0.,1.));
#958=DIRECTION('',(0.,1.,0.));
#959=DIRECTION('',(0.,1.,0.));
#960=DIRECTION('',(0.,0.,1.));
#961=DIRECTION('',(0.,1.,0.));
#962=DIRECTION('',(0.,1.,0.));
#963=DIRECTION('',(0.,0.,1.));
#964=DIRECTION('',(0.,1.,0.));
#965=DIRECTION('',(0.,0.,1.));
#966=DIRECTION('',(0.,1.,0.));
#967=DIRECTION('',(0.,1.,0.));
#968=DIRECTION('',(0.,0.,1.));
#969=DIRECTION('',(0.,1.,0.));
#970=DIRECTION('',(0.,1.,0.));
#971=DIRECTION('',(0.,0.,1.));
#972=DIRECTION('',(0.,1.,0.));
#973=DIRECTION('',(0.,0.,1.));
#974=DIRECTION('',(0.,1.,0.));
#975=DIRECTION('',(0.,1.,0.));
#976=DIRECTION('',(0.,0.,1.));
#977=DIRECTION('',(0.,1.,0.));
#978=DIRECTION('',(0.,1.,0.));
#979=DIRECTION('',(0.,0.,1.));
#980=DIRECTION('',(0.,1.,0.));
#981=DIRECTION('',(0.,0.,1.));
#982=DIRECTION('',(0.,1.,0.));
#983=DIRECTION('',(0.,1.,0.));
#984=DIRECTION('',(0.,0.,1.));
#985=DIRECTION('',(0.,1.,0.));
#986=DIRECTION('',(0.,1.,0.));
#987=DIRECTION('',(0.,0.,1.));
#988=DIRECTION('',(0.,1.,0.));
#989=DIRECTION('',(0.,0.,1.));
#990=DIRECTION('',(0.,1.,0.));
#991=DIRECTION('',(0.,1.,0.));
#992=DIRECTION('',(0.,0.,1.));
#993=DIRECTION('',(0.,1.,0.));
#994=DIRECTION('',(0.,1.,0.));
#995=DIRECTION('',(0.,0.,1.));
#996=DIRECTION('',(0.,1.,0.));
#997=DIRECTION('',(0.,0.,1.));
#998=DIRECTION('',(0.,1.,0.));
#999=DIRECTION('',(0.,1.,0.));
#1000=DIRECTION('',(0.,0.,1.));
#1001=DIRECTION('',(0.,1.,0.));
#1002=DIRECTION('',(0.,1.,0.));
#1003=DIRECTION('',(0.,0.,1.));
#1004=DIRECTION('',(0.,1.,0.));
#1005=DIRECTION('',(0.,0.,1.));
#1006=DIRECTION('',(0.,1.,0.));
#1007=DIRECTION('',(0.,1.,0.));
#1008=DIRECTION('',(0.,0.,1.));
#1009=DIRECTION('',(0.,1.,0.));
#1010=DIRECTION('',(0.,1.,0.));
#1011=DIRECTION('',(0.,0.,1.));
#1012=DIRECTION('',(0.,1.,0.));
#1013=DIRECTION('',(0.,0.,1.));
#1014=DIRECTION('',(0.,1.,0.));
#1015=DIRECTION('',(0.,1.,0.));
#1016=DIRECTION('',(0.,0.,1.));
#1017=DIRECTION('',(0.,1.,0.));
#1018=DIRECTION('',(0.,-1.,0.));
#1019=DIRECTION('',(0.,0.,-1.));
#1020=DIRECTION('',(0.,1.,0.));
#1021=DIRECTION('',(0.,0.,1.));
#1022=DIRECTION('',(0.,1.,0.));
#1023=DIRECTION('',(0.,0.,1.));
#1024=DIRECTION('',(0.,1.,0.));
#1025=DIRECTION('',(0.,0.,1.));
#1026=DIRECTION('',(0.,1.,0.));
#1027=DIRECTION('',(0.,0.,1.));
#1028=DIRECTION('',(0.,1.,0.));
#1029=DIRECTION('',(0.,0.,1.));
#1030=DIRECTION('',(0.,1.,0.));
#1031=DIRECTION('',(0.,0.,1.));
#1032=DIRECTION('',(0.,1.,0.));
#1033=DIRECTION('',(0.342020143325676,0.,-0.939692620785906));
#1034=DIRECTION('',(0.,1.,0.));
#1035=DIRECTION('',(0.984807753012207,0.,-0.173648177666934));
#1036=DIRECTION('',(0.,1.,0.));
#1037=DIRECTION('',(0.984807753012209,0.,0.173648177666927));
#1038=DIRECTION('',(0.,1.,0.));
#1039=DIRECTION('',(0.86602540378444,0.,0.5));
#1040=DIRECTION('',(0.,1.,0.));
#1041=DIRECTION('',(0.64278760968654,0.,0.766044443118977));
#1042=DIRECTION('',(0.,1.,0.));
#1043=DIRECTION('',(0.342020143325669,0.,0.939692620785908));
#1044=DIRECTION('',(0.,1.,0.));
#1045=DIRECTION('',(0.,0.,1.));
#1046=DIRECTION('',(0.,1.,0.));
#1047=DIRECTION('',(0.,0.,1.));
#1048=DIRECTION('',(0.,1.,0.));
#1049=DIRECTION('',(0.,0.,1.));
#1050=DIRECTION('',(0.,1.,0.));
#1051=DIRECTION('',(-0.342020143325669,0.,0.939692620785908));
#1052=DIRECTION('',(0.,1.,0.));
#1053=DIRECTION('',(-0.64278760968654,0.,0.766044443118977));
#1054=DIRECTION('',(0.,1.,0.));
#1055=DIRECTION('',(-0.86602540378444,0.,0.5));
#1056=DIRECTION('',(0.,1.,0.));
#1057=DIRECTION('',(-0.984807753012209,0.,0.173648177666927));
#1058=DIRECTION('',(0.,1.,0.));
#1059=DIRECTION('',(-0.984807753012207,0.,-0.173648177666934));
#1060=DIRECTION('',(0.,1.,0.));
#1061=DIRECTION('',(-0.866025403784436,0.,-0.5));
#1062=DIRECTION('',(0.,1.,0.));
#1063=DIRECTION('',(-0.642787609686535,0.,-0.766044443118981));
#1064=DIRECTION('',(0.,1.,0.));
#1065=DIRECTION('',(-0.342020143325663,0.,-0.93969262078591));
#1066=DIRECTION('',(0.,1.,0.));
#1067=DIRECTION('',(0.,0.,-1.));
#1068=DIRECTION('',(0.,1.,0.));
#1069=DIRECTION('',(0.,0.,1.));
#1070=DIRECTION('',(0.,1.,0.));
#1071=DIRECTION('',(0.,0.,1.));
#1072=DIRECTION('',(0.,1.,0.));
#1073=DIRECTION('',(0.,0.,1.));
#1074=DIRECTION('',(0.,1.,0.));
#1075=DIRECTION('',(0.,0.,1.));
#1076=DIRECTION('',(0.,1.,0.));
#1077=DIRECTION('',(0.,0.,1.));
#1078=DIRECTION('',(0.,1.,0.));
#1079=DIRECTION('',(0.,0.,1.));
#1080=DIRECTION('',(0.,1.,0.));
#1081=DIRECTION('',(0.,0.,1.));
#1082=DIRECTION('',(0.,1.,0.));
#1083=DIRECTION('',(0.,0.,1.));
#1084=DIRECTION('',(0.,1.,0.));
#1085=DIRECTION('',(0.,0.,1.));
#1086=DIRECTION('',(0.,1.,0.));
#1087=DIRECTION('',(0.,0.,1.));
#1088=DIRECTION('',(0.,1.,0.));
#1089=DIRECTION('',(0.,0.,1.));
#1090=DIRECTION('',(0.,1.,0.));
#1091=DIRECTION('',(0.,0.,1.));
#1092=DIRECTION('',(0.,1.,0.));
#1093=DIRECTION('',(0.,0.,1.));
#1094=DIRECTION('',(0.,1.,0.));
#1095=DIRECTION('',(0.,0.,1.));
#1096=DIRECTION('',(0.,1.,0.));
#1097=DIRECTION('',(0.,0.,1.));
#1098=DIRECTION('',(0.,1.,0.));
#1099=DIRECTION('',(0.,0.,1.));
#1100=DIRECTION('',(0.,1.,0.));
#1101=DIRECTION('',(0.,0.,1.));
#1102=DIRECTION('',(0.,1.,0.));
#1103=DIRECTION('',(0.,0.,1.));
#1104=DIRECTION('',(0.,1.,0.));
#1105=DIRECTION('',(0.,0.,1.));
#1106=DIRECTION('',(0.,1.,0.));
#1107=DIRECTION('',(0.,0.,1.));
#1108=DIRECTION('',(0.,1.,0.));
#1109=DIRECTION('',(0.,0.,1.));
#1110=DIRECTION('',(0.,1.,0.));
#1111=DIRECTION('',(0.,0.,1.));
#1112=DIRECTION('',(0.,1.,0.));
#1113=DIRECTION('',(0.,0.,1.));
#1114=DIRECTION('',(0.,1.,0.));
#1115=DIRECTION('',(0.,0.,1.));
#1116=DIRECTION('',(0.,1.,0.));
#1117=DIRECTION('',(0.,1.,0.));
#1118=DIRECTION('',(0.,1.,0.));
#1119=DIRECTION('',(0.,0.,1.));
#1120=DIRECTION('',(0.,1.,0.));
#1121=DIRECTION('',(0.,0.,1.));
#1122=DIRECTION('',(0.,1.,0.));
#1123=DIRECTION('',(0.,0.,1.));
#1124=DIRECTION('',(0.,1.,0.));
#1125=DIRECTION('',(0.,0.,1.));
#1126=DIRECTION('',(0.,1.,0.));
#1127=DIRECTION('',(0.,0.,1.));
#1128=DIRECTION('',(0.,1.,0.));
#1129=DIRECTION('',(0.,0.,1.));
#1130=DIRECTION('',(0.,1.,0.));
#1131=DIRECTION('',(0.,0.,1.));
#1132=DIRECTION('',(0.,1.,0.));
#1133=DIRECTION('',(0.,0.,1.));
#1134=DIRECTION('',(0.,1.,0.));
#1135=DIRECTION('',(0.,0.,1.));
#1136=DIRECTION('',(0.,1.,0.));
#1137=DIRECTION('',(0.,0.,1.));
#1138=DIRECTION('',(0.,1.,0.));
#1139=DIRECTION('',(0.,0.,1.));
#1140=DIRECTION('',(0.,1.,0.));
#1141=DIRECTION('',(0.,0.,1.));
#1142=DIRECTION('',(0.,1.,0.));
#1143=DIRECTION('',(0.,0.,1.));
#1144=DIRECTION('',(0.,1.,0.));
#1145=DIRECTION('',(0.,0.,1.));
#1146=DIRECTION('',(0.,1.,0.));
#1147=DIRECTION('',(0.,0.,1.));
#1148=DIRECTION('',(0.,1.,0.));
#1149=DIRECTION('',(0.,0.,1.));
#1150=DIRECTION('',(0.,1.,0.));
#1151=DIRECTION('',(0.,0.,1.));
#1152=DIRECTION('',(0.,1.,0.));
#1153=DIRECTION('',(0.,0.,1.));
#1154=DIRECTION('',(0.,1.,0.));
#1155=DIRECTION('',(0.,0.,1.));
#1156=DIRECTION('',(0.,1.,0.));
#1157=DIRECTION('',(0.,0.,1.));
#1158=DIRECTION('',(0.,1.,0.));
#1159=DIRECTION('',(0.,0.,1.));
#1160=CARTESIAN_POINT('',(0.,0.,0.));
#1161=CARTESIAN_POINT('',(0.,-1.00000000000002E-6,0.));
#1162=CARTESIAN_POINT('',(0.,0.,0.));
#1163=CARTESIAN_POINT('',(-0.0134051851851852,0.,-0.00159718820146269));
#1164=CARTESIAN_POINT('',(-0.0131430241363694,0.,-0.00308397739142346));
#1165=CARTESIAN_POINT('',(-0.0131430241363694,0.0003,-0.00308397739142346));
#1166=CARTESIAN_POINT('',(-0.0131430241363694,0.0006,-0.00308397739142346));
#1167=CARTESIAN_POINT('',(0.,0.0006,0.));
#1168=CARTESIAN_POINT('',(-0.0134051851851852,0.0006,-0.0015971882014627));
#1169=CARTESIAN_POINT('',(-0.0134051851851852,0.0003,-0.0015971882014627));
#1170=CARTESIAN_POINT('',(0.,-1.00000000000002E-6,0.));
#1171=CARTESIAN_POINT('',(0.,0.,0.));
#1172=CARTESIAN_POINT('',(-0.0131430241363695,0.,0.00308397739142328));
#1173=CARTESIAN_POINT('',(-0.0134051851851852,0.,0.00159718820146269));
#1174=CARTESIAN_POINT('',(-0.0134051851851852,0.0003,0.0015971882014627));
#1175=CARTESIAN_POINT('',(-0.0134051851851852,0.0006,0.0015971882014627));
#1176=CARTESIAN_POINT('',(0.,0.0006,0.));
#1177=CARTESIAN_POINT('',(-0.0131430241363695,0.0006,0.00308397739142328));
#1178=CARTESIAN_POINT('',(-0.0131430241363695,0.0003,0.00308397739142328));
#1179=CARTESIAN_POINT('',(0.,-1.00000000000002E-6,0.));
#1180=CARTESIAN_POINT('',(0.,0.,0.));
#1181=CARTESIAN_POINT('',(-0.0112956204063297,0.,0.00739316979624485));
#1182=CARTESIAN_POINT('',(-0.0120504830612048,0.,0.0060857093252649));
#1183=CARTESIAN_POINT('',(-0.0120504830612048,0.0003,0.00608570932526491));
#1184=CARTESIAN_POINT('',(-0.0120504830612048,0.0006,0.00608570932526491));
#1185=CARTESIAN_POINT('',(0.,0.0006,0.));
#1186=CARTESIAN_POINT('',(-0.0112956204063297,0.0006,0.00739316979624484));
#1187=CARTESIAN_POINT('',(-0.0112956204063297,0.0003,0.00739316979624484));
#1188=CARTESIAN_POINT('',(0.,-1.00000000000002E-6,0.));
#1189=CARTESIAN_POINT('',(0.,0.,0.));
#1190=CARTESIAN_POINT('',(-0.00808579814968411,0.,0.0108106368120738));
#1191=CARTESIAN_POINT('',(-0.00924231483385427,0.,0.00984020408893624));
#1192=CARTESIAN_POINT('',(-0.00924231483385426,0.0003,0.00984020408893624));
#1193=CARTESIAN_POINT('',(-0.00924231483385426,0.0006,0.00984020408893624));
#1194=CARTESIAN_POINT('',(0.,0.0006,0.));
#1195=CARTESIAN_POINT('',(-0.00808579814968412,0.0006,0.0108106368120738));
#1196=CARTESIAN_POINT('',(-0.00808579814968411,0.0003,0.0108106368120738));
#1197=CARTESIAN_POINT('',(0.,-1.00000000000002E-6,0.));
#1198=CARTESIAN_POINT('',(0.,0.,0.));
#1199=CARTESIAN_POINT('',(-0.00390070930251527,0.,0.0129241814803596));
#1200=CARTESIAN_POINT('',(-0.00531938703550118,0.,0.0124078250135365));
#1201=CARTESIAN_POINT('',(-0.00531938703550118,0.0003,0.0124078250135365));
#1202=CARTESIAN_POINT('',(-0.00531938703550118,0.0006,0.0124078250135365));
#1203=CARTESIAN_POINT('',(0.,0.0006,0.));
#1204=CARTESIAN_POINT('',(-0.00390070930251527,0.0006,0.0129241814803596));
#1205=CARTESIAN_POINT('',(-0.00390070930251527,0.0003,0.0129241814803596));
#1206=CARTESIAN_POINT('',(0.,-1.00000000000002E-6,0.));
#1207=CARTESIAN_POINT('',(0.,0.,0.));
#1208=CARTESIAN_POINT('',(0.000754862654875016,0.,0.0134788791215099));
#1209=CARTESIAN_POINT('',(-0.000754862654875107,0.,0.0134788791215099));
#1210=CARTESIAN_POINT('',(-0.000754862654875103,0.0003,0.0134788791215099));
#1211=CARTESIAN_POINT('',(-0.000754862654875103,0.0006,0.0134788791215099));
#1212=CARTESIAN_POINT('',(0.,0.0006,0.));
#1213=CARTESIAN_POINT('',(0.000754862654875012,0.0006,0.0134788791215099));
#1214=CARTESIAN_POINT('',(0.000754862654875012,0.0003,0.0134788791215099));
#1215=CARTESIAN_POINT('',(0.,-1.00000000000002E-6,0.));
#1216=CARTESIAN_POINT('',(0.,0.,0.));
#1217=CARTESIAN_POINT('',(0.0053193870355011,0.,0.0124078250135365));
#1218=CARTESIAN_POINT('',(0.00390070930251518,0.,0.0129241814803597));
#1219=CARTESIAN_POINT('',(0.00390070930251519,0.0003,0.0129241814803597));
#1220=CARTESIAN_POINT('',(0.00390070930251519,0.0006,0.0129241814803597));
#1221=CARTESIAN_POINT('',(0.,0.0006,0.));
#1222=CARTESIAN_POINT('',(0.00531938703550109,0.0006,0.0124078250135365));
#1223=CARTESIAN_POINT('',(0.00531938703550109,0.0003,0.0124078250135365));
#1224=CARTESIAN_POINT('',(0.,-1.00000000000002E-6,0.));
#1225=CARTESIAN_POINT('',(0.,0.,0.));
#1226=CARTESIAN_POINT('',(0.0092423148338542,0.,0.0098402040889363));
#1227=CARTESIAN_POINT('',(0.00808579814968404,0.,0.0108106368120738));
#1228=CARTESIAN_POINT('',(0.00808579814968404,0.0003,0.0108106368120738));
#1229=CARTESIAN_POINT('',(0.00808579814968404,0.0006,0.0108106368120738));
#1230=CARTESIAN_POINT('',(0.,0.0006,0.));
#1231=CARTESIAN_POINT('',(0.0092423148338542,0.0006,0.0098402040889363));
#1232=CARTESIAN_POINT('',(0.0092423148338542,0.0003,0.0098402040889363));
#1233=CARTESIAN_POINT('',(0.,-1.00000000000002E-6,0.));
#1234=CARTESIAN_POINT('',(0.,0.,0.));
#1235=CARTESIAN_POINT('',(0.0120504830612048,0.,0.00608570932526498));
#1236=CARTESIAN_POINT('',(0.0112956204063297,0.,0.00739316979624492));
#1237=CARTESIAN_POINT('',(0.0112956204063297,0.0003,0.00739316979624492));
#1238=CARTESIAN_POINT('',(0.0112956204063297,0.0006,0.00739316979624492));
#1239=CARTESIAN_POINT('',(0.,0.0006,0.));
#1240=CARTESIAN_POINT('',(0.0120504830612048,0.0006,0.00608570932526499));
#1241=CARTESIAN_POINT('',(0.0120504830612048,0.0003,0.00608570932526499));
#1242=CARTESIAN_POINT('',(0.,-1.00000000000002E-6,0.));
#1243=CARTESIAN_POINT('',(0.,0.,0.));
#1244=CARTESIAN_POINT('',(0.0134051851851852,0.,0.00159718820146269));
#1245=CARTESIAN_POINT('',(0.0131430241363694,0.,0.00308397739142337));
#1246=CARTESIAN_POINT('',(0.0131430241363694,0.0003,0.00308397739142337));
#1247=CARTESIAN_POINT('',(0.0131430241363694,0.0006,0.00308397739142337));
#1248=CARTESIAN_POINT('',(0.,0.0006,0.));
#1249=CARTESIAN_POINT('',(0.0134051851851852,0.0006,0.0015971882014627));
#1250=CARTESIAN_POINT('',(0.0134051851851852,0.0003,0.0015971882014627));
#1251=CARTESIAN_POINT('',(0.,-1.00000000000002E-6,0.));
#1252=CARTESIAN_POINT('',(0.,0.,0.));
#1253=CARTESIAN_POINT('',(0.0124078250135365,0.,-0.00531938703550114));
#1254=CARTESIAN_POINT('',(0.0134051851851852,0.,-0.00159718820146269));
#1255=CARTESIAN_POINT('',(0.0134051851851852,0.0003,-0.0015971882014627));
#1256=CARTESIAN_POINT('',(0.0134051851851852,0.0006,-0.0015971882014627));
#1257=CARTESIAN_POINT('',(0.,0.0006,0.));
#1258=CARTESIAN_POINT('',(0.0124078250135365,0.0006,-0.00531938703550114));
#1259=CARTESIAN_POINT('',(0.0124078250135365,0.0003,-0.00531938703550114));
#1260=CARTESIAN_POINT('',(0.,-1.00000000000002E-6,0.));
#1261=CARTESIAN_POINT('',(0.,0.0006,0.));
#1262=CARTESIAN_POINT('',(-0.00984020408893633,0.0006,-0.00924231483385416));
#1263=CARTESIAN_POINT('',(-0.0120504830612047,0.0006,-0.00608570932526507));
#1264=CARTESIAN_POINT('',(-0.0120504830612047,0.0003,-0.00608570932526507));
#1265=CARTESIAN_POINT('',(-0.0120504830612047,0.,-0.00608570932526507));
#1266=CARTESIAN_POINT('',(0.,0.,0.));
#1267=CARTESIAN_POINT('',(-0.00984020408893633,0.,-0.00924231483385416));
#1268=CARTESIAN_POINT('',(-0.00984020408893633,0.0003,-0.00924231483385416));
#1269=CARTESIAN_POINT('',(0.,-1.00000000000002E-6,0.));
#1270=CARTESIAN_POINT('',(0.,0.0006,0.));
#1271=CARTESIAN_POINT('',(-0.00608570932526503,0.0006,-0.0120504830612047));
#1272=CARTESIAN_POINT('',(-0.00739316979624496,0.0006,-0.0112956204063297));
#1273=CARTESIAN_POINT('',(-0.00739316979624496,0.0003,-0.0112956204063297));
#1274=CARTESIAN_POINT('',(-0.00739316979624496,0.,-0.0112956204063297));
#1275=CARTESIAN_POINT('',(0.,0.,0.));
#1276=CARTESIAN_POINT('',(-0.00608570932526503,0.,-0.0120504830612047));
#1277=CARTESIAN_POINT('',(-0.00608570932526503,0.0003,-0.0120504830612047));
#1278=CARTESIAN_POINT('',(0.,-1.00000000000002E-6,0.));
#1279=CARTESIAN_POINT('',(0.,0.0006,0.));
#1280=CARTESIAN_POINT('',(-0.00159718820146275,0.0006,-0.0134051851851852));
#1281=CARTESIAN_POINT('',(-0.00308397739142342,0.0006,-0.0131430241363694));
#1282=CARTESIAN_POINT('',(-0.00308397739142342,0.0003,-0.0131430241363694));
#1283=CARTESIAN_POINT('',(-0.00308397739142342,0.,-0.0131430241363694));
#1284=CARTESIAN_POINT('',(0.,0.,0.));
#1285=CARTESIAN_POINT('',(-0.00159718820146274,0.,-0.0134051851851852));
#1286=CARTESIAN_POINT('',(-0.00159718820146275,0.0003,-0.0134051851851852));
#1287=CARTESIAN_POINT('',(0.,-1.00000000000002E-6,0.));
#1288=CARTESIAN_POINT('',(0.,0.0006,0.));
#1289=CARTESIAN_POINT('',(0.00308397739142332,0.0006,-0.0131430241363694));
#1290=CARTESIAN_POINT('',(0.00159718820146264,0.0006,-0.0134051851851852));
#1291=CARTESIAN_POINT('',(0.00159718820146264,0.0003,-0.0134051851851852));
#1292=CARTESIAN_POINT('',(0.00159718820146264,0.,-0.0134051851851852));
#1293=CARTESIAN_POINT('',(0.,0.,0.));
#1294=CARTESIAN_POINT('',(0.00308397739142332,0.,-0.0131430241363694));
#1295=CARTESIAN_POINT('',(0.00308397739142332,0.0003,-0.0131430241363694));
#1296=CARTESIAN_POINT('',(0.,-1.00000000000002E-6,0.));
#1297=CARTESIAN_POINT('',(0.,0.0006,0.));
#1298=CARTESIAN_POINT('',(0.00739316979624488,0.0006,-0.0112956204063297));
#1299=CARTESIAN_POINT('',(0.00608570932526494,0.0006,-0.0120504830612048));
#1300=CARTESIAN_POINT('',(0.00608570932526494,0.0003,-0.0120504830612048));
#1301=CARTESIAN_POINT('',(0.00608570932526494,0.,-0.0120504830612048));
#1302=CARTESIAN_POINT('',(0.,0.,0.));
#1303=CARTESIAN_POINT('',(0.00739316979624487,0.,-0.0112956204063297));
#1304=CARTESIAN_POINT('',(0.00739316979624488,0.0003,-0.0112956204063297));
#1305=CARTESIAN_POINT('',(0.,0.0006,0.));
#1306=CARTESIAN_POINT('',(0.,0.000200000000000006,0.));
#1307=CARTESIAN_POINT('',(0.,0.000200000000000006,0.0175));
#1308=CARTESIAN_POINT('',(0.,0.0006,0.));
#1309=CARTESIAN_POINT('',(0.,0.0006,0.0175));
#1310=CARTESIAN_POINT('',(0.,0.0006,0.));
#1311=CARTESIAN_POINT('',(0.0158411835511407,0.0006,-0.00424463233968135));
#1312=CARTESIAN_POINT('',(0.0158411835511407,0.0006,-0.00374463233968135));
#1313=CARTESIAN_POINT('',(-0.0134340935263395,0.0006,-0.00940665355615707));
#1314=CARTESIAN_POINT('',(-0.0134340935263395,0.0006,-0.00890665355615707));
#1315=CARTESIAN_POINT('',(-0.00560913035054103,0.0006,0.0154109589808889));
#1316=CARTESIAN_POINT('',(-0.00560913035054103,0.0006,0.0159109589808889));
#1317=CARTESIAN_POINT('',(-0.0126858503806097,0.0006,-0.00461727193489662));
#1318=CARTESIAN_POINT('',(-0.00867763273076834,0.0006,-0.0103415999821062));
#1319=CARTESIAN_POINT('',(-0.00461727193489658,0.0006,-0.0126858503806097));
#1320=CARTESIAN_POINT('',(-5.11743425413158E-17,0.0006,-0.0135));
#1321=CARTESIAN_POINT('',(0.00461727193489649,0.0006,-0.0126858503806098));
#1322=CARTESIAN_POINT('',(0.00867763273076826,0.0006,-0.0103415999821062));
#1323=CARTESIAN_POINT('',(0.00984020408893627,0.0006,-0.00924231483385423));
#1324=CARTESIAN_POINT('',(0.,0.0006,0.));
#1325=CARTESIAN_POINT('',(0.0108106368120738,0.0006,-0.00808579814968408));
#1326=CARTESIAN_POINT('',(0.0116913429510899,0.0006,-0.00675));
#1327=CARTESIAN_POINT('',(0.0135,0.0006,0.));
#1328=CARTESIAN_POINT('',(0.0126858503806098,0.0006,0.00461727193489654));
#1329=CARTESIAN_POINT('',(0.0103415999821062,0.0006,0.0086776327307683));
#1330=CARTESIAN_POINT('',(0.00675,0.0006,0.0116913429510899));
#1331=CARTESIAN_POINT('',(0.00234425039850352,0.0006,0.0132949046656648));
#1332=CARTESIAN_POINT('',(-0.00234425039850361,0.0006,0.0132949046656648));
#1333=CARTESIAN_POINT('',(-0.00675,0.0006,0.0116913429510899));
#1334=CARTESIAN_POINT('',(-0.0103415999821062,0.0006,0.00867763273076823));
#1335=CARTESIAN_POINT('',(-0.0126858503806098,0.0006,0.00461727193489645));
#1336=CARTESIAN_POINT('',(-0.0135,0.0006,0.));
#1337=CARTESIAN_POINT('',(0.,0.,0.));
#1338=CARTESIAN_POINT('',(0.,0.,0.));
#1339=CARTESIAN_POINT('',(0.,0.,0.0173));
#1340=CARTESIAN_POINT('',(0.0158411835511407,0.,-0.00424463233968135));
#1341=CARTESIAN_POINT('',(0.0158411835511407,0.,-0.00374463233968135));
#1342=CARTESIAN_POINT('',(-0.0134340935263395,0.,-0.00940665355615707));
#1343=CARTESIAN_POINT('',(-0.0134340935263395,0.,-0.00890665355615707));
#1344=CARTESIAN_POINT('',(-0.00560913035054103,0.,0.0154109589808889));
#1345=CARTESIAN_POINT('',(-0.00560913035054103,0.,0.0159109589808889));
#1346=CARTESIAN_POINT('',(-0.0126858503806097,0.,-0.00461727193489662));
#1347=CARTESIAN_POINT('',(-0.0135,0.,0.));
#1348=CARTESIAN_POINT('',(-0.0126858503806098,0.,0.00461727193489645));
#1349=CARTESIAN_POINT('',(-0.0103415999821062,0.,0.00867763273076823));
#1350=CARTESIAN_POINT('',(-0.00675,0.,0.0116913429510899));
#1351=CARTESIAN_POINT('',(-0.00234425039850361,0.,0.0132949046656648));
#1352=CARTESIAN_POINT('',(0.00234425039850352,0.,0.0132949046656648));
#1353=CARTESIAN_POINT('',(0.00675,0.,0.0116913429510899));
#1354=CARTESIAN_POINT('',(0.0103415999821062,0.,0.0086776327307683));
#1355=CARTESIAN_POINT('',(0.0126858503806098,0.,0.00461727193489654));
#1356=CARTESIAN_POINT('',(0.0135,0.,0.));
#1357=CARTESIAN_POINT('',(0.0116913429510899,0.,-0.00675));
#1358=CARTESIAN_POINT('',(0.0108106368120738,0.,-0.00808579814968408));
#1359=CARTESIAN_POINT('',(0.,0.,0.));
#1360=CARTESIAN_POINT('',(0.00984020408893627,0.,-0.00924231483385423));
#1361=CARTESIAN_POINT('',(0.00867763273076826,0.,-0.0103415999821062));
#1362=CARTESIAN_POINT('',(0.00461727193489649,0.,-0.0126858503806098));
#1363=CARTESIAN_POINT('',(-5.11743425413158E-17,0.,-0.0135));
#1364=CARTESIAN_POINT('',(-0.00461727193489658,0.,-0.0126858503806097));
#1365=CARTESIAN_POINT('',(-0.00867763273076834,0.,-0.0103415999821062));
#1366=CARTESIAN_POINT('',(0.,-1.00000000000002E-6,0.));
#1367=CARTESIAN_POINT('',(0.00984020408893627,0.0003,-0.00924231483385423));
#1368=CARTESIAN_POINT('',(0.0108106368120738,0.0003,-0.00808579814968408));
#1369=CARTESIAN_POINT('',(0.0116913429510899,-1.00000000000002E-6,-0.00675));
#1370=CARTESIAN_POINT('',(0.00867763273076826,-1.00000000000002E-6,-0.0103415999821062));
#1371=CARTESIAN_POINT('',(0.00461727193489649,-1.00000000000002E-6,-0.0126858503806098));
#1372=CARTESIAN_POINT('',(-5.11743425413158E-17,-1.00000000000002E-6,-0.0135));
#1373=CARTESIAN_POINT('',(-0.00461727193489658,-1.00000000000002E-6,-0.0126858503806097));
#1374=CARTESIAN_POINT('',(-0.00867763273076834,-1.00000000000002E-6,-0.0103415999821062));
#1375=CARTESIAN_POINT('',(0.0135,-1.00000000000002E-6,0.));
#1376=CARTESIAN_POINT('',(0.0126858503806098,-1.00000000000002E-6,0.00461727193489654));
#1377=CARTESIAN_POINT('',(0.0103415999821062,-1.00000000000002E-6,0.0086776327307683));
#1378=CARTESIAN_POINT('',(0.00675,-1.00000000000002E-6,0.0116913429510899));
#1379=CARTESIAN_POINT('',(0.00234425039850352,-1.00000000000002E-6,0.0132949046656648));
#1380=CARTESIAN_POINT('',(-0.00234425039850361,-1.00000000000002E-6,0.0132949046656648));
#1381=CARTESIAN_POINT('',(-0.00675,-1.00000000000002E-6,0.0116913429510899));
#1382=CARTESIAN_POINT('',(-0.0103415999821062,-1.00000000000002E-6,0.00867763273076823));
#1383=CARTESIAN_POINT('',(-0.0126858503806098,-1.00000000000002E-6,0.00461727193489645));
#1384=CARTESIAN_POINT('',(-0.0135,-1.00000000000002E-6,0.));
#1385=CARTESIAN_POINT('',(-0.0126858503806097,-1.00000000000002E-6,-0.00461727193489662));
#1386=CARTESIAN_POINT('',(-0.00560913035054103,0.0006,0.0154109589808889));
#1387=CARTESIAN_POINT('',(-0.0134340935263395,0.0006,-0.00940665355615707));
#1388=CARTESIAN_POINT('',(0.0158411835511407,0.0006,-0.00424463233968135));
#1389=CARTESIAN_POINT('',(0.,0.000200000000000006,0.));
#1390=(
GEOMETRIC_REPRESENTATION_CONTEXT(3)
GLOBAL_UNCERTAINTY_ASSIGNED_CONTEXT((#1391))
GLOBAL_UNIT_ASSIGNED_CONTEXT((#1394,#1393,#1392))
REPRESENTATION_CONTEXT('id2','TOP_LEVEL_ASSEMBLY_PART')
);
#1391=UNCERTAINTY_MEASURE_WITH_UNIT(LENGTH_MEASURE(1.E-8),#1394,
'DISTANCE_ACCURACY_VALUE','Maximum Tolerance applied to model');
#1392=(
NAMED_UNIT(*)
SI_UNIT($,.STERADIAN.)
SOLID_ANGLE_UNIT()
);
#1393=(
NAMED_UNIT(*)
PLANE_ANGLE_UNIT()
SI_UNIT($,.RADIAN.)
);
#1394=(
LENGTH_UNIT()
NAMED_UNIT(*)
SI_UNIT($,.METRE.)
);
#1395=PRODUCT_DEFINITION_SHAPE('','',#1396);
#1396=PRODUCT_DEFINITION('','',#1398,#1397);
#1397=DESIGN_CONTEXT('',#1404,'design');
#1398=PRODUCT_DEFINITION_FORMATION_WITH_SPECIFIED_SOURCE('','',#1400,
 .NOT_KNOWN.);
#1399=PRODUCT_RELATED_PRODUCT_CATEGORY('','',(#1400));
#1400=PRODUCT('id2','id2','id2',(#1402));
#1401=PRODUCT_CATEGORY('','');
#1402=MECHANICAL_CONTEXT('',#1404,'mechanical');
#1403=APPLICATION_PROTOCOL_DEFINITION('international standard',
'config_control_design',2010,#1404);
#1404=APPLICATION_CONTEXT(
'configuration controlled 3D designs of mechanical parts and assemblie
s');
ENDSEC;
END-ISO-10303-21;
