ISO-10303-21;
HEADER;
/* Generated by software containing ST-Developer
 * from STEP Tools, Inc. (www.steptools.com) 
 */
/* OPTION: using custom renumber hook */

FILE_DESCRIPTION(
/* description */ ('STEP AP203'),
/* implementation_level */ '2;1');

FILE_NAME(
/* name */ '6a546471ae18d47a463402c0',
/* time_stamp */ '2026-07-13T04:07:13Z',
/* author */ (''),
/* organization */ (''),
/* preprocessor_version */ 'ST-DEVELOPER v20',
/* originating_system */ 'ONSHAPE BY PTC INC, 1.217',
/* authorisation */ '  ');

FILE_SCHEMA (('CONFIG_CONTROL_DESIGN'));
ENDSEC;

DATA;
#10=PROPERTY_DEFINITION_REPRESENTATION(#14,#12);
#11=PROPERTY_DEFINITION_REPRESENTATION(#15,#13);
#12=REPRESENTATION('',(#16),#724);
#13=REPRESENTATION('',(#17),#724);
#14=PROPERTY_DEFINITION('pmi validation property','',#729);
#15=PROPERTY_DEFINITION('pmi validation property','',#729);
#16=VALUE_REPRESENTATION_ITEM('number of annotations',COUNT_MEASURE(0.));
#17=VALUE_REPRESENTATION_ITEM('number of views',COUNT_MEASURE(0.));
#18=SHAPE_REPRESENTATION_RELATIONSHIP('','',#431,#19);
#19=ADVANCED_BREP_SHAPE_REPRESENTATION('',(#429),#724);
#20=PLANE('',#442);
#21=PLANE('',#446);
#22=PLANE('',#450);
#23=PLANE('',#454);
#24=PLANE('',#458);
#25=PLANE('',#459);
#26=PLANE('',#460);
#27=PLANE('',#461);
#28=PLANE('',#462);
#29=PLANE('',#466);
#30=PLANE('',#470);
#31=PLANE('',#471);
#32=CIRCLE('',#434,0.0005);
#33=CIRCLE('',#435,0.0005);
#34=CIRCLE('',#437,0.0121);
#35=CIRCLE('',#438,0.0121);
#36=CIRCLE('',#440,0.0072);
#37=CIRCLE('',#441,0.0072);
#38=CIRCLE('',#444,0.0092);
#39=CIRCLE('',#445,0.0092);
#40=CIRCLE('',#448,0.0093);
#41=CIRCLE('',#449,0.0093);
#42=CIRCLE('',#452,0.0092);
#43=CIRCLE('',#453,0.0092);
#44=CIRCLE('',#456,0.0072);
#45=CIRCLE('',#457,0.0072);
#46=CIRCLE('',#463,0.0109);
#47=CIRCLE('',#464,0.0109);
#48=CIRCLE('',#465,0.001);
#49=CIRCLE('',#467,0.0109);
#50=CIRCLE('',#468,0.001);
#51=CIRCLE('',#469,0.0109);
#52=ORIENTED_EDGE('',*,*,#172,.F.);
#53=ORIENTED_EDGE('',*,*,#173,.F.);
#54=ORIENTED_EDGE('',*,*,#174,.T.);
#55=ORIENTED_EDGE('',*,*,#175,.T.);
#56=ORIENTED_EDGE('',*,*,#176,.T.);
#57=ORIENTED_EDGE('',*,*,#177,.T.);
#58=ORIENTED_EDGE('',*,*,#178,.F.);
#59=ORIENTED_EDGE('',*,*,#179,.F.);
#60=ORIENTED_EDGE('',*,*,#180,.T.);
#61=ORIENTED_EDGE('',*,*,#181,.F.);
#62=ORIENTED_EDGE('',*,*,#182,.F.);
#63=ORIENTED_EDGE('',*,*,#183,.T.);
#64=ORIENTED_EDGE('',*,*,#184,.T.);
#65=ORIENTED_EDGE('',*,*,#185,.F.);
#66=ORIENTED_EDGE('',*,*,#186,.F.);
#67=ORIENTED_EDGE('',*,*,#181,.T.);
#68=ORIENTED_EDGE('',*,*,#187,.T.);
#69=ORIENTED_EDGE('',*,*,#188,.F.);
#70=ORIENTED_EDGE('',*,*,#189,.F.);
#71=ORIENTED_EDGE('',*,*,#185,.T.);
#72=ORIENTED_EDGE('',*,*,#190,.T.);
#73=ORIENTED_EDGE('',*,*,#191,.F.);
#74=ORIENTED_EDGE('',*,*,#192,.F.);
#75=ORIENTED_EDGE('',*,*,#188,.T.);
#76=ORIENTED_EDGE('',*,*,#193,.T.);
#77=ORIENTED_EDGE('',*,*,#194,.F.);
#78=ORIENTED_EDGE('',*,*,#195,.F.);
#79=ORIENTED_EDGE('',*,*,#191,.T.);
#80=ORIENTED_EDGE('',*,*,#196,.T.);
#81=ORIENTED_EDGE('',*,*,#197,.F.);
#82=ORIENTED_EDGE('',*,*,#198,.F.);
#83=ORIENTED_EDGE('',*,*,#194,.T.);
#84=ORIENTED_EDGE('',*,*,#199,.T.);
#85=ORIENTED_EDGE('',*,*,#200,.F.);
#86=ORIENTED_EDGE('',*,*,#201,.F.);
#87=ORIENTED_EDGE('',*,*,#197,.T.);
#88=ORIENTED_EDGE('',*,*,#202,.T.);
#89=ORIENTED_EDGE('',*,*,#203,.F.);
#90=ORIENTED_EDGE('',*,*,#204,.F.);
#91=ORIENTED_EDGE('',*,*,#200,.T.);
#92=ORIENTED_EDGE('',*,*,#205,.T.);
#93=ORIENTED_EDGE('',*,*,#206,.F.);
#94=ORIENTED_EDGE('',*,*,#207,.F.);
#95=ORIENTED_EDGE('',*,*,#203,.T.);
#96=ORIENTED_EDGE('',*,*,#208,.T.);
#97=ORIENTED_EDGE('',*,*,#209,.F.);
#98=ORIENTED_EDGE('',*,*,#210,.F.);
#99=ORIENTED_EDGE('',*,*,#206,.T.);
#100=ORIENTED_EDGE('',*,*,#211,.T.);
#101=ORIENTED_EDGE('',*,*,#212,.T.);
#102=ORIENTED_EDGE('',*,*,#213,.F.);
#103=ORIENTED_EDGE('',*,*,#209,.T.);
#104=ORIENTED_EDGE('',*,*,#214,.F.);
#105=ORIENTED_EDGE('',*,*,#215,.T.);
#106=ORIENTED_EDGE('',*,*,#216,.T.);
#107=ORIENTED_EDGE('',*,*,#217,.F.);
#108=ORIENTED_EDGE('',*,*,#218,.T.);
#109=ORIENTED_EDGE('',*,*,#183,.F.);
#110=ORIENTED_EDGE('',*,*,#219,.F.);
#111=ORIENTED_EDGE('',*,*,#217,.T.);
#112=ORIENTED_EDGE('',*,*,#213,.T.);
#113=ORIENTED_EDGE('',*,*,#220,.F.);
#114=ORIENTED_EDGE('',*,*,#175,.F.);
#115=ORIENTED_EDGE('',*,*,#221,.F.);
#116=ORIENTED_EDGE('',*,*,#178,.T.);
#117=ORIENTED_EDGE('',*,*,#222,.F.);
#118=ORIENTED_EDGE('',*,*,#223,.F.);
#119=ORIENTED_EDGE('',*,*,#224,.T.);
#120=ORIENTED_EDGE('',*,*,#214,.T.);
#121=ORIENTED_EDGE('',*,*,#219,.T.);
#122=ORIENTED_EDGE('',*,*,#182,.T.);
#123=ORIENTED_EDGE('',*,*,#186,.T.);
#124=ORIENTED_EDGE('',*,*,#189,.T.);
#125=ORIENTED_EDGE('',*,*,#192,.T.);
#126=ORIENTED_EDGE('',*,*,#195,.T.);
#127=ORIENTED_EDGE('',*,*,#198,.T.);
#128=ORIENTED_EDGE('',*,*,#201,.T.);
#129=ORIENTED_EDGE('',*,*,#204,.T.);
#130=ORIENTED_EDGE('',*,*,#207,.T.);
#131=ORIENTED_EDGE('',*,*,#210,.T.);
#132=ORIENTED_EDGE('',*,*,#225,.T.);
#133=ORIENTED_EDGE('',*,*,#211,.F.);
#134=ORIENTED_EDGE('',*,*,#208,.F.);
#135=ORIENTED_EDGE('',*,*,#205,.F.);
#136=ORIENTED_EDGE('',*,*,#202,.F.);
#137=ORIENTED_EDGE('',*,*,#199,.F.);
#138=ORIENTED_EDGE('',*,*,#196,.F.);
#139=ORIENTED_EDGE('',*,*,#193,.F.);
#140=ORIENTED_EDGE('',*,*,#190,.F.);
#141=ORIENTED_EDGE('',*,*,#187,.F.);
#142=ORIENTED_EDGE('',*,*,#184,.F.);
#143=ORIENTED_EDGE('',*,*,#180,.F.);
#144=ORIENTED_EDGE('',*,*,#218,.F.);
#145=ORIENTED_EDGE('',*,*,#216,.F.);
#146=ORIENTED_EDGE('',*,*,#226,.T.);
#147=ORIENTED_EDGE('',*,*,#227,.T.);
#148=ORIENTED_EDGE('',*,*,#228,.T.);
#149=ORIENTED_EDGE('',*,*,#176,.F.);
#150=ORIENTED_EDGE('',*,*,#229,.T.);
#151=ORIENTED_EDGE('',*,*,#173,.T.);
#152=ORIENTED_EDGE('',*,*,#179,.T.);
#153=ORIENTED_EDGE('',*,*,#221,.T.);
#154=ORIENTED_EDGE('',*,*,#174,.F.);
#155=ORIENTED_EDGE('',*,*,#229,.F.);
#156=ORIENTED_EDGE('',*,*,#228,.F.);
#157=ORIENTED_EDGE('',*,*,#230,.T.);
#158=ORIENTED_EDGE('',*,*,#222,.T.);
#159=ORIENTED_EDGE('',*,*,#177,.F.);
#160=ORIENTED_EDGE('',*,*,#227,.F.);
#161=ORIENTED_EDGE('',*,*,#231,.T.);
#162=ORIENTED_EDGE('',*,*,#223,.T.);
#163=ORIENTED_EDGE('',*,*,#230,.F.);
#164=ORIENTED_EDGE('',*,*,#226,.F.);
#165=ORIENTED_EDGE('',*,*,#215,.F.);
#166=ORIENTED_EDGE('',*,*,#224,.F.);
#167=ORIENTED_EDGE('',*,*,#231,.F.);
#168=ORIENTED_EDGE('',*,*,#225,.F.);
#169=ORIENTED_EDGE('',*,*,#172,.T.);
#170=ORIENTED_EDGE('',*,*,#220,.T.);
#171=ORIENTED_EDGE('',*,*,#212,.F.);
#172=EDGE_CURVE('',#232,#233,#272,.T.);
#173=EDGE_CURVE('',#234,#232,#32,.F.);
#174=EDGE_CURVE('',#234,#235,#273,.T.);
#175=EDGE_CURVE('',#235,#233,#33,.T.);
#176=EDGE_CURVE('',#236,#237,#34,.T.);
#177=EDGE_CURVE('',#237,#238,#274,.T.);
#178=EDGE_CURVE('',#239,#238,#35,.T.);
#179=EDGE_CURVE('',#236,#239,#275,.T.);
#180=EDGE_CURVE('',#240,#241,#36,.T.);
#181=EDGE_CURVE('',#242,#241,#276,.T.);
#182=EDGE_CURVE('',#243,#242,#37,.T.);
#183=EDGE_CURVE('',#243,#240,#277,.T.);
#184=EDGE_CURVE('',#241,#244,#278,.T.);
#185=EDGE_CURVE('',#245,#244,#279,.T.);
#186=EDGE_CURVE('',#242,#245,#280,.T.);
#187=EDGE_CURVE('',#244,#246,#38,.T.);
#188=EDGE_CURVE('',#247,#246,#281,.T.);
#189=EDGE_CURVE('',#245,#247,#39,.T.);
#190=EDGE_CURVE('',#246,#248,#282,.T.);
#191=EDGE_CURVE('',#249,#248,#283,.T.);
#192=EDGE_CURVE('',#247,#249,#284,.T.);
#193=EDGE_CURVE('',#248,#250,#40,.T.);
#194=EDGE_CURVE('',#251,#250,#285,.T.);
#195=EDGE_CURVE('',#249,#251,#41,.T.);
#196=EDGE_CURVE('',#250,#252,#286,.T.);
#197=EDGE_CURVE('',#253,#252,#287,.T.);
#198=EDGE_CURVE('',#251,#253,#288,.T.);
#199=EDGE_CURVE('',#252,#254,#42,.T.);
#200=EDGE_CURVE('',#255,#254,#289,.T.);
#201=EDGE_CURVE('',#253,#255,#43,.T.);
#202=EDGE_CURVE('',#254,#256,#290,.T.);
#203=EDGE_CURVE('',#257,#256,#291,.T.);
#204=EDGE_CURVE('',#255,#257,#292,.T.);
#205=EDGE_CURVE('',#256,#258,#44,.T.);
#206=EDGE_CURVE('',#259,#258,#293,.T.);
#207=EDGE_CURVE('',#257,#259,#45,.T.);
#208=EDGE_CURVE('',#258,#260,#294,.T.);
#209=EDGE_CURVE('',#261,#260,#295,.T.);
#210=EDGE_CURVE('',#259,#261,#296,.T.);
#211=EDGE_CURVE('',#260,#262,#297,.T.);
#212=EDGE_CURVE('',#262,#263,#298,.T.);
#213=EDGE_CURVE('',#261,#263,#299,.T.);
#214=EDGE_CURVE('',#264,#265,#300,.T.);
#215=EDGE_CURVE('',#264,#266,#301,.F.);
#216=EDGE_CURVE('',#266,#267,#302,.T.);
#217=EDGE_CURVE('',#265,#267,#303,.T.);
#218=EDGE_CURVE('',#267,#240,#304,.T.);
#219=EDGE_CURVE('',#265,#243,#305,.T.);
#220=EDGE_CURVE('',#233,#263,#46,.T.);
#221=EDGE_CURVE('',#239,#235,#306,.T.);
#222=EDGE_CURVE('',#268,#238,#307,.T.);
#223=EDGE_CURVE('',#269,#268,#47,.T.);
#224=EDGE_CURVE('',#269,#264,#48,.F.);
#225=EDGE_CURVE('',#232,#262,#49,.T.);
#226=EDGE_CURVE('',#266,#270,#50,.T.);
#227=EDGE_CURVE('',#270,#271,#51,.T.);
#228=EDGE_CURVE('',#271,#237,#308,.T.);
#229=EDGE_CURVE('',#236,#234,#309,.T.);
#230=EDGE_CURVE('',#271,#268,#310,.T.);
#231=EDGE_CURVE('',#270,#269,#311,.T.);
#232=VERTEX_POINT('',#604);
#233=VERTEX_POINT('',#605);
#234=VERTEX_POINT('',#607);
#235=VERTEX_POINT('',#609);
#236=VERTEX_POINT('',#613);
#237=VERTEX_POINT('',#614);
#238=VERTEX_POINT('',#616);
#239=VERTEX_POINT('',#618);
#240=VERTEX_POINT('',#622);
#241=VERTEX_POINT('',#623);
#242=VERTEX_POINT('',#625);
#243=VERTEX_POINT('',#627);
#244=VERTEX_POINT('',#631);
#245=VERTEX_POINT('',#633);
#246=VERTEX_POINT('',#637);
#247=VERTEX_POINT('',#639);
#248=VERTEX_POINT('',#643);
#249=VERTEX_POINT('',#645);
#250=VERTEX_POINT('',#649);
#251=VERTEX_POINT('',#651);
#252=VERTEX_POINT('',#655);
#253=VERTEX_POINT('',#657);
#254=VERTEX_POINT('',#661);
#255=VERTEX_POINT('',#663);
#256=VERTEX_POINT('',#667);
#257=VERTEX_POINT('',#669);
#258=VERTEX_POINT('',#673);
#259=VERTEX_POINT('',#675);
#260=VERTEX_POINT('',#679);
#261=VERTEX_POINT('',#681);
#262=VERTEX_POINT('',#685);
#263=VERTEX_POINT('',#687);
#264=VERTEX_POINT('',#691);
#265=VERTEX_POINT('',#692);
#266=VERTEX_POINT('',#694);
#267=VERTEX_POINT('',#696);
#268=VERTEX_POINT('',#705);
#269=VERTEX_POINT('',#707);
#270=VERTEX_POINT('',#712);
#271=VERTEX_POINT('',#714);
#272=LINE('',#603,#312);
#273=LINE('',#608,#313);
#274=LINE('',#615,#314);
#275=LINE('',#619,#315);
#276=LINE('',#624,#316);
#277=LINE('',#628,#317);
#278=LINE('',#630,#318);
#279=LINE('',#632,#319);
#280=LINE('',#634,#320);
#281=LINE('',#638,#321);
#282=LINE('',#642,#322);
#283=LINE('',#644,#323);
#284=LINE('',#646,#324);
#285=LINE('',#650,#325);
#286=LINE('',#654,#326);
#287=LINE('',#656,#327);
#288=LINE('',#658,#328);
#289=LINE('',#662,#329);
#290=LINE('',#666,#330);
#291=LINE('',#668,#331);
#292=LINE('',#670,#332);
#293=LINE('',#674,#333);
#294=LINE('',#678,#334);
#295=LINE('',#680,#335);
#296=LINE('',#682,#336);
#297=LINE('',#684,#337);
#298=LINE('',#686,#338);
#299=LINE('',#688,#339);
#300=LINE('',#690,#340);
#301=LINE('',#693,#341);
#302=LINE('',#695,#342);
#303=LINE('',#697,#343);
#304=LINE('',#699,#344);
#305=LINE('',#700,#345);
#306=LINE('',#703,#346);
#307=LINE('',#704,#347);
#308=LINE('',#715,#348);
#309=LINE('',#716,#349);
#310=LINE('',#719,#350);
#311=LINE('',#721,#351);
#312=VECTOR('',#479,1.);
#313=VECTOR('',#482,1.);
#314=VECTOR('',#489,1.);
#315=VECTOR('',#492,1.);
#316=VECTOR('',#497,1.);
#317=VECTOR('',#500,1.);
#318=VECTOR('',#503,1.);
#319=VECTOR('',#504,1.);
#320=VECTOR('',#505,1.);
#321=VECTOR('',#510,1.);
#322=VECTOR('',#515,1.);
#323=VECTOR('',#516,1.);
#324=VECTOR('',#517,1.);
#325=VECTOR('',#522,1.);
#326=VECTOR('',#527,1.);
#327=VECTOR('',#528,1.);
#328=VECTOR('',#529,1.);
#329=VECTOR('',#534,1.);
#330=VECTOR('',#539,1.);
#331=VECTOR('',#540,1.);
#332=VECTOR('',#541,1.);
#333=VECTOR('',#546,1.);
#334=VECTOR('',#551,1.);
#335=VECTOR('',#552,1.);
#336=VECTOR('',#553,1.);
#337=VECTOR('',#556,1.);
#338=VECTOR('',#557,1.);
#339=VECTOR('',#558,1.);
#340=VECTOR('',#561,1.);
#341=VECTOR('',#562,1.);
#342=VECTOR('',#563,1.);
#343=VECTOR('',#564,1.);
#344=VECTOR('',#567,1.);
#345=VECTOR('',#568,1.);
#346=VECTOR('',#573,1.);
#347=VECTOR('',#574,1.);
#348=VECTOR('',#587,1.);
#349=VECTOR('',#588,1.);
#350=VECTOR('',#593,1.);
#351=VECTOR('',#596,1.);
#352=EDGE_LOOP('',(#52,#53,#54,#55));
#353=EDGE_LOOP('',(#56,#57,#58,#59));
#354=EDGE_LOOP('',(#60,#61,#62,#63));
#355=EDGE_LOOP('',(#64,#65,#66,#67));
#356=EDGE_LOOP('',(#68,#69,#70,#71));
#357=EDGE_LOOP('',(#72,#73,#74,#75));
#358=EDGE_LOOP('',(#76,#77,#78,#79));
#359=EDGE_LOOP('',(#80,#81,#82,#83));
#360=EDGE_LOOP('',(#84,#85,#86,#87));
#361=EDGE_LOOP('',(#88,#89,#90,#91));
#362=EDGE_LOOP('',(#92,#93,#94,#95));
#363=EDGE_LOOP('',(#96,#97,#98,#99));
#364=EDGE_LOOP('',(#100,#101,#102,#103));
#365=EDGE_LOOP('',(#104,#105,#106,#107));
#366=EDGE_LOOP('',(#108,#109,#110,#111));
#367=EDGE_LOOP('',(#112,#113,#114,#115,#116,#117,#118,#119,#120,#121,#122,
#123,#124,#125,#126,#127,#128,#129,#130,#131));
#368=EDGE_LOOP('',(#132,#133,#134,#135,#136,#137,#138,#139,#140,#141,#142,
#143,#144,#145,#146,#147,#148,#149,#150,#151));
#369=EDGE_LOOP('',(#152,#153,#154,#155));
#370=EDGE_LOOP('',(#156,#157,#158,#159));
#371=EDGE_LOOP('',(#160,#161,#162,#163));
#372=EDGE_LOOP('',(#164,#165,#166,#167));
#373=EDGE_LOOP('',(#168,#169,#170,#171));
#374=FACE_BOUND('',#352,.T.);
#375=FACE_BOUND('',#353,.T.);
#376=FACE_BOUND('',#354,.T.);
#377=FACE_BOUND('',#355,.T.);
#378=FACE_BOUND('',#356,.T.);
#379=FACE_BOUND('',#357,.T.);
#380=FACE_BOUND('',#358,.T.);
#381=FACE_BOUND('',#359,.T.);
#382=FACE_BOUND('',#360,.T.);
#383=FACE_BOUND('',#361,.T.);
#384=FACE_BOUND('',#362,.T.);
#385=FACE_BOUND('',#363,.T.);
#386=FACE_BOUND('',#364,.T.);
#387=FACE_BOUND('',#365,.T.);
#388=FACE_BOUND('',#366,.T.);
#389=FACE_BOUND('',#367,.T.);
#390=FACE_BOUND('',#368,.T.);
#391=FACE_BOUND('',#369,.T.);
#392=FACE_BOUND('',#370,.T.);
#393=FACE_BOUND('',#371,.T.);
#394=FACE_BOUND('',#372,.T.);
#395=FACE_BOUND('',#373,.T.);
#396=CYLINDRICAL_SURFACE('',#433,0.0005);
#397=CYLINDRICAL_SURFACE('',#436,0.0121);
#398=CYLINDRICAL_SURFACE('',#439,0.0072);
#399=CYLINDRICAL_SURFACE('',#443,0.0092);
#400=CYLINDRICAL_SURFACE('',#447,0.0093);
#401=CYLINDRICAL_SURFACE('',#451,0.0092);
#402=CYLINDRICAL_SURFACE('',#455,0.0072);
#403=CYLINDRICAL_SURFACE('',#472,0.0109);
#404=CYLINDRICAL_SURFACE('',#473,0.001);
#405=CYLINDRICAL_SURFACE('',#474,0.0109);
#406=ADVANCED_FACE('',(#374),#396,.F.);
#407=ADVANCED_FACE('',(#375),#397,.T.);
#408=ADVANCED_FACE('',(#376),#398,.F.);
#409=ADVANCED_FACE('',(#377),#20,.F.);
#410=ADVANCED_FACE('',(#378),#399,.F.);
#411=ADVANCED_FACE('',(#379),#21,.F.);
#412=ADVANCED_FACE('',(#380),#400,.F.);
#413=ADVANCED_FACE('',(#381),#22,.F.);
#414=ADVANCED_FACE('',(#382),#401,.F.);
#415=ADVANCED_FACE('',(#383),#23,.F.);
#416=ADVANCED_FACE('',(#384),#402,.F.);
#417=ADVANCED_FACE('',(#385),#24,.F.);
#418=ADVANCED_FACE('',(#386),#25,.F.);
#419=ADVANCED_FACE('',(#387),#26,.F.);
#420=ADVANCED_FACE('',(#388),#27,.F.);
#421=ADVANCED_FACE('',(#389),#28,.F.);
#422=ADVANCED_FACE('',(#390),#29,.T.);
#423=ADVANCED_FACE('',(#391),#30,.F.);
#424=ADVANCED_FACE('',(#392),#31,.F.);
#425=ADVANCED_FACE('',(#393),#403,.T.);
#426=ADVANCED_FACE('',(#394),#404,.T.);
#427=ADVANCED_FACE('',(#395),#405,.T.);
#428=CLOSED_SHELL('',(#406,#407,#408,#409,#410,#411,#412,#413,#414,#415,
#416,#417,#418,#419,#420,#421,#422,#423,#424,#425,#426,#427));
#429=MANIFOLD_SOLID_BREP('',#428);
#430=SHAPE_DEFINITION_REPRESENTATION(#729,#431);
#431=SHAPE_REPRESENTATION('id2',(#432),#724);
#432=AXIS2_PLACEMENT_3D('',#601,#475,#476);
#433=AXIS2_PLACEMENT_3D('',#602,#477,#478);
#434=AXIS2_PLACEMENT_3D('',#606,#480,#481);
#435=AXIS2_PLACEMENT_3D('',#610,#483,#484);
#436=AXIS2_PLACEMENT_3D('',#611,#485,#486);
#437=AXIS2_PLACEMENT_3D('',#612,#487,#488);
#438=AXIS2_PLACEMENT_3D('',#617,#490,#491);
#439=AXIS2_PLACEMENT_3D('',#620,#493,#494);
#440=AXIS2_PLACEMENT_3D('',#621,#495,#496);
#441=AXIS2_PLACEMENT_3D('',#626,#498,#499);
#442=AXIS2_PLACEMENT_3D('',#629,#501,#502);
#443=AXIS2_PLACEMENT_3D('',#635,#506,#507);
#444=AXIS2_PLACEMENT_3D('',#636,#508,#509);
#445=AXIS2_PLACEMENT_3D('',#640,#511,#512);
#446=AXIS2_PLACEMENT_3D('',#641,#513,#514);
#447=AXIS2_PLACEMENT_3D('',#647,#518,#519);
#448=AXIS2_PLACEMENT_3D('',#648,#520,#521);
#449=AXIS2_PLACEMENT_3D('',#652,#523,#524);
#450=AXIS2_PLACEMENT_3D('',#653,#525,#526);
#451=AXIS2_PLACEMENT_3D('',#659,#530,#531);
#452=AXIS2_PLACEMENT_3D('',#660,#532,#533);
#453=AXIS2_PLACEMENT_3D('',#664,#535,#536);
#454=AXIS2_PLACEMENT_3D('',#665,#537,#538);
#455=AXIS2_PLACEMENT_3D('',#671,#542,#543);
#456=AXIS2_PLACEMENT_3D('',#672,#544,#545);
#457=AXIS2_PLACEMENT_3D('',#676,#547,#548);
#458=AXIS2_PLACEMENT_3D('',#677,#549,#550);
#459=AXIS2_PLACEMENT_3D('',#683,#554,#555);
#460=AXIS2_PLACEMENT_3D('',#689,#559,#560);
#461=AXIS2_PLACEMENT_3D('',#698,#565,#566);
#462=AXIS2_PLACEMENT_3D('',#701,#569,#570);
#463=AXIS2_PLACEMENT_3D('',#702,#571,#572);
#464=AXIS2_PLACEMENT_3D('',#706,#575,#576);
#465=AXIS2_PLACEMENT_3D('',#708,#577,#578);
#466=AXIS2_PLACEMENT_3D('',#709,#579,#580);
#467=AXIS2_PLACEMENT_3D('',#710,#581,#582);
#468=AXIS2_PLACEMENT_3D('',#711,#583,#584);
#469=AXIS2_PLACEMENT_3D('',#713,#585,#586);
#470=AXIS2_PLACEMENT_3D('',#717,#589,#590);
#471=AXIS2_PLACEMENT_3D('',#718,#591,#592);
#472=AXIS2_PLACEMENT_3D('',#720,#594,#595);
#473=AXIS2_PLACEMENT_3D('',#722,#597,#598);
#474=AXIS2_PLACEMENT_3D('',#723,#599,#600);
#475=DIRECTION('',(0.,0.,1.));
#476=DIRECTION('',(1.,0.,0.));
#477=DIRECTION('',(0.,0.,1.));
#478=DIRECTION('',(1.,0.,0.));
#479=DIRECTION('',(0.,0.,1.));
#480=DIRECTION('',(0.,0.,-1.));
#481=DIRECTION('',(-1.,0.,0.));
#482=DIRECTION('',(0.,0.,1.));
#483=DIRECTION('',(0.,0.,1.));
#484=DIRECTION('',(-3.49148133884313E-15,1.,0.));
#485=DIRECTION('',(0.,0.,-1.));
#486=DIRECTION('',(-1.,0.,0.));
#487=DIRECTION('',(0.,0.,1.));
#488=DIRECTION('',(1.,0.,0.));
#489=DIRECTION('',(0.,0.,1.));
#490=DIRECTION('',(0.,0.,1.));
#491=DIRECTION('',(1.,0.,0.));
#492=DIRECTION('',(0.,0.,1.));
#493=DIRECTION('',(0.,0.,-1.));
#494=DIRECTION('',(-1.,0.,0.));
#495=DIRECTION('',(0.,0.,-1.));
#496=DIRECTION('',(-1.,0.,0.));
#497=DIRECTION('',(0.,0.,-1.));
#498=DIRECTION('',(0.,0.,-1.));
#499=DIRECTION('',(-1.,0.,0.));
#500=DIRECTION('',(0.,0.,-1.));
#501=DIRECTION('',(0.866025403784438,0.5,0.));
#502=DIRECTION('',(-0.5,0.866025403784438,0.));
#503=DIRECTION('',(0.5,-0.866025403784438,0.));
#504=DIRECTION('',(0.,0.,-1.));
#505=DIRECTION('',(0.5,-0.866025403784438,0.));
#506=DIRECTION('',(0.,0.,-1.));
#507=DIRECTION('',(-1.,0.,0.));
#508=DIRECTION('',(0.,0.,-1.));
#509=DIRECTION('',(1.,0.,0.));
#510=DIRECTION('',(0.,0.,-1.));
#511=DIRECTION('',(0.,0.,-1.));
#512=DIRECTION('',(1.,0.,0.));
#513=DIRECTION('',(1.,0.,0.));
#514=DIRECTION('',(0.,0.,-1.));
#515=DIRECTION('',(0.,-1.,0.));
#516=DIRECTION('',(0.,0.,-1.));
#517=DIRECTION('',(0.,-1.,0.));
#518=DIRECTION('',(0.,0.,-1.));
#519=DIRECTION('',(-1.,0.,0.));
#520=DIRECTION('',(0.,0.,-1.));
#521=DIRECTION('',(1.,0.,0.));
#522=DIRECTION('',(0.,0.,-1.));
#523=DIRECTION('',(0.,0.,-1.));
#524=DIRECTION('',(1.,0.,0.));
#525=DIRECTION('',(-1.,0.,0.));
#526=DIRECTION('',(0.,0.,1.));
#527=DIRECTION('',(0.,1.,0.));
#528=DIRECTION('',(0.,0.,-1.));
#529=DIRECTION('',(0.,1.,0.));
#530=DIRECTION('',(0.,0.,-1.));
#531=DIRECTION('',(-1.,0.,0.));
#532=DIRECTION('',(0.,0.,-1.));
#533=DIRECTION('',(1.,0.,0.));
#534=DIRECTION('',(0.,0.,-1.));
#535=DIRECTION('',(0.,0.,-1.));
#536=DIRECTION('',(1.,0.,0.));
#537=DIRECTION('',(-0.866025403784438,0.5,0.));
#538=DIRECTION('',(-0.5,-0.866025403784438,0.));
#539=DIRECTION('',(0.5,0.866025403784438,0.));
#540=DIRECTION('',(0.,0.,-1.));
#541=DIRECTION('',(0.5,0.866025403784438,0.));
#542=DIRECTION('',(0.,0.,-1.));
#543=DIRECTION('',(-1.,0.,0.));
#544=DIRECTION('',(0.,0.,-1.));
#545=DIRECTION('',(1.,0.,0.));
#546=DIRECTION('',(0.,0.,-1.));
#547=DIRECTION('',(0.,0.,-1.));
#548=DIRECTION('',(1.,0.,0.));
#549=DIRECTION('',(6.97999979618284E-16,-1.,0.));
#550=DIRECTION('',(1.,6.97999979618284E-16,0.));
#551=DIRECTION('',(-1.,-6.97999979618284E-16,0.));
#552=DIRECTION('',(0.,0.,-1.));
#553=DIRECTION('',(-1.,-6.97999979618284E-16,0.));
#554=DIRECTION('',(0.461748613235031,-0.887010833178223,0.));
#555=DIRECTION('',(0.887010833178223,0.461748613235031,0.));
#556=DIRECTION('',(-0.887010833178223,-0.461748613235031,0.));
#557=DIRECTION('',(0.,0.,1.));
#558=DIRECTION('',(-0.887010833178223,-0.461748613235031,0.));
#559=DIRECTION('',(-0.461748613235032,-0.887010833178223,0.));
#560=DIRECTION('',(0.887010833178223,-0.461748613235032,0.));
#561=DIRECTION('',(-0.887010833178223,0.461748613235032,0.));
#562=DIRECTION('',(0.,0.,1.));
#563=DIRECTION('',(-0.887010833178223,0.461748613235032,0.));
#564=DIRECTION('',(0.,0.,-1.));
#565=DIRECTION('',(-3.48999989809142E-16,-1.,0.));
#566=DIRECTION('',(1.,-3.48999989809142E-16,0.));
#567=DIRECTION('',(-1.,3.48999989809142E-16,0.));
#568=DIRECTION('',(-1.,3.48999989809142E-16,0.));
#569=DIRECTION('',(0.,0.,-1.));
#570=DIRECTION('',(-1.,0.,0.));
#571=DIRECTION('',(0.,0.,-1.));
#572=DIRECTION('',(1.,0.,0.));
#573=DIRECTION('',(-0.625923472184058,0.779884483092882,0.));
#574=DIRECTION('',(-0.0871557427476539,-0.996194698091746,0.));
#575=DIRECTION('',(0.,0.,-1.));
#576=DIRECTION('',(-1.,0.,0.));
#577=DIRECTION('',(0.,0.,-1.));
#578=DIRECTION('',(-1.,0.,0.));
#579=DIRECTION('',(0.,0.,-1.));
#580=DIRECTION('',(-1.,0.,0.));
#581=DIRECTION('',(0.,0.,-1.));
#582=DIRECTION('',(-1.,0.,0.));
#583=DIRECTION('',(0.,0.,-1.));
#584=DIRECTION('',(-1.,0.,0.));
#585=DIRECTION('',(0.,0.,-1.));
#586=DIRECTION('',(-1.,0.,0.));
#587=DIRECTION('',(-0.0871557427476539,-0.996194698091746,0.));
#588=DIRECTION('',(-0.625923472184058,0.779884483092882,0.));
#589=DIRECTION('',(0.779884483092882,0.625923472184058,0.));
#590=DIRECTION('',(-0.625923472184058,0.779884483092882,0.));
#591=DIRECTION('',(-0.996194698091746,0.0871557427476539,0.));
#592=DIRECTION('',(-0.0871557427476539,-0.996194698091746,0.));
#593=DIRECTION('',(0.,0.,1.));
#594=DIRECTION('',(0.,0.,1.));
#595=DIRECTION('',(1.,0.,0.));
#596=DIRECTION('',(0.,0.,1.));
#597=DIRECTION('',(0.,0.,1.));
#598=DIRECTION('',(1.,0.,0.));
#599=DIRECTION('',(0.,0.,1.));
#600=DIRECTION('',(1.,0.,0.));
#601=CARTESIAN_POINT('',(0.,0.,0.));
#602=CARTESIAN_POINT('',(0.00673871884157739,-0.00919508936194586,-1.00000000000002E-6));
#603=CARTESIAN_POINT('',(0.00644316099764856,-0.00879179596887806,-1.00000000000002E-6));
#604=CARTESIAN_POINT('',(0.00644316099764856,-0.00879179596887806,0.));
#605=CARTESIAN_POINT('',(0.00644316099764856,-0.00879179596887806,0.0005));
#606=CARTESIAN_POINT('',(0.00673871884157739,-0.00919508936194586,0.));
#607=CARTESIAN_POINT('',(0.00712866108312383,-0.00888212762585383,0.));
#608=CARTESIAN_POINT('',(0.00712866108312383,-0.00888212762585383,-1.00000000000002E-6));
#609=CARTESIAN_POINT('',(0.00712866108312383,-0.00888212762585383,0.0005));
#610=CARTESIAN_POINT('',(0.00673871884157739,-0.00919508936194586,0.0005));
#611=CARTESIAN_POINT('',(0.,0.,0.0005));
#612=CARTESIAN_POINT('',(0.,0.,0.));
#613=CARTESIAN_POINT('',(0.00757367401342711,-0.00943660224542387,0.));
#614=CARTESIAN_POINT('',(0.00776317902804415,-0.00928132810423893,0.));
#615=CARTESIAN_POINT('',(0.00776317902804415,-0.00928132810423893,-1.00000000000002E-6));
#616=CARTESIAN_POINT('',(0.00776317902804415,-0.00928132810423893,0.0005));
#617=CARTESIAN_POINT('',(0.,0.,0.0005));
#618=CARTESIAN_POINT('',(0.00757367401342711,-0.00943660224542387,0.0005));
#619=CARTESIAN_POINT('',(0.00757367401342711,-0.00943660224542387,-1.00000000000002E-6));
#620=CARTESIAN_POINT('',(0.,0.,0.0005));
#621=CARTESIAN_POINT('',(0.,0.,0.));
#622=CARTESIAN_POINT('',(0.00577494588719236,-0.0043,0.));
#623=CARTESIAN_POINT('',(0.00553923133011576,-0.0045996647999027,0.));
#624=CARTESIAN_POINT('',(0.00553923133011576,-0.0045996647999027,0.0005));
#625=CARTESIAN_POINT('',(0.00553923133011576,-0.0045996647999027,0.0005));
#626=CARTESIAN_POINT('',(0.,0.,0.0005));
#627=CARTESIAN_POINT('',(0.00577494588719236,-0.0043,0.0005));
#628=CARTESIAN_POINT('',(0.00577494588719236,-0.0043,0.0005));
#629=CARTESIAN_POINT('',(0.00553923133011576,-0.0045996647999027,0.0005));
#630=CARTESIAN_POINT('',(0.00553923133011576,-0.0045996647999027,0.));
#631=CARTESIAN_POINT('',(0.00659,-0.00641964952314377,0.));
#632=CARTESIAN_POINT('',(0.00659,-0.00641964952314377,0.0005));
#633=CARTESIAN_POINT('',(0.00659,-0.00641964952314377,0.0005));
#634=CARTESIAN_POINT('',(0.00553923133011576,-0.0045996647999027,0.0005));
#635=CARTESIAN_POINT('',(0.,0.,0.0005));
#636=CARTESIAN_POINT('',(0.,0.,0.));
#637=CARTESIAN_POINT('',(0.005,-0.00772269383052313,0.));
#638=CARTESIAN_POINT('',(0.005,-0.00772269383052313,0.0005));
#639=CARTESIAN_POINT('',(0.005,-0.00772269383052313,0.0005));
#640=CARTESIAN_POINT('',(0.,0.,0.0005));
#641=CARTESIAN_POINT('',(0.005,-0.00772269383052313,0.0005));
#642=CARTESIAN_POINT('',(0.005,-0.00772269383052313,0.));
#643=CARTESIAN_POINT('',(0.005,-0.00784155596804614,0.));
#644=CARTESIAN_POINT('',(0.005,-0.00784155596804614,0.0005));
#645=CARTESIAN_POINT('',(0.005,-0.00784155596804614,0.0005));
#646=CARTESIAN_POINT('',(0.005,-0.00772269383052313,0.0005));
#647=CARTESIAN_POINT('',(0.,0.,0.0005));
#648=CARTESIAN_POINT('',(0.,0.,0.));
#649=CARTESIAN_POINT('',(-0.005,-0.00784155596804614,0.));
#650=CARTESIAN_POINT('',(-0.005,-0.00784155596804614,0.0005));
#651=CARTESIAN_POINT('',(-0.005,-0.00784155596804614,0.0005));
#652=CARTESIAN_POINT('',(0.,0.,0.0005));
#653=CARTESIAN_POINT('',(-0.005,-0.00772269383052313,0.0005));
#654=CARTESIAN_POINT('',(-0.005,-0.00772269383052313,0.));
#655=CARTESIAN_POINT('',(-0.005,-0.00772269383052313,0.));
#656=CARTESIAN_POINT('',(-0.005,-0.00772269383052313,0.0005));
#657=CARTESIAN_POINT('',(-0.005,-0.00772269383052313,0.0005));
#658=CARTESIAN_POINT('',(-0.005,-0.00772269383052313,0.0005));
#659=CARTESIAN_POINT('',(0.,0.,0.0005));
#660=CARTESIAN_POINT('',(0.,0.,0.));
#661=CARTESIAN_POINT('',(-0.00659,-0.00641964952314377,0.));
#662=CARTESIAN_POINT('',(-0.00659,-0.00641964952314377,0.0005));
#663=CARTESIAN_POINT('',(-0.00659,-0.00641964952314377,0.0005));
#664=CARTESIAN_POINT('',(0.,0.,0.0005));
#665=CARTESIAN_POINT('',(-0.00553923133011576,-0.0045996647999027,0.0005));
#666=CARTESIAN_POINT('',(-0.00553923133011576,-0.0045996647999027,0.));
#667=CARTESIAN_POINT('',(-0.00553923133011576,-0.0045996647999027,0.));
#668=CARTESIAN_POINT('',(-0.00553923133011576,-0.0045996647999027,0.0005));
#669=CARTESIAN_POINT('',(-0.00553923133011576,-0.0045996647999027,0.0005));
#670=CARTESIAN_POINT('',(-0.00553923133011576,-0.0045996647999027,0.0005));
#671=CARTESIAN_POINT('',(0.,0.,0.0005));
#672=CARTESIAN_POINT('',(0.,0.,0.));
#673=CARTESIAN_POINT('',(-0.00577494588719236,-0.0043,0.));
#674=CARTESIAN_POINT('',(-0.00577494588719236,-0.0043,0.0005));
#675=CARTESIAN_POINT('',(-0.00577494588719236,-0.0043,0.0005));
#676=CARTESIAN_POINT('',(0.,0.,0.0005));
#677=CARTESIAN_POINT('',(-0.00826022314597606,-0.0043,0.0005));
#678=CARTESIAN_POINT('',(-0.00826022314597606,-0.0043,0.));
#679=CARTESIAN_POINT('',(-0.00826022314597606,-0.0043,0.));
#680=CARTESIAN_POINT('',(-0.00826022314597606,-0.0043,0.0005));
#681=CARTESIAN_POINT('',(-0.00826022314597606,-0.0043,0.0005));
#682=CARTESIAN_POINT('',(-0.00826022314597606,-0.0043,0.0005));
#683=CARTESIAN_POINT('',(-0.00826022314597606,-0.0043,0.0005));
#684=CARTESIAN_POINT('',(-0.00826022314597606,-0.0043,0.));
#685=CARTESIAN_POINT('',(-0.00966841808164263,-0.00503305988426184,0.));
#686=CARTESIAN_POINT('',(-0.00966841808164263,-0.00503305988426184,-1.00000000000002E-6));
#687=CARTESIAN_POINT('',(-0.00966841808164263,-0.00503305988426184,0.0005));
#688=CARTESIAN_POINT('',(-0.00826022314597606,-0.0043,0.0005));
#689=CARTESIAN_POINT('',(0.00826022314597607,-0.0043,0.0005));
#690=CARTESIAN_POINT('',(0.00826022314597607,-0.0043,0.0005));
#691=CARTESIAN_POINT('',(0.00873649386454358,-0.00454793084322885,0.0005));
#692=CARTESIAN_POINT('',(0.00826022314597607,-0.0043,0.0005));
#693=CARTESIAN_POINT('',(0.00873649386454358,-0.00454793084322885,0.0005));
#694=CARTESIAN_POINT('',(0.00873649386454358,-0.00454793084322885,0.));
#695=CARTESIAN_POINT('',(0.00826022314597607,-0.0043,0.));
#696=CARTESIAN_POINT('',(0.00826022314597607,-0.0043,0.));
#697=CARTESIAN_POINT('',(0.00826022314597607,-0.0043,0.0005));
#698=CARTESIAN_POINT('',(0.00577494588719236,-0.0043,0.0005));
#699=CARTESIAN_POINT('',(0.00577494588719236,-0.0043,0.));
#700=CARTESIAN_POINT('',(0.00577494588719236,-0.0043,0.0005));
#701=CARTESIAN_POINT('',(0.,0.,0.0005));
#702=CARTESIAN_POINT('',(0.,0.,0.0005));
#703=CARTESIAN_POINT('',(0.00712866108312383,-0.00888212762585383,0.0005));
#704=CARTESIAN_POINT('',(0.00776317902804415,-0.00928132810423893,0.0005));
#705=CARTESIAN_POINT('',(0.00791999592597633,-0.00748890275891725,0.0005));
#706=CARTESIAN_POINT('',(0.,0.,0.0005));
#707=CARTESIAN_POINT('',(0.00911057810497608,-0.00598392568412496,0.0005));
#708=CARTESIAN_POINT('',(0.00827474525130855,-0.00543494167640707,0.0005));
#709=CARTESIAN_POINT('',(0.,0.,0.));
#710=CARTESIAN_POINT('',(0.,0.,0.));
#711=CARTESIAN_POINT('',(0.00827474525130855,-0.00543494167640707,0.));
#712=CARTESIAN_POINT('',(0.00911057810497608,-0.00598392568412496,0.));
#713=CARTESIAN_POINT('',(0.,0.,0.));
#714=CARTESIAN_POINT('',(0.00791999592597633,-0.00748890275891725,0.));
#715=CARTESIAN_POINT('',(0.00776317902804415,-0.00928132810423893,0.));
#716=CARTESIAN_POINT('',(0.00712866108312383,-0.00888212762585383,0.));
#717=CARTESIAN_POINT('',(0.00712866108312383,-0.00888212762585383,-1.00000000000002E-6));
#718=CARTESIAN_POINT('',(0.00776317902804415,-0.00928132810423893,-1.00000000000002E-6));
#719=CARTESIAN_POINT('',(0.00791999592597633,-0.00748890275891725,-1.00000000000002E-6));
#720=CARTESIAN_POINT('',(0.,0.,-1.00000000000002E-6));
#721=CARTESIAN_POINT('',(0.00911057810497608,-0.00598392568412496,-1.00000000000002E-6));
#722=CARTESIAN_POINT('',(0.00827474525130855,-0.00543494167640707,-1.00000000000002E-6));
#723=CARTESIAN_POINT('',(0.,0.,-1.00000000000002E-6));
#724=(
GEOMETRIC_REPRESENTATION_CONTEXT(3)
GLOBAL_UNCERTAINTY_ASSIGNED_CONTEXT((#725))
GLOBAL_UNIT_ASSIGNED_CONTEXT((#728,#727,#726))
REPRESENTATION_CONTEXT('id2','TOP_LEVEL_ASSEMBLY_PART')
);
#725=UNCERTAINTY_MEASURE_WITH_UNIT(LENGTH_MEASURE(1.E-8),#728,
'DISTANCE_ACCURACY_VALUE','Maximum Tolerance applied to model');
#726=(
NAMED_UNIT(*)
SI_UNIT($,.STERADIAN.)
SOLID_ANGLE_UNIT()
);
#727=(
NAMED_UNIT(*)
PLANE_ANGLE_UNIT()
SI_UNIT($,.RADIAN.)
);
#728=(
LENGTH_UNIT()
NAMED_UNIT(*)
SI_UNIT($,.METRE.)
);
#729=PRODUCT_DEFINITION_SHAPE('','',#730);
#730=PRODUCT_DEFINITION('','',#732,#731);
#731=DESIGN_CONTEXT('',#738,'design');
#732=PRODUCT_DEFINITION_FORMATION_WITH_SPECIFIED_SOURCE('','',#734,
 .NOT_KNOWN.);
#733=PRODUCT_RELATED_PRODUCT_CATEGORY('','',(#734));
#734=PRODUCT('id2','id2','id2',(#736));
#735=PRODUCT_CATEGORY('','');
#736=MECHANICAL_CONTEXT('',#738,'mechanical');
#737=APPLICATION_PROTOCOL_DEFINITION('international standard',
'config_control_design',2010,#738);
#738=APPLICATION_CONTEXT(
'configuration controlled 3D designs of mechanical parts and assemblie
s');
ENDSEC;
END-ISO-10303-21;
