ISO-10303-21;
HEADER;
/* Generated by software containing ST-Developer
 * from STEP Tools, Inc. (www.steptools.com) 
 */
/* OPTION: using custom renumber hook */

FILE_DESCRIPTION(
/* description */ ('STEP AP203'),
/* implementation_level */ '2;1');

FILE_NAME(
/* name */ '6a5464cb8b3b9652dc93aa0d',
/* time_stamp */ '2026-07-13T04:08:44Z',
/* author */ (''),
/* organization */ (''),
/* preprocessor_version */ 'ST-DEVELOPER v20',
/* originating_system */ 'ONSHAPE BY PTC INC, 1.217',
/* authorisation */ '  ');

FILE_SCHEMA (('CONFIG_CONTROL_DESIGN'));
ENDSEC;

DATA;
#10=PROPERTY_DEFINITION_REPRESENTATION(#14,#12);
#11=PROPERTY_DEFINITION_REPRESENTATION(#15,#13);
#12=REPRESENTATION('',(#16),#996);
#13=REPRESENTATION('',(#17),#996);
#14=PROPERTY_DEFINITION('pmi validation property','',#1001);
#15=PROPERTY_DEFINITION('pmi validation property','',#1001);
#16=VALUE_REPRESENTATION_ITEM('number of annotations',COUNT_MEASURE(0.));
#17=VALUE_REPRESENTATION_ITEM('number of views',COUNT_MEASURE(0.));
#18=SHAPE_REPRESENTATION_RELATIONSHIP('','',#591,#19);
#19=ADVANCED_BREP_SHAPE_REPRESENTATION('',(#589),#996);
#20=PLANE('',#608);
#21=PLANE('',#612);
#22=PLANE('',#616);
#23=PLANE('',#620);
#24=PLANE('',#624);
#25=PLANE('',#625);
#26=PLANE('',#626);
#27=PLANE('',#627);
#28=PLANE('',#628);
#29=PLANE('',#634);
#30=PLANE('',#640);
#31=PLANE('',#641);
#32=PLANE('',#643);
#33=PLANE('',#644);
#34=PLANE('',#646);
#35=PLANE('',#647);
#36=CIRCLE('',#594,0.0005);
#37=CIRCLE('',#595,0.0005);
#38=CIRCLE('',#597,0.0121);
#39=CIRCLE('',#598,0.0121);
#40=CIRCLE('',#600,0.0121);
#41=CIRCLE('',#601,0.0121);
#42=CIRCLE('',#603,0.0121);
#43=CIRCLE('',#604,0.0121);
#44=CIRCLE('',#606,0.0072);
#45=CIRCLE('',#607,0.0072);
#46=CIRCLE('',#610,0.0092);
#47=CIRCLE('',#611,0.0092);
#48=CIRCLE('',#614,0.0093);
#49=CIRCLE('',#615,0.0093);
#50=CIRCLE('',#618,0.0092);
#51=CIRCLE('',#619,0.0092);
#52=CIRCLE('',#622,0.0072);
#53=CIRCLE('',#623,0.0072);
#54=CIRCLE('',#629,0.0109);
#55=CIRCLE('',#630,0.0005);
#56=CIRCLE('',#631,0.0005);
#57=CIRCLE('',#632,0.0109);
#58=CIRCLE('',#633,0.001);
#59=CIRCLE('',#635,0.0109);
#60=CIRCLE('',#636,0.001);
#61=CIRCLE('',#637,0.0109);
#62=CIRCLE('',#638,0.0005);
#63=CIRCLE('',#639,0.0005);
#64=ORIENTED_EDGE('',*,*,#232,.F.);
#65=ORIENTED_EDGE('',*,*,#233,.F.);
#66=ORIENTED_EDGE('',*,*,#234,.T.);
#67=ORIENTED_EDGE('',*,*,#235,.T.);
#68=ORIENTED_EDGE('',*,*,#236,.T.);
#69=ORIENTED_EDGE('',*,*,#237,.T.);
#70=ORIENTED_EDGE('',*,*,#238,.F.);
#71=ORIENTED_EDGE('',*,*,#239,.F.);
#72=ORIENTED_EDGE('',*,*,#240,.T.);
#73=ORIENTED_EDGE('',*,*,#241,.T.);
#74=ORIENTED_EDGE('',*,*,#242,.F.);
#75=ORIENTED_EDGE('',*,*,#243,.F.);
#76=ORIENTED_EDGE('',*,*,#244,.T.);
#77=ORIENTED_EDGE('',*,*,#245,.T.);
#78=ORIENTED_EDGE('',*,*,#246,.F.);
#79=ORIENTED_EDGE('',*,*,#247,.F.);
#80=ORIENTED_EDGE('',*,*,#248,.T.);
#81=ORIENTED_EDGE('',*,*,#249,.F.);
#82=ORIENTED_EDGE('',*,*,#250,.F.);
#83=ORIENTED_EDGE('',*,*,#251,.T.);
#84=ORIENTED_EDGE('',*,*,#252,.T.);
#85=ORIENTED_EDGE('',*,*,#253,.F.);
#86=ORIENTED_EDGE('',*,*,#254,.F.);
#87=ORIENTED_EDGE('',*,*,#249,.T.);
#88=ORIENTED_EDGE('',*,*,#255,.T.);
#89=ORIENTED_EDGE('',*,*,#256,.F.);
#90=ORIENTED_EDGE('',*,*,#257,.F.);
#91=ORIENTED_EDGE('',*,*,#253,.T.);
#92=ORIENTED_EDGE('',*,*,#258,.T.);
#93=ORIENTED_EDGE('',*,*,#259,.F.);
#94=ORIENTED_EDGE('',*,*,#260,.F.);
#95=ORIENTED_EDGE('',*,*,#256,.T.);
#96=ORIENTED_EDGE('',*,*,#261,.T.);
#97=ORIENTED_EDGE('',*,*,#262,.F.);
#98=ORIENTED_EDGE('',*,*,#263,.F.);
#99=ORIENTED_EDGE('',*,*,#259,.T.);
#100=ORIENTED_EDGE('',*,*,#264,.T.);
#101=ORIENTED_EDGE('',*,*,#265,.F.);
#102=ORIENTED_EDGE('',*,*,#266,.F.);
#103=ORIENTED_EDGE('',*,*,#262,.T.);
#104=ORIENTED_EDGE('',*,*,#267,.T.);
#105=ORIENTED_EDGE('',*,*,#268,.F.);
#106=ORIENTED_EDGE('',*,*,#269,.F.);
#107=ORIENTED_EDGE('',*,*,#265,.T.);
#108=ORIENTED_EDGE('',*,*,#270,.T.);
#109=ORIENTED_EDGE('',*,*,#271,.F.);
#110=ORIENTED_EDGE('',*,*,#272,.F.);
#111=ORIENTED_EDGE('',*,*,#268,.T.);
#112=ORIENTED_EDGE('',*,*,#273,.T.);
#113=ORIENTED_EDGE('',*,*,#274,.F.);
#114=ORIENTED_EDGE('',*,*,#275,.F.);
#115=ORIENTED_EDGE('',*,*,#271,.T.);
#116=ORIENTED_EDGE('',*,*,#276,.T.);
#117=ORIENTED_EDGE('',*,*,#277,.F.);
#118=ORIENTED_EDGE('',*,*,#278,.F.);
#119=ORIENTED_EDGE('',*,*,#274,.T.);
#120=ORIENTED_EDGE('',*,*,#279,.T.);
#121=ORIENTED_EDGE('',*,*,#280,.T.);
#122=ORIENTED_EDGE('',*,*,#281,.F.);
#123=ORIENTED_EDGE('',*,*,#277,.T.);
#124=ORIENTED_EDGE('',*,*,#282,.F.);
#125=ORIENTED_EDGE('',*,*,#283,.T.);
#126=ORIENTED_EDGE('',*,*,#284,.T.);
#127=ORIENTED_EDGE('',*,*,#285,.F.);
#128=ORIENTED_EDGE('',*,*,#286,.T.);
#129=ORIENTED_EDGE('',*,*,#251,.F.);
#130=ORIENTED_EDGE('',*,*,#287,.F.);
#131=ORIENTED_EDGE('',*,*,#285,.T.);
#132=ORIENTED_EDGE('',*,*,#281,.T.);
#133=ORIENTED_EDGE('',*,*,#288,.F.);
#134=ORIENTED_EDGE('',*,*,#235,.F.);
#135=ORIENTED_EDGE('',*,*,#289,.F.);
#136=ORIENTED_EDGE('',*,*,#246,.T.);
#137=ORIENTED_EDGE('',*,*,#290,.F.);
#138=ORIENTED_EDGE('',*,*,#291,.F.);
#139=ORIENTED_EDGE('',*,*,#292,.F.);
#140=ORIENTED_EDGE('',*,*,#242,.T.);
#141=ORIENTED_EDGE('',*,*,#293,.F.);
#142=ORIENTED_EDGE('',*,*,#294,.F.);
#143=ORIENTED_EDGE('',*,*,#295,.F.);
#144=ORIENTED_EDGE('',*,*,#238,.T.);
#145=ORIENTED_EDGE('',*,*,#296,.F.);
#146=ORIENTED_EDGE('',*,*,#297,.F.);
#147=ORIENTED_EDGE('',*,*,#298,.T.);
#148=ORIENTED_EDGE('',*,*,#282,.T.);
#149=ORIENTED_EDGE('',*,*,#287,.T.);
#150=ORIENTED_EDGE('',*,*,#250,.T.);
#151=ORIENTED_EDGE('',*,*,#254,.T.);
#152=ORIENTED_EDGE('',*,*,#257,.T.);
#153=ORIENTED_EDGE('',*,*,#260,.T.);
#154=ORIENTED_EDGE('',*,*,#263,.T.);
#155=ORIENTED_EDGE('',*,*,#266,.T.);
#156=ORIENTED_EDGE('',*,*,#269,.T.);
#157=ORIENTED_EDGE('',*,*,#272,.T.);
#158=ORIENTED_EDGE('',*,*,#275,.T.);
#159=ORIENTED_EDGE('',*,*,#278,.T.);
#160=ORIENTED_EDGE('',*,*,#299,.T.);
#161=ORIENTED_EDGE('',*,*,#279,.F.);
#162=ORIENTED_EDGE('',*,*,#276,.F.);
#163=ORIENTED_EDGE('',*,*,#273,.F.);
#164=ORIENTED_EDGE('',*,*,#270,.F.);
#165=ORIENTED_EDGE('',*,*,#267,.F.);
#166=ORIENTED_EDGE('',*,*,#264,.F.);
#167=ORIENTED_EDGE('',*,*,#261,.F.);
#168=ORIENTED_EDGE('',*,*,#258,.F.);
#169=ORIENTED_EDGE('',*,*,#255,.F.);
#170=ORIENTED_EDGE('',*,*,#252,.F.);
#171=ORIENTED_EDGE('',*,*,#248,.F.);
#172=ORIENTED_EDGE('',*,*,#286,.F.);
#173=ORIENTED_EDGE('',*,*,#284,.F.);
#174=ORIENTED_EDGE('',*,*,#300,.T.);
#175=ORIENTED_EDGE('',*,*,#301,.T.);
#176=ORIENTED_EDGE('',*,*,#302,.T.);
#177=ORIENTED_EDGE('',*,*,#236,.F.);
#178=ORIENTED_EDGE('',*,*,#303,.T.);
#179=ORIENTED_EDGE('',*,*,#304,.T.);
#180=ORIENTED_EDGE('',*,*,#305,.T.);
#181=ORIENTED_EDGE('',*,*,#240,.F.);
#182=ORIENTED_EDGE('',*,*,#306,.T.);
#183=ORIENTED_EDGE('',*,*,#307,.T.);
#184=ORIENTED_EDGE('',*,*,#308,.T.);
#185=ORIENTED_EDGE('',*,*,#244,.F.);
#186=ORIENTED_EDGE('',*,*,#309,.T.);
#187=ORIENTED_EDGE('',*,*,#233,.T.);
#188=ORIENTED_EDGE('',*,*,#247,.T.);
#189=ORIENTED_EDGE('',*,*,#289,.T.);
#190=ORIENTED_EDGE('',*,*,#234,.F.);
#191=ORIENTED_EDGE('',*,*,#309,.F.);
#192=ORIENTED_EDGE('',*,*,#310,.T.);
#193=ORIENTED_EDGE('',*,*,#290,.T.);
#194=ORIENTED_EDGE('',*,*,#245,.F.);
#195=ORIENTED_EDGE('',*,*,#308,.F.);
#196=ORIENTED_EDGE('',*,*,#311,.T.);
#197=ORIENTED_EDGE('',*,*,#291,.T.);
#198=ORIENTED_EDGE('',*,*,#310,.F.);
#199=ORIENTED_EDGE('',*,*,#307,.F.);
#200=ORIENTED_EDGE('',*,*,#243,.T.);
#201=ORIENTED_EDGE('',*,*,#292,.T.);
#202=ORIENTED_EDGE('',*,*,#311,.F.);
#203=ORIENTED_EDGE('',*,*,#306,.F.);
#204=ORIENTED_EDGE('',*,*,#312,.T.);
#205=ORIENTED_EDGE('',*,*,#293,.T.);
#206=ORIENTED_EDGE('',*,*,#241,.F.);
#207=ORIENTED_EDGE('',*,*,#305,.F.);
#208=ORIENTED_EDGE('',*,*,#313,.T.);
#209=ORIENTED_EDGE('',*,*,#294,.T.);
#210=ORIENTED_EDGE('',*,*,#312,.F.);
#211=ORIENTED_EDGE('',*,*,#304,.F.);
#212=ORIENTED_EDGE('',*,*,#239,.T.);
#213=ORIENTED_EDGE('',*,*,#295,.T.);
#214=ORIENTED_EDGE('',*,*,#313,.F.);
#215=ORIENTED_EDGE('',*,*,#303,.F.);
#216=ORIENTED_EDGE('',*,*,#302,.F.);
#217=ORIENTED_EDGE('',*,*,#314,.T.);
#218=ORIENTED_EDGE('',*,*,#296,.T.);
#219=ORIENTED_EDGE('',*,*,#237,.F.);
#220=ORIENTED_EDGE('',*,*,#301,.F.);
#221=ORIENTED_EDGE('',*,*,#315,.T.);
#222=ORIENTED_EDGE('',*,*,#297,.T.);
#223=ORIENTED_EDGE('',*,*,#314,.F.);
#224=ORIENTED_EDGE('',*,*,#300,.F.);
#225=ORIENTED_EDGE('',*,*,#283,.F.);
#226=ORIENTED_EDGE('',*,*,#298,.F.);
#227=ORIENTED_EDGE('',*,*,#315,.F.);
#228=ORIENTED_EDGE('',*,*,#299,.F.);
#229=ORIENTED_EDGE('',*,*,#232,.T.);
#230=ORIENTED_EDGE('',*,*,#288,.T.);
#231=ORIENTED_EDGE('',*,*,#280,.F.);
#232=EDGE_CURVE('',#316,#317,#372,.T.);
#233=EDGE_CURVE('',#318,#316,#36,.F.);
#234=EDGE_CURVE('',#318,#319,#373,.T.);
#235=EDGE_CURVE('',#319,#317,#37,.T.);
#236=EDGE_CURVE('',#320,#321,#38,.T.);
#237=EDGE_CURVE('',#321,#322,#374,.T.);
#238=EDGE_CURVE('',#323,#322,#39,.T.);
#239=EDGE_CURVE('',#320,#323,#375,.T.);
#240=EDGE_CURVE('',#324,#325,#40,.T.);
#241=EDGE_CURVE('',#325,#326,#376,.T.);
#242=EDGE_CURVE('',#327,#326,#41,.T.);
#243=EDGE_CURVE('',#324,#327,#377,.T.);
#244=EDGE_CURVE('',#328,#329,#42,.T.);
#245=EDGE_CURVE('',#329,#330,#378,.T.);
#246=EDGE_CURVE('',#331,#330,#43,.T.);
#247=EDGE_CURVE('',#328,#331,#379,.T.);
#248=EDGE_CURVE('',#332,#333,#44,.T.);
#249=EDGE_CURVE('',#334,#333,#380,.T.);
#250=EDGE_CURVE('',#335,#334,#45,.T.);
#251=EDGE_CURVE('',#335,#332,#381,.T.);
#252=EDGE_CURVE('',#333,#336,#382,.T.);
#253=EDGE_CURVE('',#337,#336,#383,.T.);
#254=EDGE_CURVE('',#334,#337,#384,.T.);
#255=EDGE_CURVE('',#336,#338,#46,.T.);
#256=EDGE_CURVE('',#339,#338,#385,.T.);
#257=EDGE_CURVE('',#337,#339,#47,.T.);
#258=EDGE_CURVE('',#338,#340,#386,.T.);
#259=EDGE_CURVE('',#341,#340,#387,.T.);
#260=EDGE_CURVE('',#339,#341,#388,.T.);
#261=EDGE_CURVE('',#340,#342,#48,.T.);
#262=EDGE_CURVE('',#343,#342,#389,.T.);
#263=EDGE_CURVE('',#341,#343,#49,.T.);
#264=EDGE_CURVE('',#342,#344,#390,.T.);
#265=EDGE_CURVE('',#345,#344,#391,.T.);
#266=EDGE_CURVE('',#343,#345,#392,.T.);
#267=EDGE_CURVE('',#344,#346,#50,.T.);
#268=EDGE_CURVE('',#347,#346,#393,.T.);
#269=EDGE_CURVE('',#345,#347,#51,.T.);
#270=EDGE_CURVE('',#346,#348,#394,.T.);
#271=EDGE_CURVE('',#349,#348,#395,.T.);
#272=EDGE_CURVE('',#347,#349,#396,.T.);
#273=EDGE_CURVE('',#348,#350,#52,.T.);
#274=EDGE_CURVE('',#351,#350,#397,.T.);
#275=EDGE_CURVE('',#349,#351,#53,.T.);
#276=EDGE_CURVE('',#350,#352,#398,.T.);
#277=EDGE_CURVE('',#353,#352,#399,.T.);
#278=EDGE_CURVE('',#351,#353,#400,.T.);
#279=EDGE_CURVE('',#352,#354,#401,.T.);
#280=EDGE_CURVE('',#354,#355,#402,.T.);
#281=EDGE_CURVE('',#353,#355,#403,.T.);
#282=EDGE_CURVE('',#356,#357,#404,.T.);
#283=EDGE_CURVE('',#356,#358,#405,.F.);
#284=EDGE_CURVE('',#358,#359,#406,.T.);
#285=EDGE_CURVE('',#357,#359,#407,.T.);
#286=EDGE_CURVE('',#359,#332,#408,.T.);
#287=EDGE_CURVE('',#357,#335,#409,.T.);
#288=EDGE_CURVE('',#317,#355,#54,.T.);
#289=EDGE_CURVE('',#331,#319,#410,.T.);
#290=EDGE_CURVE('',#360,#330,#411,.T.);
#291=EDGE_CURVE('',#361,#360,#55,.T.);
#292=EDGE_CURVE('',#327,#361,#412,.T.);
#293=EDGE_CURVE('',#362,#326,#413,.T.);
#294=EDGE_CURVE('',#363,#362,#56,.T.);
#295=EDGE_CURVE('',#323,#363,#414,.T.);
#296=EDGE_CURVE('',#364,#322,#415,.T.);
#297=EDGE_CURVE('',#365,#364,#57,.T.);
#298=EDGE_CURVE('',#365,#356,#58,.F.);
#299=EDGE_CURVE('',#316,#354,#59,.T.);
#300=EDGE_CURVE('',#358,#366,#60,.T.);
#301=EDGE_CURVE('',#366,#367,#61,.T.);
#302=EDGE_CURVE('',#367,#321,#416,.T.);
#303=EDGE_CURVE('',#320,#368,#417,.T.);
#304=EDGE_CURVE('',#368,#369,#62,.F.);
#305=EDGE_CURVE('',#369,#325,#418,.T.);
#306=EDGE_CURVE('',#324,#370,#419,.T.);
#307=EDGE_CURVE('',#370,#371,#63,.F.);
#308=EDGE_CURVE('',#371,#329,#420,.T.);
#309=EDGE_CURVE('',#328,#318,#421,.T.);
#310=EDGE_CURVE('',#371,#360,#422,.T.);
#311=EDGE_CURVE('',#370,#361,#423,.T.);
#312=EDGE_CURVE('',#369,#362,#424,.T.);
#313=EDGE_CURVE('',#368,#363,#425,.T.);
#314=EDGE_CURVE('',#367,#364,#426,.T.);
#315=EDGE_CURVE('',#366,#365,#427,.T.);
#316=VERTEX_POINT('',#828);
#317=VERTEX_POINT('',#829);
#318=VERTEX_POINT('',#831);
#319=VERTEX_POINT('',#833);
#320=VERTEX_POINT('',#837);
#321=VERTEX_POINT('',#838);
#322=VERTEX_POINT('',#840);
#323=VERTEX_POINT('',#842);
#324=VERTEX_POINT('',#846);
#325=VERTEX_POINT('',#847);
#326=VERTEX_POINT('',#849);
#327=VERTEX_POINT('',#851);
#328=VERTEX_POINT('',#855);
#329=VERTEX_POINT('',#856);
#330=VERTEX_POINT('',#858);
#331=VERTEX_POINT('',#860);
#332=VERTEX_POINT('',#864);
#333=VERTEX_POINT('',#865);
#334=VERTEX_POINT('',#867);
#335=VERTEX_POINT('',#869);
#336=VERTEX_POINT('',#873);
#337=VERTEX_POINT('',#875);
#338=VERTEX_POINT('',#879);
#339=VERTEX_POINT('',#881);
#340=VERTEX_POINT('',#885);
#341=VERTEX_POINT('',#887);
#342=VERTEX_POINT('',#891);
#343=VERTEX_POINT('',#893);
#344=VERTEX_POINT('',#897);
#345=VERTEX_POINT('',#899);
#346=VERTEX_POINT('',#903);
#347=VERTEX_POINT('',#905);
#348=VERTEX_POINT('',#909);
#349=VERTEX_POINT('',#911);
#350=VERTEX_POINT('',#915);
#351=VERTEX_POINT('',#917);
#352=VERTEX_POINT('',#921);
#353=VERTEX_POINT('',#923);
#354=VERTEX_POINT('',#927);
#355=VERTEX_POINT('',#929);
#356=VERTEX_POINT('',#933);
#357=VERTEX_POINT('',#934);
#358=VERTEX_POINT('',#936);
#359=VERTEX_POINT('',#938);
#360=VERTEX_POINT('',#947);
#361=VERTEX_POINT('',#949);
#362=VERTEX_POINT('',#952);
#363=VERTEX_POINT('',#954);
#364=VERTEX_POINT('',#957);
#365=VERTEX_POINT('',#959);
#366=VERTEX_POINT('',#964);
#367=VERTEX_POINT('',#966);
#368=VERTEX_POINT('',#969);
#369=VERTEX_POINT('',#971);
#370=VERTEX_POINT('',#974);
#371=VERTEX_POINT('',#976);
#372=LINE('',#827,#428);
#373=LINE('',#832,#429);
#374=LINE('',#839,#430);
#375=LINE('',#843,#431);
#376=LINE('',#848,#432);
#377=LINE('',#852,#433);
#378=LINE('',#857,#434);
#379=LINE('',#861,#435);
#380=LINE('',#866,#436);
#381=LINE('',#870,#437);
#382=LINE('',#872,#438);
#383=LINE('',#874,#439);
#384=LINE('',#876,#440);
#385=LINE('',#880,#441);
#386=LINE('',#884,#442);
#387=LINE('',#886,#443);
#388=LINE('',#888,#444);
#389=LINE('',#892,#445);
#390=LINE('',#896,#446);
#391=LINE('',#898,#447);
#392=LINE('',#900,#448);
#393=LINE('',#904,#449);
#394=LINE('',#908,#450);
#395=LINE('',#910,#451);
#396=LINE('',#912,#452);
#397=LINE('',#916,#453);
#398=LINE('',#920,#454);
#399=LINE('',#922,#455);
#400=LINE('',#924,#456);
#401=LINE('',#926,#457);
#402=LINE('',#928,#458);
#403=LINE('',#930,#459);
#404=LINE('',#932,#460);
#405=LINE('',#935,#461);
#406=LINE('',#937,#462);
#407=LINE('',#939,#463);
#408=LINE('',#941,#464);
#409=LINE('',#942,#465);
#410=LINE('',#945,#466);
#411=LINE('',#946,#467);
#412=LINE('',#950,#468);
#413=LINE('',#951,#469);
#414=LINE('',#955,#470);
#415=LINE('',#956,#471);
#416=LINE('',#967,#472);
#417=LINE('',#968,#473);
#418=LINE('',#972,#474);
#419=LINE('',#973,#475);
#420=LINE('',#977,#476);
#421=LINE('',#978,#477);
#422=LINE('',#981,#478);
#423=LINE('',#983,#479);
#424=LINE('',#986,#480);
#425=LINE('',#988,#481);
#426=LINE('',#991,#482);
#427=LINE('',#993,#483);
#428=VECTOR('',#655,1.);
#429=VECTOR('',#658,1.);
#430=VECTOR('',#665,1.);
#431=VECTOR('',#668,1.);
#432=VECTOR('',#673,1.);
#433=VECTOR('',#676,1.);
#434=VECTOR('',#681,1.);
#435=VECTOR('',#684,1.);
#436=VECTOR('',#689,1.);
#437=VECTOR('',#692,1.);
#438=VECTOR('',#695,1.);
#439=VECTOR('',#696,1.);
#440=VECTOR('',#697,1.);
#441=VECTOR('',#702,1.);
#442=VECTOR('',#707,1.);
#443=VECTOR('',#708,1.);
#444=VECTOR('',#709,1.);
#445=VECTOR('',#714,1.);
#446=VECTOR('',#719,1.);
#447=VECTOR('',#720,1.);
#448=VECTOR('',#721,1.);
#449=VECTOR('',#726,1.);
#450=VECTOR('',#731,1.);
#451=VECTOR('',#732,1.);
#452=VECTOR('',#733,1.);
#453=VECTOR('',#738,1.);
#454=VECTOR('',#743,1.);
#455=VECTOR('',#744,1.);
#456=VECTOR('',#745,1.);
#457=VECTOR('',#748,1.);
#458=VECTOR('',#749,1.);
#459=VECTOR('',#750,1.);
#460=VECTOR('',#753,1.);
#461=VECTOR('',#754,1.);
#462=VECTOR('',#755,1.);
#463=VECTOR('',#756,1.);
#464=VECTOR('',#759,1.);
#465=VECTOR('',#760,1.);
#466=VECTOR('',#765,1.);
#467=VECTOR('',#766,1.);
#468=VECTOR('',#769,1.);
#469=VECTOR('',#770,1.);
#470=VECTOR('',#773,1.);
#471=VECTOR('',#774,1.);
#472=VECTOR('',#787,1.);
#473=VECTOR('',#788,1.);
#474=VECTOR('',#791,1.);
#475=VECTOR('',#792,1.);
#476=VECTOR('',#795,1.);
#477=VECTOR('',#796,1.);
#478=VECTOR('',#801,1.);
#479=VECTOR('',#804,1.);
#480=VECTOR('',#809,1.);
#481=VECTOR('',#812,1.);
#482=VECTOR('',#817,1.);
#483=VECTOR('',#820,1.);
#484=EDGE_LOOP('',(#64,#65,#66,#67));
#485=EDGE_LOOP('',(#68,#69,#70,#71));
#486=EDGE_LOOP('',(#72,#73,#74,#75));
#487=EDGE_LOOP('',(#76,#77,#78,#79));
#488=EDGE_LOOP('',(#80,#81,#82,#83));
#489=EDGE_LOOP('',(#84,#85,#86,#87));
#490=EDGE_LOOP('',(#88,#89,#90,#91));
#491=EDGE_LOOP('',(#92,#93,#94,#95));
#492=EDGE_LOOP('',(#96,#97,#98,#99));
#493=EDGE_LOOP('',(#100,#101,#102,#103));
#494=EDGE_LOOP('',(#104,#105,#106,#107));
#495=EDGE_LOOP('',(#108,#109,#110,#111));
#496=EDGE_LOOP('',(#112,#113,#114,#115));
#497=EDGE_LOOP('',(#116,#117,#118,#119));
#498=EDGE_LOOP('',(#120,#121,#122,#123));
#499=EDGE_LOOP('',(#124,#125,#126,#127));
#500=EDGE_LOOP('',(#128,#129,#130,#131));
#501=EDGE_LOOP('',(#132,#133,#134,#135,#136,#137,#138,#139,#140,#141,#142,
#143,#144,#145,#146,#147,#148,#149,#150,#151,#152,#153,#154,#155,#156,#157,
#158,#159));
#502=EDGE_LOOP('',(#160,#161,#162,#163,#164,#165,#166,#167,#168,#169,#170,
#171,#172,#173,#174,#175,#176,#177,#178,#179,#180,#181,#182,#183,#184,#185,
#186,#187));
#503=EDGE_LOOP('',(#188,#189,#190,#191));
#504=EDGE_LOOP('',(#192,#193,#194,#195));
#505=EDGE_LOOP('',(#196,#197,#198,#199));
#506=EDGE_LOOP('',(#200,#201,#202,#203));
#507=EDGE_LOOP('',(#204,#205,#206,#207));
#508=EDGE_LOOP('',(#208,#209,#210,#211));
#509=EDGE_LOOP('',(#212,#213,#214,#215));
#510=EDGE_LOOP('',(#216,#217,#218,#219));
#511=EDGE_LOOP('',(#220,#221,#222,#223));
#512=EDGE_LOOP('',(#224,#225,#226,#227));
#513=EDGE_LOOP('',(#228,#229,#230,#231));
#514=FACE_BOUND('',#484,.T.);
#515=FACE_BOUND('',#485,.T.);
#516=FACE_BOUND('',#486,.T.);
#517=FACE_BOUND('',#487,.T.);
#518=FACE_BOUND('',#488,.T.);
#519=FACE_BOUND('',#489,.T.);
#520=FACE_BOUND('',#490,.T.);
#521=FACE_BOUND('',#491,.T.);
#522=FACE_BOUND('',#492,.T.);
#523=FACE_BOUND('',#493,.T.);
#524=FACE_BOUND('',#494,.T.);
#525=FACE_BOUND('',#495,.T.);
#526=FACE_BOUND('',#496,.T.);
#527=FACE_BOUND('',#497,.T.);
#528=FACE_BOUND('',#498,.T.);
#529=FACE_BOUND('',#499,.T.);
#530=FACE_BOUND('',#500,.T.);
#531=FACE_BOUND('',#501,.T.);
#532=FACE_BOUND('',#502,.T.);
#533=FACE_BOUND('',#503,.T.);
#534=FACE_BOUND('',#504,.T.);
#535=FACE_BOUND('',#505,.T.);
#536=FACE_BOUND('',#506,.T.);
#537=FACE_BOUND('',#507,.T.);
#538=FACE_BOUND('',#508,.T.);
#539=FACE_BOUND('',#509,.T.);
#540=FACE_BOUND('',#510,.T.);
#541=FACE_BOUND('',#511,.T.);
#542=FACE_BOUND('',#512,.T.);
#543=FACE_BOUND('',#513,.T.);
#544=CYLINDRICAL_SURFACE('',#593,0.0005);
#545=CYLINDRICAL_SURFACE('',#596,0.0121);
#546=CYLINDRICAL_SURFACE('',#599,0.0121);
#547=CYLINDRICAL_SURFACE('',#602,0.0121);
#548=CYLINDRICAL_SURFACE('',#605,0.0072);
#549=CYLINDRICAL_SURFACE('',#609,0.0092);
#550=CYLINDRICAL_SURFACE('',#613,0.0093);
#551=CYLINDRICAL_SURFACE('',#617,0.0092);
#552=CYLINDRICAL_SURFACE('',#621,0.0072);
#553=CYLINDRICAL_SURFACE('',#642,0.0005);
#554=CYLINDRICAL_SURFACE('',#645,0.0005);
#555=CYLINDRICAL_SURFACE('',#648,0.0109);
#556=CYLINDRICAL_SURFACE('',#649,0.001);
#557=CYLINDRICAL_SURFACE('',#650,0.0109);
#558=ADVANCED_FACE('',(#514),#544,.F.);
#559=ADVANCED_FACE('',(#515),#545,.T.);
#560=ADVANCED_FACE('',(#516),#546,.T.);
#561=ADVANCED_FACE('',(#517),#547,.T.);
#562=ADVANCED_FACE('',(#518),#548,.F.);
#563=ADVANCED_FACE('',(#519),#20,.F.);
#564=ADVANCED_FACE('',(#520),#549,.F.);
#565=ADVANCED_FACE('',(#521),#21,.F.);
#566=ADVANCED_FACE('',(#522),#550,.F.);
#567=ADVANCED_FACE('',(#523),#22,.F.);
#568=ADVANCED_FACE('',(#524),#551,.F.);
#569=ADVANCED_FACE('',(#525),#23,.F.);
#570=ADVANCED_FACE('',(#526),#552,.F.);
#571=ADVANCED_FACE('',(#527),#24,.F.);
#572=ADVANCED_FACE('',(#528),#25,.F.);
#573=ADVANCED_FACE('',(#529),#26,.F.);
#574=ADVANCED_FACE('',(#530),#27,.F.);
#575=ADVANCED_FACE('',(#531),#28,.F.);
#576=ADVANCED_FACE('',(#532),#29,.T.);
#577=ADVANCED_FACE('',(#533),#30,.F.);
#578=ADVANCED_FACE('',(#534),#31,.F.);
#579=ADVANCED_FACE('',(#535),#553,.F.);
#580=ADVANCED_FACE('',(#536),#32,.F.);
#581=ADVANCED_FACE('',(#537),#33,.F.);
#582=ADVANCED_FACE('',(#538),#554,.F.);
#583=ADVANCED_FACE('',(#539),#34,.F.);
#584=ADVANCED_FACE('',(#540),#35,.F.);
#585=ADVANCED_FACE('',(#541),#555,.T.);
#586=ADVANCED_FACE('',(#542),#556,.T.);
#587=ADVANCED_FACE('',(#543),#557,.T.);
#588=CLOSED_SHELL('',(#558,#559,#560,#561,#562,#563,#564,#565,#566,#567,
#568,#569,#570,#571,#572,#573,#574,#575,#576,#577,#578,#579,#580,#581,#582,
#583,#584,#585,#586,#587));
#589=MANIFOLD_SOLID_BREP('',#588);
#590=SHAPE_DEFINITION_REPRESENTATION(#1001,#591);
#591=SHAPE_REPRESENTATION('id2',(#592),#996);
#592=AXIS2_PLACEMENT_3D('',#825,#651,#652);
#593=AXIS2_PLACEMENT_3D('',#826,#653,#654);
#594=AXIS2_PLACEMENT_3D('',#830,#656,#657);
#595=AXIS2_PLACEMENT_3D('',#834,#659,#660);
#596=AXIS2_PLACEMENT_3D('',#835,#661,#662);
#597=AXIS2_PLACEMENT_3D('',#836,#663,#664);
#598=AXIS2_PLACEMENT_3D('',#841,#666,#667);
#599=AXIS2_PLACEMENT_3D('',#844,#669,#670);
#600=AXIS2_PLACEMENT_3D('',#845,#671,#672);
#601=AXIS2_PLACEMENT_3D('',#850,#674,#675);
#602=AXIS2_PLACEMENT_3D('',#853,#677,#678);
#603=AXIS2_PLACEMENT_3D('',#854,#679,#680);
#604=AXIS2_PLACEMENT_3D('',#859,#682,#683);
#605=AXIS2_PLACEMENT_3D('',#862,#685,#686);
#606=AXIS2_PLACEMENT_3D('',#863,#687,#688);
#607=AXIS2_PLACEMENT_3D('',#868,#690,#691);
#608=AXIS2_PLACEMENT_3D('',#871,#693,#694);
#609=AXIS2_PLACEMENT_3D('',#877,#698,#699);
#610=AXIS2_PLACEMENT_3D('',#878,#700,#701);
#611=AXIS2_PLACEMENT_3D('',#882,#703,#704);
#612=AXIS2_PLACEMENT_3D('',#883,#705,#706);
#613=AXIS2_PLACEMENT_3D('',#889,#710,#711);
#614=AXIS2_PLACEMENT_3D('',#890,#712,#713);
#615=AXIS2_PLACEMENT_3D('',#894,#715,#716);
#616=AXIS2_PLACEMENT_3D('',#895,#717,#718);
#617=AXIS2_PLACEMENT_3D('',#901,#722,#723);
#618=AXIS2_PLACEMENT_3D('',#902,#724,#725);
#619=AXIS2_PLACEMENT_3D('',#906,#727,#728);
#620=AXIS2_PLACEMENT_3D('',#907,#729,#730);
#621=AXIS2_PLACEMENT_3D('',#913,#734,#735);
#622=AXIS2_PLACEMENT_3D('',#914,#736,#737);
#623=AXIS2_PLACEMENT_3D('',#918,#739,#740);
#624=AXIS2_PLACEMENT_3D('',#919,#741,#742);
#625=AXIS2_PLACEMENT_3D('',#925,#746,#747);
#626=AXIS2_PLACEMENT_3D('',#931,#751,#752);
#627=AXIS2_PLACEMENT_3D('',#940,#757,#758);
#628=AXIS2_PLACEMENT_3D('',#943,#761,#762);
#629=AXIS2_PLACEMENT_3D('',#944,#763,#764);
#630=AXIS2_PLACEMENT_3D('',#948,#767,#768);
#631=AXIS2_PLACEMENT_3D('',#953,#771,#772);
#632=AXIS2_PLACEMENT_3D('',#958,#775,#776);
#633=AXIS2_PLACEMENT_3D('',#960,#777,#778);
#634=AXIS2_PLACEMENT_3D('',#961,#779,#780);
#635=AXIS2_PLACEMENT_3D('',#962,#781,#782);
#636=AXIS2_PLACEMENT_3D('',#963,#783,#784);
#637=AXIS2_PLACEMENT_3D('',#965,#785,#786);
#638=AXIS2_PLACEMENT_3D('',#970,#789,#790);
#639=AXIS2_PLACEMENT_3D('',#975,#793,#794);
#640=AXIS2_PLACEMENT_3D('',#979,#797,#798);
#641=AXIS2_PLACEMENT_3D('',#980,#799,#800);
#642=AXIS2_PLACEMENT_3D('',#982,#802,#803);
#643=AXIS2_PLACEMENT_3D('',#984,#805,#806);
#644=AXIS2_PLACEMENT_3D('',#985,#807,#808);
#645=AXIS2_PLACEMENT_3D('',#987,#810,#811);
#646=AXIS2_PLACEMENT_3D('',#989,#813,#814);
#647=AXIS2_PLACEMENT_3D('',#990,#815,#816);
#648=AXIS2_PLACEMENT_3D('',#992,#818,#819);
#649=AXIS2_PLACEMENT_3D('',#994,#821,#822);
#650=AXIS2_PLACEMENT_3D('',#995,#823,#824);
#651=DIRECTION('',(0.,0.,1.));
#652=DIRECTION('',(1.,0.,0.));
#653=DIRECTION('',(0.,0.,1.));
#654=DIRECTION('',(1.,0.,0.));
#655=DIRECTION('',(0.,0.,1.));
#656=DIRECTION('',(0.,0.,-1.));
#657=DIRECTION('',(-1.,0.,0.));
#658=DIRECTION('',(0.,0.,1.));
#659=DIRECTION('',(0.,0.,1.));
#660=DIRECTION('',(0.382683432365087,0.923879532511288,0.));
#661=DIRECTION('',(0.,0.,-1.));
#662=DIRECTION('',(-1.,0.,0.));
#663=DIRECTION('',(0.,0.,1.));
#664=DIRECTION('',(1.,0.,0.));
#665=DIRECTION('',(0.,0.,1.));
#666=DIRECTION('',(0.,0.,1.));
#667=DIRECTION('',(1.,0.,0.));
#668=DIRECTION('',(0.,0.,1.));
#669=DIRECTION('',(0.,0.,-1.));
#670=DIRECTION('',(-1.,0.,0.));
#671=DIRECTION('',(0.,0.,1.));
#672=DIRECTION('',(1.,0.,0.));
#673=DIRECTION('',(0.,0.,1.));
#674=DIRECTION('',(0.,0.,1.));
#675=DIRECTION('',(1.,0.,0.));
#676=DIRECTION('',(0.,0.,1.));
#677=DIRECTION('',(0.,0.,-1.));
#678=DIRECTION('',(-1.,0.,0.));
#679=DIRECTION('',(0.,0.,1.));
#680=DIRECTION('',(1.,0.,0.));
#681=DIRECTION('',(0.,0.,1.));
#682=DIRECTION('',(0.,0.,1.));
#683=DIRECTION('',(1.,0.,0.));
#684=DIRECTION('',(0.,0.,1.));
#685=DIRECTION('',(0.,0.,-1.));
#686=DIRECTION('',(-1.,0.,0.));
#687=DIRECTION('',(0.,0.,-1.));
#688=DIRECTION('',(-1.,0.,0.));
#689=DIRECTION('',(0.,0.,-1.));
#690=DIRECTION('',(0.,0.,-1.));
#691=DIRECTION('',(-1.,0.,0.));
#692=DIRECTION('',(0.,0.,-1.));
#693=DIRECTION('',(0.866025403784438,0.5,0.));
#694=DIRECTION('',(-0.5,0.866025403784438,0.));
#695=DIRECTION('',(0.5,-0.866025403784438,0.));
#696=DIRECTION('',(0.,0.,-1.));
#697=DIRECTION('',(0.5,-0.866025403784438,0.));
#698=DIRECTION('',(0.,0.,-1.));
#699=DIRECTION('',(-1.,0.,0.));
#700=DIRECTION('',(0.,0.,-1.));
#701=DIRECTION('',(1.,0.,0.));
#702=DIRECTION('',(0.,0.,-1.));
#703=DIRECTION('',(0.,0.,-1.));
#704=DIRECTION('',(1.,0.,0.));
#705=DIRECTION('',(1.,0.,0.));
#706=DIRECTION('',(0.,0.,-1.));
#707=DIRECTION('',(0.,-1.,0.));
#708=DIRECTION('',(0.,0.,-1.));
#709=DIRECTION('',(0.,-1.,0.));
#710=DIRECTION('',(0.,0.,-1.));
#711=DIRECTION('',(-1.,0.,0.));
#712=DIRECTION('',(0.,0.,-1.));
#713=DIRECTION('',(1.,0.,0.));
#714=DIRECTION('',(0.,0.,-1.));
#715=DIRECTION('',(0.,0.,-1.));
#716=DIRECTION('',(1.,0.,0.));
#717=DIRECTION('',(-1.,0.,0.));
#718=DIRECTION('',(0.,0.,1.));
#719=DIRECTION('',(0.,1.,0.));
#720=DIRECTION('',(0.,0.,-1.));
#721=DIRECTION('',(0.,1.,0.));
#722=DIRECTION('',(0.,0.,-1.));
#723=DIRECTION('',(-1.,0.,0.));
#724=DIRECTION('',(0.,0.,-1.));
#725=DIRECTION('',(1.,0.,0.));
#726=DIRECTION('',(0.,0.,-1.));
#727=DIRECTION('',(0.,0.,-1.));
#728=DIRECTION('',(1.,0.,0.));
#729=DIRECTION('',(-0.866025403784438,0.5,0.));
#730=DIRECTION('',(-0.5,-0.866025403784438,0.));
#731=DIRECTION('',(0.5,0.866025403784438,0.));
#732=DIRECTION('',(0.,0.,-1.));
#733=DIRECTION('',(0.5,0.866025403784438,0.));
#734=DIRECTION('',(0.,0.,-1.));
#735=DIRECTION('',(-1.,0.,0.));
#736=DIRECTION('',(0.,0.,-1.));
#737=DIRECTION('',(1.,0.,0.));
#738=DIRECTION('',(0.,0.,-1.));
#739=DIRECTION('',(0.,0.,-1.));
#740=DIRECTION('',(1.,0.,0.));
#741=DIRECTION('',(6.97999979618284E-16,-1.,0.));
#742=DIRECTION('',(1.,6.97999979618284E-16,0.));
#743=DIRECTION('',(-1.,-6.97999979618284E-16,0.));
#744=DIRECTION('',(0.,0.,-1.));
#745=DIRECTION('',(-1.,-6.97999979618284E-16,0.));
#746=DIRECTION('',(0.461748613235031,-0.887010833178223,0.));
#747=DIRECTION('',(0.887010833178223,0.461748613235031,0.));
#748=DIRECTION('',(-0.887010833178223,-0.461748613235031,0.));
#749=DIRECTION('',(0.,0.,1.));
#750=DIRECTION('',(-0.887010833178223,-0.461748613235031,0.));
#751=DIRECTION('',(-0.461748613235032,-0.887010833178223,0.));
#752=DIRECTION('',(0.887010833178223,-0.461748613235032,0.));
#753=DIRECTION('',(-0.887010833178223,0.461748613235032,0.));
#754=DIRECTION('',(0.,0.,1.));
#755=DIRECTION('',(-0.887010833178223,0.461748613235032,0.));
#756=DIRECTION('',(0.,0.,-1.));
#757=DIRECTION('',(-3.48999989809142E-16,-1.,0.));
#758=DIRECTION('',(1.,-3.48999989809142E-16,0.));
#759=DIRECTION('',(-1.,3.48999989809142E-16,0.));
#760=DIRECTION('',(-1.,3.48999989809142E-16,0.));
#761=DIRECTION('',(0.,0.,-1.));
#762=DIRECTION('',(-1.,0.,0.));
#763=DIRECTION('',(0.,0.,-1.));
#764=DIRECTION('',(1.,0.,0.));
#765=DIRECTION('',(-0.27982901403099,0.960049854385929,0.));
#766=DIRECTION('',(-0.461748613235031,-0.887010833178223,0.));
#767=DIRECTION('',(0.,0.,1.));
#768=DIRECTION('',(0.195090322016125,0.980785280403231,0.));
#769=DIRECTION('',(-0.461748613235033,0.887010833178222,0.));
#770=DIRECTION('',(-0.279829014030988,-0.96004985438593,0.));
#771=DIRECTION('',(0.,0.,1.));
#772=DIRECTION('',(-3.49148133884313E-15,1.,0.));
#773=DIRECTION('',(-0.625923472184058,0.779884483092882,0.));
#774=DIRECTION('',(-0.0871557427476539,-0.996194698091746,0.));
#775=DIRECTION('',(0.,0.,-1.));
#776=DIRECTION('',(-1.,0.,0.));
#777=DIRECTION('',(0.,0.,-1.));
#778=DIRECTION('',(-1.,0.,0.));
#779=DIRECTION('',(0.,0.,-1.));
#780=DIRECTION('',(-1.,0.,0.));
#781=DIRECTION('',(0.,0.,-1.));
#782=DIRECTION('',(-1.,0.,0.));
#783=DIRECTION('',(0.,0.,-1.));
#784=DIRECTION('',(-1.,0.,0.));
#785=DIRECTION('',(0.,0.,-1.));
#786=DIRECTION('',(-1.,0.,0.));
#787=DIRECTION('',(-0.0871557427476539,-0.996194698091746,0.));
#788=DIRECTION('',(-0.625923472184058,0.779884483092882,0.));
#789=DIRECTION('',(0.,0.,-1.));
#790=DIRECTION('',(-1.,0.,0.));
#791=DIRECTION('',(-0.279829014030988,-0.96004985438593,0.));
#792=DIRECTION('',(-0.461748613235033,0.887010833178222,0.));
#793=DIRECTION('',(0.,0.,-1.));
#794=DIRECTION('',(-1.,0.,0.));
#795=DIRECTION('',(-0.461748613235031,-0.887010833178223,0.));
#796=DIRECTION('',(-0.27982901403099,0.960049854385929,0.));
#797=DIRECTION('',(0.960049854385929,0.27982901403099,0.));
#798=DIRECTION('',(-0.27982901403099,0.960049854385929,0.));
#799=DIRECTION('',(-0.887010833178223,0.461748613235031,0.));
#800=DIRECTION('',(-0.461748613235031,-0.887010833178223,0.));
#801=DIRECTION('',(0.,0.,1.));
#802=DIRECTION('',(0.,0.,1.));
#803=DIRECTION('',(1.,0.,0.));
#804=DIRECTION('',(0.,0.,1.));
#805=DIRECTION('',(0.887010833178222,0.461748613235033,0.));
#806=DIRECTION('',(-0.461748613235033,0.887010833178222,0.));
#807=DIRECTION('',(-0.96004985438593,0.279829014030988,0.));
#808=DIRECTION('',(-0.279829014030988,-0.96004985438593,0.));
#809=DIRECTION('',(0.,0.,1.));
#810=DIRECTION('',(0.,0.,1.));
#811=DIRECTION('',(1.,0.,0.));
#812=DIRECTION('',(0.,0.,1.));
#813=DIRECTION('',(0.779884483092882,0.625923472184058,0.));
#814=DIRECTION('',(-0.625923472184058,0.779884483092882,0.));
#815=DIRECTION('',(-0.996194698091746,0.0871557427476539,0.));
#816=DIRECTION('',(-0.0871557427476539,-0.996194698091746,0.));
#817=DIRECTION('',(0.,0.,1.));
#818=DIRECTION('',(0.,0.,1.));
#819=DIRECTION('',(1.,0.,0.));
#820=DIRECTION('',(0.,0.,1.));
#821=DIRECTION('',(0.,0.,1.));
#822=DIRECTION('',(1.,0.,0.));
#823=DIRECTION('',(0.,0.,1.));
#824=DIRECTION('',(1.,0.,0.));
#825=CARTESIAN_POINT('',(0.,0.,0.));
#826=CARTESIAN_POINT('',(0.00270695605514835,-0.0110739509171522,-1.00000000000002E-6));
#827=CARTESIAN_POINT('',(0.00258822991237867,-0.0105882513155227,-1.00000000000002E-6));
#828=CARTESIAN_POINT('',(0.00258822991237867,-0.0105882513155227,0.));
#829=CARTESIAN_POINT('',(0.00258822991237867,-0.0105882513155227,0.0005));
#830=CARTESIAN_POINT('',(0.00270695605514835,-0.0110739509171522,0.));
#831=CARTESIAN_POINT('',(0.00318698098234131,-0.0109340364101367,0.));
#832=CARTESIAN_POINT('',(0.00318698098234131,-0.0109340364101367,-1.00000000000002E-6));
#833=CARTESIAN_POINT('',(0.00318698098234131,-0.0109340364101367,0.0005));
#834=CARTESIAN_POINT('',(0.00270695605514835,-0.0110739509171522,0.0005));
#835=CARTESIAN_POINT('',(0.,0.,0.0005));
#836=CARTESIAN_POINT('',(0.,0.,0.));
#837=CARTESIAN_POINT('',(0.00757367401342711,-0.00943660224542387,0.));
#838=CARTESIAN_POINT('',(0.00776317902804415,-0.00928132810423893,0.));
#839=CARTESIAN_POINT('',(0.00776317902804415,-0.00928132810423893,-1.00000000000002E-6));
#840=CARTESIAN_POINT('',(0.00776317902804415,-0.00928132810423893,0.0005));
#841=CARTESIAN_POINT('',(0.,0.,0.0005));
#842=CARTESIAN_POINT('',(0.00757367401342711,-0.00943660224542387,0.0005));
#843=CARTESIAN_POINT('',(0.00757367401342711,-0.00943660224542387,-1.00000000000002E-6));
#844=CARTESIAN_POINT('',(0.,0.,0.0005));
#845=CARTESIAN_POINT('',(0.,0.,0.));
#846=CARTESIAN_POINT('',(0.0055871582201439,-0.0107328310814565,0.));
#847=CARTESIAN_POINT('',(0.00580331443124744,-0.0106175110836804,0.));
#848=CARTESIAN_POINT('',(0.00580331443124744,-0.0106175110836804,-1.00000000000002E-6));
#849=CARTESIAN_POINT('',(0.00580331443124744,-0.0106175110836804,0.0005));
#850=CARTESIAN_POINT('',(0.,0.,0.0005));
#851=CARTESIAN_POINT('',(0.0055871582201439,-0.0107328310814565,0.0005));
#852=CARTESIAN_POINT('',(0.0055871582201439,-0.0107328310814565,-1.00000000000002E-6));
#853=CARTESIAN_POINT('',(0.,0.,0.0005));
#854=CARTESIAN_POINT('',(0.,0.,0.));
#855=CARTESIAN_POINT('',(0.00338593106977499,-0.0116166032380697,0.));
#856=CARTESIAN_POINT('',(0.00362043171539412,-0.0115456690665448,0.));
#857=CARTESIAN_POINT('',(0.00362043171539412,-0.0115456690665448,-1.00000000000002E-6));
#858=CARTESIAN_POINT('',(0.00362043171539412,-0.0115456690665448,0.0005));
#859=CARTESIAN_POINT('',(0.,0.,0.0005));
#860=CARTESIAN_POINT('',(0.00338593106977499,-0.0116166032380697,0.0005));
#861=CARTESIAN_POINT('',(0.00338593106977499,-0.0116166032380697,-1.00000000000002E-6));
#862=CARTESIAN_POINT('',(0.,0.,0.0005));
#863=CARTESIAN_POINT('',(0.,0.,0.));
#864=CARTESIAN_POINT('',(0.00577494588719236,-0.0043,0.));
#865=CARTESIAN_POINT('',(0.00553923133011576,-0.0045996647999027,0.));
#866=CARTESIAN_POINT('',(0.00553923133011576,-0.0045996647999027,0.0005));
#867=CARTESIAN_POINT('',(0.00553923133011576,-0.0045996647999027,0.0005));
#868=CARTESIAN_POINT('',(0.,0.,0.0005));
#869=CARTESIAN_POINT('',(0.00577494588719236,-0.0043,0.0005));
#870=CARTESIAN_POINT('',(0.00577494588719236,-0.0043,0.0005));
#871=CARTESIAN_POINT('',(0.00553923133011576,-0.0045996647999027,0.0005));
#872=CARTESIAN_POINT('',(0.00553923133011576,-0.0045996647999027,0.));
#873=CARTESIAN_POINT('',(0.00659,-0.00641964952314377,0.));
#874=CARTESIAN_POINT('',(0.00659,-0.00641964952314377,0.0005));
#875=CARTESIAN_POINT('',(0.00659,-0.00641964952314377,0.0005));
#876=CARTESIAN_POINT('',(0.00553923133011576,-0.0045996647999027,0.0005));
#877=CARTESIAN_POINT('',(0.,0.,0.0005));
#878=CARTESIAN_POINT('',(0.,0.,0.));
#879=CARTESIAN_POINT('',(0.005,-0.00772269383052313,0.));
#880=CARTESIAN_POINT('',(0.005,-0.00772269383052313,0.0005));
#881=CARTESIAN_POINT('',(0.005,-0.00772269383052313,0.0005));
#882=CARTESIAN_POINT('',(0.,0.,0.0005));
#883=CARTESIAN_POINT('',(0.005,-0.00772269383052313,0.0005));
#884=CARTESIAN_POINT('',(0.005,-0.00772269383052313,0.));
#885=CARTESIAN_POINT('',(0.005,-0.00784155596804614,0.));
#886=CARTESIAN_POINT('',(0.005,-0.00784155596804614,0.0005));
#887=CARTESIAN_POINT('',(0.005,-0.00784155596804614,0.0005));
#888=CARTESIAN_POINT('',(0.005,-0.00772269383052313,0.0005));
#889=CARTESIAN_POINT('',(0.,0.,0.0005));
#890=CARTESIAN_POINT('',(0.,0.,0.));
#891=CARTESIAN_POINT('',(-0.005,-0.00784155596804614,0.));
#892=CARTESIAN_POINT('',(-0.005,-0.00784155596804614,0.0005));
#893=CARTESIAN_POINT('',(-0.005,-0.00784155596804614,0.0005));
#894=CARTESIAN_POINT('',(0.,0.,0.0005));
#895=CARTESIAN_POINT('',(-0.005,-0.00772269383052313,0.0005));
#896=CARTESIAN_POINT('',(-0.005,-0.00772269383052313,0.));
#897=CARTESIAN_POINT('',(-0.005,-0.00772269383052313,0.));
#898=CARTESIAN_POINT('',(-0.005,-0.00772269383052313,0.0005));
#899=CARTESIAN_POINT('',(-0.005,-0.00772269383052313,0.0005));
#900=CARTESIAN_POINT('',(-0.005,-0.00772269383052313,0.0005));
#901=CARTESIAN_POINT('',(0.,0.,0.0005));
#902=CARTESIAN_POINT('',(0.,0.,0.));
#903=CARTESIAN_POINT('',(-0.00659,-0.00641964952314377,0.));
#904=CARTESIAN_POINT('',(-0.00659,-0.00641964952314377,0.0005));
#905=CARTESIAN_POINT('',(-0.00659,-0.00641964952314377,0.0005));
#906=CARTESIAN_POINT('',(0.,0.,0.0005));
#907=CARTESIAN_POINT('',(-0.00553923133011576,-0.0045996647999027,0.0005));
#908=CARTESIAN_POINT('',(-0.00553923133011576,-0.0045996647999027,0.));
#909=CARTESIAN_POINT('',(-0.00553923133011576,-0.0045996647999027,0.));
#910=CARTESIAN_POINT('',(-0.00553923133011576,-0.0045996647999027,0.0005));
#911=CARTESIAN_POINT('',(-0.00553923133011576,-0.0045996647999027,0.0005));
#912=CARTESIAN_POINT('',(-0.00553923133011576,-0.0045996647999027,0.0005));
#913=CARTESIAN_POINT('',(0.,0.,0.0005));
#914=CARTESIAN_POINT('',(0.,0.,0.));
#915=CARTESIAN_POINT('',(-0.00577494588719236,-0.0043,0.));
#916=CARTESIAN_POINT('',(-0.00577494588719236,-0.0043,0.0005));
#917=CARTESIAN_POINT('',(-0.00577494588719236,-0.0043,0.0005));
#918=CARTESIAN_POINT('',(0.,0.,0.0005));
#919=CARTESIAN_POINT('',(-0.00826022314597606,-0.0043,0.0005));
#920=CARTESIAN_POINT('',(-0.00826022314597606,-0.0043,0.));
#921=CARTESIAN_POINT('',(-0.00826022314597606,-0.0043,0.));
#922=CARTESIAN_POINT('',(-0.00826022314597606,-0.0043,0.0005));
#923=CARTESIAN_POINT('',(-0.00826022314597606,-0.0043,0.0005));
#924=CARTESIAN_POINT('',(-0.00826022314597606,-0.0043,0.0005));
#925=CARTESIAN_POINT('',(-0.00826022314597606,-0.0043,0.0005));
#926=CARTESIAN_POINT('',(-0.00826022314597606,-0.0043,0.));
#927=CARTESIAN_POINT('',(-0.00966841808164263,-0.00503305988426184,0.));
#928=CARTESIAN_POINT('',(-0.00966841808164263,-0.00503305988426184,-1.00000000000002E-6));
#929=CARTESIAN_POINT('',(-0.00966841808164263,-0.00503305988426184,0.0005));
#930=CARTESIAN_POINT('',(-0.00826022314597606,-0.0043,0.0005));
#931=CARTESIAN_POINT('',(0.00826022314597607,-0.0043,0.0005));
#932=CARTESIAN_POINT('',(0.00826022314597607,-0.0043,0.0005));
#933=CARTESIAN_POINT('',(0.00873649386454358,-0.00454793084322885,0.0005));
#934=CARTESIAN_POINT('',(0.00826022314597607,-0.0043,0.0005));
#935=CARTESIAN_POINT('',(0.00873649386454358,-0.00454793084322885,0.0005));
#936=CARTESIAN_POINT('',(0.00873649386454358,-0.00454793084322885,0.));
#937=CARTESIAN_POINT('',(0.00826022314597607,-0.0043,0.));
#938=CARTESIAN_POINT('',(0.00826022314597607,-0.0043,0.));
#939=CARTESIAN_POINT('',(0.00826022314597607,-0.0043,0.0005));
#940=CARTESIAN_POINT('',(0.00577494588719236,-0.0043,0.0005));
#941=CARTESIAN_POINT('',(0.00577494588719236,-0.0043,0.));
#942=CARTESIAN_POINT('',(0.00577494588719236,-0.0043,0.0005));
#943=CARTESIAN_POINT('',(0.,0.,0.0005));
#944=CARTESIAN_POINT('',(0.,0.,0.0005));
#945=CARTESIAN_POINT('',(0.00318698098234131,-0.0109340364101367,0.0005));
#946=CARTESIAN_POINT('',(0.00362043171539412,-0.0115456690665448,0.0005));
#947=CARTESIAN_POINT('',(0.00437185788741681,-0.0101021928203508,0.0005));
#948=CARTESIAN_POINT('',(0.00481536330400592,-0.0103330671269683,0.0005));
#949=CARTESIAN_POINT('',(0.00525886872059503,-0.0101021928203508,0.0005));
#950=CARTESIAN_POINT('',(0.00525886872059503,-0.0101021928203508,0.0005));
#951=CARTESIAN_POINT('',(0.00580331443124744,-0.0106175110836804,0.0005));
#952=CARTESIAN_POINT('',(0.00625869391438443,-0.00905517485493036,0.0005));
#953=CARTESIAN_POINT('',(0.00673871884157739,-0.00919508936194586,0.0005));
#954=CARTESIAN_POINT('',(0.00712866108312383,-0.00888212762585383,0.0005));
#955=CARTESIAN_POINT('',(0.00712866108312383,-0.00888212762585383,0.0005));
#956=CARTESIAN_POINT('',(0.00776317902804415,-0.00928132810423893,0.0005));
#957=CARTESIAN_POINT('',(0.00791999592597633,-0.00748890275891725,0.0005));
#958=CARTESIAN_POINT('',(0.,0.,0.0005));
#959=CARTESIAN_POINT('',(0.00911057810497608,-0.00598392568412496,0.0005));
#960=CARTESIAN_POINT('',(0.00827474525130855,-0.00543494167640707,0.0005));
#961=CARTESIAN_POINT('',(0.,0.,0.));
#962=CARTESIAN_POINT('',(0.,0.,0.));
#963=CARTESIAN_POINT('',(0.00827474525130855,-0.00543494167640707,0.));
#964=CARTESIAN_POINT('',(0.00911057810497608,-0.00598392568412496,0.));
#965=CARTESIAN_POINT('',(0.,0.,0.));
#966=CARTESIAN_POINT('',(0.00791999592597633,-0.00748890275891725,0.));
#967=CARTESIAN_POINT('',(0.00776317902804415,-0.00928132810423893,0.));
#968=CARTESIAN_POINT('',(0.00712866108312383,-0.00888212762585383,0.));
#969=CARTESIAN_POINT('',(0.00712866108312383,-0.00888212762585383,0.));
#970=CARTESIAN_POINT('',(0.00673871884157739,-0.00919508936194586,0.));
#971=CARTESIAN_POINT('',(0.00625869391438443,-0.00905517485493036,0.));
#972=CARTESIAN_POINT('',(0.00580331443124744,-0.0106175110836804,0.));
#973=CARTESIAN_POINT('',(0.00525886872059503,-0.0101021928203508,0.));
#974=CARTESIAN_POINT('',(0.00525886872059503,-0.0101021928203508,0.));
#975=CARTESIAN_POINT('',(0.00481536330400592,-0.0103330671269683,0.));
#976=CARTESIAN_POINT('',(0.00437185788741681,-0.0101021928203508,0.));
#977=CARTESIAN_POINT('',(0.00362043171539412,-0.0115456690665448,0.));
#978=CARTESIAN_POINT('',(0.00318698098234131,-0.0109340364101367,0.));
#979=CARTESIAN_POINT('',(0.00318698098234131,-0.0109340364101367,-1.00000000000002E-6));
#980=CARTESIAN_POINT('',(0.00362043171539412,-0.0115456690665448,-1.00000000000002E-6));
#981=CARTESIAN_POINT('',(0.00437185788741681,-0.0101021928203508,-1.00000000000002E-6));
#982=CARTESIAN_POINT('',(0.00481536330400592,-0.0103330671269683,-1.00000000000002E-6));
#983=CARTESIAN_POINT('',(0.00525886872059503,-0.0101021928203508,-1.00000000000002E-6));
#984=CARTESIAN_POINT('',(0.00525886872059503,-0.0101021928203508,-1.00000000000002E-6));
#985=CARTESIAN_POINT('',(0.00580331443124744,-0.0106175110836804,-1.00000000000002E-6));
#986=CARTESIAN_POINT('',(0.00625869391438443,-0.00905517485493036,-1.00000000000002E-6));
#987=CARTESIAN_POINT('',(0.00673871884157739,-0.00919508936194586,-1.00000000000002E-6));
#988=CARTESIAN_POINT('',(0.00712866108312383,-0.00888212762585383,-1.00000000000002E-6));
#989=CARTESIAN_POINT('',(0.00712866108312383,-0.00888212762585383,-1.00000000000002E-6));
#990=CARTESIAN_POINT('',(0.00776317902804415,-0.00928132810423893,-1.00000000000002E-6));
#991=CARTESIAN_POINT('',(0.00791999592597633,-0.00748890275891725,-1.00000000000002E-6));
#992=CARTESIAN_POINT('',(0.,0.,-1.00000000000002E-6));
#993=CARTESIAN_POINT('',(0.00911057810497608,-0.00598392568412496,-1.00000000000002E-6));
#994=CARTESIAN_POINT('',(0.00827474525130855,-0.00543494167640707,-1.00000000000002E-6));
#995=CARTESIAN_POINT('',(0.,0.,-1.00000000000002E-6));
#996=(
GEOMETRIC_REPRESENTATION_CONTEXT(3)
GLOBAL_UNCERTAINTY_ASSIGNED_CONTEXT((#997))
GLOBAL_UNIT_ASSIGNED_CONTEXT((#1000,#999,#998))
REPRESENTATION_CONTEXT('id2','TOP_LEVEL_ASSEMBLY_PART')
);
#997=UNCERTAINTY_MEASURE_WITH_UNIT(LENGTH_MEASURE(1.E-8),#1000,
'DISTANCE_ACCURACY_VALUE','Maximum Tolerance applied to model');
#998=(
NAMED_UNIT(*)
SI_UNIT($,.STERADIAN.)
SOLID_ANGLE_UNIT()
);
#999=(
NAMED_UNIT(*)
PLANE_ANGLE_UNIT()
SI_UNIT($,.RADIAN.)
);
#1000=(
LENGTH_UNIT()
NAMED_UNIT(*)
SI_UNIT($,.METRE.)
);
#1001=PRODUCT_DEFINITION_SHAPE('','',#1002);
#1002=PRODUCT_DEFINITION('','',#1004,#1003);
#1003=DESIGN_CONTEXT('',#1010,'design');
#1004=PRODUCT_DEFINITION_FORMATION_WITH_SPECIFIED_SOURCE('','',#1006,
 .NOT_KNOWN.);
#1005=PRODUCT_RELATED_PRODUCT_CATEGORY('','',(#1006));
#1006=PRODUCT('id2','id2','id2',(#1008));
#1007=PRODUCT_CATEGORY('','');
#1008=MECHANICAL_CONTEXT('',#1010,'mechanical');
#1009=APPLICATION_PROTOCOL_DEFINITION('international standard',
'config_control_design',2010,#1010);
#1010=APPLICATION_CONTEXT(
'configuration controlled 3D designs of mechanical parts and assemblie
s');
ENDSEC;
END-ISO-10303-21;
