ISO-10303-21;
HEADER;
/* Generated by software containing ST-Developer
 * from STEP Tools, Inc. (www.steptools.com) 
 */
/* OPTION: using custom renumber hook */

FILE_DESCRIPTION(
/* description */ ('STEP AP203'),
/* implementation_level */ '2;1');

FILE_NAME(
/* name */ '6a5464eac707001bd729ade0',
/* time_stamp */ '2026-07-13T04:09:14Z',
/* author */ (''),
/* organization */ (''),
/* preprocessor_version */ 'ST-DEVELOPER v20',
/* originating_system */ 'ONSHAPE BY PTC INC, 1.217',
/* authorisation */ '  ');

FILE_SCHEMA (('CONFIG_CONTROL_DESIGN'));
ENDSEC;

DATA;
#10=PROPERTY_DEFINITION_REPRESENTATION(#14,#12);
#11=PROPERTY_DEFINITION_REPRESENTATION(#15,#13);
#12=REPRESENTATION('',(#16),#1404);
#13=REPRESENTATION('',(#17),#1404);
#14=PROPERTY_DEFINITION('pmi validation property','',#1409);
#15=PROPERTY_DEFINITION('pmi validation property','',#1409);
#16=VALUE_REPRESENTATION_ITEM('number of annotations',COUNT_MEASURE(0.));
#17=VALUE_REPRESENTATION_ITEM('number of views',COUNT_MEASURE(0.));
#18=SHAPE_REPRESENTATION_RELATIONSHIP('','',#831,#19);
#19=ADVANCED_BREP_SHAPE_REPRESENTATION('',(#829),#1404);
#20=PLANE('',#857);
#21=PLANE('',#861);
#22=PLANE('',#865);
#23=PLANE('',#869);
#24=PLANE('',#873);
#25=PLANE('',#874);
#26=PLANE('',#875);
#27=PLANE('',#876);
#28=PLANE('',#877);
#29=PLANE('',#886);
#30=PLANE('',#895);
#31=PLANE('',#896);
#32=PLANE('',#898);
#33=PLANE('',#899);
#34=PLANE('',#901);
#35=PLANE('',#902);
#36=PLANE('',#904);
#37=PLANE('',#905);
#38=PLANE('',#907);
#39=PLANE('',#908);
#40=PLANE('',#910);
#41=PLANE('',#911);
#42=CIRCLE('',#834,0.0005);
#43=CIRCLE('',#835,0.0005);
#44=CIRCLE('',#837,0.0121);
#45=CIRCLE('',#838,0.0121);
#46=CIRCLE('',#840,0.0121);
#47=CIRCLE('',#841,0.0121);
#48=CIRCLE('',#843,0.0121);
#49=CIRCLE('',#844,0.0121);
#50=CIRCLE('',#846,0.0121);
#51=CIRCLE('',#847,0.0121);
#52=CIRCLE('',#849,0.0121);
#53=CIRCLE('',#850,0.0121);
#54=CIRCLE('',#852,0.0121);
#55=CIRCLE('',#853,0.0121);
#56=CIRCLE('',#855,0.0072);
#57=CIRCLE('',#856,0.0072);
#58=CIRCLE('',#859,0.0092);
#59=CIRCLE('',#860,0.0092);
#60=CIRCLE('',#863,0.0093);
#61=CIRCLE('',#864,0.0093);
#62=CIRCLE('',#867,0.0092);
#63=CIRCLE('',#868,0.0092);
#64=CIRCLE('',#871,0.0072);
#65=CIRCLE('',#872,0.0072);
#66=CIRCLE('',#878,0.0109);
#67=CIRCLE('',#879,0.0005);
#68=CIRCLE('',#880,0.0005);
#69=CIRCLE('',#881,0.0005);
#70=CIRCLE('',#882,0.0005);
#71=CIRCLE('',#883,0.0005);
#72=CIRCLE('',#884,0.0109);
#73=CIRCLE('',#885,0.001);
#74=CIRCLE('',#887,0.0109);
#75=CIRCLE('',#888,0.001);
#76=CIRCLE('',#889,0.0109);
#77=CIRCLE('',#890,0.0005);
#78=CIRCLE('',#891,0.0005);
#79=CIRCLE('',#892,0.0005);
#80=CIRCLE('',#893,0.0005);
#81=CIRCLE('',#894,0.0005);
#82=ORIENTED_EDGE('',*,*,#322,.F.);
#83=ORIENTED_EDGE('',*,*,#323,.F.);
#84=ORIENTED_EDGE('',*,*,#324,.T.);
#85=ORIENTED_EDGE('',*,*,#325,.T.);
#86=ORIENTED_EDGE('',*,*,#326,.T.);
#87=ORIENTED_EDGE('',*,*,#327,.T.);
#88=ORIENTED_EDGE('',*,*,#328,.F.);
#89=ORIENTED_EDGE('',*,*,#329,.F.);
#90=ORIENTED_EDGE('',*,*,#330,.T.);
#91=ORIENTED_EDGE('',*,*,#331,.T.);
#92=ORIENTED_EDGE('',*,*,#332,.F.);
#93=ORIENTED_EDGE('',*,*,#333,.F.);
#94=ORIENTED_EDGE('',*,*,#334,.T.);
#95=ORIENTED_EDGE('',*,*,#335,.T.);
#96=ORIENTED_EDGE('',*,*,#336,.F.);
#97=ORIENTED_EDGE('',*,*,#337,.F.);
#98=ORIENTED_EDGE('',*,*,#338,.T.);
#99=ORIENTED_EDGE('',*,*,#339,.T.);
#100=ORIENTED_EDGE('',*,*,#340,.F.);
#101=ORIENTED_EDGE('',*,*,#341,.F.);
#102=ORIENTED_EDGE('',*,*,#342,.T.);
#103=ORIENTED_EDGE('',*,*,#343,.T.);
#104=ORIENTED_EDGE('',*,*,#344,.F.);
#105=ORIENTED_EDGE('',*,*,#345,.F.);
#106=ORIENTED_EDGE('',*,*,#346,.T.);
#107=ORIENTED_EDGE('',*,*,#347,.T.);
#108=ORIENTED_EDGE('',*,*,#348,.F.);
#109=ORIENTED_EDGE('',*,*,#349,.F.);
#110=ORIENTED_EDGE('',*,*,#350,.T.);
#111=ORIENTED_EDGE('',*,*,#351,.F.);
#112=ORIENTED_EDGE('',*,*,#352,.F.);
#113=ORIENTED_EDGE('',*,*,#353,.T.);
#114=ORIENTED_EDGE('',*,*,#354,.T.);
#115=ORIENTED_EDGE('',*,*,#355,.F.);
#116=ORIENTED_EDGE('',*,*,#356,.F.);
#117=ORIENTED_EDGE('',*,*,#351,.T.);
#118=ORIENTED_EDGE('',*,*,#357,.T.);
#119=ORIENTED_EDGE('',*,*,#358,.F.);
#120=ORIENTED_EDGE('',*,*,#359,.F.);
#121=ORIENTED_EDGE('',*,*,#355,.T.);
#122=ORIENTED_EDGE('',*,*,#360,.T.);
#123=ORIENTED_EDGE('',*,*,#361,.F.);
#124=ORIENTED_EDGE('',*,*,#362,.F.);
#125=ORIENTED_EDGE('',*,*,#358,.T.);
#126=ORIENTED_EDGE('',*,*,#363,.T.);
#127=ORIENTED_EDGE('',*,*,#364,.F.);
#128=ORIENTED_EDGE('',*,*,#365,.F.);
#129=ORIENTED_EDGE('',*,*,#361,.T.);
#130=ORIENTED_EDGE('',*,*,#366,.T.);
#131=ORIENTED_EDGE('',*,*,#367,.F.);
#132=ORIENTED_EDGE('',*,*,#368,.F.);
#133=ORIENTED_EDGE('',*,*,#364,.T.);
#134=ORIENTED_EDGE('',*,*,#369,.T.);
#135=ORIENTED_EDGE('',*,*,#370,.F.);
#136=ORIENTED_EDGE('',*,*,#371,.F.);
#137=ORIENTED_EDGE('',*,*,#367,.T.);
#138=ORIENTED_EDGE('',*,*,#372,.T.);
#139=ORIENTED_EDGE('',*,*,#373,.F.);
#140=ORIENTED_EDGE('',*,*,#374,.F.);
#141=ORIENTED_EDGE('',*,*,#370,.T.);
#142=ORIENTED_EDGE('',*,*,#375,.T.);
#143=ORIENTED_EDGE('',*,*,#376,.F.);
#144=ORIENTED_EDGE('',*,*,#377,.F.);
#145=ORIENTED_EDGE('',*,*,#373,.T.);
#146=ORIENTED_EDGE('',*,*,#378,.T.);
#147=ORIENTED_EDGE('',*,*,#379,.F.);
#148=ORIENTED_EDGE('',*,*,#380,.F.);
#149=ORIENTED_EDGE('',*,*,#376,.T.);
#150=ORIENTED_EDGE('',*,*,#381,.T.);
#151=ORIENTED_EDGE('',*,*,#382,.T.);
#152=ORIENTED_EDGE('',*,*,#383,.F.);
#153=ORIENTED_EDGE('',*,*,#379,.T.);
#154=ORIENTED_EDGE('',*,*,#384,.F.);
#155=ORIENTED_EDGE('',*,*,#385,.T.);
#156=ORIENTED_EDGE('',*,*,#386,.T.);
#157=ORIENTED_EDGE('',*,*,#387,.F.);
#158=ORIENTED_EDGE('',*,*,#388,.T.);
#159=ORIENTED_EDGE('',*,*,#353,.F.);
#160=ORIENTED_EDGE('',*,*,#389,.F.);
#161=ORIENTED_EDGE('',*,*,#387,.T.);
#162=ORIENTED_EDGE('',*,*,#383,.T.);
#163=ORIENTED_EDGE('',*,*,#390,.F.);
#164=ORIENTED_EDGE('',*,*,#325,.F.);
#165=ORIENTED_EDGE('',*,*,#391,.F.);
#166=ORIENTED_EDGE('',*,*,#348,.T.);
#167=ORIENTED_EDGE('',*,*,#392,.F.);
#168=ORIENTED_EDGE('',*,*,#393,.F.);
#169=ORIENTED_EDGE('',*,*,#394,.F.);
#170=ORIENTED_EDGE('',*,*,#344,.T.);
#171=ORIENTED_EDGE('',*,*,#395,.F.);
#172=ORIENTED_EDGE('',*,*,#396,.F.);
#173=ORIENTED_EDGE('',*,*,#397,.F.);
#174=ORIENTED_EDGE('',*,*,#340,.T.);
#175=ORIENTED_EDGE('',*,*,#398,.F.);
#176=ORIENTED_EDGE('',*,*,#399,.F.);
#177=ORIENTED_EDGE('',*,*,#400,.F.);
#178=ORIENTED_EDGE('',*,*,#336,.T.);
#179=ORIENTED_EDGE('',*,*,#401,.F.);
#180=ORIENTED_EDGE('',*,*,#402,.F.);
#181=ORIENTED_EDGE('',*,*,#403,.F.);
#182=ORIENTED_EDGE('',*,*,#332,.T.);
#183=ORIENTED_EDGE('',*,*,#404,.F.);
#184=ORIENTED_EDGE('',*,*,#405,.F.);
#185=ORIENTED_EDGE('',*,*,#406,.F.);
#186=ORIENTED_EDGE('',*,*,#328,.T.);
#187=ORIENTED_EDGE('',*,*,#407,.F.);
#188=ORIENTED_EDGE('',*,*,#408,.F.);
#189=ORIENTED_EDGE('',*,*,#409,.T.);
#190=ORIENTED_EDGE('',*,*,#384,.T.);
#191=ORIENTED_EDGE('',*,*,#389,.T.);
#192=ORIENTED_EDGE('',*,*,#352,.T.);
#193=ORIENTED_EDGE('',*,*,#356,.T.);
#194=ORIENTED_EDGE('',*,*,#359,.T.);
#195=ORIENTED_EDGE('',*,*,#362,.T.);
#196=ORIENTED_EDGE('',*,*,#365,.T.);
#197=ORIENTED_EDGE('',*,*,#368,.T.);
#198=ORIENTED_EDGE('',*,*,#371,.T.);
#199=ORIENTED_EDGE('',*,*,#374,.T.);
#200=ORIENTED_EDGE('',*,*,#377,.T.);
#201=ORIENTED_EDGE('',*,*,#380,.T.);
#202=ORIENTED_EDGE('',*,*,#410,.T.);
#203=ORIENTED_EDGE('',*,*,#381,.F.);
#204=ORIENTED_EDGE('',*,*,#378,.F.);
#205=ORIENTED_EDGE('',*,*,#375,.F.);
#206=ORIENTED_EDGE('',*,*,#372,.F.);
#207=ORIENTED_EDGE('',*,*,#369,.F.);
#208=ORIENTED_EDGE('',*,*,#366,.F.);
#209=ORIENTED_EDGE('',*,*,#363,.F.);
#210=ORIENTED_EDGE('',*,*,#360,.F.);
#211=ORIENTED_EDGE('',*,*,#357,.F.);
#212=ORIENTED_EDGE('',*,*,#354,.F.);
#213=ORIENTED_EDGE('',*,*,#350,.F.);
#214=ORIENTED_EDGE('',*,*,#388,.F.);
#215=ORIENTED_EDGE('',*,*,#386,.F.);
#216=ORIENTED_EDGE('',*,*,#411,.T.);
#217=ORIENTED_EDGE('',*,*,#412,.T.);
#218=ORIENTED_EDGE('',*,*,#413,.T.);
#219=ORIENTED_EDGE('',*,*,#326,.F.);
#220=ORIENTED_EDGE('',*,*,#414,.T.);
#221=ORIENTED_EDGE('',*,*,#415,.T.);
#222=ORIENTED_EDGE('',*,*,#416,.T.);
#223=ORIENTED_EDGE('',*,*,#330,.F.);
#224=ORIENTED_EDGE('',*,*,#417,.T.);
#225=ORIENTED_EDGE('',*,*,#418,.T.);
#226=ORIENTED_EDGE('',*,*,#419,.T.);
#227=ORIENTED_EDGE('',*,*,#334,.F.);
#228=ORIENTED_EDGE('',*,*,#420,.T.);
#229=ORIENTED_EDGE('',*,*,#421,.T.);
#230=ORIENTED_EDGE('',*,*,#422,.T.);
#231=ORIENTED_EDGE('',*,*,#338,.F.);
#232=ORIENTED_EDGE('',*,*,#423,.T.);
#233=ORIENTED_EDGE('',*,*,#424,.T.);
#234=ORIENTED_EDGE('',*,*,#425,.T.);
#235=ORIENTED_EDGE('',*,*,#342,.F.);
#236=ORIENTED_EDGE('',*,*,#426,.T.);
#237=ORIENTED_EDGE('',*,*,#427,.T.);
#238=ORIENTED_EDGE('',*,*,#428,.T.);
#239=ORIENTED_EDGE('',*,*,#346,.F.);
#240=ORIENTED_EDGE('',*,*,#429,.T.);
#241=ORIENTED_EDGE('',*,*,#323,.T.);
#242=ORIENTED_EDGE('',*,*,#349,.T.);
#243=ORIENTED_EDGE('',*,*,#391,.T.);
#244=ORIENTED_EDGE('',*,*,#324,.F.);
#245=ORIENTED_EDGE('',*,*,#429,.F.);
#246=ORIENTED_EDGE('',*,*,#430,.T.);
#247=ORIENTED_EDGE('',*,*,#392,.T.);
#248=ORIENTED_EDGE('',*,*,#347,.F.);
#249=ORIENTED_EDGE('',*,*,#428,.F.);
#250=ORIENTED_EDGE('',*,*,#431,.T.);
#251=ORIENTED_EDGE('',*,*,#393,.T.);
#252=ORIENTED_EDGE('',*,*,#430,.F.);
#253=ORIENTED_EDGE('',*,*,#427,.F.);
#254=ORIENTED_EDGE('',*,*,#345,.T.);
#255=ORIENTED_EDGE('',*,*,#394,.T.);
#256=ORIENTED_EDGE('',*,*,#431,.F.);
#257=ORIENTED_EDGE('',*,*,#426,.F.);
#258=ORIENTED_EDGE('',*,*,#432,.T.);
#259=ORIENTED_EDGE('',*,*,#395,.T.);
#260=ORIENTED_EDGE('',*,*,#343,.F.);
#261=ORIENTED_EDGE('',*,*,#425,.F.);
#262=ORIENTED_EDGE('',*,*,#433,.T.);
#263=ORIENTED_EDGE('',*,*,#396,.T.);
#264=ORIENTED_EDGE('',*,*,#432,.F.);
#265=ORIENTED_EDGE('',*,*,#424,.F.);
#266=ORIENTED_EDGE('',*,*,#341,.T.);
#267=ORIENTED_EDGE('',*,*,#397,.T.);
#268=ORIENTED_EDGE('',*,*,#433,.F.);
#269=ORIENTED_EDGE('',*,*,#423,.F.);
#270=ORIENTED_EDGE('',*,*,#434,.T.);
#271=ORIENTED_EDGE('',*,*,#398,.T.);
#272=ORIENTED_EDGE('',*,*,#339,.F.);
#273=ORIENTED_EDGE('',*,*,#422,.F.);
#274=ORIENTED_EDGE('',*,*,#435,.T.);
#275=ORIENTED_EDGE('',*,*,#399,.T.);
#276=ORIENTED_EDGE('',*,*,#434,.F.);
#277=ORIENTED_EDGE('',*,*,#421,.F.);
#278=ORIENTED_EDGE('',*,*,#337,.T.);
#279=ORIENTED_EDGE('',*,*,#400,.T.);
#280=ORIENTED_EDGE('',*,*,#435,.F.);
#281=ORIENTED_EDGE('',*,*,#420,.F.);
#282=ORIENTED_EDGE('',*,*,#436,.T.);
#283=ORIENTED_EDGE('',*,*,#401,.T.);
#284=ORIENTED_EDGE('',*,*,#335,.F.);
#285=ORIENTED_EDGE('',*,*,#419,.F.);
#286=ORIENTED_EDGE('',*,*,#437,.T.);
#287=ORIENTED_EDGE('',*,*,#402,.T.);
#288=ORIENTED_EDGE('',*,*,#436,.F.);
#289=ORIENTED_EDGE('',*,*,#418,.F.);
#290=ORIENTED_EDGE('',*,*,#333,.T.);
#291=ORIENTED_EDGE('',*,*,#403,.T.);
#292=ORIENTED_EDGE('',*,*,#437,.F.);
#293=ORIENTED_EDGE('',*,*,#417,.F.);
#294=ORIENTED_EDGE('',*,*,#438,.T.);
#295=ORIENTED_EDGE('',*,*,#404,.T.);
#296=ORIENTED_EDGE('',*,*,#331,.F.);
#297=ORIENTED_EDGE('',*,*,#416,.F.);
#298=ORIENTED_EDGE('',*,*,#439,.T.);
#299=ORIENTED_EDGE('',*,*,#405,.T.);
#300=ORIENTED_EDGE('',*,*,#438,.F.);
#301=ORIENTED_EDGE('',*,*,#415,.F.);
#302=ORIENTED_EDGE('',*,*,#329,.T.);
#303=ORIENTED_EDGE('',*,*,#406,.T.);
#304=ORIENTED_EDGE('',*,*,#439,.F.);
#305=ORIENTED_EDGE('',*,*,#414,.F.);
#306=ORIENTED_EDGE('',*,*,#413,.F.);
#307=ORIENTED_EDGE('',*,*,#440,.T.);
#308=ORIENTED_EDGE('',*,*,#407,.T.);
#309=ORIENTED_EDGE('',*,*,#327,.F.);
#310=ORIENTED_EDGE('',*,*,#412,.F.);
#311=ORIENTED_EDGE('',*,*,#441,.T.);
#312=ORIENTED_EDGE('',*,*,#408,.T.);
#313=ORIENTED_EDGE('',*,*,#440,.F.);
#314=ORIENTED_EDGE('',*,*,#411,.F.);
#315=ORIENTED_EDGE('',*,*,#385,.F.);
#316=ORIENTED_EDGE('',*,*,#409,.F.);
#317=ORIENTED_EDGE('',*,*,#441,.F.);
#318=ORIENTED_EDGE('',*,*,#410,.F.);
#319=ORIENTED_EDGE('',*,*,#322,.T.);
#320=ORIENTED_EDGE('',*,*,#390,.T.);
#321=ORIENTED_EDGE('',*,*,#382,.F.);
#322=EDGE_CURVE('',#442,#443,#522,.T.);
#323=EDGE_CURVE('',#444,#442,#42,.F.);
#324=EDGE_CURVE('',#444,#445,#523,.T.);
#325=EDGE_CURVE('',#445,#443,#43,.T.);
#326=EDGE_CURVE('',#446,#447,#44,.T.);
#327=EDGE_CURVE('',#447,#448,#524,.T.);
#328=EDGE_CURVE('',#449,#448,#45,.T.);
#329=EDGE_CURVE('',#446,#449,#525,.T.);
#330=EDGE_CURVE('',#450,#451,#46,.T.);
#331=EDGE_CURVE('',#451,#452,#526,.T.);
#332=EDGE_CURVE('',#453,#452,#47,.T.);
#333=EDGE_CURVE('',#450,#453,#527,.T.);
#334=EDGE_CURVE('',#454,#455,#48,.T.);
#335=EDGE_CURVE('',#455,#456,#528,.T.);
#336=EDGE_CURVE('',#457,#456,#49,.T.);
#337=EDGE_CURVE('',#454,#457,#529,.T.);
#338=EDGE_CURVE('',#458,#459,#50,.T.);
#339=EDGE_CURVE('',#459,#460,#530,.T.);
#340=EDGE_CURVE('',#461,#460,#51,.T.);
#341=EDGE_CURVE('',#458,#461,#531,.T.);
#342=EDGE_CURVE('',#462,#463,#52,.T.);
#343=EDGE_CURVE('',#463,#464,#532,.T.);
#344=EDGE_CURVE('',#465,#464,#53,.T.);
#345=EDGE_CURVE('',#462,#465,#533,.T.);
#346=EDGE_CURVE('',#466,#467,#54,.T.);
#347=EDGE_CURVE('',#467,#468,#534,.T.);
#348=EDGE_CURVE('',#469,#468,#55,.T.);
#349=EDGE_CURVE('',#466,#469,#535,.T.);
#350=EDGE_CURVE('',#470,#471,#56,.T.);
#351=EDGE_CURVE('',#472,#471,#536,.T.);
#352=EDGE_CURVE('',#473,#472,#57,.T.);
#353=EDGE_CURVE('',#473,#470,#537,.T.);
#354=EDGE_CURVE('',#471,#474,#538,.T.);
#355=EDGE_CURVE('',#475,#474,#539,.T.);
#356=EDGE_CURVE('',#472,#475,#540,.T.);
#357=EDGE_CURVE('',#474,#476,#58,.T.);
#358=EDGE_CURVE('',#477,#476,#541,.T.);
#359=EDGE_CURVE('',#475,#477,#59,.T.);
#360=EDGE_CURVE('',#476,#478,#542,.T.);
#361=EDGE_CURVE('',#479,#478,#543,.T.);
#362=EDGE_CURVE('',#477,#479,#544,.T.);
#363=EDGE_CURVE('',#478,#480,#60,.T.);
#364=EDGE_CURVE('',#481,#480,#545,.T.);
#365=EDGE_CURVE('',#479,#481,#61,.T.);
#366=EDGE_CURVE('',#480,#482,#546,.T.);
#367=EDGE_CURVE('',#483,#482,#547,.T.);
#368=EDGE_CURVE('',#481,#483,#548,.T.);
#369=EDGE_CURVE('',#482,#484,#62,.T.);
#370=EDGE_CURVE('',#485,#484,#549,.T.);
#371=EDGE_CURVE('',#483,#485,#63,.T.);
#372=EDGE_CURVE('',#484,#486,#550,.T.);
#373=EDGE_CURVE('',#487,#486,#551,.T.);
#374=EDGE_CURVE('',#485,#487,#552,.T.);
#375=EDGE_CURVE('',#486,#488,#64,.T.);
#376=EDGE_CURVE('',#489,#488,#553,.T.);
#377=EDGE_CURVE('',#487,#489,#65,.T.);
#378=EDGE_CURVE('',#488,#490,#554,.T.);
#379=EDGE_CURVE('',#491,#490,#555,.T.);
#380=EDGE_CURVE('',#489,#491,#556,.T.);
#381=EDGE_CURVE('',#490,#492,#557,.T.);
#382=EDGE_CURVE('',#492,#493,#558,.T.);
#383=EDGE_CURVE('',#491,#493,#559,.T.);
#384=EDGE_CURVE('',#494,#495,#560,.T.);
#385=EDGE_CURVE('',#494,#496,#561,.F.);
#386=EDGE_CURVE('',#496,#497,#562,.T.);
#387=EDGE_CURVE('',#495,#497,#563,.T.);
#388=EDGE_CURVE('',#497,#470,#564,.T.);
#389=EDGE_CURVE('',#495,#473,#565,.T.);
#390=EDGE_CURVE('',#443,#493,#66,.T.);
#391=EDGE_CURVE('',#469,#445,#566,.T.);
#392=EDGE_CURVE('',#498,#468,#567,.T.);
#393=EDGE_CURVE('',#499,#498,#67,.T.);
#394=EDGE_CURVE('',#465,#499,#568,.T.);
#395=EDGE_CURVE('',#500,#464,#569,.T.);
#396=EDGE_CURVE('',#501,#500,#68,.T.);
#397=EDGE_CURVE('',#461,#501,#570,.T.);
#398=EDGE_CURVE('',#502,#460,#571,.T.);
#399=EDGE_CURVE('',#503,#502,#69,.T.);
#400=EDGE_CURVE('',#457,#503,#572,.T.);
#401=EDGE_CURVE('',#504,#456,#573,.T.);
#402=EDGE_CURVE('',#505,#504,#70,.T.);
#403=EDGE_CURVE('',#453,#505,#574,.T.);
#404=EDGE_CURVE('',#506,#452,#575,.T.);
#405=EDGE_CURVE('',#507,#506,#71,.T.);
#406=EDGE_CURVE('',#449,#507,#576,.T.);
#407=EDGE_CURVE('',#508,#448,#577,.T.);
#408=EDGE_CURVE('',#509,#508,#72,.T.);
#409=EDGE_CURVE('',#509,#494,#73,.F.);
#410=EDGE_CURVE('',#442,#492,#74,.T.);
#411=EDGE_CURVE('',#496,#510,#75,.T.);
#412=EDGE_CURVE('',#510,#511,#76,.T.);
#413=EDGE_CURVE('',#511,#447,#578,.T.);
#414=EDGE_CURVE('',#446,#512,#579,.T.);
#415=EDGE_CURVE('',#512,#513,#77,.F.);
#416=EDGE_CURVE('',#513,#451,#580,.T.);
#417=EDGE_CURVE('',#450,#514,#581,.T.);
#418=EDGE_CURVE('',#514,#515,#78,.F.);
#419=EDGE_CURVE('',#515,#455,#582,.T.);
#420=EDGE_CURVE('',#454,#516,#583,.T.);
#421=EDGE_CURVE('',#516,#517,#79,.F.);
#422=EDGE_CURVE('',#517,#459,#584,.T.);
#423=EDGE_CURVE('',#458,#518,#585,.T.);
#424=EDGE_CURVE('',#518,#519,#80,.F.);
#425=EDGE_CURVE('',#519,#463,#586,.T.);
#426=EDGE_CURVE('',#462,#520,#587,.T.);
#427=EDGE_CURVE('',#520,#521,#81,.F.);
#428=EDGE_CURVE('',#521,#467,#588,.T.);
#429=EDGE_CURVE('',#466,#444,#589,.T.);
#430=EDGE_CURVE('',#521,#498,#590,.T.);
#431=EDGE_CURVE('',#520,#499,#591,.T.);
#432=EDGE_CURVE('',#519,#500,#592,.T.);
#433=EDGE_CURVE('',#518,#501,#593,.T.);
#434=EDGE_CURVE('',#517,#502,#594,.T.);
#435=EDGE_CURVE('',#516,#503,#595,.T.);
#436=EDGE_CURVE('',#515,#504,#596,.T.);
#437=EDGE_CURVE('',#514,#505,#597,.T.);
#438=EDGE_CURVE('',#513,#506,#598,.T.);
#439=EDGE_CURVE('',#512,#507,#599,.T.);
#440=EDGE_CURVE('',#511,#508,#600,.T.);
#441=EDGE_CURVE('',#510,#509,#601,.T.);
#442=VERTEX_POINT('',#1164);
#443=VERTEX_POINT('',#1165);
#444=VERTEX_POINT('',#1167);
#445=VERTEX_POINT('',#1169);
#446=VERTEX_POINT('',#1173);
#447=VERTEX_POINT('',#1174);
#448=VERTEX_POINT('',#1176);
#449=VERTEX_POINT('',#1178);
#450=VERTEX_POINT('',#1182);
#451=VERTEX_POINT('',#1183);
#452=VERTEX_POINT('',#1185);
#453=VERTEX_POINT('',#1187);
#454=VERTEX_POINT('',#1191);
#455=VERTEX_POINT('',#1192);
#456=VERTEX_POINT('',#1194);
#457=VERTEX_POINT('',#1196);
#458=VERTEX_POINT('',#1200);
#459=VERTEX_POINT('',#1201);
#460=VERTEX_POINT('',#1203);
#461=VERTEX_POINT('',#1205);
#462=VERTEX_POINT('',#1209);
#463=VERTEX_POINT('',#1210);
#464=VERTEX_POINT('',#1212);
#465=VERTEX_POINT('',#1214);
#466=VERTEX_POINT('',#1218);
#467=VERTEX_POINT('',#1219);
#468=VERTEX_POINT('',#1221);
#469=VERTEX_POINT('',#1223);
#470=VERTEX_POINT('',#1227);
#471=VERTEX_POINT('',#1228);
#472=VERTEX_POINT('',#1230);
#473=VERTEX_POINT('',#1232);
#474=VERTEX_POINT('',#1236);
#475=VERTEX_POINT('',#1238);
#476=VERTEX_POINT('',#1242);
#477=VERTEX_POINT('',#1244);
#478=VERTEX_POINT('',#1248);
#479=VERTEX_POINT('',#1250);
#480=VERTEX_POINT('',#1254);
#481=VERTEX_POINT('',#1256);
#482=VERTEX_POINT('',#1260);
#483=VERTEX_POINT('',#1262);
#484=VERTEX_POINT('',#1266);
#485=VERTEX_POINT('',#1268);
#486=VERTEX_POINT('',#1272);
#487=VERTEX_POINT('',#1274);
#488=VERTEX_POINT('',#1278);
#489=VERTEX_POINT('',#1280);
#490=VERTEX_POINT('',#1284);
#491=VERTEX_POINT('',#1286);
#492=VERTEX_POINT('',#1290);
#493=VERTEX_POINT('',#1292);
#494=VERTEX_POINT('',#1296);
#495=VERTEX_POINT('',#1297);
#496=VERTEX_POINT('',#1299);
#497=VERTEX_POINT('',#1301);
#498=VERTEX_POINT('',#1310);
#499=VERTEX_POINT('',#1312);
#500=VERTEX_POINT('',#1315);
#501=VERTEX_POINT('',#1317);
#502=VERTEX_POINT('',#1320);
#503=VERTEX_POINT('',#1322);
#504=VERTEX_POINT('',#1325);
#505=VERTEX_POINT('',#1327);
#506=VERTEX_POINT('',#1330);
#507=VERTEX_POINT('',#1332);
#508=VERTEX_POINT('',#1335);
#509=VERTEX_POINT('',#1337);
#510=VERTEX_POINT('',#1342);
#511=VERTEX_POINT('',#1344);
#512=VERTEX_POINT('',#1347);
#513=VERTEX_POINT('',#1349);
#514=VERTEX_POINT('',#1352);
#515=VERTEX_POINT('',#1354);
#516=VERTEX_POINT('',#1357);
#517=VERTEX_POINT('',#1359);
#518=VERTEX_POINT('',#1362);
#519=VERTEX_POINT('',#1364);
#520=VERTEX_POINT('',#1367);
#521=VERTEX_POINT('',#1369);
#522=LINE('',#1163,#602);
#523=LINE('',#1168,#603);
#524=LINE('',#1175,#604);
#525=LINE('',#1179,#605);
#526=LINE('',#1184,#606);
#527=LINE('',#1188,#607);
#528=LINE('',#1193,#608);
#529=LINE('',#1197,#609);
#530=LINE('',#1202,#610);
#531=LINE('',#1206,#611);
#532=LINE('',#1211,#612);
#533=LINE('',#1215,#613);
#534=LINE('',#1220,#614);
#535=LINE('',#1224,#615);
#536=LINE('',#1229,#616);
#537=LINE('',#1233,#617);
#538=LINE('',#1235,#618);
#539=LINE('',#1237,#619);
#540=LINE('',#1239,#620);
#541=LINE('',#1243,#621);
#542=LINE('',#1247,#622);
#543=LINE('',#1249,#623);
#544=LINE('',#1251,#624);
#545=LINE('',#1255,#625);
#546=LINE('',#1259,#626);
#547=LINE('',#1261,#627);
#548=LINE('',#1263,#628);
#549=LINE('',#1267,#629);
#550=LINE('',#1271,#630);
#551=LINE('',#1273,#631);
#552=LINE('',#1275,#632);
#553=LINE('',#1279,#633);
#554=LINE('',#1283,#634);
#555=LINE('',#1285,#635);
#556=LINE('',#1287,#636);
#557=LINE('',#1289,#637);
#558=LINE('',#1291,#638);
#559=LINE('',#1293,#639);
#560=LINE('',#1295,#640);
#561=LINE('',#1298,#641);
#562=LINE('',#1300,#642);
#563=LINE('',#1302,#643);
#564=LINE('',#1304,#644);
#565=LINE('',#1305,#645);
#566=LINE('',#1308,#646);
#567=LINE('',#1309,#647);
#568=LINE('',#1313,#648);
#569=LINE('',#1314,#649);
#570=LINE('',#1318,#650);
#571=LINE('',#1319,#651);
#572=LINE('',#1323,#652);
#573=LINE('',#1324,#653);
#574=LINE('',#1328,#654);
#575=LINE('',#1329,#655);
#576=LINE('',#1333,#656);
#577=LINE('',#1334,#657);
#578=LINE('',#1345,#658);
#579=LINE('',#1346,#659);
#580=LINE('',#1350,#660);
#581=LINE('',#1351,#661);
#582=LINE('',#1355,#662);
#583=LINE('',#1356,#663);
#584=LINE('',#1360,#664);
#585=LINE('',#1361,#665);
#586=LINE('',#1365,#666);
#587=LINE('',#1366,#667);
#588=LINE('',#1370,#668);
#589=LINE('',#1371,#669);
#590=LINE('',#1374,#670);
#591=LINE('',#1376,#671);
#592=LINE('',#1379,#672);
#593=LINE('',#1381,#673);
#594=LINE('',#1384,#674);
#595=LINE('',#1386,#675);
#596=LINE('',#1389,#676);
#597=LINE('',#1391,#677);
#598=LINE('',#1394,#678);
#599=LINE('',#1396,#679);
#600=LINE('',#1399,#680);
#601=LINE('',#1401,#681);
#602=VECTOR('',#919,1.);
#603=VECTOR('',#922,1.);
#604=VECTOR('',#929,1.);
#605=VECTOR('',#932,1.);
#606=VECTOR('',#937,1.);
#607=VECTOR('',#940,1.);
#608=VECTOR('',#945,1.);
#609=VECTOR('',#948,1.);
#610=VECTOR('',#953,1.);
#611=VECTOR('',#956,1.);
#612=VECTOR('',#961,1.);
#613=VECTOR('',#964,1.);
#614=VECTOR('',#969,1.);
#615=VECTOR('',#972,1.);
#616=VECTOR('',#977,1.);
#617=VECTOR('',#980,1.);
#618=VECTOR('',#983,1.);
#619=VECTOR('',#984,1.);
#620=VECTOR('',#985,1.);
#621=VECTOR('',#990,1.);
#622=VECTOR('',#995,1.);
#623=VECTOR('',#996,1.);
#624=VECTOR('',#997,1.);
#625=VECTOR('',#1002,1.);
#626=VECTOR('',#1007,1.);
#627=VECTOR('',#1008,1.);
#628=VECTOR('',#1009,1.);
#629=VECTOR('',#1014,1.);
#630=VECTOR('',#1019,1.);
#631=VECTOR('',#1020,1.);
#632=VECTOR('',#1021,1.);
#633=VECTOR('',#1026,1.);
#634=VECTOR('',#1031,1.);
#635=VECTOR('',#1032,1.);
#636=VECTOR('',#1033,1.);
#637=VECTOR('',#1036,1.);
#638=VECTOR('',#1037,1.);
#639=VECTOR('',#1038,1.);
#640=VECTOR('',#1041,1.);
#641=VECTOR('',#1042,1.);
#642=VECTOR('',#1043,1.);
#643=VECTOR('',#1044,1.);
#644=VECTOR('',#1047,1.);
#645=VECTOR('',#1048,1.);
#646=VECTOR('',#1053,1.);
#647=VECTOR('',#1054,1.);
#648=VECTOR('',#1057,1.);
#649=VECTOR('',#1058,1.);
#650=VECTOR('',#1061,1.);
#651=VECTOR('',#1062,1.);
#652=VECTOR('',#1065,1.);
#653=VECTOR('',#1066,1.);
#654=VECTOR('',#1069,1.);
#655=VECTOR('',#1070,1.);
#656=VECTOR('',#1073,1.);
#657=VECTOR('',#1074,1.);
#658=VECTOR('',#1087,1.);
#659=VECTOR('',#1088,1.);
#660=VECTOR('',#1091,1.);
#661=VECTOR('',#1092,1.);
#662=VECTOR('',#1095,1.);
#663=VECTOR('',#1096,1.);
#664=VECTOR('',#1099,1.);
#665=VECTOR('',#1100,1.);
#666=VECTOR('',#1103,1.);
#667=VECTOR('',#1104,1.);
#668=VECTOR('',#1107,1.);
#669=VECTOR('',#1108,1.);
#670=VECTOR('',#1113,1.);
#671=VECTOR('',#1116,1.);
#672=VECTOR('',#1121,1.);
#673=VECTOR('',#1124,1.);
#674=VECTOR('',#1129,1.);
#675=VECTOR('',#1132,1.);
#676=VECTOR('',#1137,1.);
#677=VECTOR('',#1140,1.);
#678=VECTOR('',#1145,1.);
#679=VECTOR('',#1148,1.);
#680=VECTOR('',#1153,1.);
#681=VECTOR('',#1156,1.);
#682=EDGE_LOOP('',(#82,#83,#84,#85));
#683=EDGE_LOOP('',(#86,#87,#88,#89));
#684=EDGE_LOOP('',(#90,#91,#92,#93));
#685=EDGE_LOOP('',(#94,#95,#96,#97));
#686=EDGE_LOOP('',(#98,#99,#100,#101));
#687=EDGE_LOOP('',(#102,#103,#104,#105));
#688=EDGE_LOOP('',(#106,#107,#108,#109));
#689=EDGE_LOOP('',(#110,#111,#112,#113));
#690=EDGE_LOOP('',(#114,#115,#116,#117));
#691=EDGE_LOOP('',(#118,#119,#120,#121));
#692=EDGE_LOOP('',(#122,#123,#124,#125));
#693=EDGE_LOOP('',(#126,#127,#128,#129));
#694=EDGE_LOOP('',(#130,#131,#132,#133));
#695=EDGE_LOOP('',(#134,#135,#136,#137));
#696=EDGE_LOOP('',(#138,#139,#140,#141));
#697=EDGE_LOOP('',(#142,#143,#144,#145));
#698=EDGE_LOOP('',(#146,#147,#148,#149));
#699=EDGE_LOOP('',(#150,#151,#152,#153));
#700=EDGE_LOOP('',(#154,#155,#156,#157));
#701=EDGE_LOOP('',(#158,#159,#160,#161));
#702=EDGE_LOOP('',(#162,#163,#164,#165,#166,#167,#168,#169,#170,#171,#172,
#173,#174,#175,#176,#177,#178,#179,#180,#181,#182,#183,#184,#185,#186,#187,
#188,#189,#190,#191,#192,#193,#194,#195,#196,#197,#198,#199,#200,#201));
#703=EDGE_LOOP('',(#202,#203,#204,#205,#206,#207,#208,#209,#210,#211,#212,
#213,#214,#215,#216,#217,#218,#219,#220,#221,#222,#223,#224,#225,#226,#227,
#228,#229,#230,#231,#232,#233,#234,#235,#236,#237,#238,#239,#240,#241));
#704=EDGE_LOOP('',(#242,#243,#244,#245));
#705=EDGE_LOOP('',(#246,#247,#248,#249));
#706=EDGE_LOOP('',(#250,#251,#252,#253));
#707=EDGE_LOOP('',(#254,#255,#256,#257));
#708=EDGE_LOOP('',(#258,#259,#260,#261));
#709=EDGE_LOOP('',(#262,#263,#264,#265));
#710=EDGE_LOOP('',(#266,#267,#268,#269));
#711=EDGE_LOOP('',(#270,#271,#272,#273));
#712=EDGE_LOOP('',(#274,#275,#276,#277));
#713=EDGE_LOOP('',(#278,#279,#280,#281));
#714=EDGE_LOOP('',(#282,#283,#284,#285));
#715=EDGE_LOOP('',(#286,#287,#288,#289));
#716=EDGE_LOOP('',(#290,#291,#292,#293));
#717=EDGE_LOOP('',(#294,#295,#296,#297));
#718=EDGE_LOOP('',(#298,#299,#300,#301));
#719=EDGE_LOOP('',(#302,#303,#304,#305));
#720=EDGE_LOOP('',(#306,#307,#308,#309));
#721=EDGE_LOOP('',(#310,#311,#312,#313));
#722=EDGE_LOOP('',(#314,#315,#316,#317));
#723=EDGE_LOOP('',(#318,#319,#320,#321));
#724=FACE_BOUND('',#682,.T.);
#725=FACE_BOUND('',#683,.T.);
#726=FACE_BOUND('',#684,.T.);
#727=FACE_BOUND('',#685,.T.);
#728=FACE_BOUND('',#686,.T.);
#729=FACE_BOUND('',#687,.T.);
#730=FACE_BOUND('',#688,.T.);
#731=FACE_BOUND('',#689,.T.);
#732=FACE_BOUND('',#690,.T.);
#733=FACE_BOUND('',#691,.T.);
#734=FACE_BOUND('',#692,.T.);
#735=FACE_BOUND('',#693,.T.);
#736=FACE_BOUND('',#694,.T.);
#737=FACE_BOUND('',#695,.T.);
#738=FACE_BOUND('',#696,.T.);
#739=FACE_BOUND('',#697,.T.);
#740=FACE_BOUND('',#698,.T.);
#741=FACE_BOUND('',#699,.T.);
#742=FACE_BOUND('',#700,.T.);
#743=FACE_BOUND('',#701,.T.);
#744=FACE_BOUND('',#702,.T.);
#745=FACE_BOUND('',#703,.T.);
#746=FACE_BOUND('',#704,.T.);
#747=FACE_BOUND('',#705,.T.);
#748=FACE_BOUND('',#706,.T.);
#749=FACE_BOUND('',#707,.T.);
#750=FACE_BOUND('',#708,.T.);
#751=FACE_BOUND('',#709,.T.);
#752=FACE_BOUND('',#710,.T.);
#753=FACE_BOUND('',#711,.T.);
#754=FACE_BOUND('',#712,.T.);
#755=FACE_BOUND('',#713,.T.);
#756=FACE_BOUND('',#714,.T.);
#757=FACE_BOUND('',#715,.T.);
#758=FACE_BOUND('',#716,.T.);
#759=FACE_BOUND('',#717,.T.);
#760=FACE_BOUND('',#718,.T.);
#761=FACE_BOUND('',#719,.T.);
#762=FACE_BOUND('',#720,.T.);
#763=FACE_BOUND('',#721,.T.);
#764=FACE_BOUND('',#722,.T.);
#765=FACE_BOUND('',#723,.T.);
#766=CYLINDRICAL_SURFACE('',#833,0.0005);
#767=CYLINDRICAL_SURFACE('',#836,0.0121);
#768=CYLINDRICAL_SURFACE('',#839,0.0121);
#769=CYLINDRICAL_SURFACE('',#842,0.0121);
#770=CYLINDRICAL_SURFACE('',#845,0.0121);
#771=CYLINDRICAL_SURFACE('',#848,0.0121);
#772=CYLINDRICAL_SURFACE('',#851,0.0121);
#773=CYLINDRICAL_SURFACE('',#854,0.0072);
#774=CYLINDRICAL_SURFACE('',#858,0.0092);
#775=CYLINDRICAL_SURFACE('',#862,0.0093);
#776=CYLINDRICAL_SURFACE('',#866,0.0092);
#777=CYLINDRICAL_SURFACE('',#870,0.0072);
#778=CYLINDRICAL_SURFACE('',#897,0.0005);
#779=CYLINDRICAL_SURFACE('',#900,0.0005);
#780=CYLINDRICAL_SURFACE('',#903,0.0005);
#781=CYLINDRICAL_SURFACE('',#906,0.0005);
#782=CYLINDRICAL_SURFACE('',#909,0.0005);
#783=CYLINDRICAL_SURFACE('',#912,0.0109);
#784=CYLINDRICAL_SURFACE('',#913,0.001);
#785=CYLINDRICAL_SURFACE('',#914,0.0109);
#786=ADVANCED_FACE('',(#724),#766,.F.);
#787=ADVANCED_FACE('',(#725),#767,.T.);
#788=ADVANCED_FACE('',(#726),#768,.T.);
#789=ADVANCED_FACE('',(#727),#769,.T.);
#790=ADVANCED_FACE('',(#728),#770,.T.);
#791=ADVANCED_FACE('',(#729),#771,.T.);
#792=ADVANCED_FACE('',(#730),#772,.T.);
#793=ADVANCED_FACE('',(#731),#773,.F.);
#794=ADVANCED_FACE('',(#732),#20,.F.);
#795=ADVANCED_FACE('',(#733),#774,.F.);
#796=ADVANCED_FACE('',(#734),#21,.F.);
#797=ADVANCED_FACE('',(#735),#775,.F.);
#798=ADVANCED_FACE('',(#736),#22,.F.);
#799=ADVANCED_FACE('',(#737),#776,.F.);
#800=ADVANCED_FACE('',(#738),#23,.F.);
#801=ADVANCED_FACE('',(#739),#777,.F.);
#802=ADVANCED_FACE('',(#740),#24,.F.);
#803=ADVANCED_FACE('',(#741),#25,.F.);
#804=ADVANCED_FACE('',(#742),#26,.F.);
#805=ADVANCED_FACE('',(#743),#27,.F.);
#806=ADVANCED_FACE('',(#744),#28,.F.);
#807=ADVANCED_FACE('',(#745),#29,.T.);
#808=ADVANCED_FACE('',(#746),#30,.F.);
#809=ADVANCED_FACE('',(#747),#31,.F.);
#810=ADVANCED_FACE('',(#748),#778,.F.);
#811=ADVANCED_FACE('',(#749),#32,.F.);
#812=ADVANCED_FACE('',(#750),#33,.F.);
#813=ADVANCED_FACE('',(#751),#779,.F.);
#814=ADVANCED_FACE('',(#752),#34,.F.);
#815=ADVANCED_FACE('',(#753),#35,.F.);
#816=ADVANCED_FACE('',(#754),#780,.F.);
#817=ADVANCED_FACE('',(#755),#36,.F.);
#818=ADVANCED_FACE('',(#756),#37,.F.);
#819=ADVANCED_FACE('',(#757),#781,.F.);
#820=ADVANCED_FACE('',(#758),#38,.F.);
#821=ADVANCED_FACE('',(#759),#39,.F.);
#822=ADVANCED_FACE('',(#760),#782,.F.);
#823=ADVANCED_FACE('',(#761),#40,.F.);
#824=ADVANCED_FACE('',(#762),#41,.F.);
#825=ADVANCED_FACE('',(#763),#783,.T.);
#826=ADVANCED_FACE('',(#764),#784,.T.);
#827=ADVANCED_FACE('',(#765),#785,.T.);
#828=CLOSED_SHELL('',(#786,#787,#788,#789,#790,#791,#792,#793,#794,#795,
#796,#797,#798,#799,#800,#801,#802,#803,#804,#805,#806,#807,#808,#809,#810,
#811,#812,#813,#814,#815,#816,#817,#818,#819,#820,#821,#822,#823,#824,#825,
#826,#827));
#829=MANIFOLD_SOLID_BREP('',#828);
#830=SHAPE_DEFINITION_REPRESENTATION(#1409,#831);
#831=SHAPE_REPRESENTATION('id2',(#832),#1404);
#832=AXIS2_PLACEMENT_3D('',#1161,#915,#916);
#833=AXIS2_PLACEMENT_3D('',#1162,#917,#918);
#834=AXIS2_PLACEMENT_3D('',#1166,#920,#921);
#835=AXIS2_PLACEMENT_3D('',#1170,#923,#924);
#836=AXIS2_PLACEMENT_3D('',#1171,#925,#926);
#837=AXIS2_PLACEMENT_3D('',#1172,#927,#928);
#838=AXIS2_PLACEMENT_3D('',#1177,#930,#931);
#839=AXIS2_PLACEMENT_3D('',#1180,#933,#934);
#840=AXIS2_PLACEMENT_3D('',#1181,#935,#936);
#841=AXIS2_PLACEMENT_3D('',#1186,#938,#939);
#842=AXIS2_PLACEMENT_3D('',#1189,#941,#942);
#843=AXIS2_PLACEMENT_3D('',#1190,#943,#944);
#844=AXIS2_PLACEMENT_3D('',#1195,#946,#947);
#845=AXIS2_PLACEMENT_3D('',#1198,#949,#950);
#846=AXIS2_PLACEMENT_3D('',#1199,#951,#952);
#847=AXIS2_PLACEMENT_3D('',#1204,#954,#955);
#848=AXIS2_PLACEMENT_3D('',#1207,#957,#958);
#849=AXIS2_PLACEMENT_3D('',#1208,#959,#960);
#850=AXIS2_PLACEMENT_3D('',#1213,#962,#963);
#851=AXIS2_PLACEMENT_3D('',#1216,#965,#966);
#852=AXIS2_PLACEMENT_3D('',#1217,#967,#968);
#853=AXIS2_PLACEMENT_3D('',#1222,#970,#971);
#854=AXIS2_PLACEMENT_3D('',#1225,#973,#974);
#855=AXIS2_PLACEMENT_3D('',#1226,#975,#976);
#856=AXIS2_PLACEMENT_3D('',#1231,#978,#979);
#857=AXIS2_PLACEMENT_3D('',#1234,#981,#982);
#858=AXIS2_PLACEMENT_3D('',#1240,#986,#987);
#859=AXIS2_PLACEMENT_3D('',#1241,#988,#989);
#860=AXIS2_PLACEMENT_3D('',#1245,#991,#992);
#861=AXIS2_PLACEMENT_3D('',#1246,#993,#994);
#862=AXIS2_PLACEMENT_3D('',#1252,#998,#999);
#863=AXIS2_PLACEMENT_3D('',#1253,#1000,#1001);
#864=AXIS2_PLACEMENT_3D('',#1257,#1003,#1004);
#865=AXIS2_PLACEMENT_3D('',#1258,#1005,#1006);
#866=AXIS2_PLACEMENT_3D('',#1264,#1010,#1011);
#867=AXIS2_PLACEMENT_3D('',#1265,#1012,#1013);
#868=AXIS2_PLACEMENT_3D('',#1269,#1015,#1016);
#869=AXIS2_PLACEMENT_3D('',#1270,#1017,#1018);
#870=AXIS2_PLACEMENT_3D('',#1276,#1022,#1023);
#871=AXIS2_PLACEMENT_3D('',#1277,#1024,#1025);
#872=AXIS2_PLACEMENT_3D('',#1281,#1027,#1028);
#873=AXIS2_PLACEMENT_3D('',#1282,#1029,#1030);
#874=AXIS2_PLACEMENT_3D('',#1288,#1034,#1035);
#875=AXIS2_PLACEMENT_3D('',#1294,#1039,#1040);
#876=AXIS2_PLACEMENT_3D('',#1303,#1045,#1046);
#877=AXIS2_PLACEMENT_3D('',#1306,#1049,#1050);
#878=AXIS2_PLACEMENT_3D('',#1307,#1051,#1052);
#879=AXIS2_PLACEMENT_3D('',#1311,#1055,#1056);
#880=AXIS2_PLACEMENT_3D('',#1316,#1059,#1060);
#881=AXIS2_PLACEMENT_3D('',#1321,#1063,#1064);
#882=AXIS2_PLACEMENT_3D('',#1326,#1067,#1068);
#883=AXIS2_PLACEMENT_3D('',#1331,#1071,#1072);
#884=AXIS2_PLACEMENT_3D('',#1336,#1075,#1076);
#885=AXIS2_PLACEMENT_3D('',#1338,#1077,#1078);
#886=AXIS2_PLACEMENT_3D('',#1339,#1079,#1080);
#887=AXIS2_PLACEMENT_3D('',#1340,#1081,#1082);
#888=AXIS2_PLACEMENT_3D('',#1341,#1083,#1084);
#889=AXIS2_PLACEMENT_3D('',#1343,#1085,#1086);
#890=AXIS2_PLACEMENT_3D('',#1348,#1089,#1090);
#891=AXIS2_PLACEMENT_3D('',#1353,#1093,#1094);
#892=AXIS2_PLACEMENT_3D('',#1358,#1097,#1098);
#893=AXIS2_PLACEMENT_3D('',#1363,#1101,#1102);
#894=AXIS2_PLACEMENT_3D('',#1368,#1105,#1106);
#895=AXIS2_PLACEMENT_3D('',#1372,#1109,#1110);
#896=AXIS2_PLACEMENT_3D('',#1373,#1111,#1112);
#897=AXIS2_PLACEMENT_3D('',#1375,#1114,#1115);
#898=AXIS2_PLACEMENT_3D('',#1377,#1117,#1118);
#899=AXIS2_PLACEMENT_3D('',#1378,#1119,#1120);
#900=AXIS2_PLACEMENT_3D('',#1380,#1122,#1123);
#901=AXIS2_PLACEMENT_3D('',#1382,#1125,#1126);
#902=AXIS2_PLACEMENT_3D('',#1383,#1127,#1128);
#903=AXIS2_PLACEMENT_3D('',#1385,#1130,#1131);
#904=AXIS2_PLACEMENT_3D('',#1387,#1133,#1134);
#905=AXIS2_PLACEMENT_3D('',#1388,#1135,#1136);
#906=AXIS2_PLACEMENT_3D('',#1390,#1138,#1139);
#907=AXIS2_PLACEMENT_3D('',#1392,#1141,#1142);
#908=AXIS2_PLACEMENT_3D('',#1393,#1143,#1144);
#909=AXIS2_PLACEMENT_3D('',#1395,#1146,#1147);
#910=AXIS2_PLACEMENT_3D('',#1397,#1149,#1150);
#911=AXIS2_PLACEMENT_3D('',#1398,#1151,#1152);
#912=AXIS2_PLACEMENT_3D('',#1400,#1154,#1155);
#913=AXIS2_PLACEMENT_3D('',#1402,#1157,#1158);
#914=AXIS2_PLACEMENT_3D('',#1403,#1159,#1160);
#915=DIRECTION('',(0.,0.,1.));
#916=DIRECTION('',(1.,0.,0.));
#917=DIRECTION('',(0.,0.,1.));
#918=DIRECTION('',(1.,0.,0.));
#919=DIRECTION('',(0.,0.,1.));
#920=DIRECTION('',(0.,0.,-1.));
#921=DIRECTION('',(-1.,0.,0.));
#922=DIRECTION('',(0.,0.,1.));
#923=DIRECTION('',(0.,0.,1.));
#924=DIRECTION('',(0.831469612302544,0.555570233019603,0.));
#925=DIRECTION('',(0.,0.,-1.));
#926=DIRECTION('',(-1.,0.,0.));
#927=DIRECTION('',(0.,0.,1.));
#928=DIRECTION('',(1.,0.,0.));
#929=DIRECTION('',(0.,0.,1.));
#930=DIRECTION('',(0.,0.,1.));
#931=DIRECTION('',(1.,0.,0.));
#932=DIRECTION('',(0.,0.,1.));
#933=DIRECTION('',(0.,0.,-1.));
#934=DIRECTION('',(-1.,0.,0.));
#935=DIRECTION('',(0.,0.,1.));
#936=DIRECTION('',(1.,0.,0.));
#937=DIRECTION('',(0.,0.,1.));
#938=DIRECTION('',(0.,0.,1.));
#939=DIRECTION('',(1.,0.,0.));
#940=DIRECTION('',(0.,0.,1.));
#941=DIRECTION('',(0.,0.,-1.));
#942=DIRECTION('',(-1.,0.,0.));
#943=DIRECTION('',(0.,0.,1.));
#944=DIRECTION('',(1.,0.,0.));
#945=DIRECTION('',(0.,0.,1.));
#946=DIRECTION('',(0.,0.,1.));
#947=DIRECTION('',(1.,0.,0.));
#948=DIRECTION('',(0.,0.,1.));
#949=DIRECTION('',(0.,0.,-1.));
#950=DIRECTION('',(-1.,0.,0.));
#951=DIRECTION('',(0.,0.,1.));
#952=DIRECTION('',(1.,0.,0.));
#953=DIRECTION('',(0.,0.,1.));
#954=DIRECTION('',(0.,0.,1.));
#955=DIRECTION('',(1.,0.,0.));
#956=DIRECTION('',(0.,0.,1.));
#957=DIRECTION('',(0.,0.,-1.));
#958=DIRECTION('',(-1.,0.,0.));
#959=DIRECTION('',(0.,0.,1.));
#960=DIRECTION('',(1.,0.,0.));
#961=DIRECTION('',(0.,0.,1.));
#962=DIRECTION('',(0.,0.,1.));
#963=DIRECTION('',(1.,0.,0.));
#964=DIRECTION('',(0.,0.,1.));
#965=DIRECTION('',(0.,0.,-1.));
#966=DIRECTION('',(-1.,0.,0.));
#967=DIRECTION('',(0.,0.,1.));
#968=DIRECTION('',(1.,0.,0.));
#969=DIRECTION('',(0.,0.,1.));
#970=DIRECTION('',(0.,0.,1.));
#971=DIRECTION('',(1.,0.,0.));
#972=DIRECTION('',(0.,0.,1.));
#973=DIRECTION('',(0.,0.,-1.));
#974=DIRECTION('',(-1.,0.,0.));
#975=DIRECTION('',(0.,0.,-1.));
#976=DIRECTION('',(-1.,0.,0.));
#977=DIRECTION('',(0.,0.,-1.));
#978=DIRECTION('',(0.,0.,-1.));
#979=DIRECTION('',(-1.,0.,0.));
#980=DIRECTION('',(0.,0.,-1.));
#981=DIRECTION('',(0.866025403784438,0.5,0.));
#982=DIRECTION('',(-0.5,0.866025403784438,0.));
#983=DIRECTION('',(0.5,-0.866025403784438,0.));
#984=DIRECTION('',(0.,0.,-1.));
#985=DIRECTION('',(0.5,-0.866025403784438,0.));
#986=DIRECTION('',(0.,0.,-1.));
#987=DIRECTION('',(-1.,0.,0.));
#988=DIRECTION('',(0.,0.,-1.));
#989=DIRECTION('',(1.,0.,0.));
#990=DIRECTION('',(0.,0.,-1.));
#991=DIRECTION('',(0.,0.,-1.));
#992=DIRECTION('',(1.,0.,0.));
#993=DIRECTION('',(1.,0.,0.));
#994=DIRECTION('',(0.,0.,-1.));
#995=DIRECTION('',(0.,-1.,0.));
#996=DIRECTION('',(0.,0.,-1.));
#997=DIRECTION('',(0.,-1.,0.));
#998=DIRECTION('',(0.,0.,-1.));
#999=DIRECTION('',(-1.,0.,0.));
#1000=DIRECTION('',(0.,0.,-1.));
#1001=DIRECTION('',(1.,0.,0.));
#1002=DIRECTION('',(0.,0.,-1.));
#1003=DIRECTION('',(0.,0.,-1.));
#1004=DIRECTION('',(1.,0.,0.));
#1005=DIRECTION('',(-1.,0.,0.));
#1006=DIRECTION('',(0.,0.,1.));
#1007=DIRECTION('',(0.,1.,0.));
#1008=DIRECTION('',(0.,0.,-1.));
#1009=DIRECTION('',(0.,1.,0.));
#1010=DIRECTION('',(0.,0.,-1.));
#1011=DIRECTION('',(-1.,0.,0.));
#1012=DIRECTION('',(0.,0.,-1.));
#1013=DIRECTION('',(1.,0.,0.));
#1014=DIRECTION('',(0.,0.,-1.));
#1015=DIRECTION('',(0.,0.,-1.));
#1016=DIRECTION('',(1.,0.,0.));
#1017=DIRECTION('',(-0.866025403784438,0.5,0.));
#1018=DIRECTION('',(-0.5,-0.866025403784438,0.));
#1019=DIRECTION('',(0.5,0.866025403784438,0.));
#1020=DIRECTION('',(0.,0.,-1.));
#1021=DIRECTION('',(0.5,0.866025403784438,0.));
#1022=DIRECTION('',(0.,0.,-1.));
#1023=DIRECTION('',(-1.,0.,0.));
#1024=DIRECTION('',(0.,0.,-1.));
#1025=DIRECTION('',(1.,0.,0.));
#1026=DIRECTION('',(0.,0.,-1.));
#1027=DIRECTION('',(0.,0.,-1.));
#1028=DIRECTION('',(1.,0.,0.));
#1029=DIRECTION('',(6.97999979618284E-16,-1.,0.));
#1030=DIRECTION('',(1.,6.97999979618284E-16,0.));
#1031=DIRECTION('',(-1.,-6.97999979618284E-16,0.));
#1032=DIRECTION('',(0.,0.,-1.));
#1033=DIRECTION('',(-1.,-6.97999979618284E-16,0.));
#1034=DIRECTION('',(0.461748613235031,-0.887010833178223,0.));
#1035=DIRECTION('',(0.887010833178223,0.461748613235031,0.));
#1036=DIRECTION('',(-0.887010833178223,-0.461748613235031,0.));
#1037=DIRECTION('',(0.,0.,1.));
#1038=DIRECTION('',(-0.887010833178223,-0.461748613235031,0.));
#1039=DIRECTION('',(-0.461748613235032,-0.887010833178223,0.));
#1040=DIRECTION('',(0.887010833178223,-0.461748613235032,0.));
#1041=DIRECTION('',(-0.887010833178223,0.461748613235032,0.));
#1042=DIRECTION('',(0.,0.,1.));
#1043=DIRECTION('',(-0.887010833178223,0.461748613235032,0.));
#1044=DIRECTION('',(0.,0.,-1.));
#1045=DIRECTION('',(-3.48999989809142E-16,-1.,0.));
#1046=DIRECTION('',(1.,-3.48999989809142E-16,0.));
#1047=DIRECTION('',(-1.,3.48999989809142E-16,0.));
#1048=DIRECTION('',(-1.,3.48999989809142E-16,0.));
#1049=DIRECTION('',(0.,0.,-1.));
#1050=DIRECTION('',(-1.,0.,0.));
#1051=DIRECTION('',(0.,0.,-1.));
#1052=DIRECTION('',(1.,0.,0.));
#1053=DIRECTION('',(0.300705799504276,0.953716950748226,0.));
#1054=DIRECTION('',(-0.876726755707507,-0.480988768919389,0.));
#1055=DIRECTION('',(0.,0.,1.));
#1056=DIRECTION('',(0.707106781186546,0.707106781186549,0.));
#1057=DIRECTION('',(0.108866874851967,0.994056338222319,0.));
#1058=DIRECTION('',(-0.766044443118976,-0.642787609686541,0.));
#1059=DIRECTION('',(0.,0.,1.));
#1060=DIRECTION('',(0.5555702330196,0.831469612302546,0.));
#1061=DIRECTION('',(-0.0871557427476559,0.996194698091746,0.));
#1062=DIRECTION('',(-0.625923472184057,-0.779884483092884,0.));
#1063=DIRECTION('',(0.,0.,1.));
#1064=DIRECTION('',(0.382683432365087,0.923879532511288,0.));
#1065=DIRECTION('',(-0.27982901403099,0.960049854385929,0.));
#1066=DIRECTION('',(-0.461748613235031,-0.887010833178223,0.));
#1067=DIRECTION('',(0.,0.,1.));
#1068=DIRECTION('',(0.195090322016125,0.980785280403231,0.));
#1069=DIRECTION('',(-0.461748613235033,0.887010833178222,0.));
#1070=DIRECTION('',(-0.279829014030988,-0.96004985438593,0.));
#1071=DIRECTION('',(0.,0.,1.));
#1072=DIRECTION('',(-3.49148133884313E-15,1.,0.));
#1073=DIRECTION('',(-0.625923472184058,0.779884483092882,0.));
#1074=DIRECTION('',(-0.0871557427476539,-0.996194698091746,0.));
#1075=DIRECTION('',(0.,0.,-1.));
#1076=DIRECTION('',(-1.,0.,0.));
#1077=DIRECTION('',(0.,0.,-1.));
#1078=DIRECTION('',(-1.,0.,0.));
#1079=DIRECTION('',(0.,0.,-1.));
#1080=DIRECTION('',(-1.,0.,0.));
#1081=DIRECTION('',(0.,0.,-1.));
#1082=DIRECTION('',(-1.,0.,0.));
#1083=DIRECTION('',(0.,0.,-1.));
#1084=DIRECTION('',(-1.,0.,0.));
#1085=DIRECTION('',(0.,0.,-1.));
#1086=DIRECTION('',(-1.,0.,0.));
#1087=DIRECTION('',(-0.0871557427476539,-0.996194698091746,0.));
#1088=DIRECTION('',(-0.625923472184058,0.779884483092882,0.));
#1089=DIRECTION('',(0.,0.,-1.));
#1090=DIRECTION('',(-1.,0.,0.));
#1091=DIRECTION('',(-0.279829014030988,-0.96004985438593,0.));
#1092=DIRECTION('',(-0.461748613235033,0.887010833178222,0.));
#1093=DIRECTION('',(0.,0.,-1.));
#1094=DIRECTION('',(-1.,0.,0.));
#1095=DIRECTION('',(-0.461748613235031,-0.887010833178223,0.));
#1096=DIRECTION('',(-0.27982901403099,0.960049854385929,0.));
#1097=DIRECTION('',(0.,0.,-1.));
#1098=DIRECTION('',(-1.,0.,0.));
#1099=DIRECTION('',(-0.625923472184057,-0.779884483092884,0.));
#1100=DIRECTION('',(-0.0871557427476559,0.996194698091746,0.));
#1101=DIRECTION('',(0.,0.,-1.));
#1102=DIRECTION('',(-1.,0.,0.));
#1103=DIRECTION('',(-0.766044443118976,-0.642787609686541,0.));
#1104=DIRECTION('',(0.108866874851967,0.994056338222319,0.));
#1105=DIRECTION('',(0.,0.,-1.));
#1106=DIRECTION('',(-1.,0.,0.));
#1107=DIRECTION('',(-0.876726755707507,-0.480988768919389,0.));
#1108=DIRECTION('',(0.300705799504276,0.953716950748226,0.));
#1109=DIRECTION('',(0.953716950748226,-0.300705799504276,0.));
#1110=DIRECTION('',(0.300705799504276,0.953716950748226,0.));
#1111=DIRECTION('',(-0.480988768919389,0.876726755707507,0.));
#1112=DIRECTION('',(-0.876726755707507,-0.480988768919389,0.));
#1113=DIRECTION('',(0.,0.,1.));
#1114=DIRECTION('',(0.,0.,1.));
#1115=DIRECTION('',(1.,0.,0.));
#1116=DIRECTION('',(0.,0.,1.));
#1117=DIRECTION('',(0.994056338222319,-0.108866874851967,0.));
#1118=DIRECTION('',(0.108866874851967,0.994056338222319,0.));
#1119=DIRECTION('',(-0.642787609686541,0.766044443118976,0.));
#1120=DIRECTION('',(-0.766044443118976,-0.642787609686541,0.));
#1121=DIRECTION('',(0.,0.,1.));
#1122=DIRECTION('',(0.,0.,1.));
#1123=DIRECTION('',(1.,0.,0.));
#1124=DIRECTION('',(0.,0.,1.));
#1125=DIRECTION('',(0.996194698091746,0.0871557427476558,0.));
#1126=DIRECTION('',(-0.0871557427476559,0.996194698091746,0.));
#1127=DIRECTION('',(-0.779884483092884,0.625923472184057,0.));
#1128=DIRECTION('',(-0.625923472184057,-0.779884483092884,0.));
#1129=DIRECTION('',(0.,0.,1.));
#1130=DIRECTION('',(0.,0.,1.));
#1131=DIRECTION('',(1.,0.,0.));
#1132=DIRECTION('',(0.,0.,1.));
#1133=DIRECTION('',(0.960049854385929,0.27982901403099,0.));
#1134=DIRECTION('',(-0.27982901403099,0.960049854385929,0.));
#1135=DIRECTION('',(-0.887010833178223,0.461748613235031,0.));
#1136=DIRECTION('',(-0.461748613235031,-0.887010833178223,0.));
#1137=DIRECTION('',(0.,0.,1.));
#1138=DIRECTION('',(0.,0.,1.));
#1139=DIRECTION('',(1.,0.,0.));
#1140=DIRECTION('',(0.,0.,1.));
#1141=DIRECTION('',(0.887010833178222,0.461748613235033,0.));
#1142=DIRECTION('',(-0.461748613235033,0.887010833178222,0.));
#1143=DIRECTION('',(-0.96004985438593,0.279829014030988,0.));
#1144=DIRECTION('',(-0.279829014030988,-0.96004985438593,0.));
#1145=DIRECTION('',(0.,0.,1.));
#1146=DIRECTION('',(0.,0.,1.));
#1147=DIRECTION('',(1.,0.,0.));
#1148=DIRECTION('',(0.,0.,1.));
#1149=DIRECTION('',(0.779884483092882,0.625923472184058,0.));
#1150=DIRECTION('',(-0.625923472184058,0.779884483092882,0.));
#1151=DIRECTION('',(-0.996194698091746,0.0871557427476539,0.));
#1152=DIRECTION('',(-0.0871557427476539,-0.996194698091746,0.));
#1153=DIRECTION('',(0.,0.,1.));
#1154=DIRECTION('',(0.,0.,1.));
#1155=DIRECTION('',(1.,0.,0.));
#1156=DIRECTION('',(0.,0.,1.));
#1157=DIRECTION('',(0.,0.,1.));
#1158=DIRECTION('',(1.,0.,0.));
#1159=DIRECTION('',(0.,0.,1.));
#1160=DIRECTION('',(1.,0.,0.));
#1161=CARTESIAN_POINT('',(0.,0.,0.));
#1162=CARTESIAN_POINT('',(-0.00390160578979567,-0.0107115578820745,-1.00000000000002E-6));
#1163=CARTESIAN_POINT('',(-0.00373048272883972,-0.0102417527118081,-1.00000000000002E-6));
#1164=CARTESIAN_POINT('',(-0.00373048272883972,-0.0102417527118081,0.));
#1165=CARTESIAN_POINT('',(-0.00373048272883972,-0.0102417527118081,0.0005));
#1166=CARTESIAN_POINT('',(-0.00390160578979567,-0.0107115578820745,0.));
#1167=CARTESIAN_POINT('',(-0.00342474731442156,-0.0108619107818267,0.));
#1168=CARTESIAN_POINT('',(-0.00342474731442155,-0.0108619107818267,-1.00000000000002E-6));
#1169=CARTESIAN_POINT('',(-0.00342474731442155,-0.0108619107818267,0.0005));
#1170=CARTESIAN_POINT('',(-0.00390160578979567,-0.0107115578820745,0.0005));
#1171=CARTESIAN_POINT('',(0.,0.,0.0005));
#1172=CARTESIAN_POINT('',(0.,0.,0.));
#1173=CARTESIAN_POINT('',(0.00757367401342711,-0.00943660224542387,0.));
#1174=CARTESIAN_POINT('',(0.00776317902804415,-0.00928132810423893,0.));
#1175=CARTESIAN_POINT('',(0.00776317902804415,-0.00928132810423893,-1.00000000000002E-6));
#1176=CARTESIAN_POINT('',(0.00776317902804415,-0.00928132810423893,0.0005));
#1177=CARTESIAN_POINT('',(0.,0.,0.0005));
#1178=CARTESIAN_POINT('',(0.00757367401342711,-0.00943660224542387,0.0005));
#1179=CARTESIAN_POINT('',(0.00757367401342711,-0.00943660224542387,-1.00000000000002E-6));
#1180=CARTESIAN_POINT('',(0.,0.,0.0005));
#1181=CARTESIAN_POINT('',(0.,0.,0.));
#1182=CARTESIAN_POINT('',(0.0055871582201439,-0.0107328310814565,0.));
#1183=CARTESIAN_POINT('',(0.00580331443124744,-0.0106175110836804,0.));
#1184=CARTESIAN_POINT('',(0.00580331443124744,-0.0106175110836804,-1.00000000000002E-6));
#1185=CARTESIAN_POINT('',(0.00580331443124744,-0.0106175110836804,0.0005));
#1186=CARTESIAN_POINT('',(0.,0.,0.0005));
#1187=CARTESIAN_POINT('',(0.0055871582201439,-0.0107328310814565,0.0005));
#1188=CARTESIAN_POINT('',(0.0055871582201439,-0.0107328310814565,-1.00000000000002E-6));
#1189=CARTESIAN_POINT('',(0.,0.,0.0005));
#1190=CARTESIAN_POINT('',(0.,0.,0.));
#1191=CARTESIAN_POINT('',(0.00338593106977499,-0.0116166032380697,0.));
#1192=CARTESIAN_POINT('',(0.00362043171539412,-0.0115456690665448,0.));
#1193=CARTESIAN_POINT('',(0.00362043171539412,-0.0115456690665448,-1.00000000000002E-6));
#1194=CARTESIAN_POINT('',(0.00362043171539412,-0.0115456690665448,0.0005));
#1195=CARTESIAN_POINT('',(0.,0.,0.0005));
#1196=CARTESIAN_POINT('',(0.00338593106977499,-0.0116166032380697,0.0005));
#1197=CARTESIAN_POINT('',(0.00338593106977499,-0.0116166032380697,-1.00000000000002E-6));
#1198=CARTESIAN_POINT('',(0.,0.,0.0005));
#1199=CARTESIAN_POINT('',(0.,0.,0.));
#1200=CARTESIAN_POINT('',(0.00105458448724664,-0.0120539558469101,0.));
#1201=CARTESIAN_POINT('',(0.0012984178390797,-0.0120301334620676,0.));
#1202=CARTESIAN_POINT('',(0.0012984178390797,-0.0120301334620676,-1.00000000000002E-6));
#1203=CARTESIAN_POINT('',(0.0012984178390797,-0.0120301334620676,0.0005));
#1204=CARTESIAN_POINT('',(0.,0.,0.0005));
#1205=CARTESIAN_POINT('',(0.00105458448724664,-0.0120539558469101,0.0005));
#1206=CARTESIAN_POINT('',(0.00105458448724664,-0.0120539558469101,-1.00000000000002E-6));
#1207=CARTESIAN_POINT('',(0.,0.,0.0005));
#1208=CARTESIAN_POINT('',(0.,0.,0.));
#1209=CARTESIAN_POINT('',(-0.0013172891857088,-0.0120280816924901,0.));
#1210=CARTESIAN_POINT('',(-0.00107349350662944,-0.0120522865752198,0.));
#1211=CARTESIAN_POINT('',(-0.00107349350662944,-0.0120522865752198,-1.00000000000002E-6));
#1212=CARTESIAN_POINT('',(-0.00107349350662944,-0.0120522865752198,0.0005));
#1213=CARTESIAN_POINT('',(0.,0.,0.0005));
#1214=CARTESIAN_POINT('',(-0.0013172891857088,-0.0120280816924901,0.0005));
#1215=CARTESIAN_POINT('',(-0.0013172891857088,-0.0120280816924901,-1.00000000000002E-6));
#1216=CARTESIAN_POINT('',(0.,0.,0.0005));
#1217=CARTESIAN_POINT('',(0.,0.,0.));
#1218=CARTESIAN_POINT('',(-0.00363854017400174,-0.0115399751040535,0.));
#1219=CARTESIAN_POINT('',(-0.00340415109890091,-0.0116112770742865,0.));
#1220=CARTESIAN_POINT('',(-0.00340415109890091,-0.0116112770742865,-1.00000000000002E-6));
#1221=CARTESIAN_POINT('',(-0.00340415109890091,-0.0116112770742865,0.0005));
#1222=CARTESIAN_POINT('',(0.,0.,0.0005));
#1223=CARTESIAN_POINT('',(-0.00363854017400174,-0.0115399751040535,0.0005));
#1224=CARTESIAN_POINT('',(-0.00363854017400174,-0.0115399751040535,-1.00000000000002E-6));
#1225=CARTESIAN_POINT('',(0.,0.,0.0005));
#1226=CARTESIAN_POINT('',(0.,0.,0.));
#1227=CARTESIAN_POINT('',(0.00577494588719236,-0.0043,0.));
#1228=CARTESIAN_POINT('',(0.00553923133011576,-0.0045996647999027,0.));
#1229=CARTESIAN_POINT('',(0.00553923133011576,-0.0045996647999027,0.0005));
#1230=CARTESIAN_POINT('',(0.00553923133011576,-0.0045996647999027,0.0005));
#1231=CARTESIAN_POINT('',(0.,0.,0.0005));
#1232=CARTESIAN_POINT('',(0.00577494588719236,-0.0043,0.0005));
#1233=CARTESIAN_POINT('',(0.00577494588719236,-0.0043,0.0005));
#1234=CARTESIAN_POINT('',(0.00553923133011576,-0.0045996647999027,0.0005));
#1235=CARTESIAN_POINT('',(0.00553923133011576,-0.0045996647999027,0.));
#1236=CARTESIAN_POINT('',(0.00659,-0.00641964952314377,0.));
#1237=CARTESIAN_POINT('',(0.00659,-0.00641964952314377,0.0005));
#1238=CARTESIAN_POINT('',(0.00659,-0.00641964952314377,0.0005));
#1239=CARTESIAN_POINT('',(0.00553923133011576,-0.0045996647999027,0.0005));
#1240=CARTESIAN_POINT('',(0.,0.,0.0005));
#1241=CARTESIAN_POINT('',(0.,0.,0.));
#1242=CARTESIAN_POINT('',(0.005,-0.00772269383052313,0.));
#1243=CARTESIAN_POINT('',(0.005,-0.00772269383052313,0.0005));
#1244=CARTESIAN_POINT('',(0.005,-0.00772269383052313,0.0005));
#1245=CARTESIAN_POINT('',(0.,0.,0.0005));
#1246=CARTESIAN_POINT('',(0.005,-0.00772269383052313,0.0005));
#1247=CARTESIAN_POINT('',(0.005,-0.00772269383052313,0.));
#1248=CARTESIAN_POINT('',(0.005,-0.00784155596804614,0.));
#1249=CARTESIAN_POINT('',(0.005,-0.00784155596804614,0.0005));
#1250=CARTESIAN_POINT('',(0.005,-0.00784155596804614,0.0005));
#1251=CARTESIAN_POINT('',(0.005,-0.00772269383052313,0.0005));
#1252=CARTESIAN_POINT('',(0.,0.,0.0005));
#1253=CARTESIAN_POINT('',(0.,0.,0.));
#1254=CARTESIAN_POINT('',(-0.005,-0.00784155596804614,0.));
#1255=CARTESIAN_POINT('',(-0.005,-0.00784155596804614,0.0005));
#1256=CARTESIAN_POINT('',(-0.005,-0.00784155596804614,0.0005));
#1257=CARTESIAN_POINT('',(0.,0.,0.0005));
#1258=CARTESIAN_POINT('',(-0.005,-0.00772269383052313,0.0005));
#1259=CARTESIAN_POINT('',(-0.005,-0.00772269383052313,0.));
#1260=CARTESIAN_POINT('',(-0.005,-0.00772269383052313,0.));
#1261=CARTESIAN_POINT('',(-0.005,-0.00772269383052313,0.0005));
#1262=CARTESIAN_POINT('',(-0.005,-0.00772269383052313,0.0005));
#1263=CARTESIAN_POINT('',(-0.005,-0.00772269383052313,0.0005));
#1264=CARTESIAN_POINT('',(0.,0.,0.0005));
#1265=CARTESIAN_POINT('',(0.,0.,0.));
#1266=CARTESIAN_POINT('',(-0.00659,-0.00641964952314377,0.));
#1267=CARTESIAN_POINT('',(-0.00659,-0.00641964952314377,0.0005));
#1268=CARTESIAN_POINT('',(-0.00659,-0.00641964952314377,0.0005));
#1269=CARTESIAN_POINT('',(0.,0.,0.0005));
#1270=CARTESIAN_POINT('',(-0.00553923133011576,-0.0045996647999027,0.0005));
#1271=CARTESIAN_POINT('',(-0.00553923133011576,-0.0045996647999027,0.));
#1272=CARTESIAN_POINT('',(-0.00553923133011576,-0.0045996647999027,0.));
#1273=CARTESIAN_POINT('',(-0.00553923133011576,-0.0045996647999027,0.0005));
#1274=CARTESIAN_POINT('',(-0.00553923133011576,-0.0045996647999027,0.0005));
#1275=CARTESIAN_POINT('',(-0.00553923133011576,-0.0045996647999027,0.0005));
#1276=CARTESIAN_POINT('',(0.,0.,0.0005));
#1277=CARTESIAN_POINT('',(0.,0.,0.));
#1278=CARTESIAN_POINT('',(-0.00577494588719236,-0.0043,0.));
#1279=CARTESIAN_POINT('',(-0.00577494588719236,-0.0043,0.0005));
#1280=CARTESIAN_POINT('',(-0.00577494588719236,-0.0043,0.0005));
#1281=CARTESIAN_POINT('',(0.,0.,0.0005));
#1282=CARTESIAN_POINT('',(-0.00826022314597606,-0.0043,0.0005));
#1283=CARTESIAN_POINT('',(-0.00826022314597606,-0.0043,0.));
#1284=CARTESIAN_POINT('',(-0.00826022314597606,-0.0043,0.));
#1285=CARTESIAN_POINT('',(-0.00826022314597606,-0.0043,0.0005));
#1286=CARTESIAN_POINT('',(-0.00826022314597606,-0.0043,0.0005));
#1287=CARTESIAN_POINT('',(-0.00826022314597606,-0.0043,0.0005));
#1288=CARTESIAN_POINT('',(-0.00826022314597606,-0.0043,0.0005));
#1289=CARTESIAN_POINT('',(-0.00826022314597606,-0.0043,0.));
#1290=CARTESIAN_POINT('',(-0.00966841808164263,-0.00503305988426184,0.));
#1291=CARTESIAN_POINT('',(-0.00966841808164263,-0.00503305988426184,-1.00000000000002E-6));
#1292=CARTESIAN_POINT('',(-0.00966841808164263,-0.00503305988426184,0.0005));
#1293=CARTESIAN_POINT('',(-0.00826022314597606,-0.0043,0.0005));
#1294=CARTESIAN_POINT('',(0.00826022314597607,-0.0043,0.0005));
#1295=CARTESIAN_POINT('',(0.00826022314597607,-0.0043,0.0005));
#1296=CARTESIAN_POINT('',(0.00873649386454358,-0.00454793084322885,0.0005));
#1297=CARTESIAN_POINT('',(0.00826022314597607,-0.0043,0.0005));
#1298=CARTESIAN_POINT('',(0.00873649386454358,-0.00454793084322885,0.0005));
#1299=CARTESIAN_POINT('',(0.00873649386454358,-0.00454793084322885,0.));
#1300=CARTESIAN_POINT('',(0.00826022314597607,-0.0043,0.));
#1301=CARTESIAN_POINT('',(0.00826022314597607,-0.0043,0.));
#1302=CARTESIAN_POINT('',(0.00826022314597607,-0.0043,0.0005));
#1303=CARTESIAN_POINT('',(0.00577494588719236,-0.0043,0.0005));
#1304=CARTESIAN_POINT('',(0.00577494588719236,-0.0043,0.));
#1305=CARTESIAN_POINT('',(0.00577494588719236,-0.0043,0.0005));
#1306=CARTESIAN_POINT('',(0.,0.,0.0005));
#1307=CARTESIAN_POINT('',(0.,0.,0.0005));
#1308=CARTESIAN_POINT('',(-0.00342474731442155,-0.0108619107818267,0.0005));
#1309=CARTESIAN_POINT('',(-0.00340415109890091,-0.0116112770742865,0.0005));
#1310=CARTESIAN_POINT('',(-0.00197741063651898,-0.0108285404529834,0.0005));
#1311=CARTESIAN_POINT('',(-0.00173691625205929,-0.0112669038308371,0.0005));
#1312=CARTESIAN_POINT('',(-0.00123988808294813,-0.0113213372682631,0.0005));
#1313=CARTESIAN_POINT('',(-0.00123988808294813,-0.0113213372682631,0.0005));
#1314=CARTESIAN_POINT('',(-0.00107349350662944,-0.0120522865752198,0.0005));
#1315=CARTESIAN_POINT('',(0.0001731281983266,-0.0110062467623736,0.0005));
#1316=CARTESIAN_POINT('',(0.00049452200316987,-0.0113892689839331,0.0005));
#1317=CARTESIAN_POINT('',(0.000992619352215745,-0.0113456911125593,0.0005));
#1318=CARTESIAN_POINT('',(0.000992619352215745,-0.0113456911125593,0.0005));
#1319=CARTESIAN_POINT('',(0.0012984178390797,-0.0120301334620676,0.0005));
#1320=CARTESIAN_POINT('',(0.0023170138136019,-0.0107609891810602,0.0005));
#1321=CARTESIAN_POINT('',(0.00270695605514835,-0.0110739509171522,0.0005));
#1322=CARTESIAN_POINT('',(0.00318698098234131,-0.0109340364101367,0.0005));
#1323=CARTESIAN_POINT('',(0.00318698098234131,-0.0109340364101367,0.0005));
#1324=CARTESIAN_POINT('',(0.00362043171539412,-0.0115456690665448,0.0005));
#1325=CARTESIAN_POINT('',(0.00437185788741681,-0.0101021928203508,0.0005));
#1326=CARTESIAN_POINT('',(0.00481536330400592,-0.0103330671269683,0.0005));
#1327=CARTESIAN_POINT('',(0.00525886872059503,-0.0101021928203508,0.0005));
#1328=CARTESIAN_POINT('',(0.00525886872059503,-0.0101021928203508,0.0005));
#1329=CARTESIAN_POINT('',(0.00580331443124744,-0.0106175110836804,0.0005));
#1330=CARTESIAN_POINT('',(0.00625869391438443,-0.00905517485493036,0.0005));
#1331=CARTESIAN_POINT('',(0.00673871884157739,-0.00919508936194586,0.0005));
#1332=CARTESIAN_POINT('',(0.00712866108312383,-0.00888212762585383,0.0005));
#1333=CARTESIAN_POINT('',(0.00712866108312383,-0.00888212762585383,0.0005));
#1334=CARTESIAN_POINT('',(0.00776317902804415,-0.00928132810423893,0.0005));
#1335=CARTESIAN_POINT('',(0.00791999592597633,-0.00748890275891725,0.0005));
#1336=CARTESIAN_POINT('',(0.,0.,0.0005));
#1337=CARTESIAN_POINT('',(0.00911057810497608,-0.00598392568412496,0.0005));
#1338=CARTESIAN_POINT('',(0.00827474525130855,-0.00543494167640707,0.0005));
#1339=CARTESIAN_POINT('',(0.,0.,0.));
#1340=CARTESIAN_POINT('',(0.,0.,0.));
#1341=CARTESIAN_POINT('',(0.00827474525130855,-0.00543494167640707,0.));
#1342=CARTESIAN_POINT('',(0.00911057810497608,-0.00598392568412496,0.));
#1343=CARTESIAN_POINT('',(0.,0.,0.));
#1344=CARTESIAN_POINT('',(0.00791999592597633,-0.00748890275891725,0.));
#1345=CARTESIAN_POINT('',(0.00776317902804415,-0.00928132810423893,0.));
#1346=CARTESIAN_POINT('',(0.00712866108312383,-0.00888212762585383,0.));
#1347=CARTESIAN_POINT('',(0.00712866108312383,-0.00888212762585383,0.));
#1348=CARTESIAN_POINT('',(0.00673871884157739,-0.00919508936194586,0.));
#1349=CARTESIAN_POINT('',(0.00625869391438443,-0.00905517485493036,0.));
#1350=CARTESIAN_POINT('',(0.00580331443124744,-0.0106175110836804,0.));
#1351=CARTESIAN_POINT('',(0.00525886872059503,-0.0101021928203508,0.));
#1352=CARTESIAN_POINT('',(0.00525886872059503,-0.0101021928203508,0.));
#1353=CARTESIAN_POINT('',(0.00481536330400592,-0.0103330671269683,0.));
#1354=CARTESIAN_POINT('',(0.00437185788741681,-0.0101021928203508,0.));
#1355=CARTESIAN_POINT('',(0.00362043171539412,-0.0115456690665448,0.));
#1356=CARTESIAN_POINT('',(0.00318698098234131,-0.0109340364101367,0.));
#1357=CARTESIAN_POINT('',(0.00318698098234131,-0.0109340364101367,0.));
#1358=CARTESIAN_POINT('',(0.00270695605514835,-0.0110739509171522,0.));
#1359=CARTESIAN_POINT('',(0.0023170138136019,-0.0107609891810602,0.));
#1360=CARTESIAN_POINT('',(0.0012984178390797,-0.0120301334620676,0.));
#1361=CARTESIAN_POINT('',(0.000992619352215745,-0.0113456911125593,0.));
#1362=CARTESIAN_POINT('',(0.000992619352215745,-0.0113456911125593,0.));
#1363=CARTESIAN_POINT('',(0.00049452200316987,-0.0113892689839331,0.));
#1364=CARTESIAN_POINT('',(0.0001731281983266,-0.0110062467623736,0.));
#1365=CARTESIAN_POINT('',(-0.00107349350662944,-0.0120522865752198,0.));
#1366=CARTESIAN_POINT('',(-0.00123988808294813,-0.0113213372682631,0.));
#1367=CARTESIAN_POINT('',(-0.00123988808294813,-0.0113213372682631,0.));
#1368=CARTESIAN_POINT('',(-0.00173691625205929,-0.0112669038308371,0.));
#1369=CARTESIAN_POINT('',(-0.00197741063651898,-0.0108285404529834,0.));
#1370=CARTESIAN_POINT('',(-0.00340415109890091,-0.0116112770742865,0.));
#1371=CARTESIAN_POINT('',(-0.00342474731442155,-0.0108619107818267,0.));
#1372=CARTESIAN_POINT('',(-0.00342474731442155,-0.0108619107818267,-1.00000000000002E-6));
#1373=CARTESIAN_POINT('',(-0.00340415109890091,-0.0116112770742865,-1.00000000000002E-6));
#1374=CARTESIAN_POINT('',(-0.00197741063651898,-0.0108285404529834,-1.00000000000002E-6));
#1375=CARTESIAN_POINT('',(-0.00173691625205929,-0.0112669038308371,-1.00000000000002E-6));
#1376=CARTESIAN_POINT('',(-0.00123988808294813,-0.0113213372682631,-1.00000000000002E-6));
#1377=CARTESIAN_POINT('',(-0.00123988808294813,-0.0113213372682631,-1.00000000000002E-6));
#1378=CARTESIAN_POINT('',(-0.00107349350662944,-0.0120522865752198,-1.00000000000002E-6));
#1379=CARTESIAN_POINT('',(0.0001731281983266,-0.0110062467623736,-1.00000000000002E-6));
#1380=CARTESIAN_POINT('',(0.00049452200316987,-0.0113892689839331,-1.00000000000002E-6));
#1381=CARTESIAN_POINT('',(0.000992619352215745,-0.0113456911125593,-1.00000000000002E-6));
#1382=CARTESIAN_POINT('',(0.000992619352215745,-0.0113456911125593,-1.00000000000002E-6));
#1383=CARTESIAN_POINT('',(0.0012984178390797,-0.0120301334620676,-1.00000000000002E-6));
#1384=CARTESIAN_POINT('',(0.0023170138136019,-0.0107609891810602,-1.00000000000002E-6));
#1385=CARTESIAN_POINT('',(0.00270695605514835,-0.0110739509171522,-1.00000000000002E-6));
#1386=CARTESIAN_POINT('',(0.00318698098234131,-0.0109340364101367,-1.00000000000002E-6));
#1387=CARTESIAN_POINT('',(0.00318698098234131,-0.0109340364101367,-1.00000000000002E-6));
#1388=CARTESIAN_POINT('',(0.00362043171539412,-0.0115456690665448,-1.00000000000002E-6));
#1389=CARTESIAN_POINT('',(0.00437185788741681,-0.0101021928203508,-1.00000000000002E-6));
#1390=CARTESIAN_POINT('',(0.00481536330400592,-0.0103330671269683,-1.00000000000002E-6));
#1391=CARTESIAN_POINT('',(0.00525886872059503,-0.0101021928203508,-1.00000000000002E-6));
#1392=CARTESIAN_POINT('',(0.00525886872059503,-0.0101021928203508,-1.00000000000002E-6));
#1393=CARTESIAN_POINT('',(0.00580331443124744,-0.0106175110836804,-1.00000000000002E-6));
#1394=CARTESIAN_POINT('',(0.00625869391438443,-0.00905517485493036,-1.00000000000002E-6));
#1395=CARTESIAN_POINT('',(0.00673871884157739,-0.00919508936194586,-1.00000000000002E-6));
#1396=CARTESIAN_POINT('',(0.00712866108312383,-0.00888212762585383,-1.00000000000002E-6));
#1397=CARTESIAN_POINT('',(0.00712866108312383,-0.00888212762585383,-1.00000000000002E-6));
#1398=CARTESIAN_POINT('',(0.00776317902804415,-0.00928132810423893,-1.00000000000002E-6));
#1399=CARTESIAN_POINT('',(0.00791999592597633,-0.00748890275891725,-1.00000000000002E-6));
#1400=CARTESIAN_POINT('',(0.,0.,-1.00000000000002E-6));
#1401=CARTESIAN_POINT('',(0.00911057810497608,-0.00598392568412496,-1.00000000000002E-6));
#1402=CARTESIAN_POINT('',(0.00827474525130855,-0.00543494167640707,-1.00000000000002E-6));
#1403=CARTESIAN_POINT('',(0.,0.,-1.00000000000002E-6));
#1404=(
GEOMETRIC_REPRESENTATION_CONTEXT(3)
GLOBAL_UNCERTAINTY_ASSIGNED_CONTEXT((#1405))
GLOBAL_UNIT_ASSIGNED_CONTEXT((#1408,#1407,#1406))
REPRESENTATION_CONTEXT('id2','TOP_LEVEL_ASSEMBLY_PART')
);
#1405=UNCERTAINTY_MEASURE_WITH_UNIT(LENGTH_MEASURE(1.E-8),#1408,
'DISTANCE_ACCURACY_VALUE','Maximum Tolerance applied to model');
#1406=(
NAMED_UNIT(*)
SI_UNIT($,.STERADIAN.)
SOLID_ANGLE_UNIT()
);
#1407=(
NAMED_UNIT(*)
PLANE_ANGLE_UNIT()
SI_UNIT($,.RADIAN.)
);
#1408=(
LENGTH_UNIT()
NAMED_UNIT(*)
SI_UNIT($,.METRE.)
);
#1409=PRODUCT_DEFINITION_SHAPE('','',#1410);
#1410=PRODUCT_DEFINITION('','',#1412,#1411);
#1411=DESIGN_CONTEXT('',#1418,'design');
#1412=PRODUCT_DEFINITION_FORMATION_WITH_SPECIFIED_SOURCE('','',#1414,
 .NOT_KNOWN.);
#1413=PRODUCT_RELATED_PRODUCT_CATEGORY('','',(#1414));
#1414=PRODUCT('id2','id2','id2',(#1416));
#1415=PRODUCT_CATEGORY('','');
#1416=MECHANICAL_CONTEXT('',#1418,'mechanical');
#1417=APPLICATION_PROTOCOL_DEFINITION('international standard',
'config_control_design',2010,#1418);
#1418=APPLICATION_CONTEXT(
'configuration controlled 3D designs of mechanical parts and assemblie
s');
ENDSEC;
END-ISO-10303-21;
