ISO-10303-21;
HEADER;
/* Generated by software containing ST-Developer
 * from STEP Tools, Inc. (www.steptools.com) 
 */
/* OPTION: using custom renumber hook */

FILE_DESCRIPTION(
/* description */ ('STEP AP203'),
/* implementation_level */ '2;1');

FILE_NAME(
/* name */ '6a5464d8a930e3b0a214048a',
/* time_stamp */ '2026-07-13T04:08:56Z',
/* author */ (''),
/* organization */ (''),
/* preprocessor_version */ 'ST-DEVELOPER v20',
/* originating_system */ 'ONSHAPE BY PTC INC, 1.217',
/* authorisation */ '  ');

FILE_SCHEMA (('CONFIG_CONTROL_DESIGN'));
ENDSEC;

DATA;
#10=PROPERTY_DEFINITION_REPRESENTATION(#14,#12);
#11=PROPERTY_DEFINITION_REPRESENTATION(#15,#13);
#12=REPRESENTATION('',(#16),#1132);
#13=REPRESENTATION('',(#17),#1132);
#14=PROPERTY_DEFINITION('pmi validation property','',#1137);
#15=PROPERTY_DEFINITION('pmi validation property','',#1137);
#16=VALUE_REPRESENTATION_ITEM('number of annotations',COUNT_MEASURE(0.));
#17=VALUE_REPRESENTATION_ITEM('number of views',COUNT_MEASURE(0.));
#18=SHAPE_REPRESENTATION_RELATIONSHIP('','',#671,#19);
#19=ADVANCED_BREP_SHAPE_REPRESENTATION('',(#669),#1132);
#20=PLANE('',#691);
#21=PLANE('',#695);
#22=PLANE('',#699);
#23=PLANE('',#703);
#24=PLANE('',#707);
#25=PLANE('',#708);
#26=PLANE('',#709);
#27=PLANE('',#710);
#28=PLANE('',#711);
#29=PLANE('',#718);
#30=PLANE('',#725);
#31=PLANE('',#726);
#32=PLANE('',#728);
#33=PLANE('',#729);
#34=PLANE('',#731);
#35=PLANE('',#732);
#36=PLANE('',#734);
#37=PLANE('',#735);
#38=CIRCLE('',#674,0.0005);
#39=CIRCLE('',#675,0.0005);
#40=CIRCLE('',#677,0.0121);
#41=CIRCLE('',#678,0.0121);
#42=CIRCLE('',#680,0.0121);
#43=CIRCLE('',#681,0.0121);
#44=CIRCLE('',#683,0.0121);
#45=CIRCLE('',#684,0.0121);
#46=CIRCLE('',#686,0.0121);
#47=CIRCLE('',#687,0.0121);
#48=CIRCLE('',#689,0.0072);
#49=CIRCLE('',#690,0.0072);
#50=CIRCLE('',#693,0.0092);
#51=CIRCLE('',#694,0.0092);
#52=CIRCLE('',#697,0.0093);
#53=CIRCLE('',#698,0.0093);
#54=CIRCLE('',#701,0.0092);
#55=CIRCLE('',#702,0.0092);
#56=CIRCLE('',#705,0.0072);
#57=CIRCLE('',#706,0.0072);
#58=CIRCLE('',#712,0.0109);
#59=CIRCLE('',#713,0.0005);
#60=CIRCLE('',#714,0.0005);
#61=CIRCLE('',#715,0.0005);
#62=CIRCLE('',#716,0.0109);
#63=CIRCLE('',#717,0.001);
#64=CIRCLE('',#719,0.0109);
#65=CIRCLE('',#720,0.001);
#66=CIRCLE('',#721,0.0109);
#67=CIRCLE('',#722,0.0005);
#68=CIRCLE('',#723,0.0005);
#69=CIRCLE('',#724,0.0005);
#70=ORIENTED_EDGE('',*,*,#262,.F.);
#71=ORIENTED_EDGE('',*,*,#263,.F.);
#72=ORIENTED_EDGE('',*,*,#264,.T.);
#73=ORIENTED_EDGE('',*,*,#265,.T.);
#74=ORIENTED_EDGE('',*,*,#266,.T.);
#75=ORIENTED_EDGE('',*,*,#267,.T.);
#76=ORIENTED_EDGE('',*,*,#268,.F.);
#77=ORIENTED_EDGE('',*,*,#269,.F.);
#78=ORIENTED_EDGE('',*,*,#270,.T.);
#79=ORIENTED_EDGE('',*,*,#271,.T.);
#80=ORIENTED_EDGE('',*,*,#272,.F.);
#81=ORIENTED_EDGE('',*,*,#273,.F.);
#82=ORIENTED_EDGE('',*,*,#274,.T.);
#83=ORIENTED_EDGE('',*,*,#275,.T.);
#84=ORIENTED_EDGE('',*,*,#276,.F.);
#85=ORIENTED_EDGE('',*,*,#277,.F.);
#86=ORIENTED_EDGE('',*,*,#278,.T.);
#87=ORIENTED_EDGE('',*,*,#279,.T.);
#88=ORIENTED_EDGE('',*,*,#280,.F.);
#89=ORIENTED_EDGE('',*,*,#281,.F.);
#90=ORIENTED_EDGE('',*,*,#282,.T.);
#91=ORIENTED_EDGE('',*,*,#283,.F.);
#92=ORIENTED_EDGE('',*,*,#284,.F.);
#93=ORIENTED_EDGE('',*,*,#285,.T.);
#94=ORIENTED_EDGE('',*,*,#286,.T.);
#95=ORIENTED_EDGE('',*,*,#287,.F.);
#96=ORIENTED_EDGE('',*,*,#288,.F.);
#97=ORIENTED_EDGE('',*,*,#283,.T.);
#98=ORIENTED_EDGE('',*,*,#289,.T.);
#99=ORIENTED_EDGE('',*,*,#290,.F.);
#100=ORIENTED_EDGE('',*,*,#291,.F.);
#101=ORIENTED_EDGE('',*,*,#287,.T.);
#102=ORIENTED_EDGE('',*,*,#292,.T.);
#103=ORIENTED_EDGE('',*,*,#293,.F.);
#104=ORIENTED_EDGE('',*,*,#294,.F.);
#105=ORIENTED_EDGE('',*,*,#290,.T.);
#106=ORIENTED_EDGE('',*,*,#295,.T.);
#107=ORIENTED_EDGE('',*,*,#296,.F.);
#108=ORIENTED_EDGE('',*,*,#297,.F.);
#109=ORIENTED_EDGE('',*,*,#293,.T.);
#110=ORIENTED_EDGE('',*,*,#298,.T.);
#111=ORIENTED_EDGE('',*,*,#299,.F.);
#112=ORIENTED_EDGE('',*,*,#300,.F.);
#113=ORIENTED_EDGE('',*,*,#296,.T.);
#114=ORIENTED_EDGE('',*,*,#301,.T.);
#115=ORIENTED_EDGE('',*,*,#302,.F.);
#116=ORIENTED_EDGE('',*,*,#303,.F.);
#117=ORIENTED_EDGE('',*,*,#299,.T.);
#118=ORIENTED_EDGE('',*,*,#304,.T.);
#119=ORIENTED_EDGE('',*,*,#305,.F.);
#120=ORIENTED_EDGE('',*,*,#306,.F.);
#121=ORIENTED_EDGE('',*,*,#302,.T.);
#122=ORIENTED_EDGE('',*,*,#307,.T.);
#123=ORIENTED_EDGE('',*,*,#308,.F.);
#124=ORIENTED_EDGE('',*,*,#309,.F.);
#125=ORIENTED_EDGE('',*,*,#305,.T.);
#126=ORIENTED_EDGE('',*,*,#310,.T.);
#127=ORIENTED_EDGE('',*,*,#311,.F.);
#128=ORIENTED_EDGE('',*,*,#312,.F.);
#129=ORIENTED_EDGE('',*,*,#308,.T.);
#130=ORIENTED_EDGE('',*,*,#313,.T.);
#131=ORIENTED_EDGE('',*,*,#314,.T.);
#132=ORIENTED_EDGE('',*,*,#315,.F.);
#133=ORIENTED_EDGE('',*,*,#311,.T.);
#134=ORIENTED_EDGE('',*,*,#316,.F.);
#135=ORIENTED_EDGE('',*,*,#317,.T.);
#136=ORIENTED_EDGE('',*,*,#318,.T.);
#137=ORIENTED_EDGE('',*,*,#319,.F.);
#138=ORIENTED_EDGE('',*,*,#320,.T.);
#139=ORIENTED_EDGE('',*,*,#285,.F.);
#140=ORIENTED_EDGE('',*,*,#321,.F.);
#141=ORIENTED_EDGE('',*,*,#319,.T.);
#142=ORIENTED_EDGE('',*,*,#315,.T.);
#143=ORIENTED_EDGE('',*,*,#322,.F.);
#144=ORIENTED_EDGE('',*,*,#265,.F.);
#145=ORIENTED_EDGE('',*,*,#323,.F.);
#146=ORIENTED_EDGE('',*,*,#280,.T.);
#147=ORIENTED_EDGE('',*,*,#324,.F.);
#148=ORIENTED_EDGE('',*,*,#325,.F.);
#149=ORIENTED_EDGE('',*,*,#326,.F.);
#150=ORIENTED_EDGE('',*,*,#276,.T.);
#151=ORIENTED_EDGE('',*,*,#327,.F.);
#152=ORIENTED_EDGE('',*,*,#328,.F.);
#153=ORIENTED_EDGE('',*,*,#329,.F.);
#154=ORIENTED_EDGE('',*,*,#272,.T.);
#155=ORIENTED_EDGE('',*,*,#330,.F.);
#156=ORIENTED_EDGE('',*,*,#331,.F.);
#157=ORIENTED_EDGE('',*,*,#332,.F.);
#158=ORIENTED_EDGE('',*,*,#268,.T.);
#159=ORIENTED_EDGE('',*,*,#333,.F.);
#160=ORIENTED_EDGE('',*,*,#334,.F.);
#161=ORIENTED_EDGE('',*,*,#335,.T.);
#162=ORIENTED_EDGE('',*,*,#316,.T.);
#163=ORIENTED_EDGE('',*,*,#321,.T.);
#164=ORIENTED_EDGE('',*,*,#284,.T.);
#165=ORIENTED_EDGE('',*,*,#288,.T.);
#166=ORIENTED_EDGE('',*,*,#291,.T.);
#167=ORIENTED_EDGE('',*,*,#294,.T.);
#168=ORIENTED_EDGE('',*,*,#297,.T.);
#169=ORIENTED_EDGE('',*,*,#300,.T.);
#170=ORIENTED_EDGE('',*,*,#303,.T.);
#171=ORIENTED_EDGE('',*,*,#306,.T.);
#172=ORIENTED_EDGE('',*,*,#309,.T.);
#173=ORIENTED_EDGE('',*,*,#312,.T.);
#174=ORIENTED_EDGE('',*,*,#336,.T.);
#175=ORIENTED_EDGE('',*,*,#313,.F.);
#176=ORIENTED_EDGE('',*,*,#310,.F.);
#177=ORIENTED_EDGE('',*,*,#307,.F.);
#178=ORIENTED_EDGE('',*,*,#304,.F.);
#179=ORIENTED_EDGE('',*,*,#301,.F.);
#180=ORIENTED_EDGE('',*,*,#298,.F.);
#181=ORIENTED_EDGE('',*,*,#295,.F.);
#182=ORIENTED_EDGE('',*,*,#292,.F.);
#183=ORIENTED_EDGE('',*,*,#289,.F.);
#184=ORIENTED_EDGE('',*,*,#286,.F.);
#185=ORIENTED_EDGE('',*,*,#282,.F.);
#186=ORIENTED_EDGE('',*,*,#320,.F.);
#187=ORIENTED_EDGE('',*,*,#318,.F.);
#188=ORIENTED_EDGE('',*,*,#337,.T.);
#189=ORIENTED_EDGE('',*,*,#338,.T.);
#190=ORIENTED_EDGE('',*,*,#339,.T.);
#191=ORIENTED_EDGE('',*,*,#266,.F.);
#192=ORIENTED_EDGE('',*,*,#340,.T.);
#193=ORIENTED_EDGE('',*,*,#341,.T.);
#194=ORIENTED_EDGE('',*,*,#342,.T.);
#195=ORIENTED_EDGE('',*,*,#270,.F.);
#196=ORIENTED_EDGE('',*,*,#343,.T.);
#197=ORIENTED_EDGE('',*,*,#344,.T.);
#198=ORIENTED_EDGE('',*,*,#345,.T.);
#199=ORIENTED_EDGE('',*,*,#274,.F.);
#200=ORIENTED_EDGE('',*,*,#346,.T.);
#201=ORIENTED_EDGE('',*,*,#347,.T.);
#202=ORIENTED_EDGE('',*,*,#348,.T.);
#203=ORIENTED_EDGE('',*,*,#278,.F.);
#204=ORIENTED_EDGE('',*,*,#349,.T.);
#205=ORIENTED_EDGE('',*,*,#263,.T.);
#206=ORIENTED_EDGE('',*,*,#281,.T.);
#207=ORIENTED_EDGE('',*,*,#323,.T.);
#208=ORIENTED_EDGE('',*,*,#264,.F.);
#209=ORIENTED_EDGE('',*,*,#349,.F.);
#210=ORIENTED_EDGE('',*,*,#350,.T.);
#211=ORIENTED_EDGE('',*,*,#324,.T.);
#212=ORIENTED_EDGE('',*,*,#279,.F.);
#213=ORIENTED_EDGE('',*,*,#348,.F.);
#214=ORIENTED_EDGE('',*,*,#351,.T.);
#215=ORIENTED_EDGE('',*,*,#325,.T.);
#216=ORIENTED_EDGE('',*,*,#350,.F.);
#217=ORIENTED_EDGE('',*,*,#347,.F.);
#218=ORIENTED_EDGE('',*,*,#277,.T.);
#219=ORIENTED_EDGE('',*,*,#326,.T.);
#220=ORIENTED_EDGE('',*,*,#351,.F.);
#221=ORIENTED_EDGE('',*,*,#346,.F.);
#222=ORIENTED_EDGE('',*,*,#352,.T.);
#223=ORIENTED_EDGE('',*,*,#327,.T.);
#224=ORIENTED_EDGE('',*,*,#275,.F.);
#225=ORIENTED_EDGE('',*,*,#345,.F.);
#226=ORIENTED_EDGE('',*,*,#353,.T.);
#227=ORIENTED_EDGE('',*,*,#328,.T.);
#228=ORIENTED_EDGE('',*,*,#352,.F.);
#229=ORIENTED_EDGE('',*,*,#344,.F.);
#230=ORIENTED_EDGE('',*,*,#273,.T.);
#231=ORIENTED_EDGE('',*,*,#329,.T.);
#232=ORIENTED_EDGE('',*,*,#353,.F.);
#233=ORIENTED_EDGE('',*,*,#343,.F.);
#234=ORIENTED_EDGE('',*,*,#354,.T.);
#235=ORIENTED_EDGE('',*,*,#330,.T.);
#236=ORIENTED_EDGE('',*,*,#271,.F.);
#237=ORIENTED_EDGE('',*,*,#342,.F.);
#238=ORIENTED_EDGE('',*,*,#355,.T.);
#239=ORIENTED_EDGE('',*,*,#331,.T.);
#240=ORIENTED_EDGE('',*,*,#354,.F.);
#241=ORIENTED_EDGE('',*,*,#341,.F.);
#242=ORIENTED_EDGE('',*,*,#269,.T.);
#243=ORIENTED_EDGE('',*,*,#332,.T.);
#244=ORIENTED_EDGE('',*,*,#355,.F.);
#245=ORIENTED_EDGE('',*,*,#340,.F.);
#246=ORIENTED_EDGE('',*,*,#339,.F.);
#247=ORIENTED_EDGE('',*,*,#356,.T.);
#248=ORIENTED_EDGE('',*,*,#333,.T.);
#249=ORIENTED_EDGE('',*,*,#267,.F.);
#250=ORIENTED_EDGE('',*,*,#338,.F.);
#251=ORIENTED_EDGE('',*,*,#357,.T.);
#252=ORIENTED_EDGE('',*,*,#334,.T.);
#253=ORIENTED_EDGE('',*,*,#356,.F.);
#254=ORIENTED_EDGE('',*,*,#337,.F.);
#255=ORIENTED_EDGE('',*,*,#317,.F.);
#256=ORIENTED_EDGE('',*,*,#335,.F.);
#257=ORIENTED_EDGE('',*,*,#357,.F.);
#258=ORIENTED_EDGE('',*,*,#336,.F.);
#259=ORIENTED_EDGE('',*,*,#262,.T.);
#260=ORIENTED_EDGE('',*,*,#322,.T.);
#261=ORIENTED_EDGE('',*,*,#314,.F.);
#262=EDGE_CURVE('',#358,#359,#422,.T.);
#263=EDGE_CURVE('',#360,#358,#38,.F.);
#264=EDGE_CURVE('',#360,#361,#423,.T.);
#265=EDGE_CURVE('',#361,#359,#39,.T.);
#266=EDGE_CURVE('',#362,#363,#40,.T.);
#267=EDGE_CURVE('',#363,#364,#424,.T.);
#268=EDGE_CURVE('',#365,#364,#41,.T.);
#269=EDGE_CURVE('',#362,#365,#425,.T.);
#270=EDGE_CURVE('',#366,#367,#42,.T.);
#271=EDGE_CURVE('',#367,#368,#426,.T.);
#272=EDGE_CURVE('',#369,#368,#43,.T.);
#273=EDGE_CURVE('',#366,#369,#427,.T.);
#274=EDGE_CURVE('',#370,#371,#44,.T.);
#275=EDGE_CURVE('',#371,#372,#428,.T.);
#276=EDGE_CURVE('',#373,#372,#45,.T.);
#277=EDGE_CURVE('',#370,#373,#429,.T.);
#278=EDGE_CURVE('',#374,#375,#46,.T.);
#279=EDGE_CURVE('',#375,#376,#430,.T.);
#280=EDGE_CURVE('',#377,#376,#47,.T.);
#281=EDGE_CURVE('',#374,#377,#431,.T.);
#282=EDGE_CURVE('',#378,#379,#48,.T.);
#283=EDGE_CURVE('',#380,#379,#432,.T.);
#284=EDGE_CURVE('',#381,#380,#49,.T.);
#285=EDGE_CURVE('',#381,#378,#433,.T.);
#286=EDGE_CURVE('',#379,#382,#434,.T.);
#287=EDGE_CURVE('',#383,#382,#435,.T.);
#288=EDGE_CURVE('',#380,#383,#436,.T.);
#289=EDGE_CURVE('',#382,#384,#50,.T.);
#290=EDGE_CURVE('',#385,#384,#437,.T.);
#291=EDGE_CURVE('',#383,#385,#51,.T.);
#292=EDGE_CURVE('',#384,#386,#438,.T.);
#293=EDGE_CURVE('',#387,#386,#439,.T.);
#294=EDGE_CURVE('',#385,#387,#440,.T.);
#295=EDGE_CURVE('',#386,#388,#52,.T.);
#296=EDGE_CURVE('',#389,#388,#441,.T.);
#297=EDGE_CURVE('',#387,#389,#53,.T.);
#298=EDGE_CURVE('',#388,#390,#442,.T.);
#299=EDGE_CURVE('',#391,#390,#443,.T.);
#300=EDGE_CURVE('',#389,#391,#444,.T.);
#301=EDGE_CURVE('',#390,#392,#54,.T.);
#302=EDGE_CURVE('',#393,#392,#445,.T.);
#303=EDGE_CURVE('',#391,#393,#55,.T.);
#304=EDGE_CURVE('',#392,#394,#446,.T.);
#305=EDGE_CURVE('',#395,#394,#447,.T.);
#306=EDGE_CURVE('',#393,#395,#448,.T.);
#307=EDGE_CURVE('',#394,#396,#56,.T.);
#308=EDGE_CURVE('',#397,#396,#449,.T.);
#309=EDGE_CURVE('',#395,#397,#57,.T.);
#310=EDGE_CURVE('',#396,#398,#450,.T.);
#311=EDGE_CURVE('',#399,#398,#451,.T.);
#312=EDGE_CURVE('',#397,#399,#452,.T.);
#313=EDGE_CURVE('',#398,#400,#453,.T.);
#314=EDGE_CURVE('',#400,#401,#454,.T.);
#315=EDGE_CURVE('',#399,#401,#455,.T.);
#316=EDGE_CURVE('',#402,#403,#456,.T.);
#317=EDGE_CURVE('',#402,#404,#457,.F.);
#318=EDGE_CURVE('',#404,#405,#458,.T.);
#319=EDGE_CURVE('',#403,#405,#459,.T.);
#320=EDGE_CURVE('',#405,#378,#460,.T.);
#321=EDGE_CURVE('',#403,#381,#461,.T.);
#322=EDGE_CURVE('',#359,#401,#58,.T.);
#323=EDGE_CURVE('',#377,#361,#462,.T.);
#324=EDGE_CURVE('',#406,#376,#463,.T.);
#325=EDGE_CURVE('',#407,#406,#59,.T.);
#326=EDGE_CURVE('',#373,#407,#464,.T.);
#327=EDGE_CURVE('',#408,#372,#465,.T.);
#328=EDGE_CURVE('',#409,#408,#60,.T.);
#329=EDGE_CURVE('',#369,#409,#466,.T.);
#330=EDGE_CURVE('',#410,#368,#467,.T.);
#331=EDGE_CURVE('',#411,#410,#61,.T.);
#332=EDGE_CURVE('',#365,#411,#468,.T.);
#333=EDGE_CURVE('',#412,#364,#469,.T.);
#334=EDGE_CURVE('',#413,#412,#62,.T.);
#335=EDGE_CURVE('',#413,#402,#63,.F.);
#336=EDGE_CURVE('',#358,#400,#64,.T.);
#337=EDGE_CURVE('',#404,#414,#65,.T.);
#338=EDGE_CURVE('',#414,#415,#66,.T.);
#339=EDGE_CURVE('',#415,#363,#470,.T.);
#340=EDGE_CURVE('',#362,#416,#471,.T.);
#341=EDGE_CURVE('',#416,#417,#67,.F.);
#342=EDGE_CURVE('',#417,#367,#472,.T.);
#343=EDGE_CURVE('',#366,#418,#473,.T.);
#344=EDGE_CURVE('',#418,#419,#68,.F.);
#345=EDGE_CURVE('',#419,#371,#474,.T.);
#346=EDGE_CURVE('',#370,#420,#475,.T.);
#347=EDGE_CURVE('',#420,#421,#69,.F.);
#348=EDGE_CURVE('',#421,#375,#476,.T.);
#349=EDGE_CURVE('',#374,#360,#477,.T.);
#350=EDGE_CURVE('',#421,#406,#478,.T.);
#351=EDGE_CURVE('',#420,#407,#479,.T.);
#352=EDGE_CURVE('',#419,#408,#480,.T.);
#353=EDGE_CURVE('',#418,#409,#481,.T.);
#354=EDGE_CURVE('',#417,#410,#482,.T.);
#355=EDGE_CURVE('',#416,#411,#483,.T.);
#356=EDGE_CURVE('',#415,#412,#484,.T.);
#357=EDGE_CURVE('',#414,#413,#485,.T.);
#358=VERTEX_POINT('',#940);
#359=VERTEX_POINT('',#941);
#360=VERTEX_POINT('',#943);
#361=VERTEX_POINT('',#945);
#362=VERTEX_POINT('',#949);
#363=VERTEX_POINT('',#950);
#364=VERTEX_POINT('',#952);
#365=VERTEX_POINT('',#954);
#366=VERTEX_POINT('',#958);
#367=VERTEX_POINT('',#959);
#368=VERTEX_POINT('',#961);
#369=VERTEX_POINT('',#963);
#370=VERTEX_POINT('',#967);
#371=VERTEX_POINT('',#968);
#372=VERTEX_POINT('',#970);
#373=VERTEX_POINT('',#972);
#374=VERTEX_POINT('',#976);
#375=VERTEX_POINT('',#977);
#376=VERTEX_POINT('',#979);
#377=VERTEX_POINT('',#981);
#378=VERTEX_POINT('',#985);
#379=VERTEX_POINT('',#986);
#380=VERTEX_POINT('',#988);
#381=VERTEX_POINT('',#990);
#382=VERTEX_POINT('',#994);
#383=VERTEX_POINT('',#996);
#384=VERTEX_POINT('',#1000);
#385=VERTEX_POINT('',#1002);
#386=VERTEX_POINT('',#1006);
#387=VERTEX_POINT('',#1008);
#388=VERTEX_POINT('',#1012);
#389=VERTEX_POINT('',#1014);
#390=VERTEX_POINT('',#1018);
#391=VERTEX_POINT('',#1020);
#392=VERTEX_POINT('',#1024);
#393=VERTEX_POINT('',#1026);
#394=VERTEX_POINT('',#1030);
#395=VERTEX_POINT('',#1032);
#396=VERTEX_POINT('',#1036);
#397=VERTEX_POINT('',#1038);
#398=VERTEX_POINT('',#1042);
#399=VERTEX_POINT('',#1044);
#400=VERTEX_POINT('',#1048);
#401=VERTEX_POINT('',#1050);
#402=VERTEX_POINT('',#1054);
#403=VERTEX_POINT('',#1055);
#404=VERTEX_POINT('',#1057);
#405=VERTEX_POINT('',#1059);
#406=VERTEX_POINT('',#1068);
#407=VERTEX_POINT('',#1070);
#408=VERTEX_POINT('',#1073);
#409=VERTEX_POINT('',#1075);
#410=VERTEX_POINT('',#1078);
#411=VERTEX_POINT('',#1080);
#412=VERTEX_POINT('',#1083);
#413=VERTEX_POINT('',#1085);
#414=VERTEX_POINT('',#1090);
#415=VERTEX_POINT('',#1092);
#416=VERTEX_POINT('',#1095);
#417=VERTEX_POINT('',#1097);
#418=VERTEX_POINT('',#1100);
#419=VERTEX_POINT('',#1102);
#420=VERTEX_POINT('',#1105);
#421=VERTEX_POINT('',#1107);
#422=LINE('',#939,#486);
#423=LINE('',#944,#487);
#424=LINE('',#951,#488);
#425=LINE('',#955,#489);
#426=LINE('',#960,#490);
#427=LINE('',#964,#491);
#428=LINE('',#969,#492);
#429=LINE('',#973,#493);
#430=LINE('',#978,#494);
#431=LINE('',#982,#495);
#432=LINE('',#987,#496);
#433=LINE('',#991,#497);
#434=LINE('',#993,#498);
#435=LINE('',#995,#499);
#436=LINE('',#997,#500);
#437=LINE('',#1001,#501);
#438=LINE('',#1005,#502);
#439=LINE('',#1007,#503);
#440=LINE('',#1009,#504);
#441=LINE('',#1013,#505);
#442=LINE('',#1017,#506);
#443=LINE('',#1019,#507);
#444=LINE('',#1021,#508);
#445=LINE('',#1025,#509);
#446=LINE('',#1029,#510);
#447=LINE('',#1031,#511);
#448=LINE('',#1033,#512);
#449=LINE('',#1037,#513);
#450=LINE('',#1041,#514);
#451=LINE('',#1043,#515);
#452=LINE('',#1045,#516);
#453=LINE('',#1047,#517);
#454=LINE('',#1049,#518);
#455=LINE('',#1051,#519);
#456=LINE('',#1053,#520);
#457=LINE('',#1056,#521);
#458=LINE('',#1058,#522);
#459=LINE('',#1060,#523);
#460=LINE('',#1062,#524);
#461=LINE('',#1063,#525);
#462=LINE('',#1066,#526);
#463=LINE('',#1067,#527);
#464=LINE('',#1071,#528);
#465=LINE('',#1072,#529);
#466=LINE('',#1076,#530);
#467=LINE('',#1077,#531);
#468=LINE('',#1081,#532);
#469=LINE('',#1082,#533);
#470=LINE('',#1093,#534);
#471=LINE('',#1094,#535);
#472=LINE('',#1098,#536);
#473=LINE('',#1099,#537);
#474=LINE('',#1103,#538);
#475=LINE('',#1104,#539);
#476=LINE('',#1108,#540);
#477=LINE('',#1109,#541);
#478=LINE('',#1112,#542);
#479=LINE('',#1114,#543);
#480=LINE('',#1117,#544);
#481=LINE('',#1119,#545);
#482=LINE('',#1122,#546);
#483=LINE('',#1124,#547);
#484=LINE('',#1127,#548);
#485=LINE('',#1129,#549);
#486=VECTOR('',#743,1.);
#487=VECTOR('',#746,1.);
#488=VECTOR('',#753,1.);
#489=VECTOR('',#756,1.);
#490=VECTOR('',#761,1.);
#491=VECTOR('',#764,1.);
#492=VECTOR('',#769,1.);
#493=VECTOR('',#772,1.);
#494=VECTOR('',#777,1.);
#495=VECTOR('',#780,1.);
#496=VECTOR('',#785,1.);
#497=VECTOR('',#788,1.);
#498=VECTOR('',#791,1.);
#499=VECTOR('',#792,1.);
#500=VECTOR('',#793,1.);
#501=VECTOR('',#798,1.);
#502=VECTOR('',#803,1.);
#503=VECTOR('',#804,1.);
#504=VECTOR('',#805,1.);
#505=VECTOR('',#810,1.);
#506=VECTOR('',#815,1.);
#507=VECTOR('',#816,1.);
#508=VECTOR('',#817,1.);
#509=VECTOR('',#822,1.);
#510=VECTOR('',#827,1.);
#511=VECTOR('',#828,1.);
#512=VECTOR('',#829,1.);
#513=VECTOR('',#834,1.);
#514=VECTOR('',#839,1.);
#515=VECTOR('',#840,1.);
#516=VECTOR('',#841,1.);
#517=VECTOR('',#844,1.);
#518=VECTOR('',#845,1.);
#519=VECTOR('',#846,1.);
#520=VECTOR('',#849,1.);
#521=VECTOR('',#850,1.);
#522=VECTOR('',#851,1.);
#523=VECTOR('',#852,1.);
#524=VECTOR('',#855,1.);
#525=VECTOR('',#856,1.);
#526=VECTOR('',#861,1.);
#527=VECTOR('',#862,1.);
#528=VECTOR('',#865,1.);
#529=VECTOR('',#866,1.);
#530=VECTOR('',#869,1.);
#531=VECTOR('',#870,1.);
#532=VECTOR('',#873,1.);
#533=VECTOR('',#874,1.);
#534=VECTOR('',#887,1.);
#535=VECTOR('',#888,1.);
#536=VECTOR('',#891,1.);
#537=VECTOR('',#892,1.);
#538=VECTOR('',#895,1.);
#539=VECTOR('',#896,1.);
#540=VECTOR('',#899,1.);
#541=VECTOR('',#900,1.);
#542=VECTOR('',#905,1.);
#543=VECTOR('',#908,1.);
#544=VECTOR('',#913,1.);
#545=VECTOR('',#916,1.);
#546=VECTOR('',#921,1.);
#547=VECTOR('',#924,1.);
#548=VECTOR('',#929,1.);
#549=VECTOR('',#932,1.);
#550=EDGE_LOOP('',(#70,#71,#72,#73));
#551=EDGE_LOOP('',(#74,#75,#76,#77));
#552=EDGE_LOOP('',(#78,#79,#80,#81));
#553=EDGE_LOOP('',(#82,#83,#84,#85));
#554=EDGE_LOOP('',(#86,#87,#88,#89));
#555=EDGE_LOOP('',(#90,#91,#92,#93));
#556=EDGE_LOOP('',(#94,#95,#96,#97));
#557=EDGE_LOOP('',(#98,#99,#100,#101));
#558=EDGE_LOOP('',(#102,#103,#104,#105));
#559=EDGE_LOOP('',(#106,#107,#108,#109));
#560=EDGE_LOOP('',(#110,#111,#112,#113));
#561=EDGE_LOOP('',(#114,#115,#116,#117));
#562=EDGE_LOOP('',(#118,#119,#120,#121));
#563=EDGE_LOOP('',(#122,#123,#124,#125));
#564=EDGE_LOOP('',(#126,#127,#128,#129));
#565=EDGE_LOOP('',(#130,#131,#132,#133));
#566=EDGE_LOOP('',(#134,#135,#136,#137));
#567=EDGE_LOOP('',(#138,#139,#140,#141));
#568=EDGE_LOOP('',(#142,#143,#144,#145,#146,#147,#148,#149,#150,#151,#152,
#153,#154,#155,#156,#157,#158,#159,#160,#161,#162,#163,#164,#165,#166,#167,
#168,#169,#170,#171,#172,#173));
#569=EDGE_LOOP('',(#174,#175,#176,#177,#178,#179,#180,#181,#182,#183,#184,
#185,#186,#187,#188,#189,#190,#191,#192,#193,#194,#195,#196,#197,#198,#199,
#200,#201,#202,#203,#204,#205));
#570=EDGE_LOOP('',(#206,#207,#208,#209));
#571=EDGE_LOOP('',(#210,#211,#212,#213));
#572=EDGE_LOOP('',(#214,#215,#216,#217));
#573=EDGE_LOOP('',(#218,#219,#220,#221));
#574=EDGE_LOOP('',(#222,#223,#224,#225));
#575=EDGE_LOOP('',(#226,#227,#228,#229));
#576=EDGE_LOOP('',(#230,#231,#232,#233));
#577=EDGE_LOOP('',(#234,#235,#236,#237));
#578=EDGE_LOOP('',(#238,#239,#240,#241));
#579=EDGE_LOOP('',(#242,#243,#244,#245));
#580=EDGE_LOOP('',(#246,#247,#248,#249));
#581=EDGE_LOOP('',(#250,#251,#252,#253));
#582=EDGE_LOOP('',(#254,#255,#256,#257));
#583=EDGE_LOOP('',(#258,#259,#260,#261));
#584=FACE_BOUND('',#550,.T.);
#585=FACE_BOUND('',#551,.T.);
#586=FACE_BOUND('',#552,.T.);
#587=FACE_BOUND('',#553,.T.);
#588=FACE_BOUND('',#554,.T.);
#589=FACE_BOUND('',#555,.T.);
#590=FACE_BOUND('',#556,.T.);
#591=FACE_BOUND('',#557,.T.);
#592=FACE_BOUND('',#558,.T.);
#593=FACE_BOUND('',#559,.T.);
#594=FACE_BOUND('',#560,.T.);
#595=FACE_BOUND('',#561,.T.);
#596=FACE_BOUND('',#562,.T.);
#597=FACE_BOUND('',#563,.T.);
#598=FACE_BOUND('',#564,.T.);
#599=FACE_BOUND('',#565,.T.);
#600=FACE_BOUND('',#566,.T.);
#601=FACE_BOUND('',#567,.T.);
#602=FACE_BOUND('',#568,.T.);
#603=FACE_BOUND('',#569,.T.);
#604=FACE_BOUND('',#570,.T.);
#605=FACE_BOUND('',#571,.T.);
#606=FACE_BOUND('',#572,.T.);
#607=FACE_BOUND('',#573,.T.);
#608=FACE_BOUND('',#574,.T.);
#609=FACE_BOUND('',#575,.T.);
#610=FACE_BOUND('',#576,.T.);
#611=FACE_BOUND('',#577,.T.);
#612=FACE_BOUND('',#578,.T.);
#613=FACE_BOUND('',#579,.T.);
#614=FACE_BOUND('',#580,.T.);
#615=FACE_BOUND('',#581,.T.);
#616=FACE_BOUND('',#582,.T.);
#617=FACE_BOUND('',#583,.T.);
#618=CYLINDRICAL_SURFACE('',#673,0.0005);
#619=CYLINDRICAL_SURFACE('',#676,0.0121);
#620=CYLINDRICAL_SURFACE('',#679,0.0121);
#621=CYLINDRICAL_SURFACE('',#682,0.0121);
#622=CYLINDRICAL_SURFACE('',#685,0.0121);
#623=CYLINDRICAL_SURFACE('',#688,0.0072);
#624=CYLINDRICAL_SURFACE('',#692,0.0092);
#625=CYLINDRICAL_SURFACE('',#696,0.0093);
#626=CYLINDRICAL_SURFACE('',#700,0.0092);
#627=CYLINDRICAL_SURFACE('',#704,0.0072);
#628=CYLINDRICAL_SURFACE('',#727,0.0005);
#629=CYLINDRICAL_SURFACE('',#730,0.0005);
#630=CYLINDRICAL_SURFACE('',#733,0.0005);
#631=CYLINDRICAL_SURFACE('',#736,0.0109);
#632=CYLINDRICAL_SURFACE('',#737,0.001);
#633=CYLINDRICAL_SURFACE('',#738,0.0109);
#634=ADVANCED_FACE('',(#584),#618,.F.);
#635=ADVANCED_FACE('',(#585),#619,.T.);
#636=ADVANCED_FACE('',(#586),#620,.T.);
#637=ADVANCED_FACE('',(#587),#621,.T.);
#638=ADVANCED_FACE('',(#588),#622,.T.);
#639=ADVANCED_FACE('',(#589),#623,.F.);
#640=ADVANCED_FACE('',(#590),#20,.F.);
#641=ADVANCED_FACE('',(#591),#624,.F.);
#642=ADVANCED_FACE('',(#592),#21,.F.);
#643=ADVANCED_FACE('',(#593),#625,.F.);
#644=ADVANCED_FACE('',(#594),#22,.F.);
#645=ADVANCED_FACE('',(#595),#626,.F.);
#646=ADVANCED_FACE('',(#596),#23,.F.);
#647=ADVANCED_FACE('',(#597),#627,.F.);
#648=ADVANCED_FACE('',(#598),#24,.F.);
#649=ADVANCED_FACE('',(#599),#25,.F.);
#650=ADVANCED_FACE('',(#600),#26,.F.);
#651=ADVANCED_FACE('',(#601),#27,.F.);
#652=ADVANCED_FACE('',(#602),#28,.F.);
#653=ADVANCED_FACE('',(#603),#29,.T.);
#654=ADVANCED_FACE('',(#604),#30,.F.);
#655=ADVANCED_FACE('',(#605),#31,.F.);
#656=ADVANCED_FACE('',(#606),#628,.F.);
#657=ADVANCED_FACE('',(#607),#32,.F.);
#658=ADVANCED_FACE('',(#608),#33,.F.);
#659=ADVANCED_FACE('',(#609),#629,.F.);
#660=ADVANCED_FACE('',(#610),#34,.F.);
#661=ADVANCED_FACE('',(#611),#35,.F.);
#662=ADVANCED_FACE('',(#612),#630,.F.);
#663=ADVANCED_FACE('',(#613),#36,.F.);
#664=ADVANCED_FACE('',(#614),#37,.F.);
#665=ADVANCED_FACE('',(#615),#631,.T.);
#666=ADVANCED_FACE('',(#616),#632,.T.);
#667=ADVANCED_FACE('',(#617),#633,.T.);
#668=CLOSED_SHELL('',(#634,#635,#636,#637,#638,#639,#640,#641,#642,#643,
#644,#645,#646,#647,#648,#649,#650,#651,#652,#653,#654,#655,#656,#657,#658,
#659,#660,#661,#662,#663,#664,#665,#666,#667));
#669=MANIFOLD_SOLID_BREP('',#668);
#670=SHAPE_DEFINITION_REPRESENTATION(#1137,#671);
#671=SHAPE_REPRESENTATION('id2',(#672),#1132);
#672=AXIS2_PLACEMENT_3D('',#937,#739,#740);
#673=AXIS2_PLACEMENT_3D('',#938,#741,#742);
#674=AXIS2_PLACEMENT_3D('',#942,#744,#745);
#675=AXIS2_PLACEMENT_3D('',#946,#747,#748);
#676=AXIS2_PLACEMENT_3D('',#947,#749,#750);
#677=AXIS2_PLACEMENT_3D('',#948,#751,#752);
#678=AXIS2_PLACEMENT_3D('',#953,#754,#755);
#679=AXIS2_PLACEMENT_3D('',#956,#757,#758);
#680=AXIS2_PLACEMENT_3D('',#957,#759,#760);
#681=AXIS2_PLACEMENT_3D('',#962,#762,#763);
#682=AXIS2_PLACEMENT_3D('',#965,#765,#766);
#683=AXIS2_PLACEMENT_3D('',#966,#767,#768);
#684=AXIS2_PLACEMENT_3D('',#971,#770,#771);
#685=AXIS2_PLACEMENT_3D('',#974,#773,#774);
#686=AXIS2_PLACEMENT_3D('',#975,#775,#776);
#687=AXIS2_PLACEMENT_3D('',#980,#778,#779);
#688=AXIS2_PLACEMENT_3D('',#983,#781,#782);
#689=AXIS2_PLACEMENT_3D('',#984,#783,#784);
#690=AXIS2_PLACEMENT_3D('',#989,#786,#787);
#691=AXIS2_PLACEMENT_3D('',#992,#789,#790);
#692=AXIS2_PLACEMENT_3D('',#998,#794,#795);
#693=AXIS2_PLACEMENT_3D('',#999,#796,#797);
#694=AXIS2_PLACEMENT_3D('',#1003,#799,#800);
#695=AXIS2_PLACEMENT_3D('',#1004,#801,#802);
#696=AXIS2_PLACEMENT_3D('',#1010,#806,#807);
#697=AXIS2_PLACEMENT_3D('',#1011,#808,#809);
#698=AXIS2_PLACEMENT_3D('',#1015,#811,#812);
#699=AXIS2_PLACEMENT_3D('',#1016,#813,#814);
#700=AXIS2_PLACEMENT_3D('',#1022,#818,#819);
#701=AXIS2_PLACEMENT_3D('',#1023,#820,#821);
#702=AXIS2_PLACEMENT_3D('',#1027,#823,#824);
#703=AXIS2_PLACEMENT_3D('',#1028,#825,#826);
#704=AXIS2_PLACEMENT_3D('',#1034,#830,#831);
#705=AXIS2_PLACEMENT_3D('',#1035,#832,#833);
#706=AXIS2_PLACEMENT_3D('',#1039,#835,#836);
#707=AXIS2_PLACEMENT_3D('',#1040,#837,#838);
#708=AXIS2_PLACEMENT_3D('',#1046,#842,#843);
#709=AXIS2_PLACEMENT_3D('',#1052,#847,#848);
#710=AXIS2_PLACEMENT_3D('',#1061,#853,#854);
#711=AXIS2_PLACEMENT_3D('',#1064,#857,#858);
#712=AXIS2_PLACEMENT_3D('',#1065,#859,#860);
#713=AXIS2_PLACEMENT_3D('',#1069,#863,#864);
#714=AXIS2_PLACEMENT_3D('',#1074,#867,#868);
#715=AXIS2_PLACEMENT_3D('',#1079,#871,#872);
#716=AXIS2_PLACEMENT_3D('',#1084,#875,#876);
#717=AXIS2_PLACEMENT_3D('',#1086,#877,#878);
#718=AXIS2_PLACEMENT_3D('',#1087,#879,#880);
#719=AXIS2_PLACEMENT_3D('',#1088,#881,#882);
#720=AXIS2_PLACEMENT_3D('',#1089,#883,#884);
#721=AXIS2_PLACEMENT_3D('',#1091,#885,#886);
#722=AXIS2_PLACEMENT_3D('',#1096,#889,#890);
#723=AXIS2_PLACEMENT_3D('',#1101,#893,#894);
#724=AXIS2_PLACEMENT_3D('',#1106,#897,#898);
#725=AXIS2_PLACEMENT_3D('',#1110,#901,#902);
#726=AXIS2_PLACEMENT_3D('',#1111,#903,#904);
#727=AXIS2_PLACEMENT_3D('',#1113,#906,#907);
#728=AXIS2_PLACEMENT_3D('',#1115,#909,#910);
#729=AXIS2_PLACEMENT_3D('',#1116,#911,#912);
#730=AXIS2_PLACEMENT_3D('',#1118,#914,#915);
#731=AXIS2_PLACEMENT_3D('',#1120,#917,#918);
#732=AXIS2_PLACEMENT_3D('',#1121,#919,#920);
#733=AXIS2_PLACEMENT_3D('',#1123,#922,#923);
#734=AXIS2_PLACEMENT_3D('',#1125,#925,#926);
#735=AXIS2_PLACEMENT_3D('',#1126,#927,#928);
#736=AXIS2_PLACEMENT_3D('',#1128,#930,#931);
#737=AXIS2_PLACEMENT_3D('',#1130,#933,#934);
#738=AXIS2_PLACEMENT_3D('',#1131,#935,#936);
#739=DIRECTION('',(0.,0.,1.));
#740=DIRECTION('',(1.,0.,0.));
#741=DIRECTION('',(0.,0.,1.));
#742=DIRECTION('',(1.,0.,0.));
#743=DIRECTION('',(0.,0.,1.));
#744=DIRECTION('',(0.,0.,-1.));
#745=DIRECTION('',(-1.,0.,0.));
#746=DIRECTION('',(0.,0.,1.));
#747=DIRECTION('',(0.,0.,1.));
#748=DIRECTION('',(0.5555702330196,0.831469612302546,0.));
#749=DIRECTION('',(0.,0.,-1.));
#750=DIRECTION('',(-1.,0.,0.));
#751=DIRECTION('',(0.,0.,1.));
#752=DIRECTION('',(1.,0.,0.));
#753=DIRECTION('',(0.,0.,1.));
#754=DIRECTION('',(0.,0.,1.));
#755=DIRECTION('',(1.,0.,0.));
#756=DIRECTION('',(0.,0.,1.));
#757=DIRECTION('',(0.,0.,-1.));
#758=DIRECTION('',(-1.,0.,0.));
#759=DIRECTION('',(0.,0.,1.));
#760=DIRECTION('',(1.,0.,0.));
#761=DIRECTION('',(0.,0.,1.));
#762=DIRECTION('',(0.,0.,1.));
#763=DIRECTION('',(1.,0.,0.));
#764=DIRECTION('',(0.,0.,1.));
#765=DIRECTION('',(0.,0.,-1.));
#766=DIRECTION('',(-1.,0.,0.));
#767=DIRECTION('',(0.,0.,1.));
#768=DIRECTION('',(1.,0.,0.));
#769=DIRECTION('',(0.,0.,1.));
#770=DIRECTION('',(0.,0.,1.));
#771=DIRECTION('',(1.,0.,0.));
#772=DIRECTION('',(0.,0.,1.));
#773=DIRECTION('',(0.,0.,-1.));
#774=DIRECTION('',(-1.,0.,0.));
#775=DIRECTION('',(0.,0.,1.));
#776=DIRECTION('',(1.,0.,0.));
#777=DIRECTION('',(0.,0.,1.));
#778=DIRECTION('',(0.,0.,1.));
#779=DIRECTION('',(1.,0.,0.));
#780=DIRECTION('',(0.,0.,1.));
#781=DIRECTION('',(0.,0.,-1.));
#782=DIRECTION('',(-1.,0.,0.));
#783=DIRECTION('',(0.,0.,-1.));
#784=DIRECTION('',(-1.,0.,0.));
#785=DIRECTION('',(0.,0.,-1.));
#786=DIRECTION('',(0.,0.,-1.));
#787=DIRECTION('',(-1.,0.,0.));
#788=DIRECTION('',(0.,0.,-1.));
#789=DIRECTION('',(0.866025403784438,0.5,0.));
#790=DIRECTION('',(-0.5,0.866025403784438,0.));
#791=DIRECTION('',(0.5,-0.866025403784438,0.));
#792=DIRECTION('',(0.,0.,-1.));
#793=DIRECTION('',(0.5,-0.866025403784438,0.));
#794=DIRECTION('',(0.,0.,-1.));
#795=DIRECTION('',(-1.,0.,0.));
#796=DIRECTION('',(0.,0.,-1.));
#797=DIRECTION('',(1.,0.,0.));
#798=DIRECTION('',(0.,0.,-1.));
#799=DIRECTION('',(0.,0.,-1.));
#800=DIRECTION('',(1.,0.,0.));
#801=DIRECTION('',(1.,0.,0.));
#802=DIRECTION('',(0.,0.,-1.));
#803=DIRECTION('',(0.,-1.,0.));
#804=DIRECTION('',(0.,0.,-1.));
#805=DIRECTION('',(0.,-1.,0.));
#806=DIRECTION('',(0.,0.,-1.));
#807=DIRECTION('',(-1.,0.,0.));
#808=DIRECTION('',(0.,0.,-1.));
#809=DIRECTION('',(1.,0.,0.));
#810=DIRECTION('',(0.,0.,-1.));
#811=DIRECTION('',(0.,0.,-1.));
#812=DIRECTION('',(1.,0.,0.));
#813=DIRECTION('',(-1.,0.,0.));
#814=DIRECTION('',(0.,0.,1.));
#815=DIRECTION('',(0.,1.,0.));
#816=DIRECTION('',(0.,0.,-1.));
#817=DIRECTION('',(0.,1.,0.));
#818=DIRECTION('',(0.,0.,-1.));
#819=DIRECTION('',(-1.,0.,0.));
#820=DIRECTION('',(0.,0.,-1.));
#821=DIRECTION('',(1.,0.,0.));
#822=DIRECTION('',(0.,0.,-1.));
#823=DIRECTION('',(0.,0.,-1.));
#824=DIRECTION('',(1.,0.,0.));
#825=DIRECTION('',(-0.866025403784438,0.5,0.));
#826=DIRECTION('',(-0.5,-0.866025403784438,0.));
#827=DIRECTION('',(0.5,0.866025403784438,0.));
#828=DIRECTION('',(0.,0.,-1.));
#829=DIRECTION('',(0.5,0.866025403784438,0.));
#830=DIRECTION('',(0.,0.,-1.));
#831=DIRECTION('',(-1.,0.,0.));
#832=DIRECTION('',(0.,0.,-1.));
#833=DIRECTION('',(1.,0.,0.));
#834=DIRECTION('',(0.,0.,-1.));
#835=DIRECTION('',(0.,0.,-1.));
#836=DIRECTION('',(1.,0.,0.));
#837=DIRECTION('',(6.97999979618284E-16,-1.,0.));
#838=DIRECTION('',(1.,6.97999979618284E-16,0.));
#839=DIRECTION('',(-1.,-6.97999979618284E-16,0.));
#840=DIRECTION('',(0.,0.,-1.));
#841=DIRECTION('',(-1.,-6.97999979618284E-16,0.));
#842=DIRECTION('',(0.461748613235031,-0.887010833178223,0.));
#843=DIRECTION('',(0.887010833178223,0.461748613235031,0.));
#844=DIRECTION('',(-0.887010833178223,-0.461748613235031,0.));
#845=DIRECTION('',(0.,0.,1.));
#846=DIRECTION('',(-0.887010833178223,-0.461748613235031,0.));
#847=DIRECTION('',(-0.461748613235032,-0.887010833178223,0.));
#848=DIRECTION('',(0.887010833178223,-0.461748613235032,0.));
#849=DIRECTION('',(-0.887010833178223,0.461748613235032,0.));
#850=DIRECTION('',(0.,0.,1.));
#851=DIRECTION('',(-0.887010833178223,0.461748613235032,0.));
#852=DIRECTION('',(0.,0.,-1.));
#853=DIRECTION('',(-3.48999989809142E-16,-1.,0.));
#854=DIRECTION('',(1.,-3.48999989809142E-16,0.));
#855=DIRECTION('',(-1.,3.48999989809142E-16,0.));
#856=DIRECTION('',(-1.,3.48999989809142E-16,0.));
#857=DIRECTION('',(0.,0.,-1.));
#858=DIRECTION('',(-1.,0.,0.));
#859=DIRECTION('',(0.,0.,-1.));
#860=DIRECTION('',(1.,0.,0.));
#861=DIRECTION('',(-0.0871557427476559,0.996194698091746,0.));
#862=DIRECTION('',(-0.625923472184057,-0.779884483092884,0.));
#863=DIRECTION('',(0.,0.,1.));
#864=DIRECTION('',(0.382683432365087,0.923879532511288,0.));
#865=DIRECTION('',(-0.27982901403099,0.960049854385929,0.));
#866=DIRECTION('',(-0.461748613235031,-0.887010833178223,0.));
#867=DIRECTION('',(0.,0.,1.));
#868=DIRECTION('',(0.195090322016125,0.980785280403231,0.));
#869=DIRECTION('',(-0.461748613235033,0.887010833178222,0.));
#870=DIRECTION('',(-0.279829014030988,-0.96004985438593,0.));
#871=DIRECTION('',(0.,0.,1.));
#872=DIRECTION('',(-3.49148133884313E-15,1.,0.));
#873=DIRECTION('',(-0.625923472184058,0.779884483092882,0.));
#874=DIRECTION('',(-0.0871557427476539,-0.996194698091746,0.));
#875=DIRECTION('',(0.,0.,-1.));
#876=DIRECTION('',(-1.,0.,0.));
#877=DIRECTION('',(0.,0.,-1.));
#878=DIRECTION('',(-1.,0.,0.));
#879=DIRECTION('',(0.,0.,-1.));
#880=DIRECTION('',(-1.,0.,0.));
#881=DIRECTION('',(0.,0.,-1.));
#882=DIRECTION('',(-1.,0.,0.));
#883=DIRECTION('',(0.,0.,-1.));
#884=DIRECTION('',(-1.,0.,0.));
#885=DIRECTION('',(0.,0.,-1.));
#886=DIRECTION('',(-1.,0.,0.));
#887=DIRECTION('',(-0.0871557427476539,-0.996194698091746,0.));
#888=DIRECTION('',(-0.625923472184058,0.779884483092882,0.));
#889=DIRECTION('',(0.,0.,-1.));
#890=DIRECTION('',(-1.,0.,0.));
#891=DIRECTION('',(-0.279829014030988,-0.96004985438593,0.));
#892=DIRECTION('',(-0.461748613235033,0.887010833178222,0.));
#893=DIRECTION('',(0.,0.,-1.));
#894=DIRECTION('',(-1.,0.,0.));
#895=DIRECTION('',(-0.461748613235031,-0.887010833178223,0.));
#896=DIRECTION('',(-0.27982901403099,0.960049854385929,0.));
#897=DIRECTION('',(0.,0.,-1.));
#898=DIRECTION('',(-1.,0.,0.));
#899=DIRECTION('',(-0.625923472184057,-0.779884483092884,0.));
#900=DIRECTION('',(-0.0871557427476559,0.996194698091746,0.));
#901=DIRECTION('',(0.996194698091746,0.0871557427476558,0.));
#902=DIRECTION('',(-0.0871557427476559,0.996194698091746,0.));
#903=DIRECTION('',(-0.779884483092884,0.625923472184057,0.));
#904=DIRECTION('',(-0.625923472184057,-0.779884483092884,0.));
#905=DIRECTION('',(0.,0.,1.));
#906=DIRECTION('',(0.,0.,1.));
#907=DIRECTION('',(1.,0.,0.));
#908=DIRECTION('',(0.,0.,1.));
#909=DIRECTION('',(0.960049854385929,0.27982901403099,0.));
#910=DIRECTION('',(-0.27982901403099,0.960049854385929,0.));
#911=DIRECTION('',(-0.887010833178223,0.461748613235031,0.));
#912=DIRECTION('',(-0.461748613235031,-0.887010833178223,0.));
#913=DIRECTION('',(0.,0.,1.));
#914=DIRECTION('',(0.,0.,1.));
#915=DIRECTION('',(1.,0.,0.));
#916=DIRECTION('',(0.,0.,1.));
#917=DIRECTION('',(0.887010833178222,0.461748613235033,0.));
#918=DIRECTION('',(-0.461748613235033,0.887010833178222,0.));
#919=DIRECTION('',(-0.96004985438593,0.279829014030988,0.));
#920=DIRECTION('',(-0.279829014030988,-0.96004985438593,0.));
#921=DIRECTION('',(0.,0.,1.));
#922=DIRECTION('',(0.,0.,1.));
#923=DIRECTION('',(1.,0.,0.));
#924=DIRECTION('',(0.,0.,1.));
#925=DIRECTION('',(0.779884483092882,0.625923472184058,0.));
#926=DIRECTION('',(-0.625923472184058,0.779884483092882,0.));
#927=DIRECTION('',(-0.996194698091746,0.0871557427476539,0.));
#928=DIRECTION('',(-0.0871557427476539,-0.996194698091746,0.));
#929=DIRECTION('',(0.,0.,1.));
#930=DIRECTION('',(0.,0.,1.));
#931=DIRECTION('',(1.,0.,0.));
#932=DIRECTION('',(0.,0.,1.));
#933=DIRECTION('',(0.,0.,1.));
#934=DIRECTION('',(1.,0.,0.));
#935=DIRECTION('',(0.,0.,1.));
#936=DIRECTION('',(1.,0.,0.));
#937=CARTESIAN_POINT('',(0.,0.,0.));
#938=CARTESIAN_POINT('',(0.00049452200316987,-0.0113892689839331,-1.00000000000002E-6));
#939=CARTESIAN_POINT('',(0.000472832441627336,-0.0108897396425325,-1.00000000000002E-6));
#940=CARTESIAN_POINT('',(0.000472832441627336,-0.0108897396425325,0.));
#941=CARTESIAN_POINT('',(0.000472832441627336,-0.0108897396425325,0.0005));
#942=CARTESIAN_POINT('',(0.00049452200316987,-0.0113892689839331,0.));
#943=CARTESIAN_POINT('',(0.000992619352215745,-0.0113456911125593,0.));
#944=CARTESIAN_POINT('',(0.000992619352215745,-0.0113456911125593,-1.00000000000002E-6));
#945=CARTESIAN_POINT('',(0.000992619352215745,-0.0113456911125593,0.0005));
#946=CARTESIAN_POINT('',(0.00049452200316987,-0.0113892689839331,0.0005));
#947=CARTESIAN_POINT('',(0.,0.,0.0005));
#948=CARTESIAN_POINT('',(0.,0.,0.));
#949=CARTESIAN_POINT('',(0.00757367401342711,-0.00943660224542387,0.));
#950=CARTESIAN_POINT('',(0.00776317902804415,-0.00928132810423893,0.));
#951=CARTESIAN_POINT('',(0.00776317902804415,-0.00928132810423893,-1.00000000000002E-6));
#952=CARTESIAN_POINT('',(0.00776317902804415,-0.00928132810423893,0.0005));
#953=CARTESIAN_POINT('',(0.,0.,0.0005));
#954=CARTESIAN_POINT('',(0.00757367401342711,-0.00943660224542387,0.0005));
#955=CARTESIAN_POINT('',(0.00757367401342711,-0.00943660224542387,-1.00000000000002E-6));
#956=CARTESIAN_POINT('',(0.,0.,0.0005));
#957=CARTESIAN_POINT('',(0.,0.,0.));
#958=CARTESIAN_POINT('',(0.0055871582201439,-0.0107328310814565,0.));
#959=CARTESIAN_POINT('',(0.00580331443124744,-0.0106175110836804,0.));
#960=CARTESIAN_POINT('',(0.00580331443124744,-0.0106175110836804,-1.00000000000002E-6));
#961=CARTESIAN_POINT('',(0.00580331443124744,-0.0106175110836804,0.0005));
#962=CARTESIAN_POINT('',(0.,0.,0.0005));
#963=CARTESIAN_POINT('',(0.0055871582201439,-0.0107328310814565,0.0005));
#964=CARTESIAN_POINT('',(0.0055871582201439,-0.0107328310814565,-1.00000000000002E-6));
#965=CARTESIAN_POINT('',(0.,0.,0.0005));
#966=CARTESIAN_POINT('',(0.,0.,0.));
#967=CARTESIAN_POINT('',(0.00338593106977499,-0.0116166032380697,0.));
#968=CARTESIAN_POINT('',(0.00362043171539412,-0.0115456690665448,0.));
#969=CARTESIAN_POINT('',(0.00362043171539412,-0.0115456690665448,-1.00000000000002E-6));
#970=CARTESIAN_POINT('',(0.00362043171539412,-0.0115456690665448,0.0005));
#971=CARTESIAN_POINT('',(0.,0.,0.0005));
#972=CARTESIAN_POINT('',(0.00338593106977499,-0.0116166032380697,0.0005));
#973=CARTESIAN_POINT('',(0.00338593106977499,-0.0116166032380697,-1.00000000000002E-6));
#974=CARTESIAN_POINT('',(0.,0.,0.0005));
#975=CARTESIAN_POINT('',(0.,0.,0.));
#976=CARTESIAN_POINT('',(0.00105458448724664,-0.0120539558469101,0.));
#977=CARTESIAN_POINT('',(0.0012984178390797,-0.0120301334620676,0.));
#978=CARTESIAN_POINT('',(0.0012984178390797,-0.0120301334620676,-1.00000000000002E-6));
#979=CARTESIAN_POINT('',(0.0012984178390797,-0.0120301334620676,0.0005));
#980=CARTESIAN_POINT('',(0.,0.,0.0005));
#981=CARTESIAN_POINT('',(0.00105458448724664,-0.0120539558469101,0.0005));
#982=CARTESIAN_POINT('',(0.00105458448724664,-0.0120539558469101,-1.00000000000002E-6));
#983=CARTESIAN_POINT('',(0.,0.,0.0005));
#984=CARTESIAN_POINT('',(0.,0.,0.));
#985=CARTESIAN_POINT('',(0.00577494588719236,-0.0043,0.));
#986=CARTESIAN_POINT('',(0.00553923133011576,-0.0045996647999027,0.));
#987=CARTESIAN_POINT('',(0.00553923133011576,-0.0045996647999027,0.0005));
#988=CARTESIAN_POINT('',(0.00553923133011576,-0.0045996647999027,0.0005));
#989=CARTESIAN_POINT('',(0.,0.,0.0005));
#990=CARTESIAN_POINT('',(0.00577494588719236,-0.0043,0.0005));
#991=CARTESIAN_POINT('',(0.00577494588719236,-0.0043,0.0005));
#992=CARTESIAN_POINT('',(0.00553923133011576,-0.0045996647999027,0.0005));
#993=CARTESIAN_POINT('',(0.00553923133011576,-0.0045996647999027,0.));
#994=CARTESIAN_POINT('',(0.00659,-0.00641964952314377,0.));
#995=CARTESIAN_POINT('',(0.00659,-0.00641964952314377,0.0005));
#996=CARTESIAN_POINT('',(0.00659,-0.00641964952314377,0.0005));
#997=CARTESIAN_POINT('',(0.00553923133011576,-0.0045996647999027,0.0005));
#998=CARTESIAN_POINT('',(0.,0.,0.0005));
#999=CARTESIAN_POINT('',(0.,0.,0.));
#1000=CARTESIAN_POINT('',(0.005,-0.00772269383052313,0.));
#1001=CARTESIAN_POINT('',(0.005,-0.00772269383052313,0.0005));
#1002=CARTESIAN_POINT('',(0.005,-0.00772269383052313,0.0005));
#1003=CARTESIAN_POINT('',(0.,0.,0.0005));
#1004=CARTESIAN_POINT('',(0.005,-0.00772269383052313,0.0005));
#1005=CARTESIAN_POINT('',(0.005,-0.00772269383052313,0.));
#1006=CARTESIAN_POINT('',(0.005,-0.00784155596804614,0.));
#1007=CARTESIAN_POINT('',(0.005,-0.00784155596804614,0.0005));
#1008=CARTESIAN_POINT('',(0.005,-0.00784155596804614,0.0005));
#1009=CARTESIAN_POINT('',(0.005,-0.00772269383052313,0.0005));
#1010=CARTESIAN_POINT('',(0.,0.,0.0005));
#1011=CARTESIAN_POINT('',(0.,0.,0.));
#1012=CARTESIAN_POINT('',(-0.005,-0.00784155596804614,0.));
#1013=CARTESIAN_POINT('',(-0.005,-0.00784155596804614,0.0005));
#1014=CARTESIAN_POINT('',(-0.005,-0.00784155596804614,0.0005));
#1015=CARTESIAN_POINT('',(0.,0.,0.0005));
#1016=CARTESIAN_POINT('',(-0.005,-0.00772269383052313,0.0005));
#1017=CARTESIAN_POINT('',(-0.005,-0.00772269383052313,0.));
#1018=CARTESIAN_POINT('',(-0.005,-0.00772269383052313,0.));
#1019=CARTESIAN_POINT('',(-0.005,-0.00772269383052313,0.0005));
#1020=CARTESIAN_POINT('',(-0.005,-0.00772269383052313,0.0005));
#1021=CARTESIAN_POINT('',(-0.005,-0.00772269383052313,0.0005));
#1022=CARTESIAN_POINT('',(0.,0.,0.0005));
#1023=CARTESIAN_POINT('',(0.,0.,0.));
#1024=CARTESIAN_POINT('',(-0.00659,-0.00641964952314377,0.));
#1025=CARTESIAN_POINT('',(-0.00659,-0.00641964952314377,0.0005));
#1026=CARTESIAN_POINT('',(-0.00659,-0.00641964952314377,0.0005));
#1027=CARTESIAN_POINT('',(0.,0.,0.0005));
#1028=CARTESIAN_POINT('',(-0.00553923133011576,-0.0045996647999027,0.0005));
#1029=CARTESIAN_POINT('',(-0.00553923133011576,-0.0045996647999027,0.));
#1030=CARTESIAN_POINT('',(-0.00553923133011576,-0.0045996647999027,0.));
#1031=CARTESIAN_POINT('',(-0.00553923133011576,-0.0045996647999027,0.0005));
#1032=CARTESIAN_POINT('',(-0.00553923133011576,-0.0045996647999027,0.0005));
#1033=CARTESIAN_POINT('',(-0.00553923133011576,-0.0045996647999027,0.0005));
#1034=CARTESIAN_POINT('',(0.,0.,0.0005));
#1035=CARTESIAN_POINT('',(0.,0.,0.));
#1036=CARTESIAN_POINT('',(-0.00577494588719236,-0.0043,0.));
#1037=CARTESIAN_POINT('',(-0.00577494588719236,-0.0043,0.0005));
#1038=CARTESIAN_POINT('',(-0.00577494588719236,-0.0043,0.0005));
#1039=CARTESIAN_POINT('',(0.,0.,0.0005));
#1040=CARTESIAN_POINT('',(-0.00826022314597606,-0.0043,0.0005));
#1041=CARTESIAN_POINT('',(-0.00826022314597606,-0.0043,0.));
#1042=CARTESIAN_POINT('',(-0.00826022314597606,-0.0043,0.));
#1043=CARTESIAN_POINT('',(-0.00826022314597606,-0.0043,0.0005));
#1044=CARTESIAN_POINT('',(-0.00826022314597606,-0.0043,0.0005));
#1045=CARTESIAN_POINT('',(-0.00826022314597606,-0.0043,0.0005));
#1046=CARTESIAN_POINT('',(-0.00826022314597606,-0.0043,0.0005));
#1047=CARTESIAN_POINT('',(-0.00826022314597606,-0.0043,0.));
#1048=CARTESIAN_POINT('',(-0.00966841808164263,-0.00503305988426184,0.));
#1049=CARTESIAN_POINT('',(-0.00966841808164263,-0.00503305988426184,-1.00000000000002E-6));
#1050=CARTESIAN_POINT('',(-0.00966841808164263,-0.00503305988426184,0.0005));
#1051=CARTESIAN_POINT('',(-0.00826022314597606,-0.0043,0.0005));
#1052=CARTESIAN_POINT('',(0.00826022314597607,-0.0043,0.0005));
#1053=CARTESIAN_POINT('',(0.00826022314597607,-0.0043,0.0005));
#1054=CARTESIAN_POINT('',(0.00873649386454358,-0.00454793084322885,0.0005));
#1055=CARTESIAN_POINT('',(0.00826022314597607,-0.0043,0.0005));
#1056=CARTESIAN_POINT('',(0.00873649386454358,-0.00454793084322885,0.0005));
#1057=CARTESIAN_POINT('',(0.00873649386454358,-0.00454793084322885,0.));
#1058=CARTESIAN_POINT('',(0.00826022314597607,-0.0043,0.));
#1059=CARTESIAN_POINT('',(0.00826022314597607,-0.0043,0.));
#1060=CARTESIAN_POINT('',(0.00826022314597607,-0.0043,0.0005));
#1061=CARTESIAN_POINT('',(0.00577494588719236,-0.0043,0.0005));
#1062=CARTESIAN_POINT('',(0.00577494588719236,-0.0043,0.));
#1063=CARTESIAN_POINT('',(0.00577494588719236,-0.0043,0.0005));
#1064=CARTESIAN_POINT('',(0.,0.,0.0005));
#1065=CARTESIAN_POINT('',(0.,0.,0.0005));
#1066=CARTESIAN_POINT('',(0.000992619352215745,-0.0113456911125593,0.0005));
#1067=CARTESIAN_POINT('',(0.0012984178390797,-0.0120301334620676,0.0005));
#1068=CARTESIAN_POINT('',(0.0023170138136019,-0.0107609891810602,0.0005));
#1069=CARTESIAN_POINT('',(0.00270695605514835,-0.0110739509171522,0.0005));
#1070=CARTESIAN_POINT('',(0.00318698098234131,-0.0109340364101367,0.0005));
#1071=CARTESIAN_POINT('',(0.00318698098234131,-0.0109340364101367,0.0005));
#1072=CARTESIAN_POINT('',(0.00362043171539412,-0.0115456690665448,0.0005));
#1073=CARTESIAN_POINT('',(0.00437185788741681,-0.0101021928203508,0.0005));
#1074=CARTESIAN_POINT('',(0.00481536330400592,-0.0103330671269683,0.0005));
#1075=CARTESIAN_POINT('',(0.00525886872059503,-0.0101021928203508,0.0005));
#1076=CARTESIAN_POINT('',(0.00525886872059503,-0.0101021928203508,0.0005));
#1077=CARTESIAN_POINT('',(0.00580331443124744,-0.0106175110836804,0.0005));
#1078=CARTESIAN_POINT('',(0.00625869391438443,-0.00905517485493036,0.0005));
#1079=CARTESIAN_POINT('',(0.00673871884157739,-0.00919508936194586,0.0005));
#1080=CARTESIAN_POINT('',(0.00712866108312383,-0.00888212762585383,0.0005));
#1081=CARTESIAN_POINT('',(0.00712866108312383,-0.00888212762585383,0.0005));
#1082=CARTESIAN_POINT('',(0.00776317902804415,-0.00928132810423893,0.0005));
#1083=CARTESIAN_POINT('',(0.00791999592597633,-0.00748890275891725,0.0005));
#1084=CARTESIAN_POINT('',(0.,0.,0.0005));
#1085=CARTESIAN_POINT('',(0.00911057810497608,-0.00598392568412496,0.0005));
#1086=CARTESIAN_POINT('',(0.00827474525130855,-0.00543494167640707,0.0005));
#1087=CARTESIAN_POINT('',(0.,0.,0.));
#1088=CARTESIAN_POINT('',(0.,0.,0.));
#1089=CARTESIAN_POINT('',(0.00827474525130855,-0.00543494167640707,0.));
#1090=CARTESIAN_POINT('',(0.00911057810497608,-0.00598392568412496,0.));
#1091=CARTESIAN_POINT('',(0.,0.,0.));
#1092=CARTESIAN_POINT('',(0.00791999592597633,-0.00748890275891725,0.));
#1093=CARTESIAN_POINT('',(0.00776317902804415,-0.00928132810423893,0.));
#1094=CARTESIAN_POINT('',(0.00712866108312383,-0.00888212762585383,0.));
#1095=CARTESIAN_POINT('',(0.00712866108312383,-0.00888212762585383,0.));
#1096=CARTESIAN_POINT('',(0.00673871884157739,-0.00919508936194586,0.));
#1097=CARTESIAN_POINT('',(0.00625869391438443,-0.00905517485493036,0.));
#1098=CARTESIAN_POINT('',(0.00580331443124744,-0.0106175110836804,0.));
#1099=CARTESIAN_POINT('',(0.00525886872059503,-0.0101021928203508,0.));
#1100=CARTESIAN_POINT('',(0.00525886872059503,-0.0101021928203508,0.));
#1101=CARTESIAN_POINT('',(0.00481536330400592,-0.0103330671269683,0.));
#1102=CARTESIAN_POINT('',(0.00437185788741681,-0.0101021928203508,0.));
#1103=CARTESIAN_POINT('',(0.00362043171539412,-0.0115456690665448,0.));
#1104=CARTESIAN_POINT('',(0.00318698098234131,-0.0109340364101367,0.));
#1105=CARTESIAN_POINT('',(0.00318698098234131,-0.0109340364101367,0.));
#1106=CARTESIAN_POINT('',(0.00270695605514835,-0.0110739509171522,0.));
#1107=CARTESIAN_POINT('',(0.0023170138136019,-0.0107609891810602,0.));
#1108=CARTESIAN_POINT('',(0.0012984178390797,-0.0120301334620676,0.));
#1109=CARTESIAN_POINT('',(0.000992619352215745,-0.0113456911125593,0.));
#1110=CARTESIAN_POINT('',(0.000992619352215745,-0.0113456911125593,-1.00000000000002E-6));
#1111=CARTESIAN_POINT('',(0.0012984178390797,-0.0120301334620676,-1.00000000000002E-6));
#1112=CARTESIAN_POINT('',(0.0023170138136019,-0.0107609891810602,-1.00000000000002E-6));
#1113=CARTESIAN_POINT('',(0.00270695605514835,-0.0110739509171522,-1.00000000000002E-6));
#1114=CARTESIAN_POINT('',(0.00318698098234131,-0.0109340364101367,-1.00000000000002E-6));
#1115=CARTESIAN_POINT('',(0.00318698098234131,-0.0109340364101367,-1.00000000000002E-6));
#1116=CARTESIAN_POINT('',(0.00362043171539412,-0.0115456690665448,-1.00000000000002E-6));
#1117=CARTESIAN_POINT('',(0.00437185788741681,-0.0101021928203508,-1.00000000000002E-6));
#1118=CARTESIAN_POINT('',(0.00481536330400592,-0.0103330671269683,-1.00000000000002E-6));
#1119=CARTESIAN_POINT('',(0.00525886872059503,-0.0101021928203508,-1.00000000000002E-6));
#1120=CARTESIAN_POINT('',(0.00525886872059503,-0.0101021928203508,-1.00000000000002E-6));
#1121=CARTESIAN_POINT('',(0.00580331443124744,-0.0106175110836804,-1.00000000000002E-6));
#1122=CARTESIAN_POINT('',(0.00625869391438443,-0.00905517485493036,-1.00000000000002E-6));
#1123=CARTESIAN_POINT('',(0.00673871884157739,-0.00919508936194586,-1.00000000000002E-6));
#1124=CARTESIAN_POINT('',(0.00712866108312383,-0.00888212762585383,-1.00000000000002E-6));
#1125=CARTESIAN_POINT('',(0.00712866108312383,-0.00888212762585383,-1.00000000000002E-6));
#1126=CARTESIAN_POINT('',(0.00776317902804415,-0.00928132810423893,-1.00000000000002E-6));
#1127=CARTESIAN_POINT('',(0.00791999592597633,-0.00748890275891725,-1.00000000000002E-6));
#1128=CARTESIAN_POINT('',(0.,0.,-1.00000000000002E-6));
#1129=CARTESIAN_POINT('',(0.00911057810497608,-0.00598392568412496,-1.00000000000002E-6));
#1130=CARTESIAN_POINT('',(0.00827474525130855,-0.00543494167640707,-1.00000000000002E-6));
#1131=CARTESIAN_POINT('',(0.,0.,-1.00000000000002E-6));
#1132=(
GEOMETRIC_REPRESENTATION_CONTEXT(3)
GLOBAL_UNCERTAINTY_ASSIGNED_CONTEXT((#1133))
GLOBAL_UNIT_ASSIGNED_CONTEXT((#1136,#1135,#1134))
REPRESENTATION_CONTEXT('id2','TOP_LEVEL_ASSEMBLY_PART')
);
#1133=UNCERTAINTY_MEASURE_WITH_UNIT(LENGTH_MEASURE(1.E-8),#1136,
'DISTANCE_ACCURACY_VALUE','Maximum Tolerance applied to model');
#1134=(
NAMED_UNIT(*)
SI_UNIT($,.STERADIAN.)
SOLID_ANGLE_UNIT()
);
#1135=(
NAMED_UNIT(*)
PLANE_ANGLE_UNIT()
SI_UNIT($,.RADIAN.)
);
#1136=(
LENGTH_UNIT()
NAMED_UNIT(*)
SI_UNIT($,.METRE.)
);
#1137=PRODUCT_DEFINITION_SHAPE('','',#1138);
#1138=PRODUCT_DEFINITION('','',#1140,#1139);
#1139=DESIGN_CONTEXT('',#1146,'design');
#1140=PRODUCT_DEFINITION_FORMATION_WITH_SPECIFIED_SOURCE('','',#1142,
 .NOT_KNOWN.);
#1141=PRODUCT_RELATED_PRODUCT_CATEGORY('','',(#1142));
#1142=PRODUCT('id2','id2','id2',(#1144));
#1143=PRODUCT_CATEGORY('','');
#1144=MECHANICAL_CONTEXT('',#1146,'mechanical');
#1145=APPLICATION_PROTOCOL_DEFINITION('international standard',
'config_control_design',2010,#1146);
#1146=APPLICATION_CONTEXT(
'configuration controlled 3D designs of mechanical parts and assemblie
s');
ENDSEC;
END-ISO-10303-21;
