ISO-10303-21;
HEADER;
/* Generated by software containing ST-Developer
 * from STEP Tools, Inc. (www.steptools.com) 
 */
/* OPTION: using custom renumber hook */

FILE_DESCRIPTION(
/* description */ ('STEP AP203'),
/* implementation_level */ '2;1');

FILE_NAME(
/* name */ '6a5465539ed6ccb7c519285b',
/* time_stamp */ '2026-07-13T04:10:59Z',
/* author */ (''),
/* organization */ (''),
/* preprocessor_version */ 'ST-DEVELOPER v20',
/* originating_system */ 'ONSHAPE BY PTC INC, 1.217',
/* authorisation */ '  ');

FILE_SCHEMA (('CONFIG_CONTROL_DESIGN'));
ENDSEC;

DATA;
#10=PROPERTY_DEFINITION_REPRESENTATION(#14,#12);
#11=PROPERTY_DEFINITION_REPRESENTATION(#15,#13);
#12=REPRESENTATION('',(#16),#176);
#13=REPRESENTATION('',(#17),#176);
#14=PROPERTY_DEFINITION('pmi validation property','',#181);
#15=PROPERTY_DEFINITION('pmi validation property','',#181);
#16=VALUE_REPRESENTATION_ITEM('number of annotations',COUNT_MEASURE(0.));
#17=VALUE_REPRESENTATION_ITEM('number of views',COUNT_MEASURE(0.));
#18=SHAPE_REPRESENTATION_RELATIONSHIP('','',#107,#19);
#19=ADVANCED_BREP_SHAPE_REPRESENTATION('',(#105),#176);
#20=PLANE('',#112);
#21=PLANE('',#116);
#22=ORIENTED_EDGE('',*,*,#38,.F.);
#23=ORIENTED_EDGE('',*,*,#39,.T.);
#24=ORIENTED_EDGE('',*,*,#40,.F.);
#25=ORIENTED_EDGE('',*,*,#41,.F.);
#26=ORIENTED_EDGE('',*,*,#42,.F.);
#27=ORIENTED_EDGE('',*,*,#38,.T.);
#28=ORIENTED_EDGE('',*,*,#43,.T.);
#29=ORIENTED_EDGE('',*,*,#44,.T.);
#30=ORIENTED_EDGE('',*,*,#45,.T.);
#31=ORIENTED_EDGE('',*,*,#39,.F.);
#32=ORIENTED_EDGE('',*,*,#45,.F.);
#33=ORIENTED_EDGE('',*,*,#42,.T.);
#34=ORIENTED_EDGE('',*,*,#44,.F.);
#35=ORIENTED_EDGE('',*,*,#41,.T.);
#36=ORIENTED_EDGE('',*,*,#43,.F.);
#37=ORIENTED_EDGE('',*,*,#40,.T.);
#38=EDGE_CURVE('',#46,#46,#54,.T.);
#39=EDGE_CURVE('',#47,#47,#55,.T.);
#40=EDGE_CURVE('',#48,#48,#56,.T.);
#41=EDGE_CURVE('',#49,#49,#57,.T.);
#42=EDGE_CURVE('',#50,#50,#58,.T.);
#43=EDGE_CURVE('',#51,#51,#59,.T.);
#44=EDGE_CURVE('',#52,#52,#60,.T.);
#45=EDGE_CURVE('',#53,#53,#61,.T.);
#46=VERTEX_POINT('',#156);
#47=VERTEX_POINT('',#158);
#48=VERTEX_POINT('',#161);
#49=VERTEX_POINT('',#163);
#50=VERTEX_POINT('',#165);
#51=VERTEX_POINT('',#168);
#52=VERTEX_POINT('',#170);
#53=VERTEX_POINT('',#172);
#54=CIRCLE('',#110,0.008);
#55=CIRCLE('',#111,0.008);
#56=CIRCLE('',#113,0.000499999999999988);
#57=CIRCLE('',#114,0.000499999999999988);
#58=CIRCLE('',#115,0.0061);
#59=CIRCLE('',#117,0.000499999999999994);
#60=CIRCLE('',#118,0.000499999999999994);
#61=CIRCLE('',#119,0.0061);
#62=EDGE_LOOP('',(#22));
#63=EDGE_LOOP('',(#23));
#64=EDGE_LOOP('',(#24));
#65=EDGE_LOOP('',(#25));
#66=EDGE_LOOP('',(#26));
#67=EDGE_LOOP('',(#27));
#68=EDGE_LOOP('',(#28));
#69=EDGE_LOOP('',(#29));
#70=EDGE_LOOP('',(#30));
#71=EDGE_LOOP('',(#31));
#72=EDGE_LOOP('',(#32));
#73=EDGE_LOOP('',(#33));
#74=EDGE_LOOP('',(#34));
#75=EDGE_LOOP('',(#35));
#76=EDGE_LOOP('',(#36));
#77=EDGE_LOOP('',(#37));
#78=FACE_BOUND('',#62,.T.);
#79=FACE_BOUND('',#63,.T.);
#80=FACE_BOUND('',#64,.T.);
#81=FACE_BOUND('',#65,.T.);
#82=FACE_BOUND('',#66,.T.);
#83=FACE_BOUND('',#67,.T.);
#84=FACE_BOUND('',#68,.T.);
#85=FACE_BOUND('',#69,.T.);
#86=FACE_BOUND('',#70,.T.);
#87=FACE_BOUND('',#71,.T.);
#88=FACE_BOUND('',#72,.T.);
#89=FACE_BOUND('',#73,.T.);
#90=FACE_BOUND('',#74,.T.);
#91=FACE_BOUND('',#75,.T.);
#92=FACE_BOUND('',#76,.T.);
#93=FACE_BOUND('',#77,.T.);
#94=CYLINDRICAL_SURFACE('',#109,0.008);
#95=CYLINDRICAL_SURFACE('',#120,0.0061);
#96=CYLINDRICAL_SURFACE('',#121,0.000499999999999994);
#97=CYLINDRICAL_SURFACE('',#122,0.000499999999999994);
#98=ADVANCED_FACE('',(#78,#79),#94,.T.);
#99=ADVANCED_FACE('',(#80,#81,#82,#83),#20,.T.);
#100=ADVANCED_FACE('',(#84,#85,#86,#87),#21,.F.);
#101=ADVANCED_FACE('',(#88,#89),#95,.F.);
#102=ADVANCED_FACE('',(#90,#91),#96,.F.);
#103=ADVANCED_FACE('',(#92,#93),#97,.F.);
#104=CLOSED_SHELL('',(#98,#99,#100,#101,#102,#103));
#105=MANIFOLD_SOLID_BREP('',#104);
#106=SHAPE_DEFINITION_REPRESENTATION(#181,#107);
#107=SHAPE_REPRESENTATION('id2',(#108),#176);
#108=AXIS2_PLACEMENT_3D('',#153,#123,#124);
#109=AXIS2_PLACEMENT_3D('',#154,#125,#126);
#110=AXIS2_PLACEMENT_3D('',#155,#127,#128);
#111=AXIS2_PLACEMENT_3D('',#157,#129,#130);
#112=AXIS2_PLACEMENT_3D('',#159,#131,#132);
#113=AXIS2_PLACEMENT_3D('',#160,#133,#134);
#114=AXIS2_PLACEMENT_3D('',#162,#135,#136);
#115=AXIS2_PLACEMENT_3D('',#164,#137,#138);
#116=AXIS2_PLACEMENT_3D('',#166,#139,#140);
#117=AXIS2_PLACEMENT_3D('',#167,#141,#142);
#118=AXIS2_PLACEMENT_3D('',#169,#143,#144);
#119=AXIS2_PLACEMENT_3D('',#171,#145,#146);
#120=AXIS2_PLACEMENT_3D('',#173,#147,#148);
#121=AXIS2_PLACEMENT_3D('',#174,#149,#150);
#122=AXIS2_PLACEMENT_3D('',#175,#151,#152);
#123=DIRECTION('',(0.,0.,1.));
#124=DIRECTION('',(1.,0.,0.));
#125=DIRECTION('',(0.,-1.,0.));
#126=DIRECTION('',(0.,0.,-1.));
#127=DIRECTION('',(0.,1.,0.));
#128=DIRECTION('',(0.,0.,1.));
#129=DIRECTION('',(0.,1.,0.));
#130=DIRECTION('',(0.,0.,1.));
#131=DIRECTION('',(0.,1.,0.));
#132=DIRECTION('',(0.,0.,1.));
#133=DIRECTION('',(0.,1.,0.));
#134=DIRECTION('',(0.,0.,1.));
#135=DIRECTION('',(0.,1.,0.));
#136=DIRECTION('',(0.,0.,1.));
#137=DIRECTION('',(0.,1.,0.));
#138=DIRECTION('',(0.,0.,1.));
#139=DIRECTION('',(0.,1.,0.));
#140=DIRECTION('',(0.,0.,1.));
#141=DIRECTION('',(0.,1.,0.));
#142=DIRECTION('',(0.,0.,1.));
#143=DIRECTION('',(0.,1.,0.));
#144=DIRECTION('',(0.,0.,1.));
#145=DIRECTION('',(0.,1.,0.));
#146=DIRECTION('',(0.,0.,1.));
#147=DIRECTION('',(0.,1.,0.));
#148=DIRECTION('',(0.,0.,1.));
#149=DIRECTION('',(0.,1.,0.));
#150=DIRECTION('',(0.,0.,1.));
#151=DIRECTION('',(0.,1.,0.));
#152=DIRECTION('',(0.,0.,1.));
#153=CARTESIAN_POINT('',(0.,0.,0.));
#154=CARTESIAN_POINT('',(0.,0.0005,0.));
#155=CARTESIAN_POINT('',(0.,0.0005,0.));
#156=CARTESIAN_POINT('',(0.,0.0005,0.008));
#157=CARTESIAN_POINT('',(0.,0.,0.));
#158=CARTESIAN_POINT('',(0.,0.,0.008));
#159=CARTESIAN_POINT('',(0.,0.0005,0.));
#160=CARTESIAN_POINT('',(-0.007,0.0005,0.));
#161=CARTESIAN_POINT('',(-0.007,0.0005,0.000499999999999988));
#162=CARTESIAN_POINT('',(0.007,0.0005,0.));
#163=CARTESIAN_POINT('',(0.007,0.0005,0.000499999999999988));
#164=CARTESIAN_POINT('',(0.,0.0005,0.));
#165=CARTESIAN_POINT('',(0.,0.0005,0.0061));
#166=CARTESIAN_POINT('',(0.,0.,0.));
#167=CARTESIAN_POINT('',(-0.007,0.,0.));
#168=CARTESIAN_POINT('',(-0.007,0.,0.000499999999999994));
#169=CARTESIAN_POINT('',(0.007,0.,0.));
#170=CARTESIAN_POINT('',(0.007,0.,0.000499999999999994));
#171=CARTESIAN_POINT('',(0.,0.,0.));
#172=CARTESIAN_POINT('',(0.,0.,0.0061));
#173=CARTESIAN_POINT('',(0.,0.,0.));
#174=CARTESIAN_POINT('',(0.007,0.0005,0.));
#175=CARTESIAN_POINT('',(-0.007,0.0005,0.));
#176=(
GEOMETRIC_REPRESENTATION_CONTEXT(3)
GLOBAL_UNCERTAINTY_ASSIGNED_CONTEXT((#177))
GLOBAL_UNIT_ASSIGNED_CONTEXT((#180,#179,#178))
REPRESENTATION_CONTEXT('id2','TOP_LEVEL_ASSEMBLY_PART')
);
#177=UNCERTAINTY_MEASURE_WITH_UNIT(LENGTH_MEASURE(1.E-8),#180,
'DISTANCE_ACCURACY_VALUE','Maximum Tolerance applied to model');
#178=(
NAMED_UNIT(*)
SI_UNIT($,.STERADIAN.)
SOLID_ANGLE_UNIT()
);
#179=(
NAMED_UNIT(*)
PLANE_ANGLE_UNIT()
SI_UNIT($,.RADIAN.)
);
#180=(
LENGTH_UNIT()
NAMED_UNIT(*)
SI_UNIT($,.METRE.)
);
#181=PRODUCT_DEFINITION_SHAPE('','',#182);
#182=PRODUCT_DEFINITION('','',#184,#183);
#183=DESIGN_CONTEXT('',#190,'design');
#184=PRODUCT_DEFINITION_FORMATION_WITH_SPECIFIED_SOURCE('','',#186,
 .NOT_KNOWN.);
#185=PRODUCT_RELATED_PRODUCT_CATEGORY('','',(#186));
#186=PRODUCT('id2','id2','id2',(#188));
#187=PRODUCT_CATEGORY('','');
#188=MECHANICAL_CONTEXT('',#190,'mechanical');
#189=APPLICATION_PROTOCOL_DEFINITION('international standard',
'config_control_design',2010,#190);
#190=APPLICATION_CONTEXT(
'configuration controlled 3D designs of mechanical parts and assemblie
s');
ENDSEC;
END-ISO-10303-21;
