ISO-10303-21;
HEADER;
/* Generated by software containing ST-Developer
 * from STEP Tools, Inc. (www.steptools.com) 
 */
/* OPTION: using custom renumber hook */

FILE_DESCRIPTION(
/* description */ ('STEP AP203'),
/* implementation_level */ '2;1');

FILE_NAME(
/* name */ '6a54653d6767ab7b8f9f5ba3',
/* time_stamp */ '2026-07-13T04:10:37Z',
/* author */ (''),
/* organization */ (''),
/* preprocessor_version */ 'ST-DEVELOPER v20',
/* originating_system */ 'ONSHAPE BY PTC INC, 1.217',
/* authorisation */ '  ');

FILE_SCHEMA (('CONFIG_CONTROL_DESIGN'));
ENDSEC;

DATA;
#10=PROPERTY_DEFINITION_REPRESENTATION(#14,#12);
#11=PROPERTY_DEFINITION_REPRESENTATION(#15,#13);
#12=REPRESENTATION('',(#16),#759);
#13=REPRESENTATION('',(#17),#759);
#14=PROPERTY_DEFINITION('pmi validation property','',#764);
#15=PROPERTY_DEFINITION('pmi validation property','',#764);
#16=VALUE_REPRESENTATION_ITEM('number of annotations',COUNT_MEASURE(0.));
#17=VALUE_REPRESENTATION_ITEM('number of views',COUNT_MEASURE(0.));
#18=SHAPE_REPRESENTATION_RELATIONSHIP('','',#450,#19);
#19=ADVANCED_BREP_SHAPE_REPRESENTATION('',(#448),#759);
#20=PLANE('',#461);
#21=PLANE('',#465);
#22=PLANE('',#469);
#23=PLANE('',#473);
#24=PLANE('',#477);
#25=PLANE('',#478);
#26=PLANE('',#479);
#27=PLANE('',#480);
#28=PLANE('',#481);
#29=PLANE('',#486);
#30=PLANE('',#491);
#31=PLANE('',#492);
#32=CIRCLE('',#453,0.0005);
#33=CIRCLE('',#454,0.0005);
#34=CIRCLE('',#456,0.0121);
#35=CIRCLE('',#457,0.0121);
#36=CIRCLE('',#459,0.0072);
#37=CIRCLE('',#460,0.0072);
#38=CIRCLE('',#463,0.0092);
#39=CIRCLE('',#464,0.0092);
#40=CIRCLE('',#467,0.0093);
#41=CIRCLE('',#468,0.0093);
#42=CIRCLE('',#471,0.0092);
#43=CIRCLE('',#472,0.0092);
#44=CIRCLE('',#475,0.0072);
#45=CIRCLE('',#476,0.0072);
#46=CIRCLE('',#482,0.0109);
#47=CIRCLE('',#483,0.0005);
#48=CIRCLE('',#484,0.0109);
#49=CIRCLE('',#485,0.001);
#50=CIRCLE('',#487,0.0109);
#51=CIRCLE('',#488,0.001);
#52=CIRCLE('',#489,0.0109);
#53=CIRCLE('',#490,0.0005);
#54=ORIENTED_EDGE('',*,*,#180,.F.);
#55=ORIENTED_EDGE('',*,*,#181,.F.);
#56=ORIENTED_EDGE('',*,*,#182,.T.);
#57=ORIENTED_EDGE('',*,*,#183,.T.);
#58=ORIENTED_EDGE('',*,*,#184,.T.);
#59=ORIENTED_EDGE('',*,*,#185,.T.);
#60=ORIENTED_EDGE('',*,*,#186,.F.);
#61=ORIENTED_EDGE('',*,*,#187,.F.);
#62=ORIENTED_EDGE('',*,*,#188,.T.);
#63=ORIENTED_EDGE('',*,*,#189,.F.);
#64=ORIENTED_EDGE('',*,*,#190,.F.);
#65=ORIENTED_EDGE('',*,*,#191,.T.);
#66=ORIENTED_EDGE('',*,*,#192,.T.);
#67=ORIENTED_EDGE('',*,*,#193,.F.);
#68=ORIENTED_EDGE('',*,*,#194,.F.);
#69=ORIENTED_EDGE('',*,*,#189,.T.);
#70=ORIENTED_EDGE('',*,*,#195,.T.);
#71=ORIENTED_EDGE('',*,*,#196,.F.);
#72=ORIENTED_EDGE('',*,*,#197,.F.);
#73=ORIENTED_EDGE('',*,*,#193,.T.);
#74=ORIENTED_EDGE('',*,*,#198,.T.);
#75=ORIENTED_EDGE('',*,*,#199,.F.);
#76=ORIENTED_EDGE('',*,*,#200,.F.);
#77=ORIENTED_EDGE('',*,*,#196,.T.);
#78=ORIENTED_EDGE('',*,*,#201,.T.);
#79=ORIENTED_EDGE('',*,*,#202,.F.);
#80=ORIENTED_EDGE('',*,*,#203,.F.);
#81=ORIENTED_EDGE('',*,*,#199,.T.);
#82=ORIENTED_EDGE('',*,*,#204,.T.);
#83=ORIENTED_EDGE('',*,*,#205,.F.);
#84=ORIENTED_EDGE('',*,*,#206,.F.);
#85=ORIENTED_EDGE('',*,*,#202,.T.);
#86=ORIENTED_EDGE('',*,*,#207,.T.);
#87=ORIENTED_EDGE('',*,*,#208,.F.);
#88=ORIENTED_EDGE('',*,*,#209,.F.);
#89=ORIENTED_EDGE('',*,*,#205,.T.);
#90=ORIENTED_EDGE('',*,*,#210,.T.);
#91=ORIENTED_EDGE('',*,*,#211,.F.);
#92=ORIENTED_EDGE('',*,*,#212,.F.);
#93=ORIENTED_EDGE('',*,*,#208,.T.);
#94=ORIENTED_EDGE('',*,*,#213,.T.);
#95=ORIENTED_EDGE('',*,*,#214,.F.);
#96=ORIENTED_EDGE('',*,*,#215,.F.);
#97=ORIENTED_EDGE('',*,*,#211,.T.);
#98=ORIENTED_EDGE('',*,*,#216,.T.);
#99=ORIENTED_EDGE('',*,*,#217,.F.);
#100=ORIENTED_EDGE('',*,*,#218,.F.);
#101=ORIENTED_EDGE('',*,*,#214,.T.);
#102=ORIENTED_EDGE('',*,*,#219,.T.);
#103=ORIENTED_EDGE('',*,*,#220,.T.);
#104=ORIENTED_EDGE('',*,*,#221,.F.);
#105=ORIENTED_EDGE('',*,*,#217,.T.);
#106=ORIENTED_EDGE('',*,*,#222,.F.);
#107=ORIENTED_EDGE('',*,*,#223,.T.);
#108=ORIENTED_EDGE('',*,*,#224,.T.);
#109=ORIENTED_EDGE('',*,*,#225,.F.);
#110=ORIENTED_EDGE('',*,*,#226,.T.);
#111=ORIENTED_EDGE('',*,*,#191,.F.);
#112=ORIENTED_EDGE('',*,*,#227,.F.);
#113=ORIENTED_EDGE('',*,*,#225,.T.);
#114=ORIENTED_EDGE('',*,*,#221,.T.);
#115=ORIENTED_EDGE('',*,*,#228,.F.);
#116=ORIENTED_EDGE('',*,*,#183,.F.);
#117=ORIENTED_EDGE('',*,*,#229,.F.);
#118=ORIENTED_EDGE('',*,*,#186,.T.);
#119=ORIENTED_EDGE('',*,*,#230,.F.);
#120=ORIENTED_EDGE('',*,*,#231,.F.);
#121=ORIENTED_EDGE('',*,*,#232,.F.);
#122=ORIENTED_EDGE('',*,*,#233,.T.);
#123=ORIENTED_EDGE('',*,*,#222,.T.);
#124=ORIENTED_EDGE('',*,*,#227,.T.);
#125=ORIENTED_EDGE('',*,*,#190,.T.);
#126=ORIENTED_EDGE('',*,*,#194,.T.);
#127=ORIENTED_EDGE('',*,*,#197,.T.);
#128=ORIENTED_EDGE('',*,*,#200,.T.);
#129=ORIENTED_EDGE('',*,*,#203,.T.);
#130=ORIENTED_EDGE('',*,*,#206,.T.);
#131=ORIENTED_EDGE('',*,*,#209,.T.);
#132=ORIENTED_EDGE('',*,*,#212,.T.);
#133=ORIENTED_EDGE('',*,*,#215,.T.);
#134=ORIENTED_EDGE('',*,*,#218,.T.);
#135=ORIENTED_EDGE('',*,*,#234,.T.);
#136=ORIENTED_EDGE('',*,*,#219,.F.);
#137=ORIENTED_EDGE('',*,*,#216,.F.);
#138=ORIENTED_EDGE('',*,*,#213,.F.);
#139=ORIENTED_EDGE('',*,*,#210,.F.);
#140=ORIENTED_EDGE('',*,*,#207,.F.);
#141=ORIENTED_EDGE('',*,*,#204,.F.);
#142=ORIENTED_EDGE('',*,*,#201,.F.);
#143=ORIENTED_EDGE('',*,*,#198,.F.);
#144=ORIENTED_EDGE('',*,*,#195,.F.);
#145=ORIENTED_EDGE('',*,*,#192,.F.);
#146=ORIENTED_EDGE('',*,*,#188,.F.);
#147=ORIENTED_EDGE('',*,*,#226,.F.);
#148=ORIENTED_EDGE('',*,*,#224,.F.);
#149=ORIENTED_EDGE('',*,*,#235,.T.);
#150=ORIENTED_EDGE('',*,*,#236,.T.);
#151=ORIENTED_EDGE('',*,*,#237,.T.);
#152=ORIENTED_EDGE('',*,*,#238,.T.);
#153=ORIENTED_EDGE('',*,*,#184,.F.);
#154=ORIENTED_EDGE('',*,*,#239,.T.);
#155=ORIENTED_EDGE('',*,*,#181,.T.);
#156=ORIENTED_EDGE('',*,*,#187,.T.);
#157=ORIENTED_EDGE('',*,*,#229,.T.);
#158=ORIENTED_EDGE('',*,*,#182,.F.);
#159=ORIENTED_EDGE('',*,*,#239,.F.);
#160=ORIENTED_EDGE('',*,*,#240,.T.);
#161=ORIENTED_EDGE('',*,*,#230,.T.);
#162=ORIENTED_EDGE('',*,*,#185,.F.);
#163=ORIENTED_EDGE('',*,*,#238,.F.);
#164=ORIENTED_EDGE('',*,*,#237,.F.);
#165=ORIENTED_EDGE('',*,*,#241,.T.);
#166=ORIENTED_EDGE('',*,*,#231,.T.);
#167=ORIENTED_EDGE('',*,*,#240,.F.);
#168=ORIENTED_EDGE('',*,*,#236,.F.);
#169=ORIENTED_EDGE('',*,*,#242,.T.);
#170=ORIENTED_EDGE('',*,*,#232,.T.);
#171=ORIENTED_EDGE('',*,*,#241,.F.);
#172=ORIENTED_EDGE('',*,*,#235,.F.);
#173=ORIENTED_EDGE('',*,*,#223,.F.);
#174=ORIENTED_EDGE('',*,*,#233,.F.);
#175=ORIENTED_EDGE('',*,*,#242,.F.);
#176=ORIENTED_EDGE('',*,*,#234,.F.);
#177=ORIENTED_EDGE('',*,*,#180,.T.);
#178=ORIENTED_EDGE('',*,*,#228,.T.);
#179=ORIENTED_EDGE('',*,*,#220,.F.);
#180=EDGE_CURVE('',#243,#244,#285,.T.);
#181=EDGE_CURVE('',#245,#243,#32,.F.);
#182=EDGE_CURVE('',#245,#246,#286,.T.);
#183=EDGE_CURVE('',#246,#244,#33,.T.);
#184=EDGE_CURVE('',#247,#248,#34,.T.);
#185=EDGE_CURVE('',#248,#249,#287,.T.);
#186=EDGE_CURVE('',#250,#249,#35,.T.);
#187=EDGE_CURVE('',#247,#250,#288,.T.);
#188=EDGE_CURVE('',#251,#252,#36,.T.);
#189=EDGE_CURVE('',#253,#252,#289,.T.);
#190=EDGE_CURVE('',#254,#253,#37,.T.);
#191=EDGE_CURVE('',#254,#251,#290,.T.);
#192=EDGE_CURVE('',#252,#255,#291,.T.);
#193=EDGE_CURVE('',#256,#255,#292,.T.);
#194=EDGE_CURVE('',#253,#256,#293,.T.);
#195=EDGE_CURVE('',#255,#257,#38,.T.);
#196=EDGE_CURVE('',#258,#257,#294,.T.);
#197=EDGE_CURVE('',#256,#258,#39,.T.);
#198=EDGE_CURVE('',#257,#259,#295,.T.);
#199=EDGE_CURVE('',#260,#259,#296,.T.);
#200=EDGE_CURVE('',#258,#260,#297,.T.);
#201=EDGE_CURVE('',#259,#261,#40,.T.);
#202=EDGE_CURVE('',#262,#261,#298,.T.);
#203=EDGE_CURVE('',#260,#262,#41,.T.);
#204=EDGE_CURVE('',#261,#263,#299,.T.);
#205=EDGE_CURVE('',#264,#263,#300,.T.);
#206=EDGE_CURVE('',#262,#264,#301,.T.);
#207=EDGE_CURVE('',#263,#265,#42,.T.);
#208=EDGE_CURVE('',#266,#265,#302,.T.);
#209=EDGE_CURVE('',#264,#266,#43,.T.);
#210=EDGE_CURVE('',#265,#267,#303,.T.);
#211=EDGE_CURVE('',#268,#267,#304,.T.);
#212=EDGE_CURVE('',#266,#268,#305,.T.);
#213=EDGE_CURVE('',#267,#269,#44,.T.);
#214=EDGE_CURVE('',#270,#269,#306,.T.);
#215=EDGE_CURVE('',#268,#270,#45,.T.);
#216=EDGE_CURVE('',#269,#271,#307,.T.);
#217=EDGE_CURVE('',#272,#271,#308,.T.);
#218=EDGE_CURVE('',#270,#272,#309,.T.);
#219=EDGE_CURVE('',#271,#273,#310,.T.);
#220=EDGE_CURVE('',#273,#274,#311,.T.);
#221=EDGE_CURVE('',#272,#274,#312,.T.);
#222=EDGE_CURVE('',#275,#276,#313,.T.);
#223=EDGE_CURVE('',#275,#277,#314,.F.);
#224=EDGE_CURVE('',#277,#278,#315,.T.);
#225=EDGE_CURVE('',#276,#278,#316,.T.);
#226=EDGE_CURVE('',#278,#251,#317,.T.);
#227=EDGE_CURVE('',#276,#254,#318,.T.);
#228=EDGE_CURVE('',#244,#274,#46,.T.);
#229=EDGE_CURVE('',#250,#246,#319,.T.);
#230=EDGE_CURVE('',#279,#249,#320,.T.);
#231=EDGE_CURVE('',#280,#279,#47,.T.);
#232=EDGE_CURVE('',#281,#280,#48,.T.);
#233=EDGE_CURVE('',#281,#275,#49,.F.);
#234=EDGE_CURVE('',#243,#273,#50,.T.);
#235=EDGE_CURVE('',#277,#282,#51,.T.);
#236=EDGE_CURVE('',#282,#283,#52,.T.);
#237=EDGE_CURVE('',#283,#284,#53,.F.);
#238=EDGE_CURVE('',#284,#248,#321,.T.);
#239=EDGE_CURVE('',#247,#245,#322,.T.);
#240=EDGE_CURVE('',#284,#279,#323,.T.);
#241=EDGE_CURVE('',#283,#280,#324,.T.);
#242=EDGE_CURVE('',#282,#281,#325,.T.);
#243=VERTEX_POINT('',#633);
#244=VERTEX_POINT('',#634);
#245=VERTEX_POINT('',#636);
#246=VERTEX_POINT('',#638);
#247=VERTEX_POINT('',#642);
#248=VERTEX_POINT('',#643);
#249=VERTEX_POINT('',#645);
#250=VERTEX_POINT('',#647);
#251=VERTEX_POINT('',#651);
#252=VERTEX_POINT('',#652);
#253=VERTEX_POINT('',#654);
#254=VERTEX_POINT('',#656);
#255=VERTEX_POINT('',#660);
#256=VERTEX_POINT('',#662);
#257=VERTEX_POINT('',#666);
#258=VERTEX_POINT('',#668);
#259=VERTEX_POINT('',#672);
#260=VERTEX_POINT('',#674);
#261=VERTEX_POINT('',#678);
#262=VERTEX_POINT('',#680);
#263=VERTEX_POINT('',#684);
#264=VERTEX_POINT('',#686);
#265=VERTEX_POINT('',#690);
#266=VERTEX_POINT('',#692);
#267=VERTEX_POINT('',#696);
#268=VERTEX_POINT('',#698);
#269=VERTEX_POINT('',#702);
#270=VERTEX_POINT('',#704);
#271=VERTEX_POINT('',#708);
#272=VERTEX_POINT('',#710);
#273=VERTEX_POINT('',#714);
#274=VERTEX_POINT('',#716);
#275=VERTEX_POINT('',#720);
#276=VERTEX_POINT('',#721);
#277=VERTEX_POINT('',#723);
#278=VERTEX_POINT('',#725);
#279=VERTEX_POINT('',#734);
#280=VERTEX_POINT('',#736);
#281=VERTEX_POINT('',#738);
#282=VERTEX_POINT('',#743);
#283=VERTEX_POINT('',#745);
#284=VERTEX_POINT('',#747);
#285=LINE('',#632,#326);
#286=LINE('',#637,#327);
#287=LINE('',#644,#328);
#288=LINE('',#648,#329);
#289=LINE('',#653,#330);
#290=LINE('',#657,#331);
#291=LINE('',#659,#332);
#292=LINE('',#661,#333);
#293=LINE('',#663,#334);
#294=LINE('',#667,#335);
#295=LINE('',#671,#336);
#296=LINE('',#673,#337);
#297=LINE('',#675,#338);
#298=LINE('',#679,#339);
#299=LINE('',#683,#340);
#300=LINE('',#685,#341);
#301=LINE('',#687,#342);
#302=LINE('',#691,#343);
#303=LINE('',#695,#344);
#304=LINE('',#697,#345);
#305=LINE('',#699,#346);
#306=LINE('',#703,#347);
#307=LINE('',#707,#348);
#308=LINE('',#709,#349);
#309=LINE('',#711,#350);
#310=LINE('',#713,#351);
#311=LINE('',#715,#352);
#312=LINE('',#717,#353);
#313=LINE('',#719,#354);
#314=LINE('',#722,#355);
#315=LINE('',#724,#356);
#316=LINE('',#726,#357);
#317=LINE('',#728,#358);
#318=LINE('',#729,#359);
#319=LINE('',#732,#360);
#320=LINE('',#733,#361);
#321=LINE('',#748,#362);
#322=LINE('',#749,#363);
#323=LINE('',#752,#364);
#324=LINE('',#754,#365);
#325=LINE('',#756,#366);
#326=VECTOR('',#501,1.);
#327=VECTOR('',#504,1.);
#328=VECTOR('',#511,1.);
#329=VECTOR('',#514,1.);
#330=VECTOR('',#519,1.);
#331=VECTOR('',#522,1.);
#332=VECTOR('',#525,1.);
#333=VECTOR('',#526,1.);
#334=VECTOR('',#527,1.);
#335=VECTOR('',#532,1.);
#336=VECTOR('',#537,1.);
#337=VECTOR('',#538,1.);
#338=VECTOR('',#539,1.);
#339=VECTOR('',#544,1.);
#340=VECTOR('',#549,1.);
#341=VECTOR('',#550,1.);
#342=VECTOR('',#551,1.);
#343=VECTOR('',#556,1.);
#344=VECTOR('',#561,1.);
#345=VECTOR('',#562,1.);
#346=VECTOR('',#563,1.);
#347=VECTOR('',#568,1.);
#348=VECTOR('',#573,1.);
#349=VECTOR('',#574,1.);
#350=VECTOR('',#575,1.);
#351=VECTOR('',#578,1.);
#352=VECTOR('',#579,1.);
#353=VECTOR('',#580,1.);
#354=VECTOR('',#583,1.);
#355=VECTOR('',#584,1.);
#356=VECTOR('',#585,1.);
#357=VECTOR('',#586,1.);
#358=VECTOR('',#589,1.);
#359=VECTOR('',#590,1.);
#360=VECTOR('',#595,1.);
#361=VECTOR('',#596,1.);
#362=VECTOR('',#613,1.);
#363=VECTOR('',#614,1.);
#364=VECTOR('',#619,1.);
#365=VECTOR('',#622,1.);
#366=VECTOR('',#625,1.);
#367=EDGE_LOOP('',(#54,#55,#56,#57));
#368=EDGE_LOOP('',(#58,#59,#60,#61));
#369=EDGE_LOOP('',(#62,#63,#64,#65));
#370=EDGE_LOOP('',(#66,#67,#68,#69));
#371=EDGE_LOOP('',(#70,#71,#72,#73));
#372=EDGE_LOOP('',(#74,#75,#76,#77));
#373=EDGE_LOOP('',(#78,#79,#80,#81));
#374=EDGE_LOOP('',(#82,#83,#84,#85));
#375=EDGE_LOOP('',(#86,#87,#88,#89));
#376=EDGE_LOOP('',(#90,#91,#92,#93));
#377=EDGE_LOOP('',(#94,#95,#96,#97));
#378=EDGE_LOOP('',(#98,#99,#100,#101));
#379=EDGE_LOOP('',(#102,#103,#104,#105));
#380=EDGE_LOOP('',(#106,#107,#108,#109));
#381=EDGE_LOOP('',(#110,#111,#112,#113));
#382=EDGE_LOOP('',(#114,#115,#116,#117,#118,#119,#120,#121,#122,#123,#124,
#125,#126,#127,#128,#129,#130,#131,#132,#133,#134));
#383=EDGE_LOOP('',(#135,#136,#137,#138,#139,#140,#141,#142,#143,#144,#145,
#146,#147,#148,#149,#150,#151,#152,#153,#154,#155));
#384=EDGE_LOOP('',(#156,#157,#158,#159));
#385=EDGE_LOOP('',(#160,#161,#162,#163));
#386=EDGE_LOOP('',(#164,#165,#166,#167));
#387=EDGE_LOOP('',(#168,#169,#170,#171));
#388=EDGE_LOOP('',(#172,#173,#174,#175));
#389=EDGE_LOOP('',(#176,#177,#178,#179));
#390=FACE_BOUND('',#367,.T.);
#391=FACE_BOUND('',#368,.T.);
#392=FACE_BOUND('',#369,.T.);
#393=FACE_BOUND('',#370,.T.);
#394=FACE_BOUND('',#371,.T.);
#395=FACE_BOUND('',#372,.T.);
#396=FACE_BOUND('',#373,.T.);
#397=FACE_BOUND('',#374,.T.);
#398=FACE_BOUND('',#375,.T.);
#399=FACE_BOUND('',#376,.T.);
#400=FACE_BOUND('',#377,.T.);
#401=FACE_BOUND('',#378,.T.);
#402=FACE_BOUND('',#379,.T.);
#403=FACE_BOUND('',#380,.T.);
#404=FACE_BOUND('',#381,.T.);
#405=FACE_BOUND('',#382,.T.);
#406=FACE_BOUND('',#383,.T.);
#407=FACE_BOUND('',#384,.T.);
#408=FACE_BOUND('',#385,.T.);
#409=FACE_BOUND('',#386,.T.);
#410=FACE_BOUND('',#387,.T.);
#411=FACE_BOUND('',#388,.T.);
#412=FACE_BOUND('',#389,.T.);
#413=CYLINDRICAL_SURFACE('',#452,0.0005);
#414=CYLINDRICAL_SURFACE('',#455,0.0121);
#415=CYLINDRICAL_SURFACE('',#458,0.0072);
#416=CYLINDRICAL_SURFACE('',#462,0.0092);
#417=CYLINDRICAL_SURFACE('',#466,0.0093);
#418=CYLINDRICAL_SURFACE('',#470,0.0092);
#419=CYLINDRICAL_SURFACE('',#474,0.0072);
#420=CYLINDRICAL_SURFACE('',#493,0.0005);
#421=CYLINDRICAL_SURFACE('',#494,0.0109);
#422=CYLINDRICAL_SURFACE('',#495,0.001);
#423=CYLINDRICAL_SURFACE('',#496,0.0109);
#424=ADVANCED_FACE('',(#390),#413,.F.);
#425=ADVANCED_FACE('',(#391),#414,.T.);
#426=ADVANCED_FACE('',(#392),#415,.F.);
#427=ADVANCED_FACE('',(#393),#20,.F.);
#428=ADVANCED_FACE('',(#394),#416,.F.);
#429=ADVANCED_FACE('',(#395),#21,.F.);
#430=ADVANCED_FACE('',(#396),#417,.F.);
#431=ADVANCED_FACE('',(#397),#22,.F.);
#432=ADVANCED_FACE('',(#398),#418,.F.);
#433=ADVANCED_FACE('',(#399),#23,.F.);
#434=ADVANCED_FACE('',(#400),#419,.F.);
#435=ADVANCED_FACE('',(#401),#24,.F.);
#436=ADVANCED_FACE('',(#402),#25,.F.);
#437=ADVANCED_FACE('',(#403),#26,.F.);
#438=ADVANCED_FACE('',(#404),#27,.F.);
#439=ADVANCED_FACE('',(#405),#28,.F.);
#440=ADVANCED_FACE('',(#406),#29,.T.);
#441=ADVANCED_FACE('',(#407),#30,.F.);
#442=ADVANCED_FACE('',(#408),#31,.F.);
#443=ADVANCED_FACE('',(#409),#420,.F.);
#444=ADVANCED_FACE('',(#410),#421,.T.);
#445=ADVANCED_FACE('',(#411),#422,.T.);
#446=ADVANCED_FACE('',(#412),#423,.T.);
#447=CLOSED_SHELL('',(#424,#425,#426,#427,#428,#429,#430,#431,#432,#433,
#434,#435,#436,#437,#438,#439,#440,#441,#442,#443,#444,#445,#446));
#448=MANIFOLD_SOLID_BREP('',#447);
#449=SHAPE_DEFINITION_REPRESENTATION(#764,#450);
#450=SHAPE_REPRESENTATION('id2',(#451),#759);
#451=AXIS2_PLACEMENT_3D('',#630,#497,#498);
#452=AXIS2_PLACEMENT_3D('',#631,#499,#500);
#453=AXIS2_PLACEMENT_3D('',#635,#502,#503);
#454=AXIS2_PLACEMENT_3D('',#639,#505,#506);
#455=AXIS2_PLACEMENT_3D('',#640,#507,#508);
#456=AXIS2_PLACEMENT_3D('',#641,#509,#510);
#457=AXIS2_PLACEMENT_3D('',#646,#512,#513);
#458=AXIS2_PLACEMENT_3D('',#649,#515,#516);
#459=AXIS2_PLACEMENT_3D('',#650,#517,#518);
#460=AXIS2_PLACEMENT_3D('',#655,#520,#521);
#461=AXIS2_PLACEMENT_3D('',#658,#523,#524);
#462=AXIS2_PLACEMENT_3D('',#664,#528,#529);
#463=AXIS2_PLACEMENT_3D('',#665,#530,#531);
#464=AXIS2_PLACEMENT_3D('',#669,#533,#534);
#465=AXIS2_PLACEMENT_3D('',#670,#535,#536);
#466=AXIS2_PLACEMENT_3D('',#676,#540,#541);
#467=AXIS2_PLACEMENT_3D('',#677,#542,#543);
#468=AXIS2_PLACEMENT_3D('',#681,#545,#546);
#469=AXIS2_PLACEMENT_3D('',#682,#547,#548);
#470=AXIS2_PLACEMENT_3D('',#688,#552,#553);
#471=AXIS2_PLACEMENT_3D('',#689,#554,#555);
#472=AXIS2_PLACEMENT_3D('',#693,#557,#558);
#473=AXIS2_PLACEMENT_3D('',#694,#559,#560);
#474=AXIS2_PLACEMENT_3D('',#700,#564,#565);
#475=AXIS2_PLACEMENT_3D('',#701,#566,#567);
#476=AXIS2_PLACEMENT_3D('',#705,#569,#570);
#477=AXIS2_PLACEMENT_3D('',#706,#571,#572);
#478=AXIS2_PLACEMENT_3D('',#712,#576,#577);
#479=AXIS2_PLACEMENT_3D('',#718,#581,#582);
#480=AXIS2_PLACEMENT_3D('',#727,#587,#588);
#481=AXIS2_PLACEMENT_3D('',#730,#591,#592);
#482=AXIS2_PLACEMENT_3D('',#731,#593,#594);
#483=AXIS2_PLACEMENT_3D('',#735,#597,#598);
#484=AXIS2_PLACEMENT_3D('',#737,#599,#600);
#485=AXIS2_PLACEMENT_3D('',#739,#601,#602);
#486=AXIS2_PLACEMENT_3D('',#740,#603,#604);
#487=AXIS2_PLACEMENT_3D('',#741,#605,#606);
#488=AXIS2_PLACEMENT_3D('',#742,#607,#608);
#489=AXIS2_PLACEMENT_3D('',#744,#609,#610);
#490=AXIS2_PLACEMENT_3D('',#746,#611,#612);
#491=AXIS2_PLACEMENT_3D('',#750,#615,#616);
#492=AXIS2_PLACEMENT_3D('',#751,#617,#618);
#493=AXIS2_PLACEMENT_3D('',#753,#620,#621);
#494=AXIS2_PLACEMENT_3D('',#755,#623,#624);
#495=AXIS2_PLACEMENT_3D('',#757,#626,#627);
#496=AXIS2_PLACEMENT_3D('',#758,#628,#629);
#497=DIRECTION('',(0.,0.,1.));
#498=DIRECTION('',(1.,0.,0.));
#499=DIRECTION('',(0.,0.,1.));
#500=DIRECTION('',(1.,0.,0.));
#501=DIRECTION('',(0.,0.,1.));
#502=DIRECTION('',(0.,0.,-1.));
#503=DIRECTION('',(-1.,0.,0.));
#504=DIRECTION('',(0.,0.,1.));
#505=DIRECTION('',(0.,0.,1.));
#506=DIRECTION('',(0.195090322016125,0.980785280403231,0.));
#507=DIRECTION('',(0.,0.,-1.));
#508=DIRECTION('',(-1.,0.,0.));
#509=DIRECTION('',(0.,0.,1.));
#510=DIRECTION('',(1.,0.,0.));
#511=DIRECTION('',(0.,0.,1.));
#512=DIRECTION('',(0.,0.,1.));
#513=DIRECTION('',(1.,0.,0.));
#514=DIRECTION('',(0.,0.,1.));
#515=DIRECTION('',(0.,0.,-1.));
#516=DIRECTION('',(-1.,0.,0.));
#517=DIRECTION('',(0.,0.,-1.));
#518=DIRECTION('',(-1.,0.,0.));
#519=DIRECTION('',(0.,0.,-1.));
#520=DIRECTION('',(0.,0.,-1.));
#521=DIRECTION('',(-1.,0.,0.));
#522=DIRECTION('',(0.,0.,-1.));
#523=DIRECTION('',(0.866025403784438,0.5,0.));
#524=DIRECTION('',(-0.5,0.866025403784438,0.));
#525=DIRECTION('',(0.5,-0.866025403784438,0.));
#526=DIRECTION('',(0.,0.,-1.));
#527=DIRECTION('',(0.5,-0.866025403784438,0.));
#528=DIRECTION('',(0.,0.,-1.));
#529=DIRECTION('',(-1.,0.,0.));
#530=DIRECTION('',(0.,0.,-1.));
#531=DIRECTION('',(1.,0.,0.));
#532=DIRECTION('',(0.,0.,-1.));
#533=DIRECTION('',(0.,0.,-1.));
#534=DIRECTION('',(1.,0.,0.));
#535=DIRECTION('',(1.,0.,0.));
#536=DIRECTION('',(0.,0.,-1.));
#537=DIRECTION('',(0.,-1.,0.));
#538=DIRECTION('',(0.,0.,-1.));
#539=DIRECTION('',(0.,-1.,0.));
#540=DIRECTION('',(0.,0.,-1.));
#541=DIRECTION('',(-1.,0.,0.));
#542=DIRECTION('',(0.,0.,-1.));
#543=DIRECTION('',(1.,0.,0.));
#544=DIRECTION('',(0.,0.,-1.));
#545=DIRECTION('',(0.,0.,-1.));
#546=DIRECTION('',(1.,0.,0.));
#547=DIRECTION('',(-1.,0.,0.));
#548=DIRECTION('',(0.,0.,1.));
#549=DIRECTION('',(0.,1.,0.));
#550=DIRECTION('',(0.,0.,-1.));
#551=DIRECTION('',(0.,1.,0.));
#552=DIRECTION('',(0.,0.,-1.));
#553=DIRECTION('',(-1.,0.,0.));
#554=DIRECTION('',(0.,0.,-1.));
#555=DIRECTION('',(1.,0.,0.));
#556=DIRECTION('',(0.,0.,-1.));
#557=DIRECTION('',(0.,0.,-1.));
#558=DIRECTION('',(1.,0.,0.));
#559=DIRECTION('',(-0.866025403784438,0.5,0.));
#560=DIRECTION('',(-0.5,-0.866025403784438,0.));
#561=DIRECTION('',(0.5,0.866025403784438,0.));
#562=DIRECTION('',(0.,0.,-1.));
#563=DIRECTION('',(0.5,0.866025403784438,0.));
#564=DIRECTION('',(0.,0.,-1.));
#565=DIRECTION('',(-1.,0.,0.));
#566=DIRECTION('',(0.,0.,-1.));
#567=DIRECTION('',(1.,0.,0.));
#568=DIRECTION('',(0.,0.,-1.));
#569=DIRECTION('',(0.,0.,-1.));
#570=DIRECTION('',(1.,0.,0.));
#571=DIRECTION('',(6.97999979618284E-16,-1.,0.));
#572=DIRECTION('',(1.,6.97999979618284E-16,0.));
#573=DIRECTION('',(-1.,-6.97999979618284E-16,0.));
#574=DIRECTION('',(0.,0.,-1.));
#575=DIRECTION('',(-1.,-6.97999979618284E-16,0.));
#576=DIRECTION('',(0.461748613235031,-0.887010833178223,0.));
#577=DIRECTION('',(0.887010833178223,0.461748613235031,0.));
#578=DIRECTION('',(-0.887010833178223,-0.461748613235031,0.));
#579=DIRECTION('',(0.,0.,1.));
#580=DIRECTION('',(-0.887010833178223,-0.461748613235031,0.));
#581=DIRECTION('',(-0.461748613235032,-0.887010833178223,0.));
#582=DIRECTION('',(0.887010833178223,-0.461748613235032,0.));
#583=DIRECTION('',(-0.887010833178223,0.461748613235032,0.));
#584=DIRECTION('',(0.,0.,1.));
#585=DIRECTION('',(-0.887010833178223,0.461748613235032,0.));
#586=DIRECTION('',(0.,0.,-1.));
#587=DIRECTION('',(-3.48999989809142E-16,-1.,0.));
#588=DIRECTION('',(1.,-3.48999989809142E-16,0.));
#589=DIRECTION('',(-1.,3.48999989809142E-16,0.));
#590=DIRECTION('',(-1.,3.48999989809142E-16,0.));
#591=DIRECTION('',(0.,0.,-1.));
#592=DIRECTION('',(-1.,0.,0.));
#593=DIRECTION('',(0.,0.,-1.));
#594=DIRECTION('',(1.,0.,0.));
#595=DIRECTION('',(-0.461748613235033,0.887010833178222,0.));
#596=DIRECTION('',(-0.279829014030988,-0.96004985438593,0.));
#597=DIRECTION('',(0.,0.,1.));
#598=DIRECTION('',(-3.49148133884313E-15,1.,0.));
#599=DIRECTION('',(0.,0.,-1.));
#600=DIRECTION('',(-1.,0.,0.));
#601=DIRECTION('',(0.,0.,-1.));
#602=DIRECTION('',(-1.,0.,0.));
#603=DIRECTION('',(0.,0.,-1.));
#604=DIRECTION('',(-1.,0.,0.));
#605=DIRECTION('',(0.,0.,-1.));
#606=DIRECTION('',(-1.,0.,0.));
#607=DIRECTION('',(0.,0.,-1.));
#608=DIRECTION('',(-1.,0.,0.));
#609=DIRECTION('',(0.,0.,-1.));
#610=DIRECTION('',(-1.,0.,0.));
#611=DIRECTION('',(0.,0.,-1.));
#612=DIRECTION('',(-1.,0.,0.));
#613=DIRECTION('',(-0.279829014030988,-0.96004985438593,0.));
#614=DIRECTION('',(-0.461748613235033,0.887010833178222,0.));
#615=DIRECTION('',(0.887010833178222,0.461748613235033,0.));
#616=DIRECTION('',(-0.461748613235033,0.887010833178222,0.));
#617=DIRECTION('',(-0.96004985438593,0.279829014030988,0.));
#618=DIRECTION('',(-0.279829014030988,-0.96004985438593,0.));
#619=DIRECTION('',(0.,0.,1.));
#620=DIRECTION('',(0.,0.,1.));
#621=DIRECTION('',(1.,0.,0.));
#622=DIRECTION('',(0.,0.,1.));
#623=DIRECTION('',(0.,0.,1.));
#624=DIRECTION('',(1.,0.,0.));
#625=DIRECTION('',(0.,0.,1.));
#626=DIRECTION('',(0.,0.,1.));
#627=DIRECTION('',(1.,0.,0.));
#628=DIRECTION('',(0.,0.,1.));
#629=DIRECTION('',(1.,0.,0.));
#630=CARTESIAN_POINT('',(0.,0.,0.));
#631=CARTESIAN_POINT('',(0.00481536330400592,-0.0103330671269683,-1.00000000000002E-6));
#632=CARTESIAN_POINT('',(0.00460416315909338,-0.00987986242841707,-1.00000000000002E-6));
#633=CARTESIAN_POINT('',(0.00460416315909338,-0.00987986242841707,0.));
#634=CARTESIAN_POINT('',(0.00460416315909338,-0.00987986242841707,0.0005));
#635=CARTESIAN_POINT('',(0.00481536330400592,-0.0103330671269683,0.));
#636=CARTESIAN_POINT('',(0.00525886872059503,-0.0101021928203508,0.));
#637=CARTESIAN_POINT('',(0.00525886872059503,-0.0101021928203508,-1.00000000000002E-6));
#638=CARTESIAN_POINT('',(0.00525886872059503,-0.0101021928203508,0.0005));
#639=CARTESIAN_POINT('',(0.00481536330400592,-0.0103330671269683,0.0005));
#640=CARTESIAN_POINT('',(0.,0.,0.0005));
#641=CARTESIAN_POINT('',(0.,0.,0.));
#642=CARTESIAN_POINT('',(0.0055871582201439,-0.0107328310814565,0.));
#643=CARTESIAN_POINT('',(0.00580331443124744,-0.0106175110836804,0.));
#644=CARTESIAN_POINT('',(0.00580331443124744,-0.0106175110836804,-1.00000000000002E-6));
#645=CARTESIAN_POINT('',(0.00580331443124744,-0.0106175110836804,0.0005));
#646=CARTESIAN_POINT('',(0.,0.,0.0005));
#647=CARTESIAN_POINT('',(0.0055871582201439,-0.0107328310814565,0.0005));
#648=CARTESIAN_POINT('',(0.0055871582201439,-0.0107328310814565,-1.00000000000002E-6));
#649=CARTESIAN_POINT('',(0.,0.,0.0005));
#650=CARTESIAN_POINT('',(0.,0.,0.));
#651=CARTESIAN_POINT('',(0.00577494588719236,-0.0043,0.));
#652=CARTESIAN_POINT('',(0.00553923133011576,-0.0045996647999027,0.));
#653=CARTESIAN_POINT('',(0.00553923133011576,-0.0045996647999027,0.0005));
#654=CARTESIAN_POINT('',(0.00553923133011576,-0.0045996647999027,0.0005));
#655=CARTESIAN_POINT('',(0.,0.,0.0005));
#656=CARTESIAN_POINT('',(0.00577494588719236,-0.0043,0.0005));
#657=CARTESIAN_POINT('',(0.00577494588719236,-0.0043,0.0005));
#658=CARTESIAN_POINT('',(0.00553923133011576,-0.0045996647999027,0.0005));
#659=CARTESIAN_POINT('',(0.00553923133011576,-0.0045996647999027,0.));
#660=CARTESIAN_POINT('',(0.00659,-0.00641964952314377,0.));
#661=CARTESIAN_POINT('',(0.00659,-0.00641964952314377,0.0005));
#662=CARTESIAN_POINT('',(0.00659,-0.00641964952314377,0.0005));
#663=CARTESIAN_POINT('',(0.00553923133011576,-0.0045996647999027,0.0005));
#664=CARTESIAN_POINT('',(0.,0.,0.0005));
#665=CARTESIAN_POINT('',(0.,0.,0.));
#666=CARTESIAN_POINT('',(0.005,-0.00772269383052313,0.));
#667=CARTESIAN_POINT('',(0.005,-0.00772269383052313,0.0005));
#668=CARTESIAN_POINT('',(0.005,-0.00772269383052313,0.0005));
#669=CARTESIAN_POINT('',(0.,0.,0.0005));
#670=CARTESIAN_POINT('',(0.005,-0.00772269383052313,0.0005));
#671=CARTESIAN_POINT('',(0.005,-0.00772269383052313,0.));
#672=CARTESIAN_POINT('',(0.005,-0.00784155596804614,0.));
#673=CARTESIAN_POINT('',(0.005,-0.00784155596804614,0.0005));
#674=CARTESIAN_POINT('',(0.005,-0.00784155596804614,0.0005));
#675=CARTESIAN_POINT('',(0.005,-0.00772269383052313,0.0005));
#676=CARTESIAN_POINT('',(0.,0.,0.0005));
#677=CARTESIAN_POINT('',(0.,0.,0.));
#678=CARTESIAN_POINT('',(-0.005,-0.00784155596804614,0.));
#679=CARTESIAN_POINT('',(-0.005,-0.00784155596804614,0.0005));
#680=CARTESIAN_POINT('',(-0.005,-0.00784155596804614,0.0005));
#681=CARTESIAN_POINT('',(0.,0.,0.0005));
#682=CARTESIAN_POINT('',(-0.005,-0.00772269383052313,0.0005));
#683=CARTESIAN_POINT('',(-0.005,-0.00772269383052313,0.));
#684=CARTESIAN_POINT('',(-0.005,-0.00772269383052313,0.));
#685=CARTESIAN_POINT('',(-0.005,-0.00772269383052313,0.0005));
#686=CARTESIAN_POINT('',(-0.005,-0.00772269383052313,0.0005));
#687=CARTESIAN_POINT('',(-0.005,-0.00772269383052313,0.0005));
#688=CARTESIAN_POINT('',(0.,0.,0.0005));
#689=CARTESIAN_POINT('',(0.,0.,0.));
#690=CARTESIAN_POINT('',(-0.00659,-0.00641964952314377,0.));
#691=CARTESIAN_POINT('',(-0.00659,-0.00641964952314377,0.0005));
#692=CARTESIAN_POINT('',(-0.00659,-0.00641964952314377,0.0005));
#693=CARTESIAN_POINT('',(0.,0.,0.0005));
#694=CARTESIAN_POINT('',(-0.00553923133011576,-0.0045996647999027,0.0005));
#695=CARTESIAN_POINT('',(-0.00553923133011576,-0.0045996647999027,0.));
#696=CARTESIAN_POINT('',(-0.00553923133011576,-0.0045996647999027,0.));
#697=CARTESIAN_POINT('',(-0.00553923133011576,-0.0045996647999027,0.0005));
#698=CARTESIAN_POINT('',(-0.00553923133011576,-0.0045996647999027,0.0005));
#699=CARTESIAN_POINT('',(-0.00553923133011576,-0.0045996647999027,0.0005));
#700=CARTESIAN_POINT('',(0.,0.,0.0005));
#701=CARTESIAN_POINT('',(0.,0.,0.));
#702=CARTESIAN_POINT('',(-0.00577494588719236,-0.0043,0.));
#703=CARTESIAN_POINT('',(-0.00577494588719236,-0.0043,0.0005));
#704=CARTESIAN_POINT('',(-0.00577494588719236,-0.0043,0.0005));
#705=CARTESIAN_POINT('',(0.,0.,0.0005));
#706=CARTESIAN_POINT('',(-0.00826022314597606,-0.0043,0.0005));
#707=CARTESIAN_POINT('',(-0.00826022314597606,-0.0043,0.));
#708=CARTESIAN_POINT('',(-0.00826022314597606,-0.0043,0.));
#709=CARTESIAN_POINT('',(-0.00826022314597606,-0.0043,0.0005));
#710=CARTESIAN_POINT('',(-0.00826022314597606,-0.0043,0.0005));
#711=CARTESIAN_POINT('',(-0.00826022314597606,-0.0043,0.0005));
#712=CARTESIAN_POINT('',(-0.00826022314597606,-0.0043,0.0005));
#713=CARTESIAN_POINT('',(-0.00826022314597606,-0.0043,0.));
#714=CARTESIAN_POINT('',(-0.00966841808164263,-0.00503305988426184,0.));
#715=CARTESIAN_POINT('',(-0.00966841808164263,-0.00503305988426184,-1.00000000000002E-6));
#716=CARTESIAN_POINT('',(-0.00966841808164263,-0.00503305988426184,0.0005));
#717=CARTESIAN_POINT('',(-0.00826022314597606,-0.0043,0.0005));
#718=CARTESIAN_POINT('',(0.00826022314597607,-0.0043,0.0005));
#719=CARTESIAN_POINT('',(0.00826022314597607,-0.0043,0.0005));
#720=CARTESIAN_POINT('',(0.00873649386454358,-0.00454793084322885,0.0005));
#721=CARTESIAN_POINT('',(0.00826022314597607,-0.0043,0.0005));
#722=CARTESIAN_POINT('',(0.00873649386454358,-0.00454793084322885,0.0005));
#723=CARTESIAN_POINT('',(0.00873649386454358,-0.00454793084322885,0.));
#724=CARTESIAN_POINT('',(0.00826022314597607,-0.0043,0.));
#725=CARTESIAN_POINT('',(0.00826022314597607,-0.0043,0.));
#726=CARTESIAN_POINT('',(0.00826022314597607,-0.0043,0.0005));
#727=CARTESIAN_POINT('',(0.00577494588719236,-0.0043,0.0005));
#728=CARTESIAN_POINT('',(0.00577494588719236,-0.0043,0.));
#729=CARTESIAN_POINT('',(0.00577494588719236,-0.0043,0.0005));
#730=CARTESIAN_POINT('',(0.,0.,0.0005));
#731=CARTESIAN_POINT('',(0.,0.,0.0005));
#732=CARTESIAN_POINT('',(0.00525886872059503,-0.0101021928203508,0.0005));
#733=CARTESIAN_POINT('',(0.00580331443124744,-0.0106175110836804,0.0005));
#734=CARTESIAN_POINT('',(0.00625869391438443,-0.00905517485493036,0.0005));
#735=CARTESIAN_POINT('',(0.00673871884157739,-0.00919508936194586,0.0005));
#736=CARTESIAN_POINT('',(0.00644316099764856,-0.00879179596887805,0.0005));
#737=CARTESIAN_POINT('',(0.,0.,0.0005));
#738=CARTESIAN_POINT('',(0.00911057810497608,-0.00598392568412496,0.0005));
#739=CARTESIAN_POINT('',(0.00827474525130855,-0.00543494167640707,0.0005));
#740=CARTESIAN_POINT('',(0.,0.,0.));
#741=CARTESIAN_POINT('',(0.,0.,0.));
#742=CARTESIAN_POINT('',(0.00827474525130855,-0.00543494167640707,0.));
#743=CARTESIAN_POINT('',(0.00911057810497608,-0.00598392568412496,0.));
#744=CARTESIAN_POINT('',(0.,0.,0.));
#745=CARTESIAN_POINT('',(0.00644316099764856,-0.00879179596887806,0.));
#746=CARTESIAN_POINT('',(0.00673871884157739,-0.00919508936194586,0.));
#747=CARTESIAN_POINT('',(0.00625869391438443,-0.00905517485493036,0.));
#748=CARTESIAN_POINT('',(0.00580331443124744,-0.0106175110836804,0.));
#749=CARTESIAN_POINT('',(0.00525886872059503,-0.0101021928203508,0.));
#750=CARTESIAN_POINT('',(0.00525886872059503,-0.0101021928203508,-1.00000000000002E-6));
#751=CARTESIAN_POINT('',(0.00580331443124744,-0.0106175110836804,-1.00000000000002E-6));
#752=CARTESIAN_POINT('',(0.00625869391438443,-0.00905517485493036,-1.00000000000002E-6));
#753=CARTESIAN_POINT('',(0.00673871884157739,-0.00919508936194586,-1.00000000000002E-6));
#754=CARTESIAN_POINT('',(0.00644316099764856,-0.00879179596887805,-1.00000000000002E-6));
#755=CARTESIAN_POINT('',(0.,0.,-1.00000000000002E-6));
#756=CARTESIAN_POINT('',(0.00911057810497608,-0.00598392568412496,-1.00000000000002E-6));
#757=CARTESIAN_POINT('',(0.00827474525130855,-0.00543494167640707,-1.00000000000002E-6));
#758=CARTESIAN_POINT('',(0.,0.,-1.00000000000002E-6));
#759=(
GEOMETRIC_REPRESENTATION_CONTEXT(3)
GLOBAL_UNCERTAINTY_ASSIGNED_CONTEXT((#760))
GLOBAL_UNIT_ASSIGNED_CONTEXT((#763,#762,#761))
REPRESENTATION_CONTEXT('id2','TOP_LEVEL_ASSEMBLY_PART')
);
#760=UNCERTAINTY_MEASURE_WITH_UNIT(LENGTH_MEASURE(1.E-8),#763,
'DISTANCE_ACCURACY_VALUE','Maximum Tolerance applied to model');
#761=(
NAMED_UNIT(*)
SI_UNIT($,.STERADIAN.)
SOLID_ANGLE_UNIT()
);
#762=(
NAMED_UNIT(*)
PLANE_ANGLE_UNIT()
SI_UNIT($,.RADIAN.)
);
#763=(
LENGTH_UNIT()
NAMED_UNIT(*)
SI_UNIT($,.METRE.)
);
#764=PRODUCT_DEFINITION_SHAPE('','',#765);
#765=PRODUCT_DEFINITION('','',#767,#766);
#766=DESIGN_CONTEXT('',#773,'design');
#767=PRODUCT_DEFINITION_FORMATION_WITH_SPECIFIED_SOURCE('','',#769,
 .NOT_KNOWN.);
#768=PRODUCT_RELATED_PRODUCT_CATEGORY('','',(#769));
#769=PRODUCT('id2','id2','id2',(#771));
#770=PRODUCT_CATEGORY('','');
#771=MECHANICAL_CONTEXT('',#773,'mechanical');
#772=APPLICATION_PROTOCOL_DEFINITION('international standard',
'config_control_design',2010,#773);
#773=APPLICATION_CONTEXT(
'configuration controlled 3D designs of mechanical parts and assemblie
s');
ENDSEC;
END-ISO-10303-21;
