ISO-10303-21;
HEADER;
/* Generated by software containing ST-Developer
 * from STEP Tools, Inc. (www.steptools.com) 
 */
/* OPTION: using custom renumber hook */

FILE_DESCRIPTION(
/* description */ ('STEP AP203'),
/* implementation_level */ '2;1');

FILE_NAME(
/* name */ '6a5465a4a930e3b0a2140735',
/* time_stamp */ '2026-07-13T04:12:21Z',
/* author */ (''),
/* organization */ (''),
/* preprocessor_version */ 'ST-DEVELOPER v20',
/* originating_system */ 'ONSHAPE BY PTC INC, 1.217',
/* authorisation */ '  ');

FILE_SCHEMA (('CONFIG_CONTROL_DESIGN'));
ENDSEC;

DATA;
#10=PROPERTY_DEFINITION_REPRESENTATION(#14,#12);
#11=PROPERTY_DEFINITION_REPRESENTATION(#15,#13);
#12=REPRESENTATION('',(#16),#727);
#13=REPRESENTATION('',(#17),#727);
#14=PROPERTY_DEFINITION('pmi validation property','',#732);
#15=PROPERTY_DEFINITION('pmi validation property','',#732);
#16=VALUE_REPRESENTATION_ITEM('number of annotations',COUNT_MEASURE(0.));
#17=VALUE_REPRESENTATION_ITEM('number of views',COUNT_MEASURE(0.));
#18=SHAPE_REPRESENTATION_RELATIONSHIP('','',#418,#19);
#19=ADVANCED_BREP_SHAPE_REPRESENTATION('',(#416),#727);
#20=B_SPLINE_SURFACE_WITH_KNOTS('',3,1,((#659,#660),(#661,#662),(#663,#664),
(#665,#666),(#667,#668),(#669,#670)),.RULED_SURF.,.F.,.F.,.F.,(4,2,4),(2,
2),(0.,0.5,1.),(0.,1.),.UNSPECIFIED.);
#21=B_SPLINE_SURFACE_WITH_KNOTS('',3,1,((#684,#685),(#686,#687),(#688,#689),
(#690,#691),(#692,#693),(#694,#695)),.RULED_SURF.,.F.,.F.,.F.,(4,2,4),(2,
2),(0.,0.5,1.),(0.,1.),.UNSPECIFIED.);
#22=B_SPLINE_SURFACE_WITH_KNOTS('',3,1,((#700,#701),(#702,#703),(#704,#705),
(#706,#707),(#708,#709),(#710,#711)),.RULED_SURF.,.F.,.F.,.F.,(4,2,4),(2,
2),(0.,0.5,1.),(0.,1.),.UNSPECIFIED.);
#23=B_SPLINE_SURFACE_WITH_KNOTS('',3,1,((#715,#716),(#717,#718),(#719,#720),
(#721,#722),(#723,#724),(#725,#726)),.RULED_SURF.,.F.,.F.,.F.,(4,2,4),(2,
2),(0.,0.5,1.),(0.,1.),.UNSPECIFIED.);
#24=PLANE('',#426);
#25=PLANE('',#433);
#26=PLANE('',#442);
#27=PLANE('',#444);
#28=PLANE('',#445);
#29=PLANE('',#446);
#30=PLANE('',#447);
#31=PLANE('',#451);
#32=PLANE('',#452);
#33=PLANE('',#453);
#34=PLANE('',#454);
#35=LINE('',#573,#76);
#36=LINE('',#577,#77);
#37=LINE('',#582,#78);
#38=LINE('',#586,#79);
#39=LINE('',#588,#80);
#40=LINE('',#594,#81);
#41=LINE('',#596,#82);
#42=LINE('',#598,#83);
#43=LINE('',#604,#84);
#44=LINE('',#605,#85);
#45=LINE('',#609,#86);
#46=LINE('',#616,#87);
#47=LINE('',#619,#88);
#48=LINE('',#623,#89);
#49=LINE('',#624,#90);
#50=LINE('',#630,#91);
#51=LINE('',#632,#92);
#52=LINE('',#634,#93);
#53=LINE('',#638,#94);
#54=LINE('',#639,#95);
#55=LINE('',#641,#96);
#56=LINE('',#642,#97);
#57=LINE('',#644,#98);
#58=LINE('',#646,#99);
#59=LINE('',#648,#100);
#60=LINE('',#650,#101);
#61=LINE('',#651,#102);
#62=LINE('',#653,#103);
#63=LINE('',#655,#104);
#64=LINE('',#671,#105);
#65=LINE('',#673,#106);
#66=LINE('',#675,#107);
#67=LINE('',#677,#108);
#68=LINE('',#679,#109);
#69=LINE('',#681,#110);
#70=LINE('',#683,#111);
#71=LINE('',#696,#112);
#72=LINE('',#698,#113);
#73=LINE('',#699,#114);
#74=LINE('',#712,#115);
#75=LINE('',#714,#116);
#76=VECTOR('',#461,1.);
#77=VECTOR('',#464,1.);
#78=VECTOR('',#469,1.);
#79=VECTOR('',#472,1.);
#80=VECTOR('',#475,1.);
#81=VECTOR('',#480,1.);
#82=VECTOR('',#481,1.);
#83=VECTOR('',#482,1.);
#84=VECTOR('',#487,1.);
#85=VECTOR('',#488,1.);
#86=VECTOR('',#491,1.);
#87=VECTOR('',#498,1.);
#88=VECTOR('',#501,1.);
#89=VECTOR('',#504,1.);
#90=VECTOR('',#505,1.);
#91=VECTOR('',#510,1.);
#92=VECTOR('',#511,1.);
#93=VECTOR('',#512,1.);
#94=VECTOR('',#517,1.);
#95=VECTOR('',#518,1.);
#96=VECTOR('',#521,1.);
#97=VECTOR('',#522,1.);
#98=VECTOR('',#525,1.);
#99=VECTOR('',#528,1.);
#100=VECTOR('',#531,1.);
#101=VECTOR('',#534,1.);
#102=VECTOR('',#535,1.);
#103=VECTOR('',#538,1.);
#104=VECTOR('',#541,1.);
#105=VECTOR('',#548,1.);
#106=VECTOR('',#549,1.);
#107=VECTOR('',#550,1.);
#108=VECTOR('',#553,1.);
#109=VECTOR('',#554,1.);
#110=VECTOR('',#557,1.);
#111=VECTOR('',#558,1.);
#112=VECTOR('',#559,1.);
#113=VECTOR('',#562,1.);
#114=VECTOR('',#563,1.);
#115=VECTOR('',#564,1.);
#116=VECTOR('',#567,1.);
#117=ORIENTED_EDGE('',*,*,#231,.F.);
#118=ORIENTED_EDGE('',*,*,#232,.T.);
#119=ORIENTED_EDGE('',*,*,#233,.T.);
#120=ORIENTED_EDGE('',*,*,#234,.T.);
#121=ORIENTED_EDGE('',*,*,#235,.T.);
#122=ORIENTED_EDGE('',*,*,#236,.F.);
#123=ORIENTED_EDGE('',*,*,#237,.F.);
#124=ORIENTED_EDGE('',*,*,#238,.F.);
#125=ORIENTED_EDGE('',*,*,#239,.T.);
#126=ORIENTED_EDGE('',*,*,#240,.T.);
#127=ORIENTED_EDGE('',*,*,#241,.T.);
#128=ORIENTED_EDGE('',*,*,#242,.T.);
#129=ORIENTED_EDGE('',*,*,#243,.T.);
#130=ORIENTED_EDGE('',*,*,#244,.T.);
#131=ORIENTED_EDGE('',*,*,#245,.T.);
#132=ORIENTED_EDGE('',*,*,#246,.T.);
#133=ORIENTED_EDGE('',*,*,#247,.T.);
#134=ORIENTED_EDGE('',*,*,#235,.F.);
#135=ORIENTED_EDGE('',*,*,#248,.F.);
#136=ORIENTED_EDGE('',*,*,#249,.F.);
#137=ORIENTED_EDGE('',*,*,#250,.F.);
#138=ORIENTED_EDGE('',*,*,#251,.T.);
#139=ORIENTED_EDGE('',*,*,#233,.F.);
#140=ORIENTED_EDGE('',*,*,#252,.F.);
#141=ORIENTED_EDGE('',*,*,#253,.F.);
#142=ORIENTED_EDGE('',*,*,#231,.T.);
#143=ORIENTED_EDGE('',*,*,#254,.T.);
#144=ORIENTED_EDGE('',*,*,#255,.T.);
#145=ORIENTED_EDGE('',*,*,#256,.T.);
#146=ORIENTED_EDGE('',*,*,#257,.T.);
#147=ORIENTED_EDGE('',*,*,#237,.T.);
#148=ORIENTED_EDGE('',*,*,#258,.F.);
#149=ORIENTED_EDGE('',*,*,#259,.F.);
#150=ORIENTED_EDGE('',*,*,#260,.T.);
#151=ORIENTED_EDGE('',*,*,#261,.F.);
#152=ORIENTED_EDGE('',*,*,#262,.F.);
#153=ORIENTED_EDGE('',*,*,#263,.F.);
#154=ORIENTED_EDGE('',*,*,#264,.T.);
#155=ORIENTED_EDGE('',*,*,#265,.F.);
#156=ORIENTED_EDGE('',*,*,#252,.T.);
#157=ORIENTED_EDGE('',*,*,#266,.T.);
#158=ORIENTED_EDGE('',*,*,#240,.F.);
#159=ORIENTED_EDGE('',*,*,#267,.T.);
#160=ORIENTED_EDGE('',*,*,#246,.F.);
#161=ORIENTED_EDGE('',*,*,#268,.T.);
#162=ORIENTED_EDGE('',*,*,#259,.T.);
#163=ORIENTED_EDGE('',*,*,#257,.F.);
#164=ORIENTED_EDGE('',*,*,#269,.F.);
#165=ORIENTED_EDGE('',*,*,#248,.T.);
#166=ORIENTED_EDGE('',*,*,#238,.T.);
#167=ORIENTED_EDGE('',*,*,#256,.F.);
#168=ORIENTED_EDGE('',*,*,#270,.F.);
#169=ORIENTED_EDGE('',*,*,#249,.T.);
#170=ORIENTED_EDGE('',*,*,#269,.T.);
#171=ORIENTED_EDGE('',*,*,#255,.F.);
#172=ORIENTED_EDGE('',*,*,#271,.T.);
#173=ORIENTED_EDGE('',*,*,#250,.T.);
#174=ORIENTED_EDGE('',*,*,#270,.T.);
#175=ORIENTED_EDGE('',*,*,#262,.T.);
#176=ORIENTED_EDGE('',*,*,#272,.F.);
#177=ORIENTED_EDGE('',*,*,#243,.F.);
#178=ORIENTED_EDGE('',*,*,#273,.T.);
#179=ORIENTED_EDGE('',*,*,#242,.F.);
#180=ORIENTED_EDGE('',*,*,#274,.T.);
#181=ORIENTED_EDGE('',*,*,#263,.T.);
#182=ORIENTED_EDGE('',*,*,#273,.F.);
#183=ORIENTED_EDGE('',*,*,#261,.T.);
#184=ORIENTED_EDGE('',*,*,#275,.T.);
#185=ORIENTED_EDGE('',*,*,#244,.F.);
#186=ORIENTED_EDGE('',*,*,#272,.T.);
#187=ORIENTED_EDGE('',*,*,#241,.F.);
#188=ORIENTED_EDGE('',*,*,#266,.F.);
#189=ORIENTED_EDGE('',*,*,#264,.F.);
#190=ORIENTED_EDGE('',*,*,#274,.F.);
#191=ORIENTED_EDGE('',*,*,#245,.F.);
#192=ORIENTED_EDGE('',*,*,#275,.F.);
#193=ORIENTED_EDGE('',*,*,#260,.F.);
#194=ORIENTED_EDGE('',*,*,#268,.F.);
#195=ORIENTED_EDGE('',*,*,#251,.F.);
#196=ORIENTED_EDGE('',*,*,#271,.F.);
#197=ORIENTED_EDGE('',*,*,#254,.F.);
#198=ORIENTED_EDGE('',*,*,#234,.F.);
#199=ORIENTED_EDGE('',*,*,#258,.T.);
#200=ORIENTED_EDGE('',*,*,#276,.T.);
#201=ORIENTED_EDGE('',*,*,#277,.F.);
#202=ORIENTED_EDGE('',*,*,#278,.T.);
#203=ORIENTED_EDGE('',*,*,#279,.T.);
#204=ORIENTED_EDGE('',*,*,#280,.F.);
#205=ORIENTED_EDGE('',*,*,#276,.F.);
#206=ORIENTED_EDGE('',*,*,#236,.T.);
#207=ORIENTED_EDGE('',*,*,#278,.F.);
#208=ORIENTED_EDGE('',*,*,#281,.F.);
#209=ORIENTED_EDGE('',*,*,#282,.F.);
#210=ORIENTED_EDGE('',*,*,#267,.F.);
#211=ORIENTED_EDGE('',*,*,#247,.F.);
#212=ORIENTED_EDGE('',*,*,#282,.T.);
#213=ORIENTED_EDGE('',*,*,#283,.F.);
#214=ORIENTED_EDGE('',*,*,#279,.F.);
#215=ORIENTED_EDGE('',*,*,#284,.F.);
#216=ORIENTED_EDGE('',*,*,#232,.F.);
#217=ORIENTED_EDGE('',*,*,#285,.T.);
#218=ORIENTED_EDGE('',*,*,#280,.T.);
#219=ORIENTED_EDGE('',*,*,#253,.T.);
#220=ORIENTED_EDGE('',*,*,#286,.F.);
#221=ORIENTED_EDGE('',*,*,#277,.T.);
#222=ORIENTED_EDGE('',*,*,#285,.F.);
#223=ORIENTED_EDGE('',*,*,#286,.T.);
#224=ORIENTED_EDGE('',*,*,#265,.T.);
#225=ORIENTED_EDGE('',*,*,#287,.T.);
#226=ORIENTED_EDGE('',*,*,#281,.T.);
#227=ORIENTED_EDGE('',*,*,#239,.F.);
#228=ORIENTED_EDGE('',*,*,#284,.T.);
#229=ORIENTED_EDGE('',*,*,#283,.T.);
#230=ORIENTED_EDGE('',*,*,#287,.F.);
#231=EDGE_CURVE('',#288,#289,#322,.T.);
#232=EDGE_CURVE('',#288,#290,#35,.T.);
#233=EDGE_CURVE('',#290,#291,#323,.T.);
#234=EDGE_CURVE('',#291,#289,#36,.T.);
#235=EDGE_CURVE('',#292,#293,#324,.T.);
#236=EDGE_CURVE('',#294,#293,#37,.F.);
#237=EDGE_CURVE('',#295,#294,#325,.T.);
#238=EDGE_CURVE('',#292,#295,#38,.T.);
#239=EDGE_CURVE('',#290,#296,#39,.T.);
#240=EDGE_CURVE('',#296,#297,#326,.T.);
#241=EDGE_CURVE('',#297,#298,#327,.T.);
#242=EDGE_CURVE('',#298,#299,#40,.T.);
#243=EDGE_CURVE('',#299,#300,#41,.T.);
#244=EDGE_CURVE('',#300,#301,#42,.T.);
#245=EDGE_CURVE('',#301,#302,#328,.T.);
#246=EDGE_CURVE('',#302,#303,#329,.T.);
#247=EDGE_CURVE('',#303,#293,#43,.T.);
#248=EDGE_CURVE('',#304,#292,#44,.T.);
#249=EDGE_CURVE('',#305,#304,#330,.T.);
#250=EDGE_CURVE('',#306,#305,#45,.T.);
#251=EDGE_CURVE('',#306,#291,#331,.T.);
#252=EDGE_CURVE('',#307,#308,#332,.T.);
#253=EDGE_CURVE('',#288,#307,#46,.T.);
#254=EDGE_CURVE('',#289,#309,#333,.F.);
#255=EDGE_CURVE('',#309,#310,#47,.T.);
#256=EDGE_CURVE('',#310,#311,#334,.T.);
#257=EDGE_CURVE('',#311,#295,#48,.T.);
#258=EDGE_CURVE('',#312,#294,#49,.F.);
#259=EDGE_CURVE('',#313,#312,#335,.T.);
#260=EDGE_CURVE('',#313,#314,#336,.F.);
#261=EDGE_CURVE('',#315,#314,#50,.T.);
#262=EDGE_CURVE('',#316,#315,#51,.T.);
#263=EDGE_CURVE('',#317,#316,#52,.T.);
#264=EDGE_CURVE('',#317,#308,#337,.F.);
#265=EDGE_CURVE('',#307,#296,#53,.T.);
#266=EDGE_CURVE('',#308,#297,#54,.F.);
#267=EDGE_CURVE('',#312,#303,#55,.F.);
#268=EDGE_CURVE('',#302,#313,#56,.T.);
#269=EDGE_CURVE('',#304,#311,#57,.T.);
#270=EDGE_CURVE('',#305,#310,#58,.T.);
#271=EDGE_CURVE('',#309,#306,#59,.T.);
#272=EDGE_CURVE('',#300,#315,#60,.T.);
#273=EDGE_CURVE('',#299,#316,#61,.T.);
#274=EDGE_CURVE('',#298,#317,#62,.F.);
#275=EDGE_CURVE('',#314,#301,#63,.T.);
#276=EDGE_CURVE('',#294,#318,#64,.T.);
#277=EDGE_CURVE('',#319,#318,#65,.T.);
#278=EDGE_CURVE('',#319,#312,#66,.T.);
#279=EDGE_CURVE('',#293,#320,#67,.T.);
#280=EDGE_CURVE('',#318,#320,#68,.T.);
#281=EDGE_CURVE('',#321,#319,#69,.T.);
#282=EDGE_CURVE('',#303,#321,#70,.T.);
#283=EDGE_CURVE('',#320,#321,#71,.T.);
#284=EDGE_CURVE('',#290,#320,#72,.T.);
#285=EDGE_CURVE('',#288,#318,#73,.T.);
#286=EDGE_CURVE('',#319,#307,#74,.T.);
#287=EDGE_CURVE('',#296,#321,#75,.T.);
#288=VERTEX_POINT('',#571);
#289=VERTEX_POINT('',#572);
#290=VERTEX_POINT('',#574);
#291=VERTEX_POINT('',#576);
#292=VERTEX_POINT('',#580);
#293=VERTEX_POINT('',#581);
#294=VERTEX_POINT('',#583);
#295=VERTEX_POINT('',#585);
#296=VERTEX_POINT('',#589);
#297=VERTEX_POINT('',#591);
#298=VERTEX_POINT('',#593);
#299=VERTEX_POINT('',#595);
#300=VERTEX_POINT('',#597);
#301=VERTEX_POINT('',#599);
#302=VERTEX_POINT('',#601);
#303=VERTEX_POINT('',#603);
#304=VERTEX_POINT('',#606);
#305=VERTEX_POINT('',#608);
#306=VERTEX_POINT('',#610);
#307=VERTEX_POINT('',#614);
#308=VERTEX_POINT('',#615);
#309=VERTEX_POINT('',#618);
#310=VERTEX_POINT('',#620);
#311=VERTEX_POINT('',#622);
#312=VERTEX_POINT('',#625);
#313=VERTEX_POINT('',#627);
#314=VERTEX_POINT('',#629);
#315=VERTEX_POINT('',#631);
#316=VERTEX_POINT('',#633);
#317=VERTEX_POINT('',#635);
#318=VERTEX_POINT('',#672);
#319=VERTEX_POINT('',#674);
#320=VERTEX_POINT('',#678);
#321=VERTEX_POINT('',#682);
#322=CIRCLE('',#421,0.0105);
#323=CIRCLE('',#422,0.0105);
#324=CIRCLE('',#424,0.0105);
#325=CIRCLE('',#425,0.0105);
#326=CIRCLE('',#427,0.008);
#327=CIRCLE('',#428,0.0001);
#328=CIRCLE('',#429,0.0001);
#329=CIRCLE('',#430,0.008);
#330=CIRCLE('',#431,0.012);
#331=CIRCLE('',#432,0.0005);
#332=CIRCLE('',#434,0.008);
#333=CIRCLE('',#435,0.0005);
#334=CIRCLE('',#436,0.012);
#335=CIRCLE('',#437,0.008);
#336=CIRCLE('',#438,0.0001);
#337=CIRCLE('',#439,0.0001);
#338=EDGE_LOOP('',(#117,#118,#119,#120));
#339=EDGE_LOOP('',(#121,#122,#123,#124));
#340=EDGE_LOOP('',(#125,#126,#127,#128,#129,#130,#131,#132,#133,#134,#135,
#136,#137,#138,#139));
#341=EDGE_LOOP('',(#140,#141,#142,#143,#144,#145,#146,#147,#148,#149,#150,
#151,#152,#153,#154));
#342=EDGE_LOOP('',(#155,#156,#157,#158));
#343=EDGE_LOOP('',(#159,#160,#161,#162));
#344=EDGE_LOOP('',(#163,#164,#165,#166));
#345=EDGE_LOOP('',(#167,#168,#169,#170));
#346=EDGE_LOOP('',(#171,#172,#173,#174));
#347=EDGE_LOOP('',(#175,#176,#177,#178));
#348=EDGE_LOOP('',(#179,#180,#181,#182));
#349=EDGE_LOOP('',(#183,#184,#185,#186));
#350=EDGE_LOOP('',(#187,#188,#189,#190));
#351=EDGE_LOOP('',(#191,#192,#193,#194));
#352=EDGE_LOOP('',(#195,#196,#197,#198));
#353=EDGE_LOOP('',(#199,#200,#201,#202));
#354=EDGE_LOOP('',(#203,#204,#205,#206));
#355=EDGE_LOOP('',(#207,#208,#209,#210));
#356=EDGE_LOOP('',(#211,#212,#213,#214));
#357=EDGE_LOOP('',(#215,#216,#217,#218));
#358=EDGE_LOOP('',(#219,#220,#221,#222));
#359=EDGE_LOOP('',(#223,#224,#225,#226));
#360=EDGE_LOOP('',(#227,#228,#229,#230));
#361=FACE_BOUND('',#338,.T.);
#362=FACE_BOUND('',#339,.T.);
#363=FACE_BOUND('',#340,.T.);
#364=FACE_BOUND('',#341,.T.);
#365=FACE_BOUND('',#342,.T.);
#366=FACE_BOUND('',#343,.T.);
#367=FACE_BOUND('',#344,.T.);
#368=FACE_BOUND('',#345,.T.);
#369=FACE_BOUND('',#346,.T.);
#370=FACE_BOUND('',#347,.T.);
#371=FACE_BOUND('',#348,.T.);
#372=FACE_BOUND('',#349,.T.);
#373=FACE_BOUND('',#350,.T.);
#374=FACE_BOUND('',#351,.T.);
#375=FACE_BOUND('',#352,.T.);
#376=FACE_BOUND('',#353,.T.);
#377=FACE_BOUND('',#354,.T.);
#378=FACE_BOUND('',#355,.T.);
#379=FACE_BOUND('',#356,.T.);
#380=FACE_BOUND('',#357,.T.);
#381=FACE_BOUND('',#358,.T.);
#382=FACE_BOUND('',#359,.T.);
#383=FACE_BOUND('',#360,.T.);
#384=CYLINDRICAL_SURFACE('',#420,0.0105);
#385=CYLINDRICAL_SURFACE('',#423,0.0105);
#386=CYLINDRICAL_SURFACE('',#440,0.008);
#387=CYLINDRICAL_SURFACE('',#441,0.008);
#388=CYLINDRICAL_SURFACE('',#443,0.012);
#389=CYLINDRICAL_SURFACE('',#448,0.0001);
#390=CYLINDRICAL_SURFACE('',#449,0.0001);
#391=CYLINDRICAL_SURFACE('',#450,0.0005);
#392=ADVANCED_FACE('',(#361),#384,.T.);
#393=ADVANCED_FACE('',(#362),#385,.T.);
#394=ADVANCED_FACE('',(#363),#24,.F.);
#395=ADVANCED_FACE('',(#364),#25,.T.);
#396=ADVANCED_FACE('',(#365),#386,.F.);
#397=ADVANCED_FACE('',(#366),#387,.F.);
#398=ADVANCED_FACE('',(#367),#26,.T.);
#399=ADVANCED_FACE('',(#368),#388,.T.);
#400=ADVANCED_FACE('',(#369),#27,.T.);
#401=ADVANCED_FACE('',(#370),#28,.F.);
#402=ADVANCED_FACE('',(#371),#29,.F.);
#403=ADVANCED_FACE('',(#372),#30,.F.);
#404=ADVANCED_FACE('',(#373),#389,.F.);
#405=ADVANCED_FACE('',(#374),#390,.F.);
#406=ADVANCED_FACE('',(#375),#391,.F.);
#407=ADVANCED_FACE('',(#376),#20,.T.);
#408=ADVANCED_FACE('',(#377),#31,.F.);
#409=ADVANCED_FACE('',(#378),#32,.F.);
#410=ADVANCED_FACE('',(#379),#21,.T.);
#411=ADVANCED_FACE('',(#380),#33,.F.);
#412=ADVANCED_FACE('',(#381),#22,.F.);
#413=ADVANCED_FACE('',(#382),#34,.F.);
#414=ADVANCED_FACE('',(#383),#23,.F.);
#415=CLOSED_SHELL('',(#392,#393,#394,#395,#396,#397,#398,#399,#400,#401,
#402,#403,#404,#405,#406,#407,#408,#409,#410,#411,#412,#413,#414));
#416=MANIFOLD_SOLID_BREP('',#415);
#417=SHAPE_DEFINITION_REPRESENTATION(#732,#418);
#418=SHAPE_REPRESENTATION('id2',(#419),#727);
#419=AXIS2_PLACEMENT_3D('',#568,#455,#456);
#420=AXIS2_PLACEMENT_3D('',#569,#457,#458);
#421=AXIS2_PLACEMENT_3D('',#570,#459,#460);
#422=AXIS2_PLACEMENT_3D('',#575,#462,#463);
#423=AXIS2_PLACEMENT_3D('',#578,#465,#466);
#424=AXIS2_PLACEMENT_3D('',#579,#467,#468);
#425=AXIS2_PLACEMENT_3D('',#584,#470,#471);
#426=AXIS2_PLACEMENT_3D('',#587,#473,#474);
#427=AXIS2_PLACEMENT_3D('',#590,#476,#477);
#428=AXIS2_PLACEMENT_3D('',#592,#478,#479);
#429=AXIS2_PLACEMENT_3D('',#600,#483,#484);
#430=AXIS2_PLACEMENT_3D('',#602,#485,#486);
#431=AXIS2_PLACEMENT_3D('',#607,#489,#490);
#432=AXIS2_PLACEMENT_3D('',#611,#492,#493);
#433=AXIS2_PLACEMENT_3D('',#612,#494,#495);
#434=AXIS2_PLACEMENT_3D('',#613,#496,#497);
#435=AXIS2_PLACEMENT_3D('',#617,#499,#500);
#436=AXIS2_PLACEMENT_3D('',#621,#502,#503);
#437=AXIS2_PLACEMENT_3D('',#626,#506,#507);
#438=AXIS2_PLACEMENT_3D('',#628,#508,#509);
#439=AXIS2_PLACEMENT_3D('',#636,#513,#514);
#440=AXIS2_PLACEMENT_3D('',#637,#515,#516);
#441=AXIS2_PLACEMENT_3D('',#640,#519,#520);
#442=AXIS2_PLACEMENT_3D('',#643,#523,#524);
#443=AXIS2_PLACEMENT_3D('',#645,#526,#527);
#444=AXIS2_PLACEMENT_3D('',#647,#529,#530);
#445=AXIS2_PLACEMENT_3D('',#649,#532,#533);
#446=AXIS2_PLACEMENT_3D('',#652,#536,#537);
#447=AXIS2_PLACEMENT_3D('',#654,#539,#540);
#448=AXIS2_PLACEMENT_3D('',#656,#542,#543);
#449=AXIS2_PLACEMENT_3D('',#657,#544,#545);
#450=AXIS2_PLACEMENT_3D('',#658,#546,#547);
#451=AXIS2_PLACEMENT_3D('',#676,#551,#552);
#452=AXIS2_PLACEMENT_3D('',#680,#555,#556);
#453=AXIS2_PLACEMENT_3D('',#697,#560,#561);
#454=AXIS2_PLACEMENT_3D('',#713,#565,#566);
#455=DIRECTION('',(0.,0.,1.));
#456=DIRECTION('',(1.,0.,0.));
#457=DIRECTION('',(0.,0.,1.));
#458=DIRECTION('',(1.,0.,0.));
#459=DIRECTION('',(0.,0.,1.));
#460=DIRECTION('',(1.,0.,0.));
#461=DIRECTION('',(0.,0.,-1.));
#462=DIRECTION('',(0.,0.,1.));
#463=DIRECTION('',(1.,0.,0.));
#464=DIRECTION('',(0.,0.,1.));
#465=DIRECTION('',(0.,0.,1.));
#466=DIRECTION('',(1.,0.,0.));
#467=DIRECTION('',(0.,0.,1.));
#468=DIRECTION('',(1.,0.,0.));
#469=DIRECTION('',(0.,0.,1.));
#470=DIRECTION('',(0.,0.,1.));
#471=DIRECTION('',(1.,0.,0.));
#472=DIRECTION('',(0.,0.,1.));
#473=DIRECTION('',(0.,0.,1.));
#474=DIRECTION('',(1.,0.,0.));
#475=DIRECTION('',(-0.31904761904762,0.947738685915081,0.));
#476=DIRECTION('',(0.,0.,1.));
#477=DIRECTION('',(1.,0.,0.));
#478=DIRECTION('',(0.,0.,1.));
#479=DIRECTION('',(1.,0.,0.));
#480=DIRECTION('',(0.976296007119934,0.2164396139381,0.));
#481=DIRECTION('',(0.2164396139381,-0.976296007119934,0.));
#482=DIRECTION('',(-0.976296007119934,-0.2164396139381,0.));
#483=DIRECTION('',(0.,0.,1.));
#484=DIRECTION('',(1.,0.,0.));
#485=DIRECTION('',(0.,0.,1.));
#486=DIRECTION('',(1.,0.,0.));
#487=DIRECTION('',(-0.319047619047619,-0.947738685915081,0.));
#488=DIRECTION('',(-0.989779692430382,-0.142604910337683,0.));
#489=DIRECTION('',(0.,0.,1.));
#490=DIRECTION('',(1.,0.,0.));
#491=DIRECTION('',(0.584249665637441,0.811573981965008,0.));
#492=DIRECTION('',(0.,0.,1.));
#493=DIRECTION('',(1.,0.,0.));
#494=DIRECTION('',(0.,0.,1.));
#495=DIRECTION('',(1.,0.,0.));
#496=DIRECTION('',(0.,0.,1.));
#497=DIRECTION('',(1.,0.,0.));
#498=DIRECTION('',(-0.31904761904762,0.947738685915081,0.));
#499=DIRECTION('',(0.,0.,1.));
#500=DIRECTION('',(1.,0.,0.));
#501=DIRECTION('',(0.584249665637441,0.811573981965008,0.));
#502=DIRECTION('',(0.,0.,1.));
#503=DIRECTION('',(1.,0.,0.));
#504=DIRECTION('',(-0.989779692430382,-0.142604910337683,0.));
#505=DIRECTION('',(0.319047619047619,0.947738685915081,0.));
#506=DIRECTION('',(0.,0.,1.));
#507=DIRECTION('',(1.,0.,0.));
#508=DIRECTION('',(0.,0.,1.));
#509=DIRECTION('',(1.,0.,0.));
#510=DIRECTION('',(-0.976296007119934,-0.2164396139381,0.));
#511=DIRECTION('',(0.2164396139381,-0.976296007119934,0.));
#512=DIRECTION('',(0.976296007119934,0.2164396139381,0.));
#513=DIRECTION('',(0.,0.,1.));
#514=DIRECTION('',(1.,0.,0.));
#515=DIRECTION('',(0.,0.,1.));
#516=DIRECTION('',(1.,0.,0.));
#517=DIRECTION('',(0.,0.,-1.));
#518=DIRECTION('',(0.,0.,1.));
#519=DIRECTION('',(0.,0.,1.));
#520=DIRECTION('',(1.,0.,0.));
#521=DIRECTION('',(0.,0.,1.));
#522=DIRECTION('',(0.,0.,1.));
#523=DIRECTION('',(-0.142604910337682,0.989779692430382,0.));
#524=DIRECTION('',(-0.989779692430382,-0.142604910337682,0.));
#525=DIRECTION('',(0.,0.,1.));
#526=DIRECTION('',(0.,0.,1.));
#527=DIRECTION('',(1.,0.,0.));
#528=DIRECTION('',(0.,0.,1.));
#529=DIRECTION('',(0.811573981965008,-0.584249665637441,0.));
#530=DIRECTION('',(0.584249665637441,0.811573981965008,0.));
#531=DIRECTION('',(0.,0.,-1.));
#532=DIRECTION('',(-0.976296007119934,-0.2164396139381,0.));
#533=DIRECTION('',(0.2164396139381,-0.976296007119934,0.));
#534=DIRECTION('',(0.,0.,1.));
#535=DIRECTION('',(0.,0.,1.));
#536=DIRECTION('',(0.2164396139381,-0.976296007119934,0.));
#537=DIRECTION('',(0.976296007119934,0.2164396139381,0.));
#538=DIRECTION('',(0.,0.,-1.));
#539=DIRECTION('',(-0.2164396139381,0.976296007119934,0.));
#540=DIRECTION('',(-0.976296007119934,-0.2164396139381,0.));
#541=DIRECTION('',(0.,0.,-1.));
#542=DIRECTION('',(0.,0.,1.));
#543=DIRECTION('',(1.,0.,0.));
#544=DIRECTION('',(0.,0.,1.));
#545=DIRECTION('',(1.,0.,0.));
#546=DIRECTION('',(0.,0.,1.));
#547=DIRECTION('',(1.,0.,0.));
#548=DIRECTION('',(0.946629142920687,-0.155061752561556,0.282575863558414));
#549=DIRECTION('',(0.,-1.,0.));
#550=DIRECTION('',(-0.920445135939133,0.150772704371981,-0.360622161468691));
#551=DIRECTION('',(0.161649797532998,0.986848186377996,0.));
#552=DIRECTION('',(-0.986848186377996,0.161649797532998,0.));
#553=DIRECTION('',(0.946629142920687,-0.155061752561556,0.282575863558414));
#554=DIRECTION('',(0.,0.,-1.));
#555=DIRECTION('',(-0.161649797532999,-0.986848186377996,0.));
#556=DIRECTION('',(0.986848186377996,-0.161649797532999,0.));
#557=DIRECTION('',(0.,0.,1.));
#558=DIRECTION('',(0.920445135939133,-0.15077270437198,0.360622161468691));
#559=DIRECTION('',(0.,1.,1.30104260698261E-16));
#560=DIRECTION('',(-0.161649797532998,0.986848186377996,0.));
#561=DIRECTION('',(0.986848186377996,0.161649797532998,0.));
#562=DIRECTION('',(-0.946629142920687,-0.155061752561556,0.282575863558414));
#563=DIRECTION('',(-0.946629142920687,-0.155061752561556,0.282575863558414));
#564=DIRECTION('',(0.920445135939133,0.150772704371981,-0.360622161468691));
#565=DIRECTION('',(0.161649797532999,-0.986848186377996,0.));
#566=DIRECTION('',(-0.986848186377996,-0.161649797532999,0.));
#567=DIRECTION('',(-0.920445135939133,-0.15077270437198,0.360622161468691));
#568=CARTESIAN_POINT('',(0.,0.,0.));
#569=CARTESIAN_POINT('',(0.,0.,-0.0005));
#570=CARTESIAN_POINT('',(0.,0.,0.));
#571=CARTESIAN_POINT('',(0.00335,-0.00995125620210835,2.71050543121376E-20));
#572=CARTESIAN_POINT('',(0.00651562292120914,0.0082338725973028,0.));
#573=CARTESIAN_POINT('',(0.00335,-0.00995125620210835,0.));
#574=CARTESIAN_POINT('',(0.00335,-0.00995125620210835,-0.0005));
#575=CARTESIAN_POINT('',(0.,0.,-0.0005));
#576=CARTESIAN_POINT('',(0.00651562292120914,0.0082338725973028,-0.0005));
#577=CARTESIAN_POINT('',(0.00651562292120914,0.0082338725973028,-0.0005));
#578=CARTESIAN_POINT('',(0.,0.,-0.0005));
#579=CARTESIAN_POINT('',(0.,0.,-0.0005));
#580=CARTESIAN_POINT('',(0.00439592724414307,0.00953550332516332,-0.0005));
#581=CARTESIAN_POINT('',(-0.00335,-0.00995125620210835,-0.0005));
#582=CARTESIAN_POINT('',(-0.00335,-0.00995125620210835,0.));
#583=CARTESIAN_POINT('',(-0.00335,-0.00995125620210835,2.71050543121376E-20));
#584=CARTESIAN_POINT('',(0.,0.,0.));
#585=CARTESIAN_POINT('',(0.00439592724414307,0.00953550332516332,0.));
#586=CARTESIAN_POINT('',(0.00439592724414307,0.00953550332516332,-0.0005));
#587=CARTESIAN_POINT('',(0.,0.,-0.0005));
#588=CARTESIAN_POINT('',(0.00255238095238095,-0.00758190948732065,-0.0005));
#589=CARTESIAN_POINT('',(0.00255238095238095,-0.00758190948732065,-0.0005));
#590=CARTESIAN_POINT('',(0.,0.,-0.0005));
#591=CARTESIAN_POINT('',(-0.00799919075894747,-0.000113785772262406,-0.0005));
#592=CARTESIAN_POINT('',(-0.00789920087446063,-0.000112363450109126,-0.0005));
#593=CARTESIAN_POINT('',(-0.00787755691306682,-0.00020999305082112,-0.0005));
#594=CARTESIAN_POINT('',(-0.00667058346718672,5.75865200822516E-5,-0.0005));
#595=CARTESIAN_POINT('',(-0.00667058346718672,5.75865200822516E-5,-0.0005));
#596=CARTESIAN_POINT('',(-0.00667058346718672,5.75865200822516E-5,-0.0005));
#597=CARTESIAN_POINT('',(-0.00602126462537242,-0.00287130150127755,-0.0005));
#598=CARTESIAN_POINT('',(-0.00602126462537242,-0.00287130150127755,-0.0005));
#599=CARTESIAN_POINT('',(-0.00722823807125252,-0.00313888107218092,-0.0005));
#600=CARTESIAN_POINT('',(-0.00720659410985871,-0.00323651067289292,-0.0005));
#601=CARTESIAN_POINT('',(-0.00729781682011008,-0.0032774791624232,-0.0005));
#602=CARTESIAN_POINT('',(0.,0.,-0.0005));
#603=CARTESIAN_POINT('',(-0.00255238095238095,-0.00758190948732065,-0.0005));
#604=CARTESIAN_POINT('',(-0.00255238095238095,-0.00758190948732065,-0.0005));
#605=CARTESIAN_POINT('',(0.00439592724414307,0.00953550332516332,-0.0005));
#606=CARTESIAN_POINT('',(0.00680659574026715,0.0098828262368908,-0.0005));
#607=CARTESIAN_POINT('',(0.,0.,-0.0005));
#608=CARTESIAN_POINT('',(0.00701099598764929,0.00973888778358009,-0.0005));
#609=CARTESIAN_POINT('',(0.00613462148919313,0.00852152681063258,-0.0005));
#610=CARTESIAN_POINT('',(0.00642010368837946,0.00891808660142166,-0.0005));
#611=CARTESIAN_POINT('',(0.00682589067936196,0.00862596176860294,-0.0005));
#612=CARTESIAN_POINT('',(0.,0.,0.));
#613=CARTESIAN_POINT('',(0.,0.,0.));
#614=CARTESIAN_POINT('',(0.00255238095238095,-0.00758190948732065,0.));
#615=CARTESIAN_POINT('',(-0.00799919075894747,-0.000113785772262406,0.));
#616=CARTESIAN_POINT('',(0.00255238095238095,-0.00758190948732065,0.));
#617=CARTESIAN_POINT('',(0.00682589067936196,0.00862596176860294,0.));
#618=CARTESIAN_POINT('',(0.00642010368837946,0.00891808660142166,0.));
#619=CARTESIAN_POINT('',(0.00613462148919313,0.00852152681063258,0.));
#620=CARTESIAN_POINT('',(0.00701099598764929,0.00973888778358009,0.));
#621=CARTESIAN_POINT('',(0.,0.,0.));
#622=CARTESIAN_POINT('',(0.00680659574026715,0.0098828262368908,0.));
#623=CARTESIAN_POINT('',(0.00439592724414307,0.00953550332516332,0.));
#624=CARTESIAN_POINT('',(-0.00335,-0.00995125620210835,0.));
#625=CARTESIAN_POINT('',(-0.00255238095238095,-0.00758190948732065,0.));
#626=CARTESIAN_POINT('',(0.,0.,0.));
#627=CARTESIAN_POINT('',(-0.00729781682011008,-0.0032774791624232,0.));
#628=CARTESIAN_POINT('',(-0.00720659410985871,-0.00323651067289292,0.));
#629=CARTESIAN_POINT('',(-0.00722823807125252,-0.00313888107218092,0.));
#630=CARTESIAN_POINT('',(-0.00602126462537242,-0.00287130150127755,0.));
#631=CARTESIAN_POINT('',(-0.00602126462537242,-0.00287130150127755,0.));
#632=CARTESIAN_POINT('',(-0.00667058346718672,5.75865200822516E-5,0.));
#633=CARTESIAN_POINT('',(-0.00667058346718672,5.75865200822516E-5,0.));
#634=CARTESIAN_POINT('',(-0.00667058346718672,5.75865200822516E-5,0.));
#635=CARTESIAN_POINT('',(-0.00787755691306682,-0.00020999305082112,0.));
#636=CARTESIAN_POINT('',(-0.00789920087446063,-0.000112363450109126,0.));
#637=CARTESIAN_POINT('',(0.,0.,-0.0005));
#638=CARTESIAN_POINT('',(0.00255238095238095,-0.00758190948732065,0.));
#639=CARTESIAN_POINT('',(-0.00799919075894747,-0.000113785772262406,-0.0005));
#640=CARTESIAN_POINT('',(0.,0.,-0.0005));
#641=CARTESIAN_POINT('',(-0.00255238095238095,-0.00758190948732065,-0.0005));
#642=CARTESIAN_POINT('',(-0.00729781682011008,-0.00327747916242321,-0.0005));
#643=CARTESIAN_POINT('',(0.00439592724414307,0.00953550332516332,-0.0005));
#644=CARTESIAN_POINT('',(0.00680659574026715,0.0098828262368908,-0.0005));
#645=CARTESIAN_POINT('',(0.,0.,-0.0005));
#646=CARTESIAN_POINT('',(0.00701099598764929,0.00973888778358009,-0.0005));
#647=CARTESIAN_POINT('',(0.00613462148919313,0.00852152681063258,-0.0005));
#648=CARTESIAN_POINT('',(0.00642010368837946,0.00891808660142166,-0.0005));
#649=CARTESIAN_POINT('',(-0.00667058346718672,5.75865200822516E-5,-0.0005));
#650=CARTESIAN_POINT('',(-0.00602126462537242,-0.00287130150127755,-0.0005));
#651=CARTESIAN_POINT('',(-0.00667058346718672,5.75865200822516E-5,-0.0005));
#652=CARTESIAN_POINT('',(-0.00667058346718672,5.75865200822516E-5,-0.0005));
#653=CARTESIAN_POINT('',(-0.00787755691306682,-0.00020999305082112,0.));
#654=CARTESIAN_POINT('',(-0.00602126462537242,-0.00287130150127755,-0.0005));
#655=CARTESIAN_POINT('',(-0.00722823807125252,-0.00313888107218092,-0.0005));
#656=CARTESIAN_POINT('',(-0.00789920087446063,-0.000112363450109126,-0.0005));
#657=CARTESIAN_POINT('',(-0.00720659410985871,-0.00323651067289292,-0.0005));
#658=CARTESIAN_POINT('',(0.00682589067936196,0.00862596176860294,-0.0005));
#659=CARTESIAN_POINT('',(-0.00255238095238095,-0.00758190948732065,0.));
#660=CARTESIAN_POINT('',(0.,-0.008,0.001));
#661=CARTESIAN_POINT('',(-0.00268531746031746,-0.00797680060645194,0.));
#662=CARTESIAN_POINT('',(0.,-0.00841666666666663,0.001));
#663=CARTESIAN_POINT('',(-0.00281825396825397,-0.00837169172558323,0.));
#664=CARTESIAN_POINT('',(0.,-0.00883333333333328,0.001));
#665=CARTESIAN_POINT('',(-0.00308412698412699,-0.0091614739638458,0.));
#666=CARTESIAN_POINT('',(0.,-0.00966666666666661,0.001));
#667=CARTESIAN_POINT('',(-0.00321706349206349,-0.00955636508297708,0.));
#668=CARTESIAN_POINT('',(0.,-0.0100833333333333,0.001));
#669=CARTESIAN_POINT('',(-0.00335,-0.00995125620210835,0.));
#670=CARTESIAN_POINT('',(0.,-0.0105,0.001));
#671=CARTESIAN_POINT('',(-0.001675,-0.0102256281010542,0.0005));
#672=CARTESIAN_POINT('',(0.,-0.0105,0.001));
#673=CARTESIAN_POINT('',(0.,-0.008,0.001));
#674=CARTESIAN_POINT('',(0.,-0.008,0.001));
#675=CARTESIAN_POINT('',(-0.00127619047619047,-0.00779095474366032,0.0005));
#676=CARTESIAN_POINT('',(-0.001675,-0.0102256281010542,0.));
#677=CARTESIAN_POINT('',(-0.00335,-0.00995125620210835,-0.0005));
#678=CARTESIAN_POINT('',(0.,-0.0105,0.0005));
#679=CARTESIAN_POINT('',(0.,-0.0105,0.001));
#680=CARTESIAN_POINT('',(-0.00127619047619049,-0.00779095474366032,0.));
#681=CARTESIAN_POINT('',(0.,-0.008,0.001));
#682=CARTESIAN_POINT('',(0.,-0.008,0.0005));
#683=CARTESIAN_POINT('',(-0.00127619047619048,-0.00779095474366033,-5.42101086242752E-20));
#684=CARTESIAN_POINT('',(-0.00335,-0.00995125620210835,-0.0005));
#685=CARTESIAN_POINT('',(0.,-0.0105,0.0005));
#686=CARTESIAN_POINT('',(-0.00321706349206349,-0.00955636508297708,-0.0005));
#687=CARTESIAN_POINT('',(0.,-0.0100833333333332,0.0005));
#688=CARTESIAN_POINT('',(-0.00308412698412699,-0.0091614739638458,-0.0005));
#689=CARTESIAN_POINT('',(0.,-0.00966666666666649,0.0005));
#690=CARTESIAN_POINT('',(-0.00281825396825397,-0.00837169172558323,-0.0005));
#691=CARTESIAN_POINT('',(0.,-0.00883333333333316,0.0005));
#692=CARTESIAN_POINT('',(-0.00268531746031746,-0.00797680060645194,-0.0005));
#693=CARTESIAN_POINT('',(0.,-0.00841666666666655,0.0005));
#694=CARTESIAN_POINT('',(-0.00255238095238095,-0.00758190948732065,-0.0005));
#695=CARTESIAN_POINT('',(0.,-0.008,0.0005));
#696=CARTESIAN_POINT('',(0.,-0.008,0.0005));
#697=CARTESIAN_POINT('',(0.001675,-0.0102256281010542,0.));
#698=CARTESIAN_POINT('',(0.00335,-0.00995125620210835,-0.0005));
#699=CARTESIAN_POINT('',(0.001675,-0.0102256281010542,0.0005));
#700=CARTESIAN_POINT('',(0.00255238095238095,-0.00758190948732065,0.));
#701=CARTESIAN_POINT('',(0.,-0.008,0.001));
#702=CARTESIAN_POINT('',(0.00268531746031746,-0.00797680060645194,0.));
#703=CARTESIAN_POINT('',(0.,-0.00841666666666663,0.001));
#704=CARTESIAN_POINT('',(0.00281825396825397,-0.00837169172558323,0.));
#705=CARTESIAN_POINT('',(0.,-0.00883333333333328,0.001));
#706=CARTESIAN_POINT('',(0.00308412698412699,-0.0091614739638458,0.));
#707=CARTESIAN_POINT('',(0.,-0.00966666666666661,0.001));
#708=CARTESIAN_POINT('',(0.00321706349206349,-0.00955636508297708,0.));
#709=CARTESIAN_POINT('',(0.,-0.0100833333333333,0.001));
#710=CARTESIAN_POINT('',(0.00335,-0.00995125620210835,0.));
#711=CARTESIAN_POINT('',(0.,-0.0105,0.001));
#712=CARTESIAN_POINT('',(0.00127619047619047,-0.00779095474366032,0.0005));
#713=CARTESIAN_POINT('',(0.00127619047619049,-0.00779095474366032,0.));
#714=CARTESIAN_POINT('',(0.00127619047619048,-0.00779095474366033,-5.42101086242752E-20));
#715=CARTESIAN_POINT('',(0.00335,-0.00995125620210835,-0.0005));
#716=CARTESIAN_POINT('',(0.,-0.0105,0.0005));
#717=CARTESIAN_POINT('',(0.00321706349206349,-0.00955636508297708,-0.0005));
#718=CARTESIAN_POINT('',(0.,-0.0100833333333332,0.0005));
#719=CARTESIAN_POINT('',(0.00308412698412699,-0.0091614739638458,-0.0005));
#720=CARTESIAN_POINT('',(0.,-0.00966666666666649,0.0005));
#721=CARTESIAN_POINT('',(0.00281825396825397,-0.00837169172558323,-0.0005));
#722=CARTESIAN_POINT('',(0.,-0.00883333333333316,0.0005));
#723=CARTESIAN_POINT('',(0.00268531746031746,-0.00797680060645194,-0.0005));
#724=CARTESIAN_POINT('',(0.,-0.00841666666666655,0.0005));
#725=CARTESIAN_POINT('',(0.00255238095238095,-0.00758190948732065,-0.0005));
#726=CARTESIAN_POINT('',(0.,-0.008,0.0005));
#727=(
GEOMETRIC_REPRESENTATION_CONTEXT(3)
GLOBAL_UNCERTAINTY_ASSIGNED_CONTEXT((#728))
GLOBAL_UNIT_ASSIGNED_CONTEXT((#731,#730,#729))
REPRESENTATION_CONTEXT('id2','TOP_LEVEL_ASSEMBLY_PART')
);
#728=UNCERTAINTY_MEASURE_WITH_UNIT(LENGTH_MEASURE(4.E-8),#731,
'DISTANCE_ACCURACY_VALUE','Maximum Tolerance applied to model');
#729=(
NAMED_UNIT(*)
SI_UNIT($,.STERADIAN.)
SOLID_ANGLE_UNIT()
);
#730=(
NAMED_UNIT(*)
PLANE_ANGLE_UNIT()
SI_UNIT($,.RADIAN.)
);
#731=(
LENGTH_UNIT()
NAMED_UNIT(*)
SI_UNIT($,.METRE.)
);
#732=PRODUCT_DEFINITION_SHAPE('','',#733);
#733=PRODUCT_DEFINITION('','',#735,#734);
#734=DESIGN_CONTEXT('',#741,'design');
#735=PRODUCT_DEFINITION_FORMATION_WITH_SPECIFIED_SOURCE('','',#737,
 .NOT_KNOWN.);
#736=PRODUCT_RELATED_PRODUCT_CATEGORY('','',(#737));
#737=PRODUCT('id2','id2','id2',(#739));
#738=PRODUCT_CATEGORY('','');
#739=MECHANICAL_CONTEXT('',#741,'mechanical');
#740=APPLICATION_PROTOCOL_DEFINITION('international standard',
'config_control_design',2010,#741);
#741=APPLICATION_CONTEXT(
'configuration controlled 3D designs of mechanical parts and assemblie
s');
ENDSEC;
END-ISO-10303-21;
