ISO-10303-21;
HEADER;
/* Generated by software containing ST-Developer
 * from STEP Tools, Inc. (www.steptools.com) 
 */
/* OPTION: using custom renumber hook */

FILE_DESCRIPTION(
/* description */ ('STEP AP203'),
/* implementation_level */ '2;1');

FILE_NAME(
/* name */ '6a5465aa7eb0a855d27597d3',
/* time_stamp */ '2026-07-13T04:12:26Z',
/* author */ (''),
/* organization */ (''),
/* preprocessor_version */ 'ST-DEVELOPER v20',
/* originating_system */ 'ONSHAPE BY PTC INC, 1.217',
/* authorisation */ '  ');

FILE_SCHEMA (('CONFIG_CONTROL_DESIGN'));
ENDSEC;

DATA;
#10=PROPERTY_DEFINITION_REPRESENTATION(#14,#12);
#11=PROPERTY_DEFINITION_REPRESENTATION(#15,#13);
#12=REPRESENTATION('',(#16),#657);
#13=REPRESENTATION('',(#17),#657);
#14=PROPERTY_DEFINITION('pmi validation property','',#662);
#15=PROPERTY_DEFINITION('pmi validation property','',#662);
#16=VALUE_REPRESENTATION_ITEM('number of annotations',COUNT_MEASURE(0.));
#17=VALUE_REPRESENTATION_ITEM('number of views',COUNT_MEASURE(0.));
#18=SHAPE_REPRESENTATION_RELATIONSHIP('','',#380,#19);
#19=ADVANCED_BREP_SHAPE_REPRESENTATION('',(#378),#657);
#20=B_SPLINE_SURFACE_WITH_KNOTS('',3,1,((#588,#589),(#590,#591),(#592,#593),
(#594,#595),(#596,#597),(#598,#599)),.RULED_SURF.,.F.,.F.,.F.,(4,2,4),(2,
2),(0.,0.5,1.),(0.,1.),.UNSPECIFIED.);
#21=B_SPLINE_SURFACE_WITH_KNOTS('',3,1,((#613,#614),(#615,#616),(#617,#618),
(#619,#620),(#621,#622),(#623,#624)),.RULED_SURF.,.F.,.F.,.F.,(4,2,4),(2,
2),(0.,0.5,1.),(0.,1.),.UNSPECIFIED.);
#22=B_SPLINE_SURFACE_WITH_KNOTS('',3,1,((#629,#630),(#631,#632),(#633,#634),
(#635,#636),(#637,#638),(#639,#640)),.RULED_SURF.,.F.,.F.,.F.,(4,2,4),(2,
2),(0.,0.5,1.),(0.,1.),.UNSPECIFIED.);
#23=B_SPLINE_SURFACE_WITH_KNOTS('',3,1,((#644,#645),(#646,#647),(#648,#649),
(#650,#651),(#652,#653),(#654,#655)),.RULED_SURF.,.F.,.F.,.F.,(4,2,4),(2,
2),(0.,0.5,1.),(0.,1.),.UNSPECIFIED.);
#24=PLANE('',#388);
#25=PLANE('',#393);
#26=PLANE('',#400);
#27=PLANE('',#402);
#28=PLANE('',#403);
#29=PLANE('',#404);
#30=PLANE('',#405);
#31=PLANE('',#406);
#32=PLANE('',#407);
#33=PLANE('',#408);
#34=PLANE('',#409);
#35=LINE('',#515,#74);
#36=LINE('',#519,#75);
#37=LINE('',#524,#76);
#38=LINE('',#528,#77);
#39=LINE('',#530,#78);
#40=LINE('',#534,#79);
#41=LINE('',#536,#80);
#42=LINE('',#538,#81);
#43=LINE('',#542,#82);
#44=LINE('',#543,#83);
#45=LINE('',#547,#84);
#46=LINE('',#554,#85);
#47=LINE('',#557,#86);
#48=LINE('',#561,#87);
#49=LINE('',#562,#88);
#50=LINE('',#566,#89);
#51=LINE('',#568,#90);
#52=LINE('',#570,#91);
#53=LINE('',#572,#92);
#54=LINE('',#573,#93);
#55=LINE('',#575,#94);
#56=LINE('',#576,#95);
#57=LINE('',#578,#96);
#58=LINE('',#580,#97);
#59=LINE('',#582,#98);
#60=LINE('',#584,#99);
#61=LINE('',#586,#100);
#62=LINE('',#600,#101);
#63=LINE('',#602,#102);
#64=LINE('',#604,#103);
#65=LINE('',#606,#104);
#66=LINE('',#608,#105);
#67=LINE('',#610,#106);
#68=LINE('',#612,#107);
#69=LINE('',#625,#108);
#70=LINE('',#627,#109);
#71=LINE('',#628,#110);
#72=LINE('',#641,#111);
#73=LINE('',#643,#112);
#74=VECTOR('',#417,1.);
#75=VECTOR('',#420,1.);
#76=VECTOR('',#425,1.);
#77=VECTOR('',#428,1.);
#78=VECTOR('',#431,1.);
#79=VECTOR('',#434,1.);
#80=VECTOR('',#435,1.);
#81=VECTOR('',#436,1.);
#82=VECTOR('',#439,1.);
#83=VECTOR('',#440,1.);
#84=VECTOR('',#443,1.);
#85=VECTOR('',#450,1.);
#86=VECTOR('',#453,1.);
#87=VECTOR('',#456,1.);
#88=VECTOR('',#457,1.);
#89=VECTOR('',#460,1.);
#90=VECTOR('',#461,1.);
#91=VECTOR('',#462,1.);
#92=VECTOR('',#465,1.);
#93=VECTOR('',#466,1.);
#94=VECTOR('',#469,1.);
#95=VECTOR('',#470,1.);
#96=VECTOR('',#473,1.);
#97=VECTOR('',#476,1.);
#98=VECTOR('',#479,1.);
#99=VECTOR('',#482,1.);
#100=VECTOR('',#485,1.);
#101=VECTOR('',#488,1.);
#102=VECTOR('',#489,1.);
#103=VECTOR('',#490,1.);
#104=VECTOR('',#493,1.);
#105=VECTOR('',#494,1.);
#106=VECTOR('',#497,1.);
#107=VECTOR('',#498,1.);
#108=VECTOR('',#499,1.);
#109=VECTOR('',#502,1.);
#110=VECTOR('',#503,1.);
#111=VECTOR('',#504,1.);
#112=VECTOR('',#507,1.);
#113=ORIENTED_EDGE('',*,*,#215,.T.);
#114=ORIENTED_EDGE('',*,*,#216,.T.);
#115=ORIENTED_EDGE('',*,*,#217,.F.);
#116=ORIENTED_EDGE('',*,*,#218,.T.);
#117=ORIENTED_EDGE('',*,*,#219,.T.);
#118=ORIENTED_EDGE('',*,*,#220,.F.);
#119=ORIENTED_EDGE('',*,*,#221,.F.);
#120=ORIENTED_EDGE('',*,*,#222,.F.);
#121=ORIENTED_EDGE('',*,*,#223,.T.);
#122=ORIENTED_EDGE('',*,*,#224,.T.);
#123=ORIENTED_EDGE('',*,*,#225,.F.);
#124=ORIENTED_EDGE('',*,*,#226,.F.);
#125=ORIENTED_EDGE('',*,*,#227,.F.);
#126=ORIENTED_EDGE('',*,*,#228,.T.);
#127=ORIENTED_EDGE('',*,*,#229,.T.);
#128=ORIENTED_EDGE('',*,*,#219,.F.);
#129=ORIENTED_EDGE('',*,*,#230,.F.);
#130=ORIENTED_EDGE('',*,*,#231,.F.);
#131=ORIENTED_EDGE('',*,*,#232,.F.);
#132=ORIENTED_EDGE('',*,*,#233,.T.);
#133=ORIENTED_EDGE('',*,*,#215,.F.);
#134=ORIENTED_EDGE('',*,*,#234,.F.);
#135=ORIENTED_EDGE('',*,*,#235,.F.);
#136=ORIENTED_EDGE('',*,*,#217,.T.);
#137=ORIENTED_EDGE('',*,*,#236,.T.);
#138=ORIENTED_EDGE('',*,*,#237,.T.);
#139=ORIENTED_EDGE('',*,*,#238,.T.);
#140=ORIENTED_EDGE('',*,*,#239,.T.);
#141=ORIENTED_EDGE('',*,*,#221,.T.);
#142=ORIENTED_EDGE('',*,*,#240,.F.);
#143=ORIENTED_EDGE('',*,*,#241,.F.);
#144=ORIENTED_EDGE('',*,*,#242,.T.);
#145=ORIENTED_EDGE('',*,*,#243,.T.);
#146=ORIENTED_EDGE('',*,*,#244,.T.);
#147=ORIENTED_EDGE('',*,*,#245,.F.);
#148=ORIENTED_EDGE('',*,*,#234,.T.);
#149=ORIENTED_EDGE('',*,*,#246,.T.);
#150=ORIENTED_EDGE('',*,*,#224,.F.);
#151=ORIENTED_EDGE('',*,*,#247,.T.);
#152=ORIENTED_EDGE('',*,*,#228,.F.);
#153=ORIENTED_EDGE('',*,*,#248,.T.);
#154=ORIENTED_EDGE('',*,*,#241,.T.);
#155=ORIENTED_EDGE('',*,*,#239,.F.);
#156=ORIENTED_EDGE('',*,*,#249,.F.);
#157=ORIENTED_EDGE('',*,*,#230,.T.);
#158=ORIENTED_EDGE('',*,*,#222,.T.);
#159=ORIENTED_EDGE('',*,*,#238,.F.);
#160=ORIENTED_EDGE('',*,*,#250,.F.);
#161=ORIENTED_EDGE('',*,*,#231,.T.);
#162=ORIENTED_EDGE('',*,*,#249,.T.);
#163=ORIENTED_EDGE('',*,*,#237,.F.);
#164=ORIENTED_EDGE('',*,*,#251,.T.);
#165=ORIENTED_EDGE('',*,*,#232,.T.);
#166=ORIENTED_EDGE('',*,*,#250,.T.);
#167=ORIENTED_EDGE('',*,*,#246,.F.);
#168=ORIENTED_EDGE('',*,*,#244,.F.);
#169=ORIENTED_EDGE('',*,*,#252,.F.);
#170=ORIENTED_EDGE('',*,*,#225,.T.);
#171=ORIENTED_EDGE('',*,*,#248,.F.);
#172=ORIENTED_EDGE('',*,*,#227,.T.);
#173=ORIENTED_EDGE('',*,*,#253,.T.);
#174=ORIENTED_EDGE('',*,*,#242,.F.);
#175=ORIENTED_EDGE('',*,*,#243,.F.);
#176=ORIENTED_EDGE('',*,*,#253,.F.);
#177=ORIENTED_EDGE('',*,*,#226,.T.);
#178=ORIENTED_EDGE('',*,*,#252,.T.);
#179=ORIENTED_EDGE('',*,*,#240,.T.);
#180=ORIENTED_EDGE('',*,*,#254,.T.);
#181=ORIENTED_EDGE('',*,*,#255,.F.);
#182=ORIENTED_EDGE('',*,*,#256,.T.);
#183=ORIENTED_EDGE('',*,*,#257,.T.);
#184=ORIENTED_EDGE('',*,*,#258,.F.);
#185=ORIENTED_EDGE('',*,*,#254,.F.);
#186=ORIENTED_EDGE('',*,*,#220,.T.);
#187=ORIENTED_EDGE('',*,*,#256,.F.);
#188=ORIENTED_EDGE('',*,*,#259,.F.);
#189=ORIENTED_EDGE('',*,*,#260,.F.);
#190=ORIENTED_EDGE('',*,*,#247,.F.);
#191=ORIENTED_EDGE('',*,*,#229,.F.);
#192=ORIENTED_EDGE('',*,*,#260,.T.);
#193=ORIENTED_EDGE('',*,*,#261,.F.);
#194=ORIENTED_EDGE('',*,*,#257,.F.);
#195=ORIENTED_EDGE('',*,*,#262,.F.);
#196=ORIENTED_EDGE('',*,*,#218,.F.);
#197=ORIENTED_EDGE('',*,*,#263,.T.);
#198=ORIENTED_EDGE('',*,*,#258,.T.);
#199=ORIENTED_EDGE('',*,*,#235,.T.);
#200=ORIENTED_EDGE('',*,*,#264,.F.);
#201=ORIENTED_EDGE('',*,*,#255,.T.);
#202=ORIENTED_EDGE('',*,*,#263,.F.);
#203=ORIENTED_EDGE('',*,*,#264,.T.);
#204=ORIENTED_EDGE('',*,*,#245,.T.);
#205=ORIENTED_EDGE('',*,*,#265,.T.);
#206=ORIENTED_EDGE('',*,*,#259,.T.);
#207=ORIENTED_EDGE('',*,*,#223,.F.);
#208=ORIENTED_EDGE('',*,*,#262,.T.);
#209=ORIENTED_EDGE('',*,*,#261,.T.);
#210=ORIENTED_EDGE('',*,*,#265,.F.);
#211=ORIENTED_EDGE('',*,*,#233,.F.);
#212=ORIENTED_EDGE('',*,*,#251,.F.);
#213=ORIENTED_EDGE('',*,*,#236,.F.);
#214=ORIENTED_EDGE('',*,*,#216,.F.);
#215=EDGE_CURVE('',#266,#267,#296,.T.);
#216=EDGE_CURVE('',#267,#268,#35,.T.);
#217=EDGE_CURVE('',#269,#268,#297,.T.);
#218=EDGE_CURVE('',#269,#266,#36,.T.);
#219=EDGE_CURVE('',#270,#271,#298,.T.);
#220=EDGE_CURVE('',#272,#271,#37,.F.);
#221=EDGE_CURVE('',#273,#272,#299,.T.);
#222=EDGE_CURVE('',#270,#273,#38,.T.);
#223=EDGE_CURVE('',#266,#274,#39,.T.);
#224=EDGE_CURVE('',#274,#275,#300,.T.);
#225=EDGE_CURVE('',#276,#275,#40,.T.);
#226=EDGE_CURVE('',#277,#276,#41,.T.);
#227=EDGE_CURVE('',#278,#277,#42,.T.);
#228=EDGE_CURVE('',#278,#279,#301,.T.);
#229=EDGE_CURVE('',#279,#271,#43,.T.);
#230=EDGE_CURVE('',#280,#270,#44,.T.);
#231=EDGE_CURVE('',#281,#280,#302,.T.);
#232=EDGE_CURVE('',#282,#281,#45,.T.);
#233=EDGE_CURVE('',#282,#267,#303,.T.);
#234=EDGE_CURVE('',#283,#284,#304,.T.);
#235=EDGE_CURVE('',#269,#283,#46,.T.);
#236=EDGE_CURVE('',#268,#285,#305,.F.);
#237=EDGE_CURVE('',#285,#286,#47,.T.);
#238=EDGE_CURVE('',#286,#287,#306,.T.);
#239=EDGE_CURVE('',#287,#273,#48,.T.);
#240=EDGE_CURVE('',#288,#272,#49,.F.);
#241=EDGE_CURVE('',#289,#288,#307,.T.);
#242=EDGE_CURVE('',#289,#290,#50,.T.);
#243=EDGE_CURVE('',#290,#291,#51,.T.);
#244=EDGE_CURVE('',#291,#284,#52,.T.);
#245=EDGE_CURVE('',#283,#274,#53,.T.);
#246=EDGE_CURVE('',#284,#275,#54,.F.);
#247=EDGE_CURVE('',#288,#279,#55,.F.);
#248=EDGE_CURVE('',#278,#289,#56,.T.);
#249=EDGE_CURVE('',#280,#287,#57,.T.);
#250=EDGE_CURVE('',#281,#286,#58,.T.);
#251=EDGE_CURVE('',#285,#282,#59,.T.);
#252=EDGE_CURVE('',#276,#291,#60,.T.);
#253=EDGE_CURVE('',#277,#290,#61,.T.);
#254=EDGE_CURVE('',#272,#292,#62,.T.);
#255=EDGE_CURVE('',#293,#292,#63,.T.);
#256=EDGE_CURVE('',#293,#288,#64,.T.);
#257=EDGE_CURVE('',#271,#294,#65,.T.);
#258=EDGE_CURVE('',#292,#294,#66,.T.);
#259=EDGE_CURVE('',#295,#293,#67,.T.);
#260=EDGE_CURVE('',#279,#295,#68,.T.);
#261=EDGE_CURVE('',#294,#295,#69,.T.);
#262=EDGE_CURVE('',#266,#294,#70,.T.);
#263=EDGE_CURVE('',#269,#292,#71,.T.);
#264=EDGE_CURVE('',#293,#283,#72,.T.);
#265=EDGE_CURVE('',#274,#295,#73,.T.);
#266=VERTEX_POINT('',#513);
#267=VERTEX_POINT('',#514);
#268=VERTEX_POINT('',#516);
#269=VERTEX_POINT('',#518);
#270=VERTEX_POINT('',#522);
#271=VERTEX_POINT('',#523);
#272=VERTEX_POINT('',#525);
#273=VERTEX_POINT('',#527);
#274=VERTEX_POINT('',#531);
#275=VERTEX_POINT('',#533);
#276=VERTEX_POINT('',#535);
#277=VERTEX_POINT('',#537);
#278=VERTEX_POINT('',#539);
#279=VERTEX_POINT('',#541);
#280=VERTEX_POINT('',#544);
#281=VERTEX_POINT('',#546);
#282=VERTEX_POINT('',#548);
#283=VERTEX_POINT('',#552);
#284=VERTEX_POINT('',#553);
#285=VERTEX_POINT('',#556);
#286=VERTEX_POINT('',#558);
#287=VERTEX_POINT('',#560);
#288=VERTEX_POINT('',#563);
#289=VERTEX_POINT('',#565);
#290=VERTEX_POINT('',#567);
#291=VERTEX_POINT('',#569);
#292=VERTEX_POINT('',#601);
#293=VERTEX_POINT('',#603);
#294=VERTEX_POINT('',#607);
#295=VERTEX_POINT('',#611);
#296=CIRCLE('',#383,0.0105);
#297=CIRCLE('',#384,0.0105);
#298=CIRCLE('',#386,0.0105);
#299=CIRCLE('',#387,0.0105);
#300=CIRCLE('',#389,0.008);
#301=CIRCLE('',#390,0.008);
#302=CIRCLE('',#391,0.012);
#303=CIRCLE('',#392,0.0005);
#304=CIRCLE('',#394,0.008);
#305=CIRCLE('',#395,0.0005);
#306=CIRCLE('',#396,0.012);
#307=CIRCLE('',#397,0.008);
#308=EDGE_LOOP('',(#113,#114,#115,#116));
#309=EDGE_LOOP('',(#117,#118,#119,#120));
#310=EDGE_LOOP('',(#121,#122,#123,#124,#125,#126,#127,#128,#129,#130,#131,
#132,#133));
#311=EDGE_LOOP('',(#134,#135,#136,#137,#138,#139,#140,#141,#142,#143,#144,
#145,#146));
#312=EDGE_LOOP('',(#147,#148,#149,#150));
#313=EDGE_LOOP('',(#151,#152,#153,#154));
#314=EDGE_LOOP('',(#155,#156,#157,#158));
#315=EDGE_LOOP('',(#159,#160,#161,#162));
#316=EDGE_LOOP('',(#163,#164,#165,#166));
#317=EDGE_LOOP('',(#167,#168,#169,#170));
#318=EDGE_LOOP('',(#171,#172,#173,#174));
#319=EDGE_LOOP('',(#175,#176,#177,#178));
#320=EDGE_LOOP('',(#179,#180,#181,#182));
#321=EDGE_LOOP('',(#183,#184,#185,#186));
#322=EDGE_LOOP('',(#187,#188,#189,#190));
#323=EDGE_LOOP('',(#191,#192,#193,#194));
#324=EDGE_LOOP('',(#195,#196,#197,#198));
#325=EDGE_LOOP('',(#199,#200,#201,#202));
#326=EDGE_LOOP('',(#203,#204,#205,#206));
#327=EDGE_LOOP('',(#207,#208,#209,#210));
#328=EDGE_LOOP('',(#211,#212,#213,#214));
#329=FACE_BOUND('',#308,.T.);
#330=FACE_BOUND('',#309,.T.);
#331=FACE_BOUND('',#310,.T.);
#332=FACE_BOUND('',#311,.T.);
#333=FACE_BOUND('',#312,.T.);
#334=FACE_BOUND('',#313,.T.);
#335=FACE_BOUND('',#314,.T.);
#336=FACE_BOUND('',#315,.T.);
#337=FACE_BOUND('',#316,.T.);
#338=FACE_BOUND('',#317,.T.);
#339=FACE_BOUND('',#318,.T.);
#340=FACE_BOUND('',#319,.T.);
#341=FACE_BOUND('',#320,.T.);
#342=FACE_BOUND('',#321,.T.);
#343=FACE_BOUND('',#322,.T.);
#344=FACE_BOUND('',#323,.T.);
#345=FACE_BOUND('',#324,.T.);
#346=FACE_BOUND('',#325,.T.);
#347=FACE_BOUND('',#326,.T.);
#348=FACE_BOUND('',#327,.T.);
#349=FACE_BOUND('',#328,.T.);
#350=CYLINDRICAL_SURFACE('',#382,0.0105);
#351=CYLINDRICAL_SURFACE('',#385,0.0105);
#352=CYLINDRICAL_SURFACE('',#398,0.008);
#353=CYLINDRICAL_SURFACE('',#399,0.008);
#354=CYLINDRICAL_SURFACE('',#401,0.012);
#355=CYLINDRICAL_SURFACE('',#410,0.0005);
#356=ADVANCED_FACE('',(#329),#350,.T.);
#357=ADVANCED_FACE('',(#330),#351,.T.);
#358=ADVANCED_FACE('',(#331),#24,.F.);
#359=ADVANCED_FACE('',(#332),#25,.T.);
#360=ADVANCED_FACE('',(#333),#352,.F.);
#361=ADVANCED_FACE('',(#334),#353,.F.);
#362=ADVANCED_FACE('',(#335),#26,.T.);
#363=ADVANCED_FACE('',(#336),#354,.T.);
#364=ADVANCED_FACE('',(#337),#27,.T.);
#365=ADVANCED_FACE('',(#338),#28,.T.);
#366=ADVANCED_FACE('',(#339),#29,.T.);
#367=ADVANCED_FACE('',(#340),#30,.T.);
#368=ADVANCED_FACE('',(#341),#20,.T.);
#369=ADVANCED_FACE('',(#342),#31,.F.);
#370=ADVANCED_FACE('',(#343),#32,.F.);
#371=ADVANCED_FACE('',(#344),#21,.T.);
#372=ADVANCED_FACE('',(#345),#33,.F.);
#373=ADVANCED_FACE('',(#346),#22,.F.);
#374=ADVANCED_FACE('',(#347),#34,.F.);
#375=ADVANCED_FACE('',(#348),#23,.F.);
#376=ADVANCED_FACE('',(#349),#355,.F.);
#377=CLOSED_SHELL('',(#356,#357,#358,#359,#360,#361,#362,#363,#364,#365,
#366,#367,#368,#369,#370,#371,#372,#373,#374,#375,#376));
#378=MANIFOLD_SOLID_BREP('',#377);
#379=SHAPE_DEFINITION_REPRESENTATION(#662,#380);
#380=SHAPE_REPRESENTATION('id2',(#381),#657);
#381=AXIS2_PLACEMENT_3D('',#510,#411,#412);
#382=AXIS2_PLACEMENT_3D('',#511,#413,#414);
#383=AXIS2_PLACEMENT_3D('',#512,#415,#416);
#384=AXIS2_PLACEMENT_3D('',#517,#418,#419);
#385=AXIS2_PLACEMENT_3D('',#520,#421,#422);
#386=AXIS2_PLACEMENT_3D('',#521,#423,#424);
#387=AXIS2_PLACEMENT_3D('',#526,#426,#427);
#388=AXIS2_PLACEMENT_3D('',#529,#429,#430);
#389=AXIS2_PLACEMENT_3D('',#532,#432,#433);
#390=AXIS2_PLACEMENT_3D('',#540,#437,#438);
#391=AXIS2_PLACEMENT_3D('',#545,#441,#442);
#392=AXIS2_PLACEMENT_3D('',#549,#444,#445);
#393=AXIS2_PLACEMENT_3D('',#550,#446,#447);
#394=AXIS2_PLACEMENT_3D('',#551,#448,#449);
#395=AXIS2_PLACEMENT_3D('',#555,#451,#452);
#396=AXIS2_PLACEMENT_3D('',#559,#454,#455);
#397=AXIS2_PLACEMENT_3D('',#564,#458,#459);
#398=AXIS2_PLACEMENT_3D('',#571,#463,#464);
#399=AXIS2_PLACEMENT_3D('',#574,#467,#468);
#400=AXIS2_PLACEMENT_3D('',#577,#471,#472);
#401=AXIS2_PLACEMENT_3D('',#579,#474,#475);
#402=AXIS2_PLACEMENT_3D('',#581,#477,#478);
#403=AXIS2_PLACEMENT_3D('',#583,#480,#481);
#404=AXIS2_PLACEMENT_3D('',#585,#483,#484);
#405=AXIS2_PLACEMENT_3D('',#587,#486,#487);
#406=AXIS2_PLACEMENT_3D('',#605,#491,#492);
#407=AXIS2_PLACEMENT_3D('',#609,#495,#496);
#408=AXIS2_PLACEMENT_3D('',#626,#500,#501);
#409=AXIS2_PLACEMENT_3D('',#642,#505,#506);
#410=AXIS2_PLACEMENT_3D('',#656,#508,#509);
#411=DIRECTION('',(0.,0.,1.));
#412=DIRECTION('',(1.,0.,0.));
#413=DIRECTION('',(0.,0.,1.));
#414=DIRECTION('',(1.,0.,0.));
#415=DIRECTION('',(0.,0.,1.));
#416=DIRECTION('',(1.,0.,0.));
#417=DIRECTION('',(0.,0.,1.));
#418=DIRECTION('',(0.,0.,1.));
#419=DIRECTION('',(1.,0.,0.));
#420=DIRECTION('',(0.,0.,-1.));
#421=DIRECTION('',(0.,0.,1.));
#422=DIRECTION('',(1.,0.,0.));
#423=DIRECTION('',(0.,0.,1.));
#424=DIRECTION('',(1.,0.,0.));
#425=DIRECTION('',(0.,0.,1.));
#426=DIRECTION('',(0.,0.,1.));
#427=DIRECTION('',(1.,0.,0.));
#428=DIRECTION('',(0.,0.,1.));
#429=DIRECTION('',(0.,0.,1.));
#430=DIRECTION('',(1.,0.,0.));
#431=DIRECTION('',(-0.319047619047619,0.947738685915081,0.));
#432=DIRECTION('',(0.,0.,1.));
#433=DIRECTION('',(1.,0.,0.));
#434=DIRECTION('',(0.976296007119932,0.216439613938107,0.));
#435=DIRECTION('',(0.216439613938107,-0.976296007119932,0.));
#436=DIRECTION('',(-0.976296007119932,-0.216439613938107,0.));
#437=DIRECTION('',(0.,0.,1.));
#438=DIRECTION('',(1.,0.,0.));
#439=DIRECTION('',(-0.319047619047619,-0.947738685915082,0.));
#440=DIRECTION('',(-0.992655061391107,-0.120979044030846,0.));
#441=DIRECTION('',(0.,0.,1.));
#442=DIRECTION('',(1.,0.,0.));
#443=DIRECTION('',(0.601815023152048,0.798635510047293,0.));
#444=DIRECTION('',(0.,0.,1.));
#445=DIRECTION('',(1.,0.,0.));
#446=DIRECTION('',(0.,0.,1.));
#447=DIRECTION('',(1.,0.,0.));
#448=DIRECTION('',(0.,0.,1.));
#449=DIRECTION('',(1.,0.,0.));
#450=DIRECTION('',(-0.319047619047619,0.947738685915081,0.));
#451=DIRECTION('',(0.,0.,1.));
#452=DIRECTION('',(1.,0.,0.));
#453=DIRECTION('',(0.601815023152048,0.798635510047293,0.));
#454=DIRECTION('',(0.,0.,1.));
#455=DIRECTION('',(1.,0.,0.));
#456=DIRECTION('',(-0.992655061391107,-0.120979044030846,0.));
#457=DIRECTION('',(0.319047619047619,0.947738685915082,0.));
#458=DIRECTION('',(0.,0.,1.));
#459=DIRECTION('',(1.,0.,0.));
#460=DIRECTION('',(-0.976296007119932,-0.216439613938107,0.));
#461=DIRECTION('',(0.216439613938107,-0.976296007119932,0.));
#462=DIRECTION('',(0.976296007119932,0.216439613938107,0.));
#463=DIRECTION('',(0.,0.,1.));
#464=DIRECTION('',(1.,0.,0.));
#465=DIRECTION('',(0.,0.,-1.));
#466=DIRECTION('',(0.,0.,1.));
#467=DIRECTION('',(0.,0.,1.));
#468=DIRECTION('',(1.,0.,0.));
#469=DIRECTION('',(0.,0.,1.));
#470=DIRECTION('',(0.,0.,1.));
#471=DIRECTION('',(-0.120979044030846,0.992655061391107,0.));
#472=DIRECTION('',(-0.992655061391107,-0.120979044030846,0.));
#473=DIRECTION('',(0.,0.,1.));
#474=DIRECTION('',(0.,0.,1.));
#475=DIRECTION('',(1.,0.,0.));
#476=DIRECTION('',(0.,0.,1.));
#477=DIRECTION('',(0.798635510047293,-0.601815023152048,0.));
#478=DIRECTION('',(0.601815023152048,0.798635510047293,0.));
#479=DIRECTION('',(0.,0.,-1.));
#480=DIRECTION('',(0.216439613938107,-0.976296007119932,0.));
#481=DIRECTION('',(0.976296007119932,0.216439613938107,0.));
#482=DIRECTION('',(0.,0.,1.));
#483=DIRECTION('',(-0.216439613938107,0.976296007119932,0.));
#484=DIRECTION('',(-0.976296007119932,-0.216439613938107,0.));
#485=DIRECTION('',(0.,0.,1.));
#486=DIRECTION('',(-0.976296007119933,-0.216439613938107,0.));
#487=DIRECTION('',(0.216439613938107,-0.976296007119932,0.));
#488=DIRECTION('',(0.946629142920687,-0.155061752561556,0.282575863558414));
#489=DIRECTION('',(0.,-1.,0.));
#490=DIRECTION('',(-0.920445135939133,0.150772704371981,-0.36062216146869));
#491=DIRECTION('',(0.161649797532998,0.986848186377996,0.));
#492=DIRECTION('',(-0.986848186377996,0.161649797532998,0.));
#493=DIRECTION('',(0.946629142920687,-0.155061752561556,0.282575863558414));
#494=DIRECTION('',(0.,0.,-1.));
#495=DIRECTION('',(-0.161649797533001,-0.986848186377996,3.42381743227009E-15));
#496=DIRECTION('',(0.986848186377996,-0.161649797533001,0.));
#497=DIRECTION('',(0.,3.46944695195361E-15,1.));
#498=DIRECTION('',(0.920445135939133,-0.150772704371981,0.36062216146869));
#499=DIRECTION('',(0.,1.,1.30104260698261E-16));
#500=DIRECTION('',(-0.161649797532998,0.986848186377996,0.));
#501=DIRECTION('',(0.986848186377996,0.161649797532998,0.));
#502=DIRECTION('',(-0.946629142920687,-0.155061752561556,0.282575863558414));
#503=DIRECTION('',(-0.946629142920687,-0.155061752561556,0.282575863558414));
#504=DIRECTION('',(0.920445135939133,0.150772704371981,-0.36062216146869));
#505=DIRECTION('',(0.161649797533001,-0.986848186377996,3.42381743227009E-15));
#506=DIRECTION('',(-0.986848186377996,-0.161649797533001,0.));
#507=DIRECTION('',(-0.920445135939133,-0.150772704371981,0.36062216146869));
#508=DIRECTION('',(0.,0.,1.));
#509=DIRECTION('',(1.,0.,0.));
#510=CARTESIAN_POINT('',(0.,0.,0.));
#511=CARTESIAN_POINT('',(0.,0.,-0.0005));
#512=CARTESIAN_POINT('',(0.,0.,-0.0005));
#513=CARTESIAN_POINT('',(0.00335,-0.00995125620210835,-0.0005));
#514=CARTESIAN_POINT('',(0.0066936933634957,0.00808977559364249,-0.0005));
#515=CARTESIAN_POINT('',(0.0066936933634957,0.00808977559364249,-0.0005));
#516=CARTESIAN_POINT('',(0.0066936933634957,0.00808977559364249,0.));
#517=CARTESIAN_POINT('',(0.,0.,0.));
#518=CARTESIAN_POINT('',(0.00335,-0.00995125620210835,0.));
#519=CARTESIAN_POINT('',(0.00335,-0.00995125620210835,0.));
#520=CARTESIAN_POINT('',(0.,0.,-0.0005));
#521=CARTESIAN_POINT('',(0.,0.,-0.0005));
#522=CARTESIAN_POINT('',(0.00460289704128531,0.00943733748614125,-0.0005));
#523=CARTESIAN_POINT('',(-0.00335,-0.00995125620210835,-0.0005));
#524=CARTESIAN_POINT('',(-0.00335,-0.00995125620210835,0.));
#525=CARTESIAN_POINT('',(-0.00335,-0.00995125620210835,0.));
#526=CARTESIAN_POINT('',(0.,0.,0.));
#527=CARTESIAN_POINT('',(0.00460289704128531,0.00943733748614125,0.));
#528=CARTESIAN_POINT('',(0.00460289704128531,0.00943733748614125,-0.0005));
#529=CARTESIAN_POINT('',(0.,0.,-0.0005));
#530=CARTESIAN_POINT('',(0.00255238095238095,-0.00758190948732065,-0.0005));
#531=CARTESIAN_POINT('',(0.00255238095238095,-0.00758190948732065,-0.0005));
#532=CARTESIAN_POINT('',(0.,0.,-0.0005));
#533=CARTESIAN_POINT('',(0.00799650749844079,0.000236363760716841,-0.0005));
#534=CARTESIAN_POINT('',(0.00667058346718672,-5.75865200822017E-5,-0.0005));
#535=CARTESIAN_POINT('',(0.00667058346718672,-5.75865200822017E-5,-0.0005));
#536=CARTESIAN_POINT('',(0.0060212646253724,0.0028713015012776,-0.0005));
#537=CARTESIAN_POINT('',(0.0060212646253724,0.0028713015012776,-0.0005));
#538=CARTESIAN_POINT('',(0.0060212646253724,0.0028713015012776,-0.0005));
#539=CARTESIAN_POINT('',(0.00734718865662647,0.00316525178207664,-0.0005));
#540=CARTESIAN_POINT('',(0.,0.,-0.0005));
#541=CARTESIAN_POINT('',(-0.00255238095238095,-0.00758190948732065,-0.0005));
#542=CARTESIAN_POINT('',(-0.00255238095238095,-0.00758190948732065,-0.0005));
#543=CARTESIAN_POINT('',(0.00460289704128531,0.00943733748614125,-0.0005));
#544=CARTESIAN_POINT('',(0.0070205686729772,0.00973198928832185,-0.0005));
#545=CARTESIAN_POINT('',(0.,0.,-0.0005));
#546=CARTESIAN_POINT('',(0.00722178027782459,0.00958362612056751,-0.0005));
#547=CARTESIAN_POINT('',(0.00631905774309651,0.00838567285549657,-0.0005));
#548=CARTESIAN_POINT('',(0.00661312291149565,0.00877591051443959,-0.0005));
#549=CARTESIAN_POINT('',(0.0070124406665193,0.00847500300286356,-0.0005));
#550=CARTESIAN_POINT('',(0.,0.,0.));
#551=CARTESIAN_POINT('',(0.,0.,0.));
#552=CARTESIAN_POINT('',(0.00255238095238095,-0.00758190948732065,5.6920614055489E-19));
#553=CARTESIAN_POINT('',(0.00799650749844079,0.000236363760716841,0.));
#554=CARTESIAN_POINT('',(0.00255238095238095,-0.00758190948732065,0.));
#555=CARTESIAN_POINT('',(0.0070124406665193,0.00847500300286356,0.));
#556=CARTESIAN_POINT('',(0.00661312291149565,0.00877591051443959,0.));
#557=CARTESIAN_POINT('',(0.00631905774309651,0.00838567285549657,0.));
#558=CARTESIAN_POINT('',(0.00722178027782459,0.00958362612056751,0.));
#559=CARTESIAN_POINT('',(0.,0.,0.));
#560=CARTESIAN_POINT('',(0.0070205686729772,0.00973198928832185,0.));
#561=CARTESIAN_POINT('',(0.00460289704128531,0.00943733748614125,0.));
#562=CARTESIAN_POINT('',(-0.00335,-0.00995125620210835,0.));
#563=CARTESIAN_POINT('',(-0.00255238095238095,-0.00758190948732065,5.6920614055489E-19));
#564=CARTESIAN_POINT('',(0.,0.,0.));
#565=CARTESIAN_POINT('',(0.00734718865662646,0.00316525178207664,0.));
#566=CARTESIAN_POINT('',(0.0060212646253724,0.0028713015012776,0.));
#567=CARTESIAN_POINT('',(0.0060212646253724,0.0028713015012776,0.));
#568=CARTESIAN_POINT('',(0.0060212646253724,0.0028713015012776,0.));
#569=CARTESIAN_POINT('',(0.00667058346718672,-5.75865200822017E-5,0.));
#570=CARTESIAN_POINT('',(0.00667058346718672,-5.75865200822017E-5,0.));
#571=CARTESIAN_POINT('',(0.,0.,-0.0005));
#572=CARTESIAN_POINT('',(0.00255238095238095,-0.00758190948732065,0.));
#573=CARTESIAN_POINT('',(0.00799650749844079,0.000236363760716841,-0.0005));
#574=CARTESIAN_POINT('',(0.,0.,-0.0005));
#575=CARTESIAN_POINT('',(-0.00255238095238095,-0.00758190948732065,-0.0005));
#576=CARTESIAN_POINT('',(0.00734718865662647,0.00316525178207664,-0.0005));
#577=CARTESIAN_POINT('',(0.00460289704128531,0.00943733748614125,-0.0005));
#578=CARTESIAN_POINT('',(0.0070205686729772,0.00973198928832185,-0.0005));
#579=CARTESIAN_POINT('',(0.,0.,-0.0005));
#580=CARTESIAN_POINT('',(0.00722178027782459,0.00958362612056751,-0.0005));
#581=CARTESIAN_POINT('',(0.00631905774309651,0.00838567285549657,-0.0005));
#582=CARTESIAN_POINT('',(0.00661312291149565,0.00877591051443959,-0.0005));
#583=CARTESIAN_POINT('',(0.00667058346718672,-5.75865200822017E-5,-0.0005));
#584=CARTESIAN_POINT('',(0.00667058346718672,-5.75865200822017E-5,-0.0005));
#585=CARTESIAN_POINT('',(0.0060212646253724,0.0028713015012776,-0.0005));
#586=CARTESIAN_POINT('',(0.0060212646253724,0.0028713015012776,-0.0005));
#587=CARTESIAN_POINT('',(0.0060212646253724,0.0028713015012776,-0.0005));
#588=CARTESIAN_POINT('',(-0.00255238095238095,-0.00758190948732065,0.));
#589=CARTESIAN_POINT('',(0.,-0.008,0.001));
#590=CARTESIAN_POINT('',(-0.00268531746031746,-0.00797680060645193,0.));
#591=CARTESIAN_POINT('',(0.,-0.00841666666666663,0.001));
#592=CARTESIAN_POINT('',(-0.00281825396825396,-0.00837169172558321,0.));
#593=CARTESIAN_POINT('',(0.,-0.00883333333333328,0.001));
#594=CARTESIAN_POINT('',(-0.00308412698412698,-0.00916147396384578,0.));
#595=CARTESIAN_POINT('',(0.,-0.00966666666666661,0.001));
#596=CARTESIAN_POINT('',(-0.00321706349206349,-0.00955636508297707,0.));
#597=CARTESIAN_POINT('',(0.,-0.0100833333333333,0.001));
#598=CARTESIAN_POINT('',(-0.00335,-0.00995125620210835,0.));
#599=CARTESIAN_POINT('',(0.,-0.0105,0.001));
#600=CARTESIAN_POINT('',(-0.001675,-0.0102256281010542,0.0005));
#601=CARTESIAN_POINT('',(0.,-0.0105,0.001));
#602=CARTESIAN_POINT('',(0.,-0.008,0.001));
#603=CARTESIAN_POINT('',(0.,-0.008,0.001));
#604=CARTESIAN_POINT('',(-0.00127619047619048,-0.00779095474366032,0.0005));
#605=CARTESIAN_POINT('',(-0.001675,-0.0102256281010542,0.));
#606=CARTESIAN_POINT('',(-0.00335,-0.00995125620210835,-0.0005));
#607=CARTESIAN_POINT('',(0.,-0.0105,0.0005));
#608=CARTESIAN_POINT('',(0.,-0.0105,0.001));
#609=CARTESIAN_POINT('',(-0.0012761904761905,-0.00779095474366032,2.70303041882009E-17));
#610=CARTESIAN_POINT('',(0.,-0.008,0.001));
#611=CARTESIAN_POINT('',(0.,-0.008,0.0005));
#612=CARTESIAN_POINT('',(-0.00127619047619048,-0.00779095474366033,0.));
#613=CARTESIAN_POINT('',(-0.00335,-0.00995125620210835,-0.0005));
#614=CARTESIAN_POINT('',(0.,-0.0105,0.0005));
#615=CARTESIAN_POINT('',(-0.00321706349206349,-0.00955636508297706,-0.0005));
#616=CARTESIAN_POINT('',(0.,-0.0100833333333333,0.0005));
#617=CARTESIAN_POINT('',(-0.00308412698412698,-0.00916147396384577,-0.0005));
#618=CARTESIAN_POINT('',(0.,-0.00966666666666667,0.0005));
#619=CARTESIAN_POINT('',(-0.00281825396825396,-0.00837169172558321,-0.0005));
#620=CARTESIAN_POINT('',(0.,-0.00883333333333334,0.0005));
#621=CARTESIAN_POINT('',(-0.00268531746031746,-0.00797680060645193,-0.0005));
#622=CARTESIAN_POINT('',(0.,-0.00841666666666667,0.0005));
#623=CARTESIAN_POINT('',(-0.00255238095238095,-0.00758190948732065,-0.0005));
#624=CARTESIAN_POINT('',(0.,-0.008,0.0005));
#625=CARTESIAN_POINT('',(0.,-0.008,0.0005));
#626=CARTESIAN_POINT('',(0.001675,-0.0102256281010542,0.));
#627=CARTESIAN_POINT('',(0.00335,-0.00995125620210835,-0.0005));
#628=CARTESIAN_POINT('',(0.001675,-0.0102256281010542,0.0005));
#629=CARTESIAN_POINT('',(0.00255238095238095,-0.00758190948732065,0.));
#630=CARTESIAN_POINT('',(0.,-0.008,0.001));
#631=CARTESIAN_POINT('',(0.00268531746031746,-0.00797680060645193,0.));
#632=CARTESIAN_POINT('',(0.,-0.00841666666666663,0.001));
#633=CARTESIAN_POINT('',(0.00281825396825396,-0.00837169172558321,0.));
#634=CARTESIAN_POINT('',(0.,-0.00883333333333328,0.001));
#635=CARTESIAN_POINT('',(0.00308412698412698,-0.00916147396384578,0.));
#636=CARTESIAN_POINT('',(0.,-0.00966666666666661,0.001));
#637=CARTESIAN_POINT('',(0.00321706349206349,-0.00955636508297707,0.));
#638=CARTESIAN_POINT('',(0.,-0.0100833333333333,0.001));
#639=CARTESIAN_POINT('',(0.00335,-0.00995125620210835,0.));
#640=CARTESIAN_POINT('',(0.,-0.0105,0.001));
#641=CARTESIAN_POINT('',(0.00127619047619048,-0.00779095474366032,0.0005));
#642=CARTESIAN_POINT('',(0.0012761904761905,-0.00779095474366032,2.70303041882009E-17));
#643=CARTESIAN_POINT('',(0.00127619047619048,-0.00779095474366033,0.));
#644=CARTESIAN_POINT('',(0.00335,-0.00995125620210835,-0.0005));
#645=CARTESIAN_POINT('',(0.,-0.0105,0.0005));
#646=CARTESIAN_POINT('',(0.00321706349206349,-0.00955636508297706,-0.0005));
#647=CARTESIAN_POINT('',(0.,-0.0100833333333333,0.0005));
#648=CARTESIAN_POINT('',(0.00308412698412698,-0.00916147396384577,-0.0005));
#649=CARTESIAN_POINT('',(0.,-0.00966666666666667,0.0005));
#650=CARTESIAN_POINT('',(0.00281825396825396,-0.00837169172558321,-0.0005));
#651=CARTESIAN_POINT('',(0.,-0.00883333333333334,0.0005));
#652=CARTESIAN_POINT('',(0.00268531746031746,-0.00797680060645193,-0.0005));
#653=CARTESIAN_POINT('',(0.,-0.00841666666666667,0.0005));
#654=CARTESIAN_POINT('',(0.00255238095238095,-0.00758190948732065,-0.0005));
#655=CARTESIAN_POINT('',(0.,-0.008,0.0005));
#656=CARTESIAN_POINT('',(0.0070124406665193,0.00847500300286356,-0.0005));
#657=(
GEOMETRIC_REPRESENTATION_CONTEXT(3)
GLOBAL_UNCERTAINTY_ASSIGNED_CONTEXT((#658))
GLOBAL_UNIT_ASSIGNED_CONTEXT((#661,#660,#659))
REPRESENTATION_CONTEXT('id2','TOP_LEVEL_ASSEMBLY_PART')
);
#658=UNCERTAINTY_MEASURE_WITH_UNIT(LENGTH_MEASURE(4.E-8),#661,
'DISTANCE_ACCURACY_VALUE','Maximum Tolerance applied to model');
#659=(
NAMED_UNIT(*)
SI_UNIT($,.STERADIAN.)
SOLID_ANGLE_UNIT()
);
#660=(
NAMED_UNIT(*)
PLANE_ANGLE_UNIT()
SI_UNIT($,.RADIAN.)
);
#661=(
LENGTH_UNIT()
NAMED_UNIT(*)
SI_UNIT($,.METRE.)
);
#662=PRODUCT_DEFINITION_SHAPE('','',#663);
#663=PRODUCT_DEFINITION('','',#665,#664);
#664=DESIGN_CONTEXT('',#671,'design');
#665=PRODUCT_DEFINITION_FORMATION_WITH_SPECIFIED_SOURCE('','',#667,
 .NOT_KNOWN.);
#666=PRODUCT_RELATED_PRODUCT_CATEGORY('','',(#667));
#667=PRODUCT('id2','id2','id2',(#669));
#668=PRODUCT_CATEGORY('','');
#669=MECHANICAL_CONTEXT('',#671,'mechanical');
#670=APPLICATION_PROTOCOL_DEFINITION('international standard',
'config_control_design',2010,#671);
#671=APPLICATION_CONTEXT(
'configuration controlled 3D designs of mechanical parts and assemblie
s');
ENDSEC;
END-ISO-10303-21;
