ISO-10303-21;
HEADER;
/* Generated by software containing ST-Developer
 * from STEP Tools, Inc. (www.steptools.com) 
 */
/* OPTION: using custom renumber hook */

FILE_DESCRIPTION(
/* description */ ('STEP AP203'),
/* implementation_level */ '2;1');

FILE_NAME(
/* name */ '6a5465d3b4b1578a86c4e9ac',
/* time_stamp */ '2026-07-13T04:13:07Z',
/* author */ (''),
/* organization */ (''),
/* preprocessor_version */ 'ST-DEVELOPER v20',
/* originating_system */ 'ONSHAPE BY PTC INC, 1.217',
/* authorisation */ '  ');

FILE_SCHEMA (('CONFIG_CONTROL_DESIGN'));
ENDSEC;

DATA;
#10=PROPERTY_DEFINITION_REPRESENTATION(#14,#12);
#11=PROPERTY_DEFINITION_REPRESENTATION(#15,#13);
#12=REPRESENTATION('',(#16),#282);
#13=REPRESENTATION('',(#17),#282);
#14=PROPERTY_DEFINITION('pmi validation property','',#287);
#15=PROPERTY_DEFINITION('pmi validation property','',#287);
#16=VALUE_REPRESENTATION_ITEM('number of annotations',COUNT_MEASURE(0.));
#17=VALUE_REPRESENTATION_ITEM('number of views',COUNT_MEASURE(0.));
#18=SHAPE_REPRESENTATION_RELATIONSHIP('','',#164,#19);
#19=ADVANCED_BREP_SHAPE_REPRESENTATION('',(#162),#282);
#20=CONICAL_SURFACE('',#184,0.0007,0.78539816339745);
#21=PLANE('',#179);
#22=PLANE('',#183);
#23=PLANE('',#185);
#24=PLANE('',#186);
#25=PLANE('',#187);
#26=LINE('',#255,#32);
#27=LINE('',#256,#33);
#28=LINE('',#260,#34);
#29=LINE('',#264,#35);
#30=LINE('',#278,#36);
#31=LINE('',#279,#37);
#32=VECTOR('',#206,1.);
#33=VECTOR('',#207,1.);
#34=VECTOR('',#210,1.);
#35=VECTOR('',#213,1.);
#36=VECTOR('',#234,1.);
#37=VECTOR('',#235,1.);
#38=CYLINDRICAL_SURFACE('',#169,0.0007);
#39=CYLINDRICAL_SURFACE('',#172,0.00125);
#40=CYLINDRICAL_SURFACE('',#180,0.00045);
#41=ORIENTED_EDGE('',*,*,#75,.T.);
#42=ORIENTED_EDGE('',*,*,#76,.F.);
#43=ORIENTED_EDGE('',*,*,#77,.T.);
#44=ORIENTED_EDGE('',*,*,#78,.T.);
#45=ORIENTED_EDGE('',*,*,#79,.T.);
#46=ORIENTED_EDGE('',*,*,#80,.T.);
#47=ORIENTED_EDGE('',*,*,#76,.T.);
#48=ORIENTED_EDGE('',*,*,#81,.T.);
#49=ORIENTED_EDGE('',*,*,#82,.T.);
#50=ORIENTED_EDGE('',*,*,#83,.T.);
#51=ORIENTED_EDGE('',*,*,#84,.T.);
#52=ORIENTED_EDGE('',*,*,#85,.T.);
#53=ORIENTED_EDGE('',*,*,#86,.F.);
#54=ORIENTED_EDGE('',*,*,#84,.F.);
#55=ORIENTED_EDGE('',*,*,#87,.T.);
#56=ORIENTED_EDGE('',*,*,#78,.F.);
#57=ORIENTED_EDGE('',*,*,#86,.T.);
#58=ORIENTED_EDGE('',*,*,#88,.T.);
#59=ORIENTED_EDGE('',*,*,#89,.F.);
#60=ORIENTED_EDGE('',*,*,#89,.T.);
#61=ORIENTED_EDGE('',*,*,#88,.F.);
#62=ORIENTED_EDGE('',*,*,#77,.F.);
#63=ORIENTED_EDGE('',*,*,#90,.F.);
#64=ORIENTED_EDGE('',*,*,#79,.F.);
#65=ORIENTED_EDGE('',*,*,#91,.T.);
#66=ORIENTED_EDGE('',*,*,#82,.F.);
#67=ORIENTED_EDGE('',*,*,#81,.F.);
#68=ORIENTED_EDGE('',*,*,#75,.F.);
#69=ORIENTED_EDGE('',*,*,#80,.F.);
#70=ORIENTED_EDGE('',*,*,#90,.T.);
#71=ORIENTED_EDGE('',*,*,#87,.F.);
#72=ORIENTED_EDGE('',*,*,#83,.F.);
#73=ORIENTED_EDGE('',*,*,#91,.F.);
#74=ORIENTED_EDGE('',*,*,#85,.F.);
#75=EDGE_CURVE('',#92,#93,#105,.T.);
#76=EDGE_CURVE('',#92,#93,#106,.T.);
#77=EDGE_CURVE('',#94,#94,#107,.F.);
#78=EDGE_CURVE('',#95,#95,#108,.T.);
#79=EDGE_CURVE('',#96,#97,#109,.T.);
#80=EDGE_CURVE('',#97,#92,#26,.F.);
#81=EDGE_CURVE('',#93,#98,#27,.T.);
#82=EDGE_CURVE('',#98,#99,#110,.T.);
#83=EDGE_CURVE('',#99,#100,#28,.F.);
#84=EDGE_CURVE('',#100,#101,#111,.T.);
#85=EDGE_CURVE('',#101,#96,#29,.T.);
#86=EDGE_CURVE('',#102,#102,#112,.T.);
#87=EDGE_CURVE('',#100,#101,#113,.T.);
#88=EDGE_CURVE('',#103,#103,#114,.T.);
#89=EDGE_CURVE('',#104,#104,#115,.T.);
#90=EDGE_CURVE('',#97,#98,#30,.T.);
#91=EDGE_CURVE('',#96,#99,#31,.T.);
#92=VERTEX_POINT('',#243);
#93=VERTEX_POINT('',#244);
#94=VERTEX_POINT('',#248);
#95=VERTEX_POINT('',#250);
#96=VERTEX_POINT('',#253);
#97=VERTEX_POINT('',#254);
#98=VERTEX_POINT('',#257);
#99=VERTEX_POINT('',#259);
#100=VERTEX_POINT('',#261);
#101=VERTEX_POINT('',#263);
#102=VERTEX_POINT('',#266);
#103=VERTEX_POINT('',#272);
#104=VERTEX_POINT('',#274);
#105=CIRCLE('',#167,0.00399718651053463);
#106=CIRCLE('',#168,0.00125);
#107=CIRCLE('',#170,0.0007);
#108=CIRCLE('',#171,0.0007);
#109=CIRCLE('',#173,0.00125);
#110=CIRCLE('',#174,0.00125);
#111=CIRCLE('',#175,0.00125);
#112=CIRCLE('',#176,0.00125);
#113=CIRCLE('',#178,0.00399718651053463);
#114=CIRCLE('',#181,0.00045);
#115=CIRCLE('',#182,0.00045);
#116=EDGE_LOOP('',(#41,#42));
#117=EDGE_LOOP('',(#43));
#118=EDGE_LOOP('',(#44));
#119=EDGE_LOOP('',(#45,#46,#47,#48,#49,#50,#51,#52));
#120=EDGE_LOOP('',(#53));
#121=EDGE_LOOP('',(#54,#55));
#122=EDGE_LOOP('',(#56));
#123=EDGE_LOOP('',(#57));
#124=EDGE_LOOP('',(#58));
#125=EDGE_LOOP('',(#59));
#126=EDGE_LOOP('',(#60));
#127=EDGE_LOOP('',(#61));
#128=EDGE_LOOP('',(#62));
#129=EDGE_LOOP('',(#63,#64,#65,#66));
#130=EDGE_LOOP('',(#67,#68,#69,#70));
#131=EDGE_LOOP('',(#71,#72,#73,#74));
#132=FACE_BOUND('',#116,.T.);
#133=FACE_BOUND('',#117,.T.);
#134=FACE_BOUND('',#118,.T.);
#135=FACE_BOUND('',#119,.T.);
#136=FACE_BOUND('',#120,.T.);
#137=FACE_BOUND('',#121,.T.);
#138=FACE_BOUND('',#122,.T.);
#139=FACE_BOUND('',#123,.T.);
#140=FACE_BOUND('',#124,.T.);
#141=FACE_BOUND('',#125,.T.);
#142=FACE_BOUND('',#126,.T.);
#143=FACE_BOUND('',#127,.T.);
#144=FACE_BOUND('',#128,.T.);
#145=FACE_BOUND('',#129,.T.);
#146=FACE_BOUND('',#130,.T.);
#147=FACE_BOUND('',#131,.T.);
#148=SPHERICAL_SURFACE('',#166,0.004);
#149=SPHERICAL_SURFACE('',#177,0.004);
#150=ADVANCED_FACE('',(#132),#148,.T.);
#151=ADVANCED_FACE('',(#133,#134),#38,.T.);
#152=ADVANCED_FACE('',(#135,#136),#39,.T.);
#153=ADVANCED_FACE('',(#137),#149,.T.);
#154=ADVANCED_FACE('',(#138,#139),#21,.T.);
#155=ADVANCED_FACE('',(#140,#141),#40,.T.);
#156=ADVANCED_FACE('',(#142),#22,.F.);
#157=ADVANCED_FACE('',(#143,#144),#20,.T.);
#158=ADVANCED_FACE('',(#145),#23,.F.);
#159=ADVANCED_FACE('',(#146),#24,.F.);
#160=ADVANCED_FACE('',(#147),#25,.F.);
#161=CLOSED_SHELL('',(#150,#151,#152,#153,#154,#155,#156,#157,#158,#159,
#160));
#162=MANIFOLD_SOLID_BREP('',#161);
#163=SHAPE_DEFINITION_REPRESENTATION(#287,#164);
#164=SHAPE_REPRESENTATION('id2',(#165),#282);
#165=AXIS2_PLACEMENT_3D('',#240,#188,#189);
#166=AXIS2_PLACEMENT_3D('',#241,#190,#191);
#167=AXIS2_PLACEMENT_3D('',#242,#192,#193);
#168=AXIS2_PLACEMENT_3D('',#245,#194,#195);
#169=AXIS2_PLACEMENT_3D('',#246,#196,#197);
#170=AXIS2_PLACEMENT_3D('',#247,#198,#199);
#171=AXIS2_PLACEMENT_3D('',#249,#200,#201);
#172=AXIS2_PLACEMENT_3D('',#251,#202,#203);
#173=AXIS2_PLACEMENT_3D('',#252,#204,#205);
#174=AXIS2_PLACEMENT_3D('',#258,#208,#209);
#175=AXIS2_PLACEMENT_3D('',#262,#211,#212);
#176=AXIS2_PLACEMENT_3D('',#265,#214,#215);
#177=AXIS2_PLACEMENT_3D('',#267,#216,#217);
#178=AXIS2_PLACEMENT_3D('',#268,#218,#219);
#179=AXIS2_PLACEMENT_3D('',#269,#220,#221);
#180=AXIS2_PLACEMENT_3D('',#270,#222,#223);
#181=AXIS2_PLACEMENT_3D('',#271,#224,#225);
#182=AXIS2_PLACEMENT_3D('',#273,#226,#227);
#183=AXIS2_PLACEMENT_3D('',#275,#228,#229);
#184=AXIS2_PLACEMENT_3D('',#276,#230,#231);
#185=AXIS2_PLACEMENT_3D('',#277,#232,#233);
#186=AXIS2_PLACEMENT_3D('',#280,#236,#237);
#187=AXIS2_PLACEMENT_3D('',#281,#238,#239);
#188=DIRECTION('',(0.,0.,1.));
#189=DIRECTION('',(1.,0.,0.));
#190=DIRECTION('',(0.,-1.,0.));
#191=DIRECTION('',(-1.,0.,0.));
#192=DIRECTION('',(1.,-1.36163763752158E-16,0.));
#193=DIRECTION('',(1.36163763752158E-16,1.,0.));
#194=DIRECTION('',(0.,-1.,0.));
#195=DIRECTION('',(0.,0.,-1.));
#196=DIRECTION('',(0.,-1.,0.));
#197=DIRECTION('',(0.,0.,-1.));
#198=DIRECTION('',(0.,-1.,0.));
#199=DIRECTION('',(0.,0.,-1.));
#200=DIRECTION('',(0.,-1.,0.));
#201=DIRECTION('',(0.,0.,-1.));
#202=DIRECTION('',(0.,-1.,0.));
#203=DIRECTION('',(0.,0.,-1.));
#204=DIRECTION('',(0.,-1.,0.));
#205=DIRECTION('',(0.,0.,-1.));
#206=DIRECTION('',(0.,-1.,0.));
#207=DIRECTION('',(0.,-1.,0.));
#208=DIRECTION('',(0.,-1.,0.));
#209=DIRECTION('',(0.,0.,-1.));
#210=DIRECTION('',(0.,-1.,0.));
#211=DIRECTION('',(0.,-1.,0.));
#212=DIRECTION('',(0.,0.,-1.));
#213=DIRECTION('',(0.,-1.,0.));
#214=DIRECTION('',(0.,-1.,0.));
#215=DIRECTION('',(0.,0.,-1.));
#216=DIRECTION('',(0.,-1.,0.));
#217=DIRECTION('',(-1.,0.,0.));
#218=DIRECTION('',(-1.,-1.36163763752158E-16,0.));
#219=DIRECTION('',(1.36163763752158E-16,-1.,0.));
#220=DIRECTION('',(0.,-1.,0.));
#221=DIRECTION('',(0.,0.,-1.));
#222=DIRECTION('',(0.,-1.,0.));
#223=DIRECTION('',(0.,0.,-1.));
#224=DIRECTION('',(0.,-1.,0.));
#225=DIRECTION('',(0.,0.,-1.));
#226=DIRECTION('',(0.,-1.,0.));
#227=DIRECTION('',(0.,0.,-1.));
#228=DIRECTION('',(0.,1.,0.));
#229=DIRECTION('',(0.,0.,1.));
#230=DIRECTION('',(0.,1.,0.));
#231=DIRECTION('',(0.,0.,1.));
#232=DIRECTION('',(0.,-1.,0.));
#233=DIRECTION('',(0.,0.,-1.));
#234=DIRECTION('',(0.,0.,1.));
#235=DIRECTION('',(0.,0.,1.));
#236=DIRECTION('',(1.,-1.36163763752158E-16,0.));
#237=DIRECTION('',(1.36163763752158E-16,1.,0.));
#238=DIRECTION('',(-1.,-1.36163763752158E-16,0.));
#239=DIRECTION('',(1.36163763752158E-16,-1.,0.));
#240=CARTESIAN_POINT('',(0.,0.,0.));
#241=CARTESIAN_POINT('',(4.89858719658941E-19,-0.0009,0.));
#242=CARTESIAN_POINT('',(0.00015,-0.0009,0.));
#243=CARTESIAN_POINT('',(0.00015,0.00289967103839267,-0.00124096736459908));
#244=CARTESIAN_POINT('',(0.00015,0.00289967103839267,0.00124096736459908));
#245=CARTESIAN_POINT('',(0.,0.00289967103839267,0.));
#246=CARTESIAN_POINT('',(0.,0.002,0.));
#247=CARTESIAN_POINT('',(0.,0.00085,0.));
#248=CARTESIAN_POINT('',(0.,0.00085,-0.0007));
#249=CARTESIAN_POINT('',(0.,0.002,0.));
#250=CARTESIAN_POINT('',(0.,0.002,-0.0007));
#251=CARTESIAN_POINT('',(0.,0.0031,0.));
#252=CARTESIAN_POINT('',(0.,0.0025,0.));
#253=CARTESIAN_POINT('',(-0.00015,0.0025,-0.00124096736459909));
#254=CARTESIAN_POINT('',(0.00015,0.0025,-0.00124096736459909));
#255=CARTESIAN_POINT('',(0.00015,0.0031,-0.00124096736459909));
#256=CARTESIAN_POINT('',(0.00015,0.0031,0.00124096736459909));
#257=CARTESIAN_POINT('',(0.00015,0.0025,0.00124096736459909));
#258=CARTESIAN_POINT('',(0.,0.0025,0.));
#259=CARTESIAN_POINT('',(-0.00015,0.0025,0.00124096736459909));
#260=CARTESIAN_POINT('',(-0.00015,0.0031,0.00124096736459909));
#261=CARTESIAN_POINT('',(-0.00015,0.00289967103839267,0.00124096736459908));
#262=CARTESIAN_POINT('',(0.,0.00289967103839267,0.));
#263=CARTESIAN_POINT('',(-0.00015,0.00289967103839267,-0.00124096736459908));
#264=CARTESIAN_POINT('',(-0.00015,0.0031,-0.00124096736459909));
#265=CARTESIAN_POINT('',(0.,0.002,0.));
#266=CARTESIAN_POINT('',(0.,0.002,-0.00125));
#267=CARTESIAN_POINT('',(4.89858719658941E-19,-0.0009,0.));
#268=CARTESIAN_POINT('',(-0.00015,-0.0009,0.));
#269=CARTESIAN_POINT('',(0.,0.002,0.));
#270=CARTESIAN_POINT('',(0.,0.0006,0.));
#271=CARTESIAN_POINT('',(0.,0.0006,0.));
#272=CARTESIAN_POINT('',(0.,0.0006,-0.00045));
#273=CARTESIAN_POINT('',(0.,0.,0.));
#274=CARTESIAN_POINT('',(0.,0.,-0.00045));
#275=CARTESIAN_POINT('',(0.,0.,0.));
#276=CARTESIAN_POINT('',(0.,0.00085,0.));
#277=CARTESIAN_POINT('',(-0.00015,0.0025,-0.00125));
#278=CARTESIAN_POINT('',(0.00015,0.0025,-0.00125));
#279=CARTESIAN_POINT('',(-0.00015,0.0025,-0.00125));
#280=CARTESIAN_POINT('',(0.00015,0.00309718651053463,-0.00125));
#281=CARTESIAN_POINT('',(-0.00015,0.00309718651053463,-0.00125));
#282=(
GEOMETRIC_REPRESENTATION_CONTEXT(3)
GLOBAL_UNCERTAINTY_ASSIGNED_CONTEXT((#283))
GLOBAL_UNIT_ASSIGNED_CONTEXT((#286,#285,#284))
REPRESENTATION_CONTEXT('id2','TOP_LEVEL_ASSEMBLY_PART')
);
#283=UNCERTAINTY_MEASURE_WITH_UNIT(LENGTH_MEASURE(1.E-8),#286,
'DISTANCE_ACCURACY_VALUE','Maximum Tolerance applied to model');
#284=(
NAMED_UNIT(*)
SI_UNIT($,.STERADIAN.)
SOLID_ANGLE_UNIT()
);
#285=(
NAMED_UNIT(*)
PLANE_ANGLE_UNIT()
SI_UNIT($,.RADIAN.)
);
#286=(
LENGTH_UNIT()
NAMED_UNIT(*)
SI_UNIT($,.METRE.)
);
#287=PRODUCT_DEFINITION_SHAPE('','',#288);
#288=PRODUCT_DEFINITION('','',#290,#289);
#289=DESIGN_CONTEXT('',#296,'design');
#290=PRODUCT_DEFINITION_FORMATION_WITH_SPECIFIED_SOURCE('','',#292,
 .NOT_KNOWN.);
#291=PRODUCT_RELATED_PRODUCT_CATEGORY('','',(#292));
#292=PRODUCT('id2','id2','id2',(#294));
#293=PRODUCT_CATEGORY('','');
#294=MECHANICAL_CONTEXT('',#296,'mechanical');
#295=APPLICATION_PROTOCOL_DEFINITION('international standard',
'config_control_design',2010,#296);
#296=APPLICATION_CONTEXT(
'configuration controlled 3D designs of mechanical parts and assemblie
s');
ENDSEC;
END-ISO-10303-21;
