ISO-10303-21;
HEADER;
/* Generated by software containing ST-Developer
 * from STEP Tools, Inc. (www.steptools.com) 
 */
/* OPTION: using custom renumber hook */

FILE_DESCRIPTION(
/* description */ ('STEP AP203'),
/* implementation_level */ '2;1');

FILE_NAME(
/* name */ '6a5465b574afeff7201e5a5e',
/* time_stamp */ '2026-07-13T04:12:37Z',
/* author */ (''),
/* organization */ (''),
/* preprocessor_version */ 'ST-DEVELOPER v20',
/* originating_system */ 'ONSHAPE BY PTC INC, 1.217',
/* authorisation */ '  ');

FILE_SCHEMA (('CONFIG_CONTROL_DESIGN'));
ENDSEC;

DATA;
#10=PROPERTY_DEFINITION_REPRESENTATION(#14,#12);
#11=PROPERTY_DEFINITION_REPRESENTATION(#15,#13);
#12=REPRESENTATION('',(#16),#214);
#13=REPRESENTATION('',(#17),#214);
#14=PROPERTY_DEFINITION('pmi validation property','',#219);
#15=PROPERTY_DEFINITION('pmi validation property','',#219);
#16=VALUE_REPRESENTATION_ITEM('number of annotations',COUNT_MEASURE(0.));
#17=VALUE_REPRESENTATION_ITEM('number of views',COUNT_MEASURE(0.));
#18=SHAPE_REPRESENTATION_RELATIONSHIP('','',#131,#19);
#19=ADVANCED_BREP_SHAPE_REPRESENTATION('',(#129),#214);
#20=PLANE('',#137);
#21=PLANE('',#139);
#22=PLANE('',#143);
#23=PLANE('',#144);
#24=PLANE('',#145);
#25=LINE('',#189,#33);
#26=LINE('',#193,#34);
#27=LINE('',#198,#35);
#28=LINE('',#202,#36);
#29=LINE('',#204,#37);
#30=LINE('',#208,#38);
#31=LINE('',#210,#39);
#32=LINE('',#212,#40);
#33=VECTOR('',#154,1.);
#34=VECTOR('',#157,1.);
#35=VECTOR('',#164,1.);
#36=VECTOR('',#167,1.);
#37=VECTOR('',#170,1.);
#38=VECTOR('',#173,1.);
#39=VECTOR('',#176,1.);
#40=VECTOR('',#179,1.);
#41=ORIENTED_EDGE('',*,*,#69,.F.);
#42=ORIENTED_EDGE('',*,*,#70,.F.);
#43=ORIENTED_EDGE('',*,*,#71,.T.);
#44=ORIENTED_EDGE('',*,*,#72,.T.);
#45=ORIENTED_EDGE('',*,*,#73,.F.);
#46=ORIENTED_EDGE('',*,*,#74,.F.);
#47=ORIENTED_EDGE('',*,*,#69,.T.);
#48=ORIENTED_EDGE('',*,*,#72,.F.);
#49=ORIENTED_EDGE('',*,*,#75,.F.);
#50=ORIENTED_EDGE('',*,*,#76,.T.);
#51=ORIENTED_EDGE('',*,*,#77,.F.);
#52=ORIENTED_EDGE('',*,*,#76,.F.);
#53=ORIENTED_EDGE('',*,*,#78,.F.);
#54=ORIENTED_EDGE('',*,*,#79,.F.);
#55=ORIENTED_EDGE('',*,*,#80,.T.);
#56=ORIENTED_EDGE('',*,*,#74,.T.);
#57=ORIENTED_EDGE('',*,*,#75,.T.);
#58=ORIENTED_EDGE('',*,*,#71,.F.);
#59=ORIENTED_EDGE('',*,*,#81,.F.);
#60=ORIENTED_EDGE('',*,*,#78,.T.);
#61=ORIENTED_EDGE('',*,*,#77,.T.);
#62=ORIENTED_EDGE('',*,*,#80,.F.);
#63=ORIENTED_EDGE('',*,*,#82,.F.);
#64=ORIENTED_EDGE('',*,*,#73,.T.);
#65=ORIENTED_EDGE('',*,*,#70,.T.);
#66=ORIENTED_EDGE('',*,*,#82,.T.);
#67=ORIENTED_EDGE('',*,*,#79,.T.);
#68=ORIENTED_EDGE('',*,*,#81,.T.);
#69=EDGE_CURVE('',#83,#83,#93,.T.);
#70=EDGE_CURVE('',#84,#85,#94,.T.);
#71=EDGE_CURVE('',#84,#86,#25,.T.);
#72=EDGE_CURVE('',#86,#87,#95,.T.);
#73=EDGE_CURVE('',#85,#87,#26,.T.);
#74=EDGE_CURVE('',#88,#88,#96,.T.);
#75=EDGE_CURVE('',#89,#86,#27,.T.);
#76=EDGE_CURVE('',#89,#90,#97,.T.);
#77=EDGE_CURVE('',#87,#90,#28,.T.);
#78=EDGE_CURVE('',#91,#89,#29,.T.);
#79=EDGE_CURVE('',#92,#91,#98,.T.);
#80=EDGE_CURVE('',#92,#90,#30,.T.);
#81=EDGE_CURVE('',#91,#84,#31,.T.);
#82=EDGE_CURVE('',#85,#92,#32,.T.);
#83=VERTEX_POINT('',#185);
#84=VERTEX_POINT('',#187);
#85=VERTEX_POINT('',#188);
#86=VERTEX_POINT('',#190);
#87=VERTEX_POINT('',#192);
#88=VERTEX_POINT('',#196);
#89=VERTEX_POINT('',#199);
#90=VERTEX_POINT('',#201);
#91=VERTEX_POINT('',#205);
#92=VERTEX_POINT('',#207);
#93=CIRCLE('',#134,0.0095);
#94=CIRCLE('',#135,0.0095);
#95=CIRCLE('',#136,0.0095);
#96=CIRCLE('',#138,0.00805);
#97=CIRCLE('',#140,0.00805);
#98=CIRCLE('',#142,0.00805);
#99=EDGE_LOOP('',(#41));
#100=EDGE_LOOP('',(#42,#43,#44,#45));
#101=EDGE_LOOP('',(#46));
#102=EDGE_LOOP('',(#47));
#103=EDGE_LOOP('',(#48,#49,#50,#51));
#104=EDGE_LOOP('',(#52,#53,#54,#55));
#105=EDGE_LOOP('',(#56));
#106=EDGE_LOOP('',(#57,#58,#59,#60));
#107=EDGE_LOOP('',(#61,#62,#63,#64));
#108=EDGE_LOOP('',(#65,#66,#67,#68));
#109=FACE_BOUND('',#99,.T.);
#110=FACE_BOUND('',#100,.T.);
#111=FACE_BOUND('',#101,.T.);
#112=FACE_BOUND('',#102,.T.);
#113=FACE_BOUND('',#103,.T.);
#114=FACE_BOUND('',#104,.T.);
#115=FACE_BOUND('',#105,.T.);
#116=FACE_BOUND('',#106,.T.);
#117=FACE_BOUND('',#107,.T.);
#118=FACE_BOUND('',#108,.T.);
#119=CYLINDRICAL_SURFACE('',#133,0.0095);
#120=CYLINDRICAL_SURFACE('',#141,0.00805);
#121=ADVANCED_FACE('',(#109,#110),#119,.T.);
#122=ADVANCED_FACE('',(#111,#112),#20,.T.);
#123=ADVANCED_FACE('',(#113),#21,.F.);
#124=ADVANCED_FACE('',(#114,#115),#120,.F.);
#125=ADVANCED_FACE('',(#116),#22,.F.);
#126=ADVANCED_FACE('',(#117),#23,.F.);
#127=ADVANCED_FACE('',(#118),#24,.T.);
#128=CLOSED_SHELL('',(#121,#122,#123,#124,#125,#126,#127));
#129=MANIFOLD_SOLID_BREP('',#128);
#130=SHAPE_DEFINITION_REPRESENTATION(#219,#131);
#131=SHAPE_REPRESENTATION('id2',(#132),#214);
#132=AXIS2_PLACEMENT_3D('',#182,#146,#147);
#133=AXIS2_PLACEMENT_3D('',#183,#148,#149);
#134=AXIS2_PLACEMENT_3D('',#184,#150,#151);
#135=AXIS2_PLACEMENT_3D('',#186,#152,#153);
#136=AXIS2_PLACEMENT_3D('',#191,#155,#156);
#137=AXIS2_PLACEMENT_3D('',#194,#158,#159);
#138=AXIS2_PLACEMENT_3D('',#195,#160,#161);
#139=AXIS2_PLACEMENT_3D('',#197,#162,#163);
#140=AXIS2_PLACEMENT_3D('',#200,#165,#166);
#141=AXIS2_PLACEMENT_3D('',#203,#168,#169);
#142=AXIS2_PLACEMENT_3D('',#206,#171,#172);
#143=AXIS2_PLACEMENT_3D('',#209,#174,#175);
#144=AXIS2_PLACEMENT_3D('',#211,#177,#178);
#145=AXIS2_PLACEMENT_3D('',#213,#180,#181);
#146=DIRECTION('',(0.,0.,1.));
#147=DIRECTION('',(1.,0.,0.));
#148=DIRECTION('',(0.,-1.,0.));
#149=DIRECTION('',(0.,0.,-1.));
#150=DIRECTION('',(0.,1.,0.));
#151=DIRECTION('',(0.,0.,1.));
#152=DIRECTION('',(0.,-1.,0.));
#153=DIRECTION('',(0.,0.,-1.));
#154=DIRECTION('',(0.,-1.,0.));
#155=DIRECTION('',(0.,1.,0.));
#156=DIRECTION('',(0.,0.,1.));
#157=DIRECTION('',(0.,-1.,0.));
#158=DIRECTION('',(0.,1.,0.));
#159=DIRECTION('',(0.,0.,1.));
#160=DIRECTION('',(0.,1.,0.));
#161=DIRECTION('',(0.,0.,1.));
#162=DIRECTION('',(0.,1.,0.));
#163=DIRECTION('',(0.,0.,1.));
#164=DIRECTION('',(2.7405650547145E-16,0.,1.));
#165=DIRECTION('',(0.,1.,0.));
#166=DIRECTION('',(0.,0.,1.));
#167=DIRECTION('',(2.7405650547145E-16,0.,-1.));
#168=DIRECTION('',(0.,1.,0.));
#169=DIRECTION('',(0.,0.,1.));
#170=DIRECTION('',(0.,-1.,0.));
#171=DIRECTION('',(0.,1.,0.));
#172=DIRECTION('',(0.,0.,-1.));
#173=DIRECTION('',(0.,-1.,0.));
#174=DIRECTION('',(1.,0.,-2.7405650547145E-16));
#175=DIRECTION('',(-2.7405650547145E-16,0.,-1.));
#176=DIRECTION('',(2.7405650547145E-16,0.,1.));
#177=DIRECTION('',(-1.,0.,-2.7405650547145E-16));
#178=DIRECTION('',(-2.7405650547145E-16,0.,1.));
#179=DIRECTION('',(2.7405650547145E-16,0.,-1.));
#180=DIRECTION('',(0.,-1.,0.));
#181=DIRECTION('',(0.,0.,-1.));
#182=CARTESIAN_POINT('',(0.,0.,0.));
#183=CARTESIAN_POINT('',(0.,0.002,0.));
#184=CARTESIAN_POINT('',(0.,0.002,0.));
#185=CARTESIAN_POINT('',(0.,0.002,0.0095));
#186=CARTESIAN_POINT('',(0.,0.0012,0.));
#187=CARTESIAN_POINT('',(0.0035,0.0012,0.00883176086632785));
#188=CARTESIAN_POINT('',(-0.0035,0.0012,0.00883176086632785));
#189=CARTESIAN_POINT('',(0.0035,0.0012,0.00883176086632785));
#190=CARTESIAN_POINT('',(0.0035,0.,0.00883176086632785));
#191=CARTESIAN_POINT('',(0.,0.,0.));
#192=CARTESIAN_POINT('',(-0.0035,0.,0.00883176086632785));
#193=CARTESIAN_POINT('',(-0.0035,0.0012,0.00883176086632785));
#194=CARTESIAN_POINT('',(0.,0.002,0.));
#195=CARTESIAN_POINT('',(0.,0.002,0.));
#196=CARTESIAN_POINT('',(0.,0.002,0.00805));
#197=CARTESIAN_POINT('',(0.,0.,0.));
#198=CARTESIAN_POINT('',(0.0035,0.,0.00724931031202279));
#199=CARTESIAN_POINT('',(0.0035,0.,0.00724931031202279));
#200=CARTESIAN_POINT('',(0.,0.,0.));
#201=CARTESIAN_POINT('',(-0.0035,0.,0.00724931031202279));
#202=CARTESIAN_POINT('',(-0.0035,0.,0.00724931031202279));
#203=CARTESIAN_POINT('',(0.,0.,0.));
#204=CARTESIAN_POINT('',(0.0035,0.0012,0.00724931031202279));
#205=CARTESIAN_POINT('',(0.0035,0.0012,0.00724931031202279));
#206=CARTESIAN_POINT('',(0.,0.0012,0.));
#207=CARTESIAN_POINT('',(-0.0035,0.0012,0.00724931031202279));
#208=CARTESIAN_POINT('',(-0.0035,0.0012,0.00724931031202279));
#209=CARTESIAN_POINT('',(0.0035,0.0012,0.00724931031202279));
#210=CARTESIAN_POINT('',(0.0035,0.0012,0.00724931031202279));
#211=CARTESIAN_POINT('',(-0.0035,0.0012,0.00724931031202279));
#212=CARTESIAN_POINT('',(-0.0035,0.0012,0.00724931031202279));
#213=CARTESIAN_POINT('',(0.,0.0012,0.));
#214=(
GEOMETRIC_REPRESENTATION_CONTEXT(3)
GLOBAL_UNCERTAINTY_ASSIGNED_CONTEXT((#215))
GLOBAL_UNIT_ASSIGNED_CONTEXT((#218,#217,#216))
REPRESENTATION_CONTEXT('id2','TOP_LEVEL_ASSEMBLY_PART')
);
#215=UNCERTAINTY_MEASURE_WITH_UNIT(LENGTH_MEASURE(1.E-8),#218,
'DISTANCE_ACCURACY_VALUE','Maximum Tolerance applied to model');
#216=(
NAMED_UNIT(*)
SI_UNIT($,.STERADIAN.)
SOLID_ANGLE_UNIT()
);
#217=(
NAMED_UNIT(*)
PLANE_ANGLE_UNIT()
SI_UNIT($,.RADIAN.)
);
#218=(
LENGTH_UNIT()
NAMED_UNIT(*)
SI_UNIT($,.METRE.)
);
#219=PRODUCT_DEFINITION_SHAPE('','',#220);
#220=PRODUCT_DEFINITION('','',#222,#221);
#221=DESIGN_CONTEXT('',#228,'design');
#222=PRODUCT_DEFINITION_FORMATION_WITH_SPECIFIED_SOURCE('','',#224,
 .NOT_KNOWN.);
#223=PRODUCT_RELATED_PRODUCT_CATEGORY('','',(#224));
#224=PRODUCT('id2','id2','id2',(#226));
#225=PRODUCT_CATEGORY('','');
#226=MECHANICAL_CONTEXT('',#228,'mechanical');
#227=APPLICATION_PROTOCOL_DEFINITION('international standard',
'config_control_design',2010,#228);
#228=APPLICATION_CONTEXT(
'configuration controlled 3D designs of mechanical parts and assemblie
s');
ENDSEC;
END-ISO-10303-21;
