ISO-10303-21;
HEADER;
/* Generated by software containing ST-Developer
 * from STEP Tools, Inc. (www.steptools.com) 
 */
/* OPTION: using custom renumber hook */

FILE_DESCRIPTION(
/* description */ ('STEP AP203'),
/* implementation_level */ '2;1');

FILE_NAME(
/* name */ '6a5467887eb0a855d2759a23',
/* time_stamp */ '2026-07-13T04:20:24Z',
/* author */ (''),
/* organization */ (''),
/* preprocessor_version */ 'ST-DEVELOPER v20',
/* originating_system */ 'ONSHAPE BY PTC INC, 1.217',
/* authorisation */ '  ');

FILE_SCHEMA (('CONFIG_CONTROL_DESIGN'));
ENDSEC;

DATA;
#10=PROPERTY_DEFINITION_REPRESENTATION(#14,#12);
#11=PROPERTY_DEFINITION_REPRESENTATION(#15,#13);
#12=REPRESENTATION('',(#16),#348);
#13=REPRESENTATION('',(#17),#348);
#14=PROPERTY_DEFINITION('pmi validation property','',#353);
#15=PROPERTY_DEFINITION('pmi validation property','',#353);
#16=VALUE_REPRESENTATION_ITEM('number of annotations',COUNT_MEASURE(0.));
#17=VALUE_REPRESENTATION_ITEM('number of views',COUNT_MEASURE(0.));
#18=SHAPE_REPRESENTATION_RELATIONSHIP('','',#213,#19);
#19=ADVANCED_BREP_SHAPE_REPRESENTATION('',(#211),#348);
#20=CIRCLE('',#217,0.0105);
#21=CIRCLE('',#218,0.0105);
#22=CIRCLE('',#220,0.00075);
#23=CIRCLE('',#221,0.00075);
#24=CIRCLE('',#222,0.00075);
#25=CIRCLE('',#223,0.0072);
#26=CIRCLE('',#225,0.00075);
#27=CIRCLE('',#226,0.00075);
#28=CIRCLE('',#227,0.00075);
#29=CIRCLE('',#228,0.0072);
#30=CYLINDRICAL_SURFACE('',#216,0.0105);
#31=CYLINDRICAL_SURFACE('',#229,0.0072);
#32=CYLINDRICAL_SURFACE('',#231,0.00075);
#33=CYLINDRICAL_SURFACE('',#232,0.00075);
#34=CYLINDRICAL_SURFACE('',#233,0.00075);
#35=ORIENTED_EDGE('',*,*,#83,.F.);
#36=ORIENTED_EDGE('',*,*,#84,.F.);
#37=ORIENTED_EDGE('',*,*,#85,.T.);
#38=ORIENTED_EDGE('',*,*,#86,.T.);
#39=ORIENTED_EDGE('',*,*,#87,.T.);
#40=ORIENTED_EDGE('',*,*,#88,.T.);
#41=ORIENTED_EDGE('',*,*,#89,.F.);
#42=ORIENTED_EDGE('',*,*,#90,.F.);
#43=ORIENTED_EDGE('',*,*,#91,.T.);
#44=ORIENTED_EDGE('',*,*,#92,.T.);
#45=ORIENTED_EDGE('',*,*,#93,.T.);
#46=ORIENTED_EDGE('',*,*,#94,.F.);
#47=ORIENTED_EDGE('',*,*,#87,.F.);
#48=ORIENTED_EDGE('',*,*,#95,.T.);
#49=ORIENTED_EDGE('',*,*,#96,.F.);
#50=ORIENTED_EDGE('',*,*,#97,.F.);
#51=ORIENTED_EDGE('',*,*,#85,.F.);
#52=ORIENTED_EDGE('',*,*,#98,.F.);
#53=ORIENTED_EDGE('',*,*,#99,.F.);
#54=ORIENTED_EDGE('',*,*,#100,.F.);
#55=ORIENTED_EDGE('',*,*,#89,.T.);
#56=ORIENTED_EDGE('',*,*,#101,.T.);
#57=ORIENTED_EDGE('',*,*,#83,.T.);
#58=ORIENTED_EDGE('',*,*,#102,.T.);
#59=ORIENTED_EDGE('',*,*,#103,.T.);
#60=ORIENTED_EDGE('',*,*,#104,.F.);
#61=ORIENTED_EDGE('',*,*,#102,.F.);
#62=ORIENTED_EDGE('',*,*,#86,.F.);
#63=ORIENTED_EDGE('',*,*,#97,.T.);
#64=ORIENTED_EDGE('',*,*,#105,.T.);
#65=ORIENTED_EDGE('',*,*,#106,.T.);
#66=ORIENTED_EDGE('',*,*,#103,.F.);
#67=ORIENTED_EDGE('',*,*,#105,.F.);
#68=ORIENTED_EDGE('',*,*,#96,.T.);
#69=ORIENTED_EDGE('',*,*,#91,.F.);
#70=ORIENTED_EDGE('',*,*,#100,.T.);
#71=ORIENTED_EDGE('',*,*,#92,.F.);
#72=ORIENTED_EDGE('',*,*,#99,.T.);
#73=ORIENTED_EDGE('',*,*,#93,.F.);
#74=ORIENTED_EDGE('',*,*,#98,.T.);
#75=ORIENTED_EDGE('',*,*,#104,.T.);
#76=ORIENTED_EDGE('',*,*,#106,.F.);
#77=ORIENTED_EDGE('',*,*,#95,.F.);
#78=ORIENTED_EDGE('',*,*,#90,.T.);
#79=ORIENTED_EDGE('',*,*,#101,.F.);
#80=ORIENTED_EDGE('',*,*,#88,.F.);
#81=ORIENTED_EDGE('',*,*,#94,.T.);
#82=ORIENTED_EDGE('',*,*,#84,.T.);
#83=EDGE_CURVE('',#107,#108,#125,.T.);
#84=EDGE_CURVE('',#109,#107,#126,.T.);
#85=EDGE_CURVE('',#109,#110,#127,.T.);
#86=EDGE_CURVE('',#110,#108,#128,.T.);
#87=EDGE_CURVE('',#111,#112,#20,.T.);
#88=EDGE_CURVE('',#112,#113,#129,.T.);
#89=EDGE_CURVE('',#114,#113,#21,.T.);
#90=EDGE_CURVE('',#111,#114,#130,.T.);
#91=EDGE_CURVE('',#115,#115,#22,.T.);
#92=EDGE_CURVE('',#116,#116,#23,.T.);
#93=EDGE_CURVE('',#117,#117,#24,.T.);
#94=EDGE_CURVE('',#112,#109,#131,.T.);
#95=EDGE_CURVE('',#111,#118,#132,.T.);
#96=EDGE_CURVE('',#119,#118,#133,.T.);
#97=EDGE_CURVE('',#110,#119,#25,.T.);
#98=EDGE_CURVE('',#120,#120,#26,.T.);
#99=EDGE_CURVE('',#121,#121,#27,.T.);
#100=EDGE_CURVE('',#122,#122,#28,.T.);
#101=EDGE_CURVE('',#113,#107,#134,.T.);
#102=EDGE_CURVE('',#108,#123,#29,.T.);
#103=EDGE_CURVE('',#123,#124,#135,.T.);
#104=EDGE_CURVE('',#114,#124,#136,.T.);
#105=EDGE_CURVE('',#119,#123,#137,.T.);
#106=EDGE_CURVE('',#118,#124,#138,.T.);
#107=VERTEX_POINT('',#297);
#108=VERTEX_POINT('',#298);
#109=VERTEX_POINT('',#300);
#110=VERTEX_POINT('',#302);
#111=VERTEX_POINT('',#306);
#112=VERTEX_POINT('',#307);
#113=VERTEX_POINT('',#309);
#114=VERTEX_POINT('',#311);
#115=VERTEX_POINT('',#315);
#116=VERTEX_POINT('',#317);
#117=VERTEX_POINT('',#319);
#118=VERTEX_POINT('',#322);
#119=VERTEX_POINT('',#324);
#120=VERTEX_POINT('',#328);
#121=VERTEX_POINT('',#330);
#122=VERTEX_POINT('',#332);
#123=VERTEX_POINT('',#335);
#124=VERTEX_POINT('',#337);
#125=LINE('',#296,#139);
#126=LINE('',#299,#140);
#127=LINE('',#301,#141);
#128=LINE('',#303,#142);
#129=LINE('',#308,#143);
#130=LINE('',#312,#144);
#131=LINE('',#320,#145);
#132=LINE('',#321,#146);
#133=LINE('',#323,#147);
#134=LINE('',#333,#148);
#135=LINE('',#336,#149);
#136=LINE('',#338,#150);
#137=LINE('',#340,#151);
#138=LINE('',#342,#152);
#139=VECTOR('',#240,1.);
#140=VECTOR('',#241,1.);
#141=VECTOR('',#242,1.);
#142=VECTOR('',#243,1.);
#143=VECTOR('',#248,1.);
#144=VECTOR('',#251,1.);
#145=VECTOR('',#260,1.);
#146=VECTOR('',#261,1.);
#147=VECTOR('',#262,1.);
#148=VECTOR('',#273,1.);
#149=VECTOR('',#276,1.);
#150=VECTOR('',#277,1.);
#151=VECTOR('',#280,1.);
#152=VECTOR('',#283,1.);
#153=EDGE_LOOP('',(#35,#36,#37,#38));
#154=EDGE_LOOP('',(#39,#40,#41,#42));
#155=EDGE_LOOP('',(#43));
#156=EDGE_LOOP('',(#44));
#157=EDGE_LOOP('',(#45));
#158=EDGE_LOOP('',(#46,#47,#48,#49,#50,#51));
#159=EDGE_LOOP('',(#52));
#160=EDGE_LOOP('',(#53));
#161=EDGE_LOOP('',(#54));
#162=EDGE_LOOP('',(#55,#56,#57,#58,#59,#60));
#163=EDGE_LOOP('',(#61,#62,#63,#64));
#164=EDGE_LOOP('',(#65,#66,#67,#68));
#165=EDGE_LOOP('',(#69));
#166=EDGE_LOOP('',(#70));
#167=EDGE_LOOP('',(#71));
#168=EDGE_LOOP('',(#72));
#169=EDGE_LOOP('',(#73));
#170=EDGE_LOOP('',(#74));
#171=EDGE_LOOP('',(#75,#76,#77,#78));
#172=EDGE_LOOP('',(#79,#80,#81,#82));
#173=FACE_BOUND('',#153,.T.);
#174=FACE_BOUND('',#154,.T.);
#175=FACE_BOUND('',#155,.T.);
#176=FACE_BOUND('',#156,.T.);
#177=FACE_BOUND('',#157,.T.);
#178=FACE_BOUND('',#158,.T.);
#179=FACE_BOUND('',#159,.T.);
#180=FACE_BOUND('',#160,.T.);
#181=FACE_BOUND('',#161,.T.);
#182=FACE_BOUND('',#162,.T.);
#183=FACE_BOUND('',#163,.T.);
#184=FACE_BOUND('',#164,.T.);
#185=FACE_BOUND('',#165,.T.);
#186=FACE_BOUND('',#166,.T.);
#187=FACE_BOUND('',#167,.T.);
#188=FACE_BOUND('',#168,.T.);
#189=FACE_BOUND('',#169,.T.);
#190=FACE_BOUND('',#170,.T.);
#191=FACE_BOUND('',#171,.T.);
#192=FACE_BOUND('',#172,.T.);
#193=PLANE('',#215);
#194=PLANE('',#219);
#195=PLANE('',#224);
#196=PLANE('',#230);
#197=PLANE('',#234);
#198=PLANE('',#235);
#199=ADVANCED_FACE('',(#173),#193,.T.);
#200=ADVANCED_FACE('',(#174),#30,.T.);
#201=ADVANCED_FACE('',(#175,#176,#177,#178),#194,.F.);
#202=ADVANCED_FACE('',(#179,#180,#181,#182),#195,.T.);
#203=ADVANCED_FACE('',(#183),#31,.F.);
#204=ADVANCED_FACE('',(#184),#196,.T.);
#205=ADVANCED_FACE('',(#185,#186),#32,.F.);
#206=ADVANCED_FACE('',(#187,#188),#33,.F.);
#207=ADVANCED_FACE('',(#189,#190),#34,.F.);
#208=ADVANCED_FACE('',(#191),#197,.F.);
#209=ADVANCED_FACE('',(#192),#198,.T.);
#210=CLOSED_SHELL('',(#199,#200,#201,#202,#203,#204,#205,#206,#207,#208,
#209));
#211=MANIFOLD_SOLID_BREP('',#210);
#212=SHAPE_DEFINITION_REPRESENTATION(#353,#213);
#213=SHAPE_REPRESENTATION('id2',(#214),#348);
#214=AXIS2_PLACEMENT_3D('',#294,#236,#237);
#215=AXIS2_PLACEMENT_3D('',#295,#238,#239);
#216=AXIS2_PLACEMENT_3D('',#304,#244,#245);
#217=AXIS2_PLACEMENT_3D('',#305,#246,#247);
#218=AXIS2_PLACEMENT_3D('',#310,#249,#250);
#219=AXIS2_PLACEMENT_3D('',#313,#252,#253);
#220=AXIS2_PLACEMENT_3D('',#314,#254,#255);
#221=AXIS2_PLACEMENT_3D('',#316,#256,#257);
#222=AXIS2_PLACEMENT_3D('',#318,#258,#259);
#223=AXIS2_PLACEMENT_3D('',#325,#263,#264);
#224=AXIS2_PLACEMENT_3D('',#326,#265,#266);
#225=AXIS2_PLACEMENT_3D('',#327,#267,#268);
#226=AXIS2_PLACEMENT_3D('',#329,#269,#270);
#227=AXIS2_PLACEMENT_3D('',#331,#271,#272);
#228=AXIS2_PLACEMENT_3D('',#334,#274,#275);
#229=AXIS2_PLACEMENT_3D('',#339,#278,#279);
#230=AXIS2_PLACEMENT_3D('',#341,#281,#282);
#231=AXIS2_PLACEMENT_3D('',#343,#284,#285);
#232=AXIS2_PLACEMENT_3D('',#344,#286,#287);
#233=AXIS2_PLACEMENT_3D('',#345,#288,#289);
#234=AXIS2_PLACEMENT_3D('',#346,#290,#291);
#235=AXIS2_PLACEMENT_3D('',#347,#292,#293);
#236=DIRECTION('',(0.,0.,1.));
#237=DIRECTION('',(1.,0.,0.));
#238=DIRECTION('',(0.,1.,0.));
#239=DIRECTION('',(0.,0.,1.));
#240=DIRECTION('',(-1.,0.,0.));
#241=DIRECTION('',(0.,0.,1.));
#242=DIRECTION('',(-1.,0.,0.));
#243=DIRECTION('',(0.,0.,1.));
#244=DIRECTION('',(0.,0.,1.));
#245=DIRECTION('',(1.,0.,0.));
#246=DIRECTION('',(0.,0.,1.));
#247=DIRECTION('',(1.,0.,0.));
#248=DIRECTION('',(0.,0.,1.));
#249=DIRECTION('',(0.,0.,1.));
#250=DIRECTION('',(1.,0.,0.));
#251=DIRECTION('',(0.,0.,1.));
#252=DIRECTION('',(0.,0.,1.));
#253=DIRECTION('',(1.,0.,0.));
#254=DIRECTION('',(0.,0.,1.));
#255=DIRECTION('',(1.,0.,0.));
#256=DIRECTION('',(0.,0.,1.));
#257=DIRECTION('',(1.,0.,0.));
#258=DIRECTION('',(0.,0.,1.));
#259=DIRECTION('',(1.,0.,0.));
#260=DIRECTION('',(-0.887010833178223,0.461748613235031,0.));
#261=DIRECTION('',(0.887010833178223,0.461748613235031,0.));
#262=DIRECTION('',(-1.,0.,0.));
#263=DIRECTION('',(0.,0.,-1.));
#264=DIRECTION('',(1.,0.,0.));
#265=DIRECTION('',(0.,0.,1.));
#266=DIRECTION('',(1.,0.,0.));
#267=DIRECTION('',(0.,0.,1.));
#268=DIRECTION('',(1.,0.,0.));
#269=DIRECTION('',(0.,0.,1.));
#270=DIRECTION('',(1.,0.,0.));
#271=DIRECTION('',(0.,0.,1.));
#272=DIRECTION('',(1.,0.,0.));
#273=DIRECTION('',(-0.887010833178223,0.461748613235031,0.));
#274=DIRECTION('',(0.,0.,-1.));
#275=DIRECTION('',(1.,0.,0.));
#276=DIRECTION('',(-1.,0.,0.));
#277=DIRECTION('',(0.887010833178223,0.461748613235031,0.));
#278=DIRECTION('',(0.,0.,1.));
#279=DIRECTION('',(1.,0.,0.));
#280=DIRECTION('',(0.,0.,1.));
#281=DIRECTION('',(0.,1.,0.));
#282=DIRECTION('',(0.,0.,1.));
#283=DIRECTION('',(0.,0.,1.));
#284=DIRECTION('',(0.,0.,1.));
#285=DIRECTION('',(1.,0.,0.));
#286=DIRECTION('',(0.,0.,1.));
#287=DIRECTION('',(1.,0.,0.));
#288=DIRECTION('',(0.,0.,1.));
#289=DIRECTION('',(1.,0.,0.));
#290=DIRECTION('',(0.461748613235031,-0.887010833178223,0.));
#291=DIRECTION('',(0.887010833178223,0.461748613235031,0.));
#292=DIRECTION('',(0.461748613235031,0.887010833178223,0.));
#293=DIRECTION('',(-0.887010833178223,0.461748613235031,0.));
#294=CARTESIAN_POINT('',(0.,0.,0.));
#295=CARTESIAN_POINT('',(0.00584807660688538,-0.0042,-0.001));
#296=CARTESIAN_POINT('',(0.00584807660688538,-0.0042,0.));
#297=CARTESIAN_POINT('',(0.00790332208631282,-0.0042,0.));
#298=CARTESIAN_POINT('',(0.00584807660688538,-0.0042,0.));
#299=CARTESIAN_POINT('',(0.00790332208631282,-0.0042,-0.001));
#300=CARTESIAN_POINT('',(0.00790332208631282,-0.0042,-0.001));
#301=CARTESIAN_POINT('',(0.00584807660688538,-0.0042,-0.001));
#302=CARTESIAN_POINT('',(0.00584807660688538,-0.0042,-0.001));
#303=CARTESIAN_POINT('',(0.00584807660688538,-0.0042,-0.001));
#304=CARTESIAN_POINT('',(0.,0.,-0.001));
#305=CARTESIAN_POINT('',(0.,0.,-0.001));
#306=CARTESIAN_POINT('',(-0.00927823124000227,-0.00491573240291271,-0.001));
#307=CARTESIAN_POINT('',(0.00927823124000227,-0.00491573240291271,-0.001));
#308=CARTESIAN_POINT('',(0.00927823124000227,-0.00491573240291271,-0.001));
#309=CARTESIAN_POINT('',(0.00927823124000227,-0.00491573240291271,0.));
#310=CARTESIAN_POINT('',(0.,0.,0.));
#311=CARTESIAN_POINT('',(-0.00927823124000227,-0.00491573240291271,0.));
#312=CARTESIAN_POINT('',(-0.00927823124000227,-0.00491573240291271,-0.001));
#313=CARTESIAN_POINT('',(0.,0.,-0.001));
#314=CARTESIAN_POINT('',(0.0053,-0.00625699608438426,-0.001));
#315=CARTESIAN_POINT('',(0.00605,-0.00625699608438426,-0.001));
#316=CARTESIAN_POINT('',(-0.0053,-0.00625699608438426,-0.001));
#317=CARTESIAN_POINT('',(-0.00455,-0.00625699608438426,-0.001));
#318=CARTESIAN_POINT('',(0.,-0.0082,-0.001));
#319=CARTESIAN_POINT('',(0.00075,-0.0082,-0.001));
#320=CARTESIAN_POINT('',(0.00790332208631282,-0.0042,-0.001));
#321=CARTESIAN_POINT('',(-0.00790332208631282,-0.0042,-0.001));
#322=CARTESIAN_POINT('',(-0.00790332208631282,-0.0042,-0.001));
#323=CARTESIAN_POINT('',(-0.00962340895940726,-0.0042,-0.001));
#324=CARTESIAN_POINT('',(-0.00584807660688538,-0.0042,-0.001));
#325=CARTESIAN_POINT('',(0.,0.,-0.001));
#326=CARTESIAN_POINT('',(0.,0.,0.));
#327=CARTESIAN_POINT('',(0.,-0.0082,-3.06161699786853E-20));
#328=CARTESIAN_POINT('',(0.00075,-0.0082,-3.06161699786853E-20));
#329=CARTESIAN_POINT('',(-0.0053,-0.00625699608438426,-3.06161699786853E-20));
#330=CARTESIAN_POINT('',(-0.00455,-0.00625699608438426,-3.06161699786853E-20));
#331=CARTESIAN_POINT('',(0.0053,-0.00625699608438426,-3.06161699786853E-20));
#332=CARTESIAN_POINT('',(0.00605,-0.00625699608438426,-3.06161699786853E-20));
#333=CARTESIAN_POINT('',(0.00790332208631282,-0.0042,0.));
#334=CARTESIAN_POINT('',(0.,0.,0.));
#335=CARTESIAN_POINT('',(-0.00584807660688538,-0.0042,0.));
#336=CARTESIAN_POINT('',(-0.00962340895940726,-0.0042,0.));
#337=CARTESIAN_POINT('',(-0.00790332208631282,-0.0042,0.));
#338=CARTESIAN_POINT('',(-0.00790332208631282,-0.0042,0.));
#339=CARTESIAN_POINT('',(0.,0.,-0.001));
#340=CARTESIAN_POINT('',(-0.00584807660688538,-0.0042,-0.001));
#341=CARTESIAN_POINT('',(-0.00962340895940726,-0.0042,-0.001));
#342=CARTESIAN_POINT('',(-0.00790332208631282,-0.0042,-0.001));
#343=CARTESIAN_POINT('',(0.0053,-0.00625699608438426,0.));
#344=CARTESIAN_POINT('',(-0.0053,-0.00625699608438426,0.));
#345=CARTESIAN_POINT('',(0.,-0.0082,0.));
#346=CARTESIAN_POINT('',(-0.00790332208631282,-0.0042,-0.001));
#347=CARTESIAN_POINT('',(0.00790332208631282,-0.0042,-0.001));
#348=(
GEOMETRIC_REPRESENTATION_CONTEXT(3)
GLOBAL_UNCERTAINTY_ASSIGNED_CONTEXT((#349))
GLOBAL_UNIT_ASSIGNED_CONTEXT((#352,#351,#350))
REPRESENTATION_CONTEXT('id2','TOP_LEVEL_ASSEMBLY_PART')
);
#349=UNCERTAINTY_MEASURE_WITH_UNIT(LENGTH_MEASURE(1.E-8),#352,
'DISTANCE_ACCURACY_VALUE','Maximum Tolerance applied to model');
#350=(
NAMED_UNIT(*)
SI_UNIT($,.STERADIAN.)
SOLID_ANGLE_UNIT()
);
#351=(
NAMED_UNIT(*)
PLANE_ANGLE_UNIT()
SI_UNIT($,.RADIAN.)
);
#352=(
LENGTH_UNIT()
NAMED_UNIT(*)
SI_UNIT($,.METRE.)
);
#353=PRODUCT_DEFINITION_SHAPE('','',#354);
#354=PRODUCT_DEFINITION('','',#356,#355);
#355=DESIGN_CONTEXT('',#362,'design');
#356=PRODUCT_DEFINITION_FORMATION_WITH_SPECIFIED_SOURCE('','',#358,
 .NOT_KNOWN.);
#357=PRODUCT_RELATED_PRODUCT_CATEGORY('','',(#358));
#358=PRODUCT('id2','id2','id2',(#360));
#359=PRODUCT_CATEGORY('','');
#360=MECHANICAL_CONTEXT('',#362,'mechanical');
#361=APPLICATION_PROTOCOL_DEFINITION('international standard',
'config_control_design',2010,#362);
#362=APPLICATION_CONTEXT(
'configuration controlled 3D designs of mechanical parts and assemblie
s');
ENDSEC;
END-ISO-10303-21;
