ISO-10303-21;
HEADER;
/* Generated by software containing ST-Developer
 * from STEP Tools, Inc. (www.steptools.com) 
 */
/* OPTION: using custom renumber hook */

FILE_DESCRIPTION(
/* description */ ('STEP AP203'),
/* implementation_level */ '2;1');

FILE_NAME(
/* name */ '6a5467833a50d7d3af544c3f',
/* time_stamp */ '2026-07-13T04:20:19Z',
/* author */ (''),
/* organization */ (''),
/* preprocessor_version */ 'ST-DEVELOPER v20',
/* originating_system */ 'ONSHAPE BY PTC INC, 1.217',
/* authorisation */ '  ');

FILE_SCHEMA (('CONFIG_CONTROL_DESIGN'));
ENDSEC;

DATA;
#10=PROPERTY_DEFINITION_REPRESENTATION(#14,#12);
#11=PROPERTY_DEFINITION_REPRESENTATION(#15,#13);
#12=REPRESENTATION('',(#16),#354);
#13=REPRESENTATION('',(#17),#354);
#14=PROPERTY_DEFINITION('pmi validation property','',#359);
#15=PROPERTY_DEFINITION('pmi validation property','',#359);
#16=VALUE_REPRESENTATION_ITEM('number of annotations',COUNT_MEASURE(0.));
#17=VALUE_REPRESENTATION_ITEM('number of views',COUNT_MEASURE(0.));
#18=SHAPE_REPRESENTATION_RELATIONSHIP('','',#201,#19);
#19=ADVANCED_BREP_SHAPE_REPRESENTATION('',(#199),#354);
#20=PLANE('',#234);
#21=PLANE('',#235);
#22=TOROIDAL_SURFACE('',#206,0.0005,0.0004);
#23=TOROIDAL_SURFACE('',#210,0.0005,0.0004);
#24=TOROIDAL_SURFACE('',#214,0.0005,0.0004);
#25=TOROIDAL_SURFACE('',#218,0.0005,0.0004);
#26=TOROIDAL_SURFACE('',#222,0.0005,0.0004);
#27=TOROIDAL_SURFACE('',#226,0.0005,0.0004);
#28=TOROIDAL_SURFACE('',#230,0.0005,0.0004);
#29=ORIENTED_EDGE('',*,*,#61,.F.);
#30=ORIENTED_EDGE('',*,*,#62,.T.);
#31=ORIENTED_EDGE('',*,*,#63,.F.);
#32=ORIENTED_EDGE('',*,*,#61,.T.);
#33=ORIENTED_EDGE('',*,*,#64,.F.);
#34=ORIENTED_EDGE('',*,*,#63,.T.);
#35=ORIENTED_EDGE('',*,*,#65,.F.);
#36=ORIENTED_EDGE('',*,*,#64,.T.);
#37=ORIENTED_EDGE('',*,*,#66,.F.);
#38=ORIENTED_EDGE('',*,*,#65,.T.);
#39=ORIENTED_EDGE('',*,*,#67,.F.);
#40=ORIENTED_EDGE('',*,*,#66,.T.);
#41=ORIENTED_EDGE('',*,*,#68,.F.);
#42=ORIENTED_EDGE('',*,*,#67,.T.);
#43=ORIENTED_EDGE('',*,*,#69,.F.);
#44=ORIENTED_EDGE('',*,*,#68,.T.);
#45=ORIENTED_EDGE('',*,*,#70,.F.);
#46=ORIENTED_EDGE('',*,*,#69,.T.);
#47=ORIENTED_EDGE('',*,*,#71,.F.);
#48=ORIENTED_EDGE('',*,*,#70,.T.);
#49=ORIENTED_EDGE('',*,*,#72,.F.);
#50=ORIENTED_EDGE('',*,*,#71,.T.);
#51=ORIENTED_EDGE('',*,*,#73,.F.);
#52=ORIENTED_EDGE('',*,*,#72,.T.);
#53=ORIENTED_EDGE('',*,*,#74,.F.);
#54=ORIENTED_EDGE('',*,*,#73,.T.);
#55=ORIENTED_EDGE('',*,*,#75,.F.);
#56=ORIENTED_EDGE('',*,*,#74,.T.);
#57=ORIENTED_EDGE('',*,*,#75,.T.);
#58=ORIENTED_EDGE('',*,*,#76,.F.);
#59=ORIENTED_EDGE('',*,*,#62,.F.);
#60=ORIENTED_EDGE('',*,*,#76,.T.);
#61=EDGE_CURVE('',#77,#77,#93,.T.);
#62=EDGE_CURVE('',#78,#78,#94,.T.);
#63=EDGE_CURVE('',#79,#79,#95,.T.);
#64=EDGE_CURVE('',#80,#80,#96,.T.);
#65=EDGE_CURVE('',#81,#81,#97,.T.);
#66=EDGE_CURVE('',#82,#82,#98,.T.);
#67=EDGE_CURVE('',#83,#83,#99,.T.);
#68=EDGE_CURVE('',#84,#84,#100,.T.);
#69=EDGE_CURVE('',#85,#85,#101,.T.);
#70=EDGE_CURVE('',#86,#86,#102,.T.);
#71=EDGE_CURVE('',#87,#87,#103,.T.);
#72=EDGE_CURVE('',#88,#88,#104,.T.);
#73=EDGE_CURVE('',#89,#89,#105,.T.);
#74=EDGE_CURVE('',#90,#90,#106,.T.);
#75=EDGE_CURVE('',#91,#91,#107,.T.);
#76=EDGE_CURVE('',#92,#92,#108,.T.);
#77=VERTEX_POINT('',#307);
#78=VERTEX_POINT('',#309);
#79=VERTEX_POINT('',#312);
#80=VERTEX_POINT('',#315);
#81=VERTEX_POINT('',#318);
#82=VERTEX_POINT('',#321);
#83=VERTEX_POINT('',#324);
#84=VERTEX_POINT('',#327);
#85=VERTEX_POINT('',#330);
#86=VERTEX_POINT('',#333);
#87=VERTEX_POINT('',#336);
#88=VERTEX_POINT('',#339);
#89=VERTEX_POINT('',#342);
#90=VERTEX_POINT('',#345);
#91=VERTEX_POINT('',#348);
#92=VERTEX_POINT('',#351);
#93=CIRCLE('',#204,0.0004);
#94=CIRCLE('',#205,0.0004);
#95=CIRCLE('',#207,0.0004);
#96=CIRCLE('',#209,0.0004);
#97=CIRCLE('',#211,0.0004);
#98=CIRCLE('',#213,0.0004);
#99=CIRCLE('',#215,0.0004);
#100=CIRCLE('',#217,0.0004);
#101=CIRCLE('',#219,0.0004);
#102=CIRCLE('',#221,0.0004);
#103=CIRCLE('',#223,0.0004);
#104=CIRCLE('',#225,0.0004);
#105=CIRCLE('',#227,0.0004);
#106=CIRCLE('',#229,0.0004);
#107=CIRCLE('',#231,0.0004);
#108=CIRCLE('',#233,0.0004);
#109=EDGE_LOOP('',(#29));
#110=EDGE_LOOP('',(#30));
#111=EDGE_LOOP('',(#31));
#112=EDGE_LOOP('',(#32));
#113=EDGE_LOOP('',(#33));
#114=EDGE_LOOP('',(#34));
#115=EDGE_LOOP('',(#35));
#116=EDGE_LOOP('',(#36));
#117=EDGE_LOOP('',(#37));
#118=EDGE_LOOP('',(#38));
#119=EDGE_LOOP('',(#39));
#120=EDGE_LOOP('',(#40));
#121=EDGE_LOOP('',(#41));
#122=EDGE_LOOP('',(#42));
#123=EDGE_LOOP('',(#43));
#124=EDGE_LOOP('',(#44));
#125=EDGE_LOOP('',(#45));
#126=EDGE_LOOP('',(#46));
#127=EDGE_LOOP('',(#47));
#128=EDGE_LOOP('',(#48));
#129=EDGE_LOOP('',(#49));
#130=EDGE_LOOP('',(#50));
#131=EDGE_LOOP('',(#51));
#132=EDGE_LOOP('',(#52));
#133=EDGE_LOOP('',(#53));
#134=EDGE_LOOP('',(#54));
#135=EDGE_LOOP('',(#55));
#136=EDGE_LOOP('',(#56));
#137=EDGE_LOOP('',(#57));
#138=EDGE_LOOP('',(#58));
#139=EDGE_LOOP('',(#59));
#140=EDGE_LOOP('',(#60));
#141=FACE_BOUND('',#109,.T.);
#142=FACE_BOUND('',#110,.T.);
#143=FACE_BOUND('',#111,.T.);
#144=FACE_BOUND('',#112,.T.);
#145=FACE_BOUND('',#113,.T.);
#146=FACE_BOUND('',#114,.T.);
#147=FACE_BOUND('',#115,.T.);
#148=FACE_BOUND('',#116,.T.);
#149=FACE_BOUND('',#117,.T.);
#150=FACE_BOUND('',#118,.T.);
#151=FACE_BOUND('',#119,.T.);
#152=FACE_BOUND('',#120,.T.);
#153=FACE_BOUND('',#121,.T.);
#154=FACE_BOUND('',#122,.T.);
#155=FACE_BOUND('',#123,.T.);
#156=FACE_BOUND('',#124,.T.);
#157=FACE_BOUND('',#125,.T.);
#158=FACE_BOUND('',#126,.T.);
#159=FACE_BOUND('',#127,.T.);
#160=FACE_BOUND('',#128,.T.);
#161=FACE_BOUND('',#129,.T.);
#162=FACE_BOUND('',#130,.T.);
#163=FACE_BOUND('',#131,.T.);
#164=FACE_BOUND('',#132,.T.);
#165=FACE_BOUND('',#133,.T.);
#166=FACE_BOUND('',#134,.T.);
#167=FACE_BOUND('',#135,.T.);
#168=FACE_BOUND('',#136,.T.);
#169=FACE_BOUND('',#137,.T.);
#170=FACE_BOUND('',#138,.T.);
#171=FACE_BOUND('',#139,.T.);
#172=FACE_BOUND('',#140,.T.);
#173=CYLINDRICAL_SURFACE('',#203,0.0004);
#174=CYLINDRICAL_SURFACE('',#208,0.0004);
#175=CYLINDRICAL_SURFACE('',#212,0.0004);
#176=CYLINDRICAL_SURFACE('',#216,0.0004);
#177=CYLINDRICAL_SURFACE('',#220,0.0004);
#178=CYLINDRICAL_SURFACE('',#224,0.0004);
#179=CYLINDRICAL_SURFACE('',#228,0.0004);
#180=CYLINDRICAL_SURFACE('',#232,0.0004);
#181=ADVANCED_FACE('',(#141,#142),#173,.T.);
#182=ADVANCED_FACE('',(#143,#144),#22,.T.);
#183=ADVANCED_FACE('',(#145,#146),#174,.T.);
#184=ADVANCED_FACE('',(#147,#148),#23,.T.);
#185=ADVANCED_FACE('',(#149,#150),#175,.T.);
#186=ADVANCED_FACE('',(#151,#152),#24,.T.);
#187=ADVANCED_FACE('',(#153,#154),#176,.T.);
#188=ADVANCED_FACE('',(#155,#156),#25,.T.);
#189=ADVANCED_FACE('',(#157,#158),#177,.T.);
#190=ADVANCED_FACE('',(#159,#160),#26,.T.);
#191=ADVANCED_FACE('',(#161,#162),#178,.T.);
#192=ADVANCED_FACE('',(#163,#164),#27,.T.);
#193=ADVANCED_FACE('',(#165,#166),#179,.T.);
#194=ADVANCED_FACE('',(#167,#168),#28,.T.);
#195=ADVANCED_FACE('',(#169,#170),#180,.T.);
#196=ADVANCED_FACE('',(#171),#20,.F.);
#197=ADVANCED_FACE('',(#172),#21,.T.);
#198=CLOSED_SHELL('',(#181,#182,#183,#184,#185,#186,#187,#188,#189,#190,
#191,#192,#193,#194,#195,#196,#197));
#199=MANIFOLD_SOLID_BREP('',#198);
#200=SHAPE_DEFINITION_REPRESENTATION(#359,#201);
#201=SHAPE_REPRESENTATION('id2',(#202),#354);
#202=AXIS2_PLACEMENT_3D('',#304,#236,#237);
#203=AXIS2_PLACEMENT_3D('',#305,#238,#239);
#204=AXIS2_PLACEMENT_3D('',#306,#240,#241);
#205=AXIS2_PLACEMENT_3D('',#308,#242,#243);
#206=AXIS2_PLACEMENT_3D('',#310,#244,#245);
#207=AXIS2_PLACEMENT_3D('',#311,#246,#247);
#208=AXIS2_PLACEMENT_3D('',#313,#248,#249);
#209=AXIS2_PLACEMENT_3D('',#314,#250,#251);
#210=AXIS2_PLACEMENT_3D('',#316,#252,#253);
#211=AXIS2_PLACEMENT_3D('',#317,#254,#255);
#212=AXIS2_PLACEMENT_3D('',#319,#256,#257);
#213=AXIS2_PLACEMENT_3D('',#320,#258,#259);
#214=AXIS2_PLACEMENT_3D('',#322,#260,#261);
#215=AXIS2_PLACEMENT_3D('',#323,#262,#263);
#216=AXIS2_PLACEMENT_3D('',#325,#264,#265);
#217=AXIS2_PLACEMENT_3D('',#326,#266,#267);
#218=AXIS2_PLACEMENT_3D('',#328,#268,#269);
#219=AXIS2_PLACEMENT_3D('',#329,#270,#271);
#220=AXIS2_PLACEMENT_3D('',#331,#272,#273);
#221=AXIS2_PLACEMENT_3D('',#332,#274,#275);
#222=AXIS2_PLACEMENT_3D('',#334,#276,#277);
#223=AXIS2_PLACEMENT_3D('',#335,#278,#279);
#224=AXIS2_PLACEMENT_3D('',#337,#280,#281);
#225=AXIS2_PLACEMENT_3D('',#338,#282,#283);
#226=AXIS2_PLACEMENT_3D('',#340,#284,#285);
#227=AXIS2_PLACEMENT_3D('',#341,#286,#287);
#228=AXIS2_PLACEMENT_3D('',#343,#288,#289);
#229=AXIS2_PLACEMENT_3D('',#344,#290,#291);
#230=AXIS2_PLACEMENT_3D('',#346,#292,#293);
#231=AXIS2_PLACEMENT_3D('',#347,#294,#295);
#232=AXIS2_PLACEMENT_3D('',#349,#296,#297);
#233=AXIS2_PLACEMENT_3D('',#350,#298,#299);
#234=AXIS2_PLACEMENT_3D('',#352,#300,#301);
#235=AXIS2_PLACEMENT_3D('',#353,#302,#303);
#236=DIRECTION('',(0.,0.,1.));
#237=DIRECTION('',(1.,0.,0.));
#238=DIRECTION('',(0.660114607728678,-0.751164898449876,0.));
#239=DIRECTION('',(0.751164898449876,0.660114607728678,0.));
#240=DIRECTION('',(-0.660114607728679,0.751164898449876,0.));
#241=DIRECTION('',(-0.751164898449876,-0.660114607728679,0.));
#242=DIRECTION('',(-0.660114607728679,0.751164898449876,0.));
#243=DIRECTION('',(-0.751164898449876,-0.660114607728679,0.));
#244=DIRECTION('',(0.,0.,1.));
#245=DIRECTION('',(1.,0.,0.));
#246=DIRECTION('',(0.751164898449882,0.660114607728672,0.));
#247=DIRECTION('',(-0.660114607728672,0.751164898449882,0.));
#248=DIRECTION('',(-0.751164898449882,-0.660114607728672,0.));
#249=DIRECTION('',(0.660114607728672,-0.751164898449882,0.));
#250=DIRECTION('',(0.751164898449882,0.660114607728672,0.));
#251=DIRECTION('',(-0.660114607728672,0.751164898449882,0.));
#252=DIRECTION('',(0.,0.,-1.));
#253=DIRECTION('',(-1.,0.,0.));
#254=DIRECTION('',(0.0633609378836384,0.997990677085966,0.));
#255=DIRECTION('',(-0.997990677085966,0.0633609378836384,0.));
#256=DIRECTION('',(-0.0633609378836405,-0.997990677085966,0.));
#257=DIRECTION('',(0.997990677085966,-0.0633609378836405,0.));
#258=DIRECTION('',(0.0633609378836384,0.997990677085966,0.));
#259=DIRECTION('',(-0.997990677085966,0.0633609378836384,0.));
#260=DIRECTION('',(0.,0.,-1.));
#261=DIRECTION('',(-1.,0.,0.));
#262=DIRECTION('',(-0.997925308968458,0.0643822779979624,0.));
#263=DIRECTION('',(-0.0643822779979624,-0.997925308968458,0.));
#264=DIRECTION('',(0.997925308968458,-0.0643822779979648,0.));
#265=DIRECTION('',(0.0643822779979648,0.997925308968458,0.));
#266=DIRECTION('',(-0.997925308968458,0.0643822779979624,0.));
#267=DIRECTION('',(-0.0643822779979624,-0.997925308968458,0.));
#268=DIRECTION('',(0.,0.,-1.));
#269=DIRECTION('',(-1.,0.,0.));
#270=DIRECTION('',(-0.997925308968458,-0.0643822779979673,0.));
#271=DIRECTION('',(0.0643822779979673,-0.997925308968458,0.));
#272=DIRECTION('',(0.997925308968458,0.0643822779979651,0.));
#273=DIRECTION('',(-0.0643822779979651,0.997925308968458,0.));
#274=DIRECTION('',(-0.997925308968458,-0.0643822779979673,0.));
#275=DIRECTION('',(0.0643822779979673,-0.997925308968458,0.));
#276=DIRECTION('',(0.,0.,-1.));
#277=DIRECTION('',(-1.,0.,0.));
#278=DIRECTION('',(0.0633609378836433,-0.997990677085966,0.));
#279=DIRECTION('',(0.997990677085966,0.0633609378836433,0.));
#280=DIRECTION('',(-0.0633609378836409,0.997990677085966,0.));
#281=DIRECTION('',(-0.997990677085966,-0.0633609378836409,0.));
#282=DIRECTION('',(0.0633609378836433,-0.997990677085966,0.));
#283=DIRECTION('',(0.997990677085966,0.0633609378836433,0.));
#284=DIRECTION('',(0.,0.,-1.));
#285=DIRECTION('',(-1.,0.,0.));
#286=DIRECTION('',(0.75116489844988,-0.660114607728675,0.));
#287=DIRECTION('',(0.660114607728675,0.75116489844988,0.));
#288=DIRECTION('',(-0.75116489844988,0.660114607728674,0.));
#289=DIRECTION('',(-0.660114607728674,-0.751164898449881,0.));
#290=DIRECTION('',(0.75116489844988,-0.660114607728675,0.));
#291=DIRECTION('',(0.660114607728675,0.75116489844988,0.));
#292=DIRECTION('',(0.,0.,1.));
#293=DIRECTION('',(1.,0.,0.));
#294=DIRECTION('',(-0.660114607728677,-0.751164898449878,0.));
#295=DIRECTION('',(0.751164898449878,-0.660114607728677,0.));
#296=DIRECTION('',(-0.660114607728677,-0.751164898449878,0.));
#297=DIRECTION('',(0.751164898449878,-0.660114607728677,0.));
#298=DIRECTION('',(-0.660114607728677,-0.751164898449878,0.));
#299=DIRECTION('',(0.751164898449878,-0.660114607728677,0.));
#300=DIRECTION('',(-0.660114607728679,0.751164898449876,0.));
#301=DIRECTION('',(-0.751164898449876,-0.660114607728679,0.));
#302=DIRECTION('',(-0.660114607728677,-0.751164898449878,0.));
#303=DIRECTION('',(0.751164898449878,-0.660114607728677,0.));
#304=CARTESIAN_POINT('',(0.,0.,0.));
#305=CARTESIAN_POINT('',(0.00192441755077506,-0.0111004818464641,0.));
#306=CARTESIAN_POINT('',(0.00192441755077506,-0.0111004818464641,0.));
#307=CARTESIAN_POINT('',(0.00162395159139511,-0.0113645276895556,0.));
#308=CARTESIAN_POINT('',(0.00263727464717794,-0.0119116640596122,0.));
#309=CARTESIAN_POINT('',(0.00233680868779799,-0.0121757099027037,0.));
#310=CARTESIAN_POINT('',(0.0023,-0.0107704245425997,0.));
#311=CARTESIAN_POINT('',(0.00196994269613566,-0.0103948420933748,0.));
#312=CARTESIAN_POINT('',(0.00170589685304419,-0.0100943761339948,0.));
#313=CARTESIAN_POINT('',(0.00274996559769337,-0.00970936742230895,0.));
#314=CARTESIAN_POINT('',(0.00274996559769337,-0.00970936742230895,0.));
#315=CARTESIAN_POINT('',(0.0024859197546019,-0.009408901462929,0.));
#316=CARTESIAN_POINT('',(0.00241990829382904,-0.00933378497308401,0.));
#317=CARTESIAN_POINT('',(0.00291890363237202,-0.00936546544202583,0.));
#318=CARTESIAN_POINT('',(0.00251970736153763,-0.00934012106687237,0.));
#319=CARTESIAN_POINT('',(0.00349286665827772,-0.000325041357744119,0.));
#320=CARTESIAN_POINT('',(0.00349286665827772,-0.000325041357744119,0.));
#321=CARTESIAN_POINT('',(0.00309367038744333,-0.000299696982590664,0.));
#322=CARTESIAN_POINT('',(0.00299387131973474,-0.000293360888802299,0.));
#323=CARTESIAN_POINT('',(0.00302606245873372,0.000205601765681927,0.));
#324=CARTESIAN_POINT('',(0.00300030954753453,-0.000193568357905456,0.));
#325=CARTESIAN_POINT('',(3.21911389989816E-5,0.00039875475405191,0.));
#326=CARTESIAN_POINT('',(3.21911389989816E-5,0.00039875475405191,0.));
#327=CARTESIAN_POINT('',(6.43822779979664E-6,-4.15369535473268E-7,0.));
#328=CARTESIAN_POINT('',(1.35525271560688E-20,-0.000100207900432317,0.));
#329=CARTESIAN_POINT('',(-3.21911389989829E-5,0.00039875475405191,0.));
#330=CARTESIAN_POINT('',(-6.43822779979598E-6,-4.15369535473268E-7,0.));
#331=CARTESIAN_POINT('',(-0.00302606245873372,0.000205601765681926,0.));
#332=CARTESIAN_POINT('',(-0.00302606245873372,0.000205601765681926,0.));
#333=CARTESIAN_POINT('',(-0.00300030954753453,-0.000193568357905457,0.));
#334=CARTESIAN_POINT('',(-0.00299387131973474,-0.0002933608888023,0.));
#335=CARTESIAN_POINT('',(-0.00349286665827772,-0.000325041357744121,0.));
#336=CARTESIAN_POINT('',(-0.00309367038744333,-0.000299696982590664,0.));
#337=CARTESIAN_POINT('',(-0.00291890363237202,-0.00936546544202583,0.));
#338=CARTESIAN_POINT('',(-0.00291890363237202,-0.00936546544202583,0.));
#339=CARTESIAN_POINT('',(-0.00251970736153763,-0.00934012106687237,0.));
#340=CARTESIAN_POINT('',(-0.00241990829382904,-0.00933378497308401,0.));
#341=CARTESIAN_POINT('',(-0.00274996559769337,-0.00970936742230894,0.));
#342=CARTESIAN_POINT('',(-0.0024859197546019,-0.00940890146292899,0.));
#343=CARTESIAN_POINT('',(-0.00196994269613566,-0.0103948420933748,0.));
#344=CARTESIAN_POINT('',(-0.00196994269613566,-0.0103948420933748,0.));
#345=CARTESIAN_POINT('',(-0.00170589685304419,-0.0100943761339948,0.));
#346=CARTESIAN_POINT('',(-0.0023,-0.0107704245425997,0.));
#347=CARTESIAN_POINT('',(-0.00192441755077506,-0.0111004818464641,0.));
#348=CARTESIAN_POINT('',(-0.00162395159139511,-0.0113645276895556,0.));
#349=CARTESIAN_POINT('',(-0.00192441755077506,-0.0111004818464641,0.));
#350=CARTESIAN_POINT('',(-0.00263727464717794,-0.0119116640596122,0.));
#351=CARTESIAN_POINT('',(-0.00233680868779799,-0.0121757099027037,0.));
#352=CARTESIAN_POINT('',(0.00263727464717794,-0.0119116640596122,0.));
#353=CARTESIAN_POINT('',(-0.00263727464717794,-0.0119116640596122,0.));
#354=(
GEOMETRIC_REPRESENTATION_CONTEXT(3)
GLOBAL_UNCERTAINTY_ASSIGNED_CONTEXT((#355))
GLOBAL_UNIT_ASSIGNED_CONTEXT((#358,#357,#356))
REPRESENTATION_CONTEXT('id2','TOP_LEVEL_ASSEMBLY_PART')
);
#355=UNCERTAINTY_MEASURE_WITH_UNIT(LENGTH_MEASURE(1.E-8),#358,
'DISTANCE_ACCURACY_VALUE','Maximum Tolerance applied to model');
#356=(
NAMED_UNIT(*)
SI_UNIT($,.STERADIAN.)
SOLID_ANGLE_UNIT()
);
#357=(
NAMED_UNIT(*)
PLANE_ANGLE_UNIT()
SI_UNIT($,.RADIAN.)
);
#358=(
LENGTH_UNIT()
NAMED_UNIT(*)
SI_UNIT($,.METRE.)
);
#359=PRODUCT_DEFINITION_SHAPE('','',#360);
#360=PRODUCT_DEFINITION('','',#362,#361);
#361=DESIGN_CONTEXT('',#368,'design');
#362=PRODUCT_DEFINITION_FORMATION_WITH_SPECIFIED_SOURCE('','',#364,
 .NOT_KNOWN.);
#363=PRODUCT_RELATED_PRODUCT_CATEGORY('','',(#364));
#364=PRODUCT('id2','id2','id2',(#366));
#365=PRODUCT_CATEGORY('','');
#366=MECHANICAL_CONTEXT('',#368,'mechanical');
#367=APPLICATION_PROTOCOL_DEFINITION('international standard',
'config_control_design',2010,#368);
#368=APPLICATION_CONTEXT(
'configuration controlled 3D designs of mechanical parts and assemblie
s');
ENDSEC;
END-ISO-10303-21;
