ISO-10303-21;
HEADER;
/* Generated by software containing ST-Developer
 * from STEP Tools, Inc. (www.steptools.com) 
 */
/* OPTION: using custom renumber hook */

FILE_DESCRIPTION(
/* description */ ('STEP AP203'),
/* implementation_level */ '2;1');

FILE_NAME(
/* name */ '6a546772b91097225593a8a2',
/* time_stamp */ '2026-07-13T04:20:02Z',
/* author */ (''),
/* organization */ (''),
/* preprocessor_version */ 'ST-DEVELOPER v20',
/* originating_system */ 'ONSHAPE BY PTC INC, 1.217',
/* authorisation */ '  ');

FILE_SCHEMA (('CONFIG_CONTROL_DESIGN'));
ENDSEC;

DATA;
#10=PROPERTY_DEFINITION_REPRESENTATION(#14,#12);
#11=PROPERTY_DEFINITION_REPRESENTATION(#15,#13);
#12=REPRESENTATION('',(#16),#410);
#13=REPRESENTATION('',(#17),#410);
#14=PROPERTY_DEFINITION('pmi validation property','',#415);
#15=PROPERTY_DEFINITION('pmi validation property','',#415);
#16=VALUE_REPRESENTATION_ITEM('number of annotations',COUNT_MEASURE(0.));
#17=VALUE_REPRESENTATION_ITEM('number of views',COUNT_MEASURE(0.));
#18=SHAPE_REPRESENTATION_RELATIONSHIP('','',#244,#19);
#19=ADVANCED_BREP_SHAPE_REPRESENTATION('',(#242),#410);
#20=CONICAL_SURFACE('',#271,0.00085,0.78539816339745);
#21=CONICAL_SURFACE('',#272,0.00165,0.785398163397453);
#22=CONICAL_SURFACE('',#273,0.00195,0.785398163397445);
#23=PLANE('',#249);
#24=PLANE('',#253);
#25=PLANE('',#254);
#26=PLANE('',#260);
#27=LINE('',#354,#35);
#28=LINE('',#358,#36);
#29=LINE('',#360,#37);
#30=LINE('',#362,#38);
#31=LINE('',#364,#39);
#32=LINE('',#368,#40);
#33=LINE('',#372,#41);
#34=LINE('',#373,#42);
#35=VECTOR('',#283,1.);
#36=VECTOR('',#286,1.);
#37=VECTOR('',#289,1.);
#38=VECTOR('',#290,1.);
#39=VECTOR('',#291,1.);
#40=VECTOR('',#296,1.);
#41=VECTOR('',#301,1.);
#42=VECTOR('',#302,1.);
#43=ORIENTED_EDGE('',*,*,#93,.F.);
#44=ORIENTED_EDGE('',*,*,#94,.F.);
#45=ORIENTED_EDGE('',*,*,#95,.T.);
#46=ORIENTED_EDGE('',*,*,#96,.T.);
#47=ORIENTED_EDGE('',*,*,#97,.F.);
#48=ORIENTED_EDGE('',*,*,#98,.F.);
#49=ORIENTED_EDGE('',*,*,#99,.T.);
#50=ORIENTED_EDGE('',*,*,#94,.T.);
#51=ORIENTED_EDGE('',*,*,#100,.F.);
#52=ORIENTED_EDGE('',*,*,#101,.F.);
#53=ORIENTED_EDGE('',*,*,#102,.T.);
#54=ORIENTED_EDGE('',*,*,#98,.T.);
#55=ORIENTED_EDGE('',*,*,#103,.F.);
#56=ORIENTED_EDGE('',*,*,#96,.F.);
#57=ORIENTED_EDGE('',*,*,#104,.T.);
#58=ORIENTED_EDGE('',*,*,#101,.T.);
#59=ORIENTED_EDGE('',*,*,#105,.T.);
#60=ORIENTED_EDGE('',*,*,#106,.T.);
#61=ORIENTED_EDGE('',*,*,#107,.T.);
#62=ORIENTED_EDGE('',*,*,#108,.T.);
#63=ORIENTED_EDGE('',*,*,#109,.T.);
#64=ORIENTED_EDGE('',*,*,#95,.F.);
#65=ORIENTED_EDGE('',*,*,#99,.F.);
#66=ORIENTED_EDGE('',*,*,#102,.F.);
#67=ORIENTED_EDGE('',*,*,#104,.F.);
#68=ORIENTED_EDGE('',*,*,#110,.F.);
#69=ORIENTED_EDGE('',*,*,#111,.F.);
#70=ORIENTED_EDGE('',*,*,#112,.F.);
#71=ORIENTED_EDGE('',*,*,#113,.T.);
#72=ORIENTED_EDGE('',*,*,#114,.T.);
#73=ORIENTED_EDGE('',*,*,#93,.T.);
#74=ORIENTED_EDGE('',*,*,#103,.T.);
#75=ORIENTED_EDGE('',*,*,#100,.T.);
#76=ORIENTED_EDGE('',*,*,#97,.T.);
#77=ORIENTED_EDGE('',*,*,#115,.T.);
#78=ORIENTED_EDGE('',*,*,#116,.T.);
#79=ORIENTED_EDGE('',*,*,#117,.T.);
#80=ORIENTED_EDGE('',*,*,#109,.F.);
#81=ORIENTED_EDGE('',*,*,#113,.F.);
#82=ORIENTED_EDGE('',*,*,#117,.F.);
#83=ORIENTED_EDGE('',*,*,#114,.F.);
#84=ORIENTED_EDGE('',*,*,#116,.F.);
#85=ORIENTED_EDGE('',*,*,#115,.F.);
#86=ORIENTED_EDGE('',*,*,#108,.F.);
#87=ORIENTED_EDGE('',*,*,#107,.F.);
#88=ORIENTED_EDGE('',*,*,#112,.T.);
#89=ORIENTED_EDGE('',*,*,#106,.F.);
#90=ORIENTED_EDGE('',*,*,#111,.T.);
#91=ORIENTED_EDGE('',*,*,#105,.F.);
#92=ORIENTED_EDGE('',*,*,#110,.T.);
#93=EDGE_CURVE('',#118,#119,#139,.T.);
#94=EDGE_CURVE('',#120,#118,#27,.T.);
#95=EDGE_CURVE('',#120,#121,#140,.T.);
#96=EDGE_CURVE('',#121,#119,#28,.T.);
#97=EDGE_CURVE('',#122,#118,#29,.T.);
#98=EDGE_CURVE('',#123,#122,#30,.T.);
#99=EDGE_CURVE('',#123,#120,#31,.T.);
#100=EDGE_CURVE('',#124,#122,#141,.T.);
#101=EDGE_CURVE('',#125,#124,#32,.T.);
#102=EDGE_CURVE('',#125,#123,#142,.T.);
#103=EDGE_CURVE('',#119,#124,#33,.T.);
#104=EDGE_CURVE('',#121,#125,#34,.T.);
#105=EDGE_CURVE('',#126,#126,#143,.T.);
#106=EDGE_CURVE('',#127,#127,#144,.T.);
#107=EDGE_CURVE('',#128,#128,#145,.T.);
#108=EDGE_CURVE('',#129,#129,#146,.T.);
#109=EDGE_CURVE('',#130,#130,#147,.T.);
#110=EDGE_CURVE('',#131,#131,#148,.T.);
#111=EDGE_CURVE('',#132,#132,#149,.T.);
#112=EDGE_CURVE('',#133,#133,#150,.T.);
#113=EDGE_CURVE('',#134,#134,#151,.F.);
#114=EDGE_CURVE('',#135,#135,#152,.F.);
#115=EDGE_CURVE('',#136,#136,#153,.F.);
#116=EDGE_CURVE('',#137,#137,#154,.T.);
#117=EDGE_CURVE('',#138,#138,#155,.T.);
#118=VERTEX_POINT('',#352);
#119=VERTEX_POINT('',#353);
#120=VERTEX_POINT('',#355);
#121=VERTEX_POINT('',#357);
#122=VERTEX_POINT('',#361);
#123=VERTEX_POINT('',#363);
#124=VERTEX_POINT('',#367);
#125=VERTEX_POINT('',#369);
#126=VERTEX_POINT('',#376);
#127=VERTEX_POINT('',#378);
#128=VERTEX_POINT('',#380);
#129=VERTEX_POINT('',#382);
#130=VERTEX_POINT('',#384);
#131=VERTEX_POINT('',#387);
#132=VERTEX_POINT('',#389);
#133=VERTEX_POINT('',#391);
#134=VERTEX_POINT('',#393);
#135=VERTEX_POINT('',#395);
#136=VERTEX_POINT('',#398);
#137=VERTEX_POINT('',#400);
#138=VERTEX_POINT('',#403);
#139=CIRCLE('',#247,0.003);
#140=CIRCLE('',#248,0.003);
#141=CIRCLE('',#251,0.002);
#142=CIRCLE('',#252,0.002);
#143=CIRCLE('',#255,0.00045);
#144=CIRCLE('',#256,0.00045);
#145=CIRCLE('',#257,0.00045);
#146=CIRCLE('',#258,0.00195);
#147=CIRCLE('',#259,0.00085);
#148=CIRCLE('',#261,0.00045);
#149=CIRCLE('',#262,0.00045);
#150=CIRCLE('',#263,0.00045);
#151=CIRCLE('',#264,0.001);
#152=CIRCLE('',#265,0.0018);
#153=CIRCLE('',#267,0.00165);
#154=CIRCLE('',#268,0.00165);
#155=CIRCLE('',#270,0.00085);
#156=EDGE_LOOP('',(#43,#44,#45,#46));
#157=EDGE_LOOP('',(#47,#48,#49,#50));
#158=EDGE_LOOP('',(#51,#52,#53,#54));
#159=EDGE_LOOP('',(#55,#56,#57,#58));
#160=EDGE_LOOP('',(#59));
#161=EDGE_LOOP('',(#60));
#162=EDGE_LOOP('',(#61));
#163=EDGE_LOOP('',(#62));
#164=EDGE_LOOP('',(#63));
#165=EDGE_LOOP('',(#64,#65,#66,#67));
#166=EDGE_LOOP('',(#68));
#167=EDGE_LOOP('',(#69));
#168=EDGE_LOOP('',(#70));
#169=EDGE_LOOP('',(#71));
#170=EDGE_LOOP('',(#72));
#171=EDGE_LOOP('',(#73,#74,#75,#76));
#172=EDGE_LOOP('',(#77));
#173=EDGE_LOOP('',(#78));
#174=EDGE_LOOP('',(#79));
#175=EDGE_LOOP('',(#80));
#176=EDGE_LOOP('',(#81));
#177=EDGE_LOOP('',(#82));
#178=EDGE_LOOP('',(#83));
#179=EDGE_LOOP('',(#84));
#180=EDGE_LOOP('',(#85));
#181=EDGE_LOOP('',(#86));
#182=EDGE_LOOP('',(#87));
#183=EDGE_LOOP('',(#88));
#184=EDGE_LOOP('',(#89));
#185=EDGE_LOOP('',(#90));
#186=EDGE_LOOP('',(#91));
#187=EDGE_LOOP('',(#92));
#188=FACE_BOUND('',#156,.T.);
#189=FACE_BOUND('',#157,.T.);
#190=FACE_BOUND('',#158,.T.);
#191=FACE_BOUND('',#159,.T.);
#192=FACE_BOUND('',#160,.T.);
#193=FACE_BOUND('',#161,.T.);
#194=FACE_BOUND('',#162,.T.);
#195=FACE_BOUND('',#163,.T.);
#196=FACE_BOUND('',#164,.T.);
#197=FACE_BOUND('',#165,.T.);
#198=FACE_BOUND('',#166,.T.);
#199=FACE_BOUND('',#167,.T.);
#200=FACE_BOUND('',#168,.T.);
#201=FACE_BOUND('',#169,.T.);
#202=FACE_BOUND('',#170,.T.);
#203=FACE_BOUND('',#171,.T.);
#204=FACE_BOUND('',#172,.T.);
#205=FACE_BOUND('',#173,.T.);
#206=FACE_BOUND('',#174,.T.);
#207=FACE_BOUND('',#175,.T.);
#208=FACE_BOUND('',#176,.T.);
#209=FACE_BOUND('',#177,.T.);
#210=FACE_BOUND('',#178,.T.);
#211=FACE_BOUND('',#179,.T.);
#212=FACE_BOUND('',#180,.T.);
#213=FACE_BOUND('',#181,.T.);
#214=FACE_BOUND('',#182,.T.);
#215=FACE_BOUND('',#183,.T.);
#216=FACE_BOUND('',#184,.T.);
#217=FACE_BOUND('',#185,.T.);
#218=FACE_BOUND('',#186,.T.);
#219=FACE_BOUND('',#187,.T.);
#220=CYLINDRICAL_SURFACE('',#246,0.003);
#221=CYLINDRICAL_SURFACE('',#250,0.002);
#222=CYLINDRICAL_SURFACE('',#266,0.00165);
#223=CYLINDRICAL_SURFACE('',#269,0.00085);
#224=CYLINDRICAL_SURFACE('',#274,0.00045);
#225=CYLINDRICAL_SURFACE('',#275,0.00045);
#226=CYLINDRICAL_SURFACE('',#276,0.00045);
#227=ADVANCED_FACE('',(#188),#220,.T.);
#228=ADVANCED_FACE('',(#189),#23,.T.);
#229=ADVANCED_FACE('',(#190),#221,.T.);
#230=ADVANCED_FACE('',(#191),#24,.T.);
#231=ADVANCED_FACE('',(#192,#193,#194,#195,#196,#197),#25,.F.);
#232=ADVANCED_FACE('',(#198,#199,#200,#201,#202,#203),#26,.T.);
#233=ADVANCED_FACE('',(#204,#205),#222,.F.);
#234=ADVANCED_FACE('',(#206,#207),#223,.F.);
#235=ADVANCED_FACE('',(#208,#209),#20,.F.);
#236=ADVANCED_FACE('',(#210,#211),#21,.F.);
#237=ADVANCED_FACE('',(#212,#213),#22,.F.);
#238=ADVANCED_FACE('',(#214,#215),#224,.F.);
#239=ADVANCED_FACE('',(#216,#217),#225,.F.);
#240=ADVANCED_FACE('',(#218,#219),#226,.F.);
#241=CLOSED_SHELL('',(#227,#228,#229,#230,#231,#232,#233,#234,#235,#236,
#237,#238,#239,#240));
#242=MANIFOLD_SOLID_BREP('',#241);
#243=SHAPE_DEFINITION_REPRESENTATION(#415,#244);
#244=SHAPE_REPRESENTATION('id2',(#245),#410);
#245=AXIS2_PLACEMENT_3D('',#349,#277,#278);
#246=AXIS2_PLACEMENT_3D('',#350,#279,#280);
#247=AXIS2_PLACEMENT_3D('',#351,#281,#282);
#248=AXIS2_PLACEMENT_3D('',#356,#284,#285);
#249=AXIS2_PLACEMENT_3D('',#359,#287,#288);
#250=AXIS2_PLACEMENT_3D('',#365,#292,#293);
#251=AXIS2_PLACEMENT_3D('',#366,#294,#295);
#252=AXIS2_PLACEMENT_3D('',#370,#297,#298);
#253=AXIS2_PLACEMENT_3D('',#371,#299,#300);
#254=AXIS2_PLACEMENT_3D('',#374,#303,#304);
#255=AXIS2_PLACEMENT_3D('',#375,#305,#306);
#256=AXIS2_PLACEMENT_3D('',#377,#307,#308);
#257=AXIS2_PLACEMENT_3D('',#379,#309,#310);
#258=AXIS2_PLACEMENT_3D('',#381,#311,#312);
#259=AXIS2_PLACEMENT_3D('',#383,#313,#314);
#260=AXIS2_PLACEMENT_3D('',#385,#315,#316);
#261=AXIS2_PLACEMENT_3D('',#386,#317,#318);
#262=AXIS2_PLACEMENT_3D('',#388,#319,#320);
#263=AXIS2_PLACEMENT_3D('',#390,#321,#322);
#264=AXIS2_PLACEMENT_3D('',#392,#323,#324);
#265=AXIS2_PLACEMENT_3D('',#394,#325,#326);
#266=AXIS2_PLACEMENT_3D('',#396,#327,#328);
#267=AXIS2_PLACEMENT_3D('',#397,#329,#330);
#268=AXIS2_PLACEMENT_3D('',#399,#331,#332);
#269=AXIS2_PLACEMENT_3D('',#401,#333,#334);
#270=AXIS2_PLACEMENT_3D('',#402,#335,#336);
#271=AXIS2_PLACEMENT_3D('',#404,#337,#338);
#272=AXIS2_PLACEMENT_3D('',#405,#339,#340);
#273=AXIS2_PLACEMENT_3D('',#406,#341,#342);
#274=AXIS2_PLACEMENT_3D('',#407,#343,#344);
#275=AXIS2_PLACEMENT_3D('',#408,#345,#346);
#276=AXIS2_PLACEMENT_3D('',#409,#347,#348);
#277=DIRECTION('',(0.,0.,1.));
#278=DIRECTION('',(1.,0.,0.));
#279=DIRECTION('',(0.,0.,1.));
#280=DIRECTION('',(1.,0.,0.));
#281=DIRECTION('',(0.,0.,1.));
#282=DIRECTION('',(1.,0.,0.));
#283=DIRECTION('',(0.,0.,1.));
#284=DIRECTION('',(0.,0.,1.));
#285=DIRECTION('',(1.,0.,0.));
#286=DIRECTION('',(0.,0.,1.));
#287=DIRECTION('',(0.0892857142857142,0.996006054813167,0.));
#288=DIRECTION('',(-0.996006054813167,0.0892857142857142,0.));
#289=DIRECTION('',(-0.996006054813167,0.0892857142857143,0.));
#290=DIRECTION('',(0.,0.,1.));
#291=DIRECTION('',(-0.996006054813167,0.0892857142857143,0.));
#292=DIRECTION('',(0.,0.,1.));
#293=DIRECTION('',(1.,0.,0.));
#294=DIRECTION('',(0.,0.,1.));
#295=DIRECTION('',(1.,0.,0.));
#296=DIRECTION('',(0.,0.,1.));
#297=DIRECTION('',(0.,0.,1.));
#298=DIRECTION('',(1.,0.,0.));
#299=DIRECTION('',(0.0892857142857142,-0.996006054813167,0.));
#300=DIRECTION('',(0.996006054813167,0.0892857142857142,0.));
#301=DIRECTION('',(0.996006054813167,0.0892857142857143,0.));
#302=DIRECTION('',(0.996006054813167,0.0892857142857143,0.));
#303=DIRECTION('',(0.,0.,1.));
#304=DIRECTION('',(1.,0.,0.));
#305=DIRECTION('',(0.,0.,1.));
#306=DIRECTION('',(1.,0.,0.));
#307=DIRECTION('',(0.,0.,1.));
#308=DIRECTION('',(1.,0.,0.));
#309=DIRECTION('',(0.,0.,1.));
#310=DIRECTION('',(1.,0.,0.));
#311=DIRECTION('',(0.,0.,1.));
#312=DIRECTION('',(1.,0.,0.));
#313=DIRECTION('',(0.,0.,1.));
#314=DIRECTION('',(1.,0.,0.));
#315=DIRECTION('',(0.,0.,1.));
#316=DIRECTION('',(1.,0.,0.));
#317=DIRECTION('',(0.,0.,1.));
#318=DIRECTION('',(1.,0.,0.));
#319=DIRECTION('',(0.,0.,1.));
#320=DIRECTION('',(1.,0.,0.));
#321=DIRECTION('',(0.,0.,1.));
#322=DIRECTION('',(1.,0.,0.));
#323=DIRECTION('',(0.,0.,1.));
#324=DIRECTION('',(1.,0.,0.));
#325=DIRECTION('',(0.,0.,1.));
#326=DIRECTION('',(1.,0.,0.));
#327=DIRECTION('',(0.,0.,1.));
#328=DIRECTION('',(1.,0.,0.));
#329=DIRECTION('',(0.,0.,1.));
#330=DIRECTION('',(1.,0.,0.));
#331=DIRECTION('',(0.,0.,1.));
#332=DIRECTION('',(1.,0.,0.));
#333=DIRECTION('',(0.,0.,1.));
#334=DIRECTION('',(1.,0.,0.));
#335=DIRECTION('',(0.,0.,1.));
#336=DIRECTION('',(1.,0.,0.));
#337=DIRECTION('',(0.,0.,1.));
#338=DIRECTION('',(1.,0.,0.));
#339=DIRECTION('',(0.,0.,1.));
#340=DIRECTION('',(1.,0.,0.));
#341=DIRECTION('',(0.,0.,-1.));
#342=DIRECTION('',(-1.,0.,0.));
#343=DIRECTION('',(0.,0.,1.));
#344=DIRECTION('',(1.,0.,0.));
#345=DIRECTION('',(0.,0.,1.));
#346=DIRECTION('',(1.,0.,0.));
#347=DIRECTION('',(0.,0.,1.));
#348=DIRECTION('',(1.,0.,0.));
#349=CARTESIAN_POINT('',(0.,0.,0.));
#350=CARTESIAN_POINT('',(0.,0.,-0.001));
#351=CARTESIAN_POINT('',(0.,0.,0.));
#352=CARTESIAN_POINT('',(0.000267857142857143,0.0029880181644395,0.));
#353=CARTESIAN_POINT('',(0.000267857142857143,-0.0029880181644395,0.));
#354=CARTESIAN_POINT('',(0.000267857142857143,0.0029880181644395,-0.001));
#355=CARTESIAN_POINT('',(0.000267857142857143,0.0029880181644395,-0.001));
#356=CARTESIAN_POINT('',(0.,0.,-0.001));
#357=CARTESIAN_POINT('',(0.000267857142857143,-0.0029880181644395,-0.001));
#358=CARTESIAN_POINT('',(0.000267857142857143,-0.0029880181644395,-0.001));
#359=CARTESIAN_POINT('',(0.000267857142857143,0.0029880181644395,-0.001));
#360=CARTESIAN_POINT('',(0.000267857142857143,0.0029880181644395,0.));
#361=CARTESIAN_POINT('',(0.0113785714285714,0.00199201210962634,0.));
#362=CARTESIAN_POINT('',(0.0113785714285714,0.00199201210962634,-0.001));
#363=CARTESIAN_POINT('',(0.0113785714285714,0.00199201210962634,-0.001));
#364=CARTESIAN_POINT('',(0.000267857142857143,0.0029880181644395,-0.001));
#365=CARTESIAN_POINT('',(0.0112,0.,-0.001));
#366=CARTESIAN_POINT('',(0.0112,0.,0.));
#367=CARTESIAN_POINT('',(0.0113785714285714,-0.00199201210962634,0.));
#368=CARTESIAN_POINT('',(0.0113785714285714,-0.00199201210962634,-0.001));
#369=CARTESIAN_POINT('',(0.0113785714285714,-0.00199201210962634,-0.001));
#370=CARTESIAN_POINT('',(0.0112,0.,-0.001));
#371=CARTESIAN_POINT('',(0.000267857142857143,-0.0029880181644395,-0.001));
#372=CARTESIAN_POINT('',(0.000267857142857143,-0.0029880181644395,0.));
#373=CARTESIAN_POINT('',(0.000267857142857143,-0.0029880181644395,-0.001));
#374=CARTESIAN_POINT('',(0.,0.,-0.001));
#375=CARTESIAN_POINT('',(0.0029,0.,-0.001));
#376=CARTESIAN_POINT('',(0.00335,0.,-0.001));
#377=CARTESIAN_POINT('',(0.00251147367097487,0.00145,-0.001));
#378=CARTESIAN_POINT('',(0.00296147367097487,0.00145,-0.001));
#379=CARTESIAN_POINT('',(0.00251147367097487,-0.00145,-0.001));
#380=CARTESIAN_POINT('',(0.00296147367097487,-0.00145,-0.001));
#381=CARTESIAN_POINT('',(0.,0.,-0.001));
#382=CARTESIAN_POINT('',(0.00195,0.,-0.001));
#383=CARTESIAN_POINT('',(0.0112,0.,-0.001));
#384=CARTESIAN_POINT('',(0.01205,0.,-0.001));
#385=CARTESIAN_POINT('',(0.,0.,0.));
#386=CARTESIAN_POINT('',(0.0029,0.,3.6739403974419E-20));
#387=CARTESIAN_POINT('',(0.00335,0.,3.6739403974419E-20));
#388=CARTESIAN_POINT('',(0.00251147367097487,0.00145,3.6739403974419E-20));
#389=CARTESIAN_POINT('',(0.00296147367097487,0.00145,3.6739403974419E-20));
#390=CARTESIAN_POINT('',(0.00251147367097487,-0.00145,3.6739403974419E-20));
#391=CARTESIAN_POINT('',(0.00296147367097487,-0.00145,3.6739403974419E-20));
#392=CARTESIAN_POINT('',(0.0112,0.,0.));
#393=CARTESIAN_POINT('',(0.0122,0.,0.));
#394=CARTESIAN_POINT('',(0.,0.,0.));
#395=CARTESIAN_POINT('',(0.0018,0.,0.));
#396=CARTESIAN_POINT('',(0.,0.,-0.001));
#397=CARTESIAN_POINT('',(0.,0.,-0.0007));
#398=CARTESIAN_POINT('',(0.00165,0.,-0.0007));
#399=CARTESIAN_POINT('',(0.,0.,-0.00015));
#400=CARTESIAN_POINT('',(0.00165,0.,-0.00015));
#401=CARTESIAN_POINT('',(0.0112,0.,-0.001));
#402=CARTESIAN_POINT('',(0.0112,0.,-0.00015));
#403=CARTESIAN_POINT('',(0.01205,0.,-0.00015));
#404=CARTESIAN_POINT('',(0.0112,0.,-0.00015));
#405=CARTESIAN_POINT('',(0.,0.,-0.00015));
#406=CARTESIAN_POINT('',(0.,0.,-0.001));
#407=CARTESIAN_POINT('',(0.00251147367097487,-0.00145,0.));
#408=CARTESIAN_POINT('',(0.00251147367097487,0.00145,0.));
#409=CARTESIAN_POINT('',(0.0029,0.,0.));
#410=(
GEOMETRIC_REPRESENTATION_CONTEXT(3)
GLOBAL_UNCERTAINTY_ASSIGNED_CONTEXT((#411))
GLOBAL_UNIT_ASSIGNED_CONTEXT((#414,#413,#412))
REPRESENTATION_CONTEXT('id2','TOP_LEVEL_ASSEMBLY_PART')
);
#411=UNCERTAINTY_MEASURE_WITH_UNIT(LENGTH_MEASURE(1.E-8),#414,
'DISTANCE_ACCURACY_VALUE','Maximum Tolerance applied to model');
#412=(
NAMED_UNIT(*)
SI_UNIT($,.STERADIAN.)
SOLID_ANGLE_UNIT()
);
#413=(
NAMED_UNIT(*)
PLANE_ANGLE_UNIT()
SI_UNIT($,.RADIAN.)
);
#414=(
LENGTH_UNIT()
NAMED_UNIT(*)
SI_UNIT($,.METRE.)
);
#415=PRODUCT_DEFINITION_SHAPE('','',#416);
#416=PRODUCT_DEFINITION('','',#418,#417);
#417=DESIGN_CONTEXT('',#424,'design');
#418=PRODUCT_DEFINITION_FORMATION_WITH_SPECIFIED_SOURCE('','',#420,
 .NOT_KNOWN.);
#419=PRODUCT_RELATED_PRODUCT_CATEGORY('','',(#420));
#420=PRODUCT('id2','id2','id2',(#422));
#421=PRODUCT_CATEGORY('','');
#422=MECHANICAL_CONTEXT('',#424,'mechanical');
#423=APPLICATION_PROTOCOL_DEFINITION('international standard',
'config_control_design',2010,#424);
#424=APPLICATION_CONTEXT(
'configuration controlled 3D designs of mechanical parts and assemblie
s');
ENDSEC;
END-ISO-10303-21;
