ISO-10303-21;
HEADER;
/* Generated by software containing ST-Developer
 * from STEP Tools, Inc. (www.steptools.com) 
 */
/* OPTION: using custom renumber hook */

FILE_DESCRIPTION(
/* description */ ('STEP AP203'),
/* implementation_level */ '2;1');

FILE_NAME(
/* name */ '6a5467c61a0e29606cf52ac7',
/* time_stamp */ '2026-07-13T04:21:26Z',
/* author */ (''),
/* organization */ (''),
/* preprocessor_version */ 'ST-DEVELOPER v20',
/* originating_system */ 'ONSHAPE BY PTC INC, 1.217',
/* authorisation */ '  ');

FILE_SCHEMA (('CONFIG_CONTROL_DESIGN'));
ENDSEC;

DATA;
#10=PROPERTY_DEFINITION_REPRESENTATION(#14,#12);
#11=PROPERTY_DEFINITION_REPRESENTATION(#15,#13);
#12=REPRESENTATION('',(#16),#656);
#13=REPRESENTATION('',(#17),#656);
#14=PROPERTY_DEFINITION('pmi validation property','',#661);
#15=PROPERTY_DEFINITION('pmi validation property','',#661);
#16=VALUE_REPRESENTATION_ITEM('number of annotations',COUNT_MEASURE(0.));
#17=VALUE_REPRESENTATION_ITEM('number of views',COUNT_MEASURE(0.));
#18=SHAPE_REPRESENTATION_RELATIONSHIP('','',#399,#19);
#19=ADVANCED_BREP_SHAPE_REPRESENTATION('',(#397),#656);
#20=PLANE('',#407);
#21=PLANE('',#413);
#22=PLANE('',#419);
#23=PLANE('',#420);
#24=PLANE('',#421);
#25=PLANE('',#422);
#26=PLANE('',#423);
#27=PLANE('',#425);
#28=PLANE('',#426);
#29=PLANE('',#427);
#30=PLANE('',#429);
#31=PLANE('',#430);
#32=PLANE('',#432);
#33=LINE('',#550,#73);
#34=LINE('',#554,#74);
#35=LINE('',#559,#75);
#36=LINE('',#563,#76);
#37=LINE('',#565,#77);
#38=LINE('',#569,#78);
#39=LINE('',#570,#79);
#40=LINE('',#574,#80);
#41=LINE('',#578,#81);
#42=LINE('',#579,#82);
#43=LINE('',#582,#83);
#44=LINE('',#586,#84);
#45=LINE('',#588,#85);
#46=LINE('',#590,#86);
#47=LINE('',#594,#87);
#48=LINE('',#596,#88);
#49=LINE('',#599,#89);
#50=LINE('',#601,#90);
#51=LINE('',#605,#91);
#52=LINE('',#607,#92);
#53=LINE('',#609,#93);
#54=LINE('',#615,#94);
#55=LINE('',#616,#95);
#56=LINE('',#620,#96);
#57=LINE('',#624,#97);
#58=LINE('',#625,#98);
#59=LINE('',#627,#99);
#60=LINE('',#629,#100);
#61=LINE('',#630,#101);
#62=LINE('',#632,#102);
#63=LINE('',#634,#103);
#64=LINE('',#635,#104);
#65=LINE('',#637,#105);
#66=LINE('',#639,#106);
#67=LINE('',#641,#107);
#68=LINE('',#643,#108);
#69=LINE('',#645,#109);
#70=LINE('',#647,#110);
#71=LINE('',#650,#111);
#72=LINE('',#652,#112);
#73=VECTOR('',#441,1.);
#74=VECTOR('',#444,1.);
#75=VECTOR('',#449,1.);
#76=VECTOR('',#452,1.);
#77=VECTOR('',#455,1.);
#78=VECTOR('',#458,1.);
#79=VECTOR('',#459,1.);
#80=VECTOR('',#462,1.);
#81=VECTOR('',#465,1.);
#82=VECTOR('',#466,1.);
#83=VECTOR('',#467,1.);
#84=VECTOR('',#470,1.);
#85=VECTOR('',#471,1.);
#86=VECTOR('',#472,1.);
#87=VECTOR('',#475,1.);
#88=VECTOR('',#478,1.);
#89=VECTOR('',#479,1.);
#90=VECTOR('',#480,1.);
#91=VECTOR('',#483,1.);
#92=VECTOR('',#484,1.);
#93=VECTOR('',#485,1.);
#94=VECTOR('',#490,1.);
#95=VECTOR('',#491,1.);
#96=VECTOR('',#494,1.);
#97=VECTOR('',#497,1.);
#98=VECTOR('',#498,1.);
#99=VECTOR('',#501,1.);
#100=VECTOR('',#504,1.);
#101=VECTOR('',#505,1.);
#102=VECTOR('',#508,1.);
#103=VECTOR('',#511,1.);
#104=VECTOR('',#512,1.);
#105=VECTOR('',#515,1.);
#106=VECTOR('',#518,1.);
#107=VECTOR('',#521,1.);
#108=VECTOR('',#524,1.);
#109=VECTOR('',#527,1.);
#110=VECTOR('',#530,1.);
#111=VECTOR('',#535,1.);
#112=VECTOR('',#538,1.);
#113=ORIENTED_EDGE('',*,*,#221,.T.);
#114=ORIENTED_EDGE('',*,*,#222,.T.);
#115=ORIENTED_EDGE('',*,*,#223,.F.);
#116=ORIENTED_EDGE('',*,*,#224,.F.);
#117=ORIENTED_EDGE('',*,*,#225,.F.);
#118=ORIENTED_EDGE('',*,*,#226,.F.);
#119=ORIENTED_EDGE('',*,*,#227,.T.);
#120=ORIENTED_EDGE('',*,*,#228,.T.);
#121=ORIENTED_EDGE('',*,*,#229,.F.);
#122=ORIENTED_EDGE('',*,*,#230,.F.);
#123=ORIENTED_EDGE('',*,*,#231,.F.);
#124=ORIENTED_EDGE('',*,*,#225,.T.);
#125=ORIENTED_EDGE('',*,*,#232,.F.);
#126=ORIENTED_EDGE('',*,*,#233,.T.);
#127=ORIENTED_EDGE('',*,*,#234,.F.);
#128=ORIENTED_EDGE('',*,*,#235,.T.);
#129=ORIENTED_EDGE('',*,*,#236,.F.);
#130=ORIENTED_EDGE('',*,*,#223,.T.);
#131=ORIENTED_EDGE('',*,*,#237,.F.);
#132=ORIENTED_EDGE('',*,*,#238,.F.);
#133=ORIENTED_EDGE('',*,*,#239,.F.);
#134=ORIENTED_EDGE('',*,*,#240,.F.);
#135=ORIENTED_EDGE('',*,*,#241,.F.);
#136=ORIENTED_EDGE('',*,*,#242,.F.);
#137=ORIENTED_EDGE('',*,*,#243,.F.);
#138=ORIENTED_EDGE('',*,*,#244,.F.);
#139=ORIENTED_EDGE('',*,*,#245,.T.);
#140=ORIENTED_EDGE('',*,*,#246,.T.);
#141=ORIENTED_EDGE('',*,*,#247,.T.);
#142=ORIENTED_EDGE('',*,*,#248,.T.);
#143=ORIENTED_EDGE('',*,*,#249,.T.);
#144=ORIENTED_EDGE('',*,*,#250,.T.);
#145=ORIENTED_EDGE('',*,*,#251,.T.);
#146=ORIENTED_EDGE('',*,*,#252,.T.);
#147=ORIENTED_EDGE('',*,*,#253,.T.);
#148=ORIENTED_EDGE('',*,*,#254,.T.);
#149=ORIENTED_EDGE('',*,*,#221,.F.);
#150=ORIENTED_EDGE('',*,*,#255,.T.);
#151=ORIENTED_EDGE('',*,*,#256,.T.);
#152=ORIENTED_EDGE('',*,*,#257,.T.);
#153=ORIENTED_EDGE('',*,*,#258,.T.);
#154=ORIENTED_EDGE('',*,*,#259,.T.);
#155=ORIENTED_EDGE('',*,*,#227,.F.);
#156=ORIENTED_EDGE('',*,*,#260,.T.);
#157=ORIENTED_EDGE('',*,*,#259,.F.);
#158=ORIENTED_EDGE('',*,*,#261,.T.);
#159=ORIENTED_EDGE('',*,*,#232,.T.);
#160=ORIENTED_EDGE('',*,*,#228,.F.);
#161=ORIENTED_EDGE('',*,*,#234,.T.);
#162=ORIENTED_EDGE('',*,*,#262,.T.);
#163=ORIENTED_EDGE('',*,*,#257,.F.);
#164=ORIENTED_EDGE('',*,*,#263,.T.);
#165=ORIENTED_EDGE('',*,*,#236,.T.);
#166=ORIENTED_EDGE('',*,*,#264,.T.);
#167=ORIENTED_EDGE('',*,*,#255,.F.);
#168=ORIENTED_EDGE('',*,*,#224,.T.);
#169=ORIENTED_EDGE('',*,*,#237,.T.);
#170=ORIENTED_EDGE('',*,*,#265,.F.);
#171=ORIENTED_EDGE('',*,*,#246,.F.);
#172=ORIENTED_EDGE('',*,*,#266,.T.);
#173=ORIENTED_EDGE('',*,*,#238,.T.);
#174=ORIENTED_EDGE('',*,*,#266,.F.);
#175=ORIENTED_EDGE('',*,*,#245,.F.);
#176=ORIENTED_EDGE('',*,*,#267,.T.);
#177=ORIENTED_EDGE('',*,*,#239,.T.);
#178=ORIENTED_EDGE('',*,*,#267,.F.);
#179=ORIENTED_EDGE('',*,*,#252,.F.);
#180=ORIENTED_EDGE('',*,*,#268,.T.);
#181=ORIENTED_EDGE('',*,*,#240,.T.);
#182=ORIENTED_EDGE('',*,*,#268,.F.);
#183=ORIENTED_EDGE('',*,*,#251,.F.);
#184=ORIENTED_EDGE('',*,*,#269,.T.);
#185=ORIENTED_EDGE('',*,*,#241,.T.);
#186=ORIENTED_EDGE('',*,*,#269,.F.);
#187=ORIENTED_EDGE('',*,*,#250,.F.);
#188=ORIENTED_EDGE('',*,*,#270,.T.);
#189=ORIENTED_EDGE('',*,*,#242,.T.);
#190=ORIENTED_EDGE('',*,*,#270,.F.);
#191=ORIENTED_EDGE('',*,*,#249,.F.);
#192=ORIENTED_EDGE('',*,*,#271,.T.);
#193=ORIENTED_EDGE('',*,*,#243,.T.);
#194=ORIENTED_EDGE('',*,*,#271,.F.);
#195=ORIENTED_EDGE('',*,*,#248,.F.);
#196=ORIENTED_EDGE('',*,*,#272,.T.);
#197=ORIENTED_EDGE('',*,*,#244,.T.);
#198=ORIENTED_EDGE('',*,*,#272,.F.);
#199=ORIENTED_EDGE('',*,*,#247,.F.);
#200=ORIENTED_EDGE('',*,*,#265,.T.);
#201=ORIENTED_EDGE('',*,*,#229,.T.);
#202=ORIENTED_EDGE('',*,*,#222,.F.);
#203=ORIENTED_EDGE('',*,*,#254,.F.);
#204=ORIENTED_EDGE('',*,*,#273,.T.);
#205=ORIENTED_EDGE('',*,*,#230,.T.);
#206=ORIENTED_EDGE('',*,*,#273,.F.);
#207=ORIENTED_EDGE('',*,*,#253,.F.);
#208=ORIENTED_EDGE('',*,*,#274,.T.);
#209=ORIENTED_EDGE('',*,*,#231,.T.);
#210=ORIENTED_EDGE('',*,*,#274,.F.);
#211=ORIENTED_EDGE('',*,*,#260,.F.);
#212=ORIENTED_EDGE('',*,*,#226,.T.);
#213=ORIENTED_EDGE('',*,*,#258,.F.);
#214=ORIENTED_EDGE('',*,*,#262,.F.);
#215=ORIENTED_EDGE('',*,*,#233,.F.);
#216=ORIENTED_EDGE('',*,*,#261,.F.);
#217=ORIENTED_EDGE('',*,*,#256,.F.);
#218=ORIENTED_EDGE('',*,*,#264,.F.);
#219=ORIENTED_EDGE('',*,*,#235,.F.);
#220=ORIENTED_EDGE('',*,*,#263,.F.);
#221=EDGE_CURVE('',#275,#276,#311,.T.);
#222=EDGE_CURVE('',#276,#277,#33,.T.);
#223=EDGE_CURVE('',#278,#277,#312,.T.);
#224=EDGE_CURVE('',#275,#278,#34,.T.);
#225=EDGE_CURVE('',#279,#280,#313,.T.);
#226=EDGE_CURVE('',#281,#279,#35,.T.);
#227=EDGE_CURVE('',#281,#282,#314,.T.);
#228=EDGE_CURVE('',#282,#280,#36,.T.);
#229=EDGE_CURVE('',#283,#277,#37,.T.);
#230=EDGE_CURVE('',#284,#283,#315,.T.);
#231=EDGE_CURVE('',#279,#284,#38,.T.);
#232=EDGE_CURVE('',#285,#280,#39,.T.);
#233=EDGE_CURVE('',#285,#286,#316,.F.);
#234=EDGE_CURVE('',#287,#286,#40,.T.);
#235=EDGE_CURVE('',#287,#288,#317,.F.);
#236=EDGE_CURVE('',#278,#288,#41,.T.);
#237=EDGE_CURVE('',#289,#290,#42,.T.);
#238=EDGE_CURVE('',#291,#289,#43,.T.);
#239=EDGE_CURVE('',#292,#291,#318,.T.);
#240=EDGE_CURVE('',#293,#292,#44,.T.);
#241=EDGE_CURVE('',#294,#293,#45,.T.);
#242=EDGE_CURVE('',#295,#294,#46,.T.);
#243=EDGE_CURVE('',#296,#295,#319,.T.);
#244=EDGE_CURVE('',#290,#296,#47,.T.);
#245=EDGE_CURVE('',#297,#298,#48,.T.);
#246=EDGE_CURVE('',#298,#299,#49,.T.);
#247=EDGE_CURVE('',#299,#300,#50,.T.);
#248=EDGE_CURVE('',#300,#301,#320,.T.);
#249=EDGE_CURVE('',#301,#302,#51,.T.);
#250=EDGE_CURVE('',#302,#303,#52,.T.);
#251=EDGE_CURVE('',#303,#304,#53,.T.);
#252=EDGE_CURVE('',#304,#297,#321,.T.);
#253=EDGE_CURVE('',#305,#306,#322,.T.);
#254=EDGE_CURVE('',#306,#276,#54,.T.);
#255=EDGE_CURVE('',#275,#307,#55,.T.);
#256=EDGE_CURVE('',#307,#308,#323,.T.);
#257=EDGE_CURVE('',#308,#309,#56,.T.);
#258=EDGE_CURVE('',#309,#310,#324,.T.);
#259=EDGE_CURVE('',#310,#282,#57,.T.);
#260=EDGE_CURVE('',#281,#305,#58,.T.);
#261=EDGE_CURVE('',#310,#285,#59,.T.);
#262=EDGE_CURVE('',#286,#309,#60,.F.);
#263=EDGE_CURVE('',#308,#287,#61,.T.);
#264=EDGE_CURVE('',#288,#307,#62,.F.);
#265=EDGE_CURVE('',#299,#290,#63,.T.);
#266=EDGE_CURVE('',#298,#289,#64,.T.);
#267=EDGE_CURVE('',#297,#291,#65,.T.);
#268=EDGE_CURVE('',#304,#292,#66,.T.);
#269=EDGE_CURVE('',#303,#293,#67,.T.);
#270=EDGE_CURVE('',#302,#294,#68,.T.);
#271=EDGE_CURVE('',#301,#295,#69,.T.);
#272=EDGE_CURVE('',#300,#296,#70,.T.);
#273=EDGE_CURVE('',#306,#283,#71,.T.);
#274=EDGE_CURVE('',#305,#284,#72,.T.);
#275=VERTEX_POINT('',#548);
#276=VERTEX_POINT('',#549);
#277=VERTEX_POINT('',#551);
#278=VERTEX_POINT('',#553);
#279=VERTEX_POINT('',#557);
#280=VERTEX_POINT('',#558);
#281=VERTEX_POINT('',#560);
#282=VERTEX_POINT('',#562);
#283=VERTEX_POINT('',#566);
#284=VERTEX_POINT('',#568);
#285=VERTEX_POINT('',#571);
#286=VERTEX_POINT('',#573);
#287=VERTEX_POINT('',#575);
#288=VERTEX_POINT('',#577);
#289=VERTEX_POINT('',#580);
#290=VERTEX_POINT('',#581);
#291=VERTEX_POINT('',#583);
#292=VERTEX_POINT('',#585);
#293=VERTEX_POINT('',#587);
#294=VERTEX_POINT('',#589);
#295=VERTEX_POINT('',#591);
#296=VERTEX_POINT('',#593);
#297=VERTEX_POINT('',#597);
#298=VERTEX_POINT('',#598);
#299=VERTEX_POINT('',#600);
#300=VERTEX_POINT('',#602);
#301=VERTEX_POINT('',#604);
#302=VERTEX_POINT('',#606);
#303=VERTEX_POINT('',#608);
#304=VERTEX_POINT('',#610);
#305=VERTEX_POINT('',#613);
#306=VERTEX_POINT('',#614);
#307=VERTEX_POINT('',#617);
#308=VERTEX_POINT('',#619);
#309=VERTEX_POINT('',#621);
#310=VERTEX_POINT('',#623);
#311=CIRCLE('',#402,0.00726);
#312=CIRCLE('',#403,0.00726);
#313=CIRCLE('',#405,0.00726);
#314=CIRCLE('',#406,0.00726);
#315=CIRCLE('',#408,0.0018);
#316=CIRCLE('',#409,0.0003);
#317=CIRCLE('',#410,0.0003);
#318=CIRCLE('',#411,0.0025);
#319=CIRCLE('',#412,0.0025);
#320=CIRCLE('',#414,0.0025);
#321=CIRCLE('',#415,0.0025);
#322=CIRCLE('',#416,0.0018);
#323=CIRCLE('',#417,0.0003);
#324=CIRCLE('',#418,0.0003);
#325=EDGE_LOOP('',(#113,#114,#115,#116));
#326=EDGE_LOOP('',(#117,#118,#119,#120));
#327=EDGE_LOOP('',(#121,#122,#123,#124,#125,#126,#127,#128,#129,#130));
#328=EDGE_LOOP('',(#131,#132,#133,#134,#135,#136,#137,#138));
#329=EDGE_LOOP('',(#139,#140,#141,#142,#143,#144,#145,#146));
#330=EDGE_LOOP('',(#147,#148,#149,#150,#151,#152,#153,#154,#155,#156));
#331=EDGE_LOOP('',(#157,#158,#159,#160));
#332=EDGE_LOOP('',(#161,#162,#163,#164));
#333=EDGE_LOOP('',(#165,#166,#167,#168));
#334=EDGE_LOOP('',(#169,#170,#171,#172));
#335=EDGE_LOOP('',(#173,#174,#175,#176));
#336=EDGE_LOOP('',(#177,#178,#179,#180));
#337=EDGE_LOOP('',(#181,#182,#183,#184));
#338=EDGE_LOOP('',(#185,#186,#187,#188));
#339=EDGE_LOOP('',(#189,#190,#191,#192));
#340=EDGE_LOOP('',(#193,#194,#195,#196));
#341=EDGE_LOOP('',(#197,#198,#199,#200));
#342=EDGE_LOOP('',(#201,#202,#203,#204));
#343=EDGE_LOOP('',(#205,#206,#207,#208));
#344=EDGE_LOOP('',(#209,#210,#211,#212));
#345=EDGE_LOOP('',(#213,#214,#215,#216));
#346=EDGE_LOOP('',(#217,#218,#219,#220));
#347=FACE_BOUND('',#325,.T.);
#348=FACE_BOUND('',#326,.T.);
#349=FACE_BOUND('',#327,.T.);
#350=FACE_BOUND('',#328,.T.);
#351=FACE_BOUND('',#329,.T.);
#352=FACE_BOUND('',#330,.T.);
#353=FACE_BOUND('',#331,.T.);
#354=FACE_BOUND('',#332,.T.);
#355=FACE_BOUND('',#333,.T.);
#356=FACE_BOUND('',#334,.T.);
#357=FACE_BOUND('',#335,.T.);
#358=FACE_BOUND('',#336,.T.);
#359=FACE_BOUND('',#337,.T.);
#360=FACE_BOUND('',#338,.T.);
#361=FACE_BOUND('',#339,.T.);
#362=FACE_BOUND('',#340,.T.);
#363=FACE_BOUND('',#341,.T.);
#364=FACE_BOUND('',#342,.T.);
#365=FACE_BOUND('',#343,.T.);
#366=FACE_BOUND('',#344,.T.);
#367=FACE_BOUND('',#345,.T.);
#368=FACE_BOUND('',#346,.T.);
#369=CYLINDRICAL_SURFACE('',#401,0.00726);
#370=CYLINDRICAL_SURFACE('',#404,0.00726);
#371=CYLINDRICAL_SURFACE('',#424,0.0025);
#372=CYLINDRICAL_SURFACE('',#428,0.0025);
#373=CYLINDRICAL_SURFACE('',#431,0.0018);
#374=CYLINDRICAL_SURFACE('',#433,0.0003);
#375=CYLINDRICAL_SURFACE('',#434,0.0003);
#376=ADVANCED_FACE('',(#347),#369,.T.);
#377=ADVANCED_FACE('',(#348),#370,.T.);
#378=ADVANCED_FACE('',(#349,#350),#20,.T.);
#379=ADVANCED_FACE('',(#351,#352),#21,.F.);
#380=ADVANCED_FACE('',(#353),#22,.F.);
#381=ADVANCED_FACE('',(#354),#23,.F.);
#382=ADVANCED_FACE('',(#355),#24,.F.);
#383=ADVANCED_FACE('',(#356),#25,.F.);
#384=ADVANCED_FACE('',(#357),#26,.F.);
#385=ADVANCED_FACE('',(#358),#371,.F.);
#386=ADVANCED_FACE('',(#359),#27,.F.);
#387=ADVANCED_FACE('',(#360),#28,.F.);
#388=ADVANCED_FACE('',(#361),#29,.F.);
#389=ADVANCED_FACE('',(#362),#372,.F.);
#390=ADVANCED_FACE('',(#363),#30,.F.);
#391=ADVANCED_FACE('',(#364),#31,.F.);
#392=ADVANCED_FACE('',(#365),#373,.F.);
#393=ADVANCED_FACE('',(#366),#32,.F.);
#394=ADVANCED_FACE('',(#367),#374,.F.);
#395=ADVANCED_FACE('',(#368),#375,.F.);
#396=CLOSED_SHELL('',(#376,#377,#378,#379,#380,#381,#382,#383,#384,#385,
#386,#387,#388,#389,#390,#391,#392,#393,#394,#395));
#397=MANIFOLD_SOLID_BREP('',#396);
#398=SHAPE_DEFINITION_REPRESENTATION(#661,#399);
#399=SHAPE_REPRESENTATION('id2',(#400),#656);
#400=AXIS2_PLACEMENT_3D('',#545,#435,#436);
#401=AXIS2_PLACEMENT_3D('',#546,#437,#438);
#402=AXIS2_PLACEMENT_3D('',#547,#439,#440);
#403=AXIS2_PLACEMENT_3D('',#552,#442,#443);
#404=AXIS2_PLACEMENT_3D('',#555,#445,#446);
#405=AXIS2_PLACEMENT_3D('',#556,#447,#448);
#406=AXIS2_PLACEMENT_3D('',#561,#450,#451);
#407=AXIS2_PLACEMENT_3D('',#564,#453,#454);
#408=AXIS2_PLACEMENT_3D('',#567,#456,#457);
#409=AXIS2_PLACEMENT_3D('',#572,#460,#461);
#410=AXIS2_PLACEMENT_3D('',#576,#463,#464);
#411=AXIS2_PLACEMENT_3D('',#584,#468,#469);
#412=AXIS2_PLACEMENT_3D('',#592,#473,#474);
#413=AXIS2_PLACEMENT_3D('',#595,#476,#477);
#414=AXIS2_PLACEMENT_3D('',#603,#481,#482);
#415=AXIS2_PLACEMENT_3D('',#611,#486,#487);
#416=AXIS2_PLACEMENT_3D('',#612,#488,#489);
#417=AXIS2_PLACEMENT_3D('',#618,#492,#493);
#418=AXIS2_PLACEMENT_3D('',#622,#495,#496);
#419=AXIS2_PLACEMENT_3D('',#626,#499,#500);
#420=AXIS2_PLACEMENT_3D('',#628,#502,#503);
#421=AXIS2_PLACEMENT_3D('',#631,#506,#507);
#422=AXIS2_PLACEMENT_3D('',#633,#509,#510);
#423=AXIS2_PLACEMENT_3D('',#636,#513,#514);
#424=AXIS2_PLACEMENT_3D('',#638,#516,#517);
#425=AXIS2_PLACEMENT_3D('',#640,#519,#520);
#426=AXIS2_PLACEMENT_3D('',#642,#522,#523);
#427=AXIS2_PLACEMENT_3D('',#644,#525,#526);
#428=AXIS2_PLACEMENT_3D('',#646,#528,#529);
#429=AXIS2_PLACEMENT_3D('',#648,#531,#532);
#430=AXIS2_PLACEMENT_3D('',#649,#533,#534);
#431=AXIS2_PLACEMENT_3D('',#651,#536,#537);
#432=AXIS2_PLACEMENT_3D('',#653,#539,#540);
#433=AXIS2_PLACEMENT_3D('',#654,#541,#542);
#434=AXIS2_PLACEMENT_3D('',#655,#543,#544);
#435=DIRECTION('',(0.,0.,1.));
#436=DIRECTION('',(1.,0.,0.));
#437=DIRECTION('',(0.,-1.,0.));
#438=DIRECTION('',(0.,0.,-1.));
#439=DIRECTION('',(0.,1.,0.));
#440=DIRECTION('',(0.,0.,1.));
#441=DIRECTION('',(0.,1.,0.));
#442=DIRECTION('',(0.,1.,0.));
#443=DIRECTION('',(0.,0.,1.));
#444=DIRECTION('',(0.,1.,0.));
#445=DIRECTION('',(0.,-1.,0.));
#446=DIRECTION('',(0.,0.,-1.));
#447=DIRECTION('',(0.,1.,0.));
#448=DIRECTION('',(0.,0.,1.));
#449=DIRECTION('',(0.,1.,0.));
#450=DIRECTION('',(0.,1.,0.));
#451=DIRECTION('',(0.,0.,1.));
#452=DIRECTION('',(0.,1.,0.));
#453=DIRECTION('',(0.,1.,0.));
#454=DIRECTION('',(0.,0.,1.));
#455=DIRECTION('',(3.42386465779127E-16,0.,1.));
#456=DIRECTION('',(0.,1.,0.));
#457=DIRECTION('',(0.,0.,1.));
#458=DIRECTION('',(3.42386465779127E-16,0.,-1.));
#459=DIRECTION('',(-1.96528911712405E-16,0.,-1.));
#460=DIRECTION('',(0.,1.,0.));
#461=DIRECTION('',(0.,0.,1.));
#462=DIRECTION('',(1.,0.,0.));
#463=DIRECTION('',(0.,1.,0.));
#464=DIRECTION('',(0.,0.,1.));
#465=DIRECTION('',(1.96528911712405E-16,0.,1.));
#466=DIRECTION('',(0.,0.,-1.));
#467=DIRECTION('',(1.,0.,0.));
#468=DIRECTION('',(0.,1.,0.));
#469=DIRECTION('',(0.,0.,1.));
#470=DIRECTION('',(1.,0.,0.));
#471=DIRECTION('',(0.,0.,1.));
#472=DIRECTION('',(-1.,0.,0.));
#473=DIRECTION('',(0.,1.,0.));
#474=DIRECTION('',(0.,0.,1.));
#475=DIRECTION('',(-1.,0.,0.));
#476=DIRECTION('',(0.,1.,0.));
#477=DIRECTION('',(0.,0.,1.));
#478=DIRECTION('',(1.,0.,0.));
#479=DIRECTION('',(0.,0.,-1.));
#480=DIRECTION('',(-1.,0.,0.));
#481=DIRECTION('',(0.,1.,0.));
#482=DIRECTION('',(0.,0.,1.));
#483=DIRECTION('',(-1.,0.,0.));
#484=DIRECTION('',(0.,0.,1.));
#485=DIRECTION('',(1.,0.,0.));
#486=DIRECTION('',(0.,1.,0.));
#487=DIRECTION('',(0.,0.,1.));
#488=DIRECTION('',(0.,1.,0.));
#489=DIRECTION('',(0.,0.,1.));
#490=DIRECTION('',(3.42386465779127E-16,0.,1.));
#491=DIRECTION('',(1.96528911712405E-16,0.,1.));
#492=DIRECTION('',(0.,1.,0.));
#493=DIRECTION('',(0.,0.,1.));
#494=DIRECTION('',(1.,0.,0.));
#495=DIRECTION('',(0.,1.,0.));
#496=DIRECTION('',(0.,0.,1.));
#497=DIRECTION('',(-1.96528911712405E-16,0.,-1.));
#498=DIRECTION('',(3.42386465779127E-16,0.,-1.));
#499=DIRECTION('',(1.,0.,-1.96528911712405E-16));
#500=DIRECTION('',(-1.96528911712405E-16,0.,-1.));
#501=DIRECTION('',(0.,1.,0.));
#502=DIRECTION('',(0.,0.,1.));
#503=DIRECTION('',(1.,0.,0.));
#504=DIRECTION('',(0.,1.,0.));
#505=DIRECTION('',(0.,1.,0.));
#506=DIRECTION('',(-1.,0.,1.96528911712405E-16));
#507=DIRECTION('',(1.96528911712405E-16,0.,1.));
#508=DIRECTION('',(0.,1.,0.));
#509=DIRECTION('',(1.,0.,0.));
#510=DIRECTION('',(0.,0.,-1.));
#511=DIRECTION('',(0.,1.,0.));
#512=DIRECTION('',(0.,1.,0.));
#513=DIRECTION('',(0.,0.,1.));
#514=DIRECTION('',(1.,0.,0.));
#515=DIRECTION('',(0.,1.,0.));
#516=DIRECTION('',(0.,1.,0.));
#517=DIRECTION('',(0.,0.,1.));
#518=DIRECTION('',(0.,1.,0.));
#519=DIRECTION('',(0.,0.,1.));
#520=DIRECTION('',(1.,0.,0.));
#521=DIRECTION('',(0.,1.,0.));
#522=DIRECTION('',(-1.,0.,0.));
#523=DIRECTION('',(0.,0.,1.));
#524=DIRECTION('',(0.,1.,0.));
#525=DIRECTION('',(0.,0.,-1.));
#526=DIRECTION('',(-1.,0.,0.));
#527=DIRECTION('',(0.,1.,0.));
#528=DIRECTION('',(0.,1.,0.));
#529=DIRECTION('',(0.,0.,1.));
#530=DIRECTION('',(0.,1.,0.));
#531=DIRECTION('',(0.,0.,-1.));
#532=DIRECTION('',(-1.,0.,0.));
#533=DIRECTION('',(-1.,0.,3.42386465779127E-16));
#534=DIRECTION('',(3.42386465779127E-16,0.,1.));
#535=DIRECTION('',(0.,1.,0.));
#536=DIRECTION('',(0.,1.,0.));
#537=DIRECTION('',(0.,0.,1.));
#538=DIRECTION('',(0.,1.,0.));
#539=DIRECTION('',(1.,0.,3.42386465779127E-16));
#540=DIRECTION('',(3.42386465779127E-16,0.,-1.));
#541=DIRECTION('',(0.,-1.,0.));
#542=DIRECTION('',(0.,0.,-1.));
#543=DIRECTION('',(0.,-1.,0.));
#544=DIRECTION('',(0.,0.,-1.));
#545=CARTESIAN_POINT('',(0.,0.,0.));
#546=CARTESIAN_POINT('',(0.,0.001,0.));
#547=CARTESIAN_POINT('',(0.,0.,0.));
#548=CARTESIAN_POINT('',(-0.0015,0.,-0.0071033513217354));
#549=CARTESIAN_POINT('',(-0.0018,0.,0.00703332069509133));
#550=CARTESIAN_POINT('',(-0.0018,0.,0.00703332069509133));
#551=CARTESIAN_POINT('',(-0.0018,0.001,0.00703332069509133));
#552=CARTESIAN_POINT('',(0.,0.001,0.));
#553=CARTESIAN_POINT('',(-0.0015,0.001,-0.0071033513217354));
#554=CARTESIAN_POINT('',(-0.0015,0.,-0.0071033513217354));
#555=CARTESIAN_POINT('',(0.,0.001,0.));
#556=CARTESIAN_POINT('',(0.,0.001,0.));
#557=CARTESIAN_POINT('',(0.0018,0.001,0.00703332069509133));
#558=CARTESIAN_POINT('',(0.0015,0.001,-0.0071033513217354));
#559=CARTESIAN_POINT('',(0.0018,0.,0.00703332069509133));
#560=CARTESIAN_POINT('',(0.0018,0.,0.00703332069509133));
#561=CARTESIAN_POINT('',(0.,0.,0.));
#562=CARTESIAN_POINT('',(0.0015,0.,-0.0071033513217354));
#563=CARTESIAN_POINT('',(0.0015,0.,-0.0071033513217354));
#564=CARTESIAN_POINT('',(0.,0.001,0.));
#565=CARTESIAN_POINT('',(-0.0018,0.001,0.0064));
#566=CARTESIAN_POINT('',(-0.0018,0.001,0.0064));
#567=CARTESIAN_POINT('',(7.83773951454306E-19,0.001,0.0064));
#568=CARTESIAN_POINT('',(0.0018,0.001,0.0064));
#569=CARTESIAN_POINT('',(0.0018,0.001,0.0064));
#570=CARTESIAN_POINT('',(0.0015,0.001,-0.0071033513217354));
#571=CARTESIAN_POINT('',(0.0015,0.001,-0.0063));
#572=CARTESIAN_POINT('',(0.0012,0.001,-0.0063));
#573=CARTESIAN_POINT('',(0.0012,0.001,-0.006));
#574=CARTESIAN_POINT('',(-0.0015,0.001,-0.006));
#575=CARTESIAN_POINT('',(-0.0012,0.001,-0.006));
#576=CARTESIAN_POINT('',(-0.0012,0.001,-0.0063));
#577=CARTESIAN_POINT('',(-0.0015,0.001,-0.0063));
#578=CARTESIAN_POINT('',(-0.0015,0.001,-0.0071033513217354));
#579=CARTESIAN_POINT('',(0.006,0.001,0.0015));
#580=CARTESIAN_POINT('',(0.006,0.001,0.0015));
#581=CARTESIAN_POINT('',(0.006,0.001,-0.0015));
#582=CARTESIAN_POINT('',(0.002,0.001,0.0015));
#583=CARTESIAN_POINT('',(0.002,0.001,0.0015));
#584=CARTESIAN_POINT('',(8.67361737988404E-19,0.001,-2.16840434497101E-19));
#585=CARTESIAN_POINT('',(-0.002,0.001,0.0015));
#586=CARTESIAN_POINT('',(-0.006,0.001,0.0015));
#587=CARTESIAN_POINT('',(-0.006,0.001,0.0015));
#588=CARTESIAN_POINT('',(-0.006,0.001,0.0015));
#589=CARTESIAN_POINT('',(-0.006,0.001,-0.0015));
#590=CARTESIAN_POINT('',(-0.006,0.001,-0.0015));
#591=CARTESIAN_POINT('',(-0.002,0.001,-0.0015));
#592=CARTESIAN_POINT('',(8.67361737988404E-19,0.001,-2.16840434497101E-19));
#593=CARTESIAN_POINT('',(0.002,0.001,-0.0015));
#594=CARTESIAN_POINT('',(0.002,0.001,-0.0015));
#595=CARTESIAN_POINT('',(0.,0.,0.));
#596=CARTESIAN_POINT('',(0.002,0.,0.0015));
#597=CARTESIAN_POINT('',(0.002,0.,0.0015));
#598=CARTESIAN_POINT('',(0.006,0.,0.0015));
#599=CARTESIAN_POINT('',(0.006,0.,0.0015));
#600=CARTESIAN_POINT('',(0.006,0.,-0.0015));
#601=CARTESIAN_POINT('',(0.002,0.,-0.0015));
#602=CARTESIAN_POINT('',(0.002,0.,-0.0015));
#603=CARTESIAN_POINT('',(8.67361737988404E-19,0.,-2.16840434497101E-19));
#604=CARTESIAN_POINT('',(-0.002,0.,-0.0015));
#605=CARTESIAN_POINT('',(-0.006,0.,-0.0015));
#606=CARTESIAN_POINT('',(-0.006,0.,-0.0015));
#607=CARTESIAN_POINT('',(-0.006,0.,0.0015));
#608=CARTESIAN_POINT('',(-0.006,0.,0.0015));
#609=CARTESIAN_POINT('',(-0.006,0.,0.0015));
#610=CARTESIAN_POINT('',(-0.002,0.,0.0015));
#611=CARTESIAN_POINT('',(8.67361737988404E-19,0.,-2.16840434497101E-19));
#612=CARTESIAN_POINT('',(7.83773951454306E-19,0.,0.0064));
#613=CARTESIAN_POINT('',(0.0018,0.,0.0064));
#614=CARTESIAN_POINT('',(-0.0018,0.,0.0064));
#615=CARTESIAN_POINT('',(-0.0018,0.,0.0064));
#616=CARTESIAN_POINT('',(-0.0015,0.,-0.0071033513217354));
#617=CARTESIAN_POINT('',(-0.0015,0.,-0.0063));
#618=CARTESIAN_POINT('',(-0.0012,0.,-0.0063));
#619=CARTESIAN_POINT('',(-0.0012,0.,-0.006));
#620=CARTESIAN_POINT('',(-0.0015,0.,-0.006));
#621=CARTESIAN_POINT('',(0.0012,0.,-0.006));
#622=CARTESIAN_POINT('',(0.0012,0.,-0.0063));
#623=CARTESIAN_POINT('',(0.0015,0.,-0.0063));
#624=CARTESIAN_POINT('',(0.0015,0.,-0.0071033513217354));
#625=CARTESIAN_POINT('',(0.0018,0.,0.0064));
#626=CARTESIAN_POINT('',(0.0015,0.,-0.0071033513217354));
#627=CARTESIAN_POINT('',(0.0015,0.001,-0.0063));
#628=CARTESIAN_POINT('',(-0.0015,0.,-0.006));
#629=CARTESIAN_POINT('',(0.0012,0.,-0.006));
#630=CARTESIAN_POINT('',(-0.0012,0.001,-0.006));
#631=CARTESIAN_POINT('',(-0.0015,0.,-0.0071033513217354));
#632=CARTESIAN_POINT('',(-0.0015,0.,-0.0063));
#633=CARTESIAN_POINT('',(0.006,0.,0.0015));
#634=CARTESIAN_POINT('',(0.006,0.,-0.0015));
#635=CARTESIAN_POINT('',(0.006,0.,0.0015));
#636=CARTESIAN_POINT('',(0.002,0.,0.0015));
#637=CARTESIAN_POINT('',(0.002,0.,0.0015));
#638=CARTESIAN_POINT('',(8.67361737988404E-19,0.,-2.16840434497101E-19));
#639=CARTESIAN_POINT('',(-0.002,0.,0.0015));
#640=CARTESIAN_POINT('',(-0.006,0.,0.0015));
#641=CARTESIAN_POINT('',(-0.006,0.,0.0015));
#642=CARTESIAN_POINT('',(-0.006,0.,0.0015));
#643=CARTESIAN_POINT('',(-0.006,0.,-0.0015));
#644=CARTESIAN_POINT('',(-0.006,0.,-0.0015));
#645=CARTESIAN_POINT('',(-0.002,0.,-0.0015));
#646=CARTESIAN_POINT('',(8.67361737988404E-19,0.,-2.16840434497101E-19));
#647=CARTESIAN_POINT('',(0.002,0.,-0.0015));
#648=CARTESIAN_POINT('',(0.002,0.,-0.0015));
#649=CARTESIAN_POINT('',(-0.0018,0.,0.0064));
#650=CARTESIAN_POINT('',(-0.0018,0.,0.0064));
#651=CARTESIAN_POINT('',(7.83773951454306E-19,0.,0.0064));
#652=CARTESIAN_POINT('',(0.0018,0.,0.0064));
#653=CARTESIAN_POINT('',(0.0018,0.,0.0064));
#654=CARTESIAN_POINT('',(0.0012,0.,-0.0063));
#655=CARTESIAN_POINT('',(-0.0012,0.,-0.0063));
#656=(
GEOMETRIC_REPRESENTATION_CONTEXT(3)
GLOBAL_UNCERTAINTY_ASSIGNED_CONTEXT((#657))
GLOBAL_UNIT_ASSIGNED_CONTEXT((#660,#659,#658))
REPRESENTATION_CONTEXT('id2','TOP_LEVEL_ASSEMBLY_PART')
);
#657=UNCERTAINTY_MEASURE_WITH_UNIT(LENGTH_MEASURE(1.E-8),#660,
'DISTANCE_ACCURACY_VALUE','Maximum Tolerance applied to model');
#658=(
NAMED_UNIT(*)
SI_UNIT($,.STERADIAN.)
SOLID_ANGLE_UNIT()
);
#659=(
NAMED_UNIT(*)
PLANE_ANGLE_UNIT()
SI_UNIT($,.RADIAN.)
);
#660=(
LENGTH_UNIT()
NAMED_UNIT(*)
SI_UNIT($,.METRE.)
);
#661=PRODUCT_DEFINITION_SHAPE('','',#662);
#662=PRODUCT_DEFINITION('','',#664,#663);
#663=DESIGN_CONTEXT('',#670,'design');
#664=PRODUCT_DEFINITION_FORMATION_WITH_SPECIFIED_SOURCE('','',#666,
 .NOT_KNOWN.);
#665=PRODUCT_RELATED_PRODUCT_CATEGORY('','',(#666));
#666=PRODUCT('id2','id2','id2',(#668));
#667=PRODUCT_CATEGORY('','');
#668=MECHANICAL_CONTEXT('',#670,'mechanical');
#669=APPLICATION_PROTOCOL_DEFINITION('international standard',
'config_control_design',2010,#670);
#670=APPLICATION_CONTEXT(
'configuration controlled 3D designs of mechanical parts and assemblie
s');
ENDSEC;
END-ISO-10303-21;
