ISO-10303-21;
HEADER;
/* Generated by software containing ST-Developer
 * from STEP Tools, Inc. (www.steptools.com) 
 */
/* OPTION: using custom renumber hook */

FILE_DESCRIPTION(
/* description */ ('STEP AP203'),
/* implementation_level */ '2;1');

FILE_NAME(
/* name */ '6a54688c8b3b9652dc93b418',
/* time_stamp */ '2026-07-13T04:24:45Z',
/* author */ (''),
/* organization */ (''),
/* preprocessor_version */ 'ST-DEVELOPER v20',
/* originating_system */ 'ONSHAPE BY PTC INC, 1.217',
/* authorisation */ '  ');

FILE_SCHEMA (('CONFIG_CONTROL_DESIGN'));
ENDSEC;

DATA;
#10=PROPERTY_DEFINITION_REPRESENTATION(#14,#12);
#11=PROPERTY_DEFINITION_REPRESENTATION(#15,#13);
#12=REPRESENTATION('',(#16),#176);
#13=REPRESENTATION('',(#17),#176);
#14=PROPERTY_DEFINITION('pmi validation property','',#181);
#15=PROPERTY_DEFINITION('pmi validation property','',#181);
#16=VALUE_REPRESENTATION_ITEM('number of annotations',COUNT_MEASURE(0.));
#17=VALUE_REPRESENTATION_ITEM('number of views',COUNT_MEASURE(0.));
#18=SHAPE_REPRESENTATION_RELATIONSHIP('','',#115,#19);
#19=ADVANCED_BREP_SHAPE_REPRESENTATION('',(#113),#176);
#20=ORIENTED_EDGE('',*,*,#44,.F.);
#21=ORIENTED_EDGE('',*,*,#45,.F.);
#22=ORIENTED_EDGE('',*,*,#46,.T.);
#23=ORIENTED_EDGE('',*,*,#47,.T.);
#24=ORIENTED_EDGE('',*,*,#48,.F.);
#25=ORIENTED_EDGE('',*,*,#49,.F.);
#26=ORIENTED_EDGE('',*,*,#50,.T.);
#27=ORIENTED_EDGE('',*,*,#45,.T.);
#28=ORIENTED_EDGE('',*,*,#51,.F.);
#29=ORIENTED_EDGE('',*,*,#52,.F.);
#30=ORIENTED_EDGE('',*,*,#53,.T.);
#31=ORIENTED_EDGE('',*,*,#49,.T.);
#32=ORIENTED_EDGE('',*,*,#54,.F.);
#33=ORIENTED_EDGE('',*,*,#47,.F.);
#34=ORIENTED_EDGE('',*,*,#55,.T.);
#35=ORIENTED_EDGE('',*,*,#52,.T.);
#36=ORIENTED_EDGE('',*,*,#46,.F.);
#37=ORIENTED_EDGE('',*,*,#50,.F.);
#38=ORIENTED_EDGE('',*,*,#53,.F.);
#39=ORIENTED_EDGE('',*,*,#55,.F.);
#40=ORIENTED_EDGE('',*,*,#44,.T.);
#41=ORIENTED_EDGE('',*,*,#54,.T.);
#42=ORIENTED_EDGE('',*,*,#51,.T.);
#43=ORIENTED_EDGE('',*,*,#48,.T.);
#44=EDGE_CURVE('',#56,#57,#64,.T.);
#45=EDGE_CURVE('',#58,#56,#65,.T.);
#46=EDGE_CURVE('',#58,#59,#66,.T.);
#47=EDGE_CURVE('',#59,#57,#67,.T.);
#48=EDGE_CURVE('',#60,#56,#68,.T.);
#49=EDGE_CURVE('',#61,#60,#69,.T.);
#50=EDGE_CURVE('',#61,#58,#70,.T.);
#51=EDGE_CURVE('',#62,#60,#71,.T.);
#52=EDGE_CURVE('',#63,#62,#72,.T.);
#53=EDGE_CURVE('',#63,#61,#73,.T.);
#54=EDGE_CURVE('',#57,#62,#74,.T.);
#55=EDGE_CURVE('',#59,#63,#75,.T.);
#56=VERTEX_POINT('',#152);
#57=VERTEX_POINT('',#153);
#58=VERTEX_POINT('',#155);
#59=VERTEX_POINT('',#157);
#60=VERTEX_POINT('',#161);
#61=VERTEX_POINT('',#163);
#62=VERTEX_POINT('',#167);
#63=VERTEX_POINT('',#169);
#64=LINE('',#151,#76);
#65=LINE('',#154,#77);
#66=LINE('',#156,#78);
#67=LINE('',#158,#79);
#68=LINE('',#160,#80);
#69=LINE('',#162,#81);
#70=LINE('',#164,#82);
#71=LINE('',#166,#83);
#72=LINE('',#168,#84);
#73=LINE('',#170,#85);
#74=LINE('',#172,#86);
#75=LINE('',#173,#87);
#76=VECTOR('',#127,1.);
#77=VECTOR('',#128,1.);
#78=VECTOR('',#129,1.);
#79=VECTOR('',#130,1.);
#80=VECTOR('',#133,1.);
#81=VECTOR('',#134,1.);
#82=VECTOR('',#135,1.);
#83=VECTOR('',#138,1.);
#84=VECTOR('',#139,1.);
#85=VECTOR('',#140,1.);
#86=VECTOR('',#143,1.);
#87=VECTOR('',#144,1.);
#88=EDGE_LOOP('',(#20,#21,#22,#23));
#89=EDGE_LOOP('',(#24,#25,#26,#27));
#90=EDGE_LOOP('',(#28,#29,#30,#31));
#91=EDGE_LOOP('',(#32,#33,#34,#35));
#92=EDGE_LOOP('',(#36,#37,#38,#39));
#93=EDGE_LOOP('',(#40,#41,#42,#43));
#94=FACE_BOUND('',#88,.T.);
#95=FACE_BOUND('',#89,.T.);
#96=FACE_BOUND('',#90,.T.);
#97=FACE_BOUND('',#91,.T.);
#98=FACE_BOUND('',#92,.T.);
#99=FACE_BOUND('',#93,.T.);
#100=PLANE('',#117);
#101=PLANE('',#118);
#102=PLANE('',#119);
#103=PLANE('',#120);
#104=PLANE('',#121);
#105=PLANE('',#122);
#106=ADVANCED_FACE('',(#94),#100,.T.);
#107=ADVANCED_FACE('',(#95),#101,.T.);
#108=ADVANCED_FACE('',(#96),#102,.T.);
#109=ADVANCED_FACE('',(#97),#103,.T.);
#110=ADVANCED_FACE('',(#98),#104,.T.);
#111=ADVANCED_FACE('',(#99),#105,.F.);
#112=CLOSED_SHELL('',(#106,#107,#108,#109,#110,#111));
#113=MANIFOLD_SOLID_BREP('',#112);
#114=SHAPE_DEFINITION_REPRESENTATION(#181,#115);
#115=SHAPE_REPRESENTATION('id2',(#116),#176);
#116=AXIS2_PLACEMENT_3D('',#149,#123,#124);
#117=AXIS2_PLACEMENT_3D('',#150,#125,#126);
#118=AXIS2_PLACEMENT_3D('',#159,#131,#132);
#119=AXIS2_PLACEMENT_3D('',#165,#136,#137);
#120=AXIS2_PLACEMENT_3D('',#171,#141,#142);
#121=AXIS2_PLACEMENT_3D('',#174,#145,#146);
#122=AXIS2_PLACEMENT_3D('',#175,#147,#148);
#123=DIRECTION('',(0.,0.,1.));
#124=DIRECTION('',(1.,0.,0.));
#125=DIRECTION('',(1.,0.,0.));
#126=DIRECTION('',(0.,0.,-1.));
#127=DIRECTION('',(0.,1.,0.));
#128=DIRECTION('',(0.,0.,1.));
#129=DIRECTION('',(0.,1.,0.));
#130=DIRECTION('',(0.,0.,1.));
#131=DIRECTION('',(0.,-1.,0.));
#132=DIRECTION('',(0.,0.,-1.));
#133=DIRECTION('',(1.,0.,0.));
#134=DIRECTION('',(0.,0.,1.));
#135=DIRECTION('',(1.,0.,0.));
#136=DIRECTION('',(-1.,0.,0.));
#137=DIRECTION('',(0.,0.,1.));
#138=DIRECTION('',(0.,-1.,0.));
#139=DIRECTION('',(0.,0.,1.));
#140=DIRECTION('',(0.,-1.,0.));
#141=DIRECTION('',(0.,1.,0.));
#142=DIRECTION('',(0.,0.,1.));
#143=DIRECTION('',(-1.,0.,0.));
#144=DIRECTION('',(-1.,0.,0.));
#145=DIRECTION('',(0.,0.,-1.));
#146=DIRECTION('',(-1.,0.,0.));
#147=DIRECTION('',(0.,0.,-1.));
#148=DIRECTION('',(-1.,0.,0.));
#149=CARTESIAN_POINT('',(0.,0.,0.));
#150=CARTESIAN_POINT('',(0.00115,-0.01175,-0.0005));
#151=CARTESIAN_POINT('',(0.00115,-0.01175,0.));
#152=CARTESIAN_POINT('',(0.00115,-0.01175,0.));
#153=CARTESIAN_POINT('',(0.00115,0.01175,0.));
#154=CARTESIAN_POINT('',(0.00115,-0.01175,-0.0005));
#155=CARTESIAN_POINT('',(0.00115,-0.01175,-0.0005));
#156=CARTESIAN_POINT('',(0.00115,-0.01175,-0.0005));
#157=CARTESIAN_POINT('',(0.00115,0.01175,-0.0005));
#158=CARTESIAN_POINT('',(0.00115,0.01175,-0.0005));
#159=CARTESIAN_POINT('',(-0.00115,-0.01175,-0.0005));
#160=CARTESIAN_POINT('',(-0.00115,-0.01175,0.));
#161=CARTESIAN_POINT('',(-0.00115,-0.01175,0.));
#162=CARTESIAN_POINT('',(-0.00115,-0.01175,-0.0005));
#163=CARTESIAN_POINT('',(-0.00115,-0.01175,-0.0005));
#164=CARTESIAN_POINT('',(-0.00115,-0.01175,-0.0005));
#165=CARTESIAN_POINT('',(-0.00115,-0.01175,-0.0005));
#166=CARTESIAN_POINT('',(-0.00115,-0.01175,0.));
#167=CARTESIAN_POINT('',(-0.00115,0.01175,0.));
#168=CARTESIAN_POINT('',(-0.00115,0.01175,-0.0005));
#169=CARTESIAN_POINT('',(-0.00115,0.01175,-0.0005));
#170=CARTESIAN_POINT('',(-0.00115,-0.01175,-0.0005));
#171=CARTESIAN_POINT('',(-0.00115,0.01175,-0.0005));
#172=CARTESIAN_POINT('',(-0.00115,0.01175,0.));
#173=CARTESIAN_POINT('',(-0.00115,0.01175,-0.0005));
#174=CARTESIAN_POINT('',(0.,0.,-0.0005));
#175=CARTESIAN_POINT('',(0.,0.,0.));
#176=(
GEOMETRIC_REPRESENTATION_CONTEXT(3)
GLOBAL_UNCERTAINTY_ASSIGNED_CONTEXT((#177))
GLOBAL_UNIT_ASSIGNED_CONTEXT((#180,#179,#178))
REPRESENTATION_CONTEXT('id2','TOP_LEVEL_ASSEMBLY_PART')
);
#177=UNCERTAINTY_MEASURE_WITH_UNIT(LENGTH_MEASURE(1.E-8),#180,
'DISTANCE_ACCURACY_VALUE','Maximum Tolerance applied to model');
#178=(
NAMED_UNIT(*)
SI_UNIT($,.STERADIAN.)
SOLID_ANGLE_UNIT()
);
#179=(
NAMED_UNIT(*)
PLANE_ANGLE_UNIT()
SI_UNIT($,.RADIAN.)
);
#180=(
LENGTH_UNIT()
NAMED_UNIT(*)
SI_UNIT($,.METRE.)
);
#181=PRODUCT_DEFINITION_SHAPE('','',#182);
#182=PRODUCT_DEFINITION('','',#184,#183);
#183=DESIGN_CONTEXT('',#190,'design');
#184=PRODUCT_DEFINITION_FORMATION_WITH_SPECIFIED_SOURCE('','',#186,
 .NOT_KNOWN.);
#185=PRODUCT_RELATED_PRODUCT_CATEGORY('','',(#186));
#186=PRODUCT('id2','id2','id2',(#188));
#187=PRODUCT_CATEGORY('','');
#188=MECHANICAL_CONTEXT('',#190,'mechanical');
#189=APPLICATION_PROTOCOL_DEFINITION('international standard',
'config_control_design',2010,#190);
#190=APPLICATION_CONTEXT(
'configuration controlled 3D designs of mechanical parts and assemblie
s');
ENDSEC;
END-ISO-10303-21;
