ISO-10303-21;
HEADER;
/* Generated by software containing ST-Developer
 * from STEP Tools, Inc. (www.steptools.com) 
 */
/* OPTION: using custom renumber hook */

FILE_DESCRIPTION(
/* description */ ('STEP AP203'),
/* implementation_level */ '2;1');

FILE_NAME(
/* name */ '6a5468fd29d002ae6aa537f3',
/* time_stamp */ '2026-07-13T04:26:37Z',
/* author */ (''),
/* organization */ (''),
/* preprocessor_version */ 'ST-DEVELOPER v20',
/* originating_system */ 'ONSHAPE BY PTC INC, 1.217',
/* authorisation */ '  ');

FILE_SCHEMA (('CONFIG_CONTROL_DESIGN'));
ENDSEC;

DATA;
#10=PROPERTY_DEFINITION_REPRESENTATION(#14,#12);
#11=PROPERTY_DEFINITION_REPRESENTATION(#15,#13);
#12=REPRESENTATION('',(#16),#1884);
#13=REPRESENTATION('',(#17),#1884);
#14=PROPERTY_DEFINITION('pmi validation property','',#1889);
#15=PROPERTY_DEFINITION('pmi validation property','',#1889);
#16=VALUE_REPRESENTATION_ITEM('number of annotations',COUNT_MEASURE(0.));
#17=VALUE_REPRESENTATION_ITEM('number of views',COUNT_MEASURE(0.));
#18=SHAPE_REPRESENTATION_RELATIONSHIP('','',#1194,#19);
#19=ADVANCED_BREP_SHAPE_REPRESENTATION('',(#1192),#1884);
#20=CYLINDRICAL_SURFACE('',#1258,0.0015);
#21=CYLINDRICAL_SURFACE('',#1259,0.0015);
#22=CYLINDRICAL_SURFACE('',#1260,0.0015);
#23=CYLINDRICAL_SURFACE('',#1261,0.0015);
#24=CYLINDRICAL_SURFACE('',#1262,0.0015);
#25=CYLINDRICAL_SURFACE('',#1263,0.0015);
#26=ELLIPSE('',#1205,0.0015,0.001);
#27=B_SPLINE_CURVE_WITH_KNOTS('',3,(#1614,#1615,#1616,#1617,#1618,#1619,
#1620,#1621,#1622,#1623,#1624),.UNSPECIFIED.,.T.,.F.,(1,1,1,1,1,1,1,1,1,
1,1,1,1,1,1),(-2.35619449019234,-1.5707963267949,-0.785398163397448,0.,
0.785398163397448,1.5707963267949,2.35619449019234,3.14159265358979,3.92699081698724,
4.71238898038469,5.49778714378214,6.28318530717959,7.06858347057703,7.85398163397448,
8.63937979737193),.UNIFORM_KNOTS.);
#28=CIRCLE('',#1200,0.0005);
#29=CIRCLE('',#1202,0.0007);
#30=CIRCLE('',#1208,0.0014);
#31=CIRCLE('',#1209,0.0014);
#32=CIRCLE('',#1211,0.002);
#33=CIRCLE('',#1212,0.002);
#34=CIRCLE('',#1215,0.0009);
#35=CIRCLE('',#1217,0.0015);
#36=CIRCLE('',#1219,0.002);
#37=CIRCLE('',#1220,0.002);
#38=CIRCLE('',#1221,0.0014);
#39=CIRCLE('',#1222,0.0014);
#40=CIRCLE('',#1224,0.002);
#41=CIRCLE('',#1225,0.002);
#42=CIRCLE('',#1226,0.0014);
#43=CIRCLE('',#1227,0.0014);
#44=CIRCLE('',#1228,0.0014);
#45=CIRCLE('',#1229,0.002);
#46=CIRCLE('',#1231,0.0012);
#47=CIRCLE('',#1232,0.0012);
#48=CIRCLE('',#1234,0.001);
#49=CIRCLE('',#1235,0.001);
#50=CIRCLE('',#1236,0.001);
#51=CIRCLE('',#1237,0.001);
#52=CIRCLE('',#1243,0.0015);
#53=CIRCLE('',#1244,0.0015);
#54=CIRCLE('',#1245,0.0015);
#55=CIRCLE('',#1246,0.0015);
#56=CIRCLE('',#1247,0.0015);
#57=CIRCLE('',#1248,0.0015);
#58=CIRCLE('',#1250,0.0015);
#59=CIRCLE('',#1251,0.0015);
#60=CIRCLE('',#1252,0.0015);
#61=CIRCLE('',#1253,0.0015);
#62=CIRCLE('',#1254,0.0015);
#63=CIRCLE('',#1255,0.0015);
#64=ORIENTED_EDGE('',*,*,#390,.T.);
#65=ORIENTED_EDGE('',*,*,#391,.T.);
#66=ORIENTED_EDGE('',*,*,#392,.T.);
#67=ORIENTED_EDGE('',*,*,#393,.T.);
#68=ORIENTED_EDGE('',*,*,#394,.T.);
#69=ORIENTED_EDGE('',*,*,#395,.T.);
#70=ORIENTED_EDGE('',*,*,#396,.T.);
#71=ORIENTED_EDGE('',*,*,#397,.T.);
#72=ORIENTED_EDGE('',*,*,#398,.T.);
#73=ORIENTED_EDGE('',*,*,#399,.T.);
#74=ORIENTED_EDGE('',*,*,#400,.T.);
#75=ORIENTED_EDGE('',*,*,#401,.T.);
#76=ORIENTED_EDGE('',*,*,#402,.T.);
#77=ORIENTED_EDGE('',*,*,#403,.T.);
#78=ORIENTED_EDGE('',*,*,#404,.T.);
#79=ORIENTED_EDGE('',*,*,#405,.T.);
#80=ORIENTED_EDGE('',*,*,#406,.T.);
#81=ORIENTED_EDGE('',*,*,#407,.T.);
#82=ORIENTED_EDGE('',*,*,#408,.T.);
#83=ORIENTED_EDGE('',*,*,#409,.T.);
#84=ORIENTED_EDGE('',*,*,#410,.T.);
#85=ORIENTED_EDGE('',*,*,#411,.T.);
#86=ORIENTED_EDGE('',*,*,#412,.T.);
#87=ORIENTED_EDGE('',*,*,#413,.T.);
#88=ORIENTED_EDGE('',*,*,#414,.T.);
#89=ORIENTED_EDGE('',*,*,#415,.T.);
#90=ORIENTED_EDGE('',*,*,#416,.T.);
#91=ORIENTED_EDGE('',*,*,#417,.T.);
#92=ORIENTED_EDGE('',*,*,#418,.T.);
#93=ORIENTED_EDGE('',*,*,#419,.T.);
#94=ORIENTED_EDGE('',*,*,#420,.T.);
#95=ORIENTED_EDGE('',*,*,#421,.T.);
#96=ORIENTED_EDGE('',*,*,#422,.T.);
#97=ORIENTED_EDGE('',*,*,#423,.T.);
#98=ORIENTED_EDGE('',*,*,#421,.F.);
#99=ORIENTED_EDGE('',*,*,#420,.F.);
#100=ORIENTED_EDGE('',*,*,#423,.F.);
#101=ORIENTED_EDGE('',*,*,#422,.F.);
#102=ORIENTED_EDGE('',*,*,#424,.T.);
#103=ORIENTED_EDGE('',*,*,#425,.T.);
#104=ORIENTED_EDGE('',*,*,#426,.T.);
#105=ORIENTED_EDGE('',*,*,#427,.T.);
#106=ORIENTED_EDGE('',*,*,#428,.T.);
#107=ORIENTED_EDGE('',*,*,#429,.T.);
#108=ORIENTED_EDGE('',*,*,#430,.T.);
#109=ORIENTED_EDGE('',*,*,#430,.F.);
#110=ORIENTED_EDGE('',*,*,#431,.T.);
#111=ORIENTED_EDGE('',*,*,#432,.T.);
#112=ORIENTED_EDGE('',*,*,#433,.T.);
#113=ORIENTED_EDGE('',*,*,#434,.T.);
#114=ORIENTED_EDGE('',*,*,#435,.T.);
#115=ORIENTED_EDGE('',*,*,#436,.T.);
#116=ORIENTED_EDGE('',*,*,#437,.T.);
#117=ORIENTED_EDGE('',*,*,#438,.T.);
#118=ORIENTED_EDGE('',*,*,#439,.T.);
#119=ORIENTED_EDGE('',*,*,#440,.T.);
#120=ORIENTED_EDGE('',*,*,#441,.T.);
#121=ORIENTED_EDGE('',*,*,#442,.T.);
#122=ORIENTED_EDGE('',*,*,#443,.T.);
#123=ORIENTED_EDGE('',*,*,#444,.T.);
#124=ORIENTED_EDGE('',*,*,#445,.T.);
#125=ORIENTED_EDGE('',*,*,#446,.T.);
#126=ORIENTED_EDGE('',*,*,#447,.T.);
#127=ORIENTED_EDGE('',*,*,#443,.F.);
#128=ORIENTED_EDGE('',*,*,#442,.F.);
#129=ORIENTED_EDGE('',*,*,#447,.F.);
#130=ORIENTED_EDGE('',*,*,#446,.F.);
#131=ORIENTED_EDGE('',*,*,#445,.F.);
#132=ORIENTED_EDGE('',*,*,#444,.F.);
#133=ORIENTED_EDGE('',*,*,#448,.T.);
#134=ORIENTED_EDGE('',*,*,#449,.T.);
#135=ORIENTED_EDGE('',*,*,#450,.T.);
#136=ORIENTED_EDGE('',*,*,#451,.T.);
#137=ORIENTED_EDGE('',*,*,#452,.T.);
#138=ORIENTED_EDGE('',*,*,#453,.T.);
#139=ORIENTED_EDGE('',*,*,#454,.T.);
#140=ORIENTED_EDGE('',*,*,#455,.T.);
#141=ORIENTED_EDGE('',*,*,#456,.T.);
#142=ORIENTED_EDGE('',*,*,#457,.T.);
#143=ORIENTED_EDGE('',*,*,#458,.T.);
#144=ORIENTED_EDGE('',*,*,#459,.T.);
#145=ORIENTED_EDGE('',*,*,#460,.T.);
#146=ORIENTED_EDGE('',*,*,#461,.T.);
#147=ORIENTED_EDGE('',*,*,#462,.T.);
#148=ORIENTED_EDGE('',*,*,#463,.T.);
#149=ORIENTED_EDGE('',*,*,#464,.T.);
#150=ORIENTED_EDGE('',*,*,#465,.T.);
#151=ORIENTED_EDGE('',*,*,#466,.T.);
#152=ORIENTED_EDGE('',*,*,#467,.T.);
#153=ORIENTED_EDGE('',*,*,#468,.T.);
#154=ORIENTED_EDGE('',*,*,#469,.T.);
#155=ORIENTED_EDGE('',*,*,#467,.F.);
#156=ORIENTED_EDGE('',*,*,#466,.F.);
#157=ORIENTED_EDGE('',*,*,#469,.F.);
#158=ORIENTED_EDGE('',*,*,#468,.F.);
#159=ORIENTED_EDGE('',*,*,#470,.T.);
#160=ORIENTED_EDGE('',*,*,#471,.T.);
#161=ORIENTED_EDGE('',*,*,#472,.T.);
#162=ORIENTED_EDGE('',*,*,#473,.T.);
#163=ORIENTED_EDGE('',*,*,#474,.T.);
#164=ORIENTED_EDGE('',*,*,#475,.T.);
#165=ORIENTED_EDGE('',*,*,#476,.T.);
#166=ORIENTED_EDGE('',*,*,#477,.T.);
#167=ORIENTED_EDGE('',*,*,#478,.T.);
#168=ORIENTED_EDGE('',*,*,#479,.T.);
#169=ORIENTED_EDGE('',*,*,#480,.T.);
#170=ORIENTED_EDGE('',*,*,#481,.T.);
#171=ORIENTED_EDGE('',*,*,#482,.T.);
#172=ORIENTED_EDGE('',*,*,#483,.T.);
#173=ORIENTED_EDGE('',*,*,#484,.T.);
#174=ORIENTED_EDGE('',*,*,#485,.T.);
#175=ORIENTED_EDGE('',*,*,#486,.T.);
#176=ORIENTED_EDGE('',*,*,#487,.T.);
#177=ORIENTED_EDGE('',*,*,#488,.T.);
#178=ORIENTED_EDGE('',*,*,#489,.T.);
#179=ORIENTED_EDGE('',*,*,#490,.T.);
#180=ORIENTED_EDGE('',*,*,#491,.T.);
#181=ORIENTED_EDGE('',*,*,#492,.T.);
#182=ORIENTED_EDGE('',*,*,#493,.T.);
#183=ORIENTED_EDGE('',*,*,#494,.T.);
#184=ORIENTED_EDGE('',*,*,#495,.T.);
#185=ORIENTED_EDGE('',*,*,#496,.T.);
#186=ORIENTED_EDGE('',*,*,#497,.T.);
#187=ORIENTED_EDGE('',*,*,#498,.T.);
#188=ORIENTED_EDGE('',*,*,#499,.T.);
#189=ORIENTED_EDGE('',*,*,#500,.T.);
#190=ORIENTED_EDGE('',*,*,#501,.T.);
#191=ORIENTED_EDGE('',*,*,#502,.T.);
#192=ORIENTED_EDGE('',*,*,#391,.F.);
#193=ORIENTED_EDGE('',*,*,#390,.F.);
#194=ORIENTED_EDGE('',*,*,#398,.F.);
#195=ORIENTED_EDGE('',*,*,#397,.F.);
#196=ORIENTED_EDGE('',*,*,#396,.F.);
#197=ORIENTED_EDGE('',*,*,#395,.F.);
#198=ORIENTED_EDGE('',*,*,#394,.F.);
#199=ORIENTED_EDGE('',*,*,#393,.F.);
#200=ORIENTED_EDGE('',*,*,#392,.F.);
#201=ORIENTED_EDGE('',*,*,#400,.F.);
#202=ORIENTED_EDGE('',*,*,#399,.F.);
#203=ORIENTED_EDGE('',*,*,#407,.F.);
#204=ORIENTED_EDGE('',*,*,#406,.F.);
#205=ORIENTED_EDGE('',*,*,#405,.F.);
#206=ORIENTED_EDGE('',*,*,#404,.F.);
#207=ORIENTED_EDGE('',*,*,#403,.F.);
#208=ORIENTED_EDGE('',*,*,#402,.F.);
#209=ORIENTED_EDGE('',*,*,#401,.F.);
#210=ORIENTED_EDGE('',*,*,#409,.F.);
#211=ORIENTED_EDGE('',*,*,#408,.F.);
#212=ORIENTED_EDGE('',*,*,#419,.F.);
#213=ORIENTED_EDGE('',*,*,#418,.F.);
#214=ORIENTED_EDGE('',*,*,#417,.F.);
#215=ORIENTED_EDGE('',*,*,#416,.F.);
#216=ORIENTED_EDGE('',*,*,#415,.F.);
#217=ORIENTED_EDGE('',*,*,#414,.F.);
#218=ORIENTED_EDGE('',*,*,#413,.F.);
#219=ORIENTED_EDGE('',*,*,#412,.F.);
#220=ORIENTED_EDGE('',*,*,#411,.F.);
#221=ORIENTED_EDGE('',*,*,#410,.F.);
#222=ORIENTED_EDGE('',*,*,#425,.F.);
#223=ORIENTED_EDGE('',*,*,#424,.F.);
#224=ORIENTED_EDGE('',*,*,#429,.F.);
#225=ORIENTED_EDGE('',*,*,#428,.F.);
#226=ORIENTED_EDGE('',*,*,#427,.F.);
#227=ORIENTED_EDGE('',*,*,#426,.F.);
#228=ORIENTED_EDGE('',*,*,#431,.F.);
#229=ORIENTED_EDGE('',*,*,#433,.F.);
#230=ORIENTED_EDGE('',*,*,#432,.F.);
#231=ORIENTED_EDGE('',*,*,#441,.F.);
#232=ORIENTED_EDGE('',*,*,#440,.F.);
#233=ORIENTED_EDGE('',*,*,#439,.F.);
#234=ORIENTED_EDGE('',*,*,#438,.F.);
#235=ORIENTED_EDGE('',*,*,#437,.F.);
#236=ORIENTED_EDGE('',*,*,#436,.F.);
#237=ORIENTED_EDGE('',*,*,#435,.F.);
#238=ORIENTED_EDGE('',*,*,#434,.F.);
#239=ORIENTED_EDGE('',*,*,#503,.T.);
#240=ORIENTED_EDGE('',*,*,#504,.T.);
#241=ORIENTED_EDGE('',*,*,#505,.T.);
#242=ORIENTED_EDGE('',*,*,#506,.T.);
#243=ORIENTED_EDGE('',*,*,#507,.T.);
#244=ORIENTED_EDGE('',*,*,#508,.T.);
#245=ORIENTED_EDGE('',*,*,#449,.F.);
#246=ORIENTED_EDGE('',*,*,#448,.F.);
#247=ORIENTED_EDGE('',*,*,#457,.F.);
#248=ORIENTED_EDGE('',*,*,#456,.F.);
#249=ORIENTED_EDGE('',*,*,#455,.F.);
#250=ORIENTED_EDGE('',*,*,#454,.F.);
#251=ORIENTED_EDGE('',*,*,#453,.F.);
#252=ORIENTED_EDGE('',*,*,#452,.F.);
#253=ORIENTED_EDGE('',*,*,#451,.F.);
#254=ORIENTED_EDGE('',*,*,#450,.F.);
#255=ORIENTED_EDGE('',*,*,#459,.F.);
#256=ORIENTED_EDGE('',*,*,#458,.F.);
#257=ORIENTED_EDGE('',*,*,#465,.F.);
#258=ORIENTED_EDGE('',*,*,#464,.F.);
#259=ORIENTED_EDGE('',*,*,#463,.F.);
#260=ORIENTED_EDGE('',*,*,#462,.F.);
#261=ORIENTED_EDGE('',*,*,#461,.F.);
#262=ORIENTED_EDGE('',*,*,#460,.F.);
#263=ORIENTED_EDGE('',*,*,#471,.F.);
#264=ORIENTED_EDGE('',*,*,#470,.F.);
#265=ORIENTED_EDGE('',*,*,#478,.F.);
#266=ORIENTED_EDGE('',*,*,#477,.F.);
#267=ORIENTED_EDGE('',*,*,#476,.F.);
#268=ORIENTED_EDGE('',*,*,#475,.F.);
#269=ORIENTED_EDGE('',*,*,#474,.F.);
#270=ORIENTED_EDGE('',*,*,#473,.F.);
#271=ORIENTED_EDGE('',*,*,#472,.F.);
#272=ORIENTED_EDGE('',*,*,#480,.F.);
#273=ORIENTED_EDGE('',*,*,#479,.F.);
#274=ORIENTED_EDGE('',*,*,#490,.F.);
#275=ORIENTED_EDGE('',*,*,#489,.F.);
#276=ORIENTED_EDGE('',*,*,#488,.F.);
#277=ORIENTED_EDGE('',*,*,#487,.F.);
#278=ORIENTED_EDGE('',*,*,#486,.F.);
#279=ORIENTED_EDGE('',*,*,#485,.F.);
#280=ORIENTED_EDGE('',*,*,#484,.F.);
#281=ORIENTED_EDGE('',*,*,#483,.F.);
#282=ORIENTED_EDGE('',*,*,#482,.F.);
#283=ORIENTED_EDGE('',*,*,#481,.F.);
#284=ORIENTED_EDGE('',*,*,#492,.F.);
#285=ORIENTED_EDGE('',*,*,#491,.F.);
#286=ORIENTED_EDGE('',*,*,#502,.F.);
#287=ORIENTED_EDGE('',*,*,#501,.F.);
#288=ORIENTED_EDGE('',*,*,#500,.F.);
#289=ORIENTED_EDGE('',*,*,#499,.F.);
#290=ORIENTED_EDGE('',*,*,#498,.F.);
#291=ORIENTED_EDGE('',*,*,#497,.F.);
#292=ORIENTED_EDGE('',*,*,#496,.F.);
#293=ORIENTED_EDGE('',*,*,#495,.F.);
#294=ORIENTED_EDGE('',*,*,#494,.F.);
#295=ORIENTED_EDGE('',*,*,#493,.F.);
#296=ORIENTED_EDGE('',*,*,#509,.T.);
#297=ORIENTED_EDGE('',*,*,#510,.T.);
#298=ORIENTED_EDGE('',*,*,#511,.T.);
#299=ORIENTED_EDGE('',*,*,#512,.T.);
#300=ORIENTED_EDGE('',*,*,#513,.T.);
#301=ORIENTED_EDGE('',*,*,#514,.T.);
#302=ORIENTED_EDGE('',*,*,#515,.T.);
#303=ORIENTED_EDGE('',*,*,#516,.T.);
#304=ORIENTED_EDGE('',*,*,#517,.T.);
#305=ORIENTED_EDGE('',*,*,#518,.T.);
#306=ORIENTED_EDGE('',*,*,#519,.F.);
#307=ORIENTED_EDGE('',*,*,#520,.T.);
#308=ORIENTED_EDGE('',*,*,#521,.T.);
#309=ORIENTED_EDGE('',*,*,#522,.T.);
#310=ORIENTED_EDGE('',*,*,#523,.F.);
#311=ORIENTED_EDGE('',*,*,#524,.T.);
#312=ORIENTED_EDGE('',*,*,#525,.F.);
#313=ORIENTED_EDGE('',*,*,#526,.T.);
#314=ORIENTED_EDGE('',*,*,#527,.T.);
#315=ORIENTED_EDGE('',*,*,#528,.T.);
#316=ORIENTED_EDGE('',*,*,#529,.F.);
#317=ORIENTED_EDGE('',*,*,#530,.T.);
#318=ORIENTED_EDGE('',*,*,#531,.T.);
#319=ORIENTED_EDGE('',*,*,#532,.T.);
#320=ORIENTED_EDGE('',*,*,#531,.F.);
#321=ORIENTED_EDGE('',*,*,#533,.T.);
#322=ORIENTED_EDGE('',*,*,#517,.F.);
#323=ORIENTED_EDGE('',*,*,#534,.T.);
#324=ORIENTED_EDGE('',*,*,#535,.T.);
#325=ORIENTED_EDGE('',*,*,#536,.T.);
#326=ORIENTED_EDGE('',*,*,#521,.F.);
#327=ORIENTED_EDGE('',*,*,#537,.T.);
#328=ORIENTED_EDGE('',*,*,#538,.T.);
#329=ORIENTED_EDGE('',*,*,#539,.T.);
#330=ORIENTED_EDGE('',*,*,#527,.F.);
#331=ORIENTED_EDGE('',*,*,#540,.T.);
#332=ORIENTED_EDGE('',*,*,#504,.F.);
#333=ORIENTED_EDGE('',*,*,#503,.F.);
#334=ORIENTED_EDGE('',*,*,#508,.F.);
#335=ORIENTED_EDGE('',*,*,#507,.F.);
#336=ORIENTED_EDGE('',*,*,#506,.F.);
#337=ORIENTED_EDGE('',*,*,#505,.F.);
#338=ORIENTED_EDGE('',*,*,#510,.F.);
#339=ORIENTED_EDGE('',*,*,#509,.F.);
#340=ORIENTED_EDGE('',*,*,#516,.F.);
#341=ORIENTED_EDGE('',*,*,#515,.F.);
#342=ORIENTED_EDGE('',*,*,#514,.F.);
#343=ORIENTED_EDGE('',*,*,#513,.F.);
#344=ORIENTED_EDGE('',*,*,#512,.F.);
#345=ORIENTED_EDGE('',*,*,#511,.F.);
#346=ORIENTED_EDGE('',*,*,#519,.T.);
#347=ORIENTED_EDGE('',*,*,#541,.T.);
#348=ORIENTED_EDGE('',*,*,#529,.T.);
#349=ORIENTED_EDGE('',*,*,#542,.T.);
#350=ORIENTED_EDGE('',*,*,#525,.T.);
#351=ORIENTED_EDGE('',*,*,#543,.T.);
#352=ORIENTED_EDGE('',*,*,#544,.F.);
#353=ORIENTED_EDGE('',*,*,#545,.T.);
#354=ORIENTED_EDGE('',*,*,#523,.T.);
#355=ORIENTED_EDGE('',*,*,#546,.T.);
#356=ORIENTED_EDGE('',*,*,#547,.F.);
#357=ORIENTED_EDGE('',*,*,#548,.T.);
#358=ORIENTED_EDGE('',*,*,#538,.F.);
#359=ORIENTED_EDGE('',*,*,#549,.T.);
#360=ORIENTED_EDGE('',*,*,#544,.T.);
#361=ORIENTED_EDGE('',*,*,#550,.T.);
#362=ORIENTED_EDGE('',*,*,#535,.F.);
#363=ORIENTED_EDGE('',*,*,#551,.T.);
#364=ORIENTED_EDGE('',*,*,#547,.T.);
#365=ORIENTED_EDGE('',*,*,#552,.T.);
#366=ORIENTED_EDGE('',*,*,#533,.F.);
#367=ORIENTED_EDGE('',*,*,#530,.F.);
#368=ORIENTED_EDGE('',*,*,#541,.F.);
#369=ORIENTED_EDGE('',*,*,#518,.F.);
#370=ORIENTED_EDGE('',*,*,#540,.F.);
#371=ORIENTED_EDGE('',*,*,#526,.F.);
#372=ORIENTED_EDGE('',*,*,#542,.F.);
#373=ORIENTED_EDGE('',*,*,#532,.F.);
#374=ORIENTED_EDGE('',*,*,#534,.F.);
#375=ORIENTED_EDGE('',*,*,#520,.F.);
#376=ORIENTED_EDGE('',*,*,#548,.F.);
#377=ORIENTED_EDGE('',*,*,#551,.F.);
#378=ORIENTED_EDGE('',*,*,#536,.F.);
#379=ORIENTED_EDGE('',*,*,#552,.F.);
#380=ORIENTED_EDGE('',*,*,#546,.F.);
#381=ORIENTED_EDGE('',*,*,#522,.F.);
#382=ORIENTED_EDGE('',*,*,#537,.F.);
#383=ORIENTED_EDGE('',*,*,#524,.F.);
#384=ORIENTED_EDGE('',*,*,#545,.F.);
#385=ORIENTED_EDGE('',*,*,#549,.F.);
#386=ORIENTED_EDGE('',*,*,#539,.F.);
#387=ORIENTED_EDGE('',*,*,#550,.F.);
#388=ORIENTED_EDGE('',*,*,#543,.F.);
#389=ORIENTED_EDGE('',*,*,#528,.F.);
#390=EDGE_CURVE('',#553,#554,#704,.T.);
#391=EDGE_CURVE('',#554,#555,#705,.T.);
#392=EDGE_CURVE('',#555,#556,#706,.T.);
#393=EDGE_CURVE('',#556,#557,#707,.T.);
#394=EDGE_CURVE('',#557,#558,#708,.T.);
#395=EDGE_CURVE('',#558,#559,#709,.T.);
#396=EDGE_CURVE('',#559,#560,#710,.T.);
#397=EDGE_CURVE('',#560,#561,#711,.T.);
#398=EDGE_CURVE('',#561,#553,#712,.T.);
#399=EDGE_CURVE('',#562,#563,#713,.T.);
#400=EDGE_CURVE('',#563,#564,#714,.T.);
#401=EDGE_CURVE('',#564,#565,#715,.T.);
#402=EDGE_CURVE('',#565,#566,#716,.T.);
#403=EDGE_CURVE('',#566,#567,#717,.T.);
#404=EDGE_CURVE('',#567,#568,#718,.T.);
#405=EDGE_CURVE('',#568,#569,#719,.T.);
#406=EDGE_CURVE('',#569,#570,#720,.T.);
#407=EDGE_CURVE('',#570,#562,#721,.T.);
#408=EDGE_CURVE('',#571,#572,#722,.T.);
#409=EDGE_CURVE('',#572,#573,#723,.T.);
#410=EDGE_CURVE('',#573,#574,#724,.T.);
#411=EDGE_CURVE('',#574,#575,#725,.T.);
#412=EDGE_CURVE('',#575,#576,#726,.T.);
#413=EDGE_CURVE('',#576,#577,#727,.T.);
#414=EDGE_CURVE('',#577,#578,#728,.T.);
#415=EDGE_CURVE('',#578,#579,#729,.T.);
#416=EDGE_CURVE('',#579,#580,#730,.T.);
#417=EDGE_CURVE('',#580,#581,#731,.T.);
#418=EDGE_CURVE('',#581,#582,#732,.T.);
#419=EDGE_CURVE('',#582,#571,#733,.T.);
#420=EDGE_CURVE('',#583,#584,#734,.T.);
#421=EDGE_CURVE('',#584,#585,#28,.F.);
#422=EDGE_CURVE('',#585,#586,#735,.T.);
#423=EDGE_CURVE('',#586,#583,#736,.T.);
#424=EDGE_CURVE('',#587,#588,#29,.F.);
#425=EDGE_CURVE('',#588,#589,#737,.T.);
#426=EDGE_CURVE('',#589,#590,#738,.T.);
#427=EDGE_CURVE('',#590,#591,#739,.T.);
#428=EDGE_CURVE('',#591,#592,#740,.T.);
#429=EDGE_CURVE('',#592,#587,#741,.T.);
#430=EDGE_CURVE('',#593,#593,#27,.T.);
#431=EDGE_CURVE('',#594,#594,#26,.F.);
#432=EDGE_CURVE('',#595,#596,#742,.T.);
#433=EDGE_CURVE('',#596,#597,#743,.T.);
#434=EDGE_CURVE('',#597,#598,#744,.T.);
#435=EDGE_CURVE('',#598,#599,#745,.T.);
#436=EDGE_CURVE('',#599,#600,#746,.T.);
#437=EDGE_CURVE('',#600,#601,#747,.T.);
#438=EDGE_CURVE('',#601,#602,#748,.T.);
#439=EDGE_CURVE('',#602,#603,#749,.T.);
#440=EDGE_CURVE('',#603,#604,#750,.T.);
#441=EDGE_CURVE('',#604,#595,#751,.T.);
#442=EDGE_CURVE('',#605,#606,#752,.T.);
#443=EDGE_CURVE('',#606,#607,#30,.F.);
#444=EDGE_CURVE('',#607,#608,#753,.T.);
#445=EDGE_CURVE('',#608,#609,#754,.T.);
#446=EDGE_CURVE('',#609,#610,#755,.T.);
#447=EDGE_CURVE('',#610,#605,#31,.F.);
#448=EDGE_CURVE('',#611,#612,#756,.T.);
#449=EDGE_CURVE('',#612,#613,#757,.T.);
#450=EDGE_CURVE('',#613,#614,#758,.T.);
#451=EDGE_CURVE('',#614,#615,#759,.T.);
#452=EDGE_CURVE('',#615,#616,#760,.T.);
#453=EDGE_CURVE('',#616,#617,#761,.T.);
#454=EDGE_CURVE('',#617,#618,#762,.T.);
#455=EDGE_CURVE('',#618,#619,#32,.F.);
#456=EDGE_CURVE('',#619,#620,#763,.T.);
#457=EDGE_CURVE('',#620,#611,#33,.F.);
#458=EDGE_CURVE('',#621,#622,#764,.T.);
#459=EDGE_CURVE('',#622,#623,#765,.T.);
#460=EDGE_CURVE('',#623,#624,#766,.T.);
#461=EDGE_CURVE('',#624,#625,#767,.T.);
#462=EDGE_CURVE('',#625,#626,#768,.T.);
#463=EDGE_CURVE('',#626,#627,#769,.T.);
#464=EDGE_CURVE('',#627,#628,#770,.T.);
#465=EDGE_CURVE('',#628,#621,#771,.T.);
#466=EDGE_CURVE('',#629,#630,#772,.T.);
#467=EDGE_CURVE('',#630,#631,#34,.F.);
#468=EDGE_CURVE('',#631,#632,#773,.T.);
#469=EDGE_CURVE('',#632,#629,#774,.T.);
#470=EDGE_CURVE('',#633,#634,#35,.F.);
#471=EDGE_CURVE('',#634,#635,#775,.T.);
#472=EDGE_CURVE('',#635,#636,#776,.T.);
#473=EDGE_CURVE('',#636,#637,#777,.T.);
#474=EDGE_CURVE('',#637,#638,#778,.T.);
#475=EDGE_CURVE('',#638,#639,#779,.T.);
#476=EDGE_CURVE('',#639,#640,#780,.T.);
#477=EDGE_CURVE('',#640,#641,#781,.T.);
#478=EDGE_CURVE('',#641,#633,#782,.T.);
#479=EDGE_CURVE('',#642,#643,#783,.T.);
#480=EDGE_CURVE('',#643,#644,#784,.T.);
#481=EDGE_CURVE('',#644,#645,#785,.T.);
#482=EDGE_CURVE('',#645,#646,#36,.F.);
#483=EDGE_CURVE('',#646,#647,#786,.T.);
#484=EDGE_CURVE('',#647,#648,#37,.F.);
#485=EDGE_CURVE('',#648,#649,#787,.T.);
#486=EDGE_CURVE('',#649,#650,#788,.T.);
#487=EDGE_CURVE('',#650,#651,#789,.T.);
#488=EDGE_CURVE('',#651,#652,#38,.T.);
#489=EDGE_CURVE('',#652,#653,#790,.T.);
#490=EDGE_CURVE('',#653,#642,#39,.T.);
#491=EDGE_CURVE('',#654,#655,#791,.T.);
#492=EDGE_CURVE('',#655,#656,#40,.F.);
#493=EDGE_CURVE('',#656,#657,#792,.T.);
#494=EDGE_CURVE('',#657,#658,#41,.F.);
#495=EDGE_CURVE('',#658,#659,#793,.T.);
#496=EDGE_CURVE('',#659,#660,#42,.T.);
#497=EDGE_CURVE('',#660,#661,#794,.T.);
#498=EDGE_CURVE('',#661,#662,#43,.T.);
#499=EDGE_CURVE('',#662,#663,#795,.T.);
#500=EDGE_CURVE('',#663,#664,#44,.T.);
#501=EDGE_CURVE('',#664,#665,#796,.T.);
#502=EDGE_CURVE('',#665,#654,#45,.F.);
#503=EDGE_CURVE('',#666,#667,#46,.F.);
#504=EDGE_CURVE('',#667,#668,#797,.T.);
#505=EDGE_CURVE('',#668,#669,#798,.T.);
#506=EDGE_CURVE('',#669,#670,#799,.T.);
#507=EDGE_CURVE('',#670,#671,#47,.F.);
#508=EDGE_CURVE('',#671,#666,#800,.T.);
#509=EDGE_CURVE('',#672,#673,#801,.T.);
#510=EDGE_CURVE('',#673,#674,#48,.F.);
#511=EDGE_CURVE('',#674,#675,#802,.T.);
#512=EDGE_CURVE('',#675,#676,#49,.F.);
#513=EDGE_CURVE('',#676,#677,#803,.T.);
#514=EDGE_CURVE('',#677,#678,#50,.F.);
#515=EDGE_CURVE('',#678,#679,#804,.T.);
#516=EDGE_CURVE('',#679,#672,#51,.F.);
#517=EDGE_CURVE('',#680,#681,#805,.T.);
#518=EDGE_CURVE('',#681,#682,#806,.T.);
#519=EDGE_CURVE('',#683,#682,#807,.T.);
#520=EDGE_CURVE('',#683,#680,#808,.F.);
#521=EDGE_CURVE('',#684,#685,#809,.T.);
#522=EDGE_CURVE('',#685,#686,#810,.T.);
#523=EDGE_CURVE('',#687,#686,#811,.T.);
#524=EDGE_CURVE('',#687,#684,#812,.F.);
#525=EDGE_CURVE('',#688,#689,#813,.T.);
#526=EDGE_CURVE('',#688,#690,#814,.F.);
#527=EDGE_CURVE('',#690,#691,#815,.T.);
#528=EDGE_CURVE('',#691,#689,#816,.T.);
#529=EDGE_CURVE('',#692,#693,#817,.T.);
#530=EDGE_CURVE('',#692,#694,#818,.F.);
#531=EDGE_CURVE('',#694,#695,#819,.T.);
#532=EDGE_CURVE('',#695,#693,#820,.T.);
#533=EDGE_CURVE('',#694,#681,#52,.T.);
#534=EDGE_CURVE('',#680,#696,#53,.T.);
#535=EDGE_CURVE('',#696,#697,#821,.T.);
#536=EDGE_CURVE('',#697,#685,#54,.T.);
#537=EDGE_CURVE('',#684,#698,#55,.T.);
#538=EDGE_CURVE('',#698,#699,#822,.T.);
#539=EDGE_CURVE('',#699,#691,#56,.T.);
#540=EDGE_CURVE('',#690,#695,#57,.T.);
#541=EDGE_CURVE('',#682,#692,#58,.F.);
#542=EDGE_CURVE('',#693,#688,#59,.F.);
#543=EDGE_CURVE('',#689,#700,#60,.F.);
#544=EDGE_CURVE('',#701,#700,#823,.T.);
#545=EDGE_CURVE('',#701,#687,#61,.F.);
#546=EDGE_CURVE('',#686,#702,#62,.F.);
#547=EDGE_CURVE('',#703,#702,#824,.T.);
#548=EDGE_CURVE('',#703,#683,#63,.F.);
#549=EDGE_CURVE('',#698,#701,#825,.T.);
#550=EDGE_CURVE('',#700,#699,#826,.F.);
#551=EDGE_CURVE('',#696,#703,#827,.T.);
#552=EDGE_CURVE('',#702,#697,#828,.F.);
#553=VERTEX_POINT('',#1530);
#554=VERTEX_POINT('',#1531);
#555=VERTEX_POINT('',#1533);
#556=VERTEX_POINT('',#1535);
#557=VERTEX_POINT('',#1537);
#558=VERTEX_POINT('',#1539);
#559=VERTEX_POINT('',#1541);
#560=VERTEX_POINT('',#1543);
#561=VERTEX_POINT('',#1545);
#562=VERTEX_POINT('',#1549);
#563=VERTEX_POINT('',#1550);
#564=VERTEX_POINT('',#1552);
#565=VERTEX_POINT('',#1554);
#566=VERTEX_POINT('',#1556);
#567=VERTEX_POINT('',#1558);
#568=VERTEX_POINT('',#1560);
#569=VERTEX_POINT('',#1562);
#570=VERTEX_POINT('',#1564);
#571=VERTEX_POINT('',#1568);
#572=VERTEX_POINT('',#1569);
#573=VERTEX_POINT('',#1571);
#574=VERTEX_POINT('',#1573);
#575=VERTEX_POINT('',#1575);
#576=VERTEX_POINT('',#1577);
#577=VERTEX_POINT('',#1579);
#578=VERTEX_POINT('',#1581);
#579=VERTEX_POINT('',#1583);
#580=VERTEX_POINT('',#1585);
#581=VERTEX_POINT('',#1587);
#582=VERTEX_POINT('',#1589);
#583=VERTEX_POINT('',#1593);
#584=VERTEX_POINT('',#1594);
#585=VERTEX_POINT('',#1596);
#586=VERTEX_POINT('',#1598);
#587=VERTEX_POINT('',#1602);
#588=VERTEX_POINT('',#1603);
#589=VERTEX_POINT('',#1605);
#590=VERTEX_POINT('',#1607);
#591=VERTEX_POINT('',#1609);
#592=VERTEX_POINT('',#1611);
#593=VERTEX_POINT('',#1625);
#594=VERTEX_POINT('',#1628);
#595=VERTEX_POINT('',#1631);
#596=VERTEX_POINT('',#1632);
#597=VERTEX_POINT('',#1634);
#598=VERTEX_POINT('',#1636);
#599=VERTEX_POINT('',#1638);
#600=VERTEX_POINT('',#1640);
#601=VERTEX_POINT('',#1642);
#602=VERTEX_POINT('',#1644);
#603=VERTEX_POINT('',#1646);
#604=VERTEX_POINT('',#1648);
#605=VERTEX_POINT('',#1652);
#606=VERTEX_POINT('',#1653);
#607=VERTEX_POINT('',#1655);
#608=VERTEX_POINT('',#1657);
#609=VERTEX_POINT('',#1659);
#610=VERTEX_POINT('',#1661);
#611=VERTEX_POINT('',#1665);
#612=VERTEX_POINT('',#1666);
#613=VERTEX_POINT('',#1668);
#614=VERTEX_POINT('',#1670);
#615=VERTEX_POINT('',#1672);
#616=VERTEX_POINT('',#1674);
#617=VERTEX_POINT('',#1676);
#618=VERTEX_POINT('',#1678);
#619=VERTEX_POINT('',#1680);
#620=VERTEX_POINT('',#1682);
#621=VERTEX_POINT('',#1686);
#622=VERTEX_POINT('',#1687);
#623=VERTEX_POINT('',#1689);
#624=VERTEX_POINT('',#1691);
#625=VERTEX_POINT('',#1693);
#626=VERTEX_POINT('',#1695);
#627=VERTEX_POINT('',#1697);
#628=VERTEX_POINT('',#1699);
#629=VERTEX_POINT('',#1703);
#630=VERTEX_POINT('',#1704);
#631=VERTEX_POINT('',#1706);
#632=VERTEX_POINT('',#1708);
#633=VERTEX_POINT('',#1712);
#634=VERTEX_POINT('',#1713);
#635=VERTEX_POINT('',#1715);
#636=VERTEX_POINT('',#1717);
#637=VERTEX_POINT('',#1719);
#638=VERTEX_POINT('',#1721);
#639=VERTEX_POINT('',#1723);
#640=VERTEX_POINT('',#1725);
#641=VERTEX_POINT('',#1727);
#642=VERTEX_POINT('',#1731);
#643=VERTEX_POINT('',#1732);
#644=VERTEX_POINT('',#1734);
#645=VERTEX_POINT('',#1736);
#646=VERTEX_POINT('',#1738);
#647=VERTEX_POINT('',#1740);
#648=VERTEX_POINT('',#1742);
#649=VERTEX_POINT('',#1744);
#650=VERTEX_POINT('',#1746);
#651=VERTEX_POINT('',#1748);
#652=VERTEX_POINT('',#1750);
#653=VERTEX_POINT('',#1752);
#654=VERTEX_POINT('',#1756);
#655=VERTEX_POINT('',#1757);
#656=VERTEX_POINT('',#1759);
#657=VERTEX_POINT('',#1761);
#658=VERTEX_POINT('',#1763);
#659=VERTEX_POINT('',#1765);
#660=VERTEX_POINT('',#1767);
#661=VERTEX_POINT('',#1769);
#662=VERTEX_POINT('',#1771);
#663=VERTEX_POINT('',#1773);
#664=VERTEX_POINT('',#1775);
#665=VERTEX_POINT('',#1777);
#666=VERTEX_POINT('',#1781);
#667=VERTEX_POINT('',#1782);
#668=VERTEX_POINT('',#1784);
#669=VERTEX_POINT('',#1786);
#670=VERTEX_POINT('',#1788);
#671=VERTEX_POINT('',#1790);
#672=VERTEX_POINT('',#1794);
#673=VERTEX_POINT('',#1795);
#674=VERTEX_POINT('',#1797);
#675=VERTEX_POINT('',#1799);
#676=VERTEX_POINT('',#1801);
#677=VERTEX_POINT('',#1803);
#678=VERTEX_POINT('',#1805);
#679=VERTEX_POINT('',#1807);
#680=VERTEX_POINT('',#1811);
#681=VERTEX_POINT('',#1812);
#682=VERTEX_POINT('',#1814);
#683=VERTEX_POINT('',#1816);
#684=VERTEX_POINT('',#1820);
#685=VERTEX_POINT('',#1821);
#686=VERTEX_POINT('',#1823);
#687=VERTEX_POINT('',#1825);
#688=VERTEX_POINT('',#1829);
#689=VERTEX_POINT('',#1830);
#690=VERTEX_POINT('',#1832);
#691=VERTEX_POINT('',#1834);
#692=VERTEX_POINT('',#1838);
#693=VERTEX_POINT('',#1839);
#694=VERTEX_POINT('',#1841);
#695=VERTEX_POINT('',#1843);
#696=VERTEX_POINT('',#1848);
#697=VERTEX_POINT('',#1850);
#698=VERTEX_POINT('',#1853);
#699=VERTEX_POINT('',#1855);
#700=VERTEX_POINT('',#1862);
#701=VERTEX_POINT('',#1864);
#702=VERTEX_POINT('',#1867);
#703=VERTEX_POINT('',#1869);
#704=LINE('',#1529,#829);
#705=LINE('',#1532,#830);
#706=LINE('',#1534,#831);
#707=LINE('',#1536,#832);
#708=LINE('',#1538,#833);
#709=LINE('',#1540,#834);
#710=LINE('',#1542,#835);
#711=LINE('',#1544,#836);
#712=LINE('',#1546,#837);
#713=LINE('',#1548,#838);
#714=LINE('',#1551,#839);
#715=LINE('',#1553,#840);
#716=LINE('',#1555,#841);
#717=LINE('',#1557,#842);
#718=LINE('',#1559,#843);
#719=LINE('',#1561,#844);
#720=LINE('',#1563,#845);
#721=LINE('',#1565,#846);
#722=LINE('',#1567,#847);
#723=LINE('',#1570,#848);
#724=LINE('',#1572,#849);
#725=LINE('',#1574,#850);
#726=LINE('',#1576,#851);
#727=LINE('',#1578,#852);
#728=LINE('',#1580,#853);
#729=LINE('',#1582,#854);
#730=LINE('',#1584,#855);
#731=LINE('',#1586,#856);
#732=LINE('',#1588,#857);
#733=LINE('',#1590,#858);
#734=LINE('',#1592,#859);
#735=LINE('',#1597,#860);
#736=LINE('',#1599,#861);
#737=LINE('',#1604,#862);
#738=LINE('',#1606,#863);
#739=LINE('',#1608,#864);
#740=LINE('',#1610,#865);
#741=LINE('',#1612,#866);
#742=LINE('',#1630,#867);
#743=LINE('',#1633,#868);
#744=LINE('',#1635,#869);
#745=LINE('',#1637,#870);
#746=LINE('',#1639,#871);
#747=LINE('',#1641,#872);
#748=LINE('',#1643,#873);
#749=LINE('',#1645,#874);
#750=LINE('',#1647,#875);
#751=LINE('',#1649,#876);
#752=LINE('',#1651,#877);
#753=LINE('',#1656,#878);
#754=LINE('',#1658,#879);
#755=LINE('',#1660,#880);
#756=LINE('',#1664,#881);
#757=LINE('',#1667,#882);
#758=LINE('',#1669,#883);
#759=LINE('',#1671,#884);
#760=LINE('',#1673,#885);
#761=LINE('',#1675,#886);
#762=LINE('',#1677,#887);
#763=LINE('',#1681,#888);
#764=LINE('',#1685,#889);
#765=LINE('',#1688,#890);
#766=LINE('',#1690,#891);
#767=LINE('',#1692,#892);
#768=LINE('',#1694,#893);
#769=LINE('',#1696,#894);
#770=LINE('',#1698,#895);
#771=LINE('',#1700,#896);
#772=LINE('',#1702,#897);
#773=LINE('',#1707,#898);
#774=LINE('',#1709,#899);
#775=LINE('',#1714,#900);
#776=LINE('',#1716,#901);
#777=LINE('',#1718,#902);
#778=LINE('',#1720,#903);
#779=LINE('',#1722,#904);
#780=LINE('',#1724,#905);
#781=LINE('',#1726,#906);
#782=LINE('',#1728,#907);
#783=LINE('',#1730,#908);
#784=LINE('',#1733,#909);
#785=LINE('',#1735,#910);
#786=LINE('',#1739,#911);
#787=LINE('',#1743,#912);
#788=LINE('',#1745,#913);
#789=LINE('',#1747,#914);
#790=LINE('',#1751,#915);
#791=LINE('',#1755,#916);
#792=LINE('',#1760,#917);
#793=LINE('',#1764,#918);
#794=LINE('',#1768,#919);
#795=LINE('',#1772,#920);
#796=LINE('',#1776,#921);
#797=LINE('',#1783,#922);
#798=LINE('',#1785,#923);
#799=LINE('',#1787,#924);
#800=LINE('',#1791,#925);
#801=LINE('',#1793,#926);
#802=LINE('',#1798,#927);
#803=LINE('',#1802,#928);
#804=LINE('',#1806,#929);
#805=LINE('',#1810,#930);
#806=LINE('',#1813,#931);
#807=LINE('',#1815,#932);
#808=LINE('',#1817,#933);
#809=LINE('',#1819,#934);
#810=LINE('',#1822,#935);
#811=LINE('',#1824,#936);
#812=LINE('',#1826,#937);
#813=LINE('',#1828,#938);
#814=LINE('',#1831,#939);
#815=LINE('',#1833,#940);
#816=LINE('',#1835,#941);
#817=LINE('',#1837,#942);
#818=LINE('',#1840,#943);
#819=LINE('',#1842,#944);
#820=LINE('',#1844,#945);
#821=LINE('',#1849,#946);
#822=LINE('',#1854,#947);
#823=LINE('',#1863,#948);
#824=LINE('',#1868,#949);
#825=LINE('',#1872,#950);
#826=LINE('',#1873,#951);
#827=LINE('',#1875,#952);
#828=LINE('',#1876,#953);
#829=VECTOR('',#1268,1.);
#830=VECTOR('',#1269,1.);
#831=VECTOR('',#1270,1.);
#832=VECTOR('',#1271,1.);
#833=VECTOR('',#1272,1.);
#834=VECTOR('',#1273,1.);
#835=VECTOR('',#1274,1.);
#836=VECTOR('',#1275,1.);
#837=VECTOR('',#1276,1.);
#838=VECTOR('',#1279,1.);
#839=VECTOR('',#1280,1.);
#840=VECTOR('',#1281,1.);
#841=VECTOR('',#1282,1.);
#842=VECTOR('',#1283,1.);
#843=VECTOR('',#1284,1.);
#844=VECTOR('',#1285,1.);
#845=VECTOR('',#1286,1.);
#846=VECTOR('',#1287,1.);
#847=VECTOR('',#1290,1.);
#848=VECTOR('',#1291,1.);
#849=VECTOR('',#1292,1.);
#850=VECTOR('',#1293,1.);
#851=VECTOR('',#1294,1.);
#852=VECTOR('',#1295,1.);
#853=VECTOR('',#1296,1.);
#854=VECTOR('',#1297,1.);
#855=VECTOR('',#1298,1.);
#856=VECTOR('',#1299,1.);
#857=VECTOR('',#1300,1.);
#858=VECTOR('',#1301,1.);
#859=VECTOR('',#1304,1.);
#860=VECTOR('',#1307,1.);
#861=VECTOR('',#1308,1.);
#862=VECTOR('',#1313,1.);
#863=VECTOR('',#1314,1.);
#864=VECTOR('',#1315,1.);
#865=VECTOR('',#1316,1.);
#866=VECTOR('',#1317,1.);
#867=VECTOR('',#1326,1.);
#868=VECTOR('',#1327,1.);
#869=VECTOR('',#1328,1.);
#870=VECTOR('',#1329,1.);
#871=VECTOR('',#1330,1.);
#872=VECTOR('',#1331,1.);
#873=VECTOR('',#1332,1.);
#874=VECTOR('',#1333,1.);
#875=VECTOR('',#1334,1.);
#876=VECTOR('',#1335,1.);
#877=VECTOR('',#1338,1.);
#878=VECTOR('',#1341,1.);
#879=VECTOR('',#1342,1.);
#880=VECTOR('',#1343,1.);
#881=VECTOR('',#1348,1.);
#882=VECTOR('',#1349,1.);
#883=VECTOR('',#1350,1.);
#884=VECTOR('',#1351,1.);
#885=VECTOR('',#1352,1.);
#886=VECTOR('',#1353,1.);
#887=VECTOR('',#1354,1.);
#888=VECTOR('',#1357,1.);
#889=VECTOR('',#1362,1.);
#890=VECTOR('',#1363,1.);
#891=VECTOR('',#1364,1.);
#892=VECTOR('',#1365,1.);
#893=VECTOR('',#1366,1.);
#894=VECTOR('',#1367,1.);
#895=VECTOR('',#1368,1.);
#896=VECTOR('',#1369,1.);
#897=VECTOR('',#1372,1.);
#898=VECTOR('',#1375,1.);
#899=VECTOR('',#1376,1.);
#900=VECTOR('',#1381,1.);
#901=VECTOR('',#1382,1.);
#902=VECTOR('',#1383,1.);
#903=VECTOR('',#1384,1.);
#904=VECTOR('',#1385,1.);
#905=VECTOR('',#1386,1.);
#906=VECTOR('',#1387,1.);
#907=VECTOR('',#1388,1.);
#908=VECTOR('',#1391,1.);
#909=VECTOR('',#1392,1.);
#910=VECTOR('',#1393,1.);
#911=VECTOR('',#1396,1.);
#912=VECTOR('',#1399,1.);
#913=VECTOR('',#1400,1.);
#914=VECTOR('',#1401,1.);
#915=VECTOR('',#1404,1.);
#916=VECTOR('',#1409,1.);
#917=VECTOR('',#1412,1.);
#918=VECTOR('',#1415,1.);
#919=VECTOR('',#1418,1.);
#920=VECTOR('',#1421,1.);
#921=VECTOR('',#1424,1.);
#922=VECTOR('',#1431,1.);
#923=VECTOR('',#1432,1.);
#924=VECTOR('',#1433,1.);
#925=VECTOR('',#1436,1.);
#926=VECTOR('',#1439,1.);
#927=VECTOR('',#1442,1.);
#928=VECTOR('',#1445,1.);
#929=VECTOR('',#1448,1.);
#930=VECTOR('',#1453,1.);
#931=VECTOR('',#1454,1.);
#932=VECTOR('',#1455,1.);
#933=VECTOR('',#1456,1.);
#934=VECTOR('',#1459,1.);
#935=VECTOR('',#1460,1.);
#936=VECTOR('',#1461,1.);
#937=VECTOR('',#1462,1.);
#938=VECTOR('',#1465,1.);
#939=VECTOR('',#1466,1.);
#940=VECTOR('',#1467,1.);
#941=VECTOR('',#1468,1.);
#942=VECTOR('',#1471,1.);
#943=VECTOR('',#1472,1.);
#944=VECTOR('',#1473,1.);
#945=VECTOR('',#1474,1.);
#946=VECTOR('',#1481,1.);
#947=VECTOR('',#1486,1.);
#948=VECTOR('',#1499,1.);
#949=VECTOR('',#1504,1.);
#950=VECTOR('',#1509,1.);
#951=VECTOR('',#1510,1.);
#952=VECTOR('',#1513,1.);
#953=VECTOR('',#1514,1.);
#954=EDGE_LOOP('',(#64,#65,#66,#67,#68,#69,#70,#71,#72));
#955=EDGE_LOOP('',(#73,#74,#75,#76,#77,#78,#79,#80,#81));
#956=EDGE_LOOP('',(#82,#83,#84,#85,#86,#87,#88,#89,#90,#91,#92,#93));
#957=EDGE_LOOP('',(#94,#95,#96,#97));
#958=EDGE_LOOP('',(#98,#99,#100,#101));
#959=EDGE_LOOP('',(#102,#103,#104,#105,#106,#107));
#960=EDGE_LOOP('',(#108));
#961=EDGE_LOOP('',(#109));
#962=EDGE_LOOP('',(#110));
#963=EDGE_LOOP('',(#111,#112,#113,#114,#115,#116,#117,#118,#119,#120));
#964=EDGE_LOOP('',(#121,#122,#123,#124,#125,#126));
#965=EDGE_LOOP('',(#127,#128,#129,#130,#131,#132));
#966=EDGE_LOOP('',(#133,#134,#135,#136,#137,#138,#139,#140,#141,#142));
#967=EDGE_LOOP('',(#143,#144,#145,#146,#147,#148,#149,#150));
#968=EDGE_LOOP('',(#151,#152,#153,#154));
#969=EDGE_LOOP('',(#155,#156,#157,#158));
#970=EDGE_LOOP('',(#159,#160,#161,#162,#163,#164,#165,#166,#167));
#971=EDGE_LOOP('',(#168,#169,#170,#171,#172,#173,#174,#175,#176,#177,#178,
#179));
#972=EDGE_LOOP('',(#180,#181,#182,#183,#184,#185,#186,#187,#188,#189,#190,
#191));
#973=EDGE_LOOP('',(#192,#193,#194,#195,#196,#197,#198,#199,#200));
#974=EDGE_LOOP('',(#201,#202,#203,#204,#205,#206,#207,#208,#209));
#975=EDGE_LOOP('',(#210,#211,#212,#213,#214,#215,#216,#217,#218,#219,#220,
#221));
#976=EDGE_LOOP('',(#222,#223,#224,#225,#226,#227));
#977=EDGE_LOOP('',(#228));
#978=EDGE_LOOP('',(#229,#230,#231,#232,#233,#234,#235,#236,#237,#238));
#979=EDGE_LOOP('',(#239,#240,#241,#242,#243,#244));
#980=EDGE_LOOP('',(#245,#246,#247,#248,#249,#250,#251,#252,#253,#254));
#981=EDGE_LOOP('',(#255,#256,#257,#258,#259,#260,#261,#262));
#982=EDGE_LOOP('',(#263,#264,#265,#266,#267,#268,#269,#270,#271));
#983=EDGE_LOOP('',(#272,#273,#274,#275,#276,#277,#278,#279,#280,#281,#282,
#283));
#984=EDGE_LOOP('',(#284,#285,#286,#287,#288,#289,#290,#291,#292,#293,#294,
#295));
#985=EDGE_LOOP('',(#296,#297,#298,#299,#300,#301,#302,#303));
#986=EDGE_LOOP('',(#304,#305,#306,#307));
#987=EDGE_LOOP('',(#308,#309,#310,#311));
#988=EDGE_LOOP('',(#312,#313,#314,#315));
#989=EDGE_LOOP('',(#316,#317,#318,#319));
#990=EDGE_LOOP('',(#320,#321,#322,#323,#324,#325,#326,#327,#328,#329,#330,
#331));
#991=EDGE_LOOP('',(#332,#333,#334,#335,#336,#337));
#992=EDGE_LOOP('',(#338,#339,#340,#341,#342,#343,#344,#345));
#993=EDGE_LOOP('',(#346,#347,#348,#349,#350,#351,#352,#353,#354,#355,#356,
#357));
#994=EDGE_LOOP('',(#358,#359,#360,#361));
#995=EDGE_LOOP('',(#362,#363,#364,#365));
#996=EDGE_LOOP('',(#366,#367,#368,#369));
#997=EDGE_LOOP('',(#370,#371,#372,#373));
#998=EDGE_LOOP('',(#374,#375,#376,#377));
#999=EDGE_LOOP('',(#378,#379,#380,#381));
#1000=EDGE_LOOP('',(#382,#383,#384,#385));
#1001=EDGE_LOOP('',(#386,#387,#388,#389));
#1002=FACE_BOUND('',#954,.T.);
#1003=FACE_BOUND('',#955,.T.);
#1004=FACE_BOUND('',#956,.T.);
#1005=FACE_BOUND('',#957,.T.);
#1006=FACE_BOUND('',#958,.T.);
#1007=FACE_BOUND('',#959,.T.);
#1008=FACE_BOUND('',#960,.T.);
#1009=FACE_BOUND('',#961,.T.);
#1010=FACE_BOUND('',#962,.T.);
#1011=FACE_BOUND('',#963,.T.);
#1012=FACE_BOUND('',#964,.T.);
#1013=FACE_BOUND('',#965,.T.);
#1014=FACE_BOUND('',#966,.T.);
#1015=FACE_BOUND('',#967,.T.);
#1016=FACE_BOUND('',#968,.T.);
#1017=FACE_BOUND('',#969,.T.);
#1018=FACE_BOUND('',#970,.T.);
#1019=FACE_BOUND('',#971,.T.);
#1020=FACE_BOUND('',#972,.T.);
#1021=FACE_BOUND('',#973,.T.);
#1022=FACE_BOUND('',#974,.T.);
#1023=FACE_BOUND('',#975,.T.);
#1024=FACE_BOUND('',#976,.T.);
#1025=FACE_BOUND('',#977,.T.);
#1026=FACE_BOUND('',#978,.T.);
#1027=FACE_BOUND('',#979,.T.);
#1028=FACE_BOUND('',#980,.T.);
#1029=FACE_BOUND('',#981,.T.);
#1030=FACE_BOUND('',#982,.T.);
#1031=FACE_BOUND('',#983,.T.);
#1032=FACE_BOUND('',#984,.T.);
#1033=FACE_BOUND('',#985,.T.);
#1034=FACE_BOUND('',#986,.T.);
#1035=FACE_BOUND('',#987,.T.);
#1036=FACE_BOUND('',#988,.T.);
#1037=FACE_BOUND('',#989,.T.);
#1038=FACE_BOUND('',#990,.T.);
#1039=FACE_BOUND('',#991,.T.);
#1040=FACE_BOUND('',#992,.T.);
#1041=FACE_BOUND('',#993,.T.);
#1042=FACE_BOUND('',#994,.T.);
#1043=FACE_BOUND('',#995,.T.);
#1044=FACE_BOUND('',#996,.T.);
#1045=FACE_BOUND('',#997,.T.);
#1046=FACE_BOUND('',#998,.T.);
#1047=FACE_BOUND('',#999,.T.);
#1048=FACE_BOUND('',#1000,.T.);
#1049=FACE_BOUND('',#1001,.T.);
#1050=PLANE('',#1196);
#1051=PLANE('',#1197);
#1052=PLANE('',#1198);
#1053=PLANE('',#1199);
#1054=PLANE('',#1201);
#1055=PLANE('',#1203);
#1056=PLANE('',#1204);
#1057=PLANE('',#1206);
#1058=PLANE('',#1207);
#1059=PLANE('',#1210);
#1060=PLANE('',#1213);
#1061=PLANE('',#1214);
#1062=PLANE('',#1216);
#1063=PLANE('',#1218);
#1064=PLANE('',#1223);
#1065=PLANE('',#1230);
#1066=PLANE('',#1233);
#1067=PLANE('',#1238);
#1068=PLANE('',#1239);
#1069=PLANE('',#1240);
#1070=PLANE('',#1241);
#1071=PLANE('',#1242);
#1072=PLANE('',#1249);
#1073=PLANE('',#1256);
#1074=PLANE('',#1257);
#1075=STYLED_ITEM('',(#1087),#1160);
#1076=STYLED_ITEM('',(#1088),#1161);
#1077=STYLED_ITEM('',(#1089),#1162);
#1078=STYLED_ITEM('',(#1090),#1164);
#1079=STYLED_ITEM('',(#1091),#1166);
#1080=STYLED_ITEM('',(#1092),#1167);
#1081=STYLED_ITEM('',(#1093),#1169);
#1082=STYLED_ITEM('',(#1094),#1170);
#1083=STYLED_ITEM('',(#1095),#1172);
#1084=STYLED_ITEM('',(#1096),#1173);
#1085=STYLED_ITEM('',(#1097),#1174);
#1086=STYLED_ITEM('',(#1098),#1182);
#1087=PRESENTATION_STYLE_ASSIGNMENT((#1099));
#1088=PRESENTATION_STYLE_ASSIGNMENT((#1100));
#1089=PRESENTATION_STYLE_ASSIGNMENT((#1101));
#1090=PRESENTATION_STYLE_ASSIGNMENT((#1102));
#1091=PRESENTATION_STYLE_ASSIGNMENT((#1103));
#1092=PRESENTATION_STYLE_ASSIGNMENT((#1104));
#1093=PRESENTATION_STYLE_ASSIGNMENT((#1105));
#1094=PRESENTATION_STYLE_ASSIGNMENT((#1106));
#1095=PRESENTATION_STYLE_ASSIGNMENT((#1107));
#1096=PRESENTATION_STYLE_ASSIGNMENT((#1108));
#1097=PRESENTATION_STYLE_ASSIGNMENT((#1109));
#1098=PRESENTATION_STYLE_ASSIGNMENT((#1110));
#1099=SURFACE_STYLE_USAGE(.BOTH.,#1111);
#1100=SURFACE_STYLE_USAGE(.BOTH.,#1112);
#1101=SURFACE_STYLE_USAGE(.BOTH.,#1113);
#1102=SURFACE_STYLE_USAGE(.BOTH.,#1114);
#1103=SURFACE_STYLE_USAGE(.BOTH.,#1115);
#1104=SURFACE_STYLE_USAGE(.BOTH.,#1116);
#1105=SURFACE_STYLE_USAGE(.BOTH.,#1117);
#1106=SURFACE_STYLE_USAGE(.BOTH.,#1118);
#1107=SURFACE_STYLE_USAGE(.BOTH.,#1119);
#1108=SURFACE_STYLE_USAGE(.BOTH.,#1120);
#1109=SURFACE_STYLE_USAGE(.BOTH.,#1121);
#1110=SURFACE_STYLE_USAGE(.BOTH.,#1122);
#1111=SURFACE_SIDE_STYLE('',(#1123));
#1112=SURFACE_SIDE_STYLE('',(#1124));
#1113=SURFACE_SIDE_STYLE('',(#1125));
#1114=SURFACE_SIDE_STYLE('',(#1126));
#1115=SURFACE_SIDE_STYLE('',(#1127));
#1116=SURFACE_SIDE_STYLE('',(#1128));
#1117=SURFACE_SIDE_STYLE('',(#1129));
#1118=SURFACE_SIDE_STYLE('',(#1130));
#1119=SURFACE_SIDE_STYLE('',(#1131));
#1120=SURFACE_SIDE_STYLE('',(#1132));
#1121=SURFACE_SIDE_STYLE('',(#1133));
#1122=SURFACE_SIDE_STYLE('',(#1134));
#1123=SURFACE_STYLE_FILL_AREA(#1135);
#1124=SURFACE_STYLE_FILL_AREA(#1136);
#1125=SURFACE_STYLE_FILL_AREA(#1137);
#1126=SURFACE_STYLE_FILL_AREA(#1138);
#1127=SURFACE_STYLE_FILL_AREA(#1139);
#1128=SURFACE_STYLE_FILL_AREA(#1140);
#1129=SURFACE_STYLE_FILL_AREA(#1141);
#1130=SURFACE_STYLE_FILL_AREA(#1142);
#1131=SURFACE_STYLE_FILL_AREA(#1143);
#1132=SURFACE_STYLE_FILL_AREA(#1144);
#1133=SURFACE_STYLE_FILL_AREA(#1145);
#1134=SURFACE_STYLE_FILL_AREA(#1146);
#1135=FILL_AREA_STYLE('',(#1147));
#1136=FILL_AREA_STYLE('',(#1148));
#1137=FILL_AREA_STYLE('',(#1149));
#1138=FILL_AREA_STYLE('',(#1150));
#1139=FILL_AREA_STYLE('',(#1151));
#1140=FILL_AREA_STYLE('',(#1152));
#1141=FILL_AREA_STYLE('',(#1153));
#1142=FILL_AREA_STYLE('',(#1154));
#1143=FILL_AREA_STYLE('',(#1155));
#1144=FILL_AREA_STYLE('',(#1156));
#1145=FILL_AREA_STYLE('',(#1157));
#1146=FILL_AREA_STYLE('',(#1158));
#1147=FILL_AREA_STYLE_COLOUR('',#1159);
#1148=FILL_AREA_STYLE_COLOUR('',#1159);
#1149=FILL_AREA_STYLE_COLOUR('',#1159);
#1150=FILL_AREA_STYLE_COLOUR('',#1159);
#1151=FILL_AREA_STYLE_COLOUR('',#1159);
#1152=FILL_AREA_STYLE_COLOUR('',#1159);
#1153=FILL_AREA_STYLE_COLOUR('',#1159);
#1154=FILL_AREA_STYLE_COLOUR('',#1159);
#1155=FILL_AREA_STYLE_COLOUR('',#1159);
#1156=FILL_AREA_STYLE_COLOUR('',#1159);
#1157=FILL_AREA_STYLE_COLOUR('',#1159);
#1158=FILL_AREA_STYLE_COLOUR('',#1159);
#1159=DRAUGHTING_PRE_DEFINED_COLOUR('white');
#1160=ADVANCED_FACE('',(#1002),#1050,.F.);
#1161=ADVANCED_FACE('',(#1003),#1051,.F.);
#1162=ADVANCED_FACE('',(#1004),#1052,.F.);
#1163=ADVANCED_FACE('',(#1005),#1053,.F.);
#1164=ADVANCED_FACE('',(#1006,#1007),#1054,.F.);
#1165=ADVANCED_FACE('',(#1008),#1055,.F.);
#1166=ADVANCED_FACE('',(#1009,#1010),#1056,.F.);
#1167=ADVANCED_FACE('',(#1011),#1057,.F.);
#1168=ADVANCED_FACE('',(#1012),#1058,.F.);
#1169=ADVANCED_FACE('',(#1013,#1014),#1059,.F.);
#1170=ADVANCED_FACE('',(#1015),#1060,.F.);
#1171=ADVANCED_FACE('',(#1016),#1061,.F.);
#1172=ADVANCED_FACE('',(#1017,#1018),#1062,.F.);
#1173=ADVANCED_FACE('',(#1019),#1063,.F.);
#1174=ADVANCED_FACE('',(#1020),#1064,.F.);
#1175=ADVANCED_FACE('',(#1021,#1022,#1023,#1024,#1025,#1026,#1027),#1065,
 .F.);
#1176=ADVANCED_FACE('',(#1028,#1029,#1030,#1031,#1032,#1033),#1066,.F.);
#1177=ADVANCED_FACE('',(#1034),#1067,.T.);
#1178=ADVANCED_FACE('',(#1035),#1068,.T.);
#1179=ADVANCED_FACE('',(#1036),#1069,.T.);
#1180=ADVANCED_FACE('',(#1037),#1070,.T.);
#1181=ADVANCED_FACE('',(#1038),#1071,.T.);
#1182=ADVANCED_FACE('',(#1039,#1040,#1041),#1072,.F.);
#1183=ADVANCED_FACE('',(#1042),#1073,.F.);
#1184=ADVANCED_FACE('',(#1043),#1074,.F.);
#1185=ADVANCED_FACE('',(#1044),#20,.T.);
#1186=ADVANCED_FACE('',(#1045),#21,.T.);
#1187=ADVANCED_FACE('',(#1046),#22,.T.);
#1188=ADVANCED_FACE('',(#1047),#23,.T.);
#1189=ADVANCED_FACE('',(#1048),#24,.T.);
#1190=ADVANCED_FACE('',(#1049),#25,.T.);
#1191=CLOSED_SHELL('',(#1160,#1161,#1162,#1163,#1164,#1165,#1166,#1167,
#1168,#1169,#1170,#1171,#1172,#1173,#1174,#1175,#1176,#1177,#1178,#1179,
#1180,#1181,#1182,#1183,#1184,#1185,#1186,#1187,#1188,#1189,#1190));
#1192=MANIFOLD_SOLID_BREP('',#1191);
#1193=SHAPE_DEFINITION_REPRESENTATION(#1889,#1194);
#1194=SHAPE_REPRESENTATION('id2',(#1195),#1884);
#1195=AXIS2_PLACEMENT_3D('',#1527,#1264,#1265);
#1196=AXIS2_PLACEMENT_3D('',#1528,#1266,#1267);
#1197=AXIS2_PLACEMENT_3D('',#1547,#1277,#1278);
#1198=AXIS2_PLACEMENT_3D('',#1566,#1288,#1289);
#1199=AXIS2_PLACEMENT_3D('',#1591,#1302,#1303);
#1200=AXIS2_PLACEMENT_3D('',#1595,#1305,#1306);
#1201=AXIS2_PLACEMENT_3D('',#1600,#1309,#1310);
#1202=AXIS2_PLACEMENT_3D('',#1601,#1311,#1312);
#1203=AXIS2_PLACEMENT_3D('',#1613,#1318,#1319);
#1204=AXIS2_PLACEMENT_3D('',#1626,#1320,#1321);
#1205=AXIS2_PLACEMENT_3D('',#1627,#1322,#1323);
#1206=AXIS2_PLACEMENT_3D('',#1629,#1324,#1325);
#1207=AXIS2_PLACEMENT_3D('',#1650,#1336,#1337);
#1208=AXIS2_PLACEMENT_3D('',#1654,#1339,#1340);
#1209=AXIS2_PLACEMENT_3D('',#1662,#1344,#1345);
#1210=AXIS2_PLACEMENT_3D('',#1663,#1346,#1347);
#1211=AXIS2_PLACEMENT_3D('',#1679,#1355,#1356);
#1212=AXIS2_PLACEMENT_3D('',#1683,#1358,#1359);
#1213=AXIS2_PLACEMENT_3D('',#1684,#1360,#1361);
#1214=AXIS2_PLACEMENT_3D('',#1701,#1370,#1371);
#1215=AXIS2_PLACEMENT_3D('',#1705,#1373,#1374);
#1216=AXIS2_PLACEMENT_3D('',#1710,#1377,#1378);
#1217=AXIS2_PLACEMENT_3D('',#1711,#1379,#1380);
#1218=AXIS2_PLACEMENT_3D('',#1729,#1389,#1390);
#1219=AXIS2_PLACEMENT_3D('',#1737,#1394,#1395);
#1220=AXIS2_PLACEMENT_3D('',#1741,#1397,#1398);
#1221=AXIS2_PLACEMENT_3D('',#1749,#1402,#1403);
#1222=AXIS2_PLACEMENT_3D('',#1753,#1405,#1406);
#1223=AXIS2_PLACEMENT_3D('',#1754,#1407,#1408);
#1224=AXIS2_PLACEMENT_3D('',#1758,#1410,#1411);
#1225=AXIS2_PLACEMENT_3D('',#1762,#1413,#1414);
#1226=AXIS2_PLACEMENT_3D('',#1766,#1416,#1417);
#1227=AXIS2_PLACEMENT_3D('',#1770,#1419,#1420);
#1228=AXIS2_PLACEMENT_3D('',#1774,#1422,#1423);
#1229=AXIS2_PLACEMENT_3D('',#1778,#1425,#1426);
#1230=AXIS2_PLACEMENT_3D('',#1779,#1427,#1428);
#1231=AXIS2_PLACEMENT_3D('',#1780,#1429,#1430);
#1232=AXIS2_PLACEMENT_3D('',#1789,#1434,#1435);
#1233=AXIS2_PLACEMENT_3D('',#1792,#1437,#1438);
#1234=AXIS2_PLACEMENT_3D('',#1796,#1440,#1441);
#1235=AXIS2_PLACEMENT_3D('',#1800,#1443,#1444);
#1236=AXIS2_PLACEMENT_3D('',#1804,#1446,#1447);
#1237=AXIS2_PLACEMENT_3D('',#1808,#1449,#1450);
#1238=AXIS2_PLACEMENT_3D('',#1809,#1451,#1452);
#1239=AXIS2_PLACEMENT_3D('',#1818,#1457,#1458);
#1240=AXIS2_PLACEMENT_3D('',#1827,#1463,#1464);
#1241=AXIS2_PLACEMENT_3D('',#1836,#1469,#1470);
#1242=AXIS2_PLACEMENT_3D('',#1845,#1475,#1476);
#1243=AXIS2_PLACEMENT_3D('',#1846,#1477,#1478);
#1244=AXIS2_PLACEMENT_3D('',#1847,#1479,#1480);
#1245=AXIS2_PLACEMENT_3D('',#1851,#1482,#1483);
#1246=AXIS2_PLACEMENT_3D('',#1852,#1484,#1485);
#1247=AXIS2_PLACEMENT_3D('',#1856,#1487,#1488);
#1248=AXIS2_PLACEMENT_3D('',#1857,#1489,#1490);
#1249=AXIS2_PLACEMENT_3D('',#1858,#1491,#1492);
#1250=AXIS2_PLACEMENT_3D('',#1859,#1493,#1494);
#1251=AXIS2_PLACEMENT_3D('',#1860,#1495,#1496);
#1252=AXIS2_PLACEMENT_3D('',#1861,#1497,#1498);
#1253=AXIS2_PLACEMENT_3D('',#1865,#1500,#1501);
#1254=AXIS2_PLACEMENT_3D('',#1866,#1502,#1503);
#1255=AXIS2_PLACEMENT_3D('',#1870,#1505,#1506);
#1256=AXIS2_PLACEMENT_3D('',#1871,#1507,#1508);
#1257=AXIS2_PLACEMENT_3D('',#1874,#1511,#1512);
#1258=AXIS2_PLACEMENT_3D('',#1877,#1515,#1516);
#1259=AXIS2_PLACEMENT_3D('',#1878,#1517,#1518);
#1260=AXIS2_PLACEMENT_3D('',#1879,#1519,#1520);
#1261=AXIS2_PLACEMENT_3D('',#1880,#1521,#1522);
#1262=AXIS2_PLACEMENT_3D('',#1881,#1523,#1524);
#1263=AXIS2_PLACEMENT_3D('',#1882,#1525,#1526);
#1264=DIRECTION('',(0.,0.,1.));
#1265=DIRECTION('',(1.,0.,0.));
#1266=DIRECTION('',(0.,0.,-1.));
#1267=DIRECTION('',(-1.,0.,0.));
#1268=DIRECTION('',(-1.,0.,0.));
#1269=DIRECTION('',(0.,-1.,0.));
#1270=DIRECTION('',(1.,0.,0.));
#1271=DIRECTION('',(0.965925826289068,-0.258819045102521,0.));
#1272=DIRECTION('',(0.,1.,0.));
#1273=DIRECTION('',(-0.965925826289068,0.258819045102521,0.));
#1274=DIRECTION('',(0.965925826289068,0.258819045102522,0.));
#1275=DIRECTION('',(0.,1.,0.));
#1276=DIRECTION('',(-0.965925826289068,-0.258819045102521,0.));
#1277=DIRECTION('',(0.,0.,-1.));
#1278=DIRECTION('',(-1.,0.,0.));
#1279=DIRECTION('',(0.,1.,0.));
#1280=DIRECTION('',(-0.965925826289068,-0.258819045102521,0.));
#1281=DIRECTION('',(0.965925826289068,-0.258819045102521,0.));
#1282=DIRECTION('',(0.,1.,0.));
#1283=DIRECTION('',(-0.965925826289068,0.258819045102522,0.));
#1284=DIRECTION('',(1.,2.04545964640935E-16,0.));
#1285=DIRECTION('',(0.,1.,0.));
#1286=DIRECTION('',(-1.,1.02272982320468E-16,0.));
#1287=DIRECTION('',(0.965925826289068,0.258819045102521,0.));
#1288=DIRECTION('',(0.,0.,-1.));
#1289=DIRECTION('',(-1.,0.,0.));
#1290=DIRECTION('',(-4.33680868994202E-15,1.,0.));
#1291=DIRECTION('',(-1.,0.,0.));
#1292=DIRECTION('',(0.,-1.,0.));
#1293=DIRECTION('',(1.,0.,0.));
#1294=DIRECTION('',(0.,1.,0.));
#1295=DIRECTION('',(-1.,0.,0.));
#1296=DIRECTION('',(-1.54886024640786E-16,1.,0.));
#1297=DIRECTION('',(1.,0.,0.));
#1298=DIRECTION('',(0.,1.,0.));
#1299=DIRECTION('',(-1.,0.,0.));
#1300=DIRECTION('',(-1.54886024640786E-16,1.,0.));
#1301=DIRECTION('',(1.,0.,0.));
#1302=DIRECTION('',(0.,0.,-1.));
#1303=DIRECTION('',(-1.,0.,0.));
#1304=DIRECTION('',(1.,0.,0.));
#1305=DIRECTION('',(0.,0.,-1.));
#1306=DIRECTION('',(-1.,0.,0.));
#1307=DIRECTION('',(-1.,-2.06514699521048E-16,0.));
#1308=DIRECTION('',(4.33680868994202E-16,-1.,0.));
#1309=DIRECTION('',(0.,0.,-1.));
#1310=DIRECTION('',(-1.,0.,0.));
#1311=DIRECTION('',(0.,0.,-1.));
#1312=DIRECTION('',(-1.,0.,0.));
#1313=DIRECTION('',(-1.,-1.88556899562696E-16,0.));
#1314=DIRECTION('',(0.,-1.,0.));
#1315=DIRECTION('',(1.,0.,0.));
#1316=DIRECTION('',(7.22801448323669E-16,1.,0.));
#1317=DIRECTION('',(1.,0.,0.));
#1318=DIRECTION('',(0.,0.,-1.));
#1319=DIRECTION('',(-1.,0.,0.));
#1320=DIRECTION('',(0.,0.,-1.));
#1321=DIRECTION('',(-1.,0.,0.));
#1322=DIRECTION('',(0.,0.,-1.));
#1323=DIRECTION('',(-1.,0.,0.));
#1324=DIRECTION('',(0.,0.,-1.));
#1325=DIRECTION('',(-1.,0.,0.));
#1326=DIRECTION('',(0.,1.,0.));
#1327=DIRECTION('',(-1.,0.,0.));
#1328=DIRECTION('',(4.93225911231591E-16,-1.,0.));
#1329=DIRECTION('',(-0.828324059734884,0.560249276719141,0.));
#1330=DIRECTION('',(-1.,0.,0.));
#1331=DIRECTION('',(0.,-1.,0.));
#1332=DIRECTION('',(1.,0.,0.));
#1333=DIRECTION('',(0.,1.,0.));
#1334=DIRECTION('',(0.828324059734884,-0.560249276719141,0.));
#1335=DIRECTION('',(1.,0.,0.));
#1336=DIRECTION('',(0.,0.,-1.));
#1337=DIRECTION('',(-1.,0.,0.));
#1338=DIRECTION('',(-1.,8.67361737988412E-16,0.));
#1339=DIRECTION('',(0.,0.,-1.));
#1340=DIRECTION('',(-1.,0.,0.));
#1341=DIRECTION('',(0.,-1.,0.));
#1342=DIRECTION('',(1.,0.,0.));
#1343=DIRECTION('',(0.,1.,0.));
#1344=DIRECTION('',(0.,0.,-1.));
#1345=DIRECTION('',(-1.,0.,0.));
#1346=DIRECTION('',(0.,0.,-1.));
#1347=DIRECTION('',(-1.,0.,0.));
#1348=DIRECTION('',(0.,-1.,0.));
#1349=DIRECTION('',(1.,0.,0.));
#1350=DIRECTION('',(0.,1.,0.));
#1351=DIRECTION('',(1.,0.,0.));
#1352=DIRECTION('',(-3.46944695195361E-15,-1.,0.));
#1353=DIRECTION('',(1.,0.,0.));
#1354=DIRECTION('',(0.,1.,0.));
#1355=DIRECTION('',(0.,0.,-1.));
#1356=DIRECTION('',(-1.,0.,0.));
#1357=DIRECTION('',(-1.,-8.67361737988415E-16,0.));
#1358=DIRECTION('',(0.,0.,-1.));
#1359=DIRECTION('',(-1.,0.,0.));
#1360=DIRECTION('',(0.,0.,-1.));
#1361=DIRECTION('',(-1.,0.,0.));
#1362=DIRECTION('',(-1.,-1.73472347597681E-16,0.));
#1363=DIRECTION('',(0.,-1.,0.));
#1364=DIRECTION('',(1.,0.,0.));
#1365=DIRECTION('',(0.,-1.,0.));
#1366=DIRECTION('',(1.,0.,0.));
#1367=DIRECTION('',(0.,1.,0.));
#1368=DIRECTION('',(1.,0.,0.));
#1369=DIRECTION('',(0.,1.,0.));
#1370=DIRECTION('',(0.,0.,-1.));
#1371=DIRECTION('',(-1.,0.,0.));
#1372=DIRECTION('',(1.,0.,0.));
#1373=DIRECTION('',(0.,0.,-1.));
#1374=DIRECTION('',(-1.,0.,0.));
#1375=DIRECTION('',(-1.,0.,0.));
#1376=DIRECTION('',(-1.20466908053945E-16,-1.,0.));
#1377=DIRECTION('',(0.,0.,-1.));
#1378=DIRECTION('',(-1.,0.,0.));
#1379=DIRECTION('',(0.,0.,-1.));
#1380=DIRECTION('',(-1.,0.,0.));
#1381=DIRECTION('',(-1.,0.,0.));
#1382=DIRECTION('',(0.,-1.,0.));
#1383=DIRECTION('',(1.,0.,0.));
#1384=DIRECTION('',(0.,1.,0.));
#1385=DIRECTION('',(1.,0.,0.));
#1386=DIRECTION('',(0.707106781186548,-0.707106781186547,0.));
#1387=DIRECTION('',(1.,0.,0.));
#1388=DIRECTION('',(-0.707106781186546,0.707106781186549,0.));
#1389=DIRECTION('',(0.,0.,-1.));
#1390=DIRECTION('',(-1.,0.,0.));
#1391=DIRECTION('',(0.,1.,0.));
#1392=DIRECTION('',(-1.,0.,0.));
#1393=DIRECTION('',(0.,-1.,0.));
#1394=DIRECTION('',(0.,0.,-1.));
#1395=DIRECTION('',(-1.,0.,0.));
#1396=DIRECTION('',(1.,0.,0.));
#1397=DIRECTION('',(0.,0.,-1.));
#1398=DIRECTION('',(-1.,0.,0.));
#1399=DIRECTION('',(0.,1.,0.));
#1400=DIRECTION('',(-1.,0.,0.));
#1401=DIRECTION('',(0.,-1.,0.));
#1402=DIRECTION('',(0.,0.,-1.));
#1403=DIRECTION('',(-1.,0.,0.));
#1404=DIRECTION('',(-1.,0.,0.));
#1405=DIRECTION('',(0.,0.,-1.));
#1406=DIRECTION('',(-1.,0.,0.));
#1407=DIRECTION('',(0.,0.,-1.));
#1408=DIRECTION('',(-1.,0.,0.));
#1409=DIRECTION('',(-1.,0.,0.));
#1410=DIRECTION('',(0.,0.,-1.));
#1411=DIRECTION('',(-1.,0.,0.));
#1412=DIRECTION('',(1.,0.,0.));
#1413=DIRECTION('',(0.,0.,-1.));
#1414=DIRECTION('',(-1.,0.,0.));
#1415=DIRECTION('',(0.,1.,0.));
#1416=DIRECTION('',(0.,0.,-1.));
#1417=DIRECTION('',(-1.,0.,0.));
#1418=DIRECTION('',(-1.,0.,0.));
#1419=DIRECTION('',(0.,0.,-1.));
#1420=DIRECTION('',(-1.,0.,0.));
#1421=DIRECTION('',(1.,0.,0.));
#1422=DIRECTION('',(0.,0.,-1.));
#1423=DIRECTION('',(-1.,0.,0.));
#1424=DIRECTION('',(0.,1.,0.));
#1425=DIRECTION('',(0.,0.,-1.));
#1426=DIRECTION('',(-1.,0.,0.));
#1427=DIRECTION('',(0.,0.,-1.));
#1428=DIRECTION('',(-1.,0.,0.));
#1429=DIRECTION('',(0.,0.,-1.));
#1430=DIRECTION('',(-1.,0.,0.));
#1431=DIRECTION('',(0.866025403784438,0.5,0.));
#1432=DIRECTION('',(-1.,3.70667409396754E-17,0.));
#1433=DIRECTION('',(0.866025403784438,-0.5,0.));
#1434=DIRECTION('',(0.,0.,-1.));
#1435=DIRECTION('',(-1.,0.,0.));
#1436=DIRECTION('',(1.,6.56805054360911E-17,0.));
#1437=DIRECTION('',(0.,0.,-1.));
#1438=DIRECTION('',(-1.,0.,0.));
#1439=DIRECTION('',(0.,-1.,0.));
#1440=DIRECTION('',(0.,0.,-1.));
#1441=DIRECTION('',(-1.,0.,0.));
#1442=DIRECTION('',(1.,0.,0.));
#1443=DIRECTION('',(0.,0.,-1.));
#1444=DIRECTION('',(-1.,0.,0.));
#1445=DIRECTION('',(0.,1.,0.));
#1446=DIRECTION('',(0.,0.,-1.));
#1447=DIRECTION('',(-1.,0.,0.));
#1448=DIRECTION('',(-1.,0.,0.));
#1449=DIRECTION('',(0.,0.,-1.));
#1450=DIRECTION('',(-1.,0.,0.));
#1451=DIRECTION('',(1.,0.,0.));
#1452=DIRECTION('',(0.,0.,-1.));
#1453=DIRECTION('',(0.,1.,0.));
#1454=DIRECTION('',(0.,0.,1.));
#1455=DIRECTION('',(0.,1.,0.));
#1456=DIRECTION('',(0.,0.,1.));
#1457=DIRECTION('',(0.,-1.,0.));
#1458=DIRECTION('',(0.,0.,-1.));
#1459=DIRECTION('',(1.,0.,0.));
#1460=DIRECTION('',(0.,0.,1.));
#1461=DIRECTION('',(1.,0.,0.));
#1462=DIRECTION('',(0.,0.,1.));
#1463=DIRECTION('',(-1.,0.,0.));
#1464=DIRECTION('',(0.,0.,1.));
#1465=DIRECTION('',(0.,-1.,0.));
#1466=DIRECTION('',(0.,0.,1.));
#1467=DIRECTION('',(0.,-1.,0.));
#1468=DIRECTION('',(0.,0.,1.));
#1469=DIRECTION('',(0.,1.,0.));
#1470=DIRECTION('',(0.,0.,1.));
#1471=DIRECTION('',(-1.,0.,0.));
#1472=DIRECTION('',(0.,0.,1.));
#1473=DIRECTION('',(-1.,0.,0.));
#1474=DIRECTION('',(0.,0.,1.));
#1475=DIRECTION('',(0.,0.,-1.));
#1476=DIRECTION('',(-1.,0.,0.));
#1477=DIRECTION('',(0.,0.,-1.));
#1478=DIRECTION('',(-1.,0.,0.));
#1479=DIRECTION('',(0.,0.,-1.));
#1480=DIRECTION('',(-1.,0.,0.));
#1481=DIRECTION('',(-0.866025403784438,-0.5,0.));
#1482=DIRECTION('',(0.,0.,-1.));
#1483=DIRECTION('',(-1.,0.,0.));
#1484=DIRECTION('',(0.,0.,-1.));
#1485=DIRECTION('',(-1.,0.,0.));
#1486=DIRECTION('',(-0.866025403784438,0.5,0.));
#1487=DIRECTION('',(0.,0.,-1.));
#1488=DIRECTION('',(-1.,0.,0.));
#1489=DIRECTION('',(0.,0.,-1.));
#1490=DIRECTION('',(-1.,0.,0.));
#1491=DIRECTION('',(0.,0.,-1.));
#1492=DIRECTION('',(-1.,0.,0.));
#1493=DIRECTION('',(0.,0.,-1.));
#1494=DIRECTION('',(-1.,0.,0.));
#1495=DIRECTION('',(0.,0.,-1.));
#1496=DIRECTION('',(-1.,0.,0.));
#1497=DIRECTION('',(0.,0.,-1.));
#1498=DIRECTION('',(-1.,0.,0.));
#1499=DIRECTION('',(-0.866025403784438,0.5,0.));
#1500=DIRECTION('',(0.,0.,-1.));
#1501=DIRECTION('',(-1.,0.,0.));
#1502=DIRECTION('',(0.,0.,-1.));
#1503=DIRECTION('',(-1.,0.,0.));
#1504=DIRECTION('',(-0.866025403784438,-0.5,0.));
#1505=DIRECTION('',(0.,0.,-1.));
#1506=DIRECTION('',(-1.,0.,0.));
#1507=DIRECTION('',(0.5,0.866025403784438,0.));
#1508=DIRECTION('',(-0.866025403784438,0.5,0.));
#1509=DIRECTION('',(0.,0.,1.));
#1510=DIRECTION('',(0.,0.,1.));
#1511=DIRECTION('',(-0.5,0.866025403784438,0.));
#1512=DIRECTION('',(-0.866025403784438,-0.5,0.));
#1513=DIRECTION('',(0.,0.,1.));
#1514=DIRECTION('',(0.,0.,1.));
#1515=DIRECTION('',(0.,0.,1.));
#1516=DIRECTION('',(1.,0.,0.));
#1517=DIRECTION('',(0.,0.,1.));
#1518=DIRECTION('',(1.,0.,0.));
#1519=DIRECTION('',(0.,0.,-1.));
#1520=DIRECTION('',(-1.,0.,0.));
#1521=DIRECTION('',(0.,0.,-1.));
#1522=DIRECTION('',(-1.,0.,0.));
#1523=DIRECTION('',(0.,0.,-1.));
#1524=DIRECTION('',(-1.,0.,0.));
#1525=DIRECTION('',(0.,0.,-1.));
#1526=DIRECTION('',(-1.,0.,0.));
#1527=CARTESIAN_POINT('',(0.,0.,0.));
#1528=CARTESIAN_POINT('',(0.,0.,0.));
#1529=CARTESIAN_POINT('',(0.009,-0.0038,0.));
#1530=CARTESIAN_POINT('',(0.0109868347502413,-0.0038,0.));
#1531=CARTESIAN_POINT('',(0.009,-0.0038,0.));
#1532=CARTESIAN_POINT('',(0.009,-0.0038,0.));
#1533=CARTESIAN_POINT('',(0.009,-0.004,0.));
#1534=CARTESIAN_POINT('',(0.009,-0.004,0.));
#1535=CARTESIAN_POINT('',(0.0109868347502413,-0.004,0.));
#1536=CARTESIAN_POINT('',(0.0109868347502413,-0.004,0.));
#1537=CARTESIAN_POINT('',(0.014,-0.00480737519533438,0.));
#1538=CARTESIAN_POINT('',(0.014,-0.00480737519533438,0.));
#1539=CARTESIAN_POINT('',(0.014,-0.00460031995925236,0.));
#1540=CARTESIAN_POINT('',(0.0113863703305156,-0.0039,0.));
#1541=CARTESIAN_POINT('',(0.0113863703305156,-0.0039,0.));
#1542=CARTESIAN_POINT('',(0.0113863703305156,-0.0039,0.));
#1543=CARTESIAN_POINT('',(0.014,-0.00319968004074764,0.));
#1544=CARTESIAN_POINT('',(0.014,-0.00319968004074764,0.));
#1545=CARTESIAN_POINT('',(0.014,-0.00299262480466562,0.));
#1546=CARTESIAN_POINT('',(0.0109868347502413,-0.0038,0.));
#1547=CARTESIAN_POINT('',(0.,0.,0.));
#1548=CARTESIAN_POINT('',(-0.011,-0.00299262480466563,0.));
#1549=CARTESIAN_POINT('',(-0.011,-0.00319968004074764,0.));
#1550=CARTESIAN_POINT('',(-0.011,-0.00299262480466563,0.));
#1551=CARTESIAN_POINT('',(-0.0143863703305156,-0.0039,0.));
#1552=CARTESIAN_POINT('',(-0.0143863703305156,-0.0039,0.));
#1553=CARTESIAN_POINT('',(-0.0143863703305156,-0.0039,0.));
#1554=CARTESIAN_POINT('',(-0.011,-0.00480737519533438,0.));
#1555=CARTESIAN_POINT('',(-0.011,-0.00460031995925237,0.));
#1556=CARTESIAN_POINT('',(-0.011,-0.00460031995925237,0.));
#1557=CARTESIAN_POINT('',(-0.0132404245887275,-0.004,0.));
#1558=CARTESIAN_POINT('',(-0.0132404245887275,-0.004,0.));
#1559=CARTESIAN_POINT('',(-0.009,-0.004,0.));
#1560=CARTESIAN_POINT('',(-0.009,-0.004,0.));
#1561=CARTESIAN_POINT('',(-0.009,-0.0038,0.));
#1562=CARTESIAN_POINT('',(-0.009,-0.0038,0.));
#1563=CARTESIAN_POINT('',(-0.009,-0.0038,0.));
#1564=CARTESIAN_POINT('',(-0.0132404245887275,-0.0038,0.));
#1565=CARTESIAN_POINT('',(-0.0132404245887275,-0.0038,0.));
#1566=CARTESIAN_POINT('',(0.,0.,0.));
#1567=CARTESIAN_POINT('',(0.0035,-0.0029,0.));
#1568=CARTESIAN_POINT('',(0.0035,-0.0031,0.));
#1569=CARTESIAN_POINT('',(0.0035,-0.0029,0.));
#1570=CARTESIAN_POINT('',(0.0005,-0.0029,0.));
#1571=CARTESIAN_POINT('',(0.0005,-0.0029,0.));
#1572=CARTESIAN_POINT('',(0.0005,-0.0029,0.));
#1573=CARTESIAN_POINT('',(0.0005,-0.0049,0.));
#1574=CARTESIAN_POINT('',(0.0005,-0.0049,0.));
#1575=CARTESIAN_POINT('',(0.0035,-0.0049,0.));
#1576=CARTESIAN_POINT('',(0.0035,-0.0047,0.));
#1577=CARTESIAN_POINT('',(0.0035,-0.0047,0.));
#1578=CARTESIAN_POINT('',(0.0007,-0.0047,0.));
#1579=CARTESIAN_POINT('',(0.0007,-0.0047,0.));
#1580=CARTESIAN_POINT('',(0.0007,-0.004,0.));
#1581=CARTESIAN_POINT('',(0.0007,-0.004,0.));
#1582=CARTESIAN_POINT('',(0.0007,-0.004,0.));
#1583=CARTESIAN_POINT('',(0.002,-0.004,0.));
#1584=CARTESIAN_POINT('',(0.002,-0.0038,0.));
#1585=CARTESIAN_POINT('',(0.002,-0.0038,0.));
#1586=CARTESIAN_POINT('',(0.0007,-0.0038,0.));
#1587=CARTESIAN_POINT('',(0.0007,-0.0038,0.));
#1588=CARTESIAN_POINT('',(0.0007,-0.0031,0.));
#1589=CARTESIAN_POINT('',(0.0007,-0.0031,0.));
#1590=CARTESIAN_POINT('',(0.0007,-0.0031,0.));
#1591=CARTESIAN_POINT('',(0.,0.,0.));
#1592=CARTESIAN_POINT('',(-0.0012,-0.0041,0.));
#1593=CARTESIAN_POINT('',(-0.0033,-0.0041,0.));
#1594=CARTESIAN_POINT('',(-0.0012,-0.0041,0.));
#1595=CARTESIAN_POINT('',(-0.0012,-0.0036,0.));
#1596=CARTESIAN_POINT('',(-0.0012,-0.0031,0.));
#1597=CARTESIAN_POINT('',(-0.0033,-0.0031,0.));
#1598=CARTESIAN_POINT('',(-0.0033,-0.0031,0.));
#1599=CARTESIAN_POINT('',(-0.0033,-0.0031,0.));
#1600=CARTESIAN_POINT('',(0.,0.,0.));
#1601=CARTESIAN_POINT('',(-0.0012,-0.0036,0.));
#1602=CARTESIAN_POINT('',(-0.0012,-0.0043,0.));
#1603=CARTESIAN_POINT('',(-0.0012,-0.0029,0.));
#1604=CARTESIAN_POINT('',(-0.0035,-0.0029,0.));
#1605=CARTESIAN_POINT('',(-0.0035,-0.0029,0.));
#1606=CARTESIAN_POINT('',(-0.0035,-0.0029,0.));
#1607=CARTESIAN_POINT('',(-0.0035,-0.0049,0.));
#1608=CARTESIAN_POINT('',(-0.0035,-0.0049,0.));
#1609=CARTESIAN_POINT('',(-0.0033,-0.0049,0.));
#1610=CARTESIAN_POINT('',(-0.0033,-0.0043,0.));
#1611=CARTESIAN_POINT('',(-0.0033,-0.0043,0.));
#1612=CARTESIAN_POINT('',(-0.0012,-0.0043,0.));
#1613=CARTESIAN_POINT('',(0.,0.,0.));
#1614=CARTESIAN_POINT('',(-0.00707094879863104,-0.00331594847602461,0.));
#1615=CARTESIAN_POINT('',(-0.00741452560068448,-0.0039,0.));
#1616=CARTESIAN_POINT('',(-0.00707094879863104,-0.0044840515239754,0.));
#1617=CARTESIAN_POINT('',(-0.006,-0.00480797423801231,0.));
#1618=CARTESIAN_POINT('',(-0.00492905120136896,-0.0044840515239754,0.));
#1619=CARTESIAN_POINT('',(-0.00458547439931552,-0.0039,0.));
#1620=CARTESIAN_POINT('',(-0.00492905120136896,-0.00331594847602461,0.));
#1621=CARTESIAN_POINT('',(-0.006,-0.0029920257619877,0.));
#1622=CARTESIAN_POINT('',(-0.00707094879863104,-0.00331594847602461,0.));
#1623=CARTESIAN_POINT('',(-0.00741452560068448,-0.0039,0.));
#1624=CARTESIAN_POINT('',(-0.00707094879863104,-0.0044840515239754,0.));
#1625=CARTESIAN_POINT('',(-0.0073,-0.0039,0.));
#1626=CARTESIAN_POINT('',(0.,0.,0.));
#1627=CARTESIAN_POINT('',(-0.006,-0.0039,0.));
#1628=CARTESIAN_POINT('',(-0.0075,-0.0039,0.));
#1629=CARTESIAN_POINT('',(0.,0.,0.));
#1630=CARTESIAN_POINT('',(0.0075,-0.0049,0.));
#1631=CARTESIAN_POINT('',(0.0075,-0.0049,0.));
#1632=CARTESIAN_POINT('',(0.0075,-0.0029,0.));
#1633=CARTESIAN_POINT('',(0.0073,-0.0029,0.));
#1634=CARTESIAN_POINT('',(0.0073,-0.0029,0.));
#1635=CARTESIAN_POINT('',(0.0073,-0.00465854860468014,0.));
#1636=CARTESIAN_POINT('',(0.0073,-0.00465854860468014,0.));
#1637=CARTESIAN_POINT('',(0.0047,-0.0029,0.));
#1638=CARTESIAN_POINT('',(0.0047,-0.0029,0.));
#1639=CARTESIAN_POINT('',(0.0045,-0.0029,0.));
#1640=CARTESIAN_POINT('',(0.0045,-0.0029,0.));
#1641=CARTESIAN_POINT('',(0.0045,-0.0029,0.));
#1642=CARTESIAN_POINT('',(0.0045,-0.0049,0.));
#1643=CARTESIAN_POINT('',(0.0045,-0.0049,0.));
#1644=CARTESIAN_POINT('',(0.0047,-0.0049,0.));
#1645=CARTESIAN_POINT('',(0.0047,-0.00314145139531987,0.));
#1646=CARTESIAN_POINT('',(0.0047,-0.00314145139531987,0.));
#1647=CARTESIAN_POINT('',(0.0047,-0.00314145139531987,0.));
#1648=CARTESIAN_POINT('',(0.0073,-0.0049,0.));
#1649=CARTESIAN_POINT('',(0.0073,-0.0049,0.));
#1650=CARTESIAN_POINT('',(0.,0.,0.));
#1651=CARTESIAN_POINT('',(0.0175,0.0049,0.));
#1652=CARTESIAN_POINT('',(0.0185,0.0049,0.));
#1653=CARTESIAN_POINT('',(0.0175,0.0049,0.));
#1654=CARTESIAN_POINT('',(0.0175,0.0035,0.));
#1655=CARTESIAN_POINT('',(0.0161,0.0035,0.));
#1656=CARTESIAN_POINT('',(0.0161,0.0035,0.));
#1657=CARTESIAN_POINT('',(0.0161,0.0031,0.));
#1658=CARTESIAN_POINT('',(0.0161,0.0031,0.));
#1659=CARTESIAN_POINT('',(0.0199,0.0031,0.));
#1660=CARTESIAN_POINT('',(0.0199,0.0035,0.));
#1661=CARTESIAN_POINT('',(0.0199,0.0035,0.));
#1662=CARTESIAN_POINT('',(0.0185,0.0035,0.));
#1663=CARTESIAN_POINT('',(0.,0.,0.));
#1664=CARTESIAN_POINT('',(0.0155,0.0035,0.));
#1665=CARTESIAN_POINT('',(0.0155,0.0035,0.));
#1666=CARTESIAN_POINT('',(0.0155,0.0015,0.));
#1667=CARTESIAN_POINT('',(0.0155,0.0015,0.));
#1668=CARTESIAN_POINT('',(0.0161,0.0015,0.));
#1669=CARTESIAN_POINT('',(0.0161,0.0025,0.));
#1670=CARTESIAN_POINT('',(0.0161,0.0025,0.));
#1671=CARTESIAN_POINT('',(0.0161,0.0025,0.));
#1672=CARTESIAN_POINT('',(0.0199,0.0025,0.));
#1673=CARTESIAN_POINT('',(0.0199,0.0025,0.));
#1674=CARTESIAN_POINT('',(0.0199,0.0015,0.));
#1675=CARTESIAN_POINT('',(0.0199,0.0015,0.));
#1676=CARTESIAN_POINT('',(0.0205,0.0015,0.));
#1677=CARTESIAN_POINT('',(0.0205,0.0035,0.));
#1678=CARTESIAN_POINT('',(0.0205,0.0035,0.));
#1679=CARTESIAN_POINT('',(0.0185,0.0035,0.));
#1680=CARTESIAN_POINT('',(0.0185,0.0055,0.));
#1681=CARTESIAN_POINT('',(0.0175,0.0055,0.));
#1682=CARTESIAN_POINT('',(0.0175,0.0055,0.));
#1683=CARTESIAN_POINT('',(0.0175,0.0035,0.));
#1684=CARTESIAN_POINT('',(0.,0.,0.));
#1685=CARTESIAN_POINT('',(0.0065,0.0055,0.));
#1686=CARTESIAN_POINT('',(0.0115,0.0055,0.));
#1687=CARTESIAN_POINT('',(0.0065,0.0055,0.));
#1688=CARTESIAN_POINT('',(0.0065,0.0055,0.));
#1689=CARTESIAN_POINT('',(0.0065,0.0049,0.));
#1690=CARTESIAN_POINT('',(0.0065,0.0049,0.));
#1691=CARTESIAN_POINT('',(0.0087,0.0049,0.));
#1692=CARTESIAN_POINT('',(0.0087,0.0049,0.));
#1693=CARTESIAN_POINT('',(0.0087,0.0015,0.));
#1694=CARTESIAN_POINT('',(0.0087,0.0015,0.));
#1695=CARTESIAN_POINT('',(0.0093,0.0015,0.));
#1696=CARTESIAN_POINT('',(0.0093,0.0049,0.));
#1697=CARTESIAN_POINT('',(0.0093,0.0049,0.));
#1698=CARTESIAN_POINT('',(0.0093,0.0049,0.));
#1699=CARTESIAN_POINT('',(0.0115,0.0049,0.));
#1700=CARTESIAN_POINT('',(0.0115,0.0055,0.));
#1701=CARTESIAN_POINT('',(0.,0.,0.));
#1702=CARTESIAN_POINT('',(-0.0019,0.0031,0.));
#1703=CARTESIAN_POINT('',(-0.0019,0.0031,0.));
#1704=CARTESIAN_POINT('',(0.001,0.0031,0.));
#1705=CARTESIAN_POINT('',(0.001,0.004,0.));
#1706=CARTESIAN_POINT('',(0.001,0.0049,0.));
#1707=CARTESIAN_POINT('',(-0.0019,0.0049,0.));
#1708=CARTESIAN_POINT('',(-0.0019,0.0049,0.));
#1709=CARTESIAN_POINT('',(-0.0019,0.0049,0.));
#1710=CARTESIAN_POINT('',(0.,0.,0.));
#1711=CARTESIAN_POINT('',(0.001,0.004,0.));
#1712=CARTESIAN_POINT('',(0.00143541434669348,0.00256458565330652,0.));
#1713=CARTESIAN_POINT('',(0.001,0.0055,0.));
#1714=CARTESIAN_POINT('',(-0.0025,0.0055,0.));
#1715=CARTESIAN_POINT('',(-0.0025,0.0055,0.));
#1716=CARTESIAN_POINT('',(-0.0025,0.0055,0.));
#1717=CARTESIAN_POINT('',(-0.0025,0.0015,0.));
#1718=CARTESIAN_POINT('',(-0.0025,0.0015,0.));
#1719=CARTESIAN_POINT('',(-0.0019,0.0015,0.));
#1720=CARTESIAN_POINT('',(-0.0019,0.0025,0.));
#1721=CARTESIAN_POINT('',(-0.0019,0.0025,0.));
#1722=CARTESIAN_POINT('',(-0.0019,0.0025,0.));
#1723=CARTESIAN_POINT('',(0.000651471862576145,0.0025,0.));
#1724=CARTESIAN_POINT('',(0.000651471862576145,0.0025,0.));
#1725=CARTESIAN_POINT('',(0.00165147186257615,0.0015,0.));
#1726=CARTESIAN_POINT('',(0.0025,0.0015,0.));
#1727=CARTESIAN_POINT('',(0.0025,0.0015,0.));
#1728=CARTESIAN_POINT('',(0.00143541434669348,0.00256458565330652,0.));
#1729=CARTESIAN_POINT('',(0.,0.,0.));
#1730=CARTESIAN_POINT('',(-0.0109,0.0055,0.));
#1731=CARTESIAN_POINT('',(-0.0109,0.0035,0.));
#1732=CARTESIAN_POINT('',(-0.0109,0.0055,0.));
#1733=CARTESIAN_POINT('',(-0.0115,0.0055,0.));
#1734=CARTESIAN_POINT('',(-0.0115,0.0055,0.));
#1735=CARTESIAN_POINT('',(-0.0115,0.0055,0.));
#1736=CARTESIAN_POINT('',(-0.0115,0.0035,0.));
#1737=CARTESIAN_POINT('',(-0.0095,0.0035,0.));
#1738=CARTESIAN_POINT('',(-0.0095,0.0015,0.));
#1739=CARTESIAN_POINT('',(-0.0095,0.0015,0.));
#1740=CARTESIAN_POINT('',(-0.0085,0.0015,0.));
#1741=CARTESIAN_POINT('',(-0.0085,0.0035,0.));
#1742=CARTESIAN_POINT('',(-0.0065,0.0035,0.));
#1743=CARTESIAN_POINT('',(-0.0065,0.0055,0.));
#1744=CARTESIAN_POINT('',(-0.0065,0.0055,0.));
#1745=CARTESIAN_POINT('',(-0.0071,0.0055,0.));
#1746=CARTESIAN_POINT('',(-0.0071,0.0055,0.));
#1747=CARTESIAN_POINT('',(-0.0071,0.0055,0.));
#1748=CARTESIAN_POINT('',(-0.0071,0.0035,0.));
#1749=CARTESIAN_POINT('',(-0.0085,0.0035,0.));
#1750=CARTESIAN_POINT('',(-0.0085,0.0021,0.));
#1751=CARTESIAN_POINT('',(-0.0095,0.0021,0.));
#1752=CARTESIAN_POINT('',(-0.0095,0.0021,0.));
#1753=CARTESIAN_POINT('',(-0.0095,0.0035,0.));
#1754=CARTESIAN_POINT('',(0.,0.,0.));
#1755=CARTESIAN_POINT('',(-0.0185,0.0055,0.));
#1756=CARTESIAN_POINT('',(-0.0163,0.0055,0.));
#1757=CARTESIAN_POINT('',(-0.0185,0.0055,0.));
#1758=CARTESIAN_POINT('',(-0.0185,0.0035,0.));
#1759=CARTESIAN_POINT('',(-0.0185,0.0015,0.));
#1760=CARTESIAN_POINT('',(-0.0185,0.0015,0.));
#1761=CARTESIAN_POINT('',(-0.0163,0.0015,0.));
#1762=CARTESIAN_POINT('',(-0.0163,0.0035,0.));
#1763=CARTESIAN_POINT('',(-0.0155,0.00166696972201766,0.));
#1764=CARTESIAN_POINT('',(-0.0155,0.00235108747069239,0.));
#1765=CARTESIAN_POINT('',(-0.0155,0.00235108747069239,0.));
#1766=CARTESIAN_POINT('',(-0.0163,0.0035,0.));
#1767=CARTESIAN_POINT('',(-0.0163,0.0021,0.));
#1768=CARTESIAN_POINT('',(-0.0185,0.0021,0.));
#1769=CARTESIAN_POINT('',(-0.0185,0.0021,0.));
#1770=CARTESIAN_POINT('',(-0.0185,0.0035,0.));
#1771=CARTESIAN_POINT('',(-0.0185,0.0049,0.));
#1772=CARTESIAN_POINT('',(-0.0185,0.0049,0.));
#1773=CARTESIAN_POINT('',(-0.0163,0.0049,0.));
#1774=CARTESIAN_POINT('',(-0.0163,0.0035,0.));
#1775=CARTESIAN_POINT('',(-0.0155,0.00464891252930761,0.));
#1776=CARTESIAN_POINT('',(-0.0155,0.00533303027798234,0.));
#1777=CARTESIAN_POINT('',(-0.0155,0.00533303027798234,0.));
#1778=CARTESIAN_POINT('',(-0.0163,0.0035,0.));
#1779=CARTESIAN_POINT('',(0.,0.,0.));
#1780=CARTESIAN_POINT('',(0.0132057713659401,-0.0055,0.));
#1781=CARTESIAN_POINT('',(0.0132057713659401,-0.0067,0.));
#1782=CARTESIAN_POINT('',(0.0138057713659401,-0.00653923048454133,0.));
#1783=CARTESIAN_POINT('',(0.0138057713659401,-0.00653923048454132,0.));
#1784=CARTESIAN_POINT('',(0.0234,-0.001,0.));
#1785=CARTESIAN_POINT('',(-0.0234,-0.001,0.));
#1786=CARTESIAN_POINT('',(-0.0234,-0.001,0.));
#1787=CARTESIAN_POINT('',(-0.0138057713659401,-0.00653923048454133,0.));
#1788=CARTESIAN_POINT('',(-0.0138057713659401,-0.00653923048454133,0.));
#1789=CARTESIAN_POINT('',(-0.0132057713659401,-0.0055,0.));
#1790=CARTESIAN_POINT('',(-0.0132057713659401,-0.0067,0.));
#1791=CARTESIAN_POINT('',(-0.0132057713659401,-0.0067,0.));
#1792=CARTESIAN_POINT('',(0.,0.,0.));
#1793=CARTESIAN_POINT('',(-0.0235,0.0055,0.));
#1794=CARTESIAN_POINT('',(-0.0235,0.0055,0.));
#1795=CARTESIAN_POINT('',(-0.0235,0.0005,0.));
#1796=CARTESIAN_POINT('',(-0.0225,0.0005,0.));
#1797=CARTESIAN_POINT('',(-0.0225,-0.0005,0.));
#1798=CARTESIAN_POINT('',(-0.0225,-0.0005,0.));
#1799=CARTESIAN_POINT('',(0.0225,-0.0005,0.));
#1800=CARTESIAN_POINT('',(0.0225,0.0005,0.));
#1801=CARTESIAN_POINT('',(0.0235,0.0005,0.));
#1802=CARTESIAN_POINT('',(0.0235,0.0005,0.));
#1803=CARTESIAN_POINT('',(0.0235,0.0055,0.));
#1804=CARTESIAN_POINT('',(0.0225,0.0055,0.));
#1805=CARTESIAN_POINT('',(0.0225,0.0065,0.));
#1806=CARTESIAN_POINT('',(0.0225,0.0065,0.));
#1807=CARTESIAN_POINT('',(-0.0225,0.0065,0.));
#1808=CARTESIAN_POINT('',(-0.0225,0.0055,0.));
#1809=CARTESIAN_POINT('',(0.024,-0.007,-0.0005));
#1810=CARTESIAN_POINT('',(0.024,-0.007,-0.0005));
#1811=CARTESIAN_POINT('',(0.024,-0.000133974596215555,-0.0005));
#1812=CARTESIAN_POINT('',(0.024,0.0055,-0.0005));
#1813=CARTESIAN_POINT('',(0.024,0.0055,-0.0005));
#1814=CARTESIAN_POINT('',(0.024,0.0055,0.));
#1815=CARTESIAN_POINT('',(0.024,-0.007,0.));
#1816=CARTESIAN_POINT('',(0.024,-0.000133974596215555,0.));
#1817=CARTESIAN_POINT('',(0.024,-0.000133974596215555,-0.0005));
#1818=CARTESIAN_POINT('',(-0.024,-0.007,-0.0005));
#1819=CARTESIAN_POINT('',(-0.024,-0.007,-0.0005));
#1820=CARTESIAN_POINT('',(-0.0132057713659401,-0.007,-0.0005));
#1821=CARTESIAN_POINT('',(0.0132057713659401,-0.007,-0.0005));
#1822=CARTESIAN_POINT('',(0.0132057713659401,-0.007,0.));
#1823=CARTESIAN_POINT('',(0.0132057713659401,-0.007,0.));
#1824=CARTESIAN_POINT('',(-0.024,-0.007,0.));
#1825=CARTESIAN_POINT('',(-0.0132057713659401,-0.007,0.));
#1826=CARTESIAN_POINT('',(-0.0132057713659401,-0.007,-0.0005));
#1827=CARTESIAN_POINT('',(-0.024,-0.007,-0.0005));
#1828=CARTESIAN_POINT('',(-0.024,-0.007,0.));
#1829=CARTESIAN_POINT('',(-0.024,0.0055,0.));
#1830=CARTESIAN_POINT('',(-0.024,-0.000133974596215565,0.));
#1831=CARTESIAN_POINT('',(-0.024,0.0055,-0.0005));
#1832=CARTESIAN_POINT('',(-0.024,0.0055,-0.0005));
#1833=CARTESIAN_POINT('',(-0.024,-0.007,-0.0005));
#1834=CARTESIAN_POINT('',(-0.024,-0.000133974596215565,-0.0005));
#1835=CARTESIAN_POINT('',(-0.024,-0.000133974596215565,0.));
#1836=CARTESIAN_POINT('',(-0.024,0.007,-0.0005));
#1837=CARTESIAN_POINT('',(-0.024,0.007,0.));
#1838=CARTESIAN_POINT('',(0.0225,0.007,0.));
#1839=CARTESIAN_POINT('',(-0.0225,0.007,0.));
#1840=CARTESIAN_POINT('',(0.0225,0.007,-0.0005));
#1841=CARTESIAN_POINT('',(0.0225,0.007,-0.0005));
#1842=CARTESIAN_POINT('',(-0.024,0.007,-0.0005));
#1843=CARTESIAN_POINT('',(-0.0225,0.007,-0.0005));
#1844=CARTESIAN_POINT('',(-0.0225,0.007,-0.0005));
#1845=CARTESIAN_POINT('',(0.,0.,-0.0005));
#1846=CARTESIAN_POINT('',(0.0225,0.0055,-0.0005));
#1847=CARTESIAN_POINT('',(0.0225,-0.000133974596215555,-0.0005));
#1848=CARTESIAN_POINT('',(0.02325,-0.00143301270189221,-0.0005));
#1849=CARTESIAN_POINT('',(0.024,-0.001,-0.0005));
#1850=CARTESIAN_POINT('',(0.0139557713659401,-0.00679903810567665,-0.0005));
#1851=CARTESIAN_POINT('',(0.0132057713659401,-0.0055,-0.0005));
#1852=CARTESIAN_POINT('',(-0.0132057713659401,-0.0055,-0.0005));
#1853=CARTESIAN_POINT('',(-0.0139557713659401,-0.00679903810567666,-0.0005));
#1854=CARTESIAN_POINT('',(-0.024,-0.001,-0.0005));
#1855=CARTESIAN_POINT('',(-0.02325,-0.00143301270189222,-0.0005));
#1856=CARTESIAN_POINT('',(-0.0225,-0.000133974596215565,-0.0005));
#1857=CARTESIAN_POINT('',(-0.0225,0.0055,-0.0005));
#1858=CARTESIAN_POINT('',(0.,0.,0.));
#1859=CARTESIAN_POINT('',(0.0225,0.0055,0.));
#1860=CARTESIAN_POINT('',(-0.0225,0.0055,0.));
#1861=CARTESIAN_POINT('',(-0.0225,-0.000133974596215565,0.));
#1862=CARTESIAN_POINT('',(-0.02325,-0.00143301270189222,0.));
#1863=CARTESIAN_POINT('',(-0.024,-0.001,0.));
#1864=CARTESIAN_POINT('',(-0.0139557713659401,-0.00679903810567666,0.));
#1865=CARTESIAN_POINT('',(-0.0132057713659401,-0.0055,0.));
#1866=CARTESIAN_POINT('',(0.0132057713659401,-0.0055,0.));
#1867=CARTESIAN_POINT('',(0.0139557713659401,-0.00679903810567665,0.));
#1868=CARTESIAN_POINT('',(0.024,-0.001,0.));
#1869=CARTESIAN_POINT('',(0.02325,-0.00143301270189221,0.));
#1870=CARTESIAN_POINT('',(0.0225,-0.000133974596215555,0.));
#1871=CARTESIAN_POINT('',(-0.024,-0.001,-0.0005));
#1872=CARTESIAN_POINT('',(-0.0139557713659401,-0.00679903810567666,0.));
#1873=CARTESIAN_POINT('',(-0.02325,-0.00143301270189222,-0.0005));
#1874=CARTESIAN_POINT('',(0.024,-0.001,-0.0005));
#1875=CARTESIAN_POINT('',(0.02325,-0.00143301270189221,0.));
#1876=CARTESIAN_POINT('',(0.0139557713659401,-0.00679903810567665,-0.0005));
#1877=CARTESIAN_POINT('',(0.0225,0.0055,-0.0005));
#1878=CARTESIAN_POINT('',(-0.0225,0.0055,-0.0005));
#1879=CARTESIAN_POINT('',(0.0225,-0.000133974596215555,-0.0005));
#1880=CARTESIAN_POINT('',(0.0132057713659401,-0.0055,-0.0005));
#1881=CARTESIAN_POINT('',(-0.0132057713659401,-0.0055,-0.0005));
#1882=CARTESIAN_POINT('',(-0.0225,-0.000133974596215565,-0.0005));
#1883=MECHANICAL_DESIGN_GEOMETRIC_PRESENTATION_REPRESENTATION('',(#1075,
#1076,#1077,#1078,#1079,#1080,#1081,#1082,#1083,#1084,#1085,#1086),#1884);
#1884=(
GEOMETRIC_REPRESENTATION_CONTEXT(3)
GLOBAL_UNCERTAINTY_ASSIGNED_CONTEXT((#1885))
GLOBAL_UNIT_ASSIGNED_CONTEXT((#1888,#1887,#1886))
REPRESENTATION_CONTEXT('id2','TOP_LEVEL_ASSEMBLY_PART')
);
#1885=UNCERTAINTY_MEASURE_WITH_UNIT(LENGTH_MEASURE(1.E-8),#1888,
'DISTANCE_ACCURACY_VALUE','Maximum Tolerance applied to model');
#1886=(
NAMED_UNIT(*)
SI_UNIT($,.STERADIAN.)
SOLID_ANGLE_UNIT()
);
#1887=(
NAMED_UNIT(*)
PLANE_ANGLE_UNIT()
SI_UNIT($,.RADIAN.)
);
#1888=(
LENGTH_UNIT()
NAMED_UNIT(*)
SI_UNIT($,.METRE.)
);
#1889=PRODUCT_DEFINITION_SHAPE('','',#1890);
#1890=PRODUCT_DEFINITION('','',#1892,#1891);
#1891=DESIGN_CONTEXT('',#1898,'design');
#1892=PRODUCT_DEFINITION_FORMATION_WITH_SPECIFIED_SOURCE('','',#1894,
 .NOT_KNOWN.);
#1893=PRODUCT_RELATED_PRODUCT_CATEGORY('','',(#1894));
#1894=PRODUCT('id2','id2','id2',(#1896));
#1895=PRODUCT_CATEGORY('','');
#1896=MECHANICAL_CONTEXT('',#1898,'mechanical');
#1897=APPLICATION_PROTOCOL_DEFINITION('international standard',
'config_control_design',2010,#1898);
#1898=APPLICATION_CONTEXT(
'configuration controlled 3D designs of mechanical parts and assemblie
s');
ENDSEC;
END-ISO-10303-21;
