ISO-10303-21;
HEADER;
/* Generated by software containing ST-Developer
 * from STEP Tools, Inc. (www.steptools.com) 
 */
/* OPTION: using custom renumber hook */

FILE_DESCRIPTION(
/* description */ ('STEP AP203'),
/* implementation_level */ '2;1');

FILE_NAME(
/* name */ '6a546924024a03ad50f1ff62',
/* time_stamp */ '2026-07-13T04:27:16Z',
/* author */ (''),
/* organization */ (''),
/* preprocessor_version */ 'ST-DEVELOPER v20',
/* originating_system */ 'ONSHAPE BY PTC INC, 1.217',
/* authorisation */ '  ');

FILE_SCHEMA (('CONFIG_CONTROL_DESIGN'));
ENDSEC;

DATA;
#10=PROPERTY_DEFINITION_REPRESENTATION(#14,#12);
#11=PROPERTY_DEFINITION_REPRESENTATION(#15,#13);
#12=REPRESENTATION('',(#16),#280);
#13=REPRESENTATION('',(#17),#280);
#14=PROPERTY_DEFINITION('pmi validation property','',#285);
#15=PROPERTY_DEFINITION('pmi validation property','',#285);
#16=VALUE_REPRESENTATION_ITEM('number of annotations',COUNT_MEASURE(0.));
#17=VALUE_REPRESENTATION_ITEM('number of views',COUNT_MEASURE(0.));
#18=SHAPE_REPRESENTATION_RELATIONSHIP('','',#166,#19);
#19=ADVANCED_BREP_SHAPE_REPRESENTATION('',(#164),#280);
#20=CONICAL_SURFACE('',#186,0.00125,0.785398163397449);
#21=CONICAL_SURFACE('',#187,0.0004,0.785398163397446);
#22=CYLINDRICAL_SURFACE('',#170,0.00125);
#23=CYLINDRICAL_SURFACE('',#179,0.0007);
#24=CIRCLE('',#169,0.00125);
#25=CIRCLE('',#171,0.00125);
#26=CIRCLE('',#172,0.00125);
#27=CIRCLE('',#173,0.00125);
#28=CIRCLE('',#174,0.00125);
#29=CIRCLE('',#177,0.00105);
#30=CIRCLE('',#178,0.0007);
#31=CIRCLE('',#180,0.0007);
#32=CIRCLE('',#182,0.0004);
#33=ORIENTED_EDGE('',*,*,#67,.F.);
#34=ORIENTED_EDGE('',*,*,#68,.T.);
#35=ORIENTED_EDGE('',*,*,#69,.T.);
#36=ORIENTED_EDGE('',*,*,#70,.F.);
#37=ORIENTED_EDGE('',*,*,#68,.F.);
#38=ORIENTED_EDGE('',*,*,#71,.F.);
#39=ORIENTED_EDGE('',*,*,#72,.F.);
#40=ORIENTED_EDGE('',*,*,#73,.F.);
#41=ORIENTED_EDGE('',*,*,#74,.F.);
#42=ORIENTED_EDGE('',*,*,#75,.F.);
#43=ORIENTED_EDGE('',*,*,#76,.F.);
#44=ORIENTED_EDGE('',*,*,#77,.F.);
#45=ORIENTED_EDGE('',*,*,#74,.T.);
#46=ORIENTED_EDGE('',*,*,#78,.T.);
#47=ORIENTED_EDGE('',*,*,#79,.F.);
#48=ORIENTED_EDGE('',*,*,#80,.T.);
#49=ORIENTED_EDGE('',*,*,#79,.T.);
#50=ORIENTED_EDGE('',*,*,#81,.T.);
#51=ORIENTED_EDGE('',*,*,#70,.T.);
#52=ORIENTED_EDGE('',*,*,#82,.F.);
#53=ORIENTED_EDGE('',*,*,#71,.T.);
#54=ORIENTED_EDGE('',*,*,#67,.T.);
#55=ORIENTED_EDGE('',*,*,#73,.T.);
#56=ORIENTED_EDGE('',*,*,#83,.F.);
#57=ORIENTED_EDGE('',*,*,#75,.T.);
#58=ORIENTED_EDGE('',*,*,#77,.T.);
#59=ORIENTED_EDGE('',*,*,#76,.T.);
#60=ORIENTED_EDGE('',*,*,#83,.T.);
#61=ORIENTED_EDGE('',*,*,#72,.T.);
#62=ORIENTED_EDGE('',*,*,#82,.T.);
#63=ORIENTED_EDGE('',*,*,#78,.F.);
#64=ORIENTED_EDGE('',*,*,#69,.F.);
#65=ORIENTED_EDGE('',*,*,#80,.F.);
#66=ORIENTED_EDGE('',*,*,#81,.F.);
#67=EDGE_CURVE('',#84,#85,#97,.T.);
#68=EDGE_CURVE('',#84,#85,#24,.T.);
#69=EDGE_CURVE('',#86,#86,#25,.F.);
#70=EDGE_CURVE('',#85,#87,#98,.F.);
#71=EDGE_CURVE('',#88,#84,#99,.T.);
#72=EDGE_CURVE('',#89,#88,#26,.F.);
#73=EDGE_CURVE('',#90,#89,#100,.F.);
#74=EDGE_CURVE('',#91,#90,#27,.T.);
#75=EDGE_CURVE('',#92,#91,#101,.T.);
#76=EDGE_CURVE('',#87,#92,#28,.F.);
#77=EDGE_CURVE('',#91,#90,#102,.T.);
#78=EDGE_CURVE('',#93,#93,#29,.T.);
#79=EDGE_CURVE('',#94,#94,#30,.T.);
#80=EDGE_CURVE('',#95,#95,#31,.T.);
#81=EDGE_CURVE('',#96,#96,#32,.F.);
#82=EDGE_CURVE('',#88,#87,#103,.T.);
#83=EDGE_CURVE('',#92,#89,#104,.T.);
#84=VERTEX_POINT('',#241);
#85=VERTEX_POINT('',#242);
#86=VERTEX_POINT('',#246);
#87=VERTEX_POINT('',#248);
#88=VERTEX_POINT('',#250);
#89=VERTEX_POINT('',#252);
#90=VERTEX_POINT('',#254);
#91=VERTEX_POINT('',#256);
#92=VERTEX_POINT('',#258);
#93=VERTEX_POINT('',#264);
#94=VERTEX_POINT('',#266);
#95=VERTEX_POINT('',#269);
#96=VERTEX_POINT('',#272);
#97=LINE('',#240,#105);
#98=LINE('',#247,#106);
#99=LINE('',#249,#107);
#100=LINE('',#253,#108);
#101=LINE('',#257,#109);
#102=LINE('',#261,#110);
#103=LINE('',#274,#111);
#104=LINE('',#276,#112);
#105=VECTOR('',#192,1.);
#106=VECTOR('',#199,1.);
#107=VECTOR('',#200,1.);
#108=VECTOR('',#203,1.);
#109=VECTOR('',#206,1.);
#110=VECTOR('',#211,1.);
#111=VECTOR('',#228,1.);
#112=VECTOR('',#231,1.);
#113=EDGE_LOOP('',(#33,#34));
#114=EDGE_LOOP('',(#35));
#115=EDGE_LOOP('',(#36,#37,#38,#39,#40,#41,#42,#43));
#116=EDGE_LOOP('',(#44,#45));
#117=EDGE_LOOP('',(#46));
#118=EDGE_LOOP('',(#47));
#119=EDGE_LOOP('',(#48));
#120=EDGE_LOOP('',(#49));
#121=EDGE_LOOP('',(#50));
#122=EDGE_LOOP('',(#51,#52,#53,#54));
#123=EDGE_LOOP('',(#55,#56,#57,#58));
#124=EDGE_LOOP('',(#59,#60,#61,#62));
#125=EDGE_LOOP('',(#63));
#126=EDGE_LOOP('',(#64));
#127=EDGE_LOOP('',(#65));
#128=EDGE_LOOP('',(#66));
#129=FACE_BOUND('',#113,.T.);
#130=FACE_BOUND('',#114,.T.);
#131=FACE_BOUND('',#115,.T.);
#132=FACE_BOUND('',#116,.T.);
#133=FACE_BOUND('',#117,.T.);
#134=FACE_BOUND('',#118,.T.);
#135=FACE_BOUND('',#119,.T.);
#136=FACE_BOUND('',#120,.T.);
#137=FACE_BOUND('',#121,.T.);
#138=FACE_BOUND('',#122,.T.);
#139=FACE_BOUND('',#123,.T.);
#140=FACE_BOUND('',#124,.T.);
#141=FACE_BOUND('',#125,.T.);
#142=FACE_BOUND('',#126,.T.);
#143=FACE_BOUND('',#127,.T.);
#144=FACE_BOUND('',#128,.T.);
#145=PLANE('',#168);
#146=PLANE('',#175);
#147=PLANE('',#176);
#148=PLANE('',#181);
#149=PLANE('',#183);
#150=PLANE('',#184);
#151=PLANE('',#185);
#152=ADVANCED_FACE('',(#129),#145,.T.);
#153=ADVANCED_FACE('',(#130,#131),#22,.T.);
#154=ADVANCED_FACE('',(#132),#146,.T.);
#155=ADVANCED_FACE('',(#133,#134),#147,.T.);
#156=ADVANCED_FACE('',(#135,#136),#23,.T.);
#157=ADVANCED_FACE('',(#137),#148,.F.);
#158=ADVANCED_FACE('',(#138),#149,.F.);
#159=ADVANCED_FACE('',(#139),#150,.F.);
#160=ADVANCED_FACE('',(#140),#151,.F.);
#161=ADVANCED_FACE('',(#141,#142),#20,.T.);
#162=ADVANCED_FACE('',(#143,#144),#21,.T.);
#163=CLOSED_SHELL('',(#152,#153,#154,#155,#156,#157,#158,#159,#160,#161,
#162));
#164=MANIFOLD_SOLID_BREP('',#163);
#165=SHAPE_DEFINITION_REPRESENTATION(#285,#166);
#166=SHAPE_REPRESENTATION('id2',(#167),#280);
#167=AXIS2_PLACEMENT_3D('',#238,#188,#189);
#168=AXIS2_PLACEMENT_3D('',#239,#190,#191);
#169=AXIS2_PLACEMENT_3D('',#243,#193,#194);
#170=AXIS2_PLACEMENT_3D('',#244,#195,#196);
#171=AXIS2_PLACEMENT_3D('',#245,#197,#198);
#172=AXIS2_PLACEMENT_3D('',#251,#201,#202);
#173=AXIS2_PLACEMENT_3D('',#255,#204,#205);
#174=AXIS2_PLACEMENT_3D('',#259,#207,#208);
#175=AXIS2_PLACEMENT_3D('',#260,#209,#210);
#176=AXIS2_PLACEMENT_3D('',#262,#212,#213);
#177=AXIS2_PLACEMENT_3D('',#263,#214,#215);
#178=AXIS2_PLACEMENT_3D('',#265,#216,#217);
#179=AXIS2_PLACEMENT_3D('',#267,#218,#219);
#180=AXIS2_PLACEMENT_3D('',#268,#220,#221);
#181=AXIS2_PLACEMENT_3D('',#270,#222,#223);
#182=AXIS2_PLACEMENT_3D('',#271,#224,#225);
#183=AXIS2_PLACEMENT_3D('',#273,#226,#227);
#184=AXIS2_PLACEMENT_3D('',#275,#229,#230);
#185=AXIS2_PLACEMENT_3D('',#277,#232,#233);
#186=AXIS2_PLACEMENT_3D('',#278,#234,#235);
#187=AXIS2_PLACEMENT_3D('',#279,#236,#237);
#188=DIRECTION('',(0.,0.,1.));
#189=DIRECTION('',(1.,0.,0.));
#190=DIRECTION('',(0.,0.,1.));
#191=DIRECTION('',(1.,0.,0.));
#192=DIRECTION('',(1.,0.,0.));
#193=DIRECTION('',(0.,0.,1.));
#194=DIRECTION('',(1.,0.,0.));
#195=DIRECTION('',(0.,0.,1.));
#196=DIRECTION('',(1.,0.,0.));
#197=DIRECTION('',(0.,0.,-1.));
#198=DIRECTION('',(-1.,0.,0.));
#199=DIRECTION('',(0.,0.,1.));
#200=DIRECTION('',(0.,0.,1.));
#201=DIRECTION('',(0.,0.,-1.));
#202=DIRECTION('',(-1.,0.,0.));
#203=DIRECTION('',(0.,0.,1.));
#204=DIRECTION('',(0.,0.,1.));
#205=DIRECTION('',(1.,0.,0.));
#206=DIRECTION('',(0.,0.,1.));
#207=DIRECTION('',(0.,0.,-1.));
#208=DIRECTION('',(-1.,0.,0.));
#209=DIRECTION('',(0.,0.,1.));
#210=DIRECTION('',(1.,0.,0.));
#211=DIRECTION('',(-1.,0.,0.));
#212=DIRECTION('',(0.,0.,-1.));
#213=DIRECTION('',(-1.,0.,0.));
#214=DIRECTION('',(0.,0.,-1.));
#215=DIRECTION('',(-1.,0.,0.));
#216=DIRECTION('',(0.,0.,-1.));
#217=DIRECTION('',(-1.,0.,0.));
#218=DIRECTION('',(0.,0.,-1.));
#219=DIRECTION('',(-1.,0.,0.));
#220=DIRECTION('',(0.,0.,1.));
#221=DIRECTION('',(1.,0.,0.));
#222=DIRECTION('',(0.,0.,1.));
#223=DIRECTION('',(1.,0.,0.));
#224=DIRECTION('',(0.,0.,1.));
#225=DIRECTION('',(1.,0.,0.));
#226=DIRECTION('',(0.,-1.,0.));
#227=DIRECTION('',(0.,0.,-1.));
#228=DIRECTION('',(1.,0.,0.));
#229=DIRECTION('',(0.,1.,0.));
#230=DIRECTION('',(0.,0.,1.));
#231=DIRECTION('',(-1.,0.,0.));
#232=DIRECTION('',(0.,0.,-1.));
#233=DIRECTION('',(-1.,0.,0.));
#234=DIRECTION('',(0.,0.,1.));
#235=DIRECTION('',(1.,0.,0.));
#236=DIRECTION('',(0.,0.,1.));
#237=DIRECTION('',(1.,0.,0.));
#238=CARTESIAN_POINT('',(0.,0.,0.));
#239=CARTESIAN_POINT('',(0.,0.,0.));
#240=CARTESIAN_POINT('',(0.,-0.0002,0.));
#241=CARTESIAN_POINT('',(-0.00123389626792531,-0.0002,0.));
#242=CARTESIAN_POINT('',(0.00123389626792531,-0.0002,0.));
#243=CARTESIAN_POINT('',(0.,0.,0.));
#244=CARTESIAN_POINT('',(0.,0.,-0.002));
#245=CARTESIAN_POINT('',(0.,0.,-0.0007));
#246=CARTESIAN_POINT('',(-0.00125,0.,-0.0007));
#247=CARTESIAN_POINT('',(0.00123389626792531,-0.0002,-0.002));
#248=CARTESIAN_POINT('',(0.00123389626792531,-0.0002,-0.0005));
#249=CARTESIAN_POINT('',(-0.00123389626792531,-0.0002,-0.002));
#250=CARTESIAN_POINT('',(-0.00123389626792531,-0.0002,-0.0005));
#251=CARTESIAN_POINT('',(0.,0.,-0.0005));
#252=CARTESIAN_POINT('',(-0.00123389626792531,0.0002,-0.0005));
#253=CARTESIAN_POINT('',(-0.00123389626792531,0.0002,-0.002));
#254=CARTESIAN_POINT('',(-0.00123389626792531,0.0002,0.));
#255=CARTESIAN_POINT('',(0.,0.,0.));
#256=CARTESIAN_POINT('',(0.00123389626792531,0.0002,0.));
#257=CARTESIAN_POINT('',(0.00123389626792531,0.0002,-0.002));
#258=CARTESIAN_POINT('',(0.00123389626792531,0.0002,-0.0005));
#259=CARTESIAN_POINT('',(0.,0.,-0.0005));
#260=CARTESIAN_POINT('',(0.,0.,0.));
#261=CARTESIAN_POINT('',(0.,0.0002,0.));
#262=CARTESIAN_POINT('',(0.,0.,-0.0009));
#263=CARTESIAN_POINT('',(0.,0.,-0.0009));
#264=CARTESIAN_POINT('',(-0.00105,0.,-0.0009));
#265=CARTESIAN_POINT('',(0.,0.,-0.0009));
#266=CARTESIAN_POINT('',(-0.0007,0.,-0.0009));
#267=CARTESIAN_POINT('',(0.,0.,-0.0009));
#268=CARTESIAN_POINT('',(0.,0.,-0.0017));
#269=CARTESIAN_POINT('',(0.0007,0.,-0.0017));
#270=CARTESIAN_POINT('',(0.,0.,-0.002));
#271=CARTESIAN_POINT('',(0.,0.,-0.002));
#272=CARTESIAN_POINT('',(0.0004,0.,-0.002));
#273=CARTESIAN_POINT('',(-0.00135,-0.0002,-0.0005));
#274=CARTESIAN_POINT('',(-0.00135,-0.0002,-0.0005));
#275=CARTESIAN_POINT('',(-0.00135,0.0002,-0.0005));
#276=CARTESIAN_POINT('',(-0.00135,0.0002,-0.0005));
#277=CARTESIAN_POINT('',(0.,0.,-0.0005));
#278=CARTESIAN_POINT('',(0.,0.,-0.0007));
#279=CARTESIAN_POINT('',(0.,0.,-0.002));
#280=(
GEOMETRIC_REPRESENTATION_CONTEXT(3)
GLOBAL_UNCERTAINTY_ASSIGNED_CONTEXT((#281))
GLOBAL_UNIT_ASSIGNED_CONTEXT((#284,#283,#282))
REPRESENTATION_CONTEXT('id2','TOP_LEVEL_ASSEMBLY_PART')
);
#281=UNCERTAINTY_MEASURE_WITH_UNIT(LENGTH_MEASURE(1.E-8),#284,
'DISTANCE_ACCURACY_VALUE','Maximum Tolerance applied to model');
#282=(
NAMED_UNIT(*)
SI_UNIT($,.STERADIAN.)
SOLID_ANGLE_UNIT()
);
#283=(
NAMED_UNIT(*)
PLANE_ANGLE_UNIT()
SI_UNIT($,.RADIAN.)
);
#284=(
LENGTH_UNIT()
NAMED_UNIT(*)
SI_UNIT($,.METRE.)
);
#285=PRODUCT_DEFINITION_SHAPE('','',#286);
#286=PRODUCT_DEFINITION('','',#288,#287);
#287=DESIGN_CONTEXT('',#294,'design');
#288=PRODUCT_DEFINITION_FORMATION_WITH_SPECIFIED_SOURCE('','',#290,
 .NOT_KNOWN.);
#289=PRODUCT_RELATED_PRODUCT_CATEGORY('','',(#290));
#290=PRODUCT('id2','id2','id2',(#292));
#291=PRODUCT_CATEGORY('','');
#292=MECHANICAL_CONTEXT('',#294,'mechanical');
#293=APPLICATION_PROTOCOL_DEFINITION('international standard',
'config_control_design',2010,#294);
#294=APPLICATION_CONTEXT(
'configuration controlled 3D designs of mechanical parts and assemblie
s');
ENDSEC;
END-ISO-10303-21;
