ISO-10303-21;
HEADER;
FILE_DESCRIPTION((''),'2;1');
FILE_NAME('10PIN-CONNECTOR_PRT','2008-06-30T',('GRA'),(''),
'PRO/ENGINEER BY PARAMETRIC TECHNOLOGY CORPORATION, 2006170',
'PRO/ENGINEER BY PARAMETRIC TECHNOLOGY CORPORATION, 2006170','');
FILE_SCHEMA(('CONFIG_CONTROL_DESIGN'));
ENDSEC;
DATA;
#2=DIRECTION('',(-1.E0,0.E0,0.E0));
#3=VECTOR('',#2,3.7E-1);
#4=CARTESIAN_POINT('',(7.7E-1,0.E0,-3.35E0));
#5=LINE('',#4,#3);
#6=DIRECTION('',(0.E0,0.E0,1.E0));
#7=VECTOR('',#6,3.E-1);
#8=CARTESIAN_POINT('',(4.E-1,0.E0,-3.65E0));
#9=LINE('',#8,#7);
#10=DIRECTION('',(-1.E0,0.E0,0.E0));
#11=VECTOR('',#10,3.7E-1);
#12=CARTESIAN_POINT('',(7.7E-1,0.E0,-3.65E0));
#13=LINE('',#12,#11);
#14=DIRECTION('',(0.E0,0.E0,-1.E0));
#15=VECTOR('',#14,1.75E0);
#16=CARTESIAN_POINT('',(7.7E-1,0.E0,-3.65E0));
#17=LINE('',#16,#15);
#18=DIRECTION('',(-1.E0,0.E0,0.E0));
#19=VECTOR('',#18,1.54E0);
#20=CARTESIAN_POINT('',(7.7E-1,0.E0,-5.4E0));
#21=LINE('',#20,#19);
#22=DIRECTION('',(0.E0,0.E0,1.E0));
#23=VECTOR('',#22,7.5E-1);
#24=CARTESIAN_POINT('',(-7.7E-1,0.E0,-5.4E0));
#25=LINE('',#24,#23);
#26=DIRECTION('',(1.E0,0.E0,0.E0));
#27=VECTOR('',#26,3.7E-1);
#28=CARTESIAN_POINT('',(-7.7E-1,0.E0,-4.65E0));
#29=LINE('',#28,#27);
#30=DIRECTION('',(0.E0,0.E0,-1.E0));
#31=VECTOR('',#30,3.E-1);
#32=CARTESIAN_POINT('',(-4.E-1,0.E0,-4.35E0));
#33=LINE('',#32,#31);
#34=DIRECTION('',(1.E0,0.E0,0.E0));
#35=VECTOR('',#34,3.7E-1);
#36=CARTESIAN_POINT('',(-7.7E-1,0.E0,-4.35E0));
#37=LINE('',#36,#35);
#38=DIRECTION('',(0.E0,0.E0,1.E0));
#39=VECTOR('',#38,1.7E0);
#40=CARTESIAN_POINT('',(-7.7E-1,0.E0,-4.35E0));
#41=LINE('',#40,#39);
#42=DIRECTION('',(1.E0,0.E0,0.E0));
#43=VECTOR('',#42,3.7E-1);
#44=CARTESIAN_POINT('',(-7.7E-1,0.E0,-2.65E0));
#45=LINE('',#44,#43);
#46=DIRECTION('',(0.E0,0.E0,-1.E0));
#47=VECTOR('',#46,3.E-1);
#48=CARTESIAN_POINT('',(-4.E-1,0.E0,-2.35E0));
#49=LINE('',#48,#47);
#50=DIRECTION('',(1.E0,0.E0,0.E0));
#51=VECTOR('',#50,3.7E-1);
#52=CARTESIAN_POINT('',(-7.7E-1,0.E0,-2.35E0));
#53=LINE('',#52,#51);
#54=DIRECTION('',(0.E0,0.E0,1.E0));
#55=VECTOR('',#54,1.7E0);
#56=CARTESIAN_POINT('',(-7.7E-1,0.E0,-2.35E0));
#57=LINE('',#56,#55);
#58=DIRECTION('',(1.E0,0.E0,0.E0));
#59=VECTOR('',#58,3.7E-1);
#60=CARTESIAN_POINT('',(-7.7E-1,0.E0,-6.5E-1));
#61=LINE('',#60,#59);
#62=DIRECTION('',(0.E0,0.E0,-1.E0));
#63=VECTOR('',#62,3.E-1);
#64=CARTESIAN_POINT('',(-4.E-1,0.E0,-3.5E-1));
#65=LINE('',#64,#63);
#66=DIRECTION('',(1.E0,0.E0,0.E0));
#67=VECTOR('',#66,3.7E-1);
#68=CARTESIAN_POINT('',(-7.7E-1,0.E0,-3.5E-1));
#69=LINE('',#68,#67);
#70=DIRECTION('',(0.E0,0.E0,1.E0));
#71=VECTOR('',#70,1.7E0);
#72=CARTESIAN_POINT('',(-7.7E-1,0.E0,-3.5E-1));
#73=LINE('',#72,#71);
#74=DIRECTION('',(1.E0,0.E0,0.E0));
#75=VECTOR('',#74,3.7E-1);
#76=CARTESIAN_POINT('',(-7.7E-1,0.E0,1.35E0));
#77=LINE('',#76,#75);
#78=DIRECTION('',(0.E0,0.E0,-1.E0));
#79=VECTOR('',#78,3.E-1);
#80=CARTESIAN_POINT('',(-4.E-1,0.E0,1.65E0));
#81=LINE('',#80,#79);
#82=DIRECTION('',(1.E0,0.E0,0.E0));
#83=VECTOR('',#82,3.7E-1);
#84=CARTESIAN_POINT('',(-7.7E-1,0.E0,1.65E0));
#85=LINE('',#84,#83);
#86=DIRECTION('',(0.E0,0.E0,1.E0));
#87=VECTOR('',#86,1.7E0);
#88=CARTESIAN_POINT('',(-7.7E-1,0.E0,1.65E0));
#89=LINE('',#88,#87);
#90=DIRECTION('',(1.E0,0.E0,0.E0));
#91=VECTOR('',#90,3.7E-1);
#92=CARTESIAN_POINT('',(-7.7E-1,0.E0,3.35E0));
#93=LINE('',#92,#91);
#94=DIRECTION('',(0.E0,0.E0,-1.E0));
#95=VECTOR('',#94,3.E-1);
#96=CARTESIAN_POINT('',(-4.E-1,0.E0,3.65E0));
#97=LINE('',#96,#95);
#98=DIRECTION('',(1.E0,0.E0,0.E0));
#99=VECTOR('',#98,3.7E-1);
#100=CARTESIAN_POINT('',(-7.7E-1,0.E0,3.65E0));
#101=LINE('',#100,#99);
#102=DIRECTION('',(0.E0,0.E0,1.E0));
#103=VECTOR('',#102,1.75E0);
#104=CARTESIAN_POINT('',(-7.7E-1,0.E0,3.65E0));
#105=LINE('',#104,#103);
#106=DIRECTION('',(1.E0,0.E0,0.E0));
#107=VECTOR('',#106,1.54E0);
#108=CARTESIAN_POINT('',(-7.7E-1,0.E0,5.4E0));
#109=LINE('',#108,#107);
#110=DIRECTION('',(0.E0,0.E0,-1.E0));
#111=VECTOR('',#110,7.5E-1);
#112=CARTESIAN_POINT('',(7.7E-1,0.E0,5.4E0));
#113=LINE('',#112,#111);
#114=DIRECTION('',(-1.E0,0.E0,0.E0));
#115=VECTOR('',#114,3.7E-1);
#116=CARTESIAN_POINT('',(7.7E-1,0.E0,4.65E0));
#117=LINE('',#116,#115);
#118=DIRECTION('',(0.E0,0.E0,1.E0));
#119=VECTOR('',#118,3.E-1);
#120=CARTESIAN_POINT('',(4.E-1,0.E0,4.35E0));
#121=LINE('',#120,#119);
#122=DIRECTION('',(-1.E0,0.E0,0.E0));
#123=VECTOR('',#122,3.7E-1);
#124=CARTESIAN_POINT('',(7.7E-1,0.E0,4.35E0));
#125=LINE('',#124,#123);
#126=DIRECTION('',(0.E0,0.E0,-1.E0));
#127=VECTOR('',#126,1.7E0);
#128=CARTESIAN_POINT('',(7.7E-1,0.E0,4.35E0));
#129=LINE('',#128,#127);
#130=DIRECTION('',(-1.E0,0.E0,0.E0));
#131=VECTOR('',#130,3.7E-1);
#132=CARTESIAN_POINT('',(7.7E-1,0.E0,2.65E0));
#133=LINE('',#132,#131);
#134=DIRECTION('',(0.E0,0.E0,1.E0));
#135=VECTOR('',#134,3.E-1);
#136=CARTESIAN_POINT('',(4.E-1,0.E0,2.35E0));
#137=LINE('',#136,#135);
#138=DIRECTION('',(-1.E0,0.E0,0.E0));
#139=VECTOR('',#138,3.7E-1);
#140=CARTESIAN_POINT('',(7.7E-1,0.E0,2.35E0));
#141=LINE('',#140,#139);
#142=DIRECTION('',(0.E0,0.E0,-1.E0));
#143=VECTOR('',#142,1.7E0);
#144=CARTESIAN_POINT('',(7.7E-1,0.E0,2.35E0));
#145=LINE('',#144,#143);
#146=DIRECTION('',(-1.E0,0.E0,0.E0));
#147=VECTOR('',#146,3.7E-1);
#148=CARTESIAN_POINT('',(7.7E-1,0.E0,6.5E-1));
#149=LINE('',#148,#147);
#150=DIRECTION('',(0.E0,0.E0,1.E0));
#151=VECTOR('',#150,3.E-1);
#152=CARTESIAN_POINT('',(4.E-1,0.E0,3.5E-1));
#153=LINE('',#152,#151);
#154=DIRECTION('',(-1.E0,0.E0,0.E0));
#155=VECTOR('',#154,3.7E-1);
#156=CARTESIAN_POINT('',(7.7E-1,0.E0,3.5E-1));
#157=LINE('',#156,#155);
#158=DIRECTION('',(0.E0,0.E0,-1.E0));
#159=VECTOR('',#158,1.7E0);
#160=CARTESIAN_POINT('',(7.7E-1,0.E0,3.5E-1));
#161=LINE('',#160,#159);
#162=DIRECTION('',(-1.E0,0.E0,0.E0));
#163=VECTOR('',#162,3.7E-1);
#164=CARTESIAN_POINT('',(7.7E-1,0.E0,-1.35E0));
#165=LINE('',#164,#163);
#166=DIRECTION('',(0.E0,0.E0,1.E0));
#167=VECTOR('',#166,3.E-1);
#168=CARTESIAN_POINT('',(4.E-1,0.E0,-1.65E0));
#169=LINE('',#168,#167);
#170=DIRECTION('',(-1.E0,0.E0,0.E0));
#171=VECTOR('',#170,3.7E-1);
#172=CARTESIAN_POINT('',(7.7E-1,0.E0,-1.65E0));
#173=LINE('',#172,#171);
#174=DIRECTION('',(0.E0,0.E0,-1.E0));
#175=VECTOR('',#174,1.7E0);
#176=CARTESIAN_POINT('',(7.7E-1,0.E0,-1.65E0));
#177=LINE('',#176,#175);
#178=DIRECTION('',(0.E0,-1.E0,0.E0));
#179=VECTOR('',#178,1.5E-1);
#180=CARTESIAN_POINT('',(4.E-1,0.E0,-3.35E0));
#181=LINE('',#180,#179);
#182=DIRECTION('',(-1.E0,0.E0,0.E0));
#183=VECTOR('',#182,7.3E-1);
#184=CARTESIAN_POINT('',(1.5E0,0.E0,-3.65E0));
#185=LINE('',#184,#183);
#186=DIRECTION('',(0.E0,0.E0,-1.E0));
#187=VECTOR('',#186,3.E-1);
#188=CARTESIAN_POINT('',(1.5E0,0.E0,-3.35E0));
#189=LINE('',#188,#187);
#190=DIRECTION('',(1.E0,0.E0,0.E0));
#191=VECTOR('',#190,7.3E-1);
#192=CARTESIAN_POINT('',(7.7E-1,0.E0,-3.35E0));
#193=LINE('',#192,#191);
#194=DIRECTION('',(1.E0,0.E0,0.E0));
#195=VECTOR('',#194,7.3E-1);
#196=CARTESIAN_POINT('',(-1.5E0,0.E0,-4.35E0));
#197=LINE('',#196,#195);
#198=DIRECTION('',(0.E0,0.E0,1.E0));
#199=VECTOR('',#198,3.E-1);
#200=CARTESIAN_POINT('',(-1.5E0,0.E0,-4.65E0));
#201=LINE('',#200,#199);
#202=DIRECTION('',(-1.E0,0.E0,0.E0));
#203=VECTOR('',#202,7.3E-1);
#204=CARTESIAN_POINT('',(-7.7E-1,0.E0,-4.65E0));
#205=LINE('',#204,#203);
#206=DIRECTION('',(0.E0,0.E0,-1.E0));
#207=VECTOR('',#206,3.E-1);
#208=CARTESIAN_POINT('',(7.7E-1,0.E0,-3.35E0));
#209=LINE('',#208,#207);
#210=DIRECTION('',(0.E0,0.E0,-1.E0));
#211=VECTOR('',#210,3.E-1);
#212=CARTESIAN_POINT('',(7.7E-1,0.E0,-1.35E0));
#213=LINE('',#212,#211);
#214=DIRECTION('',(0.E0,0.E0,-1.E0));
#215=VECTOR('',#214,3.E-1);
#216=CARTESIAN_POINT('',(7.7E-1,0.E0,6.5E-1));
#217=LINE('',#216,#215);
#218=DIRECTION('',(0.E0,0.E0,-1.E0));
#219=VECTOR('',#218,3.E-1);
#220=CARTESIAN_POINT('',(7.7E-1,0.E0,2.65E0));
#221=LINE('',#220,#219);
#222=DIRECTION('',(0.E0,0.E0,-1.E0));
#223=VECTOR('',#222,3.E-1);
#224=CARTESIAN_POINT('',(7.7E-1,0.E0,4.65E0));
#225=LINE('',#224,#223);
#226=DIRECTION('',(0.E0,1.E0,0.E0));
#227=VECTOR('',#226,2.6E0);
#228=CARTESIAN_POINT('',(7.7E-1,0.E0,5.4E0));
#229=LINE('',#228,#227);
#230=DIRECTION('',(-1.E0,0.E0,0.E0));
#231=VECTOR('',#230,7.3E-1);
#232=CARTESIAN_POINT('',(1.5E0,0.E0,-1.65E0));
#233=LINE('',#232,#231);
#234=DIRECTION('',(0.E0,0.E0,-1.E0));
#235=VECTOR('',#234,3.E-1);
#236=CARTESIAN_POINT('',(1.5E0,0.E0,-1.35E0));
#237=LINE('',#236,#235);
#238=DIRECTION('',(1.E0,0.E0,0.E0));
#239=VECTOR('',#238,7.3E-1);
#240=CARTESIAN_POINT('',(7.7E-1,0.E0,-1.35E0));
#241=LINE('',#240,#239);
#242=DIRECTION('',(1.E0,0.E0,0.E0));
#243=VECTOR('',#242,7.3E-1);
#244=CARTESIAN_POINT('',(-1.5E0,0.E0,-2.35E0));
#245=LINE('',#244,#243);
#246=DIRECTION('',(0.E0,0.E0,1.E0));
#247=VECTOR('',#246,3.E-1);
#248=CARTESIAN_POINT('',(-1.5E0,0.E0,-2.65E0));
#249=LINE('',#248,#247);
#250=DIRECTION('',(-1.E0,0.E0,0.E0));
#251=VECTOR('',#250,7.3E-1);
#252=CARTESIAN_POINT('',(-7.7E-1,0.E0,-2.65E0));
#253=LINE('',#252,#251);
#254=DIRECTION('',(0.E0,-1.E0,0.E0));
#255=VECTOR('',#254,1.5E-1);
#256=CARTESIAN_POINT('',(1.5E0,0.E0,-1.65E0));
#257=LINE('',#256,#255);
#258=DIRECTION('',(0.E0,-1.E0,0.E0));
#259=VECTOR('',#258,1.5E-1);
#260=CARTESIAN_POINT('',(4.E-1,0.E0,-1.65E0));
#261=LINE('',#260,#259);
#262=DIRECTION('',(0.E0,-1.E0,0.E0));
#263=VECTOR('',#262,1.5E-1);
#264=CARTESIAN_POINT('',(4.E-1,0.E0,-1.35E0));
#265=LINE('',#264,#263);
#266=DIRECTION('',(0.E0,-1.E0,0.E0));
#267=VECTOR('',#266,1.5E-1);
#268=CARTESIAN_POINT('',(1.5E0,0.E0,-1.35E0));
#269=LINE('',#268,#267);
#270=DIRECTION('',(1.E0,0.E0,0.E0));
#271=VECTOR('',#270,1.1E0);
#272=CARTESIAN_POINT('',(4.E-1,-1.5E-1,-1.35E0));
#273=LINE('',#272,#271);
#274=DIRECTION('',(0.E0,0.E0,-1.E0));
#275=VECTOR('',#274,3.E-1);
#276=CARTESIAN_POINT('',(1.5E0,-1.5E-1,-1.35E0));
#277=LINE('',#276,#275);
#278=DIRECTION('',(-1.E0,0.E0,0.E0));
#279=VECTOR('',#278,1.1E0);
#280=CARTESIAN_POINT('',(1.5E0,-1.5E-1,-1.65E0));
#281=LINE('',#280,#279);
#282=DIRECTION('',(0.E0,0.E0,1.E0));
#283=VECTOR('',#282,3.E-1);
#284=CARTESIAN_POINT('',(4.E-1,-1.5E-1,-1.65E0));
#285=LINE('',#284,#283);
#286=DIRECTION('',(0.E0,0.E0,-1.E0));
#287=VECTOR('',#286,3.E-1);
#288=CARTESIAN_POINT('',(-4.E-1,-1.5E-1,-2.35E0));
#289=LINE('',#288,#287);
#290=DIRECTION('',(-1.E0,0.E0,0.E0));
#291=VECTOR('',#290,1.1E0);
#292=CARTESIAN_POINT('',(-4.E-1,-1.5E-1,-2.65E0));
#293=LINE('',#292,#291);
#294=DIRECTION('',(0.E0,0.E0,1.E0));
#295=VECTOR('',#294,3.E-1);
#296=CARTESIAN_POINT('',(-1.5E0,-1.5E-1,-2.65E0));
#297=LINE('',#296,#295);
#298=DIRECTION('',(1.E0,0.E0,0.E0));
#299=VECTOR('',#298,1.1E0);
#300=CARTESIAN_POINT('',(-1.5E0,-1.5E-1,-2.35E0));
#301=LINE('',#300,#299);
#302=DIRECTION('',(0.E0,-1.E0,0.E0));
#303=VECTOR('',#302,1.5E-1);
#304=CARTESIAN_POINT('',(-4.E-1,0.E0,-2.35E0));
#305=LINE('',#304,#303);
#306=DIRECTION('',(0.E0,-1.E0,0.E0));
#307=VECTOR('',#306,1.5E-1);
#308=CARTESIAN_POINT('',(-4.E-1,0.E0,-2.65E0));
#309=LINE('',#308,#307);
#310=DIRECTION('',(0.E0,-1.E0,0.E0));
#311=VECTOR('',#310,1.5E-1);
#312=CARTESIAN_POINT('',(-1.5E0,0.E0,-2.65E0));
#313=LINE('',#312,#311);
#314=DIRECTION('',(0.E0,-1.E0,0.E0));
#315=VECTOR('',#314,1.5E-1);
#316=CARTESIAN_POINT('',(-1.5E0,0.E0,-2.35E0));
#317=LINE('',#316,#315);
#318=DIRECTION('',(0.E0,0.E0,-1.E0));
#319=VECTOR('',#318,3.E-1);
#320=CARTESIAN_POINT('',(-7.7E-1,0.E0,-4.35E0));
#321=LINE('',#320,#319);
#322=DIRECTION('',(0.E0,1.E0,0.E0));
#323=VECTOR('',#322,2.6E0);
#324=CARTESIAN_POINT('',(-7.7E-1,0.E0,-5.4E0));
#325=LINE('',#324,#323);
#326=DIRECTION('',(0.E0,0.E0,-1.E0));
#327=VECTOR('',#326,3.E-1);
#328=CARTESIAN_POINT('',(-7.7E-1,0.E0,3.65E0));
#329=LINE('',#328,#327);
#330=DIRECTION('',(0.E0,0.E0,-1.E0));
#331=VECTOR('',#330,3.E-1);
#332=CARTESIAN_POINT('',(-7.7E-1,0.E0,1.65E0));
#333=LINE('',#332,#331);
#334=DIRECTION('',(0.E0,0.E0,-1.E0));
#335=VECTOR('',#334,3.E-1);
#336=CARTESIAN_POINT('',(-7.7E-1,0.E0,-3.5E-1));
#337=LINE('',#336,#335);
#338=DIRECTION('',(0.E0,0.E0,-1.E0));
#339=VECTOR('',#338,3.E-1);
#340=CARTESIAN_POINT('',(-7.7E-1,0.E0,-2.35E0));
#341=LINE('',#340,#339);
#342=DIRECTION('',(0.E0,1.E0,0.E0));
#343=VECTOR('',#342,2.6E0);
#344=CARTESIAN_POINT('',(7.7E-1,0.E0,-5.4E0));
#345=LINE('',#344,#343);
#346=DIRECTION('',(1.E0,0.E0,0.E0));
#347=VECTOR('',#346,1.54E0);
#348=CARTESIAN_POINT('',(-7.7E-1,2.6E0,5.4E0));
#349=LINE('',#348,#347);
#350=DIRECTION('',(0.E0,0.E0,1.E0));
#351=VECTOR('',#350,1.08E1);
#352=CARTESIAN_POINT('',(-7.7E-1,2.6E0,-5.4E0));
#353=LINE('',#352,#351);
#354=DIRECTION('',(-1.E0,0.E0,0.E0));
#355=VECTOR('',#354,1.54E0);
#356=CARTESIAN_POINT('',(7.7E-1,2.6E0,-5.4E0));
#357=LINE('',#356,#355);
#358=DIRECTION('',(0.E0,0.E0,-1.E0));
#359=VECTOR('',#358,1.08E1);
#360=CARTESIAN_POINT('',(7.7E-1,2.6E0,5.4E0));
#361=LINE('',#360,#359);
#362=DIRECTION('',(0.E0,1.E0,0.E0));
#363=VECTOR('',#362,2.6E0);
#364=CARTESIAN_POINT('',(-7.7E-1,0.E0,5.4E0));
#365=LINE('',#364,#363);
#366=DIRECTION('',(1.E0,0.E0,0.E0));
#367=VECTOR('',#366,7.3E-1);
#368=CARTESIAN_POINT('',(7.7E-1,0.E0,4.65E0));
#369=LINE('',#368,#367);
#370=DIRECTION('',(-1.E0,0.E0,0.E0));
#371=VECTOR('',#370,7.3E-1);
#372=CARTESIAN_POINT('',(1.5E0,0.E0,4.35E0));
#373=LINE('',#372,#371);
#374=DIRECTION('',(0.E0,0.E0,-1.E0));
#375=VECTOR('',#374,3.E-1);
#376=CARTESIAN_POINT('',(1.5E0,0.E0,4.65E0));
#377=LINE('',#376,#375);
#378=DIRECTION('',(-1.E0,0.E0,0.E0));
#379=VECTOR('',#378,7.3E-1);
#380=CARTESIAN_POINT('',(-7.7E-1,0.E0,3.35E0));
#381=LINE('',#380,#379);
#382=DIRECTION('',(1.E0,0.E0,0.E0));
#383=VECTOR('',#382,7.3E-1);
#384=CARTESIAN_POINT('',(-1.5E0,0.E0,3.65E0));
#385=LINE('',#384,#383);
#386=DIRECTION('',(0.E0,0.E0,1.E0));
#387=VECTOR('',#386,3.E-1);
#388=CARTESIAN_POINT('',(-1.5E0,0.E0,3.35E0));
#389=LINE('',#388,#387);
#390=DIRECTION('',(0.E0,1.E0,0.E0));
#391=VECTOR('',#390,1.5E-1);
#392=CARTESIAN_POINT('',(4.E-1,-1.5E-1,4.65E0));
#393=LINE('',#392,#391);
#394=DIRECTION('',(0.E0,1.E0,0.E0));
#395=VECTOR('',#394,1.5E-1);
#396=CARTESIAN_POINT('',(1.5E0,-1.5E-1,4.65E0));
#397=LINE('',#396,#395);
#398=DIRECTION('',(0.E0,1.E0,0.E0));
#399=VECTOR('',#398,1.5E-1);
#400=CARTESIAN_POINT('',(1.5E0,-1.5E-1,4.35E0));
#401=LINE('',#400,#399);
#402=DIRECTION('',(0.E0,1.E0,0.E0));
#403=VECTOR('',#402,1.5E-1);
#404=CARTESIAN_POINT('',(4.E-1,-1.5E-1,4.35E0));
#405=LINE('',#404,#403);
#406=DIRECTION('',(-1.E0,0.E0,0.E0));
#407=VECTOR('',#406,1.1E0);
#408=CARTESIAN_POINT('',(1.5E0,-1.5E-1,4.65E0));
#409=LINE('',#408,#407);
#410=DIRECTION('',(0.E0,0.E0,1.E0));
#411=VECTOR('',#410,3.E-1);
#412=CARTESIAN_POINT('',(1.5E0,-1.5E-1,4.35E0));
#413=LINE('',#412,#411);
#414=DIRECTION('',(1.E0,0.E0,0.E0));
#415=VECTOR('',#414,1.1E0);
#416=CARTESIAN_POINT('',(4.E-1,-1.5E-1,4.35E0));
#417=LINE('',#416,#415);
#418=DIRECTION('',(0.E0,0.E0,-1.E0));
#419=VECTOR('',#418,3.E-1);
#420=CARTESIAN_POINT('',(4.E-1,-1.5E-1,4.65E0));
#421=LINE('',#420,#419);
#422=DIRECTION('',(0.E0,0.E0,1.E0));
#423=VECTOR('',#422,3.E-1);
#424=CARTESIAN_POINT('',(-4.E-1,-1.5E-1,3.35E0));
#425=LINE('',#424,#423);
#426=DIRECTION('',(1.E0,0.E0,0.E0));
#427=VECTOR('',#426,1.1E0);
#428=CARTESIAN_POINT('',(-1.5E0,-1.5E-1,3.35E0));
#429=LINE('',#428,#427);
#430=DIRECTION('',(0.E0,0.E0,-1.E0));
#431=VECTOR('',#430,3.E-1);
#432=CARTESIAN_POINT('',(-1.5E0,-1.5E-1,3.65E0));
#433=LINE('',#432,#431);
#434=DIRECTION('',(-1.E0,0.E0,0.E0));
#435=VECTOR('',#434,1.1E0);
#436=CARTESIAN_POINT('',(-4.E-1,-1.5E-1,3.65E0));
#437=LINE('',#436,#435);
#438=DIRECTION('',(0.E0,1.E0,0.E0));
#439=VECTOR('',#438,1.5E-1);
#440=CARTESIAN_POINT('',(-4.E-1,-1.5E-1,3.65E0));
#441=LINE('',#440,#439);
#442=DIRECTION('',(0.E0,1.E0,0.E0));
#443=VECTOR('',#442,1.5E-1);
#444=CARTESIAN_POINT('',(-1.5E0,-1.5E-1,3.65E0));
#445=LINE('',#444,#443);
#446=DIRECTION('',(0.E0,1.E0,0.E0));
#447=VECTOR('',#446,1.5E-1);
#448=CARTESIAN_POINT('',(-1.5E0,-1.5E-1,3.35E0));
#449=LINE('',#448,#447);
#450=DIRECTION('',(0.E0,1.E0,0.E0));
#451=VECTOR('',#450,1.5E-1);
#452=CARTESIAN_POINT('',(-4.E-1,-1.5E-1,3.35E0));
#453=LINE('',#452,#451);
#454=DIRECTION('',(-1.E0,0.E0,0.E0));
#455=VECTOR('',#454,7.3E-1);
#456=CARTESIAN_POINT('',(1.5E0,0.E0,2.35E0));
#457=LINE('',#456,#455);
#458=DIRECTION('',(0.E0,0.E0,-1.E0));
#459=VECTOR('',#458,3.E-1);
#460=CARTESIAN_POINT('',(1.5E0,0.E0,2.65E0));
#461=LINE('',#460,#459);
#462=DIRECTION('',(1.E0,0.E0,0.E0));
#463=VECTOR('',#462,7.3E-1);
#464=CARTESIAN_POINT('',(7.7E-1,0.E0,2.65E0));
#465=LINE('',#464,#463);
#466=DIRECTION('',(1.E0,0.E0,0.E0));
#467=VECTOR('',#466,7.3E-1);
#468=CARTESIAN_POINT('',(-1.5E0,0.E0,1.65E0));
#469=LINE('',#468,#467);
#470=DIRECTION('',(0.E0,0.E0,1.E0));
#471=VECTOR('',#470,3.E-1);
#472=CARTESIAN_POINT('',(-1.5E0,0.E0,1.35E0));
#473=LINE('',#472,#471);
#474=DIRECTION('',(-1.E0,0.E0,0.E0));
#475=VECTOR('',#474,7.3E-1);
#476=CARTESIAN_POINT('',(-7.7E-1,0.E0,1.35E0));
#477=LINE('',#476,#475);
#478=DIRECTION('',(0.E0,-1.E0,0.E0));
#479=VECTOR('',#478,1.5E-1);
#480=CARTESIAN_POINT('',(1.5E0,0.E0,2.35E0));
#481=LINE('',#480,#479);
#482=DIRECTION('',(0.E0,-1.E0,0.E0));
#483=VECTOR('',#482,1.5E-1);
#484=CARTESIAN_POINT('',(4.E-1,0.E0,2.35E0));
#485=LINE('',#484,#483);
#486=DIRECTION('',(0.E0,-1.E0,0.E0));
#487=VECTOR('',#486,1.5E-1);
#488=CARTESIAN_POINT('',(4.E-1,0.E0,2.65E0));
#489=LINE('',#488,#487);
#490=DIRECTION('',(0.E0,-1.E0,0.E0));
#491=VECTOR('',#490,1.5E-1);
#492=CARTESIAN_POINT('',(1.5E0,0.E0,2.65E0));
#493=LINE('',#492,#491);
#494=DIRECTION('',(1.E0,0.E0,0.E0));
#495=VECTOR('',#494,1.1E0);
#496=CARTESIAN_POINT('',(4.E-1,-1.5E-1,2.65E0));
#497=LINE('',#496,#495);
#498=DIRECTION('',(0.E0,0.E0,-1.E0));
#499=VECTOR('',#498,3.E-1);
#500=CARTESIAN_POINT('',(1.5E0,-1.5E-1,2.65E0));
#501=LINE('',#500,#499);
#502=DIRECTION('',(-1.E0,0.E0,0.E0));
#503=VECTOR('',#502,1.1E0);
#504=CARTESIAN_POINT('',(1.5E0,-1.5E-1,2.35E0));
#505=LINE('',#504,#503);
#506=DIRECTION('',(0.E0,0.E0,1.E0));
#507=VECTOR('',#506,3.E-1);
#508=CARTESIAN_POINT('',(4.E-1,-1.5E-1,2.35E0));
#509=LINE('',#508,#507);
#510=DIRECTION('',(0.E0,0.E0,-1.E0));
#511=VECTOR('',#510,3.E-1);
#512=CARTESIAN_POINT('',(-4.E-1,-1.5E-1,1.65E0));
#513=LINE('',#512,#511);
#514=DIRECTION('',(-1.E0,0.E0,0.E0));
#515=VECTOR('',#514,1.1E0);
#516=CARTESIAN_POINT('',(-4.E-1,-1.5E-1,1.35E0));
#517=LINE('',#516,#515);
#518=DIRECTION('',(0.E0,0.E0,1.E0));
#519=VECTOR('',#518,3.E-1);
#520=CARTESIAN_POINT('',(-1.5E0,-1.5E-1,1.35E0));
#521=LINE('',#520,#519);
#522=DIRECTION('',(1.E0,0.E0,0.E0));
#523=VECTOR('',#522,1.1E0);
#524=CARTESIAN_POINT('',(-1.5E0,-1.5E-1,1.65E0));
#525=LINE('',#524,#523);
#526=DIRECTION('',(0.E0,-1.E0,0.E0));
#527=VECTOR('',#526,1.5E-1);
#528=CARTESIAN_POINT('',(-4.E-1,0.E0,1.65E0));
#529=LINE('',#528,#527);
#530=DIRECTION('',(0.E0,-1.E0,0.E0));
#531=VECTOR('',#530,1.5E-1);
#532=CARTESIAN_POINT('',(-4.E-1,0.E0,1.35E0));
#533=LINE('',#532,#531);
#534=DIRECTION('',(0.E0,-1.E0,0.E0));
#535=VECTOR('',#534,1.5E-1);
#536=CARTESIAN_POINT('',(-1.5E0,0.E0,1.35E0));
#537=LINE('',#536,#535);
#538=DIRECTION('',(0.E0,-1.E0,0.E0));
#539=VECTOR('',#538,1.5E-1);
#540=CARTESIAN_POINT('',(-1.5E0,0.E0,1.65E0));
#541=LINE('',#540,#539);
#542=DIRECTION('',(-1.E0,0.E0,0.E0));
#543=VECTOR('',#542,7.3E-1);
#544=CARTESIAN_POINT('',(1.5E0,0.E0,3.5E-1));
#545=LINE('',#544,#543);
#546=DIRECTION('',(0.E0,0.E0,-1.E0));
#547=VECTOR('',#546,3.E-1);
#548=CARTESIAN_POINT('',(1.5E0,0.E0,6.5E-1));
#549=LINE('',#548,#547);
#550=DIRECTION('',(1.E0,0.E0,0.E0));
#551=VECTOR('',#550,7.3E-1);
#552=CARTESIAN_POINT('',(7.7E-1,0.E0,6.5E-1));
#553=LINE('',#552,#551);
#554=DIRECTION('',(1.E0,0.E0,0.E0));
#555=VECTOR('',#554,7.3E-1);
#556=CARTESIAN_POINT('',(-1.5E0,0.E0,-3.5E-1));
#557=LINE('',#556,#555);
#558=DIRECTION('',(0.E0,0.E0,1.E0));
#559=VECTOR('',#558,3.E-1);
#560=CARTESIAN_POINT('',(-1.5E0,0.E0,-6.5E-1));
#561=LINE('',#560,#559);
#562=DIRECTION('',(-1.E0,0.E0,0.E0));
#563=VECTOR('',#562,7.3E-1);
#564=CARTESIAN_POINT('',(-7.7E-1,0.E0,-6.5E-1));
#565=LINE('',#564,#563);
#566=DIRECTION('',(0.E0,-1.E0,0.E0));
#567=VECTOR('',#566,1.5E-1);
#568=CARTESIAN_POINT('',(1.5E0,0.E0,3.5E-1));
#569=LINE('',#568,#567);
#570=DIRECTION('',(0.E0,-1.E0,0.E0));
#571=VECTOR('',#570,1.5E-1);
#572=CARTESIAN_POINT('',(4.E-1,0.E0,3.5E-1));
#573=LINE('',#572,#571);
#574=DIRECTION('',(0.E0,-1.E0,0.E0));
#575=VECTOR('',#574,1.5E-1);
#576=CARTESIAN_POINT('',(4.E-1,0.E0,6.5E-1));
#577=LINE('',#576,#575);
#578=DIRECTION('',(0.E0,-1.E0,0.E0));
#579=VECTOR('',#578,1.5E-1);
#580=CARTESIAN_POINT('',(1.5E0,0.E0,6.5E-1));
#581=LINE('',#580,#579);
#582=DIRECTION('',(1.E0,0.E0,0.E0));
#583=VECTOR('',#582,1.1E0);
#584=CARTESIAN_POINT('',(4.E-1,-1.5E-1,6.5E-1));
#585=LINE('',#584,#583);
#586=DIRECTION('',(0.E0,0.E0,-1.E0));
#587=VECTOR('',#586,3.E-1);
#588=CARTESIAN_POINT('',(1.5E0,-1.5E-1,6.5E-1));
#589=LINE('',#588,#587);
#590=DIRECTION('',(-1.E0,0.E0,0.E0));
#591=VECTOR('',#590,1.1E0);
#592=CARTESIAN_POINT('',(1.5E0,-1.5E-1,3.5E-1));
#593=LINE('',#592,#591);
#594=DIRECTION('',(0.E0,0.E0,1.E0));
#595=VECTOR('',#594,3.E-1);
#596=CARTESIAN_POINT('',(4.E-1,-1.5E-1,3.5E-1));
#597=LINE('',#596,#595);
#598=DIRECTION('',(0.E0,0.E0,-1.E0));
#599=VECTOR('',#598,3.E-1);
#600=CARTESIAN_POINT('',(-4.E-1,-1.5E-1,-3.5E-1));
#601=LINE('',#600,#599);
#602=DIRECTION('',(-1.E0,0.E0,0.E0));
#603=VECTOR('',#602,1.1E0);
#604=CARTESIAN_POINT('',(-4.E-1,-1.5E-1,-6.5E-1));
#605=LINE('',#604,#603);
#606=DIRECTION('',(0.E0,0.E0,1.E0));
#607=VECTOR('',#606,3.E-1);
#608=CARTESIAN_POINT('',(-1.5E0,-1.5E-1,-6.5E-1));
#609=LINE('',#608,#607);
#610=DIRECTION('',(1.E0,0.E0,0.E0));
#611=VECTOR('',#610,1.1E0);
#612=CARTESIAN_POINT('',(-1.5E0,-1.5E-1,-3.5E-1));
#613=LINE('',#612,#611);
#614=DIRECTION('',(0.E0,-1.E0,0.E0));
#615=VECTOR('',#614,1.5E-1);
#616=CARTESIAN_POINT('',(-4.E-1,0.E0,-3.5E-1));
#617=LINE('',#616,#615);
#618=DIRECTION('',(0.E0,-1.E0,0.E0));
#619=VECTOR('',#618,1.5E-1);
#620=CARTESIAN_POINT('',(-4.E-1,0.E0,-6.5E-1));
#621=LINE('',#620,#619);
#622=DIRECTION('',(0.E0,-1.E0,0.E0));
#623=VECTOR('',#622,1.5E-1);
#624=CARTESIAN_POINT('',(-1.5E0,0.E0,-6.5E-1));
#625=LINE('',#624,#623);
#626=DIRECTION('',(0.E0,-1.E0,0.E0));
#627=VECTOR('',#626,1.5E-1);
#628=CARTESIAN_POINT('',(-1.5E0,0.E0,-3.5E-1));
#629=LINE('',#628,#627);
#630=DIRECTION('',(0.E0,-1.E0,0.E0));
#631=VECTOR('',#630,1.5E-1);
#632=CARTESIAN_POINT('',(1.5E0,0.E0,-3.65E0));
#633=LINE('',#632,#631);
#634=DIRECTION('',(0.E0,-1.E0,0.E0));
#635=VECTOR('',#634,1.5E-1);
#636=CARTESIAN_POINT('',(4.E-1,0.E0,-3.65E0));
#637=LINE('',#636,#635);
#638=DIRECTION('',(1.E0,0.E0,0.E0));
#639=VECTOR('',#638,1.1E0);
#640=CARTESIAN_POINT('',(4.E-1,-1.5E-1,-3.35E0));
#641=LINE('',#640,#639);
#642=DIRECTION('',(0.E0,0.E0,-1.E0));
#643=VECTOR('',#642,3.E-1);
#644=CARTESIAN_POINT('',(1.5E0,-1.5E-1,-3.35E0));
#645=LINE('',#644,#643);
#646=DIRECTION('',(-1.E0,0.E0,0.E0));
#647=VECTOR('',#646,1.1E0);
#648=CARTESIAN_POINT('',(1.5E0,-1.5E-1,-3.65E0));
#649=LINE('',#648,#647);
#650=DIRECTION('',(0.E0,0.E0,1.E0));
#651=VECTOR('',#650,3.E-1);
#652=CARTESIAN_POINT('',(4.E-1,-1.5E-1,-3.65E0));
#653=LINE('',#652,#651);
#654=DIRECTION('',(0.E0,0.E0,-1.E0));
#655=VECTOR('',#654,3.E-1);
#656=CARTESIAN_POINT('',(-4.E-1,-1.5E-1,-4.35E0));
#657=LINE('',#656,#655);
#658=DIRECTION('',(-1.E0,0.E0,0.E0));
#659=VECTOR('',#658,1.1E0);
#660=CARTESIAN_POINT('',(-4.E-1,-1.5E-1,-4.65E0));
#661=LINE('',#660,#659);
#662=DIRECTION('',(0.E0,0.E0,1.E0));
#663=VECTOR('',#662,3.E-1);
#664=CARTESIAN_POINT('',(-1.5E0,-1.5E-1,-4.65E0));
#665=LINE('',#664,#663);
#666=DIRECTION('',(1.E0,0.E0,0.E0));
#667=VECTOR('',#666,1.1E0);
#668=CARTESIAN_POINT('',(-1.5E0,-1.5E-1,-4.35E0));
#669=LINE('',#668,#667);
#670=DIRECTION('',(0.E0,-1.E0,0.E0));
#671=VECTOR('',#670,1.5E-1);
#672=CARTESIAN_POINT('',(1.5E0,0.E0,-3.35E0));
#673=LINE('',#672,#671);
#674=DIRECTION('',(0.E0,-1.E0,0.E0));
#675=VECTOR('',#674,1.5E-1);
#676=CARTESIAN_POINT('',(-4.E-1,0.E0,-4.35E0));
#677=LINE('',#676,#675);
#678=DIRECTION('',(0.E0,-1.E0,0.E0));
#679=VECTOR('',#678,1.5E-1);
#680=CARTESIAN_POINT('',(-4.E-1,0.E0,-4.65E0));
#681=LINE('',#680,#679);
#682=DIRECTION('',(0.E0,-1.E0,0.E0));
#683=VECTOR('',#682,1.5E-1);
#684=CARTESIAN_POINT('',(-1.5E0,0.E0,-4.65E0));
#685=LINE('',#684,#683);
#686=DIRECTION('',(0.E0,-1.E0,0.E0));
#687=VECTOR('',#686,1.5E-1);
#688=CARTESIAN_POINT('',(-1.5E0,0.E0,-4.35E0));
#689=LINE('',#688,#687);
#690=CARTESIAN_POINT('',(-7.7E-1,0.E0,5.4E0));
#691=CARTESIAN_POINT('',(7.7E-1,0.E0,5.4E0));
#692=VERTEX_POINT('',#690);
#693=VERTEX_POINT('',#691);
#694=CARTESIAN_POINT('',(7.7E-1,0.E0,-5.4E0));
#695=CARTESIAN_POINT('',(-7.7E-1,0.E0,-5.4E0));
#696=VERTEX_POINT('',#694);
#697=VERTEX_POINT('',#695);
#698=CARTESIAN_POINT('',(-7.7E-1,2.6E0,5.4E0));
#699=CARTESIAN_POINT('',(7.7E-1,2.6E0,5.4E0));
#700=VERTEX_POINT('',#698);
#701=VERTEX_POINT('',#699);
#702=CARTESIAN_POINT('',(7.7E-1,2.6E0,-5.4E0));
#703=VERTEX_POINT('',#702);
#704=CARTESIAN_POINT('',(-7.7E-1,2.6E0,-5.4E0));
#705=VERTEX_POINT('',#704);
#706=CARTESIAN_POINT('',(1.5E0,0.E0,4.65E0));
#707=CARTESIAN_POINT('',(1.5E0,0.E0,4.35E0));
#708=VERTEX_POINT('',#706);
#709=VERTEX_POINT('',#707);
#710=CARTESIAN_POINT('',(-1.5E0,0.E0,3.35E0));
#711=CARTESIAN_POINT('',(-1.5E0,0.E0,3.65E0));
#712=VERTEX_POINT('',#710);
#713=VERTEX_POINT('',#711);
#714=CARTESIAN_POINT('',(1.5E0,-1.5E-1,4.65E0));
#715=CARTESIAN_POINT('',(4.E-1,-1.5E-1,4.65E0));
#716=VERTEX_POINT('',#714);
#717=VERTEX_POINT('',#715);
#718=CARTESIAN_POINT('',(1.5E0,-1.5E-1,4.35E0));
#719=VERTEX_POINT('',#718);
#720=CARTESIAN_POINT('',(4.E-1,-1.5E-1,4.35E0));
#721=VERTEX_POINT('',#720);
#722=CARTESIAN_POINT('',(-4.E-1,-1.5E-1,3.35E0));
#723=CARTESIAN_POINT('',(-4.E-1,-1.5E-1,3.65E0));
#724=VERTEX_POINT('',#722);
#725=VERTEX_POINT('',#723);
#726=CARTESIAN_POINT('',(-1.5E0,-1.5E-1,3.35E0));
#727=VERTEX_POINT('',#726);
#728=CARTESIAN_POINT('',(-1.5E0,-1.5E-1,3.65E0));
#729=VERTEX_POINT('',#728);
#730=CARTESIAN_POINT('',(7.7E-1,0.E0,4.65E0));
#731=VERTEX_POINT('',#730);
#732=CARTESIAN_POINT('',(-7.7E-1,0.E0,3.65E0));
#733=VERTEX_POINT('',#732);
#734=CARTESIAN_POINT('',(7.7E-1,0.E0,4.35E0));
#735=VERTEX_POINT('',#734);
#736=CARTESIAN_POINT('',(-7.7E-1,0.E0,3.35E0));
#737=VERTEX_POINT('',#736);
#738=CARTESIAN_POINT('',(4.E-1,0.E0,4.65E0));
#739=VERTEX_POINT('',#738);
#740=CARTESIAN_POINT('',(4.E-1,0.E0,4.35E0));
#741=VERTEX_POINT('',#740);
#742=CARTESIAN_POINT('',(-4.E-1,0.E0,3.65E0));
#743=VERTEX_POINT('',#742);
#744=CARTESIAN_POINT('',(-4.E-1,0.E0,3.35E0));
#745=VERTEX_POINT('',#744);
#746=CARTESIAN_POINT('',(1.5E0,0.E0,2.65E0));
#747=CARTESIAN_POINT('',(1.5E0,0.E0,2.35E0));
#748=VERTEX_POINT('',#746);
#749=VERTEX_POINT('',#747);
#750=CARTESIAN_POINT('',(-1.5E0,0.E0,1.35E0));
#751=CARTESIAN_POINT('',(-1.5E0,0.E0,1.65E0));
#752=VERTEX_POINT('',#750);
#753=VERTEX_POINT('',#751);
#754=CARTESIAN_POINT('',(4.E-1,-1.5E-1,2.65E0));
#755=CARTESIAN_POINT('',(1.5E0,-1.5E-1,2.65E0));
#756=VERTEX_POINT('',#754);
#757=VERTEX_POINT('',#755);
#758=CARTESIAN_POINT('',(1.5E0,-1.5E-1,2.35E0));
#759=VERTEX_POINT('',#758);
#760=CARTESIAN_POINT('',(4.E-1,-1.5E-1,2.35E0));
#761=VERTEX_POINT('',#760);
#762=CARTESIAN_POINT('',(-4.E-1,-1.5E-1,1.65E0));
#763=CARTESIAN_POINT('',(-4.E-1,-1.5E-1,1.35E0));
#764=VERTEX_POINT('',#762);
#765=VERTEX_POINT('',#763);
#766=CARTESIAN_POINT('',(-1.5E0,-1.5E-1,1.35E0));
#767=VERTEX_POINT('',#766);
#768=CARTESIAN_POINT('',(-1.5E0,-1.5E-1,1.65E0));
#769=VERTEX_POINT('',#768);
#770=CARTESIAN_POINT('',(7.7E-1,0.E0,2.65E0));
#771=CARTESIAN_POINT('',(4.E-1,0.E0,2.65E0));
#772=VERTEX_POINT('',#770);
#773=VERTEX_POINT('',#771);
#774=CARTESIAN_POINT('',(7.7E-1,0.E0,2.35E0));
#775=CARTESIAN_POINT('',(4.E-1,0.E0,2.35E0));
#776=VERTEX_POINT('',#774);
#777=VERTEX_POINT('',#775);
#778=CARTESIAN_POINT('',(-4.E-1,0.E0,1.65E0));
#779=CARTESIAN_POINT('',(-4.E-1,0.E0,1.35E0));
#780=VERTEX_POINT('',#778);
#781=VERTEX_POINT('',#779);
#782=CARTESIAN_POINT('',(-7.7E-1,0.E0,1.35E0));
#783=VERTEX_POINT('',#782);
#784=CARTESIAN_POINT('',(-7.7E-1,0.E0,1.65E0));
#785=VERTEX_POINT('',#784);
#786=CARTESIAN_POINT('',(1.5E0,0.E0,6.5E-1));
#787=CARTESIAN_POINT('',(1.5E0,0.E0,3.5E-1));
#788=VERTEX_POINT('',#786);
#789=VERTEX_POINT('',#787);
#790=CARTESIAN_POINT('',(-1.5E0,0.E0,-6.5E-1));
#791=CARTESIAN_POINT('',(-1.5E0,0.E0,-3.5E-1));
#792=VERTEX_POINT('',#790);
#793=VERTEX_POINT('',#791);
#794=CARTESIAN_POINT('',(4.E-1,-1.5E-1,6.5E-1));
#795=CARTESIAN_POINT('',(1.5E0,-1.5E-1,6.5E-1));
#796=VERTEX_POINT('',#794);
#797=VERTEX_POINT('',#795);
#798=CARTESIAN_POINT('',(1.5E0,-1.5E-1,3.5E-1));
#799=VERTEX_POINT('',#798);
#800=CARTESIAN_POINT('',(4.E-1,-1.5E-1,3.5E-1));
#801=VERTEX_POINT('',#800);
#802=CARTESIAN_POINT('',(-4.E-1,-1.5E-1,-3.5E-1));
#803=CARTESIAN_POINT('',(-4.E-1,-1.5E-1,-6.5E-1));
#804=VERTEX_POINT('',#802);
#805=VERTEX_POINT('',#803);
#806=CARTESIAN_POINT('',(-1.5E0,-1.5E-1,-6.5E-1));
#807=VERTEX_POINT('',#806);
#808=CARTESIAN_POINT('',(-1.5E0,-1.5E-1,-3.5E-1));
#809=VERTEX_POINT('',#808);
#810=CARTESIAN_POINT('',(7.7E-1,0.E0,6.5E-1));
#811=CARTESIAN_POINT('',(4.E-1,0.E0,6.5E-1));
#812=VERTEX_POINT('',#810);
#813=VERTEX_POINT('',#811);
#814=CARTESIAN_POINT('',(7.7E-1,0.E0,3.5E-1));
#815=CARTESIAN_POINT('',(4.E-1,0.E0,3.5E-1));
#816=VERTEX_POINT('',#814);
#817=VERTEX_POINT('',#815);
#818=CARTESIAN_POINT('',(-4.E-1,0.E0,-3.5E-1));
#819=CARTESIAN_POINT('',(-4.E-1,0.E0,-6.5E-1));
#820=VERTEX_POINT('',#818);
#821=VERTEX_POINT('',#819);
#822=CARTESIAN_POINT('',(-7.7E-1,0.E0,-6.5E-1));
#823=VERTEX_POINT('',#822);
#824=CARTESIAN_POINT('',(-7.7E-1,0.E0,-3.5E-1));
#825=VERTEX_POINT('',#824);
#826=CARTESIAN_POINT('',(1.5E0,0.E0,-1.35E0));
#827=CARTESIAN_POINT('',(1.5E0,0.E0,-1.65E0));
#828=VERTEX_POINT('',#826);
#829=VERTEX_POINT('',#827);
#830=CARTESIAN_POINT('',(-1.5E0,0.E0,-2.65E0));
#831=CARTESIAN_POINT('',(-1.5E0,0.E0,-2.35E0));
#832=VERTEX_POINT('',#830);
#833=VERTEX_POINT('',#831);
#834=CARTESIAN_POINT('',(4.E-1,-1.5E-1,-1.35E0));
#835=CARTESIAN_POINT('',(1.5E0,-1.5E-1,-1.35E0));
#836=VERTEX_POINT('',#834);
#837=VERTEX_POINT('',#835);
#838=CARTESIAN_POINT('',(1.5E0,-1.5E-1,-1.65E0));
#839=VERTEX_POINT('',#838);
#840=CARTESIAN_POINT('',(4.E-1,-1.5E-1,-1.65E0));
#841=VERTEX_POINT('',#840);
#842=CARTESIAN_POINT('',(-4.E-1,-1.5E-1,-2.35E0));
#843=CARTESIAN_POINT('',(-4.E-1,-1.5E-1,-2.65E0));
#844=VERTEX_POINT('',#842);
#845=VERTEX_POINT('',#843);
#846=CARTESIAN_POINT('',(-1.5E0,-1.5E-1,-2.65E0));
#847=VERTEX_POINT('',#846);
#848=CARTESIAN_POINT('',(-1.5E0,-1.5E-1,-2.35E0));
#849=VERTEX_POINT('',#848);
#850=CARTESIAN_POINT('',(7.7E-1,0.E0,-1.35E0));
#851=CARTESIAN_POINT('',(4.E-1,0.E0,-1.35E0));
#852=VERTEX_POINT('',#850);
#853=VERTEX_POINT('',#851);
#854=CARTESIAN_POINT('',(7.7E-1,0.E0,-1.65E0));
#855=CARTESIAN_POINT('',(4.E-1,0.E0,-1.65E0));
#856=VERTEX_POINT('',#854);
#857=VERTEX_POINT('',#855);
#858=CARTESIAN_POINT('',(-4.E-1,0.E0,-2.35E0));
#859=CARTESIAN_POINT('',(-4.E-1,0.E0,-2.65E0));
#860=VERTEX_POINT('',#858);
#861=VERTEX_POINT('',#859);
#862=CARTESIAN_POINT('',(-7.7E-1,0.E0,-2.65E0));
#863=VERTEX_POINT('',#862);
#864=CARTESIAN_POINT('',(-7.7E-1,0.E0,-2.35E0));
#865=VERTEX_POINT('',#864);
#866=CARTESIAN_POINT('',(1.5E0,0.E0,-3.35E0));
#867=CARTESIAN_POINT('',(1.5E0,0.E0,-3.65E0));
#868=VERTEX_POINT('',#866);
#869=VERTEX_POINT('',#867);
#870=CARTESIAN_POINT('',(-1.5E0,0.E0,-4.65E0));
#871=CARTESIAN_POINT('',(-1.5E0,0.E0,-4.35E0));
#872=VERTEX_POINT('',#870);
#873=VERTEX_POINT('',#871);
#874=CARTESIAN_POINT('',(4.E-1,-1.5E-1,-3.35E0));
#875=CARTESIAN_POINT('',(1.5E0,-1.5E-1,-3.35E0));
#876=VERTEX_POINT('',#874);
#877=VERTEX_POINT('',#875);
#878=CARTESIAN_POINT('',(1.5E0,-1.5E-1,-3.65E0));
#879=VERTEX_POINT('',#878);
#880=CARTESIAN_POINT('',(4.E-1,-1.5E-1,-3.65E0));
#881=VERTEX_POINT('',#880);
#882=CARTESIAN_POINT('',(-4.E-1,-1.5E-1,-4.35E0));
#883=CARTESIAN_POINT('',(-4.E-1,-1.5E-1,-4.65E0));
#884=VERTEX_POINT('',#882);
#885=VERTEX_POINT('',#883);
#886=CARTESIAN_POINT('',(-1.5E0,-1.5E-1,-4.65E0));
#887=VERTEX_POINT('',#886);
#888=CARTESIAN_POINT('',(-1.5E0,-1.5E-1,-4.35E0));
#889=VERTEX_POINT('',#888);
#890=CARTESIAN_POINT('',(7.7E-1,0.E0,-3.35E0));
#891=CARTESIAN_POINT('',(4.E-1,0.E0,-3.35E0));
#892=VERTEX_POINT('',#890);
#893=VERTEX_POINT('',#891);
#894=CARTESIAN_POINT('',(7.7E-1,0.E0,-3.65E0));
#895=CARTESIAN_POINT('',(4.E-1,0.E0,-3.65E0));
#896=VERTEX_POINT('',#894);
#897=VERTEX_POINT('',#895);
#898=CARTESIAN_POINT('',(-4.E-1,0.E0,-4.35E0));
#899=CARTESIAN_POINT('',(-4.E-1,0.E0,-4.65E0));
#900=VERTEX_POINT('',#898);
#901=VERTEX_POINT('',#899);
#902=CARTESIAN_POINT('',(-7.7E-1,0.E0,-4.65E0));
#903=VERTEX_POINT('',#902);
#904=CARTESIAN_POINT('',(-7.7E-1,0.E0,-4.35E0));
#905=VERTEX_POINT('',#904);
#906=CARTESIAN_POINT('',(0.E0,0.E0,0.E0));
#907=DIRECTION('',(0.E0,1.E0,0.E0));
#908=DIRECTION('',(1.E0,0.E0,0.E0));
#909=AXIS2_PLACEMENT_3D('',#906,#907,#908);
#910=PLANE('',#909);
#912=ORIENTED_EDGE('',*,*,#911,.T.);
#914=ORIENTED_EDGE('',*,*,#913,.F.);
#916=ORIENTED_EDGE('',*,*,#915,.F.);
#918=ORIENTED_EDGE('',*,*,#917,.T.);
#920=ORIENTED_EDGE('',*,*,#919,.T.);
#922=ORIENTED_EDGE('',*,*,#921,.T.);
#924=ORIENTED_EDGE('',*,*,#923,.T.);
#926=ORIENTED_EDGE('',*,*,#925,.F.);
#928=ORIENTED_EDGE('',*,*,#927,.F.);
#930=ORIENTED_EDGE('',*,*,#929,.T.);
#932=ORIENTED_EDGE('',*,*,#931,.T.);
#934=ORIENTED_EDGE('',*,*,#933,.F.);
#936=ORIENTED_EDGE('',*,*,#935,.F.);
#938=ORIENTED_EDGE('',*,*,#937,.T.);
#940=ORIENTED_EDGE('',*,*,#939,.T.);
#942=ORIENTED_EDGE('',*,*,#941,.F.);
#944=ORIENTED_EDGE('',*,*,#943,.F.);
#946=ORIENTED_EDGE('',*,*,#945,.T.);
#948=ORIENTED_EDGE('',*,*,#947,.T.);
#950=ORIENTED_EDGE('',*,*,#949,.F.);
#952=ORIENTED_EDGE('',*,*,#951,.F.);
#954=ORIENTED_EDGE('',*,*,#953,.T.);
#956=ORIENTED_EDGE('',*,*,#955,.T.);
#958=ORIENTED_EDGE('',*,*,#957,.F.);
#960=ORIENTED_EDGE('',*,*,#959,.F.);
#962=ORIENTED_EDGE('',*,*,#961,.T.);
#964=ORIENTED_EDGE('',*,*,#963,.T.);
#966=ORIENTED_EDGE('',*,*,#965,.T.);
#968=ORIENTED_EDGE('',*,*,#967,.T.);
#970=ORIENTED_EDGE('',*,*,#969,.F.);
#972=ORIENTED_EDGE('',*,*,#971,.F.);
#974=ORIENTED_EDGE('',*,*,#973,.T.);
#976=ORIENTED_EDGE('',*,*,#975,.T.);
#978=ORIENTED_EDGE('',*,*,#977,.F.);
#980=ORIENTED_EDGE('',*,*,#979,.F.);
#982=ORIENTED_EDGE('',*,*,#981,.T.);
#984=ORIENTED_EDGE('',*,*,#983,.T.);
#986=ORIENTED_EDGE('',*,*,#985,.F.);
#988=ORIENTED_EDGE('',*,*,#987,.F.);
#990=ORIENTED_EDGE('',*,*,#989,.T.);
#992=ORIENTED_EDGE('',*,*,#991,.T.);
#994=ORIENTED_EDGE('',*,*,#993,.F.);
#996=ORIENTED_EDGE('',*,*,#995,.F.);
#998=ORIENTED_EDGE('',*,*,#997,.T.);
#999=EDGE_LOOP('',(#912,#914,#916,#918,#920,#922,#924,#926,#928,#930,#932,#934,
#936,#938,#940,#942,#944,#946,#948,#950,#952,#954,#956,#958,#960,#962,#964,#966,
#968,#970,#972,#974,#976,#978,#980,#982,#984,#986,#988,#990,#992,#994,#996,
#998));
#1000=FACE_OUTER_BOUND('',#999,.F.);
#1001=ADVANCED_FACE('',(#1000),#910,.F.);
#1002=CARTESIAN_POINT('',(4.E-1,0.E0,-3.35E0));
#1003=DIRECTION('',(0.E0,0.E0,1.E0));
#1004=DIRECTION('',(1.E0,0.E0,0.E0));
#1005=AXIS2_PLACEMENT_3D('',#1002,#1003,#1004);
#1006=PLANE('',#1005);
#1007=ORIENTED_EDGE('',*,*,#911,.F.);
#1009=ORIENTED_EDGE('',*,*,#1008,.T.);
#1011=ORIENTED_EDGE('',*,*,#1010,.T.);
#1013=ORIENTED_EDGE('',*,*,#1012,.F.);
#1015=ORIENTED_EDGE('',*,*,#1014,.F.);
#1016=EDGE_LOOP('',(#1007,#1009,#1011,#1013,#1015));
#1017=FACE_OUTER_BOUND('',#1016,.F.);
#1018=ADVANCED_FACE('',(#1017),#1006,.T.);
#1019=CARTESIAN_POINT('',(0.E0,0.E0,0.E0));
#1020=DIRECTION('',(0.E0,1.E0,0.E0));
#1021=DIRECTION('',(1.E0,0.E0,0.E0));
#1022=AXIS2_PLACEMENT_3D('',#1019,#1020,#1021);
#1023=PLANE('',#1022);
#1025=ORIENTED_EDGE('',*,*,#1024,.T.);
#1027=ORIENTED_EDGE('',*,*,#1026,.F.);
#1029=ORIENTED_EDGE('',*,*,#1028,.F.);
#1030=ORIENTED_EDGE('',*,*,#1008,.F.);
#1031=EDGE_LOOP('',(#1025,#1027,#1029,#1030));
#1032=FACE_OUTER_BOUND('',#1031,.F.);
#1033=ADVANCED_FACE('',(#1032),#1023,.T.);
#1034=CARTESIAN_POINT('',(0.E0,0.E0,0.E0));
#1035=DIRECTION('',(0.E0,1.E0,0.E0));
#1036=DIRECTION('',(1.E0,0.E0,0.E0));
#1037=AXIS2_PLACEMENT_3D('',#1034,#1035,#1036);
#1038=PLANE('',#1037);
#1040=ORIENTED_EDGE('',*,*,#1039,.F.);
#1042=ORIENTED_EDGE('',*,*,#1041,.F.);
#1044=ORIENTED_EDGE('',*,*,#1043,.F.);
#1046=ORIENTED_EDGE('',*,*,#1045,.F.);
#1047=EDGE_LOOP('',(#1040,#1042,#1044,#1046));
#1048=FACE_OUTER_BOUND('',#1047,.F.);
#1049=ADVANCED_FACE('',(#1048),#1038,.T.);
#1050=CARTESIAN_POINT('',(7.7E-1,0.E0,5.4E0));
#1051=DIRECTION('',(1.E0,0.E0,0.E0));
#1052=DIRECTION('',(0.E0,0.E0,-1.E0));
#1053=AXIS2_PLACEMENT_3D('',#1050,#1051,#1052);
#1054=PLANE('',#1053);
#1055=ORIENTED_EDGE('',*,*,#1024,.F.);
#1056=ORIENTED_EDGE('',*,*,#997,.F.);
#1058=ORIENTED_EDGE('',*,*,#1057,.F.);
#1059=ORIENTED_EDGE('',*,*,#989,.F.);
#1061=ORIENTED_EDGE('',*,*,#1060,.F.);
#1062=ORIENTED_EDGE('',*,*,#981,.F.);
#1064=ORIENTED_EDGE('',*,*,#1063,.F.);
#1065=ORIENTED_EDGE('',*,*,#973,.F.);
#1067=ORIENTED_EDGE('',*,*,#1066,.F.);
#1068=ORIENTED_EDGE('',*,*,#965,.F.);
#1070=ORIENTED_EDGE('',*,*,#1069,.T.);
#1072=ORIENTED_EDGE('',*,*,#1071,.T.);
#1074=ORIENTED_EDGE('',*,*,#1073,.F.);
#1075=ORIENTED_EDGE('',*,*,#917,.F.);
#1076=EDGE_LOOP('',(#1055,#1056,#1058,#1059,#1061,#1062,#1064,#1065,#1067,#1068,
#1070,#1072,#1074,#1075));
#1077=FACE_OUTER_BOUND('',#1076,.F.);
#1078=ADVANCED_FACE('',(#1077),#1054,.T.);
#1079=CARTESIAN_POINT('',(0.E0,0.E0,0.E0));
#1080=DIRECTION('',(0.E0,1.E0,0.E0));
#1081=DIRECTION('',(1.E0,0.E0,0.E0));
#1082=AXIS2_PLACEMENT_3D('',#1079,#1080,#1081);
#1083=PLANE('',#1082);
#1084=ORIENTED_EDGE('',*,*,#1057,.T.);
#1086=ORIENTED_EDGE('',*,*,#1085,.F.);
#1088=ORIENTED_EDGE('',*,*,#1087,.F.);
#1090=ORIENTED_EDGE('',*,*,#1089,.F.);
#1091=EDGE_LOOP('',(#1084,#1086,#1088,#1090));
#1092=FACE_OUTER_BOUND('',#1091,.F.);
#1093=ADVANCED_FACE('',(#1092),#1083,.T.);
#1094=CARTESIAN_POINT('',(0.E0,0.E0,0.E0));
#1095=DIRECTION('',(0.E0,1.E0,0.E0));
#1096=DIRECTION('',(1.E0,0.E0,0.E0));
#1097=AXIS2_PLACEMENT_3D('',#1094,#1095,#1096);
#1098=PLANE('',#1097);
#1100=ORIENTED_EDGE('',*,*,#1099,.F.);
#1102=ORIENTED_EDGE('',*,*,#1101,.F.);
#1104=ORIENTED_EDGE('',*,*,#1103,.F.);
#1106=ORIENTED_EDGE('',*,*,#1105,.F.);
#1107=EDGE_LOOP('',(#1100,#1102,#1104,#1106));
#1108=FACE_OUTER_BOUND('',#1107,.F.);
#1109=ADVANCED_FACE('',(#1108),#1098,.T.);
#1110=CARTESIAN_POINT('',(1.5E0,0.E0,-1.65E0));
#1111=DIRECTION('',(0.E0,0.E0,-1.E0));
#1112=DIRECTION('',(-1.E0,0.E0,0.E0));
#1113=AXIS2_PLACEMENT_3D('',#1110,#1111,#1112);
#1114=PLANE('',#1113);
#1115=ORIENTED_EDGE('',*,*,#995,.T.);
#1117=ORIENTED_EDGE('',*,*,#1116,.T.);
#1119=ORIENTED_EDGE('',*,*,#1118,.F.);
#1121=ORIENTED_EDGE('',*,*,#1120,.F.);
#1122=ORIENTED_EDGE('',*,*,#1085,.T.);
#1123=EDGE_LOOP('',(#1115,#1117,#1119,#1121,#1122));
#1124=FACE_OUTER_BOUND('',#1123,.F.);
#1125=ADVANCED_FACE('',(#1124),#1114,.T.);
#1126=CARTESIAN_POINT('',(4.E-1,0.E0,-1.65E0));
#1127=DIRECTION('',(-1.E0,0.E0,0.E0));
#1128=DIRECTION('',(0.E0,0.E0,1.E0));
#1129=AXIS2_PLACEMENT_3D('',#1126,#1127,#1128);
#1130=PLANE('',#1129);
#1131=ORIENTED_EDGE('',*,*,#993,.T.);
#1133=ORIENTED_EDGE('',*,*,#1132,.T.);
#1135=ORIENTED_EDGE('',*,*,#1134,.F.);
#1136=ORIENTED_EDGE('',*,*,#1116,.F.);
#1137=EDGE_LOOP('',(#1131,#1133,#1135,#1136));
#1138=FACE_OUTER_BOUND('',#1137,.F.);
#1139=ADVANCED_FACE('',(#1138),#1130,.T.);
#1140=CARTESIAN_POINT('',(4.E-1,0.E0,-1.35E0));
#1141=DIRECTION('',(0.E0,0.E0,1.E0));
#1142=DIRECTION('',(1.E0,0.E0,0.E0));
#1143=AXIS2_PLACEMENT_3D('',#1140,#1141,#1142);
#1144=PLANE('',#1143);
#1145=ORIENTED_EDGE('',*,*,#991,.F.);
#1146=ORIENTED_EDGE('',*,*,#1089,.T.);
#1148=ORIENTED_EDGE('',*,*,#1147,.T.);
#1150=ORIENTED_EDGE('',*,*,#1149,.F.);
#1151=ORIENTED_EDGE('',*,*,#1132,.F.);
#1152=EDGE_LOOP('',(#1145,#1146,#1148,#1150,#1151));
#1153=FACE_OUTER_BOUND('',#1152,.F.);
#1154=ADVANCED_FACE('',(#1153),#1144,.T.);
#1155=CARTESIAN_POINT('',(1.5E0,0.E0,-1.35E0));
#1156=DIRECTION('',(1.E0,0.E0,0.E0));
#1157=DIRECTION('',(0.E0,0.E0,-1.E0));
#1158=AXIS2_PLACEMENT_3D('',#1155,#1156,#1157);
#1159=PLANE('',#1158);
#1160=ORIENTED_EDGE('',*,*,#1087,.T.);
#1161=ORIENTED_EDGE('',*,*,#1120,.T.);
#1163=ORIENTED_EDGE('',*,*,#1162,.F.);
#1164=ORIENTED_EDGE('',*,*,#1147,.F.);
#1165=EDGE_LOOP('',(#1160,#1161,#1163,#1164));
#1166=FACE_OUTER_BOUND('',#1165,.F.);
#1167=ADVANCED_FACE('',(#1166),#1159,.T.);
#1168=CARTESIAN_POINT('',(0.E0,-1.5E-1,0.E0));
#1169=DIRECTION('',(0.E0,1.E0,0.E0));
#1170=DIRECTION('',(1.E0,0.E0,0.E0));
#1171=AXIS2_PLACEMENT_3D('',#1168,#1169,#1170);
#1172=PLANE('',#1171);
#1173=ORIENTED_EDGE('',*,*,#1149,.T.);
#1174=ORIENTED_EDGE('',*,*,#1162,.T.);
#1175=ORIENTED_EDGE('',*,*,#1118,.T.);
#1176=ORIENTED_EDGE('',*,*,#1134,.T.);
#1177=EDGE_LOOP('',(#1173,#1174,#1175,#1176));
#1178=FACE_OUTER_BOUND('',#1177,.F.);
#1179=ADVANCED_FACE('',(#1178),#1172,.F.);
#1180=CARTESIAN_POINT('',(0.E0,-1.5E-1,0.E0));
#1181=DIRECTION('',(0.E0,1.E0,0.E0));
#1182=DIRECTION('',(1.E0,0.E0,0.E0));
#1183=AXIS2_PLACEMENT_3D('',#1180,#1181,#1182);
#1184=PLANE('',#1183);
#1186=ORIENTED_EDGE('',*,*,#1185,.T.);
#1188=ORIENTED_EDGE('',*,*,#1187,.T.);
#1190=ORIENTED_EDGE('',*,*,#1189,.T.);
#1192=ORIENTED_EDGE('',*,*,#1191,.T.);
#1193=EDGE_LOOP('',(#1186,#1188,#1190,#1192));
#1194=FACE_OUTER_BOUND('',#1193,.F.);
#1195=ADVANCED_FACE('',(#1194),#1184,.F.);
#1196=CARTESIAN_POINT('',(-4.E-1,0.E0,-2.35E0));
#1197=DIRECTION('',(1.E0,0.E0,0.E0));
#1198=DIRECTION('',(0.E0,0.E0,-1.E0));
#1199=AXIS2_PLACEMENT_3D('',#1196,#1197,#1198);
#1200=PLANE('',#1199);
#1201=ORIENTED_EDGE('',*,*,#933,.T.);
#1203=ORIENTED_EDGE('',*,*,#1202,.T.);
#1204=ORIENTED_EDGE('',*,*,#1185,.F.);
#1206=ORIENTED_EDGE('',*,*,#1205,.F.);
#1207=EDGE_LOOP('',(#1201,#1203,#1204,#1206));
#1208=FACE_OUTER_BOUND('',#1207,.F.);
#1209=ADVANCED_FACE('',(#1208),#1200,.T.);
#1210=CARTESIAN_POINT('',(-4.E-1,0.E0,-2.65E0));
#1211=DIRECTION('',(0.E0,0.E0,-1.E0));
#1212=DIRECTION('',(-1.E0,0.E0,0.E0));
#1213=AXIS2_PLACEMENT_3D('',#1210,#1211,#1212);
#1214=PLANE('',#1213);
#1215=ORIENTED_EDGE('',*,*,#931,.F.);
#1216=ORIENTED_EDGE('',*,*,#1105,.T.);
#1218=ORIENTED_EDGE('',*,*,#1217,.T.);
#1219=ORIENTED_EDGE('',*,*,#1187,.F.);
#1220=ORIENTED_EDGE('',*,*,#1202,.F.);
#1221=EDGE_LOOP('',(#1215,#1216,#1218,#1219,#1220));
#1222=FACE_OUTER_BOUND('',#1221,.F.);
#1223=ADVANCED_FACE('',(#1222),#1214,.T.);
#1224=CARTESIAN_POINT('',(-1.5E0,0.E0,-2.65E0));
#1225=DIRECTION('',(-1.E0,0.E0,0.E0));
#1226=DIRECTION('',(0.E0,0.E0,1.E0));
#1227=AXIS2_PLACEMENT_3D('',#1224,#1225,#1226);
#1228=PLANE('',#1227);
#1229=ORIENTED_EDGE('',*,*,#1103,.T.);
#1231=ORIENTED_EDGE('',*,*,#1230,.T.);
#1232=ORIENTED_EDGE('',*,*,#1189,.F.);
#1233=ORIENTED_EDGE('',*,*,#1217,.F.);
#1234=EDGE_LOOP('',(#1229,#1231,#1232,#1233));
#1235=FACE_OUTER_BOUND('',#1234,.F.);
#1236=ADVANCED_FACE('',(#1235),#1228,.T.);
#1237=CARTESIAN_POINT('',(-1.5E0,0.E0,-2.35E0));
#1238=DIRECTION('',(0.E0,0.E0,1.E0));
#1239=DIRECTION('',(1.E0,0.E0,0.E0));
#1240=AXIS2_PLACEMENT_3D('',#1237,#1238,#1239);
#1241=PLANE('',#1240);
#1242=ORIENTED_EDGE('',*,*,#935,.T.);
#1243=ORIENTED_EDGE('',*,*,#1205,.T.);
#1244=ORIENTED_EDGE('',*,*,#1191,.F.);
#1245=ORIENTED_EDGE('',*,*,#1230,.F.);
#1246=ORIENTED_EDGE('',*,*,#1101,.T.);
#1247=EDGE_LOOP('',(#1242,#1243,#1244,#1245,#1246));
#1248=FACE_OUTER_BOUND('',#1247,.F.);
#1249=ADVANCED_FACE('',(#1248),#1241,.T.);
#1250=CARTESIAN_POINT('',(-7.7E-1,0.E0,-5.4E0));
#1251=DIRECTION('',(-1.E0,0.E0,0.E0));
#1252=DIRECTION('',(0.E0,0.E0,1.E0));
#1253=AXIS2_PLACEMENT_3D('',#1250,#1251,#1252);
#1254=PLANE('',#1253);
#1255=ORIENTED_EDGE('',*,*,#1039,.T.);
#1256=ORIENTED_EDGE('',*,*,#921,.F.);
#1258=ORIENTED_EDGE('',*,*,#1257,.T.);
#1260=ORIENTED_EDGE('',*,*,#1259,.T.);
#1262=ORIENTED_EDGE('',*,*,#1261,.F.);
#1263=ORIENTED_EDGE('',*,*,#961,.F.);
#1265=ORIENTED_EDGE('',*,*,#1264,.T.);
#1266=ORIENTED_EDGE('',*,*,#953,.F.);
#1268=ORIENTED_EDGE('',*,*,#1267,.T.);
#1269=ORIENTED_EDGE('',*,*,#945,.F.);
#1271=ORIENTED_EDGE('',*,*,#1270,.T.);
#1272=ORIENTED_EDGE('',*,*,#937,.F.);
#1273=ORIENTED_EDGE('',*,*,#1099,.T.);
#1274=ORIENTED_EDGE('',*,*,#929,.F.);
#1275=EDGE_LOOP('',(#1255,#1256,#1258,#1260,#1262,#1263,#1265,#1266,#1268,#1269,
#1271,#1272,#1273,#1274));
#1276=FACE_OUTER_BOUND('',#1275,.F.);
#1277=ADVANCED_FACE('',(#1276),#1254,.T.);
#1278=CARTESIAN_POINT('',(7.7E-1,0.E0,-5.4E0));
#1279=DIRECTION('',(0.E0,0.E0,-1.E0));
#1280=DIRECTION('',(-1.E0,0.E0,0.E0));
#1281=AXIS2_PLACEMENT_3D('',#1278,#1279,#1280);
#1282=PLANE('',#1281);
#1283=ORIENTED_EDGE('',*,*,#919,.F.);
#1284=ORIENTED_EDGE('',*,*,#1073,.T.);
#1286=ORIENTED_EDGE('',*,*,#1285,.T.);
#1287=ORIENTED_EDGE('',*,*,#1257,.F.);
#1288=EDGE_LOOP('',(#1283,#1284,#1286,#1287));
#1289=FACE_OUTER_BOUND('',#1288,.F.);
#1290=ADVANCED_FACE('',(#1289),#1282,.T.);
#1291=CARTESIAN_POINT('',(0.E0,2.6E0,0.E0));
#1292=DIRECTION('',(0.E0,1.E0,0.E0));
#1293=DIRECTION('',(1.E0,0.E0,0.E0));
#1294=AXIS2_PLACEMENT_3D('',#1291,#1292,#1293);
#1295=PLANE('',#1294);
#1297=ORIENTED_EDGE('',*,*,#1296,.F.);
#1298=ORIENTED_EDGE('',*,*,#1259,.F.);
#1299=ORIENTED_EDGE('',*,*,#1285,.F.);
#1300=ORIENTED_EDGE('',*,*,#1071,.F.);
#1301=EDGE_LOOP('',(#1297,#1298,#1299,#1300));
#1302=FACE_OUTER_BOUND('',#1301,.F.);
#1303=ADVANCED_FACE('',(#1302),#1295,.T.);
#1304=CARTESIAN_POINT('',(-7.7E-1,0.E0,5.4E0));
#1305=DIRECTION('',(0.E0,0.E0,1.E0));
#1306=DIRECTION('',(1.E0,0.E0,0.E0));
#1307=AXIS2_PLACEMENT_3D('',#1304,#1305,#1306);
#1308=PLANE('',#1307);
#1309=ORIENTED_EDGE('',*,*,#963,.F.);
#1310=ORIENTED_EDGE('',*,*,#1261,.T.);
#1311=ORIENTED_EDGE('',*,*,#1296,.T.);
#1312=ORIENTED_EDGE('',*,*,#1069,.F.);
#1313=EDGE_LOOP('',(#1309,#1310,#1311,#1312));
#1314=FACE_OUTER_BOUND('',#1313,.F.);
#1315=ADVANCED_FACE('',(#1314),#1308,.T.);
#1316=CARTESIAN_POINT('',(0.E0,0.E0,0.E0));
#1317=DIRECTION('',(0.E0,1.E0,0.E0));
#1318=DIRECTION('',(1.E0,0.E0,0.E0));
#1319=AXIS2_PLACEMENT_3D('',#1316,#1317,#1318);
#1320=PLANE('',#1319);
#1322=ORIENTED_EDGE('',*,*,#1321,.F.);
#1323=ORIENTED_EDGE('',*,*,#1066,.T.);
#1325=ORIENTED_EDGE('',*,*,#1324,.F.);
#1327=ORIENTED_EDGE('',*,*,#1326,.F.);
#1328=EDGE_LOOP('',(#1322,#1323,#1325,#1327));
#1329=FACE_OUTER_BOUND('',#1328,.F.);
#1330=ADVANCED_FACE('',(#1329),#1320,.T.);
#1331=CARTESIAN_POINT('',(0.E0,0.E0,0.E0));
#1332=DIRECTION('',(0.E0,1.E0,0.E0));
#1333=DIRECTION('',(1.E0,0.E0,0.E0));
#1334=AXIS2_PLACEMENT_3D('',#1331,#1332,#1333);
#1335=PLANE('',#1334);
#1337=ORIENTED_EDGE('',*,*,#1336,.F.);
#1338=ORIENTED_EDGE('',*,*,#1264,.F.);
#1340=ORIENTED_EDGE('',*,*,#1339,.F.);
#1342=ORIENTED_EDGE('',*,*,#1341,.F.);
#1343=EDGE_LOOP('',(#1337,#1338,#1340,#1342));
#1344=FACE_OUTER_BOUND('',#1343,.F.);
#1345=ADVANCED_FACE('',(#1344),#1335,.T.);
#1346=CARTESIAN_POINT('',(4.E-1,0.E0,4.65E0));
#1347=DIRECTION('',(0.E0,0.E0,1.E0));
#1348=DIRECTION('',(1.E0,0.E0,0.E0));
#1349=AXIS2_PLACEMENT_3D('',#1346,#1347,#1348);
#1350=PLANE('',#1349);
#1351=ORIENTED_EDGE('',*,*,#1321,.T.);
#1353=ORIENTED_EDGE('',*,*,#1352,.F.);
#1355=ORIENTED_EDGE('',*,*,#1354,.T.);
#1357=ORIENTED_EDGE('',*,*,#1356,.T.);
#1358=ORIENTED_EDGE('',*,*,#967,.F.);
#1359=EDGE_LOOP('',(#1351,#1353,#1355,#1357,#1358));
#1360=FACE_OUTER_BOUND('',#1359,.F.);
#1361=ADVANCED_FACE('',(#1360),#1350,.T.);
#1362=CARTESIAN_POINT('',(1.5E0,0.E0,4.65E0));
#1363=DIRECTION('',(1.E0,0.E0,0.E0));
#1364=DIRECTION('',(0.E0,0.E0,-1.E0));
#1365=AXIS2_PLACEMENT_3D('',#1362,#1363,#1364);
#1366=PLANE('',#1365);
#1367=ORIENTED_EDGE('',*,*,#1326,.T.);
#1369=ORIENTED_EDGE('',*,*,#1368,.F.);
#1371=ORIENTED_EDGE('',*,*,#1370,.T.);
#1372=ORIENTED_EDGE('',*,*,#1352,.T.);
#1373=EDGE_LOOP('',(#1367,#1369,#1371,#1372));
#1374=FACE_OUTER_BOUND('',#1373,.F.);
#1375=ADVANCED_FACE('',(#1374),#1366,.T.);
#1376=CARTESIAN_POINT('',(1.5E0,0.E0,4.35E0));
#1377=DIRECTION('',(0.E0,0.E0,-1.E0));
#1378=DIRECTION('',(-1.E0,0.E0,0.E0));
#1379=AXIS2_PLACEMENT_3D('',#1376,#1377,#1378);
#1380=PLANE('',#1379);
#1381=ORIENTED_EDGE('',*,*,#1324,.T.);
#1382=ORIENTED_EDGE('',*,*,#971,.T.);
#1384=ORIENTED_EDGE('',*,*,#1383,.F.);
#1386=ORIENTED_EDGE('',*,*,#1385,.T.);
#1387=ORIENTED_EDGE('',*,*,#1368,.T.);
#1388=EDGE_LOOP('',(#1381,#1382,#1384,#1386,#1387));
#1389=FACE_OUTER_BOUND('',#1388,.F.);
#1390=ADVANCED_FACE('',(#1389),#1380,.T.);
#1391=CARTESIAN_POINT('',(4.E-1,0.E0,4.35E0));
#1392=DIRECTION('',(-1.E0,0.E0,0.E0));
#1393=DIRECTION('',(0.E0,0.E0,1.E0));
#1394=AXIS2_PLACEMENT_3D('',#1391,#1392,#1393);
#1395=PLANE('',#1394);
#1396=ORIENTED_EDGE('',*,*,#1356,.F.);
#1398=ORIENTED_EDGE('',*,*,#1397,.T.);
#1399=ORIENTED_EDGE('',*,*,#1383,.T.);
#1400=ORIENTED_EDGE('',*,*,#969,.T.);
#1401=EDGE_LOOP('',(#1396,#1398,#1399,#1400));
#1402=FACE_OUTER_BOUND('',#1401,.F.);
#1403=ADVANCED_FACE('',(#1402),#1395,.T.);
#1404=CARTESIAN_POINT('',(0.E0,-1.5E-1,0.E0));
#1405=DIRECTION('',(0.E0,1.E0,0.E0));
#1406=DIRECTION('',(1.E0,0.E0,0.E0));
#1407=AXIS2_PLACEMENT_3D('',#1404,#1405,#1406);
#1408=PLANE('',#1407);
#1409=ORIENTED_EDGE('',*,*,#1354,.F.);
#1410=ORIENTED_EDGE('',*,*,#1370,.F.);
#1411=ORIENTED_EDGE('',*,*,#1385,.F.);
#1412=ORIENTED_EDGE('',*,*,#1397,.F.);
#1413=EDGE_LOOP('',(#1409,#1410,#1411,#1412));
#1414=FACE_OUTER_BOUND('',#1413,.F.);
#1415=ADVANCED_FACE('',(#1414),#1408,.F.);
#1416=CARTESIAN_POINT('',(0.E0,-1.5E-1,0.E0));
#1417=DIRECTION('',(0.E0,1.E0,0.E0));
#1418=DIRECTION('',(1.E0,0.E0,0.E0));
#1419=AXIS2_PLACEMENT_3D('',#1416,#1417,#1418);
#1420=PLANE('',#1419);
#1422=ORIENTED_EDGE('',*,*,#1421,.F.);
#1424=ORIENTED_EDGE('',*,*,#1423,.F.);
#1426=ORIENTED_EDGE('',*,*,#1425,.F.);
#1428=ORIENTED_EDGE('',*,*,#1427,.F.);
#1429=EDGE_LOOP('',(#1422,#1424,#1426,#1428));
#1430=FACE_OUTER_BOUND('',#1429,.F.);
#1431=ADVANCED_FACE('',(#1430),#1420,.F.);
#1432=CARTESIAN_POINT('',(-4.E-1,0.E0,3.65E0));
#1433=DIRECTION('',(1.E0,0.E0,0.E0));
#1434=DIRECTION('',(0.E0,0.E0,-1.E0));
#1435=AXIS2_PLACEMENT_3D('',#1432,#1433,#1434);
#1436=PLANE('',#1435);
#1438=ORIENTED_EDGE('',*,*,#1437,.T.);
#1439=ORIENTED_EDGE('',*,*,#957,.T.);
#1441=ORIENTED_EDGE('',*,*,#1440,.F.);
#1442=ORIENTED_EDGE('',*,*,#1421,.T.);
#1443=EDGE_LOOP('',(#1438,#1439,#1441,#1442));
#1444=FACE_OUTER_BOUND('',#1443,.F.);
#1445=ADVANCED_FACE('',(#1444),#1436,.T.);
#1446=CARTESIAN_POINT('',(-1.5E0,0.E0,3.65E0));
#1447=DIRECTION('',(0.E0,0.E0,1.E0));
#1448=DIRECTION('',(1.E0,0.E0,0.E0));
#1449=AXIS2_PLACEMENT_3D('',#1446,#1447,#1448);
#1450=PLANE('',#1449);
#1451=ORIENTED_EDGE('',*,*,#1339,.T.);
#1452=ORIENTED_EDGE('',*,*,#959,.T.);
#1453=ORIENTED_EDGE('',*,*,#1437,.F.);
#1454=ORIENTED_EDGE('',*,*,#1427,.T.);
#1456=ORIENTED_EDGE('',*,*,#1455,.T.);
#1457=EDGE_LOOP('',(#1451,#1452,#1453,#1454,#1456));
#1458=FACE_OUTER_BOUND('',#1457,.F.);
#1459=ADVANCED_FACE('',(#1458),#1450,.T.);
#1460=CARTESIAN_POINT('',(-1.5E0,0.E0,3.35E0));
#1461=DIRECTION('',(-1.E0,0.E0,0.E0));
#1462=DIRECTION('',(0.E0,0.E0,1.E0));
#1463=AXIS2_PLACEMENT_3D('',#1460,#1461,#1462);
#1464=PLANE('',#1463);
#1465=ORIENTED_EDGE('',*,*,#1341,.T.);
#1466=ORIENTED_EDGE('',*,*,#1455,.F.);
#1467=ORIENTED_EDGE('',*,*,#1425,.T.);
#1469=ORIENTED_EDGE('',*,*,#1468,.T.);
#1470=EDGE_LOOP('',(#1465,#1466,#1467,#1469));
#1471=FACE_OUTER_BOUND('',#1470,.F.);
#1472=ADVANCED_FACE('',(#1471),#1464,.T.);
#1473=CARTESIAN_POINT('',(-4.E-1,0.E0,3.35E0));
#1474=DIRECTION('',(0.E0,0.E0,-1.E0));
#1475=DIRECTION('',(-1.E0,0.E0,0.E0));
#1476=AXIS2_PLACEMENT_3D('',#1473,#1474,#1475);
#1477=PLANE('',#1476);
#1478=ORIENTED_EDGE('',*,*,#1336,.T.);
#1479=ORIENTED_EDGE('',*,*,#1468,.F.);
#1480=ORIENTED_EDGE('',*,*,#1423,.T.);
#1481=ORIENTED_EDGE('',*,*,#1440,.T.);
#1482=ORIENTED_EDGE('',*,*,#955,.F.);
#1483=EDGE_LOOP('',(#1478,#1479,#1480,#1481,#1482));
#1484=FACE_OUTER_BOUND('',#1483,.F.);
#1485=ADVANCED_FACE('',(#1484),#1477,.T.);
#1486=CARTESIAN_POINT('',(0.E0,0.E0,0.E0));
#1487=DIRECTION('',(0.E0,1.E0,0.E0));
#1488=DIRECTION('',(1.E0,0.E0,0.E0));
#1489=AXIS2_PLACEMENT_3D('',#1486,#1487,#1488);
#1490=PLANE('',#1489);
#1491=ORIENTED_EDGE('',*,*,#1063,.T.);
#1493=ORIENTED_EDGE('',*,*,#1492,.F.);
#1495=ORIENTED_EDGE('',*,*,#1494,.F.);
#1497=ORIENTED_EDGE('',*,*,#1496,.F.);
#1498=EDGE_LOOP('',(#1491,#1493,#1495,#1497));
#1499=FACE_OUTER_BOUND('',#1498,.F.);
#1500=ADVANCED_FACE('',(#1499),#1490,.T.);
#1501=CARTESIAN_POINT('',(0.E0,0.E0,0.E0));
#1502=DIRECTION('',(0.E0,1.E0,0.E0));
#1503=DIRECTION('',(1.E0,0.E0,0.E0));
#1504=AXIS2_PLACEMENT_3D('',#1501,#1502,#1503);
#1505=PLANE('',#1504);
#1506=ORIENTED_EDGE('',*,*,#1267,.F.);
#1508=ORIENTED_EDGE('',*,*,#1507,.F.);
#1510=ORIENTED_EDGE('',*,*,#1509,.F.);
#1512=ORIENTED_EDGE('',*,*,#1511,.F.);
#1513=EDGE_LOOP('',(#1506,#1508,#1510,#1512));
#1514=FACE_OUTER_BOUND('',#1513,.F.);
#1515=ADVANCED_FACE('',(#1514),#1505,.T.);
#1516=CARTESIAN_POINT('',(1.5E0,0.E0,2.35E0));
#1517=DIRECTION('',(0.E0,0.E0,-1.E0));
#1518=DIRECTION('',(-1.E0,0.E0,0.E0));
#1519=AXIS2_PLACEMENT_3D('',#1516,#1517,#1518);
#1520=PLANE('',#1519);
#1521=ORIENTED_EDGE('',*,*,#979,.T.);
#1523=ORIENTED_EDGE('',*,*,#1522,.T.);
#1525=ORIENTED_EDGE('',*,*,#1524,.F.);
#1527=ORIENTED_EDGE('',*,*,#1526,.F.);
#1528=ORIENTED_EDGE('',*,*,#1492,.T.);
#1529=EDGE_LOOP('',(#1521,#1523,#1525,#1527,#1528));
#1530=FACE_OUTER_BOUND('',#1529,.F.);
#1531=ADVANCED_FACE('',(#1530),#1520,.T.);
#1532=CARTESIAN_POINT('',(4.E-1,0.E0,2.35E0));
#1533=DIRECTION('',(-1.E0,0.E0,0.E0));
#1534=DIRECTION('',(0.E0,0.E0,1.E0));
#1535=AXIS2_PLACEMENT_3D('',#1532,#1533,#1534);
#1536=PLANE('',#1535);
#1537=ORIENTED_EDGE('',*,*,#977,.T.);
#1539=ORIENTED_EDGE('',*,*,#1538,.T.);
#1541=ORIENTED_EDGE('',*,*,#1540,.F.);
#1542=ORIENTED_EDGE('',*,*,#1522,.F.);
#1543=EDGE_LOOP('',(#1537,#1539,#1541,#1542));
#1544=FACE_OUTER_BOUND('',#1543,.F.);
#1545=ADVANCED_FACE('',(#1544),#1536,.T.);
#1546=CARTESIAN_POINT('',(4.E-1,0.E0,2.65E0));
#1547=DIRECTION('',(0.E0,0.E0,1.E0));
#1548=DIRECTION('',(1.E0,0.E0,0.E0));
#1549=AXIS2_PLACEMENT_3D('',#1546,#1547,#1548);
#1550=PLANE('',#1549);
#1551=ORIENTED_EDGE('',*,*,#975,.F.);
#1552=ORIENTED_EDGE('',*,*,#1496,.T.);
#1554=ORIENTED_EDGE('',*,*,#1553,.T.);
#1556=ORIENTED_EDGE('',*,*,#1555,.F.);
#1557=ORIENTED_EDGE('',*,*,#1538,.F.);
#1558=EDGE_LOOP('',(#1551,#1552,#1554,#1556,#1557));
#1559=FACE_OUTER_BOUND('',#1558,.F.);
#1560=ADVANCED_FACE('',(#1559),#1550,.T.);
#1561=CARTESIAN_POINT('',(1.5E0,0.E0,2.65E0));
#1562=DIRECTION('',(1.E0,0.E0,0.E0));
#1563=DIRECTION('',(0.E0,0.E0,-1.E0));
#1564=AXIS2_PLACEMENT_3D('',#1561,#1562,#1563);
#1565=PLANE('',#1564);
#1566=ORIENTED_EDGE('',*,*,#1494,.T.);
#1567=ORIENTED_EDGE('',*,*,#1526,.T.);
#1569=ORIENTED_EDGE('',*,*,#1568,.F.);
#1570=ORIENTED_EDGE('',*,*,#1553,.F.);
#1571=EDGE_LOOP('',(#1566,#1567,#1569,#1570));
#1572=FACE_OUTER_BOUND('',#1571,.F.);
#1573=ADVANCED_FACE('',(#1572),#1565,.T.);
#1574=CARTESIAN_POINT('',(0.E0,-1.5E-1,0.E0));
#1575=DIRECTION('',(0.E0,1.E0,0.E0));
#1576=DIRECTION('',(1.E0,0.E0,0.E0));
#1577=AXIS2_PLACEMENT_3D('',#1574,#1575,#1576);
#1578=PLANE('',#1577);
#1579=ORIENTED_EDGE('',*,*,#1555,.T.);
#1580=ORIENTED_EDGE('',*,*,#1568,.T.);
#1581=ORIENTED_EDGE('',*,*,#1524,.T.);
#1582=ORIENTED_EDGE('',*,*,#1540,.T.);
#1583=EDGE_LOOP('',(#1579,#1580,#1581,#1582));
#1584=FACE_OUTER_BOUND('',#1583,.F.);
#1585=ADVANCED_FACE('',(#1584),#1578,.F.);
#1586=CARTESIAN_POINT('',(0.E0,-1.5E-1,0.E0));
#1587=DIRECTION('',(0.E0,1.E0,0.E0));
#1588=DIRECTION('',(1.E0,0.E0,0.E0));
#1589=AXIS2_PLACEMENT_3D('',#1586,#1587,#1588);
#1590=PLANE('',#1589);
#1592=ORIENTED_EDGE('',*,*,#1591,.T.);
#1594=ORIENTED_EDGE('',*,*,#1593,.T.);
#1596=ORIENTED_EDGE('',*,*,#1595,.T.);
#1598=ORIENTED_EDGE('',*,*,#1597,.T.);
#1599=EDGE_LOOP('',(#1592,#1594,#1596,#1598));
#1600=FACE_OUTER_BOUND('',#1599,.F.);
#1601=ADVANCED_FACE('',(#1600),#1590,.F.);
#1602=CARTESIAN_POINT('',(-4.E-1,0.E0,1.65E0));
#1603=DIRECTION('',(1.E0,0.E0,0.E0));
#1604=DIRECTION('',(0.E0,0.E0,-1.E0));
#1605=AXIS2_PLACEMENT_3D('',#1602,#1603,#1604);
#1606=PLANE('',#1605);
#1607=ORIENTED_EDGE('',*,*,#949,.T.);
#1609=ORIENTED_EDGE('',*,*,#1608,.T.);
#1610=ORIENTED_EDGE('',*,*,#1591,.F.);
#1612=ORIENTED_EDGE('',*,*,#1611,.F.);
#1613=EDGE_LOOP('',(#1607,#1609,#1610,#1612));
#1614=FACE_OUTER_BOUND('',#1613,.F.);
#1615=ADVANCED_FACE('',(#1614),#1606,.T.);
#1616=CARTESIAN_POINT('',(-4.E-1,0.E0,1.35E0));
#1617=DIRECTION('',(0.E0,0.E0,-1.E0));
#1618=DIRECTION('',(-1.E0,0.E0,0.E0));
#1619=AXIS2_PLACEMENT_3D('',#1616,#1617,#1618);
#1620=PLANE('',#1619);
#1621=ORIENTED_EDGE('',*,*,#947,.F.);
#1622=ORIENTED_EDGE('',*,*,#1511,.T.);
#1624=ORIENTED_EDGE('',*,*,#1623,.T.);
#1625=ORIENTED_EDGE('',*,*,#1593,.F.);
#1626=ORIENTED_EDGE('',*,*,#1608,.F.);
#1627=EDGE_LOOP('',(#1621,#1622,#1624,#1625,#1626));
#1628=FACE_OUTER_BOUND('',#1627,.F.);
#1629=ADVANCED_FACE('',(#1628),#1620,.T.);
#1630=CARTESIAN_POINT('',(-1.5E0,0.E0,1.35E0));
#1631=DIRECTION('',(-1.E0,0.E0,0.E0));
#1632=DIRECTION('',(0.E0,0.E0,1.E0));
#1633=AXIS2_PLACEMENT_3D('',#1630,#1631,#1632);
#1634=PLANE('',#1633);
#1635=ORIENTED_EDGE('',*,*,#1509,.T.);
#1637=ORIENTED_EDGE('',*,*,#1636,.T.);
#1638=ORIENTED_EDGE('',*,*,#1595,.F.);
#1639=ORIENTED_EDGE('',*,*,#1623,.F.);
#1640=EDGE_LOOP('',(#1635,#1637,#1638,#1639));
#1641=FACE_OUTER_BOUND('',#1640,.F.);
#1642=ADVANCED_FACE('',(#1641),#1634,.T.);
#1643=CARTESIAN_POINT('',(-1.5E0,0.E0,1.65E0));
#1644=DIRECTION('',(0.E0,0.E0,1.E0));
#1645=DIRECTION('',(1.E0,0.E0,0.E0));
#1646=AXIS2_PLACEMENT_3D('',#1643,#1644,#1645);
#1647=PLANE('',#1646);
#1648=ORIENTED_EDGE('',*,*,#951,.T.);
#1649=ORIENTED_EDGE('',*,*,#1611,.T.);
#1650=ORIENTED_EDGE('',*,*,#1597,.F.);
#1651=ORIENTED_EDGE('',*,*,#1636,.F.);
#1652=ORIENTED_EDGE('',*,*,#1507,.T.);
#1653=EDGE_LOOP('',(#1648,#1649,#1650,#1651,#1652));
#1654=FACE_OUTER_BOUND('',#1653,.F.);
#1655=ADVANCED_FACE('',(#1654),#1647,.T.);
#1656=CARTESIAN_POINT('',(0.E0,0.E0,0.E0));
#1657=DIRECTION('',(0.E0,1.E0,0.E0));
#1658=DIRECTION('',(1.E0,0.E0,0.E0));
#1659=AXIS2_PLACEMENT_3D('',#1656,#1657,#1658);
#1660=PLANE('',#1659);
#1661=ORIENTED_EDGE('',*,*,#1060,.T.);
#1663=ORIENTED_EDGE('',*,*,#1662,.F.);
#1665=ORIENTED_EDGE('',*,*,#1664,.F.);
#1667=ORIENTED_EDGE('',*,*,#1666,.F.);
#1668=EDGE_LOOP('',(#1661,#1663,#1665,#1667));
#1669=FACE_OUTER_BOUND('',#1668,.F.);
#1670=ADVANCED_FACE('',(#1669),#1660,.T.);
#1671=CARTESIAN_POINT('',(0.E0,0.E0,0.E0));
#1672=DIRECTION('',(0.E0,1.E0,0.E0));
#1673=DIRECTION('',(1.E0,0.E0,0.E0));
#1674=AXIS2_PLACEMENT_3D('',#1671,#1672,#1673);
#1675=PLANE('',#1674);
#1676=ORIENTED_EDGE('',*,*,#1270,.F.);
#1678=ORIENTED_EDGE('',*,*,#1677,.F.);
#1680=ORIENTED_EDGE('',*,*,#1679,.F.);
#1682=ORIENTED_EDGE('',*,*,#1681,.F.);
#1683=EDGE_LOOP('',(#1676,#1678,#1680,#1682));
#1684=FACE_OUTER_BOUND('',#1683,.F.);
#1685=ADVANCED_FACE('',(#1684),#1675,.T.);
#1686=CARTESIAN_POINT('',(1.5E0,0.E0,3.5E-1));
#1687=DIRECTION('',(0.E0,0.E0,-1.E0));
#1688=DIRECTION('',(-1.E0,0.E0,0.E0));
#1689=AXIS2_PLACEMENT_3D('',#1686,#1687,#1688);
#1690=PLANE('',#1689);
#1691=ORIENTED_EDGE('',*,*,#987,.T.);
#1693=ORIENTED_EDGE('',*,*,#1692,.T.);
#1695=ORIENTED_EDGE('',*,*,#1694,.F.);
#1697=ORIENTED_EDGE('',*,*,#1696,.F.);
#1698=ORIENTED_EDGE('',*,*,#1662,.T.);
#1699=EDGE_LOOP('',(#1691,#1693,#1695,#1697,#1698));
#1700=FACE_OUTER_BOUND('',#1699,.F.);
#1701=ADVANCED_FACE('',(#1700),#1690,.T.);
#1702=CARTESIAN_POINT('',(4.E-1,0.E0,3.5E-1));
#1703=DIRECTION('',(-1.E0,0.E0,0.E0));
#1704=DIRECTION('',(0.E0,0.E0,1.E0));
#1705=AXIS2_PLACEMENT_3D('',#1702,#1703,#1704);
#1706=PLANE('',#1705);
#1707=ORIENTED_EDGE('',*,*,#985,.T.);
#1709=ORIENTED_EDGE('',*,*,#1708,.T.);
#1711=ORIENTED_EDGE('',*,*,#1710,.F.);
#1712=ORIENTED_EDGE('',*,*,#1692,.F.);
#1713=EDGE_LOOP('',(#1707,#1709,#1711,#1712));
#1714=FACE_OUTER_BOUND('',#1713,.F.);
#1715=ADVANCED_FACE('',(#1714),#1706,.T.);
#1716=CARTESIAN_POINT('',(4.E-1,0.E0,6.5E-1));
#1717=DIRECTION('',(0.E0,0.E0,1.E0));
#1718=DIRECTION('',(1.E0,0.E0,0.E0));
#1719=AXIS2_PLACEMENT_3D('',#1716,#1717,#1718);
#1720=PLANE('',#1719);
#1721=ORIENTED_EDGE('',*,*,#983,.F.);
#1722=ORIENTED_EDGE('',*,*,#1666,.T.);
#1724=ORIENTED_EDGE('',*,*,#1723,.T.);
#1726=ORIENTED_EDGE('',*,*,#1725,.F.);
#1727=ORIENTED_EDGE('',*,*,#1708,.F.);
#1728=EDGE_LOOP('',(#1721,#1722,#1724,#1726,#1727));
#1729=FACE_OUTER_BOUND('',#1728,.F.);
#1730=ADVANCED_FACE('',(#1729),#1720,.T.);
#1731=CARTESIAN_POINT('',(1.5E0,0.E0,6.5E-1));
#1732=DIRECTION('',(1.E0,0.E0,0.E0));
#1733=DIRECTION('',(0.E0,0.E0,-1.E0));
#1734=AXIS2_PLACEMENT_3D('',#1731,#1732,#1733);
#1735=PLANE('',#1734);
#1736=ORIENTED_EDGE('',*,*,#1664,.T.);
#1737=ORIENTED_EDGE('',*,*,#1696,.T.);
#1739=ORIENTED_EDGE('',*,*,#1738,.F.);
#1740=ORIENTED_EDGE('',*,*,#1723,.F.);
#1741=EDGE_LOOP('',(#1736,#1737,#1739,#1740));
#1742=FACE_OUTER_BOUND('',#1741,.F.);
#1743=ADVANCED_FACE('',(#1742),#1735,.T.);
#1744=CARTESIAN_POINT('',(0.E0,-1.5E-1,0.E0));
#1745=DIRECTION('',(0.E0,1.E0,0.E0));
#1746=DIRECTION('',(1.E0,0.E0,0.E0));
#1747=AXIS2_PLACEMENT_3D('',#1744,#1745,#1746);
#1748=PLANE('',#1747);
#1749=ORIENTED_EDGE('',*,*,#1725,.T.);
#1750=ORIENTED_EDGE('',*,*,#1738,.T.);
#1751=ORIENTED_EDGE('',*,*,#1694,.T.);
#1752=ORIENTED_EDGE('',*,*,#1710,.T.);
#1753=EDGE_LOOP('',(#1749,#1750,#1751,#1752));
#1754=FACE_OUTER_BOUND('',#1753,.F.);
#1755=ADVANCED_FACE('',(#1754),#1748,.F.);
#1756=CARTESIAN_POINT('',(0.E0,-1.5E-1,0.E0));
#1757=DIRECTION('',(0.E0,1.E0,0.E0));
#1758=DIRECTION('',(1.E0,0.E0,0.E0));
#1759=AXIS2_PLACEMENT_3D('',#1756,#1757,#1758);
#1760=PLANE('',#1759);
#1762=ORIENTED_EDGE('',*,*,#1761,.T.);
#1764=ORIENTED_EDGE('',*,*,#1763,.T.);
#1766=ORIENTED_EDGE('',*,*,#1765,.T.);
#1768=ORIENTED_EDGE('',*,*,#1767,.T.);
#1769=EDGE_LOOP('',(#1762,#1764,#1766,#1768));
#1770=FACE_OUTER_BOUND('',#1769,.F.);
#1771=ADVANCED_FACE('',(#1770),#1760,.F.);
#1772=CARTESIAN_POINT('',(-4.E-1,0.E0,-3.5E-1));
#1773=DIRECTION('',(1.E0,0.E0,0.E0));
#1774=DIRECTION('',(0.E0,0.E0,-1.E0));
#1775=AXIS2_PLACEMENT_3D('',#1772,#1773,#1774);
#1776=PLANE('',#1775);
#1777=ORIENTED_EDGE('',*,*,#941,.T.);
#1779=ORIENTED_EDGE('',*,*,#1778,.T.);
#1780=ORIENTED_EDGE('',*,*,#1761,.F.);
#1782=ORIENTED_EDGE('',*,*,#1781,.F.);
#1783=EDGE_LOOP('',(#1777,#1779,#1780,#1782));
#1784=FACE_OUTER_BOUND('',#1783,.F.);
#1785=ADVANCED_FACE('',(#1784),#1776,.T.);
#1786=CARTESIAN_POINT('',(-4.E-1,0.E0,-6.5E-1));
#1787=DIRECTION('',(0.E0,0.E0,-1.E0));
#1788=DIRECTION('',(-1.E0,0.E0,0.E0));
#1789=AXIS2_PLACEMENT_3D('',#1786,#1787,#1788);
#1790=PLANE('',#1789);
#1791=ORIENTED_EDGE('',*,*,#939,.F.);
#1792=ORIENTED_EDGE('',*,*,#1681,.T.);
#1794=ORIENTED_EDGE('',*,*,#1793,.T.);
#1795=ORIENTED_EDGE('',*,*,#1763,.F.);
#1796=ORIENTED_EDGE('',*,*,#1778,.F.);
#1797=EDGE_LOOP('',(#1791,#1792,#1794,#1795,#1796));
#1798=FACE_OUTER_BOUND('',#1797,.F.);
#1799=ADVANCED_FACE('',(#1798),#1790,.T.);
#1800=CARTESIAN_POINT('',(-1.5E0,0.E0,-6.5E-1));
#1801=DIRECTION('',(-1.E0,0.E0,0.E0));
#1802=DIRECTION('',(0.E0,0.E0,1.E0));
#1803=AXIS2_PLACEMENT_3D('',#1800,#1801,#1802);
#1804=PLANE('',#1803);
#1805=ORIENTED_EDGE('',*,*,#1679,.T.);
#1807=ORIENTED_EDGE('',*,*,#1806,.T.);
#1808=ORIENTED_EDGE('',*,*,#1765,.F.);
#1809=ORIENTED_EDGE('',*,*,#1793,.F.);
#1810=EDGE_LOOP('',(#1805,#1807,#1808,#1809));
#1811=FACE_OUTER_BOUND('',#1810,.F.);
#1812=ADVANCED_FACE('',(#1811),#1804,.T.);
#1813=CARTESIAN_POINT('',(-1.5E0,0.E0,-3.5E-1));
#1814=DIRECTION('',(0.E0,0.E0,1.E0));
#1815=DIRECTION('',(1.E0,0.E0,0.E0));
#1816=AXIS2_PLACEMENT_3D('',#1813,#1814,#1815);
#1817=PLANE('',#1816);
#1818=ORIENTED_EDGE('',*,*,#943,.T.);
#1819=ORIENTED_EDGE('',*,*,#1781,.T.);
#1820=ORIENTED_EDGE('',*,*,#1767,.F.);
#1821=ORIENTED_EDGE('',*,*,#1806,.F.);
#1822=ORIENTED_EDGE('',*,*,#1677,.T.);
#1823=EDGE_LOOP('',(#1818,#1819,#1820,#1821,#1822));
#1824=FACE_OUTER_BOUND('',#1823,.F.);
#1825=ADVANCED_FACE('',(#1824),#1817,.T.);
#1826=CARTESIAN_POINT('',(1.5E0,0.E0,-3.65E0));
#1827=DIRECTION('',(0.E0,0.E0,-1.E0));
#1828=DIRECTION('',(-1.E0,0.E0,0.E0));
#1829=AXIS2_PLACEMENT_3D('',#1826,#1827,#1828);
#1830=PLANE('',#1829);
#1831=ORIENTED_EDGE('',*,*,#915,.T.);
#1833=ORIENTED_EDGE('',*,*,#1832,.T.);
#1835=ORIENTED_EDGE('',*,*,#1834,.F.);
#1837=ORIENTED_EDGE('',*,*,#1836,.F.);
#1838=ORIENTED_EDGE('',*,*,#1026,.T.);
#1839=EDGE_LOOP('',(#1831,#1833,#1835,#1837,#1838));
#1840=FACE_OUTER_BOUND('',#1839,.F.);
#1841=ADVANCED_FACE('',(#1840),#1830,.T.);
#1842=CARTESIAN_POINT('',(4.E-1,0.E0,-3.65E0));
#1843=DIRECTION('',(-1.E0,0.E0,0.E0));
#1844=DIRECTION('',(0.E0,0.E0,1.E0));
#1845=AXIS2_PLACEMENT_3D('',#1842,#1843,#1844);
#1846=PLANE('',#1845);
#1847=ORIENTED_EDGE('',*,*,#913,.T.);
#1848=ORIENTED_EDGE('',*,*,#1014,.T.);
#1850=ORIENTED_EDGE('',*,*,#1849,.F.);
#1851=ORIENTED_EDGE('',*,*,#1832,.F.);
#1852=EDGE_LOOP('',(#1847,#1848,#1850,#1851));
#1853=FACE_OUTER_BOUND('',#1852,.F.);
#1854=ADVANCED_FACE('',(#1853),#1846,.T.);
#1855=CARTESIAN_POINT('',(0.E0,-1.5E-1,0.E0));
#1856=DIRECTION('',(0.E0,1.E0,0.E0));
#1857=DIRECTION('',(1.E0,0.E0,0.E0));
#1858=AXIS2_PLACEMENT_3D('',#1855,#1856,#1857);
#1859=PLANE('',#1858);
#1860=ORIENTED_EDGE('',*,*,#1012,.T.);
#1862=ORIENTED_EDGE('',*,*,#1861,.T.);
#1863=ORIENTED_EDGE('',*,*,#1834,.T.);
#1864=ORIENTED_EDGE('',*,*,#1849,.T.);
#1865=EDGE_LOOP('',(#1860,#1862,#1863,#1864));
#1866=FACE_OUTER_BOUND('',#1865,.F.);
#1867=ADVANCED_FACE('',(#1866),#1859,.F.);
#1868=CARTESIAN_POINT('',(0.E0,-1.5E-1,0.E0));
#1869=DIRECTION('',(0.E0,1.E0,0.E0));
#1870=DIRECTION('',(1.E0,0.E0,0.E0));
#1871=AXIS2_PLACEMENT_3D('',#1868,#1869,#1870);
#1872=PLANE('',#1871);
#1874=ORIENTED_EDGE('',*,*,#1873,.T.);
#1876=ORIENTED_EDGE('',*,*,#1875,.T.);
#1878=ORIENTED_EDGE('',*,*,#1877,.T.);
#1880=ORIENTED_EDGE('',*,*,#1879,.T.);
#1881=EDGE_LOOP('',(#1874,#1876,#1878,#1880));
#1882=FACE_OUTER_BOUND('',#1881,.F.);
#1883=ADVANCED_FACE('',(#1882),#1872,.F.);
#1884=CARTESIAN_POINT('',(1.5E0,0.E0,-3.35E0));
#1885=DIRECTION('',(1.E0,0.E0,0.E0));
#1886=DIRECTION('',(0.E0,0.E0,-1.E0));
#1887=AXIS2_PLACEMENT_3D('',#1884,#1885,#1886);
#1888=PLANE('',#1887);
#1889=ORIENTED_EDGE('',*,*,#1028,.T.);
#1890=ORIENTED_EDGE('',*,*,#1836,.T.);
#1891=ORIENTED_EDGE('',*,*,#1861,.F.);
#1892=ORIENTED_EDGE('',*,*,#1010,.F.);
#1893=EDGE_LOOP('',(#1889,#1890,#1891,#1892));
#1894=FACE_OUTER_BOUND('',#1893,.F.);
#1895=ADVANCED_FACE('',(#1894),#1888,.T.);
#1896=CARTESIAN_POINT('',(-4.E-1,0.E0,-4.35E0));
#1897=DIRECTION('',(1.E0,0.E0,0.E0));
#1898=DIRECTION('',(0.E0,0.E0,-1.E0));
#1899=AXIS2_PLACEMENT_3D('',#1896,#1897,#1898);
#1900=PLANE('',#1899);
#1901=ORIENTED_EDGE('',*,*,#925,.T.);
#1903=ORIENTED_EDGE('',*,*,#1902,.T.);
#1904=ORIENTED_EDGE('',*,*,#1873,.F.);
#1906=ORIENTED_EDGE('',*,*,#1905,.F.);
#1907=EDGE_LOOP('',(#1901,#1903,#1904,#1906));
#1908=FACE_OUTER_BOUND('',#1907,.F.);
#1909=ADVANCED_FACE('',(#1908),#1900,.T.);
#1910=CARTESIAN_POINT('',(-4.E-1,0.E0,-4.65E0));
#1911=DIRECTION('',(0.E0,0.E0,-1.E0));
#1912=DIRECTION('',(-1.E0,0.E0,0.E0));
#1913=AXIS2_PLACEMENT_3D('',#1910,#1911,#1912);
#1914=PLANE('',#1913);
#1915=ORIENTED_EDGE('',*,*,#923,.F.);
#1916=ORIENTED_EDGE('',*,*,#1045,.T.);
#1918=ORIENTED_EDGE('',*,*,#1917,.T.);
#1919=ORIENTED_EDGE('',*,*,#1875,.F.);
#1920=ORIENTED_EDGE('',*,*,#1902,.F.);
#1921=EDGE_LOOP('',(#1915,#1916,#1918,#1919,#1920));
#1922=FACE_OUTER_BOUND('',#1921,.F.);
#1923=ADVANCED_FACE('',(#1922),#1914,.T.);
#1924=CARTESIAN_POINT('',(-1.5E0,0.E0,-4.65E0));
#1925=DIRECTION('',(-1.E0,0.E0,0.E0));
#1926=DIRECTION('',(0.E0,0.E0,1.E0));
#1927=AXIS2_PLACEMENT_3D('',#1924,#1925,#1926);
#1928=PLANE('',#1927);
#1929=ORIENTED_EDGE('',*,*,#1043,.T.);
#1931=ORIENTED_EDGE('',*,*,#1930,.T.);
#1932=ORIENTED_EDGE('',*,*,#1877,.F.);
#1933=ORIENTED_EDGE('',*,*,#1917,.F.);
#1934=EDGE_LOOP('',(#1929,#1931,#1932,#1933));
#1935=FACE_OUTER_BOUND('',#1934,.F.);
#1936=ADVANCED_FACE('',(#1935),#1928,.T.);
#1937=CARTESIAN_POINT('',(-1.5E0,0.E0,-4.35E0));
#1938=DIRECTION('',(0.E0,0.E0,1.E0));
#1939=DIRECTION('',(1.E0,0.E0,0.E0));
#1940=AXIS2_PLACEMENT_3D('',#1937,#1938,#1939);
#1941=PLANE('',#1940);
#1942=ORIENTED_EDGE('',*,*,#927,.T.);
#1943=ORIENTED_EDGE('',*,*,#1905,.T.);
#1944=ORIENTED_EDGE('',*,*,#1879,.F.);
#1945=ORIENTED_EDGE('',*,*,#1930,.F.);
#1946=ORIENTED_EDGE('',*,*,#1041,.T.);
#1947=EDGE_LOOP('',(#1942,#1943,#1944,#1945,#1946));
#1948=FACE_OUTER_BOUND('',#1947,.F.);
#1949=ADVANCED_FACE('',(#1948),#1941,.T.);
#1950=CLOSED_SHELL('',(#1001,#1018,#1033,#1049,#1078,#1093,#1109,#1125,#1139,
#1154,#1167,#1179,#1195,#1209,#1223,#1236,#1249,#1277,#1290,#1303,#1315,#1330,
#1345,#1361,#1375,#1390,#1403,#1415,#1431,#1445,#1459,#1472,#1485,#1500,#1515,
#1531,#1545,#1560,#1573,#1585,#1601,#1615,#1629,#1642,#1655,#1670,#1685,#1701,
#1715,#1730,#1743,#1755,#1771,#1785,#1799,#1812,#1825,#1841,#1854,#1867,#1883,
#1895,#1909,#1923,#1936,#1949));
#1951=MANIFOLD_SOLID_BREP('',#1950);
#1952=(LENGTH_UNIT()NAMED_UNIT(*)SI_UNIT(.MILLI.,.METRE.));
#1953=DIMENSIONAL_EXPONENTS(0.E0,0.E0,0.E0,0.E0,0.E0,0.E0,0.E0);
#1954=(NAMED_UNIT(*)PLANE_ANGLE_UNIT()SI_UNIT($,.RADIAN.));
#1955=PLANE_ANGLE_MEASURE_WITH_UNIT(PLANE_ANGLE_MEASURE(1.745329251994E-2),
#1954);
#1956=(CONVERSION_BASED_UNIT('DEGREE',#1955)NAMED_UNIT(#1953)PLANE_ANGLE_UNIT(
));
#1957=(NAMED_UNIT(*)SI_UNIT($,.STERADIAN.)SOLID_ANGLE_UNIT());
#1958=UNCERTAINTY_MEASURE_WITH_UNIT(LENGTH_MEASURE(5.547637857129E-4),#1952,
'closure',
'Maximum model space distance between geometric entities at asserted connectivities');
#1959=(GEOMETRIC_REPRESENTATION_CONTEXT(3)GLOBAL_UNCERTAINTY_ASSIGNED_CONTEXT((
#1958))GLOBAL_UNIT_ASSIGNED_CONTEXT((#1952,#1956,#1957))REPRESENTATION_CONTEXT(
'ID1','3'));
#1961=APPLICATION_CONTEXT(
'CONFIGURATION CONTROLLED 3D DESIGNS OF MECHANICAL PARTS AND ASSEMBLIES');
#1962=APPLICATION_PROTOCOL_DEFINITION('international standard',
'config_control_design',1994,#1961);
#1963=DESIGN_CONTEXT('',#1961,'design');
#1964=MECHANICAL_CONTEXT('',#1961,'mechanical');
#1965=PRODUCT('10PIN-CONNECTOR_PRT','10PIN-CONNECTOR_PRT','NOT SPECIFIED',
(#1964));
#1966=PRODUCT_DEFINITION_FORMATION_WITH_SPECIFIED_SOURCE('1','LAST_VERSION',
#1965,.MADE.);
#1970=PRODUCT_CATEGORY('part','');
#1971=PRODUCT_RELATED_PRODUCT_CATEGORY('detail','',(#1965));
#1972=PRODUCT_CATEGORY_RELATIONSHIP('','',#1970,#1971);
#1973=SECURITY_CLASSIFICATION_LEVEL('unclassified');
#1974=SECURITY_CLASSIFICATION('','',#1973);
#1975=CC_DESIGN_SECURITY_CLASSIFICATION(#1974,(#1966));
#1976=APPROVAL_STATUS('approved');
#1977=APPROVAL(#1976,'');
#1978=CC_DESIGN_APPROVAL(#1977,(#1974,#1966,#1967));
#1979=CALENDAR_DATE(108,30,6);
#1980=COORDINATED_UNIVERSAL_TIME_OFFSET(3,0,.BEHIND.);
#1981=LOCAL_TIME(11,3,1.2E1,#1980);
#1982=DATE_AND_TIME(#1979,#1981);
#1983=APPROVAL_DATE_TIME(#1982,#1977);
#1984=DATE_TIME_ROLE('creation_date');
#1985=CC_DESIGN_DATE_AND_TIME_ASSIGNMENT(#1982,#1984,(#1967));
#1986=DATE_TIME_ROLE('classification_date');
#1987=CC_DESIGN_DATE_AND_TIME_ASSIGNMENT(#1982,#1986,(#1974));
#1988=PERSON('UNSPECIFIED','UNSPECIFIED',$,$,$,$);
#1989=ORGANIZATION('UNSPECIFIED','UNSPECIFIED','UNSPECIFIED');
#1990=PERSON_AND_ORGANIZATION(#1988,#1989);
#1991=APPROVAL_ROLE('approver');
#1992=APPROVAL_PERSON_ORGANIZATION(#1990,#1977,#1991);
#1993=PERSON_AND_ORGANIZATION_ROLE('creator');
#1994=CC_DESIGN_PERSON_AND_ORGANIZATION_ASSIGNMENT(#1990,#1993,(#1966,#1967));
#1995=PERSON_AND_ORGANIZATION_ROLE('design_supplier');
#1996=CC_DESIGN_PERSON_AND_ORGANIZATION_ASSIGNMENT(#1990,#1995,(#1966));
#1997=PERSON_AND_ORGANIZATION_ROLE('classification_officer');
#1998=CC_DESIGN_PERSON_AND_ORGANIZATION_ASSIGNMENT(#1990,#1997,(#1974));
#1999=PERSON_AND_ORGANIZATION_ROLE('design_owner');
#2000=CC_DESIGN_PERSON_AND_ORGANIZATION_ASSIGNMENT(#1990,#1999,(#1965));
#911=EDGE_CURVE('',#892,#893,#5,.T.);
#913=EDGE_CURVE('',#897,#893,#9,.T.);
#915=EDGE_CURVE('',#896,#897,#13,.T.);
#917=EDGE_CURVE('',#896,#696,#17,.T.);
#919=EDGE_CURVE('',#696,#697,#21,.T.);
#921=EDGE_CURVE('',#697,#903,#25,.T.);
#923=EDGE_CURVE('',#903,#901,#29,.T.);
#925=EDGE_CURVE('',#900,#901,#33,.T.);
#927=EDGE_CURVE('',#905,#900,#37,.T.);
#929=EDGE_CURVE('',#905,#863,#41,.T.);
#931=EDGE_CURVE('',#863,#861,#45,.T.);
#933=EDGE_CURVE('',#860,#861,#49,.T.);
#935=EDGE_CURVE('',#865,#860,#53,.T.);
#937=EDGE_CURVE('',#865,#823,#57,.T.);
#939=EDGE_CURVE('',#823,#821,#61,.T.);
#941=EDGE_CURVE('',#820,#821,#65,.T.);
#943=EDGE_CURVE('',#825,#820,#69,.T.);
#945=EDGE_CURVE('',#825,#783,#73,.T.);
#947=EDGE_CURVE('',#783,#781,#77,.T.);
#949=EDGE_CURVE('',#780,#781,#81,.T.);
#951=EDGE_CURVE('',#785,#780,#85,.T.);
#953=EDGE_CURVE('',#785,#737,#89,.T.);
#955=EDGE_CURVE('',#737,#745,#93,.T.);
#957=EDGE_CURVE('',#743,#745,#97,.T.);
#959=EDGE_CURVE('',#733,#743,#101,.T.);
#961=EDGE_CURVE('',#733,#692,#105,.T.);
#963=EDGE_CURVE('',#692,#693,#109,.T.);
#965=EDGE_CURVE('',#693,#731,#113,.T.);
#967=EDGE_CURVE('',#731,#739,#117,.T.);
#969=EDGE_CURVE('',#741,#739,#121,.T.);
#971=EDGE_CURVE('',#735,#741,#125,.T.);
#973=EDGE_CURVE('',#735,#772,#129,.T.);
#975=EDGE_CURVE('',#772,#773,#133,.T.);
#977=EDGE_CURVE('',#777,#773,#137,.T.);
#979=EDGE_CURVE('',#776,#777,#141,.T.);
#981=EDGE_CURVE('',#776,#812,#145,.T.);
#983=EDGE_CURVE('',#812,#813,#149,.T.);
#985=EDGE_CURVE('',#817,#813,#153,.T.);
#987=EDGE_CURVE('',#816,#817,#157,.T.);
#989=EDGE_CURVE('',#816,#852,#161,.T.);
#991=EDGE_CURVE('',#852,#853,#165,.T.);
#993=EDGE_CURVE('',#857,#853,#169,.T.);
#995=EDGE_CURVE('',#856,#857,#173,.T.);
#997=EDGE_CURVE('',#856,#892,#177,.T.);
#1008=EDGE_CURVE('',#892,#868,#193,.T.);
#1010=EDGE_CURVE('',#868,#877,#673,.T.);
#1012=EDGE_CURVE('',#876,#877,#641,.T.);
#1014=EDGE_CURVE('',#893,#876,#181,.T.);
#1024=EDGE_CURVE('',#892,#896,#209,.T.);
#1026=EDGE_CURVE('',#869,#896,#185,.T.);
#1028=EDGE_CURVE('',#868,#869,#189,.T.);
#1039=EDGE_CURVE('',#905,#903,#321,.T.);
#1041=EDGE_CURVE('',#873,#905,#197,.T.);
#1043=EDGE_CURVE('',#872,#873,#201,.T.);
#1045=EDGE_CURVE('',#903,#872,#205,.T.);
#1057=EDGE_CURVE('',#852,#856,#213,.T.);
#1060=EDGE_CURVE('',#812,#816,#217,.T.);
#1063=EDGE_CURVE('',#772,#776,#221,.T.);
#1066=EDGE_CURVE('',#731,#735,#225,.T.);
#1069=EDGE_CURVE('',#693,#701,#229,.T.);
#1071=EDGE_CURVE('',#701,#703,#361,.T.);
#1073=EDGE_CURVE('',#696,#703,#345,.T.);
#1085=EDGE_CURVE('',#829,#856,#233,.T.);
#1087=EDGE_CURVE('',#828,#829,#237,.T.);
#1089=EDGE_CURVE('',#852,#828,#241,.T.);
#1099=EDGE_CURVE('',#865,#863,#341,.T.);
#1101=EDGE_CURVE('',#833,#865,#245,.T.);
#1103=EDGE_CURVE('',#832,#833,#249,.T.);
#1105=EDGE_CURVE('',#863,#832,#253,.T.);
#1116=EDGE_CURVE('',#857,#841,#261,.T.);
#1118=EDGE_CURVE('',#839,#841,#281,.T.);
#1120=EDGE_CURVE('',#829,#839,#257,.T.);
#1132=EDGE_CURVE('',#853,#836,#265,.T.);
#1134=EDGE_CURVE('',#841,#836,#285,.T.);
#1147=EDGE_CURVE('',#828,#837,#269,.T.);
#1149=EDGE_CURVE('',#836,#837,#273,.T.);
#1162=EDGE_CURVE('',#837,#839,#277,.T.);
#1185=EDGE_CURVE('',#844,#845,#289,.T.);
#1187=EDGE_CURVE('',#845,#847,#293,.T.);
#1189=EDGE_CURVE('',#847,#849,#297,.T.);
#1191=EDGE_CURVE('',#849,#844,#301,.T.);
#1202=EDGE_CURVE('',#861,#845,#309,.T.);
#1205=EDGE_CURVE('',#860,#844,#305,.T.);
#1217=EDGE_CURVE('',#832,#847,#313,.T.);
#1230=EDGE_CURVE('',#833,#849,#317,.T.);
#1257=EDGE_CURVE('',#697,#705,#325,.T.);
#1259=EDGE_CURVE('',#705,#700,#353,.T.);
#1261=EDGE_CURVE('',#692,#700,#365,.T.);
#1264=EDGE_CURVE('',#733,#737,#329,.T.);
#1267=EDGE_CURVE('',#785,#783,#333,.T.);
#1270=EDGE_CURVE('',#825,#823,#337,.T.);
#1285=EDGE_CURVE('',#703,#705,#357,.T.);
#1296=EDGE_CURVE('',#700,#701,#349,.T.);
#1321=EDGE_CURVE('',#731,#708,#369,.T.);
#1324=EDGE_CURVE('',#709,#735,#373,.T.);
#1326=EDGE_CURVE('',#708,#709,#377,.T.);
#1336=EDGE_CURVE('',#737,#712,#381,.T.);
#1339=EDGE_CURVE('',#713,#733,#385,.T.);
#1341=EDGE_CURVE('',#712,#713,#389,.T.);
#1352=EDGE_CURVE('',#716,#708,#397,.T.);
#1354=EDGE_CURVE('',#716,#717,#409,.T.);
#1356=EDGE_CURVE('',#717,#739,#393,.T.);
#1368=EDGE_CURVE('',#719,#709,#401,.T.);
#1370=EDGE_CURVE('',#719,#716,#413,.T.);
#1383=EDGE_CURVE('',#721,#741,#405,.T.);
#1385=EDGE_CURVE('',#721,#719,#417,.T.);
#1397=EDGE_CURVE('',#717,#721,#421,.T.);
#1421=EDGE_CURVE('',#724,#725,#425,.T.);
#1423=EDGE_CURVE('',#727,#724,#429,.T.);
#1425=EDGE_CURVE('',#729,#727,#433,.T.);
#1427=EDGE_CURVE('',#725,#729,#437,.T.);
#1437=EDGE_CURVE('',#725,#743,#441,.T.);
#1440=EDGE_CURVE('',#724,#745,#453,.T.);
#1455=EDGE_CURVE('',#729,#713,#445,.T.);
#1468=EDGE_CURVE('',#727,#712,#449,.T.);
#1492=EDGE_CURVE('',#749,#776,#457,.T.);
#1494=EDGE_CURVE('',#748,#749,#461,.T.);
#1496=EDGE_CURVE('',#772,#748,#465,.T.);
#1507=EDGE_CURVE('',#753,#785,#469,.T.);
#1509=EDGE_CURVE('',#752,#753,#473,.T.);
#1511=EDGE_CURVE('',#783,#752,#477,.T.);
#1522=EDGE_CURVE('',#777,#761,#485,.T.);
#1524=EDGE_CURVE('',#759,#761,#505,.T.);
#1526=EDGE_CURVE('',#749,#759,#481,.T.);
#1538=EDGE_CURVE('',#773,#756,#489,.T.);
#1540=EDGE_CURVE('',#761,#756,#509,.T.);
#1553=EDGE_CURVE('',#748,#757,#493,.T.);
#1555=EDGE_CURVE('',#756,#757,#497,.T.);
#1568=EDGE_CURVE('',#757,#759,#501,.T.);
#1591=EDGE_CURVE('',#764,#765,#513,.T.);
#1593=EDGE_CURVE('',#765,#767,#517,.T.);
#1595=EDGE_CURVE('',#767,#769,#521,.T.);
#1597=EDGE_CURVE('',#769,#764,#525,.T.);
#1608=EDGE_CURVE('',#781,#765,#533,.T.);
#1611=EDGE_CURVE('',#780,#764,#529,.T.);
#1623=EDGE_CURVE('',#752,#767,#537,.T.);
#1636=EDGE_CURVE('',#753,#769,#541,.T.);
#1662=EDGE_CURVE('',#789,#816,#545,.T.);
#1664=EDGE_CURVE('',#788,#789,#549,.T.);
#1666=EDGE_CURVE('',#812,#788,#553,.T.);
#1677=EDGE_CURVE('',#793,#825,#557,.T.);
#1679=EDGE_CURVE('',#792,#793,#561,.T.);
#1681=EDGE_CURVE('',#823,#792,#565,.T.);
#1692=EDGE_CURVE('',#817,#801,#573,.T.);
#1694=EDGE_CURVE('',#799,#801,#593,.T.);
#1696=EDGE_CURVE('',#789,#799,#569,.T.);
#1708=EDGE_CURVE('',#813,#796,#577,.T.);
#1710=EDGE_CURVE('',#801,#796,#597,.T.);
#1723=EDGE_CURVE('',#788,#797,#581,.T.);
#1725=EDGE_CURVE('',#796,#797,#585,.T.);
#1738=EDGE_CURVE('',#797,#799,#589,.T.);
#1761=EDGE_CURVE('',#804,#805,#601,.T.);
#1763=EDGE_CURVE('',#805,#807,#605,.T.);
#1765=EDGE_CURVE('',#807,#809,#609,.T.);
#1767=EDGE_CURVE('',#809,#804,#613,.T.);
#1778=EDGE_CURVE('',#821,#805,#621,.T.);
#1781=EDGE_CURVE('',#820,#804,#617,.T.);
#1793=EDGE_CURVE('',#792,#807,#625,.T.);
#1806=EDGE_CURVE('',#793,#809,#629,.T.);
#1832=EDGE_CURVE('',#897,#881,#637,.T.);
#1834=EDGE_CURVE('',#879,#881,#649,.T.);
#1836=EDGE_CURVE('',#869,#879,#633,.T.);
#1849=EDGE_CURVE('',#881,#876,#653,.T.);
#1861=EDGE_CURVE('',#877,#879,#645,.T.);
#1873=EDGE_CURVE('',#884,#885,#657,.T.);
#1875=EDGE_CURVE('',#885,#887,#661,.T.);
#1877=EDGE_CURVE('',#887,#889,#665,.T.);
#1879=EDGE_CURVE('',#889,#884,#669,.T.);
#1902=EDGE_CURVE('',#901,#885,#681,.T.);
#1905=EDGE_CURVE('',#900,#884,#677,.T.);
#1917=EDGE_CURVE('',#872,#887,#685,.T.);
#1930=EDGE_CURVE('',#873,#889,#689,.T.);
#1960=ADVANCED_BREP_SHAPE_REPRESENTATION('',(#1951),#1959);
#1967=PRODUCT_DEFINITION('design','',#1966,#1963);
#1968=PRODUCT_DEFINITION_SHAPE('','SHAPE FOR 10PIN-CONNECTOR_PRT.',#1967);
#1969=SHAPE_DEFINITION_REPRESENTATION(#1968,#1960);
ENDSEC;
END-ISO-10303-21;
