ISO-10303-21;
HEADER;
FILE_DESCRIPTION((''),'2;1');
FILE_NAME('ANTENNA_PCB_COVER_ANY_PRT','2008-06-30T',('GRA'),(''),
'PRO/ENGINEER BY PARAMETRIC TECHNOLOGY CORPORATION, 2006170',
'PRO/ENGINEER BY PARAMETRIC TECHNOLOGY CORPORATION, 2006170','');
FILE_SCHEMA(('CONFIG_CONTROL_DESIGN'));
ENDSEC;
DATA;
#2=DIRECTION('',(-1.E0,0.E0,0.E0));
#3=VECTOR('',#2,1.024E1);
#4=CARTESIAN_POINT('',(1.385E1,0.E0,-2.E-1));
#5=LINE('',#4,#3);
#6=DIRECTION('',(0.E0,0.E0,1.E0));
#7=VECTOR('',#6,1.433E1);
#8=CARTESIAN_POINT('',(1.385E1,0.E0,-1.453E1));
#9=LINE('',#8,#7);
#10=DIRECTION('',(1.E0,0.E0,0.E0));
#11=VECTOR('',#10,1.365E1);
#12=CARTESIAN_POINT('',(2.E-1,0.E0,-1.453E1));
#13=LINE('',#12,#11);
#14=DIRECTION('',(0.E0,0.E0,-1.E0));
#15=VECTOR('',#14,5.55E0);
#16=CARTESIAN_POINT('',(2.E-1,0.E0,-8.98E0));
#17=LINE('',#16,#15);
#18=DIRECTION('',(1.E0,-1.059337802663E-14,0.E0));
#19=VECTOR('',#18,2.E-1);
#20=CARTESIAN_POINT('',(0.E0,0.E0,-8.98E0));
#21=LINE('',#20,#19);
#22=DIRECTION('',(-1.E0,0.E0,0.E0));
#23=VECTOR('',#22,3.61E0);
#24=CARTESIAN_POINT('',(3.61E0,0.E0,-4.98E0));
#25=LINE('',#24,#23);
#26=DIRECTION('',(0.E0,0.E0,-1.E0));
#27=VECTOR('',#26,4.58E0);
#28=CARTESIAN_POINT('',(3.61E0,0.E0,-2.E-1));
#29=LINE('',#28,#27);
#30=DIRECTION('',(-1.E0,0.E0,0.E0));
#31=VECTOR('',#30,9.304649976056E0);
#32=CARTESIAN_POINT('',(1.291464997606E1,-1.E0,-2.E-1));
#33=LINE('',#32,#31);
#34=CARTESIAN_POINT('',(1.348232498803E1,-1.E0,-2.E-1));
#35=DIRECTION('',(0.E0,0.E0,-1.E0));
#36=DIRECTION('',(1.E0,0.E0,0.E0));
#37=AXIS2_PLACEMENT_3D('',#34,#35,#36);
#39=DIRECTION('',(1.E0,0.E0,0.E0));
#40=VECTOR('',#39,2.E-1);
#41=CARTESIAN_POINT('',(1.385E1,-1.E0,-2.E-1));
#42=LINE('',#41,#40);
#43=DIRECTION('',(0.E0,-1.E0,0.E0));
#44=VECTOR('',#43,1.E0);
#45=CARTESIAN_POINT('',(1.385E1,0.E0,-2.E-1));
#46=LINE('',#45,#44);
#47=DIRECTION('',(0.E0,0.E0,-1.E0));
#48=VECTOR('',#47,4.78E0);
#49=CARTESIAN_POINT('',(3.61E0,2.E-1,0.E0));
#50=LINE('',#49,#48);
#51=DIRECTION('',(0.E0,1.E0,0.E0));
#52=VECTOR('',#51,1.2E0);
#53=CARTESIAN_POINT('',(3.61E0,-1.E0,0.E0));
#54=LINE('',#53,#52);
#55=DIRECTION('',(0.E0,-1.E0,0.E0));
#56=VECTOR('',#55,1.E0);
#57=CARTESIAN_POINT('',(3.61E0,0.E0,-2.E-1));
#58=LINE('',#57,#56);
#59=DIRECTION('',(-1.E0,0.E0,0.E0));
#60=VECTOR('',#59,3.61E0);
#61=CARTESIAN_POINT('',(3.61E0,2.E-1,-4.78E0));
#62=LINE('',#61,#60);
#63=DIRECTION('',(0.E0,1.E0,0.E0));
#64=VECTOR('',#63,2.E-1);
#65=CARTESIAN_POINT('',(3.61E0,0.E0,-4.78E0));
#66=LINE('',#65,#64);
#67=DIRECTION('',(0.E0,0.E0,1.E0));
#68=VECTOR('',#67,4.E0);
#69=CARTESIAN_POINT('',(0.E0,0.E0,-8.98E0));
#70=LINE('',#69,#68);
#71=DIRECTION('',(0.E0,1.E0,0.E0));
#72=VECTOR('',#71,1.E0);
#73=CARTESIAN_POINT('',(0.E0,-1.E0,-8.98E0));
#74=LINE('',#73,#72);
#75=DIRECTION('',(0.E0,0.E0,-1.E0));
#76=VECTOR('',#75,9.95E0);
#77=CARTESIAN_POINT('',(0.E0,2.E-1,-4.78E0));
#78=LINE('',#77,#76);
#79=DIRECTION('',(0.E0,1.E0,0.E0));
#80=VECTOR('',#79,1.2E0);
#81=CARTESIAN_POINT('',(0.E0,-1.E0,-4.78E0));
#82=LINE('',#81,#80);
#83=DIRECTION('',(0.E0,-1.E0,0.E0));
#84=VECTOR('',#83,1.E0);
#85=CARTESIAN_POINT('',(0.E0,0.E0,-4.98E0));
#86=LINE('',#85,#84);
#87=DIRECTION('',(0.E0,1.E0,0.E0));
#88=VECTOR('',#87,1.E0);
#89=CARTESIAN_POINT('',(2.E-1,-1.E0,-8.98E0));
#90=LINE('',#89,#88);
#91=DIRECTION('',(1.E0,0.E0,0.E0));
#92=VECTOR('',#91,2.E-1);
#93=CARTESIAN_POINT('',(0.E0,-1.E0,-8.98E0));
#94=LINE('',#93,#92);
#95=DIRECTION('',(0.E0,0.E0,-1.E0));
#96=VECTOR('',#95,5.55E0);
#97=CARTESIAN_POINT('',(2.E-1,-1.E0,-8.98E0));
#98=LINE('',#97,#96);
#99=DIRECTION('',(1.E0,0.E0,0.E0));
#100=VECTOR('',#99,1.242269781167E1);
#101=CARTESIAN_POINT('',(1.427302188329E0,-1.E0,-1.453E1));
#102=LINE('',#101,#100);
#103=CARTESIAN_POINT('',(7.136510941645E-1,-1.E0,-1.453E1));
#104=DIRECTION('',(0.E0,0.E0,1.E0));
#105=DIRECTION('',(-1.E0,0.E0,0.E0));
#106=AXIS2_PLACEMENT_3D('',#103,#104,#105);
#108=DIRECTION('',(-1.E0,0.E0,0.E0));
#109=VECTOR('',#108,2.E-1);
#110=CARTESIAN_POINT('',(2.E-1,-1.E0,-1.453E1));
#111=LINE('',#110,#109);
#112=DIRECTION('',(0.E0,-1.E0,0.E0));
#113=VECTOR('',#112,1.E0);
#114=CARTESIAN_POINT('',(2.E-1,0.E0,-1.453E1));
#115=LINE('',#114,#113);
#116=DIRECTION('',(0.E0,0.E0,1.E0));
#117=VECTOR('',#116,1.433E1);
#118=CARTESIAN_POINT('',(1.385E1,-1.E0,-1.453E1));
#119=LINE('',#118,#117);
#120=DIRECTION('',(0.E0,-1.E0,0.E0));
#121=VECTOR('',#120,1.E0);
#122=CARTESIAN_POINT('',(1.385E1,0.E0,-1.453E1));
#123=LINE('',#122,#121);
#124=DIRECTION('',(0.E0,0.E0,1.E0));
#125=VECTOR('',#124,1.453E1);
#126=CARTESIAN_POINT('',(1.405E1,-1.E0,-1.473E1));
#127=LINE('',#126,#125);
#128=DIRECTION('',(1.E0,0.E0,0.E0));
#129=VECTOR('',#128,1.262269781167E1);
#130=CARTESIAN_POINT('',(1.427302188329E0,-1.E0,-1.473E1));
#131=LINE('',#130,#129);
#132=DIRECTION('',(0.E0,0.E0,1.E0));
#133=VECTOR('',#132,1.473E1);
#134=CARTESIAN_POINT('',(1.405E1,2.E-1,-1.473E1));
#135=LINE('',#134,#133);
#136=DIRECTION('',(0.E0,1.E0,0.E0));
#137=VECTOR('',#136,1.2E0);
#138=CARTESIAN_POINT('',(1.405E1,-1.E0,-1.473E1));
#139=LINE('',#138,#137);
#140=DIRECTION('',(-1.E0,0.E0,0.E0));
#141=VECTOR('',#140,1.044E1);
#142=CARTESIAN_POINT('',(1.405E1,2.E-1,0.E0));
#143=LINE('',#142,#141);
#144=DIRECTION('',(0.E0,1.E0,0.E0));
#145=VECTOR('',#144,1.2E0);
#146=CARTESIAN_POINT('',(1.405E1,-1.E0,0.E0));
#147=LINE('',#146,#145);
#148=DIRECTION('',(1.E0,0.E0,0.E0));
#149=VECTOR('',#148,1.405E1);
#150=CARTESIAN_POINT('',(0.E0,2.E-1,-1.473E1));
#151=LINE('',#150,#149);
#152=DIRECTION('',(0.E0,1.E0,0.E0));
#153=VECTOR('',#152,1.2E0);
#154=CARTESIAN_POINT('',(0.E0,-1.E0,-1.473E1));
#155=LINE('',#154,#153);
#156=CARTESIAN_POINT('',(7.136510941645E-1,-1.E0,-1.473E1));
#157=DIRECTION('',(0.E0,0.E0,1.E0));
#158=DIRECTION('',(-1.E0,0.E0,0.E0));
#159=AXIS2_PLACEMENT_3D('',#156,#157,#158);
#161=DIRECTION('',(0.E0,0.E0,-1.E0));
#162=VECTOR('',#161,2.E-1);
#163=CARTESIAN_POINT('',(0.E0,-1.E0,-1.453E1));
#164=LINE('',#163,#162);
#165=DIRECTION('',(0.E0,0.E0,1.E0));
#166=VECTOR('',#165,2.E-1);
#167=CARTESIAN_POINT('',(1.427302188329E0,-1.E0,-1.473E1));
#168=LINE('',#167,#166);
#169=CARTESIAN_POINT('',(1.348232498803E1,-1.E0,0.E0));
#170=DIRECTION('',(0.E0,0.E0,-1.E0));
#171=DIRECTION('',(1.E0,2.542458099395E-14,0.E0));
#172=AXIS2_PLACEMENT_3D('',#169,#170,#171);
#174=DIRECTION('',(0.E0,2.386979502944E-14,1.E0));
#175=VECTOR('',#174,2.E-1);
#176=CARTESIAN_POINT('',(1.405E1,-1.E0,-2.E-1));
#177=LINE('',#176,#175);
#178=DIRECTION('',(0.E0,0.E0,-1.E0));
#179=VECTOR('',#178,2.E-1);
#180=CARTESIAN_POINT('',(1.291464997606E1,-1.E0,0.E0));
#181=LINE('',#180,#179);
#182=DIRECTION('',(0.E0,0.E0,-1.E0));
#183=VECTOR('',#182,2.E-1);
#184=CARTESIAN_POINT('',(3.61E0,-1.E0,0.E0));
#185=LINE('',#184,#183);
#186=DIRECTION('',(-1.E0,0.E0,0.E0));
#187=VECTOR('',#186,9.304649976056E0);
#188=CARTESIAN_POINT('',(1.291464997606E1,-1.E0,0.E0));
#189=LINE('',#188,#187);
#190=DIRECTION('',(0.E0,0.E0,-1.E0));
#191=VECTOR('',#190,5.55E0);
#192=CARTESIAN_POINT('',(0.E0,-1.E0,-8.98E0));
#193=LINE('',#192,#191);
#194=DIRECTION('',(0.E0,0.E0,-1.E0));
#195=VECTOR('',#194,2.E-1);
#196=CARTESIAN_POINT('',(0.E0,-1.E0,-4.78E0));
#197=LINE('',#196,#195);
#198=DIRECTION('',(-1.E0,0.E0,0.E0));
#199=VECTOR('',#198,3.61E0);
#200=CARTESIAN_POINT('',(3.61E0,-1.E0,-4.78E0));
#201=LINE('',#200,#199);
#202=DIRECTION('',(0.E0,0.E0,1.E0));
#203=VECTOR('',#202,2.E-1);
#204=CARTESIAN_POINT('',(3.61E0,-1.E0,-4.98E0));
#205=LINE('',#204,#203);
#206=DIRECTION('',(0.E0,0.E0,1.E0));
#207=VECTOR('',#206,2.E-1);
#208=CARTESIAN_POINT('',(3.61E0,0.E0,-4.98E0));
#209=LINE('',#208,#207);
#210=DIRECTION('',(0.E0,-1.E0,0.E0));
#211=VECTOR('',#210,1.E0);
#212=CARTESIAN_POINT('',(3.61E0,0.E0,-4.78E0));
#213=LINE('',#212,#211);
#214=DIRECTION('',(-1.E0,0.E0,0.E0));
#215=VECTOR('',#214,3.61E0);
#216=CARTESIAN_POINT('',(3.61E0,-1.E0,-4.98E0));
#217=LINE('',#216,#215);
#218=DIRECTION('',(0.E0,-1.E0,0.E0));
#219=VECTOR('',#218,1.E0);
#220=CARTESIAN_POINT('',(3.61E0,0.E0,-4.98E0));
#221=LINE('',#220,#219);
#222=CARTESIAN_POINT('',(1.405E1,2.E-1,0.E0));
#223=CARTESIAN_POINT('',(3.61E0,2.E-1,0.E0));
#224=VERTEX_POINT('',#222);
#225=VERTEX_POINT('',#223);
#226=CARTESIAN_POINT('',(1.405E1,-1.E0,0.E0));
#227=CARTESIAN_POINT('',(1.291464997606E1,-1.E0,0.E0));
#228=VERTEX_POINT('',#226);
#229=VERTEX_POINT('',#227);
#230=CARTESIAN_POINT('',(3.61E0,2.E-1,-4.78E0));
#231=VERTEX_POINT('',#230);
#232=CARTESIAN_POINT('',(3.61E0,-1.E0,0.E0));
#233=VERTEX_POINT('',#232);
#234=CARTESIAN_POINT('',(3.61E0,0.E0,-2.E-1));
#235=CARTESIAN_POINT('',(3.61E0,0.E0,-4.78E0));
#236=VERTEX_POINT('',#234);
#237=VERTEX_POINT('',#235);
#238=CARTESIAN_POINT('',(0.E0,2.E-1,-4.78E0));
#239=VERTEX_POINT('',#238);
#240=CARTESIAN_POINT('',(3.61E0,-1.E0,-2.E-1));
#241=VERTEX_POINT('',#240);
#242=CARTESIAN_POINT('',(3.61E0,-1.E0,-4.78E0));
#243=VERTEX_POINT('',#242);
#244=CARTESIAN_POINT('',(3.61E0,0.E0,-4.98E0));
#245=CARTESIAN_POINT('',(3.61E0,-1.E0,-4.98E0));
#246=VERTEX_POINT('',#244);
#247=VERTEX_POINT('',#245);
#248=CARTESIAN_POINT('',(2.E-1,-1.E0,-8.98E0));
#249=CARTESIAN_POINT('',(2.E-1,-1.E0,-1.453E1));
#250=VERTEX_POINT('',#248);
#251=VERTEX_POINT('',#249);
#252=CARTESIAN_POINT('',(2.E-1,0.E0,-8.98E0));
#253=VERTEX_POINT('',#252);
#254=CARTESIAN_POINT('',(2.E-1,0.E0,-1.453E1));
#255=VERTEX_POINT('',#254);
#256=CARTESIAN_POINT('',(1.385E1,0.E0,-1.453E1));
#257=CARTESIAN_POINT('',(1.385E1,0.E0,-2.E-1));
#258=VERTEX_POINT('',#256);
#259=VERTEX_POINT('',#257);
#260=CARTESIAN_POINT('',(0.E0,0.E0,-8.98E0));
#261=VERTEX_POINT('',#260);
#262=CARTESIAN_POINT('',(0.E0,0.E0,-4.98E0));
#263=VERTEX_POINT('',#262);
#264=CARTESIAN_POINT('',(1.405E1,-1.E0,-2.E-1));
#265=CARTESIAN_POINT('',(1.291464997606E1,-1.E0,-2.E-1));
#266=VERTEX_POINT('',#264);
#267=VERTEX_POINT('',#265);
#268=CARTESIAN_POINT('',(0.E0,-1.E0,-1.453E1));
#269=VERTEX_POINT('',#268);
#270=CARTESIAN_POINT('',(1.427302188329E0,-1.E0,-1.453E1));
#271=VERTEX_POINT('',#270);
#272=CARTESIAN_POINT('',(1.385E1,-1.E0,-1.453E1));
#273=VERTEX_POINT('',#272);
#274=CARTESIAN_POINT('',(1.385E1,-1.E0,-2.E-1));
#275=VERTEX_POINT('',#274);
#276=CARTESIAN_POINT('',(0.E0,-1.E0,-8.98E0));
#277=VERTEX_POINT('',#276);
#278=CARTESIAN_POINT('',(1.405E1,-1.E0,-1.473E1));
#279=CARTESIAN_POINT('',(1.405E1,2.E-1,-1.473E1));
#280=VERTEX_POINT('',#278);
#281=VERTEX_POINT('',#279);
#282=CARTESIAN_POINT('',(1.427302188329E0,-1.E0,-1.473E1));
#283=VERTEX_POINT('',#282);
#284=CARTESIAN_POINT('',(0.E0,-1.E0,-1.473E1));
#285=VERTEX_POINT('',#284);
#286=CARTESIAN_POINT('',(0.E0,2.E-1,-1.473E1));
#287=VERTEX_POINT('',#286);
#288=CARTESIAN_POINT('',(0.E0,-1.E0,-4.78E0));
#289=VERTEX_POINT('',#288);
#290=CARTESIAN_POINT('',(0.E0,-1.E0,-4.98E0));
#291=VERTEX_POINT('',#290);
#292=CARTESIAN_POINT('',(1.405E1,0.E0,0.E0));
#293=DIRECTION('',(0.E0,-1.E0,0.E0));
#294=DIRECTION('',(0.E0,0.E0,-1.E0));
#295=AXIS2_PLACEMENT_3D('',#292,#293,#294);
#296=PLANE('',#295);
#298=ORIENTED_EDGE('',*,*,#297,.F.);
#300=ORIENTED_EDGE('',*,*,#299,.F.);
#302=ORIENTED_EDGE('',*,*,#301,.F.);
#304=ORIENTED_EDGE('',*,*,#303,.F.);
#306=ORIENTED_EDGE('',*,*,#305,.F.);
#308=ORIENTED_EDGE('',*,*,#307,.T.);
#310=ORIENTED_EDGE('',*,*,#309,.F.);
#312=ORIENTED_EDGE('',*,*,#311,.T.);
#314=ORIENTED_EDGE('',*,*,#313,.F.);
#315=EDGE_LOOP('',(#298,#300,#302,#304,#306,#308,#310,#312,#314));
#316=FACE_OUTER_BOUND('',#315,.F.);
#317=ADVANCED_FACE('',(#316),#296,.T.);
#318=CARTESIAN_POINT('',(7.025E0,-1.E0,-2.E-1));
#319=DIRECTION('',(0.E0,0.E0,1.E0));
#320=DIRECTION('',(1.E0,0.E0,0.E0));
#321=AXIS2_PLACEMENT_3D('',#318,#319,#320);
#322=PLANE('',#321);
#323=ORIENTED_EDGE('',*,*,#297,.T.);
#325=ORIENTED_EDGE('',*,*,#324,.T.);
#327=ORIENTED_EDGE('',*,*,#326,.F.);
#329=ORIENTED_EDGE('',*,*,#328,.F.);
#331=ORIENTED_EDGE('',*,*,#330,.F.);
#333=ORIENTED_EDGE('',*,*,#332,.F.);
#334=EDGE_LOOP('',(#323,#325,#327,#329,#331,#333));
#335=FACE_OUTER_BOUND('',#334,.F.);
#336=ADVANCED_FACE('',(#335),#322,.F.);
#337=CARTESIAN_POINT('',(3.61E0,2.E-1,0.E0));
#338=DIRECTION('',(1.E0,0.E0,0.E0));
#339=DIRECTION('',(0.E0,0.E0,-1.E0));
#340=AXIS2_PLACEMENT_3D('',#337,#338,#339);
#341=PLANE('',#340);
#342=ORIENTED_EDGE('',*,*,#313,.T.);
#344=ORIENTED_EDGE('',*,*,#343,.T.);
#346=ORIENTED_EDGE('',*,*,#345,.F.);
#348=ORIENTED_EDGE('',*,*,#347,.F.);
#350=ORIENTED_EDGE('',*,*,#349,.T.);
#351=ORIENTED_EDGE('',*,*,#324,.F.);
#352=EDGE_LOOP('',(#342,#344,#346,#348,#350,#351));
#353=FACE_OUTER_BOUND('',#352,.F.);
#354=ADVANCED_FACE('',(#353),#341,.F.);
#355=CARTESIAN_POINT('',(0.E0,2.E-1,-4.78E0));
#356=DIRECTION('',(0.E0,0.E0,-1.E0));
#357=DIRECTION('',(-1.E0,0.E0,0.E0));
#358=AXIS2_PLACEMENT_3D('',#355,#356,#357);
#359=PLANE('',#358);
#361=ORIENTED_EDGE('',*,*,#360,.T.);
#363=ORIENTED_EDGE('',*,*,#362,.F.);
#364=ORIENTED_EDGE('',*,*,#343,.F.);
#366=ORIENTED_EDGE('',*,*,#365,.T.);
#368=ORIENTED_EDGE('',*,*,#367,.T.);
#369=EDGE_LOOP('',(#361,#363,#364,#366,#368));
#370=FACE_OUTER_BOUND('',#369,.F.);
#371=ADVANCED_FACE('',(#370),#359,.F.);
#372=CARTESIAN_POINT('',(0.E0,2.E-1,-4.78E0));
#373=DIRECTION('',(1.E0,0.E0,0.E0));
#374=DIRECTION('',(0.E0,0.E0,-1.E0));
#375=AXIS2_PLACEMENT_3D('',#372,#373,#374);
#376=PLANE('',#375);
#377=ORIENTED_EDGE('',*,*,#307,.F.);
#379=ORIENTED_EDGE('',*,*,#378,.F.);
#381=ORIENTED_EDGE('',*,*,#380,.T.);
#383=ORIENTED_EDGE('',*,*,#382,.T.);
#385=ORIENTED_EDGE('',*,*,#384,.T.);
#387=ORIENTED_EDGE('',*,*,#386,.F.);
#388=ORIENTED_EDGE('',*,*,#360,.F.);
#390=ORIENTED_EDGE('',*,*,#389,.T.);
#392=ORIENTED_EDGE('',*,*,#391,.F.);
#393=EDGE_LOOP('',(#377,#379,#381,#383,#385,#387,#388,#390,#392));
#394=FACE_OUTER_BOUND('',#393,.F.);
#395=ADVANCED_FACE('',(#394),#376,.F.);
#396=CARTESIAN_POINT('',(2.E-1,1.214306433184E-14,-8.98E0));
#397=DIRECTION('',(0.E0,0.E0,-1.E0));
#398=DIRECTION('',(0.E0,1.E0,0.E0));
#399=AXIS2_PLACEMENT_3D('',#396,#397,#398);
#400=PLANE('',#399);
#401=ORIENTED_EDGE('',*,*,#378,.T.);
#402=ORIENTED_EDGE('',*,*,#305,.T.);
#404=ORIENTED_EDGE('',*,*,#403,.F.);
#406=ORIENTED_EDGE('',*,*,#405,.F.);
#407=EDGE_LOOP('',(#401,#402,#404,#406));
#408=FACE_OUTER_BOUND('',#407,.F.);
#409=ADVANCED_FACE('',(#408),#400,.F.);
#410=CARTESIAN_POINT('',(2.E-1,-1.E0,-2.333983908584E1));
#411=DIRECTION('',(-1.E0,0.E0,0.E0));
#412=DIRECTION('',(0.E0,0.E0,1.E0));
#413=AXIS2_PLACEMENT_3D('',#410,#411,#412);
#414=PLANE('',#413);
#415=ORIENTED_EDGE('',*,*,#303,.T.);
#417=ORIENTED_EDGE('',*,*,#416,.T.);
#419=ORIENTED_EDGE('',*,*,#418,.F.);
#420=ORIENTED_EDGE('',*,*,#403,.T.);
#421=EDGE_LOOP('',(#415,#417,#419,#420));
#422=FACE_OUTER_BOUND('',#421,.F.);
#423=ADVANCED_FACE('',(#422),#414,.F.);
#424=CARTESIAN_POINT('',(7.025E0,-1.E0,-1.453E1));
#425=DIRECTION('',(0.E0,0.E0,-1.E0));
#426=DIRECTION('',(-1.E0,0.E0,0.E0));
#427=AXIS2_PLACEMENT_3D('',#424,#425,#426);
#428=PLANE('',#427);
#429=ORIENTED_EDGE('',*,*,#301,.T.);
#431=ORIENTED_EDGE('',*,*,#430,.T.);
#433=ORIENTED_EDGE('',*,*,#432,.F.);
#435=ORIENTED_EDGE('',*,*,#434,.F.);
#437=ORIENTED_EDGE('',*,*,#436,.F.);
#438=ORIENTED_EDGE('',*,*,#416,.F.);
#439=EDGE_LOOP('',(#429,#431,#433,#435,#437,#438));
#440=FACE_OUTER_BOUND('',#439,.F.);
#441=ADVANCED_FACE('',(#440),#428,.F.);
#442=CARTESIAN_POINT('',(1.385E1,-1.E0,-2.333983908584E1));
#443=DIRECTION('',(1.E0,0.E0,0.E0));
#444=DIRECTION('',(0.E0,0.E0,-1.E0));
#445=AXIS2_PLACEMENT_3D('',#442,#443,#444);
#446=PLANE('',#445);
#447=ORIENTED_EDGE('',*,*,#299,.T.);
#448=ORIENTED_EDGE('',*,*,#332,.T.);
#450=ORIENTED_EDGE('',*,*,#449,.F.);
#451=ORIENTED_EDGE('',*,*,#430,.F.);
#452=EDGE_LOOP('',(#447,#448,#450,#451));
#453=FACE_OUTER_BOUND('',#452,.F.);
#454=ADVANCED_FACE('',(#453),#446,.F.);
#455=CARTESIAN_POINT('',(7.025E0,-1.E0,-2.333983908584E1));
#456=DIRECTION('',(0.E0,-1.E0,0.E0));
#457=DIRECTION('',(0.E0,0.E0,-1.E0));
#458=AXIS2_PLACEMENT_3D('',#455,#456,#457);
#459=PLANE('',#458);
#461=ORIENTED_EDGE('',*,*,#460,.F.);
#463=ORIENTED_EDGE('',*,*,#462,.F.);
#465=ORIENTED_EDGE('',*,*,#464,.T.);
#466=ORIENTED_EDGE('',*,*,#432,.T.);
#467=ORIENTED_EDGE('',*,*,#449,.T.);
#468=ORIENTED_EDGE('',*,*,#330,.T.);
#469=EDGE_LOOP('',(#461,#463,#465,#466,#467,#468));
#470=FACE_OUTER_BOUND('',#469,.F.);
#471=ADVANCED_FACE('',(#470),#459,.T.);
#472=CARTESIAN_POINT('',(1.405E1,2.E-1,0.E0));
#473=DIRECTION('',(-1.E0,0.E0,0.E0));
#474=DIRECTION('',(0.E0,0.E0,1.E0));
#475=AXIS2_PLACEMENT_3D('',#472,#473,#474);
#476=PLANE('',#475);
#478=ORIENTED_EDGE('',*,*,#477,.T.);
#480=ORIENTED_EDGE('',*,*,#479,.F.);
#482=ORIENTED_EDGE('',*,*,#481,.F.);
#483=ORIENTED_EDGE('',*,*,#460,.T.);
#485=ORIENTED_EDGE('',*,*,#484,.T.);
#486=EDGE_LOOP('',(#478,#480,#482,#483,#485));
#487=FACE_OUTER_BOUND('',#486,.F.);
#488=ADVANCED_FACE('',(#487),#476,.F.);
#489=CARTESIAN_POINT('',(3.61E0,2.E-1,0.E0));
#490=DIRECTION('',(0.E0,0.E0,-1.E0));
#491=DIRECTION('',(-1.E0,0.E0,0.E0));
#492=AXIS2_PLACEMENT_3D('',#489,#490,#491);
#493=PLANE('',#492);
#494=ORIENTED_EDGE('',*,*,#347,.T.);
#496=ORIENTED_EDGE('',*,*,#495,.F.);
#497=ORIENTED_EDGE('',*,*,#477,.F.);
#499=ORIENTED_EDGE('',*,*,#498,.T.);
#501=ORIENTED_EDGE('',*,*,#500,.T.);
#502=EDGE_LOOP('',(#494,#496,#497,#499,#501));
#503=FACE_OUTER_BOUND('',#502,.F.);
#504=ADVANCED_FACE('',(#503),#493,.F.);
#505=CARTESIAN_POINT('',(1.405E1,2.E-1,0.E0));
#506=DIRECTION('',(0.E0,-1.E0,0.E0));
#507=DIRECTION('',(0.E0,0.E0,-1.E0));
#508=AXIS2_PLACEMENT_3D('',#505,#506,#507);
#509=PLANE('',#508);
#510=ORIENTED_EDGE('',*,*,#479,.T.);
#511=ORIENTED_EDGE('',*,*,#495,.T.);
#512=ORIENTED_EDGE('',*,*,#345,.T.);
#513=ORIENTED_EDGE('',*,*,#362,.T.);
#514=ORIENTED_EDGE('',*,*,#386,.T.);
#516=ORIENTED_EDGE('',*,*,#515,.T.);
#517=EDGE_LOOP('',(#510,#511,#512,#513,#514,#516));
#518=FACE_OUTER_BOUND('',#517,.F.);
#519=ADVANCED_FACE('',(#518),#509,.F.);
#520=CARTESIAN_POINT('',(0.E0,2.E-1,-1.473E1));
#521=DIRECTION('',(0.E0,0.E0,1.E0));
#522=DIRECTION('',(1.E0,0.E0,0.E0));
#523=AXIS2_PLACEMENT_3D('',#520,#521,#522);
#524=PLANE('',#523);
#525=ORIENTED_EDGE('',*,*,#481,.T.);
#526=ORIENTED_EDGE('',*,*,#515,.F.);
#527=ORIENTED_EDGE('',*,*,#384,.F.);
#529=ORIENTED_EDGE('',*,*,#528,.T.);
#530=ORIENTED_EDGE('',*,*,#462,.T.);
#531=EDGE_LOOP('',(#525,#526,#527,#529,#530));
#532=FACE_OUTER_BOUND('',#531,.F.);
#533=ADVANCED_FACE('',(#532),#524,.F.);
#534=CARTESIAN_POINT('',(7.136510941645E-1,-1.E0,-1.453E1));
#535=DIRECTION('',(0.E0,0.E0,-1.E0));
#536=DIRECTION('',(-1.E0,0.E0,0.E0));
#537=AXIS2_PLACEMENT_3D('',#534,#535,#536);
#538=CYLINDRICAL_SURFACE('',#537,7.136510941645E-1);
#539=ORIENTED_EDGE('',*,*,#528,.F.);
#540=ORIENTED_EDGE('',*,*,#382,.F.);
#541=ORIENTED_EDGE('',*,*,#434,.T.);
#542=ORIENTED_EDGE('',*,*,#464,.F.);
#543=EDGE_LOOP('',(#539,#540,#541,#542));
#544=FACE_OUTER_BOUND('',#543,.F.);
#545=ADVANCED_FACE('',(#544),#538,.T.);
#546=CARTESIAN_POINT('',(1.348232498803E1,-1.E0,-2.E-1));
#547=DIRECTION('',(0.E0,0.E0,1.E0));
#548=DIRECTION('',(1.E0,0.E0,0.E0));
#549=AXIS2_PLACEMENT_3D('',#546,#547,#548);
#550=CYLINDRICAL_SURFACE('',#549,5.676750119721E-1);
#551=ORIENTED_EDGE('',*,*,#498,.F.);
#552=ORIENTED_EDGE('',*,*,#484,.F.);
#553=ORIENTED_EDGE('',*,*,#328,.T.);
#555=ORIENTED_EDGE('',*,*,#554,.F.);
#556=EDGE_LOOP('',(#551,#552,#553,#555));
#557=FACE_OUTER_BOUND('',#556,.F.);
#558=ADVANCED_FACE('',(#557),#550,.T.);
#559=CARTESIAN_POINT('',(7.025E0,-1.E0,-2.333983908584E1));
#560=DIRECTION('',(0.E0,-1.E0,0.E0));
#561=DIRECTION('',(0.E0,0.E0,-1.E0));
#562=AXIS2_PLACEMENT_3D('',#559,#560,#561);
#563=PLANE('',#562);
#564=ORIENTED_EDGE('',*,*,#554,.T.);
#565=ORIENTED_EDGE('',*,*,#326,.T.);
#566=ORIENTED_EDGE('',*,*,#349,.F.);
#567=ORIENTED_EDGE('',*,*,#500,.F.);
#568=EDGE_LOOP('',(#564,#565,#566,#567));
#569=FACE_OUTER_BOUND('',#568,.F.);
#570=ADVANCED_FACE('',(#569),#563,.T.);
#571=CARTESIAN_POINT('',(7.025E0,-1.E0,-2.333983908584E1));
#572=DIRECTION('',(0.E0,-1.E0,0.E0));
#573=DIRECTION('',(0.E0,0.E0,-1.E0));
#574=AXIS2_PLACEMENT_3D('',#571,#572,#573);
#575=PLANE('',#574);
#576=ORIENTED_EDGE('',*,*,#436,.T.);
#577=ORIENTED_EDGE('',*,*,#380,.F.);
#578=ORIENTED_EDGE('',*,*,#405,.T.);
#579=ORIENTED_EDGE('',*,*,#418,.T.);
#580=EDGE_LOOP('',(#576,#577,#578,#579));
#581=FACE_OUTER_BOUND('',#580,.F.);
#582=ADVANCED_FACE('',(#581),#575,.T.);
#583=CARTESIAN_POINT('',(7.025E0,-1.E0,-2.333983908584E1));
#584=DIRECTION('',(0.E0,-1.E0,0.E0));
#585=DIRECTION('',(0.E0,0.E0,-1.E0));
#586=AXIS2_PLACEMENT_3D('',#583,#584,#585);
#587=PLANE('',#586);
#588=ORIENTED_EDGE('',*,*,#389,.F.);
#589=ORIENTED_EDGE('',*,*,#367,.F.);
#591=ORIENTED_EDGE('',*,*,#590,.F.);
#593=ORIENTED_EDGE('',*,*,#592,.T.);
#594=EDGE_LOOP('',(#588,#589,#591,#593));
#595=FACE_OUTER_BOUND('',#594,.F.);
#596=ADVANCED_FACE('',(#595),#587,.T.);
#597=CARTESIAN_POINT('',(3.61E0,-1.E0,-2.333983908584E1));
#598=DIRECTION('',(1.E0,0.E0,0.E0));
#599=DIRECTION('',(0.E0,0.E0,-1.E0));
#600=AXIS2_PLACEMENT_3D('',#597,#598,#599);
#601=PLANE('',#600);
#602=ORIENTED_EDGE('',*,*,#311,.F.);
#604=ORIENTED_EDGE('',*,*,#603,.T.);
#605=ORIENTED_EDGE('',*,*,#590,.T.);
#606=ORIENTED_EDGE('',*,*,#365,.F.);
#607=EDGE_LOOP('',(#602,#604,#605,#606));
#608=FACE_OUTER_BOUND('',#607,.F.);
#609=ADVANCED_FACE('',(#608),#601,.T.);
#610=CARTESIAN_POINT('',(7.025E0,-1.E0,-4.98E0));
#611=DIRECTION('',(0.E0,0.E0,1.E0));
#612=DIRECTION('',(1.E0,0.E0,0.E0));
#613=AXIS2_PLACEMENT_3D('',#610,#611,#612);
#614=PLANE('',#613);
#615=ORIENTED_EDGE('',*,*,#309,.T.);
#616=ORIENTED_EDGE('',*,*,#391,.T.);
#617=ORIENTED_EDGE('',*,*,#592,.F.);
#618=ORIENTED_EDGE('',*,*,#603,.F.);
#619=EDGE_LOOP('',(#615,#616,#617,#618));
#620=FACE_OUTER_BOUND('',#619,.F.);
#621=ADVANCED_FACE('',(#620),#614,.F.);
#622=CLOSED_SHELL('',(#317,#336,#354,#371,#395,#409,#423,#441,#454,#471,#488,
#504,#519,#533,#545,#558,#570,#582,#596,#609,#621));
#623=MANIFOLD_SOLID_BREP('',#622);
#624=(LENGTH_UNIT()NAMED_UNIT(*)SI_UNIT(.MILLI.,.METRE.));
#625=DIMENSIONAL_EXPONENTS(0.E0,0.E0,0.E0,0.E0,0.E0,0.E0,0.E0);
#626=(NAMED_UNIT(*)PLANE_ANGLE_UNIT()SI_UNIT($,.RADIAN.));
#627=PLANE_ANGLE_MEASURE_WITH_UNIT(PLANE_ANGLE_MEASURE(1.745329251994E-2),#626);
#628=(CONVERSION_BASED_UNIT('DEGREE',#627)NAMED_UNIT(#625)PLANE_ANGLE_UNIT());
#629=(NAMED_UNIT(*)SI_UNIT($,.STERADIAN.)SOLID_ANGLE_UNIT());
#630=UNCERTAINTY_MEASURE_WITH_UNIT(LENGTH_MEASURE(2.044528581089E-3),#624,
'closure',
'Maximum model space distance between geometric entities at asserted connectivities');
#631=(GEOMETRIC_REPRESENTATION_CONTEXT(3)GLOBAL_UNCERTAINTY_ASSIGNED_CONTEXT((
#630))GLOBAL_UNIT_ASSIGNED_CONTEXT((#624,#628,#629))REPRESENTATION_CONTEXT
('ID1','3'));
#633=APPLICATION_CONTEXT(
'CONFIGURATION CONTROLLED 3D DESIGNS OF MECHANICAL PARTS AND ASSEMBLIES');
#634=APPLICATION_PROTOCOL_DEFINITION('international standard',
'config_control_design',1994,#633);
#635=DESIGN_CONTEXT('',#633,'design');
#636=MECHANICAL_CONTEXT('',#633,'mechanical');
#637=PRODUCT('ANTENNA_PCB_COVER_ANY_PRT','ANTENNA_PCB_COVER_ANY_PRT',
'NOT SPECIFIED',(#636));
#638=PRODUCT_DEFINITION_FORMATION_WITH_SPECIFIED_SOURCE('1','LAST_VERSION',#637,
.MADE.);
#642=PRODUCT_CATEGORY('part','');
#643=PRODUCT_RELATED_PRODUCT_CATEGORY('detail','',(#637));
#644=PRODUCT_CATEGORY_RELATIONSHIP('','',#642,#643);
#645=SECURITY_CLASSIFICATION_LEVEL('unclassified');
#646=SECURITY_CLASSIFICATION('','',#645);
#647=CC_DESIGN_SECURITY_CLASSIFICATION(#646,(#638));
#648=APPROVAL_STATUS('approved');
#649=APPROVAL(#648,'');
#650=CC_DESIGN_APPROVAL(#649,(#646,#638,#639));
#651=CALENDAR_DATE(108,30,6);
#652=COORDINATED_UNIVERSAL_TIME_OFFSET(3,0,.BEHIND.);
#653=LOCAL_TIME(11,3,1.6E1,#652);
#654=DATE_AND_TIME(#651,#653);
#655=APPROVAL_DATE_TIME(#654,#649);
#656=DATE_TIME_ROLE('creation_date');
#657=CC_DESIGN_DATE_AND_TIME_ASSIGNMENT(#654,#656,(#639));
#658=DATE_TIME_ROLE('classification_date');
#659=CC_DESIGN_DATE_AND_TIME_ASSIGNMENT(#654,#658,(#646));
#660=PERSON('UNSPECIFIED','UNSPECIFIED',$,$,$,$);
#661=ORGANIZATION('UNSPECIFIED','UNSPECIFIED','UNSPECIFIED');
#662=PERSON_AND_ORGANIZATION(#660,#661);
#663=APPROVAL_ROLE('approver');
#664=APPROVAL_PERSON_ORGANIZATION(#662,#649,#663);
#665=PERSON_AND_ORGANIZATION_ROLE('creator');
#666=CC_DESIGN_PERSON_AND_ORGANIZATION_ASSIGNMENT(#662,#665,(#638,#639));
#667=PERSON_AND_ORGANIZATION_ROLE('design_supplier');
#668=CC_DESIGN_PERSON_AND_ORGANIZATION_ASSIGNMENT(#662,#667,(#638));
#669=PERSON_AND_ORGANIZATION_ROLE('classification_officer');
#670=CC_DESIGN_PERSON_AND_ORGANIZATION_ASSIGNMENT(#662,#669,(#646));
#671=PERSON_AND_ORGANIZATION_ROLE('design_owner');
#672=CC_DESIGN_PERSON_AND_ORGANIZATION_ASSIGNMENT(#662,#671,(#637));
#38=CIRCLE('',#37,5.676750119721E-1);
#107=CIRCLE('',#106,7.136510941645E-1);
#160=CIRCLE('',#159,7.136510941645E-1);
#173=CIRCLE('',#172,5.676750119721E-1);
#297=EDGE_CURVE('',#259,#236,#5,.T.);
#299=EDGE_CURVE('',#258,#259,#9,.T.);
#301=EDGE_CURVE('',#255,#258,#13,.T.);
#303=EDGE_CURVE('',#253,#255,#17,.T.);
#305=EDGE_CURVE('',#261,#253,#21,.T.);
#307=EDGE_CURVE('',#261,#263,#70,.T.);
#309=EDGE_CURVE('',#246,#263,#25,.T.);
#311=EDGE_CURVE('',#246,#237,#209,.T.);
#313=EDGE_CURVE('',#236,#237,#29,.T.);
#324=EDGE_CURVE('',#236,#241,#58,.T.);
#326=EDGE_CURVE('',#267,#241,#33,.T.);
#328=EDGE_CURVE('',#266,#267,#38,.T.);
#330=EDGE_CURVE('',#275,#266,#42,.T.);
#332=EDGE_CURVE('',#259,#275,#46,.T.);
#343=EDGE_CURVE('',#237,#231,#66,.T.);
#345=EDGE_CURVE('',#225,#231,#50,.T.);
#347=EDGE_CURVE('',#233,#225,#54,.T.);
#349=EDGE_CURVE('',#233,#241,#185,.T.);
#360=EDGE_CURVE('',#289,#239,#82,.T.);
#362=EDGE_CURVE('',#231,#239,#62,.T.);
#365=EDGE_CURVE('',#237,#243,#213,.T.);
#367=EDGE_CURVE('',#243,#289,#201,.T.);
#378=EDGE_CURVE('',#277,#261,#74,.T.);
#380=EDGE_CURVE('',#277,#269,#193,.T.);
#382=EDGE_CURVE('',#269,#285,#164,.T.);
#384=EDGE_CURVE('',#285,#287,#155,.T.);
#386=EDGE_CURVE('',#239,#287,#78,.T.);
#389=EDGE_CURVE('',#289,#291,#197,.T.);
#391=EDGE_CURVE('',#263,#291,#86,.T.);
#403=EDGE_CURVE('',#250,#253,#90,.T.);
#405=EDGE_CURVE('',#277,#250,#94,.T.);
#416=EDGE_CURVE('',#255,#251,#115,.T.);
#418=EDGE_CURVE('',#250,#251,#98,.T.);
#430=EDGE_CURVE('',#258,#273,#123,.T.);
#432=EDGE_CURVE('',#271,#273,#102,.T.);
#434=EDGE_CURVE('',#269,#271,#107,.T.);
#436=EDGE_CURVE('',#251,#269,#111,.T.);
#449=EDGE_CURVE('',#273,#275,#119,.T.);
#460=EDGE_CURVE('',#280,#266,#127,.T.);
#462=EDGE_CURVE('',#283,#280,#131,.T.);
#464=EDGE_CURVE('',#283,#271,#168,.T.);
#477=EDGE_CURVE('',#228,#224,#147,.T.);
#479=EDGE_CURVE('',#281,#224,#135,.T.);
#481=EDGE_CURVE('',#280,#281,#139,.T.);
#484=EDGE_CURVE('',#266,#228,#177,.T.);
#495=EDGE_CURVE('',#224,#225,#143,.T.);
#498=EDGE_CURVE('',#228,#229,#173,.T.);
#500=EDGE_CURVE('',#229,#233,#189,.T.);
#515=EDGE_CURVE('',#287,#281,#151,.T.);
#528=EDGE_CURVE('',#285,#283,#160,.T.);
#554=EDGE_CURVE('',#229,#267,#181,.T.);
#590=EDGE_CURVE('',#247,#243,#205,.T.);
#592=EDGE_CURVE('',#247,#291,#217,.T.);
#603=EDGE_CURVE('',#246,#247,#221,.T.);
#632=ADVANCED_BREP_SHAPE_REPRESENTATION('',(#623),#631);
#639=PRODUCT_DEFINITION('design','',#638,#635);
#640=PRODUCT_DEFINITION_SHAPE('','SHAPE FOR ANTENNA_PCB_COVER_ANY_PRT.',#639);
#641=SHAPE_DEFINITION_REPRESENTATION(#640,#632);
ENDSEC;
END-ISO-10303-21;
