ISO-10303-21;
HEADER;
FILE_DESCRIPTION((''),'2;1');
FILE_NAME('BATTERY-1200MAH-WELLDONE_PRT','2008-06-30T',('GRA'),(''),
'PRO/ENGINEER BY PARAMETRIC TECHNOLOGY CORPORATION, 2006170',
'PRO/ENGINEER BY PARAMETRIC TECHNOLOGY CORPORATION, 2006170','');
FILE_SCHEMA(('CONFIG_CONTROL_DESIGN'));
ENDSEC;
DATA;
#2=DIRECTION('',(1.E0,0.E0,0.E0));
#3=VECTOR('',#2,2.84E1);
#4=CARTESIAN_POINT('',(-1.42E1,0.E0,0.E0));
#5=LINE('',#4,#3);
#6=DIRECTION('',(-1.E0,0.E0,0.E0));
#7=VECTOR('',#6,2.84E1);
#8=CARTESIAN_POINT('',(1.42E1,5.38E1,0.E0));
#9=LINE('',#8,#7);
#10=DIRECTION('',(0.E0,0.E0,1.E0));
#11=VECTOR('',#10,8.E-1);
#12=CARTESIAN_POINT('',(-1.73E1,0.E0,3.1E0));
#13=LINE('',#12,#11);
#14=DIRECTION('',(0.E0,1.E0,0.E0));
#15=VECTOR('',#14,5.2E1);
#16=CARTESIAN_POINT('',(1.73E1,0.E0,3.9E0));
#17=LINE('',#16,#15);
#18=CARTESIAN_POINT('',(1.42E1,0.E0,3.9E0));
#19=DIRECTION('',(0.E0,1.E0,0.E0));
#20=DIRECTION('',(0.E0,0.E0,1.E0));
#21=AXIS2_PLACEMENT_3D('',#18,#19,#20);
#23=DIRECTION('',(0.E0,1.E0,0.E0));
#24=VECTOR('',#23,5.38E1);
#25=CARTESIAN_POINT('',(1.42E1,0.E0,7.E0));
#26=LINE('',#25,#24);
#27=CARTESIAN_POINT('',(1.42E1,5.38E1,3.9E0));
#28=DIRECTION('',(0.E0,-1.E0,0.E0));
#29=DIRECTION('',(2.580645161290E-1,0.E0,9.661276859272E-1));
#30=AXIS2_PLACEMENT_3D('',#27,#28,#29);
#32=CARTESIAN_POINT('',(1.42E1,5.2E1,3.9E0));
#33=DIRECTION('',(0.E0,1.E0,0.E0));
#34=DIRECTION('',(2.580645161290E-1,0.E0,9.661276859272E-1));
#35=AXIS2_PLACEMENT_3D('',#32,#33,#34);
#37=CARTESIAN_POINT('',(1.42E1,5.2E1,3.1E0));
#38=DIRECTION('',(0.E0,-1.E0,0.E0));
#39=DIRECTION('',(9.994795732148E-1,0.E0,-3.225806451613E-2));
#40=AXIS2_PLACEMENT_3D('',#37,#38,#39);
#42=DIRECTION('',(0.E0,0.E0,1.E0));
#43=VECTOR('',#42,7.999999999998E-1);
#44=CARTESIAN_POINT('',(1.73E1,5.2E1,3.1E0));
#45=LINE('',#44,#43);
#46=DIRECTION('',(0.E0,0.E0,1.E0));
#47=VECTOR('',#46,8.E-1);
#48=CARTESIAN_POINT('',(1.73E1,0.E0,3.1E0));
#49=LINE('',#48,#47);
#50=CARTESIAN_POINT('',(1.42E1,5.38E1,3.1E0));
#51=DIRECTION('',(0.E0,1.E0,0.E0));
#52=DIRECTION('',(9.994795732148E-1,0.E0,-3.225806451613E-2));
#53=AXIS2_PLACEMENT_3D('',#50,#51,#52);
#55=DIRECTION('',(0.E0,-1.E0,0.E0));
#56=VECTOR('',#55,5.38E1);
#57=CARTESIAN_POINT('',(1.42E1,5.38E1,0.E0));
#58=LINE('',#57,#56);
#59=CARTESIAN_POINT('',(1.42E1,0.E0,3.1E0));
#60=DIRECTION('',(0.E0,-1.E0,0.E0));
#61=DIRECTION('',(0.E0,0.E0,-1.E0));
#62=AXIS2_PLACEMENT_3D('',#59,#60,#61);
#64=DIRECTION('',(0.E0,-1.E0,0.E0));
#65=VECTOR('',#64,5.2E1);
#66=CARTESIAN_POINT('',(1.73E1,5.2E1,3.1E0));
#67=LINE('',#66,#65);
#68=DIRECTION('',(0.E0,-1.E0,0.E0));
#69=VECTOR('',#68,1.8E0);
#70=CARTESIAN_POINT('',(1.729838667697E1,5.38E1,3.E0));
#71=LINE('',#70,#69);
#72=DIRECTION('',(-1.E0,0.E0,0.E0));
#73=VECTOR('',#72,2.298386676966E0);
#74=CARTESIAN_POINT('',(1.729838667697E1,5.2E1,3.E0));
#75=LINE('',#74,#73);
#76=DIRECTION('',(0.E0,1.E0,0.E0));
#77=VECTOR('',#76,1.8E0);
#78=CARTESIAN_POINT('',(1.5E1,5.2E1,3.E0));
#79=LINE('',#78,#77);
#80=DIRECTION('',(0.E0,-1.E0,0.E0));
#81=VECTOR('',#80,1.8E0);
#82=CARTESIAN_POINT('',(-1.5E1,5.38E1,3.E0));
#83=LINE('',#82,#81);
#84=DIRECTION('',(-1.E0,0.E0,0.E0));
#85=VECTOR('',#84,2.298386676966E0);
#86=CARTESIAN_POINT('',(-1.5E1,5.2E1,3.E0));
#87=LINE('',#86,#85);
#88=DIRECTION('',(0.E0,1.E0,0.E0));
#89=VECTOR('',#88,1.8E0);
#90=CARTESIAN_POINT('',(-1.729838667697E1,5.2E1,3.E0));
#91=LINE('',#90,#89);
#92=DIRECTION('',(-1.E0,0.E0,0.E0));
#93=VECTOR('',#92,2.5E0);
#94=CARTESIAN_POINT('',(-1.155E1,5.38E1,7.E-1));
#95=LINE('',#94,#93);
#96=DIRECTION('',(0.E0,0.E0,1.E0));
#97=VECTOR('',#96,3.6E0);
#98=CARTESIAN_POINT('',(-1.405E1,5.38E1,7.E-1));
#99=LINE('',#98,#97);
#100=DIRECTION('',(1.E0,0.E0,0.E0));
#101=VECTOR('',#100,2.5E0);
#102=CARTESIAN_POINT('',(-1.405E1,5.38E1,4.3E0));
#103=LINE('',#102,#101);
#104=DIRECTION('',(0.E0,0.E0,-1.E0));
#105=VECTOR('',#104,3.6E0);
#106=CARTESIAN_POINT('',(-1.155E1,5.38E1,4.3E0));
#107=LINE('',#106,#105);
#108=DIRECTION('',(-1.E0,0.E0,0.E0));
#109=VECTOR('',#108,2.5E0);
#110=CARTESIAN_POINT('',(-8.45E0,5.38E1,7.E-1));
#111=LINE('',#110,#109);
#112=DIRECTION('',(0.E0,0.E0,1.E0));
#113=VECTOR('',#112,3.6E0);
#114=CARTESIAN_POINT('',(-1.095E1,5.38E1,7.E-1));
#115=LINE('',#114,#113);
#116=DIRECTION('',(1.E0,0.E0,0.E0));
#117=VECTOR('',#116,2.5E0);
#118=CARTESIAN_POINT('',(-1.095E1,5.38E1,4.3E0));
#119=LINE('',#118,#117);
#120=DIRECTION('',(0.E0,0.E0,-1.E0));
#121=VECTOR('',#120,3.6E0);
#122=CARTESIAN_POINT('',(-8.45E0,5.38E1,4.3E0));
#123=LINE('',#122,#121);
#124=DIRECTION('',(0.E0,0.E0,1.E0));
#125=VECTOR('',#124,3.6E0);
#126=CARTESIAN_POINT('',(-7.85E0,5.38E1,7.E-1));
#127=LINE('',#126,#125);
#128=DIRECTION('',(1.E0,0.E0,0.E0));
#129=VECTOR('',#128,2.5E0);
#130=CARTESIAN_POINT('',(-7.85E0,5.38E1,4.3E0));
#131=LINE('',#130,#129);
#132=DIRECTION('',(0.E0,0.E0,-1.E0));
#133=VECTOR('',#132,3.6E0);
#134=CARTESIAN_POINT('',(-5.35E0,5.38E1,4.3E0));
#135=LINE('',#134,#133);
#136=DIRECTION('',(-1.E0,0.E0,0.E0));
#137=VECTOR('',#136,2.5E0);
#138=CARTESIAN_POINT('',(-5.35E0,5.38E1,7.E-1));
#139=LINE('',#138,#137);
#140=DIRECTION('',(-1.E0,0.E0,0.E0));
#141=VECTOR('',#140,2.298386676966E0);
#142=CARTESIAN_POINT('',(1.729838667697E1,5.38E1,3.E0));
#143=LINE('',#142,#141);
#144=DIRECTION('',(0.E0,0.E0,-1.E0));
#145=VECTOR('',#144,3.894995826374E0);
#146=CARTESIAN_POINT('',(1.5E1,5.38E1,6.894995826374E0));
#147=LINE('',#146,#145);
#148=DIRECTION('',(0.E0,0.E0,-1.E0));
#149=VECTOR('',#148,3.894995826374E0);
#150=CARTESIAN_POINT('',(-1.5E1,5.38E1,6.894995826374E0));
#151=LINE('',#150,#149);
#152=DIRECTION('',(-1.E0,0.E0,0.E0));
#153=VECTOR('',#152,2.298386676966E0);
#154=CARTESIAN_POINT('',(-1.5E1,5.38E1,3.E0));
#155=LINE('',#154,#153);
#156=DIRECTION('',(0.E0,-1.E0,0.E0));
#157=VECTOR('',#156,7.E-1);
#158=CARTESIAN_POINT('',(-1.155E1,5.38E1,7.E-1));
#159=LINE('',#158,#157);
#160=DIRECTION('',(0.E0,-1.E0,0.E0));
#161=VECTOR('',#160,7.E-1);
#162=CARTESIAN_POINT('',(-1.155E1,5.38E1,4.3E0));
#163=LINE('',#162,#161);
#164=DIRECTION('',(0.E0,-1.E0,0.E0));
#165=VECTOR('',#164,7.E-1);
#166=CARTESIAN_POINT('',(-1.405E1,5.38E1,4.3E0));
#167=LINE('',#166,#165);
#168=DIRECTION('',(0.E0,-1.E0,0.E0));
#169=VECTOR('',#168,7.E-1);
#170=CARTESIAN_POINT('',(-1.405E1,5.38E1,7.E-1));
#171=LINE('',#170,#169);
#172=DIRECTION('',(-1.E0,0.E0,0.E0));
#173=VECTOR('',#172,2.5E0);
#174=CARTESIAN_POINT('',(-1.155E1,5.31E1,7.E-1));
#175=LINE('',#174,#173);
#176=DIRECTION('',(0.E0,0.E0,-1.E0));
#177=VECTOR('',#176,3.6E0);
#178=CARTESIAN_POINT('',(-1.155E1,5.31E1,4.3E0));
#179=LINE('',#178,#177);
#180=DIRECTION('',(1.E0,0.E0,0.E0));
#181=VECTOR('',#180,2.5E0);
#182=CARTESIAN_POINT('',(-1.405E1,5.31E1,4.3E0));
#183=LINE('',#182,#181);
#184=DIRECTION('',(0.E0,0.E0,1.E0));
#185=VECTOR('',#184,3.6E0);
#186=CARTESIAN_POINT('',(-1.405E1,5.31E1,7.E-1));
#187=LINE('',#186,#185);
#188=DIRECTION('',(-1.E0,0.E0,0.E0));
#189=VECTOR('',#188,2.5E0);
#190=CARTESIAN_POINT('',(-8.45E0,5.31E1,7.E-1));
#191=LINE('',#190,#189);
#192=DIRECTION('',(0.E0,0.E0,-1.E0));
#193=VECTOR('',#192,3.6E0);
#194=CARTESIAN_POINT('',(-8.45E0,5.31E1,4.3E0));
#195=LINE('',#194,#193);
#196=DIRECTION('',(1.E0,0.E0,0.E0));
#197=VECTOR('',#196,2.5E0);
#198=CARTESIAN_POINT('',(-1.095E1,5.31E1,4.3E0));
#199=LINE('',#198,#197);
#200=DIRECTION('',(0.E0,0.E0,1.E0));
#201=VECTOR('',#200,3.6E0);
#202=CARTESIAN_POINT('',(-1.095E1,5.31E1,7.E-1));
#203=LINE('',#202,#201);
#204=DIRECTION('',(0.E0,0.E0,1.E0));
#205=VECTOR('',#204,3.6E0);
#206=CARTESIAN_POINT('',(-7.85E0,5.31E1,7.E-1));
#207=LINE('',#206,#205);
#208=DIRECTION('',(-1.E0,0.E0,0.E0));
#209=VECTOR('',#208,2.5E0);
#210=CARTESIAN_POINT('',(-5.35E0,5.31E1,7.E-1));
#211=LINE('',#210,#209);
#212=DIRECTION('',(0.E0,0.E0,-1.E0));
#213=VECTOR('',#212,3.6E0);
#214=CARTESIAN_POINT('',(-5.35E0,5.31E1,4.3E0));
#215=LINE('',#214,#213);
#216=DIRECTION('',(1.E0,0.E0,0.E0));
#217=VECTOR('',#216,2.5E0);
#218=CARTESIAN_POINT('',(-7.85E0,5.31E1,4.3E0));
#219=LINE('',#218,#217);
#220=DIRECTION('',(0.E0,-1.E0,0.E0));
#221=VECTOR('',#220,7.E-1);
#222=CARTESIAN_POINT('',(-8.45E0,5.38E1,7.E-1));
#223=LINE('',#222,#221);
#224=DIRECTION('',(0.E0,-1.E0,0.E0));
#225=VECTOR('',#224,7.E-1);
#226=CARTESIAN_POINT('',(-8.45E0,5.38E1,4.3E0));
#227=LINE('',#226,#225);
#228=DIRECTION('',(0.E0,-1.E0,0.E0));
#229=VECTOR('',#228,7.E-1);
#230=CARTESIAN_POINT('',(-1.095E1,5.38E1,4.3E0));
#231=LINE('',#230,#229);
#232=DIRECTION('',(0.E0,-1.E0,0.E0));
#233=VECTOR('',#232,7.E-1);
#234=CARTESIAN_POINT('',(-1.095E1,5.38E1,7.E-1));
#235=LINE('',#234,#233);
#236=DIRECTION('',(0.E0,-1.E0,0.E0));
#237=VECTOR('',#236,7.E-1);
#238=CARTESIAN_POINT('',(-7.85E0,5.38E1,7.E-1));
#239=LINE('',#238,#237);
#240=DIRECTION('',(0.E0,-1.E0,0.E0));
#241=VECTOR('',#240,7.E-1);
#242=CARTESIAN_POINT('',(-5.35E0,5.38E1,7.E-1));
#243=LINE('',#242,#241);
#244=DIRECTION('',(0.E0,-1.E0,0.E0));
#245=VECTOR('',#244,7.E-1);
#246=CARTESIAN_POINT('',(-5.35E0,5.38E1,4.3E0));
#247=LINE('',#246,#245);
#248=DIRECTION('',(0.E0,-1.E0,0.E0));
#249=VECTOR('',#248,7.E-1);
#250=CARTESIAN_POINT('',(-7.85E0,5.38E1,4.3E0));
#251=LINE('',#250,#249);
#252=DIRECTION('',(0.E0,0.E0,1.E0));
#253=VECTOR('',#252,3.894995826374E0);
#254=CARTESIAN_POINT('',(1.5E1,5.2E1,3.E0));
#255=LINE('',#254,#253);
#256=DIRECTION('',(0.E0,1.E0,0.E0));
#257=VECTOR('',#256,1.8E0);
#258=CARTESIAN_POINT('',(1.5E1,5.2E1,6.894995826374E0));
#259=LINE('',#258,#257);
#260=DIRECTION('',(1.E0,0.E0,0.E0));
#261=VECTOR('',#260,2.84E1);
#262=CARTESIAN_POINT('',(-1.42E1,0.E0,7.E0));
#263=LINE('',#262,#261);
#264=DIRECTION('',(-1.E0,0.E0,0.E0));
#265=VECTOR('',#264,2.84E1);
#266=CARTESIAN_POINT('',(1.42E1,5.38E1,7.E0));
#267=LINE('',#266,#265);
#268=CARTESIAN_POINT('',(-1.42E1,5.38E1,3.9E0));
#269=DIRECTION('',(0.E0,-1.E0,0.E0));
#270=DIRECTION('',(0.E0,0.E0,1.E0));
#271=AXIS2_PLACEMENT_3D('',#268,#269,#270);
#273=DIRECTION('',(0.E0,-1.E0,0.E0));
#274=VECTOR('',#273,5.38E1);
#275=CARTESIAN_POINT('',(-1.42E1,5.38E1,7.E0));
#276=LINE('',#275,#274);
#277=CARTESIAN_POINT('',(-1.42E1,0.E0,3.9E0));
#278=DIRECTION('',(0.E0,1.E0,0.E0));
#279=DIRECTION('',(-1.E0,0.E0,0.E0));
#280=AXIS2_PLACEMENT_3D('',#277,#278,#279);
#282=DIRECTION('',(0.E0,-1.E0,0.E0));
#283=VECTOR('',#282,5.2E1);
#284=CARTESIAN_POINT('',(-1.73E1,5.2E1,3.9E0));
#285=LINE('',#284,#283);
#286=DIRECTION('',(0.E0,-1.E0,0.E0));
#287=VECTOR('',#286,1.8E0);
#288=CARTESIAN_POINT('',(-1.5E1,5.38E1,6.894995826374E0));
#289=LINE('',#288,#287);
#290=CARTESIAN_POINT('',(-1.42E1,5.2E1,3.1E0));
#291=DIRECTION('',(0.E0,1.E0,0.E0));
#292=DIRECTION('',(-9.994795732148E-1,0.E0,-3.225806451613E-2));
#293=AXIS2_PLACEMENT_3D('',#290,#291,#292);
#295=DIRECTION('',(0.E0,0.E0,1.E0));
#296=VECTOR('',#295,3.894995826374E0);
#297=CARTESIAN_POINT('',(-1.5E1,5.2E1,3.E0));
#298=LINE('',#297,#296);
#299=CARTESIAN_POINT('',(-1.42E1,5.2E1,3.9E0));
#300=DIRECTION('',(0.E0,-1.E0,0.E0));
#301=DIRECTION('',(-2.580645161290E-1,0.E0,9.661276859272E-1));
#302=AXIS2_PLACEMENT_3D('',#299,#300,#301);
#304=DIRECTION('',(0.E0,0.E0,1.E0));
#305=VECTOR('',#304,7.999999999998E-1);
#306=CARTESIAN_POINT('',(-1.73E1,5.2E1,3.1E0));
#307=LINE('',#306,#305);
#308=DIRECTION('',(0.E0,1.E0,0.E0));
#309=VECTOR('',#308,5.2E1);
#310=CARTESIAN_POINT('',(-1.73E1,0.E0,3.1E0));
#311=LINE('',#310,#309);
#312=CARTESIAN_POINT('',(-1.42E1,0.E0,3.1E0));
#313=DIRECTION('',(0.E0,-1.E0,0.E0));
#314=DIRECTION('',(-1.E0,0.E0,0.E0));
#315=AXIS2_PLACEMENT_3D('',#312,#313,#314);
#317=DIRECTION('',(0.E0,1.E0,0.E0));
#318=VECTOR('',#317,5.38E1);
#319=CARTESIAN_POINT('',(-1.42E1,0.E0,0.E0));
#320=LINE('',#319,#318);
#321=CARTESIAN_POINT('',(-1.42E1,5.38E1,3.1E0));
#322=DIRECTION('',(0.E0,1.E0,0.E0));
#323=DIRECTION('',(0.E0,0.E0,-1.E0));
#324=AXIS2_PLACEMENT_3D('',#321,#322,#323);
#326=CARTESIAN_POINT('',(-1.155E1,5.31E1,7.E-1));
#327=CARTESIAN_POINT('',(-1.405E1,5.31E1,7.E-1));
#328=VERTEX_POINT('',#326);
#329=VERTEX_POINT('',#327);
#330=CARTESIAN_POINT('',(-1.405E1,5.31E1,4.3E0));
#331=VERTEX_POINT('',#330);
#332=CARTESIAN_POINT('',(-1.155E1,5.31E1,4.3E0));
#333=VERTEX_POINT('',#332);
#334=CARTESIAN_POINT('',(-8.45E0,5.31E1,7.E-1));
#335=CARTESIAN_POINT('',(-1.095E1,5.31E1,7.E-1));
#336=VERTEX_POINT('',#334);
#337=VERTEX_POINT('',#335);
#338=CARTESIAN_POINT('',(-1.095E1,5.31E1,4.3E0));
#339=VERTEX_POINT('',#338);
#340=CARTESIAN_POINT('',(-8.45E0,5.31E1,4.3E0));
#341=VERTEX_POINT('',#340);
#342=CARTESIAN_POINT('',(-7.85E0,5.31E1,7.E-1));
#343=CARTESIAN_POINT('',(-7.85E0,5.31E1,4.3E0));
#344=VERTEX_POINT('',#342);
#345=VERTEX_POINT('',#343);
#346=CARTESIAN_POINT('',(-5.35E0,5.31E1,4.3E0));
#347=VERTEX_POINT('',#346);
#348=CARTESIAN_POINT('',(-5.35E0,5.31E1,7.E-1));
#349=VERTEX_POINT('',#348);
#350=CARTESIAN_POINT('',(-1.155E1,5.38E1,7.E-1));
#351=CARTESIAN_POINT('',(-1.405E1,5.38E1,7.E-1));
#352=VERTEX_POINT('',#350);
#353=VERTEX_POINT('',#351);
#354=CARTESIAN_POINT('',(-1.405E1,5.38E1,4.3E0));
#355=VERTEX_POINT('',#354);
#356=CARTESIAN_POINT('',(-1.155E1,5.38E1,4.3E0));
#357=VERTEX_POINT('',#356);
#358=CARTESIAN_POINT('',(-8.45E0,5.38E1,7.E-1));
#359=CARTESIAN_POINT('',(-1.095E1,5.38E1,7.E-1));
#360=VERTEX_POINT('',#358);
#361=VERTEX_POINT('',#359);
#362=CARTESIAN_POINT('',(-1.095E1,5.38E1,4.3E0));
#363=VERTEX_POINT('',#362);
#364=CARTESIAN_POINT('',(-8.45E0,5.38E1,4.3E0));
#365=VERTEX_POINT('',#364);
#366=CARTESIAN_POINT('',(-7.85E0,5.38E1,7.E-1));
#367=CARTESIAN_POINT('',(-7.85E0,5.38E1,4.3E0));
#368=VERTEX_POINT('',#366);
#369=VERTEX_POINT('',#367);
#370=CARTESIAN_POINT('',(-5.35E0,5.38E1,4.3E0));
#371=VERTEX_POINT('',#370);
#372=CARTESIAN_POINT('',(-5.35E0,5.38E1,7.E-1));
#373=VERTEX_POINT('',#372);
#374=CARTESIAN_POINT('',(1.42E1,0.E0,7.E0));
#375=CARTESIAN_POINT('',(1.73E1,0.E0,3.9E0));
#376=VERTEX_POINT('',#374);
#377=VERTEX_POINT('',#375);
#378=CARTESIAN_POINT('',(1.42E1,5.38E1,7.E0));
#379=VERTEX_POINT('',#378);
#380=CARTESIAN_POINT('',(-1.73E1,0.E0,3.9E0));
#381=CARTESIAN_POINT('',(-1.42E1,0.E0,7.E0));
#382=VERTEX_POINT('',#380);
#383=VERTEX_POINT('',#381);
#384=CARTESIAN_POINT('',(-1.42E1,5.38E1,7.E0));
#385=VERTEX_POINT('',#384);
#386=CARTESIAN_POINT('',(-1.42E1,0.E0,0.E0));
#387=CARTESIAN_POINT('',(1.42E1,0.E0,0.E0));
#388=VERTEX_POINT('',#386);
#389=VERTEX_POINT('',#387);
#390=CARTESIAN_POINT('',(1.42E1,5.38E1,0.E0));
#391=CARTESIAN_POINT('',(-1.42E1,5.38E1,0.E0));
#392=VERTEX_POINT('',#390);
#393=VERTEX_POINT('',#391);
#394=CARTESIAN_POINT('',(1.73E1,0.E0,3.1E0));
#395=VERTEX_POINT('',#394);
#396=CARTESIAN_POINT('',(-1.73E1,0.E0,3.1E0));
#397=VERTEX_POINT('',#396);
#398=CARTESIAN_POINT('',(1.73E1,5.2E1,3.1E0));
#399=CARTESIAN_POINT('',(1.73E1,5.2E1,3.9E0));
#400=VERTEX_POINT('',#398);
#401=VERTEX_POINT('',#399);
#402=CARTESIAN_POINT('',(1.729838667697E1,5.38E1,3.E0));
#403=CARTESIAN_POINT('',(1.5E1,5.38E1,3.E0));
#404=VERTEX_POINT('',#402);
#405=VERTEX_POINT('',#403);
#406=CARTESIAN_POINT('',(-1.5E1,5.38E1,3.E0));
#407=CARTESIAN_POINT('',(-1.729838667697E1,5.38E1,3.E0));
#408=VERTEX_POINT('',#406);
#409=VERTEX_POINT('',#407);
#410=CARTESIAN_POINT('',(-1.5E1,5.38E1,6.894995826374E0));
#411=VERTEX_POINT('',#410);
#412=CARTESIAN_POINT('',(1.5E1,5.38E1,6.894995826374E0));
#413=VERTEX_POINT('',#412);
#414=CARTESIAN_POINT('',(-1.73E1,5.2E1,3.1E0));
#415=CARTESIAN_POINT('',(-1.73E1,5.2E1,3.9E0));
#416=VERTEX_POINT('',#414);
#417=VERTEX_POINT('',#415);
#418=CARTESIAN_POINT('',(1.5E1,5.2E1,6.894995826374E0));
#419=VERTEX_POINT('',#418);
#420=CARTESIAN_POINT('',(1.729838667697E1,5.2E1,3.E0));
#421=VERTEX_POINT('',#420);
#422=CARTESIAN_POINT('',(-1.5E1,5.2E1,6.894995826374E0));
#423=VERTEX_POINT('',#422);
#424=CARTESIAN_POINT('',(-1.729838667697E1,5.2E1,3.E0));
#425=VERTEX_POINT('',#424);
#426=CARTESIAN_POINT('',(-1.5E1,5.2E1,3.E0));
#427=VERTEX_POINT('',#426);
#428=CARTESIAN_POINT('',(1.5E1,5.2E1,3.E0));
#429=VERTEX_POINT('',#428);
#430=CARTESIAN_POINT('',(0.E0,0.E0,0.E0));
#431=DIRECTION('',(0.E0,0.E0,1.E0));
#432=DIRECTION('',(1.E0,0.E0,0.E0));
#433=AXIS2_PLACEMENT_3D('',#430,#431,#432);
#434=PLANE('',#433);
#436=ORIENTED_EDGE('',*,*,#435,.T.);
#438=ORIENTED_EDGE('',*,*,#437,.F.);
#440=ORIENTED_EDGE('',*,*,#439,.T.);
#442=ORIENTED_EDGE('',*,*,#441,.F.);
#443=EDGE_LOOP('',(#436,#438,#440,#442));
#444=FACE_OUTER_BOUND('',#443,.F.);
#445=ADVANCED_FACE('',(#444),#434,.F.);
#446=CARTESIAN_POINT('',(-1.73E1,0.E0,0.E0));
#447=DIRECTION('',(0.E0,-1.E0,0.E0));
#448=DIRECTION('',(1.E0,0.E0,0.E0));
#449=AXIS2_PLACEMENT_3D('',#446,#447,#448);
#450=PLANE('',#449);
#452=ORIENTED_EDGE('',*,*,#451,.T.);
#454=ORIENTED_EDGE('',*,*,#453,.F.);
#456=ORIENTED_EDGE('',*,*,#455,.F.);
#457=ORIENTED_EDGE('',*,*,#435,.F.);
#459=ORIENTED_EDGE('',*,*,#458,.F.);
#461=ORIENTED_EDGE('',*,*,#460,.T.);
#463=ORIENTED_EDGE('',*,*,#462,.T.);
#465=ORIENTED_EDGE('',*,*,#464,.T.);
#466=EDGE_LOOP('',(#452,#454,#456,#457,#459,#461,#463,#465));
#467=FACE_OUTER_BOUND('',#466,.F.);
#468=ADVANCED_FACE('',(#467),#450,.T.);
#469=CARTESIAN_POINT('',(1.42E1,-1.061047335564E-1,3.9E0));
#470=DIRECTION('',(0.E0,1.E0,0.E0));
#471=DIRECTION('',(0.E0,0.E0,1.E0));
#472=AXIS2_PLACEMENT_3D('',#469,#470,#471);
#473=CYLINDRICAL_SURFACE('',#472,3.1E0);
#475=ORIENTED_EDGE('',*,*,#474,.T.);
#477=ORIENTED_EDGE('',*,*,#476,.F.);
#478=ORIENTED_EDGE('',*,*,#451,.F.);
#480=ORIENTED_EDGE('',*,*,#479,.T.);
#482=ORIENTED_EDGE('',*,*,#481,.F.);
#484=ORIENTED_EDGE('',*,*,#483,.F.);
#485=EDGE_LOOP('',(#475,#477,#478,#480,#482,#484));
#486=FACE_OUTER_BOUND('',#485,.F.);
#487=ADVANCED_FACE('',(#486),#473,.T.);
#488=CARTESIAN_POINT('',(2.086793267140E1,5.2E1,3.E0));
#489=DIRECTION('',(0.E0,-1.E0,0.E0));
#490=DIRECTION('',(-1.E0,0.E0,0.E0));
#491=AXIS2_PLACEMENT_3D('',#488,#489,#490);
#492=PLANE('',#491);
#494=ORIENTED_EDGE('',*,*,#493,.T.);
#495=ORIENTED_EDGE('',*,*,#474,.F.);
#497=ORIENTED_EDGE('',*,*,#496,.F.);
#499=ORIENTED_EDGE('',*,*,#498,.F.);
#501=ORIENTED_EDGE('',*,*,#500,.T.);
#502=EDGE_LOOP('',(#494,#495,#497,#499,#501));
#503=FACE_OUTER_BOUND('',#502,.F.);
#504=ADVANCED_FACE('',(#503),#492,.F.);
#505=CARTESIAN_POINT('',(1.73E1,0.E0,0.E0));
#506=DIRECTION('',(1.E0,0.E0,0.E0));
#507=DIRECTION('',(0.E0,1.E0,0.E0));
#508=AXIS2_PLACEMENT_3D('',#505,#506,#507);
#509=PLANE('',#508);
#510=ORIENTED_EDGE('',*,*,#493,.F.);
#512=ORIENTED_EDGE('',*,*,#511,.T.);
#513=ORIENTED_EDGE('',*,*,#453,.T.);
#514=ORIENTED_EDGE('',*,*,#476,.T.);
#515=EDGE_LOOP('',(#510,#512,#513,#514));
#516=FACE_OUTER_BOUND('',#515,.F.);
#517=ADVANCED_FACE('',(#516),#509,.T.);
#518=CARTESIAN_POINT('',(1.42E1,5.391009833099E1,3.1E0));
#519=DIRECTION('',(0.E0,-1.E0,0.E0));
#520=DIRECTION('',(0.E0,0.E0,-1.E0));
#521=AXIS2_PLACEMENT_3D('',#518,#519,#520);
#522=CYLINDRICAL_SURFACE('',#521,3.1E0);
#524=ORIENTED_EDGE('',*,*,#523,.F.);
#526=ORIENTED_EDGE('',*,*,#525,.T.);
#527=ORIENTED_EDGE('',*,*,#437,.T.);
#528=ORIENTED_EDGE('',*,*,#455,.T.);
#529=ORIENTED_EDGE('',*,*,#511,.F.);
#530=ORIENTED_EDGE('',*,*,#500,.F.);
#531=EDGE_LOOP('',(#524,#526,#527,#528,#529,#530));
#532=FACE_OUTER_BOUND('',#531,.F.);
#533=ADVANCED_FACE('',(#532),#522,.T.);
#534=CARTESIAN_POINT('',(0.E0,0.E0,3.E0));
#535=DIRECTION('',(0.E0,0.E0,-1.E0));
#536=DIRECTION('',(1.E0,0.E0,0.E0));
#537=AXIS2_PLACEMENT_3D('',#534,#535,#536);
#538=PLANE('',#537);
#540=ORIENTED_EDGE('',*,*,#539,.F.);
#541=ORIENTED_EDGE('',*,*,#523,.T.);
#542=ORIENTED_EDGE('',*,*,#498,.T.);
#544=ORIENTED_EDGE('',*,*,#543,.T.);
#545=EDGE_LOOP('',(#540,#541,#542,#544));
#546=FACE_OUTER_BOUND('',#545,.F.);
#547=ADVANCED_FACE('',(#546),#538,.F.);
#548=CARTESIAN_POINT('',(0.E0,0.E0,3.E0));
#549=DIRECTION('',(0.E0,0.E0,-1.E0));
#550=DIRECTION('',(1.E0,0.E0,0.E0));
#551=AXIS2_PLACEMENT_3D('',#548,#549,#550);
#552=PLANE('',#551);
#554=ORIENTED_EDGE('',*,*,#553,.F.);
#556=ORIENTED_EDGE('',*,*,#555,.T.);
#558=ORIENTED_EDGE('',*,*,#557,.T.);
#560=ORIENTED_EDGE('',*,*,#559,.T.);
#561=EDGE_LOOP('',(#554,#556,#558,#560));
#562=FACE_OUTER_BOUND('',#561,.F.);
#563=ADVANCED_FACE('',(#562),#552,.F.);
#564=CARTESIAN_POINT('',(1.73E1,5.38E1,0.E0));
#565=DIRECTION('',(0.E0,1.E0,0.E0));
#566=DIRECTION('',(-1.E0,0.E0,0.E0));
#567=AXIS2_PLACEMENT_3D('',#564,#565,#566);
#568=PLANE('',#567);
#569=ORIENTED_EDGE('',*,*,#539,.T.);
#571=ORIENTED_EDGE('',*,*,#570,.F.);
#572=ORIENTED_EDGE('',*,*,#481,.T.);
#574=ORIENTED_EDGE('',*,*,#573,.T.);
#576=ORIENTED_EDGE('',*,*,#575,.T.);
#578=ORIENTED_EDGE('',*,*,#577,.T.);
#579=ORIENTED_EDGE('',*,*,#553,.T.);
#581=ORIENTED_EDGE('',*,*,#580,.F.);
#582=ORIENTED_EDGE('',*,*,#439,.F.);
#583=ORIENTED_EDGE('',*,*,#525,.F.);
#584=EDGE_LOOP('',(#569,#571,#572,#574,#576,#578,#579,#581,#582,#583));
#585=FACE_OUTER_BOUND('',#584,.F.);
#587=ORIENTED_EDGE('',*,*,#586,.T.);
#589=ORIENTED_EDGE('',*,*,#588,.T.);
#591=ORIENTED_EDGE('',*,*,#590,.T.);
#593=ORIENTED_EDGE('',*,*,#592,.T.);
#594=EDGE_LOOP('',(#587,#589,#591,#593));
#595=FACE_BOUND('',#594,.F.);
#597=ORIENTED_EDGE('',*,*,#596,.T.);
#599=ORIENTED_EDGE('',*,*,#598,.T.);
#601=ORIENTED_EDGE('',*,*,#600,.T.);
#603=ORIENTED_EDGE('',*,*,#602,.T.);
#604=EDGE_LOOP('',(#597,#599,#601,#603));
#605=FACE_BOUND('',#604,.F.);
#607=ORIENTED_EDGE('',*,*,#606,.T.);
#609=ORIENTED_EDGE('',*,*,#608,.T.);
#611=ORIENTED_EDGE('',*,*,#610,.T.);
#613=ORIENTED_EDGE('',*,*,#612,.T.);
#614=EDGE_LOOP('',(#607,#609,#611,#613));
#615=FACE_BOUND('',#614,.F.);
#616=ADVANCED_FACE('',(#585,#595,#605,#615),#568,.T.);
#617=CARTESIAN_POINT('',(-1.155E1,5.38E1,7.E-1));
#618=DIRECTION('',(0.E0,0.E0,-1.E0));
#619=DIRECTION('',(-1.E0,0.E0,0.E0));
#620=AXIS2_PLACEMENT_3D('',#617,#618,#619);
#621=PLANE('',#620);
#622=ORIENTED_EDGE('',*,*,#586,.F.);
#624=ORIENTED_EDGE('',*,*,#623,.T.);
#626=ORIENTED_EDGE('',*,*,#625,.T.);
#628=ORIENTED_EDGE('',*,*,#627,.F.);
#629=EDGE_LOOP('',(#622,#624,#626,#628));
#630=FACE_OUTER_BOUND('',#629,.F.);
#631=ADVANCED_FACE('',(#630),#621,.F.);
#632=CARTESIAN_POINT('',(-1.155E1,5.38E1,4.3E0));
#633=DIRECTION('',(1.E0,0.E0,0.E0));
#634=DIRECTION('',(0.E0,0.E0,-1.E0));
#635=AXIS2_PLACEMENT_3D('',#632,#633,#634);
#636=PLANE('',#635);
#637=ORIENTED_EDGE('',*,*,#592,.F.);
#639=ORIENTED_EDGE('',*,*,#638,.T.);
#641=ORIENTED_EDGE('',*,*,#640,.T.);
#642=ORIENTED_EDGE('',*,*,#623,.F.);
#643=EDGE_LOOP('',(#637,#639,#641,#642));
#644=FACE_OUTER_BOUND('',#643,.F.);
#645=ADVANCED_FACE('',(#644),#636,.F.);
#646=CARTESIAN_POINT('',(-1.405E1,5.38E1,4.3E0));
#647=DIRECTION('',(0.E0,0.E0,1.E0));
#648=DIRECTION('',(1.E0,0.E0,0.E0));
#649=AXIS2_PLACEMENT_3D('',#646,#647,#648);
#650=PLANE('',#649);
#651=ORIENTED_EDGE('',*,*,#590,.F.);
#653=ORIENTED_EDGE('',*,*,#652,.T.);
#655=ORIENTED_EDGE('',*,*,#654,.T.);
#656=ORIENTED_EDGE('',*,*,#638,.F.);
#657=EDGE_LOOP('',(#651,#653,#655,#656));
#658=FACE_OUTER_BOUND('',#657,.F.);
#659=ADVANCED_FACE('',(#658),#650,.F.);
#660=CARTESIAN_POINT('',(-1.405E1,5.38E1,7.E-1));
#661=DIRECTION('',(-1.E0,0.E0,0.E0));
#662=DIRECTION('',(0.E0,0.E0,1.E0));
#663=AXIS2_PLACEMENT_3D('',#660,#661,#662);
#664=PLANE('',#663);
#665=ORIENTED_EDGE('',*,*,#588,.F.);
#666=ORIENTED_EDGE('',*,*,#627,.T.);
#668=ORIENTED_EDGE('',*,*,#667,.T.);
#669=ORIENTED_EDGE('',*,*,#652,.F.);
#670=EDGE_LOOP('',(#665,#666,#668,#669));
#671=FACE_OUTER_BOUND('',#670,.F.);
#672=ADVANCED_FACE('',(#671),#664,.F.);
#673=CARTESIAN_POINT('',(0.E0,5.31E1,7.E0));
#674=DIRECTION('',(0.E0,1.E0,0.E0));
#675=DIRECTION('',(-1.E0,0.E0,0.E0));
#676=AXIS2_PLACEMENT_3D('',#673,#674,#675);
#677=PLANE('',#676);
#678=ORIENTED_EDGE('',*,*,#625,.F.);
#679=ORIENTED_EDGE('',*,*,#640,.F.);
#680=ORIENTED_EDGE('',*,*,#654,.F.);
#681=ORIENTED_EDGE('',*,*,#667,.F.);
#682=EDGE_LOOP('',(#678,#679,#680,#681));
#683=FACE_OUTER_BOUND('',#682,.F.);
#684=ADVANCED_FACE('',(#683),#677,.T.);
#685=CARTESIAN_POINT('',(0.E0,5.31E1,7.E0));
#686=DIRECTION('',(0.E0,1.E0,0.E0));
#687=DIRECTION('',(-1.E0,0.E0,0.E0));
#688=AXIS2_PLACEMENT_3D('',#685,#686,#687);
#689=PLANE('',#688);
#691=ORIENTED_EDGE('',*,*,#690,.F.);
#693=ORIENTED_EDGE('',*,*,#692,.F.);
#695=ORIENTED_EDGE('',*,*,#694,.F.);
#697=ORIENTED_EDGE('',*,*,#696,.F.);
#698=EDGE_LOOP('',(#691,#693,#695,#697));
#699=FACE_OUTER_BOUND('',#698,.F.);
#700=ADVANCED_FACE('',(#699),#689,.T.);
#701=CARTESIAN_POINT('',(0.E0,5.31E1,7.E0));
#702=DIRECTION('',(0.E0,1.E0,0.E0));
#703=DIRECTION('',(-1.E0,0.E0,0.E0));
#704=AXIS2_PLACEMENT_3D('',#701,#702,#703);
#705=PLANE('',#704);
#707=ORIENTED_EDGE('',*,*,#706,.F.);
#709=ORIENTED_EDGE('',*,*,#708,.F.);
#711=ORIENTED_EDGE('',*,*,#710,.F.);
#713=ORIENTED_EDGE('',*,*,#712,.F.);
#714=EDGE_LOOP('',(#707,#709,#711,#713));
#715=FACE_OUTER_BOUND('',#714,.F.);
#716=ADVANCED_FACE('',(#715),#705,.T.);
#717=CARTESIAN_POINT('',(-8.45E0,5.38E1,7.E-1));
#718=DIRECTION('',(0.E0,0.E0,-1.E0));
#719=DIRECTION('',(-1.E0,0.E0,0.E0));
#720=AXIS2_PLACEMENT_3D('',#717,#718,#719);
#721=PLANE('',#720);
#722=ORIENTED_EDGE('',*,*,#596,.F.);
#724=ORIENTED_EDGE('',*,*,#723,.T.);
#725=ORIENTED_EDGE('',*,*,#690,.T.);
#727=ORIENTED_EDGE('',*,*,#726,.F.);
#728=EDGE_LOOP('',(#722,#724,#725,#727));
#729=FACE_OUTER_BOUND('',#728,.F.);
#730=ADVANCED_FACE('',(#729),#721,.F.);
#731=CARTESIAN_POINT('',(-8.45E0,5.38E1,4.3E0));
#732=DIRECTION('',(1.E0,0.E0,0.E0));
#733=DIRECTION('',(0.E0,0.E0,-1.E0));
#734=AXIS2_PLACEMENT_3D('',#731,#732,#733);
#735=PLANE('',#734);
#736=ORIENTED_EDGE('',*,*,#602,.F.);
#738=ORIENTED_EDGE('',*,*,#737,.T.);
#739=ORIENTED_EDGE('',*,*,#692,.T.);
#740=ORIENTED_EDGE('',*,*,#723,.F.);
#741=EDGE_LOOP('',(#736,#738,#739,#740));
#742=FACE_OUTER_BOUND('',#741,.F.);
#743=ADVANCED_FACE('',(#742),#735,.F.);
#744=CARTESIAN_POINT('',(-1.095E1,5.38E1,4.3E0));
#745=DIRECTION('',(0.E0,0.E0,1.E0));
#746=DIRECTION('',(1.E0,0.E0,0.E0));
#747=AXIS2_PLACEMENT_3D('',#744,#745,#746);
#748=PLANE('',#747);
#749=ORIENTED_EDGE('',*,*,#600,.F.);
#751=ORIENTED_EDGE('',*,*,#750,.T.);
#752=ORIENTED_EDGE('',*,*,#694,.T.);
#753=ORIENTED_EDGE('',*,*,#737,.F.);
#754=EDGE_LOOP('',(#749,#751,#752,#753));
#755=FACE_OUTER_BOUND('',#754,.F.);
#756=ADVANCED_FACE('',(#755),#748,.F.);
#757=CARTESIAN_POINT('',(-1.095E1,5.38E1,7.E-1));
#758=DIRECTION('',(-1.E0,0.E0,0.E0));
#759=DIRECTION('',(0.E0,0.E0,1.E0));
#760=AXIS2_PLACEMENT_3D('',#757,#758,#759);
#761=PLANE('',#760);
#762=ORIENTED_EDGE('',*,*,#598,.F.);
#763=ORIENTED_EDGE('',*,*,#726,.T.);
#764=ORIENTED_EDGE('',*,*,#696,.T.);
#765=ORIENTED_EDGE('',*,*,#750,.F.);
#766=EDGE_LOOP('',(#762,#763,#764,#765));
#767=FACE_OUTER_BOUND('',#766,.F.);
#768=ADVANCED_FACE('',(#767),#761,.F.);
#769=CARTESIAN_POINT('',(-7.85E0,5.38E1,7.E-1));
#770=DIRECTION('',(-1.E0,0.E0,0.E0));
#771=DIRECTION('',(0.E0,0.E0,1.E0));
#772=AXIS2_PLACEMENT_3D('',#769,#770,#771);
#773=PLANE('',#772);
#774=ORIENTED_EDGE('',*,*,#606,.F.);
#776=ORIENTED_EDGE('',*,*,#775,.T.);
#777=ORIENTED_EDGE('',*,*,#706,.T.);
#779=ORIENTED_EDGE('',*,*,#778,.F.);
#780=EDGE_LOOP('',(#774,#776,#777,#779));
#781=FACE_OUTER_BOUND('',#780,.F.);
#782=ADVANCED_FACE('',(#781),#773,.F.);
#783=CARTESIAN_POINT('',(-5.35E0,5.38E1,7.E-1));
#784=DIRECTION('',(0.E0,0.E0,-1.E0));
#785=DIRECTION('',(-1.E0,0.E0,0.E0));
#786=AXIS2_PLACEMENT_3D('',#783,#784,#785);
#787=PLANE('',#786);
#788=ORIENTED_EDGE('',*,*,#612,.F.);
#790=ORIENTED_EDGE('',*,*,#789,.T.);
#791=ORIENTED_EDGE('',*,*,#708,.T.);
#792=ORIENTED_EDGE('',*,*,#775,.F.);
#793=EDGE_LOOP('',(#788,#790,#791,#792));
#794=FACE_OUTER_BOUND('',#793,.F.);
#795=ADVANCED_FACE('',(#794),#787,.F.);
#796=CARTESIAN_POINT('',(-5.35E0,5.38E1,4.3E0));
#797=DIRECTION('',(1.E0,0.E0,0.E0));
#798=DIRECTION('',(0.E0,0.E0,-1.E0));
#799=AXIS2_PLACEMENT_3D('',#796,#797,#798);
#800=PLANE('',#799);
#801=ORIENTED_EDGE('',*,*,#610,.F.);
#803=ORIENTED_EDGE('',*,*,#802,.T.);
#804=ORIENTED_EDGE('',*,*,#710,.T.);
#805=ORIENTED_EDGE('',*,*,#789,.F.);
#806=EDGE_LOOP('',(#801,#803,#804,#805));
#807=FACE_OUTER_BOUND('',#806,.F.);
#808=ADVANCED_FACE('',(#807),#800,.F.);
#809=CARTESIAN_POINT('',(-7.85E0,5.38E1,4.3E0));
#810=DIRECTION('',(0.E0,0.E0,1.E0));
#811=DIRECTION('',(1.E0,0.E0,0.E0));
#812=AXIS2_PLACEMENT_3D('',#809,#810,#811);
#813=PLANE('',#812);
#814=ORIENTED_EDGE('',*,*,#608,.F.);
#815=ORIENTED_EDGE('',*,*,#778,.T.);
#816=ORIENTED_EDGE('',*,*,#712,.T.);
#817=ORIENTED_EDGE('',*,*,#802,.F.);
#818=EDGE_LOOP('',(#814,#815,#816,#817));
#819=FACE_OUTER_BOUND('',#818,.F.);
#820=ADVANCED_FACE('',(#819),#813,.F.);
#821=CARTESIAN_POINT('',(1.5E1,5.2E1,3.E0));
#822=DIRECTION('',(-1.E0,0.E0,0.E0));
#823=DIRECTION('',(0.E0,1.E0,0.E0));
#824=AXIS2_PLACEMENT_3D('',#821,#822,#823);
#825=PLANE('',#824);
#826=ORIENTED_EDGE('',*,*,#570,.T.);
#827=ORIENTED_EDGE('',*,*,#543,.F.);
#828=ORIENTED_EDGE('',*,*,#496,.T.);
#829=ORIENTED_EDGE('',*,*,#483,.T.);
#830=EDGE_LOOP('',(#826,#827,#828,#829));
#831=FACE_OUTER_BOUND('',#830,.F.);
#832=ADVANCED_FACE('',(#831),#825,.F.);
#833=CARTESIAN_POINT('',(0.E0,0.E0,7.E0));
#834=DIRECTION('',(0.E0,0.E0,1.E0));
#835=DIRECTION('',(1.E0,0.E0,0.E0));
#836=AXIS2_PLACEMENT_3D('',#833,#834,#835);
#837=PLANE('',#836);
#838=ORIENTED_EDGE('',*,*,#479,.F.);
#839=ORIENTED_EDGE('',*,*,#464,.F.);
#841=ORIENTED_EDGE('',*,*,#840,.F.);
#842=ORIENTED_EDGE('',*,*,#573,.F.);
#843=EDGE_LOOP('',(#838,#839,#841,#842));
#844=FACE_OUTER_BOUND('',#843,.F.);
#845=ADVANCED_FACE('',(#844),#837,.T.);
#846=CARTESIAN_POINT('',(-1.42E1,5.390819018507E1,3.9E0));
#847=DIRECTION('',(0.E0,-1.E0,0.E0));
#848=DIRECTION('',(0.E0,0.E0,1.E0));
#849=AXIS2_PLACEMENT_3D('',#846,#847,#848);
#850=CYLINDRICAL_SURFACE('',#849,3.1E0);
#852=ORIENTED_EDGE('',*,*,#851,.F.);
#853=ORIENTED_EDGE('',*,*,#575,.F.);
#854=ORIENTED_EDGE('',*,*,#840,.T.);
#855=ORIENTED_EDGE('',*,*,#462,.F.);
#857=ORIENTED_EDGE('',*,*,#856,.F.);
#859=ORIENTED_EDGE('',*,*,#858,.F.);
#860=EDGE_LOOP('',(#852,#853,#854,#855,#857,#859));
#861=FACE_OUTER_BOUND('',#860,.F.);
#862=ADVANCED_FACE('',(#861),#850,.T.);
#863=CARTESIAN_POINT('',(-1.5E1,5.672297019893E1,3.E0));
#864=DIRECTION('',(1.E0,0.E0,0.E0));
#865=DIRECTION('',(0.E0,-1.E0,0.E0));
#866=AXIS2_PLACEMENT_3D('',#863,#864,#865);
#867=PLANE('',#866);
#868=ORIENTED_EDGE('',*,*,#577,.F.);
#869=ORIENTED_EDGE('',*,*,#851,.T.);
#871=ORIENTED_EDGE('',*,*,#870,.F.);
#872=ORIENTED_EDGE('',*,*,#555,.F.);
#873=EDGE_LOOP('',(#868,#869,#871,#872));
#874=FACE_OUTER_BOUND('',#873,.F.);
#875=ADVANCED_FACE('',(#874),#867,.F.);
#876=CARTESIAN_POINT('',(-1.5E1,5.2E1,3.E0));
#877=DIRECTION('',(0.E0,-1.E0,0.E0));
#878=DIRECTION('',(-1.E0,0.E0,0.E0));
#879=AXIS2_PLACEMENT_3D('',#876,#877,#878);
#880=PLANE('',#879);
#882=ORIENTED_EDGE('',*,*,#881,.F.);
#884=ORIENTED_EDGE('',*,*,#883,.F.);
#885=ORIENTED_EDGE('',*,*,#557,.F.);
#886=ORIENTED_EDGE('',*,*,#870,.T.);
#887=ORIENTED_EDGE('',*,*,#858,.T.);
#888=EDGE_LOOP('',(#882,#884,#885,#886,#887));
#889=FACE_OUTER_BOUND('',#888,.F.);
#890=ADVANCED_FACE('',(#889),#880,.F.);
#891=CARTESIAN_POINT('',(-1.73E1,5.38E1,0.E0));
#892=DIRECTION('',(-1.E0,0.E0,0.E0));
#893=DIRECTION('',(0.E0,-1.E0,0.E0));
#894=AXIS2_PLACEMENT_3D('',#891,#892,#893);
#895=PLANE('',#894);
#896=ORIENTED_EDGE('',*,*,#881,.T.);
#897=ORIENTED_EDGE('',*,*,#856,.T.);
#898=ORIENTED_EDGE('',*,*,#460,.F.);
#900=ORIENTED_EDGE('',*,*,#899,.T.);
#901=EDGE_LOOP('',(#896,#897,#898,#900));
#902=FACE_OUTER_BOUND('',#901,.F.);
#903=ADVANCED_FACE('',(#902),#895,.T.);
#904=CARTESIAN_POINT('',(-1.42E1,-1.061047335564E-1,3.1E0));
#905=DIRECTION('',(0.E0,1.E0,0.E0));
#906=DIRECTION('',(0.E0,0.E0,-1.E0));
#907=AXIS2_PLACEMENT_3D('',#904,#905,#906);
#908=CYLINDRICAL_SURFACE('',#907,3.1E0);
#909=ORIENTED_EDGE('',*,*,#559,.F.);
#910=ORIENTED_EDGE('',*,*,#883,.T.);
#911=ORIENTED_EDGE('',*,*,#899,.F.);
#912=ORIENTED_EDGE('',*,*,#458,.T.);
#913=ORIENTED_EDGE('',*,*,#441,.T.);
#914=ORIENTED_EDGE('',*,*,#580,.T.);
#915=EDGE_LOOP('',(#909,#910,#911,#912,#913,#914));
#916=FACE_OUTER_BOUND('',#915,.F.);
#917=ADVANCED_FACE('',(#916),#908,.T.);
#918=CLOSED_SHELL('',(#445,#468,#487,#504,#517,#533,#547,#563,#616,#631,#645,
#659,#672,#684,#700,#716,#730,#743,#756,#768,#782,#795,#808,#820,#832,#845,#862,
#875,#890,#903,#917));
#919=MANIFOLD_SOLID_BREP('',#918);
#920=(LENGTH_UNIT()NAMED_UNIT(*)SI_UNIT(.MILLI.,.METRE.));
#921=DIMENSIONAL_EXPONENTS(0.E0,0.E0,0.E0,0.E0,0.E0,0.E0,0.E0);
#922=(NAMED_UNIT(*)PLANE_ANGLE_UNIT()SI_UNIT($,.RADIAN.));
#923=PLANE_ANGLE_MEASURE_WITH_UNIT(PLANE_ANGLE_MEASURE(1.745329251994E-2),#922);
#924=(CONVERSION_BASED_UNIT('DEGREE',#923)NAMED_UNIT(#921)PLANE_ANGLE_UNIT());
#925=(NAMED_UNIT(*)SI_UNIT($,.STERADIAN.)SOLID_ANGLE_UNIT());
#926=UNCERTAINTY_MEASURE_WITH_UNIT(LENGTH_MEASURE(7.035936285272E-3),#920,
'closure',
'Maximum model space distance between geometric entities at asserted connectivities');
#927=(GEOMETRIC_REPRESENTATION_CONTEXT(3)GLOBAL_UNCERTAINTY_ASSIGNED_CONTEXT((
#926))GLOBAL_UNIT_ASSIGNED_CONTEXT((#920,#924,#925))REPRESENTATION_CONTEXT
('ID1','3'));
#929=APPLICATION_CONTEXT(
'CONFIGURATION CONTROLLED 3D DESIGNS OF MECHANICAL PARTS AND ASSEMBLIES');
#930=APPLICATION_PROTOCOL_DEFINITION('international standard',
'config_control_design',1994,#929);
#931=DESIGN_CONTEXT('',#929,'design');
#932=MECHANICAL_CONTEXT('',#929,'mechanical');
#933=PRODUCT('BATTERY-1200MAH-WELLDONE_PRT','BATTERY-1200MAH-WELLDONE_PRT',
'NOT SPECIFIED',(#932));
#934=PRODUCT_DEFINITION_FORMATION_WITH_SPECIFIED_SOURCE('1','LAST_VERSION',#933,
.MADE.);
#938=PRODUCT_CATEGORY('part','');
#939=PRODUCT_RELATED_PRODUCT_CATEGORY('detail','',(#933));
#940=PRODUCT_CATEGORY_RELATIONSHIP('','',#938,#939);
#941=SECURITY_CLASSIFICATION_LEVEL('unclassified');
#942=SECURITY_CLASSIFICATION('','',#941);
#943=CC_DESIGN_SECURITY_CLASSIFICATION(#942,(#934));
#944=APPROVAL_STATUS('approved');
#945=APPROVAL(#944,'');
#946=CC_DESIGN_APPROVAL(#945,(#942,#934,#935));
#947=CALENDAR_DATE(108,30,6);
#948=COORDINATED_UNIVERSAL_TIME_OFFSET(3,0,.BEHIND.);
#949=LOCAL_TIME(11,3,1.7E1,#948);
#950=DATE_AND_TIME(#947,#949);
#951=APPROVAL_DATE_TIME(#950,#945);
#952=DATE_TIME_ROLE('creation_date');
#953=CC_DESIGN_DATE_AND_TIME_ASSIGNMENT(#950,#952,(#935));
#954=DATE_TIME_ROLE('classification_date');
#955=CC_DESIGN_DATE_AND_TIME_ASSIGNMENT(#950,#954,(#942));
#956=PERSON('UNSPECIFIED','UNSPECIFIED',$,$,$,$);
#957=ORGANIZATION('UNSPECIFIED','UNSPECIFIED','UNSPECIFIED');
#958=PERSON_AND_ORGANIZATION(#956,#957);
#959=APPROVAL_ROLE('approver');
#960=APPROVAL_PERSON_ORGANIZATION(#958,#945,#959);
#961=PERSON_AND_ORGANIZATION_ROLE('creator');
#962=CC_DESIGN_PERSON_AND_ORGANIZATION_ASSIGNMENT(#958,#961,(#934,#935));
#963=PERSON_AND_ORGANIZATION_ROLE('design_supplier');
#964=CC_DESIGN_PERSON_AND_ORGANIZATION_ASSIGNMENT(#958,#963,(#934));
#965=PERSON_AND_ORGANIZATION_ROLE('classification_officer');
#966=CC_DESIGN_PERSON_AND_ORGANIZATION_ASSIGNMENT(#958,#965,(#942));
#967=PERSON_AND_ORGANIZATION_ROLE('design_owner');
#968=CC_DESIGN_PERSON_AND_ORGANIZATION_ASSIGNMENT(#958,#967,(#933));
#22=CIRCLE('',#21,3.1E0);
#31=CIRCLE('',#30,3.1E0);
#36=CIRCLE('',#35,3.1E0);
#41=CIRCLE('',#40,3.1E0);
#54=CIRCLE('',#53,3.1E0);
#63=CIRCLE('',#62,3.1E0);
#272=CIRCLE('',#271,3.1E0);
#281=CIRCLE('',#280,3.1E0);
#294=CIRCLE('',#293,3.1E0);
#303=CIRCLE('',#302,3.1E0);
#316=CIRCLE('',#315,3.1E0);
#325=CIRCLE('',#324,3.1E0);
#435=EDGE_CURVE('',#388,#389,#5,.T.);
#437=EDGE_CURVE('',#392,#389,#58,.T.);
#439=EDGE_CURVE('',#392,#393,#9,.T.);
#441=EDGE_CURVE('',#388,#393,#320,.T.);
#451=EDGE_CURVE('',#376,#377,#22,.T.);
#453=EDGE_CURVE('',#395,#377,#49,.T.);
#455=EDGE_CURVE('',#389,#395,#63,.T.);
#458=EDGE_CURVE('',#397,#388,#316,.T.);
#460=EDGE_CURVE('',#397,#382,#13,.T.);
#462=EDGE_CURVE('',#382,#383,#281,.T.);
#464=EDGE_CURVE('',#383,#376,#263,.T.);
#474=EDGE_CURVE('',#419,#401,#36,.T.);
#476=EDGE_CURVE('',#377,#401,#17,.T.);
#479=EDGE_CURVE('',#376,#379,#26,.T.);
#481=EDGE_CURVE('',#413,#379,#31,.T.);
#483=EDGE_CURVE('',#419,#413,#259,.T.);
#493=EDGE_CURVE('',#400,#401,#45,.T.);
#496=EDGE_CURVE('',#429,#419,#255,.T.);
#498=EDGE_CURVE('',#421,#429,#75,.T.);
#500=EDGE_CURVE('',#421,#400,#41,.T.);
#511=EDGE_CURVE('',#400,#395,#67,.T.);
#523=EDGE_CURVE('',#404,#421,#71,.T.);
#525=EDGE_CURVE('',#404,#392,#54,.T.);
#539=EDGE_CURVE('',#404,#405,#143,.T.);
#543=EDGE_CURVE('',#429,#405,#79,.T.);
#553=EDGE_CURVE('',#408,#409,#155,.T.);
#555=EDGE_CURVE('',#408,#427,#83,.T.);
#557=EDGE_CURVE('',#427,#425,#87,.T.);
#559=EDGE_CURVE('',#425,#409,#91,.T.);
#570=EDGE_CURVE('',#413,#405,#147,.T.);
#573=EDGE_CURVE('',#379,#385,#267,.T.);
#575=EDGE_CURVE('',#385,#411,#272,.T.);
#577=EDGE_CURVE('',#411,#408,#151,.T.);
#580=EDGE_CURVE('',#393,#409,#325,.T.);
#586=EDGE_CURVE('',#352,#353,#95,.T.);
#588=EDGE_CURVE('',#353,#355,#99,.T.);
#590=EDGE_CURVE('',#355,#357,#103,.T.);
#592=EDGE_CURVE('',#357,#352,#107,.T.);
#596=EDGE_CURVE('',#360,#361,#111,.T.);
#598=EDGE_CURVE('',#361,#363,#115,.T.);
#600=EDGE_CURVE('',#363,#365,#119,.T.);
#602=EDGE_CURVE('',#365,#360,#123,.T.);
#606=EDGE_CURVE('',#368,#369,#127,.T.);
#608=EDGE_CURVE('',#369,#371,#131,.T.);
#610=EDGE_CURVE('',#371,#373,#135,.T.);
#612=EDGE_CURVE('',#373,#368,#139,.T.);
#623=EDGE_CURVE('',#352,#328,#159,.T.);
#625=EDGE_CURVE('',#328,#329,#175,.T.);
#627=EDGE_CURVE('',#353,#329,#171,.T.);
#638=EDGE_CURVE('',#357,#333,#163,.T.);
#640=EDGE_CURVE('',#333,#328,#179,.T.);
#652=EDGE_CURVE('',#355,#331,#167,.T.);
#654=EDGE_CURVE('',#331,#333,#183,.T.);
#667=EDGE_CURVE('',#329,#331,#187,.T.);
#690=EDGE_CURVE('',#336,#337,#191,.T.);
#692=EDGE_CURVE('',#341,#336,#195,.T.);
#694=EDGE_CURVE('',#339,#341,#199,.T.);
#696=EDGE_CURVE('',#337,#339,#203,.T.);
#706=EDGE_CURVE('',#344,#345,#207,.T.);
#708=EDGE_CURVE('',#349,#344,#211,.T.);
#710=EDGE_CURVE('',#347,#349,#215,.T.);
#712=EDGE_CURVE('',#345,#347,#219,.T.);
#723=EDGE_CURVE('',#360,#336,#223,.T.);
#726=EDGE_CURVE('',#361,#337,#235,.T.);
#737=EDGE_CURVE('',#365,#341,#227,.T.);
#750=EDGE_CURVE('',#363,#339,#231,.T.);
#775=EDGE_CURVE('',#368,#344,#239,.T.);
#778=EDGE_CURVE('',#369,#345,#251,.T.);
#789=EDGE_CURVE('',#373,#349,#243,.T.);
#802=EDGE_CURVE('',#371,#347,#247,.T.);
#840=EDGE_CURVE('',#385,#383,#276,.T.);
#851=EDGE_CURVE('',#411,#423,#289,.T.);
#856=EDGE_CURVE('',#417,#382,#285,.T.);
#858=EDGE_CURVE('',#423,#417,#303,.T.);
#870=EDGE_CURVE('',#427,#423,#298,.T.);
#881=EDGE_CURVE('',#416,#417,#307,.T.);
#883=EDGE_CURVE('',#425,#416,#294,.T.);
#899=EDGE_CURVE('',#397,#416,#311,.T.);
#928=ADVANCED_BREP_SHAPE_REPRESENTATION('',(#919),#927);
#935=PRODUCT_DEFINITION('design','',#934,#931);
#936=PRODUCT_DEFINITION_SHAPE('','SHAPE FOR BATTERY-1200MAH-WELLDONE_PRT.',
#935);
#937=SHAPE_DEFINITION_REPRESENTATION(#936,#928);
ENDSEC;
END-ISO-10303-21;
