ISO-10303-21;
HEADER;
FILE_DESCRIPTION((''),'2;1');
FILE_NAME('BLACK_PRT','2008-06-30T',('GRA'),(''),
'PRO/ENGINEER BY PARAMETRIC TECHNOLOGY CORPORATION, 2006170',
'PRO/ENGINEER BY PARAMETRIC TECHNOLOGY CORPORATION, 2006170','');
FILE_SCHEMA(('CONFIG_CONTROL_DESIGN'));
ENDSEC;
DATA;
#1=CARTESIAN_POINT('',(-9.536741808942E-7,1.229999904633E1,2.100001294790E0));
#2=DIRECTION('',(1.192092535492E-7,1.192092492667E-7,-1.E0));
#3=DIRECTION('',(1.E0,-2.306630107532E-7,1.192092260533E-7));
#4=AXIS2_PLACEMENT_3D('',#1,#2,#3);
#6=DIRECTION('',(-1.192093200867E-7,-9.130898046106E-7,9.999999999996E-1));
#7=VECTOR('',#6,7.999998189189E0);
#8=CARTESIAN_POINT('',(2.749990796116E1,1.230000000783E1,-5.899992801696E0));
#9=LINE('',#8,#7);
#10=DIRECTION('',(5.960462540368E-8,8.082735422984E-9,-1.E0));
#11=VECTOR('',#10,7.999998189282E0);
#12=CARTESIAN_POINT('',(-2.749990867642E1,1.229999993534E1,2.099997192171E0));
#13=LINE('',#12,#11);
#14=DIRECTION('',(-3.342862021004E-9,-1.E0,-1.192089228478E-7));
#15=VECTOR('',#14,5.670000006466E1);
#16=CARTESIAN_POINT('',(-2.749990848688E1,6.9E1,2.100003951317E0));
#17=LINE('',#16,#15);
#18=DIRECTION('',(2.188661285906E-8,1.E0,1.192091818882E-7));
#19=VECTOR('',#18,5.670000730472E1);
#20=CARTESIAN_POINT('',(2.749990700749E1,1.229999270311E1,2.100005387489E0));
#21=LINE('',#20,#19);
#22=DIRECTION('',(2.169952841815E-6,9.999999999976E-1,1.192095658171E-7));
#23=VECTOR('',#22,5.670000707403E1);
#24=CARTESIAN_POINT('',(2.649987648682E1,1.229999293380E1,2.100005228403E0));
#25=LINE('',#24,#23);
#26=DIRECTION('',(-1.E0,-1.425107424356E-10,-1.490010781758E-7));
#27=VECTOR('',#26,5.299999952316E1);
#28=CARTESIAN_POINT('',(2.649999952316E1,6.900000000770E1,2.100011987586E0));
#29=LINE('',#28,#27);
#30=DIRECTION('',(1.073763460801E-6,-9.999999999994E-1,-1.192091144010E-7));
#31=VECTOR('',#30,5.670000006484E1);
#32=CARTESIAN_POINT('',(-2.65E1,6.900000000014E1,2.100004090529E0));
#33=LINE('',#32,#31);
#34=DIRECTION('',(-5.066959699163E-9,1.E0,1.192094410173E-7));
#35=VECTOR('',#34,5.67E1);
#36=CARTESIAN_POINT('',(-2.749990819958E1,1.23E1,-5.900000997111E0));
#37=LINE('',#36,#35);
#38=DIRECTION('',(0.E0,0.E0,1.E0));
#39=VECTOR('',#38,7.999998189253E0);
#40=CARTESIAN_POINT('',(-2.749990848688E1,6.9E1,-5.899994237936E0));
#41=LINE('',#40,#39);
#42=CARTESIAN_POINT('',(0.E0,6.9E1,-5.899987980556E0));
#43=DIRECTION('',(0.E0,0.E0,-1.E0));
#44=DIRECTION('',(-1.E0,0.E0,0.E0));
#45=AXIS2_PLACEMENT_3D('',#42,#43,#44);
#47=CARTESIAN_POINT('',(-3.683613255261E-13,1.23E1,-5.899996894435E0));
#48=DIRECTION('',(1.192092535492E-7,1.192092492667E-7,-1.E0));
#49=DIRECTION('',(1.E0,2.847807765376E-10,1.192092535870E-7));
#50=AXIS2_PLACEMENT_3D('',#47,#48,#49);
#52=DIRECTION('',(-1.E0,-1.425104717419E-10,-1.490089832991E-7));
#53=VECTOR('',#52,5.300000047684E1);
#54=CARTESIAN_POINT('',(2.650000047684E1,6.900000096137E1,-5.899986201434E0));
#55=LINE('',#54,#53);
#56=CARTESIAN_POINT('',(-3.665851447108E-13,1.23E1,-5.899996909335E0));
#57=DIRECTION('',(1.192092535492E-7,1.192092492667E-7,-1.E0));
#58=DIRECTION('',(1.E0,9.301729795395E-10,1.192092536711E-7));
#59=AXIS2_PLACEMENT_3D('',#56,#57,#58);
#61=DIRECTION('',(1.347678611636E-8,1.E0,1.192094441116E-7));
#62=VECTOR('',#61,5.670000002581E1);
#63=CARTESIAN_POINT('',(2.749990796116E1,1.230000000783E1,-5.899992801696E0));
#64=LINE('',#63,#62);
#65=CARTESIAN_POINT('',(0.E0,6.9E1,2.100010208670E0));
#66=DIRECTION('',(0.E0,0.E0,-1.E0));
#67=DIRECTION('',(-1.E0,0.E0,0.E0));
#68=AXIS2_PLACEMENT_3D('',#65,#66,#67);
#70=DIRECTION('',(5.960463961537E-8,3.224745645475E-9,-1.E0));
#71=VECTOR('',#70,7.999998189171E0);
#72=CARTESIAN_POINT('',(2.749990824846E1,6.900000000784E1,2.100012146651E0));
#73=LINE('',#72,#71);
#74=DIRECTION('',(0.E0,1.192092436996E-7,-1.E0));
#75=VECTOR('',#74,7.999998189439E0);
#76=CARTESIAN_POINT('',(-2.65E1,6.900000000014E1,2.100004090529E0));
#77=LINE('',#76,#75);
#78=DIRECTION('',(-2.158739983579E-6,9.999999999977E-1,1.192087667844E-7));
#79=VECTOR('',#78,5.670000095395E1);
#80=CARTESIAN_POINT('',(-2.649987759944E1,1.23E1,-5.900000858047E0));
#81=LINE('',#80,#79);
#82=DIRECTION('',(1.192092827857E-7,1.192092419295E-7,-1.E0));
#83=VECTOR('',#82,7.999998189020E0);
#84=CARTESIAN_POINT('',(2.649999952316E1,6.900000000770E1,2.100011987586E0));
#85=LINE('',#84,#83);
#86=DIRECTION('',(1.093386355013E-6,9.999999999994E-1,1.192093479586E-7));
#87=VECTOR('',#86,5.670000093675E1);
#88=CARTESIAN_POINT('',(2.649993848183E1,1.230000002465E1,-5.899992960604E0));
#89=LINE('',#88,#87);
#90=CARTESIAN_POINT('',(-9.536741791184E-7,1.229999904633E1,2.100001279894E0));
#91=DIRECTION('',(1.192092535492E-7,1.192092492667E-7,-1.E0));
#92=DIRECTION('',(1.E0,-2.306630095573E-7,1.192092260535E-7));
#93=AXIS2_PLACEMENT_3D('',#90,#91,#92);
#95=DIRECTION('',(7.689773094489E-6,8.082988553513E-9,-9.999999999704E-1));
#96=VECTOR('',#95,7.999998189656E0);
#97=CARTESIAN_POINT('',(-2.649993911761E1,1.229999993534E1,2.099997331372E0));
#98=LINE('',#97,#96);
#99=DIRECTION('',(-7.749377775794E-6,-8.863566675106E-7,9.999999999696E-1));
#100=VECTOR('',#99,7.999998189250E0);
#101=CARTESIAN_POINT('',(2.649993848183E1,1.230000002465E1,-5.899992960604E0));
#102=LINE('',#101,#100);
#103=CARTESIAN_POINT('',(2.749990700749E1,1.229999270311E1,2.100005387489E0));
#104=CARTESIAN_POINT('',(2.749990824846E1,6.900000000784E1,2.100012146651E0));
#105=VERTEX_POINT('',#103);
#106=VERTEX_POINT('',#104);
#107=CARTESIAN_POINT('',(-2.749981697375E1,6.9E1,2.100010208670E0));
#108=VERTEX_POINT('',#107);
#109=CARTESIAN_POINT('',(-2.749990867642E1,1.229999993534E1,2.099997192171E0));
#110=VERTEX_POINT('',#109);
#111=CARTESIAN_POINT('',(2.749981639916E1,1.230000000783E1,-5.899993616203E0));
#112=CARTESIAN_POINT('',(-2.749981639916E1,1.23E1,-5.900000172668E0));
#113=VERTEX_POINT('',#111);
#114=VERTEX_POINT('',#112);
#115=CARTESIAN_POINT('',(-2.749990848688E1,6.9E1,-5.899994237936E0));
#116=VERTEX_POINT('',#115);
#117=CARTESIAN_POINT('',(2.749981697375E1,6.900000003364E1,-5.899987980556E0));
#118=VERTEX_POINT('',#117);
#119=CARTESIAN_POINT('',(2.649981544549E1,1.229999293380E1,2.100004438917E0));
#120=CARTESIAN_POINT('',(-2.649981735284E1,1.229999993533E1,2.099998120871E0));
#121=VERTEX_POINT('',#119);
#122=VERTEX_POINT('',#120);
#123=CARTESIAN_POINT('',(2.649981639916E1,1.230000002465E1,-5.899993750312E0));
#124=CARTESIAN_POINT('',(-2.649981639916E1,1.23E1,-5.900000068358E0));
#125=VERTEX_POINT('',#123);
#126=VERTEX_POINT('',#124);
#127=CARTESIAN_POINT('',(-2.65E1,6.900000000014E1,2.100004090529E0));
#128=CARTESIAN_POINT('',(-2.65E1,6.900000095382E1,-5.899994098910E0));
#129=VERTEX_POINT('',#127);
#130=VERTEX_POINT('',#128);
#131=CARTESIAN_POINT('',(2.649999952316E1,6.900000000770E1,2.100011987586E0));
#132=CARTESIAN_POINT('',(2.650000047684E1,6.900000096137E1,-5.899986201434E0));
#133=VERTEX_POINT('',#131);
#134=VERTEX_POINT('',#132);
#135=CARTESIAN_POINT('',(-4.768369785948E-7,1.229999952316E1,
-1.900000283128E0));
#136=DIRECTION('',(1.192092535492E-7,1.192092492667E-7,-1.E0));
#137=DIRECTION('',(1.E0,-1.080831117058E-7,1.192092406647E-7));
#138=AXIS2_PLACEMENT_3D('',#135,#136,#137);
#139=CYLINDRICAL_SURFACE('',#138,2.749981639916E1);
#141=ORIENTED_EDGE('',*,*,#140,.F.);
#143=ORIENTED_EDGE('',*,*,#142,.F.);
#145=ORIENTED_EDGE('',*,*,#144,.T.);
#147=ORIENTED_EDGE('',*,*,#146,.F.);
#148=EDGE_LOOP('',(#141,#143,#145,#147));
#149=FACE_OUTER_BOUND('',#148,.F.);
#150=ADVANCED_FACE('',(#149),#139,.T.);
#151=CARTESIAN_POINT('',(-2.873153924274E-6,-1.469981735284E1,
2.099998061266E0));
#152=DIRECTION('',(-1.490011123774E-7,-1.192092423949E-7,1.E0));
#153=DIRECTION('',(-2.306629966069E-7,-1.E0,-1.192092767639E-7));
#154=AXIS2_PLACEMENT_3D('',#151,#152,#153);
#155=PLANE('',#154);
#157=ORIENTED_EDGE('',*,*,#156,.F.);
#159=ORIENTED_EDGE('',*,*,#158,.T.);
#161=ORIENTED_EDGE('',*,*,#160,.F.);
#162=ORIENTED_EDGE('',*,*,#140,.T.);
#163=EDGE_LOOP('',(#157,#159,#161,#162));
#164=FACE_OUTER_BOUND('',#163,.F.);
#166=ORIENTED_EDGE('',*,*,#165,.T.);
#168=ORIENTED_EDGE('',*,*,#167,.T.);
#170=ORIENTED_EDGE('',*,*,#169,.T.);
#172=ORIENTED_EDGE('',*,*,#171,.F.);
#173=EDGE_LOOP('',(#166,#168,#170,#172));
#174=FACE_BOUND('',#173,.F.);
#175=ADVANCED_FACE('',(#164,#174),#155,.T.);
#176=CARTESIAN_POINT('',(-2.75E1,4.065E1,-1.899999992034E0));
#177=DIRECTION('',(1.E0,0.E0,0.E0));
#178=DIRECTION('',(0.E0,0.E0,-1.E0));
#179=AXIS2_PLACEMENT_3D('',#176,#177,#178);
#180=PLANE('',#179);
#181=ORIENTED_EDGE('',*,*,#156,.T.);
#182=ORIENTED_EDGE('',*,*,#146,.T.);
#184=ORIENTED_EDGE('',*,*,#183,.T.);
#186=ORIENTED_EDGE('',*,*,#185,.T.);
#187=EDGE_LOOP('',(#181,#182,#184,#186));
#188=FACE_OUTER_BOUND('',#187,.F.);
#189=ADVANCED_FACE('',(#188),#180,.F.);
#190=CARTESIAN_POINT('',(-1.094712742191E-7,-1.469981639916E1,
-5.900000127963E0));
#191=DIRECTION('',(-1.490090176808E-7,-1.192092492752E-7,1.E0));
#192=DIRECTION('',(2.848517665863E-10,-1.E0,-1.192092492328E-7));
#193=AXIS2_PLACEMENT_3D('',#190,#191,#192);
#194=PLANE('',#193);
#196=ORIENTED_EDGE('',*,*,#195,.T.);
#198=ORIENTED_EDGE('',*,*,#197,.F.);
#199=ORIENTED_EDGE('',*,*,#183,.F.);
#200=ORIENTED_EDGE('',*,*,#144,.F.);
#201=EDGE_LOOP('',(#196,#198,#199,#200));
#202=FACE_OUTER_BOUND('',#201,.F.);
#204=ORIENTED_EDGE('',*,*,#203,.T.);
#206=ORIENTED_EDGE('',*,*,#205,.F.);
#208=ORIENTED_EDGE('',*,*,#207,.F.);
#210=ORIENTED_EDGE('',*,*,#209,.T.);
#211=EDGE_LOOP('',(#204,#206,#208,#210));
#212=FACE_BOUND('',#211,.F.);
#213=ADVANCED_FACE('',(#202,#212),#194,.F.);
#214=CARTESIAN_POINT('',(2.749999952316E1,4.064999808702E1,-1.900000548390E0));
#215=DIRECTION('',(1.E0,-1.681965356724E-8,1.192092797327E-7));
#216=DIRECTION('',(1.192092875524E-7,4.649162985259E-7,-9.999999999999E-1));
#217=AXIS2_PLACEMENT_3D('',#214,#215,#216);
#218=PLANE('',#217);
#219=ORIENTED_EDGE('',*,*,#160,.T.);
#221=ORIENTED_EDGE('',*,*,#220,.T.);
#222=ORIENTED_EDGE('',*,*,#195,.F.);
#223=ORIENTED_EDGE('',*,*,#142,.T.);
#224=EDGE_LOOP('',(#219,#221,#222,#223));
#225=FACE_OUTER_BOUND('',#224,.F.);
#226=ADVANCED_FACE('',(#225),#218,.T.);
#227=CARTESIAN_POINT('',(0.E0,6.9E1,-1.900000003031E0));
#228=DIRECTION('',(0.E0,0.E0,-1.E0));
#229=DIRECTION('',(1.E0,0.E0,0.E0));
#230=AXIS2_PLACEMENT_3D('',#227,#228,#229);
#231=CYLINDRICAL_SURFACE('',#230,2.749981697375E1);
#232=ORIENTED_EDGE('',*,*,#158,.F.);
#233=ORIENTED_EDGE('',*,*,#185,.F.);
#234=ORIENTED_EDGE('',*,*,#197,.T.);
#235=ORIENTED_EDGE('',*,*,#220,.F.);
#236=EDGE_LOOP('',(#232,#233,#234,#235));
#237=FACE_OUTER_BOUND('',#236,.F.);
#238=ADVANCED_FACE('',(#237),#231,.T.);
#239=CARTESIAN_POINT('',(-2.65E1,4.065E1,-1.899999992034E0));
#240=DIRECTION('',(1.E0,0.E0,0.E0));
#241=DIRECTION('',(0.E0,0.E0,-1.E0));
#242=AXIS2_PLACEMENT_3D('',#239,#240,#241);
#243=PLANE('',#242);
#245=ORIENTED_EDGE('',*,*,#244,.T.);
#246=ORIENTED_EDGE('',*,*,#203,.F.);
#248=ORIENTED_EDGE('',*,*,#247,.F.);
#249=ORIENTED_EDGE('',*,*,#169,.F.);
#250=EDGE_LOOP('',(#245,#246,#248,#249));
#251=FACE_OUTER_BOUND('',#250,.F.);
#252=ADVANCED_FACE('',(#251),#243,.T.);
#253=CARTESIAN_POINT('',(2.749981697375E1,6.900000000784E1,2.100012136562E0));
#254=DIRECTION('',(1.425285208034E-10,-1.E0,-1.192092423736E-7));
#255=DIRECTION('',(-1.E0,-1.425107584937E-10,-1.490011123944E-7));
#256=AXIS2_PLACEMENT_3D('',#253,#254,#255);
#257=PLANE('',#256);
#258=ORIENTED_EDGE('',*,*,#244,.F.);
#259=ORIENTED_EDGE('',*,*,#167,.F.);
#261=ORIENTED_EDGE('',*,*,#260,.T.);
#262=ORIENTED_EDGE('',*,*,#205,.T.);
#263=EDGE_LOOP('',(#258,#259,#261,#262));
#264=FACE_OUTER_BOUND('',#263,.F.);
#265=ADVANCED_FACE('',(#264),#257,.T.);
#266=CARTESIAN_POINT('',(2.649999952316E1,4.064999810384E1,-1.900000667600E0));
#267=DIRECTION('',(1.E0,-1.681965356724E-8,1.192092797327E-7));
#268=DIRECTION('',(1.192092875524E-7,4.649162985259E-7,-9.999999999999E-1));
#269=AXIS2_PLACEMENT_3D('',#266,#267,#268);
#270=PLANE('',#269);
#271=ORIENTED_EDGE('',*,*,#260,.F.);
#272=ORIENTED_EDGE('',*,*,#165,.F.);
#274=ORIENTED_EDGE('',*,*,#273,.F.);
#275=ORIENTED_EDGE('',*,*,#207,.T.);
#276=EDGE_LOOP('',(#271,#272,#274,#275));
#277=FACE_OUTER_BOUND('',#276,.F.);
#278=ADVANCED_FACE('',(#277),#270,.F.);
#279=CARTESIAN_POINT('',(-4.768369785948E-7,1.229999952316E1,
-1.900000283128E0));
#280=DIRECTION('',(1.192092535492E-7,1.192092492667E-7,-1.E0));
#281=DIRECTION('',(1.E0,-1.080831117058E-7,1.192092406647E-7));
#282=AXIS2_PLACEMENT_3D('',#279,#280,#281);
#283=CYLINDRICAL_SURFACE('',#282,2.649981639916E1);
#284=ORIENTED_EDGE('',*,*,#171,.T.);
#285=ORIENTED_EDGE('',*,*,#247,.T.);
#286=ORIENTED_EDGE('',*,*,#209,.F.);
#287=ORIENTED_EDGE('',*,*,#273,.T.);
#288=EDGE_LOOP('',(#284,#285,#286,#287));
#289=FACE_OUTER_BOUND('',#288,.F.);
#290=ADVANCED_FACE('',(#289),#283,.F.);
#291=CLOSED_SHELL('',(#150,#175,#189,#213,#226,#238,#252,#265,#278,#290));
#292=CARTESIAN_POINT('',(-9.536741844466E-7,1.229999904633E1,2.100001324590E0));
#293=DIRECTION('',(1.192092535492E-7,1.192092492667E-7,-1.E0));
#294=DIRECTION('',(1.E0,-2.161663954003E-7,1.192092277840E-7));
#295=AXIS2_PLACEMENT_3D('',#292,#293,#294);
#297=DIRECTION('',(5.960462585217E-8,3.805820295416E-13,-1.E0));
#298=VECTOR('',#297,8.000050938819E0);
#299=CARTESIAN_POINT('',(-2.949990867642E1,1.23E1,2.099996929063E0));
#300=LINE('',#299,#298);
#301=CARTESIAN_POINT('',(-3.719135821777E-13,1.23E1,-5.899996864637E0));
#302=DIRECTION('',(-1.192092535492E-7,-1.192092492667E-7,1.E0));
#303=DIRECTION('',(-1.E0,-2.000370897446E-13,-1.192092535564E-7));
#304=AXIS2_PLACEMENT_3D('',#301,#302,#303);
#306=DIRECTION('',(-1.192093178630E-7,-9.173685704229E-7,9.999999999996E-1));
#307=VECTOR('',#306,7.999945439311E0);
#308=CARTESIAN_POINT('',(2.949990796115E1,1.230000000835E1,-5.899939719198E0));
#309=LINE('',#308,#307);
#310=DIRECTION('',(3.342862087474E-9,1.E0,1.192095317932E-7));
#311=VECTOR('',#310,5.67E1);
#312=CARTESIAN_POINT('',(-2.949990867642E1,1.23E1,2.099996929063E0));
#313=LINE('',#312,#311);
#314=DIRECTION('',(0.E0,0.E0,1.E0));
#315=VECTOR('',#314,8.000050939191E0);
#316=CARTESIAN_POINT('',(-2.949990848688E1,6.9E1,-5.900047250947E0));
#317=LINE('',#316,#315);
#318=DIRECTION('',(5.067015214230E-9,-1.E0,-1.192029765979E-7));
#319=VECTOR('',#318,5.67E1);
#320=CARTESIAN_POINT('',(-2.949990848688E1,6.9E1,-5.900047250947E0));
#321=LINE('',#320,#319);
#322=CARTESIAN_POINT('',(0.E0,6.9E1,2.100010395795E0));
#323=DIRECTION('',(0.E0,0.E0,-1.E0));
#324=DIRECTION('',(-1.E0,0.E0,0.E0));
#325=AXIS2_PLACEMENT_3D('',#322,#323,#324);
#327=DIRECTION('',(5.960463961089E-8,-1.051429231320E-9,-1.E0));
#328=VECTOR('',#327,7.999945439657E0);
#329=CARTESIAN_POINT('',(2.949990824846E1,6.900000000841E1,2.100012479292E0));
#330=LINE('',#329,#328);
#331=CARTESIAN_POINT('',(0.E0,6.9E1,-5.899987794075E0));
#332=DIRECTION('',(0.E0,0.E0,1.E0));
#333=DIRECTION('',(1.E0,0.E0,0.E0));
#334=AXIS2_PLACEMENT_3D('',#331,#332,#333);
#336=DIRECTION('',(-2.188661246990E-8,-1.E0,-1.192095340643E-7));
#337=VECTOR('',#336,5.670000733896E1);
#338=CARTESIAN_POINT('',(2.949990824846E1,6.900000000841E1,2.100012479292E0));
#339=LINE('',#338,#337);
#340=DIRECTION('',(1.347684157689E-8,1.E0,1.192033979284E-7));
#341=VECTOR('',#340,5.669999999165E1);
#342=CARTESIAN_POINT('',(2.949990796115E1,1.230000000835E1,-5.899939719198E0));
#343=LINE('',#342,#341);
#344=CARTESIAN_POINT('',(2.949990700749E1,1.229999266946E1,2.100005720110E0));
#345=CARTESIAN_POINT('',(2.949990824846E1,6.900000000841E1,2.100012479292E0));
#346=VERTEX_POINT('',#344);
#347=VERTEX_POINT('',#345);
#348=CARTESIAN_POINT('',(-2.949981697375E1,6.9E1,2.100010395795E0));
#349=VERTEX_POINT('',#348);
#350=CARTESIAN_POINT('',(-2.949990867642E1,1.23E1,2.099996929063E0));
#351=VERTEX_POINT('',#350);
#352=CARTESIAN_POINT('',(2.949981639916E1,1.230000000836E1,-5.899993347986E0));
#353=CARTESIAN_POINT('',(-2.949981639916E1,1.229999999999E1,-5.900000381288E0));
#354=VERTEX_POINT('',#352);
#355=VERTEX_POINT('',#353);
#356=CARTESIAN_POINT('',(-2.949990848688E1,6.9E1,-5.900047250947E0));
#357=VERTEX_POINT('',#356);
#358=CARTESIAN_POINT('',(2.949981697375E1,6.9E1,-5.899987794075E0));
#359=VERTEX_POINT('',#358);
#360=CARTESIAN_POINT('',(-4.768369785948E-7,1.229999952316E1,
-1.900000283128E0));
#361=DIRECTION('',(1.192092535492E-7,1.192092492667E-7,-1.E0));
#362=DIRECTION('',(1.E0,-1.080831117058E-7,1.192092406647E-7));
#363=AXIS2_PLACEMENT_3D('',#360,#361,#362);
#364=CYLINDRICAL_SURFACE('',#363,2.949981639916E1);
#366=ORIENTED_EDGE('',*,*,#365,.T.);
#368=ORIENTED_EDGE('',*,*,#367,.T.);
#370=ORIENTED_EDGE('',*,*,#369,.T.);
#372=ORIENTED_EDGE('',*,*,#371,.T.);
#373=EDGE_LOOP('',(#366,#368,#370,#372));
#374=FACE_OUTER_BOUND('',#373,.F.);
#375=ADVANCED_FACE('',(#374),#364,.F.);
#376=CARTESIAN_POINT('',(-2.95E1,4.065E1,-1.899999992034E0));
#377=DIRECTION('',(1.E0,0.E0,0.E0));
#378=DIRECTION('',(0.E0,0.E0,-1.E0));
#379=AXIS2_PLACEMENT_3D('',#376,#377,#378);
#380=PLANE('',#379);
#382=ORIENTED_EDGE('',*,*,#381,.T.);
#384=ORIENTED_EDGE('',*,*,#383,.F.);
#386=ORIENTED_EDGE('',*,*,#385,.T.);
#387=ORIENTED_EDGE('',*,*,#367,.F.);
#388=EDGE_LOOP('',(#382,#384,#386,#387));
#389=FACE_OUTER_BOUND('',#388,.F.);
#390=ADVANCED_FACE('',(#389),#380,.T.);
#391=CARTESIAN_POINT('',(0.E0,6.9E1,-1.900000003031E0));
#392=DIRECTION('',(0.E0,0.E0,-1.E0));
#393=DIRECTION('',(1.E0,0.E0,0.E0));
#394=AXIS2_PLACEMENT_3D('',#391,#392,#393);
#395=CYLINDRICAL_SURFACE('',#394,2.949981697375E1);
#397=ORIENTED_EDGE('',*,*,#396,.T.);
#399=ORIENTED_EDGE('',*,*,#398,.T.);
#401=ORIENTED_EDGE('',*,*,#400,.T.);
#402=ORIENTED_EDGE('',*,*,#383,.T.);
#403=EDGE_LOOP('',(#397,#399,#401,#402));
#404=FACE_OUTER_BOUND('',#403,.F.);
#405=ADVANCED_FACE('',(#404),#395,.F.);
#406=CARTESIAN_POINT('',(2.949999952316E1,4.064999805338E1,-1.900000309972E0));
#407=DIRECTION('',(1.E0,-1.681965356724E-8,1.192092797327E-7));
#408=DIRECTION('',(1.192092875524E-7,4.649162985259E-7,-9.999999999999E-1));
#409=AXIS2_PLACEMENT_3D('',#406,#407,#408);
#410=PLANE('',#409);
#412=ORIENTED_EDGE('',*,*,#411,.T.);
#413=ORIENTED_EDGE('',*,*,#371,.F.);
#415=ORIENTED_EDGE('',*,*,#414,.T.);
#416=ORIENTED_EDGE('',*,*,#398,.F.);
#417=EDGE_LOOP('',(#412,#413,#415,#416));
#418=FACE_OUTER_BOUND('',#417,.F.);
#419=ADVANCED_FACE('',(#418),#410,.F.);
#420=OPEN_SHELL('',(#375,#390,#405,#419));
#421=MANIFOLD_SOLID_BREP('',#291);
#422=SHELL_BASED_SURFACE_MODEL('',(#420));
#423=(LENGTH_UNIT()NAMED_UNIT(*)SI_UNIT(.MILLI.,.METRE.));
#424=DIMENSIONAL_EXPONENTS(0.E0,0.E0,0.E0,0.E0,0.E0,0.E0,0.E0);
#425=(NAMED_UNIT(*)PLANE_ANGLE_UNIT()SI_UNIT($,.RADIAN.));
#426=PLANE_ANGLE_MEASURE_WITH_UNIT(PLANE_ANGLE_MEASURE(1.745329251994E-2),#425);
#427=(CONVERSION_BASED_UNIT('DEGREE',#426)NAMED_UNIT(#424)PLANE_ANGLE_UNIT());
#428=(NAMED_UNIT(*)SI_UNIT($,.STERADIAN.)SOLID_ANGLE_UNIT());
#429=UNCERTAINTY_MEASURE_WITH_UNIT(LENGTH_MEASURE(5.421480610036E-3),#423,
'closure',
'Maximum model space distance between geometric entities at asserted connectivities');
#430=(GEOMETRIC_REPRESENTATION_CONTEXT(3)GLOBAL_UNCERTAINTY_ASSIGNED_CONTEXT((
#429))GLOBAL_UNIT_ASSIGNED_CONTEXT((#423,#427,#428))REPRESENTATION_CONTEXT
('ID1','3'));
#433=CARTESIAN_POINT('',(0.E0,0.E0,0.E0));
#434=DIRECTION('',(0.E0,0.E0,1.E0));
#435=DIRECTION('',(1.E0,0.E0,0.E0));
#438=SHAPE_REPRESENTATION_RELATIONSHIP('','',#437,#431);
#439=SHAPE_REPRESENTATION_RELATIONSHIP('','',#437,#432);
#440=APPLICATION_CONTEXT(
'CONFIGURATION CONTROLLED 3D DESIGNS OF MECHANICAL PARTS AND ASSEMBLIES');
#441=APPLICATION_PROTOCOL_DEFINITION('international standard',
'config_control_design',1994,#440);
#442=DESIGN_CONTEXT('',#440,'design');
#443=MECHANICAL_CONTEXT('',#440,'mechanical');
#444=PRODUCT('BLACK_PRT','BLACK_PRT','NOT SPECIFIED',(#443));
#445=PRODUCT_DEFINITION_FORMATION_WITH_SPECIFIED_SOURCE('1','LAST_VERSION',#444,
.MADE.);
#449=PRODUCT_CATEGORY('part','');
#450=PRODUCT_RELATED_PRODUCT_CATEGORY('detail','',(#444));
#451=PRODUCT_CATEGORY_RELATIONSHIP('','',#449,#450);
#452=SECURITY_CLASSIFICATION_LEVEL('unclassified');
#453=SECURITY_CLASSIFICATION('','',#452);
#454=CC_DESIGN_SECURITY_CLASSIFICATION(#453,(#445));
#455=APPROVAL_STATUS('approved');
#456=APPROVAL(#455,'');
#457=CC_DESIGN_APPROVAL(#456,(#453,#445,#446));
#458=CALENDAR_DATE(108,30,6);
#459=COORDINATED_UNIVERSAL_TIME_OFFSET(3,0,.BEHIND.);
#460=LOCAL_TIME(11,3,1.7E1,#459);
#461=DATE_AND_TIME(#458,#460);
#462=APPROVAL_DATE_TIME(#461,#456);
#463=DATE_TIME_ROLE('creation_date');
#464=CC_DESIGN_DATE_AND_TIME_ASSIGNMENT(#461,#463,(#446));
#465=DATE_TIME_ROLE('classification_date');
#466=CC_DESIGN_DATE_AND_TIME_ASSIGNMENT(#461,#465,(#453));
#467=PERSON('UNSPECIFIED','UNSPECIFIED',$,$,$,$);
#468=ORGANIZATION('UNSPECIFIED','UNSPECIFIED','UNSPECIFIED');
#469=PERSON_AND_ORGANIZATION(#467,#468);
#470=APPROVAL_ROLE('approver');
#471=APPROVAL_PERSON_ORGANIZATION(#469,#456,#470);
#472=PERSON_AND_ORGANIZATION_ROLE('creator');
#473=CC_DESIGN_PERSON_AND_ORGANIZATION_ASSIGNMENT(#469,#472,(#445,#446));
#474=PERSON_AND_ORGANIZATION_ROLE('design_supplier');
#475=CC_DESIGN_PERSON_AND_ORGANIZATION_ASSIGNMENT(#469,#474,(#445));
#476=PERSON_AND_ORGANIZATION_ROLE('classification_officer');
#477=CC_DESIGN_PERSON_AND_ORGANIZATION_ASSIGNMENT(#469,#476,(#453));
#478=PERSON_AND_ORGANIZATION_ROLE('design_owner');
#479=CC_DESIGN_PERSON_AND_ORGANIZATION_ASSIGNMENT(#469,#478,(#444));
#5=CIRCLE('',#4,2.749981639916E1);
#46=CIRCLE('',#45,2.749981697375E1);
#51=CIRCLE('',#50,2.749981639916E1);
#60=CIRCLE('',#59,2.649981639916E1);
#69=CIRCLE('',#68,2.749981697375E1);
#94=CIRCLE('',#93,2.649981639916E1);
#140=EDGE_CURVE('',#105,#110,#5,.T.);
#142=EDGE_CURVE('',#113,#105,#9,.T.);
#144=EDGE_CURVE('',#113,#114,#51,.T.);
#146=EDGE_CURVE('',#110,#114,#13,.T.);
#156=EDGE_CURVE('',#108,#110,#17,.T.);
#158=EDGE_CURVE('',#108,#106,#69,.T.);
#160=EDGE_CURVE('',#105,#106,#21,.T.);
#165=EDGE_CURVE('',#121,#133,#25,.T.);
#167=EDGE_CURVE('',#133,#129,#29,.T.);
#169=EDGE_CURVE('',#129,#122,#33,.T.);
#171=EDGE_CURVE('',#121,#122,#94,.T.);
#183=EDGE_CURVE('',#114,#116,#37,.T.);
#185=EDGE_CURVE('',#116,#108,#41,.T.);
#195=EDGE_CURVE('',#113,#118,#64,.T.);
#197=EDGE_CURVE('',#116,#118,#46,.T.);
#203=EDGE_CURVE('',#126,#130,#81,.T.);
#205=EDGE_CURVE('',#134,#130,#55,.T.);
#207=EDGE_CURVE('',#125,#134,#89,.T.);
#209=EDGE_CURVE('',#125,#126,#60,.T.);
#220=EDGE_CURVE('',#106,#118,#73,.T.);
#244=EDGE_CURVE('',#129,#130,#77,.T.);
#247=EDGE_CURVE('',#122,#126,#98,.T.);
#260=EDGE_CURVE('',#133,#134,#85,.T.);
#273=EDGE_CURVE('',#125,#121,#102,.T.);
#296=CIRCLE('',#295,2.949981639916E1);
#305=CIRCLE('',#304,2.949981639916E1);
#326=CIRCLE('',#325,2.949981697375E1);
#335=CIRCLE('',#334,2.949981697375E1);
#365=EDGE_CURVE('',#346,#351,#296,.T.);
#367=EDGE_CURVE('',#351,#355,#300,.T.);
#369=EDGE_CURVE('',#355,#354,#305,.T.);
#371=EDGE_CURVE('',#354,#346,#309,.T.);
#381=EDGE_CURVE('',#351,#349,#313,.T.);
#383=EDGE_CURVE('',#357,#349,#317,.T.);
#385=EDGE_CURVE('',#357,#355,#321,.T.);
#396=EDGE_CURVE('',#349,#347,#326,.T.);
#398=EDGE_CURVE('',#347,#359,#330,.T.);
#400=EDGE_CURVE('',#359,#357,#335,.T.);
#411=EDGE_CURVE('',#347,#346,#339,.T.);
#414=EDGE_CURVE('',#354,#359,#343,.T.);
#431=ADVANCED_BREP_SHAPE_REPRESENTATION('',(#421),#430);
#432=MANIFOLD_SURFACE_SHAPE_REPRESENTATION('',(#422),#430);
#436=AXIS2_PLACEMENT_3D('',#433,#434,#435);
#437=SHAPE_REPRESENTATION('',(#436),#430);
#446=PRODUCT_DEFINITION('design','',#445,#442);
#447=PRODUCT_DEFINITION_SHAPE('','SHAPE FOR BLACK_PRT.',#446);
#448=SHAPE_DEFINITION_REPRESENTATION(#447,#437);
ENDSEC;
END-ISO-10303-21;
