ISO-10303-21;
HEADER;
FILE_DESCRIPTION((''),'2;1');
FILE_NAME('GPS-ANT-EXT-CONN_PRT','2008-06-30T',('GRA'),(''),
'PRO/ENGINEER BY PARAMETRIC TECHNOLOGY CORPORATION, 2006170',
'PRO/ENGINEER BY PARAMETRIC TECHNOLOGY CORPORATION, 2006170','');
FILE_SCHEMA(('CONFIG_CONTROL_DESIGN'));
ENDSEC;
DATA;
#2=DIRECTION('',(0.E0,1.E0,0.E0));
#3=VECTOR('',#2,6.E-1);
#4=CARTESIAN_POINT('',(-1.124093964957E0,-3.E-1,0.E0));
#5=LINE('',#4,#3);
#6=DIRECTION('',(1.E0,0.E0,0.E0));
#7=VECTOR('',#6,6.E-1);
#8=CARTESIAN_POINT('',(-1.724093964957E0,3.E-1,0.E0));
#9=LINE('',#8,#7);
#10=CARTESIAN_POINT('',(0.E0,0.E0,0.E0));
#11=DIRECTION('',(0.E0,0.E0,1.E0));
#12=DIRECTION('',(-9.851965514038E-1,1.714285714286E-1,0.E0));
#13=AXIS2_PLACEMENT_3D('',#10,#11,#12);
#15=CARTESIAN_POINT('',(0.E0,0.E0,0.E0));
#16=DIRECTION('',(0.E0,0.E0,1.E0));
#17=DIRECTION('',(-1.E0,0.E0,0.E0));
#18=AXIS2_PLACEMENT_3D('',#15,#16,#17);
#20=DIRECTION('',(1.E0,0.E0,0.E0));
#21=VECTOR('',#20,6.E-1);
#22=CARTESIAN_POINT('',(-1.724093964957E0,-3.E-1,0.E0));
#23=LINE('',#22,#21);
#24=DIRECTION('',(0.E0,1.E0,0.E0));
#25=VECTOR('',#24,6.E-1);
#26=CARTESIAN_POINT('',(-3.E-1,-3.E-1,0.E0));
#27=LINE('',#26,#25);
#28=DIRECTION('',(1.E0,0.E0,0.E0));
#29=VECTOR('',#28,6.E-1);
#30=CARTESIAN_POINT('',(-3.E-1,-3.E-1,0.E0));
#31=LINE('',#30,#29);
#32=DIRECTION('',(0.E0,1.E0,0.E0));
#33=VECTOR('',#32,6.E-1);
#34=CARTESIAN_POINT('',(3.E-1,-3.E-1,0.E0));
#35=LINE('',#34,#33);
#36=DIRECTION('',(1.E0,0.E0,0.E0));
#37=VECTOR('',#36,6.E-1);
#38=CARTESIAN_POINT('',(-3.E-1,3.E-1,0.E0));
#39=LINE('',#38,#37);
#40=DIRECTION('',(0.E0,1.E0,0.E0));
#41=VECTOR('',#40,6.E-1);
#42=CARTESIAN_POINT('',(1.124093964957E0,-3.E-1,0.E0));
#43=LINE('',#42,#41);
#44=DIRECTION('',(1.E0,0.E0,0.E0));
#45=VECTOR('',#44,6.E-1);
#46=CARTESIAN_POINT('',(1.124093964957E0,-3.E-1,0.E0));
#47=LINE('',#46,#45);
#48=CARTESIAN_POINT('',(0.E0,0.E0,0.E0));
#49=DIRECTION('',(0.E0,0.E0,1.E0));
#50=DIRECTION('',(9.851965514038E-1,-1.714285714286E-1,0.E0));
#51=AXIS2_PLACEMENT_3D('',#48,#49,#50);
#53=CARTESIAN_POINT('',(0.E0,0.E0,0.E0));
#54=DIRECTION('',(0.E0,0.E0,1.E0));
#55=DIRECTION('',(1.E0,0.E0,0.E0));
#56=AXIS2_PLACEMENT_3D('',#53,#54,#55);
#58=DIRECTION('',(1.E0,0.E0,0.E0));
#59=VECTOR('',#58,6.E-1);
#60=CARTESIAN_POINT('',(1.124093964957E0,3.E-1,0.E0));
#61=LINE('',#60,#59);
#62=DIRECTION('',(0.E0,0.E0,1.E0));
#63=VECTOR('',#62,3.E0);
#64=CARTESIAN_POINT('',(-1.124093964957E0,-3.E-1,0.E0));
#65=LINE('',#64,#63);
#66=DIRECTION('',(0.E0,0.E0,1.E0));
#67=VECTOR('',#66,3.E0);
#68=CARTESIAN_POINT('',(-1.724093964957E0,-3.E-1,0.E0));
#69=LINE('',#68,#67);
#70=DIRECTION('',(1.E0,0.E0,0.E0));
#71=VECTOR('',#70,6.E-1);
#72=CARTESIAN_POINT('',(-1.724093964957E0,-3.E-1,3.E0));
#73=LINE('',#72,#71);
#74=DIRECTION('',(0.E0,0.E0,1.E0));
#75=VECTOR('',#74,3.E0);
#76=CARTESIAN_POINT('',(-3.E-1,-3.E-1,0.E0));
#77=LINE('',#76,#75);
#78=DIRECTION('',(1.E0,0.E0,0.E0));
#79=VECTOR('',#78,6.E-1);
#80=CARTESIAN_POINT('',(-3.E-1,-3.E-1,3.E0));
#81=LINE('',#80,#79);
#82=DIRECTION('',(0.E0,0.E0,1.E0));
#83=VECTOR('',#82,3.E0);
#84=CARTESIAN_POINT('',(3.E-1,-3.E-1,0.E0));
#85=LINE('',#84,#83);
#86=DIRECTION('',(0.E0,0.E0,1.E0));
#87=VECTOR('',#86,3.E0);
#88=CARTESIAN_POINT('',(1.124093964957E0,-3.E-1,0.E0));
#89=LINE('',#88,#87);
#90=DIRECTION('',(1.E0,0.E0,0.E0));
#91=VECTOR('',#90,6.E-1);
#92=CARTESIAN_POINT('',(1.124093964957E0,-3.E-1,3.E0));
#93=LINE('',#92,#91);
#94=DIRECTION('',(0.E0,0.E0,1.E0));
#95=VECTOR('',#94,3.E0);
#96=CARTESIAN_POINT('',(1.724093964957E0,-3.E-1,0.E0));
#97=LINE('',#96,#95);
#98=DIRECTION('',(0.E0,0.E0,1.E0));
#99=VECTOR('',#98,7.7E0);
#100=CARTESIAN_POINT('',(-1.75E0,0.E0,0.E0));
#101=LINE('',#100,#99);
#102=DIRECTION('',(0.E0,0.E0,1.E0));
#103=VECTOR('',#102,7.7E0);
#104=CARTESIAN_POINT('',(1.75E0,0.E0,0.E0));
#105=LINE('',#104,#103);
#106=DIRECTION('',(0.E0,0.E0,1.E0));
#107=VECTOR('',#106,3.E0);
#108=CARTESIAN_POINT('',(-1.124093964957E0,3.E-1,0.E0));
#109=LINE('',#108,#107);
#110=DIRECTION('',(-1.E0,0.E0,0.E0));
#111=VECTOR('',#110,6.E-1);
#112=CARTESIAN_POINT('',(-1.124093964957E0,3.E-1,3.E0));
#113=LINE('',#112,#111);
#114=DIRECTION('',(0.E0,0.E0,1.E0));
#115=VECTOR('',#114,3.E0);
#116=CARTESIAN_POINT('',(-1.724093964957E0,3.E-1,0.E0));
#117=LINE('',#116,#115);
#118=DIRECTION('',(0.E0,0.E0,1.E0));
#119=VECTOR('',#118,3.E0);
#120=CARTESIAN_POINT('',(-3.E-1,3.E-1,0.E0));
#121=LINE('',#120,#119);
#122=DIRECTION('',(0.E0,0.E0,1.E0));
#123=VECTOR('',#122,3.E0);
#124=CARTESIAN_POINT('',(3.E-1,3.E-1,0.E0));
#125=LINE('',#124,#123);
#126=DIRECTION('',(-1.E0,0.E0,0.E0));
#127=VECTOR('',#126,6.E-1);
#128=CARTESIAN_POINT('',(3.E-1,3.E-1,3.E0));
#129=LINE('',#128,#127);
#130=DIRECTION('',(0.E0,0.E0,1.E0));
#131=VECTOR('',#130,3.E0);
#132=CARTESIAN_POINT('',(1.124093964957E0,3.E-1,0.E0));
#133=LINE('',#132,#131);
#134=DIRECTION('',(0.E0,0.E0,1.E0));
#135=VECTOR('',#134,3.E0);
#136=CARTESIAN_POINT('',(1.724093964957E0,3.E-1,0.E0));
#137=LINE('',#136,#135);
#138=DIRECTION('',(-1.E0,0.E0,0.E0));
#139=VECTOR('',#138,6.E-1);
#140=CARTESIAN_POINT('',(1.724093964957E0,3.E-1,3.E0));
#141=LINE('',#140,#139);
#142=DIRECTION('',(0.E0,-1.E0,0.E0));
#143=VECTOR('',#142,6.E-1);
#144=CARTESIAN_POINT('',(3.E-1,3.E-1,3.E0));
#145=LINE('',#144,#143);
#146=DIRECTION('',(0.E0,-1.E0,0.E0));
#147=VECTOR('',#146,6.E-1);
#148=CARTESIAN_POINT('',(-1.124093964957E0,3.E-1,3.E0));
#149=LINE('',#148,#147);
#150=CARTESIAN_POINT('',(0.E0,0.E0,3.E0));
#151=DIRECTION('',(0.E0,0.E0,1.E0));
#152=DIRECTION('',(-9.851965514038E-1,-1.714285714286E-1,0.E0));
#153=AXIS2_PLACEMENT_3D('',#150,#151,#152);
#155=CARTESIAN_POINT('',(0.E0,0.E0,3.E0));
#156=DIRECTION('',(0.E0,0.E0,1.E0));
#157=DIRECTION('',(9.851965514038E-1,1.714285714286E-1,0.E0));
#158=AXIS2_PLACEMENT_3D('',#155,#156,#157);
#160=DIRECTION('',(0.E0,-1.E0,0.E0));
#161=VECTOR('',#160,6.E-1);
#162=CARTESIAN_POINT('',(-3.E-1,3.E-1,3.E0));
#163=LINE('',#162,#161);
#164=DIRECTION('',(0.E0,-1.E0,0.E0));
#165=VECTOR('',#164,6.E-1);
#166=CARTESIAN_POINT('',(1.124093964957E0,3.E-1,3.E0));
#167=LINE('',#166,#165);
#168=CARTESIAN_POINT('',(0.E0,0.E0,7.7E0));
#169=DIRECTION('',(0.E0,0.E0,1.E0));
#170=DIRECTION('',(1.E0,0.E0,0.E0));
#171=AXIS2_PLACEMENT_3D('',#168,#169,#170);
#173=CARTESIAN_POINT('',(0.E0,0.E0,7.7E0));
#174=DIRECTION('',(0.E0,0.E0,1.E0));
#175=DIRECTION('',(-1.E0,0.E0,0.E0));
#176=AXIS2_PLACEMENT_3D('',#173,#174,#175);
#178=CARTESIAN_POINT('',(1.75E0,0.E0,7.7E0));
#179=CARTESIAN_POINT('',(-1.75E0,0.E0,7.7E0));
#180=VERTEX_POINT('',#178);
#181=VERTEX_POINT('',#179);
#182=CARTESIAN_POINT('',(1.75E0,0.E0,0.E0));
#183=VERTEX_POINT('',#182);
#184=CARTESIAN_POINT('',(-1.75E0,0.E0,0.E0));
#185=VERTEX_POINT('',#184);
#186=CARTESIAN_POINT('',(1.724093964957E0,3.E-1,0.E0));
#187=CARTESIAN_POINT('',(1.724093964957E0,3.E-1,3.E0));
#188=VERTEX_POINT('',#186);
#189=VERTEX_POINT('',#187);
#190=CARTESIAN_POINT('',(-1.724093964957E0,3.E-1,0.E0));
#191=CARTESIAN_POINT('',(-1.724093964957E0,3.E-1,3.E0));
#192=VERTEX_POINT('',#190);
#193=VERTEX_POINT('',#191);
#194=CARTESIAN_POINT('',(-1.724093964957E0,-3.E-1,0.E0));
#195=CARTESIAN_POINT('',(-1.724093964957E0,-3.E-1,3.E0));
#196=VERTEX_POINT('',#194);
#197=VERTEX_POINT('',#195);
#198=CARTESIAN_POINT('',(1.724093964957E0,-3.E-1,0.E0));
#199=CARTESIAN_POINT('',(1.724093964957E0,-3.E-1,3.E0));
#200=VERTEX_POINT('',#198);
#201=VERTEX_POINT('',#199);
#202=CARTESIAN_POINT('',(-1.124093964957E0,-3.E-1,0.E0));
#203=CARTESIAN_POINT('',(-1.124093964957E0,3.E-1,0.E0));
#204=VERTEX_POINT('',#202);
#205=VERTEX_POINT('',#203);
#206=CARTESIAN_POINT('',(-3.E-1,-3.E-1,0.E0));
#207=CARTESIAN_POINT('',(-3.E-1,3.E-1,0.E0));
#208=VERTEX_POINT('',#206);
#209=VERTEX_POINT('',#207);
#210=CARTESIAN_POINT('',(3.E-1,-3.E-1,0.E0));
#211=CARTESIAN_POINT('',(3.E-1,3.E-1,0.E0));
#212=VERTEX_POINT('',#210);
#213=VERTEX_POINT('',#211);
#214=CARTESIAN_POINT('',(1.124093964957E0,-3.E-1,0.E0));
#215=CARTESIAN_POINT('',(1.124093964957E0,3.E-1,0.E0));
#216=VERTEX_POINT('',#214);
#217=VERTEX_POINT('',#215);
#218=CARTESIAN_POINT('',(-1.124093964957E0,3.E-1,3.E0));
#219=VERTEX_POINT('',#218);
#220=CARTESIAN_POINT('',(-3.E-1,3.E-1,3.E0));
#221=VERTEX_POINT('',#220);
#222=CARTESIAN_POINT('',(3.E-1,3.E-1,3.E0));
#223=VERTEX_POINT('',#222);
#224=CARTESIAN_POINT('',(1.124093964957E0,3.E-1,3.E0));
#225=VERTEX_POINT('',#224);
#226=CARTESIAN_POINT('',(-1.124093964957E0,-3.E-1,3.E0));
#227=VERTEX_POINT('',#226);
#228=CARTESIAN_POINT('',(-3.E-1,-3.E-1,3.E0));
#229=VERTEX_POINT('',#228);
#230=CARTESIAN_POINT('',(3.E-1,-3.E-1,3.E0));
#231=VERTEX_POINT('',#230);
#232=CARTESIAN_POINT('',(1.124093964957E0,-3.E-1,3.E0));
#233=VERTEX_POINT('',#232);
#234=CARTESIAN_POINT('',(0.E0,0.E0,0.E0));
#235=DIRECTION('',(0.E0,0.E0,1.E0));
#236=DIRECTION('',(1.E0,0.E0,0.E0));
#237=AXIS2_PLACEMENT_3D('',#234,#235,#236);
#238=PLANE('',#237);
#240=ORIENTED_EDGE('',*,*,#239,.T.);
#242=ORIENTED_EDGE('',*,*,#241,.F.);
#244=ORIENTED_EDGE('',*,*,#243,.T.);
#246=ORIENTED_EDGE('',*,*,#245,.T.);
#248=ORIENTED_EDGE('',*,*,#247,.T.);
#249=EDGE_LOOP('',(#240,#242,#244,#246,#248));
#250=FACE_OUTER_BOUND('',#249,.F.);
#251=ADVANCED_FACE('',(#250),#238,.F.);
#252=CARTESIAN_POINT('',(0.E0,0.E0,0.E0));
#253=DIRECTION('',(0.E0,0.E0,1.E0));
#254=DIRECTION('',(1.E0,0.E0,0.E0));
#255=AXIS2_PLACEMENT_3D('',#252,#253,#254);
#256=PLANE('',#255);
#258=ORIENTED_EDGE('',*,*,#257,.F.);
#260=ORIENTED_EDGE('',*,*,#259,.T.);
#262=ORIENTED_EDGE('',*,*,#261,.T.);
#264=ORIENTED_EDGE('',*,*,#263,.F.);
#265=EDGE_LOOP('',(#258,#260,#262,#264));
#266=FACE_OUTER_BOUND('',#265,.F.);
#267=ADVANCED_FACE('',(#266),#256,.F.);
#268=CARTESIAN_POINT('',(0.E0,0.E0,0.E0));
#269=DIRECTION('',(0.E0,0.E0,1.E0));
#270=DIRECTION('',(1.E0,0.E0,0.E0));
#271=AXIS2_PLACEMENT_3D('',#268,#269,#270);
#272=PLANE('',#271);
#274=ORIENTED_EDGE('',*,*,#273,.F.);
#276=ORIENTED_EDGE('',*,*,#275,.T.);
#278=ORIENTED_EDGE('',*,*,#277,.T.);
#280=ORIENTED_EDGE('',*,*,#279,.T.);
#282=ORIENTED_EDGE('',*,*,#281,.F.);
#283=EDGE_LOOP('',(#274,#276,#278,#280,#282));
#284=FACE_OUTER_BOUND('',#283,.F.);
#285=ADVANCED_FACE('',(#284),#272,.F.);
#286=CARTESIAN_POINT('',(-1.124093964957E0,2.101676599416E0,
-5.650254271947E-1));
#287=DIRECTION('',(-1.E0,0.E0,0.E0));
#288=DIRECTION('',(0.E0,0.E0,1.E0));
#289=AXIS2_PLACEMENT_3D('',#286,#287,#288);
#290=PLANE('',#289);
#291=ORIENTED_EDGE('',*,*,#239,.F.);
#293=ORIENTED_EDGE('',*,*,#292,.T.);
#295=ORIENTED_EDGE('',*,*,#294,.F.);
#297=ORIENTED_EDGE('',*,*,#296,.F.);
#298=EDGE_LOOP('',(#291,#293,#295,#297));
#299=FACE_OUTER_BOUND('',#298,.F.);
#300=ADVANCED_FACE('',(#299),#290,.F.);
#301=CARTESIAN_POINT('',(0.E0,-3.E-1,0.E0));
#302=DIRECTION('',(0.E0,1.E0,0.E0));
#303=DIRECTION('',(-1.E0,0.E0,0.E0));
#304=AXIS2_PLACEMENT_3D('',#301,#302,#303);
#305=PLANE('',#304);
#306=ORIENTED_EDGE('',*,*,#292,.F.);
#307=ORIENTED_EDGE('',*,*,#247,.F.);
#309=ORIENTED_EDGE('',*,*,#308,.T.);
#311=ORIENTED_EDGE('',*,*,#310,.T.);
#312=EDGE_LOOP('',(#306,#307,#309,#311));
#313=FACE_OUTER_BOUND('',#312,.F.);
#314=ADVANCED_FACE('',(#313),#305,.F.);
#315=CARTESIAN_POINT('',(0.E0,-3.E-1,0.E0));
#316=DIRECTION('',(0.E0,1.E0,0.E0));
#317=DIRECTION('',(-1.E0,0.E0,0.E0));
#318=AXIS2_PLACEMENT_3D('',#315,#316,#317);
#319=PLANE('',#318);
#321=ORIENTED_EDGE('',*,*,#320,.T.);
#323=ORIENTED_EDGE('',*,*,#322,.T.);
#325=ORIENTED_EDGE('',*,*,#324,.F.);
#326=ORIENTED_EDGE('',*,*,#259,.F.);
#327=EDGE_LOOP('',(#321,#323,#325,#326));
#328=FACE_OUTER_BOUND('',#327,.F.);
#329=ADVANCED_FACE('',(#328),#319,.F.);
#330=CARTESIAN_POINT('',(0.E0,-3.E-1,0.E0));
#331=DIRECTION('',(0.E0,1.E0,0.E0));
#332=DIRECTION('',(-1.E0,0.E0,0.E0));
#333=AXIS2_PLACEMENT_3D('',#330,#331,#332);
#334=PLANE('',#333);
#336=ORIENTED_EDGE('',*,*,#335,.T.);
#338=ORIENTED_EDGE('',*,*,#337,.T.);
#340=ORIENTED_EDGE('',*,*,#339,.F.);
#341=ORIENTED_EDGE('',*,*,#275,.F.);
#342=EDGE_LOOP('',(#336,#338,#340,#341));
#343=FACE_OUTER_BOUND('',#342,.F.);
#344=ADVANCED_FACE('',(#343),#334,.F.);
#345=CARTESIAN_POINT('',(0.E0,0.E0,0.E0));
#346=DIRECTION('',(0.E0,0.E0,1.E0));
#347=DIRECTION('',(1.E0,0.E0,0.E0));
#348=AXIS2_PLACEMENT_3D('',#345,#346,#347);
#349=CYLINDRICAL_SURFACE('',#348,1.75E0);
#350=ORIENTED_EDGE('',*,*,#308,.F.);
#351=ORIENTED_EDGE('',*,*,#245,.F.);
#353=ORIENTED_EDGE('',*,*,#352,.T.);
#355=ORIENTED_EDGE('',*,*,#354,.T.);
#357=ORIENTED_EDGE('',*,*,#356,.F.);
#358=ORIENTED_EDGE('',*,*,#277,.F.);
#359=ORIENTED_EDGE('',*,*,#339,.T.);
#361=ORIENTED_EDGE('',*,*,#360,.F.);
#362=EDGE_LOOP('',(#350,#351,#353,#355,#357,#358,#359,#361));
#363=FACE_OUTER_BOUND('',#362,.F.);
#364=ADVANCED_FACE('',(#363),#349,.T.);
#365=CARTESIAN_POINT('',(0.E0,0.E0,0.E0));
#366=DIRECTION('',(0.E0,0.E0,1.E0));
#367=DIRECTION('',(1.E0,0.E0,0.E0));
#368=AXIS2_PLACEMENT_3D('',#365,#366,#367);
#369=CYLINDRICAL_SURFACE('',#368,1.75E0);
#371=ORIENTED_EDGE('',*,*,#370,.F.);
#372=ORIENTED_EDGE('',*,*,#279,.F.);
#373=ORIENTED_EDGE('',*,*,#356,.T.);
#375=ORIENTED_EDGE('',*,*,#374,.T.);
#376=ORIENTED_EDGE('',*,*,#352,.F.);
#377=ORIENTED_EDGE('',*,*,#243,.F.);
#379=ORIENTED_EDGE('',*,*,#378,.T.);
#381=ORIENTED_EDGE('',*,*,#380,.F.);
#382=EDGE_LOOP('',(#371,#372,#373,#375,#376,#377,#379,#381));
#383=FACE_OUTER_BOUND('',#382,.F.);
#384=ADVANCED_FACE('',(#383),#369,.T.);
#385=CARTESIAN_POINT('',(0.E0,3.E-1,0.E0));
#386=DIRECTION('',(0.E0,-1.E0,0.E0));
#387=DIRECTION('',(1.E0,0.E0,0.E0));
#388=AXIS2_PLACEMENT_3D('',#385,#386,#387);
#389=PLANE('',#388);
#390=ORIENTED_EDGE('',*,*,#296,.T.);
#392=ORIENTED_EDGE('',*,*,#391,.T.);
#393=ORIENTED_EDGE('',*,*,#378,.F.);
#394=ORIENTED_EDGE('',*,*,#241,.T.);
#395=EDGE_LOOP('',(#390,#392,#393,#394));
#396=FACE_OUTER_BOUND('',#395,.F.);
#397=ADVANCED_FACE('',(#396),#389,.F.);
#398=CARTESIAN_POINT('',(0.E0,3.E-1,0.E0));
#399=DIRECTION('',(0.E0,-1.E0,0.E0));
#400=DIRECTION('',(1.E0,0.E0,0.E0));
#401=AXIS2_PLACEMENT_3D('',#398,#399,#400);
#402=PLANE('',#401);
#404=ORIENTED_EDGE('',*,*,#403,.F.);
#405=ORIENTED_EDGE('',*,*,#263,.T.);
#407=ORIENTED_EDGE('',*,*,#406,.T.);
#409=ORIENTED_EDGE('',*,*,#408,.T.);
#410=EDGE_LOOP('',(#404,#405,#407,#409));
#411=FACE_OUTER_BOUND('',#410,.F.);
#412=ADVANCED_FACE('',(#411),#402,.F.);
#413=CARTESIAN_POINT('',(0.E0,3.E-1,0.E0));
#414=DIRECTION('',(0.E0,-1.E0,0.E0));
#415=DIRECTION('',(1.E0,0.E0,0.E0));
#416=AXIS2_PLACEMENT_3D('',#413,#414,#415);
#417=PLANE('',#416);
#419=ORIENTED_EDGE('',*,*,#418,.F.);
#420=ORIENTED_EDGE('',*,*,#281,.T.);
#421=ORIENTED_EDGE('',*,*,#370,.T.);
#423=ORIENTED_EDGE('',*,*,#422,.T.);
#424=EDGE_LOOP('',(#419,#420,#421,#423));
#425=FACE_OUTER_BOUND('',#424,.F.);
#426=ADVANCED_FACE('',(#425),#417,.F.);
#427=CARTESIAN_POINT('',(2.752369461805E0,3.E-1,3.E0));
#428=DIRECTION('',(0.E0,0.E0,1.E0));
#429=DIRECTION('',(-1.E0,0.E0,0.E0));
#430=AXIS2_PLACEMENT_3D('',#427,#428,#429);
#431=PLANE('',#430);
#432=ORIENTED_EDGE('',*,*,#294,.T.);
#433=ORIENTED_EDGE('',*,*,#310,.F.);
#434=ORIENTED_EDGE('',*,*,#360,.T.);
#435=ORIENTED_EDGE('',*,*,#337,.F.);
#437=ORIENTED_EDGE('',*,*,#436,.F.);
#438=ORIENTED_EDGE('',*,*,#422,.F.);
#439=ORIENTED_EDGE('',*,*,#380,.T.);
#440=ORIENTED_EDGE('',*,*,#391,.F.);
#441=EDGE_LOOP('',(#432,#433,#434,#435,#437,#438,#439,#440));
#442=FACE_OUTER_BOUND('',#441,.F.);
#444=ORIENTED_EDGE('',*,*,#443,.T.);
#445=ORIENTED_EDGE('',*,*,#322,.F.);
#447=ORIENTED_EDGE('',*,*,#446,.F.);
#448=ORIENTED_EDGE('',*,*,#408,.F.);
#449=EDGE_LOOP('',(#444,#445,#447,#448));
#450=FACE_BOUND('',#449,.F.);
#451=ADVANCED_FACE('',(#442,#450),#431,.F.);
#452=CARTESIAN_POINT('',(3.E-1,2.101676599416E0,-5.650254271947E-1));
#453=DIRECTION('',(-1.E0,0.E0,0.E0));
#454=DIRECTION('',(0.E0,0.E0,1.E0));
#455=AXIS2_PLACEMENT_3D('',#452,#453,#454);
#456=PLANE('',#455);
#457=ORIENTED_EDGE('',*,*,#261,.F.);
#458=ORIENTED_EDGE('',*,*,#324,.T.);
#459=ORIENTED_EDGE('',*,*,#443,.F.);
#460=ORIENTED_EDGE('',*,*,#406,.F.);
#461=EDGE_LOOP('',(#457,#458,#459,#460));
#462=FACE_OUTER_BOUND('',#461,.F.);
#463=ADVANCED_FACE('',(#462),#456,.F.);
#464=CARTESIAN_POINT('',(-3.E-1,2.101676599416E0,3.E0));
#465=DIRECTION('',(1.E0,0.E0,0.E0));
#466=DIRECTION('',(0.E0,0.E0,-1.E0));
#467=AXIS2_PLACEMENT_3D('',#464,#465,#466);
#468=PLANE('',#467);
#469=ORIENTED_EDGE('',*,*,#257,.T.);
#470=ORIENTED_EDGE('',*,*,#403,.T.);
#471=ORIENTED_EDGE('',*,*,#446,.T.);
#472=ORIENTED_EDGE('',*,*,#320,.F.);
#473=EDGE_LOOP('',(#469,#470,#471,#472));
#474=FACE_OUTER_BOUND('',#473,.F.);
#475=ADVANCED_FACE('',(#474),#468,.F.);
#476=CARTESIAN_POINT('',(1.124093964957E0,2.101676599416E0,3.E0));
#477=DIRECTION('',(1.E0,0.E0,0.E0));
#478=DIRECTION('',(0.E0,0.E0,-1.E0));
#479=AXIS2_PLACEMENT_3D('',#476,#477,#478);
#480=PLANE('',#479);
#481=ORIENTED_EDGE('',*,*,#273,.T.);
#482=ORIENTED_EDGE('',*,*,#418,.T.);
#483=ORIENTED_EDGE('',*,*,#436,.T.);
#484=ORIENTED_EDGE('',*,*,#335,.F.);
#485=EDGE_LOOP('',(#481,#482,#483,#484));
#486=FACE_OUTER_BOUND('',#485,.F.);
#487=ADVANCED_FACE('',(#486),#480,.F.);
#488=CARTESIAN_POINT('',(0.E0,0.E0,7.7E0));
#489=DIRECTION('',(0.E0,0.E0,1.E0));
#490=DIRECTION('',(1.E0,0.E0,0.E0));
#491=AXIS2_PLACEMENT_3D('',#488,#489,#490);
#492=PLANE('',#491);
#493=ORIENTED_EDGE('',*,*,#374,.F.);
#494=ORIENTED_EDGE('',*,*,#354,.F.);
#495=EDGE_LOOP('',(#493,#494));
#496=FACE_OUTER_BOUND('',#495,.F.);
#497=ADVANCED_FACE('',(#496),#492,.T.);
#498=CLOSED_SHELL('',(#251,#267,#285,#300,#314,#329,#344,#364,#384,#397,#412,
#426,#451,#463,#475,#487,#497));
#499=MANIFOLD_SOLID_BREP('',#498);
#500=(LENGTH_UNIT()NAMED_UNIT(*)SI_UNIT(.MILLI.,.METRE.));
#501=DIMENSIONAL_EXPONENTS(0.E0,0.E0,0.E0,0.E0,0.E0,0.E0,0.E0);
#502=(NAMED_UNIT(*)PLANE_ANGLE_UNIT()SI_UNIT($,.RADIAN.));
#503=PLANE_ANGLE_MEASURE_WITH_UNIT(PLANE_ANGLE_MEASURE(1.745329251994E-2),#502);
#504=(CONVERSION_BASED_UNIT('DEGREE',#503)NAMED_UNIT(#501)PLANE_ANGLE_UNIT());
#505=(NAMED_UNIT(*)SI_UNIT($,.STERADIAN.)SOLID_ANGLE_UNIT());
#506=UNCERTAINTY_MEASURE_WITH_UNIT(LENGTH_MEASURE(9.154390394966E-4),#500,
'closure',
'Maximum model space distance between geometric entities at asserted connectivities');
#507=(GEOMETRIC_REPRESENTATION_CONTEXT(3)GLOBAL_UNCERTAINTY_ASSIGNED_CONTEXT((
#506))GLOBAL_UNIT_ASSIGNED_CONTEXT((#500,#504,#505))REPRESENTATION_CONTEXT
('ID1','3'));
#509=APPLICATION_CONTEXT(
'CONFIGURATION CONTROLLED 3D DESIGNS OF MECHANICAL PARTS AND ASSEMBLIES');
#510=APPLICATION_PROTOCOL_DEFINITION('international standard',
'config_control_design',1994,#509);
#511=DESIGN_CONTEXT('',#509,'design');
#512=MECHANICAL_CONTEXT('',#509,'mechanical');
#513=PRODUCT('GPS-ANT-EXT-CONN_PRT','GPS-ANT-EXT-CONN_PRT','NOT SPECIFIED',
(#512));
#514=PRODUCT_DEFINITION_FORMATION_WITH_SPECIFIED_SOURCE('1','LAST_VERSION',#513,
.MADE.);
#518=PRODUCT_CATEGORY('part','');
#519=PRODUCT_RELATED_PRODUCT_CATEGORY('detail','',(#513));
#520=PRODUCT_CATEGORY_RELATIONSHIP('','',#518,#519);
#521=SECURITY_CLASSIFICATION_LEVEL('unclassified');
#522=SECURITY_CLASSIFICATION('','',#521);
#523=CC_DESIGN_SECURITY_CLASSIFICATION(#522,(#514));
#524=APPROVAL_STATUS('approved');
#525=APPROVAL(#524,'');
#526=CC_DESIGN_APPROVAL(#525,(#522,#514,#515));
#527=CALENDAR_DATE(108,30,6);
#528=COORDINATED_UNIVERSAL_TIME_OFFSET(3,0,.BEHIND.);
#529=LOCAL_TIME(11,3,1.9E1,#528);
#530=DATE_AND_TIME(#527,#529);
#531=APPROVAL_DATE_TIME(#530,#525);
#532=DATE_TIME_ROLE('creation_date');
#533=CC_DESIGN_DATE_AND_TIME_ASSIGNMENT(#530,#532,(#515));
#534=DATE_TIME_ROLE('classification_date');
#535=CC_DESIGN_DATE_AND_TIME_ASSIGNMENT(#530,#534,(#522));
#536=PERSON('UNSPECIFIED','UNSPECIFIED',$,$,$,$);
#537=ORGANIZATION('UNSPECIFIED','UNSPECIFIED','UNSPECIFIED');
#538=PERSON_AND_ORGANIZATION(#536,#537);
#539=APPROVAL_ROLE('approver');
#540=APPROVAL_PERSON_ORGANIZATION(#538,#525,#539);
#541=PERSON_AND_ORGANIZATION_ROLE('creator');
#542=CC_DESIGN_PERSON_AND_ORGANIZATION_ASSIGNMENT(#538,#541,(#514,#515));
#543=PERSON_AND_ORGANIZATION_ROLE('design_supplier');
#544=CC_DESIGN_PERSON_AND_ORGANIZATION_ASSIGNMENT(#538,#543,(#514));
#545=PERSON_AND_ORGANIZATION_ROLE('classification_officer');
#546=CC_DESIGN_PERSON_AND_ORGANIZATION_ASSIGNMENT(#538,#545,(#522));
#547=PERSON_AND_ORGANIZATION_ROLE('design_owner');
#548=CC_DESIGN_PERSON_AND_ORGANIZATION_ASSIGNMENT(#538,#547,(#513));
#14=CIRCLE('',#13,1.75E0);
#19=CIRCLE('',#18,1.75E0);
#52=CIRCLE('',#51,1.75E0);
#57=CIRCLE('',#56,1.75E0);
#154=CIRCLE('',#153,1.75E0);
#159=CIRCLE('',#158,1.75E0);
#172=CIRCLE('',#171,1.75E0);
#177=CIRCLE('',#176,1.75E0);
#239=EDGE_CURVE('',#204,#205,#5,.T.);
#241=EDGE_CURVE('',#192,#205,#9,.T.);
#243=EDGE_CURVE('',#192,#185,#14,.T.);
#245=EDGE_CURVE('',#185,#196,#19,.T.);
#247=EDGE_CURVE('',#196,#204,#23,.T.);
#257=EDGE_CURVE('',#208,#209,#27,.T.);
#259=EDGE_CURVE('',#208,#212,#31,.T.);
#261=EDGE_CURVE('',#212,#213,#35,.T.);
#263=EDGE_CURVE('',#209,#213,#39,.T.);
#273=EDGE_CURVE('',#216,#217,#43,.T.);
#275=EDGE_CURVE('',#216,#200,#47,.T.);
#277=EDGE_CURVE('',#200,#183,#52,.T.);
#279=EDGE_CURVE('',#183,#188,#57,.T.);
#281=EDGE_CURVE('',#217,#188,#61,.T.);
#292=EDGE_CURVE('',#204,#227,#65,.T.);
#294=EDGE_CURVE('',#219,#227,#149,.T.);
#296=EDGE_CURVE('',#205,#219,#109,.T.);
#308=EDGE_CURVE('',#196,#197,#69,.T.);
#310=EDGE_CURVE('',#197,#227,#73,.T.);
#320=EDGE_CURVE('',#208,#229,#77,.T.);
#322=EDGE_CURVE('',#229,#231,#81,.T.);
#324=EDGE_CURVE('',#212,#231,#85,.T.);
#335=EDGE_CURVE('',#216,#233,#89,.T.);
#337=EDGE_CURVE('',#233,#201,#93,.T.);
#339=EDGE_CURVE('',#200,#201,#97,.T.);
#352=EDGE_CURVE('',#185,#181,#101,.T.);
#354=EDGE_CURVE('',#181,#180,#177,.T.);
#356=EDGE_CURVE('',#183,#180,#105,.T.);
#360=EDGE_CURVE('',#197,#201,#154,.T.);
#370=EDGE_CURVE('',#188,#189,#137,.T.);
#374=EDGE_CURVE('',#180,#181,#172,.T.);
#378=EDGE_CURVE('',#192,#193,#117,.T.);
#380=EDGE_CURVE('',#189,#193,#159,.T.);
#391=EDGE_CURVE('',#219,#193,#113,.T.);
#403=EDGE_CURVE('',#209,#221,#121,.T.);
#406=EDGE_CURVE('',#213,#223,#125,.T.);
#408=EDGE_CURVE('',#223,#221,#129,.T.);
#418=EDGE_CURVE('',#217,#225,#133,.T.);
#422=EDGE_CURVE('',#189,#225,#141,.T.);
#436=EDGE_CURVE('',#225,#233,#167,.T.);
#443=EDGE_CURVE('',#223,#231,#145,.T.);
#446=EDGE_CURVE('',#221,#229,#163,.T.);
#508=ADVANCED_BREP_SHAPE_REPRESENTATION('',(#499),#507);
#515=PRODUCT_DEFINITION('design','',#514,#511);
#516=PRODUCT_DEFINITION_SHAPE('','SHAPE FOR GPS-ANT-EXT-CONN_PRT.',#515);
#517=SHAPE_DEFINITION_REPRESENTATION(#516,#508);
ENDSEC;
END-ISO-10303-21;
