ISO-10303-21;
HEADER;
FILE_DESCRIPTION((''),'2;1');
FILE_NAME('GPS-ANT-CONN_PRT','2008-06-30T',('GRA'),(''),
'PRO/ENGINEER BY PARAMETRIC TECHNOLOGY CORPORATION, 2006170',
'PRO/ENGINEER BY PARAMETRIC TECHNOLOGY CORPORATION, 2006170','');
FILE_SCHEMA(('CONFIG_CONTROL_DESIGN'));
ENDSEC;
DATA;
#2=DIRECTION('',(1.E0,0.E0,0.E0));
#3=VECTOR('',#2,9.E-1);
#4=CARTESIAN_POINT('',(-1.2E0,0.E0,1.3E0));
#5=LINE('',#4,#3);
#6=DIRECTION('',(0.E0,0.E0,1.E0));
#7=VECTOR('',#6,2.5E-1);
#8=CARTESIAN_POINT('',(-3.E-1,0.E0,1.3E0));
#9=LINE('',#8,#7);
#10=DIRECTION('',(1.E0,0.E0,0.E0));
#11=VECTOR('',#10,6.E-1);
#12=CARTESIAN_POINT('',(-3.E-1,0.E0,1.55E0));
#13=LINE('',#12,#11);
#14=DIRECTION('',(0.E0,0.E0,-1.E0));
#15=VECTOR('',#14,2.5E-1);
#16=CARTESIAN_POINT('',(3.E-1,0.E0,1.55E0));
#17=LINE('',#16,#15);
#18=DIRECTION('',(1.E0,0.E0,0.E0));
#19=VECTOR('',#18,9.E-1);
#20=CARTESIAN_POINT('',(3.E-1,0.E0,1.3E0));
#21=LINE('',#20,#19);
#22=DIRECTION('',(0.E0,0.E0,-1.E0));
#23=VECTOR('',#22,3.E-1);
#24=CARTESIAN_POINT('',(1.3E0,0.E0,1.2E0));
#25=LINE('',#24,#23);
#26=DIRECTION('',(1.E0,0.E0,0.E0));
#27=VECTOR('',#26,2.E-1);
#28=CARTESIAN_POINT('',(1.3E0,0.E0,9.E-1));
#29=LINE('',#28,#27);
#30=DIRECTION('',(0.E0,0.E0,-1.E0));
#31=VECTOR('',#30,1.8E0);
#32=CARTESIAN_POINT('',(1.5E0,0.E0,9.E-1));
#33=LINE('',#32,#31);
#34=DIRECTION('',(-1.E0,0.E0,0.E0));
#35=VECTOR('',#34,2.E-1);
#36=CARTESIAN_POINT('',(1.5E0,0.E0,-9.E-1));
#37=LINE('',#36,#35);
#38=DIRECTION('',(0.E0,0.E0,-1.E0));
#39=VECTOR('',#38,3.E-1);
#40=CARTESIAN_POINT('',(1.3E0,0.E0,-9.E-1));
#41=LINE('',#40,#39);
#42=DIRECTION('',(-1.E0,0.E0,0.E0));
#43=VECTOR('',#42,2.4E0);
#44=CARTESIAN_POINT('',(1.2E0,0.E0,-1.3E0));
#45=LINE('',#44,#43);
#46=DIRECTION('',(0.E0,0.E0,1.E0));
#47=VECTOR('',#46,3.E-1);
#48=CARTESIAN_POINT('',(-1.3E0,0.E0,-1.2E0));
#49=LINE('',#48,#47);
#50=DIRECTION('',(-1.E0,0.E0,0.E0));
#51=VECTOR('',#50,2.E-1);
#52=CARTESIAN_POINT('',(-1.3E0,0.E0,-9.E-1));
#53=LINE('',#52,#51);
#54=DIRECTION('',(0.E0,0.E0,1.E0));
#55=VECTOR('',#54,1.8E0);
#56=CARTESIAN_POINT('',(-1.5E0,0.E0,-9.E-1));
#57=LINE('',#56,#55);
#58=DIRECTION('',(1.E0,0.E0,0.E0));
#59=VECTOR('',#58,2.E-1);
#60=CARTESIAN_POINT('',(-1.5E0,0.E0,9.E-1));
#61=LINE('',#60,#59);
#62=DIRECTION('',(0.E0,0.E0,1.E0));
#63=VECTOR('',#62,3.E-1);
#64=CARTESIAN_POINT('',(-1.3E0,0.E0,9.E-1));
#65=LINE('',#64,#63);
#66=DIRECTION('',(0.E0,-1.E0,0.E0));
#67=VECTOR('',#66,3.5E-1);
#68=CARTESIAN_POINT('',(-1.3E0,3.5E-1,1.2E0));
#69=LINE('',#68,#67);
#70=CARTESIAN_POINT('',(-1.2E0,3.5E-1,1.2E0));
#71=DIRECTION('',(0.E0,1.E0,0.E0));
#72=DIRECTION('',(-1.E0,0.E0,0.E0));
#73=AXIS2_PLACEMENT_3D('',#70,#71,#72);
#75=DIRECTION('',(0.E0,-1.E0,0.E0));
#76=VECTOR('',#75,3.5E-1);
#77=CARTESIAN_POINT('',(-1.2E0,3.5E-1,1.3E0));
#78=LINE('',#77,#76);
#79=CARTESIAN_POINT('',(-1.2E0,0.E0,1.2E0));
#80=DIRECTION('',(0.E0,-1.E0,0.E0));
#81=DIRECTION('',(0.E0,0.E0,1.E0));
#82=AXIS2_PLACEMENT_3D('',#79,#80,#81);
#84=DIRECTION('',(0.E0,1.E0,0.E0));
#85=VECTOR('',#84,2.E-1);
#86=CARTESIAN_POINT('',(-1.3E0,0.E0,9.E-1));
#87=LINE('',#86,#85);
#88=DIRECTION('',(0.E0,0.E0,-1.E0));
#89=VECTOR('',#88,1.8E0);
#90=CARTESIAN_POINT('',(-1.3E0,2.E-1,9.E-1));
#91=LINE('',#90,#89);
#92=DIRECTION('',(0.E0,1.E0,0.E0));
#93=VECTOR('',#92,2.E-1);
#94=CARTESIAN_POINT('',(-1.3E0,0.E0,-9.E-1));
#95=LINE('',#94,#93);
#96=DIRECTION('',(0.E0,1.E0,0.E0));
#97=VECTOR('',#96,2.E-1);
#98=CARTESIAN_POINT('',(-1.5E0,0.E0,9.E-1));
#99=LINE('',#98,#97);
#100=DIRECTION('',(0.E0,1.E0,0.E0));
#101=VECTOR('',#100,2.E-1);
#102=CARTESIAN_POINT('',(-1.5E0,0.E0,-9.E-1));
#103=LINE('',#102,#101);
#104=DIRECTION('',(0.E0,0.E0,-1.E0));
#105=VECTOR('',#104,2.5E-1);
#106=CARTESIAN_POINT('',(3.E-1,2.E-1,1.55E0));
#107=LINE('',#106,#105);
#108=DIRECTION('',(1.E0,0.E0,0.E0));
#109=VECTOR('',#108,6.E-1);
#110=CARTESIAN_POINT('',(-3.E-1,2.E-1,1.55E0));
#111=LINE('',#110,#109);
#112=DIRECTION('',(0.E0,0.E0,1.E0));
#113=VECTOR('',#112,2.5E-1);
#114=CARTESIAN_POINT('',(-3.E-1,2.E-1,1.3E0));
#115=LINE('',#114,#113);
#116=DIRECTION('',(-1.E0,0.E0,0.E0));
#117=VECTOR('',#116,2.E-1);
#118=CARTESIAN_POINT('',(1.5E0,2.E-1,-9.E-1));
#119=LINE('',#118,#117);
#120=DIRECTION('',(0.E0,0.E0,-1.E0));
#121=VECTOR('',#120,1.8E0);
#122=CARTESIAN_POINT('',(1.5E0,2.E-1,9.E-1));
#123=LINE('',#122,#121);
#124=DIRECTION('',(1.E0,0.E0,0.E0));
#125=VECTOR('',#124,2.E-1);
#126=CARTESIAN_POINT('',(1.3E0,2.E-1,9.E-1));
#127=LINE('',#126,#125);
#128=DIRECTION('',(1.E0,0.E0,0.E0));
#129=VECTOR('',#128,2.E-1);
#130=CARTESIAN_POINT('',(-1.5E0,2.E-1,9.E-1));
#131=LINE('',#130,#129);
#132=DIRECTION('',(0.E0,0.E0,1.E0));
#133=VECTOR('',#132,1.8E0);
#134=CARTESIAN_POINT('',(-1.5E0,2.E-1,-9.E-1));
#135=LINE('',#134,#133);
#136=DIRECTION('',(-1.E0,0.E0,0.E0));
#137=VECTOR('',#136,2.E-1);
#138=CARTESIAN_POINT('',(-1.3E0,2.E-1,-9.E-1));
#139=LINE('',#138,#137);
#140=DIRECTION('',(0.E0,1.E0,0.E0));
#141=VECTOR('',#140,2.E-1);
#142=CARTESIAN_POINT('',(3.E-1,0.E0,1.3E0));
#143=LINE('',#142,#141);
#144=DIRECTION('',(1.E0,0.E0,0.E0));
#145=VECTOR('',#144,6.E-1);
#146=CARTESIAN_POINT('',(-3.E-1,2.E-1,1.3E0));
#147=LINE('',#146,#145);
#148=DIRECTION('',(0.E0,1.E0,0.E0));
#149=VECTOR('',#148,2.E-1);
#150=CARTESIAN_POINT('',(-3.E-1,0.E0,1.3E0));
#151=LINE('',#150,#149);
#152=CARTESIAN_POINT('',(0.E0,3.5E-1,0.E0));
#153=DIRECTION('',(0.E0,-1.E0,0.E0));
#154=DIRECTION('',(-1.E0,0.E0,0.E0));
#155=AXIS2_PLACEMENT_3D('',#152,#153,#154);
#157=CARTESIAN_POINT('',(0.E0,3.5E-1,0.E0));
#158=DIRECTION('',(0.E0,-1.E0,0.E0));
#159=DIRECTION('',(1.E0,0.E0,0.E0));
#160=AXIS2_PLACEMENT_3D('',#157,#158,#159);
#162=DIRECTION('',(0.E0,0.E0,1.E0));
#163=VECTOR('',#162,2.4E0);
#164=CARTESIAN_POINT('',(-1.3E0,3.5E-1,-1.2E0));
#165=LINE('',#164,#163);
#166=DIRECTION('',(-1.E0,0.E0,0.E0));
#167=VECTOR('',#166,2.4E0);
#168=CARTESIAN_POINT('',(1.2E0,3.5E-1,-1.3E0));
#169=LINE('',#168,#167);
#170=DIRECTION('',(0.E0,0.E0,-1.E0));
#171=VECTOR('',#170,2.4E0);
#172=CARTESIAN_POINT('',(1.3E0,3.5E-1,1.2E0));
#173=LINE('',#172,#171);
#174=DIRECTION('',(1.E0,0.E0,0.E0));
#175=VECTOR('',#174,2.4E0);
#176=CARTESIAN_POINT('',(-1.2E0,3.5E-1,1.3E0));
#177=LINE('',#176,#175);
#178=DIRECTION('',(0.E0,-1.E0,0.E0));
#179=VECTOR('',#178,8.E-1);
#180=CARTESIAN_POINT('',(-1.E0,1.15E0,0.E0));
#181=LINE('',#180,#179);
#182=DIRECTION('',(0.E0,-1.E0,0.E0));
#183=VECTOR('',#182,8.E-1);
#184=CARTESIAN_POINT('',(1.E0,1.15E0,0.E0));
#185=LINE('',#184,#183);
#186=CARTESIAN_POINT('',(0.E0,1.25E0,0.E0));
#187=DIRECTION('',(0.E0,-1.E0,0.E0));
#188=DIRECTION('',(1.E0,0.E0,0.E0));
#189=AXIS2_PLACEMENT_3D('',#186,#187,#188);
#191=CARTESIAN_POINT('',(0.E0,1.15E0,0.E0));
#192=DIRECTION('',(0.E0,-1.E0,0.E0));
#193=DIRECTION('',(1.E0,0.E0,0.E0));
#194=AXIS2_PLACEMENT_3D('',#191,#192,#193);
#196=CARTESIAN_POINT('',(0.E0,1.25E0,0.E0));
#197=DIRECTION('',(0.E0,-1.E0,0.E0));
#198=DIRECTION('',(-1.E0,0.E0,0.E0));
#199=AXIS2_PLACEMENT_3D('',#196,#197,#198);
#201=DIRECTION('',(-7.071067811865E-1,-7.071067811865E-1,-3.414142285360E-14));
#202=VECTOR('',#201,1.414213562373E-1);
#203=CARTESIAN_POINT('',(-9.E-1,1.25E0,0.E0));
#204=LINE('',#203,#202);
#205=CARTESIAN_POINT('',(0.E0,1.15E0,0.E0));
#206=DIRECTION('',(0.E0,-1.E0,0.E0));
#207=DIRECTION('',(-1.E0,0.E0,0.E0));
#208=AXIS2_PLACEMENT_3D('',#205,#206,#207);
#210=DIRECTION('',(7.071067811865E-1,-7.071067811865E-1,0.E0));
#211=VECTOR('',#210,1.414213562373E-1);
#212=CARTESIAN_POINT('',(9.E-1,1.25E0,0.E0));
#213=LINE('',#212,#211);
#214=DIRECTION('',(0.E0,-1.E0,0.E0));
#215=VECTOR('',#214,3.5E-1);
#216=CARTESIAN_POINT('',(-1.2E0,3.5E-1,-1.3E0));
#217=LINE('',#216,#215);
#218=CARTESIAN_POINT('',(-1.2E0,3.5E-1,-1.2E0));
#219=DIRECTION('',(0.E0,1.E0,0.E0));
#220=DIRECTION('',(0.E0,0.E0,-1.E0));
#221=AXIS2_PLACEMENT_3D('',#218,#219,#220);
#223=DIRECTION('',(0.E0,-1.E0,0.E0));
#224=VECTOR('',#223,3.5E-1);
#225=CARTESIAN_POINT('',(-1.3E0,3.5E-1,-1.2E0));
#226=LINE('',#225,#224);
#227=CARTESIAN_POINT('',(-1.2E0,0.E0,-1.2E0));
#228=DIRECTION('',(0.E0,-1.E0,0.E0));
#229=DIRECTION('',(-1.E0,0.E0,0.E0));
#230=AXIS2_PLACEMENT_3D('',#227,#228,#229);
#232=DIRECTION('',(0.E0,-1.E0,0.E0));
#233=VECTOR('',#232,3.5E-1);
#234=CARTESIAN_POINT('',(1.3E0,3.5E-1,-1.2E0));
#235=LINE('',#234,#233);
#236=CARTESIAN_POINT('',(1.2E0,3.5E-1,-1.2E0));
#237=DIRECTION('',(0.E0,1.E0,0.E0));
#238=DIRECTION('',(1.E0,0.E0,0.E0));
#239=AXIS2_PLACEMENT_3D('',#236,#237,#238);
#241=DIRECTION('',(0.E0,-1.E0,0.E0));
#242=VECTOR('',#241,3.5E-1);
#243=CARTESIAN_POINT('',(1.2E0,3.5E-1,-1.3E0));
#244=LINE('',#243,#242);
#245=CARTESIAN_POINT('',(1.2E0,0.E0,-1.2E0));
#246=DIRECTION('',(0.E0,-1.E0,0.E0));
#247=DIRECTION('',(0.E0,0.E0,-1.E0));
#248=AXIS2_PLACEMENT_3D('',#245,#246,#247);
#250=DIRECTION('',(0.E0,1.E0,0.E0));
#251=VECTOR('',#250,2.E-1);
#252=CARTESIAN_POINT('',(1.3E0,0.E0,-9.E-1));
#253=LINE('',#252,#251);
#254=DIRECTION('',(0.E0,0.E0,-1.E0));
#255=VECTOR('',#254,1.8E0);
#256=CARTESIAN_POINT('',(1.3E0,2.E-1,9.E-1));
#257=LINE('',#256,#255);
#258=DIRECTION('',(0.E0,1.E0,0.E0));
#259=VECTOR('',#258,2.E-1);
#260=CARTESIAN_POINT('',(1.3E0,0.E0,9.E-1));
#261=LINE('',#260,#259);
#262=DIRECTION('',(0.E0,-1.E0,0.E0));
#263=VECTOR('',#262,3.5E-1);
#264=CARTESIAN_POINT('',(1.2E0,3.5E-1,1.3E0));
#265=LINE('',#264,#263);
#266=CARTESIAN_POINT('',(1.2E0,3.5E-1,1.2E0));
#267=DIRECTION('',(0.E0,1.E0,0.E0));
#268=DIRECTION('',(0.E0,0.E0,1.E0));
#269=AXIS2_PLACEMENT_3D('',#266,#267,#268);
#271=DIRECTION('',(0.E0,-1.E0,0.E0));
#272=VECTOR('',#271,3.5E-1);
#273=CARTESIAN_POINT('',(1.3E0,3.5E-1,1.2E0));
#274=LINE('',#273,#272);
#275=CARTESIAN_POINT('',(1.2E0,0.E0,1.2E0));
#276=DIRECTION('',(0.E0,-1.E0,0.E0));
#277=DIRECTION('',(1.E0,0.E0,0.E0));
#278=AXIS2_PLACEMENT_3D('',#275,#276,#277);
#280=DIRECTION('',(0.E0,1.E0,0.E0));
#281=VECTOR('',#280,2.E-1);
#282=CARTESIAN_POINT('',(1.5E0,0.E0,-9.E-1));
#283=LINE('',#282,#281);
#284=DIRECTION('',(0.E0,1.E0,0.E0));
#285=VECTOR('',#284,2.E-1);
#286=CARTESIAN_POINT('',(1.5E0,0.E0,9.E-1));
#287=LINE('',#286,#285);
#288=DIRECTION('',(0.E0,1.E0,0.E0));
#289=VECTOR('',#288,2.E-1);
#290=CARTESIAN_POINT('',(3.E-1,0.E0,1.55E0));
#291=LINE('',#290,#289);
#292=DIRECTION('',(0.E0,1.E0,0.E0));
#293=VECTOR('',#292,2.E-1);
#294=CARTESIAN_POINT('',(-3.E-1,0.E0,1.55E0));
#295=LINE('',#294,#293);
#296=CARTESIAN_POINT('',(-1.E0,3.5E-1,0.E0));
#297=CARTESIAN_POINT('',(1.E0,3.5E-1,0.E0));
#298=VERTEX_POINT('',#296);
#299=VERTEX_POINT('',#297);
#300=CARTESIAN_POINT('',(1.5E0,0.E0,9.E-1));
#301=CARTESIAN_POINT('',(1.5E0,0.E0,-9.E-1));
#302=VERTEX_POINT('',#300);
#303=VERTEX_POINT('',#301);
#304=CARTESIAN_POINT('',(-1.5E0,0.E0,-9.E-1));
#305=CARTESIAN_POINT('',(-1.5E0,0.E0,9.E-1));
#306=VERTEX_POINT('',#304);
#307=VERTEX_POINT('',#305);
#308=CARTESIAN_POINT('',(-3.E-1,0.E0,1.55E0));
#309=CARTESIAN_POINT('',(3.E-1,0.E0,1.55E0));
#310=VERTEX_POINT('',#308);
#311=VERTEX_POINT('',#309);
#312=CARTESIAN_POINT('',(1.5E0,2.E-1,9.E-1));
#313=CARTESIAN_POINT('',(1.5E0,2.E-1,-9.E-1));
#314=VERTEX_POINT('',#312);
#315=VERTEX_POINT('',#313);
#316=CARTESIAN_POINT('',(-1.5E0,2.E-1,-9.E-1));
#317=CARTESIAN_POINT('',(-1.5E0,2.E-1,9.E-1));
#318=VERTEX_POINT('',#316);
#319=VERTEX_POINT('',#317);
#320=CARTESIAN_POINT('',(-3.E-1,2.E-1,1.55E0));
#321=CARTESIAN_POINT('',(3.E-1,2.E-1,1.55E0));
#322=VERTEX_POINT('',#320);
#323=VERTEX_POINT('',#321);
#324=CARTESIAN_POINT('',(-3.E-1,2.E-1,1.3E0));
#325=CARTESIAN_POINT('',(3.E-1,2.E-1,1.3E0));
#326=VERTEX_POINT('',#324);
#327=VERTEX_POINT('',#325);
#328=CARTESIAN_POINT('',(3.E-1,0.E0,1.3E0));
#329=VERTEX_POINT('',#328);
#330=CARTESIAN_POINT('',(-3.E-1,0.E0,1.3E0));
#331=VERTEX_POINT('',#330);
#332=CARTESIAN_POINT('',(1.3E0,2.E-1,9.E-1));
#333=CARTESIAN_POINT('',(1.3E0,2.E-1,-9.E-1));
#334=VERTEX_POINT('',#332);
#335=VERTEX_POINT('',#333);
#336=CARTESIAN_POINT('',(1.3E0,0.E0,9.E-1));
#337=VERTEX_POINT('',#336);
#338=CARTESIAN_POINT('',(1.3E0,0.E0,-9.E-1));
#339=VERTEX_POINT('',#338);
#340=CARTESIAN_POINT('',(-1.3E0,2.E-1,9.E-1));
#341=CARTESIAN_POINT('',(-1.3E0,2.E-1,-9.E-1));
#342=VERTEX_POINT('',#340);
#343=VERTEX_POINT('',#341);
#344=CARTESIAN_POINT('',(-1.3E0,0.E0,-9.E-1));
#345=VERTEX_POINT('',#344);
#346=CARTESIAN_POINT('',(-1.3E0,0.E0,9.E-1));
#347=VERTEX_POINT('',#346);
#348=CARTESIAN_POINT('',(9.E-1,1.25E0,0.E0));
#349=CARTESIAN_POINT('',(-9.E-1,1.25E0,0.E0));
#350=VERTEX_POINT('',#348);
#351=VERTEX_POINT('',#349);
#352=CARTESIAN_POINT('',(1.E0,1.15E0,0.E0));
#353=CARTESIAN_POINT('',(-1.E0,1.15E0,0.E0));
#354=VERTEX_POINT('',#352);
#355=VERTEX_POINT('',#353);
#356=CARTESIAN_POINT('',(-1.3E0,3.5E-1,1.2E0));
#357=CARTESIAN_POINT('',(-1.3E0,0.E0,1.2E0));
#358=VERTEX_POINT('',#356);
#359=VERTEX_POINT('',#357);
#360=CARTESIAN_POINT('',(-1.2E0,3.5E-1,1.3E0));
#361=VERTEX_POINT('',#360);
#362=CARTESIAN_POINT('',(-1.2E0,0.E0,1.3E0));
#363=VERTEX_POINT('',#362);
#364=CARTESIAN_POINT('',(1.2E0,3.5E-1,1.3E0));
#365=CARTESIAN_POINT('',(1.2E0,0.E0,1.3E0));
#366=VERTEX_POINT('',#364);
#367=VERTEX_POINT('',#365);
#368=CARTESIAN_POINT('',(1.3E0,3.5E-1,1.2E0));
#369=VERTEX_POINT('',#368);
#370=CARTESIAN_POINT('',(1.3E0,0.E0,1.2E0));
#371=VERTEX_POINT('',#370);
#372=CARTESIAN_POINT('',(-1.2E0,3.5E-1,-1.3E0));
#373=CARTESIAN_POINT('',(-1.2E0,0.E0,-1.3E0));
#374=VERTEX_POINT('',#372);
#375=VERTEX_POINT('',#373);
#376=CARTESIAN_POINT('',(-1.3E0,3.5E-1,-1.2E0));
#377=VERTEX_POINT('',#376);
#378=CARTESIAN_POINT('',(-1.3E0,0.E0,-1.2E0));
#379=VERTEX_POINT('',#378);
#380=CARTESIAN_POINT('',(1.3E0,3.5E-1,-1.2E0));
#381=CARTESIAN_POINT('',(1.3E0,0.E0,-1.2E0));
#382=VERTEX_POINT('',#380);
#383=VERTEX_POINT('',#381);
#384=CARTESIAN_POINT('',(1.2E0,3.5E-1,-1.3E0));
#385=VERTEX_POINT('',#384);
#386=CARTESIAN_POINT('',(1.2E0,0.E0,-1.3E0));
#387=VERTEX_POINT('',#386);
#388=CARTESIAN_POINT('',(0.E0,0.E0,0.E0));
#389=DIRECTION('',(0.E0,1.E0,0.E0));
#390=DIRECTION('',(1.E0,0.E0,0.E0));
#391=AXIS2_PLACEMENT_3D('',#388,#389,#390);
#392=PLANE('',#391);
#394=ORIENTED_EDGE('',*,*,#393,.F.);
#396=ORIENTED_EDGE('',*,*,#395,.T.);
#398=ORIENTED_EDGE('',*,*,#397,.T.);
#400=ORIENTED_EDGE('',*,*,#399,.T.);
#402=ORIENTED_EDGE('',*,*,#401,.T.);
#404=ORIENTED_EDGE('',*,*,#403,.T.);
#406=ORIENTED_EDGE('',*,*,#405,.F.);
#408=ORIENTED_EDGE('',*,*,#407,.T.);
#410=ORIENTED_EDGE('',*,*,#409,.T.);
#412=ORIENTED_EDGE('',*,*,#411,.T.);
#414=ORIENTED_EDGE('',*,*,#413,.T.);
#416=ORIENTED_EDGE('',*,*,#415,.T.);
#418=ORIENTED_EDGE('',*,*,#417,.F.);
#420=ORIENTED_EDGE('',*,*,#419,.T.);
#422=ORIENTED_EDGE('',*,*,#421,.F.);
#424=ORIENTED_EDGE('',*,*,#423,.T.);
#426=ORIENTED_EDGE('',*,*,#425,.T.);
#428=ORIENTED_EDGE('',*,*,#427,.T.);
#430=ORIENTED_EDGE('',*,*,#429,.T.);
#432=ORIENTED_EDGE('',*,*,#431,.T.);
#433=EDGE_LOOP('',(#394,#396,#398,#400,#402,#404,#406,#408,#410,#412,#414,#416,
#418,#420,#422,#424,#426,#428,#430,#432));
#434=FACE_OUTER_BOUND('',#433,.F.);
#435=ADVANCED_FACE('',(#434),#392,.F.);
#436=CARTESIAN_POINT('',(-1.2E0,3.528182322132E-1,1.2E0));
#437=DIRECTION('',(0.E0,-1.E0,0.E0));
#438=DIRECTION('',(0.E0,0.E0,1.E0));
#439=AXIS2_PLACEMENT_3D('',#436,#437,#438);
#440=CYLINDRICAL_SURFACE('',#439,1.E-1);
#442=ORIENTED_EDGE('',*,*,#441,.F.);
#444=ORIENTED_EDGE('',*,*,#443,.T.);
#446=ORIENTED_EDGE('',*,*,#445,.T.);
#447=ORIENTED_EDGE('',*,*,#393,.T.);
#448=EDGE_LOOP('',(#442,#444,#446,#447));
#449=FACE_OUTER_BOUND('',#448,.F.);
#450=ADVANCED_FACE('',(#449),#440,.T.);
#451=CARTESIAN_POINT('',(-1.3E0,0.E0,-1.3E0));
#452=DIRECTION('',(-1.E0,0.E0,0.E0));
#453=DIRECTION('',(0.E0,0.E0,1.E0));
#454=AXIS2_PLACEMENT_3D('',#451,#452,#453);
#455=PLANE('',#454);
#456=ORIENTED_EDGE('',*,*,#441,.T.);
#457=ORIENTED_EDGE('',*,*,#431,.F.);
#459=ORIENTED_EDGE('',*,*,#458,.T.);
#461=ORIENTED_EDGE('',*,*,#460,.T.);
#463=ORIENTED_EDGE('',*,*,#462,.F.);
#464=ORIENTED_EDGE('',*,*,#423,.F.);
#466=ORIENTED_EDGE('',*,*,#465,.F.);
#468=ORIENTED_EDGE('',*,*,#467,.T.);
#469=EDGE_LOOP('',(#456,#457,#459,#461,#463,#464,#466,#468));
#470=FACE_OUTER_BOUND('',#469,.F.);
#471=ADVANCED_FACE('',(#470),#455,.T.);
#472=CARTESIAN_POINT('',(-1.5E0,0.E0,9.E-1));
#473=DIRECTION('',(0.E0,0.E0,1.E0));
#474=DIRECTION('',(1.E0,0.E0,0.E0));
#475=AXIS2_PLACEMENT_3D('',#472,#473,#474);
#476=PLANE('',#475);
#477=ORIENTED_EDGE('',*,*,#458,.F.);
#478=ORIENTED_EDGE('',*,*,#429,.F.);
#480=ORIENTED_EDGE('',*,*,#479,.T.);
#482=ORIENTED_EDGE('',*,*,#481,.T.);
#483=EDGE_LOOP('',(#477,#478,#480,#482));
#484=FACE_OUTER_BOUND('',#483,.F.);
#485=ADVANCED_FACE('',(#484),#476,.T.);
#486=CARTESIAN_POINT('',(-1.5E0,0.E0,-9.E-1));
#487=DIRECTION('',(-1.E0,0.E0,0.E0));
#488=DIRECTION('',(0.E0,0.E0,1.E0));
#489=AXIS2_PLACEMENT_3D('',#486,#487,#488);
#490=PLANE('',#489);
#491=ORIENTED_EDGE('',*,*,#427,.F.);
#493=ORIENTED_EDGE('',*,*,#492,.T.);
#495=ORIENTED_EDGE('',*,*,#494,.T.);
#496=ORIENTED_EDGE('',*,*,#479,.F.);
#497=EDGE_LOOP('',(#491,#493,#495,#496));
#498=FACE_OUTER_BOUND('',#497,.F.);
#499=ADVANCED_FACE('',(#498),#490,.T.);
#500=CARTESIAN_POINT('',(-1.3E0,0.E0,-9.E-1));
#501=DIRECTION('',(0.E0,0.E0,-1.E0));
#502=DIRECTION('',(-1.E0,0.E0,0.E0));
#503=AXIS2_PLACEMENT_3D('',#500,#501,#502);
#504=PLANE('',#503);
#505=ORIENTED_EDGE('',*,*,#462,.T.);
#507=ORIENTED_EDGE('',*,*,#506,.T.);
#508=ORIENTED_EDGE('',*,*,#492,.F.);
#509=ORIENTED_EDGE('',*,*,#425,.F.);
#510=EDGE_LOOP('',(#505,#507,#508,#509));
#511=FACE_OUTER_BOUND('',#510,.F.);
#512=ADVANCED_FACE('',(#511),#504,.T.);
#513=CARTESIAN_POINT('',(0.E0,2.E-1,0.E0));
#514=DIRECTION('',(0.E0,1.E0,0.E0));
#515=DIRECTION('',(1.E0,0.E0,0.E0));
#516=AXIS2_PLACEMENT_3D('',#513,#514,#515);
#517=PLANE('',#516);
#519=ORIENTED_EDGE('',*,*,#518,.T.);
#521=ORIENTED_EDGE('',*,*,#520,.F.);
#523=ORIENTED_EDGE('',*,*,#522,.F.);
#525=ORIENTED_EDGE('',*,*,#524,.F.);
#526=EDGE_LOOP('',(#519,#521,#523,#525));
#527=FACE_OUTER_BOUND('',#526,.F.);
#528=ADVANCED_FACE('',(#527),#517,.T.);
#529=CARTESIAN_POINT('',(0.E0,2.E-1,0.E0));
#530=DIRECTION('',(0.E0,1.E0,0.E0));
#531=DIRECTION('',(1.E0,0.E0,0.E0));
#532=AXIS2_PLACEMENT_3D('',#529,#530,#531);
#533=PLANE('',#532);
#535=ORIENTED_EDGE('',*,*,#534,.T.);
#537=ORIENTED_EDGE('',*,*,#536,.F.);
#539=ORIENTED_EDGE('',*,*,#538,.F.);
#541=ORIENTED_EDGE('',*,*,#540,.F.);
#542=EDGE_LOOP('',(#535,#537,#539,#541));
#543=FACE_OUTER_BOUND('',#542,.F.);
#544=ADVANCED_FACE('',(#543),#533,.T.);
#545=CARTESIAN_POINT('',(0.E0,2.E-1,0.E0));
#546=DIRECTION('',(0.E0,1.E0,0.E0));
#547=DIRECTION('',(1.E0,0.E0,0.E0));
#548=AXIS2_PLACEMENT_3D('',#545,#546,#547);
#549=PLANE('',#548);
#550=ORIENTED_EDGE('',*,*,#460,.F.);
#551=ORIENTED_EDGE('',*,*,#481,.F.);
#552=ORIENTED_EDGE('',*,*,#494,.F.);
#553=ORIENTED_EDGE('',*,*,#506,.F.);
#554=EDGE_LOOP('',(#550,#551,#552,#553));
#555=FACE_OUTER_BOUND('',#554,.F.);
#556=ADVANCED_FACE('',(#555),#549,.T.);
#557=CARTESIAN_POINT('',(-1.3E0,0.E0,1.3E0));
#558=DIRECTION('',(0.E0,0.E0,1.E0));
#559=DIRECTION('',(1.E0,0.E0,0.E0));
#560=AXIS2_PLACEMENT_3D('',#557,#558,#559);
#561=PLANE('',#560);
#562=ORIENTED_EDGE('',*,*,#445,.F.);
#564=ORIENTED_EDGE('',*,*,#563,.T.);
#566=ORIENTED_EDGE('',*,*,#565,.T.);
#567=ORIENTED_EDGE('',*,*,#403,.F.);
#569=ORIENTED_EDGE('',*,*,#568,.T.);
#570=ORIENTED_EDGE('',*,*,#518,.F.);
#572=ORIENTED_EDGE('',*,*,#571,.F.);
#573=ORIENTED_EDGE('',*,*,#395,.F.);
#574=EDGE_LOOP('',(#562,#564,#566,#567,#569,#570,#572,#573));
#575=FACE_OUTER_BOUND('',#574,.F.);
#576=ADVANCED_FACE('',(#575),#561,.T.);
#577=CARTESIAN_POINT('',(0.E0,3.5E-1,0.E0));
#578=DIRECTION('',(0.E0,1.E0,0.E0));
#579=DIRECTION('',(1.E0,0.E0,0.E0));
#580=AXIS2_PLACEMENT_3D('',#577,#578,#579);
#581=PLANE('',#580);
#582=ORIENTED_EDGE('',*,*,#443,.F.);
#583=ORIENTED_EDGE('',*,*,#467,.F.);
#585=ORIENTED_EDGE('',*,*,#584,.F.);
#587=ORIENTED_EDGE('',*,*,#586,.F.);
#589=ORIENTED_EDGE('',*,*,#588,.F.);
#591=ORIENTED_EDGE('',*,*,#590,.F.);
#593=ORIENTED_EDGE('',*,*,#592,.F.);
#594=ORIENTED_EDGE('',*,*,#563,.F.);
#595=EDGE_LOOP('',(#582,#583,#585,#587,#589,#591,#593,#594));
#596=FACE_OUTER_BOUND('',#595,.F.);
#598=ORIENTED_EDGE('',*,*,#597,.F.);
#600=ORIENTED_EDGE('',*,*,#599,.F.);
#601=EDGE_LOOP('',(#598,#600));
#602=FACE_BOUND('',#601,.F.);
#603=ADVANCED_FACE('',(#596,#602),#581,.T.);
#604=CARTESIAN_POINT('',(0.E0,1.25E0,0.E0));
#605=DIRECTION('',(0.E0,-1.E0,0.E0));
#606=DIRECTION('',(-1.E0,0.E0,0.E0));
#607=AXIS2_PLACEMENT_3D('',#604,#605,#606);
#608=CYLINDRICAL_SURFACE('',#607,1.E0);
#609=ORIENTED_EDGE('',*,*,#597,.T.);
#611=ORIENTED_EDGE('',*,*,#610,.F.);
#613=ORIENTED_EDGE('',*,*,#612,.F.);
#615=ORIENTED_EDGE('',*,*,#614,.T.);
#616=EDGE_LOOP('',(#609,#611,#613,#615));
#617=FACE_OUTER_BOUND('',#616,.F.);
#618=ADVANCED_FACE('',(#617),#608,.T.);
#619=CARTESIAN_POINT('',(0.E0,1.25E0,0.E0));
#620=DIRECTION('',(0.E0,-1.E0,0.E0));
#621=DIRECTION('',(-1.E0,0.E0,0.E0));
#622=AXIS2_PLACEMENT_3D('',#619,#620,#621);
#623=CYLINDRICAL_SURFACE('',#622,1.E0);
#624=ORIENTED_EDGE('',*,*,#599,.T.);
#625=ORIENTED_EDGE('',*,*,#614,.F.);
#627=ORIENTED_EDGE('',*,*,#626,.F.);
#628=ORIENTED_EDGE('',*,*,#610,.T.);
#629=EDGE_LOOP('',(#624,#625,#627,#628));
#630=FACE_OUTER_BOUND('',#629,.F.);
#631=ADVANCED_FACE('',(#630),#623,.T.);
#632=CARTESIAN_POINT('',(0.E0,1.2E0,0.E0));
#633=DIRECTION('',(0.E0,-1.E0,0.E0));
#634=DIRECTION('',(-1.E0,0.E0,0.E0));
#635=AXIS2_PLACEMENT_3D('',#632,#633,#634);
#636=CONICAL_SURFACE('',#635,9.5E-1,4.5E1);
#638=ORIENTED_EDGE('',*,*,#637,.F.);
#640=ORIENTED_EDGE('',*,*,#639,.T.);
#641=ORIENTED_EDGE('',*,*,#626,.T.);
#643=ORIENTED_EDGE('',*,*,#642,.F.);
#644=EDGE_LOOP('',(#638,#640,#641,#643));
#645=FACE_OUTER_BOUND('',#644,.F.);
#646=ADVANCED_FACE('',(#645),#636,.T.);
#647=CARTESIAN_POINT('',(0.E0,1.25E0,0.E0));
#648=DIRECTION('',(0.E0,-1.E0,0.E0));
#649=DIRECTION('',(-1.E0,0.E0,0.E0));
#650=AXIS2_PLACEMENT_3D('',#647,#648,#649);
#651=PLANE('',#650);
#653=ORIENTED_EDGE('',*,*,#652,.T.);
#654=ORIENTED_EDGE('',*,*,#637,.T.);
#655=EDGE_LOOP('',(#653,#654));
#656=FACE_OUTER_BOUND('',#655,.F.);
#657=ADVANCED_FACE('',(#656),#651,.F.);
#658=CARTESIAN_POINT('',(0.E0,1.2E0,0.E0));
#659=DIRECTION('',(0.E0,-1.E0,0.E0));
#660=DIRECTION('',(-1.E0,0.E0,0.E0));
#661=AXIS2_PLACEMENT_3D('',#658,#659,#660);
#662=CONICAL_SURFACE('',#661,9.5E-1,4.5E1);
#663=ORIENTED_EDGE('',*,*,#652,.F.);
#664=ORIENTED_EDGE('',*,*,#642,.T.);
#665=ORIENTED_EDGE('',*,*,#612,.T.);
#666=ORIENTED_EDGE('',*,*,#639,.F.);
#667=EDGE_LOOP('',(#663,#664,#665,#666));
#668=FACE_OUTER_BOUND('',#667,.F.);
#669=ADVANCED_FACE('',(#668),#662,.T.);
#670=CARTESIAN_POINT('',(-1.2E0,3.528182322132E-1,-1.2E0));
#671=DIRECTION('',(0.E0,-1.E0,0.E0));
#672=DIRECTION('',(-1.E0,0.E0,0.E0));
#673=AXIS2_PLACEMENT_3D('',#670,#671,#672);
#674=CYLINDRICAL_SURFACE('',#673,1.E-1);
#676=ORIENTED_EDGE('',*,*,#675,.F.);
#677=ORIENTED_EDGE('',*,*,#584,.T.);
#678=ORIENTED_EDGE('',*,*,#465,.T.);
#679=ORIENTED_EDGE('',*,*,#421,.T.);
#680=EDGE_LOOP('',(#676,#677,#678,#679));
#681=FACE_OUTER_BOUND('',#680,.F.);
#682=ADVANCED_FACE('',(#681),#674,.T.);
#683=CARTESIAN_POINT('',(1.3E0,0.E0,-1.3E0));
#684=DIRECTION('',(0.E0,0.E0,-1.E0));
#685=DIRECTION('',(-1.E0,0.E0,0.E0));
#686=AXIS2_PLACEMENT_3D('',#683,#684,#685);
#687=PLANE('',#686);
#688=ORIENTED_EDGE('',*,*,#675,.T.);
#689=ORIENTED_EDGE('',*,*,#419,.F.);
#691=ORIENTED_EDGE('',*,*,#690,.F.);
#692=ORIENTED_EDGE('',*,*,#586,.T.);
#693=EDGE_LOOP('',(#688,#689,#691,#692));
#694=FACE_OUTER_BOUND('',#693,.F.);
#695=ADVANCED_FACE('',(#694),#687,.T.);
#696=CARTESIAN_POINT('',(1.2E0,3.528182322132E-1,-1.2E0));
#697=DIRECTION('',(0.E0,-1.E0,0.E0));
#698=DIRECTION('',(0.E0,0.E0,-1.E0));
#699=AXIS2_PLACEMENT_3D('',#696,#697,#698);
#700=CYLINDRICAL_SURFACE('',#699,1.E-1);
#702=ORIENTED_EDGE('',*,*,#701,.F.);
#703=ORIENTED_EDGE('',*,*,#588,.T.);
#704=ORIENTED_EDGE('',*,*,#690,.T.);
#705=ORIENTED_EDGE('',*,*,#417,.T.);
#706=EDGE_LOOP('',(#702,#703,#704,#705));
#707=FACE_OUTER_BOUND('',#706,.F.);
#708=ADVANCED_FACE('',(#707),#700,.T.);
#709=CARTESIAN_POINT('',(1.3E0,0.E0,1.3E0));
#710=DIRECTION('',(1.E0,0.E0,0.E0));
#711=DIRECTION('',(0.E0,0.E0,-1.E0));
#712=AXIS2_PLACEMENT_3D('',#709,#710,#711);
#713=PLANE('',#712);
#715=ORIENTED_EDGE('',*,*,#714,.F.);
#716=ORIENTED_EDGE('',*,*,#590,.T.);
#717=ORIENTED_EDGE('',*,*,#701,.T.);
#718=ORIENTED_EDGE('',*,*,#415,.F.);
#720=ORIENTED_EDGE('',*,*,#719,.T.);
#721=ORIENTED_EDGE('',*,*,#534,.F.);
#723=ORIENTED_EDGE('',*,*,#722,.F.);
#724=ORIENTED_EDGE('',*,*,#407,.F.);
#725=EDGE_LOOP('',(#715,#716,#717,#718,#720,#721,#723,#724));
#726=FACE_OUTER_BOUND('',#725,.F.);
#727=ADVANCED_FACE('',(#726),#713,.T.);
#728=CARTESIAN_POINT('',(1.2E0,3.528182322132E-1,1.2E0));
#729=DIRECTION('',(0.E0,-1.E0,0.E0));
#730=DIRECTION('',(1.E0,0.E0,0.E0));
#731=AXIS2_PLACEMENT_3D('',#728,#729,#730);
#732=CYLINDRICAL_SURFACE('',#731,1.E-1);
#733=ORIENTED_EDGE('',*,*,#565,.F.);
#734=ORIENTED_EDGE('',*,*,#592,.T.);
#735=ORIENTED_EDGE('',*,*,#714,.T.);
#736=ORIENTED_EDGE('',*,*,#405,.T.);
#737=EDGE_LOOP('',(#733,#734,#735,#736));
#738=FACE_OUTER_BOUND('',#737,.F.);
#739=ADVANCED_FACE('',(#738),#732,.T.);
#740=CARTESIAN_POINT('',(1.5E0,0.E0,-9.E-1));
#741=DIRECTION('',(0.E0,0.E0,-1.E0));
#742=DIRECTION('',(-1.E0,0.E0,0.E0));
#743=AXIS2_PLACEMENT_3D('',#740,#741,#742);
#744=PLANE('',#743);
#745=ORIENTED_EDGE('',*,*,#719,.F.);
#746=ORIENTED_EDGE('',*,*,#413,.F.);
#748=ORIENTED_EDGE('',*,*,#747,.T.);
#749=ORIENTED_EDGE('',*,*,#536,.T.);
#750=EDGE_LOOP('',(#745,#746,#748,#749));
#751=FACE_OUTER_BOUND('',#750,.F.);
#752=ADVANCED_FACE('',(#751),#744,.T.);
#753=CARTESIAN_POINT('',(1.5E0,0.E0,9.E-1));
#754=DIRECTION('',(1.E0,0.E0,0.E0));
#755=DIRECTION('',(0.E0,0.E0,-1.E0));
#756=AXIS2_PLACEMENT_3D('',#753,#754,#755);
#757=PLANE('',#756);
#758=ORIENTED_EDGE('',*,*,#411,.F.);
#760=ORIENTED_EDGE('',*,*,#759,.T.);
#761=ORIENTED_EDGE('',*,*,#538,.T.);
#762=ORIENTED_EDGE('',*,*,#747,.F.);
#763=EDGE_LOOP('',(#758,#760,#761,#762));
#764=FACE_OUTER_BOUND('',#763,.F.);
#765=ADVANCED_FACE('',(#764),#757,.T.);
#766=CARTESIAN_POINT('',(1.3E0,0.E0,9.E-1));
#767=DIRECTION('',(0.E0,0.E0,1.E0));
#768=DIRECTION('',(1.E0,0.E0,0.E0));
#769=AXIS2_PLACEMENT_3D('',#766,#767,#768);
#770=PLANE('',#769);
#771=ORIENTED_EDGE('',*,*,#722,.T.);
#772=ORIENTED_EDGE('',*,*,#540,.T.);
#773=ORIENTED_EDGE('',*,*,#759,.F.);
#774=ORIENTED_EDGE('',*,*,#409,.F.);
#775=EDGE_LOOP('',(#771,#772,#773,#774));
#776=FACE_OUTER_BOUND('',#775,.F.);
#777=ADVANCED_FACE('',(#776),#770,.T.);
#778=CARTESIAN_POINT('',(3.E-1,0.E0,1.55E0));
#779=DIRECTION('',(1.E0,0.E0,0.E0));
#780=DIRECTION('',(0.E0,0.E0,-1.E0));
#781=AXIS2_PLACEMENT_3D('',#778,#779,#780);
#782=PLANE('',#781);
#783=ORIENTED_EDGE('',*,*,#568,.F.);
#784=ORIENTED_EDGE('',*,*,#401,.F.);
#786=ORIENTED_EDGE('',*,*,#785,.T.);
#787=ORIENTED_EDGE('',*,*,#520,.T.);
#788=EDGE_LOOP('',(#783,#784,#786,#787));
#789=FACE_OUTER_BOUND('',#788,.F.);
#790=ADVANCED_FACE('',(#789),#782,.T.);
#791=CARTESIAN_POINT('',(-3.E-1,0.E0,1.55E0));
#792=DIRECTION('',(0.E0,0.E0,1.E0));
#793=DIRECTION('',(1.E0,0.E0,0.E0));
#794=AXIS2_PLACEMENT_3D('',#791,#792,#793);
#795=PLANE('',#794);
#796=ORIENTED_EDGE('',*,*,#399,.F.);
#798=ORIENTED_EDGE('',*,*,#797,.T.);
#799=ORIENTED_EDGE('',*,*,#522,.T.);
#800=ORIENTED_EDGE('',*,*,#785,.F.);
#801=EDGE_LOOP('',(#796,#798,#799,#800));
#802=FACE_OUTER_BOUND('',#801,.F.);
#803=ADVANCED_FACE('',(#802),#795,.T.);
#804=CARTESIAN_POINT('',(-3.E-1,0.E0,1.3E0));
#805=DIRECTION('',(-1.E0,0.E0,0.E0));
#806=DIRECTION('',(0.E0,0.E0,1.E0));
#807=AXIS2_PLACEMENT_3D('',#804,#805,#806);
#808=PLANE('',#807);
#809=ORIENTED_EDGE('',*,*,#571,.T.);
#810=ORIENTED_EDGE('',*,*,#524,.T.);
#811=ORIENTED_EDGE('',*,*,#797,.F.);
#812=ORIENTED_EDGE('',*,*,#397,.F.);
#813=EDGE_LOOP('',(#809,#810,#811,#812));
#814=FACE_OUTER_BOUND('',#813,.F.);
#815=ADVANCED_FACE('',(#814),#808,.T.);
#816=CLOSED_SHELL('',(#435,#450,#471,#485,#499,#512,#528,#544,#556,#576,#603,
#618,#631,#646,#657,#669,#682,#695,#708,#727,#739,#752,#765,#777,#790,#803,
#815));
#817=MANIFOLD_SOLID_BREP('',#816);
#818=(LENGTH_UNIT()NAMED_UNIT(*)SI_UNIT(.MILLI.,.METRE.));
#819=DIMENSIONAL_EXPONENTS(0.E0,0.E0,0.E0,0.E0,0.E0,0.E0,0.E0);
#820=(NAMED_UNIT(*)PLANE_ANGLE_UNIT()SI_UNIT($,.RADIAN.));
#821=PLANE_ANGLE_MEASURE_WITH_UNIT(PLANE_ANGLE_MEASURE(1.745329251994E-2),#820);
#822=(CONVERSION_BASED_UNIT('DEGREE',#821)NAMED_UNIT(#819)PLANE_ANGLE_UNIT());
#823=(NAMED_UNIT(*)SI_UNIT($,.STERADIAN.)SOLID_ANGLE_UNIT());
#824=UNCERTAINTY_MEASURE_WITH_UNIT(LENGTH_MEASURE(2.235396172866E-4),#818,
'closure',
'Maximum model space distance between geometric entities at asserted connectivities');
#825=(GEOMETRIC_REPRESENTATION_CONTEXT(3)GLOBAL_UNCERTAINTY_ASSIGNED_CONTEXT((
#824))GLOBAL_UNIT_ASSIGNED_CONTEXT((#818,#822,#823))REPRESENTATION_CONTEXT
('ID1','3'));
#827=APPLICATION_CONTEXT(
'CONFIGURATION CONTROLLED 3D DESIGNS OF MECHANICAL PARTS AND ASSEMBLIES');
#828=APPLICATION_PROTOCOL_DEFINITION('international standard',
'config_control_design',1994,#827);
#829=DESIGN_CONTEXT('',#827,'design');
#830=MECHANICAL_CONTEXT('',#827,'mechanical');
#831=PRODUCT('GPS-ANT-CONN_PRT','GPS-ANT-CONN_PRT','NOT SPECIFIED',(#830));
#832=PRODUCT_DEFINITION_FORMATION_WITH_SPECIFIED_SOURCE('1','LAST_VERSION',#831,
.MADE.);
#836=PRODUCT_CATEGORY('part','');
#837=PRODUCT_RELATED_PRODUCT_CATEGORY('detail','',(#831));
#838=PRODUCT_CATEGORY_RELATIONSHIP('','',#836,#837);
#839=SECURITY_CLASSIFICATION_LEVEL('unclassified');
#840=SECURITY_CLASSIFICATION('','',#839);
#841=CC_DESIGN_SECURITY_CLASSIFICATION(#840,(#832));
#842=APPROVAL_STATUS('approved');
#843=APPROVAL(#842,'');
#844=CC_DESIGN_APPROVAL(#843,(#840,#832,#833));
#845=CALENDAR_DATE(108,30,6);
#846=COORDINATED_UNIVERSAL_TIME_OFFSET(3,0,.BEHIND.);
#847=LOCAL_TIME(11,3,1.9E1,#846);
#848=DATE_AND_TIME(#845,#847);
#849=APPROVAL_DATE_TIME(#848,#843);
#850=DATE_TIME_ROLE('creation_date');
#851=CC_DESIGN_DATE_AND_TIME_ASSIGNMENT(#848,#850,(#833));
#852=DATE_TIME_ROLE('classification_date');
#853=CC_DESIGN_DATE_AND_TIME_ASSIGNMENT(#848,#852,(#840));
#854=PERSON('UNSPECIFIED','UNSPECIFIED',$,$,$,$);
#855=ORGANIZATION('UNSPECIFIED','UNSPECIFIED','UNSPECIFIED');
#856=PERSON_AND_ORGANIZATION(#854,#855);
#857=APPROVAL_ROLE('approver');
#858=APPROVAL_PERSON_ORGANIZATION(#856,#843,#857);
#859=PERSON_AND_ORGANIZATION_ROLE('creator');
#860=CC_DESIGN_PERSON_AND_ORGANIZATION_ASSIGNMENT(#856,#859,(#832,#833));
#861=PERSON_AND_ORGANIZATION_ROLE('design_supplier');
#862=CC_DESIGN_PERSON_AND_ORGANIZATION_ASSIGNMENT(#856,#861,(#832));
#863=PERSON_AND_ORGANIZATION_ROLE('classification_officer');
#864=CC_DESIGN_PERSON_AND_ORGANIZATION_ASSIGNMENT(#856,#863,(#840));
#865=PERSON_AND_ORGANIZATION_ROLE('design_owner');
#866=CC_DESIGN_PERSON_AND_ORGANIZATION_ASSIGNMENT(#856,#865,(#831));
#74=CIRCLE('',#73,1.E-1);
#83=CIRCLE('',#82,1.E-1);
#156=CIRCLE('',#155,1.E0);
#161=CIRCLE('',#160,1.E0);
#190=CIRCLE('',#189,9.E-1);
#195=CIRCLE('',#194,1.E0);
#200=CIRCLE('',#199,9.E-1);
#209=CIRCLE('',#208,1.E0);
#222=CIRCLE('',#221,1.E-1);
#231=CIRCLE('',#230,1.E-1);
#240=CIRCLE('',#239,1.E-1);
#249=CIRCLE('',#248,1.E-1);
#270=CIRCLE('',#269,1.E-1);
#279=CIRCLE('',#278,1.E-1);
#393=EDGE_CURVE('',#363,#359,#83,.T.);
#395=EDGE_CURVE('',#363,#331,#5,.T.);
#397=EDGE_CURVE('',#331,#310,#9,.T.);
#399=EDGE_CURVE('',#310,#311,#13,.T.);
#401=EDGE_CURVE('',#311,#329,#17,.T.);
#403=EDGE_CURVE('',#329,#367,#21,.T.);
#405=EDGE_CURVE('',#371,#367,#279,.T.);
#407=EDGE_CURVE('',#371,#337,#25,.T.);
#409=EDGE_CURVE('',#337,#302,#29,.T.);
#411=EDGE_CURVE('',#302,#303,#33,.T.);
#413=EDGE_CURVE('',#303,#339,#37,.T.);
#415=EDGE_CURVE('',#339,#383,#41,.T.);
#417=EDGE_CURVE('',#387,#383,#249,.T.);
#419=EDGE_CURVE('',#387,#375,#45,.T.);
#421=EDGE_CURVE('',#379,#375,#231,.T.);
#423=EDGE_CURVE('',#379,#345,#49,.T.);
#425=EDGE_CURVE('',#345,#306,#53,.T.);
#427=EDGE_CURVE('',#306,#307,#57,.T.);
#429=EDGE_CURVE('',#307,#347,#61,.T.);
#431=EDGE_CURVE('',#347,#359,#65,.T.);
#441=EDGE_CURVE('',#358,#359,#69,.T.);
#443=EDGE_CURVE('',#358,#361,#74,.T.);
#445=EDGE_CURVE('',#361,#363,#78,.T.);
#458=EDGE_CURVE('',#347,#342,#87,.T.);
#460=EDGE_CURVE('',#342,#343,#91,.T.);
#462=EDGE_CURVE('',#345,#343,#95,.T.);
#465=EDGE_CURVE('',#377,#379,#226,.T.);
#467=EDGE_CURVE('',#377,#358,#165,.T.);
#479=EDGE_CURVE('',#307,#319,#99,.T.);
#481=EDGE_CURVE('',#319,#342,#131,.T.);
#492=EDGE_CURVE('',#306,#318,#103,.T.);
#494=EDGE_CURVE('',#318,#319,#135,.T.);
#506=EDGE_CURVE('',#343,#318,#139,.T.);
#518=EDGE_CURVE('',#326,#327,#147,.T.);
#520=EDGE_CURVE('',#323,#327,#107,.T.);
#522=EDGE_CURVE('',#322,#323,#111,.T.);
#524=EDGE_CURVE('',#326,#322,#115,.T.);
#534=EDGE_CURVE('',#334,#335,#257,.T.);
#536=EDGE_CURVE('',#315,#335,#119,.T.);
#538=EDGE_CURVE('',#314,#315,#123,.T.);
#540=EDGE_CURVE('',#334,#314,#127,.T.);
#563=EDGE_CURVE('',#361,#366,#177,.T.);
#565=EDGE_CURVE('',#366,#367,#265,.T.);
#568=EDGE_CURVE('',#329,#327,#143,.T.);
#571=EDGE_CURVE('',#331,#326,#151,.T.);
#584=EDGE_CURVE('',#374,#377,#222,.T.);
#586=EDGE_CURVE('',#385,#374,#169,.T.);
#588=EDGE_CURVE('',#382,#385,#240,.T.);
#590=EDGE_CURVE('',#369,#382,#173,.T.);
#592=EDGE_CURVE('',#366,#369,#270,.T.);
#597=EDGE_CURVE('',#298,#299,#156,.T.);
#599=EDGE_CURVE('',#299,#298,#161,.T.);
#610=EDGE_CURVE('',#354,#299,#185,.T.);
#612=EDGE_CURVE('',#355,#354,#209,.T.);
#614=EDGE_CURVE('',#355,#298,#181,.T.);
#626=EDGE_CURVE('',#354,#355,#195,.T.);
#637=EDGE_CURVE('',#350,#351,#190,.T.);
#639=EDGE_CURVE('',#350,#354,#213,.T.);
#642=EDGE_CURVE('',#351,#355,#204,.T.);
#652=EDGE_CURVE('',#351,#350,#200,.T.);
#675=EDGE_CURVE('',#374,#375,#217,.T.);
#690=EDGE_CURVE('',#385,#387,#244,.T.);
#701=EDGE_CURVE('',#382,#383,#235,.T.);
#714=EDGE_CURVE('',#369,#371,#274,.T.);
#719=EDGE_CURVE('',#339,#335,#253,.T.);
#722=EDGE_CURVE('',#337,#334,#261,.T.);
#747=EDGE_CURVE('',#303,#315,#283,.T.);
#759=EDGE_CURVE('',#302,#314,#287,.T.);
#785=EDGE_CURVE('',#311,#323,#291,.T.);
#797=EDGE_CURVE('',#310,#322,#295,.T.);
#826=ADVANCED_BREP_SHAPE_REPRESENTATION('',(#817),#825);
#833=PRODUCT_DEFINITION('design','',#832,#829);
#834=PRODUCT_DEFINITION_SHAPE('','SHAPE FOR GPS-ANT-CONN_PRT.',#833);
#835=SHAPE_DEFINITION_REPRESENTATION(#834,#826);
ENDSEC;
END-ISO-10303-21;
