ISO-10303-21;
HEADER;
FILE_DESCRIPTION((''),'2;1');
FILE_NAME('GPS-ANT-EXT-MMCX-PLUG_PRT','2008-06-30T',('GRA'),(''),
'PRO/ENGINEER BY PARAMETRIC TECHNOLOGY CORPORATION, 2006170',
'PRO/ENGINEER BY PARAMETRIC TECHNOLOGY CORPORATION, 2006170','');
FILE_SCHEMA(('CONFIG_CONTROL_DESIGN'));
ENDSEC;
DATA;
#2=DIRECTION('',(1.E0,0.E0,0.E0));
#3=VECTOR('',#2,4.E0);
#4=CARTESIAN_POINT('',(-2.E0,0.E0,2.E0));
#5=LINE('',#4,#3);
#6=DIRECTION('',(0.E0,0.E0,-1.E0));
#7=VECTOR('',#6,4.E0);
#8=CARTESIAN_POINT('',(2.E0,0.E0,2.E0));
#9=LINE('',#8,#7);
#10=DIRECTION('',(-1.E0,0.E0,0.E0));
#11=VECTOR('',#10,4.E0);
#12=CARTESIAN_POINT('',(2.E0,0.E0,-2.E0));
#13=LINE('',#12,#11);
#14=DIRECTION('',(0.E0,0.E0,1.E0));
#15=VECTOR('',#14,4.E0);
#16=CARTESIAN_POINT('',(-2.E0,0.E0,-2.E0));
#17=LINE('',#16,#15);
#18=DIRECTION('',(0.E0,1.E0,0.E0));
#19=VECTOR('',#18,4.E0);
#20=CARTESIAN_POINT('',(-2.E0,0.E0,2.E0));
#21=LINE('',#20,#19);
#22=CARTESIAN_POINT('',(0.E0,2.E0,2.E0));
#23=DIRECTION('',(0.E0,0.E0,1.E0));
#24=DIRECTION('',(1.E0,0.E0,0.E0));
#25=AXIS2_PLACEMENT_3D('',#22,#23,#24);
#27=CARTESIAN_POINT('',(0.E0,2.E0,2.E0));
#28=DIRECTION('',(0.E0,0.E0,1.E0));
#29=DIRECTION('',(-1.E0,0.E0,0.E0));
#30=AXIS2_PLACEMENT_3D('',#27,#28,#29);
#32=DIRECTION('',(0.E0,1.E0,0.E0));
#33=VECTOR('',#32,4.E0);
#34=CARTESIAN_POINT('',(-2.E0,0.E0,-2.E0));
#35=LINE('',#34,#33);
#36=DIRECTION('',(0.E0,1.E0,0.E0));
#37=VECTOR('',#36,4.E0);
#38=CARTESIAN_POINT('',(2.E0,0.E0,-2.E0));
#39=LINE('',#38,#37);
#40=DIRECTION('',(0.E0,1.E0,0.E0));
#41=VECTOR('',#40,4.E0);
#42=CARTESIAN_POINT('',(2.E0,0.E0,2.E0));
#43=LINE('',#42,#41);
#44=DIRECTION('',(1.E0,0.E0,0.E0));
#45=VECTOR('',#44,4.E0);
#46=CARTESIAN_POINT('',(-2.E0,4.E0,2.E0));
#47=LINE('',#46,#45);
#48=DIRECTION('',(0.E0,0.E0,1.E0));
#49=VECTOR('',#48,4.E0);
#50=CARTESIAN_POINT('',(-2.E0,4.E0,-2.E0));
#51=LINE('',#50,#49);
#52=DIRECTION('',(-1.E0,0.E0,0.E0));
#53=VECTOR('',#52,4.E0);
#54=CARTESIAN_POINT('',(2.E0,4.E0,-2.E0));
#55=LINE('',#54,#53);
#56=DIRECTION('',(0.E0,0.E0,-1.E0));
#57=VECTOR('',#56,4.E0);
#58=CARTESIAN_POINT('',(2.E0,4.E0,2.E0));
#59=LINE('',#58,#57);
#60=CARTESIAN_POINT('',(0.E0,4.E0,0.E0));
#61=DIRECTION('',(0.E0,1.E0,0.E0));
#62=DIRECTION('',(1.E0,0.E0,0.E0));
#63=AXIS2_PLACEMENT_3D('',#60,#61,#62);
#65=CARTESIAN_POINT('',(0.E0,4.E0,0.E0));
#66=DIRECTION('',(0.E0,1.E0,0.E0));
#67=DIRECTION('',(-1.E0,0.E0,0.E0));
#68=AXIS2_PLACEMENT_3D('',#65,#66,#67);
#70=DIRECTION('',(0.E0,1.E0,0.E0));
#71=VECTOR('',#70,9.E-1);
#72=CARTESIAN_POINT('',(1.75E0,4.E0,0.E0));
#73=LINE('',#72,#71);
#74=DIRECTION('',(0.E0,1.E0,0.E0));
#75=VECTOR('',#74,9.E-1);
#76=CARTESIAN_POINT('',(-1.75E0,4.E0,0.E0));
#77=LINE('',#76,#75);
#78=CARTESIAN_POINT('',(0.E0,4.9E0,0.E0));
#79=DIRECTION('',(0.E0,1.E0,0.E0));
#80=DIRECTION('',(1.E0,0.E0,0.E0));
#81=AXIS2_PLACEMENT_3D('',#78,#79,#80);
#83=CARTESIAN_POINT('',(0.E0,4.9E0,0.E0));
#84=DIRECTION('',(0.E0,1.E0,0.E0));
#85=DIRECTION('',(-1.E0,0.E0,0.E0));
#86=AXIS2_PLACEMENT_3D('',#83,#84,#85);
#88=CARTESIAN_POINT('',(0.E0,4.9E0,0.E0));
#89=DIRECTION('',(0.E0,1.E0,0.E0));
#90=DIRECTION('',(1.E0,0.E0,0.E0));
#91=AXIS2_PLACEMENT_3D('',#88,#89,#90);
#93=CARTESIAN_POINT('',(0.E0,4.9E0,0.E0));
#94=DIRECTION('',(0.E0,1.E0,0.E0));
#95=DIRECTION('',(-1.E0,0.E0,0.E0));
#96=AXIS2_PLACEMENT_3D('',#93,#94,#95);
#98=DIRECTION('',(0.E0,1.E0,0.E0));
#99=VECTOR('',#98,2.65E0);
#100=CARTESIAN_POINT('',(1.2E0,4.9E0,0.E0));
#101=LINE('',#100,#99);
#102=DIRECTION('',(0.E0,1.E0,0.E0));
#103=VECTOR('',#102,2.65E0);
#104=CARTESIAN_POINT('',(-1.2E0,4.9E0,0.E0));
#105=LINE('',#104,#103);
#106=CARTESIAN_POINT('',(0.E0,7.55E0,0.E0));
#107=DIRECTION('',(0.E0,1.E0,0.E0));
#108=DIRECTION('',(1.E0,0.E0,0.E0));
#109=AXIS2_PLACEMENT_3D('',#106,#107,#108);
#111=CARTESIAN_POINT('',(0.E0,7.55E0,0.E0));
#112=DIRECTION('',(0.E0,1.E0,0.E0));
#113=DIRECTION('',(-1.E0,0.E0,0.E0));
#114=AXIS2_PLACEMENT_3D('',#111,#112,#113);
#116=DIRECTION('',(0.E0,0.E0,1.E0));
#117=VECTOR('',#116,5.E0);
#118=CARTESIAN_POINT('',(1.35E0,2.E0,2.E0));
#119=LINE('',#118,#117);
#120=DIRECTION('',(0.E0,0.E0,1.E0));
#121=VECTOR('',#120,5.E0);
#122=CARTESIAN_POINT('',(-1.35E0,2.E0,2.E0));
#123=LINE('',#122,#121);
#124=CARTESIAN_POINT('',(0.E0,2.E0,7.E0));
#125=DIRECTION('',(0.E0,0.E0,1.E0));
#126=DIRECTION('',(1.E0,0.E0,0.E0));
#127=AXIS2_PLACEMENT_3D('',#124,#125,#126);
#129=CARTESIAN_POINT('',(0.E0,2.E0,7.E0));
#130=DIRECTION('',(0.E0,0.E0,1.E0));
#131=DIRECTION('',(-1.E0,0.E0,0.E0));
#132=AXIS2_PLACEMENT_3D('',#129,#130,#131);
#134=CARTESIAN_POINT('',(-2.E0,0.E0,2.E0));
#135=CARTESIAN_POINT('',(2.E0,0.E0,2.E0));
#136=VERTEX_POINT('',#134);
#137=VERTEX_POINT('',#135);
#138=CARTESIAN_POINT('',(2.E0,0.E0,-2.E0));
#139=VERTEX_POINT('',#138);
#140=CARTESIAN_POINT('',(-2.E0,0.E0,-2.E0));
#141=VERTEX_POINT('',#140);
#142=CARTESIAN_POINT('',(-2.E0,4.E0,2.E0));
#143=CARTESIAN_POINT('',(2.E0,4.E0,2.E0));
#144=VERTEX_POINT('',#142);
#145=VERTEX_POINT('',#143);
#146=CARTESIAN_POINT('',(2.E0,4.E0,-2.E0));
#147=VERTEX_POINT('',#146);
#148=CARTESIAN_POINT('',(-2.E0,4.E0,-2.E0));
#149=VERTEX_POINT('',#148);
#150=CARTESIAN_POINT('',(1.75E0,4.9E0,0.E0));
#151=CARTESIAN_POINT('',(-1.75E0,4.9E0,0.E0));
#152=VERTEX_POINT('',#150);
#153=VERTEX_POINT('',#151);
#154=CARTESIAN_POINT('',(1.75E0,4.E0,0.E0));
#155=CARTESIAN_POINT('',(-1.75E0,4.E0,0.E0));
#156=VERTEX_POINT('',#154);
#157=VERTEX_POINT('',#155);
#158=CARTESIAN_POINT('',(1.2E0,7.55E0,0.E0));
#159=CARTESIAN_POINT('',(-1.2E0,7.55E0,0.E0));
#160=VERTEX_POINT('',#158);
#161=VERTEX_POINT('',#159);
#162=CARTESIAN_POINT('',(1.2E0,4.9E0,0.E0));
#163=CARTESIAN_POINT('',(-1.2E0,4.9E0,0.E0));
#164=VERTEX_POINT('',#162);
#165=VERTEX_POINT('',#163);
#166=CARTESIAN_POINT('',(1.35E0,2.E0,7.E0));
#167=CARTESIAN_POINT('',(-1.35E0,2.E0,7.E0));
#168=VERTEX_POINT('',#166);
#169=VERTEX_POINT('',#167);
#170=CARTESIAN_POINT('',(1.35E0,2.E0,2.E0));
#171=CARTESIAN_POINT('',(-1.35E0,2.E0,2.E0));
#172=VERTEX_POINT('',#170);
#173=VERTEX_POINT('',#171);
#174=CARTESIAN_POINT('',(0.E0,0.E0,0.E0));
#175=DIRECTION('',(0.E0,1.E0,0.E0));
#176=DIRECTION('',(1.E0,0.E0,0.E0));
#177=AXIS2_PLACEMENT_3D('',#174,#175,#176);
#178=PLANE('',#177);
#180=ORIENTED_EDGE('',*,*,#179,.T.);
#182=ORIENTED_EDGE('',*,*,#181,.T.);
#184=ORIENTED_EDGE('',*,*,#183,.T.);
#186=ORIENTED_EDGE('',*,*,#185,.T.);
#187=EDGE_LOOP('',(#180,#182,#184,#186));
#188=FACE_OUTER_BOUND('',#187,.F.);
#189=ADVANCED_FACE('',(#188),#178,.F.);
#190=CARTESIAN_POINT('',(-2.E0,0.E0,2.E0));
#191=DIRECTION('',(0.E0,0.E0,1.E0));
#192=DIRECTION('',(1.E0,0.E0,0.E0));
#193=AXIS2_PLACEMENT_3D('',#190,#191,#192);
#194=PLANE('',#193);
#195=ORIENTED_EDGE('',*,*,#179,.F.);
#197=ORIENTED_EDGE('',*,*,#196,.T.);
#199=ORIENTED_EDGE('',*,*,#198,.T.);
#201=ORIENTED_EDGE('',*,*,#200,.F.);
#202=EDGE_LOOP('',(#195,#197,#199,#201));
#203=FACE_OUTER_BOUND('',#202,.F.);
#205=ORIENTED_EDGE('',*,*,#204,.T.);
#207=ORIENTED_EDGE('',*,*,#206,.T.);
#208=EDGE_LOOP('',(#205,#207));
#209=FACE_BOUND('',#208,.F.);
#210=ADVANCED_FACE('',(#203,#209),#194,.T.);
#211=CARTESIAN_POINT('',(-2.E0,0.E0,-2.E0));
#212=DIRECTION('',(-1.E0,0.E0,0.E0));
#213=DIRECTION('',(0.E0,0.E0,1.E0));
#214=AXIS2_PLACEMENT_3D('',#211,#212,#213);
#215=PLANE('',#214);
#216=ORIENTED_EDGE('',*,*,#185,.F.);
#218=ORIENTED_EDGE('',*,*,#217,.T.);
#220=ORIENTED_EDGE('',*,*,#219,.T.);
#221=ORIENTED_EDGE('',*,*,#196,.F.);
#222=EDGE_LOOP('',(#216,#218,#220,#221));
#223=FACE_OUTER_BOUND('',#222,.F.);
#224=ADVANCED_FACE('',(#223),#215,.T.);
#225=CARTESIAN_POINT('',(2.E0,0.E0,-2.E0));
#226=DIRECTION('',(0.E0,0.E0,-1.E0));
#227=DIRECTION('',(-1.E0,0.E0,0.E0));
#228=AXIS2_PLACEMENT_3D('',#225,#226,#227);
#229=PLANE('',#228);
#230=ORIENTED_EDGE('',*,*,#183,.F.);
#232=ORIENTED_EDGE('',*,*,#231,.T.);
#234=ORIENTED_EDGE('',*,*,#233,.T.);
#235=ORIENTED_EDGE('',*,*,#217,.F.);
#236=EDGE_LOOP('',(#230,#232,#234,#235));
#237=FACE_OUTER_BOUND('',#236,.F.);
#238=ADVANCED_FACE('',(#237),#229,.T.);
#239=CARTESIAN_POINT('',(2.E0,0.E0,2.E0));
#240=DIRECTION('',(1.E0,0.E0,0.E0));
#241=DIRECTION('',(0.E0,0.E0,-1.E0));
#242=AXIS2_PLACEMENT_3D('',#239,#240,#241);
#243=PLANE('',#242);
#244=ORIENTED_EDGE('',*,*,#181,.F.);
#245=ORIENTED_EDGE('',*,*,#200,.T.);
#247=ORIENTED_EDGE('',*,*,#246,.T.);
#248=ORIENTED_EDGE('',*,*,#231,.F.);
#249=EDGE_LOOP('',(#244,#245,#247,#248));
#250=FACE_OUTER_BOUND('',#249,.F.);
#251=ADVANCED_FACE('',(#250),#243,.T.);
#252=CARTESIAN_POINT('',(0.E0,4.E0,0.E0));
#253=DIRECTION('',(0.E0,1.E0,0.E0));
#254=DIRECTION('',(1.E0,0.E0,0.E0));
#255=AXIS2_PLACEMENT_3D('',#252,#253,#254);
#256=PLANE('',#255);
#257=ORIENTED_EDGE('',*,*,#198,.F.);
#258=ORIENTED_EDGE('',*,*,#219,.F.);
#259=ORIENTED_EDGE('',*,*,#233,.F.);
#260=ORIENTED_EDGE('',*,*,#246,.F.);
#261=EDGE_LOOP('',(#257,#258,#259,#260));
#262=FACE_OUTER_BOUND('',#261,.F.);
#264=ORIENTED_EDGE('',*,*,#263,.T.);
#266=ORIENTED_EDGE('',*,*,#265,.T.);
#267=EDGE_LOOP('',(#264,#266));
#268=FACE_BOUND('',#267,.F.);
#269=ADVANCED_FACE('',(#262,#268),#256,.T.);
#270=CARTESIAN_POINT('',(0.E0,4.E0,0.E0));
#271=DIRECTION('',(0.E0,1.E0,0.E0));
#272=DIRECTION('',(1.E0,0.E0,0.E0));
#273=AXIS2_PLACEMENT_3D('',#270,#271,#272);
#274=CYLINDRICAL_SURFACE('',#273,1.75E0);
#275=ORIENTED_EDGE('',*,*,#263,.F.);
#277=ORIENTED_EDGE('',*,*,#276,.T.);
#279=ORIENTED_EDGE('',*,*,#278,.T.);
#281=ORIENTED_EDGE('',*,*,#280,.F.);
#282=EDGE_LOOP('',(#275,#277,#279,#281));
#283=FACE_OUTER_BOUND('',#282,.F.);
#284=ADVANCED_FACE('',(#283),#274,.T.);
#285=CARTESIAN_POINT('',(0.E0,4.E0,0.E0));
#286=DIRECTION('',(0.E0,1.E0,0.E0));
#287=DIRECTION('',(1.E0,0.E0,0.E0));
#288=AXIS2_PLACEMENT_3D('',#285,#286,#287);
#289=CYLINDRICAL_SURFACE('',#288,1.75E0);
#290=ORIENTED_EDGE('',*,*,#265,.F.);
#291=ORIENTED_EDGE('',*,*,#280,.T.);
#293=ORIENTED_EDGE('',*,*,#292,.T.);
#294=ORIENTED_EDGE('',*,*,#276,.F.);
#295=EDGE_LOOP('',(#290,#291,#293,#294));
#296=FACE_OUTER_BOUND('',#295,.F.);
#297=ADVANCED_FACE('',(#296),#289,.T.);
#298=CARTESIAN_POINT('',(0.E0,4.9E0,0.E0));
#299=DIRECTION('',(0.E0,1.E0,0.E0));
#300=DIRECTION('',(1.E0,0.E0,0.E0));
#301=AXIS2_PLACEMENT_3D('',#298,#299,#300);
#302=PLANE('',#301);
#303=ORIENTED_EDGE('',*,*,#278,.F.);
#304=ORIENTED_EDGE('',*,*,#292,.F.);
#305=EDGE_LOOP('',(#303,#304));
#306=FACE_OUTER_BOUND('',#305,.F.);
#308=ORIENTED_EDGE('',*,*,#307,.T.);
#310=ORIENTED_EDGE('',*,*,#309,.T.);
#311=EDGE_LOOP('',(#308,#310));
#312=FACE_BOUND('',#311,.F.);
#313=ADVANCED_FACE('',(#306,#312),#302,.T.);
#314=CARTESIAN_POINT('',(0.E0,4.9E0,0.E0));
#315=DIRECTION('',(0.E0,1.E0,0.E0));
#316=DIRECTION('',(1.E0,0.E0,0.E0));
#317=AXIS2_PLACEMENT_3D('',#314,#315,#316);
#318=CYLINDRICAL_SURFACE('',#317,1.2E0);
#319=ORIENTED_EDGE('',*,*,#307,.F.);
#321=ORIENTED_EDGE('',*,*,#320,.T.);
#323=ORIENTED_EDGE('',*,*,#322,.T.);
#325=ORIENTED_EDGE('',*,*,#324,.F.);
#326=EDGE_LOOP('',(#319,#321,#323,#325));
#327=FACE_OUTER_BOUND('',#326,.F.);
#328=ADVANCED_FACE('',(#327),#318,.T.);
#329=CARTESIAN_POINT('',(0.E0,4.9E0,0.E0));
#330=DIRECTION('',(0.E0,1.E0,0.E0));
#331=DIRECTION('',(1.E0,0.E0,0.E0));
#332=AXIS2_PLACEMENT_3D('',#329,#330,#331);
#333=CYLINDRICAL_SURFACE('',#332,1.2E0);
#334=ORIENTED_EDGE('',*,*,#309,.F.);
#335=ORIENTED_EDGE('',*,*,#324,.T.);
#337=ORIENTED_EDGE('',*,*,#336,.T.);
#338=ORIENTED_EDGE('',*,*,#320,.F.);
#339=EDGE_LOOP('',(#334,#335,#337,#338));
#340=FACE_OUTER_BOUND('',#339,.F.);
#341=ADVANCED_FACE('',(#340),#333,.T.);
#342=CARTESIAN_POINT('',(0.E0,7.55E0,0.E0));
#343=DIRECTION('',(0.E0,1.E0,0.E0));
#344=DIRECTION('',(1.E0,0.E0,0.E0));
#345=AXIS2_PLACEMENT_3D('',#342,#343,#344);
#346=PLANE('',#345);
#347=ORIENTED_EDGE('',*,*,#322,.F.);
#348=ORIENTED_EDGE('',*,*,#336,.F.);
#349=EDGE_LOOP('',(#347,#348));
#350=FACE_OUTER_BOUND('',#349,.F.);
#351=ADVANCED_FACE('',(#350),#346,.T.);
#352=CARTESIAN_POINT('',(0.E0,2.E0,2.E0));
#353=DIRECTION('',(0.E0,0.E0,1.E0));
#354=DIRECTION('',(1.E0,0.E0,0.E0));
#355=AXIS2_PLACEMENT_3D('',#352,#353,#354);
#356=CYLINDRICAL_SURFACE('',#355,1.35E0);
#357=ORIENTED_EDGE('',*,*,#204,.F.);
#359=ORIENTED_EDGE('',*,*,#358,.T.);
#361=ORIENTED_EDGE('',*,*,#360,.T.);
#363=ORIENTED_EDGE('',*,*,#362,.F.);
#364=EDGE_LOOP('',(#357,#359,#361,#363));
#365=FACE_OUTER_BOUND('',#364,.F.);
#366=ADVANCED_FACE('',(#365),#356,.T.);
#367=CARTESIAN_POINT('',(0.E0,2.E0,2.E0));
#368=DIRECTION('',(0.E0,0.E0,1.E0));
#369=DIRECTION('',(1.E0,0.E0,0.E0));
#370=AXIS2_PLACEMENT_3D('',#367,#368,#369);
#371=CYLINDRICAL_SURFACE('',#370,1.35E0);
#372=ORIENTED_EDGE('',*,*,#206,.F.);
#373=ORIENTED_EDGE('',*,*,#362,.T.);
#375=ORIENTED_EDGE('',*,*,#374,.T.);
#376=ORIENTED_EDGE('',*,*,#358,.F.);
#377=EDGE_LOOP('',(#372,#373,#375,#376));
#378=FACE_OUTER_BOUND('',#377,.F.);
#379=ADVANCED_FACE('',(#378),#371,.T.);
#380=CARTESIAN_POINT('',(0.E0,0.E0,7.E0));
#381=DIRECTION('',(0.E0,0.E0,1.E0));
#382=DIRECTION('',(1.E0,0.E0,0.E0));
#383=AXIS2_PLACEMENT_3D('',#380,#381,#382);
#384=PLANE('',#383);
#385=ORIENTED_EDGE('',*,*,#360,.F.);
#386=ORIENTED_EDGE('',*,*,#374,.F.);
#387=EDGE_LOOP('',(#385,#386));
#388=FACE_OUTER_BOUND('',#387,.F.);
#389=ADVANCED_FACE('',(#388),#384,.T.);
#390=CLOSED_SHELL('',(#189,#210,#224,#238,#251,#269,#284,#297,#313,#328,#341,
#351,#366,#379,#389));
#391=MANIFOLD_SOLID_BREP('',#390);
#392=(LENGTH_UNIT()NAMED_UNIT(*)SI_UNIT(.MILLI.,.METRE.));
#393=DIMENSIONAL_EXPONENTS(0.E0,0.E0,0.E0,0.E0,0.E0,0.E0,0.E0);
#394=(NAMED_UNIT(*)PLANE_ANGLE_UNIT()SI_UNIT($,.RADIAN.));
#395=PLANE_ANGLE_MEASURE_WITH_UNIT(PLANE_ANGLE_MEASURE(1.745329251994E-2),#394);
#396=(CONVERSION_BASED_UNIT('DEGREE',#395)NAMED_UNIT(#393)PLANE_ANGLE_UNIT());
#397=(NAMED_UNIT(*)SI_UNIT($,.STERADIAN.)SOLID_ANGLE_UNIT());
#398=UNCERTAINTY_MEASURE_WITH_UNIT(LENGTH_MEASURE(5.170532492699E-4),#392,
'closure',
'Maximum model space distance between geometric entities at asserted connectivities');
#399=(GEOMETRIC_REPRESENTATION_CONTEXT(3)GLOBAL_UNCERTAINTY_ASSIGNED_CONTEXT((
#398))GLOBAL_UNIT_ASSIGNED_CONTEXT((#392,#396,#397))REPRESENTATION_CONTEXT
('ID1','3'));
#401=APPLICATION_CONTEXT(
'CONFIGURATION CONTROLLED 3D DESIGNS OF MECHANICAL PARTS AND ASSEMBLIES');
#402=APPLICATION_PROTOCOL_DEFINITION('international standard',
'config_control_design',1994,#401);
#403=DESIGN_CONTEXT('',#401,'design');
#404=MECHANICAL_CONTEXT('',#401,'mechanical');
#405=PRODUCT('GPS-ANT-EXT-MMCX-PLUG_PRT','GPS-ANT-EXT-MMCX-PLUG_PRT',
'NOT SPECIFIED',(#404));
#406=PRODUCT_DEFINITION_FORMATION_WITH_SPECIFIED_SOURCE('1','LAST_VERSION',#405,
.MADE.);
#410=PRODUCT_CATEGORY('part','');
#411=PRODUCT_RELATED_PRODUCT_CATEGORY('detail','',(#405));
#412=PRODUCT_CATEGORY_RELATIONSHIP('','',#410,#411);
#413=SECURITY_CLASSIFICATION_LEVEL('unclassified');
#414=SECURITY_CLASSIFICATION('','',#413);
#415=CC_DESIGN_SECURITY_CLASSIFICATION(#414,(#406));
#416=APPROVAL_STATUS('approved');
#417=APPROVAL(#416,'');
#418=CC_DESIGN_APPROVAL(#417,(#414,#406,#407));
#419=CALENDAR_DATE(108,30,6);
#420=COORDINATED_UNIVERSAL_TIME_OFFSET(3,0,.BEHIND.);
#421=LOCAL_TIME(11,3,2.E1,#420);
#422=DATE_AND_TIME(#419,#421);
#423=APPROVAL_DATE_TIME(#422,#417);
#424=DATE_TIME_ROLE('creation_date');
#425=CC_DESIGN_DATE_AND_TIME_ASSIGNMENT(#422,#424,(#407));
#426=DATE_TIME_ROLE('classification_date');
#427=CC_DESIGN_DATE_AND_TIME_ASSIGNMENT(#422,#426,(#414));
#428=PERSON('UNSPECIFIED','UNSPECIFIED',$,$,$,$);
#429=ORGANIZATION('UNSPECIFIED','UNSPECIFIED','UNSPECIFIED');
#430=PERSON_AND_ORGANIZATION(#428,#429);
#431=APPROVAL_ROLE('approver');
#432=APPROVAL_PERSON_ORGANIZATION(#430,#417,#431);
#433=PERSON_AND_ORGANIZATION_ROLE('creator');
#434=CC_DESIGN_PERSON_AND_ORGANIZATION_ASSIGNMENT(#430,#433,(#406,#407));
#435=PERSON_AND_ORGANIZATION_ROLE('design_supplier');
#436=CC_DESIGN_PERSON_AND_ORGANIZATION_ASSIGNMENT(#430,#435,(#406));
#437=PERSON_AND_ORGANIZATION_ROLE('classification_officer');
#438=CC_DESIGN_PERSON_AND_ORGANIZATION_ASSIGNMENT(#430,#437,(#414));
#439=PERSON_AND_ORGANIZATION_ROLE('design_owner');
#440=CC_DESIGN_PERSON_AND_ORGANIZATION_ASSIGNMENT(#430,#439,(#405));
#26=CIRCLE('',#25,1.35E0);
#31=CIRCLE('',#30,1.35E0);
#64=CIRCLE('',#63,1.75E0);
#69=CIRCLE('',#68,1.75E0);
#82=CIRCLE('',#81,1.75E0);
#87=CIRCLE('',#86,1.75E0);
#92=CIRCLE('',#91,1.2E0);
#97=CIRCLE('',#96,1.2E0);
#110=CIRCLE('',#109,1.2E0);
#115=CIRCLE('',#114,1.2E0);
#128=CIRCLE('',#127,1.35E0);
#133=CIRCLE('',#132,1.35E0);
#179=EDGE_CURVE('',#136,#137,#5,.T.);
#181=EDGE_CURVE('',#137,#139,#9,.T.);
#183=EDGE_CURVE('',#139,#141,#13,.T.);
#185=EDGE_CURVE('',#141,#136,#17,.T.);
#196=EDGE_CURVE('',#136,#144,#21,.T.);
#198=EDGE_CURVE('',#144,#145,#47,.T.);
#200=EDGE_CURVE('',#137,#145,#43,.T.);
#204=EDGE_CURVE('',#172,#173,#26,.T.);
#206=EDGE_CURVE('',#173,#172,#31,.T.);
#217=EDGE_CURVE('',#141,#149,#35,.T.);
#219=EDGE_CURVE('',#149,#144,#51,.T.);
#231=EDGE_CURVE('',#139,#147,#39,.T.);
#233=EDGE_CURVE('',#147,#149,#55,.T.);
#246=EDGE_CURVE('',#145,#147,#59,.T.);
#263=EDGE_CURVE('',#156,#157,#64,.T.);
#265=EDGE_CURVE('',#157,#156,#69,.T.);
#276=EDGE_CURVE('',#156,#152,#73,.T.);
#278=EDGE_CURVE('',#152,#153,#82,.T.);
#280=EDGE_CURVE('',#157,#153,#77,.T.);
#292=EDGE_CURVE('',#153,#152,#87,.T.);
#307=EDGE_CURVE('',#164,#165,#92,.T.);
#309=EDGE_CURVE('',#165,#164,#97,.T.);
#320=EDGE_CURVE('',#164,#160,#101,.T.);
#322=EDGE_CURVE('',#160,#161,#110,.T.);
#324=EDGE_CURVE('',#165,#161,#105,.T.);
#336=EDGE_CURVE('',#161,#160,#115,.T.);
#358=EDGE_CURVE('',#172,#168,#119,.T.);
#360=EDGE_CURVE('',#168,#169,#128,.T.);
#362=EDGE_CURVE('',#173,#169,#123,.T.);
#374=EDGE_CURVE('',#169,#168,#133,.T.);
#400=ADVANCED_BREP_SHAPE_REPRESENTATION('',(#391),#399);
#407=PRODUCT_DEFINITION('design','',#406,#403);
#408=PRODUCT_DEFINITION_SHAPE('','SHAPE FOR GPS-ANT-EXT-MMCX-PLUG_PRT.',#407);
#409=SHAPE_DEFINITION_REPRESENTATION(#408,#400);
ENDSEC;
END-ISO-10303-21;
