ISO-10303-21;
HEADER;
FILE_DESCRIPTION((''),'2;1');
FILE_NAME('GTA02-MPB02_PRT','2008-06-30T',('GRA'),(''),
'PRO/ENGINEER BY PARAMETRIC TECHNOLOGY CORPORATION, 2006170',
'PRO/ENGINEER BY PARAMETRIC TECHNOLOGY CORPORATION, 2006170','');
FILE_SCHEMA(('CONFIG_CONTROL_DESIGN'));
ENDSEC;
DATA;
#2=CARTESIAN_POINT('',(-8.5E0,0.E0,1.75E1));
#3=DIRECTION('',(0.E0,-1.E0,0.E0));
#4=DIRECTION('',(0.E0,0.E0,1.E0));
#5=AXIS2_PLACEMENT_3D('',#2,#3,#4);
#7=DIRECTION('',(1.E0,0.E0,0.E0));
#8=VECTOR('',#7,1.7E1);
#9=CARTESIAN_POINT('',(-8.5E0,0.E0,1.8E1));
#10=LINE('',#9,#8);
#11=CARTESIAN_POINT('',(8.5E0,0.E0,1.75E1));
#12=DIRECTION('',(0.E0,-1.E0,0.E0));
#13=DIRECTION('',(1.E0,0.E0,0.E0));
#14=AXIS2_PLACEMENT_3D('',#11,#12,#13);
#16=DIRECTION('',(0.E0,0.E0,-1.E0));
#17=VECTOR('',#16,2.7E1);
#18=CARTESIAN_POINT('',(9.E0,0.E0,1.75E1));
#19=LINE('',#18,#17);
#20=CARTESIAN_POINT('',(8.5E0,0.E0,-9.5E0));
#21=DIRECTION('',(0.E0,-1.E0,0.E0));
#22=DIRECTION('',(0.E0,0.E0,-1.E0));
#23=AXIS2_PLACEMENT_3D('',#20,#21,#22);
#25=DIRECTION('',(-1.E0,0.E0,0.E0));
#26=VECTOR('',#25,1.7E1);
#27=CARTESIAN_POINT('',(8.5E0,0.E0,-1.E1));
#28=LINE('',#27,#26);
#29=CARTESIAN_POINT('',(-8.5E0,0.E0,-9.5E0));
#30=DIRECTION('',(0.E0,-1.E0,0.E0));
#31=DIRECTION('',(-1.E0,0.E0,0.E0));
#32=AXIS2_PLACEMENT_3D('',#29,#30,#31);
#34=DIRECTION('',(0.E0,0.E0,1.E0));
#35=VECTOR('',#34,2.7E1);
#36=CARTESIAN_POINT('',(-9.E0,0.E0,-9.5E0));
#37=LINE('',#36,#35);
#38=DIRECTION('',(-1.E0,0.E0,0.E0));
#39=VECTOR('',#38,2.1E0);
#40=CARTESIAN_POINT('',(-3.900000122471E0,0.E0,1.695000011266E1));
#41=LINE('',#40,#39);
#42=DIRECTION('',(0.E0,0.E0,-1.E0));
#43=VECTOR('',#42,6.E-1);
#44=CARTESIAN_POINT('',(-3.900000122471E0,0.E0,1.755000011266E1));
#45=LINE('',#44,#43);
#46=DIRECTION('',(1.E0,0.E0,0.E0));
#47=VECTOR('',#46,2.1E0);
#48=CARTESIAN_POINT('',(-6.000000122470E0,0.E0,1.755000011266E1));
#49=LINE('',#48,#47);
#50=DIRECTION('',(0.E0,0.E0,1.E0));
#51=VECTOR('',#50,6.E-1);
#52=CARTESIAN_POINT('',(-6.000000122470E0,0.E0,1.695000011266E1));
#53=LINE('',#52,#51);
#54=DIRECTION('',(0.E0,0.E0,-1.E0));
#55=VECTOR('',#54,6.E-1);
#56=CARTESIAN_POINT('',(6.299999877529E0,0.E0,-3.499998873396E-1));
#57=LINE('',#56,#55);
#58=DIRECTION('',(1.E0,0.E0,0.E0));
#59=VECTOR('',#58,2.1E0);
#60=CARTESIAN_POINT('',(4.199999877529E0,0.E0,-3.499998873396E-1));
#61=LINE('',#60,#59);
#62=DIRECTION('',(0.E0,0.E0,1.E0));
#63=VECTOR('',#62,6.E-1);
#64=CARTESIAN_POINT('',(4.199999877529E0,0.E0,-9.499998873396E-1));
#65=LINE('',#64,#63);
#66=DIRECTION('',(-1.E0,0.E0,0.E0));
#67=VECTOR('',#66,2.1E0);
#68=CARTESIAN_POINT('',(6.299999877529E0,0.E0,-9.499998873396E-1));
#69=LINE('',#68,#67);
#70=DIRECTION('',(0.E0,-1.E0,0.E0));
#71=VECTOR('',#70,9.E-1);
#72=CARTESIAN_POINT('',(-9.E0,9.E-1,1.75E1));
#73=LINE('',#72,#71);
#74=DIRECTION('',(0.E0,-1.E0,0.E0));
#75=VECTOR('',#74,9.E-1);
#76=CARTESIAN_POINT('',(-9.E0,9.E-1,-9.5E0));
#77=LINE('',#76,#75);
#78=DIRECTION('',(0.E0,-1.E0,0.E0));
#79=VECTOR('',#78,9.E-1);
#80=CARTESIAN_POINT('',(8.5E0,9.E-1,-1.E1));
#81=LINE('',#80,#79);
#82=DIRECTION('',(0.E0,-1.E0,0.E0));
#83=VECTOR('',#82,9.E-1);
#84=CARTESIAN_POINT('',(-8.5E0,9.E-1,-1.E1));
#85=LINE('',#84,#83);
#86=DIRECTION('',(0.E0,-1.E0,0.E0));
#87=VECTOR('',#86,9.E-1);
#88=CARTESIAN_POINT('',(9.E0,9.E-1,1.75E1));
#89=LINE('',#88,#87);
#90=DIRECTION('',(0.E0,-1.E0,0.E0));
#91=VECTOR('',#90,9.E-1);
#92=CARTESIAN_POINT('',(9.E0,9.E-1,-9.5E0));
#93=LINE('',#92,#91);
#94=DIRECTION('',(0.E0,-1.E0,0.E0));
#95=VECTOR('',#94,9.E-1);
#96=CARTESIAN_POINT('',(-8.5E0,9.E-1,1.8E1));
#97=LINE('',#96,#95);
#98=DIRECTION('',(0.E0,-1.E0,0.E0));
#99=VECTOR('',#98,9.E-1);
#100=CARTESIAN_POINT('',(8.5E0,9.E-1,1.8E1));
#101=LINE('',#100,#99);
#102=CARTESIAN_POINT('',(-8.5E0,9.E-1,1.75E1));
#103=DIRECTION('',(0.E0,1.E0,0.E0));
#104=DIRECTION('',(-1.E0,0.E0,0.E0));
#105=AXIS2_PLACEMENT_3D('',#102,#103,#104);
#107=DIRECTION('',(0.E0,0.E0,1.E0));
#108=VECTOR('',#107,2.7E1);
#109=CARTESIAN_POINT('',(-9.E0,9.E-1,-9.5E0));
#110=LINE('',#109,#108);
#111=CARTESIAN_POINT('',(-8.5E0,9.E-1,-9.5E0));
#112=DIRECTION('',(0.E0,1.E0,0.E0));
#113=DIRECTION('',(0.E0,0.E0,-1.E0));
#114=AXIS2_PLACEMENT_3D('',#111,#112,#113);
#116=DIRECTION('',(-1.E0,0.E0,0.E0));
#117=VECTOR('',#116,1.7E1);
#118=CARTESIAN_POINT('',(8.5E0,9.E-1,-1.E1));
#119=LINE('',#118,#117);
#120=CARTESIAN_POINT('',(8.5E0,9.E-1,-9.5E0));
#121=DIRECTION('',(0.E0,1.E0,0.E0));
#122=DIRECTION('',(1.E0,0.E0,0.E0));
#123=AXIS2_PLACEMENT_3D('',#120,#121,#122);
#125=DIRECTION('',(0.E0,0.E0,-1.E0));
#126=VECTOR('',#125,2.7E1);
#127=CARTESIAN_POINT('',(9.E0,9.E-1,1.75E1));
#128=LINE('',#127,#126);
#129=CARTESIAN_POINT('',(8.5E0,9.E-1,1.75E1));
#130=DIRECTION('',(0.E0,1.E0,0.E0));
#131=DIRECTION('',(0.E0,0.E0,1.E0));
#132=AXIS2_PLACEMENT_3D('',#129,#130,#131);
#134=DIRECTION('',(1.E0,0.E0,0.E0));
#135=VECTOR('',#134,1.7E1);
#136=CARTESIAN_POINT('',(-8.5E0,9.E-1,1.8E1));
#137=LINE('',#136,#135);
#138=DIRECTION('',(-1.E0,0.E0,0.E0));
#139=VECTOR('',#138,2.1E0);
#140=CARTESIAN_POINT('',(-3.900000122471E0,9.E-1,1.695000011266E1));
#141=LINE('',#140,#139);
#142=DIRECTION('',(0.E0,0.E0,1.E0));
#143=VECTOR('',#142,6.E-1);
#144=CARTESIAN_POINT('',(-6.000000122470E0,9.E-1,1.695000011266E1));
#145=LINE('',#144,#143);
#146=DIRECTION('',(1.E0,0.E0,0.E0));
#147=VECTOR('',#146,2.1E0);
#148=CARTESIAN_POINT('',(-6.000000122470E0,9.E-1,1.755000011266E1));
#149=LINE('',#148,#147);
#150=DIRECTION('',(0.E0,0.E0,-1.E0));
#151=VECTOR('',#150,6.E-1);
#152=CARTESIAN_POINT('',(-3.900000122471E0,9.E-1,1.755000011266E1));
#153=LINE('',#152,#151);
#154=DIRECTION('',(0.E0,0.E0,-1.E0));
#155=VECTOR('',#154,6.E-1);
#156=CARTESIAN_POINT('',(6.299999877529E0,9.E-1,-3.499998873396E-1));
#157=LINE('',#156,#155);
#158=DIRECTION('',(-1.E0,0.E0,0.E0));
#159=VECTOR('',#158,2.1E0);
#160=CARTESIAN_POINT('',(6.299999877529E0,9.E-1,-9.499998873396E-1));
#161=LINE('',#160,#159);
#162=DIRECTION('',(0.E0,0.E0,1.E0));
#163=VECTOR('',#162,6.E-1);
#164=CARTESIAN_POINT('',(4.199999877529E0,9.E-1,-9.499998873396E-1));
#165=LINE('',#164,#163);
#166=DIRECTION('',(1.E0,0.E0,0.E0));
#167=VECTOR('',#166,2.1E0);
#168=CARTESIAN_POINT('',(4.199999877529E0,9.E-1,-3.499998873396E-1));
#169=LINE('',#168,#167);
#170=DIRECTION('',(0.E0,1.E0,0.E0));
#171=VECTOR('',#170,9.E-1);
#172=CARTESIAN_POINT('',(-3.900000122471E0,0.E0,1.695000011266E1));
#173=LINE('',#172,#171);
#174=DIRECTION('',(0.E0,1.E0,0.E0));
#175=VECTOR('',#174,9.E-1);
#176=CARTESIAN_POINT('',(-6.000000122470E0,0.E0,1.695000011266E1));
#177=LINE('',#176,#175);
#178=DIRECTION('',(0.E0,1.E0,0.E0));
#179=VECTOR('',#178,9.E-1);
#180=CARTESIAN_POINT('',(-6.000000122470E0,0.E0,1.755000011266E1));
#181=LINE('',#180,#179);
#182=DIRECTION('',(0.E0,1.E0,0.E0));
#183=VECTOR('',#182,9.E-1);
#184=CARTESIAN_POINT('',(-3.900000122471E0,0.E0,1.755000011266E1));
#185=LINE('',#184,#183);
#186=DIRECTION('',(0.E0,1.E0,0.E0));
#187=VECTOR('',#186,9.E-1);
#188=CARTESIAN_POINT('',(6.299999877529E0,0.E0,-3.499998873396E-1));
#189=LINE('',#188,#187);
#190=DIRECTION('',(0.E0,1.E0,0.E0));
#191=VECTOR('',#190,9.E-1);
#192=CARTESIAN_POINT('',(6.299999877529E0,0.E0,-9.499998873396E-1));
#193=LINE('',#192,#191);
#194=DIRECTION('',(0.E0,1.E0,0.E0));
#195=VECTOR('',#194,9.E-1);
#196=CARTESIAN_POINT('',(4.199999877529E0,0.E0,-9.499998873396E-1));
#197=LINE('',#196,#195);
#198=DIRECTION('',(0.E0,1.E0,0.E0));
#199=VECTOR('',#198,9.E-1);
#200=CARTESIAN_POINT('',(4.199999877529E0,0.E0,-3.499998873396E-1));
#201=LINE('',#200,#199);
#202=CARTESIAN_POINT('',(-8.5E0,0.E0,1.8E1));
#203=CARTESIAN_POINT('',(-9.E0,0.E0,1.75E1));
#204=VERTEX_POINT('',#202);
#205=VERTEX_POINT('',#203);
#206=CARTESIAN_POINT('',(-9.E0,9.E-1,1.75E1));
#207=VERTEX_POINT('',#206);
#208=CARTESIAN_POINT('',(-8.5E0,9.E-1,1.8E1));
#209=VERTEX_POINT('',#208);
#210=CARTESIAN_POINT('',(9.E0,0.E0,1.75E1));
#211=CARTESIAN_POINT('',(8.5E0,0.E0,1.8E1));
#212=VERTEX_POINT('',#210);
#213=VERTEX_POINT('',#211);
#214=CARTESIAN_POINT('',(8.5E0,9.E-1,1.8E1));
#215=VERTEX_POINT('',#214);
#216=CARTESIAN_POINT('',(9.E0,9.E-1,1.75E1));
#217=VERTEX_POINT('',#216);
#218=CARTESIAN_POINT('',(8.5E0,0.E0,-1.E1));
#219=CARTESIAN_POINT('',(9.E0,0.E0,-9.5E0));
#220=VERTEX_POINT('',#218);
#221=VERTEX_POINT('',#219);
#222=CARTESIAN_POINT('',(9.E0,9.E-1,-9.5E0));
#223=VERTEX_POINT('',#222);
#224=CARTESIAN_POINT('',(8.5E0,9.E-1,-1.E1));
#225=VERTEX_POINT('',#224);
#226=CARTESIAN_POINT('',(-9.E0,0.E0,-9.5E0));
#227=CARTESIAN_POINT('',(-8.5E0,0.E0,-1.E1));
#228=VERTEX_POINT('',#226);
#229=VERTEX_POINT('',#227);
#230=CARTESIAN_POINT('',(-8.5E0,9.E-1,-1.E1));
#231=VERTEX_POINT('',#230);
#232=CARTESIAN_POINT('',(-9.E0,9.E-1,-9.5E0));
#233=VERTEX_POINT('',#232);
#234=CARTESIAN_POINT('',(-3.900000122471E0,0.E0,1.695000011266E1));
#235=CARTESIAN_POINT('',(-6.000000122470E0,0.E0,1.695000011266E1));
#236=VERTEX_POINT('',#234);
#237=VERTEX_POINT('',#235);
#238=CARTESIAN_POINT('',(-6.000000122470E0,0.E0,1.755000011266E1));
#239=VERTEX_POINT('',#238);
#240=CARTESIAN_POINT('',(-3.900000122471E0,0.E0,1.755000011266E1));
#241=VERTEX_POINT('',#240);
#242=CARTESIAN_POINT('',(6.299999877529E0,0.E0,-3.499998873396E-1));
#243=CARTESIAN_POINT('',(6.299999877529E0,0.E0,-9.499998873396E-1));
#244=VERTEX_POINT('',#242);
#245=VERTEX_POINT('',#243);
#246=CARTESIAN_POINT('',(4.199999877529E0,0.E0,-9.499998873396E-1));
#247=VERTEX_POINT('',#246);
#248=CARTESIAN_POINT('',(4.199999877529E0,0.E0,-3.499998873396E-1));
#249=VERTEX_POINT('',#248);
#250=CARTESIAN_POINT('',(-3.900000122471E0,9.E-1,1.695000011266E1));
#251=CARTESIAN_POINT('',(-6.000000122470E0,9.E-1,1.695000011266E1));
#252=VERTEX_POINT('',#250);
#253=VERTEX_POINT('',#251);
#254=CARTESIAN_POINT('',(-6.000000122470E0,9.E-1,1.755000011266E1));
#255=VERTEX_POINT('',#254);
#256=CARTESIAN_POINT('',(-3.900000122471E0,9.E-1,1.755000011266E1));
#257=VERTEX_POINT('',#256);
#258=CARTESIAN_POINT('',(6.299999877529E0,9.E-1,-3.499998873396E-1));
#259=CARTESIAN_POINT('',(6.299999877529E0,9.E-1,-9.499998873396E-1));
#260=VERTEX_POINT('',#258);
#261=VERTEX_POINT('',#259);
#262=CARTESIAN_POINT('',(4.199999877529E0,9.E-1,-9.499998873396E-1));
#263=VERTEX_POINT('',#262);
#264=CARTESIAN_POINT('',(4.199999877529E0,9.E-1,-3.499998873396E-1));
#265=VERTEX_POINT('',#264);
#266=CARTESIAN_POINT('',(0.E0,0.E0,0.E0));
#267=DIRECTION('',(0.E0,1.E0,0.E0));
#268=DIRECTION('',(1.E0,0.E0,0.E0));
#269=AXIS2_PLACEMENT_3D('',#266,#267,#268);
#270=PLANE('',#269);
#272=ORIENTED_EDGE('',*,*,#271,.F.);
#274=ORIENTED_EDGE('',*,*,#273,.T.);
#276=ORIENTED_EDGE('',*,*,#275,.F.);
#278=ORIENTED_EDGE('',*,*,#277,.T.);
#280=ORIENTED_EDGE('',*,*,#279,.F.);
#282=ORIENTED_EDGE('',*,*,#281,.T.);
#284=ORIENTED_EDGE('',*,*,#283,.F.);
#286=ORIENTED_EDGE('',*,*,#285,.T.);
#287=EDGE_LOOP('',(#272,#274,#276,#278,#280,#282,#284,#286));
#288=FACE_OUTER_BOUND('',#287,.F.);
#290=ORIENTED_EDGE('',*,*,#289,.F.);
#292=ORIENTED_EDGE('',*,*,#291,.F.);
#294=ORIENTED_EDGE('',*,*,#293,.F.);
#296=ORIENTED_EDGE('',*,*,#295,.F.);
#297=EDGE_LOOP('',(#290,#292,#294,#296));
#298=FACE_BOUND('',#297,.F.);
#300=ORIENTED_EDGE('',*,*,#299,.F.);
#302=ORIENTED_EDGE('',*,*,#301,.F.);
#304=ORIENTED_EDGE('',*,*,#303,.F.);
#306=ORIENTED_EDGE('',*,*,#305,.F.);
#307=EDGE_LOOP('',(#300,#302,#304,#306));
#308=FACE_BOUND('',#307,.F.);
#309=ADVANCED_FACE('',(#288,#298,#308),#270,.F.);
#310=CARTESIAN_POINT('',(-8.5E0,9.232585699276E-1,1.75E1));
#311=DIRECTION('',(0.E0,-1.E0,0.E0));
#312=DIRECTION('',(0.E0,0.E0,1.E0));
#313=AXIS2_PLACEMENT_3D('',#310,#311,#312);
#314=CYLINDRICAL_SURFACE('',#313,5.E-1);
#315=ORIENTED_EDGE('',*,*,#271,.T.);
#317=ORIENTED_EDGE('',*,*,#316,.F.);
#319=ORIENTED_EDGE('',*,*,#318,.T.);
#321=ORIENTED_EDGE('',*,*,#320,.T.);
#322=EDGE_LOOP('',(#315,#317,#319,#321));
#323=FACE_OUTER_BOUND('',#322,.F.);
#324=ADVANCED_FACE('',(#323),#314,.T.);
#325=CARTESIAN_POINT('',(-9.E0,0.E0,-1.E1));
#326=DIRECTION('',(-1.E0,0.E0,0.E0));
#327=DIRECTION('',(0.E0,0.E0,1.E0));
#328=AXIS2_PLACEMENT_3D('',#325,#326,#327);
#329=PLANE('',#328);
#330=ORIENTED_EDGE('',*,*,#316,.T.);
#331=ORIENTED_EDGE('',*,*,#285,.F.);
#333=ORIENTED_EDGE('',*,*,#332,.F.);
#335=ORIENTED_EDGE('',*,*,#334,.T.);
#336=EDGE_LOOP('',(#330,#331,#333,#335));
#337=FACE_OUTER_BOUND('',#336,.F.);
#338=ADVANCED_FACE('',(#337),#329,.T.);
#339=CARTESIAN_POINT('',(-8.5E0,9.232585699276E-1,-9.5E0));
#340=DIRECTION('',(0.E0,-1.E0,0.E0));
#341=DIRECTION('',(-1.E0,0.E0,0.E0));
#342=AXIS2_PLACEMENT_3D('',#339,#340,#341);
#343=CYLINDRICAL_SURFACE('',#342,5.E-1);
#344=ORIENTED_EDGE('',*,*,#283,.T.);
#346=ORIENTED_EDGE('',*,*,#345,.F.);
#348=ORIENTED_EDGE('',*,*,#347,.T.);
#349=ORIENTED_EDGE('',*,*,#332,.T.);
#350=EDGE_LOOP('',(#344,#346,#348,#349));
#351=FACE_OUTER_BOUND('',#350,.F.);
#352=ADVANCED_FACE('',(#351),#343,.T.);
#353=CARTESIAN_POINT('',(9.E0,0.E0,-1.E1));
#354=DIRECTION('',(0.E0,0.E0,-1.E0));
#355=DIRECTION('',(-1.E0,0.E0,0.E0));
#356=AXIS2_PLACEMENT_3D('',#353,#354,#355);
#357=PLANE('',#356);
#359=ORIENTED_EDGE('',*,*,#358,.F.);
#361=ORIENTED_EDGE('',*,*,#360,.T.);
#362=ORIENTED_EDGE('',*,*,#345,.T.);
#363=ORIENTED_EDGE('',*,*,#281,.F.);
#364=EDGE_LOOP('',(#359,#361,#362,#363));
#365=FACE_OUTER_BOUND('',#364,.F.);
#366=ADVANCED_FACE('',(#365),#357,.T.);
#367=CARTESIAN_POINT('',(8.5E0,9.232585699276E-1,-9.5E0));
#368=DIRECTION('',(0.E0,-1.E0,0.E0));
#369=DIRECTION('',(0.E0,0.E0,-1.E0));
#370=AXIS2_PLACEMENT_3D('',#367,#368,#369);
#371=CYLINDRICAL_SURFACE('',#370,5.E-1);
#372=ORIENTED_EDGE('',*,*,#279,.T.);
#374=ORIENTED_EDGE('',*,*,#373,.F.);
#376=ORIENTED_EDGE('',*,*,#375,.T.);
#377=ORIENTED_EDGE('',*,*,#358,.T.);
#378=EDGE_LOOP('',(#372,#374,#376,#377));
#379=FACE_OUTER_BOUND('',#378,.F.);
#380=ADVANCED_FACE('',(#379),#371,.T.);
#381=CARTESIAN_POINT('',(9.E0,0.E0,1.8E1));
#382=DIRECTION('',(1.E0,0.E0,0.E0));
#383=DIRECTION('',(0.E0,0.E0,-1.E0));
#384=AXIS2_PLACEMENT_3D('',#381,#382,#383);
#385=PLANE('',#384);
#387=ORIENTED_EDGE('',*,*,#386,.F.);
#389=ORIENTED_EDGE('',*,*,#388,.T.);
#390=ORIENTED_EDGE('',*,*,#373,.T.);
#391=ORIENTED_EDGE('',*,*,#277,.F.);
#392=EDGE_LOOP('',(#387,#389,#390,#391));
#393=FACE_OUTER_BOUND('',#392,.F.);
#394=ADVANCED_FACE('',(#393),#385,.T.);
#395=CARTESIAN_POINT('',(8.5E0,9.232585699276E-1,1.75E1));
#396=DIRECTION('',(0.E0,-1.E0,0.E0));
#397=DIRECTION('',(1.E0,0.E0,0.E0));
#398=AXIS2_PLACEMENT_3D('',#395,#396,#397);
#399=CYLINDRICAL_SURFACE('',#398,5.E-1);
#400=ORIENTED_EDGE('',*,*,#275,.T.);
#402=ORIENTED_EDGE('',*,*,#401,.F.);
#404=ORIENTED_EDGE('',*,*,#403,.T.);
#405=ORIENTED_EDGE('',*,*,#386,.T.);
#406=EDGE_LOOP('',(#400,#402,#404,#405));
#407=FACE_OUTER_BOUND('',#406,.F.);
#408=ADVANCED_FACE('',(#407),#399,.T.);
#409=CARTESIAN_POINT('',(-9.E0,0.E0,1.8E1));
#410=DIRECTION('',(0.E0,0.E0,1.E0));
#411=DIRECTION('',(1.E0,0.E0,0.E0));
#412=AXIS2_PLACEMENT_3D('',#409,#410,#411);
#413=PLANE('',#412);
#414=ORIENTED_EDGE('',*,*,#320,.F.);
#416=ORIENTED_EDGE('',*,*,#415,.T.);
#417=ORIENTED_EDGE('',*,*,#401,.T.);
#418=ORIENTED_EDGE('',*,*,#273,.F.);
#419=EDGE_LOOP('',(#414,#416,#417,#418));
#420=FACE_OUTER_BOUND('',#419,.F.);
#421=ADVANCED_FACE('',(#420),#413,.T.);
#422=CARTESIAN_POINT('',(0.E0,9.E-1,0.E0));
#423=DIRECTION('',(0.E0,1.E0,0.E0));
#424=DIRECTION('',(1.E0,0.E0,0.E0));
#425=AXIS2_PLACEMENT_3D('',#422,#423,#424);
#426=PLANE('',#425);
#427=ORIENTED_EDGE('',*,*,#318,.F.);
#428=ORIENTED_EDGE('',*,*,#334,.F.);
#429=ORIENTED_EDGE('',*,*,#347,.F.);
#430=ORIENTED_EDGE('',*,*,#360,.F.);
#431=ORIENTED_EDGE('',*,*,#375,.F.);
#432=ORIENTED_EDGE('',*,*,#388,.F.);
#433=ORIENTED_EDGE('',*,*,#403,.F.);
#434=ORIENTED_EDGE('',*,*,#415,.F.);
#435=EDGE_LOOP('',(#427,#428,#429,#430,#431,#432,#433,#434));
#436=FACE_OUTER_BOUND('',#435,.F.);
#438=ORIENTED_EDGE('',*,*,#437,.T.);
#440=ORIENTED_EDGE('',*,*,#439,.T.);
#442=ORIENTED_EDGE('',*,*,#441,.T.);
#444=ORIENTED_EDGE('',*,*,#443,.T.);
#445=EDGE_LOOP('',(#438,#440,#442,#444));
#446=FACE_BOUND('',#445,.F.);
#448=ORIENTED_EDGE('',*,*,#447,.T.);
#450=ORIENTED_EDGE('',*,*,#449,.T.);
#452=ORIENTED_EDGE('',*,*,#451,.T.);
#454=ORIENTED_EDGE('',*,*,#453,.T.);
#455=EDGE_LOOP('',(#448,#450,#452,#454));
#456=FACE_BOUND('',#455,.F.);
#457=ADVANCED_FACE('',(#436,#446,#456),#426,.T.);
#458=CARTESIAN_POINT('',(-3.900000122471E0,0.E0,1.695000011266E1));
#459=DIRECTION('',(0.E0,0.E0,-1.E0));
#460=DIRECTION('',(-1.E0,0.E0,0.E0));
#461=AXIS2_PLACEMENT_3D('',#458,#459,#460);
#462=PLANE('',#461);
#463=ORIENTED_EDGE('',*,*,#289,.T.);
#465=ORIENTED_EDGE('',*,*,#464,.T.);
#466=ORIENTED_EDGE('',*,*,#437,.F.);
#468=ORIENTED_EDGE('',*,*,#467,.F.);
#469=EDGE_LOOP('',(#463,#465,#466,#468));
#470=FACE_OUTER_BOUND('',#469,.F.);
#471=ADVANCED_FACE('',(#470),#462,.F.);
#472=CARTESIAN_POINT('',(-6.000000122470E0,0.E0,1.695000011266E1));
#473=DIRECTION('',(-1.E0,0.E0,0.E0));
#474=DIRECTION('',(0.E0,0.E0,1.E0));
#475=AXIS2_PLACEMENT_3D('',#472,#473,#474);
#476=PLANE('',#475);
#477=ORIENTED_EDGE('',*,*,#295,.T.);
#479=ORIENTED_EDGE('',*,*,#478,.T.);
#480=ORIENTED_EDGE('',*,*,#439,.F.);
#481=ORIENTED_EDGE('',*,*,#464,.F.);
#482=EDGE_LOOP('',(#477,#479,#480,#481));
#483=FACE_OUTER_BOUND('',#482,.F.);
#484=ADVANCED_FACE('',(#483),#476,.F.);
#485=CARTESIAN_POINT('',(-6.000000122470E0,0.E0,1.755000011266E1));
#486=DIRECTION('',(0.E0,0.E0,1.E0));
#487=DIRECTION('',(1.E0,0.E0,0.E0));
#488=AXIS2_PLACEMENT_3D('',#485,#486,#487);
#489=PLANE('',#488);
#490=ORIENTED_EDGE('',*,*,#293,.T.);
#492=ORIENTED_EDGE('',*,*,#491,.T.);
#493=ORIENTED_EDGE('',*,*,#441,.F.);
#494=ORIENTED_EDGE('',*,*,#478,.F.);
#495=EDGE_LOOP('',(#490,#492,#493,#494));
#496=FACE_OUTER_BOUND('',#495,.F.);
#497=ADVANCED_FACE('',(#496),#489,.F.);
#498=CARTESIAN_POINT('',(-3.900000122471E0,0.E0,1.755000011266E1));
#499=DIRECTION('',(1.E0,0.E0,0.E0));
#500=DIRECTION('',(0.E0,0.E0,-1.E0));
#501=AXIS2_PLACEMENT_3D('',#498,#499,#500);
#502=PLANE('',#501);
#503=ORIENTED_EDGE('',*,*,#291,.T.);
#504=ORIENTED_EDGE('',*,*,#467,.T.);
#505=ORIENTED_EDGE('',*,*,#443,.F.);
#506=ORIENTED_EDGE('',*,*,#491,.F.);
#507=EDGE_LOOP('',(#503,#504,#505,#506));
#508=FACE_OUTER_BOUND('',#507,.F.);
#509=ADVANCED_FACE('',(#508),#502,.F.);
#510=CARTESIAN_POINT('',(6.299999877529E0,0.E0,-3.499998873396E-1));
#511=DIRECTION('',(1.E0,0.E0,0.E0));
#512=DIRECTION('',(0.E0,0.E0,-1.E0));
#513=AXIS2_PLACEMENT_3D('',#510,#511,#512);
#514=PLANE('',#513);
#515=ORIENTED_EDGE('',*,*,#299,.T.);
#517=ORIENTED_EDGE('',*,*,#516,.T.);
#518=ORIENTED_EDGE('',*,*,#447,.F.);
#520=ORIENTED_EDGE('',*,*,#519,.F.);
#521=EDGE_LOOP('',(#515,#517,#518,#520));
#522=FACE_OUTER_BOUND('',#521,.F.);
#523=ADVANCED_FACE('',(#522),#514,.F.);
#524=CARTESIAN_POINT('',(6.299999877529E0,0.E0,-9.499998873396E-1));
#525=DIRECTION('',(0.E0,0.E0,-1.E0));
#526=DIRECTION('',(-1.E0,0.E0,0.E0));
#527=AXIS2_PLACEMENT_3D('',#524,#525,#526);
#528=PLANE('',#527);
#529=ORIENTED_EDGE('',*,*,#305,.T.);
#531=ORIENTED_EDGE('',*,*,#530,.T.);
#532=ORIENTED_EDGE('',*,*,#449,.F.);
#533=ORIENTED_EDGE('',*,*,#516,.F.);
#534=EDGE_LOOP('',(#529,#531,#532,#533));
#535=FACE_OUTER_BOUND('',#534,.F.);
#536=ADVANCED_FACE('',(#535),#528,.F.);
#537=CARTESIAN_POINT('',(4.199999877529E0,0.E0,-9.499998873396E-1));
#538=DIRECTION('',(-1.E0,0.E0,0.E0));
#539=DIRECTION('',(0.E0,0.E0,1.E0));
#540=AXIS2_PLACEMENT_3D('',#537,#538,#539);
#541=PLANE('',#540);
#542=ORIENTED_EDGE('',*,*,#303,.T.);
#544=ORIENTED_EDGE('',*,*,#543,.T.);
#545=ORIENTED_EDGE('',*,*,#451,.F.);
#546=ORIENTED_EDGE('',*,*,#530,.F.);
#547=EDGE_LOOP('',(#542,#544,#545,#546));
#548=FACE_OUTER_BOUND('',#547,.F.);
#549=ADVANCED_FACE('',(#548),#541,.F.);
#550=CARTESIAN_POINT('',(4.199999877529E0,0.E0,-3.499998873396E-1));
#551=DIRECTION('',(0.E0,0.E0,1.E0));
#552=DIRECTION('',(1.E0,0.E0,0.E0));
#553=AXIS2_PLACEMENT_3D('',#550,#551,#552);
#554=PLANE('',#553);
#555=ORIENTED_EDGE('',*,*,#301,.T.);
#556=ORIENTED_EDGE('',*,*,#519,.T.);
#557=ORIENTED_EDGE('',*,*,#453,.F.);
#558=ORIENTED_EDGE('',*,*,#543,.F.);
#559=EDGE_LOOP('',(#555,#556,#557,#558));
#560=FACE_OUTER_BOUND('',#559,.F.);
#561=ADVANCED_FACE('',(#560),#554,.F.);
#562=CLOSED_SHELL('',(#309,#324,#338,#352,#366,#380,#394,#408,#421,#457,#471,
#484,#497,#509,#523,#536,#549,#561));
#563=MANIFOLD_SOLID_BREP('',#562);
#564=(LENGTH_UNIT()NAMED_UNIT(*)SI_UNIT(.MILLI.,.METRE.));
#565=DIMENSIONAL_EXPONENTS(0.E0,0.E0,0.E0,0.E0,0.E0,0.E0,0.E0);
#566=(NAMED_UNIT(*)PLANE_ANGLE_UNIT()SI_UNIT($,.RADIAN.));
#567=PLANE_ANGLE_MEASURE_WITH_UNIT(PLANE_ANGLE_MEASURE(1.745329251994E-2),#566);
#568=(CONVERSION_BASED_UNIT('DEGREE',#567)NAMED_UNIT(#565)PLANE_ANGLE_UNIT());
#569=(NAMED_UNIT(*)SI_UNIT($,.STERADIAN.)SOLID_ANGLE_UNIT());
#570=UNCERTAINTY_MEASURE_WITH_UNIT(LENGTH_MEASURE(1.486360552633E-3),#564,
'closure',
'Maximum model space distance between geometric entities at asserted connectivities');
#571=(GEOMETRIC_REPRESENTATION_CONTEXT(3)GLOBAL_UNCERTAINTY_ASSIGNED_CONTEXT((
#570))GLOBAL_UNIT_ASSIGNED_CONTEXT((#564,#568,#569))REPRESENTATION_CONTEXT
('ID1','3'));
#573=APPLICATION_CONTEXT(
'CONFIGURATION CONTROLLED 3D DESIGNS OF MECHANICAL PARTS AND ASSEMBLIES');
#574=APPLICATION_PROTOCOL_DEFINITION('international standard',
'config_control_design',1994,#573);
#575=DESIGN_CONTEXT('',#573,'design');
#576=MECHANICAL_CONTEXT('',#573,'mechanical');
#577=PRODUCT('GTA02-MPB02_PRT','GTA02-MPB02_PRT','NOT SPECIFIED',(#576));
#578=PRODUCT_DEFINITION_FORMATION_WITH_SPECIFIED_SOURCE('1','LAST_VERSION',#577,
.MADE.);
#582=PRODUCT_CATEGORY('part','');
#583=PRODUCT_RELATED_PRODUCT_CATEGORY('detail','',(#577));
#584=PRODUCT_CATEGORY_RELATIONSHIP('','',#582,#583);
#585=SECURITY_CLASSIFICATION_LEVEL('unclassified');
#586=SECURITY_CLASSIFICATION('','',#585);
#587=CC_DESIGN_SECURITY_CLASSIFICATION(#586,(#578));
#588=APPROVAL_STATUS('approved');
#589=APPROVAL(#588,'');
#590=CC_DESIGN_APPROVAL(#589,(#586,#578,#579));
#591=CALENDAR_DATE(108,30,6);
#592=COORDINATED_UNIVERSAL_TIME_OFFSET(3,0,.BEHIND.);
#593=LOCAL_TIME(11,3,2.E1,#592);
#594=DATE_AND_TIME(#591,#593);
#595=APPROVAL_DATE_TIME(#594,#589);
#596=DATE_TIME_ROLE('creation_date');
#597=CC_DESIGN_DATE_AND_TIME_ASSIGNMENT(#594,#596,(#579));
#598=DATE_TIME_ROLE('classification_date');
#599=CC_DESIGN_DATE_AND_TIME_ASSIGNMENT(#594,#598,(#586));
#600=PERSON('UNSPECIFIED','UNSPECIFIED',$,$,$,$);
#601=ORGANIZATION('UNSPECIFIED','UNSPECIFIED','UNSPECIFIED');
#602=PERSON_AND_ORGANIZATION(#600,#601);
#603=APPROVAL_ROLE('approver');
#604=APPROVAL_PERSON_ORGANIZATION(#602,#589,#603);
#605=PERSON_AND_ORGANIZATION_ROLE('creator');
#606=CC_DESIGN_PERSON_AND_ORGANIZATION_ASSIGNMENT(#602,#605,(#578,#579));
#607=PERSON_AND_ORGANIZATION_ROLE('design_supplier');
#608=CC_DESIGN_PERSON_AND_ORGANIZATION_ASSIGNMENT(#602,#607,(#578));
#609=PERSON_AND_ORGANIZATION_ROLE('classification_officer');
#610=CC_DESIGN_PERSON_AND_ORGANIZATION_ASSIGNMENT(#602,#609,(#586));
#611=PERSON_AND_ORGANIZATION_ROLE('design_owner');
#612=CC_DESIGN_PERSON_AND_ORGANIZATION_ASSIGNMENT(#602,#611,(#577));
#6=CIRCLE('',#5,5.E-1);
#15=CIRCLE('',#14,5.E-1);
#24=CIRCLE('',#23,5.E-1);
#33=CIRCLE('',#32,5.E-1);
#106=CIRCLE('',#105,5.E-1);
#115=CIRCLE('',#114,5.E-1);
#124=CIRCLE('',#123,5.E-1);
#133=CIRCLE('',#132,5.E-1);
#271=EDGE_CURVE('',#204,#205,#6,.T.);
#273=EDGE_CURVE('',#204,#213,#10,.T.);
#275=EDGE_CURVE('',#212,#213,#15,.T.);
#277=EDGE_CURVE('',#212,#221,#19,.T.);
#279=EDGE_CURVE('',#220,#221,#24,.T.);
#281=EDGE_CURVE('',#220,#229,#28,.T.);
#283=EDGE_CURVE('',#228,#229,#33,.T.);
#285=EDGE_CURVE('',#228,#205,#37,.T.);
#289=EDGE_CURVE('',#236,#237,#41,.T.);
#291=EDGE_CURVE('',#241,#236,#45,.T.);
#293=EDGE_CURVE('',#239,#241,#49,.T.);
#295=EDGE_CURVE('',#237,#239,#53,.T.);
#299=EDGE_CURVE('',#244,#245,#57,.T.);
#301=EDGE_CURVE('',#249,#244,#61,.T.);
#303=EDGE_CURVE('',#247,#249,#65,.T.);
#305=EDGE_CURVE('',#245,#247,#69,.T.);
#316=EDGE_CURVE('',#207,#205,#73,.T.);
#318=EDGE_CURVE('',#207,#209,#106,.T.);
#320=EDGE_CURVE('',#209,#204,#97,.T.);
#332=EDGE_CURVE('',#233,#228,#77,.T.);
#334=EDGE_CURVE('',#233,#207,#110,.T.);
#345=EDGE_CURVE('',#231,#229,#85,.T.);
#347=EDGE_CURVE('',#231,#233,#115,.T.);
#358=EDGE_CURVE('',#225,#220,#81,.T.);
#360=EDGE_CURVE('',#225,#231,#119,.T.);
#373=EDGE_CURVE('',#223,#221,#93,.T.);
#375=EDGE_CURVE('',#223,#225,#124,.T.);
#386=EDGE_CURVE('',#217,#212,#89,.T.);
#388=EDGE_CURVE('',#217,#223,#128,.T.);
#401=EDGE_CURVE('',#215,#213,#101,.T.);
#403=EDGE_CURVE('',#215,#217,#133,.T.);
#415=EDGE_CURVE('',#209,#215,#137,.T.);
#437=EDGE_CURVE('',#252,#253,#141,.T.);
#439=EDGE_CURVE('',#253,#255,#145,.T.);
#441=EDGE_CURVE('',#255,#257,#149,.T.);
#443=EDGE_CURVE('',#257,#252,#153,.T.);
#447=EDGE_CURVE('',#260,#261,#157,.T.);
#449=EDGE_CURVE('',#261,#263,#161,.T.);
#451=EDGE_CURVE('',#263,#265,#165,.T.);
#453=EDGE_CURVE('',#265,#260,#169,.T.);
#464=EDGE_CURVE('',#237,#253,#177,.T.);
#467=EDGE_CURVE('',#236,#252,#173,.T.);
#478=EDGE_CURVE('',#239,#255,#181,.T.);
#491=EDGE_CURVE('',#241,#257,#185,.T.);
#516=EDGE_CURVE('',#245,#261,#193,.T.);
#519=EDGE_CURVE('',#244,#260,#189,.T.);
#530=EDGE_CURVE('',#247,#263,#197,.T.);
#543=EDGE_CURVE('',#249,#265,#201,.T.);
#572=ADVANCED_BREP_SHAPE_REPRESENTATION('',(#563),#571);
#579=PRODUCT_DEFINITION('design','',#578,#575);
#580=PRODUCT_DEFINITION_SHAPE('','SHAPE FOR GTA02-MPB02_PRT.',#579);
#581=SHAPE_DEFINITION_REPRESENTATION(#580,#572);
ENDSEC;
END-ISO-10303-21;
