ISO-10303-21;
HEADER;
FILE_DESCRIPTION((''),'2;1');
FILE_NAME('HOUSING__W___ANY_PRT','2008-06-30T',('GRA'),(''),
'PRO/ENGINEER BY PARAMETRIC TECHNOLOGY CORPORATION, 2006170',
'PRO/ENGINEER BY PARAMETRIC TECHNOLOGY CORPORATION, 2006170','');
FILE_SCHEMA(('CONFIG_CONTROL_DESIGN'));
ENDSEC;
DATA;
#2=DIRECTION('',(0.E0,0.E0,1.E0));
#3=VECTOR('',#2,3.E-1);
#4=CARTESIAN_POINT('',(1.734972378866E1,4.847667519740E0,2.E0));
#5=LINE('',#4,#3);
#6=DIRECTION('',(0.E0,0.E0,1.E0));
#7=VECTOR('',#6,3.E-1);
#8=CARTESIAN_POINT('',(1.783304562760E1,4.847667519740E0,2.E0));
#9=LINE('',#8,#7);
#10=DIRECTION('',(0.E0,0.E0,1.E0));
#11=VECTOR('',#10,2.2E0);
#12=CARTESIAN_POINT('',(1.684138470813E1,5.557667519740E0,1.E-1));
#13=LINE('',#12,#11);
#14=DIRECTION('',(1.E0,0.E0,0.E0));
#15=VECTOR('',#14,4.833218389435E-1);
#16=CARTESIAN_POINT('',(2.134972378866E1,6.267667519740E0,2.3E0));
#17=LINE('',#16,#15);
#18=CARTESIAN_POINT('',(2.159138470813E1,5.557667519740E0,2.3E0));
#19=DIRECTION('',(0.E0,0.E0,-1.E0));
#20=DIRECTION('',(-1.E0,0.E0,0.E0));
#21=AXIS2_PLACEMENT_3D('',#18,#19,#20);
#23=CARTESIAN_POINT('',(2.159138470813E1,5.557667519740E0,2.3E0));
#24=DIRECTION('',(0.E0,0.E0,-1.E0));
#25=DIRECTION('',(-3.222145592957E-1,-9.466666666667E-1,0.E0));
#26=AXIS2_PLACEMENT_3D('',#23,#24,#25);
#28=DIRECTION('',(-1.E0,0.E0,0.E0));
#29=VECTOR('',#28,4.833218389435E-1);
#30=CARTESIAN_POINT('',(2.183304562760E1,4.847667519740E0,2.3E0));
#31=LINE('',#30,#29);
#32=CARTESIAN_POINT('',(2.159138470813E1,5.557667519740E0,2.3E0));
#33=DIRECTION('',(0.E0,0.E0,-1.E0));
#34=DIRECTION('',(1.E0,0.E0,0.E0));
#35=AXIS2_PLACEMENT_3D('',#32,#33,#34);
#37=CARTESIAN_POINT('',(2.159138470813E1,5.557667519740E0,2.3E0));
#38=DIRECTION('',(0.E0,0.E0,-1.E0));
#39=DIRECTION('',(3.222145592957E-1,9.466666666667E-1,0.E0));
#40=AXIS2_PLACEMENT_3D('',#37,#38,#39);
#42=DIRECTION('',(-1.E0,0.E0,0.E0));
#43=VECTOR('',#42,4.833218389435E-1);
#44=CARTESIAN_POINT('',(1.783304562760E1,4.847667519740E0,2.3E0));
#45=LINE('',#44,#43);
#46=CARTESIAN_POINT('',(1.759138470813E1,5.557667519740E0,2.3E0));
#47=DIRECTION('',(0.E0,0.E0,-1.E0));
#48=DIRECTION('',(1.E0,0.E0,0.E0));
#49=AXIS2_PLACEMENT_3D('',#46,#47,#48);
#51=CARTESIAN_POINT('',(1.759138470813E1,5.557667519740E0,2.3E0));
#52=DIRECTION('',(0.E0,0.E0,-1.E0));
#53=DIRECTION('',(3.222145592957E-1,9.466666666667E-1,0.E0));
#54=AXIS2_PLACEMENT_3D('',#51,#52,#53);
#56=DIRECTION('',(1.E0,0.E0,0.E0));
#57=VECTOR('',#56,4.833218389435E-1);
#58=CARTESIAN_POINT('',(1.734972378866E1,6.267667519740E0,2.3E0));
#59=LINE('',#58,#57);
#60=CARTESIAN_POINT('',(1.759138470813E1,5.557667519740E0,2.3E0));
#61=DIRECTION('',(0.E0,0.E0,-1.E0));
#62=DIRECTION('',(-1.E0,0.E0,0.E0));
#63=AXIS2_PLACEMENT_3D('',#60,#61,#62);
#65=CARTESIAN_POINT('',(1.759138470813E1,5.557667519740E0,2.3E0));
#66=DIRECTION('',(0.E0,0.E0,-1.E0));
#67=DIRECTION('',(-3.222145592957E-1,-9.466666666667E-1,0.E0));
#68=AXIS2_PLACEMENT_3D('',#65,#66,#67);
#70=CARTESIAN_POINT('',(2.169138470813E1,5.557667519740E0,2.3E0));
#71=DIRECTION('',(0.E0,0.E0,-1.E0));
#72=DIRECTION('',(0.E0,1.E0,0.E0));
#73=AXIS2_PLACEMENT_3D('',#70,#71,#72);
#75=DIRECTION('',(0.E0,0.E0,1.E0));
#76=VECTOR('',#75,2.3E0);
#77=CARTESIAN_POINT('',(2.169138470813E1,6.707667519740E0,0.E0));
#78=LINE('',#77,#76);
#79=CARTESIAN_POINT('',(2.169138470813E1,5.557667519740E0,0.E0));
#80=DIRECTION('',(0.E0,0.E0,-1.E0));
#81=DIRECTION('',(0.E0,1.E0,0.E0));
#82=AXIS2_PLACEMENT_3D('',#79,#80,#81);
#84=DIRECTION('',(1.E0,0.E0,0.E0));
#85=VECTOR('',#84,4.2E0);
#86=CARTESIAN_POINT('',(1.749138470813E1,6.707667519740E0,0.E0));
#87=LINE('',#86,#85);
#88=CARTESIAN_POINT('',(1.749138470813E1,5.557667519740E0,0.E0));
#89=DIRECTION('',(0.E0,0.E0,-1.E0));
#90=DIRECTION('',(-1.E0,0.E0,0.E0));
#91=AXIS2_PLACEMENT_3D('',#88,#89,#90);
#93=CARTESIAN_POINT('',(1.749138470813E1,5.557667519740E0,0.E0));
#94=DIRECTION('',(0.E0,0.E0,-1.E0));
#95=DIRECTION('',(0.E0,-1.E0,0.E0));
#96=AXIS2_PLACEMENT_3D('',#93,#94,#95);
#98=DIRECTION('',(-1.E0,0.E0,0.E0));
#99=VECTOR('',#98,4.2E0);
#100=CARTESIAN_POINT('',(2.169138470813E1,4.407667519740E0,0.E0));
#101=LINE('',#100,#99);
#102=DIRECTION('',(1.E0,0.E0,0.E0));
#103=VECTOR('',#102,4.2E0);
#104=CARTESIAN_POINT('',(1.749138470813E1,6.707667519740E0,2.3E0));
#105=LINE('',#104,#103);
#106=DIRECTION('',(0.E0,0.E0,1.E0));
#107=VECTOR('',#106,2.3E0);
#108=CARTESIAN_POINT('',(1.749138470813E1,6.707667519740E0,0.E0));
#109=LINE('',#108,#107);
#110=DIRECTION('',(0.E0,0.E0,1.E0));
#111=VECTOR('',#110,2.3E0);
#112=CARTESIAN_POINT('',(1.634138470813E1,5.557667519740E0,0.E0));
#113=LINE('',#112,#111);
#114=CARTESIAN_POINT('',(1.749138470813E1,5.557667519740E0,2.3E0));
#115=DIRECTION('',(0.E0,0.E0,-1.E0));
#116=DIRECTION('',(-1.E0,0.E0,0.E0));
#117=AXIS2_PLACEMENT_3D('',#114,#115,#116);
#119=CARTESIAN_POINT('',(1.749138470813E1,5.557667519740E0,2.3E0));
#120=DIRECTION('',(0.E0,0.E0,-1.E0));
#121=DIRECTION('',(0.E0,-1.E0,0.E0));
#122=AXIS2_PLACEMENT_3D('',#119,#120,#121);
#124=DIRECTION('',(0.E0,0.E0,1.E0));
#125=VECTOR('',#124,2.3E0);
#126=CARTESIAN_POINT('',(1.749138470813E1,4.407667519740E0,0.E0));
#127=LINE('',#126,#125);
#128=DIRECTION('',(-1.E0,0.E0,0.E0));
#129=VECTOR('',#128,4.2E0);
#130=CARTESIAN_POINT('',(2.169138470813E1,4.407667519740E0,2.3E0));
#131=LINE('',#130,#129);
#132=DIRECTION('',(0.E0,0.E0,1.E0));
#133=VECTOR('',#132,2.3E0);
#134=CARTESIAN_POINT('',(2.169138470813E1,4.407667519740E0,0.E0));
#135=LINE('',#134,#133);
#136=CARTESIAN_POINT('',(1.759138470813E1,5.557667519740E0,1.E-1));
#137=DIRECTION('',(0.E0,0.E0,1.E0));
#138=DIRECTION('',(-1.E0,0.E0,0.E0));
#139=AXIS2_PLACEMENT_3D('',#136,#137,#138);
#141=DIRECTION('',(7.071067811866E-1,0.E0,7.071067811865E-1));
#142=VECTOR('',#141,1.414213562373E-1);
#143=CARTESIAN_POINT('',(1.674138470813E1,5.557667519740E0,0.E0));
#144=LINE('',#143,#142);
#145=CARTESIAN_POINT('',(1.759138470813E1,5.557667519740E0,0.E0));
#146=DIRECTION('',(0.E0,0.E0,-1.E0));
#147=DIRECTION('',(1.E0,0.E0,0.E0));
#148=AXIS2_PLACEMENT_3D('',#145,#146,#147);
#150=DIRECTION('',(-7.071067811865E-1,0.E0,7.071067811866E-1));
#151=VECTOR('',#150,1.414213562373E-1);
#152=CARTESIAN_POINT('',(1.844138470813E1,5.557667519740E0,0.E0));
#153=LINE('',#152,#151);
#154=CARTESIAN_POINT('',(1.759138470813E1,5.557667519740E0,0.E0));
#155=DIRECTION('',(0.E0,0.E0,-1.E0));
#156=DIRECTION('',(-1.E0,0.E0,0.E0));
#157=AXIS2_PLACEMENT_3D('',#154,#155,#156);
#159=CARTESIAN_POINT('',(1.759138470813E1,5.557667519740E0,1.E-1));
#160=DIRECTION('',(0.E0,0.E0,1.E0));
#161=DIRECTION('',(1.E0,0.E0,0.E0));
#162=AXIS2_PLACEMENT_3D('',#159,#160,#161);
#164=DIRECTION('',(0.E0,0.E0,1.E0));
#165=VECTOR('',#164,2.2E0);
#166=CARTESIAN_POINT('',(1.834138470813E1,5.557667519740E0,1.E-1));
#167=LINE('',#166,#165);
#168=DIRECTION('',(0.E0,0.E0,1.E0));
#169=VECTOR('',#168,3.E-1);
#170=CARTESIAN_POINT('',(1.734972378866E1,6.267667519740E0,2.E0));
#171=LINE('',#170,#169);
#172=DIRECTION('',(0.E0,0.E0,1.E0));
#173=VECTOR('',#172,3.E-1);
#174=CARTESIAN_POINT('',(1.783304562760E1,6.267667519740E0,2.E0));
#175=LINE('',#174,#173);
#176=DIRECTION('',(-1.E0,0.E0,0.E0));
#177=VECTOR('',#176,4.833218389435E-1);
#178=CARTESIAN_POINT('',(1.783304562760E1,6.267667519740E0,2.E0));
#179=LINE('',#178,#177);
#180=CARTESIAN_POINT('',(1.734972378866E1,6.267667519740E0,2.E0));
#181=CARTESIAN_POINT('',(1.739000060857E1,6.281376439928E0,1.931455399061E0));
#182=CARTESIAN_POINT('',(1.747055424839E1,6.301218409542E0,1.832245550991E0));
#183=CARTESIAN_POINT('',(1.759138470813E1,6.310892074839E0,1.783877224505E0));
#184=CARTESIAN_POINT('',(1.771221516787E1,6.301218409542E0,1.832245550991E0));
#185=CARTESIAN_POINT('',(1.779276880769E1,6.281376439928E0,1.931455399061E0));
#186=CARTESIAN_POINT('',(1.783304562760E1,6.267667519740E0,2.E0));
#188=CARTESIAN_POINT('',(2.159138470813E1,5.557667519740E0,1.E-1));
#189=DIRECTION('',(0.E0,0.E0,1.E0));
#190=DIRECTION('',(-1.E0,0.E0,0.E0));
#191=AXIS2_PLACEMENT_3D('',#188,#189,#190);
#193=DIRECTION('',(7.071067811866E-1,0.E0,7.071067811865E-1));
#194=VECTOR('',#193,1.414213562373E-1);
#195=CARTESIAN_POINT('',(2.074138470813E1,5.557667519740E0,0.E0));
#196=LINE('',#195,#194);
#197=CARTESIAN_POINT('',(2.159138470813E1,5.557667519740E0,0.E0));
#198=DIRECTION('',(0.E0,0.E0,-1.E0));
#199=DIRECTION('',(1.E0,0.E0,0.E0));
#200=AXIS2_PLACEMENT_3D('',#197,#198,#199);
#202=DIRECTION('',(0.E0,0.E0,1.E0));
#203=VECTOR('',#202,3.E-1);
#204=CARTESIAN_POINT('',(2.183304562760E1,4.847667519740E0,2.E0));
#205=LINE('',#204,#203);
#206=DIRECTION('',(0.E0,0.E0,1.E0));
#207=VECTOR('',#206,2.2E0);
#208=CARTESIAN_POINT('',(2.084138470813E1,5.557667519740E0,1.E-1));
#209=LINE('',#208,#207);
#210=DIRECTION('',(0.E0,0.E0,1.E0));
#211=VECTOR('',#210,3.E-1);
#212=CARTESIAN_POINT('',(2.134972378866E1,4.847667519740E0,2.E0));
#213=LINE('',#212,#211);
#214=DIRECTION('',(1.E0,0.E0,0.E0));
#215=VECTOR('',#214,4.833218389435E-1);
#216=CARTESIAN_POINT('',(2.134972378866E1,4.847667519740E0,2.E0));
#217=LINE('',#216,#215);
#218=CARTESIAN_POINT('',(2.183304562760E1,4.847667519740E0,2.E0));
#219=CARTESIAN_POINT('',(2.179276880769E1,4.833958599552E0,1.931455399061E0));
#220=CARTESIAN_POINT('',(2.171221516787E1,4.814116629938E0,1.832245550991E0));
#221=CARTESIAN_POINT('',(2.159138470813E1,4.804442964641E0,1.783877224505E0));
#222=CARTESIAN_POINT('',(2.147055424839E1,4.814116629938E0,1.832245550991E0));
#223=CARTESIAN_POINT('',(2.139000060857E1,4.833958599552E0,1.931455399061E0));
#224=CARTESIAN_POINT('',(2.134972378866E1,4.847667519740E0,2.E0));
#226=DIRECTION('',(0.E0,0.E0,1.E0));
#227=VECTOR('',#226,2.2E0);
#228=CARTESIAN_POINT('',(2.234138470813E1,5.557667519740E0,1.E-1));
#229=LINE('',#228,#227);
#230=DIRECTION('',(0.E0,0.E0,1.E0));
#231=VECTOR('',#230,3.E-1);
#232=CARTESIAN_POINT('',(2.134972378866E1,6.267667519740E0,2.E0));
#233=LINE('',#232,#231);
#234=DIRECTION('',(-7.071067811866E-1,0.E0,7.071067811865E-1));
#235=VECTOR('',#234,1.414213562373E-1);
#236=CARTESIAN_POINT('',(2.244138470813E1,5.557667519740E0,0.E0));
#237=LINE('',#236,#235);
#238=CARTESIAN_POINT('',(2.159138470813E1,5.557667519740E0,0.E0));
#239=DIRECTION('',(0.E0,0.E0,-1.E0));
#240=DIRECTION('',(-1.E0,0.E0,0.E0));
#241=AXIS2_PLACEMENT_3D('',#238,#239,#240);
#243=CARTESIAN_POINT('',(2.159138470813E1,5.557667519740E0,1.E-1));
#244=DIRECTION('',(0.E0,0.E0,1.E0));
#245=DIRECTION('',(1.E0,0.E0,0.E0));
#246=AXIS2_PLACEMENT_3D('',#243,#244,#245);
#248=DIRECTION('',(0.E0,0.E0,1.E0));
#249=VECTOR('',#248,3.E-1);
#250=CARTESIAN_POINT('',(2.183304562760E1,6.267667519740E0,2.E0));
#251=LINE('',#250,#249);
#252=DIRECTION('',(-1.E0,0.E0,0.E0));
#253=VECTOR('',#252,4.833218389435E-1);
#254=CARTESIAN_POINT('',(2.183304562760E1,6.267667519740E0,2.E0));
#255=LINE('',#254,#253);
#256=CARTESIAN_POINT('',(2.134972378866E1,6.267667519740E0,2.E0));
#257=CARTESIAN_POINT('',(2.139000060857E1,6.281376439928E0,1.931455399061E0));
#258=CARTESIAN_POINT('',(2.147055424839E1,6.301218409542E0,1.832245550991E0));
#259=CARTESIAN_POINT('',(2.159138470813E1,6.310892074839E0,1.783877224505E0));
#260=CARTESIAN_POINT('',(2.171221516787E1,6.301218409542E0,1.832245550991E0));
#261=CARTESIAN_POINT('',(2.179276880769E1,6.281376439928E0,1.931455399061E0));
#262=CARTESIAN_POINT('',(2.183304562760E1,6.267667519740E0,2.E0));
#264=DIRECTION('',(1.E0,0.E0,0.E0));
#265=VECTOR('',#264,4.833218389435E-1);
#266=CARTESIAN_POINT('',(1.734972378866E1,4.847667519740E0,2.E0));
#267=LINE('',#266,#265);
#268=CARTESIAN_POINT('',(1.783304562760E1,4.847667519740E0,2.E0));
#269=CARTESIAN_POINT('',(1.779276880769E1,4.833958599552E0,1.931455399061E0));
#270=CARTESIAN_POINT('',(1.771221516787E1,4.814116629938E0,1.832245550991E0));
#271=CARTESIAN_POINT('',(1.759138470813E1,4.804442964641E0,1.783877224505E0));
#272=CARTESIAN_POINT('',(1.747055424839E1,4.814116629938E0,1.832245550991E0));
#273=CARTESIAN_POINT('',(1.739000060857E1,4.833958599552E0,1.931455399061E0));
#274=CARTESIAN_POINT('',(1.734972378866E1,4.847667519740E0,2.E0));
#276=CARTESIAN_POINT('',(1.734972378866E1,4.847667519740E0,2.E0));
#277=CARTESIAN_POINT('',(1.783304562760E1,4.847667519740E0,2.E0));
#278=VERTEX_POINT('',#276);
#279=VERTEX_POINT('',#277);
#280=CARTESIAN_POINT('',(2.183304562760E1,6.267667519740E0,2.3E0));
#281=CARTESIAN_POINT('',(2.234138470813E1,5.557667519740E0,2.3E0));
#282=VERTEX_POINT('',#280);
#283=VERTEX_POINT('',#281);
#284=CARTESIAN_POINT('',(1.783304562760E1,4.847667519740E0,2.3E0));
#285=CARTESIAN_POINT('',(1.734972378866E1,4.847667519740E0,2.3E0));
#286=VERTEX_POINT('',#284);
#287=VERTEX_POINT('',#285);
#288=CARTESIAN_POINT('',(1.783304562760E1,6.267667519740E0,2.E0));
#289=CARTESIAN_POINT('',(1.783304562760E1,6.267667519740E0,2.3E0));
#290=VERTEX_POINT('',#288);
#291=VERTEX_POINT('',#289);
#292=CARTESIAN_POINT('',(1.734972378866E1,6.267667519740E0,2.3E0));
#293=VERTEX_POINT('',#292);
#294=CARTESIAN_POINT('',(1.734972378866E1,6.267667519740E0,2.E0));
#295=VERTEX_POINT('',#294);
#296=CARTESIAN_POINT('',(1.634138470813E1,5.557667519740E0,2.3E0));
#297=CARTESIAN_POINT('',(1.749138470813E1,6.707667519740E0,2.3E0));
#298=VERTEX_POINT('',#296);
#299=VERTEX_POINT('',#297);
#300=CARTESIAN_POINT('',(2.169138470813E1,6.707667519740E0,2.3E0));
#301=VERTEX_POINT('',#300);
#302=CARTESIAN_POINT('',(2.169138470813E1,4.407667519740E0,2.3E0));
#303=VERTEX_POINT('',#302);
#304=CARTESIAN_POINT('',(2.084138470813E1,5.557667519740E0,2.3E0));
#305=CARTESIAN_POINT('',(2.134972378866E1,6.267667519740E0,2.3E0));
#306=VERTEX_POINT('',#304);
#307=VERTEX_POINT('',#305);
#308=CARTESIAN_POINT('',(1.834138470813E1,5.557667519740E0,2.3E0));
#309=VERTEX_POINT('',#308);
#310=CARTESIAN_POINT('',(1.684138470813E1,5.557667519740E0,2.3E0));
#311=VERTEX_POINT('',#310);
#312=CARTESIAN_POINT('',(2.244138470813E1,5.557667519740E0,0.E0));
#313=CARTESIAN_POINT('',(2.074138470813E1,5.557667519740E0,0.E0));
#314=VERTEX_POINT('',#312);
#315=VERTEX_POINT('',#313);
#316=CARTESIAN_POINT('',(2.234138470813E1,5.557667519740E0,1.E-1));
#317=VERTEX_POINT('',#316);
#318=CARTESIAN_POINT('',(2.084138470813E1,5.557667519740E0,1.E-1));
#319=VERTEX_POINT('',#318);
#320=CARTESIAN_POINT('',(1.834138470813E1,5.557667519740E0,1.E-1));
#321=VERTEX_POINT('',#320);
#322=CARTESIAN_POINT('',(1.684138470813E1,5.557667519740E0,1.E-1));
#323=VERTEX_POINT('',#322);
#324=CARTESIAN_POINT('',(1.749138470813E1,4.407667519740E0,2.3E0));
#325=VERTEX_POINT('',#324);
#326=CARTESIAN_POINT('',(2.183304562760E1,4.847667519740E0,2.3E0));
#327=VERTEX_POINT('',#326);
#328=CARTESIAN_POINT('',(1.844138470813E1,5.557667519740E0,0.E0));
#329=VERTEX_POINT('',#328);
#330=CARTESIAN_POINT('',(1.674138470813E1,5.557667519740E0,0.E0));
#331=VERTEX_POINT('',#330);
#332=CARTESIAN_POINT('',(2.183304562760E1,6.267667519740E0,2.E0));
#333=VERTEX_POINT('',#332);
#334=CARTESIAN_POINT('',(2.134972378866E1,4.847667519740E0,2.E0));
#335=CARTESIAN_POINT('',(2.183304562760E1,4.847667519740E0,2.E0));
#336=VERTEX_POINT('',#334);
#337=VERTEX_POINT('',#335);
#338=CARTESIAN_POINT('',(2.134972378866E1,4.847667519740E0,2.3E0));
#339=VERTEX_POINT('',#338);
#340=CARTESIAN_POINT('',(1.634138470813E1,5.557667519740E0,0.E0));
#341=VERTEX_POINT('',#340);
#342=CARTESIAN_POINT('',(1.749138470813E1,4.407667519740E0,0.E0));
#343=VERTEX_POINT('',#342);
#344=CARTESIAN_POINT('',(2.134972378866E1,6.267667519740E0,2.E0));
#345=VERTEX_POINT('',#344);
#346=CARTESIAN_POINT('',(1.749138470813E1,6.707667519740E0,0.E0));
#347=VERTEX_POINT('',#346);
#348=CARTESIAN_POINT('',(2.169138470813E1,4.407667519740E0,0.E0));
#349=VERTEX_POINT('',#348);
#350=CARTESIAN_POINT('',(2.169138470813E1,6.707667519740E0,0.E0));
#351=VERTEX_POINT('',#350);
#352=CARTESIAN_POINT('',(1.783304562760E1,4.847667519740E0,2.3E0));
#353=DIRECTION('',(0.E0,1.E0,0.E0));
#354=DIRECTION('',(0.E0,0.E0,1.E0));
#355=AXIS2_PLACEMENT_3D('',#352,#353,#354);
#356=PLANE('',#355);
#358=ORIENTED_EDGE('',*,*,#357,.T.);
#360=ORIENTED_EDGE('',*,*,#359,.T.);
#362=ORIENTED_EDGE('',*,*,#361,.F.);
#364=ORIENTED_EDGE('',*,*,#363,.T.);
#365=EDGE_LOOP('',(#358,#360,#362,#364));
#366=FACE_OUTER_BOUND('',#365,.F.);
#367=ADVANCED_FACE('',(#366),#356,.T.);
#368=CARTESIAN_POINT('',(1.759138470813E1,5.557667519740E0,2.3E0));
#369=DIRECTION('',(0.E0,0.E0,-1.E0));
#370=DIRECTION('',(-1.E0,0.E0,0.E0));
#371=AXIS2_PLACEMENT_3D('',#368,#369,#370);
#372=CYLINDRICAL_SURFACE('',#371,7.5E-1);
#374=ORIENTED_EDGE('',*,*,#373,.T.);
#375=ORIENTED_EDGE('',*,*,#357,.F.);
#377=ORIENTED_EDGE('',*,*,#376,.T.);
#378=ORIENTED_EDGE('',*,*,#361,.T.);
#380=ORIENTED_EDGE('',*,*,#379,.T.);
#382=ORIENTED_EDGE('',*,*,#381,.F.);
#384=ORIENTED_EDGE('',*,*,#383,.T.);
#386=ORIENTED_EDGE('',*,*,#385,.T.);
#387=EDGE_LOOP('',(#374,#375,#377,#378,#380,#382,#384,#386));
#388=FACE_OUTER_BOUND('',#387,.F.);
#389=ADVANCED_FACE('',(#388),#372,.F.);
#390=CARTESIAN_POINT('',(2.169138470813E1,5.557667519740E0,2.3E0));
#391=DIRECTION('',(0.E0,0.E0,1.E0));
#392=DIRECTION('',(1.E0,0.E0,0.E0));
#393=AXIS2_PLACEMENT_3D('',#390,#391,#392);
#394=PLANE('',#393);
#396=ORIENTED_EDGE('',*,*,#395,.T.);
#398=ORIENTED_EDGE('',*,*,#397,.T.);
#400=ORIENTED_EDGE('',*,*,#399,.T.);
#402=ORIENTED_EDGE('',*,*,#401,.T.);
#404=ORIENTED_EDGE('',*,*,#403,.T.);
#405=EDGE_LOOP('',(#396,#398,#400,#402,#404));
#406=FACE_OUTER_BOUND('',#405,.F.);
#408=ORIENTED_EDGE('',*,*,#407,.F.);
#410=ORIENTED_EDGE('',*,*,#409,.F.);
#412=ORIENTED_EDGE('',*,*,#411,.F.);
#414=ORIENTED_EDGE('',*,*,#413,.F.);
#416=ORIENTED_EDGE('',*,*,#415,.F.);
#418=ORIENTED_EDGE('',*,*,#417,.F.);
#419=EDGE_LOOP('',(#408,#410,#412,#414,#416,#418));
#420=FACE_BOUND('',#419,.F.);
#421=ORIENTED_EDGE('',*,*,#359,.F.);
#422=ORIENTED_EDGE('',*,*,#373,.F.);
#424=ORIENTED_EDGE('',*,*,#423,.F.);
#426=ORIENTED_EDGE('',*,*,#425,.F.);
#428=ORIENTED_EDGE('',*,*,#427,.F.);
#429=ORIENTED_EDGE('',*,*,#379,.F.);
#430=EDGE_LOOP('',(#421,#422,#424,#426,#428,#429));
#431=FACE_BOUND('',#430,.F.);
#432=ADVANCED_FACE('',(#406,#420,#431),#394,.T.);
#433=CARTESIAN_POINT('',(2.169138470813E1,5.557667519740E0,2.3E0));
#434=DIRECTION('',(0.E0,0.E0,-1.E0));
#435=DIRECTION('',(-1.E0,0.E0,0.E0));
#436=AXIS2_PLACEMENT_3D('',#433,#434,#435);
#437=CYLINDRICAL_SURFACE('',#436,1.15E0);
#439=ORIENTED_EDGE('',*,*,#438,.T.);
#441=ORIENTED_EDGE('',*,*,#440,.T.);
#442=ORIENTED_EDGE('',*,*,#395,.F.);
#444=ORIENTED_EDGE('',*,*,#443,.F.);
#445=EDGE_LOOP('',(#439,#441,#442,#444));
#446=FACE_OUTER_BOUND('',#445,.F.);
#447=ADVANCED_FACE('',(#446),#437,.T.);
#448=CARTESIAN_POINT('',(2.169138470813E1,5.557667519740E0,0.E0));
#449=DIRECTION('',(0.E0,0.E0,1.E0));
#450=DIRECTION('',(1.E0,0.E0,0.E0));
#451=AXIS2_PLACEMENT_3D('',#448,#449,#450);
#452=PLANE('',#451);
#453=ORIENTED_EDGE('',*,*,#438,.F.);
#455=ORIENTED_EDGE('',*,*,#454,.F.);
#457=ORIENTED_EDGE('',*,*,#456,.F.);
#459=ORIENTED_EDGE('',*,*,#458,.F.);
#461=ORIENTED_EDGE('',*,*,#460,.F.);
#462=EDGE_LOOP('',(#453,#455,#457,#459,#461));
#463=FACE_OUTER_BOUND('',#462,.F.);
#465=ORIENTED_EDGE('',*,*,#464,.T.);
#467=ORIENTED_EDGE('',*,*,#466,.T.);
#468=EDGE_LOOP('',(#465,#467));
#469=FACE_BOUND('',#468,.F.);
#471=ORIENTED_EDGE('',*,*,#470,.T.);
#473=ORIENTED_EDGE('',*,*,#472,.T.);
#474=EDGE_LOOP('',(#471,#473));
#475=FACE_BOUND('',#474,.F.);
#476=ADVANCED_FACE('',(#463,#469,#475),#452,.F.);
#477=CARTESIAN_POINT('',(1.749138470813E1,6.707667519740E0,2.3E0));
#478=DIRECTION('',(0.E0,-1.E0,0.E0));
#479=DIRECTION('',(0.E0,0.E0,-1.E0));
#480=AXIS2_PLACEMENT_3D('',#477,#478,#479);
#481=PLANE('',#480);
#482=ORIENTED_EDGE('',*,*,#454,.T.);
#483=ORIENTED_EDGE('',*,*,#443,.T.);
#484=ORIENTED_EDGE('',*,*,#403,.F.);
#486=ORIENTED_EDGE('',*,*,#485,.F.);
#487=EDGE_LOOP('',(#482,#483,#484,#486));
#488=FACE_OUTER_BOUND('',#487,.F.);
#489=ADVANCED_FACE('',(#488),#481,.F.);
#490=CARTESIAN_POINT('',(1.749138470813E1,5.557667519740E0,2.3E0));
#491=DIRECTION('',(0.E0,0.E0,-1.E0));
#492=DIRECTION('',(-1.E0,0.E0,0.E0));
#493=AXIS2_PLACEMENT_3D('',#490,#491,#492);
#494=CYLINDRICAL_SURFACE('',#493,1.15E0);
#496=ORIENTED_EDGE('',*,*,#495,.F.);
#497=ORIENTED_EDGE('',*,*,#456,.T.);
#498=ORIENTED_EDGE('',*,*,#485,.T.);
#499=ORIENTED_EDGE('',*,*,#401,.F.);
#500=EDGE_LOOP('',(#496,#497,#498,#499));
#501=FACE_OUTER_BOUND('',#500,.F.);
#502=ADVANCED_FACE('',(#501),#494,.T.);
#503=CARTESIAN_POINT('',(1.749138470813E1,5.557667519740E0,2.3E0));
#504=DIRECTION('',(0.E0,0.E0,-1.E0));
#505=DIRECTION('',(-1.E0,0.E0,0.E0));
#506=AXIS2_PLACEMENT_3D('',#503,#504,#505);
#507=CYLINDRICAL_SURFACE('',#506,1.15E0);
#508=ORIENTED_EDGE('',*,*,#399,.F.);
#510=ORIENTED_EDGE('',*,*,#509,.F.);
#511=ORIENTED_EDGE('',*,*,#458,.T.);
#512=ORIENTED_EDGE('',*,*,#495,.T.);
#513=EDGE_LOOP('',(#508,#510,#511,#512));
#514=FACE_OUTER_BOUND('',#513,.F.);
#515=ADVANCED_FACE('',(#514),#507,.T.);
#516=CARTESIAN_POINT('',(1.749138470813E1,4.407667519740E0,2.3E0));
#517=DIRECTION('',(0.E0,1.E0,0.E0));
#518=DIRECTION('',(0.E0,0.E0,1.E0));
#519=AXIS2_PLACEMENT_3D('',#516,#517,#518);
#520=PLANE('',#519);
#521=ORIENTED_EDGE('',*,*,#460,.T.);
#522=ORIENTED_EDGE('',*,*,#509,.T.);
#523=ORIENTED_EDGE('',*,*,#397,.F.);
#524=ORIENTED_EDGE('',*,*,#440,.F.);
#525=EDGE_LOOP('',(#521,#522,#523,#524));
#526=FACE_OUTER_BOUND('',#525,.F.);
#527=ADVANCED_FACE('',(#526),#520,.F.);
#528=CARTESIAN_POINT('',(1.759138470813E1,5.557667519740E0,5.E-2));
#529=DIRECTION('',(0.E0,0.E0,-1.E0));
#530=DIRECTION('',(-1.E0,0.E0,0.E0));
#531=AXIS2_PLACEMENT_3D('',#528,#529,#530);
#532=CONICAL_SURFACE('',#531,8.E-1,4.5E1);
#533=ORIENTED_EDGE('',*,*,#383,.F.);
#535=ORIENTED_EDGE('',*,*,#534,.F.);
#536=ORIENTED_EDGE('',*,*,#464,.F.);
#538=ORIENTED_EDGE('',*,*,#537,.T.);
#539=EDGE_LOOP('',(#533,#535,#536,#538));
#540=FACE_OUTER_BOUND('',#539,.F.);
#541=ADVANCED_FACE('',(#540),#532,.F.);
#542=CARTESIAN_POINT('',(1.759138470813E1,5.557667519740E0,5.E-2));
#543=DIRECTION('',(0.E0,0.E0,-1.E0));
#544=DIRECTION('',(-1.E0,0.E0,0.E0));
#545=AXIS2_PLACEMENT_3D('',#542,#543,#544);
#546=CONICAL_SURFACE('',#545,8.E-1,4.5E1);
#547=ORIENTED_EDGE('',*,*,#537,.F.);
#548=ORIENTED_EDGE('',*,*,#466,.F.);
#549=ORIENTED_EDGE('',*,*,#534,.T.);
#551=ORIENTED_EDGE('',*,*,#550,.F.);
#552=EDGE_LOOP('',(#547,#548,#549,#551));
#553=FACE_OUTER_BOUND('',#552,.F.);
#554=ADVANCED_FACE('',(#553),#546,.F.);
#555=CARTESIAN_POINT('',(1.759138470813E1,5.557667519740E0,2.3E0));
#556=DIRECTION('',(0.E0,0.E0,-1.E0));
#557=DIRECTION('',(-1.E0,0.E0,0.E0));
#558=AXIS2_PLACEMENT_3D('',#555,#556,#557);
#559=CYLINDRICAL_SURFACE('',#558,7.5E-1);
#560=ORIENTED_EDGE('',*,*,#385,.F.);
#561=ORIENTED_EDGE('',*,*,#550,.T.);
#562=ORIENTED_EDGE('',*,*,#381,.T.);
#563=ORIENTED_EDGE('',*,*,#427,.T.);
#565=ORIENTED_EDGE('',*,*,#564,.F.);
#567=ORIENTED_EDGE('',*,*,#566,.T.);
#569=ORIENTED_EDGE('',*,*,#568,.T.);
#570=ORIENTED_EDGE('',*,*,#423,.T.);
#571=EDGE_LOOP('',(#560,#561,#562,#563,#565,#567,#569,#570));
#572=FACE_OUTER_BOUND('',#571,.F.);
#573=ADVANCED_FACE('',(#572),#559,.F.);
#574=CARTESIAN_POINT('',(1.783304562760E1,6.267667519740E0,2.3E0));
#575=DIRECTION('',(0.E0,-1.E0,0.E0));
#576=DIRECTION('',(0.E0,0.E0,-1.E0));
#577=AXIS2_PLACEMENT_3D('',#574,#575,#576);
#578=PLANE('',#577);
#579=ORIENTED_EDGE('',*,*,#564,.T.);
#580=ORIENTED_EDGE('',*,*,#425,.T.);
#581=ORIENTED_EDGE('',*,*,#568,.F.);
#583=ORIENTED_EDGE('',*,*,#582,.T.);
#584=EDGE_LOOP('',(#579,#580,#581,#583));
#585=FACE_OUTER_BOUND('',#584,.F.);
#586=ADVANCED_FACE('',(#585),#578,.T.);
#587=CARTESIAN_POINT('',(1.783304562760E1,6.267667519740E0,2.E0));
#588=DIRECTION('',(0.E0,9.805806756909E-1,1.961161351382E-1));
#589=DIRECTION('',(0.E0,-1.961161351382E-1,9.805806756909E-1));
#590=AXIS2_PLACEMENT_3D('',#587,#588,#589);
#591=PLANE('',#590);
#592=ORIENTED_EDGE('',*,*,#582,.F.);
#593=ORIENTED_EDGE('',*,*,#566,.F.);
#594=EDGE_LOOP('',(#592,#593));
#595=FACE_OUTER_BOUND('',#594,.F.);
#596=ADVANCED_FACE('',(#595),#591,.F.);
#597=CARTESIAN_POINT('',(2.159138470813E1,5.557667519740E0,5.E-2));
#598=DIRECTION('',(0.E0,0.E0,-1.E0));
#599=DIRECTION('',(-1.E0,0.E0,0.E0));
#600=AXIS2_PLACEMENT_3D('',#597,#598,#599);
#601=CONICAL_SURFACE('',#600,8.E-1,4.5E1);
#603=ORIENTED_EDGE('',*,*,#602,.F.);
#605=ORIENTED_EDGE('',*,*,#604,.F.);
#606=ORIENTED_EDGE('',*,*,#470,.F.);
#608=ORIENTED_EDGE('',*,*,#607,.T.);
#609=EDGE_LOOP('',(#603,#605,#606,#608));
#610=FACE_OUTER_BOUND('',#609,.F.);
#611=ADVANCED_FACE('',(#610),#601,.F.);
#612=CARTESIAN_POINT('',(2.159138470813E1,5.557667519740E0,2.3E0));
#613=DIRECTION('',(0.E0,0.E0,-1.E0));
#614=DIRECTION('',(-1.E0,0.E0,0.E0));
#615=AXIS2_PLACEMENT_3D('',#612,#613,#614);
#616=CYLINDRICAL_SURFACE('',#615,7.5E-1);
#617=ORIENTED_EDGE('',*,*,#415,.T.);
#619=ORIENTED_EDGE('',*,*,#618,.F.);
#621=ORIENTED_EDGE('',*,*,#620,.T.);
#623=ORIENTED_EDGE('',*,*,#622,.T.);
#624=ORIENTED_EDGE('',*,*,#411,.T.);
#626=ORIENTED_EDGE('',*,*,#625,.F.);
#627=ORIENTED_EDGE('',*,*,#602,.T.);
#629=ORIENTED_EDGE('',*,*,#628,.T.);
#630=EDGE_LOOP('',(#617,#619,#621,#623,#624,#626,#627,#629));
#631=FACE_OUTER_BOUND('',#630,.F.);
#632=ADVANCED_FACE('',(#631),#616,.F.);
#633=CARTESIAN_POINT('',(2.134972378866E1,4.847667519740E0,2.3E0));
#634=DIRECTION('',(0.E0,1.E0,0.E0));
#635=DIRECTION('',(0.E0,0.E0,1.E0));
#636=AXIS2_PLACEMENT_3D('',#633,#634,#635);
#637=PLANE('',#636);
#638=ORIENTED_EDGE('',*,*,#618,.T.);
#639=ORIENTED_EDGE('',*,*,#413,.T.);
#640=ORIENTED_EDGE('',*,*,#622,.F.);
#642=ORIENTED_EDGE('',*,*,#641,.T.);
#643=EDGE_LOOP('',(#638,#639,#640,#642));
#644=FACE_OUTER_BOUND('',#643,.F.);
#645=ADVANCED_FACE('',(#644),#637,.T.);
#646=CARTESIAN_POINT('',(2.134972378866E1,4.847667519740E0,2.E0));
#647=DIRECTION('',(0.E0,-9.805806756909E-1,1.961161351382E-1));
#648=DIRECTION('',(0.E0,-1.961161351382E-1,-9.805806756909E-1));
#649=AXIS2_PLACEMENT_3D('',#646,#647,#648);
#650=PLANE('',#649);
#651=ORIENTED_EDGE('',*,*,#641,.F.);
#652=ORIENTED_EDGE('',*,*,#620,.F.);
#653=EDGE_LOOP('',(#651,#652));
#654=FACE_OUTER_BOUND('',#653,.F.);
#655=ADVANCED_FACE('',(#654),#650,.F.);
#656=CARTESIAN_POINT('',(2.159138470813E1,5.557667519740E0,2.3E0));
#657=DIRECTION('',(0.E0,0.E0,-1.E0));
#658=DIRECTION('',(-1.E0,0.E0,0.E0));
#659=AXIS2_PLACEMENT_3D('',#656,#657,#658);
#660=CYLINDRICAL_SURFACE('',#659,7.5E-1);
#661=ORIENTED_EDGE('',*,*,#628,.F.);
#663=ORIENTED_EDGE('',*,*,#662,.T.);
#664=ORIENTED_EDGE('',*,*,#625,.T.);
#665=ORIENTED_EDGE('',*,*,#409,.T.);
#667=ORIENTED_EDGE('',*,*,#666,.F.);
#669=ORIENTED_EDGE('',*,*,#668,.T.);
#671=ORIENTED_EDGE('',*,*,#670,.T.);
#672=ORIENTED_EDGE('',*,*,#417,.T.);
#673=EDGE_LOOP('',(#661,#663,#664,#665,#667,#669,#671,#672));
#674=FACE_OUTER_BOUND('',#673,.F.);
#675=ADVANCED_FACE('',(#674),#660,.F.);
#676=CARTESIAN_POINT('',(2.159138470813E1,5.557667519740E0,5.E-2));
#677=DIRECTION('',(0.E0,0.E0,-1.E0));
#678=DIRECTION('',(-1.E0,0.E0,0.E0));
#679=AXIS2_PLACEMENT_3D('',#676,#677,#678);
#680=CONICAL_SURFACE('',#679,8.E-1,4.5E1);
#681=ORIENTED_EDGE('',*,*,#607,.F.);
#682=ORIENTED_EDGE('',*,*,#472,.F.);
#683=ORIENTED_EDGE('',*,*,#604,.T.);
#684=ORIENTED_EDGE('',*,*,#662,.F.);
#685=EDGE_LOOP('',(#681,#682,#683,#684));
#686=FACE_OUTER_BOUND('',#685,.F.);
#687=ADVANCED_FACE('',(#686),#680,.F.);
#688=CARTESIAN_POINT('',(2.134972378866E1,6.267667519740E0,2.3E0));
#689=DIRECTION('',(0.E0,-1.E0,0.E0));
#690=DIRECTION('',(0.E0,0.E0,-1.E0));
#691=AXIS2_PLACEMENT_3D('',#688,#689,#690);
#692=PLANE('',#691);
#693=ORIENTED_EDGE('',*,*,#666,.T.);
#694=ORIENTED_EDGE('',*,*,#407,.T.);
#695=ORIENTED_EDGE('',*,*,#670,.F.);
#697=ORIENTED_EDGE('',*,*,#696,.T.);
#698=EDGE_LOOP('',(#693,#694,#695,#697));
#699=FACE_OUTER_BOUND('',#698,.F.);
#700=ADVANCED_FACE('',(#699),#692,.T.);
#701=CARTESIAN_POINT('',(2.134972378866E1,6.267667519740E0,2.E0));
#702=DIRECTION('',(0.E0,9.805806756909E-1,1.961161351382E-1));
#703=DIRECTION('',(0.E0,-1.961161351382E-1,9.805806756909E-1));
#704=AXIS2_PLACEMENT_3D('',#701,#702,#703);
#705=PLANE('',#704);
#706=ORIENTED_EDGE('',*,*,#696,.F.);
#707=ORIENTED_EDGE('',*,*,#668,.F.);
#708=EDGE_LOOP('',(#706,#707));
#709=FACE_OUTER_BOUND('',#708,.F.);
#710=ADVANCED_FACE('',(#709),#705,.F.);
#711=CARTESIAN_POINT('',(1.783304562760E1,4.847667519740E0,2.E0));
#712=DIRECTION('',(0.E0,-9.805806756909E-1,1.961161351382E-1));
#713=DIRECTION('',(0.E0,-1.961161351382E-1,-9.805806756909E-1));
#714=AXIS2_PLACEMENT_3D('',#711,#712,#713);
#715=PLANE('',#714);
#716=ORIENTED_EDGE('',*,*,#363,.F.);
#717=ORIENTED_EDGE('',*,*,#376,.F.);
#718=EDGE_LOOP('',(#716,#717));
#719=FACE_OUTER_BOUND('',#718,.F.);
#720=ADVANCED_FACE('',(#719),#715,.F.);
#721=CLOSED_SHELL('',(#367,#389,#432,#447,#476,#489,#502,#515,#527,#541,#554,
#573,#586,#596,#611,#632,#645,#655,#675,#687,#700,#710,#720));
#722=MANIFOLD_SOLID_BREP('',#721);
#723=(LENGTH_UNIT()NAMED_UNIT(*)SI_UNIT(.MILLI.,.METRE.));
#724=DIMENSIONAL_EXPONENTS(0.E0,0.E0,0.E0,0.E0,0.E0,0.E0,0.E0);
#725=(NAMED_UNIT(*)PLANE_ANGLE_UNIT()SI_UNIT($,.RADIAN.));
#726=PLANE_ANGLE_MEASURE_WITH_UNIT(PLANE_ANGLE_MEASURE(1.745329251994E-2),#725);
#727=(CONVERSION_BASED_UNIT('DEGREE',#726)NAMED_UNIT(#724)PLANE_ANGLE_UNIT());
#728=(NAMED_UNIT(*)SI_UNIT($,.STERADIAN.)SOLID_ANGLE_UNIT());
#729=UNCERTAINTY_MEASURE_WITH_UNIT(LENGTH_MEASURE(7.269164509476E-4),#723,
'closure',
'Maximum model space distance between geometric entities at asserted connectivities');
#730=(GEOMETRIC_REPRESENTATION_CONTEXT(3)GLOBAL_UNCERTAINTY_ASSIGNED_CONTEXT((
#729))GLOBAL_UNIT_ASSIGNED_CONTEXT((#723,#727,#728))REPRESENTATION_CONTEXT
('ID1','3'));
#732=APPLICATION_CONTEXT(
'CONFIGURATION CONTROLLED 3D DESIGNS OF MECHANICAL PARTS AND ASSEMBLIES');
#733=APPLICATION_PROTOCOL_DEFINITION('international standard',
'config_control_design',1994,#732);
#734=DESIGN_CONTEXT('',#732,'design');
#735=MECHANICAL_CONTEXT('',#732,'mechanical');
#736=PRODUCT('HOUSING__W___ANY_PRT','HOUSING__W___ANY_PRT','NOT SPECIFIED',
(#735));
#737=PRODUCT_DEFINITION_FORMATION_WITH_SPECIFIED_SOURCE('1','LAST_VERSION',#736,
.MADE.);
#741=PRODUCT_CATEGORY('part','');
#742=PRODUCT_RELATED_PRODUCT_CATEGORY('detail','',(#736));
#743=PRODUCT_CATEGORY_RELATIONSHIP('','',#741,#742);
#744=SECURITY_CLASSIFICATION_LEVEL('unclassified');
#745=SECURITY_CLASSIFICATION('','',#744);
#746=CC_DESIGN_SECURITY_CLASSIFICATION(#745,(#737));
#747=APPROVAL_STATUS('approved');
#748=APPROVAL(#747,'');
#749=CC_DESIGN_APPROVAL(#748,(#745,#737,#738));
#750=CALENDAR_DATE(108,30,6);
#751=COORDINATED_UNIVERSAL_TIME_OFFSET(3,0,.BEHIND.);
#752=LOCAL_TIME(11,3,2.9E1,#751);
#753=DATE_AND_TIME(#750,#752);
#754=APPROVAL_DATE_TIME(#753,#748);
#755=DATE_TIME_ROLE('creation_date');
#756=CC_DESIGN_DATE_AND_TIME_ASSIGNMENT(#753,#755,(#738));
#757=DATE_TIME_ROLE('classification_date');
#758=CC_DESIGN_DATE_AND_TIME_ASSIGNMENT(#753,#757,(#745));
#759=PERSON('UNSPECIFIED','UNSPECIFIED',$,$,$,$);
#760=ORGANIZATION('UNSPECIFIED','UNSPECIFIED','UNSPECIFIED');
#761=PERSON_AND_ORGANIZATION(#759,#760);
#762=APPROVAL_ROLE('approver');
#763=APPROVAL_PERSON_ORGANIZATION(#761,#748,#762);
#764=PERSON_AND_ORGANIZATION_ROLE('creator');
#765=CC_DESIGN_PERSON_AND_ORGANIZATION_ASSIGNMENT(#761,#764,(#737,#738));
#766=PERSON_AND_ORGANIZATION_ROLE('design_supplier');
#767=CC_DESIGN_PERSON_AND_ORGANIZATION_ASSIGNMENT(#761,#766,(#737));
#768=PERSON_AND_ORGANIZATION_ROLE('classification_officer');
#769=CC_DESIGN_PERSON_AND_ORGANIZATION_ASSIGNMENT(#761,#768,(#745));
#770=PERSON_AND_ORGANIZATION_ROLE('design_owner');
#771=CC_DESIGN_PERSON_AND_ORGANIZATION_ASSIGNMENT(#761,#770,(#736));
#22=CIRCLE('',#21,7.5E-1);
#27=CIRCLE('',#26,7.5E-1);
#36=CIRCLE('',#35,7.5E-1);
#41=CIRCLE('',#40,7.5E-1);
#50=CIRCLE('',#49,7.5E-1);
#55=CIRCLE('',#54,7.5E-1);
#64=CIRCLE('',#63,7.5E-1);
#69=CIRCLE('',#68,7.5E-1);
#74=CIRCLE('',#73,1.15E0);
#83=CIRCLE('',#82,1.15E0);
#92=CIRCLE('',#91,1.15E0);
#97=CIRCLE('',#96,1.15E0);
#118=CIRCLE('',#117,1.15E0);
#123=CIRCLE('',#122,1.15E0);
#140=CIRCLE('',#139,7.5E-1);
#149=CIRCLE('',#148,8.5E-1);
#158=CIRCLE('',#157,8.5E-1);
#163=CIRCLE('',#162,7.5E-1);
#187=B_SPLINE_CURVE_WITH_KNOTS('',3,(#180,#181,#182,#183,#184,#185,#186),
.UNSPECIFIED.,.F.,.F.,(4,1,1,1,4),(0.E0,2.5E-1,5.E-1,7.5E-1,1.E0),
.UNSPECIFIED.);
#192=CIRCLE('',#191,7.5E-1);
#201=CIRCLE('',#200,8.5E-1);
#225=B_SPLINE_CURVE_WITH_KNOTS('',3,(#218,#219,#220,#221,#222,#223,#224),
.UNSPECIFIED.,.F.,.F.,(4,1,1,1,4),(0.E0,2.5E-1,5.E-1,7.5E-1,1.E0),
.UNSPECIFIED.);
#242=CIRCLE('',#241,8.5E-1);
#247=CIRCLE('',#246,7.5E-1);
#263=B_SPLINE_CURVE_WITH_KNOTS('',3,(#256,#257,#258,#259,#260,#261,#262),
.UNSPECIFIED.,.F.,.F.,(4,1,1,1,4),(0.E0,2.5E-1,5.E-1,7.5E-1,1.E0),
.UNSPECIFIED.);
#275=B_SPLINE_CURVE_WITH_KNOTS('',3,(#268,#269,#270,#271,#272,#273,#274),
.UNSPECIFIED.,.F.,.F.,(4,1,1,1,4),(0.E0,2.5E-1,5.E-1,7.5E-1,1.E0),
.UNSPECIFIED.);
#357=EDGE_CURVE('',#279,#286,#9,.T.);
#359=EDGE_CURVE('',#286,#287,#45,.T.);
#361=EDGE_CURVE('',#278,#287,#5,.T.);
#363=EDGE_CURVE('',#278,#279,#267,.T.);
#373=EDGE_CURVE('',#309,#286,#50,.T.);
#376=EDGE_CURVE('',#279,#278,#275,.T.);
#379=EDGE_CURVE('',#287,#311,#69,.T.);
#381=EDGE_CURVE('',#323,#311,#13,.T.);
#383=EDGE_CURVE('',#323,#321,#140,.T.);
#385=EDGE_CURVE('',#321,#309,#167,.T.);
#395=EDGE_CURVE('',#301,#303,#74,.T.);
#397=EDGE_CURVE('',#303,#325,#131,.T.);
#399=EDGE_CURVE('',#325,#298,#123,.T.);
#401=EDGE_CURVE('',#298,#299,#118,.T.);
#403=EDGE_CURVE('',#299,#301,#105,.T.);
#407=EDGE_CURVE('',#307,#282,#17,.T.);
#409=EDGE_CURVE('',#306,#307,#22,.T.);
#411=EDGE_CURVE('',#339,#306,#27,.T.);
#413=EDGE_CURVE('',#327,#339,#31,.T.);
#415=EDGE_CURVE('',#283,#327,#36,.T.);
#417=EDGE_CURVE('',#282,#283,#41,.T.);
#423=EDGE_CURVE('',#291,#309,#55,.T.);
#425=EDGE_CURVE('',#293,#291,#59,.T.);
#427=EDGE_CURVE('',#311,#293,#64,.T.);
#438=EDGE_CURVE('',#351,#349,#83,.T.);
#440=EDGE_CURVE('',#349,#303,#135,.T.);
#443=EDGE_CURVE('',#351,#301,#78,.T.);
#454=EDGE_CURVE('',#347,#351,#87,.T.);
#456=EDGE_CURVE('',#341,#347,#92,.T.);
#458=EDGE_CURVE('',#343,#341,#97,.T.);
#460=EDGE_CURVE('',#349,#343,#101,.T.);
#464=EDGE_CURVE('',#329,#331,#149,.T.);
#466=EDGE_CURVE('',#331,#329,#158,.T.);
#470=EDGE_CURVE('',#314,#315,#201,.T.);
#472=EDGE_CURVE('',#315,#314,#242,.T.);
#485=EDGE_CURVE('',#347,#299,#109,.T.);
#495=EDGE_CURVE('',#341,#298,#113,.T.);
#509=EDGE_CURVE('',#343,#325,#127,.T.);
#534=EDGE_CURVE('',#331,#323,#144,.T.);
#537=EDGE_CURVE('',#329,#321,#153,.T.);
#550=EDGE_CURVE('',#321,#323,#163,.T.);
#564=EDGE_CURVE('',#295,#293,#171,.T.);
#566=EDGE_CURVE('',#295,#290,#187,.T.);
#568=EDGE_CURVE('',#290,#291,#175,.T.);
#582=EDGE_CURVE('',#290,#295,#179,.T.);
#602=EDGE_CURVE('',#319,#317,#192,.T.);
#604=EDGE_CURVE('',#315,#319,#196,.T.);
#607=EDGE_CURVE('',#314,#317,#237,.T.);
#618=EDGE_CURVE('',#337,#327,#205,.T.);
#620=EDGE_CURVE('',#337,#336,#225,.T.);
#622=EDGE_CURVE('',#336,#339,#213,.T.);
#625=EDGE_CURVE('',#319,#306,#209,.T.);
#628=EDGE_CURVE('',#317,#283,#229,.T.);
#641=EDGE_CURVE('',#336,#337,#217,.T.);
#662=EDGE_CURVE('',#317,#319,#247,.T.);
#666=EDGE_CURVE('',#345,#307,#233,.T.);
#668=EDGE_CURVE('',#345,#333,#263,.T.);
#670=EDGE_CURVE('',#333,#282,#251,.T.);
#696=EDGE_CURVE('',#333,#345,#255,.T.);
#731=ADVANCED_BREP_SHAPE_REPRESENTATION('',(#722),#730);
#738=PRODUCT_DEFINITION('design','',#737,#734);
#739=PRODUCT_DEFINITION_SHAPE('','SHAPE FOR HOUSING__W___ANY_PRT.',#738);
#740=SHAPE_DEFINITION_REPRESENTATION(#739,#731);
ENDSEC;
END-ISO-10303-21;
