ISO-10303-21;
HEADER;
FILE_DESCRIPTION((''),'2;1');
FILE_NAME('ID-GTC-SD-COV_PRT','2008-06-30T',('GRA'),(''),
'PRO/ENGINEER BY PARAMETRIC TECHNOLOGY CORPORATION, 2006170',
'PRO/ENGINEER BY PARAMETRIC TECHNOLOGY CORPORATION, 2006170','');
FILE_SCHEMA(('CONFIG_CONTROL_DESIGN'));
ENDSEC;
DATA;
#1=DIRECTION('',(0.E0,0.E0,-1.E0));
#2=VECTOR('',#1,3.5E0);
#3=CARTESIAN_POINT('',(-2.793616755609E1,7.6E1,-1.5E-1));
#4=LINE('',#3,#2);
#5=DIRECTION('',(-1.421085471528E-14,-6.052735963261E-9,1.E0));
#6=VECTOR('',#5,3.499999999982E0);
#7=CARTESIAN_POINT('',(-2.901360183895E1,7.599999983780E1,-3.649999999991E0));
#8=LINE('',#7,#6);
#9=DIRECTION('',(-2.114575181622E-10,4.956746124663E-11,1.E0));
#10=VECTOR('',#9,3.5E0);
#11=CARTESIAN_POINT('',(-2.920832519949E1,7.584563786527E1,-3.65E0));
#12=LINE('',#11,#10);
#13=CARTESIAN_POINT('',(-2.901360183895E1,7.58E1,-3.649999999993E0));
#14=DIRECTION('',(0.E0,0.E0,1.E0));
#15=DIRECTION('',(0.E0,1.E0,0.E0));
#16=AXIS2_PLACEMENT_3D('',#13,#14,#15);
#18=CARTESIAN_POINT('',(-2.901360183895E1,7.599999981661E1,-1.500000000099E-1));
#19=CARTESIAN_POINT('',(-2.901360255965E1,7.599999854268E1,-1.029656691557E-1));
#20=CARTESIAN_POINT('',(-2.901484901271E1,7.599335091809E1,-8.813030372252E-3));
#21=CARTESIAN_POINT('',(-2.902042769350E1,7.596354426464E1,1.297992067730E-1));
#22=CARTESIAN_POINT('',(-2.902958847513E1,7.591435168233E1,2.631581942380E-1));
#23=CARTESIAN_POINT('',(-2.904210600022E1,7.584663806986E1,3.884929097365E-1));
#24=CARTESIAN_POINT('',(-2.905767439925E1,7.576160079969E1,5.032809387711E-1));
#25=CARTESIAN_POINT('',(-2.907591156279E1,7.566079318119E1,6.051200557266E-1));
#26=CARTESIAN_POINT('',(-2.909636357517E1,7.554615455249E1,6.917861286059E-1));
#27=CARTESIAN_POINT('',(-2.911851177969E1,7.542002923496E1,7.613124400271E-1));
#28=CARTESIAN_POINT('',(-2.914181341774E1,7.528501216418E1,8.121341762224E-1));
#29=CARTESIAN_POINT('',(-2.916570103709E1,7.514398331875E1,8.430784046965E-1));
#30=CARTESIAN_POINT('',(-2.918164303523E1,7.504800778606E1,8.499988786046E-1));
#31=CARTESIAN_POINT('',(-2.918953736648E1,7.499999999999E1,8.499998676850E-1));
#33=CARTESIAN_POINT('',(-2.920832520023E1,7.584563786544E1,-1.5E-1));
#34=CARTESIAN_POINT('',(-2.920832572970E1,7.584563575767E1,-1.121766480086E-1));
#35=CARTESIAN_POINT('',(-2.920957658393E1,7.584030179379E1,-3.729538535864E-2));
#36=CARTESIAN_POINT('',(-2.921519142883E1,7.581630045606E1,7.379824953903E-2));
#37=CARTESIAN_POINT('',(-2.922441285758E1,7.577668662447E1,1.804595063243E-1));
#38=CARTESIAN_POINT('',(-2.923701544399E1,7.572214781222E1,2.807629424656E-1));
#39=CARTESIAN_POINT('',(-2.925269058147E1,7.565365159905E1,3.726108615225E-1));
#40=CARTESIAN_POINT('',(-2.927105420274E1,7.557244632838E1,4.541013745333E-1));
#41=CARTESIAN_POINT('',(-2.929164727494E1,7.548010237511E1,5.234462892564E-1));
#42=CARTESIAN_POINT('',(-2.931395201418E1,7.537848847718E1,5.790735866211E-1));
#43=CARTESIAN_POINT('',(-2.933740424787E1,7.526977566231E1,6.197284541894E-1));
#44=CARTESIAN_POINT('',(-2.936149574505E1,7.515598679461E1,6.444808142392E-1));
#45=CARTESIAN_POINT('',(-2.937745138240E1,7.507913968832E1,6.499982278143E-1));
#46=CARTESIAN_POINT('',(-2.938544149567E1,7.504026870177E1,6.5E-1));
#48=CARTESIAN_POINT('',(-2.901360200376E1,7.579999936833E1,-1.499999986743E-1));
#49=DIRECTION('',(1.005151237006E-8,1.378821088631E-8,1.E0));
#50=DIRECTION('',(8.240501609896E-7,9.999999999997E-1,-1.378821916997E-8));
#51=AXIS2_PLACEMENT_3D('',#48,#49,#50);
#53=DIRECTION('',(1.E0,1.702081234233E-7,9.220333469896E-12));
#54=VECTOR('',#53,1.077434282866E0);
#55=CARTESIAN_POINT('',(-2.901360183895E1,7.599999981661E1,-1.500000000099E-1));
#56=LINE('',#55,#54);
#57=CARTESIAN_POINT('',(-2.793616755609E1,7.6E1,-1.5E-1));
#58=CARTESIAN_POINT('',(-2.793616755609E1,7.6E1,-1.037024040522E-1));
#59=CARTESIAN_POINT('',(-2.793777841308E1,7.599357602708E1,-1.057112607578E-2));
#60=CARTESIAN_POINT('',(-2.794518389490E1,7.596395684843E1,1.285545000484E-1));
#61=CARTESIAN_POINT('',(-2.795743511427E1,7.591465491961E1,2.623757692113E-1));
#62=CARTESIAN_POINT('',(-2.797384565365E1,7.584802317435E1,3.861946238237E-1));
#63=CARTESIAN_POINT('',(-2.799446887942E1,7.576330054732E1,5.013674529120E-1));
#64=CARTESIAN_POINT('',(-2.801880460357E1,7.566184834743E1,6.042768253066E-1));
#65=CARTESIAN_POINT('',(-2.804591859387E1,7.554682769581E1,6.912949213034E-1));
#66=CARTESIAN_POINT('',(-2.807473495889E1,7.542220126427E1,7.602752086081E-1));
#67=CARTESIAN_POINT('',(-2.810548108585E1,7.528635571054E1,8.118281733812E-1));
#68=CARTESIAN_POINT('',(-2.813698007541E1,7.514386152083E1,8.431352652390E-1));
#69=CARTESIAN_POINT('',(-2.815768098553E1,7.504788027138E1,8.5E-1));
#70=CARTESIAN_POINT('',(-2.816787989398E1,7.5E1,8.5E-1));
#72=DIRECTION('',(1.E0,5.160464481729E-12,1.295101747665E-7));
#73=VECTOR('',#72,1.021657472502E0);
#74=CARTESIAN_POINT('',(-2.918953736648E1,7.499999999999E1,8.499998676850E-1));
#75=LINE('',#74,#73);
#76=DIRECTION('',(1.E0,5.967221732241E-12,-1.457419265667E-7));
#77=VECTOR('',#76,1.021657472502E0);
#78=CARTESIAN_POINT('',(-2.918953736648E1,7.499999999999E1,-4.649999851102E0));
#79=LINE('',#78,#77);
#80=CARTESIAN_POINT('',(-2.816787989398E1,7.5E1,-4.65E0));
#81=CARTESIAN_POINT('',(-2.815768139440E1,7.504787835188E1,-4.65E0));
#82=CARTESIAN_POINT('',(-2.813698177690E1,7.514385367174E1,-4.643136077654E0));
#83=CARTESIAN_POINT('',(-2.810548501818E1,7.528633796921E1,-4.611832308876E0));
#84=CARTESIAN_POINT('',(-2.807474440001E1,7.542215991594E1,-4.560293614745E0));
#85=CARTESIAN_POINT('',(-2.804592638998E1,7.554679440531E1,-4.491317413055E0));
#86=CARTESIAN_POINT('',(-2.801880957456E1,7.566182747663E1,-4.404295523543E0));
#87=CARTESIAN_POINT('',(-2.799447379940E1,7.576328016062E1,-4.301390528835E0));
#88=CARTESIAN_POINT('',(-2.797385172232E1,7.584799838278E1,-4.186232609155E0));
#89=CARTESIAN_POINT('',(-2.795743959986E1,7.591463682605E1,-4.062418248236E0));
#90=CARTESIAN_POINT('',(-2.794518452524E1,7.596395433978E1,-3.928567862431E0));
#91=CARTESIAN_POINT('',(-2.793777838832E1,7.599357612300E1,-3.789429927587E0));
#92=CARTESIAN_POINT('',(-2.793616755609E1,7.6E1,-3.696296524548E0));
#93=CARTESIAN_POINT('',(-2.793616755609E1,7.6E1,-3.65E0));
#95=DIRECTION('',(1.E0,1.505460649495E-7,-7.909597896175E-12));
#96=VECTOR('',#95,1.077434282866E0);
#97=CARTESIAN_POINT('',(-2.901360183895E1,7.599999983780E1,-3.649999999991E0));
#98=LINE('',#97,#96);
#99=CARTESIAN_POINT('',(-2.918953736648E1,7.499999999999E1,-4.649999851102E0));
#100=CARTESIAN_POINT('',(-2.918164304071E1,7.504800744980E1,-4.649998834190E0));
#101=CARTESIAN_POINT('',(-2.916570120501E1,7.514398256813E1,-4.643078539737E0));
#102=CARTESIAN_POINT('',(-2.914181344956E1,7.528501195457E1,-4.612134254656E0));
#103=CARTESIAN_POINT('',(-2.911851180844E1,7.542002916854E1,-4.561312481614E0));
#104=CARTESIAN_POINT('',(-2.909636354533E1,7.554615480122E1,-4.491785988231E0));
#105=CARTESIAN_POINT('',(-2.907591150355E1,7.566079361226E1,-4.405119693645E0));
#106=CARTESIAN_POINT('',(-2.905767431508E1,7.576160136146E1,-4.303280309654E0));
#107=CARTESIAN_POINT('',(-2.904210587034E1,7.584663881012E1,-4.188491803651E0));
#108=CARTESIAN_POINT('',(-2.902958832990E1,7.591435253374E1,-4.063156371412E0));
#109=CARTESIAN_POINT('',(-2.902042755698E1,7.596354488101E1,-3.929797066353E0));
#110=CARTESIAN_POINT('',(-2.901484900038E1,7.599335105115E1,-3.791185476105E0));
#111=CARTESIAN_POINT('',(-2.901360253418E1,7.599999860219E1,-3.697033749731E0));
#112=CARTESIAN_POINT('',(-2.901360183895E1,7.599999983780E1,-3.649999999991E0));
#114=CARTESIAN_POINT('',(-2.938544149435E1,7.504026870150E1,-4.45E0));
#115=CARTESIAN_POINT('',(-2.937745222352E1,7.507913557865E1,-4.449998187365E0));
#116=CARTESIAN_POINT('',(-2.936149786462E1,7.515597668051E1,-4.444482220141E0));
#117=CARTESIAN_POINT('',(-2.933740591354E1,7.526976787887E1,-4.419730758692E0));
#118=CARTESIAN_POINT('',(-2.931395382104E1,7.537848016985E1,-4.379077337239E0));
#119=CARTESIAN_POINT('',(-2.929164898287E1,7.548009465871E1,-4.323451232414E0));
#120=CARTESIAN_POINT('',(-2.927105585403E1,7.557243897709E1,-4.254107741121E0));
#121=CARTESIAN_POINT('',(-2.925269196250E1,7.565364553417E1,-4.172617955002E0));
#122=CARTESIAN_POINT('',(-2.923701644383E1,7.572214346859E1,-4.080769840622E0));
#123=CARTESIAN_POINT('',(-2.922441353357E1,7.577668371295E1,-3.980466095348E0));
#124=CARTESIAN_POINT('',(-2.921519181589E1,7.581629879716E1,-3.873803933250E0));
#125=CARTESIAN_POINT('',(-2.920957685020E1,7.584030066218E1,-3.762712633340E0));
#126=CARTESIAN_POINT('',(-2.920832571535E1,7.584563580888E1,-3.687826607265E0));
#127=CARTESIAN_POINT('',(-2.920832519949E1,7.584563786527E1,-3.65E0));
#129=CARTESIAN_POINT('',(-2.918953733429E1,7.499999999514E1,-4.449999442009E0));
#130=DIRECTION('',(2.013435135814E-1,9.795206937777E-1,-1.964195434154E-8));
#131=DIRECTION('',(-1.631896397573E-7,1.349150126424E-8,-1.E0));
#132=AXIS2_PLACEMENT_3D('',#129,#130,#131);
#134=CARTESIAN_POINT('',(0.E0,6.9E1,8.5E-1));
#135=DIRECTION('',(0.E0,0.E0,1.E0));
#136=DIRECTION('',(-9.795206927677E-1,2.013435184949E-1,0.E0));
#137=AXIS2_PLACEMENT_3D('',#134,#135,#136);
#139=CARTESIAN_POINT('',(0.E0,6.9E1,6.5E-1));
#140=DIRECTION('',(0.E0,0.E0,1.E0));
#141=DIRECTION('',(-9.795206927677E-1,2.013435184949E-1,0.E0));
#142=AXIS2_PLACEMENT_3D('',#139,#140,#141);
#144=CARTESIAN_POINT('',(-2.918953736648E1,7.499999999999E1,6.5E-1));
#145=DIRECTION('',(-2.013435184947E-1,-9.795206927677E-1,0.E0));
#146=DIRECTION('',(1.776356839400E-14,0.E0,1.E0));
#147=AXIS2_PLACEMENT_3D('',#144,#145,#146);
#149=CARTESIAN_POINT('',(0.E0,6.9E1,8.5E-1));
#150=DIRECTION('',(0.E0,0.E0,-1.E0));
#151=DIRECTION('',(-1.E0,0.E0,0.E0));
#152=AXIS2_PLACEMENT_3D('',#149,#150,#151);
#154=DIRECTION('',(4.575656136959E-6,9.999999999895E-1,0.E0));
#155=VECTOR('',#154,2.000000000021E1);
#156=CARTESIAN_POINT('',(-2.88E1,4.9E1,8.5E-1));
#157=LINE('',#156,#155);
#158=DIRECTION('',(0.E0,0.E0,1.E0));
#159=VECTOR('',#158,5.5E0);
#160=CARTESIAN_POINT('',(-2.879990848688E1,6.9E1,-4.65E0));
#161=LINE('',#160,#159);
#162=DIRECTION('',(1.E0,-7.837286375434E-12,0.E0));
#163=VECTOR('',#162,1.E0);
#164=CARTESIAN_POINT('',(-2.98E1,4.900000000001E1,8.5E-1));
#165=LINE('',#164,#163);
#166=CARTESIAN_POINT('',(-2.88E1,4.9E1,-1.5E-1));
#167=DIRECTION('',(1.E0,0.E0,0.E0));
#168=DIRECTION('',(0.E0,0.E0,1.E0));
#169=AXIS2_PLACEMENT_3D('',#166,#167,#168);
#171=DIRECTION('',(1.E0,0.E0,6.750461301053E-12));
#172=VECTOR('',#171,1.E0);
#173=CARTESIAN_POINT('',(-2.98E1,4.8E1,-1.500000000067E-1));
#174=LINE('',#173,#172);
#175=CARTESIAN_POINT('',(-2.98E1,4.9E1,-1.5E-1));
#176=DIRECTION('',(1.E0,0.E0,0.E0));
#177=DIRECTION('',(0.E0,0.E0,1.E0));
#178=AXIS2_PLACEMENT_3D('',#175,#176,#177);
#180=CARTESIAN_POINT('',(-3.E1,4.9E1,-1.5E-1));
#181=DIRECTION('',(1.E0,0.E0,0.E0));
#182=DIRECTION('',(0.E0,0.E0,1.E0));
#183=AXIS2_PLACEMENT_3D('',#180,#181,#182);
#185=CARTESIAN_POINT('',(-2.98E1,4.899999999958E1,6.5E-1));
#186=DIRECTION('',(0.E0,-1.E0,-5.188192410410E-10));
#187=DIRECTION('',(0.E0,-5.188027785152E-10,1.E0));
#188=AXIS2_PLACEMENT_3D('',#185,#186,#187);
#190=DIRECTION('',(0.E0,0.E0,-1.E0));
#191=VECTOR('',#190,3.499999999985E0);
#192=CARTESIAN_POINT('',(-2.98E1,4.8E1,-1.500000000067E-1));
#193=LINE('',#192,#191);
#194=DIRECTION('',(0.E0,0.E0,-1.E0));
#195=VECTOR('',#194,3.5E0);
#196=CARTESIAN_POINT('',(-3.E1,4.82E1,-1.5E-1));
#197=LINE('',#196,#195);
#198=CARTESIAN_POINT('',(-2.98E1,4.82E1,-1.5E-1));
#199=DIRECTION('',(0.E0,0.E0,-1.E0));
#200=DIRECTION('',(0.E0,-1.E0,0.E0));
#201=AXIS2_PLACEMENT_3D('',#198,#199,#200);
#203=DIRECTION('',(0.E0,0.E0,1.E0));
#204=VECTOR('',#203,3.5E0);
#205=CARTESIAN_POINT('',(-2.88E1,4.8E1,-3.65E0));
#206=LINE('',#205,#204);
#207=DIRECTION('',(1.E0,0.E0,-7.842615445952E-12));
#208=VECTOR('',#207,1.E0);
#209=CARTESIAN_POINT('',(-2.98E1,4.8E1,-3.649999999992E0));
#210=LINE('',#209,#208);
#211=CARTESIAN_POINT('',(-2.88E1,4.9E1,-3.65E0));
#212=DIRECTION('',(1.E0,0.E0,0.E0));
#213=DIRECTION('',(0.E0,-1.E0,-2.531308496145E-14));
#214=AXIS2_PLACEMENT_3D('',#211,#212,#213);
#216=DIRECTION('',(1.E0,-6.750155989721E-12,0.E0));
#217=VECTOR('',#216,1.E0);
#218=CARTESIAN_POINT('',(-2.98E1,4.900000000001E1,-4.65E0));
#219=LINE('',#218,#217);
#220=CARTESIAN_POINT('',(-2.98E1,4.9E1,-3.65E0));
#221=DIRECTION('',(1.E0,0.E0,0.E0));
#222=DIRECTION('',(0.E0,-1.E0,0.E0));
#223=AXIS2_PLACEMENT_3D('',#220,#221,#222);
#225=CARTESIAN_POINT('',(-3.E1,4.9E1,-3.65E0));
#226=DIRECTION('',(1.E0,0.E0,0.E0));
#227=DIRECTION('',(0.E0,-1.E0,3.053113347873E-14));
#228=AXIS2_PLACEMENT_3D('',#225,#226,#227);
#230=CARTESIAN_POINT('',(-2.98E1,4.82E1,-3.650000000415E0));
#231=DIRECTION('',(0.E0,5.188198065609E-10,-1.E0));
#232=DIRECTION('',(0.E0,-1.E0,-5.188205420836E-10));
#233=AXIS2_PLACEMENT_3D('',#230,#231,#232);
#235=DIRECTION('',(4.575656137316E-6,9.999999999895E-1,0.E0));
#236=VECTOR('',#235,2.000000000020E1);
#237=CARTESIAN_POINT('',(-2.98E1,4.900000000001E1,-4.65E0));
#238=LINE('',#237,#236);
#239=DIRECTION('',(4.575656136959E-6,9.999999999895E-1,0.E0));
#240=VECTOR('',#239,2.000000000021E1);
#241=CARTESIAN_POINT('',(-3.E1,4.9E1,-4.45E0));
#242=LINE('',#241,#240);
#243=CARTESIAN_POINT('',(-2.98E1,4.9E1,-4.45E0));
#244=DIRECTION('',(0.E0,1.E0,0.E0));
#245=DIRECTION('',(0.E0,0.E0,-1.E0));
#246=AXIS2_PLACEMENT_3D('',#243,#244,#245);
#248=DIRECTION('',(4.575656136959E-6,9.999999999895E-1,0.E0));
#249=VECTOR('',#248,2.000000000021E1);
#250=CARTESIAN_POINT('',(-2.88E1,4.9E1,-4.65E0));
#251=LINE('',#250,#249);
#252=CARTESIAN_POINT('',(0.E0,6.9E1,-4.65E0));
#253=DIRECTION('',(0.E0,0.E0,-1.E0));
#254=DIRECTION('',(-1.E0,0.E0,0.E0));
#255=AXIS2_PLACEMENT_3D('',#252,#253,#254);
#257=CARTESIAN_POINT('',(0.E0,6.9E1,-4.65E0));
#258=DIRECTION('',(0.E0,0.E0,-1.E0));
#259=DIRECTION('',(-1.E0,0.E0,0.E0));
#260=AXIS2_PLACEMENT_3D('',#257,#258,#259);
#262=CARTESIAN_POINT('',(0.E0,6.9E1,-4.45E0));
#263=DIRECTION('',(0.E0,0.E0,-1.E0));
#264=DIRECTION('',(-1.E0,0.E0,0.E0));
#265=AXIS2_PLACEMENT_3D('',#262,#263,#264);
#267=CARTESIAN_POINT('',(-2.979981697375E1,6.9E1,-4.45E0));
#268=DIRECTION('',(0.E0,1.E0,0.E0));
#269=DIRECTION('',(-9.151308441702E-4,0.E0,-9.999995812677E-1));
#270=AXIS2_PLACEMENT_3D('',#267,#268,#269);
#272=DIRECTION('',(0.E0,-1.168633817168E-11,1.E0));
#273=VECTOR('',#272,5.1E0);
#274=CARTESIAN_POINT('',(-2.999990848688E1,6.9E1,-4.45E0));
#275=LINE('',#274,#273);
#276=DIRECTION('',(-4.575656137138E-6,-9.999999999895E-1,0.E0));
#277=VECTOR('',#276,2.000000000020E1);
#278=CARTESIAN_POINT('',(-2.979990848688E1,6.9E1,8.5E-1));
#279=LINE('',#278,#277);
#280=DIRECTION('',(-4.575656136973E-6,-9.999999999895E-1,0.E0));
#281=VECTOR('',#280,2.000000000015E1);
#282=CARTESIAN_POINT('',(-2.999990848688E1,6.899999999994E1,6.5E-1));
#283=LINE('',#282,#281);
#284=CARTESIAN_POINT('',(-2.98E1,6.9E1,6.5E-1));
#285=DIRECTION('',(0.E0,-1.E0,0.E0));
#286=DIRECTION('',(0.E0,0.E0,1.E0));
#287=AXIS2_PLACEMENT_3D('',#284,#285,#286);
#289=CARTESIAN_POINT('',(-2.879990848688E1,6.9E1,-4.65E0));
#290=CARTESIAN_POINT('',(-2.879990848688E1,6.9E1,8.5E-1));
#291=VERTEX_POINT('',#289);
#292=VERTEX_POINT('',#290);
#293=CARTESIAN_POINT('',(-2.88E1,4.9E1,8.5E-1));
#294=CARTESIAN_POINT('',(-2.88E1,4.8E1,-1.5E-1));
#295=VERTEX_POINT('',#293);
#296=VERTEX_POINT('',#294);
#297=CARTESIAN_POINT('',(-2.88E1,4.8E1,-3.65E0));
#298=CARTESIAN_POINT('',(-2.88E1,4.9E1,-4.65E0));
#299=VERTEX_POINT('',#297);
#300=VERTEX_POINT('',#298);
#301=VERTEX_POINT('',#57);
#302=VERTEX_POINT('',#70);
#303=VERTEX_POINT('',#80);
#304=VERTEX_POINT('',#93);
#305=VERTEX_POINT('',#18);
#306=VERTEX_POINT('',#31);
#307=VERTEX_POINT('',#33);
#308=VERTEX_POINT('',#46);
#309=CARTESIAN_POINT('',(-2.979981698036E1,6.9E1,8.5E-1));
#310=VERTEX_POINT('',#309);
#311=CARTESIAN_POINT('',(-2.999981697375E1,6.9E1,6.5E-1));
#312=VERTEX_POINT('',#311);
#313=CARTESIAN_POINT('',(-2.98E1,4.900000000001E1,8.5E-1));
#314=VERTEX_POINT('',#313);
#315=CARTESIAN_POINT('',(-3.E1,4.9E1,6.5E-1));
#316=VERTEX_POINT('',#315);
#317=CARTESIAN_POINT('',(-2.98E1,4.8E1,-1.5E-1));
#318=VERTEX_POINT('',#317);
#319=CARTESIAN_POINT('',(-3.E1,4.820000000790E1,-1.5E-1));
#320=VERTEX_POINT('',#319);
#321=CARTESIAN_POINT('',(-2.98E1,4.8E1,-3.649999999992E0));
#322=VERTEX_POINT('',#321);
#323=CARTESIAN_POINT('',(-3.E1,4.82E1,-3.65E0));
#324=VERTEX_POINT('',#323);
#325=CARTESIAN_POINT('',(-2.98E1,4.9E1,-4.65E0));
#326=VERTEX_POINT('',#325);
#327=CARTESIAN_POINT('',(-3.E1,4.9E1,-4.449999992099E0));
#328=VERTEX_POINT('',#327);
#329=CARTESIAN_POINT('',(-2.979990848688E1,6.9E1,-4.65E0));
#330=VERTEX_POINT('',#329);
#331=CARTESIAN_POINT('',(-2.999990848688E1,6.9E1,-4.45E0));
#332=VERTEX_POINT('',#331);
#333=CARTESIAN_POINT('',(-2.918953737323E1,7.500000000139E1,-4.65E0));
#334=VERTEX_POINT('',#333);
#335=CARTESIAN_POINT('',(-2.938544150504E1,7.504026870370E1,-4.45E0));
#336=VERTEX_POINT('',#335);
#337=VERTEX_POINT('',#112);
#338=VERTEX_POINT('',#127);
#339=CARTESIAN_POINT('',(-3.5E1,7.6E1,8.5E-1));
#340=DIRECTION('',(0.E0,1.E0,0.E0));
#341=DIRECTION('',(0.E0,0.E0,-1.E0));
#342=AXIS2_PLACEMENT_3D('',#339,#340,#341);
#343=PLANE('',#342);
#345=ORIENTED_EDGE('',*,*,#344,.F.);
#347=ORIENTED_EDGE('',*,*,#346,.T.);
#349=ORIENTED_EDGE('',*,*,#348,.F.);
#351=ORIENTED_EDGE('',*,*,#350,.F.);
#352=EDGE_LOOP('',(#345,#347,#349,#351));
#353=FACE_OUTER_BOUND('',#352,.F.);
#354=ADVANCED_FACE('',(#353),#343,.T.);
#355=CARTESIAN_POINT('',(-2.901360183895E1,7.58E1,-3.667624241151E0));
#356=DIRECTION('',(0.E0,0.E0,1.E0));
#357=DIRECTION('',(0.E0,1.E0,0.E0));
#358=AXIS2_PLACEMENT_3D('',#355,#356,#357);
#359=CYLINDRICAL_SURFACE('',#358,2.E-1);
#360=ORIENTED_EDGE('',*,*,#344,.T.);
#362=ORIENTED_EDGE('',*,*,#361,.T.);
#364=ORIENTED_EDGE('',*,*,#363,.F.);
#366=ORIENTED_EDGE('',*,*,#365,.F.);
#367=EDGE_LOOP('',(#360,#362,#364,#366));
#368=FACE_OUTER_BOUND('',#367,.F.);
#369=ADVANCED_FACE('',(#368),#359,.T.);
#370=CARTESIAN_POINT('',(-2.895419559809E1,7.599083724424E1,
-1.659745256718E-1));
#371=CARTESIAN_POINT('',(-2.895401584432E1,7.599158629578E1,
-1.187102433534E-1));
#372=CARTESIAN_POINT('',(-2.895527587007E1,7.598634068525E1,
-2.272583845795E-2));
#373=CARTESIAN_POINT('',(-2.896208002619E1,7.595794190732E1,1.191684975794E-1));
#374=CARTESIAN_POINT('',(-2.897374892337E1,7.590896130686E1,2.566256229864E-1));
#375=CARTESIAN_POINT('',(-2.898989773290E1,7.584058616733E1,3.855839061164E-1));
#376=CARTESIAN_POINT('',(-2.901006601601E1,7.575420082570E1,5.032861528757E-1));
#377=CARTESIAN_POINT('',(-2.903368883596E1,7.565156365915E1,6.071982761686E-1));
#378=CARTESIAN_POINT('',(-2.906011431795E1,7.553480107385E1,6.950478571527E-1));
#379=CARTESIAN_POINT('',(-2.908862780171E1,7.540638001071E1,7.648871014644E-1));
#380=CARTESIAN_POINT('',(-2.911848254008E1,7.526904845132E1,8.151519492825E-1));
#381=CARTESIAN_POINT('',(-2.914877809267E1,7.512648525074E1,8.445779489043E-1));
#382=CARTESIAN_POINT('',(-2.916885935963E1,7.502971425057E1,8.501130319650E-1));
#383=CARTESIAN_POINT('',(-2.917869437592E1,7.498174444418E1,8.493692560286E-1));
#384=CARTESIAN_POINT('',(-2.907918798066E1,7.602973876162E1,
-1.661272675427E-1));
#385=CARTESIAN_POINT('',(-2.907900574312E1,7.603049756749E1,
-1.184110693983E-1));
#386=CARTESIAN_POINT('',(-2.908028318394E1,7.602518364798E1,
-2.150876437181E-2));
#387=CARTESIAN_POINT('',(-2.908718113436E1,7.599641574601E1,1.217389276504E-1));
#388=CARTESIAN_POINT('',(-2.909901004702E1,7.594680071553E1,2.604999513158E-1));
#389=CARTESIAN_POINT('',(-2.911537862898E1,7.587754422036E1,3.906722550430E-1));
#390=CARTESIAN_POINT('',(-2.913581881273E1,7.579005159622E1,5.094727866214E-1));
#391=CARTESIAN_POINT('',(-2.915975673020E1,7.568610632532E1,6.143457098438E-1));
#392=CARTESIAN_POINT('',(-2.918653073281E1,7.556786330813E1,7.030007599158E-1));
#393=CARTESIAN_POINT('',(-2.921541600768E1,7.543782071462E1,7.734759499213E-1));
#394=CARTESIAN_POINT('',(-2.924565572600E1,7.529875981393E1,8.241963449345E-1));
#395=CARTESIAN_POINT('',(-2.927633785861E1,7.515440338343E1,8.538884388493E-1));
#396=CARTESIAN_POINT('',(-2.929667289724E1,7.505641455271E1,8.594736415315E-1));
#397=CARTESIAN_POINT('',(-2.930663165958E1,7.500784049269E1,8.587231207531E-1));
#398=CARTESIAN_POINT('',(-2.919042972900E1,7.596075009313E1,
-1.646159269699E-1));
#399=CARTESIAN_POINT('',(-2.919026556629E1,7.596144012561E1,
-1.213713168675E-1));
#400=CARTESIAN_POINT('',(-2.919141625726E1,7.595660781916E1,
-3.355139181884E-2));
#401=CARTESIAN_POINT('',(-2.919763247446E1,7.593043971972E1,9.630519927164E-2));
#402=CARTESIAN_POINT('',(-2.920830145211E1,7.588528435107E1,2.221644931791E-1));
#403=CARTESIAN_POINT('',(-2.922308319466E1,7.582220629048E1,3.403243829285E-1));
#404=CARTESIAN_POINT('',(-2.924156985057E1,7.574245112016E1,4.482576755623E-1));
#405=CARTESIAN_POINT('',(-2.926325672277E1,7.564761662773E1,5.436237366029E-1));
#406=CARTESIAN_POINT('',(-2.928755613285E1,7.553965364837E1,6.243088822488E-1));
#407=CARTESIAN_POINT('',(-2.931381818074E1,7.542084369854E1,6.884915571527E-1));
#408=CARTESIAN_POINT('',(-2.934135852621E1,7.529374318533E1,7.347044326833E-1));
#409=CARTESIAN_POINT('',(-2.936934630757E1,7.516178090014E1,7.617635936695E-1));
#410=CARTESIAN_POINT('',(-2.938792256091E1,7.507221170138E1,7.668528759015E-1));
#411=CARTESIAN_POINT('',(-2.939702588782E1,7.502781754973E1,7.661690935584E-1));
#412=CARTESIAN_POINT('',(-2.921111215125E1,7.583150559782E1,
-1.624840338700E-1));
#413=CARTESIAN_POINT('',(-2.921097414190E1,7.583209581489E1,
-1.255470342849E-1));
#414=CARTESIAN_POINT('',(-2.921194143461E1,7.582796250589E1,
-5.053869092271E-2));
#415=CARTESIAN_POINT('',(-2.921717110496E1,7.580556805921E1,6.042844785695E-2));
#416=CARTESIAN_POINT('',(-2.922616109328E1,7.576688719750E1,1.680885951645E-1));
#417=CARTESIAN_POINT('',(-2.923864504390E1,7.571278136008E1,2.693038048517E-1));
#418=CARTESIAN_POINT('',(-2.925430158887E1,7.564426592786E1,3.619077983605E-1));
#419=CARTESIAN_POINT('',(-2.927272554419E1,7.556267041012E1,4.438635042164E-1));
#420=CARTESIAN_POINT('',(-2.929343587166E1,7.546964991737E1,5.133063233094E-1));
#421=CARTESIAN_POINT('',(-2.931589092460E1,7.536717102201E1,5.686127926995E-1));
#422=CARTESIAN_POINT('',(-2.933951137074E1,7.525746237910E1,6.084673729159E-1));
#423=CARTESIAN_POINT('',(-2.936358422866E1,7.514352387331E1,6.318125255284E-1));
#424=CARTESIAN_POINT('',(-2.937960352193E1,7.506619829588E1,6.362022636570E-1));
#425=CARTESIAN_POINT('',(-2.938746288136E1,7.502788212821E1,6.356126223780E-1));
#426=(BOUNDED_SURFACE()B_SPLINE_SURFACE(3,3,((#370,#371,#372,#373,#374,#375,
#376,#377,#378,#379,#380,#381,#382,#383),(#384,#385,#386,#387,#388,#389,#390,
#391,#392,#393,#394,#395,#396,#397),(#398,#399,#400,#401,#402,#403,#404,#405,
#406,#407,#408,#409,#410,#411),(#412,#413,#414,#415,#416,#417,#418,#419,#420,
#421,#422,#423,#424,#425)),.UNSPECIFIED.,.F.,.F.,.F.)B_SPLINE_SURFACE_WITH_KNOTS((4,4),(4,1,1,1,1,1,1,1,1,1,1,4),(0.E0,1.E0),(2.041793049690E-3,
8.893237074190E-2,1.780910431283E-1,2.676192280575E-1,3.575907739546E-1,
4.480833724921E-1,5.391358386708E-1,6.307158993774E-1,7.227244450249E-1,
8.150441943867E-1,9.075172420093E-1,9.986773882121E-1),.UNSPECIFIED.)GEOMETRIC_REPRESENTATION_ITEM()RATIONAL_B_SPLINE_SURFACE(((1.208629525845E0,
1.208629525845E0,1.208629525845E0,1.208629525845E0,1.208629525845E0,
1.208629525845E0,1.208629525845E0,1.208629525845E0,1.208629525845E0,
1.208629525845E0,1.208629525845E0,1.208629525845E0,1.208629525845E0,
1.208629525845E0),(9.304568247182E-1,9.304568247182E-1,9.304568247182E-1,
9.304568247182E-1,9.304568247182E-1,9.304568247182E-1,9.304568247182E-1,
9.304568247182E-1,9.304568247182E-1,9.304568247182E-1,9.304568247182E-1,
9.304568247182E-1,9.304568247182E-1,9.304568247182E-1),(9.304568247182E-1,
9.304568247182E-1,9.304568247182E-1,9.304568247182E-1,9.304568247182E-1,
9.304568247182E-1,9.304568247182E-1,9.304568247182E-1,9.304568247182E-1,
9.304568247182E-1,9.304568247182E-1,9.304568247182E-1,9.304568247182E-1,
9.304568247182E-1),(1.208629525845E0,1.208629525845E0,1.208629525845E0,
1.208629525845E0,1.208629525845E0,1.208629525845E0,1.208629525845E0,
1.208629525845E0,1.208629525845E0,1.208629525845E0,1.208629525845E0,
1.208629525845E0,1.208629525845E0,1.208629525845E0)))REPRESENTATION_ITEM('')SURFACE());
#428=ORIENTED_EDGE('',*,*,#427,.T.);
#430=ORIENTED_EDGE('',*,*,#429,.T.);
#432=ORIENTED_EDGE('',*,*,#431,.F.);
#433=ORIENTED_EDGE('',*,*,#361,.F.);
#434=EDGE_LOOP('',(#428,#430,#432,#433));
#435=FACE_OUTER_BOUND('',#434,.F.);
#436=ADVANCED_FACE('',(#435),#426,.T.);
#437=CARTESIAN_POINT('',(-3.002958210687E1,7.5E1,-1.5E-1));
#438=DIRECTION('',(1.E0,0.E0,0.E0));
#439=DIRECTION('',(0.E0,1.E0,0.E0));
#440=AXIS2_PLACEMENT_3D('',#437,#438,#439);
#441=CYLINDRICAL_SURFACE('',#440,1.E0);
#442=ORIENTED_EDGE('',*,*,#427,.F.);
#443=ORIENTED_EDGE('',*,*,#350,.T.);
#445=ORIENTED_EDGE('',*,*,#444,.T.);
#447=ORIENTED_EDGE('',*,*,#446,.F.);
#448=EDGE_LOOP('',(#442,#443,#445,#447));
#449=FACE_OUTER_BOUND('',#448,.F.);
#450=ADVANCED_FACE('',(#449),#441,.T.);
#451=CARTESIAN_POINT('',(0.E0,6.9E1,-1.900000003031E0));
#452=DIRECTION('',(0.E0,0.E0,-1.E0));
#453=DIRECTION('',(1.E0,0.E0,0.E0));
#454=AXIS2_PLACEMENT_3D('',#451,#452,#453);
#455=CYLINDRICAL_SURFACE('',#454,2.879981697375E1);
#456=ORIENTED_EDGE('',*,*,#444,.F.);
#457=ORIENTED_EDGE('',*,*,#348,.T.);
#459=ORIENTED_EDGE('',*,*,#458,.F.);
#461=ORIENTED_EDGE('',*,*,#460,.F.);
#463=ORIENTED_EDGE('',*,*,#462,.T.);
#465=ORIENTED_EDGE('',*,*,#464,.T.);
#466=EDGE_LOOP('',(#456,#457,#459,#461,#463,#465));
#467=FACE_OUTER_BOUND('',#466,.F.);
#468=ADVANCED_FACE('',(#467),#455,.F.);
#469=CARTESIAN_POINT('',(-3.002178870395E1,7.5E1,-3.65E0));
#470=DIRECTION('',(1.E0,0.E0,0.E0));
#471=DIRECTION('',(0.E0,0.E0,-1.E0));
#472=AXIS2_PLACEMENT_3D('',#469,#470,#471);
#473=CYLINDRICAL_SURFACE('',#472,1.E0);
#475=ORIENTED_EDGE('',*,*,#474,.F.);
#477=ORIENTED_EDGE('',*,*,#476,.T.);
#478=ORIENTED_EDGE('',*,*,#458,.T.);
#479=ORIENTED_EDGE('',*,*,#346,.F.);
#480=EDGE_LOOP('',(#475,#477,#478,#479));
#481=FACE_OUTER_BOUND('',#480,.F.);
#482=ADVANCED_FACE('',(#481),#473,.T.);
#483=CARTESIAN_POINT('',(-2.917869528250E1,7.498174004109E1,-4.649369155296E0));
#484=CARTESIAN_POINT('',(-2.916896763632E1,7.502918613180E1,-4.650104867337E0));
#485=CARTESIAN_POINT('',(-2.914899834352E1,7.512543050206E1,-4.644677246506E0));
#486=CARTESIAN_POINT('',(-2.911881023722E1,7.526752408631E1,-4.615584244144E0));
#487=CARTESIAN_POINT('',(-2.908894564895E1,7.540493369591E1,-4.565539321651E0));
#488=CARTESIAN_POINT('',(-2.906041409797E1,7.553346428467E1,-4.495906090114E0));
#489=CARTESIAN_POINT('',(-2.903396248279E1,7.565036525509E1,-4.408244056680E0));
#490=CARTESIAN_POINT('',(-2.901030593765E1,7.575316641766E1,-4.304497003465E0));
#491=CARTESIAN_POINT('',(-2.899009711674E1,7.583973762431E1,-4.186933993372E0));
#492=CARTESIAN_POINT('',(-2.897390199795E1,7.590831643695E1,-4.058086420130E0));
#493=CARTESIAN_POINT('',(-2.896218228062E1,7.595751423997E1,-3.920709383268E0));
#494=CARTESIAN_POINT('',(-2.895529945443E1,7.598624267582E1,-3.778341477511E0));
#495=CARTESIAN_POINT('',(-2.895401380034E1,7.599159479929E1,-3.681823394888E0));
#496=CARTESIAN_POINT('',(-2.895419557695E1,7.599083735260E1,-3.634029961884E0));
#497=CARTESIAN_POINT('',(-2.930663257128E1,7.500783603292E1,-4.658723015544E0));
#498=CARTESIAN_POINT('',(-2.929678253020E1,7.505587977992E1,-4.659465399268E0));
#499=CARTESIAN_POINT('',(-2.927656089270E1,7.515333536593E1,-4.653988630374E0));
#500=CARTESIAN_POINT('',(-2.924598761993E1,7.529721626701E1,-4.624632547425E0));
#501=CARTESIAN_POINT('',(-2.921573797002E1,7.543635616429E1,-4.574134088256E0));
#502=CARTESIAN_POINT('',(-2.918683443815E1,7.556650960489E1,-4.503866827600E0));
#503=CARTESIAN_POINT('',(-2.916003400118E1,7.568489268509E1,-4.415401112803E0));
#504=CARTESIAN_POINT('',(-2.913606194682E1,7.578900396262E1,-4.310694879526E0));
#505=CARTESIAN_POINT('',(-2.911558070900E1,7.587668476400E1,-4.192034993872E0));
#506=CARTESIAN_POINT('',(-2.909916520836E1,7.594614750579E1,-4.061974553975E0));
#507=CARTESIAN_POINT('',(-2.908728479018E1,7.599598252221E1,-3.923294474201E0));
#508=CARTESIAN_POINT('',(-2.908030708927E1,7.602508435590E1,-3.779568758230E0));
#509=CARTESIAN_POINT('',(-2.907900366548E1,7.603050617707E1,-3.682127671130E0));
#510=CARTESIAN_POINT('',(-2.907918795391E1,7.602973886589E1,-3.633877262993E0));
#511=CARTESIAN_POINT('',(-2.939702671707E1,7.502781347273E1,-4.566168999667E0));
#512=CARTESIAN_POINT('',(-2.938802277068E1,7.507172294768E1,-4.566845368821E0));
#513=CARTESIAN_POINT('',(-2.936954998111E1,7.516080457880E1,-4.561854907235E0));
#514=CARTESIAN_POINT('',(-2.934166103781E1,7.529233222287E1,-4.535101938309E0));
#515=CARTESIAN_POINT('',(-2.931411115459E1,7.541950533062E1,-4.489091106671E0));
#516=CARTESIAN_POINT('',(-2.928783200965E1,7.553841721825E1,-4.425097399342E0));
#517=CARTESIAN_POINT('',(-2.926350813574E1,7.564650891508E1,-4.344583902736E0));
#518=CARTESIAN_POINT('',(-2.924178992205E1,7.574149572654E1,-4.249368506860E0));
#519=CARTESIAN_POINT('',(-2.922326580717E1,7.582142319406E1,-4.141561919777E0));
#520=CARTESIAN_POINT('',(-2.920844146855E1,7.588468966400E1,-4.023502480186E0));
#521=CARTESIAN_POINT('',(-2.919772591094E1,7.593004556989E1,-3.897715671338E0));
#522=CARTESIAN_POINT('',(-2.919143778139E1,7.595651754259E1,-3.767425134517E0));
#523=CARTESIAN_POINT('',(-2.919026369009E1,7.596144795260E1,-3.679116936801E0));
#524=CARTESIAN_POINT('',(-2.919042969905E1,7.596075019477E1,-3.635388178833E0));
#525=CARTESIAN_POINT('',(-2.938746360208E1,7.502787861017E1,-4.435612543137E0));
#526=CARTESIAN_POINT('',(-2.937969004001E1,7.506577646051E1,-4.436195792309E0));
#527=CARTESIAN_POINT('',(-2.936375977032E1,7.514268090035E1,-4.431891314559E0));
#528=CARTESIAN_POINT('',(-2.933977121320E1,7.525624422211E1,-4.408810291573E0));
#529=CARTESIAN_POINT('',(-2.931614182691E1,7.536601612888E1,-4.369129695779E0));
#530=CARTESIAN_POINT('',(-2.929367138577E1,7.546858397302E1,-4.313985446620E0));
#531=CARTESIAN_POINT('',(-2.927293947628E1,7.556171664744E1,-4.244689328523E0));
#532=CARTESIAN_POINT('',(-2.925448825194E1,7.564344454878E1,-4.162861683452E0));
#533=CARTESIAN_POINT('',(-2.923879947231E1,7.571210917013E1,-4.070364731393E0));
#534=CARTESIAN_POINT('',(-2.922627919571E1,7.576637748456E1,-3.969233871941E0));
#535=CARTESIAN_POINT('',(-2.921724976304E1,7.580523063121E1,-3.861634277869E0));
#536=CARTESIAN_POINT('',(-2.921195952507E1,7.582788531465E1,-3.750295370168E0));
#537=CARTESIAN_POINT('',(-2.921097256872E1,7.583210250753E1,-3.674870002707E0));
#538=CARTESIAN_POINT('',(-2.921111212828E1,7.583150569664E1,-3.637519472827E0));
#539=(BOUNDED_SURFACE()B_SPLINE_SURFACE(3,3,((#483,#484,#485,#486,#487,#488,
#489,#490,#491,#492,#493,#494,#495,#496),(#497,#498,#499,#500,#501,#502,#503,
#504,#505,#506,#507,#508,#509,#510),(#511,#512,#513,#514,#515,#516,#517,#518,
#519,#520,#521,#522,#523,#524),(#525,#526,#527,#528,#529,#530,#531,#532,#533,
#534,#535,#536,#537,#538)),.UNSPECIFIED.,.F.,.F.,.F.)B_SPLINE_SURFACE_WITH_KNOTS((4,4),(4,1,1,1,1,1,1,1,1,1,1,4),(0.E0,1.E0),(2.317345019489E-3,
9.247845034433E-2,1.849489175496E-1,2.772677771255E-1,3.692769625149E-1,
4.608588699027E-1,5.519139136214E-1,6.424092098256E-1,7.323829005893E-1,
8.219120855080E-1,9.110701644738E-1,9.989339910755E-1),.UNSPECIFIED.)GEOMETRIC_REPRESENTATION_ITEM()RATIONAL_B_SPLINE_SURFACE(((1.208629507509E0,
1.208629507509E0,1.208629507509E0,1.208629507509E0,1.208629507509E0,
1.208629507509E0,1.208629507509E0,1.208629507509E0,1.208629507509E0,
1.208629507509E0,1.208629507509E0,1.208629507509E0,1.208629507509E0,
1.208629507509E0),(9.304568308305E-1,9.304568308305E-1,9.304568308305E-1,
9.304568308305E-1,9.304568308305E-1,9.304568308305E-1,9.304568308305E-1,
9.304568308305E-1,9.304568308305E-1,9.304568308305E-1,9.304568308305E-1,
9.304568308305E-1,9.304568308305E-1,9.304568308305E-1),(9.304568308305E-1,
9.304568308305E-1,9.304568308305E-1,9.304568308305E-1,9.304568308305E-1,
9.304568308305E-1,9.304568308305E-1,9.304568308305E-1,9.304568308305E-1,
9.304568308305E-1,9.304568308305E-1,9.304568308305E-1,9.304568308305E-1,
9.304568308305E-1),(1.208629507509E0,1.208629507509E0,1.208629507509E0,
1.208629507509E0,1.208629507509E0,1.208629507509E0,1.208629507509E0,
1.208629507509E0,1.208629507509E0,1.208629507509E0,1.208629507509E0,
1.208629507509E0,1.208629507509E0,1.208629507509E0)))REPRESENTATION_ITEM('')SURFACE());
#540=ORIENTED_EDGE('',*,*,#474,.T.);
#541=ORIENTED_EDGE('',*,*,#365,.T.);
#543=ORIENTED_EDGE('',*,*,#542,.F.);
#545=ORIENTED_EDGE('',*,*,#544,.F.);
#546=EDGE_LOOP('',(#540,#541,#543,#545));
#547=FACE_OUTER_BOUND('',#546,.F.);
#548=ADVANCED_FACE('',(#547),#539,.T.);
#549=CARTESIAN_POINT('',(0.E0,6.9E1,-1.900000003031E0));
#550=DIRECTION('',(0.E0,0.E0,-1.E0));
#551=DIRECTION('',(1.E0,0.E0,0.E0));
#552=AXIS2_PLACEMENT_3D('',#549,#550,#551);
#553=CYLINDRICAL_SURFACE('',#552,2.999981697375E1);
#554=ORIENTED_EDGE('',*,*,#431,.T.);
#556=ORIENTED_EDGE('',*,*,#555,.T.);
#558=ORIENTED_EDGE('',*,*,#557,.F.);
#560=ORIENTED_EDGE('',*,*,#559,.T.);
#561=ORIENTED_EDGE('',*,*,#542,.T.);
#562=ORIENTED_EDGE('',*,*,#363,.T.);
#563=EDGE_LOOP('',(#554,#556,#558,#560,#561,#562));
#564=FACE_OUTER_BOUND('',#563,.F.);
#565=ADVANCED_FACE('',(#564),#553,.T.);
#566=CARTESIAN_POINT('',(0.E0,6.9E1,6.5E-1));
#567=DIRECTION('',(0.E0,0.E0,-1.E0));
#568=DIRECTION('',(-9.793989382077E-1,2.019349396156E-1,0.E0));
#569=AXIS2_PLACEMENT_3D('',#566,#567,#568);
#570=TOROIDAL_SURFACE('',#569,2.979981697375E1,2.E-1);
#572=ORIENTED_EDGE('',*,*,#571,.T.);
#574=ORIENTED_EDGE('',*,*,#573,.T.);
#575=ORIENTED_EDGE('',*,*,#555,.F.);
#576=ORIENTED_EDGE('',*,*,#429,.F.);
#577=EDGE_LOOP('',(#572,#574,#575,#576));
#578=FACE_OUTER_BOUND('',#577,.F.);
#579=ADVANCED_FACE('',(#578),#570,.T.);
#580=CARTESIAN_POINT('',(-3.5E1,4.8E1,8.5E-1));
#581=DIRECTION('',(0.E0,0.E0,1.E0));
#582=DIRECTION('',(0.E0,1.E0,0.E0));
#583=AXIS2_PLACEMENT_3D('',#580,#581,#582);
#584=PLANE('',#583);
#585=ORIENTED_EDGE('',*,*,#571,.F.);
#586=ORIENTED_EDGE('',*,*,#446,.T.);
#587=ORIENTED_EDGE('',*,*,#464,.F.);
#589=ORIENTED_EDGE('',*,*,#588,.F.);
#591=ORIENTED_EDGE('',*,*,#590,.F.);
#593=ORIENTED_EDGE('',*,*,#592,.F.);
#594=EDGE_LOOP('',(#585,#586,#587,#589,#591,#593));
#595=FACE_OUTER_BOUND('',#594,.F.);
#596=ADVANCED_FACE('',(#595),#584,.T.);
#597=CARTESIAN_POINT('',(-2.88E1,4.065E1,-1.899999992034E0));
#598=DIRECTION('',(1.E0,0.E0,0.E0));
#599=DIRECTION('',(0.E0,0.E0,-1.E0));
#600=AXIS2_PLACEMENT_3D('',#597,#598,#599);
#601=PLANE('',#600);
#603=ORIENTED_EDGE('',*,*,#602,.F.);
#604=ORIENTED_EDGE('',*,*,#588,.T.);
#605=ORIENTED_EDGE('',*,*,#462,.F.);
#607=ORIENTED_EDGE('',*,*,#606,.F.);
#609=ORIENTED_EDGE('',*,*,#608,.F.);
#611=ORIENTED_EDGE('',*,*,#610,.T.);
#612=EDGE_LOOP('',(#603,#604,#605,#607,#609,#611));
#613=FACE_OUTER_BOUND('',#612,.F.);
#614=ADVANCED_FACE('',(#613),#601,.T.);
#615=CARTESIAN_POINT('',(-3.001865271525E1,4.9E1,-1.5E-1));
#616=DIRECTION('',(1.E0,0.E0,0.E0));
#617=DIRECTION('',(0.E0,0.E0,1.E0));
#618=AXIS2_PLACEMENT_3D('',#615,#616,#617);
#619=CYLINDRICAL_SURFACE('',#618,1.E0);
#621=ORIENTED_EDGE('',*,*,#620,.F.);
#622=ORIENTED_EDGE('',*,*,#590,.T.);
#623=ORIENTED_EDGE('',*,*,#602,.T.);
#625=ORIENTED_EDGE('',*,*,#624,.F.);
#626=EDGE_LOOP('',(#621,#622,#623,#625));
#627=FACE_OUTER_BOUND('',#626,.F.);
#628=ADVANCED_FACE('',(#627),#619,.T.);
#629=CARTESIAN_POINT('',(-2.98E1,4.9E1,-1.5E-1));
#630=DIRECTION('',(1.E0,0.E0,0.E0));
#631=DIRECTION('',(0.E0,1.921225894212E-2,9.998154275197E-1));
#632=AXIS2_PLACEMENT_3D('',#629,#630,#631);
#633=TOROIDAL_SURFACE('',#632,8.E-1,2.E-1);
#634=ORIENTED_EDGE('',*,*,#620,.T.);
#636=ORIENTED_EDGE('',*,*,#635,.T.);
#638=ORIENTED_EDGE('',*,*,#637,.F.);
#640=ORIENTED_EDGE('',*,*,#639,.F.);
#641=EDGE_LOOP('',(#634,#636,#638,#640));
#642=FACE_OUTER_BOUND('',#641,.F.);
#643=ADVANCED_FACE('',(#642),#633,.T.);
#644=CARTESIAN_POINT('',(-2.98E1,4.82E1,-1.323757588486E-1));
#645=DIRECTION('',(0.E0,0.E0,-1.E0));
#646=DIRECTION('',(0.E0,-1.E0,0.E0));
#647=AXIS2_PLACEMENT_3D('',#644,#645,#646);
#648=CYLINDRICAL_SURFACE('',#647,2.E-1);
#650=ORIENTED_EDGE('',*,*,#649,.T.);
#652=ORIENTED_EDGE('',*,*,#651,.T.);
#654=ORIENTED_EDGE('',*,*,#653,.F.);
#655=ORIENTED_EDGE('',*,*,#635,.F.);
#656=EDGE_LOOP('',(#650,#652,#654,#655));
#657=FACE_OUTER_BOUND('',#656,.F.);
#658=ADVANCED_FACE('',(#657),#648,.T.);
#659=CARTESIAN_POINT('',(-3.5E1,4.8E1,-4.65E0));
#660=DIRECTION('',(0.E0,-1.E0,0.E0));
#661=DIRECTION('',(0.E0,0.E0,1.E0));
#662=AXIS2_PLACEMENT_3D('',#659,#660,#661);
#663=PLANE('',#662);
#664=ORIENTED_EDGE('',*,*,#649,.F.);
#665=ORIENTED_EDGE('',*,*,#624,.T.);
#666=ORIENTED_EDGE('',*,*,#610,.F.);
#668=ORIENTED_EDGE('',*,*,#667,.F.);
#669=EDGE_LOOP('',(#664,#665,#666,#668));
#670=FACE_OUTER_BOUND('',#669,.F.);
#671=ADVANCED_FACE('',(#670),#663,.T.);
#672=CARTESIAN_POINT('',(-3.001865271525E1,4.9E1,-3.65E0));
#673=DIRECTION('',(1.E0,0.E0,0.E0));
#674=DIRECTION('',(0.E0,-1.E0,0.E0));
#675=AXIS2_PLACEMENT_3D('',#672,#673,#674);
#676=CYLINDRICAL_SURFACE('',#675,1.E0);
#678=ORIENTED_EDGE('',*,*,#677,.F.);
#679=ORIENTED_EDGE('',*,*,#667,.T.);
#680=ORIENTED_EDGE('',*,*,#608,.T.);
#682=ORIENTED_EDGE('',*,*,#681,.F.);
#683=EDGE_LOOP('',(#678,#679,#680,#682));
#684=FACE_OUTER_BOUND('',#683,.F.);
#685=ADVANCED_FACE('',(#684),#676,.T.);
#686=CARTESIAN_POINT('',(-2.98E1,4.9E1,-3.65E0));
#687=DIRECTION('',(1.E0,0.E0,0.E0));
#688=DIRECTION('',(0.E0,-9.998154275197E-1,1.921225894212E-2));
#689=AXIS2_PLACEMENT_3D('',#686,#687,#688);
#690=TOROIDAL_SURFACE('',#689,8.E-1,2.E-1);
#691=ORIENTED_EDGE('',*,*,#677,.T.);
#693=ORIENTED_EDGE('',*,*,#692,.T.);
#695=ORIENTED_EDGE('',*,*,#694,.F.);
#696=ORIENTED_EDGE('',*,*,#651,.F.);
#697=EDGE_LOOP('',(#691,#693,#695,#696));
#698=FACE_OUTER_BOUND('',#697,.F.);
#699=ADVANCED_FACE('',(#698),#690,.T.);
#700=CARTESIAN_POINT('',(-2.98E1,4.898237575885E1,-4.45E0));
#701=DIRECTION('',(0.E0,1.E0,0.E0));
#702=DIRECTION('',(0.E0,0.E0,-1.E0));
#703=AXIS2_PLACEMENT_3D('',#700,#701,#702);
#704=CYLINDRICAL_SURFACE('',#703,2.E-1);
#706=ORIENTED_EDGE('',*,*,#705,.T.);
#708=ORIENTED_EDGE('',*,*,#707,.T.);
#710=ORIENTED_EDGE('',*,*,#709,.F.);
#711=ORIENTED_EDGE('',*,*,#692,.F.);
#712=EDGE_LOOP('',(#706,#708,#710,#711));
#713=FACE_OUTER_BOUND('',#712,.F.);
#714=ADVANCED_FACE('',(#713),#704,.T.);
#715=CARTESIAN_POINT('',(-3.5E1,7.6E1,-4.65E0));
#716=DIRECTION('',(0.E0,0.E0,-1.E0));
#717=DIRECTION('',(0.E0,-1.E0,0.E0));
#718=AXIS2_PLACEMENT_3D('',#715,#716,#717);
#719=PLANE('',#718);
#720=ORIENTED_EDGE('',*,*,#705,.F.);
#721=ORIENTED_EDGE('',*,*,#681,.T.);
#722=ORIENTED_EDGE('',*,*,#606,.T.);
#723=ORIENTED_EDGE('',*,*,#460,.T.);
#724=ORIENTED_EDGE('',*,*,#476,.F.);
#726=ORIENTED_EDGE('',*,*,#725,.F.);
#727=EDGE_LOOP('',(#720,#721,#722,#723,#724,#726));
#728=FACE_OUTER_BOUND('',#727,.F.);
#729=ADVANCED_FACE('',(#728),#719,.T.);
#730=CARTESIAN_POINT('',(0.E0,6.9E1,-4.45E0));
#731=DIRECTION('',(0.E0,0.E0,-1.E0));
#732=DIRECTION('',(-9.999998133486E-1,-6.109850117012E-4,0.E0));
#733=AXIS2_PLACEMENT_3D('',#730,#731,#732);
#734=TOROIDAL_SURFACE('',#733,2.979981697375E1,2.E-1);
#735=ORIENTED_EDGE('',*,*,#725,.T.);
#736=ORIENTED_EDGE('',*,*,#544,.T.);
#737=ORIENTED_EDGE('',*,*,#559,.F.);
#738=ORIENTED_EDGE('',*,*,#707,.F.);
#739=EDGE_LOOP('',(#735,#736,#737,#738));
#740=FACE_OUTER_BOUND('',#739,.F.);
#741=ADVANCED_FACE('',(#740),#734,.T.);
#742=CARTESIAN_POINT('',(-3.E1,4.065E1,-1.899999992034E0));
#743=DIRECTION('',(1.E0,0.E0,0.E0));
#744=DIRECTION('',(0.E0,0.E0,-1.E0));
#745=AXIS2_PLACEMENT_3D('',#742,#743,#744);
#746=PLANE('',#745);
#748=ORIENTED_EDGE('',*,*,#747,.T.);
#749=ORIENTED_EDGE('',*,*,#637,.T.);
#750=ORIENTED_EDGE('',*,*,#653,.T.);
#751=ORIENTED_EDGE('',*,*,#694,.T.);
#752=ORIENTED_EDGE('',*,*,#709,.T.);
#753=ORIENTED_EDGE('',*,*,#557,.T.);
#754=EDGE_LOOP('',(#748,#749,#750,#751,#752,#753));
#755=FACE_OUTER_BOUND('',#754,.F.);
#756=ADVANCED_FACE('',(#755),#746,.F.);
#757=CARTESIAN_POINT('',(-2.98E1,6.902751275500E1,6.5E-1));
#758=DIRECTION('',(0.E0,-1.E0,0.E0));
#759=DIRECTION('',(0.E0,0.E0,1.E0));
#760=AXIS2_PLACEMENT_3D('',#757,#758,#759);
#761=CYLINDRICAL_SURFACE('',#760,2.E-1);
#762=ORIENTED_EDGE('',*,*,#592,.T.);
#763=ORIENTED_EDGE('',*,*,#639,.T.);
#764=ORIENTED_EDGE('',*,*,#747,.F.);
#765=ORIENTED_EDGE('',*,*,#573,.F.);
#766=EDGE_LOOP('',(#762,#763,#764,#765));
#767=FACE_OUTER_BOUND('',#766,.F.);
#768=ADVANCED_FACE('',(#767),#761,.T.);
#769=CLOSED_SHELL('',(#354,#369,#436,#450,#468,#482,#548,#565,#579,#596,#614,
#628,#643,#658,#671,#685,#699,#714,#729,#741,#756,#768));
#770=MANIFOLD_SOLID_BREP('',#769);
#771=(LENGTH_UNIT()NAMED_UNIT(*)SI_UNIT(.MILLI.,.METRE.));
#772=DIMENSIONAL_EXPONENTS(0.E0,0.E0,0.E0,0.E0,0.E0,0.E0,0.E0);
#773=(NAMED_UNIT(*)PLANE_ANGLE_UNIT()SI_UNIT($,.RADIAN.));
#774=PLANE_ANGLE_MEASURE_WITH_UNIT(PLANE_ANGLE_MEASURE(1.745329251994E-2),#773);
#775=(CONVERSION_BASED_UNIT('DEGREE',#774)NAMED_UNIT(#772)PLANE_ANGLE_UNIT());
#776=(NAMED_UNIT(*)SI_UNIT($,.STERADIAN.)SOLID_ANGLE_UNIT());
#777=UNCERTAINTY_MEASURE_WITH_UNIT(LENGTH_MEASURE(1.192019123951E-3),#771,
'closure',
'Maximum model space distance between geometric entities at asserted connectivities');
#778=(GEOMETRIC_REPRESENTATION_CONTEXT(3)GLOBAL_UNCERTAINTY_ASSIGNED_CONTEXT((
#777))GLOBAL_UNIT_ASSIGNED_CONTEXT((#771,#775,#776))REPRESENTATION_CONTEXT
('ID1','3'));
#780=APPLICATION_CONTEXT(
'CONFIGURATION CONTROLLED 3D DESIGNS OF MECHANICAL PARTS AND ASSEMBLIES');
#781=APPLICATION_PROTOCOL_DEFINITION('international standard',
'config_control_design',1994,#780);
#782=DESIGN_CONTEXT('',#780,'design');
#783=MECHANICAL_CONTEXT('',#780,'mechanical');
#784=PRODUCT('ID-GTC-SD-COV_PRT','ID-GTC-SD-COV_PRT','NOT SPECIFIED',(#783));
#785=PRODUCT_DEFINITION_FORMATION_WITH_SPECIFIED_SOURCE('1','LAST_VERSION',#784,
.MADE.);
#789=PRODUCT_CATEGORY('part','');
#790=PRODUCT_RELATED_PRODUCT_CATEGORY('detail','',(#784));
#791=PRODUCT_CATEGORY_RELATIONSHIP('','',#789,#790);
#792=SECURITY_CLASSIFICATION_LEVEL('unclassified');
#793=SECURITY_CLASSIFICATION('','',#792);
#794=CC_DESIGN_SECURITY_CLASSIFICATION(#793,(#785));
#795=APPROVAL_STATUS('approved');
#796=APPROVAL(#795,'');
#797=CC_DESIGN_APPROVAL(#796,(#793,#785,#786));
#798=CALENDAR_DATE(108,30,6);
#799=COORDINATED_UNIVERSAL_TIME_OFFSET(3,0,.BEHIND.);
#800=LOCAL_TIME(11,3,3.1E1,#799);
#801=DATE_AND_TIME(#798,#800);
#802=APPROVAL_DATE_TIME(#801,#796);
#803=DATE_TIME_ROLE('creation_date');
#804=CC_DESIGN_DATE_AND_TIME_ASSIGNMENT(#801,#803,(#786));
#805=DATE_TIME_ROLE('classification_date');
#806=CC_DESIGN_DATE_AND_TIME_ASSIGNMENT(#801,#805,(#793));
#807=PERSON('UNSPECIFIED','UNSPECIFIED',$,$,$,$);
#808=ORGANIZATION('UNSPECIFIED','UNSPECIFIED','UNSPECIFIED');
#809=PERSON_AND_ORGANIZATION(#807,#808);
#810=APPROVAL_ROLE('approver');
#811=APPROVAL_PERSON_ORGANIZATION(#809,#796,#810);
#812=PERSON_AND_ORGANIZATION_ROLE('creator');
#813=CC_DESIGN_PERSON_AND_ORGANIZATION_ASSIGNMENT(#809,#812,(#785,#786));
#814=PERSON_AND_ORGANIZATION_ROLE('design_supplier');
#815=CC_DESIGN_PERSON_AND_ORGANIZATION_ASSIGNMENT(#809,#814,(#785));
#816=PERSON_AND_ORGANIZATION_ROLE('classification_officer');
#817=CC_DESIGN_PERSON_AND_ORGANIZATION_ASSIGNMENT(#809,#816,(#793));
#818=PERSON_AND_ORGANIZATION_ROLE('design_owner');
#819=CC_DESIGN_PERSON_AND_ORGANIZATION_ASSIGNMENT(#809,#818,(#784));
#17=CIRCLE('',#16,2.E-1);
#32=B_SPLINE_CURVE_WITH_KNOTS('',3,(#18,#19,#20,#21,#22,#23,#24,#25,#26,#27,#28,
#29,#30,#31),.UNSPECIFIED.,.F.,.F.,(4,1,1,1,1,1,1,1,1,1,1,4),(0.E0,
9.090909090909E-2,1.818181818182E-1,2.727272727273E-1,3.636363636364E-1,
4.545454545455E-1,5.454545454545E-1,6.363636363636E-1,7.272727272727E-1,
8.181818181818E-1,9.090909090909E-1,1.E0),.UNSPECIFIED.);
#47=B_SPLINE_CURVE_WITH_KNOTS('',3,(#33,#34,#35,#36,#37,#38,#39,#40,#41,#42,#43,
#44,#45,#46),.UNSPECIFIED.,.F.,.F.,(4,1,1,1,1,1,1,1,1,1,1,4),(0.E0,
9.090909090909E-2,1.818181818182E-1,2.727272727273E-1,3.636363636364E-1,
4.545454545455E-1,5.454545454545E-1,6.363636363636E-1,7.272727272727E-1,
8.181818181818E-1,9.090909090909E-1,1.E0),.UNSPECIFIED.);
#52=CIRCLE('',#51,2.000000001095E-1);
#71=B_SPLINE_CURVE_WITH_KNOTS('',3,(#57,#58,#59,#60,#61,#62,#63,#64,#65,#66,#67,
#68,#69,#70),.UNSPECIFIED.,.F.,.F.,(4,1,1,1,1,1,1,1,1,1,1,4),(0.E0,
9.090909090909E-2,1.818181818182E-1,2.727272727273E-1,3.636363636364E-1,
4.545454545455E-1,5.454545454545E-1,6.363636363636E-1,7.272727272727E-1,
8.181818181818E-1,9.090909090909E-1,1.E0),.UNSPECIFIED.);
#94=B_SPLINE_CURVE_WITH_KNOTS('',3,(#80,#81,#82,#83,#84,#85,#86,#87,#88,#89,#90,
#91,#92,#93),.UNSPECIFIED.,.F.,.F.,(4,1,1,1,1,1,1,1,1,1,1,4),(0.E0,
9.090909090909E-2,1.818181818182E-1,2.727272727273E-1,3.636363636364E-1,
4.545454545455E-1,5.454545454545E-1,6.363636363636E-1,7.272727272727E-1,
8.181818181818E-1,9.090909090909E-1,1.E0),.UNSPECIFIED.);
#113=B_SPLINE_CURVE_WITH_KNOTS('',3,(#99,#100,#101,#102,#103,#104,#105,#106,
#107,#108,#109,#110,#111,#112),.UNSPECIFIED.,.F.,.F.,(4,1,1,1,1,1,1,1,1,1,1,4),(
0.E0,9.090909090909E-2,1.818181818182E-1,2.727272727273E-1,3.636363636364E-1,
4.545454545455E-1,5.454545454545E-1,6.363636363636E-1,7.272727272727E-1,
8.181818181818E-1,9.090909090909E-1,1.E0),.UNSPECIFIED.);
#128=B_SPLINE_CURVE_WITH_KNOTS('',3,(#114,#115,#116,#117,#118,#119,#120,#121,
#122,#123,#124,#125,#126,#127),.UNSPECIFIED.,.F.,.F.,(4,1,1,1,1,1,1,1,1,1,1,4),(
0.E0,9.090909090909E-2,1.818181818182E-1,2.727272727273E-1,3.636363636364E-1,
4.545454545455E-1,5.454545454545E-1,6.363636363636E-1,7.272727272727E-1,
8.181818181818E-1,9.090909090909E-1,1.E0),.UNSPECIFIED.);
#133=CIRCLE('',#132,1.999999997818E-1);
#138=CIRCLE('',#137,2.979981698036E1);
#143=CIRCLE('',#142,2.999981697375E1);
#148=CIRCLE('',#147,2.E-1);
#153=CIRCLE('',#152,2.879981697375E1);
#170=CIRCLE('',#169,1.E0);
#179=CIRCLE('',#178,1.E0);
#184=CIRCLE('',#183,7.999999920988E-1);
#189=CIRCLE('',#188,2.E-1);
#202=CIRCLE('',#201,2.E-1);
#215=CIRCLE('',#214,1.E0);
#224=CIRCLE('',#223,1.E0);
#229=CIRCLE('',#228,7.999999920988E-1);
#234=CIRCLE('',#233,2.E-1);
#247=CIRCLE('',#246,2.E-1);
#256=CIRCLE('',#255,2.879981697375E1);
#261=CIRCLE('',#260,2.979981698064E1);
#266=CIRCLE('',#265,2.999981697375E1);
#271=CIRCLE('',#270,2.E-1);
#288=CIRCLE('',#287,2.E-1);
#344=EDGE_CURVE('',#337,#305,#8,.T.);
#346=EDGE_CURVE('',#337,#304,#98,.T.);
#348=EDGE_CURVE('',#301,#304,#4,.T.);
#350=EDGE_CURVE('',#305,#301,#56,.T.);
#361=EDGE_CURVE('',#305,#307,#52,.T.);
#363=EDGE_CURVE('',#338,#307,#12,.T.);
#365=EDGE_CURVE('',#337,#338,#17,.T.);
#427=EDGE_CURVE('',#305,#306,#32,.T.);
#429=EDGE_CURVE('',#306,#308,#148,.T.);
#431=EDGE_CURVE('',#307,#308,#47,.T.);
#444=EDGE_CURVE('',#301,#302,#71,.T.);
#446=EDGE_CURVE('',#306,#302,#75,.T.);
#458=EDGE_CURVE('',#303,#304,#94,.T.);
#460=EDGE_CURVE('',#291,#303,#256,.T.);
#462=EDGE_CURVE('',#291,#292,#161,.T.);
#464=EDGE_CURVE('',#292,#302,#153,.T.);
#474=EDGE_CURVE('',#334,#337,#113,.T.);
#476=EDGE_CURVE('',#334,#303,#79,.T.);
#542=EDGE_CURVE('',#336,#338,#128,.T.);
#544=EDGE_CURVE('',#334,#336,#133,.T.);
#555=EDGE_CURVE('',#308,#312,#143,.T.);
#557=EDGE_CURVE('',#332,#312,#275,.T.);
#559=EDGE_CURVE('',#332,#336,#266,.T.);
#571=EDGE_CURVE('',#306,#310,#138,.T.);
#573=EDGE_CURVE('',#310,#312,#288,.T.);
#588=EDGE_CURVE('',#295,#292,#157,.T.);
#590=EDGE_CURVE('',#314,#295,#165,.T.);
#592=EDGE_CURVE('',#310,#314,#279,.T.);
#602=EDGE_CURVE('',#295,#296,#170,.T.);
#606=EDGE_CURVE('',#300,#291,#251,.T.);
#608=EDGE_CURVE('',#299,#300,#215,.T.);
#610=EDGE_CURVE('',#299,#296,#206,.T.);
#620=EDGE_CURVE('',#314,#318,#179,.T.);
#624=EDGE_CURVE('',#318,#296,#174,.T.);
#635=EDGE_CURVE('',#318,#320,#202,.T.);
#637=EDGE_CURVE('',#316,#320,#184,.T.);
#639=EDGE_CURVE('',#314,#316,#189,.T.);
#649=EDGE_CURVE('',#318,#322,#193,.T.);
#651=EDGE_CURVE('',#322,#324,#234,.T.);
#653=EDGE_CURVE('',#320,#324,#197,.T.);
#667=EDGE_CURVE('',#322,#299,#210,.T.);
#677=EDGE_CURVE('',#322,#326,#224,.T.);
#681=EDGE_CURVE('',#326,#300,#219,.T.);
#692=EDGE_CURVE('',#326,#328,#247,.T.);
#694=EDGE_CURVE('',#324,#328,#229,.T.);
#705=EDGE_CURVE('',#326,#330,#238,.T.);
#707=EDGE_CURVE('',#330,#332,#271,.T.);
#709=EDGE_CURVE('',#328,#332,#242,.T.);
#725=EDGE_CURVE('',#330,#334,#261,.T.);
#747=EDGE_CURVE('',#312,#316,#283,.T.);
#779=ADVANCED_BREP_SHAPE_REPRESENTATION('',(#770),#778);
#786=PRODUCT_DEFINITION('design','',#785,#782);
#787=PRODUCT_DEFINITION_SHAPE('','SHAPE FOR ID-GTC-SD-COV_PRT.',#786);
#788=SHAPE_DEFINITION_REPRESENTATION(#787,#779);
ENDSEC;
END-ISO-10303-21;
