ISO-10303-21;
HEADER;
FILE_DESCRIPTION((''),'2;1');
FILE_NAME('ID-GTC-LENS-PRE_PRT','2008-06-30T',('GRA'),(''),
'PRO/ENGINEER BY PARAMETRIC TECHNOLOGY CORPORATION, 2006170',
'PRO/ENGINEER BY PARAMETRIC TECHNOLOGY CORPORATION, 2006170','');
FILE_SCHEMA(('CONFIG_CONTROL_DESIGN'));
ENDSEC;
DATA;
#1=DIRECTION('',(-1.E0,0.E0,0.E0));
#2=VECTOR('',#1,4.32E1);
#3=CARTESIAN_POINT('',(2.16E1,1.26E1,7.1E0));
#4=LINE('',#3,#2);
#5=DIRECTION('',(0.E0,1.E0,0.E0));
#6=VECTOR('',#5,5.76E1);
#7=CARTESIAN_POINT('',(-2.31E1,1.41E1,7.1E0));
#8=LINE('',#7,#6);
#9=DIRECTION('',(1.E0,0.E0,0.E0));
#10=VECTOR('',#9,4.32E1);
#11=CARTESIAN_POINT('',(-2.16E1,7.32E1,7.1E0));
#12=LINE('',#11,#10);
#13=DIRECTION('',(0.E0,-1.E0,0.E0));
#14=VECTOR('',#13,5.76E1);
#15=CARTESIAN_POINT('',(2.31E1,7.17E1,7.1E0));
#16=LINE('',#15,#14);
#17=DIRECTION('',(0.E0,0.E0,1.E0));
#18=VECTOR('',#17,1.2E0);
#19=CARTESIAN_POINT('',(2.31E1,1.41E1,5.9E0));
#20=LINE('',#19,#18);
#21=CARTESIAN_POINT('',(2.16E1,1.41E1,5.9E0));
#22=DIRECTION('',(0.E0,0.E0,-1.E0));
#23=DIRECTION('',(1.E0,0.E0,0.E0));
#24=AXIS2_PLACEMENT_3D('',#21,#22,#23);
#26=DIRECTION('',(0.E0,0.E0,1.E0));
#27=VECTOR('',#26,1.2E0);
#28=CARTESIAN_POINT('',(2.16E1,1.26E1,5.9E0));
#29=LINE('',#28,#27);
#30=CARTESIAN_POINT('',(2.16E1,1.41E1,7.1E0));
#31=DIRECTION('',(0.E0,0.E0,1.E0));
#32=DIRECTION('',(0.E0,-1.E0,0.E0));
#33=AXIS2_PLACEMENT_3D('',#30,#31,#32);
#35=DIRECTION('',(0.E0,0.E0,1.E0));
#36=VECTOR('',#35,1.2E0);
#37=CARTESIAN_POINT('',(2.16E1,7.32E1,5.9E0));
#38=LINE('',#37,#36);
#39=CARTESIAN_POINT('',(2.16E1,7.17E1,5.9E0));
#40=DIRECTION('',(0.E0,0.E0,-1.E0));
#41=DIRECTION('',(0.E0,1.E0,0.E0));
#42=AXIS2_PLACEMENT_3D('',#39,#40,#41);
#44=DIRECTION('',(0.E0,0.E0,1.E0));
#45=VECTOR('',#44,1.2E0);
#46=CARTESIAN_POINT('',(2.31E1,7.17E1,5.9E0));
#47=LINE('',#46,#45);
#48=CARTESIAN_POINT('',(2.16E1,7.17E1,7.1E0));
#49=DIRECTION('',(0.E0,0.E0,1.E0));
#50=DIRECTION('',(1.E0,0.E0,0.E0));
#51=AXIS2_PLACEMENT_3D('',#48,#49,#50);
#53=DIRECTION('',(0.E0,0.E0,1.E0));
#54=VECTOR('',#53,1.2E0);
#55=CARTESIAN_POINT('',(-2.31E1,7.17E1,5.9E0));
#56=LINE('',#55,#54);
#57=CARTESIAN_POINT('',(-2.16E1,7.17E1,5.9E0));
#58=DIRECTION('',(0.E0,0.E0,-1.E0));
#59=DIRECTION('',(-1.E0,0.E0,0.E0));
#60=AXIS2_PLACEMENT_3D('',#57,#58,#59);
#62=DIRECTION('',(0.E0,0.E0,1.E0));
#63=VECTOR('',#62,1.2E0);
#64=CARTESIAN_POINT('',(-2.16E1,7.32E1,5.9E0));
#65=LINE('',#64,#63);
#66=CARTESIAN_POINT('',(-2.16E1,7.17E1,7.1E0));
#67=DIRECTION('',(0.E0,0.E0,1.E0));
#68=DIRECTION('',(0.E0,1.E0,0.E0));
#69=AXIS2_PLACEMENT_3D('',#66,#67,#68);
#71=DIRECTION('',(0.E0,0.E0,1.E0));
#72=VECTOR('',#71,1.2E0);
#73=CARTESIAN_POINT('',(-2.16E1,1.26E1,5.9E0));
#74=LINE('',#73,#72);
#75=CARTESIAN_POINT('',(-2.16E1,1.41E1,5.9E0));
#76=DIRECTION('',(0.E0,0.E0,-1.E0));
#77=DIRECTION('',(0.E0,-1.E0,0.E0));
#78=AXIS2_PLACEMENT_3D('',#75,#76,#77);
#80=DIRECTION('',(0.E0,0.E0,1.E0));
#81=VECTOR('',#80,1.2E0);
#82=CARTESIAN_POINT('',(-2.31E1,1.41E1,5.9E0));
#83=LINE('',#82,#81);
#84=CARTESIAN_POINT('',(-2.16E1,1.41E1,7.1E0));
#85=DIRECTION('',(0.E0,0.E0,1.E0));
#86=DIRECTION('',(-1.E0,0.E0,0.E0));
#87=AXIS2_PLACEMENT_3D('',#84,#85,#86);
#89=DIRECTION('',(0.E0,-1.E0,0.E0));
#90=VECTOR('',#89,5.76E1);
#91=CARTESIAN_POINT('',(2.31E1,7.17E1,5.9E0));
#92=LINE('',#91,#90);
#93=DIRECTION('',(1.E0,0.E0,0.E0));
#94=VECTOR('',#93,4.32E1);
#95=CARTESIAN_POINT('',(-2.16E1,7.32E1,5.9E0));
#96=LINE('',#95,#94);
#97=DIRECTION('',(0.E0,1.E0,0.E0));
#98=VECTOR('',#97,5.76E1);
#99=CARTESIAN_POINT('',(-2.31E1,1.41E1,5.9E0));
#100=LINE('',#99,#98);
#101=DIRECTION('',(-1.E0,0.E0,0.E0));
#102=VECTOR('',#101,4.32E1);
#103=CARTESIAN_POINT('',(2.16E1,1.26E1,5.9E0));
#104=LINE('',#103,#102);
#105=CARTESIAN_POINT('',(2.31E1,1.41E1,5.9E0));
#106=CARTESIAN_POINT('',(2.31E1,1.41E1,7.1E0));
#107=VERTEX_POINT('',#105);
#108=VERTEX_POINT('',#106);
#109=CARTESIAN_POINT('',(2.16E1,1.26E1,5.9E0));
#110=VERTEX_POINT('',#109);
#111=CARTESIAN_POINT('',(2.16E1,1.26E1,7.1E0));
#112=VERTEX_POINT('',#111);
#113=CARTESIAN_POINT('',(2.16E1,7.32E1,5.9E0));
#114=CARTESIAN_POINT('',(2.16E1,7.32E1,7.1E0));
#115=VERTEX_POINT('',#113);
#116=VERTEX_POINT('',#114);
#117=CARTESIAN_POINT('',(2.31E1,7.17E1,5.9E0));
#118=VERTEX_POINT('',#117);
#119=CARTESIAN_POINT('',(2.31E1,7.17E1,7.1E0));
#120=VERTEX_POINT('',#119);
#121=CARTESIAN_POINT('',(-2.16E1,1.26E1,5.9E0));
#122=CARTESIAN_POINT('',(-2.16E1,1.26E1,7.1E0));
#123=VERTEX_POINT('',#121);
#124=VERTEX_POINT('',#122);
#125=CARTESIAN_POINT('',(-2.31E1,1.41E1,5.9E0));
#126=VERTEX_POINT('',#125);
#127=CARTESIAN_POINT('',(-2.31E1,1.41E1,7.1E0));
#128=VERTEX_POINT('',#127);
#129=CARTESIAN_POINT('',(-2.31E1,7.17E1,5.9E0));
#130=CARTESIAN_POINT('',(-2.31E1,7.17E1,7.1E0));
#131=VERTEX_POINT('',#129);
#132=VERTEX_POINT('',#130);
#133=CARTESIAN_POINT('',(-2.16E1,7.32E1,5.9E0));
#134=VERTEX_POINT('',#133);
#135=CARTESIAN_POINT('',(-2.16E1,7.32E1,7.1E0));
#136=VERTEX_POINT('',#135);
#137=CARTESIAN_POINT('',(-1.904149123670E0,4.064999416471E1,7.1E0));
#138=DIRECTION('',(0.E0,0.E0,1.E0));
#139=DIRECTION('',(1.E0,0.E0,0.E0));
#140=AXIS2_PLACEMENT_3D('',#137,#138,#139);
#141=PLANE('',#140);
#143=ORIENTED_EDGE('',*,*,#142,.F.);
#145=ORIENTED_EDGE('',*,*,#144,.T.);
#147=ORIENTED_EDGE('',*,*,#146,.F.);
#149=ORIENTED_EDGE('',*,*,#148,.T.);
#151=ORIENTED_EDGE('',*,*,#150,.F.);
#153=ORIENTED_EDGE('',*,*,#152,.T.);
#155=ORIENTED_EDGE('',*,*,#154,.F.);
#157=ORIENTED_EDGE('',*,*,#156,.T.);
#158=EDGE_LOOP('',(#143,#145,#147,#149,#151,#153,#155,#157));
#159=FACE_OUTER_BOUND('',#158,.F.);
#160=ADVANCED_FACE('',(#159),#141,.T.);
#161=CARTESIAN_POINT('',(2.16E1,1.41E1,5.857544098893E0));
#162=DIRECTION('',(0.E0,0.E0,1.E0));
#163=DIRECTION('',(0.E0,-1.E0,0.E0));
#164=AXIS2_PLACEMENT_3D('',#161,#162,#163);
#165=CYLINDRICAL_SURFACE('',#164,1.5E0);
#167=ORIENTED_EDGE('',*,*,#166,.F.);
#169=ORIENTED_EDGE('',*,*,#168,.T.);
#171=ORIENTED_EDGE('',*,*,#170,.T.);
#172=ORIENTED_EDGE('',*,*,#142,.T.);
#173=EDGE_LOOP('',(#167,#169,#171,#172));
#174=FACE_OUTER_BOUND('',#173,.F.);
#175=ADVANCED_FACE('',(#174),#165,.T.);
#176=CARTESIAN_POINT('',(2.31E1,4.29E1,6.5E0));
#177=DIRECTION('',(-1.E0,0.E0,0.E0));
#178=DIRECTION('',(0.E0,-1.E0,0.E0));
#179=AXIS2_PLACEMENT_3D('',#176,#177,#178);
#180=PLANE('',#179);
#181=ORIENTED_EDGE('',*,*,#166,.T.);
#182=ORIENTED_EDGE('',*,*,#156,.F.);
#184=ORIENTED_EDGE('',*,*,#183,.F.);
#186=ORIENTED_EDGE('',*,*,#185,.T.);
#187=EDGE_LOOP('',(#181,#182,#184,#186));
#188=FACE_OUTER_BOUND('',#187,.F.);
#189=ADVANCED_FACE('',(#188),#180,.F.);
#190=CARTESIAN_POINT('',(2.16E1,7.17E1,5.857544098893E0));
#191=DIRECTION('',(0.E0,0.E0,1.E0));
#192=DIRECTION('',(1.E0,0.E0,0.E0));
#193=AXIS2_PLACEMENT_3D('',#190,#191,#192);
#194=CYLINDRICAL_SURFACE('',#193,1.5E0);
#196=ORIENTED_EDGE('',*,*,#195,.F.);
#198=ORIENTED_EDGE('',*,*,#197,.T.);
#199=ORIENTED_EDGE('',*,*,#183,.T.);
#200=ORIENTED_EDGE('',*,*,#154,.T.);
#201=EDGE_LOOP('',(#196,#198,#199,#200));
#202=FACE_OUTER_BOUND('',#201,.F.);
#203=ADVANCED_FACE('',(#202),#194,.T.);
#204=CARTESIAN_POINT('',(0.E0,7.32E1,6.5E0));
#205=DIRECTION('',(0.E0,-1.E0,0.E0));
#206=DIRECTION('',(1.E0,0.E0,0.E0));
#207=AXIS2_PLACEMENT_3D('',#204,#205,#206);
#208=PLANE('',#207);
#209=ORIENTED_EDGE('',*,*,#195,.T.);
#210=ORIENTED_EDGE('',*,*,#152,.F.);
#212=ORIENTED_EDGE('',*,*,#211,.F.);
#214=ORIENTED_EDGE('',*,*,#213,.T.);
#215=EDGE_LOOP('',(#209,#210,#212,#214));
#216=FACE_OUTER_BOUND('',#215,.F.);
#217=ADVANCED_FACE('',(#216),#208,.F.);
#218=CARTESIAN_POINT('',(-2.16E1,7.17E1,5.857544098893E0));
#219=DIRECTION('',(0.E0,0.E0,1.E0));
#220=DIRECTION('',(0.E0,1.E0,0.E0));
#221=AXIS2_PLACEMENT_3D('',#218,#219,#220);
#222=CYLINDRICAL_SURFACE('',#221,1.5E0);
#224=ORIENTED_EDGE('',*,*,#223,.F.);
#226=ORIENTED_EDGE('',*,*,#225,.T.);
#227=ORIENTED_EDGE('',*,*,#211,.T.);
#228=ORIENTED_EDGE('',*,*,#150,.T.);
#229=EDGE_LOOP('',(#224,#226,#227,#228));
#230=FACE_OUTER_BOUND('',#229,.F.);
#231=ADVANCED_FACE('',(#230),#222,.T.);
#232=CARTESIAN_POINT('',(-2.31E1,4.29E1,6.5E0));
#233=DIRECTION('',(1.E0,0.E0,0.E0));
#234=DIRECTION('',(0.E0,1.E0,0.E0));
#235=AXIS2_PLACEMENT_3D('',#232,#233,#234);
#236=PLANE('',#235);
#238=ORIENTED_EDGE('',*,*,#237,.F.);
#240=ORIENTED_EDGE('',*,*,#239,.T.);
#241=ORIENTED_EDGE('',*,*,#223,.T.);
#242=ORIENTED_EDGE('',*,*,#148,.F.);
#243=EDGE_LOOP('',(#238,#240,#241,#242));
#244=FACE_OUTER_BOUND('',#243,.F.);
#245=ADVANCED_FACE('',(#244),#236,.F.);
#246=CARTESIAN_POINT('',(-2.16E1,1.41E1,5.857544098893E0));
#247=DIRECTION('',(0.E0,0.E0,1.E0));
#248=DIRECTION('',(-1.E0,0.E0,0.E0));
#249=AXIS2_PLACEMENT_3D('',#246,#247,#248);
#250=CYLINDRICAL_SURFACE('',#249,1.5E0);
#252=ORIENTED_EDGE('',*,*,#251,.F.);
#254=ORIENTED_EDGE('',*,*,#253,.T.);
#255=ORIENTED_EDGE('',*,*,#237,.T.);
#256=ORIENTED_EDGE('',*,*,#146,.T.);
#257=EDGE_LOOP('',(#252,#254,#255,#256));
#258=FACE_OUTER_BOUND('',#257,.F.);
#259=ADVANCED_FACE('',(#258),#250,.T.);
#260=CARTESIAN_POINT('',(0.E0,1.26E1,6.5E0));
#261=DIRECTION('',(0.E0,1.E0,0.E0));
#262=DIRECTION('',(-1.E0,0.E0,0.E0));
#263=AXIS2_PLACEMENT_3D('',#260,#261,#262);
#264=PLANE('',#263);
#265=ORIENTED_EDGE('',*,*,#170,.F.);
#267=ORIENTED_EDGE('',*,*,#266,.T.);
#268=ORIENTED_EDGE('',*,*,#251,.T.);
#269=ORIENTED_EDGE('',*,*,#144,.F.);
#270=EDGE_LOOP('',(#265,#267,#268,#269));
#271=FACE_OUTER_BOUND('',#270,.F.);
#272=ADVANCED_FACE('',(#271),#264,.F.);
#273=CARTESIAN_POINT('',(-1.904149123670E0,4.064999416471E1,5.9E0));
#274=DIRECTION('',(0.E0,0.E0,1.E0));
#275=DIRECTION('',(1.E0,0.E0,0.E0));
#276=AXIS2_PLACEMENT_3D('',#273,#274,#275);
#277=PLANE('',#276);
#278=ORIENTED_EDGE('',*,*,#168,.F.);
#279=ORIENTED_EDGE('',*,*,#185,.F.);
#280=ORIENTED_EDGE('',*,*,#197,.F.);
#281=ORIENTED_EDGE('',*,*,#213,.F.);
#282=ORIENTED_EDGE('',*,*,#225,.F.);
#283=ORIENTED_EDGE('',*,*,#239,.F.);
#284=ORIENTED_EDGE('',*,*,#253,.F.);
#285=ORIENTED_EDGE('',*,*,#266,.F.);
#286=EDGE_LOOP('',(#278,#279,#280,#281,#282,#283,#284,#285));
#287=FACE_OUTER_BOUND('',#286,.F.);
#288=ADVANCED_FACE('',(#287),#277,.F.);
#289=CLOSED_SHELL('',(#160,#175,#189,#203,#217,#231,#245,#259,#272,#288));
#290=MANIFOLD_SOLID_BREP('',#289);
#291=(LENGTH_UNIT()NAMED_UNIT(*)SI_UNIT(.MILLI.,.METRE.));
#292=DIMENSIONAL_EXPONENTS(0.E0,0.E0,0.E0,0.E0,0.E0,0.E0,0.E0);
#293=(NAMED_UNIT(*)PLANE_ANGLE_UNIT()SI_UNIT($,.RADIAN.));
#294=PLANE_ANGLE_MEASURE_WITH_UNIT(PLANE_ANGLE_MEASURE(1.745329251994E-2),#293);
#295=(CONVERSION_BASED_UNIT('DEGREE',#294)NAMED_UNIT(#292)PLANE_ANGLE_UNIT());
#296=(NAMED_UNIT(*)SI_UNIT($,.STERADIAN.)SOLID_ANGLE_UNIT());
#297=UNCERTAINTY_MEASURE_WITH_UNIT(LENGTH_MEASURE(3.175365068167E-3),#291,
'closure',
'Maximum model space distance between geometric entities at asserted connectivities');
#298=(GEOMETRIC_REPRESENTATION_CONTEXT(3)GLOBAL_UNCERTAINTY_ASSIGNED_CONTEXT((
#297))GLOBAL_UNIT_ASSIGNED_CONTEXT((#291,#295,#296))REPRESENTATION_CONTEXT
('ID1','3'));
#300=APPLICATION_CONTEXT(
'CONFIGURATION CONTROLLED 3D DESIGNS OF MECHANICAL PARTS AND ASSEMBLIES');
#301=APPLICATION_PROTOCOL_DEFINITION('international standard',
'config_control_design',1994,#300);
#302=DESIGN_CONTEXT('',#300,'design');
#303=MECHANICAL_CONTEXT('',#300,'mechanical');
#304=PRODUCT('ID-GTC-LENS-PRE_PRT','ID-GTC-LENS-PRE_PRT','NOT SPECIFIED',
(#303));
#305=PRODUCT_DEFINITION_FORMATION_WITH_SPECIFIED_SOURCE('1','LAST_VERSION',#304,
.MADE.);
#309=PRODUCT_CATEGORY('part','');
#310=PRODUCT_RELATED_PRODUCT_CATEGORY('detail','',(#304));
#311=PRODUCT_CATEGORY_RELATIONSHIP('','',#309,#310);
#312=SECURITY_CLASSIFICATION_LEVEL('unclassified');
#313=SECURITY_CLASSIFICATION('','',#312);
#314=CC_DESIGN_SECURITY_CLASSIFICATION(#313,(#305));
#315=APPROVAL_STATUS('approved');
#316=APPROVAL(#315,'');
#317=CC_DESIGN_APPROVAL(#316,(#313,#305,#306));
#318=CALENDAR_DATE(108,30,6);
#319=COORDINATED_UNIVERSAL_TIME_OFFSET(3,0,.BEHIND.);
#320=LOCAL_TIME(11,3,3.E1,#319);
#321=DATE_AND_TIME(#318,#320);
#322=APPROVAL_DATE_TIME(#321,#316);
#323=DATE_TIME_ROLE('creation_date');
#324=CC_DESIGN_DATE_AND_TIME_ASSIGNMENT(#321,#323,(#306));
#325=DATE_TIME_ROLE('classification_date');
#326=CC_DESIGN_DATE_AND_TIME_ASSIGNMENT(#321,#325,(#313));
#327=PERSON('UNSPECIFIED','UNSPECIFIED',$,$,$,$);
#328=ORGANIZATION('UNSPECIFIED','UNSPECIFIED','UNSPECIFIED');
#329=PERSON_AND_ORGANIZATION(#327,#328);
#330=APPROVAL_ROLE('approver');
#331=APPROVAL_PERSON_ORGANIZATION(#329,#316,#330);
#332=PERSON_AND_ORGANIZATION_ROLE('creator');
#333=CC_DESIGN_PERSON_AND_ORGANIZATION_ASSIGNMENT(#329,#332,(#305,#306));
#334=PERSON_AND_ORGANIZATION_ROLE('design_supplier');
#335=CC_DESIGN_PERSON_AND_ORGANIZATION_ASSIGNMENT(#329,#334,(#305));
#336=PERSON_AND_ORGANIZATION_ROLE('classification_officer');
#337=CC_DESIGN_PERSON_AND_ORGANIZATION_ASSIGNMENT(#329,#336,(#313));
#338=PERSON_AND_ORGANIZATION_ROLE('design_owner');
#339=CC_DESIGN_PERSON_AND_ORGANIZATION_ASSIGNMENT(#329,#338,(#304));
#25=CIRCLE('',#24,1.5E0);
#34=CIRCLE('',#33,1.5E0);
#43=CIRCLE('',#42,1.5E0);
#52=CIRCLE('',#51,1.5E0);
#61=CIRCLE('',#60,1.5E0);
#70=CIRCLE('',#69,1.5E0);
#79=CIRCLE('',#78,1.5E0);
#88=CIRCLE('',#87,1.5E0);
#142=EDGE_CURVE('',#112,#108,#34,.T.);
#144=EDGE_CURVE('',#112,#124,#4,.T.);
#146=EDGE_CURVE('',#128,#124,#88,.T.);
#148=EDGE_CURVE('',#128,#132,#8,.T.);
#150=EDGE_CURVE('',#136,#132,#70,.T.);
#152=EDGE_CURVE('',#136,#116,#12,.T.);
#154=EDGE_CURVE('',#120,#116,#52,.T.);
#156=EDGE_CURVE('',#120,#108,#16,.T.);
#166=EDGE_CURVE('',#107,#108,#20,.T.);
#168=EDGE_CURVE('',#107,#110,#25,.T.);
#170=EDGE_CURVE('',#110,#112,#29,.T.);
#183=EDGE_CURVE('',#118,#120,#47,.T.);
#185=EDGE_CURVE('',#118,#107,#92,.T.);
#195=EDGE_CURVE('',#115,#116,#38,.T.);
#197=EDGE_CURVE('',#115,#118,#43,.T.);
#211=EDGE_CURVE('',#134,#136,#65,.T.);
#213=EDGE_CURVE('',#134,#115,#96,.T.);
#223=EDGE_CURVE('',#131,#132,#56,.T.);
#225=EDGE_CURVE('',#131,#134,#61,.T.);
#237=EDGE_CURVE('',#126,#128,#83,.T.);
#239=EDGE_CURVE('',#126,#131,#100,.T.);
#251=EDGE_CURVE('',#123,#124,#74,.T.);
#253=EDGE_CURVE('',#123,#126,#79,.T.);
#266=EDGE_CURVE('',#110,#123,#104,.T.);
#299=ADVANCED_BREP_SHAPE_REPRESENTATION('',(#290),#298);
#306=PRODUCT_DEFINITION('design','',#305,#302);
#307=PRODUCT_DEFINITION_SHAPE('','SHAPE FOR ID-GTC-LENS-PRE_PRT.',#306);
#308=SHAPE_DEFINITION_REPRESENTATION(#307,#299);
ENDSEC;
END-ISO-10303-21;
