ISO-10303-21;
HEADER;
FILE_DESCRIPTION((''),'2;1');
FILE_NAME('LCM-28-SLIM-TOPPOLY_PRT','2008-06-30T',('GRA'),(''),
'PRO/ENGINEER BY PARAMETRIC TECHNOLOGY CORPORATION, 2006170',
'PRO/ENGINEER BY PARAMETRIC TECHNOLOGY CORPORATION, 2006170','');
FILE_SCHEMA(('CONFIG_CONTROL_DESIGN'));
ENDSEC;
DATA;
#2=DIRECTION('',(1.E0,0.E0,0.E0));
#3=VECTOR('',#2,5.31E1);
#4=CARTESIAN_POINT('',(-2.655E1,-3.695E1,0.E0));
#5=LINE('',#4,#3);
#6=DIRECTION('',(0.E0,1.E0,0.E0));
#7=VECTOR('',#6,7.39E1);
#8=CARTESIAN_POINT('',(2.655E1,-3.695E1,0.E0));
#9=LINE('',#8,#7);
#10=DIRECTION('',(-1.E0,0.E0,0.E0));
#11=VECTOR('',#10,5.31E1);
#12=CARTESIAN_POINT('',(2.655E1,3.695E1,0.E0));
#13=LINE('',#12,#11);
#14=DIRECTION('',(0.E0,-1.E0,0.E0));
#15=VECTOR('',#14,7.39E1);
#16=CARTESIAN_POINT('',(-2.655E1,3.695E1,0.E0));
#17=LINE('',#16,#15);
#18=DIRECTION('',(0.E0,0.E0,1.E0));
#19=VECTOR('',#18,3.6E0);
#20=CARTESIAN_POINT('',(-2.655E1,-3.695E1,0.E0));
#21=LINE('',#20,#19);
#22=DIRECTION('',(0.E0,0.E0,1.E0));
#23=VECTOR('',#22,3.6E0);
#24=CARTESIAN_POINT('',(-2.655E1,3.695E1,0.E0));
#25=LINE('',#24,#23);
#26=DIRECTION('',(0.E0,0.E0,1.E0));
#27=VECTOR('',#26,3.6E0);
#28=CARTESIAN_POINT('',(2.655E1,3.695E1,0.E0));
#29=LINE('',#28,#27);
#30=DIRECTION('',(0.E0,0.E0,1.E0));
#31=VECTOR('',#30,3.6E0);
#32=CARTESIAN_POINT('',(2.655E1,-3.695E1,0.E0));
#33=LINE('',#32,#31);
#34=DIRECTION('',(1.E0,0.E0,0.E0));
#35=VECTOR('',#34,5.31E1);
#36=CARTESIAN_POINT('',(-2.655E1,-3.695E1,3.6E0));
#37=LINE('',#36,#35);
#38=DIRECTION('',(0.E0,-1.E0,0.E0));
#39=VECTOR('',#38,7.39E1);
#40=CARTESIAN_POINT('',(-2.655E1,3.695E1,3.6E0));
#41=LINE('',#40,#39);
#42=DIRECTION('',(-1.E0,0.E0,0.E0));
#43=VECTOR('',#42,5.31E1);
#44=CARTESIAN_POINT('',(2.655E1,3.695E1,3.6E0));
#45=LINE('',#44,#43);
#46=DIRECTION('',(0.E0,1.E0,0.E0));
#47=VECTOR('',#46,7.39E1);
#48=CARTESIAN_POINT('',(2.655E1,-3.695E1,3.6E0));
#49=LINE('',#48,#47);
#50=CARTESIAN_POINT('',(-2.655E1,-3.695E1,0.E0));
#51=CARTESIAN_POINT('',(2.655E1,-3.695E1,0.E0));
#52=VERTEX_POINT('',#50);
#53=VERTEX_POINT('',#51);
#54=CARTESIAN_POINT('',(2.655E1,3.695E1,0.E0));
#55=VERTEX_POINT('',#54);
#56=CARTESIAN_POINT('',(-2.655E1,3.695E1,0.E0));
#57=VERTEX_POINT('',#56);
#58=CARTESIAN_POINT('',(-2.655E1,-3.695E1,3.6E0));
#59=CARTESIAN_POINT('',(2.655E1,-3.695E1,3.6E0));
#60=VERTEX_POINT('',#58);
#61=VERTEX_POINT('',#59);
#62=CARTESIAN_POINT('',(2.655E1,3.695E1,3.6E0));
#63=VERTEX_POINT('',#62);
#64=CARTESIAN_POINT('',(-2.655E1,3.695E1,3.6E0));
#65=VERTEX_POINT('',#64);
#66=CARTESIAN_POINT('',(0.E0,0.E0,0.E0));
#67=DIRECTION('',(0.E0,0.E0,1.E0));
#68=DIRECTION('',(1.E0,0.E0,0.E0));
#69=AXIS2_PLACEMENT_3D('',#66,#67,#68);
#70=PLANE('',#69);
#72=ORIENTED_EDGE('',*,*,#71,.T.);
#74=ORIENTED_EDGE('',*,*,#73,.T.);
#76=ORIENTED_EDGE('',*,*,#75,.T.);
#78=ORIENTED_EDGE('',*,*,#77,.T.);
#79=EDGE_LOOP('',(#72,#74,#76,#78));
#80=FACE_OUTER_BOUND('',#79,.F.);
#81=ADVANCED_FACE('',(#80),#70,.F.);
#82=CARTESIAN_POINT('',(-2.655E1,-3.695E1,0.E0));
#83=DIRECTION('',(0.E0,-1.E0,0.E0));
#84=DIRECTION('',(1.E0,0.E0,0.E0));
#85=AXIS2_PLACEMENT_3D('',#82,#83,#84);
#86=PLANE('',#85);
#87=ORIENTED_EDGE('',*,*,#71,.F.);
#89=ORIENTED_EDGE('',*,*,#88,.T.);
#91=ORIENTED_EDGE('',*,*,#90,.T.);
#93=ORIENTED_EDGE('',*,*,#92,.F.);
#94=EDGE_LOOP('',(#87,#89,#91,#93));
#95=FACE_OUTER_BOUND('',#94,.F.);
#96=ADVANCED_FACE('',(#95),#86,.T.);
#97=CARTESIAN_POINT('',(-2.655E1,3.695E1,0.E0));
#98=DIRECTION('',(-1.E0,0.E0,0.E0));
#99=DIRECTION('',(0.E0,-1.E0,0.E0));
#100=AXIS2_PLACEMENT_3D('',#97,#98,#99);
#101=PLANE('',#100);
#102=ORIENTED_EDGE('',*,*,#77,.F.);
#104=ORIENTED_EDGE('',*,*,#103,.T.);
#106=ORIENTED_EDGE('',*,*,#105,.T.);
#107=ORIENTED_EDGE('',*,*,#88,.F.);
#108=EDGE_LOOP('',(#102,#104,#106,#107));
#109=FACE_OUTER_BOUND('',#108,.F.);
#110=ADVANCED_FACE('',(#109),#101,.T.);
#111=CARTESIAN_POINT('',(2.655E1,3.695E1,0.E0));
#112=DIRECTION('',(0.E0,1.E0,0.E0));
#113=DIRECTION('',(-1.E0,0.E0,0.E0));
#114=AXIS2_PLACEMENT_3D('',#111,#112,#113);
#115=PLANE('',#114);
#116=ORIENTED_EDGE('',*,*,#75,.F.);
#118=ORIENTED_EDGE('',*,*,#117,.T.);
#120=ORIENTED_EDGE('',*,*,#119,.T.);
#121=ORIENTED_EDGE('',*,*,#103,.F.);
#122=EDGE_LOOP('',(#116,#118,#120,#121));
#123=FACE_OUTER_BOUND('',#122,.F.);
#124=ADVANCED_FACE('',(#123),#115,.T.);
#125=CARTESIAN_POINT('',(2.655E1,-3.695E1,0.E0));
#126=DIRECTION('',(1.E0,0.E0,0.E0));
#127=DIRECTION('',(0.E0,1.E0,0.E0));
#128=AXIS2_PLACEMENT_3D('',#125,#126,#127);
#129=PLANE('',#128);
#130=ORIENTED_EDGE('',*,*,#73,.F.);
#131=ORIENTED_EDGE('',*,*,#92,.T.);
#133=ORIENTED_EDGE('',*,*,#132,.T.);
#134=ORIENTED_EDGE('',*,*,#117,.F.);
#135=EDGE_LOOP('',(#130,#131,#133,#134));
#136=FACE_OUTER_BOUND('',#135,.F.);
#137=ADVANCED_FACE('',(#136),#129,.T.);
#138=CARTESIAN_POINT('',(0.E0,0.E0,3.6E0));
#139=DIRECTION('',(0.E0,0.E0,1.E0));
#140=DIRECTION('',(1.E0,0.E0,0.E0));
#141=AXIS2_PLACEMENT_3D('',#138,#139,#140);
#142=PLANE('',#141);
#143=ORIENTED_EDGE('',*,*,#90,.F.);
#144=ORIENTED_EDGE('',*,*,#105,.F.);
#145=ORIENTED_EDGE('',*,*,#119,.F.);
#146=ORIENTED_EDGE('',*,*,#132,.F.);
#147=EDGE_LOOP('',(#143,#144,#145,#146));
#148=FACE_OUTER_BOUND('',#147,.F.);
#149=ADVANCED_FACE('',(#148),#142,.T.);
#150=CLOSED_SHELL('',(#81,#96,#110,#124,#137,#149));
#151=MANIFOLD_SOLID_BREP('',#150);
#152=(LENGTH_UNIT()NAMED_UNIT(*)SI_UNIT(.MILLI.,.METRE.));
#153=DIMENSIONAL_EXPONENTS(0.E0,0.E0,0.E0,0.E0,0.E0,0.E0,0.E0);
#154=(NAMED_UNIT(*)PLANE_ANGLE_UNIT()SI_UNIT($,.RADIAN.));
#155=PLANE_ANGLE_MEASURE_WITH_UNIT(PLANE_ANGLE_MEASURE(1.745329251994E-2),#154);
#156=(CONVERSION_BASED_UNIT('DEGREE',#155)NAMED_UNIT(#153)PLANE_ANGLE_UNIT());
#157=(NAMED_UNIT(*)SI_UNIT($,.STERADIAN.)SOLID_ANGLE_UNIT());
#158=UNCERTAINTY_MEASURE_WITH_UNIT(LENGTH_MEASURE(1.000949081255E-2),#152,
'closure',
'Maximum model space distance between geometric entities at asserted connectivities');
#159=(GEOMETRIC_REPRESENTATION_CONTEXT(3)GLOBAL_UNCERTAINTY_ASSIGNED_CONTEXT((
#158))GLOBAL_UNIT_ASSIGNED_CONTEXT((#152,#156,#157))REPRESENTATION_CONTEXT
('ID1','3'));
#161=APPLICATION_CONTEXT(
'CONFIGURATION CONTROLLED 3D DESIGNS OF MECHANICAL PARTS AND ASSEMBLIES');
#162=APPLICATION_PROTOCOL_DEFINITION('international standard',
'config_control_design',1994,#161);
#163=DESIGN_CONTEXT('',#161,'design');
#164=MECHANICAL_CONTEXT('',#161,'mechanical');
#165=PRODUCT('LCM-28-SLIM-TOPPOLY_PRT','LCM-28-SLIM-TOPPOLY_PRT',
'NOT SPECIFIED',(#164));
#166=PRODUCT_DEFINITION_FORMATION_WITH_SPECIFIED_SOURCE('1','LAST_VERSION',#165,
.MADE.);
#170=PRODUCT_CATEGORY('part','');
#171=PRODUCT_RELATED_PRODUCT_CATEGORY('detail','',(#165));
#172=PRODUCT_CATEGORY_RELATIONSHIP('','',#170,#171);
#173=SECURITY_CLASSIFICATION_LEVEL('unclassified');
#174=SECURITY_CLASSIFICATION('','',#173);
#175=CC_DESIGN_SECURITY_CLASSIFICATION(#174,(#166));
#176=APPROVAL_STATUS('approved');
#177=APPROVAL(#176,'');
#178=CC_DESIGN_APPROVAL(#177,(#174,#166,#167));
#179=CALENDAR_DATE(108,30,6);
#180=COORDINATED_UNIVERSAL_TIME_OFFSET(3,0,.BEHIND.);
#181=LOCAL_TIME(11,3,3.4E1,#180);
#182=DATE_AND_TIME(#179,#181);
#183=APPROVAL_DATE_TIME(#182,#177);
#184=DATE_TIME_ROLE('creation_date');
#185=CC_DESIGN_DATE_AND_TIME_ASSIGNMENT(#182,#184,(#167));
#186=DATE_TIME_ROLE('classification_date');
#187=CC_DESIGN_DATE_AND_TIME_ASSIGNMENT(#182,#186,(#174));
#188=PERSON('UNSPECIFIED','UNSPECIFIED',$,$,$,$);
#189=ORGANIZATION('UNSPECIFIED','UNSPECIFIED','UNSPECIFIED');
#190=PERSON_AND_ORGANIZATION(#188,#189);
#191=APPROVAL_ROLE('approver');
#192=APPROVAL_PERSON_ORGANIZATION(#190,#177,#191);
#193=PERSON_AND_ORGANIZATION_ROLE('creator');
#194=CC_DESIGN_PERSON_AND_ORGANIZATION_ASSIGNMENT(#190,#193,(#166,#167));
#195=PERSON_AND_ORGANIZATION_ROLE('design_supplier');
#196=CC_DESIGN_PERSON_AND_ORGANIZATION_ASSIGNMENT(#190,#195,(#166));
#197=PERSON_AND_ORGANIZATION_ROLE('classification_officer');
#198=CC_DESIGN_PERSON_AND_ORGANIZATION_ASSIGNMENT(#190,#197,(#174));
#199=PERSON_AND_ORGANIZATION_ROLE('design_owner');
#200=CC_DESIGN_PERSON_AND_ORGANIZATION_ASSIGNMENT(#190,#199,(#165));
#71=EDGE_CURVE('',#52,#53,#5,.T.);
#73=EDGE_CURVE('',#53,#55,#9,.T.);
#75=EDGE_CURVE('',#55,#57,#13,.T.);
#77=EDGE_CURVE('',#57,#52,#17,.T.);
#88=EDGE_CURVE('',#52,#60,#21,.T.);
#90=EDGE_CURVE('',#60,#61,#37,.T.);
#92=EDGE_CURVE('',#53,#61,#33,.T.);
#103=EDGE_CURVE('',#57,#65,#25,.T.);
#105=EDGE_CURVE('',#65,#60,#41,.T.);
#117=EDGE_CURVE('',#55,#63,#29,.T.);
#119=EDGE_CURVE('',#63,#65,#45,.T.);
#132=EDGE_CURVE('',#61,#63,#49,.T.);
#160=ADVANCED_BREP_SHAPE_REPRESENTATION('',(#151),#159);
#167=PRODUCT_DEFINITION('design','',#166,#163);
#168=PRODUCT_DEFINITION_SHAPE('','SHAPE FOR LCM-28-SLIM-TOPPOLY_PRT.',#167);
#169=SHAPE_DEFINITION_REPRESENTATION(#168,#160);
ENDSEC;
END-ISO-10303-21;
