ISO-10303-21;
HEADER;
FILE_DESCRIPTION((''),'2;1');
FILE_NAME('PAD__W___ANY_PRT','2008-06-30T',('GRA'),(''),
'PRO/ENGINEER BY PARAMETRIC TECHNOLOGY CORPORATION, 2006170',
'PRO/ENGINEER BY PARAMETRIC TECHNOLOGY CORPORATION, 2006170','');
FILE_SCHEMA(('CONFIG_CONTROL_DESIGN'));
ENDSEC;
DATA;
#2=CARTESIAN_POINT('',(1.516788405346E1,2.511980645175E0,0.E0));
#3=DIRECTION('',(0.E0,0.E0,1.E0));
#4=DIRECTION('',(1.E0,0.E0,0.E0));
#5=AXIS2_PLACEMENT_3D('',#2,#3,#4);
#7=DIRECTION('',(-7.071067811865E-1,0.E0,-7.071067811865E-1));
#8=VECTOR('',#7,1.414213562373E-1);
#9=CARTESIAN_POINT('',(1.570788405346E1,2.511980645175E0,1.E-1));
#10=LINE('',#9,#8);
#11=CARTESIAN_POINT('',(1.516788405346E1,2.511980645175E0,1.E-1));
#12=DIRECTION('',(0.E0,0.E0,-1.E0));
#13=DIRECTION('',(-1.E0,0.E0,0.E0));
#14=AXIS2_PLACEMENT_3D('',#11,#12,#13);
#16=DIRECTION('',(7.071067811865E-1,0.E0,-7.071067811866E-1));
#17=VECTOR('',#16,1.414213562373E-1);
#18=CARTESIAN_POINT('',(1.462788405346E1,2.511980645175E0,1.E-1));
#19=LINE('',#18,#17);
#20=CARTESIAN_POINT('',(1.516788405346E1,2.511980645175E0,1.E-1));
#21=DIRECTION('',(0.E0,0.E0,-1.E0));
#22=DIRECTION('',(1.E0,0.E0,0.E0));
#23=AXIS2_PLACEMENT_3D('',#20,#21,#22);
#25=CARTESIAN_POINT('',(1.516788405346E1,2.511980645175E0,0.E0));
#26=DIRECTION('',(0.E0,0.E0,1.E0));
#27=DIRECTION('',(-1.E0,0.E0,0.E0));
#28=AXIS2_PLACEMENT_3D('',#25,#26,#27);
#30=DIRECTION('',(0.E0,0.E0,1.E0));
#31=VECTOR('',#30,1.E-1);
#32=CARTESIAN_POINT('',(1.570788405346E1,2.511980645175E0,1.E-1));
#33=LINE('',#32,#31);
#34=DIRECTION('',(0.E0,0.E0,1.E0));
#35=VECTOR('',#34,1.E-1);
#36=CARTESIAN_POINT('',(1.462788405346E1,2.511980645175E0,1.E-1));
#37=LINE('',#36,#35);
#38=CARTESIAN_POINT('',(1.516788405346E1,2.511980645175E0,3.E-1));
#39=DIRECTION('',(0.E0,0.E0,-1.E0));
#40=DIRECTION('',(-1.E0,0.E0,0.E0));
#41=AXIS2_PLACEMENT_3D('',#38,#39,#40);
#43=DIRECTION('',(7.071067811865E-1,0.E0,7.071067811866E-1));
#44=VECTOR('',#43,1.414213562373E-1);
#45=CARTESIAN_POINT('',(1.462788405346E1,2.511980645175E0,2.E-1));
#46=LINE('',#45,#44);
#47=CARTESIAN_POINT('',(1.516788405346E1,2.511980645175E0,2.E-1));
#48=DIRECTION('',(0.E0,0.E0,1.E0));
#49=DIRECTION('',(1.E0,0.E0,0.E0));
#50=AXIS2_PLACEMENT_3D('',#47,#48,#49);
#52=DIRECTION('',(-7.071067811865E-1,0.E0,7.071067811865E-1));
#53=VECTOR('',#52,1.414213562373E-1);
#54=CARTESIAN_POINT('',(1.570788405346E1,2.511980645175E0,2.E-1));
#55=LINE('',#54,#53);
#56=CARTESIAN_POINT('',(1.516788405346E1,2.511980645175E0,2.E-1));
#57=DIRECTION('',(0.E0,0.E0,1.E0));
#58=DIRECTION('',(-1.E0,0.E0,0.E0));
#59=AXIS2_PLACEMENT_3D('',#56,#57,#58);
#61=CARTESIAN_POINT('',(1.516788405346E1,2.511980645175E0,3.E-1));
#62=DIRECTION('',(0.E0,0.E0,-1.E0));
#63=DIRECTION('',(1.E0,0.E0,0.E0));
#64=AXIS2_PLACEMENT_3D('',#61,#62,#63);
#66=CARTESIAN_POINT('',(1.570788405346E1,2.511980645175E0,2.E-1));
#67=CARTESIAN_POINT('',(1.462788405346E1,2.511980645175E0,2.E-1));
#68=VERTEX_POINT('',#66);
#69=VERTEX_POINT('',#67);
#70=CARTESIAN_POINT('',(1.472788405346E1,2.511980645175E0,3.E-1));
#71=VERTEX_POINT('',#70);
#72=CARTESIAN_POINT('',(1.560788405346E1,2.511980645175E0,0.E0));
#73=CARTESIAN_POINT('',(1.472788405346E1,2.511980645175E0,0.E0));
#74=VERTEX_POINT('',#72);
#75=VERTEX_POINT('',#73);
#76=CARTESIAN_POINT('',(1.462788405346E1,2.511980645175E0,1.E-1));
#77=VERTEX_POINT('',#76);
#78=CARTESIAN_POINT('',(1.560788405346E1,2.511980645175E0,3.E-1));
#79=VERTEX_POINT('',#78);
#80=CARTESIAN_POINT('',(1.570788405346E1,2.511980645175E0,1.E-1));
#81=VERTEX_POINT('',#80);
#82=CARTESIAN_POINT('',(1.516788405346E1,2.511980645175E0,5.E-2));
#83=DIRECTION('',(0.E0,0.E0,1.E0));
#84=DIRECTION('',(1.E0,0.E0,0.E0));
#85=AXIS2_PLACEMENT_3D('',#82,#83,#84);
#86=CONICAL_SURFACE('',#85,4.9E-1,4.5E1);
#88=ORIENTED_EDGE('',*,*,#87,.F.);
#90=ORIENTED_EDGE('',*,*,#89,.F.);
#92=ORIENTED_EDGE('',*,*,#91,.F.);
#94=ORIENTED_EDGE('',*,*,#93,.T.);
#95=EDGE_LOOP('',(#88,#90,#92,#94));
#96=FACE_OUTER_BOUND('',#95,.F.);
#97=ADVANCED_FACE('',(#96),#86,.T.);
#98=CARTESIAN_POINT('',(1.516788405346E1,2.511980645175E0,0.E0));
#99=DIRECTION('',(0.E0,0.E0,1.E0));
#100=DIRECTION('',(1.E0,0.E0,0.E0));
#101=AXIS2_PLACEMENT_3D('',#98,#99,#100);
#102=PLANE('',#101);
#104=ORIENTED_EDGE('',*,*,#103,.T.);
#105=ORIENTED_EDGE('',*,*,#87,.T.);
#106=EDGE_LOOP('',(#104,#105));
#107=FACE_OUTER_BOUND('',#106,.F.);
#108=ADVANCED_FACE('',(#107),#102,.F.);
#109=CARTESIAN_POINT('',(1.516788405346E1,2.511980645175E0,5.E-2));
#110=DIRECTION('',(0.E0,0.E0,1.E0));
#111=DIRECTION('',(1.E0,0.E0,0.E0));
#112=AXIS2_PLACEMENT_3D('',#109,#110,#111);
#113=CONICAL_SURFACE('',#112,4.9E-1,4.5E1);
#114=ORIENTED_EDGE('',*,*,#93,.F.);
#116=ORIENTED_EDGE('',*,*,#115,.F.);
#117=ORIENTED_EDGE('',*,*,#89,.T.);
#118=ORIENTED_EDGE('',*,*,#103,.F.);
#119=EDGE_LOOP('',(#114,#116,#117,#118));
#120=FACE_OUTER_BOUND('',#119,.F.);
#121=ADVANCED_FACE('',(#120),#113,.T.);
#122=CARTESIAN_POINT('',(1.516788405346E1,2.511980645175E0,3.E-1));
#123=DIRECTION('',(0.E0,0.E0,-1.E0));
#124=DIRECTION('',(-1.E0,0.E0,0.E0));
#125=AXIS2_PLACEMENT_3D('',#122,#123,#124);
#126=CYLINDRICAL_SURFACE('',#125,5.4E-1);
#128=ORIENTED_EDGE('',*,*,#127,.F.);
#129=ORIENTED_EDGE('',*,*,#115,.T.);
#131=ORIENTED_EDGE('',*,*,#130,.T.);
#133=ORIENTED_EDGE('',*,*,#132,.T.);
#134=EDGE_LOOP('',(#128,#129,#131,#133));
#135=FACE_OUTER_BOUND('',#134,.F.);
#136=ADVANCED_FACE('',(#135),#126,.T.);
#137=CARTESIAN_POINT('',(1.516788405346E1,2.511980645175E0,3.E-1));
#138=DIRECTION('',(0.E0,0.E0,-1.E0));
#139=DIRECTION('',(-1.E0,0.E0,0.E0));
#140=AXIS2_PLACEMENT_3D('',#137,#138,#139);
#141=CYLINDRICAL_SURFACE('',#140,5.4E-1);
#143=ORIENTED_EDGE('',*,*,#142,.T.);
#144=ORIENTED_EDGE('',*,*,#130,.F.);
#145=ORIENTED_EDGE('',*,*,#91,.T.);
#146=ORIENTED_EDGE('',*,*,#127,.T.);
#147=EDGE_LOOP('',(#143,#144,#145,#146));
#148=FACE_OUTER_BOUND('',#147,.F.);
#149=ADVANCED_FACE('',(#148),#141,.T.);
#150=CARTESIAN_POINT('',(1.516788405346E1,2.511980645175E0,2.5E-1));
#151=DIRECTION('',(0.E0,0.E0,-1.E0));
#152=DIRECTION('',(-1.E0,0.E0,0.E0));
#153=AXIS2_PLACEMENT_3D('',#150,#151,#152);
#154=CONICAL_SURFACE('',#153,4.9E-1,4.5E1);
#156=ORIENTED_EDGE('',*,*,#155,.F.);
#158=ORIENTED_EDGE('',*,*,#157,.F.);
#159=ORIENTED_EDGE('',*,*,#142,.F.);
#161=ORIENTED_EDGE('',*,*,#160,.T.);
#162=EDGE_LOOP('',(#156,#158,#159,#161));
#163=FACE_OUTER_BOUND('',#162,.F.);
#164=ADVANCED_FACE('',(#163),#154,.T.);
#165=CARTESIAN_POINT('',(1.516788405346E1,2.511980645175E0,3.E-1));
#166=DIRECTION('',(0.E0,0.E0,1.E0));
#167=DIRECTION('',(1.E0,0.E0,0.E0));
#168=AXIS2_PLACEMENT_3D('',#165,#166,#167);
#169=PLANE('',#168);
#171=ORIENTED_EDGE('',*,*,#170,.T.);
#172=ORIENTED_EDGE('',*,*,#155,.T.);
#173=EDGE_LOOP('',(#171,#172));
#174=FACE_OUTER_BOUND('',#173,.F.);
#175=ADVANCED_FACE('',(#174),#169,.T.);
#176=CARTESIAN_POINT('',(1.516788405346E1,2.511980645175E0,2.5E-1));
#177=DIRECTION('',(0.E0,0.E0,-1.E0));
#178=DIRECTION('',(-1.E0,0.E0,0.E0));
#179=AXIS2_PLACEMENT_3D('',#176,#177,#178);
#180=CONICAL_SURFACE('',#179,4.9E-1,4.5E1);
#181=ORIENTED_EDGE('',*,*,#160,.F.);
#182=ORIENTED_EDGE('',*,*,#132,.F.);
#183=ORIENTED_EDGE('',*,*,#157,.T.);
#184=ORIENTED_EDGE('',*,*,#170,.F.);
#185=EDGE_LOOP('',(#181,#182,#183,#184));
#186=FACE_OUTER_BOUND('',#185,.F.);
#187=ADVANCED_FACE('',(#186),#180,.T.);
#188=CLOSED_SHELL('',(#97,#108,#121,#136,#149,#164,#175,#187));
#189=MANIFOLD_SOLID_BREP('',#188);
#190=(LENGTH_UNIT()NAMED_UNIT(*)SI_UNIT(.MILLI.,.METRE.));
#191=DIMENSIONAL_EXPONENTS(0.E0,0.E0,0.E0,0.E0,0.E0,0.E0,0.E0);
#192=(NAMED_UNIT(*)PLANE_ANGLE_UNIT()SI_UNIT($,.RADIAN.));
#193=PLANE_ANGLE_MEASURE_WITH_UNIT(PLANE_ANGLE_MEASURE(1.745329251994E-2),#192);
#194=(CONVERSION_BASED_UNIT('DEGREE',#193)NAMED_UNIT(#191)PLANE_ANGLE_UNIT());
#195=(NAMED_UNIT(*)SI_UNIT($,.STERADIAN.)SOLID_ANGLE_UNIT());
#196=UNCERTAINTY_MEASURE_WITH_UNIT(LENGTH_MEASURE(1.556472351144E-4),#190,
'closure',
'Maximum model space distance between geometric entities at asserted connectivities');
#197=(GEOMETRIC_REPRESENTATION_CONTEXT(3)GLOBAL_UNCERTAINTY_ASSIGNED_CONTEXT((
#196))GLOBAL_UNIT_ASSIGNED_CONTEXT((#190,#194,#195))REPRESENTATION_CONTEXT
('ID1','3'));
#199=APPLICATION_CONTEXT(
'CONFIGURATION CONTROLLED 3D DESIGNS OF MECHANICAL PARTS AND ASSEMBLIES');
#200=APPLICATION_PROTOCOL_DEFINITION('international standard',
'config_control_design',1994,#199);
#201=DESIGN_CONTEXT('',#199,'design');
#202=MECHANICAL_CONTEXT('',#199,'mechanical');
#203=PRODUCT('PAD__W___ANY_PRT','PAD__W___ANY_PRT','NOT SPECIFIED',(#202));
#204=PRODUCT_DEFINITION_FORMATION_WITH_SPECIFIED_SOURCE('1','LAST_VERSION',#203,
.MADE.);
#208=PRODUCT_CATEGORY('part','');
#209=PRODUCT_RELATED_PRODUCT_CATEGORY('detail','',(#203));
#210=PRODUCT_CATEGORY_RELATIONSHIP('','',#208,#209);
#211=SECURITY_CLASSIFICATION_LEVEL('unclassified');
#212=SECURITY_CLASSIFICATION('','',#211);
#213=CC_DESIGN_SECURITY_CLASSIFICATION(#212,(#204));
#214=APPROVAL_STATUS('approved');
#215=APPROVAL(#214,'');
#216=CC_DESIGN_APPROVAL(#215,(#212,#204,#205));
#217=CALENDAR_DATE(108,30,6);
#218=COORDINATED_UNIVERSAL_TIME_OFFSET(3,0,.BEHIND.);
#219=LOCAL_TIME(11,3,3.5E1,#218);
#220=DATE_AND_TIME(#217,#219);
#221=APPROVAL_DATE_TIME(#220,#215);
#222=DATE_TIME_ROLE('creation_date');
#223=CC_DESIGN_DATE_AND_TIME_ASSIGNMENT(#220,#222,(#205));
#224=DATE_TIME_ROLE('classification_date');
#225=CC_DESIGN_DATE_AND_TIME_ASSIGNMENT(#220,#224,(#212));
#226=PERSON('UNSPECIFIED','UNSPECIFIED',$,$,$,$);
#227=ORGANIZATION('UNSPECIFIED','UNSPECIFIED','UNSPECIFIED');
#228=PERSON_AND_ORGANIZATION(#226,#227);
#229=APPROVAL_ROLE('approver');
#230=APPROVAL_PERSON_ORGANIZATION(#228,#215,#229);
#231=PERSON_AND_ORGANIZATION_ROLE('creator');
#232=CC_DESIGN_PERSON_AND_ORGANIZATION_ASSIGNMENT(#228,#231,(#204,#205));
#233=PERSON_AND_ORGANIZATION_ROLE('design_supplier');
#234=CC_DESIGN_PERSON_AND_ORGANIZATION_ASSIGNMENT(#228,#233,(#204));
#235=PERSON_AND_ORGANIZATION_ROLE('classification_officer');
#236=CC_DESIGN_PERSON_AND_ORGANIZATION_ASSIGNMENT(#228,#235,(#212));
#237=PERSON_AND_ORGANIZATION_ROLE('design_owner');
#238=CC_DESIGN_PERSON_AND_ORGANIZATION_ASSIGNMENT(#228,#237,(#203));
#6=CIRCLE('',#5,4.4E-1);
#15=CIRCLE('',#14,5.4E-1);
#24=CIRCLE('',#23,5.4E-1);
#29=CIRCLE('',#28,4.4E-1);
#42=CIRCLE('',#41,4.4E-1);
#51=CIRCLE('',#50,5.4E-1);
#60=CIRCLE('',#59,5.4E-1);
#65=CIRCLE('',#64,4.4E-1);
#87=EDGE_CURVE('',#74,#75,#6,.T.);
#89=EDGE_CURVE('',#81,#74,#10,.T.);
#91=EDGE_CURVE('',#77,#81,#15,.T.);
#93=EDGE_CURVE('',#77,#75,#19,.T.);
#103=EDGE_CURVE('',#75,#74,#29,.T.);
#115=EDGE_CURVE('',#81,#77,#24,.T.);
#127=EDGE_CURVE('',#81,#68,#33,.T.);
#130=EDGE_CURVE('',#77,#69,#37,.T.);
#132=EDGE_CURVE('',#69,#68,#60,.T.);
#142=EDGE_CURVE('',#68,#69,#51,.T.);
#155=EDGE_CURVE('',#71,#79,#42,.T.);
#157=EDGE_CURVE('',#69,#71,#46,.T.);
#160=EDGE_CURVE('',#68,#79,#55,.T.);
#170=EDGE_CURVE('',#79,#71,#65,.T.);
#198=ADVANCED_BREP_SHAPE_REPRESENTATION('',(#189),#197);
#205=PRODUCT_DEFINITION('design','',#204,#201);
#206=PRODUCT_DEFINITION_SHAPE('','SHAPE FOR PAD__W___ANY_PRT.',#205);
#207=SHAPE_DEFINITION_REPRESENTATION(#206,#198);
ENDSEC;
END-ISO-10303-21;
