ISO-10303-21;
HEADER;
FILE_DESCRIPTION((''),'2;1');
FILE_NAME('PATCH_DA15_ANY_PRT','2008-06-30T',('GRA'),(''),
'PRO/ENGINEER BY PARAMETRIC TECHNOLOGY CORPORATION, 2006170',
'PRO/ENGINEER BY PARAMETRIC TECHNOLOGY CORPORATION, 2006170','');
FILE_SCHEMA(('CONFIG_CONTROL_DESIGN'));
ENDSEC;
DATA;
#2=CARTESIAN_POINT('',(9.5E0,0.E0,-6.8E0));
#3=DIRECTION('',(0.E0,1.E0,0.E0));
#4=DIRECTION('',(0.E0,0.E0,1.E0));
#5=AXIS2_PLACEMENT_3D('',#2,#3,#4);
#7=CARTESIAN_POINT('',(9.5E0,0.E0,-6.8E0));
#8=DIRECTION('',(0.E0,1.E0,0.E0));
#9=DIRECTION('',(0.E0,0.E0,-1.E0));
#10=AXIS2_PLACEMENT_3D('',#7,#8,#9);
#12=DIRECTION('',(0.E0,1.E0,0.E0));
#13=VECTOR('',#12,5.E-3);
#14=CARTESIAN_POINT('',(9.5E0,0.E0,-5.05E0));
#15=LINE('',#14,#13);
#16=CARTESIAN_POINT('',(9.5E0,5.E-3,-6.8E0));
#17=DIRECTION('',(0.E0,-1.E0,0.E0));
#18=DIRECTION('',(0.E0,0.E0,-1.E0));
#19=AXIS2_PLACEMENT_3D('',#16,#17,#18);
#21=CARTESIAN_POINT('',(9.5E0,5.E-3,-6.8E0));
#22=DIRECTION('',(0.E0,-1.E0,0.E0));
#23=DIRECTION('',(0.E0,0.E0,1.E0));
#24=AXIS2_PLACEMENT_3D('',#21,#22,#23);
#26=CARTESIAN_POINT('',(9.5E0,5.E-3,-6.8E0));
#27=DIRECTION('',(0.E0,-1.E0,0.E0));
#28=DIRECTION('',(0.E0,0.E0,-1.E0));
#29=AXIS2_PLACEMENT_3D('',#26,#27,#28);
#31=CARTESIAN_POINT('',(9.5E0,5.E-3,-6.8E0));
#32=DIRECTION('',(0.E0,-1.E0,0.E0));
#33=DIRECTION('',(0.E0,0.E0,1.E0));
#34=AXIS2_PLACEMENT_3D('',#31,#32,#33);
#36=DIRECTION('',(0.E0,-1.E0,0.E0));
#37=VECTOR('',#36,5.E-3);
#38=CARTESIAN_POINT('',(9.5E0,1.E-2,-5.25E0));
#39=LINE('',#38,#37);
#40=CARTESIAN_POINT('',(9.5E0,1.E-2,-6.8E0));
#41=DIRECTION('',(0.E0,-1.E0,0.E0));
#42=DIRECTION('',(0.E0,0.E0,-1.E0));
#43=AXIS2_PLACEMENT_3D('',#40,#41,#42);
#45=DIRECTION('',(0.E0,-1.E0,-3.552713678800E-13));
#46=VECTOR('',#45,5.E-3);
#47=CARTESIAN_POINT('',(9.5E0,1.E-2,-8.35E0));
#48=LINE('',#47,#46);
#49=CARTESIAN_POINT('',(9.5E0,1.E-2,-6.8E0));
#50=DIRECTION('',(0.E0,-1.E0,0.E0));
#51=DIRECTION('',(0.E0,0.E0,1.E0));
#52=AXIS2_PLACEMENT_3D('',#49,#50,#51);
#54=CARTESIAN_POINT('',(9.5E0,1.E-2,-6.8E0));
#55=DIRECTION('',(0.E0,-1.E0,0.E0));
#56=DIRECTION('',(0.E0,0.E0,-1.E0));
#57=AXIS2_PLACEMENT_3D('',#54,#55,#56);
#59=CARTESIAN_POINT('',(9.5E0,1.E-2,-6.8E0));
#60=DIRECTION('',(0.E0,-1.E0,0.E0));
#61=DIRECTION('',(0.E0,0.E0,1.E0));
#62=AXIS2_PLACEMENT_3D('',#59,#60,#61);
#64=DIRECTION('',(0.E0,6.427876096865E-1,7.660444431190E-1));
#65=VECTOR('',#64,7.778619134302E-1);
#66=CARTESIAN_POINT('',(9.5E0,1.E-2,-8.3E0));
#67=LINE('',#66,#65);
#68=CARTESIAN_POINT('',(9.5E0,5.1E-1,-6.8E0));
#69=DIRECTION('',(0.E0,-1.E0,0.E0));
#70=DIRECTION('',(0.E0,0.E0,-1.E0));
#71=AXIS2_PLACEMENT_3D('',#68,#69,#70);
#73=CARTESIAN_POINT('',(9.5E0,5.1E-1,-6.8E0));
#74=DIRECTION('',(0.E0,-1.E0,0.E0));
#75=DIRECTION('',(0.E0,0.E0,1.E0));
#76=AXIS2_PLACEMENT_3D('',#73,#74,#75);
#78=DIRECTION('',(0.E0,6.427876096865E-1,-7.660444431190E-1));
#79=VECTOR('',#78,7.778619134302E-1);
#80=CARTESIAN_POINT('',(9.5E0,1.E-2,-5.3E0));
#81=LINE('',#80,#79);
#82=DIRECTION('',(0.E0,1.736481776669E-1,-9.848077530122E-1));
#83=VECTOR('',#82,9.180707614633E-1);
#84=CARTESIAN_POINT('',(9.5E0,5.1E-1,-5.895876796297E0));
#85=LINE('',#84,#83);
#86=DIRECTION('',(0.E0,1.736481776669E-1,9.848077530122E-1));
#87=VECTOR('',#86,9.180707614633E-1);
#88=CARTESIAN_POINT('',(9.5E0,5.1E-1,-7.704123203703E0));
#89=LINE('',#88,#87);
#90=DIRECTION('',(0.E0,1.E0,0.E0));
#91=VECTOR('',#90,5.E-3);
#92=CARTESIAN_POINT('',(9.5E0,0.E0,-8.55E0));
#93=LINE('',#92,#91);
#94=CARTESIAN_POINT('',(5.E0,0.E0,-1.2E1));
#95=DIRECTION('',(0.E0,-1.E0,0.E0));
#96=DIRECTION('',(-1.E0,0.E0,1.681325403548E-14));
#97=AXIS2_PLACEMENT_3D('',#94,#95,#96);
#99=DIRECTION('',(7.071067811865E-1,7.071067811865E-1,1.884110950421E-14));
#100=VECTOR('',#99,5.656854249492E-1);
#101=CARTESIAN_POINT('',(2.17E0,-4.E-1,-1.2E1));
#102=LINE('',#101,#100);
#103=DIRECTION('',(1.E0,0.E0,0.E0));
#104=VECTOR('',#103,9.E0);
#105=CARTESIAN_POINT('',(5.E0,0.E0,-1.443E1));
#106=LINE('',#105,#104);
#107=DIRECTION('',(0.E0,7.071067811865E-1,7.071067811865E-1));
#108=VECTOR('',#107,5.656854249492E-1);
#109=CARTESIAN_POINT('',(5.E0,-4.E-1,-1.483E1));
#110=LINE('',#109,#108);
#111=CARTESIAN_POINT('',(1.4E1,0.E0,-1.2E1));
#112=DIRECTION('',(0.E0,-1.E0,0.E0));
#113=DIRECTION('',(0.E0,0.E0,-1.E0));
#114=AXIS2_PLACEMENT_3D('',#111,#112,#113);
#116=DIRECTION('',(1.256073966947E-14,7.071067811865E-1,7.071067811865E-1));
#117=VECTOR('',#116,5.656854249492E-1);
#118=CARTESIAN_POINT('',(1.4E1,-4.E-1,-1.483E1));
#119=LINE('',#118,#117);
#120=DIRECTION('',(-7.071067811865E-1,7.071067811865E-1,0.E0));
#121=VECTOR('',#120,5.656854249492E-1);
#122=CARTESIAN_POINT('',(1.683E1,-4.E-1,-1.2E1));
#123=LINE('',#122,#121);
#124=DIRECTION('',(7.071067811865E-1,-7.071067811865E-1,-2.355138688026E-14));
#125=VECTOR('',#124,5.656854249492E-1);
#126=CARTESIAN_POINT('',(1.643E1,0.E0,-3.E0));
#127=LINE('',#126,#125);
#128=DIRECTION('',(0.E0,0.E0,1.E0));
#129=VECTOR('',#128,9.E0);
#130=CARTESIAN_POINT('',(1.643E1,0.E0,-1.2E1));
#131=LINE('',#130,#129);
#132=CARTESIAN_POINT('',(6.E0,-4.E-1,-4.E0));
#133=DIRECTION('',(0.E0,-1.E0,0.E0));
#134=DIRECTION('',(0.E0,0.E0,1.E0));
#135=AXIS2_PLACEMENT_3D('',#132,#133,#134);
#137=DIRECTION('',(-1.E0,0.E0,0.E0));
#138=VECTOR('',#137,8.E0);
#139=CARTESIAN_POINT('',(1.4E1,-4.E-1,-1.7E-1));
#140=LINE('',#139,#138);
#141=CARTESIAN_POINT('',(1.4E1,-4.E-1,-3.E0));
#142=DIRECTION('',(0.E0,-1.E0,0.E0));
#143=DIRECTION('',(1.E0,0.E0,-1.427990038740E-14));
#144=AXIS2_PLACEMENT_3D('',#141,#142,#143);
#146=DIRECTION('',(0.E0,0.E0,1.E0));
#147=VECTOR('',#146,9.E0);
#148=CARTESIAN_POINT('',(1.683E1,-4.E-1,-1.2E1));
#149=LINE('',#148,#147);
#150=CARTESIAN_POINT('',(1.4E1,-4.E-1,-1.2E1));
#151=DIRECTION('',(0.E0,-1.E0,0.E0));
#152=DIRECTION('',(0.E0,0.E0,-1.E0));
#153=AXIS2_PLACEMENT_3D('',#150,#151,#152);
#155=DIRECTION('',(1.E0,0.E0,0.E0));
#156=VECTOR('',#155,9.E0);
#157=CARTESIAN_POINT('',(5.E0,-4.E-1,-1.483E1));
#158=LINE('',#157,#156);
#159=CARTESIAN_POINT('',(5.E0,-4.E-1,-1.2E1));
#160=DIRECTION('',(0.E0,-1.E0,0.E0));
#161=DIRECTION('',(-1.E0,0.E0,0.E0));
#162=AXIS2_PLACEMENT_3D('',#159,#160,#161);
#164=DIRECTION('',(0.E0,0.E0,-1.E0));
#165=VECTOR('',#164,8.E0);
#166=CARTESIAN_POINT('',(2.17E0,-4.E-1,-4.E0));
#167=LINE('',#166,#165);
#168=DIRECTION('',(0.E0,-1.E0,0.E0));
#169=VECTOR('',#168,3.2E0);
#170=CARTESIAN_POINT('',(1.4E1,-4.E-1,0.E0));
#171=LINE('',#170,#169);
#172=CARTESIAN_POINT('',(1.4E1,-4.E-1,-3.E0));
#173=DIRECTION('',(0.E0,-1.E0,0.E0));
#174=DIRECTION('',(1.E0,0.E0,0.E0));
#175=AXIS2_PLACEMENT_3D('',#172,#173,#174);
#177=DIRECTION('',(0.E0,-1.E0,0.E0));
#178=VECTOR('',#177,3.2E0);
#179=CARTESIAN_POINT('',(1.7E1,-4.E-1,-3.E0));
#180=LINE('',#179,#178);
#181=DIRECTION('',(0.E0,0.E0,1.E0));
#182=VECTOR('',#181,9.E0);
#183=CARTESIAN_POINT('',(1.7E1,-4.E-1,-1.2E1));
#184=LINE('',#183,#182);
#185=DIRECTION('',(0.E0,-1.E0,0.E0));
#186=VECTOR('',#185,3.2E0);
#187=CARTESIAN_POINT('',(1.7E1,-4.E-1,-1.2E1));
#188=LINE('',#187,#186);
#189=CARTESIAN_POINT('',(1.4E1,-4.E-1,-1.2E1));
#190=DIRECTION('',(0.E0,-1.E0,0.E0));
#191=DIRECTION('',(0.E0,0.E0,-1.E0));
#192=AXIS2_PLACEMENT_3D('',#189,#190,#191);
#194=DIRECTION('',(0.E0,-1.E0,0.E0));
#195=VECTOR('',#194,3.2E0);
#196=CARTESIAN_POINT('',(1.4E1,-4.E-1,-1.5E1));
#197=LINE('',#196,#195);
#198=DIRECTION('',(1.E0,0.E0,0.E0));
#199=VECTOR('',#198,9.E0);
#200=CARTESIAN_POINT('',(5.E0,-4.E-1,-1.5E1));
#201=LINE('',#200,#199);
#202=DIRECTION('',(0.E0,-1.E0,0.E0));
#203=VECTOR('',#202,3.2E0);
#204=CARTESIAN_POINT('',(5.E0,-4.E-1,-1.5E1));
#205=LINE('',#204,#203);
#206=CARTESIAN_POINT('',(5.E0,-4.E-1,-1.2E1));
#207=DIRECTION('',(0.E0,-1.E0,0.E0));
#208=DIRECTION('',(-1.E0,0.E0,0.E0));
#209=AXIS2_PLACEMENT_3D('',#206,#207,#208);
#211=DIRECTION('',(0.E0,-1.E0,0.E0));
#212=VECTOR('',#211,3.2E0);
#213=CARTESIAN_POINT('',(2.E0,-4.E-1,-1.2E1));
#214=LINE('',#213,#212);
#215=DIRECTION('',(0.E0,0.E0,-1.E0));
#216=VECTOR('',#215,8.E0);
#217=CARTESIAN_POINT('',(2.E0,-4.E-1,-4.E0));
#218=LINE('',#217,#216);
#219=DIRECTION('',(0.E0,-1.E0,0.E0));
#220=VECTOR('',#219,3.2E0);
#221=CARTESIAN_POINT('',(2.E0,-4.E-1,-4.E0));
#222=LINE('',#221,#220);
#223=CARTESIAN_POINT('',(6.E0,-4.E-1,-4.E0));
#224=DIRECTION('',(0.E0,-1.E0,0.E0));
#225=DIRECTION('',(0.E0,0.E0,1.E0));
#226=AXIS2_PLACEMENT_3D('',#223,#224,#225);
#228=DIRECTION('',(0.E0,-1.E0,0.E0));
#229=VECTOR('',#228,3.2E0);
#230=CARTESIAN_POINT('',(6.E0,-4.E-1,0.E0));
#231=LINE('',#230,#229);
#232=DIRECTION('',(-1.E0,0.E0,0.E0));
#233=VECTOR('',#232,8.E0);
#234=CARTESIAN_POINT('',(1.4E1,-4.E-1,0.E0));
#235=LINE('',#234,#233);
#236=CARTESIAN_POINT('',(6.E0,-3.6E0,-4.E0));
#237=DIRECTION('',(0.E0,-1.E0,0.E0));
#238=DIRECTION('',(0.E0,0.E0,1.E0));
#239=AXIS2_PLACEMENT_3D('',#236,#237,#238);
#241=DIRECTION('',(-1.E0,0.E0,0.E0));
#242=VECTOR('',#241,8.E0);
#243=CARTESIAN_POINT('',(1.4E1,-3.6E0,0.E0));
#244=LINE('',#243,#242);
#245=CARTESIAN_POINT('',(1.4E1,-3.6E0,-3.E0));
#246=DIRECTION('',(0.E0,-1.E0,0.E0));
#247=DIRECTION('',(1.E0,0.E0,0.E0));
#248=AXIS2_PLACEMENT_3D('',#245,#246,#247);
#250=DIRECTION('',(0.E0,0.E0,1.E0));
#251=VECTOR('',#250,9.E0);
#252=CARTESIAN_POINT('',(1.7E1,-3.6E0,-1.2E1));
#253=LINE('',#252,#251);
#254=CARTESIAN_POINT('',(1.4E1,-3.6E0,-1.2E1));
#255=DIRECTION('',(0.E0,-1.E0,0.E0));
#256=DIRECTION('',(0.E0,0.E0,-1.E0));
#257=AXIS2_PLACEMENT_3D('',#254,#255,#256);
#259=DIRECTION('',(1.E0,0.E0,0.E0));
#260=VECTOR('',#259,9.E0);
#261=CARTESIAN_POINT('',(5.E0,-3.6E0,-1.5E1));
#262=LINE('',#261,#260);
#263=CARTESIAN_POINT('',(5.E0,-3.6E0,-1.2E1));
#264=DIRECTION('',(0.E0,-1.E0,0.E0));
#265=DIRECTION('',(-1.E0,0.E0,0.E0));
#266=AXIS2_PLACEMENT_3D('',#263,#264,#265);
#268=DIRECTION('',(0.E0,0.E0,-1.E0));
#269=VECTOR('',#268,8.E0);
#270=CARTESIAN_POINT('',(2.E0,-3.6E0,-4.E0));
#271=LINE('',#270,#269);
#272=DIRECTION('',(1.E0,0.E0,0.E0));
#273=VECTOR('',#272,9.E0);
#274=CARTESIAN_POINT('',(5.E0,-3.6E0,-1.483E1));
#275=LINE('',#274,#273);
#276=DIRECTION('',(0.E0,7.071067811865E-1,-7.071067811865E-1));
#277=VECTOR('',#276,5.656854249492E-1);
#278=CARTESIAN_POINT('',(5.E0,-4.E0,-1.443E1));
#279=LINE('',#278,#277);
#280=DIRECTION('',(-1.E0,0.E0,0.E0));
#281=VECTOR('',#280,9.E0);
#282=CARTESIAN_POINT('',(1.4E1,-4.E0,-1.443E1));
#283=LINE('',#282,#281);
#284=CARTESIAN_POINT('',(1.4E1,-3.6E0,-1.2E1));
#285=DIRECTION('',(0.E0,-1.E0,0.E0));
#286=DIRECTION('',(-1.067069479498E-14,0.E0,-1.E0));
#287=AXIS2_PLACEMENT_3D('',#284,#285,#286);
#289=DIRECTION('',(0.E0,7.071067811866E-1,-7.071067811865E-1));
#290=VECTOR('',#289,5.656854249492E-1);
#291=CARTESIAN_POINT('',(1.4E1,-4.E0,-1.443E1));
#292=LINE('',#291,#290);
#293=CARTESIAN_POINT('',(1.4E1,-4.E0,-1.2E1));
#294=DIRECTION('',(0.E0,1.E0,0.E0));
#295=DIRECTION('',(1.E0,0.E0,0.E0));
#296=AXIS2_PLACEMENT_3D('',#293,#294,#295);
#298=DIRECTION('',(-7.071067811866E-1,-7.071067811865E-1,2.433643310960E-14));
#299=VECTOR('',#298,5.656854249492E-1);
#300=CARTESIAN_POINT('',(1.683E1,-3.6E0,-3.E0));
#301=LINE('',#300,#299);
#302=DIRECTION('',(0.E0,0.E0,1.E0));
#303=VECTOR('',#302,9.E0);
#304=CARTESIAN_POINT('',(1.683E1,-3.6E0,-1.2E1));
#305=LINE('',#304,#303);
#306=DIRECTION('',(7.071067811866E-1,7.071067811865E-1,0.E0));
#307=VECTOR('',#306,5.656854249492E-1);
#308=CARTESIAN_POINT('',(1.643E1,-4.E0,-1.2E1));
#309=LINE('',#308,#307);
#310=DIRECTION('',(0.E0,0.E0,-1.E0));
#311=VECTOR('',#310,9.E0);
#312=CARTESIAN_POINT('',(1.643E1,-4.E0,-3.E0));
#313=LINE('',#312,#311);
#314=CARTESIAN_POINT('',(1.4E1,-4.E0,-3.E0));
#315=DIRECTION('',(0.E0,1.E0,0.E0));
#316=DIRECTION('',(0.E0,0.E0,1.E0));
#317=AXIS2_PLACEMENT_3D('',#314,#315,#316);
#319=DIRECTION('',(0.E0,-7.071067811865E-1,-7.071067811865E-1));
#320=VECTOR('',#319,5.656854249492E-1);
#321=CARTESIAN_POINT('',(1.4E1,-3.6E0,-1.7E-1));
#322=LINE('',#321,#320);
#323=CARTESIAN_POINT('',(1.4E1,-3.6E0,-3.E0));
#324=DIRECTION('',(0.E0,-1.E0,0.E0));
#325=DIRECTION('',(1.E0,0.E0,-1.443682236968E-14));
#326=AXIS2_PLACEMENT_3D('',#323,#324,#325);
#328=CARTESIAN_POINT('',(6.E0,-4.E0,-4.E0));
#329=DIRECTION('',(0.E0,1.E0,0.E0));
#330=DIRECTION('',(-1.E0,0.E0,-1.398298386700E-14));
#331=AXIS2_PLACEMENT_3D('',#328,#329,#330);
#333=DIRECTION('',(7.071067811866E-1,-7.071067811865E-1,-1.099064721079E-14));
#334=VECTOR('',#333,5.656854249492E-1);
#335=CARTESIAN_POINT('',(2.17E0,-3.6E0,-4.E0));
#336=LINE('',#335,#334);
#337=CARTESIAN_POINT('',(6.E0,-3.6E0,-4.E0));
#338=DIRECTION('',(0.E0,-1.E0,0.E0));
#339=DIRECTION('',(0.E0,0.E0,1.E0));
#340=AXIS2_PLACEMENT_3D('',#337,#338,#339);
#342=DIRECTION('',(1.E0,0.E0,0.E0));
#343=VECTOR('',#342,8.E0);
#344=CARTESIAN_POINT('',(6.E0,-4.E0,-5.7E-1));
#345=LINE('',#344,#343);
#346=DIRECTION('',(0.E0,-7.071067811865E-1,-7.071067811865E-1));
#347=VECTOR('',#346,5.656854249492E-1);
#348=CARTESIAN_POINT('',(6.E0,-3.6E0,-1.7E-1));
#349=LINE('',#348,#347);
#350=DIRECTION('',(-1.E0,0.E0,0.E0));
#351=VECTOR('',#350,8.E0);
#352=CARTESIAN_POINT('',(1.4E1,-3.6E0,-1.7E-1));
#353=LINE('',#352,#351);
#354=DIRECTION('',(0.E0,0.E0,-1.E0));
#355=VECTOR('',#354,8.E0);
#356=CARTESIAN_POINT('',(2.17E0,-3.6E0,-4.E0));
#357=LINE('',#356,#355);
#358=DIRECTION('',(0.E0,0.E0,1.E0));
#359=VECTOR('',#358,8.E0);
#360=CARTESIAN_POINT('',(2.57E0,-4.E0,-1.2E1));
#361=LINE('',#360,#359);
#362=CARTESIAN_POINT('',(5.E0,-3.6E0,-1.2E1));
#363=DIRECTION('',(0.E0,-1.E0,0.E0));
#364=DIRECTION('',(-1.E0,0.E0,0.E0));
#365=AXIS2_PLACEMENT_3D('',#362,#363,#364);
#367=DIRECTION('',(-7.071067811865E-1,7.071067811865E-1,-3.768221900841E-14));
#368=VECTOR('',#367,5.656854249492E-1);
#369=CARTESIAN_POINT('',(2.57E0,-4.E0,-1.2E1));
#370=LINE('',#369,#368);
#371=CARTESIAN_POINT('',(5.E0,-4.E0,-1.2E1));
#372=DIRECTION('',(0.E0,1.E0,0.E0));
#373=DIRECTION('',(0.E0,0.E0,-1.E0));
#374=AXIS2_PLACEMENT_3D('',#371,#372,#373);
#376=DIRECTION('',(0.E0,-1.E0,0.E0));
#377=VECTOR('',#376,4.01E0);
#378=CARTESIAN_POINT('',(9.5E0,1.E-2,-7.465E0));
#379=LINE('',#378,#377);
#380=CARTESIAN_POINT('',(9.5E0,9.999999999999E-3,-6.8E0));
#381=DIRECTION('',(0.E0,1.E0,0.E0));
#382=DIRECTION('',(0.E0,0.E0,1.E0));
#383=AXIS2_PLACEMENT_3D('',#380,#381,#382);
#385=CARTESIAN_POINT('',(9.5E0,-4.E0,-6.8E0));
#386=DIRECTION('',(0.E0,-1.E0,0.E0));
#387=DIRECTION('',(0.E0,0.E0,-1.E0));
#388=AXIS2_PLACEMENT_3D('',#385,#386,#387);
#390=CARTESIAN_POINT('',(9.5E0,-4.E0,-6.8E0));
#391=DIRECTION('',(0.E0,-1.E0,0.E0));
#392=DIRECTION('',(0.E0,0.E0,1.E0));
#393=AXIS2_PLACEMENT_3D('',#390,#391,#392);
#395=DIRECTION('',(0.E0,-1.E0,0.E0));
#396=VECTOR('',#395,4.01E0);
#397=CARTESIAN_POINT('',(9.5E0,1.E-2,-6.135E0));
#398=LINE('',#397,#396);
#399=CARTESIAN_POINT('',(9.5E0,9.999999999999E-3,-6.8E0));
#400=DIRECTION('',(0.E0,1.E0,0.E0));
#401=DIRECTION('',(0.E0,0.E0,-1.E0));
#402=AXIS2_PLACEMENT_3D('',#399,#400,#401);
#404=DIRECTION('',(-7.071067811865E-1,-7.071067811865E-1,1.099064721079E-14));
#405=VECTOR('',#404,5.656854249492E-1);
#406=CARTESIAN_POINT('',(2.57E0,0.E0,-4.E0));
#407=LINE('',#406,#405);
#408=CARTESIAN_POINT('',(6.E0,0.E0,-4.E0));
#409=DIRECTION('',(0.E0,-1.E0,0.E0));
#410=DIRECTION('',(0.E0,0.E0,1.E0));
#411=AXIS2_PLACEMENT_3D('',#408,#409,#410);
#413=DIRECTION('',(0.E0,-7.071067811865E-1,7.071067811865E-1));
#414=VECTOR('',#413,5.656854249492E-1);
#415=CARTESIAN_POINT('',(6.E0,0.E0,-5.7E-1));
#416=LINE('',#415,#414);
#417=DIRECTION('',(-1.E0,0.E0,0.E0));
#418=VECTOR('',#417,8.E0);
#419=CARTESIAN_POINT('',(1.4E1,0.E0,-5.7E-1));
#420=LINE('',#419,#418);
#421=DIRECTION('',(0.E0,-7.071067811865E-1,7.071067811865E-1));
#422=VECTOR('',#421,5.656854249492E-1);
#423=CARTESIAN_POINT('',(1.4E1,0.E0,-5.7E-1));
#424=LINE('',#423,#422);
#425=CARTESIAN_POINT('',(1.4E1,0.E0,-3.E0));
#426=DIRECTION('',(0.E0,-1.E0,0.E0));
#427=DIRECTION('',(1.E0,0.E0,0.E0));
#428=AXIS2_PLACEMENT_3D('',#425,#426,#427);
#430=DIRECTION('',(0.E0,0.E0,-1.E0));
#431=VECTOR('',#430,8.E0);
#432=CARTESIAN_POINT('',(2.57E0,0.E0,-4.E0));
#433=LINE('',#432,#431);
#434=CARTESIAN_POINT('',(9.5E0,5.E-3,-5.25E0));
#435=CARTESIAN_POINT('',(9.5E0,5.E-3,-8.35E0));
#436=VERTEX_POINT('',#434);
#437=VERTEX_POINT('',#435);
#438=CARTESIAN_POINT('',(2.57E0,0.E0,-1.2E1));
#439=CARTESIAN_POINT('',(5.E0,0.E0,-1.443E1));
#440=VERTEX_POINT('',#438);
#441=VERTEX_POINT('',#439);
#442=CARTESIAN_POINT('',(9.5E0,5.1E-1,-7.704123203703E0));
#443=CARTESIAN_POINT('',(9.5E0,5.1E-1,-5.895876796297E0));
#444=VERTEX_POINT('',#442);
#445=VERTEX_POINT('',#443);
#446=CARTESIAN_POINT('',(9.5E0,1.E-2,-8.35E0));
#447=VERTEX_POINT('',#446);
#448=CARTESIAN_POINT('',(9.5E0,1.E-2,-8.3E0));
#449=VERTEX_POINT('',#448);
#450=CARTESIAN_POINT('',(9.5E0,1.E-2,-5.3E0));
#451=VERTEX_POINT('',#450);
#452=CARTESIAN_POINT('',(9.5E0,6.694213146974E-1,-6.8E0));
#453=VERTEX_POINT('',#452);
#454=CARTESIAN_POINT('',(9.5E0,1.E-2,-6.135E0));
#455=CARTESIAN_POINT('',(9.5E0,-4.E0,-6.135E0));
#456=VERTEX_POINT('',#454);
#457=VERTEX_POINT('',#455);
#458=CARTESIAN_POINT('',(9.5E0,1.E-2,-5.25E0));
#459=VERTEX_POINT('',#458);
#460=CARTESIAN_POINT('',(9.5E0,1.E-2,-7.465E0));
#461=CARTESIAN_POINT('',(9.5E0,-4.E0,-7.465E0));
#462=VERTEX_POINT('',#460);
#463=VERTEX_POINT('',#461);
#464=CARTESIAN_POINT('',(2.17E0,-3.6E0,-4.E0));
#465=CARTESIAN_POINT('',(2.57E0,-4.E0,-4.E0));
#466=VERTEX_POINT('',#464);
#467=VERTEX_POINT('',#465);
#468=CARTESIAN_POINT('',(1.643E1,0.E0,-3.E0));
#469=CARTESIAN_POINT('',(1.683E1,-4.E-1,-3.E0));
#470=VERTEX_POINT('',#468);
#471=VERTEX_POINT('',#469);
#472=CARTESIAN_POINT('',(1.4E1,-4.E-1,-1.7E-1));
#473=CARTESIAN_POINT('',(6.E0,-4.E-1,-1.7E-1));
#474=VERTEX_POINT('',#472);
#475=VERTEX_POINT('',#473);
#476=CARTESIAN_POINT('',(1.683E1,-4.E-1,-1.2E1));
#477=VERTEX_POINT('',#476);
#478=CARTESIAN_POINT('',(1.4E1,-4.E-1,-1.483E1));
#479=VERTEX_POINT('',#478);
#480=CARTESIAN_POINT('',(1.643E1,0.E0,-1.2E1));
#481=VERTEX_POINT('',#480);
#482=CARTESIAN_POINT('',(2.17E0,-4.E-1,-1.2E1));
#483=CARTESIAN_POINT('',(5.E0,-4.E-1,-1.483E1));
#484=VERTEX_POINT('',#482);
#485=VERTEX_POINT('',#483);
#486=CARTESIAN_POINT('',(2.17E0,-4.E-1,-4.E0));
#487=VERTEX_POINT('',#486);
#488=CARTESIAN_POINT('',(2.57E0,0.E0,-4.E0));
#489=VERTEX_POINT('',#488);
#490=CARTESIAN_POINT('',(6.E0,0.E0,-5.7E-1));
#491=VERTEX_POINT('',#490);
#492=CARTESIAN_POINT('',(1.4E1,0.E0,-1.443E1));
#493=VERTEX_POINT('',#492);
#494=CARTESIAN_POINT('',(1.4E1,0.E0,-5.7E-1));
#495=VERTEX_POINT('',#494);
#496=CARTESIAN_POINT('',(5.E0,-4.E0,-1.443E1));
#497=CARTESIAN_POINT('',(5.E0,-3.6E0,-1.483E1));
#498=VERTEX_POINT('',#496);
#499=VERTEX_POINT('',#497);
#500=CARTESIAN_POINT('',(1.4E1,-3.6E0,-1.7E-1));
#501=CARTESIAN_POINT('',(1.4E1,-4.E0,-5.7E-1));
#502=VERTEX_POINT('',#500);
#503=VERTEX_POINT('',#501);
#504=CARTESIAN_POINT('',(6.E0,-3.6E0,-1.7E-1));
#505=CARTESIAN_POINT('',(6.E0,-4.E0,-5.7E-1));
#506=VERTEX_POINT('',#504);
#507=VERTEX_POINT('',#505);
#508=CARTESIAN_POINT('',(1.4E1,-4.E0,-1.443E1));
#509=CARTESIAN_POINT('',(1.4E1,-3.6E0,-1.483E1));
#510=VERTEX_POINT('',#508);
#511=VERTEX_POINT('',#509);
#512=CARTESIAN_POINT('',(2.57E0,-4.E0,-1.2E1));
#513=CARTESIAN_POINT('',(2.17E0,-3.6E0,-1.2E1));
#514=VERTEX_POINT('',#512);
#515=VERTEX_POINT('',#513);
#516=CARTESIAN_POINT('',(1.7E1,-4.E-1,-3.E0));
#517=CARTESIAN_POINT('',(1.7E1,-3.6E0,-3.E0));
#518=VERTEX_POINT('',#516);
#519=VERTEX_POINT('',#517);
#520=CARTESIAN_POINT('',(6.E0,-3.6E0,0.E0));
#521=CARTESIAN_POINT('',(2.E0,-3.6E0,-4.E0));
#522=VERTEX_POINT('',#520);
#523=VERTEX_POINT('',#521);
#524=CARTESIAN_POINT('',(6.E0,-4.E-1,0.E0));
#525=CARTESIAN_POINT('',(2.E0,-4.E-1,-4.E0));
#526=VERTEX_POINT('',#524);
#527=VERTEX_POINT('',#525);
#528=CARTESIAN_POINT('',(1.4E1,-4.E-1,0.E0));
#529=VERTEX_POINT('',#528);
#530=CARTESIAN_POINT('',(1.4E1,-3.6E0,0.E0));
#531=VERTEX_POINT('',#530);
#532=CARTESIAN_POINT('',(1.7E1,-4.E-1,-1.2E1));
#533=VERTEX_POINT('',#532);
#534=CARTESIAN_POINT('',(2.E0,-3.6E0,-1.2E1));
#535=CARTESIAN_POINT('',(5.E0,-3.6E0,-1.5E1));
#536=VERTEX_POINT('',#534);
#537=VERTEX_POINT('',#535);
#538=CARTESIAN_POINT('',(1.4E1,-4.E-1,-1.5E1));
#539=CARTESIAN_POINT('',(1.4E1,-3.6E0,-1.5E1));
#540=VERTEX_POINT('',#538);
#541=VERTEX_POINT('',#539);
#542=CARTESIAN_POINT('',(1.7E1,-3.6E0,-1.2E1));
#543=VERTEX_POINT('',#542);
#544=CARTESIAN_POINT('',(5.E0,-4.E-1,-1.5E1));
#545=VERTEX_POINT('',#544);
#546=CARTESIAN_POINT('',(2.E0,-4.E-1,-1.2E1));
#547=VERTEX_POINT('',#546);
#548=CARTESIAN_POINT('',(1.643E1,-4.E0,-1.2E1));
#549=VERTEX_POINT('',#548);
#550=CARTESIAN_POINT('',(1.643E1,-4.E0,-3.E0));
#551=VERTEX_POINT('',#550);
#552=CARTESIAN_POINT('',(1.683E1,-3.6E0,-1.2E1));
#553=CARTESIAN_POINT('',(1.683E1,-3.6E0,-3.E0));
#554=VERTEX_POINT('',#552);
#555=VERTEX_POINT('',#553);
#556=CARTESIAN_POINT('',(9.5E0,0.E0,-5.05E0));
#557=CARTESIAN_POINT('',(9.5E0,0.E0,-8.55E0));
#558=VERTEX_POINT('',#556);
#559=VERTEX_POINT('',#557);
#560=CARTESIAN_POINT('',(9.5E0,5.E-3,-8.55E0));
#561=CARTESIAN_POINT('',(9.5E0,5.E-3,-5.05E0));
#562=VERTEX_POINT('',#560);
#563=VERTEX_POINT('',#561);
#564=CARTESIAN_POINT('',(1.4E1,0.E0,-3.E0));
#565=DIRECTION('',(0.E0,-1.E0,0.E0));
#566=DIRECTION('',(0.E0,0.E0,-1.E0));
#567=AXIS2_PLACEMENT_3D('',#564,#565,#566);
#568=PLANE('',#567);
#570=ORIENTED_EDGE('',*,*,#569,.T.);
#572=ORIENTED_EDGE('',*,*,#571,.T.);
#574=ORIENTED_EDGE('',*,*,#573,.T.);
#576=ORIENTED_EDGE('',*,*,#575,.T.);
#578=ORIENTED_EDGE('',*,*,#577,.T.);
#580=ORIENTED_EDGE('',*,*,#579,.T.);
#582=ORIENTED_EDGE('',*,*,#581,.T.);
#584=ORIENTED_EDGE('',*,*,#583,.T.);
#585=EDGE_LOOP('',(#570,#572,#574,#576,#578,#580,#582,#584));
#586=FACE_OUTER_BOUND('',#585,.F.);
#588=ORIENTED_EDGE('',*,*,#587,.T.);
#590=ORIENTED_EDGE('',*,*,#589,.T.);
#591=EDGE_LOOP('',(#588,#590));
#592=FACE_BOUND('',#591,.F.);
#593=ADVANCED_FACE('',(#586,#592),#568,.F.);
#594=CARTESIAN_POINT('',(9.5E0,0.E0,-6.8E0));
#595=DIRECTION('',(0.E0,-1.E0,0.E0));
#596=DIRECTION('',(-1.E0,0.E0,0.E0));
#597=AXIS2_PLACEMENT_3D('',#594,#595,#596);
#598=CYLINDRICAL_SURFACE('',#597,1.75E0);
#600=ORIENTED_EDGE('',*,*,#599,.F.);
#602=ORIENTED_EDGE('',*,*,#601,.F.);
#603=ORIENTED_EDGE('',*,*,#587,.F.);
#605=ORIENTED_EDGE('',*,*,#604,.T.);
#606=EDGE_LOOP('',(#600,#602,#603,#605));
#607=FACE_OUTER_BOUND('',#606,.F.);
#608=ADVANCED_FACE('',(#607),#598,.T.);
#609=CARTESIAN_POINT('',(9.5E0,5.E-3,-6.8E0));
#610=DIRECTION('',(0.E0,1.E0,0.E0));
#611=DIRECTION('',(0.E0,0.E0,1.E0));
#612=AXIS2_PLACEMENT_3D('',#609,#610,#611);
#613=PLANE('',#612);
#614=ORIENTED_EDGE('',*,*,#599,.T.);
#616=ORIENTED_EDGE('',*,*,#615,.T.);
#617=EDGE_LOOP('',(#614,#616));
#618=FACE_OUTER_BOUND('',#617,.F.);
#620=ORIENTED_EDGE('',*,*,#619,.F.);
#622=ORIENTED_EDGE('',*,*,#621,.F.);
#623=EDGE_LOOP('',(#620,#622));
#624=FACE_BOUND('',#623,.F.);
#625=ADVANCED_FACE('',(#618,#624),#613,.T.);
#626=CARTESIAN_POINT('',(9.5E0,5.E-3,-6.8E0));
#627=DIRECTION('',(0.E0,1.E0,0.E0));
#628=DIRECTION('',(0.E0,0.E0,1.E0));
#629=AXIS2_PLACEMENT_3D('',#626,#627,#628);
#630=CYLINDRICAL_SURFACE('',#629,1.55E0);
#631=ORIENTED_EDGE('',*,*,#619,.T.);
#633=ORIENTED_EDGE('',*,*,#632,.F.);
#635=ORIENTED_EDGE('',*,*,#634,.F.);
#637=ORIENTED_EDGE('',*,*,#636,.T.);
#638=EDGE_LOOP('',(#631,#633,#635,#637));
#639=FACE_OUTER_BOUND('',#638,.F.);
#640=ADVANCED_FACE('',(#639),#630,.T.);
#641=CARTESIAN_POINT('',(9.5E0,5.E-3,-6.8E0));
#642=DIRECTION('',(0.E0,1.E0,0.E0));
#643=DIRECTION('',(0.E0,0.E0,1.E0));
#644=AXIS2_PLACEMENT_3D('',#641,#642,#643);
#645=CYLINDRICAL_SURFACE('',#644,1.55E0);
#646=ORIENTED_EDGE('',*,*,#636,.F.);
#648=ORIENTED_EDGE('',*,*,#647,.F.);
#649=ORIENTED_EDGE('',*,*,#632,.T.);
#650=ORIENTED_EDGE('',*,*,#621,.T.);
#651=EDGE_LOOP('',(#646,#648,#649,#650));
#652=FACE_OUTER_BOUND('',#651,.F.);
#653=ADVANCED_FACE('',(#652),#645,.T.);
#654=CARTESIAN_POINT('',(5.1E0,1.E-2,-1.19E1));
#655=DIRECTION('',(0.E0,-1.E0,0.E0));
#656=DIRECTION('',(0.E0,0.E0,-1.E0));
#657=AXIS2_PLACEMENT_3D('',#654,#655,#656);
#658=PLANE('',#657);
#659=ORIENTED_EDGE('',*,*,#634,.T.);
#660=ORIENTED_EDGE('',*,*,#647,.T.);
#661=EDGE_LOOP('',(#659,#660));
#662=FACE_OUTER_BOUND('',#661,.F.);
#664=ORIENTED_EDGE('',*,*,#663,.F.);
#666=ORIENTED_EDGE('',*,*,#665,.F.);
#667=EDGE_LOOP('',(#664,#666));
#668=FACE_BOUND('',#667,.F.);
#669=ADVANCED_FACE('',(#662,#668),#658,.F.);
#670=CARTESIAN_POINT('',(9.5E0,2.6E-1,-6.8E0));
#671=DIRECTION('',(0.E0,-1.E0,0.E0));
#672=DIRECTION('',(0.E0,0.E0,1.E0));
#673=AXIS2_PLACEMENT_3D('',#670,#671,#672);
#674=CONICAL_SURFACE('',#673,1.202061601851E0,5.E1);
#676=ORIENTED_EDGE('',*,*,#675,.F.);
#677=ORIENTED_EDGE('',*,*,#663,.T.);
#679=ORIENTED_EDGE('',*,*,#678,.T.);
#681=ORIENTED_EDGE('',*,*,#680,.F.);
#682=EDGE_LOOP('',(#676,#677,#679,#681));
#683=FACE_OUTER_BOUND('',#682,.F.);
#684=ADVANCED_FACE('',(#683),#674,.T.);
#685=CARTESIAN_POINT('',(9.5E0,2.6E-1,-6.8E0));
#686=DIRECTION('',(0.E0,-1.E0,0.E0));
#687=DIRECTION('',(0.E0,0.E0,1.E0));
#688=AXIS2_PLACEMENT_3D('',#685,#686,#687);
#689=CONICAL_SURFACE('',#688,1.202061601851E0,5.E1);
#691=ORIENTED_EDGE('',*,*,#690,.F.);
#692=ORIENTED_EDGE('',*,*,#678,.F.);
#693=ORIENTED_EDGE('',*,*,#665,.T.);
#694=ORIENTED_EDGE('',*,*,#675,.T.);
#695=EDGE_LOOP('',(#691,#692,#693,#694));
#696=FACE_OUTER_BOUND('',#695,.F.);
#697=ADVANCED_FACE('',(#696),#689,.T.);
#698=CARTESIAN_POINT('',(9.5E0,5.874475661406E-1,-6.8E0));
#699=DIRECTION('',(0.E0,-1.E0,0.E0));
#700=DIRECTION('',(0.E0,0.E0,1.E0));
#701=AXIS2_PLACEMENT_3D('',#698,#699,#700);
#702=CONICAL_SURFACE('',#701,4.648962298762E-1,8.E1);
#704=ORIENTED_EDGE('',*,*,#703,.F.);
#705=ORIENTED_EDGE('',*,*,#690,.T.);
#707=ORIENTED_EDGE('',*,*,#706,.T.);
#708=EDGE_LOOP('',(#704,#705,#707));
#709=FACE_OUTER_BOUND('',#708,.F.);
#710=ADVANCED_FACE('',(#709),#702,.T.);
#711=CARTESIAN_POINT('',(9.5E0,5.874475661406E-1,-6.8E0));
#712=DIRECTION('',(0.E0,-1.E0,0.E0));
#713=DIRECTION('',(0.E0,0.E0,1.E0));
#714=AXIS2_PLACEMENT_3D('',#711,#712,#713);
#715=CONICAL_SURFACE('',#714,4.648962298762E-1,8.E1);
#716=ORIENTED_EDGE('',*,*,#706,.F.);
#717=ORIENTED_EDGE('',*,*,#680,.T.);
#718=ORIENTED_EDGE('',*,*,#703,.T.);
#719=EDGE_LOOP('',(#716,#717,#718));
#720=FACE_OUTER_BOUND('',#719,.F.);
#721=ADVANCED_FACE('',(#720),#715,.T.);
#722=CARTESIAN_POINT('',(9.5E0,0.E0,-6.8E0));
#723=DIRECTION('',(0.E0,-1.E0,0.E0));
#724=DIRECTION('',(-1.E0,0.E0,0.E0));
#725=AXIS2_PLACEMENT_3D('',#722,#723,#724);
#726=CYLINDRICAL_SURFACE('',#725,1.75E0);
#727=ORIENTED_EDGE('',*,*,#615,.F.);
#728=ORIENTED_EDGE('',*,*,#604,.F.);
#729=ORIENTED_EDGE('',*,*,#589,.F.);
#730=ORIENTED_EDGE('',*,*,#601,.T.);
#731=EDGE_LOOP('',(#727,#728,#729,#730));
#732=FACE_OUTER_BOUND('',#731,.F.);
#733=ADVANCED_FACE('',(#732),#726,.T.);
#734=CARTESIAN_POINT('',(5.E0,-2.E-1,-1.2E1));
#735=DIRECTION('',(0.E0,-1.E0,0.E0));
#736=DIRECTION('',(0.E0,0.E0,-1.E0));
#737=AXIS2_PLACEMENT_3D('',#734,#735,#736);
#738=CONICAL_SURFACE('',#737,2.63E0,4.5E1);
#740=ORIENTED_EDGE('',*,*,#739,.T.);
#741=ORIENTED_EDGE('',*,*,#569,.F.);
#743=ORIENTED_EDGE('',*,*,#742,.F.);
#745=ORIENTED_EDGE('',*,*,#744,.T.);
#746=EDGE_LOOP('',(#740,#741,#743,#745));
#747=FACE_OUTER_BOUND('',#746,.F.);
#748=ADVANCED_FACE('',(#747),#738,.T.);
#749=CARTESIAN_POINT('',(1.4E1,-4.E-1,-1.483E1));
#750=DIRECTION('',(0.E0,-7.071067811865E-1,7.071067811865E-1));
#751=DIRECTION('',(0.E0,-7.071067811865E-1,-7.071067811865E-1));
#752=AXIS2_PLACEMENT_3D('',#749,#750,#751);
#753=PLANE('',#752);
#755=ORIENTED_EDGE('',*,*,#754,.T.);
#756=ORIENTED_EDGE('',*,*,#571,.F.);
#757=ORIENTED_EDGE('',*,*,#739,.F.);
#759=ORIENTED_EDGE('',*,*,#758,.T.);
#760=EDGE_LOOP('',(#755,#756,#757,#759));
#761=FACE_OUTER_BOUND('',#760,.F.);
#762=ADVANCED_FACE('',(#761),#753,.F.);
#763=CARTESIAN_POINT('',(1.4E1,-2.E-1,-1.2E1));
#764=DIRECTION('',(0.E0,-1.E0,0.E0));
#765=DIRECTION('',(0.E0,0.E0,-1.E0));
#766=AXIS2_PLACEMENT_3D('',#763,#764,#765);
#767=CONICAL_SURFACE('',#766,2.63E0,4.5E1);
#769=ORIENTED_EDGE('',*,*,#768,.T.);
#770=ORIENTED_EDGE('',*,*,#573,.F.);
#771=ORIENTED_EDGE('',*,*,#754,.F.);
#773=ORIENTED_EDGE('',*,*,#772,.T.);
#774=EDGE_LOOP('',(#769,#770,#771,#773));
#775=FACE_OUTER_BOUND('',#774,.F.);
#776=ADVANCED_FACE('',(#775),#767,.T.);
#777=CARTESIAN_POINT('',(1.683E1,-4.E-1,-3.E0));
#778=DIRECTION('',(-7.071067811865E-1,-7.071067811865E-1,0.E0));
#779=DIRECTION('',(7.071067811865E-1,-7.071067811865E-1,0.E0));
#780=AXIS2_PLACEMENT_3D('',#777,#778,#779);
#781=PLANE('',#780);
#782=ORIENTED_EDGE('',*,*,#768,.F.);
#784=ORIENTED_EDGE('',*,*,#783,.T.);
#786=ORIENTED_EDGE('',*,*,#785,.F.);
#787=ORIENTED_EDGE('',*,*,#575,.F.);
#788=EDGE_LOOP('',(#782,#784,#786,#787));
#789=FACE_OUTER_BOUND('',#788,.F.);
#790=ADVANCED_FACE('',(#789),#781,.F.);
#791=CARTESIAN_POINT('',(1.4E1,-4.E-1,-3.E0));
#792=DIRECTION('',(0.E0,1.E0,0.E0));
#793=DIRECTION('',(0.E0,0.E0,1.E0));
#794=AXIS2_PLACEMENT_3D('',#791,#792,#793);
#795=PLANE('',#794);
#797=ORIENTED_EDGE('',*,*,#796,.T.);
#799=ORIENTED_EDGE('',*,*,#798,.T.);
#801=ORIENTED_EDGE('',*,*,#800,.T.);
#803=ORIENTED_EDGE('',*,*,#802,.T.);
#805=ORIENTED_EDGE('',*,*,#804,.T.);
#807=ORIENTED_EDGE('',*,*,#806,.T.);
#809=ORIENTED_EDGE('',*,*,#808,.T.);
#811=ORIENTED_EDGE('',*,*,#810,.T.);
#812=EDGE_LOOP('',(#797,#799,#801,#803,#805,#807,#809,#811));
#813=FACE_OUTER_BOUND('',#812,.F.);
#815=ORIENTED_EDGE('',*,*,#814,.F.);
#817=ORIENTED_EDGE('',*,*,#816,.F.);
#819=ORIENTED_EDGE('',*,*,#818,.F.);
#820=ORIENTED_EDGE('',*,*,#783,.F.);
#821=ORIENTED_EDGE('',*,*,#772,.F.);
#822=ORIENTED_EDGE('',*,*,#758,.F.);
#823=ORIENTED_EDGE('',*,*,#744,.F.);
#825=ORIENTED_EDGE('',*,*,#824,.F.);
#826=EDGE_LOOP('',(#815,#817,#819,#820,#821,#822,#823,#825));
#827=FACE_BOUND('',#826,.F.);
#828=ADVANCED_FACE('',(#813,#827),#795,.T.);
#829=CARTESIAN_POINT('',(1.4E1,-4.E0,-3.E0));
#830=DIRECTION('',(0.E0,1.E0,0.E0));
#831=DIRECTION('',(0.E0,0.E0,1.E0));
#832=AXIS2_PLACEMENT_3D('',#829,#830,#831);
#833=CYLINDRICAL_SURFACE('',#832,3.E0);
#835=ORIENTED_EDGE('',*,*,#834,.T.);
#837=ORIENTED_EDGE('',*,*,#836,.T.);
#839=ORIENTED_EDGE('',*,*,#838,.F.);
#840=ORIENTED_EDGE('',*,*,#796,.F.);
#841=EDGE_LOOP('',(#835,#837,#839,#840));
#842=FACE_OUTER_BOUND('',#841,.F.);
#843=ADVANCED_FACE('',(#842),#833,.T.);
#844=CARTESIAN_POINT('',(1.7E1,-4.E0,-3.E0));
#845=DIRECTION('',(1.E0,0.E0,0.E0));
#846=DIRECTION('',(0.E0,0.E0,-1.E0));
#847=AXIS2_PLACEMENT_3D('',#844,#845,#846);
#848=PLANE('',#847);
#850=ORIENTED_EDGE('',*,*,#849,.T.);
#852=ORIENTED_EDGE('',*,*,#851,.T.);
#853=ORIENTED_EDGE('',*,*,#834,.F.);
#854=ORIENTED_EDGE('',*,*,#810,.F.);
#855=EDGE_LOOP('',(#850,#852,#853,#854));
#856=FACE_OUTER_BOUND('',#855,.F.);
#857=ADVANCED_FACE('',(#856),#848,.T.);
#858=CARTESIAN_POINT('',(1.4E1,-4.E0,-1.2E1));
#859=DIRECTION('',(0.E0,1.E0,0.E0));
#860=DIRECTION('',(0.E0,0.E0,1.E0));
#861=AXIS2_PLACEMENT_3D('',#858,#859,#860);
#862=CYLINDRICAL_SURFACE('',#861,3.E0);
#864=ORIENTED_EDGE('',*,*,#863,.T.);
#866=ORIENTED_EDGE('',*,*,#865,.T.);
#867=ORIENTED_EDGE('',*,*,#849,.F.);
#868=ORIENTED_EDGE('',*,*,#808,.F.);
#869=EDGE_LOOP('',(#864,#866,#867,#868));
#870=FACE_OUTER_BOUND('',#869,.F.);
#871=ADVANCED_FACE('',(#870),#862,.T.);
#872=CARTESIAN_POINT('',(5.E0,-4.E0,-1.5E1));
#873=DIRECTION('',(0.E0,0.E0,-1.E0));
#874=DIRECTION('',(-1.E0,0.E0,0.E0));
#875=AXIS2_PLACEMENT_3D('',#872,#873,#874);
#876=PLANE('',#875);
#878=ORIENTED_EDGE('',*,*,#877,.T.);
#880=ORIENTED_EDGE('',*,*,#879,.T.);
#881=ORIENTED_EDGE('',*,*,#863,.F.);
#882=ORIENTED_EDGE('',*,*,#806,.F.);
#883=EDGE_LOOP('',(#878,#880,#881,#882));
#884=FACE_OUTER_BOUND('',#883,.F.);
#885=ADVANCED_FACE('',(#884),#876,.T.);
#886=CARTESIAN_POINT('',(5.E0,-4.E0,-1.2E1));
#887=DIRECTION('',(0.E0,1.E0,0.E0));
#888=DIRECTION('',(0.E0,0.E0,1.E0));
#889=AXIS2_PLACEMENT_3D('',#886,#887,#888);
#890=CYLINDRICAL_SURFACE('',#889,3.E0);
#892=ORIENTED_EDGE('',*,*,#891,.T.);
#894=ORIENTED_EDGE('',*,*,#893,.T.);
#895=ORIENTED_EDGE('',*,*,#877,.F.);
#896=ORIENTED_EDGE('',*,*,#804,.F.);
#897=EDGE_LOOP('',(#892,#894,#895,#896));
#898=FACE_OUTER_BOUND('',#897,.F.);
#899=ADVANCED_FACE('',(#898),#890,.T.);
#900=CARTESIAN_POINT('',(2.E0,-4.E0,-4.E0));
#901=DIRECTION('',(-1.E0,0.E0,0.E0));
#902=DIRECTION('',(0.E0,0.E0,1.E0));
#903=AXIS2_PLACEMENT_3D('',#900,#901,#902);
#904=PLANE('',#903);
#906=ORIENTED_EDGE('',*,*,#905,.T.);
#908=ORIENTED_EDGE('',*,*,#907,.T.);
#909=ORIENTED_EDGE('',*,*,#891,.F.);
#910=ORIENTED_EDGE('',*,*,#802,.F.);
#911=EDGE_LOOP('',(#906,#908,#909,#910));
#912=FACE_OUTER_BOUND('',#911,.F.);
#913=ADVANCED_FACE('',(#912),#904,.T.);
#914=CARTESIAN_POINT('',(6.E0,-4.E0,-4.E0));
#915=DIRECTION('',(0.E0,1.E0,0.E0));
#916=DIRECTION('',(0.E0,0.E0,1.E0));
#917=AXIS2_PLACEMENT_3D('',#914,#915,#916);
#918=CYLINDRICAL_SURFACE('',#917,4.E0);
#920=ORIENTED_EDGE('',*,*,#919,.T.);
#922=ORIENTED_EDGE('',*,*,#921,.T.);
#923=ORIENTED_EDGE('',*,*,#905,.F.);
#924=ORIENTED_EDGE('',*,*,#800,.F.);
#925=EDGE_LOOP('',(#920,#922,#923,#924));
#926=FACE_OUTER_BOUND('',#925,.F.);
#927=ADVANCED_FACE('',(#926),#918,.T.);
#928=CARTESIAN_POINT('',(6.E0,-4.E0,0.E0));
#929=DIRECTION('',(0.E0,0.E0,1.E0));
#930=DIRECTION('',(1.E0,0.E0,0.E0));
#931=AXIS2_PLACEMENT_3D('',#928,#929,#930);
#932=PLANE('',#931);
#933=ORIENTED_EDGE('',*,*,#838,.T.);
#935=ORIENTED_EDGE('',*,*,#934,.T.);
#936=ORIENTED_EDGE('',*,*,#919,.F.);
#937=ORIENTED_EDGE('',*,*,#798,.F.);
#938=EDGE_LOOP('',(#933,#935,#936,#937));
#939=FACE_OUTER_BOUND('',#938,.F.);
#940=ADVANCED_FACE('',(#939),#932,.T.);
#941=CARTESIAN_POINT('',(-7.141421356237E0,-3.6E0,-7.5E0));
#942=DIRECTION('',(0.E0,1.E0,0.E0));
#943=DIRECTION('',(0.E0,0.E0,1.E0));
#944=AXIS2_PLACEMENT_3D('',#941,#942,#943);
#945=PLANE('',#944);
#946=ORIENTED_EDGE('',*,*,#921,.F.);
#947=ORIENTED_EDGE('',*,*,#934,.F.);
#948=ORIENTED_EDGE('',*,*,#836,.F.);
#949=ORIENTED_EDGE('',*,*,#851,.F.);
#950=ORIENTED_EDGE('',*,*,#865,.F.);
#951=ORIENTED_EDGE('',*,*,#879,.F.);
#952=ORIENTED_EDGE('',*,*,#893,.F.);
#953=ORIENTED_EDGE('',*,*,#907,.F.);
#954=EDGE_LOOP('',(#946,#947,#948,#949,#950,#951,#952,#953));
#955=FACE_OUTER_BOUND('',#954,.F.);
#957=ORIENTED_EDGE('',*,*,#956,.T.);
#959=ORIENTED_EDGE('',*,*,#958,.T.);
#961=ORIENTED_EDGE('',*,*,#960,.T.);
#963=ORIENTED_EDGE('',*,*,#962,.T.);
#965=ORIENTED_EDGE('',*,*,#964,.T.);
#967=ORIENTED_EDGE('',*,*,#966,.T.);
#969=ORIENTED_EDGE('',*,*,#968,.T.);
#971=ORIENTED_EDGE('',*,*,#970,.T.);
#972=EDGE_LOOP('',(#957,#959,#961,#963,#965,#967,#969,#971));
#973=FACE_BOUND('',#972,.F.);
#974=ADVANCED_FACE('',(#955,#973),#945,.F.);
#975=CARTESIAN_POINT('',(-7.141421356237E0,-3.6E0,-1.483E1));
#976=DIRECTION('',(0.E0,7.071067811865E-1,7.071067811865E-1));
#977=DIRECTION('',(0.E0,-7.071067811865E-1,7.071067811865E-1));
#978=AXIS2_PLACEMENT_3D('',#975,#976,#977);
#979=PLANE('',#978);
#981=ORIENTED_EDGE('',*,*,#980,.T.);
#982=ORIENTED_EDGE('',*,*,#956,.F.);
#984=ORIENTED_EDGE('',*,*,#983,.F.);
#986=ORIENTED_EDGE('',*,*,#985,.F.);
#987=EDGE_LOOP('',(#981,#982,#984,#986));
#988=FACE_OUTER_BOUND('',#987,.F.);
#989=ADVANCED_FACE('',(#988),#979,.F.);
#990=CARTESIAN_POINT('',(1.4E1,-3.8E0,-1.2E1));
#991=DIRECTION('',(0.E0,1.E0,0.E0));
#992=DIRECTION('',(0.E0,0.E0,1.E0));
#993=AXIS2_PLACEMENT_3D('',#990,#991,#992);
#994=CONICAL_SURFACE('',#993,2.63E0,4.5E1);
#996=ORIENTED_EDGE('',*,*,#995,.T.);
#997=ORIENTED_EDGE('',*,*,#958,.F.);
#998=ORIENTED_EDGE('',*,*,#980,.F.);
#1000=ORIENTED_EDGE('',*,*,#999,.F.);
#1001=EDGE_LOOP('',(#996,#997,#998,#1000));
#1002=FACE_OUTER_BOUND('',#1001,.F.);
#1003=ADVANCED_FACE('',(#1002),#994,.T.);
#1004=CARTESIAN_POINT('',(1.683E1,-3.6E0,-7.5E0));
#1005=DIRECTION('',(-7.071067811865E-1,7.071067811866E-1,0.E0));
#1006=DIRECTION('',(-7.071067811866E-1,-7.071067811865E-1,0.E0));
#1007=AXIS2_PLACEMENT_3D('',#1004,#1005,#1006);
#1008=PLANE('',#1007);
#1010=ORIENTED_EDGE('',*,*,#1009,.F.);
#1011=ORIENTED_EDGE('',*,*,#960,.F.);
#1012=ORIENTED_EDGE('',*,*,#995,.F.);
#1014=ORIENTED_EDGE('',*,*,#1013,.F.);
#1015=EDGE_LOOP('',(#1010,#1011,#1012,#1014));
#1016=FACE_OUTER_BOUND('',#1015,.F.);
#1017=ADVANCED_FACE('',(#1016),#1008,.F.);
#1018=CARTESIAN_POINT('',(1.4E1,-3.8E0,-3.E0));
#1019=DIRECTION('',(0.E0,1.E0,0.E0));
#1020=DIRECTION('',(0.E0,0.E0,1.E0));
#1021=AXIS2_PLACEMENT_3D('',#1018,#1019,#1020);
#1022=CONICAL_SURFACE('',#1021,2.63E0,4.5E1);
#1023=ORIENTED_EDGE('',*,*,#1009,.T.);
#1025=ORIENTED_EDGE('',*,*,#1024,.F.);
#1027=ORIENTED_EDGE('',*,*,#1026,.F.);
#1028=ORIENTED_EDGE('',*,*,#962,.F.);
#1029=EDGE_LOOP('',(#1023,#1025,#1027,#1028));
#1030=FACE_OUTER_BOUND('',#1029,.F.);
#1031=ADVANCED_FACE('',(#1030),#1022,.T.);
#1032=CARTESIAN_POINT('',(1.4E1,-4.E0,-3.E0));
#1033=DIRECTION('',(0.E0,-1.E0,0.E0));
#1034=DIRECTION('',(0.E0,0.E0,-1.E0));
#1035=AXIS2_PLACEMENT_3D('',#1032,#1033,#1034);
#1036=PLANE('',#1035);
#1038=ORIENTED_EDGE('',*,*,#1037,.T.);
#1040=ORIENTED_EDGE('',*,*,#1039,.T.);
#1041=ORIENTED_EDGE('',*,*,#1024,.T.);
#1042=ORIENTED_EDGE('',*,*,#1013,.T.);
#1043=ORIENTED_EDGE('',*,*,#999,.T.);
#1044=ORIENTED_EDGE('',*,*,#985,.T.);
#1046=ORIENTED_EDGE('',*,*,#1045,.T.);
#1048=ORIENTED_EDGE('',*,*,#1047,.T.);
#1049=EDGE_LOOP('',(#1038,#1040,#1041,#1042,#1043,#1044,#1046,#1048));
#1050=FACE_OUTER_BOUND('',#1049,.F.);
#1052=ORIENTED_EDGE('',*,*,#1051,.T.);
#1054=ORIENTED_EDGE('',*,*,#1053,.T.);
#1055=EDGE_LOOP('',(#1052,#1054));
#1056=FACE_BOUND('',#1055,.F.);
#1057=ADVANCED_FACE('',(#1050,#1056),#1036,.T.);
#1058=CARTESIAN_POINT('',(6.E0,-3.8E0,-4.E0));
#1059=DIRECTION('',(0.E0,1.E0,0.E0));
#1060=DIRECTION('',(0.E0,0.E0,1.E0));
#1061=AXIS2_PLACEMENT_3D('',#1058,#1059,#1060);
#1062=CONICAL_SURFACE('',#1061,3.63E0,4.5E1);
#1064=ORIENTED_EDGE('',*,*,#1063,.T.);
#1065=ORIENTED_EDGE('',*,*,#1037,.F.);
#1067=ORIENTED_EDGE('',*,*,#1066,.F.);
#1068=ORIENTED_EDGE('',*,*,#966,.F.);
#1069=EDGE_LOOP('',(#1064,#1065,#1067,#1068));
#1070=FACE_OUTER_BOUND('',#1069,.F.);
#1071=ADVANCED_FACE('',(#1070),#1062,.T.);
#1072=CARTESIAN_POINT('',(-7.141421356237E0,-3.6E0,-1.7E-1));
#1073=DIRECTION('',(0.E0,7.071067811865E-1,-7.071067811865E-1));
#1074=DIRECTION('',(0.E0,7.071067811865E-1,7.071067811865E-1));
#1075=AXIS2_PLACEMENT_3D('',#1072,#1073,#1074);
#1076=PLANE('',#1075);
#1077=ORIENTED_EDGE('',*,*,#1026,.T.);
#1078=ORIENTED_EDGE('',*,*,#1039,.F.);
#1079=ORIENTED_EDGE('',*,*,#1063,.F.);
#1080=ORIENTED_EDGE('',*,*,#964,.F.);
#1081=EDGE_LOOP('',(#1077,#1078,#1079,#1080));
#1082=FACE_OUTER_BOUND('',#1081,.F.);
#1083=ADVANCED_FACE('',(#1082),#1076,.F.);
#1084=CARTESIAN_POINT('',(2.17E0,-3.6E0,-7.5E0));
#1085=DIRECTION('',(7.071067811865E-1,7.071067811865E-1,0.E0));
#1086=DIRECTION('',(-7.071067811865E-1,7.071067811865E-1,0.E0));
#1087=AXIS2_PLACEMENT_3D('',#1084,#1085,#1086);
#1088=PLANE('',#1087);
#1090=ORIENTED_EDGE('',*,*,#1089,.T.);
#1091=ORIENTED_EDGE('',*,*,#968,.F.);
#1092=ORIENTED_EDGE('',*,*,#1066,.T.);
#1093=ORIENTED_EDGE('',*,*,#1047,.F.);
#1094=EDGE_LOOP('',(#1090,#1091,#1092,#1093));
#1095=FACE_OUTER_BOUND('',#1094,.F.);
#1096=ADVANCED_FACE('',(#1095),#1088,.F.);
#1097=CARTESIAN_POINT('',(5.E0,-3.8E0,-1.2E1));
#1098=DIRECTION('',(0.E0,1.E0,0.E0));
#1099=DIRECTION('',(0.E0,0.E0,1.E0));
#1100=AXIS2_PLACEMENT_3D('',#1097,#1098,#1099);
#1101=CONICAL_SURFACE('',#1100,2.63E0,4.5E1);
#1102=ORIENTED_EDGE('',*,*,#983,.T.);
#1103=ORIENTED_EDGE('',*,*,#970,.F.);
#1104=ORIENTED_EDGE('',*,*,#1089,.F.);
#1105=ORIENTED_EDGE('',*,*,#1045,.F.);
#1106=EDGE_LOOP('',(#1102,#1103,#1104,#1105));
#1107=FACE_OUTER_BOUND('',#1106,.F.);
#1108=ADVANCED_FACE('',(#1107),#1101,.T.);
#1109=CARTESIAN_POINT('',(9.5E0,-4.E0,-6.8E0));
#1110=DIRECTION('',(0.E0,1.E0,0.E0));
#1111=DIRECTION('',(0.E0,0.E0,1.E0));
#1112=AXIS2_PLACEMENT_3D('',#1109,#1110,#1111);
#1113=CYLINDRICAL_SURFACE('',#1112,6.65E-1);
#1115=ORIENTED_EDGE('',*,*,#1114,.F.);
#1117=ORIENTED_EDGE('',*,*,#1116,.F.);
#1119=ORIENTED_EDGE('',*,*,#1118,.T.);
#1120=ORIENTED_EDGE('',*,*,#1051,.F.);
#1121=EDGE_LOOP('',(#1115,#1117,#1119,#1120));
#1122=FACE_OUTER_BOUND('',#1121,.F.);
#1123=ADVANCED_FACE('',(#1122),#1113,.F.);
#1124=CARTESIAN_POINT('',(9.5E0,-4.E0,-6.8E0));
#1125=DIRECTION('',(0.E0,1.E0,0.E0));
#1126=DIRECTION('',(0.E0,0.E0,1.E0));
#1127=AXIS2_PLACEMENT_3D('',#1124,#1125,#1126);
#1128=CYLINDRICAL_SURFACE('',#1127,6.65E-1);
#1129=ORIENTED_EDGE('',*,*,#1053,.F.);
#1130=ORIENTED_EDGE('',*,*,#1118,.F.);
#1132=ORIENTED_EDGE('',*,*,#1131,.F.);
#1133=ORIENTED_EDGE('',*,*,#1114,.T.);
#1134=EDGE_LOOP('',(#1129,#1130,#1132,#1133));
#1135=FACE_OUTER_BOUND('',#1134,.F.);
#1136=ADVANCED_FACE('',(#1135),#1128,.F.);
#1137=CARTESIAN_POINT('',(9.5E0,1.E-2,-6.8E0));
#1138=DIRECTION('',(0.E0,1.E0,0.E0));
#1139=DIRECTION('',(0.E0,0.E0,1.E0));
#1140=AXIS2_PLACEMENT_3D('',#1137,#1138,#1139);
#1141=PLANE('',#1140);
#1142=ORIENTED_EDGE('',*,*,#1131,.T.);
#1143=ORIENTED_EDGE('',*,*,#1116,.T.);
#1144=EDGE_LOOP('',(#1142,#1143));
#1145=FACE_OUTER_BOUND('',#1144,.F.);
#1146=ADVANCED_FACE('',(#1145),#1141,.F.);
#1147=CARTESIAN_POINT('',(6.E0,-2.E-1,-4.E0));
#1148=DIRECTION('',(0.E0,-1.E0,0.E0));
#1149=DIRECTION('',(0.E0,0.E0,-1.E0));
#1150=AXIS2_PLACEMENT_3D('',#1147,#1148,#1149);
#1151=CONICAL_SURFACE('',#1150,3.63E0,4.5E1);
#1153=ORIENTED_EDGE('',*,*,#1152,.T.);
#1154=ORIENTED_EDGE('',*,*,#814,.T.);
#1156=ORIENTED_EDGE('',*,*,#1155,.F.);
#1157=ORIENTED_EDGE('',*,*,#581,.F.);
#1158=EDGE_LOOP('',(#1153,#1154,#1156,#1157));
#1159=FACE_OUTER_BOUND('',#1158,.F.);
#1160=ADVANCED_FACE('',(#1159),#1151,.T.);
#1161=CARTESIAN_POINT('',(6.E0,-4.E-1,-1.7E-1));
#1162=DIRECTION('',(0.E0,-7.071067811865E-1,-7.071067811865E-1));
#1163=DIRECTION('',(0.E0,7.071067811865E-1,-7.071067811865E-1));
#1164=AXIS2_PLACEMENT_3D('',#1161,#1162,#1163);
#1165=PLANE('',#1164);
#1167=ORIENTED_EDGE('',*,*,#1166,.T.);
#1168=ORIENTED_EDGE('',*,*,#816,.T.);
#1169=ORIENTED_EDGE('',*,*,#1152,.F.);
#1170=ORIENTED_EDGE('',*,*,#579,.F.);
#1171=EDGE_LOOP('',(#1167,#1168,#1169,#1170));
#1172=FACE_OUTER_BOUND('',#1171,.F.);
#1173=ADVANCED_FACE('',(#1172),#1165,.F.);
#1174=CARTESIAN_POINT('',(1.4E1,-2.E-1,-3.E0));
#1175=DIRECTION('',(0.E0,-1.E0,0.E0));
#1176=DIRECTION('',(0.E0,0.E0,-1.E0));
#1177=AXIS2_PLACEMENT_3D('',#1174,#1175,#1176);
#1178=CONICAL_SURFACE('',#1177,2.63E0,4.5E1);
#1179=ORIENTED_EDGE('',*,*,#785,.T.);
#1180=ORIENTED_EDGE('',*,*,#818,.T.);
#1181=ORIENTED_EDGE('',*,*,#1166,.F.);
#1182=ORIENTED_EDGE('',*,*,#577,.F.);
#1183=EDGE_LOOP('',(#1179,#1180,#1181,#1182));
#1184=FACE_OUTER_BOUND('',#1183,.F.);
#1185=ADVANCED_FACE('',(#1184),#1178,.T.);
#1186=CARTESIAN_POINT('',(2.17E0,-4.E-1,-1.2E1));
#1187=DIRECTION('',(7.071067811865E-1,-7.071067811865E-1,0.E0));
#1188=DIRECTION('',(7.071067811865E-1,7.071067811865E-1,0.E0));
#1189=AXIS2_PLACEMENT_3D('',#1186,#1187,#1188);
#1190=PLANE('',#1189);
#1191=ORIENTED_EDGE('',*,*,#1155,.T.);
#1192=ORIENTED_EDGE('',*,*,#824,.T.);
#1193=ORIENTED_EDGE('',*,*,#742,.T.);
#1194=ORIENTED_EDGE('',*,*,#583,.F.);
#1195=EDGE_LOOP('',(#1191,#1192,#1193,#1194));
#1196=FACE_OUTER_BOUND('',#1195,.F.);
#1197=ADVANCED_FACE('',(#1196),#1190,.F.);
#1198=CLOSED_SHELL('',(#593,#608,#625,#640,#653,#669,#684,#697,#710,#721,#733,
#748,#762,#776,#790,#828,#843,#857,#871,#885,#899,#913,#927,#940,#974,#989,
#1003,#1017,#1031,#1057,#1071,#1083,#1096,#1108,#1123,#1136,#1146,#1160,#1173,
#1185,#1197));
#1199=MANIFOLD_SOLID_BREP('',#1198);
#1200=(LENGTH_UNIT()NAMED_UNIT(*)SI_UNIT(.MILLI.,.METRE.));
#1201=DIMENSIONAL_EXPONENTS(0.E0,0.E0,0.E0,0.E0,0.E0,0.E0,0.E0);
#1202=(NAMED_UNIT(*)PLANE_ANGLE_UNIT()SI_UNIT($,.RADIAN.));
#1203=PLANE_ANGLE_MEASURE_WITH_UNIT(PLANE_ANGLE_MEASURE(1.745329251994E-2),
#1202);
#1204=(CONVERSION_BASED_UNIT('DEGREE',#1203)NAMED_UNIT(#1201)PLANE_ANGLE_UNIT(
));
#1205=(NAMED_UNIT(*)SI_UNIT($,.STERADIAN.)SOLID_ANGLE_UNIT());
#1206=UNCERTAINTY_MEASURE_WITH_UNIT(LENGTH_MEASURE(2.172016924173E-3),#1200,
'closure',
'Maximum model space distance between geometric entities at asserted connectivities');
#1207=(GEOMETRIC_REPRESENTATION_CONTEXT(3)GLOBAL_UNCERTAINTY_ASSIGNED_CONTEXT((
#1206))GLOBAL_UNIT_ASSIGNED_CONTEXT((#1200,#1204,#1205))REPRESENTATION_CONTEXT(
'ID1','3'));
#1209=APPLICATION_CONTEXT(
'CONFIGURATION CONTROLLED 3D DESIGNS OF MECHANICAL PARTS AND ASSEMBLIES');
#1210=APPLICATION_PROTOCOL_DEFINITION('international standard',
'config_control_design',1994,#1209);
#1211=DESIGN_CONTEXT('',#1209,'design');
#1212=MECHANICAL_CONTEXT('',#1209,'mechanical');
#1213=PRODUCT('PATCH_DA15_ANY_PRT','PATCH_DA15_ANY_PRT','NOT SPECIFIED',
(#1212));
#1214=PRODUCT_DEFINITION_FORMATION_WITH_SPECIFIED_SOURCE('1','LAST_VERSION',
#1213,.MADE.);
#1218=PRODUCT_CATEGORY('part','');
#1219=PRODUCT_RELATED_PRODUCT_CATEGORY('detail','',(#1213));
#1220=PRODUCT_CATEGORY_RELATIONSHIP('','',#1218,#1219);
#1221=SECURITY_CLASSIFICATION_LEVEL('unclassified');
#1222=SECURITY_CLASSIFICATION('','',#1221);
#1223=CC_DESIGN_SECURITY_CLASSIFICATION(#1222,(#1214));
#1224=APPROVAL_STATUS('approved');
#1225=APPROVAL(#1224,'');
#1226=CC_DESIGN_APPROVAL(#1225,(#1222,#1214,#1215));
#1227=CALENDAR_DATE(108,30,6);
#1228=COORDINATED_UNIVERSAL_TIME_OFFSET(3,0,.BEHIND.);
#1229=LOCAL_TIME(11,3,3.5E1,#1228);
#1230=DATE_AND_TIME(#1227,#1229);
#1231=APPROVAL_DATE_TIME(#1230,#1225);
#1232=DATE_TIME_ROLE('creation_date');
#1233=CC_DESIGN_DATE_AND_TIME_ASSIGNMENT(#1230,#1232,(#1215));
#1234=DATE_TIME_ROLE('classification_date');
#1235=CC_DESIGN_DATE_AND_TIME_ASSIGNMENT(#1230,#1234,(#1222));
#1236=PERSON('UNSPECIFIED','UNSPECIFIED',$,$,$,$);
#1237=ORGANIZATION('UNSPECIFIED','UNSPECIFIED','UNSPECIFIED');
#1238=PERSON_AND_ORGANIZATION(#1236,#1237);
#1239=APPROVAL_ROLE('approver');
#1240=APPROVAL_PERSON_ORGANIZATION(#1238,#1225,#1239);
#1241=PERSON_AND_ORGANIZATION_ROLE('creator');
#1242=CC_DESIGN_PERSON_AND_ORGANIZATION_ASSIGNMENT(#1238,#1241,(#1214,#1215));
#1243=PERSON_AND_ORGANIZATION_ROLE('design_supplier');
#1244=CC_DESIGN_PERSON_AND_ORGANIZATION_ASSIGNMENT(#1238,#1243,(#1214));
#1245=PERSON_AND_ORGANIZATION_ROLE('classification_officer');
#1246=CC_DESIGN_PERSON_AND_ORGANIZATION_ASSIGNMENT(#1238,#1245,(#1222));
#1247=PERSON_AND_ORGANIZATION_ROLE('design_owner');
#1248=CC_DESIGN_PERSON_AND_ORGANIZATION_ASSIGNMENT(#1238,#1247,(#1213));
#6=CIRCLE('',#5,1.75E0);
#11=CIRCLE('',#10,1.75E0);
#20=CIRCLE('',#19,1.55E0);
#25=CIRCLE('',#24,1.55E0);
#30=CIRCLE('',#29,1.75E0);
#35=CIRCLE('',#34,1.75E0);
#44=CIRCLE('',#43,1.55E0);
#53=CIRCLE('',#52,1.55E0);
#58=CIRCLE('',#57,1.5E0);
#63=CIRCLE('',#62,1.5E0);
#72=CIRCLE('',#71,9.041232037029E-1);
#77=CIRCLE('',#76,9.041232037029E-1);
#98=CIRCLE('',#97,2.43E0);
#115=CIRCLE('',#114,2.43E0);
#136=CIRCLE('',#135,3.83E0);
#145=CIRCLE('',#144,2.83E0);
#154=CIRCLE('',#153,2.83E0);
#163=CIRCLE('',#162,2.83E0);
#176=CIRCLE('',#175,3.E0);
#193=CIRCLE('',#192,3.E0);
#210=CIRCLE('',#209,3.E0);
#227=CIRCLE('',#226,4.E0);
#240=CIRCLE('',#239,4.E0);
#249=CIRCLE('',#248,3.E0);
#258=CIRCLE('',#257,3.E0);
#267=CIRCLE('',#266,3.E0);
#288=CIRCLE('',#287,2.83E0);
#297=CIRCLE('',#296,2.43E0);
#318=CIRCLE('',#317,2.43E0);
#327=CIRCLE('',#326,2.83E0);
#332=CIRCLE('',#331,3.43E0);
#341=CIRCLE('',#340,3.83E0);
#366=CIRCLE('',#365,2.83E0);
#375=CIRCLE('',#374,2.43E0);
#384=CIRCLE('',#383,6.65E-1);
#389=CIRCLE('',#388,6.65E-1);
#394=CIRCLE('',#393,6.65E-1);
#403=CIRCLE('',#402,6.65E-1);
#412=CIRCLE('',#411,3.43E0);
#429=CIRCLE('',#428,2.43E0);
#569=EDGE_CURVE('',#440,#441,#98,.T.);
#571=EDGE_CURVE('',#441,#493,#106,.T.);
#573=EDGE_CURVE('',#493,#481,#115,.T.);
#575=EDGE_CURVE('',#481,#470,#131,.T.);
#577=EDGE_CURVE('',#470,#495,#429,.T.);
#579=EDGE_CURVE('',#495,#491,#420,.T.);
#581=EDGE_CURVE('',#491,#489,#412,.T.);
#583=EDGE_CURVE('',#489,#440,#433,.T.);
#587=EDGE_CURVE('',#558,#559,#6,.T.);
#589=EDGE_CURVE('',#559,#558,#11,.T.);
#599=EDGE_CURVE('',#562,#563,#30,.T.);
#601=EDGE_CURVE('',#559,#562,#93,.T.);
#604=EDGE_CURVE('',#558,#563,#15,.T.);
#615=EDGE_CURVE('',#563,#562,#35,.T.);
#619=EDGE_CURVE('',#437,#436,#20,.T.);
#621=EDGE_CURVE('',#436,#437,#25,.T.);
#632=EDGE_CURVE('',#459,#436,#39,.T.);
#634=EDGE_CURVE('',#447,#459,#44,.T.);
#636=EDGE_CURVE('',#447,#437,#48,.T.);
#647=EDGE_CURVE('',#459,#447,#53,.T.);
#663=EDGE_CURVE('',#449,#451,#58,.T.);
#665=EDGE_CURVE('',#451,#449,#63,.T.);
#675=EDGE_CURVE('',#449,#444,#67,.T.);
#678=EDGE_CURVE('',#451,#445,#81,.T.);
#680=EDGE_CURVE('',#444,#445,#72,.T.);
#690=EDGE_CURVE('',#445,#444,#77,.T.);
#703=EDGE_CURVE('',#445,#453,#85,.T.);
#706=EDGE_CURVE('',#444,#453,#89,.T.);
#739=EDGE_CURVE('',#485,#441,#110,.T.);
#742=EDGE_CURVE('',#484,#440,#102,.T.);
#744=EDGE_CURVE('',#484,#485,#163,.T.);
#754=EDGE_CURVE('',#479,#493,#119,.T.);
#758=EDGE_CURVE('',#485,#479,#158,.T.);
#768=EDGE_CURVE('',#477,#481,#123,.T.);
#772=EDGE_CURVE('',#479,#477,#154,.T.);
#783=EDGE_CURVE('',#477,#471,#149,.T.);
#785=EDGE_CURVE('',#470,#471,#127,.T.);
#796=EDGE_CURVE('',#518,#529,#176,.T.);
#798=EDGE_CURVE('',#529,#526,#235,.T.);
#800=EDGE_CURVE('',#526,#527,#227,.T.);
#802=EDGE_CURVE('',#527,#547,#218,.T.);
#804=EDGE_CURVE('',#547,#545,#210,.T.);
#806=EDGE_CURVE('',#545,#540,#201,.T.);
#808=EDGE_CURVE('',#540,#533,#193,.T.);
#810=EDGE_CURVE('',#533,#518,#184,.T.);
#814=EDGE_CURVE('',#475,#487,#136,.T.);
#816=EDGE_CURVE('',#474,#475,#140,.T.);
#818=EDGE_CURVE('',#471,#474,#145,.T.);
#824=EDGE_CURVE('',#487,#484,#167,.T.);
#834=EDGE_CURVE('',#518,#519,#180,.T.);
#836=EDGE_CURVE('',#519,#531,#249,.T.);
#838=EDGE_CURVE('',#529,#531,#171,.T.);
#849=EDGE_CURVE('',#533,#543,#188,.T.);
#851=EDGE_CURVE('',#543,#519,#253,.T.);
#863=EDGE_CURVE('',#540,#541,#197,.T.);
#865=EDGE_CURVE('',#541,#543,#258,.T.);
#877=EDGE_CURVE('',#545,#537,#205,.T.);
#879=EDGE_CURVE('',#537,#541,#262,.T.);
#891=EDGE_CURVE('',#547,#536,#214,.T.);
#893=EDGE_CURVE('',#536,#537,#267,.T.);
#905=EDGE_CURVE('',#527,#523,#222,.T.);
#907=EDGE_CURVE('',#523,#536,#271,.T.);
#919=EDGE_CURVE('',#526,#522,#231,.T.);
#921=EDGE_CURVE('',#522,#523,#240,.T.);
#934=EDGE_CURVE('',#531,#522,#244,.T.);
#956=EDGE_CURVE('',#499,#511,#275,.T.);
#958=EDGE_CURVE('',#511,#554,#288,.T.);
#960=EDGE_CURVE('',#554,#555,#305,.T.);
#962=EDGE_CURVE('',#555,#502,#327,.T.);
#964=EDGE_CURVE('',#502,#506,#353,.T.);
#966=EDGE_CURVE('',#506,#466,#341,.T.);
#968=EDGE_CURVE('',#466,#515,#357,.T.);
#970=EDGE_CURVE('',#515,#499,#366,.T.);
#980=EDGE_CURVE('',#510,#511,#292,.T.);
#983=EDGE_CURVE('',#498,#499,#279,.T.);
#985=EDGE_CURVE('',#510,#498,#283,.T.);
#995=EDGE_CURVE('',#549,#554,#309,.T.);
#999=EDGE_CURVE('',#549,#510,#297,.T.);
#1009=EDGE_CURVE('',#555,#551,#301,.T.);
#1013=EDGE_CURVE('',#551,#549,#313,.T.);
#1024=EDGE_CURVE('',#503,#551,#318,.T.);
#1026=EDGE_CURVE('',#502,#503,#322,.T.);
#1037=EDGE_CURVE('',#467,#507,#332,.T.);
#1039=EDGE_CURVE('',#507,#503,#345,.T.);
#1045=EDGE_CURVE('',#498,#514,#375,.T.);
#1047=EDGE_CURVE('',#514,#467,#361,.T.);
#1051=EDGE_CURVE('',#463,#457,#389,.T.);
#1053=EDGE_CURVE('',#457,#463,#394,.T.);
#1063=EDGE_CURVE('',#506,#507,#349,.T.);
#1066=EDGE_CURVE('',#466,#467,#336,.T.);
#1089=EDGE_CURVE('',#514,#515,#370,.T.);
#1114=EDGE_CURVE('',#462,#463,#379,.T.);
#1116=EDGE_CURVE('',#456,#462,#384,.T.);
#1118=EDGE_CURVE('',#456,#457,#398,.T.);
#1131=EDGE_CURVE('',#462,#456,#403,.T.);
#1152=EDGE_CURVE('',#491,#475,#416,.T.);
#1155=EDGE_CURVE('',#489,#487,#407,.T.);
#1166=EDGE_CURVE('',#495,#474,#424,.T.);
#1208=ADVANCED_BREP_SHAPE_REPRESENTATION('',(#1199),#1207);
#1215=PRODUCT_DEFINITION('design','',#1214,#1211);
#1216=PRODUCT_DEFINITION_SHAPE('','SHAPE FOR PATCH_DA15_ANY_PRT.',#1215);
#1217=SHAPE_DEFINITION_REPRESENTATION(#1216,#1208);
ENDSEC;
END-ISO-10303-21;
