ISO-10303-21;
HEADER;
FILE_DESCRIPTION((''),'2;1');
FILE_NAME('RTC-ML414R-F9A_PRT','2008-06-30T',('GRA'),(''),
'PRO/ENGINEER BY PARAMETRIC TECHNOLOGY CORPORATION, 2006170',
'PRO/ENGINEER BY PARAMETRIC TECHNOLOGY CORPORATION, 2006170','');
FILE_SCHEMA(('CONFIG_CONTROL_DESIGN'));
ENDSEC;
DATA;
#2=DIRECTION('',(0.E0,0.E0,-1.E0));
#3=VECTOR('',#2,2.209347693943E0);
#4=CARTESIAN_POINT('',(-1.5E0,0.E0,1.609347693943E0));
#5=LINE('',#4,#3);
#6=DIRECTION('',(1.E0,0.E0,0.E0));
#7=VECTOR('',#6,1.E0);
#8=CARTESIAN_POINT('',(-5.E-1,0.E0,-1.6E0));
#9=LINE('',#8,#7);
#10=DIRECTION('',(0.E0,0.E0,-1.E0));
#11=VECTOR('',#10,2.209347693943E0);
#12=CARTESIAN_POINT('',(1.5E0,0.E0,1.609347693943E0));
#13=LINE('',#12,#11);
#14=DIRECTION('',(0.E0,0.E0,-1.E0));
#15=VECTOR('',#14,3.1E0);
#16=CARTESIAN_POINT('',(-1.5E0,-1.E-1,2.5E0));
#17=LINE('',#16,#15);
#18=DIRECTION('',(0.E0,0.E0,1.E0));
#19=VECTOR('',#18,8.906523060569E-1);
#20=CARTESIAN_POINT('',(-1.5E0,0.E0,1.609347693943E0));
#21=LINE('',#20,#19);
#22=DIRECTION('',(0.E0,1.E0,0.E0));
#23=VECTOR('',#22,1.43E0);
#24=CARTESIAN_POINT('',(-1.5E0,1.E-1,2.6E0));
#25=LINE('',#24,#23);
#26=DIRECTION('',(0.E0,0.E0,1.E0));
#27=VECTOR('',#26,6.E-1);
#28=CARTESIAN_POINT('',(-1.5E0,1.73E0,2.8E0));
#29=LINE('',#28,#27);
#30=DIRECTION('',(0.E0,0.E0,-1.E0));
#31=VECTOR('',#30,6.E-1);
#32=CARTESIAN_POINT('',(-1.5E0,1.63E0,3.4E0));
#33=LINE('',#32,#31);
#34=DIRECTION('',(0.E0,-1.E0,0.E0));
#35=VECTOR('',#34,1.43E0);
#36=CARTESIAN_POINT('',(-1.5E0,1.53E0,2.7E0));
#37=LINE('',#36,#35);
#38=DIRECTION('',(-1.E0,0.E0,0.E0));
#39=VECTOR('',#38,3.E0);
#40=CARTESIAN_POINT('',(1.5E0,1.E-1,2.7E0));
#41=LINE('',#40,#39);
#42=CARTESIAN_POINT('',(1.5E0,1.E-1,2.5E0));
#43=DIRECTION('',(1.E0,0.E0,0.E0));
#44=DIRECTION('',(0.E0,0.E0,1.E0));
#45=AXIS2_PLACEMENT_3D('',#42,#43,#44);
#47=DIRECTION('',(-1.E0,0.E0,0.E0));
#48=VECTOR('',#47,3.E0);
#49=CARTESIAN_POINT('',(1.5E0,-1.E-1,2.5E0));
#50=LINE('',#49,#48);
#51=CARTESIAN_POINT('',(-1.5E0,1.E-1,2.5E0));
#52=DIRECTION('',(-1.E0,0.E0,0.E0));
#53=DIRECTION('',(0.E0,-1.E0,0.E0));
#54=AXIS2_PLACEMENT_3D('',#51,#52,#53);
#56=DIRECTION('',(1.E0,0.E0,0.E0));
#57=VECTOR('',#56,3.E0);
#58=CARTESIAN_POINT('',(-1.5E0,1.53E0,2.7E0));
#59=LINE('',#58,#57);
#60=CARTESIAN_POINT('',(-1.5E0,1.53E0,2.8E0));
#61=DIRECTION('',(1.E0,0.E0,0.E0));
#62=DIRECTION('',(0.E0,0.E0,-1.E0));
#63=AXIS2_PLACEMENT_3D('',#60,#61,#62);
#65=DIRECTION('',(1.E0,0.E0,0.E0));
#66=VECTOR('',#65,3.E0);
#67=CARTESIAN_POINT('',(-1.5E0,1.63E0,2.8E0));
#68=LINE('',#67,#66);
#69=CARTESIAN_POINT('',(1.5E0,1.53E0,2.8E0));
#70=DIRECTION('',(-1.E0,0.E0,0.E0));
#71=DIRECTION('',(0.E0,1.E0,0.E0));
#72=AXIS2_PLACEMENT_3D('',#69,#70,#71);
#74=DIRECTION('',(1.E0,0.E0,0.E0));
#75=VECTOR('',#74,2.4E0);
#76=CARTESIAN_POINT('',(-1.2E0,1.63E0,3.7E0));
#77=LINE('',#76,#75);
#78=DIRECTION('',(0.E0,1.E0,0.E0));
#79=VECTOR('',#78,1.E-1);
#80=CARTESIAN_POINT('',(-1.2E0,1.63E0,3.7E0));
#81=LINE('',#80,#79);
#82=CARTESIAN_POINT('',(-1.2E0,1.63E0,3.4E0));
#83=DIRECTION('',(0.E0,-1.E0,0.E0));
#84=DIRECTION('',(0.E0,0.E0,1.E0));
#85=AXIS2_PLACEMENT_3D('',#82,#83,#84);
#87=DIRECTION('',(0.E0,1.E0,0.E0));
#88=VECTOR('',#87,1.E-1);
#89=CARTESIAN_POINT('',(-1.5E0,1.63E0,3.4E0));
#90=LINE('',#89,#88);
#91=CARTESIAN_POINT('',(-1.2E0,1.73E0,3.4E0));
#92=DIRECTION('',(0.E0,1.E0,0.E0));
#93=DIRECTION('',(-1.E0,0.E0,0.E0));
#94=AXIS2_PLACEMENT_3D('',#91,#92,#93);
#96=DIRECTION('',(1.E0,0.E0,0.E0));
#97=VECTOR('',#96,2.4E0);
#98=CARTESIAN_POINT('',(-1.2E0,1.73E0,3.7E0));
#99=LINE('',#98,#97);
#100=DIRECTION('',(0.E0,-1.E0,0.E0));
#101=VECTOR('',#100,1.E-1);
#102=CARTESIAN_POINT('',(1.2E0,1.73E0,3.7E0));
#103=LINE('',#102,#101);
#104=CARTESIAN_POINT('',(1.2E0,1.73E0,3.4E0));
#105=DIRECTION('',(0.E0,1.E0,0.E0));
#106=DIRECTION('',(0.E0,0.E0,1.E0));
#107=AXIS2_PLACEMENT_3D('',#104,#105,#106);
#109=DIRECTION('',(0.E0,-1.E0,0.E0));
#110=VECTOR('',#109,1.E-1);
#111=CARTESIAN_POINT('',(1.5E0,1.73E0,3.4E0));
#112=LINE('',#111,#110);
#113=CARTESIAN_POINT('',(1.2E0,1.63E0,3.4E0));
#114=DIRECTION('',(0.E0,-1.E0,0.E0));
#115=DIRECTION('',(1.E0,0.E0,0.E0));
#116=AXIS2_PLACEMENT_3D('',#113,#114,#115);
#118=DIRECTION('',(-1.E0,0.E0,0.E0));
#119=VECTOR('',#118,3.E0);
#120=CARTESIAN_POINT('',(1.5E0,1.53E0,2.6E0));
#121=LINE('',#120,#119);
#122=CARTESIAN_POINT('',(1.5E0,1.53E0,2.8E0));
#123=DIRECTION('',(1.E0,0.E0,0.E0));
#124=DIRECTION('',(0.E0,0.E0,-1.E0));
#125=AXIS2_PLACEMENT_3D('',#122,#123,#124);
#127=DIRECTION('',(-1.E0,0.E0,0.E0));
#128=VECTOR('',#127,3.E0);
#129=CARTESIAN_POINT('',(1.5E0,1.73E0,2.8E0));
#130=LINE('',#129,#128);
#131=CARTESIAN_POINT('',(-1.5E0,1.53E0,2.8E0));
#132=DIRECTION('',(-1.E0,0.E0,0.E0));
#133=DIRECTION('',(0.E0,1.E0,0.E0));
#134=AXIS2_PLACEMENT_3D('',#131,#132,#133);
#136=DIRECTION('',(1.E0,0.E0,0.E0));
#137=VECTOR('',#136,3.E0);
#138=CARTESIAN_POINT('',(-1.5E0,1.E-1,2.6E0));
#139=LINE('',#138,#137);
#140=CARTESIAN_POINT('',(-1.5E0,1.E-1,2.5E0));
#141=DIRECTION('',(1.E0,0.E0,0.E0));
#142=DIRECTION('',(0.E0,0.E0,1.E0));
#143=AXIS2_PLACEMENT_3D('',#140,#141,#142);
#145=DIRECTION('',(1.E0,0.E0,0.E0));
#146=VECTOR('',#145,3.E0);
#147=CARTESIAN_POINT('',(-1.5E0,0.E0,2.5E0));
#148=LINE('',#147,#146);
#149=CARTESIAN_POINT('',(1.5E0,1.E-1,2.5E0));
#150=DIRECTION('',(-1.E0,0.E0,0.E0));
#151=DIRECTION('',(0.E0,-1.E0,0.E0));
#152=AXIS2_PLACEMENT_3D('',#149,#150,#151);
#154=CARTESIAN_POINT('',(0.E0,0.E0,0.E0));
#155=DIRECTION('',(0.E0,1.E0,0.E0));
#156=DIRECTION('',(-6.818181818182E-1,0.E0,7.315216790650E-1));
#157=AXIS2_PLACEMENT_3D('',#154,#155,#156);
#159=CARTESIAN_POINT('',(0.E0,0.E0,0.E0));
#160=DIRECTION('',(0.E0,-1.E0,0.E0));
#161=DIRECTION('',(-6.818181818182E-1,0.E0,7.315216790650E-1));
#162=AXIS2_PLACEMENT_3D('',#159,#160,#161);
#164=CARTESIAN_POINT('',(0.E0,2.E-1,0.E0));
#165=DIRECTION('',(0.E0,-1.E0,0.E0));
#166=DIRECTION('',(1.E0,0.E0,0.E0));
#167=AXIS2_PLACEMENT_3D('',#164,#165,#166);
#169=CARTESIAN_POINT('',(2.2E0,2.E-1,0.E0));
#170=DIRECTION('',(0.E0,0.E0,1.E0));
#171=DIRECTION('',(0.E0,-1.E0,0.E0));
#172=AXIS2_PLACEMENT_3D('',#169,#170,#171);
#174=CARTESIAN_POINT('',(0.E0,0.E0,0.E0));
#175=DIRECTION('',(0.E0,-1.E0,0.E0));
#176=DIRECTION('',(1.E0,0.E0,0.E0));
#177=AXIS2_PLACEMENT_3D('',#174,#175,#176);
#179=CARTESIAN_POINT('',(0.E0,0.E0,0.E0));
#180=DIRECTION('',(0.E0,-1.E0,0.E0));
#181=DIRECTION('',(-1.E0,0.E0,0.E0));
#182=AXIS2_PLACEMENT_3D('',#179,#180,#181);
#184=CARTESIAN_POINT('',(0.E0,2.E-1,0.E0));
#185=DIRECTION('',(0.E0,-1.E0,0.E0));
#186=DIRECTION('',(-1.E0,0.E0,0.E0));
#187=AXIS2_PLACEMENT_3D('',#184,#185,#186);
#189=CARTESIAN_POINT('',(-2.2E0,2.E-1,0.E0));
#190=DIRECTION('',(0.E0,0.E0,-1.E0));
#191=DIRECTION('',(0.E0,-1.E0,0.E0));
#192=AXIS2_PLACEMENT_3D('',#189,#190,#191);
#194=DIRECTION('',(0.E0,1.E0,1.833727397357E-13));
#195=VECTOR('',#194,8.E-1);
#196=CARTESIAN_POINT('',(2.4E0,2.E-1,-1.100144931751E-13));
#197=LINE('',#196,#195);
#198=DIRECTION('',(0.E0,1.E0,-1.839476379377E-13));
#199=VECTOR('',#198,8.E-1);
#200=CARTESIAN_POINT('',(-2.4E0,2.E-1,1.105424996331E-13));
#201=LINE('',#200,#199);
#202=CARTESIAN_POINT('',(0.E0,1.3E0,0.E0));
#203=DIRECTION('',(0.E0,1.E0,0.E0));
#204=DIRECTION('',(-1.E0,0.E0,0.E0));
#205=AXIS2_PLACEMENT_3D('',#202,#203,#204);
#207=CARTESIAN_POINT('',(0.E0,1.E0,0.E0));
#208=DIRECTION('',(0.E0,1.E0,0.E0));
#209=DIRECTION('',(-1.E0,0.E0,0.E0));
#210=AXIS2_PLACEMENT_3D('',#207,#208,#209);
#212=CARTESIAN_POINT('',(-2.1E0,1.E0,0.E0));
#213=DIRECTION('',(0.E0,0.E0,1.E0));
#214=DIRECTION('',(0.E0,1.E0,0.E0));
#215=AXIS2_PLACEMENT_3D('',#212,#213,#214);
#217=CARTESIAN_POINT('',(0.E0,1.48E0,0.E0));
#218=DIRECTION('',(0.E0,1.E0,0.E0));
#219=DIRECTION('',(-6.246086380911E-1,0.E0,-7.809379291736E-1));
#220=AXIS2_PLACEMENT_3D('',#217,#218,#219);
#222=CARTESIAN_POINT('',(0.E0,1.3E0,0.E0));
#223=DIRECTION('',(0.E0,1.E0,0.E0));
#224=DIRECTION('',(1.E0,0.E0,1.305308623696E-13));
#225=AXIS2_PLACEMENT_3D('',#222,#223,#224);
#227=CARTESIAN_POINT('',(1.601002514240E0,1.28E0,0.E0));
#228=DIRECTION('',(0.E0,0.E0,-1.E0));
#229=DIRECTION('',(-8.307814436392E-9,1.E0,0.E0));
#230=AXIS2_PLACEMENT_3D('',#227,#228,#229);
#232=CARTESIAN_POINT('',(0.E0,1.48E0,0.E0));
#233=DIRECTION('',(0.E0,1.E0,0.E0));
#234=DIRECTION('',(1.E0,0.E0,0.E0));
#235=AXIS2_PLACEMENT_3D('',#232,#233,#234);
#237=DIRECTION('',(1.E0,0.E0,0.E0));
#238=VECTOR('',#237,1.E0);
#239=CARTESIAN_POINT('',(-5.E-1,1.48E0,1.7E0));
#240=LINE('',#239,#238);
#241=CARTESIAN_POINT('',(0.E0,1.48E0,0.E0));
#242=DIRECTION('',(0.E0,1.E0,0.E0));
#243=DIRECTION('',(-6.228830675973E-1,0.E0,7.823149519858E-1));
#244=AXIS2_PLACEMENT_3D('',#241,#242,#243);
#246=CARTESIAN_POINT('',(0.E0,1.48E0,0.E0));
#247=DIRECTION('',(0.E0,1.E0,0.E0));
#248=DIRECTION('',(6.246086380911E-1,0.E0,-7.809379291736E-1));
#249=AXIS2_PLACEMENT_3D('',#246,#247,#248);
#251=DIRECTION('',(0.E0,1.E0,0.E0));
#252=VECTOR('',#251,1.E-1);
#253=CARTESIAN_POINT('',(-5.E-1,1.48E0,1.7E0));
#254=LINE('',#253,#252);
#255=CARTESIAN_POINT('',(-5.E-1,1.48E0,1.2E0));
#256=DIRECTION('',(0.E0,-1.E0,0.E0));
#257=DIRECTION('',(0.E0,0.E0,1.E0));
#258=AXIS2_PLACEMENT_3D('',#255,#256,#257);
#260=CARTESIAN_POINT('',(-5.E-1,1.48E0,1.2E0));
#261=DIRECTION('',(0.E0,-1.E0,0.E0));
#262=DIRECTION('',(-9.944747125319E-1,0.E0,1.049764075144E-1));
#263=AXIS2_PLACEMENT_3D('',#260,#261,#262);
#265=DIRECTION('',(0.E0,1.E0,0.E0));
#266=VECTOR('',#265,1.E-1);
#267=CARTESIAN_POINT('',(-1.E0,1.48E0,1.2E0));
#268=LINE('',#267,#266);
#269=CARTESIAN_POINT('',(-5.E-1,1.58E0,1.2E0));
#270=DIRECTION('',(0.E0,1.E0,0.E0));
#271=DIRECTION('',(-1.E0,0.E0,0.E0));
#272=AXIS2_PLACEMENT_3D('',#269,#270,#271);
#274=DIRECTION('',(1.E0,0.E0,0.E0));
#275=VECTOR('',#274,1.E0);
#276=CARTESIAN_POINT('',(-5.E-1,1.58E0,1.7E0));
#277=LINE('',#276,#275);
#278=DIRECTION('',(1.E0,0.E0,0.E0));
#279=VECTOR('',#278,2.E0);
#280=CARTESIAN_POINT('',(-1.E0,1.58E0,-2.003875030503E0));
#281=LINE('',#280,#279);
#282=CARTESIAN_POINT('',(-1.E0,1.68E0,-2.003875030503E0));
#283=DIRECTION('',(1.E0,0.E0,0.E0));
#284=DIRECTION('',(0.E0,-1.E0,0.E0));
#285=AXIS2_PLACEMENT_3D('',#282,#283,#284);
#287=DIRECTION('',(1.E0,0.E0,0.E0));
#288=VECTOR('',#287,2.E0);
#289=CARTESIAN_POINT('',(-1.E0,1.617530495245E0,-2.081961911447E0));
#290=LINE('',#289,#288);
#291=CARTESIAN_POINT('',(1.E0,1.68E0,-2.003875030503E0));
#292=DIRECTION('',(-1.E0,0.E0,0.E0));
#293=DIRECTION('',(0.E0,-6.246950475544E-1,-7.808688094430E-1));
#294=AXIS2_PLACEMENT_3D('',#291,#292,#293);
#296=DIRECTION('',(0.E0,7.808688094430E-1,-6.246950475544E-1));
#297=VECTOR('',#296,1.279062728770E-1);
#298=CARTESIAN_POINT('',(-1.E0,1.555060990489E0,-2.160048792391E0));
#299=LINE('',#298,#297);
#300=DIRECTION('',(0.E0,0.E0,-1.E0));
#301=VECTOR('',#300,8.038750305027E-1);
#302=CARTESIAN_POINT('',(-1.E0,1.73E0,-2.396124969497E0));
#303=LINE('',#302,#301);
#304=DIRECTION('',(0.E0,0.E0,1.E0));
#305=VECTOR('',#304,9.E-1);
#306=CARTESIAN_POINT('',(-1.E0,1.83E0,-3.2E0));
#307=LINE('',#306,#305);
#308=DIRECTION('',(0.E0,-7.808688094430E-1,6.246950475544E-1));
#309=VECTOR('',#308,2.240312423743E-1);
#310=CARTESIAN_POINT('',(-1.E0,1.792469504755E0,-2.221913119056E0));
#311=LINE('',#310,#309);
#312=DIRECTION('',(0.E0,0.E0,1.E0));
#313=VECTOR('',#312,3.203875030503E0);
#314=CARTESIAN_POINT('',(-1.E0,1.58E0,-2.003875030503E0));
#315=LINE('',#314,#313);
#316=DIRECTION('',(0.E0,0.E0,-1.E0));
#317=VECTOR('',#316,7.535914424301E-1);
#318=CARTESIAN_POINT('',(-1.E0,1.48E0,-1.250283588073E0));
#319=LINE('',#318,#317);
#320=DIRECTION('',(-1.E0,0.E0,0.E0));
#321=VECTOR('',#320,2.E0);
#322=CARTESIAN_POINT('',(1.E0,1.48E0,-2.003875030503E0));
#323=LINE('',#322,#321);
#324=CARTESIAN_POINT('',(1.E0,1.68E0,-2.003875030503E0));
#325=DIRECTION('',(1.E0,0.E0,0.E0));
#326=DIRECTION('',(0.E0,-1.E0,0.E0));
#327=AXIS2_PLACEMENT_3D('',#324,#325,#326);
#329=DIRECTION('',(-1.E0,0.E0,0.E0));
#330=VECTOR('',#329,2.E0);
#331=CARTESIAN_POINT('',(1.E0,1.555060990489E0,-2.160048792391E0));
#332=LINE('',#331,#330);
#333=CARTESIAN_POINT('',(-1.E0,1.68E0,-2.003875030503E0));
#334=DIRECTION('',(-1.E0,0.E0,0.E0));
#335=DIRECTION('',(0.E0,-6.246950475544E-1,-7.808688094430E-1));
#336=AXIS2_PLACEMENT_3D('',#333,#334,#335);
#338=DIRECTION('',(0.E0,0.E0,-1.E0));
#339=VECTOR('',#338,7.535914424301E-1);
#340=CARTESIAN_POINT('',(1.E0,1.48E0,-1.250283588073E0));
#341=LINE('',#340,#339);
#342=DIRECTION('',(0.E0,0.E0,1.E0));
#343=VECTOR('',#342,3.203875030503E0);
#344=CARTESIAN_POINT('',(1.E0,1.58E0,-2.003875030503E0));
#345=LINE('',#344,#343);
#346=DIRECTION('',(0.E0,-7.808688094430E-1,6.246950475544E-1));
#347=VECTOR('',#346,2.240312423743E-1);
#348=CARTESIAN_POINT('',(1.E0,1.792469504755E0,-2.221913119056E0));
#349=LINE('',#348,#347);
#350=DIRECTION('',(0.E0,0.E0,1.E0));
#351=VECTOR('',#350,9.E-1);
#352=CARTESIAN_POINT('',(1.E0,1.83E0,-3.2E0));
#353=LINE('',#352,#351);
#354=DIRECTION('',(0.E0,0.E0,-1.E0));
#355=VECTOR('',#354,8.038750305027E-1);
#356=CARTESIAN_POINT('',(1.E0,1.73E0,-2.396124969497E0));
#357=LINE('',#356,#355);
#358=DIRECTION('',(0.E0,7.808688094430E-1,-6.246950475544E-1));
#359=VECTOR('',#358,1.279062728770E-1);
#360=CARTESIAN_POINT('',(1.E0,1.555060990489E0,-2.160048792391E0));
#361=LINE('',#360,#359);
#362=DIRECTION('',(0.E0,0.E0,-1.E0));
#363=VECTOR('',#362,2.450283588073E0);
#364=CARTESIAN_POINT('',(-1.E0,1.48E0,1.2E0));
#365=LINE('',#364,#363);
#366=CARTESIAN_POINT('',(0.E0,1.48E0,0.E0));
#367=DIRECTION('',(0.E0,-1.E0,0.E0));
#368=DIRECTION('',(-6.228830675973E-1,0.E0,7.823149519858E-1));
#369=AXIS2_PLACEMENT_3D('',#366,#367,#368);
#371=CARTESIAN_POINT('',(0.E0,1.48E0,0.E0));
#372=DIRECTION('',(0.E0,-1.E0,0.E0));
#373=DIRECTION('',(1.E0,0.E0,0.E0));
#374=AXIS2_PLACEMENT_3D('',#371,#372,#373);
#376=DIRECTION('',(0.E0,0.E0,-1.E0));
#377=VECTOR('',#376,2.450283588073E0);
#378=CARTESIAN_POINT('',(1.E0,1.48E0,1.2E0));
#379=LINE('',#378,#377);
#380=CARTESIAN_POINT('',(0.E0,1.3E0,0.E0));
#381=DIRECTION('',(0.E0,1.E0,0.E0));
#382=DIRECTION('',(-1.E0,0.E0,-6.603566575591E-14));
#383=AXIS2_PLACEMENT_3D('',#380,#381,#382);
#385=CARTESIAN_POINT('',(-1.601002512579E0,1.28E0,0.E0));
#386=DIRECTION('',(0.E0,0.E0,1.E0));
#387=DIRECTION('',(0.E0,1.E0,0.E0));
#388=AXIS2_PLACEMENT_3D('',#385,#386,#387);
#390=DIRECTION('',(0.E0,-1.E0,0.E0));
#391=VECTOR('',#390,1.E-1);
#392=CARTESIAN_POINT('',(5.E-1,1.58E0,1.7E0));
#393=LINE('',#392,#391);
#394=CARTESIAN_POINT('',(5.E-1,1.58E0,1.2E0));
#395=DIRECTION('',(0.E0,1.E0,0.E0));
#396=DIRECTION('',(0.E0,0.E0,1.E0));
#397=AXIS2_PLACEMENT_3D('',#394,#395,#396);
#399=DIRECTION('',(0.E0,-1.E0,0.E0));
#400=VECTOR('',#399,1.E-1);
#401=CARTESIAN_POINT('',(1.E0,1.58E0,1.2E0));
#402=LINE('',#401,#400);
#403=CARTESIAN_POINT('',(5.E-1,1.48E0,1.2E0));
#404=DIRECTION('',(0.E0,-1.E0,0.E0));
#405=DIRECTION('',(1.E0,0.E0,0.E0));
#406=AXIS2_PLACEMENT_3D('',#403,#404,#405);
#408=CARTESIAN_POINT('',(5.E-1,1.48E0,1.2E0));
#409=DIRECTION('',(0.E0,-1.E0,0.E0));
#410=DIRECTION('',(9.944747125319E-1,0.E0,1.049764075144E-1));
#411=AXIS2_PLACEMENT_3D('',#408,#409,#410);
#413=DIRECTION('',(-1.E0,0.E0,0.E0));
#414=VECTOR('',#413,2.E0);
#415=CARTESIAN_POINT('',(1.E0,1.83E0,-2.3E0));
#416=LINE('',#415,#414);
#417=CARTESIAN_POINT('',(1.E0,1.73E0,-2.3E0));
#418=DIRECTION('',(1.E0,0.E0,0.E0));
#419=DIRECTION('',(0.E0,1.E0,0.E0));
#420=AXIS2_PLACEMENT_3D('',#417,#418,#419);
#422=DIRECTION('',(-1.E0,0.E0,0.E0));
#423=VECTOR('',#422,2.E0);
#424=CARTESIAN_POINT('',(1.E0,1.792469504755E0,-2.221913119056E0));
#425=LINE('',#424,#423);
#426=CARTESIAN_POINT('',(-1.E0,1.73E0,-2.3E0));
#427=DIRECTION('',(-1.E0,0.E0,0.E0));
#428=DIRECTION('',(0.E0,6.246950475544E-1,7.808688094430E-1));
#429=AXIS2_PLACEMENT_3D('',#426,#427,#428);
#431=DIRECTION('',(1.E0,0.E0,0.E0));
#432=VECTOR('',#431,1.4E0);
#433=CARTESIAN_POINT('',(-7.E-1,1.83E0,-3.5E0));
#434=LINE('',#433,#432);
#435=DIRECTION('',(0.E0,-1.E0,0.E0));
#436=VECTOR('',#435,1.E-1);
#437=CARTESIAN_POINT('',(-7.E-1,1.83E0,-3.5E0));
#438=LINE('',#437,#436);
#439=CARTESIAN_POINT('',(-7.E-1,1.83E0,-3.2E0));
#440=DIRECTION('',(0.E0,1.E0,0.E0));
#441=DIRECTION('',(0.E0,0.E0,-1.E0));
#442=AXIS2_PLACEMENT_3D('',#439,#440,#441);
#444=DIRECTION('',(0.E0,-1.E0,0.E0));
#445=VECTOR('',#444,1.E-1);
#446=CARTESIAN_POINT('',(-1.E0,1.83E0,-3.2E0));
#447=LINE('',#446,#445);
#448=CARTESIAN_POINT('',(-7.E-1,1.73E0,-3.2E0));
#449=DIRECTION('',(0.E0,-1.E0,0.E0));
#450=DIRECTION('',(-1.E0,0.E0,0.E0));
#451=AXIS2_PLACEMENT_3D('',#448,#449,#450);
#453=DIRECTION('',(1.E0,0.E0,0.E0));
#454=VECTOR('',#453,1.4E0);
#455=CARTESIAN_POINT('',(-7.E-1,1.73E0,-3.5E0));
#456=LINE('',#455,#454);
#457=DIRECTION('',(1.E0,0.E0,0.E0));
#458=VECTOR('',#457,2.E0);
#459=CARTESIAN_POINT('',(-1.E0,1.73E0,-2.396124969497E0));
#460=LINE('',#459,#458);
#461=CARTESIAN_POINT('',(-1.E0,1.53E0,-2.396124969497E0));
#462=DIRECTION('',(1.E0,0.E0,0.E0));
#463=DIRECTION('',(0.E0,1.E0,0.E0));
#464=AXIS2_PLACEMENT_3D('',#461,#462,#463);
#466=DIRECTION('',(1.E0,0.E0,0.E0));
#467=VECTOR('',#466,2.E0);
#468=CARTESIAN_POINT('',(-1.E0,1.654939009511E0,-2.239951207609E0));
#469=LINE('',#468,#467);
#470=CARTESIAN_POINT('',(1.E0,1.53E0,-2.396124969497E0));
#471=DIRECTION('',(-1.E0,0.E0,0.E0));
#472=DIRECTION('',(0.E0,6.246950475544E-1,7.808688094430E-1));
#473=AXIS2_PLACEMENT_3D('',#470,#471,#472);
#475=DIRECTION('',(0.E0,1.E0,0.E0));
#476=VECTOR('',#475,1.E-1);
#477=CARTESIAN_POINT('',(7.E-1,1.73E0,-3.5E0));
#478=LINE('',#477,#476);
#479=CARTESIAN_POINT('',(7.E-1,1.73E0,-3.2E0));
#480=DIRECTION('',(0.E0,-1.E0,0.E0));
#481=DIRECTION('',(0.E0,0.E0,-1.E0));
#482=AXIS2_PLACEMENT_3D('',#479,#480,#481);
#484=DIRECTION('',(0.E0,1.E0,0.E0));
#485=VECTOR('',#484,1.E-1);
#486=CARTESIAN_POINT('',(1.E0,1.73E0,-3.2E0));
#487=LINE('',#486,#485);
#488=CARTESIAN_POINT('',(7.E-1,1.83E0,-3.2E0));
#489=DIRECTION('',(0.E0,1.E0,0.E0));
#490=DIRECTION('',(1.E0,0.E0,0.E0));
#491=AXIS2_PLACEMENT_3D('',#488,#489,#490);
#493=CARTESIAN_POINT('',(0.E0,1.3E0,0.E0));
#494=DIRECTION('',(0.E0,1.E0,0.E0));
#495=DIRECTION('',(1.E0,0.E0,0.E0));
#496=AXIS2_PLACEMENT_3D('',#493,#494,#495);
#498=CARTESIAN_POINT('',(0.E0,1.E0,0.E0));
#499=DIRECTION('',(0.E0,1.E0,0.E0));
#500=DIRECTION('',(1.E0,0.E0,0.E0));
#501=AXIS2_PLACEMENT_3D('',#498,#499,#500);
#503=CARTESIAN_POINT('',(2.1E0,1.E0,0.E0));
#504=DIRECTION('',(0.E0,0.E0,-1.E0));
#505=DIRECTION('',(0.E0,1.E0,0.E0));
#506=AXIS2_PLACEMENT_3D('',#503,#504,#505);
#508=DIRECTION('',(0.E0,-1.E0,0.E0));
#509=VECTOR('',#508,1.43E0);
#510=CARTESIAN_POINT('',(1.5E0,1.53E0,2.7E0));
#511=LINE('',#510,#509);
#512=DIRECTION('',(0.E0,0.E0,-1.E0));
#513=VECTOR('',#512,6.E-1);
#514=CARTESIAN_POINT('',(1.5E0,1.63E0,3.4E0));
#515=LINE('',#514,#513);
#516=DIRECTION('',(0.E0,0.E0,1.E0));
#517=VECTOR('',#516,6.E-1);
#518=CARTESIAN_POINT('',(1.5E0,1.73E0,2.8E0));
#519=LINE('',#518,#517);
#520=DIRECTION('',(0.E0,1.E0,0.E0));
#521=VECTOR('',#520,1.43E0);
#522=CARTESIAN_POINT('',(1.5E0,1.E-1,2.6E0));
#523=LINE('',#522,#521);
#524=DIRECTION('',(0.E0,0.E0,1.E0));
#525=VECTOR('',#524,8.906523060569E-1);
#526=CARTESIAN_POINT('',(1.5E0,0.E0,1.609347693943E0));
#527=LINE('',#526,#525);
#528=DIRECTION('',(0.E0,0.E0,-1.E0));
#529=VECTOR('',#528,3.1E0);
#530=CARTESIAN_POINT('',(1.5E0,-1.E-1,2.5E0));
#531=LINE('',#530,#529);
#532=DIRECTION('',(0.E0,1.E0,0.E0));
#533=VECTOR('',#532,1.E-1);
#534=CARTESIAN_POINT('',(5.E-1,-1.E-1,-1.6E0));
#535=LINE('',#534,#533);
#536=CARTESIAN_POINT('',(5.E-1,-1.E-1,-6.E-1));
#537=DIRECTION('',(0.E0,-1.E0,0.E0));
#538=DIRECTION('',(0.E0,0.E0,-1.E0));
#539=AXIS2_PLACEMENT_3D('',#536,#537,#538);
#541=DIRECTION('',(0.E0,1.E0,0.E0));
#542=VECTOR('',#541,1.E-1);
#543=CARTESIAN_POINT('',(1.5E0,-1.E-1,-6.E-1));
#544=LINE('',#543,#542);
#545=CARTESIAN_POINT('',(5.E-1,0.E0,-6.E-1));
#546=DIRECTION('',(0.E0,1.E0,0.E0));
#547=DIRECTION('',(1.E0,0.E0,0.E0));
#548=AXIS2_PLACEMENT_3D('',#545,#546,#547);
#550=DIRECTION('',(1.E0,0.E0,0.E0));
#551=VECTOR('',#550,1.E0);
#552=CARTESIAN_POINT('',(-5.E-1,-1.E-1,-1.6E0));
#553=LINE('',#552,#551);
#554=DIRECTION('',(0.E0,-1.E0,0.E0));
#555=VECTOR('',#554,1.E-1);
#556=CARTESIAN_POINT('',(-5.E-1,0.E0,-1.6E0));
#557=LINE('',#556,#555);
#558=CARTESIAN_POINT('',(-5.E-1,0.E0,-6.E-1));
#559=DIRECTION('',(0.E0,1.E0,0.E0));
#560=DIRECTION('',(0.E0,0.E0,-1.E0));
#561=AXIS2_PLACEMENT_3D('',#558,#559,#560);
#563=DIRECTION('',(0.E0,-1.E0,0.E0));
#564=VECTOR('',#563,1.E-1);
#565=CARTESIAN_POINT('',(-1.5E0,0.E0,-6.E-1));
#566=LINE('',#565,#564);
#567=CARTESIAN_POINT('',(-5.E-1,-1.E-1,-6.E-1));
#568=DIRECTION('',(0.E0,-1.E0,0.E0));
#569=DIRECTION('',(-1.E0,0.E0,0.E0));
#570=AXIS2_PLACEMENT_3D('',#567,#568,#569);
#572=CARTESIAN_POINT('',(1.800000001662E0,1.3E0,2.349555524821E-13));
#573=CARTESIAN_POINT('',(-1.800000001662E0,1.3E0,-1.192686977481E-13));
#574=VERTEX_POINT('',#572);
#575=VERTEX_POINT('',#573);
#576=CARTESIAN_POINT('',(-1.601002512579E0,1.48E0,0.E0));
#577=VERTEX_POINT('',#576);
#578=CARTESIAN_POINT('',(1.601002512579E0,1.48E0,0.E0));
#579=VERTEX_POINT('',#578);
#580=CARTESIAN_POINT('',(2.099999999983E0,1.3E0,0.E0));
#581=CARTESIAN_POINT('',(-2.099999999983E0,1.3E0,0.E0));
#582=VERTEX_POINT('',#580);
#583=VERTEX_POINT('',#581);
#584=CARTESIAN_POINT('',(2.4E0,1.E0,0.E0));
#585=CARTESIAN_POINT('',(-2.4E0,1.E0,0.E0));
#586=VERTEX_POINT('',#584);
#587=VERTEX_POINT('',#585);
#588=CARTESIAN_POINT('',(5.E-1,-1.E-1,-1.6E0));
#589=CARTESIAN_POINT('',(5.E-1,0.E0,-1.6E0));
#590=VERTEX_POINT('',#588);
#591=VERTEX_POINT('',#589);
#592=CARTESIAN_POINT('',(1.5E0,-1.E-1,-6.E-1));
#593=VERTEX_POINT('',#592);
#594=CARTESIAN_POINT('',(1.5E0,0.E0,-6.E-1));
#595=VERTEX_POINT('',#594);
#596=CARTESIAN_POINT('',(-5.E-1,0.E0,-1.6E0));
#597=CARTESIAN_POINT('',(-5.E-1,-1.E-1,-1.6E0));
#598=VERTEX_POINT('',#596);
#599=VERTEX_POINT('',#597);
#600=CARTESIAN_POINT('',(-1.5E0,0.E0,-6.E-1));
#601=CARTESIAN_POINT('',(-1.5E0,-1.E-1,-6.E-1));
#602=VERTEX_POINT('',#600);
#603=VERTEX_POINT('',#601);
#604=CARTESIAN_POINT('',(-1.5E0,0.E0,1.609347693943E0));
#605=VERTEX_POINT('',#604);
#606=CARTESIAN_POINT('',(1.5E0,0.E0,1.609347693943E0));
#607=VERTEX_POINT('',#606);
#608=CARTESIAN_POINT('',(1.2E0,1.73E0,3.7E0));
#609=CARTESIAN_POINT('',(1.2E0,1.63E0,3.7E0));
#610=VERTEX_POINT('',#608);
#611=VERTEX_POINT('',#609);
#612=CARTESIAN_POINT('',(1.5E0,1.73E0,3.4E0));
#613=VERTEX_POINT('',#612);
#614=CARTESIAN_POINT('',(1.5E0,1.63E0,3.4E0));
#615=VERTEX_POINT('',#614);
#616=CARTESIAN_POINT('',(-1.2E0,1.63E0,3.7E0));
#617=CARTESIAN_POINT('',(-1.2E0,1.73E0,3.7E0));
#618=VERTEX_POINT('',#616);
#619=VERTEX_POINT('',#617);
#620=CARTESIAN_POINT('',(-1.5E0,1.63E0,3.4E0));
#621=VERTEX_POINT('',#620);
#622=CARTESIAN_POINT('',(-1.5E0,1.73E0,3.4E0));
#623=VERTEX_POINT('',#622);
#624=CARTESIAN_POINT('',(-1.5E0,1.53E0,2.7E0));
#625=CARTESIAN_POINT('',(1.5E0,1.53E0,2.7E0));
#626=VERTEX_POINT('',#624);
#627=VERTEX_POINT('',#625);
#628=CARTESIAN_POINT('',(-1.5E0,1.63E0,2.8E0));
#629=CARTESIAN_POINT('',(1.5E0,1.63E0,2.8E0));
#630=VERTEX_POINT('',#628);
#631=VERTEX_POINT('',#629);
#632=CARTESIAN_POINT('',(1.5E0,1.53E0,2.6E0));
#633=CARTESIAN_POINT('',(-1.5E0,1.53E0,2.6E0));
#634=VERTEX_POINT('',#632);
#635=VERTEX_POINT('',#633);
#636=CARTESIAN_POINT('',(1.5E0,1.73E0,2.8E0));
#637=VERTEX_POINT('',#636);
#638=CARTESIAN_POINT('',(-1.5E0,1.73E0,2.8E0));
#639=VERTEX_POINT('',#638);
#640=CARTESIAN_POINT('',(-1.5E0,1.E-1,2.6E0));
#641=CARTESIAN_POINT('',(1.5E0,1.E-1,2.6E0));
#642=VERTEX_POINT('',#640);
#643=VERTEX_POINT('',#641);
#644=CARTESIAN_POINT('',(-1.5E0,0.E0,2.5E0));
#645=CARTESIAN_POINT('',(1.5E0,0.E0,2.5E0));
#646=VERTEX_POINT('',#644);
#647=VERTEX_POINT('',#645);
#648=CARTESIAN_POINT('',(1.5E0,1.E-1,2.7E0));
#649=CARTESIAN_POINT('',(-1.5E0,1.E-1,2.7E0));
#650=VERTEX_POINT('',#648);
#651=VERTEX_POINT('',#649);
#652=CARTESIAN_POINT('',(1.5E0,-1.E-1,2.5E0));
#653=VERTEX_POINT('',#652);
#654=CARTESIAN_POINT('',(-1.5E0,-1.E-1,2.5E0));
#655=VERTEX_POINT('',#654);
#656=CARTESIAN_POINT('',(1.E0,1.48E0,-1.250283588073E0));
#657=CARTESIAN_POINT('',(-1.E0,1.48E0,-1.250283588073E0));
#658=VERTEX_POINT('',#656);
#659=VERTEX_POINT('',#657);
#660=CARTESIAN_POINT('',(-5.E-1,1.48E0,1.7E0));
#661=CARTESIAN_POINT('',(-5.E-1,1.58E0,1.7E0));
#662=VERTEX_POINT('',#660);
#663=VERTEX_POINT('',#661);
#664=CARTESIAN_POINT('',(-9.972373562659E-1,1.48E0,1.252488203757E0));
#665=VERTEX_POINT('',#664);
#666=CARTESIAN_POINT('',(-1.E0,1.48E0,1.2E0));
#667=CARTESIAN_POINT('',(-1.E0,1.58E0,1.2E0));
#668=VERTEX_POINT('',#666);
#669=VERTEX_POINT('',#667);
#670=CARTESIAN_POINT('',(5.E-1,1.58E0,1.7E0));
#671=CARTESIAN_POINT('',(5.E-1,1.48E0,1.7E0));
#672=VERTEX_POINT('',#670);
#673=VERTEX_POINT('',#671);
#674=CARTESIAN_POINT('',(1.E0,1.58E0,1.2E0));
#675=VERTEX_POINT('',#674);
#676=CARTESIAN_POINT('',(1.E0,1.48E0,1.2E0));
#677=VERTEX_POINT('',#676);
#678=CARTESIAN_POINT('',(9.972373562659E-1,1.48E0,1.252488203757E0));
#679=VERTEX_POINT('',#678);
#680=CARTESIAN_POINT('',(-7.E-1,1.83E0,-3.5E0));
#681=CARTESIAN_POINT('',(-7.E-1,1.73E0,-3.5E0));
#682=VERTEX_POINT('',#680);
#683=VERTEX_POINT('',#681);
#684=CARTESIAN_POINT('',(-1.E0,1.83E0,-3.2E0));
#685=VERTEX_POINT('',#684);
#686=CARTESIAN_POINT('',(-1.E0,1.73E0,-3.2E0));
#687=VERTEX_POINT('',#686);
#688=CARTESIAN_POINT('',(7.E-1,1.73E0,-3.5E0));
#689=CARTESIAN_POINT('',(7.E-1,1.83E0,-3.5E0));
#690=VERTEX_POINT('',#688);
#691=VERTEX_POINT('',#689);
#692=CARTESIAN_POINT('',(1.E0,1.73E0,-3.2E0));
#693=VERTEX_POINT('',#692);
#694=CARTESIAN_POINT('',(1.E0,1.83E0,-3.2E0));
#695=VERTEX_POINT('',#694);
#696=CARTESIAN_POINT('',(-1.E0,1.58E0,-2.003875030503E0));
#697=CARTESIAN_POINT('',(1.E0,1.58E0,-2.003875030503E0));
#698=VERTEX_POINT('',#696);
#699=VERTEX_POINT('',#697);
#700=CARTESIAN_POINT('',(-1.E0,1.617530495245E0,-2.081961911447E0));
#701=CARTESIAN_POINT('',(1.E0,1.617530495245E0,-2.081961911447E0));
#702=VERTEX_POINT('',#700);
#703=VERTEX_POINT('',#701);
#704=CARTESIAN_POINT('',(1.E0,1.83E0,-2.3E0));
#705=CARTESIAN_POINT('',(-1.E0,1.83E0,-2.3E0));
#706=VERTEX_POINT('',#704);
#707=VERTEX_POINT('',#705);
#708=CARTESIAN_POINT('',(1.E0,1.792469504755E0,-2.221913119056E0));
#709=VERTEX_POINT('',#708);
#710=CARTESIAN_POINT('',(-1.E0,1.792469504755E0,-2.221913119056E0));
#711=VERTEX_POINT('',#710);
#712=CARTESIAN_POINT('',(-1.E0,1.73E0,-2.396124969497E0));
#713=CARTESIAN_POINT('',(1.E0,1.73E0,-2.396124969497E0));
#714=VERTEX_POINT('',#712);
#715=VERTEX_POINT('',#713);
#716=CARTESIAN_POINT('',(-1.E0,1.654939009511E0,-2.239951207609E0));
#717=CARTESIAN_POINT('',(1.E0,1.654939009511E0,-2.239951207609E0));
#718=VERTEX_POINT('',#716);
#719=VERTEX_POINT('',#717);
#720=CARTESIAN_POINT('',(1.E0,1.48E0,-2.003875030503E0));
#721=CARTESIAN_POINT('',(-1.E0,1.48E0,-2.003875030503E0));
#722=VERTEX_POINT('',#720);
#723=VERTEX_POINT('',#721);
#724=CARTESIAN_POINT('',(1.E0,1.555060990489E0,-2.160048792391E0));
#725=VERTEX_POINT('',#724);
#726=CARTESIAN_POINT('',(-1.E0,1.555060990489E0,-2.160048792391E0));
#727=VERTEX_POINT('',#726);
#728=CARTESIAN_POINT('',(2.4E0,2.E-1,0.E0));
#729=CARTESIAN_POINT('',(-2.4E0,2.E-1,0.E0));
#730=VERTEX_POINT('',#728);
#731=VERTEX_POINT('',#729);
#732=CARTESIAN_POINT('',(-2.199999999982E0,0.E0,0.E0));
#733=CARTESIAN_POINT('',(2.199999999982E0,0.E0,0.E0));
#734=VERTEX_POINT('',#732);
#735=VERTEX_POINT('',#733);
#736=CARTESIAN_POINT('',(0.E0,0.E0,0.E0));
#737=DIRECTION('',(0.E0,1.E0,0.E0));
#738=DIRECTION('',(1.E0,0.E0,0.E0));
#739=AXIS2_PLACEMENT_3D('',#736,#737,#738);
#740=PLANE('',#739);
#742=ORIENTED_EDGE('',*,*,#741,.T.);
#744=ORIENTED_EDGE('',*,*,#743,.F.);
#746=ORIENTED_EDGE('',*,*,#745,.T.);
#748=ORIENTED_EDGE('',*,*,#747,.F.);
#750=ORIENTED_EDGE('',*,*,#749,.F.);
#752=ORIENTED_EDGE('',*,*,#751,.F.);
#754=ORIENTED_EDGE('',*,*,#753,.F.);
#756=ORIENTED_EDGE('',*,*,#755,.F.);
#757=EDGE_LOOP('',(#742,#744,#746,#748,#750,#752,#754,#756));
#758=FACE_OUTER_BOUND('',#757,.F.);
#759=ADVANCED_FACE('',(#758),#740,.F.);
#760=CARTESIAN_POINT('',(-1.5E0,0.E0,0.E0));
#761=DIRECTION('',(1.E0,0.E0,0.E0));
#762=DIRECTION('',(0.E0,0.E0,1.E0));
#763=AXIS2_PLACEMENT_3D('',#760,#761,#762);
#764=PLANE('',#763);
#766=ORIENTED_EDGE('',*,*,#765,.F.);
#768=ORIENTED_EDGE('',*,*,#767,.T.);
#770=ORIENTED_EDGE('',*,*,#769,.F.);
#771=ORIENTED_EDGE('',*,*,#741,.F.);
#773=ORIENTED_EDGE('',*,*,#772,.T.);
#775=ORIENTED_EDGE('',*,*,#774,.F.);
#777=ORIENTED_EDGE('',*,*,#776,.T.);
#779=ORIENTED_EDGE('',*,*,#778,.F.);
#781=ORIENTED_EDGE('',*,*,#780,.T.);
#783=ORIENTED_EDGE('',*,*,#782,.F.);
#785=ORIENTED_EDGE('',*,*,#784,.T.);
#787=ORIENTED_EDGE('',*,*,#786,.F.);
#789=ORIENTED_EDGE('',*,*,#788,.T.);
#790=EDGE_LOOP('',(#766,#768,#770,#771,#773,#775,#777,#779,#781,#783,#785,#787,
#789));
#791=FACE_OUTER_BOUND('',#790,.F.);
#792=ADVANCED_FACE('',(#791),#764,.F.);
#793=CARTESIAN_POINT('',(1.505199421500E0,1.E-1,2.5E0));
#794=DIRECTION('',(-1.E0,0.E0,0.E0));
#795=DIRECTION('',(0.E0,-1.E0,0.E0));
#796=AXIS2_PLACEMENT_3D('',#793,#794,#795);
#797=CYLINDRICAL_SURFACE('',#796,2.E-1);
#799=ORIENTED_EDGE('',*,*,#798,.F.);
#801=ORIENTED_EDGE('',*,*,#800,.T.);
#803=ORIENTED_EDGE('',*,*,#802,.T.);
#804=ORIENTED_EDGE('',*,*,#765,.T.);
#805=EDGE_LOOP('',(#799,#801,#803,#804));
#806=FACE_OUTER_BOUND('',#805,.F.);
#807=ADVANCED_FACE('',(#806),#797,.T.);
#808=CARTESIAN_POINT('',(-1.5E0,1.63E0,2.7E0));
#809=DIRECTION('',(0.E0,0.E0,1.E0));
#810=DIRECTION('',(0.E0,-1.E0,0.E0));
#811=AXIS2_PLACEMENT_3D('',#808,#809,#810);
#812=PLANE('',#811);
#813=ORIENTED_EDGE('',*,*,#798,.T.);
#814=ORIENTED_EDGE('',*,*,#788,.F.);
#816=ORIENTED_EDGE('',*,*,#815,.T.);
#818=ORIENTED_EDGE('',*,*,#817,.T.);
#819=EDGE_LOOP('',(#813,#814,#816,#818));
#820=FACE_OUTER_BOUND('',#819,.F.);
#821=ADVANCED_FACE('',(#820),#812,.T.);
#822=CARTESIAN_POINT('',(-1.504442634536E0,1.53E0,2.8E0));
#823=DIRECTION('',(1.E0,0.E0,0.E0));
#824=DIRECTION('',(0.E0,0.E0,-1.E0));
#825=AXIS2_PLACEMENT_3D('',#822,#823,#824);
#826=CYLINDRICAL_SURFACE('',#825,1.E-1);
#827=ORIENTED_EDGE('',*,*,#815,.F.);
#828=ORIENTED_EDGE('',*,*,#786,.T.);
#830=ORIENTED_EDGE('',*,*,#829,.T.);
#832=ORIENTED_EDGE('',*,*,#831,.T.);
#833=EDGE_LOOP('',(#827,#828,#830,#832));
#834=FACE_OUTER_BOUND('',#833,.F.);
#835=ADVANCED_FACE('',(#834),#826,.F.);
#836=CARTESIAN_POINT('',(-1.5E0,1.63E0,3.7E0));
#837=DIRECTION('',(0.E0,-1.E0,0.E0));
#838=DIRECTION('',(0.E0,0.E0,-1.E0));
#839=AXIS2_PLACEMENT_3D('',#836,#837,#838);
#840=PLANE('',#839);
#841=ORIENTED_EDGE('',*,*,#829,.F.);
#842=ORIENTED_EDGE('',*,*,#784,.F.);
#844=ORIENTED_EDGE('',*,*,#843,.F.);
#846=ORIENTED_EDGE('',*,*,#845,.T.);
#848=ORIENTED_EDGE('',*,*,#847,.F.);
#850=ORIENTED_EDGE('',*,*,#849,.T.);
#851=EDGE_LOOP('',(#841,#842,#844,#846,#848,#850));
#852=FACE_OUTER_BOUND('',#851,.F.);
#853=ADVANCED_FACE('',(#852),#840,.T.);
#854=CARTESIAN_POINT('',(-1.2E0,1.622741942518E0,3.4E0));
#855=DIRECTION('',(0.E0,1.E0,0.E0));
#856=DIRECTION('',(-1.E0,0.E0,0.E0));
#857=AXIS2_PLACEMENT_3D('',#854,#855,#856);
#858=CYLINDRICAL_SURFACE('',#857,3.E-1);
#860=ORIENTED_EDGE('',*,*,#859,.F.);
#861=ORIENTED_EDGE('',*,*,#843,.T.);
#862=ORIENTED_EDGE('',*,*,#782,.T.);
#864=ORIENTED_EDGE('',*,*,#863,.T.);
#865=EDGE_LOOP('',(#860,#861,#862,#864));
#866=FACE_OUTER_BOUND('',#865,.F.);
#867=ADVANCED_FACE('',(#866),#858,.T.);
#868=CARTESIAN_POINT('',(-1.5E0,1.73E0,3.7E0));
#869=DIRECTION('',(0.E0,0.E0,1.E0));
#870=DIRECTION('',(0.E0,-1.E0,0.E0));
#871=AXIS2_PLACEMENT_3D('',#868,#869,#870);
#872=PLANE('',#871);
#874=ORIENTED_EDGE('',*,*,#873,.T.);
#875=ORIENTED_EDGE('',*,*,#845,.F.);
#876=ORIENTED_EDGE('',*,*,#859,.T.);
#878=ORIENTED_EDGE('',*,*,#877,.T.);
#879=EDGE_LOOP('',(#874,#875,#876,#878));
#880=FACE_OUTER_BOUND('',#879,.F.);
#881=ADVANCED_FACE('',(#880),#872,.T.);
#882=CARTESIAN_POINT('',(1.2E0,1.735010822852E0,3.4E0));
#883=DIRECTION('',(0.E0,-1.E0,0.E0));
#884=DIRECTION('',(1.E0,0.E0,0.E0));
#885=AXIS2_PLACEMENT_3D('',#882,#883,#884);
#886=CYLINDRICAL_SURFACE('',#885,3.E-1);
#887=ORIENTED_EDGE('',*,*,#873,.F.);
#889=ORIENTED_EDGE('',*,*,#888,.T.);
#891=ORIENTED_EDGE('',*,*,#890,.T.);
#892=ORIENTED_EDGE('',*,*,#847,.T.);
#893=EDGE_LOOP('',(#887,#889,#891,#892));
#894=FACE_OUTER_BOUND('',#893,.F.);
#895=ADVANCED_FACE('',(#894),#886,.T.);
#896=CARTESIAN_POINT('',(-1.5E0,1.73E0,2.6E0));
#897=DIRECTION('',(0.E0,1.E0,0.E0));
#898=DIRECTION('',(0.E0,0.E0,1.E0));
#899=AXIS2_PLACEMENT_3D('',#896,#897,#898);
#900=PLANE('',#899);
#902=ORIENTED_EDGE('',*,*,#901,.F.);
#904=ORIENTED_EDGE('',*,*,#903,.T.);
#905=ORIENTED_EDGE('',*,*,#888,.F.);
#906=ORIENTED_EDGE('',*,*,#877,.F.);
#907=ORIENTED_EDGE('',*,*,#863,.F.);
#908=ORIENTED_EDGE('',*,*,#780,.F.);
#909=EDGE_LOOP('',(#902,#904,#905,#906,#907,#908));
#910=FACE_OUTER_BOUND('',#909,.F.);
#911=ADVANCED_FACE('',(#910),#900,.T.);
#912=CARTESIAN_POINT('',(1.505199421500E0,1.53E0,2.8E0));
#913=DIRECTION('',(-1.E0,0.E0,0.E0));
#914=DIRECTION('',(0.E0,1.E0,0.E0));
#915=AXIS2_PLACEMENT_3D('',#912,#913,#914);
#916=CYLINDRICAL_SURFACE('',#915,2.E-1);
#918=ORIENTED_EDGE('',*,*,#917,.F.);
#920=ORIENTED_EDGE('',*,*,#919,.T.);
#921=ORIENTED_EDGE('',*,*,#901,.T.);
#922=ORIENTED_EDGE('',*,*,#778,.T.);
#923=EDGE_LOOP('',(#918,#920,#921,#922));
#924=FACE_OUTER_BOUND('',#923,.F.);
#925=ADVANCED_FACE('',(#924),#916,.T.);
#926=CARTESIAN_POINT('',(-1.5E0,0.E0,2.6E0));
#927=DIRECTION('',(0.E0,0.E0,-1.E0));
#928=DIRECTION('',(0.E0,1.E0,0.E0));
#929=AXIS2_PLACEMENT_3D('',#926,#927,#928);
#930=PLANE('',#929);
#932=ORIENTED_EDGE('',*,*,#931,.T.);
#934=ORIENTED_EDGE('',*,*,#933,.T.);
#935=ORIENTED_EDGE('',*,*,#917,.T.);
#936=ORIENTED_EDGE('',*,*,#776,.F.);
#937=EDGE_LOOP('',(#932,#934,#935,#936));
#938=FACE_OUTER_BOUND('',#937,.F.);
#939=ADVANCED_FACE('',(#938),#930,.T.);
#940=CARTESIAN_POINT('',(-1.504442634536E0,1.E-1,2.5E0));
#941=DIRECTION('',(1.E0,0.E0,0.E0));
#942=DIRECTION('',(0.E0,0.E0,1.E0));
#943=AXIS2_PLACEMENT_3D('',#940,#941,#942);
#944=CYLINDRICAL_SURFACE('',#943,1.E-1);
#945=ORIENTED_EDGE('',*,*,#931,.F.);
#946=ORIENTED_EDGE('',*,*,#774,.T.);
#948=ORIENTED_EDGE('',*,*,#947,.T.);
#950=ORIENTED_EDGE('',*,*,#949,.T.);
#951=EDGE_LOOP('',(#945,#946,#948,#950));
#952=FACE_OUTER_BOUND('',#951,.F.);
#953=ADVANCED_FACE('',(#952),#944,.F.);
#954=CARTESIAN_POINT('',(-1.5E0,0.E0,-1.6E0));
#955=DIRECTION('',(0.E0,1.E0,0.E0));
#956=DIRECTION('',(0.E0,0.E0,1.E0));
#957=AXIS2_PLACEMENT_3D('',#954,#955,#956);
#958=PLANE('',#957);
#959=ORIENTED_EDGE('',*,*,#947,.F.);
#960=ORIENTED_EDGE('',*,*,#772,.F.);
#962=ORIENTED_EDGE('',*,*,#961,.T.);
#964=ORIENTED_EDGE('',*,*,#963,.T.);
#965=EDGE_LOOP('',(#959,#960,#962,#964));
#966=FACE_OUTER_BOUND('',#965,.F.);
#967=ADVANCED_FACE('',(#966),#958,.T.);
#968=CARTESIAN_POINT('',(0.E0,2.E-1,0.E0));
#969=DIRECTION('',(0.E0,1.E0,0.E0));
#970=DIRECTION('',(9.999965281639E-1,0.E0,-2.635082555698E-3));
#971=AXIS2_PLACEMENT_3D('',#968,#969,#970);
#972=TOROIDAL_SURFACE('',#971,2.2E0,2.E-1);
#973=ORIENTED_EDGE('',*,*,#961,.F.);
#974=ORIENTED_EDGE('',*,*,#755,.T.);
#976=ORIENTED_EDGE('',*,*,#975,.T.);
#978=ORIENTED_EDGE('',*,*,#977,.F.);
#980=ORIENTED_EDGE('',*,*,#979,.F.);
#981=ORIENTED_EDGE('',*,*,#751,.T.);
#982=EDGE_LOOP('',(#973,#974,#976,#978,#980,#981));
#983=FACE_OUTER_BOUND('',#982,.F.);
#984=ADVANCED_FACE('',(#983),#972,.T.);
#985=CARTESIAN_POINT('',(0.E0,2.E-1,0.E0));
#986=DIRECTION('',(0.E0,1.E0,0.E0));
#987=DIRECTION('',(-9.999965281639E-1,0.E0,2.635082555699E-3));
#988=AXIS2_PLACEMENT_3D('',#985,#986,#987);
#989=TOROIDAL_SURFACE('',#988,2.2E0,2.E-1);
#990=ORIENTED_EDGE('',*,*,#753,.T.);
#991=ORIENTED_EDGE('',*,*,#979,.T.);
#993=ORIENTED_EDGE('',*,*,#992,.F.);
#994=ORIENTED_EDGE('',*,*,#975,.F.);
#995=EDGE_LOOP('',(#990,#991,#993,#994));
#996=FACE_OUTER_BOUND('',#995,.F.);
#997=ADVANCED_FACE('',(#996),#989,.T.);
#998=CARTESIAN_POINT('',(0.E0,0.E0,0.E0));
#999=DIRECTION('',(0.E0,1.E0,0.E0));
#1000=DIRECTION('',(1.E0,0.E0,0.E0));
#1001=AXIS2_PLACEMENT_3D('',#998,#999,#1000);
#1002=CYLINDRICAL_SURFACE('',#1001,2.4E0);
#1003=ORIENTED_EDGE('',*,*,#992,.T.);
#1005=ORIENTED_EDGE('',*,*,#1004,.T.);
#1007=ORIENTED_EDGE('',*,*,#1006,.T.);
#1009=ORIENTED_EDGE('',*,*,#1008,.F.);
#1010=EDGE_LOOP('',(#1003,#1005,#1007,#1009));
#1011=FACE_OUTER_BOUND('',#1010,.F.);
#1012=ADVANCED_FACE('',(#1011),#1002,.T.);
#1013=CARTESIAN_POINT('',(0.E0,0.E0,0.E0));
#1014=DIRECTION('',(0.E0,1.E0,0.E0));
#1015=DIRECTION('',(1.E0,0.E0,0.E0));
#1016=AXIS2_PLACEMENT_3D('',#1013,#1014,#1015);
#1017=CYLINDRICAL_SURFACE('',#1016,2.4E0);
#1018=ORIENTED_EDGE('',*,*,#977,.T.);
#1019=ORIENTED_EDGE('',*,*,#1008,.T.);
#1021=ORIENTED_EDGE('',*,*,#1020,.T.);
#1022=ORIENTED_EDGE('',*,*,#1004,.F.);
#1023=EDGE_LOOP('',(#1018,#1019,#1021,#1022));
#1024=FACE_OUTER_BOUND('',#1023,.F.);
#1025=ADVANCED_FACE('',(#1024),#1017,.T.);
#1026=CARTESIAN_POINT('',(0.E0,1.E0,0.E0));
#1027=DIRECTION('',(0.E0,1.E0,0.E0));
#1028=DIRECTION('',(-9.999982795469E-1,0.E0,-1.854967180197E-3));
#1029=AXIS2_PLACEMENT_3D('',#1026,#1027,#1028);
#1030=TOROIDAL_SURFACE('',#1029,2.1E0,3.E-1);
#1032=ORIENTED_EDGE('',*,*,#1031,.T.);
#1034=ORIENTED_EDGE('',*,*,#1033,.T.);
#1035=ORIENTED_EDGE('',*,*,#1020,.F.);
#1037=ORIENTED_EDGE('',*,*,#1036,.F.);
#1038=EDGE_LOOP('',(#1032,#1034,#1035,#1037));
#1039=FACE_OUTER_BOUND('',#1038,.F.);
#1040=ADVANCED_FACE('',(#1039),#1030,.T.);
#1041=CARTESIAN_POINT('',(0.E0,1.3E0,0.E0));
#1042=DIRECTION('',(0.E0,1.E0,0.E0));
#1043=DIRECTION('',(1.E0,0.E0,0.E0));
#1044=AXIS2_PLACEMENT_3D('',#1041,#1042,#1043);
#1045=PLANE('',#1044);
#1047=ORIENTED_EDGE('',*,*,#1046,.F.);
#1048=ORIENTED_EDGE('',*,*,#1031,.F.);
#1049=EDGE_LOOP('',(#1047,#1048));
#1050=FACE_OUTER_BOUND('',#1049,.F.);
#1052=ORIENTED_EDGE('',*,*,#1051,.T.);
#1054=ORIENTED_EDGE('',*,*,#1053,.T.);
#1055=EDGE_LOOP('',(#1052,#1054));
#1056=FACE_BOUND('',#1055,.F.);
#1057=ADVANCED_FACE('',(#1050,#1056),#1045,.T.);
#1058=CARTESIAN_POINT('',(0.E0,1.28E0,0.E0));
#1059=DIRECTION('',(0.E0,1.E0,0.E0));
#1060=DIRECTION('',(9.999999993558E-1,0.E0,3.589323509861E-5));
#1061=AXIS2_PLACEMENT_3D('',#1058,#1059,#1060);
#1062=TOROIDAL_SURFACE('',#1061,1.601002514240E0,2.E-1);
#1064=ORIENTED_EDGE('',*,*,#1063,.T.);
#1066=ORIENTED_EDGE('',*,*,#1065,.T.);
#1068=ORIENTED_EDGE('',*,*,#1067,.T.);
#1069=ORIENTED_EDGE('',*,*,#1051,.F.);
#1071=ORIENTED_EDGE('',*,*,#1070,.F.);
#1073=ORIENTED_EDGE('',*,*,#1072,.T.);
#1074=EDGE_LOOP('',(#1064,#1066,#1068,#1069,#1071,#1073));
#1075=FACE_OUTER_BOUND('',#1074,.F.);
#1076=ADVANCED_FACE('',(#1075),#1062,.T.);
#1077=CARTESIAN_POINT('',(-1.E0,1.48E0,1.7E0));
#1078=DIRECTION('',(0.E0,-1.E0,0.E0));
#1079=DIRECTION('',(0.E0,0.E0,-1.E0));
#1080=AXIS2_PLACEMENT_3D('',#1077,#1078,#1079);
#1081=PLANE('',#1080);
#1083=ORIENTED_EDGE('',*,*,#1082,.F.);
#1085=ORIENTED_EDGE('',*,*,#1084,.T.);
#1087=ORIENTED_EDGE('',*,*,#1086,.F.);
#1089=ORIENTED_EDGE('',*,*,#1088,.F.);
#1090=EDGE_LOOP('',(#1083,#1085,#1087,#1089));
#1091=FACE_OUTER_BOUND('',#1090,.F.);
#1092=ADVANCED_FACE('',(#1091),#1081,.T.);
#1093=CARTESIAN_POINT('',(-1.E0,1.48E0,1.7E0));
#1094=DIRECTION('',(0.E0,-1.E0,0.E0));
#1095=DIRECTION('',(0.E0,0.E0,-1.E0));
#1096=AXIS2_PLACEMENT_3D('',#1093,#1094,#1095);
#1097=PLANE('',#1096);
#1099=ORIENTED_EDGE('',*,*,#1098,.T.);
#1101=ORIENTED_EDGE('',*,*,#1100,.F.);
#1102=ORIENTED_EDGE('',*,*,#1063,.F.);
#1104=ORIENTED_EDGE('',*,*,#1103,.T.);
#1105=EDGE_LOOP('',(#1099,#1101,#1102,#1104));
#1106=FACE_OUTER_BOUND('',#1105,.F.);
#1107=ADVANCED_FACE('',(#1106),#1097,.T.);
#1108=CARTESIAN_POINT('',(-5.E-1,1.474219638053E0,1.2E0));
#1109=DIRECTION('',(0.E0,1.E0,0.E0));
#1110=DIRECTION('',(-1.E0,0.E0,0.E0));
#1111=AXIS2_PLACEMENT_3D('',#1108,#1109,#1110);
#1112=CYLINDRICAL_SURFACE('',#1111,5.E-1);
#1114=ORIENTED_EDGE('',*,*,#1113,.F.);
#1115=ORIENTED_EDGE('',*,*,#1082,.T.);
#1117=ORIENTED_EDGE('',*,*,#1116,.T.);
#1119=ORIENTED_EDGE('',*,*,#1118,.T.);
#1121=ORIENTED_EDGE('',*,*,#1120,.T.);
#1122=EDGE_LOOP('',(#1114,#1115,#1117,#1119,#1121));
#1123=FACE_OUTER_BOUND('',#1122,.F.);
#1124=ADVANCED_FACE('',(#1123),#1112,.T.);
#1125=CARTESIAN_POINT('',(-1.E0,1.58E0,1.7E0));
#1126=DIRECTION('',(0.E0,0.E0,1.E0));
#1127=DIRECTION('',(0.E0,-1.E0,0.E0));
#1128=AXIS2_PLACEMENT_3D('',#1125,#1126,#1127);
#1129=PLANE('',#1128);
#1130=ORIENTED_EDGE('',*,*,#1113,.T.);
#1132=ORIENTED_EDGE('',*,*,#1131,.T.);
#1134=ORIENTED_EDGE('',*,*,#1133,.T.);
#1135=ORIENTED_EDGE('',*,*,#1084,.F.);
#1136=EDGE_LOOP('',(#1130,#1132,#1134,#1135));
#1137=FACE_OUTER_BOUND('',#1136,.F.);
#1138=ADVANCED_FACE('',(#1137),#1129,.T.);
#1139=CARTESIAN_POINT('',(-1.E0,1.58E0,-2.051937515251E0));
#1140=DIRECTION('',(0.E0,1.E0,0.E0));
#1141=DIRECTION('',(0.E0,0.E0,1.E0));
#1142=AXIS2_PLACEMENT_3D('',#1139,#1140,#1141);
#1143=PLANE('',#1142);
#1145=ORIENTED_EDGE('',*,*,#1144,.T.);
#1147=ORIENTED_EDGE('',*,*,#1146,.T.);
#1149=ORIENTED_EDGE('',*,*,#1148,.F.);
#1150=ORIENTED_EDGE('',*,*,#1131,.F.);
#1151=ORIENTED_EDGE('',*,*,#1120,.F.);
#1153=ORIENTED_EDGE('',*,*,#1152,.F.);
#1154=EDGE_LOOP('',(#1145,#1147,#1149,#1150,#1151,#1153));
#1155=FACE_OUTER_BOUND('',#1154,.F.);
#1156=ADVANCED_FACE('',(#1155),#1143,.T.);
#1157=CARTESIAN_POINT('',(-1.004939017854E0,1.68E0,-2.003875030503E0));
#1158=DIRECTION('',(1.E0,0.E0,0.E0));
#1159=DIRECTION('',(0.E0,-1.E0,0.E0));
#1160=AXIS2_PLACEMENT_3D('',#1157,#1158,#1159);
#1161=CYLINDRICAL_SURFACE('',#1160,1.E-1);
#1162=ORIENTED_EDGE('',*,*,#1144,.F.);
#1164=ORIENTED_EDGE('',*,*,#1163,.T.);
#1166=ORIENTED_EDGE('',*,*,#1165,.T.);
#1168=ORIENTED_EDGE('',*,*,#1167,.T.);
#1169=EDGE_LOOP('',(#1162,#1164,#1166,#1168));
#1170=FACE_OUTER_BOUND('',#1169,.F.);
#1171=ADVANCED_FACE('',(#1170),#1161,.F.);
#1172=CARTESIAN_POINT('',(-1.E0,0.E0,0.E0));
#1173=DIRECTION('',(1.E0,0.E0,0.E0));
#1174=DIRECTION('',(0.E0,0.E0,1.E0));
#1175=AXIS2_PLACEMENT_3D('',#1172,#1173,#1174);
#1176=PLANE('',#1175);
#1178=ORIENTED_EDGE('',*,*,#1177,.F.);
#1180=ORIENTED_EDGE('',*,*,#1179,.T.);
#1182=ORIENTED_EDGE('',*,*,#1181,.F.);
#1184=ORIENTED_EDGE('',*,*,#1183,.T.);
#1186=ORIENTED_EDGE('',*,*,#1185,.F.);
#1188=ORIENTED_EDGE('',*,*,#1187,.T.);
#1190=ORIENTED_EDGE('',*,*,#1189,.F.);
#1192=ORIENTED_EDGE('',*,*,#1191,.T.);
#1193=ORIENTED_EDGE('',*,*,#1163,.F.);
#1194=ORIENTED_EDGE('',*,*,#1152,.T.);
#1195=ORIENTED_EDGE('',*,*,#1118,.F.);
#1197=ORIENTED_EDGE('',*,*,#1196,.T.);
#1198=ORIENTED_EDGE('',*,*,#1100,.T.);
#1199=EDGE_LOOP('',(#1178,#1180,#1182,#1184,#1186,#1188,#1190,#1192,#1193,#1194,
#1195,#1197,#1198));
#1200=FACE_OUTER_BOUND('',#1199,.F.);
#1201=ADVANCED_FACE('',(#1200),#1176,.F.);
#1202=CARTESIAN_POINT('',(1.005780361947E0,1.68E0,-2.003875030503E0));
#1203=DIRECTION('',(-1.E0,0.E0,0.E0));
#1204=DIRECTION('',(0.E0,-6.246950475544E-1,-7.808688094430E-1));
#1205=AXIS2_PLACEMENT_3D('',#1202,#1203,#1204);
#1206=CYLINDRICAL_SURFACE('',#1205,2.E-1);
#1207=ORIENTED_EDGE('',*,*,#1098,.F.);
#1209=ORIENTED_EDGE('',*,*,#1208,.T.);
#1211=ORIENTED_EDGE('',*,*,#1210,.T.);
#1212=ORIENTED_EDGE('',*,*,#1177,.T.);
#1213=EDGE_LOOP('',(#1207,#1209,#1211,#1212));
#1214=FACE_OUTER_BOUND('',#1213,.F.);
#1215=ADVANCED_FACE('',(#1214),#1206,.T.);
#1216=CARTESIAN_POINT('',(1.E0,0.E0,0.E0));
#1217=DIRECTION('',(1.E0,0.E0,0.E0));
#1218=DIRECTION('',(0.E0,0.E0,1.E0));
#1219=AXIS2_PLACEMENT_3D('',#1216,#1217,#1218);
#1220=PLANE('',#1219);
#1221=ORIENTED_EDGE('',*,*,#1208,.F.);
#1222=ORIENTED_EDGE('',*,*,#1103,.F.);
#1224=ORIENTED_EDGE('',*,*,#1223,.F.);
#1226=ORIENTED_EDGE('',*,*,#1225,.F.);
#1227=ORIENTED_EDGE('',*,*,#1146,.F.);
#1228=ORIENTED_EDGE('',*,*,#1167,.F.);
#1230=ORIENTED_EDGE('',*,*,#1229,.F.);
#1232=ORIENTED_EDGE('',*,*,#1231,.F.);
#1234=ORIENTED_EDGE('',*,*,#1233,.F.);
#1236=ORIENTED_EDGE('',*,*,#1235,.F.);
#1238=ORIENTED_EDGE('',*,*,#1237,.F.);
#1240=ORIENTED_EDGE('',*,*,#1239,.F.);
#1242=ORIENTED_EDGE('',*,*,#1241,.F.);
#1243=EDGE_LOOP('',(#1221,#1222,#1224,#1226,#1227,#1228,#1230,#1232,#1234,#1236,
#1238,#1240,#1242));
#1244=FACE_OUTER_BOUND('',#1243,.F.);
#1245=ADVANCED_FACE('',(#1244),#1220,.T.);
#1246=CARTESIAN_POINT('',(0.E0,1.48E0,0.E0));
#1247=DIRECTION('',(0.E0,1.E0,0.E0));
#1248=DIRECTION('',(1.E0,0.E0,0.E0));
#1249=AXIS2_PLACEMENT_3D('',#1246,#1247,#1248);
#1250=PLANE('',#1249);
#1251=ORIENTED_EDGE('',*,*,#1196,.F.);
#1252=ORIENTED_EDGE('',*,*,#1116,.F.);
#1254=ORIENTED_EDGE('',*,*,#1253,.T.);
#1255=ORIENTED_EDGE('',*,*,#1065,.F.);
#1256=EDGE_LOOP('',(#1251,#1252,#1254,#1255));
#1257=FACE_OUTER_BOUND('',#1256,.F.);
#1258=ADVANCED_FACE('',(#1257),#1250,.T.);
#1259=CARTESIAN_POINT('',(0.E0,1.48E0,0.E0));
#1260=DIRECTION('',(0.E0,1.E0,0.E0));
#1261=DIRECTION('',(1.E0,0.E0,0.E0));
#1262=AXIS2_PLACEMENT_3D('',#1259,#1260,#1261);
#1263=PLANE('',#1262);
#1265=ORIENTED_EDGE('',*,*,#1264,.T.);
#1267=ORIENTED_EDGE('',*,*,#1266,.F.);
#1268=ORIENTED_EDGE('',*,*,#1223,.T.);
#1269=ORIENTED_EDGE('',*,*,#1072,.F.);
#1270=EDGE_LOOP('',(#1265,#1267,#1268,#1269));
#1271=FACE_OUTER_BOUND('',#1270,.F.);
#1272=ADVANCED_FACE('',(#1271),#1263,.T.);
#1273=CARTESIAN_POINT('',(0.E0,1.28E0,0.E0));
#1274=DIRECTION('',(0.E0,1.E0,0.E0));
#1275=DIRECTION('',(-9.999999994716E-1,0.E0,-3.250973171572E-5));
#1276=AXIS2_PLACEMENT_3D('',#1273,#1274,#1275);
#1277=TOROIDAL_SURFACE('',#1276,1.601002512579E0,2.E-1);
#1278=ORIENTED_EDGE('',*,*,#1264,.F.);
#1279=ORIENTED_EDGE('',*,*,#1070,.T.);
#1280=ORIENTED_EDGE('',*,*,#1053,.F.);
#1281=ORIENTED_EDGE('',*,*,#1067,.F.);
#1282=ORIENTED_EDGE('',*,*,#1253,.F.);
#1283=ORIENTED_EDGE('',*,*,#1088,.T.);
#1284=EDGE_LOOP('',(#1278,#1279,#1280,#1281,#1282,#1283));
#1285=FACE_OUTER_BOUND('',#1284,.F.);
#1286=ADVANCED_FACE('',(#1285),#1277,.T.);
#1287=CARTESIAN_POINT('',(5.E-1,1.585680180828E0,1.2E0));
#1288=DIRECTION('',(0.E0,-1.E0,0.E0));
#1289=DIRECTION('',(1.E0,0.E0,0.E0));
#1290=AXIS2_PLACEMENT_3D('',#1287,#1288,#1289);
#1291=CYLINDRICAL_SURFACE('',#1290,5.E-1);
#1292=ORIENTED_EDGE('',*,*,#1133,.F.);
#1293=ORIENTED_EDGE('',*,*,#1148,.T.);
#1294=ORIENTED_EDGE('',*,*,#1225,.T.);
#1295=ORIENTED_EDGE('',*,*,#1266,.T.);
#1296=ORIENTED_EDGE('',*,*,#1086,.T.);
#1297=EDGE_LOOP('',(#1292,#1293,#1294,#1295,#1296));
#1298=FACE_OUTER_BOUND('',#1297,.F.);
#1299=ADVANCED_FACE('',(#1298),#1291,.T.);
#1300=CARTESIAN_POINT('',(-1.E0,1.83E0,-2.251937515251E0));
#1301=DIRECTION('',(0.E0,6.246950475544E-1,7.808688094430E-1));
#1302=DIRECTION('',(0.E0,-7.808688094430E-1,6.246950475544E-1));
#1303=AXIS2_PLACEMENT_3D('',#1300,#1301,#1302);
#1304=PLANE('',#1303);
#1306=ORIENTED_EDGE('',*,*,#1305,.F.);
#1307=ORIENTED_EDGE('',*,*,#1229,.T.);
#1308=ORIENTED_EDGE('',*,*,#1165,.F.);
#1309=ORIENTED_EDGE('',*,*,#1191,.F.);
#1310=EDGE_LOOP('',(#1306,#1307,#1308,#1309));
#1311=FACE_OUTER_BOUND('',#1310,.F.);
#1312=ADVANCED_FACE('',(#1311),#1304,.T.);
#1313=CARTESIAN_POINT('',(1.005780361947E0,1.73E0,-2.3E0));
#1314=DIRECTION('',(-1.E0,0.E0,0.E0));
#1315=DIRECTION('',(0.E0,6.246950475544E-1,7.808688094430E-1));
#1316=AXIS2_PLACEMENT_3D('',#1313,#1314,#1315);
#1317=CYLINDRICAL_SURFACE('',#1316,1.E-1);
#1319=ORIENTED_EDGE('',*,*,#1318,.F.);
#1320=ORIENTED_EDGE('',*,*,#1231,.T.);
#1321=ORIENTED_EDGE('',*,*,#1305,.T.);
#1322=ORIENTED_EDGE('',*,*,#1189,.T.);
#1323=EDGE_LOOP('',(#1319,#1320,#1321,#1322));
#1324=FACE_OUTER_BOUND('',#1323,.F.);
#1325=ADVANCED_FACE('',(#1324),#1317,.T.);
#1326=CARTESIAN_POINT('',(-1.E0,1.83E0,-3.5E0));
#1327=DIRECTION('',(0.E0,1.E0,0.E0));
#1328=DIRECTION('',(0.E0,0.E0,1.E0));
#1329=AXIS2_PLACEMENT_3D('',#1326,#1327,#1328);
#1330=PLANE('',#1329);
#1331=ORIENTED_EDGE('',*,*,#1318,.T.);
#1332=ORIENTED_EDGE('',*,*,#1187,.F.);
#1334=ORIENTED_EDGE('',*,*,#1333,.F.);
#1336=ORIENTED_EDGE('',*,*,#1335,.T.);
#1338=ORIENTED_EDGE('',*,*,#1337,.F.);
#1339=ORIENTED_EDGE('',*,*,#1233,.T.);
#1340=EDGE_LOOP('',(#1331,#1332,#1334,#1336,#1338,#1339));
#1341=FACE_OUTER_BOUND('',#1340,.F.);
#1342=ADVANCED_FACE('',(#1341),#1330,.T.);
#1343=CARTESIAN_POINT('',(-7.E-1,1.835570690843E0,-3.2E0));
#1344=DIRECTION('',(0.E0,-1.E0,0.E0));
#1345=DIRECTION('',(-1.E0,0.E0,0.E0));
#1346=AXIS2_PLACEMENT_3D('',#1343,#1344,#1345);
#1347=CYLINDRICAL_SURFACE('',#1346,3.E-1);
#1349=ORIENTED_EDGE('',*,*,#1348,.F.);
#1350=ORIENTED_EDGE('',*,*,#1333,.T.);
#1351=ORIENTED_EDGE('',*,*,#1185,.T.);
#1353=ORIENTED_EDGE('',*,*,#1352,.T.);
#1354=EDGE_LOOP('',(#1349,#1350,#1351,#1353));
#1355=FACE_OUTER_BOUND('',#1354,.F.);
#1356=ADVANCED_FACE('',(#1355),#1347,.T.);
#1357=CARTESIAN_POINT('',(-1.E0,1.73E0,-3.5E0));
#1358=DIRECTION('',(0.E0,0.E0,-1.E0));
#1359=DIRECTION('',(0.E0,1.E0,0.E0));
#1360=AXIS2_PLACEMENT_3D('',#1357,#1358,#1359);
#1361=PLANE('',#1360);
#1362=ORIENTED_EDGE('',*,*,#1348,.T.);
#1364=ORIENTED_EDGE('',*,*,#1363,.T.);
#1366=ORIENTED_EDGE('',*,*,#1365,.T.);
#1367=ORIENTED_EDGE('',*,*,#1335,.F.);
#1368=EDGE_LOOP('',(#1362,#1364,#1366,#1367));
#1369=FACE_OUTER_BOUND('',#1368,.F.);
#1370=ADVANCED_FACE('',(#1369),#1361,.T.);
#1371=CARTESIAN_POINT('',(-1.E0,1.73E0,-2.3E0));
#1372=DIRECTION('',(0.E0,-1.E0,0.E0));
#1373=DIRECTION('',(0.E0,0.E0,-1.E0));
#1374=AXIS2_PLACEMENT_3D('',#1371,#1372,#1373);
#1375=PLANE('',#1374);
#1377=ORIENTED_EDGE('',*,*,#1376,.T.);
#1378=ORIENTED_EDGE('',*,*,#1237,.T.);
#1380=ORIENTED_EDGE('',*,*,#1379,.F.);
#1381=ORIENTED_EDGE('',*,*,#1363,.F.);
#1382=ORIENTED_EDGE('',*,*,#1352,.F.);
#1383=ORIENTED_EDGE('',*,*,#1183,.F.);
#1384=EDGE_LOOP('',(#1377,#1378,#1380,#1381,#1382,#1383));
#1385=FACE_OUTER_BOUND('',#1384,.F.);
#1386=ADVANCED_FACE('',(#1385),#1375,.T.);
#1387=CARTESIAN_POINT('',(-1.004939017854E0,1.53E0,-2.396124969497E0));
#1388=DIRECTION('',(1.E0,0.E0,0.E0));
#1389=DIRECTION('',(0.E0,1.E0,0.E0));
#1390=AXIS2_PLACEMENT_3D('',#1387,#1388,#1389);
#1391=CYLINDRICAL_SURFACE('',#1390,2.E-1);
#1392=ORIENTED_EDGE('',*,*,#1376,.F.);
#1393=ORIENTED_EDGE('',*,*,#1181,.T.);
#1395=ORIENTED_EDGE('',*,*,#1394,.T.);
#1396=ORIENTED_EDGE('',*,*,#1239,.T.);
#1397=EDGE_LOOP('',(#1392,#1393,#1395,#1396));
#1398=FACE_OUTER_BOUND('',#1397,.F.);
#1399=ADVANCED_FACE('',(#1398),#1391,.F.);
#1400=CARTESIAN_POINT('',(-1.E0,1.48E0,-2.1E0));
#1401=DIRECTION('',(0.E0,-6.246950475544E-1,-7.808688094430E-1));
#1402=DIRECTION('',(0.E0,7.808688094430E-1,-6.246950475544E-1));
#1403=AXIS2_PLACEMENT_3D('',#1400,#1401,#1402);
#1404=PLANE('',#1403);
#1405=ORIENTED_EDGE('',*,*,#1210,.F.);
#1406=ORIENTED_EDGE('',*,*,#1241,.T.);
#1407=ORIENTED_EDGE('',*,*,#1394,.F.);
#1408=ORIENTED_EDGE('',*,*,#1179,.F.);
#1409=EDGE_LOOP('',(#1405,#1406,#1407,#1408));
#1410=FACE_OUTER_BOUND('',#1409,.F.);
#1411=ADVANCED_FACE('',(#1410),#1404,.T.);
#1412=CARTESIAN_POINT('',(7.E-1,1.724319819172E0,-3.2E0));
#1413=DIRECTION('',(0.E0,1.E0,0.E0));
#1414=DIRECTION('',(1.E0,0.E0,0.E0));
#1415=AXIS2_PLACEMENT_3D('',#1412,#1413,#1414);
#1416=CYLINDRICAL_SURFACE('',#1415,3.E-1);
#1417=ORIENTED_EDGE('',*,*,#1365,.F.);
#1418=ORIENTED_EDGE('',*,*,#1379,.T.);
#1419=ORIENTED_EDGE('',*,*,#1235,.T.);
#1420=ORIENTED_EDGE('',*,*,#1337,.T.);
#1421=EDGE_LOOP('',(#1417,#1418,#1419,#1420));
#1422=FACE_OUTER_BOUND('',#1421,.F.);
#1423=ADVANCED_FACE('',(#1422),#1416,.T.);
#1424=CARTESIAN_POINT('',(0.E0,1.E0,0.E0));
#1425=DIRECTION('',(0.E0,1.E0,0.E0));
#1426=DIRECTION('',(9.999982795469E-1,0.E0,1.854967180197E-3));
#1427=AXIS2_PLACEMENT_3D('',#1424,#1425,#1426);
#1428=TOROIDAL_SURFACE('',#1427,2.1E0,3.E-1);
#1429=ORIENTED_EDGE('',*,*,#1046,.T.);
#1430=ORIENTED_EDGE('',*,*,#1036,.T.);
#1431=ORIENTED_EDGE('',*,*,#1006,.F.);
#1432=ORIENTED_EDGE('',*,*,#1033,.F.);
#1433=EDGE_LOOP('',(#1429,#1430,#1431,#1432));
#1434=FACE_OUTER_BOUND('',#1433,.F.);
#1435=ADVANCED_FACE('',(#1434),#1428,.T.);
#1436=CARTESIAN_POINT('',(1.5E0,0.E0,0.E0));
#1437=DIRECTION('',(1.E0,0.E0,0.E0));
#1438=DIRECTION('',(0.E0,0.E0,1.E0));
#1439=AXIS2_PLACEMENT_3D('',#1436,#1437,#1438);
#1440=PLANE('',#1439);
#1441=ORIENTED_EDGE('',*,*,#800,.F.);
#1442=ORIENTED_EDGE('',*,*,#817,.F.);
#1443=ORIENTED_EDGE('',*,*,#831,.F.);
#1444=ORIENTED_EDGE('',*,*,#849,.F.);
#1445=ORIENTED_EDGE('',*,*,#890,.F.);
#1446=ORIENTED_EDGE('',*,*,#903,.F.);
#1447=ORIENTED_EDGE('',*,*,#919,.F.);
#1448=ORIENTED_EDGE('',*,*,#933,.F.);
#1449=ORIENTED_EDGE('',*,*,#949,.F.);
#1450=ORIENTED_EDGE('',*,*,#963,.F.);
#1451=ORIENTED_EDGE('',*,*,#749,.T.);
#1453=ORIENTED_EDGE('',*,*,#1452,.F.);
#1455=ORIENTED_EDGE('',*,*,#1454,.F.);
#1456=EDGE_LOOP('',(#1441,#1442,#1443,#1444,#1445,#1446,#1447,#1448,#1449,#1450,
#1451,#1453,#1455));
#1457=FACE_OUTER_BOUND('',#1456,.F.);
#1458=ADVANCED_FACE('',(#1457),#1440,.T.);
#1459=CARTESIAN_POINT('',(5.E-1,-1.051093088270E-1,-6.E-1));
#1460=DIRECTION('',(0.E0,1.E0,0.E0));
#1461=DIRECTION('',(1.E0,0.E0,0.E0));
#1462=AXIS2_PLACEMENT_3D('',#1459,#1460,#1461);
#1463=CYLINDRICAL_SURFACE('',#1462,1.E0);
#1465=ORIENTED_EDGE('',*,*,#1464,.F.);
#1467=ORIENTED_EDGE('',*,*,#1466,.T.);
#1468=ORIENTED_EDGE('',*,*,#1452,.T.);
#1469=ORIENTED_EDGE('',*,*,#747,.T.);
#1470=EDGE_LOOP('',(#1465,#1467,#1468,#1469));
#1471=FACE_OUTER_BOUND('',#1470,.F.);
#1472=ADVANCED_FACE('',(#1471),#1463,.T.);
#1473=CARTESIAN_POINT('',(-1.5E0,-1.E-1,-1.6E0));
#1474=DIRECTION('',(0.E0,0.E0,-1.E0));
#1475=DIRECTION('',(0.E0,1.E0,0.E0));
#1476=AXIS2_PLACEMENT_3D('',#1473,#1474,#1475);
#1477=PLANE('',#1476);
#1478=ORIENTED_EDGE('',*,*,#1464,.T.);
#1479=ORIENTED_EDGE('',*,*,#745,.F.);
#1481=ORIENTED_EDGE('',*,*,#1480,.T.);
#1483=ORIENTED_EDGE('',*,*,#1482,.T.);
#1484=EDGE_LOOP('',(#1478,#1479,#1481,#1483));
#1485=FACE_OUTER_BOUND('',#1484,.F.);
#1486=ADVANCED_FACE('',(#1485),#1477,.T.);
#1487=CARTESIAN_POINT('',(-5.E-1,7.258057482269E-3,-6.E-1));
#1488=DIRECTION('',(0.E0,-1.E0,0.E0));
#1489=DIRECTION('',(-1.E0,0.E0,0.E0));
#1490=AXIS2_PLACEMENT_3D('',#1487,#1488,#1489);
#1491=CYLINDRICAL_SURFACE('',#1490,1.E0);
#1492=ORIENTED_EDGE('',*,*,#1480,.F.);
#1493=ORIENTED_EDGE('',*,*,#743,.T.);
#1494=ORIENTED_EDGE('',*,*,#769,.T.);
#1496=ORIENTED_EDGE('',*,*,#1495,.T.);
#1497=EDGE_LOOP('',(#1492,#1493,#1494,#1496));
#1498=FACE_OUTER_BOUND('',#1497,.F.);
#1499=ADVANCED_FACE('',(#1498),#1491,.T.);
#1500=CARTESIAN_POINT('',(-1.5E0,-1.E-1,2.7E0));
#1501=DIRECTION('',(0.E0,-1.E0,0.E0));
#1502=DIRECTION('',(0.E0,0.E0,-1.E0));
#1503=AXIS2_PLACEMENT_3D('',#1500,#1501,#1502);
#1504=PLANE('',#1503);
#1505=ORIENTED_EDGE('',*,*,#802,.F.);
#1506=ORIENTED_EDGE('',*,*,#1454,.T.);
#1507=ORIENTED_EDGE('',*,*,#1466,.F.);
#1508=ORIENTED_EDGE('',*,*,#1482,.F.);
#1509=ORIENTED_EDGE('',*,*,#1495,.F.);
#1510=ORIENTED_EDGE('',*,*,#767,.F.);
#1511=EDGE_LOOP('',(#1505,#1506,#1507,#1508,#1509,#1510));
#1512=FACE_OUTER_BOUND('',#1511,.F.);
#1513=ADVANCED_FACE('',(#1512),#1504,.T.);
#1514=CLOSED_SHELL('',(#759,#792,#807,#821,#835,#853,#867,#881,#895,#911,#925,
#939,#953,#967,#984,#997,#1012,#1025,#1040,#1057,#1076,#1092,#1107,#1124,#1138,
#1156,#1171,#1201,#1215,#1245,#1258,#1272,#1286,#1299,#1312,#1325,#1342,#1356,
#1370,#1386,#1399,#1411,#1423,#1435,#1458,#1472,#1486,#1499,#1513));
#1515=MANIFOLD_SOLID_BREP('',#1514);
#1516=(LENGTH_UNIT()NAMED_UNIT(*)SI_UNIT(.MILLI.,.METRE.));
#1517=DIMENSIONAL_EXPONENTS(0.E0,0.E0,0.E0,0.E0,0.E0,0.E0,0.E0);
#1518=(NAMED_UNIT(*)PLANE_ANGLE_UNIT()SI_UNIT($,.RADIAN.));
#1519=PLANE_ANGLE_MEASURE_WITH_UNIT(PLANE_ANGLE_MEASURE(1.745329251994E-2),
#1518);
#1520=(CONVERSION_BASED_UNIT('DEGREE',#1519)NAMED_UNIT(#1517)PLANE_ANGLE_UNIT(
));
#1521=(NAMED_UNIT(*)SI_UNIT($,.STERADIAN.)SOLID_ANGLE_UNIT());
#1522=UNCERTAINTY_MEASURE_WITH_UNIT(LENGTH_MEASURE(3.693994087013E-4),#1516,
'closure',
'Maximum model space distance between geometric entities at asserted connectivities');
#1523=(GEOMETRIC_REPRESENTATION_CONTEXT(3)GLOBAL_UNCERTAINTY_ASSIGNED_CONTEXT((
#1522))GLOBAL_UNIT_ASSIGNED_CONTEXT((#1516,#1520,#1521))REPRESENTATION_CONTEXT(
'ID1','3'));
#1525=APPLICATION_CONTEXT(
'CONFIGURATION CONTROLLED 3D DESIGNS OF MECHANICAL PARTS AND ASSEMBLIES');
#1526=APPLICATION_PROTOCOL_DEFINITION('international standard',
'config_control_design',1994,#1525);
#1527=DESIGN_CONTEXT('',#1525,'design');
#1528=MECHANICAL_CONTEXT('',#1525,'mechanical');
#1529=PRODUCT('RTC-ML414R-F9A_PRT','RTC-ML414R-F9A_PRT','NOT SPECIFIED',
(#1528));
#1530=PRODUCT_DEFINITION_FORMATION_WITH_SPECIFIED_SOURCE('1','LAST_VERSION',
#1529,.MADE.);
#1534=PRODUCT_CATEGORY('part','');
#1535=PRODUCT_RELATED_PRODUCT_CATEGORY('detail','',(#1529));
#1536=PRODUCT_CATEGORY_RELATIONSHIP('','',#1534,#1535);
#1537=SECURITY_CLASSIFICATION_LEVEL('unclassified');
#1538=SECURITY_CLASSIFICATION('','',#1537);
#1539=CC_DESIGN_SECURITY_CLASSIFICATION(#1538,(#1530));
#1540=APPROVAL_STATUS('approved');
#1541=APPROVAL(#1540,'');
#1542=CC_DESIGN_APPROVAL(#1541,(#1538,#1530,#1531));
#1543=CALENDAR_DATE(108,30,6);
#1544=COORDINATED_UNIVERSAL_TIME_OFFSET(3,0,.BEHIND.);
#1545=LOCAL_TIME(11,3,3.8E1,#1544);
#1546=DATE_AND_TIME(#1543,#1545);
#1547=APPROVAL_DATE_TIME(#1546,#1541);
#1548=DATE_TIME_ROLE('creation_date');
#1549=CC_DESIGN_DATE_AND_TIME_ASSIGNMENT(#1546,#1548,(#1531));
#1550=DATE_TIME_ROLE('classification_date');
#1551=CC_DESIGN_DATE_AND_TIME_ASSIGNMENT(#1546,#1550,(#1538));
#1552=PERSON('UNSPECIFIED','UNSPECIFIED',$,$,$,$);
#1553=ORGANIZATION('UNSPECIFIED','UNSPECIFIED','UNSPECIFIED');
#1554=PERSON_AND_ORGANIZATION(#1552,#1553);
#1555=APPROVAL_ROLE('approver');
#1556=APPROVAL_PERSON_ORGANIZATION(#1554,#1541,#1555);
#1557=PERSON_AND_ORGANIZATION_ROLE('creator');
#1558=CC_DESIGN_PERSON_AND_ORGANIZATION_ASSIGNMENT(#1554,#1557,(#1530,#1531));
#1559=PERSON_AND_ORGANIZATION_ROLE('design_supplier');
#1560=CC_DESIGN_PERSON_AND_ORGANIZATION_ASSIGNMENT(#1554,#1559,(#1530));
#1561=PERSON_AND_ORGANIZATION_ROLE('classification_officer');
#1562=CC_DESIGN_PERSON_AND_ORGANIZATION_ASSIGNMENT(#1554,#1561,(#1538));
#1563=PERSON_AND_ORGANIZATION_ROLE('design_owner');
#1564=CC_DESIGN_PERSON_AND_ORGANIZATION_ASSIGNMENT(#1554,#1563,(#1529));
#46=CIRCLE('',#45,2.E-1);
#55=CIRCLE('',#54,2.E-1);
#64=CIRCLE('',#63,1.E-1);
#73=CIRCLE('',#72,1.E-1);
#86=CIRCLE('',#85,3.E-1);
#95=CIRCLE('',#94,3.E-1);
#108=CIRCLE('',#107,3.E-1);
#117=CIRCLE('',#116,3.E-1);
#126=CIRCLE('',#125,2.E-1);
#135=CIRCLE('',#134,2.E-1);
#144=CIRCLE('',#143,1.E-1);
#153=CIRCLE('',#152,1.E-1);
#158=CIRCLE('',#157,2.2E0);
#163=CIRCLE('',#162,2.2E0);
#168=CIRCLE('',#167,2.4E0);
#173=CIRCLE('',#172,2.E-1);
#178=CIRCLE('',#177,2.2E0);
#183=CIRCLE('',#182,2.199999999982E0);
#188=CIRCLE('',#187,2.4E0);
#193=CIRCLE('',#192,2.E-1);
#206=CIRCLE('',#205,2.099999999983E0);
#211=CIRCLE('',#210,2.4E0);
#216=CIRCLE('',#215,3.E-1);
#221=CIRCLE('',#220,1.601002514240E0);
#226=CIRCLE('',#225,1.800000001662E0);
#231=CIRCLE('',#230,2.E-1);
#236=CIRCLE('',#235,1.601002514240E0);
#245=CIRCLE('',#244,1.601002512579E0);
#250=CIRCLE('',#249,1.601002514240E0);
#259=CIRCLE('',#258,5.E-1);
#264=CIRCLE('',#263,5.E-1);
#273=CIRCLE('',#272,5.E-1);
#286=CIRCLE('',#285,1.E-1);
#295=CIRCLE('',#294,1.E-1);
#328=CIRCLE('',#327,2.E-1);
#337=CIRCLE('',#336,2.E-1);
#370=CIRCLE('',#369,1.601002512579E0);
#375=CIRCLE('',#374,1.601002512579E0);
#384=CIRCLE('',#383,1.8E0);
#389=CIRCLE('',#388,2.E-1);
#398=CIRCLE('',#397,5.E-1);
#407=CIRCLE('',#406,5.E-1);
#412=CIRCLE('',#411,5.E-1);
#421=CIRCLE('',#420,1.E-1);
#430=CIRCLE('',#429,1.E-1);
#443=CIRCLE('',#442,3.E-1);
#452=CIRCLE('',#451,3.E-1);
#465=CIRCLE('',#464,2.E-1);
#474=CIRCLE('',#473,2.E-1);
#483=CIRCLE('',#482,3.E-1);
#492=CIRCLE('',#491,3.E-1);
#497=CIRCLE('',#496,2.099999999983E0);
#502=CIRCLE('',#501,2.4E0);
#507=CIRCLE('',#506,3.E-1);
#540=CIRCLE('',#539,1.E0);
#549=CIRCLE('',#548,1.E0);
#562=CIRCLE('',#561,1.E0);
#571=CIRCLE('',#570,1.E0);
#741=EDGE_CURVE('',#605,#602,#5,.T.);
#743=EDGE_CURVE('',#598,#602,#562,.T.);
#745=EDGE_CURVE('',#598,#591,#9,.T.);
#747=EDGE_CURVE('',#595,#591,#549,.T.);
#749=EDGE_CURVE('',#607,#595,#13,.T.);
#751=EDGE_CURVE('',#735,#607,#178,.T.);
#753=EDGE_CURVE('',#734,#735,#183,.T.);
#755=EDGE_CURVE('',#605,#734,#163,.T.);
#765=EDGE_CURVE('',#655,#651,#55,.T.);
#767=EDGE_CURVE('',#655,#603,#17,.T.);
#769=EDGE_CURVE('',#602,#603,#566,.T.);
#772=EDGE_CURVE('',#605,#646,#21,.T.);
#774=EDGE_CURVE('',#642,#646,#144,.T.);
#776=EDGE_CURVE('',#642,#635,#25,.T.);
#778=EDGE_CURVE('',#639,#635,#135,.T.);
#780=EDGE_CURVE('',#639,#623,#29,.T.);
#782=EDGE_CURVE('',#621,#623,#90,.T.);
#784=EDGE_CURVE('',#621,#630,#33,.T.);
#786=EDGE_CURVE('',#626,#630,#64,.T.);
#788=EDGE_CURVE('',#626,#651,#37,.T.);
#798=EDGE_CURVE('',#650,#651,#41,.T.);
#800=EDGE_CURVE('',#650,#653,#46,.T.);
#802=EDGE_CURVE('',#653,#655,#50,.T.);
#815=EDGE_CURVE('',#626,#627,#59,.T.);
#817=EDGE_CURVE('',#627,#650,#511,.T.);
#829=EDGE_CURVE('',#630,#631,#68,.T.);
#831=EDGE_CURVE('',#631,#627,#73,.T.);
#843=EDGE_CURVE('',#618,#621,#86,.T.);
#845=EDGE_CURVE('',#618,#611,#77,.T.);
#847=EDGE_CURVE('',#615,#611,#117,.T.);
#849=EDGE_CURVE('',#615,#631,#515,.T.);
#859=EDGE_CURVE('',#618,#619,#81,.T.);
#863=EDGE_CURVE('',#623,#619,#95,.T.);
#873=EDGE_CURVE('',#610,#611,#103,.T.);
#877=EDGE_CURVE('',#619,#610,#99,.T.);
#888=EDGE_CURVE('',#610,#613,#108,.T.);
#890=EDGE_CURVE('',#613,#615,#112,.T.);
#901=EDGE_CURVE('',#637,#639,#130,.T.);
#903=EDGE_CURVE('',#637,#613,#519,.T.);
#917=EDGE_CURVE('',#634,#635,#121,.T.);
#919=EDGE_CURVE('',#634,#637,#126,.T.);
#931=EDGE_CURVE('',#642,#643,#139,.T.);
#933=EDGE_CURVE('',#643,#634,#523,.T.);
#947=EDGE_CURVE('',#646,#647,#148,.T.);
#949=EDGE_CURVE('',#647,#643,#153,.T.);
#961=EDGE_CURVE('',#605,#607,#158,.T.);
#963=EDGE_CURVE('',#607,#647,#527,.T.);
#975=EDGE_CURVE('',#734,#731,#193,.T.);
#977=EDGE_CURVE('',#730,#731,#168,.T.);
#979=EDGE_CURVE('',#735,#730,#173,.T.);
#992=EDGE_CURVE('',#731,#730,#188,.T.);
#1004=EDGE_CURVE('',#730,#586,#197,.T.);
#1006=EDGE_CURVE('',#586,#587,#502,.T.);
#1008=EDGE_CURVE('',#731,#587,#201,.T.);
#1020=EDGE_CURVE('',#587,#586,#211,.T.);
#1031=EDGE_CURVE('',#583,#582,#206,.T.);
#1033=EDGE_CURVE('',#582,#586,#507,.T.);
#1036=EDGE_CURVE('',#583,#587,#216,.T.);
#1046=EDGE_CURVE('',#582,#583,#497,.T.);
#1051=EDGE_CURVE('',#574,#575,#226,.T.);
#1053=EDGE_CURVE('',#575,#574,#384,.T.);
#1063=EDGE_CURVE('',#658,#659,#250,.T.);
#1065=EDGE_CURVE('',#659,#577,#221,.T.);
#1067=EDGE_CURVE('',#577,#575,#389,.T.);
#1070=EDGE_CURVE('',#579,#574,#231,.T.);
#1072=EDGE_CURVE('',#579,#658,#236,.T.);
#1082=EDGE_CURVE('',#662,#665,#259,.T.);
#1084=EDGE_CURVE('',#662,#673,#240,.T.);
#1086=EDGE_CURVE('',#679,#673,#412,.T.);
#1088=EDGE_CURVE('',#665,#679,#245,.T.);
#1098=EDGE_CURVE('',#722,#723,#323,.T.);
#1100=EDGE_CURVE('',#659,#723,#319,.T.);
#1103=EDGE_CURVE('',#658,#722,#341,.T.);
#1113=EDGE_CURVE('',#662,#663,#254,.T.);
#1116=EDGE_CURVE('',#665,#668,#264,.T.);
#1118=EDGE_CURVE('',#668,#669,#268,.T.);
#1120=EDGE_CURVE('',#669,#663,#273,.T.);
#1131=EDGE_CURVE('',#663,#672,#277,.T.);
#1133=EDGE_CURVE('',#672,#673,#393,.T.);
#1144=EDGE_CURVE('',#698,#699,#281,.T.);
#1146=EDGE_CURVE('',#699,#675,#345,.T.);
#1148=EDGE_CURVE('',#672,#675,#398,.T.);
#1152=EDGE_CURVE('',#698,#669,#315,.T.);
#1163=EDGE_CURVE('',#698,#702,#286,.T.);
#1165=EDGE_CURVE('',#702,#703,#290,.T.);
#1167=EDGE_CURVE('',#703,#699,#295,.T.);
#1177=EDGE_CURVE('',#727,#723,#337,.T.);
#1179=EDGE_CURVE('',#727,#718,#299,.T.);
#1181=EDGE_CURVE('',#714,#718,#465,.T.);
#1183=EDGE_CURVE('',#714,#687,#303,.T.);
#1185=EDGE_CURVE('',#685,#687,#447,.T.);
#1187=EDGE_CURVE('',#685,#707,#307,.T.);
#1189=EDGE_CURVE('',#711,#707,#430,.T.);
#1191=EDGE_CURVE('',#711,#702,#311,.T.);
#1196=EDGE_CURVE('',#668,#659,#365,.T.);
#1208=EDGE_CURVE('',#722,#725,#328,.T.);
#1210=EDGE_CURVE('',#725,#727,#332,.T.);
#1223=EDGE_CURVE('',#677,#658,#379,.T.);
#1225=EDGE_CURVE('',#675,#677,#402,.T.);
#1229=EDGE_CURVE('',#709,#703,#349,.T.);
#1231=EDGE_CURVE('',#706,#709,#421,.T.);
#1233=EDGE_CURVE('',#695,#706,#353,.T.);
#1235=EDGE_CURVE('',#693,#695,#487,.T.);
#1237=EDGE_CURVE('',#715,#693,#357,.T.);
#1239=EDGE_CURVE('',#719,#715,#474,.T.);
#1241=EDGE_CURVE('',#725,#719,#361,.T.);
#1253=EDGE_CURVE('',#665,#577,#370,.T.);
#1264=EDGE_CURVE('',#579,#679,#375,.T.);
#1266=EDGE_CURVE('',#677,#679,#407,.T.);
#1305=EDGE_CURVE('',#709,#711,#425,.T.);
#1318=EDGE_CURVE('',#706,#707,#416,.T.);
#1333=EDGE_CURVE('',#682,#685,#443,.T.);
#1335=EDGE_CURVE('',#682,#691,#434,.T.);
#1337=EDGE_CURVE('',#695,#691,#492,.T.);
#1348=EDGE_CURVE('',#682,#683,#438,.T.);
#1352=EDGE_CURVE('',#687,#683,#452,.T.);
#1363=EDGE_CURVE('',#683,#690,#456,.T.);
#1365=EDGE_CURVE('',#690,#691,#478,.T.);
#1376=EDGE_CURVE('',#714,#715,#460,.T.);
#1379=EDGE_CURVE('',#690,#693,#483,.T.);
#1394=EDGE_CURVE('',#718,#719,#469,.T.);
#1452=EDGE_CURVE('',#593,#595,#544,.T.);
#1454=EDGE_CURVE('',#653,#593,#531,.T.);
#1464=EDGE_CURVE('',#590,#591,#535,.T.);
#1466=EDGE_CURVE('',#590,#593,#540,.T.);
#1480=EDGE_CURVE('',#598,#599,#557,.T.);
#1482=EDGE_CURVE('',#599,#590,#553,.T.);
#1495=EDGE_CURVE('',#603,#599,#571,.T.);
#1524=ADVANCED_BREP_SHAPE_REPRESENTATION('',(#1515),#1523);
#1531=PRODUCT_DEFINITION('design','',#1530,#1527);
#1532=PRODUCT_DEFINITION_SHAPE('','SHAPE FOR RTC-ML414R-F9A_PRT.',#1531);
#1533=SHAPE_DEFINITION_REPRESENTATION(#1532,#1524);
ENDSEC;
END-ISO-10303-21;
