ISO-10303-21;
HEADER;
FILE_DESCRIPTION((''),'2;1');
FILE_NAME('T-DSC20-900X00_1_PRT','2008-06-30T',('GRA'),(''),
'PRO/ENGINEER BY PARAMETRIC TECHNOLOGY CORPORATION, 2006170',
'PRO/ENGINEER BY PARAMETRIC TECHNOLOGY CORPORATION, 2006170','');
FILE_SCHEMA(('CONFIG_CONTROL_DESIGN'));
ENDSEC;
DATA;
#1=CARTESIAN_POINT('',(2.15E0,2.E-1,-9.E-1));
#2=DIRECTION('',(0.E0,1.E0,0.E0));
#3=DIRECTION('',(-8.660254037844E-1,0.E0,5.E-1));
#4=AXIS2_PLACEMENT_3D('',#1,#2,#3);
#6=DIRECTION('',(1.E0,0.E0,0.E0));
#7=VECTOR('',#6,6.2E-1);
#8=CARTESIAN_POINT('',(2.35E0,2.E-1,-9.E-1));
#9=LINE('',#8,#7);
#10=DIRECTION('',(2.575717417136E-13,0.E0,1.E0));
#11=VECTOR('',#10,2.999999999994E-1);
#12=CARTESIAN_POINT('',(2.97E0,2.E-1,-9.E-1));
#13=LINE('',#12,#11);
#14=DIRECTION('',(2.584969837962E-1,0.E0,9.660120648151E-1));
#15=VECTOR('',#14,1.802775637723E-1);
#16=CARTESIAN_POINT('',(2.97E0,2.E-1,-6.000000000006E-1));
#17=LINE('',#16,#15);
#18=CARTESIAN_POINT('',(2.92E0,2.E-1,-4.E-1));
#19=DIRECTION('',(0.E0,-1.E0,0.E0));
#20=DIRECTION('',(9.660120648025E-1,0.E0,-2.584969838431E-1));
#21=AXIS2_PLACEMENT_3D('',#18,#19,#20);
#23=DIRECTION('',(-2.977324674056E-1,0.E0,9.546493481130E-1));
#24=VECTOR('',#23,3.878143885932E-1);
#25=CARTESIAN_POINT('',(3.015464934811E0,2.E-1,-3.702267532593E-1));
#26=LINE('',#25,#24);
#27=DIRECTION('',(-1.E0,0.E0,-8.696747026228E-14));
#28=VECTOR('',#27,4.000000000001E-1);
#29=CARTESIAN_POINT('',(2.9E0,2.E-1,3.478698810492E-14));
#30=LINE('',#29,#28);
#31=CARTESIAN_POINT('',(2.5E0,2.E-1,1.E-1));
#32=DIRECTION('',(0.E0,1.E0,0.E0));
#33=DIRECTION('',(0.E0,0.E0,-1.E0));
#34=AXIS2_PLACEMENT_3D('',#31,#32,#33);
#36=CARTESIAN_POINT('',(2.3E0,2.E-1,1.1E0));
#37=DIRECTION('',(0.E0,-1.E0,0.E0));
#38=DIRECTION('',(1.E0,0.E0,0.E0));
#39=AXIS2_PLACEMENT_3D('',#36,#37,#38);
#41=CARTESIAN_POINT('',(6.E-1,2.E-1,1.1E0));
#42=DIRECTION('',(0.E0,-1.E0,0.E0));
#43=DIRECTION('',(-1.665334536938E-14,0.E0,1.E0));
#44=AXIS2_PLACEMENT_3D('',#41,#42,#43);
#46=CARTESIAN_POINT('',(4.E-1,2.E-1,1.E-1));
#47=DIRECTION('',(0.E0,1.E0,0.E0));
#48=DIRECTION('',(1.E0,0.E0,0.E0));
#49=AXIS2_PLACEMENT_3D('',#46,#47,#48);
#51=DIRECTION('',(-1.E0,0.E0,0.E0));
#52=VECTOR('',#51,4.E-1);
#53=CARTESIAN_POINT('',(4.E-1,2.E-1,0.E0));
#54=LINE('',#53,#52);
#55=DIRECTION('',(-2.977324674056E-1,0.E0,-9.546493481130E-1));
#56=VECTOR('',#55,3.878143885932E-1);
#57=CARTESIAN_POINT('',(-1.634190781712E-14,2.E-1,0.E0));
#58=LINE('',#57,#56);
#59=CARTESIAN_POINT('',(-2.E-2,2.E-1,-4.E-1));
#60=DIRECTION('',(0.E0,-1.E0,0.E0));
#61=DIRECTION('',(-9.546493481125E-1,0.E0,2.977324674072E-1));
#62=AXIS2_PLACEMENT_3D('',#59,#60,#61);
#64=DIRECTION('',(2.584969837962E-1,0.E0,-9.660120648151E-1));
#65=VECTOR('',#64,1.802775637732E-1);
#66=CARTESIAN_POINT('',(-1.166012064815E-1,2.E-1,-4.258496983796E-1));
#67=LINE('',#66,#65);
#68=DIRECTION('',(0.E0,0.E0,-1.E0));
#69=VECTOR('',#68,3.E-1);
#70=CARTESIAN_POINT('',(-7.E-2,2.E-1,-6.E-1));
#71=LINE('',#70,#69);
#72=DIRECTION('',(1.E0,0.E0,0.E0));
#73=VECTOR('',#72,6.2E-1);
#74=CARTESIAN_POINT('',(-7.E-2,2.E-1,-9.E-1));
#75=LINE('',#74,#73);
#76=CARTESIAN_POINT('',(7.5E-1,2.E-1,-9.E-1));
#77=DIRECTION('',(0.E0,1.E0,0.E0));
#78=DIRECTION('',(-1.E0,0.E0,0.E0));
#79=AXIS2_PLACEMENT_3D('',#76,#77,#78);
#81=DIRECTION('',(-1.E0,0.E0,1.369878371347E-14));
#82=VECTOR('',#81,1.053589838486E0);
#83=CARTESIAN_POINT('',(1.976794919243E0,2.E-1,-8.E-1));
#84=LINE('',#83,#82);
#85=CARTESIAN_POINT('',(9.5E-1,1.5E-1,-9.E-1));
#86=CARTESIAN_POINT('',(9.5E-1,1.676371253260E-1,-8.647257493480E-1));
#87=CARTESIAN_POINT('',(9.413003895344E-1,1.843290029094E-1,
-8.313419941812E-1));
#88=CARTESIAN_POINT('',(9.232050807569E-1,2.E-1,-8.E-1));
#90=DIRECTION('',(0.E0,-1.E0,0.E0));
#91=VECTOR('',#90,2.E-1);
#92=CARTESIAN_POINT('',(5.5E-1,2.E-1,-9.E-1));
#93=LINE('',#92,#91);
#94=DIRECTION('',(0.E0,1.E0,0.E0));
#95=VECTOR('',#94,1.E-1);
#96=CARTESIAN_POINT('',(9.5E-1,5.E-2,-9.E-1));
#97=LINE('',#96,#95);
#98=DIRECTION('',(0.E0,0.E0,-1.E0));
#99=VECTOR('',#98,3.E-1);
#100=CARTESIAN_POINT('',(-7.E-2,0.E0,-6.E-1));
#101=LINE('',#100,#99);
#102=DIRECTION('',(0.E0,1.E0,0.E0));
#103=VECTOR('',#102,2.E-1);
#104=CARTESIAN_POINT('',(-7.E-2,0.E0,-9.E-1));
#105=LINE('',#104,#103);
#106=DIRECTION('',(0.E0,1.E0,0.E0));
#107=VECTOR('',#106,2.E-1);
#108=CARTESIAN_POINT('',(-7.E-2,0.E0,-6.E-1));
#109=LINE('',#108,#107);
#110=DIRECTION('',(0.E0,-1.E0,0.E0));
#111=VECTOR('',#110,2.E-1);
#112=CARTESIAN_POINT('',(-1.154649348113E-1,2.E-1,-3.702267532594E-1));
#113=LINE('',#112,#111);
#114=DIRECTION('',(0.E0,1.E0,0.E0));
#115=VECTOR('',#114,2.E-1);
#116=CARTESIAN_POINT('',(-1.166012064815E-1,0.E0,-4.258496983796E-1));
#117=LINE('',#116,#115);
#118=DIRECTION('',(-1.E0,0.E0,0.E0));
#119=VECTOR('',#118,4.E-1);
#120=CARTESIAN_POINT('',(4.E-1,0.E0,0.E0));
#121=LINE('',#120,#119);
#122=DIRECTION('',(0.E0,1.E0,0.E0));
#123=VECTOR('',#122,2.E-1);
#124=CARTESIAN_POINT('',(-1.634190781712E-14,0.E0,0.E0));
#125=LINE('',#124,#123);
#126=DIRECTION('',(-1.E0,0.E0,1.359340845413E-14));
#127=VECTOR('',#126,1.053589838486E0);
#128=CARTESIAN_POINT('',(1.976794919243E0,0.E0,-8.E-1));
#129=LINE('',#128,#127);
#130=CARTESIAN_POINT('',(7.5E-1,0.E0,-9.E-1));
#131=DIRECTION('',(0.E0,-1.E0,0.E0));
#132=DIRECTION('',(8.660254037844E-1,0.E0,5.E-1));
#133=AXIS2_PLACEMENT_3D('',#130,#131,#132);
#135=DIRECTION('',(-1.E0,0.E0,0.E0));
#136=VECTOR('',#135,6.2E-1);
#137=CARTESIAN_POINT('',(5.5E-1,0.E0,-9.E-1));
#138=LINE('',#137,#136);
#139=DIRECTION('',(-2.584969837962E-1,0.E0,9.660120648151E-1));
#140=VECTOR('',#139,1.802775637732E-1);
#141=CARTESIAN_POINT('',(-7.E-2,0.E0,-6.E-1));
#142=LINE('',#141,#140);
#143=CARTESIAN_POINT('',(-2.E-2,0.E0,-4.E-1));
#144=DIRECTION('',(0.E0,1.E0,0.E0));
#145=DIRECTION('',(-9.660120648153E-1,0.E0,-2.584969837953E-1));
#146=AXIS2_PLACEMENT_3D('',#143,#144,#145);
#148=DIRECTION('',(2.977324674056E-1,0.E0,9.546493481130E-1));
#149=VECTOR('',#148,3.878143885932E-1);
#150=CARTESIAN_POINT('',(-1.154649348113E-1,0.E0,-3.702267532594E-1));
#151=LINE('',#150,#149);
#152=CARTESIAN_POINT('',(4.E-1,0.E0,1.E-1));
#153=DIRECTION('',(0.E0,-1.E0,0.E0));
#154=DIRECTION('',(0.E0,0.E0,-1.E0));
#155=AXIS2_PLACEMENT_3D('',#152,#153,#154);
#157=DIRECTION('',(0.E0,0.E0,1.E0));
#158=VECTOR('',#157,1.E0);
#159=CARTESIAN_POINT('',(5.E-1,0.E0,1.E-1));
#160=LINE('',#159,#158);
#161=CARTESIAN_POINT('',(6.E-1,0.E0,1.1E0));
#162=DIRECTION('',(0.E0,1.E0,0.E0));
#163=DIRECTION('',(-1.E0,0.E0,0.E0));
#164=AXIS2_PLACEMENT_3D('',#161,#162,#163);
#166=DIRECTION('',(1.E0,0.E0,0.E0));
#167=VECTOR('',#166,1.7E0);
#168=CARTESIAN_POINT('',(6.E-1,0.E0,1.2E0));
#169=LINE('',#168,#167);
#170=CARTESIAN_POINT('',(2.3E0,0.E0,1.1E0));
#171=DIRECTION('',(0.E0,1.E0,0.E0));
#172=DIRECTION('',(0.E0,0.E0,1.E0));
#173=AXIS2_PLACEMENT_3D('',#170,#171,#172);
#175=DIRECTION('',(0.E0,0.E0,-1.E0));
#176=VECTOR('',#175,1.E0);
#177=CARTESIAN_POINT('',(2.4E0,0.E0,1.1E0));
#178=LINE('',#177,#176);
#179=CARTESIAN_POINT('',(2.5E0,0.E0,1.E-1));
#180=DIRECTION('',(0.E0,-1.E0,0.E0));
#181=DIRECTION('',(-1.E0,0.E0,0.E0));
#182=AXIS2_PLACEMENT_3D('',#179,#180,#181);
#184=DIRECTION('',(2.977324674056E-1,0.E0,-9.546493481130E-1));
#185=VECTOR('',#184,3.878143885932E-1);
#186=CARTESIAN_POINT('',(2.9E0,0.E0,3.478698810492E-14));
#187=LINE('',#186,#185);
#188=CARTESIAN_POINT('',(2.92E0,0.E0,-4.E-1));
#189=DIRECTION('',(0.E0,1.E0,0.E0));
#190=DIRECTION('',(9.546493481125E-1,0.E0,2.977324674073E-1));
#191=AXIS2_PLACEMENT_3D('',#188,#189,#190);
#193=DIRECTION('',(-2.584969837962E-1,0.E0,-9.660120648151E-1));
#194=VECTOR('',#193,1.802775637723E-1);
#195=CARTESIAN_POINT('',(3.016601206481E0,0.E0,-4.258496983812E-1));
#196=LINE('',#195,#194);
#197=DIRECTION('',(-1.E0,0.E0,0.E0));
#198=VECTOR('',#197,6.2E-1);
#199=CARTESIAN_POINT('',(2.97E0,0.E0,-9.E-1));
#200=LINE('',#199,#198);
#201=CARTESIAN_POINT('',(2.15E0,0.E0,-9.E-1));
#202=DIRECTION('',(0.E0,-1.E0,0.E0));
#203=DIRECTION('',(1.E0,0.E0,0.E0));
#204=AXIS2_PLACEMENT_3D('',#201,#202,#203);
#206=CARTESIAN_POINT('',(1.976794919243E0,1.951216965779E-14,
-8.000000000001E-1));
#207=CARTESIAN_POINT('',(1.958699610466E0,1.567099709063E-2,
-8.313419941813E-1));
#208=CARTESIAN_POINT('',(1.95E0,3.236287467402E-2,-8.647257493481E-1));
#209=CARTESIAN_POINT('',(1.95E0,5.E-2,-9.E-1));
#211=DIRECTION('',(-1.E0,0.E0,0.E0));
#212=VECTOR('',#211,1.E0);
#213=CARTESIAN_POINT('',(1.95E0,5.E-2,-9.E-1));
#214=LINE('',#213,#212);
#215=CARTESIAN_POINT('',(9.5E-1,5.E-2,-9.E-1));
#216=CARTESIAN_POINT('',(9.5E-1,3.236287467402E-2,-8.647257493480E-1));
#217=CARTESIAN_POINT('',(9.413003895344E-1,1.567099709061E-2,
-8.313419941812E-1));
#218=CARTESIAN_POINT('',(9.232050807569E-1,0.E0,-8.E-1));
#220=CARTESIAN_POINT('',(1.976794919243E0,2.E-1,-8.E-1));
#221=CARTESIAN_POINT('',(1.958699610466E0,1.843290029094E-1,
-8.313419941813E-1));
#222=CARTESIAN_POINT('',(1.95E0,1.676371253260E-1,-8.647257493481E-1));
#223=CARTESIAN_POINT('',(1.95E0,1.5E-1,-9.E-1));
#225=DIRECTION('',(0.E0,-1.E0,0.E0));
#226=VECTOR('',#225,1.E-1);
#227=CARTESIAN_POINT('',(1.95E0,1.5E-1,-9.E-1));
#228=LINE('',#227,#226);
#229=DIRECTION('',(0.E0,1.E0,0.E0));
#230=VECTOR('',#229,2.E-1);
#231=CARTESIAN_POINT('',(2.35E0,0.E0,-9.E-1));
#232=LINE('',#231,#230);
#233=DIRECTION('',(-1.E0,0.E0,0.E0));
#234=VECTOR('',#233,1.E0);
#235=CARTESIAN_POINT('',(1.95E0,1.5E-1,-9.E-1));
#236=LINE('',#235,#234);
#237=DIRECTION('',(0.E0,1.E0,0.E0));
#238=VECTOR('',#237,2.E-1);
#239=CARTESIAN_POINT('',(2.97E0,0.E0,-9.E-1));
#240=LINE('',#239,#238);
#241=DIRECTION('',(2.575717417136E-13,0.E0,1.E0));
#242=VECTOR('',#241,2.999999999994E-1);
#243=CARTESIAN_POINT('',(2.97E0,0.E0,-9.E-1));
#244=LINE('',#243,#242);
#245=DIRECTION('',(0.E0,1.E0,0.E0));
#246=VECTOR('',#245,2.E-1);
#247=CARTESIAN_POINT('',(2.97E0,0.E0,-6.000000000006E-1));
#248=LINE('',#247,#246);
#249=DIRECTION('',(0.E0,-1.E0,0.E0));
#250=VECTOR('',#249,2.E-1);
#251=CARTESIAN_POINT('',(3.016601206481E0,2.E-1,-4.258496983812E-1));
#252=LINE('',#251,#250);
#253=DIRECTION('',(0.E0,1.E0,0.E0));
#254=VECTOR('',#253,2.E-1);
#255=CARTESIAN_POINT('',(3.015464934811E0,0.E0,-3.702267532593E-1));
#256=LINE('',#255,#254);
#257=DIRECTION('',(0.E0,1.E0,0.E0));
#258=VECTOR('',#257,2.E-1);
#259=CARTESIAN_POINT('',(2.9E0,0.E0,3.478698810492E-14));
#260=LINE('',#259,#258);
#261=DIRECTION('',(-1.E0,0.E0,-8.696747026228E-14));
#262=VECTOR('',#261,4.000000000001E-1);
#263=CARTESIAN_POINT('',(2.9E0,0.E0,3.478698810492E-14));
#264=LINE('',#263,#262);
#265=DIRECTION('',(0.E0,1.E0,0.E0));
#266=VECTOR('',#265,2.E-1);
#267=CARTESIAN_POINT('',(2.4E0,0.E0,1.E-1));
#268=LINE('',#267,#266);
#269=DIRECTION('',(0.E0,-1.E0,0.E0));
#270=VECTOR('',#269,2.E-1);
#271=CARTESIAN_POINT('',(2.5E0,2.E-1,0.E0));
#272=LINE('',#271,#270);
#273=DIRECTION('',(0.E0,0.E0,-1.E0));
#274=VECTOR('',#273,1.E0);
#275=CARTESIAN_POINT('',(2.4E0,2.E-1,1.1E0));
#276=LINE('',#275,#274);
#277=DIRECTION('',(0.E0,1.E0,0.E0));
#278=VECTOR('',#277,2.E-1);
#279=CARTESIAN_POINT('',(2.3E0,0.E0,1.2E0));
#280=LINE('',#279,#278);
#281=DIRECTION('',(0.E0,-1.E0,0.E0));
#282=VECTOR('',#281,2.E-1);
#283=CARTESIAN_POINT('',(2.4E0,2.E-1,1.1E0));
#284=LINE('',#283,#282);
#285=DIRECTION('',(1.E0,0.E0,0.E0));
#286=VECTOR('',#285,1.7E0);
#287=CARTESIAN_POINT('',(6.E-1,2.E-1,1.2E0));
#288=LINE('',#287,#286);
#289=DIRECTION('',(0.E0,1.E0,0.E0));
#290=VECTOR('',#289,2.E-1);
#291=CARTESIAN_POINT('',(5.E-1,0.E0,1.1E0));
#292=LINE('',#291,#290);
#293=DIRECTION('',(0.E0,-1.E0,0.E0));
#294=VECTOR('',#293,2.E-1);
#295=CARTESIAN_POINT('',(6.E-1,2.E-1,1.2E0));
#296=LINE('',#295,#294);
#297=DIRECTION('',(0.E0,0.E0,1.E0));
#298=VECTOR('',#297,1.E0);
#299=CARTESIAN_POINT('',(5.E-1,2.E-1,1.E-1));
#300=LINE('',#299,#298);
#301=DIRECTION('',(0.E0,1.E0,0.E0));
#302=VECTOR('',#301,2.E-1);
#303=CARTESIAN_POINT('',(4.E-1,0.E0,0.E0));
#304=LINE('',#303,#302);
#305=DIRECTION('',(0.E0,-1.E0,0.E0));
#306=VECTOR('',#305,2.E-1);
#307=CARTESIAN_POINT('',(5.E-1,2.E-1,1.E-1));
#308=LINE('',#307,#306);
#309=CARTESIAN_POINT('',(1.976794919243E0,2.E-1,-8.E-1));
#310=CARTESIAN_POINT('',(9.232050807569E-1,2.E-1,-8.E-1));
#311=VERTEX_POINT('',#309);
#312=VERTEX_POINT('',#310);
#313=CARTESIAN_POINT('',(2.35E0,2.E-1,-9.E-1));
#314=VERTEX_POINT('',#313);
#315=CARTESIAN_POINT('',(2.97E0,2.E-1,-9.E-1));
#316=VERTEX_POINT('',#315);
#317=CARTESIAN_POINT('',(2.97E0,2.E-1,-6.000000000006E-1));
#318=VERTEX_POINT('',#317);
#319=CARTESIAN_POINT('',(3.016601206481E0,2.E-1,-4.258496983812E-1));
#320=VERTEX_POINT('',#319);
#321=CARTESIAN_POINT('',(3.015464934811E0,2.E-1,-3.702267532593E-1));
#322=VERTEX_POINT('',#321);
#323=CARTESIAN_POINT('',(2.9E0,2.E-1,3.480549182200E-14));
#324=VERTEX_POINT('',#323);
#325=CARTESIAN_POINT('',(2.5E0,2.E-1,0.E0));
#326=VERTEX_POINT('',#325);
#327=CARTESIAN_POINT('',(2.4E0,2.E-1,1.E-1));
#328=VERTEX_POINT('',#327);
#329=CARTESIAN_POINT('',(2.4E0,2.E-1,1.1E0));
#330=VERTEX_POINT('',#329);
#331=CARTESIAN_POINT('',(2.3E0,2.E-1,1.2E0));
#332=VERTEX_POINT('',#331);
#333=CARTESIAN_POINT('',(6.E-1,2.E-1,1.2E0));
#334=VERTEX_POINT('',#333);
#335=CARTESIAN_POINT('',(5.E-1,2.E-1,1.1E0));
#336=VERTEX_POINT('',#335);
#337=CARTESIAN_POINT('',(5.E-1,2.E-1,1.E-1));
#338=VERTEX_POINT('',#337);
#339=CARTESIAN_POINT('',(4.E-1,2.E-1,0.E0));
#340=VERTEX_POINT('',#339);
#341=CARTESIAN_POINT('',(-1.632027846199E-14,2.E-1,0.E0));
#342=VERTEX_POINT('',#341);
#343=CARTESIAN_POINT('',(-1.154649348113E-1,2.E-1,-3.702267532594E-1));
#344=VERTEX_POINT('',#343);
#345=CARTESIAN_POINT('',(-1.166012064815E-1,2.E-1,-4.258496983795E-1));
#346=VERTEX_POINT('',#345);
#347=CARTESIAN_POINT('',(-7.E-2,2.E-1,-6.E-1));
#348=VERTEX_POINT('',#347);
#349=CARTESIAN_POINT('',(-7.E-2,2.E-1,-9.E-1));
#350=VERTEX_POINT('',#349);
#351=CARTESIAN_POINT('',(5.5E-1,2.E-1,-9.E-1));
#352=VERTEX_POINT('',#351);
#353=VERTEX_POINT('',#85);
#354=CARTESIAN_POINT('',(1.95E0,1.5E-1,-9.E-1));
#355=VERTEX_POINT('',#354);
#356=CARTESIAN_POINT('',(5.5E-1,0.E0,-9.E-1));
#357=VERTEX_POINT('',#356);
#358=CARTESIAN_POINT('',(9.232050807569E-1,0.E0,-8.E-1));
#359=VERTEX_POINT('',#358);
#360=VERTEX_POINT('',#215);
#361=CARTESIAN_POINT('',(2.35E0,0.E0,-9.E-1));
#362=VERTEX_POINT('',#361);
#363=CARTESIAN_POINT('',(2.97E0,0.E0,-9.E-1));
#364=VERTEX_POINT('',#363);
#365=CARTESIAN_POINT('',(-7.E-2,0.E0,-9.E-1));
#366=VERTEX_POINT('',#365);
#367=CARTESIAN_POINT('',(1.95E0,5.E-2,-9.E-1));
#368=VERTEX_POINT('',#367);
#369=VERTEX_POINT('',#206);
#370=CARTESIAN_POINT('',(-7.E-2,0.E0,-6.E-1));
#371=VERTEX_POINT('',#370);
#372=CARTESIAN_POINT('',(-1.166012064815E-1,0.E0,-4.258496983796E-1));
#373=VERTEX_POINT('',#372);
#374=CARTESIAN_POINT('',(-1.154649348113E-1,0.E0,-3.702267532593E-1));
#375=VERTEX_POINT('',#374);
#376=CARTESIAN_POINT('',(-1.634803403761E-14,0.E0,0.E0));
#377=VERTEX_POINT('',#376);
#378=CARTESIAN_POINT('',(4.E-1,0.E0,0.E0));
#379=VERTEX_POINT('',#378);
#380=CARTESIAN_POINT('',(5.E-1,0.E0,1.E-1));
#381=VERTEX_POINT('',#380);
#382=CARTESIAN_POINT('',(5.E-1,0.E0,1.1E0));
#383=VERTEX_POINT('',#382);
#384=CARTESIAN_POINT('',(6.E-1,0.E0,1.2E0));
#385=VERTEX_POINT('',#384);
#386=CARTESIAN_POINT('',(2.3E0,0.E0,1.2E0));
#387=VERTEX_POINT('',#386);
#388=CARTESIAN_POINT('',(2.4E0,0.E0,1.1E0));
#389=VERTEX_POINT('',#388);
#390=CARTESIAN_POINT('',(2.4E0,0.E0,1.E-1));
#391=VERTEX_POINT('',#390);
#392=CARTESIAN_POINT('',(2.5E0,0.E0,0.E0));
#393=VERTEX_POINT('',#392);
#394=CARTESIAN_POINT('',(2.9E0,0.E0,3.478698810492E-14));
#395=VERTEX_POINT('',#394);
#396=CARTESIAN_POINT('',(3.015464934811E0,0.E0,-3.702267532593E-1));
#397=VERTEX_POINT('',#396);
#398=CARTESIAN_POINT('',(3.016601206480E0,0.E0,-4.258496983843E-1));
#399=VERTEX_POINT('',#398);
#400=CARTESIAN_POINT('',(2.97E0,0.E0,-6.000000000006E-1));
#401=VERTEX_POINT('',#400);
#402=CARTESIAN_POINT('',(0.E0,2.E-1,0.E0));
#403=DIRECTION('',(0.E0,-1.E0,0.E0));
#404=DIRECTION('',(1.E0,0.E0,0.E0));
#405=AXIS2_PLACEMENT_3D('',#402,#403,#404);
#406=PLANE('',#405);
#408=ORIENTED_EDGE('',*,*,#407,.F.);
#410=ORIENTED_EDGE('',*,*,#409,.T.);
#412=ORIENTED_EDGE('',*,*,#411,.T.);
#414=ORIENTED_EDGE('',*,*,#413,.T.);
#416=ORIENTED_EDGE('',*,*,#415,.T.);
#418=ORIENTED_EDGE('',*,*,#417,.T.);
#420=ORIENTED_EDGE('',*,*,#419,.T.);
#422=ORIENTED_EDGE('',*,*,#421,.T.);
#424=ORIENTED_EDGE('',*,*,#423,.T.);
#426=ORIENTED_EDGE('',*,*,#425,.F.);
#428=ORIENTED_EDGE('',*,*,#427,.T.);
#430=ORIENTED_EDGE('',*,*,#429,.F.);
#432=ORIENTED_EDGE('',*,*,#431,.T.);
#434=ORIENTED_EDGE('',*,*,#433,.F.);
#436=ORIENTED_EDGE('',*,*,#435,.T.);
#438=ORIENTED_EDGE('',*,*,#437,.T.);
#440=ORIENTED_EDGE('',*,*,#439,.T.);
#442=ORIENTED_EDGE('',*,*,#441,.T.);
#444=ORIENTED_EDGE('',*,*,#443,.T.);
#446=ORIENTED_EDGE('',*,*,#445,.T.);
#448=ORIENTED_EDGE('',*,*,#447,.T.);
#450=ORIENTED_EDGE('',*,*,#449,.T.);
#451=EDGE_LOOP('',(#408,#410,#412,#414,#416,#418,#420,#422,#424,#426,#428,#430,
#432,#434,#436,#438,#440,#442,#444,#446,#448,#450));
#452=FACE_OUTER_BOUND('',#451,.F.);
#453=ADVANCED_FACE('',(#452),#406,.F.);
#454=CARTESIAN_POINT('',(2.15E0,2.E-1,-8.E-1));
#455=DIRECTION('',(0.E0,-8.944271909999E-1,4.472135955E-1));
#456=DIRECTION('',(0.E0,-4.472135955E-1,-8.944271909999E-1));
#457=AXIS2_PLACEMENT_3D('',#454,#455,#456);
#458=PLANE('',#457);
#460=ORIENTED_EDGE('',*,*,#459,.F.);
#462=ORIENTED_EDGE('',*,*,#461,.F.);
#464=ORIENTED_EDGE('',*,*,#463,.F.);
#465=ORIENTED_EDGE('',*,*,#407,.T.);
#466=EDGE_LOOP('',(#460,#462,#464,#465));
#467=FACE_OUTER_BOUND('',#466,.F.);
#468=ADVANCED_FACE('',(#467),#458,.F.);
#469=CARTESIAN_POINT('',(7.5E-1,1.E-1,-9.E-1));
#470=DIRECTION('',(0.E0,1.E0,0.E0));
#471=DIRECTION('',(-1.E0,0.E0,0.E0));
#472=AXIS2_PLACEMENT_3D('',#469,#470,#471);
#473=CYLINDRICAL_SURFACE('',#472,2.E-1);
#474=ORIENTED_EDGE('',*,*,#459,.T.);
#475=ORIENTED_EDGE('',*,*,#449,.F.);
#477=ORIENTED_EDGE('',*,*,#476,.T.);
#479=ORIENTED_EDGE('',*,*,#478,.F.);
#481=ORIENTED_EDGE('',*,*,#480,.F.);
#483=ORIENTED_EDGE('',*,*,#482,.T.);
#484=EDGE_LOOP('',(#474,#475,#477,#479,#481,#483));
#485=FACE_OUTER_BOUND('',#484,.F.);
#486=ADVANCED_FACE('',(#485),#473,.F.);
#487=CARTESIAN_POINT('',(1.45E0,1.E-1,-9.E-1));
#488=DIRECTION('',(0.E0,0.E0,-1.E0));
#489=DIRECTION('',(1.E0,0.E0,0.E0));
#490=AXIS2_PLACEMENT_3D('',#487,#488,#489);
#491=PLANE('',#490);
#492=ORIENTED_EDGE('',*,*,#476,.F.);
#493=ORIENTED_EDGE('',*,*,#447,.F.);
#495=ORIENTED_EDGE('',*,*,#494,.F.);
#497=ORIENTED_EDGE('',*,*,#496,.F.);
#498=EDGE_LOOP('',(#492,#493,#495,#497));
#499=FACE_OUTER_BOUND('',#498,.F.);
#500=ADVANCED_FACE('',(#499),#491,.T.);
#501=CARTESIAN_POINT('',(-7.E-2,1.E-1,-7.5E-1));
#502=DIRECTION('',(-1.E0,0.E0,0.E0));
#503=DIRECTION('',(0.E0,0.E0,1.E0));
#504=AXIS2_PLACEMENT_3D('',#501,#502,#503);
#505=PLANE('',#504);
#506=ORIENTED_EDGE('',*,*,#445,.F.);
#508=ORIENTED_EDGE('',*,*,#507,.F.);
#510=ORIENTED_EDGE('',*,*,#509,.T.);
#511=ORIENTED_EDGE('',*,*,#494,.T.);
#512=EDGE_LOOP('',(#506,#508,#510,#511));
#513=FACE_OUTER_BOUND('',#512,.F.);
#514=ADVANCED_FACE('',(#513),#505,.T.);
#515=CARTESIAN_POINT('',(-9.330060324075E-2,1.E-1,-5.129248491898E-1));
#516=DIRECTION('',(-9.660120648151E-1,0.E0,-2.584969837962E-1));
#517=DIRECTION('',(-2.584969837962E-1,0.E0,9.660120648151E-1));
#518=AXIS2_PLACEMENT_3D('',#515,#516,#517);
#519=PLANE('',#518);
#520=ORIENTED_EDGE('',*,*,#443,.F.);
#522=ORIENTED_EDGE('',*,*,#521,.F.);
#524=ORIENTED_EDGE('',*,*,#523,.F.);
#525=ORIENTED_EDGE('',*,*,#507,.T.);
#526=EDGE_LOOP('',(#520,#522,#524,#525));
#527=FACE_OUTER_BOUND('',#526,.F.);
#528=ADVANCED_FACE('',(#527),#519,.T.);
#529=CARTESIAN_POINT('',(-2.E-2,1.E-1,-4.E-1));
#530=DIRECTION('',(0.E0,1.E0,0.E0));
#531=DIRECTION('',(-9.660120648151E-1,0.E0,-2.584969837962E-1));
#532=AXIS2_PLACEMENT_3D('',#529,#530,#531);
#533=CYLINDRICAL_SURFACE('',#532,1.E-1);
#534=ORIENTED_EDGE('',*,*,#441,.F.);
#536=ORIENTED_EDGE('',*,*,#535,.T.);
#538=ORIENTED_EDGE('',*,*,#537,.F.);
#539=ORIENTED_EDGE('',*,*,#521,.T.);
#540=EDGE_LOOP('',(#534,#536,#538,#539));
#541=FACE_OUTER_BOUND('',#540,.F.);
#542=ADVANCED_FACE('',(#541),#533,.T.);
#543=CARTESIAN_POINT('',(-5.773246740565E-2,1.E-1,-1.851133766297E-1));
#544=DIRECTION('',(-9.546493481130E-1,0.E0,2.977324674056E-1));
#545=DIRECTION('',(2.977324674056E-1,0.E0,9.546493481130E-1));
#546=AXIS2_PLACEMENT_3D('',#543,#544,#545);
#547=PLANE('',#546);
#548=ORIENTED_EDGE('',*,*,#439,.F.);
#550=ORIENTED_EDGE('',*,*,#549,.F.);
#552=ORIENTED_EDGE('',*,*,#551,.F.);
#553=ORIENTED_EDGE('',*,*,#535,.F.);
#554=EDGE_LOOP('',(#548,#550,#552,#553));
#555=FACE_OUTER_BOUND('',#554,.F.);
#556=ADVANCED_FACE('',(#555),#547,.T.);
#557=CARTESIAN_POINT('',(2.E-1,1.E-1,0.E0));
#558=DIRECTION('',(0.E0,0.E0,-1.E0));
#559=DIRECTION('',(1.E0,0.E0,0.E0));
#560=AXIS2_PLACEMENT_3D('',#557,#558,#559);
#561=PLANE('',#560);
#563=ORIENTED_EDGE('',*,*,#562,.T.);
#564=ORIENTED_EDGE('',*,*,#549,.T.);
#565=ORIENTED_EDGE('',*,*,#437,.F.);
#567=ORIENTED_EDGE('',*,*,#566,.F.);
#568=EDGE_LOOP('',(#563,#564,#565,#567));
#569=FACE_OUTER_BOUND('',#568,.F.);
#570=ADVANCED_FACE('',(#569),#561,.F.);
#571=CARTESIAN_POINT('',(0.E0,0.E0,0.E0));
#572=DIRECTION('',(0.E0,-1.E0,0.E0));
#573=DIRECTION('',(1.E0,0.E0,0.E0));
#574=AXIS2_PLACEMENT_3D('',#571,#572,#573);
#575=PLANE('',#574);
#577=ORIENTED_EDGE('',*,*,#576,.T.);
#578=ORIENTED_EDGE('',*,*,#478,.T.);
#579=ORIENTED_EDGE('',*,*,#496,.T.);
#580=ORIENTED_EDGE('',*,*,#509,.F.);
#581=ORIENTED_EDGE('',*,*,#523,.T.);
#582=ORIENTED_EDGE('',*,*,#537,.T.);
#583=ORIENTED_EDGE('',*,*,#551,.T.);
#584=ORIENTED_EDGE('',*,*,#562,.F.);
#586=ORIENTED_EDGE('',*,*,#585,.T.);
#588=ORIENTED_EDGE('',*,*,#587,.T.);
#590=ORIENTED_EDGE('',*,*,#589,.T.);
#592=ORIENTED_EDGE('',*,*,#591,.T.);
#594=ORIENTED_EDGE('',*,*,#593,.T.);
#596=ORIENTED_EDGE('',*,*,#595,.T.);
#598=ORIENTED_EDGE('',*,*,#597,.T.);
#600=ORIENTED_EDGE('',*,*,#599,.F.);
#602=ORIENTED_EDGE('',*,*,#601,.T.);
#604=ORIENTED_EDGE('',*,*,#603,.T.);
#606=ORIENTED_EDGE('',*,*,#605,.T.);
#608=ORIENTED_EDGE('',*,*,#607,.F.);
#610=ORIENTED_EDGE('',*,*,#609,.T.);
#612=ORIENTED_EDGE('',*,*,#611,.T.);
#613=EDGE_LOOP('',(#577,#578,#579,#580,#581,#582,#583,#584,#586,#588,#590,#592,
#594,#596,#598,#600,#602,#604,#606,#608,#610,#612));
#614=FACE_OUTER_BOUND('',#613,.F.);
#615=ADVANCED_FACE('',(#614),#575,.T.);
#616=CARTESIAN_POINT('',(2.15E0,5.E-2,-9.E-1));
#617=DIRECTION('',(0.E0,8.944271909999E-1,4.472135955E-1));
#618=DIRECTION('',(0.E0,-4.472135955E-1,8.944271909999E-1));
#619=AXIS2_PLACEMENT_3D('',#616,#617,#618);
#620=PLANE('',#619);
#622=ORIENTED_EDGE('',*,*,#621,.T.);
#624=ORIENTED_EDGE('',*,*,#623,.T.);
#625=ORIENTED_EDGE('',*,*,#480,.T.);
#626=ORIENTED_EDGE('',*,*,#576,.F.);
#627=EDGE_LOOP('',(#622,#624,#625,#626));
#628=FACE_OUTER_BOUND('',#627,.F.);
#629=ADVANCED_FACE('',(#628),#620,.F.);
#630=CARTESIAN_POINT('',(2.15E0,1.E-1,-9.E-1));
#631=DIRECTION('',(0.E0,1.E0,0.E0));
#632=DIRECTION('',(-1.E0,0.E0,0.E0));
#633=AXIS2_PLACEMENT_3D('',#630,#631,#632);
#634=CYLINDRICAL_SURFACE('',#633,2.E-1);
#635=ORIENTED_EDGE('',*,*,#409,.F.);
#636=ORIENTED_EDGE('',*,*,#463,.T.);
#638=ORIENTED_EDGE('',*,*,#637,.T.);
#639=ORIENTED_EDGE('',*,*,#621,.F.);
#640=ORIENTED_EDGE('',*,*,#611,.F.);
#642=ORIENTED_EDGE('',*,*,#641,.T.);
#643=EDGE_LOOP('',(#635,#636,#638,#639,#640,#642));
#644=FACE_OUTER_BOUND('',#643,.F.);
#645=ADVANCED_FACE('',(#644),#634,.F.);
#646=CARTESIAN_POINT('',(1.45E0,1.E-1,-9.E-1));
#647=DIRECTION('',(0.E0,0.E0,-1.E0));
#648=DIRECTION('',(1.E0,0.E0,0.E0));
#649=AXIS2_PLACEMENT_3D('',#646,#647,#648);
#650=PLANE('',#649);
#651=ORIENTED_EDGE('',*,*,#461,.T.);
#652=ORIENTED_EDGE('',*,*,#482,.F.);
#653=ORIENTED_EDGE('',*,*,#623,.F.);
#654=ORIENTED_EDGE('',*,*,#637,.F.);
#655=EDGE_LOOP('',(#651,#652,#653,#654));
#656=FACE_OUTER_BOUND('',#655,.F.);
#657=ADVANCED_FACE('',(#656),#650,.T.);
#658=CARTESIAN_POINT('',(1.45E0,1.E-1,-9.E-1));
#659=DIRECTION('',(0.E0,0.E0,-1.E0));
#660=DIRECTION('',(1.E0,0.E0,0.E0));
#661=AXIS2_PLACEMENT_3D('',#658,#659,#660);
#662=PLANE('',#661);
#663=ORIENTED_EDGE('',*,*,#641,.F.);
#664=ORIENTED_EDGE('',*,*,#609,.F.);
#666=ORIENTED_EDGE('',*,*,#665,.T.);
#667=ORIENTED_EDGE('',*,*,#411,.F.);
#668=EDGE_LOOP('',(#663,#664,#666,#667));
#669=FACE_OUTER_BOUND('',#668,.F.);
#670=ADVANCED_FACE('',(#669),#662,.T.);
#671=CARTESIAN_POINT('',(2.97E0,1.E-1,-7.5E-1));
#672=DIRECTION('',(1.E0,0.E0,0.E0));
#673=DIRECTION('',(0.E0,0.E0,-1.E0));
#674=AXIS2_PLACEMENT_3D('',#671,#672,#673);
#675=PLANE('',#674);
#676=ORIENTED_EDGE('',*,*,#413,.F.);
#677=ORIENTED_EDGE('',*,*,#665,.F.);
#678=ORIENTED_EDGE('',*,*,#607,.T.);
#680=ORIENTED_EDGE('',*,*,#679,.T.);
#681=EDGE_LOOP('',(#676,#677,#678,#680));
#682=FACE_OUTER_BOUND('',#681,.F.);
#683=ADVANCED_FACE('',(#682),#675,.T.);
#684=CARTESIAN_POINT('',(2.993300603241E0,1.E-1,-5.129248491898E-1));
#685=DIRECTION('',(9.660120648151E-1,0.E0,-2.584969837962E-1));
#686=DIRECTION('',(-2.584969837962E-1,0.E0,-9.660120648151E-1));
#687=AXIS2_PLACEMENT_3D('',#684,#685,#686);
#688=PLANE('',#687);
#689=ORIENTED_EDGE('',*,*,#415,.F.);
#690=ORIENTED_EDGE('',*,*,#679,.F.);
#691=ORIENTED_EDGE('',*,*,#605,.F.);
#693=ORIENTED_EDGE('',*,*,#692,.F.);
#694=EDGE_LOOP('',(#689,#690,#691,#693));
#695=FACE_OUTER_BOUND('',#694,.F.);
#696=ADVANCED_FACE('',(#695),#688,.T.);
#697=CARTESIAN_POINT('',(2.92E0,1.E-1,-4.E-1));
#698=DIRECTION('',(0.E0,1.E0,0.E0));
#699=DIRECTION('',(9.546493481130E-1,0.E0,2.977324674056E-1));
#700=AXIS2_PLACEMENT_3D('',#697,#698,#699);
#701=CYLINDRICAL_SURFACE('',#700,1.E-1);
#702=ORIENTED_EDGE('',*,*,#417,.F.);
#703=ORIENTED_EDGE('',*,*,#692,.T.);
#704=ORIENTED_EDGE('',*,*,#603,.F.);
#706=ORIENTED_EDGE('',*,*,#705,.T.);
#707=EDGE_LOOP('',(#702,#703,#704,#706));
#708=FACE_OUTER_BOUND('',#707,.F.);
#709=ADVANCED_FACE('',(#708),#701,.T.);
#710=CARTESIAN_POINT('',(2.957732467406E0,1.E-1,-1.851133766297E-1));
#711=DIRECTION('',(9.546493481130E-1,0.E0,2.977324674056E-1));
#712=DIRECTION('',(2.977324674056E-1,0.E0,-9.546493481130E-1));
#713=AXIS2_PLACEMENT_3D('',#710,#711,#712);
#714=PLANE('',#713);
#715=ORIENTED_EDGE('',*,*,#419,.F.);
#716=ORIENTED_EDGE('',*,*,#705,.F.);
#717=ORIENTED_EDGE('',*,*,#601,.F.);
#719=ORIENTED_EDGE('',*,*,#718,.T.);
#720=EDGE_LOOP('',(#715,#716,#717,#719));
#721=FACE_OUTER_BOUND('',#720,.F.);
#722=ADVANCED_FACE('',(#721),#714,.T.);
#723=CARTESIAN_POINT('',(2.7E0,1.E-1,0.E0));
#724=DIRECTION('',(0.E0,0.E0,-1.E0));
#725=DIRECTION('',(1.E0,0.E0,0.E0));
#726=AXIS2_PLACEMENT_3D('',#723,#724,#725);
#727=PLANE('',#726);
#728=ORIENTED_EDGE('',*,*,#599,.T.);
#730=ORIENTED_EDGE('',*,*,#729,.F.);
#731=ORIENTED_EDGE('',*,*,#421,.F.);
#732=ORIENTED_EDGE('',*,*,#718,.F.);
#733=EDGE_LOOP('',(#728,#730,#731,#732));
#734=FACE_OUTER_BOUND('',#733,.F.);
#735=ADVANCED_FACE('',(#734),#727,.F.);
#736=CARTESIAN_POINT('',(2.5E0,1.E-1,1.E-1));
#737=DIRECTION('',(0.E0,1.E0,0.E0));
#738=DIRECTION('',(0.E0,0.E0,-1.E0));
#739=AXIS2_PLACEMENT_3D('',#736,#737,#738);
#740=CYLINDRICAL_SURFACE('',#739,1.E-1);
#741=ORIENTED_EDGE('',*,*,#597,.F.);
#743=ORIENTED_EDGE('',*,*,#742,.T.);
#744=ORIENTED_EDGE('',*,*,#423,.F.);
#745=ORIENTED_EDGE('',*,*,#729,.T.);
#746=EDGE_LOOP('',(#741,#743,#744,#745));
#747=FACE_OUTER_BOUND('',#746,.F.);
#748=ADVANCED_FACE('',(#747),#740,.F.);
#749=CARTESIAN_POINT('',(2.4E0,1.E-1,6.E-1));
#750=DIRECTION('',(1.E0,0.E0,0.E0));
#751=DIRECTION('',(0.E0,0.E0,1.E0));
#752=AXIS2_PLACEMENT_3D('',#749,#750,#751);
#753=PLANE('',#752);
#754=ORIENTED_EDGE('',*,*,#595,.F.);
#756=ORIENTED_EDGE('',*,*,#755,.F.);
#757=ORIENTED_EDGE('',*,*,#425,.T.);
#758=ORIENTED_EDGE('',*,*,#742,.F.);
#759=EDGE_LOOP('',(#754,#756,#757,#758));
#760=FACE_OUTER_BOUND('',#759,.F.);
#761=ADVANCED_FACE('',(#760),#753,.T.);
#762=CARTESIAN_POINT('',(2.3E0,1.E-1,1.1E0));
#763=DIRECTION('',(0.E0,-1.E0,0.E0));
#764=DIRECTION('',(1.E0,0.E0,0.E0));
#765=AXIS2_PLACEMENT_3D('',#762,#763,#764);
#766=CYLINDRICAL_SURFACE('',#765,1.E-1);
#767=ORIENTED_EDGE('',*,*,#593,.F.);
#769=ORIENTED_EDGE('',*,*,#768,.T.);
#770=ORIENTED_EDGE('',*,*,#427,.F.);
#771=ORIENTED_EDGE('',*,*,#755,.T.);
#772=EDGE_LOOP('',(#767,#769,#770,#771));
#773=FACE_OUTER_BOUND('',#772,.F.);
#774=ADVANCED_FACE('',(#773),#766,.T.);
#775=CARTESIAN_POINT('',(1.45E0,1.E-1,1.2E0));
#776=DIRECTION('',(0.E0,0.E0,1.E0));
#777=DIRECTION('',(-1.E0,0.E0,0.E0));
#778=AXIS2_PLACEMENT_3D('',#775,#776,#777);
#779=PLANE('',#778);
#780=ORIENTED_EDGE('',*,*,#591,.F.);
#782=ORIENTED_EDGE('',*,*,#781,.F.);
#783=ORIENTED_EDGE('',*,*,#429,.T.);
#784=ORIENTED_EDGE('',*,*,#768,.F.);
#785=EDGE_LOOP('',(#780,#782,#783,#784));
#786=FACE_OUTER_BOUND('',#785,.F.);
#787=ADVANCED_FACE('',(#786),#779,.T.);
#788=CARTESIAN_POINT('',(6.E-1,1.E-1,1.1E0));
#789=DIRECTION('',(0.E0,-1.E0,0.E0));
#790=DIRECTION('',(0.E0,0.E0,1.E0));
#791=AXIS2_PLACEMENT_3D('',#788,#789,#790);
#792=CYLINDRICAL_SURFACE('',#791,1.E-1);
#793=ORIENTED_EDGE('',*,*,#589,.F.);
#795=ORIENTED_EDGE('',*,*,#794,.T.);
#796=ORIENTED_EDGE('',*,*,#431,.F.);
#797=ORIENTED_EDGE('',*,*,#781,.T.);
#798=EDGE_LOOP('',(#793,#795,#796,#797));
#799=FACE_OUTER_BOUND('',#798,.F.);
#800=ADVANCED_FACE('',(#799),#792,.T.);
#801=CARTESIAN_POINT('',(5.E-1,1.E-1,6.E-1));
#802=DIRECTION('',(-1.E0,0.E0,0.E0));
#803=DIRECTION('',(0.E0,0.E0,-1.E0));
#804=AXIS2_PLACEMENT_3D('',#801,#802,#803);
#805=PLANE('',#804);
#806=ORIENTED_EDGE('',*,*,#587,.F.);
#808=ORIENTED_EDGE('',*,*,#807,.F.);
#809=ORIENTED_EDGE('',*,*,#433,.T.);
#810=ORIENTED_EDGE('',*,*,#794,.F.);
#811=EDGE_LOOP('',(#806,#808,#809,#810));
#812=FACE_OUTER_BOUND('',#811,.F.);
#813=ADVANCED_FACE('',(#812),#805,.T.);
#814=CARTESIAN_POINT('',(4.E-1,1.E-1,1.E-1));
#815=DIRECTION('',(0.E0,1.E0,0.E0));
#816=DIRECTION('',(1.E0,0.E0,0.E0));
#817=AXIS2_PLACEMENT_3D('',#814,#815,#816);
#818=CYLINDRICAL_SURFACE('',#817,1.E-1);
#819=ORIENTED_EDGE('',*,*,#585,.F.);
#820=ORIENTED_EDGE('',*,*,#566,.T.);
#821=ORIENTED_EDGE('',*,*,#435,.F.);
#822=ORIENTED_EDGE('',*,*,#807,.T.);
#823=EDGE_LOOP('',(#819,#820,#821,#822));
#824=FACE_OUTER_BOUND('',#823,.F.);
#825=ADVANCED_FACE('',(#824),#818,.F.);
#826=CLOSED_SHELL('',(#453,#468,#486,#500,#514,#528,#542,#556,#570,#615,#629,
#645,#657,#670,#683,#696,#709,#722,#735,#748,#761,#774,#787,#800,#813,#825));
#827=MANIFOLD_SOLID_BREP('',#826);
#828=(LENGTH_UNIT()NAMED_UNIT(*)SI_UNIT(.MILLI.,.METRE.));
#829=DIMENSIONAL_EXPONENTS(0.E0,0.E0,0.E0,0.E0,0.E0,0.E0,0.E0);
#830=(NAMED_UNIT(*)PLANE_ANGLE_UNIT()SI_UNIT($,.RADIAN.));
#831=PLANE_ANGLE_MEASURE_WITH_UNIT(PLANE_ANGLE_MEASURE(1.745329251994E-2),#830);
#832=(CONVERSION_BASED_UNIT('DEGREE',#831)NAMED_UNIT(#829)PLANE_ANGLE_UNIT());
#833=(NAMED_UNIT(*)SI_UNIT($,.STERADIAN.)SOLID_ANGLE_UNIT());
#834=UNCERTAINTY_MEASURE_WITH_UNIT(LENGTH_MEASURE(3.782780517026E-4),#828,
'closure',
'Maximum model space distance between geometric entities at asserted connectivities');
#835=(GEOMETRIC_REPRESENTATION_CONTEXT(3)GLOBAL_UNCERTAINTY_ASSIGNED_CONTEXT((
#834))GLOBAL_UNIT_ASSIGNED_CONTEXT((#828,#832,#833))REPRESENTATION_CONTEXT
('ID1','3'));
#837=APPLICATION_CONTEXT(
'CONFIGURATION CONTROLLED 3D DESIGNS OF MECHANICAL PARTS AND ASSEMBLIES');
#838=APPLICATION_PROTOCOL_DEFINITION('international standard',
'config_control_design',1994,#837);
#839=DESIGN_CONTEXT('',#837,'design');
#840=MECHANICAL_CONTEXT('',#837,'mechanical');
#841=PRODUCT('T-DSC20-900X00_1_PRT','T-DSC20-900X00_1_PRT','NOT SPECIFIED',
(#840));
#842=PRODUCT_DEFINITION_FORMATION_WITH_SPECIFIED_SOURCE('1','LAST_VERSION',#841,
.MADE.);
#846=PRODUCT_CATEGORY('part','');
#847=PRODUCT_RELATED_PRODUCT_CATEGORY('detail','',(#841));
#848=PRODUCT_CATEGORY_RELATIONSHIP('','',#846,#847);
#849=SECURITY_CLASSIFICATION_LEVEL('unclassified');
#850=SECURITY_CLASSIFICATION('','',#849);
#851=CC_DESIGN_SECURITY_CLASSIFICATION(#850,(#842));
#852=APPROVAL_STATUS('approved');
#853=APPROVAL(#852,'');
#854=CC_DESIGN_APPROVAL(#853,(#850,#842,#843));
#855=CALENDAR_DATE(108,30,6);
#856=COORDINATED_UNIVERSAL_TIME_OFFSET(3,0,.BEHIND.);
#857=LOCAL_TIME(11,3,4.3E1,#856);
#858=DATE_AND_TIME(#855,#857);
#859=APPROVAL_DATE_TIME(#858,#853);
#860=DATE_TIME_ROLE('creation_date');
#861=CC_DESIGN_DATE_AND_TIME_ASSIGNMENT(#858,#860,(#843));
#862=DATE_TIME_ROLE('classification_date');
#863=CC_DESIGN_DATE_AND_TIME_ASSIGNMENT(#858,#862,(#850));
#864=PERSON('UNSPECIFIED','UNSPECIFIED',$,$,$,$);
#865=ORGANIZATION('UNSPECIFIED','UNSPECIFIED','UNSPECIFIED');
#866=PERSON_AND_ORGANIZATION(#864,#865);
#867=APPROVAL_ROLE('approver');
#868=APPROVAL_PERSON_ORGANIZATION(#866,#853,#867);
#869=PERSON_AND_ORGANIZATION_ROLE('creator');
#870=CC_DESIGN_PERSON_AND_ORGANIZATION_ASSIGNMENT(#866,#869,(#842,#843));
#871=PERSON_AND_ORGANIZATION_ROLE('design_supplier');
#872=CC_DESIGN_PERSON_AND_ORGANIZATION_ASSIGNMENT(#866,#871,(#842));
#873=PERSON_AND_ORGANIZATION_ROLE('classification_officer');
#874=CC_DESIGN_PERSON_AND_ORGANIZATION_ASSIGNMENT(#866,#873,(#850));
#875=PERSON_AND_ORGANIZATION_ROLE('design_owner');
#876=CC_DESIGN_PERSON_AND_ORGANIZATION_ASSIGNMENT(#866,#875,(#841));
#5=CIRCLE('',#4,2.E-1);
#22=CIRCLE('',#21,1.E-1);
#35=CIRCLE('',#34,1.E-1);
#40=CIRCLE('',#39,1.E-1);
#45=CIRCLE('',#44,1.E-1);
#50=CIRCLE('',#49,1.E-1);
#63=CIRCLE('',#62,1.E-1);
#80=CIRCLE('',#79,2.E-1);
#89=B_SPLINE_CURVE_WITH_KNOTS('',3,(#85,#86,#87,#88),.UNSPECIFIED.,.F.,.F.,(4,
4),(0.E0,1.E0),.UNSPECIFIED.);
#134=CIRCLE('',#133,2.E-1);
#147=CIRCLE('',#146,1.E-1);
#156=CIRCLE('',#155,1.E-1);
#165=CIRCLE('',#164,1.E-1);
#174=CIRCLE('',#173,1.E-1);
#183=CIRCLE('',#182,1.E-1);
#192=CIRCLE('',#191,1.E-1);
#205=CIRCLE('',#204,2.E-1);
#210=B_SPLINE_CURVE_WITH_KNOTS('',3,(#206,#207,#208,#209),.UNSPECIFIED.,.F.,.F.,
(4,4),(0.E0,1.E0),.UNSPECIFIED.);
#219=B_SPLINE_CURVE_WITH_KNOTS('',3,(#215,#216,#217,#218),.UNSPECIFIED.,.F.,.F.,
(4,4),(0.E0,1.E0),.UNSPECIFIED.);
#224=B_SPLINE_CURVE_WITH_KNOTS('',3,(#220,#221,#222,#223),.UNSPECIFIED.,.F.,.F.,
(4,4),(0.E0,1.E0),.UNSPECIFIED.);
#407=EDGE_CURVE('',#311,#312,#84,.T.);
#409=EDGE_CURVE('',#311,#314,#5,.T.);
#411=EDGE_CURVE('',#314,#316,#9,.T.);
#413=EDGE_CURVE('',#316,#318,#13,.T.);
#415=EDGE_CURVE('',#318,#320,#17,.T.);
#417=EDGE_CURVE('',#320,#322,#22,.T.);
#419=EDGE_CURVE('',#322,#324,#26,.T.);
#421=EDGE_CURVE('',#324,#326,#30,.T.);
#423=EDGE_CURVE('',#326,#328,#35,.T.);
#425=EDGE_CURVE('',#330,#328,#276,.T.);
#427=EDGE_CURVE('',#330,#332,#40,.T.);
#429=EDGE_CURVE('',#334,#332,#288,.T.);
#431=EDGE_CURVE('',#334,#336,#45,.T.);
#433=EDGE_CURVE('',#338,#336,#300,.T.);
#435=EDGE_CURVE('',#338,#340,#50,.T.);
#437=EDGE_CURVE('',#340,#342,#54,.T.);
#439=EDGE_CURVE('',#342,#344,#58,.T.);
#441=EDGE_CURVE('',#344,#346,#63,.T.);
#443=EDGE_CURVE('',#346,#348,#67,.T.);
#445=EDGE_CURVE('',#348,#350,#71,.T.);
#447=EDGE_CURVE('',#350,#352,#75,.T.);
#449=EDGE_CURVE('',#352,#312,#80,.T.);
#459=EDGE_CURVE('',#353,#312,#89,.T.);
#461=EDGE_CURVE('',#355,#353,#236,.T.);
#463=EDGE_CURVE('',#311,#355,#224,.T.);
#476=EDGE_CURVE('',#352,#357,#93,.T.);
#478=EDGE_CURVE('',#359,#357,#134,.T.);
#480=EDGE_CURVE('',#360,#359,#219,.T.);
#482=EDGE_CURVE('',#360,#353,#97,.T.);
#494=EDGE_CURVE('',#366,#350,#105,.T.);
#496=EDGE_CURVE('',#357,#366,#138,.T.);
#507=EDGE_CURVE('',#371,#348,#109,.T.);
#509=EDGE_CURVE('',#371,#366,#101,.T.);
#521=EDGE_CURVE('',#373,#346,#117,.T.);
#523=EDGE_CURVE('',#371,#373,#142,.T.);
#535=EDGE_CURVE('',#344,#375,#113,.T.);
#537=EDGE_CURVE('',#373,#375,#147,.T.);
#549=EDGE_CURVE('',#377,#342,#125,.T.);
#551=EDGE_CURVE('',#375,#377,#151,.T.);
#562=EDGE_CURVE('',#379,#377,#121,.T.);
#566=EDGE_CURVE('',#379,#340,#304,.T.);
#576=EDGE_CURVE('',#369,#359,#129,.T.);
#585=EDGE_CURVE('',#379,#381,#156,.T.);
#587=EDGE_CURVE('',#381,#383,#160,.T.);
#589=EDGE_CURVE('',#383,#385,#165,.T.);
#591=EDGE_CURVE('',#385,#387,#169,.T.);
#593=EDGE_CURVE('',#387,#389,#174,.T.);
#595=EDGE_CURVE('',#389,#391,#178,.T.);
#597=EDGE_CURVE('',#391,#393,#183,.T.);
#599=EDGE_CURVE('',#395,#393,#264,.T.);
#601=EDGE_CURVE('',#395,#397,#187,.T.);
#603=EDGE_CURVE('',#397,#399,#192,.T.);
#605=EDGE_CURVE('',#399,#401,#196,.T.);
#607=EDGE_CURVE('',#364,#401,#244,.T.);
#609=EDGE_CURVE('',#364,#362,#200,.T.);
#611=EDGE_CURVE('',#362,#369,#205,.T.);
#621=EDGE_CURVE('',#369,#368,#210,.T.);
#623=EDGE_CURVE('',#368,#360,#214,.T.);
#637=EDGE_CURVE('',#355,#368,#228,.T.);
#641=EDGE_CURVE('',#362,#314,#232,.T.);
#665=EDGE_CURVE('',#364,#316,#240,.T.);
#679=EDGE_CURVE('',#401,#318,#248,.T.);
#692=EDGE_CURVE('',#320,#399,#252,.T.);
#705=EDGE_CURVE('',#397,#322,#256,.T.);
#718=EDGE_CURVE('',#395,#324,#260,.T.);
#729=EDGE_CURVE('',#326,#393,#272,.T.);
#742=EDGE_CURVE('',#391,#328,#268,.T.);
#755=EDGE_CURVE('',#330,#389,#284,.T.);
#768=EDGE_CURVE('',#387,#332,#280,.T.);
#781=EDGE_CURVE('',#334,#385,#296,.T.);
#794=EDGE_CURVE('',#383,#336,#292,.T.);
#807=EDGE_CURVE('',#338,#381,#308,.T.);
#836=ADVANCED_BREP_SHAPE_REPRESENTATION('',(#827),#835);
#843=PRODUCT_DEFINITION('design','',#842,#839);
#844=PRODUCT_DEFINITION_SHAPE('','SHAPE FOR T-DSC20-900X00_1_PRT.',#843);
#845=SHAPE_DEFINITION_REPRESENTATION(#844,#836);
ENDSEC;
END-ISO-10303-21;
