ISO-10303-21;
HEADER;
FILE_DESCRIPTION((''),'2;1');
FILE_NAME('T-DSC20-200X00-2_1_PRT','2008-06-30T',('GRA'),(''),
'PRO/ENGINEER BY PARAMETRIC TECHNOLOGY CORPORATION, 2006170',
'PRO/ENGINEER BY PARAMETRIC TECHNOLOGY CORPORATION, 2006170','');
FILE_SCHEMA(('CONFIG_CONTROL_DESIGN'));
ENDSEC;
DATA;
#1=DIRECTION('',(7.369390416153E-1,-6.759592065673E-1,1.537078161806E-14));
#2=VECTOR('',#1,2.166883348315E-1);
#3=CARTESIAN_POINT('',(4.324159589626E-1,-4.676941473207E0,-2.5E-1));
#4=LINE('',#3,#2);
#5=CARTESIAN_POINT('',(5.921020527626E-1,-4.823413948092E0,-2.5E-1));
#6=CARTESIAN_POINT('',(6.100132237836E-1,-4.801336630583E0,-2.5E-1));
#7=CARTESIAN_POINT('',(6.444920025920E-1,-4.758187207254E0,-2.5E-1));
#8=CARTESIAN_POINT('',(6.917863000416E-1,-4.696588899073E0,-2.5E-1));
#9=CARTESIAN_POINT('',(7.205817609632E-1,-4.656922951499E0,-2.5E-1));
#10=CARTESIAN_POINT('',(7.341854711893E-1,-4.637432125749E0,-2.5E-1));
#12=DIRECTION('',(-3.925981575908E-2,9.992290362407E-1,0.E0));
#13=VECTOR('',#12,2.419952027887E0);
#14=CARTESIAN_POINT('',(9.531525626436E-2,-3.415582295610E0,-2.5E-1));
#15=LINE('',#14,#13);
#16=DIRECTION('',(7.369390416151E-1,-6.759592065676E-1,4.145126138138E-14));
#17=VECTOR('',#16,2.003764355096E-1);
#18=CARTESIAN_POINT('',(3.402380709482E-1,-4.863783939380E0,
-5.000000000001E-2));
#19=LINE('',#18,#17);
#20=CARTESIAN_POINT('',(5.921020527626E-1,-4.823413948092E0,-2.5E-1));
#21=CARTESIAN_POINT('',(5.786891205040E-1,-4.839946734466E0,-2.5E-1));
#22=CARTESIAN_POINT('',(5.536174916483E-1,-4.874256114509E0,
-2.431756852131E-1));
#23=CARTESIAN_POINT('',(5.232680868614E-1,-4.923094950011E0,
-2.140989449529E-1));
#24=CARTESIAN_POINT('',(5.013745968185E-1,-4.963563586082E0,
-1.692813932271E-1));
#25=CARTESIAN_POINT('',(4.887911377330E-1,-4.991046551451E0,
-1.127730961866E-1));
#26=CARTESIAN_POINT('',(4.870652499133E-1,-4.998461541992E0,
-7.094825466326E-2));
#27=CARTESIAN_POINT('',(4.879032892949E-1,-4.999230235742E0,
-5.000000000001E-2));
#29=CARTESIAN_POINT('',(4.879032892950E-1,-4.999230235742E0,5.000000000001E-2));
#30=CARTESIAN_POINT('',(4.870813019620E-1,-4.998476265775E0,7.054700573689E-2));
#31=CARTESIAN_POINT('',(4.886723693163E-1,-4.991355816004E0,1.117379661678E-1));
#32=CARTESIAN_POINT('',(5.011054182605E-1,-4.964146588992E0,1.682566959841E-1));
#33=CARTESIAN_POINT('',(5.223676141741E-1,-4.924593363423E0,2.130244199717E-1));
#34=CARTESIAN_POINT('',(5.541239868947E-1,-4.873434584725E0,2.437031528101E-1));
#35=CARTESIAN_POINT('',(5.790072464420E-1,-4.839554612291E0,2.5E-1));
#36=CARTESIAN_POINT('',(5.921020527626E-1,-4.823413948092E0,2.5E-1));
#38=CARTESIAN_POINT('',(4.879032892950E-1,-4.999230235742E0,5.000000000001E-2));
#39=CARTESIAN_POINT('',(4.881253467478E-1,-4.999433918504E0,4.444928702221E-2));
#40=CARTESIAN_POINT('',(4.884959569135E-1,-4.999773861620E0,3.334462500400E-2));
#41=CARTESIAN_POINT('',(4.888293075459E-1,-5.000079628334E0,1.667447618667E-2));
#42=CARTESIAN_POINT('',(4.889034310825E-1,-5.000147618336E0,5.558885746515E-3));
#43=CARTESIAN_POINT('',(4.889034310825E-1,-5.000147618336E0,0.E0));
#45=CARTESIAN_POINT('',(4.889034310825E-1,-5.000147618336E0,0.E0));
#46=CARTESIAN_POINT('',(4.889034310825E-1,-5.000147618336E0,
-5.558885746518E-3));
#47=CARTESIAN_POINT('',(4.888293075459E-1,-5.000079628334E0,
-1.667447618665E-2));
#48=CARTESIAN_POINT('',(4.884959569135E-1,-4.999773861620E0,
-3.334462500399E-2));
#49=CARTESIAN_POINT('',(4.881253467477E-1,-4.999433918504E0,
-4.444928702221E-2));
#50=CARTESIAN_POINT('',(4.879032892949E-1,-4.999230235742E0,
-5.000000000001E-2));
#52=CARTESIAN_POINT('',(3.402380709482E-1,-4.863783939380E0,
-5.000000000001E-2));
#53=CARTESIAN_POINT('',(3.392039884291E-1,-4.862835424565E0,
-7.023600658829E-2));
#54=CARTESIAN_POINT('',(3.399992030370E-1,-4.855204075650E0,
-1.110692647525E-1));
#55=CARTESIAN_POINT('',(3.502627609955E-1,-4.826390963550E0,
-1.678832588721E-1));
#56=CARTESIAN_POINT('',(3.693389356085E-1,-4.783285056534E0,
-2.134333852875E-1));
#57=CARTESIAN_POINT('',(3.966149257457E-1,-4.730997438599E0,
-2.430551230816E-1));
#58=CARTESIAN_POINT('',(4.197404407533E-1,-4.694458288221E0,-2.5E-1));
#59=CARTESIAN_POINT('',(4.324159589626E-1,-4.676941473207E0,-2.5E-1));
#61=CARTESIAN_POINT('',(4.324159589626E-1,-4.676941473207E0,-2.5E-1));
#62=CARTESIAN_POINT('',(4.450148724714E-1,-4.659530521350E0,-2.5E-1));
#63=CARTESIAN_POINT('',(4.682994040237E-1,-4.626298319191E0,-2.5E-1));
#64=CARTESIAN_POINT('',(4.972330940679E-1,-4.581649312391E0,-2.5E-1));
#65=CARTESIAN_POINT('',(5.210577724790E-1,-4.540999050094E0,-2.5E-1));
#66=CARTESIAN_POINT('',(5.402068216314E-1,-4.503745041333E0,-2.5E-1));
#67=CARTESIAN_POINT('',(5.552716948662E-1,-4.468820991683E0,-2.5E-1));
#68=CARTESIAN_POINT('',(5.665416886311E-1,-4.435468644454E0,-2.5E-1));
#69=CARTESIAN_POINT('',(5.741987382700E-1,-4.402358559080E0,-2.5E-1));
#70=CARTESIAN_POINT('',(5.778642930126E-1,-4.369636723702E0,-2.5E-1));
#71=CARTESIAN_POINT('',(5.773405745884E-1,-4.336825780033E0,-2.5E-1));
#72=CARTESIAN_POINT('',(5.725717450961E-1,-4.304367190292E0,-2.5E-1));
#73=CARTESIAN_POINT('',(5.637438891560E-1,-4.272028979528E0,-2.5E-1));
#74=CARTESIAN_POINT('',(5.511957347546E-1,-4.239799046183E0,-2.5E-1));
#75=CARTESIAN_POINT('',(5.349271519134E-1,-4.206821697033E0,-2.5E-1));
#76=CARTESIAN_POINT('',(5.145540283708E-1,-4.172076603061E0,-2.5E-1));
#77=CARTESIAN_POINT('',(4.892851914308E-1,-4.134322323267E0,-2.5E-1));
#78=CARTESIAN_POINT('',(4.582136685179E-1,-4.092512839584E0,-2.5E-1));
#79=CARTESIAN_POINT('',(4.210853214473E-1,-4.046496737458E0,-2.5E-1));
#80=CARTESIAN_POINT('',(3.774960706804E-1,-3.995804452977E0,-2.5E-1));
#81=CARTESIAN_POINT('',(3.270269670943E-1,-3.939937996741E0,-2.5E-1));
#82=CARTESIAN_POINT('',(2.695011056522E-1,-3.878635530022E0,-2.5E-1));
#83=CARTESIAN_POINT('',(2.044590526842E-1,-3.811320929010E0,-2.5E-1));
#84=CARTESIAN_POINT('',(1.315323772550E-1,-3.737531542879E0,-2.5E-1));
#85=CARTESIAN_POINT('',(5.043807770596E-2,-3.656894843608E0,-2.5E-1));
#86=CARTESIAN_POINT('',(-9.437493122934E-3,-3.598156047747E0,-2.5E-1));
#87=CARTESIAN_POINT('',(-4.078933972458E-2,-3.567567384913E0,-2.5E-1));
#89=DIRECTION('',(-6.759592065673E-1,-7.369390416153E-1,0.E0));
#90=VECTOR('',#89,3.681772675725E-1);
#91=CARTESIAN_POINT('',(5.903884364252E-1,-4.593631574314E0,0.E0));
#92=LINE('',#91,#90);
#93=CARTESIAN_POINT('',(3.415156227607E-1,-4.864955777023E0,0.E0));
#94=CARTESIAN_POINT('',(3.415156227607E-1,-4.864955777023E0,
-5.558831969653E-3));
#95=CARTESIAN_POINT('',(3.414208994791E-1,-4.864868891853E0,
-1.667437705230E-2));
#96=CARTESIAN_POINT('',(3.409946671583E-1,-4.864477929175E0,
-3.334672536290E-2));
#97=CARTESIAN_POINT('',(3.405216717418E-1,-4.864044072928E0,
-4.445020351730E-2));
#98=CARTESIAN_POINT('',(3.402380709482E-1,-4.863783939380E0,
-5.000000000001E-2));
#100=CARTESIAN_POINT('',(-1.045305509838E-1,-3.423434258762E0,2.5E-1));
#101=CARTESIAN_POINT('',(-1.038045368594E-1,-3.441912552146E0,2.5E-1));
#102=CARTESIAN_POINT('',(-9.781688266347E-2,-3.477244168942E0,2.5E-1));
#103=CARTESIAN_POINT('',(-7.567262806902E-2,-3.527154013079E0,2.5E-1));
#104=CARTESIAN_POINT('',(-5.377212028107E-2,-3.554900638289E0,2.5E-1));
#105=CARTESIAN_POINT('',(-4.078933972458E-2,-3.567567384913E0,2.5E-1));
#107=CARTESIAN_POINT('',(-9.243155189087E-3,-4.370471396584E0,0.E0));
#108=DIRECTION('',(-9.992290362407E-1,-3.925981575907E-2,0.E0));
#109=DIRECTION('',(-3.748730377875E-2,9.541155938169E-1,2.970827085020E-1));
#110=AXIS2_PLACEMENT_3D('',#107,#108,#109);
#112=CARTESIAN_POINT('',(-9.243155189085E-3,-4.370471396584E0,0.E0));
#113=DIRECTION('',(-9.992290362407E-1,-3.925981575907E-2,0.E0));
#114=DIRECTION('',(-3.925981575907E-2,9.992290362407E-1,0.E0));
#115=AXIS2_PLACEMENT_3D('',#112,#113,#114);
#117=CARTESIAN_POINT('',(-9.243155189087E-3,-4.370471396584E0,0.E0));
#118=DIRECTION('',(-9.992290362407E-1,-3.925981575907E-2,0.E0));
#119=DIRECTION('',(-3.925119528966E-2,9.990096306431E-1,-2.095475007443E-2));
#120=AXIS2_PLACEMENT_3D('',#117,#118,#119);
#122=CARTESIAN_POINT('',(-4.078933972458E-2,-3.567567384913E0,-2.5E-1));
#123=CARTESIAN_POINT('',(-5.376313899548E-2,-3.554909400948E0,-2.5E-1));
#124=CARTESIAN_POINT('',(-7.565640304414E-2,-3.527178913910E0,-2.5E-1));
#125=CARTESIAN_POINT('',(-9.780948599236E-2,-3.477272505561E0,-2.5E-1));
#126=CARTESIAN_POINT('',(-1.038040508293E-1,-3.441924922438E0,-2.5E-1));
#127=CARTESIAN_POINT('',(-1.045305509838E-1,-3.423434258762E0,-2.5E-1));
#129=CARTESIAN_POINT('',(-6.723184263634E-2,-4.372749778319E0,0.E0));
#130=DIRECTION('',(-9.992290362407E-1,-3.925981575907E-2,0.E0));
#131=DIRECTION('',(-3.796729232213E-2,9.663321180245E-1,2.544812810170E-1));
#132=AXIS2_PLACEMENT_3D('',#129,#130,#131);
#134=CARTESIAN_POINT('',(-6.723184263634E-2,-4.372749778319E0,0.E0));
#135=DIRECTION('',(-9.992290362407E-1,-3.925981575907E-2,0.E0));
#136=DIRECTION('',(-3.925119528966E-2,9.990096306431E-1,-2.095475007443E-2));
#137=AXIS2_PLACEMENT_3D('',#134,#135,#136);
#139=DIRECTION('',(-3.925981575908E-2,9.992290362407E-1,0.E0));
#140=VECTOR('',#139,2.419952027888E0);
#141=CARTESIAN_POINT('',(-1.045305509838E-1,-3.423434258762E0,-2.5E-1));
#142=LINE('',#141,#140);
#143=DIRECTION('',(0.E0,0.E0,-1.E0));
#144=VECTOR('',#143,5.E-1);
#145=CARTESIAN_POINT('',(-1.995374217444E-1,-1.005347926187E0,2.5E-1));
#146=LINE('',#145,#144);
#147=DIRECTION('',(0.E0,0.E0,1.E0));
#148=VECTOR('',#147,5.E-1);
#149=CARTESIAN_POINT('',(-2.E-1,-9.817920367321E-1,-2.5E-1));
#150=LINE('',#149,#148);
#151=DIRECTION('',(9.992290362408E-1,3.925981575779E-2,0.E0));
#152=VECTOR('',#151,2.E-1);
#153=CARTESIAN_POINT('',(-1.995374217444E-1,-1.005347926187E0,-2.5E-1));
#154=LINE('',#153,#152);
#155=CARTESIAN_POINT('',(4.E-1,-9.817920367321E-1,-2.5E-1));
#156=DIRECTION('',(0.E0,0.E0,-1.E0));
#157=DIRECTION('',(-9.992290362407E-1,-3.925981575900E-2,0.E0));
#158=AXIS2_PLACEMENT_3D('',#155,#156,#157);
#160=CARTESIAN_POINT('',(4.E-1,-9.817920367321E-1,-2.5E-1));
#161=DIRECTION('',(0.E0,0.E0,1.E0));
#162=DIRECTION('',(-1.E0,0.E0,0.E0));
#163=AXIS2_PLACEMENT_3D('',#160,#161,#162);
#165=DIRECTION('',(0.E0,0.E0,1.E0));
#166=VECTOR('',#165,5.E-1);
#167=CARTESIAN_POINT('',(3.083855037105E-4,-9.974959630357E-1,-2.5E-1));
#168=LINE('',#167,#166);
#169=DIRECTION('',(0.E0,0.E0,-1.E0));
#170=VECTOR('',#169,5.E-1);
#171=CARTESIAN_POINT('',(0.E0,-9.817920367321E-1,2.5E-1));
#172=LINE('',#171,#170);
#173=CARTESIAN_POINT('',(1.326139646118E-1,-4.364897815167E0,0.E0));
#174=DIRECTION('',(9.992290362407E-1,3.925981575907E-2,0.E0));
#175=DIRECTION('',(-3.796729232213E-2,9.663321180245E-1,-2.544812810169E-1));
#176=AXIS2_PLACEMENT_3D('',#173,#174,#175);
#178=CARTESIAN_POINT('',(1.326139646118E-1,-4.364897815167E0,0.E0));
#179=DIRECTION('',(9.992290362407E-1,3.925981575907E-2,0.E0));
#180=DIRECTION('',(-3.925981575907E-2,9.992290362407E-1,0.E0));
#181=AXIS2_PLACEMENT_3D('',#178,#179,#180);
#183=DIRECTION('',(-3.925981575908E-2,9.992290362407E-1,0.E0));
#184=VECTOR('',#183,2.419952027887E0);
#185=CARTESIAN_POINT('',(9.531525626436E-2,-3.415582295610E0,2.5E-1));
#186=LINE('',#185,#184);
#187=CARTESIAN_POINT('',(9.531525626436E-2,-3.415582295610E0,-2.5E-1));
#188=CARTESIAN_POINT('',(1.313281203711E-1,-3.450274604161E0,-2.5E-1));
#189=CARTESIAN_POINT('',(2.001147151442E-1,-3.516795407307E0,-2.5E-1));
#190=CARTESIAN_POINT('',(2.933282014198E-1,-3.607791493137E0,-2.5E-1));
#191=CARTESIAN_POINT('',(3.772275341800E-1,-3.690681870125E0,-2.5E-1));
#192=CARTESIAN_POINT('',(4.522118534189E-1,-3.765904058652E0,-2.5E-1));
#193=CARTESIAN_POINT('',(5.188000733615E-1,-3.834013402403E0,-2.5E-1));
#194=CARTESIAN_POINT('',(5.774946422396E-1,-3.895546746729E0,-2.5E-1));
#195=CARTESIAN_POINT('',(6.288788642936E-1,-3.951125109916E0,-2.5E-1));
#196=CARTESIAN_POINT('',(6.734601048023E-1,-4.001277446699E0,-2.5E-1));
#197=CARTESIAN_POINT('',(6.991458288796E-1,-4.031643193214E0,-2.5E-1));
#198=CARTESIAN_POINT('',(7.109482314359E-1,-4.046004880489E0,-2.5E-1));
#200=CARTESIAN_POINT('',(7.109482314359E-1,-4.046004880489E0,2.5E-1));
#201=CARTESIAN_POINT('',(6.993996495919E-1,-4.031952053522E0,2.5E-1));
#202=CARTESIAN_POINT('',(6.742302199477E-1,-4.002177656774E0,2.5E-1));
#203=CARTESIAN_POINT('',(6.304722269065E-1,-3.952890171543E0,2.5E-1));
#204=CARTESIAN_POINT('',(5.798286314644E-1,-3.898035303099E0,2.5E-1));
#205=CARTESIAN_POINT('',(5.217002996306E-1,-3.837016728970E0,2.5E-1));
#206=CARTESIAN_POINT('',(4.554016934543E-1,-3.769132918998E0,2.5E-1));
#207=CARTESIAN_POINT('',(3.803438913047E-1,-3.693780474166E0,2.5E-1));
#208=CARTESIAN_POINT('',(2.959304560058E-1,-3.610342486507E0,2.5E-1));
#209=CARTESIAN_POINT('',(2.017261129904E-1,-3.518356361890E0,2.5E-1));
#210=CARTESIAN_POINT('',(1.319227784178E-1,-3.450847456694E0,2.5E-1));
#211=CARTESIAN_POINT('',(9.531525626436E-2,-3.415582295610E0,2.5E-1));
#213=CARTESIAN_POINT('',(7.225668513125E-1,-4.341718503119E0,0.E0));
#214=DIRECTION('',(-9.992290362407E-1,-3.925981575907E-2,0.E0));
#215=DIRECTION('',(2.999099718646E-2,-7.633218504751E-1,-6.453218520050E-1));
#216=AXIS2_PLACEMENT_3D('',#213,#214,#215);
#218=CARTESIAN_POINT('',(3.324597718599E-1,-4.357045852015E0,0.E0));
#219=DIRECTION('',(0.E0,0.E0,1.E0));
#220=DIRECTION('',(9.992290362407E-1,3.925981575907E-2,0.E0));
#221=AXIS2_PLACEMENT_3D('',#218,#219,#220);
#223=CARTESIAN_POINT('',(7.225668513126E-1,-4.341718503119E0,0.E0));
#224=DIRECTION('',(-9.992290362407E-1,-3.925981575907E-2,0.E0));
#225=DIRECTION('',(-3.925981575907E-2,9.992290362407E-1,0.E0));
#226=AXIS2_PLACEMENT_3D('',#223,#224,#225);
#228=CARTESIAN_POINT('',(3.324597718599E-1,-4.357045852015E0,-2.5E-1));
#229=DIRECTION('',(0.E0,0.E0,-1.E0));
#230=DIRECTION('',(7.725863329109E-1,6.349097244485E-1,0.E0));
#231=AXIS2_PLACEMENT_3D('',#228,#229,#230);
#233=CARTESIAN_POINT('',(3.324597718599E-1,-4.357045852015E0,2.5E-1));
#234=DIRECTION('',(0.E0,0.E0,1.E0));
#235=DIRECTION('',(8.200191499330E-1,-5.723360846069E-1,0.E0));
#236=AXIS2_PLACEMENT_3D('',#233,#234,#235);
#238=CARTESIAN_POINT('',(7.225668513126E-1,-4.341718503119E0,0.E0));
#239=DIRECTION('',(-9.992290362407E-1,-3.925981575907E-2,0.E0));
#240=DIRECTION('',(-2.999099718645E-2,7.633218504748E-1,6.453218520053E-1));
#241=AXIS2_PLACEMENT_3D('',#238,#239,#240);
#243=CARTESIAN_POINT('',(3.324597718599E-1,-4.357045852015E0,0.E0));
#244=DIRECTION('',(0.E0,0.E0,-1.E0));
#245=DIRECTION('',(9.992290362407E-1,3.925981575907E-2,0.E0));
#246=AXIS2_PLACEMENT_3D('',#243,#244,#245);
#248=CARTESIAN_POINT('',(7.225668513125E-1,-4.341718503119E0,0.E0));
#249=DIRECTION('',(-9.992290362407E-1,-3.925981575907E-2,0.E0));
#250=DIRECTION('',(3.925981575907E-2,-9.992290362407E-1,0.E0));
#251=AXIS2_PLACEMENT_3D('',#248,#249,#250);
#253=DIRECTION('',(-7.369390416153E-1,6.759592065673E-1,1.537078161806E-14));
#254=VECTOR('',#253,2.166883348315E-1);
#255=CARTESIAN_POINT('',(5.921020527626E-1,-4.823413948092E0,2.5E-1));
#256=LINE('',#255,#254);
#257=DIRECTION('',(-3.925981575908E-2,9.992290362407E-1,0.E0));
#258=VECTOR('',#257,2.419952027888E0);
#259=CARTESIAN_POINT('',(-1.045305509838E-1,-3.423434258762E0,2.5E-1));
#260=LINE('',#259,#258);
#261=CARTESIAN_POINT('',(7.341854711893E-1,-4.637432125749E0,2.5E-1));
#262=CARTESIAN_POINT('',(7.201994067112E-1,-4.657470772643E0,2.5E-1));
#263=CARTESIAN_POINT('',(6.908548690584E-1,-4.697837970788E0,2.5E-1));
#264=CARTESIAN_POINT('',(6.435916962469E-1,-4.759325224796E0,2.5E-1));
#265=CARTESIAN_POINT('',(6.096217387849E-1,-4.801819175170E0,2.5E-1));
#266=CARTESIAN_POINT('',(5.921020527626E-1,-4.823413948092E0,2.5E-1));
#268=DIRECTION('',(-7.369390416151E-1,6.759592065676E-1,3.289782649316E-14));
#269=VECTOR('',#268,2.003764355096E-1);
#270=CARTESIAN_POINT('',(4.879032892950E-1,-4.999230235742E0,
5.000000000001E-2));
#271=LINE('',#270,#269);
#272=CARTESIAN_POINT('',(4.324159589627E-1,-4.676941473207E0,2.5E-1));
#273=CARTESIAN_POINT('',(4.199273748227E-1,-4.694199956415E0,2.5E-1));
#274=CARTESIAN_POINT('',(3.970478503605E-1,-4.730274118645E0,
2.432522750828E-1));
#275=CARTESIAN_POINT('',(3.698502671305E-1,-4.782228316741E0,
2.142207037940E-1));
#276=CARTESIAN_POINT('',(3.505834287241E-1,-4.825588163091E0,
1.690434015555E-1));
#277=CARTESIAN_POINT('',(3.400618909310E-1,-4.854931175851E0,
1.120587588168E-1));
#278=CARTESIAN_POINT('',(3.391840964733E-1,-4.862817178618E0,
7.062527315195E-2));
#279=CARTESIAN_POINT('',(3.402380709483E-1,-4.863783939380E0,
5.000000000001E-2));
#281=CARTESIAN_POINT('',(3.402380709483E-1,-4.863783939380E0,
5.000000000001E-2));
#282=CARTESIAN_POINT('',(3.405216717419E-1,-4.864044072928E0,
4.445020351673E-2));
#283=CARTESIAN_POINT('',(3.409946671583E-1,-4.864477929175E0,
3.334672536158E-2));
#284=CARTESIAN_POINT('',(3.414208994791E-1,-4.864868891853E0,
1.667437705124E-2));
#285=CARTESIAN_POINT('',(3.415156227607E-1,-4.864955777023E0,
5.558831969199E-3));
#286=CARTESIAN_POINT('',(3.415156227607E-1,-4.864955777023E0,0.E0));
#288=DIRECTION('',(-7.316950207353E-1,6.816321563946E-1,0.E0));
#289=VECTOR('',#288,8.382071040715E-1);
#290=CARTESIAN_POINT('',(5.710310265980E-1,-4.100952594758E0,0.E0));
#291=LINE('',#290,#289);
#292=CARTESIAN_POINT('',(-4.078933972458E-2,-3.567567384913E0,2.5E-1));
#293=CARTESIAN_POINT('',(-1.090199587260E-2,-3.596727194723E0,2.5E-1));
#294=CARTESIAN_POINT('',(4.631931968189E-2,-3.652847008058E0,2.5E-1));
#295=CARTESIAN_POINT('',(1.242820951445E-1,-3.730288753646E0,2.5E-1));
#296=CARTESIAN_POINT('',(1.948658503678E-1,-3.801548696277E0,2.5E-1));
#297=CARTESIAN_POINT('',(2.583657091308E-1,-3.867006970465E0,2.5E-1));
#298=CARTESIAN_POINT('',(3.150736600752E-1,-3.927051898957E0,2.5E-1));
#299=CARTESIAN_POINT('',(3.652443397377E-1,-3.982041486923E0,2.5E-1));
#300=CARTESIAN_POINT('',(4.091282937227E-1,-4.032330594464E0,2.5E-1));
#301=CARTESIAN_POINT('',(4.469426731379E-1,-4.078216657926E0,2.5E-1));
#302=CARTESIAN_POINT('',(4.790231718452E-1,-4.120108415085E0,2.5E-1));
#303=CARTESIAN_POINT('',(5.056942620091E-1,-4.158348520741E0,2.5E-1));
#304=CARTESIAN_POINT('',(5.274940968154E-1,-4.193560471414E0,2.5E-1));
#305=CARTESIAN_POINT('',(5.448661692388E-1,-4.226238440978E0,2.5E-1));
#306=CARTESIAN_POINT('',(5.584085389654E-1,-4.257359261724E0,2.5E-1));
#307=CARTESIAN_POINT('',(5.683231355784E-1,-4.287359081123E0,2.5E-1));
#308=CARTESIAN_POINT('',(5.748339071217E-1,-4.317120688160E0,2.5E-1));
#309=CARTESIAN_POINT('',(5.778360024927E-1,-4.346890454881E0,2.5E-1));
#310=CARTESIAN_POINT('',(5.773071791288E-1,-4.376737342670E0,2.5E-1));
#311=CARTESIAN_POINT('',(5.732479852790E-1,-4.407067235535E0,2.5E-1));
#312=CARTESIAN_POINT('',(5.658292984327E-1,-4.437680521623E0,2.5E-1));
#313=CARTESIAN_POINT('',(5.549180789280E-1,-4.469642364287E0,2.5E-1));
#314=CARTESIAN_POINT('',(5.403033289307E-1,-4.503497585019E0,2.5E-1));
#315=CARTESIAN_POINT('',(5.213771835441E-1,-4.540425194197E0,2.5E-1));
#316=CARTESIAN_POINT('',(4.973814926698E-1,-4.581429505154E0,2.5E-1));
#317=CARTESIAN_POINT('',(4.680976918893E-1,-4.626601265969E0,2.5E-1));
#318=CARTESIAN_POINT('',(4.449097409559E-1,-4.659675806874E0,2.5E-1));
#319=CARTESIAN_POINT('',(4.324159589627E-1,-4.676941473207E0,2.5E-1));
#321=CARTESIAN_POINT('',(3.324597718599E-1,-4.357045852015E0,0.E0));
#322=DIRECTION('',(0.E0,0.E0,1.E0));
#323=DIRECTION('',(9.992290362407E-1,3.925981575907E-2,0.E0));
#324=AXIS2_PLACEMENT_3D('',#321,#322,#323);
#326=CARTESIAN_POINT('',(5.807097315116E-1,-4.347292084536E0,0.E0));
#327=DIRECTION('',(9.992290362407E-1,3.925981575907E-2,0.E0));
#328=DIRECTION('',(-3.925981575907E-2,9.992290362407E-1,0.E0));
#329=AXIS2_PLACEMENT_3D('',#326,#327,#328);
#331=CARTESIAN_POINT('',(3.324597718599E-1,-4.357045852015E0,0.E0));
#332=DIRECTION('',(0.E0,0.E0,-1.E0));
#333=DIRECTION('',(9.992290362407E-1,3.925981575907E-2,0.E0));
#334=AXIS2_PLACEMENT_3D('',#331,#332,#333);
#336=CARTESIAN_POINT('',(5.807097315116E-1,-4.347292084536E0,0.E0));
#337=DIRECTION('',(9.992290362407E-1,3.925981575907E-2,0.E0));
#338=DIRECTION('',(3.925981575907E-2,-9.992290362407E-1,0.E0));
#339=AXIS2_PLACEMENT_3D('',#336,#337,#338);
#341=DIRECTION('',(-9.992290362408E-1,-3.925981575779E-2,0.E0));
#342=VECTOR('',#341,2.E-1);
#343=CARTESIAN_POINT('',(3.083855037105E-4,-9.974959630357E-1,2.5E-1));
#344=LINE('',#343,#342);
#345=CARTESIAN_POINT('',(4.E-1,-9.817920367321E-1,2.5E-1));
#346=DIRECTION('',(0.E0,0.E0,-1.E0));
#347=DIRECTION('',(-9.992290362407E-1,-3.925981575902E-2,0.E0));
#348=AXIS2_PLACEMENT_3D('',#345,#346,#347);
#350=DIRECTION('',(1.E0,0.E0,0.E0));
#351=VECTOR('',#350,2.E-1);
#352=CARTESIAN_POINT('',(-2.E-1,-9.817920367321E-1,2.5E-1));
#353=LINE('',#352,#351);
#354=CARTESIAN_POINT('',(4.E-1,-9.817920367321E-1,2.5E-1));
#355=DIRECTION('',(0.E0,0.E0,1.E0));
#356=DIRECTION('',(-1.E0,0.E0,0.E0));
#357=AXIS2_PLACEMENT_3D('',#354,#355,#356);
#359=DIRECTION('',(1.E0,0.E0,0.E0));
#360=VECTOR('',#359,2.E-1);
#361=CARTESIAN_POINT('',(-2.E-1,-6.E-1,3.E-1));
#362=LINE('',#361,#360);
#363=CARTESIAN_POINT('',(0.E0,1.2E0,1.E-1));
#364=DIRECTION('',(-1.E0,0.E0,0.E0));
#365=DIRECTION('',(0.E0,0.E0,1.E0));
#366=AXIS2_PLACEMENT_3D('',#363,#364,#365);
#368=DIRECTION('',(0.E0,0.E0,-1.E0));
#369=VECTOR('',#368,9.2E-1);
#370=CARTESIAN_POINT('',(0.E0,1.4E0,1.E-1));
#371=LINE('',#370,#369);
#372=CARTESIAN_POINT('',(0.E0,1.6E0,-8.2E-1));
#373=DIRECTION('',(1.E0,0.E0,0.E0));
#374=DIRECTION('',(0.E0,-1.E0,0.E0));
#375=AXIS2_PLACEMENT_3D('',#372,#373,#374);
#377=DIRECTION('',(0.E0,1.E0,0.E0));
#378=VECTOR('',#377,7.24E0);
#379=CARTESIAN_POINT('',(0.E0,1.6E0,-1.02E0));
#380=LINE('',#379,#378);
#381=DIRECTION('',(0.E0,-1.E0,0.E0));
#382=VECTOR('',#381,9.E-1);
#383=CARTESIAN_POINT('',(0.E0,1.6E0,-1.52E0));
#384=LINE('',#383,#382);
#385=CARTESIAN_POINT('',(0.E0,7.E-1,-1.32E0));
#386=DIRECTION('',(-1.E0,0.E0,0.E0));
#387=DIRECTION('',(0.E0,0.E0,-1.E0));
#388=AXIS2_PLACEMENT_3D('',#385,#386,#387);
#390=DIRECTION('',(0.E0,0.E0,1.E0));
#391=VECTOR('',#390,8.2E-1);
#392=CARTESIAN_POINT('',(0.E0,5.E-1,-1.32E0));
#393=LINE('',#392,#391);
#394=CARTESIAN_POINT('',(0.E0,3.E-1,-5.E-1));
#395=DIRECTION('',(1.E0,0.E0,0.E0));
#396=DIRECTION('',(0.E0,1.E0,0.E0));
#397=AXIS2_PLACEMENT_3D('',#394,#395,#396);
#399=DIRECTION('',(0.E0,-1.E0,0.E0));
#400=VECTOR('',#399,9.E-1);
#401=CARTESIAN_POINT('',(0.E0,3.E-1,-3.E-1));
#402=LINE('',#401,#400);
#403=DIRECTION('',(0.E0,-9.905522003890E-1,1.371362034787E-1));
#404=VECTOR('',#403,3.646010224263E-1);
#405=CARTESIAN_POINT('',(0.E0,-6.E-1,-3.E-1));
#406=LINE('',#405,#404);
#407=DIRECTION('',(0.E0,-1.E0,9.146187920245E-14));
#408=VECTOR('',#407,2.063569170370E-2);
#409=CARTESIAN_POINT('',(0.E0,-9.611563450284E-1,-2.5E-1));
#410=LINE('',#409,#408);
#411=DIRECTION('',(0.E0,9.915333165276E-1,1.298525402749E-1));
#412=VECTOR('',#411,3.850521514185E-1);
#413=CARTESIAN_POINT('',(0.E0,-9.817920367321E-1,2.5E-1));
#414=LINE('',#413,#412);
#415=DIRECTION('',(0.E0,1.E0,0.E0));
#416=VECTOR('',#415,1.8E0);
#417=CARTESIAN_POINT('',(0.E0,-6.E-1,3.E-1));
#418=LINE('',#417,#416);
#419=DIRECTION('',(-1.E0,0.E0,0.E0));
#420=VECTOR('',#419,2.E-1);
#421=CARTESIAN_POINT('',(0.E0,1.2E0,3.E-1));
#422=LINE('',#421,#420);
#423=DIRECTION('',(1.E0,0.E0,0.E0));
#424=VECTOR('',#423,2.E-1);
#425=CARTESIAN_POINT('',(-2.E-1,1.4E0,1.E-1));
#426=LINE('',#425,#424);
#427=DIRECTION('',(0.E0,1.E0,0.E0));
#428=VECTOR('',#427,1.8E0);
#429=CARTESIAN_POINT('',(-2.E-1,-6.E-1,3.E-1));
#430=LINE('',#429,#428);
#431=CARTESIAN_POINT('',(-2.E-1,1.2E0,1.E-1));
#432=DIRECTION('',(1.E0,0.E0,0.E0));
#433=DIRECTION('',(0.E0,1.E0,0.E0));
#434=AXIS2_PLACEMENT_3D('',#431,#432,#433);
#436=DIRECTION('',(0.E0,-9.915333165276E-1,-1.298525402749E-1));
#437=VECTOR('',#436,3.850521514185E-1);
#438=CARTESIAN_POINT('',(-2.E-1,-6.E-1,3.E-1));
#439=LINE('',#438,#437);
#440=DIRECTION('',(0.E0,9.905522003890E-1,-1.371362034787E-1));
#441=VECTOR('',#440,3.646010224263E-1);
#442=CARTESIAN_POINT('',(-2.E-1,-9.611563450284E-1,-2.5E-1));
#443=LINE('',#442,#441);
#444=CARTESIAN_POINT('',(-2.E-1,3.E-1,-5.E-1));
#445=DIRECTION('',(-1.E0,0.E0,0.E0));
#446=DIRECTION('',(0.E0,0.E0,1.E0));
#447=AXIS2_PLACEMENT_3D('',#444,#445,#446);
#449=CARTESIAN_POINT('',(-2.E-1,7.E-1,-1.32E0));
#450=DIRECTION('',(1.E0,0.E0,0.E0));
#451=DIRECTION('',(0.E0,-1.E0,0.E0));
#452=AXIS2_PLACEMENT_3D('',#449,#450,#451);
#454=DIRECTION('',(0.E0,1.E0,0.E0));
#455=VECTOR('',#454,7.24E0);
#456=CARTESIAN_POINT('',(-2.E-1,1.6E0,-1.52E0));
#457=LINE('',#456,#455);
#458=DIRECTION('',(0.E0,-1.E0,0.E0));
#459=VECTOR('',#458,7.24E0);
#460=CARTESIAN_POINT('',(-2.E-1,8.84E0,-1.02E0));
#461=LINE('',#460,#459);
#462=CARTESIAN_POINT('',(-2.E-1,1.6E0,-8.2E-1));
#463=DIRECTION('',(-1.E0,0.E0,0.E0));
#464=DIRECTION('',(0.E0,0.E0,-1.E0));
#465=AXIS2_PLACEMENT_3D('',#462,#463,#464);
#467=DIRECTION('',(0.E0,0.E0,1.E0));
#468=VECTOR('',#467,9.2E-1);
#469=CARTESIAN_POINT('',(-2.E-1,1.4E0,-8.2E-1));
#470=LINE('',#469,#468);
#471=DIRECTION('',(0.E0,-1.E0,9.146187920245E-14));
#472=VECTOR('',#471,2.063569170370E-2);
#473=CARTESIAN_POINT('',(-2.E-1,-9.611563450284E-1,-2.5E-1));
#474=LINE('',#473,#472);
#475=DIRECTION('',(1.E0,0.E0,0.E0));
#476=VECTOR('',#475,2.E-1);
#477=CARTESIAN_POINT('',(-2.E-1,-9.817920367321E-1,-2.5E-1));
#478=LINE('',#477,#476);
#479=DIRECTION('',(1.E0,0.E0,0.E0));
#480=VECTOR('',#479,2.E-1);
#481=CARTESIAN_POINT('',(-2.E-1,-9.611563450284E-1,-2.5E-1));
#482=LINE('',#481,#480);
#483=DIRECTION('',(0.E0,-1.E0,0.E0));
#484=VECTOR('',#483,9.E-1);
#485=CARTESIAN_POINT('',(-2.E-1,3.E-1,-3.E-1));
#486=LINE('',#485,#484);
#487=DIRECTION('',(1.E0,0.E0,0.E0));
#488=VECTOR('',#487,2.E-1);
#489=CARTESIAN_POINT('',(-2.E-1,-6.E-1,-3.E-1));
#490=LINE('',#489,#488);
#491=DIRECTION('',(1.E0,0.E0,0.E0));
#492=VECTOR('',#491,2.E-1);
#493=CARTESIAN_POINT('',(-2.E-1,3.E-1,-3.E-1));
#494=LINE('',#493,#492);
#495=DIRECTION('',(-1.E0,0.E0,0.E0));
#496=VECTOR('',#495,2.E-1);
#497=CARTESIAN_POINT('',(0.E0,5.E-1,-5.E-1));
#498=LINE('',#497,#496);
#499=DIRECTION('',(0.E0,0.E0,1.E0));
#500=VECTOR('',#499,8.2E-1);
#501=CARTESIAN_POINT('',(-2.E-1,5.E-1,-1.32E0));
#502=LINE('',#501,#500);
#503=DIRECTION('',(-1.E0,0.E0,0.E0));
#504=VECTOR('',#503,2.E-1);
#505=CARTESIAN_POINT('',(0.E0,7.E-1,-1.52E0));
#506=LINE('',#505,#504);
#507=DIRECTION('',(1.E0,0.E0,0.E0));
#508=VECTOR('',#507,2.E-1);
#509=CARTESIAN_POINT('',(-2.E-1,5.E-1,-1.32E0));
#510=LINE('',#509,#508);
#511=DIRECTION('',(0.E0,-1.E0,0.E0));
#512=VECTOR('',#511,9.E-1);
#513=CARTESIAN_POINT('',(-2.E-1,1.6E0,-1.52E0));
#514=LINE('',#513,#512);
#515=DIRECTION('',(0.E0,1.E0,0.E0));
#516=VECTOR('',#515,7.24E0);
#517=CARTESIAN_POINT('',(0.E0,1.6E0,-1.52E0));
#518=LINE('',#517,#516);
#519=DIRECTION('',(1.E0,0.E0,0.E0));
#520=VECTOR('',#519,2.E-1);
#521=CARTESIAN_POINT('',(-2.E-1,1.6E0,-1.52E0));
#522=LINE('',#521,#520);
#523=CARTESIAN_POINT('',(-4.E-1,8.84E0,-1.52E0));
#524=DIRECTION('',(0.E0,0.E0,1.E0));
#525=DIRECTION('',(1.E0,0.E0,0.E0));
#526=AXIS2_PLACEMENT_3D('',#523,#524,#525);
#528=DIRECTION('',(-7.987220447271E-2,-9.968051118211E-1,0.E0));
#529=VECTOR('',#528,1.999999999999E-1);
#530=CARTESIAN_POINT('',(-3.680511182109E-1,9.238722044729E0,-1.52E0));
#531=LINE('',#530,#529);
#532=CARTESIAN_POINT('',(-4.E-1,8.84E0,-1.52E0));
#533=DIRECTION('',(0.E0,0.E0,-1.E0));
#534=DIRECTION('',(7.987220447283E-2,9.968051118211E-1,0.E0));
#535=AXIS2_PLACEMENT_3D('',#532,#533,#534);
#537=DIRECTION('',(1.E0,0.E0,0.E0));
#538=VECTOR('',#537,2.E-1);
#539=CARTESIAN_POINT('',(-2.E-1,8.84E0,-1.52E0));
#540=LINE('',#539,#538);
#541=DIRECTION('',(0.E0,0.E0,1.E0));
#542=VECTOR('',#541,5.E-1);
#543=CARTESIAN_POINT('',(0.E0,8.84E0,-1.52E0));
#544=LINE('',#543,#542);
#545=DIRECTION('',(-4.984901380567E-14,0.E0,-1.E0));
#546=VECTOR('',#545,5.E-1);
#547=CARTESIAN_POINT('',(-3.680511182108E-1,9.238722044729E0,-1.02E0));
#548=LINE('',#547,#546);
#549=CARTESIAN_POINT('',(-4.E-1,8.84E0,-1.02E0));
#550=DIRECTION('',(0.E0,0.E0,1.E0));
#551=DIRECTION('',(1.E0,0.E0,0.E0));
#552=AXIS2_PLACEMENT_3D('',#549,#550,#551);
#554=CARTESIAN_POINT('',(-4.E-1,8.84E0,-1.02E0));
#555=DIRECTION('',(0.E0,0.E0,-1.E0));
#556=DIRECTION('',(7.987220447296E-2,9.968051118211E-1,0.E0));
#557=AXIS2_PLACEMENT_3D('',#554,#555,#556);
#559=DIRECTION('',(-1.E0,0.E0,0.E0));
#560=VECTOR('',#559,2.E-1);
#561=CARTESIAN_POINT('',(0.E0,8.84E0,-1.02E0));
#562=LINE('',#561,#560);
#563=DIRECTION('',(4.940492459582E-14,-1.421085471520E-14,1.E0));
#564=VECTOR('',#563,5.E-1);
#565=CARTESIAN_POINT('',(-3.840255591054E-1,9.039361022364E0,-1.52E0));
#566=LINE('',#565,#564);
#567=DIRECTION('',(0.E0,0.E0,-1.E0));
#568=VECTOR('',#567,5.E-1);
#569=CARTESIAN_POINT('',(-2.E-1,8.84E0,-1.02E0));
#570=LINE('',#569,#568);
#571=DIRECTION('',(-9.968051118211E-1,7.987220447287E-2,0.E0));
#572=VECTOR('',#571,6.500000000002E-1);
#573=CARTESIAN_POINT('',(-3.840255591054E-1,9.039361022364E0,-1.52E0));
#574=LINE('',#573,#572);
#575=DIRECTION('',(-9.968051118211E-1,7.987220447285E-2,0.E0));
#576=VECTOR('',#575,6.500000000004E-1);
#577=CARTESIAN_POINT('',(-3.680511182109E-1,9.238722044729E0,-1.52E0));
#578=LINE('',#577,#576);
#579=DIRECTION('',(-9.968051118211E-1,7.987220447281E-2,0.E0));
#580=VECTOR('',#579,6.500000000002E-1);
#581=CARTESIAN_POINT('',(-3.680511182108E-1,9.238722044729E0,-1.02E0));
#582=LINE('',#581,#580);
#583=DIRECTION('',(-9.968051118211E-1,7.987220447285E-2,0.E0));
#584=VECTOR('',#583,6.499999999999E-1);
#585=CARTESIAN_POINT('',(-3.840255591054E-1,9.039361022364E0,-1.02E0));
#586=LINE('',#585,#584);
#587=DIRECTION('',(-7.987220447271E-2,-9.968051118211E-1,0.E0));
#588=VECTOR('',#587,1.999999999999E-1);
#589=CARTESIAN_POINT('',(-3.680511182108E-1,9.238722044729E0,-1.02E0));
#590=LINE('',#589,#588);
#591=CARTESIAN_POINT('',(-1.E0,9.49E0,-1.02E0));
#592=DIRECTION('',(0.E0,0.E0,-1.E0));
#593=DIRECTION('',(-7.987220447259E-2,-9.968051118211E-1,0.E0));
#594=AXIS2_PLACEMENT_3D('',#591,#592,#593);
#596=CARTESIAN_POINT('',(-1.E0,9.49E0,-1.02E0));
#597=DIRECTION('',(0.E0,0.E0,1.E0));
#598=DIRECTION('',(-1.E0,0.E0,0.E0));
#599=AXIS2_PLACEMENT_3D('',#596,#597,#598);
#601=DIRECTION('',(-7.987220447147E-2,-9.968051118212E-1,0.E0));
#602=VECTOR('',#601,1.999999999998E-1);
#603=CARTESIAN_POINT('',(-1.015974440895E0,9.290638977636E0,-1.02E0));
#604=LINE('',#603,#602);
#605=DIRECTION('',(0.E0,0.E0,1.E0));
#606=VECTOR('',#605,5.E-1);
#607=CARTESIAN_POINT('',(-1.4E0,9.49E0,-1.52E0));
#608=LINE('',#607,#606);
#609=DIRECTION('',(-5.444533712762E-13,7.815970093361E-14,-1.E0));
#610=VECTOR('',#609,5.E-1);
#611=CARTESIAN_POINT('',(-1.031948881789E0,9.091277955272E0,-1.02E0));
#612=LINE('',#611,#610);
#613=DIRECTION('',(0.E0,1.E0,0.E0));
#614=VECTOR('',#613,1.2E0);
#615=CARTESIAN_POINT('',(-1.4E0,9.49E0,-1.52E0));
#616=LINE('',#615,#614);
#617=DIRECTION('',(0.E0,0.E0,1.E0));
#618=VECTOR('',#617,5.E-1);
#619=CARTESIAN_POINT('',(-1.4E0,1.069E1,-1.52E0));
#620=LINE('',#619,#618);
#621=DIRECTION('',(0.E0,1.E0,0.E0));
#622=VECTOR('',#621,1.2E0);
#623=CARTESIAN_POINT('',(-1.2E0,9.49E0,-1.52E0));
#624=LINE('',#623,#622);
#625=DIRECTION('',(1.E0,0.E0,0.E0));
#626=VECTOR('',#625,2.E-1);
#627=CARTESIAN_POINT('',(-1.4E0,9.49E0,-1.52E0));
#628=LINE('',#627,#626);
#629=DIRECTION('',(0.E0,1.E0,0.E0));
#630=VECTOR('',#629,1.2E0);
#631=CARTESIAN_POINT('',(-1.2E0,9.49E0,-1.02E0));
#632=LINE('',#631,#630);
#633=DIRECTION('',(0.E0,0.E0,-1.E0));
#634=VECTOR('',#633,5.E-1);
#635=CARTESIAN_POINT('',(-1.2E0,9.49E0,-1.02E0));
#636=LINE('',#635,#634);
#637=DIRECTION('',(5.440092820663E-13,-8.881784197001E-14,1.E0));
#638=VECTOR('',#637,5.E-1);
#639=CARTESIAN_POINT('',(-1.015974440895E0,9.290638977636E0,-1.52E0));
#640=LINE('',#639,#638);
#641=CARTESIAN_POINT('',(-1.E0,9.49E0,-1.52E0));
#642=DIRECTION('',(0.E0,0.E0,-1.E0));
#643=DIRECTION('',(-7.987220447507E-2,-9.968051118209E-1,0.E0));
#644=AXIS2_PLACEMENT_3D('',#641,#642,#643);
#646=CARTESIAN_POINT('',(-1.E0,9.49E0,-1.52E0));
#647=DIRECTION('',(0.E0,0.E0,1.E0));
#648=DIRECTION('',(-1.E0,0.E0,0.E0));
#649=AXIS2_PLACEMENT_3D('',#646,#647,#648);
#651=DIRECTION('',(7.987220447147E-2,9.968051118212E-1,0.E0));
#652=VECTOR('',#651,1.999999999999E-1);
#653=CARTESIAN_POINT('',(-1.031948881789E0,9.091277955272E0,-1.52E0));
#654=LINE('',#653,#652);
#655=DIRECTION('',(1.E0,0.E0,0.E0));
#656=VECTOR('',#655,2.E-1);
#657=CARTESIAN_POINT('',(-1.4E0,1.069E1,-1.02E0));
#658=LINE('',#657,#656);
#659=DIRECTION('',(-1.E0,0.E0,0.E0));
#660=VECTOR('',#659,2.E-1);
#661=CARTESIAN_POINT('',(-1.2E0,9.49E0,-1.02E0));
#662=LINE('',#661,#660);
#663=DIRECTION('',(0.E0,1.E0,0.E0));
#664=VECTOR('',#663,1.2E0);
#665=CARTESIAN_POINT('',(-1.4E0,9.49E0,-1.02E0));
#666=LINE('',#665,#664);
#667=DIRECTION('',(0.E0,0.E0,1.E0));
#668=VECTOR('',#667,5.E-1);
#669=CARTESIAN_POINT('',(-1.2E0,1.069E1,-1.52E0));
#670=LINE('',#669,#668);
#671=DIRECTION('',(1.E0,0.E0,0.E0));
#672=VECTOR('',#671,2.E-1);
#673=CARTESIAN_POINT('',(-1.4E0,1.069E1,-1.52E0));
#674=LINE('',#673,#672);
#675=DIRECTION('',(1.E0,0.E0,0.E0));
#676=VECTOR('',#675,2.E-1);
#677=CARTESIAN_POINT('',(-2.E-1,1.6E0,-1.02E0));
#678=LINE('',#677,#676);
#679=DIRECTION('',(-1.E0,0.E0,0.E0));
#680=VECTOR('',#679,2.E-1);
#681=CARTESIAN_POINT('',(0.E0,1.4E0,-8.2E-1));
#682=LINE('',#681,#680);
#683=CARTESIAN_POINT('',(4.324159589626E-1,-4.676941473207E0,-2.5E-1));
#684=CARTESIAN_POINT('',(5.921020527626E-1,-4.823413948092E0,-2.5E-1));
#685=VERTEX_POINT('',#683);
#686=VERTEX_POINT('',#684);
#687=VERTEX_POINT('',#10);
#688=CARTESIAN_POINT('',(7.109482314359E-1,-4.046004880489E0,-2.5E-1));
#689=VERTEX_POINT('',#688);
#690=VERTEX_POINT('',#187);
#691=CARTESIAN_POINT('',(3.083855037105E-4,-9.974959630357E-1,-2.5E-1));
#692=VERTEX_POINT('',#691);
#693=CARTESIAN_POINT('',(-1.995374217444E-1,-1.005347926187E0,-2.5E-1));
#694=VERTEX_POINT('',#693);
#695=CARTESIAN_POINT('',(-1.045305509838E-1,-3.423434258762E0,-2.5E-1));
#696=VERTEX_POINT('',#695);
#697=VERTEX_POINT('',#122);
#698=VERTEX_POINT('',#27);
#699=VERTEX_POINT('',#52);
#700=CARTESIAN_POINT('',(9.404549348284E-2,-3.383264674757E0,0.E0));
#701=CARTESIAN_POINT('',(9.531525626439E-2,-3.415582295610E0,2.5E-1));
#702=VERTEX_POINT('',#700);
#703=VERTEX_POINT('',#701);
#704=CARTESIAN_POINT('',(7.073574578770E-1,-3.954613590611E0,0.E0));
#705=VERTEX_POINT('',#704);
#706=CARTESIAN_POINT('',(7.109482314359E-1,-4.046004880489E0,2.5E-1));
#707=VERTEX_POINT('',#706);
#708=VERTEX_POINT('',#45);
#709=VERTEX_POINT('',#38);
#710=VERTEX_POINT('',#36);
#711=VERTEX_POINT('',#261);
#712=CARTESIAN_POINT('',(7.377762447482E-1,-4.728823415627E0,0.E0));
#713=VERTEX_POINT('',#712);
#714=CARTESIAN_POINT('',(3.083855037105E-4,-9.974959630357E-1,2.5E-1));
#715=VERTEX_POINT('',#714);
#716=CARTESIAN_POINT('',(0.E0,-9.817920367321E-1,2.5E-1));
#717=VERTEX_POINT('',#716);
#718=CARTESIAN_POINT('',(0.E0,-9.817920367321E-1,-2.5E-1));
#719=VERTEX_POINT('',#718);
#720=CARTESIAN_POINT('',(-1.995374217444E-1,-1.005347926187E0,2.5E-1));
#721=VERTEX_POINT('',#720);
#722=CARTESIAN_POINT('',(-2.E-1,-9.817920367321E-1,2.5E-1));
#723=VERTEX_POINT('',#722);
#724=CARTESIAN_POINT('',(4.324159589627E-1,-4.676941473207E0,2.5E-1));
#725=VERTEX_POINT('',#724);
#726=VERTEX_POINT('',#292);
#727=VERTEX_POINT('',#100);
#728=CARTESIAN_POINT('',(3.402380709483E-1,-4.863783939380E0,
5.000000000001E-2));
#729=VERTEX_POINT('',#728);
#730=VERTEX_POINT('',#93);
#731=CARTESIAN_POINT('',(-4.227368352880E-2,-3.529788312334E0,
-1.763376786559E-2));
#732=VERTEX_POINT('',#731);
#733=CARTESIAN_POINT('',(-4.228093779601E-2,-3.529603678904E0,0.E0));
#734=VERTEX_POINT('',#733);
#735=CARTESIAN_POINT('',(5.710310265980E-1,-4.100952594758E0,0.E0));
#736=VERTEX_POINT('',#735);
#737=CARTESIAN_POINT('',(5.903884364252E-1,-4.593631574314E0,0.E0));
#738=VERTEX_POINT('',#737);
#739=CARTESIAN_POINT('',(-1.057918450978E-1,-3.391332179890E0,
-2.058574798773E-2));
#740=VERTEX_POINT('',#739);
#741=CARTESIAN_POINT('',(-2.E-1,-9.817920367321E-1,-2.5E-1));
#742=VERTEX_POINT('',#741);
#743=CARTESIAN_POINT('',(0.E0,-9.611563450284E-1,-2.5E-1));
#744=VERTEX_POINT('',#743);
#745=CARTESIAN_POINT('',(-2.E-1,-9.611563450284E-1,-2.5E-1));
#746=VERTEX_POINT('',#745);
#747=CARTESIAN_POINT('',(0.E0,1.2E0,3.E-1));
#748=CARTESIAN_POINT('',(0.E0,1.4E0,1.E-1));
#749=VERTEX_POINT('',#747);
#750=VERTEX_POINT('',#748);
#751=CARTESIAN_POINT('',(0.E0,1.4E0,-8.2E-1));
#752=VERTEX_POINT('',#751);
#753=CARTESIAN_POINT('',(0.E0,1.6E0,-1.02E0));
#754=VERTEX_POINT('',#753);
#755=CARTESIAN_POINT('',(0.E0,8.84E0,-1.02E0));
#756=VERTEX_POINT('',#755);
#757=CARTESIAN_POINT('',(0.E0,8.84E0,-1.52E0));
#758=VERTEX_POINT('',#757);
#759=CARTESIAN_POINT('',(0.E0,1.6E0,-1.52E0));
#760=VERTEX_POINT('',#759);
#761=CARTESIAN_POINT('',(0.E0,7.E-1,-1.52E0));
#762=VERTEX_POINT('',#761);
#763=CARTESIAN_POINT('',(0.E0,5.E-1,-1.32E0));
#764=VERTEX_POINT('',#763);
#765=CARTESIAN_POINT('',(0.E0,5.E-1,-5.E-1));
#766=VERTEX_POINT('',#765);
#767=CARTESIAN_POINT('',(0.E0,3.E-1,-3.E-1));
#768=VERTEX_POINT('',#767);
#769=CARTESIAN_POINT('',(0.E0,-6.E-1,-3.E-1));
#770=VERTEX_POINT('',#769);
#771=CARTESIAN_POINT('',(0.E0,-6.E-1,3.E-1));
#772=VERTEX_POINT('',#771);
#773=CARTESIAN_POINT('',(-2.E-1,1.2E0,3.E-1));
#774=VERTEX_POINT('',#773);
#775=CARTESIAN_POINT('',(-2.E-1,1.4E0,1.E-1));
#776=VERTEX_POINT('',#775);
#777=CARTESIAN_POINT('',(-2.E-1,-6.E-1,3.E-1));
#778=VERTEX_POINT('',#777);
#779=CARTESIAN_POINT('',(-2.E-1,-6.E-1,-3.E-1));
#780=VERTEX_POINT('',#779);
#781=CARTESIAN_POINT('',(-2.E-1,3.E-1,-3.E-1));
#782=VERTEX_POINT('',#781);
#783=CARTESIAN_POINT('',(-2.E-1,5.E-1,-5.E-1));
#784=VERTEX_POINT('',#783);
#785=CARTESIAN_POINT('',(-2.E-1,5.E-1,-1.32E0));
#786=VERTEX_POINT('',#785);
#787=CARTESIAN_POINT('',(-2.E-1,7.E-1,-1.52E0));
#788=VERTEX_POINT('',#787);
#789=CARTESIAN_POINT('',(-2.E-1,1.6E0,-1.52E0));
#790=VERTEX_POINT('',#789);
#791=CARTESIAN_POINT('',(-2.E-1,8.84E0,-1.52E0));
#792=VERTEX_POINT('',#791);
#793=CARTESIAN_POINT('',(-2.E-1,8.84E0,-1.02E0));
#794=VERTEX_POINT('',#793);
#795=CARTESIAN_POINT('',(-2.E-1,1.6E0,-1.02E0));
#796=VERTEX_POINT('',#795);
#797=CARTESIAN_POINT('',(-2.E-1,1.4E0,-8.2E-1));
#798=VERTEX_POINT('',#797);
#799=CARTESIAN_POINT('',(-3.680511182109E-1,9.238722044728E0,-1.52E0));
#800=VERTEX_POINT('',#799);
#801=CARTESIAN_POINT('',(-3.840255591054E-1,9.039361022364E0,-1.52E0));
#802=VERTEX_POINT('',#801);
#803=CARTESIAN_POINT('',(-3.680511182108E-1,9.238722044728E0,-1.02E0));
#804=VERTEX_POINT('',#803);
#805=CARTESIAN_POINT('',(-3.840255591054E-1,9.039361022364E0,-1.02E0));
#806=VERTEX_POINT('',#805);
#807=CARTESIAN_POINT('',(-1.031948881789E0,9.091277955272E0,-1.52E0));
#808=VERTEX_POINT('',#807);
#809=CARTESIAN_POINT('',(-1.031948881789E0,9.091277955272E0,-1.02E0));
#810=VERTEX_POINT('',#809);
#811=CARTESIAN_POINT('',(-1.015974440895E0,9.290638977636E0,-1.52E0));
#812=VERTEX_POINT('',#811);
#813=CARTESIAN_POINT('',(-1.015974440895E0,9.290638977636E0,-1.02E0));
#814=VERTEX_POINT('',#813);
#815=CARTESIAN_POINT('',(-1.4E0,9.49E0,-1.02E0));
#816=VERTEX_POINT('',#815);
#817=CARTESIAN_POINT('',(-1.2E0,9.49E0,-1.02E0));
#818=VERTEX_POINT('',#817);
#819=CARTESIAN_POINT('',(-1.4E0,9.49E0,-1.52E0));
#820=VERTEX_POINT('',#819);
#821=CARTESIAN_POINT('',(-1.4E0,1.069E1,-1.52E0));
#822=VERTEX_POINT('',#821);
#823=CARTESIAN_POINT('',(-1.4E0,1.069E1,-1.02E0));
#824=VERTEX_POINT('',#823);
#825=CARTESIAN_POINT('',(-1.2E0,9.49E0,-1.52E0));
#826=CARTESIAN_POINT('',(-1.2E0,1.069E1,-1.52E0));
#827=VERTEX_POINT('',#825);
#828=VERTEX_POINT('',#826);
#829=CARTESIAN_POINT('',(-1.2E0,1.069E1,-1.02E0));
#830=VERTEX_POINT('',#829);
#831=CARTESIAN_POINT('',(6.821899345442E-1,-4.343304916499E0,0.E0));
#832=VERTEX_POINT('',#831);
#833=CARTESIAN_POINT('',(8.820357417923E-1,-4.335452953348E0,0.E0));
#834=VERTEX_POINT('',#833);
#835=CARTESIAN_POINT('',(-4.171296239298E-2,-5.022248651875E0,-2.5E-1));
#836=DIRECTION('',(0.E0,0.E0,1.E0));
#837=DIRECTION('',(-3.925981575907E-2,9.992290362407E-1,0.E0));
#838=AXIS2_PLACEMENT_3D('',#835,#836,#837);
#839=PLANE('',#838);
#841=ORIENTED_EDGE('',*,*,#840,.T.);
#843=ORIENTED_EDGE('',*,*,#842,.T.);
#845=ORIENTED_EDGE('',*,*,#844,.F.);
#847=ORIENTED_EDGE('',*,*,#846,.F.);
#849=ORIENTED_EDGE('',*,*,#848,.T.);
#851=ORIENTED_EDGE('',*,*,#850,.F.);
#853=ORIENTED_EDGE('',*,*,#852,.F.);
#855=ORIENTED_EDGE('',*,*,#854,.F.);
#857=ORIENTED_EDGE('',*,*,#856,.F.);
#858=EDGE_LOOP('',(#841,#843,#845,#847,#849,#851,#853,#855,#857));
#859=FACE_OUTER_BOUND('',#858,.F.);
#860=ADVANCED_FACE('',(#859),#839,.F.);
#861=CARTESIAN_POINT('',(3.549979770859E-1,-4.605929632813E0,-5.E-2));
#862=DIRECTION('',(7.369390416152E-1,-6.759592065675E-1,0.E0));
#863=DIRECTION('',(0.E0,0.E0,-1.E0));
#864=AXIS2_PLACEMENT_3D('',#861,#862,#863);
#865=CYLINDRICAL_SURFACE('',#864,2.E-1);
#867=ORIENTED_EDGE('',*,*,#866,.F.);
#868=ORIENTED_EDGE('',*,*,#840,.F.);
#870=ORIENTED_EDGE('',*,*,#869,.F.);
#872=ORIENTED_EDGE('',*,*,#871,.T.);
#873=EDGE_LOOP('',(#867,#868,#870,#872));
#874=FACE_OUTER_BOUND('',#873,.F.);
#875=ADVANCED_FACE('',(#874),#865,.T.);
#876=CARTESIAN_POINT('',(5.923479650381E-1,-4.346834817095E0,0.E0));
#877=DIRECTION('',(-9.992290362407E-1,-3.925981575907E-2,0.E0));
#878=DIRECTION('',(-3.925981575907E-2,9.992290362407E-1,0.E0));
#879=AXIS2_PLACEMENT_3D('',#876,#877,#878);
#880=CONICAL_SURFACE('',#879,5.187336277043E-1,4.522131753188E1);
#881=ORIENTED_EDGE('',*,*,#866,.T.);
#883=ORIENTED_EDGE('',*,*,#882,.F.);
#885=ORIENTED_EDGE('',*,*,#884,.F.);
#887=ORIENTED_EDGE('',*,*,#886,.T.);
#889=ORIENTED_EDGE('',*,*,#888,.F.);
#891=ORIENTED_EDGE('',*,*,#890,.F.);
#893=ORIENTED_EDGE('',*,*,#892,.F.);
#894=ORIENTED_EDGE('',*,*,#842,.F.);
#895=EDGE_LOOP('',(#881,#883,#885,#887,#889,#891,#893,#894));
#896=FACE_OUTER_BOUND('',#895,.F.);
#897=ADVANCED_FACE('',(#896),#880,.T.);
#898=CARTESIAN_POINT('',(4.889034310837E-1,-5.000147618337E0,2.5E-1));
#899=DIRECTION('',(6.759592065675E-1,7.369390416152E-1,0.E0));
#900=DIRECTION('',(-7.369390416152E-1,6.759592065675E-1,0.E0));
#901=AXIS2_PLACEMENT_3D('',#898,#899,#900);
#902=PLANE('',#901);
#903=ORIENTED_EDGE('',*,*,#871,.F.);
#905=ORIENTED_EDGE('',*,*,#904,.F.);
#907=ORIENTED_EDGE('',*,*,#906,.F.);
#909=ORIENTED_EDGE('',*,*,#908,.F.);
#910=ORIENTED_EDGE('',*,*,#884,.T.);
#911=ORIENTED_EDGE('',*,*,#882,.T.);
#912=EDGE_LOOP('',(#903,#905,#907,#909,#910,#911));
#913=FACE_OUTER_BOUND('',#912,.F.);
#914=ADVANCED_FACE('',(#913),#902,.F.);
#915=CARTESIAN_POINT('',(2.857332881612E-1,-4.358881740560E0,0.E0));
#916=DIRECTION('',(-9.992290362407E-1,-3.925981575907E-2,0.E0));
#917=DIRECTION('',(-3.925981575907E-2,9.992290362407E-1,0.E0));
#918=AXIS2_PLACEMENT_3D('',#915,#916,#917);
#919=CONICAL_SURFACE('',#918,5.440230257659E-1,4.522131753188E1);
#920=ORIENTED_EDGE('',*,*,#869,.T.);
#921=ORIENTED_EDGE('',*,*,#856,.T.);
#923=ORIENTED_EDGE('',*,*,#922,.F.);
#925=ORIENTED_EDGE('',*,*,#924,.F.);
#927=ORIENTED_EDGE('',*,*,#926,.F.);
#929=ORIENTED_EDGE('',*,*,#928,.F.);
#931=ORIENTED_EDGE('',*,*,#930,.T.);
#932=ORIENTED_EDGE('',*,*,#904,.T.);
#933=EDGE_LOOP('',(#920,#921,#923,#925,#927,#929,#931,#932));
#934=FACE_OUTER_BOUND('',#933,.F.);
#935=ADVANCED_FACE('',(#934),#919,.F.);
#936=CARTESIAN_POINT('',(1.326139646118E-1,-4.364897815167E0,0.E0));
#937=DIRECTION('',(-9.992290362407E-1,-3.925981575907E-2,0.E0));
#938=DIRECTION('',(3.925119528966E-2,-9.990096306431E-1,2.095475007443E-2));
#939=AXIS2_PLACEMENT_3D('',#936,#937,#938);
#940=TOROIDAL_SURFACE('',#939,9.823905279044E-1,2.E-1);
#942=ORIENTED_EDGE('',*,*,#941,.F.);
#944=ORIENTED_EDGE('',*,*,#943,.F.);
#946=ORIENTED_EDGE('',*,*,#945,.T.);
#948=ORIENTED_EDGE('',*,*,#947,.T.);
#949=ORIENTED_EDGE('',*,*,#924,.T.);
#950=ORIENTED_EDGE('',*,*,#922,.T.);
#951=ORIENTED_EDGE('',*,*,#854,.T.);
#952=EDGE_LOOP('',(#942,#944,#946,#948,#949,#950,#951));
#953=FACE_OUTER_BOUND('',#952,.F.);
#954=ADVANCED_FACE('',(#953),#940,.T.);
#955=CARTESIAN_POINT('',(-2.387972375035E-1,-6.118889946769E-3,-1.5E0));
#956=DIRECTION('',(9.992290362407E-1,3.925981575907E-2,0.E0));
#957=DIRECTION('',(3.925981575907E-2,-9.992290362407E-1,0.E0));
#958=AXIS2_PLACEMENT_3D('',#955,#956,#957);
#959=PLANE('',#958);
#961=ORIENTED_EDGE('',*,*,#960,.F.);
#963=ORIENTED_EDGE('',*,*,#962,.F.);
#964=ORIENTED_EDGE('',*,*,#943,.T.);
#965=ORIENTED_EDGE('',*,*,#941,.T.);
#966=ORIENTED_EDGE('',*,*,#852,.T.);
#967=EDGE_LOOP('',(#961,#963,#964,#965,#966));
#968=FACE_OUTER_BOUND('',#967,.F.);
#969=ADVANCED_FACE('',(#968),#959,.F.);
#970=CARTESIAN_POINT('',(4.E-1,-9.817920367321E-1,2.5E-1));
#971=DIRECTION('',(0.E0,0.E0,-1.E0));
#972=DIRECTION('',(1.E0,0.E0,0.E0));
#973=AXIS2_PLACEMENT_3D('',#970,#971,#972);
#974=CYLINDRICAL_SURFACE('',#973,6.E-1);
#975=ORIENTED_EDGE('',*,*,#960,.T.);
#977=ORIENTED_EDGE('',*,*,#976,.F.);
#979=ORIENTED_EDGE('',*,*,#978,.T.);
#981=ORIENTED_EDGE('',*,*,#980,.F.);
#982=EDGE_LOOP('',(#975,#977,#979,#981));
#983=FACE_OUTER_BOUND('',#982,.F.);
#984=ADVANCED_FACE('',(#983),#974,.T.);
#985=CARTESIAN_POINT('',(-2.E-1,-5.02E0,-2.5E-1));
#986=DIRECTION('',(0.E0,0.E0,1.E0));
#987=DIRECTION('',(0.E0,1.E0,0.E0));
#988=AXIS2_PLACEMENT_3D('',#985,#986,#987);
#989=PLANE('',#988);
#990=ORIENTED_EDGE('',*,*,#850,.T.);
#992=ORIENTED_EDGE('',*,*,#991,.T.);
#994=ORIENTED_EDGE('',*,*,#993,.F.);
#995=ORIENTED_EDGE('',*,*,#976,.T.);
#996=EDGE_LOOP('',(#990,#992,#994,#995));
#997=FACE_OUTER_BOUND('',#996,.F.);
#998=ADVANCED_FACE('',(#997),#989,.F.);
#999=CARTESIAN_POINT('',(4.E-1,-9.817920367321E-1,2.5E-1));
#1000=DIRECTION('',(0.E0,0.E0,-1.E0));
#1001=DIRECTION('',(1.E0,0.E0,0.E0));
#1002=AXIS2_PLACEMENT_3D('',#999,#1000,#1001);
#1003=CYLINDRICAL_SURFACE('',#1002,4.E-1);
#1005=ORIENTED_EDGE('',*,*,#1004,.T.);
#1007=ORIENTED_EDGE('',*,*,#1006,.F.);
#1009=ORIENTED_EDGE('',*,*,#1008,.T.);
#1010=ORIENTED_EDGE('',*,*,#991,.F.);
#1011=EDGE_LOOP('',(#1005,#1007,#1009,#1010));
#1012=FACE_OUTER_BOUND('',#1011,.F.);
#1013=ADVANCED_FACE('',(#1012),#1003,.F.);
#1014=CARTESIAN_POINT('',(-3.895143025536E-2,1.733073205044E-3,-1.5E0));
#1015=DIRECTION('',(9.992290362407E-1,3.925981575907E-2,0.E0));
#1016=DIRECTION('',(3.925981575907E-2,-9.992290362407E-1,0.E0));
#1017=AXIS2_PLACEMENT_3D('',#1014,#1015,#1016);
#1018=PLANE('',#1017);
#1019=ORIENTED_EDGE('',*,*,#1004,.F.);
#1020=ORIENTED_EDGE('',*,*,#848,.F.);
#1022=ORIENTED_EDGE('',*,*,#1021,.T.);
#1024=ORIENTED_EDGE('',*,*,#1023,.T.);
#1026=ORIENTED_EDGE('',*,*,#1025,.T.);
#1027=EDGE_LOOP('',(#1019,#1020,#1022,#1024,#1026));
#1028=FACE_OUTER_BOUND('',#1027,.F.);
#1029=ADVANCED_FACE('',(#1028),#1018,.T.);
#1030=CARTESIAN_POINT('',(4.275904079622E-1,-4.353308159143E0,0.E0));
#1031=DIRECTION('',(-9.992290362407E-1,-3.925981575907E-2,0.E0));
#1032=DIRECTION('',(-3.925981575907E-2,9.992290362407E-1,0.E0));
#1033=AXIS2_PLACEMENT_3D('',#1030,#1031,#1032);
#1034=CONICAL_SURFACE('',#1033,6.848970572691E-1,4.522131753188E1);
#1035=ORIENTED_EDGE('',*,*,#1023,.F.);
#1036=ORIENTED_EDGE('',*,*,#1021,.F.);
#1037=ORIENTED_EDGE('',*,*,#846,.T.);
#1039=ORIENTED_EDGE('',*,*,#1038,.F.);
#1041=ORIENTED_EDGE('',*,*,#1040,.F.);
#1043=ORIENTED_EDGE('',*,*,#1042,.T.);
#1044=EDGE_LOOP('',(#1035,#1036,#1037,#1039,#1041,#1043));
#1045=FACE_OUTER_BOUND('',#1044,.F.);
#1046=ADVANCED_FACE('',(#1045),#1034,.T.);
#1047=CARTESIAN_POINT('',(3.324597718599E-1,-4.357045852015E0,0.E0));
#1048=DIRECTION('',(-9.992290362407E-1,-3.925981575907E-2,0.E0));
#1049=DIRECTION('',(-3.925981575907E-2,9.992290362407E-1,0.E0));
#1050=AXIS2_PLACEMENT_3D('',#1047,#1048,#1049);
#1051=SPHERICAL_SURFACE('',#1050,5.5E-1);
#1052=ORIENTED_EDGE('',*,*,#892,.T.);
#1054=ORIENTED_EDGE('',*,*,#1053,.F.);
#1056=ORIENTED_EDGE('',*,*,#1055,.T.);
#1057=ORIENTED_EDGE('',*,*,#1038,.T.);
#1058=ORIENTED_EDGE('',*,*,#844,.T.);
#1059=EDGE_LOOP('',(#1052,#1054,#1056,#1057,#1058));
#1060=FACE_OUTER_BOUND('',#1059,.F.);
#1061=ADVANCED_FACE('',(#1060),#1051,.T.);
#1062=CARTESIAN_POINT('',(3.324597718599E-1,-4.357045852015E0,0.E0));
#1063=DIRECTION('',(-9.992290362407E-1,-3.925981575907E-2,0.E0));
#1064=DIRECTION('',(-3.925981575907E-2,9.992290362407E-1,0.E0));
#1065=AXIS2_PLACEMENT_3D('',#1062,#1063,#1064);
#1066=SPHERICAL_SURFACE('',#1065,5.5E-1);
#1068=ORIENTED_EDGE('',*,*,#1067,.T.);
#1069=ORIENTED_EDGE('',*,*,#1040,.T.);
#1070=ORIENTED_EDGE('',*,*,#1055,.F.);
#1071=ORIENTED_EDGE('',*,*,#1053,.T.);
#1072=ORIENTED_EDGE('',*,*,#890,.T.);
#1073=EDGE_LOOP('',(#1068,#1069,#1070,#1071,#1072));
#1074=FACE_OUTER_BOUND('',#1073,.F.);
#1075=ADVANCED_FACE('',(#1074),#1066,.T.);
#1076=CARTESIAN_POINT('',(-2.387972375035E-1,-6.118889946769E-3,2.5E-1));
#1077=DIRECTION('',(0.E0,0.E0,-1.E0));
#1078=DIRECTION('',(3.925981575907E-2,-9.992290362407E-1,0.E0));
#1079=AXIS2_PLACEMENT_3D('',#1076,#1077,#1078);
#1080=PLANE('',#1079);
#1082=ORIENTED_EDGE('',*,*,#1081,.T.);
#1084=ORIENTED_EDGE('',*,*,#1083,.F.);
#1085=ORIENTED_EDGE('',*,*,#945,.F.);
#1086=ORIENTED_EDGE('',*,*,#962,.T.);
#1088=ORIENTED_EDGE('',*,*,#1087,.F.);
#1089=ORIENTED_EDGE('',*,*,#1025,.F.);
#1090=ORIENTED_EDGE('',*,*,#1042,.F.);
#1091=ORIENTED_EDGE('',*,*,#1067,.F.);
#1092=ORIENTED_EDGE('',*,*,#888,.T.);
#1093=EDGE_LOOP('',(#1082,#1084,#1085,#1086,#1088,#1089,#1090,#1091,#1092));
#1094=FACE_OUTER_BOUND('',#1093,.F.);
#1095=ADVANCED_FACE('',(#1094),#1080,.F.);
#1096=CARTESIAN_POINT('',(3.547187389993E-1,-4.605673500969E0,5.E-2));
#1097=DIRECTION('',(7.369390416152E-1,-6.759592065675E-1,0.E0));
#1098=DIRECTION('',(-6.759592065675E-1,-7.369390416152E-1,0.E0));
#1099=AXIS2_PLACEMENT_3D('',#1096,#1097,#1098);
#1100=CYLINDRICAL_SURFACE('',#1099,2.E-1);
#1101=ORIENTED_EDGE('',*,*,#886,.F.);
#1102=ORIENTED_EDGE('',*,*,#908,.T.);
#1104=ORIENTED_EDGE('',*,*,#1103,.F.);
#1105=ORIENTED_EDGE('',*,*,#1081,.F.);
#1106=EDGE_LOOP('',(#1101,#1102,#1104,#1105));
#1107=FACE_OUTER_BOUND('',#1106,.F.);
#1108=ADVANCED_FACE('',(#1107),#1100,.T.);
#1109=CARTESIAN_POINT('',(2.857332881612E-1,-4.358881740560E0,0.E0));
#1110=DIRECTION('',(-9.992290362407E-1,-3.925981575907E-2,0.E0));
#1111=DIRECTION('',(-3.925981575907E-2,9.992290362407E-1,0.E0));
#1112=AXIS2_PLACEMENT_3D('',#1109,#1110,#1111);
#1113=CONICAL_SURFACE('',#1112,5.440230257659E-1,4.522131753188E1);
#1114=ORIENTED_EDGE('',*,*,#1103,.T.);
#1115=ORIENTED_EDGE('',*,*,#906,.T.);
#1116=ORIENTED_EDGE('',*,*,#930,.F.);
#1118=ORIENTED_EDGE('',*,*,#1117,.F.);
#1119=ORIENTED_EDGE('',*,*,#926,.T.);
#1120=ORIENTED_EDGE('',*,*,#947,.F.);
#1121=ORIENTED_EDGE('',*,*,#1083,.T.);
#1122=EDGE_LOOP('',(#1114,#1115,#1116,#1118,#1119,#1120,#1121));
#1123=FACE_OUTER_BOUND('',#1122,.F.);
#1124=ADVANCED_FACE('',(#1123),#1113,.F.);
#1125=CARTESIAN_POINT('',(3.324597718599E-1,-4.357045852015E0,0.E0));
#1126=DIRECTION('',(-9.992290362407E-1,-3.925981575907E-2,0.E0));
#1127=DIRECTION('',(-3.925981575907E-2,9.992290362407E-1,0.E0));
#1128=AXIS2_PLACEMENT_3D('',#1125,#1126,#1127);
#1129=SPHERICAL_SURFACE('',#1128,3.5E-1);
#1131=ORIENTED_EDGE('',*,*,#1130,.F.);
#1133=ORIENTED_EDGE('',*,*,#1132,.T.);
#1134=ORIENTED_EDGE('',*,*,#1117,.T.);
#1135=EDGE_LOOP('',(#1131,#1133,#1134));
#1136=FACE_OUTER_BOUND('',#1135,.F.);
#1137=ADVANCED_FACE('',(#1136),#1129,.F.);
#1138=CARTESIAN_POINT('',(3.324597718599E-1,-4.357045852015E0,0.E0));
#1139=DIRECTION('',(-9.992290362407E-1,-3.925981575907E-2,0.E0));
#1140=DIRECTION('',(-3.925981575907E-2,9.992290362407E-1,0.E0));
#1141=AXIS2_PLACEMENT_3D('',#1138,#1139,#1140);
#1142=SPHERICAL_SURFACE('',#1141,3.5E-1);
#1143=ORIENTED_EDGE('',*,*,#1130,.T.);
#1144=ORIENTED_EDGE('',*,*,#928,.T.);
#1145=ORIENTED_EDGE('',*,*,#1132,.F.);
#1146=EDGE_LOOP('',(#1143,#1144,#1145));
#1147=FACE_OUTER_BOUND('',#1146,.F.);
#1148=ADVANCED_FACE('',(#1147),#1142,.F.);
#1149=CARTESIAN_POINT('',(-2.E-1,0.E0,2.5E-1));
#1150=DIRECTION('',(0.E0,0.E0,-1.E0));
#1151=DIRECTION('',(0.E0,-1.E0,0.E0));
#1152=AXIS2_PLACEMENT_3D('',#1149,#1150,#1151);
#1153=PLANE('',#1152);
#1154=ORIENTED_EDGE('',*,*,#1087,.T.);
#1155=ORIENTED_EDGE('',*,*,#980,.T.);
#1157=ORIENTED_EDGE('',*,*,#1156,.T.);
#1158=ORIENTED_EDGE('',*,*,#1006,.T.);
#1159=EDGE_LOOP('',(#1154,#1155,#1157,#1158));
#1160=FACE_OUTER_BOUND('',#1159,.F.);
#1161=ADVANCED_FACE('',(#1160),#1153,.F.);
#1162=CARTESIAN_POINT('',(-1.E-1,-7.908960183660E-1,2.75E-1));
#1163=DIRECTION('',(0.E0,-1.298525402749E-1,9.915333165276E-1));
#1164=DIRECTION('',(0.E0,-9.915333165276E-1,-1.298525402749E-1));
#1165=AXIS2_PLACEMENT_3D('',#1162,#1163,#1164);
#1166=PLANE('',#1165);
#1168=ORIENTED_EDGE('',*,*,#1167,.F.);
#1169=ORIENTED_EDGE('',*,*,#1156,.F.);
#1171=ORIENTED_EDGE('',*,*,#1170,.F.);
#1173=ORIENTED_EDGE('',*,*,#1172,.T.);
#1174=EDGE_LOOP('',(#1168,#1169,#1171,#1173));
#1175=FACE_OUTER_BOUND('',#1174,.F.);
#1176=ADVANCED_FACE('',(#1175),#1166,.T.);
#1177=CARTESIAN_POINT('',(0.E0,0.E0,-1.5E0));
#1178=DIRECTION('',(1.E0,0.E0,0.E0));
#1179=DIRECTION('',(0.E0,-1.E0,0.E0));
#1180=AXIS2_PLACEMENT_3D('',#1177,#1178,#1179);
#1181=PLANE('',#1180);
#1183=ORIENTED_EDGE('',*,*,#1182,.T.);
#1185=ORIENTED_EDGE('',*,*,#1184,.T.);
#1187=ORIENTED_EDGE('',*,*,#1186,.T.);
#1189=ORIENTED_EDGE('',*,*,#1188,.T.);
#1191=ORIENTED_EDGE('',*,*,#1190,.F.);
#1193=ORIENTED_EDGE('',*,*,#1192,.F.);
#1195=ORIENTED_EDGE('',*,*,#1194,.T.);
#1197=ORIENTED_EDGE('',*,*,#1196,.T.);
#1199=ORIENTED_EDGE('',*,*,#1198,.T.);
#1201=ORIENTED_EDGE('',*,*,#1200,.T.);
#1203=ORIENTED_EDGE('',*,*,#1202,.T.);
#1205=ORIENTED_EDGE('',*,*,#1204,.T.);
#1207=ORIENTED_EDGE('',*,*,#1206,.T.);
#1208=ORIENTED_EDGE('',*,*,#1008,.F.);
#1209=ORIENTED_EDGE('',*,*,#1167,.T.);
#1211=ORIENTED_EDGE('',*,*,#1210,.T.);
#1212=EDGE_LOOP('',(#1183,#1185,#1187,#1189,#1191,#1193,#1195,#1197,#1199,#1201,
#1203,#1205,#1207,#1208,#1209,#1211));
#1213=FACE_OUTER_BOUND('',#1212,.F.);
#1214=ADVANCED_FACE('',(#1213),#1181,.T.);
#1215=CARTESIAN_POINT('',(-2.227847313788E-1,1.2E0,1.E-1));
#1216=DIRECTION('',(1.E0,0.E0,0.E0));
#1217=DIRECTION('',(0.E0,1.E0,0.E0));
#1218=AXIS2_PLACEMENT_3D('',#1215,#1216,#1217);
#1219=CYLINDRICAL_SURFACE('',#1218,2.E-1);
#1221=ORIENTED_EDGE('',*,*,#1220,.T.);
#1223=ORIENTED_EDGE('',*,*,#1222,.F.);
#1225=ORIENTED_EDGE('',*,*,#1224,.T.);
#1226=ORIENTED_EDGE('',*,*,#1182,.F.);
#1227=EDGE_LOOP('',(#1221,#1223,#1225,#1226));
#1228=FACE_OUTER_BOUND('',#1227,.F.);
#1229=ADVANCED_FACE('',(#1228),#1219,.T.);
#1230=CARTESIAN_POINT('',(-1.E-1,4.E-1,3.E-1));
#1231=DIRECTION('',(0.E0,0.E0,1.E0));
#1232=DIRECTION('',(0.E0,-1.E0,0.E0));
#1233=AXIS2_PLACEMENT_3D('',#1230,#1231,#1232);
#1234=PLANE('',#1233);
#1235=ORIENTED_EDGE('',*,*,#1220,.F.);
#1236=ORIENTED_EDGE('',*,*,#1210,.F.);
#1237=ORIENTED_EDGE('',*,*,#1172,.F.);
#1239=ORIENTED_EDGE('',*,*,#1238,.T.);
#1240=EDGE_LOOP('',(#1235,#1236,#1237,#1239));
#1241=FACE_OUTER_BOUND('',#1240,.F.);
#1242=ADVANCED_FACE('',(#1241),#1234,.T.);
#1243=CARTESIAN_POINT('',(-2.E-1,0.E0,-1.5E0));
#1244=DIRECTION('',(1.E0,0.E0,0.E0));
#1245=DIRECTION('',(0.E0,-1.E0,0.E0));
#1246=AXIS2_PLACEMENT_3D('',#1243,#1244,#1245);
#1247=PLANE('',#1246);
#1248=ORIENTED_EDGE('',*,*,#1222,.T.);
#1249=ORIENTED_EDGE('',*,*,#1238,.F.);
#1250=ORIENTED_EDGE('',*,*,#1170,.T.);
#1251=ORIENTED_EDGE('',*,*,#978,.F.);
#1253=ORIENTED_EDGE('',*,*,#1252,.F.);
#1255=ORIENTED_EDGE('',*,*,#1254,.T.);
#1257=ORIENTED_EDGE('',*,*,#1256,.F.);
#1259=ORIENTED_EDGE('',*,*,#1258,.T.);
#1261=ORIENTED_EDGE('',*,*,#1260,.F.);
#1263=ORIENTED_EDGE('',*,*,#1262,.T.);
#1265=ORIENTED_EDGE('',*,*,#1264,.F.);
#1267=ORIENTED_EDGE('',*,*,#1266,.T.);
#1269=ORIENTED_EDGE('',*,*,#1268,.F.);
#1271=ORIENTED_EDGE('',*,*,#1270,.T.);
#1273=ORIENTED_EDGE('',*,*,#1272,.T.);
#1275=ORIENTED_EDGE('',*,*,#1274,.T.);
#1276=EDGE_LOOP('',(#1248,#1249,#1250,#1251,#1253,#1255,#1257,#1259,#1261,#1263,
#1265,#1267,#1269,#1271,#1273,#1275));
#1277=FACE_OUTER_BOUND('',#1276,.F.);
#1278=ADVANCED_FACE('',(#1277),#1247,.F.);
#1279=CARTESIAN_POINT('',(-1.E-1,-9.714741908802E-1,-2.5E-1));
#1280=DIRECTION('',(0.E0,0.E0,-1.E0));
#1281=DIRECTION('',(0.E0,1.E0,0.E0));
#1282=AXIS2_PLACEMENT_3D('',#1279,#1280,#1281);
#1283=PLANE('',#1282);
#1284=ORIENTED_EDGE('',*,*,#1206,.F.);
#1286=ORIENTED_EDGE('',*,*,#1285,.F.);
#1287=ORIENTED_EDGE('',*,*,#1252,.T.);
#1288=ORIENTED_EDGE('',*,*,#993,.T.);
#1289=EDGE_LOOP('',(#1284,#1286,#1287,#1288));
#1290=FACE_OUTER_BOUND('',#1289,.F.);
#1291=ADVANCED_FACE('',(#1290),#1283,.T.);
#1292=CARTESIAN_POINT('',(-1.E-1,-7.805781725142E-1,-2.75E-1));
#1293=DIRECTION('',(0.E0,-1.371362034787E-1,-9.905522003890E-1));
#1294=DIRECTION('',(0.E0,9.905522003890E-1,-1.371362034787E-1));
#1295=AXIS2_PLACEMENT_3D('',#1292,#1293,#1294);
#1296=PLANE('',#1295);
#1297=ORIENTED_EDGE('',*,*,#1204,.F.);
#1299=ORIENTED_EDGE('',*,*,#1298,.F.);
#1300=ORIENTED_EDGE('',*,*,#1254,.F.);
#1301=ORIENTED_EDGE('',*,*,#1285,.T.);
#1302=EDGE_LOOP('',(#1297,#1299,#1300,#1301));
#1303=FACE_OUTER_BOUND('',#1302,.F.);
#1304=ADVANCED_FACE('',(#1303),#1296,.T.);
#1305=CARTESIAN_POINT('',(-1.E-1,-5.E-2,-3.E-1));
#1306=DIRECTION('',(0.E0,0.E0,-1.E0));
#1307=DIRECTION('',(0.E0,1.E0,0.E0));
#1308=AXIS2_PLACEMENT_3D('',#1305,#1306,#1307);
#1309=PLANE('',#1308);
#1311=ORIENTED_EDGE('',*,*,#1310,.F.);
#1312=ORIENTED_EDGE('',*,*,#1256,.T.);
#1313=ORIENTED_EDGE('',*,*,#1298,.T.);
#1314=ORIENTED_EDGE('',*,*,#1202,.F.);
#1315=EDGE_LOOP('',(#1311,#1312,#1313,#1314));
#1316=FACE_OUTER_BOUND('',#1315,.F.);
#1317=ADVANCED_FACE('',(#1316),#1309,.T.);
#1318=CARTESIAN_POINT('',(2.666602918499E-2,3.E-1,-5.E-1));
#1319=DIRECTION('',(-1.E0,0.E0,0.E0));
#1320=DIRECTION('',(0.E0,0.E0,1.E0));
#1321=AXIS2_PLACEMENT_3D('',#1318,#1319,#1320);
#1322=CYLINDRICAL_SURFACE('',#1321,2.E-1);
#1323=ORIENTED_EDGE('',*,*,#1310,.T.);
#1324=ORIENTED_EDGE('',*,*,#1200,.F.);
#1326=ORIENTED_EDGE('',*,*,#1325,.T.);
#1327=ORIENTED_EDGE('',*,*,#1258,.F.);
#1328=EDGE_LOOP('',(#1323,#1324,#1326,#1327));
#1329=FACE_OUTER_BOUND('',#1328,.F.);
#1330=ADVANCED_FACE('',(#1329),#1322,.F.);
#1331=CARTESIAN_POINT('',(-1.E-1,5.E-1,-8.85E-1));
#1332=DIRECTION('',(0.E0,-1.E0,0.E0));
#1333=DIRECTION('',(0.E0,0.E0,-1.E0));
#1334=AXIS2_PLACEMENT_3D('',#1331,#1332,#1333);
#1335=PLANE('',#1334);
#1337=ORIENTED_EDGE('',*,*,#1336,.F.);
#1338=ORIENTED_EDGE('',*,*,#1260,.T.);
#1339=ORIENTED_EDGE('',*,*,#1325,.F.);
#1340=ORIENTED_EDGE('',*,*,#1198,.F.);
#1341=EDGE_LOOP('',(#1337,#1338,#1339,#1340));
#1342=FACE_OUTER_BOUND('',#1341,.F.);
#1343=ADVANCED_FACE('',(#1342),#1335,.T.);
#1344=CARTESIAN_POINT('',(-2.227847313788E-1,7.E-1,-1.32E0));
#1345=DIRECTION('',(1.E0,0.E0,0.E0));
#1346=DIRECTION('',(0.E0,-1.E0,0.E0));
#1347=AXIS2_PLACEMENT_3D('',#1344,#1345,#1346);
#1348=CYLINDRICAL_SURFACE('',#1347,2.E-1);
#1350=ORIENTED_EDGE('',*,*,#1349,.T.);
#1351=ORIENTED_EDGE('',*,*,#1262,.F.);
#1352=ORIENTED_EDGE('',*,*,#1336,.T.);
#1353=ORIENTED_EDGE('',*,*,#1196,.F.);
#1354=EDGE_LOOP('',(#1350,#1351,#1352,#1353));
#1355=FACE_OUTER_BOUND('',#1354,.F.);
#1356=ADVANCED_FACE('',(#1355),#1348,.T.);
#1357=CARTESIAN_POINT('',(-1.E-1,1.05E0,-1.52E0));
#1358=DIRECTION('',(0.E0,0.E0,-1.E0));
#1359=DIRECTION('',(0.E0,1.E0,0.E0));
#1360=AXIS2_PLACEMENT_3D('',#1357,#1358,#1359);
#1361=PLANE('',#1360);
#1362=ORIENTED_EDGE('',*,*,#1349,.F.);
#1363=ORIENTED_EDGE('',*,*,#1194,.F.);
#1365=ORIENTED_EDGE('',*,*,#1364,.F.);
#1366=ORIENTED_EDGE('',*,*,#1264,.T.);
#1367=EDGE_LOOP('',(#1362,#1363,#1365,#1366));
#1368=FACE_OUTER_BOUND('',#1367,.F.);
#1369=ADVANCED_FACE('',(#1368),#1361,.T.);
#1370=CARTESIAN_POINT('',(-1.E-1,5.22E0,-1.52E0));
#1371=DIRECTION('',(0.E0,0.E0,1.E0));
#1372=DIRECTION('',(0.E0,-1.E0,0.E0));
#1373=AXIS2_PLACEMENT_3D('',#1370,#1371,#1372);
#1374=PLANE('',#1373);
#1375=ORIENTED_EDGE('',*,*,#1192,.T.);
#1377=ORIENTED_EDGE('',*,*,#1376,.F.);
#1378=ORIENTED_EDGE('',*,*,#1266,.F.);
#1379=ORIENTED_EDGE('',*,*,#1364,.T.);
#1380=EDGE_LOOP('',(#1375,#1377,#1378,#1379));
#1381=FACE_OUTER_BOUND('',#1380,.F.);
#1382=ADVANCED_FACE('',(#1381),#1374,.F.);
#1383=CARTESIAN_POINT('',(-1.795589666118E-1,9.043484030820E0,-1.52E0));
#1384=DIRECTION('',(0.E0,0.E0,-1.E0));
#1385=DIRECTION('',(0.E0,1.E0,0.E0));
#1386=AXIS2_PLACEMENT_3D('',#1383,#1384,#1385);
#1387=PLANE('',#1386);
#1389=ORIENTED_EDGE('',*,*,#1388,.T.);
#1391=ORIENTED_EDGE('',*,*,#1390,.T.);
#1393=ORIENTED_EDGE('',*,*,#1392,.T.);
#1394=ORIENTED_EDGE('',*,*,#1376,.T.);
#1395=EDGE_LOOP('',(#1389,#1391,#1393,#1394));
#1396=FACE_OUTER_BOUND('',#1395,.F.);
#1397=ADVANCED_FACE('',(#1396),#1387,.T.);
#1398=CARTESIAN_POINT('',(-4.E-1,8.84E0,-1.02E0));
#1399=DIRECTION('',(0.E0,0.E0,1.E0));
#1400=DIRECTION('',(0.E0,-1.E0,0.E0));
#1401=AXIS2_PLACEMENT_3D('',#1398,#1399,#1400);
#1402=CYLINDRICAL_SURFACE('',#1401,4.E-1);
#1403=ORIENTED_EDGE('',*,*,#1388,.F.);
#1404=ORIENTED_EDGE('',*,*,#1190,.T.);
#1406=ORIENTED_EDGE('',*,*,#1405,.F.);
#1408=ORIENTED_EDGE('',*,*,#1407,.T.);
#1409=EDGE_LOOP('',(#1403,#1404,#1406,#1408));
#1410=FACE_OUTER_BOUND('',#1409,.F.);
#1411=ADVANCED_FACE('',(#1410),#1402,.T.);
#1412=CARTESIAN_POINT('',(-1.795589666118E-1,9.043484030820E0,-1.02E0));
#1413=DIRECTION('',(0.E0,0.E0,-1.E0));
#1414=DIRECTION('',(9.968051118211E-1,-7.987220447284E-2,0.E0));
#1415=AXIS2_PLACEMENT_3D('',#1412,#1413,#1414);
#1416=PLANE('',#1415);
#1418=ORIENTED_EDGE('',*,*,#1417,.T.);
#1420=ORIENTED_EDGE('',*,*,#1419,.F.);
#1421=ORIENTED_EDGE('',*,*,#1405,.T.);
#1423=ORIENTED_EDGE('',*,*,#1422,.T.);
#1424=EDGE_LOOP('',(#1418,#1420,#1421,#1423));
#1425=FACE_OUTER_BOUND('',#1424,.F.);
#1426=ADVANCED_FACE('',(#1425),#1416,.F.);
#1427=CARTESIAN_POINT('',(-4.E-1,8.84E0,-1.02E0));
#1428=DIRECTION('',(0.E0,0.E0,1.E0));
#1429=DIRECTION('',(0.E0,-1.E0,0.E0));
#1430=AXIS2_PLACEMENT_3D('',#1427,#1428,#1429);
#1431=CYLINDRICAL_SURFACE('',#1430,2.E-1);
#1432=ORIENTED_EDGE('',*,*,#1392,.F.);
#1434=ORIENTED_EDGE('',*,*,#1433,.T.);
#1435=ORIENTED_EDGE('',*,*,#1417,.F.);
#1436=ORIENTED_EDGE('',*,*,#1268,.T.);
#1437=EDGE_LOOP('',(#1432,#1434,#1435,#1436));
#1438=FACE_OUTER_BOUND('',#1437,.F.);
#1439=ADVANCED_FACE('',(#1438),#1431,.F.);
#1440=CARTESIAN_POINT('',(-1.031948881789E0,9.091277955272E0,-1.02E0));
#1441=DIRECTION('',(-7.987220447284E-2,-9.968051118211E-1,0.E0));
#1442=DIRECTION('',(9.968051118211E-1,-7.987220447284E-2,0.E0));
#1443=AXIS2_PLACEMENT_3D('',#1440,#1441,#1442);
#1444=PLANE('',#1443);
#1446=ORIENTED_EDGE('',*,*,#1445,.T.);
#1448=ORIENTED_EDGE('',*,*,#1447,.F.);
#1450=ORIENTED_EDGE('',*,*,#1449,.F.);
#1451=ORIENTED_EDGE('',*,*,#1433,.F.);
#1452=EDGE_LOOP('',(#1446,#1448,#1450,#1451));
#1453=FACE_OUTER_BOUND('',#1452,.F.);
#1454=ADVANCED_FACE('',(#1453),#1444,.T.);
#1455=CARTESIAN_POINT('',(-7.E-1,9.165E0,-1.52E0));
#1456=DIRECTION('',(0.E0,0.E0,1.E0));
#1457=DIRECTION('',(9.968051118211E-1,-7.987220447284E-2,0.E0));
#1458=AXIS2_PLACEMENT_3D('',#1455,#1456,#1457);
#1459=PLANE('',#1458);
#1461=ORIENTED_EDGE('',*,*,#1460,.T.);
#1463=ORIENTED_EDGE('',*,*,#1462,.F.);
#1464=ORIENTED_EDGE('',*,*,#1445,.F.);
#1465=ORIENTED_EDGE('',*,*,#1390,.F.);
#1466=EDGE_LOOP('',(#1461,#1463,#1464,#1465));
#1467=FACE_OUTER_BOUND('',#1466,.F.);
#1468=ADVANCED_FACE('',(#1467),#1459,.F.);
#1469=CARTESIAN_POINT('',(-1.015974440895E0,9.290638977636E0,-1.02E0));
#1470=DIRECTION('',(-7.987220447284E-2,-9.968051118211E-1,0.E0));
#1471=DIRECTION('',(9.968051118211E-1,-7.987220447284E-2,0.E0));
#1472=AXIS2_PLACEMENT_3D('',#1469,#1470,#1471);
#1473=PLANE('',#1472);
#1474=ORIENTED_EDGE('',*,*,#1460,.F.);
#1475=ORIENTED_EDGE('',*,*,#1407,.F.);
#1477=ORIENTED_EDGE('',*,*,#1476,.T.);
#1479=ORIENTED_EDGE('',*,*,#1478,.F.);
#1480=EDGE_LOOP('',(#1474,#1475,#1477,#1479));
#1481=FACE_OUTER_BOUND('',#1480,.F.);
#1482=ADVANCED_FACE('',(#1481),#1473,.F.);
#1483=CARTESIAN_POINT('',(-7.E-1,9.165E0,-1.02E0));
#1484=DIRECTION('',(0.E0,0.E0,-1.E0));
#1485=DIRECTION('',(9.968051118211E-1,-7.987220447284E-2,0.E0));
#1486=AXIS2_PLACEMENT_3D('',#1483,#1484,#1485);
#1487=PLANE('',#1486);
#1488=ORIENTED_EDGE('',*,*,#1449,.T.);
#1490=ORIENTED_EDGE('',*,*,#1489,.F.);
#1491=ORIENTED_EDGE('',*,*,#1476,.F.);
#1492=ORIENTED_EDGE('',*,*,#1419,.T.);
#1493=EDGE_LOOP('',(#1488,#1490,#1491,#1492));
#1494=FACE_OUTER_BOUND('',#1493,.F.);
#1495=ADVANCED_FACE('',(#1494),#1487,.F.);
#1496=CARTESIAN_POINT('',(-1.220441033388E0,9.286515969180E0,-1.02E0));
#1497=DIRECTION('',(0.E0,0.E0,-1.E0));
#1498=DIRECTION('',(0.E0,-1.E0,0.E0));
#1499=AXIS2_PLACEMENT_3D('',#1496,#1497,#1498);
#1500=PLANE('',#1499);
#1502=ORIENTED_EDGE('',*,*,#1501,.T.);
#1504=ORIENTED_EDGE('',*,*,#1503,.F.);
#1506=ORIENTED_EDGE('',*,*,#1505,.T.);
#1507=ORIENTED_EDGE('',*,*,#1489,.T.);
#1508=EDGE_LOOP('',(#1502,#1504,#1506,#1507));
#1509=FACE_OUTER_BOUND('',#1508,.F.);
#1510=ADVANCED_FACE('',(#1509),#1500,.F.);
#1511=CARTESIAN_POINT('',(-1.E0,9.49E0,-1.02E0));
#1512=DIRECTION('',(0.E0,0.E0,1.E0));
#1513=DIRECTION('',(0.E0,-1.E0,0.E0));
#1514=AXIS2_PLACEMENT_3D('',#1511,#1512,#1513);
#1515=CYLINDRICAL_SURFACE('',#1514,4.E-1);
#1517=ORIENTED_EDGE('',*,*,#1516,.T.);
#1518=ORIENTED_EDGE('',*,*,#1501,.F.);
#1519=ORIENTED_EDGE('',*,*,#1447,.T.);
#1521=ORIENTED_EDGE('',*,*,#1520,.F.);
#1522=EDGE_LOOP('',(#1517,#1518,#1519,#1521));
#1523=FACE_OUTER_BOUND('',#1522,.F.);
#1524=ADVANCED_FACE('',(#1523),#1515,.T.);
#1525=CARTESIAN_POINT('',(-1.4E0,1.069E1,-1.02E0));
#1526=DIRECTION('',(-1.E0,0.E0,0.E0));
#1527=DIRECTION('',(0.E0,-1.E0,0.E0));
#1528=AXIS2_PLACEMENT_3D('',#1525,#1526,#1527);
#1529=PLANE('',#1528);
#1530=ORIENTED_EDGE('',*,*,#1516,.F.);
#1532=ORIENTED_EDGE('',*,*,#1531,.T.);
#1534=ORIENTED_EDGE('',*,*,#1533,.T.);
#1536=ORIENTED_EDGE('',*,*,#1535,.F.);
#1537=EDGE_LOOP('',(#1530,#1532,#1534,#1536));
#1538=FACE_OUTER_BOUND('',#1537,.F.);
#1539=ADVANCED_FACE('',(#1538),#1529,.T.);
#1540=CARTESIAN_POINT('',(-1.3E0,1.009E1,-1.52E0));
#1541=DIRECTION('',(0.E0,0.E0,1.E0));
#1542=DIRECTION('',(0.E0,-1.E0,0.E0));
#1543=AXIS2_PLACEMENT_3D('',#1540,#1541,#1542);
#1544=PLANE('',#1543);
#1546=ORIENTED_EDGE('',*,*,#1545,.T.);
#1548=ORIENTED_EDGE('',*,*,#1547,.F.);
#1549=ORIENTED_EDGE('',*,*,#1531,.F.);
#1551=ORIENTED_EDGE('',*,*,#1550,.T.);
#1552=EDGE_LOOP('',(#1546,#1548,#1549,#1551));
#1553=FACE_OUTER_BOUND('',#1552,.F.);
#1554=ADVANCED_FACE('',(#1553),#1544,.F.);
#1555=CARTESIAN_POINT('',(-1.2E0,1.069E1,-1.02E0));
#1556=DIRECTION('',(-1.E0,0.E0,0.E0));
#1557=DIRECTION('',(0.E0,-1.E0,0.E0));
#1558=AXIS2_PLACEMENT_3D('',#1555,#1556,#1557);
#1559=PLANE('',#1558);
#1561=ORIENTED_EDGE('',*,*,#1560,.F.);
#1563=ORIENTED_EDGE('',*,*,#1562,.T.);
#1565=ORIENTED_EDGE('',*,*,#1564,.F.);
#1566=ORIENTED_EDGE('',*,*,#1545,.F.);
#1567=EDGE_LOOP('',(#1561,#1563,#1565,#1566));
#1568=FACE_OUTER_BOUND('',#1567,.F.);
#1569=ADVANCED_FACE('',(#1568),#1559,.F.);
#1570=CARTESIAN_POINT('',(-1.E0,9.49E0,-1.02E0));
#1571=DIRECTION('',(0.E0,0.E0,1.E0));
#1572=DIRECTION('',(0.E0,-1.E0,0.E0));
#1573=AXIS2_PLACEMENT_3D('',#1570,#1571,#1572);
#1574=CYLINDRICAL_SURFACE('',#1573,2.E-1);
#1575=ORIENTED_EDGE('',*,*,#1560,.T.);
#1577=ORIENTED_EDGE('',*,*,#1576,.F.);
#1578=ORIENTED_EDGE('',*,*,#1478,.T.);
#1579=ORIENTED_EDGE('',*,*,#1505,.F.);
#1580=EDGE_LOOP('',(#1575,#1577,#1578,#1579));
#1581=FACE_OUTER_BOUND('',#1580,.F.);
#1582=ADVANCED_FACE('',(#1581),#1574,.F.);
#1583=CARTESIAN_POINT('',(-1.220441033388E0,9.286515969180E0,-1.52E0));
#1584=DIRECTION('',(0.E0,0.E0,1.E0));
#1585=DIRECTION('',(0.E0,-1.E0,0.E0));
#1586=AXIS2_PLACEMENT_3D('',#1583,#1584,#1585);
#1587=PLANE('',#1586);
#1588=ORIENTED_EDGE('',*,*,#1576,.T.);
#1589=ORIENTED_EDGE('',*,*,#1550,.F.);
#1590=ORIENTED_EDGE('',*,*,#1520,.T.);
#1591=ORIENTED_EDGE('',*,*,#1462,.T.);
#1592=EDGE_LOOP('',(#1588,#1589,#1590,#1591));
#1593=FACE_OUTER_BOUND('',#1592,.F.);
#1594=ADVANCED_FACE('',(#1593),#1587,.F.);
#1595=CARTESIAN_POINT('',(-1.3E0,1.009E1,-1.02E0));
#1596=DIRECTION('',(0.E0,0.E0,-1.E0));
#1597=DIRECTION('',(0.E0,-1.E0,0.E0));
#1598=AXIS2_PLACEMENT_3D('',#1595,#1596,#1597);
#1599=PLANE('',#1598);
#1601=ORIENTED_EDGE('',*,*,#1600,.T.);
#1602=ORIENTED_EDGE('',*,*,#1562,.F.);
#1603=ORIENTED_EDGE('',*,*,#1503,.T.);
#1604=ORIENTED_EDGE('',*,*,#1535,.T.);
#1605=EDGE_LOOP('',(#1601,#1602,#1603,#1604));
#1606=FACE_OUTER_BOUND('',#1605,.F.);
#1607=ADVANCED_FACE('',(#1606),#1599,.F.);
#1608=CARTESIAN_POINT('',(-1.3E0,1.069E1,-1.27E0));
#1609=DIRECTION('',(0.E0,-1.E0,0.E0));
#1610=DIRECTION('',(0.E0,0.E0,-1.E0));
#1611=AXIS2_PLACEMENT_3D('',#1608,#1609,#1610);
#1612=PLANE('',#1611);
#1613=ORIENTED_EDGE('',*,*,#1564,.T.);
#1614=ORIENTED_EDGE('',*,*,#1600,.F.);
#1615=ORIENTED_EDGE('',*,*,#1533,.F.);
#1616=ORIENTED_EDGE('',*,*,#1547,.T.);
#1617=EDGE_LOOP('',(#1613,#1614,#1615,#1616));
#1618=FACE_OUTER_BOUND('',#1617,.F.);
#1619=ADVANCED_FACE('',(#1618),#1612,.F.);
#1620=CARTESIAN_POINT('',(-1.E-1,1.5E0,-1.02E0));
#1621=DIRECTION('',(0.E0,0.E0,1.E0));
#1622=DIRECTION('',(0.E0,-1.E0,0.E0));
#1623=AXIS2_PLACEMENT_3D('',#1620,#1621,#1622);
#1624=PLANE('',#1623);
#1626=ORIENTED_EDGE('',*,*,#1625,.F.);
#1627=ORIENTED_EDGE('',*,*,#1270,.F.);
#1628=ORIENTED_EDGE('',*,*,#1422,.F.);
#1629=ORIENTED_EDGE('',*,*,#1188,.F.);
#1630=EDGE_LOOP('',(#1626,#1627,#1628,#1629));
#1631=FACE_OUTER_BOUND('',#1630,.F.);
#1632=ADVANCED_FACE('',(#1631),#1624,.T.);
#1633=CARTESIAN_POINT('',(2.666602918499E-2,1.6E0,-8.2E-1));
#1634=DIRECTION('',(-1.E0,0.E0,0.E0));
#1635=DIRECTION('',(0.E0,0.E0,-1.E0));
#1636=AXIS2_PLACEMENT_3D('',#1633,#1634,#1635);
#1637=CYLINDRICAL_SURFACE('',#1636,2.E-1);
#1638=ORIENTED_EDGE('',*,*,#1625,.T.);
#1639=ORIENTED_EDGE('',*,*,#1186,.F.);
#1641=ORIENTED_EDGE('',*,*,#1640,.T.);
#1642=ORIENTED_EDGE('',*,*,#1272,.F.);
#1643=EDGE_LOOP('',(#1638,#1639,#1641,#1642));
#1644=FACE_OUTER_BOUND('',#1643,.F.);
#1645=ADVANCED_FACE('',(#1644),#1637,.F.);
#1646=CARTESIAN_POINT('',(-1.E-1,1.4E0,-3.85E-1));
#1647=DIRECTION('',(0.E0,1.E0,0.E0));
#1648=DIRECTION('',(0.E0,0.E0,1.E0));
#1649=AXIS2_PLACEMENT_3D('',#1646,#1647,#1648);
#1650=PLANE('',#1649);
#1651=ORIENTED_EDGE('',*,*,#1224,.F.);
#1652=ORIENTED_EDGE('',*,*,#1274,.F.);
#1653=ORIENTED_EDGE('',*,*,#1640,.F.);
#1654=ORIENTED_EDGE('',*,*,#1184,.F.);
#1655=EDGE_LOOP('',(#1651,#1652,#1653,#1654));
#1656=FACE_OUTER_BOUND('',#1655,.F.);
#1657=ADVANCED_FACE('',(#1656),#1650,.T.);
#1658=CLOSED_SHELL('',(#860,#875,#897,#914,#935,#954,#969,#984,#998,#1013,#1029,
#1046,#1061,#1075,#1095,#1108,#1124,#1137,#1148,#1161,#1176,#1214,#1229,#1242,
#1278,#1291,#1304,#1317,#1330,#1343,#1356,#1369,#1382,#1397,#1411,#1426,#1439,
#1454,#1468,#1482,#1495,#1510,#1524,#1539,#1554,#1569,#1582,#1594,#1607,#1619,
#1632,#1645,#1657));
#1659=MANIFOLD_SOLID_BREP('',#1658);
#1660=(LENGTH_UNIT()NAMED_UNIT(*)SI_UNIT(.MILLI.,.METRE.));
#1661=DIMENSIONAL_EXPONENTS(0.E0,0.E0,0.E0,0.E0,0.E0,0.E0,0.E0);
#1662=(NAMED_UNIT(*)PLANE_ANGLE_UNIT()SI_UNIT($,.RADIAN.));
#1663=PLANE_ANGLE_MEASURE_WITH_UNIT(PLANE_ANGLE_MEASURE(1.745329251994E-2),
#1662);
#1664=(CONVERSION_BASED_UNIT('DEGREE',#1663)NAMED_UNIT(#1661)PLANE_ANGLE_UNIT(
));
#1665=(NAMED_UNIT(*)SI_UNIT($,.STERADIAN.)SOLID_ANGLE_UNIT());
#1666=UNCERTAINTY_MEASURE_WITH_UNIT(LENGTH_MEASURE(1.623631355031E-3),#1660,
'closure',
'Maximum model space distance between geometric entities at asserted connectivities');
#1667=(GEOMETRIC_REPRESENTATION_CONTEXT(3)GLOBAL_UNCERTAINTY_ASSIGNED_CONTEXT((
#1666))GLOBAL_UNIT_ASSIGNED_CONTEXT((#1660,#1664,#1665))REPRESENTATION_CONTEXT(
'ID1','3'));
#1669=APPLICATION_CONTEXT(
'CONFIGURATION CONTROLLED 3D DESIGNS OF MECHANICAL PARTS AND ASSEMBLIES');
#1670=APPLICATION_PROTOCOL_DEFINITION('international standard',
'config_control_design',1994,#1669);
#1671=DESIGN_CONTEXT('',#1669,'design');
#1672=MECHANICAL_CONTEXT('',#1669,'mechanical');
#1673=PRODUCT('T-DSC20-200X00-2_1_PRT','T-DSC20-200X00-2_1_PRT','NOT SPECIFIED',
(#1672));
#1674=PRODUCT_DEFINITION_FORMATION_WITH_SPECIFIED_SOURCE('1','LAST_VERSION',
#1673,.MADE.);
#1678=PRODUCT_CATEGORY('part','');
#1679=PRODUCT_RELATED_PRODUCT_CATEGORY('detail','',(#1673));
#1680=PRODUCT_CATEGORY_RELATIONSHIP('','',#1678,#1679);
#1681=SECURITY_CLASSIFICATION_LEVEL('unclassified');
#1682=SECURITY_CLASSIFICATION('','',#1681);
#1683=CC_DESIGN_SECURITY_CLASSIFICATION(#1682,(#1674));
#1684=APPROVAL_STATUS('approved');
#1685=APPROVAL(#1684,'');
#1686=CC_DESIGN_APPROVAL(#1685,(#1682,#1674,#1675));
#1687=CALENDAR_DATE(108,30,6);
#1688=COORDINATED_UNIVERSAL_TIME_OFFSET(3,0,.BEHIND.);
#1689=LOCAL_TIME(11,3,4.2E1,#1688);
#1690=DATE_AND_TIME(#1687,#1689);
#1691=APPROVAL_DATE_TIME(#1690,#1685);
#1692=DATE_TIME_ROLE('creation_date');
#1693=CC_DESIGN_DATE_AND_TIME_ASSIGNMENT(#1690,#1692,(#1675));
#1694=DATE_TIME_ROLE('classification_date');
#1695=CC_DESIGN_DATE_AND_TIME_ASSIGNMENT(#1690,#1694,(#1682));
#1696=PERSON('UNSPECIFIED','UNSPECIFIED',$,$,$,$);
#1697=ORGANIZATION('UNSPECIFIED','UNSPECIFIED','UNSPECIFIED');
#1698=PERSON_AND_ORGANIZATION(#1696,#1697);
#1699=APPROVAL_ROLE('approver');
#1700=APPROVAL_PERSON_ORGANIZATION(#1698,#1685,#1699);
#1701=PERSON_AND_ORGANIZATION_ROLE('creator');
#1702=CC_DESIGN_PERSON_AND_ORGANIZATION_ASSIGNMENT(#1698,#1701,(#1674,#1675));
#1703=PERSON_AND_ORGANIZATION_ROLE('design_supplier');
#1704=CC_DESIGN_PERSON_AND_ORGANIZATION_ASSIGNMENT(#1698,#1703,(#1674));
#1705=PERSON_AND_ORGANIZATION_ROLE('classification_officer');
#1706=CC_DESIGN_PERSON_AND_ORGANIZATION_ASSIGNMENT(#1698,#1705,(#1682));
#1707=PERSON_AND_ORGANIZATION_ROLE('design_owner');
#1708=CC_DESIGN_PERSON_AND_ORGANIZATION_ASSIGNMENT(#1698,#1707,(#1673));
#11=B_SPLINE_CURVE_WITH_KNOTS('',3,(#5,#6,#7,#8,#9,#10),.UNSPECIFIED.,.F.,.F.,
(4,1,1,4),(0.E0,3.333333333333E-1,6.666666666667E-1,1.E0),.UNSPECIFIED.);
#28=B_SPLINE_CURVE_WITH_KNOTS('',3,(#20,#21,#22,#23,#24,#25,#26,#27),
.UNSPECIFIED.,.F.,.F.,(4,1,1,1,1,4),(0.E0,2.E-1,4.E-1,6.E-1,8.E-1,1.E0),
.UNSPECIFIED.);
#37=B_SPLINE_CURVE_WITH_KNOTS('',3,(#29,#30,#31,#32,#33,#34,#35,#36),
.UNSPECIFIED.,.F.,.F.,(4,1,1,1,1,4),(0.E0,2.E-1,4.E-1,6.E-1,8.E-1,1.E0),
.UNSPECIFIED.);
#44=B_SPLINE_CURVE_WITH_KNOTS('',3,(#38,#39,#40,#41,#42,#43),.UNSPECIFIED.,.F.,
.F.,(4,1,1,4),(0.E0,3.333333333333E-1,6.666666666667E-1,1.E0),.UNSPECIFIED.);
#51=B_SPLINE_CURVE_WITH_KNOTS('',3,(#45,#46,#47,#48,#49,#50),.UNSPECIFIED.,.F.,
.F.,(4,1,1,4),(0.E0,3.333333333333E-1,6.666666666667E-1,1.E0),.UNSPECIFIED.);
#60=B_SPLINE_CURVE_WITH_KNOTS('',3,(#52,#53,#54,#55,#56,#57,#58,#59),
.UNSPECIFIED.,.F.,.F.,(4,1,1,1,1,4),(0.E0,2.E-1,4.E-1,6.E-1,8.E-1,1.E0),
.UNSPECIFIED.);
#88=B_SPLINE_CURVE_WITH_KNOTS('',3,(#61,#62,#63,#64,#65,#66,#67,#68,#69,#70,#71,
#72,#73,#74,#75,#76,#77,#78,#79,#80,#81,#82,#83,#84,#85,#86,#87),.UNSPECIFIED.,
.F.,.F.,(4,1,1,1,1,1,1,1,1,1,1,1,1,1,1,1,1,1,1,1,1,1,1,1,4),(0.E0,
4.166666666667E-2,8.333333333333E-2,1.25E-1,1.666666666667E-1,2.083333333333E-1,
2.5E-1,2.916666666667E-1,3.333333333333E-1,3.75E-1,4.166666666667E-1,
4.583333333333E-1,5.E-1,5.416666666667E-1,5.833333333333E-1,6.25E-1,
6.666666666667E-1,7.083333333333E-1,7.5E-1,7.916666666667E-1,8.333333333333E-1,
8.75E-1,9.166666666667E-1,9.583333333333E-1,1.E0),.UNSPECIFIED.);
#99=B_SPLINE_CURVE_WITH_KNOTS('',3,(#93,#94,#95,#96,#97,#98),.UNSPECIFIED.,.F.,
.F.,(4,1,1,4),(0.E0,3.333333333333E-1,6.666666666667E-1,1.E0),.UNSPECIFIED.);
#106=B_SPLINE_CURVE_WITH_KNOTS('',3,(#100,#101,#102,#103,#104,#105),
.UNSPECIFIED.,.F.,.F.,(4,1,1,4),(0.E0,3.333333333333E-1,6.666666666667E-1,1.E0),
.UNSPECIFIED.);
#111=CIRCLE('',#110,8.415164964011E-1);
#116=CIRCLE('',#115,8.415164964011E-1);
#121=CIRCLE('',#120,8.415164964011E-1);
#128=B_SPLINE_CURVE_WITH_KNOTS('',3,(#122,#123,#124,#125,#126,#127),
.UNSPECIFIED.,.F.,.F.,(4,1,1,4),(0.E0,3.333333333333E-1,6.666666666667E-1,1.E0),
.UNSPECIFIED.);
#133=CIRCLE('',#132,9.823905279042E-1);
#138=CIRCLE('',#137,9.823905279042E-1);
#159=CIRCLE('',#158,4.E-1);
#164=CIRCLE('',#163,6.E-1);
#177=CIRCLE('',#176,9.823905279044E-1);
#182=CIRCLE('',#181,9.823905279044E-1);
#199=B_SPLINE_CURVE_WITH_KNOTS('',3,(#187,#188,#189,#190,#191,#192,#193,#194,
#195,#196,#197,#198),.UNSPECIFIED.,.F.,.F.,(4,1,1,1,1,1,1,1,1,4),(0.E0,
1.111111111111E-1,2.222222222222E-1,3.333333333333E-1,4.444444444444E-1,
5.555555555556E-1,6.666666666667E-1,7.777777777778E-1,8.888888888889E-1,1.E0),
.UNSPECIFIED.);
#212=B_SPLINE_CURVE_WITH_KNOTS('',3,(#200,#201,#202,#203,#204,#205,#206,#207,
#208,#209,#210,#211),.UNSPECIFIED.,.F.,.F.,(4,1,1,1,1,1,1,1,1,4),(0.E0,
1.111111111111E-1,2.222222222222E-1,3.333333333333E-1,4.444444444444E-1,
5.555555555556E-1,6.666666666667E-1,7.777777777778E-1,8.888888888889E-1,1.E0),
.UNSPECIFIED.);
#217=CIRCLE('',#216,3.874035866339E-1);
#222=CIRCLE('',#221,5.5E-1);
#227=CIRCLE('',#226,3.874035866337E-1);
#232=CIRCLE('',#231,4.898979485566E-1);
#237=CIRCLE('',#236,4.898979485566E-1);
#242=CIRCLE('',#241,3.874035866337E-1);
#247=CIRCLE('',#246,5.5E-1);
#252=CIRCLE('',#251,3.874035866339E-1);
#267=B_SPLINE_CURVE_WITH_KNOTS('',3,(#261,#262,#263,#264,#265,#266),
.UNSPECIFIED.,.F.,.F.,(4,1,1,4),(0.E0,3.333333333333E-1,6.666666666667E-1,1.E0),
.UNSPECIFIED.);
#280=B_SPLINE_CURVE_WITH_KNOTS('',3,(#272,#273,#274,#275,#276,#277,#278,#279),
.UNSPECIFIED.,.F.,.F.,(4,1,1,1,1,4),(0.E0,2.E-1,4.E-1,6.E-1,8.E-1,1.E0),
.UNSPECIFIED.);
#287=B_SPLINE_CURVE_WITH_KNOTS('',3,(#281,#282,#283,#284,#285,#286),
.UNSPECIFIED.,.F.,.F.,(4,1,1,4),(0.E0,3.333333333333E-1,6.666666666667E-1,1.E0),
.UNSPECIFIED.);
#320=B_SPLINE_CURVE_WITH_KNOTS('',3,(#292,#293,#294,#295,#296,#297,#298,#299,
#300,#301,#302,#303,#304,#305,#306,#307,#308,#309,#310,#311,#312,#313,#314,#315,
#316,#317,#318,#319),.UNSPECIFIED.,.F.,.F.,(4,1,1,1,1,1,1,1,1,1,1,1,1,1,1,1,1,1,
1,1,1,1,1,1,1,4),(0.E0,4.E-2,8.E-2,1.2E-1,1.6E-1,2.E-1,2.4E-1,2.8E-1,3.2E-1,
3.6E-1,4.E-1,4.4E-1,4.8E-1,5.2E-1,5.6E-1,6.E-1,6.4E-1,6.8E-1,7.2E-1,7.6E-1,
8.E-1,8.4E-1,8.8E-1,9.2E-1,9.6E-1,1.E0),.UNSPECIFIED.);
#325=CIRCLE('',#324,3.5E-1);
#330=CIRCLE('',#329,2.465295551306E-1);
#335=CIRCLE('',#334,3.5E-1);
#340=CIRCLE('',#339,2.465295551306E-1);
#349=CIRCLE('',#348,6.E-1);
#358=CIRCLE('',#357,4.E-1);
#367=CIRCLE('',#366,2.E-1);
#376=CIRCLE('',#375,2.E-1);
#389=CIRCLE('',#388,2.E-1);
#398=CIRCLE('',#397,2.E-1);
#435=CIRCLE('',#434,2.E-1);
#448=CIRCLE('',#447,2.E-1);
#453=CIRCLE('',#452,2.E-1);
#466=CIRCLE('',#465,2.E-1);
#527=CIRCLE('',#526,4.E-1);
#536=CIRCLE('',#535,2.E-1);
#553=CIRCLE('',#552,2.E-1);
#558=CIRCLE('',#557,4.E-1);
#595=CIRCLE('',#594,4.E-1);
#600=CIRCLE('',#599,2.E-1);
#645=CIRCLE('',#644,2.E-1);
#650=CIRCLE('',#649,4.E-1);
#840=EDGE_CURVE('',#685,#686,#4,.T.);
#842=EDGE_CURVE('',#686,#687,#11,.T.);
#844=EDGE_CURVE('',#689,#687,#232,.T.);
#846=EDGE_CURVE('',#690,#689,#199,.T.);
#848=EDGE_CURVE('',#690,#692,#15,.T.);
#850=EDGE_CURVE('',#694,#692,#154,.T.);
#852=EDGE_CURVE('',#696,#694,#142,.T.);
#854=EDGE_CURVE('',#697,#696,#128,.T.);
#856=EDGE_CURVE('',#685,#697,#88,.T.);
#866=EDGE_CURVE('',#686,#698,#28,.T.);
#869=EDGE_CURVE('',#699,#685,#60,.T.);
#871=EDGE_CURVE('',#699,#698,#19,.T.);
#882=EDGE_CURVE('',#708,#698,#51,.T.);
#884=EDGE_CURVE('',#709,#708,#44,.T.);
#886=EDGE_CURVE('',#709,#710,#37,.T.);
#888=EDGE_CURVE('',#711,#710,#267,.T.);
#890=EDGE_CURVE('',#713,#711,#252,.T.);
#892=EDGE_CURVE('',#687,#713,#217,.T.);
#904=EDGE_CURVE('',#730,#699,#99,.T.);
#906=EDGE_CURVE('',#729,#730,#287,.T.);
#908=EDGE_CURVE('',#709,#729,#271,.T.);
#922=EDGE_CURVE('',#732,#697,#121,.T.);
#924=EDGE_CURVE('',#734,#732,#116,.T.);
#926=EDGE_CURVE('',#736,#734,#291,.T.);
#928=EDGE_CURVE('',#738,#736,#340,.T.);
#930=EDGE_CURVE('',#738,#730,#92,.T.);
#941=EDGE_CURVE('',#740,#696,#138,.T.);
#943=EDGE_CURVE('',#727,#740,#133,.T.);
#945=EDGE_CURVE('',#727,#726,#106,.T.);
#947=EDGE_CURVE('',#726,#734,#111,.T.);
#960=EDGE_CURVE('',#721,#694,#146,.T.);
#962=EDGE_CURVE('',#727,#721,#260,.T.);
#976=EDGE_CURVE('',#742,#694,#164,.T.);
#978=EDGE_CURVE('',#742,#723,#150,.T.);
#980=EDGE_CURVE('',#721,#723,#349,.T.);
#991=EDGE_CURVE('',#692,#719,#159,.T.);
#993=EDGE_CURVE('',#742,#719,#478,.T.);
#1004=EDGE_CURVE('',#692,#715,#168,.T.);
#1006=EDGE_CURVE('',#717,#715,#358,.T.);
#1008=EDGE_CURVE('',#717,#719,#172,.T.);
#1021=EDGE_CURVE('',#690,#702,#177,.T.);
#1023=EDGE_CURVE('',#702,#703,#182,.T.);
#1025=EDGE_CURVE('',#703,#715,#186,.T.);
#1038=EDGE_CURVE('',#705,#689,#227,.T.);
#1040=EDGE_CURVE('',#707,#705,#242,.T.);
#1042=EDGE_CURVE('',#707,#703,#212,.T.);
#1053=EDGE_CURVE('',#834,#713,#247,.T.);
#1055=EDGE_CURVE('',#834,#705,#222,.T.);
#1067=EDGE_CURVE('',#711,#707,#237,.T.);
#1081=EDGE_CURVE('',#710,#725,#256,.T.);
#1083=EDGE_CURVE('',#726,#725,#320,.T.);
#1087=EDGE_CURVE('',#715,#721,#344,.T.);
#1103=EDGE_CURVE('',#725,#729,#280,.T.);
#1117=EDGE_CURVE('',#736,#738,#330,.T.);
#1130=EDGE_CURVE('',#832,#738,#335,.T.);
#1132=EDGE_CURVE('',#832,#736,#325,.T.);
#1156=EDGE_CURVE('',#723,#717,#353,.T.);
#1167=EDGE_CURVE('',#717,#772,#414,.T.);
#1170=EDGE_CURVE('',#778,#723,#439,.T.);
#1172=EDGE_CURVE('',#778,#772,#362,.T.);
#1182=EDGE_CURVE('',#749,#750,#367,.T.);
#1184=EDGE_CURVE('',#750,#752,#371,.T.);
#1186=EDGE_CURVE('',#752,#754,#376,.T.);
#1188=EDGE_CURVE('',#754,#756,#380,.T.);
#1190=EDGE_CURVE('',#758,#756,#544,.T.);
#1192=EDGE_CURVE('',#760,#758,#518,.T.);
#1194=EDGE_CURVE('',#760,#762,#384,.T.);
#1196=EDGE_CURVE('',#762,#764,#389,.T.);
#1198=EDGE_CURVE('',#764,#766,#393,.T.);
#1200=EDGE_CURVE('',#766,#768,#398,.T.);
#1202=EDGE_CURVE('',#768,#770,#402,.T.);
#1204=EDGE_CURVE('',#770,#744,#406,.T.);
#1206=EDGE_CURVE('',#744,#719,#410,.T.);
#1210=EDGE_CURVE('',#772,#749,#418,.T.);
#1220=EDGE_CURVE('',#749,#774,#422,.T.);
#1222=EDGE_CURVE('',#776,#774,#435,.T.);
#1224=EDGE_CURVE('',#776,#750,#426,.T.);
#1238=EDGE_CURVE('',#778,#774,#430,.T.);
#1252=EDGE_CURVE('',#746,#742,#474,.T.);
#1254=EDGE_CURVE('',#746,#780,#443,.T.);
#1256=EDGE_CURVE('',#782,#780,#486,.T.);
#1258=EDGE_CURVE('',#782,#784,#448,.T.);
#1260=EDGE_CURVE('',#786,#784,#502,.T.);
#1262=EDGE_CURVE('',#786,#788,#453,.T.);
#1264=EDGE_CURVE('',#790,#788,#514,.T.);
#1266=EDGE_CURVE('',#790,#792,#457,.T.);
#1268=EDGE_CURVE('',#794,#792,#570,.T.);
#1270=EDGE_CURVE('',#794,#796,#461,.T.);
#1272=EDGE_CURVE('',#796,#798,#466,.T.);
#1274=EDGE_CURVE('',#798,#776,#470,.T.);
#1285=EDGE_CURVE('',#746,#744,#482,.T.);
#1298=EDGE_CURVE('',#780,#770,#490,.T.);
#1310=EDGE_CURVE('',#782,#768,#494,.T.);
#1325=EDGE_CURVE('',#766,#784,#498,.T.);
#1336=EDGE_CURVE('',#786,#764,#510,.T.);
#1349=EDGE_CURVE('',#762,#788,#506,.T.);
#1364=EDGE_CURVE('',#790,#760,#522,.T.);
#1376=EDGE_CURVE('',#792,#758,#540,.T.);
#1388=EDGE_CURVE('',#758,#800,#527,.T.);
#1390=EDGE_CURVE('',#800,#802,#531,.T.);
#1392=EDGE_CURVE('',#802,#792,#536,.T.);
#1405=EDGE_CURVE('',#804,#756,#558,.T.);
#1407=EDGE_CURVE('',#804,#800,#548,.T.);
#1417=EDGE_CURVE('',#794,#806,#553,.T.);
#1419=EDGE_CURVE('',#804,#806,#590,.T.);
#1422=EDGE_CURVE('',#756,#794,#562,.T.);
#1433=EDGE_CURVE('',#802,#806,#566,.T.);
#1445=EDGE_CURVE('',#802,#808,#574,.T.);
#1447=EDGE_CURVE('',#810,#808,#612,.T.);
#1449=EDGE_CURVE('',#806,#810,#586,.T.);
#1460=EDGE_CURVE('',#800,#812,#578,.T.);
#1462=EDGE_CURVE('',#808,#812,#654,.T.);
#1476=EDGE_CURVE('',#804,#814,#582,.T.);
#1478=EDGE_CURVE('',#812,#814,#640,.T.);
#1489=EDGE_CURVE('',#814,#810,#604,.T.);
#1501=EDGE_CURVE('',#810,#816,#595,.T.);
#1503=EDGE_CURVE('',#818,#816,#662,.T.);
#1505=EDGE_CURVE('',#818,#814,#600,.T.);
#1516=EDGE_CURVE('',#820,#816,#608,.T.);
#1520=EDGE_CURVE('',#820,#808,#650,.T.);
#1531=EDGE_CURVE('',#820,#822,#616,.T.);
#1533=EDGE_CURVE('',#822,#824,#620,.T.);
#1535=EDGE_CURVE('',#816,#824,#666,.T.);
#1545=EDGE_CURVE('',#827,#828,#624,.T.);
#1547=EDGE_CURVE('',#822,#828,#674,.T.);
#1550=EDGE_CURVE('',#820,#827,#628,.T.);
#1560=EDGE_CURVE('',#818,#827,#636,.T.);
#1562=EDGE_CURVE('',#818,#830,#632,.T.);
#1564=EDGE_CURVE('',#828,#830,#670,.T.);
#1576=EDGE_CURVE('',#812,#827,#645,.T.);
#1600=EDGE_CURVE('',#824,#830,#658,.T.);
#1625=EDGE_CURVE('',#796,#754,#678,.T.);
#1640=EDGE_CURVE('',#752,#798,#682,.T.);
#1668=ADVANCED_BREP_SHAPE_REPRESENTATION('',(#1659),#1667);
#1675=PRODUCT_DEFINITION('design','',#1674,#1671);
#1676=PRODUCT_DEFINITION_SHAPE('','SHAPE FOR T-DSC20-200X00-2_1_PRT.',#1675);
#1677=SHAPE_DEFINITION_REPRESENTATION(#1676,#1668);
ENDSEC;
END-ISO-10303-21;
