ISO-10303-21;
HEADER;
FILE_DESCRIPTION((''),'2;1');
FILE_NAME('T-DSC20-400X00_1_PRT','2008-06-30T',('GRA'),(''),
'PRO/ENGINEER BY PARAMETRIC TECHNOLOGY CORPORATION, 2006170',
'PRO/ENGINEER BY PARAMETRIC TECHNOLOGY CORPORATION, 2006170','');
FILE_SCHEMA(('CONFIG_CONTROL_DESIGN'));
ENDSEC;
DATA;
#1=CARTESIAN_POINT('',(-5.012205380508E0,7.956517420630E-1,-2.E-1));
#2=DIRECTION('',(6.322678835882E-1,-7.747498456811E-1,0.E0));
#3=DIRECTION('',(-3.873749228397E-1,-3.161339417934E-1,8.660254037851E-1));
#4=AXIS2_PLACEMENT_3D('',#1,#2,#3);
#6=CARTESIAN_POINT('',(-5.012205380508E0,7.956517420630E-1,-3.E-1));
#7=DIRECTION('',(6.322678835883E-1,-7.747498456811E-1,0.E0));
#8=DIRECTION('',(-7.747498456811E-1,-6.322678835883E-1,2.196604009796E-11));
#9=AXIS2_PLACEMENT_3D('',#6,#7,#8);
#11=DIRECTION('',(-6.322678835892E-1,7.747498456803E-1,-1.201631386986E-11));
#12=VECTOR('',#11,1.5E-1);
#13=CARTESIAN_POINT('',(-5.072315167106E0,5.529856884934E-1,
-1.999999999997E-1));
#14=LINE('',#13,#12);
#15=CARTESIAN_POINT('',(-4.917365197970E0,6.794392652110E-1,-2.E-1));
#16=DIRECTION('',(-6.322678835882E-1,7.747498456811E-1,0.E0));
#17=DIRECTION('',(-7.747498456811E-1,-6.322678835882E-1,5.065253771974E-12));
#18=AXIS2_PLACEMENT_3D('',#15,#16,#17);
#20=CARTESIAN_POINT('',(-4.917365197970E0,6.794392652110E-1,-3.E-1));
#21=DIRECTION('',(-6.322678835883E-1,7.747498456811E-1,0.E0));
#22=DIRECTION('',(-3.873749228401E-1,-3.161339417938E-1,-8.660254037848E-1));
#23=AXIS2_PLACEMENT_3D('',#20,#21,#22);
#25=DIRECTION('',(-3.552713678776E-14,3.552713678776E-14,1.E0));
#26=VECTOR('',#25,1.000000000007E-1);
#27=CARTESIAN_POINT('',(-5.072315167106E0,5.529856884934E-1,
-3.000000000003E-1));
#28=LINE('',#27,#26);
#29=CARTESIAN_POINT('',(-4.994840182538E0,6.162124768521E-1,
-2.679491924316E-2));
#30=CARTESIAN_POINT('',(-4.986384371073E0,6.231132049372E-1,
-2.049357558652E-2));
#31=CARTESIAN_POINT('',(-4.967388519286E0,6.357488508921E-1,
-1.005338966256E-2));
#32=CARTESIAN_POINT('',(-4.930035081724E0,6.486659712738E-1,
-1.116507039620E-3));
#33=CARTESIAN_POINT('',(-4.905437892290E0,6.503999393785E-1,
-2.096981418700E-14));
#34=CARTESIAN_POINT('',(-4.893214713817E0,6.498464543838E-1,0.E0));
#36=DIRECTION('',(0.E0,0.E0,-1.E0));
#37=VECTOR('',#36,5.E-1);
#38=CARTESIAN_POINT('',(-4.846777134078E0,6.402402458037E-1,0.E0));
#39=LINE('',#38,#37);
#40=CARTESIAN_POINT('',(-4.893214713817E0,6.498464543839E-1,-5.E-1));
#41=CARTESIAN_POINT('',(-4.905445798501E0,6.504002973844E-1,-5.E-1));
#42=CARTESIAN_POINT('',(-4.930052088242E0,6.486589539113E-1,
-4.988801333859E-1));
#43=CARTESIAN_POINT('',(-4.967347819770E0,6.357665868118E-1,
-4.899582415900E-1));
#44=CARTESIAN_POINT('',(-4.986371549044E0,6.231236689050E-1,
-4.795159795005E-1));
#45=CARTESIAN_POINT('',(-4.994840182538E0,6.162124768522E-1,
-4.732050807569E-1));
#47=DIRECTION('',(-4.576083927802E-14,-2.934662518916E-14,1.E0));
#48=VECTOR('',#47,4.464101615137E-1);
#49=CARTESIAN_POINT('',(-4.994840182538E0,6.162124768522E-1,
-4.732050807569E-1));
#50=LINE('',#49,#48);
#51=DIRECTION('',(-6.322678835883E-1,7.747498456810E-1,0.E0));
#52=VECTOR('',#51,1.710393135995E-1);
#53=CARTESIAN_POINT('',(-4.893214713817E0,6.498464543838E-1,0.E0));
#54=LINE('',#53,#52);
#55=CARTESIAN_POINT('',(-4.9E0,5.E-1,0.E0));
#56=DIRECTION('',(0.E0,0.E0,-1.E0));
#57=DIRECTION('',(-3.378579287898E-1,9.411971206681E-1,0.E0));
#58=AXIS2_PLACEMENT_3D('',#55,#56,#57);
#60=CARTESIAN_POINT('',(-4.9E0,5.E-1,0.E0));
#61=DIRECTION('',(0.E0,0.E0,1.E0));
#62=DIRECTION('',(3.548191061430E-1,9.349349720253E-1,0.E0));
#63=AXIS2_PLACEMENT_3D('',#60,#61,#62);
#65=CARTESIAN_POINT('',(-5.001357378637E0,7.823591362004E-1,0.E0));
#66=CARTESIAN_POINT('',(-5.012463210888E0,7.783725180953E-1,
-2.557974154838E-14));
#67=CARTESIAN_POINT('',(-5.033950363158E0,7.692384451848E-1,
-1.758912037468E-3));
#68=CARTESIAN_POINT('',(-5.065126633340E0,7.512418658706E-1,
-1.116839671101E-2));
#69=CARTESIAN_POINT('',(-5.081907362470E0,7.387684462966E-1,
-2.100241063893E-2));
#70=CARTESIAN_POINT('',(-5.089680365076E0,7.324249537042E-1,
-2.679491924324E-2));
#72=DIRECTION('',(9.152167855607E-14,6.714905763624E-14,-1.E0));
#73=VECTOR('',#72,4.464101615136E-1);
#74=CARTESIAN_POINT('',(-5.089680365076E0,7.324249537042E-1,
-2.679491924324E-2));
#75=LINE('',#74,#73);
#76=CARTESIAN_POINT('',(-5.089680365076E0,7.324249537042E-1,
-4.732050807568E-1));
#77=CARTESIAN_POINT('',(-5.081907922999E0,7.387679888527E-1,
-4.789971716499E-1));
#78=CARTESIAN_POINT('',(-5.065127319756E0,7.512404247636E-1,
-4.888296955153E-1));
#79=CARTESIAN_POINT('',(-5.033976092569E0,7.692252392411E-1,
-4.982359681932E-1));
#80=CARTESIAN_POINT('',(-5.012474953002E0,7.783683030737E-1,-5.E-1));
#81=CARTESIAN_POINT('',(-5.001357378637E0,7.823591362005E-1,-5.E-1));
#83=DIRECTION('',(0.E0,0.E0,1.E0));
#84=VECTOR('',#83,5.E-1);
#85=CARTESIAN_POINT('',(-4.793554268157E0,7.804804916074E-1,-5.E-1));
#86=LINE('',#85,#84);
#87=DIRECTION('',(6.322678835892E-1,-7.747498456803E-1,-1.201964453893E-11));
#88=VECTOR('',#87,1.5E-1);
#89=CARTESIAN_POINT('',(-5.167155349644E0,6.691981653454E-1,
-2.999999999985E-1));
#90=LINE('',#89,#88);
#91=DIRECTION('',(0.E0,5.995204333151E-14,1.E0));
#92=VECTOR('',#91,9.999999999707E-2);
#93=CARTESIAN_POINT('',(-5.167155349644E0,6.691981653454E-1,
-2.999999999985E-1));
#94=LINE('',#93,#92);
#95=CARTESIAN_POINT('',(-4.9E0,5.E-1,-5.E-1));
#96=DIRECTION('',(0.E0,0.E0,1.E0));
#97=DIRECTION('',(3.548191061434E-1,9.349349720251E-1,0.E0));
#98=AXIS2_PLACEMENT_3D('',#95,#96,#97);
#100=DIRECTION('',(6.322678835883E-1,-7.747498456810E-1,0.E0));
#101=VECTOR('',#100,1.710393135995E-1);
#102=CARTESIAN_POINT('',(-5.001357378637E0,7.823591362005E-1,-5.E-1));
#103=LINE('',#102,#101);
#104=CARTESIAN_POINT('',(-4.9E0,5.E-1,-5.E-1));
#105=DIRECTION('',(0.E0,0.E0,-1.E0));
#106=DIRECTION('',(4.523524121963E-2,9.989763625591E-1,0.E0));
#107=AXIS2_PLACEMENT_3D('',#104,#105,#106);
#109=DIRECTION('',(3.548191061420E-1,9.349349720256E-1,0.E0));
#110=VECTOR('',#109,1.499999999999E-1);
#111=CARTESIAN_POINT('',(-4.846777134078E0,6.402402458037E-1,-5.E-1));
#112=LINE('',#111,#110);
#113=DIRECTION('',(9.349349720250E-1,-3.548191061437E-1,0.E0));
#114=VECTOR('',#113,1.326649916142E0);
#115=CARTESIAN_POINT('',(-4.846777134078E0,6.402402458037E-1,-5.E-1));
#116=LINE('',#115,#114);
#117=DIRECTION('',(9.349349720250E-1,-3.548191061437E-1,0.E0));
#118=VECTOR('',#117,1.326649916142E0);
#119=CARTESIAN_POINT('',(-4.793554268157E0,7.804804916074E-1,-5.E-1));
#120=LINE('',#119,#118);
#121=DIRECTION('',(9.349349720250E-1,-3.548191061437E-1,0.E0));
#122=VECTOR('',#121,1.326649916142E0);
#123=CARTESIAN_POINT('',(-4.793554268157E0,7.804804916074E-1,0.E0));
#124=LINE('',#123,#122);
#125=DIRECTION('',(3.548191061420E-1,9.349349720256E-1,0.E0));
#126=VECTOR('',#125,1.499999999999E-1);
#127=CARTESIAN_POINT('',(-4.846777134078E0,6.402402458037E-1,0.E0));
#128=LINE('',#127,#126);
#129=CARTESIAN_POINT('',(-3.5E0,4.5E-1,0.E0));
#130=DIRECTION('',(0.E0,0.E0,1.E0));
#131=DIRECTION('',(-3.548191061464E-1,-9.349349720240E-1,0.E0));
#132=AXIS2_PLACEMENT_3D('',#129,#130,#131);
#134=CARTESIAN_POINT('',(-3.5E0,4.5E-1,0.E0));
#135=DIRECTION('',(0.E0,0.E0,-1.E0));
#136=DIRECTION('',(5.879711627216E-2,-9.982699530278E-1,0.E0));
#137=AXIS2_PLACEMENT_3D('',#134,#135,#136);
#139=DIRECTION('',(3.548191061420E-1,9.349349720256E-1,0.E0));
#140=VECTOR('',#139,1.499999999999E-1);
#141=CARTESIAN_POINT('',(-3.606445731843E0,1.695195083926E-1,0.E0));
#142=LINE('',#141,#140);
#143=DIRECTION('',(0.E0,0.E0,-1.E0));
#144=VECTOR('',#143,5.E-1);
#145=CARTESIAN_POINT('',(-3.553222865922E0,3.097597541964E-1,0.E0));
#146=LINE('',#145,#144);
#147=DIRECTION('',(0.E0,0.E0,1.E0));
#148=VECTOR('',#147,5.E-1);
#149=CARTESIAN_POINT('',(-3.491180432559E0,3.002595070458E-1,-5.E-1));
#150=LINE('',#149,#148);
#151=CARTESIAN_POINT('',(-3.5E0,4.5E-1,-5.E-1));
#152=DIRECTION('',(0.E0,0.E0,-1.E0));
#153=DIRECTION('',(5.879711627331E-2,-9.982699530277E-1,0.E0));
#154=AXIS2_PLACEMENT_3D('',#151,#152,#153);
#156=DIRECTION('',(-3.548191061420E-1,-9.349349720256E-1,0.E0));
#157=VECTOR('',#156,1.499999999999E-1);
#158=CARTESIAN_POINT('',(-3.553222865922E0,3.097597541964E-1,-5.E-1));
#159=LINE('',#158,#157);
#160=CARTESIAN_POINT('',(-3.5E0,4.5E-1,-5.E-1));
#161=DIRECTION('',(0.E0,0.E0,1.E0));
#162=DIRECTION('',(-3.548191061451E-1,-9.349349720245E-1,0.E0));
#163=AXIS2_PLACEMENT_3D('',#160,#161,#162);
#165=DIRECTION('',(-5.879711626884E-2,9.982699530280E-1,0.E0));
#166=VECTOR('',#165,1.5E-1);
#167=CARTESIAN_POINT('',(-3.482360865119E0,1.505190140916E-1,-5.E-1));
#168=LINE('',#167,#166);
#169=DIRECTION('',(0.E0,0.E0,-1.E0));
#170=VECTOR('',#169,5.E-1);
#171=CARTESIAN_POINT('',(-3.482360865119E0,1.505190140916E-1,0.E0));
#172=LINE('',#171,#170);
#173=DIRECTION('',(1.065814103640E-14,0.E0,1.E0));
#174=VECTOR('',#173,5.E-1);
#175=CARTESIAN_POINT('',(-3.606445731843E0,1.695195083926E-1,-5.E-1));
#176=LINE('',#175,#174);
#177=DIRECTION('',(9.982699530278E-1,5.879711627101E-2,0.E0));
#178=VECTOR('',#177,3.392700162180E0);
#179=CARTESIAN_POINT('',(-3.482360865119E0,1.505190140916E-1,0.E0));
#180=LINE('',#179,#178);
#181=DIRECTION('',(9.982699530278E-1,5.879711627101E-2,0.E0));
#182=VECTOR('',#181,3.397113763769E0);
#183=CARTESIAN_POINT('',(-3.491180432559E0,3.002595070458E-1,0.E0));
#184=LINE('',#183,#182);
#185=DIRECTION('',(-5.879711626884E-2,9.982699530280E-1,0.E0));
#186=VECTOR('',#185,1.5E-1);
#187=CARTESIAN_POINT('',(-3.482360865119E0,1.505190140916E-1,0.E0));
#188=LINE('',#187,#186);
#189=DIRECTION('',(9.982699530278E-1,5.879711627101E-2,0.E0));
#190=VECTOR('',#189,3.397113763769E0);
#191=CARTESIAN_POINT('',(-3.491180432559E0,3.002595070458E-1,-5.E-1));
#192=LINE('',#191,#190);
#193=DIRECTION('',(0.E0,0.E0,1.E0));
#194=VECTOR('',#193,5.E-1);
#195=CARTESIAN_POINT('',(-9.994383517128E-2,5.E-1,-5.E-1));
#196=LINE('',#195,#194);
#197=DIRECTION('',(9.982699530278E-1,5.879711627101E-2,0.E0));
#198=VECTOR('',#197,3.392700162180E0);
#199=CARTESIAN_POINT('',(-3.482360865119E0,1.505190140916E-1,-5.E-1));
#200=LINE('',#199,#198);
#201=DIRECTION('',(-2.941128161231E-2,9.995673946833E-1,0.E0));
#202=VECTOR('',#201,1.500649188818E-1);
#203=CARTESIAN_POINT('',(-9.553023358192E-2,3.5E-1,-5.E-1));
#204=LINE('',#203,#202);
#205=DIRECTION('',(1.E0,1.765800499726E-14,2.253497780603E-14));
#206=VECTOR('',#205,3.300866026591E-1);
#207=CARTESIAN_POINT('',(-9.553023358192E-2,3.5E-1,-5.E-1));
#208=LINE('',#207,#206);
#209=DIRECTION('',(0.E0,1.E0,0.E0));
#210=VECTOR('',#209,1.5E-1);
#211=CARTESIAN_POINT('',(2.345563690772E-1,3.5E-1,-5.E-1));
#212=LINE('',#211,#210);
#213=DIRECTION('',(1.E0,0.E0,-3.245419805913E-14));
#214=VECTOR('',#213,1.4E0);
#215=CARTESIAN_POINT('',(2.E0,3.5E-1,2.5E-1));
#216=LINE('',#215,#214);
#217=DIRECTION('',(7.699985556617E-1,0.E0,6.380456286810E-1));
#218=VECTOR('',#217,3.918215073689E-1);
#219=CARTESIAN_POINT('',(3.4E0,3.5E-1,2.5E-1));
#220=LINE('',#219,#218);
#221=DIRECTION('',(9.135454576429E-1,0.E0,4.067366430752E-1));
#222=VECTOR('',#221,1.508458773230E-1);
#223=CARTESIAN_POINT('',(3.901701994751E0,3.5E-1,4.999999999999E-1));
#224=LINE('',#223,#222);
#225=CARTESIAN_POINT('',(4.080180225092E0,3.5E-1,4.7E-1));
#226=DIRECTION('',(0.E0,1.E0,0.E0));
#227=DIRECTION('',(-4.067366430943E-1,0.E0,9.135454576344E-1));
#228=AXIS2_PLACEMENT_3D('',#225,#226,#227);
#230=DIRECTION('',(7.660444431186E-1,0.E0,-6.427876096870E-1));
#231=VECTOR('',#230,7.250364445482E-2);
#232=CARTESIAN_POINT('',(4.144458986059E0,3.5E-1,5.466044443127E-1));
#233=LINE('',#232,#231);
#234=DIRECTION('',(-7.660444431186E-1,0.E0,-6.427876096870E-1));
#235=VECTOR('',#234,7.250364445395E-2);
#236=CARTESIAN_POINT('',(4.2E0,3.5E-1,-5.E-1));
#237=LINE('',#236,#235);
#238=CARTESIAN_POINT('',(4.080180225092E0,3.5E-1,-4.7E-1));
#239=DIRECTION('',(0.E0,1.E0,0.E0));
#240=DIRECTION('',(6.427876096789E-1,0.E0,-7.660444431254E-1));
#241=AXIS2_PLACEMENT_3D('',#238,#239,#240);
#243=DIRECTION('',(-9.135454576429E-1,0.E0,4.067366430752E-1));
#244=VECTOR('',#243,1.508458773229E-1);
#245=CARTESIAN_POINT('',(4.039506560784E0,3.5E-1,-5.613545457640E-1));
#246=LINE('',#245,#244);
#247=DIRECTION('',(-7.699985556617E-1,0.E0,6.380456286810E-1));
#248=VECTOR('',#247,3.918215073689E-1);
#249=CARTESIAN_POINT('',(3.701701994751E0,3.5E-1,-4.999999999999E-1));
#250=LINE('',#249,#248);
#251=DIRECTION('',(-9.904922731778E-1,0.E0,-1.375683712747E-1));
#252=VECTOR('',#251,1.817278184538E0);
#253=CARTESIAN_POINT('',(2.034556369077E0,3.5E-1,-2.5E-1));
#254=LINE('',#253,#252);
#255=DIRECTION('',(0.E0,0.E0,1.E0));
#256=VECTOR('',#255,5.E-1);
#257=CARTESIAN_POINT('',(-9.553023358192E-2,3.5E-1,-5.E-1));
#258=LINE('',#257,#256);
#259=DIRECTION('',(1.E0,1.953492087113E-14,0.E0));
#260=VECTOR('',#259,2.955302335819E-1);
#261=CARTESIAN_POINT('',(-9.553023358192E-2,3.5E-1,0.E0));
#262=LINE('',#261,#260);
#263=DIRECTION('',(9.904922731778E-1,0.E0,1.375683712747E-1));
#264=VECTOR('',#263,1.817278184539E0);
#265=CARTESIAN_POINT('',(2.E-1,3.5E-1,0.E0));
#266=LINE('',#265,#264);
#267=DIRECTION('',(0.E0,1.E0,0.E0));
#268=VECTOR('',#267,1.5E-1);
#269=CARTESIAN_POINT('',(2.E0,3.5E-1,2.5E-1));
#270=LINE('',#269,#268);
#271=DIRECTION('',(0.E0,1.E0,0.E0));
#272=VECTOR('',#271,1.5E-1);
#273=CARTESIAN_POINT('',(2.E-1,3.5E-1,0.E0));
#274=LINE('',#273,#272);
#275=DIRECTION('',(-1.E0,0.E0,3.245419805913E-14));
#276=VECTOR('',#275,1.4E0);
#277=CARTESIAN_POINT('',(3.4E0,5.E-1,2.5E-1));
#278=LINE('',#277,#276);
#279=DIRECTION('',(-9.904922731778E-1,0.E0,-1.375683712747E-1));
#280=VECTOR('',#279,1.817278184539E0);
#281=CARTESIAN_POINT('',(2.E0,5.E-1,2.5E-1));
#282=LINE('',#281,#280);
#283=DIRECTION('',(-1.E0,0.E0,0.E0));
#284=VECTOR('',#283,2.999438351713E-1);
#285=CARTESIAN_POINT('',(2.E-1,5.E-1,0.E0));
#286=LINE('',#285,#284);
#287=DIRECTION('',(1.E0,0.E0,2.223763743792E-14));
#288=VECTOR('',#287,3.345002042484E-1);
#289=CARTESIAN_POINT('',(-9.994383517128E-2,5.E-1,-5.E-1));
#290=LINE('',#289,#288);
#291=DIRECTION('',(9.904922731778E-1,0.E0,1.375683712747E-1));
#292=VECTOR('',#291,1.817278184538E0);
#293=CARTESIAN_POINT('',(2.345563690772E-1,5.E-1,-5.E-1));
#294=LINE('',#293,#292);
#295=DIRECTION('',(1.E0,0.E0,3.087693875114E-14));
#296=VECTOR('',#295,1.365443630923E0);
#297=CARTESIAN_POINT('',(2.034556369077E0,5.E-1,-2.5E-1));
#298=LINE('',#297,#296);
#299=DIRECTION('',(7.699985556617E-1,0.E0,-6.380456286810E-1));
#300=VECTOR('',#299,3.918215073689E-1);
#301=CARTESIAN_POINT('',(3.4E0,5.E-1,-2.5E-1));
#302=LINE('',#301,#300);
#303=DIRECTION('',(1.E0,0.E0,-1.604272270583E-13));
#304=VECTOR('',#303,2.E-1);
#305=CARTESIAN_POINT('',(3.701701994751E0,5.E-1,-4.999999999999E-1));
#306=LINE('',#305,#304);
#307=DIRECTION('',(9.135454576429E-1,0.E0,-4.067366430752E-1));
#308=VECTOR('',#307,1.508458773229E-1);
#309=CARTESIAN_POINT('',(3.901701994751E0,5.E-1,-4.999999999999E-1));
#310=LINE('',#309,#308);
#311=CARTESIAN_POINT('',(4.080180225092E0,5.E-1,-4.7E-1));
#312=DIRECTION('',(0.E0,-1.E0,0.E0));
#313=DIRECTION('',(-4.067366430926E-1,0.E0,-9.135454576351E-1));
#314=AXIS2_PLACEMENT_3D('',#311,#312,#313);
#316=DIRECTION('',(7.660444431186E-1,0.E0,6.427876096870E-1));
#317=VECTOR('',#316,7.250364445395E-2);
#318=CARTESIAN_POINT('',(4.144458986060E0,5.E-1,-5.466044443121E-1));
#319=LINE('',#318,#317);
#320=DIRECTION('',(1.E0,0.E0,-1.811883976188E-13));
#321=VECTOR('',#320,2.5E-1);
#322=CARTESIAN_POINT('',(4.2E0,5.E-1,-5.E-1));
#323=LINE('',#322,#321);
#324=DIRECTION('',(0.E0,0.E0,1.E0));
#325=VECTOR('',#324,3.5E-1);
#326=CARTESIAN_POINT('',(4.45E0,5.E-1,-5.E-1));
#327=LINE('',#326,#325);
#328=DIRECTION('',(-1.E0,0.E0,0.E0));
#329=VECTOR('',#328,8.05E-1);
#330=CARTESIAN_POINT('',(4.45E0,5.E-1,-1.5E-1));
#331=LINE('',#330,#329);
#332=DIRECTION('',(1.E0,0.E0,0.E0));
#333=VECTOR('',#332,2.E-2);
#334=CARTESIAN_POINT('',(3.645E0,5.E-1,1.5E-1));
#335=LINE('',#334,#333);
#336=DIRECTION('',(1.E0,0.E0,0.E0));
#337=VECTOR('',#336,7.85E-1);
#338=CARTESIAN_POINT('',(3.665E0,5.E-1,1.5E-1));
#339=LINE('',#338,#337);
#340=DIRECTION('',(0.E0,0.E0,1.E0));
#341=VECTOR('',#340,3.5E-1);
#342=CARTESIAN_POINT('',(4.45E0,5.E-1,1.5E-1));
#343=LINE('',#342,#341);
#344=DIRECTION('',(-1.E0,0.E0,-1.811883976187E-13));
#345=VECTOR('',#344,2.500000000002E-1);
#346=CARTESIAN_POINT('',(4.45E0,5.E-1,5.E-1));
#347=LINE('',#346,#345);
#348=DIRECTION('',(-7.660444431186E-1,0.E0,6.427876096870E-1));
#349=VECTOR('',#348,7.250364445482E-2);
#350=CARTESIAN_POINT('',(4.2E0,5.E-1,5.E-1));
#351=LINE('',#350,#349);
#352=CARTESIAN_POINT('',(4.080180225092E0,5.E-1,4.7E-1));
#353=DIRECTION('',(0.E0,-1.E0,0.E0));
#354=DIRECTION('',(6.427876096600E-1,0.E0,7.660444431413E-1));
#355=AXIS2_PLACEMENT_3D('',#352,#353,#354);
#357=DIRECTION('',(-9.135454576429E-1,0.E0,-4.067366430752E-1));
#358=VECTOR('',#357,1.508458773230E-1);
#359=CARTESIAN_POINT('',(4.039506560784E0,5.E-1,5.613545457640E-1));
#360=LINE('',#359,#358);
#361=DIRECTION('',(-1.E0,0.E0,-1.604272270585E-13));
#362=VECTOR('',#361,1.999999999998E-1);
#363=CARTESIAN_POINT('',(3.901701994751E0,5.E-1,4.999999999999E-1));
#364=LINE('',#363,#362);
#365=DIRECTION('',(-7.699985556617E-1,0.E0,-6.380456286810E-1));
#366=VECTOR('',#365,3.918215073689E-1);
#367=CARTESIAN_POINT('',(3.701701994751E0,5.E-1,4.999999999999E-1));
#368=LINE('',#367,#366);
#369=DIRECTION('',(-2.941128161231E-2,9.995673946833E-1,0.E0));
#370=VECTOR('',#369,1.500649188818E-1);
#371=CARTESIAN_POINT('',(-9.553023358192E-2,3.5E-1,0.E0));
#372=LINE('',#371,#370);
#373=DIRECTION('',(0.E0,1.E0,0.E0));
#374=VECTOR('',#373,1.5E-1);
#375=CARTESIAN_POINT('',(2.034556369077E0,3.5E-1,-2.5E-1));
#376=LINE('',#375,#374);
#377=DIRECTION('',(1.E0,0.E0,3.087693875114E-14));
#378=VECTOR('',#377,1.365443630923E0);
#379=CARTESIAN_POINT('',(2.034556369077E0,3.5E-1,-2.5E-1));
#380=LINE('',#379,#378);
#381=DIRECTION('',(0.E0,1.E0,0.E0));
#382=VECTOR('',#381,1.5E-1);
#383=CARTESIAN_POINT('',(3.4E0,3.5E-1,-2.5E-1));
#384=LINE('',#383,#382);
#385=DIRECTION('',(0.E0,1.E0,0.E0));
#386=VECTOR('',#385,1.5E-1);
#387=CARTESIAN_POINT('',(3.701701994751E0,3.5E-1,-4.999999999999E-1));
#388=LINE('',#387,#386);
#389=DIRECTION('',(1.E0,0.E0,-1.609823385706E-13));
#390=VECTOR('',#389,2.E-1);
#391=CARTESIAN_POINT('',(3.701701994751E0,3.5E-1,-4.999999999999E-1));
#392=LINE('',#391,#390);
#393=DIRECTION('',(0.E0,1.E0,0.E0));
#394=VECTOR('',#393,1.5E-1);
#395=CARTESIAN_POINT('',(3.901701994751E0,3.5E-1,-4.999999999999E-1));
#396=LINE('',#395,#394);
#397=DIRECTION('',(0.E0,-1.E0,0.E0));
#398=VECTOR('',#397,1.5E-1);
#399=CARTESIAN_POINT('',(4.039506560784E0,5.E-1,-5.613545457640E-1));
#400=LINE('',#399,#398);
#401=DIRECTION('',(0.E0,1.E0,0.E0));
#402=VECTOR('',#401,1.5E-1);
#403=CARTESIAN_POINT('',(4.144458986060E0,3.5E-1,-5.466044443121E-1));
#404=LINE('',#403,#402);
#405=DIRECTION('',(0.E0,1.E0,0.E0));
#406=VECTOR('',#405,1.5E-1);
#407=CARTESIAN_POINT('',(4.2E0,3.5E-1,-5.E-1));
#408=LINE('',#407,#406);
#409=DIRECTION('',(1.E0,0.E0,-1.811883976188E-13));
#410=VECTOR('',#409,2.5E-1);
#411=CARTESIAN_POINT('',(4.2E0,3.5E-1,-5.E-1));
#412=LINE('',#411,#410);
#413=DIRECTION('',(0.E0,1.E0,0.E0));
#414=VECTOR('',#413,1.5E-1);
#415=CARTESIAN_POINT('',(4.45E0,3.5E-1,-5.E-1));
#416=LINE('',#415,#414);
#417=DIRECTION('',(0.E0,0.E0,1.E0));
#418=VECTOR('',#417,3.5E-1);
#419=CARTESIAN_POINT('',(4.45E0,3.5E-1,-5.E-1));
#420=LINE('',#419,#418);
#421=DIRECTION('',(0.E0,1.E0,0.E0));
#422=VECTOR('',#421,1.5E-1);
#423=CARTESIAN_POINT('',(4.45E0,3.5E-1,-1.5E-1));
#424=LINE('',#423,#422);
#425=DIRECTION('',(-1.E0,0.E0,0.E0));
#426=VECTOR('',#425,8.05E-1);
#427=CARTESIAN_POINT('',(4.45E0,3.5E-1,-1.5E-1));
#428=LINE('',#427,#426);
#429=DIRECTION('',(0.E0,1.E0,0.E0));
#430=VECTOR('',#429,1.5E-1);
#431=CARTESIAN_POINT('',(3.645E0,3.5E-1,-1.5E-1));
#432=LINE('',#431,#430);
#433=CARTESIAN_POINT('',(3.645E0,2.E-1,-1.5E-1));
#434=DIRECTION('',(0.E0,0.E0,1.E0));
#435=DIRECTION('',(1.E0,0.E0,0.E0));
#436=AXIS2_PLACEMENT_3D('',#433,#434,#435);
#438=CARTESIAN_POINT('',(3.645E0,2.E-1,-1.5E-1));
#439=DIRECTION('',(0.E0,0.E0,-1.E0));
#440=DIRECTION('',(0.E0,1.E0,0.E0));
#441=AXIS2_PLACEMENT_3D('',#438,#439,#440);
#443=DIRECTION('',(1.E0,0.E0,0.E0));
#444=VECTOR('',#443,1.5E-1);
#445=CARTESIAN_POINT('',(3.795E0,2.E-1,-1.5E-1));
#446=LINE('',#445,#444);
#447=DIRECTION('',(0.E0,0.E0,-1.E0));
#448=VECTOR('',#447,3.E-1);
#449=CARTESIAN_POINT('',(3.645E0,5.E-1,1.5E-1));
#450=LINE('',#449,#448);
#451=DIRECTION('',(0.E0,0.E0,1.E0));
#452=VECTOR('',#451,3.E-1);
#453=CARTESIAN_POINT('',(3.945E0,2.E-1,-1.5E-1));
#454=LINE('',#453,#452);
#455=CARTESIAN_POINT('',(3.645E0,2.E-1,1.5E-1));
#456=DIRECTION('',(0.E0,0.E0,-1.E0));
#457=DIRECTION('',(0.E0,1.E0,0.E0));
#458=AXIS2_PLACEMENT_3D('',#455,#456,#457);
#460=CARTESIAN_POINT('',(3.645E0,2.E-1,1.5E-1));
#461=DIRECTION('',(0.E0,0.E0,1.E0));
#462=DIRECTION('',(1.E0,0.E0,0.E0));
#463=AXIS2_PLACEMENT_3D('',#460,#461,#462);
#465=DIRECTION('',(0.E0,1.E0,0.E0));
#466=VECTOR('',#465,1.5E-1);
#467=CARTESIAN_POINT('',(3.645E0,3.5E-1,1.5E-1));
#468=LINE('',#467,#466);
#469=DIRECTION('',(0.E0,-1.E0,0.E0));
#470=VECTOR('',#469,7.5E-1);
#471=CARTESIAN_POINT('',(3.945E0,2.E-1,1.5E-1));
#472=LINE('',#471,#470);
#473=DIRECTION('',(1.E0,0.E0,0.E0));
#474=VECTOR('',#473,1.5E-1);
#475=CARTESIAN_POINT('',(3.795E0,2.E-1,1.5E-1));
#476=LINE('',#475,#474);
#477=DIRECTION('',(0.E0,-1.E0,0.E0));
#478=VECTOR('',#477,7.5E-1);
#479=CARTESIAN_POINT('',(3.945E0,2.E-1,-1.5E-1));
#480=LINE('',#479,#478);
#481=DIRECTION('',(0.E0,-1.E0,0.E0));
#482=VECTOR('',#481,7.5E-1);
#483=CARTESIAN_POINT('',(3.795E0,2.E-1,-1.5E-1));
#484=LINE('',#483,#482);
#485=DIRECTION('',(1.E0,0.E0,0.E0));
#486=VECTOR('',#485,1.5E-1);
#487=CARTESIAN_POINT('',(3.795E0,-5.5E-1,-1.5E-1));
#488=LINE('',#487,#486);
#489=DIRECTION('',(0.E0,-1.E0,0.E0));
#490=VECTOR('',#489,7.5E-1);
#491=CARTESIAN_POINT('',(3.795E0,2.E-1,1.5E-1));
#492=LINE('',#491,#490);
#493=DIRECTION('',(0.E0,0.E0,-1.E0));
#494=VECTOR('',#493,3.E-1);
#495=CARTESIAN_POINT('',(4.095E0,-8.5E-1,1.5E-1));
#496=LINE('',#495,#494);
#497=DIRECTION('',(0.E0,0.E0,1.E0));
#498=VECTOR('',#497,3.E-1);
#499=CARTESIAN_POINT('',(3.795E0,-5.5E-1,-1.5E-1));
#500=LINE('',#499,#498);
#501=CARTESIAN_POINT('',(4.095E0,-5.5E-1,1.5E-1));
#502=DIRECTION('',(0.E0,0.E0,1.E0));
#503=DIRECTION('',(-1.E0,0.E0,0.E0));
#504=AXIS2_PLACEMENT_3D('',#501,#502,#503);
#506=CARTESIAN_POINT('',(4.095E0,-5.5E-1,1.5E-1));
#507=DIRECTION('',(0.E0,0.E0,-1.E0));
#508=DIRECTION('',(0.E0,-1.E0,0.E0));
#509=AXIS2_PLACEMENT_3D('',#506,#507,#508);
#511=DIRECTION('',(1.E0,0.E0,0.E0));
#512=VECTOR('',#511,1.5E-1);
#513=CARTESIAN_POINT('',(3.795E0,-5.5E-1,1.5E-1));
#514=LINE('',#513,#512);
#515=DIRECTION('',(0.E0,0.E0,-1.E0));
#516=VECTOR('',#515,3.E-1);
#517=CARTESIAN_POINT('',(3.945E0,-5.5E-1,1.5E-1));
#518=LINE('',#517,#516);
#519=DIRECTION('',(0.E0,0.E0,1.E0));
#520=VECTOR('',#519,3.E-1);
#521=CARTESIAN_POINT('',(4.095E0,-7.E-1,-1.5E-1));
#522=LINE('',#521,#520);
#523=CARTESIAN_POINT('',(4.095E0,-5.5E-1,-1.5E-1));
#524=DIRECTION('',(0.E0,0.E0,-1.E0));
#525=DIRECTION('',(0.E0,-1.E0,0.E0));
#526=AXIS2_PLACEMENT_3D('',#523,#524,#525);
#528=CARTESIAN_POINT('',(4.095E0,-5.5E-1,-1.5E-1));
#529=DIRECTION('',(0.E0,0.E0,1.E0));
#530=DIRECTION('',(-1.E0,0.E0,0.E0));
#531=AXIS2_PLACEMENT_3D('',#528,#529,#530);
#533=DIRECTION('',(0.E0,1.E0,0.E0));
#534=VECTOR('',#533,1.5E-1);
#535=CARTESIAN_POINT('',(4.095E0,-8.5E-1,-1.5E-1));
#536=LINE('',#535,#534);
#537=DIRECTION('',(1.E0,0.E0,0.E0));
#538=VECTOR('',#537,5.5E-1);
#539=CARTESIAN_POINT('',(4.095E0,-8.5E-1,-1.5E-1));
#540=LINE('',#539,#538);
#541=DIRECTION('',(0.E0,1.E0,0.E0));
#542=VECTOR('',#541,1.5E-1);
#543=CARTESIAN_POINT('',(4.645E0,-8.5E-1,1.5E-1));
#544=LINE('',#543,#542);
#545=DIRECTION('',(0.E0,-1.E0,0.E0));
#546=VECTOR('',#545,1.5E-1);
#547=CARTESIAN_POINT('',(4.645E0,-7.E-1,-1.5E-1));
#548=LINE('',#547,#546);
#549=CARTESIAN_POINT('',(4.645E0,-8.5E-1,0.E0));
#550=DIRECTION('',(0.E0,1.E0,0.E0));
#551=DIRECTION('',(0.E0,0.E0,1.E0));
#552=AXIS2_PLACEMENT_3D('',#549,#550,#551);
#554=CARTESIAN_POINT('',(4.645E0,-8.5E-1,0.E0));
#555=DIRECTION('',(0.E0,1.E0,0.E0));
#556=DIRECTION('',(1.E0,0.E0,0.E0));
#557=AXIS2_PLACEMENT_3D('',#554,#555,#556);
#559=DIRECTION('',(1.E0,0.E0,0.E0));
#560=VECTOR('',#559,5.5E-1);
#561=CARTESIAN_POINT('',(4.095E0,-8.5E-1,1.5E-1));
#562=LINE('',#561,#560);
#563=DIRECTION('',(0.E0,1.E0,0.E0));
#564=VECTOR('',#563,1.5E-1);
#565=CARTESIAN_POINT('',(4.095E0,-8.5E-1,1.5E-1));
#566=LINE('',#565,#564);
#567=DIRECTION('',(1.E0,0.E0,0.E0));
#568=VECTOR('',#567,5.5E-1);
#569=CARTESIAN_POINT('',(4.095E0,-7.E-1,1.5E-1));
#570=LINE('',#569,#568);
#571=CARTESIAN_POINT('',(4.645E0,-7.E-1,0.E0));
#572=DIRECTION('',(0.E0,-1.E0,0.E0));
#573=DIRECTION('',(0.E0,0.E0,-1.E0));
#574=AXIS2_PLACEMENT_3D('',#571,#572,#573);
#576=CARTESIAN_POINT('',(4.645E0,-7.E-1,0.E0));
#577=DIRECTION('',(0.E0,-1.E0,0.E0));
#578=DIRECTION('',(1.E0,0.E0,0.E0));
#579=AXIS2_PLACEMENT_3D('',#576,#577,#578);
#581=DIRECTION('',(1.E0,0.E0,0.E0));
#582=VECTOR('',#581,5.5E-1);
#583=CARTESIAN_POINT('',(4.095E0,-7.E-1,-1.5E-1));
#584=LINE('',#583,#582);
#585=DIRECTION('',(0.E0,0.E0,-1.E0));
#586=VECTOR('',#585,3.E-1);
#587=CARTESIAN_POINT('',(3.795E0,2.E-1,1.5E-1));
#588=LINE('',#587,#586);
#589=DIRECTION('',(0.E0,0.E0,1.E0));
#590=VECTOR('',#589,3.E-1);
#591=CARTESIAN_POINT('',(3.645E0,3.5E-1,-1.5E-1));
#592=LINE('',#591,#590);
#593=DIRECTION('',(1.E0,0.E0,0.E0));
#594=VECTOR('',#593,2.E-2);
#595=CARTESIAN_POINT('',(3.645E0,3.5E-1,1.5E-1));
#596=LINE('',#595,#594);
#597=DIRECTION('',(0.E0,1.E0,0.E0));
#598=VECTOR('',#597,1.5E-1);
#599=CARTESIAN_POINT('',(3.665E0,3.5E-1,1.5E-1));
#600=LINE('',#599,#598);
#601=DIRECTION('',(1.E0,0.E0,0.E0));
#602=VECTOR('',#601,7.85E-1);
#603=CARTESIAN_POINT('',(3.665E0,3.5E-1,1.5E-1));
#604=LINE('',#603,#602);
#605=DIRECTION('',(0.E0,1.E0,0.E0));
#606=VECTOR('',#605,1.5E-1);
#607=CARTESIAN_POINT('',(4.45E0,3.5E-1,1.5E-1));
#608=LINE('',#607,#606);
#609=DIRECTION('',(0.E0,0.E0,1.E0));
#610=VECTOR('',#609,3.5E-1);
#611=CARTESIAN_POINT('',(4.45E0,3.5E-1,1.5E-1));
#612=LINE('',#611,#610);
#613=DIRECTION('',(0.E0,1.E0,0.E0));
#614=VECTOR('',#613,1.5E-1);
#615=CARTESIAN_POINT('',(4.45E0,3.5E-1,5.E-1));
#616=LINE('',#615,#614);
#617=DIRECTION('',(-1.E0,0.E0,-1.811883976187E-13));
#618=VECTOR('',#617,2.500000000002E-1);
#619=CARTESIAN_POINT('',(4.45E0,3.5E-1,5.E-1));
#620=LINE('',#619,#618);
#621=DIRECTION('',(0.E0,1.E0,0.E0));
#622=VECTOR('',#621,1.5E-1);
#623=CARTESIAN_POINT('',(4.2E0,3.5E-1,5.E-1));
#624=LINE('',#623,#622);
#625=DIRECTION('',(0.E0,-1.E0,0.E0));
#626=VECTOR('',#625,1.5E-1);
#627=CARTESIAN_POINT('',(4.144458986059E0,5.E-1,5.466044443127E-1));
#628=LINE('',#627,#626);
#629=DIRECTION('',(0.E0,1.E0,0.E0));
#630=VECTOR('',#629,1.5E-1);
#631=CARTESIAN_POINT('',(4.039506560784E0,3.5E-1,5.613545457640E-1));
#632=LINE('',#631,#630);
#633=DIRECTION('',(0.E0,1.E0,0.E0));
#634=VECTOR('',#633,1.5E-1);
#635=CARTESIAN_POINT('',(3.901701994751E0,3.5E-1,4.999999999999E-1));
#636=LINE('',#635,#634);
#637=DIRECTION('',(-1.E0,0.E0,-1.604272270585E-13));
#638=VECTOR('',#637,1.999999999998E-1);
#639=CARTESIAN_POINT('',(3.901701994751E0,3.5E-1,4.999999999999E-1));
#640=LINE('',#639,#638);
#641=DIRECTION('',(0.E0,1.E0,0.E0));
#642=VECTOR('',#641,1.5E-1);
#643=CARTESIAN_POINT('',(3.701701994751E0,3.5E-1,4.999999999999E-1));
#644=LINE('',#643,#642);
#645=DIRECTION('',(0.E0,1.E0,0.E0));
#646=VECTOR('',#645,1.5E-1);
#647=CARTESIAN_POINT('',(3.4E0,3.5E-1,2.5E-1));
#648=LINE('',#647,#646);
#649=DIRECTION('',(9.349349720250E-1,-3.548191061437E-1,0.E0));
#650=VECTOR('',#649,1.326649916142E0);
#651=CARTESIAN_POINT('',(-4.846777134078E0,6.402402458037E-1,0.E0));
#652=LINE('',#651,#650);
#653=CARTESIAN_POINT('',(-5.089680365076E0,7.324249537043E-1,
-2.679491924298E-2));
#654=CARTESIAN_POINT('',(-5.167155349644E0,6.691981653454E-1,
-2.000000000044E-1));
#655=VERTEX_POINT('',#653);
#656=VERTEX_POINT('',#654);
#657=CARTESIAN_POINT('',(-5.167155349644E0,6.691981653454E-1,
-2.999999999985E-1));
#658=VERTEX_POINT('',#657);
#659=CARTESIAN_POINT('',(-5.089680365076E0,7.324249537043E-1,
-4.732050807570E-1));
#660=VERTEX_POINT('',#659);
#661=CARTESIAN_POINT('',(-5.072315167106E0,5.529856884933E-1,
-1.999999999990E-1));
#662=CARTESIAN_POINT('',(-4.994840182538E0,6.162124768522E-1,
-2.679491924304E-2));
#663=VERTEX_POINT('',#661);
#664=VERTEX_POINT('',#662);
#665=VERTEX_POINT('',#65);
#666=CARTESIAN_POINT('',(-4.893214713817E0,6.498464543838E-1,0.E0));
#667=VERTEX_POINT('',#666);
#668=CARTESIAN_POINT('',(-4.994840182538E0,6.162124768522E-1,
-4.732050807569E-1));
#669=VERTEX_POINT('',#668);
#670=CARTESIAN_POINT('',(-5.072315167106E0,5.529856884933E-1,
-3.000000000010E-1));
#671=VERTEX_POINT('',#670);
#672=CARTESIAN_POINT('',(-4.846777134079E0,6.402402458038E-1,0.E0));
#673=VERTEX_POINT('',#672);
#674=CARTESIAN_POINT('',(-4.846777134078E0,6.402402458037E-1,-5.E-1));
#675=VERTEX_POINT('',#674);
#676=CARTESIAN_POINT('',(-4.893214713817E0,6.498464543839E-1,-5.E-1));
#677=VERTEX_POINT('',#676);
#678=CARTESIAN_POINT('',(-4.793554268157E0,7.804804916075E-1,0.E0));
#679=VERTEX_POINT('',#678);
#680=VERTEX_POINT('',#81);
#681=CARTESIAN_POINT('',(-4.793554268157E0,7.804804916075E-1,-5.E-1));
#682=VERTEX_POINT('',#681);
#683=CARTESIAN_POINT('',(-3.553222865922E0,3.097597541964E-1,-5.E-1));
#684=VERTEX_POINT('',#683);
#685=CARTESIAN_POINT('',(-3.606445731843E0,1.695195083926E-1,-5.E-1));
#686=VERTEX_POINT('',#685);
#687=CARTESIAN_POINT('',(-3.553222865922E0,3.097597541964E-1,0.E0));
#688=VERTEX_POINT('',#687);
#689=CARTESIAN_POINT('',(-3.606445731843E0,1.695195083926E-1,0.E0));
#690=VERTEX_POINT('',#689);
#691=CARTESIAN_POINT('',(-3.491180432559E0,3.002595070458E-1,0.E0));
#692=VERTEX_POINT('',#691);
#693=CARTESIAN_POINT('',(-3.482360865119E0,1.505190140916E-1,0.E0));
#694=VERTEX_POINT('',#693);
#695=CARTESIAN_POINT('',(-3.491180432559E0,3.002595070458E-1,-5.E-1));
#696=VERTEX_POINT('',#695);
#697=CARTESIAN_POINT('',(-3.482360865118E0,1.505190140917E-1,-5.E-1));
#698=VERTEX_POINT('',#697);
#699=CARTESIAN_POINT('',(-9.553023358192E-2,3.5E-1,0.E0));
#700=VERTEX_POINT('',#699);
#701=CARTESIAN_POINT('',(-9.553023358192E-2,3.5E-1,-5.E-1));
#702=VERTEX_POINT('',#701);
#703=CARTESIAN_POINT('',(-9.994383517128E-2,5.E-1,0.E0));
#704=VERTEX_POINT('',#703);
#705=CARTESIAN_POINT('',(-9.994383517128E-2,5.E-1,-5.E-1));
#706=VERTEX_POINT('',#705);
#707=CARTESIAN_POINT('',(2.345563690772E-1,3.5E-1,-5.E-1));
#708=VERTEX_POINT('',#707);
#709=CARTESIAN_POINT('',(2.345563690772E-1,5.E-1,-5.E-1));
#710=VERTEX_POINT('',#709);
#711=CARTESIAN_POINT('',(2.E0,3.5E-1,2.5E-1));
#712=CARTESIAN_POINT('',(3.4E0,3.5E-1,2.5E-1));
#713=VERTEX_POINT('',#711);
#714=VERTEX_POINT('',#712);
#715=CARTESIAN_POINT('',(3.701701994751E0,3.5E-1,4.999999999999E-1));
#716=VERTEX_POINT('',#715);
#717=CARTESIAN_POINT('',(3.901701994751E0,3.5E-1,4.999999999999E-1));
#718=VERTEX_POINT('',#717);
#719=CARTESIAN_POINT('',(4.039506560784E0,3.5E-1,5.613545457640E-1));
#720=VERTEX_POINT('',#719);
#721=CARTESIAN_POINT('',(4.144458986058E0,3.5E-1,5.466044443141E-1));
#722=VERTEX_POINT('',#721);
#723=CARTESIAN_POINT('',(4.2E0,3.5E-1,5.E-1));
#724=VERTEX_POINT('',#723);
#725=CARTESIAN_POINT('',(4.45E0,3.5E-1,5.E-1));
#726=VERTEX_POINT('',#725);
#727=CARTESIAN_POINT('',(4.45E0,3.5E-1,1.5E-1));
#728=VERTEX_POINT('',#727);
#729=CARTESIAN_POINT('',(3.665E0,3.5E-1,1.5E-1));
#730=VERTEX_POINT('',#729);
#731=CARTESIAN_POINT('',(3.645E0,3.5E-1,1.5E-1));
#732=VERTEX_POINT('',#731);
#733=CARTESIAN_POINT('',(3.645E0,3.5E-1,-1.5E-1));
#734=VERTEX_POINT('',#733);
#735=CARTESIAN_POINT('',(4.45E0,3.5E-1,-1.5E-1));
#736=VERTEX_POINT('',#735);
#737=CARTESIAN_POINT('',(4.45E0,3.5E-1,-5.E-1));
#738=VERTEX_POINT('',#737);
#739=CARTESIAN_POINT('',(4.2E0,3.5E-1,-5.E-1));
#740=VERTEX_POINT('',#739);
#741=CARTESIAN_POINT('',(4.144458986060E0,3.5E-1,-5.466044443121E-1));
#742=VERTEX_POINT('',#741);
#743=CARTESIAN_POINT('',(4.039506560783E0,3.5E-1,-5.613545457635E-1));
#744=VERTEX_POINT('',#743);
#745=CARTESIAN_POINT('',(3.901701994751E0,3.5E-1,-4.999999999999E-1));
#746=VERTEX_POINT('',#745);
#747=CARTESIAN_POINT('',(3.701701994751E0,3.5E-1,-4.999999999999E-1));
#748=VERTEX_POINT('',#747);
#749=CARTESIAN_POINT('',(3.4E0,3.5E-1,-2.5E-1));
#750=VERTEX_POINT('',#749);
#751=CARTESIAN_POINT('',(2.034556369077E0,3.5E-1,-2.5E-1));
#752=VERTEX_POINT('',#751);
#753=CARTESIAN_POINT('',(2.E-1,3.5E-1,0.E0));
#754=VERTEX_POINT('',#753);
#755=CARTESIAN_POINT('',(2.E0,5.E-1,2.5E-1));
#756=VERTEX_POINT('',#755);
#757=CARTESIAN_POINT('',(3.4E0,5.E-1,2.5E-1));
#758=VERTEX_POINT('',#757);
#759=CARTESIAN_POINT('',(2.E-1,5.E-1,0.E0));
#760=VERTEX_POINT('',#759);
#761=CARTESIAN_POINT('',(2.034556369077E0,5.E-1,-2.5E-1));
#762=VERTEX_POINT('',#761);
#763=CARTESIAN_POINT('',(3.4E0,5.E-1,-2.5E-1));
#764=VERTEX_POINT('',#763);
#765=CARTESIAN_POINT('',(3.701701994751E0,5.E-1,-4.999999999999E-1));
#766=VERTEX_POINT('',#765);
#767=CARTESIAN_POINT('',(3.901701994751E0,5.E-1,-4.999999999999E-1));
#768=VERTEX_POINT('',#767);
#769=CARTESIAN_POINT('',(4.039506560784E0,5.E-1,-5.613545457640E-1));
#770=VERTEX_POINT('',#769);
#771=CARTESIAN_POINT('',(4.144458986060E0,5.E-1,-5.466044443125E-1));
#772=VERTEX_POINT('',#771);
#773=CARTESIAN_POINT('',(4.2E0,5.E-1,-5.E-1));
#774=VERTEX_POINT('',#773);
#775=CARTESIAN_POINT('',(4.45E0,5.E-1,-5.E-1));
#776=VERTEX_POINT('',#775);
#777=CARTESIAN_POINT('',(4.45E0,5.E-1,-1.5E-1));
#778=VERTEX_POINT('',#777);
#779=CARTESIAN_POINT('',(3.645E0,5.E-1,-1.5E-1));
#780=VERTEX_POINT('',#779);
#781=CARTESIAN_POINT('',(3.645E0,5.E-1,1.5E-1));
#782=VERTEX_POINT('',#781);
#783=CARTESIAN_POINT('',(3.665E0,5.E-1,1.5E-1));
#784=VERTEX_POINT('',#783);
#785=CARTESIAN_POINT('',(4.45E0,5.E-1,1.5E-1));
#786=VERTEX_POINT('',#785);
#787=CARTESIAN_POINT('',(4.45E0,5.E-1,5.E-1));
#788=VERTEX_POINT('',#787);
#789=CARTESIAN_POINT('',(4.2E0,5.E-1,5.E-1));
#790=VERTEX_POINT('',#789);
#791=CARTESIAN_POINT('',(4.144458986059E0,5.E-1,5.466044443127E-1));
#792=VERTEX_POINT('',#791);
#793=CARTESIAN_POINT('',(4.039506560783E0,5.E-1,5.613545457634E-1));
#794=VERTEX_POINT('',#793);
#795=CARTESIAN_POINT('',(3.901701994751E0,5.E-1,4.999999999999E-1));
#796=VERTEX_POINT('',#795);
#797=CARTESIAN_POINT('',(3.701701994751E0,5.E-1,4.999999999999E-1));
#798=VERTEX_POINT('',#797);
#799=CARTESIAN_POINT('',(3.945E0,2.E-1,-1.5E-1));
#800=VERTEX_POINT('',#799);
#801=CARTESIAN_POINT('',(3.795E0,2.E-1,-1.5E-1));
#802=VERTEX_POINT('',#801);
#803=CARTESIAN_POINT('',(3.945E0,2.E-1,1.5E-1));
#804=VERTEX_POINT('',#803);
#805=CARTESIAN_POINT('',(3.795E0,2.E-1,1.5E-1));
#806=VERTEX_POINT('',#805);
#807=CARTESIAN_POINT('',(3.945E0,-5.5E-1,1.5E-1));
#808=VERTEX_POINT('',#807);
#809=CARTESIAN_POINT('',(3.795E0,-5.5E-1,1.5E-1));
#810=VERTEX_POINT('',#809);
#811=CARTESIAN_POINT('',(3.945E0,-5.5E-1,-1.5E-1));
#812=VERTEX_POINT('',#811);
#813=CARTESIAN_POINT('',(3.795E0,-5.5E-1,-1.5E-1));
#814=VERTEX_POINT('',#813);
#815=CARTESIAN_POINT('',(4.095E0,-8.5E-1,1.5E-1));
#816=VERTEX_POINT('',#815);
#817=CARTESIAN_POINT('',(4.095E0,-8.5E-1,-1.5E-1));
#818=VERTEX_POINT('',#817);
#819=CARTESIAN_POINT('',(4.095E0,-7.E-1,1.5E-1));
#820=VERTEX_POINT('',#819);
#821=CARTESIAN_POINT('',(4.095E0,-7.E-1,-1.5E-1));
#822=VERTEX_POINT('',#821);
#823=CARTESIAN_POINT('',(4.645E0,-7.E-1,-1.5E-1));
#824=CARTESIAN_POINT('',(4.645E0,-8.5E-1,-1.5E-1));
#825=VERTEX_POINT('',#823);
#826=VERTEX_POINT('',#824);
#827=CARTESIAN_POINT('',(4.645E0,-8.5E-1,1.5E-1));
#828=CARTESIAN_POINT('',(4.795E0,-8.5E-1,0.E0));
#829=VERTEX_POINT('',#827);
#830=VERTEX_POINT('',#828);
#831=CARTESIAN_POINT('',(4.645E0,-7.E-1,1.5E-1));
#832=VERTEX_POINT('',#831);
#833=CARTESIAN_POINT('',(4.795E0,-7.E-1,0.E0));
#834=VERTEX_POINT('',#833);
#835=CARTESIAN_POINT('',(-5.089680365076E0,7.324249537043E-1,0.E0));
#836=DIRECTION('',(-6.322678835883E-1,7.747498456811E-1,0.E0));
#837=DIRECTION('',(-7.747498456811E-1,-6.322678835883E-1,0.E0));
#838=AXIS2_PLACEMENT_3D('',#835,#836,#837);
#839=PLANE('',#838);
#841=ORIENTED_EDGE('',*,*,#840,.T.);
#843=ORIENTED_EDGE('',*,*,#842,.F.);
#845=ORIENTED_EDGE('',*,*,#844,.T.);
#847=ORIENTED_EDGE('',*,*,#846,.F.);
#848=EDGE_LOOP('',(#841,#843,#845,#847));
#849=FACE_OUTER_BOUND('',#848,.F.);
#850=ADVANCED_FACE('',(#849),#839,.T.);
#851=CARTESIAN_POINT('',(-4.847413251117E0,5.937236034856E-1,-2.E-1));
#852=DIRECTION('',(-6.322678835882E-1,7.747498456811E-1,0.E0));
#853=DIRECTION('',(-7.747498456811E-1,-6.322678835882E-1,0.E0));
#854=AXIS2_PLACEMENT_3D('',#851,#852,#853);
#855=CYLINDRICAL_SURFACE('',#854,2.E-1);
#857=ORIENTED_EDGE('',*,*,#856,.F.);
#859=ORIENTED_EDGE('',*,*,#858,.T.);
#860=ORIENTED_EDGE('',*,*,#840,.F.);
#862=ORIENTED_EDGE('',*,*,#861,.F.);
#864=ORIENTED_EDGE('',*,*,#863,.F.);
#866=ORIENTED_EDGE('',*,*,#865,.F.);
#867=EDGE_LOOP('',(#857,#859,#860,#862,#864,#866));
#868=FACE_OUTER_BOUND('',#867,.F.);
#869=ADVANCED_FACE('',(#868),#855,.T.);
#870=CARTESIAN_POINT('',(-4.994840182538E0,6.162124768522E-1,0.E0));
#871=DIRECTION('',(-6.322678835883E-1,7.747498456811E-1,0.E0));
#872=DIRECTION('',(-7.747498456811E-1,-6.322678835883E-1,0.E0));
#873=AXIS2_PLACEMENT_3D('',#870,#871,#872);
#874=PLANE('',#873);
#875=ORIENTED_EDGE('',*,*,#856,.T.);
#877=ORIENTED_EDGE('',*,*,#876,.F.);
#879=ORIENTED_EDGE('',*,*,#878,.T.);
#881=ORIENTED_EDGE('',*,*,#880,.T.);
#882=EDGE_LOOP('',(#875,#877,#879,#881));
#883=FACE_OUTER_BOUND('',#882,.F.);
#884=ADVANCED_FACE('',(#883),#874,.F.);
#885=CARTESIAN_POINT('',(-4.9E0,5.E-1,0.E0));
#886=DIRECTION('',(0.E0,0.E0,1.E0));
#887=DIRECTION('',(1.E0,0.E0,0.E0));
#888=AXIS2_PLACEMENT_3D('',#885,#886,#887);
#889=CYLINDRICAL_SURFACE('',#888,1.5E-1);
#890=ORIENTED_EDGE('',*,*,#865,.T.);
#892=ORIENTED_EDGE('',*,*,#891,.F.);
#894=ORIENTED_EDGE('',*,*,#893,.T.);
#896=ORIENTED_EDGE('',*,*,#895,.F.);
#898=ORIENTED_EDGE('',*,*,#897,.T.);
#899=ORIENTED_EDGE('',*,*,#876,.T.);
#900=EDGE_LOOP('',(#890,#892,#894,#896,#898,#899));
#901=FACE_OUTER_BOUND('',#900,.F.);
#902=ADVANCED_FACE('',(#901),#889,.F.);
#903=CARTESIAN_POINT('',(-4.936041653427E0,7.220945726897E-1,0.E0));
#904=DIRECTION('',(0.E0,0.E0,-1.E0));
#905=DIRECTION('',(-9.349349720250E-1,3.548191061437E-1,0.E0));
#906=AXIS2_PLACEMENT_3D('',#903,#904,#905);
#907=PLANE('',#906);
#908=ORIENTED_EDGE('',*,*,#863,.T.);
#910=ORIENTED_EDGE('',*,*,#909,.T.);
#912=ORIENTED_EDGE('',*,*,#911,.F.);
#913=ORIENTED_EDGE('',*,*,#891,.T.);
#914=EDGE_LOOP('',(#908,#910,#912,#913));
#915=FACE_OUTER_BOUND('',#914,.F.);
#916=ADVANCED_FACE('',(#915),#907,.F.);
#917=CARTESIAN_POINT('',(-4.9E0,5.E-1,0.E0));
#918=DIRECTION('',(0.E0,0.E0,1.E0));
#919=DIRECTION('',(1.E0,0.E0,0.E0));
#920=AXIS2_PLACEMENT_3D('',#917,#918,#919);
#921=CYLINDRICAL_SURFACE('',#920,3.E-1);
#922=ORIENTED_EDGE('',*,*,#861,.T.);
#923=ORIENTED_EDGE('',*,*,#846,.T.);
#925=ORIENTED_EDGE('',*,*,#924,.T.);
#927=ORIENTED_EDGE('',*,*,#926,.F.);
#929=ORIENTED_EDGE('',*,*,#928,.T.);
#930=ORIENTED_EDGE('',*,*,#909,.F.);
#931=EDGE_LOOP('',(#922,#923,#925,#927,#929,#930));
#932=FACE_OUTER_BOUND('',#931,.F.);
#933=ADVANCED_FACE('',(#932),#921,.T.);
#934=CARTESIAN_POINT('',(-4.846832173305E0,5.930115794261E-1,-3.E-1));
#935=DIRECTION('',(-6.322678835883E-1,7.747498456811E-1,0.E0));
#936=DIRECTION('',(0.E0,0.E0,-1.E0));
#937=AXIS2_PLACEMENT_3D('',#934,#935,#936);
#938=CYLINDRICAL_SURFACE('',#937,2.E-1);
#940=ORIENTED_EDGE('',*,*,#939,.T.);
#941=ORIENTED_EDGE('',*,*,#878,.F.);
#942=ORIENTED_EDGE('',*,*,#897,.F.);
#944=ORIENTED_EDGE('',*,*,#943,.F.);
#945=ORIENTED_EDGE('',*,*,#924,.F.);
#946=ORIENTED_EDGE('',*,*,#844,.F.);
#947=EDGE_LOOP('',(#940,#941,#942,#944,#945,#946));
#948=FACE_OUTER_BOUND('',#947,.F.);
#949=ADVANCED_FACE('',(#948),#938,.T.);
#950=CARTESIAN_POINT('',(-5.119735258375E0,6.110919269194E-1,-2.5E-1));
#951=DIRECTION('',(7.747498456811E-1,6.322678835883E-1,0.E0));
#952=DIRECTION('',(0.E0,0.E0,-1.E0));
#953=AXIS2_PLACEMENT_3D('',#950,#951,#952);
#954=PLANE('',#953);
#955=ORIENTED_EDGE('',*,*,#858,.F.);
#956=ORIENTED_EDGE('',*,*,#880,.F.);
#957=ORIENTED_EDGE('',*,*,#939,.F.);
#958=ORIENTED_EDGE('',*,*,#842,.T.);
#959=EDGE_LOOP('',(#955,#956,#957,#958));
#960=FACE_OUTER_BOUND('',#959,.F.);
#961=ADVANCED_FACE('',(#960),#954,.F.);
#962=CARTESIAN_POINT('',(-4.936041653427E0,7.220945726897E-1,-5.E-1));
#963=DIRECTION('',(0.E0,0.E0,-1.E0));
#964=DIRECTION('',(-9.349349720250E-1,3.548191061437E-1,0.E0));
#965=AXIS2_PLACEMENT_3D('',#962,#963,#964);
#966=PLANE('',#965);
#967=ORIENTED_EDGE('',*,*,#926,.T.);
#968=ORIENTED_EDGE('',*,*,#943,.T.);
#969=ORIENTED_EDGE('',*,*,#895,.T.);
#971=ORIENTED_EDGE('',*,*,#970,.T.);
#972=EDGE_LOOP('',(#967,#968,#969,#971));
#973=FACE_OUTER_BOUND('',#972,.F.);
#974=ADVANCED_FACE('',(#973),#966,.T.);
#975=CARTESIAN_POINT('',(-4.2E0,4.75E-1,-5.E-1));
#976=DIRECTION('',(0.E0,0.E0,-1.E0));
#977=DIRECTION('',(-9.349349720250E-1,3.548191061437E-1,0.E0));
#978=AXIS2_PLACEMENT_3D('',#975,#976,#977);
#979=PLANE('',#978);
#981=ORIENTED_EDGE('',*,*,#980,.F.);
#982=ORIENTED_EDGE('',*,*,#970,.F.);
#984=ORIENTED_EDGE('',*,*,#983,.T.);
#986=ORIENTED_EDGE('',*,*,#985,.F.);
#987=EDGE_LOOP('',(#981,#982,#984,#986));
#988=FACE_OUTER_BOUND('',#987,.F.);
#989=ADVANCED_FACE('',(#988),#979,.T.);
#990=CARTESIAN_POINT('',(-3.553222865922E0,3.097597541963E-1,0.E0));
#991=DIRECTION('',(3.548191061437E-1,9.349349720250E-1,0.E0));
#992=DIRECTION('',(-9.349349720250E-1,3.548191061437E-1,0.E0));
#993=AXIS2_PLACEMENT_3D('',#990,#991,#992);
#994=PLANE('',#993);
#996=ORIENTED_EDGE('',*,*,#995,.F.);
#997=ORIENTED_EDGE('',*,*,#928,.F.);
#998=ORIENTED_EDGE('',*,*,#980,.T.);
#1000=ORIENTED_EDGE('',*,*,#999,.F.);
#1001=EDGE_LOOP('',(#996,#997,#998,#1000));
#1002=FACE_OUTER_BOUND('',#1001,.F.);
#1003=ADVANCED_FACE('',(#1002),#994,.T.);
#1004=CARTESIAN_POINT('',(-4.2E0,4.75E-1,0.E0));
#1005=DIRECTION('',(0.E0,0.E0,-1.E0));
#1006=DIRECTION('',(-9.349349720250E-1,3.548191061437E-1,0.E0));
#1007=AXIS2_PLACEMENT_3D('',#1004,#1005,#1006);
#1008=PLANE('',#1007);
#1009=ORIENTED_EDGE('',*,*,#995,.T.);
#1011=ORIENTED_EDGE('',*,*,#1010,.F.);
#1013=ORIENTED_EDGE('',*,*,#1012,.F.);
#1014=ORIENTED_EDGE('',*,*,#911,.T.);
#1015=EDGE_LOOP('',(#1009,#1011,#1013,#1014));
#1016=FACE_OUTER_BOUND('',#1015,.F.);
#1017=ADVANCED_FACE('',(#1016),#1008,.F.);
#1018=CARTESIAN_POINT('',(-3.534056174649E0,2.275923180996E-1,0.E0));
#1019=DIRECTION('',(0.E0,0.E0,-1.E0));
#1020=DIRECTION('',(-9.982699530278E-1,-5.879711627101E-2,0.E0));
#1021=AXIS2_PLACEMENT_3D('',#1018,#1019,#1020);
#1022=PLANE('',#1021);
#1024=ORIENTED_EDGE('',*,*,#1023,.T.);
#1026=ORIENTED_EDGE('',*,*,#1025,.F.);
#1028=ORIENTED_EDGE('',*,*,#1027,.T.);
#1029=ORIENTED_EDGE('',*,*,#1010,.T.);
#1030=EDGE_LOOP('',(#1024,#1026,#1028,#1029));
#1031=FACE_OUTER_BOUND('',#1030,.F.);
#1032=ADVANCED_FACE('',(#1031),#1022,.F.);
#1033=CARTESIAN_POINT('',(-3.5E0,4.5E-1,0.E0));
#1034=DIRECTION('',(0.E0,0.E0,1.E0));
#1035=DIRECTION('',(1.E0,0.E0,0.E0));
#1036=AXIS2_PLACEMENT_3D('',#1033,#1034,#1035);
#1037=CYLINDRICAL_SURFACE('',#1036,1.5E-1);
#1038=ORIENTED_EDGE('',*,*,#1023,.F.);
#1039=ORIENTED_EDGE('',*,*,#999,.T.);
#1041=ORIENTED_EDGE('',*,*,#1040,.F.);
#1043=ORIENTED_EDGE('',*,*,#1042,.T.);
#1044=EDGE_LOOP('',(#1038,#1039,#1041,#1043));
#1045=FACE_OUTER_BOUND('',#1044,.F.);
#1046=ADVANCED_FACE('',(#1045),#1037,.F.);
#1047=CARTESIAN_POINT('',(-3.534056174649E0,2.275923180996E-1,-5.E-1));
#1048=DIRECTION('',(0.E0,0.E0,-1.E0));
#1049=DIRECTION('',(-9.982699530278E-1,-5.879711627101E-2,0.E0));
#1050=AXIS2_PLACEMENT_3D('',#1047,#1048,#1049);
#1051=PLANE('',#1050);
#1052=ORIENTED_EDGE('',*,*,#1040,.T.);
#1053=ORIENTED_EDGE('',*,*,#985,.T.);
#1055=ORIENTED_EDGE('',*,*,#1054,.T.);
#1057=ORIENTED_EDGE('',*,*,#1056,.T.);
#1058=EDGE_LOOP('',(#1052,#1053,#1055,#1057));
#1059=FACE_OUTER_BOUND('',#1058,.F.);
#1060=ADVANCED_FACE('',(#1059),#1051,.T.);
#1061=CARTESIAN_POINT('',(-3.5E0,4.5E-1,0.E0));
#1062=DIRECTION('',(0.E0,0.E0,1.E0));
#1063=DIRECTION('',(1.E0,0.E0,0.E0));
#1064=AXIS2_PLACEMENT_3D('',#1061,#1062,#1063);
#1065=CYLINDRICAL_SURFACE('',#1064,3.E-1);
#1066=ORIENTED_EDGE('',*,*,#1027,.F.);
#1068=ORIENTED_EDGE('',*,*,#1067,.T.);
#1069=ORIENTED_EDGE('',*,*,#1054,.F.);
#1071=ORIENTED_EDGE('',*,*,#1070,.T.);
#1072=EDGE_LOOP('',(#1066,#1068,#1069,#1071));
#1073=FACE_OUTER_BOUND('',#1072,.F.);
#1074=ADVANCED_FACE('',(#1073),#1065,.T.);
#1075=CARTESIAN_POINT('',(-9.112426773063E-2,3.502595070458E-1,0.E0));
#1076=DIRECTION('',(-5.879711627101E-2,9.982699530278E-1,0.E0));
#1077=DIRECTION('',(-9.982699530278E-1,-5.879711627101E-2,0.E0));
#1078=AXIS2_PLACEMENT_3D('',#1075,#1076,#1077);
#1079=PLANE('',#1078);
#1081=ORIENTED_EDGE('',*,*,#1080,.T.);
#1083=ORIENTED_EDGE('',*,*,#1082,.F.);
#1085=ORIENTED_EDGE('',*,*,#1084,.F.);
#1086=ORIENTED_EDGE('',*,*,#1067,.F.);
#1087=EDGE_LOOP('',(#1081,#1083,#1085,#1086));
#1088=FACE_OUTER_BOUND('',#1087,.F.);
#1089=ADVANCED_FACE('',(#1088),#1079,.F.);
#1090=CARTESIAN_POINT('',(-1.792253841608E0,3.251946302844E-1,0.E0));
#1091=DIRECTION('',(0.E0,0.E0,-1.E0));
#1092=DIRECTION('',(-9.982699530278E-1,-5.879711627101E-2,0.E0));
#1093=AXIS2_PLACEMENT_3D('',#1090,#1091,#1092);
#1094=PLANE('',#1093);
#1096=ORIENTED_EDGE('',*,*,#1095,.T.);
#1098=ORIENTED_EDGE('',*,*,#1097,.F.);
#1099=ORIENTED_EDGE('',*,*,#1080,.F.);
#1100=ORIENTED_EDGE('',*,*,#1025,.T.);
#1101=EDGE_LOOP('',(#1096,#1098,#1099,#1100));
#1102=FACE_OUTER_BOUND('',#1101,.F.);
#1103=ADVANCED_FACE('',(#1102),#1094,.F.);
#1104=CARTESIAN_POINT('',(-9.994383517128E-2,5.E-1,0.E0));
#1105=DIRECTION('',(-5.879711627101E-2,9.982699530278E-1,0.E0));
#1106=DIRECTION('',(-9.982699530278E-1,-5.879711627101E-2,0.E0));
#1107=AXIS2_PLACEMENT_3D('',#1104,#1105,#1106);
#1108=PLANE('',#1107);
#1109=ORIENTED_EDGE('',*,*,#1095,.F.);
#1110=ORIENTED_EDGE('',*,*,#1042,.F.);
#1112=ORIENTED_EDGE('',*,*,#1111,.T.);
#1114=ORIENTED_EDGE('',*,*,#1113,.T.);
#1115=EDGE_LOOP('',(#1109,#1110,#1112,#1114));
#1116=FACE_OUTER_BOUND('',#1115,.F.);
#1117=ADVANCED_FACE('',(#1116),#1108,.T.);
#1118=CARTESIAN_POINT('',(-1.792253841608E0,3.251946302844E-1,-5.E-1));
#1119=DIRECTION('',(0.E0,0.E0,-1.E0));
#1120=DIRECTION('',(-9.982699530278E-1,-5.879711627101E-2,0.E0));
#1121=AXIS2_PLACEMENT_3D('',#1118,#1119,#1120);
#1122=PLANE('',#1121);
#1123=ORIENTED_EDGE('',*,*,#1111,.F.);
#1124=ORIENTED_EDGE('',*,*,#1056,.F.);
#1125=ORIENTED_EDGE('',*,*,#1084,.T.);
#1127=ORIENTED_EDGE('',*,*,#1126,.T.);
#1128=EDGE_LOOP('',(#1123,#1124,#1125,#1127));
#1129=FACE_OUTER_BOUND('',#1128,.F.);
#1130=ADVANCED_FACE('',(#1129),#1122,.T.);
#1131=CARTESIAN_POINT('',(-4.886851718830E-2,4.25E-1,-5.E-1));
#1132=DIRECTION('',(0.E0,0.E0,-1.E0));
#1133=DIRECTION('',(-1.E0,0.E0,0.E0));
#1134=AXIS2_PLACEMENT_3D('',#1131,#1132,#1133);
#1135=PLANE('',#1134);
#1137=ORIENTED_EDGE('',*,*,#1136,.T.);
#1139=ORIENTED_EDGE('',*,*,#1138,.T.);
#1141=ORIENTED_EDGE('',*,*,#1140,.F.);
#1142=ORIENTED_EDGE('',*,*,#1126,.F.);
#1143=EDGE_LOOP('',(#1137,#1139,#1141,#1142));
#1144=FACE_OUTER_BOUND('',#1143,.F.);
#1145=ADVANCED_FACE('',(#1144),#1135,.T.);
#1146=CARTESIAN_POINT('',(0.E0,3.5E-1,0.E0));
#1147=DIRECTION('',(0.E0,1.E0,0.E0));
#1148=DIRECTION('',(-1.E0,0.E0,0.E0));
#1149=AXIS2_PLACEMENT_3D('',#1146,#1147,#1148);
#1150=PLANE('',#1149);
#1152=ORIENTED_EDGE('',*,*,#1151,.T.);
#1154=ORIENTED_EDGE('',*,*,#1153,.T.);
#1156=ORIENTED_EDGE('',*,*,#1155,.F.);
#1158=ORIENTED_EDGE('',*,*,#1157,.T.);
#1160=ORIENTED_EDGE('',*,*,#1159,.T.);
#1162=ORIENTED_EDGE('',*,*,#1161,.T.);
#1164=ORIENTED_EDGE('',*,*,#1163,.F.);
#1166=ORIENTED_EDGE('',*,*,#1165,.F.);
#1168=ORIENTED_EDGE('',*,*,#1167,.F.);
#1170=ORIENTED_EDGE('',*,*,#1169,.F.);
#1172=ORIENTED_EDGE('',*,*,#1171,.F.);
#1174=ORIENTED_EDGE('',*,*,#1173,.F.);
#1176=ORIENTED_EDGE('',*,*,#1175,.F.);
#1178=ORIENTED_EDGE('',*,*,#1177,.F.);
#1180=ORIENTED_EDGE('',*,*,#1179,.T.);
#1182=ORIENTED_EDGE('',*,*,#1181,.T.);
#1184=ORIENTED_EDGE('',*,*,#1183,.T.);
#1186=ORIENTED_EDGE('',*,*,#1185,.F.);
#1188=ORIENTED_EDGE('',*,*,#1187,.T.);
#1190=ORIENTED_EDGE('',*,*,#1189,.F.);
#1192=ORIENTED_EDGE('',*,*,#1191,.T.);
#1193=ORIENTED_EDGE('',*,*,#1136,.F.);
#1194=ORIENTED_EDGE('',*,*,#1082,.T.);
#1196=ORIENTED_EDGE('',*,*,#1195,.T.);
#1198=ORIENTED_EDGE('',*,*,#1197,.T.);
#1199=EDGE_LOOP('',(#1152,#1154,#1156,#1158,#1160,#1162,#1164,#1166,#1168,#1170,
#1172,#1174,#1176,#1178,#1180,#1182,#1184,#1186,#1188,#1190,#1192,#1193,#1194,
#1196,#1198));
#1200=FACE_OUTER_BOUND('',#1199,.F.);
#1201=ADVANCED_FACE('',(#1200),#1150,.F.);
#1202=CARTESIAN_POINT('',(2.8E0,4.25E-1,2.5E-1));
#1203=DIRECTION('',(0.E0,0.E0,1.E0));
#1204=DIRECTION('',(1.E0,0.E0,0.E0));
#1205=AXIS2_PLACEMENT_3D('',#1202,#1203,#1204);
#1206=PLANE('',#1205);
#1207=ORIENTED_EDGE('',*,*,#1151,.F.);
#1209=ORIENTED_EDGE('',*,*,#1208,.T.);
#1211=ORIENTED_EDGE('',*,*,#1210,.F.);
#1213=ORIENTED_EDGE('',*,*,#1212,.F.);
#1214=EDGE_LOOP('',(#1207,#1209,#1211,#1213));
#1215=FACE_OUTER_BOUND('',#1214,.F.);
#1216=ADVANCED_FACE('',(#1215),#1206,.T.);
#1217=CARTESIAN_POINT('',(1.1E0,4.25E-1,1.25E-1));
#1218=DIRECTION('',(-1.375683712747E-1,0.E0,9.904922731778E-1));
#1219=DIRECTION('',(9.904922731778E-1,0.E0,1.375683712747E-1));
#1220=AXIS2_PLACEMENT_3D('',#1217,#1218,#1219);
#1221=PLANE('',#1220);
#1223=ORIENTED_EDGE('',*,*,#1222,.F.);
#1224=ORIENTED_EDGE('',*,*,#1208,.F.);
#1225=ORIENTED_EDGE('',*,*,#1197,.F.);
#1227=ORIENTED_EDGE('',*,*,#1226,.T.);
#1228=EDGE_LOOP('',(#1223,#1224,#1225,#1227));
#1229=FACE_OUTER_BOUND('',#1228,.F.);
#1230=ADVANCED_FACE('',(#1229),#1221,.T.);
#1231=CARTESIAN_POINT('',(0.E0,5.E-1,0.E0));
#1232=DIRECTION('',(0.E0,1.E0,0.E0));
#1233=DIRECTION('',(-1.E0,0.E0,0.E0));
#1234=AXIS2_PLACEMENT_3D('',#1231,#1232,#1233);
#1235=PLANE('',#1234);
#1236=ORIENTED_EDGE('',*,*,#1210,.T.);
#1237=ORIENTED_EDGE('',*,*,#1222,.T.);
#1239=ORIENTED_EDGE('',*,*,#1238,.T.);
#1240=ORIENTED_EDGE('',*,*,#1113,.F.);
#1241=ORIENTED_EDGE('',*,*,#1140,.T.);
#1243=ORIENTED_EDGE('',*,*,#1242,.T.);
#1245=ORIENTED_EDGE('',*,*,#1244,.T.);
#1247=ORIENTED_EDGE('',*,*,#1246,.T.);
#1249=ORIENTED_EDGE('',*,*,#1248,.T.);
#1251=ORIENTED_EDGE('',*,*,#1250,.T.);
#1253=ORIENTED_EDGE('',*,*,#1252,.T.);
#1255=ORIENTED_EDGE('',*,*,#1254,.T.);
#1257=ORIENTED_EDGE('',*,*,#1256,.T.);
#1259=ORIENTED_EDGE('',*,*,#1258,.T.);
#1261=ORIENTED_EDGE('',*,*,#1260,.T.);
#1263=ORIENTED_EDGE('',*,*,#1262,.F.);
#1265=ORIENTED_EDGE('',*,*,#1264,.T.);
#1267=ORIENTED_EDGE('',*,*,#1266,.T.);
#1269=ORIENTED_EDGE('',*,*,#1268,.T.);
#1271=ORIENTED_EDGE('',*,*,#1270,.T.);
#1273=ORIENTED_EDGE('',*,*,#1272,.T.);
#1275=ORIENTED_EDGE('',*,*,#1274,.T.);
#1277=ORIENTED_EDGE('',*,*,#1276,.T.);
#1279=ORIENTED_EDGE('',*,*,#1278,.T.);
#1281=ORIENTED_EDGE('',*,*,#1280,.T.);
#1282=EDGE_LOOP('',(#1236,#1237,#1239,#1240,#1241,#1243,#1245,#1247,#1249,#1251,
#1253,#1255,#1257,#1259,#1261,#1263,#1265,#1267,#1269,#1271,#1273,#1275,#1277,
#1279,#1281));
#1283=FACE_OUTER_BOUND('',#1282,.F.);
#1284=ADVANCED_FACE('',(#1283),#1235,.T.);
#1285=CARTESIAN_POINT('',(-4.886851718830E-2,4.25E-1,0.E0));
#1286=DIRECTION('',(0.E0,0.E0,-1.E0));
#1287=DIRECTION('',(-1.E0,0.E0,0.E0));
#1288=AXIS2_PLACEMENT_3D('',#1285,#1286,#1287);
#1289=PLANE('',#1288);
#1290=ORIENTED_EDGE('',*,*,#1238,.F.);
#1291=ORIENTED_EDGE('',*,*,#1226,.F.);
#1292=ORIENTED_EDGE('',*,*,#1195,.F.);
#1293=ORIENTED_EDGE('',*,*,#1097,.T.);
#1294=EDGE_LOOP('',(#1290,#1291,#1292,#1293));
#1295=FACE_OUTER_BOUND('',#1294,.F.);
#1296=ADVANCED_FACE('',(#1295),#1289,.F.);
#1297=CARTESIAN_POINT('',(1.134556369077E0,4.25E-1,-3.75E-1));
#1298=DIRECTION('',(1.375683712747E-1,0.E0,-9.904922731778E-1));
#1299=DIRECTION('',(-9.904922731778E-1,0.E0,-1.375683712747E-1));
#1300=AXIS2_PLACEMENT_3D('',#1297,#1298,#1299);
#1301=PLANE('',#1300);
#1302=ORIENTED_EDGE('',*,*,#1242,.F.);
#1303=ORIENTED_EDGE('',*,*,#1138,.F.);
#1304=ORIENTED_EDGE('',*,*,#1191,.F.);
#1306=ORIENTED_EDGE('',*,*,#1305,.T.);
#1307=EDGE_LOOP('',(#1302,#1303,#1304,#1306));
#1308=FACE_OUTER_BOUND('',#1307,.F.);
#1309=ADVANCED_FACE('',(#1308),#1301,.T.);
#1310=CARTESIAN_POINT('',(2.717278184539E0,4.25E-1,-2.5E-1));
#1311=DIRECTION('',(0.E0,0.E0,-1.E0));
#1312=DIRECTION('',(-1.E0,0.E0,0.E0));
#1313=AXIS2_PLACEMENT_3D('',#1310,#1311,#1312);
#1314=PLANE('',#1313);
#1315=ORIENTED_EDGE('',*,*,#1244,.F.);
#1316=ORIENTED_EDGE('',*,*,#1305,.F.);
#1317=ORIENTED_EDGE('',*,*,#1189,.T.);
#1319=ORIENTED_EDGE('',*,*,#1318,.T.);
#1320=EDGE_LOOP('',(#1315,#1316,#1317,#1319));
#1321=FACE_OUTER_BOUND('',#1320,.F.);
#1322=ADVANCED_FACE('',(#1321),#1314,.T.);
#1323=CARTESIAN_POINT('',(3.550850997376E0,4.25E-1,-3.75E-1));
#1324=DIRECTION('',(-6.380456286808E-1,0.E0,-7.699985556618E-1));
#1325=DIRECTION('',(-7.699985556618E-1,0.E0,6.380456286808E-1));
#1326=AXIS2_PLACEMENT_3D('',#1323,#1324,#1325);
#1327=PLANE('',#1326);
#1328=ORIENTED_EDGE('',*,*,#1246,.F.);
#1329=ORIENTED_EDGE('',*,*,#1318,.F.);
#1330=ORIENTED_EDGE('',*,*,#1187,.F.);
#1332=ORIENTED_EDGE('',*,*,#1331,.T.);
#1333=EDGE_LOOP('',(#1328,#1329,#1330,#1332));
#1334=FACE_OUTER_BOUND('',#1333,.F.);
#1335=ADVANCED_FACE('',(#1334),#1327,.T.);
#1336=CARTESIAN_POINT('',(3.801701994751E0,4.25E-1,-5.E-1));
#1337=DIRECTION('',(0.E0,0.E0,-1.E0));
#1338=DIRECTION('',(-1.E0,0.E0,0.E0));
#1339=AXIS2_PLACEMENT_3D('',#1336,#1337,#1338);
#1340=PLANE('',#1339);
#1341=ORIENTED_EDGE('',*,*,#1248,.F.);
#1342=ORIENTED_EDGE('',*,*,#1331,.F.);
#1343=ORIENTED_EDGE('',*,*,#1185,.T.);
#1345=ORIENTED_EDGE('',*,*,#1344,.T.);
#1346=EDGE_LOOP('',(#1341,#1342,#1343,#1345));
#1347=FACE_OUTER_BOUND('',#1346,.F.);
#1348=ADVANCED_FACE('',(#1347),#1340,.T.);
#1349=CARTESIAN_POINT('',(3.970604277768E0,4.25E-1,-5.306772728821E-1));
#1350=DIRECTION('',(-4.067366430758E-1,0.E0,-9.135454576426E-1));
#1351=DIRECTION('',(-9.135454576426E-1,0.E0,4.067366430758E-1));
#1352=AXIS2_PLACEMENT_3D('',#1349,#1350,#1351);
#1353=PLANE('',#1352);
#1354=ORIENTED_EDGE('',*,*,#1250,.F.);
#1355=ORIENTED_EDGE('',*,*,#1344,.F.);
#1356=ORIENTED_EDGE('',*,*,#1183,.F.);
#1358=ORIENTED_EDGE('',*,*,#1357,.F.);
#1359=EDGE_LOOP('',(#1354,#1355,#1356,#1358));
#1360=FACE_OUTER_BOUND('',#1359,.F.);
#1361=ADVANCED_FACE('',(#1360),#1353,.T.);
#1362=CARTESIAN_POINT('',(4.080180225092E0,4.25E-1,-4.7E-1));
#1363=DIRECTION('',(0.E0,1.E0,0.E0));
#1364=DIRECTION('',(6.427876096865E-1,0.E0,-7.660444431190E-1));
#1365=AXIS2_PLACEMENT_3D('',#1362,#1363,#1364);
#1366=CYLINDRICAL_SURFACE('',#1365,1.E-1);
#1367=ORIENTED_EDGE('',*,*,#1252,.F.);
#1368=ORIENTED_EDGE('',*,*,#1357,.T.);
#1369=ORIENTED_EDGE('',*,*,#1181,.F.);
#1371=ORIENTED_EDGE('',*,*,#1370,.T.);
#1372=EDGE_LOOP('',(#1367,#1368,#1369,#1371));
#1373=FACE_OUTER_BOUND('',#1372,.F.);
#1374=ADVANCED_FACE('',(#1373),#1366,.T.);
#1375=CARTESIAN_POINT('',(4.172229493030E0,4.25E-1,-5.233022221559E-1));
#1376=DIRECTION('',(6.427876096865E-1,0.E0,-7.660444431190E-1));
#1377=DIRECTION('',(-7.660444431190E-1,0.E0,-6.427876096865E-1));
#1378=AXIS2_PLACEMENT_3D('',#1375,#1376,#1377);
#1379=PLANE('',#1378);
#1380=ORIENTED_EDGE('',*,*,#1254,.F.);
#1381=ORIENTED_EDGE('',*,*,#1370,.F.);
#1382=ORIENTED_EDGE('',*,*,#1179,.F.);
#1384=ORIENTED_EDGE('',*,*,#1383,.T.);
#1385=EDGE_LOOP('',(#1380,#1381,#1382,#1384));
#1386=FACE_OUTER_BOUND('',#1385,.F.);
#1387=ADVANCED_FACE('',(#1386),#1379,.T.);
#1388=CARTESIAN_POINT('',(4.325E0,4.25E-1,-5.E-1));
#1389=DIRECTION('',(0.E0,0.E0,-1.E0));
#1390=DIRECTION('',(-1.E0,0.E0,0.E0));
#1391=AXIS2_PLACEMENT_3D('',#1388,#1389,#1390);
#1392=PLANE('',#1391);
#1393=ORIENTED_EDGE('',*,*,#1256,.F.);
#1394=ORIENTED_EDGE('',*,*,#1383,.F.);
#1395=ORIENTED_EDGE('',*,*,#1177,.T.);
#1397=ORIENTED_EDGE('',*,*,#1396,.T.);
#1398=EDGE_LOOP('',(#1393,#1394,#1395,#1397));
#1399=FACE_OUTER_BOUND('',#1398,.F.);
#1400=ADVANCED_FACE('',(#1399),#1392,.T.);
#1401=CARTESIAN_POINT('',(4.45E0,4.25E-1,-3.25E-1));
#1402=DIRECTION('',(1.E0,0.E0,0.E0));
#1403=DIRECTION('',(0.E0,0.E0,-1.E0));
#1404=AXIS2_PLACEMENT_3D('',#1401,#1402,#1403);
#1405=PLANE('',#1404);
#1406=ORIENTED_EDGE('',*,*,#1258,.F.);
#1407=ORIENTED_EDGE('',*,*,#1396,.F.);
#1408=ORIENTED_EDGE('',*,*,#1175,.T.);
#1410=ORIENTED_EDGE('',*,*,#1409,.T.);
#1411=EDGE_LOOP('',(#1406,#1407,#1408,#1410));
#1412=FACE_OUTER_BOUND('',#1411,.F.);
#1413=ADVANCED_FACE('',(#1412),#1405,.T.);
#1414=CARTESIAN_POINT('',(4.0475E0,4.25E-1,-1.5E-1));
#1415=DIRECTION('',(0.E0,0.E0,1.E0));
#1416=DIRECTION('',(1.E0,0.E0,0.E0));
#1417=AXIS2_PLACEMENT_3D('',#1414,#1415,#1416);
#1418=PLANE('',#1417);
#1419=ORIENTED_EDGE('',*,*,#1260,.F.);
#1420=ORIENTED_EDGE('',*,*,#1409,.F.);
#1421=ORIENTED_EDGE('',*,*,#1173,.T.);
#1423=ORIENTED_EDGE('',*,*,#1422,.T.);
#1424=EDGE_LOOP('',(#1419,#1420,#1421,#1423));
#1425=FACE_OUTER_BOUND('',#1424,.F.);
#1426=ADVANCED_FACE('',(#1425),#1418,.T.);
#1427=CARTESIAN_POINT('',(3.804099025767E0,3.590990257670E-1,-1.5E-1));
#1428=DIRECTION('',(0.E0,0.E0,-1.E0));
#1429=DIRECTION('',(0.E0,1.E0,0.E0));
#1430=AXIS2_PLACEMENT_3D('',#1427,#1428,#1429);
#1431=PLANE('',#1430);
#1433=ORIENTED_EDGE('',*,*,#1432,.T.);
#1434=ORIENTED_EDGE('',*,*,#1422,.F.);
#1436=ORIENTED_EDGE('',*,*,#1435,.T.);
#1438=ORIENTED_EDGE('',*,*,#1437,.T.);
#1439=EDGE_LOOP('',(#1433,#1434,#1436,#1438));
#1440=FACE_OUTER_BOUND('',#1439,.F.);
#1441=ADVANCED_FACE('',(#1440),#1431,.T.);
#1442=CARTESIAN_POINT('',(3.645E0,2.E-1,2.5E-1));
#1443=DIRECTION('',(0.E0,0.E0,1.E0));
#1444=DIRECTION('',(1.E0,0.E0,0.E0));
#1445=AXIS2_PLACEMENT_3D('',#1442,#1443,#1444);
#1446=CYLINDRICAL_SURFACE('',#1445,3.E-1);
#1448=ORIENTED_EDGE('',*,*,#1447,.F.);
#1449=ORIENTED_EDGE('',*,*,#1262,.T.);
#1450=ORIENTED_EDGE('',*,*,#1432,.F.);
#1452=ORIENTED_EDGE('',*,*,#1451,.T.);
#1453=EDGE_LOOP('',(#1448,#1449,#1450,#1452));
#1454=FACE_OUTER_BOUND('',#1453,.F.);
#1455=ADVANCED_FACE('',(#1454),#1446,.T.);
#1456=CARTESIAN_POINT('',(3.804099025767E0,3.590990257670E-1,1.5E-1));
#1457=DIRECTION('',(0.E0,0.E0,-1.E0));
#1458=DIRECTION('',(0.E0,1.E0,0.E0));
#1459=AXIS2_PLACEMENT_3D('',#1456,#1457,#1458);
#1460=PLANE('',#1459);
#1461=ORIENTED_EDGE('',*,*,#1447,.T.);
#1463=ORIENTED_EDGE('',*,*,#1462,.F.);
#1465=ORIENTED_EDGE('',*,*,#1464,.T.);
#1467=ORIENTED_EDGE('',*,*,#1466,.T.);
#1468=EDGE_LOOP('',(#1461,#1463,#1465,#1467));
#1469=FACE_OUTER_BOUND('',#1468,.F.);
#1470=ADVANCED_FACE('',(#1469),#1460,.F.);
#1471=CARTESIAN_POINT('',(3.87E0,-1.75E-1,1.5E-1));
#1472=DIRECTION('',(0.E0,0.E0,-1.E0));
#1473=DIRECTION('',(0.E0,1.E0,0.E0));
#1474=AXIS2_PLACEMENT_3D('',#1471,#1472,#1473);
#1475=PLANE('',#1474);
#1477=ORIENTED_EDGE('',*,*,#1476,.T.);
#1479=ORIENTED_EDGE('',*,*,#1478,.F.);
#1481=ORIENTED_EDGE('',*,*,#1480,.F.);
#1482=ORIENTED_EDGE('',*,*,#1462,.T.);
#1483=EDGE_LOOP('',(#1477,#1479,#1481,#1482));
#1484=FACE_OUTER_BOUND('',#1483,.F.);
#1485=ADVANCED_FACE('',(#1484),#1475,.F.);
#1486=CARTESIAN_POINT('',(3.945E0,-5.5E-1,2.5E-1));
#1487=DIRECTION('',(1.E0,0.E0,0.E0));
#1488=DIRECTION('',(0.E0,1.E0,0.E0));
#1489=AXIS2_PLACEMENT_3D('',#1486,#1487,#1488);
#1490=PLANE('',#1489);
#1491=ORIENTED_EDGE('',*,*,#1476,.F.);
#1492=ORIENTED_EDGE('',*,*,#1451,.F.);
#1494=ORIENTED_EDGE('',*,*,#1493,.T.);
#1496=ORIENTED_EDGE('',*,*,#1495,.F.);
#1497=EDGE_LOOP('',(#1491,#1492,#1494,#1496));
#1498=FACE_OUTER_BOUND('',#1497,.F.);
#1499=ADVANCED_FACE('',(#1498),#1490,.T.);
#1500=CARTESIAN_POINT('',(3.87E0,-1.75E-1,-1.5E-1));
#1501=DIRECTION('',(0.E0,0.E0,-1.E0));
#1502=DIRECTION('',(0.E0,1.E0,0.E0));
#1503=AXIS2_PLACEMENT_3D('',#1500,#1501,#1502);
#1504=PLANE('',#1503);
#1505=ORIENTED_EDGE('',*,*,#1493,.F.);
#1506=ORIENTED_EDGE('',*,*,#1437,.F.);
#1508=ORIENTED_EDGE('',*,*,#1507,.T.);
#1510=ORIENTED_EDGE('',*,*,#1509,.T.);
#1511=EDGE_LOOP('',(#1505,#1506,#1508,#1510));
#1512=FACE_OUTER_BOUND('',#1511,.F.);
#1513=ADVANCED_FACE('',(#1512),#1504,.T.);
#1514=CARTESIAN_POINT('',(3.795E0,-5.5E-1,2.5E-1));
#1515=DIRECTION('',(1.E0,0.E0,0.E0));
#1516=DIRECTION('',(0.E0,1.E0,0.E0));
#1517=AXIS2_PLACEMENT_3D('',#1514,#1515,#1516);
#1518=PLANE('',#1517);
#1519=ORIENTED_EDGE('',*,*,#1480,.T.);
#1521=ORIENTED_EDGE('',*,*,#1520,.F.);
#1522=ORIENTED_EDGE('',*,*,#1507,.F.);
#1524=ORIENTED_EDGE('',*,*,#1523,.F.);
#1525=EDGE_LOOP('',(#1519,#1521,#1522,#1524));
#1526=FACE_OUTER_BOUND('',#1525,.F.);
#1527=ADVANCED_FACE('',(#1526),#1518,.F.);
#1528=CARTESIAN_POINT('',(4.095E0,-5.5E-1,2.5E-1));
#1529=DIRECTION('',(0.E0,0.E0,1.E0));
#1530=DIRECTION('',(1.E0,0.E0,0.E0));
#1531=AXIS2_PLACEMENT_3D('',#1528,#1529,#1530);
#1532=CYLINDRICAL_SURFACE('',#1531,3.E-1);
#1534=ORIENTED_EDGE('',*,*,#1533,.F.);
#1536=ORIENTED_EDGE('',*,*,#1535,.T.);
#1538=ORIENTED_EDGE('',*,*,#1537,.F.);
#1539=ORIENTED_EDGE('',*,*,#1520,.T.);
#1540=EDGE_LOOP('',(#1534,#1536,#1538,#1539));
#1541=FACE_OUTER_BOUND('',#1540,.F.);
#1542=ADVANCED_FACE('',(#1541),#1532,.T.);
#1543=CARTESIAN_POINT('',(3.935900974233E0,-7.090990257670E-1,1.5E-1));
#1544=DIRECTION('',(0.E0,0.E0,1.E0));
#1545=DIRECTION('',(0.E0,-1.E0,0.E0));
#1546=AXIS2_PLACEMENT_3D('',#1543,#1544,#1545);
#1547=PLANE('',#1546);
#1549=ORIENTED_EDGE('',*,*,#1548,.T.);
#1551=ORIENTED_EDGE('',*,*,#1550,.F.);
#1552=ORIENTED_EDGE('',*,*,#1533,.T.);
#1553=ORIENTED_EDGE('',*,*,#1478,.T.);
#1554=EDGE_LOOP('',(#1549,#1551,#1552,#1553));
#1555=FACE_OUTER_BOUND('',#1554,.F.);
#1556=ADVANCED_FACE('',(#1555),#1547,.T.);
#1557=CARTESIAN_POINT('',(4.095E0,-5.5E-1,2.5E-1));
#1558=DIRECTION('',(0.E0,0.E0,1.E0));
#1559=DIRECTION('',(1.E0,0.E0,0.E0));
#1560=AXIS2_PLACEMENT_3D('',#1557,#1558,#1559);
#1561=CYLINDRICAL_SURFACE('',#1560,1.5E-1);
#1562=ORIENTED_EDGE('',*,*,#1548,.F.);
#1563=ORIENTED_EDGE('',*,*,#1495,.T.);
#1565=ORIENTED_EDGE('',*,*,#1564,.F.);
#1567=ORIENTED_EDGE('',*,*,#1566,.T.);
#1568=EDGE_LOOP('',(#1562,#1563,#1565,#1567));
#1569=FACE_OUTER_BOUND('',#1568,.F.);
#1570=ADVANCED_FACE('',(#1569),#1561,.F.);
#1571=CARTESIAN_POINT('',(3.935900974233E0,-7.090990257670E-1,-1.5E-1));
#1572=DIRECTION('',(0.E0,0.E0,1.E0));
#1573=DIRECTION('',(0.E0,-1.E0,0.E0));
#1574=AXIS2_PLACEMENT_3D('',#1571,#1572,#1573);
#1575=PLANE('',#1574);
#1576=ORIENTED_EDGE('',*,*,#1564,.T.);
#1577=ORIENTED_EDGE('',*,*,#1509,.F.);
#1578=ORIENTED_EDGE('',*,*,#1537,.T.);
#1580=ORIENTED_EDGE('',*,*,#1579,.T.);
#1581=EDGE_LOOP('',(#1576,#1577,#1578,#1580));
#1582=FACE_OUTER_BOUND('',#1581,.F.);
#1583=ADVANCED_FACE('',(#1582),#1575,.F.);
#1584=CARTESIAN_POINT('',(4.445E0,-7.75E-1,-1.5E-1));
#1585=DIRECTION('',(0.E0,0.E0,-1.E0));
#1586=DIRECTION('',(-1.E0,0.E0,0.E0));
#1587=AXIS2_PLACEMENT_3D('',#1584,#1585,#1586);
#1588=PLANE('',#1587);
#1590=ORIENTED_EDGE('',*,*,#1589,.F.);
#1592=ORIENTED_EDGE('',*,*,#1591,.F.);
#1593=ORIENTED_EDGE('',*,*,#1579,.F.);
#1595=ORIENTED_EDGE('',*,*,#1594,.T.);
#1596=EDGE_LOOP('',(#1590,#1592,#1593,#1595));
#1597=FACE_OUTER_BOUND('',#1596,.F.);
#1598=ADVANCED_FACE('',(#1597),#1588,.T.);
#1599=CARTESIAN_POINT('',(4.645E0,-8.636026019008E-1,0.E0));
#1600=DIRECTION('',(0.E0,1.E0,0.E0));
#1601=DIRECTION('',(1.E0,0.E0,0.E0));
#1602=AXIS2_PLACEMENT_3D('',#1599,#1600,#1601);
#1603=CYLINDRICAL_SURFACE('',#1602,1.5E-1);
#1605=ORIENTED_EDGE('',*,*,#1604,.F.);
#1607=ORIENTED_EDGE('',*,*,#1606,.F.);
#1609=ORIENTED_EDGE('',*,*,#1608,.T.);
#1611=ORIENTED_EDGE('',*,*,#1610,.F.);
#1613=ORIENTED_EDGE('',*,*,#1612,.F.);
#1614=ORIENTED_EDGE('',*,*,#1589,.T.);
#1615=EDGE_LOOP('',(#1605,#1607,#1609,#1611,#1613,#1614));
#1616=FACE_OUTER_BOUND('',#1615,.F.);
#1617=ADVANCED_FACE('',(#1616),#1603,.T.);
#1618=CARTESIAN_POINT('',(4.795E0,-8.5E-1,2.5E-1));
#1619=DIRECTION('',(0.E0,1.E0,0.E0));
#1620=DIRECTION('',(-1.E0,0.E0,0.E0));
#1621=AXIS2_PLACEMENT_3D('',#1618,#1619,#1620);
#1622=PLANE('',#1621);
#1623=ORIENTED_EDGE('',*,*,#1606,.T.);
#1624=ORIENTED_EDGE('',*,*,#1604,.T.);
#1625=ORIENTED_EDGE('',*,*,#1594,.F.);
#1626=ORIENTED_EDGE('',*,*,#1535,.F.);
#1628=ORIENTED_EDGE('',*,*,#1627,.T.);
#1629=EDGE_LOOP('',(#1623,#1624,#1625,#1626,#1628));
#1630=FACE_OUTER_BOUND('',#1629,.F.);
#1631=ADVANCED_FACE('',(#1630),#1622,.F.);
#1632=CARTESIAN_POINT('',(4.445E0,-7.75E-1,1.5E-1));
#1633=DIRECTION('',(0.E0,0.E0,-1.E0));
#1634=DIRECTION('',(-1.E0,0.E0,0.E0));
#1635=AXIS2_PLACEMENT_3D('',#1632,#1633,#1634);
#1636=PLANE('',#1635);
#1637=ORIENTED_EDGE('',*,*,#1608,.F.);
#1638=ORIENTED_EDGE('',*,*,#1627,.F.);
#1639=ORIENTED_EDGE('',*,*,#1550,.T.);
#1641=ORIENTED_EDGE('',*,*,#1640,.T.);
#1642=EDGE_LOOP('',(#1637,#1638,#1639,#1641));
#1643=FACE_OUTER_BOUND('',#1642,.F.);
#1644=ADVANCED_FACE('',(#1643),#1636,.F.);
#1645=CARTESIAN_POINT('',(4.795E0,-7.E-1,2.5E-1));
#1646=DIRECTION('',(0.E0,1.E0,0.E0));
#1647=DIRECTION('',(-1.E0,0.E0,0.E0));
#1648=AXIS2_PLACEMENT_3D('',#1645,#1646,#1647);
#1649=PLANE('',#1648);
#1650=ORIENTED_EDGE('',*,*,#1612,.T.);
#1651=ORIENTED_EDGE('',*,*,#1610,.T.);
#1652=ORIENTED_EDGE('',*,*,#1640,.F.);
#1653=ORIENTED_EDGE('',*,*,#1566,.F.);
#1654=ORIENTED_EDGE('',*,*,#1591,.T.);
#1655=EDGE_LOOP('',(#1650,#1651,#1652,#1653,#1654));
#1656=FACE_OUTER_BOUND('',#1655,.F.);
#1657=ADVANCED_FACE('',(#1656),#1649,.T.);
#1658=CARTESIAN_POINT('',(3.645E0,2.E-1,2.5E-1));
#1659=DIRECTION('',(0.E0,0.E0,1.E0));
#1660=DIRECTION('',(1.E0,0.E0,0.E0));
#1661=AXIS2_PLACEMENT_3D('',#1658,#1659,#1660);
#1662=CYLINDRICAL_SURFACE('',#1661,1.5E-1);
#1663=ORIENTED_EDGE('',*,*,#1464,.F.);
#1664=ORIENTED_EDGE('',*,*,#1523,.T.);
#1665=ORIENTED_EDGE('',*,*,#1435,.F.);
#1666=ORIENTED_EDGE('',*,*,#1171,.T.);
#1667=EDGE_LOOP('',(#1663,#1664,#1665,#1666));
#1668=FACE_OUTER_BOUND('',#1667,.F.);
#1669=ADVANCED_FACE('',(#1668),#1662,.F.);
#1670=CARTESIAN_POINT('',(3.655E0,4.25E-1,1.5E-1));
#1671=DIRECTION('',(0.E0,0.E0,-1.E0));
#1672=DIRECTION('',(-1.E0,0.E0,0.E0));
#1673=AXIS2_PLACEMENT_3D('',#1670,#1671,#1672);
#1674=PLANE('',#1673);
#1675=ORIENTED_EDGE('',*,*,#1264,.F.);
#1676=ORIENTED_EDGE('',*,*,#1466,.F.);
#1677=ORIENTED_EDGE('',*,*,#1169,.T.);
#1679=ORIENTED_EDGE('',*,*,#1678,.T.);
#1680=EDGE_LOOP('',(#1675,#1676,#1677,#1679));
#1681=FACE_OUTER_BOUND('',#1680,.F.);
#1682=ADVANCED_FACE('',(#1681),#1674,.T.);
#1683=CARTESIAN_POINT('',(4.0575E0,4.25E-1,1.5E-1));
#1684=DIRECTION('',(0.E0,0.E0,-1.E0));
#1685=DIRECTION('',(-1.E0,0.E0,0.E0));
#1686=AXIS2_PLACEMENT_3D('',#1683,#1684,#1685);
#1687=PLANE('',#1686);
#1688=ORIENTED_EDGE('',*,*,#1266,.F.);
#1689=ORIENTED_EDGE('',*,*,#1678,.F.);
#1690=ORIENTED_EDGE('',*,*,#1167,.T.);
#1692=ORIENTED_EDGE('',*,*,#1691,.T.);
#1693=EDGE_LOOP('',(#1688,#1689,#1690,#1692));
#1694=FACE_OUTER_BOUND('',#1693,.F.);
#1695=ADVANCED_FACE('',(#1694),#1687,.T.);
#1696=CARTESIAN_POINT('',(4.45E0,4.25E-1,3.25E-1));
#1697=DIRECTION('',(1.E0,0.E0,0.E0));
#1698=DIRECTION('',(0.E0,0.E0,-1.E0));
#1699=AXIS2_PLACEMENT_3D('',#1696,#1697,#1698);
#1700=PLANE('',#1699);
#1701=ORIENTED_EDGE('',*,*,#1268,.F.);
#1702=ORIENTED_EDGE('',*,*,#1691,.F.);
#1703=ORIENTED_EDGE('',*,*,#1165,.T.);
#1705=ORIENTED_EDGE('',*,*,#1704,.T.);
#1706=EDGE_LOOP('',(#1701,#1702,#1703,#1705));
#1707=FACE_OUTER_BOUND('',#1706,.F.);
#1708=ADVANCED_FACE('',(#1707),#1700,.T.);
#1709=CARTESIAN_POINT('',(4.325E0,4.25E-1,5.E-1));
#1710=DIRECTION('',(0.E0,0.E0,1.E0));
#1711=DIRECTION('',(1.E0,0.E0,0.E0));
#1712=AXIS2_PLACEMENT_3D('',#1709,#1710,#1711);
#1713=PLANE('',#1712);
#1714=ORIENTED_EDGE('',*,*,#1270,.F.);
#1715=ORIENTED_EDGE('',*,*,#1704,.F.);
#1716=ORIENTED_EDGE('',*,*,#1163,.T.);
#1718=ORIENTED_EDGE('',*,*,#1717,.T.);
#1719=EDGE_LOOP('',(#1714,#1715,#1716,#1718));
#1720=FACE_OUTER_BOUND('',#1719,.F.);
#1721=ADVANCED_FACE('',(#1720),#1713,.T.);
#1722=CARTESIAN_POINT('',(4.172229493030E0,4.25E-1,5.233022221559E-1));
#1723=DIRECTION('',(6.427876096865E-1,0.E0,7.660444431190E-1));
#1724=DIRECTION('',(7.660444431190E-1,0.E0,-6.427876096865E-1));
#1725=AXIS2_PLACEMENT_3D('',#1722,#1723,#1724);
#1726=PLANE('',#1725);
#1727=ORIENTED_EDGE('',*,*,#1272,.F.);
#1728=ORIENTED_EDGE('',*,*,#1717,.F.);
#1729=ORIENTED_EDGE('',*,*,#1161,.F.);
#1731=ORIENTED_EDGE('',*,*,#1730,.F.);
#1732=EDGE_LOOP('',(#1727,#1728,#1729,#1731));
#1733=FACE_OUTER_BOUND('',#1732,.F.);
#1734=ADVANCED_FACE('',(#1733),#1726,.T.);
#1735=CARTESIAN_POINT('',(4.080180225092E0,4.25E-1,4.7E-1));
#1736=DIRECTION('',(0.E0,1.E0,0.E0));
#1737=DIRECTION('',(-4.067366430758E-1,0.E0,9.135454576426E-1));
#1738=AXIS2_PLACEMENT_3D('',#1735,#1736,#1737);
#1739=CYLINDRICAL_SURFACE('',#1738,1.E-1);
#1740=ORIENTED_EDGE('',*,*,#1274,.F.);
#1741=ORIENTED_EDGE('',*,*,#1730,.T.);
#1742=ORIENTED_EDGE('',*,*,#1159,.F.);
#1744=ORIENTED_EDGE('',*,*,#1743,.T.);
#1745=EDGE_LOOP('',(#1740,#1741,#1742,#1744));
#1746=FACE_OUTER_BOUND('',#1745,.F.);
#1747=ADVANCED_FACE('',(#1746),#1739,.T.);
#1748=CARTESIAN_POINT('',(3.970604277768E0,4.25E-1,5.306772728821E-1));
#1749=DIRECTION('',(-4.067366430758E-1,0.E0,9.135454576426E-1));
#1750=DIRECTION('',(9.135454576426E-1,0.E0,4.067366430758E-1));
#1751=AXIS2_PLACEMENT_3D('',#1748,#1749,#1750);
#1752=PLANE('',#1751);
#1753=ORIENTED_EDGE('',*,*,#1276,.F.);
#1754=ORIENTED_EDGE('',*,*,#1743,.F.);
#1755=ORIENTED_EDGE('',*,*,#1157,.F.);
#1757=ORIENTED_EDGE('',*,*,#1756,.T.);
#1758=EDGE_LOOP('',(#1753,#1754,#1755,#1757));
#1759=FACE_OUTER_BOUND('',#1758,.F.);
#1760=ADVANCED_FACE('',(#1759),#1752,.T.);
#1761=CARTESIAN_POINT('',(3.801701994751E0,4.25E-1,5.E-1));
#1762=DIRECTION('',(0.E0,0.E0,1.E0));
#1763=DIRECTION('',(1.E0,0.E0,0.E0));
#1764=AXIS2_PLACEMENT_3D('',#1761,#1762,#1763);
#1765=PLANE('',#1764);
#1766=ORIENTED_EDGE('',*,*,#1278,.F.);
#1767=ORIENTED_EDGE('',*,*,#1756,.F.);
#1768=ORIENTED_EDGE('',*,*,#1155,.T.);
#1770=ORIENTED_EDGE('',*,*,#1769,.T.);
#1771=EDGE_LOOP('',(#1766,#1767,#1768,#1770));
#1772=FACE_OUTER_BOUND('',#1771,.F.);
#1773=ADVANCED_FACE('',(#1772),#1765,.T.);
#1774=CARTESIAN_POINT('',(3.550850997376E0,4.25E-1,3.75E-1));
#1775=DIRECTION('',(-6.380456286808E-1,0.E0,7.699985556618E-1));
#1776=DIRECTION('',(7.699985556618E-1,0.E0,6.380456286808E-1));
#1777=AXIS2_PLACEMENT_3D('',#1774,#1775,#1776);
#1778=PLANE('',#1777);
#1779=ORIENTED_EDGE('',*,*,#1280,.F.);
#1780=ORIENTED_EDGE('',*,*,#1769,.F.);
#1781=ORIENTED_EDGE('',*,*,#1153,.F.);
#1782=ORIENTED_EDGE('',*,*,#1212,.T.);
#1783=EDGE_LOOP('',(#1779,#1780,#1781,#1782));
#1784=FACE_OUTER_BOUND('',#1783,.F.);
#1785=ADVANCED_FACE('',(#1784),#1778,.T.);
#1786=CARTESIAN_POINT('',(-3.606445731843E0,1.695195083925E-1,0.E0));
#1787=DIRECTION('',(3.548191061437E-1,9.349349720250E-1,0.E0));
#1788=DIRECTION('',(-9.349349720250E-1,3.548191061437E-1,0.E0));
#1789=AXIS2_PLACEMENT_3D('',#1786,#1787,#1788);
#1790=PLANE('',#1789);
#1791=ORIENTED_EDGE('',*,*,#1012,.T.);
#1792=ORIENTED_EDGE('',*,*,#1070,.F.);
#1793=ORIENTED_EDGE('',*,*,#983,.F.);
#1794=ORIENTED_EDGE('',*,*,#893,.F.);
#1795=EDGE_LOOP('',(#1791,#1792,#1793,#1794));
#1796=FACE_OUTER_BOUND('',#1795,.F.);
#1797=ADVANCED_FACE('',(#1796),#1790,.F.);
#1798=CLOSED_SHELL('',(#850,#869,#884,#902,#916,#933,#949,#961,#974,#989,#1003,
#1017,#1032,#1046,#1060,#1074,#1089,#1103,#1117,#1130,#1145,#1201,#1216,#1230,
#1284,#1296,#1309,#1322,#1335,#1348,#1361,#1374,#1387,#1400,#1413,#1426,#1441,
#1455,#1470,#1485,#1499,#1513,#1527,#1542,#1556,#1570,#1583,#1598,#1617,#1631,
#1644,#1657,#1669,#1682,#1695,#1708,#1721,#1734,#1747,#1760,#1773,#1785,#1797));
#1799=MANIFOLD_SOLID_BREP('',#1798);
#1800=(LENGTH_UNIT()NAMED_UNIT(*)SI_UNIT(.MILLI.,.METRE.));
#1801=DIMENSIONAL_EXPONENTS(0.E0,0.E0,0.E0,0.E0,0.E0,0.E0,0.E0);
#1802=(NAMED_UNIT(*)PLANE_ANGLE_UNIT()SI_UNIT($,.RADIAN.));
#1803=PLANE_ANGLE_MEASURE_WITH_UNIT(PLANE_ANGLE_MEASURE(1.745329251994E-2),
#1802);
#1804=(CONVERSION_BASED_UNIT('DEGREE',#1803)NAMED_UNIT(#1801)PLANE_ANGLE_UNIT(
));
#1805=(NAMED_UNIT(*)SI_UNIT($,.STERADIAN.)SOLID_ANGLE_UNIT());
#1806=UNCERTAINTY_MEASURE_WITH_UNIT(LENGTH_MEASURE(1.016985456238E-3),#1800,
'closure',
'Maximum model space distance between geometric entities at asserted connectivities');
#1807=(GEOMETRIC_REPRESENTATION_CONTEXT(3)GLOBAL_UNCERTAINTY_ASSIGNED_CONTEXT((
#1806))GLOBAL_UNIT_ASSIGNED_CONTEXT((#1800,#1804,#1805))REPRESENTATION_CONTEXT(
'ID1','3'));
#1809=APPLICATION_CONTEXT(
'CONFIGURATION CONTROLLED 3D DESIGNS OF MECHANICAL PARTS AND ASSEMBLIES');
#1810=APPLICATION_PROTOCOL_DEFINITION('international standard',
'config_control_design',1994,#1809);
#1811=DESIGN_CONTEXT('',#1809,'design');
#1812=MECHANICAL_CONTEXT('',#1809,'mechanical');
#1813=PRODUCT('T-DSC20-400X00_1_PRT','T-DSC20-400X00_1_PRT','NOT SPECIFIED',(
#1812));
#1814=PRODUCT_DEFINITION_FORMATION_WITH_SPECIFIED_SOURCE('1','LAST_VERSION',
#1813,.MADE.);
#1818=PRODUCT_CATEGORY('part','');
#1819=PRODUCT_RELATED_PRODUCT_CATEGORY('detail','',(#1813));
#1820=PRODUCT_CATEGORY_RELATIONSHIP('','',#1818,#1819);
#1821=SECURITY_CLASSIFICATION_LEVEL('unclassified');
#1822=SECURITY_CLASSIFICATION('','',#1821);
#1823=CC_DESIGN_SECURITY_CLASSIFICATION(#1822,(#1814));
#1824=APPROVAL_STATUS('approved');
#1825=APPROVAL(#1824,'');
#1826=CC_DESIGN_APPROVAL(#1825,(#1822,#1814,#1815));
#1827=CALENDAR_DATE(108,30,6);
#1828=COORDINATED_UNIVERSAL_TIME_OFFSET(3,0,.BEHIND.);
#1829=LOCAL_TIME(11,3,4.2E1,#1828);
#1830=DATE_AND_TIME(#1827,#1829);
#1831=APPROVAL_DATE_TIME(#1830,#1825);
#1832=DATE_TIME_ROLE('creation_date');
#1833=CC_DESIGN_DATE_AND_TIME_ASSIGNMENT(#1830,#1832,(#1815));
#1834=DATE_TIME_ROLE('classification_date');
#1835=CC_DESIGN_DATE_AND_TIME_ASSIGNMENT(#1830,#1834,(#1822));
#1836=PERSON('UNSPECIFIED','UNSPECIFIED',$,$,$,$);
#1837=ORGANIZATION('UNSPECIFIED','UNSPECIFIED','UNSPECIFIED');
#1838=PERSON_AND_ORGANIZATION(#1836,#1837);
#1839=APPROVAL_ROLE('approver');
#1840=APPROVAL_PERSON_ORGANIZATION(#1838,#1825,#1839);
#1841=PERSON_AND_ORGANIZATION_ROLE('creator');
#1842=CC_DESIGN_PERSON_AND_ORGANIZATION_ASSIGNMENT(#1838,#1841,(#1814,#1815));
#1843=PERSON_AND_ORGANIZATION_ROLE('design_supplier');
#1844=CC_DESIGN_PERSON_AND_ORGANIZATION_ASSIGNMENT(#1838,#1843,(#1814));
#1845=PERSON_AND_ORGANIZATION_ROLE('classification_officer');
#1846=CC_DESIGN_PERSON_AND_ORGANIZATION_ASSIGNMENT(#1838,#1845,(#1822));
#1847=PERSON_AND_ORGANIZATION_ROLE('design_owner');
#1848=CC_DESIGN_PERSON_AND_ORGANIZATION_ASSIGNMENT(#1838,#1847,(#1813));
#5=CIRCLE('',#4,2.E-1);
#10=CIRCLE('',#9,2.E-1);
#19=CIRCLE('',#18,2.E-1);
#24=CIRCLE('',#23,2.E-1);
#35=B_SPLINE_CURVE_WITH_KNOTS('',3,(#29,#30,#31,#32,#33,#34),.UNSPECIFIED.,.F.,
.F.,(4,1,1,4),(0.E0,3.333333333333E-1,6.666666666667E-1,1.E0),.UNSPECIFIED.);
#46=B_SPLINE_CURVE_WITH_KNOTS('',3,(#40,#41,#42,#43,#44,#45),.UNSPECIFIED.,.F.,
.F.,(4,1,1,4),(0.E0,3.333333333333E-1,6.666666666667E-1,1.E0),.UNSPECIFIED.);
#59=CIRCLE('',#58,3.E-1);
#64=CIRCLE('',#63,1.5E-1);
#71=B_SPLINE_CURVE_WITH_KNOTS('',3,(#65,#66,#67,#68,#69,#70),.UNSPECIFIED.,.F.,
.F.,(4,1,1,4),(0.E0,3.333333333333E-1,6.666666666667E-1,1.E0),.UNSPECIFIED.);
#82=B_SPLINE_CURVE_WITH_KNOTS('',3,(#76,#77,#78,#79,#80,#81),.UNSPECIFIED.,.F.,
.F.,(4,1,1,4),(0.E0,3.333333333333E-1,6.666666666667E-1,1.E0),.UNSPECIFIED.);
#99=CIRCLE('',#98,3.E-1);
#108=CIRCLE('',#107,1.5E-1);
#133=CIRCLE('',#132,1.5E-1);
#138=CIRCLE('',#137,3.E-1);
#155=CIRCLE('',#154,1.5E-1);
#164=CIRCLE('',#163,3.E-1);
#229=CIRCLE('',#228,1.E-1);
#242=CIRCLE('',#241,1.E-1);
#315=CIRCLE('',#314,1.E-1);
#356=CIRCLE('',#355,1.E-1);
#437=CIRCLE('',#436,3.E-1);
#442=CIRCLE('',#441,1.5E-1);
#459=CIRCLE('',#458,3.E-1);
#464=CIRCLE('',#463,1.5E-1);
#505=CIRCLE('',#504,1.5E-1);
#510=CIRCLE('',#509,3.E-1);
#527=CIRCLE('',#526,1.5E-1);
#532=CIRCLE('',#531,3.E-1);
#553=CIRCLE('',#552,1.5E-1);
#558=CIRCLE('',#557,1.5E-1);
#575=CIRCLE('',#574,1.5E-1);
#580=CIRCLE('',#579,1.5E-1);
#840=EDGE_CURVE('',#655,#656,#5,.T.);
#842=EDGE_CURVE('',#658,#656,#94,.T.);
#844=EDGE_CURVE('',#658,#660,#10,.T.);
#846=EDGE_CURVE('',#655,#660,#75,.T.);
#856=EDGE_CURVE('',#663,#664,#19,.T.);
#858=EDGE_CURVE('',#663,#656,#14,.T.);
#861=EDGE_CURVE('',#665,#655,#71,.T.);
#863=EDGE_CURVE('',#667,#665,#54,.T.);
#865=EDGE_CURVE('',#664,#667,#35,.T.);
#876=EDGE_CURVE('',#669,#664,#50,.T.);
#878=EDGE_CURVE('',#669,#671,#24,.T.);
#880=EDGE_CURVE('',#671,#663,#28,.T.);
#891=EDGE_CURVE('',#673,#667,#64,.T.);
#893=EDGE_CURVE('',#673,#675,#39,.T.);
#895=EDGE_CURVE('',#677,#675,#108,.T.);
#897=EDGE_CURVE('',#677,#669,#46,.T.);
#909=EDGE_CURVE('',#665,#679,#59,.T.);
#911=EDGE_CURVE('',#673,#679,#128,.T.);
#924=EDGE_CURVE('',#660,#680,#82,.T.);
#926=EDGE_CURVE('',#682,#680,#99,.T.);
#928=EDGE_CURVE('',#682,#679,#86,.T.);
#939=EDGE_CURVE('',#658,#671,#90,.T.);
#943=EDGE_CURVE('',#680,#677,#103,.T.);
#970=EDGE_CURVE('',#675,#682,#112,.T.);
#980=EDGE_CURVE('',#682,#684,#120,.T.);
#983=EDGE_CURVE('',#675,#686,#116,.T.);
#985=EDGE_CURVE('',#684,#686,#159,.T.);
#995=EDGE_CURVE('',#679,#688,#124,.T.);
#999=EDGE_CURVE('',#688,#684,#146,.T.);
#1010=EDGE_CURVE('',#690,#688,#142,.T.);
#1012=EDGE_CURVE('',#673,#690,#652,.T.);
#1023=EDGE_CURVE('',#688,#692,#133,.T.);
#1025=EDGE_CURVE('',#694,#692,#188,.T.);
#1027=EDGE_CURVE('',#694,#690,#138,.T.);
#1040=EDGE_CURVE('',#696,#684,#155,.T.);
#1042=EDGE_CURVE('',#696,#692,#150,.T.);
#1054=EDGE_CURVE('',#686,#698,#164,.T.);
#1056=EDGE_CURVE('',#698,#696,#168,.T.);
#1067=EDGE_CURVE('',#694,#698,#172,.T.);
#1070=EDGE_CURVE('',#686,#690,#176,.T.);
#1080=EDGE_CURVE('',#694,#700,#180,.T.);
#1082=EDGE_CURVE('',#702,#700,#258,.T.);
#1084=EDGE_CURVE('',#698,#702,#200,.T.);
#1095=EDGE_CURVE('',#692,#704,#184,.T.);
#1097=EDGE_CURVE('',#700,#704,#372,.T.);
#1111=EDGE_CURVE('',#696,#706,#192,.T.);
#1113=EDGE_CURVE('',#706,#704,#196,.T.);
#1126=EDGE_CURVE('',#702,#706,#204,.T.);
#1136=EDGE_CURVE('',#702,#708,#208,.T.);
#1138=EDGE_CURVE('',#708,#710,#212,.T.);
#1140=EDGE_CURVE('',#706,#710,#290,.T.);
#1151=EDGE_CURVE('',#713,#714,#216,.T.);
#1153=EDGE_CURVE('',#714,#716,#220,.T.);
#1155=EDGE_CURVE('',#718,#716,#640,.T.);
#1157=EDGE_CURVE('',#718,#720,#224,.T.);
#1159=EDGE_CURVE('',#720,#722,#229,.T.);
#1161=EDGE_CURVE('',#722,#724,#233,.T.);
#1163=EDGE_CURVE('',#726,#724,#620,.T.);
#1165=EDGE_CURVE('',#728,#726,#612,.T.);
#1167=EDGE_CURVE('',#730,#728,#604,.T.);
#1169=EDGE_CURVE('',#732,#730,#596,.T.);
#1171=EDGE_CURVE('',#734,#732,#592,.T.);
#1173=EDGE_CURVE('',#736,#734,#428,.T.);
#1175=EDGE_CURVE('',#738,#736,#420,.T.);
#1177=EDGE_CURVE('',#740,#738,#412,.T.);
#1179=EDGE_CURVE('',#740,#742,#237,.T.);
#1181=EDGE_CURVE('',#742,#744,#242,.T.);
#1183=EDGE_CURVE('',#744,#746,#246,.T.);
#1185=EDGE_CURVE('',#748,#746,#392,.T.);
#1187=EDGE_CURVE('',#748,#750,#250,.T.);
#1189=EDGE_CURVE('',#752,#750,#380,.T.);
#1191=EDGE_CURVE('',#752,#708,#254,.T.);
#1195=EDGE_CURVE('',#700,#754,#262,.T.);
#1197=EDGE_CURVE('',#754,#713,#266,.T.);
#1208=EDGE_CURVE('',#713,#756,#270,.T.);
#1210=EDGE_CURVE('',#758,#756,#278,.T.);
#1212=EDGE_CURVE('',#714,#758,#648,.T.);
#1222=EDGE_CURVE('',#756,#760,#282,.T.);
#1226=EDGE_CURVE('',#754,#760,#274,.T.);
#1238=EDGE_CURVE('',#760,#704,#286,.T.);
#1242=EDGE_CURVE('',#710,#762,#294,.T.);
#1244=EDGE_CURVE('',#762,#764,#298,.T.);
#1246=EDGE_CURVE('',#764,#766,#302,.T.);
#1248=EDGE_CURVE('',#766,#768,#306,.T.);
#1250=EDGE_CURVE('',#768,#770,#310,.T.);
#1252=EDGE_CURVE('',#770,#772,#315,.T.);
#1254=EDGE_CURVE('',#772,#774,#319,.T.);
#1256=EDGE_CURVE('',#774,#776,#323,.T.);
#1258=EDGE_CURVE('',#776,#778,#327,.T.);
#1260=EDGE_CURVE('',#778,#780,#331,.T.);
#1262=EDGE_CURVE('',#782,#780,#450,.T.);
#1264=EDGE_CURVE('',#782,#784,#335,.T.);
#1266=EDGE_CURVE('',#784,#786,#339,.T.);
#1268=EDGE_CURVE('',#786,#788,#343,.T.);
#1270=EDGE_CURVE('',#788,#790,#347,.T.);
#1272=EDGE_CURVE('',#790,#792,#351,.T.);
#1274=EDGE_CURVE('',#792,#794,#356,.T.);
#1276=EDGE_CURVE('',#794,#796,#360,.T.);
#1278=EDGE_CURVE('',#796,#798,#364,.T.);
#1280=EDGE_CURVE('',#798,#758,#368,.T.);
#1305=EDGE_CURVE('',#752,#762,#376,.T.);
#1318=EDGE_CURVE('',#750,#764,#384,.T.);
#1331=EDGE_CURVE('',#748,#766,#388,.T.);
#1344=EDGE_CURVE('',#746,#768,#396,.T.);
#1357=EDGE_CURVE('',#770,#744,#400,.T.);
#1370=EDGE_CURVE('',#742,#772,#404,.T.);
#1383=EDGE_CURVE('',#740,#774,#408,.T.);
#1396=EDGE_CURVE('',#738,#776,#416,.T.);
#1409=EDGE_CURVE('',#736,#778,#424,.T.);
#1422=EDGE_CURVE('',#734,#780,#432,.T.);
#1432=EDGE_CURVE('',#800,#780,#437,.T.);
#1435=EDGE_CURVE('',#734,#802,#442,.T.);
#1437=EDGE_CURVE('',#802,#800,#446,.T.);
#1447=EDGE_CURVE('',#782,#804,#459,.T.);
#1451=EDGE_CURVE('',#800,#804,#454,.T.);
#1462=EDGE_CURVE('',#806,#804,#476,.T.);
#1464=EDGE_CURVE('',#806,#732,#464,.T.);
#1466=EDGE_CURVE('',#732,#782,#468,.T.);
#1476=EDGE_CURVE('',#804,#808,#472,.T.);
#1478=EDGE_CURVE('',#810,#808,#514,.T.);
#1480=EDGE_CURVE('',#806,#810,#492,.T.);
#1493=EDGE_CURVE('',#800,#812,#480,.T.);
#1495=EDGE_CURVE('',#808,#812,#518,.T.);
#1507=EDGE_CURVE('',#802,#814,#484,.T.);
#1509=EDGE_CURVE('',#814,#812,#488,.T.);
#1520=EDGE_CURVE('',#814,#810,#500,.T.);
#1523=EDGE_CURVE('',#806,#802,#588,.T.);
#1533=EDGE_CURVE('',#816,#810,#510,.T.);
#1535=EDGE_CURVE('',#816,#818,#496,.T.);
#1537=EDGE_CURVE('',#814,#818,#532,.T.);
#1548=EDGE_CURVE('',#808,#820,#505,.T.);
#1550=EDGE_CURVE('',#816,#820,#566,.T.);
#1564=EDGE_CURVE('',#822,#812,#527,.T.);
#1566=EDGE_CURVE('',#822,#820,#522,.T.);
#1579=EDGE_CURVE('',#818,#822,#536,.T.);
#1589=EDGE_CURVE('',#825,#826,#548,.T.);
#1591=EDGE_CURVE('',#822,#825,#584,.T.);
#1594=EDGE_CURVE('',#818,#826,#540,.T.);
#1604=EDGE_CURVE('',#830,#826,#558,.T.);
#1606=EDGE_CURVE('',#829,#830,#553,.T.);
#1608=EDGE_CURVE('',#829,#832,#544,.T.);
#1610=EDGE_CURVE('',#834,#832,#580,.T.);
#1612=EDGE_CURVE('',#825,#834,#575,.T.);
#1627=EDGE_CURVE('',#816,#829,#562,.T.);
#1640=EDGE_CURVE('',#820,#832,#570,.T.);
#1678=EDGE_CURVE('',#730,#784,#600,.T.);
#1691=EDGE_CURVE('',#728,#786,#608,.T.);
#1704=EDGE_CURVE('',#726,#788,#616,.T.);
#1717=EDGE_CURVE('',#724,#790,#624,.T.);
#1730=EDGE_CURVE('',#792,#722,#628,.T.);
#1743=EDGE_CURVE('',#720,#794,#632,.T.);
#1756=EDGE_CURVE('',#718,#796,#636,.T.);
#1769=EDGE_CURVE('',#716,#798,#644,.T.);
#1808=ADVANCED_BREP_SHAPE_REPRESENTATION('',(#1799),#1807);
#1815=PRODUCT_DEFINITION('design','',#1814,#1811);
#1816=PRODUCT_DEFINITION_SHAPE('','SHAPE FOR T-DSC20-400X00_1_PRT.',#1815);
#1817=SHAPE_DEFINITION_REPRESENTATION(#1816,#1808);
ENDSEC;
END-ISO-10303-21;
