ISO-10303-21;
HEADER;
FILE_DESCRIPTION((''),'2;1');
FILE_NAME('T-DSC20-100X00_1_PRT','2008-06-30T',('GRA'),(''),
'PRO/ENGINEER BY PARAMETRIC TECHNOLOGY CORPORATION, 2006170',
'PRO/ENGINEER BY PARAMETRIC TECHNOLOGY CORPORATION, 2006170','');
FILE_SCHEMA(('CONFIG_CONTROL_DESIGN'));
ENDSEC;
DATA;
#1=CARTESIAN_POINT('',(1.582816965926E-1,8.227937364290E-1,-9.748115146319E0));
#2=CARTESIAN_POINT('',(1.578006718902E-1,8.141376882966E-1,-9.761515962358E0));
#3=CARTESIAN_POINT('',(1.520478483243E-1,7.978236349084E-1,-9.786772494761E0));
#4=CARTESIAN_POINT('',(1.299039555640E-1,7.753783062181E-1,-9.821521107883E0));
#5=CARTESIAN_POINT('',(9.652472510469E-2,7.578096231237E-1,-9.848719975174E0));
#6=CARTESIAN_POINT('',(5.450511096783E-2,7.464825951547E-1,-9.866255854351E0));
#7=CARTESIAN_POINT('',(2.428338401590E-2,7.438593725764E-1,-9.870316982885E0));
#8=CARTESIAN_POINT('',(8.319569316663E-3,7.438593725764E-1,-9.870316982885E0));
#10=CARTESIAN_POINT('',(-8.319569541160E-3,7.438593725764E-1,
-9.870316982885E0));
#11=CARTESIAN_POINT('',(-2.428575129961E-2,7.438593725764E-1,
-9.870316982885E0));
#12=CARTESIAN_POINT('',(-5.451096913809E-2,7.464833729132E-1,
-9.866254650268E0));
#13=CARTESIAN_POINT('',(-9.653204782105E-2,7.578123393356E-1,
-9.848715770084E0));
#14=CARTESIAN_POINT('',(-1.299091813922E-1,7.753821952013E-1,
-9.821515087174E0));
#15=CARTESIAN_POINT('',(-1.520494590071E-1,7.978267883568E-1,
-9.786767612767E0));
#16=CARTESIAN_POINT('',(-1.578007432423E-1,8.141389722798E-1,
-9.761513974566E0));
#17=CARTESIAN_POINT('',(-1.582816965858E-1,8.227937363075E-1,
-9.748115146507E0));
#19=DIRECTION('',(-3.013827811562E-2,5.423388934786E-1,8.396190855457E-1));
#20=VECTOR('',#19,1.715676898071E-1);
#21=CARTESIAN_POINT('',(-1.582816965858E-1,8.227937363075E-1,
-9.748115146507E0));
#22=LINE('',#21,#20);
#23=DIRECTION('',(3.013827811557E-2,5.423388934787E-1,8.396190855457E-1));
#24=VECTOR('',#23,1.715676895832E-1);
#25=CARTESIAN_POINT('',(1.582816965926E-1,8.227937364290E-1,-9.748115146319E0));
#26=LINE('',#25,#24);
#27=CARTESIAN_POINT('',(1.900725758831E-1,8.291118147925E-1,-8.862456420355E0));
#28=CARTESIAN_POINT('',(1.914254358307E-1,7.359127790102E-1,-8.824767238918E0));
#29=CARTESIAN_POINT('',(1.955091814322E-1,6.007109314031E-1,-8.710998604413E0));
#30=CARTESIAN_POINT('',(2.013092930447E-1,5.292752808190E-1,-8.549413911702E0));
#31=CARTESIAN_POINT('',(2.048974451652E-1,5.191215163767E-1,-8.449451963291E0));
#33=DIRECTION('',(3.568867228146E-2,-1.009919199179E-1,9.942469264635E-1));
#34=VECTOR('',#33,2.644506611277E0);
#35=CARTESIAN_POINT('',(2.048974451652E-1,5.191215163769E-1,-8.449451963291E0));
#36=LINE('',#35,#34);
#37=DIRECTION('',(-3.568849627602E-2,1.009919204272E-1,-9.942469327295E-1));
#38=VECTOR('',#37,2.644477262082E0);
#39=CARTESIAN_POINT('',(3.000003488783E-1,4.510268209189E-1,-5.799977297356E0));
#40=LINE('',#39,#38);
#41=CARTESIAN_POINT('',(1.967280103892E-1,9.040918371924E-1,-8.677043378092E0));
#42=CARTESIAN_POINT('',(1.960425484055E-1,9.513135736755E-1,-8.696139590614E0));
#43=CARTESIAN_POINT('',(1.951556659822E-1,9.953856300977E-1,-8.720847153748E0));
#44=CARTESIAN_POINT('',(1.940674462995E-1,1.036309307179E0,-8.751163750181E0));
#46=DIRECTION('',(1.947250563624E-2,-8.398414122192E-1,5.424824640906E-1));
#47=VECTOR('',#46,2.000379286346E-1);
#48=CARTESIAN_POINT('',(1.543864568998E-1,9.907938729108E-1,-9.856632214756E0));
#49=LINE('',#48,#47);
#50=CARTESIAN_POINT('',(-1.634524513369E-1,9.158415673541E-1,
-9.604063639682E0));
#51=CARTESIAN_POINT('',(-1.635301823962E-1,9.189458076466E-1,
-9.601898138366E0));
#52=CARTESIAN_POINT('',(-1.636985687432E-1,9.248087527134E-1,
-9.597207081029E0));
#53=CARTESIAN_POINT('',(-1.639921272807E-1,9.326609077301E-1,
-9.589028864944E0));
#54=CARTESIAN_POINT('',(-1.642092018964E-1,9.371087567087E-1,
-9.582981406308E0));
#55=CARTESIAN_POINT('',(-1.643236573597E-1,9.391456861166E-1,
-9.579792803724E0));
#57=CARTESIAN_POINT('',(0.E0,1.105635726647E-1,-9.044583109410E0));
#58=DIRECTION('',(0.E0,-5.425853412481E-1,-8.400006830132E-1));
#59=DIRECTION('',(-1.643236573607E-1,8.285821134567E-1,-5.352096943174E-1));
#60=AXIS2_PLACEMENT_3D('',#57,#58,#59);
#62=CARTESIAN_POINT('',(0.E0,1.105635726647E-1,-9.044583109410E0));
#63=DIRECTION('',(0.E0,-5.425853412481E-1,-8.400006830133E-1));
#64=DIRECTION('',(0.E0,8.400006830133E-1,-5.425853412481E-1));
#65=AXIS2_PLACEMENT_3D('',#62,#63,#64);
#67=CARTESIAN_POINT('',(1.643236573597E-1,9.391456861166E-1,-9.579792803724E0));
#68=CARTESIAN_POINT('',(1.642092018964E-1,9.371087567086E-1,-9.582981406308E0));
#69=CARTESIAN_POINT('',(1.639921272807E-1,9.326609077301E-1,-9.589028864945E0));
#70=CARTESIAN_POINT('',(1.636985687432E-1,9.248087527136E-1,-9.597207081029E0));
#71=CARTESIAN_POINT('',(1.635301823962E-1,9.189458076467E-1,-9.601898138366E0));
#72=CARTESIAN_POINT('',(1.634524513369E-1,9.158415673542E-1,-9.604063639682E0));
#74=CARTESIAN_POINT('',(1.634524513369E-1,9.158415673542E-1,-9.604063639682E0));
#75=CARTESIAN_POINT('',(1.566967390698E-1,9.142502771160E-1,-9.606527187414E0));
#76=CARTESIAN_POINT('',(1.419830540276E-1,9.113375907278E-1,-9.611036447744E0));
#77=CARTESIAN_POINT('',(1.163151388424E-1,9.076210435125E-1,-9.616790201048E0));
#78=CARTESIAN_POINT('',(8.734939209085E-2,9.046172023009E-1,-9.621440582246E0));
#79=CARTESIAN_POINT('',(5.501940649977E-2,9.024067730179E-1,-9.624862646880E0));
#80=CARTESIAN_POINT('',(1.924221588603E-2,9.011688753153E-1,-9.626779091791E0));
#81=CARTESIAN_POINT('',(-1.817541387827E-2,9.011502656440E-1,
-9.626807902257E0));
#82=CARTESIAN_POINT('',(-5.413209865874E-2,9.023584660372E-1,
-9.624937433082E0));
#83=CARTESIAN_POINT('',(-8.693017923616E-2,9.045758683550E-1,
-9.621504573180E0));
#84=CARTESIAN_POINT('',(-1.163679639946E-1,9.076216852442E-1,
-9.616789207554E0));
#85=CARTESIAN_POINT('',(-1.423014879973E-1,9.113899513085E-1,
-9.610955385983E0));
#86=CARTESIAN_POINT('',(-1.568408423368E-1,9.142842202611E-1,
-9.606474638510E0));
#87=CARTESIAN_POINT('',(-1.634524513369E-1,9.158415673541E-1,
-9.604063639682E0));
#89=DIRECTION('',(1.947250556879E-2,8.398414134346E-1,-5.424824622115E-1));
#90=VECTOR('',#89,2.000379286343E-1);
#91=CARTESIAN_POINT('',(-1.582816965858E-1,8.227937363075E-1,
-9.748115146507E0));
#92=LINE('',#91,#90);
#93=DIRECTION('',(-3.013827791726E-2,5.423389020426E-1,8.396190800211E-1));
#94=VECTOR('',#93,1.309938128781E-1);
#95=CARTESIAN_POINT('',(-1.543864569065E-1,9.907938730323E-1,
-9.856632214568E0));
#96=LINE('',#95,#94);
#97=CARTESIAN_POINT('',(-1.967280103892E-1,9.040918371922E-1,
-8.677043378093E0));
#98=CARTESIAN_POINT('',(-1.975397263578E-1,8.481724157227E-1,
-8.654429869231E0));
#99=CARTESIAN_POINT('',(-1.999899737187E-1,7.670513071583E-1,
-8.586168688527E0));
#100=CARTESIAN_POINT('',(-2.034700406862E-1,7.241899168078E-1,
-8.489217872901E0));
#101=CARTESIAN_POINT('',(-2.056229319585E-1,7.180976581424E-1,
-8.429240703854E0));
#103=CARTESIAN_POINT('',(-3.000001551462E-1,2.505133167854E-1,
-5.799995677798E0));
#104=CARTESIAN_POINT('',(-2.999193746328E-1,2.506274665153E-1,
-5.802246133534E0));
#105=CARTESIAN_POINT('',(-2.997584892312E-1,2.508927439983E-1,
-5.806728222828E0));
#106=CARTESIAN_POINT('',(-2.995171906878E-1,2.514042618475E-1,
-5.813450533293E0));
#107=CARTESIAN_POINT('',(-2.993566137242E-1,2.518206565582E-1,
-5.817924029849E0));
#108=CARTESIAN_POINT('',(-2.992763749612E-1,2.520477164685E-1,
-5.820159393016E0));
#110=CARTESIAN_POINT('',(-1.900725758831E-1,8.291118147927E-1,
-8.862456420355E0));
#111=CARTESIAN_POINT('',(-1.894980306815E-1,8.686924520187E-1,
-8.878462614037E0));
#112=CARTESIAN_POINT('',(-1.887161097629E-1,9.047817921941E-1,
-8.900246065770E0));
#113=CARTESIAN_POINT('',(-1.877269237641E-1,9.373816979575E-1,
-8.927803693333E0));
#115=DIRECTION('',(1.E0,-2.035069395142E-12,-2.882458946561E-12));
#116=VECTOR('',#115,1.663913885782E-2);
#117=CARTESIAN_POINT('',(-8.319569541160E-3,7.438593725764E-1,
-9.870316982885E0));
#118=LINE('',#117,#116);
#119=DIRECTION('',(-1.947250448050E-2,8.398414128455E-1,-5.424824631625E-1));
#120=VECTOR('',#119,2.000379286300E-1);
#121=CARTESIAN_POINT('',(8.319569316663E-3,7.438593725764E-1,
-9.870316982885E0));
#122=LINE('',#121,#120);
#123=DIRECTION('',(-1.947250672423E-2,-8.398414128088E-1,5.424824631388E-1));
#124=VECTOR('',#123,2.000379286387E-1);
#125=CARTESIAN_POINT('',(-4.424329630640E-3,9.118595091797E-1,
-9.978834051134E0));
#126=LINE('',#125,#124);
#127=DIRECTION('',(3.013827791722E-2,5.423389020426E-1,8.396190800211E-1));
#128=VECTOR('',#127,1.309938131020E-1);
#129=CARTESIAN_POINT('',(1.543864568998E-1,9.907938729108E-1,
-9.856632214756E0));
#130=LINE('',#129,#128);
#131=CARTESIAN_POINT('',(-1.543864569065E-1,9.907938730323E-1,
-9.856632214568E0));
#132=CARTESIAN_POINT('',(-1.539054322041E-1,9.821378249E-1,-9.870033030607E0));
#133=CARTESIAN_POINT('',(-1.481526086383E-1,9.658237715123E-1,
-9.895289563011E0));
#134=CARTESIAN_POINT('',(-1.260087158779E-1,9.433784428218E-1,
-9.930038176133E0));
#135=CARTESIAN_POINT('',(-9.262948541861E-2,9.258097597274E-1,
-9.957237043423E0));
#136=CARTESIAN_POINT('',(-5.060987128176E-2,9.144827317586E-1,
-9.974772922601E0));
#137=CARTESIAN_POINT('',(-2.038814432983E-2,9.118595091797E-1,
-9.978834051134E0));
#138=CARTESIAN_POINT('',(-4.424329630640E-3,9.118595091797E-1,
-9.978834051134E0));
#140=DIRECTION('',(1.E0,-3.249619491402E-12,-5.620963444587E-12));
#141=VECTOR('',#140,8.848659485787E-3);
#142=CARTESIAN_POINT('',(-4.424329630640E-3,9.118595091797E-1,
-9.978834051134E0));
#143=LINE('',#142,#141);
#144=CARTESIAN_POINT('',(4.424329855147E-3,9.118595091797E-1,
-9.978834051134E0));
#145=CARTESIAN_POINT('',(2.039051161356E-2,9.118595091797E-1,
-9.978834051134E0));
#146=CARTESIAN_POINT('',(5.061572945205E-2,9.144835095172E-1,
-9.974771718518E0));
#147=CARTESIAN_POINT('',(9.263680813500E-2,9.258124759393E-1,
-9.957232838334E0));
#148=CARTESIAN_POINT('',(1.260139417062E-1,9.433823318051E-1,
-9.930032155423E0));
#149=CARTESIAN_POINT('',(1.481542193210E-1,9.658269249607E-1,
-9.895284681016E0));
#150=CARTESIAN_POINT('',(1.539055035563E-1,9.821391088832E-1,
-9.870031042815E0));
#151=CARTESIAN_POINT('',(1.543864568998E-1,9.907938729108E-1,
-9.856632214756E0));
#153=CARTESIAN_POINT('',(-1.603733245876E-1,1.109521965582E0,
-9.689844704398E0));
#154=CARTESIAN_POINT('',(-1.601229267446E-1,1.105056250919E0,
-9.696820511284E0));
#155=CARTESIAN_POINT('',(-1.596380571504E-1,1.095565998792E0,
-9.710328441756E0));
#156=CARTESIAN_POINT('',(-1.589552357025E-1,1.079597010322E0,
-9.729351091870E0));
#157=CARTESIAN_POINT('',(-1.585356777205E-1,1.067935250285E0,
-9.741039513082E0));
#158=CARTESIAN_POINT('',(-1.583343848445E-1,1.061836913683E0,
-9.746647309911E0));
#160=CARTESIAN_POINT('',(-1.583343848445E-1,1.061836913683E0,
-9.746647309911E0));
#161=CARTESIAN_POINT('',(-1.502801595314E-1,1.059548381415E0,
-9.750190289277E0));
#162=CARTESIAN_POINT('',(-1.326431354253E-1,1.055255350661E0,
-9.756836522582E0));
#163=CARTESIAN_POINT('',(-1.013575143924E-1,1.049828395974E0,
-9.765238234344E0));
#164=CARTESIAN_POINT('',(-6.522600065677E-2,1.045703888279E0,
-9.771623569549E0));
#165=CARTESIAN_POINT('',(-2.317254225038E-2,1.043232650566E0,
-9.775449403401E0));
#166=CARTESIAN_POINT('',(2.317230770222E-2,1.043232635944E0,-9.775449426039E0));
#167=CARTESIAN_POINT('',(6.522619458523E-2,1.045703904326E0,-9.771623544706E0));
#168=CARTESIAN_POINT('',(1.013573640543E-1,1.049828379390E0,-9.765238260019E0));
#169=CARTESIAN_POINT('',(1.326430654988E-1,1.055255333371E0,-9.756836549349E0));
#170=CARTESIAN_POINT('',(1.502801246158E-1,1.059548371494E0,-9.750190304636E0));
#171=CARTESIAN_POINT('',(1.583343848445E-1,1.061836913683E0,-9.746647309911E0));
#173=CARTESIAN_POINT('',(1.583343848445E-1,1.061836913683E0,-9.746647309911E0));
#174=CARTESIAN_POINT('',(1.585356777205E-1,1.067935250285E0,-9.741039513082E0));
#175=CARTESIAN_POINT('',(1.589552357025E-1,1.079597010322E0,-9.729351091870E0));
#176=CARTESIAN_POINT('',(1.596380571504E-1,1.095565998792E0,-9.710328441756E0));
#177=CARTESIAN_POINT('',(1.601229267446E-1,1.105056250919E0,-9.696820511284E0));
#178=CARTESIAN_POINT('',(1.603733245876E-1,1.109521965582E0,-9.689844704398E0));
#180=CARTESIAN_POINT('',(0.E0,1.105635726588E-1,-9.044583109422E0));
#181=DIRECTION('',(0.E0,5.425853412380E-1,8.400006830197E-1));
#182=DIRECTION('',(1.336444371572E-1,8.324653274409E-1,-5.377179958171E-1));
#183=AXIS2_PLACEMENT_3D('',#180,#181,#182);
#185=CARTESIAN_POINT('',(0.E0,1.105635726588E-1,-9.044583109422E0));
#186=DIRECTION('',(0.E0,5.425853412380E-1,8.400006830197E-1));
#187=DIRECTION('',(0.E0,8.400006830197E-1,-5.425853412380E-1));
#188=AXIS2_PLACEMENT_3D('',#185,#186,#187);
#190=CARTESIAN_POINT('',(-1.649078129739E-1,1.190381711947E0,
-9.563518874578E0));
#191=CARTESIAN_POINT('',(-1.633962599073E-1,1.163430944488E0,
-9.605629070745E0));
#192=CARTESIAN_POINT('',(-1.618847638125E-1,1.136477694219E0,
-9.647737679738E0));
#193=CARTESIAN_POINT('',(-1.603733245877E-1,1.109521965583E0,
-9.689844704397E0));
#195=CARTESIAN_POINT('',(1.603733245877E-1,1.109521965582E0,-9.689844704397E0));
#196=CARTESIAN_POINT('',(1.618847638760E-1,1.136477695351E0,-9.647737677969E0));
#197=CARTESIAN_POINT('',(1.633962600343E-1,1.163430946753E0,-9.605629067207E0));
#198=CARTESIAN_POINT('',(1.649078131645E-1,1.190381715344E0,-9.563518869270E0));
#200=CARTESIAN_POINT('',(-1.927466196884E-1,1.087795022941E0,
-8.787942950696E0));
#201=CARTESIAN_POINT('',(-1.917545280261E-1,1.118155144937E0,
-8.815581526829E0));
#202=CARTESIAN_POINT('',(-1.895999027613E-1,1.172022100006E0,
-8.875632725035E0));
#203=CARTESIAN_POINT('',(-1.858163266647E-1,1.234134987276E0,
-8.981028625658E0));
#204=CARTESIAN_POINT('',(-1.816789526775E-1,1.273802856229E0,
-9.096294078833E0));
#205=CARTESIAN_POINT('',(-1.773377118994E-1,1.289820056636E0,
-9.217235422944E0));
#206=CARTESIAN_POINT('',(-1.729714093617E-1,1.281521179612E0,
-9.338876274481E0));
#207=CARTESIAN_POINT('',(-1.687365681263E-1,1.248954261870E0,
-9.456853113761E0));
#208=CARTESIAN_POINT('',(-1.661509228213E-1,1.212544970814E0,
-9.528889075598E0));
#209=CARTESIAN_POINT('',(-1.649081401462E-1,1.190386339907E0,
-9.563511626004E0));
#211=CARTESIAN_POINT('',(0.E0,1.919513738615E-1,-8.918583006968E0));
#212=DIRECTION('',(0.E0,-5.425853412454E-1,-8.400006830150E-1));
#213=DIRECTION('',(-1.374235025830E-1,8.320310782808E-1,-5.374374993547E-1));
#214=AXIS2_PLACEMENT_3D('',#211,#212,#213);
#216=CARTESIAN_POINT('',(0.E0,1.919513738615E-1,-8.918583006968E0));
#217=DIRECTION('',(0.E0,-5.425853412454E-1,-8.400006830150E-1));
#218=DIRECTION('',(0.E0,8.400006830150E-1,-5.425853412454E-1));
#219=AXIS2_PLACEMENT_3D('',#216,#217,#218);
#221=CARTESIAN_POINT('',(1.649080731074E-1,1.190386349983E0,-9.563511627547E0));
#222=CARTESIAN_POINT('',(1.661517109210E-1,1.212560227639E0,-9.528865253928E0));
#223=CARTESIAN_POINT('',(1.687388309961E-1,1.248979862235E0,-9.456790939052E0));
#224=CARTESIAN_POINT('',(1.729734806785E-1,1.281528961395E0,-9.338818336822E0));
#225=CARTESIAN_POINT('',(1.773383141130E-1,1.289816135401E0,-9.217218711860E0));
#226=CARTESIAN_POINT('',(1.816776695057E-1,1.273807903039E0,-9.096329795959E0));
#227=CARTESIAN_POINT('',(1.858138757323E-1,1.234164565528E0,-8.981096962485E0));
#228=CARTESIAN_POINT('',(1.895977070089E-1,1.172069187764E0,-8.875693700642E0));
#229=CARTESIAN_POINT('',(1.917537705464E-1,1.118178781666E0,-8.815603048127E0));
#230=CARTESIAN_POINT('',(1.927466347168E-1,1.087795019319E0,-8.787942950770E0));
#232=CARTESIAN_POINT('',(-1.940597643193E-1,1.036286754191E0,
-8.751204671313E0));
#233=CARTESIAN_POINT('',(-1.939365870533E-1,1.042555124279E0,
-8.754636253670E0));
#234=CARTESIAN_POINT('',(-1.936791179909E-1,1.054657329640E0,
-8.762060580384E0));
#235=CARTESIAN_POINT('',(-1.932367192312E-1,1.071922947358E0,
-8.774292006753E0));
#236=CARTESIAN_POINT('',(-1.929150456519E-1,1.082623691101E0,
-8.783250789686E0));
#237=CARTESIAN_POINT('',(-1.927466196884E-1,1.087795022941E0,
-8.787942950696E0));
#239=CARTESIAN_POINT('',(0.E0,2.869899443699E-1,-9.660610367885E0));
#240=DIRECTION('',(0.E0,7.367721776203E-1,-6.761410786845E-1));
#241=DIRECTION('',(-1.606227810061E-1,6.673619731675E-1,7.272058298665E-1));
#242=AXIS2_PLACEMENT_3D('',#239,#240,#241);
#244=CARTESIAN_POINT('',(1.927466347168E-1,1.087795019319E0,-8.787942950770E0));
#245=CARTESIAN_POINT('',(1.929150603685E-1,1.082623697283E0,-8.783250798449E0));
#246=CARTESIAN_POINT('',(1.932367118256E-1,1.071922963920E0,-8.774292017365E0));
#247=CARTESIAN_POINT('',(1.936791196015E-1,1.054657346408E0,-8.762060592348E0));
#248=CARTESIAN_POINT('',(1.939365868307E-1,1.042555131999E0,-8.754636257730E0));
#249=CARTESIAN_POINT('',(1.940597642227E-1,1.036286753893E0,-8.751204671864E0));
#251=CARTESIAN_POINT('',(1.940597642227E-1,1.036286753893E0,-8.751204671864E0));
#252=CARTESIAN_POINT('',(1.892284584916E-1,1.031505091627E0,-8.747662377145E0));
#253=CARTESIAN_POINT('',(1.774846922923E-1,1.022644625691E0,-8.741218513252E0));
#254=CARTESIAN_POINT('',(1.572313673898E-1,1.009134771686E0,-8.732096735614E0));
#255=CARTESIAN_POINT('',(1.315268220587E-1,9.966554718917E-1,
-8.724108531898E0));
#256=CARTESIAN_POINT('',(1.002599395186E-1,9.855502012962E-1,
-8.717370889853E0));
#257=CARTESIAN_POINT('',(6.317887726257E-2,9.769603345532E-1,
-8.712389129314E0));
#258=CARTESIAN_POINT('',(2.157042217771E-2,9.721925887615E-1,
-8.709710084010E0));
#259=CARTESIAN_POINT('',(-2.172553970870E-2,9.722001692654E-1,
-8.709714277625E0));
#260=CARTESIAN_POINT('',(-6.336207609909E-2,9.769911816373E-1,
-8.712406649505E0));
#261=CARTESIAN_POINT('',(-1.004152153134E-1,9.855958534050E-1,
-8.717397891601E0));
#262=CARTESIAN_POINT('',(-1.316594155711E-1,9.967111084844E-1,
-8.724143143091E0));
#263=CARTESIAN_POINT('',(-1.573301663928E-1,1.009191588614E0,
-8.732134210999E0));
#264=CARTESIAN_POINT('',(-1.775371360162E-1,1.022686112618E0,
-8.741247798050E0));
#265=CARTESIAN_POINT('',(-1.892454600629E-1,1.031521910833E0,
-8.747674836179E0));
#266=CARTESIAN_POINT('',(-1.940597643193E-1,1.036286754191E0,
-8.751204671313E0));
#268=CARTESIAN_POINT('',(-1.967280103892E-1,9.040918371924E-1,
-8.677043378092E0));
#269=CARTESIAN_POINT('',(-1.960425484055E-1,9.513135736755E-1,
-8.696139590614E0));
#270=CARTESIAN_POINT('',(-1.951556659822E-1,9.953856300977E-1,
-8.720847153748E0));
#271=CARTESIAN_POINT('',(-1.940674462995E-1,1.036309307179E0,
-8.751163750181E0));
#273=DIRECTION('',(1.E0,0.E0,0.E0));
#274=VECTOR('',#273,3.934560207784E-1);
#275=CARTESIAN_POINT('',(-1.967280103892E-1,9.040918371922E-1,
-8.677043378093E0));
#276=LINE('',#275,#274);
#277=CARTESIAN_POINT('',(1.967280103892E-1,9.040918371922E-1,
-8.677043378093E0));
#278=CARTESIAN_POINT('',(1.975397263578E-1,8.481724157227E-1,
-8.654429869231E0));
#279=CARTESIAN_POINT('',(1.999899737187E-1,7.670513071583E-1,
-8.586168688527E0));
#280=CARTESIAN_POINT('',(2.034700406862E-1,7.241899168078E-1,
-8.489217872901E0));
#281=CARTESIAN_POINT('',(2.056229319585E-1,7.180976581424E-1,
-8.429240703854E0));
#283=DIRECTION('',(-1.E0,0.E0,0.E0));
#284=VECTOR('',#283,4.112458639170E-1);
#285=CARTESIAN_POINT('',(2.056229319585E-1,7.180976581426E-1,
-8.429240703854E0));
#286=LINE('',#285,#284);
#287=DIRECTION('',(3.568849657981E-2,1.009918786686E-1,-9.942469369603E-1));
#288=VECTOR('',#287,2.644477250815E0);
#289=CARTESIAN_POINT('',(-3.000003492796E-1,4.510269324863E-1,
-5.799977297370E0));
#290=LINE('',#289,#288);
#291=DIRECTION('',(1.E0,-1.859455496413E-7,2.388457021110E-11));
#292=VECTOR('',#291,6.000006981579E-1);
#293=CARTESIAN_POINT('',(-3.000003492796E-1,4.510269324863E-1,
-5.799977297370E0));
#294=LINE('',#293,#292);
#295=DIRECTION('',(-1.E0,0.E0,0.E0));
#296=VECTOR('',#295,6.E-1);
#297=CARTESIAN_POINT('',(3.E-1,4.5E-1,-5.779736874143E0));
#298=LINE('',#297,#296);
#299=DIRECTION('',(-9.681805917428E-7,9.999999957981E-1,9.166673375551E-5));
#300=VECTOR('',#299,2.005136165435E-1);
#301=CARTESIAN_POINT('',(-3.000001551462E-1,2.505133167854E-1,
-5.799995677798E0));
#302=LINE('',#301,#300);
#303=CARTESIAN_POINT('',(-3.E-1,6.5E-1,-5.779736874143E0));
#304=DIRECTION('',(-1.E0,0.E0,0.E0));
#305=DIRECTION('',(0.E0,-9.948675067582E-1,-1.011861848119E-1));
#306=AXIS2_PLACEMENT_3D('',#303,#304,#305);
#308=DIRECTION('',(0.E0,-1.E0,0.E0));
#309=VECTOR('',#308,2.E-1);
#310=CARTESIAN_POINT('',(-3.E-1,4.5E-1,-5.779736874143E0));
#311=LINE('',#310,#309);
#312=CARTESIAN_POINT('',(-3.E-1,6.5E-1,-5.779736874143E0));
#313=DIRECTION('',(1.E0,0.E0,0.E0));
#314=DIRECTION('',(0.E0,-1.E0,0.E0));
#315=AXIS2_PLACEMENT_3D('',#312,#313,#314);
#317=DIRECTION('',(0.E0,0.E0,1.E0));
#318=VECTOR('',#317,2.579736874143E0);
#319=CARTESIAN_POINT('',(-3.E-1,4.5E-1,-5.779736874143E0));
#320=LINE('',#319,#318);
#321=DIRECTION('',(0.E0,-1.E0,0.E0));
#322=VECTOR('',#321,2.E-1);
#323=CARTESIAN_POINT('',(-3.E-1,4.5E-1,-2.8E0));
#324=LINE('',#323,#322);
#325=DIRECTION('',(0.E0,1.E0,0.E0));
#326=VECTOR('',#325,2.E-1);
#327=CARTESIAN_POINT('',(-3.E-1,2.5E-1,-3.2E0));
#328=LINE('',#327,#326);
#329=CARTESIAN_POINT('',(-4.5E-1,4.5E-1,-3.E0));
#330=DIRECTION('',(0.E0,1.E0,0.E0));
#331=DIRECTION('',(6.E-1,0.E0,8.E-1));
#332=AXIS2_PLACEMENT_3D('',#329,#330,#331);
#334=DIRECTION('',(0.E0,0.E0,1.E0));
#335=VECTOR('',#334,2.579736874143E0);
#336=CARTESIAN_POINT('',(3.E-1,4.5E-1,-5.779736874143E0));
#337=LINE('',#336,#335);
#338=CARTESIAN_POINT('',(4.5E-1,4.5E-1,-3.E0));
#339=DIRECTION('',(0.E0,1.E0,0.E0));
#340=DIRECTION('',(-6.E-1,0.E0,-8.E-1));
#341=AXIS2_PLACEMENT_3D('',#338,#339,#340);
#343=CARTESIAN_POINT('',(4.5E-1,4.5E-1,-3.E0));
#344=DIRECTION('',(0.E0,1.E0,0.E0));
#345=DIRECTION('',(-1.E0,0.E0,0.E0));
#346=AXIS2_PLACEMENT_3D('',#343,#344,#345);
#348=DIRECTION('',(0.E0,0.E0,1.E0));
#349=VECTOR('',#348,2.5E0);
#350=CARTESIAN_POINT('',(3.E-1,4.5E-1,-2.8E0));
#351=LINE('',#350,#349);
#352=DIRECTION('',(-1.E0,0.E0,0.E0));
#353=VECTOR('',#352,1.E-1);
#354=CARTESIAN_POINT('',(-2.E-1,4.5E-1,-3.E-1));
#355=LINE('',#354,#353);
#356=DIRECTION('',(0.E0,0.E0,1.E0));
#357=VECTOR('',#356,2.5E0);
#358=CARTESIAN_POINT('',(-3.E-1,4.5E-1,-2.8E0));
#359=LINE('',#358,#357);
#360=DIRECTION('',(-1.E0,0.E0,0.E0));
#361=VECTOR('',#360,1.E-1);
#362=CARTESIAN_POINT('',(-2.E-1,2.5E-1,-3.E-1));
#363=LINE('',#362,#361);
#364=DIRECTION('',(0.E0,1.E0,0.E0));
#365=VECTOR('',#364,2.E-1);
#366=CARTESIAN_POINT('',(-3.E-1,2.5E-1,-3.E-1));
#367=LINE('',#366,#365);
#368=DIRECTION('',(0.E0,-1.E0,0.E0));
#369=VECTOR('',#368,2.E-1);
#370=CARTESIAN_POINT('',(-2.E-1,4.5E-1,-3.E-1));
#371=LINE('',#370,#369);
#372=DIRECTION('',(0.E0,0.E0,1.E0));
#373=VECTOR('',#372,2.5E0);
#374=CARTESIAN_POINT('',(-3.E-1,2.5E-1,-2.8E0));
#375=LINE('',#374,#373);
#376=DIRECTION('',(1.E0,0.E0,0.E0));
#377=VECTOR('',#376,1.E-1);
#378=CARTESIAN_POINT('',(2.E-1,2.5E-1,-3.E-1));
#379=LINE('',#378,#377);
#380=CARTESIAN_POINT('',(4.5E-1,2.5E-1,-3.E0));
#381=DIRECTION('',(0.E0,-1.E0,0.E0));
#382=DIRECTION('',(-6.E-1,0.E0,8.E-1));
#383=AXIS2_PLACEMENT_3D('',#380,#381,#382);
#385=CARTESIAN_POINT('',(4.5E-1,2.5E-1,-3.E0));
#386=DIRECTION('',(0.E0,-1.E0,0.E0));
#387=DIRECTION('',(-1.E0,0.E0,0.E0));
#388=AXIS2_PLACEMENT_3D('',#385,#386,#387);
#390=DIRECTION('',(0.E0,0.E0,1.E0));
#391=VECTOR('',#390,2.579736874143E0);
#392=CARTESIAN_POINT('',(-3.E-1,2.5E-1,-5.779736874143E0));
#393=LINE('',#392,#391);
#394=CARTESIAN_POINT('',(-4.5E-1,2.5E-1,-3.E0));
#395=DIRECTION('',(0.E0,-1.E0,0.E0));
#396=DIRECTION('',(6.E-1,0.E0,-8.E-1));
#397=AXIS2_PLACEMENT_3D('',#394,#395,#396);
#399=DIRECTION('',(-1.E0,0.E0,0.E0));
#400=VECTOR('',#399,4.E-1);
#401=CARTESIAN_POINT('',(2.E-1,2.5E-1,-3.E-1));
#402=LINE('',#401,#400);
#403=DIRECTION('',(1.E0,0.E0,0.E0));
#404=VECTOR('',#403,4.E-1);
#405=CARTESIAN_POINT('',(-2.E-1,2.266150017438E-1,-2.061536300166E-1));
#406=LINE('',#405,#404);
#407=CARTESIAN_POINT('',(-2.E-1,4.E-1,3.2E-1));
#408=DIRECTION('',(1.E0,0.E0,0.E0));
#409=DIRECTION('',(0.E0,-1.E0,0.E0));
#410=AXIS2_PLACEMENT_3D('',#407,#408,#409);
#412=DIRECTION('',(0.E0,4.692318499168E-1,-8.830750087188E-1));
#413=VECTOR('',#412,3.832753579348E-1);
#414=CARTESIAN_POINT('',(-2.E-1,4.676999651246E-2,1.323072600334E-1));
#415=LINE('',#414,#413);
#416=CARTESIAN_POINT('',(-2.E-1,5.E-2,-3.E-1));
#417=DIRECTION('',(-1.E0,0.E0,0.E0));
#418=DIRECTION('',(0.E0,8.830750087188E-1,4.692318499167E-1));
#419=AXIS2_PLACEMENT_3D('',#416,#417,#418);
#421=CARTESIAN_POINT('',(-2.E-1,5.E-2,-3.E-1));
#422=DIRECTION('',(1.E0,0.E0,0.E0));
#423=DIRECTION('',(0.E0,1.E0,0.E0));
#424=AXIS2_PLACEMENT_3D('',#421,#422,#423);
#426=DIRECTION('',(0.E0,-4.692318499168E-1,8.830750087188E-1));
#427=VECTOR('',#426,3.832753579348E-1);
#428=CARTESIAN_POINT('',(-2.E-1,4.032300034876E-1,-1.123072600336E-1));
#429=LINE('',#428,#427);
#430=CARTESIAN_POINT('',(-2.E-1,4.E-1,3.2E-1));
#431=DIRECTION('',(-1.E0,0.E0,0.E0));
#432=DIRECTION('',(0.E0,-8.830750087170E-1,-4.692318499201E-1));
#433=AXIS2_PLACEMENT_3D('',#430,#431,#432);
#435=DIRECTION('',(0.E0,0.E0,1.E0));
#436=VECTOR('',#435,1.65E0);
#437=CARTESIAN_POINT('',(-2.E-1,2.E-1,3.2E-1));
#438=LINE('',#437,#436);
#439=DIRECTION('',(1.E0,0.E0,0.E0));
#440=VECTOR('',#439,4.E-1);
#441=CARTESIAN_POINT('',(-2.E-1,0.E0,1.97E0));
#442=LINE('',#441,#440);
#443=DIRECTION('',(0.E0,0.E0,1.E0));
#444=VECTOR('',#443,1.65E0);
#445=CARTESIAN_POINT('',(-2.E-1,0.E0,3.2E-1));
#446=LINE('',#445,#444);
#447=DIRECTION('',(0.E0,1.E0,0.E0));
#448=VECTOR('',#447,2.E-1);
#449=CARTESIAN_POINT('',(-2.E-1,0.E0,1.97E0));
#450=LINE('',#449,#448);
#451=DIRECTION('',(1.E0,0.E0,0.E0));
#452=VECTOR('',#451,4.E-1);
#453=CARTESIAN_POINT('',(-2.E-1,2.E-1,1.97E0));
#454=LINE('',#453,#452);
#455=DIRECTION('',(0.E0,0.E0,1.E0));
#456=VECTOR('',#455,1.65E0);
#457=CARTESIAN_POINT('',(2.E-1,2.E-1,3.2E-1));
#458=LINE('',#457,#456);
#459=DIRECTION('',(-1.E0,0.E0,0.E0));
#460=VECTOR('',#459,4.E-1);
#461=CARTESIAN_POINT('',(2.E-1,2.E-1,3.2E-1));
#462=LINE('',#461,#460);
#463=DIRECTION('',(1.E0,0.E0,0.E0));
#464=VECTOR('',#463,4.E-1);
#465=CARTESIAN_POINT('',(-2.E-1,2.233849982563E-1,2.261536300164E-1));
#466=LINE('',#465,#464);
#467=DIRECTION('',(-1.E0,0.E0,0.E0));
#468=VECTOR('',#467,4.E-1);
#469=CARTESIAN_POINT('',(2.E-1,4.032300034876E-1,-1.123072600336E-1));
#470=LINE('',#469,#468);
#471=DIRECTION('',(1.E0,0.E0,0.E0));
#472=VECTOR('',#471,4.E-1);
#473=CARTESIAN_POINT('',(-2.E-1,4.5E-1,-3.E-1));
#474=LINE('',#473,#472);
#475=DIRECTION('',(0.E0,0.E0,1.E0));
#476=VECTOR('',#475,1.65E0);
#477=CARTESIAN_POINT('',(2.E-1,0.E0,3.2E-1));
#478=LINE('',#477,#476);
#479=DIRECTION('',(0.E0,1.E0,0.E0));
#480=VECTOR('',#479,2.E-1);
#481=CARTESIAN_POINT('',(2.E-1,0.E0,1.97E0));
#482=LINE('',#481,#480);
#483=CARTESIAN_POINT('',(2.E-1,4.E-1,3.2E-1));
#484=DIRECTION('',(1.E0,0.E0,0.E0));
#485=DIRECTION('',(0.E0,-1.E0,0.E0));
#486=AXIS2_PLACEMENT_3D('',#483,#484,#485);
#488=DIRECTION('',(0.E0,4.692318499168E-1,-8.830750087188E-1));
#489=VECTOR('',#488,3.832753579348E-1);
#490=CARTESIAN_POINT('',(2.E-1,2.233849982563E-1,2.261536300164E-1));
#491=LINE('',#490,#489);
#492=CARTESIAN_POINT('',(2.E-1,5.E-2,-3.E-1));
#493=DIRECTION('',(-1.E0,0.E0,0.E0));
#494=DIRECTION('',(0.E0,8.830750087199E-1,4.692318499146E-1));
#495=AXIS2_PLACEMENT_3D('',#492,#493,#494);
#497=DIRECTION('',(0.E0,-1.E0,0.E0));
#498=VECTOR('',#497,2.E-1);
#499=CARTESIAN_POINT('',(2.E-1,4.5E-1,-3.E-1));
#500=LINE('',#499,#498);
#501=CARTESIAN_POINT('',(2.E-1,5.E-2,-3.E-1));
#502=DIRECTION('',(1.E0,0.E0,0.E0));
#503=DIRECTION('',(0.E0,1.E0,0.E0));
#504=AXIS2_PLACEMENT_3D('',#501,#502,#503);
#506=DIRECTION('',(0.E0,-4.692318499168E-1,8.830750087188E-1));
#507=VECTOR('',#506,3.832753579348E-1);
#508=CARTESIAN_POINT('',(2.E-1,2.266150017438E-1,-2.061536300166E-1));
#509=LINE('',#508,#507);
#510=CARTESIAN_POINT('',(2.E-1,4.E-1,3.2E-1));
#511=DIRECTION('',(-1.E0,0.E0,0.E0));
#512=DIRECTION('',(0.E0,-8.830750087190E-1,-4.692318499163E-1));
#513=AXIS2_PLACEMENT_3D('',#510,#511,#512);
#515=DIRECTION('',(1.E0,0.E0,0.E0));
#516=VECTOR('',#515,1.E-1);
#517=CARTESIAN_POINT('',(2.E-1,4.5E-1,-3.E-1));
#518=LINE('',#517,#516);
#519=DIRECTION('',(0.E0,0.E0,1.E0));
#520=VECTOR('',#519,2.5E0);
#521=CARTESIAN_POINT('',(3.E-1,2.5E-1,-2.8E0));
#522=LINE('',#521,#520);
#523=DIRECTION('',(0.E0,1.E0,0.E0));
#524=VECTOR('',#523,2.E-1);
#525=CARTESIAN_POINT('',(3.E-1,2.5E-1,-3.E-1));
#526=LINE('',#525,#524);
#527=DIRECTION('',(0.E0,1.E0,0.E0));
#528=VECTOR('',#527,2.E-1);
#529=CARTESIAN_POINT('',(3.E-1,2.5E-1,-2.8E0));
#530=LINE('',#529,#528);
#531=DIRECTION('',(0.E0,-1.E0,0.E0));
#532=VECTOR('',#531,2.E-1);
#533=CARTESIAN_POINT('',(3.E-1,4.5E-1,-3.2E0));
#534=LINE('',#533,#532);
#535=DIRECTION('',(0.E0,1.E0,0.E0));
#536=VECTOR('',#535,2.E-1);
#537=CARTESIAN_POINT('',(2.E-1,2.5E-1,-3.E0));
#538=LINE('',#537,#536);
#539=DIRECTION('',(0.E0,0.E0,1.E0));
#540=VECTOR('',#539,2.579736874143E0);
#541=CARTESIAN_POINT('',(3.E-1,2.5E-1,-5.779736874143E0));
#542=LINE('',#541,#540);
#543=DIRECTION('',(-9.661799840774E-7,-9.999999957981E-1,-9.166685622455E-5));
#544=VECTOR('',#543,2.005135049879E-1);
#545=CARTESIAN_POINT('',(3.000003488783E-1,4.510268209189E-1,
-5.799977297356E0));
#546=LINE('',#545,#544);
#547=CARTESIAN_POINT('',(3.E-1,6.5E-1,-5.779736874143E0));
#548=DIRECTION('',(-1.E0,0.E0,0.E0));
#549=DIRECTION('',(0.E0,-9.987160686679E-1,-5.065781464331E-2));
#550=AXIS2_PLACEMENT_3D('',#547,#548,#549);
#552=DIRECTION('',(0.E0,1.E0,0.E0));
#553=VECTOR('',#552,2.E-1);
#554=CARTESIAN_POINT('',(3.E-1,2.5E-1,-5.779736874143E0));
#555=LINE('',#554,#553);
#556=CARTESIAN_POINT('',(3.E-1,6.5E-1,-5.779736874143E0));
#557=DIRECTION('',(1.E0,0.E0,0.E0));
#558=DIRECTION('',(0.E0,-1.E0,0.E0));
#559=AXIS2_PLACEMENT_3D('',#556,#557,#558);
#561=DIRECTION('',(1.E0,0.E0,0.E0));
#562=VECTOR('',#561,6.E-1);
#563=CARTESIAN_POINT('',(-3.E-1,2.5E-1,-5.779736874143E0));
#564=LINE('',#563,#562);
#565=CARTESIAN_POINT('',(3.000001551462E-1,2.505133167736E-1,
-5.799995677798E0));
#566=CARTESIAN_POINT('',(2.999193741775E-1,2.506274671468E-1,
-5.802246146218E0));
#567=CARTESIAN_POINT('',(2.997584882152E-1,2.508927703150E-1,
-5.806728251135E0));
#568=CARTESIAN_POINT('',(2.995171899554E-1,2.514042876770E-1,
-5.813450553699E0));
#569=CARTESIAN_POINT('',(2.993566133740E-1,2.518206575492E-1,
-5.817924039606E0));
#570=CARTESIAN_POINT('',(2.992763749612E-1,2.520477164685E-1,
-5.820159393016E0));
#572=DIRECTION('',(-1.E0,0.E0,0.E0));
#573=VECTOR('',#572,5.985527499224E-1);
#574=CARTESIAN_POINT('',(2.992763749612E-1,2.520477164685E-1,
-5.820159393016E0));
#575=LINE('',#574,#573);
#576=DIRECTION('',(-3.568867228146E-2,-1.009919199179E-1,9.942469264635E-1));
#577=VECTOR('',#576,2.644506611277E0);
#578=CARTESIAN_POINT('',(-2.048974451652E-1,5.191215163769E-1,
-8.449451963291E0));
#579=LINE('',#578,#577);
#580=CARTESIAN_POINT('',(-1.900725758831E-1,8.291118147925E-1,
-8.862456420355E0));
#581=CARTESIAN_POINT('',(-1.914254358307E-1,7.359127790102E-1,
-8.824767238918E0));
#582=CARTESIAN_POINT('',(-1.955091814322E-1,6.007109314031E-1,
-8.710998604413E0));
#583=CARTESIAN_POINT('',(-2.013092930447E-1,5.292752808190E-1,
-8.549413911702E0));
#584=CARTESIAN_POINT('',(-2.048974451652E-1,5.191215163767E-1,
-8.449451963291E0));
#586=DIRECTION('',(1.E0,0.E0,0.E0));
#587=VECTOR('',#586,4.097948903304E-1);
#588=CARTESIAN_POINT('',(-2.048974451652E-1,5.191215163769E-1,
-8.449451963291E0));
#589=LINE('',#588,#587);
#590=DIRECTION('',(1.E0,0.E0,0.E0));
#591=VECTOR('',#590,3.801451517662E-1);
#592=CARTESIAN_POINT('',(-1.900725758831E-1,8.291118147926E-1,
-8.862456420355E0));
#593=LINE('',#592,#591);
#594=CARTESIAN_POINT('',(1.900725758831E-1,8.291118147927E-1,
-8.862456420355E0));
#595=CARTESIAN_POINT('',(1.894980306815E-1,8.686924520187E-1,
-8.878462614037E0));
#596=CARTESIAN_POINT('',(1.887161097629E-1,9.047817921941E-1,
-8.900246065770E0));
#597=CARTESIAN_POINT('',(1.877269237641E-1,9.373816979575E-1,
-8.927803693333E0));
#599=CARTESIAN_POINT('',(-1.873975424584E-1,9.511168163096E-1,
-8.936885566665E0));
#600=CARTESIAN_POINT('',(-1.874403306865E-1,9.497856651049E-1,
-8.935693533968E0));
#601=CARTESIAN_POINT('',(-1.875236726067E-1,9.469705624164E-1,
-8.933475010975E0));
#602=CARTESIAN_POINT('',(-1.876335890873E-1,9.423362036565E-1,
-8.930514003935E0));
#603=CARTESIAN_POINT('',(-1.876873816092E-1,9.390874030955E-1,
-8.928642394407E0));
#604=CARTESIAN_POINT('',(-1.877155053134E-1,9.373565231305E-1,
-8.927858899121E0));
#606=CARTESIAN_POINT('',(-1.877155053134E-1,9.373565231305E-1,
-8.927858899121E0));
#607=CARTESIAN_POINT('',(-1.832735698707E-1,9.349965957557E-1,
-8.925863985389E0));
#608=CARTESIAN_POINT('',(-1.727626661548E-1,9.313310683713E-1,
-8.922728857245E0));
#609=CARTESIAN_POINT('',(-1.547084346904E-1,9.257088663938E-1,
-8.918292332204E0));
#610=CARTESIAN_POINT('',(-1.335630413741E-1,9.210280664786E-1,
-8.914680823172E0));
#611=CARTESIAN_POINT('',(-1.098663530005E-1,9.169511415128E-1,
-8.911633162648E0));
#612=CARTESIAN_POINT('',(-8.338794697998E-2,9.135922253414E-1,
-8.909180360633E0));
#613=CARTESIAN_POINT('',(-5.379931425486E-2,9.110267806955E-1,
-8.907343682134E0));
#614=CARTESIAN_POINT('',(-2.023852117422E-2,9.094757151207E-1,
-8.906248710404E0));
#615=CARTESIAN_POINT('',(1.592381152690E-2,9.093675318678E-1,
-8.906172769936E0));
#616=CARTESIAN_POINT('',(5.105589711839E-2,9.108294085173E-1,
-8.907203452422E0));
#617=CARTESIAN_POINT('',(8.190902538280E-2,9.134255838395E-1,
-8.909059657356E0));
#618=CARTESIAN_POINT('',(1.090106848965E-1,9.168206832634E-1,
-8.911536658860E0));
#619=CARTESIAN_POINT('',(1.329325991017E-1,9.209024624338E-1,
-8.914585460335E0));
#620=CARTESIAN_POINT('',(1.543253539070E-1,9.256062011721E-1,
-8.918211705722E0));
#621=CARTESIAN_POINT('',(1.725998199971E-1,9.312686638683E-1,
-8.922677770369E0));
#622=CARTESIAN_POINT('',(1.832261726362E-1,9.349714143832E-1,
-8.925842698859E0));
#623=CARTESIAN_POINT('',(1.877155053134E-1,9.373565231305E-1,
-8.927858899121E0));
#625=CARTESIAN_POINT('',(1.877155053134E-1,9.373565231305E-1,
-8.927858899121E0));
#626=CARTESIAN_POINT('',(1.876873820611E-1,9.390873752807E-1,
-8.928642381816E0));
#627=CARTESIAN_POINT('',(1.876336079070E-1,9.423361397164E-1,
-8.930513971938E0));
#628=CARTESIAN_POINT('',(1.875236126464E-1,9.469705119991E-1,
-8.933474958356E0));
#629=CARTESIAN_POINT('',(1.874404631734E-1,9.497856286487E-1,
-8.935693535274E0));
#630=CARTESIAN_POINT('',(1.873976742890E-1,9.511168002541E-1,
-8.936885586253E0));
#632=CARTESIAN_POINT('',(-1.688613637419E-1,1.019888056952E0,
-9.453378938574E0));
#633=CARTESIAN_POINT('',(-1.698319982150E-1,1.037156677080E0,
-9.426338135993E0));
#634=CARTESIAN_POINT('',(-1.718560247229E-1,1.064374243326E0,
-9.369948874815E0));
#635=CARTESIAN_POINT('',(-1.751956708185E-1,1.085066920264E0,
-9.276909891014E0));
#636=CARTESIAN_POINT('',(-1.786015491378E-1,1.083501916124E0,
-9.182029625152E0));
#637=CARTESIAN_POINT('',(-1.819022107024E-1,1.060165850141E0,
-9.090062039477E0));
#638=CARTESIAN_POINT('',(-1.849322321777E-1,1.015858947354E0,
-9.005704481634E0));
#639=CARTESIAN_POINT('',(-1.866236163664E-1,9.748333727854E-1,
-8.958446291372E0));
#640=CARTESIAN_POINT('',(-1.873975424584E-1,9.511168163096E-1,
-8.936885566665E0));
#642=CARTESIAN_POINT('',(0.E0,2.870157962454E-1,-9.660634090927E0));
#643=DIRECTION('',(0.E0,7.368130793872E-1,-6.760965064574E-1));
#644=DIRECTION('',(-1.874011862377E-1,6.641184155217E-1,7.237593008464E-1));
#645=AXIS2_PLACEMENT_3D('',#642,#643,#644);
#647=CARTESIAN_POINT('',(1.873976742890E-1,9.511168002541E-1,
-8.936885586253E0));
#648=CARTESIAN_POINT('',(1.866237165578E-1,9.748343256063E-1,
-8.958447192396E0));
#649=CARTESIAN_POINT('',(1.849320738738E-1,1.015861041052E0,-9.005707178263E0));
#650=CARTESIAN_POINT('',(1.819020493876E-1,1.060167852783E0,-9.090066992557E0));
#651=CARTESIAN_POINT('',(1.786013326630E-1,1.083502704006E0,-9.182035533334E0));
#652=CARTESIAN_POINT('',(1.751954823546E-1,1.085066284294E0,-9.276915172651E0));
#653=CARTESIAN_POINT('',(1.718559121856E-1,1.064372948365E0,-9.369952007584E0));
#654=CARTESIAN_POINT('',(1.698319586274E-1,1.037155982614E0,-9.426339223622E0));
#655=CARTESIAN_POINT('',(1.688613629738E-1,1.019888053129E0,-9.453378944736E0));
#657=CARTESIAN_POINT('',(0.E0,1.919513738413E-1,-8.918583006955E0));
#658=DIRECTION('',(0.E0,5.425853412453E-1,8.400006830151E-1));
#659=DIRECTION('',(1.688613854646E-1,8.279381125169E-1,-5.347937119497E-1));
#660=AXIS2_PLACEMENT_3D('',#657,#658,#659);
#662=CARTESIAN_POINT('',(0.E0,1.919513738413E-1,-8.918583006955E0));
#663=DIRECTION('',(0.E0,5.425853412453E-1,8.400006830151E-1));
#664=DIRECTION('',(0.E0,8.400006830151E-1,-5.425853412453E-1));
#665=AXIS2_PLACEMENT_3D('',#662,#663,#664);
#667=CARTESIAN_POINT('',(-1.643236573597E-1,9.391456861171E-1,
-9.579792803723E0));
#668=CARTESIAN_POINT('',(-1.658360842962E-1,9.660618927732E-1,
-9.537658262510E0));
#669=CARTESIAN_POINT('',(-1.673485804679E-1,9.929750757005E-1,
-9.495521792481E0));
#670=CARTESIAN_POINT('',(-1.688611460554E-1,1.019885227004E0,
-9.453383388603E0));
#672=CARTESIAN_POINT('',(1.688611453957E-1,1.019885215267E0,-9.453383406981E0));
#673=CARTESIAN_POINT('',(1.673485800281E-1,9.929750678750E-1,
-9.495521804733E0));
#674=CARTESIAN_POINT('',(1.658360840763E-1,9.660618888600E-1,
-9.537658268635E0));
#675=CARTESIAN_POINT('',(1.643236573597E-1,9.391456861171E-1,
-9.579792803723E0));
#677=DIRECTION('',(-1.E0,0.E0,0.E0));
#678=VECTOR('',#677,4.E-1);
#679=CARTESIAN_POINT('',(2.E-1,4.676999651246E-2,1.323072600334E-1));
#680=LINE('',#679,#678);
#681=DIRECTION('',(1.E0,0.E0,0.E0));
#682=VECTOR('',#681,4.E-1);
#683=CARTESIAN_POINT('',(-2.E-1,0.E0,3.2E-1));
#684=LINE('',#683,#682);
#685=CARTESIAN_POINT('',(1.582816965926E-1,8.227937364290E-1,
-9.748115146319E0));
#686=CARTESIAN_POINT('',(1.634524513369E-1,9.158415673542E-1,
-9.604063639682E0));
#687=VERTEX_POINT('',#685);
#688=VERTEX_POINT('',#686);
#689=VERTEX_POINT('',#8);
#690=CARTESIAN_POINT('',(-8.319569541160E-3,7.438593725764E-1,
-9.870316982885E0));
#691=VERTEX_POINT('',#690);
#692=VERTEX_POINT('',#17);
#693=CARTESIAN_POINT('',(-1.634524513369E-1,9.158415673541E-1,
-9.604063639682E0));
#694=VERTEX_POINT('',#693);
#695=VERTEX_POINT('',#67);
#696=VERTEX_POINT('',#672);
#697=VERTEX_POINT('',#647);
#698=VERTEX_POINT('',#625);
#699=VERTEX_POINT('',#594);
#700=VERTEX_POINT('',#31);
#701=CARTESIAN_POINT('',(2.992763749612E-1,2.520477164685E-1,
-5.820159393016E0));
#702=VERTEX_POINT('',#701);
#703=VERTEX_POINT('',#565);
#704=CARTESIAN_POINT('',(3.000003488783E-1,4.510268209189E-1,
-5.799977297356E0));
#705=VERTEX_POINT('',#704);
#706=CARTESIAN_POINT('',(2.056229319585E-1,7.180976581426E-1,
-8.429240703854E0));
#707=VERTEX_POINT('',#706);
#708=VERTEX_POINT('',#277);
#709=VERTEX_POINT('',#44);
#710=VERTEX_POINT('',#244);
#711=VERTEX_POINT('',#221);
#712=VERTEX_POINT('',#195);
#713=VERTEX_POINT('',#173);
#714=CARTESIAN_POINT('',(1.543864568998E-1,9.907938729108E-1,
-9.856632214756E0));
#715=VERTEX_POINT('',#714);
#716=VERTEX_POINT('',#55);
#717=CARTESIAN_POINT('',(0.E0,9.505642556731E-1,-9.587168450655E0));
#718=VERTEX_POINT('',#717);
#719=CARTESIAN_POINT('',(-1.543864569065E-1,9.907938730323E-1,
-9.856632214568E0));
#720=VERTEX_POINT('',#719);
#721=CARTESIAN_POINT('',(-1.583343848445E-1,1.061836913683E0,
-9.746647309911E0));
#722=VERTEX_POINT('',#721);
#723=VERTEX_POINT('',#153);
#724=VERTEX_POINT('',#190);
#725=VERTEX_POINT('',#200);
#726=VERTEX_POINT('',#232);
#727=VERTEX_POINT('',#268);
#728=VERTEX_POINT('',#101);
#729=CARTESIAN_POINT('',(-3.000003492796E-1,4.510269324863E-1,
-5.799977297370E0));
#730=VERTEX_POINT('',#729);
#731=CARTESIAN_POINT('',(-3.000001551462E-1,2.505133167854E-1,
-5.799995677798E0));
#732=VERTEX_POINT('',#731);
#733=VERTEX_POINT('',#108);
#734=CARTESIAN_POINT('',(-2.048974451652E-1,5.191215163769E-1,
-8.449451963291E0));
#735=VERTEX_POINT('',#734);
#736=VERTEX_POINT('',#580);
#737=VERTEX_POINT('',#113);
#738=VERTEX_POINT('',#599);
#739=VERTEX_POINT('',#632);
#740=CARTESIAN_POINT('',(-4.424329630640E-3,9.118595091797E-1,
-9.978834051134E0));
#741=VERTEX_POINT('',#740);
#742=CARTESIAN_POINT('',(4.424329855147E-3,9.118595091797E-1,
-9.978834051134E0));
#743=VERTEX_POINT('',#742);
#744=CARTESIAN_POINT('',(0.E0,1.118564392276E0,-9.695685518904E0));
#745=VERTEX_POINT('',#744);
#746=CARTESIAN_POINT('',(0.E0,1.199952193463E0,-9.569685416452E0));
#747=VERTEX_POINT('',#746);
#748=CARTESIAN_POINT('',(-3.E-1,4.5E-1,-5.779736874143E0));
#749=VERTEX_POINT('',#748);
#750=CARTESIAN_POINT('',(3.E-1,4.5E-1,-5.779736874143E0));
#751=VERTEX_POINT('',#750);
#752=CARTESIAN_POINT('',(-3.E-1,2.5E-1,-5.779736874143E0));
#753=VERTEX_POINT('',#752);
#754=CARTESIAN_POINT('',(-3.E-1,2.5E-1,-3.2E0));
#755=CARTESIAN_POINT('',(-3.E-1,4.5E-1,-3.2E0));
#756=VERTEX_POINT('',#754);
#757=VERTEX_POINT('',#755);
#758=CARTESIAN_POINT('',(-3.E-1,4.5E-1,-2.8E0));
#759=CARTESIAN_POINT('',(-3.E-1,4.5E-1,-3.E-1));
#760=VERTEX_POINT('',#758);
#761=VERTEX_POINT('',#759);
#762=CARTESIAN_POINT('',(-3.E-1,2.5E-1,-3.E-1));
#763=VERTEX_POINT('',#762);
#764=CARTESIAN_POINT('',(-3.E-1,2.5E-1,-2.8E0));
#765=VERTEX_POINT('',#764);
#766=CARTESIAN_POINT('',(3.E-1,4.5E-1,-3.2E0));
#767=VERTEX_POINT('',#766);
#768=CARTESIAN_POINT('',(2.E-1,4.5E-1,-3.E0));
#769=VERTEX_POINT('',#768);
#770=CARTESIAN_POINT('',(3.E-1,4.5E-1,-2.8E0));
#771=VERTEX_POINT('',#770);
#772=CARTESIAN_POINT('',(3.E-1,4.5E-1,-3.E-1));
#773=VERTEX_POINT('',#772);
#774=CARTESIAN_POINT('',(2.E-1,4.5E-1,-3.E-1));
#775=VERTEX_POINT('',#774);
#776=CARTESIAN_POINT('',(-2.E-1,4.5E-1,-3.E-1));
#777=VERTEX_POINT('',#776);
#778=CARTESIAN_POINT('',(3.E-1,2.5E-1,-3.2E0));
#779=VERTEX_POINT('',#778);
#780=CARTESIAN_POINT('',(3.E-1,2.5E-1,-5.779736874143E0));
#781=VERTEX_POINT('',#780);
#782=CARTESIAN_POINT('',(3.E-1,2.5E-1,-2.8E0));
#783=VERTEX_POINT('',#782);
#784=CARTESIAN_POINT('',(3.E-1,2.5E-1,-3.E-1));
#785=VERTEX_POINT('',#784);
#786=CARTESIAN_POINT('',(2.E-1,2.5E-1,-3.E0));
#787=VERTEX_POINT('',#786);
#788=CARTESIAN_POINT('',(-2.E-1,2.5E-1,-3.E-1));
#789=VERTEX_POINT('',#788);
#790=CARTESIAN_POINT('',(2.E-1,2.5E-1,-3.E-1));
#791=VERTEX_POINT('',#790);
#792=CARTESIAN_POINT('',(-2.E-1,0.E0,3.2E-1));
#793=CARTESIAN_POINT('',(-2.E-1,0.E0,1.97E0));
#794=VERTEX_POINT('',#792);
#795=VERTEX_POINT('',#793);
#796=CARTESIAN_POINT('',(-2.E-1,4.676999651239E-2,1.323072600335E-1));
#797=VERTEX_POINT('',#796);
#798=CARTESIAN_POINT('',(-2.E-1,2.266150017438E-1,-2.061536300166E-1));
#799=VERTEX_POINT('',#798);
#800=CARTESIAN_POINT('',(-2.E-1,4.032300034880E-1,-1.123072600341E-1));
#801=VERTEX_POINT('',#800);
#802=CARTESIAN_POINT('',(-2.E-1,2.233849982563E-1,2.261536300164E-1));
#803=VERTEX_POINT('',#802);
#804=CARTESIAN_POINT('',(-2.E-1,2.E-1,3.2E-1));
#805=VERTEX_POINT('',#804);
#806=CARTESIAN_POINT('',(-2.E-1,2.E-1,1.97E0));
#807=VERTEX_POINT('',#806);
#808=CARTESIAN_POINT('',(2.E-1,0.E0,1.97E0));
#809=VERTEX_POINT('',#808);
#810=CARTESIAN_POINT('',(2.E-1,0.E0,3.2E-1));
#811=VERTEX_POINT('',#810);
#812=CARTESIAN_POINT('',(2.E-1,2.E-1,1.97E0));
#813=VERTEX_POINT('',#812);
#814=CARTESIAN_POINT('',(2.E-1,2.E-1,3.2E-1));
#815=VERTEX_POINT('',#814);
#816=CARTESIAN_POINT('',(2.E-1,2.233849982563E-1,2.261536300164E-1));
#817=VERTEX_POINT('',#816);
#818=CARTESIAN_POINT('',(2.E-1,4.032300034876E-1,-1.123072600336E-1));
#819=VERTEX_POINT('',#818);
#820=CARTESIAN_POINT('',(2.E-1,2.266150017438E-1,-2.061536300167E-1));
#821=VERTEX_POINT('',#820);
#822=CARTESIAN_POINT('',(2.E-1,4.676999651246E-2,1.323072600334E-1));
#823=VERTEX_POINT('',#822);
#824=CARTESIAN_POINT('',(0.E0,1.031952056860E0,-9.461168348203E0));
#825=VERTEX_POINT('',#824);
#826=CARTESIAN_POINT('',(3.E-1,1.015152043199E0,-9.450316641377E0));
#827=DIRECTION('',(0.E0,-8.400006830153E-1,5.425853412448E-1));
#828=DIRECTION('',(0.E0,-5.425853412448E-1,-8.400006830153E-1));
#829=AXIS2_PLACEMENT_3D('',#826,#827,#828);
#830=PLANE('',#829);
#832=ORIENTED_EDGE('',*,*,#831,.F.);
#834=ORIENTED_EDGE('',*,*,#833,.T.);
#836=ORIENTED_EDGE('',*,*,#835,.F.);
#838=ORIENTED_EDGE('',*,*,#837,.T.);
#840=ORIENTED_EDGE('',*,*,#839,.T.);
#842=ORIENTED_EDGE('',*,*,#841,.F.);
#843=EDGE_LOOP('',(#832,#834,#836,#838,#840,#842));
#844=FACE_OUTER_BOUND('',#843,.F.);
#845=ADVANCED_FACE('',(#844),#830,.T.);
#846=CARTESIAN_POINT('',(3.E-1,0.E0,-5.8E0));
#847=DIRECTION('',(-9.993563899148E-1,0.E0,3.587207739119E-2));
#848=DIRECTION('',(-3.587207739119E-2,0.E0,-9.993563899148E-1));
#849=AXIS2_PLACEMENT_3D('',#846,#847,#848);
#850=PLANE('',#849);
#851=ORIENTED_EDGE('',*,*,#831,.T.);
#853=ORIENTED_EDGE('',*,*,#852,.F.);
#855=ORIENTED_EDGE('',*,*,#854,.F.);
#857=ORIENTED_EDGE('',*,*,#856,.F.);
#859=ORIENTED_EDGE('',*,*,#858,.F.);
#861=ORIENTED_EDGE('',*,*,#860,.F.);
#863=ORIENTED_EDGE('',*,*,#862,.T.);
#865=ORIENTED_EDGE('',*,*,#864,.T.);
#867=ORIENTED_EDGE('',*,*,#866,.F.);
#869=ORIENTED_EDGE('',*,*,#868,.F.);
#871=ORIENTED_EDGE('',*,*,#870,.T.);
#873=ORIENTED_EDGE('',*,*,#872,.F.);
#875=ORIENTED_EDGE('',*,*,#874,.T.);
#877=ORIENTED_EDGE('',*,*,#876,.F.);
#879=ORIENTED_EDGE('',*,*,#878,.F.);
#881=ORIENTED_EDGE('',*,*,#880,.F.);
#883=ORIENTED_EDGE('',*,*,#882,.F.);
#885=ORIENTED_EDGE('',*,*,#884,.F.);
#887=ORIENTED_EDGE('',*,*,#886,.T.);
#888=EDGE_LOOP('',(#851,#853,#855,#857,#859,#861,#863,#865,#867,#869,#871,#873,
#875,#877,#879,#881,#883,#885,#887));
#889=FACE_OUTER_BOUND('',#888,.F.);
#890=ADVANCED_FACE('',(#889),#850,.F.);
#891=CARTESIAN_POINT('',(-1.785507980044E-1,8.820923372962E-1,
-9.615391660694E0));
#892=CARTESIAN_POINT('',(-6.016143429338E-2,8.860670786110E-1,
-9.636504516885E0));
#893=CARTESIAN_POINT('',(6.016143429336E-2,8.860670786110E-1,
-9.636504516885E0));
#894=CARTESIAN_POINT('',(1.785507980044E-1,8.820923372962E-1,
-9.615391660694E0));
#895=CARTESIAN_POINT('',(-1.785507980044E-1,9.101219630588E-1,
-9.610114756871E0));
#896=CARTESIAN_POINT('',(-6.016143429338E-2,9.212714490859E-1,
-9.629876883725E0));
#897=CARTESIAN_POINT('',(6.016143429336E-2,9.212714490859E-1,
-9.629876883725E0));
#898=CARTESIAN_POINT('',(1.785507980044E-1,9.101219630588E-1,
-9.610114756871E0));
#899=CARTESIAN_POINT('',(-1.785507980044E-1,9.323848667514E-1,
-9.592285882719E0));
#900=CARTESIAN_POINT('',(-6.016143429338E-2,9.492329893534E-1,
-9.607484351762E0));
#901=CARTESIAN_POINT('',(6.016143429336E-2,9.492329893534E-1,
-9.607484351762E0));
#902=CARTESIAN_POINT('',(1.785507980044E-1,9.323848667514E-1,
-9.592285882719E0));
#903=CARTESIAN_POINT('',(-1.785507980044E-1,9.436593035786E-1,
-9.566086785242E0));
#904=CARTESIAN_POINT('',(-6.016143429338E-2,9.633933443407E-1,
-9.574579069991E0));
#905=CARTESIAN_POINT('',(6.016143429336E-2,9.633933443407E-1,
-9.574579069991E0));
#906=CARTESIAN_POINT('',(1.785507980044E-1,9.436593035786E-1,
-9.566086785242E0));
#907=(BOUNDED_SURFACE()B_SPLINE_SURFACE(3,3,((#891,#892,#893,#894),(#895,#896,
#897,#898),(#899,#900,#901,#902),(#903,#904,#905,#906)),.UNSPECIFIED.,.F.,.F.,
.F.)B_SPLINE_SURFACE_WITH_KNOTS((4,4),(4,4),(0.E0,1.E0),(0.E0,1.E0),
.UNSPECIFIED.)GEOMETRIC_REPRESENTATION_ITEM()RATIONAL_B_SPLINE_SURFACE(((
1.070894049161E0,1.059421700417E0,1.059421700417E0,1.070894049161E0),(
9.871682916560E-1,9.765928860688E-1,9.765928860688E-1,9.871682916560E-1),(
9.871682916560E-1,9.765928860688E-1,9.765928860688E-1,9.871682916560E-1),(
1.070894049161E0,1.059421700417E0,1.059421700417E0,1.070894049161E0)))REPRESENTATION_ITEM('')SURFACE());
#909=ORIENTED_EDGE('',*,*,#908,.T.);
#911=ORIENTED_EDGE('',*,*,#910,.T.);
#913=ORIENTED_EDGE('',*,*,#912,.T.);
#914=ORIENTED_EDGE('',*,*,#852,.T.);
#915=ORIENTED_EDGE('',*,*,#841,.T.);
#916=EDGE_LOOP('',(#909,#911,#913,#914,#915));
#917=FACE_OUTER_BOUND('',#916,.F.);
#918=ADVANCED_FACE('',(#917),#907,.F.);
#919=CARTESIAN_POINT('',(-3.E-1,0.E0,-5.8E0));
#920=DIRECTION('',(-9.993563899148E-1,0.E0,-3.587207739119E-2));
#921=DIRECTION('',(3.587207739119E-2,0.E0,-9.993563899148E-1));
#922=AXIS2_PLACEMENT_3D('',#919,#920,#921);
#923=PLANE('',#922);
#924=ORIENTED_EDGE('',*,*,#839,.F.);
#926=ORIENTED_EDGE('',*,*,#925,.T.);
#928=ORIENTED_EDGE('',*,*,#927,.T.);
#930=ORIENTED_EDGE('',*,*,#929,.F.);
#932=ORIENTED_EDGE('',*,*,#931,.F.);
#934=ORIENTED_EDGE('',*,*,#933,.F.);
#936=ORIENTED_EDGE('',*,*,#935,.F.);
#938=ORIENTED_EDGE('',*,*,#937,.F.);
#940=ORIENTED_EDGE('',*,*,#939,.T.);
#942=ORIENTED_EDGE('',*,*,#941,.F.);
#944=ORIENTED_EDGE('',*,*,#943,.F.);
#946=ORIENTED_EDGE('',*,*,#945,.T.);
#948=ORIENTED_EDGE('',*,*,#947,.F.);
#950=ORIENTED_EDGE('',*,*,#949,.F.);
#952=ORIENTED_EDGE('',*,*,#951,.T.);
#954=ORIENTED_EDGE('',*,*,#953,.F.);
#956=ORIENTED_EDGE('',*,*,#955,.F.);
#958=ORIENTED_EDGE('',*,*,#957,.F.);
#959=ORIENTED_EDGE('',*,*,#908,.F.);
#960=EDGE_LOOP('',(#924,#926,#928,#930,#932,#934,#936,#938,#940,#942,#944,#946,
#948,#950,#952,#954,#956,#958,#959));
#961=FACE_OUTER_BOUND('',#960,.F.);
#962=ADVANCED_FACE('',(#961),#923,.T.);
#963=CARTESIAN_POINT('',(-8.692298889115E-3,8.092518472615E-1,
-9.733984948728E0));
#964=DIRECTION('',(1.947250560249E-2,8.398414128272E-1,-5.424824631506E-1));
#965=DIRECTION('',(0.E0,-5.425853412448E-1,-8.400006830154E-1));
#966=AXIS2_PLACEMENT_3D('',#963,#964,#965);
#967=CYLINDRICAL_SURFACE('',#966,1.5E-1);
#968=ORIENTED_EDGE('',*,*,#925,.F.);
#969=ORIENTED_EDGE('',*,*,#837,.F.);
#971=ORIENTED_EDGE('',*,*,#970,.F.);
#973=ORIENTED_EDGE('',*,*,#972,.F.);
#974=EDGE_LOOP('',(#968,#969,#971,#973));
#975=FACE_OUTER_BOUND('',#974,.F.);
#976=ADVANCED_FACE('',(#975),#967,.T.);
#977=CARTESIAN_POINT('',(0.E0,8.278594408786E-1,-9.924575517010E0));
#978=DIRECTION('',(0.E0,5.425853412448E-1,8.400006830153E-1));
#979=DIRECTION('',(-1.E0,0.E0,0.E0));
#980=AXIS2_PLACEMENT_3D('',#977,#978,#979);
#981=PLANE('',#980);
#982=ORIENTED_EDGE('',*,*,#835,.T.);
#984=ORIENTED_EDGE('',*,*,#983,.T.);
#986=ORIENTED_EDGE('',*,*,#985,.F.);
#987=ORIENTED_EDGE('',*,*,#970,.T.);
#988=EDGE_LOOP('',(#982,#984,#986,#987));
#989=FACE_OUTER_BOUND('',#988,.F.);
#990=ADVANCED_FACE('',(#989),#981,.F.);
#991=CARTESIAN_POINT('',(4.068778553316E-3,1.008662438293E0,-9.862791110164E0));
#992=DIRECTION('',(1.947250560249E-2,-8.398414128272E-1,5.424824631506E-1));
#993=DIRECTION('',(0.E0,-5.425853412448E-1,-8.400006830154E-1));
#994=AXIS2_PLACEMENT_3D('',#991,#992,#993);
#995=CYLINDRICAL_SURFACE('',#994,1.5E-1);
#996=ORIENTED_EDGE('',*,*,#886,.F.);
#998=ORIENTED_EDGE('',*,*,#997,.F.);
#999=ORIENTED_EDGE('',*,*,#983,.F.);
#1000=ORIENTED_EDGE('',*,*,#833,.F.);
#1001=EDGE_LOOP('',(#996,#998,#999,#1000));
#1002=FACE_OUTER_BOUND('',#1001,.F.);
#1003=ADVANCED_FACE('',(#1002),#995,.T.);
#1004=CARTESIAN_POINT('',(3.E-1,1.183152179803E0,-9.558833709626E0));
#1005=DIRECTION('',(0.E0,-8.400006830153E-1,5.425853412448E-1));
#1006=DIRECTION('',(0.E0,-5.425853412448E-1,-8.400006830153E-1));
#1007=AXIS2_PLACEMENT_3D('',#1004,#1005,#1006);
#1008=PLANE('',#1007);
#1009=ORIENTED_EDGE('',*,*,#884,.T.);
#1011=ORIENTED_EDGE('',*,*,#1010,.F.);
#1012=ORIENTED_EDGE('',*,*,#927,.F.);
#1013=ORIENTED_EDGE('',*,*,#972,.T.);
#1014=ORIENTED_EDGE('',*,*,#985,.T.);
#1015=ORIENTED_EDGE('',*,*,#997,.T.);
#1016=EDGE_LOOP('',(#1009,#1011,#1012,#1013,#1014,#1015));
#1017=FACE_OUTER_BOUND('',#1016,.F.);
#1018=ADVANCED_FACE('',(#1017),#1008,.F.);
#1019=CARTESIAN_POINT('',(-1.746728955202E-1,1.023915524692E0,
-9.773191862523E0));
#1020=CARTESIAN_POINT('',(-5.864067403099E-2,1.033268078687E0,
-9.787473596077E0));
#1021=CARTESIAN_POINT('',(5.864067403099E-2,1.033268078687E0,
-9.787473596077E0));
#1022=CARTESIAN_POINT('',(1.746728955202E-1,1.023915524692E0,
-9.773191862523E0));
#1023=CARTESIAN_POINT('',(-1.746728955202E-1,1.061698598280E0,
-9.748449191440E0));
#1024=CARTESIAN_POINT('',(-5.864067403099E-2,1.073296879841E0,
-9.761260285015E0));
#1025=CARTESIAN_POINT('',(5.864067403099E-2,1.073296879841E0,
-9.761260285015E0));
#1026=CARTESIAN_POINT('',(1.746728955202E-1,1.061698598280E0,
-9.748449191440E0));
#1027=CARTESIAN_POINT('',(-1.746728955202E-1,1.092724255520E0,
-9.715628938320E0));
#1028=CARTESIAN_POINT('',(-5.864067403099E-2,1.106166621406E0,
-9.726489281462E0));
#1029=CARTESIAN_POINT('',(5.864067403099E-2,1.106166621406E0,
-9.726489281462E0));
#1030=CARTESIAN_POINT('',(1.746728955202E-1,1.092724255520E0,
-9.715628938320E0));
#1031=CARTESIAN_POINT('',(-1.746728955202E-1,1.115305506201E0,
-9.676515672799E0));
#1032=CARTESIAN_POINT('',(-5.864067403099E-2,1.130090042861E0,
-9.685051225228E0));
#1033=CARTESIAN_POINT('',(5.864067403099E-2,1.130090042861E0,
-9.685051225228E0));
#1034=CARTESIAN_POINT('',(1.746728955202E-1,1.115305506201E0,
-9.676515672799E0));
#1035=(BOUNDED_SURFACE()B_SPLINE_SURFACE(3,3,((#1019,#1020,#1021,#1022),(#1023,
#1024,#1025,#1026),(#1027,#1028,#1029,#1030),(#1031,#1032,#1033,#1034)),
.UNSPECIFIED.,.F.,.F.,.F.)B_SPLINE_SURFACE_WITH_KNOTS((4,4),(4,4),(0.E0,1.E0),(
0.E0,1.E0),.UNSPECIFIED.)GEOMETRIC_REPRESENTATION_ITEM()RATIONAL_B_SPLINE_SURFACE(((1.019208472703E0,1.011971627814E0,1.011971627814E0,1.019208472703E0),(
1.000735646538E0,9.936299671380E-1,9.936299671380E-1,1.000735646538E0),(
1.000735646538E0,9.936299671380E-1,9.936299671380E-1,1.000735646538E0),(
1.019208472703E0,1.011971627814E0,1.011971627814E0,1.019208472703E0)))REPRESENTATION_ITEM('')SURFACE());
#1036=ORIENTED_EDGE('',*,*,#929,.T.);
#1037=ORIENTED_EDGE('',*,*,#1010,.T.);
#1038=ORIENTED_EDGE('',*,*,#882,.T.);
#1040=ORIENTED_EDGE('',*,*,#1039,.T.);
#1042=ORIENTED_EDGE('',*,*,#1041,.T.);
#1043=EDGE_LOOP('',(#1036,#1037,#1038,#1040,#1042));
#1044=FACE_OUTER_BOUND('',#1043,.F.);
#1045=ADVANCED_FACE('',(#1044),#1035,.T.);
#1046=CARTESIAN_POINT('',(0.E0,1.105635726577E-1,-9.044583109410E0));
#1047=DIRECTION('',(0.E0,5.425853412448E-1,8.400006830153E-1));
#1048=DIRECTION('',(0.E0,8.400006830153E-1,-5.425853412448E-1));
#1049=AXIS2_PLACEMENT_3D('',#1046,#1047,#1048);
#1050=CYLINDRICAL_SURFACE('',#1049,1.2E0);
#1051=ORIENTED_EDGE('',*,*,#931,.T.);
#1052=ORIENTED_EDGE('',*,*,#1041,.F.);
#1053=ORIENTED_EDGE('',*,*,#1039,.F.);
#1054=ORIENTED_EDGE('',*,*,#880,.T.);
#1056=ORIENTED_EDGE('',*,*,#1055,.F.);
#1058=ORIENTED_EDGE('',*,*,#1057,.F.);
#1059=EDGE_LOOP('',(#1051,#1052,#1053,#1054,#1056,#1058));
#1060=FACE_OUTER_BOUND('',#1059,.F.);
#1061=ADVANCED_FACE('',(#1060),#1050,.T.);
#1062=CARTESIAN_POINT('',(2.069866508861E-1,1.073571171670E0,
-8.778470564018E0));
#1063=CARTESIAN_POINT('',(6.969195209557E-2,1.089322798961E0,
-8.760307085879E0));
#1064=CARTESIAN_POINT('',(-6.969190642616E-2,1.089322800690E0,
-8.760307083885E0));
#1065=CARTESIAN_POINT('',(-2.069866061271E-1,1.073571176805E0,
-8.778470558097E0));
#1066=CARTESIAN_POINT('',(2.069866508861E-1,1.316737633914E0,
-8.989347988134E0));
#1067=CARTESIAN_POINT('',(6.969195209557E-2,1.342200415035E0,
-8.979606161097E0));
#1068=CARTESIAN_POINT('',(-6.969190642616E-2,1.342200417830E0,
-8.979606160028E0));
#1069=CARTESIAN_POINT('',(-2.069866061271E-1,1.316737642215E0,
-8.989347984958E0));
#1070=CARTESIAN_POINT('',(2.069866508861E-1,1.357639812368E0,
-9.308606861402E0));
#1071=CARTESIAN_POINT('',(6.969195209557E-2,1.384736072642E0,
-9.311615032868E0));
#1072=CARTESIAN_POINT('',(-6.969190642616E-2,1.384736075617E0,
-9.311615033198E0));
#1073=CARTESIAN_POINT('',(-2.069866061271E-1,1.357639821202E0,
-9.308606862382E0));
#1074=CARTESIAN_POINT('',(2.069866508861E-1,1.175487959879E0,
-9.573974378247E0));
#1075=CARTESIAN_POINT('',(6.969195209557E-2,1.195309760330E0,
-9.587580330154E0));
#1076=CARTESIAN_POINT('',(-6.969190642616E-2,1.195309762506E0,
-9.587580331648E0));
#1077=CARTESIAN_POINT('',(-2.069866061271E-1,1.175487966341E0,
-9.573974382683E0));
#1078=(BOUNDED_SURFACE()B_SPLINE_SURFACE(3,3,((#1062,#1063,#1064,#1065),(#1066,
#1067,#1068,#1069),(#1070,#1071,#1072,#1073),(#1074,#1075,#1076,#1077)),
.UNSPECIFIED.,.F.,.F.,.F.)B_SPLINE_SURFACE_WITH_KNOTS((4,4),(4,4),(0.E0,1.E0),(
0.E0,1.E0),.UNSPECIFIED.)GEOMETRIC_REPRESENTATION_ITEM()RATIONAL_B_SPLINE_SURFACE(((1.154217140127E0,1.142683793916E0,1.142683793916E0,1.154217140127E0),(
9.586620913860E-1,9.490828004407E-1,9.490828004407E-1,9.586620913860E-1),(
9.586620913860E-1,9.490828004407E-1,9.490828004407E-1,9.586620913860E-1),(
1.154217140127E0,1.142683793916E0,1.142683793916E0,1.154217140127E0)))REPRESENTATION_ITEM('')SURFACE());
#1079=ORIENTED_EDGE('',*,*,#933,.T.);
#1080=ORIENTED_EDGE('',*,*,#1057,.T.);
#1081=ORIENTED_EDGE('',*,*,#1055,.T.);
#1082=ORIENTED_EDGE('',*,*,#878,.T.);
#1084=ORIENTED_EDGE('',*,*,#1083,.F.);
#1085=EDGE_LOOP('',(#1079,#1080,#1081,#1082,#1084));
#1086=FACE_OUTER_BOUND('',#1085,.F.);
#1087=ADVANCED_FACE('',(#1086),#1078,.T.);
#1088=CARTESIAN_POINT('',(-2.082814887672E-1,1.091520208553E0,
-8.795079247010E0));
#1089=CARTESIAN_POINT('',(-7.083820506344E-2,1.108583789767E0,
-8.777898894073E0));
#1090=CARTESIAN_POINT('',(7.083820476825E-2,1.108583607250E0,
-8.777898717077E0));
#1091=CARTESIAN_POINT('',(2.082814884780E-1,1.091520210214E0,
-8.795079248550E0));
#1092=CARTESIAN_POINT('',(-2.082814887672E-1,1.055767791632E0,
-8.760379627499E0));
#1093=CARTESIAN_POINT('',(-7.083820506344E-2,1.068332375050E0,
-8.738808497788E0));
#1094=CARTESIAN_POINT('',(7.083820476825E-2,1.068333364169E0,
-8.738809504332E0));
#1095=CARTESIAN_POINT('',(2.082814884780E-1,1.055767782850E0,
-8.760379618490E0));
#1096=CARTESIAN_POINT('',(-2.082814887672E-1,1.009853961371E0,
-8.736254609853E0));
#1097=CARTESIAN_POINT('',(-7.083820506344E-2,1.016454506845E0,
-8.711822432942E0));
#1098=CARTESIAN_POINT('',(7.083820476825E-2,1.016457314773E0,
-8.711823929222E0));
#1099=CARTESIAN_POINT('',(2.082814884780E-1,1.009853936379E0,
-8.736254596477E0));
#1100=CARTESIAN_POINT('',(-2.082814887672E-1,9.639171092934E-1,
-8.727059197341E0));
#1101=CARTESIAN_POINT('',(-7.083820506344E-2,9.648897047012E-1,
-8.701897316537E0));
#1102=CARTESIAN_POINT('',(7.083820476825E-2,9.648939836109E-1,
-8.701898460965E0));
#1103=CARTESIAN_POINT('',(2.082814884780E-1,9.639170711905E-1,
-8.727059187097E0));
#1104=B_SPLINE_SURFACE_WITH_KNOTS('',3,3,((#1088,#1089,#1090,#1091),(#1092,
#1093,#1094,#1095),(#1096,#1097,#1098,#1099),(#1100,#1101,#1102,#1103)),
.UNSPECIFIED.,.F.,.F.,.F.,(4,4),(4,4),(-3.162338883885E0,-2.753442999994E0),(
-1.744514303178E-1,1.744514300730E-1),.UNSPECIFIED.);
#1105=ORIENTED_EDGE('',*,*,#935,.T.);
#1106=ORIENTED_EDGE('',*,*,#1083,.T.);
#1107=ORIENTED_EDGE('',*,*,#876,.T.);
#1109=ORIENTED_EDGE('',*,*,#1108,.T.);
#1110=EDGE_LOOP('',(#1105,#1106,#1107,#1109));
#1111=FACE_OUTER_BOUND('',#1110,.F.);
#1112=ADVANCED_FACE('',(#1111),#1104,.T.);
#1113=CARTESIAN_POINT('',(3.E-1,6.791517699933E-1,-9.233282504879E0));
#1114=DIRECTION('',(1.E0,0.E0,0.E0));
#1115=DIRECTION('',(0.E0,-1.E0,0.E0));
#1116=AXIS2_PLACEMENT_3D('',#1113,#1114,#1115);
#1117=CYLINDRICAL_SURFACE('',#1116,6.E-1);
#1118=ORIENTED_EDGE('',*,*,#937,.T.);
#1119=ORIENTED_EDGE('',*,*,#1108,.F.);
#1120=ORIENTED_EDGE('',*,*,#874,.F.);
#1122=ORIENTED_EDGE('',*,*,#1121,.F.);
#1123=EDGE_LOOP('',(#1118,#1119,#1120,#1122));
#1124=FACE_OUTER_BOUND('',#1123,.F.);
#1125=ADVANCED_FACE('',(#1124),#1117,.T.);
#1126=CARTESIAN_POINT('',(3.E-1,1.016561870791E0,-8.398923814699E0));
#1127=DIRECTION('',(1.E0,0.E0,0.E0));
#1128=DIRECTION('',(0.E0,-1.E0,0.E0));
#1129=AXIS2_PLACEMENT_3D('',#1126,#1127,#1128);
#1130=CYLINDRICAL_SURFACE('',#1129,3.E-1);
#1131=ORIENTED_EDGE('',*,*,#939,.F.);
#1132=ORIENTED_EDGE('',*,*,#1121,.T.);
#1133=ORIENTED_EDGE('',*,*,#872,.T.);
#1135=ORIENTED_EDGE('',*,*,#1134,.T.);
#1136=EDGE_LOOP('',(#1131,#1132,#1133,#1135));
#1137=FACE_OUTER_BOUND('',#1136,.F.);
#1138=ADVANCED_FACE('',(#1137),#1130,.F.);
#1139=CARTESIAN_POINT('',(3.E-1,4.489761417658E-1,-5.779788740563E0));
#1140=DIRECTION('',(0.E0,-9.948807088288E-1,-1.010562971829E-1));
#1141=DIRECTION('',(0.E0,1.010562971829E-1,-9.948807088288E-1));
#1142=AXIS2_PLACEMENT_3D('',#1139,#1140,#1141);
#1143=PLANE('',#1142);
#1144=ORIENTED_EDGE('',*,*,#941,.T.);
#1145=ORIENTED_EDGE('',*,*,#1134,.F.);
#1146=ORIENTED_EDGE('',*,*,#870,.F.);
#1148=ORIENTED_EDGE('',*,*,#1147,.F.);
#1149=EDGE_LOOP('',(#1144,#1145,#1146,#1148));
#1150=FACE_OUTER_BOUND('',#1149,.F.);
#1151=ADVANCED_FACE('',(#1150),#1143,.F.);
#1152=CARTESIAN_POINT('',(3.E-1,6.5E-1,-5.779736874143E0));
#1153=DIRECTION('',(-1.E0,0.E0,0.E0));
#1154=DIRECTION('',(0.E0,-9.948807088288E-1,-1.010562971829E-1));
#1155=AXIS2_PLACEMENT_3D('',#1152,#1153,#1154);
#1156=CYLINDRICAL_SURFACE('',#1155,2.E-1);
#1158=ORIENTED_EDGE('',*,*,#1157,.F.);
#1159=ORIENTED_EDGE('',*,*,#1147,.T.);
#1161=ORIENTED_EDGE('',*,*,#1160,.F.);
#1163=ORIENTED_EDGE('',*,*,#1162,.T.);
#1164=EDGE_LOOP('',(#1158,#1159,#1161,#1163));
#1165=FACE_OUTER_BOUND('',#1164,.F.);
#1166=ADVANCED_FACE('',(#1165),#1156,.F.);
#1167=CARTESIAN_POINT('',(-3.E-1,3.503841928447E-1,-5.794914756166E0));
#1168=DIRECTION('',(1.E0,0.E0,0.E0));
#1169=DIRECTION('',(0.E0,-1.010562971829E-1,9.948807088288E-1));
#1170=AXIS2_PLACEMENT_3D('',#1167,#1168,#1169);
#1171=PLANE('',#1170);
#1172=ORIENTED_EDGE('',*,*,#943,.T.);
#1173=ORIENTED_EDGE('',*,*,#1157,.T.);
#1175=ORIENTED_EDGE('',*,*,#1174,.T.);
#1177=ORIENTED_EDGE('',*,*,#1176,.T.);
#1178=EDGE_LOOP('',(#1172,#1173,#1175,#1177));
#1179=FACE_OUTER_BOUND('',#1178,.F.);
#1180=ADVANCED_FACE('',(#1179),#1171,.F.);
#1181=CARTESIAN_POINT('',(-3.E-1,3.5E-1,-3.039868437071E0));
#1182=DIRECTION('',(-1.E0,0.E0,0.E0));
#1183=DIRECTION('',(0.E0,0.E0,-1.E0));
#1184=AXIS2_PLACEMENT_3D('',#1181,#1182,#1183);
#1185=PLANE('',#1184);
#1187=ORIENTED_EDGE('',*,*,#1186,.F.);
#1189=ORIENTED_EDGE('',*,*,#1188,.F.);
#1190=ORIENTED_EDGE('',*,*,#1174,.F.);
#1192=ORIENTED_EDGE('',*,*,#1191,.T.);
#1193=EDGE_LOOP('',(#1187,#1189,#1190,#1192));
#1194=FACE_OUTER_BOUND('',#1193,.F.);
#1195=ADVANCED_FACE('',(#1194),#1185,.T.);
#1196=CARTESIAN_POINT('',(-4.5E-1,3.5E-1,-3.E0));
#1197=DIRECTION('',(0.E0,-1.E0,0.E0));
#1198=DIRECTION('',(6.E-1,0.E0,-8.E-1));
#1199=AXIS2_PLACEMENT_3D('',#1196,#1197,#1198);
#1200=CYLINDRICAL_SURFACE('',#1199,2.5E-1);
#1202=ORIENTED_EDGE('',*,*,#1201,.F.);
#1204=ORIENTED_EDGE('',*,*,#1203,.T.);
#1206=ORIENTED_EDGE('',*,*,#1205,.F.);
#1207=ORIENTED_EDGE('',*,*,#1186,.T.);
#1208=EDGE_LOOP('',(#1202,#1204,#1206,#1207));
#1209=FACE_OUTER_BOUND('',#1208,.F.);
#1210=ADVANCED_FACE('',(#1209),#1200,.F.);
#1211=CARTESIAN_POINT('',(3.E-1,4.5E-1,-3.E-1));
#1212=DIRECTION('',(0.E0,-1.E0,0.E0));
#1213=DIRECTION('',(0.E0,0.E0,-1.E0));
#1214=AXIS2_PLACEMENT_3D('',#1211,#1212,#1213);
#1215=PLANE('',#1214);
#1217=ORIENTED_EDGE('',*,*,#1216,.F.);
#1218=ORIENTED_EDGE('',*,*,#1201,.T.);
#1219=ORIENTED_EDGE('',*,*,#1191,.F.);
#1220=ORIENTED_EDGE('',*,*,#1162,.F.);
#1222=ORIENTED_EDGE('',*,*,#1221,.T.);
#1224=ORIENTED_EDGE('',*,*,#1223,.T.);
#1226=ORIENTED_EDGE('',*,*,#1225,.T.);
#1228=ORIENTED_EDGE('',*,*,#1227,.T.);
#1230=ORIENTED_EDGE('',*,*,#1229,.F.);
#1232=ORIENTED_EDGE('',*,*,#1231,.F.);
#1234=ORIENTED_EDGE('',*,*,#1233,.T.);
#1235=EDGE_LOOP('',(#1217,#1218,#1219,#1220,#1222,#1224,#1226,#1228,#1230,#1232,
#1234));
#1236=FACE_OUTER_BOUND('',#1235,.F.);
#1237=ADVANCED_FACE('',(#1236),#1215,.F.);
#1238=CARTESIAN_POINT('',(-3.E-1,3.5E-1,-3.039868437071E0));
#1239=DIRECTION('',(-1.E0,0.E0,0.E0));
#1240=DIRECTION('',(0.E0,0.E0,-1.E0));
#1241=AXIS2_PLACEMENT_3D('',#1238,#1239,#1240);
#1242=PLANE('',#1241);
#1243=ORIENTED_EDGE('',*,*,#1216,.T.);
#1245=ORIENTED_EDGE('',*,*,#1244,.F.);
#1247=ORIENTED_EDGE('',*,*,#1246,.F.);
#1248=ORIENTED_EDGE('',*,*,#1203,.F.);
#1249=EDGE_LOOP('',(#1243,#1245,#1247,#1248));
#1250=FACE_OUTER_BOUND('',#1249,.F.);
#1251=ADVANCED_FACE('',(#1250),#1242,.T.);
#1252=CARTESIAN_POINT('',(-2.E-1,0.E0,-3.E-1));
#1253=DIRECTION('',(0.E0,0.E0,1.E0));
#1254=DIRECTION('',(-1.E0,0.E0,0.E0));
#1255=AXIS2_PLACEMENT_3D('',#1252,#1253,#1254);
#1256=PLANE('',#1255);
#1258=ORIENTED_EDGE('',*,*,#1257,.T.);
#1259=ORIENTED_EDGE('',*,*,#1244,.T.);
#1260=ORIENTED_EDGE('',*,*,#1233,.F.);
#1262=ORIENTED_EDGE('',*,*,#1261,.T.);
#1263=EDGE_LOOP('',(#1258,#1259,#1260,#1262));
#1264=FACE_OUTER_BOUND('',#1263,.F.);
#1265=ADVANCED_FACE('',(#1264),#1256,.T.);
#1266=CARTESIAN_POINT('',(3.E-1,2.5E-1,-3.E-1));
#1267=DIRECTION('',(0.E0,-1.E0,0.E0));
#1268=DIRECTION('',(0.E0,0.E0,-1.E0));
#1269=AXIS2_PLACEMENT_3D('',#1266,#1267,#1268);
#1270=PLANE('',#1269);
#1271=ORIENTED_EDGE('',*,*,#1246,.T.);
#1272=ORIENTED_EDGE('',*,*,#1257,.F.);
#1274=ORIENTED_EDGE('',*,*,#1273,.F.);
#1276=ORIENTED_EDGE('',*,*,#1275,.T.);
#1278=ORIENTED_EDGE('',*,*,#1277,.F.);
#1280=ORIENTED_EDGE('',*,*,#1279,.T.);
#1282=ORIENTED_EDGE('',*,*,#1281,.T.);
#1284=ORIENTED_EDGE('',*,*,#1283,.F.);
#1286=ORIENTED_EDGE('',*,*,#1285,.F.);
#1287=ORIENTED_EDGE('',*,*,#1188,.T.);
#1288=ORIENTED_EDGE('',*,*,#1205,.T.);
#1289=EDGE_LOOP('',(#1271,#1272,#1274,#1276,#1278,#1280,#1282,#1284,#1286,#1287,
#1288));
#1290=FACE_OUTER_BOUND('',#1289,.F.);
#1291=ADVANCED_FACE('',(#1290),#1270,.T.);
#1292=CARTESIAN_POINT('',(3.E-1,5.E-2,-3.E-1));
#1293=DIRECTION('',(1.E0,0.E0,0.E0));
#1294=DIRECTION('',(0.E0,-1.E0,0.E0));
#1295=AXIS2_PLACEMENT_3D('',#1292,#1293,#1294);
#1296=CYLINDRICAL_SURFACE('',#1295,2.E-1);
#1297=ORIENTED_EDGE('',*,*,#1273,.T.);
#1299=ORIENTED_EDGE('',*,*,#1298,.F.);
#1301=ORIENTED_EDGE('',*,*,#1300,.T.);
#1303=ORIENTED_EDGE('',*,*,#1302,.F.);
#1304=EDGE_LOOP('',(#1297,#1299,#1301,#1303));
#1305=FACE_OUTER_BOUND('',#1304,.F.);
#1306=ADVANCED_FACE('',(#1305),#1296,.F.);
#1307=CARTESIAN_POINT('',(-2.E-1,0.E0,1.97E0));
#1308=DIRECTION('',(-1.E0,0.E0,0.E0));
#1309=DIRECTION('',(0.E0,0.E0,-1.E0));
#1310=AXIS2_PLACEMENT_3D('',#1307,#1308,#1309);
#1311=PLANE('',#1310);
#1313=ORIENTED_EDGE('',*,*,#1312,.F.);
#1315=ORIENTED_EDGE('',*,*,#1314,.T.);
#1317=ORIENTED_EDGE('',*,*,#1316,.T.);
#1318=ORIENTED_EDGE('',*,*,#1298,.T.);
#1319=ORIENTED_EDGE('',*,*,#1261,.F.);
#1321=ORIENTED_EDGE('',*,*,#1320,.T.);
#1323=ORIENTED_EDGE('',*,*,#1322,.T.);
#1325=ORIENTED_EDGE('',*,*,#1324,.T.);
#1327=ORIENTED_EDGE('',*,*,#1326,.T.);
#1329=ORIENTED_EDGE('',*,*,#1328,.F.);
#1330=EDGE_LOOP('',(#1313,#1315,#1317,#1318,#1319,#1321,#1323,#1325,#1327,
#1329));
#1331=FACE_OUTER_BOUND('',#1330,.F.);
#1332=ADVANCED_FACE('',(#1331),#1311,.T.);
#1333=CARTESIAN_POINT('',(3.E-1,0.E0,1.97E0));
#1334=DIRECTION('',(0.E0,-1.E0,0.E0));
#1335=DIRECTION('',(0.E0,0.E0,-1.E0));
#1336=AXIS2_PLACEMENT_3D('',#1333,#1334,#1335);
#1337=PLANE('',#1336);
#1339=ORIENTED_EDGE('',*,*,#1338,.T.);
#1341=ORIENTED_EDGE('',*,*,#1340,.F.);
#1343=ORIENTED_EDGE('',*,*,#1342,.F.);
#1344=ORIENTED_EDGE('',*,*,#1312,.T.);
#1345=EDGE_LOOP('',(#1339,#1341,#1343,#1344));
#1346=FACE_OUTER_BOUND('',#1345,.F.);
#1347=ADVANCED_FACE('',(#1346),#1337,.T.);
#1348=CARTESIAN_POINT('',(0.E0,1.E-1,1.97E0));
#1349=DIRECTION('',(0.E0,0.E0,1.E0));
#1350=DIRECTION('',(-1.E0,0.E0,0.E0));
#1351=AXIS2_PLACEMENT_3D('',#1348,#1349,#1350);
#1352=PLANE('',#1351);
#1353=ORIENTED_EDGE('',*,*,#1338,.F.);
#1354=ORIENTED_EDGE('',*,*,#1328,.T.);
#1356=ORIENTED_EDGE('',*,*,#1355,.T.);
#1358=ORIENTED_EDGE('',*,*,#1357,.F.);
#1359=EDGE_LOOP('',(#1353,#1354,#1356,#1358));
#1360=FACE_OUTER_BOUND('',#1359,.F.);
#1361=ADVANCED_FACE('',(#1360),#1352,.T.);
#1362=CARTESIAN_POINT('',(3.E-1,2.E-1,1.97E0));
#1363=DIRECTION('',(0.E0,-1.E0,0.E0));
#1364=DIRECTION('',(0.E0,0.E0,-1.E0));
#1365=AXIS2_PLACEMENT_3D('',#1362,#1363,#1364);
#1366=PLANE('',#1365);
#1367=ORIENTED_EDGE('',*,*,#1355,.F.);
#1368=ORIENTED_EDGE('',*,*,#1326,.F.);
#1370=ORIENTED_EDGE('',*,*,#1369,.F.);
#1372=ORIENTED_EDGE('',*,*,#1371,.T.);
#1373=EDGE_LOOP('',(#1367,#1368,#1370,#1372));
#1374=FACE_OUTER_BOUND('',#1373,.F.);
#1375=ADVANCED_FACE('',(#1374),#1366,.F.);
#1376=CARTESIAN_POINT('',(3.E-1,4.E-1,3.2E-1));
#1377=DIRECTION('',(1.E0,0.E0,0.E0));
#1378=DIRECTION('',(0.E0,-1.E0,0.E0));
#1379=AXIS2_PLACEMENT_3D('',#1376,#1377,#1378);
#1380=CYLINDRICAL_SURFACE('',#1379,2.E-1);
#1381=ORIENTED_EDGE('',*,*,#1369,.T.);
#1382=ORIENTED_EDGE('',*,*,#1324,.F.);
#1384=ORIENTED_EDGE('',*,*,#1383,.T.);
#1386=ORIENTED_EDGE('',*,*,#1385,.F.);
#1387=EDGE_LOOP('',(#1381,#1382,#1384,#1386));
#1388=FACE_OUTER_BOUND('',#1387,.F.);
#1389=ADVANCED_FACE('',(#1388),#1380,.F.);
#1390=CARTESIAN_POINT('',(3.E-1,2.233849982562E-1,2.261536300166E-1));
#1391=DIRECTION('',(0.E0,-8.830750087188E-1,-4.692318499168E-1));
#1392=DIRECTION('',(0.E0,4.692318499168E-1,-8.830750087188E-1));
#1393=AXIS2_PLACEMENT_3D('',#1390,#1391,#1392);
#1394=PLANE('',#1393);
#1396=ORIENTED_EDGE('',*,*,#1395,.F.);
#1398=ORIENTED_EDGE('',*,*,#1397,.F.);
#1399=ORIENTED_EDGE('',*,*,#1383,.F.);
#1400=ORIENTED_EDGE('',*,*,#1322,.F.);
#1401=EDGE_LOOP('',(#1396,#1398,#1399,#1400));
#1402=FACE_OUTER_BOUND('',#1401,.F.);
#1403=ADVANCED_FACE('',(#1402),#1394,.F.);
#1404=CARTESIAN_POINT('',(3.E-1,5.E-2,-3.E-1));
#1405=DIRECTION('',(1.E0,0.E0,0.E0));
#1406=DIRECTION('',(0.E0,-1.E0,0.E0));
#1407=AXIS2_PLACEMENT_3D('',#1404,#1405,#1406);
#1408=CYLINDRICAL_SURFACE('',#1407,4.E-1);
#1409=ORIENTED_EDGE('',*,*,#1395,.T.);
#1410=ORIENTED_EDGE('',*,*,#1320,.F.);
#1411=ORIENTED_EDGE('',*,*,#1231,.T.);
#1413=ORIENTED_EDGE('',*,*,#1412,.F.);
#1414=EDGE_LOOP('',(#1409,#1410,#1411,#1413));
#1415=FACE_OUTER_BOUND('',#1414,.F.);
#1416=ADVANCED_FACE('',(#1415),#1408,.T.);
#1417=CARTESIAN_POINT('',(2.E-1,0.E0,1.97E0));
#1418=DIRECTION('',(-1.E0,0.E0,0.E0));
#1419=DIRECTION('',(0.E0,0.E0,-1.E0));
#1420=AXIS2_PLACEMENT_3D('',#1417,#1418,#1419);
#1421=PLANE('',#1420);
#1422=ORIENTED_EDGE('',*,*,#1340,.T.);
#1423=ORIENTED_EDGE('',*,*,#1357,.T.);
#1424=ORIENTED_EDGE('',*,*,#1371,.F.);
#1425=ORIENTED_EDGE('',*,*,#1385,.T.);
#1426=ORIENTED_EDGE('',*,*,#1397,.T.);
#1427=ORIENTED_EDGE('',*,*,#1412,.T.);
#1429=ORIENTED_EDGE('',*,*,#1428,.T.);
#1430=ORIENTED_EDGE('',*,*,#1302,.T.);
#1432=ORIENTED_EDGE('',*,*,#1431,.T.);
#1434=ORIENTED_EDGE('',*,*,#1433,.T.);
#1435=EDGE_LOOP('',(#1422,#1423,#1424,#1425,#1426,#1427,#1429,#1430,#1432,
#1434));
#1436=FACE_OUTER_BOUND('',#1435,.F.);
#1437=ADVANCED_FACE('',(#1436),#1421,.F.);
#1438=CARTESIAN_POINT('',(2.E-1,0.E0,-3.E-1));
#1439=DIRECTION('',(0.E0,0.E0,-1.E0));
#1440=DIRECTION('',(1.E0,0.E0,0.E0));
#1441=AXIS2_PLACEMENT_3D('',#1438,#1439,#1440);
#1442=PLANE('',#1441);
#1443=ORIENTED_EDGE('',*,*,#1428,.F.);
#1444=ORIENTED_EDGE('',*,*,#1229,.T.);
#1446=ORIENTED_EDGE('',*,*,#1445,.F.);
#1447=ORIENTED_EDGE('',*,*,#1275,.F.);
#1448=EDGE_LOOP('',(#1443,#1444,#1446,#1447));
#1449=FACE_OUTER_BOUND('',#1448,.F.);
#1450=ADVANCED_FACE('',(#1449),#1442,.F.);
#1451=CARTESIAN_POINT('',(3.E-1,3.5E-1,-3.039868437071E0));
#1452=DIRECTION('',(-1.E0,0.E0,0.E0));
#1453=DIRECTION('',(0.E0,0.E0,-1.E0));
#1454=AXIS2_PLACEMENT_3D('',#1451,#1452,#1453);
#1455=PLANE('',#1454);
#1456=ORIENTED_EDGE('',*,*,#1227,.F.);
#1458=ORIENTED_EDGE('',*,*,#1457,.F.);
#1459=ORIENTED_EDGE('',*,*,#1277,.T.);
#1460=ORIENTED_EDGE('',*,*,#1445,.T.);
#1461=EDGE_LOOP('',(#1456,#1458,#1459,#1460));
#1462=FACE_OUTER_BOUND('',#1461,.F.);
#1463=ADVANCED_FACE('',(#1462),#1455,.F.);
#1464=CARTESIAN_POINT('',(4.5E-1,3.5E-1,-3.E0));
#1465=DIRECTION('',(0.E0,1.E0,0.E0));
#1466=DIRECTION('',(-1.E0,0.E0,0.E0));
#1467=AXIS2_PLACEMENT_3D('',#1464,#1465,#1466);
#1468=CYLINDRICAL_SURFACE('',#1467,2.5E-1);
#1469=ORIENTED_EDGE('',*,*,#1225,.F.);
#1471=ORIENTED_EDGE('',*,*,#1470,.F.);
#1472=ORIENTED_EDGE('',*,*,#1279,.F.);
#1473=ORIENTED_EDGE('',*,*,#1457,.T.);
#1474=EDGE_LOOP('',(#1469,#1471,#1472,#1473));
#1475=FACE_OUTER_BOUND('',#1474,.F.);
#1476=ADVANCED_FACE('',(#1475),#1468,.F.);
#1477=CARTESIAN_POINT('',(4.5E-1,3.5E-1,-3.E0));
#1478=DIRECTION('',(0.E0,1.E0,0.E0));
#1479=DIRECTION('',(-6.E-1,0.E0,-8.E-1));
#1480=AXIS2_PLACEMENT_3D('',#1477,#1478,#1479);
#1481=CYLINDRICAL_SURFACE('',#1480,2.5E-1);
#1482=ORIENTED_EDGE('',*,*,#1223,.F.);
#1484=ORIENTED_EDGE('',*,*,#1483,.T.);
#1485=ORIENTED_EDGE('',*,*,#1281,.F.);
#1486=ORIENTED_EDGE('',*,*,#1470,.T.);
#1487=EDGE_LOOP('',(#1482,#1484,#1485,#1486));
#1488=FACE_OUTER_BOUND('',#1487,.F.);
#1489=ADVANCED_FACE('',(#1488),#1481,.F.);
#1490=CARTESIAN_POINT('',(3.E-1,3.5E-1,-3.039868437071E0));
#1491=DIRECTION('',(-1.E0,0.E0,0.E0));
#1492=DIRECTION('',(0.E0,0.E0,-1.E0));
#1493=AXIS2_PLACEMENT_3D('',#1490,#1491,#1492);
#1494=PLANE('',#1493);
#1495=ORIENTED_EDGE('',*,*,#1483,.F.);
#1496=ORIENTED_EDGE('',*,*,#1221,.F.);
#1498=ORIENTED_EDGE('',*,*,#1497,.F.);
#1499=ORIENTED_EDGE('',*,*,#1283,.T.);
#1500=EDGE_LOOP('',(#1495,#1496,#1498,#1499));
#1501=FACE_OUTER_BOUND('',#1500,.F.);
#1502=ADVANCED_FACE('',(#1501),#1494,.F.);
#1503=CARTESIAN_POINT('',(3.E-1,3.503841928447E-1,-5.794914756166E0));
#1504=DIRECTION('',(1.E0,0.E0,0.E0));
#1505=DIRECTION('',(0.E0,-1.010562971829E-1,9.948807088288E-1));
#1506=AXIS2_PLACEMENT_3D('',#1503,#1504,#1505);
#1507=PLANE('',#1506);
#1508=ORIENTED_EDGE('',*,*,#868,.T.);
#1510=ORIENTED_EDGE('',*,*,#1509,.T.);
#1511=ORIENTED_EDGE('',*,*,#1497,.T.);
#1512=ORIENTED_EDGE('',*,*,#1160,.T.);
#1513=EDGE_LOOP('',(#1508,#1510,#1511,#1512));
#1514=FACE_OUTER_BOUND('',#1513,.F.);
#1515=ADVANCED_FACE('',(#1514),#1507,.T.);
#1516=CARTESIAN_POINT('',(3.E-1,6.5E-1,-5.779736874143E0));
#1517=DIRECTION('',(-1.E0,0.E0,0.E0));
#1518=DIRECTION('',(0.E0,-9.948807088288E-1,-1.010562971829E-1));
#1519=AXIS2_PLACEMENT_3D('',#1516,#1517,#1518);
#1520=CYLINDRICAL_SURFACE('',#1519,4.E-1);
#1521=ORIENTED_EDGE('',*,*,#945,.F.);
#1522=ORIENTED_EDGE('',*,*,#1176,.F.);
#1523=ORIENTED_EDGE('',*,*,#1285,.T.);
#1524=ORIENTED_EDGE('',*,*,#1509,.F.);
#1525=ORIENTED_EDGE('',*,*,#866,.T.);
#1527=ORIENTED_EDGE('',*,*,#1526,.T.);
#1528=EDGE_LOOP('',(#1521,#1522,#1523,#1524,#1525,#1527));
#1529=FACE_OUTER_BOUND('',#1528,.F.);
#1530=ADVANCED_FACE('',(#1529),#1520,.T.);
#1531=CARTESIAN_POINT('',(3.E-1,2.5E-1,-5.8E0));
#1532=DIRECTION('',(0.E0,-9.948807088288E-1,-1.010562971829E-1));
#1533=DIRECTION('',(0.E0,1.010562971829E-1,-9.948807088288E-1));
#1534=AXIS2_PLACEMENT_3D('',#1531,#1532,#1533);
#1535=PLANE('',#1534);
#1536=ORIENTED_EDGE('',*,*,#947,.T.);
#1537=ORIENTED_EDGE('',*,*,#1526,.F.);
#1538=ORIENTED_EDGE('',*,*,#864,.F.);
#1540=ORIENTED_EDGE('',*,*,#1539,.F.);
#1541=EDGE_LOOP('',(#1536,#1537,#1538,#1540));
#1542=FACE_OUTER_BOUND('',#1541,.F.);
#1543=ADVANCED_FACE('',(#1542),#1535,.T.);
#1544=CARTESIAN_POINT('',(3.E-1,1.016561870791E0,-8.398923814699E0));
#1545=DIRECTION('',(1.E0,0.E0,0.E0));
#1546=DIRECTION('',(0.E0,-1.E0,0.E0));
#1547=AXIS2_PLACEMENT_3D('',#1544,#1545,#1546);
#1548=CYLINDRICAL_SURFACE('',#1547,5.E-1);
#1549=ORIENTED_EDGE('',*,*,#949,.T.);
#1550=ORIENTED_EDGE('',*,*,#1539,.T.);
#1551=ORIENTED_EDGE('',*,*,#862,.F.);
#1553=ORIENTED_EDGE('',*,*,#1552,.F.);
#1554=EDGE_LOOP('',(#1549,#1550,#1551,#1553));
#1555=FACE_OUTER_BOUND('',#1554,.F.);
#1556=ADVANCED_FACE('',(#1555),#1548,.T.);
#1557=CARTESIAN_POINT('',(3.E-1,6.791517699933E-1,-9.233282504879E0));
#1558=DIRECTION('',(1.E0,0.E0,0.E0));
#1559=DIRECTION('',(0.E0,-1.E0,0.E0));
#1560=AXIS2_PLACEMENT_3D('',#1557,#1558,#1559);
#1561=CYLINDRICAL_SURFACE('',#1560,4.E-1);
#1562=ORIENTED_EDGE('',*,*,#951,.F.);
#1563=ORIENTED_EDGE('',*,*,#1552,.T.);
#1564=ORIENTED_EDGE('',*,*,#860,.T.);
#1566=ORIENTED_EDGE('',*,*,#1565,.F.);
#1567=EDGE_LOOP('',(#1562,#1563,#1564,#1566));
#1568=FACE_OUTER_BOUND('',#1567,.F.);
#1569=ADVANCED_FACE('',(#1568),#1561,.F.);
#1570=CARTESIAN_POINT('',(-2.018859813454E-1,9.539413551670E-1,
-8.944032252723E0));
#1571=CARTESIAN_POINT('',(-1.355203006304E-1,9.641751753185E-1,
-8.934995049246E0));
#1572=CARTESIAN_POINT('',(0.E0,9.746406411535E-1,-8.926003669952E0));
#1573=CARTESIAN_POINT('',(1.355203006304E-1,9.641751753185E-1,
-8.934995049246E0));
#1574=CARTESIAN_POINT('',(2.018859813454E-1,9.539413551670E-1,
-8.944032252723E0));
#1575=CARTESIAN_POINT('',(-2.018859813454E-1,9.416807352039E-1,
-8.929233386426E0));
#1576=CARTESIAN_POINT('',(-1.355203006304E-1,9.493727390876E-1,
-8.917187266511E0));
#1577=CARTESIAN_POINT('',(0.E0,9.569410788845E-1,-8.904794704533E0));
#1578=CARTESIAN_POINT('',(1.355203006304E-1,9.493727390876E-1,
-8.917187266511E0));
#1579=CARTESIAN_POINT('',(2.018859813454E-1,9.416807352039E-1,
-8.929233386426E0));
#1580=CARTESIAN_POINT('',(-2.018859813454E-1,9.208426538367E-1,
-8.922384503355E0));
#1581=CARTESIAN_POINT('',(-1.355203006304E-1,9.242443187170E-1,
-8.908897994415E0));
#1582=CARTESIAN_POINT('',(0.E0,9.269008257786E-1,-8.894886285286E0));
#1583=CARTESIAN_POINT('',(1.355203006304E-1,9.242443187170E-1,
-8.908897994415E0));
#1584=CARTESIAN_POINT('',(2.018859813454E-1,9.208426538367E-1,
-8.922384503355E0));
#1585=CARTESIAN_POINT('',(-2.018859813454E-1,9.009883346369E-1,
-8.926763385483E0));
#1586=CARTESIAN_POINT('',(-1.355203006304E-1,9.007624103706E-1,
-8.914190800672E0));
#1587=CARTESIAN_POINT('',(0.E0,8.995911016203E-1,-8.901251130578E0));
#1588=CARTESIAN_POINT('',(1.355203006304E-1,9.007624103706E-1,
-8.914190800672E0));
#1589=CARTESIAN_POINT('',(2.018859813454E-1,9.009883346369E-1,
-8.926763385483E0));
#1590=B_SPLINE_SURFACE_WITH_KNOTS('',3,3,((#1570,#1571,#1572,#1573,#1574),
(#1575,#1576,#1577,#1578,#1579),(#1580,#1581,#1582,#1583,#1584),(#1585,#1586,
#1587,#1588,#1589)),.UNSPECIFIED.,.F.,.F.,.F.,(4,4),(4,1,4),(-3.242669332693E0,
-2.397207593881E0),(-2.032831743745E-1,0.E0,2.032831743745E-1),.UNSPECIFIED.);
#1591=ORIENTED_EDGE('',*,*,#953,.T.);
#1592=ORIENTED_EDGE('',*,*,#1565,.T.);
#1593=ORIENTED_EDGE('',*,*,#858,.T.);
#1595=ORIENTED_EDGE('',*,*,#1594,.F.);
#1596=EDGE_LOOP('',(#1591,#1592,#1593,#1595));
#1597=FACE_OUTER_BOUND('',#1596,.F.);
#1598=ADVANCED_FACE('',(#1597),#1590,.F.);
#1599=CARTESIAN_POINT('',(2.015667760774E-1,9.384898054112E-1,
-8.929434057106E0));
#1600=CARTESIAN_POINT('',(6.812119289281E-2,9.563179748759E-1,
-8.908546023425E0));
#1601=CARTESIAN_POINT('',(-6.812078760139E-2,9.563179926760E-1,
-8.908546002570E0));
#1602=CARTESIAN_POINT('',(-2.015663818394E-1,9.384898580809E-1,
-8.929433995397E0));
#1603=CARTESIAN_POINT('',(2.015667760774E-1,1.103064596284E0,
-9.069900474680E0));
#1604=CARTESIAN_POINT('',(6.812119289281E-2,1.132206444656E0,
-9.058668791996E0));
#1605=CARTESIAN_POINT('',(-6.812078760139E-2,1.132206473753E0,
-9.058668780782E0));
#1606=CARTESIAN_POINT('',(-2.015663818394E-1,1.103064682378E0,
-9.069900441499E0));
#1607=CARTESIAN_POINT('',(2.015667760774E-1,1.130561737103E0,
-9.284515440384E0));
#1608=CARTESIAN_POINT('',(6.812119289281E-2,1.161593873899E0,
-9.288037443837E0));
#1609=CARTESIAN_POINT('',(-6.812078760139E-2,1.161593904883E0,
-9.288037447353E0));
#1610=CARTESIAN_POINT('',(-2.015663818394E-1,1.130561828781E0,
-9.284515450789E0));
#1611=CARTESIAN_POINT('',(2.015667760774E-1,1.006715525319E0,
-9.461935259129E0));
#1612=CARTESIAN_POINT('',(6.812119289281E-2,1.029233865643E0,
-9.477653971754E0));
#1613=CARTESIAN_POINT('',(-6.812078760139E-2,1.029233888125E0,
-9.477653987448E0));
#1614=CARTESIAN_POINT('',(-2.015663818394E-1,1.006715591845E0,
-9.461935305567E0));
#1615=(BOUNDED_SURFACE()B_SPLINE_SURFACE(3,3,((#1599,#1600,#1601,#1602),(#1603,
#1604,#1605,#1606),(#1607,#1608,#1609,#1610),(#1611,#1612,#1613,#1614)),
.UNSPECIFIED.,.F.,.F.,.F.)B_SPLINE_SURFACE_WITH_KNOTS((4,4),(4,4),(0.E0,1.E0),(
0.E0,1.E0),.UNSPECIFIED.)GEOMETRIC_REPRESENTATION_ITEM()RATIONAL_B_SPLINE_SURFACE(((1.160945613258E0,1.145059864673E0,1.145059864673E0,1.160945613258E0),(
9.601768023926E-1,9.470382650607E-1,9.470382650607E-1,9.601768023926E-1),(
9.601768023926E-1,9.470382650607E-1,9.470382650607E-1,9.601768023926E-1),(
1.160945613258E0,1.145059864673E0,1.145059864673E0,1.160945613258E0)))REPRESENTATION_ITEM('')SURFACE());
#1616=ORIENTED_EDGE('',*,*,#955,.T.);
#1617=ORIENTED_EDGE('',*,*,#1594,.T.);
#1618=ORIENTED_EDGE('',*,*,#856,.T.);
#1620=ORIENTED_EDGE('',*,*,#1619,.T.);
#1622=ORIENTED_EDGE('',*,*,#1621,.T.);
#1623=EDGE_LOOP('',(#1616,#1617,#1618,#1620,#1622));
#1624=FACE_OUTER_BOUND('',#1623,.F.);
#1625=ADVANCED_FACE('',(#1624),#1615,.F.);
#1626=CARTESIAN_POINT('',(0.E0,1.105635726577E-1,-9.044583109410E0));
#1627=DIRECTION('',(0.E0,5.425853412448E-1,8.400006830153E-1));
#1628=DIRECTION('',(0.E0,8.400006830153E-1,-5.425853412448E-1));
#1629=AXIS2_PLACEMENT_3D('',#1626,#1627,#1628);
#1630=CYLINDRICAL_SURFACE('',#1629,1.E0);
#1631=ORIENTED_EDGE('',*,*,#957,.T.);
#1632=ORIENTED_EDGE('',*,*,#1621,.F.);
#1633=ORIENTED_EDGE('',*,*,#1619,.F.);
#1634=ORIENTED_EDGE('',*,*,#854,.T.);
#1635=ORIENTED_EDGE('',*,*,#912,.F.);
#1636=ORIENTED_EDGE('',*,*,#910,.F.);
#1637=EDGE_LOOP('',(#1631,#1632,#1633,#1634,#1635,#1636));
#1638=FACE_OUTER_BOUND('',#1637,.F.);
#1639=ADVANCED_FACE('',(#1638),#1630,.F.);
#1640=CARTESIAN_POINT('',(3.E-1,4.676999651250E-2,1.323072600333E-1));
#1641=DIRECTION('',(0.E0,-8.830750087188E-1,-4.692318499168E-1));
#1642=DIRECTION('',(0.E0,4.692318499168E-1,-8.830750087188E-1));
#1643=AXIS2_PLACEMENT_3D('',#1640,#1641,#1642);
#1644=PLANE('',#1643);
#1645=ORIENTED_EDGE('',*,*,#1300,.F.);
#1646=ORIENTED_EDGE('',*,*,#1316,.F.);
#1648=ORIENTED_EDGE('',*,*,#1647,.F.);
#1649=ORIENTED_EDGE('',*,*,#1431,.F.);
#1650=EDGE_LOOP('',(#1645,#1646,#1648,#1649));
#1651=FACE_OUTER_BOUND('',#1650,.F.);
#1652=ADVANCED_FACE('',(#1651),#1644,.T.);
#1653=CARTESIAN_POINT('',(3.E-1,4.E-1,3.2E-1));
#1654=DIRECTION('',(1.E0,0.E0,0.E0));
#1655=DIRECTION('',(0.E0,-1.E0,0.E0));
#1656=AXIS2_PLACEMENT_3D('',#1653,#1654,#1655);
#1657=CYLINDRICAL_SURFACE('',#1656,4.E-1);
#1658=ORIENTED_EDGE('',*,*,#1647,.T.);
#1659=ORIENTED_EDGE('',*,*,#1314,.F.);
#1660=ORIENTED_EDGE('',*,*,#1342,.T.);
#1661=ORIENTED_EDGE('',*,*,#1433,.F.);
#1662=EDGE_LOOP('',(#1658,#1659,#1660,#1661));
#1663=FACE_OUTER_BOUND('',#1662,.F.);
#1664=ADVANCED_FACE('',(#1663),#1657,.T.);
#1665=CLOSED_SHELL('',(#845,#890,#918,#962,#976,#990,#1003,#1018,#1045,#1061,
#1087,#1112,#1125,#1138,#1151,#1166,#1180,#1195,#1210,#1237,#1251,#1265,#1291,
#1306,#1332,#1347,#1361,#1375,#1389,#1403,#1416,#1437,#1450,#1463,#1476,#1489,
#1502,#1515,#1530,#1543,#1556,#1569,#1598,#1625,#1639,#1652,#1664));
#1666=MANIFOLD_SOLID_BREP('',#1665);
#1667=(LENGTH_UNIT()NAMED_UNIT(*)SI_UNIT(.MILLI.,.METRE.));
#1668=DIMENSIONAL_EXPONENTS(0.E0,0.E0,0.E0,0.E0,0.E0,0.E0,0.E0);
#1669=(NAMED_UNIT(*)PLANE_ANGLE_UNIT()SI_UNIT($,.RADIAN.));
#1670=PLANE_ANGLE_MEASURE_WITH_UNIT(PLANE_ANGLE_MEASURE(1.745329251994E-2),
#1669);
#1671=(CONVERSION_BASED_UNIT('DEGREE',#1670)NAMED_UNIT(#1668)PLANE_ANGLE_UNIT(
));
#1672=(NAMED_UNIT(*)SI_UNIT($,.STERADIAN.)SOLID_ANGLE_UNIT());
#1673=UNCERTAINTY_MEASURE_WITH_UNIT(LENGTH_MEASURE(1.203374776752E-3),#1667,
'closure',
'Maximum model space distance between geometric entities at asserted connectivities');
#1674=(GEOMETRIC_REPRESENTATION_CONTEXT(3)GLOBAL_UNCERTAINTY_ASSIGNED_CONTEXT((
#1673))GLOBAL_UNIT_ASSIGNED_CONTEXT((#1667,#1671,#1672))REPRESENTATION_CONTEXT(
'ID1','3'));
#1676=APPLICATION_CONTEXT(
'CONFIGURATION CONTROLLED 3D DESIGNS OF MECHANICAL PARTS AND ASSEMBLIES');
#1677=APPLICATION_PROTOCOL_DEFINITION('international standard',
'config_control_design',1994,#1676);
#1678=DESIGN_CONTEXT('',#1676,'design');
#1679=MECHANICAL_CONTEXT('',#1676,'mechanical');
#1680=PRODUCT('T-DSC20-100X00_1_PRT','T-DSC20-100X00_1_PRT','NOT SPECIFIED',(
#1679));
#1681=PRODUCT_DEFINITION_FORMATION_WITH_SPECIFIED_SOURCE('1','LAST_VERSION',
#1680,.MADE.);
#1685=PRODUCT_CATEGORY('part','');
#1686=PRODUCT_RELATED_PRODUCT_CATEGORY('detail','',(#1680));
#1687=PRODUCT_CATEGORY_RELATIONSHIP('','',#1685,#1686);
#1688=SECURITY_CLASSIFICATION_LEVEL('unclassified');
#1689=SECURITY_CLASSIFICATION('','',#1688);
#1690=CC_DESIGN_SECURITY_CLASSIFICATION(#1689,(#1681));
#1691=APPROVAL_STATUS('approved');
#1692=APPROVAL(#1691,'');
#1693=CC_DESIGN_APPROVAL(#1692,(#1689,#1681,#1682));
#1694=CALENDAR_DATE(108,30,6);
#1695=COORDINATED_UNIVERSAL_TIME_OFFSET(3,0,.BEHIND.);
#1696=LOCAL_TIME(11,3,4.2E1,#1695);
#1697=DATE_AND_TIME(#1694,#1696);
#1698=APPROVAL_DATE_TIME(#1697,#1692);
#1699=DATE_TIME_ROLE('creation_date');
#1700=CC_DESIGN_DATE_AND_TIME_ASSIGNMENT(#1697,#1699,(#1682));
#1701=DATE_TIME_ROLE('classification_date');
#1702=CC_DESIGN_DATE_AND_TIME_ASSIGNMENT(#1697,#1701,(#1689));
#1703=PERSON('UNSPECIFIED','UNSPECIFIED',$,$,$,$);
#1704=ORGANIZATION('UNSPECIFIED','UNSPECIFIED','UNSPECIFIED');
#1705=PERSON_AND_ORGANIZATION(#1703,#1704);
#1706=APPROVAL_ROLE('approver');
#1707=APPROVAL_PERSON_ORGANIZATION(#1705,#1692,#1706);
#1708=PERSON_AND_ORGANIZATION_ROLE('creator');
#1709=CC_DESIGN_PERSON_AND_ORGANIZATION_ASSIGNMENT(#1705,#1708,(#1681,#1682));
#1710=PERSON_AND_ORGANIZATION_ROLE('design_supplier');
#1711=CC_DESIGN_PERSON_AND_ORGANIZATION_ASSIGNMENT(#1705,#1710,(#1681));
#1712=PERSON_AND_ORGANIZATION_ROLE('classification_officer');
#1713=CC_DESIGN_PERSON_AND_ORGANIZATION_ASSIGNMENT(#1705,#1712,(#1689));
#1714=PERSON_AND_ORGANIZATION_ROLE('design_owner');
#1715=CC_DESIGN_PERSON_AND_ORGANIZATION_ASSIGNMENT(#1705,#1714,(#1680));
#9=B_SPLINE_CURVE_WITH_KNOTS('',3,(#1,#2,#3,#4,#5,#6,#7,#8),.UNSPECIFIED.,.F.,
.F.,(4,1,1,1,1,4),(0.E0,2.E-1,4.E-1,6.E-1,8.E-1,1.E0),.UNSPECIFIED.);
#18=B_SPLINE_CURVE_WITH_KNOTS('',3,(#10,#11,#12,#13,#14,#15,#16,#17),
.UNSPECIFIED.,.F.,.F.,(4,1,1,1,1,4),(0.E0,2.E-1,4.E-1,6.E-1,8.E-1,1.E0),
.UNSPECIFIED.);
#32=B_SPLINE_CURVE_WITH_KNOTS('',3,(#27,#28,#29,#30,#31),.UNSPECIFIED.,.F.,.F.,(
4,1,4),(0.E0,5.E-1,1.E0),.UNSPECIFIED.);
#45=B_SPLINE_CURVE_WITH_KNOTS('',3,(#41,#42,#43,#44),.UNSPECIFIED.,.F.,.F.,(4,
4),(0.E0,1.E0),.UNSPECIFIED.);
#56=B_SPLINE_CURVE_WITH_KNOTS('',3,(#50,#51,#52,#53,#54,#55),.UNSPECIFIED.,.F.,
.F.,(4,1,1,4),(0.E0,3.333333333333E-1,6.666666666667E-1,1.E0),.UNSPECIFIED.);
#61=CIRCLE('',#60,9.999999999942E-1);
#66=CIRCLE('',#65,9.999999999942E-1);
#73=B_SPLINE_CURVE_WITH_KNOTS('',3,(#67,#68,#69,#70,#71,#72),.UNSPECIFIED.,.F.,
.F.,(4,1,1,4),(0.E0,3.333333333333E-1,6.666666666667E-1,1.E0),.UNSPECIFIED.);
#88=B_SPLINE_CURVE_WITH_KNOTS('',3,(#74,#75,#76,#77,#78,#79,#80,#81,#82,#83,#84,
#85,#86,#87),.UNSPECIFIED.,.F.,.F.,(4,1,1,1,1,1,1,1,1,1,1,4),(0.E0,
9.090909090909E-2,1.818181818182E-1,2.727272727273E-1,3.636363636364E-1,
4.545454545455E-1,5.454545454545E-1,6.363636363636E-1,7.272727272727E-1,
8.181818181818E-1,9.090909090909E-1,1.E0),.UNSPECIFIED.);
#102=B_SPLINE_CURVE_WITH_KNOTS('',3,(#97,#98,#99,#100,#101),.UNSPECIFIED.,.F.,
.F.,(4,1,4),(0.E0,5.E-1,1.E0),.UNSPECIFIED.);
#109=B_SPLINE_CURVE_WITH_KNOTS('',3,(#103,#104,#105,#106,#107,#108),
.UNSPECIFIED.,.F.,.F.,(4,1,1,4),(0.E0,3.333333333333E-1,6.666666666667E-1,1.E0),
.UNSPECIFIED.);
#114=B_SPLINE_CURVE_WITH_KNOTS('',3,(#110,#111,#112,#113),.UNSPECIFIED.,.F.,.F.,
(4,4),(0.E0,1.E0),.UNSPECIFIED.);
#139=B_SPLINE_CURVE_WITH_KNOTS('',3,(#131,#132,#133,#134,#135,#136,#137,#138),
.UNSPECIFIED.,.F.,.F.,(4,1,1,1,1,4),(0.E0,2.E-1,4.E-1,6.E-1,8.E-1,1.E0),
.UNSPECIFIED.);
#152=B_SPLINE_CURVE_WITH_KNOTS('',3,(#144,#145,#146,#147,#148,#149,#150,#151),
.UNSPECIFIED.,.F.,.F.,(4,1,1,1,1,4),(0.E0,2.E-1,4.E-1,6.E-1,8.E-1,1.E0),
.UNSPECIFIED.);
#159=B_SPLINE_CURVE_WITH_KNOTS('',3,(#153,#154,#155,#156,#157,#158),
.UNSPECIFIED.,.F.,.F.,(4,1,1,4),(0.E0,3.333333333333E-1,6.666666666667E-1,1.E0),
.UNSPECIFIED.);
#172=B_SPLINE_CURVE_WITH_KNOTS('',3,(#160,#161,#162,#163,#164,#165,#166,#167,
#168,#169,#170,#171),.UNSPECIFIED.,.F.,.F.,(4,1,1,1,1,1,1,1,1,4),(0.E0,
1.111111111111E-1,2.222222222222E-1,3.333333333333E-1,4.444444444444E-1,
5.555555555556E-1,6.666666666667E-1,7.777777777778E-1,8.888888888889E-1,1.E0),
.UNSPECIFIED.);
#179=B_SPLINE_CURVE_WITH_KNOTS('',3,(#173,#174,#175,#176,#177,#178),
.UNSPECIFIED.,.F.,.F.,(4,1,1,4),(0.E0,3.333333333333E-1,6.666666666667E-1,1.E0),
.UNSPECIFIED.);
#184=CIRCLE('',#183,1.199999999992E0);
#189=CIRCLE('',#188,1.199999999992E0);
#194=B_SPLINE_CURVE_WITH_KNOTS('',3,(#190,#191,#192,#193),.UNSPECIFIED.,.F.,.F.,
(4,4),(0.E0,1.E0),.UNSPECIFIED.);
#199=B_SPLINE_CURVE_WITH_KNOTS('',3,(#195,#196,#197,#198),.UNSPECIFIED.,.F.,.F.,
(4,4),(0.E0,1.E0),.UNSPECIFIED.);
#210=B_SPLINE_CURVE_WITH_KNOTS('',3,(#200,#201,#202,#203,#204,#205,#206,#207,
#208,#209),.UNSPECIFIED.,.F.,.F.,(4,1,1,1,1,1,1,4),(0.E0,1.428571428571E-1,
2.857142857143E-1,4.285714285714E-1,5.714285714286E-1,7.142857142857E-1,
8.571428571429E-1,1.E0),.UNSPECIFIED.);
#215=CIRCLE('',#214,1.199999999980E0);
#220=CIRCLE('',#219,1.199999999980E0);
#231=B_SPLINE_CURVE_WITH_KNOTS('',3,(#221,#222,#223,#224,#225,#226,#227,#228,
#229,#230),.UNSPECIFIED.,.F.,.F.,(4,1,1,1,1,1,1,4),(0.E0,1.428571428571E-1,
2.857142857143E-1,4.285714285714E-1,5.714285714286E-1,7.142857142857E-1,
8.571428571429E-1,1.E0),.UNSPECIFIED.);
#238=B_SPLINE_CURVE_WITH_KNOTS('',3,(#232,#233,#234,#235,#236,#237),
.UNSPECIFIED.,.F.,.F.,(4,1,1,4),(0.E0,3.333333333333E-1,6.666666666667E-1,1.E0),
.UNSPECIFIED.);
#243=CIRCLE('',#242,1.199999999980E0);
#250=B_SPLINE_CURVE_WITH_KNOTS('',3,(#244,#245,#246,#247,#248,#249),
.UNSPECIFIED.,.F.,.F.,(4,1,1,4),(0.E0,3.333333333333E-1,6.666666666667E-1,1.E0),
.UNSPECIFIED.);
#267=B_SPLINE_CURVE_WITH_KNOTS('',3,(#251,#252,#253,#254,#255,#256,#257,#258,
#259,#260,#261,#262,#263,#264,#265,#266),.UNSPECIFIED.,.F.,.F.,(4,1,1,1,1,1,1,1,
1,1,1,1,1,4),(0.E0,7.692307692308E-2,1.538461538462E-1,2.307692307692E-1,
3.076923076923E-1,3.846153846154E-1,4.615384615385E-1,5.384615384615E-1,
6.153846153846E-1,6.923076923077E-1,7.692307692308E-1,8.461538461538E-1,
9.230769230769E-1,1.E0),.UNSPECIFIED.);
#272=B_SPLINE_CURVE_WITH_KNOTS('',3,(#268,#269,#270,#271),.UNSPECIFIED.,.F.,.F.,
(4,4),(0.E0,1.E0),.UNSPECIFIED.);
#282=B_SPLINE_CURVE_WITH_KNOTS('',3,(#277,#278,#279,#280,#281),.UNSPECIFIED.,
.F.,.F.,(4,1,4),(0.E0,5.E-1,1.E0),.UNSPECIFIED.);
#307=CIRCLE('',#306,2.E-1);
#316=CIRCLE('',#315,4.E-1);
#333=CIRCLE('',#332,2.5E-1);
#342=CIRCLE('',#341,2.5E-1);
#347=CIRCLE('',#346,2.5E-1);
#384=CIRCLE('',#383,2.5E-1);
#389=CIRCLE('',#388,2.5E-1);
#398=CIRCLE('',#397,2.5E-1);
#411=CIRCLE('',#410,4.E-1);
#420=CIRCLE('',#419,2.E-1);
#425=CIRCLE('',#424,4.E-1);
#434=CIRCLE('',#433,2.E-1);
#487=CIRCLE('',#486,2.E-1);
#496=CIRCLE('',#495,4.E-1);
#505=CIRCLE('',#504,2.E-1);
#514=CIRCLE('',#513,4.E-1);
#551=CIRCLE('',#550,4.E-1);
#560=CIRCLE('',#559,2.E-1);
#571=B_SPLINE_CURVE_WITH_KNOTS('',3,(#565,#566,#567,#568,#569,#570),
.UNSPECIFIED.,.F.,.F.,(4,1,1,4),(0.E0,3.333333333333E-1,6.666666666667E-1,1.E0),
.UNSPECIFIED.);
#585=B_SPLINE_CURVE_WITH_KNOTS('',3,(#580,#581,#582,#583,#584),.UNSPECIFIED.,
.F.,.F.,(4,1,4),(0.E0,5.E-1,1.E0),.UNSPECIFIED.);
#598=B_SPLINE_CURVE_WITH_KNOTS('',3,(#594,#595,#596,#597),.UNSPECIFIED.,.F.,.F.,
(4,4),(0.E0,1.E0),.UNSPECIFIED.);
#605=B_SPLINE_CURVE_WITH_KNOTS('',3,(#599,#600,#601,#602,#603,#604),
.UNSPECIFIED.,.F.,.F.,(4,1,1,4),(0.E0,3.333333333333E-1,6.666666666667E-1,1.E0),
.UNSPECIFIED.);
#624=B_SPLINE_CURVE_WITH_KNOTS('',3,(#606,#607,#608,#609,#610,#611,#612,#613,
#614,#615,#616,#617,#618,#619,#620,#621,#622,#623),.UNSPECIFIED.,.F.,.F.,(4,1,1,
1,1,1,1,1,1,1,1,1,1,1,1,4),(0.E0,6.666666666667E-2,1.333333333333E-1,2.E-1,
2.666666666667E-1,3.333333333333E-1,4.E-1,4.666666666667E-1,5.333333333333E-1,
6.E-1,6.666666666667E-1,7.333333333333E-1,8.E-1,8.666666666667E-1,
9.333333333333E-1,1.E0),.UNSPECIFIED.);
#631=B_SPLINE_CURVE_WITH_KNOTS('',3,(#625,#626,#627,#628,#629,#630),
.UNSPECIFIED.,.F.,.F.,(4,1,1,4),(0.E0,3.333333333333E-1,6.666666666667E-1,1.E0),
.UNSPECIFIED.);
#641=B_SPLINE_CURVE_WITH_KNOTS('',3,(#632,#633,#634,#635,#636,#637,#638,#639,
#640),.UNSPECIFIED.,.F.,.F.,(4,1,1,1,1,1,4),(0.E0,1.666666666667E-1,
3.333333333333E-1,5.E-1,6.666666666667E-1,8.333333333333E-1,1.E0),
.UNSPECIFIED.);
#646=CIRCLE('',#645,1.000000000004E0);
#656=B_SPLINE_CURVE_WITH_KNOTS('',3,(#647,#648,#649,#650,#651,#652,#653,#654,
#655),.UNSPECIFIED.,.F.,.F.,(4,1,1,1,1,1,4),(0.E0,1.666666666667E-1,
3.333333333333E-1,5.E-1,6.666666666667E-1,8.333333333333E-1,1.E0),
.UNSPECIFIED.);
#661=CIRCLE('',#660,1.000000000004E0);
#666=CIRCLE('',#665,1.000000000004E0);
#671=B_SPLINE_CURVE_WITH_KNOTS('',3,(#667,#668,#669,#670),.UNSPECIFIED.,.F.,.F.,
(4,4),(0.E0,1.E0),.UNSPECIFIED.);
#676=B_SPLINE_CURVE_WITH_KNOTS('',3,(#672,#673,#674,#675),.UNSPECIFIED.,.F.,.F.,
(4,4),(0.E0,1.E0),.UNSPECIFIED.);
#831=EDGE_CURVE('',#687,#688,#26,.T.);
#833=EDGE_CURVE('',#687,#689,#9,.T.);
#835=EDGE_CURVE('',#691,#689,#118,.T.);
#837=EDGE_CURVE('',#691,#692,#18,.T.);
#839=EDGE_CURVE('',#692,#694,#22,.T.);
#841=EDGE_CURVE('',#688,#694,#88,.T.);
#852=EDGE_CURVE('',#695,#688,#73,.T.);
#854=EDGE_CURVE('',#696,#695,#676,.T.);
#856=EDGE_CURVE('',#697,#696,#656,.T.);
#858=EDGE_CURVE('',#698,#697,#631,.T.);
#860=EDGE_CURVE('',#699,#698,#598,.T.);
#862=EDGE_CURVE('',#699,#700,#32,.T.);
#864=EDGE_CURVE('',#700,#702,#36,.T.);
#866=EDGE_CURVE('',#703,#702,#571,.T.);
#868=EDGE_CURVE('',#705,#703,#546,.T.);
#870=EDGE_CURVE('',#705,#707,#40,.T.);
#872=EDGE_CURVE('',#708,#707,#282,.T.);
#874=EDGE_CURVE('',#708,#709,#45,.T.);
#876=EDGE_CURVE('',#710,#709,#250,.T.);
#878=EDGE_CURVE('',#711,#710,#231,.T.);
#880=EDGE_CURVE('',#712,#711,#199,.T.);
#882=EDGE_CURVE('',#713,#712,#179,.T.);
#884=EDGE_CURVE('',#715,#713,#130,.T.);
#886=EDGE_CURVE('',#715,#687,#49,.T.);
#908=EDGE_CURVE('',#694,#716,#56,.T.);
#910=EDGE_CURVE('',#716,#718,#61,.T.);
#912=EDGE_CURVE('',#718,#695,#66,.T.);
#925=EDGE_CURVE('',#692,#720,#92,.T.);
#927=EDGE_CURVE('',#720,#722,#96,.T.);
#929=EDGE_CURVE('',#723,#722,#159,.T.);
#931=EDGE_CURVE('',#724,#723,#194,.T.);
#933=EDGE_CURVE('',#725,#724,#210,.T.);
#935=EDGE_CURVE('',#726,#725,#238,.T.);
#937=EDGE_CURVE('',#727,#726,#272,.T.);
#939=EDGE_CURVE('',#727,#728,#102,.T.);
#941=EDGE_CURVE('',#730,#728,#290,.T.);
#943=EDGE_CURVE('',#732,#730,#302,.T.);
#945=EDGE_CURVE('',#732,#733,#109,.T.);
#947=EDGE_CURVE('',#735,#733,#579,.T.);
#949=EDGE_CURVE('',#736,#735,#585,.T.);
#951=EDGE_CURVE('',#736,#737,#114,.T.);
#953=EDGE_CURVE('',#738,#737,#605,.T.);
#955=EDGE_CURVE('',#739,#738,#641,.T.);
#957=EDGE_CURVE('',#716,#739,#671,.T.);
#970=EDGE_CURVE('',#741,#691,#126,.T.);
#972=EDGE_CURVE('',#720,#741,#139,.T.);
#983=EDGE_CURVE('',#689,#743,#122,.T.);
#985=EDGE_CURVE('',#741,#743,#143,.T.);
#997=EDGE_CURVE('',#743,#715,#152,.T.);
#1010=EDGE_CURVE('',#722,#713,#172,.T.);
#1039=EDGE_CURVE('',#712,#745,#184,.T.);
#1041=EDGE_CURVE('',#745,#723,#189,.T.);
#1055=EDGE_CURVE('',#747,#711,#220,.T.);
#1057=EDGE_CURVE('',#724,#747,#215,.T.);
#1083=EDGE_CURVE('',#725,#710,#243,.T.);
#1108=EDGE_CURVE('',#709,#726,#267,.T.);
#1121=EDGE_CURVE('',#727,#708,#276,.T.);
#1134=EDGE_CURVE('',#707,#728,#286,.T.);
#1147=EDGE_CURVE('',#730,#705,#294,.T.);
#1157=EDGE_CURVE('',#730,#749,#307,.T.);
#1160=EDGE_CURVE('',#751,#705,#560,.T.);
#1162=EDGE_CURVE('',#751,#749,#298,.T.);
#1174=EDGE_CURVE('',#749,#753,#311,.T.);
#1176=EDGE_CURVE('',#753,#732,#316,.T.);
#1186=EDGE_CURVE('',#756,#757,#328,.T.);
#1188=EDGE_CURVE('',#753,#756,#393,.T.);
#1191=EDGE_CURVE('',#749,#757,#320,.T.);
#1201=EDGE_CURVE('',#760,#757,#333,.T.);
#1203=EDGE_CURVE('',#760,#765,#324,.T.);
#1205=EDGE_CURVE('',#756,#765,#398,.T.);
#1216=EDGE_CURVE('',#760,#761,#359,.T.);
#1221=EDGE_CURVE('',#751,#767,#337,.T.);
#1223=EDGE_CURVE('',#767,#769,#342,.T.);
#1225=EDGE_CURVE('',#769,#771,#347,.T.);
#1227=EDGE_CURVE('',#771,#773,#351,.T.);
#1229=EDGE_CURVE('',#775,#773,#518,.T.);
#1231=EDGE_CURVE('',#777,#775,#474,.T.);
#1233=EDGE_CURVE('',#777,#761,#355,.T.);
#1244=EDGE_CURVE('',#763,#761,#367,.T.);
#1246=EDGE_CURVE('',#765,#763,#375,.T.);
#1257=EDGE_CURVE('',#789,#763,#363,.T.);
#1261=EDGE_CURVE('',#777,#789,#371,.T.);
#1273=EDGE_CURVE('',#791,#789,#402,.T.);
#1275=EDGE_CURVE('',#791,#785,#379,.T.);
#1277=EDGE_CURVE('',#783,#785,#522,.T.);
#1279=EDGE_CURVE('',#783,#787,#384,.T.);
#1281=EDGE_CURVE('',#787,#779,#389,.T.);
#1283=EDGE_CURVE('',#781,#779,#542,.T.);
#1285=EDGE_CURVE('',#753,#781,#564,.T.);
#1298=EDGE_CURVE('',#799,#789,#420,.T.);
#1300=EDGE_CURVE('',#799,#821,#406,.T.);
#1302=EDGE_CURVE('',#791,#821,#505,.T.);
#1312=EDGE_CURVE('',#794,#795,#446,.T.);
#1314=EDGE_CURVE('',#794,#797,#411,.T.);
#1316=EDGE_CURVE('',#797,#799,#415,.T.);
#1320=EDGE_CURVE('',#777,#801,#425,.T.);
#1322=EDGE_CURVE('',#801,#803,#429,.T.);
#1324=EDGE_CURVE('',#803,#805,#434,.T.);
#1326=EDGE_CURVE('',#805,#807,#438,.T.);
#1328=EDGE_CURVE('',#795,#807,#450,.T.);
#1338=EDGE_CURVE('',#795,#809,#442,.T.);
#1340=EDGE_CURVE('',#811,#809,#478,.T.);
#1342=EDGE_CURVE('',#794,#811,#684,.T.);
#1355=EDGE_CURVE('',#807,#813,#454,.T.);
#1357=EDGE_CURVE('',#809,#813,#482,.T.);
#1369=EDGE_CURVE('',#815,#805,#462,.T.);
#1371=EDGE_CURVE('',#815,#813,#458,.T.);
#1383=EDGE_CURVE('',#803,#817,#466,.T.);
#1385=EDGE_CURVE('',#815,#817,#487,.T.);
#1395=EDGE_CURVE('',#819,#801,#470,.T.);
#1397=EDGE_CURVE('',#817,#819,#491,.T.);
#1412=EDGE_CURVE('',#819,#775,#496,.T.);
#1428=EDGE_CURVE('',#775,#791,#500,.T.);
#1431=EDGE_CURVE('',#821,#823,#509,.T.);
#1433=EDGE_CURVE('',#823,#811,#514,.T.);
#1445=EDGE_CURVE('',#785,#773,#526,.T.);
#1457=EDGE_CURVE('',#783,#771,#530,.T.);
#1470=EDGE_CURVE('',#787,#769,#538,.T.);
#1483=EDGE_CURVE('',#767,#779,#534,.T.);
#1497=EDGE_CURVE('',#781,#751,#555,.T.);
#1509=EDGE_CURVE('',#703,#781,#551,.T.);
#1526=EDGE_CURVE('',#702,#733,#575,.T.);
#1539=EDGE_CURVE('',#735,#700,#589,.T.);
#1552=EDGE_CURVE('',#736,#699,#593,.T.);
#1565=EDGE_CURVE('',#737,#698,#624,.T.);
#1594=EDGE_CURVE('',#738,#697,#646,.T.);
#1619=EDGE_CURVE('',#696,#825,#661,.T.);
#1621=EDGE_CURVE('',#825,#739,#666,.T.);
#1647=EDGE_CURVE('',#823,#797,#680,.T.);
#1675=ADVANCED_BREP_SHAPE_REPRESENTATION('',(#1666),#1674);
#1682=PRODUCT_DEFINITION('design','',#1681,#1678);
#1683=PRODUCT_DEFINITION_SHAPE('','SHAPE FOR T-DSC20-100X00_1_PRT.',#1682);
#1684=SHAPE_DEFINITION_REPRESENTATION(#1683,#1675);
ENDSEC;
END-ISO-10303-21;
