ISO-10303-21;
HEADER;
FILE_DESCRIPTION((''),'2;1');
FILE_NAME('VIBRATOR_2113TOP0_PRT','2008-06-30T',('GRA'),(''),
'PRO/ENGINEER BY PARAMETRIC TECHNOLOGY CORPORATION, 2006170',
'PRO/ENGINEER BY PARAMETRIC TECHNOLOGY CORPORATION, 2006170','');
FILE_SCHEMA(('CONFIG_CONTROL_DESIGN'));
ENDSEC;
DATA;
#2=DIRECTION('',(0.E0,-1.E0,0.E0));
#3=VECTOR('',#2,6.E0);
#4=CARTESIAN_POINT('',(-4.25E0,3.E0,-2.65E0));
#5=LINE('',#4,#3);
#6=DIRECTION('',(1.E0,0.E0,0.E0));
#7=VECTOR('',#6,8.9E0);
#8=CARTESIAN_POINT('',(-4.25E0,-3.E0,-2.65E0));
#9=LINE('',#8,#7);
#10=DIRECTION('',(0.E0,1.E0,0.E0));
#11=VECTOR('',#10,6.E0);
#12=CARTESIAN_POINT('',(4.65E0,-3.E0,-2.65E0));
#13=LINE('',#12,#11);
#14=DIRECTION('',(-1.E0,0.E0,0.E0));
#15=VECTOR('',#14,8.9E0);
#16=CARTESIAN_POINT('',(4.65E0,3.E0,-2.65E0));
#17=LINE('',#16,#15);
#18=DIRECTION('',(0.E0,0.E0,1.E0));
#19=VECTOR('',#18,5.3E0);
#20=CARTESIAN_POINT('',(-4.25E0,3.E0,-2.65E0));
#21=LINE('',#20,#19);
#22=CARTESIAN_POINT('',(-4.25E0,-1.E-1,0.E0));
#23=DIRECTION('',(-1.E0,0.E0,0.E0));
#24=DIRECTION('',(0.E0,0.E0,1.E0));
#25=AXIS2_PLACEMENT_3D('',#22,#23,#24);
#27=CARTESIAN_POINT('',(-4.25E0,-1.E-1,0.E0));
#28=DIRECTION('',(-1.E0,0.E0,0.E0));
#29=DIRECTION('',(0.E0,0.E0,-1.E0));
#30=AXIS2_PLACEMENT_3D('',#27,#28,#29);
#32=DIRECTION('',(0.E0,0.E0,1.E0));
#33=VECTOR('',#32,5.3E0);
#34=CARTESIAN_POINT('',(4.65E0,3.E0,-2.65E0));
#35=LINE('',#34,#33);
#36=DIRECTION('',(1.E0,0.E0,0.E0));
#37=VECTOR('',#36,1.265959985642E-1);
#38=CARTESIAN_POINT('',(2.110523347978E0,3.E0,9.5E-1));
#39=LINE('',#38,#37);
#40=DIRECTION('',(0.E0,0.E0,1.E0));
#41=VECTOR('',#40,8.E-1);
#42=CARTESIAN_POINT('',(2.110523347978E0,3.E0,9.5E-1));
#43=LINE('',#42,#41);
#44=DIRECTION('',(1.E0,0.E0,0.E0));
#45=VECTOR('',#44,1.265959985642E-1);
#46=CARTESIAN_POINT('',(2.110523347978E0,3.E0,1.75E0));
#47=LINE('',#46,#45);
#48=DIRECTION('',(0.E0,0.E0,1.E0));
#49=VECTOR('',#48,8.E-1);
#50=CARTESIAN_POINT('',(2.237119346542E0,3.E0,9.5E-1));
#51=LINE('',#50,#49);
#52=DIRECTION('',(1.E0,0.E0,0.E0));
#53=VECTOR('',#52,1.222680402386E-1);
#54=CARTESIAN_POINT('',(2.081409983157E0,3.E0,-9.5E-1));
#55=LINE('',#54,#53);
#56=DIRECTION('',(0.E0,0.E0,-1.E0));
#57=VECTOR('',#56,8.E-1);
#58=CARTESIAN_POINT('',(2.203678023396E0,3.E0,-9.5E-1));
#59=LINE('',#58,#57);
#60=DIRECTION('',(1.E0,0.E0,0.E0));
#61=VECTOR('',#60,1.222680402386E-1);
#62=CARTESIAN_POINT('',(2.081409983157E0,3.E0,-1.75E0));
#63=LINE('',#62,#61);
#64=DIRECTION('',(0.E0,0.E0,-1.E0));
#65=VECTOR('',#64,8.E-1);
#66=CARTESIAN_POINT('',(2.081409983157E0,3.E0,-9.5E-1));
#67=LINE('',#66,#65);
#68=DIRECTION('',(0.E0,0.E0,1.E0));
#69=VECTOR('',#68,5.3E0);
#70=CARTESIAN_POINT('',(4.65E0,-3.E0,-2.65E0));
#71=LINE('',#70,#69);
#72=DIRECTION('',(0.E0,0.E0,1.E0));
#73=VECTOR('',#72,5.3E0);
#74=CARTESIAN_POINT('',(-4.25E0,-3.E0,-2.65E0));
#75=LINE('',#74,#73);
#76=DIRECTION('',(0.E0,-1.E0,0.E0));
#77=VECTOR('',#76,6.E0);
#78=CARTESIAN_POINT('',(-4.25E0,3.E0,2.65E0));
#79=LINE('',#78,#77);
#80=DIRECTION('',(-1.E0,0.E0,0.E0));
#81=VECTOR('',#80,8.9E0);
#82=CARTESIAN_POINT('',(4.65E0,3.E0,2.65E0));
#83=LINE('',#82,#81);
#84=DIRECTION('',(0.E0,1.E0,0.E0));
#85=VECTOR('',#84,6.E0);
#86=CARTESIAN_POINT('',(4.65E0,-3.E0,2.65E0));
#87=LINE('',#86,#85);
#88=DIRECTION('',(1.E0,0.E0,0.E0));
#89=VECTOR('',#88,8.9E0);
#90=CARTESIAN_POINT('',(-4.25E0,-3.E0,2.65E0));
#91=LINE('',#90,#89);
#92=DIRECTION('',(6.132171464734E-1,7.899143822409E-1,0.E0));
#93=VECTOR('',#92,1.346841560996E0);
#94=CARTESIAN_POINT('',(2.237119346542E0,3.E0,9.5E-1));
#95=LINE('',#94,#93);
#96=CARTESIAN_POINT('',(3.3E0,3.879924375688E0,9.5E-1));
#97=DIRECTION('',(0.E0,0.E0,-1.E0));
#98=DIRECTION('',(-7.899143822409E-1,6.132171464734E-1,0.E0));
#99=AXIS2_PLACEMENT_3D('',#96,#97,#98);
#101=DIRECTION('',(7.899143822409E-1,-6.132171464734E-1,0.E0));
#102=VECTOR('',#101,9.554366376640E-1);
#103=CARTESIAN_POINT('',(3.483965143942E0,4.116898690360E0,9.5E-1));
#104=LINE('',#103,#102);
#105=DIRECTION('',(6.132171464735E-1,7.899143822409E-1,0.E0));
#106=VECTOR('',#105,1.E-1);
#107=CARTESIAN_POINT('',(4.238678285353E0,3.531008561776E0,9.5E-1));
#108=LINE('',#107,#106);
#109=DIRECTION('',(-7.899143822409E-1,6.132171464734E-1,0.E0));
#110=VECTOR('',#109,9.554366376640E-1);
#111=CARTESIAN_POINT('',(4.3E0,3.61E0,9.5E-1));
#112=LINE('',#111,#110);
#113=CARTESIAN_POINT('',(3.3E0,3.879924375688E0,9.5E-1));
#114=DIRECTION('',(0.E0,0.E0,1.E0));
#115=DIRECTION('',(6.132171464735E-1,7.899143822409E-1,0.E0));
#116=AXIS2_PLACEMENT_3D('',#113,#114,#115);
#118=DIRECTION('',(-6.132171464734E-1,-7.899143822409E-1,0.E0));
#119=VECTOR('',#118,1.424472397990E0);
#120=CARTESIAN_POINT('',(2.984034247104E0,4.125211234278E0,9.5E-1));
#121=LINE('',#120,#119);
#122=DIRECTION('',(-6.132171464734E-1,-7.899143822409E-1,0.E0));
#123=VECTOR('',#122,1.424472397990E0);
#124=CARTESIAN_POINT('',(2.984034247104E0,4.125211234278E0,1.75E0));
#125=LINE('',#124,#123);
#126=CARTESIAN_POINT('',(3.3E0,3.879924375688E0,1.75E0));
#127=DIRECTION('',(0.E0,0.E0,1.E0));
#128=DIRECTION('',(6.132171464735E-1,7.899143822409E-1,0.E0));
#129=AXIS2_PLACEMENT_3D('',#126,#127,#128);
#131=DIRECTION('',(-7.899143822409E-1,6.132171464734E-1,0.E0));
#132=VECTOR('',#131,9.554366376640E-1);
#133=CARTESIAN_POINT('',(4.3E0,3.61E0,1.75E0));
#134=LINE('',#133,#132);
#135=DIRECTION('',(6.132171464735E-1,7.899143822409E-1,0.E0));
#136=VECTOR('',#135,1.E-1);
#137=CARTESIAN_POINT('',(4.238678285353E0,3.531008561776E0,1.75E0));
#138=LINE('',#137,#136);
#139=DIRECTION('',(7.899143822409E-1,-6.132171464734E-1,0.E0));
#140=VECTOR('',#139,9.554366376640E-1);
#141=CARTESIAN_POINT('',(3.483965143942E0,4.116898690360E0,1.75E0));
#142=LINE('',#141,#140);
#143=CARTESIAN_POINT('',(3.3E0,3.879924375688E0,1.75E0));
#144=DIRECTION('',(0.E0,0.E0,-1.E0));
#145=DIRECTION('',(-7.899143822409E-1,6.132171464734E-1,0.E0));
#146=AXIS2_PLACEMENT_3D('',#143,#144,#145);
#148=DIRECTION('',(6.132171464734E-1,7.899143822409E-1,0.E0));
#149=VECTOR('',#148,1.346841560996E0);
#150=CARTESIAN_POINT('',(2.237119346542E0,3.E0,1.75E0));
#151=LINE('',#150,#149);
#152=DIRECTION('',(0.E0,0.E0,1.E0));
#153=VECTOR('',#152,8.E-1);
#154=CARTESIAN_POINT('',(2.984034247104E0,4.125211234278E0,9.5E-1));
#155=LINE('',#154,#153);
#156=DIRECTION('',(0.E0,0.E0,1.E0));
#157=VECTOR('',#156,8.E-1);
#158=CARTESIAN_POINT('',(3.545286858589E0,4.195890128584E0,9.5E-1));
#159=LINE('',#158,#157);
#160=DIRECTION('',(0.E0,0.E0,1.E0));
#161=VECTOR('',#160,8.E-1);
#162=CARTESIAN_POINT('',(4.3E0,3.61E0,9.5E-1));
#163=LINE('',#162,#161);
#164=DIRECTION('',(0.E0,0.E0,1.E0));
#165=VECTOR('',#164,8.E-1);
#166=CARTESIAN_POINT('',(4.238678285353E0,3.531008561776E0,9.5E-1));
#167=LINE('',#166,#165);
#168=DIRECTION('',(0.E0,0.E0,1.E0));
#169=VECTOR('',#168,8.E-1);
#170=CARTESIAN_POINT('',(3.483965143942E0,4.116898690360E0,9.5E-1));
#171=LINE('',#170,#169);
#172=DIRECTION('',(0.E0,0.E0,1.E0));
#173=VECTOR('',#172,8.E-1);
#174=CARTESIAN_POINT('',(3.063025685328E0,4.063889519630E0,9.5E-1));
#175=LINE('',#174,#173);
#176=DIRECTION('',(-5.753956279336E-1,-8.178752174720E-1,0.E0));
#177=VECTOR('',#176,1.375470878526E0);
#178=CARTESIAN_POINT('',(2.872849913011E0,4.124963543901E0,-9.5E-1));
#179=LINE('',#178,#177);
#180=CARTESIAN_POINT('',(3.2E0,3.894805292728E0,-9.5E-1));
#181=DIRECTION('',(0.E0,0.E0,1.E0));
#182=DIRECTION('',(5.753956279336E-1,8.178752174720E-1,0.E0));
#183=AXIS2_PLACEMENT_3D('',#180,#181,#182);
#185=DIRECTION('',(-8.178752174720E-1,5.753956279336E-1,0.E0));
#186=VECTOR('',#185,1.063538459467E0);
#187=CARTESIAN_POINT('',(4.3E0,3.61E0,-9.5E-1));
#188=LINE('',#187,#186);
#189=DIRECTION('',(5.753956279336E-1,8.178752174720E-1,0.E0));
#190=VECTOR('',#189,1.E-1);
#191=CARTESIAN_POINT('',(4.242460437207E0,3.528212478253E0,-9.5E-1));
#192=LINE('',#191,#190);
#193=DIRECTION('',(8.178752174720E-1,-5.753956279336E-1,0.E0));
#194=VECTOR('',#193,1.063538459467E0);
#195=CARTESIAN_POINT('',(3.372618688380E0,4.140167857969E0,-9.5E-1));
#196=LINE('',#195,#194);
#197=CARTESIAN_POINT('',(3.2E0,3.894805292728E0,-9.5E-1));
#198=DIRECTION('',(0.E0,0.E0,-1.E0));
#199=DIRECTION('',(-8.178752174720E-1,5.753956279336E-1,0.E0));
#200=AXIS2_PLACEMENT_3D('',#197,#198,#199);
#202=DIRECTION('',(5.753956279336E-1,8.178752174720E-1,0.E0));
#203=VECTOR('',#202,1.305118382737E0);
#204=CARTESIAN_POINT('',(2.203678023396E0,3.E0,-9.5E-1));
#205=LINE('',#204,#203);
#206=DIRECTION('',(0.E0,0.E0,-1.E0));
#207=VECTOR('',#206,8.E-1);
#208=CARTESIAN_POINT('',(2.872849913011E0,4.124963543901E0,-9.5E-1));
#209=LINE('',#208,#207);
#210=DIRECTION('',(5.753956279336E-1,8.178752174720E-1,0.E0));
#211=VECTOR('',#210,1.305118382737E0);
#212=CARTESIAN_POINT('',(2.203678023396E0,3.E0,-1.75E0));
#213=LINE('',#212,#211);
#214=CARTESIAN_POINT('',(3.2E0,3.894805292728E0,-1.75E0));
#215=DIRECTION('',(0.E0,0.E0,-1.E0));
#216=DIRECTION('',(-8.178752174720E-1,5.753956279336E-1,0.E0));
#217=AXIS2_PLACEMENT_3D('',#214,#215,#216);
#219=DIRECTION('',(8.178752174720E-1,-5.753956279336E-1,0.E0));
#220=VECTOR('',#219,1.063538459467E0);
#221=CARTESIAN_POINT('',(3.372618688380E0,4.140167857969E0,-1.75E0));
#222=LINE('',#221,#220);
#223=DIRECTION('',(5.753956279336E-1,8.178752174720E-1,0.E0));
#224=VECTOR('',#223,1.E-1);
#225=CARTESIAN_POINT('',(4.242460437207E0,3.528212478253E0,-1.75E0));
#226=LINE('',#225,#224);
#227=DIRECTION('',(-8.178752174720E-1,5.753956279336E-1,0.E0));
#228=VECTOR('',#227,1.063538459467E0);
#229=CARTESIAN_POINT('',(4.3E0,3.61E0,-1.75E0));
#230=LINE('',#229,#228);
#231=CARTESIAN_POINT('',(3.2E0,3.894805292728E0,-1.75E0));
#232=DIRECTION('',(0.E0,0.E0,1.E0));
#233=DIRECTION('',(5.753956279336E-1,8.178752174720E-1,0.E0));
#234=AXIS2_PLACEMENT_3D('',#231,#232,#233);
#236=DIRECTION('',(-5.753956279336E-1,-8.178752174720E-1,0.E0));
#237=VECTOR('',#236,1.375470878526E0);
#238=CARTESIAN_POINT('',(2.872849913011E0,4.124963543901E0,-1.75E0));
#239=LINE('',#238,#237);
#240=DIRECTION('',(0.E0,0.E0,-1.E0));
#241=VECTOR('',#240,8.E-1);
#242=CARTESIAN_POINT('',(2.954637434758E0,4.067423981108E0,-9.5E-1));
#243=LINE('',#242,#241);
#244=DIRECTION('',(0.E0,0.E0,-1.E0));
#245=VECTOR('',#244,8.E-1);
#246=CARTESIAN_POINT('',(3.372618688380E0,4.140167857969E0,-9.5E-1));
#247=LINE('',#246,#245);
#248=DIRECTION('',(0.E0,0.E0,-1.E0));
#249=VECTOR('',#248,8.E-1);
#250=CARTESIAN_POINT('',(4.242460437207E0,3.528212478253E0,-9.5E-1));
#251=LINE('',#250,#249);
#252=DIRECTION('',(0.E0,0.E0,-1.E0));
#253=VECTOR('',#252,8.E-1);
#254=CARTESIAN_POINT('',(4.3E0,3.61E0,-9.5E-1));
#255=LINE('',#254,#253);
#256=DIRECTION('',(0.E0,0.E0,-1.E0));
#257=VECTOR('',#256,8.E-1);
#258=CARTESIAN_POINT('',(3.430158251173E0,4.221955379717E0,-9.5E-1));
#259=LINE('',#258,#257);
#260=DIRECTION('',(-1.E0,0.E0,0.E0));
#261=VECTOR('',#260,2.5E-1);
#262=CARTESIAN_POINT('',(-4.25E0,-1.E-1,2.E0));
#263=LINE('',#262,#261);
#264=DIRECTION('',(-1.E0,0.E0,0.E0));
#265=VECTOR('',#264,2.5E-1);
#266=CARTESIAN_POINT('',(-4.25E0,-1.E-1,-2.E0));
#267=LINE('',#266,#265);
#268=CARTESIAN_POINT('',(-4.5E0,-1.E-1,0.E0));
#269=DIRECTION('',(-1.E0,0.E0,0.E0));
#270=DIRECTION('',(0.E0,0.E0,1.E0));
#271=AXIS2_PLACEMENT_3D('',#268,#269,#270);
#273=CARTESIAN_POINT('',(-4.5E0,-1.E-1,0.E0));
#274=DIRECTION('',(-1.E0,0.E0,0.E0));
#275=DIRECTION('',(0.E0,0.E0,-1.E0));
#276=AXIS2_PLACEMENT_3D('',#273,#274,#275);
#278=CARTESIAN_POINT('',(-4.5E0,-1.E-1,0.E0));
#279=DIRECTION('',(-1.E0,0.E0,0.E0));
#280=DIRECTION('',(0.E0,0.E0,1.E0));
#281=AXIS2_PLACEMENT_3D('',#278,#279,#280);
#283=CARTESIAN_POINT('',(-4.5E0,-1.E-1,0.E0));
#284=DIRECTION('',(-1.E0,0.E0,0.E0));
#285=DIRECTION('',(0.E0,0.E0,-1.E0));
#286=AXIS2_PLACEMENT_3D('',#283,#284,#285);
#288=DIRECTION('',(-1.E0,0.E0,0.E0));
#289=VECTOR('',#288,7.5E-1);
#290=CARTESIAN_POINT('',(-4.5E0,-1.E-1,5.E-1));
#291=LINE('',#290,#289);
#292=CARTESIAN_POINT('',(-5.25E0,-1.E-1,0.E0));
#293=DIRECTION('',(-1.E0,0.E0,0.E0));
#294=DIRECTION('',(0.E0,0.E0,1.E0));
#295=AXIS2_PLACEMENT_3D('',#292,#293,#294);
#297=CARTESIAN_POINT('',(-5.25E0,-1.E-1,0.E0));
#298=DIRECTION('',(-1.E0,0.E0,0.E0));
#299=DIRECTION('',(0.E0,0.E0,-1.E0));
#300=AXIS2_PLACEMENT_3D('',#297,#298,#299);
#302=CARTESIAN_POINT('',(-5.25E0,-1.E-1,0.E0));
#303=DIRECTION('',(-1.E0,0.E0,0.E0));
#304=DIRECTION('',(0.E0,0.E0,1.E0));
#305=AXIS2_PLACEMENT_3D('',#302,#303,#304);
#307=CARTESIAN_POINT('',(-5.25E0,-1.E-1,0.E0));
#308=DIRECTION('',(-1.E0,0.E0,0.E0));
#309=DIRECTION('',(0.E0,0.E0,-1.E0));
#310=AXIS2_PLACEMENT_3D('',#307,#308,#309);
#312=DIRECTION('',(-1.E0,0.E0,0.E0));
#313=VECTOR('',#312,3.E0);
#314=CARTESIAN_POINT('',(-5.25E0,-1.E-1,2.5E0));
#315=LINE('',#314,#313);
#316=DIRECTION('',(-1.E0,0.E0,0.E0));
#317=VECTOR('',#316,3.E0);
#318=CARTESIAN_POINT('',(-5.25E0,-1.E-1,-2.5E0));
#319=LINE('',#318,#317);
#320=CARTESIAN_POINT('',(-8.25E0,-1.E-1,0.E0));
#321=DIRECTION('',(-1.E0,0.E0,0.E0));
#322=DIRECTION('',(0.E0,0.E0,1.E0));
#323=AXIS2_PLACEMENT_3D('',#320,#321,#322);
#325=CARTESIAN_POINT('',(-8.25E0,-1.E-1,0.E0));
#326=DIRECTION('',(-1.E0,0.E0,0.E0));
#327=DIRECTION('',(0.E0,0.E0,-1.E0));
#328=AXIS2_PLACEMENT_3D('',#325,#326,#327);
#330=DIRECTION('',(-1.E0,0.E0,0.E0));
#331=VECTOR('',#330,7.5E-1);
#332=CARTESIAN_POINT('',(-4.5E0,-1.E-1,-5.E-1));
#333=LINE('',#332,#331);
#334=CARTESIAN_POINT('',(-4.25E0,3.E0,-2.65E0));
#335=CARTESIAN_POINT('',(-4.25E0,-3.E0,-2.65E0));
#336=VERTEX_POINT('',#334);
#337=VERTEX_POINT('',#335);
#338=CARTESIAN_POINT('',(4.65E0,-3.E0,-2.65E0));
#339=VERTEX_POINT('',#338);
#340=CARTESIAN_POINT('',(4.65E0,3.E0,-2.65E0));
#341=VERTEX_POINT('',#340);
#342=CARTESIAN_POINT('',(-4.25E0,3.E0,2.65E0));
#343=CARTESIAN_POINT('',(-4.25E0,-3.E0,2.65E0));
#344=VERTEX_POINT('',#342);
#345=VERTEX_POINT('',#343);
#346=CARTESIAN_POINT('',(4.65E0,-3.E0,2.65E0));
#347=VERTEX_POINT('',#346);
#348=CARTESIAN_POINT('',(4.65E0,3.E0,2.65E0));
#349=VERTEX_POINT('',#348);
#350=CARTESIAN_POINT('',(-4.5E0,-1.E-1,2.E0));
#351=CARTESIAN_POINT('',(-4.5E0,-1.E-1,-2.E0));
#352=VERTEX_POINT('',#350);
#353=VERTEX_POINT('',#351);
#354=CARTESIAN_POINT('',(-4.25E0,-1.E-1,2.E0));
#355=CARTESIAN_POINT('',(-4.25E0,-1.E-1,-2.E0));
#356=VERTEX_POINT('',#354);
#357=VERTEX_POINT('',#355);
#358=CARTESIAN_POINT('',(-4.5E0,-1.E-1,5.E-1));
#359=CARTESIAN_POINT('',(-4.5E0,-1.E-1,-5.E-1));
#360=VERTEX_POINT('',#358);
#361=VERTEX_POINT('',#359);
#362=CARTESIAN_POINT('',(-5.25E0,-1.E-1,2.5E0));
#363=CARTESIAN_POINT('',(-5.25E0,-1.E-1,-2.5E0));
#364=VERTEX_POINT('',#362);
#365=VERTEX_POINT('',#363);
#366=CARTESIAN_POINT('',(-8.25E0,-1.E-1,2.5E0));
#367=CARTESIAN_POINT('',(-8.25E0,-1.E-1,-2.5E0));
#368=VERTEX_POINT('',#366);
#369=VERTEX_POINT('',#367);
#370=CARTESIAN_POINT('',(-5.25E0,-1.E-1,5.E-1));
#371=CARTESIAN_POINT('',(-5.25E0,-1.E-1,-5.E-1));
#372=VERTEX_POINT('',#370);
#373=VERTEX_POINT('',#371);
#374=CARTESIAN_POINT('',(4.3E0,3.61E0,9.5E-1));
#375=CARTESIAN_POINT('',(3.545286858589E0,4.195890128584E0,9.5E-1));
#376=VERTEX_POINT('',#374);
#377=VERTEX_POINT('',#375);
#378=CARTESIAN_POINT('',(2.984034247104E0,4.125211234278E0,9.5E-1));
#379=VERTEX_POINT('',#378);
#380=CARTESIAN_POINT('',(3.063025685328E0,4.063889519630E0,9.5E-1));
#381=CARTESIAN_POINT('',(3.483965143942E0,4.116898690360E0,9.5E-1));
#382=VERTEX_POINT('',#380);
#383=VERTEX_POINT('',#381);
#384=CARTESIAN_POINT('',(4.238678285353E0,3.531008561776E0,9.5E-1));
#385=VERTEX_POINT('',#384);
#386=CARTESIAN_POINT('',(4.3E0,3.61E0,1.75E0));
#387=CARTESIAN_POINT('',(3.545286858589E0,4.195890128584E0,1.75E0));
#388=VERTEX_POINT('',#386);
#389=VERTEX_POINT('',#387);
#390=CARTESIAN_POINT('',(2.984034247104E0,4.125211234278E0,1.75E0));
#391=VERTEX_POINT('',#390);
#392=CARTESIAN_POINT('',(3.063025685328E0,4.063889519630E0,1.75E0));
#393=CARTESIAN_POINT('',(3.483965143942E0,4.116898690360E0,1.75E0));
#394=VERTEX_POINT('',#392);
#395=VERTEX_POINT('',#393);
#396=CARTESIAN_POINT('',(4.238678285353E0,3.531008561776E0,1.75E0));
#397=VERTEX_POINT('',#396);
#398=CARTESIAN_POINT('',(2.110523347978E0,3.E0,9.5E-1));
#399=CARTESIAN_POINT('',(2.237119346542E0,3.E0,9.5E-1));
#400=VERTEX_POINT('',#398);
#401=VERTEX_POINT('',#399);
#402=CARTESIAN_POINT('',(2.110523347978E0,3.E0,1.75E0));
#403=CARTESIAN_POINT('',(2.237119346542E0,3.E0,1.75E0));
#404=VERTEX_POINT('',#402);
#405=VERTEX_POINT('',#403);
#406=CARTESIAN_POINT('',(4.3E0,3.61E0,-9.5E-1));
#407=CARTESIAN_POINT('',(3.430158251173E0,4.221955379717E0,-9.5E-1));
#408=VERTEX_POINT('',#406);
#409=VERTEX_POINT('',#407);
#410=CARTESIAN_POINT('',(2.872849913011E0,4.124963543901E0,-9.5E-1));
#411=VERTEX_POINT('',#410);
#412=CARTESIAN_POINT('',(2.954637434758E0,4.067423981108E0,-9.5E-1));
#413=CARTESIAN_POINT('',(3.372618688380E0,4.140167857969E0,-9.5E-1));
#414=VERTEX_POINT('',#412);
#415=VERTEX_POINT('',#413);
#416=CARTESIAN_POINT('',(4.242460437207E0,3.528212478253E0,-9.5E-1));
#417=VERTEX_POINT('',#416);
#418=CARTESIAN_POINT('',(4.3E0,3.61E0,-1.75E0));
#419=CARTESIAN_POINT('',(3.430158251173E0,4.221955379717E0,-1.75E0));
#420=VERTEX_POINT('',#418);
#421=VERTEX_POINT('',#419);
#422=CARTESIAN_POINT('',(2.872849913011E0,4.124963543901E0,-1.75E0));
#423=VERTEX_POINT('',#422);
#424=CARTESIAN_POINT('',(2.954637434758E0,4.067423981108E0,-1.75E0));
#425=CARTESIAN_POINT('',(3.372618688380E0,4.140167857969E0,-1.75E0));
#426=VERTEX_POINT('',#424);
#427=VERTEX_POINT('',#425);
#428=CARTESIAN_POINT('',(4.242460437207E0,3.528212478253E0,-1.75E0));
#429=VERTEX_POINT('',#428);
#430=CARTESIAN_POINT('',(2.081409983157E0,3.E0,-9.5E-1));
#431=CARTESIAN_POINT('',(2.203678023396E0,3.E0,-9.5E-1));
#432=VERTEX_POINT('',#430);
#433=VERTEX_POINT('',#431);
#434=CARTESIAN_POINT('',(2.081409983157E0,3.E0,-1.75E0));
#435=CARTESIAN_POINT('',(2.203678023396E0,3.E0,-1.75E0));
#436=VERTEX_POINT('',#434);
#437=VERTEX_POINT('',#435);
#438=CARTESIAN_POINT('',(0.E0,0.E0,-2.65E0));
#439=DIRECTION('',(0.E0,0.E0,1.E0));
#440=DIRECTION('',(1.E0,0.E0,0.E0));
#441=AXIS2_PLACEMENT_3D('',#438,#439,#440);
#442=PLANE('',#441);
#444=ORIENTED_EDGE('',*,*,#443,.T.);
#446=ORIENTED_EDGE('',*,*,#445,.T.);
#448=ORIENTED_EDGE('',*,*,#447,.T.);
#450=ORIENTED_EDGE('',*,*,#449,.T.);
#451=EDGE_LOOP('',(#444,#446,#448,#450));
#452=FACE_OUTER_BOUND('',#451,.F.);
#453=ADVANCED_FACE('',(#452),#442,.F.);
#454=CARTESIAN_POINT('',(-4.25E0,3.E0,-2.65E0));
#455=DIRECTION('',(-1.E0,0.E0,0.E0));
#456=DIRECTION('',(0.E0,-1.E0,0.E0));
#457=AXIS2_PLACEMENT_3D('',#454,#455,#456);
#458=PLANE('',#457);
#459=ORIENTED_EDGE('',*,*,#443,.F.);
#461=ORIENTED_EDGE('',*,*,#460,.T.);
#463=ORIENTED_EDGE('',*,*,#462,.T.);
#465=ORIENTED_EDGE('',*,*,#464,.F.);
#466=EDGE_LOOP('',(#459,#461,#463,#465));
#467=FACE_OUTER_BOUND('',#466,.F.);
#469=ORIENTED_EDGE('',*,*,#468,.T.);
#471=ORIENTED_EDGE('',*,*,#470,.T.);
#472=EDGE_LOOP('',(#469,#471));
#473=FACE_BOUND('',#472,.F.);
#474=ADVANCED_FACE('',(#467,#473),#458,.T.);
#475=CARTESIAN_POINT('',(4.65E0,3.E0,-2.65E0));
#476=DIRECTION('',(0.E0,1.E0,0.E0));
#477=DIRECTION('',(-1.E0,0.E0,0.E0));
#478=AXIS2_PLACEMENT_3D('',#475,#476,#477);
#479=PLANE('',#478);
#480=ORIENTED_EDGE('',*,*,#449,.F.);
#482=ORIENTED_EDGE('',*,*,#481,.T.);
#484=ORIENTED_EDGE('',*,*,#483,.T.);
#485=ORIENTED_EDGE('',*,*,#460,.F.);
#486=EDGE_LOOP('',(#480,#482,#484,#485));
#487=FACE_OUTER_BOUND('',#486,.F.);
#489=ORIENTED_EDGE('',*,*,#488,.F.);
#491=ORIENTED_EDGE('',*,*,#490,.T.);
#493=ORIENTED_EDGE('',*,*,#492,.T.);
#495=ORIENTED_EDGE('',*,*,#494,.F.);
#496=EDGE_LOOP('',(#489,#491,#493,#495));
#497=FACE_BOUND('',#496,.F.);
#499=ORIENTED_EDGE('',*,*,#498,.T.);
#501=ORIENTED_EDGE('',*,*,#500,.T.);
#503=ORIENTED_EDGE('',*,*,#502,.F.);
#505=ORIENTED_EDGE('',*,*,#504,.F.);
#506=EDGE_LOOP('',(#499,#501,#503,#505));
#507=FACE_BOUND('',#506,.F.);
#508=ADVANCED_FACE('',(#487,#497,#507),#479,.T.);
#509=CARTESIAN_POINT('',(4.65E0,-3.E0,-2.65E0));
#510=DIRECTION('',(1.E0,0.E0,0.E0));
#511=DIRECTION('',(0.E0,1.E0,0.E0));
#512=AXIS2_PLACEMENT_3D('',#509,#510,#511);
#513=PLANE('',#512);
#514=ORIENTED_EDGE('',*,*,#447,.F.);
#516=ORIENTED_EDGE('',*,*,#515,.T.);
#518=ORIENTED_EDGE('',*,*,#517,.T.);
#519=ORIENTED_EDGE('',*,*,#481,.F.);
#520=EDGE_LOOP('',(#514,#516,#518,#519));
#521=FACE_OUTER_BOUND('',#520,.F.);
#522=ADVANCED_FACE('',(#521),#513,.T.);
#523=CARTESIAN_POINT('',(-4.25E0,-3.E0,-2.65E0));
#524=DIRECTION('',(0.E0,-1.E0,0.E0));
#525=DIRECTION('',(1.E0,0.E0,0.E0));
#526=AXIS2_PLACEMENT_3D('',#523,#524,#525);
#527=PLANE('',#526);
#528=ORIENTED_EDGE('',*,*,#445,.F.);
#529=ORIENTED_EDGE('',*,*,#464,.T.);
#531=ORIENTED_EDGE('',*,*,#530,.T.);
#532=ORIENTED_EDGE('',*,*,#515,.F.);
#533=EDGE_LOOP('',(#528,#529,#531,#532));
#534=FACE_OUTER_BOUND('',#533,.F.);
#535=ADVANCED_FACE('',(#534),#527,.T.);
#536=CARTESIAN_POINT('',(0.E0,0.E0,2.65E0));
#537=DIRECTION('',(0.E0,0.E0,1.E0));
#538=DIRECTION('',(1.E0,0.E0,0.E0));
#539=AXIS2_PLACEMENT_3D('',#536,#537,#538);
#540=PLANE('',#539);
#541=ORIENTED_EDGE('',*,*,#462,.F.);
#542=ORIENTED_EDGE('',*,*,#483,.F.);
#543=ORIENTED_EDGE('',*,*,#517,.F.);
#544=ORIENTED_EDGE('',*,*,#530,.F.);
#545=EDGE_LOOP('',(#541,#542,#543,#544));
#546=FACE_OUTER_BOUND('',#545,.F.);
#547=ADVANCED_FACE('',(#546),#540,.T.);
#548=CARTESIAN_POINT('',(0.E0,0.E0,9.5E-1));
#549=DIRECTION('',(0.E0,0.E0,1.E0));
#550=DIRECTION('',(1.E0,0.E0,0.E0));
#551=AXIS2_PLACEMENT_3D('',#548,#549,#550);
#552=PLANE('',#551);
#553=ORIENTED_EDGE('',*,*,#488,.T.);
#555=ORIENTED_EDGE('',*,*,#554,.T.);
#557=ORIENTED_EDGE('',*,*,#556,.T.);
#559=ORIENTED_EDGE('',*,*,#558,.T.);
#561=ORIENTED_EDGE('',*,*,#560,.T.);
#563=ORIENTED_EDGE('',*,*,#562,.T.);
#565=ORIENTED_EDGE('',*,*,#564,.T.);
#567=ORIENTED_EDGE('',*,*,#566,.T.);
#568=EDGE_LOOP('',(#553,#555,#557,#559,#561,#563,#565,#567));
#569=FACE_OUTER_BOUND('',#568,.F.);
#570=ADVANCED_FACE('',(#569),#552,.F.);
#571=CARTESIAN_POINT('',(1.878991438224E0,2.538678285353E0,9.5E-1));
#572=DIRECTION('',(7.899143822409E-1,-6.132171464734E-1,0.E0));
#573=DIRECTION('',(6.132171464734E-1,7.899143822409E-1,0.E0));
#574=AXIS2_PLACEMENT_3D('',#571,#572,#573);
#575=PLANE('',#574);
#576=ORIENTED_EDGE('',*,*,#494,.T.);
#578=ORIENTED_EDGE('',*,*,#577,.T.);
#580=ORIENTED_EDGE('',*,*,#579,.F.);
#581=ORIENTED_EDGE('',*,*,#554,.F.);
#582=EDGE_LOOP('',(#576,#578,#580,#581));
#583=FACE_OUTER_BOUND('',#582,.F.);
#584=ADVANCED_FACE('',(#583),#575,.T.);
#585=CARTESIAN_POINT('',(0.E0,0.E0,1.75E0));
#586=DIRECTION('',(0.E0,0.E0,1.E0));
#587=DIRECTION('',(1.E0,0.E0,0.E0));
#588=AXIS2_PLACEMENT_3D('',#585,#586,#587);
#589=PLANE('',#588);
#590=ORIENTED_EDGE('',*,*,#492,.F.);
#592=ORIENTED_EDGE('',*,*,#591,.F.);
#594=ORIENTED_EDGE('',*,*,#593,.F.);
#596=ORIENTED_EDGE('',*,*,#595,.F.);
#598=ORIENTED_EDGE('',*,*,#597,.F.);
#600=ORIENTED_EDGE('',*,*,#599,.F.);
#602=ORIENTED_EDGE('',*,*,#601,.F.);
#603=ORIENTED_EDGE('',*,*,#577,.F.);
#604=EDGE_LOOP('',(#590,#592,#594,#596,#598,#600,#602,#603));
#605=FACE_OUTER_BOUND('',#604,.F.);
#606=ADVANCED_FACE('',(#605),#589,.T.);
#607=CARTESIAN_POINT('',(2.984034247104E0,4.125211234278E0,9.5E-1));
#608=DIRECTION('',(-7.899143822409E-1,6.132171464734E-1,0.E0));
#609=DIRECTION('',(-6.132171464734E-1,-7.899143822409E-1,0.E0));
#610=AXIS2_PLACEMENT_3D('',#607,#608,#609);
#611=PLANE('',#610);
#612=ORIENTED_EDGE('',*,*,#490,.F.);
#613=ORIENTED_EDGE('',*,*,#566,.F.);
#615=ORIENTED_EDGE('',*,*,#614,.T.);
#616=ORIENTED_EDGE('',*,*,#591,.T.);
#617=EDGE_LOOP('',(#612,#613,#615,#616));
#618=FACE_OUTER_BOUND('',#617,.F.);
#619=ADVANCED_FACE('',(#618),#611,.T.);
#620=CARTESIAN_POINT('',(3.3E0,3.879924375688E0,9.5E-1));
#621=DIRECTION('',(0.E0,0.E0,1.E0));
#622=DIRECTION('',(1.E0,0.E0,0.E0));
#623=AXIS2_PLACEMENT_3D('',#620,#621,#622);
#624=CYLINDRICAL_SURFACE('',#623,4.E-1);
#625=ORIENTED_EDGE('',*,*,#564,.F.);
#627=ORIENTED_EDGE('',*,*,#626,.T.);
#628=ORIENTED_EDGE('',*,*,#593,.T.);
#629=ORIENTED_EDGE('',*,*,#614,.F.);
#630=EDGE_LOOP('',(#625,#627,#628,#629));
#631=FACE_OUTER_BOUND('',#630,.F.);
#632=ADVANCED_FACE('',(#631),#624,.T.);
#633=CARTESIAN_POINT('',(4.3E0,3.61E0,9.5E-1));
#634=DIRECTION('',(6.132171464734E-1,7.899143822409E-1,0.E0));
#635=DIRECTION('',(-7.899143822409E-1,6.132171464734E-1,0.E0));
#636=AXIS2_PLACEMENT_3D('',#633,#634,#635);
#637=PLANE('',#636);
#638=ORIENTED_EDGE('',*,*,#562,.F.);
#640=ORIENTED_EDGE('',*,*,#639,.T.);
#641=ORIENTED_EDGE('',*,*,#595,.T.);
#642=ORIENTED_EDGE('',*,*,#626,.F.);
#643=EDGE_LOOP('',(#638,#640,#641,#642));
#644=FACE_OUTER_BOUND('',#643,.F.);
#645=ADVANCED_FACE('',(#644),#637,.T.);
#646=CARTESIAN_POINT('',(4.238678285353E0,3.531008561776E0,9.5E-1));
#647=DIRECTION('',(7.899143822409E-1,-6.132171464735E-1,0.E0));
#648=DIRECTION('',(6.132171464735E-1,7.899143822409E-1,0.E0));
#649=AXIS2_PLACEMENT_3D('',#646,#647,#648);
#650=PLANE('',#649);
#651=ORIENTED_EDGE('',*,*,#560,.F.);
#653=ORIENTED_EDGE('',*,*,#652,.T.);
#654=ORIENTED_EDGE('',*,*,#597,.T.);
#655=ORIENTED_EDGE('',*,*,#639,.F.);
#656=EDGE_LOOP('',(#651,#653,#654,#655));
#657=FACE_OUTER_BOUND('',#656,.F.);
#658=ADVANCED_FACE('',(#657),#650,.T.);
#659=CARTESIAN_POINT('',(3.483965143942E0,4.116898690360E0,9.5E-1));
#660=DIRECTION('',(-6.132171464734E-1,-7.899143822409E-1,0.E0));
#661=DIRECTION('',(7.899143822409E-1,-6.132171464734E-1,0.E0));
#662=AXIS2_PLACEMENT_3D('',#659,#660,#661);
#663=PLANE('',#662);
#664=ORIENTED_EDGE('',*,*,#558,.F.);
#666=ORIENTED_EDGE('',*,*,#665,.T.);
#667=ORIENTED_EDGE('',*,*,#599,.T.);
#668=ORIENTED_EDGE('',*,*,#652,.F.);
#669=EDGE_LOOP('',(#664,#666,#667,#668));
#670=FACE_OUTER_BOUND('',#669,.F.);
#671=ADVANCED_FACE('',(#670),#663,.T.);
#672=CARTESIAN_POINT('',(3.3E0,3.879924375688E0,9.5E-1));
#673=DIRECTION('',(0.E0,0.E0,1.E0));
#674=DIRECTION('',(1.E0,0.E0,0.E0));
#675=AXIS2_PLACEMENT_3D('',#672,#673,#674);
#676=CYLINDRICAL_SURFACE('',#675,3.E-1);
#677=ORIENTED_EDGE('',*,*,#556,.F.);
#678=ORIENTED_EDGE('',*,*,#579,.T.);
#679=ORIENTED_EDGE('',*,*,#601,.T.);
#680=ORIENTED_EDGE('',*,*,#665,.F.);
#681=EDGE_LOOP('',(#677,#678,#679,#680));
#682=FACE_OUTER_BOUND('',#681,.F.);
#683=ADVANCED_FACE('',(#682),#676,.F.);
#684=CARTESIAN_POINT('',(0.E0,0.E0,-9.5E-1));
#685=DIRECTION('',(0.E0,0.E0,1.E0));
#686=DIRECTION('',(1.E0,0.E0,0.E0));
#687=AXIS2_PLACEMENT_3D('',#684,#685,#686);
#688=PLANE('',#687);
#689=ORIENTED_EDGE('',*,*,#498,.F.);
#691=ORIENTED_EDGE('',*,*,#690,.F.);
#693=ORIENTED_EDGE('',*,*,#692,.F.);
#695=ORIENTED_EDGE('',*,*,#694,.F.);
#697=ORIENTED_EDGE('',*,*,#696,.F.);
#699=ORIENTED_EDGE('',*,*,#698,.F.);
#701=ORIENTED_EDGE('',*,*,#700,.F.);
#703=ORIENTED_EDGE('',*,*,#702,.F.);
#704=EDGE_LOOP('',(#689,#691,#693,#695,#697,#699,#701,#703));
#705=FACE_OUTER_BOUND('',#704,.F.);
#706=ADVANCED_FACE('',(#705),#688,.T.);
#707=CARTESIAN_POINT('',(2.872849913011E0,4.124963543901E0,-9.5E-1));
#708=DIRECTION('',(8.178752174720E-1,-5.753956279336E-1,0.E0));
#709=DIRECTION('',(-5.753956279336E-1,-8.178752174720E-1,0.E0));
#710=AXIS2_PLACEMENT_3D('',#707,#708,#709);
#711=PLANE('',#710);
#712=ORIENTED_EDGE('',*,*,#504,.T.);
#714=ORIENTED_EDGE('',*,*,#713,.F.);
#716=ORIENTED_EDGE('',*,*,#715,.F.);
#717=ORIENTED_EDGE('',*,*,#690,.T.);
#718=EDGE_LOOP('',(#712,#714,#716,#717));
#719=FACE_OUTER_BOUND('',#718,.F.);
#720=ADVANCED_FACE('',(#719),#711,.F.);
#721=CARTESIAN_POINT('',(0.E0,0.E0,-1.75E0));
#722=DIRECTION('',(0.E0,0.E0,1.E0));
#723=DIRECTION('',(1.E0,0.E0,0.E0));
#724=AXIS2_PLACEMENT_3D('',#721,#722,#723);
#725=PLANE('',#724);
#726=ORIENTED_EDGE('',*,*,#502,.T.);
#728=ORIENTED_EDGE('',*,*,#727,.T.);
#730=ORIENTED_EDGE('',*,*,#729,.T.);
#732=ORIENTED_EDGE('',*,*,#731,.T.);
#734=ORIENTED_EDGE('',*,*,#733,.T.);
#736=ORIENTED_EDGE('',*,*,#735,.T.);
#738=ORIENTED_EDGE('',*,*,#737,.T.);
#739=ORIENTED_EDGE('',*,*,#713,.T.);
#740=EDGE_LOOP('',(#726,#728,#730,#732,#734,#736,#738,#739));
#741=FACE_OUTER_BOUND('',#740,.F.);
#742=ADVANCED_FACE('',(#741),#725,.F.);
#743=CARTESIAN_POINT('',(1.881787521747E0,2.542460437207E0,-9.5E-1));
#744=DIRECTION('',(-8.178752174720E-1,5.753956279336E-1,0.E0));
#745=DIRECTION('',(5.753956279336E-1,8.178752174720E-1,0.E0));
#746=AXIS2_PLACEMENT_3D('',#743,#744,#745);
#747=PLANE('',#746);
#748=ORIENTED_EDGE('',*,*,#500,.F.);
#749=ORIENTED_EDGE('',*,*,#702,.T.);
#751=ORIENTED_EDGE('',*,*,#750,.T.);
#752=ORIENTED_EDGE('',*,*,#727,.F.);
#753=EDGE_LOOP('',(#748,#749,#751,#752));
#754=FACE_OUTER_BOUND('',#753,.F.);
#755=ADVANCED_FACE('',(#754),#747,.F.);
#756=CARTESIAN_POINT('',(3.2E0,3.894805292728E0,-9.5E-1));
#757=DIRECTION('',(0.E0,0.E0,1.E0));
#758=DIRECTION('',(1.E0,0.E0,0.E0));
#759=AXIS2_PLACEMENT_3D('',#756,#757,#758);
#760=CYLINDRICAL_SURFACE('',#759,3.E-1);
#761=ORIENTED_EDGE('',*,*,#700,.T.);
#763=ORIENTED_EDGE('',*,*,#762,.T.);
#764=ORIENTED_EDGE('',*,*,#729,.F.);
#765=ORIENTED_EDGE('',*,*,#750,.F.);
#766=EDGE_LOOP('',(#761,#763,#764,#765));
#767=FACE_OUTER_BOUND('',#766,.F.);
#768=ADVANCED_FACE('',(#767),#760,.F.);
#769=CARTESIAN_POINT('',(3.372618688380E0,4.140167857969E0,-9.5E-1));
#770=DIRECTION('',(5.753956279336E-1,8.178752174720E-1,0.E0));
#771=DIRECTION('',(8.178752174720E-1,-5.753956279336E-1,0.E0));
#772=AXIS2_PLACEMENT_3D('',#769,#770,#771);
#773=PLANE('',#772);
#774=ORIENTED_EDGE('',*,*,#698,.T.);
#776=ORIENTED_EDGE('',*,*,#775,.T.);
#777=ORIENTED_EDGE('',*,*,#731,.F.);
#778=ORIENTED_EDGE('',*,*,#762,.F.);
#779=EDGE_LOOP('',(#774,#776,#777,#778));
#780=FACE_OUTER_BOUND('',#779,.F.);
#781=ADVANCED_FACE('',(#780),#773,.F.);
#782=CARTESIAN_POINT('',(4.242460437207E0,3.528212478253E0,-9.5E-1));
#783=DIRECTION('',(-8.178752174720E-1,5.753956279336E-1,0.E0));
#784=DIRECTION('',(5.753956279336E-1,8.178752174720E-1,0.E0));
#785=AXIS2_PLACEMENT_3D('',#782,#783,#784);
#786=PLANE('',#785);
#787=ORIENTED_EDGE('',*,*,#696,.T.);
#789=ORIENTED_EDGE('',*,*,#788,.T.);
#790=ORIENTED_EDGE('',*,*,#733,.F.);
#791=ORIENTED_EDGE('',*,*,#775,.F.);
#792=EDGE_LOOP('',(#787,#789,#790,#791));
#793=FACE_OUTER_BOUND('',#792,.F.);
#794=ADVANCED_FACE('',(#793),#786,.F.);
#795=CARTESIAN_POINT('',(4.3E0,3.61E0,-9.5E-1));
#796=DIRECTION('',(-5.753956279336E-1,-8.178752174720E-1,0.E0));
#797=DIRECTION('',(-8.178752174720E-1,5.753956279336E-1,0.E0));
#798=AXIS2_PLACEMENT_3D('',#795,#796,#797);
#799=PLANE('',#798);
#800=ORIENTED_EDGE('',*,*,#694,.T.);
#802=ORIENTED_EDGE('',*,*,#801,.T.);
#803=ORIENTED_EDGE('',*,*,#735,.F.);
#804=ORIENTED_EDGE('',*,*,#788,.F.);
#805=EDGE_LOOP('',(#800,#802,#803,#804));
#806=FACE_OUTER_BOUND('',#805,.F.);
#807=ADVANCED_FACE('',(#806),#799,.F.);
#808=CARTESIAN_POINT('',(3.2E0,3.894805292728E0,-9.5E-1));
#809=DIRECTION('',(0.E0,0.E0,1.E0));
#810=DIRECTION('',(1.E0,0.E0,0.E0));
#811=AXIS2_PLACEMENT_3D('',#808,#809,#810);
#812=CYLINDRICAL_SURFACE('',#811,4.E-1);
#813=ORIENTED_EDGE('',*,*,#692,.T.);
#814=ORIENTED_EDGE('',*,*,#715,.T.);
#815=ORIENTED_EDGE('',*,*,#737,.F.);
#816=ORIENTED_EDGE('',*,*,#801,.F.);
#817=EDGE_LOOP('',(#813,#814,#815,#816));
#818=FACE_OUTER_BOUND('',#817,.F.);
#819=ADVANCED_FACE('',(#818),#812,.T.);
#820=CARTESIAN_POINT('',(-4.25E0,-1.E-1,0.E0));
#821=DIRECTION('',(-1.E0,0.E0,0.E0));
#822=DIRECTION('',(0.E0,0.E0,1.E0));
#823=AXIS2_PLACEMENT_3D('',#820,#821,#822);
#824=CYLINDRICAL_SURFACE('',#823,2.E0);
#825=ORIENTED_EDGE('',*,*,#468,.F.);
#827=ORIENTED_EDGE('',*,*,#826,.T.);
#829=ORIENTED_EDGE('',*,*,#828,.T.);
#831=ORIENTED_EDGE('',*,*,#830,.F.);
#832=EDGE_LOOP('',(#825,#827,#829,#831));
#833=FACE_OUTER_BOUND('',#832,.F.);
#834=ADVANCED_FACE('',(#833),#824,.T.);
#835=CARTESIAN_POINT('',(-4.25E0,-1.E-1,0.E0));
#836=DIRECTION('',(-1.E0,0.E0,0.E0));
#837=DIRECTION('',(0.E0,0.E0,1.E0));
#838=AXIS2_PLACEMENT_3D('',#835,#836,#837);
#839=CYLINDRICAL_SURFACE('',#838,2.E0);
#840=ORIENTED_EDGE('',*,*,#470,.F.);
#841=ORIENTED_EDGE('',*,*,#830,.T.);
#843=ORIENTED_EDGE('',*,*,#842,.T.);
#844=ORIENTED_EDGE('',*,*,#826,.F.);
#845=EDGE_LOOP('',(#840,#841,#843,#844));
#846=FACE_OUTER_BOUND('',#845,.F.);
#847=ADVANCED_FACE('',(#846),#839,.T.);
#848=CARTESIAN_POINT('',(-4.5E0,0.E0,-2.65E0));
#849=DIRECTION('',(-1.E0,0.E0,0.E0));
#850=DIRECTION('',(0.E0,0.E0,1.E0));
#851=AXIS2_PLACEMENT_3D('',#848,#849,#850);
#852=PLANE('',#851);
#853=ORIENTED_EDGE('',*,*,#828,.F.);
#854=ORIENTED_EDGE('',*,*,#842,.F.);
#855=EDGE_LOOP('',(#853,#854));
#856=FACE_OUTER_BOUND('',#855,.F.);
#858=ORIENTED_EDGE('',*,*,#857,.T.);
#860=ORIENTED_EDGE('',*,*,#859,.T.);
#861=EDGE_LOOP('',(#858,#860));
#862=FACE_BOUND('',#861,.F.);
#863=ADVANCED_FACE('',(#856,#862),#852,.T.);
#864=CARTESIAN_POINT('',(-4.5E0,-1.E-1,0.E0));
#865=DIRECTION('',(-1.E0,0.E0,0.E0));
#866=DIRECTION('',(0.E0,0.E0,1.E0));
#867=AXIS2_PLACEMENT_3D('',#864,#865,#866);
#868=CYLINDRICAL_SURFACE('',#867,5.E-1);
#870=ORIENTED_EDGE('',*,*,#869,.T.);
#872=ORIENTED_EDGE('',*,*,#871,.F.);
#873=ORIENTED_EDGE('',*,*,#857,.F.);
#875=ORIENTED_EDGE('',*,*,#874,.T.);
#876=EDGE_LOOP('',(#870,#872,#873,#875));
#877=FACE_OUTER_BOUND('',#876,.F.);
#878=ADVANCED_FACE('',(#877),#868,.T.);
#879=CARTESIAN_POINT('',(-5.25E0,0.E0,-2.65E0));
#880=DIRECTION('',(-1.E0,0.E0,0.E0));
#881=DIRECTION('',(0.E0,0.E0,1.E0));
#882=AXIS2_PLACEMENT_3D('',#879,#880,#881);
#883=PLANE('',#882);
#885=ORIENTED_EDGE('',*,*,#884,.T.);
#887=ORIENTED_EDGE('',*,*,#886,.T.);
#888=EDGE_LOOP('',(#885,#887));
#889=FACE_OUTER_BOUND('',#888,.F.);
#890=ORIENTED_EDGE('',*,*,#869,.F.);
#892=ORIENTED_EDGE('',*,*,#891,.F.);
#893=EDGE_LOOP('',(#890,#892));
#894=FACE_BOUND('',#893,.F.);
#895=ADVANCED_FACE('',(#889,#894),#883,.F.);
#896=CARTESIAN_POINT('',(-5.25E0,-1.E-1,0.E0));
#897=DIRECTION('',(-1.E0,0.E0,0.E0));
#898=DIRECTION('',(0.E0,0.E0,1.E0));
#899=AXIS2_PLACEMENT_3D('',#896,#897,#898);
#900=CYLINDRICAL_SURFACE('',#899,2.5E0);
#901=ORIENTED_EDGE('',*,*,#884,.F.);
#903=ORIENTED_EDGE('',*,*,#902,.T.);
#905=ORIENTED_EDGE('',*,*,#904,.T.);
#907=ORIENTED_EDGE('',*,*,#906,.F.);
#908=EDGE_LOOP('',(#901,#903,#905,#907));
#909=FACE_OUTER_BOUND('',#908,.F.);
#910=ADVANCED_FACE('',(#909),#900,.T.);
#911=CARTESIAN_POINT('',(-5.25E0,-1.E-1,0.E0));
#912=DIRECTION('',(-1.E0,0.E0,0.E0));
#913=DIRECTION('',(0.E0,0.E0,1.E0));
#914=AXIS2_PLACEMENT_3D('',#911,#912,#913);
#915=CYLINDRICAL_SURFACE('',#914,2.5E0);
#916=ORIENTED_EDGE('',*,*,#886,.F.);
#917=ORIENTED_EDGE('',*,*,#906,.T.);
#919=ORIENTED_EDGE('',*,*,#918,.T.);
#920=ORIENTED_EDGE('',*,*,#902,.F.);
#921=EDGE_LOOP('',(#916,#917,#919,#920));
#922=FACE_OUTER_BOUND('',#921,.F.);
#923=ADVANCED_FACE('',(#922),#915,.T.);
#924=CARTESIAN_POINT('',(-8.25E0,0.E0,-2.65E0));
#925=DIRECTION('',(-1.E0,0.E0,0.E0));
#926=DIRECTION('',(0.E0,0.E0,1.E0));
#927=AXIS2_PLACEMENT_3D('',#924,#925,#926);
#928=PLANE('',#927);
#929=ORIENTED_EDGE('',*,*,#904,.F.);
#930=ORIENTED_EDGE('',*,*,#918,.F.);
#931=EDGE_LOOP('',(#929,#930));
#932=FACE_OUTER_BOUND('',#931,.F.);
#933=ADVANCED_FACE('',(#932),#928,.T.);
#934=CARTESIAN_POINT('',(-4.5E0,-1.E-1,0.E0));
#935=DIRECTION('',(-1.E0,0.E0,0.E0));
#936=DIRECTION('',(0.E0,0.E0,1.E0));
#937=AXIS2_PLACEMENT_3D('',#934,#935,#936);
#938=CYLINDRICAL_SURFACE('',#937,5.E-1);
#939=ORIENTED_EDGE('',*,*,#891,.T.);
#940=ORIENTED_EDGE('',*,*,#874,.F.);
#941=ORIENTED_EDGE('',*,*,#859,.F.);
#942=ORIENTED_EDGE('',*,*,#871,.T.);
#943=EDGE_LOOP('',(#939,#940,#941,#942));
#944=FACE_OUTER_BOUND('',#943,.F.);
#945=ADVANCED_FACE('',(#944),#938,.T.);
#946=CLOSED_SHELL('',(#453,#474,#508,#522,#535,#547,#570,#584,#606,#619,#632,
#645,#658,#671,#683,#706,#720,#742,#755,#768,#781,#794,#807,#819,#834,#847,#863,
#878,#895,#910,#923,#933,#945));
#947=MANIFOLD_SOLID_BREP('',#946);
#948=(LENGTH_UNIT()NAMED_UNIT(*)SI_UNIT(.MILLI.,.METRE.));
#949=DIMENSIONAL_EXPONENTS(0.E0,0.E0,0.E0,0.E0,0.E0,0.E0,0.E0);
#950=(NAMED_UNIT(*)PLANE_ANGLE_UNIT()SI_UNIT($,.RADIAN.));
#951=PLANE_ANGLE_MEASURE_WITH_UNIT(PLANE_ANGLE_MEASURE(1.745329251994E-2),#950);
#952=(CONVERSION_BASED_UNIT('DEGREE',#951)NAMED_UNIT(#949)PLANE_ANGLE_UNIT());
#953=(NAMED_UNIT(*)SI_UNIT($,.STERADIAN.)SOLID_ANGLE_UNIT());
#954=UNCERTAINTY_MEASURE_WITH_UNIT(LENGTH_MEASURE(1.644059970918E-3),#948,
'closure',
'Maximum model space distance between geometric entities at asserted connectivities');
#955=(GEOMETRIC_REPRESENTATION_CONTEXT(3)GLOBAL_UNCERTAINTY_ASSIGNED_CONTEXT((
#954))GLOBAL_UNIT_ASSIGNED_CONTEXT((#948,#952,#953))REPRESENTATION_CONTEXT
('ID1','3'));
#957=APPLICATION_CONTEXT(
'CONFIGURATION CONTROLLED 3D DESIGNS OF MECHANICAL PARTS AND ASSEMBLIES');
#958=APPLICATION_PROTOCOL_DEFINITION('international standard',
'config_control_design',1994,#957);
#959=DESIGN_CONTEXT('',#957,'design');
#960=MECHANICAL_CONTEXT('',#957,'mechanical');
#961=PRODUCT('VIBRATOR_2113TOP0_PRT','VIBRATOR_2113TOP0_PRT','NOT SPECIFIED',(
#960));
#962=PRODUCT_DEFINITION_FORMATION_WITH_SPECIFIED_SOURCE('1','LAST_VERSION',#961,
.MADE.);
#966=PRODUCT_CATEGORY('part','');
#967=PRODUCT_RELATED_PRODUCT_CATEGORY('detail','',(#961));
#968=PRODUCT_CATEGORY_RELATIONSHIP('','',#966,#967);
#969=SECURITY_CLASSIFICATION_LEVEL('unclassified');
#970=SECURITY_CLASSIFICATION('','',#969);
#971=CC_DESIGN_SECURITY_CLASSIFICATION(#970,(#962));
#972=APPROVAL_STATUS('approved');
#973=APPROVAL(#972,'');
#974=CC_DESIGN_APPROVAL(#973,(#970,#962,#963));
#975=CALENDAR_DATE(108,30,6);
#976=COORDINATED_UNIVERSAL_TIME_OFFSET(3,0,.BEHIND.);
#977=LOCAL_TIME(11,3,4.3E1,#976);
#978=DATE_AND_TIME(#975,#977);
#979=APPROVAL_DATE_TIME(#978,#973);
#980=DATE_TIME_ROLE('creation_date');
#981=CC_DESIGN_DATE_AND_TIME_ASSIGNMENT(#978,#980,(#963));
#982=DATE_TIME_ROLE('classification_date');
#983=CC_DESIGN_DATE_AND_TIME_ASSIGNMENT(#978,#982,(#970));
#984=PERSON('UNSPECIFIED','UNSPECIFIED',$,$,$,$);
#985=ORGANIZATION('UNSPECIFIED','UNSPECIFIED','UNSPECIFIED');
#986=PERSON_AND_ORGANIZATION(#984,#985);
#987=APPROVAL_ROLE('approver');
#988=APPROVAL_PERSON_ORGANIZATION(#986,#973,#987);
#989=PERSON_AND_ORGANIZATION_ROLE('creator');
#990=CC_DESIGN_PERSON_AND_ORGANIZATION_ASSIGNMENT(#986,#989,(#962,#963));
#991=PERSON_AND_ORGANIZATION_ROLE('design_supplier');
#992=CC_DESIGN_PERSON_AND_ORGANIZATION_ASSIGNMENT(#986,#991,(#962));
#993=PERSON_AND_ORGANIZATION_ROLE('classification_officer');
#994=CC_DESIGN_PERSON_AND_ORGANIZATION_ASSIGNMENT(#986,#993,(#970));
#995=PERSON_AND_ORGANIZATION_ROLE('design_owner');
#996=CC_DESIGN_PERSON_AND_ORGANIZATION_ASSIGNMENT(#986,#995,(#961));
#26=CIRCLE('',#25,2.E0);
#31=CIRCLE('',#30,2.E0);
#100=CIRCLE('',#99,3.E-1);
#117=CIRCLE('',#116,4.E-1);
#130=CIRCLE('',#129,4.E-1);
#147=CIRCLE('',#146,3.E-1);
#184=CIRCLE('',#183,4.E-1);
#201=CIRCLE('',#200,3.E-1);
#218=CIRCLE('',#217,3.E-1);
#235=CIRCLE('',#234,4.E-1);
#272=CIRCLE('',#271,2.E0);
#277=CIRCLE('',#276,2.E0);
#282=CIRCLE('',#281,5.E-1);
#287=CIRCLE('',#286,5.E-1);
#296=CIRCLE('',#295,2.5E0);
#301=CIRCLE('',#300,2.5E0);
#306=CIRCLE('',#305,5.E-1);
#311=CIRCLE('',#310,5.E-1);
#324=CIRCLE('',#323,2.5E0);
#329=CIRCLE('',#328,2.5E0);
#443=EDGE_CURVE('',#336,#337,#5,.T.);
#445=EDGE_CURVE('',#337,#339,#9,.T.);
#447=EDGE_CURVE('',#339,#341,#13,.T.);
#449=EDGE_CURVE('',#341,#336,#17,.T.);
#460=EDGE_CURVE('',#336,#344,#21,.T.);
#462=EDGE_CURVE('',#344,#345,#79,.T.);
#464=EDGE_CURVE('',#337,#345,#75,.T.);
#468=EDGE_CURVE('',#356,#357,#26,.T.);
#470=EDGE_CURVE('',#357,#356,#31,.T.);
#481=EDGE_CURVE('',#341,#349,#35,.T.);
#483=EDGE_CURVE('',#349,#344,#83,.T.);
#488=EDGE_CURVE('',#400,#401,#39,.T.);
#490=EDGE_CURVE('',#400,#404,#43,.T.);
#492=EDGE_CURVE('',#404,#405,#47,.T.);
#494=EDGE_CURVE('',#401,#405,#51,.T.);
#498=EDGE_CURVE('',#432,#433,#55,.T.);
#500=EDGE_CURVE('',#433,#437,#59,.T.);
#502=EDGE_CURVE('',#436,#437,#63,.T.);
#504=EDGE_CURVE('',#432,#436,#67,.T.);
#515=EDGE_CURVE('',#339,#347,#71,.T.);
#517=EDGE_CURVE('',#347,#349,#87,.T.);
#530=EDGE_CURVE('',#345,#347,#91,.T.);
#554=EDGE_CURVE('',#401,#382,#95,.T.);
#556=EDGE_CURVE('',#382,#383,#100,.T.);
#558=EDGE_CURVE('',#383,#385,#104,.T.);
#560=EDGE_CURVE('',#385,#376,#108,.T.);
#562=EDGE_CURVE('',#376,#377,#112,.T.);
#564=EDGE_CURVE('',#377,#379,#117,.T.);
#566=EDGE_CURVE('',#379,#400,#121,.T.);
#577=EDGE_CURVE('',#405,#394,#151,.T.);
#579=EDGE_CURVE('',#382,#394,#175,.T.);
#591=EDGE_CURVE('',#391,#404,#125,.T.);
#593=EDGE_CURVE('',#389,#391,#130,.T.);
#595=EDGE_CURVE('',#388,#389,#134,.T.);
#597=EDGE_CURVE('',#397,#388,#138,.T.);
#599=EDGE_CURVE('',#395,#397,#142,.T.);
#601=EDGE_CURVE('',#394,#395,#147,.T.);
#614=EDGE_CURVE('',#379,#391,#155,.T.);
#626=EDGE_CURVE('',#377,#389,#159,.T.);
#639=EDGE_CURVE('',#376,#388,#163,.T.);
#652=EDGE_CURVE('',#385,#397,#167,.T.);
#665=EDGE_CURVE('',#383,#395,#171,.T.);
#690=EDGE_CURVE('',#411,#432,#179,.T.);
#692=EDGE_CURVE('',#409,#411,#184,.T.);
#694=EDGE_CURVE('',#408,#409,#188,.T.);
#696=EDGE_CURVE('',#417,#408,#192,.T.);
#698=EDGE_CURVE('',#415,#417,#196,.T.);
#700=EDGE_CURVE('',#414,#415,#201,.T.);
#702=EDGE_CURVE('',#433,#414,#205,.T.);
#713=EDGE_CURVE('',#423,#436,#239,.T.);
#715=EDGE_CURVE('',#411,#423,#209,.T.);
#727=EDGE_CURVE('',#437,#426,#213,.T.);
#729=EDGE_CURVE('',#426,#427,#218,.T.);
#731=EDGE_CURVE('',#427,#429,#222,.T.);
#733=EDGE_CURVE('',#429,#420,#226,.T.);
#735=EDGE_CURVE('',#420,#421,#230,.T.);
#737=EDGE_CURVE('',#421,#423,#235,.T.);
#750=EDGE_CURVE('',#414,#426,#243,.T.);
#762=EDGE_CURVE('',#415,#427,#247,.T.);
#775=EDGE_CURVE('',#417,#429,#251,.T.);
#788=EDGE_CURVE('',#408,#420,#255,.T.);
#801=EDGE_CURVE('',#409,#421,#259,.T.);
#826=EDGE_CURVE('',#356,#352,#263,.T.);
#828=EDGE_CURVE('',#352,#353,#272,.T.);
#830=EDGE_CURVE('',#357,#353,#267,.T.);
#842=EDGE_CURVE('',#353,#352,#277,.T.);
#857=EDGE_CURVE('',#360,#361,#282,.T.);
#859=EDGE_CURVE('',#361,#360,#287,.T.);
#869=EDGE_CURVE('',#372,#373,#306,.T.);
#871=EDGE_CURVE('',#361,#373,#333,.T.);
#874=EDGE_CURVE('',#360,#372,#291,.T.);
#884=EDGE_CURVE('',#364,#365,#296,.T.);
#886=EDGE_CURVE('',#365,#364,#301,.T.);
#891=EDGE_CURVE('',#373,#372,#311,.T.);
#902=EDGE_CURVE('',#364,#368,#315,.T.);
#904=EDGE_CURVE('',#368,#369,#324,.T.);
#906=EDGE_CURVE('',#365,#369,#319,.T.);
#918=EDGE_CURVE('',#369,#368,#329,.T.);
#956=ADVANCED_BREP_SHAPE_REPRESENTATION('',(#947),#955);
#963=PRODUCT_DEFINITION('design','',#962,#959);
#964=PRODUCT_DEFINITION_SHAPE('','SHAPE FOR VIBRATOR_2113TOP0_PRT.',#963);
#965=SHAPE_DEFINITION_REPRESENTATION(#964,#956);
ENDSEC;
END-ISO-10303-21;
