 PTC IGES file: _v_l_any_prt.igs                                        S      1
1H,,1H;,12H_V_L_ANY_PRT,16H_v_l_any_prt.igs,                            G      1
49HPro/ENGINEER by Parametric Technology Corporation,7H2006170,32,38,7, G      2
38,15,12H_V_L_ANY_PRT,1.,2,2HMM,32768,0.5,15H20080630.105137,           G      3
0.00069061,6.90638,3HGRA,7HUnknown,10,0,15H20080630.105137;             G      4
     314       1       1       1       0       0       0       001000200D      1
     314       0       4       1       0                   COLOR       1D      2
     314       2       1       1       0       0       0       001000200D      3
     314       0       1       1       0                   COLOR       2D      4
     314       3       1       1       0       0       0       001000200D      5
     314       0       1       1       0                   COLOR       3D      6
     314       4       1       1       0       0       0       001000200D      7
     314       0       1       1       0                   COLOR       4D      8
     314       5       1       1       0       0       0       001000200D      9
     314       0       8       1       0                   COLOR       5D     10
     314       6       1       1       0       0       0       001000200D     11
     314       0       8       1       0                   COLOR       6D     12
     314       7       1       1       0       0       0       001000200D     13
     314       0       8       1       0                   COLOR       7D     14
     314       8       1       1       0       0       0       001000200D     15
     314       0       5       1       0                   COLOR       8D     16
     314       9       1       1       0       0       0       001000200D     17
     314       0       8       1       0                   COLOR       9D     18
     314      10       1       1       0       0       0       001000200D     19
     314       0       8       1       0                   COLOR      10D     20
     110      11       1       1       0       0       0       001010000D     21
     110       0      -9       1       0                    LINE       1D     22
     124      12       1       1       0       0       0       001000000D     23
     124       0       0       1       0                   XFORM       1D     24
     100      13       1       1       0       0      23       001010000D     25
     100       0      -9       1       0                     ARC       1D     26
     110      14       1       1       0       0       0       001010000D     27
     110       0      -9       1       0                    LINE       2D     28
     124      15       1       1       0       0       0       001000000D     29
     124       0       0       1       0                   XFORM       2D     30
     100      16       1       1       0       0      29       001010000D     31
     100       0      -9       1       0                     ARC       2D     32
     110      17       1       1       0       0       0       001010000D     33
     110       0      -9       1       0                    LINE       3D     34
     124      18       1       1       0       0       0       001000000D     35
     124       0       0       1       0                   XFORM       3D     36
     100      19       1       1       0       0      35       001010000D     37
     100       0      -9       1       0                     ARC       3D     38
     124      20       1       1       0       0       0       001000000D     39
     124       0       0       1       0                   XFORM       4D     40
     100      21       1       1       0       0      39       001010000D     41
     100       0      -9       1       0                     ARC       4D     42
     110      22       1       1       0       0       0       001010000D     43
     110       0      -9       1       0                    LINE       4D     44
     124      23       1       1       0       0       0       001000000D     45
     124       0       0       1       0                   XFORM       5D     46
     100      24       1       1       0       0      45       001010000D     47
     100       0      -9       1       0                     ARC       5D     48
     124      25       1       1       0       0       0       001000000D     49
     124       0       0       1       0                   XFORM       6D     50
     100      26       1       1       0       0      49       001010000D     51
     100       0      -9       1       0                     ARC       6D     52
     110      27       1       1       0       0       0       001010000D     53
     110       0      -9       1       0                    LINE       5D     54
     124      28       1       1       0       0       0       001000000D     55
     124       0       0       1       0                   XFORM       7D     56
     100      29       1       1       0       0      55       001010000D     57
     100       0      -9       1       0                     ARC       7D     58
     124      30       1       1       0       0       0       001000000D     59
     124       0       0       1       0                   XFORM       8D     60
     100      31       1       1       0       0      59       001010000D     61
     100       0      -9       1       0                     ARC       8D     62
     110      32       1       1       0       0       0       001010000D     63
     110       0      -9       1       0                    LINE       6D     64
     124      33       1       1       0       0       0       001000000D     65
     124       0       0       1       0                   XFORM       9D     66
     100      34       1       1       0       0      65       001010000D     67
     100       0      -9       1       0                     ARC       9D     68
     124      35       1       1       0       0       0       001000000D     69
     124       0       0       1       0                   XFORM      10D     70
     100      36       1       1       0       0      69       001010000D     71
     100       0      -9       1       0                     ARC      10D     72
     124      37       1       1       0       0       0       001000000D     73
     124       0       0       1       0                   XFORM      11D     74
     100      38       1       1       0       0      73       001010000D     75
     100       0      -9       1       0                     ARC      11D     76
     124      39       1       1       0       0       0       001000000D     77
     124       0       0       1       0                   XFORM      12D     78
     100      40       1       1       0       0      77       001010000D     79
     100       0      -9       1       0                     ARC      12D     80
     110      41       1       1       0       0       0       001010000D     81
     110       0      -9       1       0                    LINE       7D     82
     124      42       1       1       0       0       0       001000000D     83
     124       0       0       1       0                   XFORM      13D     84
     100      43       1       1       0       0      83       001010000D     85
     100       0      -9       1       0                     ARC      13D     86
     110      44       1       1       0       0       0       001010000D     87
     110       0      -9       1       0                    LINE       8D     88
     124      45       1       1       0       0       0       001000000D     89
     124       0       0       1       0                   XFORM      14D     90
     100      46       1       1       0       0      89       001010000D     91
     100       0      -9       1       0                     ARC      14D     92
     110      47       1       1       0       0       0       001010000D     93
     110       0     -17       1       0                    LINE       9D     94
     110      48       1       1       0       0       0       001010000D     95
     110       0     -17       1       0                    LINE      10D     96
     120      49       1       1       0       0       0       001010000D     97
     120       0     -17       1       0                    SREV       1D     98
     110      50       1       1       0       0       0       001010000D     99
     110       0       0       1       0                    LINE      11D    100
     102      51       1       1       0       0       0       001010000D    101
     102       0       0       1       0                  CCURVE       1D    102
     110      52       1       1       0       0       0       001010500D    103
     110       0      -9       2       0                    LINE      12D    104
     110      54       1       1       0       0       0       001010500D    105
     110       0      -9       1       0                    LINE      13D    106
     110      55       1       1       0       0       0       001010500D    107
     110       0      -9       2       0                    LINE      14D    108
     110      57       1       1       0       0       0       001010500D    109
     110       0      -9       2       0                    LINE      15D    110
     102      59       1       1       0       0       0       001010500D    111
     102       0       0       1       0                  CCURVE       2D    112
     142      60       1       1       0       0       0       001010500D    113
     142       0       0       1       0                  UV_BND       1D    114
     144      61       1       1       0       0       0       000000000D    115
     144       0     -17       1       0                 TRM_SRF       1D    116
     110      62       1       1       0       0       0       001010000D    117
     110       0     -17       1       0                    LINE      16D    118
     110      63       1       1       0       0       0       001010000D    119
     110       0     -17       2       0                    LINE      17D    120
     120      65       1       1       0       0       0       001010000D    121
     120       0     -17       1       0                    SREV       2D    122
     110      66       1       1       0       0       0       001010000D    123
     110       0       0       1       0                    LINE      18D    124
     124      67       1       1       0       0       0       001000000D    125
     124       0       0       1       0                   XFORM      15D    126
     100      68       1       1       0       0     125       001010000D    127
     100       0       0       1       0                     ARC      15D    128
     102      69       1       1       0       0       0       001010000D    129
     102       0       0       1       0                  CCURVE       3D    130
     110      70       1       1       0       0       0       001010500D    131
     110       0      -9       2       0                    LINE      19D    132
     110      72       1       1       0       0       0       001010500D    133
     110       0      -9       1       0                    LINE      20D    134
     110      73       1       1       0       0       0       001010500D    135
     110       0      -9       2       0                    LINE      21D    136
     110      75       1       1       0       0       0       001010500D    137
     110       0      -9       2       0                    LINE      22D    138
     102      77       1       1       0       0       0       001010500D    139
     102       0       0       1       0                  CCURVE       4D    140
     142      78       1       1       0       0       0       001010500D    141
     142       0       0       1       0                  UV_BND       2D    142
     144      79       1       1       0       0       0       000000000D    143
     144       0     -17       1       0                 TRM_SRF       2D    144
     128      80       1       1       0       0       0       001010000D    145
     128       0     -17       6       0                  SPLSRF       1D    146
     102      86       1       1       0       0       0       001010000D    147
     102       0       0       1       0                  CCURVE       5D    148
     126      87       1       1       0       0       0       001010500D    149
     126       0      -9      18       0                B_SPLINE       1D    150
     126     105       1       1       0       0       0       001010500D    151
     126       0      -9      17       0                B_SPLINE       2D    152
     102     122       1       1       0       0       0       001010500D    153
     102       0       0       1       0                  CCURVE       6D    154
     142     123       1       1       0       0       0       001010500D    155
     142       0       0       1       0                  UV_BND       3D    156
     144     124       1       1       0       0       0       000000000D    157
     144       0     -17       1       0                 TRM_SRF       3D    158
     110     125       1       1       0       0       0       001010000D    159
     110       0     -17       1       0                    LINE      23D    160
     110     126       1       1       0       0       0       001010000D    161
     110       0     -17       2       0                    LINE      24D    162
     120     128       1       1       0       0       0       001010000D    163
     120       0     -17       1       0                    SREV       3D    164
     110     129       1       1       0       0       0       001010000D    165
     110       0       0       1       0                    LINE      25D    166
     124     130       1       1       0       0       0       001000000D    167
     124       0       0       1       0                   XFORM      16D    168
     100     131       1       1       0       0     167       001010000D    169
     100       0       0       1       0                     ARC      16D    170
     102     132       1       1       0       0       0       001010000D    171
     102       0       0       1       0                  CCURVE       7D    172
     110     133       1       1       0       0       0       001010500D    173
     110       0      -9       2       0                    LINE      26D    174
     110     135       1       1       0       0       0       001010500D    175
     110       0      -9       2       0                    LINE      27D    176
     110     137       1       1       0       0       0       001010500D    177
     110       0      -9       2       0                    LINE      28D    178
     110     139       1       1       0       0       0       001010500D    179
     110       0      -9       2       0                    LINE      29D    180
     102     141       1       1       0       0       0       001010500D    181
     102       0       0       1       0                  CCURVE       8D    182
     142     142       1       1       0       0       0       001010500D    183
     142       0       0       1       0                  UV_BND       4D    184
     144     143       1       1       0       0       0       000000000D    185
     144       0     -17       1       0                 TRM_SRF       4D    186
     110     144       1       1       0       0       0       001010000D    187
     110       0     -17       1       0                    LINE      30D    188
     110     145       1       1       0       0       0       001010000D    189
     110       0     -17       1       0                    LINE      31D    190
     120     146       1       1       0       0       0       001010000D    191
     120       0     -17       1       0                    SREV       4D    192
     110     147       1       1       0       0       0       001010000D    193
     110       0       0       1       0                    LINE      32D    194
     102     148       1       1       0       0       0       001010000D    195
     102       0       0       1       0                  CCURVE       9D    196
     110     149       1       1       0       0       0       001010500D    197
     110       0      -9       2       0                    LINE      33D    198
     110     151       1       1       0       0       0       001010500D    199
     110       0      -9       2       0                    LINE      34D    200
     110     153       1       1       0       0       0       001010500D    201
     110       0      -9       2       0                    LINE      35D    202
     110     155       1       1       0       0       0       001010500D    203
     110       0      -9       2       0                    LINE      36D    204
     102     157       1       1       0       0       0       001010500D    205
     102       0       0       1       0                  CCURVE      10D    206
     142     158       1       1       0       0       0       001010500D    207
     142       0       0       1       0                  UV_BND       5D    208
     144     159       1       1       0       0       0       000000000D    209
     144       0     -17       1       0                 TRM_SRF       5D    210
     128     160       1       1       0       0       0       001010000D    211
     128       0     -17       6       0                  SPLSRF       2D    212
     102     166       1       1       0       0       0       001010000D    213
     102       0       0       1       0                  CCURVE      11D    214
     126     167       1       1       0       0       0       001010500D    215
     126       0      -9      21       0                B_SPLINE       3D    216
     126     188       1       1       0       0       0       001010500D    217
     126       0      -9      21       0                B_SPLINE       4D    218
     102     209       1       1       0       0       0       001010500D    219
     102       0       0       1       0                  CCURVE      12D    220
     142     210       1       1       0       0       0       001010500D    221
     142       0       0       1       0                  UV_BND       6D    222
     102     211       1       1       0       0       0       001010000D    223
     102       0       0       1       0                  CCURVE      13D    224
     126     212       1       1       0       0       0       001010500D    225
     126       0      -9      20       0                B_SPLINE       5D    226
     126     232       1       1       0       0       0       001010500D    227
     126       0      -9      20       0                B_SPLINE       6D    228
     102     252       1       1       0       0       0       001010500D    229
     102       0       0       1       0                  CCURVE      14D    230
     142     253       1       1       0       0       0       001010500D    231
     142       0       0       1       0                  UV_BND       7D    232
     144     254       1       1       0       0       0       000000000D    233
     144       0     -17       1       0                 TRM_SRF       6D    234
     110     255       1       1       0       0       0       001010000D    235
     110       0     -17       1       0                    LINE      37D    236
     110     256       1       1       0       0       0       001010000D    237
     110       0     -17       1       0                    LINE      38D    238
     120     257       1       1       0       0       0       001010000D    239
     120       0     -17       1       0                    SREV       5D    240
     110     258       1       1       0       0       0       001010000D    241
     110       0       0       1       0                    LINE      39D    242
     102     259       1       1       0       0       0       001010000D    243
     102       0       0       1       0                  CCURVE      15D    244
     110     260       1       1       0       0       0       001010500D    245
     110       0      -9       2       0                    LINE      40D    246
     110     262       1       1       0       0       0       001010500D    247
     110       0      -9       2       0                    LINE      41D    248
     110     264       1       1       0       0       0       001010500D    249
     110       0      -9       2       0                    LINE      42D    250
     110     266       1       1       0       0       0       001010500D    251
     110       0      -9       2       0                    LINE      43D    252
     102     268       1       1       0       0       0       001010500D    253
     102       0       0       1       0                  CCURVE      16D    254
     142     269       1       1       0       0       0       001010500D    255
     142       0       0       1       0                  UV_BND       8D    256
     144     270       1       1       0       0       0       000000000D    257
     144       0     -17       1       0                 TRM_SRF       7D    258
     110     271       1       1       0       0       0       001010000D    259
     110       0     -17       1       0                    LINE      44D    260
     110     272       1       1       0       0       0       001010000D    261
     110       0     -17       1       0                    LINE      45D    262
     120     273       1       1       0       0       0       001010000D    263
     120       0     -17       1       0                    SREV       6D    264
     110     274       1       1       0       0       0       001010000D    265
     110       0       0       1       0                    LINE      46D    266
     102     275       1       1       0       0       0       001010000D    267
     102       0       0       1       0                  CCURVE      17D    268
     110     276       1       1       0       0       0       001010500D    269
     110       0      -9       2       0                    LINE      47D    270
     110     278       1       1       0       0       0       001010500D    271
     110       0      -9       1       0                    LINE      48D    272
     110     279       1       1       0       0       0       001010500D    273
     110       0      -9       2       0                    LINE      49D    274
     110     281       1       1       0       0       0       001010500D    275
     110       0      -9       2       0                    LINE      50D    276
     102     283       1       1       0       0       0       001010500D    277
     102       0       0       1       0                  CCURVE      18D    278
     142     284       1       1       0       0       0       001010500D    279
     142       0       0       1       0                  UV_BND       9D    280
     144     285       1       1       0       0       0       000000000D    281
     144       0     -17       1       0                 TRM_SRF       8D    282
     128     286       1       1       0       0       0       001010000D    283
     128       0     -17       6       0                  SPLSRF       3D    284
     124     292       1       1       0       0       0       001000000D    285
     124       0       0       1       0                   XFORM      17D    286
     100     293       1       1       0       0     285       001010000D    287
     100       0       0       1       0                     ARC      17D    288
     124     294       1       1       0       0       0       001000000D    289
     124       0       0       1       0                   XFORM      18D    290
     100     295       1       1       0       0     289       001010000D    291
     100       0       0       1       0                     ARC      18D    292
     102     296       1       1       0       0       0       001010000D    293
     102       0       0       1       0                  CCURVE      19D    294
     126     297       1       1       0       0       0       001010500D    295
     126       0      -9      23       0                B_SPLINE       7D    296
     126     320       1       1       0       0       0       001010500D    297
     126       0      -9      23       0                B_SPLINE       8D    298
     102     343       1       1       0       0       0       001010500D    299
     102       0       0       1       0                  CCURVE      20D    300
     142     344       1       1       0       0       0       001010500D    301
     142       0       0       1       0                  UV_BND      10D    302
     124     345       1       1       0       0       0       001000000D    303
     124       0       0       1       0                   XFORM      19D    304
     100     346       1       1       0       0     303       001010000D    305
     100       0       0       1       0                     ARC      19D    306
     124     347       1       1       0       0       0       001000000D    307
     124       0       0       1       0                   XFORM      20D    308
     100     348       1       1       0       0     307       001010000D    309
     100       0       0       1       0                     ARC      20D    310
     102     349       1       1       0       0       0       001010000D    311
     102       0       0       1       0                  CCURVE      21D    312
     126     350       1       1       0       0       0       001010500D    313
     126       0      -9      21       0                B_SPLINE       9D    314
     126     371       1       1       0       0       0       001010500D    315
     126       0      -9      21       0                B_SPLINE      10D    316
     102     392       1       1       0       0       0       001010500D    317
     102       0       0       1       0                  CCURVE      22D    318
     142     393       1       1       0       0       0       001010500D    319
     142       0       0       1       0                  UV_BND      11D    320
     144     394       1       1       0       0       0       000000000D    321
     144       0     -17       1       0                 TRM_SRF       9D    322
     110     395       1       1       0       0       0       001010000D    323
     110       0     -17       1       0                    LINE      51D    324
     110     396       1       1       0       0       0       001010000D    325
     110       0     -17       1       0                    LINE      52D    326
     120     397       1       1       0       0       0       001010000D    327
     120       0     -17       1       0                    SREV       7D    328
     110     398       1       1       0       0       0       001010000D    329
     110       0       0       1       0                    LINE      53D    330
     102     399       1       1       0       0       0       001010000D    331
     102       0       0       1       0                  CCURVE      23D    332
     110     400       1       1       0       0       0       001010500D    333
     110       0      -9       2       0                    LINE      54D    334
     110     402       1       1       0       0       0       001010500D    335
     110       0      -9       1       0                    LINE      55D    336
     110     403       1       1       0       0       0       001010500D    337
     110       0      -9       2       0                    LINE      56D    338
     110     405       1       1       0       0       0       001010500D    339
     110       0      -9       2       0                    LINE      57D    340
     102     407       1       1       0       0       0       001010500D    341
     102       0       0       1       0                  CCURVE      24D    342
     142     408       1       1       0       0       0       001010500D    343
     142       0       0       1       0                  UV_BND      12D    344
     144     409       1       1       0       0       0       000000000D    345
     144       0     -17       1       0                 TRM_SRF      10D    346
     110     410       1       1       0       0       0       001010000D    347
     110       0     -17       1       0                    LINE      58D    348
     110     411       1       1       0       0       0       001010000D    349
     110       0     -17       1       0                    LINE      59D    350
     120     412       1       1       0       0       0       001010000D    351
     120       0     -17       1       0                    SREV       8D    352
     110     413       1       1       0       0       0       001010000D    353
     110       0       0       1       0                    LINE      60D    354
     102     414       1       1       0       0       0       001010000D    355
     102       0       0       1       0                  CCURVE      25D    356
     110     415       1       1       0       0       0       001010500D    357
     110       0      -9       2       0                    LINE      61D    358
     110     417       1       1       0       0       0       001010500D    359
     110       0      -9       2       0                    LINE      62D    360
     110     419       1       1       0       0       0       001010500D    361
     110       0      -9       2       0                    LINE      63D    362
     110     421       1       1       0       0       0       001010500D    363
     110       0      -9       2       0                    LINE      64D    364
     102     423       1       1       0       0       0       001010500D    365
     102       0       0       1       0                  CCURVE      26D    366
     142     424       1       1       0       0       0       001010500D    367
     142       0       0       1       0                  UV_BND      13D    368
     144     425       1       1       0       0       0       000000000D    369
     144       0     -17       1       0                 TRM_SRF      11D    370
     128     426       1       1       0       0       0       001010000D    371
     128       0     -17       6       0                  SPLSRF       4D    372
     102     432       1       1       0       0       0       001010000D    373
     102       0       0       1       0                  CCURVE      27D    374
     126     433       1       1       0       0       0       001010500D    375
     126       0      -9      23       0                B_SPLINE      11D    376
     126     456       1       1       0       0       0       001010500D    377
     126       0      -9      23       0                B_SPLINE      12D    378
     102     479       1       1       0       0       0       001010500D    379
     102       0       0       1       0                  CCURVE      28D    380
     142     480       1       1       0       0       0       001010500D    381
     142       0       0       1       0                  UV_BND      14D    382
     144     481       1       1       0       0       0       000000000D    383
     144       0     -17       1       0                 TRM_SRF      12D    384
314,1.1D0,1.2D0,1D2;                                                   1P      1
314,1.1D1,1.1D1,1.1D1;                                                 3P      2
314,3.92D1,1.2D0,1.2D0;                                                5P      3
314,4.1D1,0D0,2.2D1;                                                   7P      4
314,7.529411764706D1,7.529411764706D1,7.529411764706D1;                9P      5
314,8.784D1,9.49D1,1D2;                                               11P      6
314,9.6D1,9.6D1,9.6D1;                                                13P      7
314,9.8D1,6.27D1,0D0;                                                 15P      8
314,1D2,5.019607843137D1,5.019607843137D1;                            17P      9
314,1D2,1D2,9.49D1;                                                   19P     10
110,0D0,-4.5D0,4.5D-1,0D0,-6.2D0,4.5D-1;                              21P     11
124,0D0,1D0,0D0,0D0,0D0,0D0,-1D0,-6.3D0,-1D0,0D0,0D0,0D0;             23P     12
100,0D0,0D0,0D0,3.5D-1,0D0,-3.5D-1,0D0;                               25P     13
110,0D0,-6.2D0,4.5D-1,0D0,-6.3D0,3.5D-1;                              27P     14
124,0D0,1D0,0D0,0D0,0D0,0D0,-1D0,-6.2D0,-1D0,0D0,0D0,0D0;             29P     15
100,0D0,0D0,0D0,4.5D-1,0D0,-4.5D-1,0D0;                               31P     16
110,0D0,-6.2D0,-4.5D-1,0D0,-6.3D0,-3.5D-1;                            33P     17
124,0D0,-1D0,0D0,0D0,0D0,0D0,-1D0,-6.2D0,1D0,0D0,0D0,0D0;             35P     18
100,0D0,0D0,0D0,4.5D-1,0D0,-4.5D-1,0D0;                               37P     19
124,0D0,-1D0,0D0,0D0,0D0,0D0,-1D0,-6.3D0,1D0,0D0,0D0,0D0;             39P     20
100,0D0,0D0,0D0,3.5D-1,0D0,-3.5D-1,0D0;                               41P     21
110,0D0,-4.5D0,-4.5D-1,0D0,-6.2D0,-4.5D-1;                            43P     22
124,0D0,-1D0,0D0,0D0,0D0,0D0,1D0,-4.5D0,-1D0,0D0,0D0,0D0;             45P     23
100,0D0,0D0,0D0,4.5D-1,0D0,-4.5D-1,0D0;                               47P     24
124,0D0,1D0,0D0,0D0,0D0,0D0,1D0,-4.5D0,1D0,0D0,0D0,0D0;               49P     25
100,0D0,0D0,0D0,4.5D-1,0D0,-4.5D-1,0D0;                               51P     26
110,0D0,-5D-1,-6D-1,0D0,-4.5D0,-6D-1;                                 53P     27
124,0D0,-1D0,0D0,0D0,0D0,0D0,-1D0,-4.5D0,1D0,0D0,0D0,0D0;             55P     28
100,0D0,0D0,0D0,6D-1,0D0,-6D-1,0D0;                                   57P     29
124,0D0,1D0,0D0,0D0,0D0,0D0,-1D0,-4.5D0,-1D0,0D0,0D0,0D0;             59P     30
100,0D0,0D0,0D0,6D-1,0D0,-6D-1,0D0;                                   61P     31
110,0D0,-5D-1,6D-1,0D0,-4.5D0,6D-1;                                   63P     32
124,0D0,1D0,0D0,0D0,0D0,0D0,-1D0,-5D-1,-1D0,0D0,0D0,0D0;              65P     33
100,0D0,0D0,0D0,1D0,0D0,-1D0,0D0;                                     67P     34
124,0D0,-1D0,0D0,0D0,0D0,0D0,-1D0,-5D-1,1D0,0D0,0D0,0D0;              69P     35
100,0D0,0D0,0D0,1D0,0D0,-1D0,0D0;                                     71P     36
124,0D0,-1D0,0D0,0D0,0D0,0D0,1D0,-5D-1,-1D0,0D0,0D0,0D0;              73P     37
100,0D0,0D0,0D0,6D-1,0D0,-6D-1,0D0;                                   75P     38
124,0D0,1D0,0D0,0D0,0D0,0D0,1D0,-5D-1,1D0,0D0,0D0,0D0;                77P     39
100,0D0,0D0,0D0,6D-1,0D0,-6D-1,0D0;                                   79P     40
110,0D0,0D0,1D0,0D0,-5D-1,1D0;                                        81P     41
124,0D0,1D0,0D0,0D0,0D0,0D0,1D0,0D0,1D0,0D0,0D0,0D0;                  83P     42
100,0D0,0D0,0D0,1D0,0D0,-1D0,0D0;                                     85P     43
110,0D0,0D0,-1D0,0D0,-5D-1,-1D0;                                      87P     44
124,0D0,-1D0,0D0,0D0,0D0,0D0,1D0,0D0,-1D0,0D0,0D0,0D0;                89P     45
100,0D0,0D0,0D0,1D0,0D0,-1D0,0D0;                                     91P     46
110,0D0,-6.3D0,0D0,0D0,-5.3D0,0D0;                                    93P     47
110,0D0,-6.234D0,4.5D-1,0D0,-4.466D0,4.5D-1;                          95P     48
120,93,95,-6.283185307180D-2,3.204424506662D0;                        97P     49
110,0D0,-6.2D0,4.5D-1,0D0,-4.5D0,4.5D-1;                              99P     50
102,4,31,99,51,43;                                                   101P     51
110,1.923076923077D-2,3.141592653590D0,0D0,1.923076923077D-2,        103P     52
0D0,0D0;                                                             103P     53
110,1.923076923077D-2,0D0,0D0,9.807692307692D-1,0D0,0D0;             105P     54
110,9.807692307692D-1,0D0,0D0,9.807692307692D-1,                     107P     55
3.141592653590D0,0D0;                                                107P     56
110,9.807692307692D-1,3.141592653590D0,0D0,1.923076923077D-2,        109P     57
3.141592653590D0,0D0;                                                109P     58
102,4,103,105,107,109;                                               111P     59
142,0,97,111,101,1;                                                  113P     60
144,97,1,0,113;                                                      115P     61
110,0D0,-6.65D0,0D0,0D0,-5.65D0,0D0;                                 117P     62
110,0D0,-6.305860253749D0,3.441397462506D-1,0D0,                     119P     63
-6.194139746251D0,4.558602537494D-1;                                 119P     64
120,117,119,-6.283185307180D-2,3.204424506662D0;                     121P     65
110,0D0,-6.3D0,3.5D-1,0D0,-6.2D0,4.5D-1;                             123P     66
124,0D0,1D0,0D0,0D0,0D0,0D0,1D0,-6.2D0,1D0,0D0,0D0,0D0;              125P     67
100,0D0,0D0,0D0,4.5D-1,0D0,-4.5D-1,0D0;                              127P     68
102,4,25,123,127,33;                                                 129P     69
110,5.245459298925D-2,3.141592653590D0,0D0,5.245459298925D-2,        131P     70
0D0,0D0;                                                             131P     71
110,5.245459298925D-2,0D0,0D0,9.475454070107D-1,0D0,0D0;             133P     72
110,9.475454070107D-1,0D0,0D0,9.475454070107D-1,                     135P     73
3.141592653590D0,0D0;                                                135P     74
110,9.475454070107D-1,3.141592653590D0,0D0,5.245459298925D-2,        137P     75
3.141592653590D0,0D0;                                                137P     76
102,4,131,133,135,137;                                               139P     77
142,0,121,139,129,1;                                                 141P     78
144,121,1,0,141;                                                     143P     79
128,1,1,1,1,0,0,1,0,0,-3.64D-1,-3.64D-1,3.64D-1,3.64D-1,             145P     80
-3.645769470862D-1,-3.645769470862D-1,3.645769470862D-1,             145P     81
3.645769470862D-1,1D0,1D0,1D0,1D0,-3.645769470862D-1,-6.3D0,         145P     82
3.64D-1,-3.645769470862D-1,-6.3D0,-3.64D-1,3.645769470862D-1,        145P     83
-6.3D0,3.64D-1,3.645769470862D-1,-6.3D0,-3.64D-1,-3.64D-1,           145P     84
3.64D-1,-3.645769470862D-1,3.645769470862D-1;                        145P     85
102,2,41,25;                                                         147P     86
126,17,3,0,0,1,0,0D0,0D0,0D0,0D0,6.666666666667D-2,                  149P     87
1.333333333333D-1,2D-1,2.666666666667D-1,3.333333333333D-1,4D-1,     149P     88
4.666666666667D-1,5.333333333333D-1,6D-1,6.666666666667D-1,          149P     89
7.333333333333D-1,8D-1,8.666666666667D-1,9.333333333333D-1,1D0,      149P     90
1D0,1D0,1D0,1D0,1D0,1D0,1D0,1D0,1D0,1D0,1D0,1D0,1D0,1D0,1D0,1D0,     149P     91
1D0,1D0,1D0,1D0,1D0,-3.5D-1,0D0,0D0,-3.500394266722D-1,              149P     92
-2.444272736251D-2,0D0,-3.448453953133D-1,-7.329915153553D-2,        149P     93
0D0,-3.220919379361D-1,-1.434034292992D-1,0D0,                       149P     94
-2.852323139917D-1,-2.072340817270D-1,0D0,-2.359144942846D-1,        149P     95
-2.620092736071D-1,0D0,-1.762839822236D-1,-3.053329573470D-1,        149P     96
0D0,-1.089495768208D-1,-3.353122449521D-1,0D0,                       149P     97
-3.685339868041D-2,-3.506367470642D-1,0D0,3.685339868041D-2,         149P     98
-3.506367470642D-1,0D0,1.089495768208D-1,-3.353122449521D-1,0D0,     149P     99
1.762839822236D-1,-3.053329573470D-1,0D0,2.359144942846D-1,          149P    100
-2.620092736071D-1,0D0,2.852323139917D-1,-2.072340817270D-1,0D0,     149P    101
3.220919379361D-1,-1.434034292992D-1,0D0,3.448453953133D-1,          149P    102
-7.329915153553D-2,0D0,3.500394266722D-1,-2.444272736251D-2,0D0,     149P    103
3.5D-1,0D0,0D0,0D0,1D0,0D0,0D0,1D0;                                  149P    104
126,17,3,0,0,1,0,0D0,0D0,0D0,0D0,6.666666666667D-2,                  151P    105
1.333333333333D-1,2D-1,2.666666666667D-1,3.333333333333D-1,4D-1,     151P    106
4.666666666667D-1,5.333333333333D-1,6D-1,6.666666666667D-1,          151P    107
7.333333333333D-1,8D-1,8.666666666667D-1,9.333333333333D-1,1D0,      151P    108
1D0,1D0,1D0,1D0,1D0,1D0,1D0,1D0,1D0,1D0,1D0,1D0,1D0,1D0,1D0,1D0,     151P    109
1D0,1D0,1D0,1D0,1D0,3.5D-1,0D0,0D0,3.500394266722D-1,                151P    110
2.444272736251D-2,0D0,3.448453953133D-1,7.329915153553D-2,0D0,       151P    111
3.220919379361D-1,1.434034292992D-1,0D0,2.852323139917D-1,           151P    112
2.072340817270D-1,0D0,2.359144942846D-1,2.620092736071D-1,0D0,       151P    113
1.762839822236D-1,3.053329573470D-1,0D0,1.089495768208D-1,           151P    114
3.353122449521D-1,0D0,3.685339868041D-2,3.506367470642D-1,0D0,       151P    115
-3.685339868041D-2,3.506367470642D-1,0D0,-1.089495768208D-1,         151P    116
3.353122449521D-1,0D0,-1.762839822236D-1,3.053329573470D-1,0D0,      151P    117
-2.359144942846D-1,2.620092736071D-1,0D0,-2.852323139917D-1,         151P    118
2.072340817270D-1,0D0,-3.220919379361D-1,1.434034292992D-1,0D0,      151P    119
-3.448453953133D-1,7.329915153553D-2,0D0,-3.500394266722D-1,         151P    120
2.444272736251D-2,0D0,-3.5D-1,0D0,0D0,0D0,1D0,0D0,0D0,1D0;           151P    121
102,2,149,151;                                                       153P    122
142,0,145,153,147,1;                                                 155P    123
144,145,1,0,155;                                                     157P    124
110,0D0,-6.65D0,0D0,0D0,-5.65D0,0D0;                                 159P    125
110,0D0,-6.305860253749D0,3.441397462506D-1,0D0,                     161P    126
-6.194139746251D0,4.558602537494D-1;                                 161P    127
120,159,161,3.078760800518D0,6.346017160251D0;                       163P    128
110,0D0,-6.3D0,-3.5D-1,0D0,-6.2D0,-4.5D-1;                           165P    129
124,0D0,-1D0,0D0,0D0,0D0,0D0,1D0,-6.2D0,-1D0,0D0,0D0,0D0;            167P    130
100,0D0,0D0,0D0,4.5D-1,0D0,-4.5D-1,0D0;                              169P    131
102,4,165,169,27,41;                                                 171P    132
110,5.245459298925D-2,3.141592653590D0,0D0,9.475454070107D-1,        173P    133
3.141592653590D0,0D0;                                                173P    134
110,9.475454070107D-1,3.141592653590D0,0D0,9.475454070107D-1,        175P    135
6.283185307180D0,0D0;                                                175P    136
110,9.475454070107D-1,6.283185307180D0,0D0,5.245459298925D-2,        177P    137
6.283185307180D0,0D0;                                                177P    138
110,5.245459298925D-2,6.283185307180D0,0D0,5.245459298925D-2,        179P    139
3.141592653590D0,0D0;                                                179P    140
102,4,173,175,177,179;                                               181P    141
142,0,163,181,171,1;                                                 183P    142
144,163,1,0,183;                                                     185P    143
110,0D0,-6.3D0,0D0,0D0,-5.3D0,0D0;                                   187P    144
110,0D0,-6.234D0,4.5D-1,0D0,-4.466D0,4.5D-1;                         189P    145
120,187,189,3.078760800518D0,6.346017160251D0;                       191P    146
110,0D0,-6.2D0,-4.5D-1,0D0,-4.5D0,-4.5D-1;                           193P    147
102,4,193,47,21,37;                                                  195P    148
110,1.923076923077D-2,3.141592653590D0,0D0,9.807692307692D-1,        197P    149
3.141592653590D0,0D0;                                                197P    150
110,9.807692307692D-1,3.141592653590D0,0D0,9.807692307692D-1,        199P    151
6.283185307180D0,0D0;                                                199P    152
110,9.807692307692D-1,6.283185307180D0,0D0,1.923076923077D-2,        201P    153
6.283185307180D0,0D0;                                                201P    154
110,1.923076923077D-2,6.283185307180D0,0D0,1.923076923077D-2,        203P    155
3.141592653590D0,0D0;                                                203P    156
102,4,197,199,201,203;                                               205P    157
142,0,191,205,195,1;                                                 207P    158
144,191,1,0,207;                                                     209P    159
128,1,1,1,1,0,0,1,0,0,-6.24D-1,-6.24D-1,6.24D-1,6.24D-1,             211P    160
-6.247764512667D-1,-6.247764512667D-1,6.247764512667D-1,             211P    161
6.247764512667D-1,1D0,1D0,1D0,1D0,-6.247764512667D-1,-4.5D0,         211P    162
6.24D-1,-6.247764512667D-1,-4.5D0,-6.24D-1,6.247764512667D-1,        211P    163
-4.5D0,6.24D-1,6.247764512667D-1,-4.5D0,-6.24D-1,-6.24D-1,           211P    164
6.24D-1,-6.247764512667D-1,6.247764512667D-1;                        211P    165
102,2,57,61;                                                         213P    166
126,19,3,0,0,1,0,0D0,0D0,0D0,0D0,5.882352941176D-2,                  215P    167
1.176470588235D-1,1.764705882353D-1,2.352941176471D-1,               215P    168
2.941176470588D-1,3.529411764706D-1,4.117647058824D-1,               215P    169
4.705882352941D-1,5.294117647059D-1,5.882352941176D-1,               215P    170
6.470588235294D-1,7.058823529412D-1,7.647058823529D-1,               215P    171
8.235294117647D-1,8.823529411765D-1,9.411764705882D-1,1D0,1D0,       215P    172
1D0,1D0,1D0,1D0,1D0,1D0,1D0,1D0,1D0,1D0,1D0,1D0,1D0,1D0,1D0,1D0,     215P    173
1D0,1D0,1D0,1D0,1D0,1D0,-6D-1,0D0,0D0,-6.000411699555D-1,            215P    174
-3.696736911847D-2,0D0,-5.931312568067D-1,-1.108754476345D-1,        215P    175
0D0,-5.626820051054D-1,-2.179831437411D-1,0D0,                       215P    176
-5.130407486274D-1,-3.176619756750D-1,0D0,-4.459366890116D-1,        215P    177
-4.065247399174D-1,0D0,-3.636445973207D-1,-4.815433817828D-1,        215P    178
0D0,-2.689696126710D-1,-5.401637511601D-1,0D0,                       215P    179
-1.651350327907D-1,-5.803894624552D-1,0D0,-5.567702042574D-2,        215P    180
-6.008507144414D-1,0D0,5.567702042574D-2,-6.008507144414D-1,0D0,     215P    181
1.651350327907D-1,-5.803894624552D-1,0D0,2.689696126710D-1,          215P    182
-5.401637511601D-1,0D0,3.636445973207D-1,-4.815433817828D-1,0D0,     215P    183
4.459366890116D-1,-4.065247399174D-1,0D0,5.130407486274D-1,          215P    184
-3.176619756750D-1,0D0,5.626820051054D-1,-2.179831437411D-1,0D0,     215P    185
5.931312568067D-1,-1.108754476345D-1,0D0,6.000411699555D-1,          215P    186
-3.696736911847D-2,0D0,6D-1,0D0,0D0,0D0,1D0,0D0,0D0,1D0;             215P    187
126,19,3,0,0,1,0,0D0,0D0,0D0,0D0,5.882352941176D-2,                  217P    188
1.176470588235D-1,1.764705882353D-1,2.352941176471D-1,               217P    189
2.941176470588D-1,3.529411764706D-1,4.117647058824D-1,               217P    190
4.705882352941D-1,5.294117647059D-1,5.882352941176D-1,               217P    191
6.470588235294D-1,7.058823529412D-1,7.647058823529D-1,               217P    192
8.235294117647D-1,8.823529411765D-1,9.411764705882D-1,1D0,1D0,       217P    193
1D0,1D0,1D0,1D0,1D0,1D0,1D0,1D0,1D0,1D0,1D0,1D0,1D0,1D0,1D0,1D0,     217P    194
1D0,1D0,1D0,1D0,1D0,1D0,6D-1,0D0,0D0,6.000411699555D-1,              217P    195
3.696736911847D-2,0D0,5.931312568067D-1,1.108754476345D-1,0D0,       217P    196
5.626820051054D-1,2.179831437411D-1,0D0,5.130407486274D-1,           217P    197
3.176619756750D-1,0D0,4.459366890116D-1,4.065247399174D-1,0D0,       217P    198
3.636445973207D-1,4.815433817828D-1,0D0,2.689696126710D-1,           217P    199
5.401637511601D-1,0D0,1.651350327907D-1,5.803894624552D-1,0D0,       217P    200
5.567702042574D-2,6.008507144414D-1,0D0,-5.567702042574D-2,          217P    201
6.008507144414D-1,0D0,-1.651350327907D-1,5.803894624552D-1,0D0,      217P    202
-2.689696126710D-1,5.401637511601D-1,0D0,-3.636445973207D-1,         217P    203
4.815433817828D-1,0D0,-4.459366890116D-1,4.065247399174D-1,0D0,      217P    204
-5.130407486274D-1,3.176619756750D-1,0D0,-5.626820051054D-1,         217P    205
2.179831437411D-1,0D0,-5.931312568067D-1,1.108754476345D-1,0D0,      217P    206
-6.000411699555D-1,3.696736911847D-2,0D0,-6D-1,0D0,0D0,0D0,1D0,      217P    207
0D0,0D0,1D0;                                                         217P    208
102,2,215,217;                                                       219P    209
142,0,211,219,213,1;                                                 221P    210
102,2,47,51;                                                         223P    211
126,18,3,0,0,1,0,0D0,0D0,0D0,0D0,6.250021330090D-2,                  225P    212
1.250006147229D-1,1.875008309768D-1,2.499989864123D-1,               225P    213
3.124990164601D-1,3.749996497913D-1,4.374997645107D-1,               225P    214
4.999991146285D-1,5.624981057514D-1,6.249971917572D-1,               225P    215
6.874966594158D-1,7.499962087438D-1,8.124949179849D-1,               225P    216
8.749963167517D-1,9.374982796110D-1,1D0,1D0,1D0,1D0,1D0,1D0,1D0,     225P    217
1D0,1D0,1D0,1D0,1D0,1D0,1D0,1D0,1D0,1D0,1D0,1D0,1D0,1D0,1D0,1D0,     225P    218
4.5D-1,0D0,0D0,4.500392639183D-1,-2.946009778872D-2,0D0,             225P    219
4.441801544431D-1,-8.835332672776D-2,0D0,4.184303751019D-1,          225P    220
-1.733193398050D-1,0D0,3.765717490020D-1,-2.516180746608D-1,0D0,     225P    221
3.202499086118D-1,-3.202488269252D-1,0D0,2.516190504911D-1,          225P    222
-3.765726272702D-1,0D0,1.733183533909D-1,-4.184255202675D-1,0D0,     225P    223
8.835723165956D-2,-4.441982638801D-1,0D0,1.432698695087D-6,          225P    224
-4.529007103542D-1,0D0,-8.835392845222D-2,-4.441988547979D-1,        225P    225
0D0,-1.733140893823D-1,-4.184271753808D-1,0D0,                       225P    226
-2.516141434512D-1,-3.765758133837D-1,0D0,-3.202454053796D-1,        225P    227
-3.202533349977D-1,0D0,-3.765686095106D-1,-2.516229190790D-1,        225P    228
0D0,-4.184288860193D-1,-1.733232709862D-1,0D0,                       225P    229
-4.441798685667D-1,-8.835548923745D-2,0D0,-4.500392678428D-1,        225P    230
-2.946081093262D-2,0D0,-4.5D-1,0D0,0D0,0D0,1D0,0D0,0D0,1D0;          225P    231
126,18,3,0,0,1,0,0D0,0D0,0D0,0D0,6.250021330090D-2,                  227P    232
1.250006147229D-1,1.875008309768D-1,2.499989864123D-1,               227P    233
3.124990164601D-1,3.749996497913D-1,4.374997645107D-1,               227P    234
4.999991146285D-1,5.624981057514D-1,6.249971917572D-1,               227P    235
6.874966594158D-1,7.499962087438D-1,8.124949179849D-1,               227P    236
8.749963167517D-1,9.374982796110D-1,1D0,1D0,1D0,1D0,1D0,1D0,1D0,     227P    237
1D0,1D0,1D0,1D0,1D0,1D0,1D0,1D0,1D0,1D0,1D0,1D0,1D0,1D0,1D0,1D0,     227P    238
-4.5D-1,0D0,0D0,-4.500392639183D-1,2.946009778872D-2,0D0,            227P    239
-4.441801544431D-1,8.835332672776D-2,0D0,-4.184303751019D-1,         227P    240
1.733193398050D-1,0D0,-3.765717490020D-1,2.516180746608D-1,0D0,      227P    241
-3.202499086118D-1,3.202488269252D-1,0D0,-2.516190504911D-1,         227P    242
3.765726272702D-1,0D0,-1.733183533909D-1,4.184255202675D-1,0D0,      227P    243
-8.835723165956D-2,4.441982638801D-1,0D0,-1.432698695195D-6,         227P    244
4.529007103542D-1,0D0,8.835392845222D-2,4.441988547979D-1,0D0,       227P    245
1.733140893823D-1,4.184271753808D-1,0D0,2.516141434512D-1,           227P    246
3.765758133837D-1,0D0,3.202454053796D-1,3.202533349977D-1,0D0,       227P    247
3.765686095106D-1,2.516229190790D-1,0D0,4.184288860193D-1,           227P    248
1.733232709862D-1,0D0,4.441798685667D-1,8.835548923745D-2,0D0,       227P    249
4.500392678428D-1,2.946081093262D-2,0D0,4.5D-1,0D0,0D0,0D0,1D0,      227P    250
0D0,0D0,1D0;                                                         227P    251
102,2,225,227;                                                       229P    252
142,0,211,229,223,1;                                                 231P    253
144,211,1,1,221,231;                                                 233P    254
110,0D0,-4.5D0,0D0,0D0,-3.5D0,0D0;                                   235P    255
110,0D0,-4.58D0,6D-1,0D0,-4.2D-1,6D-1;                               237P    256
120,235,237,3.078760800518D0,6.346017160251D0;                       239P    257
110,0D0,-4.5D0,-6D-1,0D0,-5D-1,-6D-1;                                241P    258
102,4,241,75,63,57;                                                  243P    259
110,1.923076923077D-2,3.141592653590D0,0D0,9.807692307692D-1,        245P    260
3.141592653590D0,0D0;                                                245P    261
110,9.807692307692D-1,3.141592653590D0,0D0,9.807692307692D-1,        247P    262
6.283185307180D0,0D0;                                                247P    263
110,9.807692307692D-1,6.283185307180D0,0D0,1.923076923077D-2,        249P    264
6.283185307180D0,0D0;                                                249P    265
110,1.923076923077D-2,6.283185307180D0,0D0,1.923076923077D-2,        251P    266
3.141592653590D0,0D0;                                                251P    267
102,4,245,247,249,251;                                               253P    268
142,0,239,253,243,1;                                                 255P    269
144,239,1,0,255;                                                     257P    270
110,0D0,-4.5D0,0D0,0D0,-3.5D0,0D0;                                   259P    271
110,0D0,-4.58D0,6D-1,0D0,-4.2D-1,6D-1;                               261P    272
120,259,261,-6.283185307180D-2,3.204424506662D0;                     263P    273
110,0D0,-4.5D0,6D-1,0D0,-5D-1,6D-1;                                  265P    274
102,4,61,265,79,53;                                                  267P    275
110,1.923076923077D-2,3.141592653590D0,0D0,1.923076923077D-2,        269P    276
0D0,0D0;                                                             269P    277
110,1.923076923077D-2,0D0,0D0,9.807692307692D-1,0D0,0D0;             271P    278
110,9.807692307692D-1,0D0,0D0,9.807692307692D-1,                     273P    279
3.141592653590D0,0D0;                                                273P    280
110,9.807692307692D-1,3.141592653590D0,0D0,1.923076923077D-2,        275P    281
3.141592653590D0,0D0;                                                275P    282
102,4,269,271,273,275;                                               277P    283
142,0,263,277,267,1;                                                 279P    284
144,263,1,0,279;                                                     281P    285
128,1,1,1,1,0,0,1,0,0,-1.04D0,-1.04D0,1.04D0,1.04D0,                 283P    286
-1.041041847702D0,-1.041041847702D0,1.041041847702D0,                283P    287
1.041041847702D0,1D0,1D0,1D0,1D0,-1.041041847702D0,-5D-1,            283P    288
-1.04D0,-1.041041847702D0,-5D-1,1.04D0,1.041041847702D0,-5D-1,       283P    289
-1.04D0,1.041041847702D0,-5D-1,1.04D0,-1.04D0,1.04D0,                283P    290
-1.041041847702D0,1.041041847702D0;                                  283P    291
124,0D0,1D0,0D0,0D0,0D0,0D0,1D0,-5D-1,1D0,0D0,0D0,0D0;               285P    292
100,0D0,0D0,0D0,1D0,0D0,-1D0,0D0;                                    287P    293
124,0D0,-1D0,0D0,0D0,0D0,0D0,1D0,-5D-1,-1D0,0D0,0D0,0D0;             289P    294
100,0D0,0D0,0D0,1D0,0D0,-1D0,0D0;                                    291P    295
102,2,287,291;                                                       293P    296
126,21,3,0,0,1,0,0D0,0D0,0D0,0D0,5.263239697276D-2,                  295P    297
1.052646338662D-1,1.578962734230D-1,2.105265911652D-1,               295P    298
2.631581839594D-1,3.157895835021D-1,3.684206600257D-1,               295P    299
4.210516007861D-1,4.736825744561D-1,5.263137103351D-1,               295P    300
5.789451381122D-1,6.315769729959D-1,6.842092238880D-1,               295P    301
7.368418327170D-1,7.894744040559D-1,8.421052560754D-1,               295P    302
8.947369616699D-1,9.473687065308D-1,1D0,1D0,1D0,1D0,1D0,1D0,1D0,     295P    303
1D0,1D0,1D0,1D0,1D0,1D0,1D0,1D0,1D0,1D0,1D0,1D0,1D0,1D0,1D0,1D0,     295P    304
1D0,1D0,1D0,1D0,0D0,0D0,1.000044129583D0,5.512365370959D-2,0D0,      295P    305
9.908452583461D-1,1.653452835242D-1,0D0,9.501410184500D-1,           295P    306
3.261871305806D-1,0D0,8.834870845487D-1,4.781238069611D-1,0D0,       295P    307
7.927434649474D-1,6.170195562590D-1,0D0,6.803740729918D-1,           295P    308
7.390844132877D-1,0D0,5.494460553700D-1,8.409897732184D-1,0D0,       295P    309
4.035311853424D-1,9.199550104831D-1,0D0,2.466097209661D-1,           295P    310
9.738266151747D-1,0D0,8.296146504455D-2,1.001135384703D0,0D0,        295P    311
-8.295023005656D-2,1.001136355368D0,0D0,-2.466001962336D-1,          295P    312
9.738291483959D-1,0D0,-4.035246697165D-1,9.199580654258D-1,0D0,      295P    313
-5.494430414831D-1,8.409919905385D-1,0D0,-6.803740634397D-1,         295P    314
7.390846813774D-1,0D0,-7.927452172037D-1,6.170175196815D-1,0D0,      295P    315
-8.834892001492D-1,4.781200077366D-1,0D0,-9.501424323192D-1,         295P    316
3.261828970853D-1,0D0,-9.908455916456D-1,1.653424488520D-1,0D0,      295P    317
-1.000044126388D0,5.512249402416D-2,0D0,-1D0,0D0,0D0,0D0,1D0,        295P    318
0D0,0D0,1D0;                                                         295P    319
126,21,3,0,0,1,0,0D0,0D0,0D0,0D0,5.263239697276D-2,                  297P    320
1.052646338662D-1,1.578962734230D-1,2.105265911652D-1,               297P    321
2.631581839594D-1,3.157895835021D-1,3.684206600257D-1,               297P    322
4.210516007861D-1,4.736825744561D-1,5.263137103351D-1,               297P    323
5.789451381122D-1,6.315769729959D-1,6.842092238880D-1,               297P    324
7.368418327170D-1,7.894744040559D-1,8.421052560754D-1,               297P    325
8.947369616699D-1,9.473687065308D-1,1D0,1D0,1D0,1D0,1D0,1D0,1D0,     297P    326
1D0,1D0,1D0,1D0,1D0,1D0,1D0,1D0,1D0,1D0,1D0,1D0,1D0,1D0,1D0,1D0,     297P    327
1D0,1D0,1D0,-1D0,0D0,0D0,-1.000044129583D0,-5.512365370959D-2,       297P    328
0D0,-9.908452583461D-1,-1.653452835242D-1,0D0,                       297P    329
-9.501410184500D-1,-3.261871305806D-1,0D0,-8.834870845487D-1,        297P    330
-4.781238069611D-1,0D0,-7.927434649474D-1,-6.170195562590D-1,        297P    331
0D0,-6.803740729918D-1,-7.390844132877D-1,0D0,                       297P    332
-5.494460553700D-1,-8.409897732184D-1,0D0,-4.035311853424D-1,        297P    333
-9.199550104831D-1,0D0,-2.466097209661D-1,-9.738266151747D-1,        297P    334
0D0,-8.296146504454D-2,-1.001135384703D0,0D0,8.295023005656D-2,      297P    335
-1.001136355368D0,0D0,2.466001962336D-1,-9.738291483959D-1,0D0,      297P    336
4.035246697165D-1,-9.199580654258D-1,0D0,5.494430414831D-1,          297P    337
-8.409919905385D-1,0D0,6.803740634397D-1,-7.390846813774D-1,0D0,     297P    338
7.927452172037D-1,-6.170175196815D-1,0D0,8.834892001492D-1,          297P    339
-4.781200077366D-1,0D0,9.501424323192D-1,-3.261828970853D-1,0D0,     297P    340
9.908455916456D-1,-1.653424488520D-1,0D0,1.000044126388D0,           297P    341
-5.512249402416D-2,0D0,1D0,0D0,0D0,0D0,1D0,0D0,0D0,1D0;              297P    342
102,2,295,297;                                                       299P    343
142,0,283,299,293,1;                                                 301P    344
124,0D0,-1D0,0D0,0D0,0D0,0D0,-1D0,-5D-1,1D0,0D0,0D0,0D0;             303P    345
100,0D0,0D0,0D0,6D-1,0D0,-6D-1,0D0;                                  305P    346
124,0D0,1D0,0D0,0D0,0D0,0D0,-1D0,-5D-1,-1D0,0D0,0D0,0D0;             307P    347
100,0D0,0D0,0D0,6D-1,0D0,-6D-1,0D0;                                  309P    348
102,2,305,309;                                                       311P    349
126,19,3,0,0,1,0,0D0,0D0,0D0,0D0,5.882462070229D-2,                  313P    350
1.176492348450D-1,1.764732487103D-1,2.352952680624D-1,               313P    351
2.941184843999D-1,3.529417552721D-1,4.117648348544D-1,               313P    352
4.705879370537D-1,5.294112604263D-1,5.882349960678D-1,               313P    353
6.470592369066D-1,7.058837405397D-1,7.647077139056D-1,               313P    354
8.235297500211D-1,8.823531892851D-1,9.411767407300D-1,1D0,1D0,       313P    355
1D0,1D0,1D0,1D0,1D0,1D0,1D0,1D0,1D0,1D0,1D0,1D0,1D0,1D0,1D0,1D0,     313P    356
1D0,1D0,1D0,1D0,1D0,1D0,6D-1,0D0,0D0,6.000411728602D-1,              313P    357
-3.696805738685D-2,0D0,5.931310001788D-1,-1.108775060289D-1,0D0,     313P    358
5.626807332689D-1,-2.179866830243D-1,0D0,5.130386926285D-1,          313P    359
-3.176651815375D-1,0D0,4.459346314912D-1,-4.065268379978D-1,0D0,     313P    360
3.636432792600D-1,-4.815443356099D-1,0D0,2.689687165722D-1,          313P    361
-5.401641509176D-1,0D0,1.651347692532D-1,-5.803894840275D-1,0D0,     313P    362
5.567744340217D-2,-6.008506379731D-1,0D0,-5.567632336067D-2,         313P    363
-6.008507790078D-1,0D0,-1.651348072951D-1,-5.803895825091D-1,        313P    364
0D0,-2.689705077558D-1,-5.401634157212D-1,0D0,                       313P    365
-3.636464869026D-1,-4.815420594137D-1,0D0,-4.459381713784D-1,        313P    366
-4.065230221598D-1,0D0,-5.130414707594D-1,-3.176606327704D-1,        313P    367
0D0,-5.626821976919D-1,-2.179826364448D-1,0D0,                       313P    368
-5.931313033689D-1,-1.108751203799D-1,0D0,-6.000411692039D-1,        313P    369
-3.696719853849D-2,0D0,-6D-1,0D0,0D0,0D0,1D0,0D0,0D0,1D0;            313P    370
126,19,3,0,0,1,0,0D0,0D0,0D0,0D0,5.882462070229D-2,                  315P    371
1.176492348450D-1,1.764732487103D-1,2.352952680624D-1,               315P    372
2.941184843999D-1,3.529417552721D-1,4.117648348544D-1,               315P    373
4.705879370537D-1,5.294112604263D-1,5.882349960678D-1,               315P    374
6.470592369066D-1,7.058837405397D-1,7.647077139056D-1,               315P    375
8.235297500211D-1,8.823531892851D-1,9.411767407300D-1,1D0,1D0,       315P    376
1D0,1D0,1D0,1D0,1D0,1D0,1D0,1D0,1D0,1D0,1D0,1D0,1D0,1D0,1D0,1D0,     315P    377
1D0,1D0,1D0,1D0,1D0,1D0,-6D-1,0D0,0D0,-6.000411728602D-1,            315P    378
3.696805738685D-2,0D0,-5.931310001788D-1,1.108775060289D-1,0D0,      315P    379
-5.626807332689D-1,2.179866830243D-1,0D0,-5.130386926285D-1,         315P    380
3.176651815375D-1,0D0,-4.459346314912D-1,4.065268379978D-1,0D0,      315P    381
-3.636432792600D-1,4.815443356099D-1,0D0,-2.689687165722D-1,         315P    382
5.401641509176D-1,0D0,-1.651347692532D-1,5.803894840275D-1,0D0,      315P    383
-5.567744340217D-2,6.008506379731D-1,0D0,5.567632336067D-2,          315P    384
6.008507790078D-1,0D0,1.651348072951D-1,5.803895825091D-1,0D0,       315P    385
2.689705077558D-1,5.401634157212D-1,0D0,3.636464869026D-1,           315P    386
4.815420594137D-1,0D0,4.459381713784D-1,4.065230221598D-1,0D0,       315P    387
5.130414707594D-1,3.176606327704D-1,0D0,5.626821976919D-1,           315P    388
2.179826364448D-1,0D0,5.931313033689D-1,1.108751203799D-1,0D0,       315P    389
6.000411692039D-1,3.696719853849D-2,0D0,6D-1,0D0,0D0,0D0,1D0,        315P    390
0D0,0D0,1D0;                                                         315P    391
102,2,313,315;                                                       317P    392
142,0,283,317,311,1;                                                 319P    393
144,283,1,1,301,319;                                                 321P    394
110,0D0,-5D-1,0D0,0D0,5D-1,0D0;                                      323P    395
110,0D0,-5.1D-1,1D0,0D0,1D-2,1D0;                                    325P    396
120,323,325,-6.283185307180D-2,3.204424506662D0;                     327P    397
110,0D0,-5D-1,1D0,0D0,0D0,1D0;                                       329P    398
102,4,67,329,85,87;                                                  331P    399
110,1.923076923077D-2,3.141592653590D0,0D0,1.923076923077D-2,        333P    400
0D0,0D0;                                                             333P    401
110,1.923076923077D-2,0D0,0D0,9.807692307692D-1,0D0,0D0;             335P    402
110,9.807692307692D-1,0D0,0D0,9.807692307692D-1,                     337P    403
3.141592653590D0,0D0;                                                337P    404
110,9.807692307692D-1,3.141592653590D0,0D0,1.923076923077D-2,        339P    405
3.141592653590D0,0D0;                                                339P    406
102,4,333,335,337,339;                                               341P    407
142,0,327,341,331,1;                                                 343P    408
144,327,1,0,343;                                                     345P    409
110,0D0,-5D-1,0D0,0D0,5D-1,0D0;                                      347P    410
110,0D0,-5.1D-1,1D0,0D0,1D-2,1D0;                                    349P    411
120,347,349,3.078760800518D0,6.346017160251D0;                       351P    412
110,0D0,-5D-1,-1D0,0D0,0D0,-1D0;                                     353P    413
102,4,353,91,81,71;                                                  355P    414
110,1.923076923077D-2,3.141592653590D0,0D0,9.807692307692D-1,        357P    415
3.141592653590D0,0D0;                                                357P    416
110,9.807692307692D-1,3.141592653590D0,0D0,9.807692307692D-1,        359P    417
6.283185307180D0,0D0;                                                359P    418
110,9.807692307692D-1,6.283185307180D0,0D0,1.923076923077D-2,        361P    419
6.283185307180D0,0D0;                                                361P    420
110,1.923076923077D-2,6.283185307180D0,0D0,1.923076923077D-2,        363P    421
3.141592653590D0,0D0;                                                363P    422
102,4,357,359,361,363;                                               365P    423
142,0,351,365,355,1;                                                 367P    424
144,351,1,0,367;                                                     369P    425
128,1,1,1,1,0,0,1,0,0,-1.04D0,-1.04D0,1.04D0,1.04D0,                 371P    426
-1.041042007101D0,-1.041042007101D0,1.041042007101D0,                371P    427
1.041042007101D0,1D0,1D0,1D0,1D0,-1.041042007101D0,0D0,-1.04D0,      371P    428
-1.041042007101D0,0D0,1.04D0,1.041042007101D0,0D0,-1.04D0,           371P    429
1.041042007101D0,0D0,1.04D0,-1.04D0,1.04D0,-1.041042007101D0,        371P    430
1.041042007101D0;                                                    371P    431
102,2,85,91;                                                         373P    432
126,21,3,0,0,1,0,0D0,0D0,0D0,0D0,5.263157894737D-2,                  375P    433
1.052631578947D-1,1.578947368421D-1,2.105263157895D-1,               375P    434
2.631578947368D-1,3.157894736842D-1,3.684210526316D-1,               375P    435
4.210526315789D-1,4.736842105263D-1,5.263157894737D-1,               375P    436
5.789473684211D-1,6.315789473684D-1,6.842105263158D-1,               375P    437
7.368421052632D-1,7.894736842105D-1,8.421052631579D-1,               375P    438
8.947368421053D-1,9.473684210526D-1,1D0,1D0,1D0,1D0,1D0,1D0,1D0,     375P    439
1D0,1D0,1D0,1D0,1D0,1D0,1D0,1D0,1D0,1D0,1D0,1D0,1D0,1D0,1D0,1D0,     375P    440
1D0,1D0,1D0,1D0,0D0,0D0,1.000044127069D0,5.512279447927D-2,0D0,      375P    441
9.908455309202D-1,1.653428755069D-1,0D0,9.501422715927D-1,           375P    442
3.261832856915D-1,0D0,8.834888329128D-1,4.781207969554D-1,0D0,       375P    443
7.927449039949D-1,6.170178847095D-1,0D0,6.803746074860D-1,           375P    444
7.390839403448D-1,0D0,5.494460958157D-1,8.409898179503D-1,0D0,       375P    445
4.035299579859D-1,9.199556574293D-1,0D0,2.466066201584D-1,           375P    446
9.738275122628D-1,0D0,8.295648422519D-2,1.001135889155D0,0D0,        375P    447
-8.295648422519D-2,1.001135889155D0,0D0,-2.466066201584D-1,          375P    448
9.738275122628D-1,0D0,-4.035299579859D-1,9.199556574293D-1,0D0,      375P    449
-5.494460958157D-1,8.409898179503D-1,0D0,-6.803746074860D-1,         375P    450
7.390839403448D-1,0D0,-7.927449039949D-1,6.170178847095D-1,0D0,      375P    451
-8.834888329128D-1,4.781207969554D-1,0D0,-9.501422715927D-1,         375P    452
3.261832856915D-1,0D0,-9.908455309202D-1,1.653428755069D-1,0D0,      375P    453
-1.000044127069D0,5.512279447928D-2,0D0,-1D0,0D0,0D0,0D0,1D0,        375P    454
0D0,0D0,1D0;                                                         375P    455
126,21,3,0,0,1,0,0D0,0D0,0D0,0D0,5.263157894737D-2,                  377P    456
1.052631578947D-1,1.578947368421D-1,2.105263157895D-1,               377P    457
2.631578947368D-1,3.157894736842D-1,3.684210526316D-1,               377P    458
4.210526315789D-1,4.736842105263D-1,5.263157894737D-1,               377P    459
5.789473684211D-1,6.315789473684D-1,6.842105263158D-1,               377P    460
7.368421052632D-1,7.894736842105D-1,8.421052631579D-1,               377P    461
8.947368421053D-1,9.473684210526D-1,1D0,1D0,1D0,1D0,1D0,1D0,1D0,     377P    462
1D0,1D0,1D0,1D0,1D0,1D0,1D0,1D0,1D0,1D0,1D0,1D0,1D0,1D0,1D0,1D0,     377P    463
1D0,1D0,1D0,-1D0,0D0,0D0,-1.000044127069D0,-5.512279447928D-2,       377P    464
0D0,-9.908455309202D-1,-1.653428755069D-1,0D0,                       377P    465
-9.501422715927D-1,-3.261832856915D-1,0D0,-8.834888329128D-1,        377P    466
-4.781207969554D-1,0D0,-7.927449039949D-1,-6.170178847095D-1,        377P    467
0D0,-6.803746074860D-1,-7.390839403448D-1,0D0,                       377P    468
-5.494460958157D-1,-8.409898179503D-1,0D0,-4.035299579859D-1,        377P    469
-9.199556574293D-1,0D0,-2.466066201584D-1,-9.738275122628D-1,        377P    470
0D0,-8.295648422519D-2,-1.001135889155D0,0D0,8.295648422519D-2,      377P    471
-1.001135889155D0,0D0,2.466066201584D-1,-9.738275122628D-1,0D0,      377P    472
4.035299579859D-1,-9.199556574293D-1,0D0,5.494460958157D-1,          377P    473
-8.409898179503D-1,0D0,6.803746074860D-1,-7.390839403448D-1,0D0,     377P    474
7.927449039949D-1,-6.170178847095D-1,0D0,8.834888329128D-1,          377P    475
-4.781207969554D-1,0D0,9.501422715927D-1,-3.261832856915D-1,0D0,     377P    476
9.908455309202D-1,-1.653428755069D-1,0D0,1.000044127069D0,           377P    477
-5.512279447928D-2,0D0,1D0,0D0,0D0,0D0,1D0,0D0,0D0,1D0;              377P    478
102,2,375,377;                                                       379P    479
142,0,371,379,373,1;                                                 381P    480
144,371,1,0,381;                                                     383P    481
S      1G      4D    384P    481                                        T      1
