 PTC IGES file: antenna_pcb_cover_any_prt.igs                           S      1
1H,,1H;,25HANTENNA_PCB_COVER_ANY_PRT,29Hantenna_pcb_cover_any_prt.igs,  G      1
49HPro/ENGINEER by Parametric Technology Corporation,7H2006170,32,38,7, G      2
38,15,25HANTENNA_PCB_COVER_ANY_PRT,1.,2,2HMM,32768,0.5,                 G      3
15H20080630.105137,0.00204453,20.4461,3HGRA,7HUnknown,10,0,             G      4
15H20080630.105137;                                                     G      5
     314       1       1       1       0       0       0       001000200D      1
     314       0       4       1       0                   COLOR       1D      2
     314       2       1       1       0       0       0       001000200D      3
     314       0       1       1       0                   COLOR       2D      4
     314       3       1       1       0       0       0       001000200D      5
     314       0       1       1       0                   COLOR       3D      6
     314       4       1       1       0       0       0       001000200D      7
     314       0       1       1       0                   COLOR       4D      8
     314       5       1       1       0       0       0       001000200D      9
     314       0       8       1       0                   COLOR       5D     10
     314       6       1       1       0       0       0       001000200D     11
     314       0       8       1       0                   COLOR       6D     12
     314       7       1       1       0       0       0       001000200D     13
     314       0       8       1       0                   COLOR       7D     14
     314       8       1       1       0       0       0       001000200D     15
     314       0       5       1       0                   COLOR       8D     16
     314       9       1       1       0       0       0       001000200D     17
     314       0       8       1       0                   COLOR       9D     18
     110      10       1       1       0       0       0       001010000D     19
     110       0      -9       1       0                    LINE       1D     20
     110      11       1       1       0       0       0       001010000D     21
     110       0      -9       1       0                    LINE       2D     22
     110      12       1       1       0       0       0       001010000D     23
     110       0      -9       1       0                    LINE       3D     24
     110      13       1       1       0       0       0       001010000D     25
     110       0      -9       1       0                    LINE       4D     26
     110      14       1       1       0       0       0       001010000D     27
     110       0      -9       1       0                    LINE       5D     28
     110      15       1       1       0       0       0       001010000D     29
     110       0      -9       1       0                    LINE       6D     30
     110      16       1       1       0       0       0       001010000D     31
     110       0      -9       1       0                    LINE       7D     32
     110      17       1       1       0       0       0       001010000D     33
     110       0      -9       1       0                    LINE       8D     34
     124      18       1       1       0       0       0       001000000D     35
     124       0       0       2       0                   XFORM       1D     36
     100      20       1       1       0       0      35       001010000D     37
     100       0      -9       1       0                     ARC       1D     38
     110      21       1       1       0       0       0       001010000D     39
     110       0      -9       1       0                    LINE       9D     40
     110      22       1       1       0       0       0       001010000D     41
     110       0      -9       1       0                    LINE      10D     42
     110      23       1       1       0       0       0       001010000D     43
     110       0      -9       1       0                    LINE      11D     44
     110      24       1       1       0       0       0       001010000D     45
     110       0      -9       1       0                    LINE      12D     46
     110      25       1       1       0       0       0       001010000D     47
     110       0      -9       1       0                    LINE      13D     48
     110      26       1       1       0       0       0       001010000D     49
     110       0      -9       1       0                    LINE      14D     50
     110      27       1       1       0       0       0       001010000D     51
     110       0      -9       1       0                    LINE      15D     52
     110      28       1       1       0       0       0       001010000D     53
     110       0      -9       1       0                    LINE      16D     54
     110      29       1       1       0       0       0       001010000D     55
     110       0      -9       1       0                    LINE      17D     56
     110      30       1       1       0       0       0       001010000D     57
     110       0      -9       1       0                    LINE      18D     58
     110      31       1       1       0       0       0       001010000D     59
     110       0      -9       1       0                    LINE      19D     60
     110      32       1       1       0       0       0       001010000D     61
     110       0      -9       1       0                    LINE      20D     62
     110      33       1       1       0       0       0       001010000D     63
     110       0      -9       1       0                    LINE      21D     64
     110      34       1       1       0       0       0       001010000D     65
     110       0      -9       1       0                    LINE      22D     66
     110      35       1       1       0       0       0       001010000D     67
     110       0      -9       1       0                    LINE      23D     68
     110      36       1       1       0       0       0       001010000D     69
     110       0      -9       1       0                    LINE      24D     70
     124      37       1       1       0       0       0       001000000D     71
     124       0       0       2       0                   XFORM       2D     72
     100      39       1       1       0       0      71       001010000D     73
     100       0      -9       1       0                     ARC       2D     74
     110      40       1       1       0       0       0       001010000D     75
     110       0      -9       1       0                    LINE      25D     76
     110      41       1       1       0       0       0       001010000D     77
     110       0      -9       1       0                    LINE      26D     78
     110      42       1       1       0       0       0       001010000D     79
     110       0      -9       1       0                    LINE      27D     80
     110      43       1       1       0       0       0       001010000D     81
     110       0      -9       1       0                    LINE      28D     82
     110      44       1       1       0       0       0       001010000D     83
     110       0      -9       1       0                    LINE      29D     84
     110      45       1       1       0       0       0       001010000D     85
     110       0      -9       1       0                    LINE      30D     86
     110      46       1       1       0       0       0       001010000D     87
     110       0      -9       1       0                    LINE      31D     88
     110      47       1       1       0       0       0       001010000D     89
     110       0      -9       1       0                    LINE      32D     90
     110      48       1       1       0       0       0       001010000D     91
     110       0      -9       1       0                    LINE      33D     92
     110      49       1       1       0       0       0       001010000D     93
     110       0      -9       1       0                    LINE      34D     94
     110      50       1       1       0       0       0       001010000D     95
     110       0      -9       1       0                    LINE      35D     96
     110      51       1       1       0       0       0       001010000D     97
     110       0      -9       1       0                    LINE      36D     98
     124      52       1       1       0       0       0       001000000D     99
     124       0       0       2       0                   XFORM       3D    100
     100      54       1       1       0       0      99       001010000D    101
     100       0      -9       1       0                     ARC       3D    102
     110      55       1       1       0       0       0       001010000D    103
     110       0      -9       1       0                    LINE      37D    104
     110      56       1       1       0       0       0       001010000D    105
     110       0      -9       2       0                    LINE      38D    106
     124      58       1       1       0       0       0       001000000D    107
     124       0       0       2       0                   XFORM       4D    108
     100      60       1       1       0       0     107       001010000D    109
     100       0      -9       2       0                     ARC       4D    110
     110      62       1       1       0       0       0       001010000D    111
     110       0      -9       1       0                    LINE      39D    112
     110      63       1       1       0       0       0       001010000D    113
     110       0      -9       1       0                    LINE      40D    114
     110      64       1       1       0       0       0       001010000D    115
     110       0      -9       1       0                    LINE      41D    116
     110      65       1       1       0       0       0       001010000D    117
     110       0      -9       1       0                    LINE      42D    118
     110      66       1       1       0       0       0       001010000D    119
     110       0      -9       1       0                    LINE      43D    120
     110      67       1       1       0       0       0       001010000D    121
     110       0      -9       1       0                    LINE      44D    122
     110      68       1       1       0       0       0       001010000D    123
     110       0      -9       1       0                    LINE      45D    124
     110      69       1       1       0       0       0       001010000D    125
     110       0      -9       1       0                    LINE      46D    126
     110      70       1       1       0       0       0       001010000D    127
     110       0      -9       1       0                    LINE      47D    128
     110      71       1       1       0       0       0       001010000D    129
     110       0      -9       1       0                    LINE      48D    130
     110      72       1       1       0       0       0       001010000D    131
     110       0      -9       1       0                    LINE      49D    132
     110      73       1       1       0       0       0       001010000D    133
     110       0      -9       1       0                    LINE      50D    134
     128      74       1       1       0       0       0       001010000D    135
     128       0      -9       4       0                  SPLSRF       1D    136
     110      78       1       1       0       0       0       001010000D    137
     110       0       0       1       0                    LINE      51D    138
     102      79       1       1       0       0       0       001010000D    139
     102       0       0       1       0                  CCURVE       1D    140
     110      80       1       1       0       0       0       001010500D    141
     110       0      -9       1       0                    LINE      52D    142
     110      81       1       1       0       0       0       001010500D    143
     110       0      -9       1       0                    LINE      53D    144
     110      82       1       1       0       0       0       001010500D    145
     110       0      -9       1       0                    LINE      54D    146
     110      83       1       1       0       0       0       001010500D    147
     110       0      -9       1       0                    LINE      55D    148
     110      84       1       1       0       0       0       001010500D    149
     110       0      -9       1       0                    LINE      56D    150
     110      85       1       1       0       0       0       001010500D    151
     110       0      -9       1       0                    LINE      57D    152
     110      86       1       1       0       0       0       001010500D    153
     110       0      -9       1       0                    LINE      58D    154
     110      87       1       1       0       0       0       001010500D    155
     110       0      -9       1       0                    LINE      59D    156
     110      88       1       1       0       0       0       001010500D    157
     110       0      -9       1       0                    LINE      60D    158
     102      89       1       1       0       0       0       001010500D    159
     102       0       0       1       0                  CCURVE       2D    160
     142      90       1       1       0       0       0       001010500D    161
     142       0       0       1       0                  UV_BND       1D    162
     144      91       1       1       0       0       0       000000000D    163
     144       0      -9       1       0                 TRM_SRF       1D    164
     128      92       1       1       0       0       0       001010000D    165
     128       0      -9       6       0                  SPLSRF       2D    166
     124      98       1       1       0       0       0       001000000D    167
     124       0       0       2       0                   XFORM       5D    168
     100     100       1       1       0       0     167       001010000D    169
     100       0       0       1       0                     ARC       5D    170
     110     101       1       1       0       0       0       001010000D    171
     110       0       0       1       0                    LINE      61D    172
     102     102       1       1       0       0       0       001010000D    173
     102       0       0       1       0                  CCURVE       3D    174
     110     103       1       1       0       0       0       001010500D    175
     110       0      -9       1       0                    LINE      62D    176
     110     104       1       1       0       0       0       001010500D    177
     110       0      -9       1       0                    LINE      63D    178
     110     105       1       1       0       0       0       001010500D    179
     110       0      -9       1       0                    LINE      64D    180
     126     106       1       1       0       0       0       001010500D    181
     126       0      -9      17       0                B_SPLINE       1D    182
     110     123       1       1       0       0       0       001010500D    183
     110       0      -9       1       0                    LINE      65D    184
     110     124       1       1       0       0       0       001010500D    185
     110       0      -9       1       0                    LINE      66D    186
     102     125       1       1       0       0       0       001010500D    187
     102       0       0       1       0                  CCURVE       4D    188
     142     126       1       1       0       0       0       001010500D    189
     142       0       0       1       0                  UV_BND       2D    190
     144     127       1       1       0       0       0       000000000D    191
     144       0      -9       1       0                 TRM_SRF       2D    192
     128     128       1       1       0       0       0       001010000D    193
     128       0      -9       6       0                  SPLSRF       3D    194
     110     134       1       1       0       0       0       001010000D    195
     110       0       0       1       0                    LINE      67D    196
     110     135       1       1       0       0       0       001010000D    197
     110       0       0       1       0                    LINE      68D    198
     110     136       1       1       0       0       0       001010000D    199
     110       0       0       1       0                    LINE      69D    200
     102     137       1       1       0       0       0       001010000D    201
     102       0       0       1       0                  CCURVE       5D    202
     110     138       1       1       0       0       0       001010500D    203
     110       0      -9       1       0                    LINE      70D    204
     110     139       1       1       0       0       0       001010500D    205
     110       0      -9       1       0                    LINE      71D    206
     110     140       1       1       0       0       0       001010500D    207
     110       0      -9       1       0                    LINE      72D    208
     110     141       1       1       0       0       0       001010500D    209
     110       0      -9       1       0                    LINE      73D    210
     110     142       1       1       0       0       0       001010500D    211
     110       0      -9       1       0                    LINE      74D    212
     110     143       1       1       0       0       0       001010500D    213
     110       0      -9       1       0                    LINE      75D    214
     102     144       1       1       0       0       0       001010500D    215
     102       0       0       1       0                  CCURVE       6D    216
     142     145       1       1       0       0       0       001010500D    217
     142       0       0       1       0                  UV_BND       3D    218
     144     146       1       1       0       0       0       000000000D    219
     144       0      -9       1       0                 TRM_SRF       3D    220
     128     147       1       1       0       0       0       001010000D    221
     128       0      -9       6       0                  SPLSRF       4D    222
     110     153       1       1       0       0       0       001010000D    223
     110       0       0       1       0                    LINE      76D    224
     110     154       1       1       0       0       0       001010000D    225
     110       0       0       1       0                    LINE      77D    226
     102     155       1       1       0       0       0       001010000D    227
     102       0       0       1       0                  CCURVE       7D    228
     110     156       1       1       0       0       0       001010500D    229
     110       0      -9       1       0                    LINE      78D    230
     110     157       1       1       0       0       0       001010500D    231
     110       0      -9       1       0                    LINE      79D    232
     110     158       1       1       0       0       0       001010500D    233
     110       0      -9       1       0                    LINE      80D    234
     110     159       1       1       0       0       0       001010500D    235
     110       0      -9       1       0                    LINE      81D    236
     110     160       1       1       0       0       0       001010500D    237
     110       0      -9       1       0                    LINE      82D    238
     102     161       1       1       0       0       0       001010500D    239
     102       0       0       1       0                  CCURVE       8D    240
     142     162       1       1       0       0       0       001010500D    241
     142       0       0       1       0                  UV_BND       4D    242
     144     163       1       1       0       0       0       000000000D    243
     144       0      -9       1       0                 TRM_SRF       4D    244
     128     164       1       1       0       0       0       001010000D    245
     128       0      -9       6       0                  SPLSRF       5D    246
     110     170       1       1       0       0       0       001010000D    247
     110       0       0       1       0                    LINE      83D    248
     110     171       1       1       0       0       0       001010000D    249
     110       0       0       1       0                    LINE      84D    250
     110     172       1       1       0       0       0       001010000D    251
     110       0       0       1       0                    LINE      85D    252
     110     173       1       1       0       0       0       001010000D    253
     110       0       0       1       0                    LINE      86D    254
     102     174       1       1       0       0       0       001010000D    255
     102       0       0       1       0                  CCURVE       9D    256
     110     175       1       1       0       0       0       001010500D    257
     110       0      -9       1       0                    LINE      87D    258
     110     176       1       1       0       0       0       001010500D    259
     110       0      -9       1       0                    LINE      88D    260
     110     177       1       1       0       0       0       001010500D    261
     110       0      -9       1       0                    LINE      89D    262
     110     178       1       1       0       0       0       001010500D    263
     110       0      -9       1       0                    LINE      90D    264
     110     179       1       1       0       0       0       001010500D    265
     110       0      -9       1       0                    LINE      91D    266
     110     180       1       1       0       0       0       001010500D    267
     110       0      -9       1       0                    LINE      92D    268
     110     181       1       1       0       0       0       001010500D    269
     110       0      -9       1       0                    LINE      93D    270
     110     182       1       1       0       0       0       001010500D    271
     110       0      -9       1       0                    LINE      94D    272
     110     183       1       1       0       0       0       001010500D    273
     110       0      -9       1       0                    LINE      95D    274
     102     184       1       1       0       0       0       001010500D    275
     102       0       0       1       0                  CCURVE      10D    276
     142     185       1       1       0       0       0       001010500D    277
     142       0       0       1       0                  UV_BND       5D    278
     144     186       1       1       0       0       0       000000000D    279
     144       0      -9       1       0                 TRM_SRF       5D    280
     128     187       1       1       0       0       0       001010000D    281
     128       0      -9       8       0                  SPLSRF       6D    282
     110     195       1       1       0       0       0       001010000D    283
     110       0       0       1       0                    LINE      96D    284
     102     196       1       1       0       0       0       001010000D    285
     102       0       0       1       0                  CCURVE      11D    286
     110     197       1       1       0       0       0       001010500D    287
     110       0      -9       1       0                    LINE      97D    288
     110     198       1       1       0       0       0       001010500D    289
     110       0      -9       1       0                    LINE      98D    290
     110     199       1       1       0       0       0       001010500D    291
     110       0      -9       1       0                    LINE      99D    292
     110     200       1       1       0       0       0       001010500D    293
     110       0      -9       1       0                    LINE     100D    294
     102     201       1       1       0       0       0       001010500D    295
     102       0       0       1       0                  CCURVE      12D    296
     142     202       1       1       0       0       0       001010500D    297
     142       0       0       1       0                  UV_BND       6D    298
     144     203       1       1       0       0       0       000000000D    299
     144       0      -9       1       0                 TRM_SRF       6D    300
     128     204       1       1       0       0       0       001010000D    301
     128       0      -9       7       0                  SPLSRF       7D    302
     102     211       1       1       0       0       0       001010000D    303
     102       0       0       1       0                  CCURVE      13D    304
     110     212       1       1       0       0       0       001010500D    305
     110       0      -9       1       0                    LINE     101D    306
     110     213       1       1       0       0       0       001010500D    307
     110       0      -9       1       0                    LINE     102D    308
     110     214       1       1       0       0       0       001010500D    309
     110       0      -9       1       0                    LINE     103D    310
     110     215       1       1       0       0       0       001010500D    311
     110       0      -9       1       0                    LINE     104D    312
     102     216       1       1       0       0       0       001010500D    313
     102       0       0       1       0                  CCURVE      14D    314
     142     217       1       1       0       0       0       001010500D    315
     142       0       0       1       0                  UV_BND       7D    316
     144     218       1       1       0       0       0       000000000D    317
     144       0      -9       1       0                 TRM_SRF       7D    318
     128     219       1       1       0       0       0       001010000D    319
     128       0      -9       6       0                  SPLSRF       8D    320
     124     225       1       1       0       0       0       001000000D    321
     124       0       0       2       0                   XFORM       6D    322
     100     227       1       1       0       0     321       001010000D    323
     100       0       0       1       0                     ARC       6D    324
     110     228       1       1       0       0       0       001010000D    325
     110       0       0       1       0                    LINE     105D    326
     102     229       1       1       0       0       0       001010000D    327
     102       0       0       1       0                  CCURVE      15D    328
     110     230       1       1       0       0       0       001010500D    329
     110       0      -9       1       0                    LINE     106D    330
     110     231       1       1       0       0       0       001010500D    331
     110       0      -9       1       0                    LINE     107D    332
     110     232       1       1       0       0       0       001010500D    333
     110       0      -9       1       0                    LINE     108D    334
     126     233       1       1       0       0       0       001010500D    335
     126       0      -9      17       0                B_SPLINE       2D    336
     110     250       1       1       0       0       0       001010500D    337
     110       0      -9       1       0                    LINE     109D    338
     110     251       1       1       0       0       0       001010500D    339
     110       0      -9       1       0                    LINE     110D    340
     102     252       1       1       0       0       0       001010500D    341
     102       0       0       1       0                  CCURVE      16D    342
     142     253       1       1       0       0       0       001010500D    343
     142       0       0       1       0                  UV_BND       8D    344
     144     254       1       1       0       0       0       000000000D    345
     144       0      -9       1       0                 TRM_SRF       8D    346
     128     255       1       1       0       0       0       001010000D    347
     128       0      -9       7       0                  SPLSRF       9D    348
     110     262       1       1       0       0       0       001010000D    349
     110       0       0       1       0                    LINE     111D    350
     102     263       1       1       0       0       0       001010000D    351
     102       0       0       1       0                  CCURVE      17D    352
     110     264       1       1       0       0       0       001010500D    353
     110       0      -9       1       0                    LINE     112D    354
     110     265       1       1       0       0       0       001010500D    355
     110       0      -9       1       0                    LINE     113D    356
     110     266       1       1       0       0       0       001010500D    357
     110       0      -9       1       0                    LINE     114D    358
     110     267       1       1       0       0       0       001010500D    359
     110       0      -9       1       0                    LINE     115D    360
     102     268       1       1       0       0       0       001010500D    361
     102       0       0       1       0                  CCURVE      18D    362
     142     269       1       1       0       0       0       001010500D    363
     142       0       0       1       0                  UV_BND       9D    364
     144     270       1       1       0       0       0       000000000D    365
     144       0      -9       1       0                 TRM_SRF       9D    366
     128     271       1       1       0       0       0       001010000D    367
     128       0      -9       7       0                  SPLSRF      10D    368
     102     278       1       1       0       0       0       001010000D    369
     102       0       0       1       0                  CCURVE      19D    370
     110     279       1       1       0       0       0       001010500D    371
     110       0      -9       1       0                    LINE     116D    372
     110     280       1       1       0       0       0       001010500D    373
     110       0      -9       1       0                    LINE     117D    374
     110     281       1       1       0       0       0       001010500D    375
     110       0      -9       1       0                    LINE     118D    376
     110     282       1       1       0       0       0       001010500D    377
     110       0      -9       2       0                    LINE     119D    378
     110     284       1       1       0       0       0       001010500D    379
     110       0      -9       2       0                    LINE     120D    380
     110     286       1       1       0       0       0       001010500D    381
     110       0      -9       2       0                    LINE     121D    382
     102     288       1       1       0       0       0       001010500D    383
     102       0       0       1       0                  CCURVE      20D    384
     142     289       1       1       0       0       0       001010500D    385
     142       0       0       1       0                  UV_BND      10D    386
     144     290       1       1       0       0       0       000000000D    387
     144       0      -9       1       0                 TRM_SRF      10D    388
     128     291       1       1       0       0       0       001010000D    389
     128       0      -9       6       0                  SPLSRF      11D    390
     110     297       1       1       0       0       0       001010000D    391
     110       0       0       1       0                    LINE     122D    392
     110     298       1       1       0       0       0       001010000D    393
     110       0       0       1       0                    LINE     123D    394
     102     299       1       1       0       0       0       001010000D    395
     102       0       0       1       0                  CCURVE      21D    396
     110     300       1       1       0       0       0       001010500D    397
     110       0      -9       1       0                    LINE     124D    398
     110     301       1       1       0       0       0       001010500D    399
     110       0      -9       1       0                    LINE     125D    400
     110     302       1       1       0       0       0       001010500D    401
     110       0      -9       1       0                    LINE     126D    402
     110     303       1       1       0       0       0       001010500D    403
     110       0      -9       1       0                    LINE     127D    404
     110     304       1       1       0       0       0       001010500D    405
     110       0      -9       1       0                    LINE     128D    406
     102     305       1       1       0       0       0       001010500D    407
     102       0       0       1       0                  CCURVE      22D    408
     142     306       1       1       0       0       0       001010500D    409
     142       0       0       1       0                  UV_BND      11D    410
     144     307       1       1       0       0       0       000000000D    411
     144       0      -9       1       0                 TRM_SRF      11D    412
     128     308       1       1       0       0       0       001010000D    413
     128       0      -9       6       0                  SPLSRF      12D    414
     110     314       1       1       0       0       0       001010000D    415
     110       0       0       1       0                    LINE     129D    416
     110     315       1       1       0       0       0       001010000D    417
     110       0       0       1       0                    LINE     130D    418
     102     316       1       1       0       0       0       001010000D    419
     102       0       0       1       0                  CCURVE      23D    420
     110     317       1       1       0       0       0       001010500D    421
     110       0      -9       1       0                    LINE     131D    422
     110     318       1       1       0       0       0       001010500D    423
     110       0      -9       1       0                    LINE     132D    424
     110     319       1       1       0       0       0       001010500D    425
     110       0      -9       1       0                    LINE     133D    426
     126     320       1       1       0       0       0       001010500D    427
     126       0      -9      17       0                B_SPLINE       3D    428
     110     337       1       1       0       0       0       001010500D    429
     110       0      -9       1       0                    LINE     134D    430
     102     338       1       1       0       0       0       001010500D    431
     102       0       0       1       0                  CCURVE      24D    432
     142     339       1       1       0       0       0       001010500D    433
     142       0       0       1       0                  UV_BND      12D    434
     144     340       1       1       0       0       0       000000000D    435
     144       0      -9       1       0                 TRM_SRF      12D    436
     128     341       1       1       0       0       0       001010000D    437
     128       0      -9       4       0                  SPLSRF      13D    438
     102     345       1       1       0       0       0       001010000D    439
     102       0       0       1       0                  CCURVE      25D    440
     110     346       1       1       0       0       0       001010500D    441
     110       0      -9       1       0                    LINE     135D    442
     110     347       1       1       0       0       0       001010500D    443
     110       0      -9       1       0                    LINE     136D    444
     110     348       1       1       0       0       0       001010500D    445
     110       0      -9       1       0                    LINE     137D    446
     110     349       1       1       0       0       0       001010500D    447
     110       0      -9       1       0                    LINE     138D    448
     110     350       1       1       0       0       0       001010500D    449
     110       0      -9       1       0                    LINE     139D    450
     110     351       1       1       0       0       0       001010500D    451
     110       0      -9       1       0                    LINE     140D    452
     102     352       1       1       0       0       0       001010500D    453
     102       0       0       1       0                  CCURVE      26D    454
     142     353       1       1       0       0       0       001010500D    455
     142       0       0       1       0                  UV_BND      13D    456
     144     354       1       1       0       0       0       000000000D    457
     144       0      -9       1       0                 TRM_SRF      13D    458
     128     355       1       1       0       0       0       001010000D    459
     128       0      -9       6       0                  SPLSRF      14D    460
     110     361       1       1       0       0       0       001010000D    461
     110       0       0       1       0                    LINE     141D    462
     110     362       1       1       0       0       0       001010000D    463
     110       0       0       1       0                    LINE     142D    464
     102     363       1       1       0       0       0       001010000D    465
     102       0       0       1       0                  CCURVE      27D    466
     110     364       1       1       0       0       0       001010500D    467
     110       0      -9       1       0                    LINE     143D    468
     110     365       1       1       0       0       0       001010500D    469
     110       0      -9       1       0                    LINE     144D    470
     110     366       1       1       0       0       0       001010500D    471
     110       0      -9       1       0                    LINE     145D    472
     126     367       1       1       0       0       0       001010500D    473
     126       0      -9      17       0                B_SPLINE       4D    474
     110     384       1       1       0       0       0       001010500D    475
     110       0      -9       1       0                    LINE     146D    476
     102     385       1       1       0       0       0       001010500D    477
     102       0       0       1       0                  CCURVE      28D    478
     142     386       1       1       0       0       0       001010500D    479
     142       0       0       1       0                  UV_BND      14D    480
     144     387       1       1       0       0       0       000000000D    481
     144       0      -9       1       0                 TRM_SRF      14D    482
     110     388       1       1       0       0       0       001010000D    483
     110       0      -9       2       0                    LINE     147D    484
     110     390       1       1       0       0       0       001010000D    485
     110       0      -9       1       0                    LINE     148D    486
     120     391       1       1       0       0       0       001010000D    487
     120       0      -9       1       0                    SREV       1D    488
     124     392       1       1       0       0       0       001000000D    489
     124       0       0       2       0                   XFORM       7D    490
     100     394       1       1       0       0     489       001010000D    491
     100       0       0       1       0                     ARC       7D    492
     110     395       1       1       0       0       0       001010000D    493
     110       0       0       1       0                    LINE     149D    494
     102     396       1       1       0       0       0       001010000D    495
     102       0       0       1       0                  CCURVE      29D    496
     110     397       1       1       0       0       0       001010500D    497
     110       0      -9       2       0                    LINE     150D    498
     110     399       1       1       0       0       0       001010500D    499
     110       0      -9       2       0                    LINE     151D    500
     110     401       1       1       0       0       0       001010500D    501
     110       0      -9       2       0                    LINE     152D    502
     110     403       1       1       0       0       0       001010500D    503
     110       0      -9       2       0                    LINE     153D    504
     102     405       1       1       0       0       0       001010500D    505
     102       0       0       1       0                  CCURVE      30D    506
     142     406       1       1       0       0       0       001010500D    507
     142       0       0       1       0                  UV_BND      15D    508
     144     407       1       1       0       0       0       000000000D    509
     144       0      -9       1       0                 TRM_SRF      15D    510
     110     408       1       1       0       0       0       001010000D    511
     110       0      -9       1       0                    LINE     154D    512
     110     409       1       1       0       0       0       001010000D    513
     110       0      -9       2       0                    LINE     155D    514
     120     411       1       1       0       0       0       001010000D    515
     120       0      -9       1       0                    SREV       2D    516
     124     412       1       1       0       0       0       001000000D    517
     124       0       0       2       0                   XFORM       8D    518
     100     414       1       1       0       0     517       001010000D    519
     100       0       0       2       0                     ARC       8D    520
     110     416       1       1       0       0       0       001010000D    521
     110       0       0       1       0                    LINE     156D    522
     102     417       1       1       0       0       0       001010000D    523
     102       0       0       1       0                  CCURVE      31D    524
     110     418       1       1       0       0       0       001010500D    525
     110       0      -9       2       0                    LINE     157D    526
     110     420       1       1       0       0       0       001010500D    527
     110       0      -9       2       0                    LINE     158D    528
     110     422       1       1       0       0       0       001010500D    529
     110       0      -9       2       0                    LINE     159D    530
     110     424       1       1       0       0       0       001010500D    531
     110       0      -9       2       0                    LINE     160D    532
     102     426       1       1       0       0       0       001010500D    533
     102       0       0       1       0                  CCURVE      32D    534
     142     427       1       1       0       0       0       001010500D    535
     142       0       0       1       0                  UV_BND      16D    536
     144     428       1       1       0       0       0       000000000D    537
     144       0      -9       1       0                 TRM_SRF      16D    538
     128     429       1       1       0       0       0       001010000D    539
     128       0      -9       7       0                  SPLSRF      15D    540
     102     436       1       1       0       0       0       001010000D    541
     102       0       0       1       0                  CCURVE      33D    542
     110     437       1       1       0       0       0       001010500D    543
     110       0      -9       2       0                    LINE     161D    544
     110     439       1       1       0       0       0       001010500D    545
     110       0      -9       2       0                    LINE     162D    546
     110     441       1       1       0       0       0       001010500D    547
     110       0      -9       2       0                    LINE     163D    548
     110     443       1       1       0       0       0       001010500D    549
     110       0      -9       2       0                    LINE     164D    550
     102     445       1       1       0       0       0       001010500D    551
     102       0       0       1       0                  CCURVE      34D    552
     142     446       1       1       0       0       0       001010500D    553
     142       0       0       1       0                  UV_BND      17D    554
     144     447       1       1       0       0       0       000000000D    555
     144       0      -9       1       0                 TRM_SRF      17D    556
     128     448       1       1       0       0       0       001010000D    557
     128       0      -9       7       0                  SPLSRF      16D    558
     102     455       1       1       0       0       0       001010000D    559
     102       0       0       1       0                  CCURVE      35D    560
     110     456       1       1       0       0       0       001010500D    561
     110       0      -9       2       0                    LINE     165D    562
     110     458       1       1       0       0       0       001010500D    563
     110       0      -9       2       0                    LINE     166D    564
     110     460       1       1       0       0       0       001010500D    565
     110       0      -9       2       0                    LINE     167D    566
     110     462       1       1       0       0       0       001010500D    567
     110       0      -9       2       0                    LINE     168D    568
     102     464       1       1       0       0       0       001010500D    569
     102       0       0       1       0                  CCURVE      36D    570
     142     465       1       1       0       0       0       001010500D    571
     142       0       0       1       0                  UV_BND      18D    572
     144     466       1       1       0       0       0       000000000D    573
     144       0      -9       1       0                 TRM_SRF      18D    574
     128     467       1       1       0       0       0       001010000D    575
     128       0      -9       6       0                  SPLSRF      17D    576
     102     473       1       1       0       0       0       001010000D    577
     102       0       0       1       0                  CCURVE      37D    578
     110     474       1       1       0       0       0       001010500D    579
     110       0      -9       2       0                    LINE     169D    580
     110     476       1       1       0       0       0       001010500D    581
     110       0      -9       2       0                    LINE     170D    582
     110     478       1       1       0       0       0       001010500D    583
     110       0      -9       2       0                    LINE     171D    584
     110     480       1       1       0       0       0       001010500D    585
     110       0      -9       2       0                    LINE     172D    586
     102     482       1       1       0       0       0       001010500D    587
     102       0       0       1       0                  CCURVE      38D    588
     142     483       1       1       0       0       0       001010500D    589
     142       0       0       1       0                  UV_BND      19D    590
     144     484       1       1       0       0       0       000000000D    591
     144       0      -9       1       0                 TRM_SRF      19D    592
     128     485       1       1       0       0       0       001010000D    593
     128       0      -9       8       0                  SPLSRF      18D    594
     110     493       1       1       0       0       0       001010000D    595
     110       0       0       1       0                    LINE     173D    596
     102     494       1       1       0       0       0       001010000D    597
     102       0       0       1       0                  CCURVE      39D    598
     110     495       1       1       0       0       0       001010500D    599
     110       0      -9       1       0                    LINE     174D    600
     110     496       1       1       0       0       0       001010500D    601
     110       0      -9       1       0                    LINE     175D    602
     110     497       1       1       0       0       0       001010500D    603
     110       0      -9       1       0                    LINE     176D    604
     110     498       1       1       0       0       0       001010500D    605
     110       0      -9       1       0                    LINE     177D    606
     102     499       1       1       0       0       0       001010500D    607
     102       0       0       1       0                  CCURVE      40D    608
     142     500       1       1       0       0       0       001010500D    609
     142       0       0       1       0                  UV_BND      20D    610
     144     501       1       1       0       0       0       000000000D    611
     144       0      -9       1       0                 TRM_SRF      20D    612
     128     502       1       1       0       0       0       001010000D    613
     128       0      -9       6       0                  SPLSRF      19D    614
     102     508       1       1       0       0       0       001010000D    615
     102       0       0       1       0                  CCURVE      41D    616
     110     509       1       1       0       0       0       001010500D    617
     110       0      -9       1       0                    LINE     178D    618
     110     510       1       1       0       0       0       001010500D    619
     110       0      -9       1       0                    LINE     179D    620
     110     511       1       1       0       0       0       001010500D    621
     110       0      -9       1       0                    LINE     180D    622
     110     512       1       1       0       0       0       001010500D    623
     110       0      -9       1       0                    LINE     181D    624
     102     513       1       1       0       0       0       001010500D    625
     102       0       0       1       0                  CCURVE      42D    626
     142     514       1       1       0       0       0       001010500D    627
     142       0       0       1       0                  UV_BND      21D    628
     144     515       1       1       0       0       0       000000000D    629
     144       0      -9       1       0                 TRM_SRF      21D    630
314,1.1D0,1.2D0,1D2;                                                   1P      1
314,1.1D1,1.1D1,1.1D1;                                                 3P      2
314,3.92D1,1.2D0,1.2D0;                                                5P      3
314,4.1D1,0D0,2.2D1;                                                   7P      4
314,7.529411764706D1,7.529411764706D1,7.529411764706D1;                9P      5
314,8.784D1,9.49D1,1D2;                                               11P      6
314,9.6D1,9.6D1,9.6D1;                                                13P      7
314,9.8D1,6.27D1,0D0;                                                 15P      8
314,1D2,1D2,9.49D1;                                                   17P      9
110,1.385D1,0D0,-2D-1,3.61D0,0D0,-2D-1;                               19P     10
110,1.385D1,0D0,-1.453D1,1.385D1,0D0,-2D-1;                           21P     11
110,2D-1,0D0,-1.453D1,1.385D1,0D0,-1.453D1;                           23P     12
110,2D-1,0D0,-8.98D0,2D-1,0D0,-1.453D1;                               25P     13
110,0D0,0D0,-8.98D0,2D-1,0D0,-8.98D0;                                 27P     14
110,3.61D0,0D0,-4.98D0,0D0,0D0,-4.98D0;                               29P     15
110,3.61D0,0D0,-2D-1,3.61D0,0D0,-4.78D0;                              31P     16
110,3.61D0,-1D0,-2D-1,1.291464997606D1,-1D0,-2D-1;                    33P     17
124,1D0,0D0,0D0,1.348232498803D1,0D0,-1D0,0D0,-1D0,0D0,0D0,-1D0,      35P     18
-2D-1;                                                                35P     19
100,0D0,0D0,0D0,5.676750119721D-1,0D0,-5.676750119721D-1,0D0;         37P     20
110,1.405D1,-1D0,-2D-1,1.385D1,-1D0,-2D-1;                            39P     21
110,1.385D1,0D0,-2D-1,1.385D1,-1D0,-2D-1;                             41P     22
110,3.61D0,2D-1,0D0,3.61D0,2D-1,-4.78D0;                              43P     23
110,3.61D0,-1D0,0D0,3.61D0,2D-1,0D0;                                  45P     24
110,3.61D0,0D0,-2D-1,3.61D0,-1D0,-2D-1;                               47P     25
110,3.61D0,2D-1,-4.78D0,0D0,2D-1,-4.78D0;                             49P     26
110,3.61D0,0D0,-4.78D0,3.61D0,2D-1,-4.78D0;                           51P     27
110,0D0,0D0,-4.98D0,0D0,0D0,-8.98D0;                                  53P     28
110,0D0,-1D0,-8.98D0,0D0,0D0,-8.98D0;                                 55P     29
110,0D0,2D-1,-4.78D0,0D0,2D-1,-1.473D1;                               57P     30
110,0D0,-1D0,-4.78D0,0D0,2D-1,-4.78D0;                                59P     31
110,0D0,0D0,-4.98D0,0D0,-1D0,-4.98D0;                                 61P     32
110,2D-1,-1D0,-8.98D0,2D-1,0D0,-8.98D0;                               63P     33
110,2D-1,-1D0,-8.98D0,0D0,-1D0,-8.98D0;                               65P     34
110,2D-1,-1D0,-1.453D1,2D-1,-1D0,-8.98D0;                             67P     35
110,1.385D1,-1D0,-1.453D1,1.427302188329D0,-1D0,-1.453D1;             69P     36
124,-1D0,0D0,0D0,7.136510941645D-1,0D0,-1D0,0D0,-1D0,0D0,0D0,         71P     37
1D0,-1.453D1;                                                         71P     38
100,0D0,0D0,0D0,7.136510941645D-1,0D0,-7.136510941645D-1,0D0;         73P     39
110,0D0,-1D0,-1.453D1,2D-1,-1D0,-1.453D1;                             75P     40
110,2D-1,0D0,-1.453D1,2D-1,-1D0,-1.453D1;                             77P     41
110,1.385D1,-1D0,-2D-1,1.385D1,-1D0,-1.453D1;                         79P     42
110,1.385D1,0D0,-1.453D1,1.385D1,-1D0,-1.453D1;                       81P     43
110,1.405D1,-1D0,-1.473D1,1.405D1,-1D0,-2D-1;                         83P     44
110,1.427302188329D0,-1D0,-1.473D1,1.405D1,-1D0,-1.473D1;             85P     45
110,1.405D1,2D-1,-1.473D1,1.405D1,2D-1,0D0;                           87P     46
110,1.405D1,-1D0,-1.473D1,1.405D1,2D-1,-1.473D1;                      89P     47
110,1.405D1,2D-1,0D0,3.61D0,2D-1,0D0;                                 91P     48
110,1.405D1,-1D0,0D0,1.405D1,2D-1,0D0;                                93P     49
110,0D0,2D-1,-1.473D1,1.405D1,2D-1,-1.473D1;                          95P     50
110,0D0,-1D0,-1.473D1,0D0,2D-1,-1.473D1;                              97P     51
124,-1D0,0D0,0D0,7.136510941645D-1,0D0,-1D0,0D0,-1D0,0D0,0D0,         99P     52
1D0,-1.473D1;                                                         99P     53
100,0D0,0D0,0D0,7.136510941645D-1,0D0,-7.136510941645D-1,0D0;        101P     54
110,0D0,-1D0,-1.453D1,0D0,-1D0,-1.473D1;                             103P     55
110,1.427302188329D0,-1D0,-1.453D1,1.427302188329D0,-1D0,            105P     56
-1.473D1;                                                            105P     57
124,1D0,2.542458099395D-14,0D0,1.348232498803D1,                     107P     58
2.542458099395D-14,-1D0,0D0,-1D0,0D0,0D0,-1D0,0D0;                   107P     59
100,0D0,0D0,0D0,5.676750119721D-1,0D0,-5.676750119721D-1,            109P     60
-1.430008796589D-14;                                                 109P     61
110,1.405D1,-1D0,-2D-1,1.405D1,-1D0,0D0;                             111P     62
110,1.291464997606D1,-1D0,-2D-1,1.291464997606D1,-1D0,0D0;           113P     63
110,3.61D0,-1D0,0D0,3.61D0,-1D0,-2D-1;                               115P     64
110,1.291464997606D1,-1D0,0D0,3.61D0,-1D0,0D0;                       117P     65
110,0D0,-1D0,-8.98D0,0D0,-1D0,-1.453D1;                              119P     66
110,0D0,-1D0,-4.78D0,0D0,-1D0,-4.98D0;                               121P     67
110,3.61D0,-1D0,-4.78D0,0D0,-1D0,-4.78D0;                            123P     68
110,3.61D0,-1D0,-4.98D0,3.61D0,-1D0,-4.78D0;                         125P     69
110,3.61D0,0D0,-4.98D0,3.61D0,0D0,-4.78D0;                           127P     70
110,3.61D0,0D0,-4.78D0,3.61D0,-1D0,-4.78D0;                          129P     71
110,0D0,-1D0,-4.98D0,3.61D0,-1D0,-4.98D0;                            131P     72
110,3.61D0,-1D0,-4.98D0,3.61D0,0D0,-4.98D0;                          133P     73
128,1,1,1,1,0,0,1,0,0,-8.66D-2,-8.66D-2,1.48166D1,1.48166D1,         135P     74
-1.4327D1,-1.4327D1,7.7D-2,7.7D-2,1D0,1D0,1D0,1D0,-2.77D-1,0D0,      135P     75
8.66D-2,-2.77D-1,0D0,-1.48166D1,1.4127D1,0D0,8.66D-2,1.4127D1,       135P     76
0D0,-1.48166D1,-8.66D-2,1.48166D1,-1.4327D1,7.7D-2;                  135P     77
110,3.61D0,0D0,-4.78D0,3.61D0,0D0,-4.98D0;                           137P     78
102,9,19,31,137,29,53,27,25,23,21;                                   139P     79
110,2D-1,-2D-1,0D0,2D-1,-1.044D1,0D0;                                141P     80
110,2D-1,-1.044D1,0D0,4.78D0,-1.044D1,0D0;                           143P     81
110,4.78D0,-1.044D1,0D0,4.98D0,-1.044D1,0D0;                         145P     82
110,4.98D0,-1.044D1,0D0,4.98D0,-1.405D1,0D0;                         147P     83
110,4.98D0,-1.405D1,0D0,8.98D0,-1.405D1,0D0;                         149P     84
110,8.98D0,-1.405D1,0D0,8.98D0,-1.385D1,0D0;                         151P     85
110,8.98D0,-1.385D1,0D0,1.453D1,-1.385D1,0D0;                        153P     86
110,1.453D1,-1.385D1,0D0,1.453D1,-2D-1,0D0;                          155P     87
110,1.453D1,-2D-1,0D0,2D-1,-2D-1,0D0;                                157P     88
102,9,141,143,145,147,149,151,153,155,157;                           159P     89
142,0,135,159,139,1;                                                 161P     90
144,135,1,0,161;                                                     163P     91
128,1,1,1,1,0,0,1,0,0,-3.6238D0,-3.6238D0,7.2338D0,7.2338D0,         165P     92
-6.002345271662D-1,-6.002345271662D-1,1.031377147591D0,              165P     93
1.031377147591D0,1D0,1D0,1D0,1D0,3.4012D0,-1.600234527166D0,         165P     94
-2D-1,1.42588D1,-1.600234527166D0,-2D-1,3.4012D0,                    165P     95
3.137714759149D-2,-2D-1,1.42588D1,3.137714759149D-2,-2D-1,           165P     96
-3.6238D0,7.2338D0,-6.002345271662D-1,1.031377147591D0;              165P     97
124,-1D0,0D0,0D0,1.348232498803D1,0D0,-1D0,0D0,-1D0,0D0,0D0,1D0,     167P     98
-2D-1;                                                               167P     99
100,0D0,0D0,0D0,5.676750119721D-1,0D0,-5.676750119721D-1,0D0;        169P    100
110,1.385D1,-1D0,-2D-1,1.385D1,0D0,-2D-1;                            171P    101
102,6,19,47,33,169,39,171;                                           173P    102
110,6.825D0,1D0,0D0,-3.415D0,1D0,0D0;                                175P    103
110,-3.415D0,1D0,0D0,-3.415D0,0D0,0D0;                               177P    104
110,-3.415D0,0D0,0D0,5.889649976056D0,0D0,0D0;                       179P    105
126,15,3,0,0,1,0,0D0,0D0,0D0,0D0,7.692844131745D-2,                  181P    106
1.538572527819D-1,2.307851605028D-1,3.077062852885D-1,               181P    107
3.846274916475D-1,4.615485905867D-1,5.384697077745D-1,               181P    108
6.153913238684D-1,6.923111019180D-1,7.692275154201D-1,               181P    109
8.461497234461D-1,9.230734853031D-1,1D0,1D0,1D0,1D0,1D0,1D0,1D0,     181P    110
1D0,1D0,1D0,1D0,1D0,1D0,1D0,1D0,1D0,1D0,1D0,1D0,1D0,                 181P    111
5.889649976056D0,0D0,0D0,5.889537433122D0,-4.575837168330D-2,        181P    112
0D0,5.900808428189D0,-1.371792358448D-1,0D0,5.949751802015D0,        181P    113
-2.664131377872D-1,0D0,6.028278219605D0,-3.801378147703D-1,0D0,      181P    114
6.131714759217D0,-4.717712513611D-1,0D0,6.254076577442D0,            181P    115
-5.359842813902D-1,0D0,6.388248219670D0,-5.690497922205D-1,0D0,      181P    116
6.526434937060D0,-5.690458020145D-1,0D0,6.660604134272D0,            181P    117
-5.359725553587D-1,0D0,6.782959256810D0,-4.717541141247D-1,0D0,      181P    118
6.886386011471D0,-3.801205805313D-1,0D0,6.964903523148D0,            181P    119
-2.664012524626D-1,0D0,7.013842341264D0,-1.371739333672D-1,0D0,      181P    120
7.025112525766D0,-4.575722345614D-2,0D0,7.025D0,0D0,0D0,0D0,1D0,     181P    121
0D0,0D0,1D0;                                                         181P    122
110,7.025D0,0D0,0D0,6.825D0,0D0,0D0;                                 183P    123
110,6.825D0,0D0,0D0,6.825D0,1D0,0D0;                                 185P    124
102,6,175,177,179,181,183,185;                                       187P    125
142,0,165,187,173,1;                                                 189P    126
144,165,1,0,189;                                                     191P    127
128,1,1,1,1,0,0,1,0,0,-9.56D-2,-9.56D-2,4.8756D0,4.8756D0,           193P    128
-1.224535324386D0,-1.224535324386D0,2.453532438605D-2,               193P    129
2.453532438605D-2,1D0,1D0,1D0,1D0,3.61D0,-1.024535324386D0,          193P    130
9.56D-2,3.61D0,-1.024535324386D0,-4.8756D0,3.61D0,                   193P    131
2.245353243860D-1,9.56D-2,3.61D0,2.245353243860D-1,-4.8756D0,        193P    132
-9.56D-2,4.8756D0,-1.224535324386D0,2.453532438605D-2;               193P    133
110,3.61D0,2D-1,-4.78D0,3.61D0,2D-1,0D0;                             195P    134
110,3.61D0,2D-1,0D0,3.61D0,-1D0,0D0;                                 197P    135
110,3.61D0,-1D0,-2D-1,3.61D0,0D0,-2D-1;                              199P    136
102,6,31,51,195,197,115,199;                                         201P    137
110,2D-1,-2D-1,0D0,4.78D0,-2D-1,0D0;                                 203P    138
110,4.78D0,-2D-1,0D0,4.78D0,0D0,0D0;                                 205P    139
110,4.78D0,0D0,0D0,0D0,0D0,0D0;                                      207P    140
110,0D0,0D0,0D0,0D0,-1.2D0,0D0;                                      209P    141
110,0D0,-1.2D0,0D0,2D-1,-1.2D0,0D0;                                  211P    142
110,2D-1,-1.2D0,0D0,2D-1,-2D-1,0D0;                                  213P    143
102,6,203,205,207,209,211,213;                                       215P    144
142,0,193,215,201,1;                                                 217P    145
144,193,1,0,217;                                                     219P    146
128,1,1,1,1,0,0,1,0,0,-3.6822D0,-3.6822D0,7.22D-2,7.22D-2,           221P    147
-1.224535324386D0,-1.224535324386D0,2.453532438605D-2,               221P    148
2.453532438605D-2,1D0,1D0,1D0,1D0,3.6822D0,-1.024535324386D0,        221P    149
-4.78D0,-7.22D-2,-1.024535324386D0,-4.78D0,3.6822D0,                 221P    150
2.245353243860D-1,-4.78D0,-7.22D-2,2.245353243860D-1,-4.78D0,        221P    151
-3.6822D0,7.22D-2,-1.224535324386D0,2.453532438605D-2;               221P    152
110,0D0,2D-1,-4.78D0,3.61D0,2D-1,-4.78D0;                            223P    153
110,3.61D0,2D-1,-4.78D0,3.61D0,0D0,-4.78D0;                          225P    154
102,5,59,223,225,129,123;                                            227P    155
110,0D0,-1.2D0,0D0,0D0,0D0,0D0;                                      229P    156
110,0D0,0D0,0D0,-3.61D0,0D0,0D0;                                     231P    157
110,-3.61D0,0D0,0D0,-3.61D0,-2D-1,0D0;                               233P    158
110,-3.61D0,-2D-1,0D0,-3.61D0,-1.2D0,0D0;                            235P    159
110,-3.61D0,-1.2D0,0D0,0D0,-1.2D0,0D0;                               237P    160
102,5,229,231,233,235,237;                                           239P    161
142,0,221,239,227,1;                                                 241P    162
144,221,1,0,241;                                                     243P    163
128,1,1,1,1,0,0,1,0,0,-1.99D-1,-1.99D-1,1.0149D1,1.0149D1,           245P    164
-1.224535324386D0,-1.224535324386D0,2.453532438605D-2,               245P    165
2.453532438605D-2,1D0,1D0,1D0,1D0,0D0,-1.024535324386D0,             245P    166
-4.581D0,0D0,-1.024535324386D0,-1.4929D1,0D0,2.245353243860D-1,      245P    167
-4.581D0,0D0,2.245353243860D-1,-1.4929D1,-1.99D-1,1.0149D1,          245P    168
-1.224535324386D0,2.453532438605D-2;                                 245P    169
110,0D0,0D0,-8.98D0,0D0,-1D0,-8.98D0;                                247P    170
110,0D0,2D-1,-1.473D1,0D0,2D-1,-4.78D0;                              249P    171
110,0D0,2D-1,-4.78D0,0D0,-1D0,-4.78D0;                               251P    172
110,0D0,-1D0,-4.98D0,0D0,0D0,-4.98D0;                                253P    173
102,9,53,247,119,103,97,249,251,121,253;                             255P    174
110,2D-1,-2D-1,0D0,4.2D0,-2D-1,0D0;                                  257P    175
110,4.2D0,-2D-1,0D0,4.2D0,-1.2D0,0D0;                                259P    176
110,4.2D0,-1.2D0,0D0,9.75D0,-1.2D0,0D0;                              261P    177
110,9.75D0,-1.2D0,0D0,9.95D0,-1.2D0,0D0;                             263P    178
110,9.95D0,-1.2D0,0D0,9.95D0,0D0,0D0;                                265P    179
110,9.95D0,0D0,0D0,0D0,0D0,0D0;                                      267P    180
110,0D0,0D0,0D0,0D0,-1.2D0,0D0;                                      269P    181
110,0D0,-1.2D0,0D0,2D-1,-1.2D0,0D0;                                  271P    182
110,2D-1,-1.2D0,0D0,2D-1,-2D-1,0D0;                                  273P    183
102,9,257,259,261,263,265,267,269,271,273;                           275P    184
142,0,245,275,255,1;                                                 277P    185
144,245,1,0,277;                                                     279P    186
128,1,1,1,1,0,0,1,0,0,-1.024535324386D0,-1.024535324386D0,           281P    187
2.453532438605D-2,2.453532438605D-2,-2.245353243860D-1,              281P    188
-2.245353243860D-1,2.453532438605D-2,2.453532438605D-2,1D0,1D0,      281P    189
1D0,1D0,-2.453532438605D-2,-1.024535324386D0,-8.98D0,                281P    190
-2.453532438605D-2,2.453532438606D-2,-8.98D0,2.245353243860D-1,      281P    191
-1.024535324386D0,-8.98D0,2.245353243860D-1,2.453532438606D-2,       281P    192
-8.98D0,-1.024535324386D0,2.453532438605D-2,-2.245353243860D-1,      281P    193
2.453532438605D-2;                                                   281P    194
110,2D-1,0D0,-8.98D0,2D-1,-1D0,-8.98D0;                              283P    195
102,4,55,27,283,65;                                                  285P    196
110,-1D0,-2D-1,0D0,0D0,-2D-1,0D0;                                    287P    197
110,0D0,-2D-1,0D0,0D0,0D0,0D0;                                       289P    198
110,0D0,0D0,0D0,-1D0,0D0,0D0;                                        291P    199
110,-1D0,0D0,0D0,-1D0,-2D-1,0D0;                                     293P    200
102,4,287,289,291,293;                                               295P    201
142,0,281,295,285,1;                                                 297P    202
144,281,1,0,297;                                                     299P    203
128,1,1,1,1,0,0,1,0,0,8.698839085837D0,8.698839085837D0,             301P    204
1.447083908584D1,1.447083908584D1,-2.453532438605D-2,                301P    205
-2.453532438605D-2,1.024535324386D0,1.024535324386D0,1D0,1D0,        301P    206
1D0,1D0,2D-1,-1.024535324386D0,-1.4641D1,2D-1,-1.024535324386D0,     301P    207
-8.869D0,2D-1,2.453532438605D-2,-1.4641D1,2D-1,                      301P    208
2.453532438605D-2,-8.869D0,8.698839085837D0,1.447083908584D1,        301P    209
-2.453532438605D-2,1.024535324386D0;                                 301P    210
102,4,25,77,67,63;                                                   303P    211
110,1.435983908584D1,1D0,0D0,8.809839085837D0,1D0,0D0;               305P    212
110,8.809839085837D0,1D0,0D0,8.809839085837D0,0D0,0D0;               307P    213
110,8.809839085837D0,0D0,0D0,1.435983908584D1,0D0,0D0;               309P    214
110,1.435983908584D1,0D0,0D0,1.435983908584D1,1D0,0D0;               311P    215
102,4,305,307,309,311;                                               313P    216
142,0,301,313,303,1;                                                 315P    217
144,301,1,0,315;                                                     317P    218
128,1,1,1,1,0,0,1,0,0,-7.102D0,-7.102D0,7.302D0,7.302D0,             319P    219
-7.494405002161D-1,-7.494405002161D-1,1.034302754906D0,              319P    220
1.034302754906D0,1D0,1D0,1D0,1D0,1.4127D1,-1.749440500216D0,         319P    221
-1.453D1,-2.77D-1,-1.749440500216D0,-1.453D1,1.4127D1,               319P    222
3.430275490620D-2,-1.453D1,-2.77D-1,3.430275490620D-2,-1.453D1,      319P    223
-7.102D0,7.302D0,-7.494405002161D-1,1.034302754906D0;                319P    224
124,1D0,0D0,0D0,7.136510941645D-1,0D0,-1D0,0D0,-1D0,0D0,0D0,         321P    225
-1D0,-1.453D1;                                                       321P    226
100,0D0,0D0,0D0,7.136510941645D-1,0D0,-7.136510941645D-1,0D0;        323P    227
110,2D-1,-1D0,-1.453D1,2D-1,0D0,-1.453D1;                            325P    228
102,6,23,81,69,323,75,325;                                           327P    229
110,6.825D0,1D0,0D0,-6.825D0,1D0,0D0;                                329P    230
110,-6.825D0,1D0,0D0,-6.825D0,0D0,0D0;                               331P    231
110,-6.825D0,0D0,0D0,5.597697811671D0,0D0,0D0;                       333P    232
126,15,3,0,0,1,0,0D0,0D0,0D0,0D0,7.692586616252D-2,                  335P    233
1.538539975011D-1,2.307811663975D-1,3.077032812600D-1,               335P    234
3.846254529185D-1,4.615466186052D-1,5.384673977609D-1,               335P    235
6.153894884554D-1,6.923114508830D-1,7.692302906751D-1,               335P    236
8.461527227384D-1,9.230762858333D-1,1D0,1D0,1D0,1D0,1D0,1D0,1D0,     335P    237
1D0,1D0,1D0,1D0,1D0,1D0,1D0,1D0,1D0,1D0,1D0,1D0,1D0,                 335P    238
5.597697811671D0,0D0,0D0,5.597556341387D0,-5.752306680266D-2,        335P    239
0D0,5.611724849544D0,-1.724501164889D-1,0D0,5.673251313570D0,        335P    240
-3.349138948064D-1,0D0,5.771968740426D0,-4.778833947150D-1,0D0,      335P    241
5.902003152585D0,-5.930821991433D-1,0D0,6.055830724183D0,            335P    242
-6.738093850261D-1,0D0,6.224504484909D0,-7.153787933552D-1,0D0,      335P    243
6.398225675719D0,-7.153749514588D-1,0D0,6.566898103530D0,            335P    244
-6.737976940588D-1,0D0,6.720720181343D0,-5.930641948088D-1,0D0,      335P    245
6.850745083632D0,-4.778642137655D-1,0D0,6.949452902560D0,            335P    246
-3.348998483239D-1,0D0,7.010973978446D0,-1.724434698036D-1,0D0,      335P    247
7.025141448570D0,-5.752145215569D-2,0D0,7.025D0,0D0,0D0,0D0,1D0,     335P    248
0D0,0D0,1D0;                                                         335P    249
110,7.025D0,0D0,0D0,6.825D0,0D0,0D0;                                 337P    250
110,6.825D0,0D0,0D0,6.825D0,1D0,0D0;                                 339P    251
102,6,329,331,333,335,337,339;                                       341P    252
142,0,319,341,327,1;                                                 343P    253
144,319,1,0,343;                                                     345P    254
128,1,1,1,1,0,0,1,0,0,-2.342643908584D1,-2.342643908584D1,           347P    255
-8.523239085837D0,-8.523239085837D0,-2.453532438605D-2,              347P    256
-2.453532438605D-2,1.024535324386D0,1.024535324386D0,1D0,1D0,        347P    257
1D0,1D0,1.385D1,-1.024535324386D0,8.66D-2,1.385D1,                   347P    258
-1.024535324386D0,-1.48166D1,1.385D1,2.453532438605D-2,8.66D-2,      347P    259
1.385D1,2.453532438605D-2,-1.48166D1,-2.342643908584D1,              347P    260
-8.523239085837D0,-2.453532438605D-2,1.024535324386D0;               347P    261
110,1.385D1,-1D0,-1.453D1,1.385D1,0D0,-1.453D1;                      349P    262
102,4,21,41,79,349;                                                  351P    263
110,-8.809839085837D0,1D0,0D0,-2.313983908584D1,1D0,0D0;             353P    264
110,-2.313983908584D1,1D0,0D0,-2.313983908584D1,0D0,0D0;             355P    265
110,-2.313983908584D1,0D0,0D0,-8.809839085837D0,0D0,0D0;             357P    266
110,-8.809839085837D0,0D0,0D0,-8.809839085837D0,1D0,0D0;             359P    267
102,4,353,355,357,359;                                               361P    268
142,0,347,361,351,1;                                                 363P    269
144,347,1,0,363;                                                     365P    270
128,1,1,1,1,0,0,1,0,0,-2.343043908584D1,-2.343043908584D1,           367P    271
-8.319239085837D0,-8.319239085837D0,-5.850151767904D0,               367P    272
-5.850151767904D0,7.277453956233D0,7.277453956233D0,1D0,1D0,1D0,     367P    273
1D0,1.174848232096D0,-1D0,9.06D-2,1.174848232096D0,-1D0,             367P    274
-1.50206D1,1.430245395623D1,-1D0,9.06D-2,1.430245395623D1,-1D0,      367P    275
-1.50206D1,-2.343043908584D1,-8.319239085837D0,                      367P    276
-5.850151767904D0,7.277453956233D0;                                  367P    277
102,6,83,39,79,69,105,85;                                            369P    278
110,-8.609839085837D0,7.025D0,0D0,-2.313983908584D1,7.025D0,0D0;     371P    279
110,-2.313983908584D1,7.025D0,0D0,-2.313983908584D1,6.825D0,0D0;     373P    280
110,-2.313983908584D1,6.825D0,0D0,-8.809839085837D0,6.825D0,0D0;     375P    281
110,-8.809839085837D0,6.825D0,0D0,-8.809839085837D0,                 377P    282
-5.597697811671D0,0D0;                                               377P    283
110,-8.809839085837D0,-5.597697811671D0,0D0,-8.609839085837D0,       379P    284
-5.597697811671D0,0D0;                                               379P    285
110,-8.609839085837D0,-5.597697811671D0,0D0,-8.609839085837D0,       381P    286
7.025D0,0D0;                                                         381P    287
102,6,371,373,375,377,379,381;                                       383P    288
142,0,367,383,369,1;                                                 385P    289
144,367,1,0,385;                                                     387P    290
128,1,1,1,1,0,0,1,0,0,-1.50246D1,-1.50246D1,2.946D-1,2.946D-1,       389P    291
-1.224535324386D0,-1.224535324386D0,2.453532438605D-2,               389P    292
2.453532438605D-2,1D0,1D0,1D0,1D0,1.405D1,-1.024535324386D0,         389P    293
-1.50246D1,1.405D1,-1.024535324386D0,2.946D-1,1.405D1,               389P    294
2.245353243860D-1,-1.50246D1,1.405D1,2.245353243860D-1,2.946D-1,     389P    295
-1.50246D1,2.946D-1,-1.224535324386D0,2.453532438605D-2;             389P    296
110,1.405D1,2D-1,0D0,1.405D1,2D-1,-1.473D1;                          391P    297
110,1.405D1,2D-1,-1.473D1,1.405D1,-1D0,-1.473D1;                     393P    298
102,5,93,391,393,83,111;                                             395P    299
110,0D0,-1.2D0,0D0,0D0,0D0,0D0;                                      397P    300
110,0D0,0D0,0D0,-1.473D1,0D0,0D0;                                    399P    301
110,-1.473D1,0D0,0D0,-1.473D1,-1.2D0,0D0;                            401P    302
110,-1.473D1,-1.2D0,0D0,-2D-1,-1.2D0,0D0;                            403P    303
110,-2D-1,-1.2D0,0D0,0D0,-1.2D0,0D0;                                 405P    304
102,5,397,399,401,403,405;                                           407P    305
142,0,389,407,395,1;                                                 409P    306
144,389,1,0,409;                                                     411P    307
128,1,1,1,1,0,0,1,0,0,-1.06488D1,-1.06488D1,2.088D-1,2.088D-1,       413P    308
-1.804235165190D0,-1.804235165190D0,3.537716010176D-2,               413P    309
3.537716010176D-2,1D0,1D0,1D0,1D0,1.42588D1,-1.604235165190D0,       413P    310
0D0,3.4012D0,-1.604235165190D0,0D0,1.42588D1,2.353771601018D-1,      413P    311
0D0,3.4012D0,2.353771601018D-1,0D0,-1.06488D1,2.088D-1,              413P    312
-1.804235165190D0,3.537716010176D-2;                                 413P    313
110,3.61D0,2D-1,0D0,1.405D1,2D-1,0D0;                                415P    314
110,1.405D1,2D-1,0D0,1.405D1,-1D0,0D0;                               417P    315
102,5,45,415,417,109,117;                                            419P    316
110,0D0,-1.2D0,0D0,0D0,0D0,0D0;                                      421P    317
110,0D0,0D0,0D0,-1.044D1,0D0,0D0;                                    423P    318
110,-1.044D1,0D0,0D0,-1.044D1,-1.2D0,0D0;                            425P    319
126,15,3,0,0,1,0,0D0,0D0,0D0,0D0,7.692307692308D-2,                  427P    320
1.538461538462D-1,2.307692307692D-1,3.076923076923D-1,               427P    321
3.846153846154D-1,4.615384615385D-1,5.384615384615D-1,               427P    322
6.153846153846D-1,6.923076923077D-1,7.692307692308D-1,               427P    323
8.461538461538D-1,9.230769230769D-1,1D0,1D0,1D0,1D0,1D0,1D0,1D0,     427P    324
1D0,1D0,1D0,1D0,1D0,1D0,1D0,1D0,1D0,1D0,1D0,1D0,1D0,-1.044D1,        427P    325
-1.2D0,0D0,-1.044011251260D1,-1.245755158058D0,0D0,                  427P    326
-1.042884315315D1,-1.337169408077D0,0D0,-1.037990657024D1,           427P    327
-1.466395470180D0,0D0,-1.030138805384D1,-1.580119104724D0,0D0,       427P    328
-1.019795623015D1,-1.671757088658D0,0D0,-1.007559392513D1,           427P    329
-1.735976796189D0,0D0,-9.941419998474D0,-1.769047867148D0,0D0,       427P    330
-9.803229977582D0,-1.769047867148D0,0D0,-9.669056050925D0,           427P    331
-1.735976796189D0,0D0,-9.546693745904D0,-1.671757088658D0,0D0,       427P    332
-9.443261922218D0,-1.580119104724D0,0D0,-9.364743405815D0,           427P    333
-1.466395470180D0,0D0,-9.315806822908D0,-1.337169408077D0,0D0,       427P    334
-9.304537463456D0,-1.245755158058D0,0D0,-9.304649976056D0,           427P    335
-1.2D0,0D0,0D0,1D0,0D0,0D0,1D0;                                      427P    336
110,-9.304649976056D0,-1.2D0,0D0,0D0,-1.2D0,0D0;                     429P    337
102,5,421,423,425,427,429;                                           431P    338
142,0,413,431,419,1;                                                 433P    339
144,413,1,0,433;                                                     435P    340
128,1,1,1,1,0,0,1,0,0,-2.946D-1,-2.946D-1,1.50246D1,1.50246D1,       437P    341
-1.4331D1,-1.4331D1,2.81D-1,2.81D-1,1D0,1D0,1D0,1D0,-2.81D-1,        437P    342
2D-1,2.946D-1,-2.81D-1,2D-1,-1.50246D1,1.4331D1,2D-1,2.946D-1,       437P    343
1.4331D1,2D-1,-1.50246D1,-2.946D-1,1.50246D1,-1.4331D1,2.81D-1;      437P    344
102,6,87,91,43,49,57,95;                                             439P    345
110,1.473D1,0D0,0D0,0D0,0D0,0D0;                                     441P    346
110,0D0,0D0,0D0,0D0,-1.044D1,0D0;                                    443P    347
110,0D0,-1.044D1,0D0,4.78D0,-1.044D1,0D0;                            445P    348
110,4.78D0,-1.044D1,0D0,4.78D0,-1.405D1,0D0;                         447P    349
110,4.78D0,-1.405D1,0D0,1.473D1,-1.405D1,0D0;                        449P    350
110,1.473D1,-1.405D1,0D0,1.473D1,0D0,0D0;                            451P    351
102,6,441,443,445,447,449,451;                                       453P    352
142,0,437,453,439,1;                                                 455P    353
144,437,1,0,455;                                                     457P    354
128,1,1,1,1,0,0,1,0,0,-2.81D-1,-2.81D-1,1.4331D1,1.4331D1,           459P    355
-1.953441056551D0,-1.953441056551D0,3.830276581472D-2,               459P    356
3.830276581472D-2,1D0,1D0,1D0,1D0,-2.81D-1,-1.753441056551D0,        459P    357
-1.473D1,1.4331D1,-1.753441056551D0,-1.473D1,-2.81D-1,               459P    358
2.383027658147D-1,-1.473D1,1.4331D1,2.383027658147D-1,-1.473D1,      459P    359
-2.81D-1,1.4331D1,-1.953441056551D0,3.830276581472D-2;               459P    360
110,1.405D1,2D-1,-1.473D1,0D0,2D-1,-1.473D1;                         461P    361
110,0D0,2D-1,-1.473D1,0D0,-1D0,-1.473D1;                             463P    362
102,5,89,461,463,101,85;                                             465P    363
110,1.405D1,-1.2D0,0D0,1.405D1,0D0,0D0;                              467P    364
110,1.405D1,0D0,0D0,0D0,0D0,0D0;                                     469P    365
110,0D0,0D0,0D0,0D0,-1.2D0,0D0;                                      471P    366
126,15,3,0,0,1,0,0D0,0D0,0D0,0D0,7.692307692308D-2,                  473P    367
1.538461538462D-1,2.307692307692D-1,3.076923076923D-1,               473P    368
3.846153846154D-1,4.615384615385D-1,5.384615384615D-1,               473P    369
6.153846153846D-1,6.923076923077D-1,7.692307692308D-1,               473P    370
8.461538461538D-1,9.230769230769D-1,1D0,1D0,1D0,1D0,1D0,1D0,1D0,     473P    371
1D0,1D0,1D0,1D0,1D0,1D0,1D0,1D0,1D0,1D0,1D0,1D0,1D0,0D0,-1.2D0,      473P    372
0D0,-1.414449085242D-4,-1.257520972252D0,0D0,1.402579961402D-2,      473P    373
-1.372442147524D0,0D0,7.554629144370D-2,-1.534898339305D0,0D0,       473P    374
1.742556303464D-1,-1.677865696531D0,0D0,3.042846656006D-1,           473P    375
-1.793068138284D0,0D0,4.581121038724D-1,-1.873801768583D0,0D0,       473P    376
6.267884900928D-1,-1.915376975308D0,0D0,8.005136982361D-1,           473P    377
-1.915376975308D0,0D0,9.691900844566D-1,-1.873801768583D0,0D0,       473P    378
1.123017522728D0,-1.793068138284D0,0D0,1.253046557983D0,             473P    379
-1.677865696531D0,0D0,1.351755896885D0,-1.534898339305D0,0D0,        473P    380
1.413276388715D0,-1.372442147524D0,0D0,1.427443633237D0,             473P    381
-1.257520972252D0,0D0,1.427302188329D0,-1.2D0,0D0,0D0,1D0,0D0,       473P    382
0D0,1D0;                                                             473P    383
110,1.427302188329D0,-1.2D0,0D0,1.405D1,-1.2D0,0D0;                  475P    384
102,5,467,469,471,473,475;                                           477P    385
142,0,459,477,465,1;                                                 479P    386
144,459,1,0,479;                                                     481P    387
110,7.136510941645D-1,-1D0,-1.453D1,7.136510941645D-1,-1D0,          483P    388
-1.553D1;                                                            483P    389
110,0D0,-1D0,-1.450546467561D1,0D0,-1D0,-1.475453532439D1;           485P    390
120,483,485,3.078760800518D0,6.346017160251D0;                       487P    391
124,1D0,0D0,0D0,7.136510941645D-1,0D0,-1D0,0D0,-1D0,0D0,0D0,         489P    392
-1D0,-1.473D1;                                                       489P    393
100,0D0,0D0,0D0,7.136510941645D-1,0D0,-7.136510941645D-1,0D0;        491P    394
110,0D0,-1D0,-1.473D1,0D0,-1D0,-1.453D1;                             493P    395
102,4,491,493,73,105;                                                495P    396
110,9.014925102295D-1,3.141592653590D0,0D0,9.014925102295D-1,        497P    397
6.283185307180D0,0D0;                                                497P    398
110,9.014925102295D-1,6.283185307180D0,0D0,9.850748977050D-2,        499P    399
6.283185307180D0,0D0;                                                499P    400
110,9.850748977050D-2,6.283185307180D0,0D0,9.850748977050D-2,        501P    401
3.141592653590D0,0D0;                                                501P    402
110,9.850748977050D-2,3.141592653590D0,0D0,9.014925102295D-1,        503P    403
3.141592653590D0,0D0;                                                503P    404
102,4,497,499,501,503;                                               505P    405
142,0,487,505,495,1;                                                 507P    406
144,487,1,0,507;                                                     509P    407
110,1.348232498803D1,-1D0,-2D-1,1.348232498803D1,-1D0,8D-1;          511P    408
110,1.405D1,-1D0,-2.245353243860D-1,1.405D1,-1D0,                    513P    409
2.453532438605D-2;                                                   513P    410
120,511,513,3.078760800518D0,6.346017160251D0;                       515P    411
124,-1D0,0D0,0D0,1.348232498803D1,0D0,-1D0,0D0,-1D0,0D0,0D0,1D0,     517P    412
0D0;                                                                 517P    413
100,0D0,0D0,0D0,5.676750119721D-1,0D0,-5.676750119721D-1,            519P    414
-1.430008796589D-14;                                                 519P    415
110,1.405D1,-1D0,0D0,1.405D1,-1D0,-2D-1;                             521P    416
102,4,519,521,37,113;                                                523P    417
110,9.014925102295D-1,3.141592653590D0,0D0,9.014925102295D-1,        525P    418
6.283185307180D0,0D0;                                                525P    419
110,9.014925102295D-1,6.283185307180D0,0D0,9.850748977050D-2,        527P    420
6.283185307180D0,0D0;                                                527P    421
110,9.850748977050D-2,6.283185307180D0,0D0,9.850748977050D-2,        529P    422
3.141592653590D0,0D0;                                                529P    423
110,9.850748977050D-2,3.141592653590D0,0D0,9.014925102295D-1,        531P    424
3.141592653590D0,0D0;                                                531P    425
102,4,525,527,529,531;                                               533P    426
142,0,515,533,523,1;                                                 535P    427
144,515,1,0,535;                                                     537P    428
128,1,1,1,1,0,0,1,0,0,-2.336437441022D1,-2.336437441022D1,           539P    429
-2.311530376145D1,-2.311530376145D1,-3.601092999521D0,               539P    430
-3.601092999521D0,6.075742975577D0,6.075742975577D0,1D0,1D0,1D0,     539P    431
1D0,3.423907000479D0,-1D0,2.453532438605D-2,3.423907000479D0,        539P    432
-1D0,-2.245353243860D-1,1.310074297558D1,-1D0,2.453532438605D-2,     539P    433
1.310074297558D1,-1D0,-2.245353243860D-1,-2.336437441022D1,          539P    434
-2.311530376145D1,-3.601092999521D0,6.075742975577D0;                539P    435
102,4,113,117,115,33;                                                541P    436
110,-2.313983908584D1,5.889649976056D0,0D0,-2.333983908584D1,        543P    437
5.889649976056D0,0D0;                                                543P    438
110,-2.333983908584D1,5.889649976056D0,0D0,-2.333983908584D1,        545P    439
-3.415D0,0D0;                                                        545P    440
110,-2.333983908584D1,-3.415D0,0D0,-2.313983908584D1,-3.415D0,       547P    441
0D0;                                                                 547P    442
110,-2.313983908584D1,-3.415D0,0D0,-2.313983908584D1,                549P    443
5.889649976056D0,0D0;                                                549P    444
102,4,543,545,547,549;                                               551P    445
142,0,539,551,541,1;                                                 553P    446
144,539,1,0,553;                                                     555P    447
128,1,1,1,1,0,0,1,0,0,-1.447083908584D1,-1.447083908584D1,           557P    448
-8.698839085837D0,-8.698839085837D0,-7.049535324386D0,               557P    449
-7.049535324386D0,-6.800464675614D0,-6.800464675614D0,1D0,1D0,       557P    450
1D0,1D0,-2.453532438604D-2,-1D0,-8.869D0,-2.453532438604D-2,         557P    451
-1D0,-1.4641D1,2.245353243860D-1,-1D0,-8.869D0,                      557P    452
2.245353243860D-1,-1D0,-1.4641D1,-1.447083908584D1,                  557P    453
-8.698839085837D0,-7.049535324386D0,-6.800464675614D0;               557P    454
102,4,75,67,65,119;                                                  559P    455
110,-8.809839085837D0,-7.025D0,0D0,-8.809839085837D0,-6.825D0,       561P    456
0D0;                                                                 561P    457
110,-8.809839085837D0,-6.825D0,0D0,-1.435983908584D1,-6.825D0,       563P    458
0D0;                                                                 563P    459
110,-1.435983908584D1,-6.825D0,0D0,-1.435983908584D1,-7.025D0,       565P    460
0D0;                                                                 565P    461
110,-1.435983908584D1,-7.025D0,0D0,-8.809839085837D0,-7.025D0,       567P    462
0D0;                                                                 567P    463
102,4,561,563,565,567;                                               569P    464
142,0,557,569,559,1;                                                 571P    465
144,557,1,0,571;                                                     573P    466
128,1,1,1,1,0,0,1,0,0,-1.858437441022D1,-1.858437441022D1,           575P    467
-1.833530376145D1,-1.833530376145D1,-7.0972D0,-7.0972D0,             575P    468
-3.3428D0,-3.3428D0,1D0,1D0,1D0,1D0,-7.22D-2,-1D0,                   575P    469
-4.755464675614D0,-7.22D-2,-1D0,-5.004535324386D0,3.6822D0,-1D0,     575P    470
-4.755464675614D0,3.6822D0,-1D0,-5.004535324386D0,                   575P    471
-1.858437441022D1,-1.833530376145D1,-7.0972D0,-3.3428D0;             575P    472
102,4,121,131,125,123;                                               577P    473
110,-1.855983908584D1,-7.025D0,0D0,-1.835983908584D1,-7.025D0,       579P    474
0D0;                                                                 579P    475
110,-1.835983908584D1,-7.025D0,0D0,-1.835983908584D1,-3.415D0,       581P    476
0D0;                                                                 581P    477
110,-1.835983908584D1,-3.415D0,0D0,-1.855983908584D1,-3.415D0,       583P    478
0D0;                                                                 583P    479
110,-1.855983908584D1,-3.415D0,0D0,-1.855983908584D1,-7.025D0,       585P    480
0D0;                                                                 585P    481
102,4,579,581,583,585;                                               587P    482
142,0,575,587,577,1;                                                 589P    483
144,575,1,0,589;                                                     591P    484
128,1,1,1,1,0,0,1,0,0,-1.858437441022D1,-1.858437441022D1,           593P    485
-1.833530376145D1,-1.833530376145D1,-2.453532438605D-2,              593P    486
-2.453532438605D-2,1.024535324386D0,1.024535324386D0,1D0,1D0,        593P    487
1D0,1D0,3.61D0,-1.024535324386D0,-4.755464675614D0,3.61D0,           593P    488
-1.024535324386D0,-5.004535324386D0,3.61D0,2.453532438605D-2,        593P    489
-4.755464675614D0,3.61D0,2.453532438605D-2,-5.004535324386D0,        593P    490
-1.858437441022D1,-1.833530376145D1,-2.453532438605D-2,              593P    491
1.024535324386D0;                                                    593P    492
110,3.61D0,-1D0,-4.78D0,3.61D0,-1D0,-4.98D0;                         595P    493
102,4,127,129,595,133;                                               597P    494
110,-1.835983908584D1,1D0,0D0,-1.855983908584D1,1D0,0D0;             599P    495
110,-1.855983908584D1,1D0,0D0,-1.855983908584D1,0D0,0D0;             601P    496
110,-1.855983908584D1,0D0,0D0,-1.835983908584D1,0D0,0D0;             603P    497
110,-1.835983908584D1,0D0,0D0,-1.835983908584D1,1D0,0D0;             605P    498
102,4,599,601,603,605;                                               607P    499
142,0,593,607,597,1;                                                 609P    500
144,593,1,0,609;                                                     611P    501
128,1,1,1,1,0,0,1,0,0,-7.0972D0,-7.0972D0,-3.3428D0,-3.3428D0,       613P    502
-2.453532438605D-2,-2.453532438605D-2,1.024535324386D0,              613P    503
1.024535324386D0,1D0,1D0,1D0,1D0,-7.22D-2,-1.024535324386D0,         613P    504
-4.98D0,3.6822D0,-1.024535324386D0,-4.98D0,-7.22D-2,                 613P    505
2.453532438605D-2,-4.98D0,3.6822D0,2.453532438605D-2,-4.98D0,        613P    506
-7.0972D0,-3.3428D0,-2.453532438605D-2,1.024535324386D0;             613P    507
102,4,29,61,131,133;                                                 615P    508
110,-3.415D0,1D0,0D0,-7.025D0,1D0,0D0;                               617P    509
110,-7.025D0,1D0,0D0,-7.025D0,0D0,0D0;                               619P    510
110,-7.025D0,0D0,0D0,-3.415D0,0D0,0D0;                               621P    511
110,-3.415D0,0D0,0D0,-3.415D0,1D0,0D0;                               623P    512
102,4,617,619,621,623;                                               625P    513
142,0,613,625,615,1;                                                 627P    514
144,613,1,0,627;                                                     629P    515
S      1G      5D    630P    515                                        T      1
