 PTC IGES file: gps-ant-ext-mmcx-plug_prt.igs                           S      1
1H,,1H;,25HGPS-ANT-EXT-MMCX-PLUG_PRT,29Hgps-ant-ext-mmcx-plug_prt.igs,  G      1
49HPro/ENGINEER by Parametric Technology Corporation,7H2006170,32,38,7, G      2
38,15,25HGPS-ANT-EXT-MMCX-PLUG_PRT,1.,2,2HMM,32768,0.5,                 G      3
15H20080630.105141,0.000517053,12.4098,3HGRA,7HUnknown,10,0,            G      4
15H20080630.105141;                                                     G      5
     314       1       1       1       0       0       0       001000200D      1
     314       0       4       1       0                   COLOR       1D      2
     314       2       1       1       0       0       0       001000200D      3
     314       0       1       1       0                   COLOR       2D      4
     314       3       1       1       0       0       0       001000200D      5
     314       0       1       1       0                   COLOR       3D      6
     314       4       1       1       0       0       0       001000200D      7
     314       0       1       1       0                   COLOR       4D      8
     314       5       1       1       0       0       0       001000200D      9
     314       0       8       1       0                   COLOR       5D     10
     314       6       1       1       0       0       0       001000200D     11
     314       0       8       1       0                   COLOR       6D     12
     314       7       1       1       0       0       0       001000200D     13
     314       0       5       1       0                   COLOR       7D     14
     314       8       1       1       0       0       0       001000200D     15
     314       0       5       1       0                   COLOR       8D     16
     314       9       1       1       0       0       0       001000200D     17
     314       0       8       1       0                   COLOR       9D     18
     110      10       1       1       0       0       0       001010000D     19
     110       0     -15       1       0                    LINE       1D     20
     110      11       1       1       0       0       0       001010000D     21
     110       0     -15       1       0                    LINE       2D     22
     110      12       1       1       0       0       0       001010000D     23
     110       0     -15       1       0                    LINE       3D     24
     110      13       1       1       0       0       0       001010000D     25
     110       0     -15       1       0                    LINE       4D     26
     110      14       1       1       0       0       0       001010000D     27
     110       0     -15       1       0                    LINE       5D     28
     124      15       1       1       0       0       0       001000000D     29
     124       0       0       1       0                   XFORM       1D     30
     100      16       1       1       0       0      29       001010000D     31
     100       0     -15       1       0                     ARC       1D     32
     124      17       1       1       0       0       0       001000000D     33
     124       0       0       1       0                   XFORM       2D     34
     100      18       1       1       0       0      33       001010000D     35
     100       0     -15       1       0                     ARC       2D     36
     110      19       1       1       0       0       0       001010000D     37
     110       0     -15       1       0                    LINE       6D     38
     110      20       1       1       0       0       0       001010000D     39
     110       0     -15       1       0                    LINE       7D     40
     110      21       1       1       0       0       0       001010000D     41
     110       0     -15       1       0                    LINE       8D     42
     110      22       1       1       0       0       0       001010000D     43
     110       0     -15       1       0                    LINE       9D     44
     110      23       1       1       0       0       0       001010000D     45
     110       0     -15       1       0                    LINE      10D     46
     110      24       1       1       0       0       0       001010000D     47
     110       0     -15       1       0                    LINE      11D     48
     110      25       1       1       0       0       0       001010000D     49
     110       0     -15       1       0                    LINE      12D     50
     124      26       1       1       0       0       0       001000000D     51
     124       0       0       1       0                   XFORM       3D     52
     100      27       1       1       0       0      51       001010000D     53
     100       0     -15       1       0                     ARC       3D     54
     124      28       1       1       0       0       0       001000000D     55
     124       0       0       1       0                   XFORM       4D     56
     100      29       1       1       0       0      55       001010000D     57
     100       0     -15       1       0                     ARC       4D     58
     110      30       1       1       0       0       0       001010000D     59
     110       0     -15       1       0                    LINE      13D     60
     110      31       1       1       0       0       0       001010000D     61
     110       0     -15       1       0                    LINE      14D     62
     124      32       1       1       0       0       0       001000000D     63
     124       0       0       1       0                   XFORM       5D     64
     100      33       1       1       0       0      63       001010000D     65
     100       0     -15       1       0                     ARC       5D     66
     124      34       1       1       0       0       0       001000000D     67
     124       0       0       1       0                   XFORM       6D     68
     100      35       1       1       0       0      67       001010000D     69
     100       0     -15       1       0                     ARC       6D     70
     124      36       1       1       0       0       0       001000000D     71
     124       0       0       1       0                   XFORM       7D     72
     100      37       1       1       0       0      71       001010000D     73
     100       0     -15       1       0                     ARC       7D     74
     124      38       1       1       0       0       0       001000000D     75
     124       0       0       1       0                   XFORM       8D     76
     100      39       1       1       0       0      75       001010000D     77
     100       0     -15       1       0                     ARC       8D     78
     110      40       1       1       0       0       0       001010000D     79
     110       0     -15       1       0                    LINE      15D     80
     110      41       1       1       0       0       0       001010000D     81
     110       0     -15       1       0                    LINE      16D     82
     124      42       1       1       0       0       0       001000000D     83
     124       0       0       1       0                   XFORM       9D     84
     100      43       1       1       0       0      83       001010000D     85
     100       0     -15       1       0                     ARC       9D     86
     124      44       1       1       0       0       0       001000000D     87
     124       0       0       1       0                   XFORM      10D     88
     100      45       1       1       0       0      87       001010000D     89
     100       0     -15       1       0                     ARC      10D     90
     110      46       1       1       0       0       0       001010000D     91
     110       0     -15       1       0                    LINE      17D     92
     110      47       1       1       0       0       0       001010000D     93
     110       0     -15       1       0                    LINE      18D     94
     124      48       1       1       0       0       0       001000000D     95
     124       0       0       1       0                   XFORM      11D     96
     100      49       1       1       0       0      95       001010000D     97
     100       0     -15       1       0                     ARC      11D     98
     124      50       1       1       0       0       0       001000000D     99
     124       0       0       1       0                   XFORM      12D    100
     100      51       1       1       0       0      99       001010000D    101
     100       0     -15       1       0                     ARC      12D    102
     128      52       1       1       0       0       0       001010000D    103
     128       0     -15       4       0                  SPLSRF       1D    104
     102      56       1       1       0       0       0       001010000D    105
     102       0       0       1       0                  CCURVE       1D    106
     110      57       1       1       0       0       0       001010500D    107
     110       0     -15       1       0                    LINE      19D    108
     110      58       1       1       0       0       0       001010500D    109
     110       0     -15       1       0                    LINE      20D    110
     110      59       1       1       0       0       0       001010500D    111
     110       0     -15       1       0                    LINE      21D    112
     110      60       1       1       0       0       0       001010500D    113
     110       0     -15       1       0                    LINE      22D    114
     102      61       1       1       0       0       0       001010500D    115
     102       0       0       1       0                  CCURVE       2D    116
     142      62       1       1       0       0       0       001010500D    117
     142       0       0       1       0                  UV_BND       1D    118
     144      63       1       1       0       0       0       000000000D    119
     144       0     -15       1       0                 TRM_SRF       1D    120
     128      64       1       1       0       0       0       001010000D    121
     128       0     -15       4       0                  SPLSRF       2D    122
     110      68       1       1       0       0       0       001010000D    123
     110       0       0       1       0                    LINE      23D    124
     110      69       1       1       0       0       0       001010000D    125
     110       0       0       1       0                    LINE      24D    126
     102      70       1       1       0       0       0       001010000D    127
     102       0       0       1       0                  CCURVE       3D    128
     110      71       1       1       0       0       0       001010500D    129
     110       0     -15       1       0                    LINE      25D    130
     110      72       1       1       0       0       0       001010500D    131
     110       0     -15       1       0                    LINE      26D    132
     110      73       1       1       0       0       0       001010500D    133
     110       0     -15       1       0                    LINE      27D    134
     110      74       1       1       0       0       0       001010500D    135
     110       0     -15       1       0                    LINE      28D    136
     102      75       1       1       0       0       0       001010500D    137
     102       0       0       1       0                  CCURVE       4D    138
     142      76       1       1       0       0       0       001010500D    139
     142       0       0       1       0                  UV_BND       2D    140
     102      77       1       1       0       0       0       001010000D    141
     102       0       0       1       0                  CCURVE       5D    142
     126      78       1       1       0       0       0       001010500D    143
     126       0     -15      33       0                B_SPLINE       1D    144
     126     111       1       1       0       0       0       001010500D    145
     126       0     -15      33       0                B_SPLINE       2D    146
     102     144       1       1       0       0       0       001010500D    147
     102       0       0       1       0                  CCURVE       6D    148
     142     145       1       1       0       0       0       001010500D    149
     142       0       0       1       0                  UV_BND       3D    150
     144     146       1       1       0       0       0       000000000D    151
     144       0     -15       1       0                 TRM_SRF       2D    152
     128     147       1       1       0       0       0       001010000D    153
     128       0     -15       4       0                  SPLSRF       3D    154
     110     151       1       1       0       0       0       001010000D    155
     110       0       0       1       0                    LINE      29D    156
     110     152       1       1       0       0       0       001010000D    157
     110       0       0       1       0                    LINE      30D    158
     102     153       1       1       0       0       0       001010000D    159
     102       0       0       1       0                  CCURVE       7D    160
     110     154       1       1       0       0       0       001010500D    161
     110       0     -15       1       0                    LINE      31D    162
     110     155       1       1       0       0       0       001010500D    163
     110       0     -15       1       0                    LINE      32D    164
     110     156       1       1       0       0       0       001010500D    165
     110       0     -15       1       0                    LINE      33D    166
     110     157       1       1       0       0       0       001010500D    167
     110       0     -15       1       0                    LINE      34D    168
     102     158       1       1       0       0       0       001010500D    169
     102       0       0       1       0                  CCURVE       8D    170
     142     159       1       1       0       0       0       001010500D    171
     142       0       0       1       0                  UV_BND       4D    172
     144     160       1       1       0       0       0       000000000D    173
     144       0     -15       1       0                 TRM_SRF       3D    174
     128     161       1       1       0       0       0       001010000D    175
     128       0     -15       4       0                  SPLSRF       4D    176
     110     165       1       1       0       0       0       001010000D    177
     110       0       0       1       0                    LINE      35D    178
     110     166       1       1       0       0       0       001010000D    179
     110       0       0       1       0                    LINE      36D    180
     102     167       1       1       0       0       0       001010000D    181
     102       0       0       1       0                  CCURVE       9D    182
     110     168       1       1       0       0       0       001010500D    183
     110       0     -15       1       0                    LINE      37D    184
     110     169       1       1       0       0       0       001010500D    185
     110       0     -15       1       0                    LINE      38D    186
     110     170       1       1       0       0       0       001010500D    187
     110       0     -15       1       0                    LINE      39D    188
     110     171       1       1       0       0       0       001010500D    189
     110       0     -15       1       0                    LINE      40D    190
     102     172       1       1       0       0       0       001010500D    191
     102       0       0       1       0                  CCURVE      10D    192
     142     173       1       1       0       0       0       001010500D    193
     142       0       0       1       0                  UV_BND       5D    194
     144     174       1       1       0       0       0       000000000D    195
     144       0     -15       1       0                 TRM_SRF       4D    196
     128     175       1       1       0       0       0       001010000D    197
     128       0     -15       4       0                  SPLSRF       5D    198
     110     179       1       1       0       0       0       001010000D    199
     110       0       0       1       0                    LINE      41D    200
     110     180       1       1       0       0       0       001010000D    201
     110       0       0       1       0                    LINE      42D    202
     102     181       1       1       0       0       0       001010000D    203
     102       0       0       1       0                  CCURVE      11D    204
     110     182       1       1       0       0       0       001010500D    205
     110       0     -15       1       0                    LINE      43D    206
     110     183       1       1       0       0       0       001010500D    207
     110       0     -15       1       0                    LINE      44D    208
     110     184       1       1       0       0       0       001010500D    209
     110       0     -15       1       0                    LINE      45D    210
     110     185       1       1       0       0       0       001010500D    211
     110       0     -15       1       0                    LINE      46D    212
     102     186       1       1       0       0       0       001010500D    213
     102       0       0       1       0                  CCURVE      12D    214
     142     187       1       1       0       0       0       001010500D    215
     142       0       0       1       0                  UV_BND       6D    216
     144     188       1       1       0       0       0       000000000D    217
     144       0     -15       1       0                 TRM_SRF       5D    218
     128     189       1       1       0       0       0       001010000D    219
     128       0     -15       4       0                  SPLSRF       6D    220
     102     193       1       1       0       0       0       001010000D    221
     102       0       0       1       0                  CCURVE      13D    222
     110     194       1       1       0       0       0       001010500D    223
     110       0     -15       1       0                    LINE      47D    224
     110     195       1       1       0       0       0       001010500D    225
     110       0     -15       1       0                    LINE      48D    226
     110     196       1       1       0       0       0       001010500D    227
     110       0     -15       1       0                    LINE      49D    228
     110     197       1       1       0       0       0       001010500D    229
     110       0     -15       1       0                    LINE      50D    230
     102     198       1       1       0       0       0       001010500D    231
     102       0       0       1       0                  CCURVE      14D    232
     142     199       1       1       0       0       0       001010500D    233
     142       0       0       1       0                  UV_BND       7D    234
     102     200       1       1       0       0       0       001010000D    235
     102       0       0       1       0                  CCURVE      15D    236
     126     201       1       1       0       0       0       001010500D    237
     126       0     -15      38       0                B_SPLINE       3D    238
     126     239       1       1       0       0       0       001010500D    239
     126       0     -15      38       0                B_SPLINE       4D    240
     102     277       1       1       0       0       0       001010500D    241
     102       0       0       1       0                  CCURVE      16D    242
     142     278       1       1       0       0       0       001010500D    243
     142       0       0       1       0                  UV_BND       8D    244
     144     279       1       1       0       0       0       000000000D    245
     144       0     -15       1       0                 TRM_SRF       6D    246
     110     280       1       1       0       0       0       001010000D    247
     110       0     -15       1       0                    LINE      51D    248
     110     281       1       1       0       0       0       001010000D    249
     110       0     -15       1       0                    LINE      52D    250
     120     282       1       1       0       0       0       001010000D    251
     120       0     -15       1       0                    SREV       1D    252
     110     283       1       1       0       0       0       001010000D    253
     110       0       0       1       0                    LINE      53D    254
     102     284       1       1       0       0       0       001010000D    255
     102       0       0       1       0                  CCURVE      17D    256
     110     285       1       1       0       0       0       001010500D    257
     110       0     -15       2       0                    LINE      54D    258
     110     287       1       1       0       0       0       001010500D    259
     110       0     -15       1       0                    LINE      55D    260
     110     288       1       1       0       0       0       001010500D    261
     110       0     -15       2       0                    LINE      56D    262
     110     290       1       1       0       0       0       001010500D    263
     110       0     -15       2       0                    LINE      57D    264
     102     292       1       1       0       0       0       001010500D    265
     102       0       0       1       0                  CCURVE      18D    266
     142     293       1       1       0       0       0       001010500D    267
     142       0       0       1       0                  UV_BND       9D    268
     144     294       1       1       0       0       0       000000000D    269
     144       0     -15       1       0                 TRM_SRF       7D    270
     110     295       1       1       0       0       0       001010000D    271
     110       0     -15       1       0                    LINE      58D    272
     110     296       1       1       0       0       0       001010000D    273
     110       0     -15       1       0                    LINE      59D    274
     120     297       1       1       0       0       0       001010000D    275
     120       0     -15       1       0                    SREV       2D    276
     110     298       1       1       0       0       0       001010000D    277
     110       0       0       1       0                    LINE      60D    278
     102     299       1       1       0       0       0       001010000D    279
     102       0       0       1       0                  CCURVE      19D    280
     110     300       1       1       0       0       0       001010500D    281
     110       0     -15       2       0                    LINE      61D    282
     110     302       1       1       0       0       0       001010500D    283
     110       0     -15       2       0                    LINE      62D    284
     110     304       1       1       0       0       0       001010500D    285
     110       0     -15       2       0                    LINE      63D    286
     110     306       1       1       0       0       0       001010500D    287
     110       0     -15       2       0                    LINE      64D    288
     102     308       1       1       0       0       0       001010500D    289
     102       0       0       1       0                  CCURVE      20D    290
     142     309       1       1       0       0       0       001010500D    291
     142       0       0       1       0                  UV_BND      10D    292
     144     310       1       1       0       0       0       000000000D    293
     144       0     -15       1       0                 TRM_SRF       8D    294
     128     311       1       1       0       0       0       001010000D    295
     128       0     -15       4       0                  SPLSRF       7D    296
     102     315       1       1       0       0       0       001010000D    297
     102       0       0       1       0                  CCURVE      21D    298
     126     316       1       1       0       0       0       001010500D    299
     126       0     -15      31       0                B_SPLINE       5D    300
     126     347       1       1       0       0       0       001010500D    301
     126       0     -15      31       0                B_SPLINE       6D    302
     102     378       1       1       0       0       0       001010500D    303
     102       0       0       1       0                  CCURVE      22D    304
     142     379       1       1       0       0       0       001010500D    305
     142       0       0       1       0                  UV_BND      11D    306
     102     380       1       1       0       0       0       001010000D    307
     102       0       0       1       0                  CCURVE      23D    308
     126     381       1       1       0       0       0       001010500D    309
     126       0     -15      33       0                B_SPLINE       7D    310
     126     414       1       1       0       0       0       001010500D    311
     126       0     -15      33       0                B_SPLINE       8D    312
     102     447       1       1       0       0       0       001010500D    313
     102       0       0       1       0                  CCURVE      24D    314
     142     448       1       1       0       0       0       001010500D    315
     142       0       0       1       0                  UV_BND      12D    316
     144     449       1       1       0       0       0       000000000D    317
     144       0     -15       1       0                 TRM_SRF       9D    318
     110     450       1       1       0       0       0       001010000D    319
     110       0     -15       1       0                    LINE      65D    320
     110     451       1       1       0       0       0       001010000D    321
     110       0     -15       1       0                    LINE      66D    322
     120     452       1       1       0       0       0       001010000D    323
     120       0     -15       1       0                    SREV       3D    324
     110     453       1       1       0       0       0       001010000D    325
     110       0       0       1       0                    LINE      67D    326
     102     454       1       1       0       0       0       001010000D    327
     102       0       0       1       0                  CCURVE      25D    328
     110     455       1       1       0       0       0       001010500D    329
     110       0     -15       2       0                    LINE      68D    330
     110     457       1       1       0       0       0       001010500D    331
     110       0     -15       1       0                    LINE      69D    332
     110     458       1       1       0       0       0       001010500D    333
     110       0     -15       2       0                    LINE      70D    334
     110     460       1       1       0       0       0       001010500D    335
     110       0     -15       2       0                    LINE      71D    336
     102     462       1       1       0       0       0       001010500D    337
     102       0       0       1       0                  CCURVE      26D    338
     142     463       1       1       0       0       0       001010500D    339
     142       0       0       1       0                  UV_BND      13D    340
     144     464       1       1       0       0       0       000000000D    341
     144       0     -15       1       0                 TRM_SRF      10D    342
     110     465       1       1       0       0       0       001010000D    343
     110       0     -15       1       0                    LINE      72D    344
     110     466       1       1       0       0       0       001010000D    345
     110       0     -15       1       0                    LINE      73D    346
     120     467       1       1       0       0       0       001010000D    347
     120       0     -15       1       0                    SREV       4D    348
     110     468       1       1       0       0       0       001010000D    349
     110       0       0       1       0                    LINE      74D    350
     102     469       1       1       0       0       0       001010000D    351
     102       0       0       1       0                  CCURVE      27D    352
     110     470       1       1       0       0       0       001010500D    353
     110       0     -15       2       0                    LINE      75D    354
     110     472       1       1       0       0       0       001010500D    355
     110       0     -15       2       0                    LINE      76D    356
     110     474       1       1       0       0       0       001010500D    357
     110       0     -15       2       0                    LINE      77D    358
     110     476       1       1       0       0       0       001010500D    359
     110       0     -15       2       0                    LINE      78D    360
     102     478       1       1       0       0       0       001010500D    361
     102       0       0       1       0                  CCURVE      28D    362
     142     479       1       1       0       0       0       001010500D    363
     142       0       0       1       0                  UV_BND      14D    364
     144     480       1       1       0       0       0       000000000D    365
     144       0     -15       1       0                 TRM_SRF      11D    366
     128     481       1       1       0       0       0       001010000D    367
     128       0     -15       4       0                  SPLSRF       8D    368
     102     485       1       1       0       0       0       001010000D    369
     102       0       0       1       0                  CCURVE      29D    370
     126     486       1       1       0       0       0       001010500D    371
     126       0     -15      31       0                B_SPLINE       9D    372
     126     517       1       1       0       0       0       001010500D    373
     126       0     -15      31       0                B_SPLINE      10D    374
     102     548       1       1       0       0       0       001010500D    375
     102       0       0       1       0                  CCURVE      30D    376
     142     549       1       1       0       0       0       001010500D    377
     142       0       0       1       0                  UV_BND      15D    378
     144     550       1       1       0       0       0       000000000D    379
     144       0     -15       1       0                 TRM_SRF      12D    380
     110     551       1       1       0       0       0       001010000D    381
     110       0     -15       1       0                    LINE      79D    382
     110     552       1       1       0       0       0       001010000D    383
     110       0     -15       1       0                    LINE      80D    384
     120     553       1       1       0       0       0       001010000D    385
     120       0     -15       1       0                    SREV       5D    386
     110     554       1       1       0       0       0       001010000D    387
     110       0       0       1       0                    LINE      81D    388
     102     555       1       1       0       0       0       001010000D    389
     102       0       0       1       0                  CCURVE      31D    390
     110     556       1       1       0       0       0       001010500D    391
     110       0     -15       2       0                    LINE      82D    392
     110     558       1       1       0       0       0       001010500D    393
     110       0     -15       1       0                    LINE      83D    394
     110     559       1       1       0       0       0       001010500D    395
     110       0     -15       2       0                    LINE      84D    396
     110     561       1       1       0       0       0       001010500D    397
     110       0     -15       2       0                    LINE      85D    398
     102     563       1       1       0       0       0       001010500D    399
     102       0       0       1       0                  CCURVE      32D    400
     142     564       1       1       0       0       0       001010500D    401
     142       0       0       1       0                  UV_BND      16D    402
     144     565       1       1       0       0       0       000000000D    403
     144       0     -15       1       0                 TRM_SRF      13D    404
     110     566       1       1       0       0       0       001010000D    405
     110       0     -15       1       0                    LINE      86D    406
     110     567       1       1       0       0       0       001010000D    407
     110       0     -15       1       0                    LINE      87D    408
     120     568       1       1       0       0       0       001010000D    409
     120       0     -15       1       0                    SREV       6D    410
     110     569       1       1       0       0       0       001010000D    411
     110       0       0       1       0                    LINE      88D    412
     102     570       1       1       0       0       0       001010000D    413
     102       0       0       1       0                  CCURVE      33D    414
     110     571       1       1       0       0       0       001010500D    415
     110       0     -15       2       0                    LINE      89D    416
     110     573       1       1       0       0       0       001010500D    417
     110       0     -15       2       0                    LINE      90D    418
     110     575       1       1       0       0       0       001010500D    419
     110       0     -15       2       0                    LINE      91D    420
     110     577       1       1       0       0       0       001010500D    421
     110       0     -15       2       0                    LINE      92D    422
     102     579       1       1       0       0       0       001010500D    423
     102       0       0       1       0                  CCURVE      34D    424
     142     580       1       1       0       0       0       001010500D    425
     142       0       0       1       0                  UV_BND      17D    426
     144     581       1       1       0       0       0       000000000D    427
     144       0     -15       1       0                 TRM_SRF      14D    428
     128     582       1       1       0       0       0       001010000D    429
     128       0     -15       4       0                  SPLSRF       9D    430
     102     586       1       1       0       0       0       001010000D    431
     102       0       0       1       0                  CCURVE      35D    432
     126     587       1       1       0       0       0       001010500D    433
     126       0     -15      31       0                B_SPLINE      11D    434
     126     618       1       1       0       0       0       001010500D    435
     126       0     -15      31       0                B_SPLINE      12D    436
     102     649       1       1       0       0       0       001010500D    437
     102       0       0       1       0                  CCURVE      36D    438
     142     650       1       1       0       0       0       001010500D    439
     142       0       0       1       0                  UV_BND      18D    440
     144     651       1       1       0       0       0       000000000D    441
     144       0     -15       1       0                 TRM_SRF      15D    442
314,1.1D0,1.2D0,1D2;                                                   1P      1
314,1.1D1,1.1D1,1.1D1;                                                 3P      2
314,3.92D1,1.2D0,1.2D0;                                                5P      3
314,4.1D1,0D0,2.2D1;                                                   7P      4
314,8.784D1,9.49D1,1D2;                                                9P      5
314,9.6D1,9.6D1,9.6D1;                                                11P      6
314,9.8D1,6.27D1,0D0;                                                 13P      7
314,1D2,9.268654775126D1,1.486379278288D1;                            15P      8
314,1D2,1D2,9.49D1;                                                   17P      9
110,-2D0,0D0,2D0,2D0,0D0,2D0;                                         19P     10
110,2D0,0D0,2D0,2D0,0D0,-2D0;                                         21P     11
110,2D0,0D0,-2D0,-2D0,0D0,-2D0;                                       23P     12
110,-2D0,0D0,-2D0,-2D0,0D0,2D0;                                       25P     13
110,-2D0,0D0,2D0,-2D0,4D0,2D0;                                        27P     14
124,-1D0,0D0,0D0,0D0,0D0,1D0,0D0,2D0,0D0,0D0,-1D0,2D0;                29P     15
100,0D0,0D0,0D0,1.35D0,0D0,-1.35D0,0D0;                               31P     16
124,1D0,0D0,0D0,0D0,0D0,-1D0,0D0,2D0,0D0,0D0,-1D0,2D0;                33P     17
100,0D0,0D0,0D0,1.35D0,0D0,-1.35D0,0D0;                               35P     18
110,-2D0,0D0,-2D0,-2D0,4D0,-2D0;                                      37P     19
110,2D0,0D0,-2D0,2D0,4D0,-2D0;                                        39P     20
110,2D0,0D0,2D0,2D0,4D0,2D0;                                          41P     21
110,-2D0,4D0,2D0,2D0,4D0,2D0;                                         43P     22
110,-2D0,4D0,-2D0,-2D0,4D0,2D0;                                       45P     23
110,2D0,4D0,-2D0,-2D0,4D0,-2D0;                                       47P     24
110,2D0,4D0,2D0,2D0,4D0,-2D0;                                         49P     25
124,-1D0,0D0,0D0,0D0,0D0,0D0,-1D0,4D0,0D0,-1D0,0D0,0D0;               51P     26
100,0D0,0D0,0D0,1.75D0,0D0,-1.75D0,0D0;                               53P     27
124,1D0,0D0,0D0,0D0,0D0,0D0,-1D0,4D0,0D0,1D0,0D0,0D0;                 55P     28
100,0D0,0D0,0D0,1.75D0,0D0,-1.75D0,0D0;                               57P     29
110,1.75D0,4D0,0D0,1.75D0,4.9D0,0D0;                                  59P     30
110,-1.75D0,4D0,0D0,-1.75D0,4.9D0,0D0;                                61P     31
124,1D0,0D0,0D0,0D0,0D0,0D0,1D0,4.9D0,0D0,-1D0,0D0,0D0;               63P     32
100,0D0,0D0,0D0,1.75D0,0D0,-1.75D0,0D0;                               65P     33
124,-1D0,0D0,0D0,0D0,0D0,0D0,1D0,4.9D0,0D0,1D0,0D0,0D0;               67P     34
100,0D0,0D0,0D0,1.75D0,0D0,-1.75D0,0D0;                               69P     35
124,-1D0,0D0,0D0,0D0,0D0,0D0,-1D0,4.9D0,0D0,-1D0,0D0,0D0;             71P     36
100,0D0,0D0,0D0,1.2D0,0D0,-1.2D0,0D0;                                 73P     37
124,1D0,0D0,0D0,0D0,0D0,0D0,-1D0,4.9D0,0D0,1D0,0D0,0D0;               75P     38
100,0D0,0D0,0D0,1.2D0,0D0,-1.2D0,0D0;                                 77P     39
110,1.2D0,4.9D0,0D0,1.2D0,7.55D0,0D0;                                 79P     40
110,-1.2D0,4.9D0,0D0,-1.2D0,7.55D0,0D0;                               81P     41
124,1D0,0D0,0D0,0D0,0D0,0D0,1D0,7.55D0,0D0,-1D0,0D0,0D0;              83P     42
100,0D0,0D0,0D0,1.2D0,0D0,-1.2D0,0D0;                                 85P     43
124,-1D0,0D0,0D0,0D0,0D0,0D0,1D0,7.55D0,0D0,1D0,0D0,0D0;              87P     44
100,0D0,0D0,0D0,1.2D0,0D0,-1.2D0,0D0;                                 89P     45
110,1.35D0,2D0,2D0,1.35D0,2D0,7D0;                                    91P     46
110,-1.35D0,2D0,2D0,-1.35D0,2D0,7D0;                                  93P     47
124,1D0,0D0,0D0,0D0,0D0,1D0,0D0,2D0,0D0,0D0,1D0,7D0;                  95P     48
100,0D0,0D0,0D0,1.35D0,0D0,-1.35D0,0D0;                               97P     49
124,-1D0,0D0,0D0,0D0,0D0,-1D0,0D0,2D0,0D0,0D0,1D0,7D0;                99P     50
100,0D0,0D0,0D0,1.35D0,0D0,-1.35D0,0D0;                              101P     51
128,1,1,1,1,0,0,1,0,0,-2.08D0,-2.08D0,2.08D0,2.08D0,-2.08D0,         103P     52
-2.08D0,2.08D0,2.08D0,1D0,1D0,1D0,1D0,-2.08D0,0D0,2.08D0,2.08D0,     103P     53
0D0,2.08D0,-2.08D0,0D0,-2.08D0,2.08D0,0D0,-2.08D0,-2.08D0,           103P     54
2.08D0,-2.08D0,2.08D0;                                               103P     55
102,4,19,21,23,25;                                                   105P     56
110,-2D0,-2D0,0D0,2D0,-2D0,0D0;                                      107P     57
110,2D0,-2D0,0D0,2D0,2D0,0D0;                                        109P     58
110,2D0,2D0,0D0,-2D0,2D0,0D0;                                        111P     59
110,-2D0,2D0,0D0,-2D0,-2D0,0D0;                                      113P     60
102,4,107,109,111,113;                                               115P     61
142,0,103,115,105,1;                                                 117P     62
144,103,1,0,117;                                                     119P     63
128,1,1,1,1,0,0,1,0,0,-8D-2,-8D-2,4.08D0,4.08D0,-8D-2,-8D-2,         121P     64
4.08D0,4.08D0,1D0,1D0,1D0,1D0,-2.08D0,-8D-2,2D0,2.08D0,-8D-2,        121P     65
2D0,-2.08D0,4.08D0,2D0,2.08D0,4.08D0,2D0,-8D-2,4.08D0,-8D-2,         121P     66
4.08D0;                                                              121P     67
110,2D0,4D0,2D0,-2D0,4D0,2D0;                                        123P     68
110,-2D0,4D0,2D0,-2D0,0D0,2D0;                                       125P     69
102,4,19,41,123,125;                                                 127P     70
110,0D0,0D0,0D0,4D0,0D0,0D0;                                         129P     71
110,4D0,0D0,0D0,4D0,4D0,0D0;                                         131P     72
110,4D0,4D0,0D0,0D0,4D0,0D0;                                         133P     73
110,0D0,4D0,0D0,0D0,0D0,0D0;                                         135P     74
102,4,129,131,133,135;                                               137P     75
142,0,121,137,127,1;                                                 139P     76
102,2,31,35;                                                         141P     77
126,31,3,0,0,1,0,0D0,0D0,0D0,0D0,3.448275862069D-2,                  143P     78
6.896551724138D-2,1.034482758621D-1,1.379310344828D-1,               143P     79
1.724137931034D-1,2.068965517241D-1,2.413793103448D-1,               143P     80
2.758620689655D-1,3.103448275862D-1,3.448275862069D-1,               143P     81
3.793103448276D-1,4.137931034483D-1,4.482758620690D-1,               143P     82
4.827586206897D-1,5.172413793103D-1,5.517241379310D-1,               143P     83
5.862068965517D-1,6.206896551724D-1,6.551724137931D-1,               143P     84
6.896551724138D-1,7.241379310345D-1,7.586206896552D-1,               143P     85
7.931034482759D-1,8.275862068966D-1,8.620689655172D-1,               143P     86
8.965517241379D-1,9.310344827586D-1,9.655172413793D-1,1D0,1D0,       143P     87
1D0,1D0,1D0,1D0,1D0,1D0,1D0,1D0,1D0,1D0,1D0,1D0,1D0,1D0,1D0,1D0,     143P     88
1D0,1D0,1D0,1D0,1D0,1D0,1D0,1D0,1D0,1D0,1D0,1D0,1D0,1D0,1D0,1D0,     143P     89
1D0,1D0,6.5D-1,2D0,0D0,6.499889370166D-1,2.048750017342D0,0D0,       143P     90
6.552913021569D-1,2.146245884116D0,0D0,6.789795839755D-1,            143P     91
2.290778428817D0,0D0,7.181638606893D-1,2.431900966328D0,0D0,         143P     92
7.723742866866D-1,2.567960099975D0,0D0,8.409780932296D-1,            143P     93
2.697360356412D0,0D0,9.231702134375D-1,2.818584717510D0,0D0,         143P     94
1.017987220805D0,2.930211916616D0,0D0,1.124317418766D0,              143P     95
3.030933232738D0,0D0,1.240914197397D0,3.119567798966D0,0D0,          143P     96
1.366410562209D0,3.195076456470D0,0D0,1.499335184100D0,              143P     97
3.256573935167D0,0D0,1.638129643137D0,3.303339233377D0,0D0,          143P     98
1.781166701263D0,3.334824070729D0,0D0,1.926769379732D0,              143P     99
3.350659316293D0,0D0,2.073230620268D0,3.350659316293D0,0D0,          143P    100
2.218833298737D0,3.334824070729D0,0D0,2.361870356863D0,              143P    101
3.303339233377D0,0D0,2.500664815900D0,3.256573935167D0,0D0,          143P    102
2.633589437791D0,3.195076456470D0,0D0,2.759085802603D0,              143P    103
3.119567798966D0,0D0,2.875682581234D0,3.030933232738D0,0D0,          143P    104
2.982012779195D0,2.930211916616D0,0D0,3.076829786563D0,              143P    105
2.818584717510D0,0D0,3.159021906770D0,2.697360356412D0,0D0,          143P    106
3.227625713313D0,2.567960099975D0,0D0,3.281836139311D0,              143P    107
2.431900966328D0,0D0,3.321020416024D0,2.290778428817D0,0D0,          143P    108
3.344708697843D0,2.146245884116D0,0D0,3.350011062983D0,              143P    109
2.048750017342D0,0D0,3.35D0,2D0,0D0,0D0,1D0,0D0,0D0,1D0;             143P    110
126,31,3,0,0,1,0,0D0,0D0,0D0,0D0,3.448275862069D-2,                  145P    111
6.896551724138D-2,1.034482758621D-1,1.379310344828D-1,               145P    112
1.724137931034D-1,2.068965517241D-1,2.413793103448D-1,               145P    113
2.758620689655D-1,3.103448275862D-1,3.448275862069D-1,               145P    114
3.793103448276D-1,4.137931034483D-1,4.482758620690D-1,               145P    115
4.827586206897D-1,5.172413793103D-1,5.517241379310D-1,               145P    116
5.862068965517D-1,6.206896551724D-1,6.551724137931D-1,               145P    117
6.896551724138D-1,7.241379310345D-1,7.586206896552D-1,               145P    118
7.931034482759D-1,8.275862068966D-1,8.620689655172D-1,               145P    119
8.965517241379D-1,9.310344827586D-1,9.655172413793D-1,1D0,1D0,       145P    120
1D0,1D0,1D0,1D0,1D0,1D0,1D0,1D0,1D0,1D0,1D0,1D0,1D0,1D0,1D0,1D0,     145P    121
1D0,1D0,1D0,1D0,1D0,1D0,1D0,1D0,1D0,1D0,1D0,1D0,1D0,1D0,1D0,1D0,     145P    122
1D0,1D0,3.35D0,2D0,0D0,3.350011062983D0,1.951249982658D0,0D0,        145P    123
3.344708697843D0,1.853754115884D0,0D0,3.321020416024D0,              145P    124
1.709221571183D0,0D0,3.281836139311D0,1.568099033672D0,0D0,          145P    125
3.227625713313D0,1.432039900025D0,0D0,3.159021906770D0,              145P    126
1.302639643588D0,0D0,3.076829786563D0,1.181415282490D0,0D0,          145P    127
2.982012779195D0,1.069788083384D0,0D0,2.875682581234D0,              145P    128
9.690667672620D-1,0D0,2.759085802603D0,8.804322010343D-1,0D0,        145P    129
2.633589437791D0,8.049235435300D-1,0D0,2.500664815900D0,             145P    130
7.434260648328D-1,0D0,2.361870356863D0,6.966607666226D-1,0D0,        145P    131
2.218833298737D0,6.651759292710D-1,0D0,2.073230620268D0,             145P    132
6.493406837070D-1,0D0,1.926769379732D0,6.493406837070D-1,0D0,        145P    133
1.781166701263D0,6.651759292710D-1,0D0,1.638129643137D0,             145P    134
6.966607666226D-1,0D0,1.499335184100D0,7.434260648328D-1,0D0,        145P    135
1.366410562209D0,8.049235435300D-1,0D0,1.240914197397D0,             145P    136
8.804322010343D-1,0D0,1.124317418766D0,9.690667672620D-1,0D0,        145P    137
1.017987220805D0,1.069788083384D0,0D0,9.231702134375D-1,             145P    138
1.181415282490D0,0D0,8.409780932296D-1,1.302639643588D0,0D0,         145P    139
7.723742866866D-1,1.432039900025D0,0D0,7.181638606893D-1,            145P    140
1.568099033672D0,0D0,6.789795839755D-1,1.709221571183D0,0D0,         145P    141
6.552913021569D-1,1.853754115884D0,0D0,6.499889370166D-1,            145P    142
1.951249982658D0,0D0,6.5D-1,2D0,0D0,0D0,1D0,0D0,0D0,1D0;             145P    143
102,2,143,145;                                                       147P    144
142,0,121,147,141,1;                                                 149P    145
144,121,1,1,139,149;                                                 151P    146
128,1,1,1,1,0,0,1,0,0,-8D-2,-8D-2,4.08D0,4.08D0,-8D-2,-8D-2,         153P    147
4.08D0,4.08D0,1D0,1D0,1D0,1D0,-2D0,-8D-2,-2.08D0,-2D0,-8D-2,         153P    148
2.08D0,-2D0,4.08D0,-2.08D0,-2D0,4.08D0,2.08D0,-8D-2,4.08D0,          153P    149
-8D-2,4.08D0;                                                        153P    150
110,-2D0,4D0,2D0,-2D0,4D0,-2D0;                                      155P    151
110,-2D0,4D0,-2D0,-2D0,0D0,-2D0;                                     157P    152
102,4,25,27,155,157;                                                 159P    153
110,0D0,0D0,0D0,4D0,0D0,0D0;                                         161P    154
110,4D0,0D0,0D0,4D0,4D0,0D0;                                         163P    155
110,4D0,4D0,0D0,0D0,4D0,0D0;                                         165P    156
110,0D0,4D0,0D0,0D0,0D0,0D0;                                         167P    157
102,4,161,163,165,167;                                               169P    158
142,0,153,169,159,1;                                                 171P    159
144,153,1,0,171;                                                     173P    160
128,1,1,1,1,0,0,1,0,0,-8D-2,-8D-2,4.08D0,4.08D0,-8D-2,-8D-2,         175P    161
4.08D0,4.08D0,1D0,1D0,1D0,1D0,2.08D0,-8D-2,-2D0,-2.08D0,-8D-2,       175P    162
-2D0,2.08D0,4.08D0,-2D0,-2.08D0,4.08D0,-2D0,-8D-2,4.08D0,-8D-2,      175P    163
4.08D0;                                                              175P    164
110,-2D0,4D0,-2D0,2D0,4D0,-2D0;                                      177P    165
110,2D0,4D0,-2D0,2D0,0D0,-2D0;                                       179P    166
102,4,23,37,177,179;                                                 181P    167
110,0D0,0D0,0D0,4D0,0D0,0D0;                                         183P    168
110,4D0,0D0,0D0,4D0,4D0,0D0;                                         185P    169
110,4D0,4D0,0D0,0D0,4D0,0D0;                                         187P    170
110,0D0,4D0,0D0,0D0,0D0,0D0;                                         189P    171
102,4,183,185,187,189;                                               191P    172
142,0,175,191,181,1;                                                 193P    173
144,175,1,0,193;                                                     195P    174
128,1,1,1,1,0,0,1,0,0,-8D-2,-8D-2,4.08D0,4.08D0,-8D-2,-8D-2,         197P    175
4.08D0,4.08D0,1D0,1D0,1D0,1D0,2D0,-8D-2,2.08D0,2D0,-8D-2,            197P    176
-2.08D0,2D0,4.08D0,2.08D0,2D0,4.08D0,-2.08D0,-8D-2,4.08D0,-8D-2,     197P    177
4.08D0;                                                              197P    178
110,2D0,4D0,-2D0,2D0,4D0,2D0;                                        199P    179
110,2D0,4D0,2D0,2D0,0D0,2D0;                                         201P    180
102,4,21,39,199,201;                                                 203P    181
110,0D0,0D0,0D0,4D0,0D0,0D0;                                         205P    182
110,4D0,0D0,0D0,4D0,4D0,0D0;                                         207P    183
110,4D0,4D0,0D0,0D0,4D0,0D0;                                         209P    184
110,0D0,4D0,0D0,0D0,0D0,0D0;                                         211P    185
102,4,205,207,209,211;                                               213P    186
142,0,197,213,203,1;                                                 215P    187
144,197,1,0,215;                                                     217P    188
128,1,1,1,1,0,0,1,0,0,-2.08D0,-2.08D0,2.08D0,2.08D0,-2.08D0,         219P    189
-2.08D0,2.08D0,2.08D0,1D0,1D0,1D0,1D0,-2.08D0,4D0,2.08D0,2.08D0,     219P    190
4D0,2.08D0,-2.08D0,4D0,-2.08D0,2.08D0,4D0,-2.08D0,-2.08D0,           219P    191
2.08D0,-2.08D0,2.08D0;                                               219P    192
102,4,43,49,47,45;                                                   221P    193
110,-2D0,-2D0,0D0,2D0,-2D0,0D0;                                      223P    194
110,2D0,-2D0,0D0,2D0,2D0,0D0;                                        225P    195
110,2D0,2D0,0D0,-2D0,2D0,0D0;                                        227P    196
110,-2D0,2D0,0D0,-2D0,-2D0,0D0;                                      229P    197
102,4,223,225,227,229;                                               231P    198
142,0,219,231,221,1;                                                 233P    199
102,2,53,57;                                                         235P    200
126,35,3,0,0,1,0,0D0,0D0,0D0,0D0,3.030303030303D-2,                  237P    201
6.060606060606D-2,9.090909090909D-2,1.212121212121D-1,               237P    202
1.515151515152D-1,1.818181818182D-1,2.121212121212D-1,               237P    203
2.424242424242D-1,2.727272727273D-1,3.030303030303D-1,               237P    204
3.333333333333D-1,3.636363636364D-1,3.939393939394D-1,               237P    205
4.242424242424D-1,4.545454545455D-1,4.848484848485D-1,               237P    206
5.151515151515D-1,5.454545454545D-1,5.757575757576D-1,               237P    207
6.060606060606D-1,6.363636363636D-1,6.666666666667D-1,               237P    208
6.969696969697D-1,7.272727272727D-1,7.575757575758D-1,               237P    209
7.878787878788D-1,8.181818181818D-1,8.484848484848D-1,               237P    210
8.787878787879D-1,9.090909090909D-1,9.393939393939D-1,               237P    211
9.696969696970D-1,1D0,1D0,1D0,1D0,1D0,1D0,1D0,1D0,1D0,1D0,1D0,       237P    212
1D0,1D0,1D0,1D0,1D0,1D0,1D0,1D0,1D0,1D0,1D0,1D0,1D0,1D0,1D0,1D0,     237P    213
1D0,1D0,1D0,1D0,1D0,1D0,1D0,1D0,1D0,1D0,1D0,1D0,1D0,-1.75D0,0D0,     237P    214
0D0,-1.750008564365D0,5.553399590188D-2,0D0,-1.744705282636D0,       237P    215
1.665991547713D-1,0D0,-1.720973851245D0,3.316904191415D-1,0D0,       237P    216
-1.681650633641D0,4.937772344469D-1,0D0,-1.627099837143D0,           237P    217
6.513924899060D-1,0D0,-1.557813314456D0,8.031085903626D-1,0D0,       237P    218
-1.474419115908D0,9.475516267814D-1,0D0,-1.377672316637D0,           237P    219
1.083413485795D0,0D0,-1.268449112342D0,1.209463785353D0,0D0,         237P    220
-1.147738634099D0,1.324560993355D0,0D0,-1.016634057687D0,            237P    221
1.427662771948D0,0D0,-8.763226856496D-1,1.517835415383D0,0D0,        237P    222
-7.280751997143D-1,1.594262306258D0,0D0,-5.732341520130D-1,          237P    223
1.656251310809D0,0D0,-4.132018070668D-1,1.703241047012D0,0D0,        237P    224
-2.494274425690D-1,1.734805968540D0,0D0,-8.339422452677D-2,          237P    225
1.750660218576D0,0D0,8.339422452677D-2,1.750660218576D0,0D0,         237P    226
2.494274425690D-1,1.734805968540D0,0D0,4.132018070668D-1,            237P    227
1.703241047012D0,0D0,5.732341520130D-1,1.656251310809D0,0D0,         237P    228
7.280751997143D-1,1.594262306258D0,0D0,8.763226856496D-1,            237P    229
1.517835415383D0,0D0,1.016634057687D0,1.427662771948D0,0D0,          237P    230
1.147738634099D0,1.324560993355D0,0D0,1.268449112342D0,              237P    231
1.209463785353D0,0D0,1.377672316637D0,1.083413485795D0,0D0,          237P    232
1.474419115908D0,9.475516267814D-1,0D0,1.557813314456D0,             237P    233
8.031085903626D-1,0D0,1.627099837143D0,6.513924899060D-1,0D0,        237P    234
1.681650633641D0,4.937772344469D-1,0D0,1.720973851245D0,             237P    235
3.316904191415D-1,0D0,1.744705282636D0,1.665991547713D-1,0D0,        237P    236
1.750008564365D0,5.553399590188D-2,0D0,1.75D0,0D0,0D0,0D0,1D0,       237P    237
0D0,0D0,1D0;                                                         237P    238
126,35,3,0,0,1,0,0D0,0D0,0D0,0D0,3.030303030303D-2,                  239P    239
6.060606060606D-2,9.090909090909D-2,1.212121212121D-1,               239P    240
1.515151515152D-1,1.818181818182D-1,2.121212121212D-1,               239P    241
2.424242424242D-1,2.727272727273D-1,3.030303030303D-1,               239P    242
3.333333333333D-1,3.636363636364D-1,3.939393939394D-1,               239P    243
4.242424242424D-1,4.545454545455D-1,4.848484848485D-1,               239P    244
5.151515151515D-1,5.454545454545D-1,5.757575757576D-1,               239P    245
6.060606060606D-1,6.363636363636D-1,6.666666666667D-1,               239P    246
6.969696969697D-1,7.272727272727D-1,7.575757575758D-1,               239P    247
7.878787878788D-1,8.181818181818D-1,8.484848484848D-1,               239P    248
8.787878787879D-1,9.090909090909D-1,9.393939393939D-1,               239P    249
9.696969696970D-1,1D0,1D0,1D0,1D0,1D0,1D0,1D0,1D0,1D0,1D0,1D0,       239P    250
1D0,1D0,1D0,1D0,1D0,1D0,1D0,1D0,1D0,1D0,1D0,1D0,1D0,1D0,1D0,1D0,     239P    251
1D0,1D0,1D0,1D0,1D0,1D0,1D0,1D0,1D0,1D0,1D0,1D0,1D0,1.75D0,0D0,      239P    252
0D0,1.750008564365D0,-5.553399590188D-2,0D0,1.744705282636D0,        239P    253
-1.665991547713D-1,0D0,1.720973851245D0,-3.316904191415D-1,0D0,      239P    254
1.681650633641D0,-4.937772344469D-1,0D0,1.627099837143D0,            239P    255
-6.513924899060D-1,0D0,1.557813314456D0,-8.031085903626D-1,0D0,      239P    256
1.474419115908D0,-9.475516267814D-1,0D0,1.377672316637D0,            239P    257
-1.083413485795D0,0D0,1.268449112342D0,-1.209463785353D0,0D0,        239P    258
1.147738634099D0,-1.324560993355D0,0D0,1.016634057687D0,             239P    259
-1.427662771948D0,0D0,8.763226856496D-1,-1.517835415383D0,0D0,       239P    260
7.280751997143D-1,-1.594262306258D0,0D0,5.732341520130D-1,           239P    261
-1.656251310809D0,0D0,4.132018070668D-1,-1.703241047012D0,0D0,       239P    262
2.494274425690D-1,-1.734805968540D0,0D0,8.339422452677D-2,           239P    263
-1.750660218576D0,0D0,-8.339422452677D-2,-1.750660218576D0,0D0,      239P    264
-2.494274425690D-1,-1.734805968540D0,0D0,-4.132018070668D-1,         239P    265
-1.703241047012D0,0D0,-5.732341520130D-1,-1.656251310809D0,0D0,      239P    266
-7.280751997143D-1,-1.594262306258D0,0D0,-8.763226856496D-1,         239P    267
-1.517835415383D0,0D0,-1.016634057687D0,-1.427662771948D0,0D0,       239P    268
-1.147738634099D0,-1.324560993355D0,0D0,-1.268449112342D0,           239P    269
-1.209463785353D0,0D0,-1.377672316637D0,-1.083413485795D0,0D0,       239P    270
-1.474419115908D0,-9.475516267814D-1,0D0,-1.557813314456D0,          239P    271
-8.031085903626D-1,0D0,-1.627099837143D0,-6.513924899060D-1,0D0,     239P    272
-1.681650633641D0,-4.937772344469D-1,0D0,-1.720973851245D0,          239P    273
-3.316904191415D-1,0D0,-1.744705282636D0,-1.665991547713D-1,0D0,     239P    274
-1.750008564365D0,-5.553399590188D-2,0D0,-1.75D0,0D0,0D0,0D0,        239P    275
1D0,0D0,0D0,1D0;                                                     239P    276
102,2,237,239;                                                       241P    277
142,0,219,241,235,1;                                                 243P    278
144,219,1,1,233,243;                                                 245P    279
110,0D0,4D0,0D0,0D0,5D0,0D0;                                         247P    280
110,1.75D0,3.982D0,0D0,1.75D0,4.918D0,0D0;                           249P    281
120,247,249,-6.283185307180D-2,3.204424506662D0;                     251P    282
110,-1.75D0,4.9D0,0D0,-1.75D0,4D0,0D0;                               253P    283
102,4,53,59,65,253;                                                  255P    284
110,1.923076923077D-2,3.141592653590D0,0D0,1.923076923077D-2,        257P    285
0D0,0D0;                                                             257P    286
110,1.923076923077D-2,0D0,0D0,9.807692307692D-1,0D0,0D0;             259P    287
110,9.807692307692D-1,0D0,0D0,9.807692307692D-1,                     261P    288
3.141592653590D0,0D0;                                                261P    289
110,9.807692307692D-1,3.141592653590D0,0D0,1.923076923077D-2,        263P    290
3.141592653590D0,0D0;                                                263P    291
102,4,257,259,261,263;                                               265P    292
142,0,251,265,255,1;                                                 267P    293
144,251,1,0,267;                                                     269P    294
110,0D0,4D0,0D0,0D0,5D0,0D0;                                         271P    295
110,1.75D0,3.982D0,0D0,1.75D0,4.918D0,0D0;                           273P    296
120,271,273,3.078760800518D0,6.346017160251D0;                       275P    297
110,1.75D0,4.9D0,0D0,1.75D0,4D0,0D0;                                 277P    298
102,4,57,61,69,277;                                                  279P    299
110,1.923076923077D-2,6.283185307180D0,0D0,1.923076923077D-2,        281P    300
3.141592653590D0,0D0;                                                281P    301
110,1.923076923077D-2,3.141592653590D0,0D0,9.807692307692D-1,        283P    302
3.141592653590D0,0D0;                                                283P    303
110,9.807692307692D-1,3.141592653590D0,0D0,9.807692307692D-1,        285P    304
6.283185307180D0,0D0;                                                285P    305
110,9.807692307692D-1,6.283185307180D0,0D0,1.923076923077D-2,        287P    306
6.283185307180D0,0D0;                                                287P    307
102,4,281,283,285,287;                                               289P    308
142,0,275,289,279,1;                                                 291P    309
144,275,1,0,291;                                                     293P    310
128,1,1,1,1,0,0,1,0,0,-1.82D0,-1.82D0,1.82D0,1.82D0,-1.82D0,         295P    311
-1.82D0,1.82D0,1.82D0,1D0,1D0,1D0,1D0,-1.82D0,4.9D0,1.82D0,          295P    312
1.82D0,4.9D0,1.82D0,-1.82D0,4.9D0,-1.82D0,1.82D0,4.9D0,-1.82D0,      295P    313
-1.82D0,1.82D0,-1.82D0,1.82D0;                                       295P    314
102,2,65,69;                                                         297P    315
126,34,3,0,0,1,0,0D0,0D0,0D0,0D0,3.125D-2,6.25D-2,9.375D-2,          299P    316
1.25D-1,1.5625D-1,1.875D-1,2.1875D-1,2.5D-1,2.8125D-1,3.125D-1,      299P    317
3.4375D-1,3.75D-1,4.0625D-1,4.375D-1,4.6875D-1,5D-1,5.3125D-1,       299P    318
5.625D-1,5.9375D-1,6.25D-1,6.5625D-1,6.875D-1,7.1875D-1,7.5D-1,      299P    319
7.8125D-1,8.125D-1,8.4375D-1,8.75D-1,9.0625D-1,9.375D-1,             299P    320
9.6875D-1,1D0,1D0,1D0,1D0,1D0,1D0,1D0,1D0,1D0,1D0,1D0,1D0,1D0,       299P    321
1D0,1D0,1D0,1D0,1D0,1D0,1D0,1D0,1D0,1D0,1D0,1D0,1D0,1D0,1D0,1D0,     299P    322
1D0,1D0,1D0,1D0,1D0,1D0,1D0,1D0,1D0,1D0,1.75D0,0D0,0D0,              299P    323
1.750009683351D0,5.726954021813D-2,0D0,1.744368655451D0,             299P    324
1.718053168476D-1,0D0,1.719134810953D0,3.419570541666D-1,0D0,        299P    325
1.677337544971D0,5.088148476554D-1,0D0,1.619388534351D0,             299P    326
6.707726663836D-1,0D0,1.545843408993D0,8.262705266437D-1,0D0,        299P    327
1.457411105334D0,9.738109637147D-1,0D0,1.354943098846D0,             299P    328
1.111973065204D0,0D0,1.239426259591D0,1.239426259189D0,0D0,          299P    329
1.111973065248D0,1.354943100497D0,0D0,9.738109631353D-1,             299P    330
1.457411099130D0,0D0,8.262705289168D-1,1.545843432158D0,0D0,         299P    331
6.707726578707D-1,1.619388447895D0,0D0,5.088148794339D-1,            299P    332
1.677337867630D0,0D0,3.419569355654D-1,1.719133606774D0,0D0,         299P    333
1.718057594737D-1,1.744373149510D0,0D0,0D0,1.752813425245D0,0D0,     299P    334
-1.718057594737D-1,1.744373149510D0,0D0,-3.419569355654D-1,          299P    335
1.719133606774D0,0D0,-5.088148794339D-1,1.677337867630D0,0D0,        299P    336
-6.707726578707D-1,1.619388447895D0,0D0,-8.262705289168D-1,          299P    337
1.545843432158D0,0D0,-9.738109631353D-1,1.457411099130D0,0D0,        299P    338
-1.111973065248D0,1.354943100497D0,0D0,-1.239426259591D0,            299P    339
1.239426259189D0,0D0,-1.354943098846D0,1.111973065204D0,0D0,         299P    340
-1.457411105334D0,9.738109637147D-1,0D0,-1.545843408993D0,           299P    341
8.262705266437D-1,0D0,-1.619388534351D0,6.707726663836D-1,0D0,       299P    342
-1.677337544971D0,5.088148476554D-1,0D0,-1.719134810953D0,           299P    343
3.419570541666D-1,0D0,-1.744368655451D0,1.718053168476D-1,0D0,       299P    344
-1.750009683351D0,5.726954021813D-2,0D0,-1.75D0,0D0,0D0,0D0,1D0,     299P    345
0D0,0D0,1D0;                                                         299P    346
126,34,3,0,0,1,0,0D0,0D0,0D0,0D0,3.125D-2,6.25D-2,9.375D-2,          301P    347
1.25D-1,1.5625D-1,1.875D-1,2.1875D-1,2.5D-1,2.8125D-1,3.125D-1,      301P    348
3.4375D-1,3.75D-1,4.0625D-1,4.375D-1,4.6875D-1,5D-1,5.3125D-1,       301P    349
5.625D-1,5.9375D-1,6.25D-1,6.5625D-1,6.875D-1,7.1875D-1,7.5D-1,      301P    350
7.8125D-1,8.125D-1,8.4375D-1,8.75D-1,9.0625D-1,9.375D-1,             301P    351
9.6875D-1,1D0,1D0,1D0,1D0,1D0,1D0,1D0,1D0,1D0,1D0,1D0,1D0,1D0,       301P    352
1D0,1D0,1D0,1D0,1D0,1D0,1D0,1D0,1D0,1D0,1D0,1D0,1D0,1D0,1D0,1D0,     301P    353
1D0,1D0,1D0,1D0,1D0,1D0,1D0,1D0,1D0,1D0,-1.75D0,0D0,0D0,             301P    354
-1.750009683351D0,-5.726954021813D-2,0D0,-1.744368655451D0,          301P    355
-1.718053168476D-1,0D0,-1.719134810953D0,-3.419570541666D-1,0D0,     301P    356
-1.677337544971D0,-5.088148476554D-1,0D0,-1.619388534351D0,          301P    357
-6.707726663836D-1,0D0,-1.545843408993D0,-8.262705266437D-1,0D0,     301P    358
-1.457411105334D0,-9.738109637147D-1,0D0,-1.354943098846D0,          301P    359
-1.111973065204D0,0D0,-1.239426259591D0,-1.239426259189D0,0D0,       301P    360
-1.111973065248D0,-1.354943100497D0,0D0,-9.738109631353D-1,          301P    361
-1.457411099130D0,0D0,-8.262705289168D-1,-1.545843432158D0,0D0,      301P    362
-6.707726578707D-1,-1.619388447895D0,0D0,-5.088148794339D-1,         301P    363
-1.677337867630D0,0D0,-3.419569355654D-1,-1.719133606774D0,0D0,      301P    364
-1.718057594737D-1,-1.744373149510D0,0D0,0D0,-1.752813425245D0,      301P    365
0D0,1.718057594737D-1,-1.744373149510D0,0D0,3.419569355654D-1,       301P    366
-1.719133606774D0,0D0,5.088148794339D-1,-1.677337867630D0,0D0,       301P    367
6.707726578707D-1,-1.619388447895D0,0D0,8.262705289168D-1,           301P    368
-1.545843432158D0,0D0,9.738109631353D-1,-1.457411099130D0,0D0,       301P    369
1.111973065248D0,-1.354943100497D0,0D0,1.239426259591D0,             301P    370
-1.239426259189D0,0D0,1.354943098846D0,-1.111973065204D0,0D0,        301P    371
1.457411105334D0,-9.738109637147D-1,0D0,1.545843408993D0,            301P    372
-8.262705266437D-1,0D0,1.619388534351D0,-6.707726663836D-1,0D0,      301P    373
1.677337544971D0,-5.088148476554D-1,0D0,1.719134810953D0,            301P    374
-3.419570541666D-1,0D0,1.744368655451D0,-1.718053168476D-1,0D0,      301P    375
1.750009683351D0,-5.726954021813D-2,0D0,1.75D0,0D0,0D0,0D0,1D0,      301P    376
0D0,0D0,1D0;                                                         301P    377
102,2,299,301;                                                       303P    378
142,0,295,303,297,1;                                                 305P    379
102,2,73,77;                                                         307P    380
126,31,3,0,0,1,0,0D0,0D0,0D0,0D0,3.448275862069D-2,                  309P    381
6.896551724138D-2,1.034482758621D-1,1.379310344828D-1,               309P    382
1.724137931034D-1,2.068965517241D-1,2.413793103448D-1,               309P    383
2.758620689655D-1,3.103448275862D-1,3.448275862069D-1,               309P    384
3.793103448276D-1,4.137931034483D-1,4.482758620690D-1,               309P    385
4.827586206897D-1,5.172413793103D-1,5.517241379310D-1,               309P    386
5.862068965517D-1,6.206896551724D-1,6.551724137931D-1,               309P    387
6.896551724138D-1,7.241379310345D-1,7.586206896552D-1,               309P    388
7.931034482759D-1,8.275862068966D-1,8.620689655172D-1,               309P    389
8.965517241379D-1,9.310344827586D-1,9.655172413793D-1,1D0,1D0,       309P    390
1D0,1D0,1D0,1D0,1D0,1D0,1D0,1D0,1D0,1D0,1D0,1D0,1D0,1D0,1D0,1D0,     309P    391
1D0,1D0,1D0,1D0,1D0,1D0,1D0,1D0,1D0,1D0,1D0,1D0,1D0,1D0,1D0,1D0,     309P    392
1D0,1D0,-1.2D0,0D0,0D0,-1.200009833763D0,4.333334874830D-2,0D0,      309P    393
-1.195296620305D0,1.299963414361D-1,0D0,-1.174240369800D0,           309P    394
2.584697145036D-1,0D0,-1.139409901610D0,3.839119700690D-1,0D0,       309P    395
-1.091222856279D0,5.048534221996D-1,0D0,-1.030241694907D0,           309P    396
6.198758723664D-1,0D0,-9.571820325D-1,7.276308600091D-1,0D0,         309P    397
-8.729002481736D-1,8.268550369921D-1,0D0,-7.783845166522D-1,         309P    398
9.163850957671D-1,0D0,-6.747429356467D-1,9.951713768584D-1,0D0,      309P    399
-5.631906113702D-1,1.062290183529D0,0D0,-4.450353919109D-1,          309P    400
1.116954609037D0,0D0,-3.216625394334D-1,1.158523763002D0,0D0,        309P    401
-1.945184877659D-1,1.186510285092D0,0D0,-6.509388468305D-2,          309P    402
1.200586058927D0,0D0,6.509388468305D-2,1.200586058927D0,0D0,         309P    403
1.945184877659D-1,1.186510285092D0,0D0,3.216625394334D-1,            309P    404
1.158523763002D0,0D0,4.450353919109D-1,1.116954609037D0,0D0,         309P    405
5.631906113702D-1,1.062290183529D0,0D0,6.747429356467D-1,            309P    406
9.951713768584D-1,0D0,7.783845166522D-1,9.163850957671D-1,0D0,       309P    407
8.729002481736D-1,8.268550369921D-1,0D0,9.571820325D-1,              309P    408
7.276308600091D-1,0D0,1.030241694907D0,6.198758723664D-1,0D0,        309P    409
1.091222856279D0,5.048534221996D-1,0D0,1.139409901610D0,             309P    410
3.839119700690D-1,0D0,1.174240369800D0,2.584697145036D-1,0D0,        309P    411
1.195296620305D0,1.299963414361D-1,0D0,1.200009833763D0,             309P    412
4.333334874830D-2,0D0,1.2D0,0D0,0D0,0D0,1D0,0D0,0D0,1D0;             309P    413
126,31,3,0,0,1,0,0D0,0D0,0D0,0D0,3.448275862069D-2,                  311P    414
6.896551724138D-2,1.034482758621D-1,1.379310344828D-1,               311P    415
1.724137931034D-1,2.068965517241D-1,2.413793103448D-1,               311P    416
2.758620689655D-1,3.103448275862D-1,3.448275862069D-1,               311P    417
3.793103448276D-1,4.137931034483D-1,4.482758620690D-1,               311P    418
4.827586206897D-1,5.172413793103D-1,5.517241379310D-1,               311P    419
5.862068965517D-1,6.206896551724D-1,6.551724137931D-1,               311P    420
6.896551724138D-1,7.241379310345D-1,7.586206896552D-1,               311P    421
7.931034482759D-1,8.275862068966D-1,8.620689655172D-1,               311P    422
8.965517241379D-1,9.310344827586D-1,9.655172413793D-1,1D0,1D0,       311P    423
1D0,1D0,1D0,1D0,1D0,1D0,1D0,1D0,1D0,1D0,1D0,1D0,1D0,1D0,1D0,1D0,     311P    424
1D0,1D0,1D0,1D0,1D0,1D0,1D0,1D0,1D0,1D0,1D0,1D0,1D0,1D0,1D0,1D0,     311P    425
1D0,1D0,1.2D0,0D0,0D0,1.200009833763D0,-4.333334874830D-2,0D0,       311P    426
1.195296620305D0,-1.299963414361D-1,0D0,1.174240369800D0,            311P    427
-2.584697145036D-1,0D0,1.139409901610D0,-3.839119700690D-1,0D0,      311P    428
1.091222856279D0,-5.048534221996D-1,0D0,1.030241694907D0,            311P    429
-6.198758723664D-1,0D0,9.571820325D-1,-7.276308600091D-1,0D0,        311P    430
8.729002481736D-1,-8.268550369921D-1,0D0,7.783845166522D-1,          311P    431
-9.163850957671D-1,0D0,6.747429356467D-1,-9.951713768584D-1,0D0,     311P    432
5.631906113702D-1,-1.062290183529D0,0D0,4.450353919109D-1,           311P    433
-1.116954609037D0,0D0,3.216625394334D-1,-1.158523763002D0,0D0,       311P    434
1.945184877659D-1,-1.186510285092D0,0D0,6.509388468305D-2,           311P    435
-1.200586058927D0,0D0,-6.509388468305D-2,-1.200586058927D0,0D0,      311P    436
-1.945184877659D-1,-1.186510285092D0,0D0,-3.216625394334D-1,         311P    437
-1.158523763002D0,0D0,-4.450353919109D-1,-1.116954609037D0,0D0,      311P    438
-5.631906113702D-1,-1.062290183529D0,0D0,-6.747429356467D-1,         311P    439
-9.951713768584D-1,0D0,-7.783845166522D-1,-9.163850957671D-1,        311P    440
0D0,-8.729002481736D-1,-8.268550369921D-1,0D0,-9.571820325D-1,       311P    441
-7.276308600091D-1,0D0,-1.030241694907D0,-6.198758723664D-1,0D0,     311P    442
-1.091222856279D0,-5.048534221996D-1,0D0,-1.139409901610D0,          311P    443
-3.839119700690D-1,0D0,-1.174240369800D0,-2.584697145036D-1,0D0,     311P    444
-1.195296620305D0,-1.299963414361D-1,0D0,-1.200009833763D0,          311P    445
-4.333334874830D-2,0D0,-1.2D0,0D0,0D0,0D0,1D0,0D0,0D0,1D0;           311P    446
102,2,309,311;                                                       313P    447
142,0,295,313,307,1;                                                 315P    448
144,295,1,1,305,315;                                                 317P    449
110,0D0,4.9D0,0D0,0D0,5.9D0,0D0;                                     319P    450
110,1.2D0,4.847D0,0D0,1.2D0,7.603D0,0D0;                             321P    451
120,319,321,-6.283185307180D-2,3.204424506662D0;                     323P    452
110,-1.2D0,7.55D0,0D0,-1.2D0,4.9D0,0D0;                              325P    453
102,4,73,79,85,325;                                                  327P    454
110,1.923076923077D-2,3.141592653590D0,0D0,1.923076923077D-2,        329P    455
0D0,0D0;                                                             329P    456
110,1.923076923077D-2,0D0,0D0,9.807692307692D-1,0D0,0D0;             331P    457
110,9.807692307692D-1,0D0,0D0,9.807692307692D-1,                     333P    458
3.141592653590D0,0D0;                                                333P    459
110,9.807692307692D-1,3.141592653590D0,0D0,1.923076923077D-2,        335P    460
3.141592653590D0,0D0;                                                335P    461
102,4,329,331,333,335;                                               337P    462
142,0,323,337,327,1;                                                 339P    463
144,323,1,0,339;                                                     341P    464
110,0D0,4.9D0,0D0,0D0,5.9D0,0D0;                                     343P    465
110,1.2D0,4.847D0,0D0,1.2D0,7.603D0,0D0;                             345P    466
120,343,345,3.078760800518D0,6.346017160251D0;                       347P    467
110,1.2D0,7.55D0,0D0,1.2D0,4.9D0,0D0;                                349P    468
102,4,77,81,89,349;                                                  351P    469
110,1.923076923077D-2,6.283185307180D0,0D0,1.923076923077D-2,        353P    470
3.141592653590D0,0D0;                                                353P    471
110,1.923076923077D-2,3.141592653590D0,0D0,9.807692307692D-1,        355P    472
3.141592653590D0,0D0;                                                355P    473
110,9.807692307692D-1,3.141592653590D0,0D0,9.807692307692D-1,        357P    474
6.283185307180D0,0D0;                                                357P    475
110,9.807692307692D-1,6.283185307180D0,0D0,1.923076923077D-2,        359P    476
6.283185307180D0,0D0;                                                359P    477
102,4,353,355,357,359;                                               361P    478
142,0,347,361,351,1;                                                 363P    479
144,347,1,0,363;                                                     365P    480
128,1,1,1,1,0,0,1,0,0,-1.248D0,-1.248D0,1.248D0,1.248D0,             367P    481
-1.248D0,-1.248D0,1.248D0,1.248D0,1D0,1D0,1D0,1D0,-1.248D0,          367P    482
7.55D0,1.248D0,1.248D0,7.55D0,1.248D0,-1.248D0,7.55D0,-1.248D0,      367P    483
1.248D0,7.55D0,-1.248D0,-1.248D0,1.248D0,-1.248D0,1.248D0;           367P    484
102,2,85,89;                                                         369P    485
126,30,3,0,0,1,0,0D0,0D0,0D0,0D0,3.571428571429D-2,                  371P    486
7.142857142857D-2,1.071428571429D-1,1.428571428571D-1,               371P    487
1.785714285714D-1,2.142857142857D-1,2.5D-1,2.857142857143D-1,        371P    488
3.214285714286D-1,3.571428571429D-1,3.928571428571D-1,               371P    489
4.285714285714D-1,4.642857142857D-1,5D-1,5.357142857143D-1,          371P    490
5.714285714286D-1,6.071428571429D-1,6.428571428571D-1,               371P    491
6.785714285714D-1,7.142857142857D-1,7.5D-1,7.857142857143D-1,        371P    492
8.214285714286D-1,8.571428571429D-1,8.928571428571D-1,               371P    493
9.285714285714D-1,9.642857142857D-1,1D0,1D0,1D0,1D0,1D0,1D0,1D0,     371P    494
1D0,1D0,1D0,1D0,1D0,1D0,1D0,1D0,1D0,1D0,1D0,1D0,1D0,1D0,1D0,1D0,     371P    495
1D0,1D0,1D0,1D0,1D0,1D0,1D0,1D0,1D0,1D0,1D0,1D0,1.2D0,0D0,0D0,       371P    496
1.200011310806D0,4.488112990020D-2,0D0,1.194953953393D0,             371P    497
1.346389749740D-1,0D0,1.172372108147D0,2.675861206844D-1,0D0,        371P    498
1.135038581728D0,3.971672667738D-1,0D0,1.083433543163D0,             371P    499
5.217540582977D-1,0D0,1.018203094519D0,6.397794216820D-1,0D0,        371P    500
9.401683132031D-1,7.497592058848D-1,0D0,8.503103264379D-1,           371P    501
8.503103281618D-1,0D0,7.497592055884D-1,9.401683060112D-1,0D0,       371P    502
6.397794245914D-1,1.018203121563D0,0D0,5.217540469566D-1,            371P    503
1.083433442180D0,0D0,3.971673092288D-1,1.135038958614D0,0D0,         371P    504
2.675859622055D-1,1.172370701585D0,0D0,1.346395664346D-1,            371P    505
1.194959202756D0,0D0,0D0,1.202520398622D0,0D0,                       371P    506
-1.346395664346D-1,1.194959202756D0,0D0,-2.675859622055D-1,          371P    507
1.172370701585D0,0D0,-3.971673092288D-1,1.135038958614D0,0D0,        371P    508
-5.217540469566D-1,1.083433442180D0,0D0,-6.397794245914D-1,          371P    509
1.018203121563D0,0D0,-7.497592055884D-1,9.401683060112D-1,0D0,       371P    510
-8.503103264379D-1,8.503103281618D-1,0D0,-9.401683132031D-1,         371P    511
7.497592058848D-1,0D0,-1.018203094519D0,6.397794216820D-1,0D0,       371P    512
-1.083433543163D0,5.217540582977D-1,0D0,-1.135038581728D0,           371P    513
3.971672667738D-1,0D0,-1.172372108147D0,2.675861206844D-1,0D0,       371P    514
-1.194953953393D0,1.346389749740D-1,0D0,-1.200011310806D0,           371P    515
4.488112990020D-2,0D0,-1.2D0,0D0,0D0,0D0,1D0,0D0,0D0,1D0;            371P    516
126,30,3,0,0,1,0,0D0,0D0,0D0,0D0,3.571428571429D-2,                  373P    517
7.142857142857D-2,1.071428571429D-1,1.428571428571D-1,               373P    518
1.785714285714D-1,2.142857142857D-1,2.5D-1,2.857142857143D-1,        373P    519
3.214285714286D-1,3.571428571429D-1,3.928571428571D-1,               373P    520
4.285714285714D-1,4.642857142857D-1,5D-1,5.357142857143D-1,          373P    521
5.714285714286D-1,6.071428571429D-1,6.428571428571D-1,               373P    522
6.785714285714D-1,7.142857142857D-1,7.5D-1,7.857142857143D-1,        373P    523
8.214285714286D-1,8.571428571429D-1,8.928571428571D-1,               373P    524
9.285714285714D-1,9.642857142857D-1,1D0,1D0,1D0,1D0,1D0,1D0,1D0,     373P    525
1D0,1D0,1D0,1D0,1D0,1D0,1D0,1D0,1D0,1D0,1D0,1D0,1D0,1D0,1D0,1D0,     373P    526
1D0,1D0,1D0,1D0,1D0,1D0,1D0,1D0,1D0,1D0,1D0,1D0,-1.2D0,0D0,0D0,      373P    527
-1.200011310806D0,-4.488112990020D-2,0D0,-1.194953953393D0,          373P    528
-1.346389749740D-1,0D0,-1.172372108147D0,-2.675861206844D-1,0D0,     373P    529
-1.135038581728D0,-3.971672667738D-1,0D0,-1.083433543163D0,          373P    530
-5.217540582977D-1,0D0,-1.018203094519D0,-6.397794216820D-1,0D0,     373P    531
-9.401683132031D-1,-7.497592058848D-1,0D0,-8.503103264379D-1,        373P    532
-8.503103281618D-1,0D0,-7.497592055884D-1,-9.401683060112D-1,        373P    533
0D0,-6.397794245914D-1,-1.018203121563D0,0D0,-5.217540469566D-1,     373P    534
-1.083433442180D0,0D0,-3.971673092288D-1,-1.135038958614D0,0D0,      373P    535
-2.675859622055D-1,-1.172370701585D0,0D0,-1.346395664346D-1,         373P    536
-1.194959202756D0,0D0,0D0,-1.202520398622D0,0D0,                     373P    537
1.346395664346D-1,-1.194959202756D0,0D0,2.675859622055D-1,           373P    538
-1.172370701585D0,0D0,3.971673092288D-1,-1.135038958614D0,0D0,       373P    539
5.217540469566D-1,-1.083433442180D0,0D0,6.397794245914D-1,           373P    540
-1.018203121563D0,0D0,7.497592055884D-1,-9.401683060112D-1,0D0,      373P    541
8.503103264379D-1,-8.503103281618D-1,0D0,9.401683132031D-1,          373P    542
-7.497592058848D-1,0D0,1.018203094519D0,-6.397794216820D-1,0D0,      373P    543
1.083433543163D0,-5.217540582977D-1,0D0,1.135038581728D0,            373P    544
-3.971672667738D-1,0D0,1.172372108147D0,-2.675861206844D-1,0D0,      373P    545
1.194953953393D0,-1.346389749740D-1,0D0,1.200011310806D0,            373P    546
-4.488112990020D-2,0D0,1.2D0,0D0,0D0,0D0,1D0,0D0,0D0,1D0;            373P    547
102,2,371,373;                                                       375P    548
142,0,367,375,369,1;                                                 377P    549
144,367,1,0,377;                                                     379P    550
110,0D0,2D0,2D0,0D0,2D0,3D0;                                         381P    551
110,1.35D0,2D0,1.9D0,1.35D0,2D0,7.1D0;                               383P    552
120,381,383,-6.283185307180D-2,3.204424506662D0;                     385P    553
110,-1.35D0,2D0,7D0,-1.35D0,2D0,2D0;                                 387P    554
102,4,31,91,97,387;                                                  389P    555
110,1.923076923077D-2,3.141592653590D0,0D0,1.923076923077D-2,        391P    556
0D0,0D0;                                                             391P    557
110,1.923076923077D-2,0D0,0D0,9.807692307692D-1,0D0,0D0;             393P    558
110,9.807692307692D-1,0D0,0D0,9.807692307692D-1,                     395P    559
3.141592653590D0,0D0;                                                395P    560
110,9.807692307692D-1,3.141592653590D0,0D0,1.923076923077D-2,        397P    561
3.141592653590D0,0D0;                                                397P    562
102,4,391,393,395,397;                                               399P    563
142,0,385,399,389,1;                                                 401P    564
144,385,1,0,401;                                                     403P    565
110,0D0,2D0,2D0,0D0,2D0,3D0;                                         405P    566
110,1.35D0,2D0,1.9D0,1.35D0,2D0,7.1D0;                               407P    567
120,405,407,3.078760800518D0,6.346017160251D0;                       409P    568
110,1.35D0,2D0,7D0,1.35D0,2D0,2D0;                                   411P    569
102,4,35,93,101,411;                                                 413P    570
110,1.923076923077D-2,6.283185307180D0,0D0,1.923076923077D-2,        415P    571
3.141592653590D0,0D0;                                                415P    572
110,1.923076923077D-2,3.141592653590D0,0D0,9.807692307692D-1,        417P    573
3.141592653590D0,0D0;                                                417P    574
110,9.807692307692D-1,3.141592653590D0,0D0,9.807692307692D-1,        419P    575
6.283185307180D0,0D0;                                                419P    576
110,9.807692307692D-1,6.283185307180D0,0D0,1.923076923077D-2,        421P    577
6.283185307180D0,0D0;                                                421P    578
102,4,415,417,419,421;                                               423P    579
142,0,409,423,413,1;                                                 425P    580
144,409,1,0,425;                                                     427P    581
128,1,1,1,1,0,0,1,0,0,-1.404D0,-1.404D0,1.404D0,1.404D0,5.96D-1,     429P    582
5.96D-1,3.404D0,3.404D0,1D0,1D0,1D0,1D0,-1.404D0,5.96D-1,7D0,        429P    583
1.404D0,5.96D-1,7D0,-1.404D0,3.404D0,7D0,1.404D0,3.404D0,7D0,        429P    584
-1.404D0,1.404D0,5.96D-1,3.404D0;                                    429P    585
102,2,97,101;                                                        431P    586
126,30,3,0,0,1,0,0D0,0D0,0D0,0D0,3.571428571429D-2,                  433P    587
7.142857142857D-2,1.071428571429D-1,1.428571428571D-1,               433P    588
1.785714285714D-1,2.142857142857D-1,2.5D-1,2.857142857143D-1,        433P    589
3.214285714286D-1,3.571428571429D-1,3.928571428571D-1,               433P    590
4.285714285714D-1,4.642857142857D-1,5D-1,5.357142857143D-1,          433P    591
5.714285714286D-1,6.071428571429D-1,6.428571428571D-1,               433P    592
6.785714285714D-1,7.142857142857D-1,7.5D-1,7.857142857143D-1,        433P    593
8.214285714286D-1,8.571428571429D-1,8.928571428571D-1,               433P    594
9.285714285714D-1,9.642857142857D-1,1D0,1D0,1D0,1D0,1D0,1D0,1D0,     433P    595
1D0,1D0,1D0,1D0,1D0,1D0,1D0,1D0,1D0,1D0,1D0,1D0,1D0,1D0,1D0,1D0,     433P    596
1D0,1D0,1D0,1D0,1D0,1D0,1D0,1D0,1D0,1D0,1D0,1D0,1.35D0,2D0,0D0,      433P    597
1.350012724657D0,2.050491271138D0,0D0,1.344323197567D0,              433P    598
2.151468846846D0,0D0,1.318918621666D0,2.301034385770D0,0D0,          433P    599
1.276918404444D0,2.446813175121D0,0D0,1.218862736058D0,              433P    600
2.586973315585D0,0D0,1.145478481334D0,2.719751849392D0,0D0,          433P    601
1.057689352353D0,2.843479106620D0,0D0,9.565991172426D-1,             433P    602
2.956599119182D0,0D0,8.434791062870D-1,3.057689344263D0,0D0,         433P    603
7.197518526653D-1,3.145478511758D0,0D0,5.869733028261D-1,            433P    604
3.218862622453D0,0D0,4.468132228824D-1,3.276918828441D0,0D0,         433P    605
3.010342074812D-1,3.318917039283D0,0D0,1.514695122389D-1,            433P    606
3.344329103101D0,0D0,0D0,3.352835448450D0,0D0,                       433P    607
-1.514695122389D-1,3.344329103101D0,0D0,-3.010342074812D-1,          433P    608
3.318917039283D0,0D0,-4.468132228824D-1,3.276918828441D0,0D0,        433P    609
-5.869733028261D-1,3.218862622453D0,0D0,-7.197518526653D-1,          433P    610
3.145478511758D0,0D0,-8.434791062870D-1,3.057689344263D0,0D0,        433P    611
-9.565991172426D-1,2.956599119182D0,0D0,-1.057689352353D0,           433P    612
2.843479106620D0,0D0,-1.145478481334D0,2.719751849392D0,0D0,         433P    613
-1.218862736058D0,2.586973315585D0,0D0,-1.276918404444D0,            433P    614
2.446813175121D0,0D0,-1.318918621666D0,2.301034385770D0,0D0,         433P    615
-1.344323197567D0,2.151468846846D0,0D0,-1.350012724657D0,            433P    616
2.050491271138D0,0D0,-1.35D0,2D0,0D0,0D0,1D0,0D0,0D0,1D0;            433P    617
126,30,3,0,0,1,0,0D0,0D0,0D0,0D0,3.571428571429D-2,                  435P    618
7.142857142857D-2,1.071428571429D-1,1.428571428571D-1,               435P    619
1.785714285714D-1,2.142857142857D-1,2.5D-1,2.857142857143D-1,        435P    620
3.214285714286D-1,3.571428571429D-1,3.928571428571D-1,               435P    621
4.285714285714D-1,4.642857142857D-1,5D-1,5.357142857143D-1,          435P    622
5.714285714286D-1,6.071428571429D-1,6.428571428571D-1,               435P    623
6.785714285714D-1,7.142857142857D-1,7.5D-1,7.857142857143D-1,        435P    624
8.214285714286D-1,8.571428571429D-1,8.928571428571D-1,               435P    625
9.285714285714D-1,9.642857142857D-1,1D0,1D0,1D0,1D0,1D0,1D0,1D0,     435P    626
1D0,1D0,1D0,1D0,1D0,1D0,1D0,1D0,1D0,1D0,1D0,1D0,1D0,1D0,1D0,1D0,     435P    627
1D0,1D0,1D0,1D0,1D0,1D0,1D0,1D0,1D0,1D0,1D0,1D0,-1.35D0,2D0,0D0,     435P    628
-1.350012724657D0,1.949508728862D0,0D0,-1.344323197567D0,            435P    629
1.848531153154D0,0D0,-1.318918621666D0,1.698965614230D0,0D0,         435P    630
-1.276918404444D0,1.553186824879D0,0D0,-1.218862736058D0,            435P    631
1.413026684415D0,0D0,-1.145478481334D0,1.280248150608D0,0D0,         435P    632
-1.057689352353D0,1.156520893380D0,0D0,-9.565991172426D-1,           435P    633
1.043400880818D0,0D0,-8.434791062870D-1,9.423106557374D-1,0D0,       435P    634
-7.197518526653D-1,8.545214882415D-1,0D0,-5.869733028261D-1,         435P    635
7.811373775474D-1,0D0,-4.468132228824D-1,7.230811715594D-1,0D0,      435P    636
-3.010342074812D-1,6.810829607171D-1,0D0,-1.514695122389D-1,         435P    637
6.556708968993D-1,0D0,0D0,6.471645515503D-1,0D0,                     435P    638
1.514695122389D-1,6.556708968993D-1,0D0,3.010342074812D-1,           435P    639
6.810829607171D-1,0D0,4.468132228824D-1,7.230811715594D-1,0D0,       435P    640
5.869733028261D-1,7.811373775474D-1,0D0,7.197518526653D-1,           435P    641
8.545214882415D-1,0D0,8.434791062870D-1,9.423106557374D-1,0D0,       435P    642
9.565991172426D-1,1.043400880818D0,0D0,1.057689352353D0,             435P    643
1.156520893380D0,0D0,1.145478481334D0,1.280248150608D0,0D0,          435P    644
1.218862736058D0,1.413026684415D0,0D0,1.276918404444D0,              435P    645
1.553186824879D0,0D0,1.318918621666D0,1.698965614230D0,0D0,          435P    646
1.344323197567D0,1.848531153154D0,0D0,1.350012724657D0,              435P    647
1.949508728862D0,0D0,1.35D0,2D0,0D0,0D0,1D0,0D0,0D0,1D0;             435P    648
102,2,433,435;                                                       437P    649
142,0,429,437,431,1;                                                 439P    650
144,429,1,0,439;                                                     441P    651
S      1G      5D    442P    651                                        T      1
