 PTC IGES file: gps-ant-ext-plug-s_prt.igs                              S      1
1H,,1H;,22HGPS-ANT-EXT-PLUG-S_PRT,26Hgps-ant-ext-plug-s_prt.igs,        G      1
49HPro/ENGINEER by Parametric Technology Corporation,7H2006170,32,38,7, G      2
38,15,22HGPS-ANT-EXT-PLUG-S_PRT,1.,2,2HMM,32768,0.5,15H20080630.105141, G      3
0.000447457,10.7394,3HGRA,7HUnknown,10,0,15H20080630.105141;            G      4
     314       1       1       1       0       0       0       001000200D      1
     314       0       4       1       0                   COLOR       1D      2
     314       2       1       1       0       0       0       001000200D      3
     314       0       1       1       0                   COLOR       2D      4
     314       3       1       1       0       0       0       001000200D      5
     314       0       4       1       0                   COLOR       3D      6
     314       4       1       1       0       0       0       001000200D      7
     314       0       1       1       0                   COLOR       4D      8
     314       5       1       1       0       0       0       001000200D      9
     314       0       1       1       0                   COLOR       5D     10
     314       6       1       1       0       0       0       001000200D     11
     314       0       8       1       0                   COLOR       6D     12
     314       7       1       1       0       0       0       001000200D     13
     314       0       8       1       0                   COLOR       7D     14
     314       8       1       1       0       0       0       001000200D     15
     314       0       5       1       0                   COLOR       8D     16
     314       9       1       1       0       0       0       001000200D     17
     314       0       8       1       0                   COLOR       9D     18
     124      10       1       1       0       0       0       001000000D     19
     124       0       0       1       0                   XFORM       1D     20
     100      11       1       1       0       0      19       001010000D     21
     100       0      -5       1       0                     ARC       1D     22
     124      12       1       1       0       0       0       001000000D     23
     124       0       0       1       0                   XFORM       2D     24
     100      13       1       1       0       0      23       001010000D     25
     100       0      -5       1       0                     ARC       2D     26
     110      14       1       1       0       0       0       001010000D     27
     110       0      -5       1       0                    LINE       1D     28
     110      15       1       1       0       0       0       001010000D     29
     110       0      -5       1       0                    LINE       2D     30
     124      16       1       1       0       0       0       001000000D     31
     124       0       0       1       0                   XFORM       3D     32
     100      17       1       1       0       0      31       001010000D     33
     100       0      -5       1       0                     ARC       3D     34
     124      18       1       1       0       0       0       001000000D     35
     124       0       0       1       0                   XFORM       4D     36
     100      19       1       1       0       0      35       001010000D     37
     100       0      -5       1       0                     ARC       4D     38
     124      20       1       1       0       0       0       001000000D     39
     124       0       0       1       0                   XFORM       5D     40
     100      21       1       1       0       0      39       001010000D     41
     100       0      -5       1       0                     ARC       5D     42
     124      22       1       1       0       0       0       001000000D     43
     124       0       0       1       0                   XFORM       6D     44
     100      23       1       1       0       0      43       001010000D     45
     100       0      -5       1       0                     ARC       6D     46
     110      24       1       1       0       0       0       001010000D     47
     110       0      -5       1       0                    LINE       3D     48
     110      25       1       1       0       0       0       001010000D     49
     110       0      -5       1       0                    LINE       4D     50
     124      26       1       1       0       0       0       001000000D     51
     124       0       0       1       0                   XFORM       7D     52
     100      27       1       1       0       0      51       001010000D     53
     100       0      -5       1       0                     ARC       7D     54
     124      28       1       1       0       0       0       001000000D     55
     124       0       0       1       0                   XFORM       8D     56
     100      29       1       1       0       0      55       001010000D     57
     100       0      -5       1       0                     ARC       8D     58
     128      30       1       1       0       0       0       001010000D     59
     128       0      -5       6       0                  SPLSRF       1D     60
     102      36       1       1       0       0       0       001010000D     61
     102       0       0       1       0                  CCURVE       1D     62
     126      37       1       1       0       0       0       001010500D     63
     126       0      -5      38       0                B_SPLINE       1D     64
     126      75       1       1       0       0       0       001010500D     65
     126       0      -5      39       0                B_SPLINE       2D     66
     102     114       1       1       0       0       0       001010500D     67
     102       0       0       1       0                  CCURVE       2D     68
     142     115       1       1       0       0       0       001010500D     69
     142       0       0       1       0                  UV_BND       1D     70
     144     116       1       1       0       0       0       000000000D     71
     144       0      -5       1       0                 TRM_SRF       1D     72
     110     117       1       1       0       0       0       001010000D     73
     110       0      -5       1       0                    LINE       5D     74
     110     118       1       1       0       0       0       001010000D     75
     110       0      -5       1       0                    LINE       6D     76
     120     119       1       1       0       0       0       001010000D     77
     120       0      -5       1       0                    SREV       1D     78
     124     120       1       1       0       0       0       001000000D     79
     124       0       0       1       0                   XFORM       9D     80
     100     121       1       1       0       0      79       001010000D     81
     100       0       0       1       0                     ARC       9D     82
     110     122       1       1       0       0       0       001010000D     83
     110       0       0       1       0                    LINE       7D     84
     102     123       1       1       0       0       0       001010000D     85
     102       0       0       1       0                  CCURVE       3D     86
     110     124       1       1       0       0       0       001010500D     87
     110       0      -5       2       0                    LINE       8D     88
     110     126       1       1       0       0       0       001010500D     89
     110       0      -5       1       0                    LINE       9D     90
     110     127       1       1       0       0       0       001010500D     91
     110       0      -5       2       0                    LINE      10D     92
     110     129       1       1       0       0       0       001010500D     93
     110       0      -5       2       0                    LINE      11D     94
     102     131       1       1       0       0       0       001010500D     95
     102       0       0       1       0                  CCURVE       4D     96
     142     132       1       1       0       0       0       001010500D     97
     142       0       0       1       0                  UV_BND       2D     98
     144     133       1       1       0       0       0       000000000D     99
     144       0      -5       1       0                 TRM_SRF       2D    100
     110     134       1       1       0       0       0       001010000D    101
     110       0      -5       1       0                    LINE      12D    102
     110     135       1       1       0       0       0       001010000D    103
     110       0      -5       1       0                    LINE      13D    104
     120     136       1       1       0       0       0       001010000D    105
     120       0      -5       1       0                    SREV       2D    106
     124     137       1       1       0       0       0       001000000D    107
     124       0       0       1       0                   XFORM      10D    108
     100     138       1       1       0       0     107       001010000D    109
     100       0       0       1       0                     ARC      10D    110
     110     139       1       1       0       0       0       001010000D    111
     110       0       0       1       0                    LINE      14D    112
     102     140       1       1       0       0       0       001010000D    113
     102       0       0       1       0                  CCURVE       5D    114
     110     141       1       1       0       0       0       001010500D    115
     110       0      -5       2       0                    LINE      15D    116
     110     143       1       1       0       0       0       001010500D    117
     110       0      -5       2       0                    LINE      16D    118
     110     145       1       1       0       0       0       001010500D    119
     110       0      -5       2       0                    LINE      17D    120
     110     147       1       1       0       0       0       001010500D    121
     110       0      -5       2       0                    LINE      18D    122
     102     149       1       1       0       0       0       001010500D    123
     102       0       0       1       0                  CCURVE       6D    124
     142     150       1       1       0       0       0       001010500D    125
     142       0       0       1       0                  UV_BND       3D    126
     144     151       1       1       0       0       0       000000000D    127
     144       0      -5       1       0                 TRM_SRF       3D    128
     128     152       1       1       0       0       0       001010000D    129
     128       0      -5       6       0                  SPLSRF       2D    130
     102     158       1       1       0       0       0       001010000D    131
     102       0       0       1       0                  CCURVE       7D    132
     126     159       1       1       0       0       0       001010500D    133
     126       0      -5      38       0                B_SPLINE       3D    134
     126     197       1       1       0       0       0       001010500D    135
     126       0      -5      39       0                B_SPLINE       4D    136
     102     236       1       1       0       0       0       001010500D    137
     102       0       0       1       0                  CCURVE       8D    138
     142     237       1       1       0       0       0       001010500D    139
     142       0       0       1       0                  UV_BND       4D    140
     102     238       1       1       0       0       0       001010000D    141
     102       0       0       1       0                  CCURVE       9D    142
     126     239       1       1       0       0       0       001010500D    143
     126       0      -5      31       0                B_SPLINE       5D    144
     126     270       1       1       0       0       0       001010500D    145
     126       0      -5      31       0                B_SPLINE       6D    146
     102     301       1       1       0       0       0       001010500D    147
     102       0       0       1       0                  CCURVE      10D    148
     142     302       1       1       0       0       0       001010500D    149
     142       0       0       1       0                  UV_BND       5D    150
     144     303       1       1       0       0       0       000000000D    151
     144       0      -5       1       0                 TRM_SRF       4D    152
     110     304       1       1       0       0       0       001010000D    153
     110       0      -5       1       0                    LINE      19D    154
     110     305       1       1       0       0       0       001010000D    155
     110       0      -5       1       0                    LINE      20D    156
     120     306       1       1       0       0       0       001010000D    157
     120       0      -5       1       0                    SREV       3D    158
     110     307       1       1       0       0       0       001010000D    159
     110       0       0       1       0                    LINE      21D    160
     102     308       1       1       0       0       0       001010000D    161
     102       0       0       1       0                  CCURVE      11D    162
     110     309       1       1       0       0       0       001010500D    163
     110       0      -5       2       0                    LINE      22D    164
     110     311       1       1       0       0       0       001010500D    165
     110       0      -5       1       0                    LINE      23D    166
     110     312       1       1       0       0       0       001010500D    167
     110       0      -5       2       0                    LINE      24D    168
     110     314       1       1       0       0       0       001010500D    169
     110       0      -5       2       0                    LINE      25D    170
     102     316       1       1       0       0       0       001010500D    171
     102       0       0       1       0                  CCURVE      12D    172
     142     317       1       1       0       0       0       001010500D    173
     142       0       0       1       0                  UV_BND       6D    174
     144     318       1       1       0       0       0       000000000D    175
     144       0      -5       1       0                 TRM_SRF       5D    176
     110     319       1       1       0       0       0       001010000D    177
     110       0      -5       1       0                    LINE      26D    178
     110     320       1       1       0       0       0       001010000D    179
     110       0      -5       1       0                    LINE      27D    180
     120     321       1       1       0       0       0       001010000D    181
     120       0      -5       1       0                    SREV       4D    182
     110     322       1       1       0       0       0       001010000D    183
     110       0       0       1       0                    LINE      28D    184
     102     323       1       1       0       0       0       001010000D    185
     102       0       0       1       0                  CCURVE      13D    186
     110     324       1       1       0       0       0       001010500D    187
     110       0      -5       2       0                    LINE      29D    188
     110     326       1       1       0       0       0       001010500D    189
     110       0      -5       2       0                    LINE      30D    190
     110     328       1       1       0       0       0       001010500D    191
     110       0      -5       2       0                    LINE      31D    192
     110     330       1       1       0       0       0       001010500D    193
     110       0      -5       2       0                    LINE      32D    194
     102     332       1       1       0       0       0       001010500D    195
     102       0       0       1       0                  CCURVE      14D    196
     142     333       1       1       0       0       0       001010500D    197
     142       0       0       1       0                  UV_BND       7D    198
     144     334       1       1       0       0       0       000000000D    199
     144       0      -5       1       0                 TRM_SRF       6D    200
     128     335       1       1       0       0       0       001010000D    201
     128       0      -5       6       0                  SPLSRF       3D    202
     102     341       1       1       0       0       0       001010000D    203
     102       0       0       1       0                  CCURVE      15D    204
     126     342       1       1       0       0       0       001010500D    205
     126       0      -5      31       0                B_SPLINE       7D    206
     126     373       1       1       0       0       0       001010500D    207
     126       0      -5      32       0                B_SPLINE       8D    208
     102     405       1       1       0       0       0       001010500D    209
     102       0       0       1       0                  CCURVE      16D    210
     142     406       1       1       0       0       0       001010500D    211
     142       0       0       1       0                  UV_BND       8D    212
     144     407       1       1       0       0       0       000000000D    213
     144       0      -5       1       0                 TRM_SRF       7D    214
314,1.1D0,1.2D0,1D2;                                                   1P      1
314,1.1D1,1.1D1,1.1D1;                                                 3P      2
314,1.822683073848D1,2.871320453884D1,1D2;                             5P      3
314,3.92D1,1.2D0,1.2D0;                                                7P      4
314,4.1D1,0D0,2.2D1;                                                   9P      5
314,8.784D1,9.49D1,1D2;                                               11P      6
314,9.6D1,9.6D1,9.6D1;                                                13P      7
314,9.8D1,6.27D1,0D0;                                                 15P      8
314,1D2,1D2,9.49D1;                                                   17P      9
124,1D0,0D0,0D0,0D0,0D0,0D0,1D0,0D0,0D0,-1D0,0D0,0D0;                 19P     10
100,0D0,0D0,0D0,2.25D0,0D0,-2.25D0,0D0;                               21P     11
124,-1D0,0D0,0D0,0D0,0D0,0D0,1D0,0D0,0D0,1D0,0D0,0D0;                 23P     12
100,0D0,0D0,0D0,2.25D0,0D0,-2.25D0,0D0;                               25P     13
110,2.25D0,0D0,0D0,2.25D0,6D0,0D0;                                    27P     14
110,-2.25D0,0D0,0D0,-2.25D0,6D0,0D0;                                  29P     15
124,1D0,0D0,0D0,0D0,0D0,0D0,1D0,6D0,0D0,-1D0,0D0,0D0;                 31P     16
100,0D0,0D0,0D0,2.25D0,0D0,-2.25D0,0D0;                               33P     17
124,-1D0,0D0,0D0,0D0,0D0,0D0,1D0,6D0,0D0,1D0,0D0,0D0;                 35P     18
100,0D0,0D0,0D0,2.25D0,0D0,-2.25D0,0D0;                               37P     19
124,-1D0,0D0,0D0,0D0,0D0,0D0,-1D0,6D0,0D0,-1D0,0D0,0D0;               39P     20
100,0D0,0D0,0D0,1.2D0,0D0,-1.2D0,0D0;                                 41P     21
124,1D0,0D0,0D0,0D0,0D0,0D0,-1D0,6D0,0D0,1D0,0D0,0D0;                 43P     22
100,0D0,0D0,0D0,1.2D0,0D0,-1.2D0,0D0;                                 45P     23
110,1.2D0,6D0,0D0,1.2D0,8.65D0,0D0;                                   47P     24
110,-1.2D0,6D0,0D0,-1.2D0,8.65D0,0D0;                                 49P     25
124,1D0,0D0,0D0,0D0,0D0,0D0,1D0,8.65D0,0D0,-1D0,0D0,0D0;              51P     26
100,0D0,0D0,0D0,1.2D0,0D0,-1.2D0,0D0;                                 53P     27
124,-1D0,0D0,0D0,0D0,0D0,0D0,1D0,8.65D0,0D0,1D0,0D0,0D0;              55P     28
100,0D0,0D0,0D0,1.2D0,0D0,-1.2D0,0D0;                                 57P     29
128,1,1,1,1,0,0,1,0,0,-2.34D0,-2.34D0,2.34D0,2.34D0,                  59P     30
-2.340702242347D0,-2.340702242347D0,2.340702242347D0,                 59P     31
2.340702242347D0,1D0,1D0,1D0,1D0,-2.34D0,0D0,2.340702242347D0,        59P     32
2.34D0,0D0,2.340702242347D0,-2.34D0,0D0,-2.340702242347D0,            59P     33
2.34D0,0D0,-2.340702242347D0,-2.34D0,2.34D0,-2.340702242347D0,        59P     34
2.340702242347D0;                                                     59P     35
102,2,21,25;                                                          61P     36
126,37,3,0,0,1,0,0D0,0D0,0D0,0D0,2.857142857143D-2,                   63P     37
5.714285714286D-2,8.571428571429D-2,1.142857142857D-1,                63P     38
1.428571428571D-1,1.714285714286D-1,2D-1,2.285714285714D-1,           63P     39
2.571428571429D-1,2.857142857143D-1,3.142857142857D-1,                63P     40
3.428571428571D-1,3.714285714286D-1,4D-1,4.285714285714D-1,           63P     41
4.571428571429D-1,4.857142857143D-1,5.142857142857D-1,                63P     42
5.428571428571D-1,5.714285714286D-1,6D-1,6.285714285714D-1,           63P     43
6.571428571429D-1,6.857142857143D-1,7.142857142857D-1,                63P     44
7.428571428571D-1,7.714285714286D-1,8D-1,8.285714285714D-1,           63P     45
8.571428571429D-1,8.857142857143D-1,9.142857142857D-1,                63P     46
9.428571428571D-1,9.714285714286D-1,1D0,1D0,1D0,1D0,1D0,1D0,1D0,      63P     47
1D0,1D0,1D0,1D0,1D0,1D0,1D0,1D0,1D0,1D0,1D0,1D0,1D0,1D0,1D0,1D0,      63P     48
1D0,1D0,1D0,1D0,1D0,1D0,1D0,1D0,1D0,1D0,1D0,1D0,1D0,1D0,1D0,1D0,      63P     49
1D0,1D0,1D0,2.25D0,0D0,0D0,2.250008706475D0,6.732060187337D-2,        63P     50
0D0,2.243949286261D0,2.019590911608D-1,0D0,2.216817407309D0,          63P     51
4.022929483235D-1,0D0,2.171830530583D0,5.993871953270D-1,0D0,         63P     52
2.109359089754D0,7.916556855188D-1,0D0,2.029903864038D0,              63P     53
9.775501876959D-1,0D0,1.934105170778D0,1.155574041785D0,0D0,          63P     54
1.822734166477D0,1.324293890146D0,0D0,1.696687587378D0,               63P     55
1.482351303582D0,0D0,1.556980275061D0,1.628473695714D0,0D0,           63P     56
1.404737073702D0,1.761484575233D0,0D0,1.241183755225D0,               63P     57
1.880313016673D0,0D0,1.067637155002D0,1.984002283313D0,0D0,           63P     58
8.854945681542D-1,2.071717530141D0,0D0,6.962224997097D-1,             63P     59
2.142752525567D0,0D0,5.013448570689D-1,2.196535337575D0,0D0,          63P     60
3.024306804251D-1,2.232632938587D0,0D0,1.010815097689D-1,             63P     61
2.250754691944D0,0D0,-1.010815097689D-1,2.250754691944D0,0D0,         63P     62
-3.024306804251D-1,2.232632938587D0,0D0,-5.013448570689D-1,           63P     63
2.196535337575D0,0D0,-6.962224997097D-1,2.142752525567D0,0D0,         63P     64
-8.854945681542D-1,2.071717530141D0,0D0,-1.067637155002D0,            63P     65
1.984002283313D0,0D0,-1.241183755225D0,1.880313016673D0,0D0,          63P     66
-1.404737073702D0,1.761484575233D0,0D0,-1.556980275061D0,             63P     67
1.628473695714D0,0D0,-1.696687587378D0,1.482351303582D0,0D0,          63P     68
-1.822734166477D0,1.324293890146D0,0D0,-1.934105170778D0,             63P     69
1.155574041785D0,0D0,-2.029903864038D0,9.775501876959D-1,0D0,         63P     70
-2.109359089754D0,7.916556855188D-1,0D0,-2.171830530583D0,            63P     71
5.993871953270D-1,0D0,-2.216817407309D0,4.022929483235D-1,0D0,        63P     72
-2.243949286261D0,2.019590911608D-1,0D0,-2.250008706475D0,            63P     73
6.732060187337D-2,0D0,-2.25D0,0D0,0D0,0D0,1D0,0D0,0D0,1D0;            63P     74
126,37,3,0,0,1,0,0D0,0D0,0D0,0D0,2.857142857143D-2,                   65P     75
5.714285714286D-2,8.571428571429D-2,1.142857142857D-1,                65P     76
1.428571428571D-1,1.714285714286D-1,2D-1,2.285714285714D-1,           65P     77
2.571428571429D-1,2.857142857143D-1,3.142857142857D-1,                65P     78
3.428571428571D-1,3.714285714286D-1,4D-1,4.285714285714D-1,           65P     79
4.571428571429D-1,4.857142857143D-1,5.142857142857D-1,                65P     80
5.428571428571D-1,5.714285714286D-1,6D-1,6.285714285714D-1,           65P     81
6.571428571429D-1,6.857142857143D-1,7.142857142857D-1,                65P     82
7.428571428571D-1,7.714285714286D-1,8D-1,8.285714285714D-1,           65P     83
8.571428571429D-1,8.857142857143D-1,9.142857142857D-1,                65P     84
9.428571428571D-1,9.714285714286D-1,1D0,1D0,1D0,1D0,1D0,1D0,1D0,      65P     85
1D0,1D0,1D0,1D0,1D0,1D0,1D0,1D0,1D0,1D0,1D0,1D0,1D0,1D0,1D0,1D0,      65P     86
1D0,1D0,1D0,1D0,1D0,1D0,1D0,1D0,1D0,1D0,1D0,1D0,1D0,1D0,1D0,1D0,      65P     87
1D0,1D0,1D0,-2.25D0,0D0,0D0,-2.250008706475D0,                        65P     88
-6.732060187337D-2,0D0,-2.243949286261D0,-2.019590911608D-1,0D0,      65P     89
-2.216817407309D0,-4.022929483235D-1,0D0,-2.171830530583D0,           65P     90
-5.993871953270D-1,0D0,-2.109359089754D0,-7.916556855188D-1,0D0,      65P     91
-2.029903864038D0,-9.775501876959D-1,0D0,-1.934105170778D0,           65P     92
-1.155574041785D0,0D0,-1.822734166477D0,-1.324293890146D0,0D0,        65P     93
-1.696687587378D0,-1.482351303582D0,0D0,-1.556980275061D0,            65P     94
-1.628473695714D0,0D0,-1.404737073702D0,-1.761484575233D0,0D0,        65P     95
-1.241183755225D0,-1.880313016673D0,0D0,-1.067637155002D0,            65P     96
-1.984002283313D0,0D0,-8.854945681542D-1,-2.071717530141D0,0D0,       65P     97
-6.962224997097D-1,-2.142752525567D0,0D0,-5.013448570689D-1,          65P     98
-2.196535337575D0,0D0,-3.024306804251D-1,-2.232632938587D0,0D0,       65P     99
-1.010815097689D-1,-2.250754691944D0,0D0,1.010815097689D-1,           65P    100
-2.250754691944D0,0D0,3.024306804251D-1,-2.232632938587D0,0D0,        65P    101
5.013448570689D-1,-2.196535337575D0,0D0,6.962224997097D-1,            65P    102
-2.142752525567D0,0D0,8.854945681542D-1,-2.071717530141D0,0D0,        65P    103
1.067637155002D0,-1.984002283313D0,0D0,1.241183755225D0,              65P    104
-1.880313016673D0,0D0,1.404737073702D0,-1.761484575233D0,0D0,         65P    105
1.556980275061D0,-1.628473695714D0,0D0,1.696687587378D0,              65P    106
-1.482351303582D0,0D0,1.822734166477D0,-1.324293890146D0,0D0,         65P    107
1.934105170778D0,-1.155574041785D0,0D0,2.029903864038D0,              65P    108
-9.775501876959D-1,0D0,2.109359089754D0,-7.916556855188D-1,0D0,       65P    109
2.171830530583D0,-5.993871953270D-1,0D0,2.216817407309D0,             65P    110
-4.022929483235D-1,0D0,2.243949286261D0,-2.019590911608D-1,0D0,       65P    111
2.250008706475D0,-6.732060187337D-2,0D0,2.25D0,0D0,0D0,0D0,1D0,       65P    112
0D0,0D0,1D0;                                                          65P    113
102,2,63,65;                                                          67P    114
142,0,59,67,61,1;                                                     69P    115
144,59,1,0,69;                                                        71P    116
110,0D0,0D0,0D0,0D0,1D0,0D0;                                          73P    117
110,2.25D0,-1.2D-1,0D0,2.25D0,6.12D0,0D0;                             75P    118
120,73,75,-6.283185307180D-2,3.204424506662D0;                        77P    119
124,-1D0,0D0,0D0,0D0,0D0,0D0,-1D0,0D0,0D0,-1D0,0D0,0D0;               79P    120
100,0D0,0D0,0D0,2.25D0,0D0,-2.25D0,0D0;                               81P    121
110,-2.25D0,6D0,0D0,-2.25D0,0D0,0D0;                                  83P    122
102,4,81,27,33,83;                                                    85P    123
110,1.923076923077D-2,3.141592653590D0,0D0,1.923076923077D-2,         87P    124
0D0,0D0;                                                              87P    125
110,1.923076923077D-2,0D0,0D0,9.807692307692D-1,0D0,0D0;              89P    126
110,9.807692307692D-1,0D0,0D0,9.807692307692D-1,                      91P    127
3.141592653590D0,0D0;                                                 91P    128
110,9.807692307692D-1,3.141592653590D0,0D0,1.923076923077D-2,         93P    129
3.141592653590D0,0D0;                                                 93P    130
102,4,87,89,91,93;                                                    95P    131
142,0,77,95,85,1;                                                     97P    132
144,77,1,0,97;                                                        99P    133
110,0D0,0D0,0D0,0D0,1D0,0D0;                                         101P    134
110,2.25D0,-1.2D-1,0D0,2.25D0,6.12D0,0D0;                            103P    135
120,101,103,3.078760800518D0,6.346017160251D0;                       105P    136
124,1D0,0D0,0D0,0D0,0D0,0D0,-1D0,0D0,0D0,1D0,0D0,0D0;                107P    137
100,0D0,0D0,0D0,2.25D0,0D0,-2.25D0,0D0;                              109P    138
110,2.25D0,6D0,0D0,2.25D0,0D0,0D0;                                   111P    139
102,4,109,29,37,111;                                                 113P    140
110,1.923076923077D-2,6.283185307180D0,0D0,1.923076923077D-2,        115P    141
3.141592653590D0,0D0;                                                115P    142
110,1.923076923077D-2,3.141592653590D0,0D0,9.807692307692D-1,        117P    143
3.141592653590D0,0D0;                                                117P    144
110,9.807692307692D-1,3.141592653590D0,0D0,9.807692307692D-1,        119P    145
6.283185307180D0,0D0;                                                119P    146
110,9.807692307692D-1,6.283185307180D0,0D0,1.923076923077D-2,        121P    147
6.283185307180D0,0D0;                                                121P    148
102,4,115,117,119,121;                                               123P    149
142,0,105,123,113,1;                                                 125P    150
144,105,1,0,125;                                                     127P    151
128,1,1,1,1,0,0,1,0,0,-2.34D0,-2.34D0,2.34D0,2.34D0,                 129P    152
-2.340702242347D0,-2.340702242347D0,2.340702242347D0,                129P    153
2.340702242347D0,1D0,1D0,1D0,1D0,-2.34D0,6D0,2.340702242347D0,       129P    154
2.34D0,6D0,2.340702242347D0,-2.34D0,6D0,-2.340702242347D0,           129P    155
2.34D0,6D0,-2.340702242347D0,-2.34D0,2.34D0,-2.340702242347D0,       129P    156
2.340702242347D0;                                                    129P    157
102,2,33,37;                                                         131P    158
126,37,3,0,0,1,0,0D0,0D0,0D0,0D0,2.857142857143D-2,                  133P    159
5.714285714286D-2,8.571428571429D-2,1.142857142857D-1,               133P    160
1.428571428571D-1,1.714285714286D-1,2D-1,2.285714285714D-1,          133P    161
2.571428571429D-1,2.857142857143D-1,3.142857142857D-1,               133P    162
3.428571428571D-1,3.714285714286D-1,4D-1,4.285714285714D-1,          133P    163
4.571428571429D-1,4.857142857143D-1,5.142857142857D-1,               133P    164
5.428571428571D-1,5.714285714286D-1,6D-1,6.285714285714D-1,          133P    165
6.571428571429D-1,6.857142857143D-1,7.142857142857D-1,               133P    166
7.428571428571D-1,7.714285714286D-1,8D-1,8.285714285714D-1,          133P    167
8.571428571429D-1,8.857142857143D-1,9.142857142857D-1,               133P    168
9.428571428571D-1,9.714285714286D-1,1D0,1D0,1D0,1D0,1D0,1D0,1D0,     133P    169
1D0,1D0,1D0,1D0,1D0,1D0,1D0,1D0,1D0,1D0,1D0,1D0,1D0,1D0,1D0,1D0,     133P    170
1D0,1D0,1D0,1D0,1D0,1D0,1D0,1D0,1D0,1D0,1D0,1D0,1D0,1D0,1D0,1D0,     133P    171
1D0,1D0,1D0,2.25D0,0D0,0D0,2.250008706475D0,6.732060187337D-2,       133P    172
0D0,2.243949286261D0,2.019590911608D-1,0D0,2.216817407309D0,         133P    173
4.022929483235D-1,0D0,2.171830530583D0,5.993871953270D-1,0D0,        133P    174
2.109359089754D0,7.916556855188D-1,0D0,2.029903864038D0,             133P    175
9.775501876959D-1,0D0,1.934105170778D0,1.155574041785D0,0D0,         133P    176
1.822734166477D0,1.324293890146D0,0D0,1.696687587378D0,              133P    177
1.482351303582D0,0D0,1.556980275061D0,1.628473695714D0,0D0,          133P    178
1.404737073702D0,1.761484575233D0,0D0,1.241183755225D0,              133P    179
1.880313016673D0,0D0,1.067637155002D0,1.984002283313D0,0D0,          133P    180
8.854945681542D-1,2.071717530141D0,0D0,6.962224997097D-1,            133P    181
2.142752525567D0,0D0,5.013448570689D-1,2.196535337575D0,0D0,         133P    182
3.024306804251D-1,2.232632938587D0,0D0,1.010815097689D-1,            133P    183
2.250754691944D0,0D0,-1.010815097689D-1,2.250754691944D0,0D0,        133P    184
-3.024306804251D-1,2.232632938587D0,0D0,-5.013448570689D-1,          133P    185
2.196535337575D0,0D0,-6.962224997097D-1,2.142752525567D0,0D0,        133P    186
-8.854945681542D-1,2.071717530141D0,0D0,-1.067637155002D0,           133P    187
1.984002283313D0,0D0,-1.241183755225D0,1.880313016673D0,0D0,         133P    188
-1.404737073702D0,1.761484575233D0,0D0,-1.556980275061D0,            133P    189
1.628473695714D0,0D0,-1.696687587378D0,1.482351303582D0,0D0,         133P    190
-1.822734166477D0,1.324293890146D0,0D0,-1.934105170778D0,            133P    191
1.155574041785D0,0D0,-2.029903864038D0,9.775501876959D-1,0D0,        133P    192
-2.109359089754D0,7.916556855188D-1,0D0,-2.171830530583D0,           133P    193
5.993871953270D-1,0D0,-2.216817407309D0,4.022929483235D-1,0D0,       133P    194
-2.243949286261D0,2.019590911608D-1,0D0,-2.250008706475D0,           133P    195
6.732060187337D-2,0D0,-2.25D0,0D0,0D0,0D0,1D0,0D0,0D0,1D0;           133P    196
126,37,3,0,0,1,0,0D0,0D0,0D0,0D0,2.857142857143D-2,                  135P    197
5.714285714286D-2,8.571428571429D-2,1.142857142857D-1,               135P    198
1.428571428571D-1,1.714285714286D-1,2D-1,2.285714285714D-1,          135P    199
2.571428571429D-1,2.857142857143D-1,3.142857142857D-1,               135P    200
3.428571428571D-1,3.714285714286D-1,4D-1,4.285714285714D-1,          135P    201
4.571428571429D-1,4.857142857143D-1,5.142857142857D-1,               135P    202
5.428571428571D-1,5.714285714286D-1,6D-1,6.285714285714D-1,          135P    203
6.571428571429D-1,6.857142857143D-1,7.142857142857D-1,               135P    204
7.428571428571D-1,7.714285714286D-1,8D-1,8.285714285714D-1,          135P    205
8.571428571429D-1,8.857142857143D-1,9.142857142857D-1,               135P    206
9.428571428571D-1,9.714285714286D-1,1D0,1D0,1D0,1D0,1D0,1D0,1D0,     135P    207
1D0,1D0,1D0,1D0,1D0,1D0,1D0,1D0,1D0,1D0,1D0,1D0,1D0,1D0,1D0,1D0,     135P    208
1D0,1D0,1D0,1D0,1D0,1D0,1D0,1D0,1D0,1D0,1D0,1D0,1D0,1D0,1D0,1D0,     135P    209
1D0,1D0,1D0,-2.25D0,0D0,0D0,-2.250008706475D0,                       135P    210
-6.732060187337D-2,0D0,-2.243949286261D0,-2.019590911608D-1,0D0,     135P    211
-2.216817407309D0,-4.022929483235D-1,0D0,-2.171830530583D0,          135P    212
-5.993871953270D-1,0D0,-2.109359089754D0,-7.916556855188D-1,0D0,     135P    213
-2.029903864038D0,-9.775501876959D-1,0D0,-1.934105170778D0,          135P    214
-1.155574041785D0,0D0,-1.822734166477D0,-1.324293890146D0,0D0,       135P    215
-1.696687587378D0,-1.482351303582D0,0D0,-1.556980275061D0,           135P    216
-1.628473695714D0,0D0,-1.404737073702D0,-1.761484575233D0,0D0,       135P    217
-1.241183755225D0,-1.880313016673D0,0D0,-1.067637155002D0,           135P    218
-1.984002283313D0,0D0,-8.854945681542D-1,-2.071717530141D0,0D0,      135P    219
-6.962224997097D-1,-2.142752525567D0,0D0,-5.013448570689D-1,         135P    220
-2.196535337575D0,0D0,-3.024306804251D-1,-2.232632938587D0,0D0,      135P    221
-1.010815097689D-1,-2.250754691944D0,0D0,1.010815097689D-1,          135P    222
-2.250754691944D0,0D0,3.024306804251D-1,-2.232632938587D0,0D0,       135P    223
5.013448570689D-1,-2.196535337575D0,0D0,6.962224997097D-1,           135P    224
-2.142752525567D0,0D0,8.854945681542D-1,-2.071717530141D0,0D0,       135P    225
1.067637155002D0,-1.984002283313D0,0D0,1.241183755225D0,             135P    226
-1.880313016673D0,0D0,1.404737073702D0,-1.761484575233D0,0D0,        135P    227
1.556980275061D0,-1.628473695714D0,0D0,1.696687587378D0,             135P    228
-1.482351303582D0,0D0,1.822734166477D0,-1.324293890146D0,0D0,        135P    229
1.934105170778D0,-1.155574041785D0,0D0,2.029903864038D0,             135P    230
-9.775501876959D-1,0D0,2.109359089754D0,-7.916556855188D-1,0D0,      135P    231
2.171830530583D0,-5.993871953270D-1,0D0,2.216817407309D0,            135P    232
-4.022929483235D-1,0D0,2.243949286261D0,-2.019590911608D-1,0D0,      135P    233
2.250008706475D0,-6.732060187337D-2,0D0,2.25D0,0D0,0D0,0D0,1D0,      135P    234
0D0,0D0,1D0;                                                         135P    235
102,2,133,135;                                                       137P    236
142,0,129,137,131,1;                                                 139P    237
102,2,41,45;                                                         141P    238
126,30,3,0,0,1,0,0D0,0D0,0D0,0D0,3.571428571429D-2,                  143P    239
7.142857142857D-2,1.071428571429D-1,1.428571428571D-1,               143P    240
1.785714285714D-1,2.142857142857D-1,2.5D-1,2.857142857143D-1,        143P    241
3.214285714286D-1,3.571428571429D-1,3.928571428571D-1,               143P    242
4.285714285714D-1,4.642857142857D-1,5D-1,5.357142857143D-1,          143P    243
5.714285714286D-1,6.071428571429D-1,6.428571428571D-1,               143P    244
6.785714285714D-1,7.142857142857D-1,7.5D-1,7.857142857143D-1,        143P    245
8.214285714286D-1,8.571428571429D-1,8.928571428571D-1,               143P    246
9.285714285714D-1,9.642857142857D-1,1D0,1D0,1D0,1D0,1D0,1D0,1D0,     143P    247
1D0,1D0,1D0,1D0,1D0,1D0,1D0,1D0,1D0,1D0,1D0,1D0,1D0,1D0,1D0,1D0,     143P    248
1D0,1D0,1D0,1D0,1D0,1D0,1D0,1D0,1D0,1D0,1D0,1D0,-1.2D0,0D0,0D0,      143P    249
-1.200011310806D0,4.488112990020D-2,0D0,-1.194953953393D0,           143P    250
1.346389749740D-1,0D0,-1.172372108147D0,2.675861206844D-1,0D0,       143P    251
-1.135038581728D0,3.971672667738D-1,0D0,-1.083433543163D0,           143P    252
5.217540582977D-1,0D0,-1.018203094519D0,6.397794216820D-1,0D0,       143P    253
-9.401683132031D-1,7.497592058848D-1,0D0,-8.503103264379D-1,         143P    254
8.503103281618D-1,0D0,-7.497592055884D-1,9.401683060112D-1,0D0,      143P    255
-6.397794245914D-1,1.018203121563D0,0D0,-5.217540469566D-1,          143P    256
1.083433442180D0,0D0,-3.971673092288D-1,1.135038958614D0,0D0,        143P    257
-2.675859622055D-1,1.172370701585D0,0D0,-1.346395664346D-1,          143P    258
1.194959202756D0,0D0,0D0,1.202520398622D0,0D0,1.346395664346D-1,     143P    259
1.194959202756D0,0D0,2.675859622055D-1,1.172370701585D0,0D0,         143P    260
3.971673092288D-1,1.135038958614D0,0D0,5.217540469566D-1,            143P    261
1.083433442180D0,0D0,6.397794245914D-1,1.018203121563D0,0D0,         143P    262
7.497592055884D-1,9.401683060112D-1,0D0,8.503103264379D-1,           143P    263
8.503103281618D-1,0D0,9.401683132031D-1,7.497592058848D-1,0D0,       143P    264
1.018203094519D0,6.397794216820D-1,0D0,1.083433543163D0,             143P    265
5.217540582977D-1,0D0,1.135038581728D0,3.971672667738D-1,0D0,        143P    266
1.172372108147D0,2.675861206844D-1,0D0,1.194953953393D0,             143P    267
1.346389749740D-1,0D0,1.200011310806D0,4.488112990020D-2,0D0,        143P    268
1.2D0,0D0,0D0,0D0,1D0,0D0,0D0,1D0;                                   143P    269
126,30,3,0,0,1,0,0D0,0D0,0D0,0D0,3.571428571429D-2,                  145P    270
7.142857142857D-2,1.071428571429D-1,1.428571428571D-1,               145P    271
1.785714285714D-1,2.142857142857D-1,2.5D-1,2.857142857143D-1,        145P    272
3.214285714286D-1,3.571428571429D-1,3.928571428571D-1,               145P    273
4.285714285714D-1,4.642857142857D-1,5D-1,5.357142857143D-1,          145P    274
5.714285714286D-1,6.071428571429D-1,6.428571428571D-1,               145P    275
6.785714285714D-1,7.142857142857D-1,7.5D-1,7.857142857143D-1,        145P    276
8.214285714286D-1,8.571428571429D-1,8.928571428571D-1,               145P    277
9.285714285714D-1,9.642857142857D-1,1D0,1D0,1D0,1D0,1D0,1D0,1D0,     145P    278
1D0,1D0,1D0,1D0,1D0,1D0,1D0,1D0,1D0,1D0,1D0,1D0,1D0,1D0,1D0,1D0,     145P    279
1D0,1D0,1D0,1D0,1D0,1D0,1D0,1D0,1D0,1D0,1D0,1D0,1.2D0,0D0,0D0,       145P    280
1.200011310806D0,-4.488112990020D-2,0D0,1.194953953393D0,            145P    281
-1.346389749740D-1,0D0,1.172372108147D0,-2.675861206844D-1,0D0,      145P    282
1.135038581728D0,-3.971672667738D-1,0D0,1.083433543163D0,            145P    283
-5.217540582977D-1,0D0,1.018203094519D0,-6.397794216820D-1,0D0,      145P    284
9.401683132031D-1,-7.497592058848D-1,0D0,8.503103264379D-1,          145P    285
-8.503103281618D-1,0D0,7.497592055884D-1,-9.401683060112D-1,0D0,     145P    286
6.397794245914D-1,-1.018203121563D0,0D0,5.217540469566D-1,           145P    287
-1.083433442180D0,0D0,3.971673092288D-1,-1.135038958614D0,0D0,       145P    288
2.675859622055D-1,-1.172370701585D0,0D0,1.346395664346D-1,           145P    289
-1.194959202756D0,0D0,0D0,-1.202520398622D0,0D0,                     145P    290
-1.346395664346D-1,-1.194959202756D0,0D0,-2.675859622055D-1,         145P    291
-1.172370701585D0,0D0,-3.971673092288D-1,-1.135038958614D0,0D0,      145P    292
-5.217540469566D-1,-1.083433442180D0,0D0,-6.397794245914D-1,         145P    293
-1.018203121563D0,0D0,-7.497592055884D-1,-9.401683060112D-1,0D0,     145P    294
-8.503103264379D-1,-8.503103281618D-1,0D0,-9.401683132031D-1,        145P    295
-7.497592058848D-1,0D0,-1.018203094519D0,-6.397794216820D-1,0D0,     145P    296
-1.083433543163D0,-5.217540582977D-1,0D0,-1.135038581728D0,          145P    297
-3.971672667738D-1,0D0,-1.172372108147D0,-2.675861206844D-1,0D0,     145P    298
-1.194953953393D0,-1.346389749740D-1,0D0,-1.200011310806D0,          145P    299
-4.488112990020D-2,0D0,-1.2D0,0D0,0D0,0D0,1D0,0D0,0D0,1D0;           145P    300
102,2,143,145;                                                       147P    301
142,0,129,147,141,1;                                                 149P    302
144,129,1,1,139,149;                                                 151P    303
110,0D0,6D0,0D0,0D0,7D0,0D0;                                         153P    304
110,1.2D0,5.947D0,0D0,1.2D0,8.703D0,0D0;                             155P    305
120,153,155,-6.283185307180D-2,3.204424506662D0;                     157P    306
110,-1.2D0,8.65D0,0D0,-1.2D0,6D0,0D0;                                159P    307
102,4,41,47,53,159;                                                  161P    308
110,1.923076923077D-2,3.141592653590D0,0D0,1.923076923077D-2,        163P    309
0D0,0D0;                                                             163P    310
110,1.923076923077D-2,0D0,0D0,9.807692307692D-1,0D0,0D0;             165P    311
110,9.807692307692D-1,0D0,0D0,9.807692307692D-1,                     167P    312
3.141592653590D0,0D0;                                                167P    313
110,9.807692307692D-1,3.141592653590D0,0D0,1.923076923077D-2,        169P    314
3.141592653590D0,0D0;                                                169P    315
102,4,163,165,167,169;                                               171P    316
142,0,157,171,161,1;                                                 173P    317
144,157,1,0,173;                                                     175P    318
110,0D0,6D0,0D0,0D0,7D0,0D0;                                         177P    319
110,1.2D0,5.947D0,0D0,1.2D0,8.703D0,0D0;                             179P    320
120,177,179,3.078760800518D0,6.346017160251D0;                       181P    321
110,1.2D0,8.65D0,0D0,1.2D0,6D0,0D0;                                  183P    322
102,4,45,49,57,183;                                                  185P    323
110,1.923076923077D-2,6.283185307180D0,0D0,1.923076923077D-2,        187P    324
3.141592653590D0,0D0;                                                187P    325
110,1.923076923077D-2,3.141592653590D0,0D0,9.807692307692D-1,        189P    326
3.141592653590D0,0D0;                                                189P    327
110,9.807692307692D-1,3.141592653590D0,0D0,9.807692307692D-1,        191P    328
6.283185307180D0,0D0;                                                191P    329
110,9.807692307692D-1,6.283185307180D0,0D0,1.923076923077D-2,        193P    330
6.283185307180D0,0D0;                                                193P    331
102,4,187,189,191,193;                                               195P    332
142,0,181,195,185,1;                                                 197P    333
144,181,1,0,197;                                                     199P    334
128,1,1,1,1,0,0,1,0,0,-1.248D0,-1.248D0,1.248D0,1.248D0,             201P    335
-1.248626463709D0,-1.248626463709D0,1.248626463709D0,                201P    336
1.248626463709D0,1D0,1D0,1D0,1D0,-1.248D0,8.65D0,                    201P    337
1.248626463709D0,1.248D0,8.65D0,1.248626463709D0,-1.248D0,           201P    338
8.65D0,-1.248626463709D0,1.248D0,8.65D0,-1.248626463709D0,           201P    339
-1.248D0,1.248D0,-1.248626463709D0,1.248626463709D0;                 201P    340
102,2,53,57;                                                         203P    341
126,29,3,0,0,1,0,0D0,0D0,0D0,0D0,3.703703703704D-2,                  205P    342
7.407407407407D-2,1.111111111111D-1,1.481481481481D-1,               205P    343
1.851851851852D-1,2.222222222222D-1,2.592592592593D-1,               205P    344
2.962962962963D-1,3.333333333333D-1,3.703703703704D-1,               205P    345
4.074074074074D-1,4.444444444444D-1,4.814814814815D-1,               205P    346
5.185185185185D-1,5.555555555556D-1,5.925925925926D-1,               205P    347
6.296296296296D-1,6.666666666667D-1,7.037037037037D-1,               205P    348
7.407407407407D-1,7.777777777778D-1,8.148148148148D-1,               205P    349
8.518518518519D-1,8.888888888889D-1,9.259259259259D-1,               205P    350
9.629629629630D-1,1D0,1D0,1D0,1D0,1D0,1D0,1D0,1D0,1D0,1D0,1D0,       205P    351
1D0,1D0,1D0,1D0,1D0,1D0,1D0,1D0,1D0,1D0,1D0,1D0,1D0,1D0,1D0,1D0,     205P    352
1D0,1D0,1D0,1D0,1D0,1D0,1D0,1.2D0,0D0,0D0,1.200013075656D0,          205P    353
4.654359424160D-2,0D0,1.194572398271D0,1.396254884519D-1,0D0,        205P    354
1.170293168310D0,2.773643807577D-1,0D0,1.130177996665D0,             205P    355
4.113512578630D-1,0D0,1.074781714689D0,5.397756197353D-1,0D0,        205P    356
1.004850154908D0,6.609003606392D-1,0D0,9.213299078519D-1,            205P    357
7.730875798176D-1,0D0,8.253502041410D-1,8.748201098334D-1,0D0,       205P    358
7.182090682391D-1,9.647222001749D-1,0D0,6.013553831627D-1,           205P    359
1.041578077303D0,0D0,4.763693991099D-1,1.104348397860D0,0D0,         205P    360
3.449413358795D-1,1.152184300796D0,0D0,2.088485328920D-1,            205P    361
1.184438887627D0,0D0,6.993141175448D-2,1.200675970385D0,0D0,         205P    362
-6.993141175448D-2,1.200675970385D0,0D0,-2.088485328920D-1,          205P    363
1.184438887627D0,0D0,-3.449413358795D-1,1.152184300796D0,0D0,        205P    364
-4.763693991099D-1,1.104348397860D0,0D0,-6.013553831627D-1,          205P    365
1.041578077303D0,0D0,-7.182090682391D-1,9.647222001749D-1,0D0,       205P    366
-8.253502041410D-1,8.748201098334D-1,0D0,-9.213299078519D-1,         205P    367
7.730875798176D-1,0D0,-1.004850154908D0,6.609003606392D-1,0D0,       205P    368
-1.074781714689D0,5.397756197353D-1,0D0,-1.130177996665D0,           205P    369
4.113512578630D-1,0D0,-1.170293168310D0,2.773643807577D-1,0D0,       205P    370
-1.194572398271D0,1.396254884519D-1,0D0,-1.200013075656D0,           205P    371
4.654359424160D-2,0D0,-1.2D0,0D0,0D0,0D0,1D0,0D0,0D0,1D0;            205P    372
126,29,3,0,0,1,0,0D0,0D0,0D0,0D0,3.703703703704D-2,                  207P    373
7.407407407407D-2,1.111111111111D-1,1.481481481481D-1,               207P    374
1.851851851852D-1,2.222222222222D-1,2.592592592593D-1,               207P    375
2.962962962963D-1,3.333333333333D-1,3.703703703704D-1,               207P    376
4.074074074074D-1,4.444444444444D-1,4.814814814815D-1,               207P    377
5.185185185185D-1,5.555555555556D-1,5.925925925926D-1,               207P    378
6.296296296296D-1,6.666666666667D-1,7.037037037037D-1,               207P    379
7.407407407407D-1,7.777777777778D-1,8.148148148148D-1,               207P    380
8.518518518519D-1,8.888888888889D-1,9.259259259259D-1,               207P    381
9.629629629630D-1,1D0,1D0,1D0,1D0,1D0,1D0,1D0,1D0,1D0,1D0,1D0,       207P    382
1D0,1D0,1D0,1D0,1D0,1D0,1D0,1D0,1D0,1D0,1D0,1D0,1D0,1D0,1D0,1D0,     207P    383
1D0,1D0,1D0,1D0,1D0,1D0,1D0,-1.2D0,0D0,0D0,-1.200013075656D0,        207P    384
-4.654359424160D-2,0D0,-1.194572398271D0,-1.396254884519D-1,0D0,     207P    385
-1.170293168310D0,-2.773643807577D-1,0D0,-1.130177996665D0,          207P    386
-4.113512578630D-1,0D0,-1.074781714689D0,-5.397756197353D-1,0D0,     207P    387
-1.004850154908D0,-6.609003606392D-1,0D0,-9.213299078519D-1,         207P    388
-7.730875798176D-1,0D0,-8.253502041410D-1,-8.748201098334D-1,        207P    389
0D0,-7.182090682391D-1,-9.647222001749D-1,0D0,                       207P    390
-6.013553831627D-1,-1.041578077303D0,0D0,-4.763693991099D-1,         207P    391
-1.104348397860D0,0D0,-3.449413358795D-1,-1.152184300796D0,0D0,      207P    392
-2.088485328920D-1,-1.184438887627D0,0D0,-6.993141175448D-2,         207P    393
-1.200675970385D0,0D0,6.993141175448D-2,-1.200675970385D0,0D0,       207P    394
2.088485328920D-1,-1.184438887627D0,0D0,3.449413358795D-1,           207P    395
-1.152184300796D0,0D0,4.763693991099D-1,-1.104348397860D0,0D0,       207P    396
6.013553831627D-1,-1.041578077303D0,0D0,7.182090682391D-1,           207P    397
-9.647222001749D-1,0D0,8.253502041410D-1,-8.748201098334D-1,0D0,     207P    398
9.213299078519D-1,-7.730875798176D-1,0D0,1.004850154908D0,           207P    399
-6.609003606392D-1,0D0,1.074781714689D0,-5.397756197353D-1,0D0,      207P    400
1.130177996665D0,-4.113512578630D-1,0D0,1.170293168310D0,            207P    401
-2.773643807577D-1,0D0,1.194572398271D0,-1.396254884519D-1,0D0,      207P    402
1.200013075656D0,-4.654359424160D-2,0D0,1.2D0,0D0,0D0,0D0,1D0,       207P    403
0D0,0D0,1D0;                                                         207P    404
102,2,205,207;                                                       209P    405
142,0,201,209,203,1;                                                 211P    406
144,201,1,0,211;                                                     213P    407
S      1G      4D    214P    407                                        T      1
