 PTC IGES file: lcm-28-slim-toppoly_prt.igs                             S      1
1H,,1H;,23HLCM-28-SLIM-TOPPOLY_PRT,27Hlcm-28-slim-toppoly_prt.igs,      G      1
49HPro/ENGINEER by Parametric Technology Corporation,7H2006170,32,38,7, G      2
38,15,23HLCM-28-SLIM-TOPPOLY_PRT,1.,2,2HMM,32768,0.5,                   G      3
15H20080630.105202,0.0100095,100.099,3HGRA,7HUnknown,10,0,              G      4
15H20080630.105202;                                                     G      5
     314       1       1       1       0       0       0       001000200D      1
     314       0       4       1       0                   COLOR       1D      2
     314       2       1       1       0       0       0       001000200D      3
     314       0       1       1       0                   COLOR       2D      4
     314       3       1       1       0       0       0       001000200D      5
     314       0       1       1       0                   COLOR       3D      6
     314       4       1       1       0       0       0       001000200D      7
     314       0       1       1       0                   COLOR       4D      8
     314       5       1       1       0       0       0       001000200D      9
     314       0       5       1       0                   COLOR       5D     10
     314       6       1       1       0       0       0       001000200D     11
     314       0       8       1       0                   COLOR       6D     12
     314       7       1       1       0       0       0       001000200D     13
     314       0       8       1       0                   COLOR       7D     14
     314       8       1       1       0       0       0       001000200D     15
     314       0       5       1       0                   COLOR       8D     16
     314       9       1       1       0       0       0       001000200D     17
     314       0       8       1       0                   COLOR       9D     18
     110      10       1       1       0       0       0       001010000D     19
     110       0      -9       1       0                    LINE       1D     20
     110      11       1       1       0       0       0       001010000D     21
     110       0      -9       1       0                    LINE       2D     22
     110      12       1       1       0       0       0       001010000D     23
     110       0      -9       1       0                    LINE       3D     24
     110      13       1       1       0       0       0       001010000D     25
     110       0      -9       1       0                    LINE       4D     26
     110      14       1       1       0       0       0       001010000D     27
     110       0      -9       1       0                    LINE       5D     28
     110      15       1       1       0       0       0       001010000D     29
     110       0      -9       1       0                    LINE       6D     30
     110      16       1       1       0       0       0       001010000D     31
     110       0      -9       1       0                    LINE       7D     32
     110      17       1       1       0       0       0       001010000D     33
     110       0      -9       1       0                    LINE       8D     34
     110      18       1       1       0       0       0       001010000D     35
     110       0      -9       1       0                    LINE       9D     36
     110      19       1       1       0       0       0       001010000D     37
     110       0      -9       1       0                    LINE      10D     38
     110      20       1       1       0       0       0       001010000D     39
     110       0      -9       1       0                    LINE      11D     40
     110      21       1       1       0       0       0       001010000D     41
     110       0      -9       1       0                    LINE      12D     42
     128      22       1       1       0       0       0       001010000D     43
     128       0      -9       4       0                  SPLSRF       1D     44
     102      26       1       1       0       0       0       001010000D     45
     102       0       0       1       0                  CCURVE       1D     46
     110      27       1       1       0       0       0       001010500D     47
     110       0      -9       1       0                    LINE      13D     48
     110      28       1       1       0       0       0       001010500D     49
     110       0      -9       1       0                    LINE      14D     50
     110      29       1       1       0       0       0       001010500D     51
     110       0      -9       1       0                    LINE      15D     52
     110      30       1       1       0       0       0       001010500D     53
     110       0      -9       1       0                    LINE      16D     54
     102      31       1       1       0       0       0       001010500D     55
     102       0       0       1       0                  CCURVE       2D     56
     142      32       1       1       0       0       0       001010500D     57
     142       0       0       1       0                  UV_BND       1D     58
     144      33       1       1       0       0       0       000000000D     59
     144       0      -9       1       0                 TRM_SRF       1D     60
     128      34       1       1       0       0       0       001010000D     61
     128       0      -9       7       0                  SPLSRF       2D     62
     110      41       1       1       0       0       0       001010000D     63
     110       0       0       1       0                    LINE      17D     64
     110      42       1       1       0       0       0       001010000D     65
     110       0       0       1       0                    LINE      18D     66
     102      43       1       1       0       0       0       001010000D     67
     102       0       0       1       0                  CCURVE       3D     68
     110      44       1       1       0       0       0       001010500D     69
     110       0      -9       1       0                    LINE      19D     70
     110      45       1       1       0       0       0       001010500D     71
     110       0      -9       1       0                    LINE      20D     72
     110      46       1       1       0       0       0       001010500D     73
     110       0      -9       1       0                    LINE      21D     74
     110      47       1       1       0       0       0       001010500D     75
     110       0      -9       1       0                    LINE      22D     76
     102      48       1       1       0       0       0       001010500D     77
     102       0       0       1       0                  CCURVE       4D     78
     142      49       1       1       0       0       0       001010500D     79
     142       0       0       1       0                  UV_BND       2D     80
     144      50       1       1       0       0       0       000000000D     81
     144       0      -9       1       0                 TRM_SRF       2D     82
     128      51       1       1       0       0       0       001010000D     83
     128       0      -9       7       0                  SPLSRF       3D     84
     110      58       1       1       0       0       0       001010000D     85
     110       0       0       1       0                    LINE      23D     86
     110      59       1       1       0       0       0       001010000D     87
     110       0       0       1       0                    LINE      24D     88
     102      60       1       1       0       0       0       001010000D     89
     102       0       0       1       0                  CCURVE       5D     90
     110      61       1       1       0       0       0       001010500D     91
     110       0      -9       1       0                    LINE      25D     92
     110      62       1       1       0       0       0       001010500D     93
     110       0      -9       1       0                    LINE      26D     94
     110      63       1       1       0       0       0       001010500D     95
     110       0      -9       1       0                    LINE      27D     96
     110      64       1       1       0       0       0       001010500D     97
     110       0      -9       1       0                    LINE      28D     98
     102      65       1       1       0       0       0       001010500D     99
     102       0       0       1       0                  CCURVE       6D    100
     142      66       1       1       0       0       0       001010500D    101
     142       0       0       1       0                  UV_BND       3D    102
     144      67       1       1       0       0       0       000000000D    103
     144       0      -9       1       0                 TRM_SRF       3D    104
     128      68       1       1       0       0       0       001010000D    105
     128       0      -9       7       0                  SPLSRF       4D    106
     110      75       1       1       0       0       0       001010000D    107
     110       0       0       1       0                    LINE      29D    108
     110      76       1       1       0       0       0       001010000D    109
     110       0       0       1       0                    LINE      30D    110
     102      77       1       1       0       0       0       001010000D    111
     102       0       0       1       0                  CCURVE       7D    112
     110      78       1       1       0       0       0       001010500D    113
     110       0      -9       1       0                    LINE      31D    114
     110      79       1       1       0       0       0       001010500D    115
     110       0      -9       1       0                    LINE      32D    116
     110      80       1       1       0       0       0       001010500D    117
     110       0      -9       1       0                    LINE      33D    118
     110      81       1       1       0       0       0       001010500D    119
     110       0      -9       1       0                    LINE      34D    120
     102      82       1       1       0       0       0       001010500D    121
     102       0       0       1       0                  CCURVE       8D    122
     142      83       1       1       0       0       0       001010500D    123
     142       0       0       1       0                  UV_BND       4D    124
     144      84       1       1       0       0       0       000000000D    125
     144       0      -9       1       0                 TRM_SRF       4D    126
     128      85       1       1       0       0       0       001010000D    127
     128       0      -9       6       0                  SPLSRF       5D    128
     110      91       1       1       0       0       0       001010000D    129
     110       0       0       1       0                    LINE      35D    130
     110      92       1       1       0       0       0       001010000D    131
     110       0       0       1       0                    LINE      36D    132
     102      93       1       1       0       0       0       001010000D    133
     102       0       0       1       0                  CCURVE       9D    134
     110      94       1       1       0       0       0       001010500D    135
     110       0      -9       1       0                    LINE      37D    136
     110      95       1       1       0       0       0       001010500D    137
     110       0      -9       1       0                    LINE      38D    138
     110      96       1       1       0       0       0       001010500D    139
     110       0      -9       1       0                    LINE      39D    140
     110      97       1       1       0       0       0       001010500D    141
     110       0      -9       1       0                    LINE      40D    142
     102      98       1       1       0       0       0       001010500D    143
     102       0       0       1       0                  CCURVE      10D    144
     142      99       1       1       0       0       0       001010500D    145
     142       0       0       1       0                  UV_BND       5D    146
     144     100       1       1       0       0       0       000000000D    147
     144       0      -9       1       0                 TRM_SRF       5D    148
     128     101       1       1       0       0       0       001010000D    149
     128       0      -9       5       0                  SPLSRF       6D    150
     102     106       1       1       0       0       0       001010000D    151
     102       0       0       1       0                  CCURVE      11D    152
     110     107       1       1       0       0       0       001010500D    153
     110       0      -9       1       0                    LINE      41D    154
     110     108       1       1       0       0       0       001010500D    155
     110       0      -9       1       0                    LINE      42D    156
     110     109       1       1       0       0       0       001010500D    157
     110       0      -9       1       0                    LINE      43D    158
     110     110       1       1       0       0       0       001010500D    159
     110       0      -9       1       0                    LINE      44D    160
     102     111       1       1       0       0       0       001010500D    161
     102       0       0       1       0                  CCURVE      12D    162
     142     112       1       1       0       0       0       001010500D    163
     142       0       0       1       0                  UV_BND       6D    164
     144     113       1       1       0       0       0       000000000D    165
     144       0      -9       1       0                 TRM_SRF       6D    166
314,1.1D0,1.2D0,1D2;                                                   1P      1
314,1.1D1,1.1D1,1.1D1;                                                 3P      2
314,3.92D1,1.2D0,1.2D0;                                                5P      3
314,4.1D1,0D0,2.2D1;                                                   7P      4
314,8.07D1,7.65D1,5.8D0;                                               9P      5
314,8.784D1,9.49D1,1D2;                                               11P      6
314,9.6D1,9.6D1,9.6D1;                                                13P      7
314,9.8D1,6.27D1,0D0;                                                 15P      8
314,1D2,1D2,9.49D1;                                                   17P      9
110,-2.655D1,-3.695D1,0D0,2.655D1,-3.695D1,0D0;                       19P     10
110,2.655D1,-3.695D1,0D0,2.655D1,3.695D1,0D0;                         21P     11
110,2.655D1,3.695D1,0D0,-2.655D1,3.695D1,0D0;                         23P     12
110,-2.655D1,3.695D1,0D0,-2.655D1,-3.695D1,0D0;                       25P     13
110,-2.655D1,-3.695D1,0D0,-2.655D1,-3.695D1,3.6D0;                    27P     14
110,-2.655D1,3.695D1,0D0,-2.655D1,3.695D1,3.6D0;                      29P     15
110,2.655D1,3.695D1,0D0,2.655D1,3.695D1,3.6D0;                        31P     16
110,2.655D1,-3.695D1,0D0,2.655D1,-3.695D1,3.6D0;                      33P     17
110,-2.655D1,-3.695D1,3.6D0,2.655D1,-3.695D1,3.6D0;                   35P     18
110,-2.655D1,3.695D1,3.6D0,-2.655D1,-3.695D1,3.6D0;                   37P     19
110,2.655D1,3.695D1,3.6D0,-2.655D1,3.695D1,3.6D0;                     39P     20
110,2.655D1,-3.695D1,3.6D0,2.655D1,3.695D1,3.6D0;                     41P     21
128,1,1,1,1,0,0,1,0,0,-2.7612D1,-2.7612D1,2.7612D1,2.7612D1,          43P     22
-3.8428D1,-3.8428D1,3.8428D1,3.8428D1,1D0,1D0,1D0,1D0,-2.7612D1,      43P     23
-3.8428D1,0D0,2.7612D1,-3.8428D1,0D0,-2.7612D1,3.8428D1,0D0,          43P     24
2.7612D1,3.8428D1,0D0,-2.7612D1,2.7612D1,-3.8428D1,3.8428D1;          43P     25
102,4,19,21,23,25;                                                    45P     26
110,-2.655D1,-3.695D1,0D0,2.655D1,-3.695D1,0D0;                       47P     27
110,2.655D1,-3.695D1,0D0,2.655D1,3.695D1,0D0;                         49P     28
110,2.655D1,3.695D1,0D0,-2.655D1,3.695D1,0D0;                         51P     29
110,-2.655D1,3.695D1,0D0,-2.655D1,-3.695D1,0D0;                       53P     30
102,4,47,49,51,53;                                                    55P     31
142,0,43,55,45,1;                                                     57P     32
144,43,1,0,57;                                                        59P     33
128,1,1,1,1,0,0,1,0,0,-1.062D0,-1.062D0,5.4162D1,5.4162D1,            61P     34
-1.201186944984D-1,-1.201186944984D-1,3.720118694498D0,               61P     35
3.720118694498D0,1D0,1D0,1D0,1D0,-2.7612D1,-3.695D1,                  61P     36
-1.201186944984D-1,2.7612D1,-3.695D1,-1.201186944984D-1,              61P     37
-2.7612D1,-3.695D1,3.720118694498D0,2.7612D1,-3.695D1,                61P     38
3.720118694498D0,-1.062D0,5.4162D1,-1.201186944984D-1,                61P     39
3.720118694498D0;                                                     61P     40
110,2.655D1,-3.695D1,3.6D0,-2.655D1,-3.695D1,3.6D0;                   63P     41
110,-2.655D1,-3.695D1,3.6D0,-2.655D1,-3.695D1,0D0;                    65P     42
102,4,19,33,63,65;                                                    67P     43
110,0D0,0D0,0D0,5.31D1,0D0,0D0;                                       69P     44
110,5.31D1,0D0,0D0,5.31D1,3.6D0,0D0;                                  71P     45
110,5.31D1,3.6D0,0D0,0D0,3.6D0,0D0;                                   73P     46
110,0D0,3.6D0,0D0,0D0,0D0,0D0;                                        75P     47
102,4,69,71,73,75;                                                    77P     48
142,0,61,77,67,1;                                                     79P     49
144,61,1,0,79;                                                        81P     50
128,1,1,1,1,0,0,1,0,0,-1.478D0,-1.478D0,7.5378D1,7.5378D1,            83P     51
-1.201186944984D-1,-1.201186944984D-1,3.720118694498D0,               83P     52
3.720118694498D0,1D0,1D0,1D0,1D0,-2.655D1,3.8428D1,                   83P     53
-1.201186944984D-1,-2.655D1,-3.8428D1,-1.201186944984D-1,             83P     54
-2.655D1,3.8428D1,3.720118694498D0,-2.655D1,-3.8428D1,                83P     55
3.720118694498D0,-1.478D0,7.5378D1,-1.201186944984D-1,                83P     56
3.720118694498D0;                                                     83P     57
110,-2.655D1,-3.695D1,3.6D0,-2.655D1,3.695D1,3.6D0;                   85P     58
110,-2.655D1,3.695D1,3.6D0,-2.655D1,3.695D1,0D0;                      87P     59
102,4,25,27,85,87;                                                    89P     60
110,0D0,0D0,0D0,7.39D1,0D0,0D0;                                       91P     61
110,7.39D1,0D0,0D0,7.39D1,3.6D0,0D0;                                  93P     62
110,7.39D1,3.6D0,0D0,0D0,3.6D0,0D0;                                   95P     63
110,0D0,3.6D0,0D0,0D0,0D0,0D0;                                        97P     64
102,4,91,93,95,97;                                                    99P     65
142,0,83,99,89,1;                                                    101P     66
144,83,1,0,101;                                                      103P     67
128,1,1,1,1,0,0,1,0,0,-1.062D0,-1.062D0,5.4162D1,5.4162D1,           105P     68
-1.201186944984D-1,-1.201186944984D-1,3.720118694498D0,              105P     69
3.720118694498D0,1D0,1D0,1D0,1D0,2.7612D1,3.695D1,                   105P     70
-1.201186944984D-1,-2.7612D1,3.695D1,-1.201186944984D-1,             105P     71
2.7612D1,3.695D1,3.720118694498D0,-2.7612D1,3.695D1,                 105P     72
3.720118694498D0,-1.062D0,5.4162D1,-1.201186944984D-1,               105P     73
3.720118694498D0;                                                    105P     74
110,-2.655D1,3.695D1,3.6D0,2.655D1,3.695D1,3.6D0;                    107P     75
110,2.655D1,3.695D1,3.6D0,2.655D1,3.695D1,0D0;                       109P     76
102,4,23,29,107,109;                                                 111P     77
110,0D0,0D0,0D0,5.31D1,0D0,0D0;                                      113P     78
110,5.31D1,0D0,0D0,5.31D1,3.6D0,0D0;                                 115P     79
110,5.31D1,3.6D0,0D0,0D0,3.6D0,0D0;                                  117P     80
110,0D0,3.6D0,0D0,0D0,0D0,0D0;                                       119P     81
102,4,113,115,117,119;                                               121P     82
142,0,105,121,111,1;                                                 123P     83
144,105,1,0,123;                                                     125P     84
128,1,1,1,1,0,0,1,0,0,-1.478D0,-1.478D0,7.5378D1,7.5378D1,           127P     85
-1.201186944984D-1,-1.201186944984D-1,3.720118694498D0,              127P     86
3.720118694498D0,1D0,1D0,1D0,1D0,2.655D1,-3.8428D1,                  127P     87
-1.201186944984D-1,2.655D1,3.8428D1,-1.201186944984D-1,2.655D1,      127P     88
-3.8428D1,3.720118694498D0,2.655D1,3.8428D1,3.720118694498D0,        127P     89
-1.478D0,7.5378D1,-1.201186944984D-1,3.720118694498D0;               127P     90
110,2.655D1,3.695D1,3.6D0,2.655D1,-3.695D1,3.6D0;                    129P     91
110,2.655D1,-3.695D1,3.6D0,2.655D1,-3.695D1,0D0;                     131P     92
102,4,21,31,129,131;                                                 133P     93
110,0D0,0D0,0D0,7.39D1,0D0,0D0;                                      135P     94
110,7.39D1,0D0,0D0,7.39D1,3.6D0,0D0;                                 137P     95
110,7.39D1,3.6D0,0D0,0D0,3.6D0,0D0;                                  139P     96
110,0D0,3.6D0,0D0,0D0,0D0,0D0;                                       141P     97
102,4,135,137,139,141;                                               143P     98
142,0,127,143,133,1;                                                 145P     99
144,127,1,0,145;                                                     147P    100
128,1,1,1,1,0,0,1,0,0,-2.7612D1,-2.7612D1,2.7612D1,2.7612D1,         149P    101
-3.8428D1,-3.8428D1,3.8428D1,3.8428D1,1D0,1D0,1D0,1D0,-2.7612D1,     149P    102
-3.8428D1,3.6D0,2.7612D1,-3.8428D1,3.6D0,-2.7612D1,3.8428D1,         149P    103
3.6D0,2.7612D1,3.8428D1,3.6D0,-2.7612D1,2.7612D1,-3.8428D1,          149P    104
3.8428D1;                                                            149P    105
102,4,35,41,39,37;                                                   151P    106
110,-2.655D1,-3.695D1,0D0,2.655D1,-3.695D1,0D0;                      153P    107
110,2.655D1,-3.695D1,0D0,2.655D1,3.695D1,0D0;                        155P    108
110,2.655D1,3.695D1,0D0,-2.655D1,3.695D1,0D0;                        157P    109
110,-2.655D1,3.695D1,0D0,-2.655D1,-3.695D1,0D0;                      159P    110
102,4,153,155,157,159;                                               161P    111
142,0,149,161,151,1;                                                 163P    112
144,149,1,0,163;                                                     165P    113
S      1G      5D    166P    113                                        T      1
