 PTC IGES file: pad__w___any_prt.igs                                    S      1
1H,,1H;,16HPAD__W___ANY_PRT,20Hpad__w___any_prt.igs,                    G      1
49HPro/ENGINEER by Parametric Technology Corporation,7H2006170,32,38,7, G      2
38,15,16HPAD__W___ANY_PRT,1.,2,2HMM,32768,0.5,15H20080630.105205,       G      3
0.000155647,1.55653,3HGRA,7HUnknown,10,0,15H20080630.105205;            G      4
     314       1       1       1       0       0       0       001000200D      1
     314       0       4       1       0                   COLOR       1D      2
     314       2       1       1       0       0       0       001000200D      3
     314       0       1       1       0                   COLOR       2D      4
     314       3       1       1       0       0       0       001000200D      5
     314       0       1       1       0                   COLOR       3D      6
     314       4       1       1       0       0       0       001000200D      7
     314       0       1       1       0                   COLOR       4D      8
     314       5       1       1       0       0       0       001000200D      9
     314       0       5       1       0                   COLOR       5D     10
     314       6       1       1       0       0       0       001000200D     11
     314       0       8       1       0                   COLOR       6D     12
     314       7       1       1       0       0       0       001000200D     13
     314       0       8       1       0                   COLOR       7D     14
     314       8       1       1       0       0       0       001000200D     15
     314       0       5       1       0                   COLOR       8D     16
     314       9       1       1       0       0       0       001000200D     17
     314       0       8       1       0                   COLOR       9D     18
     124      10       1       1       0       0       0       001000000D     19
     124       0       0       2       0                   XFORM       1D     20
     100      12       1       1       0       0      19       001010000D     21
     100       0      -9       1       0                     ARC       1D     22
     110      13       1       1       0       0       0       001010000D     23
     110       0      -9       2       0                    LINE       1D     24
     124      15       1       1       0       0       0       001000000D     25
     124       0       0       2       0                   XFORM       2D     26
     100      17       1       1       0       0      25       001010000D     27
     100       0      -9       1       0                     ARC       2D     28
     110      18       1       1       0       0       0       001010000D     29
     110       0      -9       2       0                    LINE       2D     30
     124      20       1       1       0       0       0       001000000D     31
     124       0       0       2       0                   XFORM       3D     32
     100      22       1       1       0       0      31       001010000D     33
     100       0      -9       1       0                     ARC       3D     34
     124      23       1       1       0       0       0       001000000D     35
     124       0       0       2       0                   XFORM       4D     36
     100      25       1       1       0       0      35       001010000D     37
     100       0      -9       1       0                     ARC       4D     38
     110      26       1       1       0       0       0       001010000D     39
     110       0      -9       2       0                    LINE       3D     40
     110      28       1       1       0       0       0       001010000D     41
     110       0      -9       2       0                    LINE       4D     42
     124      30       1       1       0       0       0       001000000D     43
     124       0       0       2       0                   XFORM       5D     44
     100      32       1       1       0       0      43       001010000D     45
     100       0      -9       1       0                     ARC       5D     46
     110      33       1       1       0       0       0       001010000D     47
     110       0      -9       2       0                    LINE       5D     48
     124      35       1       1       0       0       0       001000000D     49
     124       0       0       2       0                   XFORM       6D     50
     100      37       1       1       0       0      49       001010000D     51
     100       0      -9       1       0                     ARC       6D     52
     110      38       1       1       0       0       0       001010000D     53
     110       0      -9       2       0                    LINE       6D     54
     124      40       1       1       0       0       0       001000000D     55
     124       0       0       2       0                   XFORM       7D     56
     100      42       1       1       0       0      55       001010000D     57
     100       0      -9       1       0                     ARC       7D     58
     124      43       1       1       0       0       0       001000000D     59
     124       0       0       2       0                   XFORM       8D     60
     100      45       1       1       0       0      59       001010000D     61
     100       0      -9       1       0                     ARC       8D     62
     110      46       1       1       0       0       0       001010000D     63
     110       0      -9       2       0                    LINE       7D     64
     110      48       1       1       0       0       0       001010000D     65
     110       0      -9       2       0                    LINE       8D     66
     120      50       1       1       0       0       0       001010000D     67
     120       0      -9       1       0                    SREV       1D     68
     124      51       1       1       0       0       0       001000000D     69
     124       0       0       2       0                   XFORM       9D     70
     100      53       1       1       0       0      69       001010000D     71
     100       0       0       1       0                     ARC       9D     72
     110      54       1       1       0       0       0       001010000D     73
     110       0       0       2       0                    LINE       9D     74
     124      56       1       1       0       0       0       001000000D     75
     124       0       0       2       0                   XFORM      10D     76
     100      58       1       1       0       0      75       001010000D     77
     100       0       0       1       0                     ARC      10D     78
     102      59       1       1       0       0       0       001010000D     79
     102       0       0       1       0                  CCURVE       1D     80
     110      60       1       1       0       0       0       001010500D     81
     110       0      -9       2       0                    LINE      10D     82
     110      62       1       1       0       0       0       001010500D     83
     110       0      -9       1       0                    LINE      11D     84
     110      63       1       1       0       0       0       001010500D     85
     110       0      -9       2       0                    LINE      12D     86
     110      65       1       1       0       0       0       001010500D     87
     110       0      -9       2       0                    LINE      13D     88
     102      67       1       1       0       0       0       001010500D     89
     102       0       0       1       0                  CCURVE       2D     90
     142      68       1       1       0       0       0       001010500D     91
     142       0       0       1       0                  UV_BND       1D     92
     144      69       1       1       0       0       0       000000000D     93
     144       0      -9       1       0                 TRM_SRF       1D     94
     128      70       1       1       0       0       0       001010000D     95
     128       0      -9       6       0                  SPLSRF       1D     96
     102      76       1       1       0       0       0       001010000D     97
     102       0       0       1       0                  CCURVE       3D     98
     126      77       1       1       0       0       0       001010500D     99
     126       0      -9      27       0                B_SPLINE       1D    100
     126     104       1       1       0       0       0       001010500D    101
     126       0      -9      26       0                B_SPLINE       2D    102
     102     130       1       1       0       0       0       001010500D    103
     102       0       0       1       0                  CCURVE       4D    104
     142     131       1       1       0       0       0       001010500D    105
     142       0       0       1       0                  UV_BND       2D    106
     144     132       1       1       0       0       0       000000000D    107
     144       0      -9       1       0                 TRM_SRF       2D    108
     110     133       1       1       0       0       0       001010000D    109
     110       0      -9       2       0                    LINE      14D    110
     110     135       1       1       0       0       0       001010000D    111
     110       0      -9       2       0                    LINE      15D    112
     120     137       1       1       0       0       0       001010000D    113
     120       0      -9       1       0                    SREV       2D    114
     110     138       1       1       0       0       0       001010000D    115
     110       0       0       2       0                    LINE      16D    116
     124     140       1       1       0       0       0       001000000D    117
     124       0       0       2       0                   XFORM      11D    118
     100     142       1       1       0       0     117       001010000D    119
     100       0       0       1       0                     ARC      11D    120
     124     143       1       1       0       0       0       001000000D    121
     124       0       0       2       0                   XFORM      12D    122
     100     145       1       1       0       0     121       001010000D    123
     100       0       0       1       0                     ARC      12D    124
     102     146       1       1       0       0       0       001010000D    125
     102       0       0       1       0                  CCURVE       5D    126
     110     147       1       1       0       0       0       001010500D    127
     110       0      -9       2       0                    LINE      17D    128
     110     149       1       1       0       0       0       001010500D    129
     110       0      -9       2       0                    LINE      18D    130
     110     151       1       1       0       0       0       001010500D    131
     110       0      -9       2       0                    LINE      19D    132
     110     153       1       1       0       0       0       001010500D    133
     110       0      -9       2       0                    LINE      20D    134
     102     155       1       1       0       0       0       001010500D    135
     102       0       0       1       0                  CCURVE       6D    136
     142     156       1       1       0       0       0       001010500D    137
     142       0       0       1       0                  UV_BND       3D    138
     144     157       1       1       0       0       0       000000000D    139
     144       0      -9       1       0                 TRM_SRF       3D    140
     110     158       1       1       0       0       0       001010000D    141
     110       0      -9       2       0                    LINE      21D    142
     110     160       1       1       0       0       0       001010000D    143
     110       0      -9       2       0                    LINE      22D    144
     120     162       1       1       0       0       0       001010000D    145
     120       0      -9       1       0                    SREV       3D    146
     110     163       1       1       0       0       0       001010000D    147
     110       0       0       2       0                    LINE      23D    148
     102     165       1       1       0       0       0       001010000D    149
     102       0       0       1       0                  CCURVE       7D    150
     110     166       1       1       0       0       0       001010500D    151
     110       0      -9       2       0                    LINE      24D    152
     110     168       1       1       0       0       0       001010500D    153
     110       0      -9       2       0                    LINE      25D    154
     110     170       1       1       0       0       0       001010500D    155
     110       0      -9       2       0                    LINE      26D    156
     110     172       1       1       0       0       0       001010500D    157
     110       0      -9       2       0                    LINE      27D    158
     102     174       1       1       0       0       0       001010500D    159
     102       0       0       1       0                  CCURVE       8D    160
     142     175       1       1       0       0       0       001010500D    161
     142       0       0       1       0                  UV_BND       4D    162
     144     176       1       1       0       0       0       000000000D    163
     144       0      -9       1       0                 TRM_SRF       4D    164
     110     177       1       1       0       0       0       001010000D    165
     110       0      -9       2       0                    LINE      28D    166
     110     179       1       1       0       0       0       001010000D    167
     110       0      -9       2       0                    LINE      29D    168
     120     181       1       1       0       0       0       001010000D    169
     120       0      -9       1       0                    SREV       4D    170
     110     182       1       1       0       0       0       001010000D    171
     110       0       0       2       0                    LINE      30D    172
     102     184       1       1       0       0       0       001010000D    173
     102       0       0       1       0                  CCURVE       9D    174
     110     185       1       1       0       0       0       001010500D    175
     110       0      -9       2       0                    LINE      31D    176
     110     187       1       1       0       0       0       001010500D    177
     110       0      -9       1       0                    LINE      32D    178
     110     188       1       1       0       0       0       001010500D    179
     110       0      -9       2       0                    LINE      33D    180
     110     190       1       1       0       0       0       001010500D    181
     110       0      -9       2       0                    LINE      34D    182
     102     192       1       1       0       0       0       001010500D    183
     102       0       0       1       0                  CCURVE      10D    184
     142     193       1       1       0       0       0       001010500D    185
     142       0       0       1       0                  UV_BND       5D    186
     144     194       1       1       0       0       0       000000000D    187
     144       0      -9       1       0                 TRM_SRF       5D    188
     110     195       1       1       0       0       0       001010000D    189
     110       0      -9       2       0                    LINE      35D    190
     110     197       1       1       0       0       0       001010000D    191
     110       0      -9       2       0                    LINE      36D    192
     120     199       1       1       0       0       0       001010000D    193
     120       0      -9       1       0                    SREV       5D    194
     110     200       1       1       0       0       0       001010000D    195
     110       0       0       2       0                    LINE      37D    196
     124     202       1       1       0       0       0       001000000D    197
     124       0       0       2       0                   XFORM      13D    198
     100     204       1       1       0       0     197       001010000D    199
     100       0       0       1       0                     ARC      13D    200
     102     205       1       1       0       0       0       001010000D    201
     102       0       0       1       0                  CCURVE      11D    202
     110     206       1       1       0       0       0       001010500D    203
     110       0      -9       2       0                    LINE      38D    204
     110     208       1       1       0       0       0       001010500D    205
     110       0      -9       1       0                    LINE      39D    206
     110     209       1       1       0       0       0       001010500D    207
     110       0      -9       2       0                    LINE      40D    208
     110     211       1       1       0       0       0       001010500D    209
     110       0      -9       2       0                    LINE      41D    210
     102     213       1       1       0       0       0       001010500D    211
     102       0       0       1       0                  CCURVE      12D    212
     142     214       1       1       0       0       0       001010500D    213
     142       0       0       1       0                  UV_BND       6D    214
     144     215       1       1       0       0       0       000000000D    215
     144       0      -9       1       0                 TRM_SRF       6D    216
     128     216       1       1       0       0       0       001010000D    217
     128       0      -9       6       0                  SPLSRF       2D    218
     102     222       1       1       0       0       0       001010000D    219
     102       0       0       1       0                  CCURVE      13D    220
     126     223       1       1       0       0       0       001010500D    221
     126       0      -9      27       0                B_SPLINE       3D    222
     126     250       1       1       0       0       0       001010500D    223
     126       0      -9      26       0                B_SPLINE       4D    224
     102     276       1       1       0       0       0       001010500D    225
     102       0       0       1       0                  CCURVE      14D    226
     142     277       1       1       0       0       0       001010500D    227
     142       0       0       1       0                  UV_BND       7D    228
     144     278       1       1       0       0       0       000000000D    229
     144       0      -9       1       0                 TRM_SRF       7D    230
     110     279       1       1       0       0       0       001010000D    231
     110       0      -9       2       0                    LINE      42D    232
     110     281       1       1       0       0       0       001010000D    233
     110       0      -9       2       0                    LINE      43D    234
     120     283       1       1       0       0       0       001010000D    235
     120       0      -9       1       0                    SREV       6D    236
     110     284       1       1       0       0       0       001010000D    237
     110       0       0       2       0                    LINE      44D    238
     124     286       1       1       0       0       0       001000000D    239
     124       0       0       2       0                   XFORM      14D    240
     100     288       1       1       0       0     239       001010000D    241
     100       0       0       1       0                     ARC      14D    242
     102     289       1       1       0       0       0       001010000D    243
     102       0       0       1       0                  CCURVE      15D    244
     110     290       1       1       0       0       0       001010500D    245
     110       0      -9       2       0                    LINE      45D    246
     110     292       1       1       0       0       0       001010500D    247
     110       0      -9       2       0                    LINE      46D    248
     110     294       1       1       0       0       0       001010500D    249
     110       0      -9       2       0                    LINE      47D    250
     110     296       1       1       0       0       0       001010500D    251
     110       0      -9       2       0                    LINE      48D    252
     102     298       1       1       0       0       0       001010500D    253
     102       0       0       1       0                  CCURVE      16D    254
     142     299       1       1       0       0       0       001010500D    255
     142       0       0       1       0                  UV_BND       8D    256
     144     300       1       1       0       0       0       000000000D    257
     144       0      -9       1       0                 TRM_SRF       8D    258
314,1.1D0,1.2D0,1D2;                                                   1P      1
314,1.1D1,1.1D1,1.1D1;                                                 3P      2
314,3.92D1,1.2D0,1.2D0;                                                5P      3
314,4.1D1,0D0,2.2D1;                                                   7P      4
314,7.529411764706D1,6.078431372549D1,1.725490196078D1;                9P      5
314,8.784D1,9.49D1,1D2;                                               11P      6
314,9.6D1,9.6D1,9.6D1;                                                13P      7
314,9.8D1,6.27D1,0D0;                                                 15P      8
314,1D2,1D2,9.49D1;                                                   17P      9
124,1D0,0D0,0D0,1.516788405346D1,0D0,1D0,0D0,2.511980645175D0,        19P     10
0D0,0D0,1D0,0D0;                                                      19P     11
100,0D0,0D0,0D0,4.4D-1,0D0,-4.4D-1,0D0;                               21P     12
110,1.570788405346D1,2.511980645175D0,1D-1,1.560788405346D1,          23P     13
2.511980645175D0,0D0;                                                 23P     14
124,-1D0,0D0,0D0,1.516788405346D1,0D0,1D0,0D0,2.511980645175D0,       25P     15
0D0,0D0,-1D0,1D-1;                                                    25P     16
100,0D0,0D0,0D0,5.4D-1,0D0,-5.4D-1,0D0;                               27P     17
110,1.462788405346D1,2.511980645175D0,1D-1,1.472788405346D1,          29P     18
2.511980645175D0,0D0;                                                 29P     19
124,1D0,0D0,0D0,1.516788405346D1,0D0,-1D0,0D0,2.511980645175D0,       31P     20
0D0,0D0,-1D0,1D-1;                                                    31P     21
100,0D0,0D0,0D0,5.4D-1,0D0,-5.4D-1,0D0;                               33P     22
124,-1D0,0D0,0D0,1.516788405346D1,0D0,-1D0,0D0,2.511980645175D0,      35P     23
0D0,0D0,1D0,0D0;                                                      35P     24
100,0D0,0D0,0D0,4.4D-1,0D0,-4.4D-1,0D0;                               37P     25
110,1.570788405346D1,2.511980645175D0,1D-1,1.570788405346D1,          39P     26
2.511980645175D0,2D-1;                                                39P     27
110,1.462788405346D1,2.511980645175D0,1D-1,1.462788405346D1,          41P     28
2.511980645175D0,2D-1;                                                41P     29
124,1D0,0D0,0D0,1.516788405346D1,0D0,1D0,0D0,2.511980645175D0,        43P     30
0D0,0D0,1D0,3D-1;                                                     43P     31
100,0D0,0D0,0D0,4.4D-1,0D0,-4.4D-1,0D0;                               45P     32
110,1.462788405346D1,2.511980645175D0,2D-1,1.472788405346D1,          47P     33
2.511980645175D0,3D-1;                                                47P     34
124,1D0,0D0,0D0,1.516788405346D1,0D0,1D0,0D0,2.511980645175D0,        49P     35
0D0,0D0,1D0,2D-1;                                                     49P     36
100,0D0,0D0,0D0,5.4D-1,0D0,-5.4D-1,0D0;                               51P     37
110,1.570788405346D1,2.511980645175D0,2D-1,1.560788405346D1,          53P     38
2.511980645175D0,3D-1;                                                53P     39
124,-1D0,0D0,0D0,1.516788405346D1,0D0,-1D0,0D0,2.511980645175D0,      55P     40
0D0,0D0,1D0,2D-1;                                                     55P     41
100,0D0,0D0,0D0,5.4D-1,0D0,-5.4D-1,0D0;                               57P     42
124,-1D0,0D0,0D0,1.516788405346D1,0D0,-1D0,0D0,2.511980645175D0,      59P     43
0D0,0D0,1D0,3D-1;                                                     59P     44
100,0D0,0D0,0D0,4.4D-1,0D0,-4.4D-1,0D0;                               61P     45
110,1.516788405346D1,2.511980645175D0,-4.4D-1,1.516788405346D1,       63P     46
2.511980645175D0,5.6D-1;                                              63P     47
110,1.560588405346D1,2.511980645175D0,-2D-3,1.570988405346D1,         65P     48
2.511980645175D0,1.02D-1;                                             65P     49
120,63,65,-6.283185307180D-2,3.204424506662D0;                        67P     50
124,-1D0,0D0,0D0,1.516788405346D1,0D0,1D0,0D0,2.511980645175D0,       69P     51
0D0,0D0,-1D0,0D0;                                                     69P     52
100,0D0,0D0,0D0,4.4D-1,0D0,-4.4D-1,0D0;                               71P     53
110,1.560788405346D1,2.511980645175D0,0D0,1.570788405346D1,           73P     54
2.511980645175D0,1D-1;                                                73P     55
124,1D0,0D0,0D0,1.516788405346D1,0D0,1D0,0D0,2.511980645175D0,        75P     56
0D0,0D0,1D0,1D-1;                                                     75P     57
100,0D0,0D0,0D0,5.4D-1,0D0,-5.4D-1,0D0;                               77P     58
102,4,71,73,77,29;                                                    79P     59
110,1.923076923077D-2,3.141592653590D0,0D0,1.923076923077D-2,         81P     60
0D0,0D0;                                                              81P     61
110,1.923076923077D-2,0D0,0D0,9.807692307692D-1,0D0,0D0;              83P     62
110,9.807692307692D-1,0D0,0D0,9.807692307692D-1,                      85P     63
3.141592653590D0,0D0;                                                 85P     64
110,9.807692307692D-1,3.141592653590D0,0D0,1.923076923077D-2,         87P     65
3.141592653590D0,0D0;                                                 87P     66
102,4,81,83,85,87;                                                    89P     67
142,0,67,89,79,1;                                                     91P     68
144,67,1,0,91;                                                        93P     69
128,1,1,1,1,0,0,1,0,0,-4.576D-1,-4.576D-1,4.576D-1,4.576D-1,          95P     70
-4.576D-1,-4.576D-1,4.576D-1,4.576D-1,1D0,1D0,1D0,1D0,                95P     71
1.471028405346D1,2.054380645175D0,0D0,1.562548405346D1,               95P     72
2.054380645175D0,0D0,1.471028405346D1,2.969580645175D0,0D0,           95P     73
1.562548405346D1,2.969580645175D0,0D0,-4.576D-1,4.576D-1,             95P     74
-4.576D-1,4.576D-1;                                                   95P     75
102,2,37,21;                                                          97P     76
126,26,3,0,0,1,0,0D0,0D0,0D0,0D0,4.166666666667D-2,                   99P     77
8.333333333333D-2,1.25D-1,1.666666666667D-1,2.083333333333D-1,        99P     78
2.5D-1,2.916666666667D-1,3.333333333333D-1,3.75D-1,                   99P     79
4.166666666667D-1,4.583333333333D-1,5D-1,5.416666666667D-1,           99P     80
5.833333333333D-1,6.25D-1,6.666666666667D-1,7.083333333333D-1,        99P     81
7.5D-1,7.916666666667D-1,8.333333333333D-1,8.75D-1,                   99P     82
9.166666666667D-1,9.583333333333D-1,1D0,1D0,1D0,1D0,1D0,1D0,1D0,      99P     83
1D0,1D0,1D0,1D0,1D0,1D0,1D0,1D0,1D0,1D0,1D0,1D0,1D0,1D0,1D0,1D0,      99P     84
1D0,1D0,1D0,1D0,1D0,1D0,1D0,1D0,-4.4D-1,0D0,0D0,                      99P     85
-4.400076658445D-1,-1.919959962060D-2,0D0,-4.374797580781D-1,         99P     86
-5.759530279491D-2,0D0,-4.262237819867D-1,-1.142061882478D-1,         99P     87
0D0,-4.076692953783D-1,-1.688622232844D-1,0D0,                        99P     88
-3.821410023298D-1,-2.206291800585D-1,0D0,-3.500737612936D-1,         99P     89
-2.686210564817D-1,0D0,-3.120167708649D-1,-3.120167665978D-1,         99P     90
0D0,-2.686210575794D-1,-3.500737794595D-1,0D0,                        99P     91
-2.206291714006D-1,-3.821409339330D-1,0D0,-1.688622568183D-1,         99P     92
-4.076695507995D-1,0D0,-1.142060627699D-1,-4.262228286989D-1,         99P     93
0D0,-5.759577117276D-2,-4.374833158080D-1,0D0,0D0,                    99P     94
-4.412583420960D-1,0D0,5.759577117276D-2,-4.374833158080D-1,0D0,      99P     95
1.142060627699D-1,-4.262228286989D-1,0D0,1.688622568183D-1,           99P     96
-4.076695507995D-1,0D0,2.206291714006D-1,-3.821409339330D-1,0D0,      99P     97
2.686210575794D-1,-3.500737794595D-1,0D0,3.120167708649D-1,           99P     98
-3.120167665978D-1,0D0,3.500737612936D-1,-2.686210564817D-1,0D0,      99P     99
3.821410023298D-1,-2.206291800585D-1,0D0,4.076692953783D-1,           99P    100
-1.688622232844D-1,0D0,4.262237819867D-1,-1.142061882478D-1,0D0,      99P    101
4.374797580781D-1,-5.759530279491D-2,0D0,4.400076658445D-1,           99P    102
-1.919959962060D-2,0D0,4.4D-1,0D0,0D0,0D0,1D0,0D0,0D0,1D0;            99P    103
126,26,3,0,0,1,0,0D0,0D0,0D0,0D0,4.166666666667D-2,                  101P    104
8.333333333333D-2,1.25D-1,1.666666666667D-1,2.083333333333D-1,       101P    105
2.5D-1,2.916666666667D-1,3.333333333333D-1,3.75D-1,                  101P    106
4.166666666667D-1,4.583333333333D-1,5D-1,5.416666666667D-1,          101P    107
5.833333333333D-1,6.25D-1,6.666666666667D-1,7.083333333333D-1,       101P    108
7.5D-1,7.916666666667D-1,8.333333333333D-1,8.75D-1,                  101P    109
9.166666666667D-1,9.583333333333D-1,1D0,1D0,1D0,1D0,1D0,1D0,1D0,     101P    110
1D0,1D0,1D0,1D0,1D0,1D0,1D0,1D0,1D0,1D0,1D0,1D0,1D0,1D0,1D0,1D0,     101P    111
1D0,1D0,1D0,1D0,1D0,1D0,1D0,1D0,4.4D-1,0D0,0D0,                      101P    112
4.400076658445D-1,1.919959962060D-2,0D0,4.374797580781D-1,           101P    113
5.759530279491D-2,0D0,4.262237819867D-1,1.142061882478D-1,0D0,       101P    114
4.076692953783D-1,1.688622232844D-1,0D0,3.821410023298D-1,           101P    115
2.206291800585D-1,0D0,3.500737612936D-1,2.686210564817D-1,0D0,       101P    116
3.120167708649D-1,3.120167665978D-1,0D0,2.686210575794D-1,           101P    117
3.500737794595D-1,0D0,2.206291714006D-1,3.821409339330D-1,0D0,       101P    118
1.688622568183D-1,4.076695507995D-1,0D0,1.142060627699D-1,           101P    119
4.262228286989D-1,0D0,5.759577117276D-2,4.374833158080D-1,0D0,       101P    120
0D0,4.412583420960D-1,0D0,-5.759577117276D-2,4.374833158080D-1,      101P    121
0D0,-1.142060627699D-1,4.262228286989D-1,0D0,-1.688622568183D-1,     101P    122
4.076695507995D-1,0D0,-2.206291714006D-1,3.821409339330D-1,0D0,      101P    123
-2.686210575794D-1,3.500737794595D-1,0D0,-3.120167708649D-1,         101P    124
3.120167665978D-1,0D0,-3.500737612936D-1,2.686210564817D-1,0D0,      101P    125
-3.821410023298D-1,2.206291800585D-1,0D0,-4.076692953783D-1,         101P    126
1.688622232844D-1,0D0,-4.262237819867D-1,1.142061882478D-1,0D0,      101P    127
-4.374797580781D-1,5.759530279491D-2,0D0,-4.400076658445D-1,         101P    128
1.919959962060D-2,0D0,-4.4D-1,0D0,0D0,0D0,1D0,0D0,0D0,1D0;           101P    129
102,2,99,101;                                                        103P    130
142,0,95,103,97,1;                                                   105P    131
144,95,1,0,105;                                                      107P    132
110,1.516788405346D1,2.511980645175D0,-4.4D-1,1.516788405346D1,      109P    133
2.511980645175D0,5.6D-1;                                             109P    134
110,1.560588405346D1,2.511980645175D0,-2D-3,1.570988405346D1,        111P    135
2.511980645175D0,1.02D-1;                                            111P    136
120,109,111,3.078760800518D0,6.346017160251D0;                       113P    137
110,1.472788405346D1,2.511980645175D0,0D0,1.462788405346D1,          115P    138
2.511980645175D0,1D-1;                                               115P    139
124,-1D0,0D0,0D0,1.516788405346D1,0D0,-1D0,0D0,2.511980645175D0,     117P    140
0D0,0D0,1D0,1D-1;                                                    117P    141
100,0D0,0D0,0D0,5.4D-1,0D0,-5.4D-1,0D0;                              119P    142
124,1D0,0D0,0D0,1.516788405346D1,0D0,-1D0,0D0,2.511980645175D0,      121P    143
0D0,0D0,-1D0,0D0;                                                    121P    144
100,0D0,0D0,0D0,4.4D-1,0D0,-4.4D-1,0D0;                              123P    145
102,4,115,119,23,123;                                                125P    146
110,1.923076923077D-2,3.141592653590D0,0D0,9.807692307692D-1,        127P    147
3.141592653590D0,0D0;                                                127P    148
110,9.807692307692D-1,3.141592653590D0,0D0,9.807692307692D-1,        129P    149
6.283185307180D0,0D0;                                                129P    150
110,9.807692307692D-1,6.283185307180D0,0D0,1.923076923077D-2,        131P    151
6.283185307180D0,0D0;                                                131P    152
110,1.923076923077D-2,6.283185307180D0,0D0,1.923076923077D-2,        133P    153
3.141592653590D0,0D0;                                                133P    154
102,4,127,129,131,133;                                               135P    155
142,0,113,135,125,1;                                                 137P    156
144,113,1,0,137;                                                     139P    157
110,1.516788405346D1,2.511980645175D0,3D-1,1.516788405346D1,         141P    158
2.511980645175D0,-7D-1;                                              141P    159
110,1.462788405346D1,2.511980645175D0,2.02D-1,1.462788405346D1,      143P    160
2.511980645175D0,9.8D-2;                                             143P    161
120,141,143,3.078760800518D0,6.346017160251D0;                       145P    162
110,1.570788405346D1,2.511980645175D0,2D-1,1.570788405346D1,         147P    163
2.511980645175D0,1D-1;                                               147P    164
102,4,147,33,41,57;                                                  149P    165
110,1.923076923078D-2,3.141592653590D0,0D0,9.807692307692D-1,        151P    166
3.141592653590D0,0D0;                                                151P    167
110,9.807692307692D-1,3.141592653590D0,0D0,9.807692307692D-1,        153P    168
6.283185307180D0,0D0;                                                153P    169
110,9.807692307692D-1,6.283185307180D0,0D0,1.923076923078D-2,        155P    170
6.283185307180D0,0D0;                                                155P    171
110,1.923076923078D-2,6.283185307180D0,0D0,1.923076923078D-2,        157P    172
3.141592653590D0,0D0;                                                157P    173
102,4,151,153,155,157;                                               159P    174
142,0,145,159,149,1;                                                 161P    175
144,145,1,0,161;                                                     163P    176
110,1.516788405346D1,2.511980645175D0,3D-1,1.516788405346D1,         165P    177
2.511980645175D0,-7D-1;                                              165P    178
110,1.462788405346D1,2.511980645175D0,2.02D-1,1.462788405346D1,      167P    179
2.511980645175D0,9.8D-2;                                             167P    180
120,165,167,-6.283185307180D-2,3.204424506662D0;                     169P    181
110,1.462788405346D1,2.511980645175D0,2D-1,1.462788405346D1,         171P    182
2.511980645175D0,1D-1;                                               171P    183
102,4,51,171,27,39;                                                  173P    184
110,1.923076923078D-2,3.141592653590D0,0D0,1.923076923078D-2,        175P    185
0D0,0D0;                                                             175P    186
110,1.923076923078D-2,0D0,0D0,9.807692307692D-1,0D0,0D0;             177P    187
110,9.807692307692D-1,0D0,0D0,9.807692307692D-1,                     179P    188
3.141592653590D0,0D0;                                                179P    189
110,9.807692307692D-1,3.141592653590D0,0D0,1.923076923078D-2,        181P    190
3.141592653590D0,0D0;                                                181P    191
102,4,175,177,179,181;                                               183P    192
142,0,169,183,173,1;                                                 185P    193
144,169,1,0,185;                                                     187P    194
110,1.516788405346D1,2.511980645175D0,7.4D-1,1.516788405346D1,       189P    195
2.511980645175D0,-2.6D-1;                                            189P    196
110,1.472988405346D1,2.511980645175D0,3.02D-1,1.462588405346D1,      191P    197
2.511980645175D0,1.98D-1;                                            191P    198
120,189,191,-6.283185307180D-2,3.204424506662D0;                     193P    199
110,1.472788405346D1,2.511980645175D0,3D-1,1.462788405346D1,         195P    200
2.511980645175D0,2D-1;                                               195P    201
124,-1D0,0D0,0D0,1.516788405346D1,0D0,1D0,0D0,2.511980645175D0,      197P    202
0D0,0D0,-1D0,2D-1;                                                   197P    203
100,0D0,0D0,0D0,5.4D-1,0D0,-5.4D-1,0D0;                              199P    204
102,4,45,195,199,53;                                                 201P    205
110,1.923076923077D-2,3.141592653590D0,0D0,1.923076923077D-2,        203P    206
0D0,0D0;                                                             203P    207
110,1.923076923077D-2,0D0,0D0,9.807692307692D-1,0D0,0D0;             205P    208
110,9.807692307692D-1,0D0,0D0,9.807692307692D-1,                     207P    209
3.141592653590D0,0D0;                                                207P    210
110,9.807692307692D-1,3.141592653590D0,0D0,1.923076923077D-2,        209P    211
3.141592653590D0,0D0;                                                209P    212
102,4,203,205,207,209;                                               211P    213
142,0,193,211,201,1;                                                 213P    214
144,193,1,0,213;                                                     215P    215
128,1,1,1,1,0,0,1,0,0,-4.576D-1,-4.576D-1,4.576D-1,4.576D-1,         217P    216
-4.576D-1,-4.576D-1,4.576D-1,4.576D-1,1D0,1D0,1D0,1D0,               217P    217
1.471028405346D1,2.054380645175D0,3D-1,1.562548405346D1,             217P    218
2.054380645175D0,3D-1,1.471028405346D1,2.969580645175D0,3D-1,        217P    219
1.562548405346D1,2.969580645175D0,3D-1,-4.576D-1,4.576D-1,           217P    220
-4.576D-1,4.576D-1;                                                  217P    221
102,2,61,45;                                                         219P    222
126,26,3,0,0,1,0,0D0,0D0,0D0,0D0,4.166666666667D-2,                  221P    223
8.333333333333D-2,1.25D-1,1.666666666667D-1,2.083333333333D-1,       221P    224
2.5D-1,2.916666666667D-1,3.333333333333D-1,3.75D-1,                  221P    225
4.166666666667D-1,4.583333333333D-1,5D-1,5.416666666667D-1,          221P    226
5.833333333333D-1,6.25D-1,6.666666666667D-1,7.083333333333D-1,       221P    227
7.5D-1,7.916666666667D-1,8.333333333333D-1,8.75D-1,                  221P    228
9.166666666667D-1,9.583333333333D-1,1D0,1D0,1D0,1D0,1D0,1D0,1D0,     221P    229
1D0,1D0,1D0,1D0,1D0,1D0,1D0,1D0,1D0,1D0,1D0,1D0,1D0,1D0,1D0,1D0,     221P    230
1D0,1D0,1D0,1D0,1D0,1D0,1D0,1D0,-4.4D-1,0D0,0D0,                     221P    231
-4.400076658445D-1,-1.919959962060D-2,0D0,-4.374797580781D-1,        221P    232
-5.759530279491D-2,0D0,-4.262237819867D-1,-1.142061882478D-1,        221P    233
0D0,-4.076692953783D-1,-1.688622232844D-1,0D0,                       221P    234
-3.821410023298D-1,-2.206291800585D-1,0D0,-3.500737612936D-1,        221P    235
-2.686210564817D-1,0D0,-3.120167708649D-1,-3.120167665978D-1,        221P    236
0D0,-2.686210575794D-1,-3.500737794595D-1,0D0,                       221P    237
-2.206291714006D-1,-3.821409339330D-1,0D0,-1.688622568183D-1,        221P    238
-4.076695507995D-1,0D0,-1.142060627699D-1,-4.262228286989D-1,        221P    239
0D0,-5.759577117276D-2,-4.374833158080D-1,0D0,0D0,                   221P    240
-4.412583420960D-1,0D0,5.759577117276D-2,-4.374833158080D-1,0D0,     221P    241
1.142060627699D-1,-4.262228286989D-1,0D0,1.688622568183D-1,          221P    242
-4.076695507995D-1,0D0,2.206291714006D-1,-3.821409339330D-1,0D0,     221P    243
2.686210575794D-1,-3.500737794595D-1,0D0,3.120167708649D-1,          221P    244
-3.120167665978D-1,0D0,3.500737612936D-1,-2.686210564817D-1,0D0,     221P    245
3.821410023298D-1,-2.206291800585D-1,0D0,4.076692953783D-1,          221P    246
-1.688622232844D-1,0D0,4.262237819867D-1,-1.142061882478D-1,0D0,     221P    247
4.374797580781D-1,-5.759530279491D-2,0D0,4.400076658445D-1,          221P    248
-1.919959962060D-2,0D0,4.4D-1,0D0,0D0,0D0,1D0,0D0,0D0,1D0;           221P    249
126,26,3,0,0,1,0,0D0,0D0,0D0,0D0,4.166666666667D-2,                  223P    250
8.333333333333D-2,1.25D-1,1.666666666667D-1,2.083333333333D-1,       223P    251
2.5D-1,2.916666666667D-1,3.333333333333D-1,3.75D-1,                  223P    252
4.166666666667D-1,4.583333333333D-1,5D-1,5.416666666667D-1,          223P    253
5.833333333333D-1,6.25D-1,6.666666666667D-1,7.083333333333D-1,       223P    254
7.5D-1,7.916666666667D-1,8.333333333333D-1,8.75D-1,                  223P    255
9.166666666667D-1,9.583333333333D-1,1D0,1D0,1D0,1D0,1D0,1D0,1D0,     223P    256
1D0,1D0,1D0,1D0,1D0,1D0,1D0,1D0,1D0,1D0,1D0,1D0,1D0,1D0,1D0,1D0,     223P    257
1D0,1D0,1D0,1D0,1D0,1D0,1D0,1D0,4.4D-1,0D0,0D0,                      223P    258
4.400076658445D-1,1.919959962060D-2,0D0,4.374797580781D-1,           223P    259
5.759530279491D-2,0D0,4.262237819867D-1,1.142061882478D-1,0D0,       223P    260
4.076692953783D-1,1.688622232844D-1,0D0,3.821410023298D-1,           223P    261
2.206291800585D-1,0D0,3.500737612936D-1,2.686210564817D-1,0D0,       223P    262
3.120167708649D-1,3.120167665978D-1,0D0,2.686210575794D-1,           223P    263
3.500737794595D-1,0D0,2.206291714006D-1,3.821409339330D-1,0D0,       223P    264
1.688622568183D-1,4.076695507995D-1,0D0,1.142060627699D-1,           223P    265
4.262228286989D-1,0D0,5.759577117276D-2,4.374833158080D-1,0D0,       223P    266
0D0,4.412583420960D-1,0D0,-5.759577117276D-2,4.374833158080D-1,      223P    267
0D0,-1.142060627699D-1,4.262228286989D-1,0D0,-1.688622568183D-1,     223P    268
4.076695507995D-1,0D0,-2.206291714006D-1,3.821409339330D-1,0D0,      223P    269
-2.686210575794D-1,3.500737794595D-1,0D0,-3.120167708649D-1,         223P    270
3.120167665978D-1,0D0,-3.500737612936D-1,2.686210564817D-1,0D0,      223P    271
-3.821410023298D-1,2.206291800585D-1,0D0,-4.076692953783D-1,         223P    272
1.688622232844D-1,0D0,-4.262237819867D-1,1.142061882478D-1,0D0,      223P    273
-4.374797580781D-1,5.759530279491D-2,0D0,-4.400076658445D-1,         223P    274
1.919959962060D-2,0D0,-4.4D-1,0D0,0D0,0D0,1D0,0D0,0D0,1D0;           223P    275
102,2,221,223;                                                       225P    276
142,0,217,225,219,1;                                                 227P    277
144,217,1,0,227;                                                     229P    278
110,1.516788405346D1,2.511980645175D0,7.4D-1,1.516788405346D1,       231P    279
2.511980645175D0,-2.6D-1;                                            231P    280
110,1.472988405346D1,2.511980645175D0,3.02D-1,1.462588405346D1,      233P    281
2.511980645175D0,1.98D-1;                                            233P    282
120,231,233,3.078760800518D0,6.346017160251D0;                       235P    283
110,1.560788405346D1,2.511980645175D0,3D-1,1.570788405346D1,         237P    284
2.511980645175D0,2D-1;                                               237P    285
124,1D0,0D0,0D0,1.516788405346D1,0D0,-1D0,0D0,2.511980645175D0,      239P    286
0D0,0D0,-1D0,2D-1;                                                   239P    287
100,0D0,0D0,0D0,5.4D-1,0D0,-5.4D-1,0D0;                              241P    288
102,4,237,241,47,61;                                                 243P    289
110,1.923076923077D-2,3.141592653590D0,0D0,9.807692307692D-1,        245P    290
3.141592653590D0,0D0;                                                245P    291
110,9.807692307692D-1,3.141592653590D0,0D0,9.807692307692D-1,        247P    292
6.283185307180D0,0D0;                                                247P    293
110,9.807692307692D-1,6.283185307180D0,0D0,1.923076923077D-2,        249P    294
6.283185307180D0,0D0;                                                249P    295
110,1.923076923077D-2,6.283185307180D0,0D0,1.923076923077D-2,        251P    296
3.141592653590D0,0D0;                                                251P    297
102,4,245,247,249,251;                                               253P    298
142,0,235,253,243,1;                                                 255P    299
144,235,1,0,255;                                                     257P    300
S      1G      4D    258P    300                                        T      1
