 PTC IGES file: pin__w___any_prt.igs                                    S      1
1H,,1H;,16HPIN__W___ANY_PRT,20Hpin__w___any_prt.igs,                    G      1
49HPro/ENGINEER by Parametric Technology Corporation,7H2006170,32,38,7, G      2
38,15,16HPIN__W___ANY_PRT,1.,2,2HMM,32768,0.5,15H20080630.105207,       G      3
0.000302973,3.02985,3HGRA,7HUnknown,10,0,15H20080630.105207;            G      4
     314       1       1       1       0       0       0       001000200D      1
     314       0       4       1       0                   COLOR       1D      2
     314       2       1       1       0       0       0       001000200D      3
     314       0       1       1       0                   COLOR       2D      4
     314       3       1       1       0       0       0       001000200D      5
     314       0       1       1       0                   COLOR       3D      6
     314       4       1       1       0       0       0       001000200D      7
     314       0       1       1       0                   COLOR       4D      8
     314       5       1       1       0       0       0       001000200D      9
     314       0       5       1       0                   COLOR       5D     10
     314       6       1       1       0       0       0       001000200D     11
     314       0       8       1       0                   COLOR       6D     12
     314       7       1       1       0       0       0       001000200D     13
     314       0       8       1       0                   COLOR       7D     14
     314       8       1       1       0       0       0       001000200D     15
     314       0       5       1       0                   COLOR       8D     16
     314       9       1       1       0       0       0       001000200D     17
     314       0       8       1       0                   COLOR       9D     18
     110      10       1       1       0       0       0       001010000D     19
     110       0      -9       2       0                    LINE       1D     20
     124      12       1       1       0       0       0       001000000D     21
     124       0       0       2       0                   XFORM       1D     22
     100      14       1       1       0       0      21       001010000D     23
     100       0      -9       1       0                     ARC       1D     24
     124      15       1       1       0       0       0       001000000D     25
     124       0       0       2       0                   XFORM       2D     26
     100      17       1       1       0       0      25       001010000D     27
     100       0      -9       1       0                     ARC       2D     28
     124      18       1       1       0       0       0       001000000D     29
     124       0       0       2       0                   XFORM       3D     30
     100      20       1       1       0       0      29       001010000D     31
     100       0      -9       1       0                     ARC       3D     32
     110      21       1       1       0       0       0       001010000D     33
     110       0      -9       2       0                    LINE       2D     34
     124      23       1       1       0       0       0       001000000D     35
     124       0       0       2       0                   XFORM       4D     36
     100      25       1       1       0       0      35       001010000D     37
     100       0      -9       1       0                     ARC       4D     38
     110      26       1       1       0       0       0       001010000D     39
     110       0      -9       2       0                    LINE       3D     40
     124      28       1       1       0       0       0       001000000D     41
     124       0       0       2       0                   XFORM       5D     42
     100      30       1       1       0       0      41       001010000D     43
     100       0      -9       1       0                     ARC       5D     44
     110      31       1       1       0       0       0       001010000D     45
     110       0      -9       2       0                    LINE       4D     46
     124      33       1       1       0       0       0       001000000D     47
     124       0       0       2       0                   XFORM       6D     48
     100      35       1       1       0       0      47       001010000D     49
     100       0      -9       1       0                     ARC       6D     50
     124      36       1       1       0       0       0       001000000D     51
     124       0       0       2       0                   XFORM       7D     52
     100      38       1       1       0       0      51       001010000D     53
     100       0      -9       1       0                     ARC       7D     54
     124      39       1       1       0       0       0       001000000D     55
     124       0       0       2       0                   XFORM       8D     56
     100      41       1       1       0       0      55       001010000D     57
     100       0      -9       1       0                     ARC       8D     58
     110      42       1       1       0       0       0       001010000D     59
     110       0      -9       2       0                    LINE       5D     60
     110      44       1       1       0       0       0       001010000D     61
     110       0      -9       2       0                    LINE       6D     62
     124      46       1       1       0       0       0       001000000D     63
     124       0       0       2       0                   XFORM       9D     64
     100      48       1       1       0       0      63       001010000D     65
     100       0      -9       2       0                     ARC       9D     66
     124      50       1       1       0       0       0       001000000D     67
     124       0       0       2       0                   XFORM      10D     68
     100      52       1       1       0       0      67       001010000D     69
     100       0      -9       1       0                     ARC      10D     70
     124      53       1       1       0       0       0       001000000D     71
     124       0       0       2       0                   XFORM      11D     72
     100      55       1       1       0       0      71       001010000D     73
     100       0      -9       1       0                     ARC      11D     74
     124      56       1       1       0       0       0       001000000D     75
     124       0       0       2       0                   XFORM      12D     76
     100      58       1       1       0       0      75       001010000D     77
     100       0      -9       1       0                     ARC      12D     78
     124      59       1       1       0       0       0       001000000D     79
     124       0       0       2       0                   XFORM      13D     80
     100      61       1       1       0       0      79       001010000D     81
     100       0      -9       2       0                     ARC      13D     82
     124      63       1       1       0       0       0       001000000D     83
     124       0       0       2       0                   XFORM      14D     84
     100      65       1       1       0       0      83       001010000D     85
     100       0      -9       1       0                     ARC      14D     86
     110      66       1       1       0       0       0       001010000D     87
     110       0      -9       2       0                    LINE       7D     88
     124      68       1       1       0       0       0       001000000D     89
     124       0       0       2       0                   XFORM      15D     90
     100      70       1       1       0       0      89       001010000D     91
     100       0      -9       1       0                     ARC      15D     92
     110      71       1       1       0       0       0       001010000D     93
     110       0      -9       2       0                    LINE       8D     94
     124      73       1       1       0       0       0       001000000D     95
     124       0       0       2       0                   XFORM      16D     96
     100      75       1       1       0       0      95       001010000D     97
     100       0      -9       1       0                     ARC      16D     98
     124      76       1       1       0       0       0       001000000D     99
     124       0       0       2       0                   XFORM      17D    100
     100      78       1       1       0       0      99       001010000D    101
     100       0      -9       1       0                     ARC      17D    102
     124      79       1       1       0       0       0       001000000D    103
     124       0       0       2       0                   XFORM      18D    104
     100      81       1       1       0       0     103       001010000D    105
     100       0      -9       1       0                     ARC      18D    106
     110      82       1       1       0       0       0       001010000D    107
     110       0      -9       2       0                    LINE       9D    108
     124      84       1       1       0       0       0       001000000D    109
     124       0       0       2       0                   XFORM      19D    110
     100      86       1       1       0       0     109       001010000D    111
     100       0      -9       1       0                     ARC      19D    112
     110      87       1       1       0       0       0       001010000D    113
     110       0      -9       2       0                    LINE      10D    114
     124      89       1       1       0       0       0       001000000D    115
     124       0       0       2       0                   XFORM      20D    116
     100      91       1       1       0       0     115       001010000D    117
     100       0      -9       1       0                     ARC      20D    118
     110      92       1       1       0       0       0       001010000D    119
     110       0      -9       2       0                    LINE      11D    120
     110      94       1       1       0       0       0       001010000D    121
     110       0      -9       2       0                    LINE      12D    122
     120      96       1       1       0       0       0       001010000D    123
     120       0      -9       1       0                    SREV       1D    124
     110      97       1       1       0       0       0       001010000D    125
     110       0       0       2       0                    LINE      13D    126
     124      99       1       1       0       0       0       001000000D    127
     124       0       0       2       0                   XFORM      21D    128
     100     101       1       1       0       0     127       001010000D    129
     100       0       0       1       0                     ARC      21D    130
     102     102       1       1       0       0       0       001010000D    131
     102       0       0       1       0                  CCURVE       1D    132
     110     103       1       1       0       0       0       001010500D    133
     110       0      -9       2       0                    LINE      14D    134
     110     105       1       1       0       0       0       001010500D    135
     110       0      -9       1       0                    LINE      15D    136
     110     106       1       1       0       0       0       001010500D    137
     110       0      -9       2       0                    LINE      16D    138
     110     108       1       1       0       0       0       001010500D    139
     110       0      -9       2       0                    LINE      17D    140
     102     110       1       1       0       0       0       001010500D    141
     102       0       0       1       0                  CCURVE       2D    142
     142     111       1       1       0       0       0       001010500D    143
     142       0       0       1       0                  UV_BND       1D    144
     144     112       1       1       0       0       0       000000000D    145
     144       0      -9       1       0                 TRM_SRF       1D    146
     128     113       1       1       0       0       0       001010000D    147
     128       0      -9       7       0                  SPLSRF       1D    148
     102     120       1       1       0       0       0       001010000D    149
     102       0       0       1       0                  CCURVE       3D    150
     126     121       1       1       0       0       0       001010500D    151
     126       0      -9      23       0                B_SPLINE       1D    152
     126     144       1       1       0       0       0       001010500D    153
     126       0      -9      23       0                B_SPLINE       2D    154
     102     167       1       1       0       0       0       001010500D    155
     102       0       0       1       0                  CCURVE       4D    156
     142     168       1       1       0       0       0       001010500D    157
     142       0       0       1       0                  UV_BND       2D    158
     102     169       1       1       0       0       0       001010000D    159
     102       0       0       1       0                  CCURVE       5D    160
     126     170       1       1       0       0       0       001010500D    161
     126       0      -9      16       0                B_SPLINE       3D    162
     126     186       1       1       0       0       0       001010500D    163
     126       0      -9      16       0                B_SPLINE       4D    164
     102     202       1       1       0       0       0       001010500D    165
     102       0       0       1       0                  CCURVE       6D    166
     142     203       1       1       0       0       0       001010500D    167
     142       0       0       1       0                  UV_BND       3D    168
     144     204       1       1       0       0       0       000000000D    169
     144       0      -9       1       0                 TRM_SRF       2D    170
     110     205       1       1       0       0       0       001010000D    171
     110       0      -9       2       0                    LINE      18D    172
     110     207       1       1       0       0       0       001010000D    173
     110       0      -9       2       0                    LINE      19D    174
     120     209       1       1       0       0       0       001010000D    175
     120       0      -9       1       0                    SREV       2D    176
     110     210       1       1       0       0       0       001010000D    177
     110       0       0       2       0                    LINE      20D    178
     124     212       1       1       0       0       0       001000000D    179
     124       0       0       2       0                   XFORM      22D    180
     100     214       1       1       0       0     179       001010000D    181
     100       0       0       1       0                     ARC      22D    182
     102     215       1       1       0       0       0       001010000D    183
     102       0       0       1       0                  CCURVE       7D    184
     110     216       1       1       0       0       0       001010500D    185
     110       0      -9       2       0                    LINE      21D    186
     110     218       1       1       0       0       0       001010500D    187
     110       0      -9       2       0                    LINE      22D    188
     110     220       1       1       0       0       0       001010500D    189
     110       0      -9       2       0                    LINE      23D    190
     110     222       1       1       0       0       0       001010500D    191
     110       0      -9       2       0                    LINE      24D    192
     102     224       1       1       0       0       0       001010500D    193
     102       0       0       1       0                  CCURVE       8D    194
     142     225       1       1       0       0       0       001010500D    195
     142       0       0       1       0                  UV_BND       4D    196
     144     226       1       1       0       0       0       000000000D    197
     144       0      -9       1       0                 TRM_SRF       3D    198
     110     227       1       1       0       0       0       001010000D    199
     110       0      -9       2       0                    LINE      25D    200
     110     229       1       1       0       0       0       001010000D    201
     110       0      -9       2       0                    LINE      26D    202
     120     231       1       1       0       0       0       001010000D    203
     120       0      -9       1       0                    SREV       3D    204
     110     232       1       1       0       0       0       001010000D    205
     110       0       0       2       0                    LINE      27D    206
     102     234       1       1       0       0       0       001010000D    207
     102       0       0       1       0                  CCURVE       9D    208
     110     235       1       1       0       0       0       001010500D    209
     110       0      -9       2       0                    LINE      28D    210
     110     237       1       1       0       0       0       001010500D    211
     110       0      -9       2       0                    LINE      29D    212
     110     239       1       1       0       0       0       001010500D    213
     110       0      -9       2       0                    LINE      30D    214
     110     241       1       1       0       0       0       001010500D    215
     110       0      -9       2       0                    LINE      31D    216
     102     243       1       1       0       0       0       001010500D    217
     102       0       0       1       0                  CCURVE      10D    218
     142     244       1       1       0       0       0       001010500D    219
     142       0       0       1       0                  UV_BND       5D    220
     144     245       1       1       0       0       0       000000000D    221
     144       0      -9       1       0                 TRM_SRF       4D    222
     110     246       1       1       0       0       0       001010000D    223
     110       0      -9       2       0                    LINE      32D    224
     110     248       1       1       0       0       0       001010000D    225
     110       0      -9       2       0                    LINE      33D    226
     120     250       1       1       0       0       0       001010000D    227
     120       0      -9       1       0                    SREV       4D    228
     110     251       1       1       0       0       0       001010000D    229
     110       0       0       2       0                    LINE      34D    230
     102     253       1       1       0       0       0       001010000D    231
     102       0       0       1       0                  CCURVE      11D    232
     110     254       1       1       0       0       0       001010500D    233
     110       0      -9       2       0                    LINE      35D    234
     110     256       1       1       0       0       0       001010500D    235
     110       0      -9       1       0                    LINE      36D    236
     110     257       1       1       0       0       0       001010500D    237
     110       0      -9       2       0                    LINE      37D    238
     110     259       1       1       0       0       0       001010500D    239
     110       0      -9       2       0                    LINE      38D    240
     102     261       1       1       0       0       0       001010500D    241
     102       0       0       1       0                  CCURVE      12D    242
     142     262       1       1       0       0       0       001010500D    243
     142       0       0       1       0                  UV_BND       6D    244
     144     263       1       1       0       0       0       000000000D    245
     144       0      -9       1       0                 TRM_SRF       5D    246
     128     264       1       1       0       0       0       001010000D    247
     128       0      -9       8       0                  SPLSRF       2D    248
     102     272       1       1       0       0       0       001010000D    249
     102       0       0       1       0                  CCURVE      13D    250
     126     273       1       1       0       0       0       001010500D    251
     126       0      -9      20       0                B_SPLINE       5D    252
     126     293       1       1       0       0       0       001010500D    253
     126       0      -9      20       0                B_SPLINE       6D    254
     102     313       1       1       0       0       0       001010500D    255
     102       0       0       1       0                  CCURVE      14D    256
     142     314       1       1       0       0       0       001010500D    257
     142       0       0       1       0                  UV_BND       7D    258
     102     315       1       1       0       0       0       001010000D    259
     102       0       0       1       0                  CCURVE      15D    260
     126     316       1       1       0       0       0       001010500D    261
     126       0      -9      23       0                B_SPLINE       7D    262
     126     339       1       1       0       0       0       001010500D    263
     126       0      -9      23       0                B_SPLINE       8D    264
     102     362       1       1       0       0       0       001010500D    265
     102       0       0       1       0                  CCURVE      16D    266
     142     363       1       1       0       0       0       001010500D    267
     142       0       0       1       0                  UV_BND       8D    268
     144     364       1       1       0       0       0       000000000D    269
     144       0      -9       1       0                 TRM_SRF       6D    270
     110     365       1       1       0       0       0       001010000D    271
     110       0      -9       2       0                    LINE      39D    272
     110     367       1       1       0       0       0       001010000D    273
     110       0      -9       2       0                    LINE      40D    274
     120     369       1       1       0       0       0       001010000D    275
     120       0      -9       1       0                    SREV       5D    276
     110     370       1       1       0       0       0       001010000D    277
     110       0       0       2       0                    LINE      41D    278
     102     372       1       1       0       0       0       001010000D    279
     102       0       0       1       0                  CCURVE      17D    280
     110     373       1       1       0       0       0       001010500D    281
     110       0      -9       2       0                    LINE      42D    282
     110     375       1       1       0       0       0       001010500D    283
     110       0      -9       2       0                    LINE      43D    284
     110     377       1       1       0       0       0       001010500D    285
     110       0      -9       2       0                    LINE      44D    286
     110     379       1       1       0       0       0       001010500D    287
     110       0      -9       2       0                    LINE      45D    288
     110     381       1       1       0       0       0       001010500D    289
     110       0      -9       2       0                    LINE      46D    290
     102     383       1       1       0       0       0       001010500D    291
     102       0       0       1       0                  CCURVE      18D    292
     142     384       1       1       0       0       0       001010500D    293
     142       0       0       1       0                  UV_BND       9D    294
     144     385       1       1       0       0       0       000000000D    295
     144       0      -9       1       0                 TRM_SRF       7D    296
     110     386       1       1       0       0       0       001010000D    297
     110       0      -9       2       0                    LINE      47D    298
     110     388       1       1       0       0       0       001010000D    299
     110       0      -9       2       0                    LINE      48D    300
     120     390       1       1       0       0       0       001010000D    301
     120       0      -9       1       0                    SREV       6D    302
     110     391       1       1       0       0       0       001010000D    303
     110       0       0       2       0                    LINE      49D    304
     102     393       1       1       0       0       0       001010000D    305
     102       0       0       1       0                  CCURVE      19D    306
     110     394       1       1       0       0       0       001010500D    307
     110       0      -9       2       0                    LINE      50D    308
     110     396       1       1       0       0       0       001010500D    309
     110       0      -9       2       0                    LINE      51D    310
     110     398       1       1       0       0       0       001010500D    311
     110       0      -9       1       0                    LINE      52D    312
     110     399       1       1       0       0       0       001010500D    313
     110       0      -9       2       0                    LINE      53D    314
     110     401       1       1       0       0       0       001010500D    315
     110       0      -9       2       0                    LINE      54D    316
     102     403       1       1       0       0       0       001010500D    317
     102       0       0       1       0                  CCURVE      20D    318
     142     404       1       1       0       0       0       001010500D    319
     142       0       0       1       0                  UV_BND      10D    320
     144     405       1       1       0       0       0       000000000D    321
     144       0      -9       1       0                 TRM_SRF       8D    322
     110     406       1       1       0       0       0       001010000D    323
     110       0      -9       2       0                    LINE      55D    324
     124     408       1       1       0       0       0       001000000D    325
     124       0       0       3       0                   XFORM      23D    326
     100     411       1       1       0       0     325       001010000D    327
     100       0      -9       2       0                     ARC      23D    328
     120     413       1       1       0       0       0       001010000D    329
     120       0      -9       1       0                    SREV       7D    330
     124     414       1       1       0       0       0       001000000D    331
     124       0       0       3       0                   XFORM      24D    332
     100     417       1       1       0       0     331       001010000D    333
     100       0       0       2       0                     ARC      24D    334
     124     419       1       1       0       0       0       001000000D    335
     124       0       0       2       0                   XFORM      25D    336
     100     421       1       1       0       0     335       001010000D    337
     100       0       0       1       0                     ARC      25D    338
     124     422       1       1       0       0       0       001000000D    339
     124       0       0       2       0                   XFORM      26D    340
     100     424       1       1       0       0     339       001010000D    341
     100       0       0       1       0                     ARC      26D    342
     102     425       1       1       0       0       0       001010000D    343
     102       0       0       1       0                  CCURVE      21D    344
     110     426       1       1       0       0       0       001010500D    345
     110       0      -9       2       0                    LINE      56D    346
     110     428       1       1       0       0       0       001010500D    347
     110       0      -9       2       0                    LINE      57D    348
     126     430       1       1       0       0       0       001010500D    349
     126       0      -9      16       0                B_SPLINE       9D    350
     126     446       1       1       0       0       0       001010500D    351
     126       0      -9      17       0                B_SPLINE      10D    352
     102     463       1       1       0       0       0       001010500D    353
     102       0       0       1       0                  CCURVE      22D    354
     142     464       1       1       0       0       0       001010500D    355
     142       0       0       1       0                  UV_BND      11D    356
     144     465       1       1       0       0       0       000000000D    357
     144       0      -9       1       0                 TRM_SRF       9D    358
     110     466       1       1       0       0       0       001010000D    359
     110       0      -9       2       0                    LINE      58D    360
     124     468       1       1       0       0       0       001000000D    361
     124       0       0       3       0                   XFORM      27D    362
     100     471       1       1       0       0     361       001010000D    363
     100       0      -9       2       0                     ARC      27D    364
     120     473       1       1       0       0       0       001010000D    365
     120       0      -9       1       0                    SREV       8D    366
     124     474       1       1       0       0       0       001000000D    367
     124       0       0       2       0                   XFORM      28D    368
     100     476       1       1       0       0     367       001010000D    369
     100       0       0       1       0                     ARC      28D    370
     124     477       1       1       0       0       0       001000000D    371
     124       0       0       3       0                   XFORM      29D    372
     100     480       1       1       0       0     371       001010000D    373
     100       0       0       2       0                     ARC      29D    374
     124     482       1       1       0       0       0       001000000D    375
     124       0       0       2       0                   XFORM      30D    376
     100     484       1       1       0       0     375       001010000D    377
     100       0       0       1       0                     ARC      30D    378
     102     485       1       1       0       0       0       001010000D    379
     102       0       0       1       0                  CCURVE      23D    380
     126     486       1       1       0       0       0       001010500D    381
     126       0      -9      17       0                B_SPLINE      11D    382
     110     503       1       1       0       0       0       001010500D    383
     110       0      -9       2       0                    LINE      59D    384
     110     505       1       1       0       0       0       001010500D    385
     110       0      -9       2       0                    LINE      60D    386
     126     507       1       1       0       0       0       001010500D    387
     126       0      -9      16       0                B_SPLINE      12D    388
     102     523       1       1       0       0       0       001010500D    389
     102       0       0       1       0                  CCURVE      24D    390
     142     524       1       1       0       0       0       001010500D    391
     142       0       0       1       0                  UV_BND      12D    392
     144     525       1       1       0       0       0       000000000D    393
     144       0      -9       1       0                 TRM_SRF      10D    394
     110     526       1       1       0       0       0       001010000D    395
     110       0      -9       2       0                    LINE      61D    396
     110     528       1       1       0       0       0       001010000D    397
     110       0      -9       2       0                    LINE      62D    398
     120     530       1       1       0       0       0       001010000D    399
     120       0      -9       1       0                    SREV       9D    400
     110     531       1       1       0       0       0       001010000D    401
     110       0       0       2       0                    LINE      63D    402
     102     533       1       1       0       0       0       001010000D    403
     102       0       0       1       0                  CCURVE      25D    404
     110     534       1       1       0       0       0       001010500D    405
     110       0      -9       2       0                    LINE      64D    406
     110     536       1       1       0       0       0       001010500D    407
     110       0      -9       1       0                    LINE      65D    408
     110     537       1       1       0       0       0       001010500D    409
     110       0      -9       2       0                    LINE      66D    410
     110     539       1       1       0       0       0       001010500D    411
     110       0      -9       2       0                    LINE      67D    412
     102     541       1       1       0       0       0       001010500D    413
     102       0       0       1       0                  CCURVE      26D    414
     142     542       1       1       0       0       0       001010500D    415
     142       0       0       1       0                  UV_BND      13D    416
     144     543       1       1       0       0       0       000000000D    417
     144       0      -9       1       0                 TRM_SRF      11D    418
     110     544       1       1       0       0       0       001010000D    419
     110       0      -9       2       0                    LINE      68D    420
     110     546       1       1       0       0       0       001010000D    421
     110       0      -9       2       0                    LINE      69D    422
     120     548       1       1       0       0       0       001010000D    423
     120       0      -9       1       0                    SREV      10D    424
     110     549       1       1       0       0       0       001010000D    425
     110       0       0       2       0                    LINE      70D    426
     124     551       1       1       0       0       0       001000000D    427
     124       0       0       2       0                   XFORM      31D    428
     100     553       1       1       0       0     427       001010000D    429
     100       0       0       1       0                     ARC      31D    430
     102     554       1       1       0       0       0       001010000D    431
     102       0       0       1       0                  CCURVE      27D    432
     110     555       1       1       0       0       0       001010500D    433
     110       0      -9       2       0                    LINE      71D    434
     110     557       1       1       0       0       0       001010500D    435
     110       0      -9       1       0                    LINE      72D    436
     110     558       1       1       0       0       0       001010500D    437
     110       0      -9       2       0                    LINE      73D    438
     110     560       1       1       0       0       0       001010500D    439
     110       0      -9       2       0                    LINE      74D    440
     102     562       1       1       0       0       0       001010500D    441
     102       0       0       1       0                  CCURVE      28D    442
     142     563       1       1       0       0       0       001010500D    443
     142       0       0       1       0                  UV_BND      14D    444
     144     564       1       1       0       0       0       000000000D    445
     144       0      -9       1       0                 TRM_SRF      12D    446
     128     565       1       1       0       0       0       001010000D    447
     128       0      -9       7       0                  SPLSRF       3D    448
     102     572       1       1       0       0       0       001010000D    449
     102       0       0       1       0                  CCURVE      29D    450
     126     573       1       1       0       0       0       001010500D    451
     126       0      -9      19       0                B_SPLINE      13D    452
     126     592       1       1       0       0       0       001010500D    453
     126       0      -9      19       0                B_SPLINE      14D    454
     102     611       1       1       0       0       0       001010500D    455
     102       0       0       1       0                  CCURVE      30D    456
     142     612       1       1       0       0       0       001010500D    457
     142       0       0       1       0                  UV_BND      15D    458
     144     613       1       1       0       0       0       000000000D    459
     144       0      -9       1       0                 TRM_SRF      13D    460
     110     614       1       1       0       0       0       001010000D    461
     110       0      -9       2       0                    LINE      75D    462
     110     616       1       1       0       0       0       001010000D    463
     110       0      -9       2       0                    LINE      76D    464
     120     618       1       1       0       0       0       001010000D    465
     120       0      -9       1       0                    SREV      11D    466
     110     619       1       1       0       0       0       001010000D    467
     110       0       0       2       0                    LINE      77D    468
     124     621       1       1       0       0       0       001000000D    469
     124       0       0       2       0                   XFORM      32D    470
     100     623       1       1       0       0     469       001010000D    471
     100       0       0       1       0                     ARC      32D    472
     102     624       1       1       0       0       0       001010000D    473
     102       0       0       1       0                  CCURVE      31D    474
     110     625       1       1       0       0       0       001010500D    475
     110       0      -9       2       0                    LINE      78D    476
     110     627       1       1       0       0       0       001010500D    477
     110       0      -9       2       0                    LINE      79D    478
     110     629       1       1       0       0       0       001010500D    479
     110       0      -9       2       0                    LINE      80D    480
     110     631       1       1       0       0       0       001010500D    481
     110       0      -9       2       0                    LINE      81D    482
     102     633       1       1       0       0       0       001010500D    483
     102       0       0       1       0                  CCURVE      32D    484
     142     634       1       1       0       0       0       001010500D    485
     142       0       0       1       0                  UV_BND      16D    486
     144     635       1       1       0       0       0       000000000D    487
     144       0      -9       1       0                 TRM_SRF      14D    488
     110     636       1       1       0       0       0       001010000D    489
     110       0      -9       2       0                    LINE      82D    490
     110     638       1       1       0       0       0       001010000D    491
     110       0      -9       2       0                    LINE      83D    492
     120     640       1       1       0       0       0       001010000D    493
     120       0      -9       1       0                    SREV      12D    494
     110     641       1       1       0       0       0       001010000D    495
     110       0       0       2       0                    LINE      84D    496
     102     643       1       1       0       0       0       001010000D    497
     102       0       0       1       0                  CCURVE      33D    498
     110     644       1       1       0       0       0       001010500D    499
     110       0      -9       2       0                    LINE      85D    500
     110     646       1       1       0       0       0       001010500D    501
     110       0      -9       2       0                    LINE      86D    502
     110     648       1       1       0       0       0       001010500D    503
     110       0      -9       2       0                    LINE      87D    504
     110     650       1       1       0       0       0       001010500D    505
     110       0      -9       2       0                    LINE      88D    506
     102     652       1       1       0       0       0       001010500D    507
     102       0       0       1       0                  CCURVE      34D    508
     142     653       1       1       0       0       0       001010500D    509
     142       0       0       1       0                  UV_BND      17D    510
     144     654       1       1       0       0       0       000000000D    511
     144       0      -9       1       0                 TRM_SRF      15D    512
314,1.1D0,1.2D0,1D2;                                                   1P      1
314,1.1D1,1.1D1,1.1D1;                                                 3P      2
314,3.92D1,1.2D0,1.2D0;                                                5P      3
314,4.1D1,0D0,2.2D1;                                                   7P      4
314,8.549019607843D1,7.607843137255D1,1.058823529412D1;                9P      5
314,8.784D1,9.49D1,1D2;                                               11P      6
314,9.6D1,9.6D1,9.6D1;                                                13P      7
314,9.8D1,6.27D1,0D0;                                                 15P      8
314,1D2,1D2,9.49D1;                                                   17P      9
110,1.190060683165D1,1.136912447581D0,5.5D-1,1.190060683165D1,        19P     10
1.086912447581D0,5D-1;                                                19P     11
124,0D0,1D0,0D0,1.190060683165D1,0D0,0D0,-1D0,1.136912447581D0,       21P     12
-1D0,0D0,0D0,0D0;                                                     21P     13
100,0D0,0D0,0D0,5.5D-1,0D0,-5.5D-1,0D0;                               23P     14
124,0D0,1D0,0D0,1.190060683165D1,0D0,0D0,-1D0,1.086912447581D0,       25P     15
-1D0,0D0,0D0,0D0;                                                     25P     16
100,0D0,0D0,0D0,4.999999999999D-1,0D0,-4.999999999999D-1,0D0;         27P     17
124,0D0,-1D0,0D0,1.190060683165D1,0D0,0D0,-1D0,1.086912447581D0,      29P     18
1D0,0D0,0D0,0D0;                                                      29P     19
100,0D0,0D0,0D0,4.999999999999D-1,0D0,-4.999999999999D-1,0D0;         31P     20
110,1.190060683165D1,1.136912447581D0,-5.5D-1,1.190060683165D1,       33P     21
1.086912447581D0,-5D-1;                                               33P     22
124,0D0,-1D0,0D0,1.190060683165D1,0D0,0D0,-1D0,1.136912447581D0,      35P     23
1D0,0D0,0D0,0D0;                                                      35P     24
100,0D0,0D0,0D0,5.5D-1,0D0,-5.5D-1,0D0;                               37P     25
110,1.190060683165D1,1.586912447581D0,-5.499999999999D-1,             39P     26
1.190060683165D1,1.136912447581D0,-5.5D-1;                            39P     27
124,0D0,-1D0,0D0,1.190060683165D1,0D0,0D0,1D0,1.586912447581D0,       41P     28
-1D0,0D0,0D0,0D0;                                                     41P     29
100,0D0,0D0,0D0,5.5D-1,0D0,-5.5D-1,0D0;                               43P     30
110,1.190060683165D1,1.586912447581D0,5.499999999999D-1,              45P     31
1.190060683165D1,1.136912447581D0,5.5D-1;                             45P     32
124,0D0,1D0,0D0,1.190060683165D1,0D0,0D0,1D0,1.586912447581D0,        47P     33
1D0,0D0,0D0,0D0;                                                      47P     34
100,0D0,0D0,0D0,5.5D-1,0D0,-5.5D-1,0D0;                               49P     35
124,0D0,-1D0,0D0,1.190060683165D1,0D0,0D0,-1D0,1.586912447581D0,      51P     36
1D0,0D0,0D0,0D0;                                                      51P     37
100,0D0,0D0,0D0,4.6D-1,0D0,-4.6D-1,0D0;                               53P     38
124,0D0,1D0,0D0,1.190060683165D1,0D0,0D0,-1D0,1.586912447581D0,       55P     39
-1D0,0D0,0D0,0D0;                                                     55P     40
100,0D0,0D0,0D0,4.6D-1,0D0,-4.6D-1,0D0;                               57P     41
110,1.190060683165D1,1.586912447581D0,4.6D-1,1.190060683165D1,        59P     42
2.938839861851D0,4.249995169796D-1;                                   59P     43
110,1.190060683165D1,1.586912447581D0,-4.6D-1,1.190060683165D1,       61P     44
2.938839861851D0,-4.249995169796D-1;                                  61P     45
124,0D0,-1D0,0D0,1.190060683165D1,1D0,0D0,0D0,2.784890228090D0,       63P     46
0D0,0D0,1D0,0D0;                                                      63P     47
100,0D0,0D0,0D0,4.520233170621D-1,0D0,1.539496337604D-1,              65P     48
4.249995169796D-1;                                                    65P     49
124,0D0,1D0,0D0,1.190060683165D1,0D0,0D0,1D0,2.938839861851D0,        67P     50
1D0,0D0,0D0,0D0;                                                      67P     51
100,0D0,0D0,0D0,4.249995169796D-1,0D0,0D0,4.249995169796D-1;          69P     52
124,-1D0,0D0,0D0,1.190060683165D1,0D0,0D0,1D0,2.938839861851D0,       71P     53
0D0,1D0,0D0,0D0;                                                      71P     54
100,0D0,0D0,0D0,4.249995169796D-1,0D0,0D0,4.249995169796D-1;          73P     55
124,1D0,0D0,0D0,1.190060683165D1,0D0,0D0,1D0,2.938839861851D0,        75P     56
0D0,-1D0,0D0,0D0;                                                     75P     57
100,0D0,0D0,0D0,4.249995169796D-1,0D0,0D0,4.249995169796D-1;          77P     58
124,0D0,1D0,0D0,1.190060683165D1,1D0,0D0,0D0,2.784890228090D0,        79P     59
0D0,0D0,-1D0,0D0;                                                     79P     60
100,0D0,0D0,0D0,4.520233170621D-1,0D0,1.539496337604D-1,              81P     61
4.249995169796D-1;                                                    81P     62
124,0D0,-1D0,0D0,1.190060683165D1,0D0,0D0,1D0,2.938839861851D0,       83P     63
-1D0,0D0,0D0,0D0;                                                     83P     64
100,0D0,0D0,0D0,4.249995169796D-1,0D0,0D0,4.249995169796D-1;          85P     65
110,1.190060683165D1,1.086912447581D0,2.5D-1,1.190060683165D1,        87P     66
7.369124475811D-1,2.5D-1;                                             87P     67
124,0D0,1D0,0D0,1.190060683165D1,0D0,0D0,1D0,1.086912447581D0,        89P     68
1D0,0D0,0D0,0D0;                                                      89P     69
100,0D0,0D0,0D0,2.5D-1,0D0,-2.5D-1,0D0;                               91P     70
110,1.190060683165D1,7.369124475811D-1,2.5D-1,1.190060683165D1,       93P     71
6.369124475810D-1,1.5D-1;                                             93P     72
124,0D0,1D0,0D0,1.190060683165D1,0D0,0D0,-1D0,7.369124475811D-1,      95P     73
-1D0,0D0,0D0,0D0;                                                     95P     74
100,0D0,0D0,0D0,2.5D-1,0D0,-2.5D-1,0D0;                               97P     75
124,0D0,1D0,0D0,1.190060683165D1,0D0,0D0,-1D0,6.369124475810D-1,      99P     76
-1D0,0D0,0D0,0D0;                                                     99P     77
100,0D0,0D0,0D0,1.5D-1,0D0,-1.5D-1,0D0;                              101P     78
124,0D0,-1D0,0D0,1.190060683165D1,0D0,0D0,-1D0,                      103P     79
6.369124475810D-1,1D0,0D0,0D0,0D0;                                   103P     80
100,0D0,0D0,0D0,1.5D-1,0D0,-1.5D-1,0D0;                              105P     81
110,1.190060683165D1,7.369124475811D-1,-2.5D-1,1.190060683165D1,     107P     82
6.369124475810D-1,-1.5D-1;                                           107P     83
124,0D0,-1D0,0D0,1.190060683165D1,0D0,0D0,-1D0,                      109P     84
7.369124475811D-1,1D0,0D0,0D0,0D0;                                   109P     85
100,0D0,0D0,0D0,2.5D-1,0D0,-2.5D-1,0D0;                              111P     86
110,1.190060683165D1,1.086912447581D0,-2.5D-1,1.190060683165D1,      113P     87
7.369124475811D-1,-2.5D-1;                                           113P     88
124,0D0,-1D0,0D0,1.190060683165D1,0D0,0D0,1D0,1.086912447581D0,      115P     89
-1D0,0D0,0D0,0D0;                                                    115P     90
100,0D0,0D0,0D0,2.5D-1,0D0,-2.5D-1,0D0;                              117P     91
110,1.190060683165D1,5.869124475817D-1,0D0,1.190060683165D1,         119P     92
1.586912447582D0,0D0;                                                119P     93
110,1.190060683165D1,1.084341532548D0,4.974290849664D-1,             121P     94
1.190060683165D1,1.139483362614D0,5.525709150335D-1;                 121P     95
120,119,121,-6.283185307180D-2,3.204424506662D0;                     123P     96
110,1.190060683165D1,1.086912447581D0,5D-1,1.190060683165D1,         125P     97
1.136912447581D0,5.5D-1;                                             125P     98
124,0D0,1D0,0D0,1.190060683165D1,0D0,0D0,1D0,1.136912447581D0,       127P     99
1D0,0D0,0D0,0D0;                                                     127P    100
100,0D0,0D0,0D0,5.5D-1,0D0,-5.5D-1,0D0;                              129P    101
102,4,27,125,129,33;                                                 131P    102
110,4.662367988879D-2,3.141592653590D0,0D0,4.662367988879D-2,        133P    103
0D0,0D0;                                                             133P    104
110,4.662367988879D-2,0D0,0D0,9.533763201122D-1,0D0,0D0;             135P    105
110,9.533763201122D-1,0D0,0D0,9.533763201122D-1,                     137P    106
3.141592653590D0,0D0;                                                137P    107
110,9.533763201122D-1,3.141592653590D0,0D0,4.662367988879D-2,        139P    108
3.141592653590D0,0D0;                                                139P    109
102,4,133,135,137,139;                                               141P    110
142,0,123,141,131,1;                                                 143P    111
144,123,1,0,143;                                                     145P    112
128,1,1,1,1,0,0,1,0,0,-5.2D-1,-5.2D-1,5.2D-1,5.2D-1,                 147P    113
-2.052091188567D-2,-2.052091188567D-2,1.020520911886D0,              147P    114
1.020520911886D0,1D0,1D0,1D0,1D0,1.138008591977D1,                   147P    115
1.086912447581D0,5.2D-1,1.138008591977D1,1.086912447581D0,           147P    116
-5.2D-1,1.242112774354D1,1.086912447581D0,5.2D-1,                    147P    117
1.242112774354D1,1.086912447581D0,-5.2D-1,-5.2D-1,5.2D-1,            147P    118
-2.052091188567D-2,1.020520911886D0;                                 147P    119
102,2,27,31;                                                         149P    120
126,21,3,0,0,1,0,0D0,0D0,0D0,0D0,5.263136337115D-2,                  151P    121
1.052631282067D-1,1.578947204057D-1,2.105255196644D-1,               151P    122
2.631583536169D-1,3.157909337602D-1,3.684231642153D-1,               151P    123
4.210550274043D-1,4.736865445886D-1,5.263177892867D-1,               151P    124
5.789488443998D-1,6.315797932789D-1,6.842108040232D-1,               151P    125
7.368420944784D-1,7.894738216050D-1,8.421039377872D-1,               151P    126
8.947353370241D-1,9.473675160053D-1,1D0,1D0,1D0,1D0,1D0,1D0,1D0,     151P    127
1D0,1D0,1D0,1D0,1D0,1D0,1D0,1D0,1D0,1D0,1D0,1D0,1D0,1D0,1D0,1D0,     151P    128
1D0,1D0,1D0,5D-1,5D-1,0D0,5.000220633133D-1,5.275612836987D-1,       151P    129
0D0,4.954227857530D-1,5.826713083538D-1,0D0,4.750711887986D-1,       151P    130
6.630915157250D-1,0D0,4.417445962477D-1,7.390599956116D-1,0D0,       151P    131
3.963725887590D-1,8.085088002913D-1,0D0,3.401869337628D-1,           151P    132
8.695424447595D-1,0D0,2.747213072781D-1,9.204961321231D-1,0D0,       151P    133
2.017621129048D-1,9.599791304546D-1,0D0,1.232998146435D-1,           151P    134
9.869146512707D-1,0D0,4.147470381761D-2,1.000568220430D0,0D0,        151P    135
-4.148129225732D-2,1.000567654294D0,0D0,-1.233055068268D-1,          151P    136
9.869131479333D-1,0D0,-2.017662128061D-1,9.599772304915D-1,0D0,      151P    137
-2.747235177059D-1,9.204945573103D-1,0D0,-3.401874547701D-1,         151P    138
8.695418231278D-1,0D0,-3.963720233814D-1,8.085093996582D-1,0D0,      151P    139
-4.417436746083D-1,7.390616183756D-1,0D0,-4.750705129399D-1,         151P    140
6.630935144117D-1,0D0,-4.954226202364D-1,5.826727029533D-1,0D0,      151P    141
-5.000220648934D-1,5.275618726036D-1,0D0,-5D-1,5D-1,0D0,0D0,1D0,     151P    142
0D0,0D0,1D0;                                                         151P    143
126,21,3,0,0,1,0,0D0,0D0,0D0,0D0,5.263136337115D-2,                  153P    144
1.052631282067D-1,1.578947204057D-1,2.105255196644D-1,               153P    145
2.631583536169D-1,3.157909337602D-1,3.684231642153D-1,               153P    146
4.210550274043D-1,4.736865445886D-1,5.263177892867D-1,               153P    147
5.789488443998D-1,6.315797932789D-1,6.842108040232D-1,               153P    148
7.368420944784D-1,7.894738216050D-1,8.421039377872D-1,               153P    149
8.947353370241D-1,9.473675160053D-1,1D0,1D0,1D0,1D0,1D0,1D0,1D0,     153P    150
1D0,1D0,1D0,1D0,1D0,1D0,1D0,1D0,1D0,1D0,1D0,1D0,1D0,1D0,1D0,1D0,     153P    151
1D0,1D0,1D0,-5D-1,5D-1,0D0,-5.000220633133D-1,4.724387163013D-1,     153P    152
0D0,-4.954227857530D-1,4.173286916461D-1,0D0,-4.750711887986D-1,     153P    153
3.369084842749D-1,0D0,-4.417445962477D-1,2.609400043883D-1,0D0,      153P    154
-3.963725887590D-1,1.914911997087D-1,0D0,-3.401869337628D-1,         153P    155
1.304575552404D-1,0D0,-2.747213072781D-1,7.950386787681D-2,0D0,      153P    156
-2.017621129048D-1,4.002086954534D-2,0D0,-1.232998146435D-1,         153P    157
1.308534872924D-2,0D0,-4.147470381761D-2,-5.682204303191D-4,0D0,     153P    158
4.148129225732D-2,-5.676542940386D-4,0D0,1.233055068268D-1,          153P    159
1.308685206665D-2,0D0,2.017662128061D-1,4.002276950847D-2,0D0,       153P    160
2.747235177059D-1,7.950544268967D-2,0D0,3.401874547701D-1,           153P    161
1.304581768721D-1,0D0,3.963720233814D-1,1.914906003418D-1,0D0,       153P    162
4.417436746083D-1,2.609383816243D-1,0D0,4.750705129399D-1,           153P    163
3.369064855882D-1,0D0,4.954226202364D-1,4.173272970467D-1,0D0,       153P    164
5.000220648934D-1,4.724381273963D-1,0D0,5D-1,5D-1,0D0,0D0,1D0,       153P    165
0D0,0D0,1D0;                                                         153P    166
102,2,151,153;                                                       155P    167
142,0,147,155,149,1;                                                 157P    168
102,2,91,117;                                                        159P    169
126,18,3,0,0,1,0,0D0,0D0,0D0,0D0,6.25D-2,1.25D-1,1.875D-1,           161P    170
2.5D-1,3.125D-1,3.75D-1,4.375D-1,5D-1,5.625D-1,6.25D-1,6.875D-1,     161P    171
7.5D-1,8.125D-1,8.75D-1,9.375D-1,1D0,1D0,1D0,1D0,1D0,1D0,1D0,        161P    172
1D0,1D0,1D0,1D0,1D0,1D0,1D0,1D0,1D0,1D0,1D0,1D0,1D0,1D0,1D0,1D0,     161P    173
-2.5D-1,5D-1,0D0,-2.500218130818D-1,5.163666648950D-1,0D0,           161P    174
-2.467667796131D-1,5.490849643235D-1,0D0,-2.324614723363D-1,         161P    175
5.962881105494D-1,0D0,-2.092066298085D-1,6.397877420264D-1,0D0,      161P    176
-1.779164268833D-1,6.779162708741D-1,0D0,-1.397878344379D-1,         161P    177
7.092073462568D-1,0D0,-9.628758489431D-2,7.324587625523D-1,0D0,      161P    178
-4.908697453247D-2,7.467769023007D-1,0D0,0D0,7.516115488496D-1,      161P    179
0D0,4.908697453247D-2,7.467769023007D-1,0D0,9.628758489431D-2,       161P    180
7.324587625523D-1,0D0,1.397878344379D-1,7.092073462568D-1,0D0,       161P    181
1.779164268833D-1,6.779162708741D-1,0D0,2.092066298085D-1,           161P    182
6.397877420264D-1,0D0,2.324614723363D-1,5.962881105494D-1,0D0,       161P    183
2.467667796131D-1,5.490849643235D-1,0D0,2.500218130818D-1,           161P    184
5.163666648950D-1,0D0,2.5D-1,5D-1,0D0,0D0,1D0,0D0,0D0,1D0;           161P    185
126,18,3,0,0,1,0,0D0,0D0,0D0,0D0,6.25D-2,1.25D-1,1.875D-1,           163P    186
2.5D-1,3.125D-1,3.75D-1,4.375D-1,5D-1,5.625D-1,6.25D-1,6.875D-1,     163P    187
7.5D-1,8.125D-1,8.75D-1,9.375D-1,1D0,1D0,1D0,1D0,1D0,1D0,1D0,        163P    188
1D0,1D0,1D0,1D0,1D0,1D0,1D0,1D0,1D0,1D0,1D0,1D0,1D0,1D0,1D0,1D0,     163P    189
2.5D-1,5D-1,0D0,2.500218130818D-1,4.836333351049D-1,0D0,             163P    190
2.467667796131D-1,4.509150356765D-1,0D0,2.324614723363D-1,           163P    191
4.037118894506D-1,0D0,2.092066298085D-1,3.602122579735D-1,0D0,       163P    192
1.779164268833D-1,3.220837291258D-1,0D0,1.397878344379D-1,           163P    193
2.907926537431D-1,0D0,9.628758489431D-2,2.675412374476D-1,0D0,       163P    194
4.908697453247D-2,2.532230976993D-1,0D0,0D0,2.483884511503D-1,       163P    195
0D0,-4.908697453247D-2,2.532230976993D-1,0D0,-9.628758489431D-2,     163P    196
2.675412374476D-1,0D0,-1.397878344379D-1,2.907926537431D-1,0D0,      163P    197
-1.779164268833D-1,3.220837291258D-1,0D0,-2.092066298085D-1,         163P    198
3.602122579735D-1,0D0,-2.324614723363D-1,4.037118894506D-1,0D0,      163P    199
-2.467667796131D-1,4.509150356765D-1,0D0,-2.500218130818D-1,         163P    200
4.836333351049D-1,0D0,-2.5D-1,5D-1,0D0,0D0,1D0,0D0,0D0,1D0;          163P    201
102,2,161,163;                                                       165P    202
142,0,147,165,159,1;                                                 167P    203
144,147,1,1,157,167;                                                 169P    204
110,1.190060683165D1,5.869124475817D-1,0D0,1.190060683165D1,         171P    205
1.586912447582D0,0D0;                                                171P    206
110,1.190060683165D1,1.084341532548D0,4.974290849664D-1,             173P    207
1.190060683165D1,1.139483362614D0,5.525709150335D-1;                 173P    208
120,171,173,3.078760800518D0,6.346017160251D0;                       175P    209
110,1.190060683165D1,1.086912447581D0,-5D-1,1.190060683165D1,        177P    210
1.136912447581D0,-5.5D-1;                                            177P    211
124,0D0,-1D0,0D0,1.190060683165D1,0D0,0D0,1D0,1.136912447581D0,      179P    212
-1D0,0D0,0D0,0D0;                                                    179P    213
100,0D0,0D0,0D0,5.5D-1,0D0,-5.5D-1,0D0;                              181P    214
102,4,177,181,19,31;                                                 183P    215
110,4.662367988879D-2,3.141592653590D0,0D0,9.533763201122D-1,        185P    216
3.141592653590D0,0D0;                                                185P    217
110,9.533763201122D-1,3.141592653590D0,0D0,9.533763201122D-1,        187P    218
6.283185307180D0,0D0;                                                187P    219
110,9.533763201122D-1,6.283185307180D0,0D0,4.662367988879D-2,        189P    220
6.283185307180D0,0D0;                                                189P    221
110,4.662367988879D-2,6.283185307180D0,0D0,4.662367988879D-2,        191P    222
3.141592653590D0,0D0;                                                191P    223
102,4,185,187,189,191;                                               193P    224
142,0,175,193,183,1;                                                 195P    225
144,175,1,0,195;                                                     197P    226
110,1.190060683165D1,3.236913545153D0,0D0,1.190060683165D1,          199P    227
4.236913545153D0,0D0;                                                199P    228
110,1.190060683165D1,1.127912447581D0,5.5D-1,1.190060683165D1,       201P    229
1.595912447581D0,5.5D-1;                                             201P    230
120,199,201,3.078760800518D0,6.346017160251D0;                       203P    231
110,1.190060683165D1,1.136912447581D0,-5.5D-1,1.190060683165D1,      205P    232
1.586912447581D0,-5.499999999999D-1;                                 205P    233
102,4,205,43,45,37;                                                  207P    234
110,1.923076923083D-2,3.141592653590D0,0D0,9.807692307692D-1,        209P    235
3.141592653590D0,0D0;                                                209P    236
110,9.807692307692D-1,3.141592653590D0,0D0,9.807692307692D-1,        211P    237
6.283185307180D0,0D0;                                                211P    238
110,9.807692307692D-1,6.283185307180D0,0D0,1.923076923083D-2,        213P    239
6.283185307180D0,0D0;                                                213P    240
110,1.923076923083D-2,6.283185307180D0,0D0,1.923076923083D-2,        215P    241
3.141592653590D0,0D0;                                                215P    242
102,4,209,211,213,215;                                               217P    243
142,0,203,217,207,1;                                                 219P    244
144,203,1,0,219;                                                     221P    245
110,1.190060683165D1,3.236913545153D0,0D0,1.190060683165D1,          223P    246
4.236913545153D0,0D0;                                                223P    247
110,1.190060683165D1,1.127912447581D0,5.5D-1,1.190060683165D1,       225P    248
1.595912447581D0,5.5D-1;                                             225P    249
120,223,225,-6.283185307180D-2,3.204424506662D0;                     227P    250
110,1.190060683165D1,1.136912447581D0,5.5D-1,1.190060683165D1,       229P    251
1.586912447581D0,5.499999999999D-1;                                  229P    252
102,4,23,229,49,39;                                                  231P    253
110,1.923076923083D-2,3.141592653590D0,0D0,1.923076923083D-2,        233P    254
0D0,0D0;                                                             233P    255
110,1.923076923083D-2,0D0,0D0,9.807692307692D-1,0D0,0D0;             235P    256
110,9.807692307692D-1,0D0,0D0,9.807692307692D-1,                     237P    257
3.141592653590D0,0D0;                                                237P    258
110,9.807692307692D-1,3.141592653590D0,0D0,1.923076923083D-2,        239P    259
3.141592653590D0,0D0;                                                239P    260
102,4,233,235,237,239;                                               241P    261
142,0,227,241,231,1;                                                 243P    262
144,227,1,0,243;                                                     245P    263
128,1,1,1,1,0,0,1,0,0,-5.719999999999D-1,-5.719999999999D-1,         247P    264
5.719999999999D-1,5.719999999999D-1,-1.119999999999D-1,              247P    265
-1.119999999999D-1,1.032D0,1.032D0,1D0,1D0,1D0,1D0,                  247P    266
1.132860683165D1,1.586912447581D0,-5.719999999999D-1,                247P    267
1.132860683165D1,1.586912447581D0,5.719999999999D-1,                 247P    268
1.247260683165D1,1.586912447581D0,-5.719999999999D-1,                247P    269
1.247260683165D1,1.586912447581D0,5.719999999999D-1,                 247P    270
-5.719999999999D-1,5.719999999999D-1,-1.119999999999D-1,1.032D0;     247P    271
102,2,49,43;                                                         249P    272
126,22,3,0,0,1,0,0D0,0D0,0D0,0D0,5D-2,1D-1,1.5D-1,2D-1,2.5D-1,       251P    273
3D-1,3.5D-1,4D-1,4.5D-1,5D-1,5.5D-1,6D-1,6.5D-1,7D-1,7.5D-1,         251P    274
8D-1,8.5D-1,9D-1,9.5D-1,1D0,1D0,1D0,1D0,1D0,1D0,1D0,1D0,1D0,1D0,     251P    275
1D0,1D0,1D0,1D0,1D0,1D0,1D0,1D0,1D0,1D0,1D0,1D0,1D0,1D0,1D0,1D0,     251P    276
1D0,5.499999999999D-1,4.6D-1,0D0,5.500197945746D-1,                  251P    277
4.888009701220D-1,0D0,5.454579357760D-1,5.463920498785D-1,0D0,       251P    278
5.252390568857D-1,6.306601048753D-1,0D0,4.920723404548D-1,           251P    279
7.107236120579D-1,0D0,4.467931111163D-1,7.846140960338D-1,0D0,       251P    280
3.905112965171D-1,8.505113363721D-1,0D0,3.246140807306D-1,           251P    281
9.067929363935D-1,0D0,2.507237131255D-1,9.520729994911D-1,0D0,       251P    282
1.706597159076D-1,9.852365954635D-1,0D0,8.639350468128D-2,           251P    283
1.005467122429D0,0D0,0D0,1.012266438786D0,0D0,                       251P    284
-8.639350468128D-2,1.005467122429D0,0D0,-1.706597159076D-1,          251P    285
9.852365954635D-1,0D0,-2.507237131255D-1,9.520729994911D-1,0D0,      251P    286
-3.246140807306D-1,9.067929363935D-1,0D0,-3.905112965171D-1,         251P    287
8.505113363721D-1,0D0,-4.467931111163D-1,7.846140960338D-1,0D0,      251P    288
-4.920723404548D-1,7.107236120579D-1,0D0,-5.252390568857D-1,         251P    289
6.306601048753D-1,0D0,-5.454579357760D-1,5.463920498785D-1,0D0,      251P    290
-5.500197945746D-1,4.888009701220D-1,0D0,-5.499999999999D-1,         251P    291
4.6D-1,0D0,0D0,1D0,0D0,0D0,1D0;                                      251P    292
126,22,3,0,0,1,0,0D0,0D0,0D0,0D0,5D-2,1D-1,1.5D-1,2D-1,2.5D-1,       253P    293
3D-1,3.5D-1,4D-1,4.5D-1,5D-1,5.5D-1,6D-1,6.5D-1,7D-1,7.5D-1,         253P    294
8D-1,8.5D-1,9D-1,9.5D-1,1D0,1D0,1D0,1D0,1D0,1D0,1D0,1D0,1D0,1D0,     253P    295
1D0,1D0,1D0,1D0,1D0,1D0,1D0,1D0,1D0,1D0,1D0,1D0,1D0,1D0,1D0,1D0,     253P    296
1D0,-5.499999999999D-1,4.6D-1,0D0,-5.500197945746D-1,                253P    297
4.311990298781D-1,0D0,-5.454579357760D-1,3.736079501216D-1,0D0,      253P    298
-5.252390568857D-1,2.893398951248D-1,0D0,-4.920723404548D-1,         253P    299
2.092763879422D-1,0D0,-4.467931111163D-1,1.353859039663D-1,0D0,      253P    300
-3.905112965171D-1,6.948866362800D-2,0D0,-3.246140807306D-1,         253P    301
1.320706360654D-2,0D0,-2.507237131255D-1,-3.207299949106D-2,0D0,     253P    302
-1.706597159076D-1,-6.523659546347D-2,0D0,-8.639350468128D-2,        253P    303
-8.546712242861D-2,0D0,0D0,-9.226643878557D-2,0D0,                   253P    304
8.639350468128D-2,-8.546712242861D-2,0D0,1.706597159076D-1,          253P    305
-6.523659546347D-2,0D0,2.507237131255D-1,-3.207299949106D-2,0D0,     253P    306
3.246140807306D-1,1.320706360654D-2,0D0,3.905112965171D-1,           253P    307
6.948866362800D-2,0D0,4.467931111163D-1,1.353859039663D-1,0D0,       253P    308
4.920723404548D-1,2.092763879422D-1,0D0,5.252390568857D-1,           253P    309
2.893398951248D-1,0D0,5.454579357760D-1,3.736079501216D-1,0D0,       253P    310
5.500197945746D-1,4.311990298781D-1,0D0,5.499999999999D-1,           253P    311
4.6D-1,0D0,0D0,1D0,0D0,0D0,1D0;                                      253P    312
102,2,251,253;                                                       255P    313
142,0,247,255,249,1;                                                 257P    314
102,2,53,57;                                                         259P    315
126,21,3,0,0,1,0,0D0,0D0,0D0,0D0,5.263129376004D-2,                  261P    316
1.052630396472D-1,1.578947191426D-1,2.105255680628D-1,               261P    317
2.631582185564D-1,3.157908273757D-1,3.684230763680D-1,               261P    318
4.210549172334D-1,4.736863631189D-1,5.263175207482D-1,               261P    319
5.789485102974D-1,6.315794514773D-1,6.842105134915D-1,               261P    320
7.368418910222D-1,7.894735277095D-1,8.421038019305D-1,               261P    321
8.947353812925D-1,9.473675985024D-1,1D0,1D0,1D0,1D0,1D0,1D0,1D0,     261P    322
1D0,1D0,1D0,1D0,1D0,1D0,1D0,1D0,1D0,1D0,1D0,1D0,1D0,1D0,1D0,1D0,     261P    323
1D0,1D0,1D0,4.6D-1,4.6D-1,0D0,4.600202981458D-1,                     261P    324
4.346436526232D-1,0D0,4.557889720807D-1,3.839424727531D-1,0D0,       261P    325
4.370655215293D-1,3.099558781906D-1,0D0,4.064050429188D-1,           261P    326
2.400648189763D-1,0D0,3.646628029647D-1,1.761719398846D-1,0D0,       261P    327
3.129720444355D-1,1.200210194629D-1,0D0,2.527437373690D-1,           261P    328
7.314364413669D-2,0D0,1.856212788816D-1,3.681925937453D-2,0D0,       261P    329
1.134360067846D-1,1.203856960213D-2,0D0,3.815699769689D-2,           261P    330
-5.227340333365D-4,0D0,-3.816240928296D-2,-5.222672612215D-4,        261P    331
0D0,-1.134406212823D-1,1.203979424D-2,0D0,-1.856244870266D-1,        261P    332
3.682075797773D-2,0D0,-2.527452998092D-1,7.314478078156D-2,0D0,      261P    333
-3.129721777397D-1,1.200212645753D-1,0D0,-3.646620743278D-1,         261P    334
1.761711074465D-1,0D0,-4.064041035858D-1,2.400631401466D-1,0D0,      261P    335
-4.370648789428D-1,3.099539602634D-1,0D0,-4.557888190787D-1,         261P    336
3.839411746734D-1,0D0,-4.600202996112D-1,4.346431171052D-1,0D0,      261P    337
-4.6D-1,4.6D-1,0D0,0D0,1D0,0D0,0D0,1D0;                              261P    338
126,21,3,0,0,1,0,0D0,0D0,0D0,0D0,5.263129376004D-2,                  263P    339
1.052630396472D-1,1.578947191426D-1,2.105255680628D-1,               263P    340
2.631582185564D-1,3.157908273757D-1,3.684230763680D-1,               263P    341
4.210549172334D-1,4.736863631189D-1,5.263175207482D-1,               263P    342
5.789485102974D-1,6.315794514773D-1,6.842105134915D-1,               263P    343
7.368418910222D-1,7.894735277095D-1,8.421038019305D-1,               263P    344
8.947353812925D-1,9.473675985024D-1,1D0,1D0,1D0,1D0,1D0,1D0,1D0,     263P    345
1D0,1D0,1D0,1D0,1D0,1D0,1D0,1D0,1D0,1D0,1D0,1D0,1D0,1D0,1D0,1D0,     263P    346
1D0,1D0,1D0,-4.6D-1,4.6D-1,0D0,-4.600202981458D-1,                   263P    347
4.853563473768D-1,0D0,-4.557889720807D-1,5.360575272470D-1,0D0,      263P    348
-4.370655215293D-1,6.100441218095D-1,0D0,-4.064050429188D-1,         263P    349
6.799351810238D-1,0D0,-3.646628029647D-1,7.438280601155D-1,0D0,      263P    350
-3.129720444355D-1,7.999789805372D-1,0D0,-2.527437373690D-1,         263P    351
8.468563558634D-1,0D0,-1.856212788816D-1,8.831807406255D-1,0D0,      263P    352
-1.134360067846D-1,9.079614303979D-1,0D0,-3.815699769689D-2,         263P    353
9.205227340334D-1,0D0,3.816240928296D-2,9.205222672613D-1,0D0,       263P    354
1.134406212823D-1,9.079602057601D-1,0D0,1.856244870266D-1,           263P    355
8.831792420223D-1,0D0,2.527452998092D-1,8.468552192185D-1,0D0,       263P    356
3.129721777397D-1,7.999787354248D-1,0D0,3.646620743278D-1,           263P    357
7.438288925536D-1,0D0,4.064041035858D-1,6.799368598535D-1,0D0,       263P    358
4.370648789428D-1,6.100460397367D-1,0D0,4.557888190787D-1,           263P    359
5.360588253266D-1,0D0,4.600202996112D-1,4.853568828949D-1,0D0,       263P    360
4.6D-1,4.6D-1,0D0,0D0,1D0,0D0,0D0,1D0;                               263P    361
102,2,261,263;                                                       265P    362
142,0,247,265,259,1;                                                 267P    363
144,247,1,1,257,267;                                                 269P    364
110,1.190060683165D1,1.935485611286D1,0D0,1.190060683165D1,          271P    365
1.835485611286D1,0D0;                                                271P    366
110,1.190060683165D1,2.965878410136D0,-4.242995073192D-1,            273P    367
1.190060683165D1,1.559873899296D0,-4.607000096604D-1;                273P    368
120,271,273,3.078760800518D0,6.346017160251D0;                       275P    369
110,1.190060683165D1,2.938839861851D0,4.249995169796D-1,             277P    370
1.190060683165D1,1.586912447581D0,4.6D-1;                            277P    371
102,5,277,53,61,85,73;                                               279P    372
110,1.923076923077D-2,3.141592653590D0,0D0,9.807692307692D-1,        281P    373
3.141592653590D0,0D0;                                                281P    374
110,9.807692307692D-1,3.141592653590D0,0D0,9.807692307692D-1,        283P    375
6.283185307180D0,0D0;                                                283P    376
110,9.807692307692D-1,6.283185307180D0,0D0,1.923076923077D-2,        285P    377
6.283185307180D0,0D0;                                                285P    378
110,1.923076923077D-2,6.283185307180D0,0D0,1.923076923077D-2,        287P    379
4.712388980385D0,0D0;                                                287P    380
110,1.923076923077D-2,4.712388980385D0,0D0,1.923076923077D-2,        289P    381
3.141592653590D0,0D0;                                                289P    382
102,5,281,283,285,287,289;                                           291P    383
142,0,275,291,279,1;                                                 293P    384
144,275,1,0,293;                                                     295P    385
110,1.190060683165D1,1.935485611286D1,0D0,1.190060683165D1,          297P    386
1.835485611286D1,0D0;                                                297P    387
110,1.190060683165D1,2.965878410136D0,-4.242995073192D-1,            299P    388
1.190060683165D1,1.559873899296D0,-4.607000096604D-1;                299P    389
120,297,299,-6.283185307180D-2,3.204424506662D0;                     301P    390
110,1.190060683165D1,2.938839861851D0,-4.249995169796D-1,            303P    391
1.190060683165D1,1.586912447581D0,-4.6D-1;                           303P    392
102,5,69,77,303,57,59;                                               305P    393
110,1.923076923077D-2,3.141592653590D0,0D0,1.923076923077D-2,        307P    394
1.570796326795D0,0D0;                                                307P    395
110,1.923076923077D-2,1.570796326795D0,0D0,1.923076923077D-2,        309P    396
0D0,0D0;                                                             309P    397
110,1.923076923077D-2,0D0,0D0,9.807692307692D-1,0D0,0D0;             311P    398
110,9.807692307692D-1,0D0,0D0,9.807692307692D-1,                     313P    399
3.141592653590D0,0D0;                                                313P    400
110,9.807692307692D-1,3.141592653590D0,0D0,1.923076923077D-2,        315P    401
3.141592653590D0,0D0;                                                315P    402
102,5,307,309,311,313,315;                                           317P    403
142,0,301,317,305,1;                                                 319P    404
144,301,1,0,319;                                                     321P    405
110,1.190060683165D1,2.784890228090D0,0D0,1.190060683165D1,          323P    406
2.784890228090D0,-1D0;                                               323P    407
124,3.174766982824D-1,9.482660734455D-1,0D0,1.190060683165D1,        325P    408
0D0,0D0,1D0,2.784890228090D0,9.482660734455D-1,                      325P    409
-3.174766982824D-1,0D0,0D0;                                          325P    410
100,0D0,0D0,0D0,4.520233170621D-1,0D0,1.329782150321D-1,             327P    411
4.320206864199D-1;                                                   327P    412
120,323,327,3.440194713183D0,5.984583247586D0;                       329P    413
124,-9.402159157228D-1,3.405789656183D-1,0D0,1.190060683165D1,       331P    414
3.405789656183D-1,9.402159157228D-1,0D0,2.784890228090D0,0D0,        331P    415
0D0,-1D0,0D0;                                                        331P    416
100,0D0,0D0,0D0,4.520233170621D-1,0D0,1.539496337604D-1,             333P    417
4.249995169796D-1;                                                   333P    418
124,1D0,0D0,0D0,1.190060683165D1,0D0,0D0,-1D0,2.938839861851D0,      335P    419
0D0,1D0,0D0,0D0;                                                     335P    420
100,0D0,0D0,0D0,4.249995169796D-1,0D0,0D0,4.249995169796D-1;         337P    421
124,0D0,-1D0,0D0,1.190060683165D1,0D0,0D0,-1D0,2.938839861851D0,     339P    422
1D0,0D0,0D0,0D0;                                                     339P    423
100,0D0,0D0,0D0,4.249995169796D-1,0D0,0D0,4.249995169796D-1;         341P    424
102,4,333,81,337,341;                                                343P    425
110,1.247728992832D0,3.489125261922D0,0D0,1.247728992832D0,          345P    426
4.712388980385D0,0D0;                                                345P    427
110,1.247728992832D0,4.712388980385D0,0D0,1.247728992832D0,          347P    428
5.935652698848D0,0D0;                                                347P    429
126,14,3,0,0,1,0,0D0,0D0,0D0,0D0,1.092619398804D-1,                  349P    430
2.185268312498D-1,3.277819259264D-1,4.345574012011D-1,               349P    431
5.316201072405D-1,6.165425013066D-1,6.910894415127D-1,               349P    432
7.563728607481D-1,8.155979868085D-1,8.735632785853D-1,               349P    433
9.346108469056D-1,1D0,1D0,1D0,1D0,1D0,1D0,1D0,1D0,1D0,1D0,1D0,       349P    434
1D0,1D0,1D0,1D0,1D0,1D0,1D0,1D0,1.247728992832D0,                    349P    435
5.935652698848D0,0D0,1.193926366501D0,5.935570342605D0,0D0,          349P    436
1.086294798254D0,5.932577284633D0,0D0,9.254330223464D-1,             349P    437
5.917919039178D0,0D0,7.670196336187D-1,5.891609605300D0,0D0,         349P    438
6.166529543304D-1,5.851267729844D0,0D0,4.811210926515D-1,            349P    439
5.795084870705D0,0D0,3.648586451098D-1,5.722411665902D0,0D0,         349P    440
2.681449044950D-1,5.632369060465D0,0D0,1.888282695165D-1,            349P    441
5.522545069623D0,0D0,1.240913902756D-1,5.387543795069D0,0D0,         349P    442
7.170993929362D-2,5.215502838688D0,0D0,3.413690936012D-2,            349P    443
4.988405505932D0,0D0,2.425128561776D-2,4.808541145900D0,0D0,         349P    444
2.446527436926D-2,4.712388980385D0,0D0,0D0,1D0,0D0,0D0,1D0;          349P    445
126,15,3,0,0,1,0,0D0,0D0,0D0,0D0,5.749140383735D-2,                  351P    446
1.121011609409D-1,1.644649632915D-1,2.177607895726D-1,               351P    447
2.759329632524D-1,3.417063589002D-1,4.159201232086D-1,               351P    448
4.998044861262D-1,5.942941550369D-1,6.951398089496D-1,               351P    449
7.967584255825D-1,8.983778472299D-1,1D0,1D0,1D0,1D0,1D0,1D0,1D0,     351P    450
1D0,1D0,1D0,1D0,1D0,1D0,1D0,1D0,1D0,1D0,1D0,1D0,1D0,                 351P    451
2.446527436926D-2,4.712388980385D0,0D0,2.431431653440D-2,            351P    452
4.628329802165D0,0D0,3.196424003375D-2,4.467994514158D0,0D0,         351P    453
6.201854729530D-2,4.258435081850D0,0D0,1.053768685165D-1,            351P    454
4.091747419034D0,0D0,1.599675499073D-1,3.956753608639D0,0D0,         351P    455
2.272909063526D-1,3.844320153232D0,0D0,3.095098258384D-1,            351P    456
3.750136449327D0,0D0,4.082099351981D-1,3.672347024433D0,0D0,         351P    457
5.243238192159D-1,3.609612938009D0,0D0,6.564247807975D-1,            351P    458
3.561402901939D0,0D0,7.995986557500D-1,3.526926990238D0,0D0,         351P    459
9.479162674333D-1,3.504413423530D0,0D0,1.097593910091D0,             351P    460
3.491794084617D0,0D0,1.197689344170D0,3.489185760128D0,0D0,          351P    461
1.247728992832D0,3.489125261922D0,0D0,0D0,1D0,0D0,0D0,1D0;           351P    462
102,4,345,347,349,351;                                               353P    463
142,0,329,353,343,1;                                                 355P    464
144,329,1,0,355;                                                     357P    465
110,1.190060683165D1,2.784890228090D0,0D0,1.190060683165D1,          359P    466
2.784890228090D0,-1D0;                                               359P    467
124,9.997007401023D-1,2.446283382873D-2,0D0,1.190060683165D1,        361P    468
0D0,0D0,1D0,2.784890228090D0,2.446283382873D-2,                      361P    469
-9.997007401023D-1,0D0,0D0;                                          361P    470
100,0D0,0D0,0D0,4.520233170621D-1,0D0,1.329782150321D-1,             363P    471
4.320206864199D-1;                                                   363P    472
120,359,363,3.440194713183D0,5.984583247586D0;                       365P    473
124,0D0,1D0,0D0,1.190060683165D1,0D0,0D0,-1D0,2.938839861851D0,      367P    474
-1D0,0D0,0D0,0D0;                                                    367P    475
100,0D0,0D0,0D0,4.249995169796D-1,0D0,0D0,4.249995169796D-1;         369P    476
124,9.402159157228D-1,-3.405789656183D-1,0D0,1.190060683165D1,       371P    477
3.405789656183D-1,9.402159157228D-1,0D0,2.784890228090D0,0D0,        371P    478
0D0,1D0,0D0;                                                         371P    479
100,0D0,0D0,0D0,4.520233170621D-1,0D0,1.539496337604D-1,             373P    480
4.249995169796D-1;                                                   373P    481
124,-1D0,0D0,0D0,1.190060683165D1,0D0,0D0,-1D0,2.938839861851D0,     375P    482
0D0,-1D0,0D0,0D0;                                                    375P    483
100,0D0,0D0,0D0,4.249995169796D-1,0D0,0D0,4.249995169796D-1;         377P    484
102,4,369,373,65,377;                                                379P    485
126,15,3,0,0,1,0,0D0,0D0,0D0,0D0,5.749140383735D-2,                  381P    486
1.121011609409D-1,1.644649632915D-1,2.177607895726D-1,               381P    487
2.759329632524D-1,3.417063589002D-1,4.159201232086D-1,               381P    488
4.998044861262D-1,5.942941550369D-1,6.951398089496D-1,               381P    489
7.967584255825D-1,8.983778472299D-1,1D0,1D0,1D0,1D0,1D0,1D0,1D0,     381P    490
1D0,1D0,1D0,1D0,1D0,1D0,1D0,1D0,1D0,1D0,1D0,1D0,1D0,                 381P    491
1.247728992832D0,4.712388980385D0,0D0,1.247879950667D0,              381P    492
4.796448158604D0,0D0,1.240230027168D0,4.956783446611D0,0D0,          381P    493
1.210175719906D0,5.166342878919D0,0D0,1.166817398685D0,              381P    494
5.333030541735D0,0D0,1.112226717294D0,5.468024352131D0,0D0,          381P    495
1.044903360849D0,5.580457807538D0,0D0,9.626844413631D-1,             381P    496
5.674641511442D0,0D0,8.639843320033D-1,5.752430936336D0,0D0,         381P    497
7.478704479856D-1,5.815165022760D0,0D0,6.157694864040D-1,            381P    498
5.863375058830D0,0D0,4.725956114515D-1,5.897850970531D0,0D0,         381P    499
3.242779997682D-1,5.920364537239D0,0D0,1.746003571106D-1,            381P    500
5.932983876152D0,0D0,7.450492303133D-2,5.935592200641D0,0D0,         381P    501
2.446527436926D-2,5.935652698848D0,0D0,0D0,1D0,0D0,0D0,1D0;          381P    502
110,2.446527436926D-2,5.935652698848D0,0D0,2.446527436926D-2,        383P    503
4.712388980385D0,0D0;                                                383P    504
110,2.446527436926D-2,4.712388980385D0,0D0,2.446527436926D-2,        385P    505
3.489125261922D0,0D0;                                                385P    506
126,14,3,0,0,1,0,0D0,0D0,0D0,0D0,1.092619398804D-1,                  387P    507
2.185268312498D-1,3.277819259264D-1,4.345574012011D-1,               387P    508
5.316201072405D-1,6.165425013066D-1,6.910894415127D-1,               387P    509
7.563728607481D-1,8.155979868085D-1,8.735632785853D-1,               387P    510
9.346108469056D-1,1D0,1D0,1D0,1D0,1D0,1D0,1D0,1D0,1D0,1D0,1D0,       387P    511
1D0,1D0,1D0,1D0,1D0,1D0,1D0,1D0,2.446527436926D-2,                   387P    512
3.489125261922D0,0D0,7.826790070055D-2,3.489207618164D0,0D0,         387P    513
1.858994689470D-1,3.492200676137D0,0D0,3.467612448551D-1,            387P    514
3.506858921591D0,0D0,5.051746335828D-1,3.533168355470D0,0D0,         387P    515
6.555413128711D-1,3.573510230926D0,0D0,7.910731745500D-1,            387P    516
3.629693090065D0,0D0,9.073356220916D-1,3.702366294868D0,0D0,         387P    517
1.004049362706D0,3.792408900304D0,0D0,1.083365997685D0,              387P    518
3.902232891147D0,0D0,1.148102876926D0,4.037234165701D0,0D0,          387P    519
1.200484327908D0,4.209275122081D0,0D0,1.238057357841D0,              387P    520
4.436372454838D0,0D0,1.247942981584D0,4.616236814869D0,0D0,          387P    521
1.247728992832D0,4.712388980385D0,0D0,0D0,1D0,0D0,0D0,1D0;           387P    522
102,4,381,383,385,387;                                               389P    523
142,0,365,389,379,1;                                                 391P    524
144,365,1,0,391;                                                     393P    525
110,1.190060683165D1,3.236913545153D0,0D0,1.190060683165D1,          395P    526
4.236913545153D0,0D0;                                                395P    527
110,1.190060683165D1,7.299124475811D-1,2.5D-1,1.190060683165D1,      397P    528
1.093912447581D0,2.5D-1;                                             397P    529
120,395,397,-6.283185307180D-2,3.204424506662D0;                     399P    530
110,1.190060683165D1,7.369124475811D-1,2.5D-1,1.190060683165D1,      401P    531
1.086912447581D0,2.5D-1;                                             401P    532
102,4,97,401,91,113;                                                 403P    533
110,1.923076923077D-2,3.141592653590D0,0D0,1.923076923077D-2,        405P    534
0D0,0D0;                                                             405P    535
110,1.923076923077D-2,0D0,0D0,9.807692307691D-1,0D0,0D0;             407P    536
110,9.807692307691D-1,0D0,0D0,9.807692307691D-1,                     409P    537
3.141592653590D0,0D0;                                                409P    538
110,9.807692307691D-1,3.141592653590D0,0D0,1.923076923077D-2,        411P    539
3.141592653590D0,0D0;                                                411P    540
102,4,405,407,409,411;                                               413P    541
142,0,399,413,403,1;                                                 415P    542
144,399,1,0,415;                                                     417P    543
110,1.190060683165D1,4.869124475809D-1,0D0,1.190060683165D1,         419P    544
1.486912447581D0,0D0;                                                419P    545
110,1.190060683165D1,6.343415325476D-1,1.474290849665D-1,            421P    546
1.190060683165D1,7.394833626145D-1,2.525709150335D-1;                421P    547
120,419,421,-6.283185307180D-2,3.204424506662D0;                     423P    548
110,1.190060683165D1,6.369124475810D-1,1.5D-1,1.190060683165D1,      425P    549
7.369124475811D-1,2.5D-1;                                            425P    550
124,0D0,1D0,0D0,1.190060683165D1,0D0,0D0,1D0,7.369124475811D-1,      427P    551
1D0,0D0,0D0,0D0;                                                     427P    552
100,0D0,0D0,0D0,2.5D-1,0D0,-2.5D-1,0D0;                              429P    553
102,4,101,425,429,107;                                               431P    554
110,2.445187640191D-2,3.141592653590D0,0D0,2.445187640191D-2,        433P    555
0D0,0D0;                                                             433P    556
110,2.445187640191D-2,0D0,0D0,9.755481235978D-1,0D0,0D0;             435P    557
110,9.755481235978D-1,0D0,0D0,9.755481235978D-1,                     437P    558
3.141592653590D0,0D0;                                                437P    559
110,9.755481235978D-1,3.141592653590D0,0D0,2.445187640191D-2,        439P    560
3.141592653590D0,0D0;                                                439P    561
102,4,433,435,437,439;                                               441P    562
142,0,423,441,431,1;                                                 443P    563
144,423,1,0,443;                                                     445P    564
128,1,1,1,1,0,0,1,0,0,-1.56D-1,-1.56D-1,1.56D-1,1.56D-1,             447P    565
-6.247221931050D-3,-6.247221931050D-3,3.062472219311D-1,             447P    566
3.062472219311D-1,1D0,1D0,1D0,1D0,1.174435960972D1,                  447P    567
6.369124475810D-1,1.56D-1,1.174435960972D1,6.369124475810D-1,        447P    568
-1.56D-1,1.205685405358D1,6.369124475810D-1,1.56D-1,                 447P    569
1.205685405358D1,6.369124475810D-1,-1.56D-1,-1.56D-1,1.56D-1,        447P    570
-6.247221931050D-3,3.062472219311D-1;                                447P    571
102,2,101,105;                                                       449P    572
126,17,3,0,0,1,0,0D0,0D0,0D0,0D0,6.666735214277D-2,                  451P    573
1.333340446544D-1,2.000002289518D-1,2.666636300825D-1,               451P    574
3.333294536438D-1,3.999966945594D-1,4.666638579528D-1,               451P    575
5.333305536854D-1,5.999969262393D-1,6.666631452168D-1,               451P    576
7.333289173671D-1,7.999937056291D-1,8.666620015309D-1,               451P    577
9.333309815098D-1,1D0,1D0,1D0,1D0,1D0,1D0,1D0,1D0,1D0,1D0,1D0,       451P    578
1D0,1D0,1D0,1D0,1D0,1D0,1D0,1D0,1D0,1D0,1D0,1.5D-1,1.5D-1,0D0,       451P    579
1.500168974607D-1,1.604755631849D-1,0D0,1.477908487147D-1,           451P    580
1.814141427779D-1,0D0,1.380392899100D-1,2.114588460506D-1,0D0,       451P    581
1.222425616980D-1,2.388143055864D-1,0D0,1.011069593214D-1,           451P    582
2.622889233742D-1,0D0,7.555168422066D-2,2.808561649498D-1,0D0,       451P    583
4.669419056444D-2,2.937047744061D-1,0D0,1.579571838008D-2,           451P    584
3.002727527516D-1,0D0,-1.579294578507D-2,3.002730309274D-1,0D0,      451P    585
-4.669125626983D-2,2.937056960527D-1,0D0,-7.554875321841D-2,         451P    586
2.808578364659D-1,0D0,-1.011045030746D-1,2.622911649063D-1,0D0,      451P    587
-1.222409769282D-1,2.388165857670D-1,0D0,-1.380386020409D-1,         451P    588
2.114605716123D-1,0D0,-1.477907267928D-1,1.814150280348D-1,0D0,      451P    589
-1.500168993773D-1,1.604758260244D-1,0D0,-1.5D-1,1.5D-1,0D0,0D0,     451P    590
1D0,0D0,0D0,1D0;                                                     451P    591
126,17,3,0,0,1,0,0D0,0D0,0D0,0D0,6.666735214277D-2,                  453P    592
1.333340446544D-1,2.000002289518D-1,2.666636300825D-1,               453P    593
3.333294536438D-1,3.999966945594D-1,4.666638579528D-1,               453P    594
5.333305536854D-1,5.999969262393D-1,6.666631452168D-1,               453P    595
7.333289173671D-1,7.999937056291D-1,8.666620015309D-1,               453P    596
9.333309815098D-1,1D0,1D0,1D0,1D0,1D0,1D0,1D0,1D0,1D0,1D0,1D0,       453P    597
1D0,1D0,1D0,1D0,1D0,1D0,1D0,1D0,1D0,1D0,1D0,-1.5D-1,1.5D-1,0D0,      453P    598
-1.500168974607D-1,1.395244368151D-1,0D0,-1.477908487147D-1,         453P    599
1.185858572221D-1,0D0,-1.380392899100D-1,8.854115394937D-2,0D0,      453P    600
-1.222425616980D-1,6.118569441356D-2,0D0,-1.011069593214D-1,         453P    601
3.771107662585D-2,0D0,-7.555168422066D-2,1.914383505022D-2,0D0,      453P    602
-4.669419056444D-2,6.295225593934D-3,0D0,-1.579571838008D-2,         453P    603
-2.727527516133D-4,0D0,1.579294578506D-2,-2.730309274181D-4,0D0,     453P    604
4.669125626983D-2,6.294303947266D-3,0D0,7.554875321841D-2,           453P    605
1.914216353411D-2,0D0,1.011045030746D-1,3.770883509374D-2,0D0,       453P    606
1.222409769282D-1,6.118341423300D-2,0D0,1.380386020409D-1,           453P    607
8.853942838770D-2,0D0,1.477907267928D-1,1.185849719652D-1,0D0,       453P    608
1.500168993773D-1,1.395241739756D-1,0D0,1.5D-1,1.5D-1,0D0,0D0,       453P    609
1D0,0D0,0D0,1D0;                                                     453P    610
102,2,451,453;                                                       455P    611
142,0,447,455,449,1;                                                 457P    612
144,447,1,0,457;                                                     459P    613
110,1.190060683165D1,4.869124475809D-1,0D0,1.190060683165D1,         461P    614
1.486912447581D0,0D0;                                                461P    615
110,1.190060683165D1,6.343415325476D-1,1.474290849665D-1,            463P    616
1.190060683165D1,7.394833626145D-1,2.525709150335D-1;                463P    617
120,461,463,3.078760800518D0,6.346017160251D0;                       465P    618
110,1.190060683165D1,6.369124475810D-1,-1.5D-1,1.190060683165D1,     467P    619
7.369124475811D-1,-2.5D-1;                                           467P    620
124,0D0,-1D0,0D0,1.190060683165D1,0D0,0D0,1D0,7.369124475811D-1,     469P    621
-1D0,0D0,0D0,0D0;                                                    469P    622
100,0D0,0D0,0D0,2.5D-1,0D0,-2.5D-1,0D0;                              471P    623
102,4,467,471,93,105;                                                473P    624
110,2.445187640191D-2,3.141592653590D0,0D0,9.755481235978D-1,        475P    625
3.141592653590D0,0D0;                                                475P    626
110,9.755481235978D-1,3.141592653590D0,0D0,9.755481235978D-1,        477P    627
6.283185307180D0,0D0;                                                477P    628
110,9.755481235978D-1,6.283185307180D0,0D0,2.445187640191D-2,        479P    629
6.283185307180D0,0D0;                                                479P    630
110,2.445187640191D-2,6.283185307180D0,0D0,2.445187640191D-2,        481P    631
3.141592653590D0,0D0;                                                481P    632
102,4,475,477,479,481;                                               483P    633
142,0,465,483,473,1;                                                 485P    634
144,465,1,0,485;                                                     487P    635
110,1.190060683165D1,3.236913545153D0,0D0,1.190060683165D1,          489P    636
4.236913545153D0,0D0;                                                489P    637
110,1.190060683165D1,7.299124475811D-1,2.5D-1,1.190060683165D1,      491P    638
1.093912447581D0,2.5D-1;                                             491P    639
120,489,491,3.078760800518D0,6.346017160251D0;                       493P    640
110,1.190060683165D1,7.369124475811D-1,-2.5D-1,1.190060683165D1,     495P    641
1.086912447581D0,-2.5D-1;                                            495P    642
102,4,495,117,87,111;                                                497P    643
110,1.923076923077D-2,3.141592653590D0,0D0,9.807692307691D-1,        499P    644
3.141592653590D0,0D0;                                                499P    645
110,9.807692307691D-1,3.141592653590D0,0D0,9.807692307691D-1,        501P    646
6.283185307180D0,0D0;                                                501P    647
110,9.807692307691D-1,6.283185307180D0,0D0,1.923076923077D-2,        503P    648
6.283185307180D0,0D0;                                                503P    649
110,1.923076923077D-2,6.283185307180D0,0D0,1.923076923077D-2,        505P    650
3.141592653590D0,0D0;                                                505P    651
102,4,499,501,503,505;                                               507P    652
142,0,493,507,497,1;                                                 509P    653
144,493,1,0,509;                                                     511P    654
S      1G      4D    512P    654                                        T      1
