 PTC IGES file: spherical_prt.igs                                       S      1
1H,,1H;,13HSPHERICAL_PRT,17Hspherical_prt.igs,                          G      1
49HPro/ENGINEER by Parametric Technology Corporation,7H2006170,32,38,7, G      2
38,15,13HSPHERICAL_PRT,1.,2,2HMM,32768,0.5,15H20080630.105212,          G      3
0.000155557,1.55563,3HGRA,7HUnknown,10,0,15H20080630.105212;            G      4
     314       1       1       1       0       0       0       001000200D      1
     314       0       4       1       0                   COLOR       1D      2
     314       2       1       1       0       0       0       001000200D      3
     314       0       1       1       0                   COLOR       2D      4
     314       3       1       1       0       0       0       001000200D      5
     314       0       1       1       0                   COLOR       3D      6
     314       4       1       1       0       0       0       001000200D      7
     314       0       1       1       0                   COLOR       4D      8
     314       5       1       1       0       0       0       001000200D      9
     314       0       8       1       0                   COLOR       5D     10
     314       6       1       1       0       0       0       001000200D     11
     314       0       8       1       0                   COLOR       6D     12
     314       7       1       1       0       0       0       001000200D     13
     314       0       5       1       0                   COLOR       7D     14
     314       8       1       1       0       0       0       001000200D     15
     314       0       8       1       0                   COLOR       8D     16
     110       9       1       1       0       0       0       001010000D     17
     110       0       0       1       0                    LINE       1D     18
     110      10       1       1       0       0       0       001010000D     19
     110       0       0       1       0                    LINE       2D     20
     110      11       1       1       0       0       0       001010000D     21
     110       0       0       1       0                    LINE       3D     22
     110      12       1       1       0       0       0       001010000D     23
     110       0       0       1       0                    LINE       4D     24
     110      13       1       1       0       0       0       001010000D     25
     110       0       0       1       0                    LINE       5D     26
     110      14       1       1       0       0       0       001010000D     27
     110       0       0       1       0                    LINE       6D     28
     110      15       1       1       0       0       0       001010000D     29
     110       0       0       1       0                    LINE       7D     30
     110      16       1       1       0       0       0       001010000D     31
     110       0       0       1       0                    LINE       8D     32
     110      17       1       1       0       0       0       001010000D     33
     110       0       0       1       0                    LINE       9D     34
     110      18       1       1       0       0       0       001010000D     35
     110       0       0       1       0                    LINE      10D     36
     110      19       1       1       0       0       0       001010000D     37
     110       0       0       1       0                    LINE      11D     38
     110      20       1       1       0       0       0       001010000D     39
     110       0       0       1       0                    LINE      12D     40
     124      21       1       1       0       0       0       001000000D     41
     124       0       0       1       0                   XFORM       1D     42
     100      22       1       1       0       0      41       001010000D     43
     100       0       0       1       0                     ARC       1D     44
     124      23       1       1       0       0       0       001000000D     45
     124       0       0       1       0                   XFORM       2D     46
     100      24       1       1       0       0      45       001010000D     47
     100       0       0       1       0                     ARC       2D     48
     124      25       1       1       0       0       0       001000000D     49
     124       0       0       1       0                   XFORM       3D     50
     100      26       1       1       0       0      49       001010000D     51
     100       0       0       1       0                     ARC       3D     52
     124      27       1       1       0       0       0       001000000D     53
     124       0       0       1       0                   XFORM       4D     54
     100      28       1       1       0       0      53       001010000D     55
     100       0       0       1       0                     ARC       4D     56
     128      29       1       1       0       0       0       001010000D     57
     128       0       0       4       0                  SPLSRF       1D     58
     102      33       1       1       0       0       0       001010000D     59
     102       0       0       1       0                  CCURVE       1D     60
     110      34       1       1       0       0       0       001010500D     61
     110       0       0       1       0                    LINE      13D     62
     110      35       1       1       0       0       0       001010500D     63
     110       0       0       1       0                    LINE      14D     64
     110      36       1       1       0       0       0       001010500D     65
     110       0       0       1       0                    LINE      15D     66
     110      37       1       1       0       0       0       001010500D     67
     110       0       0       1       0                    LINE      16D     68
     102      38       1       1       0       0       0       001010500D     69
     102       0       0       1       0                  CCURVE       2D     70
     142      39       1       1       0       0       0       001010500D     71
     142       0       0       1       0                  UV_BND       1D     72
     144      40       1       1       0       0       0       000000000D     73
     144       0       0       1       0                 TRM_SRF       1D     74
     128      41       1       1       0       0       0       001010000D     75
     128       0       0       4       0                  SPLSRF       2D     76
     110      45       1       1       0       0       0       001010000D     77
     110       0       0       1       0                    LINE      17D     78
     110      46       1       1       0       0       0       001010000D     79
     110       0       0       1       0                    LINE      18D     80
     102      47       1       1       0       0       0       001010000D     81
     102       0       0       1       0                  CCURVE       3D     82
     110      48       1       1       0       0       0       001010500D     83
     110       0       0       1       0                    LINE      19D     84
     110      49       1       1       0       0       0       001010500D     85
     110       0       0       1       0                    LINE      20D     86
     110      50       1       1       0       0       0       001010500D     87
     110       0       0       1       0                    LINE      21D     88
     110      51       1       1       0       0       0       001010500D     89
     110       0       0       1       0                    LINE      22D     90
     102      52       1       1       0       0       0       001010500D     91
     102       0       0       1       0                  CCURVE       4D     92
     142      53       1       1       0       0       0       001010500D     93
     142       0       0       1       0                  UV_BND       2D     94
     144      54       1       1       0       0       0       000000000D     95
     144       0       0       1       0                 TRM_SRF       2D     96
     128      55       1       1       0       0       0       001010000D     97
     128       0       0       4       0                  SPLSRF       3D     98
     110      59       1       1       0       0       0       001010000D     99
     110       0       0       1       0                    LINE      23D    100
     110      60       1       1       0       0       0       001010000D    101
     110       0       0       1       0                    LINE      24D    102
     102      61       1       1       0       0       0       001010000D    103
     102       0       0       1       0                  CCURVE       5D    104
     110      62       1       1       0       0       0       001010500D    105
     110       0       0       1       0                    LINE      25D    106
     110      63       1       1       0       0       0       001010500D    107
     110       0       0       1       0                    LINE      26D    108
     110      64       1       1       0       0       0       001010500D    109
     110       0       0       1       0                    LINE      27D    110
     110      65       1       1       0       0       0       001010500D    111
     110       0       0       1       0                    LINE      28D    112
     102      66       1       1       0       0       0       001010500D    113
     102       0       0       1       0                  CCURVE       6D    114
     142      67       1       1       0       0       0       001010500D    115
     142       0       0       1       0                  UV_BND       3D    116
     144      68       1       1       0       0       0       000000000D    117
     144       0       0       1       0                 TRM_SRF       3D    118
     128      69       1       1       0       0       0       001010000D    119
     128       0       0       4       0                  SPLSRF       4D    120
     110      73       1       1       0       0       0       001010000D    121
     110       0       0       1       0                    LINE      29D    122
     110      74       1       1       0       0       0       001010000D    123
     110       0       0       1       0                    LINE      30D    124
     102      75       1       1       0       0       0       001010000D    125
     102       0       0       1       0                  CCURVE       7D    126
     110      76       1       1       0       0       0       001010500D    127
     110       0       0       1       0                    LINE      31D    128
     110      77       1       1       0       0       0       001010500D    129
     110       0       0       1       0                    LINE      32D    130
     110      78       1       1       0       0       0       001010500D    131
     110       0       0       1       0                    LINE      33D    132
     110      79       1       1       0       0       0       001010500D    133
     110       0       0       1       0                    LINE      34D    134
     102      80       1       1       0       0       0       001010500D    135
     102       0       0       1       0                  CCURVE       8D    136
     142      81       1       1       0       0       0       001010500D    137
     142       0       0       1       0                  UV_BND       4D    138
     144      82       1       1       0       0       0       000000000D    139
     144       0       0       1       0                 TRM_SRF       4D    140
     128      83       1       1       0       0       0       001010000D    141
     128       0       0       4       0                  SPLSRF       5D    142
     110      87       1       1       0       0       0       001010000D    143
     110       0       0       1       0                    LINE      35D    144
     110      88       1       1       0       0       0       001010000D    145
     110       0       0       1       0                    LINE      36D    146
     102      89       1       1       0       0       0       001010000D    147
     102       0       0       1       0                  CCURVE       9D    148
     110      90       1       1       0       0       0       001010500D    149
     110       0       0       1       0                    LINE      37D    150
     110      91       1       1       0       0       0       001010500D    151
     110       0       0       1       0                    LINE      38D    152
     110      92       1       1       0       0       0       001010500D    153
     110       0       0       1       0                    LINE      39D    154
     110      93       1       1       0       0       0       001010500D    155
     110       0       0       1       0                    LINE      40D    156
     102      94       1       1       0       0       0       001010500D    157
     102       0       0       1       0                  CCURVE      10D    158
     142      95       1       1       0       0       0       001010500D    159
     142       0       0       1       0                  UV_BND       5D    160
     144      96       1       1       0       0       0       000000000D    161
     144       0       0       1       0                 TRM_SRF       5D    162
     128      97       1       1       0       0       0       001010000D    163
     128       0       0       4       0                  SPLSRF       6D    164
     102     101       1       1       0       0       0       001010000D    165
     102       0       0       1       0                  CCURVE      11D    166
     110     102       1       1       0       0       0       001010500D    167
     110       0       0       1       0                    LINE      41D    168
     110     103       1       1       0       0       0       001010500D    169
     110       0       0       1       0                    LINE      42D    170
     110     104       1       1       0       0       0       001010500D    171
     110       0       0       1       0                    LINE      43D    172
     110     105       1       1       0       0       0       001010500D    173
     110       0       0       1       0                    LINE      44D    174
     102     106       1       1       0       0       0       001010500D    175
     102       0       0       1       0                  CCURVE      12D    176
     142     107       1       1       0       0       0       001010500D    177
     142       0       0       1       0                  UV_BND       6D    178
     102     108       1       1       0       0       0       001010000D    179
     102       0       0       1       0                  CCURVE      13D    180
     126     109       1       1       0       0       0       001010500D    181
     126       0       0      23       0                B_SPLINE       1D    182
     126     132       1       1       0       0       0       001010500D    183
     126       0       0      23       0                B_SPLINE       2D    184
     102     155       1       1       0       0       0       001010500D    185
     102       0       0       1       0                  CCURVE      14D    186
     142     156       1       1       0       0       0       001010500D    187
     142       0       0       1       0                  UV_BND       7D    188
     144     157       1       1       0       0       0       000000000D    189
     144       0       0       1       0                 TRM_SRF       6D    190
     110     158       1       1       0       0       0       001010000D    191
     110       0       0       1       0                    LINE      45D    192
     124     159       1       1       0       0       0       001000000D    193
     124       0       0       1       0                   XFORM       5D    194
     100     160       1       1       0       0     193       001010000D    195
     100       0       0       1       0                     ARC       5D    196
     120     161       1       1       0       0       0       001010000D    197
     120       0       0       1       0                    SREV       1D    198
     124     162       1       1       0       0       0       001000000D    199
     124       0       0       1       0                   XFORM       6D    200
     100     163       1       1       0       0     199       001010000D    201
     100       0       0       1       0                     ARC       6D    202
     102     164       1       1       0       0       0       001010000D    203
     102       0       0       1       0                  CCURVE      15D    204
     110     165       1       1       0       0       0       001010500D    205
     110       0       0       2       0                    LINE      46D    206
     110     167       1       1       0       0       0       001010500D    207
     110       0       0       1       0                    LINE      47D    208
     110     168       1       1       0       0       0       001010500D    209
     110       0       0       1       0                    LINE      48D    210
     110     169       1       1       0       0       0       001010500D    211
     110       0       0       2       0                    LINE      49D    212
     102     171       1       1       0       0       0       001010500D    213
     102       0       0       1       0                  CCURVE      16D    214
     142     172       1       1       0       0       0       001010500D    215
     142       0       0       1       0                  UV_BND       8D    216
     144     173       1       1       0       0       0       000000000D    217
     144       0       0       1       0                 TRM_SRF       7D    218
     110     174       1       1       0       0       0       001010000D    219
     110       0       0       1       0                    LINE      50D    220
     124     175       1       1       0       0       0       001000000D    221
     124       0       0       1       0                   XFORM       7D    222
     100     176       1       1       0       0     221       001010000D    223
     100       0       0       1       0                     ARC       7D    224
     120     177       1       1       0       0       0       001010000D    225
     120       0       0       1       0                    SREV       2D    226
     124     178       1       1       0       0       0       001000000D    227
     124       0       0       1       0                   XFORM       8D    228
     100     179       1       1       0       0     227       001010000D    229
     100       0       0       1       0                     ARC       8D    230
     102     180       1       1       0       0       0       001010000D    231
     102       0       0       1       0                  CCURVE      17D    232
     110     181       1       1       0       0       0       001010500D    233
     110       0       0       2       0                    LINE      51D    234
     110     183       1       1       0       0       0       001010500D    235
     110       0       0       2       0                    LINE      52D    236
     110     185       1       1       0       0       0       001010500D    237
     110       0       0       1       0                    LINE      53D    238
     110     186       1       1       0       0       0       001010500D    239
     110       0       0       2       0                    LINE      54D    240
     102     188       1       1       0       0       0       001010500D    241
     102       0       0       1       0                  CCURVE      18D    242
     142     189       1       1       0       0       0       001010500D    243
     142       0       0       1       0                  UV_BND       9D    244
     144     190       1       1       0       0       0       000000000D    245
     144       0       0       1       0                 TRM_SRF       8D    246
314,1.1D0,1.2D0,1D2;                                                   1P      1
314,1.1D1,1.1D1,1.1D1;                                                 3P      2
314,3.92D1,1.2D0,1.2D0;                                                5P      3
314,4.1D1,0D0,2.2D1;                                                   7P      4
314,8.784D1,9.49D1,1D2;                                                9P      5
314,9.6D1,9.6D1,9.6D1;                                                11P      6
314,9.8D1,6.27D1,0D0;                                                 13P      7
314,1D2,1D2,9.49D1;                                                   15P      8
110,-5D-1,5D-1,0D0,-5D-1,-5D-1,0D0;                                   17P      9
110,-5D-1,-5D-1,0D0,5D-1,-5D-1,0D0;                                   19P     10
110,5D-1,-5D-1,0D0,5D-1,5D-1,0D0;                                     21P     11
110,5D-1,5D-1,0D0,-5D-1,5D-1,0D0;                                     23P     12
110,-5D-1,5D-1,0D0,-5D-1,5D-1,3D-1;                                   25P     13
110,5D-1,5D-1,0D0,5D-1,5D-1,3D-1;                                     27P     14
110,5D-1,-5D-1,0D0,5D-1,-5D-1,3D-1;                                   29P     15
110,-5D-1,-5D-1,0D0,-5D-1,-5D-1,3D-1;                                 31P     16
110,-5D-1,5D-1,3D-1,-5D-1,-5D-1,3D-1;                                 33P     17
110,5D-1,5D-1,3D-1,-5D-1,5D-1,3D-1;                                   35P     18
110,5D-1,-5D-1,3D-1,5D-1,5D-1,3D-1;                                   37P     19
110,-5D-1,-5D-1,3D-1,5D-1,-5D-1,3D-1;                                 39P     20
124,-1D0,0D0,0D0,0D0,0D0,1D0,0D0,0D0,0D0,0D0,-1D0,3D-1;               41P     21
100,0D0,0D0,0D0,2D-1,0D0,-2D-1,0D0;                                   43P     22
124,1D0,0D0,0D0,0D0,0D0,-1D0,0D0,0D0,0D0,0D0,-1D0,3D-1;               45P     23
100,0D0,0D0,0D0,2D-1,0D0,-2D-1,0D0;                                   47P     24
124,-1D0,0D0,0D0,0D0,0D0,0D0,1D0,0D0,0D0,1D0,0D0,3D-1;                49P     25
100,0D0,0D0,0D0,2D-1,0D0,0D0,2D-1;                                    51P     26
124,1D0,0D0,0D0,0D0,0D0,0D0,-1D0,0D0,0D0,1D0,0D0,3D-1;                53P     27
100,0D0,0D0,0D0,2D-1,0D0,0D0,2D-1;                                    55P     28
128,1,1,1,1,0,0,1,0,0,-5.2D-1,-5.2D-1,5.2D-1,5.2D-1,-5.2D-1,          57P     29
-5.2D-1,5.2D-1,5.2D-1,1D0,1D0,1D0,1D0,-5.2D-1,-5.2D-1,0D0,            57P     30
5.2D-1,-5.2D-1,0D0,-5.2D-1,5.2D-1,0D0,5.2D-1,5.2D-1,0D0,-5.2D-1,      57P     31
5.2D-1,-5.2D-1,5.2D-1;                                                57P     32
102,4,17,19,21,23;                                                    59P     33
110,-5D-1,5D-1,0D0,-5D-1,-5D-1,0D0;                                   61P     34
110,-5D-1,-5D-1,0D0,5D-1,-5D-1,0D0;                                   63P     35
110,5D-1,-5D-1,0D0,5D-1,5D-1,0D0;                                     65P     36
110,5D-1,5D-1,0D0,-5D-1,5D-1,0D0;                                     67P     37
102,4,61,63,65,67;                                                    69P     38
142,0,57,69,59,1;                                                     71P     39
144,57,1,0,71;                                                        73P     40
128,1,1,1,1,0,0,1,0,0,-2D-2,-2D-2,1.02D0,1.02D0,-6D-3,-6D-3,          75P     41
3.06D-1,3.06D-1,1D0,1D0,1D0,1D0,-5D-1,5.2D-1,-6D-3,-5D-1,             75P     42
-5.2D-1,-6D-3,-5D-1,5.2D-1,3.06D-1,-5D-1,-5.2D-1,3.06D-1,-2D-2,       75P     43
1.02D0,-6D-3,3.06D-1;                                                 75P     44
110,-5D-1,-5D-1,3D-1,-5D-1,5D-1,3D-1;                                 77P     45
110,-5D-1,5D-1,3D-1,-5D-1,5D-1,0D0;                                   79P     46
102,4,17,31,77,79;                                                    81P     47
110,0D0,0D0,0D0,1D0,0D0,0D0;                                          83P     48
110,1D0,0D0,0D0,1D0,3D-1,0D0;                                         85P     49
110,1D0,3D-1,0D0,0D0,3D-1,0D0;                                        87P     50
110,0D0,3D-1,0D0,0D0,0D0,0D0;                                         89P     51
102,4,83,85,87,89;                                                    91P     52
142,0,75,91,81,1;                                                     93P     53
144,75,1,0,93;                                                        95P     54
128,1,1,1,1,0,0,1,0,0,-2D-2,-2D-2,1.02D0,1.02D0,-6D-3,-6D-3,          97P     55
3.06D-1,3.06D-1,1D0,1D0,1D0,1D0,5.2D-1,5D-1,-6D-3,-5.2D-1,5D-1,       97P     56
-6D-3,5.2D-1,5D-1,3.06D-1,-5.2D-1,5D-1,3.06D-1,-2D-2,1.02D0,          97P     57
-6D-3,3.06D-1;                                                        97P     58
110,-5D-1,5D-1,3D-1,5D-1,5D-1,3D-1;                                   99P     59
110,5D-1,5D-1,3D-1,5D-1,5D-1,0D0;                                    101P     60
102,4,23,25,99,101;                                                  103P     61
110,0D0,0D0,0D0,1D0,0D0,0D0;                                         105P     62
110,1D0,0D0,0D0,1D0,3D-1,0D0;                                        107P     63
110,1D0,3D-1,0D0,0D0,3D-1,0D0;                                       109P     64
110,0D0,3D-1,0D0,0D0,0D0,0D0;                                        111P     65
102,4,105,107,109,111;                                               113P     66
142,0,97,113,103,1;                                                  115P     67
144,97,1,0,115;                                                      117P     68
128,1,1,1,1,0,0,1,0,0,-2D-2,-2D-2,1.02D0,1.02D0,-6D-3,-6D-3,         119P     69
3.06D-1,3.06D-1,1D0,1D0,1D0,1D0,5D-1,-5.2D-1,-6D-3,5D-1,5.2D-1,      119P     70
-6D-3,5D-1,-5.2D-1,3.06D-1,5D-1,5.2D-1,3.06D-1,-2D-2,1.02D0,         119P     71
-6D-3,3.06D-1;                                                       119P     72
110,5D-1,5D-1,3D-1,5D-1,-5D-1,3D-1;                                  121P     73
110,5D-1,-5D-1,3D-1,5D-1,-5D-1,0D0;                                  123P     74
102,4,21,27,121,123;                                                 125P     75
110,0D0,0D0,0D0,1D0,0D0,0D0;                                         127P     76
110,1D0,0D0,0D0,1D0,3D-1,0D0;                                        129P     77
110,1D0,3D-1,0D0,0D0,3D-1,0D0;                                       131P     78
110,0D0,3D-1,0D0,0D0,0D0,0D0;                                        133P     79
102,4,127,129,131,133;                                               135P     80
142,0,119,135,125,1;                                                 137P     81
144,119,1,0,137;                                                     139P     82
128,1,1,1,1,0,0,1,0,0,-2D-2,-2D-2,1.02D0,1.02D0,-6D-3,-6D-3,         141P     83
3.06D-1,3.06D-1,1D0,1D0,1D0,1D0,-5.2D-1,-5D-1,-6D-3,5.2D-1,          141P     84
-5D-1,-6D-3,-5.2D-1,-5D-1,3.06D-1,5.2D-1,-5D-1,3.06D-1,-2D-2,        141P     85
1.02D0,-6D-3,3.06D-1;                                                141P     86
110,5D-1,-5D-1,3D-1,-5D-1,-5D-1,3D-1;                                143P     87
110,-5D-1,-5D-1,3D-1,-5D-1,-5D-1,0D0;                                145P     88
102,4,19,29,143,145;                                                 147P     89
110,0D0,0D0,0D0,1D0,0D0,0D0;                                         149P     90
110,1D0,0D0,0D0,1D0,3D-1,0D0;                                        151P     91
110,1D0,3D-1,0D0,0D0,3D-1,0D0;                                       153P     92
110,0D0,3D-1,0D0,0D0,0D0,0D0;                                        155P     93
102,4,149,151,153,155;                                               157P     94
142,0,141,157,147,1;                                                 159P     95
144,141,1,0,159;                                                     161P     96
128,1,1,1,1,0,0,1,0,0,-5.2D-1,-5.2D-1,5.2D-1,5.2D-1,-5.2D-1,         163P     97
-5.2D-1,5.2D-1,5.2D-1,1D0,1D0,1D0,1D0,-5.2D-1,-5.2D-1,3D-1,          163P     98
5.2D-1,-5.2D-1,3D-1,-5.2D-1,5.2D-1,3D-1,5.2D-1,5.2D-1,3D-1,          163P     99
-5.2D-1,5.2D-1,-5.2D-1,5.2D-1;                                       163P    100
102,4,33,39,37,35;                                                   165P    101
110,-5D-1,5D-1,0D0,-5D-1,-5D-1,0D0;                                  167P    102
110,-5D-1,-5D-1,0D0,5D-1,-5D-1,0D0;                                  169P    103
110,5D-1,-5D-1,0D0,5D-1,5D-1,0D0;                                    171P    104
110,5D-1,5D-1,0D0,-5D-1,5D-1,0D0;                                    173P    105
102,4,167,169,171,173;                                               175P    106
142,0,163,175,165,1;                                                 177P    107
102,2,43,47;                                                         179P    108
126,21,3,0,0,1,0,0D0,0D0,0D0,0D0,5.263157894737D-2,                  181P    109
1.052631578947D-1,1.578947368421D-1,2.105263157895D-1,               181P    110
2.631578947368D-1,3.157894736842D-1,3.684210526316D-1,               181P    111
4.210526315789D-1,4.736842105263D-1,5.263157894737D-1,               181P    112
5.789473684211D-1,6.315789473684D-1,6.842105263158D-1,               181P    113
7.368421052632D-1,7.894736842105D-1,8.421052631579D-1,               181P    114
8.947368421053D-1,9.473684210526D-1,1D0,1D0,1D0,1D0,1D0,1D0,1D0,     181P    115
1D0,1D0,1D0,1D0,1D0,1D0,1D0,1D0,1D0,1D0,1D0,1D0,1D0,1D0,1D0,1D0,     181P    116
1D0,1D0,1D0,-2D-1,0D0,0D0,-2.000088254137D-1,1.102455889586D-2,      181P    117
0D0,-1.981691061840D-1,3.306857510137D-2,0D0,-1.900284543185D-1,     181P    118
6.523665713829D-2,0D0,-1.766977665826D-1,9.562415939108D-2,0D0,      181P    119
-1.585489807990D-1,1.234035769419D-1,0D0,-1.360749214972D-1,         181P    120
1.478167880690D-1,0D0,-1.098892191631D-1,1.681979635901D-1,0D0,      181P    121
-8.070599159719D-2,1.839911314859D-1,0D0,-4.932132403168D-2,         181P    122
1.947655024526D-1,0D0,-1.659129684504D-2,2.002271778311D-1,0D0,      181P    123
1.659129684504D-2,2.002271778311D-1,0D0,4.932132403168D-2,           181P    124
1.947655024526D-1,0D0,8.070599159719D-2,1.839911314859D-1,0D0,       181P    125
1.098892191631D-1,1.681979635901D-1,0D0,1.360749214972D-1,           181P    126
1.478167880690D-1,0D0,1.585489807990D-1,1.234035769419D-1,0D0,       181P    127
1.766977665826D-1,9.562415939108D-2,0D0,1.900284543185D-1,           181P    128
6.523665713829D-2,0D0,1.981691061840D-1,3.306857510137D-2,0D0,       181P    129
2.000088254137D-1,1.102455889585D-2,0D0,2D-1,0D0,0D0,0D0,1D0,        181P    130
0D0,0D0,1D0;                                                         181P    131
126,21,3,0,0,1,0,0D0,0D0,0D0,0D0,5.263157894737D-2,                  183P    132
1.052631578947D-1,1.578947368421D-1,2.105263157895D-1,               183P    133
2.631578947368D-1,3.157894736842D-1,3.684210526316D-1,               183P    134
4.210526315789D-1,4.736842105263D-1,5.263157894737D-1,               183P    135
5.789473684211D-1,6.315789473684D-1,6.842105263158D-1,               183P    136
7.368421052632D-1,7.894736842105D-1,8.421052631579D-1,               183P    137
8.947368421053D-1,9.473684210526D-1,1D0,1D0,1D0,1D0,1D0,1D0,1D0,     183P    138
1D0,1D0,1D0,1D0,1D0,1D0,1D0,1D0,1D0,1D0,1D0,1D0,1D0,1D0,1D0,1D0,     183P    139
1D0,1D0,1D0,2D-1,0D0,0D0,2.000088254137D-1,-1.102455889585D-2,       183P    140
0D0,1.981691061840D-1,-3.306857510137D-2,0D0,1.900284543185D-1,      183P    141
-6.523665713829D-2,0D0,1.766977665826D-1,-9.562415939108D-2,0D0,     183P    142
1.585489807990D-1,-1.234035769419D-1,0D0,1.360749214972D-1,          183P    143
-1.478167880690D-1,0D0,1.098892191631D-1,-1.681979635901D-1,0D0,     183P    144
8.070599159719D-2,-1.839911314859D-1,0D0,4.932132403168D-2,          183P    145
-1.947655024526D-1,0D0,1.659129684504D-2,-2.002271778311D-1,0D0,     183P    146
-1.659129684504D-2,-2.002271778311D-1,0D0,-4.932132403168D-2,        183P    147
-1.947655024526D-1,0D0,-8.070599159719D-2,-1.839911314859D-1,        183P    148
0D0,-1.098892191631D-1,-1.681979635901D-1,0D0,                       183P    149
-1.360749214972D-1,-1.478167880690D-1,0D0,-1.585489807990D-1,        183P    150
-1.234035769419D-1,0D0,-1.766977665826D-1,-9.562415939108D-2,        183P    151
0D0,-1.900284543185D-1,-6.523665713829D-2,0D0,                       183P    152
-1.981691061840D-1,-3.306857510137D-2,0D0,-2.000088254137D-1,        183P    153
-1.102455889585D-2,0D0,-2D-1,0D0,0D0,0D0,1D0,0D0,0D0,1D0;            183P    154
102,2,181,183;                                                       185P    155
142,0,163,185,179,1;                                                 187P    156
144,163,1,1,177,187;                                                 189P    157
110,0D0,0D0,3D-1,0D0,0D0,-7D-1;                                      191P    158
124,0D0,1D0,0D0,0D0,0D0,0D0,1D0,0D0,1D0,0D0,0D0,3D-1;                193P    159
100,0D0,0D0,0D0,2D-1,0D0,-6.282151815626D-3,1.999013120731D-1;       195P    160
120,191,195,-3.204424506662D0,6.283185307180D-2;                     197P    161
124,0D0,-1D0,0D0,0D0,0D0,0D0,-1D0,0D0,1D0,0D0,0D0,3D-1;              199P    162
100,0D0,0D0,0D0,2D-1,0D0,0D0,2D-1;                                   201P    163
102,3,43,55,201;                                                     203P    164
110,1.570796326795D0,-3.141592653590D0,0D0,1.570796326795D0,0D0,     205P    165
0D0;                                                                 205P    166
110,1.570796326795D0,0D0,0D0,0D0,0D0,0D0;                            207P    167
110,0D0,0D0,0D0,0D0,-3.141592653590D0,0D0;                           209P    168
110,0D0,-3.141592653590D0,0D0,1.570796326795D0,                      211P    169
-3.141592653590D0,0D0;                                               211P    170
102,4,205,207,209,211;                                               213P    171
142,0,197,213,203,1;                                                 215P    172
144,197,1,0,215;                                                     217P    173
110,0D0,0D0,3D-1,0D0,0D0,-7D-1;                                      219P    174
124,0D0,1D0,0D0,0D0,0D0,0D0,1D0,0D0,1D0,0D0,0D0,3D-1;                221P    175
100,0D0,0D0,0D0,2D-1,0D0,-6.282151815626D-3,1.999013120731D-1;       223P    176
120,219,223,-6.346017160251D0,-3.078760800518D0;                     225P    177
124,0D0,1D0,0D0,0D0,0D0,0D0,1D0,0D0,1D0,0D0,0D0,3D-1;                227P    178
100,0D0,0D0,0D0,2D-1,0D0,0D0,2D-1;                                   229P    179
102,3,47,51,229;                                                     231P    180
110,1.570796326795D0,-6.283185307180D0,0D0,1.570796326795D0,         233P    181
-3.141592653590D0,0D0;                                               233P    182
110,1.570796326795D0,-3.141592653590D0,0D0,0D0,                      235P    183
-3.141592653590D0,0D0;                                               235P    184
110,0D0,-3.141592653590D0,0D0,0D0,-6.283185307180D0,0D0;             237P    185
110,0D0,-6.283185307180D0,0D0,1.570796326795D0,                      239P    186
-6.283185307180D0,0D0;                                               239P    187
102,4,233,235,237,239;                                               241P    188
142,0,225,241,231,1;                                                 243P    189
144,225,1,0,243;                                                     245P    190
S      1G      4D    246P    190                                        T      1
